<svg xmlns="http://www.w3.org/2000/svg" viewBox="0 0 100 100"><path d="M35.995 89.365l4.69-28.272a1.609 1.609 0 00-.449-1.401l-.002-.002a1.608 1.608 0 00-1.406-.447L10.63 64.007c-.594.1-1.081.525-1.264 1.1a1.607 1.607 0 00.395 1.628l5.513 5.513L.473 87.05a1.608 1.608 0 000 2.277l10.2 10.201a1.61 1.61 0 002.278 0l14.802-14.802 5.515 5.515a1.614 1.614 0 001.63.394 1.608 1.608 0 001.097-1.27zm28.011-78.73l-4.69 28.273a1.61 1.61 0 00.449 1.4l.002.003c.37.367.893.534 1.406.447l28.196-4.766a1.61 1.61 0 00.869-2.728l-5.513-5.513 14.802-14.802a1.61 1.61 0 000-2.278l-10.2-10.2a1.61 1.61 0 00-2.278 0L72.248 15.274l-5.515-5.515a1.61 1.61 0 00-2.727.876zm25.359 53.371l-28.271-4.69a1.608 1.608 0 00-1.401.449l-.003.003a1.606 1.606 0 00-.447 1.406l4.765 28.196c.1.594.525 1.082 1.099 1.264a1.607 1.607 0 001.629-.395l5.513-5.513 14.803 14.803a1.61 1.61 0 002.277-.002l10.201-10.2a1.61 1.61 0 000-2.278L84.727 72.248l5.516-5.515a1.612 1.612 0 00-.878-2.727zm-78.73-28.011l28.272 4.69a1.605 1.605 0 001.401-.449l.002-.003a1.61 1.61 0 00.448-1.406L35.993 10.63a1.61 1.61 0 00-1.099-1.264 1.604 1.604 0 00-1.629.395l-5.513 5.513L12.951.473a1.61 1.61 0 00-2.278-.001L.472 10.673a1.61 1.61 0 000 2.278l14.801 14.802-5.515 5.515a1.612 1.612 0 00.877 2.727z"/></svg>