<svg xmlns="http://www.w3.org/2000/svg" viewBox="0 0 100 100"><path d="M60.623 18.128l3.36-6.136a.668.668 0 10-1.169-.644l-3.396 6.197a23.172 23.172 0 00-9.432-1.978 23.09 23.09 0 00-9.411 1.972l-3.398-6.184a.663.663 0 00-.904-.267.66.66 0 00-.265.905l3.362 6.13c-6.606 3.408-11.068 9.893-11.064 17.341l43.365-.004c.002-7.446-4.452-13.92-11.048-17.332zm-20.499 9.481a1.818 1.818 0 01.001-3.636c1.006 0 1.819.82 1.82 1.818a1.82 1.82 0 01-1.821 1.818zm19.746-.004a1.816 1.816 0 01-1.818-1.818c0-.996.814-1.816 1.818-1.82a1.829 1.829 0 011.815 1.822 1.816 1.816 0 01-1.815 1.816zm23.139 13.433a4.813 4.813 0 10-9.627.002l.002 20.159a4.81 4.81 0 004.816 4.813 4.81 4.81 0 004.812-4.815l-.003-20.159zm-11.486-3.907l-43.039.008.007 31.241a5.078 5.078 0 00.546 2.267c.837 1.697 2.567 2.872 4.591 2.872h3.498l.004 10.666a4.816 4.816 0 005.781 4.717 4.82 4.82 0 003.845-4.718l-.003-10.666h6.499v10.666a4.825 4.825 0 003.848 4.715 4.816 4.816 0 005.784-4.72l-.003-10.662 3.511-.002a5.073 5.073 0 002.621-.742c1.5-.897 2.517-2.52 2.518-4.398l-.008-31.244zm-49.722-.902a4.817 4.817 0 00-4.814 4.814l.003 20.161a4.807 4.807 0 002.164 4.017c.761.504 1.671.8 2.651.802a4.815 4.815 0 004.813-4.819V41.042a4.817 4.817 0 00-4.817-4.813z"/></svg>