<svg xmlns="http://www.w3.org/2000/svg" viewBox="0 0 100 100"><path d="M30.278 17.553H19.822a2.27 2.27 0 00-2.269 2.269v10.454a2.27 2.27 0 002.269 2.269h10.455a2.27 2.27 0 002.269-2.269V19.823a2.269 2.269 0 00-2.268-2.27zm24.949 0H44.772a2.27 2.27 0 00-2.269 2.269v10.454a2.27 2.27 0 002.269 2.269h10.455a2.27 2.27 0 002.269-2.269V19.823a2.269 2.269 0 00-2.269-2.27zm27.219 2.269a2.27 2.27 0 00-2.269-2.269H69.721a2.27 2.27 0 00-2.269 2.269v10.455a2.27 2.27 0 002.269 2.27h10.455a2.27 2.27 0 002.269-2.269V19.822h.001zM30.278 42.506H19.822a2.27 2.27 0 00-2.269 2.269V55.23a2.27 2.27 0 002.269 2.269h10.455a2.27 2.27 0 002.269-2.269V44.776a2.269 2.269 0 00-2.268-2.27zm24.949 0H44.772a2.27 2.27 0 00-2.269 2.269V55.23a2.27 2.27 0 002.269 2.269h10.455a2.27 2.27 0 002.269-2.269V44.776a2.269 2.269 0 00-2.269-2.27zm24.95 0H69.721a2.27 2.27 0 00-2.269 2.269V55.23a2.27 2.27 0 002.269 2.27h10.455a2.27 2.27 0 002.269-2.269V44.776a2.269 2.269 0 00-2.268-2.27zM30.278 67.454H19.822a2.27 2.27 0 00-2.269 2.269v10.454a2.27 2.27 0 002.269 2.269h10.455a2.27 2.27 0 002.269-2.269V69.723a2.268 2.268 0 00-2.268-2.269zm24.949 0H44.772a2.27 2.27 0 00-2.269 2.269v10.454a2.27 2.27 0 002.269 2.269h10.455a2.27 2.27 0 002.269-2.269V69.723a2.269 2.269 0 00-2.269-2.269zm24.95 0H69.721a2.27 2.27 0 00-2.269 2.269v10.454a2.27 2.27 0 002.269 2.27h10.455a2.27 2.27 0 002.269-2.269V69.723a2.268 2.268 0 00-2.268-2.269z"/></svg>