<svg xmlns="http://www.w3.org/2000/svg" viewBox="0 0 1800 1800"><path d="M904.328 1132.364V895.221m218.232 366.807l-207.155-115.424m-229.166 115.424l207.155-115.424m81.303-633.76v-7.453c57.008-26.082 97.412-80.138 106.207-142.043 24.032-8.717 40.98-31.933 40.98-58.221a61.775 61.775 0 00-31.146-53.695 173.125 173.125 0 004.831-18.586c10.066-49.925-1.4-100.947-32.293-143.668-30.385-42.033-76.063-71.018-128.615-81.617a217.124 217.124 0 00-42.824-4.294c-45.073 0-89.049 14.537-123.827 40.929-35.818 27.174-60.31 65.782-68.967 108.718-6.563 32.551-3.881 66.134 7.72 97.641-19.665 10.569-32.688 31.348-32.688 54.58 0 26.629 17.197 49.926 41.586 58.449 9.035 63.375 50.755 117.946 109.634 143.38v5.885C703.003 540.551 618.678 632.024 618.678 738.92v28.549h106.436v-.051h11.82v.051h444.389V738.92c-.001-106.9-84.325-198.369-206.626-226.076zM891.838 60.37c10.487 0 21.104 1.066 31.545 3.164 38.423 7.75 71.671 28.738 93.623 59.098 20.469 28.305 28.713 61.591 23.443 94.254-28.099-13.11-65.026-26.972-103.875-32.293-73.02-9.985-74.189-13.376-78.543-25.997l-13.939-40.344-32.07 28.373c-3.413 3.005-29.25 25.717-59.067 50.42-.821-10.957-.134-21.943 2.067-32.853C767.147 104.033 824.688 60.37 891.838 60.37zM770.86 256.186c20.026-16.2 39.808-32.93 54.121-45.206 19.836 17.894 50.771 22.927 103.848 30.187 36.003 4.926 71.31 19.343 96.846 32.006v64.342c0 70.252-57.15 127.411-127.402 127.411-70.257 0-127.412-57.159-127.412-127.411v-81.329zM882.394 521.32a182.452 182.452 0 0035.208-.313v17.627l-17.653 9.783-17.554-9.753V521.32zM678.691 710.336c13.105-63.942 69.255-117.096 146.604-138.622v.551l74.606 41.448 74.796-41.427v-.572c77.361 21.526 133.515 74.692 146.611 138.647l-384.611-.047v.021h-58.006zm-302.204 831.772v-7.458c57.009-26.082 97.414-80.139 106.208-142.039 24.032-8.717 40.98-31.932 40.98-58.221 0-22.635-12.225-42.885-31.146-53.699a174.336 174.336 0 004.835-18.586c10.062-49.921-1.406-100.942-32.293-143.668-30.39-42.029-76.063-71.013-128.615-81.608a216.802 216.802 0 00-42.829-4.298c-45.072 0-89.049 14.537-123.827 40.929-35.818 27.174-60.314 65.782-68.971 108.718-6.559 32.551-3.877 66.139 7.724 97.641-19.665 10.57-32.689 31.349-32.689 54.576 0 26.633 17.198 49.93 41.583 58.449 9.035 63.375 50.755 117.947 109.638 143.385v5.88c-122.292 27.707-206.617 119.176-206.617 226.067v28.558h106.436v-.12h11.816v.12h444.393v-28.558c0-106.892-84.325-198.361-206.626-226.068zm-82.859-452.477c10.488 0 21.105 1.065 31.545 3.172 38.423 7.745 71.675 28.729 93.622 59.094 20.478 28.309 28.718 61.604 23.443 94.254-28.103-13.11-65.034-26.977-103.874-32.294-73.02-9.985-74.189-13.38-78.548-25.996l-13.935-40.345-32.092 28.391c-5.541 4.879-30.295 26.59-59.042 50.402-.825-10.956-.138-21.938 2.063-32.852 12.128-60.16 69.666-103.826 136.818-103.826zm-120.977 195.814c20.013-16.188 39.799-32.926 54.121-45.205 19.833 17.894 50.772 22.932 103.848 30.191 36.012 4.922 71.31 19.338 96.846 32.006v64.342c0 70.252-57.155 127.406-127.403 127.406-70.256 0-127.412-57.154-127.412-127.406v-81.334zm111.534 265.139a182.056 182.056 0 0035.208-.317v17.632l-17.657 9.778-17.55-9.753v-17.34zM116.373 1739.6v.025H80.474c13.093-63.959 69.255-117.121 146.612-138.646v.55l74.606 41.444 74.795-41.427v-.567c77.362 21.525 133.52 74.688 146.612 138.646l-384.611-.051v.025h-22.115zm1456.537-197.492v-7.458c57.009-26.082 97.414-80.139 106.207-142.039 24.033-8.717 40.98-31.932 40.98-58.221 0-22.631-12.224-42.889-31.141-53.699a173.795 173.795 0 004.826-18.586c10.067-49.921-1.4-100.942-32.293-143.668-30.381-42.029-76.059-71.013-128.61-81.608a216.79 216.79 0 00-42.833-4.298c-45.068 0-89.045 14.537-123.822 40.929-35.818 27.174-60.311 65.782-68.967 108.718-6.564 32.551-3.882 66.13 7.719 97.641-19.664 10.57-32.688 31.349-32.688 54.576 0 26.633 17.198 49.93 41.587 58.449 9.035 63.379 50.754 117.951 109.633 143.385v5.88c-122.296 27.707-206.621 119.176-206.621 226.067v28.558h106.436v-.052h11.825v.052h444.384v-28.558c-.001-106.892-84.325-198.361-206.622-226.068zm-82.863-452.477a159.94 159.94 0 0131.55 3.172c38.423 7.745 71.671 28.729 93.622 59.094 20.478 28.309 28.722 61.611 23.447 94.254-28.103-13.11-65.033-26.977-103.883-32.294-73.016-9.985-74.185-13.38-78.539-26.001l-13.939-40.34-32.151 28.442c-5.562 4.9-30.381 26.658-58.986 50.351-.821-10.956-.134-21.943 2.067-32.852 12.125-60.16 69.659-103.826 136.812-103.826zm-120.973 195.814c20.073-16.238 39.828-32.951 54.12-45.205 19.833 17.894 50.769 22.932 103.849 30.191 36.002 4.922 71.309 19.338 96.846 32.006v64.342c0 70.252-57.15 127.406-127.403 127.406-70.257 0-127.411-57.154-127.411-127.406v-81.334zm111.533 265.139a182.326 182.326 0 0035.203-.317v17.632l-17.652 9.778-17.551-9.753v-17.34zM1276.9 1739.6c13.109-63.946 69.255-117.1 146.607-138.621v.55l74.607 41.444 74.795-41.427v-.567c77.37 21.521 133.52 74.688 146.612 138.646l-384.616-.051v.025H1276.9z"/></svg>