<svg xmlns="http://www.w3.org/2000/svg" viewBox="0 0 1800 1800"><path d="M872.831 1326.446c-1.999.113-3.853-.183-5.733-.53a30.95 30.95 0 01-16.53-8.611l-514.859-514.86a31.206 31.206 0 01.004-44.135L455.5 638.535c12.189-12.185 31.954-12.185 44.126 0l373.109 373.1 727.884-727.89c12.189-12.185 31.949-12.185 44.131 0l119.788 119.784a31.202 31.202 0 01.005 44.13l-869.649 869.645a31.206 31.206 0 01-22.063 9.142zM401.905 780.377l470.825 470.83 825.614-825.61-75.657-75.653-727.885 727.889c-12.19 12.186-31.95 12.186-44.13 0L477.563 704.729l-75.658 75.648z"/><path d="M1692.376 662.67c22.568 75.209 34.758 154.872 34.758 237.334 0 456.08-371.054 827.129-827.138 827.129-456.08 0-827.129-371.05-827.129-827.129 0-456.084 371.049-827.138 827.129-827.138 213.186 0 407.787 81.086 554.605 214.022l44.161-44.165C1340.604 98.513 1130.391 10.456 899.996 10.456c-490.494 0-889.54 399.051-889.54 889.548s399.046 889.54 889.54 889.54c490.498 0 889.548-399.042 889.548-889.54 0-100.372-16.734-196.909-47.517-286.985l-49.651 49.651z"/></svg>