<svg xmlns="http://www.w3.org/2000/svg" viewBox="0 0 1800 1800"><path d="M1627.938 384.003a899.793 899.793 0 00-38.118-49.817C1425.985 134.806 1177.596 7.414 900.004 7.414c-277.596 0-525.985 127.392-689.825 326.772a897.534 897.534 0 00-38.122 49.817C68.421 529.789 7.417 707.905 7.417 899.997c0 193.195 61.719 372.25 166.447 518.491 12.194 17.021 24.947 33.613 38.277 49.705 163.849 198.021 411.368 324.393 687.863 324.393 276.49 0 524.014-126.371 687.858-324.393a894.084 894.084 0 0038.273-49.705c104.725-146.241 166.447-325.296 166.447-518.491.001-192.092-60.999-370.208-164.644-515.994zm-89.277-13.313a758.279 758.279 0 01-44.792 26.668c-46.543 25.601-97.693 47.778-152.398 66.383-21.347-67.829-47.821-130.984-79.089-187.832-39.409-71.671-84.575-129.96-133.772-173.723 162.514 46.642 304.767 141.694 410.051 268.504zm-178.917 272.39c9.006 0 17.533 2.022 25.231 5.559 20.911 9.604 35.502 30.696 35.502 55.178 0 18.967-8.748 35.919-22.413 47.063-10.46 8.528-23.799 13.666-38.32 13.666a60.296 60.296 0 01-23.833-4.88c-21.673-9.285-36.909-30.816-36.909-55.85 0-19.525 9.303-36.883 23.661-48.001 10.271-7.95 23.114-12.735 37.081-12.735zM931.363 72.248c102.999 13.842 200.043 95.649 276.063 233.884 29.271 53.217 54.09 112.439 74.167 176.138-107.509 30.102-226.449 47.123-350.23 49.584V72.248zm0 522.332c129.529-2.487 254.326-20.361 367.476-52.055a1261.966 1261.966 0 0111.402 48.234c-43.492 19.112-73.951 62.588-73.951 113.059 0 61.521 45.234 112.655 104.19 121.932.706 14.87 1.205 29.835 1.484 44.86h-322.077c-10.74-43.845-44.964-78.56-88.524-90.014V594.58zm366.521 666.566c-112.896-31.539-237.361-49.31-366.521-51.788V1019.4c42.252-11.102 75.702-44.095 87.482-86.072h323.038c-2.44 115.279-17.499 226.333-43.999 327.818zm12.847 227.606c-.004 33.493-27.249 60.738-60.733 60.738-.727 0-1.424-.086-2.143-.112-23.153-.817-43.01-14.612-52.536-34.354-3.847-7.96-6.063-16.849-6.063-26.272 0-29.946 21.797-54.825 50.338-59.782 3.386-.594 6.85-.955 10.399-.955 19.568 0 36.952 9.337 48.07 23.751 7.91 10.266 12.668 23.063 12.668 36.986zM868.646 72.248v459.606c-123.79-2.461-242.727-19.483-350.244-49.576a1102.706 1102.706 0 0115.068-44.499c2.539.155 5.086.258 7.659.258 68.069 0 123.454-55.385 123.454-123.454 0-29.806-10.619-57.171-28.261-78.525 67.985-95.775 148.162-152.502 232.324-163.81zm-367.48 470.277c113.145 31.703 237.95 49.568 367.48 52.055v186.016c-43.57 11.454-77.785 46.168-88.533 90.014H458.035c2.152-115.306 16.918-226.437 43.131-328.085zm-20.774-227.942c0-33.493 27.245-60.738 60.738-60.738 2.96 0 5.843.284 8.691.693 22.891 3.304 41.659 19.362 48.854 40.76 2.039 6.066 3.192 12.538 3.192 19.285 0 26.965-17.676 49.86-42.046 57.76a60.25 60.25 0 01-18.691 2.978c-16.876 0-32.15-6.928-43.166-18.071-10.851-10.982-17.572-26.05-17.572-42.667zm191.007-212.396c-30.326 26.969-59.12 59.446-85.96 97.199a122.782 122.782 0 00-44.31-8.257c-68.069 0-123.455 55.381-123.455 123.455 0 43.311 22.443 81.459 56.28 103.498a1173.291 1173.291 0 00-15.421 45.661c-54.705-18.605-105.856-40.782-152.403-66.383a760.127 760.127 0 01-44.792-26.668C366.619 243.88 508.876 148.828 671.399 102.187zM223.002 420.56a811.377 811.377 0 0052.906 31.754c50.506 27.778 106.003 51.753 165.312 71.727-28.002 107.586-43.716 225.008-45.91 346.569H70.676c5.852-167.223 61.4-322.036 152.326-450.05zm241.892 628.357c16.385 10.886 27.219 29.491 27.219 50.609 0 15.489-5.877 29.603-15.464 40.342-11.127 12.479-27.271 20.387-45.256 20.387h-.009c-5.267 0-10.353-.749-15.24-2.014-26.126-6.79-45.497-30.507-45.497-58.715 0-22.719 12.547-42.537 31.065-52.95 8.778-4.939 18.889-7.796 29.672-7.796 12.383 0 23.897 3.752 33.51 10.137zM70.797 933.328h324.599a1611.6 1611.6 0 001.661 47.631c-51.418 14.905-89.127 62.391-89.127 118.567 0 67.122 53.879 121.879 120.666 123.368a1332.669 1332.669 0 0013.579 56.676c-59.67 20.042-115.485 44.129-166.258 72.054a810.274 810.274 0 00-50.987 30.498C133.582 1254.58 77.423 1100.223 70.797 933.328zm192.694 498.516a765.558 765.558 0 0142.64-25.266c46.874-25.781 98.412-48.087 153.539-66.77 21.152 66.478 47.227 128.437 77.949 184.278 39.421 71.675 84.583 129.977 133.79 173.744-161.423-46.331-302.854-140.449-407.918-265.986zm605.155 295.909c-103.008-13.847-200.052-95.65-276.073-233.88-28.717-52.21-53.139-110.211-73.009-172.532 107.207-29.912 225.739-46.805 349.082-49.267v455.679zm0-518.396c-129.168 2.479-253.638 20.249-366.534 51.788-4.518-17.322-8.7-34.93-12.547-52.777 38.811-20.834 65.264-61.813 65.264-108.842 0-58.312-40.635-107.276-95.065-120.133-.783-15.267-1.316-30.636-1.652-46.065h323.042c11.789 41.978 45.239 74.971 87.492 86.072v189.957zm0-257.441c-7.745-4.698-14.38-11.041-19.362-18.588-6.316-9.578-10.017-21.015-10.017-33.331a60.32 60.32 0 017.625-29.388c5.154-9.285 12.693-17.039 21.754-22.529 9.165-5.559 19.878-8.82 31.358-8.82s22.185 3.261 31.359 8.82c9.061 5.49 16.6 13.244 21.754 22.529a60.306 60.306 0 017.625 29.388c0 12.316-3.709 23.753-10.025 33.331-4.975 7.547-11.609 13.89-19.354 18.588-9.174 5.559-19.879 8.82-31.359 8.82s-22.193-3.261-31.358-8.82zm62.717 775.837v-455.679c123.342 2.462 241.87 19.354 349.077 49.267-4.858 15.224-9.961 30.223-15.356 44.921a121.578 121.578 0 00-15.099-.964c-68.065 0-123.445 55.385-123.445 123.454 0 31.746 12.052 60.729 31.818 82.63-66.835 91.287-145.028 145.355-226.995 156.371zm197.229-29.922c28.923-25.73 56.435-56.503 82.217-92.035a123.063 123.063 0 0039.189 6.411c68.062 0 123.446-55.386 123.45-123.455-.004-40.635-19.745-76.734-50.14-99.247 5.998-16.247 11.656-32.838 17.018-49.696 55.135 18.683 106.673 40.988 153.543 66.77a760.623 760.623 0 0142.645 25.274c-105.069 125.537-246.495 219.646-407.922 265.978zm446.478-315.709a812.15 812.15 0 00-50.979-30.498c-50.772-27.925-106.592-52.012-166.267-72.054 28.286-107.405 44.301-224.724 46.783-346.242h324.6c.435-11.049.658-22.168.658-33.331v.009c0 11.154-.224 22.264-.658 33.322-6.63 166.895-62.789 321.252-154.137 448.794zm154.254-511.513H1404.69c-.31-17.143-.886-34.207-1.733-51.168 46.817-17.564 80.237-62.751 80.237-115.624 0-63.844-48.72-116.527-110.93-122.826a1337.458 1337.458 0 00-13.48-56.951c59.31-19.973 114.802-43.948 165.304-71.727a815.196 815.196 0 0052.915-31.754c90.921 128.015 146.474 282.82 152.321 450.05h20.52-20.52z"/></svg>