<svg xmlns="http://www.w3.org/2000/svg" viewBox="0 0 1800 1800"><path d="M1591.313 488.215c-13.949-100.311-62.488-192.562-137.895-261.369-80.375-73.338-184.605-113.727-293.484-113.727-137.905 0-266.314 64.672-348.487 174.261-45.448-23.62-96.001-36.004-147.688-36.004-138.682 0-260.158 88.388-303.7 217.866a322.92 322.92 0 00-36.837-2.112c-176.729 0-320.505 143.778-320.505 320.505 0 176.725 143.776 320.501 320.505 320.501 5.427 0 11.038-.147 16.728-.44.839.077 1.689.115 2.547.115h33.405c4.649-18.876 10.265-37.37 16.843-55.408h-46.121a27.931 27.931 0 00-5.905-.255c-5.995.387-11.881.58-17.497.58-146.172 0-265.097-118.917-265.097-265.093 0-146.174 118.924-265.097 265.097-265.097a267.68 267.68 0 0151.257 4.961c14.471 2.837 28.601-6.149 32.188-20.44 29.617-117.917 135.335-200.274 257.093-200.274 50.078 0 98.846 14.039 141.04 40.602 12.746 8.02 29.559 4.396 37.865-8.159 70.713-106.887 189.317-170.699 317.27-170.699 196.637 0 359.281 147.372 378.332 342.804a27.702 27.702 0 0019.15 23.706c110.33 35.196 184.459 136.707 184.459 252.598 0 141.925-110.92 258.198-252.551 264.788-.07.004-.139.004-.209.008-8.727.398-15.997.398-24.674 0a27.2 27.2 0 00-1.279-.027h-55.902c6.578 18.038 12.193 36.532 16.84 55.408h38.433c4.962.217 9.632.325 14.246.325 4.754 0 9.569-.112 14.722-.349.059 0 .119-.008.182-.008 171.364-7.854 305.602-148.479 305.602-320.145-.003-134.053-82.04-252.189-205.973-299.422z"/><path d="M900 786.832c-248.142 0-450.02 201.877-450.02 450.021 0 248.146 201.878 450.027 450.02 450.027s450.023-201.882 450.023-450.027c0-248.144-201.881-450.021-450.023-450.021zm0 844.641c-217.589 0-394.611-177.029-394.611-394.619 0-217.589 177.022-394.613 394.611-394.613 217.593 0 394.615 177.024 394.615 394.613S1117.593 1631.473 900 1631.473z"/><path d="M1055.823 1255.545L927.704 1383.66V963.679c0-15.297-12.402-27.704-27.704-27.704-15.301 0-27.704 12.407-27.704 27.704v419.981l-128.119-128.115c-10.822-10.822-28.361-10.818-39.183 0-10.818 10.821-10.818 28.361 0 39.179l171.418 171.407a27.618 27.618 0 0019.588 8.115c.688 0 1.372-.046 2.056-.1.646.047 1.287.1 1.944.1s1.299-.053 1.944-.1c.684.054 1.368.1 2.056.1 7.089 0 14.181-2.705 19.588-8.115l171.418-171.407c10.818-10.817 10.818-28.357 0-39.179-10.814-10.818-28.36-10.818-39.183 0z"/></svg>