<svg xmlns="http://www.w3.org/2000/svg" viewBox="0 0 1800 1800"><path d="M241.023 324.818c.252 0 .505.035.758.035h465.68c17.266 0 31.256-13.99 31.256-31.252s-13.99-31.247-31.256-31.247h-465.68c-17.258 0-31.252 13.985-31.252 31.247 0 17.004 13.592 30.811 30.494 31.217zm-30.494 125.488c0 17.257 13.994 31.252 31.252 31.252h769.451c17.262 0 31.256-13.995 31.256-31.252 0-17.266-13.994-31.252-31.256-31.252H241.781c-17.258 0-31.252 13.986-31.252 31.252zm800.703 125.445H241.781c-8.149 0-15.549 3.147-21.116 8.261-6.213 5.712-10.136 13.879-10.136 22.987 0 17.262 13.994 31.26 31.252 31.26h769.451c17.262 0 31.256-13.999 31.256-31.26 0-9.108-3.923-17.275-10.141-22.987-5.566-5.114-12.961-8.261-21.115-8.261zm0 156.71H241.781c-17.258 0-31.252 13.99-31.252 31.247 0 17.262 13.994 31.257 31.252 31.257h769.451c17.262 0 31.256-13.995 31.256-31.257 0-17.257-13.994-31.247-31.256-31.247zm0 156.696H241.781c-8.149 0-15.549 3.147-21.116 8.261-6.213 5.713-10.136 13.879-10.136 22.987 0 17.257 13.994 31.261 31.252 31.261h769.451c17.262 0 31.256-14.004 31.256-31.261 0-9.108-3.923-17.274-10.141-22.987-5.566-5.113-12.961-8.261-21.115-8.261zm0 156.71H241.781c-17.258 0-31.252 13.99-31.252 31.243 0 17.271 13.994 31.265 31.252 31.265h769.451c17.262 0 31.256-13.994 31.256-31.265 0-17.253-13.994-31.243-31.256-31.243zm0 156.709H241.781c-17.258 0-31.252 13.995-31.252 31.252 0 17.258 13.994 31.252 31.252 31.252h769.451c17.262 0 31.256-13.994 31.256-31.252 0-17.257-13.994-31.252-31.256-31.252zm0 156.697H241.781c-8.149 0-15.549 3.151-21.116 8.265-6.213 5.713-10.136 13.875-10.136 22.987 0 17.258 13.994 31.261 31.252 31.261h769.451c17.262 0 31.256-14.003 31.256-31.261 0-9.112-3.923-17.274-10.141-22.987-5.566-5.113-12.961-8.265-21.115-8.265z"/><path d="M1233.542 251.228l-49.851-45.109-131.555-119.043-59.185-53.554c-5.293-4.792-11.947-7.421-18.786-7.836H83.676C37.988 25.686.818 63.061.818 109.002v1583.612c0 45.94 37.17 83.316 82.858 83.316h1078.562c45.68 0 82.845-37.376 82.845-83.316V273.898c-.437-9.168-4.822-17.309-11.541-22.67zm-230.425-125.364l131.119 118.657h-131.119V125.864zm180.574 1566.749c0 12.094-9.622 21.926-21.454 21.926H83.676c-11.836 0-21.467-9.832-21.467-21.926V109.001c0-12.089 9.631-21.925 21.467-21.925h857.857V275.38c0 17.052 13.785 30.862 30.786 30.862h211.372v1386.371zm614.887-1511.876c-7.049-88.305-81.114-158.02-171.205-158.02h-.004c-45.889 0-89.033 17.874-121.479 50.32-29.18 29.175-46.519 67.005-49.73 107.699h-.586v13.609c0 .06-.005.115-.005.175 0 .026.005.056.005.082l-.005 1369.26h.197c.557 5.404 2.522 10.731 6.047 15.373l141.135 185.91a30.688 30.688 0 0048.894-.004l141.093-185.897c3.528-4.65 5.494-9.982 6.051-15.391h.197V180.737h-.605zm-249.279-64.289c20.854-20.855 48.578-32.339 78.07-32.339h.004c50.24 0 92.746 33.723 106.076 79.718h-212.19c5.099-17.729 14.637-33.975 28.04-47.379zm46.073 1386.02l-78.413.005.005-1260.345h220.828v1260.336h-81.103l.009-1016.486-61.335.004.009 1016.486zm32.01 193.353l-100.171-131.963 200.338-.004-100.167 131.967z"/></svg>