<svg xmlns="http://www.w3.org/2000/svg" viewBox="0 0 1800 1800"><path d="M1764.199 1597.184h-323.761V853.397h154.119c17.438 0 31.572-14.134 31.572-31.572V712.784h141.638c17.438 0 31.571-14.134 31.571-31.571 0-11.04-5.664-20.757-14.244-26.399L918.838 8.395a31.586 31.586 0 00-37.767 0L13.352 655.908a31.573 31.573 0 0018.883 56.876h141.549v109.042c0 17.438 14.135 31.572 31.572 31.572h154.115v743.786H35.719c-17.438 0-31.572 14.13-31.572 31.572v137.545c0 17.434 14.134 31.572 31.572 31.572h1728.48c17.438 0 31.572-14.139 31.572-31.572v-137.545c0-17.443-14.134-31.572-31.572-31.572zM899.953 73.094l772.627 576.547H127.333l772.62-576.547zm402.948 1523.023V867.153h74.394v728.964h-74.394zm-63.143 1.067H1000.3V853.397h239.458v743.787zM862.753 867.153h74.403v728.964h-74.403V867.153zM236.927 715.852h1326.059v74.402H236.927v-74.402zm260.089 151.301v728.964h-74.402V867.153h74.402zm63.144-13.756h239.449v743.786H560.16V853.397zm1172.468 881.332H67.29v-74.401h1665.338v74.401z"/><path d="M899.998 568.438c-83.726 0-151.843-68.116-151.843-151.845s68.117-151.845 151.843-151.845c83.733 0 151.849 68.116 151.849 151.845S983.73 568.438 899.998 568.438zm0-240.545c-48.908 0-88.699 39.791-88.699 88.701s39.791 88.701 88.699 88.701c48.915 0 88.706-39.791 88.706-88.701s-39.792-88.701-88.706-88.701z"/></svg>