<svg xmlns="http://www.w3.org/2000/svg" viewBox="0 0 1800 1800"><path d="M1704.994 208.972h-323.283V92.869c0-46.782-38.061-84.844-84.844-84.844H1164.02c-46.783 0-84.844 38.062-84.844 84.844v116.103H720.82V92.869c0-46.782-38.061-84.844-84.844-84.844H503.129c-46.782 0-84.844 38.062-84.844 84.844v116.103H95.006c-46.935 0-85.123 38.061-85.123 84.844v1413.316c0 46.783 38.188 84.844 85.123 84.844h1609.988c46.932 0 85.123-38.061 85.123-84.844V293.815c0-46.783-38.191-84.843-85.123-84.843zm-563.302 62.516V92.869c0-12.311 10.013-22.327 22.327-22.327h132.848c12.307 0 22.327 10.017 22.327 22.327v285.79c0 12.311-10.021 22.327-22.327 22.327H1164.02c-12.314 0-22.327-10.017-22.327-22.327V271.488zm-660.89 0V92.869c0-12.311 10.017-22.327 22.327-22.327h132.848c12.311 0 22.327 10.017 22.327 22.327v285.79c0 12.311-10.017 22.327-22.327 22.327H503.129c-12.311 0-22.327-10.017-22.327-22.327V271.488zm1246.799 1435.643c0 12.307-10.144 22.328-22.606 22.328H95.006c-12.463 0-22.606-10.021-22.606-22.328V591.043h1655.201v1116.088zm0-1178.605H72.4V293.815c0-12.311 10.143-22.328 22.606-22.328h323.279v107.171c0 46.782 38.062 84.844 84.844 84.844h132.848c46.783 0 84.844-38.062 84.844-84.844v-107.17h358.355v107.171c0 46.782 38.061 84.844 84.844 84.844h132.848c46.783 0 84.844-38.062 84.844-84.844V271.488h323.283c12.463 0 22.606 10.017 22.606 22.328v234.71z"/><path d="M378.358 914.669h125.835c35.139 0 63.729-28.592 63.729-63.731V725.101c0-35.142-28.589-63.731-63.729-63.731H378.358c-35.144 0-63.733 28.589-63.733 63.731v125.837c0 35.139 28.589 63.731 63.733 63.731zm-1.216-189.568c0-.669.545-1.215 1.216-1.215h125.835c.667 0 1.212.545 1.212 1.215v125.837c0 .669-.545 1.212-1.212 1.212H378.358a1.215 1.215 0 01-1.216-1.212V725.101zm459.937 189.568h125.838c35.14 0 63.729-28.592 63.729-63.731V725.101c0-35.142-28.589-63.731-63.729-63.731H837.079c-35.144 0-63.733 28.589-63.733 63.731v125.837c0 35.139 28.59 63.731 63.733 63.731zm-1.216-189.568c0-.669.545-1.215 1.216-1.215h125.838c.671 0 1.212.545 1.212 1.215v125.837c0 .669-.541 1.212-1.212 1.212H837.079a1.215 1.215 0 01-1.216-1.212V725.101zm459.94 189.568h125.836c35.147 0 63.736-28.592 63.736-63.731V725.101c0-35.142-28.589-63.731-63.736-63.731h-125.836c-35.139 0-63.729 28.589-63.729 63.731v125.837c0 35.139 28.59 63.731 63.729 63.731zm-1.212-189.568c0-.669.54-1.215 1.212-1.215h125.836a1.22 1.22 0 011.221 1.215v125.837c0 .669-.549 1.212-1.221 1.212h-125.836a1.23 1.23 0 01-1.212-1.212V725.101zM378.358 1278.83h125.835c35.139 0 63.729-28.589 63.729-63.729v-125.835c0-35.147-28.589-63.737-63.729-63.737H378.358c-35.144 0-63.733 28.59-63.733 63.737v125.835c0 35.14 28.589 63.729 63.733 63.729zm-1.216-189.563c0-.676.545-1.221 1.216-1.221h125.835c.667 0 1.212.545 1.212 1.221v125.835c0 .668-.545 1.213-1.212 1.213H378.358a1.233 1.233 0 01-1.216-1.213v-125.835zm459.937 189.563h125.838c35.14 0 63.729-28.589 63.729-63.729v-125.835c0-35.147-28.589-63.737-63.729-63.737H837.079c-35.144 0-63.733 28.59-63.733 63.737v125.835c0 35.14 28.59 63.729 63.733 63.729zm-1.216-189.563c0-.676.545-1.221 1.216-1.221h125.838c.671 0 1.212.545 1.212 1.221v125.835c0 .654-.558 1.213-1.212 1.213H837.079a1.234 1.234 0 01-1.216-1.213v-125.835zm459.94 189.563h125.836c35.147 0 63.736-28.589 63.736-63.729v-125.835c0-35.147-28.589-63.737-63.736-63.737h-125.836c-35.139 0-63.729 28.59-63.729 63.737v125.835c0 35.14 28.59 63.729 63.729 63.729zm-1.212-189.563c0-.676.54-1.221 1.212-1.221h125.836c.672 0 1.221.545 1.221 1.221v125.835c0 .654-.559 1.213-1.221 1.213h-125.836a1.233 1.233 0 01-1.212-1.213v-125.835zm-916.233 553.717h125.835c35.139 0 63.729-28.59 63.729-63.729V1453.42c0-35.14-28.589-63.729-63.729-63.729H378.358c-35.144 0-63.733 28.589-63.733 63.729v125.835c0 35.14 28.589 63.729 63.733 63.729zm-1.216-189.564c0-.672.545-1.213 1.216-1.213h125.835c.667 0 1.212.541 1.212 1.213v125.835c0 .672-.545 1.212-1.212 1.212H378.358c-.671 0-1.216-.54-1.216-1.212V1453.42zm459.937 189.564h125.838c35.14 0 63.729-28.59 63.729-63.729V1453.42c0-35.14-28.589-63.729-63.729-63.729H837.079c-35.144 0-63.733 28.589-63.733 63.729v125.835c0 35.14 28.59 63.729 63.733 63.729zm-1.216-189.564c0-.672.545-1.213 1.216-1.213h125.838a1.21 1.21 0 011.212 1.213v125.835a1.21 1.21 0 01-1.212 1.212H837.079c-.671 0-1.216-.54-1.216-1.212V1453.42zm459.94 189.564h125.836c35.147 0 63.736-28.59 63.736-63.729V1453.42c0-35.14-28.589-63.729-63.736-63.729h-125.836c-35.139 0-63.729 28.589-63.729 63.729v125.835c0 35.14 28.59 63.729 63.729 63.729zm-1.212-189.564c0-.672.54-1.213 1.212-1.213h125.836c.672 0 1.221.541 1.221 1.213v125.835c0 .672-.549 1.212-1.221 1.212h-125.836a1.229 1.229 0 01-1.212-1.212V1453.42z"/></svg>