<svg xmlns="http://www.w3.org/2000/svg" viewBox="0 0 1800 1800"><path d="M975.824 1161.939v-7.569c57.861-26.47 98.873-81.339 107.801-144.171 24.396-8.848 41.596-32.416 41.596-59.1a62.703 62.703 0 00-31.613-54.503 175.665 175.665 0 004.903-18.865c10.218-50.672-1.423-102.46-32.774-145.828-30.846-42.665-77.207-72.085-130.549-82.844a220.697 220.697 0 00-43.473-4.354c-45.75 0-90.384 14.751-125.688 41.54-36.353 27.583-61.213 66.775-70 110.353-6.666 33.045-3.944 67.129 7.836 99.109-19.965 10.732-33.185 31.823-33.185 55.4 0 27.033 17.461 50.681 42.216 59.328 9.171 64.328 51.518 119.72 111.282 145.535v5.973c-124.135 28.12-209.728 120.969-209.728 229.471v28.979h108.036v-.052h11.998v.052h451.071v-28.979c0-108.506-85.594-201.351-209.729-229.475zm-84.109-459.276c10.646 0 21.422 1.082 32.024 3.211 38.996 7.871 72.748 29.171 95.025 59.991 20.776 28.726 29.145 62.513 23.796 95.671-28.517-13.312-66.004-27.382-105.436-32.783-74.119-10.131-75.306-13.578-79.721-26.388l-14.153-40.951-32.548 28.804c-3.464 3.045-29.694 26.1-59.956 51.178-.838-11.125-.14-22.277 2.094-33.351 12.313-61.063 70.717-105.382 138.875-105.382zM768.923 901.422c20.323-16.443 40.401-33.424 54.93-45.885 20.139 18.163 51.536 23.272 105.41 30.641 36.544 5 72.382 19.633 98.306 32.487v65.31c0 71.313-58.01 129.322-129.318 129.322-71.317 0-129.327-58.01-129.327-129.322v-82.553zm113.211 269.121c11.98 1.057 23.892.93 35.732-.318v17.893l-17.914 9.931-17.818-9.899v-17.607zM675.364 1362.4c13.307-64.903 70.296-118.855 148.812-140.705v.559l75.724 42.072 75.925-42.051v-.58c78.524 21.85 135.522 75.814 148.813 140.731l-390.391-.048v.021h-58.883zm510.189 184.393H614.448c-17.273 0-31.274-14-31.274-31.273s14.001-31.273 31.274-31.273h571.104c17.272 0 31.273 14 31.273 31.273s-14 31.273-31.272 31.273z"/><path d="M1581.322 190.83h-529.979V95.817c0-46.806-38.08-84.886-84.886-84.886H833.543c-46.806 0-84.886 38.08-84.886 84.886v95.012H218.679c-46.807 0-84.886 38.08-84.886 84.886v1428.468c0 46.805 38.08 84.885 84.886 84.885h1362.644c46.805 0 84.885-38.08 84.885-84.885V275.716c-.001-46.807-38.081-84.886-84.886-84.886zM811.205 95.817c0-12.317 10.021-22.339 22.338-22.339h132.914c12.316 0 22.338 10.022 22.338 22.339v285.931c0 12.316-10.021 22.338-22.338 22.338H833.543c-12.316 0-22.338-10.021-22.338-22.338V95.817zm792.455 1608.367c0 12.316-10.021 22.338-22.338 22.338H218.679c-12.317 0-22.339-10.021-22.339-22.338V275.716c0-12.317 10.022-22.339 22.339-22.339h529.979v128.372c0 46.806 38.08 84.886 84.886 84.886h132.914c46.806 0 84.886-38.08 84.886-84.886V253.377h529.979c12.316 0 22.338 10.022 22.338 22.339v1428.468z"/></svg>