<svg xmlns="http://www.w3.org/2000/svg" viewBox="0 0 1800 1800"><path d="M1768.976 390.693c-18.385-88.021-44.455-175.106-78.13-260.807-1.895-4.813-3.701-9.645-5.645-14.455-19.858-47.839-63.561-81.251-106.271-81.251-7.987 0-15.769 1.196-22.961 3.491-84.593 26.491-168.938 58.602-250.511 89.656-178.601 68.001-363.281 138.31-555.392 150.404-22.021 1.429-41.681 8.643-57.019 19.748-12.912-10.34-29.055-16.564-46.604-16.564H254.01c-42.107 0-76.362 35.469-76.362 79.066v139.127a78.178 78.178 0 00-15.523-1.565h-75.77c-43.307 0-78.543 35.469-78.543 79.066v261.549c0 43.593 35.236 79.062 78.543 79.062h75.769c5.315 0 10.502-.55 15.523-1.564v139.136c0 43.598 34.255 79.066 76.362 79.066h93.205l328.811 570.19c21.968 38.102 62.958 61.771 106.974 61.771 21.528 0 42.811-5.707 61.552-16.513 58.922-33.991 79.22-109.585 45.246-168.521l-257.742-446.929h14.389c17.559 0 33.701-6.229 46.618-16.578 15.343 11.104 35.02 18.323 57.067 19.761 192.032 12.085 376.704 82.395 555.292 150.386 81.585 31.064 165.944 63.183 250.4 89.631 7.346 2.339 15.118 3.525 23.098 3.525 42.709 0 86.412-33.407 106.401-81.532 1.908-4.726 3.688-9.479 5.549-14.213 33.644-85.572 59.696-172.592 78.076-260.577 15.141-95.359 23.243-203.902 23.243-316.88 0-112.903-8.094-221.371-23.212-316.686zM162.125 854.196h-75.77c-8.555 0-15.519-7.192-15.519-16.038V576.609c0-8.845 6.964-16.042 15.519-16.042h75.769c8.559 0 15.523 7.197 15.523 16.042v261.549c0 8.846-6.963 16.038-15.522 16.038zM835.2 1612.268c16.622 28.83 6.687 65.815-22.135 82.442-9.175 5.289-19.572 8.085-30.065 8.085-21.555 0-41.624-11.58-52.377-30.229l-310.654-538.709h139.334L835.2 1612.268zm-188.757-541.435H254.01c-7.231 0-13.338-7.346-13.338-16.042v-694.81c0-8.845 5.983-16.042 13.338-16.042h392.434c7.364 0 13.352 7.196 13.352 16.042v694.81c-.001 8.846-5.989 16.042-13.353 16.042zm681.402 157.697c-182.979-69.667-372.188-141.704-573.689-154.387-18.842-1.227-31.336-11.659-31.336-18.033V358.649c0-6.366 12.489-16.802 31.266-18.02 201.585-12.692 390.807-84.729 573.795-154.4 56.083-21.348 113.498-43.162 171.141-63.231-20.847 33.525-39.302 79.743-55.251 138.547-15.141 55.823-27.055 120.202-35.504 190.01a1886.335 1886.335 0 00-6.714 64.844c-5.271 61.033-8.04 125.244-8.04 190.981 0 65.746 2.77 129.957 8.04 190.994a1895.857 1895.857 0 006.714 64.844c8.449 69.804 20.363 134.177 35.504 190.005 15.949 58.809 34.409 105.03 55.26 138.556-57.627-20.06-115.073-41.883-171.186-63.249zm128.691-521.151c0-64.154 2.699-126.677 7.816-185.956 58.347 23.528 101.1 97.956 101.1 185.96 0 87.999-42.753 162.432-101.096 185.96-5.121-59.278-7.82-121.805-7.82-185.964zm249.793 309.644c-6.938 43.153-15.364 83.374-25.217 119.704-15.338 56.563-31.648 94.238-46.371 118.593-17.805 29.455-33.288 39.399-41.888 39.399-15.707 0-54.363-33.021-88.258-157.992-14.253-52.561-25.521-113.272-33.579-179.265 90.097-26.386 157.46-128.458 157.46-250.079s-67.368-223.688-157.46-250.075c8.059-65.997 19.326-126.708 33.579-179.269 33.895-124.976 72.555-157.992 88.258-157.992 8.595 0 24.074 9.936 41.87 39.373 14.728 24.351 31.046 62.035 46.389 118.619 9.883 36.453 18.337 76.828 25.287 120.148 43.91 205.2 43.883 413.73-.07 618.836z"/></svg>