<svg xmlns="http://www.w3.org/2000/svg" viewBox="0 0 1800 1800"><path d="M1712.873 820.293l-198.091-185.002a31.38 31.38 0 00-21.414-8.446h-269.041a31.662 31.662 0 00-4.585-.333H925.895V557.06h459.658c17.326 0 31.37-14.039 31.37-31.37V155.012c0-17.326-14.044-31.37-31.37-31.37H925.895V34.977c0-17.33-14.044-31.369-31.37-31.369s-31.37 14.04-31.37 31.369v88.666H580.263a30.94 30.94 0 00-4.534.333H306.631a31.379 31.379 0 00-21.414 8.446L87.126 317.427a31.365 31.365 0 000 45.847L285.218 548.29a31.375 31.375 0 0021.414 8.442h269.063a32.14 32.14 0 004.569.328h282.892v69.453H414.452c-17.327 0-31.37 14.043-31.37 31.369v370.687c0 17.326 14.043 31.37 31.37 31.37h448.703v311.637c-115.444 13.001-207.037 96.86-224.778 205.702H429.169c-17.326 0-31.37 14.043-31.37 31.368v156.378c0 17.325 14.043 31.368 31.37 31.368h930.711c17.326 0 31.369-14.043 31.369-31.368v-156.378c0-17.325-14.043-31.368-31.369-31.368h-209.207c-17.742-108.842-109.339-192.701-224.779-205.702v-311.637h293.848a30.81 30.81 0 004.533-.333h269.093c7.948 0 15.602-3.02 21.414-8.445l198.091-185.016a31.363 31.363 0 009.957-22.923 31.381 31.381 0 00-9.957-22.929zM584.832 494.32a31.423 31.423 0 00-4.569-.328h-261.26L154.5 340.351l164.502-153.636h261.26a30.94 30.94 0 004.534-.333h769.386V494.32h-769.35zm743.68 1239.333H460.54v-93.638h867.973v93.638zm-241.659-156.376h-384.66c18.788-83.375 97.479-144.788 192.332-144.788 94.84 0 173.536 61.422 192.328 144.788zm394.144-580.411h-261.255c-1.56 0-3.091.114-4.588.332H445.822V689.252h769.332c1.497.219 3.028.333 4.588.333h261.255L1645.5 843.221l-164.503 153.645z"/></svg>