<svg xmlns="http://www.w3.org/2000/svg" viewBox="0 0 1800 1800"><path d="M1709.277 268.688h-515.642c1.962-7.174 3.1-14.691 3.1-22.48v-74.93c0-47.103-38.321-85.424-85.424-85.424H688.688c-47.103 0-85.423 38.321-85.423 85.424v74.93c0 7.789 1.137 15.306 3.1 22.48H90.723c-47.103 0-85.424 38.321-85.424 85.424v659.412c0 47.103 38.321 85.424 85.424 85.424h43.563c-1.962 7.179-3.1 14.691-3.1 22.48v507.295c0 47.103 38.321 85.424 85.424 85.424h1366.78c47.103 0 85.424-38.321 85.424-85.424v-507.295c0-7.789-1.137-15.302-3.1-22.48h43.563c47.103 0 85.424-38.321 85.424-85.424V354.111c0-47.102-38.321-85.423-85.424-85.423zm-276.13 767.316v117.356c0 12.395-10.085 22.479-22.479 22.479h-47.959c-12.395 0-22.48-10.085-22.48-22.479V943.085c0-12.395 10.086-22.479 22.48-22.479h47.959c12.395 0 22.479 10.085 22.479 22.479v92.919zM666.209 246.208v-74.93c0-12.395 10.085-22.48 22.479-22.48h422.623c12.395 0 22.479 10.085 22.479 22.48v74.93c0 12.395-10.085 22.48-22.479 22.48H688.688c-12.394 0-22.479-10.086-22.479-22.48zm22.479 85.423h666.525v526.408c-43.599 3.815-77.929 40.473-77.929 85.046v92.919H522.71v-92.919c0-44.573-34.33-81.23-77.933-85.046V331.631h243.911zm-228.921 767.316v54.413c0 12.395-10.085 22.479-22.479 22.479h-47.959c-12.395 0-22.48-10.085-22.48-22.479V943.085c0-12.395 10.085-22.479 22.48-22.479h47.959c12.395 0 22.479 10.085 22.479 22.479v155.862zm-369.044-62.943c-12.395 0-22.479-10.086-22.479-22.48V354.111c0-12.395 10.085-22.48 22.479-22.48h291.111v526.408c-43.599 3.815-77.929 40.473-77.929 85.046v92.919H90.723zm1515.147 85.424v507.295c0 12.395-10.086 22.48-22.48 22.48H216.61c-12.395 0-22.48-10.086-22.48-22.48v-507.295c0-12.396 10.085-22.48 22.48-22.48h87.294v54.413c0 47.103 38.321 85.424 85.424 85.424h47.959c47.102 0 85.423-38.321 85.423-85.424v-54.413h754.575v54.413c0 47.103 38.321 85.424 85.424 85.424h47.959c47.103 0 85.423-38.321 85.423-85.424v-54.413h87.299c12.394-.001 22.48 10.084 22.48 22.48zm125.887-107.905c0 12.395-10.085 22.48-22.479 22.48h-213.187v-92.919c0-44.573-34.33-81.23-77.933-85.046V331.631h291.119c12.395 0 22.479 10.085 22.479 22.48v659.412z"/></svg>