<svg xmlns="http://www.w3.org/2000/svg" viewBox="0 0 1800 1800"><path d="M899.996 6.911C405.643 6.911 3.458 409.103 3.458 903.462 3.458 1397.811 405.643 1800 899.996 1800c494.357 0 896.546-402.189 896.546-896.538 0-494.359-402.189-896.551-896.546-896.551zm0 1730.189c-459.667 0-833.637-373.97-833.637-833.638 0-459.679 373.969-833.649 833.637-833.649 459.672 0 833.644 373.971 833.644 833.649 0 459.668-373.972 833.638-833.644 833.638z"/><path d="M1073.088 393.764v66.982c176.77 69.347 302.257 241.646 302.257 442.716 0 262.101-213.239 475.332-475.349 475.332-262.101 0-475.336-213.231-475.336-475.332 0-201.075 125.491-373.374 302.261-442.725v-66.973c-212.139 72.23-365.162 273.421-365.162 509.698 0 296.781 241.452 538.234 538.238 538.234 296.79 0 538.251-241.453 538.251-538.234-.001-236.268-153.025-437.46-365.16-509.698z"/><path d="M900.004 880.287c17.371 0 31.45-14.084 31.45-31.451v-562.75c0-17.371-14.079-31.451-31.45-31.451-17.37 0-31.45 14.08-31.45 31.451v562.749c0 17.367 14.08 31.452 31.45 31.452z"/></svg>