<svg xmlns="http://www.w3.org/2000/svg" viewBox="0 0 1800 1800"><path d="M1741.402 786.797h-35.999c-32.197-298.013-226.637-548.089-492.951-659.834h305.92v31.245c0 17.376 14.079 31.46 31.461 31.46h125.409c17.381 0 31.459-14.084 31.459-31.46V32.798c0-17.375-14.078-31.46-31.459-31.46h-125.409c-17.382 0-31.461 14.084-31.461 31.46v31.245H994.163V32.798c0-17.375-14.079-31.46-31.46-31.46H837.287c-17.376 0-31.46 14.084-31.46 31.46v31.245H281.618V32.798c0-17.375-14.084-31.46-31.46-31.46H124.751c-17.375 0-31.459 14.084-31.459 31.46v125.41c0 17.376 14.084 31.46 31.459 31.46h125.406c17.375 0 31.46-14.084 31.46-31.46v-31.245H587.55C321.228 238.708 126.792 488.785 94.596 786.797H58.597c-17.376 0-31.46 14.084-31.46 31.46v125.409c0 17.375 14.083 31.459 31.46 31.459h125.418c17.376 0 31.46-14.084 31.46-31.459V818.257c0-17.375-14.083-31.46-31.46-31.46h-26.088c39.887-339.954 308.838-610.875 647.899-653.703v25.114c0 17.376 14.084 31.46 31.46 31.46h125.417c17.381 0 31.46-14.084 31.46-31.46v-25.116c339.064 42.821 608.012 313.747 647.908 653.706h-26.08c-17.38 0-31.46 14.084-31.46 31.46v125.409c0 17.375 14.08 31.459 31.46 31.459h125.411c17.38 0 31.46-14.084 31.46-31.459v-125.41c0-17.375-14.08-31.46-31.46-31.46zm-97.62-660.049h-62.49v-62.49h62.49v62.49zm-1487.57-62.49h62.485v62.49h-62.485v-62.49zm-3.656 813.665v34.282H90.057v-54.73c.052-2.589.119-5.174.193-7.758h62.306v28.206zM900.005 64.258c10.461 0 20.871.266 31.237.661v61.829h-62.496v-61.83c10.376-.394 20.787-.66 31.259-.66zm809.936 793.562v54.385h-62.489v-62.488h62.287c.089 2.698.15 5.399.202 8.103z"/><path d="M928.829 250.905a31.462 31.462 0 00-28.833-18.875 31.456 31.456 0 00-28.831 18.875l-409.868 939.046a31.473 31.473 0 00-.601 23.701l.487 1.291a31.459 31.459 0 0019.421 18.713c98.036 32.9 163.906 124.49 163.906 227.906 0 43.082-11.574 85.383-33.466 122.33a30.86 30.86 0 00-1.782 3.541 31.279 31.279 0 00-5.662 17.973v159.314c0 17.285 13.948 31.338 31.231 31.463l529.877 3.816h.238c17.266 0 31.328-13.939 31.45-31.23.122-17.377-13.859-31.566-31.23-31.689l-498.646-3.59v-79.055h486.778c13.14 0 24.902-8.168 29.484-20.479l8.585-23.059a31.435 31.435 0 00-2.423-27.02c-21.884-36.934-33.452-79.23-33.452-122.316 0-103.416 65.86-195.006 163.901-227.906a31.493 31.493 0 0019.452-18.801l.482-1.291a31.495 31.495 0 00-.632-23.613L928.829 250.905zm-28.833 875.661c34.811 0 63.138 28.318 63.138 63.123 0 34.809-28.327 63.125-63.138 63.125-34.809 0-63.126-28.316-63.126-63.125 0-34.804 28.317-63.123 63.126-63.123zm192.575 334.997c0 45.088 10.052 89.504 29.241 129.953H678.187c19.198-40.457 29.244-84.869 29.244-129.953 0-119.287-69.455-226.105-175.883-275.271l336.988-772.079v653.407c-54.331 14.008-94.586 63.43-94.586 122.07 0 69.504 56.543 126.045 126.047 126.045 69.51 0 126.058-56.541 126.058-126.045 0-58.646-40.265-108.063-94.601-122.07V414.214l336.994 772.077c-106.425 49.176-175.877 155.984-175.877 275.272z"/></svg>