<svg xmlns="http://www.w3.org/2000/svg" viewBox="0 0 1800 1800"><path d="M389.053 664.285c-30.154 0-54.591 24.439-54.591 54.586 0 22.606 13.733 41.997 33.317 50.29a54.423 54.423 0 0021.273 4.301c28.696 0 52.168-22.153 54.368-50.288.113-1.425.218-2.85.218-4.303.002-30.147-24.436-54.586-54.585-54.586z"/><path d="M1784.638 612.476c-7.589-15.52-26.335-21.937-41.845-14.348-15.513 7.593-21.94 26.326-14.344 41.844 5.115 10.46 5.857 22.281 2.078 33.292-3.775 11.01-11.617 19.892-22.081 25.013-10.456 5.121-22.281 5.86-33.286 2.081-11.01-3.774-19.891-11.614-25.005-22.074a31.285 31.285 0 00-5.171-7.528c-39.746-78.838-100.686-151.008-180.6-212.297-80.136-61.461-174.367-108.034-276.989-137.967a191.531 191.531 0 007.911-54.476c0-105.95-86.197-192.145-192.145-192.145-105.948 0-192.146 86.195-192.146 192.145 0 6.688.349 13.297 1.021 19.812-32.27 3.014-64.099 7.53-95.344 13.521C600.69 208.587 467.717 156.211 347.36 156.211c-90.116 0-166.958 29.208-222.22 84.469-12.214 12.217-12.214 32.021 0 44.235l197.403 197.402c-70.858 60.392-124.577 129.99-159.247 205.276H35.549c-17.276 0-31.279 14.003-31.279 31.279v352.745c0 17.276 14.003 31.279 31.279 31.279h127.749c39.331 85.403 103.151 163.506 188.72 229.133 37.952 29.106 79.076 54.861 122.74 77.112v202.767c0 17.276 14.003 31.279 31.279 31.279h235.338c17.276 0 31.279-14.003 31.279-31.279v-111.687c44.34 5.9 89.653 8.911 135.547 8.911 45.895 0 91.207-3.011 135.548-8.911v111.687c0 17.276 14.003 31.279 31.279 31.279h235.338c17.276 0 31.279-14.003 31.279-31.279v-202.767c43.664-22.251 84.788-48.006 122.739-77.112 151.375-116.094 234.74-271.212 234.74-436.782 0-44.354-6.039-87.947-17.708-130.25 2.653.201 5.312.33 7.964.33 15.949 0 31.816-3.642 46.562-10.859 25.472-12.46 44.563-34.094 53.762-60.912 9.198-26.815 7.401-55.611-5.066-81.08zM873.575 266.017c0-71.454 58.134-129.586 129.587-129.586 71.451 0 129.586 58.132 129.586 129.586 0 13.571-2.107 26.656-5.996 38.96-6.916 21.897-19.506 41.294-36.031 56.472-23.08 21.192-53.832 34.155-87.559 34.155-42.203 0-79.748-20.29-103.426-51.615-13.375-17.701-22.294-38.933-25.144-62.024-.646-5.231-1.017-10.546-1.017-15.948zm468.071 1072.031c-20.082 11.293-40.972 21.806-62.559 31.515v211.068h-172.779v-154.787c-20.497 4.39-41.372 8.09-62.559 11.118-43.935 6.284-89.235 9.613-135.548 9.613s-91.612-3.329-135.547-9.613c-21.186-3.028-42.063-6.729-62.559-11.118v154.787H537.316v-211.068c-21.587-9.709-42.477-20.222-62.559-31.515-106.363-59.81-190.492-141.028-241.242-235.15-10.932-20.282-20.313-41.163-28.033-62.559H66.828V750.152h138.654c7.72-21.396 17.102-42.276 28.037-62.559 32.078-59.496 77.479-113.835 133.431-160.87 15.902-13.369 32.641-26.152 50.183-38.292l-44.895-44.893L193.19 264.489c40.884-30.012 93.538-45.719 154.172-45.719 92.887 0 195.104 35.962 289.278 99.542 21.792 14.714 43.158 30.901 63.876 48.477a920.69 920.69 0 0177.763-14.077 949.048 949.048 0 0150.776-5.536c9.146 19.545 21.487 37.297 36.354 52.601-128.032 12.585-251.226 54.305-331.545 114.819-13.798 10.395-16.556 30.007-6.162 43.806 10.398 13.8 30.01 16.554 43.804 6.159 74.38-56.035 224.926-110.519 393.223-105.976 130.494 3.53 313.018 43.535 441.491 214.062 6.148 8.163 15.518 12.461 25.004 12.461a31.143 31.143 0 0018.8-6.299c13.798-10.395 16.556-30.008 6.161-43.804-82.227-109.14-197.932-183.846-334.365-218.031a193.566 193.566 0 0037.542-39.267c278.243 77.612 477.204 280.315 477.204 517.541 0 181.196-116.093 342.241-294.92 442.8z"/></svg>