<svg xmlns="http://www.w3.org/2000/svg" viewBox="0 0 1800 1800"><path d="M900.114 54.882c-329.509 0-597.583 268.077-597.583 597.59 0 219.592 118.159 418.518 309.714 523.794v152.835h-.127v122.121h-.172v185.238h172.682c3.58 60.518 53.924 108.656 115.315 108.656 61.39 0 111.736-48.139 115.31-108.656h172.571v-122.122h.177v-185.237h-.019v-152.835c191.557-105.276 309.715-304.203 309.715-523.794 0-329.513-268.074-597.59-597.583-597.59zM675.235 1392.218h449.649v59.005H675.235v-59.005zm224.708 289.784c-29.441 0-48.627-22.507-51.876-45.541h103.788c-3.391 25.658-25.351 45.541-51.912 45.541zm224.765-108.658H675.063v-59.005h449.645v59.005zm17.408-444.212l-17.25 8.778v189.457H931.559V861l187.201-187.21c12.323-12.323 12.323-32.302-.005-44.63-12.318-12.318-32.302-12.323-44.629.004L900 803.299 725.875 629.165c-12.323-12.323-32.307-12.328-44.63-.004-12.328 12.328-12.328 32.307-.005 44.63L868.441 861v466.367H675.362V1137.91l-17.249-8.778c-180.4-91.778-292.465-274.427-292.465-476.66 0-294.71 239.761-534.471 534.466-534.471 294.706 0 534.466 239.761 534.466 534.471 0 202.233-112.064 384.882-292.464 476.66z"/><path d="M1066.667 246.225c-17.43 0-31.558 14.128-31.558 31.559s14.128 31.558 31.558 31.558c49.641 0 165.99 59.634 165.99 175.279 0 17.431 14.128 31.559 31.558 31.559 17.431 0 31.559-14.128 31.559-31.559-.001-156.52-149.15-238.396-229.107-238.396zM209.331 712.881c0-17.43-14.128-31.558-31.558-31.558H34.686c-17.43 0-31.558 14.128-31.558 31.558s14.128 31.558 31.558 31.558h143.087c17.43 0 31.558-14.127 31.558-31.558zm10.826-412.785c6.164 6.163 14.239 9.245 22.317 9.245 8.075 0 16.153-3.082 22.313-9.241 12.328-12.328 12.328-32.307.004-44.629L163.623 154.297c-12.318-12.319-32.303-12.323-44.63-.004-12.327 12.327-12.327 32.307-.004 44.63l101.168 101.173zm.013 825.566l-101.178 101.174c-12.327 12.327-12.327 32.307-.004 44.634 6.164 6.164 14.238 9.246 22.317 9.246 8.074 0 16.153-3.082 22.312-9.246l101.179-101.173c12.327-12.327 12.327-32.307.004-44.625-12.322-12.328-32.307-12.328-44.63-.01zm1545.144-444.339h-143.083c-17.43 0-31.559 14.128-31.559 31.558s14.129 31.558 31.559 31.558h143.083c17.43 0 31.558-14.128 31.558-31.558s-14.128-31.558-31.558-31.558zm-207.793-371.982c8.074 0 16.153-3.082 22.316-9.241l101.174-101.173c12.322-12.327 12.322-32.307 0-44.634-12.328-12.319-32.307-12.319-44.635 0l-101.173 101.173c-12.323 12.328-12.323 32.307 0 44.634a31.486 31.486 0 0022.318 9.241zm22.308 816.321c-12.318-12.318-32.302-12.318-44.63.01-12.323 12.318-12.323 32.298.005 44.625l101.178 101.173c6.159 6.164 14.238 9.246 22.312 9.246 8.075 0 16.154-3.082 22.318-9.246 12.322-12.327 12.322-32.307-.005-44.634l-101.178-101.174z"/></svg>