<svg xmlns="http://www.w3.org/2000/svg" viewBox="0 0 1800 1800"><path d="M1548.188 307.531a895.091 895.091 0 00-43.855-43.868l-43.869 43.868L932.02 835.979V26.19c-10.297-.357-20.635-.6-31.018-.6-10.381 0-20.714.242-31.012.6C396.155 42.598 15.733 433.107 15.733 910.865c0 488.131 397.129 885.256 885.269 885.256 242.229 0 462.014-97.82 622.015-256 1.378-.988 2.715-2.063 3.95-3.302 1.234-1.234 2.316-2.567 3.301-3.945 158.176-160.005 256-379.796 256-622.009 0-232.941-90.484-445.113-238.08-603.334zM869.99 88.261v791.578H78.412C94.39 450.525 440.663 104.252 869.99 88.261zm31.012 1645.826c-443.551 0-806.223-352.599-822.59-792.214h809.74l572.312 572.308c-146.976 136.374-343.635 219.906-559.462 219.906zm603.33-263.766L944.871 910.865l559.451-559.47c136.383 146.966 219.916 343.634 219.916 559.47 0 215.823-83.533 412.481-219.906 559.456z"/><path d="M1047.338 573.287a27.92 27.92 0 0010.705 2.134 28.015 28.015 0 0019.798-8.194l363.142-363.146a27.984 27.984 0 00-.004-39.579C1338.694 62.222 1202.705 5.887 1058.047 5.878a27.982 27.982 0 00-27.984 27.988v513.566a27.978 27.978 0 0017.275 25.855zm38.697-510.649c109.898 6.214 212.929 48.893 295.021 122.212l-295.021 295.02V62.638z"/></svg>