<svg xmlns="http://www.w3.org/2000/svg" viewBox="0 0 1800 1800"><path d="M357.063 742.307c-17.305 0-31.331 14.026-31.331 31.331s14.026 31.331 31.331 31.331c27.835 0 93.081 33.661 93.081 98.938 0 17.305 14.026 31.331 31.331 31.331s31.332-14.026 31.332-31.331c0-106.098-101.39-161.6-155.744-161.6zm1096.562-564.492c27.835 0 93.08 33.661 93.08 98.938 0 17.305 14.027 31.331 31.332 31.331s31.331-14.026 31.331-31.331c0-106.097-101.39-161.6-155.743-161.6-17.305 0-31.33 14.026-31.33 31.331s14.025 31.331 31.33 31.331z"/><path d="M1447.975 1261.85c-46.434 0-92.324 12.361-132.713 35.751-31.903 18.476-58.501 42.634-79.293 70.451L597.875 998.547c3.899-9.809 7.317-19.871 10.075-30.226 15.53-58.261 10.889-118.681-12.702-173.188l636.708-368.71c49.41 69.459 130.26 111.727 216.465 111.727 46.433 0 92.319-12.361 132.707-35.75 61.316-35.505 105.136-92.766 123.385-161.232 18.248-68.463 8.742-139.933-26.764-201.249-47.282-81.649-135.327-132.375-229.77-132.375-46.434 0-92.324 12.361-132.712 35.75-115.368 66.811-161.543 207.81-113.322 328.1L563.833 740.916c-49.707-66.172-128.52-106.219-212.417-106.219-46.428 0-92.324 12.361-132.711 35.75-126.575 73.302-169.918 235.911-96.621 362.487 47.281 81.649 135.326 132.37 229.77 132.37 46.438 0 92.324-12.36 132.712-35.75 33.473-19.381 61.679-45.284 83.407-75.915l636.673 368.684c-31.921 74.42-29.608 162.465 13.996 237.764 47.28 81.65 135.325 132.371 229.774 132.371 46.432 0 92.318-12.361 132.707-35.75 61.316-35.506 105.135-92.766 123.384-161.232 18.249-68.463 8.742-139.934-26.763-201.249-47.281-81.652-135.326-132.377-229.769-132.377zM1346.668 97.521c30.859-17.868 65.893-27.314 101.311-27.314 72.164 0 139.426 38.745 175.543 101.114 27.117 46.831 34.378 101.42 20.438 153.71-13.935 52.29-47.403 96.026-94.233 123.144-30.855 17.869-65.889 27.314-101.307 27.314-72.165 0-139.43-38.744-175.547-101.109-55.98-96.674-22.879-220.876 73.795-276.859zm-893.504 977.806c-30.859 17.868-65.888 27.314-101.311 27.314-72.165 0-139.426-38.745-175.543-101.11-55.979-96.672-22.873-220.874 73.795-276.857 30.859-17.869 65.888-27.314 101.311-27.314 72.165 0 139.426 38.744 175.543 101.114 27.117 46.831 34.377 101.42 20.438 153.71-13.933 52.29-47.402 96.025-94.233 123.143zm1190.791 504.009c-13.934 52.291-47.402 96.027-94.233 123.145-30.854 17.868-65.888 27.314-101.306 27.314-72.166 0-139.431-38.744-175.548-101.109-55.979-96.674-22.878-220.875 73.795-276.859 30.859-17.867 65.893-27.313 101.312-27.313 72.164 0 139.425 38.744 175.543 101.114 27.117 46.829 34.377 101.419 20.437 153.708z"/><path d="M1453.621 1369.459c-17.305 0-31.331 14.027-31.331 31.332s14.026 31.331 31.331 31.331c27.834 0 93.08 33.661 93.08 98.937 0 17.305 14.027 31.332 31.332 31.332s31.33-14.027 31.33-31.332c0-106.096-101.388-161.6-155.742-161.6z"/></svg>