<svg xmlns="http://www.w3.org/2000/svg" viewBox="0 0 1800 1800"><path d="M899.998 1797.179c-494.704 0-897.173-402.472-897.173-897.173 0-494.708 402.469-897.184 897.173-897.184 494.708 0 897.179 402.476 897.179 897.184 0 494.701-402.472 897.173-897.179 897.173zm0-1731.361c-459.966 0-834.176 374.215-834.176 834.188 0 459.964 374.21 834.176 834.176 834.176 459.97 0 834.183-374.212 834.183-834.176 0-459.973-374.213-834.188-834.183-834.188z"/><path d="M899.998 1641.189c-408.689 0-741.183-332.492-741.183-741.184 0-408.695 332.494-741.194 741.183-741.194 408.693 0 741.19 332.499 741.19 741.194 0 408.692-332.498 741.184-741.19 741.184zm0-1419.381c-373.955 0-678.187 304.239-678.187 678.198 0 373.954 304.232 678.186 678.187 678.186 373.957 0 678.193-304.231 678.193-678.186-.001-373.959-304.237-678.198-678.193-678.198z"/><path d="M1408.631 842.445H973.452v-435.18c0-37.471-30.486-67.963-67.952-67.963h-7.172c-37.457 0-67.953 30.493-67.953 67.963v510.303c0 37.476 30.496 67.963 67.953 67.963h7.172l.052-.009h503.079c37.466 0 67.955-30.479 67.955-67.962v-7.154c0-37.467-30.489-67.961-67.955-67.961zm-528.179-435.18c0-9.859 8.015-17.883 17.876-17.883h7.172c9.843 0 17.875 8.024 17.875 17.883v435.18h-25.047c-6.178 0-12.164.909-17.876 2.469V407.265zm546.056 510.295c0 9.852-8.034 17.884-17.877 17.884H898.328c-9.861 0-17.876-8.032-17.876-17.884v-7.154c0-9.861 8.015-17.879 17.876-17.879h510.303c9.843 0 17.877 8.018 17.877 17.879v7.154z"/></svg>