<svg xmlns="http://www.w3.org/2000/svg" viewBox="0 0 1800 1800"><path d="M900 1793.016c-2.796 0-5.594-.375-8.315-1.125-7.969-2.199-197.36-55.807-388.728-226.607-112.377-100.305-201.914-220.375-266.128-356.88-79.987-170.042-120.543-365.937-120.543-582.248a31.262 31.262 0 0112.016-24.637l752.45-587.906c11.308-8.837 27.187-8.837 38.496 0l752.451 587.905a31.264 31.264 0 0112.016 24.637c0 216.312-40.559 412.206-120.546 582.248-64.212 136.505-153.751 256.575-266.123 356.88-191.37 170.801-380.764 224.408-388.732 226.607a31.254 31.254 0 01-8.314 1.126zM178.88 641.351c3.271 367.343 125.555 661.791 363.594 875.387C701.154 1659.123 862.076 1716.81 900 1729.049c37.924-12.239 198.846-69.926 357.525-212.311 238.039-213.597 360.325-508.044 363.592-875.387L900 77.925 178.88 641.351z"/><path d="M900 1593.533c-2.798 0-5.594-.375-8.315-1.125-6.189-1.71-153.319-43.35-301.636-175.734-87.095-77.732-156.485-170.791-206.251-276.582-61.928-131.65-93.328-283.236-93.328-450.545a31.263 31.263 0 0112.017-24.637L880.752 213.1c11.308-8.834 27.187-8.839 38.496 0l578.266 451.81a31.262 31.262 0 0112.017 24.637c0 167.309-31.399 318.895-93.329 450.545-49.762 105.791-119.155 198.85-206.248 276.582-148.316 132.385-295.446 174.024-301.64 175.734a31.26 31.26 0 01-8.314 1.125zM353.087 704.725c3.256 278.249 96.237 501.402 276.493 663.417 118.248 106.279 238.227 150.755 270.42 161.38 32.193-10.625 152.172-55.101 270.42-161.38 180.256-162.016 273.236-385.169 276.495-663.417L900 277.412 353.087 704.725z"/></svg>