<svg xmlns="http://www.w3.org/2000/svg" viewBox="0 0 1800 1800"><path d="M1713.195 662.483H86.805c-46.621 0-84.549 37.929-84.549 84.55v315.328c0 46.615 37.928 84.54 84.549 84.54h1626.391c46.625 0 84.55-37.925 84.55-84.54V747.033c-.001-46.621-37.926-84.55-84.551-84.55zm21.551 399.878c0 11.882-9.668 21.541-21.551 21.541H86.805c-11.883 0-21.55-9.659-21.55-21.541V747.033c0-11.883 9.667-21.55 21.55-21.55h1626.391c11.883 0 21.551 9.667 21.551 21.55v315.328z"/><path d="M262.693 851.239c-29.518 0-53.45 23.933-53.45 53.448 0 29.521 23.932 53.445 53.45 53.445s53.45-23.924 53.45-53.445c.001-29.515-23.932-53.448-53.45-53.448zm184.325 0c-29.522 0-53.455 23.933-53.455 53.448 0 29.521 23.932 53.445 53.455 53.445 29.513 0 53.445-23.924 53.445-53.445 0-29.515-23.933-53.448-53.445-53.448zm184.321 0c-29.522 0-53.454 23.933-53.454 53.448 0 29.521 23.932 53.445 53.454 53.445 29.513 0 53.445-23.924 53.445-53.445 0-29.515-23.932-53.448-53.445-53.448zm936.399 21.942H927.254c-17.394 0-31.5 14.102-31.5 31.497 0 17.402 14.106 31.5 31.5 31.5h640.484c17.394 0 31.5-14.098 31.5-31.5 0-17.395-14.106-31.497-31.5-31.497zm145.457 442.397H86.805c-46.621 0-84.549 37.934-84.549 84.551v315.329c0 46.616 37.928 84.54 84.549 84.54h1626.391c46.625 0 84.55-37.924 84.55-84.54v-315.329c-.001-46.617-37.926-84.551-84.551-84.551zm21.551 399.88c0 11.882-9.668 21.542-21.551 21.542H86.805c-11.883 0-21.55-9.66-21.55-21.542v-315.329c0-11.883 9.667-21.551 21.55-21.551h1626.391c11.883 0 21.551 9.668 21.551 21.551v315.329z"/><path d="M262.693 1504.339c-29.518 0-53.45 23.933-53.45 53.445 0 29.522 23.932 53.446 53.45 53.446s53.45-23.924 53.45-53.446c.001-29.513-23.932-53.445-53.45-53.445zm184.325 0c-29.522 0-53.455 23.933-53.455 53.445 0 29.522 23.932 53.446 53.455 53.446 29.513 0 53.445-23.924 53.445-53.446 0-29.513-23.933-53.445-53.445-53.445zm184.321 0c-29.522 0-53.454 23.933-53.454 53.445 0 29.522 23.932 53.446 53.454 53.446 29.513 0 53.445-23.924 53.445-53.446 0-29.513-23.932-53.445-53.445-53.445zm936.399 21.936H927.254c-17.394 0-31.5 14.107-31.5 31.5 0 17.402 14.106 31.5 31.5 31.5h640.484c17.394 0 31.5-14.098 31.5-31.5 0-17.392-14.106-31.5-31.5-31.5zM1713.195 0H86.805C40.184 0 2.255 37.929 2.255 84.55v315.329c0 46.617 37.928 84.541 84.549 84.541h1626.391c46.625 0 84.55-37.924 84.55-84.541V84.55c0-46.621-37.925-84.55-84.55-84.55zm21.551 399.879c0 11.878-9.668 21.542-21.551 21.542H86.805c-11.883 0-21.55-9.664-21.55-21.542V84.55c0-11.883 9.667-21.551 21.55-21.551h1626.391c11.883 0 21.551 9.668 21.551 21.551v315.329z"/><circle cx="262.693" cy="242.204" r="53.448"/><path d="M447.018 188.756c-29.522 0-53.455 23.932-53.455 53.45 0 29.518 23.932 53.446 53.455 53.446 29.513 0 53.445-23.928 53.445-53.446 0-29.518-23.933-53.45-53.445-53.45zm184.321 0c-29.522 0-53.454 23.932-53.454 53.45 0 29.518 23.932 53.446 53.454 53.446 29.513 0 53.445-23.928 53.445-53.446 0-29.518-23.932-53.45-53.445-53.45zm936.399 21.941H927.254c-17.394 0-31.5 14.102-31.5 31.5s14.106 31.5 31.5 31.5h640.484c17.394 0 31.5-14.102 31.5-31.5s-14.106-31.5-31.5-31.5z"/></svg>