<svg xmlns="http://www.w3.org/2000/svg" viewBox="0 0 1800 1800"><path d="M951.669 1792.279c-143.699 0-278.138-75.66-378.553-213.039-98.267-134.439-152.384-312.672-152.384-501.869 0-189.193 54.117-367.426 152.384-501.865 100.415-137.379 234.854-213.04 378.553-213.04 143.701 0 278.14 75.66 378.56 213.04 98.262 134.438 152.381 312.669 152.381 501.865 0 189.197-54.119 367.43-152.381 501.869-100.42 137.379-234.859 213.039-378.56 213.039zm0-1367.439c-258.368 0-468.563 292.723-468.563 652.531 0 359.808 210.196 652.535 468.563 652.535 258.37 0 468.568-292.728 468.568-652.535 0-359.808-210.198-652.531-468.568-652.531z"/><path d="M965.035 953.709h-26.731c-46.675 0-84.648-37.973-84.648-84.648v-166.33c0-46.675 37.974-84.648 84.648-84.648h26.731c46.675 0 84.647 37.974 84.647 84.648v166.33c.001 46.675-37.972 84.648-84.647 84.648zm-26.731-273.254c-12.282 0-22.276 9.994-22.276 22.276v166.33c0 12.282 9.994 22.276 22.276 22.276h26.731c12.281 0 22.275-9.994 22.275-22.276v-166.33c0-12.282-9.994-22.276-22.275-22.276h-26.731zm13.365-255.615c-17.225 0-31.187-13.962-31.187-31.187 0-54.452-13.369-73.996-23.424-83.959-33.636-33.329-117.371-32.567-244.13-31.399-25.544.235-51.957.477-80.594.477-85.779 0-151.948-24.597-196.665-73.106C310.528 135 317.424 40.372 317.748 36.377c1.401-17.166 16.48-29.949 33.616-28.552 17.129 1.396 29.892 16.38 28.561 33.499-.092 1.349-4.468 72.523 42.009 122.504 32.437 34.882 83.041 52.57 150.401 52.57 28.352 0 54.617-.242 80.019-.474 147.482-1.349 236.497-2.169 288.608 49.464 28.58 28.321 41.894 69.079 41.894 128.265-.001 17.225-13.962 31.187-31.187 31.187z"/></svg>