<svg xmlns="http://www.w3.org/2000/svg" viewBox="0 0 1800 1800"><path d="M1506.693 279.092h-150.36v-85.277c0-17.353-14.065-31.418-31.419-31.418h-227.317C1078.205 70.574 996.5 2.304 900.003 2.304c-96.499 0-178.202 68.27-197.595 160.092H475.091c-17.353 0-31.419 14.065-31.419 31.418v85.277H293.307c-17.353 0-31.419 14.066-31.419 31.419v1455.764c0 17.353 14.066 31.419 31.419 31.419h1213.386c17.354 0 31.42-14.066 31.42-31.419V310.511c0-17.353-14.066-31.419-31.42-31.419zM506.511 225.234h223.28c16.617 0 30.354-12.935 31.362-29.517 4.436-73.219 65.424-130.574 138.85-130.574 73.425 0 134.413 57.355 138.849 130.574 1.009 16.582 14.746 29.517 31.363 29.517h223.28V416.74H506.511V225.234zm968.763 1509.621H324.728V341.93h118.944v106.229c0 17.354 14.066 31.419 31.419 31.419h849.823c17.354 0 31.419-14.066 31.419-31.419V341.93h118.941v1392.925z"/><path d="M663.633 684.019L534.366 813.291l-57.803-57.806c-12.272-12.265-32.164-12.265-44.437 0-12.269 12.272-12.269 32.164 0 44.437l80.021 80.022c6.136 6.132 14.176 9.201 22.219 9.201 8.043 0 16.083-3.069 22.219-9.201l151.486-151.486c12.269-12.273 12.269-32.165 0-44.438-12.272-12.265-32.164-12.265-44.438-.001zm161.363 66.544c-17.354 0-31.419 14.066-31.419 31.419 0 17.354 14.066 31.419 31.419 31.419h520.665c17.354 0 31.419-14.066 31.419-31.419s-14.065-31.419-31.419-31.419H824.996zm-161.363 289.362l-129.267 129.272-57.803-57.807c-12.272-12.265-32.164-12.265-44.437 0-12.269 12.272-12.269 32.164 0 44.438l80.021 80.021c6.136 6.133 14.176 9.2 22.219 9.2 8.043 0 16.083-3.067 22.219-9.2l151.486-151.486c12.269-12.272 12.269-32.163 0-44.438-12.272-12.265-32.164-12.265-44.438 0zm682.028 66.542H824.996c-17.354 0-31.419 14.066-31.419 31.42s14.066 31.42 31.419 31.42h520.665c17.354 0 31.419-14.066 31.419-31.42s-14.065-31.42-31.419-31.42zM663.633 1395.83l-129.267 129.272-57.803-57.808c-12.272-12.264-32.164-12.264-44.437 0-12.269 12.274-12.269 32.166 0 44.439l80.021 80.021c6.136 6.132 14.176 9.199 22.219 9.199 8.043 0 16.083-3.067 22.219-9.199l151.486-151.486c12.269-12.274 12.269-32.166 0-44.438-12.272-12.264-32.164-12.264-44.438 0zm682.028 66.543H824.996c-17.354 0-31.419 14.066-31.419 31.42s14.066 31.418 31.419 31.418h520.665c17.354 0 31.419-14.064 31.419-31.418s-14.065-31.42-31.419-31.42z"/></svg>