<svg xmlns="http://www.w3.org/2000/svg" viewBox="0 0 1800 1800"><path d="M1468.436 32.467v188.211c-98.748 15.249-174.595 100.822-174.595 203.777s75.847 188.521 174.595 203.777v1139.302c0 17.453 14.146 31.608 31.607 31.608 17.454 0 31.609-14.155 31.609-31.608V628.232c98.748-15.257 174.59-100.822 174.59-203.777s-75.842-188.529-174.59-203.777V32.467c0-17.454-14.155-31.608-31.609-31.608-17.462-.001-31.607 14.154-31.607 31.608zm174.593 391.988c0 67.979-47.703 124.986-111.377 139.423-10.179 2.302-20.744 3.563-31.609 3.563s-21.43-1.261-31.607-3.563c-63.684-14.438-111.378-71.444-111.378-139.423 0-67.988 47.694-124.995 111.378-139.424 10.178-2.311 20.742-3.563 31.607-3.563s21.431 1.252 31.609 3.563c63.674 14.429 111.377 71.436 111.377 139.424zM331.574 1767.534V628.232c98.758-15.257 174.603-100.822 174.603-203.777s-75.845-188.529-174.603-203.777V32.467c0-17.454-14.146-31.608-31.608-31.608-17.454 0-31.608 14.155-31.608 31.608v188.211C169.609 235.926 93.763 321.5 93.763 424.455s75.846 188.521 174.594 203.777v1139.302c0 17.453 14.155 31.608 31.608 31.608 17.463.001 31.609-14.155 31.609-31.608zM156.98 424.455c0-67.988 47.703-124.995 111.377-139.424a142.588 142.588 0 0131.608-3.563 142.52 142.52 0 0131.608 3.563c63.684 14.429 111.387 71.436 111.387 139.424 0 67.979-47.703 124.986-111.387 139.423-10.178 2.302-20.743 3.563-31.608 3.563-10.856 0-21.431-1.261-31.608-3.563-63.674-14.437-111.377-71.444-111.377-139.423zm774.637 1343.079V1419.51c98.748-15.257 174.594-100.822 174.594-203.777s-75.846-188.529-174.594-203.777V32.467c0-17.454-14.154-31.608-31.608-31.608-17.462 0-31.608 14.155-31.608 31.608v979.488c-98.757 15.248-174.603 100.822-174.603 203.777s75.846 188.521 174.603 203.777v348.024c0 17.453 14.146 31.608 31.608 31.608 17.454.002 31.608-14.154 31.608-31.607zm-174.602-551.802c0-67.986 47.703-124.995 111.386-139.424a142.64 142.64 0 0131.608-3.563 142.64 142.64 0 0131.608 3.563c63.676 14.429 111.378 71.438 111.378 139.424 0 67.979-47.702 124.986-111.378 139.424-10.178 2.303-20.743 3.563-31.608 3.563-10.865 0-21.431-1.26-31.608-3.563-63.684-14.437-111.386-71.445-111.386-139.424z"/></svg>