<svg xmlns="http://www.w3.org/2000/svg" viewBox="0 0 1800 1800"><path d="M1674.102 313.758V35.517c0-.531-.053-1.05-.08-1.573.212-3.68-.184-7.458-1.348-11.182-5.178-16.602-22.839-25.852-39.428-20.683L569.624 333.772c-1.089.334-2.151.72-3.184 1.16-.084.035-.154.079-.238.114a33.79 33.79 0 00-2.507 1.226c-.439.242-.853.518-1.279.777-.435.263-.878.519-1.295.804-.527.356-1.023.751-1.529 1.138-.294.229-.602.443-.892.685-.496.413-.958.857-1.428 1.301-.272.254-.553.496-.816.76-.409.417-.786.855-1.173 1.291-.294.329-.598.655-.879.998-.302.377-.583.773-.869 1.164-.32.435-.655.866-.953 1.313-.215.325-.404.663-.606.992-.329.544-.663 1.085-.962 1.647-.149.281-.277.575-.417.861a29.741 29.741 0 00-.878 1.893c-.124.299-.22.602-.329.901-.242.641-.488 1.282-.69 1.945-.136.448-.232.909-.351 1.366-.132.519-.281 1.028-.386 1.555a30.227 30.227 0 00-.417 2.75c-.013.088-.03.171-.039.263a31.506 31.506 0 00-.163 3.4v1030.341c-44.338-48.791-108.277-79.475-179.244-79.475-133.55 0-242.2 108.656-242.2 242.209 0 133.554 108.65 242.203 242.2 242.203 133.553 0 242.208-108.649 242.208-242.203V668.854l1000.829-312.107v709.3c-44.338-48.791-108.273-79.465-179.24-79.465-133.553 0-242.203 108.646-242.203 242.199 0 133.557 108.65 242.213 242.203 242.213 133.555 0 242.205-108.656 242.205-242.213V313.758zM368.1 1736.388c-98.83 0-179.235-80.405-179.235-179.239 0-98.835 80.405-179.244 179.235-179.244 98.833 0 179.244 80.409 179.244 179.244 0 98.833-80.41 179.239-179.244 179.239zm1063.796-328.359c-98.832 0-179.239-80.41-179.239-179.248 0-98.835 80.407-179.239 179.239-179.239 98.834 0 179.24 80.404 179.24 179.239.001 98.838-80.406 179.248-179.24 179.248zm-821.588-805.13v-215.86L1611.137 74.931v215.861L610.308 602.899z"/></svg>