<svg xmlns="http://www.w3.org/2000/svg" viewBox="0 0 1800 1800"><path d="M197.667 1268.735h536.292c17.423 0 31.546-14.119 31.546-31.546 0-17.421-14.123-31.547-31.546-31.547H197.667c-17.423 0-31.546 14.126-31.546 31.547 0 17.427 14.122 31.546 31.546 31.546zm707.544 154.353H197.667c-17.423 0-31.546 14.127-31.546 31.546 0 17.428 14.123 31.547 31.546 31.547h707.544c17.425 0 31.547-14.119 31.547-31.547 0-17.419-14.122-31.546-31.547-31.546zM197.667 1051.29h1381.288c17.425 0 31.547-14.129 31.547-31.547 0-17.428-14.122-31.547-31.547-31.547H197.667c-17.423 0-31.546 14.119-31.546 31.547 0 17.418 14.122 31.547 31.546 31.547zm1220.894 89.878c-41.674 0-80.367 12.946-112.333 34.979-31.964-22.032-70.658-34.979-112.331-34.979-109.409 0-198.422 89.015-198.422 198.423 0 109.411 89.013 198.417 198.422 198.417 41.673 0 80.367-12.939 112.331-34.979 31.966 22.04 70.659 34.979 112.333 34.979 109.409 0 198.419-89.006 198.419-198.417-.001-109.408-89.01-198.423-198.419-198.423zm-112.333 273.794c-14.511-21.556-22.995-47.485-22.995-75.371 0-27.884 8.484-53.825 22.995-75.38 14.51 21.555 22.995 47.496 22.995 75.38 0 27.886-8.486 53.815-22.995 75.371zm-247.66-75.371c0-74.622 60.707-135.33 135.328-135.33 23.75 0 46.087 6.17 65.513 16.97-24.654 33.061-39.27 74.033-39.27 118.36 0 44.319 14.615 85.292 39.27 118.354-19.426 10.8-41.763 16.97-65.513 16.97-74.621-.001-135.328-60.708-135.328-135.324zm359.993 135.323c-23.753 0-46.09-6.17-65.515-16.97 24.655-33.062 39.271-74.034 39.271-118.354 0-44.327-14.615-85.3-39.271-118.36 19.425-10.8 41.762-16.97 65.515-16.97 74.618 0 135.326 60.708 135.326 135.33 0 74.617-60.708 135.324-135.326 135.324z"/><path d="M1765.979 668.543h-74.491l-237.127-647.23c-5.99-16.356-24.096-24.773-40.471-18.768L44.973 504.073c-16.358 5.994-24.76 24.113-18.766 40.474l45.428 123.997H34.02c-17.424 0-31.547 14.123-31.547 31.546v1067.756c0 17.429 14.123 31.547 31.547 31.547h1731.96c17.425 0 31.548-14.118 31.548-31.547V700.09c-.001-17.423-14.124-31.547-31.549-31.547zm-141.686 0H658.115l851.84-312.087 114.338 312.087zM1405.972 72.641l34.923 95.313L131.221 647.777l-34.923-95.315L1405.972 72.641zm56.624 154.555l25.653 70.019L474.711 668.543H257.947l1204.649-441.347zM1734.434 1736.3H65.566V731.637h1668.867V1736.3z"/></svg>