<svg xmlns="http://www.w3.org/2000/svg" viewBox="0 0 1800 1800"><path d="M1583.266 1262.444c-155.105 155.105-361.327 240.526-580.678 240.526-219.35 0-425.572-85.421-580.677-240.526-155.107-155.104-240.528-361.33-240.533-580.682 0-219.354 85.42-425.578 240.528-580.685 12.336-12.333 12.336-32.328.004-44.663-12.333-12.33-32.328-12.334-44.661 0-167.044 167.036-259.035 389.124-259.035 625.35.004 236.219 91.995 458.312 259.03 625.348 164.65 164.647 378.605 250.606 594.774 258.019v168.973H656.207c-17.443 0-31.581 14.134-31.581 31.582 0 17.439 14.138 31.582 31.581 31.582h694.789c17.446 0 31.582-14.143 31.582-31.582 0-17.448-14.136-31.582-31.582-31.582h-315.814V1565.06c215.475-7.878 428.613-93.819 592.751-257.947 12.327-12.337 12.327-32.331 0-44.668-12.337-12.327-32.332-12.327-44.667-.001z"/><path d="M389.367 972.961c77.779 163.801 214.692 287.502 385.518 348.33 73.614 26.205 150.222 39.503 227.686 39.503h.018c286.303 0 543.235-181.269 639.417-451.066.044-.106.079-.211.114-.317 60.801-170.812 51.453-355.075-26.32-518.855-77.783-163.798-214.698-287.5-385.524-348.318-73.613-26.214-150.214-39.504-227.669-39.504-286.417 0-543.43 181.375-639.542 451.326-60.82 170.824-51.48 355.107 26.302 518.901zm57.053-27.093a623.152 623.152 0 01-36.441-96.662 31.448 31.448 0 002.393-2.615c43.204-53.021 175.521-186.786 267.388-169.374 40.816 7.734 75.588.683 103.345-20.987 59.436-46.395 65.115-144.487 68.508-203.097.304-5.273.585-10.158.89-14.563 1.921-27.88-5.944-61.956-13.553-94.909-5.899-25.545-18.174-78.703-10.19-88.554 0 0 .326-.213 1.207-.476 31.467-9.322 74.722-45.061 128.569-106.224 34.64-39.342 53.788-64.954 64.274-82.143 42.879 1.416 85.402 7.333 127.145 17.683-48.473 39.591-108.728 101.778-99.846 161.004 5.912 39.446 38.252 67.783 96.119 84.221 193.551 54.985 221.572 85.758 248.914 183.415 21.281 75.993 90.735 136.785 153.167 136.776 3.895 0 7.772-.235 11.605-.72 13.498-1.711 35.934-7.961 55.487-29.354 7.947 77.48.951 156.189-21.123 232.574-28.98-13.875-71.842-27.887-117.522-20.267-65.101 10.863-98.348-100.23-114.825-195.311-18.506-106.747-79.05-109.385-104.218-105.567-63.232 9.585-128.625 93.667-120.642 155.116 7.473 57.486-37.309 155.165-77.844 191.843-5.7 5.159-31.643-5.928-48.816-13.266-40.667-17.375-108.723-46.45-157.769 17.456-48.292 62.918-179.892 224.911-229.164 285.42-74.661-58.184-135.272-133.419-177.058-221.419zm556.15 351.763c-70.23 0-139.705-12.063-206.502-35.846-42.724-15.211-83.096-34.781-120.66-58.238 51.531-63.312 179.518-220.92 227.339-283.219 16.684-21.741 33.549-18.894 82.852 2.167 35.775 15.28 80.301 34.305 116.007 2.019 54.984-49.751 108.622-165.878 98.102-246.822-3.261-25.092 36.524-79.834 67.479-84.524 20.444-3.06 29.521 36.665 32.508 53.903 15.183 87.606 37.001 150.184 66.705 191.308 40.305 55.805 87.915 60.994 120.739 55.521 33.184-5.524 66.211 7.53 86.408 18.168-93.442 231.647-319.719 385.572-570.977 385.563zm556.172-879.983a625.166 625.166 0 0131.635 80.635c-1.869 52.173-16.073 84.869-38.403 87.697-30.663 3.879-81.065-37.067-96.003-90.422-36.04-128.711-87.977-169.047-292.481-227.144-30.522-8.673-49.081-20.633-50.913-32.815-4.67-31.031 58.112-91.087 111.345-128.366 148.019 56.916 266.539 166.63 334.82 310.415zM422.567 475.245C502.993 249.357 707.646 91.966 942.826 68.929c-38.164 47.875-100.911 116.285-130.8 125.143-67.802 20.089-48.624 103.151-34.622 163.8 6.569 28.444 13.359 57.86 12.086 76.354-.318 4.613-.617 9.732-.935 15.257-2.595 44.788-7.419 128.156-44.314 156.956-12.984 10.14-30.233 12.986-52.708 8.721-63.978-12.114-139.323 17.366-224.004 87.655-30.065 24.959-55.778 50.538-74.142 70.084-14.934-98.968-5.337-200.7 29.18-297.654z"/><path d="M1035.578 629.173c11.941 0 23.121-3.231 33.23-9.603 37.053-23.346 52.023-62.746 65.241-97.506 9.993-26.279 19.422-51.1 36.604-67.192 16.565-15.509 22.1-35.773 14.821-54.208-8.874-22.458-33.776-35.337-68.31-35.337-59.857 0-137.49 36.837-212.991 101.066-11.635 9.902-14.518 26.715-6.838 39.926 16.756 28.82 76.244 122.85 138.243 122.854zm74.213-200.346c-16.354 22.318-26.013 47.727-34.78 70.793-11.059 29.075-20.61 54.201-39.679 66.386-13.183-.397-43.514-31.319-69.031-68.74 71.815-55.693 121.901-66.599 143.49-68.439z"/></svg>