<svg xmlns="http://www.w3.org/2000/svg" viewBox="0 0 1800 1800"><path d="M1766.471 171.322c17.431 0 31.56-14.128 31.56-31.559V31.56c0-17.431-14.129-31.56-31.56-31.56H33.529C16.099 0 1.97 14.128 1.97 31.56v108.203c0 17.431 14.129 31.559 31.56 31.559h109.048v924.236H33.529c-17.431 0-31.56 14.128-31.56 31.559v108.204c0 17.431 14.129 31.559 31.56 31.559h786.238l-497.67 478.822c-12.561 12.081-12.944 32.062-.858 44.622 6.195 6.438 14.463 9.678 22.745 9.678 7.872 0 15.758-2.928 21.878-8.819l472.548-454.654v431.914c0 17.431 14.129 31.56 31.56 31.56s31.559-14.129 31.559-31.56v-431.914l472.549 454.654a31.45 31.45 0 0021.877 8.819c8.281 0 16.551-3.24 22.745-9.678 12.085-12.561 11.702-32.541-.858-44.622L920.171 1266.88h846.302c17.431 0 31.56-14.128 31.56-31.559v-108.204c0-17.431-14.129-31.559-31.56-31.559h-109.049V171.322h109.047zM65.088 63.118h1669.824v45.085H65.088V63.118zm1669.824 1140.643H65.088v-45.085h1669.825v45.085zm-140.608-108.203H205.696V171.322h1388.607v924.236z"/><path d="M502.242 852.752c8.075 0 16.154-3.082 22.313-9.242l171.52-171.511 197.717 197.717c6.164 6.159 14.243 9.241 22.317 9.241 8.075 0 16.154-3.082 22.318-9.241l269.904-269.905.005 181.012c0 17.431 14.128 31.56 31.56 31.56 17.43 0 31.559-14.129 31.559-31.56l-.009-260.289a31.44 31.44 0 00-9.276-22.344c-5.711-5.728-13.613-9.277-22.344-9.277l-260.285-.009c-17.426 0-31.56 14.129-31.56 31.56s14.129 31.559 31.56 31.559l187.299.009-250.73 250.731-197.716-197.717c-12.328-12.319-32.308-12.319-44.636 0-.014.013-.026.031-.04.044L479.929 798.875c-12.328 12.328-12.328 32.308-.004 44.631 6.163 6.164 14.238 9.246 22.317 9.246z"/></svg>