<svg xmlns="http://www.w3.org/2000/svg" viewBox="0 0 1800 1800"><path d="M1099.021 1358.872c-24.524-10.022-50.942-18.95-78.808-26.835l-51.576 51.575c152 36.272 245.715 100.936 245.715 161.021 0 89.873-209.631 190.014-510.447 190.014-300.812 0-510.448-100.141-510.448-190.014 0-60.081 93.715-124.748 245.711-161.021l-51.575-51.575c-27.863 7.885-54.28 16.813-78.796 26.835-114.981 46.993-178.304 112.964-178.304 185.761s63.323 138.769 178.304 185.762c106.048 43.344 246.366 67.214 395.107 67.214 148.746 0 289.068-23.87 395.116-67.214 114.977-46.993 178.294-112.965 178.294-185.762s-63.317-138.768-178.293-185.761z"/><path d="M1646.857 537.94L735.386 271.5v-66.372c41.896-13.364 72.331-52.65 72.331-98.919 0-57.245-46.572-103.816-103.813-103.816S600.092 48.964 600.092 106.208c0 46.269 30.437 85.555 72.332 98.919v1359.694c0 17.389 14.094 31.482 31.481 31.482 17.388 0 31.481-14.094 31.481-31.482V864.814l911.472-266.441c13.422-3.922 22.648-16.232 22.648-30.216 0-13.984-9.227-26.295-22.649-30.217zM703.904 65.354c22.526 0 40.85 18.328 40.85 40.854s-18.323 40.849-40.85 40.849-40.849-18.323-40.849-40.849 18.323-40.854 40.849-40.854zm31.486 733.863V337.098l790.431 231.06L735.39 799.217z"/></svg>