<svg xmlns="http://www.w3.org/2000/svg" viewBox="0 0 1800 1800"><path d="M770.8 796.605v265.968c0 71.216 57.939 129.154 129.154 129.154 71.209 0 129.148-57.938 129.157-129.154l-.009-265.964c0-71.215-57.93-129.154-129.148-129.154-71.215.001-129.154 57.935-129.154 129.15zm195.28.004l.009 265.96c-.009 36.469-29.672 66.138-66.135 66.138-36.464 0-66.133-29.669-66.133-66.134V796.605c0-36.465 29.668-66.129 66.133-66.129 36.463 0 66.126 29.669 66.126 66.133zm-66.126 435.258c-71.566 0-129.787 58.221-129.787 129.787 0 71.572 58.221 129.796 129.787 129.796 71.569 0 129.791-58.224 129.791-129.796-.001-71.566-58.223-129.787-129.791-129.787zm0 196.563c-36.816 0-66.766-29.954-66.766-66.775 0-36.816 29.95-66.767 66.766-66.767 36.814 0 66.768 29.95 66.768 66.767 0 36.821-29.954 66.775-66.768 66.775z"/><path d="M1790.452 1630.839L927.246 135.725a31.525 31.525 0 00-27.292-15.755 31.51 31.51 0 00-27.29 15.755L8.344 1632.76a31.52 31.52 0 000 31.511 31.513 31.513 0 0027.29 15.755h1728.644a.329.329 0 00.089 0c17.4 0 31.511-14.106 31.511-31.51a31.317 31.317 0 00-5.426-17.677zM90.21 1617.004L899.954 214.5l809.745 1402.503H90.21z"/></svg>