<svg xmlns="http://www.w3.org/2000/svg" viewBox="0 0 24 24"><path d="M12 8v5h5v-2h-3V8z"/><path d="M21.292 8.497a8.957 8.957 0 00-1.928-2.862 9.004 9.004 0 00-4.55-2.452 9.09 9.09 0 00-3.626 0 8.965 8.965 0 00-4.552 2.453 9.048 9.048 0 00-1.928 2.86A8.963 8.963 0 004 12l.001.025H2L5 16l3-3.975H6.001L6 12a6.957 6.957 0 011.195-3.913 7.066 7.066 0 011.891-1.892 7.034 7.034 0 012.503-1.054 7.003 7.003 0 018.269 5.445 7.117 7.117 0 010 2.824 6.936 6.936 0 01-1.054 2.503c-.25.371-.537.72-.854 1.036a7.058 7.058 0 01-2.225 1.501 6.98 6.98 0 01-1.313.408 7.117 7.117 0 01-2.823 0 6.957 6.957 0 01-2.501-1.053 7.066 7.066 0 01-1.037-.855l-1.414 1.414A8.985 8.985 0 0013 21a9.05 9.05 0 003.503-.707 9.009 9.009 0 003.959-3.26A8.968 8.968 0 0022 12a8.928 8.928 0 00-.708-3.503z"/></svg>