<svg xmlns="http://www.w3.org/2000/svg" viewBox="0 0 48 48"><defs><style/></defs><path d="M29.624 43.785l-4.243-11.313 7.778-7.778 2.075 8.735zM4.168 18.329l10.357-5.611 8.735 2.075-7.778 7.778zm1.456 16.662c1.92-4.929 5.24-2.274 5.24-2.274l2.222 2.217 2.2 2.193s2.627 3.28-2.295 5.213a12.725 12.725 0 01-4.578.376c-.815-.076-3.537 1.6-4.347 1.222-.39-.814 1.288-3.537 1.207-4.355a12.681 12.681 0 01.351-4.592z"/><path fill-rule="evenodd" d="M10.7 24.537C29.323 6.122 43.983 3.986 43.983 3.986S41.823 18.484 23.2 36.9c0 0-4.841 5.327-11.38-1.14a8.244 8.244 0 01-1.12-11.223z"/><path d="M27.646 20.336a4.454 4.454 0 11-6.346-.058 4.512 4.512 0 016.346.058z"/></svg>