<svg xmlns="http://www.w3.org/2000/svg" viewBox="0 0 48 48"><g fill-rule="evenodd"><path d="M25.009 41.01L13 33V17l12.009-7.986z"/><path d="M27.174 43v-2.06c7.352-1.912 12.8-8.549 12.8-16.442 0-7.894-5.448-14.53-12.8-16.442v-2.06c8.472 1.957 14.81 9.501 14.81 18.502S35.646 41.043 27.174 43zM7.994 17.001h5.012v15.991H7.994V17.001zm29.143 7.497c0 6.329-4.193 11.7-9.963 13.527v-2.124c4.639-1.745 7.953-6.191 7.953-11.403 0-5.212-3.314-9.659-7.953-11.403V10.97c5.77 1.827 9.963 7.199 9.963 13.528zm-5.332 0c0 3.348-1.873 6.267-4.631 7.787v-2.396a6.871 6.871 0 002.621-5.391 6.873 6.873 0 00-2.621-5.392v-2.395c2.758 1.519 4.631 4.438 4.631 7.787z"/></g></svg>