<svg xmlns="http://www.w3.org/2000/svg" viewBox="0 0 100 100"><style/><path d="M0 0h100v100H0z"/><path d="M100 100H0V0h100v100zM9.7 90h80.7V10H9.7"/><path d="M78.9 72l-.1.8-.1 1.1-56.5-.1-.7-.1-.3-.4-.2-.6.1-.4.5-.4h57.2v.1z"/><path d="M78.9 72l-.1.8-.1 1.1-56.5-.1-.7-.1-.3-.4-.2-.6.1-.4.5-.4h57.2v.1zm-53.7-6.3l2.1 2.2-2.7 1.9-1.4.8h-.5l-.3-.5 1-1.4 1.8-3z"/><path d="M25.2 65.7l2.1 2.2-2.7 1.9-1.4.8h-.5l-.3-.5 1-1.4 1.8-3zm18.2-20.8l4.5 4.7-4 4-4.4 4-4.4 3.8-3.4 3-3.7 2.5-2.2-2.2 2.1-3 2.9-3.4 2.2-2.6 2.9-3 3.6-3.8c-.1-.1 3.9-4 3.9-4z"/><path d="M43.4 44.9l4.5 4.7-4 4-4.4 4-4.4 3.8-3.4 3-3.7 2.5-2.2-2.2 2.1-3 2.9-3.4 2.2-2.6 2.9-3 3.6-3.8c-.1-.1 3.9-4 3.9-4zm20.8-18.8l1.1.1.7.5.5 1V29l-.4 1.1-.5.8v1l.4.5.1.7-.1 1-9.2 9.9-2.6 2.7-1 1.2-.1.5.1.7-.5.7-1-.4-.3-1 .1-1 .5-.8 6.4-6.8 5.5-6 .1-.7-.5-.1-3.8 4.2-6.3 6.6-4.5 4.7-4.7-4.2 5.2-5.5 5.9-5.7 5.5-5.1 1.4-1 1-.5h1.1l-.1-.4z"/><path d="M64.2 26.1l1.1.1.7.5.5 1V29l-.4 1.1-.5.8v1l.4.5.1.7-.1 1-9.2 9.9-2.6 2.7-1 1.2-.1.5.1.7-.5.7-1-.4-.3-1 .1-1 .5-.8 6.4-6.8 5.5-6 .1-.7-.5-.1-3.8 4.2-6.3 6.6-4.5 4.7-4.7-4.2 5.2-5.5 5.9-5.7 5.5-5.1 1.4-1 1-.5h1.1l-.1-.4z"/></svg>