<svg xmlns="http://www.w3.org/2000/svg" viewBox="0 0 100 100"><style/><path d="M0 0h100v100H0V0z"/><path d="M100 100H0V0h100v100zM9.7 90h80.7V10H9.7"/><path stroke-miterlimit="10" d="M44.6 20c-.7 0-1.3.5-1.6 1.1l-1.6 3h-11c-1.1 0-2.1.9-2.1 2-.1 17.3.3 34.5 0 51.7 0 1.1 1 2.2 2.1 2.2h39.3c1.1 0 2.1-1 2.1-2.1V26.2c0-1-1-2.1-2.1-2.1H58.5l-1.6-3c-.4-.7-1.1-1.1-1.9-1.1H44.6z"/><path d="M32.4 28.3h7.3c0 2.1.2 4.1 2.1 4.1h16.6c2.1 0 2.1-2.1 2.1-4.1h7.3v47.5H32.6c0-15.8-.1-31.7-.2-47.5z"/><path d="M37.6 39.6h24.8v4.1H37.6zm0 8.3h24.8V52H37.6zm0 8.3h24.8v4.1H37.6zm0 8.3h16.6v4.1H37.6z"/></svg>