<?xml version="1.0" encoding="UTF-8"?>
<svg width="16px" height="16px" viewBox="0 0 16 16" version="1.1" xmlns="http://www.w3.org/2000/svg" xmlns:xlink="http://www.w3.org/1999/xlink">
    <!-- Generator: Sketch 54.1 (76490) - https://sketchapp.com -->
    <title>等待</title>
    <desc>Created with Sketch.</desc>
    <g id="等待" stroke="none" stroke-width="1" fill="none" fill-rule="evenodd">
        <path d="M8,16 C3.581722,16 0,12.418278 0,8 C0,3.581722 3.581722,0 8,0 C12.418278,0 16,3.581722 16,8 C16,12.418278 12.418278,16 8,16 Z M6,5 C5.44771525,5 5,5.44771525 5,6 L5,10 C5,10.5522847 5.44771525,11 6,11 C6.55228475,11 7,10.5522847 7,10 L7,6 C7,5.44771525 6.55228475,5 6,5 Z M10,5 C9.44771525,5 9,5.44771525 9,6 L9,10 C9,10.5522847 9.44771525,11 10,11 C10.5522847,11 11,10.5522847 11,10 L11,6 C11,5.44771525 10.5522847,5 10,5 Z" id="形状" fill="#3DCCA6" fill-rule="nonzero"></path>
    </g>
</svg>