<svg xmlns="http://www.w3.org/2000/svg" viewBox="0 0 64 64"><path stroke-miterlimit="10" stroke-width="2" d="M30 38v6s0 19-7 19h9m0 0h9c-7 0-7-19-7-19v-6"/><path stroke-linejoin="bevel" stroke-miterlimit="10" stroke-width="2" d="M34 38c0 7.457 8.044 12.125 15.5 12.125 7.455 0 13.5-6.043 13.5-13.5s-6.045-13.5-13.5-13.5c-2.678 0-5.168.789-7.267 2.135a13.374 13.374 0 003.204-8.697c0-7.422-6.017-13.438-13.438-13.438S18.562 9.141 18.562 16.562c0 3.32 1.21 6.353 3.205 8.697a13.43 13.43 0 00-7.268-2.135c-7.456 0-13.5 6.043-13.5 13.5s6.044 13.5 13.5 13.5C21.955 50.125 30 45.457 30 38"/></svg>