<svg xmlns="http://www.w3.org/2000/svg" viewBox="0 0 24 24"><path d="M20 13H4a1 1 0 010-2h16a1 1 0 010 2z"/><circle cx="12" cy="16" r="1"/><circle cx="12" cy="20" r="1"/><circle cx="12" cy="8" r="1"/><circle cx="12" cy="4" r="1"/><circle cx="4" cy="16" r="1"/><circle cx="4" cy="20" r="1"/><circle cx="4" cy="8" r="1"/><circle cx="4" cy="4" r="1"/><circle cx="8" cy="4" r="1"/><circle cx="16" cy="4" r="1"/><circle cx="8" cy="20" r="1"/><circle cx="16" cy="20" r="1"/><circle cx="20" cy="16" r="1"/><circle cx="20" cy="20" r="1"/><circle cx="20" cy="8" r="1"/><circle cx="20" cy="4" r="1"/></svg>