<svg xmlns="http://www.w3.org/2000/svg" viewBox="0 0 24 24"><path d="M19.965 13h-16a1 1 0 010-2h16a1 1 0 010 2z"/><path d="M11.965 21a1 1 0 01-1-1V4a1 1 0 012 0v16a1 1 0 01-1 1z"/><circle cx="3.964" cy="16" r="1"/><circle cx="3.964" cy="20" r="1"/><circle cx="3.964" cy="8" r="1"/><circle cx="3.964" cy="4" r="1"/><circle cx="7.964" cy="4" r="1"/><circle cx="15.964" cy="4" r="1"/><circle cx="7.964" cy="20" r="1"/><circle cx="15.964" cy="20" r="1"/><circle cx="19.964" cy="16" r="1"/><circle cx="19.964" cy="20" r="1"/><circle cx="19.964" cy="8" r="1"/><circle cx="19.964" cy="4" r="1"/></svg>