<svg xmlns="http://www.w3.org/2000/svg" viewBox="0 0 24 24"><path d="M11 21a1 1 0 01-1-1V4a1 1 0 012 0v16a1 1 0 01-1 1z"/><circle cx="7" cy="12" r="1"/><circle cx="3" cy="12" r="1"/><circle cx="15" cy="12" r="1"/><circle cx="19" cy="12" r="1"/><circle cx="7" cy="4" r="1"/><circle cx="3" cy="4" r="1"/><circle cx="15" cy="4" r="1"/><circle cx="19" cy="4" r="1"/><circle cx="19" cy="8" r="1"/><circle cx="19" cy="16" r="1"/><circle cx="3" cy="8" r="1"/><circle cx="3" cy="16" r="1"/><circle cx="7" cy="20" r="1"/><circle cx="3" cy="20" r="1"/><circle cx="15" cy="20" r="1"/><circle cx="19" cy="20" r="1"/></svg>