<svg xmlns="http://www.w3.org/2000/svg" viewBox="0 0 24 24"><path d="M20.5 21a1 1 0 01-1-1V4a1 1 0 012 0v16a1 1 0 01-1 1z"/><circle cx="16.5" cy="12" r="1"/><circle cx="12.5" cy="12" r="1"/><circle cx="8.5" cy="12" r="1"/><circle cx="4.5" cy="12" r="1"/><circle cx="16.5" cy="20" r="1"/><circle cx="12.5" cy="20" r="1"/><circle cx="8.5" cy="20" r="1"/><circle cx="4.5" cy="20" r="1"/><circle cx="4.5" cy="16" r="1"/><circle cx="4.5" cy="8" r="1"/><circle cx="12.5" cy="16" r="1"/><circle cx="12.5" cy="8" r="1"/><circle cx="16.5" cy="4" r="1"/><circle cx="12.5" cy="4" r="1"/><circle cx="8.5" cy="4" r="1"/><circle cx="4.5" cy="4" r="1"/></svg>