<svg xmlns="http://www.w3.org/2000/svg" viewBox="0 0 24 24"><path d="M9.818 14.313a3.795 3.795 0 01-.447.085.21.21 0 01-.235-.152v-.968c.006-.095-.032-.197.044-.28a.266.266 0 01.138-.085c.173-.032.34-.088.495-.169.273-.158.468-.423.538-.731l.035-.151-2.041-.004a.65.65 0 01-.175-.018.413.413 0 01-.306-.385c-.001-1.029 0-2.058.001-3.087a.467.467 0 01.139-.436.39.39 0 01.256-.102h3.002a.416.416 0 01.4.527c.015.05.02.102.016.153 0 1.122.006 2.243-.002 3.364a2.51 2.51 0 01-.84 1.878c-.029.026-.056.054-.084.08-.277.22-.594.384-.934.481zm5.536-.071l-.038.01-.022.013c-.193.056-.39.099-.589.129a.216.216 0 01-.27-.217l-.002-.322.005-.578-.002-.127c0-.147.057-.21.24-.252.235-.04.454-.142.634-.297a1.26 1.26 0 00.378-.74l-1.886-.003h-.205a.419.419 0 01-.433-.44c0-1.016.001-2.033.003-3.049l-.002-.03a.435.435 0 01.204-.45.39.39 0 01.212-.06h2.982a.416.416 0 01.4.528c.015.05.02.101.016.153v3.37a2.557 2.557 0 01-1.557 2.327c-.023.01-.045.023-.068.035z"/><path d="M20.866 9.055a8.505 8.505 0 00-2.173-4.334 8.565 8.565 0 00-5.263-2.667A4.157 4.157 0 0112.95 2h-1.135c-.013.029-.039.018-.06.02a8.818 8.818 0 00-.87.114 8.453 8.453 0 00-5.177 3.104 8.358 8.358 0 00-1.84 4.709 8.59 8.59 0 00.185 2.529c.138.618.347 1.22.624 1.79l.074.146a8.601 8.601 0 001.783 2.396 8.53 8.53 0 005.763 2.333c.1.001.128.026.127.128-.005.874-.003 1.747-.002 2.621 0 .034.002.068.004.11l.063-.026a17.99 17.99 0 004.49-2.966c.268-.243.524-.497.77-.763l.315-.341c.163-.175.304-.37.457-.553.178-.212.337-.437.494-.663.35-.499.657-1.025.919-1.575.132-.279.257-.56.369-.847a.097.097 0 00.01-.016c.3-.786.502-1.605.601-2.44a12.1 12.1 0 00.075-.877 8.142 8.142 0 00-.123-1.878zm-9.19 2.82a2.51 2.51 0 01-.84 1.877c-.029.026-.056.054-.084.08-.277.22-.594.384-.934.481a3.791 3.791 0 01-.447.085.21.21 0 01-.235-.152v-.968c.006-.095-.032-.197.044-.28a.265.265 0 01.138-.085c.173-.032.339-.088.495-.169.273-.158.468-.423.538-.731l.035-.151c-.68-.001-1.36-.003-2.041-.003a.65.65 0 01-.175-.019.413.413 0 01-.306-.385 870.3 870.3 0 01.001-3.087.467.467 0 01.139-.436c.07-.064.161-.1.256-.102h3.002a.416.416 0 01.4.527c.015.05.02.102.016.153 0 1.122.006 2.243-.002 3.364zm5.303.004a2.557 2.557 0 01-1.557 2.328c-.023.01-.045.023-.068.035l-.038.01-.022.013c-.193.056-.39.099-.589.129a.216.216 0 01-.27-.217l-.002-.322.005-.578-.002-.127c0-.147.057-.21.24-.252.235-.04.454-.142.634-.297a1.26 1.26 0 00.378-.74l-1.886-.003h-.205a.419.419 0 01-.433-.44c0-1.016.001-2.033.003-3.049l-.002-.03a.435.435 0 01.204-.45.39.39 0 01.212-.06h2.982a.416.416 0 01.4.528c.015.05.02.101.016.153v3.37z"/></svg>