<svg xmlns="http://www.w3.org/2000/svg" data-name="Layer 1" viewBox="0 0 24 24"><path d="M12 18a3.5 3.5 0 113.5-3.5A3.504 3.504 0 0112 18z"/><path d="M14.64 16.772a3.452 3.452 0 01-5.28 0A4.988 4.988 0 007 21a1 1 0 001 1h8a1 1 0 001-1 4.988 4.988 0 00-2.36-4.228zM21 12a.996.996 0 01-.664-.252L12 4.338l-8.336 7.41a1 1 0 01-1.328-1.496l9-8a.999.999 0 011.328 0l9 8A1 1 0 0121 12z"/><path d="M12 4.338l-8 7.111V21a1 1 0 001 1h3a1 1 0 01-1-1 4.988 4.988 0 012.36-4.228A3.469 3.469 0 018.5 14.5a3.5 3.5 0 017 0 3.469 3.469 0 01-.86 2.272A4.988 4.988 0 0117 21a1 1 0 01-1 1h3a1 1 0 001-1v-9.551z"/></svg>