<svg xmlns="http://www.w3.org/2000/svg" viewBox="0 0 24 24"><g data-name="Brand Logos"><path d="M12 6.865A5.135 5.135 0 1017.135 12 5.135 5.135 0 0012 6.865zm0 8.469A3.334 3.334 0 1115.334 12 3.333 3.333 0 0112 15.334z"/><path d="M21.94 7.877a7.333 7.333 0 00-.465-2.427 4.918 4.918 0 00-1.153-1.772 4.894 4.894 0 00-1.77-1.153 7.323 7.323 0 00-2.428-.464C15.058 2.012 14.717 2 12.001 2s-3.057.011-4.123.06a7.333 7.333 0 00-2.428.465 4.905 4.905 0 00-1.77 1.153A4.886 4.886 0 002.525 5.45a7.333 7.333 0 00-.464 2.427c-.05 1.066-.06 1.407-.06 4.123s.01 3.057.06 4.123a7.334 7.334 0 00.464 2.427 4.888 4.888 0 001.154 1.772 4.917 4.917 0 001.771 1.153 7.338 7.338 0 002.428.464C8.944 21.988 9.285 22 12 22s3.057-.011 4.123-.06a7.333 7.333 0 002.427-.465 5.113 5.113 0 002.925-2.925 7.316 7.316 0 00.465-2.427c.048-1.067.06-1.407.06-4.123s-.012-3.057-.06-4.123zm-1.8 8.164a5.549 5.549 0 01-.343 1.857 3.311 3.311 0 01-1.898 1.898 5.522 5.522 0 01-1.857.344c-1.055.048-1.371.058-4.042.058s-2.986-.01-4.04-.058a5.526 5.526 0 01-1.857-.344 3.108 3.108 0 01-1.15-.748 3.085 3.085 0 01-.748-1.15 5.521 5.521 0 01-.344-1.857c-.048-1.054-.058-1.37-.058-4.04s.01-2.987.058-4.042a5.563 5.563 0 01.344-1.857 3.107 3.107 0 01.748-1.15 3.082 3.082 0 011.15-.748A5.523 5.523 0 017.96 3.86C9.014 3.81 9.331 3.8 12 3.8s2.987.011 4.042.059a5.564 5.564 0 011.857.344 3.31 3.31 0 011.898 1.898 5.523 5.523 0 01.344 1.857c.048 1.055.058 1.37.058 4.041s-.01 2.986-.058 4.041zM17.339 5.462z"/></g></svg>