<svg xmlns="http://www.w3.org/2000/svg" viewBox="0 0 24 24"><g data-name="Brand Logos"><path d="M20 23H4a3.003 3.003 0 01-3-3V4a3.003 3.003 0 013-3h16a3.003 3.003 0 013 3v16a3.003 3.003 0 01-3 3z"/><path d="M12 19a10.8 10.8 0 01-6.644-2.06 1 1 0 011.288-1.532A8.987 8.987 0 0012 17a8.995 8.995 0 005.361-1.595 1 1 0 011.282 1.535A10.795 10.795 0 0112 19zm-6-6a1 1 0 01-1-1V8a1 1 0 012 0v4a1 1 0 01-1 1zm4 2a1 1 0 01-1-1V6a1 1 0 012 0v8a1 1 0 01-1 1zm4 0a1 1 0 01-1-1V6a1 1 0 012 0v8a1 1 0 01-1 1zm4-2a1 1 0 01-1-1V8a1 1 0 012 0v4a1 1 0 01-1 1z"/></g></svg>