<svg xmlns="http://www.w3.org/2000/svg" viewBox="0 0 24 24"><path d="M11.181 2.213a1.677 1.677 0 011.637 0l7.479 4.225a1.54 1.54 0 01.778 1.325v8.475a1.556 1.556 0 01-.836 1.354l-7.452 4.204a1.63 1.63 0 01-1.655-.046l-2.236-1.292a1.316 1.316 0 01-.432-.311c.095-.128.265-.144.403-.2a5.22 5.22 0 00.883-.412.206.206 0 01.23.014c.636.365 1.267.741 1.907 1.103.136.079.274-.026.39-.09q3.658-2.068 7.317-4.13a.242.242 0 00.133-.238q.003-4.193.001-8.387a.262.262 0 00-.156-.261q-3.714-2.092-7.426-4.186a.258.258 0 00-.292 0Q8.141 5.452 4.43 7.547a.259.259 0 00-.157.26v8.387a.237.237 0 00.135.235q.99.562 1.983 1.12a1.532 1.532 0 001.24.166.94.94 0 00.609-.883c.003-2.78-.002-5.56.002-8.338a.21.21 0 01.228-.214c.318-.002.635-.004.953.001a.22.22 0 01.207.254c-.001 2.797.003 5.594-.002 8.39a2.127 2.127 0 01-.995 1.922 3.064 3.064 0 01-2.738-.075c-.727-.363-1.42-.79-2.133-1.18a1.553 1.553 0 01-.835-1.354V7.763a1.542 1.542 0 01.804-1.342q3.726-2.103 7.451-4.208z"/><path d="M13.348 8.083a5.88 5.88 0 013.218.493 2.434 2.434 0 011.187 2.106.228.228 0 01-.247.168c-.315 0-.629.004-.943-.002a.243.243 0 01-.228-.236 1.436 1.436 0 00-.687-.992 4.071 4.071 0 00-1.884-.27 2.558 2.558 0 00-1.349.336.855.855 0 00-.284.955c.101.24.378.317.605.388 1.306.342 2.69.308 3.97.757a1.87 1.87 0 011.23 1.095 2.338 2.338 0 01-.396 2.23 3.126 3.126 0 01-1.678.905 8.063 8.063 0 01-2.533.108 3.992 3.992 0 01-2.228-.839 2.338 2.338 0 01-.753-1.844.211.211 0 01.231-.186c.317-.003.633-.004.95 0a.222.222 0 01.226.22 1.439 1.439 0 00.536 1.01 4.06 4.06 0 002.187.398 2.97 2.97 0 001.794-.439.99.99 0 00.27-.946c-.078-.28-.37-.41-.621-.495-1.29-.408-2.688-.26-3.965-.72a1.93 1.93 0 01-1.218-1.063 2.175 2.175 0 01.434-2.262 3.506 3.506 0 012.176-.875z"/></svg>