<svg xmlns="http://www.w3.org/2000/svg" viewBox="0 0 24 24"><path d="M21 8H10a1 1 0 010-2h11a1 1 0 010 2zm0 5H10a1 1 0 010-2h11a1 1 0 010 2zM4.667 18.5a1 1 0 01-1-1v-11a1 1 0 012 0v11a1 1 0 01-1 1zM21 18H10a1 1 0 010-2h11a1 1 0 010 2z"/><path d="M6.334 9a.997.997 0 01-.77-.36l-.897-1.078-.898 1.079A1 1 0 012.23 7.359l1.667-2A1.002 1.002 0 014.667 5a1 1 0 01.769.36l1.666 2A1 1 0 016.334 9zM4.667 19a1.002 1.002 0 01-.769-.36l-1.667-2a1 1 0 111.538-1.28l.898 1.078.897-1.078a1 1 0 011.538 1.28l-1.666 2a1 1 0 01-.769.36z"/></svg>