<svg xmlns="http://www.w3.org/2000/svg" data-name="Layer 1" viewBox="0 0 24 24"><path d="M17.737 14.622l-2.426 2.23a11.603 11.603 0 01-4.299 2.37l.644 3.004a1 1 0 001.469.661l3.905-2.202a3.035 3.035 0 001.375-3.304zM7.266 8.776l2.088-2.48-2.604-.628a2.777 2.777 0 00-3.387 1.357l-2.2 3.9a1 1 0 00.661 1.469l3.073.659a12.887 12.887 0 012.369-4.277zm9.468.04a1.5 1.5 0 10-1.5-1.5 1.5 1.5 0 001.5 1.5z"/><path d="M22.601 2.062a1 1 0 00-.713-.713A11.249 11.249 0 0010.47 4.972L7.266 8.776a12.936 12.936 0 00-2.924 6.71 1 1 0 00.284.837l3.1 3.1a1 1 0 00.708.293.838.838 0 00.086-.004 11.847 11.847 0 006.79-2.86l3.664-3.368A11.204 11.204 0 0022.6 2.062zm-5.867 6.754a1.5 1.5 0 111.5-1.5 1.5 1.5 0 01-1.5 1.5z"/></svg>