<svg xmlns="http://www.w3.org/2000/svg" data-name="Layer 1" viewBox="0 0 24 24"><path d="M14 11h-1v-1a1 1 0 00-2 0v1h-1a1 1 0 000 2h1v1a1 1 0 002 0v-1h1a1 1 0 000-2z"/><path d="M19.63 3.65a1.002 1.002 0 00-.835-.203 7.985 7.985 0 01-6.223-1.267.999.999 0 00-1.144 0 7.98 7.98 0 01-6.223 1.267A1 1 0 004 4.427v7.456a9.019 9.019 0 003.769 7.324l3.65 2.607a1 1 0 001.162 0l3.65-2.607A9.017 9.017 0 0020 11.883V4.426a1.001 1.001 0 00-.37-.776zM14 13h-1v1a1 1 0 01-2 0v-1h-1a1 1 0 010-2h1v-1a1 1 0 012 0v1h1a1 1 0 010 2z"/></svg>