<svg xmlns="http://www.w3.org/2000/svg" viewBox="0 0 24 24"><path d="M9.338 2a2 2 0 00.001 4h1.996V4a2 2 0 00-1.997-2m0 5.333H4.016a2 2 0 000 4h5.322a2 2 0 000-4zm12.642 2a1.996 1.996 0 10-3.993 0v2h1.997a1.998 1.998 0 001.996-2zm-5.323 0V4a1.996 1.996 0 10-3.992 0v5.333a1.996 1.996 0 103.992 0zM14.661 22a2 2 0 000-4h-1.996v2a2 2 0 001.996 2zm0-5.334h5.323a2 2 0 000-4h-5.322a2 2 0 00-.001 4zm-12.641-2a1.996 1.996 0 103.993 0v-2H4.016a1.998 1.998 0 00-1.996 2zm5.323 0V20a1.996 1.996 0 103.992 0v-5.332a1.996 1.996 0 10-3.992-.002" data-name="Brand Logos"/></svg>