<svg xmlns="http://www.w3.org/2000/svg" viewBox="0 0 24 24"><path d="M3.808 11.651a1 1 0 001.06-.49 3.12 3.12 0 001.27.34 1.81 1.81 0 001.28-.5 1 1 0 00.3-.77v-.62a9.82 9.82 0 01.15-3.55 4.27 4.27 0 014-2.55h.4a4.26 4.26 0 014 2.55 10.18 10.18 0 01.15 3.63v.54a1 1 0 00.31.78 1.78 1.78 0 001.25.5 3.21 3.21 0 001.24-.37 1 1 0 00.92.6 1 1 0 001-1 1.63 1.63 0 00-1.19-1.45 1.92 1.92 0 00-1.47 0 9.49 9.49 0 00-.36-4 6.23 6.23 0 00-5.93-3.79h-.4a6.22 6.22 0 00-5.79 3.73 9.43 9.43 0 00-.35 4.1l-.11-.05a1.9 1.9 0 00-2.54 1.2 1 1 0 00.81 1.17zm18.19 4.46a4.67 4.67 0 01-3-2.17 1.001 1.001 0 10-1.66 1.12 7.66 7.66 0 002.4 2.33 4.121 4.121 0 01-.45.08 1.37 1.37 0 00-1.06 1.21 6 6 0 00-2 0 4.58 4.58 0 00-2 1 3.5 3.5 0 01-2.11.87h-.26a3.5 3.5 0 01-2.11-.87 4.49 4.49 0 00-1.93-.95 6.27 6.27 0 00-2 0 1.39 1.39 0 00-1.07-1.21l-.45-.12a6.78 6.78 0 002.43-2.4 1 1 0 10-1.73-1 5.54 5.54 0 01-.45.62 4.24 4.24 0 01-2.55 1.49 1.23 1.23 0 00-1 1.24c0 .183.037.363.11.53.32.72 1.16 1.17 2.79 1.48v.12c0 .12.06.25.09.35a1.3 1.3 0 001.28 1 2.22 2.22 0 00.6-.09 4.57 4.57 0 011.59 0 3 3 0 011.12.61 5.44 5.44 0 003.42 1.15h.16a5.43 5.43 0 003.28-1.25 3 3 0 011.12-.61 4.08 4.08 0 011.58.06c.205.036.412.056.62.06a1.25 1.25 0 001.24-.92c0-.12.07-.24.1-.36v-.12c1.63-.31 2.47-.75 2.76-1.42a1.31 1.31 0 00.14-.51 1.25 1.25 0 00-1-1.32z"/></svg>