<svg xmlns="http://www.w3.org/2000/svg" viewBox="0 0 24 24"><path d="M12 13a1 1 0 01-1-1V9a1 1 0 012 0v3a1 1 0 01-1 1zm0 3a.99.99 0 01-1-1 1.05 1.05 0 01.29-.71 1.027 1.027 0 01.33-.21 1.002 1.002 0 011.09.21A1.052 1.052 0 0113 15a.99.99 0 01-1 1z"/><path d="M12 2a10.017 10.017 0 00-7 2.877V3a1 1 0 00-2 0v4.5a1 1 0 001 1h4.5a1 1 0 000-2H6.218A7.98 7.98 0 0120 12a1 1 0 002 0A10.011 10.011 0 0012 2zm8 13.5h-4.5a1 1 0 000 2h2.282A7.98 7.98 0 014 12a1 1 0 00-2 0 9.987 9.987 0 0017 7.123V21a1 1 0 002 0v-4.5a1 1 0 00-1-1z"/></svg>