<svg xmlns="http://www.w3.org/2000/svg" viewBox="0 0 1800 1800"><path d="M900 868.536c-113.664 0-206.139 92.473-206.139 206.145 0 72.752 38.923 140.217 100.683 177.107v167.979h210.914v-167.979c61.764-36.891 100.689-104.355 100.689-177.107-.001-113.672-92.478-206.145-206.147-206.145zm60.627 335.865l-18.129 8.493v143.914h-84.996v-143.914l-18.129-8.493c-50.148-23.487-82.554-74.403-82.554-129.721 0-78.952 64.232-143.185 143.181-143.185 78.952 0 143.189 64.232 143.189 143.185 0 55.318-32.407 106.234-82.562 129.721z"/><path d="M1306.793 621.365V406.939c-1.094-107.793-43.891-208.955-120.511-284.855C1109.604 46.13 1007.934 4.301 899.996 4.301c-107.933 0-209.604 41.83-286.273 117.788-76.617 75.896-119.413 177.057-120.507 285.166v112.333h62.958V407.571c1.898-187.646 156.137-340.313 343.822-340.313 187.696 0 341.942 152.667 343.839 339.996v214.11H192.564v474.124c1.906 187.453 76.336 363.382 209.578 495.369C535.485 1722.948 712.296 1795.7 900.004 1795.7c187.708 0 364.519-72.752 497.863-204.843 133.242-131.987 207.668-307.916 209.568-495.693V621.365h-300.642zm237.684 473.483c-3.561 351.735-292.671 637.894-644.472 637.894-351.796 0-640.912-286.158-644.482-637.577v-410.84h1288.955v410.523z"/></svg>