<svg xmlns="http://www.w3.org/2000/svg" viewBox="0 0 1800 1800"><path d="M1715.855 4.642H84.157c-43.845 0-79.514 35.665-79.514 79.501v1631.71c0 43.836 35.669 79.505 79.514 79.505h1631.698c43.837 0 79.502-35.669 79.502-79.505V84.143c0-43.836-35.665-79.501-79.502-79.501zm0 1727.835H84.157c-9.172 0-16.633-7.457-16.633-16.624v-197.206l588.122-588.126 571.393 571.401c6.141 6.136 14.186 9.207 22.234 9.207 8.044 0 16.093-3.071 22.233-9.207 12.276-12.281 12.276-32.187 0-44.468L677.878 863.827c-6.139-6.141-14.185-9.209-22.231-9.207-8.047-.002-16.093 3.068-22.231 9.207L67.524 1429.715V84.143c0-9.163 7.461-16.619 16.633-16.619h1631.698c9.164 0 16.62 7.456 16.62 16.619v1332.726l-553.04-553.041a31.485 31.485 0 00-7.611-5.612c-11.859-6.237-26.879-4.364-36.857 5.612l-123.512 123.521c-12.277 12.277-12.277 32.182.004 44.464 6.137 6.136 14.186 9.206 22.229 9.206s16.093-3.07 22.233-9.211L1157.2 930.525l571.393 571.397c1.219 1.215 2.531 2.28 3.882 3.255v210.676c.001 9.167-7.455 16.624-16.62 16.624z"/><path d="M1088.885 560.165c0-97.651-79.443-177.1-177.095-177.1-97.651 0-177.095 79.448-177.095 177.1S814.139 737.26 911.79 737.26s177.095-79.444 177.095-177.095zM911.79 674.379c-62.978 0-114.213-51.236-114.213-114.214 0-62.982 51.236-114.218 114.213-114.218s114.214 51.235 114.214 114.218c0 62.978-51.236 114.214-114.214 114.214z"/></svg>