<svg xmlns="http://www.w3.org/2000/svg" viewBox="0 0 1800 1800"><path d="M386.031 992.783c-36.026-8.398-72.354-12.654-107.972-12.654-140.65 0-250.633 66.393-273.68 165.215a31.57 31.57 0 0023.578 37.918l297.505 69.352a31.59 31.59 0 0023.841-3.938 31.56 31.56 0 0014.074-19.644l46.233-198.335c3.957-16.979-6.6-33.954-23.579-37.914zm-76.981 191.17l-231.384-53.941c30.558-52.924 106.292-86.74 200.393-86.74 20.648 0 41.61 1.66 62.629 4.959l-31.638 135.722zm460.246 206.43l-198.337 46.234a31.575 31.575 0 00-23.58 37.917l69.361 297.505a31.58 31.58 0 0037.917 23.578c63.591-14.834 114.127-64.375 142.315-139.501 26.523-70.695 30.157-156.691 10.236-242.15-3.958-16.98-20.919-27.538-37.912-23.583zm-99.33 331.855l-53.923-231.293 135.68-31.629c17.996 116.538-16.305 224.657-81.757 262.922z"/><path d="M1749.964 50.705l-.669-.67C1717.513 19.196 1674.71 3.56 1622.073 3.56c-141.686 0-344.219 115.18-542.012 300.716-155.688-31.738-309.056-47.237-468.317-47.237-143.357 0-276.743 12.425-388.313 24.576-13.887 1.516-25.129 11.972-27.64 25.713-2.509 13.742 4.31 27.501 16.765 33.822l575.578 292.233C677.958 774.113 589.367 902.18 528.54 1009.066c-96.224 169.086-117.785 276.479-65.928 328.311 18.338 18.348 43.994 27.654 76.256 27.654 147.394 0 431.964-200.379 627.669-353.3l292.295 575.701a31.582 31.582 0 0028.145 17.278c1.876 0 3.779-.167 5.682-.516 13.742-2.506 24.198-13.75 25.713-27.637 25.651-235.5 46.965-514.956-22.718-856.867 178.449-190.738 293.079-387.342 300.407-527.416 3.092-59.228-12.412-106.862-46.097-141.569zM825.871 581.728l-488.63-248.087c84.415-7.585 177.287-13.46 274.503-13.46 140.48 0 276.26 12.367 413.262 37.684-43.568 43.996-86.608 91.237-128.396 141.263a5943.96 5943.96 0 00-39.965 48.533l-30.774 34.067zm640.541 881.157l-248.149-488.758 34.531-31.193a5626.538 5626.538 0 0048.113-39.586c49.902-41.688 97.145-84.785 141.197-128.521 49.119 265.318 42.732 486.203 24.308 688.058zm266.591-1273.904c-6.84 130.833-127.706 327.336-309.389 514.582l-211.918 191.412c-309.505 252.092-564.693 406.916-672.828 406.916-14.9 0-25.53-3.08-31.608-9.162-7.184-7.18-37.279-53.1 76.157-252.43 71.101-124.937 181.572-280.174 321.064-451.4L1098.498 374.1c192.72-186.977 392.936-307.397 523.575-307.397 35.442 0 63.336 9.526 82.909 28.315 20.723 21.586 30.148 53.196 28.021 93.963z"/></svg>