<svg xmlns="http://www.w3.org/2000/svg" viewBox="0 0 1800 1800"><path d="M246.051 1796.104c-2.663 0-5.348-.336-7.992-1.025l-166.817-43.505a31.675 31.675 0 01-22.656-22.654L5.044 1562.08a31.673 31.673 0 018.251-30.397l101.307-101.312c.476-.544.968-1.069 1.481-1.587l668.3-668.298c-43.625-93.255-59.486-199.569-44.681-301.964 16.48-114 68.356-217.425 150.023-299.096C990.027 59.131 1123.381 3.896 1265.223 3.896c141.839 0 275.184 55.23 375.479 155.521 207.043 207.047 207.043 543.934 0 750.977-100.277 100.277-233.622 155.512-375.456 155.517-77.911.005-155.419-17.284-225.608-50.161l-198.6 198.589a31.671 31.671 0 01-19.45 9.14l-96.017 8.972-8.967 96.021a31.691 31.691 0 01-9.14 19.454l-.805.805a31.697 31.697 0 01-19.454 9.14l-96.02 8.967-8.965 96.018a31.692 31.692 0 01-9.184 19.498l-1.237 1.233a31.684 31.684 0 01-19.413 9.1l-95.584 8.927-8.925 95.58a31.688 31.688 0 01-9.144 19.459l-67.392 67.384a32.183 32.183 0 01-1.604 1.498l-101.283 101.289a31.678 31.678 0 01-22.403 9.28zm-140.853-101.153l131.287 34.242 90.004-90.012a32.101 32.101 0 011.598-1.494l57.77-57.762 10.304-110.354c1.417-15.167 13.429-27.18 28.596-28.598l96.718-9.034 9.069-97.144c1.416-15.168 13.429-27.18 28.596-28.599l96.753-9.038 9.038-96.755c1.419-15.163 13.427-27.176 28.594-28.594l110.792-10.351 206.612-206.602c9.797-9.802 24.846-12.091 37.114-5.652 66.53 34.905 141.635 53.353 217.198 53.348 124.917-.005 242.346-48.646 330.656-136.959 182.347-182.343 182.347-479.03 0-661.377-88.318-88.323-205.758-136.964-330.674-136.964-124.92 0-242.363 48.645-330.699 136.977-145.557 145.561-179.159 365.73-83.606 547.861 6.444 12.277 4.154 27.312-5.648 37.119l-682.855 682.847a31.542 31.542 0 01-1.479 1.586l-90.005 90.003 34.267 131.306z"/><path d="M1273.541 713.839c-48.809 0-94.691-19.008-129.203-53.524-71.242-71.242-71.246-187.168-.01-258.411 34.512-34.512 80.395-53.52 129.203-53.52s94.701 19.008 129.217 53.52c34.516 34.516 53.523 80.403 53.523 129.208 0 48.809-19.008 94.696-53.523 129.208-34.512 34.511-80.398 53.519-129.207 53.519zm-.01-302.097c-31.881 0-61.854 12.414-84.398 34.958-46.541 46.541-46.537 122.273.01 168.814 22.543 22.548 52.516 34.967 84.398 34.967 31.887 0 61.863-12.418 84.407-34.967 22.548-22.543 34.966-52.517 34.966-84.403 0-31.882-12.418-61.859-34.966-84.403-22.548-22.547-52.53-34.966-84.417-34.966z"/></svg>