<svg xmlns="http://www.w3.org/2000/svg" viewBox="0 0 1800 1800"><path d="M1717.649 2.667H82.359C38.418 2.667 2.67 38.411 2.67 82.343v1635.298c0 43.942 35.748 79.69 79.689 79.69h1635.29c43.933 0 79.681-35.748 79.681-79.69V82.343c0-43.932-35.748-79.676-79.681-79.676zm16.662 1714.975c0 9.188-7.474 16.671-16.661 16.671H82.359c-9.196 0-16.669-7.483-16.669-16.671V82.343c0-9.183 7.473-16.656 16.669-16.656h1635.29c9.188 0 16.661 7.473 16.661 16.656v1635.299z"/><path d="M1537.75 136.396H250.345c-47.159 0-85.527 38.368-85.527 85.527v249.08c0 47.159 38.368 85.527 85.527 85.527H1537.75c47.16 0 85.527-38.368 85.527-85.527v-249.08c0-47.16-38.367-85.527-85.527-85.527zm22.508 334.606c0 12.41-10.102 22.507-22.508 22.507H250.345c-12.414 0-22.507-10.098-22.507-22.507v-249.08c0-12.41 10.093-22.507 22.507-22.507H1537.75c12.406 0 22.508 10.097 22.508 22.507v249.08zm-22.508 145.546H250.345c-47.159 0-85.527 38.368-85.527 85.527v879.276c0 47.16 38.368 85.526 85.527 85.526H1537.75c47.16 0 85.527-38.366 85.527-85.526V702.076c0-47.16-38.367-85.528-85.527-85.528zm22.508 85.528v408.13h-634.7V679.568h612.192c12.406 0 22.508 10.098 22.508 22.508zM250.345 679.568h612.193v430.638h-634.7v-408.13c0-12.41 10.093-22.508 22.507-22.508zm-22.507 901.784v-408.126h634.7v430.633H250.345c-12.414-.001-22.507-10.093-22.507-22.507zm1309.912 22.506H925.558v-430.633h634.7v408.126c0 12.415-10.102 22.507-22.508 22.507z"/><path d="M416.941 932.025H514.1v97.154c0 17.403 14.111 31.511 31.51 31.511 17.408 0 31.51-14.107 31.51-31.511v-97.154h97.158c17.408 0 31.51-14.105 31.51-31.509s-14.102-31.51-31.51-31.51H577.12v-97.159c0-17.403-14.103-31.509-31.51-31.509-17.399 0-31.51 14.106-31.51 31.509v97.159h-97.159c-17.398 0-31.51 14.106-31.51 31.51s14.111 31.509 31.51 31.509zm172.645 450.139l68.7-68.7c12.309-12.304 12.309-32.258 0-44.561-12.3-12.305-32.257-12.305-44.561 0l-68.704 68.703-68.7-68.703c-12.304-12.305-32.257-12.305-44.562 0-12.304 12.303-12.304 32.257 0 44.561l68.7 68.7-68.7 68.698c-12.304 12.304-12.304 32.258 0 44.562 6.15 6.154 14.217 9.228 22.283 9.228 8.062 0 16.125-3.077 22.278-9.228l68.7-68.699 68.704 68.704c6.149 6.153 14.216 9.231 22.283 9.231a31.411 31.411 0 0022.278-9.231c12.309-12.304 12.309-32.257 0-44.562l-68.699-68.703zm526.244-450.139h257.338c17.407 0 31.51-14.105 31.51-31.509s-14.103-31.51-31.51-31.51H1115.83c-17.398 0-31.509 14.106-31.509 31.51s14.111 31.509 31.509 31.509zm257.338 377.738H1115.83c-17.398 0-31.509 14.11-31.509 31.511 0 17.407 14.11 31.51 31.509 31.51h257.338c17.407 0 31.51-14.103 31.51-31.51 0-17.401-14.103-31.511-31.51-31.511zm0 90.028H1115.83c-17.398 0-31.509 14.111-31.509 31.51 0 17.408 14.11 31.51 31.509 31.51h257.338c17.407 0 31.51-14.102 31.51-31.51 0-17.399-14.103-31.51-31.51-31.51z"/></svg>