<svg xmlns="http://www.w3.org/2000/svg" viewBox="0 0 1800 1800"><path d="M1216.338 1202.973H583.656c-17.222 0-31.189 13.963-31.189 31.188s13.967 31.188 31.189 31.188h632.682c17.229 0 31.188-13.963 31.188-31.188s-13.959-31.188-31.188-31.188zm0 175.253H583.656c-17.222 0-31.189 13.962-31.189 31.188s13.967 31.188 31.189 31.188h632.682c17.229 0 31.188-13.962 31.188-31.188s-13.959-31.188-31.188-31.188zm0 175.253H583.656c-17.222 0-31.189 13.963-31.189 31.188 0 17.227 13.967 31.189 31.189 31.189h632.682c17.229 0 31.188-13.963 31.188-31.189s-13.959-31.188-31.188-31.188z"/><path d="M1776.765 382.264L1411.048 16.547a31.191 31.191 0 00-22.051-9.133H98.754C52.076 7.414 14.1 45.39 14.1 92.068v1615.864c0 46.679 37.977 84.655 84.655 84.655h1602.494c46.678 0 84.654-37.977 84.654-84.655V404.319a31.21 31.21 0 00-9.138-22.055zM1300.992 69.791c12.287 0 22.277 9.994 22.277 22.277v408.423c0 12.283-9.99 22.277-22.277 22.277H499.001c-12.278 0-22.277-9.994-22.277-22.277V92.068c0-12.283 9.999-22.277 22.277-22.277h801.991zm-801.991 1660.42c-12.278 0-22.277-9.995-22.277-22.278v-651.991c0-12.283 9.999-22.277 22.277-22.277h801.991c12.287 0 22.277 9.994 22.277 22.277v651.991c0 12.283-9.99 22.278-22.277 22.278H499.001zm1224.524-22.278c0 12.283-9.999 22.278-22.277 22.278h-318.673c1.944-7.11 3.071-14.56 3.071-22.278v-651.991c0-46.679-37.976-84.655-84.654-84.655H499.001c-46.678 0-84.654 37.977-84.654 84.655v651.991c0 7.719 1.131 15.168 3.076 22.278H98.754c-12.288 0-22.278-9.995-22.278-22.278V92.068c0-12.283 9.99-22.277 22.278-22.277h318.668c-1.945 7.109-3.076 14.559-3.076 22.277v408.423c0 46.678 37.977 84.654 84.654 84.654h801.991c46.679 0 84.654-37.976 84.654-84.654V92.068c0-4.765-.487-9.407-1.249-13.958l339.128 339.127v1290.696z"/><path d="M1006.746 458.164h209.592c17.229 0 31.188-13.963 31.188-31.188v-262.88c0-17.226-13.959-31.188-31.188-31.188h-209.592c-17.23 0-31.188 13.962-31.188 31.188v262.879c0 17.226 13.958 31.189 31.188 31.189zm31.189-262.879h147.215v200.502h-147.215V195.285z"/></svg>