<svg xmlns="http://www.w3.org/2000/svg" viewBox="0 0 1800 1800"><path d="M1635.687 1278.4c-47.769 0-88.294 31.611-101.762 75.016h-145.789v-349.629h73.367c4.988.22 9.674.326 14.307.326a327.453 327.453 0 0015.054-.358c173.133-7.938 308.756-150.018 308.756-323.454 0-134.669-81.956-253.44-205.979-301.697-14.456-100.161-63.179-192.209-138.563-260.994-80.945-73.862-185.92-114.539-295.579-114.539-137.799 0-266.188 64.115-349.019 172.916-45.162-22.9-95.19-34.891-146.321-34.891-139.064 0-261.005 87.974-305.833 217.184a326.884 326.884 0 00-34.13-1.793C145.642 356.487.38 501.749.38 680.302c0 178.549 145.262 323.812 323.815 323.812 5.393 0 10.958-.146 16.592-.436a31.43 31.43 0 002.65.109h72.515v349.629h-145.79c-13.467-43.404-53.993-75.016-101.761-75.016-58.735 0-106.521 47.787-106.521 106.521 0 58.735 47.786 106.521 106.521 106.521 47.769 0 88.294-31.611 101.761-75.016h177.295c17.401 0 31.506-14.104 31.506-31.506v-381.135h194.534v586.93c-43.404 13.463-75.016 53.988-75.016 101.762 0 58.735 47.787 106.521 106.521 106.521s106.521-47.786 106.521-106.521c0-47.773-31.611-88.299-75.016-101.762v-586.93h331.067v586.93c-43.403 13.463-75.016 53.988-75.016 101.762 0 58.735 47.787 106.521 106.521 106.521 58.735 0 106.522-47.786 106.522-106.521 0-47.773-31.612-88.299-75.016-101.762v-586.93h194.534v381.135c0 17.401 14.104 31.506 31.506 31.506h177.295c13.468 43.404 53.993 75.016 101.762 75.016 58.735 0 106.521-47.786 106.521-106.521.005-58.733-47.781-106.521-106.516-106.521zM168.401 1428.432c-23.99 0-43.51-19.52-43.51-43.51s19.52-43.51 43.51-43.51 43.51 19.52 43.51 43.51-19.52 43.51-43.51 43.51zm536.603 307.556c-23.99 0-43.51-19.52-43.51-43.51s19.52-43.51 43.51-43.51 43.51 19.52 43.51 43.51-19.52 43.51-43.51 43.51zm394.079 0c-23.989 0-43.509-19.52-43.509-43.51s19.52-43.51 43.509-43.51c23.99 0 43.51 19.52 43.51 43.51s-19.52 43.51-43.51 43.51zM341.398 940.525a267.02 267.02 0 01-17.204.575c-143.807 0-260.803-116.996-260.803-260.799 0-143.807 116.996-260.803 260.803-260.803a263.21 263.21 0 0150.428 4.883c16.469 3.2 32.53-7.002 36.608-23.247 29.133-116.007 133.14-197.026 252.927-197.026 49.272 0 97.252 13.81 138.753 39.941 14.479 9.116 33.615 5.006 43.062-9.279 69.877-105.629 187.079-168.687 313.525-168.687 194.314 0 355.039 145.629 373.86 338.749a31.507 31.507 0 0021.783 26.961c108.539 34.626 181.467 134.493 181.467 248.509 0 139.628-109.119 254.017-248.452 260.5-.065 0-.127.005-.193.009-8.602.387-15.744.387-24.311 0a33.031 33.031 0 00-1.441-.035H347.895a31.407 31.407 0 00-6.497-.251zm1294.289 487.907c-23.99 0-43.51-19.52-43.51-43.51s19.52-43.51 43.51-43.51 43.51 19.52 43.51 43.51-19.52 43.51-43.51 43.51z"/></svg>