<svg xmlns="http://www.w3.org/2000/svg" viewBox="0 0 1800 1800"><path d="M1782.237 564.721L917.14 6.075a31.59 31.59 0 00-34.283 0L17.763 564.721a31.596 31.596 0 000 53.082L316.79 810.904c-.313 1.79-.506 3.619-.506 5.499v365.474c0 70.584 64.633 134.248 181.99 179.271 107.807 41.356 250.473 64.136 401.725 64.136s293.923-22.779 401.729-64.136c117.357-45.023 181.99-108.688 181.99-179.271V816.403c0-1.88-.193-3.708-.51-5.499l105.36-68.036v585.294c-32.948 12.732-56.419 44.662-56.419 82.047 0 36.23 22.017 67.401 53.364 80.881l-61.275 269.287a31.6 31.6 0 006.108 26.72 31.594 31.594 0 0024.696 11.883h130.325c17.449 0 31.594-14.14 31.594-31.594 0-3.271-.494-6.427-1.42-9.397l-60.732-266.898c31.348-13.479 53.362-44.65 53.362-80.881 0-37.385-23.469-69.314-56.417-82.047v-626.1l130.483-84.26c9.01-5.818 14.453-15.813 14.453-26.541s-5.443-20.723-14.453-26.541zm-162.077 870.312c-13.689 0-24.823-11.134-24.823-24.824 0-13.685 11.134-24.824 24.823-24.824s24.824 11.14 24.824 24.824c0 13.69-11.134 24.824-24.824 24.824zm-25.529 300.758l25.529-112.182 25.529 112.182h-51.058zm-174.102-553.914c0 85.244-213.773 180.219-520.531 180.219-306.753 0-520.527-94.975-520.527-180.219V851.38l503.386 325.071a31.545 31.545 0 0017.141 5.056 31.56 31.56 0 0017.142-5.056l503.39-325.071v330.497zm-520.531-69.575L93.142 591.261 899.998 70.223l806.86 521.039-806.86 521.04z"/><path d="M787.935 591.261c0 61.795 50.273 112.068 112.063 112.068 61.795 0 112.068-50.273 112.068-112.068 0-61.792-50.273-112.063-112.068-112.063-61.79 0-112.063 50.271-112.063 112.063zm160.943 0c0 26.953-21.927 48.88-48.88 48.88-26.952 0-48.876-21.927-48.876-48.88 0-26.95 21.924-48.876 48.876-48.876 26.953 0 48.88 21.926 48.88 48.876z"/></svg>