<svg xmlns="http://www.w3.org/2000/svg" viewBox="0 0 1800 1800"><path d="M147.558 1234.803c-42.809-95.198-67.328-198.696-71.438-306.137-8.405-219.555 69.194-429.247 218.505-590.444C443.93 177.034 647.075 83.629 866.635 75.225c211.431-8.08 413.71 63.609 572.343 202.278l-197.662 7.562c-17.369.667-30.911 15.281-30.248 32.652.649 16.967 14.604 30.272 31.43 30.272.41 0 .817 0 1.226-.018l272.117-10.417c.328.018.65.053.982.053.408 0 .817-.009 1.227-.026 17.37-.659 30.911-15.281 30.25-32.653l-10.448-273.207c-.664-17.372-15.474-30.875-32.655-30.25-17.371.666-30.914 15.286-30.25 32.657l7.561 197.786C1311.412 81.416 1092.766 3.566 864.228 12.322 627.864 21.37 409.175 121.919 248.439 295.444 87.704 468.98 4.167 694.718 13.213 931.072c4.426 115.696 30.878 227.107 76.989 329.604.922 3.539 2.406 6.85 4.399 9.802l.027.052.008-.009c5.748 8.44 15.431 13.99 26.408 13.99 17.631 0 31.911-14.289 31.911-31.914 0-6.587-1.999-12.7-5.416-17.784l.019-.01zm1562.301-695.284c-.75-2.45-1.817-4.76-3.104-6.921-.113-.245-.22-.491-.334-.737l-.083.053c-5.651-8.958-15.605-14.93-26.982-14.93-17.619 0-31.92 14.288-31.92 31.914 0 7.008 2.289 13.472 6.121 18.733 129.647 291.647 82.579 645.552-147.685 894.139-149.311 161.198-352.457 254.597-572.01 263.001-211.414 8.079-413.702-63.61-572.335-202.271l197.656-7.572c17.372-.667 30.914-15.279 30.25-32.65-.668-17.372-15.352-30.817-32.656-30.256l-272.366 10.426c-.654-.019-1.304-.054-1.967-.036-17.371.668-30.913 15.289-30.25 32.661l10.459 273.204c.65 16.967 14.604 30.272 31.432 30.272.408 0 .816-.009 1.225-.018 17.371-.667 30.913-15.289 30.25-32.66l-7.574-197.802c162.422 142.869 367.644 220.274 583.58 220.274 11.531 0 23.119-.228 34.702-.667 236.359-9.046 455.05-109.594 615.789-283.128 248.54-268.321 298.756-650.592 157.802-965.029z"/></svg>