<?xml version="1.0" encoding="UTF-8"?>
<svg width="16px" height="16px" viewBox="0 0 16 16" version="1.1" xmlns="http://www.w3.org/2000/svg" xmlns:xlink="http://www.w3.org/1999/xlink">
    <title>edit icon/color</title>
    <desc>Created with Sketch.</desc>
    <g id="edit-icon/color" stroke="none" stroke-width="1" fill="none" fill-rule="evenodd">
        <g id="释义_富文本编辑/color-16x16" fill="#293040">
            <path d="M5.64447006,8.66583547 L4.17597929,7.33216965 L6.15933183,5.11039074 L5.42508645,4.44355783 L9.39179153,1.0658141e-13 L16,6.00149616 L12.0332949,10.445054 L11.2990495,9.77822108 L9.31569698,12 L7.84720621,10.6663342 L6.69344476,11.9587937 L3.36400649,11.9587937 L3,11.6282074 L5.64447006,8.66583547 Z M5.57134219,7.25840959 L9.24256911,10.5925741 L10.5648041,9.11138818 L6.89357722,5.77722364 L5.57134219,7.25840959 Z M11.960167,9.03762811 L14.6046371,6.07525623 L9.4649194,1.40742588 L6.82044935,4.36979777 L11.960167,9.03762811 L11.960167,9.03762811 Z M0,14 L16,14 L16,16 L0,16 L0,14 Z" id="形状"></path>
        </g>
    </g>
</svg>