<?xml version="1.0" encoding="UTF-8"?>
<svg width="16px" height="16px" viewBox="0 0 16 16" version="1.1" xmlns="http://www.w3.org/2000/svg" xmlns:xlink="http://www.w3.org/1999/xlink">
    <title>edit icon/comment</title>
    <desc>Created with Sketch.</desc>
    <g id="edit-icon/comment" stroke="none" stroke-width="1" fill="none" fill-rule="evenodd">
        <g id="Group-27-Copy" transform="translate(0.000000, 1.000000)" fill="#293040" fill-rule="nonzero">
            <path d="M7.5,5 L7.5,3 L8.5,3 L8.5,5 L11,5 L11,6 L8.5,6 L8.5,8 L7.5,8 L7.5,6 L5,6 L5,5 L7.5,5 Z M6.59176944,9.99926758 L14,9.99926758 L14,1 L1.99902344,1 L1.99902344,9.99926758 L5,9.99926758 L5,11.5587819 L6.59176944,9.99926758 Z M0.999023438,10.9992676 L0.999023438,0 L15,0 L15,10.9992676 L7,10.9992676 L4,13.9384766 L4,10.9992676 L0.999023438,10.9992676 Z" id="形状结合"></path>
        </g>
    </g>
</svg>