<?xml version="1.0" encoding="UTF-8"?>
<svg width="16px" height="16px" viewBox="0 0 16 16" version="1.1" xmlns="http://www.w3.org/2000/svg" xmlns:xlink="http://www.w3.org/1999/xlink">
    <!-- Generator: Sketch 63 (92445) - https://sketch.com -->
    <title>editor-cut</title>
    <desc>Created with Sketch.</desc>
    <g id="editor-cut" stroke="none" stroke-width="1" fill="none" fill-rule="evenodd">
        <g fill="#293040" fill-rule="nonzero">
            <path d="M12.5105491,8.99 C14.1674033,8.99 15.5105491,10.3331458 15.5105491,11.99 C15.5105491,13.6468542 14.1674033,14.99 12.5105491,14.99 C10.8536949,14.99 9.51054906,13.6468542 9.51054906,11.99 C9.51312706,11.3062578 9.75154276,10.6443452 10.1855491,10.116 L8.03154906,7.46 L5.85554906,10.14 C6.82192036,11.3637475 6.69332426,13.122991 5.55927046,14.193203 C4.42521672,15.2634149 2.66147945,15.2899755 1.49571406,14.2543971 C0.329948682,13.2188187 0.148437102,11.4642452 1.07752109,10.2119535 C2.00660508,8.9596618 3.73842823,8.6246048 5.06754906,9.44 L7.35154906,6.625 L3.29854906,1.625 L4.14354906,0.99 L8.03154906,5.784 L11.8955491,1.023 L12.7395491,1.658 L8.71054906,6.621 L10.9815491,9.421 C11.442667,9.1412586 11.9712163,8.9922693 12.5105491,8.99 Z M3.51054906,9.99 C2.40597956,9.99 1.51054906,10.8854305 1.51054906,11.99 C1.51054906,13.0945695 2.40597956,13.99 3.51054906,13.99 C4.61511856,13.99 5.51054906,13.0945695 5.51054906,11.99 C5.51054906,10.8854305 4.61511856,9.99 3.51054906,9.99 Z M12.5105491,13.99 C13.6151186,13.99 14.5105491,13.0945695 14.5105491,11.99 C14.5105491,10.8854305 13.6151186,9.99 12.5105491,9.99 C11.4059796,9.99 10.5105491,10.8854305 10.5105491,11.99 C10.5105491,13.0945695 11.4059796,13.99 12.5105491,13.99 Z"></path>
        </g>
    </g>
</svg>