<svg xmlns="http://www.w3.org/2000/svg" viewBox="0 0 32 32"><path d="M22.485 25.985a1.5 1.5 0 01-1.061-2.56c4.094-4.094 4.094-10.755 0-14.849a1.5 1.5 0 112.121-2.121c2.55 2.55 3.954 5.94 3.954 9.546s-1.404 6.996-3.954 9.546a1.495 1.495 0 01-1.061.439zm-5.328-2.828a1.5 1.5 0 01-1.061-2.56 6.508 6.508 0 000-9.192 1.5 1.5 0 112.121-2.121c3.704 3.704 3.704 9.731 0 13.435a1.495 1.495 0 01-1.061.439zM13 30a1 1 0 01-.707-.293L4.586 22H1a1 1 0 01-1-1V11a1 1 0 011-1h3.586l7.707-7.707A1 1 0 0114 3v26a1.002 1.002 0 01-1 1z"/></svg>