<svg xmlns="http://www.w3.org/2000/svg" viewBox="0 0 1000 1000" width="1000" height="1000">
<path d="M500 73.6c6.600000000000023 18.60000000000001 12.700000000000045 35.2 18.600000000000023 51.80000000000001 29.100000000000023 82 58.39999999999998 163.9 87.29999999999995 245.9 1.8000000000000682 5.199999999999989 4.300000000000068 6.599999999999966 9.600000000000023 6.599999999999966 104.39999999999998-0.19999999999998863 208.79999999999995-0.19999999999998863 313.1-0.19999999999998863h8.799999999999955c-2.5 2.3000000000000114-3.8999999999999773 3.5-5.399999999999977 4.699999999999989-69.10000000000002 56.400000000000034-138.39999999999998 112.70000000000005-207.39999999999998 169.20000000000005-3.8999999999999773 3.199999999999932-6.100000000000023 3.199999999999932-10.200000000000045 0.2999999999999545-69.19999999999993-50.69999999999999-138.60000000000002-101.29999999999995-207.89999999999998-152-5.300000000000011-3.8999999999999773-8.5-3.599999999999966-13.699999999999989 0.20000000000004547l-206.5 151.29999999999995c-4.600000000000023 3.3999999999999773-7.300000000000011 3.3999999999999773-11.800000000000011-0.2999999999999545-68.69999999999999-56.200000000000045-137.7-112.20000000000005-206.5-168.20000000000005-1.5-1.1999999999999886-3-2.599999999999966-5.600000000000001-5h8.399999999999999c104.10000000000001 0 208.39999999999998-0.0999999999999659 312.5 0.20000000000004547 6 0 8.800000000000011-1.400000000000034 10.899999999999977-7.5 34.10000000000002-96.40000000000003 68.5-192.8 102.80000000000001-289.20000000000005 0.8000000000000114-1.9999999999999716 1.6000000000000227-3.8999999999999773 3-7.799999999999983z m245 740.9c-0.8999999999999773-3-2.7000000000000455-4.899999999999977-5.100000000000023-6.7999999999999545-78.39999999999998-59.80000000000007-156.79999999999995-119.70000000000005-235.09999999999997-179.70000000000005-3.900000000000034-2.8999999999999773-5.900000000000034-2.7000000000000455-9.600000000000023 0.10000000000002274-78.09999999999997 59.89999999999998-156.3 119.60000000000002-234.59999999999997 179.19999999999993-3.1000000000000227 2.400000000000091-4.900000000000034 4.900000000000091-6.000000000000028 8.600000000000023-7.199999999999989 24.200000000000045-14.5 48.30000000000007-21.900000000000006 72.5-3.6999999999999886 12.300000000000068-7.399999999999977 24.399999999999977-11.299999999999983 37 3.1999999999999886-0.39999999999997726 4.699999999999989-2.2999999999999545 6.400000000000006-3.6000000000000227 89.19999999999999-68 178.3-136 267.3-204.19999999999993 3.8999999999999773-2.8999999999999773 5.899999999999977-2.800000000000068 9.599999999999966 0.10000000000002274 66.09999999999997 50.69999999999993 132.40000000000003 101.09999999999991 198.50000000000006 151.69999999999993 24.59999999999991 18.700000000000045 49.09999999999991 37.5 74.79999999999995 57.10000000000002-0.2999999999999545-2.2999999999999545-0.2999999999999545-3.2000000000000455-0.39999999999997726-4-10.800000000000068-35.89999999999998-21.899999999999977-72-32.60000000000002-108z m-240.3-349.5c-3.8999999999999773-2.8999999999999773-5.899999999999977-2.6999999999999886-9.599999999999966 0.10000000000002274-58.200000000000045 44.5-116.40000000000003 89.19999999999993-174.70000000000005 133.60000000000002l-35.099999999999966 116.19999999999993 209.89999999999998-160.29999999999995c3.900000000000034-2.8999999999999773 5.900000000000034-2.800000000000068 9.600000000000023 0.10000000000002274 66.09999999999997 50.5 132.3 101.09999999999991 198.40000000000003 151.69999999999993l11.299999999999955 8.700000000000045-35.299999999999955-116.5c-58.30000000000007-44.5-116.40000000000009-89-174.50000000000006-133.60000000000002z m-219.39999999999998 250.10000000000002l0.0999999999999659-0.3000000000000682c-0.0999999999999659 0.10000000000002274-0.0999999999999659 0.20000000000004547-0.0999999999999659 0.3000000000000682z"/>
</svg>
