<svg xmlns="http://www.w3.org/2000/svg" viewBox="0 0 1000 1000" width="1000" height="1000">
<path d="M937.5 714.4c-2.2000000000000455 14.399999999999977-3.2999999999999545 29.100000000000023-7.600000000000023 43.200000000000045-22.799999999999955 75.19999999999993-72.60000000000002 123.79999999999995-147.60000000000002 144.79999999999995-107.69999999999993 30.100000000000023-220.5-24-270.79999999999995-127.69999999999993-12.300000000000011-25.5-19.100000000000023-52.40000000000009-23.399999999999977-80.20000000000005-12.900000000000034-82.70000000000005-76.60000000000002-149-158.70000000000005-164-82.79999999999998-15-163.7 28.5-193.09999999999997 104.70000000000005-25.60000000000001 66.5-1 142.39999999999998 57.69999999999999 176.69999999999993 49.099999999999994 28.700000000000045 109.5 21.300000000000068 145.60000000000002-17.799999999999955 26.599999999999966-28.800000000000068 33.19999999999999-70 16.5-102.70000000000005-14.900000000000034-29.199999999999932-46.80000000000001-44.89999999999998-75.20000000000005-36.5-16.69999999999999 5-28.299999999999983 15.399999999999977-31.799999999999983 33.200000000000045-1.5 7.5 0.30000000000001137 14.399999999999977 4.900000000000006 20.600000000000023 5.199999999999989 7 16.5 11.099999999999909 23.69999999999999 0.6999999999999318 4.699999999999989-6.899999999999977 12.699999999999989-7 19.600000000000023-1.2999999999999545 7.599999999999966 6.199999999999932 10.399999999999977 18.100000000000023 6.699999999999989 29.299999999999955-6.600000000000023 20.399999999999977-30.399999999999977 33.80000000000007-53.599999999999994 29.899999999999977-36.900000000000006-6-62.70000000000002-39-61.5-78.69999999999993 1.4000000000000057-46.89999999999998 37.69999999999999-87.70000000000005 85.6-96 64.60000000000002-11.200000000000045 126.80000000000001 28 146.8 92.5 21.30000000000001 68.5-8.300000000000011 143.60000000000002-71.69999999999999 181.89999999999998-68.10000000000002 41.10000000000002-157.50000000000003 32.299999999999955-216.8-21.100000000000023-52.70000000000002-47.39999999999998-75.70000000000002-107-69.00000000000001-176.60000000000002 8.799999999999997-93 75.00000000000001-169.69999999999993 164.7-195.49999999999994 54.60000000000002-15.699999999999989 108.30000000000001-12.600000000000023 161.10000000000002 7.899999999999977 56.89999999999998 22 113.5 22.400000000000034 168.19999999999993-5.300000000000011 59.40000000000009-30 95.20000000000005-78.69999999999999 102.20000000000005-145.2 9.200000000000045-87.1-46.799999999999955-158.1-120.70000000000005-174.6-65.89999999999998-14.699999999999989-133.19999999999993 21.099999999999994-153.59999999999997 82.9-14.599999999999966 44.39999999999998 0.30000000000001137 92.30000000000001 36.69999999999999 117.30000000000001 32.700000000000045 22.5 75.5 19.19999999999999 99.70000000000005-8 13.100000000000023-14.800000000000011 17.799999999999955-32 11.799999999999955-51.10000000000002-4.7999999999999545-15.399999999999977-18.299999999999955-24.599999999999966-32-23-11.299999999999955 1.3000000000000114-16.399999999999977 9.400000000000034-12.299999999999955 19.900000000000034 1.8999999999999773 4.7999999999999545 1.3999999999999773 9.099999999999966-1.8000000000000114 12.899999999999977-4.600000000000023 5.300000000000011-10.800000000000011 7.199999999999989-17.69999999999999 6.100000000000023-15.600000000000023-2.5-27.600000000000023-17.30000000000001-28.5-34.700000000000045-1.5-30.099999999999966 21.899999999999977-56.79999999999998 53.89999999999998-61.79999999999998 43.299999999999955-6.599999999999994 84.39999999999998 20.700000000000017 98.20000000000005 65.50000000000003 14.699999999999932 47.89999999999998-6.100000000000023 101.19999999999999-50.700000000000045 130.2-53.5 34.80000000000001-126.39999999999998 27-174.39999999999998-18.5-59.10000000000002-56.19999999999999-69-146.8-22.80000000000001-216.70000000000002 35.5-53.69999999999999 86.39999999999998-82 150.39999999999998-86.89999999999999 2.6000000000000227-0.20000000000000284 5.300000000000011 0 7.800000000000011-1.2999999999999972h10c3.1000000000000227 0.3999999999999915 6.2000000000000455 1 9.299999999999955 1.1999999999999886 61.90000000000009 4.800000000000011 112.40000000000009 31.80000000000001 151.20000000000005 79.80000000000001 70.89999999999998 87.79999999999998 66.10000000000002 217.79999999999998-10 303.20000000000005-16.5 18.5-36.60000000000002 33-54.200000000000045 50.19999999999993-64.39999999999998 62.700000000000045-78.29999999999995 161.9000000000001-33.299999999999955 238.20000000000005 38.5 65.39999999999998 115.39999999999998 98.39999999999998 186.10000000000002 80.20000000000005 75.69999999999993-19.5 122-91.20000000000005 107.89999999999998-161.70000000000005-11.799999999999955-59.10000000000002-64.60000000000002-99.70000000000005-120.70000000000005-92.29999999999995-43.09999999999991 5.699999999999932-76.89999999999998 41.39999999999998-74.09999999999991 83.59999999999991 1.599999999999909 24.100000000000023 18.299999999999955 45.5 40.59999999999991 50.700000000000045 15.300000000000068 3.5 31.100000000000023-3 36.700000000000045-15 4.7999999999999545-10.5 0.7000000000000455-19.700000000000045-9.799999999999955-21.700000000000045-10.300000000000068-1.8999999999999773-14.600000000000023-9.599999999999909-11-19.799999999999955 3.699999999999932-10.399999999999977 14.599999999999909-17.799999999999955 27.199999999999932-18.200000000000045 21.399999999999977-0.7999999999999545 41.60000000000002 14.5 48.39999999999998 37.60000000000002 8 27.300000000000068 0.6000000000000227 51.200000000000045-18.399999999999977 71.39999999999998-30.600000000000023 32.5-83.10000000000002 36.700000000000045-123 10.400000000000091-43.39999999999998-28.600000000000023-63-83.10000000000002-48.799999999999955-135.80000000000007 17.699999999999932-66 83.10000000000002-115 162.5-106.5 76.79999999999995 8.200000000000045 138.69999999999993 67.5 152.89999999999998 143.5 1.7999999999999545 10 1.7000000000000455 20.100000000000023 4.2000000000000455 30l-0.20000000000004547 16z"/>
</svg>
