<svg xmlns="http://www.w3.org/2000/svg" viewBox="0 0 1000 1000" width="1000" height="1000">
<path d="M118.2 636.3c9.5-51.299999999999955 37.3-90.39999999999998 79.10000000000001-120 44.79999999999998-31.799999999999955 95.69999999999999-48.19999999999993 149.2-57.89999999999998 12.399999999999977-2.2999999999999545 24.80000000000001-4.2999999999999545 37.39999999999998-5.7999999999999545 4.800000000000011-0.6000000000000227 7-1.7000000000000455 7-7-0.19999999999998863-37.30000000000001-0.19999999999998863-74.5 0-111.80000000000001 0-5.900000000000034-2.2999999999999545-7.300000000000011-7.699999999999989-7.199999999999989-20.599999999999966 0.2999999999999545-41.30000000000001 0.19999999999998863-61.89999999999998 0.0999999999999659-16.400000000000034-0.0999999999999659-27.19999999999999-9.599999999999966-27.5-23.80000000000001-0.30000000000001137-14.799999999999955 10.399999999999977-24.799999999999955 27.5-24.799999999999955 62.89999999999998-0.20000000000004547 125.80000000000001-0.20000000000004547 188.7 0 14.700000000000045 0 24.600000000000023 7.599999999999966 27.299999999999955 19.899999999999977 2.2000000000000455 9.800000000000011-3.7999999999999545 21-13.699999999999932 26.399999999999977-4.399999999999977 2.400000000000034-8.899999999999977 2.3000000000000114-13.600000000000023 2.400000000000034-20.30000000000001 0.0999999999999659-40.60000000000002 0.30000000000001137-60.89999999999998-0.10000000000002274-6.600000000000023-0.0999999999999659-9.300000000000011 1.1999999999999886-9.200000000000045 8.699999999999989 0.30000000000001137 36 0.20000000000004547 71.90000000000003 0.10000000000002274 107.80000000000001 0 3.8000000000000114 0.6999999999999886 7.199999999999989 2.1999999999999886 10.600000000000023 8.699999999999989 19.399999999999977 17.400000000000034 38.80000000000001 25.5 58.400000000000034 4.100000000000023 10 10.900000000000034 14.199999999999932 21.5 14.099999999999909 108.80000000000001-0.09999999999990905 217.7-0.09999999999990905 326.50000000000006-0.09999999999990905 13.799999999999955 0 17.799999999999955-3.1000000000000227 22.299999999999955-16.600000000000023 16.299999999999955-49.80000000000001 32.700000000000045-99.70000000000005 48.60000000000002-149.5 2.699999999999932-8.400000000000034 5.2999999999999545-9.200000000000045 11.699999999999932-3.7000000000000455 21.700000000000045 18.700000000000045 33.30000000000007 42.30000000000001 30.5 71.10000000000002-7.399999999999977 74.60000000000002-30.199999999999932 144.60000000000002-65.19999999999993 210.89999999999998-4 7.7000000000000455-8.800000000000068 9.700000000000045-17.100000000000023 9.700000000000045-119.79999999999995-0.3000000000000682-239.60000000000002-0.20000000000004547-359.4-0.20000000000004547-119.5 0-238.90000000000003-0.10000000000002274-358.5 0.20000000000004547-9.000000000000028-0.20000000000004547-12.500000000000028-0.8000000000000682-10.40000000000002-11.800000000000068z m357.90000000000003-185.99999999999994c5.2999999999999545 12.300000000000011 10.699999999999989 23.399999999999977 14.899999999999977 34.80000000000001 2.6000000000000227 7.199999999999989 6.600000000000023 9 14.100000000000023 9 65.19999999999993-0.30000000000001137 130.39999999999998-0.20000000000004547 195.60000000000002-0.20000000000004547 33.59999999999991 0 67.19999999999993 0 100.79999999999995 0.10000000000002274 4.5 0 8.100000000000023-0.10000000000002274 9.899999999999977-5.699999999999989 14.5-45.5 29.300000000000068-90.80000000000001 44.39999999999998-137.5-13.599999999999909 3.8000000000000114-21.799999999999955 9.800000000000011-31.59999999999991 23-16.90000000000009 22.69999999999999-33.90000000000009 45.19999999999999-50.30000000000007 68.19999999999999-4.600000000000023 6.600000000000023-9.600000000000023 8.5-17.299999999999955 8.399999999999977-89.5-0.2999999999999545-179-0.19999999999998863-268.5-0.19999999999998863l-12 0.10000000000002274z m428.4 205.49999999999994h-808.9c-18.200000000000017 0-33.10000000000002 14.900000000000091-33.10000000000002 33.10000000000002s14.900000000000006 33.10000000000002 33.099999999999994 33.10000000000002h808.9c18.200000000000045 0 33.10000000000002-14.899999999999977 33.10000000000002-33.10000000000002s-14.899999999999977-33.10000000000002-33.10000000000002-33.10000000000002z"/>
</svg>
