<svg xmlns="http://www.w3.org/2000/svg" viewBox="0 0 1000 1000" width="1000" height="1000">
<path d="M757 276.2l179.39999999999998 179.90000000000003v-359.8l-179.39999999999998 179.89999999999998z m153.5 210.90000000000003l-183.5-181.90000000000003-189.60000000000002 188.2 182.60000000000002 183.80000000000007 190.5-190.10000000000002z m-3-424.6h-813.4l406.7 405.4 406.7-405.4z m-843.9 33.8v813.4000000000001l405.29999999999995-406.70000000000005-405.29999999999995-406.7z m278 593.7h322.69999999999993l-161.29999999999995-160.89999999999998-161.39999999999998 160.89999999999998z m594.6999999999999 213v-381.70000000000005l-190.29999999999995 190.9000000000001 190.29999999999995 190.79999999999995z m-633.6999999999999-173.39999999999998l-213.40000000000003 207.89999999999998h370.40000000000003l208.29999999999995-207.89999999999998h-365.29999999999995z m216.89999999999998 206.39999999999998h381.79999999999995l-190.89999999999998-190.20000000000005-190.89999999999998 190.20000000000005z"/>
</svg>
