<svg xmlns="http://www.w3.org/2000/svg" viewBox="0 0 1000 1000" width="1000" height="1000">
<path d="M759.7 937.5h-418.1c0.19999999999998863-71.5 0.0999999999999659-143.10000000000002 0.5999999999999659-214.5 0.10000000000002274-9.5-4-14.700000000000045-11.099999999999966-19.899999999999977-44.400000000000034-32.89999999999998-88.20000000000002-66.39999999999998-132.70000000000002-99-10.099999999999994-7.399999999999977-15-14.800000000000068-14.700000000000017-27.700000000000045 0.8000000000000114-49.5 0.10000000000002274-99.09999999999997 0.4000000000000057-148.7 0.4000000000000057-72.19999999999999 48.099999999999994-120.59999999999997 120.1-121.5 50.19999999999999-0.5999999999999659 100.40000000000003 0.4000000000000341 150.60000000000002-0.39999999999997726 14.399999999999977-0.30000000000001137 16.599999999999966 5.199999999999989 15.199999999999989 17.80000000000001-5.800000000000011 52-54.5 95.59999999999997-110.39999999999998 97.69999999999999-15.700000000000045 0.5999999999999659-31.30000000000001 0.30000000000001137-47.10000000000002 0.0999999999999659-7.699999999999989-0.0999999999999659-15.100000000000023 0.9000000000000341-12.899999999999977 10.800000000000011 3.7999999999999545 16.400000000000034-11.800000000000011 42.5 8.799999999999955 48.10000000000002 49.60000000000002 13.399999999999977 101.30000000000001 19.099999999999966 151.8 29.399999999999977 24.900000000000034 5.099999999999966 50.80000000000001 8.900000000000034 72.69999999999999 23.400000000000034 41.80000000000007 27.799999999999955 65.39999999999998 66.89999999999998 67.5 117.39999999999998 0.39999999999997726 11.100000000000023 3.1000000000000227 15.200000000000045 14.899999999999977 15.399999999999977 13.200000000000045 0.20000000000004547 13.600000000000023-6.600000000000023 13.5-16.5-0.6999999999999318-45-18.699999999999932-82.10000000000002-48.5-115-38.69999999999993-42.799999999999955-91.29999999999995-50.19999999999999-143.49999999999994-59.799999999999955-35.30000000000001-6.600000000000023-105.5 19.899999999999977-110.5-20.400000000000034-1.8000000000000114-14.5 22.80000000000001-4.099999999999966 31.80000000000001-4.399999999999977 43.89999999999998-1.1999999999999886 81.29999999999995-17.5 108.09999999999997-52.10000000000002 15.699999999999989-20.19999999999999 28.900000000000034-41.39999999999998 54.900000000000034-50.099999999999966 4.899999999999977-1.7000000000000455 9.600000000000023-6.5 12.699999999999932-10.900000000000034 7.300000000000068-10.800000000000011 11.700000000000045-7.399999999999977 19.5 0.4000000000000341 36 36.299999999999955 88.40000000000009 36.19999999999999 123.90000000000009-0.4000000000000341 8.599999999999909-8.899999999999977 11.699999999999932-7.899999999999977 19.59999999999991 0.4000000000000341 28.800000000000068 29.799999999999955 68.90000000000009 35 105 15.099999999999966 4.100000000000023-2.3000000000000114 7.400000000000091-7.199999999999989 14.400000000000091-4.599999999999966 0 101.89999999999998-0.10000000000002274 204.10000000000002 0.1999999999999318 306.29999999999995 0 8.800000000000068-3.699999999999932 11.100000000000023-11.699999999999932 13.100000000000023-27.800000000000068 6.7000000000000455-45 25.899999999999977-45.10000000000002 52.700000000000045-0.8999999999999773 72.29999999999995-0.20000000000004547 145.0999999999999 0.10000000000002274 217.79999999999995z m-87.20000000000005-735.9c0 24.399999999999977 0.39999999999997726 48.79999999999998-0.10000000000002274 73.19999999999999-0.6999999999999318 34.39999999999998-25 59.5-57 59.89999999999998-32 0.4000000000000341-57.19999999999993-24.19999999999999-57.799999999999955-58.89999999999998-1-50.70000000000002-0.7000000000000455-101.4-0.10000000000002274-152.20000000000002 0.2999999999999545-21.69999999999999 11.299999999999955-32.19999999999999 32.60000000000002-32.89999999999999 16.899999999999977-0.6000000000000085 33.89999999999998-0.6000000000000085 50.799999999999955 0 20.200000000000045 0.7999999999999972 31.100000000000023 11.599999999999994 31.700000000000045 31.89999999999999 0.5 26.400000000000006-0.10000000000002274 52.70000000000002-0.10000000000002274 79z m-170.8 123.79999999999995c-3.8000000000000114 1.3000000000000114-2-4.599999999999966-2-5.7999999999999545-0.8999999999999773-41.80000000000001-0.8999999999999773-41.80000000000001-43.69999999999999-41.80000000000001-42.39999999999998 0-42.39999999999998 0-42.39999999999998-42 0-45.10000000000002-0.20000000000004547-90.20000000000002 0.0999999999999659-135.4 0.10000000000002274-28.10000000000001 9.5-37.50000000000001 37-37.7 15.699999999999989-0.20000000000000284 31.30000000000001-0.4000000000000057 47 0.19999999999999574 20.000000000000057 0.7000000000000028 30.900000000000034 10.500000000000007 31.099999999999966 30.000000000000007 0.5 62 0.6000000000000227 124.1-0.09999999999990905 186.1-0.20000000000004547 18.899999999999977-6.5 40.10000000000002-27.000000000000057 46.39999999999998z m314.3-96.49999999999997c0 16.299999999999983 0.5 32.599999999999994-0.10000000000002274 48.900000000000006-1.1999999999999318 31.899999999999977-25.699999999999932 56.30000000000001-56.299999999999955 56.89999999999998-30.100000000000023 0.6000000000000227-55.700000000000045-21.5-57.39999999999998-53-1.8000000000000682-34.39999999999998-1.400000000000091-69-0.6000000000000227-103.5 0.39999999999997726-18.899999999999977 10.899999999999977-28.69999999999999 29.799999999999955-29.599999999999994 18.200000000000045-0.9000000000000057 36.39999999999998-0.9000000000000057 54.60000000000002 0 19.5 0.9000000000000057 29.399999999999977 11.599999999999994 30 31.400000000000006 0.39999999999997726 16.30000000000001 0 32.599999999999994 0 48.900000000000006z m-545.7-20.900000000000006c5.684341886080802e-14-18.80000000000001-0.39999999999997726-37.599999999999994 0.10000000000002274-56.400000000000006 0.5-20.5 11.100000000000023-31.099999999999994 31.600000000000023-31.599999999999994 17.600000000000023-0.4000000000000057 35.10000000000002-0.4000000000000057 52.69999999999999 0 18.600000000000023 0.5 29.900000000000034 10.400000000000006 30.400000000000034 28.900000000000006 1 38.900000000000006 0.19999999999998863 77.79999999999998 0.5999999999999659 116.6 0.10000000000002274 10.399999999999977-4.899999999999977 12.399999999999977-14 12.399999999999977-30.099999999999966-0.0999999999999659-60.19999999999999-0.0999999999999659-90.30000000000001 0.9000000000000341-10.099999999999966 0.39999999999997726-11.299999999999955-4.400000000000034-11.199999999999989-12.300000000000011 0.30000000000001137-19.599999999999994 0.10000000000002274-39.099999999999994 0.10000000000002274-58.5z"/>
</svg>
