<svg xmlns="http://www.w3.org/2000/svg" viewBox="0 0 1000 1000" width="1000" height="1000">
<path d="M885.6 188.5c-19.100000000000023-10.800000000000011-41.5-16.400000000000006-66.60000000000002-16.400000000000006-55.60000000000002 0-126.39999999999998 27.30000000000001-210.5 81.20000000000002-60.299999999999955 38.599999999999966-105.19999999999999 76.69999999999999-107 78.39999999999998l-1.6000000000000227 1.3000000000000114-1.599999999999966-1.3000000000000114c-1.900000000000034-1.599999999999966-46.69999999999999-39.69999999999999-107-78.39999999999998-84.10000000000002-53.80000000000001-154.9-81.20000000000002-210.5-81.20000000000002-25 0-47.400000000000006 5.5-66.60000000000001 16.400000000000006-26.5 15.099999999999994-57 46.5-50.900000000000006 110.19999999999999 3.5 36.69999999999999 18.10000000000001 77.60000000000002 32.2 117.10000000000002 9.400000000000006 26.099999999999966 18.900000000000006 52.599999999999966 24.700000000000003 76.69999999999999 59.39999999999999-163.10000000000002 310.5-108.19999999999999 310.5-108.19999999999999-163.89999999999998 174.3-251.29999999999998 98.59999999999997-256.79999999999995 81.39999999999998-12.200000000000045 13.800000000000011-25.600000000000023 35.19999999999999-32.80000000000004 48.900000000000034 52.900000000000006 83 164.79999999999998 51 224.4 12.100000000000023 28-18.300000000000068 53.5-39.00000000000006 75.69999999999999-61.200000000000045l1.3000000000000114 3c-3.1000000000000227 3.6000000000000227-6 7.300000000000011-8.800000000000011 10.800000000000011-16.399999999999977 19.899999999999977-32.30000000000001 41.30000000000001-47.39999999999998 63.400000000000034-12.400000000000034 18.199999999999932-23.400000000000034 35.19999999999993-33.5 51.799999999999955-12.400000000000034 20.399999999999977-25.19999999999999 43-39 69.39999999999998-8.800000000000011 16.700000000000045-17.5 34.30000000000007-26.400000000000034 53.700000000000045-6.5 14.100000000000023-12.299999999999955 28.699999999999932-17.899999999999977 42.799999999999955l-4.100000000000023 10.300000000000068-9.999999999999972 24.799999999999955 98.99999999999997-66.10000000000002 67.60000000000002 98.60000000000002 0.19999999999998863-26.299999999999955 0.19999999999998863-24.700000000000045 0.10000000000002274-13.700000000000045c0.10000000000002274-13.199999999999932 1.3000000000000114-26.899999999999977 2.3999999999999773-40.09999999999991l0.5-5.900000000000091 0.30000000000001137-4.199999999999932c2.400000000000034-22.700000000000045 5.199999999999989-46.700000000000045 8.699999999999989-70.60000000000002 3-19.899999999999977 6.800000000000011-40.5 11.400000000000034-61.200000000000045 5.399999999999977-24.199999999999932 11.399999999999977-49.89999999999998 19.19999999999999-74.49999999999994l3.1000000000000227-9.699999999999989 0.7999999999999545-2.6000000000000227c6.7000000000000455 3.1000000000000227 14.300000000000011 4.800000000000011 22.200000000000045 4.800000000000011h17.799999999999955c8 0 15.5-1.6999999999999886 22.200000000000045-4.800000000000011 0.2999999999999545 0.8999999999999773 0.5 1.6999999999999886 0.8999999999999773 2.6999999999999886l3.1000000000000227 9.699999999999989c7.899999999999977 24.399999999999977 13.799999999999955 50.10000000000002 19.199999999999932 74.5 4.600000000000023 20.600000000000023 8.5 41.10000000000002 11.400000000000091 61.200000000000045 3.5 23.799999999999955 6.2999999999999545 47.89999999999998 8.699999999999932 70.69999999999993l0.3000000000000682 4 0.5 5.900000000000091c1.099999999999909 13.099999999999909 2.2999999999999545 26.799999999999955 2.3999999999999773 40l0.10000000000002274 14c0.09999999999990905 8.099999999999909 0.1999999999999318 16.299999999999955 0.1999999999999318 24.399999999999977l0.20000000000004547 26.299999999999955 67.60000000000002-98.60000000000002 99.19999999999993 66.20000000000005-10-24.799999999999955c-1.3999999999999773-3.400000000000091-2.7999999999999545-6.900000000000091-4.100000000000023-10.300000000000068-5.599999999999909-14.100000000000023-11.5-28.699999999999932-17.899999999999977-42.799999999999955-8.899999999999977-19.399999999999977-17.600000000000023-37-26.399999999999977-53.89999999999998-13.799999999999955-26.200000000000045-26.600000000000023-48.90000000000009-39-69.40000000000009-10.100000000000023-16.5-21-33.5-33.5-51.799999999999955-15-22-31-43.39999999999998-47.299999999999955-63.39999999999998-2.900000000000091-3.5-5.900000000000091-7.100000000000023-8.800000000000068-10.800000000000011l1.3000000000000682-3c22.09999999999991 22.099999999999966 47.5 42.89999999999998 75.59999999999991 61.19999999999999 59.700000000000045 38.89999999999998 171.4000000000001 71 224.4000000000001-12.100000000000023-7.2000000000000455-13.799999999999955-20.700000000000045-35.19999999999999-32.80000000000007-48.89999999999998-5.5 17.100000000000023-92.79999999999995 92.89999999999998-256.79999999999995-81.39999999999998 0 0 251-54.900000000000034 310.5 108.19999999999999 5.7999999999999545-24 15.299999999999955-50.60000000000002 24.699999999999932-76.69999999999999 14.200000000000045-39.5 28.800000000000068-80.30000000000001 32.30000000000007-117.10000000000002 5.5-63.400000000000006-24.899999999999977-94.80000000000001-51.5-110z m-323.9 245.60000000000002c-5.100000000000023-24.5-26.800000000000068-42.900000000000034-52.80000000000007-42.900000000000034h-17.799999999999955c-26 0-47.700000000000045 18.400000000000034-52.80000000000001 42.900000000000034-0.6999999999999886-3.5-1.1000000000000227-7.100000000000023-1.1000000000000227-10.800000000000011 0-29.69999999999999 24.100000000000023-53.900000000000034 53.900000000000034-53.900000000000034h17.799999999999955c29.700000000000045 0 53.89999999999998 24.100000000000023 53.89999999999998 53.900000000000034 0 3.6999999999999886-0.39999999999997726 7.300000000000011-1.099999999999909 10.800000000000011z"/>
</svg>
