<svg xmlns="http://www.w3.org/2000/svg" viewBox="0 0 1000 1000" width="1000" height="1000">
<path d="M898.5 297c-0.7999999999999545-25.69999999999999-4.2999999999999545-51-10-76.1-2.5-11.200000000000017-7.7999999999999545-21.30000000000001-13.100000000000023-31.400000000000006-16.199999999999932-30.30000000000001-38.19999999999993-55.599999999999994-64-77.9-30.399999999999977-26.19999999999999-64.39999999999998-46.599999999999994-100.89999999999998-62.89999999999999-41.700000000000045-18.6-85.10000000000002-31.500000000000004-130.10000000000002-39.400000000000006-5.100000000000023-0.8999999999999968-10.199999999999932-1.6999999999999975-15.299999999999955-2.4999999999999973l-30.5 31.3 50.89999999999998 24.699999999999996-191 108.8 96.19999999999999-104.39999999999999-66.19999999999999-32.1 24.80000000000001-33.7c-33.5 2.0000000000000013-66.5 6.900000000000002-99 15.600000000000001-47.5 12.600000000000001-91.60000000000002 32.3-131.20000000000002 61.599999999999994-48.099999999999994 35.7-83.29999999999998 81.20000000000002-106.19999999999999 136.4-5.300000000000011 12.800000000000011-8.100000000000009 26.19999999999999-9.700000000000003 39.900000000000006-0.6000000000000085 4.799999999999983-0.9000000000000057 9.700000000000017-1.4000000000000057 14.499999999999972-0.20000000000000284 1.6000000000000227-0.7000000000000028 3.2000000000000455-1.0999999999999943 4.800000000000011v28.30000000000001c0.5 3 1.2999999999999972 6 1.3999999999999915 9 2.8000000000000114 41.39999999999998 10.400000000000006 81.80000000000001 22.700000000000003 121.5 0.4000000000000057 1.3000000000000114 0.9000000000000057 2.6000000000000227 1.2999999999999972 4 1.8000000000000114 6.699999999999989 5 12 10.900000000000006 16.399999999999977 10.699999999999989 8 17.5 19.30000000000001 22.80000000000001 31.30000000000001 4 9 7.299999999999983 18.30000000000001 10.899999999999977 27.400000000000034 0.9000000000000057 2.3999999999999773 1.700000000000017 5 2.8000000000000114 7.399999999999977 5.199999999999989 10.899999999999977 5.199999999999989 22.200000000000045 3.4000000000000057 33.799999999999955-2.700000000000017 16.800000000000068-8.099999999999994 32.80000000000007-13.400000000000006 48.90000000000009-4 12.299999999999955-7.800000000000011 24.59999999999991-11.5 36.89999999999998-2.1999999999999886 7.399999999999977-2.6999999999999886 15-1.8000000000000114 22.699999999999932 0.9000000000000057 7.800000000000068 1.5 15.700000000000045 3 23.5 0.8000000000000114 4.400000000000091 2.6000000000000227 8.800000000000068 4.600000000000023 12.900000000000091 3.3999999999999773 7 9.299999999999983 11.5 17 12.799999999999955 13.5 2.2999999999999545 27.099999999999994 2.7000000000000455 40.5-0.5 4.899999999999977-1.1000000000000227 9.5-3 12.5-7.5 0.8999999999999773-1.2999999999999545 3-2.2000000000000455 4.599999999999994-2.3999999999999773 6-0.8999999999999773 12.099999999999994-1.8000000000000682 18.19999999999999-2 17.50000000000003-0.39999999999997726 34.599999999999994 1.6000000000000227 51.00000000000003 7.899999999999977 6.899999999999977 2.6000000000000227 13.399999999999977 6.2000000000000455 18.69999999999999 11.5 5 5 8.099999999999966 10.899999999999977 8.399999999999977 18 0.10000000000002274 1.7999999999999545-0.5 3.7999999999999545-1.099999999999966 5.600000000000023-1.3000000000000114 4.199999999999932-3.3000000000000114 8.299999999999955-4.2000000000000455 12.600000000000023-2.099999999999966 10.299999999999955 3.2000000000000455 17.399999999999977 13.5 18.899999999999977 7.600000000000023 1.1000000000000227 9.300000000000011 0 10.800000000000011-7.600000000000023 1.1000000000000227-5.399999999999977 1.5-11 2.6999999999999886-16.399999999999977 0.8000000000000114-3.800000000000068 1.900000000000034-7.5 3.400000000000034-11 1.1999999999999886-2.8999999999999773 3.6999999999999886-4.800000000000068 6.899999999999977-5.600000000000023 3.900000000000034-1 7 0.7999999999999545 7.800000000000011 4.7000000000000455 1.8000000000000114 8.299999999999955 2.6000000000000227 16.799999999999955 1.6999999999999886 25.199999999999932-0.30000000000001137 2.7000000000000455-1.3000000000000114 5.399999999999977-2.8000000000000114 7.7000000000000455-2.8999999999999773 4.7999999999999545-3.1999999999999886 9.899999999999977-3.1999999999999886 15.199999999999932 0 2.5 1.1999999999999886 4.300000000000068 3.5 5.2000000000000455 1.900000000000034 0.7999999999999545 3.900000000000034 1.3999999999999773 6 1.7999999999999545 5.300000000000011 1 10 3 14.400000000000034 6.2000000000000455 2.6999999999999886 2 5.5 3.7999999999999545 8.299999999999955 5.5 4 2.5 8.400000000000034 3.6000000000000227 13.100000000000023 3.2000000000000455 3.5-0.3000000000000682 4.399999999999977-0.7000000000000455 5.100000000000023-4.300000000000068 0.7999999999999545-3.8999999999999773 1.099999999999966-8 1.3999999999999773-12 0.39999999999997726-4.7999999999999545 0.5-9.699999999999932 1-14.5 0.19999999999998863-2.2999999999999545 0.6000000000000227-4.699999999999932 1.5-6.899999999999977 0.8000000000000114-2 2.1000000000000227-4 3.6999999999999886-5.2999999999999545 3.3000000000000114-2.800000000000068 7.900000000000034-1.8000000000000682 9.800000000000011 2.099999999999909 0.8999999999999773 1.8000000000000682 1.5 4 1.5 6 0.10000000000002274 3.900000000000091-0.30000000000001137 7.800000000000068-0.5 11.600000000000023-0.19999999999998863 3.6000000000000227-0.8000000000000114 7.100000000000023 0.8000000000000114 10.600000000000023 4.300000000000011 9.600000000000023 12.899999999999977 13.899999999999977 23.099999999999966 11.399999999999977 2-0.5 4-1.2999999999999545 5.900000000000034-2.1000000000000227 6.899999999999977-3 11-7.899999999999977 11.599999999999966-15.699999999999932 0.8000000000000114-11.200000000000045 2.1000000000000227-22.399999999999977 3.3000000000000114-33.5 0.19999999999998863-2 0.8000000000000114-3.8999999999999773 1.1999999999999886-5.899999999999977 2.7000000000000455 0.09999999999990905 3.2000000000000455 1.8999999999999773 3.7000000000000455 3.2999999999999545 1.5 4.399999999999977 2.7999999999999545 9 4.099999999999966 13.5 0.5 1.6000000000000227 0.8000000000000114 3 2.3000000000000114 4.2000000000000455 1 0.6999999999999318 1.5 2.2999999999999545 2 3.5 3.6000000000000227 8.299999999999955 6.300000000000011 16.899999999999977 7 26 0.30000000000001137 4.099999999999909 2.3999999999999773 6 5.800000000000011 7.099999999999909 5.599999999999966 1.8000000000000682 11.199999999999989 1.5 16.900000000000034 0.40000000000009095 4.399999999999977-0.8000000000000682 8.599999999999909-2.300000000000068 12.199999999999932-5 6-4.300000000000068 7.800000000000068-9.800000000000068 5.399999999999977-16.800000000000068-0.5-1.5-0.8999999999999773-3-1.2999999999999545-4.7999999999999545 2.8999999999999773-0.8999999999999773 4.7000000000000455 0.6000000000000227 6.7000000000000455 1.2999999999999545 1.8999999999999773 0.6000000000000227 3.8999999999999773 1.3000000000000682 6.199999999999932 2.1000000000000227l1.6000000000000227 3.2000000000000455c4.7000000000000455 9.199999999999932 12.200000000000045 14.5 22.200000000000045 16.5 6.599999999999909 1.2999999999999545 11.399999999999977-1.2000000000000455 13.299999999999955-7.5 1.1000000000000227-3.7000000000000455 1.7000000000000455-7.600000000000023 1.8999999999999773-11.400000000000091 0.20000000000004547-7.099999999999909 0-14.099999999999909-0.10000000000002274-21.199999999999932-0.09999999999990905-6.100000000000023 0.900000000000091-12 3.7000000000000455-17.300000000000068 1.5-2.8999999999999773 3.6000000000000227-5.699999999999932 6-7.899999999999977 4-3.6000000000000227 8.399999999999977-2.699999999999932 11.299999999999955 1.8999999999999773 3 4.7000000000000455 3.7000000000000455 10.100000000000023 4.2000000000000455 15.5l0.8999999999999773 14.5c0.3000000000000682 4.100000000000023 1.5 7.900000000000091 3.6000000000000227 11.400000000000091 3.7000000000000455 6.099999999999909 9.200000000000045 8.899999999999977 16.200000000000045 7.7999999999999545 12.399999999999977-2 20.799999999999955-9.200000000000045 25.699999999999932-20.600000000000023 1.7000000000000455-4.100000000000023 1.8000000000000682-8.399999999999977 0.6000000000000227-12.699999999999932l-3.7000000000000455-12.800000000000068c-1.6999999999999318-6.100000000000023-0.8999999999999773-11.699999999999932 2.7000000000000455-17.100000000000023 4.5-6.7999999999999545 10.100000000000023-12.5 16.799999999999955-17.199999999999932 12.100000000000023-8.5 25.700000000000045-13.5 40.10000000000002-16.700000000000045 6.100000000000023-1.2999999999999545 12.200000000000045-3.1000000000000227 18.5-1.6999999999999318 4.300000000000068 1 8.600000000000023 2.199999999999932 12.700000000000045 3.8999999999999773 6.199999999999932 2.5 12.100000000000023 5.5 18.199999999999932 8.100000000000023 3.300000000000068 1.3999999999999773 6.7000000000000455 2.599999999999909 10.200000000000045 3.3999999999999773 4.7999999999999545 1.1000000000000227 9.700000000000045 1.1999999999999318 14.299999999999955-0.8999999999999773 7.100000000000023-3.1000000000000227 14.200000000000045-6.2000000000000455 21.200000000000045-9.600000000000023 3.3999999999999773-1.7000000000000455 6.7999999999999545-3.8999999999999773 9.700000000000045-6.300000000000068 6.2999999999999545-5.2999999999999545 7.599999999999909-10.699999999999932 5.099999999999909-18.59999999999991-5-15.700000000000045-10.199999999999932-31.40000000000009-14.799999999999955-47.200000000000045-4.5-15.600000000000023-7.399999999999977-31.5-8.200000000000045-47.89999999999998-0.8999999999999773-19 2.7000000000000455-37.200000000000045 8.700000000000045-55 0.20000000000004547-0.5 0.39999999999997726-1 0.7000000000000455-1.5 6-10.900000000000034 9.799999999999955-22.600000000000023 13.399999999999977-34.400000000000034 1-3.3000000000000114 2.199999999999932-6.599999999999966 3.3999999999999773-9.800000000000011 3.8999999999999773-10.299999999999955 10.299999999999955-18.899999999999977 19.899999999999977-24.399999999999977 20.100000000000023-11.5 31.600000000000023-29.399999999999977 38.89999999999998-50.5 4.900000000000091-14.399999999999977 7.800000000000068-29.19999999999999 9.300000000000068-44.30000000000001 0.5-5.5 0.6000000000000227-11.099999999999966 1-16.599999999999966 0.10000000000002274-1.5 0.39999999999997726-3 0.6999999999999318-4.5v-30.80000000000001c-0.7999999999999545-2.1999999999999886-1.1999999999999318-4.199999999999989-1.2999999999999545-6.300000000000011z m-476.3 212.60000000000002c-19.899999999999977 20.399999999999977-44.30000000000001 32.5-72.19999999999999 37.39999999999998-27.600000000000023 4.7999999999999545-54.69999999999999 2.2999999999999545-81.19999999999999-6.2000000000000455-26.600000000000023-8.5-42.80000000000001-27.5-49.70000000000002-54.099999999999966-5.099999999999994-19.69999999999999-3.6999999999999886-39.099999999999966 4.800000000000011-57.599999999999966 8.900000000000006-19.5 23.599999999999994-32.200000000000045 44.99999999999997-36.400000000000034 3-0.5999999999999659 6-1 9.100000000000023-1.099999999999966 7.600000000000023-0.30000000000001137 15.199999999999989-0.5 22-0.7000000000000455 20.5 0 39.89999999999998 1.2000000000000455 58.89999999999998 6.2000000000000455 11.600000000000023 3 22.600000000000023 7.399999999999977 33 13.5 11.600000000000023 6.899999999999977 23 13.899999999999977 33.5 22.5 5.5 4.5 10.600000000000023 9.299999999999955 14.900000000000034 15 8.099999999999966 10.899999999999977 9.099999999999966 22.299999999999955 2.8999999999999773 34.299999999999955-5.399999999999977 10.200000000000045-12.899999999999977 19-21 27.200000000000045z m127.19999999999999 123.79999999999995c-3.7999999999999545 0.10000000000002274-7.7999999999999545-0.39999999999997726-11.5-1.2999999999999545-6.5-1.5-11.5-5.100000000000023-14.299999999999955-11.600000000000023-1.3999999999999773-3.2000000000000455-3-6.2000000000000455-4.7000000000000455-9.299999999999955-3.5-6.300000000000068-8.699999999999989-9.900000000000091-15.899999999999977-10.600000000000023-1.6999999999999886-0.20000000000004547-3.3000000000000114-0.39999999999997726-5-0.39999999999997726-8.600000000000023-0.10000000000002274-15.300000000000011 3.3999999999999773-19.399999999999977 11.199999999999932-1.5 2.800000000000068-3 5.600000000000023-4.400000000000034 8.5-6.300000000000011 12.700000000000045-20.5 15.200000000000045-29.19999999999999 14-7.300000000000011-1-10.899999999999977-5.600000000000023-10.899999999999977-12.899999999999977 0-5.7000000000000455 1.7999999999999545-11 4.399999999999977-15.899999999999977 6.899999999999977-12.700000000000045 13.899999999999977-25.300000000000068 21-37.80000000000007 6.399999999999977-11.299999999999955 13.100000000000023-22.5 19.600000000000023-33.799999999999955 0.8999999999999773-1.3999999999999773 1.6999999999999886-2.7999999999999545 2.6999999999999886-4.2000000000000455 3.1999999999999886-4.599999999999909 7.5-7.2999999999999545 13.300000000000011-7h3.7999999999999545c8.800000000000011-1.3999999999999773 13.899999999999977 3 18 10.300000000000068 12.899999999999977 23.299999999999955 26.300000000000068 46.299999999999955 39.39999999999998 69.39999999999998 2.900000000000091 5.100000000000023 5 10.5 5.7000000000000455 16.399999999999977 0.7999999999999545 9-3.7999999999999545 14.800000000000068-12.600000000000023 15z m211.80000000000007-133.09999999999997c-9.200000000000045 20.19999999999999-24.300000000000068 33.900000000000034-45.40000000000009 40.49999999999994-22.59999999999991 7-45.799999999999955 9.900000000000091-69.29999999999995 7.600000000000023-38-3.7999999999999545-69.39999999999998-19.799999999999955-93.29999999999995-49.89999999999998-4-5.100000000000023-7.800000000000068-10.5-10.900000000000091-16.19999999999999-6.599999999999909-12-5.399999999999977-23.69999999999999 2.900000000000091-34.60000000000002 5.199999999999932-6.899999999999977 11.599999999999909-12.599999999999966 18.5-17.80000000000001 11.299999999999955-8.599999999999966 23.299999999999955-16.099999999999966 35.69999999999993-22.799999999999955 14.200000000000045-7.600000000000023 29.5-11.900000000000034 45.39999999999998-14.100000000000023 12.900000000000091-1.8000000000000114 26-2.1999999999999886 43-2.3000000000000114 5.800000000000068 0.30000000000001137 15.700000000000045 0.4000000000000341 25.5 1.400000000000034 16.100000000000023 1.6999999999999886 29.100000000000023 9.399999999999977 39.200000000000045 21.899999999999977 8.399999999999977 10.399999999999977 13.200000000000045 22.399999999999977 15.299999999999955 35.5 2.6000000000000227 17.399999999999977 0.7000000000000455 34.5-6.599999999999909 50.80000000000001z m-49.60000000000002 363.7c-3.7000000000000455-11.5-5-23.399999999999977-5.2000000000000455-35.299999999999955-0.2999999999999545-22.5-0.10000000000002274-45-0.1999999999999318-67.30000000000007 0-5.399999999999977-0.3000000000000682-10.799999999999955-0.900000000000091-16.199999999999932-0.5-5-1.7999999999999545-9.900000000000091-4.7999999999999545-14-3.2000000000000455-4.300000000000068-7.399999999999977-5.100000000000023-11.600000000000023-1.8000000000000682-2.3999999999999773 1.8000000000000682-4.399999999999977 4.300000000000068-6 6.800000000000068-3.5 5.099999999999909-5.199999999999932 11-6.5 17l-10.199999999999932 48.39999999999998c-1.1000000000000227 5.5-4 10-8.100000000000023 13.699999999999932-3.800000000000068 3.400000000000091-8.300000000000068 4.600000000000023-13.100000000000023 3-3.2000000000000455-1.099999999999909-6.2999999999999545-2.8999999999999773-9.299999999999955-4.5-7.800000000000068-4.099999999999909-15.900000000000091-7.199999999999932-24.800000000000068-7.5-7.399999999999977-0.2999999999999545-12.699999999999932 3.1000000000000227-15.399999999999977 9.800000000000068-1.6000000000000227 4.100000000000023-2.5 8.5-3.2999999999999545 12.799999999999955-0.6000000000000227 3.2000000000000455-0.7000000000000455 6.5-1 9.800000000000068-5.400000000000091-0.6000000000000227-10.300000000000068-0.900000000000091-15.300000000000068-1.7000000000000455-1.5-0.20000000000004547-3.1000000000000227-1.2999999999999545-4.199999999999932-2.2999999999999545-1.3000000000000682-1.2000000000000455-2.5-2.7000000000000455-3.400000000000091-4.2000000000000455-2.699999999999932-4.5-6.699999999999932-6.7000000000000455-11.699999999999932-7.899999999999977-9.600000000000023-2.300000000000068-14.300000000000068 0.1999999999999318-17.5 9.600000000000023-0.7000000000000455 1.8999999999999773-1.3999999999999773 3.7999999999999545-2 5.699999999999932-6.5 0.3000000000000682-12.5 0.6000000000000227-18.600000000000023 0.8999999999999773-0.39999999999997726-1.1999999999999318-0.6000000000000227-2-0.8999999999999773-2.699999999999932-1-3-1.7000000000000455-6.2000000000000455-2.8999999999999773-9.100000000000023-1.3000000000000682-3-2.5-3.3999999999999773-5.600000000000023-2.6000000000000227-1.7000000000000455 0.5-3.5 0.8999999999999773-5.300000000000011 1.1000000000000227-2.1999999999999886 0.2999999999999545-3.6000000000000227 1.5-4.100000000000023 3.5-0.30000000000001137 1.2000000000000455-0.5999999999999659 2.3999999999999773-0.8000000000000114 3.6000000000000227-0.2999999999999545 1.6999999999999318-1.2999999999999545 2.699999999999932-3.099999999999966 2.699999999999932-1.6999999999999886 0-3.400000000000034-0.09999999999990905-5 0.3000000000000682-3.5 0.7999999999999545-5.800000000000011-0.3000000000000682-8-3.300000000000068-4.400000000000034-6-10.199999999999989-10.599999999999909-17.5-12.799999999999955-6.900000000000034-2.1000000000000227-13-0.7000000000000455-17.900000000000034 4.600000000000023-2 2.1000000000000227-3.2999999999999545 4.699999999999932-5.099999999999966 7.100000000000023-0.6999999999999886 0.8999999999999773-1.6000000000000227 2.099999999999909-2.6000000000000227 2.2999999999999545-4.199999999999989 0.7000000000000455-8.5 1.1000000000000227-12.699999999999989 1.5-0.6999999999999886-1.3999999999999773-1.3000000000000114-2.5-1.8999999999999773-3.6000000000000227-2.400000000000034-4.199999999999932-5.600000000000023-7.600000000000023-10.200000000000045-9.5-5.899999999999977-2.5-11.399999999999977-0.8999999999999773-14.799999999999955 4.600000000000023-1.3000000000000114 2.2000000000000455-2.1000000000000227 4.7999999999999545-3 7.2999999999999545-0.6000000000000227 1.8000000000000682-0.9000000000000341 3.7000000000000455-1.400000000000034 5.900000000000091-5.300000000000011-0.3000000000000682-10.399999999999977-0.5-15.5-0.900000000000091-0.8999999999999773-0.09999999999990905-2-1-2.5-1.7999999999999545-0.8000000000000114-1.3999999999999773-1.3000000000000114-3.1000000000000227-1.5-4.7000000000000455-0.39999999999997726-3.3999999999999773-0.6999999999999886-6.899999999999977-0.6999999999999886-10.399999999999977-0.10000000000002274-3.3999999999999773-1.6000000000000227-5.7999999999999545-4.399999999999977-7.5-3.3000000000000114-2-6.900000000000034-2.7999999999999545-10.700000000000045-3.199999999999932-6.199999999999989-0.5-12.399999999999977-1.1000000000000227-18.899999999999977-1.7000000000000455-0.6000000000000227 0.7999999999999545-1.3999999999999773 1.8999999999999773-2.3000000000000114 2.8999999999999773-3.8999999999999773 4.600000000000023-7.099999999999966 4.899999999999977-11.599999999999966 0.8000000000000682-1.7000000000000455-1.6000000000000227-3.3000000000000114-3.300000000000068-4.900000000000034-5.100000000000023-3.8000000000000114-4.399999999999977-7.399999999999977-9.100000000000023-11.5-13.100000000000023-3.599999999999966-3.6000000000000227-5.699999999999989-7.7999999999999545-6.800000000000011-12.600000000000023-0.5-1.8999999999999773-1-3.7999999999999545-1.2999999999999545-5.699999999999932-1.400000000000034-8.600000000000023-2.6000000000000227-17.300000000000068-4.2000000000000455-25.90000000000009-2.1999999999999886-11.599999999999909-7.2999999999999545-21.799999999999955-15.799999999999955-30.09999999999991-6.7000000000000455-6.600000000000023-12.5-5.100000000000023-14.800000000000011 4-1.1999999999999886 4.7999999999999545-1.6999999999999886 9.799999999999955-1.8000000000000114 14.799999999999955-0.30000000000001137 19 2.1999999999999886 37.60000000000002 7.100000000000023 55.799999999999955 1.5 5.800000000000068 3.3999999999999773 11.5 4.5 17.300000000000068 2.3999999999999773 12.899999999999977 2.1999999999999886 26 2.2999999999999545 39 0.10000000000002274 9.899999999999977 0 19.699999999999932 0.30000000000001137 29.5 0.4000000000000341 10.100000000000023 1.5 20.199999999999932 4.900000000000034 29.899999999999977 3.8999999999999773 11.299999999999955 11.5 18.700000000000045 23.19999999999999 21.899999999999977 7.300000000000011 2 14.699999999999989 2.800000000000068 22.19999999999999 3.2000000000000455 2.1999999999999886 0.10000000000002274 4.399999999999977 0.5 6.399999999999977 1.2999999999999545 18 6.800000000000068 36 13.700000000000045 53.900000000000034 20.600000000000023 3 1.1000000000000227 6 2.1000000000000227 9.099999999999966 2.8999999999999773 15.800000000000011 3.8999999999999773 30.5 10 44.10000000000002 19.100000000000023 4.199999999999989 2.7999999999999545 8.300000000000011 5.5 12.600000000000023 8.200000000000045 7.199999999999989 4.599999999999909 15 7.699999999999932 23.5 9.199999999999932 1.8999999999999773 0.3000000000000682 3.7999999999999545 0.8000000000000682 5.699999999999989 1.2000000000000455h25.80000000000001c1.2999999999999545-0.3000000000000682 2.699999999999932-0.7000000000000455 4-0.8000000000000682 9.899999999999977-1.099999999999909 19.299999999999955-3.699999999999932 27.799999999999955-9 2.800000000000068-1.7999999999999545 5.7000000000000455-3.5 8.700000000000045-5 4.2999999999999545-2.199999999999932 8.899999999999977-3.7999999999999545 13.799999999999955-4.2999999999999545 2.8999999999999773-0.2999999999999545 5.800000000000068-0.5 8.700000000000045-1.1000000000000227 18.699999999999932-3.3999999999999773 33.5-12.699999999999932 43.19999999999993-29.399999999999977 0.8000000000000682-1.3999999999999773 1.8000000000000682-2.7999999999999545 2.900000000000091-4l19.799999999999955-23c4.399999999999977-5.100000000000023 9.600000000000023-9.299999999999955 16-11.700000000000045 6.100000000000023-2.2999999999999545 12.299999999999955-4.199999999999932 18.700000000000045-5.599999999999909 5.2999999999999545-1.2000000000000455 10.299999999999955-2.6000000000000227 14.899999999999977-5.900000000000091l13.299999999999955-8.5c7.5-5.399999999999977 10-13 8.5-22 0-1.3999999999999773-0.2999999999999545-2.8999999999999773-0.7999999999999545-4.2999999999999545z"/>
</svg>
