<svg xmlns="http://www.w3.org/2000/svg" viewBox="0 0 1000 1000" width="1000" height="1000">
<path d="M428.5 126c14.399999999999977-16.099999999999994 26.30000000000001-34.5 40.30000000000001-51.099999999999994 11.399999999999977-13.600000000000009 26.80000000000001-15.100000000000009 42.39999999999998-8.900000000000006 14.599999999999966 5.799999999999997 20.000000000000057 18.5 20.69999999999999 31.200000000000003-0.7999999999999545 20.200000000000003-13.699999999999932 31.39999999999999-23.399999999999977 44.2-29.80000000000001 39.5-29.399999999999977 38.19999999999999-73 18.400000000000006-21.30000000000001-9.700000000000017-21.100000000000023-18-7-33.80000000000001z m71.10000000000002 65.1c18.899999999999977 7.5 32.60000000000002 20.30000000000001 38.19999999999993 46.400000000000006 24.700000000000045-32.69999999999999 46.80000000000007-60.69999999999999 67.5-89.69999999999999 12.5-17.5 8.700000000000045-38.000000000000014-7-49.900000000000006-15.599999999999909-11.900000000000006-38.09999999999991-8.800000000000011-51.59999999999991 8.199999999999989-17.40000000000009 21.900000000000006-33.5 44.80000000000001-50.900000000000034 66.6-7.100000000000023 9-7.600000000000023 13.900000000000006 3.8000000000000114 18.400000000000006z m103.39999999999998-23.599999999999994c-26.799999999999955 33.400000000000006-52.39999999999998 67.6-77.70000000000005 102.19999999999999-8.399999999999977 11.600000000000023-7.199999999999932 25.19999999999999 0.20000000000004547 37.5 7 11.600000000000023 18 16.5 29.799999999999955 17.19999999999999 12.200000000000045-0.5999999999999659 21.40000000000009-4.7999999999999545 27.90000000000009-13.099999999999966 25.699999999999932-33.30000000000001 51.799999999999955-66.30000000000001 76.29999999999995-100.4 11.5-15.900000000000006 6.7000000000000455-37.20000000000002-7.7999999999999545-48-14.100000000000023-10.5-37.200000000000045-9.800000000000011-48.700000000000045 4.599999999999994z m94.10000000000002 70.6c-14.399999999999977-10.799999999999983-32.200000000000045-11.900000000000006-44.80000000000007 1.0999999999999943-20 20.400000000000034-38.19999999999993 43.10000000000002-51.39999999999998 68.5-12.199999999999932 23.5 7.300000000000068 50.60000000000002 35.200000000000045 50 7.2999999999999545 0.4000000000000341 15.799999999999955-2.5 21.199999999999932-9.300000000000011 17.300000000000068-21.799999999999955 35-43.5 49.90000000000009-66.89999999999998 9.899999999999977-15.699999999999989 4.399999999999977-32.5-10.100000000000023-43.400000000000006z m-124.60000000000002 286l56.60000000000002-69.60000000000002c10.600000000000023-14.699999999999989 20.399999999999977-30 28.699999999999932-46.60000000000002 9.400000000000091-18.69999999999999 16.40000000000009-38 15.200000000000045-60.299999999999955-39.39999999999998 28.5-54.700000000000045 25.899999999999977-82.79999999999995-15.300000000000011-6-8.800000000000011-10.600000000000023-3.900000000000034-15.400000000000091-2-14.5 5.399999999999977-30.5 18.80000000000001-42.59999999999991 15.899999999999977-13.300000000000068-3.1999999999999886-18.600000000000023-24.399999999999977-30.100000000000023-36.099999999999966-24.80000000000001-25.100000000000023-55.200000000000045-40.200000000000045-86.60000000000002-53.900000000000034-4.899999999999977-2.0999999999999943-11.899999999999977-3.5-8.800000000000011-10.799999999999983 3.6000000000000227-8.5 9.5-1.8000000000000114 13.5 0.19999999999998863 17.600000000000023 8.300000000000011 34.60000000000002 17.900000000000006 52.30000000000001 25.799999999999983 20.399999999999977 9.200000000000045 41 2.5 50.60000000000002-15 10.600000000000023-19.299999999999983 5.199999999999932-40.599999999999966-15.700000000000045-51.89999999999998-32.799999999999955-17.80000000000001-66.19999999999999-34.69999999999999-100.09999999999997-50.400000000000006-22.30000000000001-10.400000000000006-41-3.0999999999999943-52.19999999999999 20-10.900000000000034 22.30000000000001-20.600000000000023 45.30000000000001-29.80000000000001 68.4-10.199999999999989 25.5-7.699999999999989 49.80000000000001 6.599999999999966 73.80000000000001 21.200000000000045 35.599999999999966 45.10000000000002 69.19999999999999 70.40000000000003 101.80000000000001 8.300000000000011 10.699999999999989 9.300000000000011 18.599999999999966 3.1999999999999886 30.899999999999977l-3.1999999999999886 6.699999999999989-114.5 247.59999999999997c21.399999999999977 0 42.599999999999966 0.20000000000004547 63.599999999999966 0.20000000000004547l87.20000000000005-1.2999999999999545-39.200000000000045 71.89999999999998-83.19999999999999 163.5c116.19999999999999-114.20000000000005 230.8-226.5 350.09999999999997-343.6l-156.49999999999994 6.399999999999977 62.69999999999999-76.29999999999995z"/>
</svg>
