<svg xmlns="http://www.w3.org/2000/svg" viewBox="0 0 1000 1000" width="1000" height="1000">
<path d="M902.1 596.5c12-9.100000000000023 23.799999999999955-18.100000000000023 35.39999999999998-26.799999999999955l-31.299999999999955 2.699999999999932 1.3999999999999773-7.100000000000023-15.100000000000023 11.700000000000045 0.5-8.600000000000023-18.899999999999977 8.600000000000023-2.7000000000000455-6.5c0 0.10000000000002274-0.10000000000002274 0.10000000000002274-0.10000000000002274 0.10000000000002274l-1.099999999999909-2.7000000000000455-14.700000000000045 14.600000000000023-0.8999999999999773-10.5-0.10000000000002274-0.10000000000002274-0.39999999999997726-5.100000000000023-15.800000000000068 19.700000000000045-2.099999999999909-16.600000000000023-18.90000000000009 18.399999999999977-1.6999999999999318-10.5-15.100000000000023 21-4.899999999999977-10.899999999999977-11.800000000000068 16.200000000000045-3.199999999999932-9.600000000000023-15.800000000000068 16.700000000000045c-1.2999999999999545-3.800000000000068-2.099999999999909-6-2.599999999999909-7.5-5 4.399999999999977-10.200000000000045 8.799999999999955-15.5 13.299999999999955l-4.2000000000000455-6.5-14.399999999999977 16.200000000000045-1.1000000000000227-8.200000000000045c-5.2999999999999545 5.5-9.700000000000045 10.200000000000045-14.600000000000023 15.399999999999977l-3.3999999999999773-6-17.5 20.700000000000045c-0.7999999999999545-3.2000000000000455-1.2000000000000455-5.300000000000068-2.2000000000000455-9.200000000000045-6.2999999999999545 7.5-11.799999999999955 13.899999999999977-17.5 20.800000000000068l-4.2999999999999545-5.400000000000091c-5.5 6.800000000000068-10.700000000000045 13.100000000000023-16.600000000000023 20.200000000000045-1.1000000000000227-2.5-1.7999999999999545-4.399999999999977-3.3999999999999773-8.200000000000045-5.600000000000023 7.2000000000000455-10.399999999999977 13.300000000000068-14.700000000000045 18.90000000000009l-3.2999999999999545-7.300000000000068-9.200000000000045 13.399999999999977-9.099999999999909 11.600000000000023-3.1000000000000227-4.199999999999932c-25.200000000000045 32.299999999999955-54.5 60.39999999999998-89.30000000000007 82.79999999999995-0.39999999999997726-1.1000000000000227-0.7999999999999545-2.1000000000000227-1.2999999999999545-3.2000000000000455 11.200000000000045-22.199999999999932 73.20000000000005-85.39999999999998 117.60000000000002-119.19999999999993-1.6000000000000227-1.2000000000000455-3.2000000000000455-2.3999999999999773-5.399999999999977-4 5.899999999999977-3.800000000000068 11.399999999999977-7.100000000000023 16.799999999999955-10.600000000000023l19.600000000000023-11.700000000000045-14.300000000000068-1.5 33-18.199999999999932-3.8999999999999773-1.6000000000000227c0-0.10000000000002274 0.10000000000002274-0.10000000000002274 0.20000000000004547-0.20000000000004547l-10.399999999999977-3.8999999999999773 26.09999999999991-19.899999999999977-8.299999999999955-4.2000000000000455c10.399999999999977-7.5 20.100000000000023-14.199999999999932 31.399999999999977-22.199999999999932-5-2-7.5-3.1000000000000227-11.399999999999977-4.600000000000023 9.5-6.899999999999977 18.200000000000045-13.200000000000045 28.200000000000045-20.399999999999977l-8.300000000000068-4.600000000000023 20.100000000000023-15.100000000000023-6.899999999999977-5.599999999999966c6.899999999999977-6 13.399999999999977-11.5 20.199999999999932-17.30000000000001-3.7999999999999545-1.6999999999999886-6.5-2.8999999999999773-9.799999999999955-4.399999999999977 8-6.5 15.200000000000045-12.400000000000034 22.5-18.200000000000045v-0.0999999999999659l2-1.6999999999999886-13.399999999999977-2.400000000000034c7.899999999999977-7.099999999999966 14.699999999999932-13.199999999999989 22.399999999999977-20.19999999999999l-10-3.8000000000000114c6.7000000000000455-5.599999999999966 12.5-10.599999999999966 19.799999999999955-16.80000000000001l-11.5-3.8999999999999773c2.6000000000000227-2.1999999999999886 5.100000000000023-4.399999999999977 7.5-6.5l16.800000000000068-14.600000000000023-3.2000000000000455-0.5-10.799999999999955-1.7999999999999545 23.299999999999955-21.700000000000045-16-1.7999999999999545c4.7000000000000455-4.2000000000000455 8.899999999999977-8 13-11.700000000000045l13-11.699999999999989h-19.699999999999932l17.199999999999932-22.399999999999977-11-2.400000000000034 3.7000000000000455-5.399999999999977 18.199999999999932-21.19999999999999-11.599999999999909-1.1999999999999886 25.299999999999955-59.60000000000002-42.299999999999955 32.19999999999999c-0.900000000000091 0.4000000000000341-1.6000000000000227 1-2.2000000000000455 1.6999999999999886l-4.2999999999999545 3.3000000000000114c-2.900000000000091-3.3000000000000114-5.800000000000068-9.399999999999977-5.800000000000068-9.399999999999977l-13.600000000000023 29.399999999999977c-1.099999999999909 2-2 4-3.099999999999909 6.100000000000023l-8.400000000000091-9.5c-3.3999999999999773 8.599999999999966-6.5 16.19999999999999-10.099999999999909 25.099999999999966l-10.800000000000068-13.699999999999989c-2.8999999999999773 9.600000000000023-5.199999999999932 17.5-8.199999999999932 27.5l-10.200000000000045-9.899999999999977c-2.8999999999999773 10.099999999999966-5.5 19.099999999999966-8.5 29.399999999999977-2.5-3.5-4.600000000000023-6.199999999999989-8.200000000000045-11.300000000000011-3.199999999999932 11.100000000000023-5.899999999999977 20.400000000000034-8.899999999999977 30.600000000000023l-7.5-8.199999999999989c-2.5 8.800000000000011-4.600000000000023 16.399999999999977-7.199999999999932 25.599999999999966l-4.7000000000000455-8.799999999999955-3.2000000000000455 1.3999999999999773-6 27.899999999999977-2 2.2000000000000455-4.7999999999999545-9.900000000000034-3.2000000000000455 0.4000000000000341-7.099999999999909 27-8.100000000000023-6.800000000000011c-2.2000000000000455 8.899999999999977-4.100000000000023 17-6.300000000000068 25.80000000000001l-6.599999999999909-3.6000000000000227c-1.3000000000000682 4.600000000000023-2.900000000000091 8.899999999999977-3.800000000000068 13.399999999999977-0.8999999999999773 4.5-0.1999999999999318 9.700000000000045-7.699999999999932 8.5-1.1000000000000227-0.19999999999998863-3.6000000000000227 4-4.100000000000023 6.600000000000023-1.7000000000000455 7.699999999999989-2.6000000000000227 15.600000000000023-4.100000000000023 25-3.1000000000000227-2.3999999999999773-5-3.8999999999999773-9.100000000000023-7.100000000000023-2.1000000000000227 12.600000000000023-3.8999999999999773 23.899999999999977-5.899999999999977 35.89999999999998l-7.2999999999999545-3c-2.400000000000091 9.800000000000068-4.600000000000023 19.600000000000023-7.100000000000023 29.90000000000009l-7.100000000000023-4.600000000000023c-2.3999999999999773 10.899999999999977-4.600000000000023 20.799999999999955-6.7999999999999545 30.299999999999955l-9.300000000000068-6.2999999999999545-1.5 37.5h-7.199999999999932c-6.400000000000091 55.89999999999998-22.700000000000045 108.69999999999993-49.30000000000007 158.29999999999995-0.8999999999999773-0.39999999999997726-1.7999999999999545-0.7999999999999545-2.599999999999966-1.1000000000000227 4.699999999999989-55.59999999999991 17.69999999999999-109.09999999999991 37.99999999999994-161.19999999999993l13.900000000000091-24h-12.100000000000023l24.100000000000023-39.5-15.600000000000023 5.100000000000023 12.799999999999955-34.10000000000002h-11.600000000000023c4.600000000000023-11.300000000000011 8.900000000000091-21.80000000000001 13.400000000000091-32.900000000000034l-11.200000000000045-0.6999999999999886c4.2999999999999545-13.199999999999989 8.399999999999977-22.600000000000023 14-37.5-2.7999999999999545 0.19999999999998863-5.2999999999999545 0.30000000000001137-9.700000000000045 0.5 4.600000000000023-11.600000000000023 8.700000000000045-22.19999999999999 13.200000000000045-33.5l-8.799999999999955-2.3999999999999773c2.699999999999932-8.800000000000011 5.399999999999977-17.200000000000045 8.199999999999932-26.30000000000001l-8.399999999999977-0.6000000000000227c3-9.399999999999977 5.7000000000000455-18 8.899999999999977-27.80000000000001-5.2999999999999545 0.7000000000000455-8.399999999999977 1.1000000000000227-12.299999999999955 1.7000000000000455 3.7999999999999545-10.600000000000023 7.199999999999932-20.400000000000034 11.100000000000023-31.5l-15.100000000000023 3.099999999999966 11.5-31.80000000000001c-5.7000000000000455 1.3000000000000114-9.600000000000023 2.2000000000000455-14 3.2000000000000455l10.399999999999977-27.900000000000034c-5.7000000000000455 1.1000000000000227-9 1.8000000000000114-13.399999999999977 2.6000000000000227l10.399999999999977-33.70000000000002-13.799999999999955 4 8.099999999999909-32.5c-5.7999999999999545 2.3000000000000114-10.099999999999909 4-16.399999999999977 6.5 3.7000000000000455-11.400000000000006 6.800000000000068-20.799999999999983 9.800000000000068-30.19999999999999l1.2999999999999545-4.200000000000017-19.899999999999977 8.100000000000023c1.8999999999999773-10.200000000000017 3.6000000000000227-19 5.399999999999977-29l-15.600000000000023 3.5c2.5-10.600000000000023 3.7000000000000455-17 7.5-30.600000000000023l-13 3.1000000000000227v-21.10000000000001l-7.5 9.799999999999997-8.899999999999977-51.099999999999994-8.5 51.099999999999994-7.5-9.799999999999997v21.10000000000001l-13-3.1000000000000227c3.8999999999999773 13.600000000000023 5 20.100000000000023 7.5 30.600000000000023l-15.600000000000023-3.5c1.8000000000000114 9.899999999999977 3.5 18.799999999999983 5.400000000000034 29l-19.900000000000034-8.100000000000023 1.3000000000000114 4.200000000000017c3.1000000000000227 9.400000000000006 6.100000000000023 18.799999999999983 9.800000000000011 30.19999999999999-6.300000000000011-2.5-10.600000000000023-4.199999999999989-16.399999999999977-6.5l8.099999999999966 32.5-13.800000000000011-4 10.400000000000034 33.70000000000002c-4.5-0.9000000000000341-7.800000000000011-1.5-13.400000000000034-2.6000000000000227l10.400000000000034 27.900000000000034c-4.5-1.1000000000000227-8.300000000000011-1.8000000000000114-14-3.2000000000000455l11.5 31.80000000000001-15.100000000000023-3.099999999999966c3.900000000000034 11.099999999999966 7.400000000000034 20.899999999999977 11.100000000000023 31.5-3.900000000000034-0.5-7.100000000000023-1-12.300000000000011-1.7000000000000455 3.1999999999999886 9.900000000000034 5.899999999999977 18.5 8.899999999999977 27.80000000000001l-8.399999999999977 0.6000000000000227c2.8999999999999773 9.199999999999989 5.5 17.5 8.199999999999989 26.30000000000001l-8.800000000000011 2.3999999999999773c4.400000000000034 11.300000000000011 8.600000000000023 21.899999999999977 13.200000000000045 33.5-4.5-0.30000000000001137-6.900000000000034-0.39999999999997726-9.700000000000045-0.5 5.5 14.899999999999977 9.700000000000045 24.399999999999977 14 37.5l-11.199999999999989 0.6999999999999886c4.600000000000023 11.100000000000023 8.800000000000011 21.600000000000023 13.400000000000034 32.900000000000034h-11.600000000000023l12.800000000000011 34.39999999999998-15.600000000000023-5.100000000000023 24.100000000000023 39.5h-12.100000000000023l13.900000000000034 24c20.299999999999955 52 33.19999999999999 105.5 38 161.20000000000005-0.9000000000000341 0.39999999999997726-1.8000000000000114 0.6999999999999318-2.6000000000000227 1.1000000000000227-26.600000000000023-49.60000000000002-42.89999999999998-102.40000000000009-49.30000000000001-158.30000000000007h-7.199999999999989l-1.5-37.5-9.300000000000011 6.300000000000068c-2.099999999999966-9.5-4.300000000000011-19.40000000000009-6.800000000000011-30.300000000000068l-7.099999999999966 4.600000000000023c-2.5-10.399999999999977-4.699999999999989-20.100000000000023-7.100000000000023-29.899999999999977l-7.300000000000011 3c-2-11.899999999999977-3.8999999999999773-23.30000000000001-5.899999999999977-35.900000000000034-4 3.1999999999999886-6.100000000000023 4.699999999999989-9.100000000000023 7.100000000000023-1.5-9.400000000000034-2.5-17.30000000000001-4.099999999999966-25-0.5-2.5-3.1000000000000227-6.800000000000011-4.100000000000023-6.600000000000023-7.5 1.1999999999999886-6.800000000000011-4-7.699999999999989-8.5-0.8999999999999773-4.399999999999977-2.5-8.800000000000011-3.8000000000000114-13.399999999999977l-6.599999999999966 3.599999999999966c-2.1000000000000227-8.799999999999955-4.100000000000023-16.899999999999977-6.300000000000011-25.799999999999955l-8.100000000000023 6.7999999999999545-7.099999999999966-27-3.2000000000000455-0.39999999999997726-4.7999999999999545 9.899999999999977-2-2.1999999999999886-6-27.899999999999977-3.2000000000000455-1.400000000000034-4.699999999999989 8.800000000000011c-2.5-9.199999999999989-4.699999999999989-16.80000000000001-7.199999999999989-25.599999999999966l-7.5 8.199999999999989c-3-10.400000000000034-5.699999999999989-19.600000000000023-8.899999999999977-30.600000000000023-3.7000000000000455 5.100000000000023-5.7000000000000455 7.900000000000034-8.200000000000045 11.300000000000011-3-10.399999999999977-5.599999999999966-19.30000000000001-8.5-29.399999999999977l-10.199999999999989 9.899999999999977c-3-9.899999999999977-5.399999999999977-17.80000000000001-8.199999999999989-27.5l-10.800000000000011 13.699999999999989c-3.5-8.899999999999977-6.599999999999994-16.5-10.099999999999994-25.099999999999966l-8.400000000000006 9.5c-1.0999999999999943-2.1000000000000227-2.0999999999999943-4.100000000000023-3.0999999999999943-6.100000000000023l-13.599999999999994-29.399999999999977s-2.9000000000000057 6.099999999999966-5.800000000000011 9.399999999999977l-4.299999999999983-3.3000000000000114c-0.700000000000017-0.6999999999999886-1.4000000000000057-1.3000000000000114-2.200000000000017-1.6999999999999886l-42.29999999999998-32.19999999999999 25.299999999999983 59.599999999999966-11.599999999999994 1.2000000000000455 18.200000000000017 21.19999999999999 3.6999999999999886 5.399999999999977c-4.699999999999989 1.1000000000000227-7.400000000000006 1.6000000000000227-11 2.400000000000034l17.19999999999999 22.399999999999977h-19.69999999999999l13 11.699999999999989c4 3.6999999999999886 8.300000000000011 7.5 13 11.699999999999989l-16 1.8000000000000114 23.30000000000001 21.69999999999999-10.800000000000011 1.8000000000000114-3.1999999999999886 0.5 16.799999999999983 14.600000000000023c2.5 2.099999999999966 5 4.300000000000011 7.5 6.5l-11.5 3.8999999999999773c7.300000000000011 6.100000000000023 13.200000000000017 11.100000000000023 19.80000000000001 16.80000000000001l-10 3.8000000000000114c7.699999999999989 6.899999999999977 14.5 13.099999999999966 22.400000000000006 20.19999999999999l-13.400000000000006 2.3999999999999773 2 1.7000000000000455v0.0999999999999659c7.299999999999983 5.900000000000034 14.5 11.800000000000011 22.5 18.19999999999999-3.3000000000000114 1.5-6.099999999999994 2.7000000000000455-9.800000000000011 4.400000000000034 6.800000000000011 5.800000000000011 13.200000000000017 11.399999999999977 20.200000000000017 17.30000000000001l-6.900000000000006 5.600000000000023 20.099999999999994 15.099999999999909-8.300000000000011 4.600000000000023c9.900000000000034 7.2000000000000455 18.69999999999999 13.5 28.19999999999999 20.399999999999977-3.8999999999999773 1.6000000000000227-6.399999999999977 2.6000000000000227-11.399999999999977 4.600000000000023 11.199999999999989 8 20.899999999999977 14.800000000000068 31.399999999999977 22.200000000000045l-8.299999999999955 4.199999999999932 26.099999999999966 19.90000000000009-10.399999999999977 3.8999999999999773c0 0.10000000000002274 0.0999999999999659 0.10000000000002274 0.19999999999998863 0.1999999999999318l-3.8999999999999773 1.6000000000000227 33 18.200000000000045-14.300000000000011 1.5 19.599999999999966 11.699999999999932c5.400000000000034 3.5 10.900000000000034 6.800000000000068 16.80000000000001 10.600000000000023-2.1999999999999886 1.7000000000000455-3.8999999999999773 2.8999999999999773-5.399999999999977 4 44.5 33.80000000000007 106.39999999999998 97 117.59999999999997 119.20000000000005-0.5 1-1 2-1.2999999999999545 3.199999999999932-34.80000000000001-22.5-64.10000000000002-50.5-89.30000000000001-82.79999999999995l-3.1000000000000227 4.2000000000000455-9.099999999999966-11.600000000000023-9.200000000000045-13.399999999999977-3.2999999999999545 7.2999999999999545c-4.300000000000011-5.399999999999977-9.100000000000023-11.700000000000045-14.700000000000045-18.899999999999977-1.599999999999966 3.7999999999999545-2.3999999999999773 5.600000000000023-3.3999999999999773 8.199999999999932-5.899999999999977-7.099999999999909-11.100000000000023-13.399999999999977-16.600000000000023-20.199999999999932l-4.2999999999999545 5.399999999999977c-5.900000000000034-6.899999999999977-11.300000000000011-13.299999999999955-17.5-20.799999999999955-1 3.8999999999999773-1.400000000000034 6-2.2000000000000455 9.199999999999932l-17.899999999999977-20.699999999999932-3.3999999999999773 6c-4.900000000000034-5.2000000000000455-9.300000000000011-9.800000000000068-14.600000000000023-15.400000000000091l-1.1000000000000227 8.200000000000045-14.399999999999977-16.200000000000045-4.199999999999989 6.5c-5.300000000000011-4.599999999999909-10.5-9-15.5-13.299999999999955-0.5 1.6000000000000227-1.3000000000000114 3.7999999999999545-2.6000000000000227 7.5l-15.799999999999983-16.700000000000045-3.200000000000017 9.600000000000023-11.799999999999983-16.199999999999932-4.900000000000006 10.899999999999977-15.099999999999994-21-1.700000000000017 10.5-18.899999999999977-18.399999999999977-2.1000000000000227 16.59999999999991-15.799999999999983-19.699999999999932-0.4000000000000057 5.100000000000023-0.09999999999999432 0.09999999999990905-0.9000000000000057 10.5-14.699999999999989-14.599999999999909-1.1000000000000227 2.699999999999932c0-0.10000000000002274-0.09999999999999432-0.10000000000002274-0.09999999999999432-0.10000000000002274l-2.6999999999999886 6.5-18.900000000000006-8.599999999999909 0.5 8.599999999999909-15.099999999999994-11.699999999999932 1.3999999999999915 7.100000000000023-31.299999999999997-2.7000000000000455c11.599999999999994 8.899999999999977 23.299999999999997 17.700000000000045 35.400000000000006 26.799999999999955l-3.8000000000000114 4.900000000000091c5.6000000000000085 2.8999999999999773 10.900000000000006 5.599999999999909 16.80000000000001 8.699999999999932l-4.800000000000011 5.899999999999977 17 7.2000000000000455c-2.5 3.2999999999999545-4.199999999999989 5.600000000000023-6.3999999999999915 8.600000000000023 0.7000000000000028 0.1999999999999318 18.60000000000001 5.7999999999999545 18.60000000000001 5.7999999999999545l-8.100000000000009 6.100000000000023 24.10000000000001 6.100000000000023c-1.8000000000000114 2.5-3.200000000000017 4.2999999999999545-5.400000000000006 7.199999999999932l22.5 4.600000000000023-5.599999999999994 6.399999999999977 18.299999999999983 4.100000000000023-2.9000000000000057 6.399999999999977 16.5 4.7000000000000455-4.199999999999989 8.100000000000023 21.099999999999994 1 3.9000000000000057 0.5-4.599999999999994 8.199999999999932 16.69999999999999 3.800000000000068-10.900000000000006 7.899999999999977 25.400000000000006-1.7999999999999545-6.799999999999983 8.299999999999955c0.8999999999999773 0 23.099999999999966 1.2000000000000455 23.099999999999966 1.2000000000000455l12.700000000000045 1.5-8.600000000000023 10 28.69999999999999-1.1000000000000227-7.899999999999977 8.299999999999955c0.5999999999999659 0 23.599999999999966 0.5 23.599999999999966 0.5l9.100000000000023 1.1000000000000227-3.3000000000000114 6.2000000000000455c8.800000000000011 1 16.80000000000001 1.7999999999999545 22.69999999999999 2.5l-4 4.099999999999909 9 1.1000000000000227c0.30000000000001137 0.20000000000004547 0.5 0.3000000000000682 0.9000000000000341 0.39999999999997726 1.8000000000000114 0.3000000000000682 3.6999999999999886 0.40000000000009095 5.5 0.40000000000009095l-1.1000000000000227 4.399999999999977 13.800000000000011-2.7000000000000455-3.5 4.100000000000023 17.600000000000023-0.20000000000004547c31.099999999999966 5 61.19999999999999 14.300000000000068 90.69999999999999 27.100000000000023-2.1999999999999886 1.7000000000000455-4.300000000000011 2.5-6.300000000000011 2.3999999999999773-12.899999999999977-1.1999999999999318-25.69999999999999-2.8999999999999773-38.60000000000002-4-6.7999999999999545-0.599999999999909-13.599999999999966-0.5-20.399999999999977-0.8999999999999773l-15.199999999999989-1.1000000000000227-11.800000000000011-3.199999999999932-5.5 4.2999999999999545-10.600000000000023-4.2999999999999545-6.399999999999977 6.100000000000023-8.800000000000011-3.6000000000000227-3.6999999999999886 6.699999999999932-9.199999999999989-5.5-1.6999999999999886 5.400000000000091-7.900000000000034-3.2000000000000455-3.3999999999999773 7.2999999999999545-11.699999999999989-3.199999999999932 1.8999999999999773 9.699999999999932-15.399999999999977-7.5 3.5 10.400000000000091-12.600000000000023-4.900000000000091v9.100000000000023l-9.699999999999989-6.7999999999999545-3.400000000000034 8.899999999999977s-9.5-1.7000000000000455-11-2.2999999999999545l-0.799999999999983 7.099999999999909-11.299999999999983-0.5 4.899999999999977 8.100000000000023-13.199999999999989-1.1000000000000227 3.5999999999999943 8.600000000000023-16 0.8000000000000682 4.900000000000006 5.5-8.300000000000011 0.6999999999999318-30.399999999999977 24.5 20.399999999999977-2.5 3.700000000000017 4.899999999999977 8.900000000000006-3.8999999999999773 2.6999999999999886 7.5 6.900000000000006-4.600000000000023 6 7.7000000000000455 6.599999999999994-7.899999999999977 0.4000000000000057 8.899999999999977 12.599999999999994-4.5-1.1999999999999886 7.7000000000000455 12.199999999999989-6.400000000000091-1.8000000000000114 8.800000000000068 15.800000000000011-8.5 1.6999999999999886 4.600000000000023 10.400000000000034-7.2000000000000455 3.8999999999999773 7.2000000000000455 16.69999999999999-8.800000000000068 3.900000000000034 7.899999999999977 9.699999999999989-9.699999999999932 5.800000000000011 7 5.699999999999989-11.5 7 6.100000000000023 7.199999999999989-9.800000000000068 2.3999999999999773 6 11.100000000000023-9.799999999999955 0.30000000000001137 5.7999999999999545 10.300000000000011-11.100000000000023 2.6999999999999886 6.400000000000091 4.899999999999977-8.200000000000045 4.5 2.7999999999999545 5.900000000000034-9.299999999999955c0.19999999999998863-0.20000000000004547 0.39999999999997726-0.39999999999997726 0.6999999999999886-0.39999999999997726 8.199999999999989-4.2000000000000455 16.899999999999977-7.5 25.099999999999966-11.800000000000068 18.900000000000034-9.799999999999955 37.5-20.199999999999932 56.60000000000002-29.799999999999955 0.6000000000000227-0.39999999999997726 1.1999999999999886-0.5 1.8000000000000114-0.6000000000000227 0.6999999999999886 2.5 1.8000000000000114 4.800000000000068 3.3000000000000114 6.899999999999977-38.200000000000045 16.800000000000068-71.90000000000003 39-96.10000000000002 72.30000000000007-9.5 13.399999999999977-16.19999999999999 30.399999999999977-19.899999999999977 41.10000000000002-1.1000000000000227 3.5-2.1000000000000227 6.7999999999999545-3.2000000000000455 9.899999999999977 11.900000000000034-4.2000000000000455 24.600000000000023-7 35.5-12.899999999999977 10.200000000000045-5.400000000000091 19.100000000000023-13.400000000000091 27.700000000000045-21.300000000000068 9.599999999999966-8.799999999999955 19-18.100000000000023 26.799999999999955-28.399999999999977 8.800000000000011-11.899999999999977 15.5-25.399999999999977 23.30000000000001-38 3.6000000000000227-5.899999999999977 7.5-11.5 11.199999999999989-17.200000000000045 1.1000000000000227 0.8000000000000682 2.400000000000034 1.5 3.6000000000000227 2-5.399999999999977 37.60000000000002-8.899999999999977 75.10000000000002 6.5 111.5 15.399999999999977-36.39999999999998 11.800000000000011-73.89999999999998 6.5-111.5 1.3000000000000114-0.5 2.5-1.1999999999999318 3.6000000000000227-2 3.7999999999999545 5.7000000000000455 7.600000000000023 11.400000000000091 11.199999999999932 17.200000000000045 7.800000000000068 12.700000000000045 14.600000000000023 26.100000000000023 23.300000000000068 38 7.699999999999932 10.399999999999977 17.199999999999932 19.600000000000023 26.799999999999955 28.399999999999977 8.600000000000023 7.899999999999977 17.5 15.899999999999977 27.700000000000045 21.300000000000068 11.100000000000023 5.7999999999999545 23.600000000000023 8.699999999999932 35.5 12.899999999999977-1.1000000000000227-3.2000000000000455-2.1000000000000227-6.5-3.2000000000000455-9.899999999999977-3.699999999999932-10.600000000000023-10.399999999999977-27.600000000000023-19.899999999999977-41.10000000000002-24.100000000000023-33.200000000000045-57.89999999999998-55.39999999999998-96.10000000000002-72.30000000000007 1.5-2.099999999999909 2.6000000000000227-4.399999999999977 3.300000000000068-6.899999999999977 0.6999999999999318 0.20000000000004547 1.2999999999999545 0.39999999999997726 1.7999999999999545 0.6000000000000227 19 9.700000000000045 37.60000000000002 20 56.60000000000002 29.799999999999955 8.199999999999932 4.300000000000068 16.799999999999955 7.600000000000023 25.100000000000023 11.800000000000068 0.1999999999999318 0.10000000000002274 0.39999999999997726 0.2999999999999545 0.6999999999999318 0.39999999999997726l5.899999999999977 9.299999999999955 4.5-2.7999999999999545 4.900000000000091 8.200000000000045 2.699999999999932-6.400000000000091 10.300000000000068 11.100000000000023 0.2999999999999545-5.7999999999999545 11.100000000000023 9.799999999999955 2.3999999999999773-6 7.2000000000000455 9.800000000000068 7-6.100000000000023 5.699999999999932 11.5 5.800000000000068-7 9.699999999999932 9.699999999999932 3.8999999999999773-7.899999999999977 16.700000000000045 8.800000000000068 3.8999999999999773-7.2000000000000455 10.399999999999977 7.2000000000000455 1.7000000000000455-4.600000000000023 15.799999999999955 8.5-1.7999999999999545-8.800000000000068 12.200000000000045 6.400000000000091-1.2000000000000455-7.7000000000000455 12.600000000000023 4.5 0.39999999999997726-8.899999999999977 6.600000000000023 7.899999999999977 6-7.7000000000000455 6.899999999999977 4.600000000000023 2.7000000000000455-7.5 8.899999999999977 3.8999999999999773 3.699999999999932-4.899999999999977 20.40000000000009 2.5-30.40000000000009-24.5-8.299999999999955-0.6999999999999318 4.899999999999977-5.5-16-0.8000000000000682 3.6000000000000227-8.600000000000023-13.200000000000045 1.1000000000000227 4.900000000000091-8.100000000000023-11.300000000000068 0.5-0.7999999999999545-7.099999999999909c-1.5 0.599999999999909-11 2.2999999999999545-11 2.2999999999999545l-3.3999999999999773-8.899999999999977-9.700000000000045 6.7999999999999545v-9.100000000000023l-12.600000000000023 4.900000000000091 3.5-10.400000000000091-15.399999999999977 7.5 1.8999999999999773-9.699999999999932-11.699999999999932 3.199999999999932-3.400000000000091-7.2999999999999545-7.899999999999977 3.2000000000000455-1.6999999999999318-5.400000000000091-9.200000000000045 5.5-3.7000000000000455-6.699999999999932-8.799999999999955 3.6000000000000227-6.399999999999977-6.100000000000023-10.600000000000023 4.2999999999999545-5.5-4.2999999999999545-11.799999999999955 3.199999999999932c-5.100000000000023 0.40000000000009095-10.100000000000023 0.8000000000000682-15.200000000000045 1.1000000000000227-6.7999999999999545 0.39999999999997726-13.700000000000045 0.3000000000000682-20.399999999999977 0.8999999999999773l-38.60000000000002 4c-2 0.20000000000004547-4.100000000000023-0.6999999999999318-6.2999999999999545-2.3999999999999773 29.399999999999977-12.799999999999955 59.59999999999991-22.100000000000023 90.69999999999993-27.100000000000023l17.600000000000023 0.20000000000004547-3.5-4.100000000000023 13.799999999999955 2.7000000000000455-1.099999999999909-4.399999999999977c1.7999999999999545-0.10000000000002274 3.699999999999932-0.20000000000004547 5.5-0.40000000000009095 0.2999999999999545 0 0.599999999999909-0.1999999999999318 0.8999999999999773-0.39999999999997726l9-1.1000000000000227-4-4.099999999999909c6-0.7000000000000455 13.899999999999977-1.6000000000000227 22.699999999999932-2.5l-3.2999999999999545-6.2000000000000455c3.1000000000000227-0.39999999999997726 6.100000000000023-0.7000000000000455 9.100000000000023-1.1000000000000227l23.600000000000023-0.5c0.599999999999909 0-7.900000000000091-8.299999999999955-7.900000000000091-8.299999999999955l28.700000000000045 1.1000000000000227-9.100000000000023-10 12.700000000000045-1.5 23.100000000000023-1.2000000000000455c0.8999999999999773 0-6.800000000000068-8.299999999999955-6.800000000000068-8.299999999999955l25.399999999999977 1.7999999999999545-10.899999999999977-7.899999999999977 16.700000000000045-3.800000000000068-4.600000000000023-8.199999999999932 3.8999999999999773-0.5 21.100000000000023-1-4.2000000000000455-8.100000000000023 16.5-4.7000000000000455-2.8999999999999773-6.399999999999977 18.300000000000068-4.100000000000023-5.600000000000023-6.399999999999977 22.5-4.600000000000023c-2.2000000000000455-2.8999999999999773-3.5-4.699999999999932-5.399999999999977-7.199999999999932 7.399999999999977-1.8000000000000682 14.5-3.6000000000000227 24.09999999999991-6.100000000000023l-8.099999999999909-6.100000000000023s17.899999999999977-5.600000000000023 18.59999999999991-5.7999999999999545c-2.199999999999932-3-3.8999999999999773-5.300000000000068-6.399999999999977-8.600000000000023l17-7.2000000000000455-4.7999999999999545-5.899999999999977c6-3.1000000000000227 11.199999999999932-5.7999999999999545 16.799999999999955-8.699999999999932l-3.2999999999999545-5.2000000000000455z"/>
</svg>
