<svg xmlns="http://www.w3.org/2000/svg" viewBox="0 0 1000 1000" width="1000" height="1000">
<path d="M428.2 579.9c-3.1999999999999886 0.8000000000000682-6.399999999999977-0.7999999999999545-7.5-3.8999999999999773-37.80000000000001-106.69999999999999-153.8-164.7-262.2-130-38.2 12.199999999999989-70.3 34.19999999999999-94.6 62.39999999999998-1.6000000000000085 1.900000000000034-1.8000000000000043 4.600000000000023-0.4000000000000057 6.600000000000023s3.9000000000000057 3 6.200000000000003 2.1000000000000227l2.700000000000003-0.8000000000000682c125-39.89999999999998 258.4 27.200000000000045 301.6 150.30000000000007 1.1000000000000227 3.1000000000000227 4.399999999999977 4.7999999999999545 7.600000000000023 3.8999999999999773 125.19999999999999-36.10000000000002 257.4 33.700000000000045 297.29999999999995 158.70000000000005 0.3000000000000682 0.8999999999999773 0.5 1.8999999999999773 0.8000000000000682 2.699999999999932 0.6999999999999318 2.300000000000068 2.8999999999999773 3.8999999999999773 5.399999999999977 3.8999999999999773 2.3999999999999773-0.09999999999990905 4.600000000000023-1.7999999999999545 5.100000000000023-4.199999999999932 8.799999999999955-36.200000000000045 8.299999999999955-75.10000000000002-3.900000000000091-113.20000000000005-34.799999999999955-108.60000000000002-149.29999999999995-169.5-258.09999999999997-138.5z m199.3-180.09999999999997c-2.7999999999999545 0.8000000000000114-5.7000000000000455-0.6000000000000227-6.7000000000000455-3.400000000000034-33.39999999999998-94-135.49999999999994-145.2-231.19999999999993-114.59999999999997-33.60000000000002 10.699999999999989-61.80000000000001 30.099999999999966-83.20000000000005 55-1.5 1.6999999999999886-1.599999999999966 4-0.39999999999997726 5.800000000000011 1.1999999999999886 1.7999999999999545 3.3999999999999773 2.5 5.5 1.7999999999999545 0.6999999999999886-0.2999999999999545 1.5-0.5 2.3000000000000114-0.6999999999999886 110.09999999999997-35.099999999999966 227.8 23.900000000000034 265.8 132.40000000000003 0.8999999999999773 2.7999999999999545 3.8999999999999773 4.199999999999989 6.699999999999932 3.5 110.40000000000009-31.900000000000034 226.80000000000007 29.799999999999955 262 139.89999999999998l0.7000000000000455 2.3999999999999773c0.6000000000000227 2 2.5 3.3999999999999773 4.7000000000000455 3.300000000000068 2.099999999999909 0 4-1.5 4.399999999999977-3.6000000000000227 7.7999999999999545-31.899999999999977 7.2999999999999545-66.20000000000005-3.3999999999999773-99.80000000000007-30.40000000000009-95.69999999999993-131.4000000000001-149.19999999999993-227.20000000000005-121.99999999999994z m304-65.80000000000001c-20.899999999999977-65.39999999999998-89.89999999999998-102-155.39999999999998-83.30000000000001-1.8999999999999773 0.5-3.8999999999999773-0.5-4.5-2.299999999999983-22.800000000000068-64.20000000000002-92.60000000000002-99.20000000000002-157.89999999999998-78.30000000000001-22.90000000000009 7.300000000000011-42.200000000000045 20.700000000000017-56.90000000000009 37.5-0.8999999999999773 1.200000000000017-1 2.8000000000000114-0.1999999999999318 4 0.7999999999999545 1.3000000000000114 2.2999999999999545 1.8000000000000114 3.699999999999932 1.3000000000000114 0.5-0.20000000000001705 1-0.4000000000000057 1.6000000000000227-0.5 75.30000000000007-24.099999999999994 155.60000000000002 16.299999999999983 181.60000000000002 90.49999999999997 0.7000000000000455 1.900000000000034 2.7000000000000455 2.900000000000034 4.7000000000000455 2.3000000000000114 75.29999999999995-21.80000000000001 154.89999999999998 20.30000000000001 179 95.60000000000002 0.09999999999990905 0.5 0.2999999999999545 1.099999999999966 0.5 1.599999999999966 0.39999999999997726 1.400000000000034 1.7999999999999545 2.400000000000034 3.2999999999999545 2.3000000000000114 1.5 0 2.7000000000000455-1 3.1000000000000227-2.5 5.100000000000023-21.80000000000001 4.7999999999999545-45.19999999999999-2.6000000000000227-68.19999999999999z"/>
</svg>
