<svg xmlns="http://www.w3.org/2000/svg" viewBox="0 0 1000 1000" width="1000" height="1000">
<path d="M794.5 117.6c-66.70000000000005 0-121.89999999999998 45.80000000000001-135.39999999999998 106.80000000000001h-322.1c-15.300000000000011-61-70.60000000000002-106.80000000000001-135.4-106.80000000000001-76.19999999999999 0-139.2 62.900000000000006-139.2 139.20000000000002-7.105427357601002e-15 53.30000000000001 30.5 101 76.19999999999999 123.89999999999998v150.59999999999997c0 194.5 167.70000000000002 350.70000000000005 362.20000000000005 350.70000000000005s362.29999999999995-156.29999999999995 362.29999999999995-350.70000000000005v-150.59999999999997c43.799999999999955-22.899999999999977 74.29999999999995-70.59999999999997 74.29999999999995-123.89999999999998-1.7999999999999545-76.30000000000001-64.69999999999993-139.20000000000002-142.89999999999998-139.20000000000002z m-478.4 287.79999999999995c0-20.899999999999977 17.099999999999966-40 40-40s40 17.200000000000045 40 40c0 22.900000000000034-17.100000000000023 40.10000000000002-40 40.10000000000002s-40-17.19999999999999-40-40.10000000000002z m181 408c-72.40000000000003 0-133.40000000000003-78.10000000000002-133.40000000000003-173.39999999999998s59.10000000000002-173.5 133.40000000000003-173.5c74.39999999999998 0 133.5 78.20000000000005 133.5 173.5s-59.10000000000002 173.39999999999998-133.5 173.39999999999998z m143-367.9c-22.800000000000068 0-40-17.19999999999999-40-40.10000000000002 0-20.899999999999977 17.199999999999932-40 40-40 21 0 40.10000000000002 17.200000000000045 40.10000000000002 40 0 22.900000000000034-17.200000000000045 40.10000000000002-40.10000000000002 40.10000000000002z m-211.60000000000002 122c-11.399999999999977 0-22.899999999999977 5.7999999999999545-26.69999999999999 15.299999999999955-3.8000000000000114 11.400000000000091-1.900000000000034 22.90000000000009 5.800000000000011 30.5l68.59999999999997 68.60000000000002c11.5 11.399999999999977 30.5 11.399999999999977 42.00000000000006 0l68.59999999999991-68.60000000000002c7.600000000000023-7.599999999999909 11.400000000000091-19.09999999999991 5.7000000000000455-30.5-3.7999999999999545-11.5-15.200000000000045-15.299999999999955-26.600000000000023-15.299999999999955h-137.39999999999998z"/>
</svg>
