<svg xmlns="http://www.w3.org/2000/svg" viewBox="0 0 1000 1000" width="1000" height="1000">
<path d="M521.7 148.9c17.199999999999932 3.5 22.09999999999991 19.19999999999999 32.59999999999991 28.400000000000006 9 7.799999999999983 7.5 6.399999999999977 32 6.799999999999983 18.600000000000023 0.4000000000000057 29.5-3.799999999999983 44.10000000000002 11.700000000000017 11 11.599999999999994 26.300000000000068 20.799999999999983 38.39999999999998 33.29999999999998 9.300000000000068 9.5 22.40000000000009 7.099999999999994 31.100000000000023-4.5 11.800000000000068-15.599999999999994 23-31.5 34.60000000000002-47.29999999999998 16.799999999999955-22.80000000000001 35.200000000000045-43.20000000000002 63.10000000000002-53.500000000000014 14.600000000000023-5.299999999999997 24.899999999999977-17.099999999999994 32.19999999999993-31.200000000000003 4.600000000000023-9 4.900000000000091-24.599999999999994 19.90000000000009-22.599999999999994 15.099999999999909 2 18.699999999999932 16.599999999999994 21.399999999999977 28.799999999999997 9.299999999999955 41.3 18.199999999999932 82.8 25.799999999999955 124.3 7.5 41.00000000000003 11.100000000000023 82.4 1.1000000000000227 123.79999999999998-8.799999999999955 36.400000000000034-30.200000000000045 66.20000000000005-50.5 96.30000000000001-7.7999999999999545 11.600000000000023-20.299999999999955 15.100000000000023-33.89999999999998 12.800000000000011-9.200000000000045-1.6000000000000227-18-4.699999999999989-27.100000000000023-6.899999999999977-23.299999999999955-5.5-31.200000000000045 0.39999999999997726-32.200000000000045 25-1.5 33.5 4 65.5 17.800000000000068 96.5 24.199999999999932 54.799999999999955 40.89999999999998 111.29999999999995 34.69999999999993 172.60000000000002-8 79.89999999999998-50.5 133.79999999999995-123.59999999999991 163.19999999999993-77.40000000000009 31.100000000000023-158.70000000000005 34.30000000000007-240.70000000000005 28.700000000000045-32.10000000000002-2.2000000000000455-64.10000000000002-6.2000000000000455-95.30000000000001-15.200000000000045-125.79999999999998-36.10000000000002-186.39999999999998-146-150.89999999999998-273.29999999999995 13.699999999999989-48.80000000000007 36.099999999999994-95.20000000000005 40.29999999999998-146.8 1-11.900000000000034 2.0999999999999943-23.5-1.0999999999999943-35.400000000000034-4-15.299999999999955-10.5-18.69999999999999-27.599999999999994-15.099999999999966-71.9 15.699999999999989-108.4-7-111.9-81.5-1.2000000000000028-25.69999999999999 0.7999999999999972-51.5 7.700000000000003-75.80000000000001 15.099999999999994-52.900000000000006 14.200000000000003-105.5 5.299999999999997-158.9-3.799999999999997-23 1.9000000000000057-43.8 16.5-61.89999999999999 8.900000000000006-11.100000000000001 20.099999999999994-12.300000000000004 26.5 0.7999999999999972 17.900000000000006 36.5 48 60.30000000000001 79.1 84.19999999999999 20.900000000000006 16.100000000000023 36.099999999999994 38.20000000000002 52.00000000000003 59.30000000000001 19.299999999999955 25.5 30.19999999999999 23.599999999999994 51.799999999999955 1 12.300000000000011-12.800000000000011 24.30000000000001-34.400000000000006 49.700000000000045-24.400000000000006 2 0.8000000000000114 6.199999999999989 0.09999999999999432 7.099999999999966-1.4000000000000057 15.300000000000011-23.799999999999983 32.5-7 49.10000000000002-2.5999999999999943 4.800000000000011 1.200000000000017 11.199999999999989 4.5 14.300000000000011 2.5999999999999943 6-3.799999999999983 2.5-10.199999999999989 0.39999999999997726-15.899999999999977-2.5-7.100000000000023-6.699999999999989-16.400000000000006 0.30000000000001137-21.400000000000006 8-5.700000000000017 15.899999999999977 2 23 6.199999999999989 10.199999999999989 6.099999999999994 19.599999999999966 13.400000000000006 29.80000000000001 19.599999999999994 5.600000000000023 3.4000000000000057 12.399999999999977 8.600000000000023 18.600000000000023 3.3000000000000114 7.399999999999977-6.400000000000006-1-12.199999999999989-3.400000000000091-17.80000000000001-2-4.799999999999983-10.199999999999932-13.699999999999989-2.099999999999909-15.799999999999983z m-18.000000000000057 634.3000000000001c13.500000000000057-1.400000000000091 27.30000000000001-1.5 40.400000000000034-4.600000000000023 26.100000000000023-6.300000000000068 46.5-19.399999999999977 52.799999999999955-48.39999999999998 12.200000000000045-55.80000000000007-22.799999999999955-110.90000000000009-80.10000000000002-124.90000000000009-47.99999999999994-11.699999999999932-99.69999999999993 23.700000000000045-113.49999999999994 77.70000000000005-11.800000000000011 46.39999999999998 11 87.10000000000002 54.80000000000001 95.60000000000002 14.799999999999955 3 30.299999999999955 3.199999999999932 45.599999999999966 4.600000000000023z m-133.7-341.20000000000005c-9.899999999999977 0.6999999999999886-24.100000000000023 0.30000000000001137-23.100000000000023 13.100000000000023 1.6000000000000227 22 22.900000000000034 17.899999999999977 37.30000000000001 22.099999999999966 5.300000000000011 1.6000000000000227 13.5 2.3000000000000114 11.400000000000034-7.399999999999977-2.900000000000034-14-4.800000000000011-29.80000000000001-25.600000000000023-27.80000000000001z m261.6 0c-17.200000000000045-0.8999999999999773-23.800000000000068 8.899999999999977-25.100000000000023 24.399999999999977-0.7000000000000455 8.100000000000023 1.1000000000000227 13.600000000000023 10.899999999999977 10.800000000000011 14.399999999999977-4.099999999999966 35.39999999999998-0.39999999999997726 37.30000000000007-21.80000000000001 1-11.5-12.700000000000045-13.399999999999977-23.100000000000023-13.399999999999977z m-155.20000000000005 253.70000000000005c2 11-6.099999999999966 18.59999999999991-18.19999999999999 17.199999999999932-7.899999999999977-1-16-3.7999999999999545-14.399999999999977-13.600000000000023 1.8000000000000114-10.699999999999932 9.5-18.59999999999991 20.19999999999999-19.299999999999955 9.5-0.6000000000000227 10.699999999999989 8.899999999999977 12.399999999999977 15.700000000000045z m60.30000000000007-16.5c10.599999999999909-0.7000000000000455 18.59999999999991 8.699999999999932 19.899999999999977 19.899999999999977 1.1000000000000227 9.399999999999977-6 12.899999999999977-14.100000000000023 13.799999999999955-10.200000000000045 1.2000000000000455-15.5-4.7999999999999545-17.200000000000045-13.899999999999977-1.8999999999999773-9.700000000000045 2.300000000000068-19.200000000000045 11.400000000000091-19.799999999999955z"/>
</svg>
