<svg xmlns="http://www.w3.org/2000/svg" viewBox="0 0 1000 1000" width="1000" height="1000">
<path d="M692.2 340.1c-24.100000000000023-20-48-39.900000000000034-70.90000000000009-61-11.599999999999909-10.700000000000045-22.799999999999955-22.700000000000045-30.899999999999977-36.10000000000002-13.399999999999977-22.099999999999994-5.600000000000023-38.5 20-43.19999999999999 14.899999999999977-2.700000000000017 30.300000000000068-3 45.39999999999998-3.700000000000017 27-1.299999999999983 54-2.1999999999999886 81.30000000000007-3.1999999999999886-4.800000000000068-28.700000000000017-15.800000000000068-38.900000000000006-55.700000000000045-42.30000000000001-42.5-3.5-75.5-15.799999999999983-100.79999999999995-54.39999999999999-22-33.400000000000006-60.89999999999998-39.900000000000006-98.70000000000005-28.400000000000006-34.69999999999999 10.5-52.39999999999998 37.8-56.39999999999998 73.2-1.8000000000000114 15.800000000000011-2.5 32.099999999999994-0.8000000000000114 47.900000000000006 3.5 31.400000000000006-7.099999999999966 57.5-29.099999999999966 78.29999999999998-27 25.600000000000023-56.80000000000001 48.400000000000034-83.30000000000001 74.40000000000003-14.800000000000011 14.5-29.900000000000034 31.5-37.19999999999999 50.299999999999955-15.100000000000023 39-15.700000000000045 80.5-5 121.30000000000007 2.599999999999966 10 8.699999999999989 19.199999999999932 13.099999999999966 28.699999999999932l6 12.5c3.5-13.399999999999977 8.900000000000034-40.60000000000002 13.900000000000034-53.39999999999998 10.199999999999989-25.69999999999999 20.5-51.60000000000002 33.5-76 3.599999999999966-6.699999999999989 17.899999999999977-16.19999999999999 26.599999999999966-11.399999999999977 8.600000000000023 4.7999999999999545 3.900000000000034 19.399999999999977 4.800000000000011 29.19999999999999 0.30000000000001137 3.3000000000000114-2.8999999999999773 6.899999999999977-4.100000000000023 10.5-14.199999999999989 41-29.5 81.59999999999997-42 122.99999999999994-30.5 101.20000000000005-25.19999999999999 196.9000000000001 46.60000000000002 281.4000000000001 12.300000000000011 14.5 7.300000000000011 27-8.600000000000023 35.299999999999955-9.399999999999977 4.899999999999977-19.899999999999977 7.7999999999999545-29.299999999999955 12.5-11.900000000000034 6-23.200000000000045 12.899999999999977-34.900000000000034 19.299999999999955l-17 8.800000000000068c30.69999999999999 0 81.60000000000002-0.39999999999997726 112.30000000000001 0.1999999999999318 15.100000000000023 0.40000000000009095 24.899999999999977-5.099999999999909 34.69999999999999-17 7.400000000000034-9 20-17.299999999999955 31.19999999999999-18.699999999999932 23.200000000000045-3 47.5-3.8999999999999773 70.5-0.39999999999997726 15 2.2999999999999545 28.899999999999977 13.299999999999955 42.60000000000002 21.5 8.100000000000023 4.899999999999977 14.700000000000045 16.59999999999991 22.5 17.09999999999991 33.10000000000002 1.900000000000091 74.70000000000005 0.8000000000000682 107.79999999999995 0.8000000000000682h15.800000000000068l-20.399999999999977-11.300000000000068c-16.300000000000068-7.699999999999932-32.200000000000045-16.5-48.90000000000009-22.899999999999977-33.299999999999955-13-37.5-23.799999999999955-14.699999999999932-51 46.299999999999955-55.299999999999955 60.39999999999998-119.79999999999995 56.39999999999998-189.79999999999995-3.7999999999999545-64.39999999999998-18.5-126.30000000000007-41.89999999999998-186.20000000000005-3.8999999999999773-9.899999999999977-8.600000000000023-20-9.399999999999977-30.399999999999977-0.7000000000000455-8.699999999999989-1.900000000000091-22.100000000000023 6-26.69999999999999 8.099999999999909-4.699999999999989 21 2.3000000000000114 26.299999999999955 8.099999999999966 10.100000000000023 10.900000000000034 18.799999999999955 24.30000000000001 23.5 38.200000000000045 6.7999999999999545 20 9.299999999999955 41.5 14.299999999999955 62.10000000000002 1.400000000000091 6 4.600000000000023 22.09999999999991 7.400000000000091 27.799999999999955 4.7999999999999545-5 14-20.5 14.5-25.700000000000045 3.5-38.99999999999994 8.099999999999909-78.29999999999995 7-117.29999999999995-0.8000000000000682-30.100000000000023-20.90000000000009-52.69999999999999-44-71.89999999999998z m-150.20000000000005-232.10000000000002c9.600000000000023 0 17.5 7.900000000000006 17.5 17.5s-7.899999999999977 17.5-17.5 17.5-17.5-7.900000000000006-17.5-17.5 7.899999999999977-17.5 17.5-17.5z m83.89999999999998 649.6c-10.899999999999977 52.89999999999998-50.299999999999955 76-101.19999999999993 79.19999999999993-24.000000000000057 1.5-48.900000000000034-0.5-72.20000000000005-6-53.39999999999998-12.299999999999955-85-55.19999999999993-92-119.89999999999998-1.1000000000000227-9.799999999999955-1.1000000000000227-19.699999999999932-1.6999999999999886-29.600000000000023 2.599999999999966-45.89999999999998 14.399999999999977-87 26.599999999999966-129.19999999999993 16.200000000000045-56.200000000000045 34.700000000000045-111.70000000000005 52.900000000000034-167.20000000000005 5.399999999999977-16.5 12.699999999999989-32.599999999999966 20-48.39999999999998 9-19.5 24.80000000000001-32.19999999999999 46.39999999999998-31.19999999999999 21.099999999999966 1 38.599999999999966 12.899999999999977 45.400000000000034 33.19999999999999 21 62.60000000000002 41.799999999999955 125.30000000000001 59.89999999999998 188.79999999999995 11.399999999999977 40.10000000000002 21.899999999999977 81.30000000000007 24.899999999999977 122.60000000000002 3 35.5-1.6999999999999318 72.5-9 107.70000000000005z"/>
</svg>
