<svg xmlns="http://www.w3.org/2000/svg" viewBox="0 0 1000 1000" width="1000" height="1000">
<path d="M627.8 105.4c89.30000000000007 26.599999999999994 143.70000000000005 92.19999999999999 189.30000000000007 168.20000000000002 6 10 8.299999999999955 16.299999999999955-6.399999999999977 21.5-12.200000000000045 4.399999999999977-22.90000000000009 13.299999999999955-33.5 21.299999999999955-8 6-12.700000000000045 4.400000000000034-18.5-3.099999999999966-10-12.800000000000011-21.5-24.30000000000001-31.40000000000009-37-14.5-18.5-33.5-26.700000000000017-56.5-29-24.699999999999932-2.5-49-7.800000000000011-72.09999999999991-17.400000000000006-29-12-42.60000000000002-33.099999999999994-39.30000000000007-63.20000000000002 13.700000000000045 13.700000000000017 26.200000000000045 27 41.80000000000007 36.900000000000006 12.299999999999955 7.800000000000011 24.799999999999955 14.800000000000011 39.19999999999993 17.599999999999994 14.600000000000023 2.8000000000000114 28.200000000000045 1.5 37.5-11.399999999999977 9.5-13.200000000000017 5.300000000000068-26.900000000000006-2.6000000000000227-39-16.5-25.200000000000017-41.59999999999991-39.30000000000001-67.89999999999998-51.900000000000006-7.399999999999977-3.6000000000000085-17.5-3.4000000000000057-21-13.400000000000006-0.10000000000002274-0.09999999999999432 41.39999999999998-0.09999999999999432 41.39999999999998-0.09999999999999432z m-215.59999999999997 0c-1.8000000000000114 7.699999999999989-9 8.099999999999994-14.599999999999966 10.599999999999994-21.30000000000001 9.299999999999997-41.5 20.30000000000001-58.700000000000045 36.19999999999999-7.699999999999989 7.100000000000023-14.399999999999977 15-18.799999999999955 24.600000000000023-5.2000000000000455 11.099999999999994-6.900000000000034 22.299999999999983 0.5999999999999659 32.89999999999998 7.900000000000034 11.100000000000023 19.69999999999999 13.900000000000006 32.400000000000034 12.200000000000017 26.5-3.5 46.799999999999955-18.700000000000017 66.09999999999997-35.599999999999994 6.5-5.700000000000017 12.300000000000011-12 18.5-18 6.300000000000011 19.799999999999983-2.5 40.599999999999994-24.099999999999966 54.19999999999999-19.400000000000034 12.300000000000011-41.5 17.099999999999994-63.5 21.5-7.400000000000034 1.5-14.800000000000011 3.1999999999999886-22.200000000000045 3.4000000000000057-24.099999999999966 1.0999999999999943-43 11.099999999999994-57.69999999999999 30.099999999999994-7.399999999999977 9.5-16 18.30000000000001-23.899999999999977 27.600000000000023-17 20-10.700000000000017 20.19999999999999-34.900000000000006 4.2999999999999545-6.300000000000011-4.099999999999966-12.099999999999994-9.899999999999977-19-11.899999999999977-20.400000000000006-6-16.5-16.30000000000001-7.900000000000006-30 38.80000000000001-62.099999999999994 83.60000000000002-118 152.10000000000002-149.5 10.899999999999977-5 22.599999999999966-8.299999999999997 33.89999999999998-12.400000000000006l41.69999999999999-0.19999999999998863z m31.69999999999999 187.1c14.300000000000011 7.399999999999977 16.600000000000023 18.600000000000023 19.700000000000045 28.69999999999999 3.8999999999999773 13.199999999999989 6.699999999999989 26.900000000000034 9.5 40.5 2 9.699999999999989 4.899999999999977 15.5 15.5 7.699999999999989 4.2999999999999545-3.1999999999999886 10.599999999999966-5.199999999999989 14.799999999999955-2.3999999999999773 14.899999999999977 10 17.100000000000023 0.30000000000001137 20.800000000000068-11.100000000000023 5.7999999999999545-18.099999999999966 11.399999999999977-36.5 22.699999999999932-52.19999999999999 3-4.199999999999989 6.7000000000000455-10.099999999999966 12.300000000000068-5.699999999999989 6 4.699999999999989-1.8000000000000682 7.5-3.900000000000091 10.800000000000011-9.199999999999932 14.199999999999989-11.399999999999977 30-12.199999999999932 46.19999999999999-0.5 10 7.199999999999932 10.600000000000023 13.5 13 42.39999999999998 15.899999999999977 83.5 34 119.79999999999995 61.69999999999999 22 16.80000000000001 34.200000000000045 36.60000000000002 27.800000000000068 65.60000000000002-14.700000000000045 66.59999999999997-40.10000000000002 127.49999999999994-96.60000000000002 169.40000000000003-75.30000000000007 55.799999999999955-184.10000000000002 39.69999999999993-248.60000000000002-35-29.80000000000001-34.40000000000009-48-74-58.19999999999999-118.40000000000003-8.800000000000011-38.19999999999999 6.099999999999966-63.400000000000034 37-83.30000000000001s64.5-33.69999999999999 98.89999999999998-45.69999999999999c10.800000000000011-3.8000000000000114 14-9 14.300000000000011-19.900000000000034 0.10000000000002274-22.599999999999966-2.8000000000000114-44.799999999999955-7.100000000000023-69.89999999999998z m-266.5 5.300000000000011c2.200000000000017 1.3000000000000114 4.600000000000023 2.8000000000000114 7.000000000000028 4.399999999999977 42.5 28.100000000000023 83.49999999999997 58.10000000000002 122.70000000000002 90.69999999999999 9.399999999999977 7.800000000000011 13.099999999999966 12.800000000000011 1.099999999999966 23.400000000000034-28.19999999999999 24.899999999999977-27.30000000000001 25.599999999999966-58.099999999999994 1.8999999999999773-26.19999999999999-20.099999999999966-51.79999999999998-40.89999999999998-74.19999999999999-65.19999999999999-16.099999999999994-17.5-17.200000000000017-33.5-4.800000000000011-49.89999999999998 1.5-2.3000000000000114 2.200000000000017-5.5 6.300000000000011-5.300000000000011z m658.5 26.19999999999999c-1.6000000000000227 11.600000000000023-5.5 21.100000000000023-13.100000000000023 28.80000000000001-29.199999999999932 30-61 56.5-95.29999999999995 80.30000000000001-10 6.899999999999977-16.600000000000023 5-23.600000000000023-3.1000000000000227-2.2999999999999545-2.6000000000000227-4.699999999999932-5.100000000000023-7.199999999999932-7.5-18.5-19.399999999999977-18.5-19.399999999999977 3.199999999999932-37 34.200000000000045-27.80000000000001 69.5-53.80000000000001 106.20000000000005-78 5.5-3.6000000000000227 11.899999999999977-12.399999999999977 17.299999999999955-8.399999999999977 7.7000000000000455 5.5 11.800000000000068 15.5 12.5 24.899999999999977z m101.60000000000002 87.39999999999998c-24.799999999999955 60.30000000000001-56.60000000000002 112.10000000000002-108.29999999999995 149.60000000000002-21.100000000000023 15.299999999999955-42.5 30-66.30000000000007 40.60000000000002-19.799999999999955 8.799999999999955-40 10.299999999999955-60.799999999999955 4-6.600000000000023-2-10.300000000000068-4.5-6.2000000000000455-12.200000000000045 4.600000000000023-8.699999999999932 8.300000000000068-17.799999999999955 12.600000000000023-26.600000000000023 1.7999999999999545-3.7999999999999545 3.8999999999999773-7.099999999999909 9.299999999999955-4.2999999999999545 20.100000000000023 10.200000000000045 38.40000000000009 0.7999999999999545 56.40000000000009-6.2000000000000455 65.5-25.399999999999977 114.79999999999995-69.89999999999998 150.79999999999995-129.79999999999995 2.3999999999999773-3.8999999999999773 5-7.800000000000011 7.600000000000023-11.600000000000023 0.39999999999997726-0.5999999999999659 1.6000000000000227-1.099999999999966 4.899999999999977-3.5z m-874 0.10000000000002274c14.5 22.899999999999977 29 44.10000000000002 45.5 64.19999999999999 35.5 42.900000000000034 81.6 68.90000000000003 133 87.09999999999997 9.099999999999994 3.2000000000000455 18.69999999999999 5.5 28.899999999999977 3.400000000000091 5.5-1.1000000000000227 12.200000000000045-9.5 16.700000000000045-2.1000000000000227 6.899999999999977 11.100000000000023 11.699999999999989 23.699999999999932 16.399999999999977 36.10000000000002 1.1000000000000227 2.699999999999932-4.600000000000023 4.2999999999999545-7.800000000000011 5.2999999999999545-20.80000000000001 6.7999999999999545-41.19999999999999 4.899999999999977-60.69999999999999-4.100000000000023-82.80000000000001-38.19999999999993-139.6-100.5-172.9-185-0.3999999999999915-0.8999999999999773 0.30000000000000426-2.099999999999966 0.9000000000000057-4.899999999999977z m9 167.89999999999998c71.30000000000001 44.10000000000002 149.5 50.60000000000002 229.8 43.39999999999998 15.300000000000011-1.3999999999999773 15.300000000000011 9.400000000000091 19.69999999999999 16.5 14.5 23.5 13.5 28.300000000000068-13.100000000000023 27.100000000000023-81.79999999999998-3.8999999999999773-159.79999999999998-21.899999999999977-226.09999999999997-73.89999999999998-4.1000000000000085-3.3999999999999773-9.500000000000014-6.399999999999977-10.300000000000011-13.100000000000023z m849.6 3.300000000000068c-15 20.59999999999991-36.39999999999998 32.799999999999955-58.89999999999998 43-51.40000000000009 23.199999999999932-105.60000000000002 36.299999999999955-161.70000000000005 41.299999999999955-12 1.1000000000000227-30.299999999999955 2.2999999999999545-33.60000000000002-7-4.399999999999977-12.100000000000023 10.700000000000045-23.600000000000023 17-35.60000000000002 3-5.600000000000023 8.5-1.1000000000000227 12.600000000000023-0.6999999999999318 62.299999999999955 5.899999999999977 123.20000000000005-0.40000000000009095 182.39999999999998-20.700000000000045 14.800000000000068-5.2000000000000455 28-13 42.200000000000045-20.299999999999955z m-671.4000000000001 291.5c-13.499999999999943-42-1.799999999999926-79.40000000000009 19.90000000000009-115.30000000000007 19.399999999999977-32 47.099999999999966-56.89999999999998 70.89999999999998-85.29999999999995 3.6000000000000227-4.300000000000068 6-4.300000000000068 9.899999999999977-1.6000000000000227 3.900000000000034 2.6000000000000227 7.800000000000011 5 11.700000000000045 7.399999999999977 24.299999999999955 15.300000000000068 24.299999999999955 15.300000000000068 0.6999999999999886 33.5-19.30000000000001 14.899999999999977-39.19999999999999 28.800000000000068-57.400000000000034 44.80000000000007-34.599999999999966 30.899999999999977-58.79999999999998 67.09999999999991-55.69999999999999 116.5z m496.80000000000007-0.10000000000002274c3.1000000000000227-58.89999999999998-30.600000000000023-96.80000000000007-71.89999999999998-130.20000000000005-17.200000000000045-13.799999999999955-34.89999999999998-26.799999999999955-52.30000000000007-40.299999999999955-7.599999999999909-5.899999999999977-10.599999999999909-10.5 0.40000000000009095-17.5 27.399999999999977-17.5 27.199999999999932-18.100000000000023 49.59999999999991 6 30.100000000000023 32.19999999999993 59.80000000000007 64.60000000000002 73.70000000000005 107.89999999999998 8 24.899999999999977 9.5 49.60000000000002 0.5 74.10000000000002z m-139.60000000000002 20.5c3.1000000000000227-46.89999999999998-11.299999999999955-89.30000000000007-31.199999999999932-130.30000000000007-3.5-7.2999999999999545-7.5-14.399999999999977-10.700000000000045-21.799999999999955-4.2999999999999545-10.5-16.200000000000045-22.899999999999977-9.399999999999977-31.5 7.399999999999977-9.5 23.699999999999932-2.5 36.10000000000002-4 5-0.6000000000000227 6.699999999999932 1.8999999999999773 7.7999999999999545 6.7000000000000455 10.200000000000045 42.69999999999993 22.5 85.19999999999993 19.799999999999955 129.69999999999993-1 17.5-2.3999999999999773 35.39999999999998-12.399999999999977 51.200000000000045z m-217.59999999999997-0.10000000000002274c-13.400000000000034-28.899999999999977-14.5-59.200000000000045-11.300000000000011-89.60000000000002 3.1999999999999886-29.899999999999977 10.699999999999989-58.89999999999998 17.80000000000001-88.19999999999993 1.8000000000000114-7.7000000000000455 4.5-10.300000000000068 12.399999999999977-10 36.80000000000001 1.7999999999999545 43.900000000000034-7.2000000000000455 22.900000000000034 35.799999999999955-23.700000000000045 48.200000000000045-45.700000000000045 96.29999999999995-41.80000000000001 152z"/>
</svg>
