<svg xmlns="http://www.w3.org/2000/svg" viewBox="0 0 1000 1000" width="1000" height="1000">
<path d="M893.8 457.6c-17.199999999999932-100.20000000000005-65.69999999999993-183.8-137.79999999999995-254.3-2.6000000000000227-2.5-6.7000000000000455-4.700000000000017-10.299999999999955-5-17.800000000000068-1.200000000000017-35.700000000000045-2.700000000000017-53.5-2.4000000000000057-50 1-86.20000000000005 24.799999999999983-106.10000000000002 70.29999999999998-15.700000000000045 36-28.899999999999977 73.10000000000002-42.80000000000007 110-18.899999999999977 49.80000000000001-42.599999999999966 96.60000000000002-82.19999999999993 133.3-14.200000000000045 13.200000000000045-30 24.700000000000045-45.30000000000001 37.10000000000002 2.3999999999999773 0.6999999999999318 4.899999999999977 1.6000000000000227 7.399999999999977 2.2999999999999545 49.30000000000001 13.300000000000068 97.80000000000001 28.700000000000045 142.90000000000003 53.200000000000045 40.19999999999993 21.799999999999955 75.89999999999998 48.89999999999998 100.69999999999993 88.10000000000002 34.10000000000002 53.59999999999991 38 112 24.600000000000023 172.29999999999995-5.600000000000023 25-14 49.39999999999998-21.299999999999955 74.89999999999998 51.5-38 97.39999999999998-80.89999999999998 135.29999999999995-131.89999999999998 76.89999999999998-103.79999999999995 110.60000000000002-219 88.39999999999998-347.9z m-543.1999999999999 74.79999999999995c3.2999999999999545 0.6000000000000227 7.2999999999999545 0.10000000000002274 10.5-1.1999999999999318 26.19999999999999-10.900000000000091 49.89999999999998-26.000000000000057 70.89999999999998-45.10000000000002 37.60000000000002-34.200000000000045 59.39999999999998-78.10000000000002 77.10000000000002-124.70000000000005 14.399999999999977-38 28-76.5 44.5-113.49999999999997 17.100000000000023-38.30000000000001 45.39999999999998-67 86.5-79.70000000000002 18.699999999999932-5.799999999999983 38.39999999999998-8.099999999999994 57.39999999999998-12.099999999999994-1.2000000000000455-1-3.3999999999999773-2.6999999999999886-5.7000000000000455-4.299999999999983-40.59999999999991-28.000000000000014-84.5-49.400000000000006-131.5-64.50000000000001-62.299999999999955-20.099999999999994-126.29999999999995-29.799999999999997-191.79999999999995-22.099999999999994-66.10000000000002 7.799999999999997-125.9 31.299999999999997-175.3 77.2-65.89999999999999 61.19999999999999-101.19999999999999 135.6-92.49999999999999 227.49999999999997 6.599999999999994 70.20000000000005 59.39999999999999 128 128.7 141 40.400000000000034 7.5 80.80000000000001 14.5 121.20000000000005 21.5z m25.399999999999977-252.5c46.19999999999999 0.4000000000000341 83.69999999999999 38.60000000000002 83.5 84.70000000000005-0.6999999999999886 45.599999999999966-35.60000000000002 83.19999999999999-84.5 83.69999999999999-46.10000000000002 0.5-84-38.400000000000034-84.10000000000002-84.30000000000001-0.0999999999999659-46.10000000000002 38.60000000000002-84.5 85.10000000000002-84.10000000000002z m201.39999999999998 482.4l-2.3999999999999773-5.399999999999977c-17-37-23.600000000000023-75.5-16.100000000000023-116.5l-34-17.5c-1.8999999999999773 10.399999999999977-4.2999999999999545 19.100000000000023-5.100000000000023 27.800000000000068-3.7999999999999545 38.799999999999955 2.400000000000091 76.29999999999995 17.90000000000009 114.59999999999991-62.10000000000002-37.299999999999955-100.10000000000002-88.69999999999993-113.70000000000005-157.19999999999993-4.399999999999977-22-3.5-22.700000000000045-26.19999999999999-27.100000000000023-49.69999999999999-9.700000000000045-99.60000000000002-18.5-149.20000000000002-28.5-24.799999999999983-5-49.19999999999999-12-74-18.200000000000045-0.09999999999999432 0.7000000000000455-0.29999999999998295 3-0.5 5.2000000000000455-2 44.39999999999998 8.300000000000011 86.39999999999998 29.200000000000017 125.20000000000005 71.5 133.29999999999995 228.39999999999998 197.5 372.40000000000003 152.69999999999993 16.699999999999932-5.199999999999932 32.59999999999991-12.899999999999977 51.299999999999955-20.5-4.2000000000000455-1.6999999999999318-5.399999999999977-2.3999999999999773-6.600000000000023-2.5-22-0.7999999999999545-35.299999999999955-12.699999999999932-43-32.10000000000002z"/>
</svg>
