<svg xmlns="http://www.w3.org/2000/svg" viewBox="0 0 1000 1000" width="1000" height="1000">
<path d="M230.7 424.9c-7.399999999999977 17.400000000000034-11.699999999999989 35.60000000000002-15.599999999999994 54-4.299999999999983 20.400000000000034-6.299999999999983 41.200000000000045-11.5 61.5-5.799999999999983 22.600000000000023-14.199999999999989 44-29.599999999999994 62-26.5 31-69.8 29.200000000000045-93.6 8.600000000000023-9.5-8.399999999999977-15.200000000000003-19.399999999999977-17.500000000000007-32.10000000000002-0.7999999999999972-4.399999999999977-0.19999999999999574-8.699999999999932 1.8999999999999986-12.600000000000023 1.6000000000000085-3 4-4.2999999999999545 7.400000000000006-3.8999999999999773 3.200000000000003 0.39999999999997726 3.700000000000003 2.800000000000068 4.3999999999999915 5.2000000000000455l1.7000000000000028 6c6.1000000000000085 24.299999999999955 32.8 35.5 54.7 23.699999999999932 12.5-6.699999999999932 18.69999999999999-18 24.400000000000006-30 11.699999999999989-24.5 14.900000000000006-51 18.19999999999999-77.39999999999998 3.9000000000000057-30.899999999999977 7.300000000000011-61.89999999999998 15.800000000000011-92.09999999999997 10-35.19999999999999 30.299999999999983-62 64.4-76.60000000000002 21.899999999999977-9.399999999999977 43.5-19.80000000000001 67.30000000000001-23.80000000000001 15.099999999999966-2.5 30.399999999999977-0.39999999999997726 45.5 0.6000000000000227 27.899999999999977 1.8999999999999773 54.39999999999998 11 81.79999999999995 15.800000000000011 17.900000000000034 3.099999999999966 35.80000000000001 3.6999999999999886 53.900000000000034 5 21.599999999999966 1.6999999999999886 42.80000000000001 5.599999999999966 63.99999999999994 9.599999999999966 8.300000000000068 1.6000000000000227 16.700000000000045 2.8000000000000114 25.100000000000023 3.400000000000034 11.100000000000023 0.8000000000000114 21.200000000000045-2.6999999999999886 30.700000000000045-8 14.5-8.100000000000023 29.600000000000023-13 46.19999999999993-12.5 6.100000000000023 0.19999999999998863 12.300000000000068 1.099999999999966 18.40000000000009 2.5 12 2.8000000000000114 23.5 1.599999999999966 34.799999999999955-2.900000000000034 13.799999999999955-5.399999999999977 27.899999999999977-10.099999999999966 41.5-15.899999999999977 13-5.600000000000023 26.899999999999977-5 40.299999999999955-7.600000000000023 7-1.3999999999999773 14-3 21.300000000000068-2.5 2.5 0.20000000000004547 3.699999999999932-1.099999999999966 4.600000000000023-3.1999999999999886 1.099999999999909-2.599999999999966 2.199999999999932-5.300000000000011 3.599999999999909-7.699999999999989 4.900000000000091-8.699999999999989 13.800000000000068-10.199999999999989 21.300000000000068-3.3999999999999773 4.600000000000023 4.099999999999966 8.100000000000023 8.899999999999977 9.399999999999977 15.199999999999989 1.2000000000000455 6 4.2000000000000455 10.399999999999977 9.700000000000045 13.699999999999989 13.899999999999977 8.5 23.59999999999991 21.5 33.09999999999991 34.19999999999999 5.900000000000091 7.900000000000034 7.400000000000091 17.100000000000023 7.5 26.69999999999999 0.10000000000002274 7.100000000000023 2.1000000000000227 13.100000000000023 7 19 6.900000000000091 8.400000000000034 10.900000000000091 18.80000000000001 14.400000000000091 29.200000000000045 1.7999999999999545 5.599999999999966-1.8000000000000682 10.399999999999977-6.2000000000000455 13.5-4.7000000000000455 3.2999999999999545-6.899999999999977 9-11.799999999999955 12-0.7000000000000455 0.39999999999997726-0.900000000000091 2-1.1000000000000227 3.099999999999966-1.7000000000000455 8.100000000000023-6 12.699999999999989-14.5 14.100000000000023-9.5 1.5-18-0.5-24.700000000000045-8-3.5-3.900000000000034-7.399999999999977-7.5-11.399999999999977-10.900000000000034-5.399999999999977-4.599999999999966-8.600000000000023-4.7999999999999545-14.5-0.5999999999999659-7.399999999999977 5.300000000000011-15.5 7.399999999999977-24.5 8.800000000000011-13 2-27 2.2999999999999545-37.799999999999955 12.199999999999989-6.7000000000000455 6.099999999999966-11.900000000000091 12.699999999999989-15 21.399999999999977-8.5 24.30000000000001-13.200000000000045 49.69999999999999-21.5 74.00000000000006-8.800000000000068 25.699999999999932-15.900000000000091 51.799999999999955-20.300000000000068 78.5-3.1000000000000227 18.59999999999991-0.6999999999999318 36.39999999999998 11.5 52.39999999999998 6.800000000000068 8.899999999999977 15.899999999999977 10.699999999999932 25.600000000000023 12 8.5 1.1999999999999318 17.299999999999955 0.8999999999999773 25 5.7999999999999545 4.899999999999977 3.1000000000000227 8 7.399999999999977 10.100000000000023 12.5 1.8999999999999773 4.7000000000000455-1.1000000000000227 9.399999999999977-6 11.600000000000023-12.100000000000023 5.7000000000000455-24.899999999999977 7.399999999999977-37.80000000000007 8.200000000000045-10.199999999999932 0.599999999999909-19.299999999999955-1.400000000000091-28.699999999999932-5.900000000000091-9.600000000000023-4.5-17.600000000000023-11.699999999999932-27.899999999999977-15-7.400000000000091-2.3999999999999773-11.800000000000068-8.799999999999955-13.300000000000068-16.399999999999977-5.2999999999999545-27.299999999999955-15.699999999999932-52.89999999999998-23.799999999999955-79.29999999999995-1.8999999999999773-6.2000000000000455-3.6000000000000227-12.600000000000023-5.7000000000000455-20.300000000000068-5.399999999999977 14.5-15.600000000000023 24.5-21.5 37-6.100000000000023 12.800000000000068-5.600000000000023 26.40000000000009-3.2999999999999545 39.80000000000007 1 5.600000000000023 7 7.399999999999977 12.5 7.600000000000023 5.5 0.2999999999999545 10.899999999999977 1.2999999999999545 15.799999999999955 3.8999999999999773 6.399999999999977 3.3999999999999773 7.300000000000068 7.5 3 13.100000000000023-0.10000000000002274 0.1999999999999318-0.39999999999997726 0.2999999999999545-0.39999999999997726 0.39999999999997726-1.3999999999999773 4.199999999999932-2.2000000000000455 9.199999999999932-7.7000000000000455 9.899999999999977-9.799999999999955 1.2999999999999545-19.399999999999977 4.7000000000000455-29.5 1.7999999999999545-3.099999999999909-0.8999999999999773-6.099999999999909-2-9.199999999999932-2.5-13-1.8999999999999773-17.700000000000045-6.5-18.700000000000045-19.699999999999932-0.6999999999999318-9.200000000000045-3.1000000000000227-17.700000000000045-7-26-3.699999999999932-7.899999999999977-4.600000000000023-15.899999999999977 0.3000000000000682-23.600000000000023 7.699999999999932-11.899999999999977 8.5-25.600000000000023 9.5-38.89999999999998 0.599999999999909-8.800000000000068 0.5-17.700000000000045-0.900000000000091-26.399999999999977-0.599999999999909-3.900000000000091-1.5-6.400000000000091-6.199999999999932-6.7000000000000455-10.200000000000045-0.39999999999997726-19.399999999999977-3.7000000000000455-28.100000000000023-9-14.700000000000045-9.100000000000023-30.799999999999955-9.5-46.89999999999998-5.7000000000000455-26.900000000000034 6.5-52.5 2.400000000000091-78.20000000000005-5.699999999999932-9.899999999999977-3.2000000000000455-20.099999999999966-5.2000000000000455-30.399999999999977-6.300000000000068-10.300000000000011-1.099999999999909-16.100000000000023 1.5-20.600000000000023 10.800000000000068l-17.599999999999966 38.39999999999998c-6.900000000000034 14.5-16.80000000000001 27.100000000000023-24.900000000000034 41-3.599999999999966 6.2000000000000455-6.599999999999966 12.600000000000023-8.799999999999955 19.399999999999977-3.7000000000000455 11.100000000000023-0.10000000000002274 20.5 6.899999999999977 28.800000000000068 10.300000000000011 12.299999999999955 22.899999999999977 21.09999999999991 39 24.09999999999991 8.800000000000011 1.6000000000000227 15.600000000000023 6.5 21.399999999999977 12.900000000000091 6 6.599999999999909 4.600000000000023 11.699999999999932-3.8999999999999773 14.5-0.6999999999999886 0.2999999999999545-1.6999999999999886 0.39999999999997726-2 0.8999999999999773-5.199999999999989 7.199999999999932-12.199999999999989 6.100000000000023-19.399999999999977 4.7999999999999545-0.9000000000000341-0.1999999999999318-2-0.1999999999999318-2.7000000000000455 0.20000000000004547-9.699999999999989 5.199999999999932-19.399999999999977 2.5-29.099999999999966 0.1999999999999318-1.6000000000000227-0.39999999999997726-3.400000000000034-1.099999999999909-4.5-2.2999999999999545-10.800000000000011-12-24.80000000000001-19.799999999999955-33.69999999999999-32.60000000000002-7-9.799999999999955-13.700000000000045-19.699999999999932-22.200000000000045-28.399999999999977-5.2999999999999545-5.2999999999999545-6.7999999999999545-12.600000000000023-5.099999999999966-20.5 3.8000000000000114-16.899999999999977 7.399999999999977-33.700000000000045 3.8999999999999773-51.299999999999955-0.8000000000000114-3.900000000000091-1.5-4.5-5.199999999999989-2.6000000000000227-25.80000000000001 12.699999999999932-39.19999999999999 33.5-41.19999999999999 61.89999999999998-1 13.100000000000023 2.299999999999983 17.899999999999977 14.599999999999966 22.700000000000045 7.5 2.8999999999999773 14.400000000000034 6.599999999999909 18.700000000000045 13.699999999999932 5.2999999999999545 8.700000000000045 3.599999999999966 13-5.900000000000034 15.600000000000023-0.5 0.20000000000004547-1.1999999999999886 0.2999999999999545-1.5 0.6000000000000227-4.099999999999966 6.699999999999932-10.599999999999966 5.2999999999999545-16.69999999999999 4.7999999999999545-7.300000000000011-0.5-14.599999999999994-0.6999999999999318-21.80000000000001-2.1000000000000227-5.199999999999989-1.099999999999909-9.5-3.2999999999999545-12.299999999999983-8.099999999999909-2.9000000000000057-4.900000000000091-6.099999999999994-9.5-9.800000000000011-13.700000000000045-6.599999999999994-7.899999999999977-6.299999999999983-17.600000000000023-5.400000000000006-27 1.3000000000000114-14.299999999999955 1.1000000000000227-28.5 0.6000000000000227-42.60000000000002-0.4000000000000057-9.699999999999932 3.799999999999983-18.299999999999955 10.799999999999983-24.699999999999932 9.200000000000017-8.300000000000068 15.300000000000011-18.5 20-29.700000000000045 6-14.5 8.300000000000011-29.799999999999955 9.300000000000011-45.5 1.5-24.80000000000001-3.700000000000017-48.19999999999999-10.900000000000006-71.5-3.1999999999999886-7.399999999999977-3.5-15.300000000000011-5.300000000000011-23.100000000000023z"/>
</svg>
