<svg xmlns="http://www.w3.org/2000/svg" viewBox="0 0 1000 1000" width="1000" height="1000">
<path d="M197.3 241.6c-8.800000000000011-15.400000000000006-15.600000000000023-29.799999999999983-28.200000000000017-39.900000000000006-13.799999999999983-11.199999999999989-29.099999999999994-13-41.19999999999999-4.699999999999989-11.600000000000009 8-12.5 15.800000000000011-2.1000000000000085 25.099999999999994 9.700000000000003 8.800000000000011 14.100000000000009 18.700000000000017 7.799999999999997 31.200000000000017-6.799999999999997 13.5-19.099999999999994 15.399999999999977-31.5 11.699999999999989-16.599999999999994-4.899999999999977-32.8-12.300000000000011-38-30.80000000000001-5.499999999999993-19.599999999999994 3.200000000000003-35.19999999999999 16.700000000000003-48.79999999999998 11.299999999999997-11.300000000000011 17.700000000000003-19.400000000000006 32.2-24.599999999999994 7.099999999999994-2.6000000000000227 24.400000000000006-3.3000000000000114 33.099999999999994 1.5 35.80000000000001 19.899999999999977 46.80000000000001 41.69999999999999 51.20000000000002 79.29999999999998z m49.39999999999998-39.69999999999999c9.200000000000017-5 17.30000000000001-3 25 3.299999999999983 8.100000000000023 6.5 2.900000000000034 11.700000000000017-0.39999999999997726 17.900000000000006-4.199999999999989 7.700000000000017-2.1000000000000227 15.099999999999994 4.899999999999977 19.599999999999994 12.199999999999989 7.800000000000011 24.400000000000034 4.900000000000006 36.10000000000002-2 11.199999999999989-6.699999999999989 14.300000000000011-16.5 10.800000000000011-28.799999999999983-9.600000000000023-34.099999999999994-56.30000000000001-46.70000000000002-81.40000000000003-22-13.799999999999983 13.599999999999994-19.5 31-24.69999999999999 53.29999999999998 6.099999999999994-11.099999999999994 10-18.599999999999994 14.300000000000011-25.69999999999999 3.6999999999999886-6.300000000000011 8.599999999999994-11.900000000000006 15.399999999999977-15.599999999999994z m689.7 539.4c-2.6000000000001364 5.2000000000000455-6.300000000000068 9.300000000000068-12.600000000000136 6.7000000000000455-7.599999999999909-3.2000000000000455-14.599999999999909-0.39999999999997726-21.899999999999977 1.1000000000000227-15 2.8999999999999773-30.799999999999955 3.699999999999932-44.10000000000002-3-15.599999999999909-7.800000000000068-21.5 0.10000000000002274-26.799999999999955 11.5-9.299999999999955 19.399999999999977-14.700000000000045 40.19999999999993-16.899999999999977 61.299999999999955-1.1000000000000227 10.899999999999977-3.6000000000000227 18.899999999999977-10.5 20.399999999999977-21.899999999999977 4.600000000000023-89.60000000000002 0-89.60000000000002 0 1.5-9.299999999999955 2.6000000000000227-12.099999999999909 2.5-17.59999999999991-0.20000000000004547-5.600000000000023-0.20000000000004547-12.700000000000045-8.5-13.200000000000045-9-0.6000000000000227-10.299999999999955 6.7000000000000455-10.899999999999977 13-0.5 5.399999999999977 1 11.100000000000023 1.8999999999999773 17.899999999999977h-90.89999999999998c-11.800000000000068-49.39999999999998-29.5-94.39999999999998-49.39999999999998-138.60000000000002-16.600000000000023-36.799999999999955-41.30000000000007-64.89999999999998-76.20000000000005-85.69999999999993-29.30000000000001-17.399999999999977-56.30000000000001-38.700000000000045-84.5-58-7.800000000000011-5.399999999999977-11.300000000000011-9.5-1.6999999999999886-17.300000000000068 7.399999999999977-6 21.399999999999977-13.599999999999909 9.399999999999977-25.299999999999955-10.800000000000011-10.5-21.5-0.8999999999999773-28.599999999999966 7.5-8.5 9.899999999999977-14.5 8.700000000000045-23.600000000000023 0.7999999999999545-58.39999999999998-50.49999999999994-111.5-104.89999999999998-140.2-178.49999999999994-6.200000000000017-15.900000000000034-11.100000000000023-32.30000000000001-14.200000000000017-49-0.799999999999983-4.600000000000023-5.199999999999989-12.400000000000034 5.300000000000011-13.400000000000034 7.199999999999989-0.6999999999999886 13.699999999999989-3.3999999999999773 17 8 13.699999999999989 47.60000000000002 39.70000000000002 88.5 72.49999999999997 125.10000000000002 18.30000000000001 20.30000000000001 38.700000000000045 38.30000000000001 66.60000000000002 45.10000000000002 17.69999999999999 4.399999999999977 33.5 0.5 46.19999999999999-11.100000000000023 24.900000000000034-22.69999999999999 52.60000000000002-25.80000000000001 83.40000000000003-16.100000000000023 6.099999999999966 1.900000000000034 12.5 3.2000000000000455 18.299999999999955 5.900000000000034 43 19.5 87.10000000000002 19.599999999999966 133.20000000000005 13.800000000000011 65.60000000000002-8.100000000000023 130.39999999999998-2.5 190.10000000000002 29.399999999999977 48.09999999999991 25.69999999999999 75.39999999999998 65.39999999999998 74.69999999999993 121.29999999999995-0.39999999999997726 26.800000000000068-12 50.40000000000009-24.299999999999955 73.70000000000005-6.5 12.299999999999955-13.399999999999977 24.399999999999977-18.700000000000045 37.200000000000045-6 14.799999999999955-0.7999999999999545 25.09999999999991 14.899999999999977 26.59999999999991 14 1.3000000000000682 29.40000000000009 7.400000000000091 42.10000000000002-5.599999999999909 4.7000000000000455-4.800000000000068 10.100000000000023 0.5 15.100000000000023 1.099999999999909 3 0.20000000000004547 1.7999999999999545 3.2000000000000455 0.8999999999999773 5z m-481.0000000000001-269.19999999999993c-0.0999999999999659-5.2000000000000455-3.2999999999999545-8.200000000000045-8.799999999999955-8.200000000000045-4.800000000000011 0-7.900000000000034 2.5-8.200000000000045 7.7000000000000455-0.39999999999997726 5.599999999999966 2.2000000000000455 9.299999999999955 7.900000000000034 9.599999999999966 5.599999999999966 0.30000000000001137 8.599999999999966-2.8999999999999773 9.099999999999966-9.099999999999966z m219.39999999999998-1.900000000000034c-30.299999999999955-7.899999999999977-59.5-2.8000000000000114-87.19999999999993 11.100000000000023 21.899999999999977-4.5 43.799999999999955-7.900000000000034 66.10000000000002-6.100000000000023 29.699999999999932 2.400000000000034 39 15.100000000000023 29.799999999999955 43.400000000000034-13.100000000000023 40.5-36.299999999999955 74.89999999999998-67.89999999999998 103.19999999999993-31.100000000000023 27.90000000000009-44.80000000000007 25.90000000000009-69.5-6.2999999999999545 4.399999999999977 27.299999999999955 31.100000000000023 41.39999999999998 54.69999999999993 25.600000000000023 48.5-32.5 82.90000000000009-76.5 96.40000000000009-134.40000000000003 4.399999999999977-18.899999999999977-3.5-31.5-22.40000000000009-36.5z m-41.19999999999993 369.8h0.39999999999997726-0.39999999999997726z"/>
</svg>
