<svg xmlns="http://www.w3.org/2000/svg" viewBox="0 0 1000 1000" width="1000" height="1000">
<path d="M756.9 502.1c-0.5-76.30000000000001 50.80000000000007-119.60000000000002 95.60000000000002-132.5 25-7.2000000000000455 49.60000000000002-7.100000000000023 74.5-0.10000000000002274 7.899999999999977 2.1999999999999886 10.600000000000023 6.100000000000023 10.399999999999977 14.199999999999989-1.1999999999999318 52.10000000000002-25.799999999999955 90-70.29999999999995 115.69999999999999-3.6000000000000227 2.1000000000000227-7.399999999999977 3.900000000000034-11 5.900000000000034-0.3000000000000682 0.19999999999998863-0.39999999999997726 0.5999999999999659-1 1.6999999999999886 3.8999999999999773 2.1000000000000227 8.100000000000023 4.199999999999989 11.899999999999977 6.399999999999977 44.10000000000002 25.5 68.60000000000002 62.89999999999998 70.39999999999998 114.60000000000002 0.39999999999997726 9.200000000000045-2.8999999999999773 13.100000000000023-11.600000000000023 15.899999999999977-78.69999999999993 24.399999999999977-165.69999999999993-37.299999999999955-168.39999999999998-119.60000000000002-0.1999999999999318-4 0-8.099999999999909 0-12.699999999999932-6.100000000000023 1.2999999999999545-6.7999999999999545 6.100000000000023-8.799999999999955 9.399999999999977-50.89999999999998 80.70000000000005-121 137.5-210.89999999999998 169.39999999999998-9.5 3.300000000000068-10.100000000000023 6.7000000000000455-6.400000000000091 14.899999999999977 6.5 14.400000000000091 8.200000000000045 29.800000000000068 9.300000000000068 45.40000000000009 0.6000000000000227 9.099999999999909-2.800000000000068 13.5-11.600000000000023 16.09999999999991-50.69999999999999 15.400000000000091-108.5-3-142-46.19999999999993-4.600000000000023-6-9.399999999999977-8.899999999999977-17.30000000000001-9.800000000000068-127.39999999999998-14.5-226.2-75.89999999999998-298.5-181.69999999999993-10.899999999999991-16-11.899999999999991-27.200000000000045-0.4999999999999858-44.10000000000002 58.60000000000001-87 137.3-145 238.8-171.89999999999998 5.300000000000011-1.400000000000034 8.699999999999989-3.8000000000000114 11.699999999999989-8.400000000000034 38.69999999999999-58.599999999999994 95.80000000000001-78.19999999999999 162.8-76.19999999999999 12.199999999999989 0.4000000000000057 24.19999999999999 2.6999999999999886 36.10000000000002 5.400000000000006 7.7999999999999545 1.799999999999983 11 5.199999999999989 10.899999999999977 13.599999999999994-0.20000000000004547 21.30000000000001-6.399999999999977 40.60000000000002-17.399999999999977 58.30000000000001-2.5 4.199999999999989-5.800000000000011 7.399999999999977 2.199999999999932 9.699999999999989 104 30.5 182.4000000000001 93.69999999999999 238.80000000000007 185.5 0.1999999999999318 0.30000000000001137 0.6999999999999318 0.39999999999997726 2.2999999999999545 1.1000000000000227z m-559.2 83.60000000000002c43.90000000000006 0 79.60000000000008-35.40000000000009 79.50000000000006-78.90000000000003 0-44.19999999999999-35.89999999999998-80.10000000000002-80.1-80-43.400000000000006 0.19999999999998863-78.89999999999999 36.30000000000001-78.69999999999999 79.89999999999998 0.29999999999999716 44.099999999999966 35.29999999999998 78.90000000000003 79.29999999999998 79.00000000000006z m254.60000000000008-120.10000000000002c0.5-0.6000000000000227 0.8999999999999773-1.400000000000034 1.5-1.900000000000034 29.399999999999977-24.099999999999966 30.69999999999999-49.599999999999966 3.3000000000000114-76.30000000000001-6-5.899999999999977-0.4000000000000341-6.699999999999989 2.1999999999999886-8.899999999999977 13.899999999999977-12.100000000000023 19.399999999999977-27.19999999999999 15.899999999999977-45.10000000000002-3.599999999999966-18.599999999999966-21.899999999999977-34.89999999999998-39.599999999999966-35.299999999999955-3.3000000000000114-0.10000000000002274-7.400000000000034-0.6000000000000227-8.100000000000023 3.7999999999999545-0.8000000000000114 4.600000000000023 3.5 4.900000000000034 6.699999999999989 5.7000000000000455 2.5 0.5 5 0.6999999999999886 7.400000000000034 1.5 22.899999999999977 7.399999999999977 32.69999999999999 32.69999999999999 20.099999999999966 52.69999999999999-6.399999999999977 10.199999999999989-15.899999999999977 15.899999999999977-28 17.099999999999966-2.8999999999999773 0.30000000000001137-6.300000000000011 0.5-6.399999999999977 4.600000000000023-0.10000000000002274 3.8999999999999773 3 4.600000000000023 6 5.100000000000023l5 0.6999999999999886c17.69999999999999 4.300000000000011 29.19999999999999 18.099999999999966 29 34.89999999999998-0.19999999999998863 17.80000000000001-11.800000000000011 31.400000000000034-30 35.30000000000001-4.400000000000034 1-10.800000000000011 0.39999999999997726-10.900000000000034 6.100000000000023-0.2999999999999545 6.699999999999989 6.7000000000000455 4.899999999999977 10.700000000000045 5.899999999999977 18.69999999999999 4.699999999999989 29.5 18.80000000000001 28.599999999999966 37.69999999999999-0.8999999999999773 17.099999999999966-13.099999999999966 29.900000000000034-31.099999999999966 32.30000000000001-3.900000000000034 0.5-8.400000000000034 0.6000000000000227-8.400000000000034 5.399999999999977 0 5.399999999999977 4.900000000000034 4.100000000000023 8.600000000000023 4.600000000000023 18.30000000000001 2.1000000000000227 31.399999999999977 15.299999999999955 32.69999999999999 32.799999999999955 1.1999999999999886 17.300000000000068-11.300000000000011 33.200000000000045-29.100000000000023 37.700000000000045-3.8999999999999773 1-11.099999999999966-1-10.699999999999989 5.7000000000000455 0.4000000000000341 6 7.400000000000034 4.2999999999999545 11.5 5.2999999999999545 24.30000000000001 6.5 35.19999999999999 30.5 23.600000000000023 52.200000000000045-5.900000000000034 10.899999999999977-15.600000000000023 15.899999999999977-27.19999999999999 18.299999999999955-3.5 0.7000000000000455-8.800000000000011 0.10000000000002274-7.7000000000000455 5.7000000000000455 1.1000000000000227 5 6.100000000000023 3.3999999999999773 9.5 3.099999999999909 8.600000000000023-0.7999999999999545 16.200000000000045-4.199999999999932 22.80000000000001-9.699999999999932 24.19999999999999-20.5 21.5-51.200000000000045-6.800000000000011-75.5 13.900000000000034-9.600000000000023 22.900000000000034-22.300000000000068 23.200000000000045-39.80000000000007 0.39999999999997726-17.799999999999955-9.200000000000045-30.59999999999991-22.600000000000023-40.799999999999955 29.19999999999999-28.799999999999955 28.600000000000023-52.39999999999998-1.6999999999999886-80.89999999999998z m400.90000000000003-66.10000000000002l0.39999999999997726 2.3999999999999773c-3.300000000000068 1.6000000000000227-6.7000000000000455 3-10 4.7000000000000455-41.30000000000007 22-63.39999999999998 56.39999999999998-62 102.89999999999998 1.3999999999999773 46.299999999999955 25.199999999999932 79.89999999999998 67.69999999999993 99.10000000000002 12 5.399999999999977 24.800000000000068 7.7999999999999545 37.80000000000007 8.799999999999955 5.600000000000023 0.39999999999997726 11.699999999999932 0.3000000000000682 12.100000000000023-7.399999999999977 0.39999999999997726-7-5.300000000000068-7.5-10.5-8-3.800000000000068-0.39999999999997726-7.5-0.7000000000000455-11.300000000000068-1.2999999999999545-43.39999999999998-6.600000000000023-77.10000000000002-42.80000000000007-80.19999999999993-86.20000000000005-3.300000000000068-46.10000000000002 23.59999999999991-85.80000000000001 67-99.10000000000002 8.899999999999977-2.6999999999999886 18-4.099999999999966 27.199999999999932-4.7999999999999545 4.600000000000023-0.4000000000000341 8-2.7000000000000455 7.800000000000068-8.100000000000023-0.10000000000002274-4-2.300000000000068-6.600000000000023-6.100000000000023-6.600000000000023-19.100000000000023-0.19999999999998863-38.200000000000045-0.0999999999999659-57.200000000000045-0.0999999999999659v1.8000000000000114c5.899999999999977 0.7999999999999545 11.600000000000023 1.2999999999999545 17.300000000000068 1.8999999999999773z m-331.5 188.20000000000005c31.299999999999955-27.800000000000068 31.199999999999932-51.90000000000009 0.2999999999999545-81.70000000000005 31.299999999999955-25.80000000000001 31.200000000000045-54-0.39999999999997726-80.89999999999998 3-2.400000000000034 6.100000000000023-4.600000000000023 8.799999999999955-7.2000000000000455 13-13 17.899999999999977-28.399999999999977 12.399999999999977-46-5.099999999999909-16.599999999999966-16.299999999999955-27.19999999999999-33.39999999999998-31-4.599999999999966-1-11.899999999999977-3.5-13.199999999999989 2.400000000000034-1.8000000000000114 7.599999999999966 6.800000000000011 5.399999999999977 10.900000000000034 6.699999999999989 17.5 4.899999999999977 28.600000000000023 18.5 28.5 35.5-0.3000000000000682 17.19999999999999-11.600000000000023 30.399999999999977-29.200000000000045 34.89999999999998-3.8999999999999773 1-10.899999999999977-1.599999999999966-10.599999999999966 5.600000000000023 0.30000000000001137 5.300000000000011 6.399999999999977 4.300000000000011 10.199999999999989 5.300000000000011 18.600000000000023 4.599999999999966 30 18.099999999999966 29.5 35.599999999999966-0.39999999999997726 17.30000000000001-12.5 30.900000000000034-30.69999999999999 34.900000000000034-3.400000000000034 0.6999999999999886-8.800000000000011-0.9000000000000341-9.100000000000023 4.399999999999977-0.30000000000001137 5.800000000000011 5.5 5.100000000000023 9.400000000000034 6.000000000000057 19.100000000000023 4.5 30.399999999999977 17.399999999999977 30.5 34.89999999999998 0.10000000000002274 18-11.899999999999977 31.799999999999955-31.100000000000023 35.799999999999955-3.3999999999999773 0.7000000000000455-8.600000000000023-0.7999999999999545-8.800000000000011 4.7000000000000455-0.0999999999999659 5.2999999999999545 4.800000000000011 4.699999999999932 8.400000000000034 5.399999999999977 11.799999999999955 2.1000000000000227 21.299999999999955 7.600000000000023 27.100000000000023 18.5 11.799999999999955 22.399999999999977-0.900000000000091 47.10000000000002-26.900000000000034 52.299999999999955-3.5 0.7000000000000455-8.800000000000011-0.2999999999999545-8.400000000000034 5.100000000000023 0.4000000000000341 6.100000000000023 6 4.600000000000023 9.900000000000034 4.2000000000000455 3.3000000000000114-0.39999999999997726 6.599999999999966-1.3999999999999773 9.699999999999989-2.5 31.299999999999955-12 43.200000000000045-56.60000000000002 6.2000000000000455-82.89999999999998z m-139.50000000000006-162.50000000000006c3.900000000000034-3.3000000000000114 7.300000000000011-5.899999999999977 10.199999999999989-8.800000000000011 12.700000000000045-13.5 15.900000000000034-29.299999999999955 10-46.599999999999966-5.699999999999989-16.5-17.69999999999999-26.19999999999999-34.89999999999998-29.100000000000023-3.8000000000000114-0.5999999999999659-9.5-2.6999999999999886-10.800000000000011 2.8000000000000114-1.3999999999999773 6.5 5.199999999999989 5.199999999999989 8.800000000000011 6.100000000000023 19.30000000000001 4.899999999999977 30.399999999999977 17.399999999999977 30.69999999999999 34.89999999999998 0.30000000000001137 17.600000000000023-11.800000000000011 31.5-31 36.19999999999999-3.3000000000000114 0.8000000000000114-8.800000000000011-0.6999999999999886-8.800000000000011 4.800000000000011-0.0999999999999659 5.300000000000011 5.300000000000011 4.5 8.700000000000045 5.300000000000011 19.899999999999977 4.800000000000011 31.599999999999966 18.099999999999966 31.299999999999955 35.599999999999966-0.39999999999997726 17.80000000000001-12 30.700000000000045-31.799999999999955 35.5-3.2000000000000455 0.7000000000000455-7.7000000000000455-0.19999999999998863-8 4.400000000000034-0.4000000000000341 5.300000000000011 4.599999999999966 5 8.099999999999966 5.800000000000011 20.69999999999999 4.600000000000023 31.80000000000001 17.5 31.5 36.39999999999998-0.30000000000001137 16.899999999999977-12.599999999999966 30.700000000000045-31.19999999999999 34.39999999999998-3.5 0.7000000000000455-8.5-0.5-8.300000000000011 5.2000000000000455 0.19999999999998863 5.2999999999999545 5.100000000000023 4.399999999999977 8.699999999999989 5.199999999999932 19.5 4.2000000000000455 31.400000000000034 17.90000000000009 31.100000000000023 35.60000000000002-0.39999999999997726 18-12 30.899999999999977-31.80000000000001 35-3.599999999999966 0.8000000000000682-8.699999999999989 0.39999999999997726-7.800000000000011 5.800000000000068 0.9000000000000341 5 5.7000000000000455 4 9.400000000000034 3.699999999999932 20-1.8999999999999773 37-20 38.89999999999998-40.299999999999955 1.8000000000000114-19.5-7-33.80000000000007-22.30000000000001-44.80000000000007 30.700000000000045-28.09999999999991 30.700000000000045-50 0.10000000000002274-82.09999999999997 30.30000000000001-26.19999999999999 30.399999999999977-53.80000000000001-0.8000000000000114-81z m209.40000000000003 40.400000000000034c3.8999999999999773-3.400000000000034 7.399999999999977-5.900000000000034 10.199999999999932-8.900000000000034 13.200000000000045-13.899999999999977 15.900000000000091-30.399999999999977 9.600000000000023-47.80000000000001-5.699999999999932-16-18.100000000000023-24.799999999999955-34.5-27.899999999999977-3.7999999999999545-0.6999999999999886-9.5-2.5-10.799999999999955 3.1000000000000227-1.3999999999999773 6.599999999999966 5.2999999999999545 5.099999999999966 8.799999999999955 6 19.600000000000023 5.099999999999966 31 18.5 30.600000000000023 36.299999999999955-0.39999999999997726 17-12.700000000000045 30.700000000000045-31.100000000000023 34.80000000000001-3.3999999999999773 0.8000000000000114-8.699999999999932-0.8000000000000114-8.600000000000023 4.900000000000034 0 5.2999999999999545 5.300000000000068 4.5 8.700000000000045 5.2999999999999545 19.399999999999977 4.5 31.399999999999977 18.100000000000023 31.100000000000023 35.700000000000045-0.3000000000000682 17.699999999999932-12.399999999999977 31.100000000000023-32 35.19999999999993-3.1000000000000227 0.6000000000000227-7.5-0.39999999999997726-7.800000000000068 4.400000000000091-0.2999999999999545 5.5 4.600000000000023 5 8.100000000000023 5.7999999999999545 20.100000000000023 4.600000000000023 31.600000000000023 17.5 31.600000000000023 35.299999999999955-0.10000000000002274 18.200000000000045-11.799999999999955 31.200000000000045-32.700000000000045 35.60000000000002-3.2999999999999545 0.7000000000000455-7.399999999999977 0.5-6.899999999999977 5.300000000000068 0.6000000000000227 5.599999999999909 5.399999999999977 4.399999999999977 8.899999999999977 4 19.90000000000009-1.6000000000000227 37.40000000000009-20 39.30000000000007-39.90000000000009 1.8999999999999773-20.09999999999991-7.399999999999977-34.39999999999998-22.899999999999977-45.69999999999993 31.5-25.700000000000045 31.399999999999977-54.60000000000002 0.39999999999997726-81.5z m-259.5 42.19999999999999c0-10.699999999999989-0.8000000000000114-21.100000000000023-3.1000000000000227-31.400000000000034-9-41-31.30000000000001-72.89999999999998-66.39999999999998-95.69999999999999-3-1.8999999999999773-6.700000000000017-6.099999999999966-9.800000000000011-2.1999999999999886-3.9000000000000057 5 3.6999999999999886 4.800000000000011 5.199999999999989 7.699999999999989 0.5 1 1.8999999999999773 1.6000000000000227 3 2.3000000000000114 77.80000000000001 59.39999999999998 77.5 177.5-0.6000000000000227 236.29999999999995l-7.199999999999989 5.2000000000000455c-1.3999999999999773 1.1000000000000227-2.6999999999999886 2.7000000000000455-1.5 4.100000000000023 0.9000000000000057 1.1000000000000227 3.200000000000017 1.7999999999999545 4.400000000000034 1.2999999999999545 3.099999999999966-1.1000000000000227 6.099999999999966-2.7999999999999545 8.799999999999955-4.600000000000023 43.5-29.5 65.30000000000001-71 67.20000000000005-122.99999999999994z m329.1-1.1999999999999886c4-3.5 7.599999999999909-6.300000000000011 10.699999999999932-9.5 12.399999999999977-13.600000000000023 16.200000000000045-29.30000000000001 9.800000000000068-46.5-6-16.100000000000023-18-26.100000000000023-35.10000000000002-28.900000000000034-3.800000000000068-0.5999999999999659-9.600000000000023-2.5-10.800000000000068 3-1.099999999999909 5.900000000000034 5.300000000000068 5.400000000000034 8.900000000000091 6.400000000000034 20.5 5.399999999999977 30.59999999999991 17.19999999999999 30.09999999999991 35.89999999999998-0.39999999999997726 18.100000000000023-11.5 30.399999999999977-31.799999999999955 34.89999999999998-3.2000000000000455 0.7000000000000455-7.7000000000000455 0.10000000000002274-7.7000000000000455 4.600000000000023-0.09999999999990905 5 4.7000000000000455 4.899999999999977 8.400000000000091 5.7000000000000455 20.5 4.5 31.09999999999991 16.59999999999991 31.199999999999932 35 0.10000000000002274 18.5-11.5 31.5-32.10000000000002 35.799999999999955-3.599999999999909 0.7999999999999545-8.399999999999977 0.2999999999999545-7.199999999999932 6 1 4.399999999999977 5 3.5 8.299999999999955 3.2000000000000455 27-2.400000000000091 45.89999999999998-30.200000000000045 38.89999999999998-56.700000000000045-3.199999999999932-12.700000000000045-11.399999999999977-21.299999999999955-21.59999999999991-28.899999999999977z m-463.20000000000005 41.60000000000002c-23.599999999999994 0.09999999999990905-42.69999999999999-18.700000000000045-42.599999999999994-42.00000000000006 0.09999999999999432-22.30000000000001 19.5-41.599999999999966 42-41.80000000000001 23.099999999999994-0.19999999999998863 42.69999999999999 19.400000000000034 42.5 42.5-0.20000000000001705 22.700000000000045-18.900000000000006 41.10000000000002-41.900000000000006 41.30000000000007z"/>
</svg>
