<svg xmlns="http://www.w3.org/2000/svg" viewBox="0 0 1000 1000" width="1000" height="1000">
<path d="M214.6 300.1c8.900000000000006 24.299999999999955 18.599999999999994 48.39999999999998 28.900000000000006 72.39999999999998 11.5 26.80000000000001 24.69999999999999 52.89999999999998 37.10000000000002 79.10000000000002 7.2999999999999545 15.599999999999966 18.5 19 33.599999999999966 11.5 23.400000000000034-11.700000000000045 46-24.600000000000023 68.69999999999999-37.5 4.600000000000023-2.6000000000000227 8.800000000000011-5.5 13.300000000000011-8.200000000000045 1.5-1 2.900000000000034-2.1999999999999886 1.8000000000000114-4.599999999999966-2.6000000000000227-6-3.5-12.600000000000023-5.100000000000023-18.900000000000034-6.899999999999977-28.5-12.799999999999955-57.099999999999966-17.099999999999966-86.19999999999999-2.6000000000000227-18.099999999999966-3.6999999999999886-36.30000000000001-6.600000000000023-54.19999999999999-2.5-14.699999999999989-13.599999999999966-24.599999999999994-26-22.900000000000006-5.699999999999989 0.8000000000000114-11.099999999999966 2-16.5 3.200000000000017-32.5 7.299999999999983-63.69999999999999 18.5-94.6 30.599999999999966-12.900000000000006 5.100000000000023-18.900000000000006 17.400000000000034-18.799999999999983 28.30000000000001-0.30000000000001137 2.1000000000000227 0.29999999999998295 4.900000000000034 1.299999999999983 7.400000000000034z m194.1-78.40000000000003c-15.800000000000011-1.799999999999983-25.69999999999999 13-24.899999999999977 25.30000000000001 1.099999999999966 19.30000000000001 3.599999999999966 38.60000000000002 6.099999999999966 57.80000000000001 4.600000000000023 32.69999999999999 11.700000000000045 64.89999999999998 19.5 97 3.6000000000000227 14.300000000000011 12.100000000000023 20.5 26.400000000000034 18.5 28.80000000000001-4 57.30000000000001-8 86.09999999999997-12.199999999999989 15.800000000000068-2.3000000000000114 22.600000000000023-10.900000000000034 21-27-3.199999999999932-33.5-3.8999999999999773-67-2-100.60000000000002 0.8000000000000682-11.600000000000023 2-23.19999999999999 2.2000000000000455-34.80000000000001 0.2999999999999545-10.799999999999983-8.800000000000068-19.899999999999977-19.700000000000045-20.299999999999983-26.799999999999955-1.0999999999999943-53.5-2-80.39999999999998-3v-0.4000000000000057c-11.5 0-23 1.0999999999999943-34.30000000000001-0.30000000000001137z m-253 231.10000000000002c5.900000000000006 5.699999999999989 11.300000000000011 12 18.400000000000006 16.399999999999977 0.09999999999999432 1.5 1.3000000000000114 2.1999999999999886 2.4000000000000057 3.1999999999999886 17.19999999999999 14.800000000000011 34.400000000000006 29.700000000000045 51.80000000000001 44.39999999999998 2.8999999999999773 2.5 6.299999999999983 4.400000000000091 10.199999999999989 5.300000000000068 7.199999999999989 1.7999999999999545 10.800000000000011 0.1999999999999318 14.900000000000006-7.100000000000023-6.599999999999994-1.6000000000000227-12.200000000000017-5.300000000000011-17.099999999999994-9.600000000000023l-29.700000000000017-28c-7-6.2999999999999545-13.199999999999989-13.699999999999989-21.099999999999994-19 0.4000000000000057-1.6999999999999886-1.0999999999999943-2.2999999999999545-1.9000000000000057-3.1999999999999886-8.699999999999989-9-17.69999999999999-18.19999999999999-26.69999999999999-27.69999999999999 1.6999999999999886-0.39999999999997726 2.4000000000000057 0.5 3.1999999999999886 1.1000000000000227 24.30000000000001 21.69999999999999 49.80000000000001 41.799999999999955 75.6 61.599999999999966 5.900000000000006 4.600000000000023 11.200000000000017 10.300000000000011 19.100000000000023 12 4 0.8000000000000114 8 1.1000000000000227 11-1.8000000000000114 6.099999999999966-6.099999999999966 11.599999999999966-13 16.899999999999977-20.099999999999966 1.6000000000000227-2.1999999999999886 1.1000000000000227-3.8000000000000114-1.099999999999966-5.400000000000034-4.600000000000023-3.2999999999999545-8.400000000000034-7.2999999999999545-10.900000000000034-12.399999999999977-7.300000000000011-14.699999999999989-14.799999999999983-29.5-22-44.39999999999998-14-29.400000000000034-26.5-59.400000000000034-38.39999999999998-89.60000000000002-3.8000000000000114-9.399999999999977-15.800000000000011-12.800000000000011-23.900000000000006-6.600000000000023-21.900000000000006 16.5-40.70000000000002 36-58.400000000000006 56.5-3.799999999999997 4.400000000000034-8.099999999999994 8.100000000000023-10.700000000000003 13.400000000000034-4.299999999999997 8.599999999999966-1.2999999999999972 21.69999999999999 6 29.099999999999966 10.500000000000014 10.400000000000034 21.200000000000003 21.400000000000034 32.39999999999999 31.900000000000034z m52.30000000000001 245.59999999999997c12.099999999999994-3.699999999999932 15.699999999999989-8.5 13-20.299999999999955-33.19999999999999 10.100000000000023-67.30000000000001 16.699999999999932-101.8 24.100000000000023 1.5999999999999943-2.300000000000068 3.5-2.5 5.099999999999994-2.800000000000068 7.799999999999997-2.1000000000000227 15.500000000000014-4.699999999999932 23.10000000000001-7.2999999999999545l58.19999999999999-20.300000000000068c8.099999999999994-2.8999999999999773 12.099999999999994-8.299999999999955 11.5-16.799999999999955-0.9000000000000057-12.200000000000045-2.4000000000000057-24.399999999999977-3.4000000000000057-36.700000000000045-0.29999999999998295-3-1.5999999999999943-3.2999999999999545-4.199999999999989-3.599999999999909-24.30000000000001-2.400000000000091-48.599999999999994-5-72.69999999999999-9.300000000000068-15.100000000000009-2.699999999999932-30.10000000000001-5.699999999999932-45.10000000000001-8.600000000000023-2.5-0.5-4.1000000000000085-0.599999999999909-4.700000000000003 2.5-1.5 8.400000000000091-3.200000000000003 16.90000000000009-4.200000000000003 25.5-2.8999999999999915 26.40000000000009-2.299999999999997 52.90000000000009 0.9000000000000057 79.20000000000005 0.7000000000000028 6 2.799999999999997 11.5 6.599999999999994 16.200000000000045 4 4.899999999999977 8.700000000000003 7.199999999999932 15.600000000000009 5.7999999999999545 14.399999999999991-3.2000000000000455 29-6.600000000000023 43.099999999999994-10.399999999999977 19.69999999999999-5.100000000000023 39.30000000000001-11.399999999999977 59-17.200000000000045z m119.10000000000002 89.20000000000005c-9.800000000000011-11.899999999999977-22.200000000000045-17.100000000000023-40.10000000000002-16.600000000000023-6.899999999999977 0.6000000000000227-17 0-25.100000000000023 6.7999999999999545-12.099999999999966 10.100000000000023-24.299999999999983 19.700000000000045-35.99999999999997 30.300000000000068-10.900000000000006 9.899999999999977-11.300000000000011 12.199999999999932-2.700000000000017 24.399999999999977 0.4000000000000057 0.7000000000000455 1 1.2999999999999545 1.5 2 7.300000000000011 9.700000000000045 16.30000000000001 17.700000000000045 26.100000000000023 24.5 13.199999999999989 9.299999999999955 27.5 11 42.80000000000001 5.7999999999999545 17.69999999999999-6 33.89999999999998-15.099999999999909 49.69999999999999-24.699999999999932 13.599999999999966-8.200000000000045 14.399999999999977-17.300000000000068 4.599999999999966-29.600000000000023l-20.799999999999955-22.899999999999977z m-83.30000000000001-24.300000000000068c-0.5-0.599999999999909-1.200000000000017-1.1999999999999318-1.6000000000000227-1.8999999999999773-1.799999999999983-4.199999999999932-4.099999999999994-3.199999999999932-7-1.1000000000000227-11.399999999999977 7.5-22.799999999999983 14.900000000000091-34.29999999999998 22.40000000000009l-0.8000000000000114-0.7000000000000455c0.5999999999999943-0.7000000000000455 1.0999999999999943-1.5 1.8000000000000114-2.2000000000000455 9.400000000000006-10 18.5-19.899999999999977 28.299999999999983-29.699999999999932 2.5-2.5 2.8000000000000114-4.600000000000023 1.200000000000017-7.7000000000000455-4.300000000000011-8.899999999999977-8.200000000000017-18-11.900000000000006-27.299999999999955-1.3000000000000114-3.3999999999999773-2.5-4.399999999999977-6.099999999999994-3.2000000000000455-28.099999999999994 8.600000000000023-56 17.200000000000045-84.6 23.800000000000068-1.6000000000000085 0.39999999999997726-2.8000000000000114 0.8999999999999773-3.4000000000000057 2.5-5.1000000000000085 14.199999999999932-5.300000000000011 30.799999999999955 7.099999999999994 43.299999999999955 12.5 12.700000000000045 28.5 19.399999999999977 44.599999999999994 26 7.5 3.2000000000000455 15.400000000000006 3.5 23.30000000000001 2.8999999999999773 2.0999999999999943-0.1999999999999318 3.9000000000000057-0.6000000000000227 5.400000000000006-2.2999999999999545 11-12.399999999999977 24.099999999999994-22.600000000000023 36.89999999999998-32.89999999999998 6.600000000000023-5.400000000000091 6.700000000000017-5.300000000000068 1.1000000000000227-11.900000000000091z m209.89999999999998-26.5c-4.300000000000011-5.399999999999977-9.800000000000011-7-16.19999999999999-6.2999999999999545-19.5 2.1000000000000227-33.19999999999999 13.200000000000045-42.89999999999998 29.5-6.400000000000034 10.799999999999955-15.400000000000034 18.100000000000023-26.30000000000001 23.399999999999977-5.900000000000034 2.800000000000068-12.100000000000023 5.100000000000023-18.600000000000023 7.100000000000023 4.800000000000011 6.100000000000023 10 11.299999999999955 13.699999999999989 17.600000000000023 3.900000000000034 6.5 6.900000000000034 13.299999999999955 5.400000000000034 21-0.8000000000000114 3.8999999999999773 0.8000000000000114 4 3.599999999999966 3.6000000000000227 5.5-0.8000000000000682 11-1.400000000000091 16.5-2.5 32.400000000000034-6.600000000000023 59.30000000000001-23.200000000000045 82.40000000000003-46.5 7.5-7.5 8-12.700000000000045 2.3999999999999773-22-5.699999999999989-9.200000000000045-13.5-16.600000000000023-20-24.90000000000009z m469.8-551c0-2.2999999999999545-2-3.899999999999949-3.2999999999999545-5.499999999999943-5.7000000000000455-6.800000000000011-11.100000000000023-13.900000000000006-19.700000000000045-17.5-1.3999999999999773-1-2.7000000000000455-2-4.100000000000023-2.9000000000000057-11.600000000000023-7.099999999999994-24.199999999999932-11.200000000000017-37.89999999999998-11.300000000000011-0.39999999999997726-0.4000000000000057-1-1.0999999999999943-1.5-1.0999999999999943-9.899999999999977-0.6999999999999886-19.799999999999955-1-29.700000000000045 0.4000000000000057-36 5.299999999999983-71.5 13.299999999999983-107.39999999999998 19.400000000000006-22.799999999999955 3.8999999999999773-45.60000000000002 7.299999999999983-68.79999999999995 7.399999999999977-23.399999999999977 0.20000000000001705-46.60000000000002-3.299999999999983-69.70000000000005-7.399999999999977-24.600000000000023-4.5-48.5-11.700000000000017-72.79999999999995-17.100000000000023-1.400000000000034-0.29999999999998295-2.8000000000000114-1.6999999999999886-4.100000000000023 0.10000000000002274-3-2.1000000000000227-6.199999999999989-3.3000000000000114-10.100000000000023-2.9000000000000057-2.5-2.0999999999999943-5.699999999999989-1.9000000000000057-8.399999999999977-2.5-42.89999999999998-9.5-86.19999999999999-16-130.3-11.599999999999994-5 0.39999999999997726-10 1.1999999999999886-15 2.0999999999999943-4.699999999999989 0.799999999999983-9.399999999999977 1.9000000000000057-14.099999999999966 2.9000000000000057 1.599999999999966 0.5999999999999943 2.8999999999999773 0.5 4.199999999999989 0.19999999999998863 17.80000000000001-3.6999999999999886 36-5.400000000000006 54.19999999999999-5 34.80000000000001 0.9000000000000057 68.60000000000002 6.599999999999994 102.30000000000001 14.800000000000011 2.099999999999966 0.5 4.300000000000011 1.5999999999999943 6.199999999999989-0.10000000000002274 3.6000000000000227 3.9000000000000057 8.199999999999989 3.9000000000000057 13 3.9000000000000057 2.3999999999999773 2.200000000000017 5.5 2.5999999999999943 8.299999999999955 3.3000000000000114 26.800000000000068 6.900000000000006 53.30000000000007 14.400000000000006 80.5 19.099999999999994 25.600000000000023 4.5 51.5 6.599999999999994 77.40000000000009 4.900000000000006 32.299999999999955-2.200000000000017 64.29999999999995-9 96.29999999999995-14.300000000000011 21.700000000000045-3.5 43.299999999999955-8.699999999999989 65.29999999999995-10.099999999999994 6.100000000000023-0.30000000000001137 12.400000000000091-0.30000000000001137 18.5-0.5 0.900000000000091 1.5 2.5 0.9000000000000057 3.7000000000000455 1.0999999999999943 17.5 2.0999999999999943 33.60000000000002 7.300000000000011 46.89999999999998 19.30000000000001 19.600000000000023 17.69999999999999 25.700000000000045 40.69999999999999 25 65.79999999999998-0.6999999999999318 23.900000000000034-7.899999999999977 46.400000000000034-18.799999999999955 67.60000000000002-17 33.099999999999966-40.5 60.89999999999998-69.5 83.89999999999998-16.399999999999977 12.900000000000034-34.39999999999998 22.5-55.700000000000045 24.30000000000001-3.6000000000000227 0.19999999999998863-7.399999999999977-1.3000000000000114-10.699999999999932 1.1999999999999886-1.7000000000000455-1.3000000000000114-3.7000000000000455-1.599999999999966-5.7000000000000455-1.8999999999999773-12.899999999999977-1.6000000000000227-24.200000000000045-6.800000000000011-35.299999999999955-15.100000000000023 12.099999999999909-4.199999999999989 18.09999999999991-12.899999999999977 22.899999999999977-23.5 9-19.899999999999977 17.299999999999955-40 29.100000000000023-58.39999999999998 10.299999999999955-16.19999999999999 22.299999999999955-30.400000000000034 39.39999999999998-40 4.7999999999999545-2.6999999999999886 10.100000000000023-4.199999999999989 15.600000000000023-6.699999999999989-1.8000000000000682-0.5-2.900000000000091-0.8000000000000114-4-1.1000000000000227-24.700000000000045-5.899999999999977-49.5-4.800000000000011-74.30000000000007-0.6000000000000227l-61.19999999999993 13.200000000000045c-9.800000000000068 1.6999999999999886-19.800000000000068 2.5-29.600000000000023 0.19999999999998863-14.300000000000068-3.400000000000034-27.100000000000023-10.199999999999989-39.30000000000007-18.100000000000023-15.899999999999977-10.199999999999989-30.799999999999955-21.599999999999994-45.799999999999955-33.099999999999994-8-6-11.700000000000045-5.199999999999989-16.799999999999955 3.5999999999999943-5.400000000000091 9.600000000000023-7.600000000000023 20.100000000000023-9.900000000000091 30.600000000000023-5.899999999999977 26.5-4.199999999999932 53.30000000000001-3.7999999999999545 80.09999999999997 0 7.100000000000023 5 10.100000000000023 10.100000000000023 13.100000000000023 2.1000000000000227 1.3000000000000114 4.600000000000023 2 7 2.6000000000000227 13.5 3.599999999999966 26.699999999999932 7.199999999999989 39.799999999999955 11.599999999999966 16.300000000000068 5.400000000000034 32.10000000000002 11.400000000000034 46.10000000000002 21.400000000000034 4.399999999999977 3.1999999999999886 8.799999999999955 6.2999999999999545 14.299999999999955 7.099999999999966 4.7000000000000455 0.6999999999999886 6.100000000000023 3.3000000000000114 7.100000000000023 7.5 3.5 14.400000000000034 4.600000000000023 29.100000000000023 4.2000000000000455 43.900000000000034 0.6999999999999318-1.5 1.1999999999999318-2.900000000000034 1.6000000000000227-4.300000000000011 3.2999999999999545-13.300000000000011 4.2999999999999545-26.69999999999999 3.8999999999999773-40.30000000000001-0.10000000000002274-2.8999999999999773 0.39999999999997726-4.399999999999977 3.8999999999999773-4 6.2000000000000455 0.8000000000000114 12.5 0.19999999999998863 18.600000000000023-0.6999999999999886 4-0.6000000000000227 6.5 0.8000000000000114 9.399999999999977 3.1999999999999886 11.100000000000023 9.300000000000011 23.799999999999955 15.800000000000011 38.10000000000002 18.69999999999999 7.7999999999999545 1.6000000000000227 16.100000000000023 3.1000000000000227 24.199999999999932 0.6000000000000227 1.5 1.099999999999966 3.2000000000000455 0.8000000000000114 4.900000000000091 0.5999999999999659 16.5-2.099999999999966 31.399999999999977-8.5 45.19999999999993-17.599999999999966 23.200000000000045-15.100000000000023 42.10000000000002-34.5 58.80000000000007-56.400000000000034 23.299999999999955-30.69999999999999 40.39999999999998-64.29999999999995 44.299999999999955-103.09999999999997 2.6000000000000227-22.600000000000023 0.10000000000002274-45.10000000000002-13-65z m-213.70000000000005 135.90000000000003c0-12.300000000000011 11.5-23.099999999999966 22.700000000000045-22.599999999999966 14.100000000000023 0.6999999999999886 24.100000000000023 11 23.5 24.299999999999955-0.5 12.5-11.399999999999977 23.100000000000023-23.600000000000023 22.100000000000023-14.899999999999977-1.1999999999999886-22.600000000000023-9.699999999999989-22.600000000000023-23.80000000000001z m-307.19999999999993 240.3c3.599999999999966 0.7999999999999545 7.399999999999977-2 8.599999999999966-5.899999999999977 0.9000000000000341-2.8999999999999773 1.6000000000000227-5.899999999999977 2.400000000000034-8.700000000000045 8.699999999999989-34.69999999999993 12.599999999999966-69.59999999999997 5.899999999999977-105.19999999999999-1.1000000000000227-5.699999999999989-2.3000000000000114-10.800000000000011-8.399999999999977-13-1.8000000000000114-0.5999999999999659-2.900000000000034-3.1999999999999886-5.7000000000000455-1.099999999999966-2.6999999999999886 1.8999999999999773-2.3999999999999773 3.8999999999999773-1.6999999999999886 6.399999999999977 5.900000000000034 22.30000000000001 6.5 44.89999999999998 3.900000000000034 67.69999999999999-1.2000000000000455-0.39999999999997726-1.3000000000000114-1.3000000000000114-1.400000000000034-2-3.599999999999966-17.80000000000001-11.699999999999989-33.69999999999999-20.19999999999999-49.30000000000001-4.399999999999977-8-4.300000000000011-7.7999999999999545-12-3.8999999999999773-3.6999999999999886 1.8999999999999773-3.8999999999999773 3.6000000000000227-1.8000000000000114 6.899999999999977 6.699999999999989 11.600000000000023 13.300000000000011 23.5 17.5 36.400000000000034 6.600000000000023 20.599999999999966 8.199999999999989 41.900000000000034 7.5 63.400000000000034-0.19999999999998863 4.399999999999977 1.1000000000000227 7.399999999999977 5.400000000000034 8.299999999999955z m37.39999999999998-16.200000000000045c-1.1000000000000227 4.100000000000023-0.10000000000002274 7 3.8000000000000114 8.700000000000045 3.8999999999999773 1.7999999999999545 6.399999999999977-0.10000000000002274 8.5-3.2000000000000455 1-1.3999999999999773 1.8999999999999773-2.7999999999999545 2.599999999999966-4.399999999999977 5.800000000000011-11.100000000000023 11.300000000000011-22.199999999999932 16-33.89999999999998 9.900000000000034-24.399999999999977 17.5-49.5 20.30000000000001-75.80000000000001 1.1999999999999886-10.800000000000011 1.1000000000000227-11-8.800000000000011-9.399999999999977-3.1999999999999886 0.5-4.2999999999999545 1.8999999999999773-4.5 5-0.8999999999999773 15.099999999999966-4.7999999999999545 29.5-8.5 44-1.6999999999999886 6.199999999999989-4.199999999999989 12.300000000000011-6.199999999999989 18.5-1.099999999999966-3.1999999999999886-0.8999999999999773-5.900000000000034-1.099999999999966-8.699999999999989-0.30000000000001137-6.100000000000023 0.8999999999999773-12.5-1.8000000000000114-18.400000000000034 0.30000000000001137-0.30000000000001137 0.6999999999999886-0.39999999999997726 0.5999999999999659-0.6999999999999886-1.099999999999966-11.199999999999989-3.8999999999999773-22.100000000000023-6.5-33-0.5-2-2-1.8999999999999773-3.599999999999966-1.8000000000000114-3.5 0.4000000000000341-6.800000000000011 0.4000000000000341-10.100000000000023 2-0.0999999999999659 0.10000000000002274 0 0.6000000000000227 0.10000000000002274 1 2 5.900000000000034 2 12.600000000000023 5.300000000000011 18.30000000000001-1.6000000000000227 0.8999999999999773-0.4000000000000341 2.1000000000000227-0.30000000000001137 3.1999999999999886 3 15.600000000000023 3.3000000000000114 31.100000000000023 1.5 46.80000000000001-1.400000000000034 14-3.400000000000034 28-7.300000000000011 41.799999999999955z m-116.69999999999999-71.29999999999995c-2.1999999999999886 1.1000000000000227-2.6000000000000227 1.8000000000000114-1.1000000000000227 3.8999999999999773 3.1999999999999886 4.300000000000011 5.900000000000034 8.5 8.699999999999989 13 13.800000000000011 22 19 46.5 22 71.80000000000007 0.5 4.5 1.400000000000034 8 6.600000000000023 8.5 4.300000000000011 0.39999999999997726 6.399999999999977-2.1000000000000227 7.300000000000011-7.7000000000000455 3.6999999999999886-21.200000000000045 4.199999999999989-42.60000000000002 2.8999999999999773-64.10000000000002-0.8000000000000114-14.399999999999977-3.3999999999999773-28.5-7.099999999999966-42.299999999999955-0.30000000000001137-1.1000000000000227 0.0999999999999659-3.900000000000034-2.400000000000034-2.6000000000000227-3.5 1.6999999999999886-7.199999999999989 3.3999999999999773-9.899999999999977 5.899999999999977-1.6000000000000227 1.6000000000000227 0.5 4.800000000000011 1.099999999999966 7.100000000000023 3.2000000000000455 14.300000000000011 4.900000000000034 28.899999999999977 4.7000000000000455 43.5-4.7000000000000455-11.800000000000011-10.600000000000023-22.69999999999999-17.600000000000023-33.10000000000002-5.899999999999977-9-5.600000000000023-9-15.199999999999989-3.8999999999999773z m-42.19999999999999 44.60000000000002c-5.400000000000034-7.600000000000023-5.2000000000000455-7.5-11.300000000000011-0.8999999999999773-2.5 2.699999999999932-2.6999999999999886 4.599999999999909-0.4000000000000341 7.599999999999909 6.600000000000023 8.900000000000091 11.400000000000034 19.100000000000023 15 29.700000000000045 4.900000000000034 14.299999999999955 8.200000000000045 28.899999999999977 10.100000000000023 43.700000000000045 0.8000000000000114 6 6.5 8.899999999999977 10.899999999999977 5.699999999999932 2.400000000000034-1.7999999999999545 2.5-4.699999999999932 2.900000000000034-7.2999999999999545 3.8000000000000114-28.399999999999977 2.8999999999999773-56.5-2.1999999999999886-84.60000000000002-1.8000000000000114-10.199999999999989-4.900000000000034-20.100000000000023-8.700000000000045-30.399999999999977-2.5 4-3.8999999999999773 7.899999999999977-6.7999999999999545 10.699999999999989-2.2000000000000455 1.8999999999999773-2.5 4.099999999999966-1.5 6.699999999999989 3.599999999999966 10.199999999999989 4.899999999999977 20.899999999999977 6.2999999999999545 31.600000000000023 0.4000000000000341 2.5 0.5 5.100000000000023 0.8000000000000114 7.5 0.30000000000001137 2.3999999999999773 0.6000000000000227 4.699999999999932-0.30000000000001137 8.299999999999955-4.399999999999977-10.699999999999932-8.899999999999977-19.799999999999955-14.799999999999955-28.299999999999955z m212.5 243.69999999999993c-1.1000000000000227 1.1000000000000227-3 2.1000000000000227-2.400000000000034 4.2000000000000455 1.6000000000000227 5.600000000000023 0.30000000000001137 10.799999999999955-0.8000000000000114 16.5 43.200000000000045-48.200000000000045 83.89999999999998-98.10000000000002 106.60000000000002-159.79999999999995-8.100000000000023 18.299999999999955-18.299999999999955 35.59999999999991-29.700000000000045 52.19999999999993-21.899999999999977 31.200000000000045-47 59.89999999999998-73.69999999999993 86.89999999999998z m62.39999999999998-128.79999999999995c-6.899999999999977 10.899999999999977-14.100000000000023 21.799999999999955-22 31.899999999999977-17.600000000000023 22.700000000000045-36.69999999999999 43.89999999999998-56.5 64.70000000000005-5.300000000000011 5.399999999999977-5.300000000000011 5.399999999999977-0.5 11.299999999999955 3.6999999999999886 4.600000000000023 3.6000000000000227 4.600000000000023 7.300000000000011-0.2999999999999545 17.19999999999999-21.100000000000023 33.49999999999994-42.60000000000002 48.49999999999994-65.30000000000007 8.900000000000091-13.299999999999955 17-27.199999999999932 23.200000000000045-42.299999999999955z m-128 83.29999999999995c3.1999999999999886-0.5 5.199999999999989-2 7-4.5 21.30000000000001-27.699999999999932 40-56.799999999999955 53.5-89 1.1000000000000227-2.599999999999909 2.1999999999999886-5.2999999999999545 3-8 0.8000000000000114-2.699999999999932 3-5 2.6000000000000227-9.399999999999977-20.5 45.39999999999998-50.10000000000002 82.89999999999998-83.90000000000003 117.60000000000002 2.8000000000000114-1.2999999999999545 5.699999999999989-2.7999999999999545 8.5-4 3.1999999999999886-0.8999999999999773 6.199999999999989-2.1000000000000227 9.300000000000011-2.7000000000000455z m32.89999999999998 6.400000000000091c3 3 4.600000000000023 3 6.900000000000034-0.5 16.5-23.5 32.69999999999999-47 46.599999999999966-72.20000000000005 3.2000000000000455-5.899999999999977 6.600000000000023-11.5 8.700000000000045-18.600000000000023l-1.5 1.1000000000000227c-17.600000000000023 28.899999999999977-39.400000000000034 54.200000000000045-61.700000000000045 79.20000000000005-4.7999999999999545 5.699999999999932-4.699999999999989 5.399999999999977 1 11z m126.39999999999998-342.1c-4.2999999999999545-1.5-8.599999999999909-2.400000000000034-13.799999999999955-3.900000000000034 4.5 7 10.100000000000023 11.199999999999989 16.799999999999955 13 14.400000000000091 4.100000000000023 20 15.5 24.200000000000045 28.100000000000023 4.100000000000023 12.300000000000011 5.2999999999999545 25.30000000000001 5.600000000000023 38.19999999999999 1.2999999999999545-14.800000000000011 0.8999999999999773-29.5-3-43.80000000000001-4.600000000000023-16-14.600000000000023-26.30000000000001-29.800000000000068-31.599999999999966z m-443.69999999999993 207c0.5999999999999659 1.1000000000000227 1.9999999999999716 1.1999999999999318 3.3999999999999773 1.5 21.30000000000001 4.2999999999999545 42.69999999999999 8.699999999999932 64.1 12.799999999999955 3.5999999999999943 0.7000000000000455 7.5 0.7000000000000455 11.300000000000011-0.1999999999999318 7.299999999999983-1.7000000000000455 10-4.5 11.099999999999994-12-6.699999999999989 1.599999999999909-13.199999999999989 1.099999999999909-19.30000000000001-0.20000000000004547l-37.69999999999999-9.299999999999955c-8.800000000000011-2-17.19999999999999-5.100000000000023-26.5-5.900000000000091-0.30000000000001137-1.5-1.8000000000000114-1.2999999999999545-2.9000000000000057-1.6999999999999318-11.400000000000006-3.3999999999999773-23.099999999999994-6.800000000000068-34.8-10.300000000000068 1.4000000000000057-1 2.4000000000000057-0.599999999999909 3.299999999999997-0.5 30.400000000000006 6.7000000000000455 61.30000000000001 11.600000000000023 92.30000000000001 16.100000000000023 7.199999999999989 1 14.099999999999994 3.300000000000068 22.099999999999994 1.2000000000000455 3.9000000000000057-1.1000000000000227 7.800000000000011-2.6000000000000227 9.5-6.100000000000023 3.4000000000000057-7.5 5.900000000000006-15.200000000000045 8.099999999999994-23.100000000000023 0.700000000000017-2.3999999999999773-0.4000000000000057-3.3999999999999773-3-3.7999999999999545-5.400000000000006-0.6000000000000227-10.5-2.2000000000000455-14.599999999999994-5.100000000000023-12.199999999999989-8.399999999999977-24.5-16.899999999999977-36.599999999999994-25.600000000000023-23.700000000000017-17.099999999999966-46.30000000000001-35.5-68.4-54.19999999999999-6.900000000000006-5.800000000000011-19.200000000000003-3.3000000000000114-24.5 5-14.099999999999994 22.400000000000034-24.200000000000003 45.900000000000034-33 69.69999999999999-1.9000000000000057 5.100000000000023-4.5 9.899999999999977-4.899999999999999 15.200000000000045-0.8000000000000043 8.600000000000023 6.800000000000004 17.699999999999932 16.300000000000004 20.299999999999955 13.599999999999994 3.8999999999999773 27.5 7.899999999999977 41.69999999999999 11.399999999999977 7.5 1.8000000000000682 14.800000000000011 4.5 23 4.800000000000068z"/>
</svg>
