<svg xmlns="http://www.w3.org/2000/svg" viewBox="0 0 1000 1000" width="1000" height="1000">
<path d="M884.1 650.3c-6.300000000000068-1.6999999999999318-12.200000000000045-0.7999999999999545-18.200000000000045 1.1000000000000227-13.100000000000023 4.2000000000000455-26.199999999999932 8.600000000000023-39.299999999999955 12.5-17.800000000000068 5.2000000000000455-35.30000000000007 11.5-53.5 15.100000000000023-4.2000000000000455 0.7999999999999545-8.600000000000023 1.1000000000000227-11.5-2.2999999999999545-3.300000000000068-3.800000000000068-0.7000000000000455-7.900000000000091 1.1000000000000227-11.5 7-13.600000000000023 17.59999999999991-23.40000000000009 31.399999999999977-29.90000000000009 7.7999999999999545-3.699999999999932 15.399999999999977-7.599999999999909 23.199999999999932-11.199999999999932 9.5-4.399999999999977 11.700000000000045-11.5 8.400000000000091-21-3.300000000000068-9.700000000000045-10.600000000000023-14.5-20.600000000000023-13.399999999999977-6.600000000000023 0.7999999999999545-12.200000000000045 4-17.399999999999977 8.199999999999932-18.5 15-34.60000000000002 32.60000000000002-48.60000000000002 51.39999999999998-23.800000000000068 31.700000000000045-56.700000000000045 32.40000000000009-90.89999999999998 30.600000000000023-7.400000000000091-0.2999999999999545-11.5-4.600000000000023-10.100000000000023-13.299999999999955 3.1000000000000227-19.200000000000045 4.899999999999977-38.80000000000007 8.399999999999977-57.89999999999998 8.5-47.200000000000045 20.399999999999977-92.70000000000005 53.10000000000002-130.70000000000005 13.299999999999955-15.399999999999977 25.100000000000023-24.399999999999977 46-21.80000000000001 15.799999999999955 2 26.899999999999977-7.5 34.299999999999955-21.599999999999966 5.600000000000023-10.5 3.800000000000068-20.900000000000034 1.1000000000000227-31.100000000000023-4.5-17-2.2000000000000455-32.5 5.899999999999977-47.80000000000001 4.2000000000000455-7.800000000000011 8-15.899999999999977 10-24.80000000000001 3.300000000000068-14.699999999999989-2.3999999999999773-26.399999999999977-16-32.89999999999998-6.399999999999977-3-13.100000000000023-4.5-19.899999999999977-4.399999999999977-28.200000000000045 0.7999999999999545-54.89999999999998-4.600000000000023-81.29999999999995-14.800000000000011-21.600000000000023-8.300000000000011-42.10000000000002-2.900000000000034-52.5 18.599999999999966-3.7000000000000455 7.7000000000000455-10.200000000000045 13.200000000000045-17.700000000000045 18.100000000000023-12.200000000000045 8-26.600000000000023 11.600000000000023-38.60000000000002 19.19999999999999-13.399999999999977 8.5-26.399999999999977 8.199999999999989-40.39999999999998 5.5-42.10000000000002-8-84.19999999999999-16.19999999999999-126.19999999999999-24.599999999999966-26.69999999999999-5.300000000000011-27.30000000000001-5.800000000000011-18.19999999999999-31.30000000000001 6.099999999999966-17.30000000000001 11.899999999999977-35.80000000000001 29.69999999999999-45.60000000000002 22.80000000000001-12.599999999999994 45.39999999999998-25.899999999999977 71.69999999999999-30.399999999999977 8.699999999999989-1.6000000000000227 17.69999999999999-2.700000000000017 25-8.700000000000017 8.299999999999955-6.799999999999983 13.200000000000045-15.099999999999994 10.600000000000023-26.099999999999994-2.5-11.099999999999994-10.100000000000023-17.80000000000001-21.200000000000045-20-9.599999999999966-2-17.299999999999955 2.9000000000000057-24.69999999999999 8.099999999999994-10 7.200000000000017-16.30000000000001 17.599999999999994-23.399999999999977 27.099999999999994-5.199999999999989 7-12.5 9.400000000000006-18.600000000000023 6-7.300000000000011-4-2.6999999999999886-11.5 0.10000000000002274-17.19999999999999 9.199999999999989-18.5 23.30000000000001-32.80000000000001 40.19999999999999-44.5 9.100000000000023-6.299999999999997 17.5-13.200000000000003 21.600000000000023-24.099999999999994 4.5-12.200000000000003 0.8999999999999773-20.700000000000003-11.300000000000011-25.5-12.5-4.800000000000011-23.5 0.29999999999999716-30.900000000000034 16.39999999999999-10.299999999999955 22.700000000000003-26 41.89999999999999-40.19999999999999 62.10000000000001-2.5 3.4000000000000057-5.199999999999989 7.900000000000006-10.699999999999989 6.599999999999994-5.199999999999989-1.1999999999999886-6.600000000000023-5.900000000000006-7.5-10.099999999999994-3.5-15.900000000000006-1.6999999999999886-31.400000000000006 5.399999999999977-46.10000000000001 3.8000000000000114-8 7.600000000000023-16.200000000000003 9.300000000000011-25 2.8000000000000114-14.799999999999997-2.099999999999966-22.5-15.699999999999989-24.599999999999994-14.600000000000023-2.3000000000000043-20.30000000000001 2.3999999999999915-22.5 17.89999999999999-1.1000000000000227 8.900000000000006-0.30000000000001137 17.80000000000001 0.19999999999998863 26.700000000000003 0.5 8.600000000000009 1 17.10000000000001 1 25.60000000000001-0.39999999999997726 40.900000000000006-10.399999999999977 80-19.80000000000001 119.29999999999998-5.899999999999977 24.69999999999999-10.5 49.5-10.399999999999977 75.19999999999999 0 13.5 5.800000000000011 21.5 18.100000000000023 26.30000000000001 14.799999999999955 5.800000000000011 30.19999999999999 8.800000000000011 45.599999999999966 12.300000000000011 12.400000000000034 2.8999999999999773 24.80000000000001 5.699999999999989 36.400000000000034 11.100000000000023 5.699999999999989 2.6999999999999886 7.399999999999977 7.399999999999977 7.2999999999999545 12.5-0.0999999999999659 5.199999999999989-5.599999999999966 4-8.899999999999977 4.899999999999977-7.300000000000011 1.8999999999999773-14.699999999999989 3.3000000000000114-22.100000000000023 4.800000000000011-35.299999999999955 7.099999999999966-66.59999999999997 21.399999999999977-89.5 50.5-10.099999999999966 12.899999999999977-18.399999999999977 26.80000000000001-26.099999999999966 41.39999999999998-1.1000000000000227-23.399999999999977-1.400000000000034-46.599999999999966-5.199999999999989-69.59999999999997-2.3000000000000114-13.200000000000045-4.800000000000011-26.400000000000034-12.600000000000023-37.80000000000001-3.1000000000000227-4.600000000000023-7.100000000000023-9-13.5-7.300000000000011-11.199999999999989 2.8999999999999773-21.30000000000001 8.100000000000023-28.69999999999999 17.100000000000023-19.200000000000017 23.599999999999966-37.900000000000006 47.799999999999955-57 71.5-2.8000000000000114 3.5-5.5 8-11.800000000000011 8-1-21-3.4000000000000057-41.700000000000045 0.6999999999999886-62.60000000000002 5.700000000000017-29 20.5-42.69999999999999 49.80000000000001-46.10000000000002 21.69999999999999-2.3999999999999773 42.5-7.7999999999999545 62.30000000000001-17.099999999999966 10.099999999999966-4.699999999999989 18-21.400000000000034 15.099999999999966-33.30000000000001-2.5-10.5-12-15.5-26.299999999999955-13.600000000000023-16.100000000000023 2.1000000000000227-29.80000000000001 9.700000000000045-43.00000000000003 18.900000000000034-7.799999999999983 5.5-15.5 11.300000000000011-23.799999999999983 16.099999999999966-7 4-11.5 0.8000000000000114-10.400000000000006-7.2999999999999545 1.0999999999999943-8.600000000000023 4.199999999999989-16.30000000000001 10.099999999999994-23.200000000000045 10.900000000000006-12.899999999999977 20.599999999999994-26.69999999999999 27.099999999999994-42.299999999999955 7-17.00000000000003 1.4000000000000057-32.50000000000003-14.299999999999983-41.30000000000001-15.200000000000017-8.5-26.80000000000001-6.600000000000023-36.80000000000001 7.099999999999994-7.099999999999994 9.5-11.599999999999994 20.599999999999994-11.699999999999989 32.49999999999997-0.20000000000001705 15.700000000000045-2.700000000000017 30.700000000000045-6.5 45.700000000000045-1.4000000000000057 5.699999999999989-3 11.5-7.800000000000011 16.19999999999999-8.699999999999989-18.19999999999999-12.199999999999989-59-6.599999999999994-76.4 1.799999999999983-5.5 1.0999999999999943-10.200000000000017-2.4000000000000057-14.5-5.199999999999989-6.700000000000017-12.300000000000011-10.800000000000011-20.400000000000006-13.200000000000017-18.099999999999994-5.5-30.099999999999994 2.3000000000000114-33.69999999999999 20.700000000000017-3.5 17.799999999999983 4 32.599999999999994 12.399999999999991 46.70000000000002 18.500000000000014 30.299999999999955 23.799999999999997 63.599999999999966 27.60000000000001 98.09999999999997 3.0999999999999943 28.400000000000034-5.300000000000011 55.69999999999999-4.700000000000017 83.80000000000001 1 44.5 0.30000000000001137 89.10000000000002 5.400000000000006 133.39999999999998 0.9000000000000057 7.300000000000068-0.19999999999998863 17.600000000000023 9.599999999999994 19.800000000000068 8.600000000000023 2 13.100000000000023-6.400000000000091 17.700000000000017-12 20.900000000000006-25.90000000000009 41.69999999999999-51.80000000000007 55.5-82.60000000000002 4.5-10.100000000000023 11.099999999999994-18.900000000000034 21.599999999999994-27-0.30000000000001137 5.5-0.5 8.899999999999977-0.8000000000000114 12.199999999999989-2.5999999999999943 39.099999999999966-10.5 77.30000000000001-18.19999999999999 115.69999999999999-4.199999999999989 20.899999999999977 2.3000000000000114 37.39999999999998 19.19999999999999 50.700000000000045 12 9.399999999999977 26.400000000000034 8.799999999999955 40.10000000000002 11 29.69999999999999 4.699999999999932 60.099999999999966 5.7999999999999545 85.59999999999997 25.199999999999932 7.100000000000023 5.399999999999977 16.30000000000001 8 24.700000000000045 11.899999999999977-7.300000000000011 3.400000000000091-10 3.6000000000000227-16.700000000000045 3.900000000000091-36 1.6999999999999318-70.59999999999997 9.799999999999955-103.59999999999997 24.09999999999991-14.100000000000023 6.2000000000000455-15.300000000000011 15.300000000000068-4.900000000000034 26.90000000000009 3.7000000000000455 4.099999999999909 8 7.399999999999977 13.100000000000023 9.799999999999955 27.600000000000023 12.799999999999955 55.89999999999998 22.700000000000045 85.60000000000002 29.200000000000045 19.299999999999955 4.199999999999932 39 6.399999999999977 57.69999999999999 14.599999999999909 36.80000000000001 16.200000000000045 68.59999999999997 40.200000000000045 101.09999999999997 63 12.200000000000045 8.700000000000045 27 14.300000000000068 36.5 26.40000000000009 6.899999999999977 8.799999999999955 15.700000000000045 11.799999999999955 25.800000000000068 12.599999999999909 9.799999999999955 0.8000000000000682 19-4.5 20-11 1.1999999999999318-7.399999999999977-6.5-18.399999999999977-15-20.799999999999955-22.5-6.5-41.90000000000009-18.600000000000023-60.10000000000002-32.89999999999998-9.300000000000068-7.300000000000068-8.600000000000023-13.600000000000023 2.699999999999932-16.5 24.700000000000045-6.300000000000068 49.30000000000007-16.300000000000068 75.20000000000005-3.8999999999999773 3.7999999999999545 1.7999999999999545 8.700000000000045 2.099999999999909 13 2.2999999999999545 5.2999999999999545 0.20000000000004547 11 0.39999999999997726 14.299999999999955-5.600000000000023 3.6000000000000227-6.600000000000023 2.300000000000068-12.399999999999977-1.5-18.399999999999977-7-11-17.09999999999991-13.100000000000023-29.399999999999977-12.200000000000045-29.699999999999932 2.1000000000000227-59.299999999999955 6.5-89.19999999999993 7-7.7000000000000455 0.10000000000002274-9.400000000000034-2.3999999999999773-5.900000000000034-9 9.099999999999966-17.299999999999955 21.69999999999999-30.799999999999955 41.49999999999994-35.799999999999955 5.900000000000091-1.5 12.600000000000023-3.7999999999999545 12-10.700000000000045-1-11.299999999999955-5.899999999999977-21.699999999999932-16-27.5-8.399999999999977-4.699999999999932-15 2.400000000000091-20.799999999999955 7.300000000000068-17.5 14.5-33.19999999999999 30.799999999999955-45.60000000000002 50-4.599999999999966 7.100000000000023-10.5 13.600000000000023-19.69999999999999 13.100000000000023-27.099999999999966-1.400000000000091-49.80000000000001-14.800000000000068-74.5-28.100000000000023 14.900000000000034-3 27.600000000000023-5.300000000000068 40.30000000000001-8.300000000000068 13-3.099999999999909 26-6.5 38.80000000000001-10.099999999999909 17.30000000000001-4.900000000000091 33.30000000000001-13 48.69999999999999-22 14.5-8.400000000000091 13.600000000000023-20.90000000000009-1-29.100000000000023-4.800000000000011-2.6000000000000227-10-4.600000000000023-15.199999999999989-6.300000000000068-15.400000000000034-4.899999999999977-31.100000000000023-8.699999999999932-46.19999999999999-14.299999999999955-15.600000000000023-5.899999999999977-31.600000000000023-11.600000000000023-47.200000000000045-24.700000000000045 7-1.1999999999999318 10.900000000000034-2 15.200000000000045-2.3999999999999773 16.69999999999999-1.8999999999999773 33.39999999999998-4.2999999999999545 50.19999999999999-5.199999999999932 26.69999999999999-1.6000000000000227 47.599999999999966-13.800000000000068 65.19999999999999-33.10000000000002 11.100000000000023-12.200000000000045 20.600000000000023-25.600000000000023 31.100000000000023-38.200000000000045 3.199999999999932-3.8999999999999773 7.199999999999932-10 13.600000000000023-6.600000000000023 6.199999999999932 3.2000000000000455 7.2999999999999545 9.800000000000068 5.7999999999999545 16.200000000000045-7.899999999999977 32.10000000000002-7.2000000000000455 64.70000000000005-4.2000000000000455 97.20000000000005 1.3000000000000682 13.699999999999932 4.7000000000000455 17.09999999999991 18.700000000000045 20.399999999999977 15 3.5 30 2.1000000000000227 45 0.2999999999999545 31.799999999999955-3.8999999999999773 62.60000000000002-5.100000000000023 94.29999999999995 6 30.200000000000045 10.600000000000023 57.30000000000007 24.100000000000023 79.80000000000007 46.80000000000007 4.899999999999977 4.899999999999977 10.299999999999955 9 16.600000000000023 11.899999999999977 14.399999999999977 6.600000000000023 28.199999999999932-0.3000000000000682 31.399999999999977-15.800000000000068 1.7999999999999545-8.599999999999909 0.10000000000002274-15.699999999999932-9.800000000000068-18.5-7.2999999999999545-2-14.399999999999977-4.399999999999977-21.59999999999991-6.599999999999909-17.100000000000023-5.300000000000068-34.60000000000002-9.100000000000023-50.40000000000009-17.90000000000009-12.199999999999932-6.899999999999977-13.399999999999977-18.59999999999991-1.1999999999999318-23.199999999999932 27.100000000000023-10.100000000000023 54.19999999999993-23.399999999999977 84.60000000000002-8.899999999999977 13 6.199999999999932 26.899999999999977-2 31.09999999999991-16.40000000000009 3.5-11-4.2999999999999545-21.399999999999977-18.199999999999932-25z"/>
</svg>
