<svg xmlns="http://www.w3.org/2000/svg" viewBox="0 0 1000 1000" width="1000" height="1000">
<path d="M466.9 663.9c-35.299999999999955 75.60000000000002-56.39999999999998 154.5-56.69999999999999 238.80000000000007-23.80000000000001-18.100000000000023-53.599999999999966-86.70000000000005-66.39999999999998-152.80000000000007-59.900000000000034 39.39999999999998-107.80000000000001 91.30000000000007-159.10000000000002 143.70000000000005 4.200000000000017-75.39999999999998 24.900000000000006-142.80000000000007 65-204.39999999999998-29.799999999999983-3.2000000000000455-116.39999999999998-3-186.39999999999998 32.19999999999993 35.39999999999999-84.19999999999993 80.29999999999998-158.60000000000002 160.89999999999998-208.10000000000002-28.399999999999977-5.899999999999977-55-6.599999999999966-81.5-3.099999999999966-26.39999999999999 3.500000000000057-52.79999999999998 8.199999999999989-80.19999999999999 12.500000000000057 45.900000000000006-55.60000000000002 99.5-99.90000000000003 169.9-127.50000000000006-22.80000000000001-17.899999999999977-42.599999999999994-36.099999999999966-65.1-50.19999999999999-22.30000000000001-14-47.30000000000001-23.69999999999999-70.9-35.19999999999999 10.299999999999997-1.1999999999999886 21.599999999999994-3.1000000000000227 33-3.900000000000034 48.79999999999998-3.5 97.4-1 145.70000000000002 7.100000000000023 5.199999999999989 0.8999999999999773 8.199999999999989 2.8000000000000114 9.599999999999966 8.800000000000011 4.800000000000011 20.69999999999999 11.900000000000034 40.599999999999966 23.30000000000001 59.80000000000001 10.199999999999989-5.2000000000000455 19.69999999999999-10.100000000000023 29.899999999999977-15.200000000000045-24.899999999999977-46.599999999999966-29.19999999999999-96.19999999999999-23.799999999999955-146.79999999999998 4.699999999999989-43.79999999999998 19.299999999999955-84.29999999999998 44-122.39999999999999 25.099999999999966 54.7 49.89999999999998 108.39999999999999 73.69999999999999 160.3 25.599999999999966-1.1999999999999886 49.80000000000001-3.3000000000000114 73.89999999999998-3.1999999999999886 44.599999999999966 0.29999999999998295 88.00000000000006 9.199999999999989 127.90000000000003 29.099999999999966 18.5 9.200000000000045 35.39999999999998 8.900000000000034 54.299999999999955 6.7000000000000455 75.60000000000002-9 151.30000000000007-18.400000000000034 227.80000000000007-15.5 6.899999999999977 0.2999999999999545 13.799999999999955 0.8999999999999773 21.699999999999932 1.2999999999999545-4.5 21.700000000000045-8.799999999999955 42.400000000000034-13.100000000000023 63.10000000000002-0.39999999999997726 1.8000000000000114-1.3999999999999773 3.3999999999999773-2.5 4.800000000000011-13.899999999999977 18.099999999999966-27.799999999999955 36.19999999999999-42.799999999999955 55.69999999999999-4.899999999999977-16.80000000000001-9.5-32.30000000000001-14.600000000000023-49.80000000000001-15 18.80000000000001-29.100000000000023 36.5-44.5 55.69999999999999-4.100000000000023-16.5-8-31.399999999999977-12.299999999999955-48.5-14.5 18.5-28.100000000000023 35.60000000000002-42.80000000000007 54.30000000000001-4.7999999999999545-17.30000000000001-9.099999999999909-33-14.099999999999909-51-14.900000000000091 19.400000000000034-28.800000000000068 37.5-43.60000000000002 56.900000000000034-4.800000000000068-17.200000000000045-9.200000000000045-33.200000000000045-14.200000000000045-51-7.199999999999932 13.5-12.699999999999932 25.899999999999977-20 37.299999999999955-15.699999999999932 24.80000000000001-25.100000000000023 50.80000000000001-22.699999999999932 80.70000000000005 0.8999999999999773 10.5 0.1999999999999318 21.19999999999999 0.1999999999999318 33.5 14.399999999999977-18.80000000000001 27.899999999999977-36.60000000000002 42.60000000000002-55.80000000000001 4.899999999999977 17.599999999999966 9.5 33.599999999999966 14.299999999999955 50.99999999999994 14.600000000000023-19.199999999999932 28.40000000000009-37.299999999999955 43.40000000000009-56.99999999999994l14 47.19999999999999c13.799999999999955-17.899999999999977 26.799999999999955-34.60000000000002 40.89999999999998-52.89999999999998 5.100000000000023 17.19999999999999 9.699999999999932 32.89999999999998 14.699999999999932 49.599999999999966 15.100000000000023-18.899999999999977 29.200000000000045-36.69999999999999 44.5-55.89999999999998 3.900000000000091 15 7.400000000000091 28.30000000000001 10.5 41.69999999999999 0.6000000000000227 2.5-0.6999999999999318 6-2 8.5-9.399999999999977 17.80000000000001-18.699999999999932 35.5-28.699999999999932 52.89999999999998-1.6000000000000227 2.7000000000000455-5.899999999999977 5.300000000000068-9 5.5-105 4.600000000000023-208.20000000000005 20.700000000000045-309 50.10000000000002-29.600000000000023 8.700000000000045-57.5 22.799999999999955-86.20000000000005 34.5-3.8999999999999773 1.6000000000000227-7.399999999999977 3.7000000000000455-13.199999999999989 6.600000000000023 8.600000000000023-38.39999999999998 16.600000000000023-74.70000000000005 24.900000000000034-111.70000000000005-27.5-5.899999999999977-54.60000000000002-6-83.60000000000002 2.2000000000000455 17.80000000000001-35.900000000000034 34.60000000000002-69.80000000000001 51.69999999999999-104.60000000000002-10.199999999999989-5.100000000000023-19.899999999999977-9.899999999999977-30.5-15.199999999999989-29.69999999999999 59.69999999999999-58.89999999999998 118.69999999999999-89 179.40000000000003 37.400000000000034-11.200000000000045 70.60000000000002-29.5 109.60000000000002-32.10000000000002-11.300000000000011 50.60000000000002-22.19999999999999 99.89999999999998-33.60000000000002 151 30.400000000000034-17.399999999999977 59.30000000000001-34 88.40000000000003-50.700000000000045l1.7999999999999545 2z m157.89999999999998-349c-34.69999999999993-12.199999999999989-68.79999999999995-24.599999999999966-107.19999999999993-16.69999999999999 12.699999999999932 27.400000000000034 31.899999999999977 45.10000000000002 59.39999999999998 53.60000000000002 1.3999999999999773 0.39999999999997726 3 1.099999999999966 4.399999999999977 1 19.899999999999977-1.1999999999999886 37.39999999999998-16.30000000000001 43.39999999999998-37.900000000000034z"/>
</svg>
