<svg xmlns="http://www.w3.org/2000/svg" viewBox="0 0 1000 1000" width="1000" height="1000">
<path d="M901.2 627.5c11.399999999999977 5.2000000000000455 23.199999999999932 9.399999999999977 36.299999999999955 10.100000000000023-0.5-0.8000000000000682-0.7000000000000455-1.2000000000000455-1-1.3999999999999773-56.39999999999998-28.100000000000023-104.29999999999995-66.90000000000009-145.70000000000005-114-5.199999999999932-5.900000000000091-8.599999999999909-12.100000000000023-8.099999999999909-20.500000000000057 0.5-8-0.3000000000000682-16.099999999999966-1.400000000000091-24.099999999999966-6.099999999999909-44.80000000000001-28.799999999999955-76-73-90-24.199999999999932-7.7000000000000455-49.299999999999955-10.400000000000034-74.5-11.100000000000023-29.899999999999977-0.8000000000000114-59.799999999999955-0.30000000000001137-89.69999999999993-0.5-37.5-0.30000000000001137-75.10000000000002-1.3000000000000114-111.80000000000001-10-38.60000000000002-9-72.40000000000003-26-97.5-57.80000000000001-2.3000000000000114-3-4.600000000000023-5.899999999999977-7.199999999999989-9.300000000000011-12.100000000000023 18.100000000000023-26.5 33.200000000000045-41.700000000000045 47.80000000000001-12.199999999999989 11.600000000000023-24.69999999999999 22.69999999999999-36.099999999999966 34.80000000000001-23.700000000000017 25.30000000000001-29.30000000000001 53.80000000000001-16.900000000000006 86.30000000000001 7.099999999999994 18.399999999999977 16.900000000000006 35.099999999999966 27.99999999999997 51.099999999999966 2.400000000000034 3.5 3.6000000000000227 7 3.7000000000000455 11.200000000000045 2 65.10000000000002 3 130.19999999999993-0.10000000000002274 195.19999999999993-1.5 31.5-3.5 63.10000000000002-10.900000000000006 93.90000000000009-1.0999999999999943 4.399999999999977 0.4000000000000057 5 4.200000000000017 4.899999999999977 13.800000000000011-0.20000000000004547 27.599999999999966-0.39999999999997726 41.39999999999998 0.10000000000002274 5.300000000000011 0.1999999999999318 6.800000000000011-1.900000000000091 7.400000000000034-6.600000000000023 1.7999999999999545-14.100000000000023 3.8999999999999773-28.100000000000023 7.699999999999989-41.80000000000007 2.3000000000000114-8.199999999999932 4.899999999999977-16.399999999999977 10.899999999999977-23.699999999999932 0.30000000000001137 1.1999999999999318 0.6999999999999886 1.7999999999999545 0.6999999999999886 2.3999999999999773 0.20000000000004547 22-1.7999999999999545 43.700000000000045-10.199999999999989 64.20000000000005-1.8999999999999773 4.899999999999977-0.8000000000000114 5.599999999999909 3.900000000000034 5.5 10.399999999999977-0.3000000000000682 20.799999999999955-0.20000000000004547 31.099999999999966 0 3.3000000000000114 0.09999999999990905 4.699999999999989-1 5.800000000000011-4.300000000000068 4.300000000000011-13.699999999999932 7.5-27.699999999999932 10-41.89999999999998 5.199999999999989-30.100000000000023 5.399999999999977-60.700000000000045 8.800000000000011-91.10000000000002 3.3000000000000114-30 12.800000000000011-57 36.80000000000001-77.10000000000002 10.899999999999977-9.199999999999932 23-16.799999999999955 36.099999999999966-22.299999999999955 38.5-16.200000000000045 78.59999999999997-27.700000000000045 119.00000000000006-37.89999999999998 21.5-5.399999999999977 40.69999999999993-0.3000000000000682 56.59999999999991 15.699999999999932 4.600000000000023 4.600000000000023 9.600000000000023 9 14 13.800000000000068 18.800000000000068 21 37.700000000000045 41.89999999999998 56.10000000000002 63.299999999999955 17.899999999999977 20.700000000000045 34.700000000000045 42.30000000000007 46.10000000000002 67.5 9.100000000000023 20.200000000000045 12.899999999999977 41.10000000000002 6.899999999999977 63.10000000000002-4.199999999999932 15.200000000000045-12.299999999999955 28.299999999999955-22.799999999999955 39.89999999999998-2.3999999999999773 2.7000000000000455-3.1000000000000227 5.2000000000000455-1.8999999999999773 8.600000000000023 1.1999999999999318 3.6000000000000227 4.099999999999909 2.2999999999999545 6.399999999999977 2.2999999999999545 13.100000000000023 0.10000000000002274 26.299999999999955-0.09999999999990905 39.5 0.20000000000004547 3.8999999999999773 0.10000000000002274 5.699999999999932-1.2999999999999545 6.899999999999977-4.7999999999999545 3.3999999999999773-9.200000000000045 5.100000000000023-18.800000000000068 6.2999999999999545-28.40000000000009 2.7000000000000455-22.299999999999955 2.5-44.89999999999998 3.900000000000091-67.29999999999995 0.39999999999997726-8.200000000000045 1-16.5 3.199999999999932-24.5 0.8999999999999773-3.2000000000000455 1.6000000000000227-5.2000000000000455 5.100000000000023-1.6000000000000227 22.100000000000023 23.100000000000023 31.799999999999955 50 26.5 82-2.2000000000000455 13.399999999999977-6 26.399999999999977-9.299999999999955 39.60000000000002-1 3.7999999999999545-0.40000000000009095 5.2000000000000455 4 5.2000000000000455 11.199999999999932-0.3000000000000682 22.5-0.3000000000000682 33.69999999999993 0 3.8999999999999773 0.09999999999990905 5.399999999999977-1 5.800000000000068-5.2000000000000455 3.599999999999909-40.200000000000045 3.099999999999909-80.5 1-120.79999999999995-0.20000000000004547-3-1.5-4.5-3.5-6.2000000000000455-26.100000000000023-21.399999999999977-44.60000000000002-48.5-57.700000000000045-79.5-9.399999999999977-22.399999999999977-15-45.700000000000045-16.399999999999977-71.29999999999995 3.1000000000000227 2.8999999999999773 5.399999999999977 5 7.699999999999932 7.099999999999909 34.90000000000009 31.700000000000045 72.70000000000005 59.40000000000009 115.90000000000009 79.20000000000005z m-591.3000000000001-345.8c1.6000000000000227-2.6999999999999886 1.8000000000000114-4.599999999999966 0.10000000000002274-7.399999999999977-12.199999999999989-18.400000000000006-24-37-36.19999999999999-55.30000000000001-9.400000000000034-14-20.700000000000017-26.30000000000001-35.900000000000006-34.5-23.599999999999994-12.800000000000011-48.20000000000002-10.599999999999994-73-3.9000000000000057-1.4000000000000057 0.30000000000001137-2.700000000000017 1-3.3000000000000114 2.5999999999999943-6.799999999999983 16.80000000000001-21.099999999999994 24.80000000000001-36.8 30.80000000000001-16.299999999999997 6.199999999999989-33.3 9.5-50.2 13.5-9.799999999999997 2.1999999999999886-11.999999999999993 5-11.999999999999993 15.199999999999989 0 15.800000000000011 11.399999999999999 38.400000000000034 24.6 46.900000000000034 20.799999999999997 13.5 43.3 14.399999999999977 66.39999999999999 6.699999999999989 2.8000000000000114-1 5.400000000000006-2.3000000000000114 8.599999999999994-1.5 26.600000000000023 7.099999999999966 48.70000000000002 19.899999999999977 59.20000000000002 47.099999999999966 1.5999999999999943 4.100000000000023 3.4000000000000057 4.600000000000023 7.400000000000006 3.6000000000000227 36.39999999999998-9.199999999999989 62.39999999999998-31.69999999999999 81.09999999999997-63.80000000000001z"/>
</svg>
