<svg xmlns="http://www.w3.org/2000/svg" viewBox="0 0 1000 1000" width="1000" height="1000">
<path d="M527.7 909.6c7.699999999999932-43.30000000000007 9.199999999999932-84.39999999999998 6.699999999999932-125.20000000000005-3.5-56.5-13.699999999999932-111.39999999999998-52.799999999999955-156-6-6.899999999999977-13.300000000000011-12.799999999999955-22-21.100000000000023 77.89999999999998 6.800000000000068 147.79999999999995 32.90000000000009 218.29999999999995 57.200000000000045-84.69999999999993-58.5-179.5-89-284.7-99.79999999999995 25.400000000000034-16.300000000000068 44.19999999999999-35.40000000000009 59-58.700000000000045 2.1999999999999886-3.5 9.199999999999989-4 14-5.899999999999977 62.19999999999999-23.5 107.80000000000001-63 125.69999999999999-129.40000000000003 1-3.5 1.5-7.099999999999966 1.8000000000000682-10.699999999999989 0.2999999999999545-3 0.09999999999990905-6-0.900000000000091-9.5-13 36.10000000000002-34.39999999999998 66-64.5 89.39999999999998-15.199999999999932 11.900000000000034-31.799999999999955 21.400000000000034-50.19999999999993 27.5-9.800000000000011 3.2000000000000455-15.200000000000045 3.900000000000034-16.400000000000034-10.199999999999989-2.1999999999999886-26.80000000000001-14.699999999999989-49.099999999999966-39.19999999999999-68.39999999999998 5.300000000000011 12.800000000000011 10.100000000000023 22 13 31.69999999999999 12.100000000000023 38.39999999999998 6.5 72.5-25.5 100-27.5 23.700000000000045-54.39999999999998 48.200000000000045-81.39999999999998 72.5-20.900000000000034 18.799999999999955-20.700000000000045 32.10000000000002 0.0999999999999659 51.200000000000045 2.5 2.3999999999999773 5.300000000000011 4.599999999999909 9.5 8.299999999999955-16.19999999999999 0.6000000000000227-28.69999999999999-4.5-41-9-38-14.100000000000023-72-34.39999999999998-98.39999999999998-65.79999999999995-4.700000000000017-5.600000000000023-9.700000000000017-12.100000000000023-7.200000000000017-19.700000000000045 2.5999999999999943-8 10.800000000000011-3.7000000000000455 16.5-4.600000000000023 45.599999999999994-8 86.50000000000003-25.600000000000023 118.6-59.799999999999955 22.100000000000023-23.5 22.400000000000034-48.900000000000034 1.3000000000000114-75.70000000000005-9.800000000000011-12.5-21.600000000000023-23.5-31.80000000000001-36.099999999999966 27.19999999999999 11.599999999999966 45.19999999999999 35.599999999999966 68.5 52.599999999999966-7.099999999999966-19.099999999999966-21.69999999999999-32.099999999999966-36.39999999999998-44.5-37.19999999999999-31-77.60000000000002-55.39999999999998-127.70000000000002-58.799999999999955-28.599999999999994-1.900000000000034-54.79999999999998 4-76.6 23.399999999999977-9.5 8.399999999999977-14.400000000000006 5.800000000000011-17.599999999999994-5.100000000000023-1-3.3999999999999773-2.6000000000000085-7.5-1.7000000000000028-10.599999999999966 6.799999999999997-21.80000000000001-7.900000000000006-31.30000000000001-22.900000000000006-40-13-7.300000000000011-20-17.900000000000034-19.4-32.60000000000002 0.10000000000000142-4.099999999999966-2.299999999999997-12.099999999999994 6.199999999999996-11.399999999999977 5.300000000000011 0.39999999999997726 10.400000000000006 1.8000000000000114 10.900000000000006 10.099999999999966 0.5 9.5 3.200000000000003 19.30000000000001 13.799999999999997 24.80000000000001-0.5999999999999943-4.599999999999966-1.5999999999999943-8.699999999999989-1.7000000000000028-12.699999999999989-0.3999999999999915-10.899999999999977 1.8000000000000114-18.19999999999999 15.900000000000006-14.699999999999989 10.400000000000006 2.599999999999966 21.5 2.599999999999966 32.900000000000006 3.8999999999999773-1.700000000000017-5.300000000000011-6-5.099999999999966-9.5-6.5-18.400000000000006-7.199999999999989-35.900000000000006-16.19999999999999-52.7-26.399999999999977-16.700000000000003-10.200000000000017-17.5-19.30000000000001 1.5999999999999943-25.80000000000001 19-6.599999999999994 35.8-20.19999999999999 58.39999999999999-18.19999999999999 10.300000000000011 1 22-5.600000000000023 32-10.600000000000023 34.70000000000002-17 72.20000000000002-29.099999999999994 98.60000000000002-59.999999999999986 26.30000000000001-30.700000000000003 61.5-30.799999999999997 97.39999999999998-26.10000000000001 60.400000000000034 8 118.5 24.700000000000003 174.8 47.599999999999994 8.899999999999977 3.700000000000017 17 4.5 26.799999999999955 2 55.10000000000002-13.399999999999977 109.10000000000002-7.399999999999977 161.70000000000005 12.5 8.100000000000023 3.1000000000000227 15.700000000000045 8.100000000000023 23.200000000000045 12.5 8.199999999999932 4.900000000000006 8.299999999999955 10.5 1.599999999999909 17.400000000000006-22.199999999999932 23.099999999999994-48.69999999999993 38-80.89999999999998 42.400000000000006 0.8999999999999773 6.900000000000006 6.7000000000000455 8.099999999999994 10.700000000000045 10.800000000000011 70.89999999999998 48.39999999999998 140.19999999999993 98.5 202 158.3 12.699999999999932 12.299999999999955 23.600000000000023 26.299999999999955 36.39999999999998 38.39999999999998 15.600000000000023 14.699999999999989 16.700000000000045 31.899999999999977 12.799999999999955 51.10000000000002-13.099999999999909 64.69999999999993-48 117.69999999999993-90 166.29999999999995-88.39999999999998 102.70000000000005-195.69999999999993 182.20000000000005-309.69999999999993 253.80000000000007-1.3999999999999773 1.099999999999909-3.3999999999999773 1.7999999999999545-7.899999999999977 3.8999999999999773z m-46.60000000000002-685.1c-46.60000000000002-12-93.90000000000003-12.800000000000011-141.5-6.5-25.600000000000023 3.4000000000000057-50.60000000000002 14.400000000000006-76.90000000000003 1.9000000000000057-13.399999999999977-6.300000000000011-23.899999999999977 1.6999999999999886-34.29999999999998 11.699999999999989 37.599999999999994 3.700000000000017 68.6 16.599999999999994 91.9 45.70000000000002 23.69999999999999 29.69999999999999 26.69999999999999 64.09999999999997 24.899999999999977 100.09999999999997 9.100000000000023-24.899999999999977 7.199999999999989-50.299999999999955 4-76.69999999999999 36.80000000000001 7.300000000000011 68.40000000000003 23.5 100.30000000000001 39.69999999999999-27.30000000000001-21.399999999999977-57.30000000000001-37.599999999999966-90.19999999999999-47.5-12-3.599999999999966-17.80000000000001-10.5-22.100000000000023-21.099999999999966-2.599999999999966-6.300000000000011-1.599999999999966-8.600000000000023 5.100000000000023-8.5 16.5 0.39999999999997726 33.19999999999999-0.4000000000000341 49.69999999999999 1.5 26.30000000000001 3.099999999999966 51.69999999999999 9.5 77.39999999999998 15.5-41.39999999999998-17.69999999999999-84.29999999999995-28.400000000000006-129.5-26.600000000000023-13.599999999999966 0.5-22.299999999999955-4.599999999999994-29.799999999999955-16 14.099999999999966-6 28.299999999999955-8.399999999999977 42.299999999999955-10.699999999999989 42.60000000000002-6.800000000000011 85.60000000000002-5.900000000000006 128.70000000000005-2.5z m108.29999999999995-10.5c19.399999999999977-16 39.10000000000002-25.80000000000001 60.200000000000045-33.19999999999999 21.399999999999977-7.400000000000006 43.799999999999955-9 66.10000000000002-10.800000000000011-50.30000000000007-14.099999999999994-127.80000000000007 13.900000000000006-151.80000000000007 53.69999999999999 32.10000000000002 8.200000000000017 70.60000000000002 5.700000000000017 89.80000000000007-6.199999999999989-21 3-41.30000000000007 5.400000000000006-64.30000000000007-3.5z m-218.59999999999997-46.69999999999999c-21.400000000000034 5.299999999999983-42.30000000000001 0.6999999999999886-63.30000000000001-2.5-17-2.5-32.89999999999998 12.099999999999994-33.30000000000001 29.599999999999994 12.5-3.9000000000000057 23.900000000000034-9.900000000000006 34.69999999999999-17.099999999999994 2.3000000000000114-1.6000000000000227 4.600000000000023-5.300000000000011 7.900000000000034-2.6000000000000227 2.6999999999999886 2.200000000000017 2.099999999999966 5.600000000000023 1.1999999999999886 8.700000000000017-1.8000000000000114 6.199999999999989-3.6999999999999886 12.5-5.899999999999977 20.099999999999994 24.399999999999977-5.900000000000006 44.19999999999999-15.599999999999994 58.69999999999999-36.19999999999999z m-140.20000000000002 16.399999999999977c-37.79999999999998 17.900000000000006-76 34.20000000000002-120.3 39.70000000000002 8 4.900000000000006 12.799999999999997 10.199999999999989 21.299999999999997 7.5 35.20000000000002-11 68.70000000000002-25.700000000000017 99-47.20000000000002z m58.29999999999998 217.7c-24.899999999999977-24.399999999999977-50.19999999999999-39.599999999999966-81.59999999999997-42.69999999999999-15.600000000000023-1.599999999999966-20.5 2.900000000000034-22 18.600000000000023-1.8000000000000114 17.899999999999977 4.899999999999977 33.5 13.699999999999989 48.5-20-3-57.19999999999999-40.30000000000001-59.69999999999999-60-1.200000000000017-9.800000000000011 7.399999999999977-11.699999999999989 13.5-14.5 34.599999999999994-16.400000000000034 84.6-8 113.39999999999998 18.5 8.699999999999989 8 16.900000000000034 16.399999999999977 22.69999999999999 31.599999999999966z m-65.29999999999998 55.900000000000034c17.200000000000017 56.900000000000034 41.099999999999994 67.99999999999994 104.29999999999998 16.30000000000001-6.399999999999977 13.199999999999989-13.299999999999955 20.899999999999977-21.5 27.69999999999999-19.399999999999977 16.19999999999999-42.39999999999998 25.19999999999999-66.19999999999999 32.69999999999999-11.399999999999977 3.6000000000000227-16.799999999999983-3.2999999999999545-19.69999999999999-12.200000000000045-7-21.399999999999977-5.199999999999989-42.49999999999994 3.0999999999999943-64.49999999999994z"/>
</svg>
