<svg xmlns="http://www.w3.org/2000/svg" viewBox="0 0 1000 1000" width="1000" height="1000">
<path d="M852.1 462.9c-9-62-45.89999999999998-110.29999999999995-78.70000000000005-160.39999999999998-21.699999999999932-33.30000000000001-58.5-51.5-84.39999999999998-80.9-6-6.699999999999989-19.899999999999977-8.799999999999983-11.799999999999955-22.900000000000006 0.6999999999999318-1.0999999999999943-1.7000000000000455-4.599999999999994-3.2000000000000455-6.399999999999977-3.5-4.300000000000011-7.2999999999999545-8.100000000000023-10.899999999999977-12.300000000000011 4.100000000000023-1.8000000000000114 8.600000000000023 0.9000000000000057 12.5-2.3000000000000114-3.800000000000068-7.399999999999977-11.399999999999977-10.299999999999983-18.600000000000023-14.899999999999977 4.600000000000023-1.8000000000000114 8.100000000000023-3.200000000000017 12.5-4.900000000000006-12.5-12.5-28.399999999999977-14.400000000000006-44.60000000000002-17.099999999999994 10.200000000000045-9.200000000000017 10.100000000000023-10.800000000000011-1.5-14.700000000000017-8.600000000000023-2.8999999999999915-17.5-5.3999999999999915-26.399999999999977-6.099999999999994-13.799999999999955-1.0999999999999943-23.5-6.299999999999997-31.299999999999955-18.5-13.700000000000045-21.700000000000003-32.5-38.8-59.60000000000002-39.1-31-0.3999999999999986-57.80000000000001 10.699999999999996-76.20000000000005 37.50000000000001-1.099999999999966 1.6999999999999886-2.2999999999999545 4.699999999999989-3.6999999999999886 4.799999999999997-14.300000000000011 1.0999999999999943-10 13.700000000000003-8.099999999999966 18.299999999999997 8.099999999999966 21.099999999999994-2.900000000000034 35.30000000000001-15.400000000000034 48.599999999999994-7.300000000000011 7.599999999999994-15.300000000000011 14.5-15.800000000000011 25.599999999999994-0.39999999999997726 10 1.400000000000034 18.700000000000017 10.600000000000023 26.30000000000001 8.699999999999989 7.199999999999989 16.19999999999999 11.400000000000006 27.19999999999999 8.599999999999994 3.400000000000034-0.9000000000000057 7-5.900000000000006 10.800000000000011-0.09999999999999432 3.1999999999999886 5 5.600000000000023 9.599999999999994 2 15.900000000000006-6.399999999999977 11.299999999999983-5.600000000000023 11.299999999999983-2.3999999999999773 20.900000000000006 1.3999999999999773 4.300000000000011 0.2999999999999545 9.399999999999977 0.2999999999999545 14.5 5.100000000000023-1.400000000000034 6.2000000000000455-7.5 11.900000000000034-5.300000000000011-0.6999999999999886 10.199999999999989 1.8999999999999773 20.600000000000023-1 30.600000000000023-8.199999999999989 28-16.900000000000034 56-25.69999999999999 83.79999999999995-4.5 14-9.700000000000045 16.30000000000001-23.200000000000045 10.700000000000045-13.599999999999966-5.600000000000023-28-8.800000000000011-42.299999999999955-7.400000000000034-19.900000000000034 1.900000000000034-38.80000000000001-0.39999999999997726-57.10000000000002-6.800000000000011-27.5-9.599999999999966-56-6.899999999999977-84.1-8.599999999999966-6.599999999999994-0.30000000000001137-12.300000000000011 2.599999999999966-16.200000000000017 7.699999999999989-13.5 17.19999999999999-30.599999999999994 31.19999999999999-42.5 49.89999999999998-10.399999999999977 16.30000000000001-11.5 16.80000000000001 1.3000000000000114 31.5 4.599999999999994 5.300000000000011 7.300000000000011 14.100000000000023 16.5 13.100000000000023 10.800000000000011-1.1000000000000227 21.400000000000006-1.1000000000000227 32.19999999999999-0.39999999999997726 7.400000000000006 0.39999999999997726 8.600000000000023-3.6000000000000227 6.400000000000006-9.400000000000034-1.799999999999983-4.599999999999966-4.5-9.099999999999966-8.799999999999983-11.800000000000011-5.5-3.599999999999966-11.900000000000006-5.899999999999977-17.100000000000023-9.799999999999955-4-3.1000000000000227-10-9.200000000000045-2.5-12.600000000000023 14.400000000000006-6.699999999999989 24.200000000000017-18.30000000000001 35.400000000000006-28.399999999999977 3.200000000000017-2.7000000000000455 6.5-3.900000000000034 12.099999999999994-1.5-12.399999999999977 10-23.69999999999999 18.799999999999955-34.69999999999999 28.099999999999966-2.5999999999999943 2.1999999999999886-5.900000000000006 5.900000000000034-2.9000000000000057 9.600000000000023 2.4000000000000057 3.099999999999966 6.200000000000017 1.099999999999966 9.300000000000011 0.0999999999999659 17.69999999999999-6 36.599999999999994-9.299999999999955 51.29999999999998-22.19999999999999 1.8000000000000114-1.6999999999999886 3.900000000000034-0.30000000000001137 5.900000000000034 0.19999999999998863l52.89999999999998 11.700000000000045c26.30000000000001 5.899999999999977 51.30000000000001 18.099999999999966 79.30000000000001 16 3.8999999999999773-0.30000000000001137 8 0.19999999999998863 10.599999999999966 4.099999999999966-6 7.5-14.399999999999977 10.300000000000011-22.099999999999966 14.100000000000023-13.300000000000011 6.399999999999977-24.69999999999999 15.099999999999966-30.5 29.19999999999999-8.199999999999989 20.200000000000045-15.900000000000034 40.5-28.80000000000001 58.60000000000002-7.100000000000023 10-8.100000000000023 22.299999999999955-9.300000000000011 34.299999999999955-0.39999999999997726 4.600000000000023-0.39999999999997726 10.899999999999977 3.3000000000000114 12.5 5.199999999999989 2.2000000000000455 6.300000000000011-5.199999999999932 9.800000000000011-7.5 0.5-0.39999999999997726 1.3999999999999773-0.1999999999999318 2.3000000000000114-0.2999999999999545 3.599999999999966 3.7999999999999545 4.699999999999989 8.100000000000023 4.7999999999999545 13.299999999999955 0.20000000000004547 10.899999999999977-3.1999999999999886 21.300000000000068 13.200000000000045 27.700000000000045 18 7.100000000000023 27.899999999999977 8.600000000000023 41.099999999999966-7.2000000000000455 4-4.699999999999932 6.600000000000023-9.5 4-15.799999999999955-0.8000000000000114-1.8000000000000682-1.8000000000000114-4.100000000000023-4.300000000000011-3.800000000000068-6.699999999999989 0.8000000000000682-7.5 6.7000000000000455-9.599999999999966 11.600000000000023-0.6999999999999886 1.8000000000000682-0.6999999999999886 4.5-3.400000000000034 4.5-3.3999999999999773 0-3.6999999999999886-3.1000000000000227-3.8999999999999773-5.199999999999932-1.3999999999999773-9.600000000000023 0.19999999999998863-18.800000000000068 3.1000000000000227-28 6.599999999999966-21.5 16.399999999999977-42.30000000000007 16.5-65.60000000000002 0.0999999999999659-8.100000000000023 5.199999999999989-12.800000000000068 13.199999999999989-17.200000000000045 13.699999999999989-7.399999999999977 27 9.5 39.599999999999966-1.2999999999999545 26.30000000000001 4.199999999999932 51.700000000000045-2.2000000000000455 77.39999999999998-6.100000000000023 12.100000000000023-1.8000000000000114 24.300000000000068-2.6000000000000227 37.5-4.100000000000023-3.5 5.300000000000011-7.599999999999909 5.800000000000011-11.699999999999932 6.2000000000000455-8 0.8999999999999773-9.600000000000023 3.599999999999966-3.6000000000000227 9.899999999999977 6.7000000000000455 7.100000000000023 11 16.5 19.5 22.200000000000045 2.1000000000000227 1.3999999999999773 4.2000000000000455 3 3.8999999999999773 5.7999999999999545-0.39999999999997726 4-3.8999999999999773 3.8999999999999773-6.5 4.399999999999977-22.699999999999932 4.5-45.299999999999955 8.800000000000068-68.5 10-15.099999999999966 0.7000000000000455-29.399999999999977 2.1000000000000227-41 13.800000000000068-3.8999999999999773 4-9.399999999999977 7.199999999999932-14.699999999999989 9-12.699999999999989 4.399999999999977-11 14.799999999999955-11.5 24.399999999999977-0.39999999999997726 9.299999999999955 3.6999999999999886 16.199999999999932 11.900000000000034 20 8.199999999999989 3.699999999999932 17 6.399999999999977 25.5 9.5 3 1 5.7999999999999545 1.1000000000000227 7.199999999999989-2.300000000000068 1.099999999999966-2.699999999999932 1.3000000000000114-5.399999999999977-1.3000000000000114-7.7999999999999545-1.3999999999999773-1.2999999999999545-6.699999999999989-0.6000000000000227-2.8999999999999773-5.399999999999977 8.799999999999955-10.899999999999977 20.099999999999966-16.5 36.39999999999998-19.899999999999977-5.699999999999989 6.199999999999932-9.5 9.899999999999977-12.600000000000023 14.099999999999909-2 2.7000000000000455-5.2999999999999545 6-2.1999999999999886 9.900000000000091 3.1999999999999886 4 6.699999999999989 1.8999999999999773 9.900000000000034 0 13.699999999999989-8.5 27.600000000000023-16.600000000000023 40.69999999999993-25.800000000000068 5.2000000000000455-3.6000000000000227 9.800000000000068-5.199999999999932 15.900000000000091-4.699999999999932 20.399999999999977 1.3999999999999773 40.299999999999955-0.8000000000000682 59.59999999999991-8.5 4.800000000000068-1.8000000000000682 9.700000000000045-2.6000000000000227 14.400000000000091-0.40000000000009095 17.899999999999977 8.200000000000045 34.39999999999998 18.600000000000023 49.5 34.40000000000009-24.300000000000068 4.899999999999977-46.90000000000009 12.799999999999955-71.30000000000007 8.399999999999977-21.699999999999932-4-42.799999999999955-12.200000000000045-65.69999999999993-6.300000000000068-13.300000000000068 3.400000000000091-32.30000000000007 14.300000000000068-36.60000000000002 24.700000000000045 13.199999999999932-1 23.5-15.100000000000023 40.799999999999955-9.399999999999977-4.100000000000023 2-5.7999999999999545 3.1000000000000227-7.600000000000023 3.7999999999999545-21.59999999999991 8.399999999999977-37.49999999999994 23.5-49.799999999999955 42.700000000000045-5 7.699999999999932-1.8999999999999773 24.5 3.8999999999999773 24.199999999999932 14.100000000000023-0.8999999999999773 27.899999999999977-4.5 41.89999999999998-7 0.6000000000000227-0.09999999999990905 1-1.1999999999999318 1.5-1.7999999999999545 14.400000000000091-17.200000000000045 33.200000000000045-23.700000000000045 54.90000000000009-22.100000000000023 9.299999999999955 0.7000000000000455 18-0.5 27-1.3999999999999773 20.799999999999955-2.1000000000000227 39-12.700000000000045 59-17.200000000000045 19.299999999999955-4.2999999999999545 38.09999999999991-10.899999999999977 56.799999999999955-16.699999999999932 15.200000000000045-4.800000000000068 18.700000000000045-17 9.600000000000023-30.200000000000045-6-8.799999999999955-13-17.100000000000023-19-26-3.5-5.199999999999932-12-11.100000000000023-8.100000000000023-16.100000000000023 3.3999999999999773-4.399999999999977 13.200000000000045-2.099999999999909 20.200000000000045-0.7999999999999545 2.8999999999999773 0.5 6 1.1000000000000227 8 2.8999999999999773 14 11.700000000000045 28.799999999999955 9.5 44.299999999999955 3.8999999999999773 6.899999999999977-2.5 14.5-3.2999999999999545 21.600000000000023-5.2999999999999545 4.7999999999999545-1.3999999999999773 6.199999999999932-0.39999999999997726 6.600000000000023 4.7999999999999545 7 70.90000000000009-1.8000000000000682 138.5-40.10000000000002 200.10000000000002-33.700000000000045 53.30000000000007-77.39999999999998 95.20000000000005-139.39999999999998 114.30000000000007-45.5 14.099999999999909-92.30000000000007 17.899999999999977-139.70000000000005 14.799999999999955-20.69999999999999-1.2999999999999545-41.30000000000001-4.600000000000023-58.5-17.399999999999977-7.699999999999989-5.800000000000068-15.199999999999989-11.899999999999977-24.399999999999977-14.5-10.900000000000034-3.1000000000000227-15-13.200000000000045-22.400000000000034-19.899999999999977-8.399999999999977-7.400000000000091-21.399999999999977-8.400000000000091-26.80000000000001-19.800000000000068-1.099999999999966-2.3999999999999773-3.099999999999966-2.8999999999999773-6.099999999999966-1.1999999999999318-8.699999999999989 4.5-14 10.099999999999909-10.800000000000011 20.699999999999932 2.8999999999999773 9.600000000000023 6.699999999999989 18.700000000000045 13.399999999999977 26.300000000000068 27.30000000000001 29.899999999999977 60.700000000000045 49.59999999999991 100.70000000000005 56.299999999999955 40.69999999999999 6.7000000000000455 81.60000000000002 3.8999999999999773 122.10000000000002-2.8999999999999773 46.299999999999955-7.600000000000023 91.89999999999998-19.600000000000023 129.69999999999993-48.60000000000002 88.70000000000005-68 135.89999999999998-158.79999999999995 141.10000000000002-270.6 1.7000000000000455-36.299999999999955 0.7000000000000455-72.69999999999993 0.39999999999997726-109.09999999999997 0.39999999999997726-13.100000000000023 2.6000000000000227-25.900000000000034 0.7000000000000455-39.400000000000034z m-342.40000000000003-318.4c15.400000000000034 13.599999999999994 34.69999999999999 11.099999999999994 54.599999999999966 18.69999999999999-8.099999999999909 1.1000000000000227-12.299999999999955 1.8000000000000114-17.299999999999955 2.4000000000000057 1.2999999999999545 7.099999999999994 9 7.5 11.600000000000023 13.700000000000017-18.399999999999977 2.3999999999999773-36.60000000000002 5.299999999999983-48.10000000000002 21.899999999999977-10.899999999999977 15.800000000000011-14.100000000000023 34-16 53.70000000000002-5.100000000000023-5-4.600000000000023-10.599999999999994-4.899999999999977-15.800000000000011-0.30000000000001137-5.299999999999983-0.10000000000002274-10.699999999999989-0.10000000000002274-16.5-9.399999999999977-0.09999999999999432-9 10.400000000000006-16.100000000000023 13-3.599999999999966-9.900000000000006 0.10000000000002274-17.19999999999999 6.7000000000000455-24.099999999999994 15.199999999999989-15.5 15.099999999999966-15.5-0.4000000000000341-29.900000000000006 34.099999999999966-5.900000000000006 36.900000000000034-15.900000000000006 30-37.099999999999994z m-64.39999999999998-21.5c-3.900000000000034 1.5999999999999943-7.800000000000011 3.9000000000000057-11.400000000000034 0.4000000000000057-1.1999999999999886-1.1000000000000085-0.5-4.6000000000000085-0.39999999999997726-6.900000000000006 0.39999999999997726-5.400000000000006 6.800000000000011-5.5 8.399999999999977-4.799999999999997 13.400000000000034 6 27.30000000000001-2.5 40.5 1.7999999999999972 4.100000000000023 1.2999999999999972 8.800000000000011 1.7999999999999972 12.200000000000045 6-6 3.799999999999997-10.900000000000034 5.900000000000006-18.400000000000034 2.200000000000003-9.800000000000011-4.700000000000003-20.69999999999999-3.1000000000000085-30.899999999999977 1.2999999999999972z m116.59999999999997 301.6c-12 3-24.199999999999932 5.199999999999989-36.5 6.699999999999989-17.899999999999977 2.3000000000000114-35.799999999999955 5.300000000000011-54 9.399999999999977 0.5-19.599999999999966 13-33.39999999999998 20-49.39999999999998 6-13.699999999999989 12.400000000000034-27 10.900000000000034-42.400000000000034-0.8000000000000114-7.399999999999977 1.599999999999966-10.099999999999966 9-6.399999999999977 5.599999999999966 2.6999999999999886 11.099999999999966 5.5 15.800000000000011 9.600000000000023 10.899999999999977 9.5 10.299999999999955 14.399999999999977 0.39999999999997726 24.899999999999977-11.100000000000023 11.800000000000011-16.69999999999999 26.100000000000023-13.700000000000045 42.80000000000001 1.1000000000000227 6.300000000000011 3.2000000000000455 8.800000000000011 9.800000000000068 5.599999999999966 6.699999999999932-3.2999999999999545 14.199999999999932-4.099999999999966 21.600000000000023-4.899999999999977 16.299999999999955-1.6000000000000227 18.59999999999991-4.600000000000023 16.5-20.399999999999977-0.3000000000000682-2.900000000000034-0.900000000000091-5.7000000000000455-1.6000000000000227-9.5 6.699999999999932 3.1999999999999886 8.899999999999977 8.199999999999989 11.100000000000023 13 5.7999999999999545 12.399999999999977 3.5 17.799999999999955-9.300000000000068 21z m152.30000000000007-17c-9.5-6.300000000000011-19.600000000000023-10.700000000000045-29.800000000000068-14.400000000000034-5.7999999999999545-2.099999999999966-10.699999999999932-3.099999999999966-9.799999999999955 7.100000000000023 1.6000000000000227 17.899999999999977 8.399999999999977 35 6.2999999999999545 53.39999999999998-0.8999999999999773 8.600000000000023-10.899999999999977 19.69999999999999-19.100000000000023 20-3 0.10000000000002274-6.5 0-7.399999999999977-3.099999999999966-0.8999999999999773-2.7000000000000455 2.300000000000068-3.900000000000034 4.399999999999977-5.2000000000000455 16.90000000000009-11.099999999999966 17.200000000000045-11.199999999999989 11.600000000000023-30.299999999999955-2.8999999999999773-9.900000000000034-6.699999999999932-20.700000000000045-6.699999999999932-29.80000000000001 0.09999999999990905-25.400000000000034-21.800000000000068-40.900000000000034-24.600000000000023-64.10000000000002-0.20000000000004547-1.099999999999966 0.10000000000002274-2.3000000000000114 0.39999999999997726-6.199999999999989 7.2999999999999545 15.800000000000011 12.200000000000045 30 22.200000000000045 41.69999999999999 2.699999999999932 3.3000000000000114 4.5 5.600000000000023 9.399999999999977 6 15.299999999999955 1.6000000000000227 27.199999999999932 11.100000000000023 40.299999999999955 18 1.6000000000000227 1 3.7000000000000455 3 2.800000000000068 6.900000000000034z"/>
</svg>
