<svg xmlns="http://www.w3.org/2000/svg" viewBox="0 0 1000 1000" width="1000" height="1000">
<path d="M936.9 877.1c-4.899999999999977-20.399999999999977-17.199999999999932-36.10000000000002-37.69999999999993-38.700000000000045-15.400000000000091-1.8999999999999773-23.200000000000045-9.5-31.100000000000023-20.199999999999932-4-5.5-8.100000000000023-11-12.899999999999977-15.800000000000068-5.900000000000091-5.899999999999977-7.300000000000068-12.699999999999932-7.300000000000068-20.799999999999955 0.3000000000000682-61.80000000000007 0.20000000000004547-123.60000000000002 0-185.39999999999998 0-7 1.5-13.100000000000023 5-19.300000000000068 52.89999999999998-95.19999999999999 42.89999999999998-187.39999999999998-16.299999999999955-275.4-41.39999999999998-61.400000000000006-86.10000000000002-120.6-129.39999999999998-180.6-2.1000000000000227-2.9000000000000057-3.300000000000068-6.800000000000011-9.400000000000091-7.700000000000003v102.99999999999999l-2.3999999999999773 0.5-75.5-104.69999999999999c-2.2999999999999545 28.19999999999999-2.2999999999999545 55.30000000000001-2.3999999999999773 82.4-0.10000000000002274 18.299999999999983 4.600000000000023 38.69999999999999-1.7999999999999545 54.29999999999998-6.5 15.699999999999989-24.600000000000023 26.30000000000001-36.80000000000007 39.900000000000034-6.899999999999977 7.599999999999966-14.299999999999955 10.5-24.5 10.199999999999989-26.299999999999955-0.6999999999999886-52.69999999999999-0.30000000000001137-79.39999999999998-0.30000000000001137 0.30000000000001137 2.8000000000000114 0.30000000000001137 4.100000000000023 0.6999999999999886 5.199999999999989 16.100000000000023 57.80000000000001 71.59999999999997 101.60000000000002 131.7 103.19999999999999 22.399999999999977 0.6000000000000227 44.700000000000045 0.10000000000002274 69.89999999999998 0.10000000000002274-4.5 5.100000000000023-6.7999999999999545 8-9.399999999999977 10.600000000000023-54.19999999999993 54.19999999999999-108.60000000000002 108.39999999999998-162.7 162.79999999999995-34.5 34.700000000000045-63.69999999999999 73.10000000000002-82.19999999999999 119-23.30000000000001 57.700000000000045-26.19999999999999 118.30000000000007-26 179.5 0.10000000000002274 9 5.800000000000011 7.7000000000000455 11.100000000000023 7.7000000000000455 36.69999999999999 0.10000000000002274 73.29999999999995 0 110 0 81.39999999999998 0 162.79999999999995-0.3000000000000682 244.19999999999993 0.2999999999999545 11.5 0.10000000000002274 12.900000000000091-4.5 10.700000000000045-13.600000000000023-4.7999999999999545-20.09999999999991-24.5-36.19999999999993-45.39999999999998-36.59999999999991-13.300000000000068-0.3000000000000682-26.600000000000023-0.10000000000002274-41.200000000000045-0.10000000000002274 24.800000000000068-38.89999999999998 32.30000000000007-67.39999999999998 23.100000000000023-119.70000000000005 5.2999999999999545 6.399999999999977 8.299999999999955 9.899999999999977 11.200000000000045 13.5 39.5 49.200000000000045 78.79999999999995 98.30000000000007 118.39999999999998 147.5 3.7999999999999545 4.800000000000068 6.899999999999977 10.100000000000023 15 9.899999999999977 24.699999999999932-0.599999999999909 49.39999999999998-0.5 74.19999999999993 0 9.200000000000045 0.40000000000009095 10.200000000000045-3.7999999999999545 8.600000000000023-10.699999999999932z m-274.19999999999993-562.3c-9.400000000000091-5.684341886080802e-14-18.700000000000045-9.200000000000045-19.100000000000023-18.800000000000068-0.39999999999997726-9.399999999999977 8.699999999999932-18.80000000000001 18.5-19.19999999999999 10-0.30000000000001137 19 8 19.600000000000023 17.899999999999977 0.39999999999997726 10.199999999999989-9 20.100000000000023-19 20.100000000000023z m-438.70000000000005-2.7000000000000455c-52.900000000000006-19.900000000000034-107.6-11.200000000000045-161.5-12.400000000000034 58.2 18.80000000000001 86.5 65.30000000000001 84.9 123.60000000000002-2.200000000000017 80.5-0.5999999999999943 161.09999999999997-0.5 241.7 0.09999999999999432 117.10000000000002 87.69999999999999 211.70000000000005 204.6 221.10000000000002 16.5 1.2999999999999545 16.5 1.2999999999999545 16.5-15.899999999999977v-351.6c0-92.40000000000003-57.5-174.10000000000002-144-206.5z"/>
</svg>
