<svg xmlns="http://www.w3.org/2000/svg" viewBox="0 0 1000 1000" width="1000" height="1000">
<path d="M890.4 467.5c-13-65.5-47.69999999999993-115.30000000000001-106-148.89999999999998-29-16.700000000000045-60.60000000000002-25.900000000000034-91.89999999999998-36.60000000000002-36.39999999999998-12.399999999999977-73.29999999999995-24-105.39999999999998-45.80000000000001-43.89999999999998-30-72.39999999999998-71-83.20000000000005-123.49999999999999-1.099999999999966-5.5-1-11.400000000000006-4-16.799999999999997-0.6999999999999886 1-1.099999999999966 1.2999999999999972-1.1999999999999886 1.6999999999999886-0.5999999999999659 2.6000000000000085-1.099999999999966 5.200000000000003-1.599999999999966 8-11.300000000000011 63.5-46 110.4-102.20000000000005 141.3-26.399999999999977 14.499999999999972-55 24.299999999999983-83.59999999999997 33.900000000000006-33.30000000000001 11.300000000000011-67.20000000000002 20.899999999999977-98 39-47.60000000000002 28-79.9 67.69999999999999-97.00000000000001 120.09999999999997-4.099999999999994 12.600000000000023-5.700000000000003 25.600000000000023-9.700000000000003 38.10000000000002v10.300000000000011c2.4000000000000057 0.6999999999999886 3.3000000000000114-0.6000000000000227 4.5-2.5 25.200000000000017-40.5 59.599999999999994-71 100.80000000000001-94.69999999999999 30.900000000000006-17.80000000000001 63.99999999999997-30.5 96.70000000000002-44.400000000000034 7.7999999999999545-3.3000000000000114 15.399999999999977-6.899999999999977 23.399999999999977-10.5 0 15-1.6000000000000227 13.100000000000023 11.899999999999977 9 0.4000000000000341-0.19999999999998863 1-0.30000000000001137 1.400000000000034-0.39999999999997726 5.699999999999989-1.5 6.300000000000011-4 2-8.199999999999989-3.6000000000000227-3.6000000000000227-8.600000000000023-6.2000000000000455-10.5-11.700000000000045 4.5 0 8.399999999999977-0.0999999999999659 12.300000000000011 0s7.899999999999977 0.30000000000001137 11.699999999999989 0.4000000000000341c5 0.30000000000001137 6.599999999999966-1.5 4.5-6.5-2-4.600000000000023-4.5-9.100000000000023-5.199999999999989-15 4.2999999999999545 0 8.199999999999989 0.0999999999999659 12.199999999999989 0 15-0.5 15-0.5 12.800000000000011-15.300000000000011-1.6000000000000227-10.300000000000011-1.400000000000034-10.399999999999977 8-6.800000000000011l6.899999999999977 2.5c4.399999999999977 1.6999999999999886 7.199999999999989 1.400000000000034 8.800000000000011-3.8000000000000114 2.3000000000000114-7.2999999999999545 6.399999999999977-13.699999999999989 10.899999999999977-19.899999999999977 7.400000000000034-10.099999999999994 7.400000000000034-10.099999999999994 17.600000000000023-2.3000000000000114 1.8999999999999773 1.5 3.8999999999999773 2.900000000000034 5.899999999999977 4.5 3.6000000000000227 3 5.900000000000034 2.400000000000034 7.699999999999989-2 2.900000000000034-6.699999999999989 6.2000000000000455-13.299999999999983 9.400000000000034-20.099999999999994 4.199999999999989 3.0999999999999943 6.099999999999966 7.099999999999994 8.699999999999989 10.700000000000017 7.100000000000023 10.199999999999989 16.19999999999999 18.399999999999977 26.30000000000001 25.399999999999977 3.3000000000000114 2.3000000000000114 5.800000000000011 2.3000000000000114 9.099999999999966 0 10.200000000000045-7 19.200000000000045-15.099999999999966 26.300000000000068-25.399999999999977 2.3999999999999773-3.6000000000000227 4.5-7.600000000000023 8.699999999999932-10.700000000000017 3.2000000000000455 6.900000000000006 6.5 13.400000000000006 9.399999999999977 20.099999999999994 1.8000000000000682 4.400000000000034 4.100000000000023 4.900000000000034 7.7000000000000455 2 3.1000000000000227-2.3999999999999773 6.399999999999977-4.599999999999966 9.299999999999955-7.299999999999983 4.600000000000023-4.200000000000017 8-3.0999999999999943 11.5 1.4999999999999716 5.400000000000091 7.100000000000023 10.5 14.300000000000011 13.300000000000068 22.700000000000045 1.8999999999999773 5.7999999999999545 4.7999999999999545 6.599999999999966 9.799999999999955 4.2999999999999545 3.300000000000068-1.5 6.899999999999977-2.3999999999999773 10.300000000000068-3.7999999999999545 3.599999999999909-1.5 5.199999999999932-0.8000000000000114 4.5 3.2999999999999545-0.6000000000000227 3.8000000000000114-1 7.800000000000011-1.8000000000000682 11.600000000000023-1.1999999999999318 5.800000000000011 0.20000000000004547 8.699999999999989 6.7000000000000455 8.600000000000023 6.5-0.10000000000002274 12.899999999999977 0.5999999999999659 20.100000000000023 1-2 5.199999999999989-3.5 9.599999999999966-5.5 13.699999999999989-2.7000000000000455 5.699999999999989-0.7000000000000455 7.300000000000011 5 7.199999999999989 7.699999999999932-0.19999999999998863 15.399999999999977-0.10000000000002274 23.299999999999955-0.10000000000002274-0.7999999999999545 3.1000000000000227-3.2000000000000455 4.400000000000034-5.100000000000023 6.300000000000011-2 2.1000000000000227-4.399999999999977 3.900000000000034-6.2999999999999545 6.199999999999989-1 1.2000000000000455-3.300000000000068 2.400000000000034-1.7000000000000455 4.7000000000000455 1 1.2999999999999545 15.5 6.399999999999977 16.399999999999977 5.5 3.300000000000068-3.1000000000000227 0.6000000000000227-6.800000000000011 1.1000000000000227-10.200000000000045 0.10000000000002274-0.2999999999999545 0.6000000000000227-0.5999999999999659 1.2000000000000455-1.099999999999966 7.600000000000023 3.3999999999999773 15.299999999999955 7 23.199999999999932 10.300000000000011 32.40000000000009 13.899999999999977 65.40000000000009 26.399999999999977 96 44.099999999999966 41.10000000000002 23.69999999999999 75.60000000000002 54.19999999999999 100.70000000000005 94.69999999999999 1.1000000000000227 1.8000000000000114 2.2000000000000455 3.1000000000000227 4.5 2.5v-10.399999999999977c-2.2999999999999545-3.1000000000000227-1.8999999999999773-7-2.6000000000000227-10.5z m-299.1 182.70000000000005c-1.1999999999999318-2-2.599999999999909-5.300000000000068-5.099999999999909-1.6000000000000227-5.600000000000023 8.699999999999932-12.100000000000023 16.600000000000023-8 28.899999999999977 10.099999999999909 29.899999999999977 17.59999999999991 60.60000000000002 21.699999999999932 92 5.5 42.60000000000002 7.899999999999977 85.5 7 128.39999999999998-0.2999999999999545 13.200000000000045 0 26.5-2.3999999999999773 39.5h3c23.899999999999977-26 36.700000000000045-57 41-91.60000000000002 4.7999999999999545-38.59999999999991 1-76.09999999999991-13.399999999999977-112.59999999999991-11.5-29.300000000000068-27.800000000000068-56-43.80000000000007-83z m-183.69999999999993 1.2999999999999545l-23.30000000000001 40c-26.80000000000001 48-40.80000000000001 98.89999999999998-33 154.39999999999998 4.800000000000011 34.60000000000002 17.30000000000001 65.60000000000002 41.19999999999999 91.60000000000002h3c-0.30000000000001137-1.8999999999999773-1-3.7999999999999545-1.1000000000000227-5.7000000000000455-3.099999999999966-51.5-1.2999999999999545-102.89999999999998 4.600000000000023-154.19999999999993 3.8000000000000114-32.60000000000002 10.899999999999977-64.70000000000005 21.399999999999977-95.80000000000007 3.900000000000034-11.5 2-20.699999999999932-4.5-30.199999999999932-3.099999999999966-4.5-5-6.2000000000000455-8.299999999999955-0.10000000000002274z m161.89999999999998-516.9c12.5-23.50000000000003 30.399999999999977-42.50000000000003 49-61.20000000000002 3.3999999999999773-3.4000000000000057 7.7999999999999545-6 9.600000000000023-10.800000000000004h-7.399999999999977c-3.1000000000000227 2.6000000000000014-7.2000000000000455 2.3999999999999986-10.800000000000068 3.499999999999993-35.799999999999955 10-66.60000000000002 35.900000000000006-62.60000000000002 82.80000000000001 0.900000000000091 10.099999999999994 2.2000000000000455 20.099999999999994 7.800000000000068 31.099999999999994 3.2999999999999545-16.80000000000001 7.100000000000023-31.599999999999994 14.399999999999977-45.400000000000006z m-190.7-63.70000000000002c15.399999999999977 15.699999999999989 31.099999999999966 31.19999999999999 43.30000000000001 49.89999999999999 11.599999999999966 17.60000000000001 18.799999999999955 36.7 22.299999999999955 57.3 2.2000000000000455-0.29999999999998295 2.400000000000034-1.5999999999999943 2.7000000000000455-2.6999999999999886 7.199999999999989-20.599999999999994 8.699999999999989-41.70000000000002 0.8999999999999773-61.900000000000006-10.199999999999989-26.400000000000006-32.19999999999999-40.2-58.69999999999999-47.599999999999994-3.400000000000034-1-7.300000000000011-0.7000000000000028-10.100000000000023-3.3000000000000043h-7.300000000000011c1.1000000000000227 3.8000000000000043 4.400000000000034 5.800000000000004 6.900000000000034 8.300000000000004z m388.09999999999997 466.20000000000005c-27.600000000000023-28.5-59.5-51.900000000000034-89.5-77.5-3.7999999999999545-3.3000000000000114-5.899999999999977-2.2000000000000455-7.5 2-2.3999999999999773 6.399999999999977-4.2999999999999545 13.099999999999966-7.5 19.099999999999966-3.8999999999999773 7.199999999999989-2.3999999999999773 11.5 3.8999999999999773 16.5 25.700000000000045 19.900000000000034 48.10000000000002 43.19999999999999 66.80000000000007 70.09999999999997 29.299999999999955 42.30000000000007 43.60000000000002 89 41.60000000000002 140.4000000000001 0 0.6999999999999318-0.20000000000004547 1.5-1.6000000000000227 1.3999999999999773-0.7000000000000455-4.100000000000023-1.5-8.399999999999977-2.1000000000000227-12.600000000000023-9.200000000000045-59.89999999999998-34.299999999999955-112.10000000000002-76.29999999999995-155.79999999999995-11.900000000000091-12.300000000000068-24.600000000000023-24-39.30000000000007-33.10000000000002-5.600000000000023-3.5-9.799999999999955-3.3000000000000114-12.799999999999955 3.5-3.2000000000000455 7.399999999999977-6.800000000000068 14.699999999999932-10.700000000000045 21.699999999999932-2.7999999999999545 5.100000000000023-2.199999999999932 9.100000000000023 1.6000000000000227 13.300000000000068 8.899999999999977 10.100000000000023 17.399999999999977 20.600000000000023 26.5 30.600000000000023 57.5 63.799999999999955 86.60000000000002 138.79999999999995 89.20000000000005 224.39999999999998 0.2999999999999545 9.399999999999977 0 18.899999999999977 0 29.699999999999932 5-1.7999999999999545 5.599999999999909-4.099999999999909 6.599999999999909-5.899999999999977 10-16.600000000000023 19.5-33.39999999999998 27.600000000000023-51 21.300000000000068-46.19999999999993 33.60000000000002-94.10000000000002 26.899999999999977-145.39999999999998-4.399999999999977-35.10000000000002-18.799999999999955-65.89999999999998-43.39999999999998-91.39999999999998z m-400.9 9.600000000000023c4.100000000000023-4.7000000000000455 5.100000000000023-9 1.6999999999999886-14.5-3-5.100000000000023-5.199999999999989-10.600000000000023-7.800000000000011-15.800000000000068-6.899999999999977-13.899999999999977-8.199999999999989-14.299999999999955-20.899999999999977-5.599999999999966l-1.1999999999999886 0.8999999999999773c-56.10000000000002 43.19999999999999-91.20000000000002 99.59999999999997-106 168.7-2 9.5-3.5 19.200000000000045-5.200000000000017 28.800000000000068-1.1999999999999886-19.5-1.299999999999983-38.80000000000007 2.9000000000000057-57.700000000000045 9.800000000000011-43.89999999999998 31.30000000000001-81.5 61.19999999999999-114.70000000000005 13.600000000000023-15 28.30000000000001-28.599999999999966 44.30000000000001-40.89999999999998 4.600000000000023-3.599999999999966 6.600000000000023-6.899999999999977 3.3000000000000114-12.899999999999977-3.400000000000034-6.100000000000023-5.600000000000023-13-7.800000000000011-19.80000000000001-1.8999999999999773-5.699999999999989-4-7.099999999999966-9.199999999999989-2.6999999999999886-24.19999999999999 20.69999999999999-49.5 40.19999999999999-73.10000000000002 61.799999999999955-13.799999999999983 12.600000000000023-26.599999999999994 26.100000000000023-36.29999999999998 42.30000000000007-25 41.60000000000002-28.599999999999994 86.29999999999995-20.599999999999994 132.79999999999995 7.299999999999983 41.60000000000002 24.399999999999977 79.39999999999998 45.39999999999998 115.60000000000002 3.4000000000000057 5.899999999999977 7 11.600000000000023 11 18.399999999999977 2.4000000000000057-3.7999999999999545 1.700000000000017-6.600000000000023 1.8000000000000114-9.199999999999932 1.0999999999999943-26.40000000000009 1.5-52.80000000000007 7-79 10.899999999999977-52.700000000000045 31-101.10000000000002 64.30000000000001-143.5 14.5-18.40000000000009 30-35.60000000000002 45.19999999999999-53z m435.1-120.00000000000006c-35-25.599999999999966-73.70000000000005-44.69999999999999-111.60000000000002-65.19999999999999-5.2999999999999545-2.8999999999999773-5.899999999999977 1-6.7999999999999545 4.100000000000023-3.400000000000091 11.199999999999989-8.700000000000045 21.299999999999955-16.200000000000045 30.299999999999955-3.7999999999999545 4.5-4.2999999999999545 9.200000000000045-2.5 14.300000000000011 2.3999999999999773 7.300000000000011 5.899999999999977 13.900000000000034 11 19.80000000000001 7.2999999999999545 8.300000000000011 15.899999999999977 15.199999999999989 24.600000000000023 22.100000000000023 33.69999999999993 26.899999999999977 68.60000000000002 52.599999999999966 97.10000000000002 85.39999999999998 29.699999999999932 34.10000000000002 52.5 71.89999999999998 61.19999999999993 117.10000000000002 0.3000000000000682 1.6999999999999318 0.3000000000000682 3.8999999999999773 2.300000000000068 4.199999999999932 2.699999999999932 0.3000000000000682 2.699999999999932-2.5 3.099999999999909-4.199999999999932 5.5-25.600000000000023 10.100000000000023-51.39999999999998 9.5-77.89999999999998-0.1999999999999318-10.5-0.39999999999997726-21-1.6999999999999318-31.5-5.899999999999977-49.900000000000034-29.5-88.90000000000003-70-118.50000000000006z m-562 75.10000000000002c25.099999999999966-22 51.599999999999966-42.19999999999999 77.39999999999998-63.400000000000034 9-7.399999999999977 15.899999999999977-16.69999999999999 19.30000000000001-28.099999999999966 1.099999999999966-3.6999999999999886 2.3999999999999773-7.699999999999989-0.30000000000001137-11.300000000000011-8.300000000000011-10.800000000000011-15.100000000000023-22.19999999999999-19-35.39999999999998-1.1000000000000227-3.900000000000034-3.5-3.8000000000000114-6.699999999999989-1.900000000000034-5.5 3.1999999999999886-11.100000000000023 6.300000000000011-16.69999999999999 9.199999999999989-33.900000000000034 17.100000000000023-67.10000000000002 35.60000000000002-97.60000000000002 58.400000000000034-24.80000000000001 18.599999999999966-44.400000000000006 41.69999999999999-55.599999999999994 70.89999999999998-9.300000000000011 24.099999999999966-13.600000000000009 49.50000000000006-12.700000000000003 76.30000000000001-0.7000000000000028 25.899999999999977 3.799999999999997 52 9.399999999999991 77.89999999999998 0.30000000000001137 1.7000000000000455 0.30000000000001137 4.5 3 4.300000000000068 2.4000000000000057-0.3000000000000682 2.0999999999999943-2.900000000000091 2.4000000000000057-4.7000000000000455 1.6999999999999886-8.899999999999977 4-17.700000000000045 6.900000000000006-26.200000000000045 17.400000000000006-51.09999999999991 50.400000000000006-91.09999999999991 90.19999999999999-125.99999999999994z m388.5 62.099999999999966c-1-1-1.8999999999999773-2.8999999999999773-3.3999999999999773-2.3999999999999773-2.300000000000068 0.7000000000000455-1.900000000000091 3.1000000000000227-2 5-0.5 20-9.400000000000091 35.200000000000045-26.700000000000045 45.200000000000045-5.2000000000000455 3.099999999999909-4.100000000000023 5.7999999999999545-1.2000000000000455 9.799999999999955 25.800000000000068 36.700000000000045 49.5 74.79999999999995 65.40000000000009 117.10000000000002 17.799999999999955 47.60000000000002 28 96.39999999999998 18.5 147.5-1.1000000000000227 6.100000000000023-3.400000000000091 12.199999999999932-3.2000000000000455 19.899999999999977 1.8999999999999773-1.5 2.7999999999999545-1.8999999999999773 3.3999999999999773-2.6000000000000227 1.1000000000000227-1.1999999999999318 2.300000000000068-2.5 3.300000000000068-3.8999999999999773 9.5-12.200000000000045 15.399999999999977-26.100000000000023 19.799999999999955-40.700000000000045 15.200000000000045-50.09999999999991 13.700000000000045-100.59999999999991 3.2000000000000455-151.19999999999993-11.400000000000091-55.39999999999998-38.60000000000002-102.60000000000002-77.10000000000002-143.70000000000005z m-222.10000000000002 57.80000000000007c3.1999999999999886-4.5 3.6000000000000227-7.5-1.6999999999999886-10.200000000000045-1.5-0.7999999999999545-2.6999999999999886-2-4.100000000000023-3.1000000000000227-12.199999999999989-8.600000000000023-20.19999999999999-19.600000000000023-21-35.299999999999955-0.19999999999998863-3.8999999999999773-0.0999999999999659-8.300000000000068-2.8999999999999773-12.200000000000045-4.800000000000011 3.1000000000000227-7.400000000000034 7.899999999999977-11 11.800000000000068-27.5 30.09999999999991-47.80000000000001 64.29999999999995-61 102.89999999999998-13.600000000000023 39.799999999999955-17.80000000000001 80.79999999999995-16.400000000000034 122.39999999999998 1 29.799999999999955 7.5 58.700000000000045 20.700000000000045 85.79999999999995 3.8999999999999773 8 8.699999999999989 15.600000000000023 15.899999999999977 22 1.3999999999999773-3.699999999999932 0.30000000000001137-6.199999999999932-0.19999999999998863-8.699999999999932-2.400000000000034-11-4.400000000000034-22.100000000000023-5.199999999999989-33.30000000000007-3.2000000000000455-42.69999999999993 5.899999999999977-83.29999999999995 20.599999999999966-122.89999999999998 16.100000000000023-43.19999999999993 40.10000000000002-81.79999999999995 66.30000000000001-119.19999999999993z m161-8.300000000000068c-18.700000000000045 8.700000000000045-34.299999999999955 2.1000000000000227-49.700000000000045-9.299999999999955-10.099999999999966-7.5-14.299999999999955-15.600000000000023-13.699999999999932-28.899999999999977 0.5999999999999659-11.600000000000023 5-17.100000000000023 14.699999999999932-21.300000000000068 12.800000000000068-5.5 25.90000000000009-10.600000000000023 37.80000000000007-17.799999999999955 8.600000000000023-5.2000000000000455 11.5-13.700000000000045 11.899999999999977-23.399999999999977-2.6000000000000227-0.40000000000009095-3.7999999999999545 0.8999999999999773-5.2000000000000455 1.8999999999999773-7.099999999999909 5.899999999999977-15.099999999999909 8.699999999999932-24.5 7.600000000000023-5.2999999999999545-0.6000000000000227-10.099999999999909 1.2999999999999545-14.799999999999955 3.3999999999999773-15.399999999999977 6.7999999999999545-30.899999999999977 6.7999999999999545-46.30000000000001 0-5-2.2000000000000455-10-4-15.599999999999966-3.5-8.700000000000045 0.8999999999999773-16.400000000000034-1.3999999999999773-23.100000000000023-7.2000000000000455-1.3999999999999773-1.1999999999999318-2.8999999999999773-2.699999999999932-5.399999999999977-2.5-0.8000000000000114 2.6000000000000227-0.30000000000001137 5.100000000000023 0.5 7.7000000000000455 2.6999999999999886 9.299999999999955 8.5 15.399999999999977 17.299999999999955 19.600000000000023 13.300000000000011 6.199999999999932 27 11.399999999999977 39.900000000000034 18.59999999999991 3.8000000000000114 2.2000000000000455 5.699999999999989 4.800000000000068 5.699999999999989 9.300000000000068-0.10000000000002274 6.100000000000023 0.30000000000001137 12.199999999999932 0.6000000000000227 18.399999999999977 0.2999999999999545 4-0.9000000000000341 7.100000000000023-4.100000000000023 9.600000000000023-5.699999999999989 4.2999999999999545-10.899999999999977 9-16.80000000000001 13.100000000000023-11.899999999999977 8.399999999999977-24.69999999999999 11.099999999999909-38.80000000000001 5.699999999999932-10.399999999999977-3.8999999999999773-14.299999999999955-0.39999999999997726-12.899999999999977 11.100000000000023 0.5 3.8999999999999773 1.6999999999999886 7.600000000000023 3.8000000000000114 11 5.599999999999966 9.399999999999977 8.300000000000011 9.799999999999955 16.19999999999999 2.3999999999999773 32.89999999999998-30.799999999999955 78.29999999999995-31.100000000000023 111.29999999999995-0.5 8.700000000000045 8 12.5 7.2000000000000455 17.800000000000068-3.699999999999932 2.5-5.2000000000000455 3.3999999999999773-10.5 2.199999999999932-16.40000000000009-1.1999999999999318-5.2999999999999545-3.099999999999909-7.5-8.799999999999955-4.899999999999977z m-50.10000000000002 72.89999999999998c-10.799999999999955 0.20000000000004547-21.599999999999966 0.3000000000000682-32.39999999999998-0.09999999999990905-5.899999999999977-0.20000000000004547-8 1.6999999999999318-7.899999999999977 8 0.8999999999999773 35.799999999999955 3.2999999999999545 71.5 7.7999999999999545 107 2.1000000000000227 16.5 7.600000000000023 32.19999999999993 15.800000000000011 48.69999999999993 7.300000000000011-13.699999999999932 12.199999999999989-26.600000000000023 14.300000000000011-40.10000000000002 6.2000000000000455-38.5 8.200000000000045-77.39999999999998 9.299999999999955-116.39999999999998 0.40000000000009095-5.600000000000023-1.599999999999909-7.199999999999932-6.899999999999977-7.100000000000023z m-67.89999999999998 93.80000000000007c-2.3000000000000114-31.100000000000023-3-62.30000000000007-1.6999999999999886-93.39999999999998 0.0999999999999659-2.300000000000068 0.8999999999999773-4.800000000000068-1-7.2000000000000455-2.6999999999999886 1.2999999999999545-2.6999999999999886 3.8999999999999773-3.5 6-9.600000000000023 24.899999999999977-13.100000000000023 51.10000000000002-15.800000000000011 77.5-2.6000000000000227 25-2.8000000000000114 49.89999999999998 2.8999999999999773 74.60000000000002 5.2000000000000455 22.600000000000023 15.800000000000011 41.60000000000002 35.30000000000001 54.89999999999998 1.6999999999999886 1.1000000000000227 3.8000000000000114 3.2999999999999545 5.900000000000034 1.8999999999999773 2.3999999999999773-1.6999999999999318 0-4-0.5-5.899999999999977-11.200000000000045-35.299999999999955-18.900000000000034-71.39999999999998-21.600000000000023-108.39999999999998z m105.29999999999995-100.30000000000007c-0.09999999999990905 23.200000000000045-0.2999999999999545 46.30000000000007-0.6999999999999318 69.30000000000007-1 47.89999999999998-9 94.5-23.399999999999977 140.19999999999993-0.5 1.7000000000000455-2.6000000000000227 3.800000000000068-0.5 5.300000000000068 2.199999999999932 1.6000000000000227 4.2999999999999545-0.5 5.899999999999977-1.7000000000000455 12.199999999999932-8.699999999999932 22-19.399999999999977 28.100000000000023-33.299999999999955 7.2999999999999545-16.800000000000068 10.799999999999955-34.60000000000002 11.599999999999909-52.80000000000007 1.5-31.799999999999955-2.599999999999909-63.19999999999993-9.099999999999909-94.09999999999991-2.400000000000091-11.600000000000023-5.400000000000091-22.800000000000068-11.900000000000091-32.90000000000009z m-144.79999999999995-326.19999999999993c-3.8999999999999773-2.3000000000000114-7.600000000000023-7.100000000000023-13-3.8000000000000114l-31.80000000000001 19.899999999999977c-4.599999999999966 2.8000000000000114-2.6999999999999886 4.5 0.30000000000001137 6.800000000000011 4.300000000000011 3.1000000000000227 8.100000000000023 0.30000000000001137 11.800000000000011-0.8999999999999773 4.399999999999977-1.5 6.599999999999966-0.6000000000000227 7.199999999999989 3.8999999999999773 0.5 4 3.1000000000000227 6.399999999999977 6.399999999999977 8.300000000000011 8.800000000000011 5.199999999999989 18.400000000000034 8 28.700000000000045 7.699999999999989 6.599999999999966-0.30000000000001137 8.799999999999955 2.6999999999999886 7.2999999999999545 9.100000000000023-0.6999999999999886 3.099999999999966-1.6999999999999886 6.099999999999966-0.6999999999999886 9.399999999999977 12-2.6000000000000227 11.900000000000034-2.6000000000000227 10.900000000000034 10.699999999999989-1 14.300000000000011-5 27.900000000000034-9.200000000000045 41.5-2.599999999999966 8.5-6.099999999999966 16.69999999999999-6.7999999999999545 25.80000000000001 2-2.3999999999999773 3.599999999999966-5.199999999999989 4.699999999999989-8 5.199999999999989-13.399999999999977 10.899999999999977-26.69999999999999 15.5-40.39999999999998 6.800000000000011-20.5 10.800000000000011-41.5 6.399999999999977-63.30000000000001-1.6999999999999886-8.600000000000023-5.899999999999977-13.800000000000011-14.5-16.400000000000034-5.699999999999989-1.6999999999999886-12.899999999999977-0.5999999999999659-16.5-7.599999999999966-1-1.900000000000034-2.8999999999999773 0.5999999999999659-4.199999999999989 1.5-3.1999999999999886 2.3999999999999773-6.399999999999977 4.699999999999989-9.5 7.199999999999989l-1.3000000000000114-1.6000000000000227c2.3000000000000114-1.8999999999999773 4.5-3.7999999999999545 6.699999999999989-5.899999999999977 1.2000000000000455-1 3.7000000000000455-2.6000000000000227 1.6000000000000227-3.8999999999999773z m175.89999999999998 2.6999999999999886c-4.2999999999999545 8-12.899999999999977 5.599999999999966-19.199999999999932 8.699999999999989-4 1.8999999999999773-8.200000000000045 3.8000000000000114-9.600000000000023 8.399999999999977-2.8999999999999773 9.100000000000023-5.2000000000000455 18.600000000000023-4.399999999999977 28.100000000000023 1.599999999999909 19.30000000000001 5.599999999999909 38.19999999999999 13.299999999999955 56.10000000000002 5 11.5 8.600000000000023 23.599999999999966 15.799999999999955 36.299999999999955 0.3000000000000682-7.399999999999977-2.3999999999999773-12-3.7999999999999545-16.899999999999977-5.7000000000000455-19.19999999999999-13.100000000000023-38-12.5-58.5 0.20000000000004547-5.600000000000023 0.7000000000000455-8.699999999999989 7.100000000000023-5.199999999999989 2.199999999999932 1.1999999999999886 4.600000000000023 2.6999999999999886 4.199999999999932-2.3000000000000114-1.2999999999999545-14.699999999999989-1.099999999999909-14.699999999999989 13.400000000000091-15.699999999999989 1.6999999999999318-0.10000000000002274 3.5-0.10000000000002274 5.099999999999909-0.6000000000000227 8-2.599999999999966 18.300000000000068-3.8000000000000114 21.5-12.199999999999989 3.1000000000000227-8 6.400000000000091-8.199999999999989 12.600000000000023-5.300000000000011 0.8999999999999773 0.4000000000000341 1.8000000000000682 0.8000000000000114 2.800000000000068 0.9000000000000341 3.599999999999909 0.2999999999999545 6.599999999999909-1.5 8-4.2000000000000455 1.3999999999999773-3.099999999999966-2.400000000000091-3.599999999999966-4.300000000000068-4.7999999999999545-9.399999999999977-6.100000000000023-19-12.100000000000023-28.5-18.100000000000023-3.7999999999999545-2.3999999999999773-12.5-1.1000000000000227-14.299999999999955 2.6000000000000227-2.1000000000000227 4.5 3.2999999999999545 4.899999999999977 5.199999999999932 7.2999999999999545 0.900000000000091 1.1000000000000227 2.6000000000000227 1.5 2.6000000000000227 4.300000000000011-4.699999999999932-1.3999999999999773-7.2999999999999545-4.699999999999989-10.600000000000023-7.199999999999989-1.5-1-3.599999999999909-3.1999999999999886-4.399999999999977-1.6999999999999886z m-195.29999999999995 176.99999999999994c-1-1.1999999999999318-2.2000000000000455-3.2999999999999545-4-2.3999999999999773-2.6000000000000227 1.3000000000000682-0.7000000000000455 3.7000000000000455 0 5.100000000000023 2.6999999999999886 5.5 5.199999999999989 11.200000000000045 8.699999999999989 16.100000000000023 9.5 13.299999999999955 22.399999999999977 20.299999999999955 39.19999999999999 18.199999999999932 13.600000000000023-1.6999999999999318 27.19999999999999-4.2999999999999545 41.30000000000001-1 1.099999999999966-0.8999999999999773 3.3999999999999773 1 4.199999999999989-1.1999999999999318 0.8999999999999773-2.3999999999999773-1.5-3.300000000000068-3.1000000000000227-4.399999999999977-8.699999999999989-5.7000000000000455-18-6.800000000000068-28.19999999999999-5.400000000000091-17.099999999999966 2.400000000000091-33.89999999999998 3.6000000000000227-46.80000000000001-11.5-3.6999999999999886-4.5-7.5-9.099999999999909-11.299999999999955-13.5z m55.099999999999966 17.200000000000045c-19.69999999999999-2.5-35.5-12.600000000000023-49.80000000000001-25.600000000000023 1.5 18.899999999999977 29.5 33.30000000000007 49.80000000000001 25.600000000000023z m127.30000000000001 33.89999999999998c-9.799999999999955 1.3999999999999773-19.5-0.39999999999997726-29.100000000000023-2-1.5-0.2999999999999545-3.699999999999932-1.1000000000000227-4.2999999999999545 1.2000000000000455-0.39999999999997726 1.6999999999999318 1.1999999999999318 2.3999999999999773 2.3999999999999773 3.1000000000000227 6.600000000000023 3.2999999999999545 13.200000000000045 6.399999999999977 19.899999999999977 6.699999999999932 8.200000000000045-0.1999999999999318 14.600000000000023-3 20.800000000000068-6.600000000000023 1.2999999999999545-0.7999999999999545 2.699999999999932-1.6999999999999318 2-3.3999999999999773-0.7000000000000455-1.6999999999999318-2.5-1-3.800000000000068-0.7999999999999545-2.699999999999932 0.6999999999999318-5.199999999999932 1.5-7.899999999999977 1.7999999999999545z m-413.8-265.9c47.30000000000001-31.5 100.19999999999999-48.30000000000001 155.40000000000003-58.69999999999999 35.299999999999955-6.600000000000023 68.5-18.30000000000001 97.19999999999999-40.70000000000002 11.300000000000011-8.799999999999983 20.30000000000001-19.5 28.80000000000001-32.79999999999998-2.400000000000034 0.5-2.900000000000034 0.39999999999997726-3.3000000000000114 0.6999999999999886-1 0.5999999999999943-2.1000000000000227 1.1999999999999886-3.1000000000000227 2-18.5 15.5-40.39999999999998 21-63.89999999999998 22.599999999999994-31.69999999999999 2-63.30000000000001-0.6999999999999886-94.80000000000001-0.4000000000000057-25.599999999999994 0.30000000000001137-50.69999999999999 3.4000000000000057-72 18.80000000000001-28.900000000000006 20.599999999999994-43 50.69999999999999-50.099999999999994 84.39999999999998-0.4000000000000057 2-2.5 4.600000000000023-0.5999999999999943 6.2000000000000455 2.299999999999983 1.8999999999999773 4.5-0.8000000000000114 6.399999999999977-2.1000000000000227z m484.90000000000003-106.30000000000001c-28.700000000000045-0.09999999999999432-56.10000000000002-5.199999999999989-78.80000000000007-24.799999999999983-0.5-0.4000000000000057-1.2999999999999545-0.5-2.8999999999999773-1.200000000000017 3.300000000000068 9 16.700000000000045 24.5 27.600000000000023 32.900000000000006 29 22.5 62.39999999999998 34.099999999999994 97.89999999999998 40.900000000000006 47.30000000000007 8.899999999999977 93.10000000000002 22.69999999999999 135.30000000000007 46.69999999999999 7.2999999999999545 4.100000000000023 14.199999999999932 8.699999999999989 21.299999999999955 13 1.2999999999999545 0.8000000000000114 2.8999999999999773 2.400000000000034 4.5 1 1.2999999999999545-1 0.2999999999999545-2.6999999999999886 0-4.099999999999966-1.7000000000000455-6.600000000000023-3.1000000000000227-13.300000000000011-5.100000000000023-19.900000000000034-16.799999999999955-55.5-53.10000000000002-83.89999999999998-110.89999999999998-85.29999999999998-29.600000000000023-0.5999999999999943-59.200000000000045 0.799999999999983-88.89999999999998 0.799999999999983z m-392.1-13.899999999999977c26.19999999999999-9.300000000000011 52.69999999999999-13.700000000000017 80.60000000000002-6.300000000000011 29.899999999999977 8 59.69999999999999 6.400000000000006 88.09999999999997-7.099999999999994 1.6999999999999886-0.8000000000000114 3.8000000000000114-1 4.199999999999989-4.099999999999994-10.299999999999955-1.700000000000017-20.599999999999966-2.8000000000000114-30.799999999999955-5.400000000000006-19.200000000000045-5-36-15.099999999999994-53.700000000000045-23.400000000000006-9.699999999999989-4.5-19.899999999999977-6.800000000000011-30.5-5.900000000000006-19.399999999999977 1.700000000000017-36.099999999999966 9.700000000000017-50.89999999999998 22.30000000000001-14 11.900000000000006-26.5 25.099999999999994-38 39.400000000000006 0.4000000000000057 0.5999999999999943 0.9000000000000057 1.299999999999983 1.1999999999999886 1.8999999999999773 9.800000000000011-3.799999999999983 19.700000000000017-7.899999999999977 29.80000000000001-11.399999999999977z m400.70000000000005-42.20000000000002c-12.5 7.099999999999994-25.5 13.300000000000011-39.5 17.599999999999994-11.800000000000068 3.700000000000017-24.100000000000023 5.200000000000017-36.40000000000009 7.100000000000023 1.1000000000000227 3.799999999999983 3.900000000000091 3.799999999999983 6 4.699999999999989 28.90000000000009 13.5 58.700000000000045 13.599999999999994 89 6.099999999999994 7.300000000000068-1.799999999999983 14.700000000000045-3.4000000000000057 22.40000000000009-3.5999999999999943 25.5-0.5999999999999943 49.19999999999993 7.199999999999989 72.39999999999998 16.599999999999994 4.399999999999977 1.700000000000017 8.600000000000023 4.5 13.600000000000023 4.5 0.2999999999999545-3.0999999999999943-1.8000000000000682-4.699999999999989-3.300000000000068-6.5-10.899999999999977-12.599999999999994-22.199999999999932-24.799999999999983-35.299999999999955-35.29999999999998-25.5-20.600000000000023-56.30000000000007-29.600000000000023-88.89999999999998-11.200000000000017z m-299.20000000000005-14c21.30000000000001 6.700000000000017 40.30000000000001 18.200000000000017 60.5 28-10.600000000000023-21.5-23.80000000000001-40.5-45.10000000000002-52.5-24.69999999999999-13.899999999999991-63.5-4.8999999999999915-81.09999999999997 19.700000000000017 23.099999999999966-5.400000000000006 44.599999999999966-1.9000000000000057 65.69999999999999 4.799999999999983z m234.10000000000002 28.099999999999994c39.5-20.899999999999977 78.5-42.499999999999986 126-34-10.300000000000068-9.099999999999994-20.700000000000045-17.19999999999999-33.5-21.89999999999999-9.100000000000023-3.299999999999997-18.5-5.3999999999999915-28.100000000000023-3.3999999999999915-32.89999999999998 6.8999999999999915-49.60000000000002 31.799999999999983-64.39999999999998 59.29999999999998z"/>
</svg>
