<svg xmlns="http://www.w3.org/2000/svg" viewBox="0 0 1000 1000" width="1000" height="1000">
<path d="M67.9 701.9c23.69999999999999-40.299999999999955 55.8-72.10000000000002 96.29999999999998-95.5 11-6.2999999999999545 17.5-8.199999999999932 29 1.7000000000000455 55.30000000000001 47.60000000000002 154.5 37.19999999999993 199.10000000000002-20.899999999999977 11-14.300000000000068 17.099999999999966-13.200000000000045 30.80000000000001-4.600000000000023 58.599999999999966 37.60000000000002 121 61.799999999999955 192.60000000000002 45.799999999999955 15.199999999999932-3.3999999999999773 27.59999999999991 5.300000000000068 40.09999999999991 10.700000000000045 19 8.199999999999932 30.200000000000045 1.7999999999999545 38.30000000000007-15.300000000000068 1.8999999999999773-4 3.8999999999999773-7.899999999999977 5.7999999999999545-11.799999999999955 22.100000000000023-42.700000000000045 44.5-55.200000000000045 92.39999999999998-46.39999999999998 15 2.7999999999999545 18.100000000000023-1 20.700000000000045-13.5 3.7000000000000455-17.200000000000045 9.299999999999955-34 13.600000000000023-51 2.5-9.800000000000011 7.100000000000023-19.100000000000023-1.5-29.600000000000023-6.7000000000000455-8.199999999999989-1.2000000000000455-17.399999999999977 7.100000000000023-22.19999999999999 7.199999999999932-4.100000000000023 15.699999999999932-3.6999999999999886 21.699999999999932 3.5 6.7000000000000455 7.899999999999977 5.800000000000068 16-0.6999999999999318 23.80000000000001-17.40000000000009 21.19999999999999-30.300000000000068 56.69999999999993-33.40000000000009 97.39999999999998-0.1999999999999318 2.8999999999999773 3.400000000000091 4.399999999999977 5.300000000000068 2.2000000000000455 28.199999999999932-33.60000000000002 65-51.40000000000009 77-91.90000000000003 2.699999999999932-9 8-16.30000000000001 18.799999999999955-15.300000000000011 10 1 16.100000000000023 7 16.700000000000045 17.30000000000001 0.5 10.699999999999989-6.300000000000068 15.800000000000011-15.700000000000045 18.19999999999999-35.799999999999955 15.700000000000045-62.299999999999955 44.60000000000002-86.5 73.5-7.5 6 0.5 10.799999999999955 4.100000000000023 15.200000000000045 22.299999999999955 27.399999999999977 26 57.89999999999998 11.399999999999977 89.09999999999991-15.399999999999977 32.90000000000009-43.60000000000002 47.30000000000007-79.29999999999995 47.40000000000009-226.20000000000005 0.09999999999990905-452.40000000000003 0.09999999999990905-678.5 0.09999999999990905-8.90000000000002 0-25.90000000000002-1.2999999999999545-30.00000000000002-9.799999999999955-2.3999999999999986-4.5 4.800000000000004-18.100000000000023 4.800000000000004-18.100000000000023z m700-69.10000000000002c9-2.2999999999999545 16-8.199999999999932 15.600000000000023-17.899999999999977-0.39999999999997726-11.299999999999955-8.200000000000045-17.399999999999977-19.600000000000023-16.199999999999932-10.199999999999932 1.099999999999909-16 8.199999999999932-14.600000000000023 18.199999999999932 1.3000000000000682 9.700000000000045 7.400000000000091 15.700000000000045 18.600000000000023 15.899999999999977z m-439-188.09999999999997c45.900000000000034 14.600000000000023 60.400000000000034 32.5 62.10000000000002 72.40000000000003 1.8999999999999773 44.39999999999998-18.30000000000001 79.19999999999993-54.69999999999999 94.10000000000002-63.400000000000034 25.899999999999977-131.20000000000002 0.6999999999999318-163-60.5-58.000000000000014-111.30000000000007 1.6999999999999886-248.80000000000007 119.89999999999998-276.00000000000006 86.30000000000001-19.899999999999977 192.60000000000002 27.80000000000001 241.8 107.5 40.5 65.69999999999999 56.799999999999955 137.90000000000003 62 213.7 1.1000000000000227 15.300000000000068-4.2000000000000455 20.399999999999977-19 20.399999999999977-53.200000000000045 0.20000000000004547-99.69999999999999-19.5-143.8-46.799999999999955-7.5-4.600000000000023-6.300000000000011-11.399999999999977-7-18.399999999999977-3.099999999999966-30.200000000000045-11.5-58.700000000000045-29.69999999999999-83.5-16.399999999999977-22.200000000000045-36.80000000000001-32.60000000000002-68.60000000000002-22.900000000000034z"/>
</svg>
