<svg xmlns="http://www.w3.org/2000/svg" viewBox="0 0 1000 1000" width="1000" height="1000">
<path d="M542.4 854.3c28.100000000000023 30.600000000000023 18.300000000000068 67.70000000000005-20.799999999999955 81.20000000000005-2.7000000000000455 1-2.300000000000068 0.7000000000000455-7.399999999999977 1.1000000000000227 0 0-55.200000000000045 2-73.50000000000006 0-18.80000000000001-2-36.80000000000001-8.800000000000068-55.5-12.100000000000023-12.300000000000011-2.2000000000000455-17.30000000000001-7.2999999999999545-18.899999999999977-20.600000000000023-9.300000000000011-78.60000000000002 4.199999999999989-155.39999999999998 17.099999999999966-232.10000000000002 6.7000000000000455-40.59999999999991 16.30000000000001-80.79999999999995 24.5-120.89999999999998-5.399999999999977 4.399999999999977-8.899999999999977 9.399999999999977-11.199999999999989 14.899999999999977-5.699999999999989 13.200000000000045-11.5 26.700000000000045-16.19999999999999 40.30000000000007-4.300000000000011 12.899999999999977-3.3999999999999773 31.699999999999932-12 38.10000000000002-11.199999999999989 8.299999999999955-25.30000000000001-8.700000000000045-39.60000000000002-9.5-0.5999999999999659 0-1.2999999999999545 0.6999999999999318-3.099999999999966 1.599999999999909 3.8000000000000114 5.7000000000000455 7.099999999999966 11.800000000000068 11.699999999999989 16.600000000000023 15.699999999999989 16.300000000000068 17.69999999999999 33.200000000000045 8.199999999999989 53.89999999999998-15.399999999999977 33.90000000000009-28 69.20000000000005-43.30000000000001 103.20000000000005-5.699999999999989 12.399999999999977-4.5 18.5 7.800000000000011 24.799999999999955 31 16.200000000000045 35.30000000000001 27.5 30 61.30000000000007-1.599999999999966 10.100000000000023-6.199999999999989 15.199999999999932-15.199999999999989 17-38.69999999999999 7.199999999999932-77.30000000000001 7.100000000000023-116.4 2.8999999999999773-14.5-1.6000000000000227-20.599999999999994-9.399999999999977-24.900000000000006-22-26.19999999999999-78.10000000000002-45.79999999999998-158-59.69999999999999-239.29999999999995-1-5.600000000000023-1.7999999999999972-11.200000000000045-2.700000000000003-16.800000000000068-21.599999999999994-142.2-6-266.4-6-266.4 4.400000000000006-20.100000000000023 10.700000000000003-39.5 26.299999999999997-54.69999999999999 28.30000000000001-27.600000000000023 63.400000000000006-44.5 99.70000000000002-59.10000000000002 10.799999999999983-4.299999999999983 14.299999999999983-0.8999999999999773 15.5 10.699999999999989 1.3000000000000114 13-5.900000000000006 30.100000000000023 13.5 37.30000000000001 2.5 1 0.5999999999999659 5.199999999999989-1.900000000000034 7.300000000000011-17.69999999999999 14.300000000000011-10.399999999999977 20.899999999999977 7.5 25.19999999999999 5.5 1.3000000000000114 12.200000000000045 2.6999999999999886 15.100000000000023 9.699999999999989-16.600000000000023-2.599999999999966-33-5.199999999999989-49.400000000000006-7.899999999999977-12.5-1.8999999999999773-17 3-12.199999999999989 15.100000000000023 8 20.899999999999977 19 40.099999999999966 36.400000000000006 54.599999999999966 7.199999999999989 5.900000000000034 15 10.100000000000023 25.19999999999999 8.400000000000034 39.60000000000002-7.2000000000000455 59.10000000000002-39.80000000000001 46-77.70000000000005-1-2.7999999999999545-2.8000000000000114-5.5 0.30000000000001137-9 1.599999999999966 0 4-0.7999999999999545 5.800000000000011 0.10000000000002274 24.69999999999999 13.199999999999989 45.599999999999966 0.8000000000000114 66.79999999999995-9.5 7.400000000000034-3.6000000000000227 13.600000000000023-9.600000000000023 8-18.100000000000023-8.699999999999989-12.899999999999977-3-23.5 1.5-35.69999999999999 9.800000000000011-26.799999999999983 3.400000000000034-35.19999999999999-24.099999999999966-33.89999999999998-12.100000000000023 0.5-24.5 1.3999999999999773-36.19999999999999 4-27.600000000000023 6.099999999999994-53.200000000000045 5.199999999999989-79.5-7.800000000000011-18.200000000000045-8.900000000000006-16.700000000000045-17-5.800000000000011-28.599999999999994 4.5-4.900000000000006 10.300000000000011-9.599999999999994 16.399999999999977-12.099999999999994 10.100000000000023-4.300000000000011 14.800000000000011-11 17.600000000000023-21.700000000000017 10.099999999999966-40 29-75.19999999999999 59.69999999999999-103.5 0 0 9.100000000000023-6.599999999999994 28.80000000000001 4.400000000000006 54.89999999999998 23.900000000000006 103.89999999999998 56.900000000000006 145.2 100.69999999999999 18.600000000000023 19.600000000000023 36.700000000000045 39.60000000000002 50.200000000000045 63.70000000000002-13.300000000000068 9-27.5 13.799999999999983-35.60000000000002 26.700000000000017 3.2999999999999545 2.3999999999999773 5.899999999999977 1.099999999999966 8.600000000000023-0.4000000000000341 61.89999999999998-36.69999999999999 117.19999999999993-6.099999999999994 140.79999999999995 55.30000000000001 24.399999999999977 63.5 23.399999999999977 126.80000000000001-9.399999999999977 187.8-24 44.599999999999966-55.200000000000045 84.19999999999999-89 121.59999999999997-8.5 9.399999999999977-12.700000000000045 18.5-8.800000000000068 30.700000000000045 15.300000000000068 48.5 6.600000000000023 91.39999999999998-28.399999999999977 128.89999999999998-9.899999999999977 10.600000000000023-16.899999999999977 24.100000000000023-27.5 33.700000000000045-15.600000000000023 13.299999999999955-12.699999999999932 22.799999999999955 0 36.59999999999991z m97.39999999999998-135c-9.899999999999977 2.800000000000068-23.59999999999991-0.599999999999909-27.699999999999932 12-12.300000000000068 37.700000000000045-38.10000000000002 65.70000000000005-65.10000000000002 92.80000000000007-3.7999999999999545 3.7999999999999545-8 7.5-4.100000000000023 13.600000000000023 9.399999999999977 15.399999999999977 22.700000000000045 28.59999999999991 23.5 48.69999999999993 0.3000000000000682 6.600000000000023 8.700000000000045 3.6000000000000227 13.600000000000023 4 25.600000000000023-0.2999999999999545 30.399999999999977-3.8999999999999773 38.10000000000002-29 3.6000000000000227-11.600000000000023 7.100000000000023-23.299999999999955 10.299999999999955-35.10000000000002 2.3999999999999773-8.5 3-17.5-4-23.5-14.699999999999932-12.599999999999909-9.5-22.399999999999977 2.7000000000000455-32.59999999999991 6.399999999999977-5.2000000000000455 11.399999999999977-12.300000000000068 17.699999999999932-18 7.800000000000068-7 10.800000000000068-14.600000000000023 6.2000000000000455-24.300000000000068-2.3999999999999773-4.399999999999977-3.5-10.799999999999955-11.200000000000045-8.600000000000023z m246.70000000000005 69.40000000000009c-7.7000000000000455-24.700000000000045-18.399999999999977-47.90000000000009-35.39999999999998-68.70000000000005-24.600000000000023-30.100000000000023-42.39999999999998-63.700000000000045-24.800000000000068-105.20000000000005 3.800000000000068-8.799999999999955 3.800000000000068-19.5 4.400000000000091-29.299999999999955 3.699999999999932-67.5-27.40000000000009-99.10000000000002-95-99.10000000000002-13.300000000000068 0-19.90000000000009 4.5-26.200000000000045 16.200000000000045-24.799999999999955 46.299999999999955-48.39999999999998 94-91.89999999999998 127-4 3.1000000000000227-4.899999999999977 6.5-3.800000000000068 11.699999999999932 4.600000000000023 22.5 3.800000000000068 45.40000000000009 2.1000000000000227 69.5 9.399999999999977-2.099999999999909 17.800000000000068-3 25.5-5.899999999999977 9.399999999999977-3.699999999999932 13.800000000000068-0.39999999999997726 18 7.7000000000000455 22 44.39999999999998 44.39999999999998 88.69999999999993 66.89999999999998 132.89999999999998 4.900000000000091 9.799999999999955 4.5 15.700000000000045-7.2999999999999545 18.399999999999977-14.899999999999977 3.300000000000068-15.700000000000045 15.800000000000068-15 27.100000000000023 1 14 13.899999999999977 12.399999999999977 23.100000000000023 12.700000000000045 30.600000000000023 0.8999999999999773 61.19999999999993-0.7000000000000455 91.79999999999995 1.099999999999909 31.800000000000068 1.900000000000091 57.60000000000002-3.2999999999999545 68.30000000000007-33 7-43.5-0.7000000000000455-82.59999999999991-0.7000000000000455-83.09999999999991z m-581.6-508.40000000000003c14.700000000000045-7.100000000000023 26.400000000000034-1 36.80000000000001 9.199999999999989 9.900000000000034 9.5 19.400000000000034 10.100000000000023 29.900000000000034 1 8.099999999999966-7 17.099999999999966-12.899999999999977 25.299999999999955-19.69999999999999 3.3000000000000114-2.8000000000000114 7.600000000000023-6 4.5-11.5-2.1999999999999886-3.8000000000000114-6.2999999999999545-3.8000000000000114-10.099999999999966-3.5-41.5 3.6999999999999886-82.80000000000001 8.099999999999966-122.80000000000001-6.800000000000011-2.6999999999999886 8.399999999999977 3.8000000000000114 10.100000000000023 4.5 14.399999999999977 3.3000000000000114 19.900000000000034 13.5 25.700000000000045 31.899999999999977 16.900000000000034z"/>
</svg>
