<svg xmlns="http://www.w3.org/2000/svg" viewBox="0 0 1000 1000" width="1000" height="1000">
<path d="M913.2 728.5c-20.100000000000023-1.1000000000000227-40.200000000000045-2.8999999999999773-60.200000000000045-4.600000000000023-45.799999999999955-3.8999999999999773-91.70000000000005-8.199999999999932-141.70000000000005-21.699999999999932 9-7.100000000000023 16.100000000000023-10.800000000000068 20.5-16.5 35.10000000000002-46 45.200000000000045-84.40000000000009-7.599999999999909-124.20000000000005-2-1.5-4-3-5.800000000000068-4.7000000000000455-20.100000000000023-19.699999999999932-16.699999999999932-37.59999999999991 9.300000000000068-46.99999999999994 13.299999999999955-4.900000000000034 27.299999999999955-8.100000000000023 40.89999999999998-12.199999999999989 18-5.400000000000034 27.100000000000023-20.5 31-36.400000000000034 4.399999999999977-18.30000000000001-15.5-15.599999999999966-24.899999999999977-22-5.5-3.8000000000000114-11.900000000000091-7.099999999999966-15.800000000000068-12.199999999999989-17.899999999999977-24-43.39999999999998-30.69999999999999-71.10000000000002-30.600000000000023-14.299999999999955 0-25.199999999999932-3.8999999999999773-36.59999999999991-12.299999999999955-16.5-12.400000000000034-38.40000000000009-31.100000000000023-55.60000000000002-19.100000000000023-17.399999999999977 12.300000000000011-5.399999999999977 38.80000000000001-0.7000000000000455 58.80000000000001 2.300000000000068 9.5 8.100000000000023 17.69999999999999 1.6000000000000227 28.5-10.700000000000045 17.899999999999977-7.100000000000023 37.19999999999999-0.2999999999999545 55.599999999999966 4 11 8.599999999999909 22.200000000000045 14.799999999999955 32 10.899999999999977 17.200000000000045-6.600000000000023 20.399999999999977-12.700000000000045 29.5-8.099999999999909 11.899999999999977-12.5 1.8000000000000682-19.799999999999955-1-39.39999999999998-15.399999999999977-74.19999999999999-40.10000000000002-114.89999999999998-54-48.80000000000001-16.69999999999999-94.60000000000002-17.899999999999977-142.60000000000002 1.1000000000000227-28.19999999999999 11.100000000000023-44.80000000000001 33.60000000000002-58.10000000000002 56-19.99999999999997 34-27.099999999999966 73.70000000000005-25.799999999999983 113.70000000000005 0.5 16.399999999999977-5.099999999999994 19.899999999999977-20.299999999999983 18.59999999999991-53.10000000000002-4.599999999999909-92.50000000000001-38.39999999999998-97.50000000000001-85.5-6.099999999999994-57.39999999999998 29.799999999999997-112.59999999999997 78.50000000000001-128.69999999999993 53.29999999999998-17.700000000000045 107.59999999999997-23.400000000000034 163.2-24.600000000000023 44.30000000000001-1 89-3.5 130.2-23.80000000000001 66.19999999999999-32.69999999999999 87.50000000000006-104.69999999999999 47.00000000000006-159.59999999999997-42.10000000000002-57.20000000000002-145.60000000000002-61.60000000000002-192.10000000000002-7.900000000000034-17.100000000000023 19.69999999999999-26.80000000000001 42.60000000000002-26.30000000000001 69 0.19999999999998863 10.300000000000011-2.1000000000000227 24.400000000000034 12.300000000000011 26.80000000000001 12.899999999999977 2.1000000000000227 15.099999999999966-10.800000000000011 18.899999999999977-19.899999999999977 2.6000000000000227-6.2000000000000455 4.5-12.700000000000045 7.199999999999989-18.80000000000001 10.900000000000034-24.400000000000034 29.69999999999999-40.400000000000034 54.69999999999999-48.69999999999999 53.5-17.80000000000001 103.70000000000005 20 94.90000000000003 70.79999999999995-4.900000000000034 28.400000000000034-32.5 52.400000000000034-68.60000000000002 58.200000000000045-60.599999999999966 9.799999999999955-122.5 4.7999999999999545-183.2 15.099999999999966-85.5 14.5-157.3 47.10000000000002-186.2 137.7-25.80000000000001 80.60000000000002 17.599999999999994 156.39999999999998 100.19999999999999 174.89999999999998 20.69999999999999 4.600000000000023 41.400000000000006 6 62.5 5.400000000000091 7.300000000000011-0.20000000000004547 15.099999999999994-2.1000000000000227 20.599999999999994 5.699999999999932 8.200000000000017 11.800000000000068 21.299999999999983 13.200000000000045 33.900000000000006 13.300000000000068 62.19999999999999 0.2999999999999545 124.30000000000001 0.599999999999909 186.60000000000002-0.900000000000091 12.599999999999966-0.39999999999997726 35.799999999999955 6.600000000000023 31.69999999999999-22.09999999999991-0.19999999999998863-1.5 6.300000000000011-5.100000000000023 10.099999999999966-5.800000000000068 27.399999999999977-5 54.700000000000045-8.5 82.5-1.2999999999999545 6.800000000000068 1.7999999999999545 13.300000000000068 3.1000000000000227 16.700000000000045 9.600000000000023 8.100000000000023 15.899999999999977 23 18.59999999999991 38.39999999999998 19.199999999999932 87.39999999999998 3 174.79999999999995 2.7000000000000455 262.1-0.10000000000002274 8.100000000000023-0.2999999999999545 23.199999999999932 3.6000000000000227 22.199999999999932-12.599999999999909-0.8999999999999773-13.5-10.299999999999955-19.90000000000009-24.09999999999991-20.700000000000045z"/>
</svg>
