<svg xmlns="http://www.w3.org/2000/svg" viewBox="0 0 1000 1000" width="1000" height="1000">
<path d="M901.6 536.2c-18.800000000000068-12.200000000000045-30.300000000000068-30.900000000000034-42.39999999999998-49.900000000000034 15.199999999999932-3.1999999999999886 29.399999999999977-5 40.39999999999998-18.400000000000034-27.600000000000023-1.099999999999966-40.60000000000002-17.299999999999955-49.700000000000045-39.799999999999955 17.200000000000045-0.8000000000000114 33.30000000000007-1.1000000000000227 44.5-18.600000000000023-24.899999999999977 0-42.89999999999998-9.199999999999989-55.5-28.69999999999999-10.600000000000023-16.400000000000034-17.899999999999977-33.80000000000001-19.799999999999955-53.30000000000001-0.8999999999999773-8.399999999999977-2.2000000000000455-17-4.7000000000000455-25.100000000000023-1.7999999999999545-5.699999999999989-0.7999999999999545-9.699999999999989 1.7000000000000455-14.899999999999977 21.199999999999932-43.30000000000001 34.19999999999993-88.69999999999999 30.5-137.6-2.2000000000000455-28.60000000000001-16.100000000000023-43.5-44.60000000000002-46.7-38.10000000000002-4.200000000000003-73.20000000000005 5.700000000000003-105.79999999999995 25.299999999999997-5.5 3.3000000000000114-8.300000000000068 3.6999999999999886-11.100000000000023-2.700000000000003-3.800000000000068-8.799999999999997-11.899999999999977-12.899999999999991-20.600000000000023-15.5-7.100000000000023-2-14.399999999999977-3.299999999999997-22.799999999999955-5.099999999999994 7-3.4000000000000057 13.5-3.4000000000000057 19.899999999999977-5.5-23.600000000000023-9.700000000000003-46.80000000000007-19.700000000000003-74.89999999999998-17.400000000000006 7.2999999999999545-6.099999999999994 14.5-6.799999999999997 21.59999999999991-9.899999999999991-9.699999999999932-7.700000000000003-19.899999999999977-9.900000000000006-30.799999999999955-9.800000000000004-26.799999999999955 0.3999999999999986-50 10.199999999999996-69.60000000000002 27.9-5.699999999999989 5.099999999999994-8.699999999999989 5.400000000000006-14.5 0.20000000000000284-20.19999999999999-18.400000000000006-44-28.300000000000004-71.59999999999997-28-10.300000000000011 0.09999999999999432-20.100000000000023 2.299999999999997-28.80000000000001 10.200000000000003 7.300000000000011 2.5 14.399999999999977 3.5 21.80000000000001 9.699999999999989-28.69999999999999-2.5999999999999943-51.80000000000001 7.400000000000006-75.19999999999999 17.30000000000001 6.399999999999977 2 12.899999999999977 2.0999999999999943 20.299999999999955 5.699999999999989-6.399999999999977 1.1000000000000085-11.199999999999989 1.8000000000000114-16 2.9000000000000057-10.799999999999955 2.700000000000003-21.799999999999955 5.700000000000003-27.19999999999999 16.5-3.3999999999999773 7-6.199999999999989 7-12.599999999999966 3.1999999999999886-32.5-19.499999999999986-67.80000000000001-28.999999999999986-105.80000000000001-24.69999999999999-27.30000000000001 3.0999999999999943-41.60000000000002 18.599999999999994-43.60000000000002 46.5-3.5999999999999943 48.80000000000001 9.400000000000006 94.19999999999999 30.30000000000001 137.7 1.5 3.1000000000000227 4.800000000000011 5.699999999999989 3.4000000000000057 9.699999999999989-5.800000000000011 15.800000000000011-4.599999999999994 33.200000000000045-9.700000000000017 49-8.299999999999983 25.400000000000034-19.399999999999977 49-46.89999999999998 59.80000000000001-7.6000000000000085 2.900000000000034-15.600000000000009 3.1000000000000227-24.80000000000001 3.5 11 17.400000000000034 27.19999999999999 17.80000000000001 44.599999999999994 18.600000000000023-9.5 22.30000000000001-22.19999999999999 38.80000000000001-49.69999999999999 39.599999999999966 10.899999999999991 14.100000000000023 25.69999999999999 15.200000000000045 40.19999999999999 18.700000000000045-13.400000000000006 21-26.299999999999997 40.60000000000002-47.39999999999999 53.5 13.599999999999994 17.199999999999932 30.599999999999994 15.299999999999955 47.999999999999986 10.5 5.700000000000017-1.6000000000000227 7.900000000000006-1.3999999999999773 6.400000000000006 5.399999999999977-6.5 29-17.69999999999999 55.39999999999998-40.099999999999994 75.89999999999998-1.2999999999999972 1.1000000000000227-2.9000000000000057 2.1000000000000227-1.7000000000000028 4.300000000000068 21.799999999999997 5 40.89999999999999 0.39999999999997726 56.2-16.40000000000009 4.699999999999989-5 7-4.099999999999909 9.599999999999994 1.6000000000000227 6.099999999999994 13.300000000000068 10.5 27.100000000000023 13.400000000000006 41.39999999999998 4.5 22.5 4 44.90000000000009 0.30000000000001137 69 22.399999999999977-9.599999999999909 35.39999999999998-26.299999999999955 46.39999999999998-46.19999999999993 13 23.600000000000023 17.5 45-3.3999999999999773 66 15.299999999999983 3.5 28.899999999999977 7.2999999999999545 43 2.199999999999932 15.699999999999989-5.699999999999932 19.19999999999999-19.899999999999977 23.19999999999999-35.39999999999998 7.199999999999989 14.399999999999977 4.600000000000023 27.300000000000068 0.6000000000000227 39.89999999999998-6.300000000000011 20.300000000000068-7.7000000000000455 41.10000000000002-5.800000000000011 62.200000000000045 0.8999999999999773 10.299999999999955 3 20.299999999999955 10.599999999999966 30.200000000000045 3.900000000000034-23.800000000000068 10.600000000000023-45 27.30000000000001-61.90000000000009-3.099999999999966 17.5-5.800000000000011 34.90000000000009-3.8000000000000114 52.5 2.1000000000000227 18.100000000000023 9.200000000000045 33.700000000000045 24.600000000000023 45.80000000000007 2.6999999999999886-27.399999999999977 8.199999999999989-41.89999999999998 18-48.39999999999998 0 33.799999999999955 8.5 63.09999999999991 42.39999999999998 80.69999999999993 0.4000000000000341-6.5-3.1999999999999886-11.5-0.7999999999999545-17.5 10.599999999999966 14.700000000000045 20.599999999999966 29.399999999999977 39.39999999999998 35.5-2.6000000000000227-11.299999999999955-2.6999999999999886-21.600000000000023 2.1999999999999886-34.10000000000002 11.5 20.800000000000068 28.69999999999999 34 49.69999999999999 34.10000000000002 21.300000000000068 0.20000000000004547 38.700000000000045-13.399999999999977 50.700000000000045-33.799999999999955 4.899999999999977 12.299999999999955 4.5 22.600000000000023 2.199999999999932 33.89999999999998 18.700000000000045-6.399999999999977 28.800000000000068-21 39.40000000000009-35.700000000000045 2.3999999999999773 6.300000000000068-1.8000000000000682 11.200000000000045-0.3000000000000682 17.100000000000023 16-7.100000000000023 26.300000000000068-18.699999999999932 33.30000000000007-33.60000000000002 7.099999999999909-14.899999999999977 8.099999999999909-30.899999999999977 8.799999999999955-49.299999999999955 12.299999999999955 16.399999999999977 17.100000000000023 32.5 17.200000000000045 52.10000000000002 32.5-29 27.299999999999955-63.89999999999998 21.399999999999977-99.30000000000007 16.699999999999932 17 23 38.40000000000009 27.299999999999955 62.30000000000007 7.300000000000068-10.800000000000068 9.600000000000023-20.800000000000068 10.399999999999977-31 1.7000000000000455-21 0.3000000000000682-41.80000000000007-6-62.200000000000045-3.8999999999999773-12.600000000000023-6.5-25.5 0.5-38.60000000000002 7.7000000000000455 36 28 44.40000000000009 64.70000000000005 31.40000000000009-16.399999999999977-23.600000000000023-16.700000000000045-45.700000000000045-0.7000000000000455-63.60000000000002 10.300000000000068 19.199999999999932 23.300000000000068 35.39999999999998 43.90000000000009 44.19999999999993 0.599999999999909-1.1999999999999318 1-1.5 0.8999999999999773-1.7999999999999545l-0.5-5.2000000000000455c-4.7000000000000455-34.19999999999993-0.5-67.19999999999993 13.100000000000023-99 3.3999999999999773-8 5.899999999999977-11.5 13.899999999999977-3.099999999999909 14.899999999999977 15.699999999999932 33.60000000000002 18.899999999999977 55.69999999999993 13.399999999999977-24-21.200000000000045-36.299999999999955-47.30000000000007-43.299999999999955-76.60000000000002-2-8.600000000000023-1.1000000000000227-10.5 8-7.7999999999999545 14.299999999999955 4.199999999999932 28.799999999999955 5.399999999999977 41.200000000000045-5.800000000000068 3.5-3.5 5.2999999999999545-5.399999999999977-0.6000000000000227-9.199999999999932z m-52.10000000000002-3.300000000000068c-11.600000000000023-4.5-11.799999999999955-4.5-11 7.800000000000068 1.8999999999999773 28.5 9.399999999999977 55 28.299999999999955 79.39999999999998-13-3.300000000000068-20.299999999999955-11.5-28.199999999999932-18.800000000000068-5.7000000000000455-5.399999999999977-8.600000000000023-6.5-13.899999999999977 1.7000000000000455-18.90000000000009 29.299999999999955-28.700000000000045 60.700000000000045-25.5 97.29999999999995-15.100000000000023-11.099999999999909-21.100000000000023-26.09999999999991-27.600000000000023-43.19999999999993-14.200000000000045 20.899999999999977-26.899999999999977 40.60000000000002-28 65.29999999999995-0.20000000000004547 4.2000000000000455 1.2999999999999545 8.399999999999977 1.8999999999999773 12.600000000000023 0.39999999999997726 2.8999999999999773 5 5.399999999999977 2 8.399999999999977-2.7000000000000455 2.800000000000068-6.899999999999977 1.2000000000000455-10.200000000000045 0.3000000000000682-13.299999999999955-4-15.599999999999909-15.5-17.5-26.700000000000045-1.6999999999999318-10-1.099999999999909-20.299999999999955-4.199999999999932-31.899999999999977-23.300000000000068 21.299999999999955-32.5 45.19999999999993-23.300000000000068 74.79999999999995 3.7000000000000455 12 8.800000000000068 24 7.2000000000000455 39.700000000000045-7.5-14.100000000000023-16-24.100000000000023-29-29.300000000000068-3.2999999999999545-1.2999999999999545-6.7000000000000455-2.3999999999999773-10.100000000000023-3.199999999999932-6.100000000000023-1.5-8.799999999999955 0-6.5 7 4.5 13.799999999999955 8.700000000000045 27.799999999999955 10.600000000000023 42.299999999999955 1.5 11.300000000000068 1.7000000000000455 22.600000000000023-2.2000000000000455 36.5-5.2999999999999545-18.5-16.399999999999977-28.399999999999977-32.5-32.69999999999993-11.5-3.1000000000000227-12.699999999999932-2-10.5 9.399999999999977 2.300000000000068 11.899999999999977 4.2000000000000455 23.799999999999955 1.8000000000000682 35.89999999999998-1 5-2.7000000000000455 9.600000000000023-5.5 13.700000000000045-2.2000000000000455 3.2999999999999545-4.7000000000000455 7.5-8.5 7.5-4.800000000000068 0-2.2000000000000455-5.7000000000000455-4-8.5-1.8000000000000682-2.7000000000000455-2.800000000000068-5.7000000000000455-4.800000000000068-8.300000000000068-2.8999999999999773-3.8999999999999773-6.5-9.799999999999955-11.399999999999977-8-5.600000000000023 2-0.8999999999999773 8-0.6999999999999318 12.100000000000023 0.8999999999999773 15.200000000000045-5.7000000000000455 26.600000000000023-17.90000000000009 36.39999999999998-3.599999999999909-8.100000000000023-4.7999999999999545-16.600000000000023-10.699999999999932-23-5.300000000000068-5.600000000000023-8.800000000000068-7.5-12.800000000000068 1.3000000000000682-4.699999999999932 10.299999999999955-11.199999999999932 19.799999999999955-20.399999999999977 26.899999999999977-1.6000000000000227 1.1999999999999318-3.2999999999999545 3.2999999999999545-5.600000000000023 2.5-2.7999999999999545-1-1-3.6000000000000227-1.3999999999999773-5.600000000000023-0.1999999999999318-1.1000000000000227-0.1999999999999318-2.1000000000000227-0.2999999999999545-3.2000000000000455-1.2000000000000455-12.5-10.300000000000011-26.799999999999955-16.600000000000023-26.399999999999977-6.399999999999977 0.39999999999997726-15.300000000000011 15.300000000000068-16.100000000000023 27.100000000000023-0.19999999999998863 2.7000000000000455 0 5.5 0 9.799999999999955-14.099999999999966-7.2999999999999545-21.5-18.5-27.099999999999966-30.59999999999991-4.5-9.600000000000023-8.199999999999989-7.400000000000091-13.400000000000034-1.5-5.399999999999977 6.2999999999999545-7.7999999999999545 13.899999999999977-9.399999999999977 22.899999999999977-15-10.800000000000068-20.69999999999999-24.100000000000023-18.19999999999999-41.10000000000002 0.39999999999997726-2.6000000000000227 2.8000000000000114-6-0.4000000000000341-7.7999999999999545-3.3999999999999773-1.900000000000091-5.899999999999977 1.2999999999999545-8.199999999999989 3.3999999999999773-6.599999999999966 5.7999999999999545-9.5 13.799999999999955-11.300000000000011 22.699999999999932-11.799999999999955-6.399999999999977-15.199999999999989-16.899999999999977-16.299999999999955-28.59999999999991-1.1000000000000227-11.400000000000091 0.6999999999999886-22.700000000000045 3.3999999999999773-33.80000000000007 1.5-6.199999999999932-0.6999999999999886-7.7999999999999545-6.5-6.5-17.899999999999977 3.7000000000000455-31.19999999999999 12.800000000000068-37.19999999999999 34.30000000000007-4.300000000000011-16.40000000000009-3.900000000000034-29.700000000000045-1.1999999999999886-42.80000000000007 2.5-12.100000000000023 6-24.100000000000023 9.599999999999966-36 2.1999999999999886-7.5-0.6999999999999886-8.799999999999955-7.199999999999989-7.2999999999999545-17.19999999999999 4.199999999999932-29.399999999999977 14.5-37.89999999999998 32.5-2-12.300000000000068 1.2999999999999545-21.200000000000045 3.8999999999999773-30.200000000000045 4.199999999999989-14.699999999999932 9-29.199999999999932 5.300000000000011-44.89999999999998-3.6999999999999886-15.799999999999955-13.400000000000034-27.700000000000045-25.5-40.10000000000002-3.400000000000034 11.700000000000045-2.900000000000034 21.899999999999977-4.199999999999989 32-1.900000000000034 16.700000000000045-9.300000000000011 26.5-21.400000000000034 27.899999999999977-5.699999999999989 0.6000000000000227-9.699999999999989 0.6000000000000227-5.599999999999994-6.899999999999977 3.5000000000000284-6.5 3.799999999999983-13.699999999999932 2.700000000000017-20.799999999999955-3.3000000000000114-21.899999999999977-14.5-40.10000000000002-27.900000000000006-59.700000000000045-5.800000000000011 17.300000000000068-12.599999999999994 31.800000000000068-26.700000000000017 43.5-0.799999999999983-14.100000000000023 0.10000000000002274-26.600000000000023-2-39.19999999999993-3.8999999999999773-23-14.599999999999994-42.80000000000007-26.69999999999999-62.200000000000045-2.5999999999999943-4-4.5-3.3999999999999773-7.400000000000006-0.8999999999999773-5.299999999999983 4.699999999999932-10.599999999999994 9.5-16.099999999999994 14-4 3.2999999999999545-8.099999999999994 6.5-15.800000000000011 8.100000000000023 19-24.800000000000068 26.30000000000001-51.60000000000002 28.400000000000006-80.30000000000007 0.8000000000000114-11.100000000000023 0.4000000000000057-11.399999999999977-9.699999999999989-7.399999999999977-10.400000000000006 4.100000000000023-20.900000000000006 8.799999999999955-33.900000000000006 5.2000000000000455 21.80000000000001-22.200000000000045 35.69999999999999-48.30000000000007 49.19999999999999-76.80000000000007-11.299999999999983 3.8000000000000114-19.099999999999994 13.400000000000034-32 11 19.5-17.299999999999955 27.100000000000023-40.099999999999966 36-64-8.599999999999994 2.900000000000034-15.099999999999994 8-25.299999999999983 6.100000000000023 14.900000000000006-9.800000000000011 23.400000000000006-23.30000000000001 31.69999999999999-37.10000000000002 10.599999999999994-17.599999999999966 13.800000000000011-37.099999999999966 16.400000000000006-56.89999999999998 0.5999999999999943-4.600000000000023 0.5-9.699999999999989 2.8000000000000114-13.399999999999977 5.699999999999989-9.5 2.3999999999999773-16.200000000000045-2.3000000000000114-25.30000000000001-20.30000000000001-39-31.69999999999999-80.60000000000002-29.900000000000006-124.9 1.3000000000000114-30.200000000000003 13.300000000000011-41 43.900000000000006-41.2 31.099999999999994-0.20000000000000284 60.80000000000001 7.299999999999997 86.89999999999998 24.499999999999986 15.300000000000011 10.100000000000023 29.100000000000023 11.300000000000011 44.200000000000045 0.6000000000000227 5-3.6000000000000227 11.099999999999966-5.900000000000006 18-9.600000000000023-10.5-5.599999999999994-19.600000000000023-3.799999999999983-29.100000000000023-2.0999999999999943 4.899999999999977-5.199999999999989 11.399999999999977-6.699999999999989 18-8 16.399999999999977-2.8999999999999915 33.19999999999999-2.799999999999997 49.89999999999998-4.299999999999997 2.400000000000034-0.20000000000000284 5.7000000000000455 0.4000000000000057 6.600000000000023-2.200000000000003 1.1999999999999886-3.3999999999999915-2.3000000000000114-4.699999999999989-4.399999999999977-6.3999999999999915-8-6.400000000000006-18.30000000000001-6.5-27.900000000000034-8.900000000000006 17.19999999999999-5.3999999999999915 34.10000000000002-5.099999999999994 51-0.20000000000000284 4.800000000000011 1.4000000000000057 9.400000000000034 3.4000000000000057 14.199999999999989 4.5 4.600000000000023 1.1000000000000085 10.5 5.6000000000000085 13.700000000000045 1.1000000000000085 3.6999999999999886-5.200000000000003-1.6000000000000227-10.5-4.800000000000011-15-4-5.6000000000000085-9.800000000000011-9-15.699999999999989-12.5 24.099999999999966 1.8999999999999915 44 12.599999999999994 59.799999999999955 30.200000000000003 7.800000000000011 8.699999999999989 11.400000000000034 8 18.80000000000001-0.20000000000000284 15.699999999999989-17.299999999999997 35.50000000000006-27.799999999999997 59.19999999999999-30.200000000000003-7.2999999999999545 5-14.699999999999932 9.700000000000003-18.699999999999932 17.900000000000006-1.6000000000000227 3.0999999999999943-4.100000000000023 6.8999999999999915-1.8000000000000682 10 2.5 3.299999999999997 6.600000000000023 1.1999999999999886 9.899999999999977 0.19999999999998863 11.800000000000068-3.799999999999997 23.40000000000009-8.299999999999997 36-9.399999999999991 11.600000000000023-1 23.200000000000045-0.6000000000000085 37.10000000000002 4.200000000000003-12.799999999999955 1.5999999999999943-23.100000000000023 2.0999999999999943-31.699999999999932 8.5-1.900000000000091 1.5-4.900000000000091 2.8999999999999915-4.5 5.5 0.599999999999909 3.799999999999997 4.5 2.6999999999999886 7 2.8999999999999915 16.59999999999991 1.6000000000000085 33.299999999999955 1.4000000000000057 49.89999999999998 4.299999999999997 6.5 1.1000000000000085 13.100000000000023 2.700000000000003 20.100000000000023 8.700000000000017-11.400000000000091-1.700000000000017-20.90000000000009-4.700000000000017-31.300000000000068 1.5999999999999943 11.5 5.799999999999983 21.800000000000068 12 32.700000000000045 16.400000000000006 8.799999999999955 3.5 17.299999999999955 0.19999999999998863 25.100000000000023-5 24.799999999999955-16.500000000000014 52.39999999999998-24.60000000000001 82.09999999999991-27.000000000000014 39-3.0999999999999943 56.5 13.600000000000009 53.90000000000009 52.89999999999999-2.900000000000091 43.30000000000001-12.5 84.9-35.90000000000009 122.30000000000001-1.099999999999909 1.8000000000000114-2.8999999999999773 3.3999999999999773-1.2999999999999545 5.699999999999989 7.2999999999999545 10.900000000000034 7.2999999999999545 23.5 9 35.80000000000001 4.7000000000000455 32.89999999999998 19.399999999999977 60.10000000000002 45.5 82-8.700000000000045 1.6999999999999886-14.899999999999977-2.6000000000000227-24.299999999999955-6.399999999999977 8.899999999999977 24.099999999999966 16.5 46.39999999999998 35 63.19999999999999-6.900000000000091 1.1999999999999886-6.900000000000091 1.1999999999999886-30.600000000000023-10.100000000000023 12.699999999999932 28.69999999999999 26.899999999999977 54.30000000000001 48.69999999999993 76.59999999999997-11.799999999999955 4-21.699999999999932-0.39999999999997726-31.799999999999955-4.399999999999977z m-233 135.70000000000005c-18.100000000000023-0.20000000000004547-35.60000000000002-3.3999999999999773-53-11.600000000000023 1.8999999999999773 7.5 8.100000000000023 10.799999999999955 11.200000000000045 16.899999999999977-11.5 1.8999999999999773-21-0.8999999999999773-29.800000000000068-5.600000000000023-17-8.899999999999977-27.799999999999955-23.699999999999932-37.799999999999955-39.5-5.5-8.799999999999955-3.2000000000000455-15.299999999999955 2.3999999999999773-22 1.8999999999999773-2.2999999999999545 4.2000000000000455-4.199999999999932 6.5-6.2999999999999545h-30.899999999999977c2.7999999999999545 2.8999999999999773 6.099999999999966 5.600000000000023 8.299999999999955 8.799999999999955 2.900000000000034 4.2000000000000455 6.300000000000011 8.600000000000023 3.1000000000000227 14.600000000000023-8.5 15.899999999999977-18.600000000000023 30.300000000000068-33.69999999999999 40.60000000000002-10.699999999999989 7.2999999999999545-22.400000000000034 11.5-36.900000000000034 9.200000000000045 3.900000000000034-5.900000000000091 10-9.200000000000045 11.300000000000011-16-35.39999999999998 13.399999999999977-70 16.5-106-2.2000000000000455 9 11.799999999999955 18.900000000000034 18.600000000000023 31.30000000000001 22 4.199999999999989 1.1000000000000227 7.699999999999989 2.7000000000000455 9.899999999999977 7.100000000000023 12.200000000000045 24.299999999999955 18.400000000000034 49.19999999999993 8.5 75.89999999999998-3.1999999999999886 8.5-3.5 17.299999999999955-2.1999999999999886 26.299999999999955 2.1000000000000227 14.300000000000068 5.699999999999989 15.600000000000023 17.69999999999999 6.900000000000091 5.2000000000000455-3.7000000000000455 10.200000000000045-11.600000000000023 17.200000000000045-7.300000000000068 7.199999999999989 4.300000000000068 5.5 13.200000000000045 5.099999999999966 20.600000000000023-0.19999999999998863 2.7999999999999545-1.099999999999966 5.600000000000023-1.8000000000000114 8.299999999999955-5.199999999999989 18.800000000000068 3.3000000000000114 30.800000000000068 23.100000000000023 32.5 10.800000000000011 0.900000000000091 21.5-0.1999999999999318 31.69999999999999-3.2999999999999545 19.600000000000023-6 38.69999999999999-5.7000000000000455 58.50000000000006 0.10000000000002274 12.899999999999977 3.699999999999932 26.5 5.699999999999932 40 1.3999999999999773 13.799999999999955-4.5 18.899999999999977-14.100000000000023 14.899999999999977-27.899999999999977-2.6000000000000227-8.700000000000045-3.8999999999999773-17.300000000000068-1.2000000000000455-26.200000000000045 2-6.600000000000023 6.300000000000068-8.399999999999977 12.200000000000045-4.7999999999999545 3.6000000000000227 2.199999999999932 6.899999999999977 5 10.299999999999955 7.5 10.600000000000023 7.7999999999999545 14.399999999999977 6.199999999999932 16.399999999999977-7.100000000000023 1.2000000000000455-8.5 1.5-17.100000000000023-1.599999999999909-25.299999999999955-9.600000000000023-25.40000000000009-5.2000000000000455-49.40000000000009 5.7999999999999545-73.20000000000005 2.7999999999999545-6.100000000000023 6.399999999999977-10.299999999999955 13.399999999999977-12.100000000000023 11.800000000000068-3.1000000000000227 21.399999999999977-10 30.200000000000045-22.5-18.300000000000068 11.700000000000045-35.89999999999998 14.399999999999977-54.10000000000002 14.200000000000045z m-191.5 88.60000000000002c-13.699999999999989-17.200000000000045-19.69999999999999-37.10000000000002-22.5-58.30000000000007-0.19999999999998863-1.1000000000000227 0.8000000000000114-3.3999999999999773 1.6000000000000227-3.3999999999999773 9.599999999999966-1.8999999999999773 16.69999999999999-10.799999999999955 28.799999999999955-10.100000000000023-11.199999999999989 23.300000000000068-8.199999999999989 47.30000000000007-7.899999999999977 71.80000000000007z m25.600000000000023 67.59999999999991c-5.100000000000023 1.900000000000091-8.400000000000034-1-9.700000000000045-5.5-3.6999999999999886-12.799999999999955-4.7999999999999545-25.699999999999932-1.3999999999999773-39.299999999999955 5.800000000000011 11.100000000000023 11.5 22.200000000000045 17.19999999999999 33.200000000000045 2.5 5.099999999999909-0.5999999999999659 9.699999999999932-6.099999999999966 11.599999999999909z m19.899999999999977 2c-4.199999999999989-0.1999999999999318-7.899999999999977-1.6999999999999318-8.399999999999977-6.099999999999909-0.4000000000000341-3.7000000000000455 2.7999999999999545-5.5 6.2999999999999545-5.300000000000068 4.5 0.3000000000000682 6.600000000000023 3.6000000000000227 7.100000000000023 7.600000000000023 0.39999999999997726 3.2999999999999545-2.5 3.7000000000000455-5 3.7999999999999545z m7.699999999999989-118.5c-5.5 1.2000000000000455-6.099999999999966-3.2999999999999545-7.399999999999977-8.699999999999932-1.900000000000034 2.699999999999932-2.5 3.6000000000000227-3.1999999999999886 4.2999999999999545-3.8000000000000114 3.5-7.300000000000011 9.399999999999977-13.200000000000045 6.7000000000000455s-3.8999999999999773-9.300000000000068-3.599999999999966-14.399999999999977c0.5-9.300000000000068 7.300000000000011-11.200000000000045 16.399999999999977-5.2000000000000455 2.8000000000000114 1.8999999999999773 3.400000000000034 6.2999999999999545 8 6 3.6000000000000227-0.2999999999999545 7.300000000000011 1 7.199999999999989 5.7000000000000455 0 2.7999999999999545-1.6999999999999886 4.899999999999977-4.199999999999989 5.599999999999909z m19.30000000000001-4.899999999999977c-0.39999999999997726 3.1000000000000227-2.1999999999999886 5.2000000000000455-5.399999999999977 5.399999999999977-3.2000000000000455 0.10000000000002274-5.2000000000000455-1.8999999999999773-5.300000000000011-5.099999999999909-0.10000000000002274-3.6000000000000227 2.3000000000000114-4.7000000000000455 5.399999999999977-5 3 0.09999999999990905 5.699999999999989 0.7999999999999545 5.300000000000011 4.699999999999932z m12.100000000000023 5.399999999999977c-3.2000000000000455 0-5.100000000000023-2-5.600000000000023-5.099999999999909-0.6000000000000227-3.800000000000068 2-4.900000000000091 5-4.900000000000091 3.1000000000000227-0.09999999999990905 5.5 1.1000000000000227 5.600000000000023 4.7000000000000455-0.10000000000002274 3.2000000000000455-1.8000000000000682 5.2999999999999545-5 5.2999999999999545z m21.299999999999955 117.90000000000009c-2.699999999999932 0-5.399999999999977-0.8000000000000682-4.899999999999977-4.100000000000023 0.7000000000000455-4.100000000000023 2.7999999999999545-7.300000000000068 7.7000000000000455-7.300000000000068 3.2999999999999545 0.10000000000002274 5 2 5.899999999999977 4.7000000000000455-1.2000000000000455 5-4.399999999999977 6.7000000000000455-8.700000000000045 6.7000000000000455z m0.6000000000000227-125.40000000000009c-2.6000000000000227 1-1.1000000000000227 3.800000000000068-2.7000000000000455 5.2000000000000455-1.599999999999909 1.5-3.2999999999999545 2.7000000000000455-5.599999999999909 1.7999999999999545-2.5-1.099999999999909-3.900000000000091-2.8999999999999773-4.2000000000000455-5.699999999999932-0.2999999999999545-2.6000000000000227 1.2999999999999545-4.5 3.3999999999999773-4.7000000000000455 6-0.5 9.600000000000023-5 14.100000000000023-7.7999999999999545 4-2.5 10.399999999999977-5.7000000000000455 13-0.39999999999997726 2.7999999999999545 6 3.5 13.899999999999977-1.1000000000000227 20.09999999999991-2.1000000000000227 2.7000000000000455-5.2999999999999545 1.400000000000091-7.600000000000023-0.39999999999997726-3.2999999999999545-2.3999999999999773-6.199999999999932-5.399999999999977-9.299999999999955-8.100000000000023z m28.899999999999977 118.5c-1.3999999999999773 4.7000000000000455-5 6.900000000000091-10 4.900000000000091-4.899999999999977-2-8.100000000000023-6.100000000000023-5.699999999999932-10.900000000000091 5.5-11.199999999999932 11.799999999999955-22 17.199999999999932-33.59999999999991 3.6000000000000227 13.599999999999909 2.3999999999999773 26.699999999999932-1.5 39.59999999999991z m38.80000000000007-120.19999999999993c-3 20.600000000000023-8.600000000000023 40.299999999999955-22.100000000000023 57-1-23.899999999999977 3.7999999999999545-47.80000000000007-8.100000000000023-70.80000000000007 12.200000000000045-1.099999999999909 19.399999999999977 8.600000000000023 29.299999999999955 10.100000000000023 0.5 0.10000000000002274 1.1000000000000227 2.5 0.900000000000091 3.7000000000000455z m-82.80000000000007-99.30000000000007l0.39999999999997726 0.40000000000009095h-0.7999999999999545c0.10000000000002274-0.20000000000004547 0.20000000000004547-0.3000000000000682 0.39999999999997726-0.40000000000009095z m-16.5-453.29999999999995c5.7000000000000455 7.599999999999994 10.300000000000011 14.800000000000011 15.800000000000068 21 17.59999999999991 19.80000000000001 41.5 24.80000000000001 66.19999999999993 27.30000000000001 19.100000000000023 2 38.30000000000007 3.299999999999983 56.80000000000007 8.899999999999977 16.299999999999955 5 31.199999999999932 12.200000000000017 43.299999999999955 24.700000000000017-22.5-8.800000000000011-45.5-15.599999999999994-69.89999999999998-17.200000000000017 22.100000000000023 11.5 43.19999999999993 24.100000000000023 59 44.30000000000001-37.700000000000045-21.900000000000006-78.20000000000005-31.80000000000001-121.70000000000005-30.099999999999994 16.800000000000068-8.099999999999994 34.5-7.599999999999994 52.5-5.099999999999994-0.2999999999999545-4.300000000000011-3.699999999999932-4.200000000000017-6-5.100000000000023-23.100000000000023-8.799999999999983-46.799999999999955-12-71-5.599999999999994-9 2.4000000000000057-20.19999999999999 6.5-20.19999999999999 16.400000000000006 0 10.300000000000011 11.699999999999989 13.099999999999994 20.69999999999999 15.300000000000011 18.100000000000023 4.5 36.60000000000002 4 55.10000000000002 4 13 0 26.100000000000023-0.4000000000000057 38.299999999999955 5.299999999999983-13.399999999999977-0.19999999999998863-26.59999999999991-1.0999999999999943-40.69999999999993 6.900000000000006 30.100000000000023 16.100000000000023 61.10000000000002 28.600000000000023 73.29999999999995 62.60000000000002-10.100000000000023-9.700000000000045-21-18.30000000000001-34.60000000000002-24.100000000000023-0.2999999999999545 5.399999999999977 4.900000000000091 9.100000000000023 2.7000000000000455 15.399999999999977-26.399999999999977-31.69999999999999-61.10000000000002-39.39999999999998-102-36.5 34 12.700000000000045 64.60000000000002 27.100000000000023 89.79999999999995 55.900000000000034-15.599999999999909-5.900000000000034-28.199999999999932-10.800000000000011-42.69999999999993-16.400000000000034 2.2999999999999545 7.2000000000000455 7.100000000000023 12.300000000000011 4.5 19.5-9.399999999999977-7.599999999999966-17.700000000000045-16-28.100000000000023-21.299999999999955-12.700000000000045-6.5-25.600000000000023-11.900000000000034-38.39999999999998-0.4000000000000341-2.3000000000000114 2.1000000000000227-3.6000000000000227 0.8000000000000114-5.2000000000000455-0.6999999999999886-10.099999999999966-9.199999999999989-20.899999999999977-6.699999999999989-31.799999999999955-2-12.900000000000034 5.5-23 15-34 24.5-2.7000000000000455-7.300000000000011 1.5-12.199999999999989 4.599999999999966-18.5-14.899999999999977 2.6999999999999886-27.099999999999966 9.899999999999977-43.099999999999966 15.199999999999989 25.299999999999955-28.69999999999999 55.799999999999955-43.19999999999999 88.59999999999997-55.099999999999966-32.099999999999966-7.400000000000034-64.59999999999997 3.7999999999999545-101.5 34.89999999999998-0.5-5.199999999999989 2.5-9 4.699999999999989-14.800000000000011-14.699999999999989 5.699999999999989-25.5 14.199999999999989-35 25.100000000000023 1.6000000000000227-13.100000000000023 11-25.5 28.700000000000045-38.5 13.099999999999966-9.600000000000023 27.799999999999955-16.5 44.5-24.80000000000001-14.700000000000045-8-28-7.300000000000011-44-6.199999999999989 10.299999999999955-5 18.69999999999999-5.400000000000006 27.099999999999966-5.800000000000011 22.30000000000001-1.0999999999999943 44.80000000000001 1.3000000000000114 66.90000000000003-3.8000000000000114 7.2999999999999545-1.6999999999999886 14.399999999999977-3.8999999999999773 19.899999999999977-9.5 4.600000000000023-4.599999999999994 4.800000000000011-8.899999999999977 0.19999999999998863-13.799999999999983-5.699999999999989-5.900000000000006-12.800000000000011-9-20.5-10.400000000000006-24.5-4.599999999999994-48-0.9000000000000057-70.89999999999998 8.5-1.1000000000000227 0.4000000000000057-2.1000000000000227 1.5999999999999943-5.300000000000011 4.099999999999994 20.30000000000001-2.5 38.10000000000002-3.1999999999999886 55 4.900000000000006-21.100000000000023-0.4000000000000057-41.89999999999998 1.4000000000000057-62.39999999999998 6.400000000000006-20.80000000000001 5-40.30000000000001 12.799999999999983-58.80000000000001 23.799999999999983 15.300000000000011-20.19999999999999 36.30000000000001-32.5 58.099999999999966-44.19999999999999-25.599999999999966 2.1999999999999886-49.799999999999955 8.5-72.79999999999995 19.5 15.599999999999966-15.699999999999989 34.69999999999999-24.5 55.89999999999998-29.400000000000006 14.899999999999977-3.4000000000000057 30.19999999999999-5 45.39999999999998-6.099999999999994 35.700000000000045-2.8000000000000114 66.40000000000003-13.599999999999994 83-49z m260.20000000000005 277.8c-3.800000000000068 14.099999999999966-4.2000000000000455 27.899999999999977 0.10000000000002274 41.89999999999998 2.599999999999909 8.5 4.399999999999977 17.100000000000023 4.5 27.80000000000001-9.300000000000068-8.800000000000011-14.100000000000023-3.1000000000000227-18.300000000000068 3.8999999999999773-4.7999999999999545 7.900000000000034-9.799999999999955 15.600000000000023-12.699999999999932 24.399999999999977-3.400000000000091 10.200000000000045-9.700000000000045 13-20 10-8.700000000000045-2.599999999999909-15.700000000000045-7.7999999999999545-22.100000000000023-14.199999999999932-7.5-7.5-10.5-6.5-15.700000000000045 2.699999999999932-5.399999999999977 9.400000000000091-7.199999999999932 19.90000000000009-10.199999999999932 30.5-4.2000000000000455-16.899999999999977 0.2999999999999545-43.99999999999994 9.099999999999909-57.799999999999955 5.900000000000091-9.199999999999989 14.100000000000023-8 21.300000000000068-3.1999999999999886 8 5.5 12.299999999999955 2.599999999999966 17.199999999999932-3.900000000000034 10.100000000000023-13 16.90000000000009-26.299999999999955 14.400000000000091-43.799999999999955-1.900000000000091-13.300000000000011-0.7000000000000455-27 1.8999999999999773-40.30000000000001 2-10.800000000000011-0.3000000000000682-20.19999999999999-5.7000000000000455-29.400000000000034-9.199999999999932-15.699999999999989-17.199999999999932-31.899999999999977-18.5-50.599999999999966-0.39999999999997726-4.900000000000034-1.1999999999999318-9.800000000000011 1.6000000000000227-15.100000000000023 4.100000000000023 8.800000000000011 7.600000000000023 17.100000000000023 11.700000000000045 25.100000000000023 6.399999999999977 12.5 15.699999999999932 21.30000000000001 29.5 25.80000000000001 16.399999999999977 5.399999999999977 21.799999999999955 14.699999999999989 19.199999999999932 31.899999999999977-1.7999999999999545 11.5-4.2999999999999545 23-7.2999999999999545 34.30000000000001z m-519.6 44.30000000000001c4.900000000000006-15.800000000000011 4.5-31.200000000000045-0.09999999999999432-47.10000000000002-3.5-12.199999999999989-6.5-24.69999999999999-7.200000000000017-37.60000000000002-0.5-11.299999999999955 4.200000000000017-20.69999999999999 14.5-23.599999999999966 25.600000000000023-7.199999999999989 36-26.900000000000034 44.400000000000034-49.10000000000002 0.39999999999997726-1.3000000000000114 1.099999999999966-2.599999999999966 2.599999999999966-5.899999999999977 2.900000000000034 14.199999999999989 0.6000000000000227 25.80000000000001-3 37.30000000000001-3.6999999999999886 11.899999999999977-9.899999999999977 22.69999999999999-16.099999999999966 33.5-4 7.099999999999966-5.600000000000023 14.199999999999989-4.2000000000000455 22.5 3 18.69999999999999 3 37.5 2.1000000000000227 56.19999999999999-0.5 10.300000000000011 12.899999999999977 33.5 21.30000000000001 37.39999999999998 3.5 1.6000000000000227 5.899999999999977-0.8999999999999773 8.699999999999989-2.1999999999999886 14.5-7 22.399999999999977-3.8999999999999773 27.69999999999999 11.300000000000011 5.5 15.699999999999989 7.300000000000011 31.69999999999999 5.100000000000023 48.49999999999994-3.6000000000000227-8.799999999999955-5.400000000000034-18.299999999999955-9.5-27-5.699999999999989-12.199999999999932-7.900000000000034-12.899999999999977-18.30000000000001-4.099999999999909-6.5 5.5-12.600000000000023 11.299999999999955-21.19999999999999 13.699999999999932-10.300000000000011 2.800000000000068-16.69999999999999-0.2999999999999545-19.100000000000023-10.699999999999932-2.6999999999999886-11.600000000000023-10.899999999999977-19.600000000000023-17.19999999999999-29.000000000000057-4.400000000000006-6.5-9.300000000000011-3.8000000000000114-14 2.400000000000034-1.0999999999999943-10.200000000000045 1-18.400000000000034 3.5-26.5z m570.5-14.800000000000011l5.7999999999999545 30.30000000000001c0.40000000000009095 2.599999999999966 3.300000000000068 6.699999999999989-4.199999999999932 5.099999999999966-5.5-1.1999999999999886-5.300000000000068 6.300000000000011-6 10.400000000000034-3.2000000000000455 18-9.800000000000068 34.5-21.800000000000068 48.799999999999955 6.900000000000091-19.100000000000023 2.6000000000000227-38.69999999999999 3.800000000000068-58 0.2999999999999545-4.7999999999999545-1-10.199999999999989-3.300000000000068-14.299999999999955-11.399999999999977-21-10.099999999999909-43.10000000000002-5.699999999999932-65.30000000000001 1.1000000000000227-5.900000000000034 2-11.800000000000011 3-17.900000000000034 4.199999999999932-25.899999999999977-3.8999999999999773-47.599999999999966-22.899999999999977-65.39999999999998-2.800000000000068-2.6999999999999886-5.600000000000023-4.899999999999977-5.100000000000023-9.699999999999989 2.699999999999932-30.69999999999999-1.6000000000000227-59.900000000000034-21.300000000000068-86.80000000000001 16 8.5 36.5 40 60 90.39999999999998-3.199999999999932 3.400000000000034-6.399999999999977-2-10.299999999999955 0.30000000000001137 10.799999999999955 17.400000000000034 20.200000000000045 35.5 26.399999999999977 55.19999999999999 1.6000000000000227 5 3 10.300000000000011 4.2000000000000455 15.400000000000034 0.39999999999997726 1.3999999999999773 1.6999999999999318 4.099999999999966-1.1000000000000227 4.199999999999989-12.600000000000023 0.5-8 9.800000000000011-6.7999999999999545 15.100000000000023 2 9.299999999999955 6.5 18 9.599999999999909 27 0.8000000000000682 2.2999999999999545 6.400000000000091 7.199999999999989-2.699999999999932 7.099999999999966-3.3999999999999773-0.0999999999999659-2.1000000000000227 5.300000000000011-1.6000000000000227 8.100000000000023z m-626.6 30c1.700000000000017-9.5 4.300000000000011-18.69999999999999 5.400000000000034-28.19999999999999 0.39999999999997726-3 6.399999999999977-10.600000000000023-4.5-10.100000000000023-2.4000000000000057 0.10000000000002274-0.700000000000017-4.199999999999989 0.09999999999999432-6.300000000000011 3.299999999999983-9 7.900000000000006-17.69999999999999 9.699999999999989-26.899999999999977 1.0999999999999943-5.400000000000034 7.099999999999994-15.199999999999989-6.599999999999994-16.30000000000001-3.1999999999999886-0.30000000000001137-0.6999999999999886-4.899999999999977-0.09999999999999432-7.300000000000011 6.199999999999989-24.19999999999999 16.5-46.69999999999999 30.900000000000006-68.39999999999998-4.600000000000023-1-7.200000000000017 3.3999999999999773-12.100000000000023 1 18-31 30.600000000000023-65.30000000000001 58.69999999999999-89.9-17.899999999999977 26.400000000000006-21.799999999999983 55.49999999999997-19.49999999999997 86.20000000000002 0.4000000000000057 4.199999999999989-1.5999999999999943 6.5-4.300000000000011 9-21.69999999999999 19.69999999999999-28.400000000000006 44.099999999999966-22.599999999999994 72.39999999999998 1.6999999999999886 8.300000000000011 3.0999999999999943 16.80000000000001 4.199999999999989 25.19999999999999 1.8000000000000114 13.800000000000011 2.8000000000000114 27.69999999999999-3.3999999999999773 40.80000000000001-11.800000000000011 24.80000000000001-8.5 50.39999999999998-5 76 0.39999999999997726 2.2999999999999545 2.1999999999999886 4.399999999999977 0.5999999999999943 7.7999999999999545-11.300000000000011-14.699999999999932-17.599999999999994-30.899999999999977-21.099999999999994-48.49999999999994-0.9000000000000057-4.400000000000034 2.0999999999999943-13.600000000000023-9.200000000000017-10.699999999999989-3 1-1.5-3.8000000000000114-1.1999999999999886-5.800000000000011z m235.40000000000003-93.30000000000001c-2.400000000000034-4.100000000000023-3.5-8.600000000000023-3.6999999999999886-13.199999999999989-0.6000000000000227-15.600000000000023-8.300000000000011-27.69999999999999-18.80000000000001-38.19999999999999-11.100000000000023-11.100000000000023-22.100000000000023-13.600000000000023-35.60000000000002-5.7000000000000455-19.69999999999999 11.600000000000023-39.599999999999966 21.700000000000045-65.30000000000001 19.600000000000023 8.5 10.600000000000023 16.400000000000034 18.69999999999999 21.700000000000045 32.30000000000001 1-5.100000000000023 1.2999999999999545-6.800000000000011 1.6999999999999886-8.5 0.8999999999999773-4.199999999999989 1.8000000000000114-8.800000000000011 7.099999999999966-9.300000000000011 5.600000000000023-0.5 7.2000000000000455 3.6000000000000227 9.900000000000034 7.699999999999989 5.5 7.900000000000034 2.6999999999999886 12.900000000000034-2.3000000000000114 19.600000000000023-12.800000000000011 16.80000000000001-20.600000000000023 35.69999999999999-19.399999999999977 57.599999999999966 7-11.099999999999966 12.699999999999989-22.799999999999955 21.599999999999966-32.5 8-8.699999999999989 17.100000000000023-15.599999999999966 29.600000000000023-13.5 7.300000000000011 1.1000000000000227 14 1.400000000000034 20.80000000000001-1.2999999999999545 2.8999999999999773-1.2000000000000455 6.2999999999999545-2.2000000000000455 8.5 1.3999999999999773 1.8999999999999773 3.1000000000000227 1.099999999999966 6.300000000000011-0.8000000000000114 9-5 7-11.300000000000011 12.699999999999989-18 18.100000000000023-6.100000000000023 4.899999999999977-12.400000000000034 9.399999999999977-20.600000000000023 15.599999999999966 21.5-1.8000000000000114 36.5-11.300000000000011 51.30000000000001-24.19999999999999-3.5 25.600000000000023-14.899999999999977 50.30000000000001 4.300000000000011 72.5-0.5-18.899999999999977 4.800000000000011-36.5 11.399999999999977-53.80000000000001 7.300000000000011-18.5 6.900000000000034-36.099999999999966-3.3999999999999773-53.19999999999999z m-23.600000000000023 4.399999999999977c-5.099999999999966 2.400000000000034-10.599999999999966 3.7000000000000455-17.099999999999966 4-12.400000000000034-0.7999999999999545-23.600000000000023-5-30.80000000000001-16.599999999999966-7.400000000000034-11.900000000000034-2.400000000000034-25.30000000000001 11-29.69999999999999 16.19999999999999-5.400000000000034 41 5 48.39999999999998 20.19999999999999 3.400000000000034 7-2 17.69999999999999-11.5 22.099999999999966z m278.40000000000003-27.299999999999955c7.399999999999977 1.599999999999966 6.199999999999932 8.5 7.699999999999932 13.699999999999989 0.20000000000004547 0.5 0.7000000000000455 1 1.7000000000000455 2.1999999999999886 4.100000000000023-11.699999999999989 12.600000000000023-19.69999999999999 20.299999999999955-30.100000000000023-20.299999999999955 0.20000000000004547-38-3.599999999999966-53.89999999999998-14.099999999999966-24.899999999999977-16.400000000000034-39.69999999999993-13.199999999999989-56.19999999999993 11.699999999999989-5 7.5-8.300000000000068 15.699999999999989-8.800000000000068 24.80000000000001-0.2999999999999545 4.699999999999989-0.6999999999999318 9.5-3.199999999999932 13.399999999999977-12.100000000000023 19.30000000000001-10.800000000000068 38.80000000000001-2.7000000000000455 59.10000000000002 6.5 16.399999999999977 12.5 33.099999999999966 9.100000000000023 51.5 19.299999999999955-23.100000000000023 9.600000000000023-48.30000000000001 5.199999999999932-73.40000000000003 38.10000000000002 22.400000000000034 38.10000000000002 22.400000000000034 50 21-3.199999999999932-2.099999999999966-5.7999999999999545-3.7999999999999545-8.399999999999977-5.599999999999966-10.299999999999955-7.199999999999989-19.699999999999932-15.100000000000023-27.699999999999932-24.80000000000001-2.6000000000000227-3.1999999999999886-4.300000000000068-6.800000000000011-1.900000000000091-10.699999999999989 2.7000000000000455-4.100000000000023 6.300000000000068-1.8000000000000114 9.600000000000023-1 4.100000000000023 1.099999999999966 8.100000000000023 3.3999999999999773 12.5 2.1999999999999886 19.100000000000023-5.5 31.5 4.300000000000011 41.60000000000002 18.399999999999977 6.100000000000023 8.5 11.100000000000023 17.80000000000001 17.700000000000045 28.700000000000045 0.2999999999999545-25.700000000000045-8.300000000000068-46.10000000000002-23.100000000000023-63.200000000000045-7.600000000000023-8.799999999999955 1.1999999999999318-12.899999999999977 2.1000000000000227-19.19999999999999 0.39999999999997726-3.6999999999999886 4.599999999999909-5.399999999999977 8.399999999999977-4.599999999999966z m-31.899999999999977 25.69999999999999c-15.100000000000023 9-34.90000000000009 6.800000000000011-44.700000000000045-4.900000000000034-5.7999999999999545-7-6.7000000000000455-13.699999999999989 0.6000000000000227-20.399999999999977 9.5-8.800000000000011 19-17.100000000000023 30.600000000000023-17.399999999999977 14.699999999999932 0.19999999999998863 25.09999999999991 6.5 27.59999999999991 15.599999999999966 2.800000000000068 9.5-2.8999999999999773 20.600000000000023-14.099999999999909 27.100000000000023z m174 143.3c-13.200000000000045 19.799999999999955-2.900000000000091 41.39999999999998-5.600000000000023 62.299999999999955-4.100000000000023-8-7.5-15.299999999999955-17.700000000000045-13.899999999999977-13.100000000000023 1.8999999999999773-24.799999999999955 6.7999999999999545-32.5 18-3.699999999999932 5.5 0.8000000000000682 10.899999999999977 3.7000000000000455 15.700000000000045 4.399999999999977 7.399999999999977 10.600000000000023 14.099999999999909 11.299999999999955 23.59999999999991-22.600000000000023-9.5-22.600000000000023-9.5-28.299999999999955 10.300000000000068-4.7000000000000455-10.899999999999977-10.800000000000068-7.5-19.899999999999977-6.399999999999977-15.400000000000091 1.8999999999999773-27.600000000000023 9.099999999999909-41.5 14 1.6999999999999318-1.5 3.5-2.900000000000091 5.099999999999909-4.600000000000023 7-7.2000000000000455 5.900000000000091-12.800000000000068-3.199999999999932-17.300000000000068-7.5-3.699999999999932-15.700000000000045-3.8999999999999773-26.399999999999977-4.899999999999977 11.799999999999955-5.5 21.59999999999991-4.100000000000023 30.899999999999977-1.3999999999999773 15.199999999999932 4.2000000000000455 30 5.2999999999999545 44.299999999999955-2.7999999999999545 4.5-2.6000000000000227 10.600000000000023-4.2000000000000455 10.800000000000068-10.600000000000023 0.1999999999999318-5.7000000000000455-5-8.200000000000045-9.200000000000045-10.899999999999977-9.899999999999977-6.300000000000068-20.299999999999955-11.800000000000068-29.899999999999977-18.5-13.399999999999977-9.400000000000091-22.200000000000045-21.800000000000068-21-40 4.5 2.699999999999932 4.100000000000023 7.599999999999909 6.199999999999932 11.099999999999909 8.800000000000068 14.5 28.600000000000023 23.800000000000068 45.80000000000007 21.200000000000045 11.199999999999932-1.7999999999999545 13.699999999999932-5.100000000000023 11.899999999999977-16.399999999999977-2.5-15.600000000000023-1.7000000000000455-26.399999999999977 3.2999999999999545-41 3.400000000000091 8 3.300000000000068 15.699999999999932 4.600000000000023 22.899999999999977 5.399999999999977 29.899999999999977 12.600000000000023 32.5 36.30000000000007 13.100000000000023 8.099999999999909-6.7000000000000455 14.799999999999955-14.399999999999977 21-23.5z m-479.6 96.60000000000002c-5.5 0.6999999999999318-10.5 1.099999999999909-15.5 2.099999999999909-6.5 1.400000000000091-14 2.7000000000000455-16.100000000000023 10.300000000000068-1.8999999999999773 7.2999999999999545 5.100000000000023 10.100000000000023 10.199999999999989 15.399999999999977-6.300000000000011-1-10.099999999999966-4-14.099999999999966-6.2999999999999545-7.400000000000034-4.2000000000000455-14.600000000000023-9-23.900000000000034-6.800000000000068-1.5 0.39999999999997726-3.8999999999999773-0.10000000000002274-5-1.1000000000000227-8.399999999999977-7-14.599999999999966-5.099999999999909-18.799999999999983 5.300000000000068-4-6-1.0999999999999943-15.300000000000068-10.300000000000011-16.399999999999977-6.799999999999983-0.900000000000091-11.799999999999983 4.199999999999932-18.69999999999999 7.199999999999932 1-9.699999999999932 6.299999999999983-16.399999999999977 10.799999999999983-23.299999999999955 8.700000000000017-13.300000000000068 7.600000000000023-18.200000000000045-6.099999999999994-26.5-4.199999999999989-2.6000000000000227-8.799999999999983-4.800000000000068-13.400000000000006-6.399999999999977-13.799999999999983-4.7000000000000455-19.299999999999983-2-24.399999999999977 11.299999999999955-4.200000000000017-5.600000000000023-5.5-7-3.5-12.600000000000023 5-15 3.8999999999999773-29.299999999999955-2.8000000000000114-43.299999999999955-0.6999999999999886-1.5-0.6999999999999886-3.3999999999999773-1.0999999999999943-5 9.099999999999994 14.100000000000023 21 24.899999999999977 35.599999999999994 32.89999999999998 9.300000000000011 5 13.199999999999989 3.6000000000000227 17.099999999999994-6.399999999999977 4.800000000000011-12.300000000000068 5.5-25.5 8.099999999999994-41.5 6.300000000000011 15.399999999999977 6.200000000000017 28.399999999999977 4.300000000000011 41.60000000000002-1.9000000000000057 13.299999999999955 1.0999999999999943 17.199999999999932 14.5 18.299999999999955 20.19999999999999 1.5 38.30000000000001-9.899999999999977 46-29.100000000000023 0.5-1.2999999999999545 0.8999999999999773-2.699999999999932 3.1999999999999886-2.8999999999999773 1 12.399999999999977-3.3000000000000114 22.700000000000045-11.699999999999989 31.5-6.699999999999989 7-14.800000000000011 12.100000000000023-23.100000000000023 17-6.5 3.7999999999999545-13.099999999999966 7.2999999999999545-19.099999999999966 11.600000000000023-8.800000000000011 6.2999999999999545-8.700000000000017 11.699999999999932 0.5 16.899999999999977 12.300000000000011 7.100000000000023 25.099999999999966 11.299999999999955 39.599999999999966 7.100000000000023 8.5-2.5 17.200000000000045-4.5 26.200000000000045-4 4-0.20000000000004547 8.099999999999966-0.7000000000000455 11.5 3.1000000000000227z m142.5-281.20000000000005c-11.800000000000011-7.5-16-7.5-33.60000000000002-0.30000000000001137 7.800000000000011-17.30000000000001 34.80000000000001-29 51.89999999999998-22.30000000000001 1.6000000000000227 0.6000000000000227 2.6000000000000227 1.400000000000034 4.7000000000000455 0.8000000000000114 20.399999999999977-6.099999999999966 41.799999999999955 2.6000000000000227 54.19999999999993 22.5-12.099999999999909-5.899999999999977-23.299999999999955-10-34.799999999999955-1.1999999999999886 28.399999999999977 11.199999999999989 31.600000000000023 13.699999999999989 35.5 28.600000000000023-11.5-7.800000000000011-23.100000000000023-11.600000000000023-36.10000000000002-11.100000000000023-7.600000000000023 0.30000000000001137-11.099999999999966 2.3000000000000114-11.799999999999955 10.899999999999977-1.400000000000034 15.700000000000045-2.5 31.700000000000045-8.200000000000045 48-5.199999999999989-5.699999999999989-5-11.799999999999955-5.899999999999977-17.299999999999955-1.6999999999999886-10.5-3.3999999999999773-21-4.100000000000023-31.700000000000045-0.39999999999997726-7.5-3.7999999999999545-9.5-10.599999999999966-9.699999999999989-13.300000000000011-0.39999999999997726-25.400000000000034 2.3000000000000114-36.5 9.900000000000034 4.399999999999977-18.100000000000023 19.80000000000001-22.400000000000034 35.30000000000001-27.100000000000023z m5.199999999999989 247.89999999999998l0.30000000000001137 0.3000000000000682h-0.5v-0.40000000000009095s0.0999999999999659 0 0.19999999999998863 0.10000000000002274z m-0.30000000000001137-0.10000000000002274c-16.5-5.099999999999909-32.60000000000002-11.5-47.19999999999999-20.799999999999955-18.19999999999999-11.700000000000045-21-25.899999999999977-9.699999999999989-44.5 3.2999999999999545-5.2999999999999545 6.5-10.700000000000045 9.799999999999955-16.100000000000023 2.3000000000000114 1.8999999999999773 1.1000000000000227 3.7000000000000455 1.1000000000000227 5.300000000000068 0.19999999999998863 14.899999999999977 2.8999999999999773 21.699999999999932 18.899999999999977 21.59999999999991 13.100000000000023-0.09999999999990905 26 3.7000000000000455 37.30000000000001 11 4.100000000000023 2.7000000000000455 7.400000000000034 2.7000000000000455 11.600000000000023 0.10000000000002274 11.300000000000011-7.399999999999977 24.19999999999999-9.799999999999955 37.30000000000001-11.399999999999977 17.199999999999932-2.1000000000000227 17.5-2.2999999999999545 18.799999999999955-20.200000000000045 0.10000000000002274-1.2999999999999545-0.39999999999997726-2.7999999999999545 2.3999999999999773-4 5.300000000000068 8.200000000000045 11.700000000000045 16.200000000000045 14.5 26.100000000000023 3.400000000000091 11.399999999999977-1.8999999999999773 23.200000000000045-14.699999999999932 31.399999999999977-14.899999999999977 9.600000000000023-31.100000000000023 16.300000000000068-48.10000000000002 21.300000000000068-3.5-14.300000000000068 6-22.300000000000068 15-30.5 6.2000000000000455-5.7000000000000455 13.899999999999977-6.600000000000023 21.700000000000045-7.7000000000000455 2.699999999999932-0.39999999999997726 6.5-0.2999999999999545 7.099999999999909-3.5 0.7000000000000455-3.7999999999999545-2-6.7999999999999545-5.199999999999932-8.600000000000023-3.3999999999999773-1.8999999999999773-7.399999999999977-1.8999999999999773-11.399999999999977-1.3999999999999773-11.800000000000068 1.3999999999999773-22.700000000000045 5.7000000000000455-33.30000000000007 10.5-6.399999999999977 2.800000000000068-11.899999999999977 2.800000000000068-18.299999999999955 0.10000000000002274-11.100000000000023-4.7999999999999545-22.200000000000045-9.600000000000023-34.400000000000034-10.700000000000045-6.699999999999989-0.599999999999909-14.300000000000011 0-15.300000000000011 7.800000000000068-1 8 7.300000000000011 5.5 11.800000000000011 6.2999999999999545 19.80000000000001 3.800000000000068 32.900000000000034 19.899999999999977 30.30000000000001 37.89999999999998z m31.899999999999977 0c0.10000000000002274 0 0.20000000000004547-0.09999999999990905 0.39999999999997726-0.09999999999990905l0.10000000000002274 0.39999999999997726c-0.1999999999999318 0-0.5-0.3000000000000682-0.5-0.3000000000000682z m-215-393.29999999999995c12.200000000000045-19.900000000000006 30.200000000000045-33 50-43.80000000000001 23.900000000000034-12.899999999999977 49.30000000000001-21.799999999999983 75.60000000000002-28.19999999999999 11.5-2.8000000000000114 20.30000000000001-8.200000000000003 24.5-20.700000000000003 11.800000000000011 14.700000000000003 25 22.89999999999999 44.69999999999999 12.700000000000003-6.199999999999989 16.099999999999994-17.69999999999999 22.099999999999994-32.19999999999999 23.599999999999994-26.899999999999977 2.700000000000017-53.5 7-79.39999999999998 14.900000000000006-30 9.400000000000006-57.900000000000034 22.69999999999999-83.20000000000005 41.5z m203.60000000000002-79.2c20.299999999999955 7.200000000000003 28.200000000000045 4.799999999999997 44.89999999999998-13.200000000000003 4.2000000000000455 13.300000000000011 14.399999999999977 18 26.600000000000023 21 31.100000000000023 7.900000000000006 61.10000000000002 18.700000000000017 88.20000000000005 36.400000000000006 14.099999999999909 9.199999999999989 26.5 20.19999999999999 37.5 37.099999999999994-4.400000000000091-2.9000000000000057-6.5-4.199999999999989-8.400000000000091-5.599999999999994-41.59999999999991-30.599999999999994-89.09999999999991-44.400000000000006-139.5-50.80000000000001-6.699999999999932-0.8999999999999773-13.399999999999977-1.299999999999983-20.09999999999991-2.299999999999983-13.200000000000045-2.0999999999999943-23.100000000000023-8.700000000000017-29.200000000000045-22.60000000000001z m-321.6 67.50000000000001c-0.19999999999998863 1.6999999999999886-0.39999999999997726 3.3999999999999773-0.6999999999999886 5.699999999999989-8-11.5-7-53.099999999999994 0.6000000000000227-66.80000000000001 2.3999999999999773-4.399999999999977 6.699999999999989-6 11.299999999999983-7.099999999999994 29.400000000000006-6.699999999999989 85.79999999999998 16 102.29999999999998 41.20000000000002 2.900000000000034 4.399999999999977 5.300000000000011 9.099999999999994 5.400000000000034 16.599999999999994-16.30000000000001-15.599999999999994-33-27.200000000000017-53.10000000000002-33.30000000000001-37.69999999999999-11.599999999999994-61.69999999999999 4.300000000000011-65.79999999999998 43.70000000000002z m524.6-17.700000000000017c-2.2999999999999545 2-4.7000000000000455 4.099999999999994-7.899999999999977 6.900000000000006 0.1999999999999318-10 4.600000000000023-16.900000000000006 10.399999999999977-22.5 25.200000000000045-24.30000000000001 55.89999999999998-35.5 90.60000000000002-35.5 14.299999999999955 0 17.600000000000023 3.6999999999999886 21.199999999999932 17.5 5.100000000000023 19.599999999999994 3.400000000000091 39-1.6999999999999318 60.900000000000006-1.6000000000000227-9.900000000000006-1.8999999999999773-17.400000000000006-4-24.5-7.100000000000023-25.099999999999994-27.600000000000023-36.599999999999994-54.60000000000002-31-20.700000000000045 4.199999999999989-38.299999999999955 14.400000000000006-54 28.19999999999999z m-127.20000000000005 417.69999999999993c19.90000000000009-20.399999999999977 21.800000000000068-43.19999999999993 9-68.59999999999991 9.900000000000091 1.8999999999999773 13.200000000000045 8.599999999999909 15.600000000000023 15.599999999999909 2.7000000000000455 8 4.600000000000023 16.40000000000009 7 24.600000000000023 2 6.800000000000068 5.5 11.200000000000045 13.899999999999977 9 8.5-2.2999999999999545 12.300000000000068-7.199999999999932 10.100000000000023-15.600000000000023-4.100000000000023-15.5-6.5-31-6.7999999999999545-47.09999999999991-0.3000000000000682-17.500000000000057 8.5-35.60000000000002 23.299999999999955-42.400000000000034-4.699999999999932 10.399999999999977-10.699999999999932 18.899999999999977-11.699999999999932 30.399999999999977-1.3000000000000682 15.099999999999966 3 28.599999999999966 6.5 42.50000000000006 1.6999999999999318 6.899999999999977 4.2999999999999545 13.5 5.699999999999932 20.5 2.2000000000000455 11.899999999999977-4.399999999999977 22.199999999999932-16 21.199999999999932-19.899999999999977-1.5-37.799999999999955 4.100000000000023-56.60000000000002 9.899999999999977z m-158.79999999999995-0.09999999999990905c-4.600000000000023-0.8000000000000682-7.5-0.900000000000091-10.100000000000023-1.900000000000091-14.299999999999955-5.399999999999977-28.69999999999999-8.799999999999955-44.5-7.599999999999909-15.199999999999989 1.1999999999999318-22.599999999999966-9.400000000000091-18.899999999999977-24.40000000000009 2.6999999999999886-11.099999999999909 6.199999999999989-21.799999999999955 9.300000000000011-32.799999999999955 5.599999999999966-20.100000000000023 3.3999999999999773-39.10000000000002-8.800000000000011-56.5 8.100000000000023 1.6000000000000227 12.800000000000011 6.100000000000023 16.399999999999977 14.699999999999989 9.400000000000034 22.900000000000034 7.400000000000034 45.80000000000001 0.8000000000000114 68.90000000000003-3.599999999999966 12.699999999999932-1.3000000000000114 17.100000000000023 8.400000000000034 20.100000000000023 7.2999999999999545 2.2999999999999545 11.799999999999955-0.40000000000009095 14-7.300000000000068 2.6999999999999886-8.5 4.5-17.199999999999932 7.2999999999999545-25.600000000000023 2-6.199999999999932 4.7000000000000455-12.5 14.100000000000023-15.699999999999932-9.600000000000023 25.399999999999977-10.199999999999989 48.10000000000002 12 68.10000000000002z m388.5-377.80000000000007c0.2999999999999545 22.30000000000001-7.7000000000000455 42.200000000000045-20.600000000000023 62.700000000000045-10.5-25.600000000000023-26.399999999999977-45.10000000000002-42.39999999999998-64.60000000000002 14.899999999999977 8.099999999999994 27.5 19.19999999999999 39 31.5 14.5-19.80000000000001 13.5-47.69999999999999-2-65.30000000000001 15.799999999999955 3.200000000000017 25.700000000000045 16.30000000000001 26 35.70000000000002z m-599 62.5c-13.800000000000011-21.599999999999966-22.30000000000001-42.89999999999998-20.30000000000001-67.09999999999997 1.3000000000000114-16.400000000000006 10.300000000000011-26.900000000000006 26.80000000000001-32.20000000000002-10.199999999999989 9.599999999999994-14.099999999999994 20.30000000000001-13.400000000000006 32.599999999999994 0.700000000000017 11.800000000000011 2.5999999999999943 23.100000000000023 9.700000000000017 34 12-12.599999999999994 24.599999999999994-23.399999999999977 39.39999999999998-32-15.799999999999983 19.900000000000006-32.099999999999994 39.400000000000006-42.19999999999999 64.69999999999999z m114.10000000000002 283.80000000000007c6.399999999999977 12.799999999999955 13.099999999999966 24.899999999999977 24.69999999999999 33.19999999999993 8 5.7000000000000455 16.80000000000001 11.800000000000068 26.5 2.5 1.8999999999999773-1.7999999999999545 3-1.1999999999999318 4.199999999999989 0.3000000000000682 10.199999999999989 12.299999999999955 24.600000000000023 15.799999999999955 39.39999999999998 18.799999999999955-13.599999999999966 5.5-27.299999999999955 3.5-41.099999999999966 1.2000000000000455-11.199999999999989-1.900000000000091-22.30000000000001-4.5-32.30000000000001-10.100000000000023-18-10-21.69999999999999-27.300000000000068-21.399999999999977-45.89999999999998z m311.6 52.5c-18.40000000000009 5.099999999999909-37.10000000000002 8.799999999999955-56.5 2.5 14.899999999999977-3.300000000000068 29.399999999999977-6.900000000000091 39.59999999999991-19.100000000000023 1.400000000000091-1.8000000000000682 2.5-1.6000000000000227 4.2000000000000455 0.10000000000002274 7.7999999999999545 7.899999999999977 15.700000000000045 4 23.100000000000023-0.5 13.600000000000023-8.200000000000045 21.199999999999932-21.40000000000009 28.399999999999977-38.60000000000002 0.6000000000000227 32.19999999999993-10.5 47.69999999999993-38.799999999999955 55.60000000000002z m-54.40000000000009 26.399999999999977c24.90000000000009 0.39999999999997726 47.5-7.7000000000000455 69.5-20.300000000000068-7.399999999999977 20.200000000000045-15.399999999999977 25.800000000000068-34.5 24.700000000000045-11.599999999999909-0.7000000000000455-23.799999999999955 3.2000000000000455-35-4.399999999999977z m-235.09999999999997-20.700000000000045c23.19999999999999 12.700000000000045 45.69999999999999 21.200000000000045 73 19.5-6.300000000000011 5.2000000000000455-11.300000000000011 5.800000000000068-16.5 5.899999999999977-9.899999999999977 0.10000000000002274-19.69999999999999 0.40000000000009095-29.599999999999966 0.3000000000000682-10.5-0.10000000000002274-17-6-26.900000000000034-25.700000000000045z m40.400000000000034-247.29999999999995c0.0999999999999659 7.099999999999966-6.800000000000011 19.099999999999966-10.5 18.799999999999955-4.2000000000000455-0.19999999999998863-11-13.399999999999977-9.800000000000011-19.599999999999966 0.8999999999999773-4.900000000000034 3.3000000000000114-9.300000000000011 6.300000000000011-13.199999999999989 1.1999999999999886-1.6000000000000227 2.6999999999999886-4 5-2.400000000000034 3 2-0.4000000000000341 3.1999999999999886-1.1000000000000227 4.900000000000034-1.1000000000000227 2.7999999999999545-0.19999999999998863 5.7999999999999545 2.8999999999999773 4.699999999999989 9.100000000000023-3.400000000000034 5 4.899999999999977 7.2000000000000455 6.800000000000011z m246.79999999999995 3.1999999999999886c-0.6000000000000227 6.5-3.3999999999999773 12.599999999999966-9.600000000000023 15.599999999999966-3.3999999999999773 1.6000000000000227-10.5-10.799999999999955-10.5-17.899999999999977 0.20000000000004547-5.699999999999989 2.800000000000068-10.199999999999989 6.300000000000068-14.300000000000011 1.1999999999999318-1.5 2.5-4.199999999999989 5-2.6999999999999886 3.2999999999999545 2-0.39999999999997726 3.3000000000000114-1.1000000000000227 5-1.1000000000000227 3.1000000000000227 0.39999999999997726 5.5 3.2999999999999545 5 9.100000000000023-1.6000000000000227 7 5.300000000000011 6.600000000000023 9.300000000000011z"/>
</svg>
