<svg xmlns="http://www.w3.org/2000/svg" viewBox="0 0 1000 1000" width="1000" height="1000">
<path d="M912.9 404.1c-52-111-179-168.70000000000002-296.1-142.8-152.99999999999994 33.80000000000001-283.9 263.2-128.29999999999995 406.8l0.30000000000001137 0.10000000000002274c-10.600000000000023 16.5 2.8999999999999773 24.799999999999955 12.699999999999989 34.19999999999993 86.39999999999998 83.60000000000002 227.20000000000005 92.89999999999998 326.6 21.700000000000045 102.79999999999995-73.5 138-206.39999999999998 84.79999999999995-320z m-164 308c-85.29999999999995 44.89999999999998-202 25.199999999999932-257.5-42.80000000000007 39 16 75.89999999999998 37.10000000000002 118.5 44.40000000000009 124.5 21.399999999999977 247.5-111.40000000000009 210-227.70000000000005-18.600000000000023-57.89999999999998-74.29999999999995-96.89999999999998-133.29999999999995-93.10000000000002-47.39999999999998 3-85.20000000000005 36.10000000000002-94.20000000000005 83.60000000000002-8.199999999999932 43.60000000000002 13.800000000000068 72.29999999999995 50.80000000000007 88.89999999999998 28.799999999999955 13 54.5 2.1000000000000227 71.79999999999995-23.799999999999955 12.700000000000045-19.100000000000023 14-39.60000000000002-2.5-58.200000000000045-12.299999999999955-13.699999999999989-28-17.299999999999955-44.10000000000002-9.699999999999989-13.899999999999977 6.600000000000023-22.799999999999955 18.19999999999999-16.600000000000023 35.400000000000034 3.900000000000091 10.899999999999977 12.5 14.799999999999955 23.100000000000023 13 22.200000000000045-3.8999999999999773 12.700000000000045-20.100000000000023 11.399999999999977-34 18.100000000000023 7.699999999999989 21.800000000000068 19.19999999999999 11.400000000000091 33.89999999999998-7.600000000000023 10.799999999999955-18 20.5-32.60000000000002 15.700000000000045-15.800000000000068-5.300000000000068-29.100000000000023-14.600000000000023-29.800000000000068-34.00000000000006-1-28.80000000000001 12.300000000000068-47.19999999999999 41-50.69999999999999 36.40000000000009-4.5 59.40000000000009 13.800000000000011 66.90000000000009 48.69999999999999 7.2999999999999545 34.00000000000006-6.7000000000000455 61.19999999999999-35.700000000000045 78.69999999999999-31.899999999999977 19.300000000000068-65.5 17.600000000000023-96.39999999999998-2.199999999999932-64.10000000000002-41-64.60000000000002-135.80000000000007-1.7000000000000455-187.40000000000003 81.39999999999998-66.69999999999999 209.80000000000007-22.19999999999999 246.30000000000007 85.30000000000001 29.799999999999955 87.79999999999995-15.5 187.89999999999998-106.80000000000007 236z m-594.7-382l0.40000000000006253-0.30000000000001137 0.700000000000017-1.1000000000000227-1.1000000000000227 1.400000000000034z m231.50000000000006 150.29999999999995c-6.699999999999989-38.19999999999999-13.899999999999977-76.39999999999998-30.599999999999966-111.89999999999998-29.700000000000045-63.19999999999999-87.90000000000003-87.10000000000002-153.10000000000002-62-16.400000000000006 6.300000000000011-31.599999999999994 15.5-47.30000000000001 23.399999999999977-106.19999999999999 148.8-29.599999999999994 371.5 151.2 422.4 77.10000000000002 21.700000000000045 155.10000000000002 23.800000000000068 246.30000000000007 7.100000000000023-113.80000000000007-65.60000000000002-147.20000000000005-168.19999999999993-166.50000000000006-279z m-318.29999999999995-242.79999999999998c-9.300000000000033 12.099999999999994-4.200000000000031 26.200000000000017 5.899999999999963 28.099999999999994 38.10000000000001 7.400000000000034 53.60000000000001 42 80.8 62-3.5999999999999943-40.89999999999998-52.19999999999999-55.099999999999966-58.19999999999999-95.79999999999998-1-6.800000000000011-20.10000000000001-5.200000000000017-28.5 5.699999999999989z m86.89999999999998 92.50000000000003l1.0999999999999943-1.2000000000000455c-0.5-0.39999999999997726-1-0.6999999999999886-1.4000000000000057-1.099999999999966 0.09999999999999432 0.6999999999999886 0.30000000000001137 1.3999999999999773 0.30000000000001137 2.3000000000000114z"/>
</svg>
