<svg xmlns="http://www.w3.org/2000/svg" viewBox="0 0 1000 1000" width="1000" height="1000">
<path d="M407.2 514.4c-6.300000000000011 1.8000000000000682-10.800000000000011 6.899999999999977-14.5 12.200000000000045-7.5 10.799999999999955-17.399999999999977 19.199999999999932-28.399999999999977 25.600000000000023-17.30000000000001 10.199999999999932-31.69999999999999 23.59999999999991-45.80000000000001 37.799999999999955-8.800000000000011 8.799999999999955-16.19999999999999 25.5-29.100000000000023 22.100000000000023-15-3.8999999999999773-16.599999999999966-22.700000000000045-22.099999999999966-36.10000000000002-0.6999999999999886-1.7999999999999545-0.5-3.7999999999999545-0.8000000000000114-5.7000000000000455-7.300000000000011-50.59999999999991-15-101.19999999999993-21.5-151.89999999999998-1.5999999999999943-12-5.900000000000006-17.899999999999977-18.099999999999994-16.19999999999999-12.599999999999994 1.6999999999999886-12.400000000000006 10.900000000000034-11.5 20.30000000000001 0.799999999999983 8.300000000000011 2.0999999999999943 16.5 3 24.899999999999977 4.699999999999989 45.80000000000001 18.099999999999994 90.5 16.5 148.80000000000007-3.5999999999999943 51.39999999999998-6.099999999999994 50.799999999999955-56.400000000000006 27.09999999999991-33.30000000000001-15.599999999999909-65.5-35.89999999999998-104.3-36.5-4.200000000000003-0.09999999999990905-9.5-2.7999999999999545-11.200000000000003 3.6000000000000227-1.6000000000000014 5.800000000000068 0.7999999999999972 10.200000000000045 6.599999999999994 12.200000000000045 38.30000000000001 13 70.30000000000001 40.10000000000002 110 49.39999999999998 22.099999999999994 5.2999999999999545 41.30000000000001 12.299999999999955 57.80000000000001 30.100000000000023 19.700000000000017 21.299999999999955 44.49999999999997 14.399999999999977 56.400000000000006-12.300000000000068 6-13.599999999999909 11.899999999999977-27.899999999999977 23.899999999999977-36.799999999999955 39.30000000000001-29 64.80000000000001-71.10000000000002 100.30000000000001-103.39999999999998 3.8999999999999773-3.6000000000000227 10.699999999999989-8.300000000000068 5.800000000000011-14.200000000000045-3.8000000000000114-4.699999999999989-11.100000000000023-2.5-16.600000000000023-1z m529.5999999999999-68.19999999999999c-1.5-4.899999999999977-5.5-4.5-9.5-3.6999999999999886-19.399999999999977 3.6000000000000227-39 5.300000000000011-57.299999999999955 14.5-24.5 12.300000000000011-49.60000000000002 23.600000000000023-75.10000000000002 34-19.299999999999955 7.800000000000011-23.5 4.699999999999989-27.100000000000023-15.5-7.199999999999932-39.10000000000002-1.8999999999999773-77.69999999999999 4.900000000000091-116.30000000000001 4.599999999999909-25.80000000000001 8.099999999999909-51.80000000000001 11.599999999999909-74.09999999999997-0.39999999999997726-13 3.1000000000000227-24-11.299999999999955-26.30000000000001-13.899999999999977-2.1999999999999886-17.700000000000045 5.899999999999977-18.700000000000045 17.899999999999977-3.7999999999999545 43.30000000000001-17.199999999999932 85.19999999999999-17.799999999999955 129.10000000000002-0.2999999999999545 17.19999999999999-5.2000000000000455 34-13.700000000000045 49.5-9.799999999999955 17.899999999999977-14 18.899999999999977-28.399999999999977 5.199999999999989-13.399999999999977-12.899999999999977-25.299999999999955-27.69999999999999-40.10000000000002-38.69999999999999-18.59999999999991-13.699999999999989-38.39999999999998-25.30000000000001-52.5-44.19999999999999-4-5.300000000000011-9.899999999999977-8.100000000000023-16.799999999999955-8-3.7000000000000455 0.0999999999999659-8.399999999999977-1.3000000000000114-10.5 2.599999999999966-2 3.900000000000034 1.1000000000000227 7.5 3.8999999999999773 10 34.60000000000002 29.80000000000001 56.80000000000007 71.30000000000001 94.20000000000005 98.40000000000003 14.399999999999977 10.399999999999977 25.600000000000023 24.19999999999999 30.799999999999955 40.89999999999998 11.200000000000045 36 45.700000000000045 34.700000000000045 65.70000000000005 11.5 5.699999999999932-6.600000000000023 10.199999999999932-15.299999999999955 20.299999999999955-16.700000000000045 49.39999999999998-7.199999999999932 89.39999999999998-36.799999999999955 134.30000000000007-54.89999999999998 3-1.1999999999999886 5.899999999999977-2.5 8.699999999999932-3.8999999999999773 5.2000000000000455-2.3999999999999773 5.899999999999977-6.699999999999989 4.399999999999977-11.300000000000011z m-660.5999999999999 281.90000000000003c-7.600000000000023 1.7999999999999545-11.700000000000045 4.399999999999977-7.400000000000034 12.799999999999955 6.5 12.700000000000045 12.099999999999966 25.800000000000068 23.5 38.39999999999998 0-17.09999999999991 0.8999999999999773-31.5-0.30000000000001137-45.69999999999993-1-11.200000000000045-8.899999999999977-7.100000000000023-15.800000000000011-5.5z m437.19999999999993-144.30000000000007c-6 0.20000000000004547-6.699999999999932 6.7000000000000455-6.7999999999999545 11.700000000000045-0.3000000000000682 12.600000000000023-0.10000000000002274 25.100000000000023-0.10000000000002274 37.700000000000045 1.1000000000000227 0.39999999999997726 2.2999999999999545 0.6999999999999318 3.5 1 6.399999999999977-10.800000000000068 13-21.40000000000009 19.200000000000045-32.40000000000009 2.3999999999999773-4.199999999999932 7.199999999999932-9.699999999999932 2.2999999999999545-13.299999999999955-4.899999999999977-3.3999999999999773-12-4.7999999999999545-18.100000000000023-4.7000000000000455z m-286.7-83.29999999999995c0.19999999999998863 2.8000000000000114 10.199999999999989 8.300000000000011 12.199999999999989 7.100000000000023 9.100000000000023-6 3.8000000000000114-17.30000000000001 6.800000000000011-26.100000000000023-6.800000000000011 7-19.899999999999977 7.5-19 19z m126.90000000000003-161.89999999999998c4 8.599999999999966-2.3999999999999773 20.599999999999966 8.399999999999977 25 2.6000000000000227 1.099999999999966 11.799999999999955-5.400000000000034 11.600000000000023-7.400000000000034-1.8000000000000682-10.099999999999966-12.5-12.300000000000011-20-17.599999999999966z m-329.40000000000003 22.599999999999966c-2.799999999999983 11.5-4.699999999999989 19-7 28.100000000000023 7.900000000000006-1.3000000000000114 14.100000000000023-2.400000000000034 21.80000000000001-3.6000000000000227-4.900000000000006-8.199999999999989-9-14.800000000000011-14.800000000000011-24.5z m549.3-140.39999999999998c-4.2999999999999545 7.399999999999977-8.100000000000023 13.899999999999977-13.600000000000023 23.399999999999977h23.600000000000023c-5.600000000000023-7.699999999999989-1.8999999999999773-17.099999999999994-10-23.399999999999977z"/>
</svg>
