<svg xmlns="http://www.w3.org/2000/svg" viewBox="0 0 1000 1000" width="1000" height="1000">
<path d="M936.9 227.1c-5.7999999999999545-18.599999999999994-35.799999999999955-30.400000000000006-68-33.599999999999994-39.60000000000002-4-90.19999999999993 4.300000000000011-134.29999999999995 22.5-33.5 13.900000000000006-64.5 31.19999999999999-96.30000000000007 56.19999999999999-50.09999999999991 39.400000000000034-76.69999999999993 71.10000000000002-90.09999999999991 88.80000000000001-10.800000000000068 14.300000000000011-13.100000000000023 30.600000000000023-23.100000000000023 38.10000000000002-0.5-3.8000000000000114 0.7999999999999545-13.700000000000045-5.600000000000023-17.5-1.8999999999999773-1.1000000000000227-4.100000000000023-2.400000000000034-6.2000000000000455-3.6000000000000227 2.400000000000091-10 15-58 35.10000000000002-85.60000000000002 24.399999999999977-33.5 51.700000000000045-52.69999999999999 55.30000000000007-54.89999999999998 4.2999999999999545-2.6999999999999886 8.899999999999977-2.9000000000000057 11.899999999999977-4.800000000000011 2.2999999999999545-1.3999999999999773 3.7999999999999545-7.699999999999989 2.5-8.399999999999977-4.600000000000023-2.5-9.800000000000068 2.8999999999999773-13 6.399999999999977-3.3999999999999773 3.700000000000017-38.80000000000007 28-60.5 59.60000000000002-20.300000000000068 29.5-33 76.69999999999999-35.30000000000001 85.5-3.8000000000000114-2-7.300000000000011-3.6000000000000227-9.199999999999989-3.6000000000000227-1.8000000000000114 0-4.800000000000011 1.3000000000000114-8.100000000000023 3-2.6999999999999886-10.300000000000011-15.300000000000011-56.39999999999998-35.10000000000002-85.39999999999998-21.69999999999999-31.600000000000023-57.099999999999966-55.400000000000006-60.5-59.10000000000002-3.1999999999999886-3.5-8.399999999999977-9-13-6.399999999999977-1.2999999999999545 0.6999999999999886 0.20000000000004547 6.899999999999977 2.5 8.399999999999977 3 1.9000000000000057 7.600000000000023 2.1000000000000227 11.900000000000034 4.800000000000011 3.5 2.1999999999999886 30.80000000000001 21 55.30000000000001 54.5 19.69999999999999 27 32.099999999999966 74 34.89999999999998 85.39999999999998-2.6000000000000227 1.5-5.199999999999989 3-7.5 4.300000000000011-6.399999999999977 3.8000000000000114-5.100000000000023 13.699999999999989-5.600000000000023 17.5-9-4.800000000000011-16.19999999999999-25.80000000000001-29.399999999999977-45.30000000000001-14-20.799999999999955-33.69999999999999-42.299999999999955-83.80000000000001-81.59999999999997-31.899999999999977-25.100000000000023-62.89999999999998-42.30000000000001-96.30000000000001-56.20000000000002-43.99999999999997-18.299999999999983-94.69999999999999-26.5-134.29999999999998-22.5-32.19999999999999 3.200000000000017-62.3 15-68 33.599999999999994-4.3999999999999915 14.400000000000006 15.300000000000011 59.19999999999999 33.7 85.19999999999999 13.600000000000009 19.30000000000001 16.5 41.700000000000045 21.5 63.700000000000045 7.200000000000003 31.5 20.200000000000003 78.5 55.89999999999999 90.19999999999999 32.70000000000002 10.699999999999989 96.69999999999999-8.600000000000023 96.69999999999999-8.600000000000023s1.400000000000034 11.5-20.099999999999966 20.100000000000023c-22.30000000000001 9-34.400000000000006 22.899999999999977-47.30000000000001 47.30000000000001-11.5 21.799999999999955-20.69999999999999 51.10000000000002-20.69999999999999 64.10000000000002 0 20 5 27.199999999999932 4.299999999999983 36.5-0.9000000000000057 11.5 3.200000000000017 22.899999999999977 11.099999999999994 31.5 8.900000000000006 9.699999999999932 5.400000000000006 18.299999999999955 9.300000000000011 29 3.5999999999999943 9.699999999999932 17.5 17.5 17.5 17.5s-1.5999999999999943 22 14.300000000000011 36.5c12.899999999999977 11.799999999999955 27.399999999999977 19.5 36.89999999999998 27.899999999999977 9.600000000000023 8.600000000000023 16.80000000000001 15.399999999999977 37.60000000000002 19.399999999999977 12 2.2999999999999545 19.399999999999977 21.700000000000045 44.39999999999998 20.299999999999955 27.19999999999999-1.599999999999909 27.100000000000023-0.5 44.400000000000034-7.5 27.899999999999977-11.399999999999977 40.39999999999998-65.5 52.19999999999999-117.59999999999991 9.399999999999977-40.80000000000007 16.5-66.20000000000005 28.80000000000001-74.80000000000007-3.5 23.899999999999977 1.6999999999999886 63.60000000000002 1.6999999999999886 63.60000000000002s-3.8000000000000114 20.399999999999977-0.30000000000001137 23.899999999999977c-1.6000000000000227 10.5 1.6000000000000227 24.800000000000068 3.3999999999999773 24.399999999999977 0.7000000000000455 8.600000000000023 5.2000000000000455 24.100000000000023 11.5 24.100000000000023s10.800000000000011-15.600000000000023 11.400000000000034-24.100000000000023c1.8000000000000114 0.40000000000009095 4.999999999999943-14 3.400000000000034-24.399999999999977 3.5-3.5-0.3000000000000682-23.899999999999977-0.3000000000000682-23.899999999999977s4.800000000000068-37.299999999999955 1.6000000000000227-64.20000000000005c11 5.600000000000023 19.600000000000023 34.40000000000009 28.899999999999977 75.30000000000007 11.899999999999977 52.19999999999993 24.399999999999977 106.19999999999993 52.30000000000007 117.60000000000002 17.299999999999955 7.099999999999909 17.199999999999932-0.10000000000002274 44.39999999999998 1.3999999999999773 25.100000000000023 1.3999999999999773 32.39999999999998-22.300000000000068 44.39999999999998-24.5 20.799999999999955-3.8999999999999773 27.899999999999977-10.700000000000045 37.60000000000002-19.300000000000068 9.5-8.399999999999977 24-16.09999999999991 36.89999999999998-27.899999999999977 15.799999999999955-14.600000000000023 14.299999999999955-36.5 14.299999999999955-36.5s14-7.899999999999977 17.600000000000023-17.5c3.8999999999999773-10.699999999999932 0.39999999999997726-19.299999999999955 9.300000000000068-29 7.899999999999977-8.600000000000023 12-20 11.099999999999909-31.5-0.6999999999999318-9.299999999999955 4.300000000000068-16.5 4.300000000000068-36.5 0-12.899999999999977-9.200000000000045-31.899999999999977-20.800000000000068-53.69999999999993-12.899999999999977-24.400000000000034-24.899999999999977-38.30000000000007-47.299999999999955-47.30000000000007-21.5-8.599999999999966-20-20.099999999999966-20-20.099999999999966s63.89999999999998 19.399999999999977 96.70000000000005 8.599999999999966c35.69999999999993-11.699999999999989 48.69999999999993-58.69999999999999 55.89999999999998-90.19999999999999 5-22.099999999999966 7.899999999999977-44.39999999999998 21.5-63.69999999999999 18.399999999999977-26.19999999999999 38.19999999999993-71 33.799999999999955-85.4z"/>
</svg>
