<svg xmlns="http://www.w3.org/2000/svg" viewBox="0 0 1000 1000" width="1000" height="1000">
<path d="M456.2 791.7c5.199999999999989 31.199999999999932-0.0999999999999659 61.19999999999993-11 90.39999999999998-6.599999999999966 17.399999999999977-13.5 34.60000000000002-25 49.39999999999998-2 2.5-3.8999999999999773 6.600000000000023-7.800000000000011 5.899999999999977-3.8999999999999773-0.7999999999999545-3.7999999999999545-5.199999999999932-4.7999999999999545-8.399999999999977-9.5-31.700000000000045-19.80000000000001-63.10000000000002-33.400000000000034-93.29999999999995-17.69999999999999-39-44.30000000000001-71.70000000000005-73.80000000000001-101.90000000000009-24.899999999999977-25.5-49.69999999999999-51-67.39999999999998-82.19999999999993-48-84.60000000000002-47.5-170.60000000000002-7.599999999999994-257.70000000000005 6.400000000000006-14 13.599999999999994-27.5 22.900000000000006-39.89999999999998 4.099999999999994-5.5 8.800000000000011-10.600000000000023 14.300000000000011-14.800000000000011 2.5-1.8000000000000114 5.2999999999999545-4.899999999999977 8.299999999999955-3.599999999999966 3.3000000000000114 1.5 1.1000000000000227 5.7999999999999545 1.900000000000034 8.099999999999966-1.1000000000000227 20.19999999999999-5.5 39.400000000000034-7.900000000000034 58.80000000000001-5.399999999999977 43.89999999999998-9.199999999999989 87.80000000000001 8.800000000000011 130.10000000000002 12.100000000000023 28.399999999999977 31.5 52.10000000000002 51.69999999999999 75 26.900000000000034 30.699999999999932 57.60000000000002 58.10000000000002 83.30000000000001 89.89999999999998 22.69999999999999 28.100000000000023 41.30000000000001 58.10000000000002 47.5 94.20000000000005z m11.199999999999989-230.4000000000001c-6.5-36.09999999999991-22.5-68.19999999999993-41.69999999999999-98.89999999999998-16.30000000000001-25.799999999999955-33.69999999999999-50.799999999999955-47.69999999999999-78-14.899999999999977-28.69999999999999-27.399999999999977-58-24.80000000000001-91.5 0.19999999999998863-2.8999999999999773-0.39999999999997726-5.7999999999999545-0.8999999999999773-8.699999999999989-0.6000000000000227-3.599999999999966-0.4000000000000341-8.300000000000011-4.800000000000011-9.099999999999966-3.8000000000000114-0.6000000000000227-6.600000000000023 2.6999999999999886-8.899999999999977 5.7999999999999545-31.700000000000045 42-43.80000000000001 89.30000000000001-37.10000000000002 141.5 4.399999999999977 34.10000000000002 19 64.20000000000005 38 92.39999999999998 19.899999999999977 29.5 43.39999999999998 56.30000000000007 63.5 85.60000000000002 23.399999999999977 34.10000000000002 43.30000000000001 69.70000000000005 46.5 112.39999999999998 0.30000000000001137 3.300000000000068-0.39999999999997726 9.700000000000045 4 9.900000000000091 5 0.2999999999999545 5.199999999999989-5.900000000000091 6.199999999999989-9.900000000000091 9.5-37.89999999999998 11.699999999999989-76.39999999999998 11-112.29999999999995-1.099999999999966-14.799999999999955-1.099999999999966-27-3.3000000000000114-39.200000000000045z m-0.19999999999998863-243.69999999999993c-7.300000000000011-24-12.599999999999966-47.80000000000001-3.8000000000000114-72.30000000000001 8.300000000000011-23 8.200000000000045-45.10000000000002-0.7999999999999545-66.5l-1.7000000000000455-3.8000000000000114-1-2.1999999999999886c-7.7999999999999545-13.400000000000006-31.399999999999977-13.200000000000017-46.39999999999998-11.600000000000023 7.699999999999989 19.900000000000006 7.800000000000011 40.10000000000002-0.6999999999999886 60.70000000000002-3 7.299999999999983-6 14.699999999999989-9.199999999999989 22-7.900000000000034 18.200000000000017-10.900000000000034 37.29999999999998-8.200000000000045 56.79999999999998 4.900000000000034 35.19999999999999 15.700000000000045 68.5 33.10000000000002 99.69999999999999 13.399999999999977 24.100000000000023 25.100000000000023 49 31.69999999999999 76 2.5 10.5 5.600000000000023 21 8.800000000000011 31.30000000000001 1.8999999999999773 6.000000000000057 4.899999999999977 6.300000000000011 9 1.6000000000000227 1.6000000000000227-1.8000000000000114 3-3.8000000000000114 3.8999999999999773-5.900000000000034 12.700000000000045-29 18.100000000000023-59.099999999999966 12.100000000000023-90.69999999999999-6.100000000000023-32.80000000000001-17.19999999999999-63.69999999999999-26.80000000000001-95.09999999999997z m-282-2.5c7.300000000000011 4.699999999999989 14.300000000000011 10.099999999999966 21.700000000000017 14.799999999999955 7.900000000000006 4.900000000000034 16.400000000000006 8.600000000000023 25.299999999999983 11.300000000000011 2.6000000000000227 0.8000000000000114 5.900000000000006 1.900000000000034 8.300000000000011-0.39999999999997726 2.4000000000000057-2.400000000000034 1-5.400000000000034 0-8.100000000000023-1.6999999999999886-4.699999999999989-3.4000000000000057-9.399999999999977-4.800000000000011-14.300000000000011-2.0999999999999943-7.2999999999999545-4-14.899999999999977 2.3000000000000114-20.899999999999977 6.099999999999994-5.899999999999977 13.599999999999994-4.600000000000023 21-2.3999999999999773 5.800000000000011 1.7999999999999545 11.5 3.7999999999999545 17.5 5.199999999999989 12.300000000000011 3.099999999999966 19.399999999999977-2.400000000000034 19.80000000000001-15.400000000000034 0.19999999999998863-7.399999999999977-0.4000000000000341-15 0-22.299999999999955 0.5-9.400000000000034 4.599999999999966-12.200000000000017 13.599999999999966-9.200000000000017 6.5 2.0999999999999943 12.900000000000034 4.599999999999994 19.30000000000001 7.099999999999994 10.699999999999989 4.100000000000023 14.199999999999989 2.8000000000000114 17.80000000000001-8.099999999999994 2.5-8 4.100000000000023-16.400000000000006 6.300000000000011-24.599999999999994 1.8000000000000114-6.900000000000006 3.8999999999999773-7.700000000000017 9.699999999999989-3.4000000000000057 4.5 3.299999999999983 8.399999999999977 7.299999999999983 12.800000000000011 10.699999999999989 7.399999999999977 5.900000000000006 9.399999999999977 5.5 13.599999999999966-2.799999999999983 7-13.700000000000017 9.200000000000045-28.600000000000023 9-43.900000000000006 0-5.200000000000017 0.30000000000001137-10.599999999999994-0.0999999999999659-15.900000000000006-0.5-8.599999999999994-3-10.300000000000011-11.5-9-12.600000000000023 2-24.80000000000001 5.900000000000006-36.19999999999999 11.400000000000006-56.80000000000001 27-108.00000000000003 61.900000000000006-150.90000000000003 108.20000000000002-6.099999999999994 6.599999999999966-12.199999999999989 13.199999999999989-16.799999999999983 21.19999999999999-2.4000000000000057 4.300000000000011-2.5 7.699999999999989 2.299999999999983 10.800000000000011z m11.200000000000017 71.5c-2.9000000000000057-19.30000000000001-9.5-37.400000000000034-20.599999999999994-53.60000000000002-5.600000000000023-8.300000000000011-14.900000000000006-9.899999999999977-21.900000000000006-3.3000000000000114-10.599999999999994 10-20 21.19999999999999-28.700000000000003 32.80000000000001-5.1000000000000085 6.699999999999989-3.9000000000000057 10.899999999999977 3.700000000000003 14.699999999999989 17.799999999999983 8.699999999999989 36.69999999999999 13 56.79999999999998 16 3.1000000000000227-2.8999999999999773 12.200000000000017 3.5 10.700000000000017-6.599999999999966z m657 30.899999999999977c-4.399999999999977-5.199999999999989-8.799999999999955-10.300000000000011-13.600000000000023-15.300000000000011-71.19999999999993-73.30000000000001-142.69999999999993-146.39999999999998-213.79999999999995-219.79999999999998-13.799999999999955-14.300000000000011-27.200000000000045-28.700000000000017-49.89999999999998-25.700000000000017-5.7000000000000455 0.8000000000000114-9.100000000000023-1.0999999999999943-10.800000000000068-7.599999999999994-8.699999999999932-34.5-34.59999999999991-55.19999999999999-60.299999999999955-76.8-17.100000000000023-14.299999999999997-27-13.899999999999999-33.5 8.299999999999997-4 13.800000000000011-9.800000000000011 27.400000000000006-12.100000000000023 41.5-3.7999999999999545 23.5 1.1000000000000227 45.900000000000006 16.400000000000034 64.80000000000001 3.5 4.299999999999983 7.599999999999966 10.699999999999989 14.5 7.5 5.5-2.5 3.099999999999966-8.900000000000006 3.5-13.599999999999994 1.8000000000000114-22.600000000000023 3.3999999999999773-45.10000000000002 5.300000000000011-71.20000000000002 23.5 15.300000000000011 30.600000000000023 33.20000000000002 26.699999999999932 56.30000000000001-2.7999999999999545 16.400000000000006-12.099999999999909 29.69999999999999-20.399999999999977 43.599999999999994-11.5 19.80000000000001-24 39.30000000000001-28.69999999999999 65.10000000000002 15.199999999999989-5 21.900000000000034-14.300000000000011 30.100000000000023-21.400000000000034 19.900000000000034-17.299999999999983 38.80000000000001-36 61.30000000000001-50 9.399999999999977-5.899999999999977 19.600000000000023-12 30.100000000000023-1.799999999999983 38.69999999999993 37.69999999999999 77.39999999999998 75.6 120 117.20000000000002-47.700000000000045 9.899999999999977-87.60000000000002 18.19999999999999-127.40000000000009 26.69999999999999-30.799999999999955 6.599999999999966-45.299999999999955 20.899999999999977-49.299999999999955 50.69999999999999-3.8999999999999773 29.69999999999999 4.7999999999999545 57.19999999999999 17.100000000000023 83.89999999999998 2.8999999999999773 6.400000000000034 7.399999999999977 8.5 13.799999999999955 8.900000000000034 15.200000000000045 1 30.399999999999977 2.3000000000000114 47.39999999999998 3.599999999999966-7.099999999999909-28-19.199999999999932-52.69999999999999-21.59999999999991-79.79999999999995-1.8000000000000682-19.900000000000034 0.39999999999997726-38.200000000000045 23-45.60000000000002 33.299999999999955-10.800000000000011 68.19999999999993-14.5 102.69999999999993-19.5 5.7000000000000455-0.8000000000000114 10.800000000000068 0.5 12.200000000000045 6.300000000000011 1.1000000000000227 5.199999999999989-1.8999999999999773 10.099999999999966-7.300000000000068 12.099999999999966-12.799999999999955 4.600000000000023-25.699999999999932 8.800000000000011-38.69999999999993 12.900000000000034-55.10000000000002 17.19999999999999-60.30000000000007 27-44.200000000000045 84.19999999999999 1.6000000000000227 5.699999999999989 3.8999999999999773 11.300000000000011 5.100000000000023 17.100000000000023 3.8999999999999773 20.099999999999966 22.399999999999977 16.899999999999977 32.700000000000045 14.899999999999977 12.899999999999977-2.5 2.3999999999999773-14.899999999999977 0.599999999999909-22.69999999999999-2.199999999999932-9.900000000000034-5.099999999999909-19.900000000000034-8.599999999999909-29.400000000000034-6.900000000000091-19.19999999999999-1-32.299999999999955 18.799999999999955-36.69999999999999 26.5-5.899999999999977 53.39999999999998-10.399999999999977 80.10000000000002-15.099999999999966 5.5-1 13-1.400000000000034 14.5 6.5 1.2999999999999545 6.699999999999989-4 11.5-9.5 13.599999999999966-12.600000000000023 4.900000000000034-25.600000000000023 8.800000000000011-38.60000000000002 12.699999999999989-27.200000000000045 8.300000000000011-31.899999999999977 20.30000000000001-25.600000000000023 48.10000000000002 8.800000000000068 39 40.60000000000002 44.200000000000045 71 51.60000000000002 29.5 7.2999999999999545 65.10000000000002-11.300000000000068 84.20000000000005-41.200000000000045 17.899999999999977-28-1.1000000000000227-45.89999999999998-17.200000000000045-64.89999999999998z m-196.39999999999998-125.5c1.1000000000000227-16.80000000000001-9.600000000000023-24.19999999999999-25.899999999999977-24.80000000000001-15.700000000000045 1.1000000000000227-29 6.5-29.399999999999977 24.80000000000001-0.40000000000009095 15.199999999999989 9.199999999999932 23.30000000000001 24.399999999999977 23.30000000000001 15.799999999999955-0.10000000000002274 29.600000000000023-5.100000000000023 30.899999999999977-23.30000000000001z"/>
</svg>
