<svg xmlns="http://www.w3.org/2000/svg" viewBox="0 0 1000 1000" width="1000" height="1000">
<path d="M918.3 422.9c-3.199999999999932-10.799999999999955-13.399999999999977-8.199999999999989-22.09999999999991-5.7999999999999545-10.900000000000091 3.1999999999999886-7.600000000000023 10-5.300000000000068 17.299999999999955 7.100000000000023 22.100000000000023 13 44.400000000000034 12.5 67.90000000000003-0.5 30.999999999999943-18.600000000000023 49.099999999999966-49.299999999999955 50.49999999999994-50 2-103.89999999999998-30.799999999999955-125.70000000000005-76.09999999999997-22.699999999999932-46.89999999999998-21.799999999999955-97.89999999999998-24.5-147.8-4.699999999999932-85.39999999999998-46.39999999999998-135.2-125.79999999999995-145.49999999999997-76.30000000000001-9.800000000000011-152.20000000000005-5.900000000000006-226.8 12.199999999999989-104 25.099999999999994-179.9 83.6-208.4 190.6-7.800000000000011 29.30000000000001-24.400000000000006 45.400000000000034-48.7 57.5-7.700000000000003 3.900000000000034-15.799999999999997 7-23.799999999999997 9.800000000000011-8.300000000000004 3-8.800000000000004 8.800000000000011-7.300000000000004 15.899999999999977 1.8000000000000043 8.800000000000011 7.100000000000001 10.300000000000011 14.800000000000004 7.600000000000023 15.599999999999994-5.300000000000011 31.19999999999999-10.699999999999989 48.19999999999999-16.5-9 116.10000000000002 4.700000000000017 229.20000000000005 16.599999999999994 342.5 1.200000000000017 11.799999999999955 6.300000000000011 15.299999999999955 17 17 25.900000000000006 4.100000000000023 51.5 0.5 77.30000000000001-1.1000000000000227 27.899999999999977-1.6999999999999318 28.600000000000023-1.2999999999999545 28.600000000000023-30 0-43.69999999999993 1.7999999999999545-87.39999999999998 4.2999999999999545-131.10000000000002 2.2000000000000455-37.89999999999998 20.600000000000023-61.39999999999998 56.30000000000001-72.89999999999998 22.100000000000023-7.100000000000023 44.69999999999999-7.899999999999977 66.90000000000003-4.600000000000023 62.69999999999999 9.200000000000045 102.09999999999997 34.5 114.69999999999999 99.70000000000005 6.800000000000011 35.700000000000045 12.699999999999989 71.60000000000002 17.80000000000001 107.5 4.5 31.399999999999977 3.7999999999999545 31.5 36 33.5 20.600000000000023 1.2000000000000455 40.89999999999998 0.39999999999997726 61.5-1.7999999999999545 11.299999999999955-1.2000000000000455 15.699999999999932-5.300000000000068 17.299999999999955-16.700000000000045 10.100000000000023-67.39999999999998 16.600000000000023-135.20000000000005 22.899999999999977-202.89999999999998 2.5-26.300000000000068 1.8000000000000682-26.5 27.700000000000045-18.800000000000068 54.700000000000045 16.100000000000023 109.5 31.300000000000068 167.5 27.5 37-2.3999999999999773 61.60000000000002-18.899999999999977 72.5-51.39999999999998 15.5-46.599999999999966 0.5-90.39999999999998-12.700000000000045-134z m-424.49999999999994-111.09999999999997c-5 33.599999999999966-2.400000000000034 66.39999999999998 6.099999999999966 99.19999999999999-17-29.19999999999999-17.599999999999966-60.69999999999999-13.399999999999977-92.60000000000002 2.3999999999999773-18.19999999999999 7.399999999999977-36.299999999999955 18.5-51.69999999999999 11.100000000000023-15.5 24.399999999999977-25.899999999999977 44.39999999999998-20.799999999999983-31 2.799999999999983-49.599999999999966 25.799999999999983-55.599999999999966 65.9z m157.40000000000003 38c-12.300000000000068-0.6999999999999886-10.700000000000045-11.199999999999989-11.300000000000068-19.5-0.39999999999997726-6.300000000000011 1-11.900000000000034 9-13 8.100000000000023 3.3000000000000114 12.399999999999977 9.5 11.899999999999977 18.19999999999999-0.1999999999999318 6.5-0.39999999999997726 14.800000000000011-9.599999999999909 14.300000000000011z"/>
</svg>
