<svg xmlns="http://www.w3.org/2000/svg" viewBox="0 0 1000 1000" width="1000" height="1000">
<path d="M851.1 194.7c-5.2000000000000455 1.1000000000000227-9.800000000000068 2.700000000000017-13.800000000000068 5.800000000000011-3.099999999999909 2.5-6 2.0999999999999943-8.5-0.4000000000000057-17.09999999999991-16.299999999999983-38.19999999999993-16.599999999999994-60.09999999999991-17.5-22.90000000000009-0.9000000000000057-41.30000000000007 2.4000000000000057-58.60000000000002 20.30000000000001-34.5 35.599999999999994-71.5 68.70000000000002-102.60000000000002 107.70000000000002-25.399999999999977 31.799999999999955-50.89999999999998 63.5-75.29999999999995 96.19999999999999-9.800000000000068 13.099999999999966-14.700000000000045 27.30000000000001-5.600000000000023 43.30000000000001 2.699999999999932 4.599999999999966 4 10.099999999999966 5.899999999999977 15.099999999999966 6.399999999999977 17.69999999999999 8.200000000000045 34.30000000000001-3.6000000000000227 51.400000000000034-9.600000000000023 13.899999999999977-12.899999999999977 31-16.699999999999932 47.299999999999955-9.500000000000057 40.60000000000002-19.700000000000045 81-21.900000000000034 122.80000000000007-1.8000000000000114 34.59999999999991-4.699999999999989 69.19999999999993-1.6000000000000227 103.79999999999995 1.6999999999999886 18.700000000000045 4.400000000000034 37.299999999999955 8.100000000000023 55.60000000000002 2.8000000000000114 14.100000000000023 10.599999999999966 26.399999999999977 20.69999999999999 36.89999999999998 5.2999999999999545 5.399999999999977 14.299999999999955 13.100000000000023 11.200000000000045 18.100000000000023-3.5 5.5-14.800000000000068 5-23.000000000000057 4.399999999999977-3.5-0.20000000000004547-6.800000000000011-1.2000000000000455-10.199999999999989-2-3.5-0.8999999999999773-5.5-2.7999999999999545-4.800000000000011-6.7999999999999545 3.400000000000034-18.100000000000023-3.1999999999999886-33.700000000000045-12.099999999999966-48.700000000000045-1.6000000000000227-2.7000000000000455-2-5.2000000000000455-2.1000000000000227-8.100000000000023-1.3000000000000114-43-7.100000000000023-85.60000000000002-12.699999999999989-128.10000000000002-0.4000000000000341-2.5-0.4000000000000341-5.099999999999909-4.400000000000034-8.299999999999955v120.39999999999998c0 10.100000000000023 0.10000000000002274 20.399999999999977 0.20000000000004547 30.5 0.19999999999998863 26.899999999999977 15.5 44.700000000000045 35.89999999999998 59.200000000000045 6.600000000000023 4.699999999999932 13.800000000000011 11.699999999999932 11.100000000000023 18.199999999999932-2.6000000000000227 6.600000000000023-13 5.7000000000000455-20.5 5.400000000000091-3.5-0.20000000000004547-7-0.5-10.400000000000034-1.3000000000000682-9.300000000000011-2.1000000000000227-17-5.5-20.30000000000001-16-3.2999999999999545-10.399999999999977-6.399999999999977-21.5-17.899999999999977-26.899999999999977-3.3000000000000114-1.5-2.1999999999999886-4.7999999999999545-1.8999999999999773-7.7000000000000455 5.2999999999999545-41.59999999999991 3.3999999999999773-83.09999999999991-4.5-124.19999999999993-8.400000000000034-43.10000000000002-14.200000000000045-86.5-17.900000000000034-130.20000000000005-1-11.899999999999977-4.399999999999977-23.799999999999955-6.899999999999977-35.5-0.9000000000000341-4.199999999999932-3-6.2999999999999545-8.100000000000023-5.5-19.80000000000001 3.2000000000000455-39.80000000000001 4.600000000000023-59.599999999999966-0.1999999999999318-3.6000000000000227-0.900000000000091-5.800000000000011 0.5-6.600000000000023 4.699999999999932-5.300000000000011 29.700000000000045-19.69999999999999 55.200000000000045-36.89999999999998 79.60000000000002-7.400000000000034 10.399999999999977-12.100000000000023 22.399999999999977-14.100000000000023 35.10000000000002-5.199999999999989 31-4 62 1.8999999999999773 93 2.7000000000000455 14.100000000000023 7.400000000000034 27.600000000000023 10.800000000000011 41.5 4.400000000000034 18.100000000000023 14.100000000000023 32.60000000000002 28.19999999999999 44 5.900000000000034 4.7999999999999545 3 7-0.5 9.699999999999932-6 4.400000000000091-27 2.900000000000091-32-2.199999999999932-1-1-1.599999999999966-2.800000000000068-1.599999999999966-4.300000000000068-0.19999999999998863-12.299999999999955-6-22.5-11.300000000000011-33-5.5-11.099999999999909-5.699999999999989-23.399999999999977-6.800000000000011-35.299999999999955-1.3999999999999773-15.899999999999977-3.6999999999999886-31.600000000000023-7.699999999999989-47-5.199999999999989-20.5-6.300000000000011-41.5-7.800000000000011-62.39999999999998-0.6999999999999886-9.700000000000045 3.6000000000000227-19.200000000000045 7.699999999999989-28.100000000000023 5.300000000000011-11.700000000000045 3.7000000000000455-23.100000000000023 0.10000000000002274-36.60000000000002-7.599999999999994 14.399999999999977-12.699999999999989 27-15.900000000000006 40.80000000000007-2.799999999999983 12.5-4.099999999999994 24.899999999999977-3.299999999999983 37.59999999999991 0.19999999999998863 2.5 0.39999999999997726 5.400000000000091-0.8000000000000114 7.400000000000091-9 15.699999999999932-8.5 32.89999999999998-8.699999999999989 50.09999999999991-0.20000000000001705 24.200000000000045-0.700000000000017 48.40000000000009-1.200000000000017 72.60000000000002-0.09999999999999432 2.5 0.20000000000001705 6.300000000000068-1.1999999999999886 7.2000000000000455-9 5.899999999999977-3.5 10.899999999999977 0.4000000000000057 16 5.899999999999977 7.699999999999932 4.099999999999994 16.299999999999955 3.5999999999999943 24.799999999999955-0.09999999999999432 2-1.8000000000000114 3.1000000000000227-3.5999999999999943 4-13.900000000000006 7.300000000000068-27.600000000000023-0.10000000000002274-27.600000000000023-15.799999999999955-0.09999999999999432-20.399999999999977 2.8000000000000114-40.700000000000045 5.400000000000006-60.80000000000007 5.400000000000006-43 9.5-85.89999999999998 6.599999999999994-129.29999999999995-0.799999999999983-11.899999999999977 1.4000000000000057-23.5 2.9000000000000057-35 4.400000000000006-34.10000000000002 2.8000000000000114-67.70000000000005-5.799999999999983-101.89999999999998-19.5 22.899999999999977-24.30000000000001 51.10000000000002-34.20000000000002 78.10000000000002-1.4000000000000057-2.800000000000068-2.6999999999999886-5.2000000000000455-4.699999999999989-9.100000000000023-19.099999999999994 30.399999999999977-23.099999999999994 63.5-25.5 99.89999999999998-11.700000000000017-41.5-10.599999999999994-78.70000000000005 11.699999999999989-113.89999999999998 14.300000000000011-22.5 30.599999999999994-43.700000000000045 41.400000000000006-68.39999999999998 8.400000000000006-19.200000000000045 14.699999999999989-39.10000000000002 21.5-58.900000000000034 10.800000000000011-31 28.400000000000006-55.60000000000002 59.19999999999999-69.69999999999999 28.600000000000023-13 57.69999999999999-25 86.60000000000002-37.30000000000001 13.300000000000011-5.699999999999989 25.899999999999977-12.800000000000011 32.599999999999966-26.19999999999999 10.100000000000023-20 28-32.400000000000034 45.400000000000034-44 31.5-21.100000000000023 61.5-43.900000000000034 91.49999999999994-66.80000000000001 42.60000000000002-32.5 78.70000000000005-72.30000000000001 121.5-104.5 15.100000000000023-11.400000000000006 29.40000000000009-24.500000000000014 47.700000000000045-31.000000000000014 5.100000000000023-1.8999999999999915 2.8999999999999773-4.3999999999999915 1.2999999999999545-7.299999999999997-4.899999999999977-9.200000000000003-7.899999999999977-18.599999999999994-7-29.200000000000003 0.8000000000000682-9.299999999999997 3-10.299999999999997 11.200000000000045-5.3999999999999915 7.5 4.3999999999999915 11.799999999999955 11.199999999999989 15.700000000000045 18.599999999999994 2.199999999999932 4.200000000000003 14.5 4.799999999999997 16.699999999999932 0.9000000000000057 1.3000000000000682-2.3000000000000114-0.39999999999997726-4.700000000000003-1.6999999999999318-6-6.300000000000068-6.6000000000000085-7.2000000000000455-15.400000000000006-10.5-23.300000000000004 18.59999999999991-1.8000000000000043 34.299999999999955 8.499999999999993 41.39999999999998 27.6 2 5.200000000000003 4.600000000000023 8.299999999999997 10 11.099999999999994 11.299999999999955 6 23 11.5 27.699999999999932 26.5 3.300000000000068 10.700000000000003 15.5 16.299999999999997 24.300000000000068 23.60000000000001 10.100000000000023 8.299999999999983 17 18.900000000000006 21.699999999999932 30.799999999999983 2.900000000000091 6.600000000000023-1 11.300000000000011-7.199999999999932 12.5z"/>
</svg>
