<svg xmlns="http://www.w3.org/2000/svg" viewBox="0 0 1000 1000" width="1000" height="1000">
<path d="M937.5 239.3v13.699999999999989c-3.7999999999999545 11.300000000000011-4.899999999999977 23.19999999999999-9 34.39999999999998-15.200000000000045 41.10000000000002-43.799999999999955 71.5-78.29999999999995 96.70000000000005-44.200000000000045 32.19999999999999-93.60000000000002 53.39999999999998-145.80000000000007 68.69999999999999-4.600000000000023 1.3999999999999773-9.299999999999955 2.8000000000000114-16.299999999999955 4.899999999999977 16.600000000000023 1.6000000000000227 30.5-0.0999999999999659 44.19999999999993-2.1999999999999886 48.5-7.600000000000023 91.60000000000002-27.899999999999977 131.4000000000001-55.89999999999998 17-12 33.5-24.600000000000023 50.299999999999955-36.80000000000001 2.3999999999999773-1.8000000000000114 5.600000000000023-4.199999999999989 8.5-1.8000000000000114 2.3999999999999773 2 1.2999999999999545 5.300000000000011 0.5 8.100000000000023-3.5 12.199999999999989-7.2000000000000455 24.5-10.600000000000023 36.799999999999955-8.799999999999955 31.400000000000034-25 57.30000000000001-52.799999999999955 75.90000000000003-42.200000000000045 28.19999999999999-88.80000000000007 34.599999999999966-137.89999999999998 29.599999999999966-12-1.1999999999999886-23.90000000000009-3.3999999999999773-38.10000000000002-5.5 3.1000000000000227 1.8000000000000114 4.199999999999932 2.7000000000000455 5.399999999999977 3.2000000000000455 31.700000000000045 14.100000000000023 64.79999999999995 18.600000000000023 99.10000000000002 14.699999999999932 17.199999999999932-1.8999999999999773 34.299999999999955-5.199999999999932 51.5-7.399999999999977 7.600000000000023-1 9.899999999999977 2.1000000000000227 6 7.899999999999977-10.399999999999977 15.5-22.800000000000068 30.5-38.60000000000002 39.200000000000045-34.89999999999998 19.600000000000023-71.60000000000002 19.899999999999977-107.39999999999998 0.2999999999999545-9.5-5.199999999999932-17.800000000000068-12-27-17.699999999999932 9.5 19.5 23.899999999999977 33.89999999999998 43 43.19999999999993 9.600000000000023 4.7000000000000455 19.899999999999977 8.400000000000091 29.799999999999955 12.600000000000023 1.8000000000000682 0.8000000000000682 4 1.3999999999999773 4.2000000000000455 3.800000000000068 0.1999999999999318 2.2999999999999545-1.8000000000000682 3.3999999999999773-3.6000000000000227 4.2999999999999545-7.7999999999999545 4.100000000000023-15.299999999999955 9.200000000000045-23.5 11.899999999999977-18.600000000000023 6.2000000000000455-36.799999999999955 5.5-53.5-6.699999999999932-9.700000000000045-7.100000000000023-14.100000000000023-18-20-28.100000000000023-2.8999999999999773 3-1.5 5.899999999999977-1.1000000000000227 8.5 1.1000000000000227 8.899999999999977 5.100000000000023 16.799999999999955 9.300000000000068 24.5 11.299999999999955 20.699999999999932 9.199999999999932 25.799999999999955-13.400000000000091 32.299999999999955-17.5 5-32.799999999999955-2.3999999999999773-39.799999999999955-19.399999999999977-0.6000000000000227-1.5-0.39999999999997726-4-3.1000000000000227-4.2000000000000455-1.8999999999999773 8.400000000000091 3.1000000000000227 15 5.600000000000023 22 2.1000000000000227 5.900000000000091 0.2999999999999545 9.300000000000068-4.899999999999977 11.700000000000045-3.3999999999999773 1.7000000000000455-7.100000000000023 1.7999999999999545-10.800000000000068 2.3999999999999773-6.699999999999932 1-13.799999999999955 0.6000000000000227-20.5 3.800000000000068 4 6 8.800000000000068 10 13.600000000000023 13.899999999999977 15 12.600000000000023 30.200000000000045 25.199999999999932 45.5 37.39999999999998 4.5 3.6000000000000227 4.5 6 0.5 9.899999999999977-8.600000000000023 8.399999999999977-18.799999999999955 12.600000000000023-30.5 13.5-12.799999999999955 0.8999999999999773-25 1.8999999999999773-35.5 11.100000000000023-6 5.2000000000000455-14.299999999999955 7.2999999999999545-22.299999999999955 7.399999999999977-12.600000000000023 0.39999999999997726-24.100000000000023 5.800000000000068-36.5 7.2000000000000455h-17.100000000000023c-8.300000000000011-2.3999999999999773-16.600000000000023-6.2000000000000455-25.100000000000023-6.7000000000000455-13.399999999999977-0.7999999999999545-25.19999999999999-4.100000000000023-35.299999999999955-12.899999999999977-3.900000000000034-3.3999999999999773-7.900000000000034-4.600000000000023-13.100000000000023-4.2000000000000455-17.600000000000023 1.5-32.10000000000002-5.399999999999977-45.10000000000002-16.699999999999932-3.5-3.1000000000000227-3.599999999999966-4.899999999999977 0.20000000000004547-7.800000000000068 10.199999999999989-7.7999999999999545 20.299999999999955-15.699999999999932 30-24 10.199999999999989-8.799999999999955 21.19999999999999-17.09999999999991 30.799999999999955-28.5-8.099999999999966-0.8999999999999773-15-1.099999999999909-21.5-2.5-15.099999999999966-3.099999999999909-16.899999999999977-6.5-12.099999999999966-21 1.8000000000000114-5.599999999999909 4.099999999999966-11.199999999999932 1.5-18.899999999999977-9 29.100000000000023-34.60000000000002 32.60000000000002-53.10000000000002 23.300000000000068-9.5-4.800000000000068-11.699999999999989-10.5-7.399999999999977-20.100000000000023 3.099999999999966-7 7.199999999999989-13.600000000000023 10.099999999999966-20.600000000000023 2.900000000000034-6.899999999999977 5.7000000000000455-14 3-23.399999999999977-3.099999999999966 5.600000000000023-5.5 10.100000000000023-8 14.299999999999955-10.099999999999966 17.200000000000045-25.299999999999955 25.5-45.099999999999966 26-15.800000000000011 0.39999999999997726-29.30000000000001-6-42.10000000000002-14.199999999999932-2.299999999999983-1.5-6-2.300000000000068-5.599999999999994-5.7000000000000455 0.30000000000001137-3.3999999999999773 4.099999999999994-3.5 6.599999999999994-4.5 15.699999999999989-6 31.400000000000034-11.899999999999977 44.60000000000002-22.700000000000045 10.899999999999977-8.899999999999977 20.399999999999977-19.199999999999932 26.599999999999966-33.09999999999991-1.599999999999966 0.39999999999997726-1.8999999999999773 0.39999999999997726-2.099999999999966 0.39999999999997726-1.3000000000000114 1-2.6000000000000227 2.1000000000000227-3.900000000000034 3.199999999999932-19.599999999999966 15.900000000000091-41.5 26.700000000000045-67.09999999999997 28.700000000000045-41.400000000000006 3.2000000000000455-72-15.700000000000045-96.5-47.10000000000002-2.8000000000000114-3.6000000000000227-8.100000000000023-7.899999999999977-5-12.5 2.8999999999999773-4.199999999999932 8.899999999999977-1.7999999999999545 13.599999999999994-0.8999999999999773 31.400000000000006 5.899999999999977 62.79999999999998 10.799999999999955 94.9 5.899999999999977 18.30000000000001-2.699999999999932 35.89999999999998-7.5 54.19999999999999-16.899999999999977-3.3999999999999773 0-4.800000000000011-0.30000000000001137-6 0-21.19999999999999 4.800000000000011-42.60000000000002 7-64.30000000000001 6.600000000000023-39-0.5-75.29999999999998-9.800000000000011-107.5-32.80000000000001-13.999999999999986-10-27.999999999999986-21.100000000000023-35.499999999999986-36.30000000000001-11.700000000000003-23.899999999999977-20.10000000000001-49.39999999999998-26.10000000000001-75.5-0.5-2.5-1.5-5.399999999999977 0.8000000000000114-7.300000000000011 2.6999999999999886-2.099999999999966 5.5-0.0999999999999659 7.799999999999997 1.5 6.799999999999997 4.600000000000023 13.5 9.400000000000034 20 14.5 45.999999999999986 35.60000000000002 94.8 65.69999999999999 153.2 77 18.30000000000001 3.6000000000000227 40.60000000000002 5.5 51.400000000000034 3-3.1000000000000227-1-5.800000000000011-1.8000000000000114-8.5-2.5-62.80000000000001-18.19999999999999-122-43.69999999999999-172.10000000000002-86.89999999999998-25.499999999999986-22-45.79999999999998-48.10000000000002-57.69999999999999-80.10000000000002-4.200000000000003-11.199999999999989-5.299999999999997-23.099999999999966-9.100000000000001-34.39999999999998v-13.700000000000017c1.3999999999999986-1 3.3000000000000043-1.5999999999999943 4.100000000000001-2.9000000000000057 4.799999999999997-7.599999999999994 11.099999999999994-6 17.700000000000003-3.1999999999999886l4.599999999999994 2.1999999999999886c24.900000000000006 11.600000000000023 45.10000000000001 29.80000000000001 65.50000000000001 47.30000000000001 61.69999999999999 53.10000000000002 128.7 95 209.3 111.89999999999998 16 3.3000000000000114 22.099999999999966 14.900000000000034 19.5 31.600000000000023-2.1000000000000227 13.5-5.600000000000023 26.69999999999999-9.100000000000023 39.80000000000001-7.199999999999989 26.899999999999977-12.100000000000023 53.80000000000001-4.199999999999989 81.49999999999994 10.300000000000011 36.10000000000002 36.30000000000001 55.90000000000009 70.39999999999998 68.30000000000007-0.0999999999999659-4-2.3000000000000114-6-3.599999999999966-8.300000000000068-21.100000000000023-38.69999999999993-32.60000000000002-79.39999999999998-25.5-123.69999999999993 3.099999999999966-19.100000000000023 8.799999999999955-37 23.19999999999999-51.10000000000002 3.3999999999999773-3.3000000000000114 5.5-3.6000000000000227 8.399999999999977 0.6999999999999886 6.100000000000023 9.100000000000023 14.800000000000011 15 25.400000000000034 17.600000000000023 9.099999999999966 2.1999999999999886 15.799999999999955 7.399999999999977 21.5 14.399999999999977 6.899999999999977 8.400000000000034 11.099999999999966 18.30000000000001 16.69999999999999 28.600000000000023 2.5-5.300000000000011 4.599999999999966-9.900000000000034 6.699999999999989-14.400000000000034 6.7999999999999545-14.5 16.700000000000045-25.5 33.200000000000045-29.099999999999966 9.699999999999932-2.1999999999999886 17.699999999999932-8 23.299999999999955-16.30000000000001 3.5-5.199999999999989 5.7999999999999545-4.300000000000011 9 0 16.100000000000023 21.100000000000023 23.399999999999977 45.30000000000001 25.100000000000023 71.30000000000001 1.6000000000000227 23.499999999999943-4.2000000000000455 45.599999999999966-12.200000000000045 67.49999999999994-5.2999999999999545 14.400000000000091-12.5 28.100000000000023-20.100000000000023 42.90000000000009 49.90000000000009-20.5 72.60000000000002-72 64.10000000000002-122.70000000000005-3.8999999999999773-22.80000000000001-12.799999999999955-44.19999999999999-16.299999999999955-67s2.199999999999932-31.100000000000023 24.899999999999977-36c27.899999999999977-6 54.799999999999955-14.699999999999989 80.79999999999995-26.5 44.5-20.30000000000001 82.80000000000007-49.60000000000002 120.20000000000005-80.5 20.600000000000023-17 40.39999999999998-35.099999999999994 64.79999999999995-47.099999999999994 10.700000000000045-5.099999999999994 19.90000000000009-7.700000000000017 27.700000000000045 3.4000000000000057z m-487.7 170.5c5.199999999999989 0.6999999999999886 7.199999999999989 6.099999999999966 12.199999999999989 6.899999999999977-0.8000000000000114-7.199999999999989-2.3999999999999773-14.099999999999966-6.199999999999989-19.899999999999977-3.1999999999999886-4.699999999999989-2.1999999999999886-8.400000000000034 0.6999999999999886-12.300000000000011 13.399999999999977-18.399999999999977 32.39999999999998-21.69999999999999 53.10000000000002-19.19999999999999 15.600000000000023 1.8000000000000114 27.899999999999977 9.099999999999966 35.10000000000002 23.80000000000001 1.7999999999999545 3.599999999999966 2.3999999999999773 6.599999999999966-0.10000000000002274 10.199999999999989-3.8999999999999773 5.899999999999977-5.600000000000023 12.899999999999977-6.7000000000000455 20.80000000000001l11.5-7.7000000000000455c1 8.300000000000011-5.2999999999999545 20.700000000000045-11.600000000000023 24.100000000000023-3.199999999999932 1.8000000000000114-6 1.1999999999999886-8.799999999999955-0.6000000000000227l-10.399999999999977-7.399999999999977c-12-8.399999999999977-25.400000000000034-8.399999999999977-37.400000000000034 0l-0.6999999999999886 0.5c-5.899999999999977 3.1999999999999886-10.5 12.199999999999989-18.30000000000001 7.199999999999989-8.699999999999989-5.899999999999977-13.599999999999966-14.899999999999977-12.399999999999977-26.399999999999977z"/>
</svg>
