<svg xmlns="http://www.w3.org/2000/svg" viewBox="0 0 1000 1000" width="1000" height="1000">
<path d="M893.8 635.3c-13.199999999999932-0.5-26.299999999999955-0.09999999999990905-39.59999999999991 0.8000000000000682 17-5.800000000000068 34.299999999999955-9.600000000000023 52.299999999999955-8.300000000000068 3 0.20000000000004547 3.6000000000000227-0.5 3.5-3.199999999999932-0.39999999999997726-13.700000000000045-0.8999999999999773-27.5-3.2000000000000455-41.10000000000002-0.39999999999997726-3.1000000000000227-1.6999999999999318-3.6000000000000227-4.2999999999999545-3.7000000000000455-12.5-0.39999999999997726-24.899999999999977 0.6000000000000227-37 3.900000000000091l-19.600000000000023 5.2999999999999545c11.5-7.2000000000000455 23.200000000000045-13.600000000000023 36.5-15.899999999999977 6.100000000000023-1.1000000000000227 12.300000000000068-1.5 18.600000000000023-2 2.1000000000000227-0.20000000000004547 3.8999999999999773-0.20000000000004547 3.2000000000000455-3.1000000000000227-2.5-13-5.5-25.799999999999955-9.5-38.39999999999998-0.8000000000000682-2.6000000000000227-2.5-3.800000000000068-5.300000000000068-4.300000000000068-10.799999999999955-2.099999999999909-21.399999999999977-2-32.10000000000002-0.1999999999999318-14 2.3999999999999773-27.899999999999977 5.2999999999999545-41.299999999999955 10.299999999999955 4.7999999999999545-4.199999999999932 10.799999999999955-6 16.299999999999955-8.799999999999955 16.90000000000009-8.300000000000068 34.60000000000002-14.100000000000023 53.700000000000045-12.5 4.100000000000023 0.2999999999999545 3.7000000000000455-1.8000000000000682 3-4.5-3.7000000000000455-13.5-9.600000000000023-26.200000000000045-14.899999999999977-39-1-2.400000000000034-2.300000000000068-2.900000000000034-4.600000000000023-3.3000000000000114-30.5-5.600000000000023-58.60000000000002 1.099999999999966-85.60000000000002 15.099999999999966-2.699999999999932 1.400000000000034-5.100000000000023 3.5-8.799999999999955 4.300000000000011 12.799999999999955-12.099999999999966 27.600000000000023-19.30000000000001 43-25.69999999999999 15.699999999999932-6.5 31.799999999999955-8.600000000000023 49.5-6.5-5.300000000000068-10-10.200000000000045-18.899999999999977-14.800000000000068-27.899999999999977-3.199999999999932-6.100000000000023-7.899999999999977-9.100000000000023-14.5-10.200000000000045-5.2999999999999545-0.7999999999999545-10.299999999999955-2-15.699999999999932-2.099999999999966-29.899999999999977-0.4000000000000341-57.30000000000007 8.399999999999977-83.30000000000007 22.80000000000001-1.1999999999999318 0.6999999999999886-2.2999999999999545 1.5-3.5 1.8999999999999773-1 0.39999999999997726-1.7999999999999545 1.8000000000000114-3.599999999999909 0.5 31.5-24.19999999999999 64.29999999999995-43.39999999999998 107.09999999999991-36.10000000000002-4.5-7.7999999999999545-8.399999999999977-14.199999999999989-12.799999999999955-20.299999999999955-1.5-2.1000000000000227-3.2000000000000455-3.7000000000000455-5.2999999999999545-4.900000000000034-6.7000000000000455-3.6999999999999886-13.700000000000045-6.5-21-8.099999999999966-29.100000000000023-6.7000000000000455-55 3.8999999999999773-80.5 15.299999999999955-9.200000000000045 4.100000000000023-17.90000000000009 9.5-25.800000000000068 16.100000000000023-0.8999999999999773 0.8000000000000114-1.8999999999999773 2.1000000000000227-3.8999999999999773 0.6999999999999886 4-4 8.100000000000023-7.899999999999977 11.899999999999977-11.899999999999977 4.899999999999977-5.199999999999989 11.600000000000023-7.800000000000011 17.100000000000023-12.100000000000023 18.399999999999977-14.5 39.39999999999998-21.899999999999977 62.5-23 9.600000000000023-0.5 19 1.1000000000000227 28.799999999999955 4.600000000000023-2.8999999999999773-5.5-7.399999999999977-9.400000000000034-7.699999999999932-15.100000000000023-0.6000000000000227-15.800000000000011 0.39999999999997726-31.19999999999999 5.600000000000023-46.30000000000001 3.8999999999999773-11.5 6.5-23.299999999999955 6.5-35.5 0.1999999999999318-34.19999999999999-15.600000000000023-62.69999999999999-33.700000000000045-90.09999999999997-5.2000000000000455-7.900000000000006-12-14.900000000000006-18.200000000000045-22.200000000000017-13.099999999999909-15.400000000000006-28.5-28.39999999999999-45.299999999999955-39-15.799999999999955-10-32-19.599999999999994-50.200000000000045-25.299999999999997-13.799999999999955-4.299999999999997-27.399999999999977-9.5-41.39999999999998-13.299999999999997-20-5.5-40.5-6.700000000000003-60.799999999999955-8.799999999999997-11.700000000000045-1.1000000000000014-23.600000000000023-2.4000000000000057-35.5-1.1000000000000014-5.300000000000068-0.5-10.899999999999977-2-16 0.6000000000000014-1.7000000000000455-1.8000000000000043-3.900000000000034-1.1000000000000014-5.900000000000034-1.1000000000000014-24.599999999999966 0.19999999999999574-48.80000000000001 3.3000000000000043-73.39999999999998 5.100000000000001-10.199999999999989 0.7999999999999972-20.19999999999999 3.200000000000003-30.400000000000034 4.700000000000003 20 9.599999999999994 41 15.799999999999997 59.5 27.19999999999999-0.7999999999999545 0.30000000000001137-1.599999999999966 0.30000000000001137-2.1999999999999886 0.10000000000000853-19.399999999999977-5.900000000000006-39.30000000000001-10.100000000000009-59.39999999999998-12.900000000000006-26.19999999999999-3.5999999999999943-51.900000000000034-2.5999999999999943-77.60000000000002 2.700000000000003-19.19999999999999 4-37.599999999999966 11.099999999999994-56 17.400000000000006-18.399999999999977 6.199999999999989-35.29999999999998 15.399999999999991-51.599999999999994 25.19999999999999-17.299999999999983 10.300000000000011-33.400000000000006 22.80000000000001-48 37.30000000000001-10.099999999999994 10.099999999999994-19.299999999999983 20.69999999999999-27.69999999999999 31.900000000000006-14 18.69999999999999-25.400000000000006 39-32.80000000000001 61.39999999999998-8.899999999999991 27-17.099999999999994 53.900000000000034-18.39999999999999 82.5-1.1000000000000085 23.400000000000034-1.7000000000000028 46.80000000000001 2.5 69.90000000000003 3.5999999999999943 20.399999999999977 11.299999999999997 39.39999999999998 20 57.89999999999998 3.8999999999999915 8.199999999999989 9.099999999999994 15.800000000000011 16.299999999999997 23.5 2.1999999999999886-35.5 7.800000000000011-69.19999999999999 24.5-100.19999999999999 0.8000000000000114 1.6999999999999886 0.30000000000001137 3-0.09999999999999432 4.199999999999989-10.200000000000017 34.10000000000002-15 68.69999999999999-12 104.30000000000001 0.29999999999998295 3.099999999999966 1 5.199999999999989 3.1999999999999886 7.400000000000034 13.700000000000017 13.199999999999932 29.400000000000006 24.09999999999991 44.599999999999994 35.39999999999998 5.800000000000011 4.2999999999999545 12.100000000000023 8 18.400000000000006 12 2.3000000000000114-56.30000000000001 3.5-111.80000000000001 22.599999999999994-164.70000000000005 0.6000000000000227 0.9000000000000341 0.6000000000000227 1.6000000000000227 0.4000000000000057 2.3000000000000114-4.299999999999983 17.400000000000034-6.699999999999989 35.19999999999999-8.599999999999994 52.900000000000034-3.6999999999999886 36.799999999999955-3.5 73.39999999999998 0 110.19999999999993 0.5999999999999943 6.100000000000023 0.9000000000000057 12.100000000000023 8.699999999999989 13.5 1.200000000000017 0.20000000000004547 2.3000000000000114 1.2000000000000455 3.4000000000000057 1.900000000000091 19.099999999999994 12.799999999999955 40.400000000000006 21 59.900000000000006 30.5 5.199999999999989 2.5 5.300000000000011 0.39999999999997726 5-4-1.1999999999999886-24.100000000000023-2.5-48.200000000000045-3.1999999999999886-72.30000000000007-0.5-22.5-0.5-44.89999999999998 1-67.29999999999995 1.6999999999999886-25.80000000000001 2.6999999999999886-51.60000000000002 9-76.90000000000003 0.6999999999999886-2.5 1-5.300000000000011 3.099999999999966-7.899999999999977-4.2999999999999545 35.30000000000001-5.2999999999999545 83.89999999999998-3.1999999999999886 122.5 2 37.599999999999966 6.699999999999989 74.69999999999999 13.600000000000023 111.59999999999997 0.5999999999999659 3 1.6999999999999886 4.600000000000023 4.599999999999966 5.600000000000023 14.600000000000023 4.899999999999977 29 10.899999999999977 43.900000000000034 14.799999999999955 29.099999999999966 7.5 57.30000000000001 17 85.80000000000001 26.300000000000068 5.699999999999989 1.7999999999999545 3.5-2.5 3.5-4.2000000000000455 0.19999999999998863-20.299999999999955-6-39.60000000000002-13.200000000000045-57.89999999999998-7.699999999999989-19.600000000000023-17.899999999999977-38.200000000000045-29.899999999999977-55.5-9.100000000000023-13.100000000000023-19.100000000000023-25.799999999999955-25.19999999999999-40.69999999999999-10.600000000000023-25.600000000000023-18.600000000000023-52.10000000000002-24.900000000000034-79-0.39999999999997726-2-1.7999999999999545-4-0.0999999999999659-7 4.800000000000011 21.69999999999999 12.699999999999989 41.5 21.399999999999977 60.69999999999999 9.199999999999989 20.399999999999977 20.900000000000034 39.5 35.5 56.799999999999955 10.699999999999989 12.700000000000045 22.100000000000023 24.200000000000045 35.30000000000001 33.90000000000009 17 12.399999999999977 35.10000000000002 23.09999999999991 55.60000000000002 29.299999999999955 22.100000000000023 6.7000000000000455 44.5 11.600000000000023 67.5 13 24 1.3999999999999773 47.89999999999998-0.39999999999997726 71.5-4.100000000000023 13.299999999999955-2.1000000000000227 26.600000000000023-4.600000000000023 39.60000000000002-8.399999999999977-25.100000000000023-23.5-42.700000000000045-51.299999999999955-52.80000000000007-83.80000000000001 1.3000000000000682 1.099999999999966 2.300000000000068 2.500000000000057 3 3.900000000000034 6 11.399999999999977 13.200000000000045 22.100000000000023 21.200000000000045 32 9.100000000000023 11.299999999999955 18.799999999999955 22.5 31 31.100000000000023 6.699999999999932 4.7999999999999545 12.5 11.299999999999955 20.399999999999977 14.099999999999909 12.100000000000023 4.2000000000000455 21 12.5 27.200000000000045 22.800000000000068 9.899999999999977 16.299999999999955 17.199999999999932 34.10000000000002 19.5 53.10000000000002 5.899999999999977 47.39999999999998 2.699999999999932 93.79999999999995-16 138.69999999999993-9.5 22.800000000000068-24.100000000000023 40.200000000000045-45.60000000000002 51.700000000000045-5.100000000000023 2.699999999999932-14.5 5.2999999999999545-19.300000000000068 4.7999999999999545 1.400000000000091-0.6999999999999318 2.400000000000091-1.1000000000000227 3.400000000000091-1.6000000000000227 9.5-3.7999999999999545 17.199999999999932-10.099999999999909 23.699999999999932-17.799999999999955 2.5-2.8999999999999773 3.3999999999999773-5.2000000000000455-0.2999999999999545-8.299999999999955-6-5.2000000000000455-8.800000000000068-12.5-11.600000000000023-19.800000000000068-9.700000000000045-25.899999999999977-2.2999999999999545-50.69999999999993 6.399999999999977-74.79999999999995 6.600000000000023-18.399999999999977 17.700000000000045-34.80000000000007 27.200000000000045-51.700000000000045 3.7999999999999545-6.699999999999932 7.899999999999977-13.399999999999977 9.5-21.100000000000023 0.7999999999999545-3.8999999999999773 3.199999999999932-8.399999999999977-0.10000000000002274-11.299999999999955-3.3999999999999773-3.1000000000000227-8.299999999999955-1.6000000000000227-12.299999999999955 0-11.300000000000068 4.5-23 5.2999999999999545-35 4.7999999999999545-11.600000000000023-0.39999999999997726-22.800000000000068-2.699999999999932-34.200000000000045-4.399999999999977-14.200000000000045-2.1000000000000227-18.399999999999977 2.300000000000068-16.100000000000023 16.399999999999977 2.5 15.700000000000045-0.2999999999999545 30.90000000000009-5 45.700000000000045-5 15.799999999999955-12.5 30.899999999999977-16.699999999999932 46.799999999999955-6.7000000000000455 25-9.5 50.700000000000045-8.200000000000045 76.60000000000002 0.7000000000000455 13.200000000000045 3.2000000000000455 26.399999999999977 9.100000000000023 38.30000000000007 9.399999999999977 18.59999999999991 25.100000000000023 31.299999999999955 43.19999999999993 40.799999999999955 35.60000000000002 18.5 72.60000000000002 18.799999999999955 109.5 5 24.600000000000023-9.100000000000023 45.60000000000002-24.5 64-43.200000000000045 5.100000000000023-5.099999999999909 9.200000000000045-10.899999999999977 13.700000000000045-16.5 7.600000000000023-9.199999999999932 14.200000000000045-18.799999999999955 20.100000000000023-29.09999999999991 3.199999999999932-5.5 2.1000000000000227-7.7000000000000455-3.6000000000000227-8.900000000000091-0.20000000000004547 0-0.2999999999999545-0.5-0.5-1 0.8999999999999773 0 1.7000000000000455-0.2999999999999545 2.2999999999999545 0 5 2.300000000000068 7.400000000000091-0.39999999999997726 9.600000000000023-4.399999999999977 4.2000000000000455-7.699999999999932 7.600000000000023-15.699999999999932 10.5-23.799999999999955 4.5-12.5 4-12.700000000000045-8.5-16.899999999999977l-2.6000000000000227-0.8000000000000682c3.900000000000091-0.10000000000002274 7.900000000000091-0.10000000000002274 11.700000000000045 0.5 3.7000000000000455 0.6000000000000227 5.100000000000023-0.8999999999999773 5.899999999999977-4.199999999999932 2.3999999999999773-10.700000000000045 4.899999999999977-21.300000000000068 7.5-31.90000000000009 1-3.8999999999999773-0.1999999999999318-5.2999999999999545-4.100000000000023-6-9.5-1.6999999999999318-19.09999999999991-3.8999999999999773-28.59999999999991-5.7999999999999545 10.199999999999932-1.2000000000000455 20.299999999999955-0.20000000000004547 30.299999999999955 1.2999999999999545 3.2000000000000455 0.40000000000009095 4.600000000000023 0.10000000000002274 5.2999999999999545-3.599999999999909 2-12.100000000000023 3.900000000000091-24.200000000000045 5.300000000000068-36.30000000000007 0.6999999999999318-5.2999999999999545-0.8000000000000682-7.699999999999932-6.300000000000068-8.699999999999932-12.199999999999932-2-24.199999999999932-4.100000000000023-37-3.800000000000068 1.1000000000000227-1.6000000000000227 2.2000000000000455-1.7999999999999545 3.300000000000068-1.7999999999999545 12-1.3000000000000682 24.100000000000023-2.2000000000000455 36.19999999999993-0.8000000000000682 4.100000000000023 0.40000000000009095 4.800000000000068-0.8999999999999773 4.800000000000068-4.399999999999977 0.10000000000002274-8.299999999999955 0.39999999999997726-16.600000000000023 0.6000000000000227-24.899999999999977 0.1999999999999318-16.700000000000045 0.09999999999990905-16.600000000000023-16.90000000000009-17.200000000000045z m-394.09999999999997-327.99999999999994c-3.6999999999999886 1.8000000000000114-7.5 2.3999999999999773-11 2.6999999999999886-13.800000000000011-1.5-22.5-9.699999999999989-29.80000000000001-20.100000000000023-1.099999999999966-1.599999999999966-0.39999999999997726-2.3999999999999773 1.1000000000000227-2.8999999999999773 15.300000000000011-5.199999999999989 33.19999999999999-6.100000000000023 42.60000000000002 11.300000000000011 2.7999999999999545 5.199999999999989 2.3999999999999773 6.5-2.900000000000034 9z m23.599999999999966-237.5c1.6000000000000227-0.9000000000000057 3.5-2.8000000000000114 6.2000000000000455-5.800000000000011l0.20000000000004547-0.10000000000000142c-2.900000000000091 3.1000000000000014-4.800000000000068 5.100000000000001-6.400000000000091 5.899999999999999z"/>
</svg>
