<svg xmlns="http://www.w3.org/2000/svg" viewBox="0 0 1000 1000" width="1000" height="1000">
<path d="M895.1 421.9c-67.30000000000007-55.69999999999999-144.20000000000005-87.19999999999999-232.30000000000007-84.5-79.29999999999995 2.5-134.0999999999999 75.70000000000005-113.39999999999998 149.90000000000003 8.100000000000023 29.30000000000001 13 58.900000000000034 18.5 88.69999999999999 7.399999999999977 40.200000000000045 13.700000000000045 80.39999999999998 28.600000000000023 118.79999999999995 13.700000000000045 35.30000000000007 38.5 57.40000000000009 75.10000000000002 67.20000000000005 24.899999999999977 6.7000000000000455 49.799999999999955 10.100000000000023 75.5 9.399999999999977 5.2999999999999545 0 10.600000000000023 0.10000000000002274 15.899999999999977 0 56.60000000000002-1.1000000000000227 93.5-27.799999999999955 111.70000000000005-81.19999999999993 4.7999999999999545-14 9.799999999999955-28 13.899999999999977-42.30000000000007 15.199999999999932-51.89999999999998 29.299999999999955-104.29999999999995 29.399999999999977-159 0-24.399999999999977-1.8999999999999773-49.69999999999999-22.899999999999977-67z m-568.2 1.900000000000034c-79.09999999999997-0.10000000000002274-148.79999999999998 29-211.89999999999998 75.69999999999999-20 14.700000000000045-30 34.200000000000045-32 57.89999999999998-1.5 18-1.2000000000000028 36.10000000000002 1.0999999999999943 54 7.700000000000003 61.30000000000007 25.400000000000006 120.20000000000005 45.400000000000006 178.30000000000007 5.099999999999994 14.699999999999932 13.199999999999989 26.09999999999991 24.30000000000001 36.39999999999998 27.899999999999977 26.100000000000023 61.29999999999998 34.5 101.19999999999999 31.399999999999977 4.600000000000023 0 12.100000000000023 0.39999999999997726 19.5-0.10000000000002274 100.5-7.199999999999932 121.69999999999999-41.39999999999998 140.5-111.29999999999995 15.899999999999977-58.89999999999998 21.5-120 37.19999999999999-178.89999999999998 5.800000000000011-21.5 3.1999999999999886-44.5-5.300000000000011-65.60000000000002-21.299999999999955-54.200000000000045-64.69999999999999-77.70000000000005-120-77.80000000000001z m100.70000000000005-0.9000000000000341c24.099999999999966-20 29.399999999999977-69.89999999999998 10.199999999999989-94.79999999999995-14.5-18.700000000000045-35.19999999999999-18.100000000000023-48.30000000000001 1.8999999999999773-9.199999999999989 14-13.800000000000011 29.600000000000023-13.399999999999977 46.39999999999998-0.20000000000004547 15.900000000000034 3.8999999999999773 30.5 15 42.30000000000001 11.5 12.600000000000023 24.899999999999977 13.900000000000034 36.5 4.199999999999989z m160.19999999999993-80.5c13.200000000000045-0.2999999999999545 22.200000000000045-8.699999999999989 28.600000000000023-20.19999999999999 13.200000000000045-24.30000000000001 8.899999999999977-63.30000000000001-9.5-83.89999999999998-11.399999999999977-12.700000000000017-26.699999999999932-13.700000000000017-39.299999999999955-2.3000000000000114-12.700000000000045 11.599999999999994-16.700000000000045 26.600000000000023-16.600000000000023 44.39999999999998-0.39999999999997726 14.5 3.3999999999999773 29.30000000000001 11.299999999999955 43 5.7000000000000455 10.100000000000023 13.100000000000023 19.30000000000001 25.5 19z m-271.49999999999994 64.80000000000001c16.19999999999999-0.5999999999999659 30.899999999999977-18.69999999999999 33.599999999999966-41.19999999999999 0.20000000000004547-1.6000000000000227 0.30000000000001137-3.1999999999999886 0.4000000000000341-4.699999999999989 0-14.300000000000011-7.400000000000034-33.900000000000034-16.600000000000023-43.80000000000001-11.699999999999989-12.699999999999989-25.80000000000001-13.300000000000011-37-0.39999999999997726-13 15.199999999999989-18.899999999999977 33-14.199999999999989 53.19999999999999 5.399999999999977 22.899999999999977 18.69999999999999 37.5 33.80000000000001 36.89999999999998z m394.40000000000003-105.30000000000001c12.199999999999932-22.19999999999999 11.599999999999909-45-3-66.09999999999997-14.100000000000023-20.400000000000006-32.200000000000045-19.80000000000001-45.80000000000007 0.6999999999999886-7.5 11.300000000000011-11.600000000000023 23.80000000000001-11.399999999999977 39.60000000000002-0.7999999999999545 8.399999999999977 2.2000000000000455 18 7.600000000000023 26.69999999999999 14.399999999999977 23.5 39.19999999999993 23.399999999999977 52.60000000000002-0.9000000000000341z m-558.9000000000001 127.80000000000001c15.000000000000057 12.600000000000023 32.50000000000006 8.100000000000023 40.200000000000045-10 4.900000000000006-11.5 5.900000000000006-23.599999999999966 6-36.099999999999966-1-8.400000000000034-1.8000000000000114-16.80000000000001-3-25.200000000000045-0.5-3.6999999999999886-1.0999999999999943-7.399999999999977-2.4000000000000057-10.899999999999977-4.799999999999983-13.100000000000023-14.099999999999994-17.80000000000001-26.400000000000006-12.100000000000023-19.69999999999999 9.100000000000023-29 26.5-31.69999999999999 46.700000000000045-2.3000000000000114 18.299999999999955 2.6999999999999886 35.39999999999998 17.30000000000001 47.599999999999966z m757.4000000000001-128.5c-14.400000000000091-7.699999999999989-26.700000000000045-2.8999999999999773-30.700000000000045 13-2.7000000000000455 10.800000000000011-3.2999999999999545 22-4.899999999999977 33 0 10.900000000000034 1.6999999999999318 21.5 4.399999999999977 31.69999999999999s8.200000000000045 18.80000000000001 19.399999999999977 21.400000000000034c10.899999999999977 2.5 19.899999999999977-2.6000000000000227 27.100000000000023-10.199999999999989 22.799999999999955-24.400000000000034 14.299999999999955-73.10000000000002-15.299999999999955-88.90000000000003z m-153.4000000000001 26.19999999999999c15.300000000000068 1.8000000000000114 25.200000000000045-7.2999999999999545 31.40000000000009-19.899999999999977 11.299999999999955-23.100000000000023 9.199999999999932-46.39999999999998-2.7000000000000455-68.6-9.200000000000045-17.099999999999994-26.600000000000023-18.200000000000017-39-3.200000000000017-10.899999999999977 13.300000000000011-14.100000000000023 29.30000000000001-15.100000000000023 48.19999999999999 0.7000000000000455 4.100000000000023 1.6000000000000227 10.400000000000034 2.800000000000068 16.600000000000023 2.599999999999909 13.100000000000023 7.099999999999909 25.100000000000023 22.59999999999991 26.899999999999977z m-635.5 143.10000000000002c5.000000000000043-11.600000000000023 4.30000000000004-23.899999999999977 4.600000000000051-36.10000000000002-1-12.099999999999966 0.3999999999999915-24.5-4.200000000000003-36.19999999999999-5.1000000000000085-12.800000000000011-14.5-17.599999999999966-26.60000000000001-12-17.799999999999997 8.199999999999989-27.39999999999999 23.600000000000023-30.499999999999993 42.10000000000002-3.200000000000003 19.599999999999966-0.20000000000000284 38.39999999999998 16.4 52 15.099999999999994 12.599999999999966 32.599999999999994 8.099999999999966 40.3-9.800000000000011z m732.5-131.89999999999998c22.5-24.700000000000045 13.700000000000045-73.30000000000001-15.899999999999977-88.40000000000003-14.299999999999955-7.299999999999983-24.299999999999955-3-29.899999999999977 12.300000000000011-3.8999999999999773 10.800000000000011-3 22-3.7000000000000455 33.89999999999998 0.6000000000000227 10.200000000000045-0.599999999999909 21.400000000000034 3.1000000000000227 32.200000000000045 8.200000000000045 23.899999999999977 29.399999999999977 28.599999999999966 46.39999999999998 10z m-627.5999999999999 70.19999999999999c15.299999999999955 10.399999999999977 31.899999999999977 6 39.099999999999966-11.199999999999989 3.8000000000000114-9 4-18.600000000000023 4.399999999999977-28 0.30000000000001137-17.30000000000001-2.8000000000000114-33.80000000000001-14.299999999999983-47.5-9.800000000000011-11.600000000000023-21.700000000000017-13.200000000000045-32.099999999999994-5.100000000000023-18.100000000000023 14.399999999999977-25.30000000000001 72.60000000000002 2.8999999999999773 91.80000000000001z m684.6999999999999-130.10000000000002c6.7000000000000455-0.8000000000000114 8-6 6.5-12-4-16.799999999999983-13.600000000000023-30.299999999999983-25.799999999999955-46.29999999999998 2.2999999999999545 19.099999999999994 4.2999999999999545 34.19999999999999 5.699999999999932 49.400000000000006 0.8000000000000682 9.099999999999966 7.300000000000068 9.599999999999966 13.600000000000023 8.899999999999977z m-820.1999999999999 86.60000000000002c7.19999999999996 1.099999999999966 13.899999999999949-0.10000000000002274 14.799999999999955-9.600000000000023 1.2000000000000028-14.099999999999966 2.5-28.19999999999999 4.200000000000003-46.599999999999966-12.799999999999997 15.199999999999989-20.299999999999997 28.299999999999955-25 42.799999999999955-1.9000000000000057 5.7000000000000455-2.1000000000000085 12.100000000000023 6 13.400000000000034z m320.4-63.60000000000002c7.899999999999977-1.099999999999966 8.099999999999966-7 6.099999999999966-13.199999999999989-4.699999999999989-14.5-12.300000000000011-27.399999999999977-25.099999999999966-43.30000000000001 1.7999999999999545 18.80000000000001 3.3999999999999773 32.80000000000001 4.5 46.900000000000034 0.6999999999999886 10 7.399999999999977 10.599999999999966 14.5 9.599999999999966z m357.69999999999993-93.79999999999998c9.100000000000023-1.3000000000000114 8.200000000000045-8.5 6.100000000000023-14.900000000000006-4.7999999999999545-14.099999999999994-12.5-26.69999999999999-24.699999999999932-42.099999999999994 1.6999999999999318 18.19999999999999 3.199999999999932 32.29999999999998 4.199999999999932 46.400000000000006 0.7000000000000455 9.5 7.100000000000023 11.699999999999989 14.399999999999977 10.599999999999994z m-177.5 7.299999999999983c7.900000000000091 1.5 13.100000000000023-1.5 14-10.599999999999994 1.3000000000000682-14.199999999999989 3.2000000000000455-28.299999999999983 5.400000000000091-47.19999999999999-12.400000000000091 15.299999999999983-20.600000000000023 28.099999999999994-25.300000000000068 42.69999999999999-1.8999999999999773 5.599999999999994-3.3999999999999773 13.400000000000006 5.899999999999977 15.099999999999994z m-356.99999999999994 79.69999999999999c8.099999999999994 1 12.299999999999983-2.8999999999999773 12.899999999999977-11.799999999999955 1-14.200000000000045 3.200000000000017-28.30000000000001 5-42.400000000000034-11.199999999999989 11.200000000000017-20.19999999999999 23.5-24.69999999999999 38.30000000000001-1.9000000000000057 6.399999999999977-3.5999999999999943 14.600000000000023 6.800000000000011 15.899999999999977z m-69.80000000000001 23c7.199999999999989 1.1000000000000227 13.800000000000011 0.4000000000000341 14.5-9.599999999999966 1-14.199999999999989 2.5999999999999943-28.30000000000001 3.9000000000000057-42.5-11.5 11.300000000000011-19.700000000000017 23.30000000000001-24.200000000000017 37.599999999999966-1.8999999999999773 6.400000000000034-3.5999999999999943 13 5.800000000000011 14.5z m672.4-86.29999999999998c9.700000000000045-1.299999999999983 8-8.799999999999983 6.300000000000068-14.599999999999994-4.400000000000091-15.300000000000011-13.100000000000023-28.19999999999999-25.200000000000045-43 2.2000000000000455 17.80000000000001 4.600000000000023 32.19999999999999 5.5 46.599999999999994 0.6000000000000227 9.5 5.399999999999977 12 13.399999999999977 11z m-526 55.79999999999998c4.600000000000023-0.2999999999999545 11.600000000000023 1.1000000000000227 11.700000000000045-7.099999999999966 0.2999999999999545-16.69999999999999-2.400000000000034-33-6.400000000000034-49.10000000000002-6.399999999999977 15-11.199999999999989 30-13.399999999999977 45.5-0.6999999999999886 6 1.1999999999999886 11.100000000000023 8.099999999999966 10.699999999999989z m380.1-86.99999999999997c6.899999999999977-0.09999999999999432 9.700000000000045-4.099999999999994 8.5-10.400000000000006-3.2000000000000455-15.400000000000006-6.399999999999977-30.69999999999999-14-48.19999999999999-4.7999999999999545 18.69999999999999-5.100000000000023 34.099999999999994-5.7000000000000455 49.39999999999998-0.39999999999997726 8.600000000000023 4.900000000000091 9.200000000000017 11.200000000000045 9.200000000000017z"/>
</svg>
