<svg xmlns="http://www.w3.org/2000/svg" viewBox="0 0 1000 1000" width="1000" height="1000">
<path d="M732.1 631.8c-10.899999999999977-27.59999999999991-27.700000000000045-51.59999999999991-45.200000000000045-75.09999999999991-24.100000000000023-32.30000000000007-23.100000000000023-68.40000000000003 3-99.50000000000006 4.600000000000023-5.399999999999977 6-10.699999999999989 2-16.69999999999999-5.600000000000023-8.800000000000011-11.600000000000023-17.19999999999999-17-26.19999999999999-3.1000000000000227-5.100000000000023-5.899999999999977-11.400000000000034 0.3000000000000682-15.600000000000023 10.299999999999955-7.199999999999989 7-14.800000000000011 2.2999999999999545-22.80000000000001-3.5-6-7.600000000000023-11.599999999999966-10.799999999999955-17.799999999999955-8.900000000000091-17.200000000000045-6-24.900000000000034 12-32.200000000000045 16.699999999999932-6.699999999999989 17.799999999999955-10.5 6.699999999999932-24.5-9.100000000000023-11.399999999999977-8.899999999999977-15.099999999999966 0.8999999999999773-25.599999999999966 7.600000000000023-8.100000000000023 7.400000000000091-14.400000000000034-1.7999999999999545-22.5-10.399999999999977-9.200000000000017-21.200000000000045-17.900000000000006-31.899999999999977-26.80000000000001-15-12.5-17.200000000000045-22.80000000000001-8.200000000000045-39.900000000000006 4.7000000000000455-9.099999999999994 1.3999999999999773-15-7.199999999999932-18.299999999999983-10.100000000000023-3.9000000000000057-20.40000000000009-7-30.600000000000023-10.600000000000023-24.800000000000068-8.799999999999983-28.5-18.299999999999983-16.5-41.599999999999994 1.8999999999999773-3.799999999999997 4.600000000000023-8.099999999999994 2-12-2.800000000000068-4-7.800000000000068-3.8999999999999915-12.600000000000023-3.3999999999999915-13.399999999999977 1.2999999999999972-26.600000000000023 4.3999999999999915-40.299999999999955 3.3999999999999915-15.600000000000023-1.0999999999999943-26.300000000000068-9.299999999999997-29.200000000000045-23.39999999999999-1.3999999999999773-6.700000000000003-1-15.100000000000009-8.300000000000011-17.800000000000004-8.599999999999966-3.1000000000000014-14 4.600000000000001-19.599999999999966 9.600000000000001-6 5.5-11.5 11.5-17.30000000000001 17.099999999999994-5.900000000000034 5.6000000000000085-12.100000000000023 10.900000000000006-19.30000000000001 14.5-8.899999999999977 4.5-16.80000000000001 3.700000000000003-23.80000000000001-4.3999999999999915-8.300000000000011-9.5-12.5-8.600000000000009-15.899999999999977 3.5999999999999943-3.1999999999999886 11.100000000000009-4.800000000000011 22.60000000000001-8.400000000000034 33.500000000000014-4.099999999999966 12.799999999999983-9.599999999999966 14.699999999999989-21.5 9.299999999999983-3.3999999999999773-1.5999999999999943-7.199999999999989-4.799999999999983-10.5-1.5-2.8999999999999773 2.9000000000000057-1.099999999999966 7.400000000000006-0.39999999999997726 11 2.1999999999999886 10.200000000000017 6.899999999999977 19.700000000000017 6.600000000000023 30.400000000000006-0.20000000000004547 5.400000000000006-1.1000000000000227 10.699999999999989-6.7000000000000455 12.300000000000011-13 3.799999999999983-11 10.399999999999977-4.599999999999966 18.599999999999994 2.099999999999966 2.6999999999999886 4 5.699999999999989 5.899999999999977 8.599999999999994 3.900000000000034 6.199999999999989 4 10.5-4.199999999999989 14.099999999999994-35.69999999999999 15.700000000000017-41.80000000000001 59.900000000000006-11.199999999999989 83.70000000000002 7.899999999999977 6.099999999999966 5.300000000000011 9.099999999999966 0.30000000000001137 13.800000000000011-15.100000000000023 13.699999999999989-32.30000000000001 23.69999999999999-51.60000000000002 29.799999999999955-6.399999999999977 2-13 3.3000000000000114-20.399999999999977 1.6000000000000227-17.400000000000034-4.100000000000023-26.400000000000034 3.5-26.50000000000003 21.80000000000001 0 19.30000000000001 7.299999999999983 36.19999999999999 19.50000000000003 50.69999999999999 8.799999999999955 10.300000000000011 18.799999999999955 21.399999999999977 33.799999999999955 18.30000000000001 14.600000000000023-3 17.200000000000045-17.19999999999999 20.700000000000045-29.400000000000034l0.39999999999997726-1.099999999999966c3.6000000000000227-22.80000000000001 15.800000000000011-40.80000000000001 32.19999999999999-56 15.600000000000023-14.400000000000034 34.10000000000002-25 55.60000000000002-19.900000000000034 29.899999999999977 7.100000000000023 59.89999999999998 0.10000000000002274 89.5 3.7000000000000455 12.900000000000034-6 26.599999999999966-10.300000000000011 38.69999999999999-19.900000000000034-10.399999999999977 41.10000000000002 3.7999999999999545 80.10000000000002 5.899999999999977 119.69999999999999 1.2000000000000455 22.600000000000023 2 45.200000000000045 6.5 67.70000000000005 4.600000000000023 22.600000000000023 12.399999999999977 43.39999999999998 24.300000000000068 62.89999999999998 21.299999999999955 34.799999999999955 47.799999999999955 65.89999999999998 70.79999999999995 99.39999999999998 13.799999999999955 20.200000000000045 26.100000000000023 41.5 32.60000000000002 65.39999999999998 3.199999999999932 11.800000000000068 1.7999999999999545 23.700000000000045-1.6000000000000227 35.200000000000045 3.3999999999999773-11.5 0.5-27.200000000000045-2.7000000000000455-39-6.599999999999909-23.899999999999977-18.299999999999955-40.60000000000002-32.09999999999991-60.799999999999955-23-33.60000000000002-48.80000000000007-62.80000000000007-70-97.60000000000002-11.900000000000091-19.399999999999977-21.200000000000045-40.5-25.700000000000045-63.10000000000002-4.600000000000023-22.5-4.899999999999977-47.5-6-70-2.1000000000000227-39.60000000000002-16.200000000000045-72.69999999999999-5.7999999999999545-113.80000000000001-12 9.5-21.800000000000068 7.900000000000034-34.700000000000045 13.900000000000034 17.200000000000045 13.199999999999989 20.899999999999977 31.5 17.899999999999977 51.5l-13.099999999999966 77.29999999999995c-6.400000000000034 42-3.1000000000000227 83 15.800000000000011 121.80000000000007 16.199999999999932 33.299999999999955 41.299999999999955 59 70.39999999999998 81.29999999999995 21 16.100000000000023 43.299999999999955 30.799999999999955 61.60000000000002 50.299999999999955 10.100000000000023 10.800000000000068 18.699999999999932 22.5 20.199999999999932 38l0.6000000000000227 0.10000000000002274-0.6000000000000227 0.20000000000004547c0.20000000000004547 3.1000000000000227 2.1000000000000227 18-4.199999999999932 31.100000000000023l-1.1000000000000227 3c-8 20.699999999999932-18.700000000000045 39.799999999999955-33.60000000000002 56.19999999999993-14.600000000000023 16.100000000000023-32.69999999999993 26.300000000000068-55.299999999999955 22.100000000000023-34.89999999999998-6.2999999999999545-59.30000000000007-34.89999999999998-64-74-3.300000000000068-28 14.5-57.89999999999998 38.39999999999998-64.20000000000005 23.5-6.099999999999909 56.89999999999998 12.5 66.70000000000005 37.10000000000002 6.099999999999909 15.5 2.199999999999932 24.899999999999977-13.100000000000023 31.300000000000068-15.5 6.5-19.700000000000045 4.5-27.100000000000023-13.5-3.6000000000000227-8.800000000000068-8.600000000000023-10.200000000000045-15.799999999999955-3.800000000000068-10.600000000000023 9.300000000000068-13.300000000000068 21.600000000000023-11 34.80000000000007 2.099999999999909 12 10.199999999999932 19.699999999999932 21.799999999999955 23.199999999999932 16.700000000000045 5.100000000000023 32.200000000000045 2.2000000000000455 45.60000000000002-8.799999999999955 25-20.399999999999977 32.299999999999955-65.70000000000005 15-93.10000000000002-16.899999999999977-26.799999999999955-42.700000000000045-34.5-72.70000000000005-33.89999999999998-59.39999999999998 1.1999999999999318-102.19999999999999 61.5-94.89999999999998 115.5 4.5 33.39999999999998 25.5 55.299999999999955 50.89999999999998 73.89999999999998 51.39999999999998 37.5 116.70000000000005 29.299999999999955 158.10000000000002-18.200000000000045 31.600000000000023-36.19999999999993 49-79 60.299999999999955-124.69999999999993 11.400000000000091-47.10000000000002 8.800000000000068-93.80000000000007-9.199999999999932-139.30000000000007z m-333.1-316.4c-5.899999999999977 3.1000000000000227-11.899999999999977 5.100000000000023-17.19999999999999 5.7000000000000455-19.600000000000023 0.39999999999997726-35.80000000000001-14.5-37.69999999999999-33.400000000000034-1.7000000000000455-15.899999999999977 10.899999999999977-33.39999999999998 26.69999999999999-37.19999999999999 5.399999999999977-1.3000000000000114 8.899999999999977-1.8000000000000114 9.099999999999966 6.100000000000023 0.4000000000000341 18 7.2000000000000455 33.89999999999998 20.700000000000045 45.89999999999998 7 6.100000000000023 5.5 9.100000000000023-1.6000000000000227 12.899999999999977z m48.60000000000002-3.099999999999966c-32.60000000000002 0-58.80000000000001-25.80000000000001-59.200000000000045-58.20000000000002-0.39999999999997726-31.900000000000006 26.5-59.099999999999994 58.60000000000002-59.19999999999999 32.80000000000001-0.20000000000001705 60 26.799999999999983 59.80000000000001 59.19999999999999-0.4000000000000341 32.50000000000003-26.5 58.20000000000002-59.19999999999999 58.20000000000002z m0.5-86c-17.900000000000034 0.09999999999999432-31.30000000000001 13.399999999999977-31.600000000000023 31.19999999999999-0.19999999999998863 18.5 13.300000000000011 32.5 31.5 32.5 18.399999999999977 0.10000000000002274 32.10000000000002-13.5 32.10000000000002-31.80000000000001s-13.700000000000045-32-32-31.899999999999977z m3.099999999999966 29.299999999999983c-7.300000000000011-0.5-11.699999999999989-5.199999999999989-11.399999999999977-13.099999999999994 0.39999999999997726-8 5.199999999999989-11.400000000000006 11.800000000000011-11.800000000000011 8.599999999999966 0.5 13.099999999999966 5.400000000000006 13 12.5 0 7.800000000000011-5.400000000000034 13-13.400000000000034 12.400000000000006z m-76.30000000000001 25.599999999999994c-5.699999999999989 0.30000000000001137-9.199999999999989 3.6000000000000227-8.799999999999955 9.699999999999989 0.39999999999997726 5.5 3.6999999999999886 8.200000000000045 8.899999999999977 8.300000000000011 6 0.19999999999998863 8.800000000000011-3.5 9.800000000000011-8.899999999999977-1-5.699999999999989-4.199999999999989-9.300000000000011-9.900000000000034-9.100000000000023z"/>
</svg>
