<svg xmlns="http://www.w3.org/2000/svg" viewBox="0 0 1000 1000" width="1000" height="1000">
<path d="M62.4 389.8v-5.800000000000011c16.4-15.600000000000023 37.50000000000001-23.5 59.50000000000001-28.80000000000001 38.099999999999994-9.300000000000011 66-30.399999999999977 88.6-58.69999999999999 18.599999999999994-23.399999999999977 30.80000000000001-50.400000000000006 50.5-73.30000000000001 3.5-4.099999999999994 4.800000000000011-9.899999999999977 6.600000000000023-15.099999999999994 6.199999999999989-18.299999999999983 6.399999999999977-37.400000000000006 8.5-56.19999999999999 1.8999999999999773-17.30000000000001 4.399999999999977-34.5 16.099999999999966-49.10000000000001 5.900000000000034-7.299999999999997 13.800000000000011-10.5 23.19999999999999-13.399999999999991 24.80000000000001-7.5 39.80000000000001-3.700000000000003 56.80000000000001 1.0999999999999943 21.600000000000023 6 35.900000000000034 16.400000000000006 36.60000000000002 37 0.19999999999998863 6.099999999999994-0.19999999999998863 12.300000000000011 0.39999999999997726 18.30000000000001 1.5 17.19999999999999 11.100000000000023 25.19999999999999 29.80000000000001 26.299999999999983 17.100000000000023 1.0999999999999943 28.19999999999999-6.599999999999994 35.60000000000002-19.400000000000006l21.399999999999977-39.69999999999999c10.399999999999977-18 26.899999999999977-28.799999999999997 48.89999999999998-32.599999999999994 25.300000000000068-4.400000000000006 32.200000000000045-4.800000000000011 51.200000000000045 7.299999999999997 28 7.700000000000003 39.60000000000002 28.39999999999999 37.89999999999998 54.2-0.5 8.699999999999989-5.7000000000000455 17-4.2999999999999545 25.599999999999994 7.2999999999999545 45.400000000000006 20.699999999999932 89.10000000000002 47.39999999999998 128.5 5.199999999999932 7.699999999999989 10.299999999999955 15.600000000000023 19.5 22.5 0.1999999999999318-7.600000000000023 0.39999999999997726-13.699999999999989-1.3000000000000682-19.5-6.5-21.80000000000001-0.6999999999999318-41.19999999999999 13.700000000000045-58.900000000000006 29.200000000000045-35.79999999999998 69.10000000000002-55.79999999999998 116.20000000000005-64.1 34.69999999999993-6.099999999999994 47.799999999999955 14.699999999999989 36.39999999999998 39.099999999999994-2.2000000000000455 4.700000000000017-1 7.400000000000006 5.100000000000023 9.099999999999994 11.699999999999932 3.200000000000017 23.299999999999955 7.100000000000023 34.299999999999955 12.200000000000017 12.399999999999977 5.799999999999983 23.700000000000045 12.699999999999989 30.799999999999955 24.099999999999994 8.5 13.699999999999989 7.400000000000091 26.30000000000001-2.699999999999932 35.39999999999998-11 9.900000000000034-28.5 12.300000000000011-41.700000000000045 4.400000000000034-6.600000000000023-3.900000000000034-8.100000000000023-1.5-10.5 3.1999999999999886-4.7999999999999545 9.699999999999989-4.2999999999999545 20-4.899999999999977 30.30000000000001-1.8999999999999773 29.80000000000001-5.100000000000023 59.5-4.100000000000023 89.39999999999998 1.5 46.69999999999999-8 91.30000000000001-34.39999999999998 132.09999999999997-19.399999999999977 29.90000000000009-44.799999999999955 52.90000000000009-83.79999999999995 59.30000000000007-29.800000000000068 5-57.700000000000045-2.5-70.70000000000005-30.600000000000023-0.6000000000000227-1.2999999999999545-1.7000000000000455-1.8999999999999773-3.6000000000000227-1.7000000000000455-0.5 15.900000000000091-10.199999999999932 27.200000000000045-24.399999999999977 34.90000000000009-25.600000000000023 13.799999999999955-37.5 33.5-35.39999999999998 60.799999999999955 0.7999999999999545 10.600000000000023-3 20.399999999999977-11.399999999999977 28.200000000000045-11 10.199999999999932-15.200000000000045 22.799999999999955-15.900000000000091 36.69999999999993-1.5 28.600000000000023 1 57.10000000000002 4.800000000000068 85.60000000000002 3.2999999999999545 24.299999999999955 15.5 43.60000000000002 40.39999999999998 55.10000000000002 9.899999999999977 4.600000000000023 17.200000000000045 11.899999999999977 24.5 19.5 6.600000000000023 6.899999999999977 8.100000000000023 12.899999999999977 0.20000000000004547 19.5h-25.40000000000009c-11.899999999999977-4.2000000000000455-24.299999999999955-0.8000000000000682-36.39999999999998-2.2000000000000455-28.699999999999932-3.199999999999932-35.299999999999955-9.399999999999977-29.5-31.699999999999932 1.2000000000000455-4.900000000000091-0.2999999999999545-5.900000000000091-5.7999999999999545-5.300000000000068-9.399999999999977 1-18.700000000000045 3.1000000000000227-28.300000000000068 0.7000000000000455-8.599999999999909-2.1000000000000227-12.599999999999909-6.100000000000023-10.199999999999932-14.600000000000023 2-6.7000000000000455 4.600000000000023-13.299999999999955 5.2999999999999545-20.5 2.2000000000000455-28.200000000000045 4.2000000000000455-56.5 18-82.5 11.399999999999977-21.5 13-43.39999999999998 5.800000000000068-66.39999999999998-3.900000000000091-12.600000000000023-9.400000000000091-25.300000000000068-8.800000000000068-38.5 0.6000000000000227-12.600000000000023-4.7999999999999545-20.899999999999977-16.100000000000023-26.899999999999977-15.999999999999943-8.400000000000091-24.499999999999943-21.5-29.099999999999966-37.40000000000009-4.699999999999989-15.899999999999977-6.5-32.19999999999993-6-48.59999999999991 0.19999999999998863-5.7000000000000455-1.099999999999966-8.200000000000045-8.099999999999966-9.400000000000091-40.900000000000034-6.699999999999932-80.90000000000003-16.199999999999932-116.60000000000002-38.599999999999966-7.100000000000023 31.900000000000034-19.80000000000001 61.599999999999966-28.69999999999999 92.19999999999999-7.400000000000034 25.300000000000068-12.600000000000023 50.700000000000045-7.800000000000011 77 8.399999999999977 45.89999999999998 23.69999999999999 89.10000000000002 56.5 125.80000000000007 14.899999999999977 16.59999999999991 34.5 28.199999999999932 53.5 40.39999999999998 7.600000000000023 4.899999999999977 16.69999999999999 10.600000000000023 13 20.799999999999955-3.8000000000000114 10.200000000000045-14.699999999999989 10-24.100000000000023 9.899999999999977-17.19999999999999-0.2999999999999545-34.39999999999998-1.2999999999999545-51.5-2.199999999999932-10.199999999999989-0.5-12.599999999999966-6.800000000000068-10.799999999999955-14.200000000000045 3.6999999999999886-14.399999999999977-1.6000000000000227-26.799999999999955-9.400000000000034-38.299999999999955-20.30000000000001-30.300000000000068-33.69999999999999-63.39999999999998-47.80000000000001-96.20000000000005-8.799999999999955-20.600000000000023-12.899999999999977-43-25.69999999999999-61.89999999999998-12.099999999999966-17.799999999999955-13.5-35.10000000000002-4.5-53.89999999999998 7.400000000000034-15.200000000000045 9.5-31.200000000000045 9.300000000000011-47.89999999999998-0.19999999999998863-21.300000000000068-2.6999999999999886-42.400000000000034-5.399999999999977-63.400000000000034-1.2000000000000455-9.800000000000011-0.4000000000000341-20-4.900000000000034-29.600000000000023-3.6999999999999886 1.400000000000034-3.6999999999999886 4-4.399999999999977 6-9.900000000000034 28.400000000000034-21 56.400000000000034-28.400000000000006 85.59999999999997-6.300000000000011 24.90000000000009-16.700000000000017 49-15.800000000000011 75.30000000000007 0.5999999999999943 18-0.5999999999999943 36-5.299999999999983 53.60000000000002-2.8000000000000114 10.5-2.200000000000017 21.09999999999991-1.700000000000017 31.699999999999932 1.0999999999999943 21.200000000000045 2.5999999999999943 42.39999999999998 4 63.39999999999998 0.20000000000001705 2.5-1 5.600000000000023 2.200000000000017 6.900000000000091 15.399999999999977 6.5 16.399999999999977 19.899999999999977 18.69999999999999 32.39999999999998 2 11 7.400000000000006 19.899999999999977 17.899999999999977 26.100000000000023 5 3 9.900000000000034 6.099999999999909 13.600000000000023 10.599999999999909 8.199999999999989 10.300000000000068 5.300000000000011 18.200000000000045-8.199999999999989 21.5-13.699999999999989 3.400000000000091-27.30000000000001 1.7000000000000455-40.70000000000002-1.2999999999999545-13-2.8999999999999773-17.400000000000006-8.100000000000023-18-20.299999999999955-0.4000000000000057-9.600000000000023 1-19.300000000000068-2.4000000000000057-28.700000000000045-6.299999999999983-17.799999999999955-7.099999999999994-35.700000000000045-4.299999999999983-54.299999999999955 3.5999999999999943-23.600000000000023 5-47.60000000000002-4.5-70.5-11.800000000000011-28.5-11.099999999999994-58.10000000000002-9.099999999999994-87.5 1.5-21.40000000000009 0.39999999999997726-42.40000000000009-2.1000000000000227-63.40000000000009-4.099999999999994-35.099999999999966-10.399999999999977-70.09999999999997-9.199999999999989-105.49999999999994 0.5999999999999943-17.900000000000034 2.5-35.900000000000034 3.4000000000000057-53.80000000000001 0.5-10.300000000000011 0.09999999999999432-20.69999999999999 0.09999999999999432-32.39999999999998-17.099999999999994 13.699999999999989-34.099999999999994 23.19999999999999-56.19999999999999 22.099999999999966-5.800000000000011-0.30000000000001137-10.700000000000017 3.1000000000000227-14.600000000000009 6.900000000000034-5.5 5.399999999999977-11 10.899999999999977-16.400000000000006 16.399999999999977-4.5 4.600000000000023-8.899999999999991 9.100000000000023-15.299999999999997 11.5-4.099999999999994 1.5-9.299999999999997 1.5-8.799999999999997-3.1000000000000227 0.7999999999999972-9-6.299999999999997-13-10.800000000000004-18.599999999999966z"/>
</svg>
