<svg xmlns="http://www.w3.org/2000/svg" viewBox="0 0 1000 1000" width="1000" height="1000">
<path d="M776.3 598.3c24.90000000000009-0.599999999999909 49.30000000000007 4 73.70000000000005 10 31 7.5 58.5 23.100000000000023 87.5 35.200000000000045-46.60000000000002-54-106.10000000000002-85.79999999999995-177.29999999999995-102.79999999999995 36-23.40000000000009 75.69999999999993-20.200000000000045 116.29999999999995-31.400000000000034-53.799999999999955-20.69999999999999-102.29999999999995-38.900000000000034-161.10000000000002-41.60000000000002 35.200000000000045-19.69999999999999 67.89999999999998-29.399999999999977 104-43.69999999999999-62.10000000000002-23.600000000000023-121.60000000000002-37-186.39999999999998-42.89999999999998 34.89999999999998-45.10000000000002 81.70000000000005-71.10000000000002 122.5-106.10000000000002-19.200000000000045-4.600000000000023-34.89999999999998 1.6000000000000227-51.10000000000002 3-101.10000000000002 8.5-200.79999999999995 24.899999999999977-298.09999999999997 53.69999999999999-87.60000000000002 26-161.60000000000002 71.19999999999999-208.20000000000002 153.3-18.099999999999994 31.899999999999977-17.599999999999994 31.600000000000023 17.400000000000006 40.700000000000045 66.39999999999998 17.199999999999932 59 7.699999999999932 66.80000000000001 70.79999999999995 2.3000000000000114 18.200000000000045 11.899999999999977 13 21.099999999999966 11.299999999999955 124-23.5 244.10000000000002-8.5 361.6 35.30000000000007 58.799999999999955 21.899999999999977 112.5 53.69999999999993 167.89999999999998 83.60000000000002-51.19999999999993-44.30000000000007-102.29999999999995-88.60000000000002-147.60000000000002-140 29.5 13.299999999999955 60.10000000000002 12.299999999999955 91 11.599999999999909z m-354.9-151.39999999999998c-12.5 5.5-28.299999999999955 9.600000000000023-8 25.600000000000023 6.900000000000034 5.399999999999977 1.7000000000000455 10.899999999999977-1.7999999999999545 15.399999999999977-10.900000000000034 14.100000000000023-36.60000000000002 17.5-51.200000000000045 7.2000000000000455-27.599999999999966-19.600000000000023-27.599999999999966-19.600000000000023-67.79999999999995-22.200000000000045 49.39999999999998-35 96.5-59.099999999999966 161.2-40.799999999999955-14.199999999999989 6.399999999999977-23.19999999999999 10.799999999999955-32.400000000000034 14.799999999999955z m-178.79999999999998 110.39999999999998c-21.799999999999983 0-42-7-60.599999999999994-18.09999999999991-5.300000000000011-3.1000000000000227-10.400000000000006-5.2000000000000455-17-4.400000000000091-47.7 6.900000000000091-110.6 55.80000000000007-101.6 126 23.099999999999994-25.299999999999955 52.19999999999999-36.799999999999955 83.19999999999999-44.19999999999993 29.5-7.100000000000023 59.70000000000002-10.5 89.6-7.399999999999977 25.30000000000001 2.699999999999932 28.400000000000034-8.800000000000068 27-29.300000000000068-1.099999999999966-14.199999999999932-4.199999999999989-22.600000000000023-20.599999999999994-22.600000000000023z"/>
</svg>
