<svg xmlns="http://www.w3.org/2000/svg" viewBox="0 0 1000 1000" width="1000" height="1000">
<path d="M591.5 279.4c-24.200000000000045 1.900000000000034-52.10000000000002 3.8000000000000114-80 7.5-42.80000000000001 5.5-85.60000000000002 13-121 29.80000000000001-68.89999999999998 28-115.5 87.69999999999999-115.5 175.3 0 110 70.80000000000001 165.89999999999998 160.10000000000002 165.89999999999998 29.799999999999955 0 54-3.6000000000000227 76.29999999999995-9.299999999999955 35.39999999999998-11.200000000000045 65.20000000000005-31.700000000000045 100.5-69 20.5 28 26 41.10000000000002 61.5 70.79999999999995 9.300000000000068 3.800000000000068 18.600000000000023 3.800000000000068 26-1.8999999999999773 22.300000000000068-18.700000000000045 61.39999999999998-52.200000000000045 81.89999999999998-70.79999999999995 9.300000000000068-7.5 7.400000000000091-18.700000000000045 1.900000000000091-28-20.5-26.100000000000023-40.90000000000009-48.50000000000006-40.90000000000009-98.80000000000007v-167.79999999999995c0-70.90000000000003 5.5-136.10000000000002-46.5-184.50000000000003-42.799999999999955-39.199999999999996-109.79999999999995-54.099999999999994-161.89999999999998-54.099999999999994h-22.399999999999977c-95 5.600000000000001-195.5 46.599999999999994-217.89999999999998 164.1-3.7000000000000455 14.900000000000006 7.5 20.5 14.899999999999977 22.400000000000006l104.19999999999999 13c11.199999999999989-1.9000000000000057 16.69999999999999-11.199999999999989 18.600000000000023-20.599999999999994 9.399999999999977-41 42.80000000000001-61.5 80-65.20000000000002h7.499999999999943c22.300000000000068 0 46.5 9.400000000000006 59.60000000000002 27.900000000000006 14.800000000000068 22.400000000000006 13 52.30000000000001 13 78.4l0.10000000000002274 14.899999999999977z m0 108.20000000000005c0 42.89999999999998 1.7999999999999545 76.39999999999998-20.5 113.59999999999997-13 26.099999999999966-35.39999999999998 42.900000000000034-59.60000000000002 48.50000000000006-3.6999999999999886 0-9.299999999999955 1.8999999999999773-14.899999999999977 1.8999999999999773-40.89999999999998 0-65.19999999999999-31.700000000000045-65.19999999999999-78.40000000000003 0-59.599999999999966 35.39999999999998-87.69999999999999 80-100.69999999999999 24.19999999999999-5.600000000000023 52.19999999999999-7.399999999999977 79.99999999999994-7.399999999999977l0.20000000000004547 22.5z m342.79999999999995 523.4c45.5-38.5 64.70000000000005-108.39999999999998 65.70000000000005-144.89999999999998v-6.100000000000023c0-8.100000000000023-2-14.200000000000045-4-17.200000000000045-9.100000000000023-11.099999999999909-75.89999999999998-21.299999999999955-133.5-4.099999999999909-16.200000000000045 5.099999999999909-30.399999999999977 12.199999999999932-43.5 21.299999999999955-10.100000000000023 7.100000000000023-8.100000000000023 16.200000000000045 2 15.200000000000045 11.100000000000023-2.1000000000000227 25.299999999999955-3 41.5-5.100000000000023 35.39999999999998-2.8999999999999773 76.89999999999998-4 87 9.199999999999932 14.100000000000023 17.200000000000045-16.200000000000045 92.20000000000005-29.399999999999977 124.60000000000002-4 10.200000000000045 5.100000000000023 14.300000000000068 14.199999999999932 7.100000000000023z m-929.3-144.79999999999995c130.4 118.5 302.3 189.39999999999998 494.5 189.39999999999998 119.29999999999995 0 256.79999999999995-33.5 363-97.20000000000005 14.200000000000045-8.199999999999932 28.299999999999955-17.299999999999955 41.39999999999998-27.399999999999977 18.200000000000045-13.100000000000023 2-33.5-16.199999999999932-25.399999999999977l-25.300000000000068 10.199999999999932c-116.29999999999995 45.60000000000002-238.60000000000002 66.90000000000009-351.9 66.90000000000009-180 0-353.9-49.700000000000045-494.5-131.70000000000005-13-7.100000000000023-22.1 6-11 15.200000000000045z"/>
</svg>
