<svg xmlns="http://www.w3.org/2000/svg" viewBox="0 0 1000 1000" width="1000" height="1000">
<path d="M36.2 403c23.4-79.19999999999999 86.3-93.80000000000001 97.49999999999999-95.80000000000001 61.80000000000001-145.7 207.8-248.1 378.2-248.1 170.70000000000005 7.105427357601002e-15 316.9 102.80000000000001 378.6 248.9 1.7999999999999545 0.39999999999997726 3.7999999999999545 0.8999999999999773 6.2000000000000455 1.6999999999999886v-195.89999999999998c-21.90000000000009-8.800000000000011-37.30000000000007-30.000000000000014-37.30000000000007-54.70000000000001 0-32.6 26.899999999999977-59.1 60-59.1s60 26.5 60 59.1c0 27.999999999999993-19.799999999999955 51.300000000000004-46.19999999999993 57.49999999999999v211.4c19.399999999999977 14.100000000000023 39.69999999999993 37.10000000000002 50.89999999999998 75.10000000000002 0 0 20.100000000000023 97.19999999999999-12.800000000000068 121.69999999999993 0 0-16.09999999999991 22.600000000000023-62.799999999999955 40.10000000000002-3.6000000000000227 13.700000000000045-7.899999999999977 27.100000000000023-12.899999999999977 40.10000000000002-17.300000000000068 2.7000000000000455-36.10000000000002 6-55.80000000000007 10.100000000000023 28.700000000000045-49.700000000000045 45-106.60000000000002 45-167.10000000000002 0-194.6-168.5999999999999-352.2-376.49999999999994-352.2s-376.4 157.7-376.4 352.2c-2.842170943040401e-14 62.10000000000002 17.19999999999996 120.39999999999998 47.39999999999998 171.10000000000002-17.100000000000023-3.800000000000068-33.60000000000002-7-49.20000000000002-9.899999999999977-5.599999999999994-13.900000000000091-10.199999999999989-28.300000000000068-14.199999999999989-42.90000000000009l-0.7000000000000028-0.1999999999999318c-49.400000000000006-17.600000000000023-66.2-41.39999999999998-66.2-41.39999999999998-32.9-24.500000000000057-12.899999999999999-121.70000000000005-12.799999999999997-121.70000000000005z m463.8 434.29999999999995c-144.2-173.79999999999995-500-189.39999999999998-500-189.39999999999998v132.60000000000002c322.1 1.5 500 219.5 500 219.5s177.89999999999998-218 500-219.5v-132.70000000000005s-355.70000000000005 15.700000000000045-500 189.5z m340.20000000000005-328.19999999999993c0 41.5-7.900000000000091 81.10000000000002-22.100000000000023 117.69999999999993-109.89999999999998 24.800000000000068-242.70000000000005 72.40000000000009-318.1 163.10000000000002-72.19999999999999-87-197.39999999999998-134.29999999999995-304.5-160-15-37.39999999999998-23.30000000000001-78.10000000000002-23.30000000000001-120.79999999999995 0-181.70000000000005 149.60000000000002-329 334-329 184.50000000000006-2.842170943040401e-14 334.00000000000006 147.29999999999995 334.00000000000006 329z m-491.6-52.10000000000002c0-20.399999999999977-16.80000000000001-36.89999999999998-37.5-36.89999999999998s-37.5 16.5-37.5 36.89999999999998 16.799999999999955 36.89999999999998 37.5 36.89999999999998 37.5-16.5 37.5-36.89999999999998z m88.89999999999998-93.30000000000001c0-31.399999999999977-25.899999999999977-56.80000000000001-57.69999999999999-56.80000000000001-31.80000000000001 0-57.69999999999999 25.5-57.69999999999999 56.80000000000001s25.799999999999955 56.80000000000001 57.69999999999999 56.80000000000001c31.899999999999977 0 57.69999999999999-25.399999999999977 57.69999999999999-56.80000000000001z"/>
</svg>
