<svg xmlns="http://www.w3.org/2000/svg" viewBox="0 0 1000 1000" width="1000" height="1000">
<path d="M47.5 321.4c12.299999999999997-57 24.5-113.79999999999998 37.400000000000006-173.39999999999998 57 1.5999999999999943 113.79999999999998 1.3000000000000114 170.2 5.699999999999989 32.099999999999994 2.5 57.599999999999994 20.200000000000017 65.20000000000002 54.900000000000006 7.699999999999989 34.900000000000006-6.400000000000034 69.6-35.80000000000001 89.6-22.899999999999977 15.600000000000023-48.900000000000006 22.5-76 23-52.900000000000006 0.9000000000000341-106 0.19999999999998863-161 0.19999999999998863z m-11 91c57.3 0 112.5-2.1999999999999886 167.5 0.8000000000000114 38.30000000000001 2.1000000000000227 63.10000000000002 26 69.10000000000002 56.69999999999999 7.099999999999966 36.200000000000045-7 73.39999999999998-40.00000000000003 90.20000000000005-21.900000000000006 11.199999999999932-47.29999999999998 19.699999999999932-71.6 21.199999999999932-52.900000000000006 3.1000000000000227-106.2 1-161.6 1 12.499999999999995-57.59999999999991 24.699999999999996-114.29999999999995 36.599999999999994-169.89999999999998z m317.9 168.80000000000007c12.300000000000011-56.90000000000009 24.600000000000023-113.70000000000005 37.5-173.50000000000006 57.10000000000002 1.6999999999999886 114 1.3000000000000114 170.39999999999998 6 31.200000000000045 2.6000000000000227 56.700000000000045 20.19999999999999 64.70000000000005 53.900000000000034 8.200000000000045 34.69999999999999-5.7999999999999545 70-34.60000000000002 90.19999999999993-24.600000000000023 17.200000000000045-53 23.600000000000023-82.09999999999997 24.40000000000009-50 1.3999999999999773-100.10000000000002 0.5-150.10000000000002 0.5-1.3999999999999773 0.09999999999990905-2.8999999999999773-0.7000000000000455-5.800000000000011-1.5z m47.5-259.90000000000003c12.300000000000011-57.19999999999999 24.5-113.5 37-171.70000000000002 9.900000000000034 0 19.700000000000045-0.19999999999998863 29.600000000000023 0 46.799999999999955 1 93.70000000000005 0 140.20000000000005 4 32.19999999999993 2.700000000000017 57.89999999999998 19.80000000000001 65.79999999999995 54.30000000000001 8.200000000000045 35.5-6.2999999999999545 70.6-36.39999999999998 90.79999999999998-22.5 15.100000000000023-47.89999999999998 21.900000000000034-74.5 22.400000000000034-53 0.7999999999999545-106.10000000000002 0.19999999999998863-161.70000000000005 0.19999999999998863z m-98.09999999999997 530c12.099999999999966-56.299999999999955 24.30000000000001-112.59999999999991 36.89999999999998-171 11.699999999999989 0 23.19999999999999-0.09999999999990905 34.60000000000002 0 37.39999999999998 0.20000000000004547 74.89999999999998 0.3000000000000682 112.30000000000001 0.900000000000091 9.399999999999977 0.1999999999999318 19 1.3999999999999773 28.100000000000023 3.599999999999909 29.399999999999977 7.100000000000023 53.59999999999991 21.700000000000045 60.39999999999998 53.30000000000007 7.100000000000023 33.19999999999993-1.7000000000000455 62.799999999999955-28.100000000000023 85.60000000000002-19.399999999999977 16.799999999999955-43.30000000000001 26.09999999999991-67.89999999999998 26.899999999999977-57.900000000000034 2-115.80000000000001 0.6999999999999318-176.3 0.6999999999999318z m421.49999999999994-376.49999999999994c10.200000000000045-47.10000000000002 20.300000000000068-94.19999999999999 30.600000000000023-141.3 6.5-29.399999999999977 6.7000000000000455-29.399999999999977 36.30000000000007-29.30000000000001 38.39999999999998 0.10000000000002274 76.89999999999998 0.10000000000002274 115.29999999999995 0.6000000000000227 9.399999999999977 0.0999999999999659 18.899999999999977 1.3000000000000114 28.100000000000023 3.3999999999999773 31.100000000000023 7.199999999999989 56.19999999999993 22.100000000000023 62.5 56.400000000000034 6.399999999999977 34.5-3.2000000000000455 65.29999999999995-32.39999999999998 84.59999999999997-18.600000000000023 12.400000000000034-41.90000000000009 23.100000000000023-63.60000000000002 24.400000000000034-58.10000000000002 3.3999999999999773-116.60000000000002 1.1999999999999886-176.80000000000007 1.1999999999999886z m-51.19999999999993 272.2c9.299999999999955-43.39999999999998 18.100000000000023-85.60000000000002 27.399999999999977-127.60000000000002 3.2000000000000455-14.699999999999932 3.3999999999999773-34.299999999999955 12.899999999999977-42.19999999999993 8.800000000000068-7.400000000000091 28.100000000000023-2.800000000000068 42.80000000000007-2.6000000000000227 38.5 0.5 77 0.10000000000002274 115.29999999999995 2.7999999999999545 47.10000000000002 3.3999999999999773 77.79999999999995 34.30000000000007 76.5 74.5-1.2000000000000455 36.200000000000045-17.5 64.20000000000005-50.89999999999998 79.10000000000002-17.5 7.7999999999999545-37 14.600000000000023-55.80000000000007 15.299999999999955-55.19999999999993 2-110.5 0.7000000000000455-168.19999999999993 0.7000000000000455z"/>
</svg>
