<svg xmlns="http://www.w3.org/2000/svg" viewBox="0 0 1000 1000" width="1000" height="1000">
<path d="M258.5 445.9c1.8999999999999773-16.5 2-32.799999999999955 12.699999999999989-46.19999999999999 12.100000000000023-15.199999999999989 28.600000000000023-21.099999999999966 47.19999999999999-22.80000000000001 2.5-0.19999999999998863 5-0.19999999999998863 7.600000000000023-0.19999999999998863 121.39999999999998 0 242.79999999999995-0.0999999999999659 364.29999999999995 0.10000000000002274 7.5 0 15.200000000000045 1 22.5 2.8000000000000114 19.800000000000068 4.7999999999999545 32.10000000000002 20.19999999999999 32.40000000000009 40.69999999999999 0.09999999999990905 7.699999999999989-1 15.399999999999977-1.8000000000000682 23.099999999999966-0.10000000000002274 1-1.6999999999999318 1.900000000000034-2.7999999999999545 2.5-0.8999999999999773 0.4000000000000341-2.1000000000000227 0.10000000000002274-3.1000000000000227 0.10000000000002274l-479-0.10000000000002274z m145.8 111.5c1.1999999999999886-9.399999999999977 2.3000000000000114-18.399999999999977 3.5-27.899999999999977h-5.600000000000023c-34.69999999999999 0-69.39999999999998 0.10000000000002274-104.09999999999997 0-5.300000000000011 0-10.800000000000011-0.6000000000000227-15.900000000000034-1.8999999999999773-15.800000000000011-4.100000000000023-26.399999999999977-17-27.69999999999999-34-0.5-6.900000000000034-0.09999999999999432-13.900000000000034-0.09999999999999432-21.400000000000034h180.99999999999997c12.100000000000023 0 23.80000000000001 1.900000000000034 34.200000000000045 8.5 13 8.199999999999989 18.899999999999977 20.69999999999999 18.69999999999999 35.50000000000006-0.10000000000002274 12.799999999999955-2.1999999999999886 25.5-3.6000000000000227 38.19999999999993-0.8000000000000114 6.899999999999977-2.1999999999999886 13.800000000000068-3.1999999999999886 20.700000000000045-3.3999999999999773 23.299999999999955-17.600000000000023 37.299999999999955-39.39999999999998 43.69999999999993-9.300000000000011 2.800000000000068-19.30000000000001 4.300000000000068-29 4.400000000000091-56.5 0.39999999999997726-113 0.1999999999999318-169.40000000000003 0.1999999999999318h-7.199999999999989c0.09999999999999432-1.7999999999999545 0.09999999999999432-3.199999999999932 0.19999999999998863-4.600000000000023 2.3000000000000114-18.5 4.700000000000017-36.89999999999998 6.700000000000017-55.39999999999998 0.5-4.699999999999932 2-6 6.799999999999983-6 49.60000000000002 0.20000000000004547 99.30000000000001 0.10000000000002274 148.90000000000003 0.10000000000002274l5.199999999999989-0.10000000000002274z m-176.3 0c-0.9000000000000057 7.300000000000068-1.5999999999999943 13.899999999999977-2.4000000000000057 20.5-1.6999999999999886 13.700000000000045-3.5 27.5-5.099999999999994 41.200000000000045-0.4000000000000057 3.199999999999932-1.3000000000000114 4.2999999999999545-4.599999999999994 4.2999999999999545-70.6-0.10000000000002274-141.3-0.10000000000002274-211.9-0.10000000000002274-1.2000000000000002 0-2.3-0.1999999999999318-4-0.39999999999997726 1.2-9.600000000000023 2.3-18.899999999999977 3.4-28.199999999999932 4.4-35.30000000000007 8.799999999999999-70.60000000000002 13.1-105.90000000000003 0.6000000000000014-4.600000000000023 1.3000000000000007-9.100000000000023 1.6999999999999993-13.699999999999989 0.1999999999999993-2.2000000000000455 1-3.3000000000000114 3.3000000000000007-3 0.8999999999999986 0.0999999999999659 1.8000000000000007 0 2.6999999999999993 0h214.4c-2.4000000000000057 19.19999999999999-4.699999999999989 38-7.099999999999994 57.299999999999955h-137.5c-1.2000000000000028 9.399999999999977-2.299999999999997 18.399999999999977-3.5 28h137.5z m358.1-27.899999999999977c-3.8999999999999773 31.5-7.800000000000068 62.299999999999955-11.700000000000045 93.5h-82.29999999999995c6.199999999999989-50.299999999999955 12.399999999999977-100.39999999999998 18.5-150.7h229.89999999999998c-2.2000000000000455 10.800000000000011-3.2000000000000455 21.599999999999966-6.7000000000000455 31.5-5.5 15.300000000000011-18.399999999999977 22.400000000000034-33.89999999999998 24.80000000000001-4.399999999999977 0.6999999999999318-8.899999999999977 0.8999999999999773-13.399999999999977 0.8999999999999773-31.600000000000023 0.10000000000002274-63.200000000000045 0-94.70000000000005 0h-5.699999999999932z m173.5-83.60000000000002c2.8999999999999773-23.599999999999966 5.7999999999999545-46.299999999999955 8.600000000000023-69.29999999999995h4.7999999999999545c58.200000000000045 0 116.5-0.20000000000004547 174.70000000000005 0.19999999999998863 8.5 0.0999999999999659 17.299999999999955 1.599999999999966 25.299999999999955 4.399999999999977 17.100000000000023 5.900000000000034 25.799999999999955 19.19999999999999 26.899999999999977 36.900000000000034 0.5 8.199999999999989-0.6999999999999318 16.599999999999966-1.5 24.899999999999977-0.10000000000002274 1.1000000000000227-2 2.5-3.2999999999999545 2.8000000000000114-2.1000000000000227 0.5-4.399999999999977 0.0999999999999659-6.7000000000000455 0.0999999999999659h-228.79999999999995z m-509.1-69.09999999999997c-2.9000000000000057 23-5.699999999999989 45.80000000000001-8.5 68.80000000000001h-220c2.8999999999999986-23.100000000000023 5.699999999999999-45.80000000000001 8.5-68.80000000000001h220z m487.1 245.59999999999997c6.199999999999932-49.799999999999955 12.299999999999955-99.69999999999993 18.600000000000023-149.89999999999998h82.29999999999995c-0.5 4.699999999999989-1 9.399999999999977-1.5 14l-12.200000000000045 97.5c-1.5 12.100000000000023-2.8999999999999773 24.200000000000045-4.599999999999909 36.299999999999955-0.10000000000002274 1.1000000000000227-1.8000000000000682 2.800000000000068-2.800000000000068 2.800000000000068-26.199999999999932 0.10000000000002274-52.39999999999998 0-78.60000000000002 0-0.1999999999999318 0-0.2999999999999545-0.20000000000004547-1.1999999999999318-0.7000000000000455z m238.39999999999998 0.7000000000000455h-82.39999999999998l18.799999999999955-150.60000000000002h82.39999999999998l-18.799999999999955 150.60000000000002z"/>
</svg>
