<svg xmlns="http://www.w3.org/2000/svg" viewBox="0 0 1000 1000" width="1000" height="1000">
<path d="M472.6 570.9c-0.5 6-2.3000000000000114 11.100000000000023-6 15.300000000000068-4.2000000000000455 3.699999999999932-9.300000000000011 5.5-15.300000000000011 6h-46.30000000000001c-6-0.5-11.100000000000023-2.300000000000068-14.800000000000011-6-4.199999999999989-4.2000000000000455-6-9.300000000000068-6.5-15.300000000000068v-132.89999999999998h-79.19999999999999v139.79999999999995c0 18.5 3.6999999999999886 34.700000000000045 11.100000000000023 47.60000000000002 7.399999999999977 12.899999999999977 18 22.700000000000045 31.5 29.200000000000045 13.899999999999977 6.5 29.19999999999999 10.199999999999932 47.69999999999999 10.199999999999932h77.80000000000001v-0.8999999999999773c16.69999999999999 0 31-3.699999999999932 42.60000000000002-10.699999999999932 11.599999999999909-7.400000000000091 20.899999999999977-17.600000000000023 27.299999999999955-30.600000000000023 6-12.899999999999977 9.299999999999955-28.300000000000068 9.700000000000045-44.89999999999998v-139.70000000000005h-79.70000000000005v132.89999999999998z m-269.40000000000003-124.59999999999997c-13.899999999999977-6-29.19999999999999-8.800000000000011-45.79999999999998-8.300000000000011h-51.400000000000006l-19.900000000000006 2.3000000000000114c-4.599999999999994 1.3999999999999773-7 2.3000000000000114-7 2.3000000000000114v-107.40000000000003h-79.1v329.59999999999997h79.2v-133.29999999999995c0.5-5.5 2.299999999999997-11.100000000000023 6.5-14.799999999999955 4.200000000000003-3.7000000000000455 8.799999999999997-6.000000000000057 15.299999999999997-6.000000000000057h46.30000000000001c5.5 0 10.599999999999994 2.3000000000000114 14.799999999999983 6.000000000000057 4.200000000000017 3.699999999999932 6 9.299999999999955 6.5 14.799999999999955v133.29999999999995h79.20000000000002v-143.5c0-19.899999999999977-4.200000000000017-36.099999999999966-12-48.599999999999966-8.5-12-19.200000000000017-20.899999999999977-32.60000000000002-26.399999999999977z m409.3-111.10000000000002h79.20000000000005v329.59999999999997h-79.20000000000005z m387.4 102.80000000000001h-79.60000000000002v132.89999999999998c0 6-2.2999999999999545 11.100000000000023-6 15.300000000000068-3.699999999999932 3.699999999999932-8.799999999999955 5.5-14.799999999999955 6h-46.299999999999955c-6.5-0.5-11.600000000000023-2.300000000000068-15.300000000000068-6-3.699999999999932-4.2000000000000455-6-9.300000000000068-6-15.300000000000068v-132.89999999999998h-79.60000000000002v139.79999999999995c0.5 18.5 3.7000000000000455 34.700000000000045 11.600000000000023 47.60000000000002 7.899999999999977 12.899999999999977 18 22.700000000000045 31.5 29.200000000000045 13.899999999999977 6.5 29.600000000000023 10.199999999999932 47.700000000000045 10.199999999999932h77.29999999999995v-0.8999999999999773c16.700000000000045 0 31-3.699999999999932 43.10000000000002-10.699999999999932 11.600000000000023-7.400000000000091 20.899999999999977-17.600000000000023 26.799999999999955-30.600000000000023 6.5-12.899999999999977 9.700000000000045-28.300000000000068 9.700000000000045-44.89999999999998l-0.10000000000002274-139.70000000000005z"/>
</svg>
