<svg xmlns="http://www.w3.org/2000/svg" viewBox="0 0 1000 1000" width="1000" height="1000">
<path d="M653.1 840.6c-47.700000000000045 2.3999999999999773-94-8.800000000000068-139.39999999999998-26.200000000000045-9.700000000000045-3.699999999999932-23.700000000000045-1.5-33.900000000000034 2.5-128.5 50.39999999999998-283.4 25.899999999999977-383-80.89999999999998-92.50000000000001-99.20000000000005-120.10000000000001-216.5-76.80000000000001-344.6 43.3-128.09999999999997 136.6-203.99999999999997 270-228.29999999999998 66.5-12.099999999999994 131.7-4.599999999999994 193.8 22.5 15.599999999999966 6.800000000000011 27.19999999999999 1.5 40.80000000000001-3.299999999999983 131.79999999999995-46.60000000000002 253.60000000000002-29.100000000000023 360.1 63.29999999999998 171.29999999999995 148.6 148 422.6-44.700000000000045 543-56.89999999999998 35.60000000000002-118.29999999999995 54.69999999999993-186.89999999999998 52z m-80.39999999999998-80c114.19999999999993 37.69999999999993 244.5999999999999-9 311.69999999999993-109.30000000000007 67.60000000000002-101 60.30000000000007-234.39999999999998-17.699999999999932-326.29999999999995-78.90000000000009-92.9-203.20000000000005-117.30000000000001-291.30000000000007-85.30000000000001 49.10000000000002 47.400000000000034 87.39999999999998 101.10000000000002 105.70000000000005 169.5-20.100000000000023 0-37.39999999999998-1-54.5 0.30000000000001137-12.800000000000068 1-18.700000000000045-3.3999999999999773-23.899999999999977-15.100000000000023-19.700000000000045-44.799999999999955-49.10000000000002-82.39999999999998-88-112.5-10.300000000000068-8-17.500000000000057-8.399999999999977-28.100000000000023-0.0999999999999659-39.200000000000045 30.899999999999977-68.60000000000002 69-89.80000000000001 114.09999999999997-2.6999999999999886 5.800000000000011-10.100000000000023 12.700000000000045-15.800000000000011 13.200000000000045-19.19999999999999 1.6999999999999886-38.60000000000002 0.5999999999999659-60.19999999999999 0.5999999999999659 17.399999999999977-70 56.30000000000001-123.59999999999997 106.89999999999998-170.79999999999998-108-39-242.79999999999998 9.199999999999989-310.5 109.4-68.6 101.59999999999997-59.59999999999999 239.09999999999997 19.700000000000017 329.7 77.5 88.60000000000002 205.9 116.29999999999995 287.1 81.79999999999995-80.5-92.5-116.5-165.69999999999993-112.39999999999998-230.29999999999995h161.7v66.20000000000005h-75.69999999999999c7.399999999999977 39.59999999999991 66.69999999999999 117 98.19999999999999 128.5 4.399999999999977 1.599999999999909 12.199999999999989-1.6000000000000227 16.69999999999999-4.900000000000091 38.799999999999955-28.799999999999955 68.5-65.19999999999993 88.39999999999998-109.39999999999998 1.8000000000000682-4.100000000000023 2.2000000000000455-8.799999999999955 3.800000000000068-15.899999999999977h-76.90000000000009v-64.20000000000005h165c-10.899999999999977 92.70000000000005-49.89999999999998 168.5-120.09999999999991 230.80000000000007z"/>
</svg>
