<svg xmlns="http://www.w3.org/2000/svg" viewBox="0 0 1000 1000" width="1000" height="1000">
<path d="M964.8 440l9-175.5h-336.0999999999999l-50.200000000000045 272.20000000000005 1.3999999999999773 0.1999999999999318c-4.199999999999932 8.5-7.399999999999977 17.800000000000068-9.299999999999955 27.5v43.39999999999998h33.299999999999955v64.60000000000002c34.200000000000045 36.700000000000045 92.39999999999998 63.5 172.5 63.5 126.30000000000007 0 214.60000000000002-79.89999999999998 214.60000000000002-194.19999999999993-0.10000000000002274-35.60000000000002-12-72.30000000000007-35.200000000000045-101.70000000000005z m-176 252.39999999999998c-102.39999999999998 0-164.5999999999999-52.69999999999993-164.5999999999999-104.39999999999998 0-34.799999999999955 23.899999999999977-66.60000000000002 66.09999999999991-66.60000000000002 29.300000000000068 0 44.200000000000045 19.399999999999977 44.200000000000045 42.30000000000007 0 12.399999999999977-5 17.399999999999977-5 27.299999999999955 0 13.899999999999977 6.5 23.399999999999977 29.899999999999977 23.399999999999977 32.80000000000007 0 48.700000000000045-34.299999999999955 48.700000000000045-68.60000000000002 0-30.299999999999955-11.899999999999977-53.19999999999993-37.80000000000007-53.19999999999993-18.899999999999977 0-28.799999999999955 7.5-32.799999999999955 19.399999999999977l-95.5-12.399999999999977 35.5-191.60000000000002h254.10000000000002l-5 96.39999999999998h-168.60000000000002l-9.399999999999977 50.700000000000045c11-16.900000000000034 45.799999999999955-31.30000000000001 90.5-31.30000000000001 79.5 0 120.79999999999995 61.099999999999966 120.79999999999995 117.90000000000003 0 83.59999999999991-60.19999999999993 150.69999999999993-171.10000000000002 150.69999999999993z m-165.69999999999993-128.10000000000002v-273.4h-184.60000000000002v84.5h-61.10000000000002v162.20000000000005h33.30000000000001v26.799999999999955h-33.30000000000001v162.20000000000005h279v-162.30000000000007h-33.299999999999955z m-141-229.89999999999998h97.5v64.60000000000002h-97.5v-64.60000000000002z m130.69999999999993 348.6h-191.89999999999998v-75.10000000000002h33.30000000000001v-113.89999999999998h-33.30000000000001v-75.10000000000002h158.60000000000002v189h33.299999999999955v75.10000000000002z m-191.89999999999998 0v-75.10000000000002h32.60000000000002v-43.60000000000002h-33.30000000000001v-63.89999999999998c0-74.39999999999998-51.599999999999966-130.5-120.09999999999997-130.5-19.900000000000034 0-38.10000000000002 3.900000000000034-54.400000000000034 10.400000000000034v-115.80000000000001h-245.7v162.2h32.8v137.59999999999997h-32.8v162.20000000000005h453.5v-43.60000000000002l-32.60000000000002 0.10000000000002274z m-10.899999999999977 0h-173.5v-75.10000000000002h14.900000000000006v-74.10000000000002c0-22.899999999999977-1.5-43.69999999999993-14.900000000000006-43.69999999999993-12.900000000000006 0-25.900000000000006 16.399999999999977-34.30000000000001 49.69999999999993v68.10000000000002h14.400000000000006v75.10000000000002h-173v-75.10000000000002h32.80000000000001v-224.7h-32.800000000000004v-75.09999999999997h158.6v167.5c16.900000000000006-31.80000000000001 51.70000000000002-62.200000000000045 98-62.200000000000045 44.19999999999999 0 76.60000000000002 37.30000000000001 76.60000000000002 87v107.39999999999998h33.19999999999999v75.20000000000005z"/>
</svg>
