<svg xmlns="http://www.w3.org/2000/svg" viewBox="0 0 1000 1000" width="1000" height="1000">
<path d="M0 493.9v64.5h45.6l-0.30000000000000426-43h71.7v-23.19999999999999h-74v-21.5h80v-29.19999999999999h-83.4c-40.39999999999999 4.199999999999989-39.599999999999994 52.39999999999998-39.599999999999994 52.39999999999998z m276.4-15.699999999999989c-2.599999999999966-28-37.39999999999998-36.099999999999966-37.39999999999998-36.099999999999966h-67.5c-30.5 3-38.69999999999999 32.19999999999999-38.69999999999999 32.19999999999999v46.400000000000034c3.8999999999999773 31.399999999999977 33.5 37 33.5 37h77.39999999999998c30.5-9.5 32.69999999999999-32.700000000000045 32.69999999999999-32.700000000000045v-46.80000000000001z m-41.69999999999999 49.400000000000034h-60.599999999999994l0.4000000000000057-55.900000000000034h60.19999999999999v55.900000000000034z m426.50000000000006-85.5h-67.5c-30.5 3-38.700000000000045 32.19999999999999-38.700000000000045 32.19999999999999v46.400000000000034c3.8999999999999773 31.399999999999977 33.5 37 33.5 37h77.39999999999998c30.5-9.5 32.700000000000045-32.700000000000045 32.700000000000045-32.700000000000045v-46.89999999999998c-2.5-27.80000000000001-37.39999999999998-36-37.39999999999998-36z m-4.300000000000068 85.5h-60.60000000000002l0.40000000000009095-55.900000000000034h60.19999999999993v55.900000000000034z m-232.09999999999997-85.5h-49.400000000000034l-24.299999999999955 24.299999999999955-25.200000000000045-25.099999999999966h-52l47.30000000000001 58.89999999999998-47.69999999999999 58.00000000000006 53.30000000000001-0.40000000000009095 23.599999999999966-24.09999999999991 24.100000000000023 24.899999999999977 52.5-2.1000000000000227-46.89999999999998-57.60000000000002 44.69999999999999-56.799999999999955z m0.39999999999997726 36.299999999999955c-1.3000000000000114 6.400000000000034-3 25.400000000000034 1.6999999999999886 47.30000000000007l0.30000000000001137 1.1999999999999318c5.699999999999989 21.100000000000023 38.400000000000034 31.5 38.400000000000034 31.5h80v-31.799999999999955h-79.5v-52h80.79999999999995v-33.10000000000002h-80c-36.099999999999966 3.3999999999999773-41.69999999999999 36.89999999999998-41.69999999999999 36.89999999999998z m389.50000000000006-37.39999999999998h-105.70000000000005v117.79999999999995h42.5v-84.69999999999993h55.5l0.7999999999999545 83.89999999999998 43-0.7999999999999545v-78.70000000000005c-2.5-28.899999999999977-36.09999999999991-37.5-36.09999999999991-37.5z m149.19999999999993 0h-105.79999999999995v117.79999999999995h42.5v-84.69999999999993h55.5l0.7999999999999545 83.89999999999998 43-0.7999999999999545v-78.70000000000005c-2.3999999999999773-28.899999999999977-36-37.5-36-37.5z"/>
</svg>
