<svg xmlns="http://www.w3.org/2000/svg" viewBox="0 0 1000 1000" width="1000" height="1000">
<path d="M571 250.1v-97.9c133.29999999999995 30.80000000000001 229.5 122.60000000000002 260.1 267h-97.39999999999998c-25.200000000000045-88.89999999999998-84.90000000000009-143.8-162.70000000000005-169.1z m-144.39999999999998-0.09999999999999432v-97.80000000000001c-155.60000000000002 30.80000000000001-237.3 122.60000000000002-267.90000000000003 267h97.5c25.19999999999999-88.89999999999998 92.60000000000002-143.8 170.40000000000003-169.2z m-170.5 302.5h-97.40000000000003c30.700000000000017 166.70000000000005 112.30000000000001 244.10000000000002 267.90000000000003 274.9v-97.79999999999995c-77.80000000000001-25.399999999999977-145.10000000000002-99.30000000000007-170.5-177.10000000000002z m680.9-62.60000000000002c0 245.20000000000005-197.89999999999998 443.9-442.1 443.9s-442-198.79999999999995-442-443.9c2.1316282072803006e-14-245.2 197.90000000000003-443.9 442-443.9s442.1 198.7 442.1 443.9z m-44.299999999999955-0.0999999999999659c0-220.60000000000002-178.10000000000002-399.5-397.80000000000007-399.5s-397.7 178.89999999999998-397.7 399.5 178 399.40000000000003 397.8 399.40000000000003c219.60000000000002 0 397.70000000000005-178.80000000000007 397.70000000000005-399.40000000000003z m-397.80000000000007 202.3c-111.29999999999995-0.10000000000002274-201.39999999999998-90.60000000000002-201.59999999999997-202.3 0.19999999999998863-111.80000000000001 90.19999999999999-202.2 201.59999999999997-202.40000000000003 111.39999999999998 0.20000000000004547 201.39999999999998 90.60000000000002 201.5 202.40000000000003-0.10000000000002274 111.80000000000001-90.10000000000002 202.2-201.5 202.3z m156.80000000000007-202.20000000000005c0-87-70.10000000000002-157.5-156.70000000000005-157.5s-156.8 70.5-156.8 157.5c0 86.89999999999998 70.19999999999999 157.39999999999998 156.8 157.39999999999998 86.60000000000002-0.09999999999990905 156.70000000000005-70.59999999999991 156.70000000000005-157.39999999999998z m-80.70000000000005 239.60000000000002v97.79999999999995c133.29999999999995-30.799999999999955 229.5-108.19999999999993 260.1-274.9h-97.39999999999998c-25.300000000000068 77.89999999999998-84.90000000000009 151.80000000000007-162.70000000000005 177.10000000000002z m380.1 19.399999999999977c-27 0-49 22-49 49.200000000000045s22 49.19999999999993 49 49.19999999999993 48.89999999999998-22 48.89999999999998-49.19999999999993c0-27.200000000000045-21.899999999999977-49.200000000000045-48.89999999999998-49.200000000000045z m-118.39999999999998 125.39999999999998c-34.60000000000002 0-62.60000000000002 28.100000000000023-62.60000000000002 62.90000000000009 0 34.69999999999993 28 62.89999999999998 62.60000000000002 62.89999999999998 34.5 0 62.59999999999991-28.200000000000045 62.59999999999991-62.89999999999998 0-34.80000000000007-28.09999999999991-62.90000000000009-62.59999999999991-62.90000000000009z m102.69999999999993-285.29999999999995c-15.799999999999955 0-28.600000000000023 12.899999999999977-28.600000000000023 28.700000000000045s12.800000000000068 28.699999999999932 28.600000000000023 28.699999999999932 28.600000000000023-12.799999999999955 28.600000000000023-28.699999999999932-12.700000000000045-28.700000000000045-28.600000000000023-28.700000000000045z m-866.4 332.70000000000005c-17.4 0-31.5 14.199999999999932-31.5 31.59999999999991 0 17.5 14.100000000000001 31.600000000000023 31.5 31.600000000000023 17.299999999999997 0 31.400000000000006-14.199999999999932 31.400000000000006-31.600000000000023 0-17.399999999999977-14.100000000000009-31.59999999999991-31.400000000000006-31.59999999999991z m-9.899999999999999-166.10000000000002c-16.6 0-30.1 13.5-30.1 30.100000000000023s13.5 30.199999999999932 30.1 30.199999999999932 29.999999999999993-13.600000000000023 29.999999999999993-30.199999999999932-13.399999999999991-30.100000000000023-29.999999999999993-30.100000000000023z m98.20000000000002 76c-22.200000000000017 0-40.30000000000001 18.100000000000023-40.30000000000001 40.39999999999998 0 22.399999999999977 18.099999999999994 40.39999999999998 40.30000000000001 40.39999999999998 22.299999999999983 0 40.29999999999998-18.100000000000023 40.29999999999998-40.39999999999998 0-22.200000000000045-18-40.39999999999998-40.29999999999998-40.39999999999998z m794.0999999999999-612.6c-11.599999999999909 0-20.899999999999864 9.400000000000006-20.899999999999864 21.099999999999994 0 11.599999999999994 9.299999999999955 21.00000000000003 20.899999999999977 21.00000000000003 11.600000000000023 0 21-9.500000000000028 21-21.00000000000003 0-11.699999999999989-9.399999999999977-21.099999999999994-21-21.099999999999994z m-915.9999999999999-88.5c-19.49999999999998 0-35.39999999999998 15.900000000000006-35.39999999999998 35.5s15.9 35.5 35.4 35.5 35.4-15.900000000000006 35.4-35.5-15.799999999999997-35.5-35.4-35.5z m81.20000000000002-130.5c-24.599999999999994 0-44.39999999999999 19.9-44.39999999999999 44.6 0 24.6 19.89999999999999 44.6 44.5 44.6 24.499999999999986 0 44.39999999999999-19.900000000000006 44.39999999999999-44.6-0.09999999999999432-24.700000000000003-19.900000000000006-44.6-44.5-44.6z m-69.6 276.6c-12.399999999999999 0-22.3 10-22.3 22.399999999999977 0 12.300000000000011 10.000000000000004 22.399999999999977 22.3 22.399999999999977s22.299999999999997-10 22.299999999999997-22.399999999999977-10-22.399999999999977-22.299999999999997-22.399999999999977z"/>
</svg>
