<svg xmlns="http://www.w3.org/2000/svg" viewBox="0 0 1000 1000" width="1000" height="1000">
<path d="M849.2 500.8c0-158.10000000000002-0.3000000000000682-316.1 0.39999999999997726-474.2 0.10000000000002274-19.100000000000023-2.3999999999999773-26.700000000000024-24.800000000000068-26.600000000000023-216.79999999999995 1-433.49999999999994 0.8-650.3 0.2-18.30000000000001 0-23.5 4.3999999999999995-23.5 23.2 0.5999999999999943 317.70000000000005 0.5999999999999943 635.4 0 953.2 0 19.100000000000023 5.900000000000006 23.399999999999977 24 23.399999999999977 216.8-0.6000000000000227 433.5-0.6000000000000227 650.3 0.10000000000002274 19.90000000000009 0.10000000000002274 24.40000000000009-6 24.300000000000068-25-0.7000000000000455-158.20000000000005-0.39999999999997726-316.20000000000005-0.39999999999997726-474.3z m-123.40000000000009 397.59999999999997c-151-0.7999999999999545-301.9-0.6999999999999318-452.9 0-17.099999999999966 0.10000000000002274-20.299999999999983-5.600000000000023-20.299999999999983-21.299999999999955 0.5-251.10000000000002 0.5-502.20000000000005 0-753.3000000000001 0-16.69999999999996 3.3000000000000114-22.89999999999995 21.700000000000017-22.89999999999995 150.2 0.7999999999999972 300.40000000000003 0.7999999999999972 450.59999999999997 0 19.700000000000045-0.10000000000000853 22.899999999999977 6.8999999999999915 22.700000000000045 24.19999999999999-0.6000000000000227 124.4-0.3000000000000682 248.70000000000002-0.3000000000000682 373.1 0 126-0.2999999999999545 251.89999999999998 0.40000000000009095 377.79999999999995 0.09999999999990905 17.299999999999955-3.900000000000091 22.600000000000023-21.90000000000009 22.399999999999977z"/>
</svg>
