<svg xmlns="http://www.w3.org/2000/svg" viewBox="0 0 1000 1000" width="1000" height="1000">
<path d="M504 0c279.5 1.7 505.70000000000005 234.7 495.9 518.2-9.299999999999955 267.0999999999999-232.79999999999995 486.4-508.5 481.69999999999993-270-4.5-499.09999999999997-226.29999999999995-491.2-514.9 7.400000000000011-270.4 228.70000000000002-486.4 503.8-485z m45.799999999999955 181.9c20.200000000000045-50.599999999999994 0.900000000000091-90-51.39999999999998-104.4-27.299999999999955-7.5-55.299999999999955-9-82.89999999999998-4-88.30000000000001 15.700000000000003-166.8 52.2-233.5 112.9-46.80000000000001 42.599999999999994-82.7 92.29999999999998-97.5 154.9-10.900000000000006 46.39999999999998 14.400000000000006 90.59999999999997 59.69999999999999 106.5 25.900000000000006 12.399999999999977 53.20000000000002 16.099999999999966 81.30000000000001 11.599999999999966 40.10000000000002-6.399999999999977 75.5-24.799999999999955 109-46.5 68.69999999999999-44.299999999999955 127.19999999999999-99.79999999999995 176.5-164.89999999999998 15.5-20.5 30.100000000000023-41.599999999999994 38.799999999999955-66.1z m-409.29999999999995 361.20000000000005c-33.8-16.600000000000023-62.099999999999994-40.400000000000034-86.7-69.80000000000001-5.699999999999996 21.399999999999977-3.1999999999999957 65.19999999999999 2.8000000000000043 100.40000000000003 30.699999999999996 177.79999999999995 211.1 371.0999999999999 476.4 332.5999999999999 69-10 131.5-35.19999999999993 188.29999999999995-75.09999999999991 101.20000000000005-70.90000000000009 155.20000000000005-168.5 159-291.80000000000007 2.300000000000068-75.79999999999995-34.09999999999991-132-99.79999999999995-169.39999999999998-19.899999999999977-12.699999999999989-42.10000000000002-17.899999999999977-65.39999999999998-18.899999999999977-42-1.900000000000034-80.30000000000007 11.099999999999966-116.60000000000002 30.5-30.5 16.299999999999955-58.799999999999955 36.19999999999999-87.60000000000002 55.19999999999999-54.299999999999955 35.80000000000001-108.69999999999999 71.5-169.29999999999995 96.30000000000001-65.80000000000001 27-132.50000000000003 38.39999999999998-201.10000000000002 10z"/>
</svg>
