<svg xmlns="http://www.w3.org/2000/svg" viewBox="0 0 1000 1000" width="1000" height="1000">
<path d="M439.3 405.4c-17-17-40.19999999999999-26.599999999999966-64.30000000000001-26.599999999999966h-132.6v242.40000000000003h90.9v-151.50000000000006h29.099999999999966c8 0 15.800000000000011 3.1999999999999886 21.400000000000034 8.900000000000034l31.399999999999977 31.399999999999977c5.699999999999989 5.7000000000000455 8.900000000000034 13.399999999999977 8.900000000000034 21.399999999999977v89.80000000000007h90.89999999999998v-102.40000000000009c0-24.099999999999966-9.600000000000023-47.19999999999993-26.69999999999999-64.29999999999995l-49-49.10000000000002z m469.8-26.599999999999966v89.80000000000001c0 8-3.2000000000000455 15.699999999999989-8.899999999999977 21.399999999999977l-31.40000000000009 31.399999999999977c-5.699999999999932 5.7000000000000455-13.399999999999977 8.899999999999977-21.399999999999977 8.899999999999977h-43.60000000000002c9.400000000000091-14.599999999999909 14.5-31.599999999999966 14.5-49.099999999999966v-102.39999999999998h-90.89999999999998v89.80000000000001c0 8-3.199999999999932 15.699999999999989-8.899999999999977 21.399999999999977l-31.399999999999977 31.399999999999977c-5.7000000000000455 5.7000000000000455-13.399999999999977 8.899999999999977-21.399999999999977 8.899999999999977h-29.100000000000023v-151.49999999999994h-90.89999999999998v242.40000000000003h132.5999999999999c24.100000000000023 0 47.30000000000007-9.600000000000023 64.30000000000007-26.600000000000023l30.399999999999977-30.399999999999977v57h87.10000000000002c24.100000000000023 0 47.299999999999955-9.600000000000023 64.29999999999995-26.600000000000023l49.200000000000045-49.10000000000002c17-17 26.699999999999932-40.19999999999999 26.699999999999932-64.30000000000001v-102.39999999999998h-91.19999999999993z m-909.1 90.89999999999998h60.6v151.50000000000006h90.9v-151.50000000000006h60.599999999999994v-90.89999999999998h-212.1z"/>
</svg>
