<svg xmlns="http://www.w3.org/2000/svg" viewBox="0 0 1000 1000" width="1000" height="1000">
<path d="M203.7 121.9c3.6000000000000227 50.099999999999994 136.3 89.5 296.40000000000003 85.4 160.10000000000002-4.100000000000023 282.69999999999993-50.10000000000002 282.69999999999993-100.30000000000001 0-14.299999999999997-10.799999999999955-27.200000000000003-29.799999999999955-38.3-74.20000000000005-43.6-160.70000000000005-68.7-253-68.7-96.39999999999998 0-186.39999999999998 27.3-262.8 74.6-22.69999999999999 14.400000000000006-34.69999999999999 30.80000000000001-33.5 47.30000000000001z m143.2 247.79999999999998c52.700000000000045 6.699999999999989 192.10000000000002 25.69999999999999 300.1 16.80000000000001 217.89999999999998-18 266.4-94.10000000000002 266.4-143.6 0-13.5-7.399999999999977-33.30000000000001-14.699999999999932-44.80000000000001-19.40000000000009-25.599999999999994-41.30000000000007-49.29999999999998-65.20000000000005-70.69999999999999 6.2000000000000455 6.699999999999989 8.200000000000045 15.199999999999989 8.5 20.5 2 33.69999999999999-53.10000000000002 78.9-164.39999999999998 115.79999999999998-69.39999999999998 23.100000000000023-161.39999999999998 45.19999999999999-275.3 45.19999999999999-192.10000000000002 0-258.4-72.89999999999998-258.4-118.39999999999998-2.842170943040401e-14-4.800000000000011-1.0000000000000284-43.80000000000001 43.599999999999966-80.8-40.69999999999999 32.60000000000001-76.2 71.49999999999999-105 115.10000000000001-3.0999999999999943 5.199999999999989-4.900000000000006 11.199999999999989-4.900000000000006 18.19999999999999-0.09999999999999432 46.5 113.80000000000001 106.89999999999998 269.29999999999995 126.69999999999999z m-163.39999999999998 334.8c108.10000000000002 44.200000000000045 279.8 77.79999999999995 377.20000000000005 74.29999999999995 351.79999999999995-12.599999999999909 429.69999999999993-190.19999999999993 437.79999999999995-242 0.8999999999999773-12.199999999999932 1.3999999999999773-24.399999999999977 1.3999999999999773-36.799999999999955 0-40.89999999999998-4.899999999999977-80.60000000000002-14.199999999999932-118.69999999999999 3.7999999999999545 16.5 4.7999999999999545 32.5 4.7999999999999545 40.599999999999966 0 17.100000000000023 3.2999999999999545 170.80000000000007-347.6 249.10000000000002-210.29999999999995 46.799999999999955-299 45.39999999999998-443.59999999999997-0.20000000000004547-126.60000000000001-39.89999999999998-195.70000000000002-132.5999999999999-197.60000000000002-212.19999999999993-1.0999999999999885 13.599999999999966-1.6999999999999886 27.5-1.6999999999999886 41.39999999999998 0 11.300000000000011 0.4 22.600000000000023 1.1 33.799999999999955 9.3 66 95.4 135.10000000000002 182.4 170.70000000000005z m295.1 244.20000000000005c-76.10000000000002 0-241.8-12.300000000000068-349.6-113.5 91.5 101.19999999999993 223.8 164.79999999999995 371 164.79999999999995 191.5 0 357.9-107.70000000000005 441.9-265.9-26.100000000000023 45.299999999999955-141.10000000000002 214.60000000000002-463.29999999999995 214.60000000000002z m10.899999999999977-100.60000000000002c-63.10000000000002 7-429.6 23.600000000000023-483-267.30000000000007 7.5 46.40000000000009 21.4 90.60000000000002 40.8 131.80000000000007 23 41.5 80.2 98.39999999999998 162.89999999999998 132.60000000000002 429.8 177.5999999999999 694.3-33.700000000000045 745.3-138.80000000000007 20.5-45.19999999999993 34.39999999999998-93.89999999999998 40.700000000000045-145.10000000000002-6.100000000000023 38.80000000000007-45.80000000000007 235.70000000000005-506.70000000000005 286.80000000000007z m-470.9-483.5c7.999999999999979-28.600000000000023 18.49999999999998-56.10000000000002 31.199999999999974-82.30000000000001-5.799999999999997 13.399999999999977-8.899999999999999 28.399999999999977-8.899999999999999 49.80000000000001 0 121.79999999999995 263.40000000000003 242 586.2 153.79999999999995 125.79999999999995-34.299999999999955 313.9-100.29999999999995 313.9-201.39999999999998 0-5 2.1000000000000227-16.5-14.600000000000023-45.599999999999994 20.899999999999977 33.99999999999997 37.80000000000007 70.79999999999998 50.10000000000002 109.49999999999997 6 20.30000000000001 5.100000000000023 34.60000000000002 5.100000000000023 40 0 24.80000000000001-30.800000000000068 176.5-333.70000000000005 204.10000000000002-26.199999999999932 2.3999999999999773-218.59999999999997 5.399999999999977-386-37-111.19999999999999-28-222.99999999999997-82.5-244.09999999999997-158-3.3000000000000114-11.800000000000011-1.900000000000011-22.69999999999999 0.79999999999999-32.89999999999998z"/>
</svg>
