<svg xmlns="http://www.w3.org/2000/svg" viewBox="0 0 1000 1000" width="1000" height="1000">
<path d="M97.8 114.9c4 5.8999999999999915 9 13.299999999999983 14.100000000000009 20.69999999999999 11.199999999999989-8.199999999999989 19.599999999999994-14.399999999999991 28.099999999999994-20.599999999999994 6.199999999999989 8.5 12.099999999999994 17.19999999999999 18.80000000000001 25.400000000000006 2.0999999999999943 2.6999999999999886 6 5.099999999999994 9.299999999999983 5.599999999999994 75.6 9.199999999999989 137.6 48.099999999999994 196.1 92.6 43.60000000000002 33.099999999999994 84.69999999999999 69.50000000000003 127.10000000000002 104.1 39.80000000000001 32.60000000000002 83.19999999999999 58.900000000000034 133.2 72.5 62.89999999999998 17.100000000000023 112.89999999999998 2 148.70000000000005-52.39999999999998 25.199999999999932-38.400000000000034 42.299999999999955-82.30000000000001 62.299999999999955-124.10000000000002 23.399999999999977-48.79999999999998 54.60000000000002-90.39999999999998 103.20000000000005-116.69999999999999 6.099999999999909-3.299999999999997 12.399999999999977-6.700000000000003 19-8.799999999999997 27.799999999999955-8.600000000000009 48.69999999999993 10.099999999999994 40.299999999999955 37.89999999999999-4 13.200000000000017-14.399999999999977 24.80000000000001-23.100000000000023 36.20000000000002-3.6000000000000227 4.699999999999989-10.100000000000023 8-15.899999999999977 10.199999999999989-72.10000000000002 27.5-114.5 82.30000000000001-140.29999999999995 152.2-15.600000000000023 42.19999999999999-37.60000000000002 79.19999999999999-76.70000000000005 104.19999999999999-3.5 2.2000000000000455-5.7999999999999545 13.400000000000034-3.3999999999999773 16.5 29 38 33.39999999999998 83.20000000000005 38.60000000000002 128 2.2999999999999545 19.5 1.6999999999999318 39.39999999999998 2.099999999999909 59.200000000000045 0.6000000000000227 27.5 12.400000000000091 49.19999999999993 34.90000000000009 64.39999999999998 13.899999999999977 9.299999999999955 20 20.5 21.699999999999932 37.5 1.5 15.200000000000045 10 29.600000000000023 14.899999999999977 44.60000000000002 2.6000000000000227 8.100000000000023 5.900000000000091 16.699999999999932 5.600000000000023 24.899999999999977-0.5 15-4.600000000000023 30-5 45.10000000000002-0.2999999999999545 13.100000000000023-4.699999999999932 16.699999999999932-17.299999999999955 14.600000000000023-25.100000000000023-4.100000000000023-37.80000000000007-21.200000000000045-42.89999999999998-43.200000000000045-4.5-19-5.600000000000023-39-5.7000000000000455-58.60000000000002-0.10000000000002274-14.600000000000023-3.6000000000000227-24.899999999999977-15.899999999999977-34-61-45.69999999999993-106.5-103.60000000000002-133.5-175.5-24.200000000000045-64.5-68.5-99-139.60000000000002-95.79999999999995-16.30000000000001 0.6999999999999886-32.89999999999998-3.2000000000000455-49.19999999999999-5.600000000000023-59-8.600000000000023-108.10000000000002-35.89999999999998-149.10000000000002-78.69999999999999-3.099999999999966-3.1999999999999886-6.300000000000011-6.300000000000011-9.5-9.400000000000034-24.399999999999977-24.299999999999955-24.099999999999966-23.899999999999977-53.29999999999998-5.599999999999966-26.5 16.69999999999999-55.099999999999994 14.399999999999977-82.9 5-24.599999999999994-8.300000000000011-48.5-19.100000000000023-72.3-29.69999999999999-15.299999999999997-6.800000000000011-25.700000000000003-6.100000000000023-28.700000000000003 13-2.1000000000000014 13.399999999999977-10.799999999999997 15.899999999999977-22.5 13.399999999999977-15.5-3.6999999999999886-29.3-13.399999999999977-29-28.600000000000023 0.3-12.599999999999966 8-29.19999999999999 17.9-36.69999999999999 25.200000000000003-19 55.9-19.099999999999966 86.1-13.899999999999977 11.5 2.099999999999966 22.400000000000006 4.599999999999966 26.5-9.699999999999989 4.199999999999989-14.600000000000023-1.6999999999999886-25.600000000000023-16.299999999999997-29.600000000000023-8.799999999999997-2.3999999999999773-19-3.8999999999999773-27.60000000000001-1.8000000000000114-16.799999999999997 4-29.499999999999993 0.6000000000000227-40.599999999999994-12.799999999999983-5.600000000000001-6.700000000000017-13.799999999999997-11.200000000000017-20.7-16.80000000000001-12.200000000000001-9.799999999999983-14-19.5-2.1999999999999993-32 7.5-7.900000000000006 11.799999999999997-18.599999999999994 17.5-28.19999999999999 1.6000000000000014-2.700000000000017 2.5-6.099999999999994 4.600000000000001-8.200000000000017 16.299999999999997-15.899999999999977 32.89999999999999-31.69999999999999 52.599999999999994-50.79999999999998z"/>
</svg>
