<svg xmlns="http://www.w3.org/2000/svg" viewBox="0 0 1000 1000" width="1000" height="1000">
<path d="M433.3 711.6c-17.5-41.200000000000045-34-80.10000000000002-50.5-119-32.30000000000001-76.39999999999998-64.80000000000001-152.70000000000005-96.90000000000003-229.20000000000005-28.19999999999999-67.29999999999995 10.900000000000034-137.29999999999998 82.90000000000003-148.99999999999997 68.39999999999998-11.099999999999994 130.3 51.29999999999998 120.09999999999997 119.99999999999997-17.899999999999977 120.60000000000002-34.89999999999998 241.39999999999998-52.39999999999998 362.1-0.5 4.2999999999999545-1.6999999999999886 8.299999999999955-3.1999999999999886 15.100000000000023z m121.19999999999999-377.90000000000003c-9.399999999999977-7.800000000000011-20.799999999999955-4.399999999999977-31.200000000000045-4-11.099999999999909 0.4000000000000341-13.799999999999955-3.099999999999966-13.599999999999966-13.899999999999977 1.400000000000034-64.5 65.19999999999999-115.10000000000002 128.00000000000006-100 73.09999999999991 17.5 101.79999999999995 87.5 76.39999999999998 147.5-46.39999999999998 109.39999999999998-92.60000000000002 218.8-138.89999999999998 328.2-1 2.3999999999999773-1.900000000000091 5-3.5 6.899999999999977-1.6000000000000227 1.8999999999999773-4.100000000000023 4.2000000000000455-6.100000000000023 4.2000000000000455-3.5-0.10000000000002274-2.3999999999999773-3.800000000000068-2.7000000000000455-6.2000000000000455-14.600000000000023-99-29.199999999999932-198-43.89999999999998-297-3.7000000000000455-24.799999999999955 1.1000000000000227-48.599999999999966 28.700000000000045-59.299999999999955 2.599999999999909-1.2000000000000455 5.7999999999999545-2.1000000000000227 6.7999999999999545-6.400000000000034z m-126.39999999999998 413.90000000000003c-18.5-12.700000000000045-36.200000000000045-25-54-37.30000000000007-81.30000000000001-56.19999999999993-162.8-112.19999999999993-243.90000000000003-168.79999999999995-47.29999999999998-33.10000000000002-61.39999999999999-92.89999999999998-33.29999999999998-140.3 21.799999999999997-36.69999999999999 54.79999999999998-54.89999999999998 97.29999999999998-52.69999999999999 41.5 2.1999999999999886 72.30000000000001 23.100000000000023 89.80000000000001 60.69999999999999 19.69999999999999 42.400000000000034 37.5 85.60000000000002 56.10000000000002 128.50000000000006 28.19999999999999 64.89999999999998 56.5 129.79999999999995 84.59999999999997 194.69999999999993 1.900000000000034 4.300000000000068 5.100000000000023 8.300000000000068 3.400000000000034 15.200000000000045z m140.79999999999995-1.7000000000000455c25.200000000000045-57.19999999999993 50.80000000000007-114.29999999999995 75.5-171.79999999999995 11.100000000000023-25.800000000000068 22.399999999999977-51.39999999999998 34-76.90000000000003 10.399999999999977-23.19999999999999 20-46.80000000000001 30-70.19999999999999 3.5-8.300000000000011 6.7000000000000455-16.69999999999999 10.899999999999977-24.600000000000023 21.100000000000023-38.5 61.90000000000009-58.39999999999998 107.30000000000007-52.89999999999998 40.5 4.899999999999977 75.79999999999995 36 86.5 76.10000000000002 11.299999999999955 42.19999999999999-3.1000000000000227 87.60000000000002-38.30000000000007 112.19999999999993-99.09999999999991 69.20000000000005-198.5999999999999 137.60000000000002-298 206.30000000000007-2 1.2999999999999545-3.7999999999999545 3.8999999999999773-7.899999999999977 1.7999999999999545z m-126.09999999999997 39.39999999999998c-5 2.400000000000091-10.199999999999989 1.2000000000000455-15.300000000000011 1.2000000000000455-106.89999999999998 0.10000000000002274-213.8 0.10000000000002274-320.7 0-45.80000000000001 0-86.00000000000001-28.200000000000045-100.80000000000001-70.5-14.9-42.5-1.2999999999999998-91.60000000000002 32.9-118.89999999999998 36.800000000000004-29.399999999999977 87.5-33.30000000000007 126.19999999999999-6.899999999999977 90.80000000000001 61.89999999999998 180.9 124.79999999999995 271.29999999999995 187.39999999999998 2.6000000000000227 1.8999999999999773 6.2000000000000455 3.199999999999932 6.400000000000034 7.699999999999932z m109.19999999999999 0.5c50.10000000000002-34.69999999999993 97.20000000000005-67.39999999999998 144.29999999999995-99.89999999999998 44.60000000000002-30.799999999999955 89.10000000000002-61.799999999999955 133.9000000000001-92.39999999999998 67.79999999999995-46.200000000000045 154.39999999999998-9.600000000000023 168.39999999999998 70.79999999999995 10.399999999999977 60.200000000000045-38.60000000000002 121.5-99.20000000000005 121.90000000000009-112.5 0.7999999999999545-225 0.1999999999999318-337.5 0.1999999999999318-2.1000000000000227 0-4.199999999999932-0.1999999999999318-9.899999999999977-0.6000000000000227z"/>
</svg>
