<svg xmlns="http://www.w3.org/2000/svg" viewBox="0 0 1000 1000" width="1000" height="1000">
<path d="M178.8 539.3l-95.50000000000001-118.19999999999993h-83.3v158.19999999999993h48.1v-120.09999999999997l97.20000000000002 120.09999999999997h81.69999999999999v-158.19999999999993h-48.099999999999994v118.19999999999993z m214.09999999999997-120.79999999999995h-82.19999999999999c-28.599999999999966 0-43.5 3.3000000000000114-53.69999999999999 14.100000000000023-6.699999999999989 7.2999999999999545-10.699999999999989 14.899999999999977-10.699999999999989 36.799999999999955v61c0 22 4 29.600000000000023 10.699999999999989 36.80000000000007 10.199999999999989 10.799999999999955 25.100000000000023 14.099999999999909 53.69999999999999 14.099999999999909h82.19999999999999c28.600000000000023 0 43.5-3.2999999999999545 53.700000000000045-14.099999999999909 6.599999999999966-7.300000000000068 10.699999999999989-14.900000000000091 10.699999999999989-36.80000000000007v-61c0-22-4-29.599999999999966-10.699999999999989-36.799999999999955-10.200000000000045-10.800000000000011-25-14.100000000000023-53.700000000000045-14.100000000000023z m19.100000000000023 105.60000000000002c0 9.299999999999955-1.1000000000000227 12.100000000000023-3.6000000000000227 14.299999999999955-2.599999999999966 2.300000000000068-6.5 2.8999999999999773-17.5 2.8999999999999773h-78.19999999999999c-11 0-14.899999999999977-0.599999999999909-17.5-2.8999999999999773-2.5-2.199999999999932-3.599999999999966-5-3.599999999999966-14.299999999999955v-48.30000000000001c0-9.300000000000011 1.099999999999966-12.100000000000023 3.599999999999966-14.300000000000011 2.6000000000000227-2.3000000000000114 6.5-2.8999999999999773 17.5-2.8999999999999773h78.19999999999999c11 0 14.900000000000034 0.5999999999999659 17.5 2.8999999999999773 2.5 2.1999999999999886 3.6000000000000227 5 3.6000000000000227 14.300000000000011v48.30000000000001z m65-103v158.19999999999993h50.299999999999955v-158.19999999999993h-50.299999999999955z m201.70000000000005 0h-66.40000000000009l-85 75.69999999999999 91.80000000000007 82.49999999999994h71.10000000000002l-101.10000000000002-84.19999999999993 89.60000000000002-74z m20.799999999999955 0h50.299999999999955v158.19999999999993h-50.299999999999955v-158.19999999999993z m211.29999999999995 0h-62.59999999999991l-89.20000000000005 158.19999999999993h55.60000000000002l14.699999999999932-27.59999999999991h97.40000000000009l14.899999999999977 27.59999999999991h58.39999999999998l-89.20000000000005-158.19999999999993z m-63.89999999999998 96.29999999999995l31.300000000000068-57.299999999999955 31.299999999999955 57.299999999999955h-62.60000000000002z"/>
</svg>
