<svg xmlns="http://www.w3.org/2000/svg" viewBox="0 0 1000 1000" width="1000" height="1000">
<path d="M748.9 564.6c4.800000000000068 23.399999999999977 16.700000000000045 41.60000000000002 39.200000000000045 51.69999999999993 37.5 16.800000000000068 74.89999999999998 33.700000000000045 112.39999999999998 50.60000000000002l65 29.399999999999977c13 5.900000000000091 23.200000000000045 2.1000000000000227 29.100000000000023-11 1.6000000000000227-3.5 2.5-7.199999999999932 3.2999999999999545-11 2.800000000000068-13.199999999999932 1.8999999999999773-26.5 1.8999999999999773-39.69999999999993 0-140.60000000000002 0.20000000000004547-281.3-0.1999999999999318-421.90000000000003-0.10000000000002274-22.799999999999983 1.6999999999999318-45.5-1.5-68.39999999999998-1.6000000000000227-11-3.2000000000000455-21.700000000000017-7.2000000000000455-32.000000000000014-13.5-35.3-38.19999999999993-57.3-76.29999999999995-63.199999999999996-2.800000000000068-0.10000000000000142-5.800000000000068 0.6999999999999957-8.399999999999977-1l-4-0.20000000000000284c-2.7000000000000455-1.2999999999999972-5.5-0.6999999999999957-8.300000000000068-0.6999999999999957h-654.9c-2.0999999999999943 0-4.199999999999989 0.19999999999999574-6.300000000000011 0.29999999999999716h-1.6999999999999886c-1-0.10000000000000142-2.0999999999999943-0.29999999999999716-3.0999999999999943-0.29999999999999716h-123.60000000000001c-1.3999999999999915 0-2.700000000000003 0.3999999999999986-4.099999999999994 0.5999999999999943-1.9000000000000057 0.10000000000000142-3.9000000000000057 0.20000000000000284-5.799999999999997 0.4000000000000057-2.3000000000000114-0.6000000000000014-4.6000000000000085-0.20000000000000284-6.700000000000003 0.7999999999999972-18 2-34.2 8.200000000000003-48.2 19.900000000000006-0.10000000000000142 0.6999999999999886-0.5 1.0999999999999943-1.2000000000000028 1.0999999999999943l-2.6999999999999957 2.4000000000000057-1.1000000000000014 1.0999999999999943-1.1000000000000014 1.0999999999999943-1.1000000000000014 1.1000000000000085-1.0999999999999979 1.0999999999999943-1.0999999999999979 1.1000000000000085-1.1000000000000014 1-1 1.0999999999999943-2 2.5-0.8999999999999986 1.0999999999999943h-0.10000000000000142l-0.8999999999999986 1.1000000000000085c-5.600000000000001 7.200000000000003-10.100000000000001 15.099999999999994-13.500000000000002 23.599999999999994-8.6 20.89999999999999-10.6 42.7-10.6 65.2 0.2 137 0.1 273.9 0.1 410.9 0 7.7000000000000455-0.2 15.399999999999977 0.5 23.100000000000023 5.800000000000001 62.39999999999998 44.9 108.39999999999998 103.7 126.10000000000002 24.799999999999997 7.5 50.000000000000014 13.600000000000023 75.10000000000001 20.299999999999955 30.900000000000006 8.200000000000045 61.79999999999998 16.5 92.70000000000002 24.600000000000023 139.2 36.5 278.5 72.79999999999995 418.1 107.70000000000005 53.39999999999998 13.299999999999955 106.89999999999998 26.399999999999977 160.39999999999998 39.39999999999998 28.199999999999932 6.899999999999977 56.39999999999998 13.699999999999932 84.69999999999993 19.899999999999977 11.800000000000068 2.6000000000000227 23.600000000000023 5.899999999999977 35.80000000000007 7.100000000000023 15.699999999999932 1.5 31.299999999999955-10.300000000000068 28.5-26.800000000000068 0.1999999999999318-3.699999999999932-0.39999999999997726-7.199999999999932-1.7000000000000455-10.599999999999909-4.5-10.800000000000068-12.399999999999977-18-23.100000000000023-22.800000000000068-84.39999999999998-38.10000000000002-168.69999999999993-76.39999999999998-253-114.60000000000002l-83.39999999999998-37.799999999999955-63.5-28.899999999999977-145.2-65.89999999999998c-32.5-14.700000000000045-64.80000000000001-29.800000000000068-97.5-44-24.099999999999966-10.400000000000091-45-24.600000000000023-61.39999999999998-45.200000000000045-14.100000000000023-17.700000000000045-21.600000000000023-37.60000000000002-20.5-60.60000000000002 0.6999999999999886-15.699999999999989 0.39999999999997726-31.5 0.39999999999997726-47.19999999999999 0-1.8000000000000114 0.9000000000000057-3.8999999999999773-1-5.399999999999977 1-2 0.6000000000000227-4.100000000000023 0.6000000000000227-6.199999999999989 0.09999999999999432-29.80000000000001 0.09999999999999432-59.60000000000002 0.09999999999999432-89.30000000000001 0.799999999999983-1.3000000000000114 0.799999999999983-2.6999999999999886 0.5-4.100000000000023 1.1999999999999886-5 2-10 3.9000000000000057-14.800000000000011 4.899999999999977-12.199999999999989 13.300000000000011-20.5 25.30000000000001-25.399999999999977 9.199999999999989-3.8000000000000114 18.899999999999977-4.899999999999977 28.799999999999955-4.899999999999977h377.4c3.5 0 7-0.10000000000002274 10.5 0.19999999999998863 13 1 25.300000000000068 4.099999999999966 35.10000000000002 13.300000000000011 11.800000000000068 11 15.899999999999977 25.5 15.899999999999977 41 0.20000000000004547 65.79999999999995 0 131.5-0.09999999999990905 197.29999999999995 0 5 0.1999999999999318 9.899999999999977 1.1999999999999318 14.700000000000045z m-719.5-486.1z"/>
</svg>
