<svg xmlns="http://www.w3.org/2000/svg" viewBox="0 0 1000 1000" width="1000" height="1000">
<path d="M431.1 618c-6.5 3.5-8.700000000000045 11.600000000000023-5.5 18.100000000000023 3.1999999999999886 6.5 11.299999999999955 8.699999999999932 18.099999999999966 5.5 6.5-3.6000000000000227 8.699999999999989-11.700000000000045 5.5-18.100000000000023-3.8999999999999773-6.5-11.599999999999966-9.100000000000023-18.099999999999966-5.5z m62.799999999999955 17.399999999999977c-3.8999999999999773-7.399999999999977-13.299999999999955-10-20.799999999999955-6.100000000000023-7.400000000000034 3.900000000000091-10 13.300000000000068-6.100000000000023 20.700000000000045 3.8999999999999773 7.399999999999977 13.300000000000011 10 20.69999999999999 6.100000000000023 7.400000000000034-3.800000000000068 10-13.200000000000045 6.199999999999989-20.700000000000045z m-12-262.29999999999995c8.400000000000034-4.600000000000023 11.300000000000011-14.900000000000034 6.800000000000011-23.30000000000001-4.199999999999989-8.400000000000034-14.899999999999977-11.400000000000034-23.30000000000001-6.800000000000011-8.399999999999977 4.199999999999989-11.299999999999955 14.5-6.7999999999999545 22.899999999999977 4.5 8.800000000000011 14.899999999999977 11.700000000000045 23.299999999999955 7.2000000000000455z m23.600000000000023-8.800000000000011c3.8999999999999773 7.5 12.899999999999977 10.099999999999966 20.399999999999977 6.199999999999989 7.7000000000000455-3.8999999999999773 10-13.300000000000011 6.100000000000023-20.69999999999999-3.8999999999999773-7.5-13.200000000000045-10.100000000000023-20.399999999999977-6.199999999999989-7.400000000000034 3.8999999999999773-10 13.299999999999955-6.100000000000023 20.69999999999999z m28.100000000000023 292.49999999999994c8.5-4.5 11.399999999999977-15.199999999999932 6.7999999999999545-23.299999999999955-4.5-8.399999999999977-14.799999999999955-11.299999999999955-23.299999999999955-6.7999999999999545-8.400000000000034 4.199999999999932-11.300000000000011 14.599999999999909-6.7000000000000455 23.299999999999955 4.800000000000068 8.100000000000023 15.200000000000045 11.299999999999955 23.200000000000045 6.7999999999999545z m-177.20000000000005-212.19999999999993c3.8000000000000114 7.099999999999966 13.200000000000045 10 20.700000000000045 6.099999999999966 7.399999999999977-3.8999999999999773 10-13.300000000000011 6.099999999999966-20.69999999999999-3.8999999999999773-7.100000000000023-13.300000000000011-10-20.69999999999999-6.100000000000023-7.399999999999977 4.2000000000000455-10.399999999999977 13.200000000000045-6.100000000000023 20.700000000000045z m21 132c4.5-2.6000000000000227 6.5-8.5 3.900000000000034-13-2.6000000000000227-4.2000000000000455-8.100000000000023-6.100000000000023-13-3.8999999999999773-4.800000000000011 2.2999999999999545-6.400000000000034 8.099999999999909-3.900000000000034 13 2.6000000000000227 4.7999999999999545 8.100000000000023 6.5 13 3.8999999999999773z m32.700000000000045 22c-3-5.5-9.700000000000045-7.5-15.600000000000023-4.600000000000023-5.5 2.8999999999999773-7.699999999999989 10.100000000000023-4.800000000000011 15.600000000000023s9.699999999999989 7.699999999999932 15.5 4.5c5.800000000000011-2.8999999999999773 7.800000000000011-9.700000000000045 4.900000000000034-15.5z m-22.700000000000045-213.60000000000002c-8.399999999999977 4.600000000000023-11.599999999999966 14.899999999999977-6.7999999999999545 23.30000000000001 4.5 8.099999999999966 14.599999999999966 11.399999999999977 23 6.800000000000011 8.399999999999977-4.5 11.599999999999966-14.900000000000034 7.099999999999966-23.30000000000001-4.800000000000011-8.100000000000023-15.199999999999989-11.300000000000011-23.30000000000001-6.800000000000011z m-19.399999999999977 135.29999999999995c-3.1999999999999886-5.5-9.699999999999989-7.7999999999999545-15.5-4.899999999999977-5.5 3.2000000000000455-7.800000000000011 10-4.600000000000023 15.5 3.3000000000000114 5.5 10.100000000000023 7.800000000000068 15.600000000000023 4.600000000000023 5.100000000000023-2.6000000000000227 7.399999999999977-9.700000000000045 4.5-15.200000000000045z m187.60000000000002-162.09999999999997c-6.399999999999977 3.5-8.700000000000045 11.600000000000023-5.5 18.100000000000023 3.6000000000000227 6.5 11.699999999999932 8.699999999999989 18.199999999999932 5.199999999999989 6.400000000000091-3.6000000000000227 8.700000000000045-11.699999999999989 5.5-18.100000000000023-3.599999999999909-6.5-12-8.799999999999955-18.199999999999932-5.199999999999989z m-210.60000000000002 128.7c3.6000000000000227 6.5 11.699999999999989 8.800000000000011 18.100000000000023 5.5 6.5-3.5 8.799999999999955-11.599999999999966 5.5-18.099999999999966-3.8000000000000114-6.400000000000034-11.600000000000023-8.699999999999989-18.400000000000034-5.100000000000023-6.099999999999966 3.1999999999999886-8.399999999999977 11.600000000000023-5.199999999999989 17.69999999999999z m95.5-96.69999999999999c9.399999999999977-5.199999999999989 12.899999999999977-16.80000000000001 7.699999999999989-26.19999999999999-5.099999999999966-9.399999999999977-16.80000000000001-12.899999999999977-26.19999999999999-7.800000000000011-9.399999999999977 4.900000000000034-12.899999999999977 16.900000000000034-7.699999999999989 26.19999999999999 4.800000000000011 9.100000000000023 16.80000000000001 12.700000000000045 26.19999999999999 7.800000000000011z m190.89999999999998 89.30000000000001c2.8999999999999773 5.5 10 7.399999999999977 15.200000000000045 4.899999999999977 5.5-3.2999999999999545 7.699999999999932-10.099999999999966 4.7999999999999545-15.599999999999966-3.199999999999932-5.5-10-7.699999999999989-15.5-4.5-5.199999999999932 2.599999999999966-7.5 9.699999999999989-4.5 15.199999999999989z m-9.799999999999955-56.60000000000002c-4.2000000000000455 2.6000000000000227-6.100000000000023 8.400000000000034-3.5 12.900000000000034 2.6000000000000227 4.899999999999977 8.399999999999977 6.5 12.600000000000023 3.8999999999999773 4.899999999999977-2.599999999999966 6.5-8.099999999999966 3.8999999999999773-12.599999999999966-2.6000000000000227-4.900000000000034-8.100000000000023-6.5-13-4.2000000000000455z m32.39999999999998 89.60000000000002c-3.6000000000000227-6.5-11.299999999999955-8.699999999999989-18.100000000000023-5.5-6.5 3.6000000000000227-8.799999999999955 11.700000000000045-5.5 18.100000000000023 3.5 6.5 11.600000000000023 8.799999999999955 18.100000000000023 5.199999999999932 6.7999999999999545-3.199999999999932 9.100000000000023-11.299999999999955 5.5-17.799999999999955z m-11 42.39999999999998c-3.8999999999999773-7.100000000000023-13.299999999999955-10-20.700000000000045-6.199999999999932-7.399999999999977 3.8999999999999773-10 13.599999999999909-6.199999999999932 20.699999999999932 3.8999999999999773 7.2000000000000455 13.299999999999955 10.100000000000023 20.399999999999977 6.2000000000000455 7.7999999999999545-3.8999999999999773 10.399999999999977-13.300000000000068 6.5-20.700000000000045z m-49.200000000000045-169.2c-5.7999999999999545 2.900000000000034-7.699999999999932 9.699999999999989-4.7999999999999545 15.5 2.8999999999999773 5.5 9.700000000000045 7.800000000000011 15.5 4.900000000000034 5.5-3.3000000000000114 7.7999999999999545-10.100000000000023 4.899999999999977-15.600000000000023-3.2999999999999545-6.100000000000023-10.100000000000023-8.100000000000023-15.600000000000023-4.800000000000011z m-34.89999999999998 223.90000000000003c-9.399999999999977 5.100000000000023-13 16.799999999999955-7.7999999999999545 26.199999999999932 5.199999999999932 9.300000000000068 16.799999999999955 12.900000000000091 26.199999999999932 7.7000000000000455 9.400000000000091-5.100000000000023 13-17.100000000000023 7.800000000000068-26.200000000000045-4.899999999999977-9.399999999999977-16.800000000000068-12.899999999999977-26.200000000000045-7.699999999999932z m53 4.5c8.5-4.2000000000000455 11.399999999999977-14.899999999999977 6.800000000000068-23-4.5-8.399999999999977-14.800000000000068-11.300000000000068-23.300000000000068-6.800000000000068-8.399999999999977 4.600000000000023-11.299999999999955 14.900000000000091-6.7999999999999545 23.300000000000068 4.600000000000023 8.100000000000023 14.899999999999977 11.299999999999955 23.299999999999955 6.5z m69.60000000000002-166c8.100000000000023 2.2999999999999545 16.5-2.2000000000000455 18.799999999999955-10.300000000000011 2.2000000000000455-8.100000000000023-2.2999999999999545-16.5-10.399999999999977-18.80000000000001-8.100000000000023-2.3000000000000114-16.799999999999955 2.3000000000000114-18.799999999999955 10.399999999999977-2.5 7.7000000000000455 2.2999999999999545 16.5 10.399999999999977 18.700000000000045z m-150.10000000000002-144.90000000000003c-3.8999999999999773 13.199999999999989 3.5 27.19999999999999 16.800000000000068 31 13.299999999999955 3.900000000000034 27.199999999999932-3.5 31.09999999999991-16.80000000000001 4.2000000000000455-13.599999999999966-3.599999999999909-27.19999999999999-16.899999999999977-31.399999999999977-13.5-3.8999999999999773-27.5 3.8999999999999773-31 17.19999999999999z m-167.29999999999995 35.900000000000034c-2.2000000000000455 8.099999999999966 2.2999999999999545 16.5 10.399999999999977 18.799999999999955 8.100000000000023 2.2000000000000455 16.5-2.2999999999999545 18.69999999999999-10.399999999999977 2.3000000000000114-8.100000000000023-2.1999999999999886-16.19999999999999-10.300000000000011-18.80000000000001-7.7999999999999545-2.1999999999999886-16.19999999999999 2.3000000000000114-18.799999999999955 10.400000000000034z m270.79999999999995 321.9c2.300000000000068-8.100000000000023-2.2999999999999545-16.799999999999955-10-18.799999999999955-8.100000000000023-2.2000000000000455-16.5 2.2999999999999545-19.100000000000023 10.399999999999977-2.2999999999999545 7.7999999999999545 2.300000000000068 16.199999999999932 10.300000000000068 18.799999999999955 7.7999999999999545 1.8999999999999773 16.5-2.6000000000000227 18.799999999999955-10.399999999999977z m-2.6000000000000227-318c3.6000000000000227-11.399999999999977-3.199999999999932-23.600000000000023-14.5-27.19999999999999-11.699999999999932-3.6000000000000227-24 3.1999999999999886-27.199999999999932 14.899999999999977-3.6000000000000227 11.300000000000011 3.199999999999932 23.600000000000023 14.5 27.19999999999999 11.699999999999932 3.2000000000000455 23.699999999999932-3.2999999999999545 27.199999999999932-14.899999999999977z m-250.39999999999998 341c11.700000000000045 3.2000000000000455 23.600000000000023-3.2999999999999545 27.200000000000045-14.600000000000023 3.1999999999999886-11.299999999999955-3.2000000000000455-23.600000000000023-14.900000000000034-27.199999999999932-11.599999999999966-3.5-23.599999999999966 3.2999999999999545-26.80000000000001 14.899999999999977-3.599999999999966 11.299999999999955 2.900000000000034 23.299999999999955 14.5 26.899999999999977z m-44.299999999999955-45c10.299999999999955 3.2000000000000455 21-2.6000000000000227 24.299999999999955-12.899999999999977 2.900000000000034-10.100000000000023-3-21.100000000000023-13.299999999999955-24.300000000000068-10.400000000000034-2.8999999999999773-21 2.900000000000091-24 13.300000000000068-3.2000000000000455 10.299999999999955 2.599999999999966 21 13 23.899999999999977z m-4.5-239.10000000000002c6.399999999999977 2 13.199999999999989-1.8999999999999773 15.199999999999989-8.399999999999977 1.8999999999999773-6.5-2-13.300000000000011-8.400000000000034-15.199999999999989-6.5-1.900000000000034-13.599999999999966 1.8999999999999773-15.299999999999955 8.399999999999977-1.900000000000034 6.5 2 13.300000000000011 8.5 15.199999999999989z m94.79999999999995-67.59999999999997c10 3.1999999999999886 21-2.6000000000000227 23.900000000000034-12.900000000000034 2.8999999999999773-10.099999999999966-2.900000000000034-21.099999999999966-12.900000000000034-24-10.399999999999977-2.8999999999999773-21.099999999999966 2.900000000000034-24.299999999999955 13-2.900000000000034 10 2.8999999999999773 21 13.299999999999955 23.900000000000034z m60.10000000000002-9.100000000000023c11.699999999999989 3.6000000000000227 23.600000000000023-3.1999999999999886 27.200000000000045-14.5 3.199999999999932-11.699999999999989-3.2000000000000455-24-14.600000000000023-27.19999999999999-11.600000000000023-3.6000000000000227-23.600000000000023 3.1999999999999886-27.100000000000023 14.600000000000023-3.8999999999999773 11.599999999999966 2.8999999999999773 23.599999999999966 14.5 27.099999999999966z m186.70000000000005 61.19999999999999c3.199999999999932-10-2.6000000000000227-21-12.900000000000091-24-10.099999999999909-2.5-21.09999999999991 3.3000000000000114-24 13.300000000000011-3.199999999999932 10.400000000000034 2.900000000000091 21 13 23.900000000000034 10.300000000000068 3.2999999999999545 20.700000000000045-2.900000000000034 23.90000000000009-13.200000000000045z m-365.6 196.39999999999998c8.099999999999966 2.6000000000000227 16.5-2.2999999999999545 18.799999999999955-10.399999999999977 2.2000000000000455-8.100000000000023-2.2999999999999545-16.5-10.399999999999977-18.799999999999955-8.100000000000023-2.5-16.80000000000001 2.2999999999999545-18.69999999999999 10.100000000000023-2 8.399999999999977 2.1999999999999886 16.799999999999955 10.300000000000011 19.09999999999991z m399.9-83.19999999999993c1.8999999999999773-6.5-1.8999999999999773-13.200000000000045-8.399999999999977-15.200000000000045-6.5-1.8999999999999773-13.600000000000023 2-15.200000000000045 8.400000000000034-2 6.5 1.8999999999999773 13.599999999999966 8.399999999999977 15.199999999999989 6.5 2 13.300000000000068-1.8999999999999773 15.200000000000045-8.399999999999977z m-401.8-44.30000000000001c4.800000000000011 1.3000000000000114 10-1.3000000000000114 11.300000000000011-6.5 1.3000000000000114-4.800000000000011-1.3000000000000114-10-6.199999999999989-11.300000000000011-4.800000000000011-1.3000000000000114-10 1.3000000000000114-11.300000000000011 6.100000000000023-1.3000000000000114 4.899999999999977 1.3000000000000114 10.099999999999966 6.199999999999989 11.699999999999989z m6.400000000000034 55.599999999999966c2-6.399999999999977-1.900000000000034-13.199999999999989-8.400000000000034-15.199999999999989-6.399999999999977-1.8999999999999773-13.199999999999989 2-15.5 8.400000000000034-1.8999999999999773 6.5 1.900000000000034 13.299999999999955 8.400000000000034 15.299999999999955 6.7999999999999545 1.8999999999999773 13.599999999999966-2 15.5-8.5z m373.1 55.700000000000045c4.7999999999999545 1.2999999999999545 10-1.3000000000000682 11.299999999999955-6.2000000000000455 1.2999999999999545-4.7999999999999545-1.2999999999999545-10-6.2000000000000455-11.299999999999955-4.7999999999999545-1.3000000000000682-10 1.2999999999999545-11.299999999999955 6.199999999999932-1.2999999999999545 4.800000000000068 1.2999999999999545 9.700000000000045 6.2000000000000455 11.300000000000068z m-218.70000000000005 132c3.8000000000000114-13.300000000000068-3.6000000000000227-27.200000000000045-16.899999999999977-31.100000000000023-13.200000000000045-3.8999999999999773-27.100000000000023 3.6000000000000227-31 16.899999999999977-3.900000000000034 13.5 3.5 27.100000000000023 16.799999999999955 31 13.300000000000011 3.8999999999999773 27.200000000000045-3.5 31.100000000000023-16.799999999999955z m103.5-29.100000000000023c-10-3.2999999999999545-21 2.8999999999999773-24.299999999999955 12.899999999999977-2.6000000000000227 10 3.2999999999999545 21 13.299999999999955 24 10.299999999999955 3.2000000000000455 21-2.6000000000000227 23.899999999999977-13 2.8999999999999773-10-2.6000000000000227-20.699999999999932-12.899999999999977-23.899999999999977z m94.79999999999995-68c-6.5-1.8999999999999773-13.599999999999909 2-15.199999999999932 8.399999999999977-2 6.800000000000068 1.8999999999999773 13.600000000000023 8.100000000000023 15.600000000000023 6.7999999999999545 1.8999999999999773 13.599999999999909-2 15.5-8.399999999999977 1.599999999999909-6.5-1.900000000000091-13.600000000000023-8.400000000000091-15.600000000000023z m-154.99999999999994 77.39999999999998c-11.600000000000023-3.6000000000000227-23.600000000000023 3.2000000000000455-27.19999999999999 14.5-3.5 11.300000000000068 3.2999999999999545 23.300000000000068 14.599999999999966 26.899999999999977 11.600000000000023 3.5 23.599999999999966-3.2999999999999545 27.19999999999999-14.599999999999909 3.5-11.600000000000023-2.8999999999999773-23.600000000000023-14.599999999999966-26.800000000000068z m120.99999999999994-396c10.700000000000045-11.399999999999977 10-28.799999999999983-1-39.49999999999997-11.299999999999955-10.700000000000017-28.699999999999932-10-39.39999999999998 1-10.699999999999932 11.299999999999983-10.100000000000023 28.700000000000017 0.8999999999999773 39.400000000000006 11.400000000000091 10.699999999999989 29.200000000000045 10.099999999999966 39.5-0.9000000000000341z m25.90000000000009 50.400000000000034c12.899999999999977 12.300000000000011 33.299999999999955 11.300000000000011 45.299999999999955-1.3000000000000114 12.299999999999955-12.899999999999977 11.600000000000023-33.30000000000001-1.2999999999999545-45.60000000000002-12.900000000000091-12.299999999999955-33.30000000000007-11.299999999999955-45.30000000000007 1.3000000000000114-12.299999999999955 13.300000000000011-11.600000000000023 33.69999999999999 1.3000000000000682 45.60000000000002z m-317.1 337.09999999999997c-12.900000000000034-12.299999999999955-33.30000000000001-11.299999999999955-45.30000000000001 1.3000000000000682-12.199999999999989 13-11.600000000000023 33 1.3000000000000114 45.299999999999955 13 12.299999999999955 33.39999999999998 11.700000000000045 45.299999999999955-1.2999999999999545 12-12.900000000000091 11.400000000000034-33.30000000000007-1.2999999999999545-45.30000000000007z m-88.60000000000002-188.59999999999997c7.399999999999977-7.699999999999989 6.800000000000011-20.400000000000034-0.6999999999999886-27.5-8-7.400000000000034-20.30000000000001-7.100000000000023-27.5 1-7.100000000000023 8.099999999999966-7.100000000000023 20.099999999999966 0.6999999999999886 27.5 7.800000000000011 7.399999999999977 20.099999999999994 6.800000000000011 27.5-1z m36.19999999999999 165.99999999999994c10.699999999999989-11.299999999999955 10.100000000000023-28.799999999999955-0.8999999999999773-39.5-11.400000000000034-10.699999999999932-28.80000000000001-10-39.5 1.3000000000000682-10.700000000000017 11-10 28.799999999999955 1 39.5 11.300000000000011 10 28.80000000000001 9.699999999999932 39.39999999999998-1.3000000000000682z m-30.099999999999966-79.89999999999998c9.399999999999977-10 8.799999999999955-25.600000000000023-0.9000000000000341-35.299999999999955-10.099999999999994-9.399999999999977-25.599999999999994-8.700000000000045-35 1-9.399999999999977 10-8.699999999999989 25.899999999999977 1 34.89999999999998 10 9.700000000000045 25.600000000000023 9.399999999999977 34.900000000000034-0.6000000000000227z m292.5-310.29999999999995c9.399999999999977-10.000000000000028 8.699999999999932-25.50000000000003-1-34.900000000000034-10-9.399999999999977-25.5-8.799999999999983-34.89999999999998 0.9000000000000057-9.400000000000034 10.099999999999994-8.700000000000045 25.599999999999994 1 35.00000000000003 9.699999999999932 9.399999999999977 25.5 9 34.89999999999998-1.0000000000000284z m-86.40000000000003-1.3000000000000114c7.5-7.700000000000017 7.100000000000023-20-0.8999999999999773-27.5-8.100000000000023-7.400000000000006-20.100000000000023-6.800000000000011-27.5 1-7.5 7.799999999999983-7.199999999999989 20.099999999999994 0.8999999999999773 27.5 7.800000000000011 7.099999999999966 20.100000000000023 6.800000000000011 27.5-1z m69.90000000000003 491.09999999999997c-7.399999999999977 7.800000000000068-7.100000000000023 20.100000000000023 0.6999999999999318 27.5 7.7000000000000455 7.5 20 6.800000000000068 27.5-0.8999999999999773 7.400000000000091-7.7999999999999545 7.100000000000023-20.100000000000023-0.6999999999999318-27.5-8.100000000000023-7.5-20.399999999999977-7.100000000000023-27.5 0.8999999999999773z m-86.40000000000003-1.2999999999999545c-9.399999999999977 10.100000000000023-8.699999999999989 25.899999999999977 1 35 10 9.399999999999977 25.600000000000023 9 34.900000000000034-1 9.399999999999977-10 9.099999999999966-25.899999999999977-0.9000000000000341-34.89999999999998-9.699999999999989-9.400000000000091-25.599999999999966-9.100000000000023-35 0.8999999999999773z m278.3-142.60000000000002c-6.2000000000000455 6.399999999999977-5.5 16.100000000000023 0.6000000000000227 22.299999999999955 6.5 6.100000000000023 16.5 5.5 22.699999999999932-0.6999999999999318 6.100000000000023-6.100000000000023 5.5-16.100000000000023-0.6999999999999318-22.300000000000068-6.800000000000068-6.099999999999909-16.800000000000068-5.5-22.600000000000023 0.7000000000000455z m-359.5 117.70000000000005c-10.699999999999989 11-10 28.799999999999955 1 39.19999999999993 11 10.300000000000068 28.80000000000001 10 39.5-1 10.600000000000023-11.299999999999955 10-28.799999999999955-1-39.5-11.300000000000011-10.600000000000023-29.100000000000023-10-39.5 1.3000000000000682z m332.6-47.200000000000045c-4.800000000000068-4.899999999999977-12.300000000000068-4.5-16.800000000000068 0.2999999999999545-4.199999999999932 4.900000000000091-4.199999999999932 12.300000000000068 0.6000000000000227 16.90000000000009 4.899999999999977 4.199999999999932 12.300000000000068 4.199999999999932 16.899999999999977-0.7000000000000455 4.2000000000000455-4.5 4.2000000000000455-12-0.6999999999999318-16.5z m-62.10000000000002 69.60000000000002c6.100000000000023-6.5 5.5-16.200000000000045-0.7000000000000455-22.399999999999977-6.399999999999977-6.100000000000023-16.09999999999991-5.800000000000068-22.299999999999955 0.6999999999999318-5.7999999999999545 6.5-5.5 16.5 0.7000000000000455 22.300000000000068 6.399999999999977 6.199999999999932 16.5 5.7999999999999545 22.299999999999955-0.6000000000000227z m113.60000000000002-349.5c10.600000000000023-11.300000000000011 10-28.700000000000045-1.3000000000000682-39.400000000000034-11-10.699999999999989-28.799999999999955-9.699999999999989-39.5 1.3000000000000114-10.699999999999932 11.300000000000011-10 28.80000000000001 1.3000000000000682 39.39999999999998 11.299999999999955 10.700000000000045 29.100000000000023 10.100000000000023 39.5-1.2999999999999545z m-4.600000000000023 127.79999999999995c-7.100000000000023 7.800000000000068-6.7999999999999545 20.100000000000023 1 27.5 8.100000000000023 7.5 20.100000000000023 7.2000000000000455 27.5-0.8999999999999773 7.399999999999977-7.7999999999999545 7.100000000000023-20.100000000000023-1-27.5-7.399999999999977-7.5-20-6.7999999999999545-27.5 0.8999999999999773z m28.799999999999955-87.29999999999995c-10-9.400000000000034-25.5-8.700000000000045-34.89999999999998 1-9.399999999999977 10-8.799999999999955 25.5 0.8999999999999773 34.89999999999998 9.800000000000068 9.399999999999977 25.600000000000023 8.699999999999989 35-1 9.700000000000045-9.699999999999989 9-25.19999999999999-1-34.89999999999998z m-475.59999999999997-104.5c4.900000000000034 4.5 12.300000000000011 4.199999999999989 16.900000000000034-0.7000000000000455 4.5-4.7999999999999545 4.199999999999989-12.299999999999955-0.4000000000000341-16.799999999999955-4.800000000000011-4.2000000000000455-12.300000000000011-4.2000000000000455-16.80000000000001 0.6999999999999886-4.5 4.800000000000011-4.5 12.300000000000011 0.30000000000001137 16.80000000000001z m-26.80000000000001 70.19999999999999c5.800000000000011-6.5 5.5-16.19999999999999-0.6999999999999886-22.30000000000001-6.399999999999977-6.199999999999989-16.099999999999966-5.5-22.299999999999983 0.6000000000000227-6.099999999999994 6.5-5.5 16.19999999999999 0.6999999999999886 22.299999999999955 6.099999999999994 5.900000000000034 16.099999999999994 5.5 22.299999999999983-0.5999999999999659z m88.60000000000002-140.40000000000003c-6.100000000000023 6.5-5.5 16.200000000000045 0.6999999999999886 22.30000000000001 6.400000000000034 6.199999999999989 16.100000000000023 5.5 22.30000000000001-0.5999999999999659 5.800000000000011-6.2000000000000455 5.5-16.200000000000045-0.6999999999999886-22.400000000000034-6.400000000000034-6.099999999999994-16.5-5.799999999999983-22.30000000000001 0.6999999999999886z m-158.2 47.200000000000045c6.799999999999983 9.399999999999977 20.399999999999977 11.699999999999989 30.099999999999994 4.899999999999977 9.699999999999989-6.800000000000011 12-20.399999999999977 5.199999999999989-29.80000000000001-6.799999999999983-9.699999999999989-20.099999999999994-12-30.099999999999994-5.199999999999989-9.699999999999989 7.100000000000023-12 20.399999999999977-5.199999999999989 30.100000000000023z m498.3 477.5c5.7999999999999545 7.199999999999932 16.100000000000023 8.5 23.600000000000023 2.6000000000000227 7.099999999999909-5.800000000000068 8.399999999999977-16.100000000000023 2.599999999999909-23.600000000000023-5.5-7.100000000000023-16.199999999999932-8.399999999999977-23.699999999999932-2.6000000000000227-7.100000000000023 5.899999999999977-8 16.5-2.5 23.600000000000023z m15.199999999999932-530.2c16.800000000000068-5.199999999999989 26.200000000000045-23.599999999999966 21-40.49999999999997-5.5-17.099999999999994-23.299999999999955-26.5-40.5-21.30000000000001-17.09999999999991 5.200000000000017-26.5 23.30000000000001-21.299999999999955 40.400000000000006 5.5 17.19999999999999 23.600000000000023 26.600000000000023 40.799999999999955 21.400000000000006z m-95.5-100.29999999999998c-13.899999999999977 3.5-22.299999999999955 17.5-18.699999999999932 31.700000000000017 3.5 13.899999999999977 17.699999999999932 22.299999999999983 31.699999999999932 18.799999999999983 13.900000000000091-3.5999999999999943 22.300000000000068-17.799999999999983 18.700000000000045-31.69999999999999-3.8999999999999773-14-17.799999999999955-22.400000000000006-31.700000000000045-18.80000000000001z m-102.5 7.099999999999994c2.2000000000000455 11.700000000000017 13.5 19.100000000000023 25.200000000000045 16.80000000000001 11.600000000000023-2.1999999999999886 19.100000000000023-13.900000000000006 16.799999999999955-25.19999999999999-2.199999999999932-11.700000000000017-13.599999999999909-19.100000000000023-25.199999999999932-16.80000000000001-11.700000000000045 2.1999999999999886-19.100000000000023 13.199999999999989-16.800000000000068 25.19999999999999z m315.1 238.8c19.700000000000045-8.399999999999977 28.800000000000068-31.399999999999977 20.399999999999977-51.10000000000002-8.5-19.799999999999955-31.399999999999977-28.799999999999955-51.19999999999993-20.399999999999977-19.700000000000045 8.399999999999977-28.800000000000068 31.399999999999977-20.300000000000068 51.10000000000002 8.400000000000091 19.69999999999999 31.300000000000068 29.099999999999966 51.10000000000002 20.399999999999977z m2.2000000000000455 251.70000000000005c12.299999999999955-7.800000000000068 15.899999999999977-23.600000000000023 8.100000000000023-35.90000000000009-7.400000000000091-12-23.600000000000023-15.599999999999909-35.60000000000002-8.099999999999909-12.300000000000068 7.699999999999932-15.800000000000068 23.899999999999977-8 35.89999999999998 7.399999999999977 12.299999999999955 23.600000000000023 16.199999999999932 35.5 8.100000000000023z m-288.5 177.29999999999995c-9.100000000000023 1.2999999999999545-15.600000000000023 9.700000000000045-14.300000000000068 19.100000000000023 1.3000000000000682 9.299999999999955 9.700000000000045 15.5 19.100000000000023 14.199999999999932 9.100000000000023-1.2999999999999545 15.5-9.699999999999932 14.200000000000045-19.09999999999991-1.3000000000000682-9.400000000000091-10-15.5-19-14.200000000000045z m327.69999999999993-393.1c-8.699999999999932-17.799999999999955-30.399999999999977-24.899999999999977-47.89999999999998-16.19999999999999-17.5 8.699999999999989-24.899999999999977 30.100000000000023-16.199999999999932 47.900000000000034 8.799999999999955 17.799999999999955 30.09999999999991 24.899999999999977 47.89999999999998 16.19999999999999 17.5-9.100000000000023 24.899999999999977-30.100000000000023 16.199999999999932-47.900000000000034z m-136.89999999999998-136.89999999999998c6.800000000000068 18.5 27.5 27.899999999999977 46 21.100000000000023 18.399999999999977-6.800000000000011 27.800000000000068-27.5 21-46-6.7999999999999545-18.400000000000034-27.5-27.80000000000001-45.89999999999998-21.00000000000003-18.5 6.799999999999983-27.899999999999977 27.200000000000017-21.100000000000023 45.900000000000006z m-107.39999999999998 507.6c-8.100000000000023 3.6000000000000227-11.600000000000023 12.699999999999932-8.100000000000023 20.399999999999977 3.6000000000000227 8.100000000000023 12.700000000000045 11.700000000000045 20.399999999999977 8.100000000000023 8.100000000000023-3.5 11.700000000000045-12.600000000000023 8.100000000000023-20.399999999999977-3.6000000000000227-8.100000000000023-12.600000000000023-11.600000000000023-20.399999999999977-8.100000000000023z m241.70000000000005-280.1c-8.700000000000045-15.600000000000023-28.5-21.399999999999977-44-12.299999999999955-15.5 8.699999999999932-21.40000000000009 28.5-12.300000000000068 44 9.100000000000023 15.5 28.5 21 44 12.299999999999955s21.399999999999977-28.5 12.300000000000068-44z m-590.4000000000001 222.89999999999998c-16.899999999999977 5.2000000000000455-26.599999999999966 23.300000000000068-21.099999999999966 40.39999999999998 5.199999999999989 17.200000000000045 23.30000000000001 26.600000000000023 40.5 21.40000000000009 17.100000000000023-5.2000000000000455 26.5-23.300000000000068 21.30000000000001-40.5-5.199999999999989-17.100000000000023-23.600000000000023-26.5-40.69999999999999-21.300000000000068z m95.40000000000003 100.30000000000007c13.900000000000034-3.6000000000000227 22.30000000000001-17.5 18.80000000000001-31.700000000000045-3.6000000000000227-13.899999999999977-17.80000000000001-22.399999999999977-31.69999999999999-18.799999999999955-14 3.599999999999909-22 17.5-18.80000000000001 31.699999999999932 3.8999999999999773 13.899999999999977 17.80000000000001 22.300000000000068 31.69999999999999 18.800000000000068z m-80.19999999999999-630.6c-5.899999999999977-7.100000000000023-16.19999999999999-8.400000000000034-23.69999999999999-2.6000000000000227-7.100000000000023 5.900000000000006-8.400000000000034 16.19999999999999-2.5 23.69999999999999 5.800000000000011 7.100000000000023 16.099999999999966 8.400000000000006 23.599999999999966 2.5 6.800000000000011-5.799999999999983 8.100000000000023-16.5 2.6000000000000227-23.599999999999994z m498.20000000000005 477.9c-6.800000000000068-9.700000000000045-20.40000000000009-12-30.100000000000023-5.2000000000000455-9.700000000000045 6.800000000000068-12 20.40000000000009-5.2000000000000455 30.100000000000023 6.800000000000068 9.700000000000045 20.399999999999977 12 30.100000000000023 5.2000000000000455 9.700000000000045-7.2000000000000455 12-20.399999999999977 5.2000000000000455-30.100000000000023z m-427.40000000000003-499.9c7.800000000000011-3.200000000000017 11.699999999999989-12.600000000000023 8.099999999999966-20.400000000000034-3.599999999999966-8-12.599999999999966-11.599999999999994-20.399999999999977-8-8.100000000000023 3.5-11.600000000000023 12.600000000000023-8.100000000000023 20.30000000000001 3.3000000000000114 7.800000000000011 12.700000000000045 11.699999999999989 20.400000000000034 8.099999999999994z m-107.69999999999999 507.6c-6.800000000000011-18.40000000000009-27.50000000000003-27.800000000000068-46.00000000000003-21-18.400000000000006 6.7999999999999545-27.799999999999983 27.5-21 46 6.800000000000011 18.699999999999932 27.5 27.799999999999955 46 21 18.400000000000006-6.800000000000068 27.799999999999983-27.200000000000045 21.00000000000003-46z m-134.3-227.40000000000003c8.799999999999983 15.5 28.5 21.399999999999977 44 12.300000000000011 15.5-8.700000000000045 21.399999999999977-28.5 12.299999999999983-44-8.699999999999989-15.5-28.5-21-44-12.300000000000011s-21 28.5-12.299999999999997 44z m354 365.59999999999997c-2.3000000000000114-11.699999999999932-13.600000000000023-19.100000000000023-25.30000000000001-16.799999999999955-11.600000000000023 2.199999999999932-19.100000000000023 13.5-16.80000000000001 25.199999999999932 2.3000000000000114 11.600000000000023 13.600000000000023 19.100000000000023 25.19999999999999 16.800000000000068 11.700000000000045-2.6000000000000227 19.100000000000023-13.600000000000023 16.900000000000034-25.200000000000045z m-28.5-668.0999999999999c9-1.3000000000000682 15.5-10.000000000000057 14.199999999999989-19.10000000000008-1.3000000000000114-9.399999999999977-9.699999999999989-15.5-19.100000000000023-14.199999999999989-9 1.3000000000000114-15.5 9.699999999999989-14.199999999999989 19.099999999999994 1.3000000000000114 9.300000000000011 9.699999999999989 15.5 19.100000000000023 14.200000000000017z m-261.1 220.99999999999994c12.300000000000011-7.800000000000011 15.900000000000006-24 8.100000000000023-35.900000000000034-7.800000000000011-12.299999999999955-24-15.599999999999966-35.900000000000006-8.099999999999966-12.300000000000011 7.699999999999989-15.900000000000006 23.599999999999966-8.099999999999994 35.89999999999998 7.799999999999983 12 23.599999999999994 15.5 35.89999999999998 8.100000000000023z m5.5 279.2c19.700000000000017-8.399999999999977 28.80000000000001-31.399999999999977 20.100000000000023-51.10000000000002-8.5-19.799999999999955-31.400000000000006-28.799999999999955-51.20000000000002-20.399999999999977-19.69999999999999 8.399999999999977-28.799999999999983 31.399999999999977-20.299999999999983 51.10000000000002 8.699999999999989 20.100000000000023 31.69999999999999 29.100000000000023 51.39999999999998 20.399999999999977z m-72.1-107.10000000000002c8.700000000000017 17.800000000000068 30 24.899999999999977 47.80000000000001 16.200000000000045 17.5-8.800000000000068 24.900000000000006-30.100000000000023 16.19999999999999-47.89999999999998-8.699999999999989-17.800000000000068-30.099999999999994-24.900000000000034-47.900000000000006-16.200000000000045-17.799999999999983 9.100000000000023-25.19999999999999 30.399999999999977-16.099999999999994 47.89999999999998z m756.4-246.89999999999998c22.899999999999977 2.3000000000000114 43.299999999999955-14.199999999999989 45.60000000000002-36.80000000000001 2.199999999999932-23-14.300000000000068-43.39999999999998-36.89999999999998-45.69999999999999-22.600000000000023-2.1999999999999886-43.40000000000009 13.900000000000006-45.60000000000002 36.89999999999998-2.6000000000000227 22.700000000000045 13.899999999999977 43 36.89999999999998 45.60000000000002z m63.700000000000045 131.10000000000002c-27.5 0-49.80000000000007 22-49.80000000000007 49.799999999999955 0 27.5 22.300000000000068 49.80000000000007 49.80000000000007 49.80000000000007 27.5 0 49.799999999999955-22.300000000000068 49.799999999999955-49.80000000000007 0-27.5-22.299999999999955-49.799999999999955-49.799999999999955-49.799999999999955z m-60.5-68c-1.3000000000000682 25.299999999999955 18.09999999999991 46.89999999999998 43.39999999999998 48.19999999999999 25.199999999999932 1.3000000000000114 46.89999999999998-18.100000000000023 48.19999999999993-43.30000000000001 1.3000000000000682-25.600000000000023-18.199999999999932-46.60000000000002-43.39999999999998-48.19999999999999-25.600000000000023-1-46.89999999999998 18.099999999999966-48.19999999999993 43.30000000000001z m-274.70000000000005 526.6999999999999c-11.299999999999955 3.300000000000068-18.100000000000023 14.900000000000091-15.200000000000045 26.200000000000045 3.300000000000068 11.399999999999977 14.900000000000091 18.200000000000045 26.200000000000045 15.200000000000045 11.299999999999955-2.900000000000091 18.5-14.5 15.200000000000045-26.200000000000045-2.900000000000091-11.600000000000023-14.5-18.399999999999977-26.200000000000045-15.200000000000045z m200-127.39999999999998c-18.200000000000045 2.8999999999999773-30.399999999999977 20-27.899999999999977 38.10000000000002 3 18.200000000000045 20.100000000000023 30.399999999999977 38.19999999999993 27.5 18.100000000000023-2.8999999999999773 30.40000000000009-19.700000000000045 27.5-38.10000000000002-2.8999999999999773-17.799999999999955-19.699999999999932-30.100000000000023-37.799999999999955-27.5z m71.5-100.29999999999995c-22.700000000000045 2.199999999999932-39.5 22.899999999999977-36.89999999999998 45.60000000000002 2.199999999999932 23 23 39.09999999999991 45.60000000000002 36.89999999999998 23-2.300000000000068 39.5-22.700000000000045 36.89999999999998-45.700000000000045-2.6000000000000227-22.899999999999977-23-39.10000000000002-45.60000000000002-36.799999999999955z m-164.39999999999998 177.29999999999995c-14.899999999999977 3.2000000000000455-24.300000000000068 17.800000000000068-21.300000000000068 32.30000000000007 3.2000000000000455 14.899999999999977 17.800000000000068 24.299999999999955 32.60000000000002 21.399999999999977 14.899999999999977-2.8999999999999773 24.300000000000068-17.5 21.100000000000023-32.700000000000045-2.8999999999999773-14.899999999999977-17.5-24.299999999999955-32.39999999999998-21z m210.60000000000002-289c-24.90000000000009 1.3000000000000682-44.30000000000007 23-43.30000000000007 48.30000000000007 1.3000000000000682 25.5 22.899999999999977 44.59999999999991 48.200000000000045 43.299999999999955 25.199999999999932-1.2999999999999545 44.60000000000002-22.600000000000023 43.299999999999955-48.200000000000045-1.2999999999999545-25.59999999999991-22.899999999999977-45-48.19999999999993-43.39999999999998z m-210.30000000000007-428c14.600000000000023 3.3000000000000114 29.200000000000045-6.499999999999972 32.39999999999998-21.299999999999983 3.2000000000000455-14.899999999999991-6.5-29.5-21-32.39999999999999-14.899999999999977-3.200000000000003-29.5 6.200000000000003-32.69999999999993 21-2.8999999999999773 14.899999999999991 6.5 29.499999999999986 21.299999999999955 32.7z m-644.1 288.90000000000003c25.200000000000045-1.3000000000000114 44.60000000000005-22.900000000000034 43.30000000000004-48.19999999999999-1.2999999999999972-25.5-22.89999999999999-44.60000000000002-48.19999999999999-43.30000000000001-24.900000000000006 1.3000000000000114-44.60000000000001 22.599999999999966-43.300000000000004 48.19999999999999 1.2999999999999972 25.5 23 44.89999999999998 48.199999999999996 43.30000000000001z m46.30000000000004-111.60000000000002c22.599999999999994-2.3000000000000114 39.400000000000006-23 36.80000000000001-45.599999999999966-2.200000000000017-23.00000000000003-22.900000000000006-39.50000000000003-45.60000000000001-36.900000000000034-23 2.3000000000000114-39.5 22.69999999999999-36.89999999999999 45.60000000000002 2.5999999999999943 22.69999999999999 23 39.19999999999999 45.69999999999999 36.89999999999998z m-14.299999999999997 181.2c0-27.5-22.299999999999997-49.799999999999955-49.8-49.799999999999955-27.2 0-49.5 22.299999999999955-49.5 49.799999999999955 0 27.5 22.3 49.80000000000007 49.8 49.80000000000007 27.200000000000003 0 49.5-22.300000000000068 49.5-49.80000000000007z m178.3-358.5c14.899999999999977-3.1999999999999886 24.19999999999999-17.799999999999983 21.299999999999955-32.699999999999974-3.1999999999999886-14.799999999999997-17.799999999999955-24.200000000000003-32.299999999999955-21-14.900000000000034 3.200000000000003-24.30000000000001 17.5-21.400000000000034 32.39999999999999 3.3000000000000114 15.200000000000017 17.80000000000001 24.599999999999994 32.400000000000034 21.30000000000001z m107.39999999999998-50.49999999999997c11.300000000000011-3.200000000000003 18.399999999999977-14.800000000000011 15.199999999999989-26.200000000000003-3.1999999999999886-11.300000000000004-14.899999999999977-18.1-26.19999999999999-15.200000000000003-11.300000000000011 2.8999999999999986-18.399999999999977 14.599999999999994-15.199999999999989 26.200000000000003 2.8999999999999773 11.700000000000003 14.899999999999977 18.5 26.19999999999999 15.200000000000003z m-274.7 526.7c1.299999999999983-25.200000000000045-18.10000000000001-46.5-43.30000000000001-48.200000000000045-24.9-1.6000000000000227-46.6 17.800000000000068-47.9 43.10000000000002-1.3000000000000007 25.5 18.1 46.60000000000002 43.300000000000004 48.200000000000045 25 1.2999999999999545 46.599999999999994-17.800000000000068 47.89999999999999-43.10000000000002z m75.1-399.20000000000005c18.099999999999994-2.8999999999999773 30.400000000000006-19.99999999999997 27.799999999999983-38.19999999999999-2.8999999999999773-18.099999999999994-20.099999999999994-30.399999999999977-38.19999999999999-27.5-18.099999999999994 3-30.400000000000006 19.80000000000001-27.5 38.20000000000002 2.5999999999999943 17.799999999999983 19.80000000000001 30.099999999999994 37.900000000000006 27.5z m618.6-0.29999999999998295c18.100000000000023 3.200000000000017 35.200000000000045-9.400000000000006 38.10000000000002-27.5 3-18.5-9.700000000000045-35.29999999999998-27.5-38.19999999999999-18.100000000000023-2.9000000000000057-35.200000000000045 9.400000000000006-38.10000000000002 27.5-3.2999999999999545 18.099999999999994 9 35.29999999999998 27.5 38.19999999999999z m-309.3-143c11 0 20.000000000000057-8.699999999999989 20.000000000000057-20.099999999999994 0-11-8.700000000000045-20-20.000000000000057-20-11 0-20.099999999999966 8.700000000000003-20.099999999999966 20 0 11.400000000000006 9.099999999999966 20.099999999999994 20.099999999999966 20.099999999999994z m-381.1 606c-22.69999999999996-2.6000000000000227-43.099999999999966 14.199999999999932-45.69999999999996 36.799999999999955-2.200000000000003 23 14.299999999999997 43.39999999999998 36.89999999999999 45.700000000000045 22.700000000000003 2.199999999999932 43.39999999999999-14 45.60000000000001-36.89999999999998 2.299999999999983-23-14.200000000000017-43.40000000000009-36.80000000000001-45.60000000000002z m490.40000000000003-590.2c11.399999999999977 3.3000000000000256 23.299999999999955-3.4999999999999716 26.200000000000045-15.199999999999974 3.2999999999999545-11.299999999999997-3.800000000000068-23.300000000000004-15.200000000000045-26.200000000000003-11.299999999999955-3.200000000000003-23.299999999999955 3.6000000000000014-26.200000000000045 15.200000000000003-2.8999999999999773 11.399999999999991 3.900000000000091 23 15.200000000000045 26.200000000000003z m-109.60000000000002 833.8000000000001c-11 0-20.099999999999966 8.699999999999932-20.099999999999966 20 0 11 8.699999999999989 20.09999999999991 20.099999999999966 20.09999999999991 11 0 20-8.699999999999932 20-20.09999999999991 0.3000000000000682-11.300000000000068-8.699999999999989-20-20-20z m-309.29999999999995-143c-18.200000000000017-2.900000000000091-35.00000000000003 9.399999999999977-37.900000000000034 27.5-2.8999999999999773 18.399999999999977 9.400000000000006 35.19999999999993 27.5 38.19999999999993 18.100000000000023 2.8999999999999773 35.30000000000001-9.399999999999977 38.20000000000002-27.5 2.9000000000000057-18.199999999999932-9.400000000000006-35.299999999999955-27.80000000000001-38.19999999999993z m199.89999999999998 127.09999999999991c-11.300000000000011-3.199999999999932-23.30000000000001 3.6000000000000227-26.19999999999999 15.200000000000045-3.1999999999999886 11.399999999999977 3.8999999999999773 23.299999999999955 15.199999999999989 26.200000000000045 11.300000000000011 2.8999999999999773 23.30000000000001-3.5 26.19999999999999-15.200000000000045 3.1999999999999886-11.299999999999955-3.8999999999999773-23.299999999999955-15.199999999999989-26.200000000000045z m-107.39999999999998-50.39999999999998c-14.600000000000023-3.2999999999999545-29.50000000000003 6.100000000000023-32.400000000000034 21-3.1999999999999886 14.899999999999977 6.5 29.399999999999977 21.100000000000023 32.700000000000045 14.800000000000011 3.199999999999932 29.399999999999977-6.5 32.599999999999966-21.399999999999977 3.3000000000000114-14.600000000000023-6.399999999999977-29.100000000000023-21.299999999999955-32.30000000000007z"/>
</svg>
