<svg xmlns="http://www.w3.org/2000/svg" viewBox="0 0 1000 1000" width="1000" height="1000">
<path d="M830.9 507.4c-1.1000000000000227 8.399999999999977-1.7999999999999545 15.600000000000023-2.8999999999999773 22.700000000000045-4.7000000000000455 31.699999999999932-15 61.39999999999998-31.200000000000045 89.10000000000002-24.699999999999932 41.89999999999998-58.39999999999998 74.39999999999998-101.39999999999998 97.19999999999993-47.5 25.200000000000045-97.89999999999998 33.39999999999998-151.19999999999993 27.399999999999977-26.700000000000045-3-52.30000000000007-9.599999999999909-76.30000000000007-21.399999999999977-6.5-3.199999999999932-8.799999999999955-1.1000000000000227-11.799999999999955 4.100000000000023-17.200000000000045 29.799999999999955-34.80000000000001 59.39999999999998-52.30000000000001 89-8.699999999999989 14.700000000000045-17.30000000000001 29.5-26.900000000000034 46 19.30000000000001 8.299999999999955 37.30000000000001 16.700000000000045 55.80000000000001 23.700000000000045 46.10000000000002 17.5 94.09999999999997 25.5 143.2 23.699999999999932 28-1 55.80000000000007-5.7999999999999545 83.70000000000005-8.600000000000023 5.600000000000023-0.599999999999909 6.7999999999999545-3.199999999999932 6.899999999999977-8.299999999999955 0.20000000000004547-6.899999999999977 1.1000000000000227-13.899999999999977 2.7000000000000455-20.600000000000023 11.199999999999932-46.19999999999993 38.299999999999955-79.19999999999993 82.39999999999998-97.79999999999995 20.100000000000023-8.5 41.19999999999993-11.700000000000045 62.89999999999998-10.200000000000045 21.399999999999977 1.3999999999999773 41.299999999999955 8 60.10000000000002 17.700000000000045 89.39999999999998-89 120.5-213.20000000000005 117.89999999999998-273.8-53.799999999999955 0.0999999999999659-107.70000000000005 0.0999999999999659-161.60000000000002 0.0999999999999659z m-411.5 187.30000000000007c-16.19999999999999-16.40000000000009-34.5-31.100000000000023-48.5-49.10000000000002-28.899999999999977-37-46.099999999999966-79.30000000000007-50.5-126.70000000000005-3.3999999999999773-36.19999999999999-1.1999999999999886-71.5 9.600000000000023-106.19999999999999 13.5-43.099999999999966 36.5-80.39999999999998 70.39999999999998-110.59999999999997 6.2000000000000455-5.600000000000023 12.300000000000011-11.400000000000034 18.5-17.30000000000001-4.2999999999999545-7-8.399999999999977-13.800000000000011-12.599999999999966-20.400000000000034-23.69999999999999-37.69999999999999-47.400000000000034-75.39999999999998-71.19999999999999-113.09999999999997-1.900000000000034-3.1000000000000227-3.900000000000034-6.600000000000023-8.400000000000034-2.9000000000000057-13.300000000000011 11-27.19999999999999 21.299999999999983-40 32.900000000000006-29.69999999999999 26.899999999999977-53.89999999999998 58.39999999999998-74.39999999999998 92.69999999999999-18.400000000000006 30.899999999999977-33 63.5-42.70000000000002 98.69999999999999 2.9000000000000057 1.900000000000034 6 3.3000000000000114 8.400000000000006 5.400000000000034 13 11.299999999999955 27.400000000000006 21.5 38.19999999999999 34.5 21.600000000000023 26 28.900000000000006 57.19999999999999 27.80000000000001 91-1.5999999999999943 48.89999999999998-24 85.29999999999995-63.80000000000001 112-4.5 3-5.699999999999989 5.600000000000023-3.8999999999999773 10.299999999999955 5.399999999999977 13.200000000000045 10.199999999999989 26.700000000000045 16.19999999999999 39.60000000000002 16.900000000000006 36.5 38.80000000000001 69.79999999999995 65.39999999999998 100.20000000000005 24.30000000000001 27.899999999999977 52.10000000000002 51.5 82.60000000000002 72.39999999999998 1.3000000000000114-0.8000000000000682 1.6000000000000227-0.8999999999999773 1.6999999999999886-1.2000000000000455 26.600000000000023-44.799999999999955 53.19999999999999-89.69999999999993 79.5-134.69999999999993 1.1999999999999886-1.5-0.5-5.800000000000068-2.3000000000000114-7.5z m278.1-430.40000000000003c79.60000000000002 42.80000000000001 122.60000000000002 112.09999999999997 133.5 201.8h162.20000000000005c-5-98.80000000000001-43.30000000000007-182.90000000000003-107-257.5-49.10000000000002 33.79999999999998-100.40000000000009 39.79999999999998-152 12.699999999999989-56.80000000000007-29.900000000000006-77.90000000000009-80.70000000000002-73-143.4-104.10000000000002-22.200000000000003-201.70000000000005-5.800000000000011-295.00000000000006 44.8 30.30000000000001 47.999999999999986 59.400000000000034 94.10000000000001 88.19999999999999 139.8 82.60000000000002-39.099999999999994 163.89999999999998-40.80000000000001 243.10000000000002 1.8000000000000114z m-591.7 134.59999999999997c-55.799999999999955 0.20000000000004547-99.39999999999995 45.200000000000045-99.09999999999995 99 0.3999999999999968 55.89999999999998 45.599999999999994 97.70000000000005 98.6 98.39999999999998 53.3 0.7000000000000455 98.7-44.89999999999998 98.7-97.99999999999994 0.6999999999999886-54.30000000000001-44.19999999999999-99.60000000000002-98.2-99.40000000000003z m694.7-201.49999999999997c54.89999999999998-0.09999999999999432 96.89999999999998-45.5 98-97.80000000000001 1.1000000000000227-53.39999999999999-45.799999999999955-100.5-97.89999999999998-99.6-55.200000000000045-1-100.30000000000007 44.9-99.89999999999998 98.5 0.2999999999999545 56.19999999999999 44.59999999999991 99.1 99.79999999999995 98.9z m4.600000000000023 606.6c-52.89999999999998-0.10000000000002274-98.80000000000007 45.200000000000045-99 97.70000000000005-0.10000000000002274 52.69999999999993 45.5 98.19999999999993 98.39999999999998 98.29999999999995 49.89999999999998 0.7999999999999545 97.89999999999998-41 98.79999999999995-97.70000000000005 0.900000000000091-52.59999999999991-45.299999999999955-98.19999999999993-98.19999999999993-98.29999999999995z"/>
</svg>
