<svg xmlns="http://www.w3.org/2000/svg" viewBox="0 0 1000 1000" width="1000" height="1000">
<path d="M968.9 677.7c0-0.20000000000004547-0.10000000000002274-0.40000000000009095 0 0z m0 0v0.09999999999990905l-0.1999999999999318 0.6000000000000227 0.599999999999909 0.3000000000000682c-0.2999999999999545-0.5-0.39999999999997726-0.8000000000000682-0.39999999999997726-1z m-11.5-154.10000000000002c-17.100000000000023-4.100000000000023-33.39999999999998-12.100000000000023-49.5-19.5-18.899999999999977-8.700000000000045-37.39999999999998-17.900000000000034-58.69999999999993-19.100000000000023-2.1000000000000227-0.10000000000002274-5.100000000000023-1.8999999999999773-6-3.8000000000000114-3.900000000000091-8-7.100000000000023-16.19999999999999-10.800000000000068-25.099999999999966 4.600000000000023-1.1000000000000227 7.300000000000068-1.900000000000034 10-2.400000000000034 20.300000000000068-3.8999999999999773 37.89999999999998 3.8000000000000114 55.200000000000045 12.699999999999989 14.399999999999977 7.300000000000011 28.399999999999977 15.5 43.19999999999993 21.900000000000034 18.700000000000045 8.099999999999966 37.200000000000045 6.399999999999977 54.200000000000045-5.199999999999989 2.3999999999999773-1.7000000000000455 4.600000000000023-5.800000000000011 4.5-8.700000000000045-0.39999999999997726-10.799999999999955-1.7999999999999545-21.5-2.8999999999999773-32.19999999999999-7.399999999999977-68.30000000000001-27.300000000000068-132.5-62-192-46.39999999999998-79.69999999999999-111.39999999999998-140.79999999999998-190.20000000000005-187.39999999999998-82.89999999999998-49.000000000000014-173.5-66.00000000000001-268.9-62.30000000000001-81.89999999999998 3.2-157.89999999999998 25.7-228.5 67.4-95 56.3-162.9 136.1-206.4 237.20000000000002-22.399999999999995 52.299999999999955-35.8 106.89999999999998-40.49999999999999 163.59999999999997-0.8000000000000014 9.199999999999989 2.9999999999999987 14.699999999999989 11.799999999999999 18.100000000000023 20.9 8.199999999999989 40.7 4.300000000000011 60.1-4.800000000000011 15.099999999999994-7.199999999999989 29.799999999999997-15.199999999999989 45-22.30000000000001 12.699999999999989-6 26.30000000000001-8.899999999999977 40.5-7.800000000000011 9.300000000000011 0.7000000000000455 11.900000000000006 5.400000000000034 7.699999999999989 13.700000000000045-1.299999999999983 2.5-3.5 4.7999999999999545-4 7.5-1.799999999999983 11-9.899999999999977 12.099999999999966-18.799999999999983 13.399999999999977-8.800000000000011 1.3999999999999773-17.700000000000003 3.3000000000000114-25.80000000000001 6.899999999999977-16.299999999999997 7.100000000000023-31.89999999999999 16.100000000000023-48.3 23.200000000000045-17.9 7.7999999999999545-36.699999999999996 11.799999999999955-56.4 7.2999999999999545-3.4999999999999982-0.7999999999999545-6.899999999999999-1.6000000000000227-10.999999999999998-2.6000000000000227 0.8999999999999997 11.5 2.6999999999999997 22 2.3 32.40000000000009-0.40000000000000036 9.799999999999955 4.3999999999999995 11.799999999999955 12.5 12.599999999999909 18.000000000000004 1.7000000000000455 34.099999999999994-3.599999999999909 50-11.199999999999932 14.5-7 29-14.399999999999977 44.099999999999994-19.899999999999977 9.200000000000003-3.300000000000068 19.60000000000001-3.300000000000068 32.10000000000001-5.2000000000000455-2.5999999999999943 11.299999999999955-3.9000000000000057 19.700000000000045-6.5 27.600000000000023-0.9000000000000057 2.699999999999932-4.800000000000011 5-7.900000000000006 6.199999999999932-14.900000000000006 5.900000000000091-30.599999999999994 10.200000000000045-44.900000000000006 17.300000000000068-22.599999999999994 11.199999999999932-43.699999999999996 25.600000000000023-71.39999999999999 24.799999999999955 2.599999999999998 10.5 5.299999999999997 19.899999999999977 7.299999999999997 29.600000000000023 1 4.7999999999999545 3.5 6.5 7.600000000000001 5.5 10.100000000000001-2.3999999999999773 20.6-4.2000000000000455 30.1-8.200000000000045 11.700000000000003-4.899999999999977 22.299999999999997-12.599999999999909 34-17.399999999999977 10.299999999999997-4.199999999999932 21.599999999999994-6.199999999999932 32.5-8.600000000000023 1.7000000000000028-0.39999999999997726 5.999999999999986 2.7000000000000455 6.1000000000000085 4.300000000000068 0.39999999999997726 6.7999999999999545-0.10000000000002274 13.600000000000023-1.0000000000000142 20.299999999999955-0.20000000000000284 1.7000000000000455-3.0999999999999943 3.5-5.099999999999994 4.300000000000068-10.400000000000006 4.2999999999999545-21.5 7.5-31.299999999999997 12.699999999999932-19.200000000000003 10.200000000000045-36.50000000000001 24.100000000000023-59.50000000000001 26.5 0.20000000000000284 3.300000000000068 0.30000000000000426 5.800000000000068 0.5 8.300000000000068 2.5 25.899999999999977 12.800000000000004 31.199999999999932 35.4 18 11-6.400000000000091 21.5-13.800000000000068 32.900000000000006-19.600000000000023 6.599999999999994-3.3999999999999773 14.399999999999991-5.100000000000023 21.799999999999997-6.100000000000023 2.9000000000000057-0.39999999999997726 8.400000000000006 2.7000000000000455 9 5.100000000000023 1.9000000000000057 7.699999999999932 2.0999999999999943 15.799999999999955 2.6999999999999886 23.799999999999955 0 0.39999999999997726-2.8999999999999773 1-4.399999999999977 1.6000000000000227-10.500000000000014 3.8999999999999773-21.500000000000014 6.899999999999977-31.400000000000006 12.100000000000023-12.5 6.5-24.10000000000001 14.799999999999955-36.900000000000006 22.799999999999955 2.5 5.7000000000000455 4.900000000000006 12.399999999999977 8.299999999999997 18.399999999999977 5.1000000000000085 9 8.799999999999997 9.600000000000023 18 4.7000000000000455 18-9.700000000000045 34.3-23.299999999999955 55.89999999999999-23.5-1.3999999999999773-10.700000000000045-2.6999999999999886-20.600000000000023-4-30.799999999999955 22.5 1.2999999999999545 29.5 0.39999999999997726 41.80000000000001-7.7000000000000455 10.900000000000006-7.2000000000000455 21.19999999999999-15.200000000000045 31.599999999999994-23.200000000000045 1.700000000000017-1.2999999999999545 2.4000000000000057-4.199999999999932 3.200000000000017-6.399999999999977 4.399999999999977-13.100000000000023 7.099999999999994-27 13.199999999999989-39.299999999999955 10.099999999999994-20.300000000000068 21.30000000000001-40.10000000000002 33.80000000000001-59 13-19.700000000000045 15-40.700000000000045 11.399999999999977-62.700000000000045-3.3000000000000114-19.799999999999955-7.5-39.599999999999966-11.599999999999966-59.19999999999999-8.400000000000034-40.099999999999966 2.099999999999966-75.80000000000001 24.799999999999955-108.69999999999999 5.100000000000023-7.5 11.900000000000034-13.300000000000011 22.100000000000023-15.899999999999977-0.8999999999999773 1.8999999999999773-1.1999999999999886 3-1.8000000000000114 3.7999999999999545-18.19999999999999 24.200000000000045-24.80000000000001 51.900000000000034-25 81.5-0.0999999999999659 28.700000000000045 5.600000000000023 56.400000000000034 16 83 9 23 7.800000000000011 45.200000000000045-3.8999999999999773 66.5-8.900000000000034 16.100000000000023-20.100000000000023 31-29 47-8.300000000000011 14.800000000000068-17.100000000000023 29.800000000000068-21.80000000000001 45.80000000000007-7.599999999999994 26.09999999999991 0.5999999999999943 51 12.5 74.59999999999991 3.6000000000000227 7 7.600000000000023 13.800000000000068 12 21.600000000000023-16.099999999999994 12.300000000000068-31.5 24.800000000000068-47.80000000000001 36-8.5 5.800000000000068-18.299999999999983 10.399999999999977-28.19999999999999 13.600000000000023-22.80000000000001 7.5-26.80000000000001 5-34.900000000000006-18-3.5-10-5.599999999999994-11.200000000000045-16.299999999999983-9.700000000000045-17.900000000000006 2.400000000000091-31.400000000000006 13.400000000000091-46.400000000000006 22.800000000000068 6.199999999999989 7.7999999999999545 12 14.699999999999932 17.299999999999997 22 2.8999999999999915 4.100000000000023 5.5 3.5 9.299999999999997 1.5 6.699999999999989-3.7000000000000455 13.199999999999989-8.200000000000045 20.5-10.300000000000068 6.699999999999989-1.8999999999999773 14.400000000000006-2.099999999999909 21.400000000000006-1.099999999999909 6.5 1 13.199999999999989 11.099999999999909 12.400000000000006 16.59999999999991-1.1000000000000227 7.800000000000068-8.100000000000023 7.600000000000023-13.600000000000023 9.100000000000023-6 1.6000000000000227-12.299999999999983 2.5-18.099999999999994 4.7000000000000455-9 3.2999999999999545-9.599999999999994 6.399999999999977-3.5 13.299999999999955 2.200000000000017 2.6000000000000227 4.599999999999994 5 7.099999999999994 7.300000000000068 12.900000000000006 12.299999999999955 12.900000000000006 12.199999999999932 29.200000000000017 5.099999999999909 3.0999999999999943-1.3999999999999773 6.5-3.199999999999932 9.699999999999989-2.8999999999999773 3.8000000000000114 0.3000000000000682 8.099999999999994 1.6000000000000227 11 4 3.4000000000000057 2.800000000000068 5.599999999999994 7.100000000000023 8.200000000000017 10.800000000000068 2.799999999999983 4 2.5 7.099999999999909-2.3000000000000114 9.5-5 2.599999999999909-9.599999999999994 5.7999999999999545-15.099999999999994 9.299999999999955 14.900000000000006 14.700000000000045 30.19999999999999 27.200000000000045 48.400000000000006 34.799999999999955 6.699999999999989-12.799999999999955 12.799999999999983-25.199999999999932 19.69999999999999-37.19999999999993 6.800000000000011-11.800000000000068 14.5-23.100000000000023 21.600000000000023-34.700000000000045 7.899999999999977-12.899999999999977 14.199999999999989-26.399999999999977 14.899999999999977-42 0.30000000000001137-7.399999999999977 2.3999999999999773-14.699999999999932 3.6000000000000227-22.100000000000023 3.3999999999999773 2 4.899999999999977 4.2000000000000455 6.099999999999966 6.600000000000023 9 18.399999999999977 7.400000000000034 36.5-2.5 53.80000000000007-8.300000000000011 14.5-18.099999999999966 28.09999999999991-27 42.299999999999955-8.099999999999966 12.700000000000045-15.5 25.899999999999977-16.30000000000001 41.5-0.0999999999999659 2.5 0.5 6.399999999999977 2.2000000000000455 7.5 7.399999999999977 4.899999999999977 15.199999999999989 9 24.299999999999955 14.100000000000023 0.10000000000002274-25.899999999999977 11.300000000000011-45.200000000000045 23.5-64.20000000000005 10-15.5 19.600000000000023-31.199999999999932 28.200000000000045-47.5 10-19.199999999999932 9-39.19999999999993-1.2000000000000455-58-6.199999999999989-11.399999999999977-13.899999999999977-22-21.399999999999977-32.69999999999993-9.699999999999989-13.700000000000045-20.600000000000023-26.5-29.600000000000023-40.5-15.399999999999977-23.90000000000009-17.899999999999977-50.10000000000002-5-75.40000000000009 9.400000000000034-18.5 21.200000000000045-36.39999999999998 34.5-52.299999999999955 20.5-24.299999999999955 27.200000000000045-50.5 18.100000000000023-80.69999999999999-5.600000000000023-18.69999999999999-12.399999999999977-37.10000000000002-18.399999999999977-55.69999999999999-6.300000000000011-19.600000000000023-10.900000000000034-39.900000000000034-5.300000000000011-60.200000000000045 4.899999999999977-17.399999999999977 10.5-34.89999999999998 18.69999999999999-50.89999999999998 6.100000000000023-12 16.69999999999999-21.899999999999977 25.80000000000001-32.10000000000002 2.6999999999999886-3.099999999999966 7.300000000000011-4.5 11.099999999999966-6.599999999999966-0.5 3.599999999999966-2.099999999999966 5.800000000000011-3.6999999999999886 8-26.599999999999966 36.599999999999966-38.599999999999966 77.39999999999998-29.19999999999999 121.89999999999998 4.199999999999989 19.900000000000034 14.699999999999989 38.5 23.100000000000023 57.400000000000034 14.399999999999977 32.5 13.799999999999955 63-9.100000000000023 91.89999999999998-11.399999999999977 14.399999999999977-22.100000000000023 29.600000000000023-31.399999999999977 45.5-21.900000000000034 37.10000000000002-18.80000000000001 71.39999999999998 8 105 9.899999999999977 12.399999999999977 20.399999999999977 24.399999999999977 30.099999999999966 37 10.800000000000011 14.100000000000023 17.30000000000001 29.899999999999977 17.100000000000023 48-0.19999999999998863 21-6.199999999999989 40.10000000000002-17.30000000000001 57.89999999999998-9.800000000000011 15.600000000000023-19.5 31.300000000000068-28.399999999999977 47.39999999999998-7.100000000000023 13-9.400000000000034 27.300000000000068-7.600000000000023 42.10000000000002 0.39999999999997726 3 1.8000000000000114 7.600000000000023 3.8999999999999773 8.399999999999977 9.800000000000011 4 19.900000000000034 6.900000000000091 31.30000000000001 10.600000000000023-8-29.699999999999932 0.4000000000000341-54.69999999999993 14.400000000000034-78.69999999999993 7.699999999999989-13.200000000000045 15.799999999999955-26.300000000000068 23.099999999999966-39.700000000000045 21.100000000000023-38.39999999999998 19.100000000000023-74.79999999999995-9.899999999999977-108.79999999999995-10.100000000000023-11.900000000000091-20.100000000000023-24-29.100000000000023-36.700000000000045-20.599999999999966-28.700000000000045-22.399999999999977-59-4.399999999999977-89.39999999999998 9.199999999999989-15.600000000000023 20.099999999999966-30.200000000000045 30.80000000000001-44.80000000000007 14.399999999999977-19.799999999999955 20.099999999999966-41.799999999999955 14-65.19999999999993-5.100000000000023-19.600000000000023-12.800000000000011-38.700000000000045-20.600000000000023-57.5-10.399999999999977-24.900000000000034-17.69999999999999-50.200000000000045-15.300000000000011-77.60000000000002 3.1000000000000227-35.60000000000002 16.30000000000001-65.80000000000001 45.69999999999999-87.60000000000002 2.5-1.8999999999999773 5.400000000000034-3.2999999999999545 8.100000000000023-5-3.6000000000000227 8.200000000000045-9 14.5-12.899999999999977 21.600000000000023-6.600000000000023 12.399999999999977-14 24.899999999999977-18 38.19999999999999-9.5 31.30000000000001-2.8000000000000114 61.900000000000034 8.899999999999977 91.40000000000003 8.899999999999977 22.399999999999977 18.600000000000023 44.39999999999998 27.69999999999999 66.69999999999999 8.100000000000023 19.80000000000001 7.199999999999989 39.49999999999994-2.099999999999966 58.49999999999994-4.7000000000000455 9.700000000000045-10.5 18.800000000000068-16.100000000000023 28-7.100000000000023 11.600000000000023-15.100000000000023 22.700000000000045-21.80000000000001 34.5-16.69999999999999 29.90000000000009-15.800000000000011 59.10000000000002 5.800000000000011 86.60000000000002 7.899999999999977 10.100000000000023 15.899999999999977 20 23.899999999999977 30 29.900000000000034 37 34.700000000000045 76.39999999999998 11.600000000000023 118.60000000000002-7.899999999999977 14.399999999999977-15.699999999999989 28.899999999999977-23.19999999999999 43.60000000000002-8.100000000000023 15.899999999999977-14.600000000000023 32.799999999999955-12.600000000000023 50.60000000000002 4 35.19999999999993 0 36.799999999999955 38 37.39999999999998 0.4000000000000341 0 0.9000000000000341-0.5 2-1.1000000000000227-17.599999999999966-35.5-7.099999999999966-68.79999999999995 9.100000000000023-101.5 9.300000000000011-18.799999999999955 18.899999999999977-37.5 27.19999999999999-56.700000000000045 11.199999999999989-25.899999999999977 8.199999999999989-51-7.300000000000011-74.5-4-6.199999999999932-8.300000000000011-12.199999999999932-12.699999999999989-18.09999999999991-11.699999999999989-16.100000000000023-24.19999999999999-31.5-35-48.200000000000045-10.899999999999977-16.899999999999977-11.699999999999989-35.60000000000002-2.6000000000000227-53.60000000000002 6.2000000000000455-12.299999999999955 14.5-23.600000000000023 21.600000000000023-35.60000000000002 6.899999999999977-11.599999999999909 14.699999999999989-23 20-35.39999999999998 7.899999999999977-18.399999999999977 13.699999999999989-22.399999999999977 32.39999999999998-15.399999999999977 17.900000000000034 6.7999999999999545 35.200000000000045 6.5 53.10000000000002 0.39999999999997726 6.5-2.199999999999932 13.799999999999955-3.1000000000000227 20.799999999999955-3.1000000000000227 6 0 10.800000000000068 2.800000000000068 13.900000000000091 9.200000000000045 5.5 11.399999999999977 11.799999999999955 22.600000000000023 18.699999999999932 33.200000000000045 8 12.399999999999977 17.600000000000023 23.699999999999932 25.399999999999977 36.19999999999993 11.5 18.399999999999977 13 38.5 3.300000000000068 57.700000000000045-7.800000000000068 15.299999999999955-18.100000000000023 29.299999999999955-27.800000000000068 43.60000000000002-9.399999999999977 13.799999999999955-20.399999999999977 26.59999999999991-28.799999999999955 41-12.299999999999955 21.09999999999991-12 43.299999999999955-0.7000000000000455 65 8.600000000000023 16.59999999999991 17.800000000000068 33 26 49.799999999999955 16.600000000000023 34.200000000000045 27.800000000000068 69.10000000000002 10.900000000000091 108.10000000000002 10.899999999999977-2.3999999999999773 20.699999999999932-4.2000000000000455 30.09999999999991-6.899999999999977 2.300000000000068-0.7000000000000455 4.400000000000091-4.2000000000000455 5.300000000000068-6.800000000000068 5.399999999999977-15.600000000000023 5.899999999999977-31.600000000000023 2.3999999999999773-47.799999999999955-5-22.800000000000068-16.700000000000045-42.60000000000002-27.700000000000045-62.80000000000007-6.699999999999932-12.5-14.199999999999932-24.799999999999955-18.699999999999932-38.09999999999991-8.399999999999977-24.600000000000023-1.6000000000000227-47.90000000000009 12-68.90000000000009 11.699999999999932-18.09999999999991 25.600000000000023-34.69999999999993 37.69999999999993-52.5 5.800000000000068-8.5 11.400000000000091-17.899999999999977 14.300000000000068-27.59999999999991 6.600000000000023-22.600000000000023-0.7000000000000455-43.30000000000007-12.5-62.40000000000009-9.5-15.5-20.700000000000045-29.899999999999977-30.100000000000023-45.39999999999998-5.100000000000023-8.299999999999955-9.200000000000045-17.699999999999932-11.600000000000023-27.100000000000023-5.699999999999932-22.09999999999991 2-42.599999999999966 10.800000000000068-62.49999999999994 8.299999999999955-18.900000000000034 18.299999999999955-37.30000000000001 25-56.69999999999999 17.699999999999932-51 9.099999999999909-97.70000000000005-26.200000000000045-139.10000000000002l-4.100000000000023-5.300000000000011c4 0.30000000000001137 6.7000000000000455 1.8000000000000114 9 3.6000000000000227 40.700000000000045 32.30000000000001 57.5 74 45.89999999999998 124.89999999999998-5.199999999999932 23.100000000000023-14.399999999999977 45.30000000000001-21.699999999999932 67.90000000000003-3.3999999999999773 10.5-6.5 21.099999999999966-9.800000000000068 31.699999999999932-7 22.5-3 43.30000000000007 10.100000000000023 62.40000000000009 9.300000000000068 13.599999999999909 19.800000000000068 26.299999999999955 29.300000000000068 39.69999999999993 8.899999999999977 12.600000000000023 15.799999999999955 26.200000000000045 17.5 41.89999999999998 2.2999999999999545 21.90000000000009-5.7000000000000455 40.80000000000007-17.800000000000068 58.10000000000002-11.199999999999932 16-23.5 31.300000000000068-35.39999999999998 46.89999999999998-20.100000000000023 26.200000000000045-23.100000000000023 54.5-8.899999999999977 83.90000000000009 8.299999999999955 17 18.399999999999977 33.19999999999993 27.899999999999977 49.69999999999993 9.299999999999955 16.100000000000023 17.600000000000023 32.5 19.399999999999977 51.30000000000007 0.8999999999999773 9.399999999999977 0.10000000000002274 19 0.10000000000002274 28.799999999999955 7.7999999999999545-2.5 16.100000000000023-5.5 24.5-7.7999999999999545 4.899999999999977-1.400000000000091 6.399999999999977-4.2000000000000455 6.7999999999999545-9.100000000000023 1.8000000000000682-19.5-3.7999999999999545-37.200000000000045-13.299999999999955-53.700000000000045-9.100000000000023-15.699999999999932-19.200000000000045-30.799999999999955-28.899999999999977-46.19999999999993-8.600000000000023-13.600000000000023-12.300000000000068-28.5-11.399999999999977-44.60000000000002 1-18.399999999999977 8.199999999999932-34.80000000000007 18.299999999999955-49.700000000000045 11.5-17.199999999999932 24.700000000000045-33.299999999999955 36-50.60000000000002 5.5-8.299999999999955 9.899999999999977-18 12.200000000000045-27.59999999999991 6-24.800000000000068-2.400000000000091-47.200000000000045-14.800000000000068-68.10000000000002-11.600000000000023-19.5-24.399999999999977-38.30000000000007-36.799999999999955-57.200000000000045-7.899999999999977-12.100000000000023-12.100000000000023-25.5-9.5-39.60000000000002 2.5-13.799999999999955 6.600000000000023-27.499999999999943 11.299999999999955-40.69999999999993 4.399999999999977-12.5 12-24 15.600000000000023-36.700000000000045 14.299999999999955-50.599999999999966 5.7000000000000455-97.69999999999999-24.399999999999977-140.79999999999995l-4.5-6.5 2.2999999999999545-2.2000000000000455c7.899999999999977 7 17.200000000000045 12.900000000000034 23.5 21.100000000000023 25.800000000000068 33.39999999999998 38.10000000000002 71 28.600000000000023 113.19999999999999-6 26.5-13.899999999999977 52.60000000000002-21.700000000000045 78.59999999999997-4.699999999999932 15.800000000000068-3.2999999999999545 31.100000000000023 3 45.700000000000045 4.600000000000023 10.600000000000023 10.700000000000045 20.600000000000023 17 30.299999999999955 9.100000000000023 14.100000000000023 19.40000000000009 27.300000000000068 28.300000000000068 41.40000000000009 17.5 27.899999999999977 17.699999999999932 56.5 0.10000000000002274 84.29999999999995-11.700000000000045 18.899999999999977-24.200000000000045 37-37.90000000000009 54-24.5 30.399999999999977-27.699999999999932 53-9 87.39999999999998 7.7000000000000455 14.200000000000045 16.700000000000045 27.700000000000045 25.200000000000045 41.5 11.200000000000045 18.300000000000068 20.899999999999977 37.10000000000002 21.700000000000045 60.30000000000007 6.7999999999999545-2.800000000000068 13.099999999999909-5.100000000000023 19.199999999999932-8 6.5-3.1000000000000227 9.200000000000045-8.200000000000045 6.2000000000000455-15.400000000000091-3.7000000000000455-9.099999999999909-6.5-18.799999999999955-11.399999999999977-27.399999999999977-8-14-16.700000000000045-27.699999999999932-26.200000000000045-40.799999999999955-12.299999999999955-17-14.799999999999955-35.89999999999998-12.399999999999977-55.80000000000007 0.7999999999999545-6.199999999999932 4-12 6.100000000000023-18 1.1999999999999318 0.3000000000000682 2.3999999999999773 0.5 3.5 0.8000000000000682 0.2999999999999545 2.2999999999999545 0.39999999999997726 4.699999999999932 0.7999999999999545 7 3 14 3.5 29.399999999999977 9.799999999999955 41.69999999999993 15.5 30.100000000000023 33.700000000000045 58.700000000000045 51.10000000000002 88.40000000000009 15.700000000000045-9.400000000000091 32.39999999999998-18.600000000000023 46.200000000000045-33.80000000000007-5.600000000000023-3.2999999999999545-10.100000000000023-6.199999999999932-14.800000000000068-8.799999999999955-7.199999999999932-4-8.299999999999955-7.2000000000000455-3.699999999999932-14.100000000000023l6.2999999999999545-8c2.8999999999999773-4.7000000000000455 6.300000000000068-5.5 11.300000000000068-3.2999999999999545 6.5 2.7999999999999545 13.299999999999955 5 20 7.199999999999932 2 0.7000000000000455 5.099999999999909 1.3000000000000682 6.399999999999977 0.3000000000000682 8.699999999999932-7 17.600000000000023-14 23.699999999999932-26.300000000000068-11.399999999999977-4.600000000000023-21.799999999999955-8.799999999999955-32.09999999999991-13.100000000000023-2-0.8999999999999773-4.900000000000091-2.2999999999999545-5.300000000000068-4-2-8.399999999999977 8.899999999999977-21.199999999999932 17.399999999999977-19.09999999999991 12.5 3 24.600000000000023 8.099999999999909 36.90000000000009 12.099999999999909 2.599999999999909 0.8000000000000682 7 2 8.099999999999909 0.7000000000000455 6.7000000000000455-7.399999999999977 12.700000000000045-15.399999999999977 19.5-24.100000000000023-17.699999999999932-8.899999999999977-33.09999999999991-16.699999999999932-48.5-24.299999999999955-6.699999999999932-3.300000000000068-11.699999999999932-1-14.399999999999977 5.699999999999932-2.5 6-4.399999999999977 12.300000000000068-6.600000000000023 18.40000000000009-2.5 6.7999999999999545-7.099999999999909 10.399999999999977-14.399999999999977 8-11.5-3.800000000000068-24.100000000000023-6.100000000000023-34.10000000000002-12.300000000000068-17.399999999999977-10.899999999999977-33.39999999999998-24.399999999999977-49.69999999999993-37.19999999999993-1.8000000000000682-1.400000000000091-2.3999999999999773-6.400000000000091-1.3999999999999773-8.800000000000068 3.2999999999999545-8.100000000000023 7.2999999999999545-15.899999999999977 11.699999999999932-23.5 8.899999999999977-15.5 12.5-32.10000000000002 11.100000000000023-49.799999999999955-1.7000000000000455-22-11.5-40.700000000000045-22.700000000000045-58.89999999999998l-31.5-49.5c-7.099999999999909-11.400000000000091-11.299999999999955-24.100000000000023-9.099999999999909-37.30000000000007 3.099999999999909-18.099999999999966 7.899999999999977-35.89999999999998 12.5-53.69999999999999 6.099999999999909-23.399999999999977 11-46.89999999999998 8.299999999999955-71.30000000000001-2.6000000000000227-23.5-12-44.799999999999955-21.700000000000045-65.89999999999998-1.2999999999999545-2.8999999999999773-2.599999999999909-5.899999999999977-4.7999999999999545-11 13.399999999999977 7.899999999999977 24 15.5 29.600000000000023 27.30000000000001 21.600000000000023 45.099999999999966 27.299999999999955 92 9.399999999999977 139.39999999999998-10.399999999999977 27.80000000000001-9 53.30000000000001 5.7000000000000455 78.30000000000001 8.599999999999909 14.700000000000045 18.899999999999977 28.399999999999977 27.09999999999991 43.299999999999955 7.7000000000000455 14.100000000000023 16.600000000000023 28.5 19.5 43.90000000000009 2.800000000000068 14.899999999999977 9.800000000000068 24.399999999999977 21 32.59999999999991 1.400000000000091 1 2.6000000000000227 2.2000000000000455 3.900000000000091 3.300000000000068 14.699999999999932 12.699999999999932 30.299999999999955 23.299999999999955 53.19999999999993 17.600000000000023-1.6000000000000227 11.599999999999909-3 21.699999999999932-4.5 32.5 17.300000000000068 0.2999999999999545 31.5 7.899999999999977 45.700000000000045 15.899999999999977 5.699999999999932 3.199999999999932 11.5 6.100000000000023 17.600000000000023 8.600000000000023 1.8999999999999773 0.7999999999999545 5.7999999999999545 0.599999999999909 6.599999999999909-0.6000000000000227 4.5-6.800000000000068 8.700000000000045-13.899999999999977 12.200000000000045-21.300000000000068 0.7000000000000455-1.5-1-6-2.5-6.599999999999909-25-9.700000000000045-43.39999999999998-32.60000000000002-72.60000000000002-34.40000000000009 1.2000000000000455-6.199999999999932 2.1000000000000227-11.199999999999932 3.2000000000000455-16.199999999999932 2.6000000000000227-11.800000000000068 2.7999999999999545-12.200000000000045 14.5-9.800000000000068 6.2999999999999545 1.3000000000000682 12.600000000000023 3.5 18.5 6.2000000000000455 9 4.2000000000000455 17.5 9.299999999999955 26.299999999999955 13.799999999999955 29.800000000000068 15.200000000000045 31.5 19.700000000000045 43.200000000000045-18.799999999999955-15.700000000000045-7.5-29.800000000000068-14.299999999999955-43.89999999999998-20.899999999999977-16.600000000000023-7.7000000000000455-33.40000000000009-15.100000000000023-50.10000000000002-22.800000000000068-1.7000000000000455-0.7999999999999545-3.7000000000000455-2.8999999999999773-3.800000000000068-4.5-0.39999999999997726-5.599999999999909-0.39999999999997726-11.299999999999955 0-17 0.40000000000009095-5.7999999999999545 3.5-9.199999999999932 9.600000000000023-7.099999999999909 12.5 4.2999999999999545 25.100000000000023 8.599999999999909 37.200000000000045 13.799999999999955 16.899999999999977 7.2999999999999545 33.19999999999993 15.799999999999955 50.10000000000002 23 9.099999999999909 3.8999999999999773 14.699999999999932 0.20000000000004547 16.5-9.600000000000023 1.5-8.299999999999955 2.199999999999932-16.699999999999932 3.099999999999909-23.299999999999955-15.099999999999909-5.100000000000023-29.699999999999932-9.200000000000045-43.69999999999993-14.899999999999977-9.600000000000023-3.900000000000091-18.399999999999977-10-27.5-15.200000000000045-14.399999999999977-8.100000000000023-29-15.5-45.89999999999998-16.899999999999977-1.900000000000091-0.10000000000002274-4.900000000000091-1.7000000000000455-5.2000000000000455-3.2000000000000455-2.2000000000000455-8.600000000000023-3.7000000000000455-17.399999999999977-5.5-26.699999999999932 16.299999999999955-2.800000000000068 30.299999999999955 0.5 43.700000000000045 6.399999999999977 13.5 6 26.5 12.899999999999977 39.89999999999998 19.100000000000023 14.899999999999977 6.7999999999999545 30.5 11.199999999999932 47 7.5 2.8999999999999773-0.7000000000000455 7-3.900000000000091 7.2999999999999545-6.400000000000091 1.5-12.5 2.1000000000000227-25.09999999999991 2.800000000000068-35.69999999999993-15.700000000000045-0.5-30 2.1000000000000227-42.80000000000007-1z m-686.5-192.40000000000003c-30.399999999999977 19.5-53.29999999999998 46.30000000000001-74.59999999999997 74.90000000000003-1.9000000000000057 2.5-5.800000000000011 5.599999999999966-8.200000000000017 5.2999999999999545-29.599999999999994-4.2999999999999545-56 5.5-81.89999999999999 17.5-11.799999999999997 5.5-23.400000000000006 11.900000000000034-35.60000000000001 16.100000000000023-16.999999999999993 5.800000000000011-34.3 6.699999999999989-51.99999999999999-4.399999999999977 8.299999999999997-12.700000000000045 15.899999999999999-24.600000000000023 23.699999999999996-36.400000000000034 18.200000000000003-27.69999999999999 36.7-55.39999999999998 47.3-87.19999999999999 7.200000000000003-21.69999999999999 10.5-44 7.900000000000006-67-0.5-4.099999999999994 1.0999999999999943-8.400000000000006 1.7000000000000028-12.699999999999989 4.8999999999999915 1.3999999999999773 10.700000000000003 1.5999999999999943 14.5 4.5 23.299999999999997 17.69999999999999 37.10000000000001 41.69999999999999 43.499999999999986 70 1.200000000000017 5.300000000000011 2 10.599999999999966 3.200000000000017 17.099999999999966 8-3 15.5-5.7999999999999545 23-8.699999999999989 21.299999999999983-8.099999999999966 42.79999999999998-15.399999999999977 66-14.5 12.900000000000006 0.5 25.099999999999994 3.6999999999999886 37.49999999999997 12.300000000000011-6 4.800000000000011-10.599999999999966 9.699999999999989-16 13.199999999999989z m147 24.69999999999999c14.400000000000034-2 27.700000000000045 0.8000000000000114 38.30000000000001 11.5 2.1000000000000227 2.1000000000000227 3 5.300000000000011 4.5 7.900000000000034l-2.099999999999966 1.8000000000000114-22.200000000000045-5c-7.699999999999989-1.8000000000000114-14.399999999999977-0.10000000000002274-20.399999999999977 5.199999999999989-5.199999999999989 4.599999999999966-9.399999999999977 2.8999999999999773-10.600000000000023-3.8000000000000114-2-11.100000000000023 1.3000000000000114-16 12.5-17.600000000000023z m177.89999999999998-26.19999999999999c0.8000000000000682 2.5 0.5 5.400000000000034 0.7000000000000455 8.600000000000023-16.700000000000045 0-31.899999999999977-0.19999999999998863-47 0.0999999999999659-4.2000000000000455 0.10000000000002274-8.299999999999955 1.8000000000000114-12.299999999999955 3-16.300000000000068 4.800000000000011-24.5 13.900000000000034-25.500000000000057 30.900000000000034-0.5999999999999659 10.699999999999989 0.6999999999999886 21.5 2.099999999999966 32.099999999999966 0.40000000000009095 3 3.5 6.800000000000011 6.300000000000068 7.900000000000034 1.6999999999999318 0.5999999999999659 6.199999999999932-2.8000000000000114 7.5-5.300000000000011 4.899999999999977-9.699999999999989 11.699999999999932-11.100000000000023 21.699999999999932-8.199999999999989 10.900000000000091 3.1999999999999886 22.300000000000068 3.8999999999999773 33.30000000000007-1.1999999999999886 6.199999999999932-2.8000000000000114 10.199999999999932 1.3999999999999773 11.699999999999932 6.5 1.900000000000091 6.099999999999966 3.900000000000091 13.099999999999966 2.800000000000068 19.099999999999966-5.5 31-15.399999999999977 60.5-36.39999999999998 85-5.5 6.400000000000034-11.900000000000091 12.300000000000011-18.700000000000045 17.30000000000001-26.100000000000023 19.200000000000045-61.30000000000001 19.200000000000045-87.10000000000002-0.5-36.39999999999998-27.80000000000001-54.799999999999955-65-54.5-111 0-4.5 1.8000000000000114-9.399999999999977 4.100000000000023-13.399999999999977 2.8999999999999773-4.900000000000034 8-6.400000000000034 13.300000000000011-3.3000000000000114 8.199999999999989 4.899999999999977 16.69999999999999 4.399999999999977 25.5 2.3999999999999773 9.099999999999966-2.099999999999966 18.30000000000001-4.099999999999966 27.19999999999999 1.8000000000000114 1.3000000000000114 0.8999999999999773 6.199999999999989-0.8000000000000114 6.899999999999977-2.3999999999999773 2.400000000000034-5.300000000000011 4.800000000000011-11 4.800000000000011-16.600000000000023 0.10000000000002274-8.699999999999989-1.3999999999999773-17.5-3-26.19999999999999-0.5999999999999659-3-2.599999999999966-6.300000000000011-4.899999999999977-8.5-7.900000000000034-7.699999999999989-18-10.699999999999989-28.69999999999999-11.199999999999989-9.100000000000023-0.4000000000000341-18.100000000000023-0.10000000000002274-27.30000000000001 0.0999999999999659-9.699999999999989 0.10000000000002274-12.900000000000034-4.5-8.699999999999989-13.300000000000011 8.199999999999989-17.5 21.5-29.69999999999999 39.299999999999955-36.89999999999998 23.600000000000023-9.600000000000023 48.400000000000034-10.399999999999977 72.89999999999998-7.100000000000023 14.900000000000091 2.1000000000000227 29.700000000000045 7.100000000000023 43.5 13 16.300000000000068 7 25.5 20.900000000000034 30.5 37.30000000000001z m-2.8999999999999773 46.900000000000034c-0.2999999999999545 1-6.399999999999977 1.1999999999999886-9.299999999999955 0.19999999999998863-13.899999999999977-4.699999999999989-27.600000000000023-8.699999999999989-42.30000000000007 0-2.7999999999999545-6.300000000000011-3-11.600000000000023 3-13.800000000000011 13-4.699999999999989 26.300000000000068-9.300000000000011 40.30000000000007-4.699999999999989 3.2999999999999545 1.099999999999966 7.7999999999999545 3 8.799999999999955 5.699999999999989 1.3999999999999773 3.6999999999999886 0.7000000000000455 8.600000000000023-0.5 12.600000000000023z m113.30000000000007-129.8c-7.800000000000068 17.099999999999966-12.900000000000091 35.30000000000001-19.800000000000068 54.5-57.69999999999993-24.30000000000001-118.69999999999993-44.60000000000002-184.89999999999998-43.19999999999999-65.80000000000001 1.3999999999999773-127.60000000000002 18-186.2 45.5-6.600000000000023-18.100000000000023-11.900000000000034-36.400000000000034-19.900000000000034-53.400000000000034-8-17.099999999999994-18.69999999999999-32.89999999999998-29-50.79999999999998 28.600000000000023-3.5999999999999943 51.700000000000045 11.799999999999983 77.40000000000003 20.900000000000006 1.8999999999999773-25.200000000000017-11.699999999999989-44.60000000000002-20.69999999999999-67.9 7.2999999999999545 0.4000000000000057 13.5-0.700000000000017 18.399999999999977 1.299999999999983 18 7.600000000000023 35.69999999999999 15.800000000000011 53.10000000000002 24.700000000000017 12.599999999999966 6.5 24.399999999999977 14.400000000000006 38.099999999999966 22.599999999999994 4-7 8.600000000000023-13.400000000000006 11.400000000000034-20.599999999999994 4.399999999999977-11.400000000000006 7.7999999999999545-23.099999999999994 10.799999999999955-34.900000000000006 0.7000000000000455-2.6999999999999886-0.6999999999999886-7.199999999999989-2.7999999999999545-9.099999999999994-12.100000000000023-11.600000000000009-24.80000000000001-22.60000000000001-37.10000000000002-33.900000000000006-2.1999999999999886-2-3.6999999999999886-4.799999999999997-6.899999999999977-9.200000000000003 12.599999999999966-0.8999999999999915 22.69999999999999-1.5999999999999943 32.69999999999999-2.299999999999997 10.199999999999989-0.7000000000000028 22.599999999999966 1.7999999999999972 29.899999999999977-3.200000000000003 7.300000000000011-4.8999999999999915 9.600000000000023-17.299999999999997 13.900000000000034-26.599999999999994 4.699999999999989-9.900000000000006 9.099999999999966-19.900000000000006 13.599999999999966-29.900000000000002l3.400000000000034-0.1999999999999993c5.399999999999977 12.399999999999999 12.100000000000023 24.4 16 37.199999999999996 4.699999999999932 15.600000000000009 12.699999999999932 22.60000000000001 29.799999999999955 21.200000000000003 13.100000000000023-1.0999999999999943 26.5 1.2000000000000028 42.30000000000007 2.200000000000003-2.800000000000068 4.3999999999999915-4.2000000000000455 7.8999999999999915-6.600000000000023 10.299999999999997-11.800000000000068 11.5-23.700000000000045 23-35.80000000000007 34-3.8999999999999773 3.5999999999999943-5 6.400000000000006-2.699999999999932 11.5 7.2999999999999545 16.5 14 33.400000000000006 21 50.599999999999994 28.399999999999977-16.299999999999983 54.5-35.29999999999998 85.89999999999998-43.69999999999999 6.2999999999999545-1.700000000000017 12.799999999999955-2.4000000000000057 19.200000000000045-3.5 1-0.20000000000001705 2.099999999999909 0.29999999999998295 4.099999999999909 0.5-3.699999999999932 22.5-18.5 41.599999999999994-18.199999999999932 65.79999999999998 26-6.799999999999983 48.5-22.599999999999994 77.39999999999998-20.799999999999983-9.700000000000045 17.599999999999994-20 33.400000000000006-27.799999999999955 50.400000000000006z m108.89999999999998 166.09999999999997c-2.7000000000000455 0.20000000000004547-6.800000000000068-1.599999999999966-8.300000000000068-3.7999999999999545-23.5-34.700000000000045-51.59999999999991-64.60000000000002-88.39999999999998-85.60000000000002-0.6999999999999318-0.39999999999997726-1.1000000000000227-1.1999999999999886-1.8999999999999773-1.8999999999999773 1.7999999999999545-8.400000000000034 8.5-10.800000000000011 15.5-12.400000000000034 26.299999999999955-6.099999999999966 51.799999999999955-2.599999999999966 76.39999999999998 7.900000000000034 10.100000000000023 4.2999999999999545 20.100000000000023 9.099999999999966 31.399999999999977 14.199999999999989 2.900000000000091-11.100000000000023 5.400000000000091-22 8.700000000000045-32.69999999999999 7.899999999999977-25.400000000000034 23-45.30000000000001 46.5-58.30000000000001 2.6000000000000227-1.4000000000000057 7.600000000000023-2.4000000000000057 9-1.1000000000000227 2.5 2.3000000000000114 4.600000000000023 7 4 10.100000000000023-7.899999999999977 43.39999999999998 5 81.89999999999998 27.299999999999955 118.09999999999997 12.300000000000068 20 25.5 39.5 38.30000000000007 59.30000000000001 2.7999999999999545 4.300000000000011 5.399999999999977 8.600000000000023 8.299999999999955 13.400000000000034-13.299999999999955 10.199999999999989-28.100000000000023 12.199999999999989-42.89999999999998 7.899999999999977-12.899999999999977-3.6999999999999886-25.799999999999955-8.899999999999977-37.5-15.600000000000023-27-15.599999999999966-55.60000000000002-21.899999999999977-86.39999999999998-19.5z m-320.3-234.99999999999997c-14.5 10.799999999999983-28.80000000000001 21.900000000000006-42.900000000000034 32.599999999999994 2 7.099999999999994 6.100000000000023 8.5 12 8.300000000000011 25-0.700000000000017 50-0.9000000000000057 74.89999999999998-1.5 2.7000000000000455-0.10000000000002274 5.400000000000091-1.8000000000000114 8-2.8000000000000114l0.6000000000000227-3.8000000000000114c-15.799999999999955-10.899999999999977-31.5-22-47.39999999999998-32.79999999999998-1.1999999999999886-0.8000000000000114-4-0.8000000000000114-5.199999999999989 0z m-3.3000000000000114 321.70000000000005c18.100000000000023 3.3999999999999773 35.799999999999955-7.100000000000023 47.10000000000002-28.900000000000034h-78.30000000000001c0.8000000000000114 7.5 21.899999999999977 27.19999999999999 31.19999999999999 28.900000000000034z m-7.199999999999989-65.20000000000005c-4 0.4000000000000341-7.900000000000034 2.900000000000034-13.300000000000011 5.100000000000023 17.69999999999999 11.600000000000023 33 13 50.5-0.10000000000002274-5.600000000000023-2.099999999999966-9.800000000000011-4.599999999999966-14.300000000000011-5-7.399999999999977-0.6999999999999886-15.199999999999989-0.6999999999999886-22.899999999999977 0z"/>
</svg>
