<svg xmlns="http://www.w3.org/2000/svg" viewBox="0 0 1000 1000" width="1000" height="1000">
<path d="M998.7 477.7c-13-124.30000000000001-154.4000000000001-191.7-260.4000000000001-129.59999999999997-7.7999999999999545 3.599999999999966-15.5 7.199999999999989-23.5 10.599999999999966-2.2999999999999545-0.5-4.599999999999909-1.8000000000000114-7.2999999999999545-3.599999999999966-52.299999999999955-36.400000000000034-120.79999999999995-40.200000000000045-176.89999999999998-11.600000000000023-9.200000000000045 4.399999999999977-18.399999999999977 9.600000000000023-27.5 15.5-3.7000000000000455 0.6999999999999886-7.100000000000023-0.6000000000000227-11.400000000000034-3.6000000000000227-52.39999999999998-35.799999999999955-117.09999999999997-40.39999999999998-172.7-14.099999999999966-11 4.899999999999977-22 11-33 18.19999999999999-3 0.30000000000001137-5.699999999999989-0.8999999999999773-9.100000000000023-3.3000000000000114-29.899999999999977-20.80000000000001-63.29999999999998-30.899999999999977-96.19999999999999-31.69999999999999-15-0.5-30.099999999999994 1.1000000000000227-45.099999999999994 4.899999999999977-20.5 4.900000000000034-40 13.600000000000023-57.5 25.600000000000023-58.89999999999999 37.89999999999998-84.3 95.69999999999999-76.8 166.89999999999998 13.000000000000004 124.30000000000007 154.39999999999998 191.70000000000005 260.4 129.60000000000002 7.800000000000011-3.6000000000000227 15.5-7.2000000000000455 23.5-10.600000000000023 2.3000000000000114 0.5 4.600000000000023 1.8000000000000682 7.300000000000011 3.6000000000000227 52.30000000000001 36.39999999999998 120.80000000000001 40.200000000000045 176.89999999999998 11.600000000000023 9.200000000000045-4.399999999999977 18.400000000000034-9.600000000000023 27.600000000000023-15.600000000000023 3.6999999999999886-0.7000000000000455 7.100000000000023 0.6000000000000227 11.399999999999977 3.6000000000000227 52.39999999999998 35.799999999999955 117.10000000000002 40.39999999999998 172.70000000000005 14.100000000000023 11-4.900000000000091 22-11 33-18.200000000000045 3-0.2999999999999545 5.699999999999932 0.8999999999999773 9.100000000000023 3.2999999999999545 29.899999999999977 20.800000000000068 63.299999999999955 30.90000000000009 96.19999999999993 31.700000000000045 15 0.6000000000000227 30-1 45.10000000000002-4.899999999999977 20.5-4.899999999999977 40-13.600000000000023 57.5-25.600000000000023 58.799999999999955-37.799999999999955 84.20000000000005-95.60000000000002 76.70000000000005-166.8z m-251 129.90000000000003c48.69999999999993-72.60000000000002 48.39999999999998-144.40000000000003 0.09999999999990905-216.10000000000002 2.300000000000068-2.1000000000000227 4.900000000000091-4 7.600000000000023-5.899999999999977 6.300000000000068-4.100000000000023 13-7.600000000000023 19.899999999999977-10.5 38.5-15.200000000000045 93.30000000000007-12.600000000000023 134.9000000000001 22.69999999999999 56.299999999999955 47.80000000000001 63.5 131.59999999999997 16.199999999999932 188.3-15.199999999999932 18.299999999999955-34.89999999999998 31.5-56.299999999999955 39.5-41.39999999999998 14.299999999999955-88.89999999999998 9-122.39999999999998-18z m-279.20000000000005 1.1999999999999318c-13.5 10.400000000000091-29.5 17.600000000000023-46.39999999999998 21.600000000000023-37 7.399999999999977-80.60000000000002-0.1999999999999318-107.10000000000002-22.899999999999977 49.5-66.70000000000005 47-152.39999999999998-0.19999999999998863-216.2 15.800000000000011-12.300000000000011 35.099999999999966-20.19999999999999 55.30000000000001-23.600000000000023 34.39999999999998-4.5 73.09999999999997 3.6000000000000227 98.59999999999997 24.5-49 72.90000000000003-48.5 144.8 0.10000000000002274 216.50000000000006-0.10000000000002274-0.10000000000002274-0.19999999999998863 0-0.30000000000001137 0.09999999999990905z m-184.89999999999998-185.29999999999995c32.799999999999955 41.39999999999998 33.099999999999966 109.60000000000002 1 152-33.00000000000003-36-35.30000000000001-110.30000000000001-1-152z m215.7 0c33.599999999999966 37.19999999999999 34.19999999999999 106.39999999999998 1.5 152.60000000000002-33.60000000000002-37.200000000000045-34.30000000000001-106.40000000000003-1.5-152.60000000000002z m31.999999999999943 184c49-72.89999999999998 48.5-144.8-0.09999999999990905-216.5l0.2999999999999545-0.19999999999998863c13.5-10.400000000000034 29.5-17.600000000000023 46.39999999999998-21.600000000000023 37-7.399999999999977 80.60000000000002 0.19999999999998863 107.10000000000002 22.900000000000034-49.5 66.69999999999999-47 152.39999999999998 0.20000000000004547 216.19999999999993-15.800000000000068 12.300000000000068-35.10000000000002 20.200000000000045-55.30000000000007 23.700000000000045-34.39999999999998 4.600000000000023-73.10000000000002-3.5-98.60000000000002-24.5z m184.10000000000002-183.5c33.10000000000002 36.10000000000002 35.30000000000007 110.39999999999998 1 152-32.799999999999955-41.39999999999998-33.10000000000002-109.60000000000002-1-152z m-470.79999999999995 190c-6.300000000000011 4.100000000000023-13.000000000000028 7.600000000000023-19.80000000000001 10.5-38.5 15.299999999999955-93.30000000000001 12.600000000000023-134.9-22.700000000000045-56.300000000000004-47.799999999999955-63.50000000000001-131.59999999999997-16.200000000000003-188.29999999999995 15.200000000000003-18.30000000000001 34.89999999999999-31.5 56.3-39.5 41.30000000000001-14.300000000000011 88.9-8.899999999999977 122.30000000000001 18.100000000000023-48.70000000000002 72.59999999999997-48.400000000000006 144.39999999999998-0.10000000000002274 216.10000000000002-2.299999999999983 2-4.899999999999977 4-7.599999999999994 5.7999999999999545z"/>
</svg>
