<svg xmlns="http://www.w3.org/2000/svg" viewBox="0 0 1000 1000" width="1000" height="1000">
<path d="M298.9 409.7l-77.19999999999999 181.00000000000006h62.30000000000001l12.100000000000023-32.30000000000007h90l11.899999999999977 32.30000000000007h62.5l-77.19999999999999-181.00000000000006h-84.40000000000003z m11.800000000000011 109.50000000000006l25.69999999999999-69.00000000000006h9.100000000000023l25.899999999999977 69.00000000000006h-60.69999999999999z m-147.79999999999998 1.1999999999999318c-0.5999999999999943 10.5-2 14.899999999999977-5.5 18.399999999999977-5.099999999999994 5.100000000000023-20.900000000000006 5.400000000000091-45 5.400000000000091s-43-0.3000000000000682-48.10000000000001-5.400000000000091c-5.199999999999996-5.199999999999932-5.799999999999997-13-5.799999999999997-39.099999999999966s0.6000000000000014-34.19999999999999 5.799999999999997-39.39999999999998c5.1000000000000085-5.199999999999989 24.10000000000001-5.5 48.10000000000001-5.5s39.19999999999999 0.30000000000001137 44.400000000000006 5.5c3.0999999999999943 3.099999999999966 3.3999999999999773 7.199999999999989 4.099999999999994 15.5h59.099999999999994c0.9000000000000057-24.80000000000001-2.9000000000000057-39.900000000000034-16.400000000000006-53.400000000000034-14.299999999999983-14.399999999999977-36.19999999999999-16.5-91.19999999999999-16.5-55.900000000000006 0-78.30000000000001 2.5-94.30000000000001 18.5-15.999999999999995 15.900000000000034-18.099999999999994 30.900000000000034-18.099999999999994 75.40000000000003 0 44.599999999999966 2.1 59.19999999999999 18.1 75.19999999999999 14.399999999999999 14.399999999999977 37.699999999999996 18.299999999999955 94.30000000000001 18.299999999999955 44.19999999999999 0 77-0.5 93.5-17 13.199999999999989-13.199999999999932 16.599999999999994-26.5 17.299999999999983-55.89999999999998h-60.29999999999998z m446.1-39.89999999999998l-68.79999999999995-3.1999999999999886c-11.900000000000091-1.1000000000000227-23.100000000000023 1.8000000000000114-23.100000000000023-13.300000000000011 0-15 9.399999999999977-14.300000000000011 41.89999999999998-14.300000000000011 33.89999999999998 0 43.299999999999955-1.1999999999999886 43.299999999999955 16.5h58c0-15.5-2.099999999999909-30-15.399999999999977-43.39999999999998-15-15.100000000000023-37.69999999999993-15.199999999999989-86.29999999999995-15.199999999999989-43.30000000000007 0-68.10000000000002 0.5-82.80000000000001 15.199999999999989-11.5 11.699999999999989-14.699999999999989 30.30000000000001-14.699999999999989 41.19999999999999 0 34.60000000000002 16.399999999999977 52.60000000000002 50.69999999999999 54.200000000000045l78.59999999999997 3.599999999999909c15.399999999999977 1 19.200000000000045 3.900000000000091 19.200000000000045 14.600000000000023 0 13.399999999999977-8.399999999999977 15.100000000000023-28.700000000000045 15.100000000000023h-32.799999999999955c-23.399999999999977 0-29.399999999999977-4.2000000000000455-29.399999999999977-16.799999999999955h-58.00000000000006c0 11.099999999999909 0.6999999999999886 30 11.199999999999989 40.299999999999955 14.300000000000011 14.399999999999977 22.700000000000045 19.100000000000023 92.20000000000005 19.100000000000023 69.19999999999993 0 75.5-3.6000000000000227 90.89999999999998-19.100000000000023 11.899999999999977-11.899999999999977 12.600000000000023-26.799999999999955 12.600000000000023-37.700000000000045 0.10000000000002274-42.099999999999966-18.100000000000023-54.99999999999994-58.60000000000002-56.799999999999955z m81.10000000000002-69.60000000000002h59.10000000000002v179.10000000000002h-59.10000000000002z m291 13.5c-17.100000000000023-17.599999999999966-48.200000000000045-18.19999999999999-92.89999999999998-18.19999999999999s-75.5 0.6000000000000227-92.90000000000009 18.19999999999999c-16.09999999999991 16-18.899999999999977 31.200000000000045-18.899999999999977 75.80000000000001 0 44.50000000000006 2.800000000000068 59.80000000000001 18.899999999999977 75.69999999999999 17.5 17.600000000000023 48.200000000000045 18.200000000000045 92.90000000000009 18.200000000000045s75.79999999999995-0.6000000000000227 92.89999999999998-18.200000000000045c16.100000000000023-16 18.899999999999977-31.199999999999932 18.899999999999977-75.69999999999999s-2.7999999999999545-59.80000000000001-18.899999999999977-75.80000000000001z m-45.700000000000045 114.39999999999998c-5.199999999999932 5.2000000000000455-23.399999999999977 5.400000000000091-47.19999999999993 5.400000000000091s-41.90000000000009-0.3000000000000682-47.200000000000045-5.400000000000091c-4.899999999999977-5.199999999999932-5.600000000000023-12.599999999999909-5.600000000000023-38.799999999999955 0-26.100000000000023 0.7000000000000455-33.60000000000002 5.600000000000023-38.80000000000001 5.2000000000000455-5.099999999999966 23.399999999999977-5.399999999999977 47.200000000000045-5.399999999999977s41.89999999999998 0.30000000000001137 47.19999999999993 5.399999999999977c4.899999999999977 5.199999999999989 5.600000000000023 12.699999999999989 5.600000000000023 38.80000000000001-0.10000000000002274 26.100000000000023-0.7999999999999545 33.60000000000002-5.600000000000023 38.799999999999955z"/>
</svg>
