<svg xmlns="http://www.w3.org/2000/svg" viewBox="0 0 1000 1000" width="1000" height="1000">
<path d="M500 0c-276.2 0-500 223.8-500 500s223.8 500 500 500 500-223.79999999999995 500-500-223.79999999999995-500-500-500z m-379.5 599.8v-163.69999999999993c-1.2000000000000028-92.60000000000002 161.7-92.80000000000001 158.60000000000002 2.2999999999999545v28.30000000000001h-47.50000000000003l-0.5999999999999943-30.899999999999977c0-35.5-62.099999999999994-34.400000000000034-62.69999999999999 1.8000000000000114l0.19999999999998863-1.6000000000000227v166c0.5999999999999943 36.10000000000002 62.5 35.5 62.5 0v-36.700000000000045h48.19999999999999v34.40000000000009c3 95-159.89999999999998 92.69999999999993-158.7 0.09999999999990905z m225.60000000000002 198.80000000000007h-34.80000000000001v-567.7h34.80000000000001v567.7z m235.5-135.89999999999998h-78.5v-231.50000000000006c0-33.80000000000001-57-32.599999999999966-57.400000000000034 1.6000000000000227v229.90000000000003h-70.30000000000001v-35.5h22.30000000000001v-217.00000000000006l-26.599999999999966-0.19999999999998863v-35.39999999999998h68l0.19999999999998863 26s8.199999999999989-12.300000000000011 29.899999999999977-24.200000000000045c25.5-14.099999999999966 50.400000000000034-2.099999999999966 50.900000000000034-1.599999999999966h-0.10000000000002274c21.5 9.599999999999966 29.700000000000045 32.80000000000001 31.200000000000045 58.69999999999999v193.79999999999995h30.5v35.40000000000009z m15.100000000000023-63.10000000000002v-163.70000000000005c-1.2000000000000455-92.59999999999997 161.5-92.79999999999995 158.5999999999999 2.3000000000000114v78.50000000000006c0 4.899999999999977-3.8999999999999773 8.799999999999955-8.799999999999955 8.799999999999955h-101.79999999999995v76.5c0.599999999999909 36.10000000000002 62.5 35.5 62.5 0v-36.700000000000045h48.19999999999993v34.40000000000009c3 94.79999999999995-160.10000000000002 92.5-158.69999999999993-0.10000000000002274z m254.89999999999998 63.10000000000002c-12.200000000000045 0.1999999999999318-24.100000000000023-4.7000000000000455-26-5.5 0.10000000000002274 0.09999999999990905 0.2999999999999545 0.1999999999999318 0.39999999999997726 0.1999999999999318-0.20000000000004547-0.10000000000002274-0.39999999999997726-0.1999999999999318-0.5-0.2999999999999545 0 0-0.10000000000002274 0-0.10000000000002274-0.10000000000002274-21.199999999999932-9.799999999999955-29.199999999999932-32.799999999999955-30.799999999999955-58.5v-298.7h48.39999999999998v74.59999999999997l-0.20000000000004547 0.6000000000000227h46.5v34.80000000000001h-46.299999999999955l0.20000000000004547 0.39999999999997726-0.20000000000004547 192.09999999999997c1 18.40000000000009 12.100000000000023 24.600000000000023 25.200000000000045 24.40000000000009 10.199999999999932 0 29.5 0.1999999999999318 29.5 0.1999999999999318v35.5c0 0.10000000000002274-38.10000000000002 0.10000000000002274-46.10000000000002 0.3000000000000682z m-144.39999999999998-226.80000000000007c0-35.39999999999998-61.700000000000045-35.69999999999999-62.5-0.19999999999998863l-0.20000000000004547 53.69999999999999h62.5l0.20000000000004547-53.5z"/>
</svg>
