<svg xmlns="http://www.w3.org/2000/svg" viewBox="0 0 1000 1000" width="1000" height="1000">
<path d="M633.8 122.5c10.300000000000068 2.299999999999997 21 3.799999999999997 31 7.199999999999989 45.5 15.5 74.60000000000002 47.10000000000002 85.5 93.60000000000002 10.300000000000068 43.69999999999999 0.40000000000009095 84-30.899999999999977 116.59999999999997-50 51.900000000000034-101.60000000000002 102.40000000000003-152.5 153.5-1.8999999999999773 1.900000000000034-4.199999999999932 3.5-6.7999999999999545 5.600000000000023 2.3999999999999773 2.5 3.8999999999999773 4.199999999999989 5.5 5.800000000000011l147.69999999999993 147.59999999999997c18.800000000000068 18.800000000000068 31.700000000000045 40.80000000000007 37.60000000000002 67 12.200000000000045 53.39999999999998-12.699999999999932 111.30000000000007-60.39999999999998 139-47.799999999999955 27.899999999999977-105.20000000000005 24-148.10000000000002-11-13.199999999999932-10.799999999999955-24.699999999999932-23.699999999999932-37-35.69999999999993-1.3999999999999773-1.400000000000091-2.5-2.900000000000091-4.199999999999989-4.900000000000091-2.1999999999999886 2.1000000000000227-3.8000000000000114 3.6000000000000227-5.5 5.2000000000000455-13.699999999999989 13-26.30000000000001 27.5-41.39999999999998 38.60000000000002-40.900000000000034 30-85.69999999999999 34.69999999999993-132 13.600000000000023-40-18.300000000000068-64.5-50.200000000000045-72.60000000000002-93.10000000000002-7.899999999999977-42 2-80.60000000000002 32.10000000000002-111.60000000000002 50.599999999999966-52.200000000000045 102.5-103.20000000000005 153.89999999999998-154.60000000000002 1.5-1.5 3.5-2.599999999999966 5.800000000000011-4.199999999999989-2.5-2.6999999999999886-4-4.399999999999977-5.600000000000023-6-49.89999999999998-49.80000000000001-99.59999999999997-99.69999999999999-149.5-149.3-21.799999999999955-21.599999999999966-34.89999999999998-47.599999999999966-38.29999999999998-77.89999999999998-5.599999999999994-50.19999999999999 17.00000000000003-98.80000000000001 62.00000000000003-126.1 16.299999999999955-9.900000000000006 34-15.800000000000011 53-17.700000000000003 1.2999999999999545-0.10000000000000853 2.599999999999966-0.7999999999999972 3.7999999999999545-1.2000000000000028h19.900000000000034c1.6999999999999886 0.4000000000000057 3.3000000000000114 1.0999999999999943 5 1.2999999999999972 22.69999999999999 2.6000000000000085 43.69999999999999 9.899999999999991 61.39999999999998 24.299999999999997 15 12.300000000000011 28.5 26.5 42.69999999999999 39.80000000000001 1.5 1.4000000000000057 3 2.799999999999983 4.900000000000034 4.5 10.199999999999989-10.300000000000011 19.900000000000034-20.099999999999994 29.69999999999999-29.900000000000006 15.5-15.5 33.39999999999998-27.30000000000001 54.5-33.599999999999994 9.799999999999955-2.9000000000000057 20-4.300000000000011 30.100000000000023-6.400000000000006h18.699999999999932z m-133.79999999999995 436.70000000000005c-1.3999999999999773 1.2999999999999545-2.3000000000000114 2-3.1000000000000227 2.7999999999999545-38.5 38.700000000000045-77 77.39999999999998-115.39999999999998 116.20000000000005-13.199999999999989 13.299999999999955-26.399999999999977 26.5-39.10000000000002 40.19999999999993-7.599999999999966 8.100000000000023-11.099999999999966 18.600000000000023-10.399999999999977 29.5 1.1000000000000227 19.300000000000068 10.300000000000011 33.80000000000007 28.69999999999999 40.80000000000007 18.30000000000001 7 34.69999999999999 2.7999999999999545 48.80000000000001-10.700000000000045 6.199999999999989-5.899999999999977 12.100000000000023-12.200000000000045 18.19999999999999-18.200000000000045 4.300000000000011-4.199999999999932 8.699999999999989-8.199999999999932 14-13.099999999999909-16.899999999999977-16.700000000000045-32.80000000000001-32.30000000000007-48-47.30000000000007l59.80000000000001-59.89999999999998c15.399999999999977 15.5 31.19999999999999 31.299999999999955 47.39999999999998 47.5 16.100000000000023-16.100000000000023 31.700000000000045-31.799999999999955 47-47 19.899999999999977 19.899999999999977 39.700000000000045 39.700000000000045 59.89999999999998 59.799999999999955-15.299999999999955 15.300000000000068-31 31-47.299999999999955 47.200000000000045 12.700000000000045 12.299999999999955 24.399999999999977 25.200000000000045 37.799999999999955 36.10000000000002 16.200000000000045 13.199999999999932 41.30000000000007 10.899999999999977 56.30000000000007-3.2000000000000455 19.600000000000023-18.5 19.5-47.10000000000002-0.3000000000000682-66.89999999999998l-149.69999999999993-149.70000000000005c-1.400000000000034-1.1999999999999318-2.8000000000000114-2.5-4.600000000000023-4.099999999999909z m0.30000000000001137-247.60000000000002c-16.5 16.599999999999966-32.30000000000001 32.39999999999998-47.5 47.69999999999999l-60.10000000000002-60.10000000000002c15.600000000000023-15.399999999999977 31.5-31 48.10000000000002-47.5-2.400000000000034-2-4.600000000000023-3.6999999999999886-6.5-5.5-9.699999999999989-9.599999999999994-18.80000000000001-19.899999999999977-29.19999999999999-28.69999999999999-16.80000000000001-14.199999999999989-43.30000000000001-12.900000000000006-58.80000000000001 2-19.100000000000023 18.30000000000001-19.30000000000001 46.30000000000001-0.4000000000000341 65.5 39.200000000000045 39.60000000000002 78.40000000000003 79.19999999999999 117.80000000000001 118.69999999999999 11.900000000000034 12 24.19999999999999 23.69999999999999 36.69999999999999 35.80000000000001 1.2000000000000455-1.1000000000000227 2.7000000000000455-2.5 4.2000000000000455-4l148.79999999999995-148.89999999999998c1.8999999999999773-1.900000000000034 3.800000000000068-3.900000000000034 5.600000000000023-6 13.100000000000023-15.800000000000011 13.299999999999955-39.80000000000001 0.39999999999997726-56.10000000000002-13.100000000000023-16.599999999999994-37-22.599999999999994-55-12-9.899999999999977 5.800000000000011-17.899999999999977 14.699999999999989-26.600000000000023 22.400000000000006-6.099999999999909 5.400000000000006-11.699999999999932 11.199999999999989-18.59999999999991 17.799999999999983 16.799999999999955 16.600000000000023 32.59999999999991 32.30000000000001 47.89999999999998 47.400000000000034l-59.200000000000045 59.19999999999999c-15.199999999999932-15.199999999999989-30.899999999999977-30.900000000000034-47.599999999999966-47.69999999999999z m499.7 199.29999999999995c-1.5 7.2000000000000455-2.7000000000000455 14.399999999999977-4.7000000000000455 21.5-14.899999999999977 52.5-49.59999999999991 84.70000000000005-102.59999999999991 94.80000000000007-44 8.399999999999977-83-5-115.20000000000005-36.5-10.299999999999955-10.100000000000023-20.299999999999955-20.5-30.899999999999977-31.100000000000023l-47.30000000000007 47.39999999999998c-20.09999999999991-20.100000000000023-39.799999999999955-39.799999999999955-59.59999999999991-59.700000000000045 15.199999999999932-15.099999999999909 31-30.799999999999955 46.69999999999993-46.299999999999955-16.5-16.5-32.39999999999998-32.19999999999999-47.89999999999998-47.69999999999999l60.299999999999955-60.30000000000001c15.300000000000068 15.399999999999977 31 31.30000000000001 47.10000000000002 47.5 9.700000000000045-9.800000000000011 18.800000000000068-18.5 27.5-27.600000000000023 19.600000000000023-20.5 42.700000000000045-34.5 70.80000000000007-40.19999999999999 47.09999999999991-9.599999999999966 98.19999999999993 7.600000000000023 129.19999999999993 48.69999999999999 14.100000000000023 18.700000000000045 22.700000000000045 39.60000000000002 25.300000000000068 62.900000000000034 0.09999999999990905 1.099999999999966 0.7999999999999545 2.099999999999966 1.1999999999999318 3.1999999999999886l0.10000000000002274 23.399999999999977z m-192.70000000000005-11c11.300000000000068 11.400000000000034 22.300000000000068 23 33.80000000000007 34 8 7.7000000000000455 18.600000000000023 11.200000000000045 29.299999999999955 10.800000000000068 28.600000000000023-1 45.60000000000002-23.300000000000068 44.39999999999998-46.900000000000034-0.8999999999999773-18.69999999999999-10.199999999999932-32-27.09999999999991-39.400000000000034-16.100000000000023-7.099999999999966-32.200000000000045-5-45.40000000000009 6.2000000000000455-12.5 10.799999999999955-23.399999999999977 23.5-35 35.299999999999955z m-554.8-59.099999999999966c17.100000000000023-17.100000000000023 32.69999999999999-32.80000000000001 48.10000000000002-48.19999999999999l60.599999999999966 60.5c-15.399999999999977 15.399999999999977-31.30000000000001 31.099999999999966-47.19999999999999 47 15.5 15.5 31.100000000000023 31.199999999999932 46.39999999999998 46.5-20 20-39.799999999999955 39.69999999999993-59.599999999999966 59.60000000000002-15.100000000000023-15.200000000000045-30.900000000000034-31-47-47.200000000000045-10.5 10.5-20.400000000000006 20.200000000000045-30 30.100000000000023-19.200000000000017 19.799999999999955-42.20000000000002 33.10000000000002-69.4 37.799999999999955-47.80000000000001 8.200000000000045-88.9-5.100000000000023-121.60000000000001-41.39999999999998-26.4-29.299999999999955-36.8-64.20000000000005-31.599999999999998-103 5.4-40.39999999999998 26.1-71.89999999999998 60.900000000000006-93.39999999999998 50.599999999999994-31.200000000000045 114.8-24 157.3 17.299999999999955 11.299999999999955 10.900000000000034 21.69999999999996 22.5 33.099999999999966 34.400000000000034z m-58.5 60c-12-12.100000000000023-22.5-23.400000000000034-33.69999999999999-33.900000000000034-10.600000000000023-10-23.600000000000023-14.099999999999966-38.20000000000002-11.299999999999955-18.89999999999999 3.599999999999966-31.099999999999994 14.899999999999977-35.8 33.299999999999955-4.5 17.700000000000045 0.6000000000000085 33.60000000000002 14.600000000000009 45.200000000000045 14.699999999999989 12.100000000000023 32.69999999999999 15.799999999999955 48.69999999999999 5.199999999999932 16.099999999999994-10.699999999999932 29.599999999999994-25.399999999999977 44.400000000000006-38.49999999999994z"/>
</svg>
