<svg xmlns="http://www.w3.org/2000/svg" viewBox="0 0 1000 1000" width="1000" height="1000">
<path d="M1000 528.4c-1.7000000000000455-126.79999999999995-42.10000000000002-237.09999999999997-128.29999999999995-329.9-24.40000000000009-26.19999999999999-51.90000000000009-44.599999999999994-88.20000000000005-45.30000000000001-56-1.1999999999999886-112-2.5999999999999943-167.89999999999998-0.5999999999999943-29.399999999999977 1.0999999999999943-58.60000000000002 9.200000000000017-87.89999999999998 14.099999999999994 77.79999999999995-47.599999999999994 163.29999999999995-65.19999999999999 254.29999999999995-72.29999999999998-51.60000000000002-26.80000000000001-102.70000000000005-54.10000000000001-157.20000000000005-66.7-116.69999999999993-26.900000000000002-91.29999999999995-38.7-175.39999999999998 56.2-22 24.799999999999997-40.39999999999998 52.69999999999999-60.5 79.19999999999999l-7-3.0999999999999943c11.700000000000045-49.7 23.400000000000034-99.5 35.400000000000034-151-65.80000000000001 8.399999999999999-130.5 20.8-190.70000000000002 66.4 44.20000000000002 15.699999999999989 68.1 43.39999999999999 76.6 84.29999999999998 4.699999999999989 22.400000000000006 1.3000000000000114 38.20000000000002-24.80000000000001 43.80000000000001-20.399999999999977 4.400000000000006-40.79999999999998 10.400000000000006-59.69999999999999 19-10.599999999999994 4.900000000000006-25.5 16.400000000000006-25.69999999999999 25.30000000000001-0.9000000000000057 36.30000000000001-25.400000000000006 46.19999999999999-52.19999999999999 59.099999999999966-47.900000000000006 22.700000000000045-94.00000000000001 49.10000000000002-140.8 74.10000000000002l3.6 8.699999999999989c22.2 3.1000000000000227 44.5 6.199999999999989 75.10000000000001 10.5-67.3 43.60000000000002-23 77.60000000000002 1.2999999999999972 113.09999999999997 4.200000000000003 6.2000000000000455 9.299999999999997 11.800000000000068 15.200000000000003 19.200000000000045 98.99999999999999-55.89999999999998 203.3-63 311.7-36l3.5-11.399999999999977c-48.299999999999955-23-96.59999999999997-46-147.89999999999998-70.5h159.2c-30-17.700000000000045-54.69999999999999-32.200000000000045-80.69999999999999-47.5 46.19999999999999-12.100000000000023 77.60000000000002-39.60000000000002 85.69999999999999-88.90000000000003 100.40000000000003 61 117.50000000000006 174.90000000000003 41.400000000000034 256.2-14.100000000000023 15.100000000000023-19.400000000000034 28.800000000000068-18.600000000000023 49.200000000000045 3.6999999999999886 94.29999999999995-26 177.60000000000002-87.5 249.39999999999998-18.600000000000023 21.600000000000023-37.19999999999999 43.200000000000045-52.39999999999998 60.700000000000045 76-29.40000000000009 149.29999999999995-75.90000000000009 211.5-139.5 82.89999999999998-84.80000000000007 126-186.9000000000001 131-305.40000000000003 32.89999999999998 147.8 17.699999999999932 284.49999999999994-91.89999999999998 401.99999999999994 43.299999999999955-12.099999999999909 85-25.399999999999977 125.5-41.59999999999991 79.09999999999991-31.700000000000045 154.29999999999995-70.10000000000002 217.5-129.10000000000002 18-16.800000000000068 24-32.89999999999998 16.5-57.60000000000002-41.30000000000007-135.5-116.40000000000009-246.2-234.20000000000005-326.4-9.100000000000023-6.2000000000000455-18.299999999999955-12.400000000000034-27.5-18.5 141.60000000000002 46.099999999999966 253.79999999999995 131.59999999999997 342 250.79999999999995z m-769.8-235.09999999999997l72.69999999999993-47.400000000000006c-15.599999999999966 55.29999999999998-15.599999999999966 55.29999999999998-72.69999999999999 47.400000000000006z m171.29999999999995 261.09999999999997c-39.19999999999999 13.200000000000045-74.5 25-112.39999999999998 37.80000000000007 48.799999999999955 61.39999999999998 54.799999999999955 110.5 17 150.89999999999998-15.600000000000023 16.699999999999932-40 34.5-60.60000000000002 34.799999999999955-33.80000000000001 0.5-67.69999999999999-12.899999999999977-107.4-21.699999999999932-54.39999999999999 49.5-81 146.69999999999993-60.69999999999999 235.5 52.79999999999998-42.200000000000045 106.1-85.80000000000007 160.5-127.90000000000009 60.79999999999998-47 115.4-99 147.99999999999997-170.0999999999999 19.5-42.60000000000002 29.100000000000023-86.70000000000005 15.600000000000023-139.30000000000007z m-59.69999999999999-24.899999999999977c-72.60000000000002-10.700000000000045-141.3-4.5-204 33.200000000000045-8.5 5.099999999999909-16.700000000000017 17.199999999999932-17.700000000000017 26.899999999999977-2.5 23.699999999999932-0.7999999999999972 48-0.7999999999999972 72l7 8c67.00000000000001-54.10000000000002 123.7-125.10000000000002 215.5-140.10000000000002z"/>
</svg>
