<svg xmlns="http://www.w3.org/2000/svg" viewBox="0 0 1000 1000" width="1000" height="1000">
<path d="M345.7 95.3c-121.69999999999999 65.50000000000001-139.89999999999998 173.5-139.89999999999998 173.5-0.700000000000017 2.599999999999966-1.9000000000000057 10.699999999999989 0.8999999999999773 14.099999999999966 2.8000000000000114 3.5 6.800000000000011 3.400000000000034 11.900000000000006 1.7000000000000455 42.900000000000006-14.5 170.9-56.900000000000034 251.70000000000002-78.40000000000003 114.90000000000003-30.5 209.40000000000003-49 269.99999999999994-59.29999999999998 4.300000000000068-0.700000000000017 8.200000000000045-2.0999999999999943 9.800000000000068-6.099999999999994 2.2999999999999545-5.700000000000017-2.3999999999999773-11.300000000000011-2.3999999999999773-11.300000000000011s-37.30000000000007-63.2-168.70000000000005-77.2c-70.39999999999998-7.5-166.2 6.800000000000004-233.3 43z m161.8 819c-126 1.8000000000000682-237.10000000000002-41.39999999999998-317.4-116.59999999999991l-48.60000000000002 20.799999999999955 0.09999999999999432-75.20000000000005c-52.89999999999999-71.39999999999998-83.6-161.5999999999999-83.6-264.09999999999997 0.10000000000000142-262.7 201.2-469.7 481.70000000000005-469.7 45.799999999999955 0 87.19999999999993 7.100000000000001 118.39999999999998 14.2-48.10000000000002-15.399999999999999-95.89999999999998-23.7-149-23.7-301.1 0-503.70000000000005 244.1-503.70000000000005 495.9 2.3092638912203256e-14 274.30000000000007 215.20000000000002 504.1 497.70000000000005 504.1 269.79999999999995 0 415.4-190.20000000000005 461.9-304.6l-83.79999999999995-45.5c-68.80000000000007 154.39999999999998-200.70000000000005 262-373.70000000000005 264.4z m301.70000000000005-567.5999999999999c-38.5 7.699999999999932-114.30000000000007 39.89999999999998-114.5 144.69999999999993 0.1999999999999318 83.30000000000007 61.59999999999991 110.39999999999998 116.69999999999993 104.10000000000002 39.60000000000002-4.5 67-20.399999999999977 82-35.200000000000045 13.700000000000045-13.5 16.899999999999977-32 16.899999999999977-45.799999999999955 0.6000000000000227-20.19999999999999 0-84.10000000000002 0-84.10000000000002l-104.79999999999995 22.700000000000045v24.5c0.20000000000004547 16.19999999999999 8 25 25 21.899999999999977 5.2999999999999545-0.8999999999999773 13.5-3.5 13.5-3.5l0.10000000000002274 20c-0.10000000000002274-0.6000000000000227 1.5 11.200000000000045-24.899999999999977 16.399999999999977-34.60000000000002 5.399999999999977-50.30000000000007-15.799999999999955-50.700000000000045-53.39999999999998 0.7000000000000455-40.30000000000001 23.399999999999977-63.5 51.10000000000002-69.80000000000001 31.100000000000023-7.099999999999966 48.69999999999993 0.30000000000001137 59 1.900000000000034 34.69999999999993 5.199999999999989 44.5-46.80000000000001 13-59-23.300000000000068-9.400000000000034-53.60000000000002-11.100000000000023-82.39999999999998-5.400000000000034z m-193.9000000000001 92.49999999999994v74.09999999999997s-42.09999999999991-52.799999999999955-69.59999999999991-80.29999999999995c-14.700000000000045-14.699999999999989-39.00000000000006-5.899999999999977-39.00000000000006-5.899999999999977l-35.89999999999998 10.899999999999977 0.0999999999999659 246.89999999999998s32.10000000000002-11 34.900000000000034-12c25.80000000000001-8.899999999999977 35.30000000000001-24.299999999999955 35.099999999999966-50.89999999999998-0.2999999999999545-28.899999999999977-0.39999999999997726-85.20000000000005-0.39999999999997726-85.20000000000005l74.70000000000005 86.10000000000002c12.099999999999909 12.5 27.399999999999977 13.600000000000023 41.299999999999955 9.5 14.399999999999977-4.199999999999932 26.399999999999977-17.399999999999977 26.799999999999955-36 0.10000000000002274-62.19999999999993 0-214 0-214s-19.299999999999955 4.100000000000023-35.299999999999955 8.600000000000023c-18.5 5.399999999999977-32.700000000000045 17.100000000000023-32.700000000000045 48.19999999999999z m-245.49999999999994 281.00000000000006s20.80000000000001-7.100000000000023 40.30000000000001-14.5c27.599999999999966-10.400000000000091 38-24.600000000000023 38-53.60000000000002 0-24.899999999999977 0.0999999999999659-208.70000000000005 0.0999999999999659-208.70000000000005s-22.5 6.600000000000023-40.80000000000001 13.200000000000045c-23.799999999999955 8.599999999999966-37.5 22.399999999999977-37.5 58.39999999999998 0 33.10000000000002-0.0999999999999659 205.20000000000005-0.0999999999999659 205.20000000000005z m-84.10000000000002 8.299999999999955c12.900000000000034 13.399999999999977 36.69999999999999 20.299999999999955 57.69999999999999 3.3999999999999773 19-15.299999999999955 16-41.39999999999998 5.5-53.10000000000002l-53.69999999999999-54.09999999999991s47.30000000000001-74.5 55-86.90000000000009c10.300000000000011-16.5 5.100000000000023-36.99999999999994-13.699999999999989-45.49999999999994-20.69999999999999-9.400000000000034-38.39999999999998 1.099999999999966-45.89999999999998 12.699999999999989l-63.60000000000002 108-0.09999999999999432-87.10000000000002-74.9 31-0.19999999999998863 246.30000000000007 52.69999999999999-22.100000000000023s10.400000000000006-2.8999999999999773 16.599999999999994-12.800000000000068c5.700000000000017-9 5.5-24.199999999999932 5.5-24.199999999999932l0.09999999999999432-78.10000000000002 59 62.5z m304.59999999999997 111.79999999999995c200.60000000000002-48.5 242.9000000000001-190.29999999999995 247.70000000000005-210.39999999999998 1-4.100000000000023 1.7999999999999545-10.699999999999932-2-14.600000000000023-3.2000000000000455-3.2999999999999545-7.7000000000000455-3.2999999999999545-14-1.8999999999999773-139.20000000000005 32.80000000000007-371 103.5-504.7 160.80000000000007-5.800000000000011 2.5-8.400000000000034 3.3999999999999773-10.100000000000023 7.5-2.8000000000000114 6.399999999999977 3.6000000000000227 12.799999999999955 3.6000000000000227 12.799999999999955 27.19999999999999 34.200000000000045 148.2 77.60000000000002 279.49999999999994 45.799999999999955z m-360.4-465.79999999999995c2.842170943040401e-14-25.80000000000001-22.69999999999999-42.80000000000001-61.39999999999998-28.69999999999999-13.599999999999994 4.899999999999977-55.3 22-55.3 22l0.20000000000000284 179.3 66.19999999999999-28.100000000000023c32.30000000000001-13.399999999999977 57.099999999999994-31.69999999999999 56.5-66.10000000000002-0.29999999999998295-17.899999999999977-13.799999999999983-30.899999999999977-29.5-33.5 16-13 23.30000000000001-27.69999999999999 23.30000000000001-44.89999999999998z m-70.99999999999997 7.100000000000023c14.599999999999994-7.5 25.400000000000006-4.100000000000023 25.299999999999983 9-0.09999999999999432 11.599999999999966-7.099999999999994 20.5-17 25.299999999999955-2.6999999999999886 1.3000000000000114-5.099999999999994 2.400000000000034-8.399999999999977 3.7000000000000455l0.09999999999999432-38z m10.5 104.59999999999997c-4.300000000000011 2-10.200000000000017 4.600000000000023-10.200000000000017 4.600000000000023v-43.60000000000002c18.200000000000017-9.199999999999989 28.80000000000001-1.6999999999999886 29 11.800000000000011 0.30000000000001137 13.399999999999977-8.099999999999994 22.30000000000001-18.799999999999983 27.19999999999999z m134.70000000000002-12.5c34.299999999999955-10.099999999999966 57.19999999999999-29.30000000000001 57.69999999999999-78.59999999999997l-0.10000000000002274-93.70000000000005c0-15.099999999999966-10.399999999999977-19.099999999999966-23-15.5-10.199999999999989 2.900000000000034-22 7.5-22 7.5l-0.0999999999999659 111.5c-0.10000000000002274 11.100000000000023-1.8000000000000114 25-15.5 28.5-10.5 2.6000000000000227-15.5-4.399999999999977-15.5-15.399999999999977l-0.10000000000002274-91.30000000000001c0-15.199999999999989-10.600000000000023-19.69999999999999-23.100000000000023-15.599999999999966-14.099999999999966 4.699999999999989-22.49999999999997 8.099999999999966-22.49999999999997 8.099999999999966s0.19999999999998863 79 0 110.5c-0.20000000000001705 37 25.299999999999983 55.5 64.20000000000002 44z m439.9-271.4c0-6.400000000000006 0.10000000000002274-19 0.10000000000002274-19-23.700000000000045 4.199999999999989-68.80000000000007 13.199999999999989-97 19.599999999999994l-0.39999999999997726 163.49999999999997s53.5-12.599999999999966 82.89999999999998-19c9.899999999999977-2.099999999999966 16.100000000000023-9.099999999999966 16.100000000000023-21.19999999999999v-19.19999999999999l-53.700000000000045 11.899999999999977 0.10000000000002274-31.599999999999966s26.299999999999955-5.600000000000023 33.60000000000002-7.199999999999989c9.199999999999932-2 14-7 14-17.5 0-9.800000000000011-0.10000000000002274-18.30000000000001-0.10000000000002274-18.30000000000001l-47.60000000000002 10.099999999999994v-25s24.700000000000045-5.200000000000017 38.10000000000002-8c10.399999999999977-2.200000000000017 13.899999999999977-9.300000000000011 13.899999999999977-19.099999999999994z m-251.89999999999998 90c0.39999999999997726-27.69999999999999-24-43.30000000000001-58.30000000000001-35.400000000000034-22.100000000000023 5.100000000000023-59.60000000000002 18.200000000000045-59.60000000000002 18.200000000000045l-0.0999999999999659 168.29999999999995s18.19999999999999-6.2999999999999545 26.69999999999999-9.199999999999989c10.199999999999989-3.8999999999999773 18.30000000000001-12.5 18.399999999999977-24.30000000000001 0-12.599999999999966 0.10000000000002274-43.89999999999998 0.10000000000002274-43.89999999999998l38.69999999999999 40c12.5 12.699999999999989 28.399999999999977 6.899999999999977 34.39999999999998 1.3000000000000114 10-9.5 9.400000000000034-25.100000000000023 0.5-33.80000000000001l-29.099999999999966-27.899999999999977c13.399999999999977-10.800000000000011 28.099999999999966-26.900000000000034 28.30000000000001-53.30000000000001z m-72.70000000000005 48.599999999999966v-46.69999999999999c8.900000000000034-3.3000000000000114 26-7.300000000000011 26.30000000000001 11.300000000000011 0.19999999999998863 21.69999999999999-26.30000000000001 35.39999999999998-26.30000000000001 35.39999999999998z m380.20000000000005-26.299999999999955c0-11.900000000000034-0.10000000000002274-39.30000000000001-0.10000000000002274-39.30000000000001l37.89999999999998 44.5c6.899999999999977 7.599999999999966 18.800000000000068 11.599999999999966 30.899999999999977 4 12.200000000000045-7.699999999999989 12.600000000000023-23.5 4.300000000000068-32.80000000000001-6.2000000000000455-6.899999999999977-29.100000000000023-32.69999999999999-29.100000000000023-32.69999999999999 12.5-8.5 27.200000000000045-22.600000000000023 27.399999999999977-46 0.5-26.600000000000023-22.199999999999932-45.400000000000006-56-41.10000000000002-12.199999999999932 1.6000000000000227-59.299999999999955 9.900000000000006-59.299999999999955 9.900000000000006l-0.10000000000002274 161.4 24.700000000000045-4.899999999999977c12.399999999999977-2.400000000000034 19.299999999999955-11.100000000000023 19.399999999999977-23z m25.799999999999955-95.20000000000002c0.3000000000000682 21-25.899999999999977 30.900000000000006-25.899999999999977 30.900000000000006l-0.10000000000002274-43.60000000000002c8.200000000000045-1.799999999999983 25.700000000000045-5 26 12.700000000000017z m-243.69999999999993 38.79999999999998c10-2.5999999999999943 19.09999999999991-1.3000000000000114 26.09999999999991-0.39999999999997726 17.200000000000045 2.8000000000000114 27.100000000000023-5.5 27.5-19.80000000000001 0.40000000000009095-15.199999999999989-13.199999999999932-24.69999999999999-42.19999999999993-23.69999999999999-62.89999999999998 2.1999999999999886-95.10000000000002 47.39999999999998-95.10000000000002 101.39999999999998 0 55.30000000000001 36.10000000000002 79.69999999999999 80.20000000000005 71.69999999999999 24.899999999999977-5 37.19999999999993-13.099999999999966 45.799999999999955-20.599999999999966 8.600000000000023-7.5 12.100000000000023-18.80000000000001 12.100000000000023-28.400000000000034v-63.599999999999966l-66.89999999999998 15.199999999999989s0 7.100000000000023-0.10000000000002274 18.600000000000023c0.10000000000002274 8.599999999999966 6.199999999999932 14.299999999999955 14.899999999999977 12.5 5.5-1.1000000000000227 9.899999999999977-2.2000000000000455 9.899999999999977-2.2000000000000455l0.10000000000002274 18.600000000000023c0.10000000000002274 7.300000000000011-11 12.199999999999989-22.399999999999977 11.899999999999977-16-0.39999999999997726-24.899999999999977-12.899999999999977-25.200000000000045-36.599999999999966 0.6000000000000227-31.19999999999999 15.300000000000068-49.5 35.30000000000007-54.60000000000002z m368.19999999999993 320.7c-23.600000000000023 0-44.69999999999993 17-44.69999999999993 43.39999999999998 0 26.5 21.09999999999991 43.60000000000002 44.69999999999993 43.60000000000002s44.700000000000045-17.100000000000023 44.700000000000045-43.60000000000002c0-26.399999999999977-21.100000000000023-43.39999999999998-44.700000000000045-43.39999999999998z m0 77.70000000000005c-18.299999999999955 0-32.799999999999955-14.399999999999977-32.799999999999955-34.30000000000007 0-19.799999999999955 14.5-34.09999999999991 32.799999999999955-34.09999999999991 18.100000000000023 0 32.80000000000007 14.299999999999955 32.80000000000007 34.09999999999991 0 19.90000000000009-14.700000000000045 34.30000000000007-32.80000000000007 34.30000000000007z m20.100000000000023-44.200000000000045c0-10.600000000000023-6.899999999999977-14.399999999999977-19.100000000000023-14.399999999999977h-18v49h-0.39999999999997726 9.399999999999977v-21h6.300000000000068l11.899999999999977 21h10.100000000000023l-13-21.399999999999977c7.2999999999999545-0.6000000000000227 12.799999999999955-4.300000000000068 12.799999999999955-13.200000000000045z m-28 5.600000000000023v-13h8.299999999999955c4.400000000000091 0 10 0.8999999999999773 10 6.2000000000000455 0 5.899999999999977-4.099999999999909 6.7999999999999545-9.5 6.7999999999999545h-8.799999999999955z"/>
</svg>
