<svg xmlns="http://www.w3.org/2000/svg" viewBox="0 0 1000 1000" width="1000" height="1000">
<path d="M733.4 171.3l-21.5 30.799999999999983c151.60000000000002 71.9 214.30000000000007 166.1 214.30000000000007 297.79999999999995 1 35.30000000000007-8.400000000000091 73.60000000000002-31.5 108.89999999999998h-445.30000000000007c-26.69999999999999 0-30.5-30.199999999999932-20.899999999999977-47.19999999999993 39.5-70 80-132 127.5-195.60000000000002 45-60.10000000000002 89.29999999999995-116.30000000000001 135.89999999999998-175.1 12.5-16.400000000000006 4.2000000000000455-32.099999999999994-20.899999999999977-37.30000000000001-52-10.900000000000006-106.29999999999995-18.599999999999994-172.10000000000002-18.599999999999994-365.29999999999995 0-498.9 209.8-498.9 365.2 0 168.59999999999997 134.6 364.3 499.8 364.3 202.7 0 335.40000000000003-65.20000000000005 412.09999999999997-149.10000000000002h-77.39999999999998c-67.10000000000002 62-182.5 106-334.7 106-309.3 0.10000000000002274-423.3-173.69999999999993-423.3-323.4 2.200000000000003-133.60000000000002 124.6-318 431.1-324.1 11.600000000000023-0.29999999999998295 20.600000000000023 10.300000000000011 12.5 20.200000000000017-52.400000000000034 64.6-201.70000000000005 273-218.8 300-32.80000000000001 51.69999999999993-35.69999999999999 76.79999999999995-36.60000000000002 93.5-1 16.399999999999977-1 45.89999999999998 25.69999999999999 70 44.60000000000002 39.799999999999955 107.30000000000001 33.39999999999998 162.90000000000003 33.39999999999998h457.7c19.600000000000023 0 25.399999999999977-5.7999999999999545 36-19.899999999999977 36.60000000000002-55.89999999999998 53-116.60000000000002 53-170.90000000000003 0-116.19999999999999-75.5-262.7-266.6-328.9z"/>
</svg>
