<svg xmlns="http://www.w3.org/2000/svg" viewBox="0 0 1000 1000" width="1000" height="1000">
<path d="M942.3 706.7c-5-11.600000000000023-9.699999999999932-24.5-14.699999999999932-35.200000000000045-7.899999999999977-17.600000000000023-15.700000000000045-34.200000000000045-22.600000000000023-49.89999999999998l-1-1c-67.79999999999995-147.3-140.10000000000002-296.20000000000005-216.70000000000005-443.5l-2.7999999999999545-6.000000000000028c-7.899999999999977-14.699999999999989-15.700000000000045-30.400000000000006-23.600000000000023-46.099999999999994-9.699999999999932-17.599999999999994-19.5-36.5-35.19999999999993-54.099999999999994-31.40000000000009-39.2-76.60000000000002-60.900000000000006-124.70000000000005-60.900000000000006-49 0-93.30000000000001 21.7-125.60000000000002 58.7-14.799999999999955 17.599999999999994-25.5 36.5-35.19999999999999 54.099999999999994-7.800000000000011 15.700000000000003-15.699999999999989 31.39999999999999-23.599999999999966 46.10000000000001l-2.8000000000000114 6c-75.70000000000002 147.29999999999998-149.20000000000002 296.20000000000005-216.70000000000002 443.5l-1 1.8999999999999773c-6.8999999999999915 15.700000000000045-14.699999999999989 32.40000000000009-22.599999999999994 49.90000000000009-5 10.699999999999932-9.700000000000003 22.699999999999932-14.700000000000003 35.19999999999993-12.899999999999999 36.5-16.699999999999996 70.70000000000005-11.699999999999996 105.89999999999998 10.699999999999996 73.5 59.99999999999999 135.4000000000001 127.6 163 25.400000000000006 10.700000000000045 52.10000000000002 15.700000000000045 79.4 15.700000000000045 7.900000000000006 0 17.599999999999994-0.8999999999999773 25.50000000000003-1.8999999999999773 32.299999999999955-3.800000000000068 65.59999999999997-14.700000000000045 98-33.30000000000007 40.19999999999999-22.59999999999991 78.5-54.89999999999998 121.5-102.09999999999991 43.10000000000002 47.19999999999993 82.29999999999995 79.5 121.60000000000002 102.09999999999991 32.39999999999998 18.600000000000023 65.59999999999991 29.5 98 33.30000000000007 7.899999999999977 1 17.59999999999991 1.8999999999999773 25.399999999999977 1.8999999999999773 27.399999999999977 0 55-5 79.5-15.700000000000045 68.79999999999995-27.299999999999955 116.89999999999998-90.19999999999993 127.5-163 8.199999999999932-33.89999999999998 4.100000000000023-68.5-8.800000000000068-104.59999999999991z m-442.19999999999993 50.89999999999998c-53.10000000000002-66.60000000000002-87.30000000000001-129.39999999999998-99.30000000000001-182.5-5-22.600000000000023-5.900000000000034-42.10000000000002-2.8000000000000114-60 1.8999999999999773-15.700000000000045 7.899999999999977-29.600000000000023 15.699999999999989-41.200000000000045 18.5-26.399999999999977 49.900000000000034-43 86.40000000000003-43s68.79999999999995 15.700000000000045 86.39999999999998 43c7.7999999999999545 11.700000000000045 13.799999999999955 25.5 15.700000000000045 41.200000000000045 2.7999999999999545 17.600000000000023 1.8999999999999773 38.299999999999955-2.900000000000091 60-11.899999999999977 52.10000000000002-46.09999999999991 114.89999999999998-99.19999999999993 182.5z m391.4 46.10000000000002c-7 50.89999999999998-41.200000000000045 95.19999999999993-89.20000000000005 115-23.59999999999991 9.699999999999932-49 12.899999999999977-74.5 9.699999999999932-24.5-2.7999999999999545-49-10.600000000000023-74.39999999999998-25.399999999999977-35.19999999999993-19.5-70.69999999999993-49.89999999999998-111.89999999999998-95.20000000000005 64.79999999999995-79.39999999999998 104-152 118.79999999999995-216.69999999999993 6.900000000000091-30.5 7.800000000000068-57.80000000000007 5-83.60000000000002-3.7999999999999545-24.5-12.899999999999977-47.10000000000002-26.399999999999977-66.60000000000002-30.5-44.19999999999999-81.29999999999995-69.69999999999999-138.2-69.69999999999999-56.80000000000001 0-108 26.400000000000034-138.2 69.69999999999999-13.800000000000011 19.5-22.600000000000023 42.10000000000002-26.399999999999977 66.60000000000002-3.7000000000000455 25.5-2.8000000000000114 54.10000000000002 5 83.60000000000002 14.799999999999955 64.69999999999993 55 138.19999999999993 118.79999999999995 218-40.19999999999999 45.19999999999993-76.69999999999999 75.69999999999993-111.79999999999995 95.19999999999993-25.5 14.700000000000045-50 22.600000000000023-74.5 25.40000000000009-26.400000000000034 2.7999999999999545-52.10000000000002-0.900000000000091-74.40000000000003-9.700000000000045-48.099999999999994-19.5-82.29999999999998-63.799999999999955-89.19999999999999-115-2.9000000000000057-24.5-1-49 8.799999999999997-76.60000000000002 2.799999999999997-9.799999999999955 7.799999999999997-19.5 12.799999999999997-31.5 7-15.699999999999932 14.800000000000011-32.299999999999955 22.700000000000017-49l0.8999999999999773-1.7999999999999545c67.80000000000001-146.10000000000002 140.40000000000003-295.3 215.8-440.70000000000005l2.8000000000000114-5.999999999999972 23.599999999999966-45.20000000000002c7.800000000000011-15.699999999999989 16.600000000000023-30.499999999999986 27.30000000000001-43.099999999999994 20.69999999999999-23.5 48.10000000000002-36.39999999999999 78.5-36.39999999999999 30.500000000000057 0 57.80000000000001 12.899999999999991 78.59999999999997 36.39999999999999 10.600000000000023 12.900000000000006 19.40000000000009 27.400000000000006 27.300000000000068 43.099999999999994l23.5 45.20000000000002 2.8999999999999773 6c74.39999999999998 145.99999999999997 147.29999999999995 295.20000000000005 214.79999999999995 441.6v0.8999999999999773l22.600000000000023 49c5 11.700000000000045 9.800000000000068 21.700000000000045 12.899999999999977 31.5 6.600000000000023 25.399999999999977 9.400000000000091 49.89999999999998 5.7000000000000455 75.30000000000007z"/>
</svg>
