<svg xmlns="http://www.w3.org/2000/svg" viewBox="0 0 1000 1000" width="1000" height="1000">
<path d="M568.7 471c-59.700000000000045 0-100.00000000000006 19.100000000000023-110.70000000000005 52.5-3.8000000000000114 11.899999999999977-2.5 22 3.8999999999999773 29.799999999999955 10.700000000000045 12.900000000000091 35 19.600000000000023 70.60000000000002 19.600000000000023 59.700000000000045 0 100-19.100000000000023 110.70000000000005-52.39999999999998 3.7999999999999545-12 2.599999999999909-22-3.800000000000068-29.69999999999999-10.699999999999932-13-35.19999999999993-19.80000000000001-70.69999999999993-19.80000000000001z m6 52.5c-7.300000000000068 22.700000000000045-16.5 31.600000000000023-33 31.600000000000023-7.2000000000000455 0-12.300000000000068-1.8999999999999773-15.400000000000091-5.800000000000068-4.599999999999909-5.5-4.599999999999909-14.199999999999932 0.20000000000004547-28.799999999999955 7.399999999999977-22.69999999999999 16.600000000000023-31.600000000000023 33-31.600000000000023 7.2999999999999545 0 12.299999999999955 1.900000000000034 15.5 5.7000000000000455 4.5 5.5 4.399999999999977 14.099999999999966-0.2999999999999545 28.899999999999977z m419.29999999999995-32.80000000000001c-10.600000000000023-12.899999999999977-35.10000000000002-19.69999999999999-70.60000000000002-19.69999999999999-59.69999999999993 0-100.10000000000002 19.100000000000023-110.79999999999995 52.5-3.8999999999999773 12-2.5 22 3.8999999999999773 29.799999999999955 10.600000000000023 12.900000000000091 35 19.600000000000023 70.5 19.600000000000023 59.700000000000045 0 100.10000000000002-19.100000000000023 110.79999999999995-52.39999999999998 3.900000000000091-12.100000000000023 2.6000000000000227-22.100000000000023-3.7999999999999545-29.80000000000001z m-64.60000000000002 32.80000000000001c-7.2999999999999545 22.700000000000045-16.5 31.600000000000023-33 31.600000000000023-7.199999999999932 0-12.299999999999955-1.8999999999999773-15.5-5.800000000000068-4.5-5.5-4.5-14.199999999999932 0.20000000000004547-28.799999999999955 7.2999999999999545-22.69999999999999 16.600000000000023-31.600000000000023 33-31.600000000000023 7.199999999999932 0 12.299999999999955 1.900000000000034 15.5 5.7000000000000455 4.600000000000023 5.5 4.5 14.099999999999966-0.20000000000004547 28.899999999999977z m-883.6999999999999-96c-0.7000000000000455 2.3999999999999773-44.30000000000005 138.10000000000002-45.700000000000045 142.20000000000005h65c0.7000000000000028-2.2000000000000455 44.400000000000006-138.10000000000002 45.7-142.20000000000005h-65z m725.4 46.69999999999999c-1.1000000000000227 1.400000000000034-52 67.00000000000006-52 67.00000000000006s-8.300000000000068-64.20000000000005-8.600000000000023-67.00000000000006h-59.700000000000045c0.5 3.6000000000000227 12.200000000000045 92.69999999999999 12.5 95.50000000000006h97.20000000000005c1.1000000000000227-1.400000000000091 70.10000000000002-90.50000000000006 73.89999999999998-95.50000000000006h-63.299999999999955z m-595.6 80.30000000000001c-10.300000000000011-0.5-16.30000000000001-1.3999999999999773-21.900000000000006-5.2999999999999545-4.199999999999989-2.900000000000091-3-8.100000000000023-3-8.100000000000023s114.29999999999998-24.5 116.4-25c0.8000000000000114-1.8000000000000682 1.8999999999999773-5.600000000000023 1.8999999999999773-10.200000000000045 0-7.099999999999966-2-13-5.899999999999977-17.799999999999955-9.400000000000006-11.400000000000034-30.400000000000006-17.100000000000023-62.400000000000006-17.100000000000023-57.69999999999999 0-96.8 18.899999999999977-107.39999999999999 51.799999999999955-4.400000000000006 13.700000000000045-3.299999999999997 24.5 3.200000000000003 32.5 13 15.600000000000023 44.400000000000006 17.700000000000045 62 17.600000000000023 46.29999999999998-0.2999999999999545 69.79999999999998-7.600000000000023 74.1-9 0.4000000000000057-1.1999999999999318 10.199999999999989-21.699999999999932 11.900000000000006-26.5-9.700000000000017 3.8999999999999773-43.80000000000001 18.200000000000045-68.9 17.100000000000023z m-15.099999999999994-48.69999999999999c3.9000000000000057-12.199999999999989 15.799999999999983-19.5 31.69999999999999-19.5 11 0 16.400000000000006 3.6999999999999886 19 6.899999999999977 2.0999999999999943 2.5 4.099999999999994 6.900000000000034 2.8000000000000114 12.900000000000034l-61.400000000000006 27.699999999999932 7.900000000000006-27.999999999999943z m292.5-19.80000000000001c-8.399999999999977-9.800000000000011-34.39999999999998-14.800000000000011-76.59999999999997-14.800000000000011-31.19999999999999 0-61.30000000000001 3.6000000000000227-84.10000000000002 7.5-0.30000000000001137 0.8000000000000114-30.5 89.69999999999999-31 91.30000000000001h65.5c0.4000000000000341-1.2000000000000455 27.5-80.69999999999999 27.5-80.69999999999999 23.100000000000023-1.6999999999999886 29.80000000000001 0.8000000000000114 32.80000000000001 4.300000000000011 1.6999999999999886 2.099999999999966 3 4.599999999999966 2.1000000000000227 7.599999999999966l-23.200000000000045 68.80000000000001h65.5l24.80000000000001-73.60000000000002c0.5-4.2999999999999545-0.8000000000000114-7.5-3.3000000000000114-10.399999999999977z"/>
</svg>
