<svg xmlns="http://www.w3.org/2000/svg" viewBox="0 0 1000 1000" width="1000" height="1000">
<path d="M800.3 796.6c-104.09999999999991-0.39999999999997726-159.69999999999993-51.700000000000045-198.19999999999993-142.10000000000002l-11-24.700000000000045-95.10000000000002-218.29999999999995c-31.5-77.30000000000001-109.80000000000001-129.5-198.10000000000002-129.5-119.49999999999997 0-216.39999999999998 97.60000000000002-216.39999999999998 218s96.9 218 216.39999999999998 218c83.30000000000001 0 155.8-47.39999999999998 192-117l38.5 89.29999999999995c-54.599999999999966 67-137.59999999999997 109.70000000000005-230.5 109.70000000000005-164.49999999999997 0-297.9-134.20000000000005-297.9-300 0-165.60000000000002 133.4-300 297.9-300 124.20000000000005 0 224.5 66.80000000000001 275.4 185.10000000000002 3.900000000000091 9.199999999999989 53.90000000000009 126.89999999999998 97.5 227.10000000000002 27 62 50 103.09999999999991 124.70000000000005 105.69999999999993 73.39999999999998 2.5 123.79999999999995-42.39999999999998 123.79999999999995-99.29999999999995 0-55.60000000000002-38.39999999999998-68.89999999999998-103.29999999999995-90.60000000000002-116.5-38.69999999999999-176.79999999999995-77.5-176.79999999999995-170.60000000000002 0-90.79999999999995 61.299999999999955-151.29999999999998 161-151.29999999999998 64.89999999999998 0 111.79999999999995 29.099999999999994 144.29999999999995 87.1l-63.700000000000045 32.80000000000001c-24-33.80000000000001-50.5-47.19999999999999-84.09999999999991-47.19999999999999-46.80000000000007 0-80.20000000000005 32.80000000000001-80.20000000000005 76.30000000000001 0 61.89999999999998 54.89999999999998 71.19999999999999 131.79999999999995 96.59999999999997 103.40000000000009 33.900000000000034 151.5 72.69999999999999 151.5 169.40000000000003 0.10000000000002274 101.69999999999993-86.39999999999998 175.60000000000002-199.5 175.5z"/>
</svg>
