<svg xmlns="http://www.w3.org/2000/svg" viewBox="0 0 1000 1000" width="1000" height="1000">
<path d="M741.1 293.6c0-9.300000000000011 0.10000000000002274-18.400000000000034 0-27.400000000000034 0-3.6999999999999886 0.7999999999999545-5.399999999999977 5.2999999999999545-4.599999999999966 58.200000000000045 9.599999999999966 116 20.69999999999999 171.39999999999998 41.799999999999955 14.700000000000045 5.600000000000023 29.40000000000009 11.600000000000023 40.700000000000045 23.600000000000023 8.100000000000023 8.600000000000023 13.200000000000045 18.80000000000001 17.799999999999955 29.399999999999977 9.600000000000023 22.100000000000023 17.200000000000045 44.900000000000034 23.200000000000045 68.30000000000001 0.7999999999999545 3.1999999999999886 1.6000000000000227 5.900000000000034-2.1000000000000227 8.5-22.199999999999932 15.699999999999989-45.60000000000002 28.400000000000034-73.5 30.19999999999999-19.199999999999932 1.3000000000000114-37.39999999999998-3-55.299999999999955-9.099999999999966-33.89999999999998-11.600000000000023-64.89999999999998-29.19999999999999-94.89999999999998-48.5-1.7000000000000455-1.1000000000000227-3.400000000000091-2-6.5-2.400000000000034 5.199999999999932 12.200000000000045 10.399999999999977 24.5 15.799999999999955 36.700000000000045 0.39999999999997726 1 1.7999999999999545 1.6999999999999886 2.8999999999999773 2.1999999999999886 32.39999999999998 16 65.20000000000005 30.899999999999977 100.39999999999998 39.89999999999998 29.800000000000068 7.600000000000023 57.60000000000002 0.10000000000002274 84.90000000000009-11.199999999999989 6.199999999999932-2.6000000000000227 12.199999999999932-5.899999999999977 18.199999999999932-8.899999999999977 2.1000000000000227-1 4.399999999999977-2.400000000000034 6.300000000000068-1 2.3999999999999773 1.6999999999999886 0.2999999999999545 4.099999999999966 0 6.199999999999989-2.5 17.899999999999977-12.600000000000023 29.19999999999999-28.90000000000009 37.19999999999999-59 28.700000000000045-121.09999999999991 35.89999999999998-185.5 29.5-17.699999999999932-1.7999999999999545-35.39999999999998-4.7000000000000455-53.299999999999955-4.100000000000023-28.700000000000045 0.8999999999999773-42.10000000000002 14.300000000000068-42.89999999999998 43.10000000000002-0.7000000000000455 24.299999999999955 7.7999999999999545 46.200000000000045 18.399999999999977 67.5 6.100000000000023 12.299999999999955 14 23.700000000000045 21.5 35.200000000000045-3 1.8999999999999773-4.7999999999999545-0.10000000000002274-6.7000000000000455-1l-67.59999999999991-31.200000000000045c-4-1.7999999999999545-7.300000000000068-4.2999999999999545-10.200000000000045-7.5-14.600000000000023-16.200000000000045-29.100000000000023-32.60000000000002-43.89999999999998-48.700000000000045-20.800000000000068-22.399999999999977-45.200000000000045-39.19999999999993-76-44.09999999999991-24.5-3.900000000000091-48.60000000000002-2.400000000000091-70.30000000000001 11.699999999999932-20 13-25.69999999999999 33.200000000000045-27.30000000000001 55.10000000000002-1.1999999999999886 16.299999999999955-0.6999999999999886 32.60000000000002 2.3999999999999773 48.799999999999955 0.20000000000004547 0.900000000000091 0 1.900000000000091 0 4-8.399999999999977-4.099999999999909-16-7.7999999999999545-23.599999999999966-11.5-11.5-5.599999999999909-22.900000000000034-11.399999999999977-34.5-16.699999999999932-4-1.8999999999999773-5.800000000000011-4.399999999999977-6.900000000000034-8.800000000000068-17.5-71.39999999999998-63-117.59999999999997-131.29999999999998-140.69999999999993-37-12.5-75-10.300000000000011-110 9.599999999999966-39.69999999999999 22.599999999999966-60.49999999999999 68.09999999999997-51.69999999999999 111.30000000000001 9.399999999999991 46.299999999999955 45 79.79999999999995 91.5 85.39999999999998 16.19999999999999 1.8999999999999773 32.599999999999994 1.6000000000000227 48.400000000000006-4 30-10.600000000000023 46.79999999999998-42.69999999999993 38.79999999999998-74-8.299999999999983-32.299999999999955-38.099999999999994-52.89999999999998-69.4-48.10000000000002-15.5 2.400000000000091-26 12.400000000000091-26.599999999999994 25.300000000000068-0.6999999999999886 14.299999999999955 11.200000000000017 25 25.30000000000001 22.5 3.4000000000000057-0.6000000000000227 6.799999999999983-1.8000000000000682 10.199999999999989-2.6000000000000227 11.599999999999994-2.7000000000000455 22.200000000000017 2.6000000000000227 26.400000000000006 13.200000000000045 4.199999999999989 10.599999999999909 0.4000000000000057 22.09999999999991-10.199999999999989 27.59999999999991-25.700000000000017 13.300000000000068-54.70000000000002 11.400000000000091-77.9-10.599999999999909-36.60000000000001-34.700000000000045-23.80000000000001-94.80000000000007 24.599999999999994-116.20000000000005 46.69999999999999-20.600000000000023 106.6-0.20000000000004547 134.10000000000002 45.89999999999998 43 71.89999999999998 1.7999999999999545 159.89999999999998-82.00000000000003 175.30000000000007-84.69999999999999 15.5-167.39999999999998-33.60000000000002-192.79999999999998-115.30000000000007-14.400000000000011-46.5-8.100000000000012-91.79999999999995 11.99999999999999-135.5 26.400000000000002-57.099999999999966 68-101.5 118.8-137.39999999999998 65.20000000000002-46.10000000000002 136.20000000000002-79.60000000000002 214.79999999999998-95.89999999999998 52.60000000000002-10.900000000000034 105.70000000000005-10.900000000000034 159-9.300000000000011 77.39999999999998 2.1999999999999886 152.20000000000005 18.099999999999966 225.80000000000007 41.19999999999999l2.8999999999999773 0.10000000000002274z m154.10000000000002 26c-32.30000000000007 0-59 26.5-59.200000000000045 58.799999999999955-0.20000000000004547 32.60000000000002 26.799999999999955 59.80000000000001 59.200000000000045 59.80000000000001 32.59999999999991 0 59.39999999999998-27 59.19999999999993-59.69999999999999-0.2999999999999545-32.30000000000001-27-58.89999999999998-59.19999999999993-58.89999999999998z m-0.20000000000004547 17.69999999999999c23.100000000000023 0 41.700000000000045 18.5 41.60000000000002 41.39999999999998-0.10000000000002274 22.69999999999999-18.5 40.900000000000034-41.30000000000007 40.900000000000034-22.59999999999991 0-41.09999999999991-18.5-41.19999999999993-41.10000000000002-0.20000000000004547-22.600000000000023 18.199999999999932-41.19999999999999 40.89999999999998-41.19999999999999z m8.899999999999977 45.099999999999966c9.899999999999977-0.19999999999998863 18.100000000000023-6 17.800000000000068-12.699999999999989-0.3000000000000682-6.399999999999977-8.200000000000045-11.699999999999989-17.800000000000068-11.800000000000011h-0.7999999999999545c-10.200000000000045 0.20000000000004547-18 5.7000000000000455-17.700000000000045 12.600000000000023 0.3000000000000682 6.600000000000023 8.800000000000068 12.100000000000023 18.5 11.899999999999977z"/>
</svg>
