<svg xmlns="http://www.w3.org/2000/svg" viewBox="0 0 1000 1000" width="1000" height="1000">
<path d="M909.4 625l68.5-188.8s-51.19999999999993 0-102.29999999999995 10.300000000000011l-64.80000000000007 178.5h98.60000000000002z m-11.699999999999932-239.7l-13.100000000000023 36.19999999999999c51.5-10.300000000000011 102.29999999999995-10.300000000000011 102.29999999999995-10.300000000000011l13.100000000000023-36.19999999999999s-51.200000000000045 0-102.29999999999995 10.300000000000011z m-356.9000000000001 194.90000000000003c30.800000000000068 5.599999999999909 62.5 8.5 94.90000000000009 8.5 33.299999999999955 0 57.39999999999998-7.400000000000091 60-30 1.2999999999999545-10.800000000000068-8.900000000000091-18.5-27.5-28.700000000000045-21.300000000000068-11.700000000000045-39.200000000000045-17.600000000000023-57.700000000000045-30-18.5-12.399999999999977-26.5-31.899999999999977-20.299999999999955-52.5 7.2999999999999545-24.100000000000023 24.199999999999932-38.10000000000002 50-51.30000000000001 30.199999999999932-15.399999999999977 54.19999999999993-21.19999999999999 112.5-21.19999999999999 36.69999999999993 0 72.59999999999991 3.6000000000000227 107.39999999999998 10.300000000000011l-12.5 34.5c-30.800000000000068-5.600000000000023-62.5-8.5-94.89999999999998-8.5-33.30000000000007 0-57.40000000000009 7.399999999999977-60 30-1.2000000000000455 10.800000000000011 8.899999999999977 18.5 27.5 28.80000000000001 21.299999999999955 11.699999999999989 39.19999999999993 17.599999999999966 57.69999999999993 30 18.5 12.399999999999977 26.5 31.899999999999977 20.300000000000068 52.5-7.300000000000068 24.100000000000023-24.200000000000045 38-50 51.19999999999993-30.200000000000045 15.400000000000091-54.200000000000045 21.200000000000045-112.5 21.200000000000045-36.700000000000045 0-72.60000000000002-3.6000000000000227-107.40000000000009-10.299999999999955l12.5-34.5z m-148.59999999999997 44.799999999999955l57.10000000000002-157.5c19.099999999999966-52.5-50.80000000000001-33.30000000000001-66.40000000000003-21.19999999999999-12.299999999999955 9.5-34.599999999999966 31-42.799999999999955 53.69999999999999l-45.30000000000001 125h-98.60000000000002l57.10000000000002-157.5c19-52.5-50.80000000000001-33.30000000000001-66.4-21.19999999999999-12.300000000000011 9.5-34.599999999999994 31.099999999999966-42.900000000000006 53.69999999999999l-45.400000000000006 125h-98.6l90.6-250c31.400000000000006 0 48.400000000000006 7.199999999999989 62.70000000000002 21.30000000000001 5.199999999999989 5.099999999999966 8.5 11.800000000000011 10.199999999999989 18.899999999999977 18.5-11.199999999999989 34.80000000000001-19.599999999999966 45.80000000000001-23.899999999999977 20.5-8 46-16.19999999999999 77.30000000000001-16.19999999999999s48.39999999999998 7.199999999999989 62.599999999999966 21.299999999999955c5.199999999999989 5.100000000000023 8.5 11.800000000000011 10.300000000000011 18.900000000000034 18.5-11.199999999999989 34.80000000000001-19.600000000000023 45.80000000000001-23.900000000000034 20.5-8 46-16.19999999999999 77.30000000000001-16.19999999999999 31.399999999999977 0 48.39999999999998 7.199999999999989 62.69999999999993 21.30000000000001 14.200000000000045 14 13.900000000000091 39.60000000000002 8.800000000000068 53.69999999999999l-63.5 175.00000000000006-98.40000000000003-0.20000000000004547z"/>
</svg>
