<svg xmlns="http://www.w3.org/2000/svg" viewBox="0 0 1000 1000" width="1000" height="1000">
<path d="M500 0h-2.1000000000000227c-35.299999999999955 101-71.89999999999998 201.5-107.5 302.4 25.900000000000034 0.5 51.80000000000001-0.39999999999997726 77.60000000000002 0.4000000000000341 18.899999999999977 0.8000000000000114 38.69999999999999 8.699999999999989 49.200000000000045 25.19999999999999 11.899999999999977 18.69999999999999 11.299999999999955 42.60000000000002 3.699999999999932 62.89999999999998-35.19999999999999 99-70.69999999999999 197.89999999999998-105.79999999999995 296.9-31 0.40000000000009095-62.10000000000002-0.09999999999990905-93.10000000000002 0.20000000000004547-4.300000000000011-0.10000000000002274-8.800000000000011 0.39999999999997726-12.899999999999977-1.2000000000000455 39.39999999999998-108.79999999999995 78-217.99999999999994 116.79999999999995-326.9l-55.599999999999966-0.19999999999998863c-2.900000000000034 5.900000000000034-4.800000000000011 12.199999999999989-7 18.5-35.80000000000001 100.5-71.80000000000001 201.09999999999997-107.5 301.59999999999997-1.700000000000017 2.6000000000000227-1.200000000000017 8.200000000000045-5.300000000000011 8.200000000000045-29.599999999999994 0.10000000000002274-59.19999999999999-0.10000000000002274-88.69999999999999 0.10000000000002274-5.300000000000011-0.10000000000002274-10.800000000000011 0.6000000000000227-16-1l240.89999999999998-674c-221.5 50.99999999999997-386.7 249.59999999999997-386.7 486.9 0 232.89999999999998 159.2 428.6 374.8 484.20000000000005 80.59999999999997-225.60000000000002 160.8-451.30000000000007 241.2-676.9000000000001 0.7999999999999545-1.599999999999966 2.3999999999999773-4.899999999999977 3.2000000000000455-6.599999999999966 49.69999999999993 0.5 99.29999999999995 0.10000000000002274 149.0999999999999 0.19999999999998863 16.300000000000068 0.30000000000001137 33-1.5 48.90000000000009 3.400000000000034 18.199999999999932 4.899999999999977 35.19999999999993 18 40.799999999999955 36.599999999999966 4.100000000000023 14.600000000000023 1.2000000000000455 30.200000000000045-4 44.200000000000045-31.700000000000045 92.69999999999999-65.20000000000005 184.69999999999993-98 276.9-8.100000000000023 24-32.60000000000002 39.10000000000002-57.299999999999955 39.89999999999998l-116.20000000000005 0.5c-35.5 98.89999999999998-70.69999999999999 198-105.89999999999998 297 7.699999999999989 0.39999999999997726 15.5 0.6000000000000227 23.299999999999955 0.6000000000000227 276.1 0 500-223.89999999999998 500-500 0.10000000000002274-276.2-223.79999999999995-500-499.9-500z m158.39999999999998 645c32.89999999999998-95.60000000000002 67.89999999999998-190.5 101.30000000000007-286-14.300000000000068-0.30000000000001137-28.700000000000045 0.10000000000002274-43.10000000000002-0.19999999999998863-4.100000000000023 0.5999999999999659-9.600000000000023-1.5-12.700000000000045 2-34 94.80000000000001-67.60000000000002 189.8-101.5 284.59999999999997 18.700000000000045 0.10000000000002274 37.5 0.8999999999999773 56-0.39999999999997726z"/>
</svg>
