<svg xmlns="http://www.w3.org/2000/svg" viewBox="0 0 1000 1000" width="1000" height="1000">
<path d="M343.8 496.8v-127.30000000000001c-0.4000000000000341-1.5 1.1999999999999886-1.5 4.199999999999989-1.5 0.30000000000001137 0 0.5 0 0.8000000000000114 0 3.5 0 8 0 13.5-0.30000000000001137 5.5-0.19999999999998863 11-0.19999999999998863 16.69999999999999-0.19999999999998863 23-0.10000000000002274 40.60000000000002 5.300000000000011 52.80000000000001 16.399999999999977 12.099999999999966 11 18.19999999999999 26.700000000000045 18.19999999999999 47 0 23.200000000000045-6.899999999999977 39.900000000000034-20.69999999999999 50-13.900000000000034 10.200000000000045-31.900000000000034 15.300000000000011-54.30000000000001 15.300000000000011-17 0-31.19999999999999 0.6000000000000227-31.19999999999999 0.6000000000000227z m-87.5-371.8h487.49999999999994c72.40000000000009 0 131.20000000000005 60.80000000000001 131.20000000000005 135.8v478.40000000000003c0 75-58.799999999999955 135.79999999999995-131.20000000000005 135.79999999999995h-487.49999999999994c-72.5 0-131.3-60.799999999999955-131.3-135.79999999999995v-478.40000000000003c0-75 58.80000000000001-135.8 131.3-135.8z m25 200.39999999999998v352c0 2.3999999999999773 1.3000000000000114 3.6000000000000227 4 3.6000000000000227h54.5c0.5 0.10000000000002274 1 0.10000000000002274 1.599999999999966-0.10000000000002274 0.5-0.1999999999999318 1-0.5 1.400000000000034-0.8999999999999773 0.30000000000001137-0.39999999999997726 0.5999999999999659-0.8999999999999773 0.8000000000000114-1.3999999999999773 0.19999999999998863-0.6000000000000227 0.19999999999998863-1.1000000000000227 0.19999999999998863-1.7000000000000455v-131.60000000000002l28.099999999999966-0.599999999999909c40.400000000000034 0 73.90000000000003-9.5 100.60000000000002-28.40000000000009 26.69999999999999-18.899999999999977 40-47.89999999999998 40-86.89999999999998 0.2999999999999545-14.799999999999955-2.3999999999999773-29.5-8-43.099999999999966-5.5-13.699999999999989-13.800000000000011-25.900000000000034-24.19999999999999-36-21.5-21.400000000000034-55.30000000000001-31.30000000000001-101.30000000000001-31.30000000000001-26 0-47.89999999999998 0.8999999999999773-67.10000000000002 1.8000000000000114-9.699999999999989 0.39999999999997726-18.69999999999999 0.8000000000000114-27.099999999999966 1-0.5-0.10000000000002274-1 0-1.5 0.19999999999998863-0.4000000000000341 0.10000000000002274-0.8000000000000114 0.39999999999997726-1.1999999999999886 0.6999999999999886-0.30000000000001137 0.4000000000000341-0.6000000000000227 0.8000000000000114-0.7000000000000455 1.3000000000000114-0.19999999999998863 0.39999999999997726-0.19999999999998863 0.8999999999999773-0.0999999999999659 1.3999999999999773z m412.49999999999994 329.80000000000007c0 0 25-18.600000000000023 25-58.200000000000045 0-18.399999999999977-10.899999999999977-33.700000000000045-22.5-44.799999999999955l-0.2999999999999545-0.20000000000004547c-11.299999999999955-11.700000000000045-30.100000000000023-22.799999999999955-56.200000000000045-33.39999999999998-15-6.300000000000068-24.899999999999977-11.800000000000011-29.5-16.5-2.2999999999999545-2.1000000000000227-4-4.7000000000000455-5.199999999999932-7.5-1.2000000000000455-2.8000000000000114-1.8999999999999773-5.900000000000034-1.8000000000000682-9 0-3.2000000000000455 0.8000000000000682-6.300000000000011 2.2000000000000455-9.100000000000023 1.3999999999999773-2.8000000000000114 3.5-5.199999999999989 6-7.100000000000023 5.5-4.5 14.100000000000023-6.7999999999999545 25.799999999999955-6.7999999999999545 20.800000000000068 0.0999999999999659 41.10000000000002 6.5 58.5 18.299999999999955 3 2 4.5 1 4.5-3.1999999999999886v-43.5c0-3.5-0.8999999999999773-5.699999999999989-2.5-6.800000000000011-14.599999999999909-7.699999999999989-35.5-11.5-62.5-11.5-29.09999999999991 0-51.39999999999998 7.300000000000011-67 22-7.699999999999932 6.900000000000034-13.899999999999977 15.5-18.09999999999991 25.100000000000023-4.300000000000068 9.600000000000023-6.400000000000091 20-6.400000000000091 30.5-0.2999999999999545 17 5.7000000000000455 33.39999999999998 16.800000000000068 45.89999999999998 10.5 12.399999999999977 29.100000000000023 24 55.799999999999955 34.80000000000007 14.600000000000023 6 24.5 11.5 29.5 16.5 2.3999999999999773 2.3999999999999773 4.300000000000068 5.2999999999999545 5.600000000000023 8.5 1.2999999999999545 3.199999999999932 1.8999999999999773 6.699999999999932 1.8999999999999773 10.099999999999909 0 3.5-0.8999999999999773 6.800000000000068-2.5 9.800000000000068-1.6999999999999318 3-4 5.5-6.899999999999977 7.2999999999999545-6.2000000000000455 4.300000000000068-15.100000000000023 6.399999999999977-26.700000000000045 6.399999999999977-25.299999999999955-0.09999999999990905-49.69999999999993-9-69.5-25.09999999999991-0.2999999999999545-0.3000000000000682-0.6999999999999318-0.5-1.099999999999909-0.6000000000000227-0.40000000000009095 0-0.900000000000091 0.10000000000002274-1.2000000000000455 0.2999999999999545-0.39999999999997726 0.39999999999997726-0.7999999999999545 0.8000000000000682-1 1.3000000000000682-0.20000000000004547 0.5-0.2999999999999545 1.099999999999909-0.20000000000004547 1.599999999999909v48.700000000000045c-0.1999999999999318 1.1000000000000227 0 2.2999999999999545 0.6000000000000227 3.2000000000000455 0.6000000000000227 1 1.3999999999999773 1.6999999999999318 2.5 2.099999999999909 18.600000000000023 11.200000000000045 42.5 16.700000000000045 71.89999999999998 16.700000000000045 29.300000000000068 0 52.5-7.2000000000000455 69.70000000000005-21.700000000000045 1.6000000000000227-1.3999999999999773 3.2999999999999545-2.7999999999999545 4.7999999999999545-4.2999999999999545v0.20000000000004547z"/>
</svg>
