<svg xmlns="http://www.w3.org/2000/svg" viewBox="0 0 1000 1000" width="1000" height="1000">
<path d="M0 327.5v344.70000000000005h1000v-344.70000000000005h-1000z m500 335.70000000000005c-272.2 0-492.8-73.10000000000002-492.8-163.40000000000003s220.60000000000002-163.3 492.8-163.3 492.79999999999995 73.10000000000002 492.79999999999995 163.39999999999998-220.5999999999999 163.30000000000007-492.79999999999995 163.30000000000007z m-269.9-223.70000000000005c1.1999999999999886-1.3999999999999773 0.29999999999998295-2.3000000000000114-2.0000000000000284-2.3000000000000114h-83.9c-2.299999999999983 0-3.299999999999983 0.9000000000000341-2 2.3000000000000114 1 1.1000000000000227 2.6000000000000227 8.600000000000023 2.6000000000000227 16.5v92.79999999999995c0 7.900000000000091-1.700000000000017 15.400000000000091-2.6000000000000227 16.5-1.1999999999999886 1.400000000000091-0.29999999999998295 2.300000000000068 2 2.300000000000068h83.9c2.3000000000000114 0 3.3000000000000114-0.8999999999999773 2-2.300000000000068-1-1.099999999999909-2.5999999999999943-8.599999999999909-2.5999999999999943-16.5v-92.79999999999995c0-7.899999999999977 1.5999999999999943-15.399999999999977 2.5999999999999943-16.5z m205.39999999999998 52.60000000000002c-1.6000000000000227-2-1.8999999999999773-3.900000000000034-0.30000000000001137-5.900000000000034l34.10000000000002-47.69999999999999c0.5-0.6000000000000227 0.8999999999999773-1.3999999999999773-0.19999999999998863-1.3999999999999773h-82.90000000000003c-0.5999999999999659 0-0.5999999999999659 0.5999999999999659-0.5999999999999659 1.3999999999999773s0.5999999999999659 2.5-0.6000000000000227 3.6999999999999886l-30.600000000000023 41.400000000000034v-27.700000000000045c0-7.899999999999977 1.7000000000000455-15.399999999999977 2.6000000000000227-16.5 1.1999999999999886-1.3999999999999773 0.30000000000001137-2.2999999999999545-2-2.2999999999999545h-81.5c-2.3000000000000114 0-3.3000000000000114 0.8999999999999773-2 2.2999999999999545 1 1.1000000000000227 2.6000000000000227 8.600000000000023 2.6000000000000227 16.5v92.80000000000007c0 7.899999999999977-1.7000000000000455 15.399999999999977-2.6000000000000227 16.5-1.1999999999999886 1.3999999999999773-0.30000000000001137 2.2999999999999545 2 2.2999999999999545h81.5c2.3000000000000114 0 3.3000000000000114-0.8999999999999773 2-2.2999999999999545-1-1.1000000000000227-2.6000000000000227-8.600000000000023-2.6000000000000227-16.5v-31.300000000000068l26.200000000000045 40c1.1999999999999886 1.2000000000000455-0.30000000000001137 7.899999999999977-0.30000000000001137 8.700000000000045 0 0.7999999999999545 0 1.3999999999999773 0.5999999999999659 1.3999999999999773h101.20000000000005c1.099999999999966 0 0.5999999999999659-0.7999999999999545 0.19999999999998863-1.3999999999999773l-46.80000000000001-74z m73.39999999999998-52.400000000000034c1 1.1000000000000227 2.6000000000000227 8.5 2.6000000000000227 16.30000000000001v91.79999999999995c0 7.900000000000091-1.6999999999999886 15.200000000000045-2.6000000000000227 16.300000000000068-1.1999999999999886 1.3999999999999773-0.2999999999999545 2.2999999999999545 2 2.2999999999999545h145.89999999999998v-38.39999999999998c0-2.2999999999999545-0.8999999999999773-3.2000000000000455-2.2999999999999545-2-1.1000000000000227 1-8.5 2.6000000000000227-16.299999999999955 2.6000000000000227h-46.30000000000007c-2.1000000000000227 0-2.2999999999999545-1.8000000000000682-2.2999999999999545-2.300000000000068v-7.199999999999932c0-0.5 0.1999999999999318-2.300000000000068 2.2999999999999545-2.300000000000068h32.200000000000045c3.2999999999999545 0 15.299999999999955-0.39999999999997726 16.299999999999955 0.6000000000000227s2.300000000000068 0.39999999999997726 2.300000000000068-1.6000000000000227v-31.299999999999955c0-2-1.3000000000000682-2.6000000000000227-2.300000000000068-1.6000000000000227-1 1-13 0.6000000000000227-16.299999999999955 0.6000000000000227h-32.200000000000045c-2.1000000000000227 0-2.2999999999999545-1.8000000000000114-2.2999999999999545-2.3000000000000114v-6.300000000000011c0-0.5 0.1999999999999318-2.2999999999999545 2.2999999999999545-2.2999999999999545h46.30000000000007c7.899999999999977 0 15.199999999999932 1.6999999999999886 16.299999999999955 2.599999999999966 1.3999999999999773 1.1999999999999886 2.2999999999999545 0.30000000000001137 2.2999999999999545-2v-36.19999999999999h-145.89999999999998c-2.2999999999999545 0.19999999999998863-3.1999999999999886 1.3000000000000114-2 2.6999999999999886z m329.80000000000007 1.6000000000000227c1.1999999999999318-3 0.1999999999999318-3.6000000000000227-1.900000000000091-3.6000000000000227h-113.5c-2.099999999999909 0-3.099999999999909 0.6999999999999886-1.8999999999999773 3.6000000000000227 1.2000000000000455 3 0.5 6.300000000000011-0.1999999999999318 8.199999999999989l-43.60000000000002 117.10000000000002h69.79999999999995c1.7000000000000455 0 2-0.8000000000000682 1.5-1.8999999999999773-0.5-1.1000000000000227-0.5-3.7000000000000455 0.3000000000000682-5.600000000000023l3.699999999999932-12.399999999999977c1.2000000000000455-3.5 3-4 5.899999999999977-4h30.700000000000045c3 0 4.7000000000000455 0.5 5.899999999999977 4l3.7000000000000455 12.399999999999977c0.7999999999999545 1.8999999999999773 0.7999999999999545 4.5 0.2999999999999545 5.600000000000023-0.5 1.099999999999909-0.1999999999999318 1.8999999999999773 1.5 1.8999999999999773h87.10000000000002s-48.5-115.20000000000005-49.200000000000045-117.10000000000002-1.2999999999999545-5.300000000000011-0.09999999999990905-8.199999999999989z m-58.80000000000007 75.80000000000001h-15.5c-1.1000000000000227-0.10000000000002274-1.1999999999999318-1.2000000000000455-0.8999999999999773-2l7.600000000000023-17.900000000000034c0.2999999999999545-0.5 0.5-1 1.1000000000000227-1s0.7999999999999545 0.5 1.099999999999909 1l7.600000000000023 17.900000000000034c0.3000000000000682 0.7999999999999545 0.10000000000002274 1.8999999999999773-1 2z"/>
</svg>
