<svg xmlns="http://www.w3.org/2000/svg" viewBox="0 0 1000 1000" width="1000" height="1000">
<path d="M538.4 888.8l-152.59999999999997-65.39999999999998v-712.4s331.7 55.69999999999999 377.40000000000003 193.89999999999998c45.69999999999993 138.10000000000002-25.5 227.60000000000002-50.5 230.20000000000005-69.70000000000005 7.2999999999999545-96.20000000000005-36.400000000000034-96.20000000000005-36.400000000000034v-223l-75.70000000000005-31.5-2.3999999999999773 644.5999999999999z m39.700000000000045-98.09999999999991v83.59999999999991s359.4-116.29999999999995 412.19999999999993-161.0999999999999c52.90000000000009-44.80000000000007-123.79999999999995-156.30000000000007-218.69999999999993-134.5 0 0-100.89999999999998 4.899999999999977-192.30000000000007 44.799999999999955-0.8999999999999773 0.39999999999997726 0 75.10000000000002 0 75.10000000000002l232-54.5 81.70000000000005 36.39999999999998-314.9 110.20000000000005z m-230.8-6.100000000000023s-46.900000000000034 24.199999999999932-151.4 23-197.1-30.300000000000068-195.9-93.20000000000005c1.2-63 173.1-132 346.1-161.10000000000002v88.40000000000009l-183.90000000000003 48.5s-31.5 40 10.800000000000011 41.19999999999993c96.19999999999999 2.7000000000000455 175.39999999999998-23 175.39999999999998-23l-1.099999999999966 76.20000000000005z"/>
</svg>
