<svg xmlns="http://www.w3.org/2000/svg" viewBox="0 0 1000 1000" width="1000" height="1000">
<path d="M649.3 891c-7.399999999999977 9-15.399999999999977 18-24.299999999999955 26.5-57 55-126.10000000000002 82.5-207.2 82.5-79 0-148.90000000000003-21.399999999999977-209.4-64.5-60.5-43-107.10000000000001-107.5-139.7-193.39999999999998l2.3999999999999773-0.7000000000000455c-2.6999999999999886-9.299999999999955-4.599999999999994-19-4.599999999999994-29.199999999999932 0-59.5 48.599999999999994-107.80000000000007 108.5-107.80000000000007s108.39999999999998 48.200000000000045 108.39999999999998 107.80000000000007c0 30.59999999999991-12.899999999999977 57.89999999999998-33.39999999999998 77.59999999999991 42.89999999999998 49.40000000000009 97.19999999999999 74.60000000000002 163.3 74.60000000000002 47 0 86.09999999999997-14 117.19999999999999-41.89999999999998 31.200000000000045-27.899999999999977 46.700000000000045-63.200000000000045 46.700000000000045-105.79999999999995 0-25.5-8.100000000000023-51-24.5-76.80000000000007s-36.60000000000002-46.89999999999998-60.900000000000034-63.5c-24.19999999999999-16.699999999999932-62.80000000000001-35.799999999999955-115.69999999999999-57.299999999999955-52.900000000000034-21.600000000000023-93.5-41.30000000000001-122.10000000000002-59.200000000000045-28.5-18-53.19999999999999-39.299999999999955-74.1-64-20.700000000000017-24.799999999999955-36-49.5-45.70000000000002-74-9.599999999999994-24.599999999999966-14.499999999999986-50.799999999999955-14.499999999999986-78.79999999999998 0-67.29999999999998 27.200000000000003-124.6 81.60000000000001-171.89999999999998 54.5-47.500000000000014 120.39999999999998-71.20000000000002 198-71.20000000000002 51.39999999999998 0 103.59999999999997 11 156.40000000000003 33.2 44 18.299999999999997 81.39999999999998 45.099999999999994 113.09999999999991 79.5 22.600000000000023 19.799999999999997 37.200000000000045 48.39999999999999 37.200000000000045 80.7 0 59.5-48.60000000000002 107.79999999999998-108.5 107.79999999999998s-108.5-48.19999999999999-108.5-107.79999999999998c0-15.800000000000011 3.6999999999999886-30.700000000000017 9.800000000000011-44.20000000000002-21.80000000000001-10.799999999999983-50.80000000000001-16.5-88-16.5-46.30000000000001 0-84 10.400000000000006-112.80000000000001 31.200000000000017-28.899999999999977 20.900000000000006-43.30000000000001 47.599999999999994-43.30000000000001 80.5 0 28.400000000000006 12.600000000000023 53.49999999999997 37.80000000000001 75.20000000000002 25.19999999999999 21.899999999999977 68.10000000000002 45.69999999999999 128.8 71.59999999999997 60.69999999999999 25.900000000000034 107.90000000000003 50 141.7 72.40000000000003 33.799999999999955 22.299999999999955 61.5 47 83.20000000000005 74 21.699999999999932 27 37.799999999999955 55.5 48.39999999999998 85.39999999999998l1.6000000000000227 5.899999999999977c-46 38-75.80000000000007 94.5-75.80000000000007 158.70000000000005 0 37.799999999999955 11.100000000000023 72.79999999999995 28.899999999999977 103.39999999999998z m158.80000000000007-227.79999999999995c-69.10000000000002 0-125.10000000000002 55.59999999999991-125.10000000000002 124.29999999999995 0 68.60000000000002 56 124.39999999999998 125.10000000000002 124.39999999999998s125.10000000000002-55.69999999999993 125.10000000000002-124.39999999999998-56-124.29999999999995-125.10000000000002-124.29999999999995z"/>
</svg>
