<svg xmlns="http://www.w3.org/2000/svg" viewBox="0 0 1000 1000" width="1000" height="1000">
<path d="M787.7 219.1c72.79999999999995-1.6999999999999886 132.69999999999993 21 165.0999999999999 89.70000000000002 24.100000000000023 51 8.400000000000091 101.59999999999997-46.19999999999993 167.39999999999998 86.79999999999995 52.400000000000034 92.89999999999998 151.2 60.10000000000002 220.59999999999997-19 40.200000000000045-48.10000000000002 70.40000000000009-90.20000000000005 86.70000000000005-42 16.200000000000045-83.70000000000005 12.899999999999977-125-4.600000000000023 8.799999999999955 134.60000000000002-132.39999999999998 204.10000000000002-224.39999999999998 115-17.100000000000023 46.30000000000007-48 79.20000000000005-94.30000000000001 95.89999999999998-42.400000000000034 15.200000000000045-84.90000000000003 12.900000000000091-126.60000000000002-3.5-45.19999999999999-17.799999999999955-79.29999999999998-47.89999999999998-97.39999999999998-93.69999999999993-18-45.30000000000007-13.100000000000023-90 7.799999999999983-134.20000000000005-62.599999999999994 1.3999999999999773-113.8-17.699999999999932-139.5-77.29999999999995-22.299999999999997-51.60000000000002-9.199999999999989-98.60000000000002 29-140.10000000000002-1.6999999999999886-1.2000000000000455-3-2.5-4.699999999999989-3.2000000000000455-88.7-35.39999999999998-109.9-138.39999999999998-60.00000000000001-213.69999999999993 40.4-60.900000000000034 121-91.80000000000001 196-76.60000000000002 2.6999999999999886 0.5999999999999943 5.5 0.8000000000000114 10.400000000000006 1.5-3.4000000000000057-6.199999999999989-6-10.900000000000006-8.5-15.699999999999989-23.200000000000017-45-27.400000000000006-90.70000000000002-4.600000000000023-137.10000000000002 25.69999999999999-52.09999999999999 75.90000000000003-72.49999999999999 128.60000000000002-67.39999999999999 40.89999999999998 4 75.89999999999998 20.900000000000006 104.19999999999999 51 1.3000000000000114 1.4000000000000057 2.8000000000000114 2.6000000000000085 4.300000000000011 4 56.599999999999966-94 159.40000000000003-96.89999999999999 224.09999999999997-67.19999999999999 79.70000000000005 36.69999999999999 109.80000000000007 101.8 91.80000000000007 202.5z m-219.80000000000007 168.79999999999998c46.89999999999998-55.19999999999999 94.39999999999998-109.69999999999999 139.89999999999998-165.7 10.100000000000023-12.399999999999977 16.5-30.099999999999994 18.700000000000045-46.19999999999999 6-44.400000000000006-17.100000000000023-79.3-61.700000000000045-98.3-75-32-150.89999999999998 17.5-142.0999999999999 98.99999999999999 6 56.10000000000002 9.199999999999932 112.5 12.399999999999977 168.90000000000003 0.8999999999999773 16.299999999999955 2.3999999999999773 30 20.899999999999977 35.19999999999999 3.2000000000000455 0.8000000000000114 6.100000000000023 3.5 11.899999999999977 7.099999999999966z m39.39999999999998 189c51.90000000000009 43.39999999999998 103.70000000000005 87.60000000000002 156.70000000000005 130.39999999999998 17.899999999999977 14.400000000000091 40.299999999999955 20.90000000000009 63.700000000000045 18.100000000000023 44.299999999999955-5.2999999999999545 74.59999999999991-34.5 86-81.5 17.59999999999991-72-30-125.5-103.80000000000007-117-22 2.5-44.19999999999993 3.7000000000000455-66.29999999999995 5.7000000000000455-37.80000000000007 3.3999999999999773-75.5 6.7999999999999545-113.20000000000005 10.600000000000023-4.100000000000023 0.39999999999997726-9.5 3.099999999999909-11.399999999999977 6.399999999999977-4.600000000000023 7.899999999999977-7.399999999999977 16.699999999999932-11.700000000000045 27.299999999999955z m-191.79999999999995 52.60000000000002c-9.399999999999977 10.100000000000023-18.399999999999977 19.399999999999977-26.899999999999977 29-33.60000000000002 38.200000000000045-67.80000000000001 76-100.40000000000003 115-18.599999999999966 22.299999999999955-26 49-20.69999999999999 78.20000000000005 10.5 58 79.30000000000001 90.09999999999991 131.89999999999998 77 47.5-11.800000000000068 73.30000000000001-52.90000000000009 67.70000000000005-105.60000000000002-5.800000000000011-54.60000000000002-11.5-109.20000000000005-16.700000000000045-163.89999999999998-1.099999999999966-11.800000000000068-3.7999999999999545-20.600000000000023-17.399999999999977-22.600000000000023-5.800000000000011-0.7000000000000455-11.100000000000023-4.300000000000068-17.5-7.100000000000023z m-51.19999999999999-205c-27.5-27.399999999999977-54.5-55.19999999999999-82.5-81.80000000000001-18.30000000000001-17.399999999999977-41.30000000000001-26.19999999999999-66.20000000000002-30.099999999999966-45.5-7.2000000000000455-98.19999999999999 16.19999999999999-120.39999999999999 53.89999999999998-27.200000000000003 46.10000000000002-8.5 98.5 41.10000000000001 111.19999999999999 14.899999999999977 3.900000000000034 31.399999999999977 4.600000000000023 46.69999999999999 2.900000000000034 46.900000000000006-5.2000000000000455 93.5-12.700000000000045 140.3-18.5 16.19999999999999-2 29.599999999999966-5.600000000000023 33.39999999999998-24.200000000000045 0.9000000000000341-3.6999999999999886 3.900000000000034-7 7.600000000000023-13.399999999999977z m258.2 43.89999999999998c1.2000000000000455 0.30000000000001137 2 0.7000000000000455 2.7999999999999545 0.6000000000000227 61.30000000000007-7.199999999999989 122.70000000000005-13.199999999999989 183.80000000000007-22 39.10000000000002-5.600000000000023 67.39999999999998-27.600000000000023 81-65.89999999999998 6.5-18.200000000000045 7.199999999999932-36.60000000000002-3.5-53.60000000000002-21.800000000000068-34.89999999999998-87.80000000000007-59.39999999999998-130-22.30000000000001-47.60000000000002 41.80000000000001-93.5 85.5-139.89999999999998 128.7-2.300000000000068 2.2000000000000455-4.2000000000000455 7.100000000000023-3.400000000000091 10 2.400000000000091 8.400000000000034 6.2000000000000455 16.5 9.200000000000045 24.5z m-165-105.79999999999995c0-2.2000000000000455 0.10000000000002274-3.8000000000000114 0-5.400000000000034-4.899999999999977-56.19999999999999-9.100000000000023-112.5-15-168.6-5.199999999999989-48.900000000000006-29.30000000000001-78.1-70.5-89.1-39.10000000000002-10.5-70.80000000000001 4.299999999999997-80.89999999999998 38.19999999999999-8.200000000000045 27.700000000000017-0.7000000000000455 52.60000000000002 15.799999999999955 75.20000000000002 10.200000000000045 14 21.700000000000045 27.099999999999994 32.10000000000002 40.900000000000006 29.600000000000023 39.19999999999999 59 78.59999999999997 88.5 118 9.600000000000023-3 19.19999999999999-5.900000000000034 30-9.199999999999989z m164.20000000000005 503c20.199999999999932 0.10000000000002274 35.69999999999993-8.800000000000068 47-25.200000000000045 20.899999999999977-30 19.799999999999955-68-6.5-98.39999999999998-32.60000000000002-37.89999999999998-67.70000000000005-73.70000000000005-101.80000000000007-110.39999999999998-1.6999999999999318-1.8000000000000682-4.699999999999932-3.7000000000000455-6.7999999999999545-3.5-15.200000000000045 1.7999999999999545-22.100000000000023 11.5-20.300000000000068 26.899999999999977 4 34.39999999999998 7.900000000000091 68.89999999999998 11.800000000000068 103.29999999999995 3 26.100000000000023 6.5 52.200000000000045 21.799999999999955 74.60000000000002 13.200000000000045 19.399999999999977 30.200000000000045 32.60000000000002 54.80000000000007 32.700000000000045z m-138.00000000000006-279.4c45.00000000000006-0.10000000000002274 82.59999999999997-37.30000000000007 82.90000000000003-82.20000000000005 0.2999999999999545-45.10000000000002-37.80000000000007-83.19999999999999-83.20000000000005-83.10000000000002-45.19999999999999 0.10000000000002274-82.39999999999998 37.10000000000002-82.59999999999997 82.20000000000005-0.4000000000000341 45.69999999999993 37.099999999999966 83.19999999999993 82.89999999999998 83.10000000000002z"/>
</svg>
