<svg xmlns="http://www.w3.org/2000/svg" viewBox="0 0 1000 1000" width="1000" height="1000">
<path d="M310.6 552.8s27.299999999999955-56.89999999999998-23.5-98.69999999999993c-51.00000000000003-41.900000000000034-125.60000000000002-20.80000000000001-153.60000000000002-2.6000000000000227-28.099999999999994 18.19999999999999-18.099999999999994 38.19999999999999-15.299999999999997 40.89999999999998 2.8999999999999915 2.900000000000034 9.399999999999991 6.5 39.499999999999986-5.099999999999966 0 0-77.19999999999999 87.59999999999997-113.99999999999999 273.7 0 0-6.100000000000001 46 11.399999999999999 48.10000000000002 17.4 2 27.999999999999993-24.200000000000045 34.1-40.200000000000045 2.5999999999999943-6.7999999999999545 116.10000000000001-269.29999999999995 95.39999999999999-283.59999999999997 0 0 70.9-3.900000000000034 78.6 44.30000000000001 7.800000000000011 48.10000000000002-66.79999999999998 85.39999999999998-88.6 89.79999999999995-22 4.300000000000068-21.5 13.100000000000023-20.099999999999994 14.300000000000068 1.4000000000000057 1.1999999999999318 6.099999999999994 7.5 34.400000000000006 3.199999999999932 28.299999999999983-4.2999999999999545 93.4-23.899999999999977 121.70000000000002-84.10000000000002z m113.59999999999997-105.69999999999993c-1.5-22.200000000000045-6.800000000000011-24.200000000000045-14.5-23.200000000000045-7.5 1-8.399999999999977 11.400000000000034-8.399999999999977 11.400000000000034-54.5 71.80000000000001-60.80000000000001 94.90000000000003-63.60000000000002 116.40000000000003-2.6999999999999886 21.5 7.800000000000011 48.59999999999991 24.900000000000034 48.69999999999993 17 0.20000000000004547 11.799999999999955-14.5 11.799999999999955-14.5-0.2999999999999545-3.6000000000000227 14.800000000000011-38.69999999999993 22.80000000000001-53 17.80000000000001-31.099999999999966 28.69999999999999-63.39999999999998 27-85.79999999999995z m295.2 112.29999999999995c-1.8999999999999773-3.199999999999932-6.5-4.899999999999977-11.799999999999955-2.699999999999932-5.300000000000068 2.199999999999932-25.200000000000045 6.5-36.60000000000002 7.7999999999999545-11.600000000000023 1.3999999999999773-37.700000000000045-0.8999999999999773-86.39999999999998-9.200000000000045-48.700000000000045-8.299999999999955-89.60000000000002-0.1999999999999318-89.60000000000002-0.1999999999999318l61.39999999999998-58.10000000000002s38.5-42.30000000000001 43.5-57.60000000000002c4.800000000000068-15.299999999999955-6-22.799999999999955-13.299999999999955-23.69999999999999-7.300000000000068-0.8999999999999773-62.89999999999998 0.6999999999999886-81.5 3.6000000000000227-18.600000000000023 3.099999999999966-32 1.3999999999999773-42.60000000000002 0.6999999999999886-10.600000000000023-0.6999999999999886-15 8.399999999999977-15 8.399999999999977-10.5 21.700000000000045 27.5 26.700000000000045 27.5 26.700000000000045 25.100000000000023 2.599999999999966 70.89999999999998-7 70.89999999999998-7-78.39999999999998 64.10000000000002-120.29999999999995 102.79999999999995-128.5 115.69999999999993-5.599999999999966 9-14 25.200000000000045-3.099999999999966 37.700000000000045 10.899999999999977 12.399999999999977 36.30000000000001-1 36.30000000000001-1 32.19999999999999-9.399999999999977 91-8.5 91-8.5s30.5-0.2999999999999545 82.79999999999995 1.5c52.30000000000007 1.8999999999999773 80.10000000000002-16.200000000000045 88.10000000000002-21.100000000000023 8.100000000000023-5 9-9.799999999999955 6.899999999999977-13z m64.20000000000005-55.299999999999955c-1.8999999999999773-6-9-3.900000000000034-10.600000000000023-3.400000000000034-1.3999999999999773 0.30000000000001137-3.8999999999999773 0.6999999999999886-15.299999999999955 2.400000000000034s-44.700000000000045-3.900000000000034-50.40000000000009-4.600000000000023c-5.7999999999999545-0.6999999999999886-26.399999999999977-2.8999999999999773-26.399999999999977-2.8999999999999773 2.6000000000000227-0.9000000000000341 75.80000000000007-76 75.80000000000007-76s22-23.5 9.899999999999977-36.30000000000001c-14.300000000000068-14.800000000000011-40.60000000000002-10.699999999999989-40.60000000000002-10.699999999999989s-84.70000000000005 12.299999999999955-89.29999999999995 11.399999999999977c-5.100000000000023-0.6999999999999886-7.5-2-10.900000000000091-2-3.3999999999999773 0.19999999999998863-8 2.3999999999999773-10.099999999999909 4.399999999999977-7.300000000000068 6.800000000000011-2.6000000000000227 18.900000000000034-2.6000000000000227 18.900000000000034 1.5 5.800000000000011 8.199999999999932 11.800000000000011 13.600000000000023 14 11.799999999999955 4.899999999999977 83.5-4.100000000000023 83.5-4.100000000000023l-84.5 69s-21.100000000000023 15.199999999999989-28.600000000000023 35.599999999999966c-7.5 20.5 5.600000000000023 21.300000000000068 7.5 21.100000000000023 1.5 0 15.299999999999955-3.6000000000000227 28.5-4.600000000000023 13-1 48.60000000000002 0.5 61.19999999999993 1.400000000000091 12.800000000000068 0.5 42.90000000000009-0.3000000000000682 63.60000000000002-9.400000000000091 20.399999999999977-9 27.800000000000068-18.099999999999966 25.700000000000045-24.199999999999932z m-392.3 269.79999999999995c-0.5 2.3999999999999773-9.199999999999989 32.700000000000045-9.900000000000034 54-0.8999999999999773 21.300000000000068 8.400000000000034 30.5 17.600000000000023 31.200000000000045 9.399999999999977 0.6999999999999318 18.899999999999977-6.100000000000023 26.80000000000001-17.899999999999977 7.800000000000011-11.800000000000068 28-99.40000000000009 28-99.40000000000009l29.099999999999966-18.899999999999977s7.5-5.7999999999999545 4.800000000000011-10.399999999999977c-2.6999999999999886-4.399999999999977-7.5-2-7.5-2l-20.599999999999966 7.7000000000000455s13.099999999999966-76 15.199999999999989-88.80000000000007c2-12.799999999999955-8.900000000000034-13.299999999999955-11.600000000000023-13.299999999999955-2.6999999999999886 0-8.199999999999989 1-24.5 28.600000000000023-16.5 27.59999999999991-33.89999999999998 88.5-33.89999999999998 88.5l-74.90000000000003 15.799999999999955s50.30000000000001-128 24.900000000000034-127.10000000000002c-25.400000000000034 0.8999999999999773-86.40000000000003 140.10000000000002-86.40000000000003 140.10000000000002s-29.99999999999997 3.7999999999999545-47.69999999999999 7c0 0-13 2-14.5 11.799999999999955-1.3999999999999773 9.5 3.8000000000000114 15.5 3.8000000000000114 15.5 6 8.400000000000091 40.900000000000006 12.100000000000023 40.900000000000006 12.100000000000023-7.800000000000011 24-17.700000000000017 65.80000000000007-17.599999999999994 78.60000000000002 0.19999999999998863 12.799999999999955 2.3999999999999773 34.299999999999955 17.899999999999977 36.10000000000002 11.400000000000034 1.3999999999999773 25.69999999999999-6.300000000000068 32.400000000000034-18.100000000000023 6.7999999999999545-11.799999999999955 29.5-102.89999999999998 29.5-102.89999999999998 10.399999999999977-1.1000000000000227 78.19999999999999-28.200000000000045 78.19999999999999-28.200000000000045z m529.2 2.7000000000000455c-1.3999999999999773-6.800000000000068-7.5-5.5-7.5-5.5s-28.100000000000023 1.8999999999999773-89.60000000000002 9c-32.60000000000002 3.699999999999932-76.60000000000002 14.299999999999955-110.69999999999993 23.399999999999977l20.399999999999977-60.5 29.299999999999955-79.29999999999995c11.200000000000045-1.900000000000091 117.39999999999998-44.5 117.39999999999998-44.5s10.900000000000091-4.800000000000068 9.900000000000091-9c-1.2000000000000455-5.100000000000023-7.5-3.6000000000000227-7.5-3.6000000000000227l-103.10000000000002 19.399999999999977 14.299999999999955-29s7.800000000000068-17.200000000000045-3.1000000000000227-24.700000000000045c-10.899999999999977-7.2999999999999545-17.699999999999932 1.900000000000091-17.699999999999932 1.900000000000091-6.300000000000068 5.7999999999999545-40.700000000000045 61.5-40.700000000000045 61.5s-22.799999999999955 4.099999999999909-27.399999999999977 4.7999999999999545c-4.600000000000023 0.7000000000000455-9.399999999999977-0.2999999999999545-9.399999999999977-0.2999999999999545-8.399999999999977-4.300000000000068-26.899999999999977-0.7000000000000455-25.899999999999977 15.699999999999932l44.799999999999955 16.200000000000045v0.5s-16.5 43.60000000000002-21 68.89999999999998c-4.399999999999977 25.200000000000045-2.2000000000000455 62.700000000000045-1.8999999999999773 65.29999999999995 0 0.6000000000000227 0.1999999999999318 1.5 0.5 2.6000000000000227-19.100000000000023 5.300000000000068-31.700000000000045 9.200000000000045-31.700000000000045 9.200000000000045l-61.19999999999993 19.899999999999977-180.20000000000005 71.39999999999998s-68.5 30.700000000000045-94.10000000000002 39.39999999999998c-27.799999999999955 9.400000000000091-22.19999999999999 29-22.19999999999999 29 1.5 8.700000000000045 5.300000000000011 17.600000000000023 24.5 21 19.100000000000023 3.400000000000091 42.60000000000002-5.099999999999909 42.60000000000002-5.099999999999909s191.2-84 206.09999999999997-90c15.700000000000045-6.600000000000023 148.39999999999998-63.40000000000009 336.6-119.80000000000007 0.20000000000004547-0.10000000000002274 9.700000000000045-1.5 8.5-7.7999999999999545z m67.70000000000005-317.1c-0.900000000000091-3.3999999999999773-19.40000000000009-5.600000000000023-26.200000000000045-6.300000000000011-6.7999999999999545-0.5-12.799999999999955-3.8999999999999773-15.700000000000045-11.800000000000011-2.699999999999932-7.5 7.2000000000000455-31.19999999999999 11.600000000000023-47.89999999999998 4.600000000000023-16.69999999999999-4.600000000000023-22.69999999999999-9.899999999999977-23.19999999999999-5.100000000000023-0.5-11.600000000000023 4.300000000000011-11.600000000000023 4.300000000000011-68.29999999999995-14.300000000000011-145.69999999999993 57.89999999999998-150.19999999999993 90-3.2000000000000455 23.299999999999955 3.3999999999999773 39.89999999999998 22.799999999999955 44 19.299999999999955 4.100000000000023 36.799999999999955-2.900000000000034 52-8.900000000000034 15-5.599999999999966 45-28.80000000000001 45-28.80000000000001 2.8999999999999773 7.300000000000011 19.100000000000023 14.700000000000045 33.89999999999998 15.200000000000045 14.800000000000068 0.6999999999999886 40.60000000000002-11.200000000000045 45-14.300000000000011 4.5-2.900000000000034 4.300000000000068-8.900000000000034 3.300000000000068-12.300000000000011z m-87.80000000000007-29.5c-1.5 4.100000000000023-2 10.199999999999989-2 10.199999999999989s-24 13.800000000000011-34.89999999999998 18.100000000000023c-11.299999999999955 4.399999999999977-25.100000000000023 3.599999999999966-25.100000000000023 3.599999999999966 13.800000000000068-46.89999999999998 72.60000000000002-56.099999999999966 72.60000000000002-56.099999999999966s-9.100000000000023 20.30000000000001-10.600000000000023 24.19999999999999z m-475.29999999999995-42.10000000000002c12.099999999999966-10.699999999999989 48.099999999999966-66.29999999999995 50.599999999999966-70.89999999999998 2.6000000000000227-4.600000000000023 4.400000000000034-9.699999999999989 1.1999999999999886-13.100000000000023-3.1999999999999886-3.3999999999999773-11.099999999999966 0.5-11.099999999999966 0.5s-16.900000000000034 4.900000000000034-37.80000000000001 17.900000000000034c-21.100000000000023 13.099999999999966-31.399999999999977 32.69999999999999-34.39999999999998 39.69999999999999-3.1000000000000227 7-4.300000000000011 23.69999999999999 4.399999999999977 28.600000000000023 8.600000000000023 5.199999999999989 19.5 4 27.100000000000023-2.7000000000000455z m232.60000000000002 277.5c-6.300000000000068-16.899999999999977-21.100000000000023-5.600000000000023-21.100000000000023-5.600000000000023-7.300000000000068 5.800000000000068-23.200000000000045 38.200000000000045-23.200000000000045 38.200000000000045-13 21.600000000000023-76.69999999999993 61.39999999999998-76.69999999999993 61.39999999999998 8-20.600000000000023 9.5-40.19999999999993 8.399999999999977-52.19999999999993-1.2000000000000455-11.900000000000091-11.100000000000023-29.300000000000068-25.600000000000023-32-14.300000000000011-2.900000000000091-28.600000000000023 1-31.69999999999999 4.599999999999909-3.400000000000034 3.7000000000000455-2.1999999999999886 7.300000000000068 4.899999999999977 11.100000000000023 7.199999999999989 3.6000000000000227 10.600000000000023 11.399999999999977 10.600000000000023 11.399999999999977 1.5 3.2000000000000455-0.19999999999998863 8.5-0.30000000000001137 9.5-0.19999999999998863 0.900000000000091-13 39.40000000000009-13 39.40000000000009s-11.199999999999989 37 4.899999999999977 48.89999999999998c16.200000000000045 12.100000000000023 27.300000000000068 10.899999999999977 53-0.7000000000000455l56.200000000000045-55.60000000000002c-0.8999999999999773 29.5 16 44.10000000000002 25.699999999999932 52 9.700000000000045 7.800000000000068 16.5 5.600000000000023 16.5 5.600000000000023 9.700000000000045-5.600000000000023 3.6000000000000227-14.100000000000023 2.7000000000000455-15.799999999999955-0.8999999999999773-1.5-0.5-53.30000000000007 4.2999999999999545-80.10000000000002 4.900000000000091-26.799999999999955 4.400000000000091-40.10000000000002 4.400000000000091-40.10000000000002z m-354.70000000000005-475.59999999999997c1.1999999999999886 0.5 2.6000000000000227 0.29999999999998295 2.6999999999999886-0.30000000000001137 0.30000000000001137-0.5 62.69999999999999-91.7 62.69999999999999-91.7l129.5-30.5s115.20000000000005-36.099999999999994 117.10000000000002-37c2-0.6999999999999957 11.399999999999977-4.799999999999997 8.200000000000045-14.499999999999996-3.400000000000091-9.700000000000001-12.800000000000068-8.200000000000001-12.800000000000068-8.200000000000001l-49.60000000000002 12.799999999999999s-191.59999999999997 54.9-199.09999999999997 57.300000000000004c-7.699999999999989 2.3999999999999915-9.5 8-9.5 8-19.599999999999966 33.099999999999994-49.599999999999966 94.8-50.80000000000001 98.49999999999999-1.2999999999999545 3.6000000000000227 0.20000000000004547 5.100000000000023 1.6000000000000227 5.600000000000023z m367.70000000000005-108.70000000000002s6.2999999999999545 41.400000000000006 9.699999999999932 49.30000000000001c3.6000000000000227 7.799999999999983 28.300000000000068 16 28.300000000000068 16 49.299999999999955 11.799999999999983 238.89999999999998 79.9 238.89999999999998 79.9s11.899999999999977 4.599999999999994 14.100000000000023 4.799999999999983c2.199999999999932 0.20000000000001705 9-1 11.599999999999909-7.699999999999989 2.7000000000000455-6.800000000000011-2.8999999999999773-12.300000000000011-3.3999999999999773-12.599999999999994-0.5-0.30000000000001137-5.5-2.700000000000017-5.5-2.700000000000017-52.69999999999993-27.299999999999983-156.10000000000002-63.599999999999994-161.19999999999993-64.9-4.900000000000091-1.3999999999999773-100.40000000000009-29.099999999999994-100.40000000000009-29.099999999999994s-28-77.8-29.799999999999955-83.1c-1.7000000000000455-5.300000000000001-14.799999999999955-29.3-14.799999999999955-29.3s-1.2000000000000455-2.1999999999999993-2.7000000000000455-1.4999999999999993c-1.5 0.7000000000000001-0.8999999999999773 2.4000000000000004-0.8999999999999773 2.4000000000000004l16.100000000000023 78.5z m-287.1 246.50000000000003l21-3.7000000000000455c4.7999999999999545-4.399999999999977 10.099999999999966-8.899999999999977 16.5-12.799999999999955 19.899999999999977-12.400000000000034 36.5-17.900000000000034 40.19999999999999-19.100000000000023 7.800000000000011-3.3999999999999773 18.19999999999999-4.399999999999977 25.099999999999966 2.6999999999999886 3.1000000000000227 3.1000000000000227 5.800000000000011 7.800000000000011 5.5 14.5l8.5-1.3999999999999773 0.20000000000004547-0.19999999999998863c109.89999999999998-18.900000000000034 351.9-34.900000000000034 351.9-34.900000000000034 8.899999999999977-1.3999999999999773 32.89999999999998-9.399999999999977 28.299999999999955-33.099999999999994-3.599999999999909-18.599999999999994-34.89999999999998-19.599999999999994-39.5-19.099999999999994-4.599999999999909 0.30000000000001137-317.5 41.60000000000002-338.29999999999995 45-113.19999999999999 18.600000000000023-307.5 67.30000000000001-307.5 67.30000000000001l-119.2 35.099999999999966c2.200000000000003-4.399999999999977 97.50000000000001-71.79999999999995 103.10000000000001-76 5.599999999999994-4.2999999999999545 116.1-72.09999999999997 116.1-72.09999999999997s8.899999999999977-3.4000000000000057 6-8.900000000000006c-2.3999999999999773-4.900000000000006-7-3.4000000000000057-7-3.4000000000000057s-6.800000000000011 2.9000000000000057-26.600000000000023 11.199999999999989c-38.29999999999998 16.400000000000006-99.89999999999998 53.30000000000001-99.89999999999998 53.30000000000001-48.599999999999994 27.100000000000023-150.5 109.80000000000001-150.5 109.80000000000001s-10.1 6.800000000000011-4.800000000000001 19.099999999999966c5.100000000000001 12.400000000000034 18.900000000000002 10.900000000000034 18.900000000000002 10.900000000000034l147.9-39.900000000000034c11-5 204.10000000000002-44.299999999999955 204.10000000000002-44.299999999999955z m538.3 493.19999999999993v-0.1999999999999318c2.2000000000000455-0.5 3.8999999999999773-2 3.8999999999999773-4.800000000000068 0-1.8999999999999773-0.6999999999999318-3.099999999999909-1.8999999999999773-4.099999999999909-1.1999999999999318-0.900000000000091-3.1000000000000227-1.400000000000091-6.100000000000023-1.400000000000091-2.3999999999999773 0-3.8999999999999773 0.20000000000004547-5.5 0.5v19.600000000000023h3.1000000000000227v-8.399999999999977h2.2000000000000455c2.6000000000000227 0 3.699999999999932 1 4.2999999999999545 3.6000000000000227 0.3000000000000682 2.6000000000000227 0.8999999999999773 4.399999999999977 1.3999999999999773 4.899999999999977h3.2000000000000455c-0.2999999999999545-0.5-0.8999999999999773-1.7000000000000455-1.2000000000000455-4.7999999999999545-0.5-3-1.6999999999999318-4.5-3.3999999999999773-4.900000000000091z m-4.2999999999999545-1.1999999999999318h-2.2000000000000455v-6.600000000000023c0.5-0.20000000000004547 1.2000000000000455-0.20000000000004547 2.2000000000000455-0.20000000000004547 3.6000000000000227 0 4.899999999999977 1.7000000000000455 4.899999999999977 3.400000000000091 0 2.3999999999999773-2.2999999999999545 3.3999999999999773-4.899999999999977 3.3999999999999773z m1.1999999999999318-17h-0.1999999999999318c-9.5 0-17.399999999999977 7.7999999999999545-17.399999999999977 17.699999999999932 0 10.100000000000023 7.7999999999999545 17.700000000000045 17.399999999999977 17.700000000000045 9.899999999999977 0 17.600000000000023-7.7000000000000455 17.600000000000023-17.700000000000045 0-9.899999999999977-7.7000000000000455-17.699999999999932-17.40000000000009-17.699999999999932z m0 32.69999999999993c-7.7999999999999545 0-14.299999999999955-6.599999999999909-14.299999999999955-15s6.5-15 14.100000000000023-15h0.1999999999999318c7.800000000000068 0 14.100000000000023 6.600000000000023 14.100000000000023 15s-6.2999999999999545 15-14.100000000000023 15z"/>
</svg>
