<svg xmlns="http://www.w3.org/2000/svg" viewBox="0 0 1000 1000" width="1000" height="1000">
<path d="M431.7 519.6h66.10000000000002l-34.900000000000034-56.30000000000001-64.09999999999997 101.69999999999999h-29.19999999999999l78-122.10000000000002c3.2999999999999545-5 9-7.899999999999977 15.199999999999989-7.899999999999977 6.099999999999966 0 11.800000000000011 2.8999999999999773 15.099999999999966 7.699999999999989l78.30000000000007 122.30000000000001h-29.200000000000045l-13.700000000000045-22.700000000000045h-66.99999999999994l-14.600000000000023-22.699999999999932z m303.09999999999997 22.699999999999932v-105.99999999999994h-24.799999999999955v116.40000000000003c0 3.199999999999932 1.2999999999999545 6.2999999999999545 3.6000000000000227 8.599999999999909 2.3999999999999773 2.400000000000091 5.600000000000023 3.7000000000000455 9.100000000000023 3.7000000000000455h112.89999999999998l14.600000000000023-22.700000000000045h-115.40000000000009z m-409.59999999999997-19c24 0 43.5-19.499999999999943 43.5-43.49999999999994s-19.5-43.5-43.5-43.5h-108.39999999999998v128.7h24.799999999999983v-106h81.9c11.5 0 20.80000000000001 9.300000000000011 20.80000000000001 20.80000000000001s-9.300000000000011 20.899999999999977-20.80000000000001 20.899999999999977h-69.80000000000001l73.90000000000003 64.40000000000003h36l-49.700000000000045-41.700000000000045 11.300000000000011-0.10000000000002274z m-260.79999999999995 41.700000000000045c-35.60000000000004 0-64.40000000000003-28.799999999999955-64.40000000000003-64.30000000000001 0-35.599999999999966 28.8-64.39999999999998 64.4-64.39999999999998h74.9c35.599999999999994 0 64.39999999999998 28.80000000000001 64.39999999999998 64.39999999999998 0 35.599999999999966-28.799999999999983 64.40000000000003-64.39999999999998 64.40000000000003-0.10000000000002274 0-74.9-0.10000000000002274-74.9-0.10000000000002274z m73.19999999999996-22.700000000000045c23 0 41.70000000000002-18.699999999999932 41.70000000000002-41.69999999999993 0-23-18.600000000000023-41.700000000000045-41.70000000000002-41.700000000000045l-71.6 0.10000000000002274c-23 0-41.7 18.69999999999999-41.7 41.69999999999999 3.552713678800501e-15 23.000000000000057 18.700000000000003 41.69999999999999 41.7 41.69999999999999l71.6-0.10000000000002274z m470.19999999999993 22.700000000000045c-35.5 0-64.39999999999998-28.799999999999955-64.39999999999998-64.39999999999998 0-35.60000000000002 28.899999999999977-64.40000000000003 64.39999999999998-64.40000000000003h88.90000000000009l-14.5 22.80000000000001h-72.70000000000005c-23 0-41.700000000000045 18.69999999999999-41.700000000000045 41.69999999999999 0 23.000000000000057 18.700000000000045 41.69999999999999 41.700000000000045 41.69999999999999h89.29999999999995l-14.599999999999909 22.600000000000023h-76.40000000000009z m302.9000000000001-22.700000000000045c-19.100000000000023 0-35.200000000000045-12.799999999999955-40.10000000000002-30.299999999999955h105.79999999999995l14.600000000000023-22.69999999999999h-120.5c4.899999999999977-17.5 21-30.400000000000034 40.10000000000002-30.400000000000034h72.69999999999993l14.600000000000023-22.69999999999999h-88.89999999999998c-35.5 0-64.39999999999998 28.80000000000001-64.39999999999998 64.40000000000003 0 35.60000000000002 28.799999999999955 64.39999999999998 64.39999999999998 64.39999999999998h76.39999999999998l14.600000000000023-22.700000000000045h-89.29999999999995z"/>
</svg>
