<svg xmlns="http://www.w3.org/2000/svg" viewBox="0 0 1000 1000" width="1000" height="1000">
<path d="M456.5 23.2c83.79999999999995 0 167.70000000000005 3.1000000000000014 251.39999999999998-0.8000000000000007 101.39999999999998-4.699999999999999 190.10000000000002 67.30000000000001 197.60000000000002 185.1 4.5 70.60000000000002 3.1000000000000227 141.60000000000002 1.5 212.39999999999998-1.2000000000000455 51.700000000000045-39.5 83.70000000000005-93.70000000000005 83.20000000000005-54.69999999999993-0.4000000000000341-89.59999999999991-32.400000000000034-91.5-85-2-55.80000000000001-3.599999999999909-111.70000000000005-4-167.50000000000003-0.09999999999990905-18.900000000000006-5.2999999999999545-25.299999999999983-25.59999999999991-24.900000000000006-155.5 2.4000000000000057-311.1 4.200000000000017-466.80000000000007 4.100000000000023-31.099999999999966 0-37.29999999999998 9.699999999999989-36.599999999999966 39.19999999999999 2.5 104.69999999999999 2.299999999999983 209.5 1.6999999999999886 314.20000000000005-0.09999999999999432 25.299999999999955 6.800000000000011 33.39999999999998 33.69999999999999 33.5 173.60000000000002 0.39999999999997726 347.09999999999997 3 520.7 4.599999999999909 60.09999999999991 0.6000000000000227 106.99999999999989 21.800000000000068 139.69999999999993 75.60000000000002 28.399999999999977 46.80000000000007 62.5 90.10000000000002 93.89999999999998 135 32.39999999999998 46.39999999999998 27.899999999999977 85.89999999999998-13.399999999999977 120.80000000000007-41.200000000000045 34.799999999999955-97.60000000000002 35.89999999999998-132.5-1.5-31.200000000000045-33.5-59.200000000000045-70.10000000000002-86.5-106.90000000000009-13.300000000000068-18-27.600000000000023-24.399999999999977-49.89999999999998-24.299999999999955-155.60000000000002 1-311.30000000000007 0.6000000000000227-466.90000000000003 0.39999999999997726-18.900000000000006 0-38-0.1999999999999318-56.80000000000001-2-101.6-9.600000000000023-166.1-74.19999999999993-168.5-175.5-3.5-141.59999999999997-5-283.29999999999995-3.3-424.9 1.2999999999999998-113.8 84.7-194.3 198.5-196.3 85.80000000000001-1.4999999999999893 171.60000000000002-0.29999999999999005 257.40000000000003-0.29999999999999005l-0.10000000000002274 1.8000000000000007z"/>
</svg>
