<svg xmlns="http://www.w3.org/2000/svg" viewBox="0 0 1000 1000" width="1000" height="1000">
<path d="M807.4 625.1c-2.7999999999999545-0.5-5.199999999999932-0.5-8 0.8999999999999773-7.100000000000023 3.2999999999999545-15.699999999999932 0.8999999999999773-24.199999999999932-0.5-8.5-1.3999999999999773-15.100000000000023-4.2000000000000455-21.300000000000068-10.399999999999977-6.199999999999932-6.2000000000000455-10.399999999999977-14.200000000000045-11.799999999999955-22.700000000000045-2.8999999999999773-15.699999999999932-8.100000000000023-30.799999999999955-17.600000000000023-43.60000000000002-9-12.799999999999955-21.299999999999955-22.699999999999932-35-30.299999999999955l-33.200000000000045-19.399999999999977 186.20000000000005-107.60000000000002-20.399999999999977-35.5-206.5 119.39999999999998-37.39999999999998-21.299999999999955v-43.200000000000045l206.5-119.29999999999995-20.40000000000009-35.5-186.0999999999999 107v-38.400000000000034c0-15.599999999999966-2.400000000000091-31.19999999999999-9-45.39999999999998-6.7000000000000455-14.199999999999989-17.600000000000023-26.600000000000023-29.40000000000009-37-6.599999999999909-5.700000000000017-11.399999999999977-13.200000000000017-13.699999999999932-21.80000000000001-2.3999999999999773-8.5-1.5-15.599999999999994 1.3999999999999773-23.69999999999999 2.7999999999999545-8 5.2000000000000455-16.5 11.799999999999955-20.80000000000001 2.400000000000091-1.4000000000000057 3.800000000000068-3.8000000000000114 4.800000000000068-6.199999999999989 0.8999999999999773-2.3000000000000114 0.8999999999999773-5.600000000000023 0-8.5l-36.5-133.10000000000002c-0.5-1.899999999999988-1.400000000000034-3.29999999999999-2.900000000000034-4.29999999999999-1.3999999999999773-0.8999999999999986-2.8000000000000114-1.3999999999999986-4.699999999999989-1.3999999999999986s-3.8000000000000114 0.5-5.199999999999989 1.3999999999999986c-1.400000000000034 1-2.400000000000034 2.400000000000002-3.3000000000000114 4.300000000000001l-36 133.10000000000002c-1 2.3999999999999773-1.3999999999999773 5.699999999999989-0.5 8.5 0.8999999999999773 2.3999999999999773 2.3999999999999773 4.799999999999983 4.699999999999989 6.199999999999989 6.699999999999989 4.300000000000011 9 12.800000000000011 11.900000000000034 20.80000000000001 2.7999999999999545 8.099999999999994 3.2999999999999545 15.199999999999989 1.3999999999999773 23.69999999999999-2.3999999999999773 8.599999999999994-7.100000000000023 16.099999999999994-13.699999999999989 21.80000000000001-11.900000000000034 10-22.80000000000001 22.30000000000001-29.400000000000034 37-6.599999999999966 14.599999999999966-9 29.80000000000001-9 45.39999999999998v38.400000000000034l-186.2-107.50000000000003-20.299999999999983 35.50000000000003 207.4 119.39999999999998v43.10000000000002l-37.400000000000034 21.299999999999955-206.49999999999997-119.39999999999998-20.400000000000006 35.60000000000002 186.2 107.5-33.19999999999999 19.399999999999977c-13.699999999999989 7.600000000000023-25.600000000000023 17.5-34.60000000000002 30.299999999999955-9 12.800000000000068-14.599999999999966 28.40000000000009-17.5 43.60000000000002-1.3999999999999773 8.5-5.699999999999989 16.600000000000023-11.799999999999983 22.700000000000045-6.199999999999989 6.199999999999932-12.799999999999983 9-21.299999999999983 10.5-8.600000000000023 1.3999999999999773-17.100000000000023 3.699999999999932-24.200000000000017 0.39999999999997726-2.4000000000000057-0.8999999999999773-5.199999999999989-1.3999999999999773-8-0.8999999999999773-2.9000000000000057 0.5-5.299999999999983 1.8999999999999773-7.199999999999989 4.199999999999932l-97.10000000000001 98.60000000000002c-0.8999999999999915 1.3999999999999773-1.8999999999999915 3.300000000000068-1.8999999999999915 4.7000000000000455 0 1.8999999999999773 0 3.2999999999999545 1 4.699999999999932 0.8999999999999915 1.5 2.3999999999999915 2.900000000000091 3.799999999999997 3.800000000000068 1.3999999999999915 1 3.299999999999997 1 5.200000000000003 0.5l133.6-35.5c2.8000000000000114-0.5 5.199999999999989-1.8999999999999773 7.099999999999994-3.800000000000068 1.9000000000000057-1.8999999999999773 2.8000000000000114-4.699999999999932 3.3000000000000114-7.099999999999909 0.5-8.100000000000023 6.599999999999994-14.200000000000045 12.299999999999983-20.90000000000009 5.699999999999989-6.599999999999909 11.400000000000034-10.899999999999977 19.900000000000034-12.699999999999932 8.5-2.3999999999999773 17.5-1.8999999999999773 25.599999999999966 0.8999999999999773 14.699999999999989 5.2000000000000455 30.80000000000001 8.100000000000023 46.400000000000034 6.600000000000023 15.599999999999966-1.3999999999999773 30.299999999999955-7.100000000000023 44.099999999999966-15.100000000000023l33.10000000000002-19.399999999999977v214.5h41.19999999999999v-238.20000000000005l37.39999999999998-21.799999999999955 37.5 21.299999999999955v238.70000000000005h41.200000000000045v-214.5l33.10000000000002 19.399999999999977c13.799999999999955 7.600000000000023 28 13.700000000000045 44.09999999999991 15.100000000000023 15.600000000000023 1.5 31.700000000000045-1.3999999999999773 46.40000000000009-6.600000000000023 8.099999999999909-2.7999999999999545 17.5-3.2999999999999545 25.59999999999991-0.8999999999999773 8.5 2.2999999999999545 13.700000000000045 6.100000000000023 19.40000000000009 12.699999999999932 5.699999999999932 6.7000000000000455 11.899999999999977 12.800000000000068 12.299999999999955 20.40000000000009 0 2.8999999999999773 1.3999999999999773 5.199999999999932 3.2999999999999545 7.099999999999909 1.900000000000091 1.900000000000091 4.300000000000068 3.800000000000068 7.100000000000023 4.300000000000068l133.60000000000002 35c1.8999999999999773 0.5 3.2999999999999545 0 5.2000000000000455-0.39999999999997726 1.5-1 2.8999999999999773-1.900000000000091 3.7999999999999545-3.400000000000091 1-1.3999999999999773 1.5-3.2999999999999545 1-5.199999999999932-0.5-1.8999999999999773-1-3.300000000000068-1.8999999999999773-4.7000000000000455l-97.10000000000002-98.10000000000002c-2.8999999999999773-1.8999999999999773-5.7000000000000455-3.2999999999999545-8.100000000000023-3.699999999999932z m-385.59999999999997-37.89999999999998l-60.10000000000002 34.5c-8.5 4.7999999999999545-19 6.199999999999932-28.399999999999977 3.7999999999999545-9.5-2.2999999999999545-18-9-22.80000000000001-17.5-4.699999999999989-8.5-6.100000000000023-18.899999999999977-3.8000000000000114-28.399999999999977 2.400000000000034-9.5 9-17.5 17.100000000000023-22.800000000000068l60.599999999999966-35 37.400000000000034 21.300000000000068v44.10000000000002z m115.59999999999997-66.80000000000007l-36.89999999999998 21.300000000000068-37.39999999999998-21.800000000000068v-43.099999999999966l37.39999999999998-21.80000000000001 36.89999999999998 21.30000000000001v44.099999999999966z m0-133.59999999999997l-37.39999999999998 21.30000000000001-37.39999999999998-21.80000000000001v-69.60000000000002c0-10 3.7999999999999545-19.399999999999977 10.899999999999977-26.5 7.100000000000023-7.099999999999966 16.600000000000023-10.899999999999977 26.5-10.899999999999977s19.399999999999977 3.8000000000000114 26.5 10.899999999999977c7.100000000000023 7.100000000000023 10.899999999999977 16.5 10.899999999999977 26.5v70.10000000000002z m152.10000000000002 221.7c-4.7999999999999545 8.5-13.299999999999955 14.700000000000045-22.799999999999955 17-9.400000000000091 2.3999999999999773-19.90000000000009 1.3999999999999773-27.90000000000009-3.7999999999999545l-60.59999999999991-35v-43.10000000000002l37.39999999999998-21.300000000000068 60.10000000000002 34.5c8.599999999999909 4.800000000000068 14.699999999999932 13.300000000000068 17.59999999999991 22.800000000000068 2.800000000000068 9.899999999999977 1.400000000000091 20.299999999999955-3.7999999999999545 28.899999999999977z m-189.5-603.5c-273.3 0-495 221.7-495 495 0 273.29999999999995 221.7 495 495 495 273.29999999999995 0 495-221.70000000000005 495-495 0-273.3-222.20000000000005-495-495-495z m415.9 717.6c2.3999999999999773 2.8999999999999773 3.300000000000068 5.699999999999932 3.800000000000068 8.600000000000023 0.5 2.7999999999999545-0.5 6.099999999999909-1.900000000000091 8.5-1.3999999999999773 2.3999999999999773-3.7999999999999545 4.699999999999932-6.599999999999909 5.699999999999932-2.900000000000091 1.3999999999999773-5.7000000000000455 1.3999999999999773-9 0.8999999999999773h-0.5l-58.30000000000007-15.099999999999909c-74.29999999999995 110.29999999999995-200.79999999999995 182.79999999999995-343.9 182.79999999999995-143 0-269-72.5-343.4-182.79999999999995l-58.300000000000026 15.599999999999909h-0.3999999999999915c-3.3000000000000114 0.5-6.200000000000003 0-9-1.3999999999999773-2.9000000000000057-1.5-5.200000000000003-3.2999999999999545-6.700000000000003-5.699999999999932-1.4000000000000057-2.400000000000091-1.9000000000000057-5.7000000000000455-1.9000000000000057-8.5 0.5-2.900000000000091 1.5-5.7000000000000455 3.4000000000000057-8.100000000000023l42.099999999999994-42.60000000000002c-25.099999999999994-55-39.8-116.10000000000002-39.8-180.5 0-218.8 169.6-397.9 384.2-413.5l16.100000000000023-59.7v-0.49999999999999645c0.8999999999999773-2.8000000000000007 2.8000000000000114-5.199999999999999 5.699999999999989-7.100000000000001 2.8000000000000114-1.8999999999999986 5.699999999999989-2.3999999999999986 8.5-2.3999999999999986 2.8000000000000114 0 5.699999999999989 1 8.100000000000023 2.3999999999999986 2.2999999999999545 1.9000000000000021 4.199999999999932 4.300000000000001 5.600000000000023 7.100000000000001l16.59999999999991 59.7c214.60000000000002 16.099999999999994 384.20000000000005 195.2 384.20000000000005 414 0 64.39999999999998-14.700000000000045 125.5-41.200000000000045 180l42.60000000000002 42.60000000000002z"/>
</svg>
