<svg xmlns="http://www.w3.org/2000/svg" viewBox="0 0 1000 1000" width="1000" height="1000">
<path d="M807 138.9l-259.70000000000005 612.9-71.59999999999997-157.19999999999993 132.3-360.20000000000005c10-27.899999999999977 44.799999999999955-40.79999999999998 103.5-40.79999999999998l20.899999999999977-54.69999999999999h-308.5l-19.899999999999977 54.69999999999999c43.80000000000001 0 61.69999999999999 12.900000000000006 54.69999999999999 40.80000000000001l-65.69999999999999 183.1-129.3-278.6c-23.899999999999977-29.799999999999983-11.899999999999977-44.79999999999998 34.80000000000001-44.79999999999998v-64.69999999999999h-298.5v64.69999999999999c55.7 0 90.5 14.900000000000006 105.5 44.80000000000001l218.89999999999998 465.70000000000005-102.49999999999997 273.6c-2 36.799999999999955-59.70000000000002 54.69999999999993-171.10000000000002 54.69999999999993l-20.899999999999984 54.700000000000045h851.7l118.39999999999998-251.70000000000005h-61.700000000000045c-57.69999999999993 130.30000000000007-124.39999999999998 197-199 197h-390.99999999999994l57.69999999999999-154.19999999999993 49.80000000000001 99.5h111.40000000000003l314.4-739.3000000000001c14.899999999999977-44.79999999999998 53.69999999999993-68.69999999999997 114.39999999999998-68.69999999999997v-57.7h-256.70000000000005v57.7c77.60000000000002 0 99.5 23.89999999999999 67.70000000000005 68.7z"/>
</svg>
