<svg xmlns="http://www.w3.org/2000/svg" viewBox="0 0 1000 1000" width="1000" height="1000">
<path d="M830.1 651.8c-0.39999999999997726 0.20000000000004547-0.8999999999999773 0.40000000000009095-1.3000000000000682 0.7000000000000455-30.299999999999955 17.899999999999977-62.19999999999993 32.299999999999955-95 44.89999999999998-46.69999999999993 18-94.59999999999991 32.10000000000002-143.39999999999998 43.10000000000002-42.5 9.5-85.39999999999998 16.399999999999977-128.79999999999995 19.799999999999955-21.700000000000045 1.7000000000000455-43.400000000000034 3-65.20000000000005 3.400000000000091-23.899999999999977 0.5-47.69999999999999 0.1999999999999318-71.59999999999997-1.2000000000000455-23.400000000000034-1.3999999999999773-46.69999999999999-3.7999999999999545-69.80000000000001-7.600000000000023-25.900000000000006-4.2999999999999545-51.400000000000006-10.299999999999955-76.19999999999999-19.199999999999932-29.600000000000023-10.600000000000023-57.20000000000002-24.800000000000068-81.00000000000001-45.60000000000002-20.299999999999997-17.700000000000045-35.9-39-45.8-64.10000000000002-10.799999999999997-27.5-14.200000000000003-56.10000000000002-11.799999999999997-85.39999999999998 1.8999999999999986-23.5 7.5-46.200000000000045 15.899999999999999-68.10000000000002 12.100000000000001-31.30000000000001 29.199999999999996-59.69999999999999 51.49999999999999-84.80000000000001 0.8000000000000114-0.8999999999999773 1.6000000000000085-1.599999999999966 1.6000000000000085-3v-25.599999999999966c-1 0.7999999999999545-1.6000000000000085 1.2999999999999545-2.1000000000000085 1.7999999999999545-13.299999999999997 11.900000000000034-26 24.5-37.599999999999994 38.10000000000002-21.299999999999997 24.80000000000001-39 51.80000000000001-51.4 82.10000000000002-10.200000000000001 24.599999999999966-16.400000000000002 50.10000000000002-17.700000000000003 76.60000000000002-0.8999999999999986 17.299999999999955-0.49999999999999856 34.69999999999993 2.2000000000000015 51.89999999999998 3.3000000000000003 20.600000000000023 8.200000000000001 40.60000000000002 16.9 59.69999999999993 16.1 35.200000000000045 40.9 63 71.9 85.70000000000005 27.799999999999997 20.299999999999955 58.599999999999994 34.89999999999998 91.1 46 41.80000000000001 14.299999999999955 84.89999999999998 22.200000000000045 128.7 26.399999999999977 21.400000000000034 2.1000000000000227 42.900000000000034 3.1000000000000227 64.40000000000003 3.3999999999999773 25.899999999999977 0.40000000000009095 51.69999999999999-0.5 77.5-2.199999999999932 17.599999999999966-1.2000000000000455 35.099999999999966-2.7000000000000455 52.5-4.800000000000068 22-2.599999999999909 43.89999999999998-6 65.69999999999993-10 44.40000000000009-8.299999999999955 88.20000000000005-19.09999999999991 131.30000000000007-32.89999999999998 43.299999999999955-13.899999999999977 85.5-30.5 125.60000000000002-52.10000000000002 1.599999999999909-0.8999999999999773 2.199999999999932-1.6999999999999318 2.199999999999932-3.599999999999909l-0.10000000000002274-71.10000000000002c0.20000000000004547-0.7000000000000455 0.40000000000009095-1.5-0.1999999999999318-2.300000000000068z m169.10000000000002-269.4c-0.7000000000000455-8.5-1.900000000000091-17.099999999999966-3.6000000000000227-25.399999999999977-4.5-22.399999999999977-13.100000000000023-43.10000000000002-25.5-62.30000000000001-8.5-13.099999999999966-18.5-25-29.899999999999977-35.69999999999999-6.7000000000000455-6.300000000000011-13.700000000000045-12.199999999999989-21-17.80000000000001-12-9-24.800000000000068-16.799999999999983-38.200000000000045-23.69999999999999-14.899999999999977-7.800000000000011-30.399999999999977-14.300000000000011-46.299999999999955-19.80000000000001-21.100000000000023-7.299999999999983-42.700000000000045-13-64.70000000000005-17.19999999999999-13.200000000000045-2.5-26.399999999999977-4.699999999999989-39.700000000000045-6.400000000000006-10.399999999999977-1.299999999999983-20.899999999999977-2.1999999999999886-31.399999999999977-3-9.399999999999977-0.6999999999999886-18.899999999999977-1.1999999999999886-28.299999999999955-1.5-26.600000000000023-0.5999999999999943-53.200000000000045-0.19999999999998863-79.80000000000007 1.8000000000000114-19.399999999999977 1.5-38.69999999999993 3.5-57.89999999999998 6.199999999999989-24.19999999999999 3.4000000000000057-48.19999999999999 7.900000000000006-71.89999999999998 13.400000000000006-58.60000000000002 13.5-115.39999999999998 32.5-170 58-24.30000000000001 11.300000000000011-47.900000000000006 23.80000000000001-70.80000000000001 37.69999999999999-0.8999999999999773 0.5-2.0999999999999943 0.8000000000000114-2 2.1999999999999886v18.200000000000045c1.1000000000000227-0.5 1.9000000000000057-0.9000000000000341 2.700000000000017-1.3000000000000114 12.799999999999983-6.5 25.69999999999999-12.699999999999989 38.70000000000002-18.600000000000023 57.099999999999966-25.599999999999966 116.19999999999999-45.29999999999998 177.09999999999997-59.39999999999998 37.10000000000002-8.600000000000023 74.60000000000002-15 112.50000000000006-19.200000000000017 21.59999999999991-2.299999999999983 43.19999999999993-3.9000000000000057 64.89999999999998-4.400000000000006 30.399999999999977-0.799999999999983 60.69999999999993 0 91 3.200000000000017 20.600000000000023 2.1999999999999886 41.10000000000002 5.400000000000006 61.39999999999998 10.099999999999994 31.600000000000023 7.300000000000011 62.10000000000002 17.80000000000001 90.39999999999998 34 22.300000000000068 12.699999999999989 42.30000000000007 28.399999999999977 58 48.80000000000001 28.100000000000023 36.39999999999998 39.10000000000002 77.5 32 123.09999999999997-4 25.600000000000023-14.299999999999955 48.900000000000034-28.899999999999977 70.10000000000002-17.5 25.399999999999977-39.799999999999955 45.700000000000045-66 61.799999999999955-1.7000000000000455 1-2.2000000000000455 2.1000000000000227-2.2000000000000455 4 0.10000000000002274 16.40000000000009 0 32.90000000000009 0 49.30000000000007v3c3.400000000000091-1.3999999999999773 6.600000000000023-2.6000000000000227 9.600000000000023-3.8999999999999773 38.5-16.90000000000009 70.10000000000002-42.40000000000009 95.20000000000005-75.90000000000009 33.19999999999993-43.99999999999994 49.39999999999998-93.59999999999997 44.60000000000002-149.39999999999998z m-266.9000000000001 114.10000000000002c-1.1999999999999318-16-4.7999999999999545-31.399999999999977-12-45.89999999999998-9.399999999999977-18.600000000000023-23.299999999999955-32.60000000000002-43.09999999999991-40-17.100000000000023-6.5-34.80000000000007-6.900000000000034-52.5-3.1000000000000227-29.300000000000068 6.199999999999989-50.30000000000007 23.100000000000023-62.90000000000009 50.30000000000001-7.399999999999977 16.099999999999966-10.299999999999955 33.19999999999999-10.399999999999977 50.80000000000001-0.10000000000002274 16.100000000000023 1.5 32 6.7000000000000455 47.299999999999955 7.600000000000023 22.5 21.399999999999977 39.80000000000007 43.19999999999993 50.10000000000002 23.100000000000023 10.899999999999977 47.5 11.799999999999955 72.20000000000005 7.399999999999977 20.600000000000023-3.6000000000000227 37.5-14.199999999999932 52.200000000000045-28.699999999999932 1.1999999999999318-1.2000000000000455 0.8999999999999773-1.7000000000000455-0.10000000000002274-2.7000000000000455-9.399999999999977-9-18.800000000000068-18-28.100000000000023-27.100000000000023-1.7000000000000455-1.6000000000000227-2.5-1.7999999999999545-4.2999999999999545 0-15.400000000000091 15.800000000000068-34.60000000000002 19.800000000000068-55.40000000000009 16.5-21.199999999999932-3.3999999999999773-34.69999999999993-20.199999999999932-35.299999999999955-42.299999999999955-0.10000000000002274-2.1000000000000227 0.5-2.6000000000000227 2.6000000000000227-2.6000000000000227 20.899999999999977 0.10000000000002274 41.69999999999993 0 62.60000000000002 0h62.799999999999955c1.8999999999999773 0 2.3999999999999773-0.5 2.2999999999999545-2.2999999999999545-0.1999999999999318-9.100000000000023 0.20000000000004547-18.400000000000034-0.5-27.700000000000045z m-53.09999999999991-4.899999999999977c-12.300000000000068-0.10000000000002274-24.700000000000045-0.10000000000002274-37-0.10000000000002274s-24.700000000000045-0.10000000000002274-37 0.10000000000002274c-2.300000000000068 0-2.800000000000068-0.7000000000000455-2.6000000000000227-2.8000000000000114 1.1000000000000227-11.100000000000023 3.8999999999999773-21.5 12.199999999999932-29.600000000000023 11.5-11.300000000000011 31.90000000000009-14.699999999999989 46.10000000000002-7.599999999999966 10 5 15.200000000000045 13.599999999999966 18.300000000000068 23.899999999999977 1.2999999999999545 4.399999999999977 1.8999999999999773 8.899999999999977 2.5 13.5 0.1999999999999318 1.8999999999999773-0.3000000000000682 2.6000000000000227-2.5 2.6000000000000227z m-432.80000000000007 121.10000000000002c15.100000000000023-0.10000000000002274 30.200000000000045-0.10000000000002274 45.30000000000001 0 2.5 0 2.900000000000034-0.7000000000000455 2.900000000000034-3.1000000000000227l-0.10000000000002274-156.40000000000003c0-2.099999999999966 0.39999999999997726-2.8000000000000114 2.6999999999999886-2.8000000000000114 13 0.10000000000002274 26 0.10000000000002274 39.10000000000002 0.10000000000002274 2.5 0 5 0.10000000000002274 7.5 0.6000000000000227 7.699999999999989 1.2999999999999545 12.5 5.899999999999977 14.199999999999989 13.599999999999966 0.6000000000000227 2.6000000000000227 0.5 5.100000000000023 0.5 7.699999999999989v137.39999999999998c0 2.400000000000091 0.6999999999999886 3 3.1000000000000227 3 15.299999999999955-0.09999999999990905 30.5-0.09999999999990905 45.799999999999955 0 2.3000000000000114 0 2.7000000000000455-0.6999999999999318 2.7000000000000455-2.7999999999999545-0.10000000000002274-46.5-0.10000000000002274-93.10000000000002 0-139.7 0-5.400000000000034-0.5-10.800000000000011-1.6000000000000227-16.100000000000023-2.8999999999999773-13.699999999999989-9-25.399999999999977-20.399999999999977-34-10.5-7.899999999999977-22.700000000000045-11.199999999999989-35.60000000000002-11.199999999999989-35.19999999999999-0.10000000000002274-70.39999999999998-0.10000000000002274-105.6-0.10000000000002274-3.4000000000000057 0-3.4000000000000057 0-3.4000000000000057 3.3000000000000114v98.60000000000002c0 32.99999999999994 0 65.90000000000003-0.09999999999999432 98.90000000000003-0.20000000000001705 2.5 0.5 3 3 3z m250-259.70000000000005c-15 0.10000000000002274-30 0.10000000000002274-45.099999999999966 0-2.400000000000034 0-3.1000000000000227 0.5-3.1000000000000227 3 0.10000000000002274 33.69999999999999 0.10000000000002274 67.39999999999998 0.10000000000002274 101.10000000000002 0 33-0.10000000000002274 65.89999999999998 0 98.89999999999998 0 12 3.3000000000000114 23.299999999999955 10.199999999999989 33.200000000000045 11.100000000000023 16 27.19999999999999 22.399999999999977 46 23.09999999999991 10.5 0.40000000000009095 21 0 31.5 0.10000000000002274 2 0 2.2999999999999545-0.6000000000000227 2.2999999999999545-2.3999999999999773-0.09999999999990905-12.700000000000045-0.09999999999990905-25.399999999999977 0-38 0-2.1000000000000227-0.5-2.7000000000000455-2.599999999999909-2.7000000000000455-6.900000000000091 0.10000000000002274-13.800000000000068 0.10000000000002274-20.800000000000068 0-8.099999999999966-0.1999999999999318-13.299999999999955-4.599999999999909-14.899999999999977-12.199999999999932-0.39999999999997726-2-0.6000000000000227-4-0.6000000000000227-6 0-32.700000000000045 0-65.40000000000003-0.0999999999999659-98.10000000000002 0-2.1000000000000227 0.6999999999999886-2.3999999999999773 2.599999999999966-2.3999999999999773l34 0.0999999999999659c1.8000000000000682 0 2.3999999999999773-0.39999999999997726 2.3999999999999773-2.3000000000000114-0.09999999999990905-12.299999999999955-0.09999999999990905-24.69999999999999 0-37 0-1.8999999999999773-0.599999999999909-2.3999999999999773-2.3999999999999773-2.3999999999999773l-33.799999999999955 0.10000000000002274c-2.2000000000000455 0-2.8000000000000114-0.5-2.8000000000000114-2.8000000000000114l0.0999999999999659-50.10000000000002c0.20000000000004547-2.8000000000000114-0.5999999999999659-3.3000000000000114-3-3.1999999999999886z m286.1 246.60000000000002c9 6.5 19.299999999999955 9.199999999999932 30 10.600000000000023 2.6000000000000227 0.39999999999997726 2.2000000000000455-1.1000000000000227 2.2000000000000455-2.7000000000000455v-280.2c0-3.3000000000000114 0-3.3000000000000114-3.2000000000000455-3.3000000000000114h-45.60000000000002c-3.199999999999932 0-3.199999999999932 0-3.199999999999932 3.3000000000000114v226.7c0 4.600000000000023 0.1999999999999318 9.200000000000045 1 13.700000000000045 2.2999999999999545 13 7.899999999999977 24.09999999999991 18.799999999999955 31.899999999999977z m-587.7-190.8c-15.299999999999955 0.0999999999999659-30.499999999999943 0.0999999999999659-45.799999999999955 0.0999999999999659-3.1999999999999886 0-3.1999999999999886 0-3.1999999999999886 3.3000000000000114v146.8c0 3.8999999999999773 0.09999999999999432 7.7999999999999545 0.5999999999999943 11.700000000000045 2.299999999999983 15.899999999999977 9.599999999999994 28.5 23.900000000000006 36.39999999999998 7.599999999999994 4.199999999999932 15.899999999999977 6.199999999999932 24.5 7.399999999999977 2.1999999999999886 0.2999999999999545 2.799999999999983 0 2.799999999999983-2.2999999999999545-0.09999999999999432-33.5 0-66.90000000000009 0-100.40000000000003v-100.10000000000002c0-2.1999999999999886-0.4000000000000057-3-2.799999999999983-2.8999999999999773z m-46.89999999999995-28.30000000000001c7.900000000000006-0.10000000000002274 15.900000000000006 0 23.799999999999983 0h23.80000000000001c1.5999999999999943 0 2.0999999999999943-0.39999999999997726 2.0999999999999943-2.1000000000000227-0.09999999999999432-15-0.09999999999999432-30 0-45.099999999999966 0-1.8000000000000114-0.5-2.1999999999999886-2.1999999999999886-2.1999999999999886-15.800000000000011 0.0999999999999659-31.5 0.0999999999999659-47.30000000000001 0-1.6999999999999886 0-2.299999999999983 0.5-2.299999999999983 2.1999999999999886 0.09999999999999432 15 0.09999999999999432 30 0 45.099999999999966 0 1.7000000000000455 0.5999999999999943 2.1000000000000227 2.0999999999999943 2.1000000000000227z"/>
</svg>
