<svg xmlns="http://www.w3.org/2000/svg" viewBox="0 0 1000 1000" width="1000" height="1000">
<path d="M999.9 273.3c-3.699999999999932-0.10000000000002274-7.399999999999977-0.30000000000001137-11.100000000000023-0.30000000000001137h-988.8v4.199999999999989c6.1 11.900000000000034 7 25.5 9.8 38.400000000000034 28.499999999999996 133.5 56.7 266.9 84.7 400.4 1.5 7.2999999999999545 2.799999999999997 8.600000000000023 9.900000000000006 5.100000000000023 128.9-64.39999999999998 258.20000000000005-57.10000000000002 387.6-1.3999999999999773 6.899999999999977 3 12.100000000000023 3.099999999999909 18.80000000000001 0.1999999999999318 63.19999999999999-27.5 128.99999999999994-43.19999999999993 198.09999999999997-42.799999999999955 66.80000000000007 0.39999999999997726 130.5 13.899999999999977 188.30000000000007 49.39999999999998 0.7999999999999545 0.5 1.8999999999999773 0.5 3.5 0.7999999999999545 9.099999999999909-41.5 18-82.89999999999998 27.09999999999991-124.29999999999995l72.10000000000002-327.7c0.20000000000004547-0.6000000000000227 0-1.400000000000034 0-2z m-736.5 273.2c-5.7999999999999545 6.2000000000000455-18.49999999999997 1.7999999999999545-28.099999999999966 1.7999999999999545-34 0.20000000000004547-68.10000000000002-0.09999999999990905-102.10000000000002 0.3000000000000682-7.3999999999999915 0.10000000000002274-9.899999999999991-1.5-9.699999999999989-9.300000000000068 0.5999999999999943-21.899999999999977 0.20000000000000284-43.799999999999955 0.20000000000000284-65.69999999999993 0-21.900000000000034 0.29999999999999716-43.80000000000001-0.20000000000000284-65.70000000000005-0.09999999999999432-6.899999999999977 2.0999999999999943-8.599999999999966 8.599999999999994-8.399999999999977 13.5 0.39999999999997726 27 0.5 40.400000000000006 0 6.599999999999994-0.19999999999998863 7.800000000000011 2.1999999999999886 7.699999999999989 8.199999999999989-0.29999999999998295 31.400000000000034 0.10000000000002274 62.69999999999999-0.29999999999998295 94.10000000000002-0.09999999999999432 7.099999999999966 1.6999999999999886 9 8.799999999999983 8.899999999999977 22.600000000000023-0.5 45.20000000000002 0 67.69999999999999-0.30000000000001137 6.100000000000023-0.0999999999999659 9.400000000000034 0.8000000000000114 8.700000000000045 8-1 9.399999999999977 4 22-1.7000000000000455 28.100000000000023z m174.10000000000002-71c-0.19999999999998863 6.600000000000023-2.8000000000000114 7.800000000000011-8.5 7.699999999999989-10.899999999999977-0.19999999999998863-21.80000000000001-0.19999999999998863-32.69999999999999-0.0999999999999659h-12.800000000000011c-15.5 0-31 0.19999999999998863-46.5-0.10000000000002274-5.800000000000011-0.10000000000002274-7.699999999999989 1.5-7 7.399999999999977 1.6000000000000227 12.400000000000034 9.899999999999977 22.800000000000068 21.19999999999999 25.600000000000023 15.900000000000034 3.7999999999999545 31-0.7000000000000455 37.80000000000001-11.899999999999977 2-3.400000000000034 3.8999999999999773-4.800000000000011 7.800000000000011-4.7000000000000455 11.5 0.20000000000004547 22.899999999999977 0.4000000000000341 34.39999999999998 0 6.199999999999989-0.19999999999998863 6.400000000000034 1.900000000000034 5 7.100000000000023-5.300000000000011 19.799999999999955-17.399999999999977 33.39999999999998-36.599999999999966 39.89999999999998-27.600000000000023 9.300000000000068-55.80000000000001 9.800000000000068-83.40000000000003 0.6000000000000227-34.599999999999966-11.5-52.89999999999998-43.80000000000001-48.099999999999966-82.69999999999999 5.199999999999989-42.19999999999999 31.299999999999955-66.5 74.5-69.40000000000003 13.199999999999989-0.8999999999999773 26.19999999999999-0.0999999999999659 39.099999999999966 3.5 35.30000000000001 10 57.10000000000002 40.30000000000001 55.80000000000001 77.10000000000002z m171.10000000000002-67.80000000000001c-21 44.400000000000034-42.30000000000007 88.60000000000002-63.10000000000002 133.09999999999997-2.8999999999999773 6.2000000000000455-6.2000000000000455 8.400000000000091-12.799999999999955 7.900000000000091-12.400000000000091-1-27.300000000000068 4.5-36.50000000000006-2.1000000000000227-8.699999999999989-6.2000000000000455-11.599999999999966-20.600000000000023-17-31.399999999999977-18.899999999999977-38.30000000000007-37.69999999999999-76.50000000000006-57.39999999999998-116.80000000000007 21.30000000000001 0 40.80000000000001 0.20000000000004547 60.30000000000001-0.0999999999999659 5.699999999999989-0.10000000000002274 6.2999999999999545 4.199999999999989 7.899999999999977 7.599999999999966 11.899999999999977 25.900000000000034 23.700000000000045 51.80000000000001 36.39999999999998 79.5 2.5-4.7999999999999545 4.300000000000068-8.099999999999966 5.899999999999977-11.5 10.300000000000068-22.599999999999966 20.800000000000068-45.19999999999999 30.800000000000068-68 2.6000000000000227-5.899999999999977 5.7999999999999545-7.899999999999977 12.199999999999932-7.699999999999989 12 0.5 24.100000000000023 0.10000000000002274 35.90000000000009 0.10000000000002274 1 4.399999999999977-1.3000000000000682 6.800000000000011-2.6000000000000227 9.399999999999977z m69.5 133.7c0 5.300000000000068-1.6000000000000227 7-6.899999999999977 6.899999999999977-14.100000000000023-0.2999999999999545-28.300000000000068-0.39999999999997726-42.5 0-6 0.20000000000004547-7.300000000000068-2-7.2000000000000455-7.5 0.2999999999999545-22.59999999999991 0.10000000000002274-45.099999999999966 0.10000000000002274-67.69999999999993s0.1999999999999318-45.200000000000045-0.10000000000002274-67.70000000000005c-0.10000000000002274-5.599999999999966 1.3999999999999773-7.599999999999966 7.2000000000000455-7.399999999999977 14.199999999999932 0.39999999999997726 28.299999999999955 0.30000000000001137 42.5 0 5.199999999999932-0.10000000000002274 6.899999999999977 1.6000000000000227 6.899999999999977 6.899999999999977-0.20000000000004547 45.5-0.20000000000004547 91 0 136.5z m51.299999999999955-135.39999999999998c-0.2999999999999545 9.199999999999989-17.5 26.80000000000001-26.899999999999977 26.899999999999977 1.3999999999999773-4.199999999999989 2.6000000000000227-7.699999999999989 3.7999999999999545-11.199999999999989 4.100000000000023-12 4.100000000000023-12.099999999999966-8.299999999999955-13.800000000000011-3.1000000000000227-0.39999999999997726-5.2000000000000455-1.1999999999999886-5-4.7999999999999545v-3c0.7999999999999545-8.5-4-21.5 2.1000000000000227-24.600000000000023 8.299999999999955-4.300000000000011 20.299999999999955-1.3999999999999773 30.699999999999932-1.6000000000000227 4.400000000000091-0.0999999999999659 3.5 3.2000000000000455 3.5 5.7000000000000455 0.20000000000004547 8.899999999999977 0.5 17.69999999999999 0.10000000000002274 26.399999999999977z m133.20000000000005 131.70000000000005c-17.700000000000045 11.5-37.80000000000007 13.399999999999977-58.30000000000007 13.599999999999909-14.599999999999909 0.20000000000004547-29-1-42.69999999999993-6.7999999999999545-16.399999999999977-7-26.899999999999977-18.700000000000045-29-37-0.6000000000000227-5.100000000000023 0.6000000000000227-7.399999999999977 6.2999999999999545-7.199999999999989 11.5 0.39999999999997726 22.899999999999977 0.30000000000001137 34.39999999999998 0 4-0.10000000000002274 5.300000000000068 1.1999999999999886 6.7000000000000455 5.199999999999989 4.7000000000000455 13.700000000000045 26.600000000000023 19.799999999999955 38.39999999999998 11.200000000000045 3.300000000000068-2.400000000000091 4.899999999999977-5.600000000000023 4.399999999999977-9.600000000000023-0.599999999999909-4.2000000000000455-3.7999999999999545-6.100000000000023-7.5-7.400000000000034-11.199999999999932-4.099999999999966-23-4.899999999999977-34.5-7.5-7.2999999999999545-1.599999999999966-14.399999999999977-3.3999999999999773-21.199999999999932-6.5-31.800000000000068-14.300000000000011-35.700000000000045-55.099999999999966-7.300000000000068-75.59999999999997 26-18.80000000000001 78.30000000000007-20.400000000000034 105.20000000000005-3.3000000000000114 9.700000000000045 6.199999999999989 16.700000000000045 14.300000000000011 19.700000000000045 25.80000000000001 1.599999999999909 6.099999999999966 0.8999999999999773 8.899999999999977-6.2000000000000455 8.299999999999955-6.399999999999977-0.5-12.799999999999955-0.0999999999999659-19.200000000000045-0.0999999999999659-8.099999999999909-0.10000000000002274-15.599999999999909 1.3000000000000114-21.5-8.100000000000023-5.099999999999909-8-27.699999999999932-8.5-36.09999999999991-3-2.6000000000000227 1.6999999999999886-4.900000000000091 3.6999999999999886-4.7000000000000455 7.300000000000011 0.20000000000004547 4.399999999999977 3.2000000000000455 6.5 6.7000000000000455 8 8.799999999999955 3.6999999999999886 18.299999999999955 4.5 27.5 6.199999999999989 10.599999999999909 1.900000000000034 21.199999999999932 3.6999999999999886 31.299999999999955 7.800000000000011 15.299999999999955 6.100000000000023 25.600000000000023 16.19999999999999 27.5 33.10000000000002 2.3999999999999773 19.099999999999966-3.3999999999999773 34.89999999999998-19.899999999999977 45.60000000000002z m-503.3-110.10000000000002c-0.5-0.20000000000004547-1.1000000000000227-0.30000000000001137-1.6999999999999886-0.4000000000000341-11.900000000000034-2.1999999999999886-20.30000000000001 3.3000000000000114-24.200000000000045 15.800000000000011-0.5999999999999659 1.8999999999999773-1.099999999999966 3.6000000000000227-1.3999999999999773 5-0.10000000000002274 0.39999999999997726-0.19999999999998863 0.6999999999999886-0.19999999999998863 1l-0.19999999999998863 1c-0.10000000000002274 0.30000000000001137-0.10000000000002274 0.6000000000000227-0.10000000000002274 0.8999999999999773-0.10000000000002274 0.5-0.10000000000002274 1.1000000000000227 0 1.5 0.39999999999997726 3.400000000000034 3.6000000000000227 4.100000000000023 11.399999999999977 4.100000000000023l10.100000000000023 0.39999999999997726h16.100000000000023c2.8999999999999773 0 5-0.5999999999999659 5.199999999999989-4.599999999999966v-2.3000000000000114c-0.4000000000000341-9.699999999999989-6.800000000000011-19.80000000000001-15-22.399999999999977z"/>
</svg>
