<svg xmlns="http://www.w3.org/2000/svg" viewBox="0 0 1000 1000" width="1000" height="1000">
<path d="M0 761.4h522.8v-65.89999999999998h-32.99999999999994v32.89999999999998h-456.8v-456.79999999999995h456.8v268.19999999999993h32.99999999999994v-301.19999999999993h-522.8z m114.9-205.5h33v123.39999999999998h-33z m117.19999999999999 57.10000000000002l-33.29999999999998-57.10000000000002h-34.60000000000002v123.39999999999998h31.30000000000001v-64.09999999999991h0.5l37.80000000000001 64.09999999999991h30.30000000000001v-123.39999999999998h-31.50000000000003v57.10000000000002z m48.50000000000003-57.10000000000002v123.39999999999998h41.39999999999998c39.10000000000002 0 57.60000000000002-9.799999999999955 57.60000000000002-61.799999999999955 0-51-18.80000000000001-61.60000000000002-58.10000000000002-61.60000000000002h-40.89999999999998z m65.59999999999997 61.80000000000007c0 31.09999999999991-8.800000000000011 33.09999999999991-21.099999999999966 33.09999999999991h-11.5v-64.89999999999998h10.199999999999989c13.899999999999977 0 22.399999999999977 0.8000000000000682 22.399999999999977 31.800000000000068z m45.19999999999999-61.80000000000007h33v123.39999999999998h-33z m305.4-1.5c-46 0-54.09999999999991 30.100000000000023-54.09999999999991 63.30000000000007 0 33 8.199999999999932 63.09999999999991 54.09999999999991 63.09999999999991 45.80000000000007 0 54-30.09999999999991 54-63.09999999999991 0-33.200000000000045-8-63.30000000000007-54-63.30000000000007z m0 97.30000000000007c-18.09999999999991 0-20.59999999999991-12.5-20.59999999999991-32.80000000000007 0-20.100000000000023 2.5-32.60000000000002 20.59999999999991-32.60000000000002 18 0 20.5 12.5 20.5 32.60000000000002 0 20.300000000000068-2.5 32.80000000000007-20.5 32.80000000000007z m231.10000000000002-97.30000000000007c-46 0-54.10000000000002 30.100000000000023-54.10000000000002 63.30000000000007 0 33 8.200000000000045 63.09999999999991 54.10000000000002 63.09999999999991 45.80000000000007 0 53.89999999999998-30.09999999999991 53.89999999999998-63.09999999999991 0-33.200000000000045-7.899999999999977-63.30000000000007-53.89999999999998-63.30000000000007z m0 97.30000000000007c-18.199999999999932 0-20.699999999999932-12.5-20.699999999999932-32.80000000000007 0-20.100000000000023 2.5-32.60000000000002 20.699999999999932-32.60000000000002 18 0 20.5 12.5 20.5 32.60000000000002 0 20.300000000000068-2.5 32.80000000000007-20.5 32.80000000000007z m64.60000000000002 8.099999999999909c-6 0-7.5 4.100000000000023-7.5 9.400000000000091 0 5.2999999999999545 1.5 9.299999999999955 7.5 9.299999999999955s7.5-4 7.5-9.299999999999955c0-5.400000000000091-1.5-9.400000000000091-7.5-9.400000000000091z m0 17.40000000000009c-4.899999999999977 0-6.100000000000023-3.5-6.100000000000023-8 0-4.600000000000023 1.1000000000000227-8 6.100000000000023-8 4.899999999999977 0 6.100000000000023 3.5 6.100000000000023 8s-1.2000000000000455 8-6.100000000000023 8z m4.100000000000023-10.200000000000045c0-2.2000000000000455-0.7000000000000455-3.5-3.6000000000000227-3.5h-4.2999999999999545v11.200000000000045h2.2999999999999545v-3.900000000000091h1.5l1.7000000000000455 3.900000000000091h2.2999999999999545l-1.8999999999999773-4.2000000000000455c1.6000000000000227-0.5 2-1.7000000000000455 2-3.5z m-3.7000000000000455 1.8999999999999773h-1.8999999999999773v-3.3999999999999773h1.8999999999999773c1.1000000000000227 0 1.5 0.5 1.5 1.7000000000000455s-0.39999999999997726 1.6999999999999318-1.5 1.6999999999999318z m-413.4-37.19999999999993h21.299999999999955v2.199999999999932c0 13.600000000000023 0.40000000000009095 19.600000000000023-15.799999999999955 19.600000000000023-15.200000000000045 0-20.299999999999955-7-20.299999999999955-34.799999999999955 0-29 8.699999999999932-32.5 21.59999999999991-32.5 9.700000000000045 0 16.5 2.5 22.100000000000023 5.699999999999932l17.600000000000023-27.5c-9.299999999999955-6-23-10-38.299999999999955-10-42.60000000000002 0-56.30000000000007 20.5-56.30000000000007 63.30000000000007 0 37.299999999999955 10 63.09999999999991 50.5 63.09999999999991 7.2000000000000455 0 13.300000000000068-0.5 18.600000000000023-1.5h30.299999999999955v-74.39999999999998h-47.799999999999955l-3.5 26.800000000000068z m231.10000000000002 0h21.299999999999955v2.199999999999932c0 13.600000000000023 0.39999999999997726 19.600000000000023-15.799999999999955 19.600000000000023-15.200000000000045 0-20.300000000000068-7-20.300000000000068-34.799999999999955 0-29 8.700000000000045-32.5 21.600000000000023-32.5 9.700000000000045 0 16.5 2.5 22.100000000000023 5.699999999999932l17.700000000000045-27.5c-9.300000000000068-6-23-10-38.30000000000007-10-42.60000000000002 0-56.299999999999955 20.5-56.299999999999955 63.30000000000007 0 37.299999999999955 10 63.09999999999991 50.5 63.09999999999991 7.199999999999932 0 13.299999999999955-0.5 18.600000000000023-1.5h30.299999999999955v-74.39999999999998h-47.799999999999955l-3.6000000000000227 26.800000000000068z m-287.80000000000007-45.700000000000045v-30.100000000000023h-81.89999999999998v123.39999999999998h81.89999999999998v-29.299999999999955h-49.599999999999966v-18.5h32.60000000000002l3.8999999999999773-29.299999999999955h-36.5v-16.200000000000045z"/>
</svg>
