<svg xmlns="http://www.w3.org/2000/svg" viewBox="0 0 1000 1000" width="1000" height="1000">
<path d="M23.9 432.1h-23.9v146.19999999999993h133v-21.299999999999955h-109l-0.10000000000000142-124.89999999999998z m71.80000000000001 53.19999999999999h18.59999999999998l26.60000000000001-50.5h-25.30000000000001l-19.89999999999999 50.5z m199.99999999999997-61.900000000000034c-14.800000000000011-7.7999999999999545-31.899999999999977-11.899999999999977-49-11.899999999999977s-34.099999999999994 4.100000000000023-49 11.899999999999977-27.399999999999977 19.200000000000045-36.099999999999994 32.700000000000045c-8.599999999999994 13.599999999999966-13.299999999999983 29.299999999999955-13.299999999999983 45s4.699999999999989 31.5 13.299999999999983 45c8.599999999999994 13.600000000000023 21.200000000000017 25 36.099999999999994 32.69999999999993s31.900000000000006 11.900000000000091 49 11.900000000000091 34.10000000000002-4.100000000000023 49-11.900000000000091c14.800000000000011-7.7999999999999545 27.400000000000034-19.199999999999932 36-32.69999999999993 8.600000000000023-13.600000000000023 13.300000000000011-29.300000000000068 13.300000000000011-45s-4.699999999999989-31.5-13.300000000000011-45c-8.5-13.600000000000023-21.099999999999966-25-36-32.700000000000045z m15.400000000000034 113.5c-6.400000000000034 10.600000000000023-15.900000000000034 19.600000000000023-27 25.700000000000045s-23.900000000000034 9.399999999999977-36.70000000000002 9.399999999999977c-12.800000000000011 0-25.599999999999994-3.2999999999999545-36.70000000000002-9.399999999999977-11.099999999999994-6.100000000000023-20.5-15.100000000000023-27-25.700000000000045-6.399999999999977-10.600000000000023-9.899999999999977-23-9.899999999999977-35.299999999999955 0-12.300000000000011 3.5-24.600000000000023 9.899999999999977-35.30000000000001 6.400000000000006-10.600000000000023 15.900000000000006-19.600000000000023 27-25.69999999999999 11.100000000000023-6.100000000000023 23.900000000000006-9.400000000000034 36.70000000000002-9.400000000000034 12.799999999999983 0 25.599999999999994 3.3000000000000114 36.70000000000002 9.400000000000034 11.099999999999966 6.099999999999966 20.5 15.099999999999966 27 25.69999999999999s9.899999999999977 23 9.899999999999977 35.30000000000001c0 12.399999999999977-3.5 24.699999999999932-9.899999999999977 35.299999999999955z m182-23.399999999999977c6.399999999999977-3.3000000000000114 14.599999999999966-8.800000000000011 18.899999999999977-18.399999999999977 4.2999999999999545-9.5 4.7999999999999545-23.100000000000023 1.2999999999999545-33.5s-10.999999999999943-17.900000000000034-19.699999999999932-22.700000000000045c-8.700000000000045-4.899999999999977-18.5-6.7999999999999545-28.200000000000045-6.7999999999999545h-95.69999999999999v146.19999999999993h23.900000000000034v-58.5h58.69999999999999l45 58.5h26.599999999999966l-46.5-60.5c4.600000000000023 0.20000000000004547 9.300000000000011-0.8999999999999773 15.700000000000045-4.2999999999999545z m-99.5-14.899999999999977v-45.200000000000045h73.09999999999997c6.100000000000023 0 12.5 0.30000000000001137 17.5 4.5s8.5 11.100000000000023 8.800000000000011 18c0.30000000000001137 6.900000000000034-2.6999999999999886 14-7.800000000000011 18.200000000000045-5 4.2999999999999545-12 4.399999999999977-18.5 4.399999999999977h-73.09999999999997z m151.60000000000002 79.69999999999993h133v-21.299999999999955h-109v-42.5h81.09999999999991v-19.899999999999977h-81.09999999999991v-41.200000000000045h109v-21.299999999999955h-133v146.19999999999993z m70.5-168.79999999999995l-14.600000000000023 18.600000000000023 50.5-18.600000000000023h-35.89999999999998z m140.89999999999998 22.600000000000023l-74.5 146.19999999999993h23.899999999999977l19-37.19999999999993h87.10000000000002l19 37.19999999999993h23.899999999999977l-74.5-146.19999999999993h-23.899999999999977z m-22.100000000000023 90.39999999999998l34.10000000000002-66.89999999999998 34.10000000000002 66.89999999999998h-68.20000000000005z m156.5 34.60000000000002v-125h-24v146.19999999999993h133v-21.299999999999955h-109z"/>
</svg>
