<svg xmlns="http://www.w3.org/2000/svg" viewBox="0 0 1000 1000" width="1000" height="1000">
<path d="M718.8 375c26.200000000000045-19.69999999999999 45.60000000000002-47.10000000000002 55.30000000000007-78.39999999999998 9.799999999999955-31.30000000000001 9.5-64.90000000000003-0.8999999999999773-96.00000000000003-10.300000000000068-31.099999999999994-30.200000000000045-58.19999999999999-56.80000000000007-77.39999999999999-26.600000000000023-19.10000000000001-58.60000000000002-29.400000000000006-91.39999999999998-29.400000000000006h-281.2c-32.80000000000001 0-64.80000000000001 10.299999999999997-91.4 29.400000000000006-26.599999999999994 19.200000000000003-46.5 46.3-56.900000000000006 77.39999999999999-10.400000000000006 31.099999999999994-10.699999999999989 64.70000000000002-0.9000000000000057 96.00000000000003 9.800000000000011 31.299999999999955 29.200000000000017 58.69999999999999 55.400000000000006 78.39999999999998-19.900000000000006 14.899999999999977-35.900000000000006 34.30000000000001-46.80000000000001 56.60000000000002-10.799999999999983 22.299999999999955-16.19999999999999 46.89999999999998-15.699999999999989 71.69999999999999 0.5 24.80000000000001 6.900000000000006 49.19999999999999 18.69999999999999 70.99999999999994 11.800000000000011 21.90000000000009 28.700000000000017 40.60000000000002 49.20000000000002 54.60000000000002-23.30000000000001 17.700000000000045-41.70000000000002 41.10000000000002-53.5 67.89999999999998-11.700000000000017 26.800000000000068-16.400000000000006 56.10000000000002-13.599999999999994 85.20000000000005 2.6999999999999886 29.200000000000045 12.899999999999977 57.10000000000002 29.5 81.20000000000005 16.599999999999994 24.09999999999991 39 43.5 65.30000000000001 56.5 26.19999999999999 13 55.299999999999955 19.09999999999991 84.5 17.699999999999932 29.19999999999999-1.3999999999999773 57.599999999999966-10.199999999999932 82.39999999999998-25.699999999999932 24.899999999999977-15.400000000000091 45.39999999999998-36.90000000000009 59.60000000000002-62.5 14.199999999999932-25.5 21.699999999999932-54.30000000000007 21.699999999999932-83.60000000000002v-140.60000000000002c16.40000000000009 12.299999999999955 35 21.299999999999955 54.90000000000009 26.399999999999977 19.899999999999977 5.100000000000023 40.59999999999991 6.2000000000000455 60.89999999999998 3.300000000000068 20.299999999999955-2.900000000000091 39.89999999999998-9.800000000000068 57.5-20.300000000000068 17.699999999999932-10.399999999999977 33.10000000000002-24.199999999999932 45.39999999999998-40.60000000000002 12.299999999999955-16.5 21.299999999999955-35.09999999999991 26.399999999999977-55 5.100000000000023-19.899999999999977 6.2000000000000455-40.599999999999966 3.300000000000068-60.89999999999998-2.900000000000091-20.299999999999955-9.800000000000068-39.89999999999998-20.300000000000068-57.5-10.399999999999977-17.69999999999999-24.199999999999932-33.099999999999966-40.60000000000002-45.39999999999998z m0-125c0 24.899999999999977-9.899999999999977 48.69999999999999-27.5 66.30000000000001-17.59999999999991 17.599999999999966-41.39999999999998 27.5-66.29999999999995 27.5h-93.70000000000005v-187.5h93.70000000000005c24.899999999999977 0 48.700000000000045 9.799999999999983 66.29999999999995 27.399999999999977 17.600000000000023 17.600000000000023 27.5 41.400000000000006 27.5 66.30000000000001z m-468.79999999999995 0c0-24.900000000000006 9.899999999999977-48.69999999999999 27.5-66.30000000000001 17.5-17.599999999999994 41.39999999999998-27.399999999999977 66.30000000000001-27.399999999999977h125v187.5h-125c-24.900000000000034 0-48.80000000000001-9.900000000000034-66.30000000000001-27.5-17.600000000000023-17.600000000000023-27.5-41.400000000000034-27.5-66.30000000000001z m93.80000000000001 343.79999999999995c-24.900000000000034 0-48.80000000000001-9.899999999999977-66.30000000000001-27.5-17.600000000000023-17.59999999999991-27.5-41.39999999999998-27.5-66.29999999999995 0-24.899999999999977 9.899999999999977-48.69999999999999 27.5-66.30000000000001 17.5-17.599999999999966 41.39999999999998-27.399999999999977 66.30000000000001-27.399999999999977h125v187.49999999999994h-125z m125 171.80000000000007c0 21.699999999999932-6.5 42.799999999999955-18.5 60.799999999999955-12 18-29.100000000000023 32-49.10000000000002 40.30000000000007-20 8.299999999999955-41.89999999999998 10.399999999999977-63.19999999999999 6.199999999999932-21.19999999999999-4.199999999999932-40.69999999999999-14.600000000000023-56-29.899999999999977-15.300000000000011-15.299999999999955-25.69999999999999-34.799999999999955-29.900000000000006-56-4.199999999999989-21.299999999999955-2.0999999999999943-43.200000000000045 6.200000000000017-63.200000000000045 8.300000000000011-20 22.30000000000001-37.09999999999991 40.30000000000001-49.09999999999991 18-12 39.099999999999966-18.40000000000009 60.799999999999955-18.40000000000009h109.40000000000003v109.30000000000007z m156.2-171.80000000000007c-18.5 0-36.700000000000045-5.5-52.10000000000002-15.899999999999977-15.399999999999977-10.299999999999955-27.399999999999977-24.899999999999977-34.5-42-7.100000000000023-17.199999999999932-9-36-5.2999999999999545-54.19999999999999 3.6000000000000227-18.19999999999999 12.5-34.89999999999998 25.600000000000023-48 13.099999999999909-13.099999999999966 29.799999999999955-22 48-25.599999999999966 18.199999999999932-3.7000000000000455 37-1.8000000000000114 54.19999999999993 5.2999999999999545 17.100000000000023 7.100000000000023 31.700000000000045 19.100000000000023 42 34.5 10.399999999999977 15.400000000000034 15.899999999999977 33.60000000000002 15.899999999999977 52.10000000000002 0 24.899999999999977-9.899999999999977 48.700000000000045-27.5 66.29999999999995-17.59999999999991 17.600000000000023-41.39999999999998 27.5-66.29999999999995 27.5z"/>
</svg>
