<svg xmlns="http://www.w3.org/2000/svg" viewBox="0 0 1000 1000" width="1000" height="1000">
<path d="M55.4 978.3c-16.699999999999996 0-33.4 0-50.199999999999996-0.09999999999990905-1.6000000000000028 0-4.100000000000003 1.2999999999999545-4.900000000000003-1.2000000000000455-0.7999999999999998-2.3999999999999773 0.1000000000000002-4.600000000000023 1.9000000000000004-6.600000000000023 9.2-9.899999999999977 18.2-20 27.3-30 52.900000000000006-58 105.69999999999999-116 158.6-174.10000000000002l156.4-171.5c18-19.699999999999932 35.89999999999998-39.39999999999998 53.80000000000001-59.19999999999993 2.3999999999999773-2.7000000000000455 4.899999999999977-3.8999999999999773 8.599999999999966-3.8999999999999773 18.80000000000001 0.1999999999999318 37.60000000000002 0.1999999999999318 56.400000000000034 0 3.5 0 4.800000000000011 0.6999999999999318 4.800000000000011 4.5-0.20000000000004547 15.599999999999909-0.20000000000004547 31.199999999999932 0 46.799999999999955 0 3.2000000000000455-1.3000000000000114 5.2000000000000455-3.2000000000000455 7.399999999999977-37.799999999999955 41.30000000000007-75.59999999999997 82.60000000000002-113.29999999999995 123.89999999999998l-150.60000000000002 164.70000000000005c-29.30000000000001 32-58.599999999999994 64-87.8 96.10000000000002-2.200000000000003 2.5-4.5 3.2999999999999545-7.799999999999997 3.2999999999999545-16.60000000000001-0.1999999999999318-33.30000000000001-0.10000000000002274-50.00000000000001-0.10000000000002274z m510.30000000000007-510.99999999999994c-9.800000000000068 0-19.5-0.10000000000002274-29.300000000000068 0.0999999999999659-2.8999999999999773 0-3.8999999999999773-0.7999999999999545-3.7999999999999545-3.7999999999999545 0.10000000000002274-16 0.10000000000002274-31.900000000000034 0-47.900000000000034 0-2.8999999999999773 1.6000000000000227-4.5 3.199999999999932-6.199999999999989 21.600000000000023-23.69999999999999 43.30000000000007-47.39999999999998 65-71.10000000000002l90.5-98.89999999999998c34.700000000000045-38 69.40000000000009-75.9 104.20000000000005-113.9 30.299999999999955-33.099999999999994 60.60000000000002-66.19999999999999 90.70000000000005-99.5 2.7999999999999545-3.0999999999999943 5.5-4.699999999999996 10-4.599999999999994 32.69999999999993 0.1999999999999993 65.39999999999998 0.10000000000000142 98 0.1999999999999993 1.8999999999999773 0 4.5-1.3000000000000007 5.599999999999909 1 1.1000000000000227 2.400000000000002-0.39999999999997726 4.5-2.199999999999932 6.5-21.100000000000023 23.099999999999998-42.200000000000045 46.39999999999999-63.39999999999998 69.5-33 36.2-66 72.39999999999999-99 108.7l-99.40000000000009 109.1-97.5 107c-12.599999999999909 13.899999999999977-25.299999999999955 27.80000000000001-37.799999999999955 41.69999999999999-1.7000000000000455 1.900000000000034-3.5 2.3000000000000114-5.899999999999977 2.3000000000000114-9.700000000000045-0.30000000000001137-19.300000000000068-0.19999999999998863-28.899999999999977-0.19999999999998863z m-510.00000000000006-446.1c16.700000000000017 1.0658141036401503e-14 33.400000000000006 0.10000000000001208 50.20000000000002-0.09999999999998721 3.0999999999999943 0 5.199999999999989 0.7999999999999972 7.299999999999997 3.099999999999998 41.7 45.8 83.60000000000001 91.6 125.39999999999999 137.3l112.50000000000003 123 113.69999999999999 124.19999999999999c2.3999999999999773 2.6999999999999886 3.5 5.400000000000034 3.3999999999999773 9-0.19999999999998863 15-0.19999999999998863 30.100000000000023 0 45.10000000000002 0 3.3000000000000114-0.30000000000001137 4.899999999999977-4.399999999999977 4.899999999999977-19.30000000000001-0.19999999999998863-38.69999999999999-0.19999999999998863-58.10000000000002 0-2.6999999999999886 0-4.5-0.8999999999999773-6.300000000000011-2.8000000000000114-35.599999999999966-39.19999999999999-71.29999999999995-78.29999999999995-107-117.5-36.69999999999999-40.299999999999955-73.29999999999998-80.59999999999997-109.99999999999997-120.79999999999998-45-49.400000000000006-90-98.89999999999999-135.10000000000002-148.3-13.499999999999986-14.899999999999984-27.099999999999984-29.69999999999998-40.59999999999998-44.499999999999986-1.900000000000003-2.099999999999998-3.800000000000003-4.199999999999996-5.600000000000003-6.299999999999997-1.3999999999999997-1.6000000000000014-1.1999999999999997-3.6999999999999993-0.5999999999999996-5.399999999999999 0.6000000000000001-1.8000000000000007 2.6-0.9000000000000021 4-0.9000000000000021h51.2z m888.9000000000001 956.7c-16.500000000000114-1.1368683772161603e-13-33.100000000000136-0.10000000000013642-49.600000000000136 0.09999999999990905-3.1000000000000227 0-5.2000000000000455-0.8999999999999773-7.2999999999999545-3.2000000000000455-89.30000000000007-97.79999999999995-178.60000000000002-195.5-268-293.29999999999995-27.90000000000009-30.5-55.700000000000045-61-83.70000000000005-91.5-2.2999999999999545-2.5-3.5-4.899999999999977-3.3999999999999773-8.399999999999977 0.1999999999999318-14.800000000000068 0.1999999999999318-29.700000000000045 0-44.5 0-3.5 0.6999999999999318-4.899999999999977 4.600000000000023-4.899999999999977 19 0.1999999999999318 38 0.09999999999990905 56.89999999999998 0 2.7999999999999545 0 4.5 1 6.2999999999999545 3 58.39999999999998 64.19999999999993 116.80000000000007 128.29999999999995 175.30000000000007 192.5l178.79999999999995 196.19999999999993c14.200000000000045 15.5 28.299999999999955 31.100000000000023 42.5 46.700000000000045 1.5 1.6999999999999318 3.5 3.2999999999999545 2.5 5.7999999999999545-1.1000000000000227 2.8999999999999773-3.8999999999999773 1.3999999999999773-5.899999999999977 1.3999999999999773-16.300000000000068 0.10000000000002274-32.60000000000002 0.10000000000002274-49 0.10000000000002274z"/>
</svg>
