<svg xmlns="http://www.w3.org/2000/svg" viewBox="0 0 1000 1000" width="1000" height="1000">
<path d="M230.2 181.5c88.80000000000001-58.599999999999994 221.7-108.4 295.3-130.7 39.299999999999955-12.100000000000009 40.89999999999998-52.80000000000001 25-50.70000000000001-84.5 11.2-165.2 51.5-233.39999999999998 101.5-31.600000000000023 23.10000000000001-61.400000000000034 48.900000000000006-87.50000000000003 78.20000000000002-1.1999999999999886 1.5999999999999943-2.1999999999999886 3.5 0.5999999999999943 1.6999999999999886z m597.9000000000001 548.3l-0.3000000000001819 0.40000000000009095c-17.5 22.199999999999932-36.5 43.799999999999955-56.5 64.29999999999995l-3.5 3.6000000000000227c-3.599999999999909 3.6000000000000227-7.099999999999909 7.199999999999932-10.799999999999955 10.699999999999932l-4.7999999999999545 4.7000000000000455c-3.300000000000068 3.2000000000000455-6.7000000000000455 6.399999999999977-10 9.5-1.7000000000000455 1.6000000000000227-3.400000000000091 3.2000000000000455-5.100000000000023 4.7000000000000455-3.8999999999999773 3.599999999999909-7.899999999999977 7.199999999999932-11.800000000000068 10.699999999999932l-2.7999999999999545 2.5h-0.10000000000002274c-18 15.800000000000068-36.39999999999998 30.600000000000023-54.89999999999998 44.200000000000045-72.10000000000002 52.89999999999998-155.7 99.5-244.8 110.19999999999993-415.3 50.100000000000136-380-321.69999999999993-380-321.69999999999993 3.3000000000000114 21.899999999999977 7.900000000000013 41.89999999999998 13.500000000000014 60.39999999999998h-0.10000000000000142c26.9 94.20000000000005 71.1 169.5 143.4 189.5 0 0-1.5-0.7000000000000455-4-2.1000000000000227l-0.09999999999999432-0.10000000000002274c-0.8000000000000114-0.39999999999997726-1.700000000000017-0.8999999999999773-2.700000000000017-1.5l-0.29999999999998295-0.1999999999999318c-0.9000000000000057-0.5-1.8000000000000114-1.1000000000000227-2.9000000000000057-1.7000000000000455l-1-0.6000000000000227c-0.9000000000000057-0.5-1.8000000000000114-1.099999999999909-2.6999999999999886-1.6999999999999318l-1.200000000000017-0.8000000000000682c-1.0999999999999943-0.6999999999999318-2.1999999999999886-1.5-3.299999999999983-2.2999999999999545l-0.8000000000000114-0.6000000000000227c-1.4000000000000057-1-2.9000000000000057-2.1000000000000227-4.400000000000006-3.199999999999932l-0.799999999999983-0.6000000000000227c-1.200000000000017-0.8999999999999773-2.5-1.8999999999999773-3.8000000000000114-3l-1.4000000000000057-1.2000000000000455-3.299999999999983-2.7999999999999545-1.5-1.3999999999999773-3.5-3.300000000000068-1.200000000000017-1.1999999999999318c-1.5999999999999943-1.6000000000000227-3.0999999999999943-3.2000000000000455-4.699999999999989-4.900000000000091l-0.5999999999999943-0.599999999999909c-1.3000000000000114-1.5-2.6000000000000227-3-3.9000000000000057-4.600000000000023l-1.4000000000000057-1.8000000000000682c-1-1.2999999999999545-2-2.599999999999909-2.9000000000000057-3.8999999999999773-0.5-0.6999999999999318-1-1.3999999999999773-1.4000000000000057-2.1000000000000227l-2.6999999999999886-4.199999999999932-1.1999999999999886-2c-1.200000000000017-2.1000000000000227-2.4000000000000057-4.2000000000000455-3.5-6.5l-0.20000000000001705-0.5c86.70000000000002 73.10000000000002 210.29999999999998 69.89999999999998 295 53.39999999999998 124.29999999999995-23.899999999999977 236.60000000000002-116.89999999999998 238.10000000000002-120.5 0.09999999999990905-0.20000000000004547-0.3000000000000682-0.10000000000002274-1.2000000000000455 0.5-24.100000000000023 15.899999999999977-54.10000000000002 31.600000000000023-79.20000000000005 44-116.19999999999993 57.299999999999955-268.99999999999994 87.10000000000002-378.4-0.39999999999997726-83.49999999999997-66.80000000000007-124.29999999999998-188.39999999999998-121.59999999999998-295.4 1.2999999999999972-51.700000000000045 10-113.40000000000003 29.799999999999997-161.60000000000002-0.6999999999999886 15.399999999999977-16.69999999999999 162.69999999999993 32.70000000000002 271.9 5.299999999999983 11.799999999999955 11.199999999999989 23.299999999999955 17.69999999999999 34.5l0.30000000000001137 0.5c1.6999999999999886 3 3.5 6 5.299999999999983 8.899999999999977 0.9000000000000057 1.5 1.9000000000000057 2.8999999999999773 2.8000000000000114 4.300000000000068l3.1999999999999886 5c1 1.5 2 3 3.0999999999999943 4.5l3.3000000000000114 4.699999999999932 3.1999999999999886 4.399999999999977c1.3000000000000114 1.7000000000000455 2.6000000000000227 3.400000000000091 4 5.100000000000023 1 1.3000000000000682 2 2.6000000000000227 3.1000000000000227 3.8999999999999773 2.299999999999983 2.800000000000068 4.699999999999989 5.600000000000023 7.099999999999994 8.400000000000091l1.1999999999999886 1.2999999999999545c2 2.2000000000000455 4 4.399999999999977 6.099999999999994 6.600000000000023 1.1000000000000227 1.1999999999999318 2.3000000000000114 2.2999999999999545 3.4000000000000057 3.3999999999999773 1.8000000000000114 1.7999999999999545 3.700000000000017 3.6000000000000227 5.599999999999994 5.399999999999977 0.700000000000017 0.6000000000000227 1.4000000000000057 1.3000000000000682 2 1.8999999999999773 2.3000000000000114 2.1000000000000227 4.700000000000017 4.2000000000000455 7 6.2000000000000455l1.700000000000017 1.3999999999999773c3 2.5 6 4.800000000000068 9.099999999999994 7.100000000000023l0.6999999999999886 0.5c2.8000000000000114 2.1000000000000227 5.700000000000017 4.100000000000023 8.700000000000017 6l2.5999999999999943 1.7000000000000455c2.5 1.599999999999909 5 3.199999999999932 7.600000000000023 4.699999999999932 0.6999999999999886 0.39999999999997726 1.2999999999999545 0.8000000000000682 2 1.1000000000000227 2.6999999999999886 1.5 5.399999999999977 2.8999999999999773 8.099999999999966 4.2999999999999545l2.5 1.3000000000000682c3.5 1.6999999999999318 7 3.3999999999999773 10.699999999999989 4.899999999999977 63.60000000000002 26.700000000000045 160 20.100000000000023 225.90000000000003 4 43.900000000000034-10.700000000000045 86.59999999999997-26.600000000000023 127.59999999999997-46 35.30000000000007-16.700000000000045 70.30000000000007-37.700000000000045 102.20000000000005-60.5 22.199999999999932-15.899999999999977 43.799999999999955-33.89999999999998 64-53-19.899999999999977 33.10000000000002-45.39999999999998 64.79999999999995-45.39999999999998 64.79999999999995 24.09999999999991-20 160.69999999999993-139.5 159.79999999999995-289.29999999999995h-0.10000000000002274c1.1000000000000227-63.89999999999998-29.899999999999977-126.10000000000002-73.29999999999995-164.9-105.5-94.5-262.9-84.6-375.5-16.69999999999999-65.90000000000003 39.79999999999998-116.20000000000005 108.20000000000002-130.40000000000003 186.1-1-23.399999999999977 0.6999999999999886-43.89999999999998 2-55-23.69999999999999 54.39999999999998-36.19999999999999 210.5 98.5 271.9 59.400000000000034 29.800000000000068 135.7 26.5 195.09999999999997-1.2999999999999545 45.60000000000002-21.399999999999977 93.80000000000007-68.89999999999998 124.10000000000002-109.39999999999998 33.60000000000002-44.80000000000007 57.60000000000002-101.20000000000005 44.89999999999998-157.10000000000002-0.6999999999999318-3.2000000000000455-1.599999999999909-6.300000000000011-2.599999999999909-9.300000000000011-0.20000000000004547-0.8000000000000114-0.5-1.6000000000000227-0.7000000000000455-2.3000000000000114l-0.10000000000002274-0.30000000000001137c-0.8999999999999773-2.599999999999966-1.8999999999999773-5.199999999999989-2.8999999999999773-7.699999999999989-0.2999999999999545-0.8000000000000114-0.7000000000000455-1.6000000000000227-1.1000000000000227-2.3999999999999773-20.299999999999955-45-66.29999999999995-68.30000000000001-114.69999999999993-73.80000000000001-69.40000000000009-7.900000000000034-149.70000000000005 21.19999999999999-184.90000000000003 86.80000000000001-36.5 68.19999999999999-9.300000000000011 136.7 56.69999999999999 154.29999999999995-32.60000000000002 22.600000000000023-95.80000000000001 25.100000000000023-127.30000000000001-7.899999999999977-56.69999999999999-59.30000000000001-15.699999999999989-159.5 33.400000000000034-207.39999999999998 72.89999999999998-71.20000000000002 196.19999999999993-93.30000000000001 285.1-46.10000000000002 119.5 63.39999999999998 115.69999999999993 187.2 54.799999999999955 297.1-16.799999999999955 30.399999999999977-38.299999999999955 58.69999999999993-63.200000000000045 83.69999999999993l-0.09999999999990905 0.10000000000002274c-3.7000000000000455 3.7000000000000455-7.400000000000091 7.300000000000068-11.200000000000045 10.800000000000068l-0.5 0.5c-7.7000000000000455 7.099999999999909-15.700000000000045 13.899999999999977-24 20.299999999999955l-1 0.7999999999999545c-8.200000000000045 6.400000000000091-16.600000000000023 12.400000000000091-25.299999999999955 18l-1.1000000000000227 0.7000000000000455c-4.2000000000000455 2.7000000000000455-8.399999999999977 5.2999999999999545-12.700000000000045 7.7999999999999545l-0.39999999999997726 0.3000000000000682c-4.5 2.6000000000000227-9 5.100000000000023-13.600000000000023 7.5l-0.6999999999999318 0.39999999999997726c-4.2000000000000455 2.2000000000000455-8.400000000000091 4.2999999999999545-12.700000000000045 6.2999999999999545-0.6000000000000227 0.3000000000000682-1.2000000000000455 0.6000000000000227-1.8999999999999773 0.900000000000091-9 4.099999999999909-18 7.7999999999999545-27.300000000000068 11.099999999999909-0.8999999999999773 0.3000000000000682-1.7999999999999545 0.6000000000000227-2.599999999999909 0.900000000000091-4.300000000000068 1.5-8.600000000000023 2.8999999999999773-12.900000000000091 4.199999999999932l-0.7999999999999545 0.3000000000000682c-4.600000000000023 1.2999999999999545-9.200000000000045 2.599999999999909-13.899999999999977 3.699999999999932-1 0.20000000000004547-1.8999999999999773 0.39999999999997726-2.8999999999999773 0.7000000000000455-3.800000000000068 0.8999999999999773-7.7000000000000455 1.6999999999999318-11.5 2.3999999999999773-1 0.20000000000004547-2 0.39999999999997726-2.900000000000091 0.5-4.599999999999909 0.7999999999999545-9.199999999999932 1.5-13.799999999999955 2.1000000000000227-0.7999999999999545 0.10000000000002274-1.6000000000000227 0.1999999999999318-2.5 0.2999999999999545-3.8999999999999773 0.39999999999997726-7.7000000000000455 0.8000000000000682-11.600000000000023 1-1.2999999999999545 0.10000000000002274-2.5 0.20000000000004547-3.7999999999999545 0.20000000000004547-4.600000000000023 0.2999999999999545-9.300000000000068 0.39999999999997726-14 0.39999999999997726-5.100000000000023 0-10.200000000000045-0.20000000000004547-15.200000000000045-0.39999999999997726l-4.5-0.3000000000000682c-3.599999999999966-0.1999999999999318-7.199999999999989-0.5-10.699999999999989-0.8999999999999773l-4.5-0.5c-4.599999999999966-0.5-9.199999999999989-1.1999999999999318-13.699999999999989-1.8999999999999773l-2.1000000000000227-0.39999999999997726c-4-0.7000000000000455-7.899999999999977-1.5-11.799999999999955-2.300000000000068-1.6000000000000227-0.39999999999997726-3.3000000000000114-0.7999999999999545-4.900000000000034-1.099999999999909l-8.699999999999989-2.2000000000000455c-1.6000000000000227-0.39999999999997726-3.1999999999999886-0.8999999999999773-4.800000000000011-1.3999999999999773-3.8999999999999773-1.2000000000000455-7.699999999999989-2.3999999999999773-11.5-3.7000000000000455l-1.599999999999966-0.6000000000000227-1.1000000000000227-0.39999999999997726-0.10000000000002274-0.10000000000002274c-120.29999999999995-43.799999999999955-178.89999999999998-170.39999999999998-149.79999999999995-300.29999999999995 14.299999999999955-64 50.69999999999999-126.5 95.79999999999995-171.5 47.900000000000034-47.69999999999999 111-83.1 174-102.4 120-36.599999999999994 256.80000000000007-21.599999999999994 346.4 72.30000000000001 135.5 142.1 62.60000000000002 335.6-18.699999999999932 459.5-11 17-23.100000000000023 33.60000000000002-36 49.89999999999998z m-30.40000000000009-379.4l0.09999999999990905 0.20000000000004547-0.09999999999990905-0.20000000000004547z"/>
</svg>
