<svg xmlns="http://www.w3.org/2000/svg" viewBox="0 0 1000 1000" width="1000" height="1000">
<path d="M496.5 0c221.79999999999995 0 409 150.9 454.9 365 25.700000000000045 119.89999999999998 4.7000000000000455 232.5-58.10000000000002 337.70000000000005-3 5-5 5.599999999999909-10.099999999999909 2.7999999999999545-52-28-104.10000000000002-55.799999999999955-156.30000000000007-83.39999999999998-5.199999999999932-2.7000000000000455-5.199999999999932-4.5-2.1000000000000227-9.100000000000023 108.10000000000002-159 22.800000000000068-374-165.19999999999993-416.3-148.8-33.5-298.90000000000003 67.90000000000003-323.40000000000003 218.60000000000002-24.299999999999983 148.99999999999994 74.30000000000001 286.90000000000003 223 311.59999999999997 35.10000000000002 5.899999999999977 70.30000000000001 5.2000000000000455 104.69999999999999-4.100000000000023 14.5-4 28-1.5 41.80000000000007 0.7000000000000455 61.09999999999991 9.700000000000045 122.29999999999995 19.600000000000023 183.39999999999998 29.399999999999977 19.399999999999977 3.1000000000000227 38.799999999999955 6.399999999999977 58.299999999999955 9.300000000000068 3.5 0.5 5.600000000000023 2.2999999999999545 7.7000000000000455 4.7999999999999545 29.299999999999955 36.700000000000045 58.69999999999993 73.5 88.10000000000002 110.10000000000002 2.699999999999932 3.3999999999999773 2.8999999999999773 5.199999999999932-0.8000000000000682 8.100000000000023-48.299999999999955 37.59999999999991-96.5 75.29999999999995-144.60000000000002 113.19999999999993-4.699999999999932 3.7000000000000455-5.899999999999977 0.8000000000000682-8.199999999999932-2.199999999999932-28.300000000000068-37.60000000000002-56.700000000000045-75-84.89999999999998-112.70000000000005-3.5-4.7000000000000455-6.300000000000068-5.399999999999977-11.600000000000023-3-64.5 29.5-132.5 43.10000000000002-203.40000000000003 42.10000000000002-204-3-387.29999999999995-148.60000000000002-436.5-346.80000000000007-9.999999999999986-40.19999999999993-16.19999999999999-80.99999999999994-14.999999999999986-122.39999999999998 7-235.39999999999998 174.89999999999998-407.4 374.6-445.29999999999995 28.899999999999977-5.500000000000023 58.099999999999966-8.400000000000023 83.69999999999999-8.100000000000023z"/>
</svg>
