<svg xmlns="http://www.w3.org/2000/svg" viewBox="0 0 1000 1000" width="1000" height="1000">
<path d="M138.9 696.4v-398.09999999999997h134.6c8.800000000000011 61 17.600000000000023 122.09999999999997 26.5 183.2h0.5c7.800000000000011-61.10000000000002 15.699999999999989-122.19999999999999 23.600000000000023-183.3h135.39999999999998v398.09999999999997h-90.60000000000002v-262.9h-0.7999999999999545c-11.800000000000011 87.60000000000002-23.600000000000023 175.30000000000007-35.400000000000034 263.1h-64.69999999999999l-37.69999999999999-260-0.700000000000017 0.10000000000002274v259.79999999999995h-90.69999999999999z m356.20000000000005-398.29999999999995h4.199999999999989c33.19999999999999 0 66.30000000000001-0.20000000000004547 99.40000000000003 0.0999999999999659 22.199999999999932 0.30000000000001137 44.5 1 66.39999999999998 5.800000000000011 15.899999999999977 3.5 30.699999999999932 9.5 42.299999999999955 21.600000000000023 11.399999999999977 11.899999999999977 18.5 26.099999999999966 19.800000000000068 42.599999999999966 1.3999999999999773 17.900000000000034 2.599999999999909 35.80000000000001 2.699999999999932 53.60000000000002 0.39999999999997726 55 0.20000000000004547 109.99999999999994 0.20000000000004547 164.99999999999994 0 17.90000000000009-0.7000000000000455 35.80000000000007-3.300000000000068 53.60000000000002-3.8999999999999773 27.5-19.799999999999955 43.89999999999998-46.09999999999991 51.10000000000002-12.700000000000045 3.5-25.600000000000023 4.600000000000023-38.700000000000045 4.7000000000000455-26.200000000000045 0.39999999999997726-52.39999999999998 0.39999999999997726-78.60000000000002 0.5-21.399999999999977 0.09999999999990905-42.799999999999955 0-64.29999999999995 0h-4.100000000000023c0.10000000000002274-132.9000000000001 0.10000000000002274-265.50000000000006 0.10000000000002274-398.6z m103.39999999999998 330.1c5.7999999999999545-0.900000000000091 11.399999999999977-1.400000000000091 16.799999999999955-2.5 7.400000000000091-1.6000000000000227 11.800000000000068-6.300000000000068 12.700000000000045-13.900000000000091 1.1000000000000227-9.099999999999909 2.5-18.299999999999955 2.5-27.5 0.20000000000004547-55.09999999999991 0.20000000000004547-110.19999999999993 0.10000000000002274-165.29999999999995 0-10.800000000000011-0.3000000000000682-21.69999999999999-0.7000000000000455-32.60000000000002-0.2999999999999545-7-2.199999999999932-13.5-9.100000000000023-16.899999999999977-7-3.3999999999999773-14.599999999999909-3.3999999999999773-22.399999999999977-3l0.10000000000002274 261.70000000000005z m266.70000000000005-329.90000000000003v127.89999999999998l0.7999999999999545 0.4000000000000341c1.3999999999999773-1.6000000000000227 2.7999999999999545-3.2000000000000455 4.2999999999999545-4.7000000000000455 12.800000000000068-13.099999999999966 28.40000000000009-20.099999999999966 46.40000000000009-22 15.799999999999955-1.6999999999999886 31.5-1 46.59999999999991 4.600000000000023 19.200000000000045 7.100000000000023 31.200000000000045 20.80000000000001 34.90000000000009 40.80000000000001 1.6999999999999318 9.399999999999977 1.6999999999999318 19.30000000000001 1.6999999999999318 28.899999999999977 0.10000000000002274 48.50000000000006 0.3000000000000682 97.00000000000006-0.1999999999999318 145.40000000000003-0.10000000000002274 12.199999999999932-1.400000000000091 24.600000000000023-4.100000000000023 36.39999999999998-5.2000000000000455 22.5-21.100000000000023 36.299999999999955-42.39999999999998 42.299999999999955-32.30000000000007 9.100000000000023-61.5 2.6000000000000227-84.90000000000009-23.09999999999991-1-1.1000000000000227-2-2.2000000000000455-3.3999999999999773-3.7000000000000455-1.8999999999999773 7.399999999999977-3.699999999999932 14.399999999999977-5.2999999999999545 21.399999999999977-0.6000000000000227 3-1.8999999999999773 3.8999999999999773-5 3.8999999999999773-28.5-0.09999999999990905-56.89999999999998-0.09999999999990905-85.39999999999998-0.09999999999990905h-4v-398.40000000000003h100z m-0.10000000000002274 256.2h0.1999999999999318c0 18.600000000000023-0.1999999999999318 37.200000000000045 0.10000000000002274 55.700000000000045 0.10000000000002274 8 1 16 2.2000000000000455 23.899999999999977 0.8999999999999773 5.699999999999932 4.899999999999977 9.199999999999932 10.199999999999932 9.399999999999977 3.6000000000000227 0.10000000000002274 7.300000000000068-0.39999999999997726 10.900000000000091-1.1000000000000227 5.699999999999932-1.1999999999999318 9-5 9.399999999999977-10.899999999999977 0.6000000000000227-9.100000000000023 1.6999999999999318-18.100000000000023 1.6999999999999318-27.200000000000045 0.20000000000004547-34.39999999999998 0.20000000000004547-68.89999999999998 0-103.29999999999995 0-9.100000000000023-0.5-18.19999999999999-1.1999999999999318-27.30000000000001-0.7000000000000455-10.399999999999977-4.300000000000068-14.300000000000011-14.399999999999977-16.19999999999999l-0.6000000000000227-0.10000000000002274c-9.100000000000023-0.6999999999999886-15.899999999999977 0.4000000000000341-17.100000000000023 12.200000000000045-0.7000000000000455 7.099999999999966-1.2999999999999545 14.299999999999955-1.3999999999999773 21.399999999999977-0.10000000000002274 21.200000000000045 0 42.299999999999955 0 63.5z m-865.1-256.4h103.4v398.29999999999995h-103.4v-398.29999999999995z"/>
</svg>
