<svg xmlns="http://www.w3.org/2000/svg" viewBox="0 0 1000 1000" width="1000" height="1000">
<path d="M727.9 333.3c-92.19999999999993 0-167.10000000000002-74.60000000000002-167.10000000000002-166.60000000000002 0-92.1 74.80000000000007-166.7 167.10000000000002-166.7s167.10000000000002 74.6 167.10000000000002 166.7c-0.10000000000002274 92-74.89999999999998 166.60000000000002-167.10000000000002 166.60000000000002z m-136.69999999999993 160.59999999999997c0-92.09999999999997-74.80000000000007-166.59999999999997-167.10000000000002-166.59999999999997s-167.10000000000002 74.59999999999997-167.10000000000002 166.59999999999997c0 3.8000000000000114 0.30000000000001137 7.400000000000034 0.6000000000000227 11.100000000000023h-0.6000000000000227v288.9h334.1v-288.9h-0.6000000000000227c0.39999999999997726-3.6999999999999886 0.7000000000000455-7.300000000000011 0.7000000000000455-11.100000000000023z m-167.00000000000006-188.89999999999998c67.60000000000002 0 122.50000000000006-54.69999999999999 122.50000000000006-122.19999999999999s-54.80000000000007-122.20000000000002-122.50000000000006-122.20000000000002-122.5 54.80000000000001-122.5 122.20000000000002c0 67.5 54.80000000000001 122.19999999999999 122.5 122.19999999999999z m531.4000000000001 285.9c-1.1368683772161603e-13-125.59999999999997-101.90000000000009-227.29999999999995-227.80000000000018-227.29999999999995s-227.69999999999993 101.69999999999999-227.69999999999993 227.29999999999995c0 5.100000000000023 0.39999999999997726 10.100000000000023 0.6999999999999886 15.100000000000023h-0.6999999999999886v394h455.6v-394h-0.7000000000000455c0.20000000000004547-5 0.6000000000000227-10 0.6000000000000227-15.100000000000023z m-774.4000000000001-281.79999999999995c-75.50000000000004 0-136.70000000000005 61-136.70000000000005 136.39999999999998 0 3.1000000000000227 0.20000000000000284 6.100000000000023 0.3999999999999986 9.100000000000023h-0.3999999999999986v236.39999999999998h273.3v-236.39999999999998h-0.4000000000000341c0.20000000000004547-3.1000000000000227 0.4000000000000341-6.100000000000023 0.4000000000000341-9.100000000000023 0.0999999999999659-75.39999999999998-61.10000000000002-136.39999999999998-136.60000000000002-136.39999999999998z m-5.684341886080802e-14-18.200000000000045c55.30000000000001 0 100.19999999999999-44.79999999999998 100.19999999999999-99.99999999999997s-44.89999999999998-100-100.19999999999999-100c-55.29999999999998 0-100.19999999999999 44.79999999999998-100.19999999999999 100s44.8 99.99999999999997 100.19999999999999 99.99999999999997z"/>
</svg>
