<svg xmlns="http://www.w3.org/2000/svg" viewBox="0 0 1000 1000" width="1000" height="1000">
<path d="M939.9 258.6c-20-114.40000000000003-78.19999999999993-195.8-196.89999999999998-226.00000000000003-161.39999999999998-40.8-322.5-45.599999999999994-483.4-1.0999999999999943-103.00000000000003 28.799999999999997-169.40000000000003 95.8-192.90000000000003 200.9-25.599999999999987 112.9-26.999999999999986 227.6-6.8999999999999915 341.30000000000007 19.200000000000003 107.19999999999993 76.50000000000001 185.89999999999998 183.8 220.89999999999998 17.299999999999955 5.600000000000023 21.099999999999966 14.399999999999977 21.099999999999966 30.699999999999932-0.8000000000000114 57.10000000000002-0.30000000000001137 114.40000000000009-0.30000000000001137 171.80000000000007 1.900000000000034 0.7999999999999545 3.7000000000000455 1.8999999999999773 5.900000000000034 2.8999999999999773 5.599999999999966-6.7000000000000455 11-13.100000000000023 16.80000000000001-19.5 43.19999999999999-46.700000000000045 86.19999999999999-93.60000000000002 129.89999999999998-139.79999999999995 5.899999999999977-6.100000000000023 16-12.300000000000068 23.69999999999999-11.800000000000068 100.90000000000003 4.800000000000068 199.59999999999997-6.699999999999932 297.7-30.699999999999932 104.10000000000002-25.200000000000045 170-88.20000000000005 193.80000000000007-191.20000000000005 26.899999999999977-115.19999999999999 28.299999999999955-232.10000000000002 7.699999999999932-348.4z m-418-116.10000000000002c134.70000000000005 4 243.10000000000002 117.39999999999998 245.70000000000005 257.4-0.3000000000000682 12.800000000000011 2.699999999999932 29.900000000000034-15.700000000000045 30.400000000000034-18.399999999999977 0.8000000000000114-16.799999999999955-16.80000000000001-17.399999999999977-29.400000000000034-4.2999999999999545-82.39999999999998-35.700000000000045-149.39999999999998-108.29999999999995-193.99999999999997-33.30000000000007-20.30000000000001-71-25.099999999999994-108.10000000000002-31.200000000000017-12-1.8999999999999773-27.200000000000045-1.0999999999999943-26.400000000000034-17.099999999999994 0.8000000000000114-17.900000000000006 17.100000000000023-16.299999999999983 30.19999999999999-16.099999999999994z m18.600000000000023 99.5c-12.299999999999955-2.0999999999999943-29.600000000000023-1.9000000000000057-26.399999999999977-20.599999999999994 2.8999999999999773-17.900000000000006 19.199999999999932-13.099999999999994 32-11.200000000000017 92.79999999999995 13.600000000000023 156.29999999999995 82.19999999999999 155.60000000000002 168.10000000000002-0.3000000000000682 11.800000000000011 0.7999999999999545 26.19999999999999-16 26.399999999999977-14.900000000000091 0.30000000000001137-14.700000000000045-12.300000000000011-16-23.5-10.700000000000045-85.80000000000001-45.40000000000009-123.19999999999999-129.20000000000005-139.2z m96.60000000000002 124.60000000000002c-1.1000000000000227 8.299999999999955-3.7000000000000455 14.899999999999977-12.5 16.799999999999955-10.700000000000045 2.1000000000000227-17.600000000000023-4.2999999999999545-18.399999999999977-13.599999999999966-3.5-38.19999999999999-23.200000000000045-59-61.60000000000002-63.19999999999999-9.899999999999977-1.1000000000000227-14.899999999999977-9.100000000000023-12-19.200000000000045 2.8999999999999773-10.199999999999989 11.799999999999955-11.799999999999955 26.699999999999932-11.799999999999955 38.30000000000007-0.7000000000000455 83.70000000000005 48.39999999999998 77.80000000000007 91z m2.8999999999999773 325.5c-194.7-80-331.6-217.40000000000003-407.1-414.3-19.99999999999997-52 31-125.4 86.40000000000003-126.70000000000002 13.599999999999966-0.29999999999998295 25.599999999999966 5.099999999999994 35.19999999999999 14.900000000000006 28.5 28.80000000000001 52.80000000000001 60.80000000000001 72.60000000000002 96.10000000000002 15.199999999999989 27.19999999999999 10.899999999999977 48.599999999999966-13.900000000000034 68.59999999999997-34.099999999999966 27.19999999999999-37.099999999999966 41.60000000000002-17.599999999999966 81.40000000000003 27.799999999999955 57.39999999999998 72.59999999999997 97.09999999999997 130.69999999999993 122.5 23.200000000000045 9.899999999999977 40.5 6.100000000000023 57.10000000000002-14.700000000000045 30.700000000000045-38.19999999999999 47.200000000000045-39.5 89.10000000000002-14.399999999999977 29.399999999999977 17.600000000000023 55.799999999999955 38.200000000000045 81.39999999999998 60.60000000000002 10.200000000000045 8.799999999999955 18.399999999999977 18.699999999999932 17.300000000000068 29.100000000000023 1.1999999999999318 58.799999999999955-80.5 117.69999999999993-131.20000000000005 96.89999999999998z"/>
</svg>
