<svg xmlns="http://www.w3.org/2000/svg" viewBox="0 0 1000 1000" width="1000" height="1000">
<path d="M585.4 111.9c44.60000000000002 9.199999999999989 8 30.5 9.800000000000068 46.099999999999994 14 4.5 31.5-41.7 41.59999999999991 3.4000000000000057 0.10000000000002274 0.5999999999999943 4.2000000000000455 1.299999999999983 4.7000000000000455 0.6999999999999886 15.200000000000045-20.299999999999983 27.700000000000045-1.4000000000000057 41.299999999999955 2.5999999999999943 34.10000000000002 10.100000000000023 66.30000000000007 6.5 91.40000000000009-20 26.899999999999977-28.499999999999986 27.399999999999977-62.999999999999986 14.699999999999932-98.1-11.899999999999977-32.599999999999994-38.299999999999955-43.8-70.69999999999993-45.099999999999994-24.5-1-70.60000000000002 9.4-88.5 20.1-5.300000000000068 3.099999999999998-9.300000000000068-0.3000000000000007-14-1.8000000000000007-8.900000000000091-2.900000000000002-15.700000000000045-12.3-27.90000000000009-9.200000000000001 5.2000000000000455 19.799999999999997 39.40000000000009 39.199999999999996-3 57.99999999999999 39.200000000000045 14.400000000000006 20.800000000000068 28.30000000000001 0.6000000000000227 43.30000000000001z m93.70000000000005-91c12.699999999999932-6.600000000000005 26-9.200000000000006 40.5-6.100000000000005 37 7.899999999999999 55.60000000000002 41 48.299999999999955 86.7-5.199999999999932 32.5-33 53.30000000000001-67.19999999999993 50.19999999999999-12.100000000000023-1.0999999999999943-26.700000000000045-2.299999999999983-30.700000000000045-14.699999999999989-5.7999999999999545-18.099999999999994 6.899999999999977-10.5 14.899999999999977-7.800000000000011 4.600000000000023 1.5 9.200000000000045 3.1000000000000227 17.300000000000068 5.800000000000011-15.5-47.400000000000006 22.09999999999991-14.099999999999994 33.09999999999991-25.5-3.699999999999932-14.099999999999994-47.799999999999955-32.599999999999994 7.300000000000068-41-13.200000000000045-13.899999999999999-45.200000000000045 2.700000000000003-37.80000000000007-29.700000000000003 0.7000000000000455-2.799999999999997-12.399999999999977-0.09999999999999432-18.899999999999977 1.5-6.2999999999999545 1.6000000000000014-12.299999999999955 2-14.799999999999955-5.299999999999997-2.6000000000000227-7.300000000000001 2.699999999999932-11.399999999999999 8-14.100000000000001z m-28.300000000000068 27.699999999999996c14.600000000000023-1.1000000000000014 28.200000000000045 19.6 35.80000000000007 41.1 0 0.5-34.80000000000007 30.299999999999997-38.30000000000007 27.39999999999999-8.699999999999932-7.299999999999997-21.59999999999991-16.099999999999994-22.199999999999932-25.099999999999994-1.3000000000000682-18.200000000000003 7.600000000000023-42.2 24.699999999999932-43.4z m26.300000000000068 684.1999999999999c22.799999999999955 1.900000000000091 33.60000000000002-10.5 34.10000000000002-31.699999999999932 0.6999999999999318-32.200000000000045-19.100000000000023-50.10000000000002-49.700000000000045-64.39999999999998 5.399999999999977 23.399999999999977-7.7000000000000455 40.39999999999998-9.5 59.799999999999955-1.6000000000000227 18.600000000000023 2.2999999999999545 34.299999999999955 25.100000000000023 36.299999999999955z m70.60000000000002-327.09999999999997c-9.900000000000091 0.6999999999999886-17.100000000000023 7.199999999999989-15.600000000000023 18.100000000000023 1.1999999999999318 8.800000000000011 7.7999999999999545 14.399999999999977 16.899999999999977 13.5 9-0.9000000000000341 13.299999999999955-7.800000000000011 14.799999999999955-16.19999999999999-2.5-8.5-6.899999999999977-16.100000000000023-16.09999999999991-15.400000000000034z m-162.9000000000001-337.1z m-128.99999999999994 723.5c0.8999999999999773 13.400000000000091-3.8000000000000114 15.600000000000136-15.800000000000011 10.300000000000068-14.5-6.399999999999977-26.899999999999977-0.1999999999999318-32.19999999999999 13-12 30.399999999999977-30.80000000000001 47.89999999999998-71.5 37.10000000000002 21.30000000000001 37.39999999999998 49.80000000000001 34.5 76.5 29.700000000000045 24.599999999999966-4.400000000000091 44.19999999999999-18.100000000000023 48.80000000000001-45.700000000000045 1.2999999999999545-7.7000000000000455-4.900000000000034-23.399999999999977 9.399999999999977-19 35.30000000000001 10.799999999999955 18.5-15.299999999999955 18.19999999999999-25.5-0.39999999999997726-14.700000000000045-18.099999999999966-14.799999999999955-27.099999999999966-18-9.900000000000034-3.2000000000000455-6.800000000000011 10.899999999999977-6.300000000000011 18.100000000000023z m216.7 57.600000000000136c-0.6000000000000227 23.699999999999932 20.700000000000045 18.5 37.60000000000002 21.59999999999991 13.399999999999977-5.599999999999909 38.39999999999998 0.7000000000000455 37.69999999999993-25.399999999999977-0.599999999999909-22.299999999999955-22.799999999999955-19.5-37-19-15.5 0.6000000000000227-37.69999999999993-0.8999999999999773-38.299999999999955 22.800000000000068z m259.1-581.7c-36 14.800000000000011-38 22.100000000000023-10.700000000000045 52.39999999999998 9.899999999999977 11 21.600000000000023 20.400000000000034 33.30000000000007 29.600000000000023 9.699999999999932 7.600000000000023 18.09999999999991 3.3999999999999773 19.5-7.699999999999989 4.2999999999999545-33.10000000000002 10.599999999999909-66.30000000000001 3.599999999999909-99.60000000000002-12.099999999999909-0.39999999999997726-15.899999999999977 8-22.5 11.900000000000006-7.7999999999999545 4.599999999999994-15.099999999999909 10.000000000000028-23.199999999999932 13.400000000000006z m-81-34.599999999999994c-3.7000000000000455-15.5-7.899999999999977-38.80000000000001-23.300000000000068-37.80000000000001-33.69999999999993 2.3000000000000114-67.29999999999995-12.599999999999994-101.29999999999995 2.3000000000000114-14.299999999999955 6.299999999999983-12.200000000000045 11.900000000000006-8.899999999999977 21.900000000000006 9.600000000000023 28.799999999999983 42.5 50.099999999999966 80.89999999999998 50.099999999999966 10.799999999999955 1.3000000000000114 24.399999999999977-2.2999999999999545 37.10000000000002-7.899999999999977 12.199999999999932-5.199999999999989 18.799999999999955-14.599999999999994 15.5-28.599999999999994z m-99.89999999999998-14.300000000000011c26.5 5.099999999999994 48.09999999999991 9.200000000000017 71.59999999999991 13.700000000000017-25.59999999999991 22.799999999999983-53.89999999999998 17.69999999999999-71.59999999999991-13.700000000000017z m49.69999999999993-63.5c44 6.800000000000011 86.39999999999998 11 127.60000000000002-6.299999999999983 38.10000000000002-16 53.10000000000002-43.20000000000002 46.89999999999998-83.30000000000001-2.7999999999999545-18.200000000000003-14.399999999999977-35.2-5.600000000000023-55.2 3.7000000000000455-8.499999999999996-5.7999999999999545-8.099999999999998-11.199999999999932-9.199999999999998-27.700000000000045-5.5-34.39999999999998 2.3000000000000003-34.60000000000002 40.9-0.10000000000002274 11.100000000000001 0.5 22.5-10.399999999999977 29.5-4.399999999999977 2.799999999999997-10 2.299999999999997-14-1.2000000000000028-10.100000000000023-8.899999999999999-7.100000000000023-19.699999999999996-3.6000000000000227-30.4 5.2000000000000455-15.599999999999998 6.899999999999977-30.9-13.799999999999955-35.5-24.5-5.499999999999998-49-4.599999999999999-78.80000000000007 5.200000000000001 15.700000000000045 6.4 25.300000000000068 9.500000000000002 34 14.1 10.100000000000023 5.5 25.600000000000023 10.099999999999998 23.800000000000068 23.000000000000004-1.5 10.699999999999996-17.100000000000023 5.899999999999999-26.200000000000045 9-4.899999999999977 1.6999999999999957-11.600000000000023 1.0999999999999943-14.299999999999955 9.299999999999997 6.7999999999999545 2.299999999999997 13.5 3.9000000000000057 19.59999999999991 6.799999999999997 14.900000000000091 7 33.700000000000045 9.799999999999997 37.200000000000045 30.400000000000006 1.2999999999999545 7.3999999999999915-1.5 14.299999999999997-8.600000000000023 17.599999999999994-18.600000000000023 8.500000000000014-32.19999999999993-3.200000000000003-49.39999999999998-15.599999999999994 4.100000000000023 22.299999999999997-0.7999999999999545 38.60000000000001-18.600000000000023 50.89999999999999z m135.89999999999998-80.69999999999999c0.5-4.400000000000006 4.300000000000068-7.700000000000003 8.200000000000045-6.5 3.2999999999999545 1 6.7999999999999545 4.699999999999989 8 7.8999999999999915 6.2000000000000455 16.799999999999997 2.8999999999999773 31.799999999999997-12.299999999999955 41.900000000000006-15.700000000000045 10.499999999999986-33.60000000000002 13.700000000000003-53 11.899999999999991 22.199999999999932-13.899999999999991 45.69999999999993-25.599999999999994 49.09999999999991-55.19999999999999z m-153.0999999999999 436.70000000000005c-19.300000000000068 2.8999999999999773-42.10000000000002-1.8000000000000114-51.40000000000009 23.100000000000023 16.90000000000009 14.099999999999909 45.5 20.799999999999955 41.200000000000045 49.5-4.7000000000000455 31.299999999999955-37 27.399999999999977-55.89999999999998 36.5 8.299999999999955 18.199999999999932 21 31.699999999999932 41 37.39999999999998 0.2999999999999545-4.100000000000023 0.7999999999999545-8 0.8999999999999773-12 0.39999999999997726-19.899999999999977 5-45.80000000000007 26.299999999999955-42.200000000000045 20.700000000000045 3.6000000000000227 11.800000000000068 28.800000000000068 7.5 46.200000000000045-1.8999999999999773 7.5-10.299999999999955 20.5 10.300000000000068 17 5.2999999999999545-0.8999999999999773 12.199999999999932 7.699999999999932 26.699999999999932 17.799999999999955-13.5-22-9.299999999999955-32 14.800000000000068-33.60000000000002-18-11.5-29.100000000000023-18.5-36.200000000000045-29.699999999999932-5.100000000000023-8.200000000000045-13.5-18.200000000000045-3.2999999999999545-26.600000000000023 9.199999999999932-7.5 19.199999999999932-0.2999999999999545 26.5 6.600000000000023 7.899999999999977 7.5 14.600000000000023 16.299999999999955 21.600000000000023 24.399999999999977 13.299999999999955-13.700000000000045 18.09999999999991-29.399999999999977 10.299999999999955-48.10000000000002-19.200000000000045 2.8999999999999773-45.60000000000002 18.600000000000023-52.60000000000002-1.1000000000000227-8.899999999999977-24.899999999999977 24.100000000000023-20.299999999999955 38.10000000000002-28.5-7.600000000000023-21.199999999999932-22.899999999999977-29.59999999999991-43.60000000000002-31-0.7999999999999545 12.600000000000023 5.100000000000023 24.40000000000009 0.6000000000000227 36.30000000000007-2.7999999999999545 7.399999999999977-4.399999999999977 17.5-14.200000000000045 16.699999999999932-11.199999999999932-0.8999999999999773-12.699999999999932-11.799999999999955-12.799999999999955-20.59999999999991-0.10000000000002274-12.700000000000045 8-24.800000000000068 4.2000000000000455-38.10000000000002z m-528.5 84.79999999999995c5.199999999999932 8.399999999999977 11.099999999999966 17 13.499999999999943 26.399999999999977 4 15.800000000000068-0.5999999999999659 26.40000000000009-20 20.700000000000045-4.099999999999994-1.2000000000000455-7.099999999999994-9.200000000000045-12.099999999999994-2.7000000000000455-4 5.2000000000000455-1.799999999999983 11.100000000000023 0.9000000000000057 16.90000000000009 6.900000000000006 14.299999999999955 19.100000000000023 17.699999999999932 32.60000000000002 14.299999999999955 18.599999999999966-4.600000000000023 24.899999999999977-19.100000000000023 22.69999999999999-36.89999999999998-2.8000000000000114-21.899999999999977-18.600000000000023-37.10000000000002-30.400000000000034-54.30000000000007-27.099999999999966-39.5-55.099999999999966-78.49999999999994-41.79999999999998-136.39999999999998-38.099999999999994 32.900000000000034-56.69999999999999 66.70000000000005-54.79999999999998 111.30000000000007 1 22.799999999999955 1.3999999999999773 48.09999999999991-36.20000000000002 40.59999999999991 3.9000000000000057 15.700000000000045 12.5 20.300000000000068 24.900000000000006 18.100000000000023 15.300000000000011-2.699999999999932 20.69999999999999-13.600000000000023 22.099999999999994-27.899999999999977 2.5999999999999943-25.899999999999977-5.799999999999983-53.299999999999955 10.099999999999994-77.30000000000001 1.5 29.400000000000034 18.200000000000017 54.30000000000001 18.30000000000001 82.59999999999997 0 10.400000000000091 4.400000000000006 23.5-11.5 26.300000000000068-5.199999999999989 0.8999999999999773-10.099999999999994-0.10000000000002274-9 7.100000000000023 0.8000000000000114 5.199999999999932 4.099999999999994 9.5 9.300000000000011 10.699999999999932 20.399999999999977 4.800000000000068 28.399999999999977-7.2999999999999545 28.099999999999994-24.5-0.20000000000001705-16.899999999999977-6.300000000000011-33.10000000000002-12.5-49.10000000000002-9.099999999999994-23.299999999999955-13.599999999999994-47.19999999999993-4.700000000000017-72.79999999999995 9.600000000000023 39.39999999999998 29.80000000000001 73.29999999999995 50.5 106.89999999999998z m491.0999999999999 139.20000000000005c14.100000000000023 0.7999999999999545 25.800000000000068-4.399999999999977 25.800000000000068-21.600000000000023 0-20.299999999999955-12.700000000000045-34-30.300000000000068-34.10000000000002-18.699999999999932-0.10000000000002274-4.599999999999909 23.5-14.699999999999932 29.700000000000045-3.2000000000000455 18 5.7999999999999545 25.199999999999932 19.199999999999932 26z m217.30000000000007-514.1c8-13.199999999999989 11.5-26.900000000000006-4.7000000000000455-42-8.199999999999932 36.900000000000006-34.39999999999998 48-64.89999999999998 53.69999999999999-7.100000000000023 1.4000000000000057-18.5 0.5-16 12.400000000000006 1.8999999999999773 9 12 11.000000000000028 19.5 10.099999999999994 26.100000000000023-3 51.200000000000045-9.599999999999994 66.10000000000002-34.19999999999999z m-30.200000000000045-37.900000000000006c-4.100000000000023-8.5-11.399999999999977-5.299999999999983-18-3.4000000000000057-9.399999999999977 2.700000000000017-18.799999999999955 5.600000000000023-28.199999999999932 8.200000000000017-6.600000000000023 1.799999999999983-18.300000000000068-2.700000000000017-14.800000000000068 11.199999999999989 2.2000000000000455 9.099999999999994 7.5 16.30000000000001 24.399999999999977 15.200000000000017 7.400000000000091-0.8000000000000114 18.90000000000009-6.300000000000011 29.40000000000009-13.800000000000011 5.699999999999932-4 10.899999999999977-9.699999999999989 7.199999999999932-17.400000000000006z m-265 59c6.800000000000068 3.3000000000000114 11-6.099999999999994 13.600000000000023-12.5 4.5-11 12.899999999999977-27 2.7999999999999545-32.900000000000006-15.199999999999932-8.899999999999977-32.59999999999991-20.299999999999983-52.799999999999955-14.5-15.399999999999977 4.400000000000006-26.700000000000045 13.200000000000017-27 34.30000000000001 11-3.9000000000000057 19.899999999999977-9.199999999999989 29.100000000000023-9.699999999999989 6.699999999999932-0.4000000000000057 21.199999999999932-2 17 12.799999999999983-4.600000000000023 16.400000000000006 9.299999999999955 18.599999999999994 17.299999999999955 22.5z m-7.199999999999932 119.70000000000002c-10.900000000000091 0.0999999999999659-19 5.800000000000011-19.40000000000009 18-0.5 13.199999999999989 6.900000000000091 19.80000000000001 19.600000000000023 21.69999999999999 12.399999999999977-1.8999999999999773 19.899999999999977-9.399999999999977 19.5-21.80000000000001-0.2999999999999545-11.5-8.600000000000023-18-19.699999999999932-17.899999999999977z m43.19999999999993-40.60000000000002c-13.699999999999932-0.5999999999999659-22.799999999999955 8.300000000000011-22.799999999999955 22.5 0 12.5 6.899999999999977 20.80000000000001 20.399999999999977 21.100000000000023 14.600000000000023 0.30000000000001137 22.100000000000023-7.300000000000011 22.799999999999955-21.69999999999999-0.2999999999999545-13.5-8.699999999999932-21.400000000000034-20.399999999999977-21.900000000000034z m-2.199999999999932 156.3c13.299999999999955-0.10000000000002274 22.09999999999991-8.100000000000023 22.899999999999977-22.399999999999977 0.7999999999999545-15.700000000000045-8.200000000000045-23.400000000000034-22.899999999999977-26.5-13.700000000000045 2.5-24.300000000000068 8.899999999999977-24.300000000000068 24.69999999999999 0 15.599999999999966 9.600000000000023 24.30000000000001 24.300000000000068 24.19999999999999z m-104.60000000000002-228c-8.300000000000068 0.6999999999999886-9.800000000000068 16.30000000000001-8.800000000000068 26.100000000000023 1.3000000000000682 12.899999999999977 2.400000000000091 36.69999999999999 14.800000000000068 32.5 16.799999999999955-5.800000000000011 30.799999999999955-0.30000000000001137 45.89999999999998-1.5 33.299999999999955-2.8000000000000114 51-24 47.39999999999998-61.900000000000034-5.7999999999999545 7.100000000000023-9.5 15.699999999999989-15.699999999999932 18.400000000000034-14 6.099999999999966-30.5 35.799999999999955-43.700000000000045-3.6000000000000227-2.5-7.400000000000006-26.5-11.099999999999994-39.89999999999998-10z m25 489.4c9 0.3000000000000682 14.899999999999977-3.8999999999999773 16.299999999999955-13.399999999999977-1.7999999999999545-11.799999999999955-8.399999999999977-20.799999999999955-20.199999999999932-21.799999999999955-12.900000000000091-1.1000000000000227-6.900000000000091 11.5-9 17.59999999999991-3.5 10.100000000000023 1.5 17.200000000000045 12.899999999999977 17.600000000000023z m27.199999999999932-125.29999999999995c7 5 15.400000000000091 8 22.300000000000068 3 10.899999999999977-7.899999999999977 0.1999999999999318-16-2.7000000000000455-23.5-3.3999999999999773-9-7.5-18.100000000000023 5.600000000000023-21.399999999999977 8.5-2.1000000000000227 21.100000000000023-2.1000000000000227 21.100000000000023 9.799999999999955-0.10000000000002274 14.5 6.699999999999932 14.5 16.399999999999977 12.600000000000023 12.5-2.300000000000068 28.299999999999955-1.6000000000000227 33.39999999999998-14.899999999999977 3.1000000000000227-8.100000000000023-8.399999999999977-16.100000000000023-15.899999999999977-19.5-9-4-15.899999999999977-24.90000000000009-28-8.400000000000091-6.600000000000023 8.900000000000091-11 12.700000000000045-21.100000000000023 10-7.7999999999999545-2.099999999999909-11.600000000000023-7.099999999999909-12.100000000000023-15-0.599999999999909-10.099999999999909 3.7000000000000455-17 12.800000000000068-21.699999999999932 11.600000000000023-5.899999999999977 26.699999999999932-6.5 35.5-19.5-38.30000000000007-17.700000000000045-38.200000000000045-17.700000000000045-52.80000000000007 16.5-1.2999999999999545 3.1000000000000227-5.099999999999909 7.100000000000023-8 7.2999999999999545-7.699999999999932 0.5-10.899999999999977-6.399999999999977-9.599999999999909-12.100000000000023 9.599999999999909-41.39999999999998-22.300000000000068-49.99999999999994-48.10000000000002-65.09999999999997-14.300000000000068 41.900000000000034-12.300000000000068 47.80000000000001 21 68.30000000000001 4.199999999999932 2.6000000000000227 8.799999999999955 4.899999999999977 12.699999999999932 7.899999999999977 8.5 6.399999999999977 15.900000000000091 15.100000000000023 9.400000000000091 25.399999999999977-8.800000000000068 13.800000000000068-16.700000000000045 2.300000000000068-24-3.599999999999909-5.400000000000091-4.400000000000091-10.5-10.200000000000045-18.40000000000009-6.2000000000000455-7.7999999999999545 4-6.199999999999932 11.899999999999977-6.199999999999932 18.600000000000023 0 13.799999999999955 2.199999999999932 27.699999999999932-6.2000000000000455 43.89999999999998 22.5-2.3999999999999773 32.200000000000045-13.600000000000023 42.30000000000007-24.799999999999955 5-5.600000000000023 9.899999999999977-15.5 19-9.300000000000068 8.299999999999955 5.600000000000023 0 12.600000000000023-2.7000000000000455 18.200000000000045-4.2999999999999545 9.199999999999932-5 16.899999999999977 4.2999999999999545 23.5z m-55.89999999999998-211.20000000000005c-1.3999999999999773 13.400000000000034 6.399999999999977 21.200000000000045 18.800000000000068 21.80000000000001 11.199999999999932 0.5 17.5-7.699999999999989 20.299999999999955-18.599999999999966-1.7999999999999545-10.600000000000023-6.899999999999977-18.80000000000001-18.5-19.80000000000001s-19.399999999999977 4.699999999999989-20.600000000000023 16.599999999999966z m-456.09999999999997-105.79999999999995c-2.200000000000017-18.100000000000023-13.000000000000014-35.5-37.30000000000001-33.700000000000045-39.9 0-73.5 31.200000000000045-70.6 70.20000000000005 1.899999999999995 26 28.099999999999994 16.899999999999977 42.5 18.799999999999955 27.299999999999997 3.7000000000000455 68.29999999999998-31.5 65.4-55.299999999999955z m-62.000000000000014 40c-13.399999999999999-4.7000000000000455-21-14.900000000000034-21.799999999999997-29-0.3999999999999986-5.800000000000011 0.8999999999999986-13.200000000000045 7.299999999999997-15 8.299999999999997-2.2000000000000455 7.700000000000003 6.399999999999977 10.5 11.099999999999966 5.5 9.100000000000023 12.100000000000009 17.600000000000023 18.200000000000003 26.19999999999999-2.0999999999999943 8.900000000000034-8.700000000000003 8.600000000000023-14.200000000000003 6.7000000000000455z m35.900000000000006-23.600000000000023c-14.799999999999997-3.1000000000000227-18.400000000000006-16-22.60000000000001-27.600000000000023 0-7.399999999999977 3.6000000000000085-13.599999999999966 10-12.099999999999966 15 3.5 19.400000000000006 17.899999999999977 24 30.099999999999966 2.1000000000000085 5.600000000000023-4.599999999999994 11-11.399999999999991 9.600000000000023z m-33.7 398c-16-18.399999999999977-19.200000000000003-38.299999999999955-5.400000000000006-59.60000000000002 12.200000000000003 0.7000000000000455 16.10000000000001 20.300000000000068 31.900000000000006 12-10.799999999999997-22.600000000000023-6.5-43.5 4.599999999999994-65.19999999999993 18.10000000000001-35.60000000000002 37.599999999999994-70.70000000000005 49.80000000000001-109.00000000000006 4-12.5 11.599999999999994-25.399999999999977 1.5999999999999943-41.39999999999998-19.80000000000001 22-19.599999999999994 55.39999999999998-47.599999999999994 72.99999999999994-5-33.99999999999994 23.799999999999983-60.39999999999998 15.099999999999994-97.09999999999997-23.400000000000006 25-20.5 58.80000000000001-44 85.90000000000003-5.200000000000003-28.100000000000023 7.599999999999994-50.30000000000001 0.5999999999999943-75.40000000000003-17 15.699999999999989-12.799999999999997 34.5-18.5 49.900000000000034-2.999999999999993 8.199999999999989-2.0999999999999943 21.69999999999999-12.299999999999997 21.399999999999977-12.299999999999997-0.39999999999997726-7.399999999999999-13.699999999999989-8.799999999999997-22-1.2000000000000028-7.199999999999989 3.6000000000000014-15.399999999999977-6.299999999999997-25.399999999999977-16.700000000000003 41-18.400000000000002 80.5-10.500000000000004 121 2.3000000000000007 11.899999999999977 0.6999999999999993 30.699999999999932 19.7 26.199999999999932 15.300000000000004-3.699999999999932 22.199999999999996-19.299999999999955 20.6-35.89999999999998-0.5-5.699999999999932-4.700000000000003-11-5.899999999999999-16.799999999999955-1.8999999999999986-9.300000000000068-1.3000000000000043-19.200000000000045 8.800000000000004-23 9.699999999999989-3.7000000000000455 12.899999999999991 6.199999999999932 18.39999999999999 11.699999999999932 13.400000000000006 13.5 14.700000000000003 27.300000000000068 4 43-10.099999999999994 14.900000000000091-20.200000000000003 29.700000000000045-29.099999999999994 45.30000000000007-29.200000000000003 50.69999999999993-23 99.29999999999995 17.299999999999997 135.89999999999998 7.599999999999994 6.899999999999977 16.299999999999997 24.100000000000023 27.5 12.200000000000045 9.299999999999997-9.800000000000068 6-26.800000000000068-4.599999999999994-38.60000000000002-8.700000000000003-9.600000000000023-18.400000000000006-18.300000000000068-26.900000000000006-28.100000000000023z m214.5 149.79999999999995c11.199999999999989-34.89999999999998-6.600000000000023-84-38-102.69999999999993-20.80000000000001-12.399999999999977-42.599999999999994-17.800000000000068-64.5-2.300000000000068-15.800000000000011 11.200000000000045-19.900000000000006 27.40000000000009-16.30000000000001 45.10000000000002 5.100000000000023 25.700000000000045 20.80000000000001 43.10000000000002 46.30000000000001 49.60000000000002 16.599999999999994 4.2000000000000455 33.19999999999999 1 40.69999999999999-16.299999999999955 8.300000000000011-18.90000000000009 1.3000000000000114-35.30000000000007-15.199999999999989-47-7.5-5.300000000000068-17.80000000000001-10.100000000000023-23.599999999999994-0.40000000000009095-6.099999999999994 10.300000000000068 3.4000000000000057 15.200000000000045 12 19.600000000000023 6.400000000000006 3.2000000000000455 16.799999999999983-1.3999999999999773 19.599999999999994 9.899999999999977-10.300000000000011 16.90000000000009-24.5 14.700000000000045-38.900000000000006 7.400000000000091-15.099999999999994-7.7000000000000455-20.69999999999999-21.600000000000023-18.599999999999994-37.60000000000002 1.6999999999999886-13.600000000000023 11.5-20.600000000000023 24.69999999999999-22.200000000000045 27.700000000000017-3.6000000000000227 57.80000000000001 27.100000000000023 59.10000000000002 59.80000000000007 1 28-16.30000000000001 43.59999999999991-48.60000000000002 43.69999999999993-37.5 0.10000000000002274-61.29999999999998-18.100000000000023-74.29999999999998-53.5-5.599999999999994-15.299999999999955-1.200000000000017-31.199999999999932-6.900000000000006-48.799999999999955-22.099999999999994 16.600000000000023-27.599999999999994 37-22.099999999999994 61 11.199999999999989 49.299999999999955 64.5 82.79999999999995 117.5 74.89999999999998 24.400000000000006-3.6000000000000227 39.70000000000002-17.100000000000023 47.099999999999994-40.200000000000045z m-234.4-763.6999999999999c1.000000000000007-5.300000000000026-7.299999999999997-5.40000000000002-12.099999999999994-4.300000000000026-14.7 3.4000000000000057-26.6 9.299999999999997-21.3 31.799999999999997 15.500000000000004-6.099999999999994 30.2-10.799999999999997 33.400000000000006-27.5z m4.200000000000003 151.79999999999998c-19.599999999999994-7.599999999999994-23.4-25.5-29.9-42.5-13.7 11.699999999999989-18.4 24.400000000000006-8.099999999999998 37.5 9.099999999999998 11.400000000000006 21.499999999999996 17.400000000000006 38 5z m13.5 163.9c-22.699999999999996 4.699999999999989-40.699999999999996 3-57.4-12.699999999999989 8.100000000000001 37.89999999999998 18.9 40.19999999999999 57.4 12.699999999999989z m623.2 340.2c-39.700000000000045 12.799999999999955-78.29999999999995 18.399999999999977-111.70000000000005-6.100000000000023-22.399999999999977-16.399999999999977-25.899999999999977 4.100000000000023-31.399999999999977 12.700000000000045-8 12.600000000000023 4.800000000000068 18.600000000000023 15.100000000000023 22.899999999999977 15.799999999999955 6.600000000000023 32.200000000000045 5.100000000000023 46.60000000000002-2.3999999999999773 21.199999999999932-11 20.899999999999977 6.199999999999932 26.199999999999932 17.299999999999955 8.200000000000045 17.300000000000068-6.5 18.200000000000045-15.799999999999955 20.5-18.799999999999955 4.800000000000068-38 4-55.799999999999955-4.399999999999977-24.200000000000045-11.299999999999955-40.200000000000045-29.100000000000023-41.40000000000009-57.299999999999955-1.1999999999999318-27.600000000000023 17.5-38.10000000000002 39.40000000000009-45.90000000000009 6.2999999999999545-2.2999999999999545 17.799999999999955-3.699999999999932 15.699999999999932-11-10.699999999999932-36.39999999999998 16.300000000000068-20.5 30.300000000000068-23.399999999999977 7.2999999999999545-1.5 25.199999999999932-4.7999999999999545 11.899999999999977-13.399999999999977-30.899999999999977-19.899999999999977 8.100000000000023-17.899999999999977 7.5-26.799999999999955-36.5-17.5-77-6.7000000000000455-107.70000000000005 27.59999999999991-31.69999999999999 35.5-36.39999999999998 87.30000000000007-11.699999999999932 128.20000000000005 24.399999999999977 40.299999999999955 69.89999999999998 58.700000000000045 116.79999999999995 47 37-9 63.89999999999998-42.700000000000045 66-85.5z m-78.10000000000002 126.29999999999995c-6-5.599999999999909-0.6000000000000227-20.199999999999932-21.199999999999932-15.799999999999955-26.300000000000068 5.600000000000023-57.200000000000045 9-82-11.399999999999977-11.400000000000034-9.300000000000068-19.400000000000034-10.399999999999977-26.600000000000023 5.5-8.100000000000023 17.899999999999977-23.600000000000023 29.799999999999955-41.5 37.299999999999955-16.200000000000045 6.7000000000000455-31.200000000000045 12-43.5 27.399999999999977-15.5 19.40000000000009-44.60000000000002 11.600000000000023-55-11.199999999999932-6.2000000000000455-13.600000000000023-12.5-26.899999999999977-29.80000000000001-34.80000000000007-3.3000000000000114 39.40000000000009-30.100000000000023 48.90000000000009-65.30000000000001 50.30000000000007 11.800000000000011 15.699999999999932 24.600000000000023 23.100000000000023 38.39999999999998 24 28.100000000000023 1.7999999999999545 50.700000000000045 15.299999999999955 74.40000000000003 28.199999999999932 45.69999999999999 24.800000000000068 93.39999999999998 27.40000000000009 141.3 6.400000000000091 11.5-5.100000000000023 17.899999999999977-4 28.699999999999932 3.3999999999999773 22.100000000000023 15.100000000000023 45.40000000000009 11.399999999999977 71-5.7000000000000455-60.299999999999955-7.5-73.29999999999995-10.399999999999977-87.19999999999993-32.69999999999993-12.5-20.100000000000023-20.900000000000034-19.5-38.5-5.800000000000068-36.5 28.200000000000045-77.80000000000001 30.700000000000045-109 7.300000000000068 43.69999999999999 0.7999999999999545 82.79999999999995-5.5 112.19999999999999-35.90000000000009 19.5-20.199999999999932 32.900000000000034-19.199999999999932 44.30000000000001 6.7000000000000455 2.3999999999999773 5.2999999999999545 6.2999999999999545 10.200000000000045 10.299999999999955 14.600000000000023 26.399999999999977 29.100000000000023 51.700000000000045 24.199999999999932 65.10000000000002-12.100000000000023 3.2999999999999545-8.899999999999977 1.8999999999999773-20.399999999999977 13.399999999999977-25.299999999999955 14.200000000000045-5.900000000000091 7.100000000000023-14.300000000000068 0.5-20.40000000000009z m-51.60000000000002 39.5c-11 0.20000000000004547-16.199999999999932-6.899999999999977-15.5-17.399999999999977 0.6000000000000227-9.299999999999955 6.2000000000000455-14.399999999999977 15.800000000000068-14 9.799999999999955 0.39999999999997726 13.199999999999932 7.300000000000068 14.899999999999977 15.600000000000023-1.7000000000000455 8.700000000000045-6 15.600000000000023-15.200000000000045 15.799999999999955z m187.4000000000001-46.09999999999991c-23.800000000000068 14.599999999999909-49.5 20.399999999999977-77.30000000000007 15.5-22.699999999999932-4-41.10000000000002 15.5-43.69999999999993 46.19999999999993-2.1000000000000227 23.700000000000045 10.5 37 38.89999999999998 37.39999999999998 31.600000000000023-3.7999999999999545 64.89999999999998-12.5 91.5-38.09999999999991 12.699999999999932-12.200000000000045 21.199999999999932-26.300000000000068 19.5-44.90000000000009-1.8999999999999773-19.59999999999991-9.300000000000068-28.199999999999932-28.899999999999977-16.09999999999991z m-25.200000000000045 61.89999999999998c-11 7.100000000000023-22.799999999999955 13.600000000000023-36.39999999999998 9.199999999999932-6.2000000000000455-2-2.8999999999999773-8.399999999999977-2.2000000000000455-13 0.8000000000000682-14.899999999999977 39.700000000000045-39.19999999999993 52.5-32.39999999999998 2.2000000000000455 1.2000000000000455 4.2000000000000455 4.7000000000000455 4.399999999999977 7.300000000000068 0.5 13.699999999999932-7.899999999999977 22.299999999999955-18.299999999999955 28.899999999999977z m243.79999999999995-415.9c-8.699999999999932-4.2000000000000455-15 1.2999999999999545-21.199999999999932 6.7999999999999545-7.899999999999977 7-12.5 18.399999999999977-28 20.600000000000023 3.2999999999999545-24.100000000000023 16.799999999999955-39.200000000000045 29-54.700000000000045 39.39999999999998-49.89999999999998 32.799999999999955-89.89999999999998-21.100000000000023-121.39999999999998-7-4.100000000000023-14.399999999999977-7.5-18.100000000000023-15-25.799999999999955-52.89999999999998-68.79999999999995-68.80000000000001-124.39999999999998-58.89999999999998-5.7999999999999545 1-12.399999999999977 0.7999999999999545-17.799999999999955-1.1000000000000227-20.40000000000009-6.899999999999977-18.90000000000009 5.300000000000011-16.800000000000068 18.30000000000001 11.5 70.59999999999997 72.30000000000007 104.69999999999999 141.89999999999998 77.30000000000001 22.90000000000009-9 40.700000000000045-7.900000000000034 56.700000000000045 10 16.399999999999977 18.399999999999977 18.600000000000023 39.599999999999966 7.399999999999977 61.19999999999999-4.699999999999932 9.099999999999966-9.100000000000023 23.399999999999977-23.199999999999932 18.30000000000001-12-4.300000000000011-11.800000000000068-17.200000000000045-10.400000000000091-28.600000000000023 1.6000000000000227-13.699999999999989 10.5-27.5 1-42-41.5 27-42.09999999999991 50.89999999999998-2.699999999999932 76.80000000000001 8 5.300000000000011 12.600000000000023 9.5 6.399999999999977 18.69999999999999-8.5 12.600000000000023-11.899999999999977 28.299999999999955-26.5 37.700000000000045-5.2000000000000455 3.3999999999999773-6.399999999999977 10.299999999999955-10.200000000000045 0.7999999999999545-20-50.19999999999999-81-69.19999999999999-94.39999999999998-124.39999999999998-0.6000000000000227-2.5-5.7999999999999545-3.8000000000000114-10-6.400000000000034-1.1000000000000227 5.800000000000011-1.6000000000000227 9.699999999999989-2.5 13.600000000000023-9.699999999999932 45.69999999999999-7.899999999999977 48.599999999999966 38.5 61.099999999999966 23.700000000000045 6.400000000000034 40.39999999999998 21.80000000000001 52 42.5 9.600000000000023 17.100000000000023 17.600000000000023 35.200000000000045 26.5 53.200000000000045 29.399999999999977-34 33.30000000000007-34.200000000000045 55.30000000000007-3.6000000000000227 11.599999999999909-10.799999999999955 16.899999999999977-24.600000000000023 19-39.60000000000002 1.1999999999999318-7.600000000000023 2.7999999999999545-16.799999999999955-6.400000000000091-21.199999999999932z m-116.69999999999993-134.70000000000005c-14.5-10.600000000000023 4.699999999999932-15.399999999999977 1.3999999999999773-23.600000000000023-9.5-4.399999999999977-16.299999999999955 4.5-24.399999999999977 5.2000000000000455-4.899999999999977 0.39999999999997726-23.800000000000068 23.799999999999955-17.5-9.100000000000023 2.8999999999999773-15-22 1.6000000000000227-35.39999999999998-12.600000000000023 20.5-2.1999999999999886 19.199999999999932-16 17.299999999999955-29.19999999999999 15.299999999999955 0.9000000000000341 16.899999999999977 16.400000000000034 28.5 19.19999999999999 9.100000000000023-3.2999999999999545 0.5-15.599999999999966 10-19.599999999999966 15.299999999999955-3.400000000000034 13.200000000000045 51.80000000000001 41.39999999999998 11.699999999999989 6.2000000000000455 14.300000000000011 12.899999999999977 27.30000000000001 27.300000000000068 40.30000000000001-21.800000000000068 0-37 5.399999999999977-48.60000000000002 17.69999999999999z m-32.5 37.69999999999999c28.399999999999977 36.10000000000002 55.60000000000002 62.400000000000034 77.39999999999998 93.00000000000006-17.399999999999977-34.200000000000045-16-82.50000000000006-77.39999999999998-93.00000000000006z m36.89999999999998 286.90000000000003c-26.700000000000045-9.800000000000068-51.60000000000002-7.2000000000000455-70 17.100000000000023-14.399999999999977 19-32.299999999999955 32.5-55.5 38.299999999999955-12.200000000000045 3-22.100000000000023 7.7000000000000455-15.100000000000023 22.200000000000045 7 14.399999999999977 18.200000000000045 8.5 27.899999999999977 2.8999999999999773 18.5-10.600000000000023 31.800000000000068-27.100000000000023 46.40000000000009-42.10000000000002 4.399999999999977-4.5 10-12.600000000000023 17.199999999999932-5 5.800000000000068 6.100000000000023 2.1000000000000227 13.5-3.199999999999932 18.5-13 12.299999999999955-26.200000000000045 24.5-39.90000000000009 36.10000000000002-15.099999999999909 12.699999999999932-12.099999999999909 23 2.6000000000000227 33.299999999999955 17.300000000000068 12.100000000000023 33.5 12.399999999999977 48.10000000000002-3.699999999999932 9.299999999999955-10.300000000000068 17.299999999999955-21.90000000000009 26.5-32.40000000000009 5.2000000000000455-6 8.200000000000045-20.299999999999955 19.200000000000045-12.299999999999955 8.599999999999909 6.2000000000000455 1.1999999999999318 16.799999999999955-2.900000000000091 24.399999999999977-10.699999999999932 20.100000000000023-27.5 33.80000000000007-47.59999999999991 44-5.300000000000068 2.7000000000000455-15.100000000000023 5.2000000000000455-8.900000000000091 14.899999999999977 4.2000000000000455 6.600000000000023 8.800000000000068 12.5 19.300000000000068 8.800000000000068 30.100000000000023-10.800000000000068 74.69999999999993-73.20000000000005 75.10000000000002-106.70000000000005-1.400000000000091-27.399999999999977-12.5-48.5-39.200000000000045-58.299999999999955z m2.2000000000000455 46.19999999999993c-14-0.599999999999909-24.700000000000045-7.699999999999932-26.600000000000023-22.799999999999955-1.2000000000000455-9.700000000000045 5.399999999999977-14 14.399999999999977-15.299999999999955 13.700000000000045 3.199999999999932 27.600000000000023 7.899999999999977 30.200000000000045 23.899999999999977 2 11.799999999999955-9.300000000000068 14.5-18 14.199999999999932z m61.299999999999955-153.5c-14.799999999999955 1.6000000000000227-20.299999999999955 11.300000000000068-19.399999999999977 25.100000000000023 0.6000000000000227 9.300000000000068 0.10000000000002274 15.100000000000023-12.5 12.899999999999977-14.700000000000045-2.599999999999909-25.700000000000045 4.800000000000068-29.100000000000023 19.40000000000009-3.6000000000000227 15.599999999999909 6.7000000000000455 24.399999999999977 19.299999999999955 29.699999999999932 18.90000000000009 8.100000000000023 34.60000000000002 19.200000000000045 43.30000000000007 43.60000000000002 27.199999999999932-35.299999999999955 43.799999999999955-68.10000000000002 29.899999999999977-108.70000000000005-4.899999999999977-14.299999999999955-14.899999999999977-23.899999999999977-31.5-22z m-830.2-209.89999999999998c4.7000000000000455 11.900000000000034 15.100000000000051 13.900000000000034 28.90000000000005 7.2000000000000455-9.799999999999997-10.5-8.799999999999997-23.700000000000045-11.799999999999997-38.30000000000001-17.700000000000003 6.300000000000011-22.400000000000006 17.5-17.10000000000001 31.099999999999966z m327.80000000000007 271.4c8.5 5.5 17.69999999999999 11.700000000000045 14 23.700000000000045-3.7000000000000455 12.200000000000045-15.100000000000023 15.399999999999977-26 17-33.400000000000034 4.899999999999977-62.900000000000034-3.7999999999999545-86.20000000000005-28.399999999999977-6.699999999999989 5.5-7.699999999999989 11.199999999999932-7.7999999999999545 17.399999999999977-1 58.299999999999955 67.59999999999997 97.5 122 69.60000000000002 25.099999999999966-12.899999999999977 39.299999999999955-33.60000000000002 40.89999999999998-61.80000000000007 1.5-26.399999999999977-12.100000000000023-43.19999999999993-36.5-52-13.800000000000011-5-19.30000000000001-19-29.5-28.5-13.800000000000011 18.600000000000023-7.800000000000011 31.90000000000009 9.100000000000023 43z m29.599999999999966 39c7.900000000000034-3.099999999999909 8.600000000000023 5.5 8.5 13.200000000000045-3.1999999999999886 16-14.300000000000011 27.700000000000045-30.19999999999999 32.5-10.100000000000023 3-9-7.399999999999977-9.199999999999989-14.299999999999955-0.6000000000000227-21 16.69999999999999-25.700000000000045 30.899999999999977-31.40000000000009z m-259.2-266.19999999999993c19.5-19.5 40.80000000000001-32.60000000000002 71.10000000000002-27.200000000000045-2.1000000000000227 6.2000000000000455-3.7000000000000455 10.700000000000045-5.100000000000023 15.200000000000045-15.5 51.39999999999998-7.400000000000006 98.79999999999995 25.100000000000023 141.60000000000002 4.5 5.899999999999977 10.099999999999966 15.299999999999955 19.299999999999955 9.199999999999932 11.5-7.600000000000023 2.6000000000000227-16-2.2999999999999545-22.799999999999955-21.80000000000001-30.200000000000045-25.100000000000023-65.5-27.80000000000001-100.60000000000002-1.1000000000000227-14.399999999999977 5.5-30.80000000000001 18.399999999999977-33.69999999999999 11.600000000000023-2.6000000000000227 18.30000000000001 13.599999999999966 22.19999999999999 24.599999999999966 3.400000000000034 9.600000000000023 3.5 20.400000000000034 5.400000000000034 32.80000000000001 16-8.599999999999966 27.80000000000001-17.69999999999999 30-34 3.5-26-24-27.399999999999977-37-41.5 37.599999999999966-9.899999999999977 46.5-8.899999999999977 78 8.400000000000034 6.300000000000011-44.400000000000034-16.19999999999999-50.80000000000001-88.5-23.400000000000034 2.099999999999966-18 43.099999999999966-39.69999999999999 2.8000000000000114-50.39999999999998-29.200000000000045-7.800000000000011-11 28.899999999999977-25.80000000000001 44.39999999999998-2.6999999999999886-3.8000000000000114-5.300000000000011-7.699999999999989-8.199999999999989-11.5-10.5-13.399999999999977-20.100000000000023-28-39.10000000000002-30.19999999999999-12.800000000000011-1.3999999999999773-21.900000000000006 3.5-23.400000000000006 17-1.6999999999999886 15.800000000000011 10.800000000000011 10.399999999999977 18.599999999999994 11.300000000000011 17.30000000000001 2 31.30000000000001 8.399999999999977 40.60000000000002 26-68.60000000000002 1.3999999999999773-76.9 6.399999999999977-74.30000000000001 44.80000000000001z m53.599999999999994 290.5c35.099999999999994 6.100000000000023 54.900000000000006 25.399999999999977 57.900000000000006 61.60000000000002 0.5 6.599999999999909 4 13.599999999999909 7.699999999999989 19.299999999999955 12.199999999999989 18.799999999999955 30.5 24.5 52 21.5 9.100000000000023-1.2000000000000455 15.800000000000011-6.7000000000000455 13.800000000000011-15.899999999999977-4.5-21.300000000000068-17.899999999999977-38.5-39.30000000000001-39.700000000000045-23.399999999999977-1.2999999999999545-29.5-13.199999999999932-35-32.10000000000002-7-24-19.899999999999977-44-51.19999999999999-44.19999999999993-8.900000000000006 0.6999999999999318-22.599999999999994-0.8000000000000682-25.5 12.399999999999977-3.0999999999999943 13.600000000000023 10.599999999999994 15.5 19.599999999999994 17.100000000000023z m-136.1-506.40000000000003c-0.09999999999999432-24-13.400000000000006-43.69999999999999-29.599999999999994-42.79999999999998-14.900000000000006 0.799999999999983-23.400000000000006 9.699999999999989-23.60000000000001 25.19999999999999-0.09999999999999432 18.200000000000017 21.10000000000001 37.5 39.60000000000001 37.5 16.5 0 12.399999999999991-11.799999999999983 13.599999999999994-19.900000000000006z m77.30000000000001 439.00000000000006c-7.800000000000011 1-12.900000000000006 0.39999999999997726-18.200000000000017-5.600000000000023-10.199999999999989-11.300000000000068-30.599999999999994-13.899999999999977-32.400000000000006-2.300000000000068-3.799999999999983 25-40.19999999999999 32.90000000000009-29.39999999999999 62.10000000000002 2.799999999999997 7.600000000000023 10.299999999999997 11.800000000000068 19 12.600000000000023 5.799999999999997 0.5 13.200000000000003-1 17.200000000000003 2 15.5 11.5 36.5 17.5 41.80000000000001-2 5.199999999999989-18.700000000000045 25.099999999999994-26 25.5-47.700000000000045-3.8000000000000114-9.199999999999932-8.300000000000011-21.09999999999991-23.5-19.09999999999991z m-12.600000000000023 34.89999999999998c-1 8.699999999999932-7.099999999999994 14.699999999999932-16.299999999999983 14.100000000000023-9-0.6000000000000227-14.400000000000006-6.800000000000068-13.800000000000011-16.100000000000023 0.5999999999999943-9.300000000000068 6.599999999999994-13.800000000000068 16.099999999999994-14 8.700000000000017 1.7999999999999545 15 6.7999999999999545 14 16z m13.300000000000011-324.3c-0.19999999999998863-18.30000000000001-22.19999999999999-46.5-35.19999999999999-42.30000000000001-16.30000000000001 5.300000000000011-18.100000000000023 21.899999999999977-18.600000000000023 36.89999999999998-0.6999999999999886 19.700000000000045 8.600000000000023 34.200000000000045 28.5 35.30000000000001 18.100000000000023 1 25.900000000000006-12.199999999999989 25.30000000000001-29.899999999999977z m-32.80000000000001-288c13.400000000000006-0.10000000000000853 20-19.400000000000013 34.30000000000001-12.000000000000014 11.900000000000006 6.200000000000003 9.099999999999994 20.700000000000003 12.599999999999994 32.8 11.200000000000017-11.5 4.300000000000011-31.5 22.700000000000017-32.3 15.199999999999989-0.7000000000000028 17.099999999999994 20 31.69999999999999 24.299999999999997-12.699999999999989-46.99999999999999-12.699999999999989-46.99999999999999 30.600000000000023-43.699999999999996-7.300000000000011-16-47.10000000000002-16.9-17.700000000000045-49.8-15.999999999999972 1.8999999999999986-27.19999999999999-2.5000000000000013-35.19999999999999 4.899999999999999-16.5 15.600000000000001-30.799999999999983 18.8-48.29999999999998 0.2999999999999998-8.200000000000017-8.6-22-6.3999999999999995-33.599999999999994-2.0999999999999996 20.799999999999983 30.900000000000002-16.80000000000001 26.7-25.30000000000001 40.5 47.400000000000006-0.7000000000000028 47.400000000000006-0.7000000000000028 28.19999999999999 37.099999999999994z m222.90000000000003 364.7c1.7999999999999545 19.600000000000023-8.900000000000034 31.399999999999977-23.80000000000001 41.39999999999998-45.19999999999999 30.399999999999977-45 40 1.1999999999999886 70.60000000000002 2.5 1.6000000000000227 5.100000000000023 3.2000000000000455 7.5 4.899999999999977 6.100000000000023 4.7000000000000455 15.800000000000011 9 10 18.399999999999977-4.199999999999989 6.900000000000091-13.5 5-19 1-23.30000000000001-17.399999999999977-27.69999999999999 2.6000000000000227-31.5 17-11.300000000000011 42.40000000000009 22.69999999999999 78.30000000000007 77 80.30000000000007-27-24-24.600000000000023-48.200000000000045-4.899999999999977-74.20000000000005 11.299999999999955-14.899999999999977 19.19999999999999-33 0.6999999999999886-47.89999999999998-22.19999999999999-17.799999999999955-18.19999999999999-32.89999999999998-2.3000000000000114-52.80000000000001 19.80000000000001-24.5 14.399999999999977-41.39999999999998-14.899999999999977-58.69999999999999z m22-388.4c2.3999999999999773-0.9000000000000199 4.5-10.100000000000023 2.6999999999999886-13.200000000000024-9-15.299999999999997-21.5-6.600000000000001-37.900000000000034-4.199999999999996 11.300000000000011 14.899999999999999 20.900000000000034 22.799999999999997 35.200000000000045 17.4z m-381 13.59999999999998c17.299999999999976 1.3999999999999915 30.899999999999977 2.299999999999997 44.49999999999997 3.700000000000003 7.700000000000003 0.7999999999999972 17.700000000000003-1.9000000000000057 21.80000000000001 6.199999999999989 4.8999999999999915 9.600000000000009-2.9000000000000057 16.80000000000001-8.800000000000011 23.60000000000001-14.499999999999993 16.39999999999999-29.39999999999999 32.60000000000001-43.49999999999999 49.499999999999986-3.400000000000002 4-9.100000000000001 9.600000000000023-2.900000000000002 15.600000000000023 4.300000000000001 4.099999999999994 9.500000000000004 1.3999999999999773 13.8-0.9000000000000057 15.899999999999999-8.300000000000011 31.599999999999994-17 47.7-25 7.799999999999997-3.8000000000000114 15.899999999999991-11.200000000000017 25-5.800000000000011 9.599999999999994 5.700000000000017 5 16.099999999999994 4.700000000000003 24.700000000000017-0.20000000000000284 5-1.9000000000000057 9.899999999999977-2.5 14.799999999999983-0.8000000000000114 6.099999999999994-0.4000000000000057 12.200000000000017 5 16.400000000000006 6.5 4.900000000000006 11.199999999999989-0.5 16-3.4000000000000057 30.599999999999994-18.5 30.599999999999994-18.599999999999994 35.599999999999994 17.599999999999994l1.3000000000000114 14.900000000000006c1 6.800000000000011 1.0999999999999943 15.599999999999994 10.399999999999977 15.300000000000011 8.600000000000023-0.30000000000001137 9.700000000000017-8.900000000000006 11.200000000000017-15.599999999999994 2.9000000000000057-12.600000000000023 4.699999999999989-25.600000000000023 8.199999999999989-38 3.9000000000000057-13.5 10.599999999999994-23.30000000000001 23.900000000000006-7.400000000000006 12.900000000000006 15.400000000000006 18 6.099999999999994 20.400000000000006-6.800000000000011 4.700000000000017-25.099999999999994 16.700000000000017-20 30.799999999999983-8.400000000000006 10.100000000000023 8.200000000000017 19.900000000000034 16.80000000000001 30.19999999999999 24.700000000000017 5.100000000000023 4 10.800000000000011 11.900000000000006 17.700000000000045 6.199999999999989 5.7999999999999545-4.799999999999983 2.8999999999999773-13.400000000000006 0.7999999999999545-19.900000000000006-4-12.299999999999983-9.799999999999955-24.099999999999994-13.599999999999966-36.5-2.8000000000000114-9.199999999999989-13.400000000000034-19.39999999999999-6.300000000000011-27.499999999999986 8.399999999999977-9.600000000000009 20.30000000000001 0.09999999999999432 30.69999999999999 2.200000000000003 18.600000000000023 3.799999999999997 44 20.799999999999983 54.400000000000034 3.3999999999999915 9.199999999999989-15.299999999999997-17.100000000000023-30.299999999999997-29.80000000000001-43.599999999999994-36.400000000000034-38.1-36.69999999999999-38.300000000000004 9.899999999999977-59.1 4.100000000000023-1.8000000000000007 10.400000000000034-1.4000000000000021 10.600000000000023-10.400000000000002-12.400000000000034 8.881784197001252e-16-25.100000000000023-1.4999999999999993-37.19999999999999 0.4000000000000008-16.400000000000034 2.4999999999999996-38.200000000000045 1.9-44.700000000000045 18.7-5.7999999999999545 14.999999999999996 14.700000000000045 23.8 22.700000000000045 35.900000000000006 5.7999999999999545 8.700000000000003 20.5 16.39999999999999 13.599999999999966 27-8.899999999999977 13.5-21.19999999999999-0.20000000000000284-32-2.799999999999997-2-0.4000000000000057-3.8000000000000114-1.8000000000000114-5.800000000000011-1.9000000000000057-7.399999999999977-0.5999999999999943-14.899999999999977-10-21.899999999999977-1.9000000000000057-5.699999999999989 6.6000000000000085-2 15.300000000000011-0.6999999999999886 23.10000000000001 2.599999999999966 15 18.69999999999999 25.89999999999999 14.199999999999989 44.39999999999999-20-5.299999999999983-28.5-27.39999999999999-48.900000000000006-29-8.299999999999983 9.400000000000006 3.0999999999999943 27.5-11.299999999999983 31.400000000000006-11.900000000000006 3.1999999999999886-11-17.900000000000006-23.900000000000006-19.5-13.400000000000006 10-2.9000000000000057 31.5-18.900000000000006 42.099999999999994-11.800000000000011-14.400000000000006-2.0999999999999943-34-13-47.3-13.199999999999989 4.299999999999997-16.099999999999994 16.299999999999997-23.69999999999999 23.799999999999997-2.9000000000000057 2.9000000000000057-6.200000000000017 5.900000000000006-10.100000000000023 2.8000000000000114-1.8999999999999773-1.5-3-5-3-7.700000000000017-0.39999999999997726-12.299999999999983 11.800000000000011-29.099999999999994-0.799999999999983-35.69999999999999-11.599999999999994-6-24.400000000000006 10.400000000000006-37.900000000000006 13.700000000000003-2.5999999999999943 0.7000000000000028-5.599999999999994-0.29999999999999716-11.200000000000003-0.7000000000000028 6.700000000000003-18 20.900000000000006-25.299999999999997 30.299999999999997-36.599999999999994 9.700000000000017-11.700000000000003 10.099999999999994-19.60000000000001-7.5-21.200000000000003-7-0.7000000000000028-14.099999999999994-0.30000000000000426-20.89999999999999-1.9000000000000057-17-3.8999999999999986-19.700000000000003-12.5-6.299999999999997-24.299999999999997 4.3999999999999915-4 9.699999999999989-7 14.699999999999989-10.399999999999999 4.800000000000011-3.3000000000000007 11.600000000000009-6.100000000000001 10.100000000000009-13.000000000000002-1.5-6.699999999999999-9-7.8999999999999995-14.5-8.5-24-2.5999999999999996-48.2-4.6-74.1-0.5999999999999996 6.599999999999991 11.7 15.999999999999993 9.2 22.79999999999999 12.6 6.899999999999999 3.5000000000000018 18.000000000000007 1.5999999999999996 20.000000000000007 10.799999999999999 1.8999999999999915 9.399999999999999-8.600000000000009 12.100000000000001-14.700000000000003 16.700000000000003-10.5 7.799999999999997-24.300000000000004 12.100000000000001-32.6 29.1z m374.29999999999995 99.2c-15.799999999999955-13.400000000000006-31.19999999999999-27.599999999999994-56.39999999999998-38.400000000000006 9.5 26.599999999999994 23.5 43.400000000000006 37.30000000000001 60 5.199999999999989 6.300000000000011 10.300000000000011 22 22 12 11.599999999999966-10 9-23.5-2.900000000000034-33.599999999999994z m-3.7999999999999545 66.69999999999999c-28.5-22.299999999999983-46.10000000000002 7.099999999999994-68.70000000000005 17.5-1.3999999999999773-7.599999999999994-2.1999999999999886-13.400000000000006-3.5-19.19999999999999-3.7999999999999545-17.80000000000001-12.299999999999955-32.099999999999994-31.399999999999977-36-18.69999999999999-3.8000000000000114-35.80000000000001 0.6999999999999886-49.30000000000001 14.900000000000006-3.299999999999983 3.3999999999999773-12.599999999999994 9.5-4.5 13.5 31.69999999999999 16 18.400000000000006 37.69999999999999 2.9000000000000057 51.099999999999966-20.900000000000006 18.100000000000023-19.599999999999994-14.5-32.400000000000006-22.5-2.5999999999999943 22.900000000000034-7.299999999999983 44.80000000000001 15.5 55.400000000000034 36.30000000000001 17.099999999999966 65.19999999999999-1.3000000000000114 93.19999999999999-27.5 11 18.19999999999999 10 38.5 26 50 13.5 9.699999999999989 27.600000000000023 11.599999999999966 41.60000000000002 2.3999999999999773 15-9.800000000000011 5.100000000000023-16.69999999999999-1.6999999999999886-27.099999999999966-7.800000000000011-12.100000000000023-6-30.400000000000034 6.399999999999977-37.900000000000034 13.900000000000034-8.399999999999977 4.800000000000011 16.30000000000001 17.30000000000001 17 4.899999999999977-19.399999999999977 5.800000000000011-38.099999999999994-11.399999999999977-51.599999999999994z m-132.10000000000002 59.29999999999998c-1.1000000000000227-29.69999999999999 3.1999999999999886-57.599999999999966 25.600000000000023-79.39999999999998 1.2999999999999545 29.5-2.900000000000034 57.39999999999998-25.600000000000023 79.39999999999998z m36-12c-9.199999999999989 1.900000000000034-11-7.099999999999966-8.899999999999977-14 3.1999999999999886-10.699999999999989 2.599999999999966-26.19999999999999 16.69999999999999-28.099999999999966 10.800000000000011-1.5 7.5 11.099999999999994 9.300000000000011 15.599999999999966 0.19999999999998863 14.600000000000023-5.600000000000023 24.100000000000023-17.100000000000023 26.5z m67.80000000000001 23c-2 4.900000000000034-4.900000000000034 11.900000000000034-12.5 9.400000000000034-5.600000000000023-1.8000000000000114-5.5-7.900000000000034-4.699999999999989-12.5 3.099999999999966-18 4.699999999999989-36.69999999999999 22.19999999999999-54.70000000000002 7.5 23.200000000000017 2 40.70000000000002-5 57.79999999999998z"/>
</svg>
