<svg xmlns="http://www.w3.org/2000/svg" viewBox="0 0 1000 1000" width="1000" height="1000">
<path d="M212.5 860.5l-0.09999999999999432 0.20000000000004547h5.099999999999994c2.5999999999999943 0.09999999999990905 5.199999999999989 0.39999999999997726 7.900000000000006 0.39999999999997726s5.299999999999983-0.3000000000000682 7.900000000000006-0.39999999999997726l501.09999999999997-0.10000000000002274c3.7000000000000455 0.10000000000002274 7.300000000000068 0.5 11 0.5 140.60000000000002 0 254.5-114.89999999999998 254.5-256.6 0.10000000000002274-141.60000000000002-113.89999999999998-256.5-254.39999999999998-256.5-5.2000000000000455 0-10.200000000000045 0.5-15.399999999999977 0.8000000000000114-21.800000000000068-119.4-125.39999999999998-209.8-250.10000000000002-209.8-140.60000000000002 0-254.5 114.9-254.5 256.6 0 3.6999999999999886 0.4000000000000057 7.399999999999977 0.5999999999999943 11.099999999999966h-0.5999999999999943c-124.6-0.0999999999999659-225.5 101.69999999999999-225.5 227.2 0 121.20000000000005 94.1 219.80000000000007 212.5 226.60000000000002z"/>
</svg>
