<svg xmlns="http://www.w3.org/2000/svg" viewBox="0 0 1000 1000" width="1000" height="1000">
<path d="M0 601.6v-135.70000000000005c0-12.399999999999977 10.2-22.599999999999966 22.7-22.599999999999966h239.8l-104.4 180.90000000000003h-135.4c-12.49999999999999 0-22.69999999999999-10.100000000000023-22.69999999999999-22.600000000000023z m170.8 277.79999999999995l-76.50000000000001 51.80000000000007c-10.299999999999997 7-17.599999999999994 2.599999999999909-16.200000000000003-9.800000000000068l10.200000000000003-88.69999999999993c1.4000000000000057-12.400000000000091 11.5-17.40000000000009 22.299999999999997-11.200000000000045l59.20000000000002 33.799999999999955c10.899999999999977 6.300000000000068 11.299999999999983 17.200000000000045 1 24.100000000000023z m18.399999999999977-50l-59.19999999999999-33.799999999999955c-10.799999999999997-6.2000000000000455-14.599999999999994-20-8.299999999999997-30.899999999999977l274.2-475.40000000000003c6.2000000000000455-10.800000000000011 20.200000000000045-14.600000000000023 31.100000000000023-8.300000000000011l59.19999999999999 33.69999999999999c10.800000000000011 6.300000000000011 14.600000000000023 20.19999999999999 8.300000000000011 30.900000000000034l-274.2 475.5c-6.300000000000011 10.799999999999955-20.30000000000001 14.5-31.100000000000023 8.299999999999955z m208.7-205.19999999999993l104.40000000000003-180.90000000000003h60.099999999999966l84.80000000000007 180.90000000000003h-249.30000000000007z m340 54c-23.699999999999932-11.800000000000068-141.79999999999995-283.1-172.10000000000002-353.90000000000003s-121.69999999999993-259.1-92.09999999999997-273.8c21-10.5 96.59999999999997 137.8 153.2 226.89999999999998 56.5 89 174.80000000000007 318.70000000000005 189.39999999999998 344.80000000000007 14.5 26.199999999999932-13.899999999999977 48.09999999999991-29.699999999999932 54.59999999999991-15.800000000000068 6.600000000000023-25 13.100000000000023-48.700000000000045 1.400000000000091z m77.60000000000002 124.69999999999993l-35.700000000000045-56.10000000000002c-7.399999999999977-11.699999999999932-3.599999999999909-26.09999999999991 8.400000000000091-32.19999999999993l34-17.399999999999977c12-6.100000000000023 27-1.2000000000000455 33.39999999999998 11.099999999999909l28.100000000000023 53.90000000000009c6.399999999999977 12.199999999999932 2 27.799999999999955-9.5 34.69999999999993l-24.200000000000045 14.399999999999977c-11.600000000000023 6.900000000000091-27.100000000000023 3.1000000000000227-34.5-8.399999999999977z m131.39999999999998 147.10000000000002c-7.5-23.799999999999955-64.39999999999998-25.399999999999977-89.79999999999995-61.200000000000045-25.600000000000023-35.69999999999993-4.399999999999977-54 4.399999999999977-62.5 103.29999999999995-57.89999999999998 85.39999999999998 123.70000000000005 85.39999999999998 123.70000000000005z m53.10000000000002-348.4c0 12.5-10.200000000000045 22.600000000000023-22.700000000000045 22.600000000000023h-120c-1.2999999999999545-7-3.5-13.900000000000091-7.099999999999909-20.5-3.1000000000000227-5.600000000000023-11-20.600000000000023-22-41.5-15.900000000000091-30.200000000000045-38.700000000000045-73.40000000000003-63.10000000000002-118.90000000000003h212.29999999999995c12.5 0 22.700000000000045 10.199999999999989 22.700000000000045 22.599999999999966l-0.10000000000002274 135.70000000000005z"/>
</svg>
