<svg xmlns="http://www.w3.org/2000/svg" viewBox="0 0 1000 1000" width="1000" height="1000">
<path d="M813.8 537.1v298.29999999999995h-305.49999999999994v-296.69999999999993c-37.60000000000002 32-74.10000000000002 63.09999999999991-111 94.5-29.69999999999999-30.600000000000023-59.30000000000001-61.10000000000002-90-92.60000000000002v294.9h-307.3v-671.9h6.5c96.5-2.842170943040401e-14 192.9-2.842170943040401e-14 289.4-0.10000000000002274 4.400000000000034 0 7.300000000000011 1.4000000000000057 10.200000000000045 4.599999999999994 29.19999999999999 32.900000000000006 58.599999999999966 65.70000000000002 87.89999999999998 98.6 1.5 1.6000000000000227 2.8999999999999773 3.1999999999999886 5.300000000000011 5.800000000000011 13.199999999999989-13.600000000000023 25.899999999999977-26.900000000000006 38.89999999999998-39.900000000000006 21.69999999999999-21.900000000000006 43.60000000000002-43.599999999999994 65.5-65.19999999999999 2.1000000000000227-2.0999999999999943 5.800000000000011-3.5999999999999943 8.699999999999989-3.5999999999999943 98.30000000000007-0.20000000000001705 196.5-0.10000000000002274 294.80000000000007-0.10000000000002274h6.699999999999932v6.900000000000006c0 72.80000000000001 0 145.70000000000002-0.10000000000002274 218.50000000000003 0 3.3999999999999773-1 7.099999999999966-2.699999999999932 10.099999999999966-10.300000000000068 18.19999999999999-19.200000000000045 37.10000000000002-27.5 56.30000000000001-3.7000000000000455 8.600000000000023-9.399999999999977 16.19999999999999-14.200000000000045 24.30000000000001-6.600000000000023 11.099999999999966-13.299999999999955 22.19999999999999-19.600000000000023 33.49999999999994-1.8999999999999773 3.400000000000091-2.3999999999999773 7.600000000000023-3.7999999999999545 11.300000000000068-0.8999999999999773 2.3999999999999773-2 4.7999999999999545-3.3999999999999773 7-3.1000000000000227 4.7999999999999545-6.5 9.699999999999932-13 9.100000000000023-6.899999999999977-0.6000000000000227-11.700000000000045-5.2000000000000455-13.5-11.300000000000068-2.6000000000000227-9-4.399999999999977-18.19999999999999-5.5-27.5l-6.600000000000023-63.799999999999955c-0.5-4.600000000000023-2.2999999999999545-9.300000000000011-4.5-13.5-2.7999999999999545-5.5-7.899999999999977-7.7000000000000455-14.100000000000023-8.700000000000045-14.699999999999932-2.2999999999999545-27 2.6000000000000227-38.5 11.100000000000023-5.199999999999932 3.8000000000000114-5.899999999999977 9.300000000000011-6.100000000000023 14.899999999999977-0.599999999999909 14.300000000000011 0.7000000000000455 28.30000000000001 5.900000000000091 41.900000000000034 16.09999999999991 42.69999999999999 26.59999999999991 86.99999999999994 38.69999999999993 130.99999999999994 5.2000000000000455 18.800000000000068 12.100000000000023 37.30000000000007 20.300000000000068 54.90000000000009 9.699999999999932 21 20.59999999999991 22.59999999999991 41.19999999999993 19.59999999999991 3.300000000000068-0.5 6.800000000000068-2.699999999999932 9.200000000000045-5.099999999999909 12.799999999999955-12.600000000000023 19.100000000000023-28 17.899999999999977-46-1-15.300000000000068 2.2999999999999545-29.600000000000023 7.5-43.90000000000009 7.100000000000023-19.899999999999977 20-36.299999999999955 29.899999999999977-54.5 0.39999999999997726-0.6999999999999318 1-1.1999999999999318 2.3999999999999773-2.699999999999932z m-260.9 188.89999999999998c-1.1000000000000227 24.899999999999977 5.5 32.89999999999998 22.5 35.700000000000045 3.2000000000000455 0.5 6.300000000000068 1.5 9.399999999999977 1.8999999999999773 15.100000000000023 2.2999999999999545 29.90000000000009-3.1000000000000227 35.200000000000045-14.700000000000045 7.2999999999999545-16.199999999999932 11.899999999999977-33 3.1000000000000227-50.69999999999993-7.800000000000068-15.600000000000023-9.600000000000023-32.80000000000007-10.600000000000023-50-0.7000000000000455-12.100000000000023 0.5-24.300000000000068 0.5-36.5 0.10000000000002274-22.100000000000023 0.10000000000002274-44.30000000000007-0.20000000000004547-66.40000000000009s-1.599999999999909-44.19999999999993-2.099999999999909-66.39999999999998c-0.6000000000000227-23.799999999999955-0.5-47.5-1.2000000000000455-71.29999999999995-0.39999999999997726-12.900000000000034 5.600000000000023-17.900000000000034 17.899999999999977-21.600000000000023 3.6000000000000227-1.1000000000000227 7.2000000000000455-2.1999999999999886 10.700000000000045-3.8000000000000114 4.899999999999977-2.1999999999999886 9.600000000000023-4.800000000000011 14.399999999999977-7.199999999999989 2.6000000000000227-1.3999999999999773 5.2000000000000455-2.8999999999999773 7.7000000000000455-4.300000000000011 10.699999999999932-6.099999999999966 20.899999999999977-13.599999999999966 32.299999999999955-18 12.399999999999977-4.899999999999977 18.899999999999977-13.5 22.600000000000023-25.19999999999999 3.6000000000000227-11.300000000000011-1.6000000000000227-20.399999999999977-9.800000000000068-27-7.599999999999909-6.100000000000023-17.899999999999977-6.300000000000011-26.199999999999932-2.8000000000000114-10.300000000000068 4.400000000000034-19.700000000000045 11.199999999999989-26.600000000000023 20.80000000000001-2.7000000000000455 3.6999999999999886-6.399999999999977 7.5-10.5 9.399999999999977-11.700000000000045 5.400000000000034-23.799999999999955 9.900000000000034-35.799999999999955 14.800000000000011-4 1.6000000000000227-8 4-12.200000000000045 4.699999999999989-5.2999999999999545 0.9000000000000341-10.899999999999977 0.9000000000000341-16.299999999999955 0.4000000000000341-3.300000000000068-0.30000000000001137-6.400000000000091-2.3000000000000114-9.600000000000023-3.400000000000034-11.700000000000045-4.199999999999989-21 0.9000000000000341-29.5 8.100000000000023-8.399999999999977 7.100000000000023-9.600000000000023 16.5-7.600000000000023 26.69999999999999 1.2999999999999545 6.400000000000034 2.2999999999999545 13.100000000000023-3.7000000000000455 17.69999999999999-4.699999999999932 3.6000000000000227-9.799999999999955 7-15.299999999999955 9.300000000000011-11.600000000000023 4.900000000000034-22.600000000000023 10.600000000000023-32.89999999999998 18.100000000000023-9.600000000000023 7.099999999999966-20.80000000000001 12-30.600000000000023 18.899999999999977-16.399999999999977 11.5-32.80000000000001 22.400000000000034-52.60000000000002 27.600000000000023-14.899999999999977 3.8999999999999773-21.299999999999955 15.800000000000011-22.5 30.19999999999999-1.099999999999966 14 6.400000000000034 24 18.100000000000023 30.799999999999955 11.899999999999977 6.900000000000091 27.600000000000023 2.800000000000068 33.60000000000002-7.899999999999977 8.799999999999955-15.799999999999955 18.69999999999999-30.599999999999966 36.19999999999999-38.5 4.399999999999977-2 8.099999999999966-5.7999999999999545 12-8.899999999999977 3.099999999999966-2.5 5.699999999999989-5.699999999999989 9-7.899999999999977 14.699999999999989-9.300000000000011 29.5-18.400000000000034 44.30000000000001-27.400000000000034 6.2999999999999545-3.8000000000000114 11.299999999999955-1.8999999999999773 13.5 5 0.8999999999999773 2.8000000000000114 2 5.800000000000011 2.199999999999932 8.699999999999989 1.6000000000000227 20.100000000000023 3.6000000000000227 40.200000000000045 4.300000000000068 60.30000000000007 0.7999999999999545 23.5 0.6000000000000227 47.09999999999991 0.39999999999997726 70.69999999999993-0.10000000000002274 10.300000000000068-1.1000000000000227 20.700000000000045-1.7999999999999545 31-0.5 6.899999999999977 0.09999999999990905 14.100000000000023-2 20.5-4 13-2.900000000000091 25.300000000000068 0.1999999999999318 38.30000000000007 4.399999999999977 19.09999999999991 7.300000000000068 38.59999999999991 9.5 50.299999999999955z m273.70000000000005-562.3c12.5 7.499999999999943 24.100000000000023 15.299999999999955 36.60000000000002 21.499999999999943 10.299999999999955 5.100000000000023 13.599999999999909 11.700000000000017 13.299999999999955 23.200000000000017-1 29.799999999999983-0.2999999999999545 59.599999999999994-0.2999999999999545 89.4l1.599999999999909 1.3000000000000114c0.7000000000000455-1.3000000000000114 1.2000000000000455-2.7000000000000455 2.1000000000000227-3.900000000000034 4.7000000000000455-6.5 9.800000000000068-12.699999999999989 14.200000000000045-19.30000000000001 8.799999999999955-13.099999999999966 21.199999999999932-21.799999999999983 34.69999999999993-28.799999999999983 25.100000000000023-13 60.30000000000007 1 69.40000000000009 27.799999999999983 1.8999999999999773 5.7000000000000455 2 12.200000000000045 1.8999999999999773 18.30000000000001-0.3000000000000682 15.5-4.300000000000068 29.900000000000034-12.399999999999977 43.30000000000001-6.300000000000068 10.399999999999977-15.400000000000091 17.19999999999999-26.40000000000009 21.69999999999999-11 4.400000000000034-20.299999999999955 10.800000000000011-29.59999999999991 18.400000000000034-15 12.099999999999966-24.700000000000045 27.5-34.700000000000045 43-5.2000000000000455 8-11.700000000000045 15.199999999999989-17.100000000000023 23.19999999999999-2.1000000000000227 3.099999999999966-3.5 7.199999999999989-3.5 10.899999999999977-0.1999999999999318 113.69999999999999-0.1999999999999318 227.3 0 341.00000000000006 0 5.2999999999999545-1.6000000000000227 8.299999999999955-5.899999999999977 11.199999999999932-14.5 9.600000000000023-28.600000000000023 19.600000000000023-44.200000000000045 30.399999999999977v-6.899999999999977c0-102.89999999999998-0.1999999999999318-205.69999999999993 0.40000000000009095-308.6 0-8.299999999999955 5-16.899999999999977 8.899999999999977-24.899999999999977 3.699999999999932-7.5 9.5-13.799999999999955 13.299999999999955-21.19999999999999 10.600000000000023-20.69999999999999 22.399999999999977-40.5 36.30000000000007-59 8.099999999999909-10.800000000000011 15.299999999999955-22.399999999999977 23-33.599999999999966 1-1.5 2-3.2000000000000455 3.2999999999999545-4.2000000000000455 14.100000000000023-9.899999999999977 25.200000000000045-23.899999999999977 42.5-29.5 17.299999999999955-5.599999999999966 27.200000000000045-18.399999999999977 31-35.799999999999955 1.5-7 3.1000000000000227-14.100000000000023 3.3999999999999773-21.200000000000045 0.6000000000000227-19-11.5-32.599999999999966-30.100000000000023-35.599999999999966-15.299999999999955-2.5-28.799999999999955 1-39.5 12.300000000000011-8.599999999999909 9.099999999999966-16.5 18.899999999999977-24.59999999999991 28.5-14.800000000000068 17.599999999999966-29.600000000000023 35.099999999999966-44.30000000000007 52.89999999999998-4.699999999999932 5.699999999999989-8.799999999999955 11.899999999999977-13.199999999999932 17.80000000000001-2.900000000000091 4-5.900000000000091 8-9.900000000000091 13.300000000000011-0.1999999999999318-73.20000000000005-0.1999999999999318-144.40000000000003-0.1999999999999318-216.90000000000003z m-508.20000000000005 671.8v-265c8.5 8.399999999999977 16.200000000000045 16.100000000000023 23.900000000000034 23.700000000000045 1.3000000000000114 1.2999999999999545 2.5 2.599999999999909 3.6999999999999886 3.8999999999999773 5.699999999999989 5.899999999999977 13.600000000000023 10.799999999999955 16.5 17.899999999999977s0.8000000000000114 16.100000000000023 0.8000000000000114 24.299999999999955c0 51.200000000000045-0.10000000000002274 102.5 0.0999999999999659 153.70000000000005 0 6.2000000000000455-1.5 10.200000000000045-6.7999999999999545 13.799999999999955-11.400000000000034 7.7000000000000455-22.30000000000001 16.200000000000045-33.400000000000034 24.40000000000009-1.1999999999999886 1.099999999999909-2.6999999999999886 1.8999999999999773-4.800000000000011 3.2999999999999545z m8.200000000000045-663.1c26.799999999999955 12.400000000000034 53.89999999999998 24.200000000000017 80.29999999999995 37.30000000000001 8 3.9000000000000057 14.100000000000023 11.600000000000023 20.700000000000045 17.200000000000017-9.400000000000034 9.699999999999989-18.400000000000034 19-27.900000000000034 29-24.80000000000001-27.80000000000001-49.30000000000001-55.20000000000002-73.80000000000001-82.5 0.20000000000004547-0.30000000000001137 0.4000000000000341-0.700000000000017 0.7000000000000455-1z m170.29999999999995 392c0 12.300000000000068 0 23.200000000000045-0.0999999999999659 34.10000000000002 0 1-1 2.1000000000000227-1.6999999999999886 3-0.6000000000000227 0.7000000000000455-1.6000000000000227 1.2000000000000455-2.3000000000000114 2-15 17.899999999999977-36.80000000000001 20.100000000000023-57.5 24.799999999999955-6.400000000000034 1.400000000000091-12.800000000000011 2.800000000000068-19.69999999999999 3.2000000000000455 26.799999999999955-22.100000000000023 53.5-44.200000000000045 81.29999999999995-67.10000000000002z"/>
</svg>
