<svg xmlns="http://www.w3.org/2000/svg" viewBox="0 0 1000 1000" width="1000" height="1000">
<path d="M999.3 565.6c-0.599999999999909 0.1999999999999318-1.1999999999999318 0.39999999999997726-1.7999999999999545 0.6999999999999318-46.799999999999955 20-93.89999999999998 39-142.10000000000002 55.60000000000002-46.299999999999955 15.899999999999977-93.29999999999995 29.300000000000068-141.39999999999998 39.10000000000002-29.5 6-59.200000000000045 10.5-89.10000000000002 13.200000000000045-11.699999999999932 1-23.399999999999977 2.7999999999999545-35.19999999999993 1.099999999999909-14.100000000000023-2-19.200000000000045-10.199999999999932-14.100000000000023-23.59999999999991 0.1999999999999318-0.6000000000000227 0.5-1.2000000000000455 0.7999999999999545-1.8000000000000682 4-9.5 9.800000000000068-17.799999999999955 15.899999999999977-26 24.90000000000009-33 52.30000000000007-64 78.10000000000002-96.19999999999993 21.5-26.700000000000045 42.60000000000002-53.700000000000045 59.700000000000045-83.50000000000006 12.299999999999955-21.5 22.899999999999977-43.80000000000001 24.399999999999977-69.19999999999999 1.2000000000000455-20.30000000000001-2-39.60000000000002-12.299999999999955-57.39999999999998-12-20.80000000000001-30.300000000000068-34.30000000000001-51.5-44.200000000000045-18.700000000000045-8.699999999999989-38.30000000000007-14-58.30000000000007-17.19999999999999h-0.10000000000002274c-69.89999999999998-14.399999999999977-143.29999999999995 2.8000000000000114-143.29999999999995 2.8000000000000114-36.10000000000002 6.300000000000011-71.39999999999998 16.100000000000023-106.30000000000001 28-53.80000000000001 18.30000000000001-105.19999999999999 41.80000000000001-153.5 71.80000000000001-76.29999999999998 47.39999999999998-139.5 108.09999999999997-188.39999999999998 183.7-12.900000000000013 19.899999999999977-24.900000000000013 40.10000000000002-32.30000000000001 62.799999999999955-0.5999999999999996 2-1.2000000000000002 4-1.7999999999999998 5.900000000000091 0 0-19.3 51.89999999999998 7.7 87.09999999999991 0.29999999999999893 0.40000000000009095 0.5 0.7000000000000455 0.7999999999999989 1 8.7 13.200000000000045 21.099999999999998 23.5 36.400000000000006 31.40000000000009 11.899999999999991 6.099999999999909 24.39999999999999 10.199999999999932 37.3 13.099999999999909 0 0 44 12.300000000000068 112.29999999999998 0.20000000000004547h0.20000000000001705c22.69999999999999-3.2000000000000455 45.099999999999994-7.7000000000000455 67.29999999999998-13.799999999999955 45.69999999999999-12.5 88.60000000000002-31.600000000000023 130.60000000000002-53.30000000000007 0.30000000000001137-0.10000000000002274 0.5-0.5 0.8999999999999773-1-1.099999999999966 0.10000000000002274-1.8999999999999773 0.10000000000002274-2.599999999999966 0.3000000000000682-57.200000000000045 15-115 26.399999999999977-174.20000000000002 29.899999999999977-19.700000000000017 1.1999999999999318-39.400000000000006 1.2999999999999545-59-1l-1-0.10000000000002274c-2.700000000000017-0.2999999999999545-5.400000000000006-0.6000000000000227-8.099999999999994-1-5.800000000000011-0.8999999999999773-11.400000000000006-2-17-3.5l-2.700000000000017-0.7999999999999545c-0.5999999999999943-0.10000000000002274-1.0999999999999943-0.3000000000000682-1.6999999999999886-0.5-27.200000000000003-8.400000000000091-35.7-21.800000000000068-38.30000000000001-28.40000000000009-2.1999999999999886-6.399999999999977-2.5999999999999943-13.599999999999909-0.19999999999998863-20.5 3.799999999999997-10.599999999999909 10-19.5 17.69999999999999-27.299999999999955 20.700000000000017-20.899999999999977 45.400000000000006-35.700000000000045 72.6-46.5 2.8000000000000114-1.1000000000000227 4-2.2000000000000455 3.9000000000000057-5.5-0.19999999999998863-17.799999999999955-0.09999999999999432-35.60000000000002-0.09999999999999432-53.39999999999998 0-4.7000000000000455 0-4.7000000000000455 4.300000000000011-3.300000000000068 20.69999999999999 6.800000000000068 41.89999999999998 10.700000000000045 63.599999999999966 11.800000000000068 35.900000000000034 1.8999999999999773 70.40000000000003-4.2000000000000455 103.60000000000002-17.80000000000001 18.30000000000001-7.5 35.39999999999998-17.100000000000023 51.39999999999998-28.69999999999999 2.5-1.8000000000000114 3.5-1.7000000000000455 4.5 1.2999999999999545 1.3000000000000114 3.6000000000000227 1.900000000000034 7.300000000000011 2.6000000000000227 11 0.5 2.7000000000000455-1.8999999999999773 6.400000000000034 0.8000000000000114 7.900000000000034 2.1999999999999886 1.1999999999999886 5.599999999999966 0.0999999999999659 8.5 0.39999999999997726 2.3999999999999773 0.19999999999998863 3.1999999999999886-0.6999999999999886 3.3000000000000114-3 0.5999999999999659-9.800000000000011-1.7000000000000455-18.899999999999977-6.800000000000011-27.30000000000001-7.300000000000011-11.899999999999977-22-20.69999999999999-34.19999999999999-20.299999999999955 4.699999999999989 4.399999999999977 9.199999999999989 8.699999999999989 13.799999999999955 13 2.3000000000000114 2.099999999999966 2.6000000000000227 3.5-0.5 5.5-7.2999999999999545 4.699999999999989-14.599999999999966 9.5-22.299999999999955 13.699999999999989-26.400000000000034 14.300000000000011-54.60000000000002 23.099999999999966-84.5 26.099999999999966-19.900000000000034 2-39.700000000000045 1.1000000000000227-59.30000000000001-2.3999999999999773-7.700000000000017-1.3999999999999773-15.300000000000011-3.1000000000000227-21.80000000000001-5.300000000000011 15.199999999999989-15.599999999999966 30.5-31.399999999999977 45.89999999999998-47 2.400000000000034-2.3999999999999773 3.3000000000000114-4.199999999999989 1.8000000000000114-7.699999999999989-4-9.600000000000023-7.199999999999989-19.5-10.899999999999977-29.19999999999999-0.9000000000000057-2.3000000000000114-0.30000000000001137-3.1999999999999886 1.8999999999999773-3.900000000000034 18.69999999999999-6.2999999999999545 37.400000000000034-12.799999999999955 56.19999999999999-19 54.400000000000034-17.899999999999977 109.40000000000003-33.5 165.40000000000003-46 26.19999999999999-5.899999999999977 52.400000000000034-11.399999999999977 78.90000000000003-16.099999999999966 7.699999999999932-1.400000000000034 15.5-2.8000000000000114 24-4.400000000000034-10.600000000000023-8.899999999999977-20.700000000000045-17.299999999999955-31-25.799999999999955 4.199999999999932-2.7000000000000455 8.199999999999932-5.100000000000023 12.099999999999909-7.800000000000011 2.300000000000068-1.6999999999999886 4.400000000000091-2 7.2000000000000455-1.1999999999999886 20.200000000000045 5.899999999999977 40.5 11.599999999999966 60.39999999999998 18.5 17.200000000000045 6 34.30000000000007 12.5 49.39999999999998 23 10.800000000000068 7.5 19.300000000000068 16.69999999999999 22.300000000000068 30.099999999999966 0.6000000000000227 2.6999999999999886-0.10000000000002274 5.5 1.1999999999999318 8-0.6999999999999318 8-3.199999999999932 15.600000000000023-6.199999999999932 22.900000000000034-7.2000000000000455 17.799999999999955-18.399999999999977 33.39999999999998-29.600000000000023 48.799999999999955-28.399999999999977 39.200000000000045-60.5 75.5-92.20000000000005 111.89999999999998-20 22.90000000000009-40.5 45.5-57.89999999999998 70.60000000000002-10.899999999999977 15.800000000000068-20.799999999999955 32.10000000000002-24.099999999999966 51.39999999999998-3.1000000000000227 18.300000000000068 0.8000000000000114 34.700000000000045 16.19999999999999 46.60000000000002 11.299999999999955 8.700000000000045 24.799999999999955 11.200000000000045 38.60000000000002 12.300000000000068 23 1.7999999999999545 45.60000000000002-1.400000000000091 68.10000000000002-5.900000000000091 36.799999999999955-7.399999999999977 72.5-18.59999999999991 107.69999999999993-31.399999999999977 82.39999999999998-30.100000000000023 161.80000000000007-66.89999999999998 238.60000000000002-109.10000000000002 13.5-7.399999999999977 27-14.799999999999955 39.60000000000002-23.699999999999932-0.39999999999997726-0.10000000000002274-0.6000000000000227-0.3000000000000682-0.8000000000000682-0.5z"/>
</svg>
