<svg xmlns="http://www.w3.org/2000/svg" viewBox="0 0 1000 1000" width="1000" height="1000">
<path d="M1000 499.6c-0.2999999999999545 277.29999999999995-225.39999999999998 501.1-503.1 500.4-273.2-0.7000000000000455-497-226.10000000000002-496.9-500.6 0.1-274.7 225.3-499.59999999999997 500.1-499.4 275.19999999999993 0.2 500.19999999999993 225.1 499.9 499.6z m-498.1 93l-3.8999999999999773-0.10000000000002274-141-467.3-3.8999999999999773 0.30000000000001137c-61 200.3-122.00000000000003 400.5-183.20000000000002 601.2 33.599999999999994 3.8999999999999773 33.19999999999999 3.7999999999999545 41-24.300000000000068 6.699999999999989-24.100000000000023 13.400000000000006-48.299999999999955 22.19999999999999-71.69999999999993 14.5-38.700000000000045 29.200000000000017-77.60000000000002 61.099999999999994-106.40000000000009 40.19999999999999-36.39999999999998 89.40000000000003-36.49999999999994 127 2 16.400000000000034 16.800000000000068 30 36.700000000000045 42.19999999999999 56.90000000000009 13.5 22.299999999999955 23.80000000000001 46.39999999999998 36.700000000000045 72.09999999999991 9.099999999999966-18.899999999999977 15.799999999999955-36.59999999999991 25.5-52.39999999999998 16-25.799999999999955 31.399999999999977-52.69999999999993 51.60000000000002-74.89999999999998 35.299999999999955-38.89999999999998 84-41.30000000000001 123.29999999999995-7.2000000000000455 15.899999999999977 13.900000000000091 30.899999999999977 31.700000000000045 39.299999999999955 50.80000000000007 18.700000000000045 42.60000000000002 34.200000000000045 86.69999999999993 48.80000000000007 131 9.600000000000023 28.899999999999977 9.399999999999977 30.299999999999955 40.799999999999955 22.799999999999955-61-200.19999999999993-122-400.29999999999995-183.10000000000002-600.3l-3.699999999999932 0.39999999999997726c-46.80000000000007 155.7-93.80000000000007 311.4-140.70000000000005 467.1z"/>
</svg>
