<svg xmlns="http://www.w3.org/2000/svg" viewBox="0 0 1000 1000" width="1000" height="1000">
<path d="M633.6 139.5h-266.90000000000003c-24.899999999999977 0-45.30000000000001 20.400000000000006-45.30000000000001 45.30000000000001v64.89999999999998h63.900000000000034v-36.19999999999999c0-8 6.5-14.5 14.199999999999989-14.5h201.20000000000005c8 0 14.5 6.5 14.5 14.5v36.19999999999999h63.59999999999991v-64.89999999999998c-0.09999999999990905-24.900000000000006-20.299999999999955-45.30000000000001-45.19999999999993-45.30000000000001z m-571.1 667.1c0 29.5 24.099999999999994 53.60000000000002 53.599999999999994 53.60000000000002h767.6999999999999c29.800000000000068 0 53.60000000000002-24.100000000000023 53.60000000000002-53.60000000000002v-322.70000000000005h-875v322.70000000000005z m821.4-514.5h-767.8c-29.50000000000003 0-53.60000000000002 24.19999999999999-53.60000000000002 53.599999999999966v89.10000000000002h875v-89.10000000000002c0-29.5-23.899999999999977-53.599999999999966-53.60000000000002-53.599999999999966z"/>
</svg>
