<svg xmlns="http://www.w3.org/2000/svg" viewBox="0 0 1000 1000" width="1000" height="1000">
<path d="M199.8 482.6h-97.60000000000001c-21.900000000000006 0-39.7 17.399999999999977-39.7 38.89999999999998v370.6c0 21.600000000000023 17.900000000000006 39 39.7 39h97.60000000000001c22 0 39.69999999999999-17.5 39.69999999999999-39v-370.5c-0.09999999999999432-21.5-17.80000000000001-39-39.69999999999999-39z m232.59999999999997 117h-97.39999999999998c-22 0-39.80000000000001 17.5-39.80000000000001 39v253.60000000000002c0 21.59999999999991 17.80000000000001 39 39.80000000000001 39h97.5c22 0 39.69999999999999-17.5 39.69999999999999-39v-253.60000000000002c0-21.5-17.899999999999977-39-39.80000000000001-39z m232.70000000000005 0h-97.60000000000002c-21.899999999999977 0-39.700000000000045 17.5-39.700000000000045 39v253.60000000000002c0 21.59999999999991 17.800000000000068 39 39.700000000000045 39h97.60000000000002c22 0 39.69999999999993-17.5 39.69999999999993-39v-253.60000000000002c0-21.5-17.799999999999955-39-39.69999999999993-39z m232.69999999999993-117h-97.5c-22 0-39.799999999999955 17.399999999999977-39.799999999999955 38.89999999999998v370.6c0 21.600000000000023 17.899999999999977 39 39.799999999999955 39h97.5c22 0 39.700000000000045-17.5 39.700000000000045-39v-370.5c0-21.5-17.899999999999977-39-39.700000000000045-39z m-293.19999999999993-335.1c-1.5-1.4000000000000057-3.2000000000000455-2.5-5-3.0999999999999943l-113.90000000000003-35c-45.599999999999966-14.200000000000003-75.19999999999999 10.399999999999991-83.19999999999999 18.299999999999997-4.600000000000023 4.499999999999986-8.199999999999989 9.299999999999997-10.100000000000023 13.700000000000003l-50.799999999999955 117.1c-3 6.600000000000023-1.900000000000034 15.699999999999989 2.599999999999966 24.69999999999999 6.600000000000023 12.600000000000023 18.30000000000001 21.80000000000001 32.30000000000001 25.100000000000023 15.699999999999989 3.599999999999966 32-1.400000000000034 44.80000000000001-14 3.3000000000000114-3.1999999999999886 6.099999999999966-6.900000000000034 7.899999999999977-9.900000000000034l17.100000000000023-30.99999999999997c2.6999999999999886-5.200000000000017 6.800000000000011-10.599999999999994 11.099999999999966-14.800000000000011 14.700000000000045-14.299999999999983 21.600000000000023-7.900000000000006 24.600000000000023-5 25.5 24.299999999999983 159.29999999999995 156.00000000000003 159.29999999999995 156.00000000000003 4.800000000000068 4.599999999999966 3.800000000000068 13.599999999999966-2.199999999999932 19.299999999999955-6 5.7000000000000455-15 6.800000000000011-19.700000000000045 2.1000000000000227l-37.5-36.89999999999998c-4.899999999999977-4.7000000000000455-12.699999999999932-4.7000000000000455-17.5 0-4.899999999999977 4.7999999999999545-4.899999999999977 12.399999999999977 0 17.19999999999999l37.5 36.89999999999998c4.7000000000000455 4.600000000000023 3.800000000000068 13.600000000000023-2.199999999999932 19.30000000000001-6 5.899999999999977-15 6.800000000000011-19.600000000000023 2.1000000000000227l-37.60000000000002-36.80000000000001c-4.7999999999999545-4.699999999999989-12.799999999999955-4.699999999999989-17.5 0-4.7999999999999545 4.599999999999966-4.7999999999999545 12.399999999999977 0 17.19999999999999l37.60000000000002 37c4.600000000000023 4.600000000000023 3.699999999999932 13.300000000000011-2.300000000000068 19.19999999999999-5.899999999999977 5.900000000000034-14.899999999999977 6.800000000000011-19.699999999999932 2.1999999999999886l-37.60000000000002-36.799999999999955c-4.699999999999989-4.800000000000011-12.600000000000023-4.800000000000011-17.399999999999977 0-4.800000000000011 4.699999999999989-4.800000000000011 12.299999999999955 0 17.19999999999999l37.5 36.80000000000001c4.7999999999999545 4.599999999999966 3.7999999999999545 13.600000000000023-2.1000000000000227 19.299999999999955-6 5.899999999999977-15 6.899999999999977-19.69999999999999 2.300000000000068l-46-45.10000000000002c6.599999999999966-9.700000000000045 4.699999999999989-23.600000000000023-4.900000000000034-33.200000000000045-10.899999999999977-10.599999999999966-27.599999999999966-11.5-37.299999999999955-2.1999999999999886 9.699999999999989-9.399999999999977 8.699999999999989-25.80000000000001-2.1000000000000227-36.39999999999998-10.899999999999977-10.800000000000011-27.69999999999999-11.699999999999989-37.30000000000001-2.3000000000000114 9.600000000000023-9.5 8.699999999999989-25.80000000000001-2.3000000000000114-36.39999999999998-10.899999999999977-10.800000000000011-27.5-11.800000000000011-37.299999999999955-2.3000000000000114 9.799999999999955-9.600000000000023 8.699999999999989-25.80000000000001-2.1000000000000227-36.60000000000002-10.199999999999989-9.800000000000011-25.399999999999977-11.300000000000011-35.30000000000001-3.6999999999999886l-74.1-72.80000000000001c-4.799999999999983-4.599999999999994-12.699999999999989-4.599999999999994-17.5 0-4.699999999999989 4.800000000000011-4.699999999999989 12.5 0 17.19999999999999l74.00000000000003 72.5-22 21.600000000000023c-9.700000000000017 9.5-8.700000000000017 25.80000000000001 2.1999999999999886 36.5 10.899999999999977 10.699999999999989 27.599999999999966 11.600000000000023 37.30000000000001 2.1999999999999886-9.700000000000045 9.400000000000034-8.800000000000011 25.80000000000001 2.1999999999999886 36.60000000000002 10.899999999999977 10.599999999999966 27.5 11.599999999999966 37.30000000000001 2-9.800000000000011 9.599999999999966-8.700000000000045 26 2.099999999999966 36.599999999999966 10.900000000000034 10.800000000000011 27.69999999999999 11.700000000000045 37.30000000000001 2.2000000000000455-9.600000000000023 9.399999999999977-8.699999999999989 25.799999999999955 2.3000000000000114 36.60000000000002 10.899999999999977 10.699999999999932 27.5 11.5 37.19999999999999 2.199999999999932l23.19999999999999-22.799999999999955 45.5 44.60000000000002c14.5 14.299999999999955 39.00000000000006 13.099999999999909 54.69999999999999-2.300000000000068 7.7000000000000455-7.399999999999977 11.800000000000068-17.100000000000023 12.300000000000068-26.5 9.699999999999932-0.5 19.399999999999977-4.599999999999966 27.09999999999991-12.099999999999966 7.7000000000000455-7.5 11.800000000000068-17 12.300000000000068-26.600000000000023 9.699999999999932-0.5 19.399999999999977-4.5 27.100000000000023-12 7.699999999999932-7.5 11.799999999999955-17.099999999999966 12.299999999999955-26.69999999999999 9.700000000000045-0.5 19.399999999999977-4.600000000000023 27.100000000000023-12.100000000000023 15.799999999999955-15.399999999999977 16.600000000000023-39.39999999999998 2.199999999999932-53.599999999999966l-19.199999999999932-18.900000000000034 78.79999999999995-77.19999999999999c4.800000000000068-4.599999999999966 4.800000000000068-12.399999999999977 0-17.19999999999999l-113.79999999999995-111.5z m186.39999999999998 27.099999999999994l-100.20000000000005-98.3c-9.699999999999932-9.599999999999994-25.299999999999955-9.599999999999994-35.09999999999991 0l-35 34.400000000000006c-9.600000000000023 9.399999999999991-9.600000000000023 24.89999999999999 0 34.3l100.29999999999995 98.30000000000001c9.700000000000045 9.599999999999994 25.399999999999977 9.599999999999994 35.10000000000002 0l35.10000000000002-34.30000000000001c9.5-9.400000000000006 9.5-24.900000000000006-0.20000000000004547-34.400000000000006z m-52.60000000000002 50.099999999999994c-11.199999999999932 0-20.299999999999955-8.899999999999977-20.299999999999955-19.899999999999977 0-11 9-20 20.299999999999955-20s20.399999999999977 8.899999999999977 20.399999999999977 20c0 11-9.199999999999932 19.899999999999977-20.399999999999977 19.899999999999977z"/>
</svg>
