<svg xmlns="http://www.w3.org/2000/svg" viewBox="0 0 1000 1000" width="1000" height="1000">
<path d="M928.5 669.1c5 0 9-4 9-8.800000000000068v-486.69999999999993c0-4.900000000000034-4-8.800000000000011-9-8.800000000000011h-136.5v-17.80000000000001c0-4.900000000000006-4-8.800000000000011-9-8.800000000000011h-20.299999999999955c-5 0-9 4-9 8.800000000000011v17.69999999999999h-507.50000000000006v-17.69999999999999c0-4.900000000000006-4-8.800000000000011-9-8.800000000000011h-20.299999999999983c-5 0-9 4-9 8.800000000000011v17.69999999999999h-136.4c-5 0-9 4-9 8.900000000000006v486.5c0 4.899999999999977 4 8.799999999999955 9 8.799999999999955h136.4v34.5h-139.4c-3.299999999999997 0-5.899999999999999 2.6000000000000227-5.899999999999999 5.899999999999977v10.5c0 3.2000000000000455 2.6000000000000014 5.900000000000091 5.899999999999999 5.900000000000091h139.4v127.29999999999995c0 4.899999999999977 4 8.799999999999955 9 8.799999999999955h20.299999999999983c5 0 9-4 9-8.799999999999955v-127.29999999999995h507.3v127.29999999999995c0 4.899999999999977 4 8.799999999999955 9 8.799999999999955h20.299999999999955c5 0 9-4 9-8.799999999999955v-127.29999999999995h139.5c3.300000000000068 0 6-2.6000000000000227 6-5.900000000000091v-10.5c0-3.199999999999932-2.599999999999909-5.899999999999977-6-5.899999999999977h-139.29999999999995v-34.39999999999998l136.5 0.10000000000002274z m-174.79999999999995 34.39999999999998h-507.50000000000006v-34.5h507.40000000000003v34.5z m-649.3000000000001-62.5c-4.999999999999972 0-8.999999999999972-4-8.999999999999972-8.899999999999977v-430.5c0-4.900000000000034 4-8.800000000000011 9-8.800000000000011h791.3000000000001c5 0 9 4 9 8.799999999999983v430.5c0 4.899999999999977-4 8.799999999999955-9 8.799999999999955l-791.3000000000001 0.10000000000002274z m759.5-422.5h-727.8c-7.300000000000011 0-13.200000000000017 6-13.200000000000017 13.300000000000011v370.90000000000003c0 7.2999999999999545 6 13.199999999999932 13.199999999999989 13.199999999999932h727.6999999999999c7.300000000000068 0 13.200000000000045-5.899999999999977 13.200000000000045-13.199999999999932v-370.90000000000003c0.10000000000002274-7.400000000000006-5.7999999999999545-13.300000000000011-13.100000000000023-13.300000000000011z"/>
</svg>
