<svg xmlns="http://www.w3.org/2000/svg" viewBox="0 0 1000 1000" width="1000" height="1000">
<path d="M597.8 352.9c0-147.59999999999997-120.09999999999997-267.7-267.69999999999993-267.7s-267.6 120.10000000000002-267.6 267.7 120.1 267.6 267.7 267.6 267.59999999999997-120 267.59999999999997-267.6z m-458.79999999999995 0c0-105.39999999999998 85.80000000000001-191.2 191.2-191.2s191.09999999999997 85.80000000000001 191.09999999999997 191.2c0 105.40000000000003-85.79999999999995 191.10000000000002-191.09999999999997 191.10000000000002s-191.2-85.69999999999999-191.2-191.10000000000002z m202.3 145.8v-21.5c51.80000000000001-3.099999999999966 86.59999999999997-26.899999999999977 86.59999999999997-73.39999999999998 0-53.5-40.599999999999966-67-86.59999999999997-76.80000000000001v-66.10000000000002c38.599999999999966 0.7000000000000455 38.19999999999999 38 60.80000000000001 38 11.799999999999955 0 22-8 22-21.599999999999966 0-34.10000000000002-55.700000000000045-51-82.80000000000001-51.80000000000001v-18.5c0-5.900000000000006-4.5-11.800000000000011-10.5-11.800000000000011-5.900000000000034 0-10.300000000000011 5.900000000000006-10.300000000000011 11.800000000000011v18.5c-43.39999999999998 1.4000000000000057-82.80000000000001 25.80000000000001-82.80000000000001 73.10000000000002 0 38.599999999999966 31.100000000000023 61.19999999999999 82.80000000000001 70.5v72.69999999999999c-57.80000000000001-2.400000000000034-27.600000000000023-50.400000000000034-66.5-50.400000000000034-13.099999999999994 0-21.5 8-21.5 21.900000000000034 0 27.599999999999966 29.100000000000023 62.599999999999966 88 64v21.5c0 5.899999999999977 4.5 11.899999999999977 10.300000000000011 11.899999999999977 5.899999999999977 0 10.5-6 10.5-12z m0-125.80000000000001c18.80000000000001 4.2000000000000455 42.80000000000001 11.100000000000023 42.80000000000001 34.80000000000001 0 22.900000000000034-22 32.69999999999999-42.80000000000001 34v-68.80000000000001z m-20.900000000000034-49.599999999999966c-26.19999999999999-5.199999999999989-39-15.300000000000011-39-32.80000000000001 0-15 15.300000000000011-28.899999999999977 39-29.600000000000023v62.400000000000034z m562.5 69.19999999999999h-239.19999999999993c-5.100000000000023 38.89999999999998-17.200000000000045 75.69999999999999-35.80000000000007 108.89999999999998h275c30.399999999999977 0 54.60000000000002-24.19999999999999 54.60000000000002-54.599999999999966 0-30-24.200000000000045-54.30000000000001-54.60000000000002-54.30000000000001z m0 137.70000000000005h-292.29999999999995c-32.5 47-77.60000000000002 85-130.3 108.89999999999998h422.49999999999994c30.40000000000009 0 54.60000000000002-24.200000000000045 54.60000000000002-54.60000000000002 0.10000000000002274-30.100000000000023-24.100000000000023-54.299999999999955-54.5-54.299999999999955z m0-275.40000000000003h-250.39999999999998c9.299999999999955 29.69999999999999 14.399999999999977 61.69999999999999 14.399999999999977 94.59999999999997 0 5.100000000000023 0 9.900000000000034-0.39999999999997726 14.700000000000045h236.29999999999995c30.40000000000009 0 54.60000000000002-24.600000000000023 54.60000000000002-54.60000000000002 0.10000000000002274-30.399999999999977-24.100000000000023-54.69999999999999-54.5-54.69999999999999z m0 412.7h-570.0999999999999c-30.40000000000009 0-54.60000000000008 24.600000000000023-54.60000000000008 54.60000000000002 0 30.399999999999977 24.19999999999999 54.60000000000002 54.60000000000002 54.60000000000002h570.0999999999999c30.40000000000009 0 54.600000000000136-24.200000000000045 54.600000000000136-54.60000000000002 0-30-24.200000000000045-54.60000000000002-54.60000000000002-54.60000000000002z m0 137.70000000000005h-570.0999999999999c-30.40000000000009 0-54.60000000000008 24.59999999999991-54.60000000000008 54.59999999999991 0 30.40000000000009 24.19999999999999 54.60000000000002 54.60000000000002 54.60000000000002h570.0999999999999c30.40000000000009 0 54.600000000000136-24.199999999999932 54.600000000000136-54.60000000000002 0-30-24.200000000000045-54.59999999999991-54.60000000000002-54.59999999999991z m0-578.8000000000001c30.399999999999977 2.842170943040401e-14 54.60000000000002-24.599999999999966 54.60000000000002-54.599999999999966s-24.200000000000045-54.60000000000001-54.60000000000002-54.60000000000001h-337c32.5 30.39999999999999 58.80000000000007 67.7 76.30000000000007 109.2h260.69999999999993z"/>
</svg>
