<svg xmlns="http://www.w3.org/2000/svg" viewBox="0 0 1000 1000" width="1000" height="1000">
<path d="M813.1 797.8c7.699999999999932-24.59999999999991 11.799999999999955-53.09999999999991 11.799999999999955-86.39999999999998 0-184.5-124.79999999999995-323.7-228-387-15.100000000000023-9.299999999999955-18.199999999999932-25.899999999999977-6.699999999999932-39.599999999999966 118-141.8 76.09999999999991-224.9 8.599999999999909-165.70000000000002-73.19999999999993 63.599999999999994-122.79999999999995-22.39999999999999-258.69999999999993-54.099999999999994-104.60000000000002-24.6 8 142.4 65.89999999999998 221.39999999999998 10.600000000000023 14.100000000000023 6.399999999999977 32-8.699999999999989 41.60000000000002-102 64.60000000000002-222.3 202.10000000000002-222.3 383.5 0 35.5 4.5 65.5 13.099999999999994 90.79999999999995 5.800000000000011 16.600000000000023 4.5 41.30000000000007-1.9000000000000057 57.60000000000002-6.699999999999989 18.600000000000023-6.399999999999977 33.60000000000002 2.3000000000000114 42.200000000000045 8.300000000000011 8 23 8.299999999999955 40.599999999999994 2.8999999999999773 17-5.100000000000023 41.29999999999998-5.100000000000023 57.599999999999994 1.8999999999999773 57 24.899999999999977 131.40000000000003 30.700000000000045 213.3 30.700000000000045 82.89999999999998 0 158.29999999999995-5.800000000000068 215.89999999999998-31.700000000000045 16-7.399999999999977 40.30000000000007-7.399999999999977 57-1.8999999999999773 19.200000000000045 6.7000000000000455 34.80000000000007 6.399999999999977 43.5-1.8999999999999773 9.600000000000023-9.300000000000068 8.899999999999977-26.5 0.39999999999997726-47-7.2999999999999545-16.5-9.299999999999955-40.700000000000045-3.699999999999932-57.30000000000007z m-239-60.5c-11.800000000000068 14.400000000000091-29.100000000000023 24.300000000000068-52.200000000000045 29.40000000000009v44.5c-5.100000000000023 1.599999999999909-10.899999999999977 2.2999999999999545-16.299999999999955 2.2999999999999545-5.800000000000011 0-11.200000000000045-0.6000000000000227-17-2.2999999999999545v-40.60000000000002h-3.2000000000000455c-8.299999999999955 0-16-0.3000000000000682-22.399999999999977-1-6.699999999999989-0.39999999999997726-13.100000000000023-1.3000000000000682-19.19999999999999-2.5-6-1-11.800000000000011-2.5-17.900000000000034-4.2000000000000455-5.7999999999999545-1.8999999999999773-11.799999999999955-4.199999999999932-18.19999999999999-6.699999999999932 0.6000000000000227-7.400000000000091 2.3000000000000114-14.700000000000045 4.199999999999989-22.40000000000009 1.900000000000034-7.399999999999977 4.5-15.299999999999955 7.400000000000034-23.699999999999932 10.599999999999966 4.5 20.80000000000001 7.399999999999977 30.399999999999977 8.899999999999977 9.300000000000011 1.8999999999999773 19.5 2.5 30.100000000000023 2.5 16.30000000000001 0 28.80000000000001-2.5 37.49999999999994-8.299999999999955 8.900000000000091-5.400000000000091 13.5-14.400000000000091 13.5-26.5 0-6-1.2999999999999545-11.200000000000045-3.8999999999999773-15.100000000000023-2.2999999999999545-4.2000000000000455-5.399999999999977-7.399999999999977-8.899999999999977-9.899999999999977-3.8999999999999773-2.5-8-4.800000000000068-12.5-6.400000000000091-4.800000000000011-1.8999999999999773-9.300000000000011-3.8999999999999773-13.5-5.7999999999999545l-20.5-8.899999999999977c-8.300000000000011-3.5-16-7.399999999999977-23-11.200000000000045-7-4.199999999999932-12.800000000000011-8.899999999999977-17.899999999999977-14.399999999999977-4.800000000000011-5.399999999999977-8.700000000000045-11.799999999999955-11.600000000000023-19.200000000000045-2.5-7.399999999999977-3.8999999999999773-16.59999999999991-3.8999999999999773-27.5 0-23 6.399999999999977-41 19.5-54.299999999999955 13.099999999999966-13.5 31.099999999999966-21.399999999999977 54.099999999999966-24.30000000000001v-40.599999999999966c5.400000000000034-1.6000000000000227 10.900000000000034-2.3000000000000114 16.600000000000023-2.3000000000000114 5.199999999999989 0 10.900000000000034 0.5999999999999659 16.599999999999966 2.3000000000000114v39.599999999999966c10.200000000000045 0.6000000000000227 20.100000000000023 2.3000000000000114 29.800000000000068 4.5 9.299999999999955 1.900000000000034 19.5 4.800000000000011 29.799999999999955 8.699999999999989-1.2999999999999545 14.700000000000045-5.399999999999977 29.399999999999977-12.200000000000045 43.5-3.8999999999999773-1.2999999999999545-7.699999999999932-2.8999999999999773-11.799999999999955-4.5-3.8999999999999773-1.6000000000000227-8-2.8999999999999773-12.5-3.8999999999999773s-9.600000000000023-1.8999999999999773-15.299999999999955-2.5c-5.400000000000091-0.6000000000000227-11.800000000000068-1-19.200000000000045-1-4.199999999999989 0-8.699999999999989 0.39999999999997726-13.100000000000023 1-4.5 0.6000000000000227-8.699999999999989 1.8999999999999773-12.199999999999989 4.2000000000000455-3.5 1.8999999999999773-6.399999999999977 4.7999999999999545-8.699999999999989 8.699999999999932-2.5 3.8999999999999773-3.5 8.300000000000068-3.5 14.399999999999977 0 5.100000000000023 1 9.300000000000068 2.5 13.100000000000023 1.8999999999999773 3.5 4.199999999999989 6.399999999999977 7.399999999999977 8.899999999999977s6.400000000000034 4.5 10.200000000000045 6.400000000000091l11.599999999999966 4.7999999999999545 23.000000000000057 9.600000000000023c9.899999999999977 4.199999999999932 18.59999999999991 8.299999999999955 26.5 12.5 8 4.199999999999932 14.699999999999932 8.899999999999977 20.09999999999991 14.699999999999932s9.900000000000091 12.800000000000068 12.800000000000068 21.100000000000023c3.199999999999932 8.300000000000068 4.7999999999999545 18.899999999999977 4.7999999999999545 31.300000000000068 0.10000000000002274 20.699999999999932-6 38.69999999999993-17.799999999999955 53.09999999999991z"/>
</svg>
