<svg xmlns="http://www.w3.org/2000/svg" viewBox="0 0 1000 1000" width="1000" height="1000">
<path d="M911.4 714.2c-10.399999999999977-41.700000000000045-43.69999999999993-68.80000000000007-85.69999999999993-69.10000000000002-48.60000000000002 0-97.10000000000002-0.6000000000000227-145.4000000000001 0.2999999999999545-15 0.39999999999997726-26.09999999999991-3.8999999999999773-36.799999999999955-14.299999999999955-27.700000000000045-26.399999999999977-45.700000000000045-57.700000000000045-49.89999999999998-97.5-3.6000000000000227-33.900000000000034 1.6999999999999318-66.80000000000001 12.699999999999932-98.10000000000002 14.300000000000068-40.39999999999998 31-80.10000000000002 46.60000000000002-120 12.399999999999977-30.600000000000023 23.399999999999977-61 18.899999999999977-95.5-5.5-41.69999999999999-19.5-78.6-49.19999999999993-107.6-43.700000000000045-42.7-96.20000000000005-56.7-153.90000000000003-46.900000000000006-46.89999999999998 7.799999999999997-86.09999999999997 31.599999999999994-112.19999999999999 74.30000000000001-29.69999999999999 48.19999999999999-38.80000000000001 100.39999999999998-17 155.09999999999997 7.800000000000011 19.900000000000034 16.30000000000001 39.10000000000002 24.399999999999977 58.700000000000045 16.30000000000001 39.099999999999966 32.60000000000002 78.19999999999999 40.400000000000034 120.29999999999995 12.099999999999966 64.80000000000007-3 119.60000000000002-52.80000000000001 162-6.800000000000011 5.899999999999977-14 9.399999999999977-23.80000000000001 9.399999999999977-50.5-0.599999999999909-101.39999999999998-0.2999999999999545-151.89999999999998-0.2999999999999545-30.600000000000023 0-56.400000000000006 12.399999999999977-73.70000000000002 39.799999999999955-7.199999999999989 11.700000000000045-10.399999999999991 25.700000000000045-15.699999999999989 38.80000000000007v128.39999999999998c6.799999999999997 16.299999999999955 21.5 11.700000000000045 34.19999999999999 12.700000000000045v48.89999999999998c0 17.899999999999977 5.900000000000006 23.799999999999955 22.80000000000001 23.799999999999955h715.8000000000001c13.399999999999977 0 20.199999999999932-6.7999999999999545 20.199999999999932-21.5 0.39999999999997726-6.199999999999932 0-12.399999999999977 0-18.5v-32.89999999999998h14.300000000000068c14-0.39999999999997726 19.899999999999977-6.5 19.899999999999977-21.5 0-35.200000000000045 0.2999999999999545-70.70000000000005 0-106 0.39999999999997726-7.7999999999999545-0.7000000000000455-15.600000000000023-2.2000000000000455-22.799999999999955z m-66.5 186.0999999999999h-688.8v-35.19999999999993h688.8v35.19999999999993z"/>
</svg>
