<svg xmlns="http://www.w3.org/2000/svg" viewBox="0 0 1000 1000" width="1000" height="1000">
<path d="M330 459.8h170.3c-62.69999999999999 0-113.5-50.80000000000001-113.5-113.5v-46.30000000000001c0-5.800000000000011 4.699999999999989-10.5 10.5-10.899999999999977 103-6.7000000000000455 103-113.20000000000002 103-113.20000000000002s0 106.4 102.99999999999994 113.20000000000002c5.800000000000068 0.39999999999997726 10.5 5.099999999999966 10.5 10.899999999999977v46.30000000000001c0 62.69999999999999-50.89999999999998 113.5-113.49999999999994 113.5h170.40000000000003c24.199999999999932 0 44.69999999999993-15 52.89999999999998-36.19999999999999 4.199999999999932-10.900000000000034-5.899999999999977-20.200000000000045-16.700000000000045-24.400000000000034-21.199999999999932-8.199999999999989-36.19999999999993-28.899999999999977-36.19999999999993-52.89999999999998v-113.5c0-94.10000000000002-76.30000000000007-170.3-170.30000000000007-170.3-94.19999999999999 0-170.39999999999998 76.19999999999999-170.39999999999998 170.3v113.5c0 24.099999999999966-15.100000000000023 44.69999999999999-36.19999999999999 52.89999999999998-10.900000000000034 4.199999999999989-20.900000000000034 13.600000000000023-16.69999999999999 24.400000000000034 8.299999999999955 21.299999999999955 28.899999999999977 36.19999999999999 52.89999999999998 36.19999999999999z m340.70000000000005 80.40000000000003h-92.5c-11.600000000000023 0-14.400000000000091 6.599999999999909-6.100000000000023 14.899999999999977l27 27c8.199999999999932 8.199999999999932 9.600000000000023 22.699999999999932 3.199999999999932 32.39999999999998l-90.29999999999995 135.20000000000005c-6.5 9.599999999999909-16.899999999999977 9.599999999999909-23.399999999999977 0l-90.10000000000002-135.4000000000001c-6.5-9.599999999999909-5-24.199999999999932 3.1999999999999886-32.39999999999998l27-27c8.199999999999989-8.199999999999932 5.400000000000034-14.899999999999977-6.099999999999966-14.899999999999977h-92.60000000000002c-62.69999999999999 0.10000000000002274-113.5 50.89999999999998-113.5 113.60000000000002v227.10000000000002c0 31.399999999999977 25.400000000000006 56.799999999999955 56.80000000000001 56.799999999999955h454.09999999999997c31.399999999999977 0 56.80000000000007-25.399999999999977 56.80000000000007-56.799999999999955v-227.10000000000002c0.09999999999990905-62.60000000000002-50.90000000000009-113.39999999999998-113.5-113.39999999999998z"/>
</svg>
