<svg xmlns="http://www.w3.org/2000/svg" viewBox="0 0 1000 1000" width="1000" height="1000">
<path d="M247.6 904.8c0 18-14.099999999999994 32.700000000000045-31.599999999999994 32.700000000000045s-31.599999999999994-14.600000000000023-31.599999999999994-32.700000000000045c0-18 14.099999999999994-32.69999999999993 31.599999999999994-32.69999999999993s31.599999999999994 14.600000000000023 31.599999999999994 32.69999999999993z m283.79999999999995 0c0 18-14.100000000000023 32.700000000000045-31.599999999999966 32.700000000000045s-31.600000000000023-14.600000000000023-31.600000000000023-32.700000000000045c0-18 14.100000000000023-32.69999999999993 31.600000000000023-32.69999999999993 17.499999999999943-0.10000000000002274 31.599999999999966 14.600000000000023 31.599999999999966 32.69999999999993z m283.70000000000005 0c0 18-14.100000000000023 32.700000000000045-31.600000000000023 32.700000000000045s-31.5-14.600000000000023-31.5-32.700000000000045c0-18 14.100000000000023-32.69999999999993 31.600000000000023-32.69999999999993s31.5 14.600000000000023 31.5 32.69999999999993z m-9.100000000000023-513.5999999999999h-78.29999999999995c-11.200000000000045-5.684341886080802e-14-20.200000000000045 9.399999999999977-20.200000000000045 21.099999999999966 0 11.5 9 20.80000000000001 20.200000000000045 20.80000000000001h19.09999999999991v101.5c-9.899999999999977 4.899999999999977-26.899999999999977 12.199999999999932-51.19999999999993 19.699999999999932l-13.600000000000023-14.299999999999955c-9.200000000000045-9.600000000000023-22.200000000000045-14-35-11.700000000000045-0.39999999999997726 0-40.60000000000002 7-106.79999999999995 9.100000000000023v-36.5c73.09999999999991-4.599999999999966 110.19999999999993-21.299999999999955 114.89999999999998-23.399999999999977 15.799999999999955-7.5 25.100000000000023-24.600000000000023 23.399999999999977-42.30000000000001l-30.799999999999955-318.79999999999995c-1.6000000000000227-15.400000000000034-10.800000000000068-28.50000000000003-24.5-34.400000000000034-4.5-2.0999999999999943-46.200000000000045-19.4-123.20000000000005-19.4-77.19999999999999 0-118.89999999999998 17.300000000000004-123.39999999999998 19.4-13.700000000000045 5.900000000000006-22.900000000000034 19-24.5 34.400000000000006l-30.700000000000045 318.79999999999995c-1.7999999999999545 18.000000000000057 7.900000000000034 35.10000000000008 23.400000000000034 42.30000000000007 4.699999999999989 2.1000000000000227 42 18.69999999999999 115.09999999999997 23.399999999999977v36.5c-66.39999999999998-2.1000000000000227-106.59999999999997-8.899999999999977-106.79999999999995-9.100000000000023-13-2.099999999999909-26.100000000000023 2.1000000000000227-35.30000000000001 11.700000000000045l-13.800000000000011 14.200000000000045c-24.19999999999999-7.5-41.30000000000001-14.700000000000045-51.19999999999999-19.40000000000009v-101.69999999999993h19.099999999999966c11.200000000000045 0 20.200000000000045-9.400000000000034 20.200000000000045-20.80000000000001 0-11.699999999999989-9-21.100000000000023-20.200000000000045-21.100000000000023h-78.29999999999998c-11 0-19.900000000000006 9.400000000000034-19.900000000000006 21.100000000000023 0 11.5 9 20.80000000000001 19.900000000000006 20.80000000000001h19.099999999999994v114.60000000000002c0 7.5 3.9000000000000057 14.299999999999955 10.100000000000023 18 1.5999999999999943 1 20.19999999999999 12.199999999999932 55.599999999999966 24.299999999999955-2 8.399999999999977-1.7999999999999545 17.600000000000023 1.6000000000000227 26 6.300000000000011 15.399999999999977 20.899999999999977 25.700000000000045 37.30000000000001 25.700000000000045h142.5v23.199999999999932c0 15.399999999999977 8.099999999999966 28.800000000000068 19.899999999999977 36v71.60000000000002c-168.3 3.7999999999999545-271.1 53.799999999999955-275.6 56.200000000000045-6.999999999999972 3.199999999999932-11.499999999999972 10.799999999999955-11.499999999999972 18.699999999999932v5.899999999999977c0 3.300000000000068 10.099999999999994 6 22.400000000000006 6h0.4000000000000057c12.400000000000006 0 31.799999999999983-3.7999999999999545 43.599999999999994-7.7999999999999545 42.39999999999998-14.5 119.10000000000002-34.799999999999955 220.60000000000002-37.10000000000002v22.399999999999977s9 22.5 20.099999999999966 22.5c11.100000000000023 0 20.099999999999966-10.099999999999909 20.099999999999966-22.5v-22.5c101.10000000000002 2.400000000000091 178 22.700000000000045 220.60000000000002 37.200000000000045 11.800000000000068 4 31.200000000000045 7.7999999999999545 43.60000000000002 7.7999999999999545h0.39999999999997726c12.399999999999977 0 22.399999999999977-2.699999999999932 22.399999999999977-5.899999999999977v-6c0-8-4.5-15.399999999999977-11.5-18.699999999999932-4.2999999999999545-2.400000000000091-107.29999999999995-52.40000000000009-275.5999999999999-56.200000000000045v-71.5c11.899999999999977-7.2999999999999545 20.199999999999932-20.600000000000023 20.199999999999932-36v-23.200000000000045h142.89999999999998c22.200000000000045 0 40.200000000000045-18.699999999999932 40.200000000000045-41.89999999999998 0-3.5-0.39999999999997726-6.7999999999999545-1.1000000000000227-10.100000000000023 35-12.199999999999932 53.39999999999998-23.199999999999932 55.200000000000045-24.09999999999991 6-3.800000000000068 9.899999999999977-10.800000000000068 9.899999999999977-18.300000000000068v-114.29999999999995h19c11 0 19.899999999999977-9.400000000000034 19.899999999999977-20.80000000000001 0.10000000000002274-11.699999999999989-8.799999999999955-21.100000000000023-19.899999999999977-21.100000000000023z"/>
</svg>
