<svg xmlns="http://www.w3.org/2000/svg" viewBox="0 0 1000 1000" width="1000" height="1000">
<path d="M500 325.5c75.20000000000005 0 136.29999999999995 78.10000000000002 136.29999999999995 174.5s-61.09999999999991 174.60000000000002-136.29999999999995 174.60000000000002c-75.30000000000001 0-136.3-78.10000000000002-136.3-174.5s61-174.60000000000002 136.3-174.60000000000002z m-437.5 423.70000000000005h875v-498.1h-875v498.1z m157.7-49.200000000000045c0-67.29999999999995-54.599999999999994-121.89999999999998-121.79999999999998-121.89999999999998v-156c67.1 0 121.79999999999998-54.60000000000002 121.79999999999998-121.90000000000003h559.5999999999999c0 67.30000000000001 54.60000000000002 121.90000000000003 121.90000000000009 121.90000000000003v156.10000000000002c-67.30000000000007 0-121.90000000000009 54.59999999999991-121.90000000000009 121.89999999999998l-559.5999999999999-0.10000000000002274z"/>
</svg>
