<svg xmlns="http://www.w3.org/2000/svg" viewBox="0 0 1000 1000" width="1000" height="1000">
<path d="M992.2 852.1c-37.80000000000007-29.800000000000068-75.80000000000007-59.30000000000007-113.80000000000007-88.89999999999998-3.1000000000000227-2.400000000000091-6.2999999999999545-5.2000000000000455-10.699999999999932-3.2000000000000455-4.600000000000023 2.1000000000000227-5.2000000000000455 6.2999999999999545-5.2000000000000455 10.899999999999977 0.10000000000002274 15.5-0.5 30.899999999999977 0.20000000000004547 46.30000000000007 0.5 9.199999999999932-2.6000000000000227 11.199999999999932-11.400000000000091 11.199999999999932-63.19999999999993-0.39999999999997726-126.5-0.2999999999999545-189.69999999999993-0.2999999999999545-170.70000000000005 0-341.40000000000003-0.10000000000002274-512.1 0.2999999999999545-10.900000000000006 0-12.699999999999989-3.2999999999999545-12.599999999999994-13.199999999999932 0.4000000000000057-81.60000000000002 0.29999999999998295-163.10000000000002 0.29999999999998295-244.70000000000005 0-130.10000000000002 0-260.2-0.19999999999998863-390.3 0-6.699999999999989 2-8.699999999999989 8.5-8.5 16.19999999999999 0.5 32.30000000000001 0.20000000000001705 48.5 0.30000000000001137 4.5 0 8.699999999999989-0.4000000000000057 11.099999999999994-4.900000000000006 2.4000000000000057-4.400000000000006-0.19999999999998863-7.5-2.6999999999999886-10.699999999999989-30-38.60000000000001-60-77.2-90.10000000000001-115.60000000000001-6.599999999999994-8.399999999999999-11.899999999999991-8.5-18.299999999999997-0.3999999999999986l-90.2 115.5c-2.3999999999999972 3.0999999999999943-5.099999999999997 6.400000000000006-2.9999999999999973 10.699999999999989 2.2 4.599999999999994 6.3 5.300000000000011 10.899999999999999 5.300000000000011 14.400000000000002-0.09999999999999432 28.7 0 43.099999999999994 0 14.100000000000009 0 14.100000000000009 0 14.100000000000009 13.799999999999983l-0.10000000000000853 162.8 0.10000000000000853 507.79999999999995c0 26.600000000000023 12.799999999999997 40.200000000000045 39.19999999999999 40.30000000000007 123.30000000000001 0.10000000000002274 246.50000000000003 0 369.79999999999995 0h36.700000000000045c112.79999999999995 0 225.69999999999993 0.10000000000002274 338.5 0 7.2999999999999545 0 10.100000000000023 1.6000000000000227 9.799999999999955 9.399999999999977-0.6000000000000227 15.399999999999977-0.10000000000002274 30.899999999999977-0.1999999999999318 46.39999999999998 0 4.800000000000068-0.20000000000004547 9.5 4.7999999999999545 12.200000000000045 5.399999999999977 2.8999999999999773 8.799999999999955-1 12.399999999999977-3.800000000000068 37.39999999999998-29.199999999999932 74.70000000000005-58.5 112-87.79999999999995 10.600000000000023-8.600000000000023 11-12.5 0.3000000000000682-20.899999999999977z m-164.80000000000007-368.5c-5.5 3.8999999999999773-9.299999999999955 6.5-13 9.199999999999989-50.39999999999998 36.19999999999999-100.89999999999998 72.40000000000003-151.19999999999993 108.90000000000003-5.800000000000068 4.199999999999932-10.900000000000091 5.099999999999909-17.800000000000068 3.2999999999999545-34.69999999999993-9.100000000000023-69.5-17.5-104.19999999999993-26.5-7.600000000000023-2-12.100000000000023-0.2999999999999545-17.100000000000023 6.100000000000023-33.900000000000034 43.69999999999993-68.5 86.89999999999998-102.40000000000003 130.5-6 7.699999999999932-9 9.100000000000023-15.899999999999977 0.5-40.69999999999999-50.700000000000045-82.10000000000002-100.80000000000007-122.90000000000003-151.39999999999998-5.599999999999966-6.900000000000091-8.5-7.800000000000068-15.199999999999989-1.1000000000000227-29 28.899999999999977-58.5 57.299999999999955-88.19999999999999 85.5-5.199999999999989 4.899999999999977-7.199999999999989 9.799999999999955-7.099999999999994 16.799999999999955 0.29999999999998295 35.200000000000045 0.09999999999999432 70.39999999999998 0.19999999999998863 105.60000000000002 0 21.899999999999977 0.09999999999999432 21.899999999999977 21.599999999999994 21.899999999999977 207.3 0 414.50000000000006-0.10000000000002274 621.8 0.3000000000000682 9.799999999999955 0 11.799999999999955-2.5 11.600000000000023-11.900000000000091-0.5-38.09999999999991-0.10000000000002274-76.19999999999993-0.10000000000002274-114.19999999999993-0.10000000000002274-60.30000000000007-0.10000000000002274-120.60000000000002-0.10000000000002274-183.5z m-655.0999999999999-62.10000000000002c0.1999999999999318 41 0.09999999999993747 81.89999999999998-5.684341886080802e-14 122.89999999999998v38.80000000000007c5.599999999999994-1.7000000000000455 7.699999999999989-5.2000000000000455 10.399999999999977-7.900000000000091 28-27.899999999999977 56.20000000000002-55.59999999999991 83.69999999999999-83.99999999999994 7.5-7.800000000000011 11.200000000000045-7.300000000000011 17.900000000000034 0.8999999999999773l122.5 147.59999999999997c5.899999999999977 7.2000000000000455 8.5 6.400000000000091 13.800000000000011-0.39999999999997726 29.099999999999966-37.5 58.89999999999998-74.29999999999995 87.69999999999999-112 6.599999999999966-8.600000000000023 12.599999999999966-10.199999999999932 22.499999999999943-7.7999999999999545 38 9.100000000000023 76.30000000000007 17.199999999999932 114.30000000000007 26.199999999999932 6.899999999999977 1.6000000000000227 12 0.8000000000000682 17.799999999999955-3.5 52.39999999999998-39.099999999999966 105-77.89999999999998 157.70000000000005-116.59999999999997 5.2999999999999545-3.8999999999999773 6.899999999999977-8.099999999999966 6.899999999999977-14.399999999999977-0.20000000000004547-42-0.10000000000002274-84.10000000000002-0.10000000000002274-126.10000000000002v-40.69999999999999c-5.199999999999932 0.5-7.399999999999977 3.5999999999999943-10 5.699999999999989-51.69999999999993 41.19999999999999-103.29999999999995 82.5-154.79999999999995 124-5.399999999999977 4.400000000000034-9.899999999999977 5.100000000000023-16.5 3.400000000000034-39.5-10.300000000000011-79.30000000000007-19.900000000000034-118.89999999999998-30.100000000000023-7.2000000000000455-1.8000000000000114-11.900000000000091-0.8999999999999773-16.000000000000057 5.800000000000011-4.899999999999977 7.899999999999977-11 15-16.69999999999999 22.5-25 33.30000000000001-50.10000000000002 66.59999999999997-74.89999999999998 100.09999999999997-4.2000000000000455 5.600000000000023-7.2000000000000455 7.5-11.5 0.5-1.7000000000000455-2.6999999999999886-4.100000000000023-5-6.100000000000023-7.5-40-49.89999999999998-80-99.79999999999995-119.69999999999999-149.89999999999998-4.699999999999989-6-7.400000000000034-7.899999999999977-13.800000000000011-1.3999999999999773-29.900000000000006 30.599999999999966-60.30000000000001 60.69999999999999-90.6 90.79999999999995-4 3.7000000000000455-5.700000000000017 7.600000000000023-5.599999999999994 13.100000000000023z"/>
</svg>
