<svg xmlns="http://www.w3.org/2000/svg" viewBox="0 0 1000 1000" width="1000" height="1000">
<path d="M342.1 690.9c-3-1.7999999999999545-5.600000000000023-4.399999999999977-8.200000000000045-6.7999999999999545-67.89999999999998-62.39999999999998-96.89999999999998-139.39999999999998-80.69999999999999-230.3 18.5-104 99.5-182 203.7-199.60000000000002 9.100000000000023-1.5 9.800000000000011-5 9.800000000000011-12.299999999999983-0.19999999999998863-80.5-0.0999999999999659-160.9-0.0999999999999659-241.4h-9.700000000000045c-16.5 2.6-33.19999999999999 4.3-49.599999999999966 7.9-199.4 43-329.6 162-390.40000000000003 356.6-1.7999999999999776 5.600000000000023-3.2999999999999776 11.300000000000011-4.799999999999978 16.899999999999977-4.8999999999999995 20.5-24.299999999999997 113.90000000000003-0.5999999999999996 227.39999999999998 28.700000000000003 124.70000000000005 97.1 224.30000000000007 203.4 300.1 5.5 3.8999999999999773 7.900000000000006 3.7000000000000455 11.5-2.3999999999999773 39.099999999999994-68.29999999999995 78.4-136.5 117.9-204.5 3.099999999999966-5.2999999999999545 3.1999999999999886-8.299999999999955-2.1999999999999886-11.600000000000023z m606.9-409.2c-2.8999999999999773-6.099999999999966-5.100000000000023-7.099999999999966-11.200000000000045-3.5-67.59999999999991 40.30000000000001-135.29999999999995 80.40000000000003-203.0999999999999 120.40000000000003-5.300000000000068 3.099999999999966-6.800000000000068 5.7999999999999545-3.800000000000068 11.199999999999989 1.7000000000000455 3.099999999999966 2.7000000000000455 6.599999999999966 3.800000000000068 10 28.5 87.69999999999999 16.09999999999991 168.99999999999994-42.60000000000002 240.3-67.10000000000002 81.60000000000002-176 109.79999999999995-275.40000000000003 74-8.599999999999966-3.1000000000000227-11-0.5-14.599999999999966 5.899999999999977-39.30000000000001 70.20000000000005-78.80000000000001 140.29999999999995-118.30000000000001 210.39999999999998l8.5 4.800000000000068c15.699999999999989 5.899999999999977 31.099999999999966 12.5 47.099999999999966 17.5 194.80000000000007 60.299999999999955 366.6 20.399999999999977 515-119.30000000000007 4.300000000000068-4 8.399999999999977-8.199999999999932 12.5-12.399999999999977 14.399999999999977-15.600000000000023 77.10000000000002-87.5 112.10000000000002-198 36.10000000000002-122.79999999999995 25.399999999999977-243.10000000000002-30-361.3z m-413.5-27.899999999999977c62.39999999999998 9.899999999999977 113.89999999999998 39.30000000000001 154 88.19999999999999 4.5 5.5 7.5 6 13.399999999999977 2.5 67.5-39.19999999999999 135.10000000000002-78.30000000000001 202.80000000000007-117 7.2999999999999545-4.199999999999989 6.599999999999909-7.199999999999989 2.3999999999999773-13-20.300000000000068-28.69999999999999-42.89999999999998-55.400000000000006-68.60000000000002-79.30000000000001-71.20000000000005-66.49999999999999-154.5-108.99999999999999-250.39999999999998-126.79999999999998-16.800000000000068-3.100000000000006-33.700000000000045-5.300000000000006-50.60000000000002-7.900000000000006h-9.700000000000045v243.3c0 4.899999999999977-0.6999999999999318 8.799999999999983 6.7000000000000455 10z"/>
</svg>
