<svg xmlns="http://www.w3.org/2000/svg" viewBox="0 0 1000 1000" width="1000" height="1000">
<path d="M973.9 207.8c-77.79999999999995-67.9-155.69999999999993-135.8-233.60000000000002-203.70000000000002-6.199999999999932-5.399999999999994-4.2999999999999545-5.699999999999994-11 0.2000000000000055l-222.59999999999997 194.1-14 12.299999999999983 0.5 1.3000000000000114h5.5c40.00000000000006 0 79.90000000000003 0.09999999999999432 119.90000000000003-0.09999999999999432 4.399999999999977 0 6 0.4000000000000057 5.100000000000023 5.599999999999994-4 22-9.100000000000023 43.69999999999999-15.600000000000023 65-50.5 166.7-181.5 305.79999999999995-350.5 357.70000000000005-57.30000000000001 17.59999999999991-115.90000000000003 24.5-175.8 20.59999999999991-15.400000000000006-1-30.60000000000001-2.7999999999999545-45.90000000000001-5-8-1.099999999999909-14.099999999999998 5.100000000000023-12.5 12.300000000000068 1.1000000000000014 4.899999999999977 4.900000000000002 6.699999999999932 9.100000000000001 8.199999999999932 104.5 35.60000000000002 211.3 44.90000000000009 320.4 27.600000000000023 93.40000000000003-14.799999999999955 180.20000000000005-47.19999999999993 258.80000000000007-100.10000000000002 138.69999999999993-93.29999999999995 224.69999999999993-221.59999999999997 253.5999999999999-386.99999999999994 0.7000000000000455-4.200000000000017 2.5-5.100000000000023 6.5-5.100000000000023 33.200000000000045 0.20000000000001705 66.40000000000009 0.10000000000002274 99.70000000000005 0.10000000000002274 1.7999999999999545 0 3.7000000000000455 0.5999999999999943 5.399999999999977-0.700000000000017-0.2999999999999545-1.6999999999999886-1.8999999999999773-2.4000000000000057-3-3.299999999999983z m-78.5 413.7v-376.3c0-1-0.10000000000002274-2.0999999999999943-1.5-2.1999999999999886-1.2999999999999545-0.09999999999999432-1.8999999999999773 0.6999999999999886-2.199999999999932 1.8000000000000114-0.20000000000004547 0.799999999999983-0.40000000000009095 1.6999999999999886-0.5 2.5-19.800000000000068 92.5-59.200000000000045 175.7-117.90000000000009 249.8-1.8999999999999773 2.5-2.7999999999999545 4.899999999999977-2.7999999999999545 8 0.10000000000002274 163.19999999999993 0.10000000000002274 326.29999999999995 0 489.5 0 4.5 1.3999999999999773 5.399999999999977 5.600000000000023 5.399999999999977 37.5-0.20000000000004547 75.10000000000002-0.10000000000002274 112.60000000000002-0.10000000000002274 7.5 0 6.599999999999909 0.8000000000000682 6.599999999999909-6.699999999999932 0.10000000000002274-123.90000000000009 0.10000000000002274-247.80000000000007 0.10000000000002274-371.70000000000005z m-186.89999999999998-53.700000000000045c-2 1.6000000000000227-3 2.300000000000068-3.8999999999999773 3.1000000000000227-35.89999999999998 32.60000000000002-75 60.700000000000045-117.20000000000005 84.39999999999998-3.1000000000000227 1.7000000000000455-3.7999999999999545 3.800000000000068-3.7999999999999545 7.100000000000023 0.10000000000002274 110.70000000000005 0.10000000000002274 221.39999999999998 0 332.1 0 4.2000000000000455 1 5.5 5.399999999999977 5.5 37.700000000000045-0.20000000000004547 75.39999999999998-0.20000000000004547 113.10000000000002 0 5.399999999999977 0 6.5-1.6000000000000227 6.399999999999977-6.600000000000023-0.10000000000002274-139.60000000000002-0.10000000000002274-279.19999999999993-0.10000000000002274-418.79999999999995v-6.800000000000068h0.10000000000002274z m-186.79999999999995 126.5c0-6.2999999999999545 0-6.2999999999999545-6-3.7999999999999545-36.80000000000007 15.200000000000045-74.70000000000005 27.299999999999955-113.60000000000002 35.799999999999955-3.900000000000034 0.900000000000091-5.300000000000011 2.300000000000068-5.300000000000011 6.400000000000091 0.0999999999999659 87.19999999999993 0.0999999999999659 174.29999999999995 0 261.5 0 4.5 1 5.7999999999999545 5.699999999999989 5.7999999999999545 37.89999999999998-0.20000000000004547 75.80000000000001-0.20000000000004547 113.60000000000002 0 4.699999999999932 0 5.699999999999932-1.2999999999999545 5.699999999999932-5.7999999999999545-0.1999999999999318-50-0.09999999999990905-100-0.09999999999990905-150v-149.9000000000001z m-378.6 40.60000000000002c-39.00000000000003-6-77.40000000000002-14.899999999999977-114.80000000000003-27.699999999999932-4.199999999999996-1.5-5.199999999999996-0.6000000000000227-5.199999999999996 3.7999999999999545 0.09999999999999787 47.200000000000045 0.09999999999999787 94.39999999999998 0.09999999999999787 141.60000000000002 0 47 0.10000000000000142 94.10000000000002-0.09999999999999787 141.10000000000002 0 5.099999999999909 1.3999999999999986 6.199999999999932 6.399999999999999 6.199999999999932 37.7-0.1999999999999318 75.4-0.1999999999999318 113.1 0 4.200000000000017 0 5.599999999999994-0.8999999999999773 5.599999999999994-5.399999999999977-0.09999999999999432-84.60000000000002-0.09999999999999432-169.10000000000002 0-253.70000000000005-0.19999999999998863-3.699999999999932-1.0999999999999943-5.2999999999999545-5.099999999999994-5.899999999999977z m191.79999999999995 8.300000000000068c0-4-0.8999999999999773-5.400000000000091-5.199999999999989-4.900000000000091-38 4.600000000000023-76.19999999999999 5.900000000000091-114.39999999999998 3.800000000000068-4.600000000000023-0.20000000000004547-5.400000000000006 1.2999999999999545-5.400000000000006 5.5 0.09999999999999432 82.29999999999995 0.09999999999999432 164.60000000000002 0 246.89999999999998 0 4.5 1.4000000000000057 5.399999999999977 5.599999999999994 5.399999999999977 37.900000000000006-0.10000000000002274 75.69999999999999-0.1999999999999318 113.60000000000002 0 5.099999999999966 0 5.7999999999999545-1.7999999999999545 5.7999999999999545-6.199999999999932-0.0999999999999659-41.5-0.0999999999999659-83-0.0999999999999659-124.5 0-41.90000000000009 0-83.90000000000009 0.0999999999999659-126z"/>
</svg>
