<svg xmlns="http://www.w3.org/2000/svg" viewBox="0 0 1000 1000" width="1000" height="1000">
<path d="M872.6 62.5c21.199999999999932 21.599999999999994 41.89999999999998 42.400000000000006 62 63.8 2.5 2.700000000000003 3.3999999999999773 9.700000000000003 1.6999999999999318 13.000000000000014-28.399999999999977 56.19999999999999-57.09999999999991 112.19999999999999-86.39999999999998 168-1.8999999999999773 3.6999999999999886-7.5 6.699999999999989-11.899999999999977 7.699999999999989-29.100000000000023 6.800000000000011-58.299999999999955 12.699999999999989-87.20000000000005 19.69999999999999-6.399999999999977 1.6000000000000227-13.099999999999909 5.199999999999989-17.899999999999977 9.800000000000011-35.39999999999998 34.69999999999999-70 70.10000000000002-105.39999999999998 104.69999999999999-7.5 7.400000000000034-6.600000000000023 11.900000000000034-1 19.80000000000001 11.700000000000045 16.69999999999999 22.200000000000045 34.39999999999998 32.60000000000002 52 5.699999999999932 9.600000000000023 3.5 18.100000000000023-5 26.200000000000045-17.700000000000045 16.59999999999991-35.39999999999998 33.39999999999998-51.39999999999998 51.59999999999991-11.100000000000023 12.700000000000045-22.300000000000068 14.300000000000068-35.60000000000002 6.100000000000023-9.100000000000023-5.600000000000023-15.5-4.5-22.800000000000068 3.6000000000000227-9.099999999999909 10-19.699999999999932 18.5-29.399999999999977 27.200000000000045 7.5 14.799999999999955 14.200000000000045 27 20 39.59999999999991 5.399999999999977 11.700000000000045 3.6000000000000227 21.40000000000009-6.5 31.200000000000045-74 73.29999999999995-147.59999999999997 146.89999999999998-220.89999999999998 221-10.300000000000011 10.399999999999977-21 13.100000000000023-32.39999999999998 6.2000000000000455-24.600000000000023-15-49.900000000000034-29.600000000000023-72.10000000000002-47.700000000000045-47.69999999999999-38.700000000000045-90-82.79999999999995-123.1-135-24.200000000000003-38.299999999999955-23.700000000000003-40.799999999999955 8.299999999999997-72.79999999999995 68.3-68.30000000000007 136.89999999999998-136.5 204.8-205.40000000000003 10.600000000000023-10.800000000000011 20.399999999999977-13.5 33.30000000000001-7.100000000000023 8 3.900000000000034 16.5 7.100000000000023 23.399999999999977 12.5 9.800000000000011 7.900000000000034 16.5 5.300000000000011 23.30000000000001-3.3000000000000114 2.6000000000000227-3.2999999999999545 5.600000000000023-6.2999999999999545 8.899999999999977-8.899999999999977 14.100000000000023-11.199999999999989 23.30000000000001-23 10.300000000000011-41.5-5.5-7.899999999999977-2.099999999999966-15.600000000000023 4.900000000000034-22.30000000000001 19.19999999999999-18.5 38-37.30000000000001 56.39999999999998-56.39999999999998 7.199999999999989-7.400000000000034 14.800000000000011-10.199999999999989 23.600000000000023-5 20 11.899999999999977 39.60000000000002 24.30000000000001 59.19999999999993 36.69999999999999 2.7000000000000455 1.6999999999999886 5.100000000000023 3.8999999999999773 8.300000000000068 6.399999999999977 3.3999999999999773-3 6.699999999999932-5.5 9.5-8.399999999999977 34.69999999999993-34.69999999999999 69.60000000000002-69.10000000000002 103.89999999999998-104.19999999999999 4.899999999999977-5 8.600000000000023-12.199999999999989 10.200000000000045-19 6.699999999999932-28.100000000000023 12.099999999999909-56.5 18.899999999999977-84.5 1.5-6 6.100000000000023-13.100000000000023 11.299999999999955-15.800000000000011 57.200000000000045-30 114.60000000000002-59.099999999999994 174.20000000000005-89.5z m-744.6 666.6c2.3000000000000114 16.699999999999932 10.199999999999989 28.600000000000023 25.19999999999999 35.10000000000002 15.800000000000011 6.7999999999999545 29.400000000000006 2.3999999999999773 41-9 50.70000000000002-50.40000000000009 101.19999999999999-100.90000000000009 151.60000000000002-151.70000000000005 16.80000000000001-17 17.099999999999966-38 1.8000000000000114-53.700000000000045-14.5-15.099999999999909-37.400000000000034-14.799999999999955-53.700000000000045 1.5-50.79999999999998 50.30000000000007-101.49999999999997 100.70000000000005-151.49999999999997 151.80000000000007-6.700000000000017 6.7999999999999545-9.599999999999994 17.199999999999932-14.400000000000006 26z m100.6 99.60000000000002c2.200000000000017 16.399999999999977 10.900000000000006 30.5 24.400000000000006 35.89999999999998 16 6.2999999999999545 30.30000000000001 2.699999999999932 42.39999999999998-9.300000000000068 50.60000000000002-50.5 101.20000000000005-100.89999999999998 151.60000000000002-151.5999999999999 15.5-15.600000000000023 15.899999999999977-38.40000000000009 1.8999999999999773-52.90000000000009-14.699999999999989-15.099999999999909-37.599999999999966-15.5-53.69999999999999 0.5-51.19999999999999 50.700000000000045-102.09999999999997 101.5-152.5 152.9000000000001-6.5 6.399999999999977-9.599999999999994 16.199999999999932-14.099999999999994 24.5z"/>
</svg>
