<svg xmlns="http://www.w3.org/2000/svg" viewBox="0 0 1000 1000" width="1000" height="1000">
<path d="M903.8 655.5c0-88.39999999999998-0.2999999999999545-176.60000000000002 0.3000000000000682-265 0.10000000000002274-11.300000000000011-2.3999999999999773-15.199999999999989-14.5-15.100000000000023-128.10000000000002 0.4000000000000341-256.1 0.4000000000000341-384.20000000000005 0.10000000000002274-11.099999999999966 0-14.099999999999966 3.1999999999999886-13.899999999999977 14.199999999999989 0.5 49.60000000000002-0.30000000000001137 99.19999999999999 0.6000000000000227 148.7 0.2999999999999545 14-3.7000000000000455 17.200000000000045-17.400000000000034 17.100000000000023-121.30000000000001-0.5-242.5-0.20000000000004547-363.79999999999995-0.5-10.80000000000004 0-15.600000000000037 1.7000000000000455-15.500000000000028 14.299999999999955 0.3999999999999915 117.60000000000002 0.29999999999999716 235.20000000000005 0 352.80000000000007 0 10.899999999999977 2.3999999999999915 15.5 14.799999999999997 15.399999999999977 177.7-0.2999999999999545 355.40000000000003-0.2999999999999545 533.0999999999999 0 12.200000000000045 0 14.900000000000091-4 14.600000000000023-15.299999999999955-0.6999999999999318-32.90000000000009 0.3000000000000682-65.90000000000009-0.5-98.80000000000007-0.2999999999999545-12.100000000000023 3.6000000000000227-15.199999999999932 15-14.5 16.200000000000045 1 32.5 0.8999999999999773 48.60000000000002 0 11.799999999999955-0.6000000000000227 16.299999999999955 2.300000000000068 15.899999999999977 15.200000000000045-1 32.39999999999998 0.3000000000000682 64.79999999999995-0.6000000000000227 97.19999999999993-0.39999999999997726 13.5 4.100000000000023 16.40000000000009 16.800000000000068 16.300000000000068 45-0.8000000000000682 89.89999999999998-0.8999999999999773 134.79999999999995 0 13.600000000000023 0.2999999999999545 16.300000000000068-4.5 16.300000000000068-16.899999999999977-0.5-88.60000000000002-0.40000000000009095-177-0.40000000000009095-265.20000000000005z m-459.9-14.799999999999955c32.5 0 32.5 0 32.5 32.69999999999993 0 29 0 29-31.5 29-31.799999999999955 0-31.799999999999955 0-31.799999999999955-31.699999999999932 0.19999999999998863-29.90000000000009 0.19999999999998863-29.90000000000009 30.799999999999955-30z m2.8000000000000114 75.29999999999995c29.69999999999999 0 29.69999999999999 0 29.69999999999999 32.5 0 31.799999999999955 0 31.799999999999955-31.899999999999977 31.799999999999955-31.19999999999999 0-31.19999999999999 0-31.30000000000001-30.799999999999955 0.10000000000002274-33.5 0.10000000000002274-33.5 33.5-33.5z m-290.2-46.700000000000045c0-28.59999999999991 0-28.59999999999991 31.69999999999999-28.59999999999991 31.80000000000001 0 31.80000000000001 0 31.80000000000001 31.699999999999932 0 29.899999999999977 0 29.899999999999977-30.19999999999999 29.899999999999977-33.30000000000001 0.10000000000002274-33.30000000000001 0.10000000000002274-33.30000000000001-33z m0 78.80000000000007c0-32 0-32 31.80000000000001-32 31.69999999999999 0 31.69999999999999 0 31.69999999999999 32.19999999999993 0 32 0 32-31.80000000000001 32-31.69999999999999-0.09999999999990905-31.69999999999999-0.09999999999990905-31.69999999999999-32.19999999999993z m63.5 79.19999999999993c0 32.5 0 32.5-32.19999999999999 32.5-31.30000000000001 0-31.30000000000001 0-31.30000000000001-31.899999999999977 0-34.19999999999993 0-34.19999999999993 33.69999999999999-34.19999999999993 29.700000000000017 0 29.700000000000017 0 29.80000000000001 30.399999999999977v3.199999999999932z m44.69999999999999 32.5c-30 0-30 0-30-30.299999999999955 0-35.89999999999998 0-35.89999999999998 35.5-35.89999999999998 27.600000000000023 0 27.600000000000023 0 27.600000000000023 32.69999999999993 0.0999999999999659 33.5 0.0999999999999659 33.5-33.10000000000002 33.5z m0.6000000000000227-79.59999999999991c-30.600000000000023 0-30.600000000000023 0-30.600000000000023-29.90000000000009 0-34.299999999999955 0-34.299999999999955 34.10000000000002-34.299999999999955 29 0 29 0 29 31.5 0.0999999999999659 32.700000000000045 0.0999999999999659 32.700000000000045-32.5 32.700000000000045z m0.5-77.80000000000007c-31.100000000000023 0-31.100000000000023 0-31.100000000000023-30.899999999999977 0-30.799999999999955 0-30.799999999999955 32.80000000000001-30.799999999999955 30.399999999999977 0 30.399999999999977 0 30.399999999999977 30.199999999999932 0 31.5 0 31.5-32.099999999999966 31.5z m99.80000000000001-61.69999999999993c32.599999999999966 0 32.599999999999966 0 32.599999999999966 32.59999999999991 0 29 0 29-31.19999999999999 29-31.899999999999977 0-31.899999999999977 0-31.899999999999977-31.699999999999932 0-29.899999999999977 0-29.899999999999977 30.5-29.899999999999977z m32.599999999999966 107.29999999999995c0 32.200000000000045 0 32.200000000000045-33 32.200000000000045-30.19999999999999 0-30.19999999999999 0-30.19999999999999-30.40000000000009 0-33.799999999999955 0-33.799999999999955 33.10000000000002-33.799999999999955 30.099999999999966 0 30.099999999999966 0 30.099999999999966 32z m0 76.79999999999995c0 35.10000000000002 0 35.10000000000002-34.599999999999966 35.10000000000002-28.5 0-28.5 0-28.5-33.299999999999955 0-32.80000000000007 0-32.80000000000007 32.299999999999955-32.80000000000007 30.900000000000034 0 30.900000000000034 0 30.80000000000001 31z m45.69999999999999 35c-30.599999999999966 0-30.599999999999966 0-30.69999999999999-31.199999999999932 0-34.89999999999998 0-34.89999999999998 34.80000000000001-34.89999999999998 28.30000000000001 0 28.30000000000001 0 28.30000000000001 33.59999999999991 0.0999999999999659 32.5 0.0999999999999659 32.5-32.400000000000034 32.5z m99.89999999999998-414.49999999999994c0-6.100000000000023 3.5-6.400000000000034 8.100000000000023-6.400000000000034 20.800000000000068 0.10000000000002274 41.60000000000002 0.20000000000004547 62.5 0 6.899999999999977-0.0999999999999659 9 3.1000000000000227 8.899999999999977 9.400000000000034-0.2999999999999545 11.399999999999977-0.09999999999990905 22.80000000000001-0.09999999999990905 34.19999999999999h-0.20000000000004547v21.80000000000001c0.10000000000002274 19.499999999999943-0.39999999999997726 19.69999999999999-19.100000000000023 19.099999999999966-16-0.5-32.10000000000002-1-48.10000000000002-0.1999999999999318-9 0.39999999999997726-12.799999999999955-3.2000000000000455-12.799999999999955-11.300000000000068 0-22.099999999999966 0.6000000000000227-44.39999999999998 0.7999999999999545-66.59999999999997z m79.40000000000009 289.8c0.09999999999990905 8.199999999999932-3.1000000000000227 10.899999999999977-11.100000000000023 10.799999999999955-19.300000000000068-0.2999999999999545-38.700000000000045-0.39999999999997726-58 0-8.5 0.3000000000000682-10.899999999999977-3.3999999999999773-10.700000000000045-11.199999999999932 0.3000000000000682-10.400000000000091 0.10000000000002274-20.90000000000009 0.10000000000002274-31.300000000000068 0-10.399999999999977 0.2999999999999545-20.899999999999977-0.10000000000002274-31.299999999999955-0.39999999999997726-8.300000000000068 3.1000000000000227-10.800000000000068 11-10.5 19.300000000000068 0.39999999999997726 38.700000000000045 0.39999999999997726 58 0 8.200000000000045-0.20000000000004547 10.899999999999977 2.7999999999999545 10.800000000000068 10.799999999999955-0.3000000000000682 20.899999999999977-0.3000000000000682 41.80000000000007 0 62.700000000000045z m0.09999999999990905-172.20000000000005c-0.6999999999999318 10.399999999999977-0.1999999999999318 20.800000000000068-0.1999999999999318 31.200000000000045 0 39.60000000000002 0 39.60000000000002-39.60000000000002 39.60000000000002-7.7999999999999545 0-15.700000000000045-0.8000000000000682-23.399999999999977 0.1999999999999318-12.600000000000023 1.5-17.800000000000068-2.2999999999999545-16.899999999999977-15.899999999999977 1.099999999999909-18.200000000000045 0.7999999999999545-36.5 0.2999999999999545-54.700000000000045-0.2999999999999545-9.899999999999977 2.3999999999999773-14.099999999999909 13.100000000000023-13.599999999999909 17.699999999999932 0.7999999999999545 35.39999999999998 0.599999999999909 53.10000000000002 0 9.899999999999977-0.40000000000009095 14.299999999999955 2.599999999999909 13.599999999999909 13.199999999999932z m33.60000000000002-50.19999999999993c0.3000000000000682-21.400000000000034 0.3000000000000682-42.80000000000007 0.10000000000002274-64.20000000000005-0.10000000000002274-7.699999999999989 3.3999999999999773-9.600000000000023 10.5-9.5 19.899999999999977 0.30000000000001137 39.60000000000002 0.30000000000001137 59.5-0.19999999999998863 7.7999999999999545-0.19999999999998863 9.799999999999955 3.099999999999966 9.600000000000023 10.199999999999989-0.3000000000000682 10.899999999999977-0.10000000000002274 21.899999999999977-0.10000000000002274 32.80000000000001h-0.10000000000002274c0 9.399999999999977-0.8999999999999773 18.899999999999977 0.3000000000000682 28.19999999999999 1.099999999999909 10.399999999999977-1.7000000000000455 13.799999999999955-12.5 13.200000000000045-18.700000000000045-1-37.40000000000009-0.8000000000000682-56.200000000000045-0.10000000000002274-8.5 0.2999999999999545-11.200000000000045-2.5-11.100000000000023-10.399999999999977z m13.200000000000045 37c18.199999999999932 0.5 36.39999999999998 0.39999999999997726 54.60000000000002 0 8.5-0.20000000000004547 12.199999999999932 2.3999999999999773 11.899999999999977 11.5-0.5 20.299999999999955-0.5 40.59999999999991 0 60.89999999999998 0.1999999999999318 8.399999999999977-1.8000000000000682 12.199999999999932-11.100000000000023 11.799999999999955-19.200000000000045-0.6000000000000227-38.5-0.6000000000000227-57.700000000000045 0-8.699999999999932 0.3000000000000682-10.599999999999909-3.3999999999999773-10.299999999999955-11 0.39999999999997726-10.399999999999977 0.10000000000002274-20.799999999999955 0.10000000000002274-31.199999999999932 0-9.900000000000091 0.5-19.800000000000068-0.20000000000004547-29.700000000000045-0.6999999999999318-9.899999999999977 3.6000000000000227-12.600000000000023 12.700000000000045-12.299999999999955z m63.69999999999993 193c-8.5 8.899999999999977-25.699999999999932 2.699999999999932-39 2.8999999999999773-37.299999999999955 0.39999999999997726-37.299999999999955 0.1999999999999318-37.299999999999955-37.200000000000045 0-12 0.2999999999999545-24-0.10000000000002274-36-0.2999999999999545-7.899999999999977 2.2000000000000455-11.100000000000023 10.5-10.899999999999977 19.800000000000068 0.5 39.60000000000002 0.2999999999999545 59.39999999999998 0.10000000000002274 6.600000000000023-0.10000000000002274 9.400000000000091 2.1000000000000227 9.200000000000045 9-0.2999999999999545 10.899999999999977-0.10000000000002274 21.899999999999977-0.10000000000002274 35.299999999999955-1.1999999999999318 10.899999999999977 5.800000000000068 28-2.6000000000000227 36.80000000000007z m36.90000000000009-295.40000000000003c0-7.300000000000011 3.3999999999999773-8.600000000000023 9.5-8.5 19.799999999999955 0.30000000000001137 39.5 0.30000000000001137 59.299999999999955 0 7.2999999999999545-0.10000000000002274 10.299999999999955 2.099999999999966 10 9.699999999999989-0.5 10.899999999999977-0.10000000000002274 21.80000000000001-0.10000000000002274 32.69999999999999h0.3000000000000682c0 10.400000000000034-0.3000000000000682 20.69999999999999 0.09999999999990905 31.099999999999966 0.40000000000009095 7.2000000000000455-1.599999999999909 10.200000000000045-9.399999999999977 10.100000000000023-19.699999999999932-0.1999999999999318-39.39999999999998 0.20000000000004547-59.10000000000002 0.7000000000000455-7.699999999999932 0.1999999999999318-11.699999999999932-2-11.5-10.5 0.7000000000000455-21.600000000000023 1-43.400000000000034 0.900000000000091-65.30000000000001z m78.89999999999998 287.90000000000003c0.1999999999999318 8.399999999999977-3.1000000000000227 10.799999999999955-11 10.599999999999909-19.200000000000045-0.2999999999999545-38.60000000000002-0.2999999999999545-57.80000000000007 0-7.2999999999999545 0.10000000000002274-10.299999999999955-2.3999999999999773-10.099999999999909-9.899999999999977 0.39999999999997726-10.899999999999977 0.09999999999990905-21.899999999999977 0.09999999999990905-32.799999999999955 0-9.899999999999977 0.6000000000000227-19.899999999999977-0.1999999999999318-29.700000000000045-0.8999999999999773-10.100000000000023 3.2999999999999545-12.299999999999955 12.600000000000023-12 18.199999999999932 0.6000000000000227 36.5 0.5 54.69999999999993 0 8.5-0.2999999999999545 12.100000000000023 1.8999999999999773 11.800000000000068 11.200000000000045-0.7000000000000455 20.899999999999977-0.6000000000000227 41.799999999999955-0.10000000000002274 62.60000000000002z m-3.300000000000068-104c-8.799999999999955 8.599999999999909-27.799999999999955 2.2999999999999545-42.299999999999955 2.3999999999999773-33.10000000000002 0.2999999999999545-33.10000000000002 0.10000000000002274-33.10000000000002-33.30000000000007v-11.799999999999955c1.8000000000000682-10.799999999999955-6.100000000000023-28.5 3.6000000000000227-36.10000000000002 8.299999999999955-6.5 25-2.3999999999999773 38-2.3999999999999773 37.10000000000002-0.20000000000004547 37.39999999999998-0.10000000000002274 36.89999999999998 37.700000000000045-0.2999999999999545 14.799999999999955 6.600000000000023 34.19999999999993-3.1000000000000227 43.5z m-673.3-362.20000000000005c11.900000000000006 0.30000000000001137 9.099999999999994 8.899999999999977 9.099999999999994 15.600000000000023 0.09999999999999432 40.19999999999999 0.09999999999999432 80.39999999999998 0.09999999999999432 120.59999999999997 0 40.80000000000001 0.30000000000001137 81.5-0.29999999999998295 122.19999999999999-0.20000000000001705 11.300000000000068 2.299999999999983 15.800000000000068 14.599999999999994 15.100000000000023 19.80000000000001-1 39.69999999999999-1.3999999999999773 59.5 0.10000000000002274 14.5 1 17-4.300000000000068 16.899999999999977-17.5-0.5999999999999659-79.90000000000003-0.2999999999999545-159.8-0.19999999999998863-239.70000000000005 0-5.199999999999989-3.3999999999999773-13.799999999999955 3.8000000000000114-14.899999999999977 14.399999999999977-2.1999999999999886 8-12.399999999999977 8.5-19.19999999999999 0.6999999999999886-8.700000000000017 3.8000000000000114-23.400000000000006-1.3000000000000114-25.30000000000001-15.399999999999977-5.599999999999994-11-16.599999999999994-10.699999999999989-26.19999999999999 0.30000000000001137-10-3.1000000000000227-12.400000000000006-12.600000000000023-12.100000000000023-21.399999999999977 0.6000000000000227-42.89999999999998 0.8000000000000114-64.19999999999999 0-10.799999999999983-0.29999999999998295-14.599999999999994 2.8000000000000114-14.299999999999983 13.900000000000006 0.29999999999998295 8.300000000000011 5.900000000000006 20.700000000000017-10.099999999999994 22.700000000000017-1 0.09999999999999432-2 4.5-2.1000000000000227 7-0.29999999999998295 9.899999999999977-0.19999999999998863 19.899999999999977-0.09999999999999432 29.69999999999999 0.09999999999999432 3.3999999999999773-0.5999999999999943 7.800000000000011 3.4000000000000057 8z m391.70000000000005 93.69999999999999c83-0.6999999999999886 166.0999999999999-0.30000000000001137 249.0999999999999-0.30000000000001137 36.200000000000045 0 35.700000000000045 0 35.90000000000009-35.89999999999998 0.09999999999990905-11.5-3.800000000000068-13.699999999999989-14.300000000000068-13.600000000000023-45.39999999999998 0.5-90.89999999999998 0.30000000000001137-136.29999999999995 0.30000000000001137h-123.80000000000007c-30.299999999999955 0-29.199999999999932 0-30.59999999999991 30.100000000000023-0.900000000000091 16.399999999999977 4.7999999999999545 19.599999999999966 20 19.399999999999977z m-291.30000000000007-231c14-0.8999999999999773 28.100000000000023 0 42.10000000000002-3 32.80000000000001-6.799999999999983 56-35.999999999999986 52.60000000000002-66.29999999999998-19.600000000000023 23.799999999999997-31.100000000000023 29.89999999999999-64.30000000000001 34.599999999999994-13.800000000000011 2-27.80000000000001 3.700000000000003-41.60000000000002 6.599999999999994-31.399999999999977 6.800000000000011-46.79999999999998 36.099999999999994-35.29999999999998 69.30000000000001 5.599999999999994-28.30000000000001 18.599999999999994-39.30000000000001 46.49999999999997-41.20000000000002z m82 395.00000000000006c-0.5999999999999659 6.899999999999977-3.3999999999999773 16.199999999999932 10.100000000000023 15.799999999999955 26.5-0.6000000000000227 53.10000000000002-0.6000000000000227 79.69999999999999 0 13.800000000000011 0.2999999999999545 10.400000000000034-9.200000000000045 9.800000000000011-15.899999999999977-0.6000000000000227-6.600000000000023 6.800000000000011-18.30000000000001-9.100000000000023-17.700000000000045-13 0.4000000000000341-26.099999999999966 0.10000000000002274-39 0.10000000000002274-14.099999999999966 0-28.099999999999966 0.30000000000001137-42.19999999999999-0.10000000000002274-15.5-0.39999999999997726-8.599999999999966 11.100000000000023-9.300000000000011 17.800000000000068z"/>
</svg>
