<svg xmlns="http://www.w3.org/2000/svg" viewBox="0 0 1000 1000" width="1000" height="1000">
<path d="M640.8 681.7c-1.5-7.900000000000091-5.2999999999999545-13-11.699999999999932-17.40000000000009-34.200000000000045-23.59999999999991-72.80000000000007-37-111.89999999999998-49.5-8.700000000000045-2.7999999999999545-13.400000000000034-0.8999999999999773-19.200000000000045 6.100000000000023-43.19999999999999 51.80000000000007-97.5 76.80000000000007-165.60000000000002 65.80000000000007-46.39999999999998-7.5-82.29999999999998-32.60000000000002-111.09999999999997-68.90000000000009-3-3.699999999999932-5.100000000000023-8.299999999999955-11.600000000000023-6.2999999999999545-43.19999999999999 13-85.89999999999999 27.100000000000023-123.6 52.799999999999955-6.3999999999999915 4.400000000000091-10 9.900000000000091-11.5 17.600000000000023-3.0999999999999943 15.899999999999977-6.299999999999997 31.899999999999977-10.899999999999991 47.39999999999998-3 10.400000000000091-0.6000000000000014 13.900000000000091 9.899999999999991 15.900000000000091 100.9 19.799999999999955 202.70000000000002 27.799999999999955 321.70000000000005 26.5 28.699999999999932-0.6000000000000227 73.69999999999993-2.800000000000068 118.59999999999991-7.400000000000091 44-4.5 87.70000000000005-11 131.20000000000005-19.5 7.600000000000023-1.5 9.699999999999932-4.599999999999909 7.699999999999932-12.299999999999955-4.599999999999909-16.700000000000045-8.799999999999955-33.700000000000045-12-50.799999999999955z m-419.19999999999993-240.10000000000002c12.899999999999977-0.9000000000000341 27.899999999999977-3.900000000000034 38.39999999999998 1.2999999999999545 30.600000000000023 15.100000000000023 62.89999999999998 16.100000000000023 95.39999999999998 16.900000000000034 32.200000000000045 0.6999999999999886 64.80000000000001 0.8999999999999773 95.30000000000001-10.100000000000023 13.699999999999989-4.899999999999977 26.600000000000023-8.699999999999989 41.19999999999999-8.399999999999977 32.10000000000002 0.5 34.700000000000045-3 30-35.5l-0.10000000000002274-1.400000000000034c-0.599999999999909-4.7999999999999545-2.8999999999999773-8.699999999999989-8.099999999999909-8.299999999999955-8.500000000000057 0.7999999999999545-8.600000000000023-4.100000000000023-9.100000000000023-10.5-3.6000000000000227-44.400000000000034-21.400000000000034-82.10000000000002-54.400000000000034-112.40000000000003-12-11-29.69999999999999-16-35.599999999999966-33.69999999999999-0.8000000000000114-2.4000000000000057-4.300000000000011-5.900000000000006-8.100000000000023-4.099999999999994-3.1000000000000227 1.4000000000000057-1.8000000000000114 5-2.1000000000000227 7.699999999999989-2.099999999999966 23.400000000000006-4.199999999999989 46.79999999999998-5.899999999999977 70.29999999999998-0.6000000000000227 8.300000000000011-2.1999999999999886 16.700000000000045-11.899999999999977 16.600000000000023-11.600000000000023-0.19999999999998863-10.800000000000011-9.899999999999977-10.5-18.19999999999999 0.7999999999999545-24 1-48 2.7999999999999545-71.9 1.1000000000000227-15-8.599999999999966-11.200000000000017-16.599999999999966-11.800000000000011-8.600000000000023-0.5999999999999943-14.400000000000034 0-13.699999999999989 11.800000000000011 1.5 25.900000000000006 1.5 51.79999999999998 2 77.70000000000002 0.0999999999999659 6.2999999999999545-1.6000000000000227 11.899999999999977-9 12.399999999999977-7.5 0.5-11.400000000000034-4-12.100000000000023-11.300000000000011-1.1000000000000227-11-1.8999999999999773-22-2.8999999999999773-33-1.5-17-3.1000000000000227-34.099999999999994-4.800000000000011-51.89999999999998-10.800000000000011 6.5-11.300000000000011 6.299999999999983-14.800000000000011 14.899999999999977-1.8000000000000114 4.400000000000006-4.300000000000011 7-8.100000000000023 9.400000000000034-47.79999999999998 29.399999999999977-71.59999999999997 73.09999999999997-75.99999999999997 128.2-0.5 6-0.9000000000000057 10.199999999999989-8.400000000000006 9.699999999999989-6.900000000000006-0.39999999999997726-9.099999999999994 4-9 10.199999999999989 0.09999999999999432 6.199999999999989 0.5 12.5-0.09999999999999432 18.69999999999999-1.200000000000017 12.200000000000045 3.0999999999999943 17.600000000000023 16.19999999999999 16.700000000000045z m197-156.70000000000005c37.69999999999999 27.900000000000034 54.599999999999966 62.60000000000002 57.69999999999999 104.90000000000003 0.5 6.800000000000011-3 9.199999999999989-8.5 10.899999999999977-18.80000000000001 5.800000000000011-38.10000000000002 8.900000000000034-57.69999999999999 10.800000000000011-5 0.5-7.300000000000011-0.39999999999997726-6.600000000000023-5.800000000000011 4.899999999999977-39.30000000000001 9.800000000000011-78.69999999999999 15.100000000000023-120.80000000000001z m-109.60000000000002 2.6000000000000227c4.899999999999977 39.10000000000002 9.800000000000011 77.80000000000001 14.699999999999989 116.5 0.8000000000000114 6.300000000000011-1 8.300000000000011-7.800000000000011 7.399999999999977-18.5-2.1999999999999886-37-4.5-54.799999999999955-10.299999999999955-4.300000000000011-1.400000000000034-9.100000000000023-1.900000000000034-9.700000000000017-8.5-2.5999999999999943-32.80000000000001 23.400000000000006-90.20000000000005 57.599999999999994-105.10000000000002z m-73.30000000000001 172.5c-8.899999999999977 1.1999999999999886-23.19999999999999-7.199999999999989-23.899999999999977 11.199999999999989-0.8000000000000114 20.19999999999999 5 38.69999999999999 21.599999999999994 50.80000000000001 8.400000000000006 6.100000000000023 12.599999999999994 13.100000000000023 16.19999999999999 22.200000000000045 20.700000000000017 53.09999999999991 64.79999999999998 85.79999999999995 114.70000000000002 85.69999999999993 11.099999999999966-0.39999999999997726 21.899999999999977-1.2999999999999545 32.599999999999966-5 41.700000000000045-14.5 66.80000000000001-44.89999999999998 82.5-84.60000000000002 2.2000000000000455-5.699999999999932 3.2000000000000455-11.299999999999955 9.700000000000045-15 16.69999999999999-9.599999999999909 23.899999999999977-25.599999999999966 26.100000000000023-44.099999999999966 2.199999999999932-18.69999999999999-0.20000000000004547-21-18.700000000000045-21.69999999999999-9-0.30000000000001137-13.5 0.30000000000001137-11.600000000000023 12 2.1000000000000227 12.699999999999989 2 26.5-17.19999999999999 28.5-7.099999999999966 0.6999999999999886-10.099999999999966 7.899999999999977-11.699999999999989 14.899999999999977-2.8999999999999773 12.700000000000045-7.800000000000011 24.600000000000023-14.199999999999989 35.89999999999998-25.400000000000034 44.5-72.80000000000001 61.5-115 40.10000000000002-30.19999999999999-15.299999999999955-46.30000000000001-42.10000000000002-54.69999999999999-74-1.900000000000034-7.199999999999989-3.6000000000000227-15.799999999999955-11.5-16.599999999999966-18.700000000000017-1.900000000000034-18.50000000000003-14.600000000000023-18.50000000000003-28 0-5.100000000000023 5.5-14-6.400000000000006-12.300000000000011z m693.3 171.70000000000005c-1-5.400000000000091-3.6000000000000227-8.800000000000068-7.899999999999977-11.800000000000068-23.200000000000045-16-49.39999999999998-25.100000000000023-76-33.60000000000002-5.899999999999977-1.8999999999999773-9.100000000000023-0.599999999999909-13.100000000000023 4.2000000000000455-29.299999999999955 35.200000000000045-66.20000000000005 52.10000000000002-112.39999999999998 44.700000000000045-31.5-5.100000000000023-55.89999999999998-22.100000000000023-75.39999999999998-46.80000000000007-2-2.5-3.5-5.600000000000023-7.900000000000091-4.2999999999999545-18.09999999999991 5.399999999999977-35.89999999999998 11.399999999999977-53 19.100000000000023 30.100000000000023 10.399999999999977 59.40000000000009 22.59999999999991 86 40.89999999999998 6.400000000000091 4.399999999999977 10.200000000000045 9.399999999999977 11.700000000000045 17.399999999999977 1.8999999999999773 10 4.2000000000000455 20 6.600000000000023 29.899999999999977 24 1.1000000000000227 48.60000000000002 1.7000000000000455 74.60000000000002 1.3999999999999773 19.5-0.39999999999997726 50-1.8999999999999773 80.5-5 29.899999999999977-3 59.59999999999991-7.5 89-13.199999999999932 5.199999999999932-1 6.599999999999909-3.1000000000000227 5.199999999999932-8.300000000000068-2.8999999999999773-11.399999999999977-5.699999999999932-22.899999999999977-7.899999999999977-34.59999999999991z m-284.5-162.90000000000003c8.700000000000045-0.6000000000000227 18.899999999999977-2.6000000000000227 26.100000000000023 0.8999999999999773 20.799999999999955 10.199999999999989 42.69999999999993 10.900000000000034 64.69999999999993 11.400000000000034 21.800000000000068 0.5 44 0.5999999999999659 64.70000000000005-6.800000000000011 9.299999999999955-3.3000000000000114 18-5.900000000000034 27.899999999999977-5.699999999999989 21.800000000000068 0.2999999999999545 23.5-2 20.399999999999977-24.100000000000023 0-0.30000000000001137 0-0.6000000000000227-0.09999999999990905-1-0.40000000000009095-3.3000000000000114-1.900000000000091-5.899999999999977-5.5-5.600000000000023-5.800000000000068 0.5-5.800000000000068-2.7999999999999545-6.2000000000000455-7.099999999999966-2.3999999999999773-30.19999999999999-14.5-55.69999999999999-36.89999999999998-76.30000000000001-8.200000000000045-7.5-20.100000000000023-10.800000000000011-24.100000000000023-22.899999999999977-0.6000000000000227-1.6000000000000227-2.8999999999999773-4-5.5-2.8000000000000114-2.1000000000000227 1-1.2000000000000455 3.3999999999999773-1.3999999999999773 5.199999999999989-1.3999999999999773 15.899999999999977-2.800000000000068 31.80000000000001-4 47.69999999999999-0.39999999999997726 5.600000000000023-1.5 11.300000000000011-8.100000000000023 11.199999999999989-7.899999999999977-0.0999999999999659-7.2999999999999545-6.699999999999989-7.100000000000023-12.399999999999977 0.6000000000000227-16.30000000000001 0.7000000000000455-32.60000000000002 1.8999999999999773-48.80000000000001 0.8000000000000682-10.199999999999989-5.7999999999999545-7.599999999999966-11.299999999999955-8-5.899999999999977-0.39999999999997726-9.700000000000045 0-9.299999999999955 8 1 17.5 1 35.19999999999999 1.3999999999999773 52.80000000000001 0.10000000000002274 4.300000000000011-1.1000000000000227 8.100000000000023-6.100000000000023 8.399999999999977-5 0.30000000000001137-7.7000000000000455-2.6999999999999886-8.299999999999955-7.699999999999989l-2-22.399999999999977c-1-11.600000000000023-2.1000000000000227-23.100000000000023-3.2000000000000455-35.19999999999999-7.2999999999999545 4.399999999999977-7.7000000000000455 4.2999999999999545-10 10.099999999999966-1.2000000000000455 3-2.8999999999999773 4.699999999999989-5.5 6.400000000000034-32.5 19.899999999999977-48.60000000000002 49.599999999999966-51.5 87-0.2999999999999545 4.099999999999966-0.6000000000000227 6.899999999999977-5.7000000000000455 6.599999999999966-4.699999999999932-0.30000000000001137-6.099999999999909 2.6999999999999886-6.099999999999909 6.900000000000034 0.09999999999990905 4.199999999999989 0.2999999999999545 8.5-0.10000000000002274 12.699999999999989-0.8999999999999773 8.5 2 12.099999999999966 10.899999999999977 11.5z m133.70000000000005-106.30000000000001c25.59999999999991 18.899999999999977 37 42.5 39.19999999999993 71.19999999999999 0.3000000000000682 4.600000000000023-2.1000000000000227 6.300000000000011-5.7999999999999545 7.400000000000034-12.800000000000068 3.8999999999999773-25.899999999999977 6-39.10000000000002 7.2999999999999545-3.3999999999999773 0.30000000000001137-5-0.2999999999999545-4.5-3.8999999999999773 3.2999999999999545-26.69999999999999 6.600000000000023-53.39999999999998 10.200000000000045-82z m-74.40000000000009 1.6999999999999886c3.300000000000068 26.5 6.600000000000023 52.80000000000001 10 79 0.5 4.300000000000011-0.6999999999999318 5.600000000000023-5.2999999999999545 5-12.600000000000023-1.5-25.100000000000023-3.099999999999966-37.200000000000045-7-2.8999999999999773-1-6.199999999999932-1.3000000000000114-6.5-5.800000000000011-1.7999999999999545-22.099999999999966 15.800000000000068-61 39-71.19999999999999z m-49.69999999999993 117.10000000000002c-6 0.8999999999999773-15.700000000000045-4.900000000000034-16.200000000000045 7.599999999999966-0.5 13.700000000000045 3.3999999999999773 26.200000000000045 14.700000000000045 34.5 5.699999999999932 4.2000000000000455 8.600000000000023 8.899999999999977 11 15.100000000000023 14 36 44 58.200000000000045 77.79999999999995 58.200000000000045 7.5-0.3000000000000682 14.899999999999977-0.900000000000091 22.100000000000023-3.400000000000091 28.299999999999955-9.799999999999955 45.39999999999998-30.5 56-57.39999999999998 1.5-3.7999999999999545 2.2000000000000455-7.699999999999932 6.5-10.199999999999932 11.399999999999977-6.5 16.200000000000045-17.400000000000034 17.700000000000045-29.900000000000034 1.5-12.699999999999989-0.20000000000004547-14.300000000000011-12.700000000000045-14.699999999999989-6.100000000000023-0.20000000000004547-9.200000000000045 0.19999999999998863-7.7999999999999545 8.199999999999989 1.3999999999999773 8.599999999999966 1.3999999999999773 18-11.700000000000045 19.30000000000001-4.7999999999999545 0.5-6.7999999999999545 5.399999999999977-7.899999999999977 10.100000000000023-2 8.599999999999909-5.300000000000068 16.699999999999932-9.700000000000045 24.399999999999977-17.199999999999932 30.199999999999932-49.39999999999998 41.69999999999993-78 27.199999999999932-20.5-10.399999999999977-31.399999999999977-28.59999999999991-37.10000000000002-50.19999999999993-1.2999999999999545-4.899999999999977-2.3999999999999773-10.700000000000045-7.7999999999999545-11.300000000000011-12.700000000000045-1.3000000000000114-12.5-9.900000000000034-12.5-19-0.10000000000002274-3.6000000000000227 3.7000000000000455-9.699999999999989-4.399999999999977-8.5z"/>
</svg>
