<svg xmlns="http://www.w3.org/2000/svg" viewBox="0 0 1000 1000" width="1000" height="1000">
<path d="M118.8 648.9c0.10000000000000853 16.399999999999977 7.299999999999997 23.700000000000045 23.89999999999999 23.800000000000068l74.10000000000002 0.09999999999990905c3.5 0 7.399999999999977 0.20000000000004547 10.399999999999977 1.7000000000000455 15.200000000000017 8 22.80000000000001 32.700000000000045 15.800000000000011 48.60000000000002-34.400000000000006 77.60000000000002-16.30000000000001 147.29999999999995 31.80000000000001 214.39999999999998 48.599999999999966-66.10000000000002 65.09999999999997-135.39999999999998 33.39999999999998-212.29999999999995-2.599999999999966-6.400000000000091-4-14-3.599999999999966-20.90000000000009 1.099999999999966-19.199999999999932 15-31.5 33.89999999999998-31.5 23.600000000000023 0 47.19999999999999 0.10000000000002274 70.89999999999998-0.09999999999990905 11.900000000000034-0.10000000000002274 21.200000000000045-7 21.5-17.100000000000023 0.6000000000000227-15.100000000000023 0.20000000000004547-30.300000000000068 0.20000000000004547-46h-312.3c-0.10000000000000853 13.899999999999977-0.10000000000000853 26.600000000000023-1.4210854715202004e-14 39.299999999999955z m283-183.7l-1.6000000000000227-0.0999999999999659c-1.099999999999966-16.400000000000034-2.3000000000000114-32.80000000000001-3.5-49.60000000000002-9.199999999999989 0-16.80000000000001 0.5-24.30000000000001-0.19999999999998863-8-0.6999999999999886-10.5 2.3999999999999773-11.599999999999966 10.099999999999966-1.900000000000034 13.100000000000023-5.400000000000034 26-8.100000000000023 38.900000000000034l-1.599999999999966-0.4000000000000341c-1.7000000000000455-15.799999999999955-3.6000000000000227-31.599999999999966-5.400000000000034-47.89999999999998h-34.19999999999999c-2.6000000000000227 16.100000000000023-5.199999999999989 31.80000000000001-7.600000000000023 47.30000000000001-3.6999999999999886-13.300000000000011-5.599999999999966-26.80000000000001-8.099999999999966-40.19999999999999-0.5-2.8000000000000114-3.3000000000000114-7.300000000000011-5.300000000000011-7.300000000000011-11.5-0.6999999999999886-23-0.30000000000001137-34.599999999999994-0.30000000000001137-2.8000000000000114 16.69999999999999-5.400000000000006 32.19999999999999-8 47.69999999999999l-1.5999999999999943-0.30000000000001137c-2.5-15.599999999999966-5.100000000000023-31.19999999999999-7.600000000000023-46.89999999999998h-34.099999999999994c-1.799999999999983 16.30000000000001-3.6999999999999886 32.30000000000001-5.5 48.19999999999999-2.9000000000000057-6.300000000000011-4.5-12.800000000000011-5.699999999999989-19.399999999999977-5.700000000000017-31.19999999999999-5.599999999999994-31.19999999999999-37.099999999999994-29.100000000000023-0.700000000000017 0-1.3000000000000114 0.5-3 1.1000000000000227-1.1000000000000227 15.699999999999989-2.3000000000000114 31.899999999999977-3.4000000000000057 48.19999999999999h-1.700000000000017c-4.099999999999994-16.30000000000001-8.299999999999983-32.60000000000002-12.5-49h-24.499999999999986c5 39.19999999999999 9.899999999999991 77.80000000000001 14.799999999999997 116.5h298.3c4.899999999999977-39 9.800000000000011-77.5 14.699999999999989-116.60000000000002h-24.30000000000001c-4.599999999999966 16.700000000000045-8.800000000000011 33-12.899999999999977 49.30000000000001z m-275.70000000000005 79.40000000000003v47.10000000000002h297.3v-47.10000000000002h-297.29999999999995z m703.3-377.90000000000003c-0.599999999999909-5.199999999999989-2.4999999999998863-10.699999999999989-1.7999999999998408-16 5.600000000000023-48.999999999999986-23.800000000000068-82.6-84.30000000000007-82.19999999999999-103.79999999999995 0.7999999999999972-207.5-3.5-311.4-4.799999999999997-82.89999999999998-1-165.89999999999998-1.5-248.7-0.8000000000000043-46.29999999999998 0.5-71.29999999999998 27.199999999999996-71.69999999999999 72.79999999999998-0.29999999999999716 29-0.5999999999999943 57.900000000000006 0.09999999999999432 86.9 0.8000000000000114 36.00000000000003 19.900000000000006 59.29999999999998 54.900000000000006 66.20000000000002 12.5 2.3999999999999773 25.599999999999994 2.599999999999966 38.5 2.3999999999999773 177.89999999999998-2.3000000000000114 355.70000000000005-4.599999999999966 533.5-7.199999999999989 69.60000000000002-1 85.29999999999995-16.399999999999977 89.20000000000005-86.30000000000001 0.09999999999990905-2.3999999999999773 1-4.599999999999994 1.7999999999999545-8 29.700000000000045-1.5999999999999943 38.200000000000045 5.800000000000011 38.799999999999955 33.20000000000002 0.5 29.69999999999999 0.20000000000004547 59.599999999999994 0.10000000000002274 89.4-0.10000000000002274 32.599999999999966-6.600000000000023 41.19999999999999-38.299999999999955 47.80000000000001-82.5 17-165 34-247.60000000000002 50.299999999999955-51.5 10.100000000000023-68.20000000000005 28.80000000000001-70.5 80.90000000000003-0.30000000000001137 6.399999999999977-2.6999999999999886 16.5-6.699999999999989 18.099999999999966-27.80000000000001 10.700000000000045-27.100000000000023 33.5-21.19999999999999 54.39999999999998 10.299999999999955 36.40000000000009 2.2999999999999545 71-0.8000000000000114 107-6.5 76.80000000000007-7.800000000000011 154.10000000000002-8.5 231.20000000000005-0.10000000000002274 8.399999999999977 7.599999999999966 20.299999999999955 26.5 24.600000000000023 10.900000000000034 2.3999999999999773 23.80000000000001 2 35.80000000000001 1 20.600000000000023-1.7000000000000455 32.39999999999998-12.5 31.299999999999955-34.60000000000002-0.7999999999999545-16.899999999999977-1.1999999999999318-33.799999999999955-1.7999999999999545-50.700000000000045-1.8000000000000682-51.39999999999998-1-103.19999999999993-6.399999999999977-154.19999999999993-4.800000000000068-46.200000000000045-16.100000000000023-91.39999999999998-0.8000000000000682-137.89999999999998 5.2000000000000455-15.700000000000045-2.3999999999999773-29.700000000000045-18-38.200000000000045-4.100000000000023-2.3000000000000114-8.5-7.300000000000011-9.399999999999977-11.800000000000011-7.7999999999999545-36.099999999999966 11.399999999999977-62.69999999999999 48-70.09999999999997 87.29999999999995-17.400000000000034 174.5-35.200000000000045 261.70000000000005-53.200000000000045 31.5-6.599999999999966 46.299999999999955-25.299999999999955 46.69999999999993-58 0.3000000000000682-28.19999999999999 0.20000000000004547-56.299999999999955 0.10000000000002274-84.49999999999997-0.5-48.400000000000006-11.299999999999955-60.900000000000006-59.10000000000002-67.70000000000002z"/>
</svg>
