<svg xmlns="http://www.w3.org/2000/svg" viewBox="0 0 1000 1000" width="1000" height="1000">
<path d="M856.4 841.2c-20.199999999999932-32.30000000000007-40.39999999999998-64.5-60.5-96.80000000000007-67.29999999999995-108-134.5-216-201.89999999999998-323.9-4.7999999999999545-7.600000000000023-8.100000000000023-16.5-15.100000000000023-22.600000000000023-25.600000000000023-22-51.69999999999993-43.5-77.39999999999998-65.39999999999998-3.6999999999999886-3.1000000000000227-6.600000000000023-3.1000000000000227-10.600000000000023-0.6000000000000227-20.599999999999966 13-41.299999999999955 26.200000000000045-62.099999999999966 38.80000000000001-5.300000000000011 3.1999999999999886-6.5 7.100000000000023-5.400000000000034 12.800000000000011 5.7000000000000455 31 11.300000000000011 61.89999999999998 16.5 93 1.6000000000000227 9.399999999999977 5.5 17.69999999999999 10.600000000000023 25.600000000000023 24.5 38.89999999999998 48.80000000000001 78 73.10000000000002 117 45.69999999999993 73.19999999999993 91.29999999999995 146.5 137 219.79999999999995 20.399999999999977 32.700000000000045 40.60000000000002 65.60000000000002 60.89999999999998 98.5h5.100000000000023c2.5-1.8999999999999773 4.7999999999999545-4 7.399999999999977-5.600000000000023 39.5-24.699999999999932 79-49.299999999999955 118.60000000000002-73.89999999999998 10.299999999999955-6.399999999999977 10.299999999999955-6.399999999999977 3.7999999999999545-16.699999999999932z m-373.9-568.9000000000001c-8.899999999999977-13.799999999999955-17.5-27.89999999999995-26.100000000000023-41.89999999999995-10.299999999999955-16.700000000000017-10.199999999999989-28.30000000000001 1.8000000000000114-43.70000000000002 19.400000000000034-24.799999999999983 44-42.29999999999998 75.00000000000006-50.099999999999994 22.5-5.699999999999989 45.39999999999998-6.5 68.39999999999998-6.099999999999994 18 0.30000000000001137 26.699999999999932-11.099999999999994 21.299999999999955-28.299999999999997-4.2999999999999545-13.799999999999997-14.399999999999977-21.299999999999997-27.600000000000023-25.60000000000001-3.599999999999909-1.1999999999999886-7.2999999999999545-2.1999999999999886-10.899999999999977-3.0999999999999943h0.10000000000002274c-115.30000000000001-31.6-193.60000000000002 15.200000000000003-193.60000000000002 15.200000000000003-38.799999999999955 19.5-73.5 45.7-110.89999999999998 67.39999999999999-3.8999999999999773 2.3000000000000114-3.5 5.200000000000017-1.3999999999999773 8.599999999999994 3.2999999999999545 5.200000000000017 6.099999999999966 10.900000000000006 9.799999999999955 15.900000000000006 3.8000000000000114 5.200000000000017 2 7.800000000000011-2.8999999999999773 10.700000000000017-10.5 6.199999999999989-20.80000000000001 12.699999999999989-31.099999999999994 19.19999999999999-15.400000000000006 10-15.400000000000006 10.099999999999994-25.30000000000001-5.900000000000006-0.9000000000000057-1.4000000000000057-2.0999999999999943-2.799999999999983-2.799999999999983-4.299999999999983-3.1000000000000227-6.5-7-6.600000000000023-12.800000000000011-3-23 14.599999999999994-46.099999999999994 29-69.4 43.19999999999999-5.699999999999989 3.4000000000000057-6.599999999999994 6.599999999999994-2.9000000000000057 12.199999999999989 9.400000000000006 14.5 18.400000000000006 29.30000000000001 27.600000000000023 44 13.899999999999977 22.400000000000034 27.799999999999983 44.80000000000001 41.79999999999998 67.19999999999999 2.200000000000017 3.6000000000000227 4.300000000000011 7.7000000000000455 9.900000000000006 4.2000000000000455 24.80000000000001-15.600000000000023 49.60000000000002-31 74.5-46.400000000000034 3.6000000000000227-2.3000000000000114 4.300000000000011-4.899999999999977 2-8.5-3.1999999999999886-5.099999999999966-5.899999999999977-10.300000000000011-9.600000000000023-15.099999999999966-4.2999999999999545-5.600000000000023-2.599999999999966-8.700000000000045 2.900000000000034-12 13.399999999999977-8 26.69999999999999-16.30000000000001 39.69999999999999-24.80000000000001 5-3.3000000000000114 7.300000000000011-2.6000000000000227 10.5 2.3999999999999773 14.199999999999989 23.30000000000001 28.899999999999977 46.19999999999999 43.10000000000002 69.40000000000003 3.099999999999966 5.099999999999966 5.899999999999977 6.599999999999966 11.5 3.099999999999966 28.299999999999955-17.899999999999977 56.69999999999999-35.599999999999966 85.19999999999999-53.19999999999999 5.300000000000011-3 5.300000000000011-5.899999999999977 2.1999999999999886-10.699999999999989z"/>
</svg>
