<svg xmlns="http://www.w3.org/2000/svg" viewBox="0 0 1000 1000" width="1000" height="1000">
<path d="M937 910.2c-1.6000000000000227-5.800000000000068-5.399999999999977-10.400000000000091-9.200000000000045-14.800000000000068-11.199999999999932-13.199999999999932-22.699999999999932-25.399999999999977-41.89999999999998-27.299999999999955-6.199999999999932-0.6000000000000227-14.5 1.6000000000000227-19.399999999999977-5.899999999999977-5.7000000000000455-8.800000000000068-13.399999999999977-15.300000000000068-23.700000000000045-17.90000000000009-5.399999999999977-1.2999999999999545-6.599999999999909-4.699999999999932-5.7999999999999545-9.399999999999977 1.7999999999999545-10.399999999999977-1.1000000000000227-19.899999999999977-5.600000000000023-29.100000000000023-10.699999999999932-22-28.399999999999977-38.5-58.19999999999993-30.09999999999991-4.7000000000000455 1.2999999999999545-7-1.5-8.700000000000045-4.900000000000091-6.899999999999977-13-16.700000000000045-23.59999999999991-27.299999999999955-33.59999999999991-21.300000000000068-19.800000000000068-46.30000000000007-23.600000000000023-73.5-16.5-19.90000000000009 5.199999999999932-34.60000000000002 18.199999999999932-46.30000000000007 34.59999999999991-3.699999999999932 5.2000000000000455-6.399999999999977 5-11 1.1000000000000227-15.5-13.199999999999932-31.199999999999932-26.100000000000023-47.10000000000002-38.89999999999998-53.89999999999998-43.60000000000002-107.89999999999998-87.10000000000002-161.89999999999998-130.5-3.3999999999999773-2.7000000000000455-4-4.2000000000000455-1.599999999999966-8.5 23.399999999999977-42.299999999999955 46.30000000000001-84.89999999999998 69.5-127.30000000000001 9-16.399999999999977 17.19999999999999-33.39999999999998 26.80000000000001-49.30000000000001 9.5-15.699999999999989 10.199999999999989-30.599999999999966 1.6999999999999886-45.39999999999998-24.19999999999999-42.60000000000002-54.60000000000002-81.19999999999999-82.10000000000002-121.6-8.899999999999977-13.099999999999994-20.099999999999966-19-37.099999999999966-18.700000000000017-57.900000000000034 1.200000000000017-115.90000000000003 1.1000000000000227-173.70000000000002 0.20000000000001705-26.30000000000001-0.4000000000000057-36 11.599999999999994-43 31.400000000000006-8.5 24.099999999999966-12 49.5-18.099999999999994 74.19999999999999-4.100000000000023 16.600000000000023-7.5 33.30000000000001-11.400000000000006 51.10000000000002-6-5-11.100000000000009-9-15.700000000000003-13.400000000000034-5-4.699999999999989-10.799999999999997-7.699999999999989-17.400000000000006-9.5-5.099999999999994-1.3999999999999773-8.399999999999991 1.6000000000000227-11.099999999999994 4.300000000000011-2.4000000000000057 2.3999999999999773-6.299999999999997 5.699999999999989-4.1000000000000085 10.100000000000023 3 6 5.6000000000000085 12.099999999999966 11.800000000000011 16.19999999999999 8.699999999999989 5.699999999999989 16.89999999999999 12.399999999999977 25.19999999999999 18.69999999999999 3.200000000000003 2.3999999999999773 7.5 4.800000000000011 7.5 8.899999999999977-0.09999999999999432 14.400000000000034 9.099999999999994 21.600000000000023 20.900000000000006 27.100000000000023-10 10-19.299999999999997 19.5-28.900000000000006 28.69999999999999-4.299999999999997 4.199999999999989-8.399999999999991 9.300000000000011-8.5 14.900000000000034-0.19999999999998863 10-2.299999999999997 19.799999999999955-2.1999999999999886 30 0.6999999999999886 55.69999999999993 0.29999999999999716 111.5 0.29999999999999716 167.19999999999993 0 2.800000000000068 0.20000000000000284 5.7000000000000455-0.4000000000000057 8.300000000000068-13.599999999999994 54.5-27.5 109-40.8 163.69999999999993-3.799999999999997 15.900000000000091-3.700000000000003 32.10000000000002 4.5 47 11.900000000000006 21.600000000000023 43.2 24.5 61.69999999999999 10.600000000000023 11.900000000000006-9 17.900000000000006-21.899999999999977 21.5-35.60000000000002 13.800000000000011-53.299999999999955 27.200000000000017-106.69999999999993 40.70000000000002-160.0999999999999 3.1999999999999886-12.400000000000091 8.699999999999989-25 8.5-37.5-0.5-40.5 0.4000000000000057-81 1.4000000000000057-122.40000000000009l9.699999999999989 12c28.80000000000001 35.700000000000045 57.60000000000002 71.40000000000009 86.39999999999998 107.30000000000007 2.400000000000034 3 4.7000000000000455 5.5 2.2000000000000455 10.600000000000023-27.200000000000045 55.89999999999998-54.10000000000002 112-80.90000000000003 168.0999999999999-7.799999999999983 16.40000000000009-10.799999999999983 32.60000000000002-0.39999999999997726 49.60000000000002 10.899999999999977 17.899999999999977 34.599999999999994 22.600000000000023 51.5 15.700000000000045 14.199999999999989-5.7000000000000455 22.30000000000001-18.200000000000045 30.099999999999966-30.300000000000068 13.200000000000045-20.699999999999932 22.700000000000045-43.59999999999991 34.60000000000002-65.09999999999991 22.899999999999977-41.10000000000002 42-84.10000000000002 64.60000000000002-125.30000000000007 8.599999999999966-15.699999999999932 7.5-38-1.5-48.39999999999998-7.5-8.600000000000023-14.800000000000011-17.399999999999977-22.400000000000034-25.899999999999977-1.8999999999999773-2.2000000000000455-2.6999999999999886-3.8999999999999773-0.8999999999999773-6.399999999999977 2.599999999999966-3.5 4.699999999999989-0.10000000000002274 6.099999999999966 0.8999999999999773 5.7000000000000455 4.199999999999932 11 9 16.5 13.399999999999977 59.30000000000001 47.200000000000045 118.60000000000002 94.5 177.89999999999998 141.60000000000002 4.900000000000091 3.8999999999999773 5.900000000000091 6.199999999999932-0.7999999999999545 9-15.399999999999977 6.399999999999977-28.399999999999977 15.899999999999977-36.299999999999955 31.199999999999932-5 9.600000000000023-10.100000000000023 18.600000000000023-23.300000000000068 16.100000000000023-0.8999999999999773-0.1999999999999318-2.1000000000000227 1.2000000000000455-3.199999999999932 1.6000000000000227-16.200000000000045 6.7000000000000455-25.300000000000068 18.899999999999977-27.700000000000045 36.10000000000002-0.6000000000000227 4.2999999999999545-2.3999999999999773 5.899999999999977-6.199999999999989 6.399999999999977-5.800000000000011 0.7000000000000455-11.600000000000023 1.5-17.400000000000034 1.8999999999999773-24.399999999999977 1.6000000000000227-42.599999999999966 14.399999999999977-57.299999999999955 32.700000000000045-2.400000000000034 3-6 7.199999999999932-4.5 10.600000000000023 1.6999999999999886 4 7.099999999999966 1.7999999999999545 10.799999999999955 1.7999999999999545 172.10000000000002 0.10000000000002274 344.30000000000007 0.10000000000002274 516.5 0.10000000000002274 1.8000000000000682 0 3.7000000000000455-0.20000000000004547 5.600000000000023 0 4.7999999999999545 0.7999999999999545 5-1.8999999999999773 4-5.399999999999977z m-732-534.8000000000001c4.900000000000006-22.69999999999999 10-45.69999999999999 14.800000000000011-68.69999999999999 0.5999999999999943-2.8999999999999773 1.6999999999999886-4.5 4.699999999999989-4.199999999999989 17.099999999999994 1.5 34.5-1.3000000000000114 50.80000000000001 2.1999999999999886l-70.30000000000001 70.69999999999999z m124.19999999999999 149.39999999999998c-2.599999999999966 4.5-4.800000000000011 4.600000000000023-8.300000000000011 1.7000000000000455-12.699999999999989-10.200000000000045-25.299999999999955-20.5-38.099999999999966-30.5-5-3.8999999999999773-2.900000000000034-5.5 1.3000000000000114-7.300000000000011 23.399999999999977-9.899999999999977 46.69999999999999-20 70.19999999999999-29.599999999999966 4.899999999999977-2 9.099999999999966-6.400000000000034 15.899999999999977-5.5-13.899999999999977 24-27.599999999999966 47.5-41 71.19999999999993z m211.09999999999997-273.19999999999993c41.60000000000002 0.29999999999998295 82.5-29.80000000000001 84.70000000000005-83.40000000000003-1.2000000000000455-45.69999999999999-35.10000000000002-84.49999999999999-84.5-84.6-49.30000000000001-0.09999999999999432-82.80000000000001 36.30000000000001-83.89999999999998 83.80000000000001-1 45.29999999999998 34.39999999999998 83.9 83.69999999999993 84.19999999999999z"/>
</svg>
