<svg xmlns="http://www.w3.org/2000/svg" viewBox="0 0 1000 1000" width="1000" height="1000">
<path d="M527.5 317.4c-24.19999999999999-6.2999999999999545-47.89999999999998-15.099999999999966-71.69999999999999-22.69999999999999-21.80000000000001-7-33.900000000000034-0.30000000000001137-40 22.69999999999999-9.5 36.60000000000002-17.80000000000001 73.5-28.19999999999999 109.90000000000003-16 56.5-32 112.99999999999994-49.60000000000002 169.09999999999997-18.5 55.700000000000045-38.39999999999998 111-58.39999999999998 166.20000000000005-12.900000000000034 35.5-27.600000000000023 70.29999999999995-41.20000000000002 105.69999999999993-8.599999999999994 22.200000000000045-2.5999999999999943 34.700000000000045 19.200000000000017 41.80000000000007 23.899999999999977 7.699999999999932 48.19999999999999 14.299999999999955 71.59999999999997 23.399999999999977 29.900000000000034 11.5 41.10000000000002-3.7999999999999545 46.60000000000002-26.399999999999977 14.899999999999977-60.60000000000002 29.19999999999999-121.39999999999998 46.80000000000001-181.30000000000007 9.199999999999989-31.09999999999991 19.19999999999999-61.89999999999998 29.299999999999955-92.69999999999993 9.700000000000045-31 19.600000000000023-61.80000000000007 30.30000000000001-92.39999999999998 20.600000000000023-58.900000000000034 44.400000000000034-116.70000000000005 67.69999999999999-174.60000000000002 8.800000000000068-21.5 8.700000000000045-40.700000000000045-22.399999999999977-48.700000000000045z m245.5-154.49999999999997c-18.5-3.3000000000000114-37.200000000000045-7.5-55.799999999999955-8.300000000000011-25.5-1-47.200000000000045-9.699999999999989-65.80000000000007-26.19999999999999-46.799999999999955-41.5-103.19999999999993-59.10000000000001-163.79999999999995-64.9-42.200000000000045-4-82.80000000000001 5.900000000000006-120.20000000000005 23.900000000000006-49.599999999999966 23.599999999999994-97.39999999999998 50.900000000000006-145.89999999999998 76.69999999999999-1.6999999999999886 1-3.0999999999999943 2.700000000000017-5.699999999999989 5 2.0999999999999943 1.0999999999999943 2.3999999999999773 1.4000000000000057 2.799999999999983 1.5999999999999943 22.80000000000001 11 44.79999999999998 11.900000000000006 69.00000000000003 0.9000000000000057 29.099999999999966-13.199999999999989 59.799999999999955-23.400000000000006 90.59999999999997-32.599999999999994 49.10000000000002-14.700000000000003 66.60000000000002-1 66.10000000000002 50-0.10000000000002274 16.599999999999994-1.8000000000000114 33.19999999999999-2.8000000000000114 51.30000000000001 11.600000000000023 3.799999999999983 23.69999999999999 7.599999999999994 35.80000000000001 11.5 29.69999999999999 9.5 59.599999999999966 19 89.19999999999999 28.899999999999977 7.399999999999977 2.5 10.700000000000045 1.5 15.399999999999977-5.899999999999977 8.700000000000045-13.5 18.600000000000023-26.900000000000006 30.600000000000023-37.400000000000006 21.399999999999977-18.80000000000001 45.5-19.200000000000017 69.10000000000002-3.3000000000000114 8.699999999999932 5.900000000000006 15.600000000000023 14.200000000000017 24.100000000000023 20.200000000000017 10.5 7.5 21.399999999999977 14.599999999999966 32.799999999999955 20.599999999999966 8.799999999999955 4.600000000000023 15.799999999999955-0.2999999999999545 18.700000000000045-8.799999999999955 9.399999999999977-27.900000000000034 18.399999999999977-56.00000000000003 27.09999999999991-84.30000000000001 2.900000000000091-9.900000000000006-1.3999999999999773-17.100000000000023-11.299999999999955-18.900000000000006z"/>
</svg>
