<svg xmlns="http://www.w3.org/2000/svg" viewBox="0 0 1000 1000" width="1000" height="1000">
<path d="M932 201c-73.70000000000005-0.09999999999999432-147.29999999999995 0-221-0.30000000000001137-7.2999999999999545 0-11.5 3.5-16 8.100000000000023-73.10000000000002 74.30000000000001-146.20000000000005 148.5-219.2 222.8-2.6999999999999886 2.6999999999999886-7.800000000000011 5-6.199999999999989 9.5 1.7999999999999545 4.899999999999977 7.099999999999966 2.5 10.799999999999955 2.5 41.80000000000007 0.19999999999998863 83.60000000000002 0.19999999999998863 125.30000000000007 0.2999999999999545 4.399999999999977 0 9.599999999999909-0.7999999999999545 11.299999999999955 4.800000000000011 1.5 4.900000000000034-3 7-5.7999999999999545 9.699999999999989l-140.50000000000006 131.80000000000007c-23.80000000000001 22.299999999999955-47.599999999999966 44.799999999999955-72.39999999999998 68 6.899999999999977 3.599999999999909 12 2.7999999999999545 16.80000000000001 2.7999999999999545 32.799999999999955 0 65.59999999999997 0 98.39999999999998-0.10000000000002274 4.600000000000023 0 9.399999999999977 0 11.899999999999977 4.300000000000068 2.6000000000000227 4.5-1.5 7.399999999999977-4 10.5-17.899999999999977 21.699999999999932-35.39999999999998 44-54.099999999999966 65-49.30000000000001 55.299999999999955-96.19999999999999 112.5-144.3 168.79999999999995-2.5 3-9.399999999999977 6-5.199999999999989 10.399999999999977 4.099999999999966 4.300000000000068 7.5-2.2999999999999545 11.099999999999966-4.399999999999977 1.900000000000034-1.1000000000000227 3.5-2.7999999999999545 5.300000000000011-4.2000000000000455 88.69999999999999-71.59999999999991 177.5-143.19999999999993 266.2-214.89999999999998 48.89999999999998-39.5 97.80000000000007-79 146.60000000000002-118.60000000000002 2.5-2 7.5-3.5 5.399999999999977-8-1.5-3.199999999999932-5.699999999999932-1.6999999999999318-8.600000000000023-1.7999999999999545-26.5-0.20000000000004547-53-0.10000000000002274-79.5-0.20000000000004547-4.899999999999977 0-10.799999999999955 1.2000000000000455-13.399999999999977-3.8999999999999773-3-5.899999999999977 3.1000000000000227-8.699999999999932 6.5-11.799999999999955 67.39999999999998-62.10000000000002 134.89999999999998-124.10000000000002 202.30000000000007-186.10000000000002 3.099999999999909-2.8999999999999773 7.7999999999999545-4.800000000000011 8.199999999999932-10.100000000000023-3.699999999999932-3.7999999999999545-8.5-2.2999999999999545-12.699999999999932-2.2999999999999545l-57.90000000000009-0.20000000000004547c-5.099999999999909-0.0999999999999659-11.899999999999977 1.8000000000000114-14.5-4.199999999999989-2.8999999999999773-6.599999999999966 4.2000000000000455-9.199999999999989 7.900000000000091-12.5 46.09999999999991-41.39999999999998 92.39999999999998-82.6 138.5999999999999-124 3.300000000000068-2.8999999999999773 9.200000000000045-4.399999999999977 8.100000000000023-11.199999999999989-2-0.09999999999999432-3.699999999999932-0.5-5.399999999999977-0.5z m-521.2 512.1c15.100000000000023-1.3000000000000682 30.000000000000057-4.800000000000068 44.900000000000034-7.600000000000023 8.199999999999989-1.5 13-9.399999999999977 13-15.200000000000045 0.10000000000002274-6.2999999999999545-8.699999999999989-3.199999999999932-13.5-3.3999999999999773-13.899999999999977-0.5-27.80000000000001-0.1999999999999318-48.69999999999999-0.1999999999999318-25 1-56.69999999999999-0.10000000000002274-88.19999999999999-6.600000000000023-149.20000000000002-31.300000000000068-245.10000000000002-175.90000000000003-226.70000000000002-317.40000000000003 15.700000000000003-119.89999999999998 83.30000000000001-199.7 193.6-243.79999999999998 33.5-13.400000000000006 69.60000000000002-17.700000000000003 106.69999999999999-15.600000000000009 51.400000000000034 2.9000000000000057 98.60000000000002 16.799999999999997 142.39999999999998 43.3 35.10000000000002 21.200000000000017 63.700000000000045 49.400000000000006 87.20000000000005 83 1.8999999999999773 2.700000000000017 2.5 8.599999999999994 8.200000000000045 6.5 11.799999999999955-4.299999999999983 16.299999999999955-18.299999999999983 8.799999999999955-28.299999999999983-63.299999999999955-84.4-147.3-127.80000000000001-253.2-129.5-49.80000000000001-0.8000000000000114-97.10000000000002 9.499999999999986-141.70000000000002 29.999999999999986-134.8 62.10000000000001-208.39999999999998 219-171.6 363 39.5 154.90000000000003 179.7 255.09999999999997 338.8 241.8z m-153.49999999999994-533.1c-5.200000000000017-9.300000000000011-9-10.400000000000006-17.600000000000023-4.5-76.19999999999999 51.900000000000006-115.79999999999998 124-119.79999999999998 215.89999999999998-0.30000000000001137 8.200000000000045 2.8999999999999915 9.700000000000045 10.099999999999994 9.600000000000023 23.80000000000001-0.30000000000001137 47.599999999999994-0.10000000000002274 71.4-0.10000000000002274 23.799999999999983 0 47.599999999999994-0.19999999999998863 71.4 0.10000000000002274 7.099999999999966 0.10000000000002274 10.800000000000011-0.39999999999997726 11.399999999999977-9.699999999999989 2-30 14.199999999999989-55.80000000000001 39.19999999999999-73.40000000000003 8.900000000000034-6.2999999999999545 7.5-10.399999999999977 3.1000000000000227-18-23.399999999999977-39.69999999999999-46.69999999999999-79.59999999999997-69.19999999999999-119.89999999999998z m5.800000000000011 448.6c29.299999999999955 14.299999999999955 60.099999999999966 23.100000000000023 94.39999999999998 26.299999999999955 3.8000000000000114 1.5 7.5-1.6000000000000227 11.300000000000011-5.199999999999932 32.5-30.90000000000009 65-61.90000000000009 97.69999999999999-92.60000000000002 4.699999999999989-4.399999999999977 4.199999999999989-7.5 1.3000000000000114-12.5-11.300000000000011-18.800000000000068-22.30000000000001-37.80000000000001-32.900000000000034-57-3.3999999999999773-6.2000000000000455-6.399999999999977-6.7000000000000455-12.699999999999989-3.900000000000034-25.30000000000001 11.400000000000034-51.099999999999966 12.5-76.80000000000001 1.5-5.7999999999999545-2.5-8.5-1-11.5 4.300000000000011-24.5 42.799999999999955-49.099999999999966 85.5-74 128-3.599999999999966 5.7999999999999545-2.599999999999966 8.299999999999955 3.2000000000000455 11.100000000000023z m218.5-241.70000000000005c39.69999999999993-40.299999999999955 79.19999999999993-80.59999999999997 119-120.79999999999995 4-4 3.8999999999999773-7.100000000000023 1-11.600000000000023-20.600000000000023-31.599999999999994-46.5-58-77.89999999999998-78.80000000000001-5-3.299999999999983-7.400000000000091-2.5-10.300000000000068 2.5-24.899999999999977 43.60000000000002-49.89999999999998 87-75.09999999999997 130.40000000000003-2.5 4.399999999999977-2.400000000000034 6.899999999999977 1.8000000000000114 9.899999999999977 23.69999999999999 16.899999999999977 35 40.80000000000001 38.5 69.10000000000002 1.3999999999999773-0.30000000000001137 2.5-0.20000000000004547 3-0.7000000000000455z m-100.30000000000001 78.60000000000002c38.69999999999999 0.30000000000001137 69.69999999999999-30.899999999999977 69.69999999999999-70.19999999999999 0-39.30000000000001-30.899999999999977-70.19999999999999-69.80000000000001-69.90000000000003-38.39999999999998 0.30000000000001137-69.30000000000001 31-69.80000000000001 69.20000000000005-0.5 38 31.700000000000045 70.59999999999997 69.90000000000003 70.89999999999998z"/>
</svg>
