<svg xmlns="http://www.w3.org/2000/svg" viewBox="0 0 1000 1000" width="1000" height="1000">
<path d="M937.5 229.2c-49.10000000000002 39.69999999999999-104.79999999999995 68.60000000000002-160.89999999999998 96.60000000000002-38.5 19.30000000000001-77.60000000000002 37.39999999999998-119.5 48.39999999999998-19.700000000000045 5.199999999999989-39 6.300000000000011-55.30000000000007-9.300000000000011-2.8999999999999773-2.7999999999999545-5.5-2.099999999999966-8.599999999999909-0.0999999999999659-13.900000000000091 8.800000000000011-27.700000000000045 17.599999999999966-41.80000000000007 25.899999999999977-4.399999999999977 2.6000000000000227-4.699999999999932 6.100000000000023-4.7999999999999545 10.400000000000034-0.5 30.5-1.1000000000000227 61-1.8999999999999773 91.39999999999998l-2.400000000000091 69.5c-0.1999999999999318 6-2.099999999999909 9.200000000000045-8.099999999999909 11.5-35.900000000000034 13.299999999999955-71.60000000000002 27.100000000000023-108.30000000000007 39.39999999999998l42.200000000000045-37.799999999999955c3.2999999999999545-2.8999999999999773 6.399999999999977-6.300000000000068 10.099999999999966-8.5 16.900000000000034-10 21.19999999999999-25.200000000000045 20.80000000000001-43.80000000000007-0.8000000000000114-45.49999999999994 3.5-90.89999999999998 1.8000000000000114-136.29999999999995-0.6000000000000227-15.199999999999989 5.300000000000011-25.80000000000001 18.19999999999999-33.39999999999998 15.600000000000023-9.200000000000045 30.799999999999955-19.30000000000001 46.60000000000002-28.30000000000001 5.100000000000023-2.900000000000034 6.399999999999977-5.699999999999989 4.7999999999999545-11-6.100000000000023-20.30000000000001 0.8999999999999773-35.30000000000001 18.899999999999977-46 66.5-39.60000000000002 129.5-84.70000000000002 196.20000000000005-124 15.600000000000023-9.200000000000017 31.299999999999955-18.400000000000006 48-25.700000000000017 6.2999999999999545-2.799999999999997 12-3 18.399999999999977-0.19999999999998863 17.600000000000023 7.5 34.700000000000045 15.699999999999989 49.39999999999998 28.19999999999999 19 16 30.300000000000068 36.20000000000002 34.200000000000045 60.599999999999994 0.39999999999997726 2.3000000000000114 1.2000000000000455 4.400000000000006 1.8999999999999773 6.700000000000017l0.10000000000002274 15.799999999999983z m-564.3 417.3c33.99999999999994-9.700000000000045 68.09999999999997-19.299999999999955 102.09999999999997-28.899999999999977 23.899999999999977-6.800000000000068 47.900000000000034-13.5 71.80000000000001-20.600000000000023 8.5-2.5 15.699999999999932-1.7000000000000455 23.299999999999955 3.2000000000000455 37.5 24.09999999999991 75.20000000000005 47.89999999999998 112.89999999999998 71.5 11.5 7.2999999999999545 18.40000000000009 16.59999999999991 18.200000000000045 30.899999999999977-0.10000000000002274 5.899999999999977-3.6000000000000227 9.600000000000023-6 14.199999999999932-7.7000000000000455 14.600000000000023-19.600000000000023 21.5-35.700000000000045 26-167.49999999999994 45.80000000000007-334.79999999999995 92.5-501.99999999999994 139.30000000000007-14.700000000000017 4.100000000000023-27.600000000000023 2.3999999999999773-40.30000000000001-5-26.700000000000003-15.5-46-36.89999999999998-53.9-67.39999999999998-2.5-9.700000000000045-0.7000000000000028-18.100000000000023 5.199999999999996-26.40000000000009 73.39999999999999-103.69999999999993 146.5-207.5 219.59999999999997-311.29999999999995 6.300000000000011-8.899999999999977 12.700000000000045-17.80000000000001 21.400000000000034-24.399999999999977 15-11.300000000000011 30.099999999999966-15.100000000000023 49-6.7000000000000455 22.5 10.100000000000023 40.30000000000001 26 58.89999999999998 41 16.600000000000023 13.5 32.80000000000001 27.600000000000023 49.60000000000002 40.80000000000007 5.599999999999966 4.399999999999977 5.399999999999977 7.2999999999999545 1.1999999999999886 12.399999999999977-28.19999999999999 34.19999999999993-58.5 66.60000000000002-87.80000000000001 99.79999999999995-2.8999999999999773 3.300000000000068-5.599999999999966 6.600000000000023-8.399999999999977 9.899999999999977 0.19999999999998863 0.7000000000000455 0.5999999999999659 1.2000000000000455 0.8999999999999773 1.7000000000000455z"/>
</svg>
