<svg xmlns="http://www.w3.org/2000/svg" viewBox="0 0 1000 1000" width="1000" height="1000">
<path d="M320.9 764.4c96.30000000000001-11 192.20000000000005-27.399999999999977 289.80000000000007-22.299999999999955 8.699999999999932 0.39999999999997726 19.59999999999991 3.699999999999932 19.5-12.399999999999977-0.10000000000002274-13.100000000000023-0.40000000000009095-21.700000000000045-17.600000000000023-24.90000000000009-74.10000000000002-13.599999999999909-147.8-29.399999999999977-221.70000000000005-43.89999999999998-10.699999999999989-2.1000000000000227-18-6.699999999999932-24.19999999999999-15.699999999999932-30.399999999999977-43.700000000000045-61.5-86.90000000000009-92.09999999999997-130.4000000000001-15.5-21.999999999999943-36.400000000000034-33.69999999999993-63.10000000000002-34.299999999999955-24.900000000000006-0.5-49.900000000000006-0.8000000000000114-74.80000000000001 0.10000000000002274-43.79999999999998 1.599999999999966-73.29999999999998 31.099999999999966-73.49999999999999 74.89999999999998-0.6000000000000014 99.79999999999995 0 199.60000000000002-0.5 299.4-0.10000000000000142 13.200000000000045 3.700000000000003 17.200000000000045 17 17.100000000000023 59.3-0.7000000000000455 118.7-0.2999999999999545 178-0.2999999999999545 25 0 25.30000000000001 0 19.400000000000034-24.600000000000023-11.5-48.30000000000007-23.400000000000034-96.5-35.10000000000002-144.70000000000005 1.0999999999999943-0.6000000000000227 2.1999999999999886-1.1999999999999318 3.1999999999999886-1.7999999999999545l46 52.39999999999998c7.900000000000034 9.200000000000045 16.19999999999999 12.899999999999977 29.69999999999999 11.399999999999977z m-93.59999999999997-302.5c89.5-0.8999999999999773 167.89999999999998-67.5 167.39999999999998-163.5 3.5-88.49999999999997-68.30000000000001-168.2-162.89999999999998-170.2-90.60000000000002-1.9999999999999858-167 71.70000000000002-168.9 162.90000000000003-1.9000000000000057 94 70.9 171.7 164.4 170.79999999999995z m709.8 107.70000000000005v-281.3c1.1368683772161603e-13-26.30000000000001-4.7999999999999545-29.80000000000001-29.399999999999864-24.600000000000023-47.40000000000009 10-95 19.600000000000023-142.4000000000001 29.69999999999999-88.29999999999995 18.700000000000045-176.5 37.5-264.79999999999995 56.400000000000034-13.199999999999989 2.8000000000000114-23.600000000000023 7.199999999999989-23.5 24.5 0.10000000000002274 86.30000000000001-0.5 172.7-1.3000000000000114 259.09999999999997-0.0999999999999659 11.399999999999977 2.6999999999999886 19.300000000000068 14.600000000000023 18.700000000000045 12-0.6000000000000227 6.599999999999966-11.300000000000068 6.599999999999966-17.200000000000045 0.30000000000001137-44.299999999999955 0.30000000000001137-88.60000000000002 0.30000000000001137-132.89999999999998v-111.89999999999998c0.6000000000000227-1.900000000000034 1.3000000000000114-3.6000000000000227 2.3000000000000114-5.300000000000011l0.30000000000001137-0.5 381.59999999999997-71.80000000000001c6.300000000000068 0.6000000000000227 8.899999999999977 4.800000000000011 8.800000000000068 15.899999999999977-0.7000000000000455 122.10000000000002-0.6000000000000227 244.30000000000007-0.10000000000002274 366.4 0.10000000000002274 13.900000000000091-3.8999999999999773 18.40000000000009-17.899999999999977 18.90000000000009-66 2.199999999999932-132.10000000000002 5.699999999999932-198.10000000000002 8.399999999999977-9.300000000000068 0.39999999999997726-17.100000000000023-0.3000000000000682-17.100000000000023 13.199999999999932 0 15 10 11.300000000000068 18 11.300000000000068 55.299999999999955 0.10000000000002274 110.70000000000005 0.6000000000000227 166-0.3000000000000682 15.200000000000045-0.2999999999999545 17.700000000000045 6.800000000000068 14.700000000000045 18.200000000000045-2.800000000000068 10.399999999999977-12.5 5.399999999999977-19 5.600000000000023-134.10000000000002 3.8999999999999773-268.5-8.200000000000045-402.30000000000007 8.5-42.099999999999966 5.2999999999999545-84.29999999999995 9.899999999999977-126.59999999999997 14.600000000000023-10.400000000000034 1.1999999999999318-15.100000000000023 3.5-12 16.299999999999955 9.399999999999977 38.60000000000002 8.699999999999989 38.799999999999955 48.5 42.60000000000002l12 1.6999999999999318c53.5 6 107 16 160.7 17 132.89999999999998 2.5 265.79999999999995 0.6000000000000227 398.79999999999995 1.2000000000000455 16.5 0.10000000000002274 21.800000000000068-4 21.600000000000023-21.100000000000023-0.7999999999999545-93.69999999999993-0.2999999999999545-187.5-0.2999999999999545-281.29999999999995z m-59.69999999999993-257.1c1.5-0.10000000000002274 2.800000000000068-0.10000000000002274 4 0h-4z m-533.9 520.1c-7.5-3.2000000000000455-22.600000000000023 5.7999999999999545-21-12.100000000000023 1.8999999999999773-20.799999999999955 19.30000000000001-9.399999999999977 29.5-12.399999999999977 10.800000000000011-3.2000000000000455 13.199999999999989 3.7999999999999545 13.199999999999989 13.5 0 18.799999999999955-13.599999999999966 8.600000000000023-21.69999999999999 11z m118 5.100000000000023c-7.199999999999989-1.3000000000000682-14.699999999999989-0.20000000000004547-22.100000000000023-0.20000000000004547v-2.1000000000000227c-8.099999999999966 0-16.19999999999999-0.39999999999997726-24.19999999999999 0.10000000000002274-10.099999999999966 0.6000000000000227-16.099999999999966-1.1000000000000227-16.099999999999966-13.799999999999955 0-12.100000000000023 3.3999999999999773-16.90000000000009 15.799999999999955-16.800000000000068 16.100000000000023 0.20000000000004547 32.400000000000034-0.2999999999999545 48.400000000000034-2.1000000000000227 17.69999999999999-1.7999999999999545 12.699999999999989 10.200000000000045 13.599999999999966 19.40000000000009 1.2000000000000455 11.699999999999932-1.7999999999999545 18-15.399999999999977 15.5z m127.89999999999998-299.70000000000005c-0.1999999999999318 0.8999999999999773-0.5 1.5-1.6000000000000227 1.7000000000000455-7.099999999999909 1.099999999999909-14.299999999999955 2.2999999999999545-21.399999999999977 3.5v19.199999999999932l20.399999999999977 3.6000000000000227c1.5 0.2999999999999545 2.2000000000000455 0.7999999999999545 2.6000000000000227 2.2999999999999545 1.1000000000000227 4.100000000000023 2.7000000000000455 8.100000000000023 4.899999999999977 11.700000000000045 0.8000000000000682 1.2000000000000455 0.6000000000000227 2.1000000000000227-0.1999999999999318 3.2000000000000455l-11.200000000000045 15.5c-0.7999999999999545 1-0.7999999999999545 1.6999999999999318 0.20000000000004547 2.599999999999909 3.7999999999999545 3.6000000000000227 7.5 7.400000000000091 11.100000000000023 11.100000000000023 1 1 1.599999999999909 0.8999999999999773 2.599999999999909 0.20000000000004547l15.700000000000045-11c1.1000000000000227-0.8000000000000682 2-1 3.2000000000000455-0.20000000000004547 3.699999999999932 2.2000000000000455 7.599999999999909 3.800000000000068 11.799999999999955 4.800000000000068 1.2999999999999545 0.2999999999999545 1.8999999999999773 0.8999999999999773 2.2000000000000455 2.3999999999999773 1 6.7999999999999545 2.2999999999999545 13.600000000000023 3.3999999999999773 20.399999999999977h19.199999999999932c1.2000000000000455-6.7999999999999545 2.400000000000091-13.600000000000023 3.5-20.399999999999977 0.20000000000004547-1.5 0.8000000000000682-2.1000000000000227 2.2000000000000455-2.3999999999999773 4-1 7.7999999999999545-2.6000000000000227 11.299999999999955-4.7000000000000455 1.5-0.8999999999999773 2.5-0.8999999999999773 3.800000000000068 0.20000000000004547 5 3.699999999999932 10.199999999999932 7.199999999999932 15.299999999999955 10.799999999999955 1.2000000000000455 0.8999999999999773 2 1.1000000000000227 3.2000000000000455-0.20000000000004547 3.5-3.599999999999909 7-7.199999999999932 10.600000000000023-10.599999999999909 1.1999999999999318-1.2000000000000455 1.099999999999909-1.900000000000091 0.1999999999999318-3.2000000000000455-3.7999999999999545-5.100000000000023-7.399999999999977-10.299999999999955-11.100000000000023-15.299999999999955-0.7999999999999545-1.1000000000000227-1.099999999999909-1.900000000000091-0.2999999999999545-3.2000000000000455 2.2000000000000455-3.7000000000000455 3.7999999999999545-7.600000000000023 4.7999999999999545-11.799999999999955 0.40000000000009095-1.5 1.2000000000000455-1.900000000000091 2.5-2.1000000000000227l18.90000000000009-3.2000000000000455c1.599999999999909-0.2999999999999545 1.8999999999999773-1 1.8999999999999773-2.3999999999999773-0.10000000000002274-4.7999999999999545-0.20000000000004547-9.600000000000023 0-14.399999999999977 0.10000000000002274-2.2000000000000455-0.7000000000000455-2.8999999999999773-2.7000000000000455-3.1000000000000227l-18-2.7999999999999545c-1.3999999999999773-0.20000000000004547-2.199999999999932-0.7000000000000455-2.6000000000000227-2.300000000000068-1-4.100000000000023-2.599999999999909-8-4.7999999999999545-11.5-0.7000000000000455-1.1999999999999318-0.6000000000000227-2.1000000000000227 0.20000000000004547-3.199999999999932 3.7999999999999545-5.300000000000068 7.399999999999977-10.600000000000023 11.199999999999932-15.800000000000068 0.8000000000000682-1.1999999999999886 0.8000000000000682-1.7999999999999545-0.2999999999999545-2.7999999999999545-3.7000000000000455-3.5-7.300000000000068-7.2000000000000455-10.800000000000068-10.800000000000011-1.099999999999909-1.1000000000000227-1.7999999999999545-1.1000000000000227-3-0.19999999999998863l-15.5 11.199999999999989c-1 0.8000000000000114-1.8999999999999773 1-3 0.30000000000001137-3.699999999999932-2.2000000000000455-7.699999999999932-3.900000000000034-11.899999999999977-5-1.2999999999999545-0.30000000000001137-1.7999999999999545-1-2-2.3000000000000114l-3.1000000000000227-18.400000000000034c-0.2999999999999545-1.6999999999999886-0.6999999999999318-2.599999999999966-2.7999999999999545-2.5-4.7999999999999545 0.20000000000004547-9.799999999999955 0.20000000000004547-14.600000000000023 0-1.7999999999999545-0.0999999999999659-2.2999999999999545 0.7000000000000455-2.5 2.3000000000000114l-2.7999999999999545 18c-0.20000000000004547 1.6000000000000227-0.7000000000000455 2.6000000000000227-2.3999999999999773 3-4.2000000000000455 1-8.100000000000023 2.6999999999999886-11.800000000000068 4.800000000000011-1.1000000000000227 0.6999999999999886-1.7999999999999545 0.5-2.8999999999999773-0.19999999999998863-5.2000000000000455-3.8000000000000114-10.600000000000023-7.5-15.700000000000045-11.300000000000011-1.099999999999909-0.8000000000000114-1.6999999999999318-0.8000000000000114-2.699999999999932 0.19999999999998863-3.6000000000000227 3.6999999999999886-7.300000000000068 7.400000000000034-11 11-1 1-1 1.6999999999999886-0.20000000000004547 2.900000000000034 3.7000000000000455 5.199999999999932 7.399999999999977 10.5 11 15.699999999999932 0.7000000000000455 1 0.8999999999999773 1.7000000000000455 0.3000000000000682 2.900000000000091-2.400000000000091 3.2999999999999545-4.100000000000023 7.5-5.300000000000068 11.799999999999955z m53.700000000000045-11.700000000000045c14.699999999999932 0.20000000000004547 26.5 12.100000000000023 26.5 26.700000000000045-0.10000000000002274 14.799999999999955-12.100000000000023 26.799999999999955-26.800000000000068 26.600000000000023-14.699999999999932-0.20000000000004547-26.5-12.100000000000023-26.5-26.700000000000045 0-14.699999999999932 12.200000000000045-26.799999999999955 26.800000000000068-26.600000000000023z m55.5-65.39999999999998l-11.5 7c-1.3000000000000682 0.7000000000000455-1.7000000000000455 1.400000000000034-1 2.900000000000034 1.5 3.1999999999999886 2.7999999999999545 6.599999999999966 4.100000000000023 9.899999999999977 0.599999999999909 1.6000000000000227 1.3999999999999773 1.8000000000000114 2.8999999999999773 1.400000000000034l12.899999999999977-2.900000000000034c1.3999999999999773-0.30000000000001137 2.3999999999999773-0.19999999999998863 3.2999999999999545 1.1000000000000227 1.8000000000000682 2.5 4 4.599999999999966 6.400000000000091 6.399999999999977 0.8999999999999773 0.6999999999999886 1.1999999999999318 1.3000000000000114 0.8999999999999773 2.5-1.1000000000000227 4.5-2.1000000000000227 9-3.300000000000068 13.5-0.39999999999997726 1.6000000000000227 0 2.3000000000000114 1.5 2.900000000000034 3.300000000000068 1.2999999999999545 6.7000000000000455 2.599999999999966 9.900000000000091 4.099999999999966 1.3999999999999773 0.6000000000000227 2 0.19999999999998863 2.699999999999932-0.8999999999999773l7.5-11.699999999999989c0.7000000000000455-1.1000000000000227 1.3999999999999773-1.6000000000000227 2.800000000000068-1.3000000000000114 3 0.5 6.099999999999909 0.5 9.099999999999909 0 1.3000000000000682-0.19999999999998863 1.900000000000091 0.0999999999999659 2.6000000000000227 1.1999999999999886l7.5 12c0.7000000000000455 1.1999999999999886 1.3999999999999773 1.5 2.7000000000000455 0.8999999999999773 3.2999999999999545-1.5 6.699999999999932-2.8999999999999773 10.100000000000023-4.199999999999989 1.099999999999909-0.39999999999997726 1.6999999999999318-0.8999999999999773 1.2999999999999545-2.3000000000000114l-3.2999999999999545-13.799999999999955c-0.3000000000000682-1.3000000000000114-0.10000000000002274-2.1000000000000227 1-2.900000000000034 2.3999999999999773-1.8000000000000114 4.599999999999909-4 6.399999999999977-6.399999999999977 0.7999999999999545-1 1.5-1.1999999999999886 2.699999999999932-0.9000000000000341 4.600000000000023 1.1000000000000227 9.200000000000045 2 13.800000000000068 3.2000000000000455 1.5 0.39999999999997726 2-0.10000000000002274 2.5-1.400000000000034 1.2999999999999545-3.3000000000000114 2.699999999999932-6.699999999999989 4.199999999999932-9.899999999999977 0.7000000000000455-1.400000000000034 0.40000000000009095-2.1000000000000227-0.8999999999999773-2.900000000000034-4-2.3999999999999773-7.899999999999977-4.899999999999977-11.799999999999955-7.2999999999999545-1-0.6000000000000227-1.5-1.2000000000000455-1.3000000000000682-2.5 0.40000000000009095-3 0.40000000000009095-6.100000000000023 0.10000000000002274-9.100000000000023-0.10000000000002274-1.3000000000000114 0.10000000000002274-2.1000000000000227 1.3000000000000682-2.8000000000000114 4-2.3999999999999773 8-5 12-7.5 1.1999999999999318-0.6999999999999886 1.2999999999999545-1.3000000000000114 0.7999999999999545-2.5-1.5-3.3999999999999773-2.8999999999999773-6.800000000000011-4.2000000000000455-10.300000000000011-0.5-1.2999999999999545-1.099999999999909-1.5-2.3999999999999773-1.1999999999999886l-13.5 3.1999999999999886c-1.2999999999999545 0.30000000000001137-2.1000000000000227 0.20000000000004547-2.8999999999999773-0.8999999999999773-1.8999999999999773-2.5-4.100000000000023-4.699999999999989-6.600000000000023-6.600000000000023-0.8999999999999773-0.6999999999999886-1.1000000000000227-1.3999999999999773-0.8999999999999773-2.5l3.2000000000000455-13.799999999999955c0.2999999999999545-1.3000000000000114 0.09999999999990905-2-1.3000000000000682-2.6000000000000227-3.5-1.3000000000000114-6.899999999999977-2.8000000000000114-10.299999999999955-4.300000000000011-1.1000000000000227-0.5-1.7000000000000455-0.30000000000001137-2.300000000000068 0.8000000000000114l-7.2999999999999545 11.899999999999977c-0.7000000000000455 1.2000000000000455-1.6000000000000227 1.6000000000000227-2.8999999999999773 1.5-3-0.39999999999997726-6.100000000000023-0.5-9.100000000000023 0-1.2999999999999545 0.20000000000004547-1.8999999999999773-0.2999999999999545-2.5-1.3999999999999773-2.2999999999999545-3.8999999999999773-4.899999999999977-7.699999999999989-7.2000000000000455-11.699999999999989-0.8999999999999773-1.5-1.599999999999909-1.6000000000000227-3-0.9000000000000341-3 1.400000000000034-6.099999999999909 2.7000000000000455-9.299999999999955 3.8000000000000114-1.7999999999999545 0.6000000000000227-2.2000000000000455 1.400000000000034-1.7999999999999545 3.3000000000000114 1.099999999999909 4.600000000000023 2 9.199999999999989 3.099999999999909 14.300000000000011 0.20000000000004547 0.5-0.6999999999999318 1-1.2999999999999545 1.5-2.2999999999999545 1.8000000000000114-4.5 3.8999999999999773-6.2999999999999545 6.199999999999989-0.900000000000091 1.3000000000000114-1.900000000000091 1.5-3.300000000000068 1.1000000000000227-4.399999999999977-1.1000000000000227-8.899999999999977-2-13.299999999999955-3.2000000000000455-1.3999999999999773-0.39999999999997726-1.8999999999999773 0-2.300000000000068 1.2000000000000455-1.3999999999999773 3.3999999999999773-2.699999999999932 6.7999999999999545-4.199999999999932 10.099999999999966-0.7000000000000455 1.5-0.3000000000000682 2.1000000000000227 1 2.900000000000034 3.8999999999999773 2.3999999999999773 7.699999999999932 4.899999999999977 11.5 7.399999999999977 1 0.6999999999999886 1.3999999999999773 1.3000000000000114 1.2999999999999545 2.6000000000000227-0.2999999999999545 3-0.39999999999997726 6.099999999999966 0 9.099999999999966-0.1999999999999318 1.1000000000000227-0.6000000000000227 2-1.7999999999999545 2.6999999999999886z m43.89999999999998-27.5c11.200000000000045 0.20000000000004547 20.299999999999955 9.400000000000034 20.100000000000023 20.5-0.3000000000000682 11.5-9.100000000000023 20.200000000000045-20.5 20.100000000000023-11.300000000000068 0-20.399999999999977-9.399999999999977-20.200000000000045-20.399999999999977 0.10000000000002274-11.300000000000011 9.399999999999977-20.400000000000034 20.600000000000023-20.200000000000045z"/>
</svg>
