<svg xmlns="http://www.w3.org/2000/svg" viewBox="0 0 1000 1000" width="1000" height="1000">
<path d="M153.5 937.4c-20.80000000000001-7.399999999999977-27.599999999999994-22.799999999999955-27-44 0.7999999999999972-27.799999999999955 0.20000000000000284-55.799999999999955 0.20000000000000284-83.69999999999993 0-27.800000000000068 12.799999999999997-40.5 40.89999999999999-40.60000000000002 43.599999999999994 0 87.1 0 130.70000000000002-0.10000000000002274 3 0 7.099999999999966 1.6000000000000227 8.699999999999989-1.5 1.1999999999999886-2.3999999999999773-1.8999999999999773-5.100000000000023-3.3000000000000114-7.399999999999977-67.89999999999998-114.80000000000007-135.7-229.70000000000005-203.39999999999998-344.5-1.4000000000000057-2.400000000000034-2.9000000000000057-4.900000000000034-4.500000000000014-7.5 80.7 56.69999999999999 156.7 53.799999999999955 228.5-15.900000000000034 24.099999999999966 41.10000000000002 48.599999999999966 83.10000000000002 73 125.09999999999997 47.69999999999999 81.5 95.30000000000001 163 142.7 244.60000000000002 3.1000000000000227 5.300000000000068 6.5 7.399999999999977 12.700000000000045 7.399999999999977 46.09999999999991-0.2999999999999545 92.19999999999993-0.1999999999999318 138.29999999999995-0.09999999999990905 29.100000000000023 0 41.299999999999955 12.399999999999977 41.299999999999955 41.69999999999993 0 27.899999999999977-0.599999999999909 55.80000000000007 0.3000000000000682 83.60000000000002 0.6000000000000227 21.100000000000023-6.800000000000068 35.799999999999955-27.300000000000068 42.89999999999998h-551.8z m780.9-601.4c-3.199999999999932 14-12.699999999999932 22.600000000000023-24.699999999999932 29.69999999999999-51.60000000000002 30.600000000000023-103 61.69999999999999-154.4000000000001 92.5-21.399999999999977 12.900000000000034-37.5 9.900000000000034-53-9.399999999999977-20.699999999999932-26-41.59999999999991-51.900000000000034-62.299999999999955-78.10000000000002-3.2999999999999545-4.300000000000011-6.7999999999999545-5.800000000000011-12.200000000000045-5.699999999999989-20.5 0.30000000000001137-40.89999999999998 0.30000000000001137-61.5 0.10000000000002274-19.199999999999932-0.20000000000004547-31.09999999999991-9.5-34.89999999999998-28.200000000000045-1.2999999999999545-6.2999999999999545-5.100000000000023-5-8.699999999999932-5-40.900000000000034-0.0999999999999659-82.00000000000006 0-122.90000000000003 0-12 0-24-0.2999999999999545-35.900000000000034 0.10000000000002274-6.699999999999989 0.30000000000001137-8.199999999999989-1.1000000000000227-5.7999999999999545-8 10.399999999999977-28.19999999999999 14.199999999999989-57.30000000000001 9.399999999999977-87.19999999999999-1.6999999999999886-10.700000000000017-4.199999999999989-21.30000000000001-8.800000000000011-31.100000000000023-3.099999999999966-6.5-2-8.5 5.600000000000023-8.399999999999977l154.59999999999997 0.29999999999998295c7.5 0 12-0.29999999999998295 13.800000000000068-9.699999999999989 3-14.900000000000006 16.399999999999977-24.099999999999994 32.09999999999991-24.200000000000017 20.700000000000045-0.29999999999998295 41.60000000000002-0.29999999999998295 62.30000000000007 0.10000000000002274 6.5 0.19999999999998863 10.299999999999955-2.200000000000017 14.199999999999932-7 19.300000000000068-24.600000000000023 39.200000000000045-48.80000000000001 58.40000000000009-73.50000000000001 7.199999999999932-9.200000000000003 15.599999999999909-16.299999999999997 26.199999999999932-20.599999999999994h13.600000000000023c6.399999999999977 3.3999999999999915 12.899999999999977 6.599999999999994 19.200000000000045 10.399999999999991 50 29.80000000000001 99.69999999999993 60 149.89999999999998 89.70000000000002 12.199999999999932 7.199999999999989 22 15.699999999999989 25.699999999999932 29.799999999999983v10.200000000000017c-3 5.899999999999977-4.599999999999909 12.599999999999994-9.799999999999955 17.599999999999994-12.799999999999955 12.099999999999994-28.200000000000045 13.400000000000006-45.299999999999955 3.0999999999999943-43.700000000000045-26.099999999999994-87.30000000000007-52.19999999999999-130.80000000000007-78.6-5.899999999999977-3.5999999999999943-9.100000000000023-3.9000000000000057-13.699999999999932 2.0999999999999943-21.300000000000068 27.400000000000006-43.10000000000002 54.400000000000006-64.90000000000009 81.4-2.7999999999999545 3.5-4.199999999999932 7.099999999999994-4.099999999999909 11.599999999999994 0.1999999999999318 16.19999999999999 0.2999999999999545 32.5 0 48.60000000000002-0.10000000000002274 4.7999999999999545 1.2999999999999545 8.699999999999989 4.399999999999977 12.399999999999977 21.799999999999955 27 43.60000000000002 54.10000000000002 65 81.39999999999998 4.2999999999999545 5.400000000000034 7.100000000000023 5.7000000000000455 12.899999999999977 2.1000000000000227 43.5-26.399999999999977 87.20000000000005-52.5 130.89999999999998-78.69999999999999 9.300000000000068-5.5 18.700000000000045-9 29.899999999999977-6.100000000000023 14.800000000000068 3.8000000000000114 21.700000000000045 14.300000000000011 25.700000000000045 27.80000000000001-0.10000000000002274 2.8000000000000114-0.10000000000002274 5.600000000000023-0.10000000000002274 8.5z m-740.0999999999999 56.5c-70.90000000000006 0.10000000000002274-127.90000000000006-56.89999999999998-128.20000000000007-127.89999999999998-0.09999999999999432-70.60000000000002 57.2-128.20000000000002 127.9-128.3 70.5-0.10000000000002274 128.2 57.599999999999994 128.3 128.09999999999997 0.19999999999998863 70.5-57.19999999999999 128-128 128.10000000000002z m-0.40000000000006253-202.3c-40.900000000000006 0.20000000000001705-74.5 33.900000000000006-74.30000000000001 74.40000000000003 0.30000000000001137 40.69999999999999 34.30000000000001 74.39999999999998 74.70000000000002 74.19999999999999 40.89999999999998-0.30000000000001137 74.09999999999997-33.900000000000034 74-74.69999999999999 0-40.80000000000001-33.400000000000006-74.10000000000002-74.4-73.90000000000003z m0.09999999999999432 109.90000000000003c-19.900000000000006-0.10000000000002274-35.599999999999994-15.800000000000011-35.5-35.80000000000001 0.09999999999999432-19.900000000000006 16.099999999999994-35.80000000000001 35.80000000000001-35.80000000000001 19.599999999999994 0.09999999999999432 35.89999999999998 16.5 35.79999999999998 36-0.09999999999999432 19.80000000000001-16.299999999999983 35.69999999999999-36.099999999999994 35.60000000000002z"/>
</svg>
