<svg xmlns="http://www.w3.org/2000/svg" viewBox="0 0 1000 1000" width="1000" height="1000">
<path d="M923.4 814.6c-36.10000000000002-21-72.39999999999998-41.700000000000045-108.5-62.60000000000002-55.69999999999993-32.200000000000045-111.39999999999998-64.5-167.19999999999993-96.5-6.300000000000068-3.6000000000000227-9.5-7.7000000000000455-10.400000000000091-14.899999999999977-1.5-11.600000000000023-7.099999999999909-21.5-16.09999999999991-29.100000000000023-13-11.100000000000023-13.700000000000045-14.600000000000023-2.2000000000000455-27.299999999999955 13.200000000000045-14.700000000000045 29.200000000000045-26.200000000000045 45.39999999999998-37.30000000000007 11.399999999999977-7.899999999999977 16.399999999999977-17.299999999999955 11.899999999999977-31.199999999999932-2.7999999999999545-8.700000000000045-4-17.800000000000068-6.2999999999999545-26.600000000000023-19.100000000000023-72.80000000000001-38.200000000000045-145.60000000000002-57.39999999999998-218.3-4.2000000000000455-15.900000000000006-13.100000000000023-22.5-26.800000000000068-20.700000000000017-11.899999999999977 1.5999999999999943-19.199999999999932 11.599999999999994-19.59999999999991 26.799999999999983-0.10000000000002274 2.2000000000000455 0 4.400000000000034 0 6.5v153.10000000000002c0 51.89999999999998-0.10000000000002274 103.79999999999995 0.09999999999990905 155.70000000000005 0 8.299999999999955-1.099999999999909 14.699999999999932-8.599999999999909 20.09999999999991-9.100000000000023 6.5-14.100000000000023 16.40000000000009-15.800000000000068 27.700000000000045-2.2999999999999545 14.700000000000045-4.699999999999932 16.5-19.399999999999977 14.299999999999955-20.5-3.099999999999909-39-12.199999999999932-57.39999999999998-21-13-6.2999999999999545-23.700000000000045-5.199999999999932-34.30000000000001 5.300000000000068-41.60000000000002 41.10000000000002-83.60000000000002 81.69999999999993-125.40000000000003 122.60000000000002-18.69999999999999 18.299999999999955-37.19999999999999 36.89999999999998-55.39999999999998 55.59999999999991-10.900000000000006 11.200000000000045-12.099999999999994 22.90000000000009-4.099999999999994 32.60000000000002 7.799999999999983 9.5 19.799999999999983 10.800000000000068 33.099999999999994 3.5 1.5-0.7999999999999545 3-1.6999999999999318 4.5-2.6000000000000227 89.39999999999998-51.59999999999991 178.7-103.19999999999993 268-154.89999999999998 7.100000000000023-4.100000000000023 13-6.199999999999932 21.600000000000023-2.2999999999999545 11.399999999999977 5.199999999999932 24.299999999999955 5.199999999999932 35.5-0.8999999999999773 12.299999999999955-6.800000000000068 16.699999999999932 0.39999999999997726 20.100000000000023 9.5 6.199999999999932 16.399999999999977 8 33.89999999999998 9.699999999999932 51.09999999999991 3 30.40000000000009 2.5 30.800000000000068 31.600000000000023 39.200000000000045 43.39999999999998 12.5 87 24.5 130.60000000000002 36.60000000000002 34 9.399999999999977 68 18.5 102 27.699999999999932 1.2999999999999545 0.3000000000000682 2.5 0.7000000000000455 3.7999999999999545 0.900000000000091 13.899999999999977 2.8999999999999773 24.899999999999977-2 29.399999999999977-13.100000000000023 4.5-11.200000000000045 0.3000000000000682-22.100000000000023-12.399999999999977-29.5z m-657.5-410.1c-35.99999999999997 17.19999999999999-74.59999999999997 25.899999999999977-113.99999999999997 31.600000000000023-29.10000000000001 4.199999999999989-58.400000000000006 5.699999999999989-89.4 5.199999999999989 2.299999999999997 1.6999999999999886 2.9000000000000057 2.3999999999999773 3.5999999999999943 2.599999999999966 67.6 13.5 135.5 19 203.79999999999998 7.400000000000034 47.10000000000002-8 86.70000000000005-29 111.40000000000003-71.90000000000003 21.30000000000001-37.099999999999966 25.099999999999966-77 19.19999999999999-118.89999999999998-10.899999999999977-77.80000000000001-91.60000000000002-138.3-171.3-112.19999999999999-56.5 18.5-105.39999999999999 57.69999999999999-87.89999999999998 135 8.899999999999977 39.30000000000001 40.79999999999998 83 99.89999999999998 79.59999999999997 43.60000000000002-2.5 72.69999999999999-35.299999999999955 67.90000000000003-78.69999999999999-3.1000000000000227-28.5-29.5-49.099999999999994-54.80000000000001-42.5 5.099999999999966 2.8000000000000114 10.199999999999989 5.300000000000011 14.899999999999977 8.300000000000011 18.80000000000001 11.899999999999977 24.19999999999999 35.5 11.900000000000034 52-13.700000000000045 18.399999999999977-44.30000000000001 24.30000000000001-59.20000000000002 10.300000000000011-14.5-13.5-21.30000000000001-30.600000000000023-16.200000000000017-50.900000000000034 6.400000000000006-25.69999999999999 27-43.49999999999997 51.400000000000034-44.89999999999998 26.5-1.4000000000000057 57.5 17.69999999999999 66 43 20.5 60.10000000000002 3.5 116-57.200000000000045 145z m59.80000000000001 245.89999999999998c12.800000000000011-74-26.19999999999999-133.29999999999995-97.6-148.59999999999997-20.900000000000006-4.5-42.19999999999999-6.300000000000011-63.599999999999994-6.400000000000034-34.30000000000001-0.19999999999998863-68.5 1.8000000000000114-102.1 10.100000000000023 5 1 10 0.8999999999999773 15 1 48.3 1.3999999999999773 95.19999999999999 9.799999999999955 139.4 29.799999999999955 47 21.300000000000068 65.69999999999999 66.90000000000009 47.89999999999998 115.20000000000005-7.199999999999989 19.700000000000045-29.099999999999994 35.39999999999998-49.19999999999999 35.200000000000045-16.599999999999994-0.10000000000002274-35.69999999999999-15.100000000000023-43-33.700000000000045-5.800000000000011-14.799999999999955 0.19999999999998863-35.200000000000045 13.599999999999994-43.89999999999998 9.599999999999994-6.2000000000000455 19.80000000000001-5.899999999999977 29.80000000000001-0.8999999999999773 9.900000000000006 5 16.19999999999999 12.199999999999932 17.19999999999999 24.09999999999991 1.5 18.100000000000023-7.599999999999994 28.5-27 35.30000000000007 24.700000000000017 4.5 46.599999999999994-13.800000000000068 47.5-39.5 1.200000000000017-35.39999999999998-27.19999999999999-60.200000000000045-65.4-57.60000000000002-53.39999999999998 3.6000000000000227-80.49999999999999 61.60000000000002-68.79999999999998 107.5 9.900000000000006 39.10000000000002 61.900000000000006 71.79999999999995 105.4 68 53-4.7000000000000455 91.59999999999997-41.299999999999955 100.89999999999998-95.60000000000002z m51.19999999999999-131.5c12.800000000000011 11 35 13.200000000000045 49.10000000000002 5 13.199999999999989-7.699999999999932 17.80000000000001-18.099999999999966 14.899999999999977-35.69999999999999-1.1999999999999886 2.6999999999999886-2.1999999999999886 4.600000000000023-2.7999999999999545 6.5-3.3000000000000114 11.900000000000034-11.600000000000023 17.30000000000001-23.400000000000034 16.69999999999999-12.5-0.5999999999999659-21.30000000000001-7.199999999999989-25.099999999999966-19.399999999999977-3.8000000000000114-12.199999999999989 1-21.19999999999999 11.099999999999966-28 21.69999999999999-14.800000000000011 56 0.10000000000002274 60.19999999999999 26.19999999999999 4 25.19999999999999-9.899999999999977 50.099999999999966-34.19999999999999 58.00000000000006-39.099999999999966 12.699999999999932-75.5 7.5-109.5-20.100000000000023 13.400000000000034 30.799999999999955 36.400000000000034 50.799999999999955 66.30000000000001 58.39999999999998 40.19999999999999 10.299999999999955 84.69999999999999-5.100000000000023 107-37.10000000000002 23.299999999999955-33.5 22.700000000000045-69.79999999999995-1.8999999999999773-104.5-26.30000000000001-37.19999999999999-70.10000000000002-43.5-106.10000000000002-15.299999999999955-28.899999999999977 22.799999999999955-31.80000000000001 66.79999999999995-5.600000000000023 89.29999999999995z m207.30000000000007 205.20000000000005l-12.700000000000045-2.300000000000068c-4.399999999999977-0.7999999999999545-8.299999999999955-0.7999999999999545-12.399999999999977 1.8000000000000682-11.100000000000023 6.899999999999977-22.399999999999977 13.199999999999932-35.80000000000007 20.899999999999977 26.100000000000023 15.899999999999977 51.60000000000002 23.5 80 19.100000000000023 3.6000000000000227-0.5 6.900000000000091-0.39999999999997726 6.900000000000091-5.600000000000023 0-10.899999999999977-0.3000000000000682-22.5-5.100000000000023-31.700000000000045-3.2000000000000455-6.099999999999909-13.700000000000045-1-20.899999999999977-2.199999999999932z m66.29999999999995-131.5c-2.1000000000000227 2.2999999999999545-4.2000000000000455 3.6000000000000227-1.8999999999999773 7.5 11.899999999999977 20.199999999999932 21.600000000000023 41.89999999999998 46.60000000000002 50.799999999999955 9 3.2000000000000455 12.799999999999955 4.7000000000000455 11.399999999999977-5-0.8999999999999773-17.399999999999977-4.399999999999977-32.60000000000002-11.300000000000068-46.89999999999998-13.899999999999977-28.899999999999977-22.5-30.100000000000023-44.799999999999955-6.399999999999977z m-164.89999999999998 2.6000000000000227c-6.300000000000011 11-4.800000000000011 16.899999999999977 7.5 20.399999999999977 7.5 2.1000000000000227 14.899999999999977 8.299999999999955 21.699999999999932 7.399999999999977 6.900000000000091-0.7999999999999545 7.5-11.5 11.300000000000068-17.5 4.100000000000023-6.399999999999977 12.5-10.100000000000023 12.5-19.100000000000023v-42.69999999999993c-24.899999999999977 12.299999999999955-40.60000000000002 29.899999999999977-53 51.5z"/>
</svg>
