<svg xmlns="http://www.w3.org/2000/svg" viewBox="0 0 1000 1000" width="1000" height="1000">
<path d="M731.2 767.1c-22.200000000000045-37.89999999999998-44.5-75.89999999999998-66.70000000000005-114-13.799999999999955-23.600000000000023-19.600000000000023-25.100000000000023-43-10-6.7999999999999545 4.5-14.299999999999955 9.399999999999977-17 17.100000000000023-5.399999999999977 14.899999999999977-15.100000000000023 14.099999999999909-26.799999999999955 9.599999999999909-4-1.5-8.400000000000091-2.199999999999932-12.200000000000045-4.099999999999909-12.700000000000045-6.400000000000091-23.600000000000023-4.300000000000068-34.799999999999955 7.7999999999999545 18.5 5.2999999999999545 35.69999999999993 10.899999999999977 53.299999999999955 15.299999999999955 12.600000000000023 3.2000000000000455 7.399999999999977 13.5 9.799999999999955 20.800000000000068 2.6000000000000227 8-4.599999999999909 6.7999999999999545-8.299999999999955 8.5-14.899999999999977 6.7999999999999545-28.5 16.399999999999977-33.10000000000002 32-6.2999999999999545 21.299999999999955-13.100000000000023 41.60000000000002-29.600000000000023 57.39999999999998-1.599999999999909 1.5-2.199999999999932 4.2000000000000455-3.099999999999909 6.399999999999977-4.400000000000091 10.399999999999977-2.7000000000000455 15.300000000000068 10.399999999999977 15.200000000000045 56.5-0.8000000000000682 113.10000000000002-0.6000000000000227 169.60000000000002-1.1000000000000227 11.5-0.10000000000002274 22.899999999999977-1.3999999999999773 33.69999999999993-6 9.600000000000023-4.100000000000023 13.700000000000045-11.299999999999955 11.399999999999977-21.899999999999977-2.5-11.800000000000068-7.399999999999977-22.600000000000023-13.599999999999909-33z m-144.4000000000001 34.10000000000002c-11.099999999999909-1.1000000000000227-16.899999999999977-6.7000000000000455-16.799999999999955-17.700000000000045 0.10000000000002274-10.700000000000045 7-16.100000000000023 16.200000000000045-16.399999999999977 10.299999999999955-0.39999999999997726 17.5 6.5 17.399999999999977 16.799999999999955-0.10000000000002274 10-6.300000000000068 16.700000000000045-16.800000000000068 17.300000000000068z m43.60000000000002-93.10000000000002c-10.199999999999932 0.10000000000002274-16.600000000000023-6.399999999999977-16.899999999999977-15.899999999999977-0.39999999999997726-10.100000000000023 5.2999999999999545-17.800000000000068 16.299999999999955-18 10.600000000000023-0.3000000000000682 16.40000000000009 6.199999999999932 17.90000000000009 15.899999999999977-1 11.5-6.5 17.799999999999955-17.300000000000068 18z m62.60000000000002 55.299999999999955c-0.39999999999997726 10.100000000000023-6.2999999999999545 16.800000000000068-18.100000000000023 17-10-1.2999999999999545-15.799999999999955-7.2999999999999545-15.699999999999932-18 0.09999999999990905-11.600000000000023 8.099999999999909-16.399999999999977 18-16 9.5 0.3000000000000682 16.399999999999977 7 15.799999999999955 17z m-397.1-167.60000000000002c17.100000000000023-14.599999999999909 34.700000000000045-28.59999999999991 51.900000000000034-43.299999999999955 4-3.3999999999999773 7.199999999999989-4.899999999999977 12.699999999999989-3.2000000000000455 7.5 2.400000000000091 15.600000000000023 3.1000000000000227 25 4.7000000000000455-5.5 9.799999999999955-10.199999999999989 18.600000000000023-15.399999999999977 27.100000000000023-4 6.600000000000023-5.300000000000011 10.199999999999932 4.599999999999966 12.600000000000023 19.400000000000034 4.899999999999977 38.60000000000002 10.899999999999977 57.60000000000002 17.299999999999955 6.699999999999989 2.2000000000000455 10.199999999999989 1.6000000000000227 14-4.600000000000023 9.699999999999989-15.899999999999977 19.899999999999977-31.699999999999932 33.39999999999998-44.799999999999955 2.3000000000000114-2.2000000000000455 3.900000000000034-4.100000000000023 2.3000000000000114-7.399999999999977-6.5-13.300000000000068-12.5-26.90000000000009-19.600000000000023-39.90000000000009-3.599999999999966-6.699999999999932-10.699999999999989-9.899999999999977-18.19999999999999-9.999999999999943-32.5-0.30000000000001137-65-0.30000000000001137-97.5-0.19999999999998863-9.399999999999977 0-18.099999999999966 1.8999999999999773-23.69999999999999 10.699999999999932-14.5 22.5-28.69999999999999 45.10000000000002-43.5 67.40000000000009-4.5 6.699999999999932-1.3999999999999773 10 3.3000000000000114 14.199999999999932 5.099999999999966 4.899999999999977 8.399999999999977 3.5 13.099999999999966-0.6000000000000227z m166.70000000000005 83c-33.80000000000001-27.199999999999932-75.90000000000003-32.39999999999998-114.90000000000003-45.89999999999998-6.599999999999966-2.2999999999999545-8.5 1.1000000000000227-10.300000000000011 5.899999999999977-5 13.600000000000023 1.1000000000000227 28.100000000000023 15.800000000000011 35.90000000000009 23.600000000000023 12.5 47.60000000000002 24.59999999999991 71.60000000000002 36.5 6.699999999999989 3.2999999999999545 9.699999999999989 7.2999999999999545 10.399999999999977 15.199999999999932 3.1000000000000227 33.39999999999998 7.699999999999989 66.60000000000002 10.600000000000023 99.89999999999998 1 10.800000000000068 6.199999999999989 10.700000000000045 14.099999999999966 10.700000000000045 7.600000000000023 0.10000000000002274 12.200000000000045-0.39999999999997726 12.700000000000045-10.200000000000045 2.2999999999999545-36.799999999999955 5.699999999999989-73.5 8.099999999999966-104.59999999999991 1.400000000000034-29.600000000000023 0.5-28.40000000000009-18.099999999999966-43.40000000000009z m36.39999999999998-163.19999999999993c28.899999999999977 0.1999999999999318 53.299999999999955-24.100000000000023 53.200000000000045-52.900000000000034-0.20000000000004547-27.899999999999977-24.40000000000009-52.19999999999999-52.50000000000006-52.39999999999998-29.099999999999966-0.19999999999998863-51.89999999999998 22.30000000000001-52.39999999999998 51.5-0.30000000000001137 30.19999999999999 22.099999999999966 53.599999999999966 51.69999999999999 53.80000000000001z m-109.80000000000001 193.5c-13.899999999999977-7.100000000000023-27.899999999999977-14.100000000000023-44.80000000000001-22.800000000000068 7.400000000000034 30.40000000000009-11.599999999999966 48.700000000000045-23.799999999999955 69.5-10.700000000000045 18.100000000000023-21.700000000000045 36-33.200000000000045 53.60000000000002-4.099999999999966 6.399999999999977-4.699999999999989 10.300000000000068 2.5 14.800000000000068 6.600000000000023 4.099999999999909 11.200000000000045 9.199999999999932 18.80000000000001 0.5 22.80000000000001-25.800000000000068 46.19999999999999-51.10000000000002 69.90000000000003-75.90000000000009 8.399999999999977-8.799999999999955 12.599999999999966-18.59999999999991 14.199999999999989-30.399999999999977 0.5-4.5 0.39999999999997726-7.2999999999999545-3.6000000000000227-9.299999999999955z m-82.19999999999999-102.89999999999998c58.30000000000001 17.399999999999977 115.19999999999999 34.39999999999998 174.2 52-8-17.40000000000009-19.69999999999999-24.800000000000068-35.5-29-37.19999999999999-10-74.19999999999999-21.300000000000068-110.89999999999998-33.40000000000009-12.699999999999989-4.099999999999909-19.400000000000034 0.8000000000000682-27.80000000000001 10.400000000000091z m220.79999999999995 47.89999999999998c-1.5-3.3999999999999773-2.5-6-3.7999999999999545-8.600000000000023-6.7000000000000455-14.700000000000045-13.199999999999989-29.600000000000023-20.399999999999977-44.10000000000002-4.600000000000023-9.299999999999955-6.7000000000000455-25.600000000000023-14.400000000000034-25.799999999999955-9.099999999999966-0.3000000000000682-13.800000000000011 15-20.899999999999977 23.100000000000023-5.199999999999989 6-5.600000000000023 10.899999999999977-0.30000000000001137 17.399999999999977 12.399999999999977 15.199999999999932 24.100000000000023 30.799999999999955 36.10000000000002 46.299999999999955 2.1999999999999886 2.8999999999999773 4.099999999999966 7.300000000000068 8.899999999999977 3.3999999999999773 5-3.8999999999999773 12.399999999999977-5 14.799999999999955-11.699999999999932z m399.5 146.5l-359.19999999999993-673.3000000000001c-14.100000000000023-26.59999999999995-37.30000000000007-40.69999999999996-67.20000000000005-40.69999999999996s-53.099999999999966 14.100000000000009-67.19999999999999 40.60000000000001l-361 673.4c-13.999999999999986 25.100000000000023-13.599999999999987 51.39999999999998 1.4000000000000057 75.89999999999998 14.800000000000011 24.100000000000023 37.5 36.89999999999998 65.6 36.89999999999998h720.5c28.09999999999991 0 50.799999999999955-12.799999999999955 65.59999999999991-36.89999999999998 15-24.5 15.600000000000023-50.700000000000045 1.5-75.89999999999998z m-43.69999999999993 49.89999999999998c-5.800000000000068 9.399999999999977-12.5 13.200000000000045-23.399999999999977 13.200000000000045h-720.5c-10.900000000000034 0-17.60000000000005-3.900000000000091-23.40000000000005-13.200000000000045-5.5-9-5.599999999999994-16.600000000000023-0.3999999999999915-25.899999999999977l0.09999999999999432-0.20000000000004547 361.2-673.8 0.10000000000002274-0.10000000000002274c5.300000000000011-10.199999999999989 12.199999999999989-14.400000000000006 23.5-14.400000000000006s17.999999999999943 4.200000000000017 23.499999999999943 14.5l359.5 673.6 0.3000000000000682 0.39999999999997726c5.199999999999932 9.5 5.100000000000023 16.899999999999977-0.5 25.899999999999977z"/>
</svg>
