<svg xmlns="http://www.w3.org/2000/svg" viewBox="0 0 1000 1000" width="1000" height="1000">
<path d="M918.9 739.5c-25.699999999999932-9.899999999999977-38.799999999999955-29.399999999999977-39-57.299999999999955-0.1999999999999318-24.90000000000009 0-49.80000000000007 0-74.70000000000005h-0.10000000000002274c0-26 0.3000000000000682-52-0.09999999999990905-78-0.5-31-19.40000000000009-53.80000000000001-49.90000000000009-58.5-14.299999999999955-2.1999999999999886-29.09999999999991-1.1999999999999886-43.69999999999993-1.5-12.200000000000045-0.30000000000001137-17.200000000000045 5.300000000000011-17.100000000000023 17.80000000000001 0.39999999999997726 65.99999999999994-0.20000000000004547 132.09999999999997 0.39999999999997726 198.2 0.39999999999997726 37.39999999999998 27 68.39999999999998 63.39999999999998 76 27.40000000000009 5.7000000000000455 55 1.7000000000000455 82.5 2.6000000000000227 6.900000000000091 0.1999999999999318 20.90000000000009-0.6000000000000227 22.200000000000045-8.800000000000068 1.2000000000000455-8.399999999999977-11.799999999999955-13.199999999999932-18.600000000000023-15.799999999999955z m-565.4-227.7c-69.80000000000001-82.80000000000001-208.5-81.30000000000001-277.8-2.1999999999999886-22.79999999999999 26-14.899999999999991 29.199999999999932 15.200000000000017 45.299999999999955 0 0 58.099999999999994-67.39999999999998 130.29999999999998-67.5 2.9000000000000057 0.20000000000004547 5.800000000000011 0.4000000000000341 8.800000000000011 0.6000000000000227l0.9000000000000057-0.19999999999998863c37.70000000000002 3.1999999999999886 78.49999999999997 25.599999999999966 116.6 85.49999999999994 4.399999999999977 9.700000000000045 7.399999999999977 18.100000000000023 9.199999999999989 22.800000000000068 6.100000000000023 15.699999999999932 15.5 7.600000000000023 23.400000000000034 9.100000000000023 10.199999999999989 2 8.399999999999977-6.5 7.899999999999977-12.400000000000091-2.1999999999999886-30.699999999999932-14.800000000000011-57.5-34.5-80.99999999999994z m-13 163.2l-25.19999999999999-14.399999999999977c-1.5-0.8999999999999773-2.1000000000000227-1.8000000000000682-2-3.6000000000000227 0.0999999999999659-4.5-0.10000000000002274-8.899999999999977 0.0999999999999659-13.399999999999977 0-1 0.8000000000000114-2.3999999999999773 1.7000000000000455-3 3-2 6.099999999999966-3.6000000000000227 9.199999999999989-5.399999999999977 4.5-2.6000000000000227 9.099999999999966-5.2000000000000455 13.899999999999977-8 3.1000000000000227-1.8000000000000682 4.699999999999989-6 3.5-9.5-1.8000000000000114-5.100000000000023-3.5-10.100000000000023-5.199999999999989-15.100000000000023-0.8000000000000114-2.6000000000000227-2.3000000000000114-2.8999999999999773-4.800000000000011-2.6000000000000227-9.599999999999966 1.1000000000000227-19.30000000000001 1.8999999999999773-29 2.8999999999999773-1.8000000000000114 0.20000000000004547-2.8999999999999773-0.2999999999999545-4-1.8999999999999773-2.5-3.6000000000000227-5.199999999999989-7.100000000000023-7.899999999999977-10.5-1-1.2999999999999545-1.3000000000000114-2.2999999999999545-0.5-3.7999999999999545 1.5-3 2.8000000000000114-6.100000000000023 4.099999999999966-9.100000000000023 2.2000000000000455-4.800000000000068 4.300000000000011-9.600000000000023 6.600000000000023-14.700000000000045 1.5-3.2999999999999545 0.30000000000001137-7.600000000000023-2.6999999999999886-9.699999999999932l-14.400000000000034-9.900000000000091c-1.5-1.099999999999909-2.3999999999999773-0.599999999999909-3.6999999999999886 0.5-7.5 6.600000000000023-15.099999999999966 13-22.69999999999999 19.600000000000023-1.3999999999999773 1.2000000000000455-2.4000000000000057 1.3000000000000682-4.099999999999994 0.6000000000000227-4.099999999999994-1.5-8.300000000000011-2.7999999999999545-12.5-3.8999999999999773-1.9000000000000057-0.5-2.8000000000000114-1.3999999999999773-3.200000000000017-3.3999999999999773-1.799999999999983-8.100000000000023-3.5999999999999943-16.200000000000045-5.5-24.5-0.799999999999983-3.5-4.399999999999977-6.400000000000091-8-6.400000000000091h-13.299999999999983c-3.5999999999999943 0-7.200000000000017 2.900000000000091-8 6.400000000000091-1.9000000000000057 8.399999999999977-3.8000000000000114 16.5-5.599999999999994 24.699999999999932-0.4000000000000057 1.8999999999999773-1.3000000000000114 2.6000000000000227-3.1000000000000227 3.1000000000000227-4.199999999999989 1.2000000000000455-8.399999999999977 2.3999999999999773-12.5 3.8999999999999773-1.799999999999983 0.7000000000000455-2.8999999999999773 0.5-4.299999999999983-0.7999999999999545-7.5-6.600000000000023-15.099999999999994-13.100000000000023-22.700000000000017-19.5-0.6999999999999886-0.6000000000000227-2.3999999999999773-1-3-0.6000000000000227-5 3.2999999999999545-9.899999999999977 6.600000000000023-14.799999999999983 10-3 2-4.200000000000017 6.399999999999977-2.700000000000017 9.700000000000045 3.6000000000000227 8 7 15.699999999999932 10.600000000000023 23.399999999999977 0.8999999999999773 1.8999999999999773 0.5999999999999943 3.1000000000000227-0.700000000000017 4.5-2.4000000000000057 2.7999999999999545-4.900000000000006 5.600000000000023-6.599999999999994 8.699999999999932-1.6999999999999886 3.1000000000000227-3.8000000000000114 3.5-6.900000000000006 3.1000000000000227-9.399999999999991-1.1000000000000227-18.89999999999999-1.8999999999999773-28.39999999999999-2.7999999999999545-0.9000000000000057-0.10000000000002274-2.4000000000000057 0.5-2.6000000000000085 1.1999999999999318-2.0999999999999943 5.5-4 11-6 16.600000000000023-1.1999999999999886 3.3999999999999773-1.5 6.5-0.6999999999999886 7.100000000000023 0.5999999999999943 0.39999999999997726 1.0999999999999943 0.6000000000000227 1.5 0.8999999999999773l25.5 14.600000000000023c1.5999999999999943 0.8999999999999773 2.1999999999999886 1.8999999999999773 2.0999999999999943 3.7999999999999545-0.20000000000000284 4.300000000000068-0.20000000000000284 8.5 0 12.800000000000068 0.09999999999999432 1.8999999999999773-0.5 2.8999999999999773-2.200000000000003 3.7999999999999545-8.5 4.7000000000000455-16.799999999999997 9.600000000000023-25.200000000000003 14.399999999999977-0.5 0.3000000000000682-1 0.6000000000000227-1.5999999999999943 1-0.9000000000000057 0.6000000000000227-0.5999999999999943 3.800000000000068 0.5999999999999943 7.300000000000068 1.8000000000000114 5.100000000000023 3.5 10.100000000000023 5.200000000000003 15.100000000000023 0.7999999999999972 2.599999999999909 2.299999999999997 2.699999999999932 4.6000000000000085 2.5 9.599999999999994-1 19.299999999999997-1.900000000000091 29-2.900000000000091 1.9000000000000057-0.1999999999999318 3.0999999999999943 0.3000000000000682 4.199999999999989 2 2.200000000000017 3.300000000000068 4.5 6.5 7.099999999999994 9.5 1.6000000000000227 1.900000000000091 1.9000000000000057 3.400000000000091 0.8000000000000114 5.600000000000023-3.5 7.5-6.800000000000011 15-10.300000000000011 22.800000000000068-1.5 3.2999999999999545-0.29999999999998295 7.599999999999909 2.700000000000017 9.699999999999932 5 3.3999999999999773 9.900000000000006 6.800000000000068 14.900000000000006 10 0.5999999999999943 0.39999999999997726 2.299999999999983 0 3-0.6000000000000227 7.599999999999994-6.399999999999977 15.199999999999989-12.899999999999977 22.69999999999999-19.5 1.4000000000000057-1.2999999999999545 2.5-1.3999999999999773 4.300000000000011-0.6999999999999318 4 1.5 8.099999999999994 2.699999999999932 12.199999999999989 3.7999999999999545 2 0.5 3 1.3999999999999773 3.4000000000000057 3.5 1.6999999999999886 8.100000000000023 3.5999999999999943 16.200000000000045 5.5 24.399999999999977 0.799999999999983 3.5 4.400000000000006 6.400000000000091 8 6.400000000000091h13.299999999999983c3.6000000000000227 0 7.200000000000017-2.900000000000091 8-6.400000000000091 1.9000000000000057-8.299999999999955 3.8000000000000114-16.399999999999977 5.600000000000023-24.5 0.39999999999997726-1.8999999999999773 1.299999999999983-2.8999999999999773 3.1999999999999886-3.3999999999999773 4.199999999999989-1.1000000000000227 8.400000000000006-2.3999999999999773 12.5-3.8999999999999773 1.8000000000000114-0.7000000000000455 2.8999999999999773-0.39999999999997726 4.300000000000011 0.7999999999999545 7.5 6.600000000000023 15.099999999999966 13.100000000000023 22.69999999999999 19.5 0.6000000000000227 0.5 2.1999999999999886 1 2.8000000000000114 0.6000000000000227 5.099999999999966-3.2999999999999545 10-6.699999999999932 15-10.100000000000023 3-2 4.199999999999989-6.399999999999977 2.6999999999999886-9.599999999999909-3.6000000000000227-8.100000000000023-7-15.900000000000091-10.600000000000023-23.600000000000023-0.7999999999999545-1.8000000000000682-0.5-2.8999999999999773 0.6000000000000227-4.300000000000068 2.3999999999999773-2.8999999999999773 5-5.699999999999932 6.800000000000011-9 1.6999999999999886-3.099999999999909 3.8999999999999773-3.3999999999999773 7-3 9.399999999999977 1.1000000000000227 18.899999999999977 1.900000000000091 28.399999999999977 2.7000000000000455 0.9000000000000341 0.10000000000002274 2.400000000000034-0.7999999999999545 2.6000000000000227-1.6000000000000227 2-5.2999999999999545 3.8999999999999773-10.699999999999932 5.800000000000011-16.100000000000023 1.1999999999999886-3.3999999999999773 1.3999999999999773-6.699999999999932 0.5-7.2999999999999545-0.5 0.20000000000004547-1.1000000000000227-0.10000000000002274-1.6000000000000227-0.5z m-124.9 16.399999999999977c-22.299999999999983-0.6000000000000227-40.69999999999999-19.799999999999955-40-41.799999999999955 0.700000000000017-23.100000000000023 19.900000000000006-40.5 44-39.89999999999998 22.30000000000001 0.5 40.70000000000002 19.799999999999955 40.00000000000003 42.09999999999991-0.7000000000000455 22.800000000000068-20.100000000000023 40.200000000000045-44.00000000000003 39.60000000000002z m472-4.100000000000023c-7.399999999999977-4.199999999999932-14.700000000000045-8.5-22.100000000000023-12.599999999999909-1.3999999999999773-0.7000000000000455-1.7999999999999545-1.6000000000000227-1.7999999999999545-3.1000000000000227 0.09999999999990905-3.8999999999999773-0.10000000000002274-7.800000000000068 0.09999999999990905-11.700000000000045 0-0.8999999999999773 0.7000000000000455-2.1000000000000227 1.5-2.6000000000000227 2.6000000000000227-1.6999999999999318 5.400000000000091-3.199999999999932 8.100000000000023-4.699999999999932 3.6000000000000227-2.1000000000000227 7.2000000000000455-4.100000000000023 10.899999999999977-6.300000000000068 3.5-2 5.2000000000000455-6.599999999999909 3.900000000000091-10.299999999999955-1.400000000000091-4-2.800000000000068-8-4.100000000000023-12-0.7000000000000455-2.2999999999999545-2-2.5-4.2000000000000455-2.2999999999999545-8.5 1-16.899999999999977 1.6999999999999318-25.399999999999977 2.5-1.6000000000000227 0.1999999999999318-2.5-0.3000000000000682-3.5-1.7000000000000455-2.2000000000000455-3.2000000000000455-4.5-6.2000000000000455-6.899999999999977-9.200000000000045-0.8999999999999773-1.099999999999909-1.2000000000000455-2-0.5-3.2999999999999545 1.2999999999999545-2.6000000000000227 2.3999999999999773-5.399999999999977 3.6000000000000227-8 1.6999999999999318-3.7999999999999545 3.3999999999999773-7.600000000000023 5.199999999999932-11.600000000000023 1.6000000000000227-3.6000000000000227 0.3000000000000682-8.399999999999977-3-10.600000000000023l-11.399999999999977-7.7999999999999545c-1.2999999999999545-0.8999999999999773-2.1000000000000227-0.5-3.2000000000000455 0.5l-19.899999999999977 17.200000000000045c-1.1999999999999318 1-2.1000000000000227 1.099999999999909-3.6000000000000227 0.5-3.599999999999909-1.3000000000000682-7.2999999999999545-2.400000000000091-11-3.400000000000091-1.6999999999999318-0.5-2.5-1.1999999999999318-2.7999999999999545-2.8999999999999773-1.5-6.600000000000023-3-13.299999999999955-4.5-20-0.8999999999999773-3.8999999999999773-4.7999999999999545-7-8.799999999999955-7h-8.800000000000068c-4 0-7.899999999999977 3.1000000000000227-8.699999999999932 7-1.6000000000000227 6.899999999999977-3.1000000000000227 13.600000000000023-4.5 20.200000000000045-0.40000000000009095 1.6000000000000227-1.2000000000000455 2.2999999999999545-2.7000000000000455 2.699999999999932-3.7000000000000455 1-7.399999999999977 2.1000000000000227-11 3.5-1.6000000000000227 0.6000000000000227-2.5 0.40000000000009095-3.7999999999999545-0.6999999999999318-6.600000000000023-5.800000000000068-13.200000000000045-11.5-19.90000000000009-17.100000000000023-0.599999999999909-0.5-2.099999999999909-0.8999999999999773-2.599999999999909-0.5-4 2.6000000000000227-7.900000000000091 5.2999999999999545-11.800000000000068 8-3.2999999999999545 2.2000000000000455-4.599999999999966 7-3 10.600000000000023 2.900000000000034 6.600000000000023 5.800000000000068 12.899999999999977 8.700000000000045 19.299999999999955 0.6999999999999318 1.6000000000000227 0.5 2.7000000000000455-0.6000000000000227 4-2.1000000000000227 2.5-4.300000000000011 4.899999999999977-5.800000000000011 7.600000000000023-1.5 2.7000000000000455-3.3000000000000114 3.1000000000000227-6.099999999999966 2.7000000000000455-8.300000000000011-1-16.600000000000023-1.7000000000000455-24.900000000000034-2.400000000000091-0.6999999999999886-0.09999999999990905-2.099999999999966 0.5-2.3000000000000114 1-1.599999999999966 4.400000000000091-3.1999999999999886 8.800000000000068-4.699999999999989 13.200000000000045-1.3000000000000114 3.7000000000000455-1.8000000000000114 7.100000000000023-1.099999999999966 7.600000000000023l1.3999999999999773 0.7999999999999545c7.5 4.300000000000068 14.899999999999977 8.5 22.399999999999977 12.700000000000045 1.5 0.7999999999999545 1.900000000000034 1.6999999999999318 1.900000000000034 3.3999999999999773-0.19999999999998863 3.7000000000000455-0.19999999999998863 7.5 0 11.200000000000045 0.0999999999999659 1.6999999999999318-0.5 2.5-1.900000000000034 3.3999999999999773-7.399999999999977 4.100000000000023-14.799999999999955 8.399999999999977-22.099999999999966 12.600000000000023-0.5 0.2999999999999545-0.9000000000000341 0.5-1.400000000000034 0.8999999999999773-0.7999999999999545 0.5-0.2999999999999545 3.8999999999999773 1 7.600000000000023 1.400000000000034 4 2.8000000000000114 8 4.100000000000023 12 0.6999999999999886 2.2999999999999545 2 2.3999999999999773 4 2.199999999999932l25.399999999999977-2.5c1.7000000000000455-0.1999999999999318 2.7000000000000455 0.3000000000000682 3.7000000000000455 1.8000000000000682 1.8999999999999773 2.8999999999999773 3.8999999999999773 5.699999999999932 6.199999999999932 8.399999999999977 1.400000000000091 1.6000000000000227 1.6000000000000227 2.8999999999999773 0.7000000000000455 4.899999999999977-2.7999999999999545 6.100000000000023-5.600000000000023 12.299999999999955-8.5 18.700000000000045-1.6000000000000227 3.599999999999909-0.30000000000001137 8.399999999999977 3 10.599999999999909 3.8999999999999773 2.7000000000000455 7.899999999999977 5.400000000000091 11.899999999999977 8 0.5 0.40000000000009095 2 0 2.6000000000000227-0.5 6.7000000000000455-5.599999999999909 13.399999999999977-11.399999999999977 19.899999999999977-17.09999999999991 1.3000000000000682-1.1000000000000227 2.2000000000000455-1.3000000000000682 3.800000000000068-0.6000000000000227 3.5 1.2999999999999545 7.099999999999909 2.3999999999999773 10.699999999999932 3.3999999999999773 1.8000000000000682 0.5 2.6000000000000227 1.2000000000000455 3 3.1000000000000227 1.3999999999999773 6.600000000000023 2.8999999999999773 13.299999999999955 4.5 20 0.8999999999999773 3.8999999999999773 4.800000000000068 7 8.800000000000068 7h8.799999999999955c4 0 7.899999999999977-3.1000000000000227 8.799999999999955-7 1.5-6.800000000000068 3.1000000000000227-13.5 4.5-20.100000000000023 0.40000000000009095-1.7000000000000455 1.1000000000000227-2.5 2.800000000000068-3 3.699999999999932-1 7.399999999999977-2.1000000000000227 11-3.3999999999999773 1.6000000000000227-0.6000000000000227 2.5-0.3000000000000682 3.7999999999999545 0.6999999999999318 6.600000000000023 5.800000000000068 13.200000000000045 11.5 19.899999999999977 17.100000000000023 0.6000000000000227 0.5 1.900000000000091 0.8000000000000682 2.400000000000091 0.5 4-2.6000000000000227 8-5.2999999999999545 12-8 3.2999999999999545-2.199999999999932 4.599999999999909-7 3-10.600000000000023-2.900000000000091-6.599999999999909-5.800000000000068-13-8.700000000000045-19.299999999999955-0.7000000000000455-1.6000000000000227-0.5-2.5 0.5-3.7000000000000455 2.1000000000000227-2.5 4.399999999999977-5 6-7.899999999999977 1.5-2.699999999999932 3.3999999999999773-3 6.100000000000023-2.6000000000000227 8.299999999999955 0.900000000000091 16.600000000000023 1.7000000000000455 24.899999999999977 2.400000000000091 0.7000000000000455 0.09999999999990905 2.1000000000000227-0.7000000000000455 2.2999999999999545-1.400000000000091 1.6000000000000227-4.2999999999999545 3.1000000000000227-8.5 4.600000000000023-12.799999999999955 1.3000000000000682-3.7000000000000455 1.7000000000000455-7.2000000000000455 0.8999999999999773-7.7000000000000455-0.6999999999999318-0.8999999999999773-1.1999999999999318-1.1999999999999318-1.6999999999999318-1.5z m-109.5 14.400000000000091c-19.5-0.5-35.700000000000045-17.40000000000009-35.10000000000002-36.700000000000045 0.6000000000000227-20.299999999999955 17.399999999999977-35.5 38.60000000000002-35 19.600000000000023 0.5 35.69999999999993 17.399999999999977 35.10000000000002 36.89999999999998-0.6000000000000227 20-17.600000000000023 35.30000000000007-38.60000000000002 34.80000000000007z m122.19999999999993-236.00000000000006c-7.099999999999909-11-16.09999999999991-15.800000000000011-29.699999999999932-15.5-29 0.6000000000000227-58.10000000000002 0-86.80000000000007-0.30000000000001137-3.8999999999999773 0-10 1.6000000000000227-10.599999999999909-4.199999999999989 0-2.599999999999966 1-3.8999999999999773 2.599999999999909-4.5h68.70000000000005c3.5 0 6.5-2.8999999999999773 6.5-6.5v-13.199999999999989c0-3.5-2.8999999999999773-6.5-6.5-6.5h-15.200000000000045c-3.5 0-6.5-2.8999999999999773-6.5-6.5v-72c0-3.5-2.8999999999999773-6.5-6.5-6.5h-31.899999999999977c-3.5 0-6.5 2.8999999999999773-6.5 6.5v52.60000000000002c0 3.5-2.8999999999999773 6.5-6.5 6.5h-35.799999999999955c-0.6000000000000227-1.6000000000000227-1.6000000000000227-2.900000000000034-1.8999999999999773-4.2000000000000455l-40.700000000000045-157.79999999999998c-1.3000000000000114-5.199999999999989-6.800000000000011-9.400000000000006-12.300000000000011-9.400000000000006h-245.29999999999998c-5.200000000000017 0-11 4.200000000000017-12.900000000000006 9.400000000000006l-62.30000000000001 188.4-1 2.6000000000000227c-0.29999999999998295 1.2999999999999545 1.6000000000000227 4.199999999999989 4.800000000000011 3.8999999999999773 1.9000000000000057 0 3.9000000000000057-0.6000000000000227 5.800000000000011-1 29.69999999999999-6.800000000000011 60-8.100000000000023 89.09999999999997-0.30000000000001137 85.30000000000001 22.400000000000034 142.70000000000005 72.40000000000003 155.3 162.90000000000003v22.899999999999977h28.600000000000023v47.799999999999955h14.199999999999989v-1.2999999999999545c-1.6000000000000227-7.7000000000000455-2.6000000000000227-15.5-2.6000000000000227-23.200000000000045 0-63.19999999999993 53.900000000000034-114.5 120.39999999999998-114.5 5.5 0 11.300000000000068 0.3000000000000682 16.5 1.3000000000000682 2.6000000000000227 0 5.2000000000000455 0.6000000000000227 7.7000000000000455 1 7.7000000000000455 1 15.200000000000045 2.8999999999999773 22.299999999999955 6.7999999999999545 1 0 1.6000000000000227 0.3000000000000682 2.300000000000068 1 7.100000000000023 2.8999999999999773 13.899999999999977 6.5 20.299999999999955 11 4.5-7.100000000000023 1.3000000000000682-16.100000000000023 1.8999999999999773-23.899999999999977 0.3000000000000682-5.7999999999999545-4.5-5.7999999999999545-8.699999999999932-5.7999999999999545l-55.80000000000007-0.3000000000000682c-3.199999999999932 0-8.399999999999977 1.3000000000000682-8.699999999999932-4.199999999999989-0.6000000000000227-6.800000000000011 5.5-4.800000000000011 9-5.199999999999989 19.699999999999932 0 39.39999999999998 1.3000000000000114 59-0.30000000000001137 14.799999999999955-1.3000000000000114 21.600000000000023 5.800000000000011 30.299999999999955 17.099999999999966 24.5 32.60000000000002 33.200000000000045 67.80000000000007 30.700000000000045 108.10000000000002-3.2000000000000455 40.30000000000007-0.6000000000000227 40 39.69999999999993 40 9.700000000000045-0.2999999999999545 13.600000000000023-2.2999999999999545 13.200000000000045-13.199999999999932-0.6000000000000227-29.700000000000045-0.2999999999999545-59.700000000000045 0-89.70000000000005 0-8.100000000000023-2.2999999999999545-15.200000000000045-6.5-21.899999999999977-16.100000000000023-25.899999999999977-32.200000000000045-51.80000000000001-47.700000000000045-77.90000000000003z m-348.79999999999995-139.39999999999998l-1 52.599999999999966c0 11.600000000000023-4.800000000000011 17.100000000000023-16.80000000000001 17.400000000000034-35.19999999999999 0.30000000000001137-70 1.599999999999966-105.19999999999999 1.599999999999966-17.400000000000006 0-20.30000000000001-4.7999999999999545-14.800000000000011-21 12.600000000000023-35.19999999999999 25.80000000000001-69.69999999999999 37.80000000000001-104.89999999999998 4.199999999999989-12.600000000000023 12.600000000000023-17.69999999999999 25.5-17.400000000000006l54.19999999999999 0.30000000000001137c15.800000000000011 0 20.30000000000001 5.200000000000017 20.30000000000001 19.99999999999997-0.30000000000001137 17.200000000000045 0 34.30000000000001 0 51.400000000000034z m124.5 70.09999999999997c-14.199999999999989-0.2999999999999545-28.100000000000023 0-41.89999999999998 0h-41.900000000000034c-10.300000000000011 0-17.099999999999966-3.5-16.80000000000001-15.5 1.6000000000000227-36.799999999999955-2.599999999999966-73.89999999999998 0-111.29999999999995 0.6000000000000227-11 4.800000000000011-15.500000000000028 16.100000000000023-14.800000000000011 17.399999999999977 0.5999999999999943 35.19999999999999 0.29999999999998295 52.30000000000001 0 12.300000000000011-0.30000000000001137 18.69999999999999 5.5 21.30000000000001 16.5 8.399999999999977 35.5 16.5 71.30000000000001 25.19999999999999 106.80000000000001 2.8000000000000114 12.399999999999977-0.4000000000000341 18.899999999999977-14.300000000000011 18.299999999999955z"/>
</svg>
