<svg xmlns="http://www.w3.org/2000/svg" viewBox="0 0 1000 1000" width="1000" height="1000">
<path d="M639.1 468.8c1.6000000000000227 4.5 2 9.899999999999977 9.5 9.699999999999989 53.89999999999998-1.1000000000000227 107.79999999999995-1.8000000000000114 161.79999999999995-2.6000000000000227 4.7000000000000455-0.0999999999999659 6.899999999999977-1.6999999999999886 6.7000000000000455-6.699999999999989-1.1000000000000227-23.69999999999999 0.6000000000000227-47.69999999999999-5.399999999999977-70.89999999999998-14.5-55.30000000000001-30.300000000000068-110.30000000000001-44.30000000000007-165.70000000000002-3.199999999999932-12.799999999999983-8.600000000000023-15.400000000000006-20.600000000000023-14.799999999999983-63.59999999999991 3.1999999999999886-127.19999999999993 5.399999999999977-190.89999999999998 8.099999999999994v0.09999999999999432c-66.59999999999997 2.5999999999999943-133.2 5.300000000000011-199.89999999999998 8-3.8000000000000114 0.19999999999998863-7.600000000000023 1.0999999999999943-11.199999999999989 1.9000000000000057-6 1.5-9.5 5.5-10.600000000000023 11.5-1.099999999999966 6.599999999999994 1.3000000000000114 11.999999999999972 6.699999999999989 15.299999999999983 4.2000000000000455 2.6000000000000227 9.300000000000011 4.199999999999989 14.200000000000045 5.300000000000011 67.79999999999995 15 135.59999999999997 30.30000000000001 203.60000000000002 44.30000000000001 19.299999999999955 3.8999999999999773 30.59999999999991 13.300000000000011 36.799999999999955 31.899999999999977 13.899999999999977 41.69999999999999 28.899999999999977 83.10000000000002 43.60000000000002 124.60000000000002z m182.60000000000002 440.7l-2.400000000000091-378.5c0-6.7000000000000455-1.599999999999909-9.799999999999955-9.099999999999909-10-51.80000000000007-1.1000000000000227-103.60000000000002-2.5-155.4000000000001-4.2000000000000455-6.899999999999977-0.2999999999999545-10 2-10.899999999999977 8.900000000000091-3.199999999999932 25.199999999999932-6.7999999999999545 50.39999999999998-10.399999999999977 75.59999999999991-10.600000000000023 74.70000000000005-21.299999999999955 149.5-31.899999999999977 224.30000000000007-4 28.5-8 57.10000000000002-11.800000000000068 85.79999999999995-0.39999999999997726 2.5-3.199999999999932 6.100000000000023 1.400000000000091 7.5 3.599999999999909 1.1000000000000227 6.699999999999932-0.1999999999999318 8.699999999999932-3.699999999999932l3.7000000000000455-6.7000000000000455c16.699999999999932-29.5 33.5-59 50.299999999999955-88.60000000000002 23.899999999999977-42 47.700000000000045-84 72.80000000000007-128.29999999999995 2.699999999999932 7.100000000000023 4.599999999999909 11.699999999999932 6.399999999999977 16.5 24.899999999999977 67.19999999999993 49.60000000000002 134.39999999999998 74.60000000000002 201.5 1.6999999999999318 4.399999999999977 2.099999999999909 10.5 9.599999999999909 9.5 7-0.6000000000000227 4.400000000000091-6.100000000000023 4.400000000000091-9.600000000000023z m-111.80000000000007-724.9c33.200000000000045-0.10000000000002274 60.80000000000007-27.700000000000017 61.10000000000002-60.70000000000002 0.2999999999999545-33.900000000000006-27.200000000000045-61.400000000000006-61.299999999999955-61.400000000000006-33.40000000000009 0-60.60000000000002 27-60.90000000000009 60.400000000000006-0.2999999999999545 33.69999999999999 27.600000000000023 61.900000000000006 61.10000000000002 61.69999999999999z m-452.29999999999995 338.79999999999995c22.799999999999955 32.5 13.199999999999989 29.700000000000045 50.099999999999966 14.100000000000023 30.900000000000034-13 53.5-36.80000000000001 74.19999999999999-62.60000000000002 12.400000000000034-15.399999999999977 22.700000000000045-33.19999999999999 41.700000000000045-42.099999999999966 4.5-2.1000000000000227 3.2999999999999545-5.600000000000023 2.8999999999999773-8.699999999999989-3.6999999999999886-22.5-10.699999999999989-43.700000000000045-25.30000000000001-61.60000000000002-14.599999999999966-17.899999999999977-21.899999999999977-18.899999999999977-41.19999999999999-6.300000000000011-20.80000000000001 13.600000000000023-34.10000000000002 34-48.69999999999999 53.19999999999999-16.5 21.5-36.60000000000002 37.80000000000001-62.70000000000002 45.5-7.5 2.2000000000000455-10.699999999999989 6.2000000000000455-9.5 13 0.5 21 7.099999999999994 39.30000000000001 18.50000000000003 55.5z m6.2999999999999545-54.799999999999955c28.900000000000034-10.200000000000045 49.30000000000001-30.600000000000023 66.80000000000001-54.700000000000045 11.5-15.799999999999955 23.400000000000034-31.19999999999999 39.400000000000034-42.89999999999998 7.099999999999966-5.199999999999989 12.199999999999989-4.5 16.69999999999999 2.6000000000000227 4.099999999999966 6.399999999999977 8.699999999999989 12.699999999999989 11.899999999999977 19.5 10.300000000000011 21.5 9.5 23.099999999999966-6.300000000000011 40.69999999999999-13.799999999999955 15.5-26.399999999999977 32.099999999999966-40.099999999999966 47.69999999999999-16.69999999999999 19-36.5 34.10000000000002-60.30000000000001 43.5-3.3999999999999773 1.3999999999999773-7.399999999999977 4.399999999999977-10.399999999999977 0.5-11.400000000000034-14.399999999999977-20.400000000000034-30.100000000000023-24.200000000000045-51.80000000000001-0.6999999999999886-1.8999999999999773 2.7000000000000455-3.8000000000000114 6.5-5.099999999999966z m211.10000000000002 109.69999999999993c-47.19999999999999 0.3000000000000682-94.30000000000001 0.10000000000002274-141.5 0.10000000000002274-48 0-96 0.20000000000004547-144-0.10000000000002274-8.699999999999989-0.09999999999990905-13.599999999999994 0.40000000000009095-10.599999999999994 11.600000000000023 3.0999999999999943 11.399999999999977 3.9000000000000057 23.399999999999977 5.900000000000006 35.10000000000002 16.69999999999999 100.39999999999998 33.69999999999999 200.70000000000005 50 301.1 1.5999999999999943 9.5 4.699999999999989 11.399999999999977 13.599999999999994 11.299999999999955 55.20000000000002-0.39999999999997726 110.4-0.6000000000000227 165.70000000000002 0.10000000000002274 11.699999999999989 0.20000000000004547 15.799999999999955-3.2000000000000455 17.599999999999966-14.5 17.80000000000001-111 35.80000000000001-221.79999999999995 54.60000000000002-332.6 1.8999999999999773-12.199999999999932-2.5-12.100000000000023-11.300000000000011-12.100000000000023z m-239.9 225.80000000000007h-4.5c-1.6999999999999886-9.5-3.5-19.200000000000045-5.099999999999994-28.800000000000068-0.09999999999999432-0.6999999999999318-0.19999999999998863-1.3999999999999773-0.09999999999999432-2.099999999999909h9.699999999999989v30.899999999999977z m0-57.10000000000002h-14.5c-1.1999999999999886-9.200000000000045-2.5999999999999943-18.299999999999955-4.5-27.399999999999977-0.29999999999998295-1.3000000000000682-0.4000000000000057-2.5-0.29999999999998295-3.3999999999999773h19.299999999999983v30.799999999999955z m0-56.89999999999998h-24.299999999999983c-0.4000000000000057-1.3999999999999773-0.5-3-0.5-5 0-3-0.6000000000000227-5.899999999999977-1.1000000000000227-8.800000000000068-1.5999999999999943-8.099999999999909-2.5-13-1.6999999999999886-15.799999999999955h27.69999999999999l-0.09999999999999432 29.600000000000023z m0-60.30000000000007c-0.29999999999998295 1.8000000000000682-0.5999999999999943 3.2000000000000455-1.0999999999999943 4.600000000000023h-31.69999999999999c0-0.10000000000002274 0-0.2999999999999545-0.10000000000002274-0.39999999999997726-0.8999999999999773-11.600000000000023-6.299999999999983-22.899999999999977-4.5-34.799999999999955h37.30000000000001v30.59999999999991z m44.00000000000003 283.30000000000007h-25.50000000000003v-26h25.50000000000003v26z m0-53.10000000000002c-0.10000000000002274 0.39999999999997726-0.30000000000001137 0.7000000000000455-0.4000000000000341 1h-25.099999999999994v-30.899999999999977h25.50000000000003v29.899999999999977z m0-55.89999999999998h-25.50000000000003v-30.100000000000023l0.4000000000000057-0.7999999999999545h25.100000000000023v30.899999999999977z m0-57.10000000000002h-25.50000000000003v-30.799999999999955h25.50000000000003v30.799999999999955z m0-57.200000000000045l-0.10000000000002274 0.3000000000000682h-25.400000000000006v-29.600000000000023h25.50000000000003v29.299999999999955z m0-55.39999999999998h-25.50000000000003v-35.19999999999993h25.50000000000003v35.19999999999993z m44 278.70000000000005h-25.5v-26h25.599999999999966l-0.0999999999999659 26z m0-52.5l-0.20000000000004547 0.39999999999997726h-25.399999999999977v-30.899999999999977h25.600000000000023v30.5z m0-56.5h-25.5v-30.899999999999977h25.599999999999966l-0.0999999999999659 30.899999999999977z m0-57.10000000000002h-25.5v-30.799999999999955h25.599999999999966l-0.0999999999999659 30.799999999999955z m0-56.89999999999998h-25.5v-29.600000000000023h25.599999999999966l-0.0999999999999659 29.600000000000023z m0-55.89999999999998l-25.600000000000023 0.09999999999990905v-32.799999999999955c0.30000000000001137-0.8999999999999773 0.6000000000000227-1.7000000000000455 1-2.3999999999999773h24.600000000000023v35.10000000000002z m44.599999999999966 278.9h-26.19999999999999v-26h25.600000000000023l0.5 1.2999999999999545v24.700000000000045z m0-54.700000000000045c-0.30000000000001137 0.8999999999999773-0.5999999999999659 1.8000000000000682-1.099999999999966 2.6000000000000227h-25.100000000000023v-30.899999999999977h25.69999999999999c0.19999999999998863 0.39999999999997726 0.30000000000001137 0.7999999999999545 0.4000000000000341 1.2999999999999545v27h0.0999999999999659z m0-54.69999999999993l-0.0999999999999659 0.2999999999999545h-26.100000000000023v-30.899999999999977h26.19999999999999v30.600000000000023z m0-56.700000000000045h-26.19999999999999v-30.799999999999955h26.19999999999999v30.799999999999955z m0-58.299999999999955l-0.39999999999997726 1.2999999999999545h-25.69999999999999v-29.600000000000023h25.69999999999999c0.19999999999998863 0.39999999999997726 0.39999999999997726 0.8999999999999773 0.39999999999997726 1.3999999999999773v26.90000000000009z m0-54.30000000000007h-26.19999999999999v-35.19999999999993h26.19999999999999v35.19999999999993z m44 278.70000000000005h-25.5v-20.700000000000045c0.6000000000000227-2.1000000000000227 1.5-3.7999999999999545 2.6000000000000227-5.2999999999999545h22.899999999999977v26z m0-52.10000000000002h-25.5v-30.700000000000045l0.10000000000002274-0.09999999999990905h25.5l-0.10000000000002274 30.799999999999955z m0-56.89999999999998h-25.5v-27.399999999999977c0.4000000000000341-1.3000000000000682 0.6999999999999886-2.5 1.1000000000000227-3.400000000000091h24.30000000000001l0.0999999999999659 30.800000000000068z m0-57.10000000000002h-25.5v-30.799999999999955h25.5v30.799999999999955z m0-56.89999999999998h-25.5v-29.600000000000023h25.5v29.600000000000023z m0-55.700000000000045h-25.5v-35.19999999999993h25.5v35.19999999999993z m27.80000000000001 142c-1.5 9.200000000000045-3.1999999999999886 18.5-4.699999999999989 27.600000000000023h-4.600000000000023v-30.899999999999977h9.5c0.19999999999998863 1.1000000000000227 0 2.199999999999932-0.19999999999998863 3.2999999999999545z m8.699999999999989-52.19999999999993c-0.8000000000000114 6.699999999999932-2.599999999999966 13.299999999999955-3.1999999999999886 20-0.10000000000002274 1.099999999999909-0.19999999999998863 1.8999999999999773-0.39999999999997726 2.7999999999999545h-14.5v-30.899999999999977h19.899999999999977c0.10000000000002274 2.6000000000000227-1.5 5.600000000000023-1.8000000000000114 8.100000000000023z m10-61.80000000000007c-1.3000000000000114 7.899999999999977-2.3000000000000114 15.800000000000068-3.599999999999966 23.800000000000068-0.30000000000001137 1.3999999999999773-0.7000000000000455 2.699999999999932-1.3000000000000114 3.8999999999999773h-23.100000000000023v-24.600000000000023c0.4000000000000341-1.8999999999999773 1-3.7000000000000455 1.8000000000000114-5.100000000000023h26.399999999999977c0 0.7000000000000455-0.0999999999999659 1.3000000000000682-0.19999999999998863 2z m8.600000000000023-49.39999999999998c-0.6000000000000227 3.2999999999999545-1.1999999999999886 6.7000000000000455-1.8000000000000114 10.100000000000023-0.8000000000000114 5.2999999999999545-1.3000000000000114 8.899999999999977-2.1999999999999886 11.5h-32.69999999999999v-32.60000000000002c0.2999999999999545-1 0.5-1.7999999999999545 0.8999999999999773-2.5h37.30000000000001c0.5999999999999659 2.3999999999999773-0.19999999999998863 6.600000000000023-1.5 13.5z"/>
</svg>
