<svg xmlns="http://www.w3.org/2000/svg" viewBox="0 0 1000 1000" width="1000" height="1000">
<path d="M785.1 470.5h-132c-5.899999999999977 0-11.800000000000068 0.19999999999998863-17.700000000000045 0.5-1.8999999999999773 0.10000000000002274-2.5-0.39999999999997726-2.6000000000000227-2.3999999999999773-2-49.200000000000045-23.799999999999955-87-65.79999999999995-112.80000000000001-2-1.1999999999999886-1.6000000000000227-2.1000000000000227-0.6000000000000227-3.6000000000000227 24.899999999999977-42 49.80000000000007-84 74.5-126.19999999999999 25.5-43.80000000000001 50.700000000000045-87.69999999999999 76.10000000000002-131.6 1.8999999999999773-3.4000000000000057 1.2999999999999545-3.1000000000000085 4.5-1.3000000000000114 37.10000000000002 21.80000000000001 70.39999999999998 48.400000000000006 99.5 80.1 47.299999999999955 51.30000000000001 80.5 110.5 99.79999999999995 177.5 5.5 19.30000000000001 9.600000000000023 38.80000000000001 12.400000000000091 58.60000000000002 2.699999999999932 19.399999999999977 4.099999999999909 38.80000000000001 4.2999999999999545 58.39999999999998 0 2.6000000000000227-0.7000000000000455 3.1999999999999886-3.2000000000000455 3.1999999999999886-49.69999999999993-0.0999999999999659-99.39999999999998-0.0999999999999659-149.19999999999993-0.0999999999999659v-0.30000000000001137z m-570.2 0.39999999999997726c-49.89999999999998 0-99.79999999999998 0-149.7 0.10000000000002274-2.29999999999999 0-2.79999999999999-0.6999999999999886-2.6999999999999886-2.8999999999999773 1.1000000000000014-94.60000000000002 29.299999999999997-180.20000000000005 84.9-256.70000000000005 35.099999999999994-48.29999999999998 78.69999999999999-87.29999999999998 130.1-117.79999999999998 2-1.1999999999999886 2.8999999999999773-1.0999999999999943 4.100000000000023 1 50.5 85.80000000000001 101.09999999999997 171.50000000000003 151.7 257.1 1.3000000000000114 2.099999999999966 1.099999999999966 2.999999999999943-1.1000000000000227 4.2999999999999545-33.69999999999999 20.5-54.5 50.10000000000002-62.69999999999999 88.69999999999999-1.6000000000000227 7.699999999999989-2.5 15.600000000000023-2.5 23.5 0 2.1999999999999886-0.6999999999999886 2.8000000000000114-2.8000000000000114 2.6999999999999886-28.399999999999977-0.7999999999999545-56.80000000000001-0.5999999999999659-85.30000000000001-0.5999999999999659h-64.19999999999999l0.20000000000001705 0.5999999999999659z m287.1 436.9c-21.69999999999999 0-41.39999999999998-1.2999999999999545-60.89999999999998-4-55.80000000000001-7.699999999999932-108.30000000000001-25.399999999999977-157.3-53.19999999999993-2.1000000000000227-1.2000000000000455-2.5-2-1.1000000000000227-4.300000000000068l146.7-253.69999999999993c1.400000000000034-2.3999999999999773 2-6.2000000000000455 4.300000000000011-6.7000000000000455 2-0.5 4.699999999999989 2.1000000000000227 7.100000000000023 3.300000000000068 15.599999999999966 7.699999999999932 32 12.299999999999955 49.30000000000001 13.5 26.399999999999977 1.8999999999999773 51.19999999999993-3.5 74.39999999999998-16.200000000000045 1.3999999999999773-0.7999999999999545 2.2999999999999545-1.2000000000000455 3.3999999999999773 0.7000000000000455 38.10000000000002 66.19999999999993 76.30000000000007 132.29999999999995 114.5 198.39999999999998 11.800000000000068 20.399999999999977 23.5 40.69999999999993 35.39999999999998 61 1.400000000000091 2.3999999999999773 0.3000000000000682 3-1.3999999999999773 4-27.5 15.600000000000023-56.39999999999998 28.100000000000023-86.60000000000002 37.5-21.699999999999932 6.699999999999932-43.799999999999955 11.799999999999955-66.29999999999995 15-13.100000000000023 1.8999999999999773-26.299999999999955 3.199999999999932-39.60000000000002 3.8999999999999773-8.100000000000023 0.6000000000000227-16 0.5-21.899999999999977 0.7999999999999545z m85.20000000000005-437.49999999999994c-0.5 48.599999999999966-39.10000000000002 87.09999999999997-87.20000000000005 87.09999999999997-48.19999999999999 0-87.10000000000002-38.5-87.10000000000002-87.09999999999997 0-48.10000000000002 38.400000000000034-87.10000000000002 87.10000000000002-87.10000000000002 48.60000000000002 0.10000000000002274 86.70000000000005 38.900000000000034 87.20000000000005 87.10000000000002z"/>
</svg>
