<svg xmlns="http://www.w3.org/2000/svg" viewBox="0 0 1000 1000" width="1000" height="1000">
<path d="M688.2 325.9c-4.600000000000023-19.799999999999955-20.90000000000009-28.099999999999966-46.90000000000009-22.69999999999999-79.69999999999993 16.600000000000023-159.29999999999995 33.80000000000001-238.99999999999994 50.69999999999999-22.30000000000001 4.7000000000000455-44.900000000000034 8.700000000000045-67 14.300000000000011-18.100000000000023 4.600000000000023-27.400000000000034 19.19999999999999-24.19999999999999 36.19999999999999 3.1999999999999886 16.900000000000034 14.399999999999977 25.900000000000034 31.5 25.100000000000023 9-0.39999999999997726 14.299999999999955 2.1000000000000227 16.399999999999977 10.600000000000023 2 8.299999999999955 9.199999999999989 17.19999999999999-3.6999999999999886 23.69999999999999-4.400000000000034 2.1999999999999886-6.900000000000034 7.399999999999977-6.600000000000023 12.599999999999966 0.5 9.200000000000045-2.8000000000000114 12.800000000000011-12.599999999999966 13.300000000000011-12.200000000000045 0.6000000000000227-18.900000000000034 9.300000000000011-19.600000000000023 20.900000000000034-4.199999999999989 69 5.300000000000011 133.29999999999995 59.89999999999998 183.39999999999998 17.900000000000034 16.5 32.60000000000002 35.700000000000045 39 59.89999999999998 3 10.899999999999977 9.5 14.399999999999977 20.400000000000034 14.300000000000068 41.39999999999998-0.40000000000009095 82.90000000000003-0.40000000000009095 124.40000000000003 0 10.799999999999955 0.09999999999990905 16.899999999999977-3.2000000000000455 20-14.400000000000091 5.399999999999977-19.299999999999955 15.799999999999955-37 30.699999999999932-50.09999999999991 58.60000000000002-51.30000000000007 73.60000000000002-117.5 68.39999999999998-191.30000000000007-0.6999999999999318-9.399999999999977-3.199999999999932-19.19999999999999-12.299999999999955-20.599999999999966-13.600000000000023-2.1000000000000227-15-12.600000000000023-21.899999999999977-20.600000000000023-17.899999999999977-20.69999999999999-7.600000000000023-36 3.7999999999999545-52.39999999999998 3.1000000000000227-4.400000000000034 5.5-8.100000000000023 7.399999999999977-11.400000000000034 17.5-27.799999999999955 22.600000000000023-53.69999999999999 22.600000000000023-53.69999999999999 8.5-7.099999999999966 11.899999999999977-16.599999999999966 9.300000000000068-27.80000000000001z m-230.70000000000005 163.20000000000005c-8.600000000000023 0.0999999999999659-14.300000000000011-1.2000000000000455-14.399999999999977-11.600000000000023 0-4.699999999999989-1.6000000000000227-11.199999999999989-6.300000000000011-12.800000000000011-16.30000000000001-5.5-14.300000000000011-20.19999999999999-18.80000000000001-32.30000000000001-5.300000000000011-13.899999999999977-0.8000000000000114-17.799999999999955 12.300000000000011-20.399999999999977 57.19999999999999-11.5 114.30000000000001-23.600000000000023 176.2-36.60000000000002-17.899999999999977 25.200000000000045-30.100000000000023 47.900000000000034-31.899999999999977 74.5-0.39999999999997726 6-3.8999999999999773 8.100000000000023-9 9.900000000000034-8.200000000000045 3-13.200000000000045 9.399999999999977-12.600000000000023 18.5 0.7000000000000455 9.5-4.100000000000023 11-12.299999999999955 10.899999999999977-27.600000000000023-0.30000000000001137-55.30000000000007-0.39999999999997726-83.20000000000005-0.0999999999999659z m187.79999999999995 43.799999999999955c1.2000000000000455 7.899999999999977 0.3000000000000682 16 0.3000000000000682 24.100000000000023 1.1000000000000227 49.89999999999998-13.899999999999977 93.20000000000005-51.60000000000002 127.70000000000005-13.299999999999955 12.299999999999955-22.799999999999955 27.399999999999977-29.100000000000023 44.5-3.8999999999999773 10.699999999999932-23.199999999999932 17.5-33.299999999999955 12.299999999999955-5.399999999999977-2.7000000000000455-2.1000000000000227-6.2999999999999545-1.2000000000000455-9.200000000000045 4.600000000000023-15.099999999999909 12.5-28.799999999999955 24.200000000000045-38.89999999999998 49.299999999999955-42.69999999999993 63.19999999999993-97.79999999999995 59.299999999999955-160.19999999999993-0.39999999999997726-5.300000000000068-10-16.90000000000009 5.7000000000000455-18.100000000000023 13.100000000000023-0.8999999999999773 23.5 3.2999999999999545 25.699999999999932 17.799999999999955z m3.400000000000091-323.5c-74.90000000000009 15.600000000000023-149.80000000000007 31.30000000000001-224.60000000000002 47-29 6-58 11.800000000000011-86.80000000000001 18.600000000000023-19 4.399999999999977-27.900000000000034 17.19999999999999-26.19999999999999 34.80000000000001 1.599999999999966 16.19999999999999 12.899999999999977 26.69999999999999 30.69999999999999 27.399999999999977 2.599999999999966-0.19999999999998863 6.399999999999977-0.0999999999999659 10-0.8999999999999773 103.80000000000001-21.900000000000034 207.59999999999997-43.60000000000002 311.3-65.90000000000003 19.299999999999955-4.199999999999989 28.600000000000023-19.799999999999983 24.699999999999932-37.099999999999966-4.2999999999999545-18.5-19.59999999999991-28-39.09999999999991-23.900000000000006z m-312.6-26.49999999999997c-19 4.599999999999994-27.30000000000001 17.799999999999983-25 35.400000000000006 2.099999999999966 15.799999999999983 14 26.099999999999994 32.599999999999966 26.299999999999983 3.6000000000000227-0.4000000000000057 9.199999999999989-0.9000000000000057 14.600000000000023-2 70-14.599999999999994 139.89999999999998-29.400000000000006 209.90000000000003-44.19999999999999 32.59999999999991-6.900000000000006 65.19999999999993-13.5 97.5-21.700000000000017 17.799999999999955-4.5 26-20.69999999999999 21.799999999999955-37.19999999999999-4.399999999999977-17.200000000000003-18-25.700000000000003-36.5-23.099999999999994-4.899999999999977 0.6999999999999886-9.799999999999955 1.5999999999999943-14.600000000000023 2.5-69.39999999999998 14.599999999999994-138.7 29.099999999999994-208 43.79999999999998-30.799999999999955 6.700000000000017-61.69999999999999 12.800000000000011-92.29999999999995 20.200000000000017z m151.7 681.2c1.8000000000000114-0.5 3.6999999999999886-0.39999999999997726 5.5-0.6000000000000227 26.30000000000001-3.6000000000000227 52.49999999999994-7.399999999999977 78.90000000000003-10.700000000000045 6.199999999999932-0.7999999999999545 12-2.599999999999909 11.699999999999932-9.199999999999932-0.39999999999997726-7.600000000000023-6.699999999999932-9.600000000000023-13.600000000000023-8.899999999999977-4.2999999999999545 0.39999999999997726-8.599999999999909 1.099999999999909-12.899999999999977 1.599999999999909-25.100000000000023 3.1000000000000227-50.19999999999999 6.2000000000000455-75.39999999999998 9-4.5 0.40000000000009095-11.600000000000023 2-12.100000000000023-4.699999999999932-0.39999999999997726-6.2000000000000455 6.400000000000034-6 11.300000000000011-6.600000000000023 28.80000000000001-3.7000000000000455 57.50000000000006-7.399999999999977 86.30000000000001-11.299999999999955 7.2999999999999545-1 16.899999999999977-1.2000000000000455 16.299999999999955-11.100000000000023-0.6999999999999318-11.5-10.899999999999977-7.7000000000000455-17.5-7-27.699999999999932 2.699999999999932-55.19999999999993 6-82.89999999999998 9.199999999999932-5.399999999999977 0.6000000000000227-13 3.400000000000091-14-3.8999999999999773-1.099999999999966-7.699999999999932 7.7000000000000455-6.2999999999999545 12.5-7.399999999999977 6-1.5 12.300000000000011-1.3999999999999773 18.400000000000034-2.2999999999999545 6.599999999999966-0.900000000000091 14.599999999999966-0.10000000000002274 14.099999999999966-10.400000000000091-0.5-9.799999999999955-8.299999999999955-7.199999999999932-13.899999999999977-7.399999999999977-10.5-0.2999999999999545-21-0.10000000000002274-31.5-0.10000000000002274-9.899999999999977 0-19.80000000000001-0.09999999999990905-29.69999999999999 0-15.300000000000011 0.3000000000000682-32 29.100000000000023-24.80000000000001 42.5 7.899999999999977 14.700000000000045 1.1000000000000227 30.800000000000068 2.5 46 1.6000000000000227 17 1.6000000000000227 45.700000000000045 17.19999999999999 48.700000000000045 20.69999999999999 3.8999999999999773 39.30000000000001 15.799999999999955 59 17.700000000000045 24.19999999999999 2.3999999999999773 45.80000000000001-16.5 71.00000000000006-19.100000000000023 8-0.8000000000000682 14.199999999999932-11.200000000000045 13.099999999999909-22.100000000000023-0.39999999999997726-3.6000000000000227 0.20000000000004547-7.5 1.5-10.899999999999977 6.900000000000091-18.200000000000045 6.600000000000023-19.399999999999977-12.799999999999955-17.800000000000068-25.799999999999955 2.300000000000068-51.60000000000002 5.600000000000023-77.39999999999998 8-6.600000000000023 0.6000000000000227-17.5 6.900000000000091-18.700000000000045-3.3999999999999773-1-7.699999999999932 11.300000000000011-5.699999999999932 17.900000000000034-7.7999999999999545z m-140.3-711.7c44-9.199999999999989 92.30000000000001-18.599999999999966 140.2-29.799999999999983 15.100000000000023-3.5 23-21 19.80000000000001-35.39999999999999-3.5-15.799999999999997-17.30000000000001-26.400000000000006-34.10000000000002-24.700000000000003-12.199999999999989 1.2999999999999972-24.19999999999999 4.400000000000006-36.19999999999999 6.799999999999997-33.19999999999999 6.700000000000003-66.39999999999998 12.900000000000006-99.5 20-19.69999999999999 4.299999999999997-29.099999999999966 18.10000000000001-26.599999999999966 36 2.1999999999999886 16.299999999999997 15.5 27.500000000000014 36.39999999999998 27.10000000000001z"/>
</svg>
