<svg xmlns="http://www.w3.org/2000/svg" viewBox="0 0 1000 1000" width="1000" height="1000">
<path d="M62.5 203.7c3.5999999999999943 0.6000000000000227 5.700000000000003-2.1999999999999886 8.200000000000003-3.799999999999983 39.39999999999999-25 78.8-50.099999999999994 117.89999999999999-75.5 5.5-3.5 8.200000000000017-3.200000000000003 11 2.5 1.3000000000000114 2.799999999999983 3.200000000000017 5.400000000000006 5.099999999999994 7.900000000000006 4.800000000000011 6.5 10.5 12.799999999999983-1.799999999999983 17.899999999999977-4.300000000000011 1.8000000000000114-1.0999999999999943 4.800000000000011 0.29999999999998295 7 7.100000000000023 11.300000000000011 14.200000000000017 22.600000000000023 21.600000000000023 33.70000000000002 2.6999999999999886 4.099999999999994 3.5 7.699999999999989 2.299999999999983 12.699999999999989-4.199999999999989 17.400000000000006-7.599999999999994 35-11.699999999999989 52.400000000000006-1 4-0.4000000000000057 7 1.5999999999999943 10.399999999999977 25.400000000000006 41.80000000000001 50.80000000000001 83.60000000000002 75.89999999999998 125.60000000000002 3 5.100000000000023 5.2000000000000455 5.100000000000023 9.700000000000045 2.1000000000000227 18.799999999999955-12.400000000000034 37.69999999999999-24.5 56.599999999999966-36.700000000000045 2.900000000000034-1.8999999999999773 5.400000000000034-4 8.300000000000011 0.6000000000000227 23.19999999999999 36.89999999999998 45.60000000000002 74.10000000000002 58.80000000000001 116.10000000000002 5.5 17.599999999999966 3.599999999999966 34.69999999999999-1.3000000000000114 52-5.800000000000011 20.299999999999955-13.300000000000011 39.89999999999998-22.5 58.89999999999998-2 4.100000000000023-4.300000000000011 5.899999999999977-9 6-25.69999999999999 0.5-51.10000000000002-1.1000000000000227-76.39999999999998-6.399999999999977-15.800000000000011-3.300000000000068-28.30000000000001-11.700000000000045-39.60000000000002-22.300000000000068-30.19999999999999-28.59999999999991-53.5-62.69999999999993-76.19999999999999-97.19999999999993-3.200000000000017-4.900000000000034-0.20000000000001705-6.300000000000011 3-8.300000000000011 19-12.100000000000023 37.69999999999999-24.400000000000034 56.89999999999998-36.19999999999999 5.300000000000011-3.2000000000000455 5.199999999999989-5.7000000000000455 2.1999999999999886-10.600000000000023-24.99999999999997-41-49.89999999999998-82.19999999999999-74.59999999999997-123.39999999999998-2.9000000000000057-4.800000000000011-6.200000000000017-7.5-11.700000000000017-8.600000000000023-16.400000000000006-3.3000000000000114-32.79999999999998-7-49.19999999999999-10.399999999999977-4.900000000000006-1-8.600000000000009-3-11.400000000000006-7.7000000000000455-6.5-10.999999999999972-13.900000000000006-21.399999999999977-20.5-32.39999999999998-2.9000000000000057-4.800000000000011-5.5-7.099999999999994-10.200000000000003-2.5999999999999943-4.799999999999997 4.5-7.700000000000003 3.0999999999999943-10.899999999999991-2.4000000000000057-3.6000000000000085-6.199999999999989-6.700000000000003-13-12.400000000000006-17.900000000000006v-3.4000000000000057z m141.7 1.9000000000000057c0.6000000000000227-2.1999999999999886-0.5-3.799999999999983-1.5999999999999943-5.5-6.199999999999989-9.799999999999983-12.599999999999994-19.599999999999994-18.69999999999999-29.5-2.200000000000017-3.5-4.200000000000017-3.5999999999999943-7.5-1.4000000000000057-20.30000000000001 13.100000000000023-40.599999999999994 26.200000000000017-61 39-3.8000000000000114 2.4000000000000057-4.1000000000000085 4.400000000000006-1.7000000000000028 8 6.099999999999994 9.200000000000017 12 18.600000000000023 17.799999999999997 28 1.8000000000000114 2.9000000000000057 4.099999999999994 4.600000000000023 7.300000000000011 5.300000000000011l48.29999999999998 10.399999999999977c2.5 0.5 5 1.1000000000000227 5.800000000000011-2.7999999999999545 3.5999999999999943-17.100000000000023 7.5-34.30000000000001 11.299999999999983-51.50000000000003z m733.3 654.3c-7.2999999999999545 0-13.799999999999955 3.2000000000000455-20.299999999999955 5.600000000000023-11.700000000000045 4.399999999999977-20.90000000000009-0.7999999999999545-30.40000000000009-6.100000000000023-2.2999999999999545-1.2999999999999545-2.7999999999999545-3.5-2.099999999999909-5.899999999999977 2.099999999999909-7.7000000000000455 4.2999999999999545-15.299999999999955 6.2999999999999545-23 0.6000000000000227-2.2000000000000455 2.2000000000000455-3.2000000000000455 4.100000000000023-3.8999999999999773 8.899999999999977-2.8999999999999773 18.799999999999955-9.700000000000045 26.5-7.7000000000000455 7.7999999999999545 2 6.600000000000023 15.399999999999977 10.399999999999977 23.5 2.2000000000000455 4.600000000000023 2.3999999999999773 9.899999999999977 5.5 14.100000000000023v3.3999999999999773z m-120.70000000000005 18.399999999999977h-101.79999999999995l-528.9 0.10000000000002274c-10.400000000000034 0-10.500000000000028 0-9.000000000000028-10.399999999999977 1.5999999999999943-11.299999999999955 3.700000000000017-22.399999999999977 5-33.799999999999955 0.5999999999999943-4.800000000000068 3.4000000000000057-6.7000000000000455 7-8.700000000000045 19.200000000000017-10.5 38.30000000000001-21.399999999999977 57.599999999999994-31.700000000000045 5.100000000000023-2.7999999999999545 7.300000000000011-5.199999999999932 6.200000000000017-11.699999999999932-3.5-21.899999999999977-6-44-9.099999999999994-66-1-6.7000000000000455-0.30000000000001137-9.899999999999977 8.099999999999994-10.399999999999977 25.49999999999997-1.5 50.99999999999997-4.400000000000091 76.6-6.400000000000091 6-0.39999999999997726 8.600000000000023-2.599999999999909 9-8.599999999999909 0.8000000000000114-9.900000000000091 2.3000000000000114-19.800000000000068 3.1999999999999886-29.700000000000045 0.30000000000001137-4 1.5-5.899999999999977 6-6.2000000000000455 31.80000000000001-2.599999999999909 63.5-5.7999999999999545 95.30000000000001-8 7-0.5 8.199999999999989-3.099999999999909 8.699999999999989-9.199999999999932 1.400000000000034-21.899999999999977 3.1999999999999886-43.700000000000045 5.100000000000023-65.5 0.6999999999999886-8.200000000000045 8.300000000000011-12.600000000000023 11.899999999999977-19.200000000000045 4.300000000000011-8 10.100000000000023-10.100000000000023 18.80000000000001-7.100000000000023 6.899999999999977 2.400000000000091 14.300000000000011 4.2000000000000455 21.600000000000023 4.800000000000068 8.799999999999955 0.6000000000000227 11.299999999999955 5.199999999999932 11.799999999999955 12.899999999999977 0.39999999999997726 7.7000000000000455 1.7000000000000455 15.299999999999955 2.2000000000000455 22.899999999999977 0.2999999999999545 5.7000000000000455 2.5 7.899999999999977 8.5 7.399999999999977l53.69999999999993-3.699999999999932c6.5-0.6000000000000227 8.900000000000091 1.2999999999999545 9.200000000000045 8 0.8999999999999773 20.799999999999955 2.5 41.5 3.3999999999999773 62.19999999999993 0.20000000000004547 5.600000000000023 1.8000000000000682 8.400000000000091 7.300000000000068 10.400000000000091 21.59999999999991 8 42.89999999999998 16.899999999999977 64.39999999999998 24.899999999999977 5.5 2 7.199999999999932 4.7999999999999545 7.399999999999977 10.5 0.7000000000000455 15.899999999999977 2.3999999999999773 31.799999999999955 3.2000000000000455 47.69999999999993 0.2999999999999545 7 4.2999999999999545 9 10 8.600000000000023 8.199999999999932-0.6000000000000227 16.399999999999977-2.1000000000000227 24.59999999999991-2.8999999999999773 10.400000000000091-1 11.600000000000023 0.10000000000002274 11.900000000000091 10 0.39999999999997726 10.200000000000045 5.699999999999932 17.700000000000045 13.799999999999955 23.299999999999955 8.100000000000023 5.600000000000023 17.299999999999955 8.600000000000023 26.700000000000045 10.700000000000045 3.099999999999909 0.7000000000000455 6.399999999999977 0.8999999999999773 7 4.899999999999977 3.599999999999909 27.300000000000068 22.799999999999955 45 39.5 64.20000000000005 1.1999999999999318 1.3999999999999773 2 2.7999999999999545 4.099999999999909 5.699999999999932z m26.90000000000009-199.79999999999995c20.899999999999977-0.20000000000004547 35.299999999999955 9.899999999999977 46.09999999999991 25.899999999999977 10.600000000000023 15.700000000000045 17.100000000000023 33.30000000000007 23.100000000000023 51.10000000000002 2 6 0.8000000000000682 11.799999999999955-2.5 17.200000000000045-6.899999999999977 11.399999999999977-16.799999999999955 19.199999999999932-29.199999999999932 23.699999999999932-13.900000000000091 5-28 9.399999999999977-42 14.200000000000045-2.400000000000091 0.7999999999999545-4.5 2-6.800000000000068-0.8000000000000682-11-13.199999999999932-24.799999999999955-23.399999999999977-37.69999999999993-34.5-8-6.899999999999977-10.300000000000068-14.599999999999909-8.700000000000045-24.09999999999991 4.2000000000000455-24.100000000000023 14.700000000000045-45.30000000000007 30.799999999999955-63.60000000000002 7.400000000000091-8.399999999999977 17.800000000000068-8 26.90000000000009-9.100000000000023z m-31.200000000000045-104.29999999999995c-0.10000000000002274 8.699999999999932-1.2999999999999545 15.399999999999977-3.5 21.899999999999977-2.3999999999999773 7-6.5 12.399999999999977-14 14.899999999999977-4.7999999999999545 1.6000000000000227-9.399999999999977 3.8999999999999773-14.100000000000023 6-20.199999999999932 9.200000000000045-28.899999999999977 2.6000000000000227-37.5-14.799999999999955-8.399999999999977-17-8.199999999999932-35.80000000000007-2.5-54.10000000000002 4.2000000000000455-13.200000000000045 10-15.5 22.700000000000045-11.300000000000068 10.600000000000023 3.5 20.899999999999977 8.600000000000023 32.89999999999998 6.800000000000068 5.100000000000023-0.8000000000000682 8.200000000000045 3.5 10.200000000000045 7.699999999999932 3.8999999999999773 7.800000000000068 5.5 16.100000000000023 5.7999999999999545 22.90000000000009z m-147.20000000000005-87.20000000000005c5.300000000000068-0.10000000000002274 11.400000000000091 2 16.800000000000068 6 6.699999999999932 4.899999999999977 10.699999999999932 11 8.699999999999932 19.700000000000045-2.5 10.399999999999977-10 18.09999999999991-18.59999999999991 19.199999999999932-7.300000000000068 1-14.600000000000023 1.8000000000000682-21.90000000000009 3-5.7999999999999545 1-9.099999999999909 0-8.5-7.100000000000023 0.40000000000009095-5.599999999999909-0.2999999999999545-11.299999999999955-0.599999999999909-16.999999999999943-1.1000000000000227-15.800000000000011 6.399999999999977-23.600000000000023 24.09999999999991-23.80000000000001z m224.4000000000001 159.39999999999998c-9-1.3999999999999773-16.40000000000009-4.100000000000023-23.300000000000068-8.299999999999955-3.199999999999932-2-2.7999999999999545-4.600000000000023-2.1000000000000227-7.399999999999977 1.900000000000091-6.800000000000068 3.900000000000091-13.600000000000023 5.900000000000091-20.40000000000009 0.5-1.7999999999999545 0.6999999999999318-4 3.099999999999909-4.699999999999932l26.600000000000023-8.800000000000068c3-1 4 1 4.7000000000000455 3.400000000000091 3.6000000000000227 11 7.2999999999999545 22 11.100000000000023 33 0.6999999999999318 2 1.5 3.7999999999999545-1.3000000000000682 4.7999999999999545-8.399999999999977 2.8999999999999773-17 5.7999999999999545-24.699999999999932 8.399999999999977z m-140.10000000000002 53.200000000000045c-3.6000000000000227-0.8999999999999773-6.100000000000023-1.3999999999999773-8.5-2.1000000000000227-17.300000000000068-4.7000000000000455-18.399999999999977-6.2000000000000455-13.399999999999977-22.899999999999977 1.599999999999909-5.300000000000068 0.8999999999999773-12.800000000000068 5.899999999999977-15.300000000000068 8.5-4.2999999999999545 18.100000000000023-6.5 27.299999999999955-9.299999999999955 3.1000000000000227-1 3.5 2 4.2000000000000455 4.100000000000023l10.600000000000023 31.399999999999977c0.6999999999999318 2.2000000000000455 2 4.5-1.2000000000000455 5.600000000000023-8.5 3-17.100000000000023 5.899999999999977-24.899999999999977 8.5z m-97.5-114.20000000000005c0.7999999999999545-7.899999999999977 5.7999999999999545-13.199999999999932 11.5-18.100000000000023 1.1999999999999318-1 2.5-1 4-0.5 9.699999999999932 3.300000000000068 19.699999999999932 5.900000000000091 28.899999999999977 10.100000000000023 5.5 2.6000000000000227 7.7000000000000455 9.100000000000023 7.7999999999999545 15.200000000000045 0 5.7999999999999545-4.2999999999999545 9-9.299999999999955 11l-8 2.7999999999999545c-18.399999999999977 6.2000000000000455-22.5 4.7000000000000455-33.10000000000002-12.199999999999932-1.6999999999999318-2.7000000000000455-1.6000000000000227-5.400000000000091-1.7999999999999545-8.300000000000068z"/>
</svg>
