<svg xmlns="http://www.w3.org/2000/svg" viewBox="0 0 1000 1000" width="1000" height="1000">
<path d="M937.2 454.3v-40.30000000000001c0-61.39999999999998-0.3000000000000682-61.10000000000002-56.80000000000007-82.80000000000001-149.10000000000002-57.099999999999966-298.6-114.29999999999998-448-171.39999999999998-10.799999999999955-4.300000000000011-21-7.200000000000017-33.19999999999999-3.9000000000000057-106.69999999999999 28.900000000000006-213.79999999999998 57.5-320.9 85.4-11.800000000000011 3.299999999999983-15.800000000000011 8.199999999999989-15.800000000000011 20.69999999999999 0.7000000000000028 47.30000000000001 0.7000000000000028 94.30000000000001 0.29999999999999716 141.60000000000002-0.29999999999999716 0.6999999999999886-0.29999999999999716 1 0 1.599999999999966 0 4.900000000000034 0 9.900000000000034-0.29999999999999716 14.800000000000011v12.5c0 1 0 2 0.29999999999999716 2.6000000000000227v1.599999999999966c0.7000000000000028 9.199999999999989 4.900000000000006 14.100000000000023 15.100000000000009 17.69999999999999l18.39999999999999 6.900000000000034c158.3 59.69999999999999 316.3 120.19999999999999 474.59999999999997 180.59999999999997l2.6000000000000227 1c8.5 3.300000000000068 16.799999999999955 4.300000000000068 25.600000000000023 1.6000000000000227l4.899999999999977-1.2999999999999545c99.5-26.600000000000023 199.70000000000005-53.5 299.5-79.80000000000007l16.399999999999977-4.2999999999999545c11.200000000000045-3 15.800000000000068-7.2000000000000455 16.800000000000068-16.100000000000023 0.6999999999999318-2 0.6999999999999318-4.600000000000023 0.6999999999999318-7.2000000000000455-1.1999999999999318-27.299999999999955-0.1999999999999318-54.19999999999993-0.1999999999999318-81.49999999999994z m-172.20000000000005-110.30000000000001c-47 22-94.89999999999998 28.899999999999977-141.20000000000005-5.600000000000023 48-21.299999999999955 95.90000000000009-30.19999999999999 141.20000000000005 5.600000000000023z m-317.9-32.89999999999998c17.399999999999977 2.2999999999999545 34.19999999999999 8.199999999999989 50.89999999999998 19.69999999999999 0.6999999999999886 0.30000000000001137 1.6000000000000227 0.6999999999999886 2.3000000000000114 1.3000000000000114-47.60000000000002 25.299999999999955-95.60000000000002 25.599999999999966-142.2-5.300000000000011 29.899999999999977-11.699999999999989 59.799999999999955-19.30000000000001 89-15.699999999999989z m176.69999999999993 69.69999999999999c-46.59999999999991 26.899999999999977-93.59999999999991 21-139.59999999999997-4.900000000000034 28.19999999999999-13.099999999999966 56.80000000000001-21 84.69999999999999-18.099999999999966 16.399999999999977 2 32.80000000000007 7.899999999999977 49.30000000000007 18.69999999999999 2 1.6000000000000227 3.599999999999909 3 5.599999999999909 4.300000000000011z m14.800000000000068-85.10000000000002c-46.60000000000002 22-94.60000000000002 28.30000000000001-140.60000000000002-4.899999999999977 47.60000000000002-22.30000000000001 95.60000000000002-28.30000000000001 140.60000000000002 4.899999999999977z m-124.20000000000005-48.89999999999998c-62.099999999999966 25.899999999999977-91 25-143.2-3.6000000000000227 55.19999999999999-26.599999999999994 78.90000000000003-26 143.2 3.6000000000000227z m-138.89999999999998 37.69999999999999c-69 24.600000000000023-87 24-141.2-4.600000000000023 52.5-25.899999999999977 77.5-25.19999999999999 141.2 4.600000000000023z m177 314c-105.80000000000001-40.700000000000045-211.8-80.79999999999995-317.6-121.19999999999999-40.39999999999998-15.400000000000034-80.79999999999998-31.19999999999999-121.19999999999997-46-12.5-4.600000000000023-18.400000000000006-9.5-17.700000000000003-24.30000000000001l0.29999999999999716-24.600000000000023c0.29999999999999716-31.5 0-63.69999999999999 0-98.89999999999998 37.8 14.5 72.89999999999999 27.899999999999977 108.10000000000001 41.39999999999998l44.69999999999999 17.100000000000023 123.20000000000002 46.60000000000002c19.69999999999999 7.599999999999966 39.099999999999966 15.099999999999966 58.80000000000001 22.299999999999955l67 25.600000000000023c19.399999999999977 7.199999999999989 38.799999999999955 14.800000000000011 58.10000000000002 22l2.2999999999999545 1c9.899999999999977 3.8999999999999773 13.100000000000023 9.199999999999989 12.799999999999955 20.399999999999977-0.2999999999999545 7.900000000000034-0.6999999999999318 16.100000000000023-0.2999999999999545 24-0.2999999999999545 13.100000000000023-0.7000000000000455 26.600000000000023-0.7000000000000455 39.700000000000045 0 14.100000000000023 0.3000000000000682 27.899999999999977 1 42 0.3000000000000682 16.5-2.699999999999932 19.199999999999932-18.799999999999955 12.899999999999977z m339.29999999999995-67l-273.29999999999995 72.89999999999998c-10.799999999999955 3-14.799999999999955 0.3000000000000682-14.5-11.199999999999932 0.7000000000000455-19 0-37.80000000000007 0-56.80000000000007v-22.299999999999955c0-11.5 0.2999999999999545-23 0-34.5-0.2999999999999545-9.200000000000045 1.2999999999999545-14.5 12.200000000000045-17.100000000000023 44.69999999999993-11.800000000000011 89-23.600000000000023 133.69999999999993-35.5 48-13.100000000000023 95.89999999999998-25.899999999999977 143.5-39.10000000000002 9.5-2.599999999999966 10.200000000000045 1.3000000000000114 10.200000000000045 8.5-0.3000000000000682 29.900000000000034-0.3000000000000682 59.80000000000001 0 89.70000000000005 0 10.799999999999955 0.2999999999999545 21.299999999999955 0.2999999999999545 31.899999999999977 0.10000000000002274 9.299999999999955-5.199999999999932 11.600000000000023-12.100000000000023 13.5z m45.700000000000045 176.10000000000002c0.2999999999999545 17.100000000000023-3.2999999999999545 25-17.399999999999977 29.600000000000023-107.10000000000002 35.09999999999991-214.20000000000005 71.19999999999993-320.9 107-8.900000000000091 3-17.100000000000023 1.599999999999909-25.600000000000023-2.300000000000068-165.20000000000005-79.19999999999993-330.40000000000003-158-495.6-236.5-11.5-5.600000000000023-15.399999999999999-12.5-15.399999999999999-27.600000000000023 0.6999999999999957-59.39999999999998 0.6999999999999957-118.19999999999993 0.29999999999999716-177.69999999999993 0.7000000000000028 11.5 4.899999999999999 17.69999999999999 15.100000000000001 22.299999999999955 6.200000000000003 3 12.200000000000003 5.600000000000023 18.400000000000006 8.5 0.29999999999999716 40.10000000000002 0.29999999999999716 77.80000000000001-0.30000000000001137 115.30000000000007-0.6999999999999886 18.399999999999977 5.300000000000011 25 17.700000000000003 30.5 40.39999999999999 18.09999999999991 80.8 38.39999999999998 121.2 57.5 105.80000000000001 50.59999999999991 211.8 100.79999999999995 317.6 152.39999999999998 16.100000000000023 7.600000000000023 19 3.8999999999999773 18.699999999999932-16.800000000000068-0.6999999999999318-30.199999999999932-1-60.39999999999998-0.2999999999999545-90.69999999999993h33.200000000000045v28.899999999999977c0 24 0.6999999999999318 48 0 71.29999999999995-0.3000000000000682 14.5 3.599999999999909 17.700000000000045 14.5 14.5 91-30.899999999999977 182.29999999999995-61.39999999999998 273.29999999999995-92 6.899999999999977-2 12.200000000000045-4.899999999999977 12.200000000000045-16.399999999999977-0.7000000000000455-42.39999999999998-0.7000000000000455-84.39999999999998-0.3000000000000682-126.5l16.399999999999977-5.2999999999999545c11.200000000000045-3.6000000000000227 15.800000000000068-9.200000000000045 16.800000000000068-20 0.2999999999999545 5.899999999999977 0.2999999999999545 13.100000000000023 0.2999999999999545 20.699999999999932v51.200000000000045c-0.1999999999999318 34.10000000000002-1.1999999999999318 68.29999999999995 0.10000000000002274 102.10000000000002z m-333.4-81.5v53.19999999999993h-33.200000000000045c-0.2999999999999545-19.199999999999932 0-38.39999999999998 0-57.59999999999991l2.6000000000000227 3.5c8.5 10.5 16.799999999999955 14 25.600000000000023 5.199999999999932 1.6999999999999318-0.7999999999999545 3.3999999999999773-3.3999999999999773 5-4.2999999999999545z"/>
</svg>
