<svg xmlns="http://www.w3.org/2000/svg" viewBox="0 0 1000 1000" width="1000" height="1000">
<path d="M555.5 544.5s-37.799999999999955-361.2-180.2-361.2h-228.70000000000002v332.40000000000003h-58.099999999999994c-58.5 0 0 206.5 0 206.5h36c2.5999999999999943-51.200000000000045 45.099999999999994-92.10000000000002 97.1-92.10000000000002 52.00000000000003 0 94.29999999999998 40.89999999999998 96.79999999999998 92.10000000000002h118.20000000000005v-1.3000000000000682c0-56.89999999999998 46.299999999999955-103.19999999999993 103.19999999999993-103.19999999999993s103.20000000000005 46.19999999999993 103.20000000000005 103.09999999999991c0 6.7000000000000455-0.7999999999999545 13.200000000000045-1.7999999999999545 19.300000000000068h36.59999999999991l-61-191c-55.69999999999993 31.399999999999977-61.299999999999955-4.600000000000023-61.299999999999955-4.600000000000023z m-184 11.5l-53.80000000000001-94.19999999999999h-116.89999999999998v-224.5h165c48.099999999999966 0 74.59999999999997 66.89999999999998 88.5 123.30000000000001 9 36 36.30000000000001 166.79999999999995 38.599999999999966 195.39999999999998h-121.39999999999998z m168.79999999999995 73.39999999999998c-49.39999999999998 0-89.59999999999997 40.10000000000002-89.59999999999997 89.80000000000007 0 49.39999999999998 40.10000000000002 89.59999999999991 89.59999999999997 89.59999999999991s89.60000000000002-40.09999999999991 89.60000000000002-89.59999999999991c0-49.60000000000002-40.10000000000002-89.80000000000007-89.60000000000002-89.80000000000007z m0 141.89999999999998c-28.599999999999966 0-51.99999999999994-23.399999999999977-51.99999999999994-52s23.399999999999977-52 51.99999999999994-52 51.700000000000045 23.40000000000009 51.700000000000045 52-23.100000000000023 52-51.700000000000045 52z m-321.29999999999995-125.39999999999998c-47.099999999999994 0-85.19999999999999 38.39999999999998-85.19999999999999 85.20000000000005 0 47.10000000000002 38.099999999999994 85.19999999999993 85.19999999999999 85.19999999999993s85.19999999999999-38.39999999999998 85.19999999999999-85.19999999999993c0-46.80000000000007-38.099999999999966-85.20000000000005-85.19999999999999-85.20000000000005z m0 134.70000000000005c-27.30000000000001 0-49.19999999999999-22.200000000000045-49.19999999999999-49.39999999999998 0-27.300000000000068 21.899999999999977-49.40000000000009 49.19999999999999-49.40000000000009s49.39999999999998 22.200000000000045 49.39999999999998 49.40000000000009-22.399999999999977 49.39999999999998-49.39999999999998 49.39999999999998z m717.5-146.80000000000007c-3.2999999999999545-10-14.399999999999977-15.699999999999932-24.5-12.099999999999909l-186.89999999999998 61.5-161.39999999999998-485.30000000000007c-3.300000000000068-9.999999999999972-14.100000000000023-15.499999999999972-24.5-12.099999999999966-10 3.299999999999983-15.700000000000045 14.199999999999989-12.100000000000023 24.5l167.60000000000002 503.3c2.7999999999999545 8 10 13.100000000000023 18.299999999999955 13.100000000000023 2 0 4.2000000000000455-0.3000000000000682 6.2000000000000455-0.7000000000000455l204.89999999999998-67.79999999999995c10.199999999999932-3.300000000000068 15.799999999999955-14.200000000000045 12.399999999999977-24.40000000000009z"/>
</svg>
