<svg xmlns="http://www.w3.org/2000/svg" viewBox="0 0 1000 1000" width="1000" height="1000">
<path d="M937.1 242c-1.3999999999999773-3.5-5.899999999999977-1.8000000000000114-9-1.8000000000000114-64-0.09999999999999432-128 0-192-0.19999999999998863-5.899999999999977 0-10.100000000000023 1.8000000000000114-14.200000000000045 6-65.69999999999993 67-131.60000000000002 133.89999999999998-197.39999999999998 200.89999999999998-2.2999999999999545 2.3000000000000114-6.2999999999999545 4.600000000000023-5.2999999999999545 7.800000000000011 1.5 4.600000000000023 6.5 2.400000000000034 9.799999999999955 2.400000000000034l106 0.2999999999999545c5.5 0 13-2.6999999999999886 15.700000000000045 4 2.5 6.300000000000011-4.800000000000068 8.900000000000034-8.5 12.400000000000034-58 54.69999999999999-116.20000000000005 109.09999999999997-174.40000000000003 163.7-2.6999999999999886 2.6000000000000227-5.400000000000034 5.100000000000023-8 7.7999999999999545-3.5 3.6000000000000227-2.400000000000034 6 2.3999999999999773 6.300000000000068 4.5 0.2999999999999545 9.100000000000023 0.1999999999999318 13.699999999999989 0.1999999999999318h83.5c3.7000000000000455 0 7.899999999999977-0.599999999999909 9.899999999999977 3.5 2.1000000000000227 4.2000000000000455-1.3999999999999773 6.900000000000091-3.699999999999932 9.700000000000045-1.3000000000000682 1.6000000000000227-2.5 3.2999999999999545-3.8999999999999773 4.899999999999977-51.30000000000007 60.200000000000045-102.90000000000003 120.20000000000005-153.80000000000007 180.80000000000007-8.599999999999966 10.199999999999932-18.19999999999999 19.799999999999955-26 30.799999999999955l3.400000000000034 3.7000000000000455c129.59999999999997-104.40000000000009 259.2-208.80000000000007 389.8-314-6.5-4-10.700000000000045-3.2000000000000455-14.800000000000068-3.2000000000000455-22-0.20000000000004547-44-0.10000000000002274-66.09999999999991-0.2999999999999545-4.300000000000068-0.10000000000002274-10.100000000000023 1.8999999999999773-12.5-3-2.800000000000068-6.100000000000023 3.599999999999909-8.5 7-11.700000000000045 58.299999999999955-53.80000000000001 116.69999999999993-107.5 175-161.39999999999998 4.099999999999909-3.8000000000000114 9.299999999999955-6.7000000000000455 13.099999999999909-14.400000000000034h-64.39999999999998c-4.899999999999977 0-11.100000000000023 0.9000000000000341-13.299999999999955-4.300000000000011-2.6000000000000227-6 4-8.399999999999977 7.399999999999977-11.5l124.60000000000002-111.19999999999999c2.6000000000000227-2.1999999999999886 7.899999999999977-3.6999999999999886 6-8.199999999999989z m-874.2 45.39999999999998c-0.0999999999999801 5.900000000000034 1.700000000000017 8.400000000000034 7.800000000000026 7.7000000000000455 12.399999999999991-1.3000000000000114 24.799999999999997-1.8000000000000114 37.099999999999994-3.7000000000000455 52.39999999999999-7.899999999999977 99.7-27.5 139.5-63.19999999999999 4.299999999999983-3.8999999999999773 7-3.6999999999999886 11.399999999999977 0.10000000000002274 44.400000000000034 39.39999999999998 96.90000000000003 59.599999999999966 155.7 64.80000000000001 79.5 7 151.39999999999998-11.700000000000045 212.80000000000007-64.50000000000003 4.5-3.9000000000000057 7.099999999999909-4.799999999999983 12-0.29999999999998295 8.599999999999909 7.799999999999983 18.399999999999977 14.199999999999989 27.399999999999977 21.5 5.399999999999977 4.299999999999983 9.299999999999955 4.699999999999989 14.600000000000023-0.9000000000000057 11.599999999999909-12.5 23.799999999999955-24.30000000000001 36.09999999999991-36.099999999999994 4.600000000000023-4.400000000000006 5.800000000000068-7.100000000000023-0.8999999999999773-10.800000000000011-6.5-3.5999999999999943-12.399999999999977-8.400000000000006-18.199999999999932-13.099999999999994-25.600000000000023-20.80000000000001-47.700000000000045-44.70000000000002-64.60000000000002-73.60000000000001-90.10000000000002 142.09999999999997-283.5 157.3-380.8-0.20000000000000284-12.300000000000011 32.80000000000001-34.20000000000002 55.5-61.60000000000002 73.20000000000002-35.79999999999998 23.099999999999994-74.49999999999999 38-117.39999999999999 40.19999999999999-8.200000000000003 0.4000000000000057-11.5 2.8000000000000114-11.099999999999994 11.699999999999989 0.7999999999999972 15.600000000000023 0.5 31.400000000000034 0.19999999999999574 47.19999999999999z m15.200000000000017 182.60000000000002c62.5-4.300000000000011 119.4-23.100000000000023 167.3-64.80000000000001 6.099999999999994-5.399999999999977 9.199999999999989-4.899999999999977 15.099999999999994 0.19999999999998863 50.10000000000002 43.30000000000001 109.39999999999998 62.30000000000001 174.8 64.70000000000005 9.599999999999966 0.2999999999999545 16.099999999999966-2.8000000000000114 22.399999999999977-9.900000000000034 13.5-15.199999999999989 28-29.5 42.10000000000002-44.19999999999999 7.099999999999966-7.5 14.300000000000011-14.899999999999977 22.999999999999943-24.100000000000023-130.69999999999993 27.5-210.69999999999993-2.8999999999999773-269.79999999999995-102-10 23.600000000000023-24.099999999999994 42.400000000000034-42.69999999999999 57.60000000000002-40.20000000000002 32.89999999999998-86.10000000000001 52.39999999999998-138 56.89999999999998-7.500000000000014 0.7000000000000455-9.900000000000013 2.8000000000000114-9.600000000000009 10.300000000000011 0.5999999999999943 13.699999999999989 1.0999999999999943 27.5-0.10000000000000142 41.10000000000002-1.1000000000000014 12.800000000000011 4.100000000000001 15 15.499999999999993 14.199999999999989z m319.1 163.79999999999995c14.899999999999977-15.599999999999909 30.599999999999966-30.5 45.799999999999955-45.799999999999955 2-2.1000000000000227 5.899999999999977-3.3999999999999773 4.899999999999977-7.2999999999999545-85.29999999999995-3.1000000000000227-154.2-33.40000000000009-194.99999999999997-114.60000000000002-6.5 18.399999999999977-15.400000000000006 33.19999999999999-28.30000000000001 45.299999999999955-42.5 40.200000000000045-93.4 62.10000000000002-151.3 67.89999999999998-7.59999999999998 0.8000000000000682-10.899999999999984 2.2000000000000455-10.59999999999998 10.600000000000023 0.6999999999999957 14.899999999999977 0.5999999999999943 29.899999999999977 0 44.80000000000007-0.30000000000000426 8.299999999999955 2.5 10.5 10.599999999999994 10.199999999999932 64.8-2.199999999999932 122.89999999999999-21.899999999999977 172.10000000000002-64.79999999999995 6.399999999999977-5.600000000000023 9.299999999999955-4.5 14.899999999999977 0.5 34.39999999999998 30.299999999999955 74.89999999999998 48.39999999999998 119.30000000000001 58.39999999999998 7.199999999999989 1.7000000000000455 12.299999999999955 0.2999999999999545 17.599999999999966-5.2000000000000455z"/>
</svg>
