<svg xmlns="http://www.w3.org/2000/svg" viewBox="0 0 1000 1000" width="1000" height="1000">
<path d="M326.1 624.1c-50.80000000000001 0-92.00000000000003 41.19999999999993-92.00000000000003 92s41.20000000000002 92 92.00000000000003 92 92-41.200000000000045 92-92c0.0999999999999659-50.80000000000007-41.10000000000002-92-92-92z m0 132.10000000000002c-22.100000000000023 0-40-17.90000000000009-40-40s17.899999999999977-40 40-40 40 17.899999999999977 40 40-17.900000000000034 40-40 40z m385.1-132.10000000000002c-50.80000000000007 0-92 41.19999999999993-92 92s41.19999999999993 92 92 92 92-41.200000000000045 92-92-41.200000000000045-92-92-92z m0 132.10000000000002c-22.100000000000023 0-40-17.90000000000009-40-40s17.899999999999977-40 40-40 40 17.899999999999977 40 40-17.90000000000009 40-40 40z m-458.50000000000006-171.80000000000007c154.3 67.89999999999998 242.40000000000003 9.899999999999977 286.40000000000003-90.19999999999999 44-100 27.199999999999932-204.2-127-272-104.20000000000005-45.79999999999998-237.70000000000002-39.29999999999998-296 13.400000000000006-24.800000000000026 22.400000000000006-51.800000000000026 88.1-53.50000000000002 121.50000000000003-3.8999999999999986 78.29999999999995 86 181.39999999999998 190.1 227.29999999999995z m7.199999999999989 50.39999999999998h-133.2c-12.499999999999986 0-22.69999999999999 9.400000000000091-22.69999999999999 21v39.30000000000007c0 11.600000000000023 10.200000000000003 21 22.700000000000003 21h94.3c0.09999999999999432-32.700000000000045 15.199999999999989-62.10000000000002 38.89999999999998-81.30000000000007z m629.1-177.59999999999997c-23.600000000000023-18.099999999999966-68.20000000000005-110.39999999999998-68.20000000000005-110.39999999999998-11.299999999999955-21.80000000000001-40.59999999999991-39.60000000000002-65.19999999999993-39.60000000000002h-110.39999999999998s-10.5 0.10000000000002274-23.40000000000009 0.10000000000002274h-18c-10.899999999999977 0-20.09999999999991 7.5-22.699999999999932 17.599999999999966v292.80000000000007s2.1000000000000227 17-24.100000000000023 17h-164.60000000000002c23.700000000000045 19.299999999999955 38.80000000000001 48.59999999999991 38.80000000000001 81.39999999999998h175.00000000000006c0-57.89999999999998 47.09999999999991-105 105-105s105 47.10000000000002 105 105h76.69999999999993c24.600000000000023 0 44.60000000000002-20.100000000000023 44.60000000000002-44.60000000000002v-84.79999999999995c0-71.40000000000009-25.100000000000023-111.50000000000006-48.5-129.50000000000006z m-243.79999999999995-4v-115h94.5c21.899999999999977 0 47.89999999999998 15.900000000000034 58 35.30000000000001l33.59999999999991 68c2.5 4.699999999999989 5.2000000000000455 8.600000000000023 8.300000000000068 11.800000000000011l-194.39999999999998-0.10000000000002274z"/>
</svg>
