<svg xmlns="http://www.w3.org/2000/svg" viewBox="0 0 1000 1000" width="1000" height="1000">
<path d="M769.3 525.1c-3.3999999999999773-7.399999999999977-8.299999999999955-14-15-18.700000000000045-9.599999999999909-6.7999999999999545-19.59999999999991-13.099999999999966-29.399999999999977-19.69999999999999l-108.5-72.39999999999998c-20.699999999999932-13.699999999999989-41.299999999999955-27.600000000000023-62-41.400000000000034-2.7999999999999545-1.7999999999999545-5.399999999999977-3.7999999999999545-9.100000000000023-1.8999999999999773-2.2999999999999545 1.1000000000000227-3.3999999999999773-0.39999999999997726-3.8999999999999773-2.5-1.7999999999999545-10.199999999999989-6.899999999999977-18.600000000000023-15-25-2.5-2.1000000000000227-2-3.6999999999999886 0.20000000000004547-5.300000000000011 3-2.3000000000000114 3.6000000000000227-5.199999999999989 3.2999999999999545-8.800000000000011-0.6999999999999318-9.699999999999989-1.1000000000000227-19.399999999999977-1.6999999999999318-29.099999999999966l-4.5-65.70000000000002c-1.7000000000000455-24.799999999999983-3.2000000000000455-49.599999999999994-4.7000000000000455-74.4-1.5-22.799999999999983-2.7999999999999545-45.499999999999986-4.2999999999999545-68.19999999999999-0.6000000000000227-9.400000000000006-4.000000000000057-17.799999999999997-9.200000000000045-25.400000000000006-3.3999999999999773-4.999999999999993-7.600000000000023-5.199999999999996-11-0.29999999999999716-4.800000000000011 6.799999999999997-8.399999999999977 14.400000000000006-9 22.799999999999997-2.1000000000000227 30.10000000000001-4.100000000000023 60.30000000000001-6 90.5-1.8000000000000114 29.099999999999994-3.6000000000000227 58.30000000000001-5.5 87.4l-3.6000000000000227 54c-0.2999999999999545 3.5-0.0999999999999659 7.100000000000023-0.5999999999999659 10.5-0.8000000000000114 4.699999999999989 4.5 5.699999999999989 5.399999999999977 9.300000000000011-0.8999999999999773 1.6999999999999886-2.5 2.599999999999966-3.8999999999999773 3.8999999999999773-6.600000000000023 5.900000000000034-10.800000000000011 13-13 21.5-0.30000000000001137 1-0.4000000000000341 2-0.6000000000000227 3.1000000000000227-0.30000000000001137 1.3999999999999773-1.1999999999999886 2.5-2.5 2-5.399999999999977-2.5-9 1.3000000000000114-12.899999999999977 3.8999999999999773-41.69999999999999 27.80000000000001-83.40000000000003 55.69999999999999-125 83.60000000000002-23.5 15.699999999999989-46.900000000000034 31.19999999999999-70.30000000000001 46.89999999999998-7.400000000000006 5-12.699999999999989 11.900000000000034-16.5 19.900000000000034-2.6999999999999886 5.699999999999932-0.30000000000001137 9.399999999999977 6 9.799999999999955 8.400000000000006 0.6000000000000227 16.80000000000001-0.2999999999999545 24.19999999999999-3.8999999999999773 33.900000000000034-16.5 67.60000000000002-33.30000000000001 101.30000000000001-50.10000000000002 37.5-18.599999999999966 75-37.099999999999966 112.39999999999998-55.599999999999966 3.6000000000000227-1.8000000000000114 7.100000000000023-3.3000000000000114 7.7000000000000455-8h1.1999999999999886c-0.6999999999999886 16.5-1.3000000000000114 33.099999999999966-2.1999999999999886 49.5-1.400000000000034 28.399999999999977-3.1000000000000227 56.69999999999999-4.5 84.99999999999994-1.5 30.200000000000045-2.8000000000000114 60.5-4.2000000000000455 90.70000000000005-1.099999999999966 22.600000000000023-2.2999999999999545 45.200000000000045-3.3999999999999773 67.60000000000002l-2.8000000000000114 60.19999999999993-3.1999999999999886 59.60000000000002c-1 18.600000000000023-1.8999999999999773 37.200000000000045-2.5 55.89999999999998-0.10000000000002274 3.7000000000000455-1.6999999999999886 5.100000000000023-4.899999999999977 5.900000000000091-5.400000000000034 1.2999999999999545-10.900000000000034 2.7999999999999545-16.200000000000045 4.199999999999932l-52.19999999999999 13.899999999999977c-4.800000000000011 1.3000000000000682-4.899999999999977 1.400000000000091-5 6.2000000000000455-0.0999999999999659 5.399999999999977-0.0999999999999659 10.799999999999955-0.0999999999999659 16.200000000000045 0.0999999999999659 4.5 0.39999999999997726 4.7999999999999545 5.099999999999966 5 5.300000000000011 0.1999999999999318 10.800000000000011 0 16.19999999999999 0l56.5-0.10000000000002274 54.700000000000045 0.10000000000002274h72.39999999999998c8.5 0 17 0.09999999999990905 25.5 0 3.8999999999999773 0 4.399999999999977-0.5 4.399999999999977-4.2000000000000455 0.10000000000002274-6-0.1999999999999318-12 0-18 0.10000000000002274-3.2000000000000455-1.2999999999999545-4.2999999999999545-4.100000000000023-5-13-3.3999999999999773-26-6.899999999999977-39-10.399999999999977-10.199999999999932-2.7000000000000455-20.299999999999955-5.5-30.5-8.100000000000023-3.199999999999932-0.7999999999999545-4.5-2.2999999999999545-4.5-5.5 0.10000000000002274-4.100000000000023-0.1999999999999318-8.299999999999955-0.39999999999997726-12.399999999999977l-4.600000000000023-87.5c-1.1999999999999318-24.399999999999977-2.5-48.80000000000007-3.599999999999909-73.20000000000005l-4.2000000000000455-89.39999999999998-4.7000000000000455-94.89999999999998c-1.1999999999999318-24.200000000000045-2.5-48.400000000000034-3.599999999999909-72.60000000000002-0.6000000000000227-11.600000000000023-1.1000000000000227-23.19999999999999-1.5-34.69999999999999-0.10000000000002274-1.6000000000000227-0.900000000000091-3.6000000000000227 1.8999999999999773-5.800000000000011-0.6000000000000227 6.800000000000011 4.199999999999932 8.100000000000023 8.100000000000023 10.199999999999989 0.8999999999999773 0.5 1.7999999999999545 0.9000000000000341 2.7999999999999545 1.3000000000000114l104 51.5s69.39999999999998 34.299999999999955 104 51.5c8.200000000000045 4.100000000000023 16.899999999999977 5.2999999999999545 26 4.899999999999977 6.899999999999977-0.6999999999999318 9.100000000000023-4.100000000000023 6.2999999999999545-10.299999999999955z m-259.29999999999995-127.80000000000001c-6.600000000000023 3-13.100000000000023 3.1999999999999886-19.80000000000001 0.19999999999998863-1.5-0.6999999999999886-2.3000000000000114-1.6999999999999886-1.8000000000000114-3.3999999999999773 1.1000000000000227-3.5 1.6000000000000227-7.300000000000011 3.5-11.200000000000045 5.7000000000000455 4.100000000000023 10.900000000000034 4.2000000000000455 16.200000000000045-0.2999999999999545 2.3999999999999773 3.7999999999999545 2.6999999999999886 7.599999999999966 3.6999999999999886 11.299999999999955 0.4000000000000341 1.6000000000000227-0.30000000000001137 2.7000000000000455-1.8000000000000114 3.400000000000034z m9.899999999999977-19.400000000000034c-3.199999999999932 0.7000000000000455-6.2999999999999545 1.900000000000034-10.199999999999989 2-0.19999999999998863-4.099999999999966 0.10000000000002274-8.399999999999977-3.6999999999999886-11.199999999999989-1.8999999999999773-1.3000000000000114-3.8999999999999773-2.3999999999999773-6.300000000000011-2.3000000000000114-5.800000000000011 0.10000000000002274-8.599999999999966 3.900000000000034-10.199999999999989 13.300000000000011-3.6000000000000227 0-6.800000000000011-1.3000000000000114-10.199999999999989-2.1999999999999886-2.3000000000000114-0.6000000000000227-3.1000000000000227-2-2.8000000000000114-4.100000000000023 1.1000000000000227-7.399999999999977 4.899999999999977-13 11.199999999999989-17.19999999999999 1.6000000000000227-1 3.1000000000000227-1.1999999999999886 4.5 0.30000000000001137l0.9000000000000341 0.8999999999999773c2.2999999999999545 2.1000000000000227 3.8999999999999773 5.7000000000000455 6.899999999999977 5.800000000000011 3.1999999999999886 0.19999999999998863 4.699999999999989-3.599999999999966 6.899999999999977-5.699999999999989 2-1.8999999999999773 3.900000000000034-2.1000000000000227 6-0.5 5.5 3.8999999999999773 8.800000000000068 9.199999999999989 9.899999999999977 15.800000000000011 0.6000000000000227 2.6999999999999886-0.09999999999990905 4.5-2.8999999999999773 5.099999999999966z m221.89999999999998 300.80000000000007c2.400000000000091-37.5-35.799999999999955-64.10000000000002-70.5-49.40000000000009-4.399999999999977 1.8000000000000682-4.2999999999999545 1.8000000000000682-7-2.3999999999999773-11.699999999999932-17.699999999999932-30.5-26.699999999999932-52.69999999999993-22.699999999999932-29.200000000000045 5.2999999999999545-47 34.69999999999993-39.39999999999998 63.5 1.3999999999999773 5.199999999999932 1.3999999999999773 5.199999999999932-2.900000000000091 8.399999999999977-27.699999999999932 20.699999999999932-27.5 62 0.5 82.19999999999993 2.7000000000000455 1.900000000000091 4 3.900000000000091 4.400000000000091 7.400000000000091 3.699999999999932 33.59999999999991 34 51.5 61.39999999999998 45.299999999999955 3-0.7000000000000455 6-1.6000000000000227 9.199999999999932-2.3999999999999773 1.1000000000000227 1.8999999999999773 0.900000000000091 3.2999999999999545 0.8000000000000682 4.7999999999999545-0.6000000000000227 13-1.3000000000000682 26.100000000000023-2 39.10000000000002l-2.2000000000000455 42.200000000000045c-0.6000000000000227 12.599999999999909-1.1000000000000227 25.199999999999932-1.6999999999999318 37.89999999999998-0.20000000000004547 4.5 0 4.600000000000023 4.399999999999977 4.699999999999932 5.600000000000023 0.20000000000004547 11.199999999999932 0.10000000000002274 16.799999999999955 0.20000000000004547 5.800000000000068 0.10000000000002274 6-0.10000000000002274 5.600000000000023-6-0.7999999999999545-15.899999999999977-1.6000000000000227-31.899999999999977-2.5-47.799999999999955l-3.2000000000000455-63.30000000000007c-0.2999999999999545-5.899999999999977 0.10000000000002274-6.199999999999932 5.800000000000068-5.100000000000023 6.399999999999977 1.3000000000000682 12.799999999999955 1.3000000000000682 19.100000000000023-0.09999999999990905 20.899999999999977-4.800000000000068 34.19999999999993-17.700000000000045 39.5-38.5 0.8999999999999773-3.5 2.5-5.5 5.699999999999932-7.400000000000091 27.800000000000068-15.199999999999932 35.39999999999998-51.799999999999955 15.300000000000068-76.29999999999995-3.7000000000000455-4.5-4.800000000000068-8.600000000000023-4.400000000000091-14.299999999999955z m-382.79999999999995 175.29999999999995c15 3.3999999999999773 34.19999999999999-4.600000000000023 40.10000000000002-25.100000000000023 1-3.3999999999999773 2.599999999999966-5.100000000000023 5.399999999999977-6.7999999999999545 17.80000000000001-10.600000000000023 22.399999999999977-34.700000000000045 9.600000000000023-50.700000000000045-2.8000000000000114-3.5-3.8000000000000114-6.7999999999999545-3.6000000000000227-11.199999999999932 0.6999999999999886-24.90000000000009-22.80000000000001-41.90000000000009-46.30000000000001-33.80000000000007-4.800000000000011 1.7000000000000455-4.800000000000011 1.7000000000000455-7.699999999999989-2.5-9.399999999999977-13.100000000000023-27-18.199999999999932-41.5-12-15.300000000000011 6.600000000000023-24.19999999999999 22.5-20.69999999999999 38.30000000000007 1.099999999999966 5.199999999999932-0.30000000000001137 7.599999999999909-3.900000000000034 10.899999999999977-16.399999999999977 14.299999999999955-15.5 40 1.8000000000000114 53.10000000000002 2.6999999999999886 2.099999999999909 3.900000000000034 4.2999999999999545 4.300000000000011 7.599999999999909 2.8999999999999773 20 20.30000000000001 32.60000000000002 40.30000000000001 29.40000000000009 2.5-0.40000000000009095 4.599999999999966-1.8000000000000682 8-1.2000000000000455 0 1.8999999999999773 0.0999999999999659 3.6000000000000227 0 5.2999999999999545l-2.6000000000000227 54c-0.39999999999997726 8.100000000000023-0.6999999999999886 16.200000000000045-1.099999999999966 24.200000000000045-0.20000000000004547 2.6000000000000227 0.8999999999999773 3.8999999999999773 3.5 3.7999999999999545 3.5 0 7-0.09999999999990905 10.599999999999966 0.10000000000002274 3.400000000000034 0.20000000000004547 4.199999999999989-1.5 4-4.600000000000023-0.5999999999999659-9.5-1.099999999999966-19-1.599999999999966-28.5-0.7000000000000455-15.799999999999955-1.400000000000034-31.399999999999977-2.2000000000000455-47.19999999999993 0-2.6000000000000227 0.6000000000000227-3.800000000000068 3.6000000000000227-3.1000000000000227z"/>
</svg>
