<svg xmlns="http://www.w3.org/2000/svg" viewBox="0 0 1000 1000" width="1000" height="1000">
<path d="M891 252.5c-64.20000000000005-0.09999999999999432-128.29999999999995 0-192.5-0.30000000000001137-6.7999999999999545 0-10.700000000000045 3.200000000000017-15 7.5l-242 246.60000000000002c-2.8999999999999773 2.8999999999999773-7.699999999999989 5-6.899999999999977 12.099999999999966h14.399999999999977c33 0 66 0 99 0.10000000000002274 5.2999999999999545 0 12.100000000000023-1.6000000000000227 14.5 4.399999999999977 2.2999999999999545 5.7000000000000455-4.2999999999999545 8.200000000000045-7.600000000000023 11.399999999999977-36.5 34.40000000000009-73.09999999999997 68.60000000000002-109.69999999999999 102.90000000000009l-71.89999999999998 67.59999999999991 1.1999999999999886 3.6000000000000227h13c27.100000000000023 0 54.30000000000001 0 81.30000000000001 0.20000000000004547 4.800000000000011 0 10.899999999999977-1.7000000000000455 13.699999999999989 3.5 3.1000000000000227 5.699999999999932-2.8999999999999773 8.899999999999977-5.800000000000011 12.399999999999977-49.30000000000001 58.200000000000045-98.69999999999999 116.29999999999995-148.09999999999997 174.5l-29.100000000000023 34.5 3.8999999999999773 3.8999999999999773c126.60000000000002-102.10000000000002 253.20000000000005-204.39999999999998 380.20000000000005-307-5.300000000000068-5-10-3.3999999999999773-14.300000000000068-3.3999999999999773-21.699999999999932-0.20000000000004547-43.39999999999998-0.10000000000002274-65-0.2999999999999545-4.399999999999977 0-9.899999999999977 1.3999999999999773-11.799999999999955-3.900000000000091-1.7000000000000455-4.599999999999909 3.2000000000000455-6.899999999999977 6.100000000000023-9.5l58.60000000000002-53.89999999999998 77.19999999999993-71.39999999999998c16.300000000000068-15.100000000000023 32.700000000000045-29.899999999999977 49.10000000000002-44.89999999999998l-1.1000000000000227-3.400000000000034c-19.5 0-39 0.19999999999998863-58.5-0.0999999999999659-5.399999999999977-0.10000000000002274-13.199999999999932 3.099999999999966-15.699999999999932-4-2.400000000000091-6.800000000000011 5.5-9.600000000000023 9.5-13.400000000000034 56.799999999999955-52.89999999999998 113.89999999999998-105.5 170.79999999999995-158.3 3.1000000000000227-2.7999999999999545 7.5-4.699999999999989 8.200000000000045-10.499999999999972-2.300000000000068-0.4000000000000057-4-0.9000000000000057-5.7000000000000455-0.9000000000000057z m-432.7-30.19999999999999c-51.900000000000034 0.39999999999997726-103.90000000000003 0.19999999999998863-155.90000000000003 0.29999999999998295-52.39999999999998 0-104.79999999999998 0.20000000000001705-157.2-0.19999999999998863-8.599999999999994-0.09999999999999432-11.699999999999989 1.9000000000000057-11.599999999999994 11.299999999999983 0.5 39.30000000000001 0.4000000000000057 78.5 0 117.80000000000001-0.09999999999999432 9.399999999999977 2.5 12.300000000000011 12.099999999999994 12.300000000000011 104.30000000000001-0.4000000000000341 208.60000000000002-0.30000000000001137 313 0 8.699999999999989 0 11.800000000000011-2.3000000000000114 11.600000000000023-11.300000000000011-0.4000000000000341-39.30000000000001-0.5-78.60000000000002 0-117.9 0.19999999999998863-9.5-2.400000000000034-12.400000000000006-12-12.299999999999983z m-42.60000000000002 256.59999999999997c-4-0.5999999999999659-5.300000000000011-1-6.599999999999966-1-88.10000000000002 0-176.3 0.10000000000002274-264.3-0.2999999999999545-9.700000000000017 0-11 3.8999999999999773-10.900000000000006 12.099999999999966 0.29999999999998295 38.900000000000034 0.5 77.69999999999999-0.09999999999999432 116.50000000000006-0.20000000000001705 10.299999999999955 2.8999999999999773 12.899999999999977 13 12.899999999999977 85-0.39999999999997726 169.89999999999998-0.20000000000004547 254.89999999999998-0.3000000000000682 3.900000000000034 0 8.300000000000011 1.1000000000000227 11.699999999999989-2 18.200000000000045-16.899999999999977 36.400000000000034-33.799999999999955 54.5-50.799999999999955 3.7000000000000455-3.5 3.2000000000000455-8.5 1.8000000000000114-12.799999999999955-1.5-4.7000000000000455-6-2.900000000000091-9.399999999999977-3-14-0.3000000000000682-28.100000000000023 0.2999999999999545-42-0.5-12.699999999999989-0.7000000000000455-22.19999999999999-7.400000000000091-27.19999999999999-19.300000000000068-5.2000000000000455-12.199999999999932-2-23 6.599999999999966-32.5 5.199999999999989-6 10.900000000000034-11.699999999999989 18-19z m-281.6-284.29999999999995c56.00000000000003-1.1000000000000227 111.90000000000003-0.4000000000000341 168.00000000000006-0.4000000000000341h169.39999999999998c22.399999999999977 0 29.100000000000023-6.699999999999989 29.19999999999999-29.099999999999994 0.10000000000002274-22.400000000000006-6.699999999999989-29.400000000000006-28.80000000000001-29.400000000000006h-195.2c-48.79999999999998 0-97.6 0.20000000000001705-146.29999999999998-0.09999999999999432-12.200000000000003-0.09999999999999432-22.10000000000001 3.5999999999999943-25.10000000000001 15.900000000000006-5.8999999999999915 23.19999999999999-1 43.69999999999999 28.799999999999997 43.099999999999994z m-0.4999999999999716 255.59999999999997h254.50000000000003c18.5 0 39.19999999999999 5 54.89999999999998-1.8000000000000114 16.19999999999999-6.899999999999977 27.69999999999999-25 40.89999999999998-38.599999999999966 3.5-3.6999999999999886 11-6.699999999999989 8.800000000000011-12.300000000000011-2.3000000000000114-5.399999999999977-9.699999999999989-5.699999999999989-15.599999999999966-6.100000000000023-3.2000000000000455-0.19999999999998863-6.300000000000011-0.0999999999999659-9.5-0.0999999999999659h-334.5c-21.700000000000017 0-29.800000000000026 7.899999999999977-29.800000000000026 29 0.10000000000000853 22.19999999999999 7.799999999999997 29.899999999999977 30.299999999999997 29.899999999999977z m528.3-223.1c-0.39999999999997726-28-0.6000000000000227-56 0-84 0.3000000000000682-9.900000000000006-3.6000000000000227-12.299999999999983-12.600000000000023-12.199999999999989-38.89999999999998 0.29999999999998295-77.69999999999993 0.29999999999998295-116.5 0-7.7999999999999545 0-9.5 1.0999999999999943-7.399999999999977 9.799999999999983 7.5 29.200000000000017 6.7000000000000455 56.80000000000001-22.599999999999966 75.30000000000001-7 4.5-3.900000000000034 11.599999999999994-3.5 17.19999999999999 0.5 6.700000000000017 6.899999999999977 4.200000000000017 10.899999999999977 4.300000000000011 23.000000000000057 0.30000000000001137 46.00000000000006 0.09999999999999432 69.09999999999997 0.09999999999999432 23.90000000000009 0 47.80000000000007-0.4000000000000057 71.80000000000007 0.20000000000001705 8.299999999999955 0.19999999999998863 10.899999999999977-2.4000000000000057 10.799999999999955-10.700000000000017z m-337.5 473.79999999999995c17.5-16.899999999999977 35.30000000000001-33.5 53.700000000000045-51-2-1.1000000000000227-2.400000000000034-1.5-2.7000000000000455-1.5-83.39999999999998-0.1999999999999318-166.89999999999998-0.39999999999997726-250.29999999999998-0.2999999999999545-14.799999999999997 0-21.89999999999999 10-21.69999999999999 28.100000000000023 0.19999999999998863 20.299999999999955 6.8999999999999915 29.09999999999991 23.5 29.09999999999991l184.1 0.20000000000004547c5.100000000000023 0 9.5-0.7999999999999545 13.399999999999977-4.600000000000023z m71.80000000000001-597.8c45.19999999999999 0.0999999999999801 90.30000000000001-2.842170943040401e-14 135.50000000000006-2.842170943040401e-14 44.69999999999993 0 89.39999999999998 0.10000000000000853 134.19999999999993 0 15.100000000000023 0 20.100000000000023-5.299999999999997 20.100000000000023-20.39999999999999 0-14.900000000000006-5.2000000000000455-20.200000000000003-20.200000000000045-20.200000000000003-89.89999999999998-0.10000000000000142-179.79999999999995-0.10000000000000142-269.59999999999997 0-16.5 0-20.69999999999999 4.5-20.5 21 0 15.200000000000003 4.5 19.5 20.5 19.599999999999994z m193.3 199.79999999999995c11.899999999999977-11.599999999999966 24.100000000000023-22.899999999999977 38.89999999999998-36.89999999999998-36.10000000000002 0-68.19999999999993-0.30000000000001137-100.19999999999993 0.10000000000002274-29.200000000000045 0.2999999999999545-29.000000000000057 0.5-29.200000000000045 29.69999999999999-0.10000000000002274 7.899999999999977 1.5 11.300000000000011 10.300000000000011 11 22.999999999999943-0.6000000000000227 46.099999999999966-0.30000000000001137 69.09999999999997-0.19999999999998863 4.100000000000023 0 7.800000000000068-0.6000000000000227 11.100000000000023-3.7000000000000455z m-90.5 56.30000000000001c0.10000000000002274 1.8000000000000114-0.19999999999998863 3.6999999999999886 0.19999999999998863 5.300000000000011 2.6000000000000227 17.80000000000001 15.199999999999989 13.699999999999989 19.30000000000001 10.199999999999989l45.200000000000045-40.39999999999998h-40.30000000000007c-25.099999999999966-0.19999999999998863-25.099999999999966-0.19999999999998863-24.399999999999977 24.899999999999977z"/>
</svg>
