<svg xmlns="http://www.w3.org/2000/svg" viewBox="0 0 1000 1000" width="1000" height="1000">
<path d="M898.4 174.9h-796.9c-21.5 0-39 17.5-39 39v261.20000000000005c0 21.5 17.5 39 39 39h796.9c21.5 0 39-17.5 39-39v-261.1c0.10000000000002274-21.599999999999994-17.5-39.099999999999994-39-39.099999999999994z m-753.5 281.70000000000005c-2.6999999999999886 2.2999999999999545-5.199999999999989 5-7.799999999999983 7.399999999999977-7 6.199999999999989-16.599999999999994 6.100000000000023-23.69999999999999 4.199999999999989-7-1.8000000000000114-6-14.399999999999977-5.5-20.5-2-37 1.3999999999999915-67.19999999999999 0.8999999999999915-103-0.20000000000000284-9.800000000000011 5.5-18.599999999999966 12.400000000000006-25.30000000000001 30.299999999999997-29.799999999999955 60.3-59.89999999999998 90.3-89.89999999999998 4.199999999999989-4.199999999999989 8-8.5 15-8.5 49.5 0.19999999999998863 99.10000000000002 0.09999999999999432 148.60000000000002 0.09999999999999432l2.2999999999999545 4.700000000000017c-49.299999999999955 48.69999999999999-98.19999999999999 97.69999999999999-147.79999999999998 146.09999999999997-28.599999999999994 27.700000000000045-53.900000000000006 58.900000000000034-84.69999999999999 84.70000000000005z m329.40000000000003-5.800000000000011c-12.100000000000023 12.399999999999977-24.400000000000034 18.599999999999966-42.19999999999999 18.099999999999966-43.60000000000002-1.1999999999999886-87.20000000000005-0.39999999999997726-130.8-0.39999999999997726l-3.1000000000000227-4.800000000000011c35.400000000000034-34.80000000000001 70.80000000000001-69.5 106-104.39999999999998 43.400000000000034-43 86.5-86.30000000000001 129.7-129.5 4.7000000000000455-4.700000000000017 8.899999999999977-9.300000000000011 16.5-9.300000000000011 49.60000000000002 0.19999999999998863 99.10000000000002 0.09999999999999432 148.70000000000005 0.09999999999999432l2.8999999999999773 4.599999999999994c-29.399999999999977 28.5-59.200000000000045 56.80000000000001-88.20000000000005 85.60000000000002-46.799999999999955 46.39999999999998-93.5 92.89999999999998-139.49999999999994 140z m407.3-84.69999999999999c-31.600000000000023 31.099999999999966-62.80000000000007 62.5-94.10000000000002 93.89999999999998-4.7999999999999545 4.800000000000011-9.600000000000023 8.399999999999977-17 8.399999999999977-49-0.19999999999998863-98-0.0999999999999659-147-0.0999999999999659-0.5-1.400000000000034-1-2.8000000000000114-1.5-4.300000000000011 60.60000000000002-60.30000000000001 121.20000000000005-120.69999999999999 181.70000000000005-181 18.199999999999932-18.19999999999999 37-35.900000000000006 54.5-54.69999999999999 7.7999999999999545-8.400000000000006 22.09999999999991-8.800000000000011 25.899999999999977-6.700000000000017 4.7999999999999545 2.5999999999999943 3.8999999999999773 12.700000000000017 4 19.200000000000017 0.39999999999997726 35.39999999999998 0.10000000000002274 70.69999999999999 0.2999999999999545 106 0 7.5-1 13.599999999999966-6.7999999999999545 19.30000000000001z m-613.7 411.69999999999993v-247.5h-63.39999999999998v248.60000000000002h-115.1v46.10000000000002h291.20000000000005v-46.10000000000002h-111.80000000000001c-0.4000000000000341-0.2999999999999545-0.6999999999999886-0.6999999999999318-0.9000000000000341-1.1000000000000227z m525.2 0.20000000000004547v-247.70000000000005h-35l-2.300000000000068-0.09999999999990905c-2.7999999999999545-0.10000000000002274-5.2999999999999545-0.10000000000002274-7.5 0.09999999999990905h-18.59999999999991v248.60000000000002h-113.90000000000009v46.10000000000002h291.20000000000005v-46.10000000000002h-113l-0.8999999999999773-0.8999999999999773z"/>
</svg>
