<svg xmlns="http://www.w3.org/2000/svg" viewBox="0 0 1000 1000" width="1000" height="1000">
<path d="M844.4 684c-22.299999999999955-22.299999999999955-52.39999999999998-36.200000000000045-85.79999999999995-37.5h-4.800000000000068c-35.299999999999955 0-67.29999999999995 14.299999999999955-90.19999999999993 37.5-23.300000000000068 22.899999999999977-37.5 54.89999999999998-37.5 90.20000000000005 0 18.09999999999991 3.7999999999999545 35.299999999999955 10.699999999999932 50.799999999999955 6.100000000000023 14.899999999999977 15.5 28.399999999999977 26.90000000000009 39.799999999999955 22.899999999999977 22.90000000000009 55 37.200000000000045 90.19999999999993 37.200000000000045 70.89999999999998 0 127.80000000000007-57.200000000000045 127.80000000000007-127.79999999999995-0.10000000000002274-35.200000000000045-14.300000000000068-67.20000000000005-37.30000000000007-90.20000000000005z m-37.799999999999955 122l-21 21-31.700000000000045-31.700000000000045-31.699999999999932 31.700000000000045-21-21 31.399999999999977-31.700000000000045-31.399999999999977-31.699999999999932 21-21 31.699999999999932 31.699999999999932 31.700000000000045-31.699999999999932 21 21-31.700000000000045 31.699999999999932 31.700000000000045 31.700000000000045z m-184-357.6l208.39999999999998-378.79999999999995c-33.89999999999998-4.800000000000026-65.70000000000005-7.100000000000023-95.5-7.100000000000023-32.39999999999998 0-63.700000000000045 2.299999999999997-94.39999999999998 7.099999999999994l-161.10000000000002 339.70000000000005-163.7-339.70000000000005c-31.30000000000001-4.800000000000026-62.70000000000002-7.100000000000023-94.20000000000002-7.100000000000023-34.69999999999999 0-69.19999999999999 2.299999999999997-104.1 7.099999999999994l208.3 378.79999999999995h-147.5c-1.6000000000000227 6.5-2.9000000000000057 14.300000000000011-3.6000000000000227 23.600000000000023-1 9.399999999999977-1.299999999999983 18.69999999999999-1.299999999999983 28.399999999999977 0 10.700000000000045 0.29999999999998295 20.399999999999977 1.299999999999983 29.399999999999977 0.6000000000000227 8.800000000000068 1.9000000000000057 16.200000000000045 3.6000000000000227 21.700000000000045h205.7v85.39999999999998h-205.7c-1.6000000000000227 6.5-2.9000000000000057 14.300000000000068-3.6000000000000227 23.600000000000023-1 9.399999999999977-1.299999999999983 18.700000000000045-1.299999999999983 28.799999999999955 0 10.300000000000068 0.29999999999998295 20 1.299999999999983 29.100000000000023 0.6000000000000227 9 1.9000000000000057 16.200000000000045 3.6000000000000227 22h205.7v190.89999999999998c15.800000000000011 2.6000000000000227 31.100000000000023 4.2000000000000455 45.89999999999998 4.800000000000068 14.900000000000034 1 29.400000000000034 1.2999999999999545 43.30000000000001 1.2999999999999545 14.900000000000034 0 29.400000000000034-0.39999999999997726 44.00000000000006-1.2999999999999545 14.5-0.6000000000000227 30.09999999999991-2.300000000000068 46.59999999999991-4.800000000000068v-190.79999999999995h25.5c4.800000000000068-44 29.800000000000068-81.5 65.60000000000002-103.5h-91.10000000000002v-85.39999999999998h226.70000000000005c1.7000000000000455-6.5 2.6000000000000227-14.5 3.2000000000000455-24.200000000000045 0.2999999999999545-9.699999999999932 0.599999999999909-19.69999999999999 0.599999999999909-30.5 0-21-1.2999999999999545-37.19999999999999-3.8999999999999773-48.599999999999966h-168.29999999999995z"/>
</svg>
