<svg xmlns="http://www.w3.org/2000/svg" viewBox="0 0 1000 1000" width="1000" height="1000">
<path d="M788.5 682.7c-22.399999999999977-22.40000000000009-52.700000000000045-36.40000000000009-86.10000000000002-37.700000000000045h-4.899999999999977c-35.39999999999998 0-67.60000000000002 14.299999999999955-90.70000000000005 37.700000000000045-23.5 23.09999999999991-37.69999999999993 55.299999999999955-37.69999999999993 90.69999999999993 0 18.200000000000045 3.8999999999999773 35.39999999999998 10.799999999999955 51 6.2000000000000455 15 15.600000000000023 28.600000000000023 27 40 23.100000000000023 23.100000000000023 55.30000000000007 37.39999999999998 90.70000000000005 37.39999999999998 71.19999999999993 0 128.39999999999998-57.59999999999991 128.39999999999998-128.39999999999998-0.10000000000002274-35.39999999999998-14.399999999999977-67.60000000000002-37.5-90.69999999999993z m-38 122.59999999999991l-21.100000000000023 21.100000000000023-31.899999999999977-31.899999999999977-31.899999999999977 31.899999999999977-21.100000000000023-21.100000000000023 31.5-31.899999999999977-31.5-31.899999999999977 21.100000000000023-21.100000000000023 31.899999999999977 31.899999999999977 31.899999999999977-31.899999999999977 21.100000000000023 21.100000000000023-31.899999999999977 31.899999999999977 31.899999999999977 31.899999999999977z m-315-605v187.90000000000003h231.10000000000002c4.600000000000023 23.69999999999999 6.7999999999999545 46.5 6.7999999999999545 69 0 23.69999999999999-2.2999999999999545 46.80000000000001-6.7999999999999545 69.90000000000003h-231.10000000000002v129.60000000000002h113.39999999999998c-25 27.899999999999977-40 64.69999999999993-40 105 0 11.399999999999977 1.3000000000000114 22.09999999999991 3.6000000000000227 32.799999999999955h-77v136.5c-28.30000000000001 4.2000000000000455-55 6.5-80 6.5-27.69999999999999 0-55-2.2999999999999545-82.30000000000001-6.5v-136.5h-98.79999999999998v-137.89999999999998h98.79999999999998v-594.1h453.50000000000006c4.199999999999932 22.099999999999994 6.5 44.900000000000006 6.5 67.6 0 24.700000000000017-2.300000000000068 47.80000000000001-6.5 70.20000000000002h-291.20000000000005z"/>
</svg>
