<svg xmlns="http://www.w3.org/2000/svg" viewBox="0 0 1000 1000" width="1000" height="1000">
<path d="M902.2 634c-21.200000000000045-21.200000000000045-49.700000000000045-34.39999999999998-81.40000000000009-35.60000000000002h-4.599999999999909c-33.40000000000009 0-63.90000000000009 13.5-85.70000000000005 35.60000000000002-22.100000000000023 21.799999999999955-35.60000000000002 52.200000000000045-35.60000000000002 85.70000000000005 0 17.09999999999991 3.7000000000000455 33.39999999999998 10.100000000000023 48.19999999999993 5.899999999999977 14.100000000000023 14.700000000000045 27 25.5 37.700000000000045 21.799999999999955 21.799999999999955 52.10000000000002 35.299999999999955 85.70000000000005 35.299999999999955 67.19999999999993 0 121.29999999999995-54.299999999999955 121.29999999999995-121.29999999999995 0-33.5-13.5-63.80000000000007-35.299999999999955-85.60000000000002z m-30.100000000000023 101.60000000000002h-111.70000000000005v-31.899999999999977h111.70000000000005v31.899999999999977z m-329.9-133.20000000000005l-0.40000000000009095 104.39999999999998c0.40000000000009095 43 21.800000000000068 67.80000000000007 59.200000000000045 69.60000000000002 20.299999999999955 1 36.799999999999955-4.899999999999977 48.799999999999955-16.899999999999977 6.7000000000000455 41.700000000000045 31.300000000000068 77.39999999999998 66 98.79999999999995-24 23.600000000000023-54.59999999999991 40.200000000000045-90 45.80000000000007-85.69999999999993 13.5-179.19999999999993-54.30000000000007-189.69999999999993-148.20000000000005-9.200000000000045-80.39999999999998-5.900000000000034-162.69999999999993-7.7000000000000455-244-0.2999999999999545-19.299999999999955 0-38.69999999999999 0-59.5h-49.299999999999955c-19.30000000000001 85.30000000000007-32.200000000000045 170-58 250.70000000000005-26.700000000000045 83.19999999999993-86.90000000000003 145.19999999999993-152.3 204.10000000000002-23.600000000000023-24.90000000000009-47.000000000000014-49.700000000000045-73.30000000000001-77.40000000000009 111.9-97.59999999999991 147.5-229.5999999999999 156.4-378.99999999999994h-189.4v-136h665.4v134.5h-185.69999999999993v153.09999999999997z m132-423.2c0.39999999999997726-28.099999999999994 0.09999999999990905-56.19999999999999 0.09999999999990905-86.1h-555.3v112.70000000000002h552.5c1-9.700000000000017 2.6000000000000227-18.100000000000023 2.7000000000000455-26.600000000000023z"/>
</svg>
