<svg xmlns="http://www.w3.org/2000/svg" viewBox="0 0 1000 1000" width="1000" height="1000">
<path d="M844.8 620.6c-22.5-22.5-52.799999999999955-36.5-86.29999999999995-37.80000000000007h-4.899999999999977c-35.39999999999998 0-67.70000000000005 14.400000000000091-90.80000000000007 37.80000000000007-23.399999999999977 23.100000000000023-37.799999999999955 55.299999999999955-37.799999999999955 90.79999999999995 0 18.200000000000045 3.8999999999999773 35.39999999999998 10.799999999999955 51.10000000000002 6.2000000000000455 15 15.700000000000045 28.600000000000023 27 40.10000000000002 23.100000000000023 23.100000000000023 55.30000000000007 37.39999999999998 90.80000000000007 37.39999999999998 71.29999999999995 0 128.60000000000002-57.60000000000002 128.60000000000002-128.60000000000002 0-35.5-14.200000000000045-67.69999999999993-37.40000000000009-90.79999999999995z m-31.899999999999977 107.69999999999993h-118.5v-33.89999999999998h118.5v33.89999999999998z m21.399999999999977-465.99999999999994h-86.59999999999991c-4.900000000000091-19.200000000000017-11-37.10000000000002-19.200000000000045-52.80000000000001-20.799999999999955-38.80000000000001-47.5-69-80.39999999999998-90.8s-69.70000000000005-36.7-110.39999999999998-44.60000000000001c-41.00000000000006-7.699999999999989-81.10000000000002-11.599999999999994-120.80000000000007-11.599999999999994-38.099999999999966 0-75.89999999999998 1-113 2.9000000000000057-37.5 1.8999999999999915-74.19999999999999 4.5-110.69999999999999 7.5v189.4h-75.19999999999999v54.099999999999966h75.19999999999999v76.20000000000005h-75.19999999999999v54h75.19999999999999v485c15.900000000000006 2.2999999999999545 31.200000000000017 3.8999999999999773 46.60000000000002 4.5 15 1 28.599999999999966 1.2999999999999545 41.599999999999966 1.2999999999999545 13.400000000000034 0 27-0.39999999999997726 41.30000000000001-1.2999999999999545 14.400000000000034-0.6000000000000227 29-2.300000000000068 43.900000000000034-4.5v-274.70000000000005c8.099999999999966 0.6000000000000227 16.599999999999966 1.3000000000000682 25.69999999999999 1.7000000000000455 9.099999999999966 0.6000000000000227 18.899999999999977 0.6000000000000227 29.30000000000001 0.6000000000000227 38.799999999999955 0 78.09999999999997-3.900000000000091 118.10000000000002-11.700000000000045 11.399999999999977-2.2999999999999545 22.09999999999991-5.2000000000000455 32.89999999999998-8.5 22.100000000000023-55.700000000000045 75.19999999999993-95.70000000000005 138-99.29999999999995 6.199999999999932-9.100000000000023 12.100000000000023-18.600000000000023 17.600000000000023-28.600000000000023 10.099999999999909-18.600000000000023 17.59999999999991-40.10000000000002 22.5-64.5h83.5v-54.10000000000002h-76.20000000000005c0.6000000000000227-10.399999999999977 1.2999999999999545-20.80000000000001 1.2999999999999545-31.899999999999977 0-15.300000000000011-0.599999999999909-30.30000000000001-1.8999999999999773-44.30000000000001h76.80000000000007v-54h0.09999999999990905z m-467.49999999999994-52.60000000000002c14.399999999999977-1.299999999999983 25.399999999999977-2.299999999999983 32.89999999999998-3 7.5-0.29999999999998295 15.699999999999989-0.5999999999999943 24.400000000000034-0.5999999999999943 19.899999999999977 0 39 2.5999999999999943 58.299999999999955 7.800000000000011 18.900000000000034 5.199999999999989 35.80000000000007 14 50.5 26.299999999999983 7.5 6.200000000000017 14.399999999999977 13.700000000000017 20.200000000000045 22.100000000000023h-186.3v-52.60000000000002z m165.99999999999994 272.40000000000003c-14.599999999999909 11.699999999999989-31.599999999999966 20.5-50.49999999999994 25.399999999999977-19.19999999999999 5.2000000000000455-38.400000000000034 7.7999999999999545-58.30000000000001 7.7999999999999545h-30.30000000000001c-8.5 0-17.19999999999999-0.599999999999909-27-2.2999999999999545v-66.30000000000001h194.3c-7.7000000000000455 13.900000000000034-16.799999999999955 26-28.200000000000045 35.400000000000034z m45.5-89.60000000000002h-211.49999999999994v-76.19999999999999h208.90000000000003c3.199999999999932 14.399999999999977 5.199999999999932 29.69999999999999 5.199999999999932 46.89999999999998 0.10000000000002274 10.5-1.2999999999999545 19.900000000000034-2.6000000000000227 29.30000000000001z"/>
</svg>
