<svg xmlns="http://www.w3.org/2000/svg" viewBox="0 0 1000 1000" width="1000" height="1000">
<path d="M814.1 718.1c-22.5-22.5-52.80000000000007-36.5-86.30000000000007-37.80000000000007h-4.7999999999999545c-35.5 0-67.70000000000005 14.300000000000068-90.79999999999995 37.80000000000007-23.40000000000009 23.100000000000023-37.80000000000007 55.299999999999955-37.80000000000007 90.79999999999995 0 18.200000000000045 3.8999999999999773 35.39999999999998 10.800000000000068 51.10000000000002 6.199999999999932 15 15.699999999999932 28.600000000000023 27 40.10000000000002 23.09999999999991 23.100000000000023 55.299999999999955 37.39999999999998 90.79999999999995 37.39999999999998 71.29999999999995 0 128.5-57.60000000000002 128.5-128.60000000000002 0.10000000000002274-35.5-14.299999999999955-67.69999999999993-37.39999999999998-90.79999999999995z m-24.100000000000023 60.799999999999955l-78.70000000000005 78.70000000000005c-1.8999999999999773 2.2999999999999545-5.5 2.2999999999999545-7.5 0l-47.89999999999998-48.200000000000045c-2.2999999999999545-1.8999999999999773-2.2999999999999545-5.5 0-7.5l11.399999999999977-11.399999999999977c1.900000000000091-2.2999999999999545 5.5-2.2999999999999545 7.5 0l32.90000000000009 32.5 63.19999999999993-63.200000000000045c2.300000000000068-2.2999999999999545 5.5-2.2999999999999545 7.800000000000068 0l11.399999999999977 11.400000000000091c1.8999999999999773 2.199999999999932 1.8999999999999773 5.7999999999999545-0.10000000000002274 7.699999999999932z m-134.70000000000005-145.69999999999993c-1.2999999999999545-15-4.899999999999977-29.700000000000045-10.099999999999909-43.30000000000007-7.2000000000000455-20.199999999999932-17.600000000000023-37.799999999999955-30.600000000000023-52.799999999999955-13-15.300000000000068-28.600000000000023-27.600000000000023-47.200000000000045-37.80000000000001-18.299999999999955-9.699999999999989-38.5-15.900000000000034-59.599999999999966-18.5v-2.3000000000000114c35.400000000000034-11.399999999999977 64.49999999999994-30.30000000000001 86.59999999999997-56.60000000000002 21.800000000000068-26.299999999999955 32.89999999999998-59.89999999999998 32.89999999999998-100.59999999999997 0-32.19999999999999-6.199999999999932-59.900000000000034-18.5-83-12.099999999999909-23.100000000000023-28.299999999999955-41.60000000000002-48.19999999999993-56.30000000000001-19.5-14.300000000000011-42.30000000000007-25-67.40000000000003-31.19999999999999-10.099999999999966-2.6000000000000227-20.19999999999999-4.5-30.30000000000001-6.200000000000017v-82.1h-83.29999999999995v78.5h-36.700000000000045v-78.5h-83.29999999999995v78.5h-111.80000000000001v718h111.59999999999997v78.5h83.30000000000001v-78.5h36.69999999999999v78.5h83.30000000000001v-83.60000000000002c9.800000000000011-1.2999999999999545 19.19999999999999-2.8999999999999773 28.600000000000023-4.899999999999977 19.5-4.2000000000000455 37.400000000000034-10.100000000000023 54.099999999999966-18.200000000000045-4.899999999999977-15-7.5-31.199999999999932-7.5-47.89999999999998 0.20000000000004547-72.29999999999995 50-133.19999999999993 117.39999999999998-149.69999999999993z m-385.09999999999997-382.80000000000007h101.19999999999999c46.900000000000034 2.842170943040401e-14 80.80000000000001 7.800000000000011 101.60000000000002 23.100000000000023 21.19999999999999 15 31.899999999999977 38.39999999999998 31.899999999999977 69.30000000000001 0 27-10.399999999999977 48.80000000000001-30.899999999999977 65.39999999999998-20.19999999999999 16.69999999999999-51 24.80000000000001-91.69999999999999 24.80000000000001h-112l-0.10000000000002274-182.6z m249.40000000000003 449.80000000000007c-9.800000000000011 14-22.100000000000023 24.799999999999955-37.10000000000002 31.899999999999977-15 7.5-31.19999999999999 12.299999999999955-49.19999999999999 14.299999999999955-17.900000000000034 1.8999999999999773-34.5 2.8999999999999773-50.10000000000002 2.8999999999999773h-113v-206.69999999999993h117.90000000000003c49.799999999999955 0 86.59999999999997 7.5 110.29999999999995 22.100000000000023 23.800000000000068 15 35.39999999999998 41.299999999999955 35.39999999999998 79.09999999999991 0 23.800000000000068-4.899999999999977 42.700000000000045-14.199999999999932 56.40000000000009z"/>
</svg>
