<svg xmlns="http://www.w3.org/2000/svg" viewBox="0 0 1000 1000" width="1000" height="1000">
<path d="M743.5 589.8c-7.399999999999977-20-17.700000000000045-37.5-30.600000000000023-52.799999999999955s-28.699999999999932-27.69999999999999-47.19999999999993-37.5-38.40000000000009-16.100000000000023-59.90000000000009-18.69999999999999v-2.1000000000000227c35.700000000000045-11.5 64.5-30.5 86.60000000000002-56.80000000000001 22.100000000000023-26.399999999999977 33.10000000000002-59.89999999999998 33.10000000000002-100.5 0-32.5-6.2000000000000455-60.19999999999999-18.600000000000023-83.09999999999997-12.299999999999955-23-28.399999999999977-41.70000000000002-48.10000000000002-56.30000000000001-19.799999999999955-14.5-42.39999999999998-25-67.59999999999991-31.400000000000006-10-2.5-20-4.5-30.100000000000023-6v-82.1h-83.30000000000001v78.5h-36.900000000000034v-78.5h-83.29999999999995v78.5h-111.80000000000001v718h111.69999999999999v78.5h83.30000000000001v-78.5h36.89999999999998v78.5h83.30000000000001v-83.60000000000002c9.600000000000023-1.3999999999999773 19.200000000000045-3.1000000000000227 28.700000000000045-5.100000000000023 31.399999999999977-6.699999999999932 59.299999999999955-18.09999999999991 83.59999999999991-34 24.40000000000009-15.799999999999955 43.90000000000009-36.799999999999955 58.90000000000009-62.799999999999955 14.899999999999977-26.100000000000023 22.299999999999955-58.700000000000045 22.299999999999955-97.89999999999998 0.10000000000002274-22.899999999999977-3.6000000000000227-44.5-11-64.30000000000007z m-172.20000000000005-316.49999999999994c21.100000000000023 15.199999999999989 31.600000000000023 38.39999999999998 31.600000000000023 69.39999999999998 0 27-10.199999999999932 48.80000000000001-30.600000000000023 65.5-20.399999999999977 16.600000000000023-51.09999999999991 24.900000000000034-91.89999999999998 24.900000000000034h-112v-182.60000000000002h101.20000000000005c46.69999999999993 0 80.60000000000002 7.600000000000023 101.69999999999993 22.80000000000001z m46.200000000000045 426.99999999999994c-9.700000000000045 13.800000000000068-22.100000000000023 24.5-37 31.90000000000009-15 7.399999999999977-31.299999999999955 12.199999999999932-49.200000000000045 14.199999999999932-17.899999999999977 2.1000000000000227-34.49999999999994 3.1000000000000227-50.099999999999966 3.1000000000000227h-112.80000000000001v-206.89999999999998h117.70000000000005c50 0 86.69999999999993 7.399999999999977 110.39999999999998 22.299999999999955 23.700000000000045 15 35.39999999999998 41.30000000000007 35.39999999999998 79.10000000000002 0.20000000000004547 23.700000000000045-4.699999999999932 42.39999999999998-14.399999999999977 56.299999999999955z"/>
</svg>
