<svg xmlns="http://www.w3.org/2000/svg" viewBox="0 0 1000 1000" width="1000" height="1000">
<path d="M319.6 662.4c0-35.39999999999998-14.300000000000011-67.60000000000002-37.700000000000045-90.60000000000002-22.099999999999966-22.399999999999977-52.69999999999999-36.39999999999998-86.09999999999997-37.69999999999993h-4.600000000000023c-35.79999999999998 0-67.6 14.299999999999955-90.99999999999999 37.69999999999993-23.10000000000001 23-37.7 55.200000000000045-37.7 90.60000000000002 0 18.200000000000045 3.9000000000000057 35.39999999999998 10.799999999999997 51 6.5 15 15.600000000000009 28.600000000000023 26.900000000000006 40 23.39999999999999 23.100000000000023 55.2 37.39999999999998 90.99999999999999 37.39999999999998 70.80000000000001 0 128.40000000000003-57.59999999999991 128.40000000000003-128.39999999999998z m-67.70000000000002 18.800000000000068h-42.30000000000001v41.89999999999998h-37.400000000000006v-41.89999999999998h-41.89999999999998v-37.700000000000045h41.89999999999998v-41.89999999999998h37.400000000000006v41.89999999999998h42.30000000000001v37.700000000000045z m561.4 85c42.90000000000009 0 74.60000000000002-20.100000000000023 96.10000000000002-55.90000000000009 18.399999999999977-31.899999999999977 27.5-64.09999999999991 27.5-95.59999999999991 0-30.90000000000009-14.100000000000023-77.70000000000005-37.799999999999955-129.30000000000007h-3.7000000000000455c-17.100000000000023 21.80000000000001-31.100000000000023 43.80000000000007-44.19999999999993 65.39999999999998 20.399999999999977 41 36.799999999999955 79 41.19999999999993 110.5-13.600000000000023 11.600000000000023-32.60000000000002 18.100000000000023-58.39999999999998 18.100000000000023-23.100000000000023 0-44.5-5.899999999999977-59.200000000000045-16.5-30.09999999999991-23.100000000000023-46.5-56.89999999999998-46.5-143l-1.2999999999999545-115.29999999999995c30.100000000000023-17.200000000000045 61.200000000000045-29.600000000000023 92.39999999999998-29.600000000000023 38.10000000000002 0 69.30000000000007 15.899999999999977 74.60000000000002 59.80000000000001l8.700000000000045 2.599999999999966c10.399999999999977-29.19999999999999 16.399999999999977-58.799999999999955 16.399999999999977-83.79999999999995 0-45.80000000000001-34.10000000000002-68.20000000000005-77.70000000000005-68.20000000000005-34.799999999999955 0-73.29999999999995 15.900000000000034-113.10000000000002 43.200000000000045h-2.3999999999999773c0-99.10000000000002-3.699999999999932-188.8-15.399999999999977-259l-6-1.8000000000000256c-14.700000000000045 19.5-28.100000000000023 38.7-41.200000000000045 59.8 8.700000000000045 98.20000000000002 14.700000000000045 173.50000000000003 17.800000000000068 233.00000000000003-26.100000000000023 20.799999999999955-51.200000000000045 44.5-77 70.5h-3l-8-157.90000000000003 45.19999999999993-43.19999999999999c-34.799999999999955-43.599999999999994-54.89999999999998-84.5-54.89999999999998-117 0-8.5 0-16.299999999999997 1.7000000000000455-25l-8.399999999999977-4.200000000000003c-23.40000000000009 26.700000000000003-51.5 73.2-51.5 96.89999999999999 0 18.600000000000023 9.699999999999932 45.20000000000002 16.09999999999991 72.4 6 56.50000000000003 11.400000000000091 134.79999999999998 17.100000000000023 220.29999999999998-53.89999999999998 58.80000000000007-99.69999999999999 97.5-140.29999999999995 97.5-14.100000000000023 0-35.5-4.199999999999932-48.900000000000034-27.299999999999955-7.399999999999977-12-12.699999999999989-30.899999999999977-12.699999999999989-56.5 0-41.60000000000002 22.399999999999977-93.90000000000003 63.60000000000002-156.60000000000002l-17.80000000000001-12c-54.60000000000002 74.69999999999999-84 148.5-84 221.60000000000002 0 7.7999999999999545 0.6999999999999886 15.600000000000023 1.6999999999999886 22.799999999999955 4.699999999999989 33.200000000000045 19.100000000000023 60.10000000000002 39.19999999999999 77.39999999999998 14.400000000000034 12.300000000000068 32.10000000000002 19.200000000000045 50.60000000000002 19.200000000000045 47.5 0 80.69999999999999-29.600000000000023 133.3-88.39999999999998 8.699999999999932-10.100000000000023 14.100000000000023-17.200000000000045 19.799999999999955-23.700000000000045l2.3999999999999773 1.7000000000000455c3.7000000000000455 48.10000000000002 6 97.5 6 149.19999999999993-4.699999999999932 17.90000000000009-20.09999999999991 38.10000000000002-50.19999999999993 61.80000000000007-36.5 27.899999999999977-76.30000000000001 48.10000000000002-130.20000000000005 48.10000000000002-34.799999999999955 0-64-14-84-36.40000000000009-12.099999999999966 18.600000000000023-37.5 36.90000000000009-62.29999999999998 35.90000000000009 22.799999999999983 62 73.70000000000002 95 146.29999999999998 95 75.30000000000001 0 149.30000000000007-43.60000000000002 194.5-111.10000000000002 15.800000000000068-52.39999999999998 24.100000000000023-108.30000000000007 24.100000000000023-166.5 0-42.60000000000002-1-83.20000000000005-2.3999999999999773-121.20000000000005 22.799999999999955-24.399999999999977 47.89999999999998-49.69999999999999 75.29999999999995-72.39999999999998l2.3999999999999773 1.8999999999999773c2 54.60000000000002 5 106.89999999999998 5 155.70000000000005 0 120.19999999999993 51.90000000000009 177.10000000000002 123.5 177.10000000000002z m48.90000000000009 37.39999999999998l-42.90000000000009 60.799999999999955c25.800000000000068 17.899999999999977 51.5 37.39999999999998 76 59.5 15.400000000000091-17.799999999999955 30.5-36.39999999999998 42.200000000000045-60.10000000000002-23.100000000000023-23.199999999999932-48.200000000000045-43.09999999999991-75.29999999999995-60.19999999999993z m-119.90000000000009 10.600000000000023l-45.299999999999955 60.799999999999955c26.100000000000023 16.5 52.60000000000002 35.39999999999998 78.29999999999995 57.5 17.800000000000068-17.799999999999955 33.5-38.10000000000002 45.200000000000045-60.10000000000002-23.600000000000023-23.100000000000023-50-42.60000000000002-78.20000000000005-58.19999999999993z"/>
</svg>
