<svg xmlns="http://www.w3.org/2000/svg" viewBox="0 0 1000 1000" width="1000" height="1000">
<path d="M716.6 558.7c-7.600000000000023-21.200000000000045-18.200000000000045-39.30000000000007-31.899999999999977-54.200000000000045-13.600000000000023-14.899999999999977-30.300000000000068-27.399999999999977-49.90000000000009-37.5s-41.5-19.899999999999977-65.5-29.399999999999977l-57-21.900000000000034c-9.499999999999943-3.8000000000000114-18.999999999999943-7.800000000000011-28.499999999999943-11.899999999999977-9.5-4.100000000000023-18-9.199999999999989-25.600000000000023-15.199999999999989-7.599999999999966-6-13.599999999999966-13.300000000000011-18-21.900000000000034-4.5-8.599999999999966-6.599999999999966-19.19999999999999-6.599999999999966-31.899999999999977 0-15.800000000000011 2.8999999999999773-28.600000000000023 8.599999999999966-38.5 5.699999999999989-9.800000000000011 12.900000000000034-17.19999999999999 21.900000000000034-22.30000000000001 8.799999999999955-5.100000000000023 18.799999999999955-8.600000000000023 29.899999999999977-10.399999999999977 11.100000000000023-1.900000000000034 22-2.900000000000034 32.700000000000045-2.900000000000034 17.699999999999932 0 33.5 0.8000000000000114 47.5 2.400000000000034 13.899999999999977 1.599999999999966 26.399999999999977 3.6999999999999886 37.5 6.199999999999989 11.099999999999909 2.5 21.5 5.699999999999989 31.299999999999955 9.5s19.5 7.599999999999966 29 11.399999999999977c16.5-35.39999999999998 26.600000000000023-71.6 30.399999999999977-108.19999999999999-31.100000000000023-10.800000000000011-60.60000000000002-19-88.79999999999995-24.69999999999999-15.800000000000068-3.200000000000017-32.200000000000045-5.400000000000006-49.30000000000007-6.800000000000011v-88h-128.49999999999994v96.80000000000001c-3 0.799999999999983-6 1.5999999999999943-8.900000000000034 2.5-28.5 8.599999999999994-52.799999999999955 21.299999999999983-73.09999999999997 38-20.30000000000001 16.799999999999983-36 37.5-47 62.19999999999999-11.100000000000023 24.69999999999999-16.600000000000023 53.19999999999999-16.600000000000023 85.5 0 26.600000000000023 3.3000000000000114 49.39999999999998 10 68.30000000000001 6.600000000000023 19 16 35.30000000000001 28 48.89999999999998 12 13.699999999999989 26.600000000000023 25.400000000000034 43.69999999999999 35.19999999999999s36.400000000000034 18.800000000000068 57.900000000000034 27l57.89999999999998 21.899999999999977c11.400000000000034 4.5 22.5 9 33.30000000000001 13.700000000000045 10.799999999999955 4.7000000000000455 20.399999999999977 10.600000000000023 29 17.600000000000023 8.600000000000023 7 15.5 15.5 20.899999999999977 25.600000000000023 5.300000000000068 10.099999999999909 8 22.799999999999955 8 38 0 30.399999999999977-11.399999999999977 53-34.19999999999993 67.89999999999998-22.800000000000068 14.899999999999977-54.200000000000045 22.299999999999955-94.10000000000002 22.299999999999955-26.600000000000023 0-51.60000000000002-2.699999999999932-75-8.100000000000023-23.400000000000034-5.2999999999999545-48.5-13.5-75-24.199999999999932-7 20.299999999999955-13 40.299999999999955-18 60.299999999999955-5.100000000000023 19.899999999999977-8.600000000000023 39.10000000000002-10.400000000000034 57.5 15.800000000000011 6.300000000000068 31 11.700000000000045 45.60000000000002 16.200000000000045 14.5 4.5 29.30000000000001 8.100000000000023 44.19999999999999 10.899999999999977 14.899999999999977 2.8999999999999773 30.5 4.899999999999977 47 6.2000000000000455 8.399999999999977 0.599999999999909 17.399999999999977 1.099999999999909 26.899999999999977 1.3999999999999773v83.39999999999998h128.39999999999998v-95.10000000000002c4.5-1.1999999999999318 8.900000000000091-2.5 13.200000000000045-3.8999999999999773 32.60000000000002-10.799999999999955 60-25.600000000000023 82.20000000000005-44.60000000000002 22.09999999999991-19 39.09999999999991-41.799999999999955 50.799999999999955-68.39999999999998 11.700000000000045-26.600000000000023 17.600000000000023-56 17.600000000000023-88.29999999999995-0.20000000000004547-31.200000000000045-3.8999999999999773-57.200000000000045-11.5-78.5z"/>
</svg>
