<svg xmlns="http://www.w3.org/2000/svg" viewBox="0 0 1000 1000" width="1000" height="1000">
<path d="M839.5 693.2c-22.5-22.5-52.799999999999955-36.5-86.29999999999995-37.80000000000007h-4.900000000000091c-35.5 0-67.69999999999993 14.399999999999977-90.79999999999995 37.80000000000007-23.5 23.09999999999991-37.799999999999955 55.39999999999998-37.799999999999955 90.79999999999995 0 18.200000000000045 3.8999999999999773 35.5 10.799999999999955 51.10000000000002 6.2000000000000455 15 15.700000000000045 28.699999999999932 27 40.10000000000002 23.100000000000023 23.09999999999991 55.39999999999998 37.5 90.79999999999995 37.5 71.30000000000007 0 128.60000000000002-57.700000000000045 128.60000000000002-128.60000000000002 0-35.5-14.299999999999955-67.80000000000007-37.39999999999998-90.89999999999998z m-38.200000000000045 122.79999999999995l-21.199999999999932 21.200000000000045-31.899999999999977-31.90000000000009-31.90000000000009 31.90000000000009-21.09999999999991-21.200000000000045 31.59999999999991-31.899999999999977-31.59999999999991-31.899999999999977 21.199999999999932-21.200000000000045 31.899999999999977 31.899999999999977 31.90000000000009-31.899999999999977 21.199999999999932 21.200000000000045-31.899999999999977 31.899999999999977 31.799999999999955 31.899999999999977z m-408.29999999999995-520.1c-4.600000000000023 16.30000000000001-6.800000000000011 32.200000000000045-6.800000000000011 47.5 0 23.5 1.3000000000000114 43.900000000000034 3.1999999999999886 60.900000000000034 1.900000000000034 17 4.600000000000023 33.89999999999998 7.800000000000011 51.099999999999966h189.90000000000003c2.2999999999999545 13 3.8999999999999773 24.80000000000001 4.899999999999977 35.200000000000045 0.6000000000000227 10.799999999999955 1.2999999999999545 21.5 1.2999999999999545 32.89999999999998 0 10.399999999999977-0.599999999999909 20.799999999999955-1.2999999999999545 30.299999999999955-1 9.800000000000068-2.6000000000000227 20.800000000000068-4.899999999999977 32.90000000000009h-169.10000000000002c0.6000000000000227 6.5 1.6999999999999886 13.399999999999977 2.3000000000000114 20.799999999999955 1 7.2000000000000455 1.3000000000000114 14.399999999999977 1.3000000000000114 20.5 0 27.700000000000045-1.900000000000034 53.39999999999998-6.2000000000000455 77.5-3.8999999999999773 23.799999999999955-13 50.10000000000002-26.69999999999999 78.5h185.00000000000006c-0.40000000000009095 4.600000000000023-0.6000000000000227 9.100000000000023-0.6000000000000227 13.700000000000045 0 63.19999999999993 39.10000000000002 117.5 94.39999999999998 139.79999999999995h-527l-4.900000000000006-17.200000000000045 15.700000000000017-13.399999999999977c17.19999999999999-14.600000000000023 31.599999999999994-32.19999999999993 43.29999999999998-53.39999999999998 11.700000000000017-21.200000000000045 21.200000000000017-43 28.700000000000017-65.79999999999995 7.199999999999989-22.800000000000068 12.699999999999989-45 16.299999999999983-66.40000000000009 3.5999999999999943-21.5 5.5-39.39999999999998 5.5-54.09999999999991 0-13-0.5999999999999943-26.100000000000023-1.9000000000000057-39.40000000000009-1-13.699999999999932-2.5999999999999943-27-4.199999999999989-41h-109.4c-2.5999999999999943-12.699999999999932-4.199999999999989-24.799999999999955-4.8999999999999915-35.19999999999993-1-10.399999999999977-1.2999999999999972-21.5-1.2999999999999972-32.89999999999998 0-10.400000000000034 0.3999999999999915-20.500000000000057 1.2999999999999972-30.300000000000068 0.5999999999999943-9.799999999999955 2.299999999999997-20.799999999999955 4.8999999999999915-32.89999999999998h88.9c-3.1999999999999886-21.19999999999999-5.900000000000006-42-8.099999999999994-62.80000000000001-1.9000000000000057-20.5-3-41.39999999999998-3-62.599999999999966 0-33.30000000000001 5.900000000000006-66.10000000000002 17.599999999999994-98.00000000000003 11.699999999999989-31.900000000000006 29.900000000000006-60.599999999999994 54.39999999999998-85.69999999999999 24.100000000000023-25.400000000000006 54.700000000000045-45.60000000000001 91.80000000000001-60.900000000000006 36.80000000000001-15.5 80.69999999999999-23 131.8-23 44.60000000000002 0 82.39999999999998 3.200000000000003 113.29999999999995 9.799999999999997 30.600000000000023 6.5 59.90000000000009 15.299999999999997 87.60000000000002 26.700000000000003-1.6999999999999318 18.599999999999994-5.2999999999999545 40.30000000000001-11.100000000000023 65.1-5.5 24.80000000000001-15 50.099999999999994-28 75.9-22.799999999999955-8.800000000000011-44.59999999999991-16.599999999999994-65.79999999999995-23.099999999999994-20.799999999999955-6.5-47.89999999999998-9.800000000000011-80.20000000000005-9.800000000000011-25.099999999999966 0-46.19999999999993 4.599999999999994-63.49999999999994 13-17 8.5-30.600000000000023 19.30000000000001-40.69999999999999 32.20000000000002-10 13.099999999999966-17.100000000000023 27.30000000000001-21.600000000000023 43.599999999999966z"/>
</svg>
