<svg xmlns="http://www.w3.org/2000/svg" viewBox="0 0 1000 1000" width="1000" height="1000">
<path d="M844.1 684c-22-22.299999999999955-52.39999999999998-36.200000000000045-85.80000000000007-37.5h-4.5c-35.59999999999991 0-67.29999999999995 14.299999999999955-90.59999999999991 37.5-22.90000000000009 22.899999999999977-37.5 54.89999999999998-37.5 90.20000000000005 0 18.09999999999991 3.8999999999999773 35.299999999999955 10.699999999999932 50.799999999999955 6.5 14.899999999999977 15.5 28.399999999999977 26.899999999999977 39.799999999999955 23.300000000000068 22.90000000000009 54.90000000000009 37.200000000000045 90.60000000000002 37.200000000000045 70.5 0 127.80000000000007-57.200000000000045 127.80000000000007-127.79999999999995-0.10000000000002274-35.200000000000045-14.300000000000068-67.20000000000005-37.60000000000002-90.20000000000005z m-29.800000000000068 109h-42.09999999999991v41.700000000000045h-37.200000000000045v-41.700000000000045h-41.700000000000045v-37.5h41.700000000000045v-41.700000000000045h37.200000000000045v41.700000000000045h42.09999999999991v37.5z m-191.5999999999999-344.6l208.29999999999995-378.79999999999995c-34-4.800000000000026-65.70000000000005-7.100000000000023-95.5-7.100000000000023-32.39999999999998 0-63.700000000000045 2.299999999999997-94.39999999999998 7.099999999999994l-161.10000000000002 339.70000000000005-163.7-339.70000000000005c-31.30000000000001-4.800000000000026-62.70000000000002-7.100000000000023-94.20000000000002-7.100000000000023-34.69999999999999 0-69.19999999999999 2.299999999999997-104.1 7.099999999999994l208.3 378.79999999999995h-147.4c-1.5999999999999943 6.5-2.9000000000000057 14.300000000000011-3.5999999999999943 23.600000000000023-1 9.399999999999977-1.3000000000000114 18.69999999999999-1.3000000000000114 28.399999999999977 0 10.700000000000045 0.4000000000000057 20.399999999999977 1.3000000000000114 29.399999999999977 0.5999999999999943 8.800000000000068 1.8999999999999773 16.200000000000045 3.5999999999999943 21.700000000000045h205.70000000000002v85.39999999999998h-205.70000000000002c-1.5999999999999943 6.5-2.9000000000000057 14.300000000000068-3.5999999999999943 23.600000000000023-1 9.399999999999977-1.3000000000000114 18.700000000000045-1.3000000000000114 28.799999999999955 0 10.300000000000068 0.4000000000000057 20 1.3000000000000114 29.100000000000023 0.5999999999999943 9 1.8999999999999773 16.200000000000045 3.5999999999999943 22h205.70000000000002v190.89999999999998c15.799999999999955 2.6000000000000227 31.099999999999966 4.2000000000000455 45.89999999999998 4.800000000000068 14.899999999999977 1 29.399999999999977 1.2999999999999545 43.30000000000001 1.2999999999999545 14.899999999999977 0 29.399999999999977-0.2999999999999545 43.99999999999994-1.2999999999999545 14.5-0.6000000000000227 30.100000000000023-2.300000000000068 46.60000000000002-4.800000000000068v-190.79999999999995h25.5c4.800000000000068-44 29.800000000000068-81.5 65.60000000000002-103.5h-91.10000000000002v-85.39999999999998h226.70000000000005c1.6999999999999318-6.5 2.6000000000000227-14.5 3.199999999999932-24.200000000000045 0.40000000000009095-9.699999999999932 0.6000000000000227-19.69999999999999 0.6000000000000227-30.5 0-21-1.2999999999999545-37.19999999999999-3.8999999999999773-48.599999999999966l-168.29999999999995 0.0999999999999659z"/>
</svg>
