<svg xmlns="http://www.w3.org/2000/svg" viewBox="0 0 1000 1000" width="1000" height="1000">
<path d="M522.4 734.9c0-45.19999999999993 18.399999999999977-86.39999999999998 48-116.10000000000002 16.800000000000068-16.799999999999955 37.5-29.5 60.39999999999998-37.69999999999993-1.6999999999999318-8-3.599999999999909-15.600000000000023-6-22.399999999999977-7.599999999999909-21.200000000000045-18.199999999999932-39.30000000000007-31.899999999999977-54.200000000000045-13.600000000000023-14.899999999999977-30.299999999999955-27.399999999999977-49.89999999999998-37.5-19.600000000000023-10.100000000000023-41.5-19.899999999999977-65.5-29.399999999999977l-57-21.900000000000034c-9.5-3.8000000000000114-19-7.800000000000011-28.5-11.899999999999977s-18-9.199999999999989-25.600000000000023-15.199999999999989c-7.599999999999966-6-13.699999999999989-13.300000000000011-18-21.900000000000034-4.5-8.599999999999966-6.599999999999966-19.19999999999999-6.599999999999966-31.899999999999977 0-15.800000000000011 2.8999999999999773-28.600000000000023 8.599999999999966-38.5 5.7000000000000455-9.800000000000011 12.900000000000034-17.19999999999999 21.900000000000034-22.30000000000001 8.800000000000011-5.100000000000023 18.80000000000001-8.600000000000023 29.899999999999977-10.399999999999977 11.100000000000023-1.900000000000034 22-2.900000000000034 32.69999999999999-2.900000000000034 17.80000000000001 0 33.5 0.8000000000000114 47.5 2.400000000000034 13.900000000000034 1.599999999999966 26.400000000000034 3.6999999999999886 37.5 6.199999999999989 11.100000000000023 2.5 21.5 5.699999999999989 31.300000000000068 9.5s19.5 7.599999999999966 29 11.399999999999977c16.5-35.39999999999998 26.59999999999991-71.6 30.399999999999977-108.19999999999999-31.100000000000023-10.800000000000011-60.60000000000002-19-88.80000000000007-24.69999999999999-15.799999999999955-3.200000000000017-32.19999999999993-5.400000000000006-49.299999999999955-6.800000000000011v-88h-128.5v96.80000000000001c-3 0.799999999999983-6 1.5999999999999943-8.899999999999977 2.5-28.5 8.599999999999994-52.80000000000001 21.19999999999999-73.10000000000002 38s-36 37.5-47 62.19999999999999c-11.099999999999994 24.69999999999999-16.599999999999994 53.19999999999999-16.599999999999994 85.5 0 26.600000000000023 3.299999999999983 49.39999999999998 10 68.30000000000001 6.699999999999989 19 16 35.30000000000001 28 48.89999999999998 12 13.699999999999989 26.599999999999994 25.400000000000034 43.70000000000002 35.19999999999999s36.39999999999998 18.800000000000068 57.89999999999998 27l57.89999999999998 21.899999999999977c11.400000000000034 4.5 22.5 9 33.200000000000045 13.700000000000045 10.799999999999955 4.7000000000000455 20.399999999999977 10.600000000000023 29 17.600000000000023 8.599999999999966 7 15.5 15.5 20.899999999999977 25.600000000000023 5.300000000000011 10.099999999999909 8.100000000000023 22.799999999999955 8.100000000000023 38 0 30.399999999999977-11.400000000000034 53-34.200000000000045 67.89999999999998-22.799999999999955 14.899999999999977-54.19999999999999 22.299999999999955-94.09999999999997 22.299999999999955-26.600000000000023 0-51.60000000000002-2.699999999999932-75-8.100000000000023-23.5-5.2999999999999545-48.5-13.5-75-24.199999999999932-7 20.299999999999955-12.900000000000006 40.299999999999955-18 60.299999999999955-5.100000000000023 19.899999999999977-8.600000000000023 39.10000000000002-10.400000000000006 57.5 15.799999999999983 6.300000000000068 31 11.700000000000045 45.599999999999994 16.200000000000045 14.5 4.5 29.30000000000001 8.100000000000023 44.19999999999999 10.899999999999977 14.900000000000034 2.8999999999999773 30.5 4.899999999999977 47 6.2000000000000455 8.400000000000034 0.599999999999909 17.400000000000034 1.099999999999909 26.900000000000034 1.3999999999999773v83.39999999999998h128.39999999999998v-95.10000000000002c4.5-1.1999999999999318 8.899999999999977-2.5 13.199999999999989-3.8999999999999773 21.19999999999999-7 40.00000000000006-15.899999999999977 56.80000000000001-26.399999999999977-2.1000000000000227-3.8999999999999773-4.7000000000000455-7.600000000000023-6.5-11.800000000000068-8.799999999999955-20-13.600000000000023-42.09999999999991-13.600000000000023-65.39999999999998z m261.1-89.89999999999998c-22.299999999999955-22.299999999999955-52.39999999999998-36.200000000000045-85.70000000000005-37.5h-4.7999999999999545c-35.299999999999955 0-67.29999999999995 14.299999999999955-90.20000000000005 37.5-23.299999999999955 22.899999999999977-37.5 54.89999999999998-37.5 90.20000000000005 0 18.09999999999991 3.900000000000091 35.299999999999955 10.700000000000045 50.799999999999955 6.100000000000023 14.899999999999977 15.5 28.399999999999977 26.899999999999977 39.700000000000045 22.899999999999977 22.899999999999977 55 37.19999999999993 90.20000000000005 37.19999999999993 70.79999999999995 0 127.79999999999995-57.19999999999993 127.79999999999995-127.79999999999995-0.1999999999999318-35.200000000000045-14.399999999999977-67.20000000000005-37.39999999999998-90.10000000000002z m-37.799999999999955 121.89999999999998l-21 21-31.700000000000045-31.699999999999932-31.700000000000045 31.699999999999932-21-21 31.300000000000068-31.699999999999932-31.300000000000068-31.700000000000045 21-21 31.700000000000045 31.700000000000045 31.700000000000045-31.700000000000045 21 21-31.700000000000045 31.700000000000045 31.700000000000045 31.699999999999932z"/>
</svg>
