<svg xmlns="http://www.w3.org/2000/svg" viewBox="0 0 1000 1000" width="1000" height="1000">
<path d="M858.4 692.9c-21.899999999999977-22.100000000000023-52-36-85-37.299999999999955h-4.5c-35.299999999999955 0-66.79999999999995 14.100000000000023-89.89999999999998 37.299999999999955-22.799999999999955 22.800000000000068-37.299999999999955 54.60000000000002-37.299999999999955 89.60000000000002 0 18 3.7999999999999545 35 10.599999999999909 50.39999999999998 6.400000000000091 14.800000000000068 15.400000000000091 28.300000000000068 26.700000000000045 39.5 23.100000000000023 22.800000000000068 54.60000000000002 36.89999999999998 89.89999999999998 36.89999999999998 70 0 126.89999999999998-56.89999999999998 126.89999999999998-126.89999999999998-0.1999999999999318-34.89999999999998-14.299999999999955-66.60000000000002-37.39999999999998-89.5z m-29.5 108.30000000000007h-41.69999999999993v41.39999999999998h-36.90000000000009v-41.39999999999998h-41.39999999999998v-37.30000000000007h41.39999999999998v-41.39999999999998h36.90000000000009v41.39999999999998h41.69999999999993v37.30000000000007z m-430.59999999999997-504.90000000000003c-4.5 16.399999999999977-6.699999999999989 32.099999999999966-6.699999999999989 47.5 0 3.8000000000000114 0 7.099999999999966 0.2999999999999545 10.599999999999966h174.39999999999998c2.5 12.900000000000034 3.800000000000068 24.80000000000001 4.800000000000068 34.60000000000002 1 10.600000000000023 1.2999999999999545 21.5 1.2999999999999545 32.5 0 10.199999999999989-0.2999999999999545 20.600000000000023-1.2999999999999545 30.19999999999999-1 9-2.300000000000068 19.900000000000034-4.800000000000068 31.80000000000001h-159.19999999999993l10.199999999999989 63.60000000000002h148.99999999999994c2.5 12.899999999999977 3.800000000000068 24.399999999999977 4.800000000000068 34.60000000000002 1 10.199999999999932 1.2999999999999545 21.199999999999932 1.2999999999999545 32.09999999999991 0 10.600000000000023-0.2999999999999545 20.600000000000023-1.2999999999999545 30.200000000000045-1 9.299999999999955-2.300000000000068 20.200000000000045-4.800000000000068 32.10000000000002h-141.59999999999997c-1 10-1.8999999999999773 19.899999999999977-3.5 29.600000000000023-4.199999999999989 24.09999999999991-13.099999999999966 50-26.899999999999977 78.69999999999993h207.7c-0.2999999999999545 3.2000000000000455-0.2999999999999545 6.7000000000000455-0.2999999999999545 10 0 64.20000000000005 39.19999999999993 119.39999999999998 94.79999999999995 143.20000000000005h-553.7l-4.7999999999999545-17.100000000000023 16-13.5c17.30000000000001-14.399999999999977 31.80000000000001-32.5 43.69999999999999-53.299999999999955 11.900000000000006-21.300000000000068 21.5-43.10000000000002 28.900000000000006-65.90000000000009 7.300000000000011-22.799999999999955 12.900000000000006-45 16.700000000000017-66.5 2.8999999999999773-17.699999999999932 4.5-32.5 5.199999999999989-45.19999999999993h-137.6c-2.9000000000000057-11.899999999999977-4.200000000000003-22.800000000000068-5.200000000000003-32.10000000000002-0.6000000000000085-9.600000000000023-1.2999999999999972-19.600000000000023-1.2999999999999972-30.200000000000045 0-10.899999999999977 0.5999999999999943-21.899999999999977 1.2999999999999972-32.09999999999991 1-10.200000000000045 2.299999999999997-21.90000000000009 5.200000000000003-34.60000000000002h125.19999999999999l-10-63.60000000000002h-115.19999999999999c-2.9000000000000057-11.899999999999977-4.200000000000003-22.80000000000001-5.200000000000003-31.80000000000001-0.6000000000000085-9.599999999999966-1.2999999999999972-19.899999999999977-1.2999999999999972-30.19999999999999 0-10.899999999999977 0.5999999999999943-21.899999999999977 1.2999999999999972-32.5 1-10 2.299999999999997-21.899999999999977 5.200000000000003-34.60000000000002h100.79999999999998c-0.29999999999998295-8-1.299999999999983-16-1.299999999999983-24.099999999999966 0-33.400000000000034 6.099999999999994-65.80000000000001 18-97.9 11.900000000000006-32.099999999999994 30.200000000000017-60.70000000000002 54.599999999999994-85.70000000000002 24.80000000000001-24.999999999999986 55.89999999999998-45.599999999999994 93.10000000000002-60.999999999999986 37.299999999999955-15.5 81.89999999999998-23.200000000000003 133.59999999999997-23.200000000000003 45.00000000000006 0 83.09999999999997 3.200000000000003 114.30000000000001 10 31.200000000000045 6.400000000000006 61.10000000000002 15.400000000000006 88.60000000000002 26.599999999999994-1.6000000000000227 18.60000000000001-5.2000000000000455 40.400000000000006-10.899999999999977 65.20000000000002-5.800000000000068 24.799999999999983-15 50-28.300000000000068 76.1-23.100000000000023-9-45.19999999999993-16.700000000000017-66.5-23.099999999999994-21.5-6.700000000000017-48.5-10-81.19999999999993-10-25.400000000000034 0-46.900000000000034 4.5-64.20000000000005 12.899999999999977-17 8.700000000000017-30.80000000000001 19.200000000000017-41.10000000000002 32.5-10.199999999999989 12.699999999999989-17.599999999999966 27.19999999999999-22.099999999999966 43.60000000000002z"/>
</svg>
