<svg xmlns="http://www.w3.org/2000/svg" viewBox="0 0 1000 1000" width="1000" height="1000">
<path d="M410.6 472.3c-22.30000000000001-22.30000000000001-52.30000000000001-36.19999999999999-85.70000000000005-37.5h-4.7999999999999545c-35.200000000000045 0-67.20000000000002 14.199999999999989-90.10000000000002 37.5-23.30000000000001 22.899999999999977-37.5 54.99999999999994-37.5 90.09999999999997 0 18.100000000000023 3.9000000000000057 35.200000000000045 10.699999999999989 50.80000000000007 6.100000000000023 14.899999999999977 15.5 28.399999999999977 26.80000000000001 39.69999999999993 22.900000000000006 22.899999999999977 55 37.200000000000045 90.10000000000002 37.200000000000045 70.79999999999995 0 127.69999999999999-57.200000000000045 127.69999999999999-127.70000000000005-0.10000000000002274-35.10000000000002-14.300000000000011-67.09999999999997-37.19999999999999-90.09999999999997z m-31.700000000000045 106.99999999999994h-117.59999999999997v-33.59999999999991h117.59999999999997v33.59999999999991z m392.1-216.29999999999995c-28.100000000000023-84-60.10000000000002-126-95-126-39.700000000000045 0-84.70000000000005 29.399999999999977-134.79999999999995 88.89999999999998-47.900000000000034 56.30000000000001-71.40000000000003 100.5-71.40000000000003 132.8 0 18.69999999999999 12.599999999999966 35.30000000000001 38.19999999999999 50.10000000000002 22.899999999999977 13.199999999999989 44.299999999999955 19.999999999999943 63.60000000000002 19.999999999999943 38.19999999999993 0 72.39999999999998-11.299999999999955 102.10000000000002-33.599999999999966l44.59999999999991-55.19999999999999c14.200000000000045 29.80000000000001 22.90000000000009 52.30000000000001 27.100000000000023 67.80000000000001 8.100000000000023 24.599999999999966 12 54.30000000000001 11 89.49999999999994h-276c-2.599999999999966 38.200000000000045-22.299999999999955 71.80000000000007-51.69999999999999 93.10000000000002h326.40000000000003c20.399999999999977 0 37.799999999999955-51.69999999999993 52.299999999999955-155.39999999999998 0.10000000000002274-45.10000000000002-11.799999999999955-102.30000000000001-36.39999999999998-172z m-157.10000000000002 69.69999999999999c-13 0-22.299999999999955-1.3000000000000114-28.100000000000023-3.8999999999999773-30.399999999999977-17.19999999999999-45.89999999999998-30.69999999999999-45.89999999999998-40.69999999999999 3.2000000000000455-12 13.600000000000023-26.200000000000045 31.700000000000045-43.30000000000001 17.799999999999955-17.19999999999999 32.299999999999955-25.600000000000023 43.69999999999993-25.600000000000023 13.200000000000045-1.599999999999966 30 9.400000000000034 50.80000000000007 33.30000000000001 18.699999999999932 21.600000000000023 31.100000000000023 42.60000000000002 38.19999999999993 62.69999999999999-22.199999999999932 11.699999999999989-51.89999999999998 17.5-90.39999999999998 17.5z m-11.899999999999977 301.40000000000003v176l-71.60000000000002 27.399999999999977v-179.5l71.60000000000002-23.899999999999977z m-5.2000000000000455-616.7l-16.699999999999932 92.20000000000002-99.10000000000002-54.79999999999998 16.600000000000023-92.4 99.19999999999993 55z"/>
</svg>
