<svg xmlns="http://www.w3.org/2000/svg" viewBox="0 0 1000 1000" width="1000" height="1000">
<path d="M611.8 664.5h-154.59999999999997v-86.20000000000005h1.1000000000000227c33 0 105.80000000000001-2.599999999999909 146.09999999999997-12 33.80000000000007-7.7999999999999545 64.70000000000005-19.799999999999955 92.60000000000002-38.89999999999998 27.600000000000023-19.19999999999999 50-45.39999999999998 67.5-78.5 17.600000000000023-33.099999999999966 26.200000000000045-76.19999999999999 26.200000000000045-129.7 0-53.19999999999999-8.700000000000045-96.6-26.200000000000045-130s-40.299999999999955-59.29999999999998-68.20000000000005-78.1c-27.799999999999955-18.799999999999997-59.19999999999993-31.799999999999997-94.09999999999991-38.599999999999994-34.60000000000002-6.700000000000003-68.90000000000009-10-102.60000000000002-10-32.400000000000034 0-64.40000000000003 0.6000000000000014-96.10000000000002 2.299999999999997-31.69999999999999 1.9000000000000057-63.10000000000002 4.200000000000003-94.10000000000002 6.799999999999997v383.9h-82.29999999999998v0.10000000000002274h-12.099999999999994c-3.6999999999999886 19.899999999999977-5.599999999999994 40.599999999999966-5.599999999999994 61.89999999999998 0 20.600000000000023 1.799999999999983 40.89999999999998 5.599999999999994 60.799999999999955h94.5v86.30000000000007h-94.5c-3.6999999999999886 20-5.599999999999994 40.60000000000002-5.599999999999994 61.89999999999998 0 20.700000000000045 1.799999999999983 41 5.599999999999994 60.799999999999955h94.5v145.5c13.5 1.900000000000091 26.600000000000023 3.2000000000000455 39.39999999999998 3.900000000000091 12.800000000000011 0.599999999999909 24.700000000000045 1 35.5 1 11.200000000000045 0 23-0.40000000000009095 35.30000000000001-1 12.199999999999989-0.6000000000000227 24.69999999999999-1.900000000000091 37.400000000000034-3.900000000000091v-145.5999999999999h313.9c3.7999999999999545-19.90000000000009 5.600000000000023-40.5 5.600000000000023-61.80000000000007 0-20.600000000000023-1.8000000000000682-40.89999999999998-5.600000000000023-60.89999999999998h-159.20000000000005z m-154.59999999999997-475.2c12.199999999999989-1.3000000000000114 21.400000000000034-2.3000000000000114 27.80000000000001-2.6000000000000227s13.5-0.29999999999998295 20.80000000000001-0.29999999999998295c16.599999999999966 0 33.30000000000001 2.299999999999983 49.400000000000034 6.5 16.399999999999977 4.599999999999994 30.699999999999932 12 43.19999999999993 22.69999999999999 12.5 10.400000000000006 22.399999999999977 24.700000000000017 29.800000000000068 41.79999999999998 7.399999999999977 17.5 11.199999999999932 38.900000000000034 11.199999999999932 64.20000000000005 0 24.299999999999955-3.8999999999999773 45.099999999999966-11.199999999999932 62-7.400000000000091 16.5-17.300000000000068 30.19999999999999-29.800000000000068 40.5-12.5 10.099999999999966-26.600000000000023 19.19999999999999-42.89999999999998 23.799999999999955-16 4.2000000000000455-36.799999999999955 9.5-98.30000000000001 7.7000000000000455v-266.3z"/>
</svg>
