<svg xmlns="http://www.w3.org/2000/svg" viewBox="0 0 1000 1000" width="1000" height="1000">
<path d="M797.1 703c-22.399999999999977-22.399999999999977-52.5-36.299999999999955-85.80000000000007-37.60000000000002h-4.899999999999977c-35.299999999999955 0-67.39999999999998 14.300000000000068-90.39999999999998 37.60000000000002-23.399999999999977 23-37.60000000000002 55.10000000000002-37.60000000000002 90.39999999999998 0 18.100000000000023 3.800000000000068 35.30000000000007 10.700000000000045 50.80000000000007 6.100000000000023 14.899999999999977 15.600000000000023 28.5 26.899999999999977 39.89999999999998 23 23 55.10000000000002 37.299999999999955 90.39999999999998 37.299999999999955 71 0 128-57.39999999999998 128-128-0.10000000000002274-35.39999999999998-14.299999999999955-67.39999999999998-37.299999999999955-90.39999999999998z m-37.89999999999998 122.10000000000002l-21.100000000000023 21.100000000000023-31.800000000000068-31.800000000000068-31.799999999999955 31.800000000000068-21.100000000000023-21.100000000000023 31.399999999999977-31.800000000000068-31.399999999999977-31.799999999999955 21.100000000000023-21.100000000000023 31.799999999999955 31.800000000000068 31.800000000000068-31.800000000000068 21.100000000000023 21.100000000000023-31.800000000000068 31.799999999999955 31.800000000000068 31.800000000000068z m-30.200000000000045-569.7c3.2000000000000455 16.5 5.2000000000000455 33.700000000000045 5.2000000000000455 50.80000000000001 0 18.100000000000023-1.900000000000091 35.30000000000001-5.2000000000000455 52.10000000000002h-121.20000000000005c-9.699999999999932 59.599999999999966-36.89999999999998 107.89999999999998-81.39999999999998 145.5-44.69999999999999 36.900000000000034-102.69999999999999 59.900000000000034-174.39999999999998 68.09999999999997 48 50.200000000000045 108 117.60000000000002 180 202.60000000000002-1 6.5-1.2999999999999545 12.899999999999977-1.2999999999999545 19.799999999999955 0 61.60000000000002 33.69999999999993 115.10000000000002 83.59999999999991 143.20000000000005h-111.09999999999997c-6.800000000000011 0-12-2.6000000000000227-15.800000000000011-7.399999999999977-129-152.39999999999998-233.7-270.30000000000007-314.4-355-3.8000000000000114-3.800000000000068-5.900000000000006-8.399999999999977-5.900000000000006-13.600000000000023v-79c0-5.199999999999989 1.9000000000000057-10.100000000000023 6.099999999999994-13.899999999999977 3.8000000000000114-3.8000000000000114 8.700000000000017-5.900000000000034 14.300000000000011-5.900000000000034h70.60000000000002c55.39999999999998 0 100.09999999999997-9.099999999999966 134.09999999999997-26.899999999999977 33.69999999999999-17.5 55.400000000000034-43.400000000000034 64.80000000000001-77.40000000000003h-287.2c-3.200000000000017-16.899999999999977-4.900000000000006-34-4.900000000000006-52.099999999999966 0-17.100000000000023 1.6999999999999886-34.400000000000034 4.900000000000006-50.80000000000001h78.69999999999999v-0.5h199.60000000000002c-24-46.599999999999994-80.40000000000003-70-169.10000000000002-70h-109.19999999999999c-3.200000000000017-20.099999999999994-4.900000000000006-40.5-4.900000000000006-61.599999999999994 0-14.900000000000006 1-29.5 2.5999999999999943-44.10000000000001v-1.2999999999999972l2.3000000000000114-15.600000000000001h559.3c3.2000000000000455 16.9 5.2000000000000455 34.00000000000001 5.2000000000000455 51.199999999999996 0 17.80000000000001-1.8999999999999773 35.30000000000001-5.199999999999932 52.099999999999994h-163.5c19.799999999999955 24.900000000000006 33.10000000000002 54.80000000000001 40.19999999999993 89.4l123.20000000000005 0.30000000000001137z"/>
</svg>
