<svg xmlns="http://www.w3.org/2000/svg" viewBox="0 0 1000 1000" width="1000" height="1000">
<path d="M401.4 814.9c6.300000000000011-31.600000000000023 13-59.299999999999955 20.400000000000034-84.60000000000002 3.599999999999966-12.299999999999955 8.899999999999977-28.299999999999955 18.69999999999999-43.5l4.600000000000023-7.199999999999932c3.8999999999999773-6.100000000000023 7.7999999999999545-12.200000000000045 11.799999999999955-18.300000000000068 2.400000000000034-3.599999999999909 5.100000000000023-6.399999999999977 7.600000000000023-8.5 2.1000000000000227-3 4.600000000000023-5.699999999999932 7.5-8 3.3000000000000114-2.599999999999909 7.100000000000023-4.899999999999977 11.399999999999977-6.699999999999932 26.80000000000001-11.200000000000045 55.10000000000002-11.700000000000045 82.20000000000005-1.1000000000000227 5.5 2.1000000000000227 10.199999999999932 5.5 13.899999999999977 9.600000000000023h26.799999999999955c1.6000000000000227-1.3999999999999773 3.300000000000068-2.7000000000000455 5-3.8999999999999773v-238.40000000000003l-380.09999999999997-80.5-56.69999999999999-4.699999999999989v672l219.8-0.10000000000002274c-7.600000000000023-14.700000000000045-9.199999999999989-29.100000000000023-9.300000000000011-42.10000000000002-0.19999999999998863-14.699999999999932 0.6000000000000227-30.399999999999977 2.3000000000000114-46.5 3.3000000000000114-31.199999999999932 8.899999999999977-61.799999999999955 14.099999999999966-87.5z m-170.59999999999997 112.60000000000002c-0.5 0-1.1000000000000227-0.10000000000002274-1.700000000000017-0.2999999999999545-5.799999999999983-1.6000000000000227-11.599999999999994-3.300000000000068-17.5-5-0.5-0.20000000000004547-0.6999999999999886 0-0.6999999999999886 0.39999999999997726v4.399999999999977l-2.5999999999999943-0.7000000000000455c-0.10000000000002274 0-0.20000000000001705-0.2999999999999545-0.30000000000001137-0.5v-4c0-0.39999999999997726-0.09999999999999432-0.599999999999909-0.5999999999999943-0.6999999999999318-0.700000000000017-0.10000000000002274-1.4000000000000057-0.39999999999997726-2.200000000000017-0.6000000000000227v-5l2.3000000000000114 0.7000000000000455c0.4000000000000057 0.09999999999990905 0.5999999999999943 0 0.5999999999999943-0.3000000000000682v-25.299999999999955c0-0.5 0-0.8999999999999773 0.09999999999999432-1.3000000000000682 0.30000000000001137-1.099999999999909 1.4000000000000057-1.099999999999909 2.4000000000000057 0l0.9000000000000057 1.2000000000000455 14.699999999999989 24.899999999999977c1.700000000000017 2.800000000000068 3.3000000000000114 5.600000000000023 4.900000000000006 8.300000000000068 0.5 0.8999999999999773 1 1.7999999999999545 0.9000000000000057 2.699999999999932 0 0.7000000000000455-0.30000000000001137 1.1000000000000227-1.1999999999999886 1.1000000000000227z m1.299999999999983-22c-0.9000000000000057-0.20000000000004547-1.5999999999999943-0.5-2.299999999999983-0.7000000000000455-0.10000000000002274 0-0.30000000000001137-0.2999999999999545-0.4000000000000057-0.39999999999997726v-13c0-0.39999999999997726 0-0.7999999999999545-0.09999999999999432-1.2999999999999545-0.30000000000001137-1.3000000000000682-1.4000000000000057-2.5-3-3.1000000000000227-0.5-0.20000000000004547-1-0.39999999999997726-1.6000000000000227-0.5l-12.299999999999983-3.6000000000000227c-2.4000000000000057-0.6999999999999318-4.5-2-5.800000000000011-4.199999999999932-0.9000000000000057-1.400000000000091-1.1999999999999886-2.900000000000091-1.1999999999999886-4.2000000000000455v-15.700000000000045c0-0.39999999999997726 0.09999999999999432-0.5 0.5-0.2999999999999545 0.6999999999999886 0.20000000000004547 1.299999999999983 0.39999999999997726 1.9000000000000057 0.5 0.39999999999997726 0.10000000000002274 0.39999999999997726 0.2999999999999545 0.39999999999997726 0.6000000000000227v13.600000000000023c0 2.599999999999909 1.8000000000000114 4.099999999999909 4.300000000000011 4.899999999999977l12.699999999999989 3.699999999999932c1.6000000000000227 0.5 3.1000000000000227 1.2000000000000455 4.400000000000006 2.400000000000091 1.700000000000017 1.599999999999909 2.5999999999999943 3.2999999999999545 2.5999999999999943 5.099999999999909 0.10000000000002274 5.400000000000091 0 10.700000000000045 0 16l-0.09999999999999432 0.20000000000004547z m0-36.89999999999998c0 3.1000000000000227-2.5999999999999943 4.7999999999999545-6.199999999999989 4-1.700000000000017-0.39999999999997726-3.3000000000000114-1-4.800000000000011-2.1000000000000227-2.0999999999999943-1.6000000000000227-3.0999999999999943-3.6000000000000227-3.4000000000000057-5.7000000000000455l-0.09999999999999432-2v-18.299999999999955c0-2.1000000000000227-1.6999999999999886-3.7000000000000455-3.5-4.399999999999977l-2-0.6000000000000227-6.5-1.8999999999999773c-0.4000000000000057-0.10000000000002274-0.5999999999999943-0.3000000000000682-0.5999999999999943-0.6000000000000227v-4.100000000000023c0-0.2999999999999545 0.09999999999999432-0.39999999999997726 0.5-0.2999999999999545 2.8000000000000114 0.8999999999999773 5.699999999999989 1.6000000000000227 8.599999999999994 2.6000000000000227 3.4000000000000057 1.1999999999999318 6.300000000000011 4.2999999999999545 6.300000000000011 7.599999999999909v19.800000000000068c0 2 1 3.3999999999999773 3.4000000000000057 4.2999999999999545 0.799999999999983 0.3000000000000682 1.6999999999999886 0.6000000000000227 2.5 0.7000000000000455 1.8999999999999773 0.1999999999999318 2.799999999999983-0.6000000000000227 2.799999999999983-2.3999999999999773v-25.200000000000045c0-0.5 0.09999999999999432-0.6000000000000227 0.700000000000017-0.39999999999997726 0.6999999999999886 0.1999999999999318 1.299999999999983 0.39999999999997726 2.0999999999999943 0.6000000000000227l0.19999999999998863 28.399999999999977z m659.6-118.39999999999998c0 10.399999999999977 8.199999999999932 18.799999999999955 18.299999999999955 18.799999999999955s18.299999999999955-8.399999999999977 18.299999999999955-18.799999999999955-8.099999999999909-18.800000000000068-18.299999999999955-18.800000000000068c-10.100000000000023 0-18.299999999999955 8.5-18.299999999999955 18.800000000000068z m30.199999999999932-0.20000000000004547c0 6.7999999999999545-5.399999999999977 12.399999999999977-12 12.399999999999977s-11.899999999999977-5.600000000000023-11.899999999999977-12.399999999999977c0-6.7999999999999545 5.399999999999977-12.299999999999955 11.899999999999977-12.299999999999955 6.7000000000000455 0 12 5.5 12 12.299999999999955z m49.200000000000045 148.5c-3-28.399999999999977-8.100000000000023-56.5-13.600000000000023-84.39999999999998-5.5-27.5-11.799999999999955-54.89999999999998-19.700000000000045-81.70000000000005-3.599999999999909-12.199999999999932-7.899999999999977-24-14.699999999999932-34.69999999999993-5.399999999999977-8.300000000000068-10.600000000000023-16.800000000000068-16.100000000000023-25-1-1.5-2.7999999999999545-2.6000000000000227-4.399999999999977-3.5-1.3000000000000682-0.7000000000000455-2.2000000000000455-1.2000000000000455-2.300000000000068-2.900000000000091-0.09999999999990905-0.8999999999999773-0.7999999999999545-1.8999999999999773-1.5-2.5-1.1999999999999318-0.8999999999999773-2.5-1.599999999999909-3.8999999999999773-2.199999999999932-19.399999999999977-8.200000000000045-38.89999999999998-8.600000000000023-58.60000000000002-0.8999999999999773-1.6999999999999318 0.6999999999999318-2.599999999999909 1.7999999999999545-2.3999999999999773 3.599999999999909 0.20000000000004547 2.800000000000068-0.7999999999999545 4.300000000000068-3.6000000000000227 4.600000000000023-0.1999999999999318 0-0.39999999999997726 0.10000000000002274-0.599999999999909 0.20000000000004547-4.7000000000000455 2.5-9.600000000000023 3.2999999999999545-14.800000000000068 3.2999999999999545h-43.299999999999955v63.60000000000002c0 9.100000000000023-7.100000000000023 16.399999999999977-15.899999999999977 16.399999999999977h-119.40000000000009c-8.799999999999955 0-15.899999999999977-7.399999999999977-15.899999999999977-16.399999999999977l0.10000000000002274-63.60000000000002h-43.700000000000045c-5.199999999999932 0-10.099999999999909-0.8999999999999773-14.799999999999955-3.2999999999999545-0.20000000000004547-0.10000000000002274-0.39999999999997726-0.20000000000004547-0.6000000000000227-0.20000000000004547-2.7999999999999545-0.2999999999999545-3.7999999999999545-1.7999999999999545-3.6000000000000227-4.600000000000023 0.20000000000004547-1.7999999999999545-0.7999999999999545-3-2.5-3.599999999999909-19.59999999999991-7.600000000000023-39.19999999999993-7.300000000000068-58.599999999999966 0.8999999999999773-1.3000000000000114 0.6000000000000227-2.6999999999999886 1.2999999999999545-3.8999999999999773 2.199999999999932-0.6999999999999886 0.6000000000000227-1.400000000000034 1.7000000000000455-1.5 2.5-0.10000000000002274 1.7000000000000455-1 2.2000000000000455-2.3000000000000114 2.900000000000091-1.6000000000000227 0.8999999999999773-3.3999999999999773 2-4.399999999999977 3.5-5.5 8.199999999999932-10.800000000000011 16.699999999999932-16.200000000000045 25-6.7999999999999545 10.699999999999932-11.099999999999966 22.5-14.699999999999989 34.69999999999993-7.899999999999977 26.899999999999977-14.199999999999989 54.200000000000045-19.599999999999966 81.70000000000005-5.5 27.899999999999977-10.600000000000023 56-13.600000000000023 84.39999999999998-1.5 14.100000000000023-2.3000000000000114 28.299999999999955-2.1000000000000227 42.5 0.20000000000004547 18.700000000000045 4.2000000000000455 31.5 21.80000000000001 46.39999999999998 30.69999999999999 24.399999999999977 72.09999999999997 8.5 80.90000000000003-4.899999999999977 8.799999999999955-13.299999999999955 16.299999999999955-34 22.199999999999932-52 4.900000000000091-14.700000000000045 9.700000000000045-29.299999999999955 14.400000000000091-44 1.5-4.7000000000000455 5.2999999999999545-6.399999999999977 9.199999999999932-8.200000000000045 0.5-0.1999999999999318 1.3999999999999773 0.20000000000004547 1.8999999999999773 0.7000000000000455 21.100000000000023 15.899999999999977 47.90000000000009 15.399999999999977 68.5-1.2000000000000455 1.1000000000000227-0.7999999999999545 2.7000000000000455-1.3999999999999773 4-1.3999999999999773h108.80000000000007c1.2999999999999545 0 2.8999999999999773 0.6000000000000227 4 1.3999999999999773 20.600000000000023 16.600000000000023 47.39999999999998 17.100000000000023 68.60000000000002 1.2000000000000455 0.5-0.39999999999997726 1.3999999999999773-0.8999999999999773 1.8999999999999773-0.7000000000000455 3.8999999999999773 1.7000000000000455 7.600000000000023 3.5 9.199999999999932 8.200000000000045 4.7000000000000455 14.700000000000045 9.600000000000023 29.299999999999955 14.400000000000091 44 5.899999999999977 18 13.399999999999977 38.700000000000045 22.199999999999932 52 8.800000000000068 13.299999999999955 50.200000000000045 29.299999999999955 80.89999999999998 4.899999999999977 17.600000000000023-14.899999999999977 21.600000000000023-27.699999999999932 21.800000000000068-46.39999999999998 0.2999999999999545-14.299999999999955-0.5-28.5-2-42.5z m-380.6-206.60000000000002c0-6.399999999999977 5-11.5 11.200000000000045-11.5s11.199999999999932 5.100000000000023 11.199999999999932 11.5v23.700000000000045c0 6.399999999999977-5 11.5-11.199999999999932 11.5s-11.200000000000045-5.100000000000023-11.200000000000045-11.5v-23.700000000000045z m-67.39999999999998 124c-34.60000000000002 0-62.700000000000045-28.899999999999977-62.700000000000045-64.60000000000002 0-35.69999999999993 28.100000000000023-64.59999999999991 62.700000000000045-64.59999999999991s62.69999999999993 28.899999999999977 62.69999999999993 64.59999999999991c0.10000000000002274 35.700000000000045-28.09999999999991 64.60000000000002-62.69999999999993 64.60000000000002z m80.60000000000002 64.39999999999998c-18 0-32.60000000000002-15-32.60000000000002-33.5 0-18.59999999999991 14.600000000000023-33.59999999999991 32.60000000000002-33.59999999999991s32.59999999999991 15 32.59999999999991 33.59999999999991c0 18.5-14.599999999999909 33.5-32.59999999999991 33.5z m72.69999999999993-32.799999999999955c-2 0-3 1.3999999999999773-3.199999999999932 3-0.10000000000002274 0.5-0.10000000000002274 1.1000000000000227-0.10000000000002274 1.7000000000000455v5.599999999999909c0 0.3000000000000682 0 0.5-0.39999999999997726 0.5h-3.900000000000091c-0.2999999999999545 0-0.39999999999997726-0.09999999999990905-0.39999999999997726-0.39999999999997726 0-2.5-0.10000000000002274-4.899999999999977 0-7.2999999999999545 0.20000000000004547-2.8999999999999773 2.3999999999999773-5.399999999999977 5.5-5.399999999999977 6.300000000000068 0.09999999999990905 12.600000000000023 0 18.899999999999977 0 1.900000000000091 0 3-0.900000000000091 3.2000000000000455-2.900000000000091 0.10000000000002274-0.6999999999999318 0.10000000000002274-1.5-0.10000000000002274-2.199999999999932-0.2999999999999545-1.6000000000000227-1.2999999999999545-2.3999999999999773-3-2.3999999999999773h-23.899999999999977c-0.39999999999997726 0-0.6000000000000227-0.10000000000002274-0.6000000000000227-0.6000000000000227v-1.8000000000000682h27.100000000000023c2.8999999999999773 0 5.2999999999999545 2.300000000000068 5.399999999999977 5.300000000000068 0.10000000000002274 1.3999999999999773 0 2.7999999999999545-0.6999999999999318 4.100000000000023-0.900000000000091 1.7999999999999545-2.6000000000000227 2.599999999999909-4.400000000000091 2.7999999999999545-0.599999999999909 0.10000000000002274-1.2999999999999545 0.10000000000002274-1.8999999999999773 0.10000000000002274-5.7999999999999545-0.10000000000002274-11.699999999999932-0.10000000000002274-17.5-0.10000000000002274z m54.30000000000007-10.200000000000045c0 0.10000000000002274-0.20000000000004547 0.20000000000004547-0.3000000000000682 0.3000000000000682h-12.399999999999977c-0.39999999999997726 0-0.7999999999999545 0-1.1000000000000227 0.10000000000002274-1.1999999999999318 0.2999999999999545-2 1.2999999999999545-2.1000000000000227 2.5-0.09999999999990905 0.5-0.09999999999990905 0.8999999999999773-0.09999999999990905 1.2999999999999545v10.5c0 2-0.7000000000000455 3.7999999999999545-2.400000000000091 5-1.099999999999909 0.7000000000000455-2.3999999999999773 1-3.699999999999932 1h-15c-0.3000000000000682 0-0.5-0.10000000000002274-0.5-0.5v-1.6000000000000227c0-0.2999999999999545 0.10000000000002274-0.5 0.39999999999997726-0.39999999999997726h12.899999999999977c2.5 0 3.5-1.5 3.5-3.6000000000000227v-10.799999999999955c0-1.3000000000000682 0.3000000000000682-2.6000000000000227 1.1000000000000227-3.7000000000000455 1-1.5 2.5-2.199999999999932 4.2000000000000455-2.2999999999999545h15.699999999999932c-0.1999999999999318 0.8999999999999773-0.1999999999999318 1.5-0.1999999999999318 2.199999999999932z m48.09999999999991-145.39999999999998c0-6.399999999999977 5-11.5 11.200000000000045-11.5 6.2000000000000455 0 11.200000000000045 5.100000000000023 11.200000000000045 11.5v23.700000000000045c0 6.399999999999977-5 11.5-11.200000000000045 11.5-6.2000000000000455 0-11.200000000000045-5.100000000000023-11.200000000000045-11.5v-23.700000000000045z m9.200000000000045 188.39999999999998c-18 0-32.60000000000002-15-32.60000000000002-33.5 0-18.59999999999991 14.600000000000023-33.59999999999991 32.60000000000002-33.59999999999991s32.60000000000002 15 32.60000000000002 33.59999999999991c0 18.5-14.600000000000023 33.5-32.60000000000002 33.5z m80.60000000000002-64.39999999999998c-34.60000000000002 0-62.700000000000045-28.899999999999977-62.700000000000045-64.60000000000002 0-35.69999999999993 28.100000000000023-64.59999999999991 62.700000000000045-64.59999999999991 34.69999999999993 0 62.799999999999955 28.899999999999977 62.799999999999955 64.59999999999991-0.10000000000002274 35.700000000000045-28.199999999999932 64.60000000000002-62.799999999999955 64.60000000000002z m-776.4 115.30000000000007l-65.20000000000005 59.69999999999993 128.2 0.20000000000004547v-672h-62.999999999999986v612.1z m119.39999999999995-35.90000000000009c-0.09999999999999432-0.09999999999990905-0.19999999999998863-0.2999999999999545-0.4000000000000057-0.5h-0.19999999999998863v22.200000000000045c0.19999999999998863 0.10000000000002274 0.30000000000001137 0.10000000000002274 0.4000000000000057 0.10000000000002274l15 4.2999999999999545c0.5999999999999943 0.20000000000004547 0.6999999999999886 0.10000000000002274 0.29999999999998295-0.5-4.899999999999977-8.5-10-17-15.099999999999994-25.600000000000023z m399.69999999999993-509.9v-257.9l-371.59999999999997-127.5h-65.29999999999998v295.9l58.900000000000006 5.300000000000011 377.99999999999994 84.19999999999999z m25 361.6h119.30000000000007c5.899999999999977 0 10.699999999999932-5 10.699999999999932-11.100000000000023v-64.10000000000002c0-6.099999999999909-4.7999999999999545-11.099999999999909-10.699999999999932-11.099999999999909h-119.30000000000007c-5.899999999999977 0-10.799999999999955 5-10.799999999999955 11.099999999999909v64.10000000000002c0.10000000000002274 6.100000000000023 4.899999999999977 11.100000000000023 10.799999999999955 11.100000000000023z m-544.0999999999999-451.2l62.99999999999994 0.0999999999999659v-295.9h-62.999999999999986v295.8z m432.5999999999999 462.49999999999994c-1.099999999999909-1.2999999999999545-2.8999999999999773-1.2999999999999545-4.099999999999909 0l-11.100000000000023 12.5c-2.1000000000000227 1.900000000000091-3.5 5-3.5 7.900000000000091v23.799999999999955c0 4.399999999999977 3.5 8 7.7999999999999545 8h17.5c4.300000000000068 0 7.800000000000068-3.6000000000000227 7.800000000000068-8v-23.799999999999955c0-2.400000000000091-0.900000000000091-4.900000000000091-2.5-6.800000000000068l-11.900000000000091-13.600000000000023z m335.6-42.09999999999991h17.5l-8.699999999999932-15.200000000000045-8.800000000000068 15.200000000000045z m8.700000000000045 55.799999999999955c-10.100000000000023 0-18.300000000000068 8.399999999999977-18.300000000000068 18.799999999999955s8.200000000000045 18.800000000000068 18.300000000000068 18.800000000000068 18.299999999999955-8.399999999999977 18.299999999999955-18.800000000000068-8.199999999999932-18.799999999999955-18.299999999999955-18.799999999999955z m11.199999999999932 27.600000000000023l-2.099999999999909 2.199999999999932-8.5-8.799999999999955-8.600000000000023 8.799999999999955-2.1000000000000227-2.199999999999932 8.600000000000023-8.800000000000068-8.600000000000023-8.799999999999955 2.1000000000000227-2.1000000000000227 8.600000000000023 8.800000000000068 8.5-8.800000000000068 2.099999999999909 2.1000000000000227-8.5 8.799999999999955 8.5 8.800000000000068z m-58.5-57.5h15.300000000000068v15.799999999999955h-15.300000000000068v-15.799999999999955z m-301.0999999999999 4.699999999999932c1.1999999999999318 1.3000000000000682 3 1.3000000000000682 4.099999999999909 0l12.100000000000023-13.599999999999909c1.5-1.900000000000091 2.5-4.400000000000091 2.5-6.800000000000068v-23.799999999999955c0-4.5-3.5-8.100000000000023-7.7999999999999545-8.100000000000023h-17.600000000000023c-4.300000000000011 0-7.800000000000011 3.6000000000000227-7.800000000000011 8.100000000000023v23.799999999999955c0 2.800000000000068 1.400000000000034 5.899999999999977 3.5 7.899999999999977l11.000000000000057 12.5z m348.4-55.89999999999998c-10.100000000000023 0-18.300000000000068 8.399999999999977-18.300000000000068 18.800000000000068s8.200000000000045 18.799999999999955 18.300000000000068 18.799999999999955 18.299999999999955-8.399999999999977 18.299999999999955-18.799999999999955-8.199999999999932-18.800000000000068-18.299999999999955-18.800000000000068z m-12.700000000000045 27.700000000000045l12.700000000000045-22.200000000000045 12.699999999999932 22.200000000000045h-25.399999999999977z m-339.69999999999993 30.5l-13.200000000000045-12.399999999999977c-1.8000000000000114-1.6000000000000227-4.300000000000011-2.6000000000000227-6.600000000000023-2.6000000000000227h-23.099999999999966c-4.400000000000034 0-7.900000000000034 3.699999999999932-7.900000000000034 8.100000000000023v18c0 4.399999999999977 3.5 8.099999999999909 7.900000000000034 8.099999999999909h23.19999999999999c2.6999999999999886 0 5.800000000000011-1.3999999999999773 7.600000000000023-3.699999999999932l12.100000000000023-11.399999999999977c1.1999999999999318-1 1.1999999999999318-2.900000000000091 0-4.100000000000023z m312.79999999999995-17.700000000000045c-10.100000000000023 0-18.299999999999955 8.399999999999977-18.299999999999955 18.800000000000068s8.199999999999932 18.799999999999955 18.299999999999955 18.799999999999955 18.299999999999955-8.399999999999977 18.299999999999955-18.799999999999955-8.199999999999932-18.800000000000068-18.299999999999955-18.800000000000068z m10 28.800000000000068h-19.899999999999977v-20.40000000000009h19.899999999999977v20.40000000000009z m-268.79999999999995-26h-23.100000000000023c-2.300000000000068 0-4.7000000000000455 1-6.600000000000023 2.5l-13.200000000000045 12.399999999999977c-1.1999999999999318 1.1000000000000227-1.1999999999999318 3.1000000000000227 0 4.199999999999932l12.100000000000023 11.400000000000091c1.8999999999999773 2.199999999999932 4.899999999999977 3.699999999999932 7.600000000000023 3.699999999999932h23.100000000000023c4.399999999999977 0 7.899999999999977-3.6000000000000227 7.899999999999977-8.100000000000023v-18c0.10000000000002274-4.5-3.3999999999999773-8.099999999999909-7.7999999999999545-8.099999999999909z m329.5999999999999 15.799999999999955c0 5.5 4.300000000000068 10 9.700000000000045 10s9.700000000000045-4.5 9.700000000000045-10-4.400000000000091-10-9.700000000000045-10-9.700000000000045 4.5-9.700000000000045 10z"/>
</svg>
