<svg xmlns="http://www.w3.org/2000/svg" viewBox="0 0 1000 1000" width="1000" height="1000">
<path d="M855.7 703.6v-426.1c0-11.5-4.2000000000000455-21.80000000000001-10.900000000000091-28.5-5.699999999999932-8.300000000000011-14.5-13.699999999999989-24.199999999999932-13.699999999999989h-645.4000000000001c-16.999999999999943 0-30.89999999999992 16.799999999999983-30.89999999999992 37.39999999999998v426.09999999999997c0 1.6000000000000227 0 3.2000000000000455 0.19999999999998863 4.800000000000068h-82v18.600000000000023c0 10.099999999999909 4.200000000000003 19.199999999999932 10.700000000000003 26 6.8999999999999915 9.899999999999977 18.39999999999999 16.199999999999932 31.5 16.199999999999932h794.4c21.199999999999932 0 38.39999999999998-16.600000000000023 38.39999999999998-37.39999999999998v-23.399999999999977h-81.79999999999995z m-355.80000000000007-461.40000000000003c6.100000000000023 0 11.100000000000023 5 11.100000000000023 11.100000000000023 0 5.899999999999977-5 10.899999999999977-11.100000000000023 10.899999999999977-5.899999999999977 0-10.899999999999977-5-10.899999999999977-10.899999999999977 0-6.100000000000023 5-11.100000000000023 10.899999999999977-11.100000000000023z m56.5 476.3h-116.69999999999999v-11.299999999999955h116.69999999999999v11.299999999999955z m268.20000000000005-43h-653.1v-402.8h653.1v402.8z"/>
</svg>
