<svg xmlns="http://www.w3.org/2000/svg" viewBox="0 0 1000 1000" width="1000" height="1000">
<path d="M98.8 386.9h48.60000000000001v53.5h-48.60000000000001v-53.5z m24.299999999999997 140.70000000000005c-13.399999999999991 0-24.299999999999997 11-24.299999999999997 24.600000000000023s10.900000000000006 24.59999999999991 24.299999999999997 24.59999999999991c13.400000000000006 0 24.30000000000001-11 24.30000000000001-24.59999999999991s-10.900000000000006-24.600000000000023-24.30000000000001-24.600000000000023z m-24.299999999999997 138.60000000000002h48.60000000000001v53.5h-48.60000000000001v-53.5z m793-311.70000000000005l-110.5 104.60000000000002c-1.6999999999999318 1.599999999999966-3.199999999999932 5-3.199999999999932 7.399999999999977v270.79999999999995h-532.9000000000001v-370.99999999999994h433.6c2.400000000000091 0 5.7000000000000455-1.400000000000034 7.400000000000091-3l112.19999999999993-110.20000000000002c1.7000000000000455-1.6999999999999886 1.1000000000000227-3-1.2999999999999545-3h-778.8000000000001c-10.099999999999955 0-18.299999999999955 8.299999999999983-18.299999999999955 18.50000000000003v566.5c0 10.199999999999932 8.2 18.5 18.3 18.5h858.4000000000001c9.399999999999977 0 17.299999999999955-7.300000000000068 18.199999999999932-16.700000000000045 0.10000000000002274-0.6000000000000227 0.10000000000002274-1.1999999999999318 0.10000000000002274-1.7999999999999545v-479.20000000000005c0-2.3999999999999773-1.3999999999999773-3-3.2000000000000455-1.3999999999999773z m-715.4 379.9c2.842170943040401e-14 8.100000000000023-6.499999999999972 14.700000000000045-14.499999999999972 14.700000000000045h-77.60000000000001c-8 0-14.5-6.600000000000023-14.5-14.700000000000045v-82.79999999999995c0-8.100000000000023 6.5-14.700000000000045 14.5-14.700000000000045h77.60000000000001c8 0 14.5 6.600000000000023 14.5 14.700000000000045v82.79999999999995z m-53.29999999999998-128.29999999999995c-29.39999999999999 0-53.3-24.200000000000045-53.3-53.89999999999998s23.900000000000006-53.900000000000034 53.3-53.900000000000034c29.400000000000006 0 53.30000000000001 24.19999999999999 53.30000000000001 53.900000000000034s-23.900000000000006 53.89999999999998-53.30000000000001 53.89999999999998z m53.30000000000001-151c0 8.099999999999966-6.5 14.599999999999966-14.5 14.599999999999966h-77.60000000000001c-8 0-14.5-6.5-14.5-14.599999999999966v-82.80000000000001c0-8.100000000000023 6.5-14.699999999999989 14.5-14.699999999999989h77.60000000000001c8 0 14.5 6.599999999999966 14.5 14.699999999999989v82.80000000000001z m736.8000000000001-206.20000000000002l-34.200000000000045-34.599999999999994c-1.6000000000000227-1.700000000000017-4.399999999999977-1.700000000000017-6.100000000000023 0l-295.6 298.8-22.699999999999932 83.60000000000002 82.69999999999993-23 295.6-298.80000000000007c1.7000000000000455-1.6999999999999886 1.7000000000000455-4.399999999999977 0-6.199999999999989l-19.699999999999932-19.799999999999983z m85.5-46.70000000000002l-53.80000000000007-54.39999999999998c-1.6999999999999318-1.700000000000017-4.399999999999977-1.700000000000017-6.100000000000023 0l-40.59999999999991 41c-1.7000000000000455 1.6999999999999886-1.7000000000000455 4.5 0 6.199999999999989l53.299999999999955 53.900000000000006 1.7999999999999545 1.799999999999983s2.6000000000000227 1 3.6000000000000227 0l41.80000000000007-42.29999999999998c1.6999999999999318-1.700000000000017 1.6999999999999318-4.5 0-6.200000000000017z"/>
</svg>
