<svg xmlns="http://www.w3.org/2000/svg" viewBox="0 0 1000 1000" width="1000" height="1000">
<path d="M681.2 0h-361.70000000000005c-46.39999999999998 0-84 37.6-84 84v832c0 46.39999999999998 37.60000000000002 84 84 84h361.70000000000005c46.39999999999998 0 84-37.60000000000002 84-84v-832c0-46.4-37.60000000000002-84-84-84z m-225.20000000000005 22.8h95c3.2999999999999545 0 6 3.5 6 6.899999999999999s-2.7000000000000455 6.800000000000001-6 6.800000000000001h-95c-3.3000000000000114 0-6-3.5-6-6.899999999999999s2.6999999999999886-6.800000000000001 6-6.800000000000001z m84.5 945.2h-75.39999999999998c-11 0-20-7.2000000000000455-20-18.299999999999955s9-18.300000000000068 20-18.300000000000068h75.39999999999998c11.100000000000023 0 20 7.2000000000000455 20 18.300000000000068s-9 18.299999999999955-20 18.299999999999955z m197.29999999999995-54.799999999999955h-470.29999999999995v-826.4000000000001h470.29999999999995v826.4000000000001z"/>
</svg>
