<svg xmlns="http://www.w3.org/2000/svg" viewBox="0 0 1000 1000" width="1000" height="1000">
<path d="M527.4 221c-0.6999999999999318-0.8000000000000114-1.2999999999999545-1.5-2.1000000000000227-2.1999999999999886-8.899999999999977-7.900000000000006-9.099999999999909-5.5 0.6000000000000227-14.400000000000006 7.2000000000000455-6.5 16-11.5 23.899999999999977-17.200000000000017 21-14.899999999999977 34.80000000000007-34.79999999999998 44.200000000000045-58.5 20.899999999999977-53.099999999999994-40.799999999999955-89.79999999999998-71.70000000000005-121.19999999999999-22.499999999999943-22.8-57.69999999999993 11.899999999999999-35.299999999999955 34.6 17.30000000000001 17.6 39.5 31.800000000000004 54.60000000000002 51.300000000000004 16.799999999999955 21.89999999999999-8.800000000000068 46-26.399999999999977 58.19999999999999-27.200000000000045 18.80000000000001-50.700000000000045 43.80000000000001-45.200000000000045 70.6-122.19999999999999 11.100000000000023-235 76.80000000000001-235 192.5v325.00000000000006c0 143.5 118.89999999999998 260.29999999999995 265.1 260.29999999999995s265.1-116.79999999999995 265.1-260.29999999999995v-325.00000000000006c0-126.30000000000001-119.70000000000005-187.5-237.80000000000007-193.7z m-242.5 193.7c0-85.89999999999998 95-135.7 193.40000000000003-143.89999999999998v299.7c-89.69999999999999-4.399999999999977-162.5-24.5-193.40000000000003-34.299999999999955v-121.50000000000006z m430.4 325.00000000000006c0 116.59999999999991-96.5 211.29999999999995-215.19999999999993 211.29999999999995s-215.20000000000005-94.70000000000005-215.20000000000005-211.29999999999995v-152c44.60000000000002 13.199999999999932 128.5 33.299999999999955 227.60000000000002 33.299999999999955 63.5 0 133.10000000000002-8.299999999999955 202.79999999999995-31.899999999999977v150.60000000000002z m0-202.70000000000005c-63.09999999999991 23.700000000000045-127.5 32.89999999999998-187.0999999999999 34.200000000000045v-301.1c96.29999999999995 5.699999999999989 187.0999999999999 51 187.0999999999999 144.7v122.19999999999999z"/>
</svg>
