<svg xmlns="http://www.w3.org/2000/svg" viewBox="0 0 1000 1000" width="1000" height="1000">
<path d="M585 525.8c0 91-0.10000000000002274 182 0.10000000000002274 273 0 6.5-1 9.700000000000045-8.600000000000023 9.200000000000045-11.5-0.8999999999999773-22.799999999999955 1.5-33.5 5.2000000000000455-6.2999999999999545 2.199999999999932-9.299999999999955 0.599999999999909-13.399999999999977-4.100000000000023-31.5-35.60000000000002-80.40000000000003-47.60000000000002-125.40000000000003-31.200000000000045-43.69999999999999 15.899999999999977-73 57.30000000000007-74.19999999999999 104.60000000000002-0.39999999999997726 17.700000000000045-0.39999999999997726 17.799999999999955-18.5 17.799999999999955-45.5 0-91 0.10000000000002274-136.5 0-42-0.09999999999990905-67.2-26.5-67.1-70.19999999999993v-271.9c0-99.30000000000007 0-198.70000000000005 0.19999999999998863-298.00000000000006 0.10000000000000853-40.69999999999999 25.400000000000006-66 65.9-66.29999999999998l26.19999999999999-0.09999999999999432h316.2c44.200000000000045 0 68.80000000000007 24.799999999999983 68.70000000000005 69.19999999999999-0.10000000000002274 87.60000000000002 0 175.2 0 262.70000000000005l-0.10000000000002274 0.09999999999990905z m-237.60000000000002-31.499999999999943v-0.10000000000002274c48.10000000000002 0 96.30000000000001-0.0999999999999659 144.40000000000003 0.10000000000002274 7.300000000000011 0 9.599999999999966-1.8000000000000114 9.599999999999966-9.400000000000034-0.2999999999999545-60.599999999999966-0.39999999999997726-121.29999999999995 0-182 0.10000000000002274-8.699999999999989-2.6999999999999886-10.799999999999955-10.899999999999977-10.699999999999989-95.5 0.30000000000001137-191.10000000000002 0.30000000000001137-286.6 0-9.299999999999983 0-12.399999999999977 2.6999999999999886-12.299999999999983 12.199999999999989 0.4000000000000057 59.900000000000034 0.30000000000001137 119.80000000000001 0 179.70000000000005 0 7.7999999999999545 2 10.5 10.200000000000017 10.399999999999977 48.5-0.39999999999997726 97-0.19999999999998863 145.59999999999997-0.19999999999998863z m-69.89999999999998 174.09999999999997c0 24.300000000000068-0.10000000000002274 48.5 0 72.80000000000007 0.10000000000002274 18.09999999999991 4.199999999999989 20.299999999999955 20.19999999999999 11l125.90000000000003-72.80000000000007c13-7.5 13.099999999999966-13.299999999999955 0.0999999999999659-20.799999999999955-43-24.800000000000068-85.89999999999998-49.60000000000002-128.89999999999998-74.30000000000007-12.199999999999989-7-17.19999999999999-4.099999999999909-17.30000000000001 10.200000000000045-0.10000000000002274 24.600000000000023 0 49.299999999999955 0 73.89999999999998z m471.29999999999995-293.4c0 73.19999999999999-0.5 146.29999999999995 0.10000000000002274 219.39999999999998 0.39999999999997726 49.10000000000002 20.5 90.10000000000002 54.80000000000007 124.60000000000002 20.799999999999955 20.899999999999977 43.09999999999991 40.5 61.5 63.700000000000045 33.299999999999955 42.19999999999993 35.799999999999955 90.79999999999995 6.199999999999932 129.89999999999998-20 26.399999999999977-46.89999999999998 40.19999999999993-80.10000000000002 40.5-44.299999999999955 0.39999999999997726-88.69999999999993 0.1999999999999318-133 0-6.399999999999977 0-10 1.7999999999999545-13.399999999999977 7.5-19.100000000000023 32.39999999999998-54.89999999999998 46.39999999999998-89.79999999999995 35.799999999999955-34.30000000000007-10.399999999999977-56.700000000000045-42.60000000000002-54.700000000000045-78.60000000000002 2.1000000000000227-36.799999999999955 27.300000000000068-65.09999999999991 64.20000000000005-72.09999999999991 32.10000000000002-6.100000000000023 65.79999999999995 10.099999999999909 80.69999999999993 39.89999999999998 4.100000000000023 8.199999999999932 8.800000000000068 10.5 17.5 10.399999999999977 40.90000000000009-0.39999999999997726 81.90000000000009-0.39999999999997726 122.80000000000007-0.10000000000002274 19.5 0.10000000000002274 35-6.399999999999977 44.10000000000002-24.199999999999932 8.899999999999977-17.5 5.099999999999909-33.90000000000009-6.100000000000023-49-15.399999999999977-20.800000000000068-34.60000000000002-38.200000000000045-53.200000000000045-56-52.299999999999955-49.90000000000009-79.5-110.20000000000005-79.19999999999993-183 0.5-137.20000000000005 0.1999999999999318-274.40000000000003 0.09999999999990905-411.6 0-15.500000000000028 0.10000000000002274-31.00000000000003-5.099999999999909-46.10000000000002-15.400000000000091-44-57.80000000000007-72.5-102.60000000000002-68.4-48.30000000000007 4.400000000000006-85 39.900000000000006-91.20000000000005 89.4-1.099999999999966 8.5-3.5 10.699999999999989-11.599999999999966 10.300000000000011-12.100000000000023-0.700000000000017-24.30000000000001-0.700000000000017-36.400000000000034 0-8.299999999999955 0.39999999999997726-10.399999999999977-2.700000000000017-9.699999999999989-10.400000000000006 4.900000000000034-55.7 30.600000000000023-98.80000000000001 79.40000000000003-126.2 105.60000000000002-59.2 233.89999999999998 16.099999999999994 234.29999999999995 137.2 0.3000000000000682 72.40000000000003 0 144.8 0 217.20000000000005 0.3000000000000682-0.10000000000002274 0.3000000000000682-0.10000000000002274 0.39999999999997726-0.10000000000002274z m-306.09999999999997 587.4c-34.39999999999998 0-64.39999999999998-23.5-73.30000000000001-56.89999999999998-9-33.700000000000045 4.800000000000011-68.29999999999995 34.5-86.5 29.30000000000001-18 67.5-14.100000000000023 92.90000000000003 8.700000000000045 6 5.5 5.5 8.199999999999932 0.0999999999999659 13.899999999999977-28.299999999999955 29.299999999999955-38.599999999999966 64.39999999999998-30.899999999999977 104.39999999999998 2.8000000000000114 14.600000000000023 3.1000000000000227 14.700000000000045-11.800000000000011 16.299999999999955-3.8999999999999773 0.40000000000009095-7.699999999999989 0.10000000000002274-11.5 0.10000000000002274z"/>
</svg>
