<svg xmlns="http://www.w3.org/2000/svg" viewBox="0 0 1000 1000" width="1000" height="1000">
<path d="M498.9 785.8c-140.29999999999995 0-280.5 0-420.79999999999995 0-48.800000000000026 0-78.10000000000002-29.5-78.10000000000002-78.59999999999991 0-138.10000000000002 0-276.1 0-414.1 0-49.10000000000002 29.3-78.60000000000002 78.1-78.60000000000002 282.4 0 564.6999999999999 0 847.1 0 43.69999999999993 0 74.69999999999993 30.69999999999999 74.69999999999993 74.19999999999999 0.10000000000002274 141 0.10000000000002274 281.90000000000003 0 422.90000000000003 0 43.5-30.899999999999977 74.19999999999993-74.69999999999993 74.19999999999993-142.10000000000002 0-284.20000000000005 0-426.30000000000007 0z m1.2000000000000455-106.89999999999998c58.39999999999998 0 116.69999999999993 0 175.10000000000002 0 24.899999999999977 0 39.19999999999993-14.5 39.299999999999955-39.60000000000002 0-10.799999999999955 0.10000000000002274-21.59999999999991-0.10000000000002274-32.39999999999998-0.39999999999997726-20-15.5-35.299999999999955-35.5-35.39999999999998-119.39999999999998-0.10000000000002274-238.7-0.10000000000002274-358.09999999999997 0.10000000000002274-20.100000000000023 0-34.900000000000034 15.399999999999977-35.30000000000001 35.5-0.10000000000002274 10.399999999999977 0 20.799999999999955 0 31.299999999999955 0.10000000000002274 26.600000000000023 13.899999999999977 40.5 40.5 40.5 58 0 116.10000000000002 0 174.10000000000002 0z m428.69999999999993-267.7c0-29.69999999999999 0.10000000000002274-59.5-0.09999999999990905-89.19999999999999-0.10000000000002274-20.80000000000001-15.100000000000023-36-35.60000000000002-36.30000000000001-23.800000000000068-0.19999999999998863-47.60000000000002-0.19999999999998863-71.39999999999998 0-21.200000000000045 0.30000000000001137-35.90000000000009 15.600000000000023-36.10000000000002 37 0 10.800000000000011 0.1999999999999318 21.600000000000023 0 32.400000000000034-0.3000000000000682 14.199999999999989 5.2999999999999545 25.299999999999955 17.299999999999955 32.799999999999955 13.200000000000045 8.300000000000011 18.800000000000068 20.100000000000023 18.600000000000023 35.5-0.39999999999997726 25.700000000000045-0.2999999999999545 51.30000000000001-0.10000000000002274 76.90000000000003 0.20000000000004547 20.099999999999966 15.300000000000068 35.19999999999999 35.30000000000007 35.599999999999966 11.5 0.3000000000000682 23 0.20000000000004547 34.5 0.10000000000002274 22.699999999999932-0.20000000000004547 37.5-15 37.59999999999991-37.89999999999998 0.10000000000002274-28.900000000000034 0-57.900000000000034 0-86.90000000000003z m-768.1999999999999 267.7v0c17.799999999999983 0 35.69999999999999 0.20000000000004547 53.49999999999997 0 20.099999999999994-0.1999999999999318 35.400000000000006-15.100000000000023 35.900000000000006-35 0.30000000000001137-12.299999999999955 0.30000000000001137-24.5 0-36.799999999999955-0.5-20.600000000000023-15.599999999999994-35.5-36.400000000000006-35.60000000000002-35.29999999999998-0.20000000000004547-70.6-0.20000000000004547-105.89999999999999 0-21.200000000000003 0.10000000000002274-36.2 15.200000000000045-36.5 36.60000000000002-0.10000000000000853 11.199999999999932-0.10000000000000853 22.299999999999955 0 33.5 0.20000000000000284 22.100000000000023 15 37.10000000000002 37 37.299999999999955 17.5 0.10000000000002274 34.89999999999999 0 52.39999999999999 0z m678.5 0h52.39999999999998c0.39999999999997726 0 0.7999999999999545 0 1.2000000000000455 0 20.699999999999932-0.5 35.69999999999993-15.299999999999955 36.09999999999991-36 0.20000000000004547-11.799999999999955 0.20000000000004547-23.699999999999932-0.09999999999990905-35.60000000000002-0.3000000000000682-20.09999999999991-15.200000000000045-35.59999999999991-35.10000000000002-35.69999999999993-36-0.39999999999997726-72.10000000000002-0.3000000000000682-108.10000000000002-0.10000000000002274-20 0.20000000000004547-35.10000000000002 15.399999999999977-35.5 35.299999999999955-0.2999999999999545 11.900000000000091-0.20000000000004547 23.800000000000068-0.10000000000002274 35.700000000000045 0.39999999999997726 21.299999999999955 15.399999999999977 36.10000000000002 36.80000000000007 36.39999999999998 17.5 0.10000000000002274 35 0 52.39999999999998 0z m-696.5-250.29999999999995c-11.800000000000011 0-23.700000000000017-0.20000000000004547-35.60000000000002 0-20.099999999999994 0.39999999999997726-35.3 15.299999999999955-35.8 35.099999999999966-0.20000000000000284 12.300000000000011-0.20000000000000284 24.600000000000023 0.09999999999999432 36.80000000000001 0.4000000000000057 20.100000000000023 15.299999999999997 35.200000000000045 35.400000000000006 35.39999999999998 24.10000000000001 0.3000000000000682 48.3 0.3000000000000682 72.39999999999999 0 19.900000000000006-0.1999999999999318 34.900000000000006-15.699999999999932 35.20000000000002-35.599999999999966 0.19999999999998863-11.900000000000034 0.19999999999998863-23.80000000000001 0-35.69999999999999-0.30000000000001137-20.700000000000045-15.300000000000011-35.60000000000002-36-36-11.900000000000006-0.20000000000004547-23.80000000000001 0-35.70000000000002 0z m268-142.90000000000003c-5.2000000000000455 0-10.400000000000034-0.0999999999999659-15.600000000000023 0-23 0.19999999999998863-37.69999999999999 14.699999999999989-38 37.400000000000034-0.10000000000002274 5.599999999999966 0.30000000000001137 11.199999999999989-0.10000000000002274 16.69999999999999-3.2999999999999545 41 13.800000000000011 54.099999999999966 53.400000000000034 54 38.89999999999998 0 55-11.100000000000023 54.80000000000001-54.30000000000001-0.10000000000002274-40-12.600000000000023-57.30000000000001-54.5-53.80000000000001z m142.19999999999993 107.40000000000003c5.900000000000091 0 11.900000000000091 0.0999999999999659 17.800000000000068 0 21.399999999999977-0.30000000000001137 36.299999999999955-15.200000000000045 36.69999999999993-36.5 0.10000000000002274-5.900000000000034-0.39999999999997726-11.900000000000034 0.10000000000002274-17.80000000000001 3.300000000000068-40.69999999999999-13.799999999999955-53.80000000000001-53.60000000000002-53.900000000000034-40.69999999999993 0-54.799999999999955 13.200000000000045-54.69999999999993 54.60000000000002 0.0999999999999659 39.10000000000002 12.599999999999966 57.19999999999999 53.69999999999993 53.60000000000002z m143.80000000000007-107.40000000000003c-5.600000000000023 0-11.200000000000045-0.0999999999999659-16.700000000000045 0-22.199999999999932 0.4000000000000341-36.799999999999955 14.900000000000034-37.19999999999993 37.19999999999999-0.10000000000002274 11.5-0.10000000000002274 23 0.09999999999990905 34.5 0.40000000000009095 20.100000000000023 15.200000000000045 35.10000000000002 35.200000000000045 35.700000000000045 6.2999999999999545 0.19999999999998863 12.600000000000023-0.4000000000000341 18.899999999999977 0.0999999999999659 39.200000000000045 3 54.10000000000002-11.699999999999989 54-53.39999999999998 0-40.60000000000002-12.799999999999955-57.60000000000002-54.299999999999955-54.10000000000002z m-428.70000000000005 107.40000000000003c5.600000000000023 0 11.200000000000045 0.0999999999999659 16.80000000000001 0 21.19999999999999-0.20000000000004547 36.30000000000001-15 36.80000000000001-36.30000000000001 0.10000000000002274-5.900000000000034-0.39999999999997726-11.900000000000034 0.10000000000002274-17.80000000000001 3.2999999999999545-41.19999999999999-13.900000000000034-54-53.400000000000034-54.10000000000002-41.19999999999999 0-54.89999999999998 13.200000000000045-54.89999999999998 54.400000000000034 0.09999999999999432 39.30000000000001 11.899999999999977 57.30000000000001 54.599999999999966 53.80000000000001z m35.700000000000045 142.89999999999998c6 0 11.899999999999977 0.10000000000002274 17.899999999999977 0 20.5-0.5 35.39999999999998-15.600000000000023 35.69999999999999-36.30000000000001 0.19999999999998863-12.199999999999989 0.30000000000001137-24.5-0.0999999999999659-36.80000000000001-0.6000000000000227-18.69999999999999-15.5-33.5-34.200000000000045-34.299999999999955-6.699999999999989-0.20000000000004547-13.399999999999977 0.39999999999997726-20.099999999999966-0.10000000000002274-38.900000000000034-3.1999999999999886-53.900000000000006 12.199999999999989-53.80000000000001 53.60000000000002 0.09999999999999432 41.39999999999998 13.800000000000011 57.299999999999955 54.60000000000002 53.89999999999998z m196.5-53.5c0-5.899999999999977 0.0999999999999659-11.800000000000011 0-17.80000000000001-0.5-20.69999999999999-15.300000000000011-35.69999999999999-35.900000000000034-36.099999999999966-12.300000000000011-0.20000000000004547-24.5-0.30000000000001137-36.80000000000001 0.0999999999999659-18.799999999999955 0.5-33.89999999999998 15.100000000000023-34.599999999999966 33.80000000000001-0.5 13.399999999999977-0.5 26.80000000000001 0 40.19999999999999 0.6999999999999886 17.500000000000057 15.5 32.19999999999999 33 33.19999999999999 7 0.39999999999997726 14.199999999999989-0.39999999999997726 21.19999999999999 0.20000000000004547 39.5 3.199999999999932 56.60000000000002-12.600000000000023 53.10000000000002-53.60000000000002z m89.5 53.5c5.899999999999977 0 11.899999999999977 0.10000000000002274 17.799999999999955 0 20-0.39999999999997726 35.10000000000002-15.399999999999977 35.60000000000002-35.19999999999999 0.10000000000002274-6.300000000000011-0.39999999999997726-12.699999999999989 0.10000000000002274-19 3.199999999999932-39.80000000000001-12.600000000000023-54.10000000000002-53.5-54-39.39999999999998 0.0999999999999659-54.89999999999998 11.800000000000011-54.80000000000007 54.39999999999998 0.20000000000004547 40.900000000000034 13.400000000000091 57.19999999999999 54.80000000000007 53.80000000000001z m142.69999999999993 0c5.900000000000091 0 11.900000000000091 0.10000000000002274 17.800000000000068 0 20.600000000000023-0.5 35.5-15.5 35.799999999999955-36.30000000000001 0.10000000000002274-12.199999999999989 0.3000000000000682-24.5-0.10000000000002274-36.80000000000001-0.599999999999909-18.69999999999999-15.5-33.5-34.19999999999993-34.299999999999955-6.7000000000000455-0.20000000000004547-13.5 0.39999999999997726-20.100000000000023-0.10000000000002274-39.299999999999955-3.1000000000000227-53.89999999999998 12.199999999999989-53.799999999999955 53.60000000000002 0.09999999999990905 41.299999999999955 13.799999999999955 57.299999999999955 54.59999999999991 53.89999999999998z m-607.5999999999999-250.3c-4.000000000000043 0-8.100000000000051 0-12.200000000000045 0-27.400000000000006 0-41.3 13.699999999999989-41.3 40.69999999999999 0 4.5 0.29999999999999716 9-0.10000000000000853 13.400000000000034-3.299999999999997 40.69999999999999 13.5 54 53.400000000000006 54.099999999999966 41.69999999999999 0 54.80000000000001-14.099999999999966 54.900000000000006-54.39999999999998 0-41.10000000000002-13.599999999999994-57.19999999999999-54.7-53.80000000000001z"/>
</svg>
