<svg xmlns="http://www.w3.org/2000/svg" viewBox="0 0 1000 1000" width="1000" height="1000">
<path d="M769.5 378c-1.2999999999999545 0.10000000000002274-2.2999999999999545-1.8000000000000114-2.2999999999999545-4.5v-4.800000000000011c0-44.89999999999998-20.40000000000009-85-52.60000000000002-112.09999999999997-12.700000000000045-10.700000000000017-26.399999999999977-30.200000000000017-28.5-46.60000000000002l-8.800000000000068-69.6c-2.099999999999909-16.400000000000006-3.3999999999999773-43.400000000000006-7.899999999999977-59.400000000000006-13.199999999999932-46.7-56.799999999999955-81-108.5-81h-150c-51.69999999999999 0-95.19999999999999 34.3-108.39999999999998 81-4.5 15.900000000000006-5.800000000000011 42.900000000000006-7.899999999999977 59.400000000000006l-8.5 67.1c-2.1000000000000227 16.400000000000006-16.100000000000023 35.5-29.100000000000023 45.69999999999999-34.69999999999999 27-57 68.69999999999999-57 115.5v262.7c0 46.60000000000002 22.099999999999994 88.10000000000002 56.5 115.10000000000002 13 10.200000000000045 27 29.399999999999977 29.100000000000023 45.799999999999955l8.599999999999966 67.30000000000007c2.1000000000000227 16.399999999999977 3.400000000000034 43.39999999999998 7.900000000000034 59.39999999999998 13.199999999999989 46.700000000000045 56.89999999999998 81 108.69999999999999 81h150.40000000000003c51.89999999999998 0 95.5-34.299999999999955 108.69999999999993-81 4.5-15.899999999999977 5.800000000000068-43 7.899999999999977-59.39999999999998l8.900000000000091-69.89999999999998c2.099999999999909-16.40000000000009 15.799999999999955-36 28.399999999999977-46.80000000000007 31.899999999999977-27 52.10000000000002-67 52.10000000000002-111.60000000000002v-2.5s1-2.2999999999999545 2.2999999999999545-2.199999999999932c0.7999999999999545 0.10000000000002274 1.6000000000000227 0.10000000000002274 2.3999999999999773 0.10000000000002274 15.5 0 14.100000000000023-12.400000000000091 14.100000000000023-27.600000000000023v-36.89999999999998c0-15.300000000000068 1.5-27.600000000000023-14.100000000000023-27.600000000000023-0.7999999999999545 0-1.6000000000000227 0-2.3999999999999773 0.10000000000002274-1.2999999999999545 0.09999999999990905-2.2999999999999545-11.200000000000045-2.2999999999999545-25.500000000000057s1-25.599999999999966 2.2999999999999545-25.5c0.7999999999999545 0.10000000000002274 1.6000000000000227 0.10000000000002274 2.3999999999999773 0.10000000000002274 15.5 0 28.100000000000023-12.400000000000034 28.100000000000023-27.69999999999999v-50.700000000000045c0-15.299999999999955-12.600000000000023-27.69999999999999-28.100000000000023-27.69999999999999-0.7999999999999545 0.19999999999998863-1.6000000000000227 0.19999999999998863-2.3999999999999773 0.30000000000001137z m-21.100000000000023 245.89999999999998c0 75.39999999999998-62.19999999999993 136.5-138.79999999999995 136.5h-247.3c-76.69999999999999 0-138.9-61.10000000000002-138.9-136.5v-243.2c0-75.39999999999998 62.20000000000002-136.5 138.9-136.5h247.3c76.69999999999993 0 138.79999999999995 61.10000000000002 138.79999999999995 136.5v243.2z"/>
</svg>
