<svg xmlns="http://www.w3.org/2000/svg" viewBox="0 0 1000 1000" width="1000" height="1000">
<path d="M78 797.3h42.3c-8 160.4000000000001 160 192.20000000000005 290.7 187.10000000000002 5.399999999999977 9.300000000000068 15.300000000000011 15.600000000000023 26.80000000000001 15.600000000000023h132.99999999999994c17.200000000000045 0 31.200000000000045-13.899999999999977 31.200000000000045-31.200000000000045v-27.5c0-17.199999999999932-14-31.199999999999932-31.200000000000045-31.199999999999932h-132.99999999999994c-15.199999999999989 0-27.80000000000001 10.899999999999977-30.600000000000023 25.199999999999932-105.80000000000001 5.5-242.6-10.299999999999955-237.2-138h57.400000000000006c14.699999999999989 0 26.5-11.899999999999977 26.5-26.5v-310.29999999999995c0-14.699999999999989-11.900000000000006-26.5-26.5-26.5h-80.30000000000001c10.5-191 168.79999999999998-348.8 355-348.8 186.29999999999995 1.4210854715202004e-14 344.6 157.70000000000002 355.1 348.8h-84.10000000000002c-14.700000000000045 0-26.5 11.899999999999977-26.5 26.5v310.4c0 14.600000000000023 11.799999999999955 26.5 26.5 26.5h149.60000000000002c14.599999999999909 0 26.5-11.899999999999977 26.5-26.5v-310.4c0-6.600000000000023-2.5-12.5-6.5-17.19999999999999-5.600000000000023-241.4-204.9000000000001-443.3-440.40000000000003-443.3-234.2 0-432.70000000000005 199.9-440.5 439.6-6.20000000000001 4.7999999999999545-10.300000000000011 12.399999999999977-10.300000000000011 20.899999999999977v310.4c0 14.600000000000023 11.899999999999999 26.399999999999977 26.5 26.399999999999977z"/>
</svg>
