<svg xmlns="http://www.w3.org/2000/svg" viewBox="0 0 1000 1000" width="1000" height="1000">
<path d="M936.5 499.8l-233.70000000000005-382.9c-2.099999999999909-3.400000000000034-6.699999999999932-4.600000000000037-10.099999999999909-2.400000000000034l-301.40000000000003 183.8c-4.400000000000034-2.5-12.400000000000034-8.199999999999989-14.600000000000023-17.30000000000001-2.6999999999999886-12.100000000000023 5.300000000000011-28.599999999999994 23.19999999999999-47.900000000000006 23.900000000000034-25.69999999999999 34.400000000000034-51.099999999999994 31-75.5-4.699999999999989-32.69999999999999-33.099999999999966-49.8-34.299999999999955-50.5l-15.100000000000023 25.30000000000001c0.19999999999998863 0.19999999999998863 17.399999999999977 10.799999999999983 20.100000000000023 29.400000000000006 2.1999999999999886 15.099999999999994-5.600000000000023 32.39999999999998-23.200000000000045 51.29999999999998-25.399999999999977 27-35.599999999999966 52.00000000000003-30.5 74.6 2.8000000000000114 12 9.600000000000023 20.69999999999999 16.400000000000034 27l-298.20000000000005 182.10000000000002c-1.599999999999966 1-2.7999999999999687 2.599999999999966-3.399999999999963 4.599999999999966-0.5 1.8000000000000114-0.20000000000000284 3.8000000000000114 0.8999999999999986 5.600000000000023l233.79999999999998 382.9c1.3000000000000114 2.2000000000000455 3.7000000000000455 3.3999999999999773 6.2000000000000455 3.3999999999999773 1.2999999999999545 0 2.599999999999966-0.2999999999999545 3.8999999999999773-1l626.7-382.29999999999995c3.2999999999999545-2.3000000000000114 4.2999999999999545-6.699999999999989 2.2999999999999545-10.199999999999989z m-162-119.19999999999999l-65.10000000000002 39.799999999999955-39.89999999999998-65.19999999999999 65.29999999999995-39.69999999999999 39.700000000000045 65.10000000000002z m-106.60000000000002-174.60000000000002l39.80000000000007 65.19999999999999-65.20000000000005 39.80000000000001-39.799999999999955-65.30000000000001 65.19999999999993-39.69999999999999z m-2.3999999999999773 241.10000000000002l-65.29999999999995 39.89999999999998-39.80000000000007-65.30000000000001 65.20000000000005-39.80000000000001 39.89999999999998 65.20000000000005z m-106.60000000000002-174.5l39.80000000000007 65.09999999999997-65.20000000000005 39.80000000000001-39.89999999999998-65.10000000000002 65.29999999999995-39.799999999999955z m-7.5 244.10000000000002l-65.19999999999999 39.89999999999998-39.80000000000001-65.30000000000001 65.20000000000005-39.80000000000001 39.799999999999955 65.20000000000005z m-66.79999999999995-109.30000000000007l-65.10000000000002 39.80000000000001-39.80000000000001-65.19999999999999 65.10000000000002-39.89999999999998 39.80000000000001 65.29999999999995z m-43.80000000000001 176.89999999999998l-65.30000000000001 39.700000000000045-39.69999999999999-65.20000000000005 65.09999999999997-39.799999999999955 39.900000000000034 65.29999999999995z m-106.5-174.69999999999993l39.69999999999999 65.19999999999999-65.10000000000002 39.69999999999999-39.89999999999998-65.10000000000002 65.30000000000001-39.799999999999955z m-175.4 107l65.19999999999999-39.80000000000001 39.70000000000002 65.19999999999999-65.10000000000002 39.799999999999955-39.79999999999998-65.19999999999993z m66.69999999999999 109.5l65.29999999999998-39.89999999999998 39.80000000000001 65.29999999999995-65.19999999999999 39.799999999999955-39.900000000000006-65.19999999999993z m101.1 170.79999999999995l-38.69999999999999-63.39999999999998 292.9-178.5 38.60000000000002 63.200000000000045-292.8 178.69999999999993z m337.09999999999997-205.69999999999993l-39.799999999999955-65.20000000000005 65.10000000000002-39.80000000000001 39.799999999999955 65.19999999999999-65.10000000000002 39.80000000000007z m109-66.5l-39.69999999999993-65.20000000000005 65.29999999999995-39.89999999999998 39.60000000000002 65.39999999999998-65.20000000000005 39.700000000000045z"/>
</svg>
