<svg xmlns="http://www.w3.org/2000/svg" viewBox="0 0 1000 1000" width="1000" height="1000">
<path d="M199.5 507.7c5.099999999999994 67.69999999999999 5.400000000000006 136.2 16.599999999999994 202.90000000000003 10.800000000000011 64.19999999999993 46.599999999999994 116.60000000000002 108.6 145.10000000000002 8 3.599999999999909 20-0.7000000000000455 30.100000000000023-2.300000000000068 15.899999999999977-2.5 32-9 47.69999999999999-8.100000000000023 26.30000000000001 1.400000000000091 52.60000000000002 6.800000000000068 78.60000000000002 11.5 35.60000000000002 6.5 50.299999999999955 31 47.19999999999993 76.5-2.099999999999909 31.5-22.399999999999977 51.700000000000045-54.99999999999994 52.80000000000007-28.30000000000001 0.8999999999999773-57.19999999999999 3.6000000000000227-84.80000000000001-1-17-2.800000000000068-32.10000000000002-17.300000000000068-47.69999999999999-27.200000000000045-8.100000000000023-5.100000000000023-14.5-15.199999999999932-22.900000000000034-16.899999999999977-76.99999999999997-15.399999999999977-129.29999999999998-62-166.39999999999998-128.60000000000002-3.5-6.100000000000023-7.099999999999994-12.299999999999955-9.699999999999989-18.899999999999977-17.80000000000001-46.39999999999998-37.20000000000002-89-81.60000000000001-120.39999999999998-44.300000000000004-31.5-52.300000000000004-86.80000000000007-56.300000000000004-138.5-3.2999999999999985-44-5.899999999999999-88.60000000000002-1.8999999999999986-132.20000000000005 4.1-44.299999999999955 32.2-76.39999999999998 73.3-93.69999999999999 16.799999999999997-7.099999999999966 23.200000000000003-17.80000000000001 28.299999999999997-34 36.80000000000001-117.6 111.20000000000002-201.39999999999998 230.70000000000002-236.5 135.39999999999998-39.69999999999999 270.7-37.499999999999986 398.59999999999997 28.900000000000006 83.60000000000002 43.400000000000006 133.39999999999998 117.1 161.20000000000005 205.70000000000002 5.699999999999932 18.19999999999999 13.699999999999932 28.899999999999977 31.899999999999977 37.19999999999999 48.89999999999998 22.19999999999999 74.5 63.89999999999998 74 116.19999999999999-0.5 52.900000000000034-7.100000000000023 105.90000000000003-14.100000000000023 158.40000000000003-6.600000000000023 49.19999999999993-36 85.69999999999993-75.10000000000002 114.5-23.899999999999977 17.5-50.299999999999955 22.299999999999955-77.39999999999998 9-28.399999999999977-13.899999999999977-39.69999999999993-38.10000000000002-39.5-69.39999999999998 0.5-81.5-1.3999999999999773-163.10000000000002 0.6000000000000227-244.50000000000006 3-119.80000000000001-72-202.5-171.79999999999995-229.2-98.40000000000009-26.400000000000006-196.60000000000002-26.900000000000006-290.40000000000003 16.900000000000006-84.9 39.599999999999994-127 109.29999999999998-128 203.20000000000002-0.5 40.69999999999999-0.10000000000002274 81.5-0.10000000000002274 122.19999999999999l-4.699999999999989 0.39999999999997726z"/>
</svg>
