<svg xmlns="http://www.w3.org/2000/svg" viewBox="0 0 1000 1000" width="1000" height="1000">
<path d="M786.5 502.9c-0.7000000000000455-78.19999999999999 2.7000000000000455-156.59999999999997-20.700000000000045-233.09999999999997-43.19999999999993-141.8-144.39999999999998-210.70000000000002-293.4-197.9-127.39999999999998 10.899999999999991-206.5 73.9-239.09999999999997 206.1-29.5 119.69999999999999-33.20000000000002 242.60000000000002 5.399999999999977 361.9 28.600000000000023 88.39999999999998 83 157.70000000000005 170.2 197.39999999999998 17.900000000000034 8.200000000000045 29.700000000000045 11.100000000000023 43.400000000000034-9.699999999999932 25.19999999999999-38.5 76.49999999999994-52 119.19999999999999-36.30000000000007 48.799999999999955 18 72.70000000000005 55.80000000000007 70.29999999999995 111.5-2 44.10000000000002-34.19999999999993 82.40000000000009-79 93.80000000000007-44.799999999999955 11.399999999999977-93.99999999999994-6.5-115.99999999999994-46.89999999999998-11.600000000000023-21.300000000000068-26.600000000000023-31.90000000000009-48.5-39.90000000000009-117.60000000000002-42.799999999999955-186.20000000000002-132.5-227.70000000000002-245.79999999999995-6.699999999999989-18.5-14.099999999999994-29.299999999999955-33.69999999999999-34.700000000000045-40.400000000000006-11.199999999999932-75-33.39999999999998-101.2-66.59999999999991-62.7-79.80000000000007-41.400000000000006-193.30000000000007 52.7-240.50000000000006 48.5-24.30000000000001 69.79999999999998-53.80000000000001 83.69999999999999-105.39999999999998 36.099999999999994-134 144.29999999999998-211.3 286.5-216 57.89999999999998-1.9000000000000115 115.69999999999993-1.7000000000000113 172.10000000000002 14.799999999999988 121.89999999999998 35.5 184.5999999999999 123 210.0999999999999 241.70000000000002 5.100000000000023 23.69999999999999 12.600000000000023 37.69999999999999 37.80000000000007 46.89999999999998 81.29999999999995 29.80000000000001 123.10000000000002 92.10000000000002 120.79999999999995 172.10000000000002-1 34.099999999999966-14.600000000000023 63.599999999999966-36.19999999999993 88.99999999999994-38.80000000000007 45.5-89.10000000000002 69.20000000000005-148.30000000000007 75.5-19.899999999999977 2.1000000000000227-30.600000000000023-1.3999999999999773-29.100000000000023-25.899999999999977 2.300000000000068-37.19999999999993 0.6000000000000227-74.69999999999993 0.7000000000000455-112z"/>
</svg>
