<svg xmlns="http://www.w3.org/2000/svg" viewBox="0 0 1000 1000" width="1000" height="1000">
<path d="M977.5 180h-955c-12.4 0-22.5 10.300000000000011-22.5 22.900000000000006v594.6c0 12.700000000000045 10.1 22.899999999999977 22.5 22.899999999999977h955.1c12.399999999999977 0 22.5-10.299999999999955 22.5-22.899999999999977v-594.6c-0.10000000000002274-12.599999999999966-10.200000000000045-22.899999999999977-22.600000000000023-22.899999999999977z m-481.1 620.1l-9.5-2.6000000000000227v-8.700000000000045h9.5v11.300000000000068z m0-13.700000000000045h-9.5v-8.199999999999932l9.5-2.900000000000091v11.100000000000023z m16.700000000000045 18.300000000000068l-14.300000000000011-3.800000000000068v-12.100000000000023h14.300000000000011v15.900000000000091z m0-18.300000000000068h-14.300000000000011v-11.899999999999977l14.300000000000011-4.2000000000000455v16.100000000000023z m427.19999999999993-29.299999999999955h-878.1999999999999v-506.5h878.3v506.5z"/>
</svg>
