<svg xmlns="http://www.w3.org/2000/svg" viewBox="0 0 1000 1000" width="1000" height="1000">
<path d="M598.4 208.1c-30.5-30.5-80.10000000000002-30.5-110.59999999999997 0l-463.6 463.69999999999993c-14.099999999999989 14.200000000000045-21.19999999999999 32.700000000000045-21.19999999999999 51.200000000000045 0 31.399999999999977 46 75.89999999999998 76.5 106.5l149.4 149.39999999999998c28.299999999999983 28.300000000000068 74.1 28.100000000000023 102.20000000000002 0l463.69999999999993-463.69999999999993c30.5-30.500000000000057 30.5-80.10000000000002 0-110.60000000000002l-196.39999999999998-196.50000000000003z m201.20000000000005-208.1l-159.89999999999998 160.1 197.29999999999995 197.4 160-160-197.39999999999998-197.5z m17.699999999999932 157.6l-40-40.19999999999999 32.80000000000007-32.80000000000001 40.19999999999993 40.2-33 32.8z m21.100000000000023 21.200000000000017l33-33 40.200000000000045 40.29999999999998-33 32.80000000000001-40.200000000000045-40.099999999999994z"/>
</svg>
