<svg xmlns="http://www.w3.org/2000/svg" viewBox="0 0 1000 1000" width="1000" height="1000">
<path d="M866.4 243h-732.8c-73.80000000000003 0-133.60000000000002 59.80000000000001-133.60000000000002 133.60000000000002v247.10000000000002c0 73.79999999999995 59.8 133.5999999999999 133.6 133.5999999999999h732.8c73.80000000000007 0 133.60000000000002-59.799999999999955 133.60000000000002-133.5999999999999v-247.10000000000002c0-73.80000000000001-59.799999999999955-133.60000000000002-133.60000000000002-133.60000000000002z m-485.59999999999997 28.600000000000023h249.59999999999997c10.300000000000068 0 18.700000000000045 8.699999999999989 18.700000000000045 19 0 10.299999999999955-8.399999999999977 19.099999999999966-18.700000000000045 19.099999999999966h-249.59999999999997c-10.300000000000011 0-18.600000000000023-8.800000000000011-18.600000000000023-19.099999999999966 0-10.300000000000011 8.300000000000011-19 18.600000000000023-19z m-323.2 99.79999999999995c-2.1316282072803006e-14-19 15.399999999999977-34.39999999999998 34.39999999999998-34.39999999999998 19 0 34.400000000000006 15.399999999999977 34.400000000000006 34.39999999999998s-15.400000000000006 34.400000000000034-34.400000000000006 34.400000000000034c-19 0-34.4-15.400000000000034-34.4-34.400000000000034z m123.39999999999998 128.70000000000005h-28.599999999999994v28.600000000000023h-38.10000000000001v-28.600000000000023h-28.599999999999994v-38.10000000000002h28.599999999999994v-28.5h38.10000000000001v28.5h28.599999999999994v38.10000000000002z m324.1 245.69999999999993c-11.800000000000011 0-21.30000000000001-9.5-21.30000000000001-21.299999999999955 0-11.799999999999955 9.5-21.399999999999977 21.30000000000001-21.399999999999977s21.399999999999977 9.600000000000023 21.399999999999977 21.399999999999977c0 11.799999999999955-9.600000000000023 21.299999999999955-21.399999999999977 21.299999999999955z m275.9-74.19999999999993h-562v-333.40000000000003h562v333.40000000000003z m54.5-168c-10.700000000000045 0-19.399999999999977-8.700000000000045-19.399999999999977-19.400000000000034 0-10.699999999999989 8.699999999999932-19.399999999999977 19.399999999999977-19.399999999999977s19.399999999999977 8.699999999999989 19.399999999999977 19.399999999999977c0 10.699999999999989-8.699999999999932 19.400000000000034-19.399999999999977 19.400000000000034z m44.200000000000045 40.299999999999955c-10.700000000000045 0-19.40000000000009-8.699999999999932-19.40000000000009-19.399999999999977 0-10.799999999999955 8.700000000000045-19.399999999999977 19.40000000000009-19.399999999999977s19.399999999999977 8.600000000000023 19.399999999999977 19.399999999999977c0 10.700000000000045-8.700000000000045 19.399999999999977-19.399999999999977 19.399999999999977z m0-78.59999999999997c-10.700000000000045 0-19.40000000000009-8.699999999999989-19.40000000000009-19.400000000000034 0-10.799999999999955 8.700000000000045-19.399999999999977 19.40000000000009-19.399999999999977s19.399999999999977 8.600000000000023 19.399999999999977 19.399999999999977c0 10.700000000000045-8.700000000000045 19.400000000000034-19.399999999999977 19.400000000000034z m43.19999999999993 38.30000000000001c-10.699999999999932 0-19.399999999999977-8.700000000000045-19.399999999999977-19.400000000000034 0-10.699999999999989 8.700000000000045-19.399999999999977 19.399999999999977-19.399999999999977s19.399999999999977 8.699999999999989 19.399999999999977 19.399999999999977c0 10.699999999999989-8.599999999999909 19.400000000000034-19.399999999999977 19.400000000000034z m-3.6000000000000227-97.80000000000001c-19 0-34.39999999999998-15.400000000000034-34.39999999999998-34.400000000000034s15.399999999999977-34.39999999999998 34.39999999999998-34.39999999999998c19 0 34.30000000000007 15.399999999999977 34.30000000000007 34.39999999999998s-15.300000000000068 34.400000000000034-34.30000000000007 34.400000000000034z"/>
</svg>
