<svg xmlns="http://www.w3.org/2000/svg" viewBox="0 0 1000 1000" width="1000" height="1000">
<path d="M0 772.4c17.6 7.899999999999977 35.2 15.800000000000068 54.2 24.300000000000068v-165c-19.1 9-36.7 17.299999999999955-54.2 25.59999999999991v115.10000000000002z m783.6-553.5c-103.20000000000005-91.09999999999998-225.39999999999998-116.69999999999997-358.5-97.29999999999998-190.8 27.700000000000017-338.90000000000003 190.1-344.70000000000005 380.20000000000005-3.1999999999999744 106.99999999999989-0.8999999999999773 214.19999999999993-0.39999999999997726 321.29999999999995 0.09999999999999432 35.39999999999998 26.299999999999997 60.69999999999993 61.80000000000001 61.299999999999955 28.399999999999977 0.6000000000000227 56.89999999999998 0.3000000000000682 85.29999999999998 0.10000000000002274 43.599999999999994-0.10000000000002274 67.50000000000003-23.700000000000045 67.6-67.20000000000005 0.19999999999998863-68.09999999999991 0.19999999999998863-136.19999999999993 0-204.29999999999995-0.0999999999999659-45.200000000000045-24.599999999999966-69.5-69.89999999999998-69.60000000000002-24.200000000000017-0.10000000000002274-48.400000000000006 0-74.5 0-3.700000000000017-134.5 46.89999999999998-239.89999999999998 160.2-306.9 130.5-77.1 265.70000000000005-74.69999999999999 393 8.5 104.60000000000002 68.30000000000001 150.70000000000005 170.5 146.60000000000002 297.70000000000005-26.800000000000068 0-51.80000000000007-0.10000000000002274-76.70000000000005 0-42.5 0.2999999999999545-67.79999999999995 25.199999999999932-67.89999999999998 67.59999999999991-0.2999999999999545 68.80000000000007-0.2999999999999545 137.5 0 206.30000000000007 0.10000000000002274 42.39999999999998 23.100000000000023 66.5 65.39999999999998 67.79999999999995 26.399999999999977 0.8999999999999773 52.89999999999998 0.6000000000000227 79.30000000000007 0.20000000000004547 46.39999999999998-0.7000000000000455 70.19999999999993-25.100000000000023 70.19999999999993-71.70000000000005 0-99.89999999999998 0.8999999999999773-199.69999999999993-0.2999999999999545-299.5-1.5-118.29999999999995-48.39999999999998-216.7-136.5-294.5z m215.89999999999998 452c-0.10000000000002274-4.7999999999999545-1-11.899999999999977-4.100000000000023-13.899999999999977-15.299999999999955-9.5-31.600000000000023-17.700000000000045-49.5-27.399999999999977v167.69999999999993c14.5-7.599999999999909 26.800000000000068-14.799999999999955 39.80000000000007-20.59999999999991 10.5-4.600000000000023 14.699999999999932-10.900000000000091 14.299999999999955-22.600000000000023-0.8999999999999773-27.700000000000045-0.10000000000002274-55.39999999999998-0.5-83.20000000000005z"/>
</svg>
