<svg xmlns="http://www.w3.org/2000/svg" viewBox="0 0 1000 1000" width="1000" height="1000">
<path d="M706.9 0h-414c-11.799999999999955 0-21.399999999999977 9.6-21.399999999999977 21.5v957.1c0 11.799999999999955 9.600000000000023 21.5 21.399999999999977 21.5h414c11.800000000000068 0 21.300000000000068-9.600000000000023 21.300000000000068-21.5v-957.1c0.09999999999990905-11.9-9.5-21.5-21.300000000000068-21.5z m-207 893.2c-88.5 0-160.29999999999995-72-160.29999999999995-160.9000000000001s71.69999999999999-160.89999999999998 160.29999999999995-160.89999999999998c88.5 0 160.30000000000007 72 160.30000000000007 160.89999999999998s-71.80000000000007 160.9000000000001-160.30000000000007 160.9000000000001z m184.30000000000007-408.00000000000006h-368.6v-436.9h368.6v436.9z m-104.20000000000005 245.3c0 44.39999999999998-35.89999999999998 80.39999999999998-80.10000000000002 80.39999999999998-44.299999999999955 0-80.09999999999997-36-80.09999999999997-80.39999999999998 0-44.39999999999998 35.80000000000001-80.39999999999998 80.09999999999997-80.39999999999998 44.200000000000045 0 80.10000000000002 36 80.10000000000002 80.39999999999998z"/>
</svg>
