<svg xmlns="http://www.w3.org/2000/svg" viewBox="0 0 1000 1000" width="1000" height="1000">
<path d="M343.9 402.1c-9.5-6.300000000000011-20.19999999999999-10.700000000000045-34.099999999999966-18 37.099999999999966-51.60000000000002 8.099999999999966-94.40000000000003-19.19999999999999-142.70000000000002-12.800000000000011 37.20000000000002-23.200000000000045 71.6-36.900000000000034 104.49999999999997-4.299999999999983 10.300000000000011-16.69999999999999 22.600000000000023-27 24.30000000000001-41.29999999999998 6.800000000000011-65.79999999999998 27.900000000000034-72.1 69.30000000000001 55.400000000000006 52 47.900000000000006 94.60000000000002-19.400000000000006 122.29999999999995-23.89999999999999 9.900000000000091-30.099999999999994 27.100000000000023-11.199999999999989 50.40000000000009 33.80000000000001 41.5 23.900000000000006 81.09999999999991-25.200000000000003 102.09999999999991-30.200000000000003 12.900000000000091-33.2 32.30000000000007-17.89999999999999 58.10000000000002 26.099999999999994 44 18.599999999999994 70.5-23.500000000000007 96.89999999999998-10.899999999999999 6.800000000000068-21.299999999999997 22.5-22.5 35-3.599999999999998 38.80000000000007 17.9 63.30000000000007 53.9 75.60000000000002 20.60000000000001 7 41.3 13.399999999999977 62.000000000000014 20.100000000000023h54.69999999999999c24.400000000000006-17.100000000000023 46.19999999999999-31.700000000000045 44.599999999999994-69.89999999999998-6.5-156.80000000000007 31.00000000000003-303.5 112.4-438.3 20.69999999999999-34.19999999999999 15.100000000000023-67.19999999999999-18.600000000000023-89.69999999999999z m609.9 431.19999999999993l-4.199999999999932-16c-0.5-1.599999999999909-0.7000000000000455-2.5-0.7000000000000455-2.5-31.600000000000023-119.29999999999995-63.19999999999993-238.5999999999999-94.5-357.9-18.399999999999977-70.29999999999995-29.299999999999955-80.29999999999995-100.60000000000002-88.19999999999999-24-79.69999999999999-46.89999999999998-160.79999999999998-72.79999999999995-240.79999999999998-27.399999999999977-84.80000000000001-102-131.9-196.2-127.60000000000001-77.10000000000002 3.5000000000000027-148.8 66.10000000000001-167 146.10000000000002-18.400000000000034 80.29999999999995 19.69999999999999 164.99999999999994 92.5 205.79999999999995 73.39999999999998 41.10000000000002 166.09999999999997 28.400000000000034 226.09999999999997-32 7.800000000000068-7.899999999999977 12-19.399999999999977 17.800000000000068-29.30000000000001l9.799999999999955 7.900000000000034c8.600000000000023 29.30000000000001 17.299999999999955 58.599999999999966 25.700000000000045 87.39999999999998-68.30000000000007 34.10000000000002-74.40000000000009 59.30000000000001-38.40000000000009 122 70.70000000000005 123.09999999999997 104.40000000000009 257.09999999999997 103.10000000000002 398.40000000000003-0.2999999999999545 31.899999999999977 3.300000000000068 57.60000000000002 21.100000000000023 78.69999999999993 0.8999999999999773 1 18.799999999999955 18.5 69.10000000000002 12.400000000000091 0 0 34.60000000000002-3.300000000000068 69.29999999999995-17 3-1.1000000000000227 5.899999999999977-2.300000000000068 8.700000000000045-3.7000000000000455l1.8999999999999773-0.7999999999999545c12.299999999999955-6.300000000000068 22.299999999999955-14.300000000000068 30.899999999999977-24.100000000000023 18.399999999999977-24.5 6.100000000000023-87.39999999999998-1.6000000000000227-118.80000000000007z m-450.09999999999997-521.5999999999999c-66.59999999999997 0.8999999999999773-124.69999999999999-55.80000000000004-125.59999999999997-122.80000000000004-0.9000000000000341-66.7 55.799999999999955-124.60000000000001 122.89999999999998-125.5 66.70000000000005-0.9000000000000057 124.60000000000002 55.69999999999999 125.5 122.79999999999998 1 66.70000000000002-55.700000000000045 124.60000000000002-122.80000000000001 125.5z"/>
</svg>
