<svg xmlns="http://www.w3.org/2000/svg" viewBox="0 0 1000 1000" width="1000" height="1000">
<path d="M62.5 128.9v742.1c0 36.5 29.599999999999994 66.39999999999998 66.4 66.39999999999998h742.1c36.5 0 66.39999999999998-29.899999999999977 66.39999999999998-66.39999999999998v-742.1c0-36.89999999999998-29.899999999999977-66.39999999999998-66.39999999999998-66.39999999999998h-742.1c-36.79999999999998 0-66.39999999999998 29.599999999999994-66.39999999999998 66.4z m336.5 57.5l295.70000000000005 296c10 9.600000000000023 10 25.200000000000045 0 34.89999999999998l-295.70000000000005 296c-9.600000000000023 9.600000000000023-25.600000000000023 9.600000000000023-35.19999999999999 0l-58.80000000000001-58.799999999999955c-9.600000000000023-9.600000000000023-9.600000000000023-25.600000000000023 0-35.200000000000045l202-202c9.600000000000023-9.599999999999966 9.600000000000023-25.199999999999932 0-34.89999999999998l-202-202c-9.600000000000023-9.599999999999966-9.600000000000023-25.599999999999966 0-35.19999999999999l58.80000000000001-58.79999999999998c9.599999999999966-9.599999999999994 25.599999999999966-9.599999999999994 35.19999999999999 0z"/>
</svg>
