<svg xmlns="http://www.w3.org/2000/svg" viewBox="0 0 1000 1000" width="1000" height="1000">
<path d="M764 266.5l-30.100000000000023-47.80000000000001c-6.5-10.299999999999983-17-10.299999999999983-23.5 0l-165.60000000000002 262.6c-6.5 10.300000000000011-6.5 27 0 37.30000000000001l112.40000000000009 178.19999999999993c6.5 10.300000000000068 1.8999999999999773 18.700000000000045-10.300000000000068 18.700000000000045h-3.699999999999932c-12.200000000000045 0-27.100000000000023-8.5-33.5-18.799999999999955-25.40000000000009-40.90000000000009-86.30000000000007-137.30000000000007-111.90000000000003-178-6.5-10.300000000000068-6.5-27.000000000000057 0-37.30000000000007l112.09999999999997-177.5c6.5-10.299999999999955 6.5-27 0-37.299999999999955-9-14.200000000000017-21.199999999999932-33.70000000000002-30.199999999999932-47.80000000000001-6.5-10.400000000000006-21.700000000000045-18.700000000000017-33.80000000000007-18.700000000000017h-110.59999999999997c-12.199999999999989 0-26.69999999999999 7.400000000000006-32.400000000000034 16.400000000000006l-10.399999999999977 16.400000000000006-156.5 248.4c-6.5 10.300000000000011-6.5 27 0 37.30000000000001l165.5 262.6c6.5 10.299999999999955 17 10.299999999999955 23.5 0l30.19999999999999-47.90000000000009c6.5-10.299999999999955 6.5-27 0-37.299999999999955l-112-177.39999999999998c-6.5-10.300000000000011-6.5-27 0-37.30000000000001l112.10000000000002-177.5c6.5-10.300000000000011 21.599999999999966-19.100000000000023 33.80000000000001-19.19999999999999h3.3999999999999773c12.199999999999989-0.10000000000002274 16.80000000000001 8.299999999999955 10.300000000000011 18.599999999999966l-112.40000000000003 178.10000000000002c-6.5 10.300000000000011-6.5 27 0 37.30000000000001l112.20000000000005 178.19999999999993 23.399999999999977 37.40000000000009 29.700000000000045 47.19999999999993c6.5 10.300000000000068 21.699999999999932 18.700000000000045 33.799999999999955 18.700000000000045h110.29999999999995c12.200000000000045 0 27.40000000000009-8.300000000000068 33.90000000000009-18.700000000000045 9-14.199999999999932 21.299999999999955-33.69999999999993 30.199999999999932-47.89999999999998 6.5-10.299999999999955 6.5-27 0-37.299999999999955l-111.79999999999995-177.60000000000002c-6.5-10.300000000000011-6.5-27 0-37.30000000000001l111.89999999999998-177.5c6.5-10.300000000000011 6.5-27 0-37.30000000000001z"/>
</svg>
