<svg xmlns="http://www.w3.org/2000/svg" viewBox="0 0 1000 1000" width="1000" height="1000">
<path d="M128.9 937.5h742.1c36.5 0 66.39999999999998-29.600000000000023 66.39999999999998-66.39999999999998v-742.2c0-36.49999999999997-29.899999999999977-66.39999999999998-66.39999999999998-66.39999999999998h-742.1c-36.89999999999998 0-66.39999999999998 29.900000000000006-66.39999999999998 66.4v742.1c0 36.89999999999998 29.599999999999994 66.5 66.4 66.5z m57.5-336.5l296-295.7c9.600000000000023-10 25.200000000000045-10 34.89999999999998 0l296 295.7c9.600000000000023 9.600000000000023 9.600000000000023 25.600000000000023 0 35.200000000000045l-58.799999999999955 58.799999999999955c-9.600000000000023 9.600000000000023-25.600000000000023 9.600000000000023-35.200000000000045 0l-202-202c-9.599999999999966-9.600000000000023-25.199999999999932-9.600000000000023-34.89999999999998 0l-202 202c-9.599999999999966 9.600000000000023-25.599999999999966 9.600000000000023-35.19999999999999 0l-58.79999999999998-58.799999999999955c-9.599999999999994-9.600000000000023-9.599999999999994-25.600000000000023 0-35.200000000000045z"/>
</svg>
