<svg xmlns="http://www.w3.org/2000/svg" viewBox="0 0 1000 1000" width="1000" height="1000">
<path d="M502.6 800h-280.1c-7.900000000000006 0-15.199999999999989-4.899999999999977-18.19999999999999-12.200000000000045-3.1000000000000227-7.399999999999977-1.4000000000000057-15.799999999999955 4.299999999999983-21.5l266.1-266.29999999999995-264.30000000000007-264.6c-4.799999999999983-3.299999999999983-7.899999999999977-9.299999999999983-7.899999999999977-15.699999999999989 0-10.699999999999989 8.599999999999994-19.399999999999977 19.19999999999999-19.69999999999999h281c5.199999999999989 0 10.199999999999989 2.0999999999999943 13.900000000000034 5.800000000000011l281 281.2v26.200000000000045l-0.8000000000000682 0.7999999999999545-280.19999999999993 280.20000000000005c-3.800000000000068 3.699999999999932-8.800000000000011 5.7999999999999545-14 5.7999999999999545z m-281.5-594.1c-7.100000000000023 0.5000000000000284-12.800000000000011 6.500000000000028-12.800000000000011 13.800000000000011 0 4.5 2.1999999999999886 8.700000000000017 5.799999999999983 11.300000000000011l268.9 269-2 2-268.3 268.5c-4 4-5.199999999999989 9.899999999999977-3 15.100000000000023 2.1000000000000227 5.100000000000023 7.300000000000011 8.5 12.800000000000011 8.5h280.1c3.599999999999966 0 7.199999999999989-1.5 9.799999999999955-4.100000000000023l279.30000000000007-279.4v-21.30000000000001l-279.30000000000007-279.3c-2.599999999999966-2.5999999999999943-6.199999999999989-4.099999999999994-9.799999999999955-4.099999999999994h-281.5z m275.79999999999995 560.6h-16.899999999999977l11.600000000000023-5.600000000000023 5.199999999999989-2.6000000000000227 16.80000000000001-8.799999999999955-16.700000000000045 17z m-48.299999999999955 0h-30.900000000000034l10.800000000000011-5.5c9.199999999999989-4.7000000000000455 20.30000000000001-10.399999999999977 34.10000000000002-17.600000000000023l42.5-22 3 5c-20.5 13.800000000000068-40.80000000000001 27.5-58.80000000000001 39.60000000000002l-0.6999999999999886 0.5z m-6.600000000000023-5.899999999999977h4.899999999999977c5.2000000000000455-3.5 10.700000000000045-7.2000000000000455 16.30000000000001-10.899999999999977-8 4.099999999999909-15 7.699999999999932-21.19999999999999 10.899999999999977z m-56.39999999999998 5.899999999999977h-40.200000000000045l161-82 2.900000000000034 5.100000000000023-77.30000000000001 48.10000000000002c-21.399999999999977 13.299999999999955-34.30000000000001 21.399999999999977-41.80000000000001 26.799999999999955-1.6999999999999886 1-2.6999999999999886 1.3999999999999773-3.1999999999999886 1.6000000000000227l-1.3999999999999773 0.39999999999997726z m-15.800000000000011-5.899999999999977h15.199999999999989c0.5-0.20000000000004547 1.3000000000000114-0.6000000000000227 2.1000000000000227-1.1000000000000227 7.399999999999977-5.2999999999999545 20.299999999999955-13.399999999999977 41.799999999999955-26.799999999999955l19.80000000000001-12.400000000000091-78.89999999999998 40.30000000000007z m-55.80000000000001 5.899999999999977h-30.399999999999977l10.699999999999989-5.5c7.399999999999977-3.7999999999999545 16.30000000000001-8.399999999999977 28-14.5 23.399999999999977-12.200000000000045 57.69999999999999-29.899999999999977 97-50.299999999999955l2.8000000000000114 5.199999999999932c-65.20000000000005 37.80000000000007-91.40000000000003 53.60000000000002-103.90000000000003 62.89999999999998l-4.199999999999989 2.2000000000000455z m-6.199999999999989-5.899999999999977h4.899999999999977l2.6000000000000227-1.3000000000000682c3.6999999999999886-2.7999999999999545 8.800000000000011-6.199999999999932 15.899999999999977-10.799999999999955-2.099999999999966 1.1000000000000227-4.099999999999966 2.1000000000000227-6.099999999999966 3.2000000000000455-6.5 3.3999999999999773-12.200000000000045 6.2999999999999545-17.30000000000001 8.899999999999977z m-49.19999999999999 3.1000000000000227l74.09999999999997-74.10000000000002 1.6999999999999886 4.2999999999999545c0.20000000000004547 0.5 0.4000000000000341 1 0.7000000000000455 1.6000000000000227 0.7999999999999545 1.6000000000000227 2.2999999999999545 2.8999999999999773 4.199999999999989 3.5 1.6999999999999886 0.20000000000004547 4.199999999999989-0.7000000000000455 8-2.2999999999999545 10.599999999999966-4.600000000000023 34.89999999999998-16.800000000000068 89.69999999999999-44.80000000000007l2.8000000000000114 5.100000000000023-181.2 106.70000000000005z m72.19999999999999-64l-35.5 35.59999999999991 64.69999999999999-38.19999999999993c-4.5 2.199999999999932-7.899999999999977 3.699999999999932-10.5 4.899999999999977-5.699999999999989 2.5-8 3-9.699999999999989 3-1 0-1.6999999999999886-0.20000000000004547-2.3000000000000114-0.39999999999997726-2.6999999999999886-0.8999999999999773-5.100000000000023-2.6000000000000227-6.699999999999989-4.899999999999977z m25.69999999999999-25.800000000000068l-3.6999999999999886-4.5 71.69999999999999-71.79999999999995 1.3000000000000114 5c0.19999999999998863 0.6999999999999318 0.19999999999998863 1.3999999999999773 0.0999999999999659 1.7999999999999545 0.7000000000000455 1.5 2.3000000000000114 2.8999999999999773 4.100000000000023 3.3999999999999773 0.39999999999997726 0.10000000000002274 0.6000000000000227 0.20000000000004547 1 0.20000000000004547 1.1000000000000227 0 3.1000000000000227-0.5 5.899999999999977-1.6000000000000227l0.7000000000000455-0.1999999999999318c9.5-3.7000000000000455 29.19999999999999-13 61.69999999999999-29.5l2.8999999999999773 5.099999999999909c-79.30000000000001 49.40000000000009-123 76.70000000000005-145.7 92.10000000000002z m65.19999999999999-65.10000000000002l-44.5 44.60000000000002c17.69999999999999-11.399999999999977 41.60000000000002-26.399999999999977 73.60000000000002-46.299999999999955-4.699999999999989 2.1000000000000227-8.300000000000011 3.699999999999932-11.199999999999989 4.7999999999999545l-4.400000000000034 3.7000000000000455-0.0999999999999659-2.2000000000000455c-3.7000000000000455 1-5.7000000000000455 0.6000000000000227-6.800000000000011 0.20000000000004547-2.6000000000000227-0.8999999999999773-5-2.6000000000000227-6.600000000000023-4.800000000000068z m178.8 47.5l-2.7999999999999545-5.099999999999909c5.599999999999909-3.5 11-6.800000000000068 16.5-10.300000000000068l22-13.799999999999955-23.200000000000045 23-12.5 6.199999999999932z m19.399999999999977-45.69999999999993l-2.7999999999999545-5.2000000000000455c25.699999999999932-14.699999999999932 51.19999999999993-29.299999999999955 76-43.60000000000002l19-10.899999999999977-26 25.800000000000068-66.20000000000005 33.89999999999998z m-33.799999999999955-16.5l-2.800000000000068-5.100000000000023 152.30000000000007-89.80000000000001 5.699999999999932 3.1999999999999886-9.5-15.399999999999977c-0.6999999999999318 0.10000000000002274-2 0.39999999999997726-4.899999999999977 1.6000000000000227l-2.5 1-0.1999999999999318-0.30000000000001137-2.6000000000000227 1.5c-15.700000000000045 7.300000000000011-52.10000000000002 25.900000000000034-140 70.90000000000003l-33.39999999999998 17.09999999999991c-5.900000000000091 3.1000000000000227-11.900000000000091 6.2000000000000455-17.90000000000009 9.200000000000045l-2.8999999999999773-5.100000000000023c109.20000000000005-68 154.30000000000007-96.19999999999999 171.5-109.59999999999997 1-0.5 1.7000000000000455-1 2.5-1.400000000000034l-0.1999999999999318-0.39999999999997726 1.6999999999999318-1.5c6-5.300000000000011 5.5-6.300000000000011 4.100000000000023-8.899999999999977-0.8999999999999773-1.7000000000000455-2.3999999999999773-3.1000000000000227-4.2000000000000455-3.6000000000000227-1.5-0.39999999999997726-3.199999999999932-0.30000000000001137-5.7999999999999545 0.6999999999999886-46.799999999999955 24.600000000000023-104.29999999999995 54.50000000000006-153.39999999999998 79.90000000000003l-3-5 132.89999999999998-94.20000000000005c3-2.1999999999999886 3.8999999999999773-6.399999999999977 2-9.5-1.8999999999999773-3.1999999999999886-6.2999999999999545-4.599999999999966-9.200000000000045-2.7999999999999545-19.899999999999977 10.399999999999977-44.59999999999991 23.299999999999955-67.79999999999995 35.19999999999999l-22.299999999999955 11.5 19.09999999999991-16.30000000000001c29-24.80000000000001 42.200000000000045-36.69999999999999 48.80000000000007-43.69999999999999l0.39999999999997726-0.5c5.899999999999977-6.400000000000034 5.399999999999977-7.5 4.100000000000023-10-1.7000000000000455-3.5-6.2000000000000455-5-9.600000000000023-3.1999999999999886l-75.29999999999995 38.39999999999998 17.899999999999977-15.600000000000023c10.199999999999932-8.899999999999977 18.199999999999932-15.899999999999977 24.399999999999977-21.399999999999977 6.7999999999999545-6.100000000000023 10.700000000000045-9.699999999999989 13.600000000000023-12.600000000000023 6.399999999999977-6.5 6.100000000000023-7.199999999999989 4.399999999999977-10.299999999999955-0.7999999999999545-1.7000000000000455-2.3999999999999773-3-4.100000000000023-3.5-0.5-0.20000000000004547-0.6999999999999318-0.20000000000004547-0.7999999999999545-0.20000000000004547-3.1000000000000227 0-18.700000000000045 7.7000000000000455-67 32.30000000000001l-18.200000000000045 9.199999999999989 60.80000000000007-57.19999999999999c2.2999999999999545-2.1999999999999886 2.8999999999999773-5.599999999999966 1.3999999999999773-8.300000000000011-0.8000000000000682-1.6999999999999886-2.3999999999999773-3.099999999999966-4.300000000000068-3.6999999999999886-0.6999999999999318-0.19999999999998863-1.099999999999909-0.39999999999997726-1.599999999999909-0.39999999999997726-2.900000000000091 0-11.200000000000045 3.6999999999999886-32.80000000000007 14.899999999999977l-3.199999999999932-4.899999999999977c8.599999999999909-6.800000000000011 14.099999999999909-11.400000000000034 17.799999999999955-14.800000000000011l0.7999999999999545-0.6999999999999886c6-5.800000000000011 5.600000000000023-6.699999999999989 4-9.800000000000011-1.6999999999999318-3.3999999999999773-6.199999999999932-4.899999999999977-9.699999999999932-3.1000000000000227l-66.10000000000002 33.60000000000002 53.299999999999955-42.39999999999998c2.900000000000091-2.3000000000000114 3.5-6.400000000000034 1.6000000000000227-9.5-1.8999999999999773-2.900000000000034-6.100000000000023-4-9.199999999999932-2.400000000000034l-0.7000000000000455 0.30000000000001137c-18.700000000000045 9.699999999999989-42.30000000000001 21.80000000000001-63.80000000000001 32.89999999999998l-18.099999999999966 9.300000000000011 62.39999999999998-59.30000000000001c1.8999999999999773-1.7999999999999545 2.6000000000000227-4.2999999999999545 2-6.699999999999989-0.5-2.5-2.3999999999999773-4.5-4.7000000000000455-5.199999999999989-0.7999999999999545-0.19999999999998863-1.1999999999999318-0.39999999999997726-1.599999999999909-0.39999999999997726-3.400000000000091 0-15.100000000000023 6.099999999999966-55.00000000000006 26.899999999999977l-21.80000000000001 11.399999999999977 18.5-16.19999999999999c19.600000000000023-17.099999999999966 29.30000000000001-26 34.700000000000045-31.899999999999977l0.8999999999999773-1c5.800000000000011-6.400000000000034 5.300000000000011-7.300000000000011 4-9.800000000000011-0.8999999999999773-1.6999999999999886-2.3000000000000114-3-4.199999999999989-3.5-1.8000000000000114-0.5999999999999943-4-0.4000000000000057-5.400000000000034 0.4000000000000057-20.5 10.700000000000017-47 24.49999999999997-70.29999999999995 36.49999999999997l-16.30000000000001 8.400000000000034 12.899999999999977-13.100000000000023c40-40.5 39.400000000000034-41.79999999999998 37.400000000000034-45.69999999999999-0.4000000000000341-0.6999999999999886-0.9000000000000341-1.3000000000000114-1.5-1.9000000000000057l-3.6000000000000227-3.5999999999999943-7.899999999999977 4.099999999999994c-25.200000000000045 13.099999999999994-59.60000000000002 30.799999999999983-81.20000000000005 41.900000000000006l-6.2999999999999545 3.1999999999999886 12.5-38.29999999999998c0.7999999999999545-2.5 0-5.300000000000011-2-7.300000000000011l-3.7000000000000455-3.5-7.5 4c-15.899999999999977 8.400000000000006-33.599999999999966 17.599999999999994-40.5 20.900000000000006l2.6000000000000227 8-2.3000000000000114 7.100000000000023c3.1000000000000227-0.6000000000000227 10-3.900000000000034 28-13.300000000000011l6.400000000000034-3.400000000000034-12.200000000000045 37.200000000000045c-0.5999999999999659 1.7999999999999545-0.39999999999997726 3.6999999999999886 0.4000000000000341 5.399999999999977s2.3999999999999773 3 4.199999999999989 3.5c0.8000000000000114 0.19999999999998863 1.1000000000000227 0.39999999999997726 1.6000000000000227 0.39999999999997726 3.5 0 14.199999999999989-5.099999999999966 54.799999999999955-26.19999999999999l16.400000000000034-8.5-13 13.100000000000023c-12.400000000000034 12.5-25.30000000000001 25.599999999999966-35.900000000000034 36.19999999999999-1.6999999999999886 1.6999999999999886-2.5 4.300000000000011-1.8999999999999773 6.699999999999989 0.6000000000000227 2.400000000000034 2.3999999999999773 4.400000000000034 4.699999999999989 5.100000000000023 0.6999999999999886 0.19999999999998863 1 0.30000000000001137 1.5 0.30000000000001137 3.6999999999999886 0 16.69999999999999-6.2000000000000455 56-26.5l21.80000000000001-11.300000000000011-18.5 16.099999999999966c-13.600000000000023 11.800000000000011-27.399999999999977 23.700000000000045-38.80000000000001 33.60000000000002-2 1.6999999999999886-2.8999999999999773 4.300000000000011-2.3000000000000114 6.800000000000011 0.5 2.5 2.3000000000000114 4.599999999999966 4.800000000000011 5.399999999999977 0.8000000000000114 0.19999999999998863 1.1000000000000227 0.4000000000000341 1.6000000000000227 0.4000000000000341 3.8000000000000114 0 16-6.300000000000011 67-32.900000000000034l18.399999999999977-9.699999999999989-61.5 58.5c-1.8000000000000114 1.6999999999999886-2.599999999999966 4.300000000000011-2 6.800000000000011 0.30000000000001137 1.3999999999999773 1.1000000000000227 3.1999999999999886 4.800000000000011 4.399999999999977h0.10000000000002274c1.099999999999966 0 3.5-1.1999999999999886 7.5-3.1999999999999886 5.7999999999999545-2.8999999999999773 15.399999999999977-7.699999999999989 32.89999999999998-15.399999999999977l1.1999999999999886-0.20000000000004547h5.300000000000011l-2.8999999999999773 4.5c-8 12.400000000000034-14.100000000000023 15.600000000000023-18.600000000000023 17.900000000000034-1.6999999999999886 0.8000000000000114-3 1.599999999999966-4 2.599999999999966l-0.39999999999997726 0.30000000000001137-0.8000000000000114 1.400000000000034c-6 6.099999999999966-5.5 7.199999999999989-4.100000000000023 9.799999999999955 1.6999999999999886 3.5 6.199999999999989 4.900000000000034 9.699999999999989 3.2000000000000455l32.700000000000045-16.700000000000045 3.099999999999966 4.900000000000034c-10.300000000000011 8-17.099999999999966 13.599999999999966-21.399999999999977 17.599999999999966l-0.4000000000000341 0.4000000000000341c-6.5 6-6.099999999999966 6.800000000000011-4.2999999999999545 10.099999999999966 0.7999999999999545 1.7000000000000455 2.3999999999999773 3 4.199999999999989 3.5 0.8000000000000114 0.30000000000001137 1.1999999999999886 0.4000000000000341 1.599999999999966 0.4000000000000341 2.400000000000034 0 9.400000000000034-3.6999999999999886 30.100000000000023-14.400000000000034 10-5.199999999999989 23.700000000000045-12.399999999999977 37.700000000000045-19.69999999999999l18.699999999999932-9.699999999999989-62.89999999999998 59.30000000000001c-2.6000000000000227 2.5-3 6.399999999999977-1 9.300000000000011 2 2.7999999999999545 5.699999999999989 3.8999999999999773 9.100000000000023 2.1999999999999886l74.79999999999995-38.30000000000001-17.799999999999955 15.600000000000023c-19.899999999999977 17.399999999999977-31.100000000000023 27.399999999999977-37.10000000000002 33.69999999999999l-0.7999999999999545 0.8000000000000114c-5.900000000000034 6.199999999999989-5.500000000000057 7-4.100000000000023 9.799999999999955 1.6999999999999318 3.400000000000034 6.100000000000023 4.800000000000011 9.600000000000023 3.1000000000000227l75.59999999999991-38.5-18.59999999999991 16c-13.600000000000023 11.600000000000023-27.700000000000045 23.69999999999999-40.60000000000002 34.69999999999999l-13.600000000000023 11.5c-0.39999999999997726 0.4000000000000341-0.7999999999999545 1.1000000000000227-1.1000000000000227 1.8000000000000114l-1.3999999999999773 2.8999999999999773 0.39999999999997726 2.2000000000000455-0.10000000000002274 0.39999999999997726c0.7000000000000455 2.3999999999999773 2.400000000000091 4.300000000000011 4.7000000000000455 5 0.6000000000000227 0.20000000000004547 0.8999999999999773 0.2999999999999545 1.2999999999999545 0.2999999999999545 2.2000000000000455 0 7.900000000000091-2.2999999999999545 19-7.699999999999932l2.900000000000091 5-96.50000000000006 68.39999999999998-3.8000000000000114-4.399999999999977 63.80000000000007-63.900000000000034c1.099999999999909-1.099999999999966 2.099999999999909-2.599999999999966 2.8999999999999773-4.399999999999977l1-2.400000000000034 0.10000000000002274-2.5c0.09999999999990905-1.8999999999999773-0.20000000000004547-3.6999999999999886-0.900000000000091-5.2999999999999545l-0.1999999999999318-0.6000000000000227c-0.7000000000000455-1.6999999999999886-1.7000000000000455-3.1999999999999886-2.8999999999999773-4.300000000000011l-256.30000000000007-256.7h241l0.8000000000000114 0.8000000000000114 265.50000000000006 265.7-9.400000000000091 9.399999999999977 0.40000000000009095 0.20000000000004547-5.400000000000091 4.7999999999999545-0.5-0.7999999999999545c-13.899999999999977 5.5-48.39999999999998 22.199999999999932-162.19999999999993 80.5z m-68.70000000000005-81.10000000000002c-0.1999999999999318 0.2999999999999545-0.5 0.6000000000000227-0.7999999999999545 0.8999999999999773l-39.400000000000034 39.39999999999998 49.69999999999999-35.19999999999993c-1.2999999999999545 0-2.199999999999932-0.39999999999997726-3-0.6000000000000227-2.699999999999932-0.7999999999999545-4.899999999999977-2.3999999999999773-6.5-4.5z m191.20000000000005-40.19999999999999l0.7999999999999545 1.3999999999999773-3.699999999999932 2c-1.2000000000000455 0.6999999999999886-2.300000000000068 1.3000000000000114-3.5 1.900000000000034-13.600000000000023 10.599999999999966-44.90000000000009 30.599999999999966-112.30000000000007 72.69999999999993 80.20000000000005-40.99999999999994 114.20000000000005-58.39999999999998 129.10000000000002-65.29999999999995l7.600000000000023-4.5 0.5 1.1000000000000227c4-1.400000000000034 6.100000000000023-1.1000000000000227 7.2999999999999545-0.7000000000000455l1 0.4000000000000341 0.6000000000000227 1 13.700000000000045 22.30000000000001 5.099999999999909-5-260.29999999999995-260.70000000000005h-31c2.6000000000000227 6.100000000000023 0.10000000000002274 10.600000000000023-26.399999999999977 37.900000000000034 18.69999999999999-9.699999999999989 38.099999999999966-19.69999999999999 53.89999999999998-28 2.6000000000000227-1.6000000000000227 6.600000000000023-1.9000000000000057 10-0.8000000000000114 3.3000000000000114 1.0999999999999943 6 3.4000000000000057 7.600000000000023 6.400000000000006 2.2999999999999545 4.499999999999972 2.7999999999999545 7.599999999999994-3.6000000000000227 14.900000000000006l0.39999999999997726 0.8000000000000114-3 2.099999999999966c-3.5 3.6999999999999886-8.799999999999955 8.699999999999989-16.899999999999977 16 27.700000000000045-14.399999999999977 32.60000000000002-16.5 36.5-16.5 1.3999999999999773 0 2.3999999999999773 0.30000000000001137 3.3999999999999773 0.6999999999999886 4.399999999999977 1.400000000000034 7.7000000000000455 5 8.700000000000045 9.5 1.1000000000000227 4.400000000000034-0.3000000000000682 9-3.7000000000000455 12.300000000000011l-32.89999999999998 31.30000000000001c16.299999999999955-8.399999999999977 32.60000000000002-16.899999999999977 46.299999999999955-23.899999999999977l0.7000000000000455-0.30000000000001137c5.600000000000023-2.5 12.700000000000045-0.4000000000000341 16.100000000000023 4.800000000000011 3.6000000000000227 5.699999999999989 2.2999999999999545 13.099999999999966-2.8999999999999773 17.299999999999955l-7.800000000000068 6.2000000000000455 14.5-7.400000000000034c6.300000000000068-3.1999999999999886 14.300000000000068-0.5 17.5 5.600000000000023 2.6000000000000227 5 3.1000000000000227 8.300000000000011-3.699999999999932 15.300000000000011l0.1999999999999318 0.5999999999999659-0.10000000000002274 0.10000000000002274c6.7000000000000455-3.1000000000000227 9.5-3.8000000000000114 11.800000000000068-3.8000000000000114 1.3999999999999773 0 2.5 0.30000000000001137 3.3999999999999773 0.6000000000000227 3.5 1.1999999999999886 6.2000000000000455 3.5 7.7000000000000455 6.599999999999966 2.599999999999909 5 1.599999999999909 11.300000000000011-2.6000000000000227 15.199999999999989l-31.100000000000023 29.30000000000001c42.700000000000045-21.69999999999999 47.89999999999998-23.69999999999999 51.5-23.69999999999999 1.1000000000000227 0 1.8999999999999773 0.30000000000001137 2.6000000000000227 0.5 3.199999999999932 1 6 3.3999999999999773 7.600000000000023 6.5 3 5.800000000000011 2.599999999999909 8.899999999999977-5.5 17.100000000000023-2.900000000000091 3-7 6.699999999999989-13.900000000000091 12.799999999999955-2 1.8000000000000114-4.2999999999999545 3.8000000000000114-6.699999999999932 5.900000000000034l33.299999999999955-17c6.2000000000000455-3.1999999999999886 14.300000000000068-0.5 17.5 5.699999999999989 2.6000000000000227 5.100000000000023 2.5 8.5-5 16.600000000000023l-0.5 0.5c-5.199999999999932 5.599999999999966-13.899999999999977 13.5-30.5 28 16.100000000000023-8.300000000000011 31.899999999999977-16.600000000000023 45.39999999999998-23.600000000000023 1.6000000000000227-1.1000000000000227 3.7000000000000455-1.6999999999999886 5.900000000000091-1.6999999999999886 4.399999999999977 0 8.799999999999955 2.5 11.199999999999932 6.399999999999977 3.5 5.800000000000011 2 13.400000000000034-3.5 17.30000000000001l-98.60000000000002 69.89999999999998c39.30000000000007-20.399999999999977 80.80000000000007-42 116.30000000000007-60.69999999999999 4.399999999999977-1.6999999999999886 7-1.8000000000000114 10-1 3.2999999999999545 1.1000000000000227 6 3.400000000000034 7.600000000000023 6.5 2.699999999999932 5.100000000000023 2.7999999999999545 8.5-3.6000000000000227 14.600000000000023z m27.100000000000023 33.099999999999966l-67.40000000000009 39.700000000000045c43.10000000000002-21.700000000000045 63.30000000000007-31.399999999999977 74.20000000000005-35.900000000000034l-6.7999999999999545-3.8000000000000114z m-214.60000000000002-12.199999999999989l0.10000000000002274 0.10000000000002274 11.799999999999955-10.100000000000023c7-5.899999999999977 14.399999999999977-12.300000000000011 21.799999999999955-18.69999999999999l-31.899999999999977 16.19999999999999c-3.3999999999999773 1.6999999999999886-7.399999999999977 1.8000000000000114-10.799999999999955 0.5l4.2999999999999545 4.300000000000011c1.7000000000000455 1.6999999999999886 3.1000000000000227 3.6999999999999886 4.100000000000023 6.100000000000023l0.39999999999997726 0.39999999999997726 0.20000000000004547 1.1999999999999886z m-33.60000000000002-36.69999999999999l17.5 17.5c-2-4.600000000000023-1.5-7.699999999999989 4.300000000000011-14.100000000000023l-0.30000000000001137-0.7999999999999545 2.6999999999999886-1.7000000000000455c4.099999999999966-4.199999999999989 10.300000000000011-10 19.599999999999966-18.19999999999999l-32.99999999999994 16.900000000000034c-3.5 1.7999999999999545-7.5 1.7999999999999545-10.800000000000011 0.39999999999997726z m-27.899999999999977-27.899999999999977l20.799999999999955 20.799999999999955c-2-4.899999999999977-0.7999999999999545-10.599999999999966 3.1000000000000227-14.399999999999977l32.200000000000045-30.399999999999977c-7.100000000000023 3.6999999999999886-13.600000000000023 7.099999999999966-19.000000000000057 10-24.5 12.799999999999955-29 15.099999999999966-32.80000000000001 15.099999999999966-1.2999999999999545 0-2.3999999999999773-0.39999999999997726-3.3999999999999773-0.6999999999999886-0.30000000000001137-0.10000000000002274-0.6000000000000227-0.19999999999998863-0.8999999999999773-0.39999999999997726z m-19.5-19.5l12.399999999999977 12.399999999999977c-2.1999999999999886-4.699999999999989-2.1999999999999886-8 4.699999999999989-14.800000000000011l-0.19999999999998863-0.6999999999999886 2.1999999999999886-1.3000000000000114 0.4000000000000341-0.39999999999997726-8.5 4.300000000000011c-3.5 1.8999999999999773-7.600000000000023 2-11 0.5z m-21.900000000000034-21.900000000000034l15.100000000000023 15.100000000000023c-2.1000000000000227-4.5-1.8000000000000114-7.900000000000034 4.199999999999989-14.400000000000034l-0.10000000000002274-0.2999999999999545 1.400000000000034-2 1.3999999999999773-1.1000000000000227c1.400000000000034-1.3999999999999773 3.1999999999999886-2.3000000000000114 5.199999999999989-3.3999999999999773 2.7000000000000455-1.400000000000034 5.800000000000011-3 9.5-7-11 5-17.799999999999955 8.399999999999977-22.299999999999955 10.599999999999966-7.600000000000023 3.8000000000000114-8.900000000000034 4.400000000000034-12 3.5-0.8000000000000114-0.30000000000001137-1.7000000000000455-0.5999999999999659-2.400000000000034-1z m-26.80000000000001-26.80000000000001l21.200000000000045 21.200000000000045c-0.30000000000001137-0.7000000000000455-0.5-1.3000000000000114-0.7000000000000455-2-1-4.5 0.4000000000000341-9.200000000000045 3.7000000000000455-12.300000000000011l31.399999999999977-29.80000000000001c-40.39999999999998 21-46.69999999999999 23.899999999999977-51.19999999999999 23.899999999999977-1.400000000000034 0-2.400000000000034-0.2999999999999545-3.400000000000034-0.6999999999999886-0.39999999999997726 0-0.6999999999999886-0.19999999999998863-1-0.30000000000001137z m-24.399999999999977-24.399999999999977l17.30000000000001 17.30000000000001c-0.30000000000001137-0.8000000000000114-0.5-1.6000000000000227-0.6999999999999886-2.400000000000034-1-4.5 0.5999999999999659-9.299999999999955 4.2999999999999545-12.399999999999977 6.2000000000000455-5.399999999999977 13.200000000000045-11.399999999999977 20.5-17.600000000000023-26.899999999999977 13.700000000000045-33.19999999999999 16.100000000000023-37.099999999999966 16.100000000000023-1.400000000000034 0-2.400000000000034-0.30000000000001137-3.1999999999999886-0.6000000000000227-0.5-0.19999999999998863-0.8000000000000114-0.2999999999999545-1.1000000000000227-0.39999999999997726z m-26.80000000000001-26.899999999999977l19.80000000000001 19.799999999999955c-0.19999999999998863-0.5999999999999659-0.5-1.2999999999999545-0.6000000000000227-1.8999999999999773-1.099999999999966-4.399999999999977 0.20000000000004547-8.899999999999977 3.400000000000034-12.199999999999989 6.899999999999977-6.900000000000034 14.800000000000011-14.900000000000034 22.899999999999977-23-31.899999999999977 16.399999999999977-37.099999999999966 18.399999999999977-41.099999999999966 18.399999999999977-1.400000000000034 0-2.5-0.30000000000001137-3.400000000000034-0.5999999999999659-0.39999999999997726-0.20000000000004547-0.6999999999999886-0.4000000000000341-1-0.5z m-29.69999999999999-29.600000000000023l22.600000000000023 22.600000000000023c-1.2000000000000455-2.8000000000000114-1.3000000000000114-5.900000000000034-0.4000000000000341-8.900000000000034l7.699999999999989-23.5c-17 8.900000000000034-21.69999999999999 10.800000000000011-25.299999999999955 10.800000000000011-1.5 0-2.6000000000000227-0.39999999999997726-3.7000000000000455-0.6999999999999886l-0.8999999999999773-0.30000000000001137z m-40.5-40.599999999999994l39.10000000000002 39.099999999999994 3.2999999999999545-10.600000000000023-3.599999999999966-11.199999999999989 2.5-1c2.1999999999999886-0.799999999999983 15.800000000000011-7.799999999999983 31.899999999999977-16.19999999999999l-73.19999999999999-0.09999999999999432z m104.89999999999998 0c1 2.6999999999999886 1.1000000000000227 5.599999999999994 0.20000000000004547 8.299999999999983l-8.100000000000023 24.69999999999999c18.399999999999977-9.399999999999977 43.10000000000002-22.099999999999966 64.19999999999999-33.099999999999966h-56.30000000000001z"/>
</svg>
