<svg xmlns="http://www.w3.org/2000/svg" viewBox="0 0 1000 1000" width="1000" height="1000">
<path d="M702.3 775.1c8.900000000000091-7.5 23.100000000000023-9.100000000000023 35.10000000000002-12.399999999999977 21.399999999999977-5.7000000000000455 42.89999999999998-11 64.5-15.600000000000023 12.399999999999977-2.7000000000000455 17.899999999999977-8.399999999999977 17.800000000000068-21.899999999999977-0.5-86.60000000000002-0.40000000000009095-173.20000000000005-0.10000000000002274-259.90000000000003 0-11.900000000000034-3.8999999999999773-18-16.200000000000045-21.100000000000023-39.19999999999993-10.099999999999966-78.19999999999993-21-116.69999999999993-32.89999999999998-10.200000000000045-3.1000000000000227-20.800000000000068-9.5-27.700000000000045-17.400000000000034-50.89999999999998-58-100.89999999999998-116.89999999999998-151.2-175.29999999999998-14.5-16.799999999999983-32.10000000000002-26.099999999999994-55.30000000000001-21-22.5 5.099999999999994-36.69999999999999 18.80000000000001-43.30000000000001 40.599999999999994-5.899999999999977 19.19999999999999-0.19999999999998863 36.19999999999999 12.400000000000034 51 22.5 26.600000000000023 45.5 52.69999999999999 67.69999999999999 79.5 2.099999999999966 2.5 3.3999999999999773 5.5 4.599999999999966 8.699999999999989 1.900000000000034 5.100000000000023-0.7999999999999545 10.700000000000045-6 12.300000000000011-3.1999999999999886 1-6.399999999999977 1.8000000000000114-9.699999999999989 1.8000000000000114-104 0.19999999999998863-208 0.19999999999998863-312 0.19999999999998863h-41.499999999999986c-37.900000000000006 0-62 19.80000000000001-62.1 51.10000000000002-0.20000000000000284 30.80000000000001 24.699999999999996 53.30000000000001 61.4 53.39999999999998 14.099999999999994 0.10000000000002274 28.19999999999999 0.10000000000002274 42.19999999999999 0.30000000000001137h193.60000000000002c3.8999999999999773 0 7.800000000000011 0.39999999999997726 11.699999999999989 0.6999999999999886 6.399999999999977 0.6000000000000227 11.800000000000011 2.8000000000000114 12 4.900000000000034 0.19999999999998863 2.099999999999966-3.6000000000000227 4.7999999999999545-8.5 6-3 0.7999999999999545-6.100000000000023 1.3999999999999773-9.100000000000023 1.3999999999999773-36.69999999999999 0.30000000000001137-73.39999999999998 0-110.19999999999999 0.19999999999998863-28.799999999999983 0.19999999999998863-49.099999999999994 17.69999999999999-50.39999999999998 43.099999999999966-1.200000000000017 25 15.799999999999983 45.700000000000045 44 47.30000000000007 40.39999999999998 2.2999999999999545 81 1.1999999999999318 121.5 1.7999999999999545 3.8999999999999773 0 7.800000000000011 0.3000000000000682 11.800000000000011 0.7000000000000455 2.3999999999999773 0.1999999999999318 4.7999999999999545 0.6999999999999318 6.699999999999989 1.1999999999999318 3.599999999999966 1 5 5.7000000000000455 2.5 7.300000000000068-1.400000000000034 0.7999999999999545-3.1000000000000227 1.6000000000000227-4.900000000000034 2.199999999999932-3 1-6 1.7000000000000455-9.099999999999966 1.8000000000000682-31 0.39999999999997726-62 0.1999999999999318-93.10000000000002 0.1999999999999318-27.69999999999999 0.10000000000002274-44.19999999999999 14.5-45 39.60000000000002-0.8999999999999773 24.600000000000023 19.19999999999999 46.10000000000002 45.19999999999999 46.5 43 0.6000000000000227 86.10000000000002 0 129.20000000000005 0.3000000000000682 3.2999999999999545 0 6.5 0.599999999999909 9.699999999999989 1.3999999999999773 5.300000000000011 1.1999999999999318 9.5 3.7999999999999545 9.399999999999977 5.699999999999932-0.0999999999999659 1.900000000000091-4.399999999999977 4.2000000000000455-9.599999999999966 5-3.1000000000000227 0.5-6.300000000000011 0.900000000000091-9.5 0.900000000000091-30.400000000000034 0.2999999999999545-60.80000000000001 0-91.20000000000005 0.1999999999999318-24.099999999999966 0.20000000000004547-39.099999999999966 13-43.099999999999966 36.39999999999998-3.3000000000000114 19.40000000000009 9.199999999999989 41.40000000000009 29 47.90000000000009 9.399999999999977 3.199999999999932 19.80000000000001 4.2999999999999545 29.80000000000001 4.2999999999999545 91.79999999999995 0.2999999999999545 183.69999999999993 0.39999999999997726 275.5 0.10000000000002274 32.10000000000002-0.10000000000002274 62.10000000000002-6.800000000000068 88.19999999999993-28.5z m142.5-304.6v255.29999999999995c0 15.100000000000023 12.400000000000091 27.300000000000068 27.800000000000068 27.300000000000068h37.10000000000002c15.399999999999977 0 27.799999999999955-12.200000000000045 27.799999999999955-27.300000000000068v-255.29999999999995c0-15.100000000000023-12.399999999999977-27.30000000000001-27.799999999999955-27.30000000000001h-37.10000000000002c-15.300000000000068 0-27.800000000000068 12.199999999999989-27.800000000000068 27.30000000000001z"/>
</svg>
