<svg xmlns="http://www.w3.org/2000/svg" viewBox="0 0 1000 1000" width="1000" height="1000">
<path d="M266.5 764l-47.80000000000001-30.100000000000023c-10.299999999999983-6.5-10.299999999999983-17 0-23.5l262.6-165.60000000000002c10.300000000000011-6.5 27-6.5 37.30000000000001 0l178.19999999999993 112.40000000000009c10.300000000000068 6.5 18.700000000000045 1.8999999999999773 18.700000000000045-10.300000000000068v-3.699999999999932c0-12.200000000000045-8.5-27.100000000000023-18.799999999999955-33.60000000000002-40.90000000000009-25.399999999999977-137.30000000000007-86.30000000000007-178.10000000000002-112-10.300000000000011-6.5-27-6.5-37.30000000000001 0l-177.5 112.10000000000002c-10.300000000000011 6.5-27 6.5-37.30000000000001 0-14.199999999999989-9-33.599999999999994-21.300000000000068-47.80000000000001-30.200000000000045-10.299999999999983-6.5-18.69999999999999-21.700000000000045-18.69999999999999-33.89999999999998v-110.30000000000001c0-12.199999999999989 7.400000000000006-26.69999999999999 16.400000000000006-32.400000000000034l264.9-166.89999999999998c10.300000000000068-6.5 27.000000000000057-6.5 37.30000000000007 0l262.69999999999993 165.5c10.300000000000068 6.5 10.300000000000068 17 0 23.5l-47.89999999999998 30.30000000000001c-10.299999999999955 6.5-27 6.5-37.299999999999955 0l-177.39999999999998-112.10000000000002c-10.300000000000068-6.5-27.000000000000057-6.5-37.30000000000007 0l-177.59999999999997 112.10000000000002c-10.300000000000011 6.5-19.100000000000023 21.599999999999966-19.19999999999999 33.80000000000001v3.2999999999999545c-0.10000000000002274 12.200000000000045 8.299999999999955 16.80000000000001 18.599999999999966 10.300000000000011l178.2-112.39999999999998c10.300000000000011-6.5 27-6.5 37.30000000000007 0l178.19999999999993 112.30000000000001c10.300000000000068 6.5 27 16.899999999999977 37.39999999999998 23.399999999999977l47.10000000000002 29.700000000000045c10.300000000000068 6.5 18.600000000000023 21.699999999999932 18.600000000000023 33.799999999999955v110.29999999999995c0 12.200000000000045-8.299999999999955 27.40000000000009-18.600000000000023 33.90000000000009-14.199999999999932 9-33.69999999999993 21.299999999999955-47.89999999999998 30.199999999999932-10.299999999999955 6.5-27 6.5-37.299999999999955 0l-177.5-112c-10.300000000000068-6.5-27.000000000000057-6.5-37.30000000000007 0l-177.59999999999997 112.10000000000002c-10.300000000000011 6.5-27 6.5-37.30000000000001 0z"/>
</svg>
