<svg xmlns="http://www.w3.org/2000/svg" viewBox="0 0 1000 1000" width="1000" height="1000">
<path d="M509 799.8l-17.100000000000023-2.2999999999999545c-2.8999999999999773-0.6000000000000227-5.199999999999989-2.7000000000000455-5.199999999999989-5.2000000000000455v-124.09999999999991l-16.399999999999977-2.1000000000000227v98.29999999999995c0 1.7000000000000455-0.8000000000000114 3.1000000000000227-2.3000000000000114 4.100000000000023-1.3000000000000114 0.7999999999999545-3.1000000000000227 1.2999999999999545-4.800000000000011 1l-20-2.8999999999999773c-3.099999999999966-0.39999999999997726-5.199999999999989-2.5-5.199999999999989-5v-350.8l-109.69999999999999 109.69999999999999c-8.199999999999989 8.200000000000045-22.30000000000001 9.299999999999955-31.600000000000023 2.6000000000000227l-57.89999999999998-41.700000000000045c-9.400000000000006-6.699999999999989-10.300000000000011-18.69999999999999-2.200000000000017-26.899999999999977l248.4-248.4c8.199999999999989-8.199999999999989 21.30000000000001-8.199999999999989 29.5 0l248.5 248.50000000000003c8.200000000000045 8.199999999999989 7.100000000000023 20-2.3999999999999773 26.599999999999966l-58.89999999999998 40.80000000000001c-9.400000000000091 6.5-23.700000000000045 5.2999999999999545-31.800000000000068-2.7999999999999545l-108.39999999999998-108.40000000000003v331.59999999999997c0 1.3999999999999773-0.7999999999999545 2.8999999999999773-2.2999999999999545 4-1.3000000000000682 1-3.1000000000000227 1.3999999999999773-5 1l-16.300000000000068-2.2999999999999545c-2.8999999999999773-0.39999999999997726-5.199999999999932-2.7000000000000455-5.199999999999932-5.2000000000000455v-93.5l-16.40000000000009-2.1000000000000227v150.5c0 1.400000000000091-0.7999999999999545 2.900000000000091-2.2999999999999545 4-1.2000000000000455 1-3.1000000000000227 1.400000000000091-5 1z"/>
</svg>
