<svg xmlns="http://www.w3.org/2000/svg" viewBox="0 0 1000 1000" width="1000" height="1000">
<path d="M216.9 202.5c-9.300000000000011 0-16.900000000000006 7.599999999999994-16.900000000000006 16.900000000000006 0.09999999999999432 0.09999999999999432 0.09999999999999432 0.19999999999998863 0 0.29999999999998295v282.90000000000003c0 4.5 1.8000000000000114 8.799999999999955 5 12l283 282.9h24l283-282.9c3.2000000000000455-3.2000000000000455 5-7.5 5-12v-282.8c0-6.800000000000011-4.2000000000000455-13.100000000000023-10.5-15.700000000000017-6.2999999999999545-2.5999999999999943-13.600000000000023-1.1999999999999886-18.5 3.700000000000017l-271 270.8-269.3-269c-3-4.300000000000011-8.099999999999994-7.100000000000023-13.799999999999983-7.100000000000023z m456.30000000000007 150.89999999999998c-15.5 22.80000000000001-42.40000000000009 65.90000000000003-93 147.20000000000005 19-37.700000000000045 27-54.80000000000001 30.09999999999991-63.200000000000045l0.10000000000002274-0.0999999999999659c2.300000000000068-6.199999999999989 1.8999999999999773-7.5 1.5-8.900000000000034-0.7999999999999545-2.599999999999966-2.699999999999932-4.7999999999999545-5.100000000000023-6-0.6999999999999318-0.39999999999997726-1.5 0-2.2999999999999545-0.19999999999998863l68.70000000000005-68.80000000000001z m78.79999999999995-78.69999999999999l-95.89999999999998 162.90000000000003c28.799999999999955-56.30000000000001 40.60000000000002-80 45.299999999999955-90.70000000000005 2.2000000000000455-5.099999999999966 2.7000000000000455-7.199999999999989 2.7000000000000455-8.5 0-0.5999999999999659-0.10000000000002274-1.099999999999966-0.3000000000000682-1.599999999999966-0.7999999999999545-2.6000000000000227-2.699999999999932-4.699999999999989-5.099999999999909-5.900000000000034-0.7000000000000455-0.2999999999999545-1.3000000000000682-0.5999999999999659-2-0.7999999999999545l55.299999999999955-55.400000000000034z m12.5 40.10000000000002c-9.899999999999977 13.199999999999989-27.5 42.69999999999999-63.700000000000045 105.19999999999999 20.5-39.69999999999999 38.5-74.30000000000001 50.80000000000007-97.89999999999998 6.100000000000023-11.800000000000011 10.799999999999955-20.900000000000034 14.600000000000023-28.30000000000001v17.80000000000001l-1.7000000000000455 3.1999999999999886z m-1.2999999999999545 183.8c1-1.900000000000034 2.099999999999909-4 2.8999999999999773-5.800000000000011v2.8000000000000114l-2.8999999999999773 3z m-37 8c5.099999999999909-10 10.099999999999909-19.600000000000023 14.699999999999932-28.600000000000023 10.800000000000068-20.899999999999977 19-36.60000000000002 25.200000000000045-48.89999999999998v18c-12.200000000000045 18.299999999999955-26 38.89999999999998-39.89999999999998 59.5z m-37.30000000000007 1.2999999999999545l77.20000000000005-151.59999999999997v28.30000000000001c-0.20000000000004547 0.39999999999997726-0.6000000000000227 1.3999999999999773-1.3999999999999773 2.8999999999999773-5.800000000000068 8.100000000000023-14.600000000000023 22.30000000000001-29.40000000000009 46l-46.39999999999998 74.39999999999998z m-181.59999999999997 39.80000000000007c8.900000000000034-18.5 8.499999999999943-20.100000000000023 7.599999999999966-22.700000000000045-1.1000000000000227-3.5-4.099999999999966-6.100000000000023-7.699999999999989-6.899999999999977h-0.6999999999999886c1.8999999999999773-0.8000000000000682 3.8000000000000114-2 5.399999999999977-3.5l64.5-64.5-69.09999999999997 97.60000000000002z m137.49999999999994 69.19999999999993c3.5-5.5 6.900000000000091-11 10.400000000000091-16.699999999999932-2.400000000000091 4.7999999999999545-4.400000000000091 8.899999999999977-6.2000000000000455 12.5l-4.2000000000000455 4.199999999999932z m-79.69999999999993 79.70000000000005c14.299999999999955-25 29.100000000000023-50.89999999999998 44-76.80000000000007l-34.10000000000002 66.90000000000009-9.899999999999977 9.899999999999977z m-54.900000000000034 54.89999999999998l-7.599999999999966-13.5 89.79999999999995-152.29999999999995c-58.39999999999998 113.79999999999995-76.60000000000002 151.5-81.89999999999998 165.5999999999999l-0.10000000000002274 0.10000000000002274-0.19999999999998863 0.10000000000002274z m-276.29999999999995-293.9c0.7999999999999545 0.7999999999999545 1.599999999999966 1.599999999999966 2.69999999999996 2.099999999999966 5.900000000000006 3 7.200000000000017 3.6000000000000227 49.599999999999994-38.30000000000001-12.099999999999966 23.5-25.899999999999977 50.200000000000045-36.69999999999999 70.80000000000001-1.3000000000000114 2.1999999999999886-1.5 5.199999999999989-0.5999999999999943 7.800000000000011 0.799999999999983 2.6000000000000227 2.6999999999999886 4.699999999999989 5.099999999999994 5.899999999999977 3.3000000000000114 1.7000000000000455 5.300000000000011 2.7000000000000455 13.199999999999989-4.5l0.4000000000000341 0.20000000000004547 0.5999999999999659-1.1000000000000227c6.300000000000011-5.899999999999977 16.100000000000023-16.600000000000023 32.400000000000034-35.30000000000001-28.600000000000023 54.69999999999999-28.5 54.80000000000001-27 59.50000000000006 1.099999999999966 3.3999999999999773 3.8999999999999773 6 7.399999999999977 6.7999999999999545 3.5 0.7999999999999545 7.100000000000023-0.2999999999999545 9.600000000000023-2.8999999999999773l45.799999999999955-48.10000000000002c-11.299999999999955 22-23.799999999999955 46.10000000000002-33.599999999999966 65.10000000000002-2.400000000000034 4.600000000000023-0.9000000000000341 10.299999999999955 3.5 13.199999999999932 4.399999999999977 2.800000000000068 10.199999999999989 1.900000000000091 13.5-2.2999999999999545 7.399999999999977-9.299999999999955 15.899999999999977-20 24.599999999999966-30.899999999999977l-20.799999999999955 40.799999999999955c-2.6000000000000227 5-0.6000000000000227 11.100000000000023 4.399999999999977 13.700000000000045 4 2.1000000000000227 6.100000000000023 3 13.399999999999977-4.600000000000023l0.20000000000004547 0.10000000000002274 0.5-1c3.5-3.800000000000068 8.299999999999955-9.600000000000023 15.099999999999966-18.100000000000023-16.5 32.200000000000045-16 33.299999999999955-14.800000000000011 37.10000000000002 0.9000000000000341 2.6000000000000227 2.7000000000000455 4.7999999999999545 5.2000000000000455 6 4 2.1000000000000227 8.799999999999955 1.1999999999999318 11.899999999999977-2.1000000000000227l43.69999999999999-46.39999999999998c-34 66.79999999999995-33.69999999999999 67.29999999999995-32.599999999999966 70.69999999999993 0.7999999999999545 2.6000000000000227 2.6999999999999886 4.7000000000000455 5.099999999999966 5.900000000000091 4 2.099999999999909 5.800000000000011 2.8999999999999773 13.800000000000011-5 3.1999999999999886-3.1000000000000227 7.300000000000011-7.600000000000023 12.899999999999977-13.800000000000068 5.5-6.199999999999932 12.600000000000023-14.299999999999955 21.600000000000023-24.600000000000023l-27.899999999999977 54.700000000000045c-2.6000000000000227 5-0.5 11.100000000000023 4.5 13.600000000000023 3.3999999999999773 1.6999999999999318 5.399999999999977 2.7999999999999545 13.5-4.600000000000023l0.5-0.5c7.699999999999989-7.2000000000000455 20.5-21.700000000000045 44.39999999999998-49.5-12.100000000000023 23.399999999999977-25 48.299999999999955-35.39999999999998 68.20000000000005-2.900000000000034 4.5-0.8000000000000114 10.599999999999909 3.6999999999999886 13.399999999999977 4.5 2.699999999999932 10.5 1.5 13.599999999999966-2.800000000000068l95.10000000000002-134.19999999999993c-26 50.299999999999955-56.30000000000001 108.60000000000002-80.80000000000001 155.19999999999993-1 2.7000000000000455-1.5 5.2000000000000455-0.6999999999999886 7.800000000000068 0.8000000000000114 2.6000000000000227 2.6999999999999886 4.699999999999932 5.100000000000023 5.899999999999977 3.5 1.7999999999999545 5.7999999999999545 3 12.599999999999966-4.7999999999999545l0.9000000000000341 0.5 2.5-4.7000000000000455c13.699999999999989-17.600000000000023 42.10000000000002-63 110.89999999999998-173.5l-9.299999999999955 18.100000000000023c-58.40000000000009 114.19999999999993-80.70000000000005 157.39999999999998-88.70000000000005 175l-3.1000000000000227 5.2999999999999545 0.6000000000000227 0.3000000000000682c-2.3000000000000114 5.599999999999909-2 6.5-1.5 7.899999999999977l25.600000000000023 15.899999999999977-9.800000000000011 9.899999999999977-266.1-266-0.29999999999998295-37.799999999999955z m10.399999999999977-86.5l31.80000000000001-10.400000000000034c-11.200000000000045 21.80000000000001-29.00000000000003 56.5-42.30000000000001 81.90000000000003v-74.40000000000003c2.799999999999983 2.900000000000034 6.799999999999983 4.100000000000023 10.5 2.900000000000034z m-10.400000000000006-110.5l254.20000000000002 254c1.6999999999999886 1.6999999999999318 3.6999999999999886 2.8999999999999773 5.7999999999999545 3.699999999999932h0.20000000000004547c2.099999999999966 0.8000000000000682 4.2999999999999545 1.1000000000000227 6.5 1.1000000000000227-1.1000000000000227 0.5-2.2000000000000455 1.1000000000000227-3 2-13.600000000000023 16-30.600000000000023 35.89999999999998-46.700000000000045 54.700000000000045l27.600000000000023-54.30000000000007c2.5-5 0.6000000000000227-11.099999999999966-4.399999999999977-13.599999999999966-3.7000000000000455-1.8999999999999773-5.5-2.8000000000000114-13.300000000000011 4.599999999999966l-0.4000000000000341-0.09999999999990905-0.39999999999997726 0.8999999999999773c-6.399999999999977 6.199999999999932-16.600000000000023 17.600000000000023-34.19999999999999 37.69999999999993 9.5-18.5 19.30000000000001-37.89999999999998 27.80000000000001-54.299999999999955 0.6999999999999886-1.5 1.099999999999966-3 1.099999999999966-4.600000000000023 0-3.1999999999999886-1.5-6.2999999999999545-4.300000000000011-8.299999999999955-4.099999999999966-2.900000000000034-9.799999999999955-2.400000000000034-13.299999999999955 1.2999999999999545l-45.30000000000001 48.10000000000002c7.399999999999977-14.100000000000023 14.599999999999966-28 19.899999999999977-38.10000000000002 15.699999999999989-30.099999999999966 15.699999999999989-30.099999999999966 14.300000000000011-34.299999999999955-0.8000000000000114-2.6000000000000227-2.6999999999999886-4.7000000000000455-5.100000000000023-5.900000000000034-4.199999999999989-2.1999999999999886-6.199999999999989-3.099999999999966-13.699999999999989 5h-0.0999999999999659c0 0.10000000000002274-0.10000000000002274 0.19999999999998863-0.20000000000004547 0.4000000000000341-4 4.399999999999977-9.699999999999989 11.199999999999989-17.899999999999977 21.799999999999955l16.80000000000001-33c2.599999999999966-5 0.5-11.099999999999966-4.5-13.699999999999989-3.5-1.8000000000000114-5.600000000000023-2.8000000000000114-13.300000000000011 4.699999999999989l-0.6000000000000227-0.19999999999998863-1.099999999999966 1.400000000000034c-4.400000000000034 4.5-3.3000000000000114 11.5-20.19999999999999 22.399999999999977 16.899999999999977-38.30000000000001 19.899999999999977-39.5 18.799999999999955-43-1.099999999999966-3.3999999999999773-3-6-6.599999999999966-6.800000000000011s-7.199999999999989 0.30000000000001137-9.600000000000023 2.900000000000034l-44.69999999999999 46.599999999999966c34.69999999999999-66.39999999999998 34.60000000000002-66.59999999999997 33-71.5-1.1000000000000227-3.5-4.100000000000023-6.099999999999966-7.699999999999989-6.800000000000011-3.6000000000000227-0.7999999999999545-7.300000000000011 0.5-9.699999999999989 3.3000000000000114-10 11.600000000000023-22 25.5-33.900000000000034 39.19999999999999 28.400000000000034-54.89999999999998 28-56.19999999999999 26.69999999999999-60.299999999999955-1-3.400000000000034-3.7999999999999545-5.900000000000034-7.2999999999999545-6.800000000000011-3.400000000000034-0.8000000000000114-7 0.0999999999999659-9.600000000000023 2.6999999999999886-10.699999999999989 10.699999999999989-23.80000000000001 23.69999999999999-36.5 36.19999999999999 27.899999999999977-53.89999999999998 27.600000000000023-54.89999999999998 26.19999999999999-59.19999999999999-0.8000000000000114-2.6000000000000227-2.599999999999966-4.699999999999989-5-5.899999999999977-2.3999999999999773-1.3000000000000114-5.199999999999989-1.5-7.800000000000011-0.6000000000000227l-30.599999999999966 10c15-28.5 14.699999999999989-29.30000000000001 13.399999999999977-33.5l-9.699999999999989 3-9.599999999999994-3.1000000000000227c-1.200000000000017 3-11.800000000000011 23.700000000000045-22.099999999999994 43.10000000000002l0.09999999999999432-92.89999999999998z"/>
</svg>
