<svg xmlns="http://www.w3.org/2000/svg" viewBox="0 0 1000 1000" width="1000" height="1000">
<path d="M649.4 785.8l21.600000000000023-21.59999999999991c19.100000000000023-19.200000000000045 19.100000000000023-50.200000000000045 0-69.30000000000007l-160.3-160.19999999999993c-9.5-9.5-14.300000000000011-22.100000000000023-14.300000000000011-34.60000000000002s4.7000000000000455-25 14.300000000000011-34.60000000000002l160.3-160.3c19.100000000000023-19.19999999999999 19.100000000000023-50.19999999999999 0-69.29999999999998l-21.600000000000023-21.599999999999994c-19.199999999999932-19.100000000000023-50.19999999999993-19.100000000000023-69.29999999999995 0l-251.10000000000002 251.09999999999997c-9.5 9.5-14.300000000000011 22.100000000000023-14.300000000000011 34.60000000000002s4.699999999999989 25 14.300000000000011 34.60000000000002l251.10000000000002 251.10000000000002c19.100000000000023 19.09999999999991 50.10000000000002 19.09999999999991 69.29999999999995 0.09999999999990905z"/>
</svg>
