<svg xmlns="http://www.w3.org/2000/svg" viewBox="0 0 1000 1000" width="1000" height="1000">
<path d="M799.9 214.5c0-9.400000000000006-7.699999999999932-17.099999999999994-17.100000000000023-17.099999999999994-0.09999999999990905 0.09999999999999432-0.1999999999999318 0.09999999999999432-0.39999999999997726 0h-285.2c-4.5 0-8.800000000000011 1.799999999999983-12.099999999999966 5l-285.20000000000005 285.5v24.100000000000023l285.3 285.29999999999995c3.1999999999999886 3.2000000000000455 7.600000000000023 5 12.100000000000023 5h285.3c6.899999999999977 0 13.199999999999932-4.199999999999932 15.799999999999955-10.5 2.6000000000000227-6.399999999999977 1.2000000000000455-13.699999999999932-3.699999999999932-18.59999999999991l-273.30000000000007-273.20000000000005 271.30000000000007-271.5c4.399999999999977-3.0999999999999943 7.199999999999932-8.199999999999989 7.199999999999932-14z m-152.29999999999995 460.1c-23-15.700000000000045-66.5-42.80000000000007-148.5-93.80000000000007 38 19.200000000000045 55.299999999999955 27.200000000000045 63.69999999999993 30.40000000000009l0.10000000000002274 0.09999999999990905v-0.09999999999990905c6.300000000000068 2.2999999999999545 7.600000000000023 1.8999999999999773 9 1.5 2.6000000000000227-0.8000000000000682 4.800000000000068-2.7000000000000455 6.100000000000023-5.100000000000023 0.39999999999997726-0.7000000000000455 0.10000000000002274-1.5 0.20000000000004547-2.300000000000068l69.39999999999998 69.30000000000007z m79.5 79.5l-164.20000000000005-96.70000000000005c56.80000000000007 29 80.70000000000005 41 91.5 45.60000000000002 5.100000000000023 2.2000000000000455 7.300000000000068 2.7999999999999545 8.600000000000023 2.7999999999999545 0.7000000000000455 0 1.1000000000000227-0.09999999999990905 1.6000000000000227-0.2999999999999545 2.6000000000000227-0.7999999999999545 4.7999999999999545-2.7000000000000455 6-5.100000000000023 0.39999999999997726-0.6999999999999318 0.6000000000000227-1.2999999999999545 0.7999999999999545-2l55.700000000000045 55.700000000000045z m-40.39999999999998 12.600000000000023c-13.300000000000068-9.900000000000091-43-27.800000000000068-106.10000000000002-64.30000000000007 40 20.700000000000045 74.89999999999998 38.80000000000007 98.69999999999993 51.200000000000045 11.900000000000091 6.199999999999932 21.100000000000023 10.899999999999977 28.600000000000023 14.799999999999955h-17.899999999999977l-3.2999999999999545-1.6999999999999318z m-185.40000000000003-1.400000000000091c1.8999999999999773 1 4 2.1000000000000227 5.899999999999977 3h-2.8000000000000114l-3.099999999999966-3z m-8.100000000000023-37.299999999999955c10 5.100000000000023 19.69999999999999 10.200000000000045 28.80000000000001 14.799999999999955 21.100000000000023 10.900000000000091 36.89999999999998 19.100000000000023 49.200000000000045 25.5h-18.200000000000045c-18.299999999999955-12.299999999999955-39-26.199999999999932-59.80000000000001-40.299999999999955z m-1.1999999999999886-37.60000000000002l152.89999999999998 77.89999999999998h-28.5c-0.39999999999997726-0.1999999999999318-1.5-0.6999999999999318-2.8999999999999773-1.5-8.200000000000045-5.899999999999977-22.399999999999977-14.699999999999932-46.39999999999998-29.59999999999991l-75.10000000000002-46.80000000000007z m-40.19999999999999-183c18.599999999999966 9 20.30000000000001 8.600000000000023 22.899999999999977 7.7000000000000455 3.5-1.1000000000000227 6.199999999999989-4.100000000000023 7-7.7000000000000455l-0.0999999999999659-0.6999999999999886c0.7999999999999545 1.900000000000034 2 3.8000000000000114 3.599999999999966 5.400000000000034l65.00000000000006 65-98.40000000000003-69.70000000000005z m-69.80000000000001 138.60000000000002c5.600000000000023 3.5 11.100000000000023 7 16.80000000000001 10.5l-12.600000000000023-6.2999999999999545-4.199999999999989-4.2000000000000455z m-80.39999999999998-80.39999999999998c25.19999999999999 14.5 51.299999999999955 29.299999999999955 77.39999999999998 44.299999999999955l-67.5-34.39999999999998-9.899999999999977-9.899999999999977z m-55.30000000000001-55.30000000000001l13.599999999999966-7.699999999999989 153.60000000000002 90.60000000000002c-114.80000000000001-58.90000000000009-152.8-77.30000000000007-167-82.60000000000002l-0.09999999999999432-0.10000000000002274c0-0.10000000000002274-0.09999999999999432-0.19999999999998863-0.09999999999999432-0.19999999999998863z m296.3-278.6c-0.8000000000000682 0.8000000000000114-1.6000000000000227 1.6000000000000227-2.1000000000000227 2.700000000000017-3 5.900000000000006-3.7000000000000455 7.199999999999989 38.60000000000002 49.99999999999997-23.700000000000045-12.199999999999989-50.60000000000002-26.099999999999966-71.40000000000003-36.99999999999997-2.1999999999999886-1.3000000000000114-5.300000000000011-1.5-7.899999999999977-0.700000000000017-2.6000000000000227 0.8000000000000114-4.800000000000011 2.700000000000017-6 5.100000000000023-1.8000000000000114 3.3999999999999773-2.6999999999999886 5.300000000000011 4.5 13.300000000000011l-0.19999999999998863 0.39999999999997726 1.099999999999966 0.6000000000000227c5.900000000000034 6.399999999999977 16.80000000000001 16.19999999999999 35.599999999999966 32.599999999999966-55.19999999999993-28.80000000000001-55.19999999999993-28.69999999999999-59.99999999999994-27.19999999999999-3.400000000000034 1.1000000000000227-6.100000000000023 3.8999999999999773-6.800000000000011 7.5-0.8000000000000114 3.5 0.30000000000001137 7.199999999999989 2.8999999999999773 9.699999999999989l48.5 46.19999999999999c-22.19999999999999-11.399999999999977-46.5-24-65.59999999999997-33.89999999999998h-0.10000000000002274c-4.699999999999989-2.3999999999999773-10.399999999999977-0.8999999999999773-13.199999999999989 3.5-2.8000000000000114 4.5-1.8999999999999773 10.300000000000011 2.3000000000000114 13.600000000000023 9.399999999999977 7.399999999999977 20.099999999999966 16 31.19999999999999 24.799999999999955l-41.19999999999999-21c-5-2.599999999999966-11.300000000000011-0.5999999999999659-13.800000000000011 4.5-2.1000000000000227 4.100000000000023-3.1000000000000227 6.100000000000023 4.600000000000023 13.5l-0.10000000000002274 0.20000000000004547 1 0.5c3.8999999999999773 3.599999999999966 9.699999999999989 8.399999999999977 18.30000000000001 15.199999999999989-32.400000000000034-16.600000000000023-33.60000000000002-16.19999999999999-37.5-14.900000000000034-2.6000000000000227 0.9000000000000341-4.800000000000011 2.7000000000000455-6.100000000000023 5.2000000000000455-2.099999999999966 4-1.1999999999999886 8.899999999999977 2.1000000000000227 12l46.80000000000001 44.099999999999966c-67.30000000000001-34.19999999999999-67.80000000000001-34-71.30000000000001-32.89999999999998-2.6000000000000227 0.8000000000000114-4.800000000000011 2.6999999999999886-6 5.099999999999966-2.1000000000000227 4.100000000000023-3 5.900000000000034 5 14 3.099999999999966 3.2000000000000455 7.599999999999966 7.300000000000011 14 12.900000000000034 6.300000000000011 5.599999999999966 14.399999999999977 12.699999999999989 24.80000000000001 21.80000000000001l-55-28.100000000000023c-5-2.6000000000000227-11.200000000000045-0.5-13.700000000000045 4.5-1.7999999999999545 3.3999999999999773-2.7999999999999545 5.5 4.600000000000023 13.600000000000023l0.5 0.5c7.199999999999989 7.699999999999989 21.80000000000001 20.69999999999999 49.89999999999998 44.799999999999955-23.5-12.199999999999989-48.69999999999999-25.19999999999999-68.79999999999995-35.69999999999999-4.5-3-10.700000000000045-0.8000000000000114-13.5 3.8000000000000114-2.8000000000000114 4.5-1.5 10.5 2.7999999999999545 13.699999999999989l135.3 95.80000000000001c-50.80000000000001-26.19999999999999-109.39999999999998-56.80000000000001-156.5-81.5-2.8000000000000114-1-5.300000000000011-1.5-7.899999999999977-0.6999999999999886-2.6000000000000227 0.8000000000000114-4.800000000000011 2.6999999999999886-6 5.099999999999966-1.8000000000000114 3.5-3 5.900000000000034 4.800000000000011 12.700000000000045l-0.5 1c1.599999999999966 0.7999999999999545 3.099999999999966 1.7999999999999545 4.699999999999989 2.5 17.80000000000001 13.799999999999955 63.5 42.39999999999998 174.89999999999998 111.79999999999995-6.099999999999966-3.1000000000000227-12.199999999999989-6.199999999999932-18.19999999999999-9.399999999999977-115.10000000000002-58.89999999999998-158.8-81.30000000000001-176.39999999999998-89.5l-5.300000000000011-3.1000000000000227-0.4000000000000341 0.7000000000000455c-5.599999999999966-2.3000000000000114-6.599999999999966-2-8-1.5l-15.999999999999972 25.799999999999955-10-9.899999999999977 268.20000000000005-268.3h38.5z m87.19999999999993 10.5l10.5 32.10000000000002c-22-11.300000000000011-56.89999999999998-29.30000000000001-82.59999999999991-42.70000000000002h75c-2.900000000000091 2.8000000000000114-4.100000000000023 6.800000000000011-2.900000000000091 10.599999999999994z m111.5-10.5l-256.09999999999997 256.2c-1.8000000000000114 1.8000000000000114-2.8999999999999773 3.7000000000000455-3.8000000000000114 5.900000000000034l-0.0999999999999659 0.19999999999998863c-0.8000000000000114 2.1000000000000227-1.1000000000000227 4.300000000000011-1.1000000000000227 6.5-0.5-1.1000000000000227-1.099999999999966-2.1999999999999886-2.099999999999966-3-16.200000000000045-13.699999999999989-36.200000000000045-30.899999999999977-55.200000000000045-47.10000000000002l54.80000000000001 27.900000000000034c5 2.5 11.199999999999989 0.5999999999999659 13.699999999999989-4.5 1.900000000000034-3.6999999999999886 2.8000000000000114-5.600000000000023-4.699999999999989-13.400000000000034l0.10000000000002274-0.39999999999997726-1-0.39999999999997726c-6.199999999999989-6.5-17.69999999999999-16.80000000000001-38-34.5 18.599999999999966 9.599999999999966 38.19999999999999 19.5 54.80000000000001 28 1.5 0.6999999999999886 3.099999999999966 1.099999999999966 4.699999999999989 1.099999999999966 3.3000000000000114 0 6.400000000000034-1.5 8.300000000000011-4.399999999999977 3-4.199999999999989 2.3999999999999773-9.900000000000034-1.3000000000000682-13.400000000000034l-48.299999999999955-45.599999999999966c14.300000000000011 7.399999999999977 28.19999999999999 14.699999999999989 38.39999999999998 20 30.399999999999977 15.800000000000011 30.399999999999977 15.800000000000011 34.5 14.5 2.6000000000000227-0.8000000000000114 4.800000000000068-2.6999999999999886 6-5.100000000000023 2.2000000000000455-4.199999999999989 3.1000000000000227-6.199999999999989-5-13.899999999999977l0.10000000000002274-0.10000000000002274c-0.10000000000002274-0.0999999999999659-0.20000000000004547-0.0999999999999659-0.39999999999997726-0.19999999999998863-4.399999999999977-4.100000000000023-11.300000000000068-9.699999999999989-22-18.100000000000023l33.299999999999955 17c5 2.6000000000000227 11.300000000000068 0.5 13.800000000000068-4.5 1.7999999999999545-3.5 2.7999999999999545-5.699999999999989-4.7000000000000455-13.399999999999977l0.20000000000004547-0.6999999999999886-1.5-1.1000000000000227c-4.5-4.399999999999977-11.600000000000023-3.3000000000000114-22.600000000000023-20.30000000000001h0.10000000000002274c38.59999999999991 17 39.799999999999955 20.100000000000023 43.39999999999998 18.900000000000034 3.3999999999999773-1.1000000000000227 6.100000000000023-3.1000000000000227 6.899999999999977-6.699999999999989 0.7999999999999545-3.6000000000000227-0.2999999999999545-7.2000000000000455-2.8999999999999773-9.700000000000045l-47.30000000000007-45c67 35 67.20000000000005 34.900000000000034 72.10000000000002 33.30000000000001 3.5-1.099999999999966 6.2000000000000455-4.099999999999966 6.899999999999977-7.699999999999989 0.8000000000000682-3.6000000000000227-0.5-7.399999999999977-3.2999999999999545-9.800000000000011-11.700000000000045-10-25.700000000000045-22.19999999999999-39.60000000000002-34.19999999999999 55.39999999999998 28.69999999999999 56.700000000000045 28.19999999999999 60.80000000000007 26.899999999999977 3.3999999999999773-1 6-3.8999999999999773 6.7999999999999545-7.2999999999999545 0.7999999999999545-3.400000000000034-0.10000000000002274-7.100000000000023-2.7000000000000455-9.700000000000045-10.799999999999955-10.799999999999955-23.899999999999977-24-36.5-36.799999999999955 54.30000000000007 28.099999999999966 55.40000000000009 27.899999999999977 59.700000000000045 26.399999999999977 2.6000000000000227-0.8000000000000114 4.7999999999999545-2.6000000000000227 6-5 1.2999999999999545-2.3999999999999773 1.5-5.300000000000011 0.7000000000000455-7.800000000000011l-10.100000000000023-30.899999999999977c28.699999999999932 15.099999999999966 29.5 14.800000000000011 33.799999999999955 13.5l-3.1000000000000227-9.699999999999989 3.1000000000000227-9.700000000000017c-3-1.200000000000017-23.799999999999955-11.900000000000006-43.39999999999998-22.30000000000001l93.79999999999995 0.09999999999999432z"/>
</svg>
