<svg xmlns="http://www.w3.org/2000/svg" viewBox="0 0 1000 1000" width="1000" height="1000">
<path d="M222.6 427.6h343.29999999999995l-127.5-127.5c-8.799999999999955-8.800000000000011-8.799999999999955-23.100000000000023 0-31.900000000000034l53.60000000000002-53.599999999999994c8.800000000000011-8.799999999999983 23.100000000000023-8.799999999999983 31.899999999999977 0l269.5 269.4c8.800000000000068 8.800000000000011 8.800000000000068 23.100000000000023 0 31.899999999999977l-269.5 269.5c-8.799999999999955 8.800000000000068-23.099999999999966 8.800000000000068-31.899999999999977 0l-53.60000000000002-53.60000000000002c-8.799999999999955-8.799999999999955-8.799999999999955-23.09999999999991 0-31.899999999999977l136.89999999999998-136.89999999999998h-352.69999999999993c-12.500000000000028 0-22.600000000000023-10.100000000000023-22.600000000000023-22.600000000000023v-90.29999999999995c0-12.400000000000034 10.099999999999994-22.5 22.599999999999994-22.5z"/>
</svg>
