<svg xmlns="http://www.w3.org/2000/svg" viewBox="0 0 1000 1000" width="1000" height="1000">
<path d="M427.3 777.4v-343.29999999999995l-127.5 127.5c-8.800000000000011 8.799999999999955-23.100000000000023 8.799999999999955-31.900000000000034 0l-53.599999999999966-53.60000000000002c-8.800000000000011-8.800000000000011-8.800000000000011-23.100000000000023 0-31.899999999999977l269.5-269.5c8.800000000000011-8.800000000000011 23.099999999999966-8.800000000000011 31.900000000000034-2.842170943040401e-14l269.5 269.5c8.799999999999955 8.799999999999955 8.799999999999955 23.099999999999966 0 31.899999999999977l-53.60000000000002 53.60000000000002c-8.800000000000068 8.799999999999955-23.100000000000023 8.799999999999955-31.899999999999977 0l-136.9000000000001-136.8v352.7c0 12.5-10.099999999999909 22.600000000000023-22.59999999999991 22.600000000000023h-90.40000000000003c-12.400000000000034-0.10000000000002274-22.5-10.300000000000068-22.5-22.700000000000045z"/>
</svg>
