<svg xmlns="http://www.w3.org/2000/svg" viewBox="0 0 1000 1000" width="1000" height="1000">
<path d="M297.7 775.1c-8.899999999999977-7.5-23.099999999999966-9.100000000000023-35.099999999999966-12.399999999999977-21.400000000000034-5.7000000000000455-42.900000000000034-11-64.50000000000003-15.600000000000023-12.400000000000006-2.7000000000000455-17.900000000000006-8.399999999999977-17.799999999999983-21.899999999999977 0.5-86.60000000000002 0.39999999999997726-173.20000000000005 0.09999999999999432-259.90000000000003 0-11.900000000000034 3.9000000000000057-18 16.19999999999999-21.100000000000023 39.20000000000002-10.099999999999966 78.20000000000002-21 116.70000000000002-32.89999999999998 10.199999999999989-3.1000000000000227 20.80000000000001-9.5 27.69999999999999-17.400000000000034 50.89999999999998-58 100.89999999999998-116.89999999999998 151.2-175.29999999999998 14.5-16.799999999999983 32.099999999999966-26.099999999999994 55.30000000000001-21 22.5 5.099999999999994 36.700000000000045 18.80000000000001 43.299999999999955 40.599999999999994 5.900000000000091 19.19999999999999 0.20000000000004547 36.19999999999999-12.399999999999977 51-22.5 26.600000000000023-45.5 52.69999999999999-67.69999999999999 79.5-2.099999999999966 2.5-3.3999999999999773 5.5-4.599999999999966 8.699999999999989-1.900000000000034 5.100000000000023 0.7999999999999545 10.700000000000045 6 12.300000000000011 3.199999999999932 1 6.399999999999977 1.8000000000000114 9.699999999999932 1.8000000000000114 104 0.19999999999998863 208 0.19999999999998863 312 0.19999999999998863h41.5c37.90000000000009 0 62 19.80000000000001 62.10000000000002 51.10000000000002 0.20000000000004547 30.80000000000001-24.699999999999932 53.30000000000001-61.39999999999998 53.39999999999998-14.100000000000023 0.10000000000002274-28.200000000000045 0.10000000000002274-42.200000000000045 0.30000000000001137h-193.5999999999999c-3.900000000000091 0-7.800000000000068 0.39999999999997726-11.700000000000045 0.6999999999999886-6.399999999999977 0.6000000000000227-11.799999999999955 2.8000000000000114-12 4.900000000000034-0.20000000000004547 2.099999999999966 3.6000000000000227 4.7999999999999545 8.5 6 3 0.7999999999999545 6.100000000000023 1.3999999999999773 9.100000000000023 1.3999999999999773 36.69999999999993 0.30000000000001137 73.39999999999998 0 110.19999999999993 0.19999999999998863 28.800000000000068 0.19999999999998863 49.10000000000002 17.69999999999999 50.40000000000009 43.099999999999966 1.1999999999999318 25-15.800000000000068 45.700000000000045-44 47.30000000000007-40.40000000000009 2.2999999999999545-81 1.1999999999999318-121.5 1.7999999999999545-3.900000000000091 0-7.800000000000068 0.3000000000000682-11.800000000000068 0.7000000000000455-2.3999999999999773 0.1999999999999318-4.7999999999999545 0.6999999999999318-6.699999999999932 1.1999999999999318-3.6000000000000227 1-5 5.7000000000000455-2.5 7.300000000000068 1.3999999999999773 0.7999999999999545 3.099999999999909 1.6000000000000227 4.899999999999977 2.199999999999932 3 1 6 1.7000000000000455 9.100000000000023 1.8000000000000682 31 0.39999999999997726 62 0.1999999999999318 93.09999999999991 0.1999999999999318 27.700000000000045 0.10000000000002274 44.200000000000045 14.5 45 39.60000000000002 0.900000000000091 24.600000000000023-19.199999999999932 46.10000000000002-45.19999999999993 46.5-43 0.6000000000000227-86.10000000000002 0-129.20000000000005 0.3000000000000682-3.2999999999999545 0-6.5 0.599999999999909-9.699999999999932 1.3999999999999773-5.300000000000068 1.1999999999999318-9.5 3.7999999999999545-9.400000000000091 5.699999999999932 0.10000000000002274 1.900000000000091 4.400000000000091 4.2000000000000455 9.600000000000023 5 3.1000000000000227 0.5 6.300000000000068 0.900000000000091 9.5 0.900000000000091 30.399999999999977 0.2999999999999545 60.80000000000007 0 91.20000000000005 0.1999999999999318 24.100000000000023 0.20000000000004547 39.10000000000002 13 43.10000000000002 36.39999999999998 3.2999999999999545 19.40000000000009-9.200000000000045 41.40000000000009-29 47.90000000000009-9.400000000000091 3.199999999999932-19.800000000000068 4.2999999999999545-29.800000000000068 4.2999999999999545-91.79999999999995 0.2999999999999545-183.7 0.39999999999997726-275.5 0.10000000000002274-32.099999999999966-0.10000000000002274-62.099999999999966-6.800000000000068-88.19999999999999-28.5z m-142.5-304.6v255.29999999999995c0 15.100000000000023-12.399999999999977 27.300000000000068-27.799999999999983 27.300000000000068h-37.10000000000001c-15.399999999999991 0-27.799999999999997-12.200000000000045-27.799999999999997-27.300000000000068v-255.29999999999995c0-15.100000000000023 12.400000000000006-27.30000000000001 27.799999999999997-27.30000000000001h37.10000000000001c15.299999999999983 0 27.799999999999983 12.199999999999989 27.799999999999983 27.30000000000001z"/>
</svg>
