<svg xmlns="http://www.w3.org/2000/svg" viewBox="0 0 1000 1000" width="1000" height="1000">
<path d="M219.7 797.5c-10.599999999999994 0-19.299999999999983-8.5-19.69999999999999-19v-281.1c0-5.199999999999989 2.0999999999999943-10.199999999999989 5.800000000000011-13.899999999999977l281.09999999999997-281h26.100000000000023l0.8999999999999773 0.8000000000000114 280.20000000000005 280.09999999999997c3.699999999999932 3.7000000000000455 5.7999999999999545 8.800000000000011 5.7999999999999545 13.900000000000034v280.09999999999997c0 7.899999999999977-4.899999999999977 15.200000000000045-12.199999999999932 18.200000000000045-7.300000000000068 3-15.900000000000091 1.2999999999999545-21.5-4.300000000000068l-266.20000000000005-266-264.6 264.30000000000007c-3.299999999999983 4.7999999999999545-9.299999999999983 7.899999999999977-15.699999999999989 7.899999999999977z m-13.799999999999983-18.5c0.5999999999999943 7.100000000000023 6.5 12.700000000000045 13.799999999999983 12.700000000000045 4.5 0 8.700000000000017-2.2000000000000455 11.300000000000011-5.800000000000068l269-268.9 2.1000000000000227 2.1000000000000227 268.4 268.19999999999993c3.8999999999999773 3.900000000000091 9.899999999999977 5.100000000000023 15.100000000000023 3 5.100000000000023-2.099999999999909 8.600000000000023-7.2999999999999545 8.600000000000023-12.799999999999955v-280.1c0-3.599999999999966-1.5-7.199999999999989-4.100000000000023-9.799999999999955l-279.40000000000003-279.3h-21.30000000000001l-279.4 279.3c-2.5999999999999943 2.599999999999966-4.099999999999994 6.199999999999989-4.099999999999994 9.799999999999955v279.20000000000005l1 1.3999999999999773-1 1z m27.599999999999994-34.799999999999955v-241.10000000000002l0.9000000000000057-0.9000000000000341 265.6-265.4 9.399999999999977 9.399999999999977 0.4000000000000341-0.5999999999999943 4.599999999999966 5.700000000000017-0.7999999999999545 0.5c5.399999999999977 13.899999999999977 22 48.39999999999998 80.39999999999998 162.2l-5.100000000000023 2.8000000000000114-89.79999999999995-152.3 3.1999999999999886-5.699999999999989-15.400000000000034 9.5c0 0.6999999999999886 0.4000000000000341 2 1.6000000000000227 4.899999999999977l1 2.400000000000034-0.30000000000001137 0.19999999999998863 1.5 2.599999999999966c7.199999999999989 15.700000000000045 25.80000000000001 51.900000000000034 70.59999999999997 139.5l17.40000000000009 33.900000000000034c3.099999999999909 5.899999999999977 6.099999999999909 11.800000000000011 9.199999999999932 17.80000000000001l-5.100000000000023 2.8999999999999773c-67.89999999999998-109.19999999999999-96.09999999999997-154.2-109.49999999999994-171.5l-1.3000000000000114-2.3999999999999773-0.39999999999997726 0.19999999999998863-1.6000000000000227-1.8000000000000114c-3.6999999999999886-4.199999999999989-5.5-5.100000000000023-6.399999999999977-5.100000000000023-0.6000000000000227 0-1.400000000000034 0.4000000000000341-2.5 1-1.8000000000000114 0.9000000000000341-3.1000000000000227 2.400000000000034-3.6000000000000227 4.2000000000000455-0.5 1.599999999999966-0.30000000000001137 3.1999999999999886 0.6999999999999886 5.7999999999999545 26.5 50.5 56.400000000000034 108 79.90000000000003 153.40000000000003l-5 3-94.20000000000005-132.90000000000003c-2.099999999999966-2.8999999999999773-6.399999999999977-3.7999999999999545-9.5-2-1.6999999999999886 1.1000000000000227-3 2.900000000000034-3.5 4.800000000000011-0.2999999999999545 1.1000000000000227-0.2999999999999545 2.8000000000000114 0.7000000000000455 4.400000000000034 10.399999999999977 19.899999999999977 23.19999999999999 44.599999999999966 35.19999999999999 67.79999999999995l11.5 22.30000000000001-16.400000000000034-19.099999999999966c-24.799999999999955-29-36.69999999999999-42.200000000000045-43.69999999999999-48.80000000000001-4.099999999999966-3.8000000000000114-6.599999999999966-5.400000000000034-8.099999999999966-5.400000000000034-0.6000000000000227 0-1.3000000000000114 0.30000000000001137-2.400000000000034 0.9000000000000341-3.5 1.8000000000000114-5 6.099999999999966-3.1999999999999886 9.599999999999966l38.39999999999998 75.40000000000003-15.599999999999966-17.900000000000034c-8.900000000000034-10.199999999999989-15.900000000000034-18.19999999999999-21.400000000000034-24.299999999999955-6-6.7000000000000455-9.699999999999989-10.800000000000011-12.599999999999966-13.600000000000023-3.6999999999999886-3.6999999999999886-6.199999999999989-5.5-7.5-5.5-0.6000000000000227 0-1.5 0.39999999999997726-2.8000000000000114 1.1000000000000227-1.6999999999999886 0.8999999999999773-3 2.3999999999999773-3.5 4.099999999999966-0.8000000000000114 2.400000000000034 1.8999999999999773 8.5 32.10000000000002 67.90000000000003l9.199999999999989 18.099999999999966-57.30000000000001-60.69999999999999c-2.1000000000000227-2.3000000000000114-5.600000000000023-2.8999999999999773-8.399999999999977-1.5-1.7000000000000455 0.8999999999999773-3 2.3999999999999773-3.7000000000000455 4.300000000000011-0.7999999999999545 2.599999999999966-1.1999999999999886 3.8000000000000114 14.5 34.5l-4.899999999999977 3.099999999999966c-6.699999999999989-8.399999999999977-11.399999999999977-14.099999999999966-14.800000000000011-17.799999999999955l-0.6999999999999886-0.8000000000000114c-3.3000000000000114-3.400000000000034-5.5-5.100000000000023-6.899999999999977-5.100000000000023-0.7000000000000455 0-1.6000000000000227 0.4000000000000341-3 1.1000000000000227-3.5 1.8000000000000114-4.900000000000034 6.099999999999966-3.1000000000000227 9.599999999999966l33.69999999999999 66.10000000000002-18-22.5c-8.699999999999989-10.899999999999977-17.099999999999966-21.399999999999977-24.399999999999977-30.69999999999999-2.1999999999999886-2.8000000000000114-6.5-3.5-9.5-1.6000000000000227-3.1000000000000227 2-4.100000000000023 6-2.400000000000034 9.199999999999989l1.5 3c9.5 18.30000000000001 21.100000000000023 40.900000000000034 31.700000000000045 61.5l9.299999999999955 18.100000000000023-59.299999999999955-62.39999999999998c-1.8000000000000114-1.8000000000000114-4.400000000000034-2.7000000000000455-6.7000000000000455-2-2.5 0.5-4.5 2.3999999999999773-5.199999999999989 4.7999999999999545-1.099999999999966 3.400000000000034-0.5 4.800000000000011 26.5 56.60000000000002l11.400000000000034 21.799999999999955-16.200000000000045-18.5c-17-19.5-26-29.199999999999932-31.799999999999955-34.69999999999993l-0.9000000000000341-0.9000000000000341c-3.599999999999966-3.3000000000000114-6.099999999999966-4.899999999999977-7.399999999999977-4.899999999999977-0.6000000000000227 0-1.1999999999999886 0.30000000000001137-2.3000000000000114 0.8999999999999773-1.6999999999999886 0.9000000000000341-3 2.400000000000034-3.5999999999999943 4.199999999999989-0.5999999999999943 1.8000000000000114-0.4000000000000057 4 0.4000000000000057 5.300000000000011 10.800000000000011 20.599999999999966 24.5 47.00000000000006 36.39999999999998 70.30000000000001l8.400000000000034 16.299999999999955-13-12.899999999999977c-26.80000000000001-26.5-39.400000000000034-38.299999999999955-43.30000000000001-38.299999999999955-0.6000000000000227 0-1.200000000000017 0.2999999999999545-2.4000000000000057 0.8999999999999773-0.700000000000017 0.2999999999999545-1.3000000000000114 0.8999999999999773-1.9000000000000057 1.5l-3.5999999999999943 3.6000000000000227 4.099999999999994 7.899999999999977c13.099999999999994 25.200000000000045 30.80000000000001 59.60000000000002 41.89999999999998 81.20000000000005l3.2000000000000455 6.2999999999999545-38.30000000000001-12.5c-2.5-0.8999999999999773-5.400000000000006 0-7.300000000000011 2l-3.5 3.7000000000000455 3.9000000000000057 7.5c7 13.299999999999955 17.299999999999983 33.09999999999991 20.900000000000006 40.5l7.899999999999977-2.5 7.100000000000023 2.199999999999932c-0.5-3-3.400000000000034-9.100000000000023-13.300000000000011-27.899999999999977l-3.3000000000000114-6.399999999999977 37.19999999999999 12.199999999999932c1.8000000000000114 0.6000000000000227 3.8000000000000114 0.40000000000009095 5.400000000000034-0.39999999999997726 1.6999999999999886-0.8999999999999773 3-2.3999999999999773 3.5-4.100000000000023 1.099999999999966-3.199999999999932 0.30000000000001137-6.099999999999909-25.80000000000001-56.39999999999998l-8.5-16.5 13.199999999999989 13c12.5 12.399999999999977 25.600000000000023 25.300000000000068 36.10000000000002 35.89999999999998 1.8000000000000114 1.8000000000000682 4.300000000000011 2.400000000000091 6.699999999999989 1.900000000000091 2.3999999999999773-0.6000000000000227 4.399999999999977-2.400000000000091 5.100000000000023-4.7000000000000455 1-3 0.2999999999999545-6.2999999999999545-26.200000000000045-57.5l-11.299999999999955-21.799999999999955 16.099999999999966 18.59999999999991c11.800000000000011 13.600000000000023 23.69999999999999 27.40000000000009 33.60000000000002 38.90000000000009 1.6999999999999886 1.8999999999999773 4.399999999999977 2.8999999999999773 6.800000000000011 2.2999999999999545 2.599999999999966-0.5 4.599999999999966-2.2999999999999545 5.399999999999977-4.7999999999999545 1.1999999999999886-3.7000000000000455-0.30000000000001137-6.900000000000091-32.5-68.60000000000002l-9.600000000000023-18.399999999999977 58.5 61.5c1.7000000000000455 1.7999999999999545 4.2000000000000455 2.599999999999909 6.800000000000011 2 1.5-0.3000000000000682 3.1999999999999886-1.2000000000000455 4.400000000000034-4.800000000000068 0.19999999999998863-0.6999999999999318-0.30000000000001137-1.8999999999999773-3.1000000000000227-7.5-2.8999999999999773-5.7999999999999545-7.600000000000023-15.399999999999977-15.399999999999977-33l-0.30000000000001137-1.1999999999999318v-5.300000000000068l4.5 2.800000000000068c12.399999999999977 8 15.599999999999966 14.099999999999909 18 18.59999999999991 0.8999999999999773 1.7000000000000455 1.599999999999966 3 2.5 4l0.30000000000001137 0.3000000000000682 1.3999999999999773 0.7999999999999545c3.3999999999999773 3.3999999999999773 5.899999999999977 5.100000000000023 7.199999999999989 5.100000000000023 0.6000000000000227 0 1.3000000000000114-0.2999999999999545 2.6000000000000227-1 1.6999999999999886-0.8999999999999773 3-2.3999999999999773 3.599999999999966-4.2000000000000455 0.6000000000000227-1.7999999999999545 0.4000000000000341-3.699999999999932-0.39999999999997726-5.399999999999977l-16.69999999999999-32.69999999999993 4.899999999999977-3.1000000000000227c8.100000000000023 10.399999999999977 13.699999999999989 17.199999999999932 17.600000000000023 21.5l0.30000000000001137 0.2999999999999545c3.3999999999999773 3.7000000000000455 5.7999999999999545 5.5 7.099999999999966 5.5 0.6999999999999886 0 1.6999999999999886-0.5 3-1.1999999999999318 1.6999999999999886-0.900000000000091 3-2.400000000000091 3.6000000000000227-4.2000000000000455 0.8999999999999773-2.7999999999999545 0.8999999999999773-2.8999999999999773-14-31.69999999999999-5.199999999999989-10-12.400000000000034-23.69999999999999-19.69999999999999-37.69999999999999l-9.700000000000045-18.700000000000045 59.30000000000001 62.89999999999998c2.400000000000034 2.5 6.5 3 9.300000000000011 0.900000000000091 2-1.400000000000091 3.1000000000000227-3.500000000000057 3.1000000000000227-5.800000000000068 0-1.099999999999966-0.30000000000001137-2.1999999999999886-0.8000000000000114-3.2999999999999545l-38.30000000000001-74.80000000000001 15.600000000000023 17.80000000000001c17.5 19.899999999999977 27.5 31.099999999999966 33.69999999999999 37.099999999999966l0.8000000000000114 0.8000000000000114c3.599999999999966 3.3999999999999773 6 5.100000000000023 7.2999999999999545 5.100000000000023 0.6000000000000227 0 1.3000000000000114-0.30000000000001137 2.6000000000000227-1 3.5-1.8000000000000114 4.800000000000011-6.100000000000023 3.1000000000000227-9.600000000000023l-38.60000000000002-76 16 18.69999999999999c11 12.800000000000011 22.399999999999977 26.19999999999999 32.80000000000001 38.400000000000034l13.399999999999977 15.699999999999989c0.4000000000000341 0.39999999999997726 1.1000000000000227 0.8000000000000114 1.8000000000000114 1.1999999999999886l2.8000000000000114 1.3999999999999773 1.8999999999999773-0.2999999999999545h0.5c2.400000000000034-0.6000000000000227 4.400000000000034-2.400000000000034 5.199999999999989-4.800000000000011 0.5-1.6000000000000227 1-3-7.399999999999977-20.30000000000001l5-3 68.5 96.60000000000002-4.5 3.7999999999999545-63.80000000000001-63.89999999999998c-1.1999999999999886-1.1000000000000227-2.6999999999999886-2.1000000000000227-4.399999999999977-2.8999999999999773l-2.3000000000000114-1-2.6000000000000227-0.10000000000002274c-2.099999999999966-0.19999999999998863-3.3999999999999773 0.19999999999998863-4.699999999999989 0.6999999999999886l-0.39999999999997726 0.4000000000000341h-0.6999999999999886c-1.7000000000000455 0.6999999999999886-3.1000000000000227 1.6999999999999886-4.300000000000011 2.8999999999999773l-256.8 256.70000000000005z m5.900000000000006-87.30000000000007v73.10000000000002l39.099999999999994-39-10.600000000000023-3.2999999999999545-11.299999999999955 3.599999999999909-1.0000000000000284-2.599999999999909c-0.799999999999983-2-7.5-15.200000000000045-16.19999999999999-31.800000000000068z m30.799999999999983 2.6000000000000227c11.5 22.100000000000023 11.699999999999989 24 10.100000000000023 29l-0.30000000000001137 1 22.69999999999999-22.700000000000045c-2.6999999999999886 1.1000000000000227-6 1.3000000000000682-9 0.40000000000009095l-23.5-7.7000000000000455z m22.100000000000023-45.10000000000002c19.69999999999999 38.39999999999998 19.30000000000001 39.60000000000002 17.69999999999999 44.39999999999998-0.10000000000002274 0.40000000000009095-0.19999999999998863 0.7000000000000455-0.39999999999997726 1.1000000000000227l19.899999999999977-19.799999999999955c-0.6000000000000227 0.2999999999999545-1.3000000000000114 0.5-1.8999999999999773 0.6000000000000227-4.300000000000011 1.099999999999909-9-0.20000000000004547-12.200000000000045-3.400000000000091-7-6.899999999999977-14.899999999999977-14.799999999999955-23.099999999999966-22.899999999999977z m29.099999999999966-22.699999999999932c17.400000000000034 34.299999999999955 16.900000000000034 35.799999999999955 15.5 40.299999999999955-0.0999999999999659 0.2999999999999545-0.19999999999998863 0.7000000000000455-0.39999999999997726 1l17.30000000000001-17.299999999999955c-0.8000000000000114 0.2999999999999545-1.6000000000000227 0.599999999999909-2.400000000000034 0.6999999999999318-4.099999999999966 0.8999999999999773-9.299999999999955-0.6999999999999318-12.399999999999977-4.2999999999999545-5.399999999999977-6.2000000000000455-11.399999999999977-13.200000000000045-17.600000000000023-20.399999999999977z m-77.49999999999997 32.59999999999991c1.299999999999983 0 2.5999999999999943 0.20000000000004547 3.799999999999983 0.6000000000000227l24.69999999999999 8.100000000000023c-9.399999999999977-18.399999999999977-22.19999999999999-43.10000000000002-33.099999999999966-64.20000000000005v56.30000000000007c1.5-0.5 3.0999999999999943-0.8000000000000682 4.599999999999994-0.8000000000000682z m93.99999999999997-71.29999999999995c25.30000000000001 48.5 25.100000000000023 49.10000000000002 23.30000000000001 54.60000000000002-0.0999999999999659 0.2999999999999545-0.19999999999998863 0.6999999999999318-0.39999999999997726 1l21.30000000000001-21.300000000000068c-0.7000000000000455 0.3000000000000682-1.400000000000034 0.5-2.1000000000000227 0.7000000000000455-4.399999999999977 1-9.199999999999989-0.39999999999997726-12.300000000000011-3.7000000000000455l-29.80000000000001-31.299999999999955z m36.700000000000045-7.899999999999977c5 11 8.399999999999977 17.799999999999955 10.599999999999966 22.299999999999955 3.6000000000000227 7.2000000000000455 4.400000000000034 8.899999999999977 3.5 12-0.30000000000001137 0.8999999999999773-0.5999999999999659 1.7000000000000455-1 2.5l15.100000000000023-15.100000000000023c-3.5 1.7000000000000455-7.800000000000011 2-14.400000000000034-4.199999999999932l-0.2999999999999545 0.10000000000002274-2-1.5-1.1000000000000227-1.400000000000091c-1.3999999999999773-1.3999999999999773-2.3000000000000114-3.199999999999932-3.3000000000000114-5.099999999999909-1.5-2.7000000000000455-3.099999999999966-5.800000000000068-7.099999999999966-9.600000000000023z m-131.8-9.300000000000068c4.899999999999977 0 10.099999999999994 3.5 34.5 27.200000000000045-9.699999999999989-18.700000000000045-19.69999999999999-38.10000000000002-28-53.89999999999998-1.6000000000000227-2.6000000000000227-1.9000000000000057-6.5-0.8000000000000114-10 1.0999999999999943-3.3000000000000114 3.4000000000000057-6 6.5-7.600000000000023 1.3999999999999773-0.6999999999999886 3-1.6000000000000227 5-1.6000000000000227 2.8000000000000114 0 5.600000000000023 1.5 9.899999999999977 5.100000000000023l0.8000000000000114-0.39999999999997726 2 3c3.8000000000000114 3.599999999999966 8.699999999999989 8.799999999999955 16 16.799999999999955-17.69999999999999-34-17.5-34.799999999999955-15.899999999999977-39.89999999999998 1.3999999999999773-4.399999999999977 5-7.699999999999989 9.5-8.699999999999989 4.199999999999989-1 9.099999999999966 0.39999999999997726 12.300000000000011 3.6999999999999886l31.299999999999955 32.89999999999998c-7.7999999999999545-15.199999999999989-15.699999999999989-30.299999999999955-22.399999999999977-43.39999999999998l-1.8999999999999773-3.6999999999999886c-2.6000000000000227-5.800000000000011-0.6000000000000227-12.600000000000023 4.7999999999999545-16.100000000000023 5.5-3.599999999999966 13.200000000000045-2.3000000000000114 17.200000000000045 2.8000000000000114 2 2.6000000000000227 4.099999999999966 5.199999999999989 6.2999999999999545 7.899999999999977l-7.399999999999977-14.599999999999966c-1.6000000000000227-3.1000000000000227-1.8999999999999773-6.600000000000023-0.8000000000000114-9.900000000000034 1.1000000000000227-3.2999999999999545 3.400000000000034-6 6.400000000000034-7.599999999999966 1.6999999999999886-0.9000000000000341 3.5-1.8000000000000114 5.599999999999966-1.8000000000000114 2.900000000000034 0 5.699999999999989 1.6000000000000227 9.699999999999989 5.5l0.6000000000000227-0.19999999999998863v0.0999999999999659c-4.399999999999977-9.799999999999955-4.199999999999989-11.899999999999977-3.1000000000000227-15.199999999999989 1.2000000000000455-3.5 3.5-6.099999999999966 6.600000000000023-7.699999999999989 4.899999999999977-2.6000000000000227 11.399999999999977-1.3999999999999773 15.300000000000011 2.6999999999999886l29.399999999999977 31.100000000000023c-24.899999999999977-49.10000000000002-24.599999999999966-49.80000000000001-23.30000000000001-54.10000000000002 1-3.1999999999999886 3.3000000000000114-6 6.5-7.599999999999966 1.7000000000000455-0.9000000000000341 3.400000000000034-1.7000000000000455 5.5-1.7000000000000455 3.2000000000000455 0 6.400000000000034 2 11.600000000000023 7.2000000000000455 3 2.8999999999999773 6.699999999999989 6.899999999999977 12.899999999999977 13.799999999999955 1.8000000000000114 2 3.8000000000000114 4.300000000000011 5.900000000000034 6.7000000000000455l-16.900000000000034-33.30000000000001c-3.1999999999999886-6.400000000000034-0.6999999999999886-14.199999999999989 5.7000000000000455-17.5 1.5-0.8000000000000114 3.099999999999966-1.6000000000000227 5.099999999999966-1.6000000000000227 3.1999999999999886 0 6.400000000000034 1.8000000000000114 11.5 6.5l0.5 0.5c5.5 5.199999999999989 13.5 13.800000000000011 27.900000000000034 30.400000000000034-8.300000000000011-16.100000000000023-16.600000000000023-31.900000000000034-23.600000000000023-45.5-1.5-2.3000000000000114-2.1000000000000227-5.5-1.3999999999999773-8.600000000000023 0.7999999999999545-3.5 3-6.600000000000023 6.099999999999966-8.5 5.699999999999989-3.3999999999999773 13.5-1.8000000000000114 17.30000000000001 3.5l69.89999999999998 98.69999999999999c-19.399999999999977-37.39999999999998-40.89999999999998-78.69999999999999-60.69999999999999-116.39999999999998-1.099999999999966-2.900000000000034-2.099999999999966-6.199999999999989-0.8999999999999773-9.900000000000034 1.099999999999966-3.2999999999999545 3.3999999999999773-6.099999999999966 6.5-7.699999999999989 1.5-0.8000000000000114 3.1999999999999886-1.599999999999966 5.199999999999989-1.599999999999966 2.8999999999999773 0 5.600000000000023 1.599999999999966 9.199999999999989 5.399999999999977l1.5-0.8000000000000114 3.900000000000034 7.199999999999989c10.599999999999966 13.600000000000023 30.599999999999966 44.900000000000034 72.69999999999993 112.30000000000001-40.99999999999994-80.09999999999997-58.39999999999998-114.19999999999999-65.19999999999993-129.09999999999997l-4.5-7.5 1-0.5c-1.400000000000034-3.900000000000034-1.3000000000000114-5.400000000000034-0.7000000000000455-7.300000000000011l0.30000000000001137-1 0.9000000000000341-0.6000000000000227 22.19999999999999-13.799999999999983-5.100000000000023-5.099999999999994-260.29999999999995 260.7v31c0.9999999999999716-0.39999999999997726 2.099999999999966-0.7000000000000455 3.3999999999999773-0.7000000000000455z m162.09999999999997 4.5l4.400000000000034 8.600000000000023c1.599999999999966 3.1000000000000227 1.8000000000000114 6.600000000000023 0.8000000000000114 9.899999999999977-0.10000000000002274 0.40000000000009095-0.30000000000001137 0.8000000000000682-0.4000000000000341 1.1000000000000227l12.400000000000034-12.299999999999955c-4.100000000000023 2-8.100000000000023 2.1000000000000227-14.700000000000045-4.800000000000068l-0.7999999999999545 0.3000000000000682-1.2000000000000455-2.3999999999999773c-0.2999999999999545-0.20000000000004547-0.39999999999997726-0.3000000000000682-0.5-0.40000000000009095z m0.30000000000001137-56.099999999999966c3.6999999999999886 7.100000000000023 7.100000000000023 13.600000000000023 9.900000000000034 19 16.099999999999966 30.900000000000034 16.099999999999966 30.900000000000034 14.399999999999977 36.19999999999999-0.10000000000002274 0.3000000000000682-0.19999999999998863 0.7000000000000455-0.39999999999997726 1l20.799999999999955-20.799999999999955c-4.7999999999999545 1.8999999999999773-10.799999999999955 0.6999999999999318-14.399999999999977-3.1000000000000227l-30.30000000000001-32.30000000000001z m107.80000000000001-1.599999999999966l0.8999999999999773 0.7999999999999545 39.39999999999998 39.39999999999998-35.19999999999993-49.69999999999993c0 1.099999999999966-0.3000000000000682 2-0.6000000000000227 3-0.7999999999999545 2.6999999999999886-2.3999999999999773 4.899999999999977-4.5 6.5z m-73.30000000000001-13.900000000000034l16.900000000000034 33c1 1.900000000000034 1.3999999999999773 3.900000000000034 1.3999999999999773 5.900000000000034 0 1.6999999999999886-0.30000000000001137 3.3999999999999773-1 4.899999999999977l17.5-17.5c-1.1999999999999886 0.6000000000000227-2.6000000000000227 1.1000000000000227-4.100000000000023 1.1000000000000227-2.7999999999999545 0-5.599999999999966-1.5-10-5.5l-0.7999999999999545 0.2999999999999545-1.7000000000000455-2.6999999999999886c-4.199999999999989-4-9.799999999999955-10.099999999999966-18.19999999999999-19.5z m25.400000000000034-23.5l16.19999999999999 31.80000000000001c1.8000000000000114 3.5 1.8000000000000114 7.5 0.39999999999997726 10.899999999999977l4.400000000000034-4.399999999999977c1.6999999999999886-1.6999999999999886 3.6999999999999886-3.1000000000000227 6.099999999999966-4.100000000000023l0.4000000000000341-0.5h0.7999999999999545c0.10000000000002274 0 0.20000000000004547 0 0.30000000000001137-0.0999999999999659l-11.899999999999977-13.900000000000034c-5.300000000000011-6.2999999999999545-11-13-16.69999999999999-19.69999999999999z m40.799999999999955-180.89999999999998l39.80000000000007 67.59999999999997c-21.800000000000068-43.19999999999999-31.40000000000009-63.5-36.00000000000006-74.39999999999998l-3.8000000000000114 6.800000000000011z m257.80000000000007 477.2l-74.10000000000002-74.10000000000002 4.100000000000023-1.6000000000000227c0.599999999999909-0.1999999999999318 1.1999999999999318-0.5 1.7999999999999545-0.7999999999999545 1.6000000000000227-0.7999999999999545 2.8999999999999773-2.3999999999999773 3.5-4.100000000000023 0.10000000000002274-0.39999999999997726 0.20000000000004547-0.5 0.20000000000004547-0.6999999999999318 0-1.1000000000000227-0.8000000000000682-3.5-2.5-7.300000000000068-4.7000000000000455-10.799999999999955-16.800000000000068-35.10000000000002-44.80000000000007-89.69999999999993l5.100000000000023-2.800000000000068 106.70000000000005 181.10000000000002z m-64-72.29999999999995l35.59999999999991 35.5-38.19999999999993-64.90000000000009c2.199999999999932 4.5 3.699999999999932 8 4.899999999999977 10.600000000000023 2.5 5.600000000000023 3 7.899999999999977 3 9.600000000000023 0 1.1000000000000227-0.2999999999999545 1.8999999999999773-0.39999999999997726 2.5-0.8999999999999773 2.7999999999999545-2.6000000000000227 5.100000000000023-4.899999999999977 6.7000000000000455z m66.79999999999995 47.19999999999993l-5.5-10.799999999999955c-3.7999999999999545-7.399999999999977-8.399999999999977-16.300000000000068-14.5-28-12.200000000000045-23.399999999999977-29.899999999999977-57.700000000000045-50.299999999999955-96.89999999999998l5.099999999999909-2.800000000000068c37.80000000000007 65.30000000000007 53.700000000000045 91.5 62.90000000000009 103.80000000000007l2.199999999999932 5 0.10000000000002274 29.699999999999932z m-18-47.5c1.1000000000000227 2.1000000000000227 2.1000000000000227 4.100000000000023 3.1000000000000227 6 3.3999999999999773 6.600000000000023 6.399999999999977 12.300000000000068 9 17.300000000000068v-4.800000000000068l-1.3000000000000682-2.6000000000000227c-2.7999999999999545-3.7999999999999545-6.2999999999999545-8.799999999999955-10.799999999999955-15.899999999999977z m18-14.399999999999977l-82-161 5.100000000000023-2.8999999999999773 49.60000000000002 79.5c12.599999999999909 20.100000000000023 20.199999999999932 32.19999999999993 25.399999999999977 39.60000000000002 1 1.7999999999999545 1.5 2.7999999999999545 1.6999999999999318 3.2999999999999545l0.3000000000000682 1.2000000000000455-0.10000000000002274 40.299999999999955z m-46.10000000000002-103.20000000000005l40.200000000000045 78.90000000000009v-15.200000000000045c-0.20000000000004547-0.5-0.6000000000000227-1.2000000000000455-1.1000000000000227-2.1000000000000227-5.100000000000023-7.199999999999932-12.700000000000045-19.299999999999955-25.399999999999977-39.5l-13.700000000000045-22.100000000000023z m-51 95.90000000000009l-71.79999999999995-71.80000000000007 6.399999999999977-1.2999999999999545c2-0.7000000000000455 3.2999999999999545-2.300000000000068 3.8999999999999773-4.100000000000023 0.20000000000004547-0.7999999999999545 0.5-1.6000000000000227-1.3999999999999773-6.899999999999977l-0.8999999999999773-2.5c-4.399999999999977-10.600000000000023-13.600000000000023-29.800000000000068-28.800000000000068-59.900000000000034l5.100000000000023-2.8999999999999773c51.5 82.69999999999999 77 123.49999999999994 92.10000000000002 145.7l-4.600000000000023 3.7000000000000455z m-60.60000000000002-68.90000000000009l44.60000000000002 44.5c-11.100000000000023-17.299999999999955-25.899999999999977-40.89999999999998-46.39999999999998-73.69999999999993 2.2000000000000455 4.899999999999977 3.8999999999999773 8.799999999999955 5 11.699999999999932l2.5 4.400000000000091h-1.1000000000000227c0.8999999999999773 3.5 0.7000000000000455 4.899999999999977 0.10000000000002274 6.599999999999909-0.8999999999999773 2.6000000000000227-2.5 4.900000000000091-4.7000000000000455 6.5z m157.70000000000005 3.900000000000091l-5.5-10.800000000000068c-5.5-10.600000000000023-12.299999999999955-23.899999999999977-21.100000000000023-41l-18.399999999999977-35.69999999999999 5-3c12.600000000000023 18.69999999999999 25.100000000000023 37.30000000000001 36.5 54.19999999999999l3.6000000000000227 5.399999999999977-0.10000000000002274 30.90000000000009z m-16.799999999999955-45.30000000000007c4.099999999999909 7.899999999999977 7.699999999999932 14.899999999999977 10.899999999999977 21.100000000000023v-4.899999999999977l-2.6000000000000227-3.8999999999999773c-2.7000000000000455-4-5.5-8.100000000000023-8.299999999999955-12.300000000000068z m16.799999999999955-17.100000000000023l-5.600000000000023-11.399999999999977-2.199999999999932-4.2999999999999545-9.100000000000023-17.80000000000001 16.899999999999977 16.80000000000001v16.699999999999932z m-115.29999999999995-117.49999999999994c-3.5-5.600000000000023-6.800000000000068-11-10.300000000000068-16.5l-13.699999999999932-21.80000000000001 22.899999999999977 23 6.199999999999932 12.399999999999977-5.099999999999909 2.900000000000034z m-45.700000000000045-19.5c-14.700000000000045-25.69999999999999-29.399999999999977-51.19999999999999-43.60000000000002-76l-10.899999999999977-19 25.799999999999955 25.899999999999977 33.80000000000007 66.30000000000001-5.100000000000023 2.8000000000000114z"/>
</svg>
