<svg xmlns="http://www.w3.org/2000/svg" viewBox="0 0 1000 1000" width="1000" height="1000">
<path d="M775 702.2c-7.399999999999977 8.899999999999977-9.100000000000023 23.09999999999991-12.299999999999955 35.19999999999993-5.7000000000000455 21.300000000000068-11 42.89999999999998-15.700000000000045 64.5-2.7000000000000455 12.300000000000068-8.399999999999977 17.800000000000068-21.899999999999977 17.800000000000068-86.60000000000002-0.5-173.20000000000005-0.40000000000009095-259.8-0.10000000000002274-11.900000000000034 0-17.900000000000034-3.8999999999999773-21.19999999999999-16.200000000000045-10.100000000000023-39.19999999999993-21-78.10000000000002-32.900000000000034-116.69999999999993-3.099999999999966-10.100000000000023-9.5-20.700000000000045-17.399999999999977-27.600000000000023-58-50.89999999999998-116.80000000000001-100.89999999999998-175.20000000000002-151.3-16.799999999999983-14.5-26.099999999999994-32.10000000000002-21-55.30000000000001 5.099999999999994-22.5 18.80000000000001-36.69999999999999 40.5-43.30000000000001 19.200000000000017-5.899999999999977 36.099999999999994-0.19999999999998863 51.00000000000003 12.300000000000011 26.5 22.5 52.69999999999999 45.5 79.39999999999998 67.69999999999999 2.3999999999999773 2.1000000000000227 5.5 3.400000000000034 8.699999999999989 4.5 5.100000000000023 1.8000000000000114 10.699999999999989-0.8000000000000114 12.300000000000011-5.899999999999977 1-3.1999999999999886 1.8000000000000114-6.400000000000034 1.8000000000000114-9.600000000000023 0.19999999999998863-104 0.19999999999998863-208 0.19999999999998863-312v-41.599999999999994c0-38 19.899999999999977-61.89999999999999 51.10000000000002-62.099999999999994 30.799999999999955-0.20000000000000284 53.299999999999955 24.700000000000003 53.39999999999998 61.400000000000006 0.10000000000002274 14.099999999999994 0.10000000000002274 28.19999999999999 0.30000000000001137 42.29999999999998v193.5c0 3.900000000000034 0.30000000000001137 7.800000000000011 0.8000000000000114 11.600000000000023 0.5999999999999659 6.399999999999977 2.7999999999999545 11.800000000000011 4.899999999999977 12.099999999999966 2.1000000000000227 0.30000000000001137 4.800000000000011-3.599999999999966 6-8.599999999999966 0.8000000000000114-3.1000000000000227 1.3999999999999773-6 1.3999999999999773-9.100000000000023 0.30000000000001137-36.69999999999999 0-73.39999999999998 0.20000000000004547-110.19999999999999 0.19999999999998863-28.80000000000001 17.699999999999932-49.099999999999994 43.10000000000002-50.400000000000006 25-1.1999999999999886 45.69999999999993 15.700000000000017 47.299999999999955 44 2.3999999999999773 40.400000000000006 1.2000000000000455 80.9 1.7999999999999545 121.50000000000003 0 3.8999999999999773 0.3000000000000682 7.7999999999999545 0.7000000000000455 11.699999999999989 0.2999999999999545 2.3999999999999773 0.7000000000000455 4.699999999999989 1.2000000000000455 6.699999999999989 1 3.6000000000000227 5.7999999999999545 5 7.2999999999999545 2.3999999999999773 0.8999999999999773-1.3999999999999773 1.7000000000000455-3.099999999999966 2.2000000000000455-4.899999999999977 1-3.1000000000000227 1.6999999999999318-6 1.6999999999999318-9.100000000000023 0.39999999999997726-31.099999999999966 0.20000000000004547-62 0.20000000000004547-93.09999999999997 0.10000000000002274-27.600000000000023 14.5-44.20000000000002 39.60000000000002-45.10000000000002 24.59999999999991-0.8999999999999773 46 19.19999999999999 46.5 45.19999999999999 0.599999999999909 43 0 86.10000000000002 0.2999999999999545 129.10000000000002 0 3.1999999999999886 0.6000000000000227 6.5 1.3999999999999773 9.699999999999989 1.2000000000000455 5.199999999999989 3.800000000000068 9.5 5.7000000000000455 9.400000000000034 1.8999999999999773-0.10000000000002274 4.199999999999932-4.400000000000034 5-9.5 0.5-3.1000000000000227 0.8999999999999773-6.300000000000011 0.8999999999999773-9.400000000000034 0.2999999999999545-30.399999999999977 0-60.80000000000001 0.20000000000004547-91.30000000000001 0.1999999999999318-24.099999999999966 12.899999999999977-39.099999999999966 36.39999999999998-43.099999999999966 19.399999999999977-3.3000000000000114 41.39999999999998 9.199999999999989 47.89999999999998 29 3.1000000000000227 9.399999999999977 4.2999999999999545 19.80000000000001 4.2999999999999545 29.69999999999999 0.40000000000009095 91.89999999999998 0.40000000000009095 183.60000000000002 0.10000000000002274 275.5 0 32.700000000000045-6.699999999999932 62.700000000000045-28.399999999999977 88.70000000000005z m-304.6 142.5999999999999h255.30000000000007c15 0 27.299999999999955 12.400000000000091 27.299999999999955 27.800000000000068v37.10000000000002c0 15.299999999999955-12.200000000000045 27.799999999999955-27.299999999999955 27.799999999999955h-255.30000000000007c-15 0-27.299999999999955-12.399999999999977-27.299999999999955-27.799999999999955v-37.10000000000002c0.0999999999999659-15.399999999999977 12.199999999999989-27.800000000000068 27.299999999999955-27.800000000000068z"/>
</svg>
