<svg xmlns="http://www.w3.org/2000/svg" viewBox="0 0 1000 1000" width="1000" height="1000">
<path d="M219.7 202.5c6.400000000000006 0 12.400000000000006 3.0999999999999943 15.700000000000017 7.900000000000006l264.6 264.29999999999995 266.4-266.19999999999993c5.600000000000023-5.5 14.100000000000023-7.300000000000011 21.5-4.300000000000011 7.300000000000068 3 12.200000000000045 10.300000000000011 12.200000000000045 18.200000000000017v280.1c0 5.199999999999989-2.1000000000000227 10.200000000000045-5.800000000000068 13.899999999999977l-280.29999999999995 280.30000000000007-0.8999999999999773 0.7999999999999545h-26.100000000000023l-281.1-281c-3.6999999999999886-3.7000000000000455-5.799999999999983-8.800000000000011-5.799999999999983-13.899999999999977v-281.1c0.30000000000001137-10.599999999999994 9-19 19.599999999999994-19z m-13.799999999999983 18.5l1 1.0999999999999943-1 1.4000000000000057v279.2c0 3.6000000000000227 1.5 7.199999999999989 4.099999999999994 9.800000000000011l279.4 279.29999999999995h21.30000000000001l279.3-279.4c2.6000000000000227-2.599999999999966 4.100000000000023-6.199999999999989 4.100000000000023-9.799999999999955v-280.1c0-5.5-3.3999999999999773-10.699999999999989-8.600000000000023-12.800000000000011-5.2000000000000455-2.0999999999999943-11.200000000000045-0.8999999999999773-15.100000000000023 3l-268.29999999999995 268.2-2.1000000000000227 2.1000000000000227-269-268.9c-2.5999999999999943-3.6000000000000227-6.800000000000011-5.800000000000011-11.300000000000011-5.800000000000011-7.299999999999983 0-13.199999999999989 5.599999999999994-13.799999999999983 12.699999999999989z m27.599999999999994 34.80000000000001l256.7 256.49999999999994c1.1999999999999886 1.2000000000000455 2.6000000000000227 2.1000000000000227 4.300000000000011 2.900000000000091h0.6999999999999886l0.4000000000000341 0.39999999999997726c1.3999999999999773 0.39999999999997726 2.6999999999999886 0.8999999999999773 4.699999999999989 0.6999999999999318l2.599999999999966-0.09999999999990905 2.3000000000000114-1c1.8000000000000114-0.8000000000000682 3.3000000000000114-1.8000000000000682 4.400000000000034-2.900000000000091l63.799999999999955-63.89999999999998 4.5 3.8000000000000114-68.5 96.59999999999997-5-3c8.399999999999977-17.299999999999955 7.899999999999977-18.699999999999932 7.400000000000034-20.299999999999955-0.8000000000000114-2.3999999999999773-2.8000000000000114-4.2999999999999545-5.199999999999989-4.7999999999999545h-0.5l-1.900000000000034-0.3000000000000682-2.8000000000000114 1.3999999999999773c-0.7999999999999545 0.40000000000009095-1.5 0.8000000000000682-1.7999999999999545 1.2000000000000455l-13.400000000000034 15.700000000000045c-10.5 12.299999999999955-21.899999999999977 25.59999999999991-32.80000000000001 38.39999999999998l-16 18.699999999999932 38.5-75.69999999999993c1.8000000000000114-3.5 0.4000000000000341-7.800000000000068-3.099999999999966-9.600000000000023-1.1999999999999886-0.6000000000000227-2-1-2.6000000000000227-1-1.3000000000000114 0-3.6999999999999886 1.6999999999999886-7.300000000000011 5.100000000000023l-0.7999999999999545 0.7999999999999545c-6.2000000000000455 6-16.200000000000045 17.200000000000045-33.700000000000045 37.10000000000002l-15.599999999999966 17.799999999999955 38.30000000000001-74.79999999999995c0.5-1.1000000000000227 0.7999999999999545-2.1999999999999886 0.7999999999999545-3.3000000000000114 0-2.3000000000000114-1.099999999999966-4.5-3.099999999999966-5.800000000000011-2.8000000000000114-2-6.900000000000034-1.599999999999966-9.300000000000011 0.9000000000000341l-59.30000000000001 62.900000000000034 9.699999999999989-18.700000000000045c7.300000000000011-14 14.400000000000034-27.69999999999999 19.700000000000045-37.69999999999999 15-28.69999999999999 14.899999999999977-28.80000000000001 14-31.69999999999999-0.6000000000000227-1.8000000000000114-1.900000000000034-3.3000000000000114-3.6000000000000227-4.2000000000000455-1.3000000000000114-0.6999999999999886-2.3000000000000114-1.1999999999999886-3-1.1999999999999886-1.3000000000000114 0-3.6999999999999886 1.8000000000000114-7.100000000000023 5.5l-0.2999999999999545 0.30000000000001137c-3.900000000000034 4.300000000000011-9.5 11.100000000000023-17.600000000000023 21.5l-4.899999999999977-3.1000000000000227 16.69999999999999-32.69999999999999c0.8999999999999773-1.6999999999999886 1-3.599999999999966 0.39999999999997726-5.399999999999977-0.5999999999999659-1.8000000000000114-1.8999999999999773-3.3000000000000114-3.599999999999966-4.199999999999989-1.2000000000000455-0.6000000000000227-1.900000000000034-1-2.6000000000000227-1-1.3999999999999773 0-3.8000000000000114 1.6999999999999886-7.199999999999989 5.099999999999966l-1.400000000000034 0.8000000000000114-0.2999999999999545 0.30000000000001137c-1 1-1.7000000000000455 2.3000000000000114-2.5 4-2.3000000000000114 4.5-5.600000000000023 10.599999999999966-18 18.599999999999966l-4.5 2.8000000000000114v-5.300000000000011l0.2999999999999545-1.1999999999999886c7.7000000000000455-17.5 12.5-27.19999999999999 15.400000000000034-33 2.8000000000000114-5.699999999999989 3.3999999999999773-6.899999999999977 3.099999999999966-7.5-1.1999999999999886-3.599999999999966-2.8999999999999773-4.5-4.399999999999977-4.800000000000011-2.5-0.5999999999999659-5.100000000000023 0.20000000000004547-6.800000000000011 2l-58.5 61.5 9.600000000000023-18.399999999999977c32.19999999999999-61.69999999999999 33.69999999999999-64.89999999999998 32.5-68.60000000000002-0.8000000000000114-2.5-2.8000000000000114-4.2999999999999545-5.400000000000034-4.7999999999999545-2.3999999999999773-0.6000000000000227-5.099999999999966 0.39999999999997726-6.7999999999999545 2.2999999999999545-9.900000000000034 11.5-21.80000000000001 25.30000000000001-33.60000000000002 38.900000000000034l-16.100000000000023 18.599999999999966 11.300000000000011-21.799999999999955c26.5-51.200000000000045 27.19999999999999-54.5 26.19999999999999-57.5-0.6999999999999886-2.3000000000000114-2.6999999999999886-4.100000000000023-5.099999999999966-4.7000000000000455-2.400000000000034-0.5999999999999659-4.900000000000034 0.10000000000002274-6.699999999999989 1.900000000000034-10.5 10.5-23.600000000000023 23.5-36.10000000000002 35.89999999999998l-13.199999999999989 13 8.5-16.5c26-50.30000000000001 26.80000000000001-53.19999999999999 25.80000000000001-56.39999999999998-0.5-1.8000000000000114-1.8000000000000114-3.3000000000000114-3.5-4.100000000000023-1.6000000000000227-0.8999999999999773-3.6000000000000227-1.099999999999966-5.400000000000034-0.39999999999997726l-37.19999999999999 12.199999999999989 3.3000000000000114-6.399999999999977c9.899999999999977-18.80000000000001 12.800000000000011-24.900000000000034 13.300000000000011-27.900000000000034l-7.100000000000023 2.1999999999999886-7.899999999999977-2.5c-3.6000000000000227 7.400000000000034-13.900000000000034 27.200000000000045-20.900000000000034 40.5l-3.8999999999999773 7.5 3.5 3.7000000000000455c1.8999999999999773 2.099999999999966 4.799999999999983 2.8999999999999773 7.299999999999983 2l38.29999999999998-12.5-3.1999999999999886 6.2999999999999545c-11.099999999999966 21.600000000000023-28.69999999999999 55.900000000000034-41.89999999999998 81.20000000000005l-4.100000000000023 7.899999999999977 3.6000000000000227 3.6000000000000227c0.5 0.5999999999999659 1.1999999999999886 1.1999999999999886 1.8999999999999773 1.5 1.1000000000000227 0.5999999999999659 1.8000000000000114 0.8999999999999773 2.4000000000000057 0.8999999999999773 4 0 16.599999999999994-11.800000000000011 43.29999999999998-38.30000000000001l13-12.899999999999977-8.399999999999977 16.30000000000001c-12 23.19999999999999-25.69999999999999 49.69999999999999-36.400000000000006 70.29999999999995-0.799999999999983 1.3000000000000114-0.9000000000000057 3.5-0.4000000000000057 5.300000000000011 0.6000000000000227 1.8000000000000114 1.9000000000000057 3.3000000000000114 3.6000000000000227 4.199999999999989 1.099999999999966 0.6000000000000227 1.8000000000000114 0.9000000000000341 2.3000000000000114 0.9000000000000341 1.2999999999999545 0 3.7999999999999545-1.6999999999999886 7.399999999999977-4.900000000000034l0.8999999999999773-0.8999999999999773c5.900000000000034-5.5 14.800000000000011-15.199999999999989 31.80000000000001-34.69999999999999l16.19999999999999-18.5-11.399999999999977 21.80000000000001c-27 51.799999999999955-27.600000000000023 53.299999999999955-26.5 56.60000000000002 0.8000000000000114 2.3999999999999773 2.8000000000000114 4.199999999999932 5.199999999999989 4.7999999999999545 2.400000000000034 0.7000000000000455 5-0.20000000000004547 6.699999999999989-2l59.30000000000001-62.39999999999998-9.300000000000011 18.099999999999966c-10.599999999999966 20.69999999999999-22.299999999999955 43.19999999999999-31.69999999999999 61.50000000000006l-1.5 3c-1.6999999999999886 3.199999999999932-0.5999999999999659 7.199999999999932 2.400000000000034 9.199999999999932 3 2 7.2999999999999545 1.2000000000000455 9.5-1.6000000000000227 7.2999999999999545-9.199999999999932 15.699999999999989-19.799999999999955 24.399999999999977-30.699999999999932l18-22.5-33.30000000000001 65.89999999999998c-1.8000000000000114 3.5-0.39999999999997726 7.7999999999999545 3.1000000000000227 9.600000000000023 1.3999999999999773 0.6999999999999318 2.3000000000000114 1.1000000000000227 3 1.1000000000000227 1.3000000000000114 0 3.599999999999966-1.7000000000000455 6.899999999999977-5.100000000000023l0.6999999999999886-0.8000000000000682c3.400000000000034-3.699999999999932 8.100000000000023-9.299999999999955 14.800000000000011-17.799999999999955l4.900000000000034 3.1000000000000227c-15.700000000000045 30.600000000000023-15.300000000000011 31.899999999999977-14.5 34.5 0.5999999999999659 1.8999999999999773 1.8999999999999773 3.3999999999999773 3.6999999999999886 4.2999999999999545 2.6999999999999886 1.5 6.300000000000011 0.8000000000000682 8.399999999999977-1.5l57.30000000000001-60.69999999999993-9.199999999999989 18.09999999999991c-30.19999999999999 59.30000000000007-32.900000000000034 65.40000000000009-32.10000000000002 67.90000000000009 0.5 1.7999999999999545 1.8000000000000114 3.2999999999999545 3.5 4.099999999999909 1.3000000000000114 0.7000000000000455 2.1999999999999886 1.1000000000000227 2.8000000000000114 1.1000000000000227 1.3000000000000114 0 3.8000000000000114-1.7999999999999545 7.5-5.5 2.8999999999999773-2.7999999999999545 6.600000000000023-6.899999999999977 12.600000000000023-13.600000000000023 5.5-6.199999999999932 12.5-14.099999999999909 21.399999999999977-24.299999999999955l15.600000000000023-17.899999999999977-38.400000000000034 75.39999999999998c-1.8000000000000114 3.5-0.39999999999997726 7.7999999999999545 3.1999999999999886 9.600000000000023 1.1000000000000227 0.6000000000000227 1.8000000000000114 0.8999999999999773 2.400000000000034 0.8999999999999773 1.3999999999999773 0 3.8999999999999773-1.7000000000000455 8.099999999999966-5.399999999999977 7.100000000000023-6.600000000000023 18.900000000000034-19.800000000000068 43.700000000000045-48.80000000000007l16.399999999999977-19.09999999999991-11.5 22.299999999999955c-12 23.100000000000023-24.69999999999999 47.799999999999955-35.19999999999999 67.79999999999995-1.1000000000000227 1.6000000000000227-1 3.300000000000068-0.6999999999999886 4.400000000000091 0.39999999999997726 1.8999999999999773 1.6999999999999886 3.699999999999932 3.5 4.7999999999999545 3.099999999999966 1.7999999999999545 7.399999999999977 0.8999999999999773 9.5-2l93.89999999999998-132.79999999999995 5 3c-23.5 45.5-53.39999999999998 102.89999999999998-79.89999999999998 153.39999999999998-1 2.6000000000000227-1.2000000000000455 4.2999999999999545-0.7000000000000455 5.7999999999999545 0.6000000000000227 1.8000000000000682 1.900000000000034 3.300000000000068 3.6000000000000227 4.2000000000000455 1.1999999999999886 0.6000000000000227 1.8999999999999773 1 2.5 1 0.8999999999999773 0 2.6999999999999886-0.8999999999999773 6.399999999999977-5.100000000000023l1.5-1.7999999999999545 0.4000000000000341 0.1999999999999318 1.3000000000000114-2.3999999999999773c13.399999999999977-17.299999999999955 41.60000000000002-62.299999999999955 109.69999999999993-171.5l5.100000000000023 2.8999999999999773c-3.1000000000000227 6-6.100000000000023 12-9.199999999999932 17.800000000000068l-17.40000000000009 33.89999999999998c-44.799999999999955 87.60000000000002-63.299999999999955 123.79999999999995-70.59999999999997 139.5l-1.5 2.6000000000000227 0.30000000000001137 0.1999999999999318-1 2.3999999999999773c-1.1999999999999886 2.900000000000091-1.5 4.2000000000000455-1.6000000000000227 4.900000000000091l15.400000000000034 9.5-3.1999999999999886-5.7000000000000455 89.79999999999995-152.29999999999995 5.100000000000023 2.7999999999999545c-58.39999999999998 113.79999999999995-75 148.29999999999995-80.39999999999998 162.20000000000005l0.7999999999999545 0.5-4.599999999999966 5.699999999999932-0.4000000000000341-0.6000000000000227-9.399999999999977 9.400000000000091-265.6-265.40000000000003-0.8999999999999773-0.9000000000000341v-241.09999999999997z m5.900000000000006 87.30000000000001c8.699999999999989-16.600000000000023 15.400000000000006-29.80000000000001 16.19999999999999-31.900000000000034l1.0000000000000284-2.599999999999966 11.299999999999955 3.599999999999966 10.600000000000023-3.3000000000000114-39.099999999999994-39v73.20000000000005z m30.799999999999983-2.6000000000000227l23.5-7.699999999999989c2.900000000000034-0.9000000000000341 6.199999999999989-0.8000000000000114 9 0.39999999999997726l-22.69999999999999-22.69999999999999 0.30000000000001137 1c1.5 5 1.3999999999999773 6.899999999999977-10.100000000000023 29z m22.100000000000023 45.10000000000002c8.199999999999989-8.100000000000023 16.099999999999966-16 23-22.900000000000034 3.1999999999999886-3.1999999999999886 7.899999999999977-4.5 12.199999999999989-3.3999999999999773 0.6999999999999886 0.19999999999998863 1.3000000000000114 0.39999999999997726 1.8999999999999773 0.5999999999999659l-19.899999999999977-19.799999999999955c0.10000000000002274 0.2999999999999545 0.30000000000001137 0.6999999999999886 0.39999999999997726 1.099999999999966 1.7000000000000455 4.800000000000011 2.1000000000000227 6-17.599999999999966 44.400000000000034z m29.099999999999966 22.69999999999999c6.300000000000011-7.199999999999989 12.300000000000011-14.199999999999989 17.700000000000045-20.400000000000034 3.099999999999966-3.599999999999966 8.199999999999989-5.199999999999989 12.399999999999977-4.2999999999999545 0.8000000000000114 0.19999999999998863 1.6000000000000227 0.39999999999997726 2.3999999999999773 0.6999999999999886l-17.399999999999977-17.30000000000001c0.10000000000002274 0.30000000000001137 0.19999999999998863 0.6999999999999886 0.39999999999997726 1 1.400000000000034 4.399999999999977 1.900000000000034 6-15.5 40.30000000000001z m-77.49999999999997-32.60000000000002c-1.5 0-3.0999999999999943-0.30000000000001137-4.5-0.8000000000000114v56.30000000000001c10.900000000000006-21.099999999999966 23.700000000000017-45.80000000000001 33.099999999999994-64.19999999999999l-24.69999999999999 8.100000000000023c-1.3000000000000114 0.39999999999997726-2.6000000000000227 0.5999999999999659-3.9000000000000057 0.5999999999999659z m93.99999999999997 71.30000000000001l29.80000000000001-31.399999999999977c3.1000000000000227-3.3000000000000114 7.900000000000034-4.7000000000000455 12.300000000000011-3.7000000000000455 0.6999999999999886 0.20000000000004547 1.3999999999999773 0.4000000000000341 2.1000000000000227 0.7000000000000455l-21.30000000000001-21.30000000000001 0.39999999999997726 1c1.8000000000000114 5.599999999999966 2 6.199999999999989-23.30000000000001 54.69999999999999z m36.700000000000045 7.899999999999977c4-3.7999999999999545 5.599999999999966-6.899999999999977 7-9.599999999999966 1-1.900000000000034 2-3.6999999999999886 3.2999999999999545-5.100000000000023l1.1000000000000227-1.3999999999999773 2-1.5 0.30000000000001137 0.0999999999999659c6.599999999999966-6.199999999999989 10.899999999999977-5.899999999999977 14.399999999999977-4.199999999999989l-15.099999999999966-15.099999999999966c0.39999999999997726 0.7999999999999545 0.6999999999999886 1.599999999999966 1 2.5 1 3 0.0999999999999659 4.699999999999989-3.5 12-2.1000000000000227 4.399999999999977-5.400000000000034 11.299999999999955-10.5 22.299999999999955z m-131.8 9.300000000000011c-1.3000000000000114 0-2.4000000000000057-0.30000000000001137-3.4000000000000057-0.6999999999999886v31l260.6 260.4 5.100000000000023-5.100000000000023-22.200000000000045-13.799999999999955-0.8999999999999773-0.6000000000000227-0.30000000000001137-1c-0.5999999999999659-1.8999999999999773-0.8000000000000114-3.3999999999999773 0.6999999999999886-7.2999999999999545l-1-0.5 4.5-7.5c6.900000000000034-14.899999999999977 24.200000000000045-48.89999999999998 65.20000000000005-129.10000000000002-42.10000000000002 67.29999999999995-62.10000000000002 98.70000000000005-72.70000000000005 112.29999999999995l-3.8999999999999773 7.2000000000000455-1.5-0.7999999999999545c-3.6000000000000227 3.7999999999999545-6.300000000000011 5.399999999999977-9.199999999999989 5.399999999999977-2.1000000000000227 0-3.8000000000000114-0.8999999999999773-5.199999999999989-1.6000000000000227-3.1000000000000227-1.6000000000000227-5.5-4.2999999999999545-6.5-7.7000000000000455-1.1000000000000227-3.699999999999932-0.20000000000004547-7.099999999999909 0.8999999999999773-9.899999999999977 19.80000000000001-37.69999999999993 41.30000000000001-79 60.700000000000045-116.39999999999998l-70.10000000000002 98.5c-3.8000000000000114 5.2999999999999545-11.700000000000045 7-17.30000000000001 3.5-3.1000000000000227-1.8999999999999773-5.300000000000011-5-6.100000000000023-8.5-0.6999999999999886-3.1000000000000227-0.19999999999998863-6.2999999999999545 1.400000000000034-8.600000000000023 7.099999999999966-13.5 15.299999999999955-29.399999999999977 23.599999999999966-45.5-14.5 16.600000000000023-22.399999999999977 25.300000000000068-27.899999999999977 30.399999999999977l-0.5 0.5c-5.100000000000023 4.7000000000000455-8.300000000000011 6.5-11.5 6.5-2 0-3.6000000000000227-0.7999999999999545-5.100000000000023-1.599999999999909-6.399999999999977-3.300000000000068-8.899999999999977-11.100000000000023-5.699999999999989-17.5l16.899999999999977-33.30000000000007c-2.099999999999966 2.3999999999999773-4.099999999999966 4.7000000000000455-5.899999999999977 6.7000000000000455-6.100000000000023 6.899999999999977-9.899999999999977 10.899999999999977-12.899999999999977 13.799999999999955-5.300000000000011 5.300000000000068-8.400000000000034 7.2000000000000455-11.600000000000023 7.2000000000000455-2.1000000000000227 0-3.6999999999999886-0.8000000000000682-5.5-1.7000000000000455-3.1000000000000227-1.6000000000000227-5.5-4.399999999999977-6.5-7.600000000000023-1.3999999999999773-4.2999999999999545-1.6000000000000227-5.099999999999909 23.30000000000001-54.09999999999991l-29.400000000000034 31.09999999999991c-3.7999999999999545 4.100000000000023-10.399999999999977 5.2000000000000455-15.299999999999955 2.7000000000000455-3.1000000000000227-1.6000000000000227-5.400000000000034-4.2999999999999545-6.600000000000023-7.7000000000000455-1-3.2999999999999545-1.3000000000000114-5.399999999999977 3.1000000000000227-15.199999999999932v0.10000000000002274l-0.6000000000000227-0.20000000000004547c-4 3.8999999999999773-6.800000000000011 5.5-9.699999999999989 5.5-2.1000000000000227 0-3.900000000000034-0.8999999999999773-5.600000000000023-1.7999999999999545-3.099999999999966-1.6000000000000227-5.399999999999977-4.300000000000068-6.399999999999977-7.600000000000023-1.1000000000000227-3.300000000000068-0.8000000000000114-6.800000000000068 0.8000000000000114-9.899999999999977l7.399999999999977-14.600000000000023c-2.1999999999999886 2.699999999999932-4.300000000000011 5.399999999999977-6.300000000000011 7.899999999999977-4.099999999999966 5.100000000000023-11.699999999999989 6.399999999999977-17.19999999999999 2.7999999999999545-5.399999999999977-3.5-7.399999999999977-10.399999999999977-4.800000000000011-16.09999999999991l1.900000000000034-3.7000000000000455c6.7999999999999545-13 14.599999999999966-28.200000000000045 22.399999999999977-43.39999999999998l-31.30000000000001 32.89999999999998c-3.1999999999999886 3.2999999999999545-8.099999999999966 4.7000000000000455-12.300000000000011 3.7000000000000455-4.5-1-8.099999999999966-4.300000000000068-9.5-8.700000000000045-1.599999999999966-5.100000000000023-1.7999999999999545-5.7999999999999545 15.900000000000034-39.89999999999998-7.300000000000011 8.099999999999966-12.199999999999989 13.299999999999955-16 16.799999999999955l-2 3-0.8000000000000114-0.39999999999997726c-4.300000000000011 3.6999999999999886-7.100000000000023 5.100000000000023-9.899999999999977 5.100000000000023-2 0-3.6000000000000227-0.8000000000000114-5.000000000000028-1.6000000000000227-3.0999999999999943-1.6000000000000227-5.400000000000006-4.300000000000011-6.5-7.600000000000023-1.0999999999999943-3.5-0.6999999999999886-7.2999999999999545 0.8000000000000114-10 8.299999999999983-15.799999999999955 18.400000000000006-35.19999999999999 27.99999999999997-53.89999999999998-24.49999999999997 24.19999999999999-29.69999999999999 27.69999999999999-34.599999999999966 27.69999999999999z m162.09999999999997-4.5c0.10000000000002274-0.0999999999999659 0.20000000000004547-0.19999999999998863 0.30000000000001137-0.39999999999997726l1.1999999999999886-2.400000000000034 0.8000000000000114 0.30000000000001137c6.699999999999989-6.899999999999977 10.699999999999989-6.800000000000011 14.699999999999989-4.800000000000011l-12.399999999999977-12.299999999999955c0.19999999999998863 0.39999999999997726 0.30000000000001137 0.7999999999999545 0.39999999999997726 1.099999999999966 1.1000000000000227 3.3000000000000114 0.8000000000000114 6.800000000000011-0.7999999999999545 9.900000000000034l-4.2000000000000455 8.599999999999966z m0.30000000000001137 56.099999999999966l30.400000000000034-32.299999999999955c3.599999999999966-3.8000000000000114 9.599999999999966-5 14.399999999999977-3.1000000000000227l-20.80000000000001-20.799999999999955 0.4000000000000341 1c1.6999999999999886 5.2999999999999545 1.6999999999999886 5.2999999999999545-14.400000000000034 36.19999999999999-2.8999999999999773 5.399999999999977-6.300000000000011 11.899999999999977-10 18.999999999999943z m107.80000000000001 1.6000000000000227c2.1000000000000227 1.6000000000000227 3.7000000000000455 3.800000000000068 4.600000000000023 6.399999999999977 0.2999999999999545 1 0.6000000000000227 1.900000000000091 0.6000000000000227 3l35.19999999999993-49.69999999999993-39.39999999999998 39.39999999999998c-0.39999999999997726 0.2999999999999545-0.7000000000000455 0.6000000000000227-1 0.8999999999999773z m-73.30000000000001 13.899999999999977c8.400000000000034-9.399999999999977 14-15.5 18.19999999999999-19.599999999999966l1.7000000000000455-2.6999999999999886 0.7999999999999545 0.30000000000001137c4.400000000000034-4 7.2000000000000455-5.5 10-5.5 1.6000000000000227 0 2.900000000000034 0.5 4.100000000000023 1.099999999999966l-17.5-17.399999999999977c0.6000000000000227 1.6000000000000227 1 3.1999999999999886 1 4.899999999999977 0 2-0.5 4-1.3999999999999773 5.900000000000034l-16.900000000000034 32.99999999999994z m25.400000000000034 23.5c5.699999999999989-6.699999999999932 11.399999999999977-13.299999999999955 16.799999999999955-19.699999999999932l11.900000000000034-13.899999999999977-0.30000000000001137-0.10000000000002274h-0.8000000000000114l-0.39999999999997726-0.5c-2.400000000000034-1-4.400000000000034-2.3999999999999773-6.100000000000023-4.100000000000023l-4.399999999999977-4.399999999999977c1.3999999999999773 3.3999999999999773 1.3999999999999773 7.2999999999999545-0.4000000000000341 10.899999999999977l-16.299999999999955 31.799999999999955z m40.799999999999955 180.9000000000001l3.8000000000000114 6.7999999999999545c4.599999999999966-10.799999999999955 14.199999999999989-31.100000000000023 36.00000000000006-74.39999999999998l-39.80000000000007 67.60000000000002z m257.80000000000007-477.20000000000005l-106.60000000000002 181.10000000000002-5.100000000000023-2.8000000000000114c27.899999999999977-54.60000000000002 40-78.90000000000003 44.799999999999955-89.69999999999999 1.6000000000000227-3.8000000000000114 2.5-6.2000000000000455 2.5-7.300000000000011 0-0.19999999999998863 0-0.30000000000001137-0.1999999999999318-0.6999999999999886-0.6000000000000227-1.8000000000000114-1.8999999999999773-3.3000000000000114-3.5-4.100000000000023l-1.8000000000000682-0.8000000000000114-4.099999999999909-1.599999999999966 74-74.10000000000002z m-64 72.30000000000001c2.2999999999999545 1.599999999999966 4 4 4.7999999999999545 6.599999999999966 0.20000000000004547 0.6000000000000227 0.39999999999997726 1.400000000000034 0.39999999999997726 2.5 0 1.7000000000000455-0.5 4-3 9.600000000000023-1.1999999999999318 2.6999999999999886-2.7999999999999545 6.100000000000023-4.899999999999977 10.600000000000023l38.200000000000045-64.90000000000003-35.5 35.60000000000002z m66.79999999999995-47.19999999999999v29.799999999999955l-2.2000000000000455 5c-9.199999999999932 12.400000000000034-25.09999999999991 38.60000000000002-62.89999999999998 103.80000000000001l-5.100000000000023-2.8000000000000114c20.300000000000068-39.299999999999955 38.10000000000002-73.59999999999997 50.30000000000007-96.89999999999998 6.100000000000023-11.699999999999989 10.699999999999932-20.69999999999999 14.5-28l5.399999999999977-10.899999999999977z m-18 47.5c4.5-7.100000000000023 7.899999999999977-12.100000000000023 10.700000000000045-15.900000000000034l1.2999999999999545-2.599999999999966v-4.800000000000011c-2.6000000000000227 5.099999999999966-5.600000000000023 10.699999999999989-9 17.30000000000001-0.8999999999999773 1.8999999999999773-1.8999999999999773 3.8999999999999773-3 6z m18 14.399999999999977v40.19999999999999l-0.2999999999999545 1.1999999999999886c-0.20000000000004547 0.5-0.7000000000000455 1.5-1.7000000000000455 3.3000000000000114-5.2000000000000455 7.300000000000011-12.799999999999955 19.400000000000034-25.399999999999977 39.60000000000002l-49.60000000000002 79.5-5.100000000000023-2.900000000000034 82.10000000000002-160.89999999999998z m-46.10000000000002 103.19999999999999l13.800000000000068-22.099999999999966c12.599999999999909-20.200000000000045 20.299999999999955-32.400000000000034 25.399999999999977-39.5l1.1000000000000227-2.1000000000000227v-15.199999999999989l-40.30000000000007 78.89999999999998z m-51-95.89999999999998l4.5 3.6999999999999886c-15.100000000000023 22.19999999999999-40.60000000000002 63-92.10000000000002 145.7l-5.099999999999909-2.8999999999999773c15.199999999999932-30.19999999999999 24.399999999999977-49.30000000000001 28.799999999999955-59.900000000000034l0.8999999999999773-2.5c1.8999999999999773-5.2999999999999545 1.7000000000000455-6.099999999999966 1.3999999999999773-6.899999999999977-0.599999999999909-1.8999999999999773-1.8999999999999773-3.3999999999999773-3.8999999999999773-4.100000000000023l-6.399999999999977-1.2999999999999545 71.89999999999998-71.80000000000001z m-60.60000000000002 68.89999999999998c2.2000000000000455 1.6000000000000227 3.900000000000091 3.900000000000034 4.7000000000000455 6.600000000000023 0.5 1.599999999999966 0.7999999999999545 3.099999999999966-0.10000000000002274 6.599999999999966h1.1000000000000227l-2.5 4.400000000000034c-1.1000000000000227 2.8999999999999773-2.7000000000000455 6.800000000000011-5 11.699999999999989 20.5-32.80000000000001 35.200000000000045-56.39999999999998 46.39999999999998-73.69999999999999l-44.60000000000002 44.39999999999998z m157.70000000000005-3.8999999999999773v30.899999999999977l-3.6000000000000227 5.400000000000034c-11.299999999999955 16.799999999999955-23.799999999999955 35.5-36.5 54.19999999999999l-5-3 18.399999999999977-35.69999999999999c8.800000000000068-17 15.700000000000045-30.30000000000001 21.100000000000023-41l5.600000000000023-10.800000000000011z m-16.799999999999955 45.30000000000001c2.7999999999999545-4.2000000000000455 5.599999999999909-8.300000000000011 8.299999999999955-12.300000000000011l2.6000000000000227-3.900000000000034v-4.899999999999977c-3.2000000000000455 6.199999999999989-6.800000000000068 13.199999999999989-10.899999999999977 21.100000000000023z m16.799999999999955 17.099999999999966v16.69999999999999l-16.899999999999977 16.800000000000068 9.100000000000023-17.800000000000068c0.7999999999999545-1.3999999999999773 1.5-2.8999999999999773 2.199999999999932-4.2999999999999545l5.600000000000023-11.400000000000034z m-115.29999999999995 117.50000000000006l5.099999999999909 2.7999999999999545-6.199999999999932 12.399999999999977-22.899999999999977 23 13.699999999999932-21.799999999999955c3.5-5.399999999999977 6.899999999999977-10.800000000000068 10.300000000000068-16.399999999999977z m-45.700000000000045 19.5l5.100000000000023 2.7999999999999545-33.80000000000007 66.29999999999995-25.799999999999955 25.90000000000009 10.899999999999977-19c14.200000000000045-24.800000000000068 28.800000000000068-50.40000000000009 43.60000000000002-76z"/>
</svg>
