<svg xmlns="http://www.w3.org/2000/svg" viewBox="0 0 1000 1000" width="1000" height="1000">
<path d="M477.5 431.7c6.199999999999989 6.199999999999989 14.399999999999977 9.300000000000011 22.5 9.300000000000011s16.299999999999955-3.1000000000000227 22.5-9.300000000000011l163.29999999999995-163.3c12.400000000000091-12.399999999999977 12.400000000000091-32.599999999999966 0.10000000000002274-45.099999999999966l-14-14c-12.5-12.400000000000006-32.69999999999993-12.400000000000006-45.10000000000002 0l-104.19999999999993 104.19999999999999c-6.2000000000000455 6.199999999999989-14.400000000000034 9.300000000000011-22.5 9.300000000000011s-16.30000000000001-3.1000000000000227-22.5-9.300000000000011l-104.20000000000005-104.19999999999999c-12.5-12.400000000000006-32.69999999999999-12.400000000000006-45.099999999999966 0l-14 14c-12.400000000000034 12.5-12.400000000000034 32.69999999999999 0 45.099999999999966l163.2 163.3z m45 136.59999999999997c-6.2000000000000455-6.199999999999932-14.399999999999977-9.299999999999955-22.5-9.299999999999955s-16.30000000000001 3.1000000000000227-22.5 9.299999999999955l-163.3 163.30000000000007c-12.399999999999977 12.399999999999977-12.399999999999977 32.60000000000002 0 45.10000000000002l14 14c12.400000000000034 12.399999999999977 32.60000000000002 12.399999999999977 45.10000000000002 0l104.19999999999999-104.20000000000005c6.199999999999989-6.2000000000000455 14.399999999999977-9.299999999999955 22.5-9.299999999999955s16.299999999999955 3.099999999999909 22.5 9.299999999999955l104.20000000000005 104.20000000000005c12.399999999999977 12.399999999999977 32.59999999999991 12.399999999999977 45.09999999999991 0l14-14c12.300000000000068-12.5 12.300000000000068-32.700000000000045-0.09999999999990905-45.10000000000002l-163.20000000000005-163.30000000000007z"/>
</svg>
