<svg xmlns="http://www.w3.org/2000/svg" viewBox="0 0 1000 1000" width="1000" height="1000">
<path d="M0 500c0 150.60000000000002 122.2 272.70000000000005 272.8 272.70000000000005h454.49999999999994c150.60000000000002 0 272.80000000000007-122 272.80000000000007-272.70000000000005s-122.39999999999998-272.7-273-272.7h-454.3c-150.60000000000002 0-272.8 122.09999999999997-272.8 272.7z m727.1-236.3c130.29999999999995 0 236.29999999999995 106 236.29999999999995 236.3s-106 236.29999999999995-236.29999999999995 236.29999999999995h-454.3c-130.3 0-236.3-106-236.3-236.29999999999995s106-236.3 236.3-236.3h454.3z m4.7999999999999545 239c0.8000000000000682-0.8000000000000114 1.1000000000000227-1.6999999999999886 1.1000000000000227-2.6999999999999886s-0.2999999999999545-1.8999999999999773-1.1000000000000227-2.6999999999999886l-54.19999999999993-54.19999999999999c-1.5-1.5-4-1.5-5.5 0s-1.5 4 0 5.5l51.39999999999998 51.39999999999998-51.39999999999998 51.39999999999998c-1.5 1.5-1.5 4 0 5.5s4 1.5 5.5 0l54.19999999999993-54.19999999999999z m23.300000000000068-114.89999999999998l112.29999999999995 112.30000000000001-112.29999999999995 112.29999999999995c-3.300000000000068 3.300000000000068-3.300000000000068 8.700000000000045 0 12 3.2999999999999545 3.300000000000068 8.699999999999932 3.300000000000068 12 0l118.29999999999995-118.29999999999995c1.6000000000000227-1.6000000000000227 2.5-3.8000000000000114 2.5-5.900000000000034 0-2.1999999999999886-0.7999999999999545-4.300000000000011-2.5-5.899999999999977l-118.29999999999995-118.40000000000003c-3.300000000000068-3.2999999999999545-8.700000000000045-3.2999999999999545-12 0-3.300000000000068 3.2000000000000455-3.300000000000068 8.600000000000023 0 11.900000000000034z"/>
</svg>
