<svg xmlns="http://www.w3.org/2000/svg" viewBox="0 0 1000 1000" width="1000" height="1000">
<path d="M777.5 800h-280.1c-5.199999999999989 0-10.199999999999989-2.1000000000000227-13.899999999999977-5.7999999999999545l-281-281.1v-26.200000000000045l0.8000000000000114-0.7999999999999545 280.09999999999997-280.3c3.7000000000000455-3.700000000000017 8.800000000000011-5.800000000000011 13.900000000000034-5.800000000000011h280.99999999999994c10.600000000000023 0.30000000000001137 19.200000000000045 9 19.200000000000045 19.69999999999999 0 6.400000000000006-3.1000000000000227 12.400000000000006-8.299999999999955 16.100000000000023l-263.9000000000001 264.2 266.20000000000005 266.4c5.600000000000023 5.600000000000023 7.2999999999999545 14 4.2999999999999545 21.399999999999977-3.099999999999909 7.300000000000068-10.399999999999977 12.200000000000045-18.299999999999955 12.200000000000045z m-569.2-289.3l279.30000000000007 279.3c2.599999999999966 2.6000000000000227 6.199999999999989 4.100000000000023 9.799999999999955 4.100000000000023h280.1c5.5 0 10.700000000000045-3.3999999999999773 12.799999999999955-8.5 2.1000000000000227-5.2000000000000455 1-11.100000000000023-3-15.100000000000023l-270.29999999999995-270.5 2-2 266.4-266.6c4-2.8999999999999773 6.2000000000000455-7.099999999999966 6.2000000000000455-11.599999999999966 0-7.400000000000006-5.800000000000068-13.400000000000006-13.100000000000023-13.800000000000011l-1.7000000000000455 0.09999999999999432-0.09999999999990905-0.09999999999999432h-279.30000000000007c-3.599999999999966 0-7.199999999999989 1.5-9.799999999999955 4.099999999999994l-279.3 279.29999999999995v21.30000000000001z m508.1 255.8l-31-0.2999999999999545-3.199999999999932-1.6000000000000227c-12.800000000000068-9.5-39.10000000000002-25.399999999999977-104.30000000000007-63.200000000000045l2.800000000000068-5.199999999999932c39.299999999999955 20.299999999999955 73.59999999999991 38.09999999999991 97 50.299999999999955 11.699999999999932 6.100000000000023 20.59999999999991 10.700000000000045 28 14.5l10.699999999999932 5.5z m-29-5.899999999999977h4.899999999999977c-5-2.6000000000000227-10.699999999999932-5.600000000000023-17.299999999999955-8.899999999999977-1.8999999999999773-1-4-2-6.100000000000023-3.2000000000000455 7.300000000000068 4.600000000000023 12.399999999999977 8.200000000000045 16.300000000000068 11l2.199999999999932 1.1000000000000227z m-32.799999999999955 5.899999999999977l-41.39999999999998-0.2999999999999545c-0.7000000000000455-0.3000000000000682-1.6000000000000227-0.8000000000000682-3-1.5-7.900000000000091-5.600000000000023-20.800000000000068-13.600000000000023-42.10000000000002-27l-77.30000000000001-48.200000000000045 2.8999999999999773-5.100000000000023 160.90000000000003 82.10000000000002z m-39.60000000000002-5.899999999999977h15.200000000000045l-79-40.200000000000045 19.799999999999955 12.399999999999977c21.399999999999977 13.400000000000091 34.39999999999998 21.5 42.10000000000002 27 0.7999999999999545 0.3000000000000682 1.3999999999999773 0.6000000000000227 1.8999999999999773 0.8000000000000682z m-32.700000000000045 5.899999999999977h-30.899999999999977l-0.6999999999999318-0.5c-18.100000000000023-12.100000000000023-38.30000000000007-25.799999999999955-58.80000000000007-39.60000000000002l3-5 42.5 22c13.800000000000068 7.2000000000000455 25 13 34.10000000000002 17.600000000000023l10.799999999999955 5.5z m-29.09999999999991-5.899999999999977h4.899999999999977c-6.2000000000000455-3.2000000000000455-13.300000000000068-6.800000000000068-21.100000000000023-10.899999999999977 5.5 3.699999999999932 10.899999999999977 7.399999999999977 16.200000000000045 10.899999999999977z m-33.200000000000045 5.899999999999977h-16.899999999999977l-17.100000000000023-17.200000000000045 16.69999999999999 8.700000000000045c2.1999999999999886 1.1000000000000227 4 2.1000000000000227 5.600000000000023 2.8999999999999773l11.699999999999989 5.600000000000023z m221.39999999999998-2.7999999999999545l-181-106.70000000000005 2.800000000000068-5.100000000000023c54.799999999999955 28 79.09999999999991 40.10000000000002 89.69999999999993 44.80000000000007 3.800000000000068 1.599999999999909 6.2000000000000455 2.5 7.300000000000068 2.5l0.7999999999999545-0.20000000000004547c1.7000000000000455-0.5 3.2000000000000455-1.8999999999999773 4.100000000000023-3.5 0.1999999999999318-0.5 0.39999999999997726-1 0.6999999999999318-1.5l1.6000000000000227-4.2000000000000455 3.2000000000000455 3 70.79999999999995 70.90000000000009z m-101.39999999999998-66.5l64.79999999999995 38.19999999999993-35.5-35.60000000000002c-1.599999999999909 2.2000000000000455-4 4-6.599999999999909 4.800000000000068-2 0.6000000000000227-3.1000000000000227 1.3999999999999773-12.100000000000023-2.5-2.7000000000000455-1.2000000000000455-6.100000000000023-2.800000000000068-10.600000000000023-4.899999999999977z m3.5-23.300000000000068c-22.700000000000045-15.5-66.39999999999998-42.69999999999993-145.7-92.10000000000002l2.8999999999999773-5.099999999999909c33.00000000000006 16.699999999999932 52.80000000000001 26.09999999999991 62.19999999999999 29.59999999999991l0.20000000000004547 0.10000000000002274c2.8999999999999773 1.1000000000000227 4.899999999999977 1.6000000000000227 5.899999999999977 1.6000000000000227 0.39999999999997726 0 0.5-0.10000000000002274 1-0.20000000000004547 1.7999999999999545-0.599999999999909 3.3999999999999773-1.8999999999999773 4.2999999999999545-3.599999999999909-0.09999999999990905-0.3000000000000682-0.1999999999999318-1 0-1.7000000000000455l1.3000000000000682-5 71.69999999999993 71.79999999999995-3.7999999999999545 4.600000000000023z m-94.29999999999995-66.89999999999998c32 20 55.89999999999998 35 73.59999999999991 46.39999999999998l-44.5-44.60000000000002c-1.599999999999909 2.2000000000000455-4 3.900000000000091-6.599999999999909 4.7000000000000455-1.2000000000000455 0.39999999999997726-3.2000000000000455 0.7999999999999545-6.800000000000068-0.20000000000004547v2.2000000000000455l-4.600000000000023-3.7000000000000455c-2.7999999999999545-1.099999999999909-6.399999999999977-2.699999999999932-11.099999999999909-4.7999999999999545z m-149.70000000000005 49.299999999999955l-13.100000000000023-6.699999999999932-22.5-22.399999999999977 22 13.799999999999955c5.5 3.3999999999999773 10.900000000000034 6.7999999999999545 16.5 10.299999999999955l-2.8999999999999773 5z m-19.399999999999977-45.69999999999993l-67-34.30000000000007-25.30000000000001-25.299999999999955 19 10.899999999999977c24.80000000000001 14.200000000000045 50.39999999999998 28.899999999999977 76 43.60000000000002l-2.6999999999999886 5.100000000000023z m33.799999999999955-16.5c-113.69999999999999-58.30000000000007-148.29999999999995-74.89999999999998-162.2-80.39999999999998l-0.5 0.7999999999999545-2.299999999999983-2.2999999999999545-3.200000000000017-2.7000000000000455 0.4000000000000057-0.19999999999998863-9.199999999999989-9.199999999999989 2-2 264.29999999999995-264.40000000000003h241.0000000000001l-5 5-251.60000000000002 251.5c-1.2000000000000455 1.1999999999999886-2.1000000000000227 2.6000000000000227-2.900000000000034 4.300000000000011v0.39999999999997726l-0.5 0.8000000000000114c-0.30000000000001137 1-0.5999999999999659 2.900000000000034-0.5999999999999659 4.699999999999989l0.0999999999999659 2.6000000000000227 1 2.3000000000000114c0.8000000000000114 1.8000000000000114 1.6999999999999886 3.1999999999999886 2.900000000000034 4.5l63.799999999999955 63.80000000000001-3.7999999999999545 4.399999999999977-96.60000000000002-68.30000000000001 2.8999999999999773-5c11.200000000000045 5.400000000000034 16.900000000000034 7.699999999999989 19 7.699999999999989 0.4000000000000341 0 0.7000000000000455-0.10000000000002274 1.3000000000000114-0.2999999999999545 2.3000000000000114-0.8000000000000114 4.100000000000023-2.6000000000000227 4.699999999999989-4.900000000000034v-0.19999999999998863l0.4000000000000341-2.5-1.400000000000034-2.8000000000000114c-0.39999999999997726-0.8000000000000114-0.6999999999999886-1.3999999999999773-1.099999999999966-1.8000000000000114l-13.600000000000023-11.599999999999966c-12.800000000000011-10.900000000000034-27-23-40.599999999999966-34.69999999999999l-18.600000000000023-16 75.60000000000002 38.5c3.3999999999999773 1.6999999999999886 7.899999999999977 0.2999999999999545 9.599999999999966-3.1000000000000227 1.400000000000034-2.8999999999999773 1.8000000000000114-3.6999999999999886-4.099999999999966-9.800000000000011l-1-1.099999999999966c-6.100000000000023-6.300000000000011-17.30000000000001-16.200000000000045-36.80000000000001-33.400000000000034l-17.80000000000001-15.599999999999966 74.89999999999998 38.19999999999999c3.3000000000000114 1.6999999999999886 7.100000000000023 0.5999999999999659 9.100000000000023-2.1999999999999886 2.1000000000000227-2.900000000000034 1.7000000000000455-6.800000000000011-1-9.300000000000011l-62.89999999999998-59.30000000000001 18.69999999999999 9.699999999999989c14 7.300000000000011 27.69999999999999 14.5 37.69999999999999 19.69999999999999 20.700000000000045 10.700000000000045 27.700000000000045 14.400000000000034 30.100000000000023 14.400000000000034 0.39999999999997726 0 0.7999999999999545-0.10000000000002274 1.6999999999999318-0.4000000000000341 1.8000000000000682-0.5999999999999659 3.300000000000068-1.8999999999999773 4.100000000000023-3.5 1.7000000000000455-3.3999999999999773 2.1000000000000227-4.099999999999966-4.2999999999999545-10.099999999999966l-1.3999999999999773-1.3000000000000114c-4.400000000000091-4-10.900000000000091-9.199999999999989-20.40000000000009-16.600000000000023l3.1000000000000227-4.899999999999977 32.700000000000045 16.69999999999999c3.3999999999999773 1.6999999999999886 7.899999999999977 0.30000000000001137 9.699999999999932-3.1999999999999886 1.3000000000000682-2.6000000000000227 1.900000000000091-3.6999999999999886-4.099999999999909-9.800000000000011l-1.3000000000000682-1.3999999999999773 0.20000000000004547-0.4000000000000341c-1.1000000000000227-1-2.3999999999999773-1.6999999999999886-4-2.5-4.5-2.2999999999999545-10.600000000000023-5.599999999999966-18.600000000000023-17.899999999999977l-2.8999999999999773-4.5 6.600000000000023 0.19999999999998863c17.5 7.699999999999989 27.199999999999932 12.5 32.89999999999998 15.400000000000034 4 2 6.5 3.1999999999999886 7.2999999999999545 3.1999999999999886 4-1.3000000000000114 4.800000000000068-3.1000000000000227 5.100000000000023-4.400000000000034 0.5-2.5-0.20000000000004547-5-2-6.7999999999999545l-61.5-58.5 18.399999999999977 9.699999999999989c51 26.599999999999966 63.200000000000045 32.89999999999998 67 32.89999999999998 0.5 0 0.8000000000000682-0.0999999999999659 1.7000000000000455-0.39999999999997726 2.3999999999999773-0.8000000000000114 4.2999999999999545-2.900000000000034 4.699999999999932-5.300000000000011 0.5-2.6000000000000227-0.2999999999999545-5.199999999999989-2.2999999999999545-6.800000000000011-11.5-9.899999999999977-25.299999999999955-21.80000000000001-38.89999999999998-33.599999999999966l-18.600000000000023-16.30000000000001 21.799999999999955 11.300000000000011c39.30000000000007 20.299999999999955 52.40000000000009 26.5 56 26.5 0.5 0 0.8000000000000682-0.10000000000002274 1.400000000000091-0.30000000000001137 2.3999999999999773-0.6999999999999886 4.199999999999932-2.6999999999999886 4.699999999999932-5.100000000000023 0.5-2.3999999999999773-0.10000000000002274-5-1.8999999999999773-6.800000000000011-10.5-10.5-23.5-23.599999999999966-35.89999999999998-36.099999999999966l-13-13.100000000000023 16.399999999999977 8.5c40.60000000000002 21 51.39999999999998 26.19999999999999 54.799999999999955 26.19999999999999 0.5 0 0.8000000000000682-0.0999999999999659 1.5-0.39999999999997726 1.8000000000000682-0.6000000000000227 3.400000000000091-1.8999999999999773 4.2000000000000455-3.5 0.8999999999999773-1.6999999999999886 1.1000000000000227-3.6999999999999886 0.5-5.5l-12.200000000000045-37.19999999999999 6.400000000000091 3.3999999999999773c17.899999999999977 9.400000000000034 24.799999999999955 12.800000000000011 28 13.300000000000011l-2.300000000000068-7.100000000000023 2.6000000000000227-8c-6.7999999999999545-3.2999999999999545-24.600000000000023-12.499999999999972-40.5-20.899999999999977l-7.5-4-3.7000000000000455 3.5c-2 2-2.8999999999999773 4.800000000000011-2 7.300000000000011l12.5 38.30000000000001-6.2999999999999545-3.2000000000000455c-21.600000000000023-11.099999999999966-55.89999999999998-28.69999999999999-81.20000000000005-41.89999999999998l-7.899999999999977-4.099999999999994-3.6000000000000227 3.5999999999999943c-0.599999999999909 0.5999999999999943-1.1999999999999318 1.1999999999999886-1.5 1.8000000000000114-2 4-2.699999999999932 5.299999999999983 37.40000000000009 45.80000000000001l12.899999999999977 13.099999999999966-16.300000000000068-8.399999999999977c-23.299999999999955-12-49.69999999999993-25.69999999999999-70.09999999999997-36.400000000000006-1.599999999999966-0.9000000000000057-3.6999999999999886-1-5.5-0.4000000000000057-1.8000000000000114 0.5999999999999943-3.3000000000000114 1.9000000000000057-4.199999999999989 3.5-1.3000000000000114 2.5-1.6999999999999886 3.3999999999999773 4 9.800000000000011l0.8999999999999773 1c5.5 5.800000000000011 15.200000000000045 14.800000000000011 34.700000000000045 31.899999999999977l18.5 16.19999999999999-21.800000000000068-11.399999999999977c-39.99999999999994-20.899999999999977-51.599999999999966-26.899999999999977-54.99999999999994-26.899999999999977-0.5 0-0.8000000000000114 0.0999999999999659-1.6000000000000227 0.39999999999997726-2.3999999999999773 0.8000000000000114-4.199999999999989 2.8000000000000114-4.699999999999989 5.199999999999989-0.6000000000000227 2.5 0.19999999999998863 5 2 6.800000000000011l62.39999999999998 59.30000000000001-17.899999999999977-9.300000000000011c-21.5-11.100000000000023-45.10000000000002-23.30000000000001-63.80000000000001-32.89999999999998l-0.6999999999999886-0.30000000000001137c-3.1999999999999886-1.6000000000000227-7.300000000000011-0.5-9.199999999999989 2.5-1.900000000000034 3.099999999999966-1.3000000000000114 7.199999999999989 1.599999999999966 9.5l53.30000000000001 42.39999999999998-66.19999999999999-34.099999999999966c-3.3999999999999773-1.8000000000000114-7.899999999999977-0.30000000000001137-9.699999999999989 3.099999999999966-1.6000000000000227 3.1999999999999886-2 4 4 9.800000000000011l1.099999999999966 1.1000000000000227c4.100000000000023 3.6999999999999886 9.400000000000034 8 17.5 14.5l-3.1999999999999886 4.899999999999977c-21.69999999999999-11.100000000000023-29.899999999999977-14.899999999999977-32.80000000000001-14.899999999999977-0.5 0-0.7999999999999545 0.0999999999999659-1.6999999999999886 0.39999999999997726-1.8999999999999773 0.6999999999999886-3.3999999999999773 1.8999999999999773-4.199999999999989 3.6999999999999886-1.3999999999999773 2.8000000000000114-0.8000000000000114 6.199999999999989 1.3999999999999773 8.400000000000034l60.80000000000001 57.19999999999999-18.19999999999999-9.199999999999989c-48.39999999999998-24.600000000000023-64-32.30000000000001-67-32.30000000000001l-0.8000000000000114 0.19999999999998863c-1.8000000000000114 0.6000000000000227-3.3999999999999773 1.8999999999999773-4.199999999999989 3.5-1.6000000000000227 3.1000000000000227-2 3.8000000000000114 4.399999999999977 10.300000000000011 2.900000000000034 2.8999999999999773 6.800000000000011 6.5 13.600000000000023 12.599999999999966 6.199999999999989 5.5 14.100000000000023 12.5 24.30000000000001 21.400000000000034l17.899999999999977 15.599999999999966-75.19999999999999-38.5c-3.3999999999999773-1.7999999999999545-7.899999999999977-0.2999999999999545-9.600000000000023 3.1000000000000227-1.2999999999999545 2.6000000000000227-1.7999999999999545 3.6000000000000227 4.100000000000023 10l0.5 0.6000000000000227c6.5 7 19.69999999999999 18.799999999999955 48.69999999999999 43.599999999999966l19.100000000000023 16.30000000000001-22.30000000000001-11.5c-23.19999999999999-11.800000000000011-47.89999999999998-24.600000000000023-67.60000000000002-34.89999999999998-3.6999999999999886-2.3000000000000114-7.399999999999977-0.6000000000000227-9.399999999999977 2.599999999999966-1.8999999999999773 3.1999999999999886-1.1000000000000227 7.300000000000011 2 9.5l132.8 94.30000000000001-3 5c-49.10000000000002-25.399999999999977-106.60000000000002-55.30000000000001-153.7-80-2.2000000000000455-0.8000000000000114-3.900000000000034-1-5.5-0.5-1.7000000000000455 0.5-3.2000000000000455 1.8999999999999773-4.100000000000023 3.6000000000000227-1.3999999999999773 2.6999999999999886-1.8999999999999773 3.6999999999999886 4.100000000000023 8.899999999999977l1.6999999999999886 1.5-0.19999999999998863 0.39999999999997726 2 1.1000000000000227c17.599999999999966 13.699999999999989 62.599999999999966 41.89999999999998 171.79999999999995 109.89999999999998l-2.8999999999999773 5.100000000000023c-6-3.1000000000000227-12-6.100000000000023-17.899999999999977-9.200000000000045l-33.400000000000034-17.09999999999991c-87.89999999999998-45-124.30000000000001-63.60000000000002-139.7-70.70000000000005l-2.8000000000000114-1.6000000000000227-0.19999999999998863 0.30000000000001137-2.5-1c-2.8999999999999773-1.1999999999999886-4.300000000000011-1.599999999999966-4.899999999999977-1.599999999999966l-9.400000000000034 15.299999999999955 5.699999999999989-3.1999999999999886 1.400000000000034 0.8000000000000114 150.89999999999998 89-2.8000000000000114 5.100000000000023z m59.30000000000001-75.89999999999998l49.69999999999999 35.19999999999993-39.39999999999998-39.39999999999998c-0.30000000000001137-0.2999999999999545-0.6000000000000227-0.6000000000000227-0.8000000000000114-1-1.599999999999966 2.1000000000000227-3.8000000000000114 3.7000000000000455-6.399999999999977 4.600000000000023-0.8000000000000114 0.1999999999999318-1.6999999999999886 0.5-3.1000000000000227 0.6000000000000227z m-200.09999999999997-36.400000000000034l3 0.8999999999999773 5.199999999999989 3.1000000000000227c14.699999999999989 6.699999999999989 48.69999999999999 24.099999999999966 128.89999999999998 65.09999999999997-67.39999999999998-42.099999999999966-98.80000000000001-62.19999999999999-112.69999999999999-73-0.6999999999999886-0.2999999999999545-1.8999999999999773-1-3.1000000000000227-1.599999999999966l-3.6999999999999886-2 0.8000000000000114-1.400000000000034c-6.399999999999977-6.099999999999966-6.300000000000011-9.5-3.6999999999999886-14.5 1.599999999999966-3.099999999999966 4.300000000000011-5.5 7.599999999999966-6.5 3.1000000000000227-0.8999999999999773 5.800000000000011-0.6999999999999886 9.700000000000045 0.8000000000000114 35.799999999999955 18.80000000000001 77.29999999999995 40.400000000000034 116.69999999999999 60.80000000000001l-98.80000000000001-69.89999999999998c-5.5-4-7.100000000000023-11.5-3.6000000000000227-17.30000000000001 3.6000000000000227-5.900000000000034 11.900000000000034-8.199999999999989 17.400000000000034-4.600000000000023 13.300000000000011 7 29.099999999999966 15.199999999999989 45.19999999999999 23.5-16.600000000000023-14.5-25.30000000000001-22.399999999999977-30.399999999999977-28l-0.5-0.5999999999999659c-7.400000000000034-8-7.5-11.5-4.900000000000034-16.5 3.1999999999999886-6.300000000000011 11.199999999999989-8.900000000000034 17.5-5.800000000000011l33.30000000000001 17c-2.5-2.1999999999999886-4.699999999999989-4.100000000000023-6.699999999999989-5.900000000000034-6.900000000000034-6.199999999999989-10.900000000000034-9.899999999999977-13.900000000000034-12.799999999999955-8.099999999999966-8.200000000000045-8.5-11.300000000000011-5.5-17.100000000000023 1.6000000000000227-3.1000000000000227 4.400000000000034-5.5 7.600000000000023-6.5 0.6000000000000227-0.19999999999998863 1.3999999999999773-0.5 2.6000000000000227-0.5 3.6999999999999886 0 8.799999999999955 2.1000000000000227 51.5 23.69999999999999l-31.100000000000023-29.30000000000001c-4.199999999999989-4-5.300000000000011-10.199999999999989-2.6000000000000227-15.299999999999955 1.5-3.1000000000000227 4.2000000000000455-5.300000000000011 7.600000000000023-6.5 1.1000000000000227-0.4000000000000341 2.1000000000000227-0.7000000000000455 3.5-0.7000000000000455 2.1999999999999886 0 5 0.7000000000000455 11.699999999999989 3.7000000000000455l0.19999999999998863-0.6000000000000227c-6.7999999999999545-7-6.2999999999999545-10.300000000000011-3.6999999999999886-15.300000000000011 3.1999999999999886-6.199999999999989 11.300000000000011-8.899999999999977 17.5-5.599999999999966l14.5 7.399999999999977-7.899999999999977-6.300000000000011c-5.199999999999989-4.199999999999989-6.5-11.599999999999966-2.900000000000034-17.19999999999999 3.5-5.300000000000011 10.5-7.300000000000011 16.200000000000045-4.800000000000011l0.6999999999999886 0.30000000000001137c13.699999999999989 7.100000000000023 30.099999999999966 15.5 46.30000000000001 23.899999999999977l-32.900000000000034-31.299999999999955c-3.3999999999999773-3.3000000000000114-4.699999999999989-7.900000000000034-3.6999999999999886-12.400000000000034 1-4.399999999999977 4.300000000000011-8 8.699999999999989-9.399999999999977 1-0.30000000000001137 2-0.6999999999999886 3.400000000000034-0.6999999999999886 3.8999999999999773 0 8.799999999999955 2.099999999999966 36.5 16.5-8.200000000000045-7.400000000000034-13.400000000000034-12.300000000000011-16.900000000000034-16l-2.099999999999966-1.1000000000000227 0.0999999999999659-1.1000000000000227c-6.899999999999977-7.7999999999999545-6.5-10.899999999999977-4.199999999999989-15.499999999999972 1.6000000000000227-3.0999999999999943 4.300000000000011-5.400000000000006 7.600000000000023-6.400000000000006 3.3999999999999773-1.0999999999999943 7.2999999999999545-0.8000000000000114 10.099999999999966 0.9000000000000057 15.699999999999989 8.200000000000017 35.00000000000006 18.200000000000017 53.80000000000001 27.900000000000006-26.5-27.200000000000017-29-31.80000000000001-26.399999999999977-37.900000000000006h-31l-260.5 260.6 5.099999999999966 5 14.300000000000011-23.19999999999999 1-0.30000000000001137c1.3000000000000114-0.5 3.3999999999999773-0.8000000000000114 7.399999999999977 0.6999999999999886l0.20000000000004547-0.39999999999997726z m-15.600000000000023 27.899999999999977c10.899999999999977 4.599999999999966 31.100000000000023 14.199999999999989 74.19999999999999 35.900000000000034l-67.39999999999998-39.700000000000045-6.800000000000011 3.8000000000000114z m187.7-44.599999999999966c7.5 6.399999999999977 14.900000000000034 12.699999999999989 21.80000000000001 18.69999999999999l11.800000000000011 10 0.0999999999999659-0.19999999999998863v-0.7000000000000455l0.4000000000000341-0.5c1-2.3999999999999773 2.3999999999999773-4.5 4.099999999999966-6.199999999999989l4.300000000000011-4.300000000000011c-3.3000000000000114 1.3000000000000114-7.399999999999977 1.3000000000000114-10.699999999999989-0.5l-31.80000000000001-16.299999999999955z m45.400000000000034-4.600000000000023c5.899999999999977 6.399999999999977 6.399999999999977 9.600000000000023 4.2999999999999545 14.100000000000023l17.5-17.5c-3.3999999999999773 1.3999999999999773-7.2999999999999545 1.2999999999999545-10.799999999999955-0.5l-33-16.900000000000034c9.299999999999955 8.199999999999989 15.5 14 19.599999999999966 18.19999999999999l2.8000000000000114 1.3000000000000114-0.39999999999997726 1.3000000000000114z m-6.300000000000011-55.39999999999998l32.19999999999999 30.399999999999977c4 3.6999999999999886 5.100000000000023 9.5 3.1000000000000227 14.399999999999977l20.799999999999955-20.799999999999955c-0.2999999999999545 0.0999999999999659-0.6000000000000227 0.19999999999998863-1 0.39999999999997726-1 0.30000000000001137-2.1000000000000227 0.6999999999999886-3.3999999999999773 0.6999999999999886-3.7999999999999545 0-8.200000000000045-2.3000000000000114-32.80000000000001-15.099999999999966-5.399999999999977-2.8000000000000114-11.899999999999977-6.2000000000000455-18.899999999999977-10z m58.69999999999999 2.2999999999999545c6.7000000000000455 6.600000000000023 6.7000000000000455 9.900000000000034 4.5 14.5l12.399999999999977-12.399999999999977c-3.3999999999999773 1.3999999999999773-7.600000000000023 1.3000000000000114-11-0.39999999999997726l-8.5-4.300000000000011 0.7000000000000455 0.5999999999999659 2.2999999999999545 1.1000000000000227-0.39999999999997726 0.8999999999999773z m19.600000000000023-19.099999999999966c6.100000000000023 6.5 6.2999999999999545 9.800000000000011 4.199999999999932 14.399999999999977l15-15.099999999999966c-0.6999999999999318 0.39999999999997726-1.599999999999909 0.6999999999999886-2.3999999999999773 1-3.1000000000000227 1-4.399999999999977 0.2999999999999545-12-3.5-4.399999999999977-2.2000000000000455-11.299999999999955-5.600000000000023-22.299999999999955-10.600000000000023 3.7999999999999545 4 6.899999999999977 5.600000000000023 9.5 7 1.8999999999999773 1 3.699999999999932 2 5.399999999999977 3.5l2.8999999999999773 2.3000000000000114-0.2999999999999545 1z m-9.600000000000023-50.400000000000034l31.399999999999977 29.80000000000001c3.300000000000068 3.1000000000000227 4.7000000000000455 7.800000000000011 3.7000000000000455 12.300000000000011-0.20000000000004547 0.6999999999999886-0.39999999999997726 1.3999999999999773-0.7000000000000455 2l21.200000000000045-21.19999999999999c-0.3000000000000682 0.0999999999999659-0.6000000000000227 0.19999999999998863-1 0.39999999999997726-1 0.30000000000001137-2 0.6999999999999886-3.3999999999999773 0.6999999999999886-4.5 0-10.800000000000068-3-51.200000000000045-24z m38.700000000000045-16.5c7.2999999999999545 6.2000000000000455 14.199999999999932 12.300000000000011 20.5 17.600000000000023 3.599999999999909 3.1000000000000227 5.199999999999932 7.899999999999977 4.199999999999932 12.5-0.10000000000002274 0.8000000000000114-0.39999999999997726 1.6000000000000227-0.6999999999999318 2.3000000000000114l17.299999999999955-17.30000000000001c-0.39999999999997726 0.10000000000002274-0.7000000000000455 0.30000000000001137-1 0.39999999999997726-0.7999999999999545 0.30000000000001137-1.7999999999999545 0.6000000000000227-3.2000000000000455 0.6000000000000227-3.8999999999999773 0-10.199999999999932-2.3999999999999773-37.09999999999991-16.100000000000023z m22.699999999999932-29.099999999999966c8.100000000000023 8.199999999999989 16 16.099999999999966 22.899999999999977 23 3.2000000000000455 3.3000000000000114 4.400000000000091 7.899999999999977 3.400000000000091 12.199999999999989-0.20000000000004547 0.6999999999999886-0.40000000000009095 1.3000000000000114-0.6000000000000227 1.8999999999999773l19.799999999999955-19.799999999999955-1.1000000000000227 0.39999999999997726c-0.7999999999999545 0.30000000000001137-1.8999999999999773 0.6000000000000227-3.2999999999999545 0.6000000000000227-4 0-9.200000000000045-1.900000000000034-41.10000000000002-18.30000000000001z m45.10000000000002-22.19999999999999l7.7000000000000455 23.5c1 3 0.7999999999999545 6.099999999999966-0.40000000000009095 9l22.700000000000045-22.700000000000045-1 0.30000000000001137c-1.1000000000000227 0.4000000000000341-2.2999999999999545 0.6999999999999886-3.7000000000000455 0.6999999999999886-3.5 0-8.199999999999932-1.8999999999999773-25.299999999999955-10.799999999999955z m28.200000000000045-2.2000000000000455l3.2999999999999545 10.600000000000023 39-39.099999999999994h-73.10000000000002c16.100000000000023 8.5 29.800000000000068 15.400000000000006 31.899999999999977 16.19999999999999l2.5 1.0000000000000284-3.599999999999909 11.299999999999955z m-118.90000000000009-28.49999999999997c21.100000000000023 10.900000000000006 45.80000000000007 23.599999999999994 64.20000000000005 33.099999999999994l-8.100000000000023-24.69999999999999c-0.8999999999999773-2.700000000000017-0.7999999999999545-5.600000000000023 0.20000000000004547-8.300000000000011 0.10000000000002274-0.09999999999999432-56.30000000000007-0.09999999999999432-56.30000000000007-0.09999999999999432z"/>
</svg>
