<svg xmlns="http://www.w3.org/2000/svg" viewBox="0 0 1000 1000" width="1000" height="1000">
<path d="M771.1 271.1c126.29999999999995 0 228.89999999999998 102.29999999999995 228.89999999999998 228.89999999999998s-102.60000000000002 228.89999999999998-228.89999999999998 228.89999999999998h-381.5c-107.90000000000003 0-198.20000000000002-74.5-222.20000000000002-174.60000000000002h31.799999999999983c23.30000000000001 82.90000000000009 99.80000000000001 144.20000000000005 190.40000000000003 144.20000000000005h381.6c109.39999999999998 0 198.5-89.29999999999995 198.5-198.5s-89.30000000000007-198.5-198.5-198.5h-381.6c-90.60000000000002 0-167.20000000000002 61.39999999999998-190.40000000000003 144.2h-31.799999999999983c24-100.09999999999997 114.29999999999998-174.5 222.20000000000002-174.5l381.5-0.0999999999999659z m-670.8000000000001 205.79999999999995v-67.79999999999995c4.263256414560601e-14-8.900000000000034-4.999999999999957-11-11.299999999999955-4.7000000000000455l-84.3 84.30000000000001c-6.3000000000000025 6.300000000000011-6.3000000000000025 16.5-2.6645352591003757e-15 22.600000000000023l84.2 84.19999999999999c6.299999999999997 6.2999999999999545 11.299999999999997 4.100000000000023 11.299999999999997-4.7000000000000455v-67.79999999999995h255c8.900000000000034 0 16-7.2000000000000455 16-16v-14.199999999999989c0-8.900000000000034-7.199999999999989-16-16-16l-254.89999999999998 0.0999999999999659z m672.6 30.30000000000001c0 8.800000000000011 6.899999999999977 16.000000000000057 15.899999999999977 15.900000000000034h93.90000000000009c9 0 15.899999999999977-7.2000000000000455 15.899999999999977-15.900000000000034v-14.5c0-8.699999999999989-6.899999999999977-15.899999999999977-15.899999999999977-15.899999999999977h-93.80000000000007c-9 0-16 7.199999999999989-16 15.899999999999977v14.5z"/>
</svg>
