<svg xmlns="http://www.w3.org/2000/svg" viewBox="0 0 1000 1000" width="1000" height="1000">
<path d="M775.1 297.7c-7.399999999999977-8.899999999999977-9.100000000000023-23.099999999999966-12.300000000000068-35.19999999999999-5.699999999999932-21.30000000000001-11-42.900000000000006-15.699999999999932-64.5-2.7000000000000455-12.300000000000011-8.399999999999977-17.80000000000001-21.899999999999977-17.80000000000001-86.60000000000002 0.5-173.20000000000005 0.4000000000000057-259.90000000000003 0.10000000000002274-11.900000000000034 0-17.900000000000034 3.8999999999999773-21.19999999999999 16.19999999999999-10.100000000000023 39.19999999999999-21 78.10000000000002-32.900000000000034 116.69999999999999-3.099999999999966 10.100000000000023-9.5 20.69999999999999-17.399999999999977 27.600000000000023-58 50.89999999999998-116.80000000000001 100.89999999999998-175.3 151.3-16.80000000000001 14.5-26.099999999999994 32.10000000000002-21 55.299999999999955 5.099999999999994 22.5 18.80000000000001 36.80000000000007 40.5 43.30000000000007 19.19999999999999 5.899999999999977 36.10000000000002 0.1999999999999318 51-12.300000000000068 26.5-22.5 52.69999999999999-45.5 79.39999999999998-67.69999999999999 2.400000000000034-2.099999999999966 5.5-3.3999999999999773 8.700000000000045-4.599999999999966 5.099999999999966-1.8000000000000114 10.699999999999989 0.7999999999999545 12.299999999999955 5.899999999999977 1.1000000000000227 3.2000000000000455 1.8000000000000114 6.399999999999977 1.8000000000000114 9.600000000000023 0.19999999999998863 104 0.19999999999998863 208 0.19999999999998863 312v41.60000000000002c0 38 19.900000000000034 61.89999999999998 51.10000000000002 62.09999999999991 30.80000000000001 0.20000000000004547 53.30000000000001-24.699999999999932 53.39999999999998-61.39999999999998 0.10000000000002274-14.100000000000023 0.10000000000002274-28.199999999999932 0.30000000000001137-42.299999999999955v-193.30000000000007c0-3.8999999999999773 0.4000000000000341-7.7999999999999545 0.8000000000000114-11.599999999999909 0.6000000000000227-6.400000000000091 2.8000000000000114-11.800000000000068 4.899999999999977-12.100000000000023 2.1000000000000227-0.3000000000000682 4.800000000000011 3.6000000000000227 6 8.600000000000023 0.8000000000000114 3.099999999999909 1.400000000000034 6 1.400000000000034 9.099999999999909 0.39999999999997726 36.700000000000045 0 73.40000000000009 0.19999999999998863 110.20000000000005 0.19999999999998863 28.799999999999955 17.700000000000045 49.10000000000002 43.10000000000002 50.39999999999998 25 1.2000000000000455 45.69999999999993-15.699999999999932 47.299999999999955-44 2.3999999999999773-40.39999999999998 1.2000000000000455-80.89999999999998 1.8000000000000682-121.5 0-3.8999999999999773 0.39999999999997726-7.7999999999999545 0.6999999999999318-11.699999999999932 0.3000000000000682-2.400000000000091 0.7000000000000455-4.7000000000000455 1.2000000000000455-6.7000000000000455 1.1000000000000227-3.6000000000000227 5.7999999999999545-5 7.399999999999977-2.5 0.8999999999999773 1.3999999999999773 1.7000000000000455 3.1000000000000227 2.2000000000000455 5 1 3.1000000000000227 1.7999999999999545 6 1.7999999999999545 9.100000000000023 0.39999999999997726 31.100000000000023 0.20000000000004547 62 0.20000000000004547 93.10000000000002 0.09999999999990905 27.59999999999991 14.5 44.19999999999993 39.59999999999991 45.09999999999991 24.600000000000023 0.900000000000091 46-19.199999999999932 46.5-45.19999999999993 0.6000000000000227-43 0-86.10000000000002 0.3000000000000682-129.10000000000002 0-3.2000000000000455 0.6000000000000227-6.5 1.3999999999999773-9.700000000000045 1.2000000000000455-5.199999999999932 3.7999999999999545-9.5 5.7000000000000455-9.399999999999977 1.8999999999999773 0.10000000000002274 4.199999999999932 4.399999999999977 5 9.5 0.5 3.2000000000000455 0.8999999999999773 6.300000000000068 0.8999999999999773 9.5 0.2999999999999545 30.399999999999977 0 60.80000000000007 0.1999999999999318 91.30000000000007 0.20000000000004547 24.09999999999991 12.900000000000091 39.09999999999991 36.40000000000009 43.09999999999991 19.399999999999977 3.300000000000068 41.39999999999998-9.199999999999932 47.89999999999998-29 3.199999999999932-9.399999999999977 4.2999999999999545-19.799999999999955 4.2999999999999545-29.799999999999955 0.39999999999997726-91.89999999999998 0.39999999999997726-183.7 0.10000000000002274-275.5-0.10000000000002274-32.69999999999999-6.7999999999999545-62.69999999999999-28.399999999999977-88.80000000000001z m-304.70000000000005-142.5h255.30000000000007c15 0 27.299999999999955-12.399999999999977 27.299999999999955-27.799999999999983v-37c0-15.300000000000011-12.200000000000045-27.800000000000004-27.299999999999955-27.800000000000004h-255.30000000000007c-15 0-27.299999999999955 12.399999999999999-27.299999999999955 27.800000000000004v37.099999999999994c0.0999999999999659 15.199999999999989 12.199999999999989 27.69999999999999 27.299999999999955 27.69999999999999z"/>
</svg>
