<svg xmlns="http://www.w3.org/2000/svg" viewBox="0 0 1000 1000" width="1000" height="1000">
<path d="M772.7 727.1v-454.3c0-150.60000000000002-122.10000000000002-272.8-272.70000000000005-272.8s-272.7 122.2-272.7 272.8v454.40000000000003c0 150.5999999999999 122.09999999999997 272.79999999999995 272.7 272.79999999999995s272.70000000000005-122.29999999999995 272.70000000000005-272.9z m-36.40000000000009 0c0 130.29999999999995-105.89999999999998 236.29999999999995-236.29999999999995 236.29999999999995s-236.3-105.89999999999998-236.3-236.29999999999995v-454.3c0-130.3 105.90000000000003-236.3 236.3-236.3s236.29999999999995 106.1 236.29999999999995 236.3v454.3z m-165.0999999999999-547.3c0 39.299999999999926-31.90000000000009 71.19999999999993-71.20000000000005 71.19999999999993s-71.19999999999999-31.900000000000006-71.19999999999999-71.19999999999999 31.899999999999977-71.20000000000002 71.19999999999999-71.20000000000002 71.20000000000005 31.900000000000006 71.20000000000005 71.20000000000002z m-19.700000000000045 136.29999999999995c0 28.5-23.100000000000023 51.5-51.5 51.5-28.5 0-51.5-23.100000000000023-51.5-51.5 0-28.5 23.100000000000023-51.5 51.5-51.5 28.5 0 51.5 23.099999999999966 51.5 51.5z m-14.399999999999977 101.69999999999999c0 20.5-16.600000000000023 37.099999999999966-37.10000000000002 37.099999999999966s-37.10000000000002-16.599999999999966-37.10000000000002-37.099999999999966 16.600000000000023-37.10000000000002 37.10000000000002-37.10000000000002c20.600000000000023 0 37.10000000000002 16.69999999999999 37.10000000000002 37.10000000000002z"/>
</svg>
