<svg xmlns="http://www.w3.org/2000/svg" viewBox="0 0 1000 1000" width="1000" height="1000">
<path d="M211.6 472l203.20000000000002-203.2c15.5-15.5 40.599999999999966-15.5 56.099999999999966 0l17.5 17.5c15.5 15.5 15.5 40.599999999999966 0 56.099999999999966l-129.7 129.70000000000005c-7.800000000000011 7.7999999999999545-11.599999999999966 17.899999999999977-11.599999999999966 28s3.8999999999999773 20.299999999999955 11.599999999999966 28l129.7 129.69999999999993c15.5 15.5 15.5 40.60000000000002 0 56.10000000000002l-17.5 17.5c-15.5 15.300000000000068-40.599999999999966 15.300000000000068-56.099999999999966-0.1999999999999318l-203.20000000000002-203.20000000000005c-7.799999999999983-7.7999999999999545-11.599999999999994-17.899999999999977-11.599999999999994-28 0-10.100000000000023 3.9000000000000057-20.30000000000001 11.599999999999994-28z m300 0l203.19999999999993-203.2c15.5-15.5 40.60000000000002-15.5 56.10000000000002 0l17.5 17.5c15.5 15.5 15.5 40.599999999999966 0 56.099999999999966l-129.69999999999993 129.70000000000005c-7.800000000000068 7.7999999999999545-11.600000000000023 17.899999999999977-11.600000000000023 28s3.8999999999999773 20.299999999999955 11.600000000000023 28l129.69999999999993 129.69999999999993c15.5 15.5 15.5 40.60000000000002 0 56.10000000000002l-17.5 17.5c-15.5 15.300000000000068-40.60000000000002 15.300000000000068-56.10000000000002-0.1999999999999318l-203.19999999999993-203.20000000000005c-7.800000000000011-7.7999999999999545-11.600000000000023-17.899999999999977-11.600000000000023-28 0-10.100000000000023 3.8999999999999773-20.30000000000001 11.600000000000023-28z"/>
</svg>
