<svg xmlns="http://www.w3.org/2000/svg" viewBox="0 0 1000 1000" width="1000" height="1000">
<path d="M893.5 258.5l-164.20000000000005 103.5c-6.099999999999909 3.8000000000000114-9.699999999999932 10.5-9.699999999999932 17.69999999999999l0 252.09999999999997c0 6.900000000000091 3.3999999999999773 13.400000000000091 9.199999999999932 17.300000000000068l164 110.79999999999995c7.900000000000091 5.399999999999977 18.200000000000045 6 26.700000000000045 1.5 8.5-4.600000000000023 13.799999999999955-13.399999999999977 13.799999999999955-23l0-457.9c0-9.5-5.099999999999909-18.19999999999999-13.399999999999977-22.80000000000001-8.299999999999955-4.599999999999994-18.399999999999977-4.299999999999983-26.399999999999977 0.8000000000000114l0 0z" opacity="0.4"/>
<path d="M66.7 713l0-405.3c0-19.69999999999999 7.799999999999997-38.599999999999966 21.700000000000003-52.599999999999994 14-13.900000000000006 32.89999999999999-21.799999999999983 52.599999999999994-21.799999999999983l456.9 0c19.800000000000068 0 38.700000000000045 7.899999999999977 52.60000000000002 21.799999999999983 14 14.000000000000028 21.799999999999955 32.900000000000006 21.799999999999955 52.599999999999994l0 405.3c0 41-33.299999999999955 74.29999999999995-74.39999999999998 74.29999999999995l-456.9 0c-41 0-74.3-33.299999999999955-74.3-74.29999999999995z"/>
</svg>
