<svg xmlns="http://www.w3.org/2000/svg" viewBox="0 0 1000 1000" width="1000" height="1000">
<path d="M426.5 133.3l163.29999999999995 0c45.10000000000002 0 78.80000000000007 31.899999999999977 81.40000000000009 76.1l0.1999999999999318 5.599999999999994 0 40.80000000000001 163.20000000000005 0c43.10000000000002 0 78.69999999999993 33.80000000000001 81.5 76.30000000000001l0.1999999999999318 5.2999999999999545 0 244.89999999999998c0 43.10000000000002-33.89999999999998 78.70000000000005-76.29999999999995 81.40000000000009l-5.399999999999977 0.1999999999999318-653 0c-43.10000000000002 0-78.60000000000002-33.799999999999955-81.40000000000002-76.29999999999995l-0.20000000000000284-5.300000000000068 0-244.89999999999998c0-43.099999999999966 33.900000000000006-78.69999999999999 76.30000000000001-81.49999999999997l5.299999999999983-0.09999999999999432 163.29999999999998 0 0-40.80000000000001c0-45.19999999999999 31.900000000000034-78.9 76-81.5l5.600000000000023-0.19999999999998863z m81.60000000000002 367.4c-24.400000000000034 0-40.80000000000001 16.30000000000001-40.80000000000001 40.80000000000001 0 24.5 16.399999999999977 40.799999999999955 40.80000000000001 40.799999999999955 24.5 0 40.89999999999998-16.299999999999955 40.89999999999998-40.799999999999955 0-24.5-16.399999999999977-40.80000000000001-40.89999999999998-40.80000000000001z m81.69999999999993-285.79999999999995l-163.29999999999995-2.842170943040401e-14 0 40.900000000000006 163.20000000000005 0 0.09999999999990905-40.900000000000006z" opacity="0.4"/>
<path d="M916.3 623.1l0 163.19999999999993c0 43.10000000000002-33.89999999999998 78.70000000000005-76.29999999999995 81.5l-5.399999999999977 0.20000000000004547-653 0c-43.10000000000002 0-78.60000000000002-33.89999999999998-81.40000000000002-76.29999999999995l-0.20000000000000284-5.400000000000091 0-163.19999999999993 0.20000000000000284 5.2999999999999545c2.5999999999999943 40.700000000000045 35.39999999999999 73.5 76.10000000000001 76.10000000000002l5.299999999999983 0.20000000000004547 653 0c43.10000000000002 0 78.69999999999993-33.80000000000007 81.5-76.30000000000007l0.1999999999999318-5.2999999999999545z"/>
</svg>
