<svg xmlns="http://www.w3.org/2000/svg" viewBox="0 0 1000 1000" width="1000" height="1000">
<path d="M699.3 133.3l204.4000000000001 0c17.09999999999991 0.09999999999999432 31.799999999999955 6.299999999999983 44.299999999999955 18.69999999999999 10.899999999999977 10.900000000000006 17 23.599999999999994 18.399999999999977 38l0.3000000000000682 6.300000000000011 0 204.39999999999998c0 17.400000000000034-4.400000000000091 36.5-13.100000000000023 57.5-7.399999999999977 18-16.200000000000045 32.69999999999999-26.399999999999977 44.19999999999999l-5.300000000000068 5.5-351.4 351.9c-12.100000000000023 12.100000000000023-26.799999999999955 18.200000000000045-44.200000000000045 18.200000000000045-14.899999999999977 0-28.199999999999932-4.7000000000000455-39.799999999999955-14l-4.899999999999977-4.2000000000000455-241.3-241.79999999999995c-10.700000000000017-10.700000000000045-16.600000000000023-23.299999999999955-18-37.89999999999998l-0.20000000000001705-6.399999999999977c0-14.900000000000091 4.599999999999994-28.200000000000045 13.900000000000006-39.80000000000007l4.300000000000011-4.899999999999977 351.40000000000003-350.9c12.399999999999977-12.500000000000028 29.09999999999991-23.100000000000023 50.09999999999991-31.700000000000017 18-7.5 34.60000000000002-11.700000000000017 49.90000000000009-12.800000000000011l7.599999999999909-0.29999999999998295 204.4000000000001 0-204.4000000000001 0z m110.10000000000002 94.39999999999998c-17.399999999999977 0-32.19999999999993 6.200000000000017-44.5 18.5-12.299999999999955 12.199999999999989-18.399999999999977 27.100000000000023-18.399999999999977 44.400000000000034 0 17.399999999999977 6.100000000000023 32.19999999999999 18.399999999999977 44.5 12.300000000000068 12.299999999999955 27.100000000000023 18.399999999999977 44.5 18.399999999999977 17.399999999999977 0 32.200000000000045-6.100000000000023 44.5-18.399999999999977 12.300000000000068-12.300000000000011 18.399999999999977-27.100000000000023 18.399999999999977-44.5 0-17.30000000000001-6.099999999999909-32.200000000000045-18.399999999999977-44.400000000000034-12.299999999999955-12.299999999999983-27.100000000000023-18.5-44.5-18.5z" opacity="0.4"/>
<path d="M510.6 133.4l110 0c-17.300000000000068 0-36.5 4.299999999999983-57.39999999999998 13-18 7.400000000000006-32.80000000000007 16.19999999999999-44.60000000000002 26.5l-5.600000000000023 5.199999999999989-351.4 350.9c-12.100000000000023 12.799999999999955-18.200000000000017 27.700000000000045-18.200000000000017 44.700000000000045 0 15.199999999999932 4.699999999999989 28.399999999999977 14 39.59999999999991l4.199999999999989 4.7000000000000455 231.00000000000003 231c-9.800000000000011 10.100000000000023-18.5 17.5-26 22.100000000000023-7.600000000000023 4.600000000000023-17.200000000000045 6.899999999999977-29 6.899999999999977-14.900000000000034 0-28.200000000000045-4.7000000000000455-39.900000000000034-14l-4.899999999999977-4.2000000000000455-241.3-241.79999999999995c-12.100000000000001-12.200000000000045-18.200000000000003-26.899999999999977-18.200000000000003-44.299999999999955 0-14.900000000000091 4.700000000000003-28.200000000000045 14-39.80000000000007l4.200000000000003-4.899999999999977 351.4-350.9c12.5-12.500000000000028 29.200000000000045-23.00000000000003 50.200000000000045-31.700000000000017 17.899999999999977-7.5 34.599999999999966-11.700000000000017 49.89999999999998-12.800000000000011l7.600000000000023-0.19999999999998863 110 0-110 0z"/>
</svg>
