<svg xmlns="http://www.w3.org/2000/svg" viewBox="0 0 1000 1000" width="1000" height="1000">
<path d="M320 100l483.4 0c36.5 0 66.39999999999998 28.30000000000001 68.89999999999998 64.19999999999999l0.20000000000004547 4.900000000000006 0 711.8c0 36.5-28.299999999999955 66.39999999999998-64.10000000000002 68.89999999999998l-5 0.20000000000004547-483.4 0 0-850 483.4 0-483.4 0z m197.10000000000002 278.6l-15.800000000000011 9.299999999999955 0.19999999999998863 0.4000000000000341c-5.600000000000023 4.300000000000011-10.800000000000011 9.5-15.199999999999989 15.5-4.100000000000023 5.699999999999989-7.199999999999989 11.300000000000011-9.5 17.19999999999999-18.900000000000034 47.19999999999999-8.699999999999989 97.60000000000002 35.400000000000034 174.10000000000002 60.89999999999998 105.79999999999995 129.69999999999993 117.5 132.69999999999993 117.89999999999998 6.5 1 13 1.1000000000000227 19.700000000000045 0.2999999999999545 7.2999999999999545-0.7999999999999545 14.399999999999977-2.599999999999909 20.899999999999977-5.399999999999977l0.20000000000004547 0.3000000000000682 16-9c11.599999999999909-6.7000000000000455 15.799999999999955-21.300000000000068 9.399999999999977-32.60000000000002l-32.5-56.30000000000007c-6.399999999999977-11.199999999999932-21.200000000000045-14.899999999999977-32.80000000000007-8.199999999999932l-28.299999999999955 16.399999999999977-11.5-11.100000000000023c-10.799999999999955-10.899999999999977-23.700000000000045-25.199999999999932-35.60000000000002-45.89999999999998-11.899999999999977-20.700000000000045-17.899999999999977-39.10000000000002-21.799999999999955-54l-4-15.399999999999977 0 0 28.399999999999977-16.400000000000034c11.700000000000045-6.699999999999989 15.799999999999955-21.30000000000001 9.399999999999977-32.599999999999966l-32.5-56.30000000000001c-6.399999999999977-11.199999999999989-21.100000000000023-14.900000000000034-32.799999999999955-8.199999999999989z" opacity="0.4"/>
<path d="M150 169.1l0 711.8c0 38.200000000000045 34.30000000000001 69.10000000000002 76.5 69.10000000000002l51 0 0-850-51 0c-42.19999999999999 0-76.5 30.900000000000006-76.5 69.1z"/>
</svg>
