<svg xmlns="http://www.w3.org/2000/svg" viewBox="0 0 1000 1000" width="1000" height="1000">
<path d="M509.1 90.9l318.19999999999993 141.4 0 259.09999999999997-318.19999999999993 0 0 405.9c-169.10000000000002-52.299999999999955-294.1-219.0999999999999-318.20000000000005-406.4l318.20000000000005 0 0-400z" opacity="0.4"/>
<path d="M509.1 90.9l318.19999999999993 141.4 0 213.59999999999997c1 202.89999999999998-126.79999999999995 384.1-318.19999999999993 451.4-191.40000000000003-67.29999999999995-319.20000000000005-248.5-318.20000000000005-451.4l2.842170943040401e-14-213.59999999999997 318.20000000000005-141.4m0-90.9c-12.700000000000045 0-25.200000000000045 2.6-36.80000000000001 7.7l-318.20000000000005 141.4c-32.89999999999996 14.599999999999994-54.099999999999966 47.20000000000002-54.099999999999966 83.20000000000002l0 213.59999999999997c0 252.30000000000007 174.5 488.20000000000005 409.1 545.5 234.5-57.299999999999955 409.1-293.19999999999993 409.1-545.5l0-213.59999999999997c0-36-21.200000000000045-68.60000000000002-54.10000000000002-83.20000000000002l-318.20000000000005-141.4c-11.600000000000023-5.099999999999989-24.100000000000023-7.699999999999989-36.799999999999955-7.699999999999989z"/>
</svg>
