<svg xmlns="http://www.w3.org/2000/svg" viewBox="0 0 1000 1000" width="1000" height="1000">
<path d="M525.3 248.8l2.400000000000091 3.5999999999999943 2.199999999999932 3.799999999999983 230 423.7c15.800000000000068 29.100000000000023 3.1000000000000227 53-28.299999999999955 55l-4.399999999999977 0.10000000000002274-454.40000000000003 0c-33.10000000000002 0-47.900000000000006-22.600000000000023-34.60000000000002-51.200000000000045l1.9000000000000057-3.8999999999999773 230.00000000000003-423.7c15-27.799999999999983 38.599999999999966-30.19999999999999 55.19999999999993-7.399999999999977z m-25.299999999999955 354.40000000000003l-3.5 0.1999999999999318c-14.899999999999977 1.6000000000000227-26.69999999999999 13.100000000000023-28.5 27.5l-0.19999999999998863 3.7000000000000455 0.19999999999998863 3.3999999999999773c1.6000000000000227 14.600000000000023 13.399999999999977 26.100000000000023 28.19999999999999 27.799999999999955l3.8000000000000114 0.20000000000004547 3.5-0.20000000000004547c14.899999999999977-1.5 26.700000000000045-13 28.5-27.5l0.20000000000004547-3.699999999999932-0.20000000000004547-3.3999999999999773c-1.6000000000000227-14.5-13.399999999999977-26.100000000000023-28.19999999999999-27.800000000000068l-3.8000000000000114-0.1999999999999318z m0-251.30000000000007l-3.5 0.20000000000004547c-14.899999999999977 1.599999999999966-26.69999999999999 13.099999999999966-28.5 27.599999999999966l-0.19999999999998863 3.6000000000000227 0 157.09999999999997c0 16.200000000000045 12.599999999999966 29.5 28.69999999999999 31.200000000000045l3.5 0.1999999999999318 3.5-0.1999999999999318c14.899999999999977-1.6000000000000227 26.700000000000045-13 28.5-27.5l0.20000000000004547-3.7000000000000455 0-157.09999999999997c0-17.30000000000001-14.400000000000091-31.400000000000034-32.200000000000045-31.400000000000034z" opacity="0.4"/>
<path d="M500 0c276 0 500 224 500 500 0 276-224 500-500 500-276 0-500-224-500-500 0-276 224-500 500-500z m0 66.7c-238.89999999999998 0-433.3 194.40000000000003-433.3 433.3 1.4210854715202004e-14 238.89999999999998 194.40000000000003 433.29999999999995 433.3 433.29999999999995 238.89999999999998 0 433.29999999999995-194.39999999999998 433.29999999999995-433.29999999999995 0-238.89999999999998-194.39999999999998-433.3-433.29999999999995-433.3z"/>
</svg>
