<svg xmlns="http://www.w3.org/2000/svg" viewBox="0 0 1000 1000" width="1000" height="1000">
<path d="M487.9 111.1l0-86.8c0-21.799999999999997-26.19999999999999-32.5-41.19999999999999-16.999999999999996l-135.8 135.29999999999998c-9.699999999999989 9.700000000000017-9.699999999999989 24.700000000000017 0 34.400000000000006l135.3 135.3c15.5 15 41.69999999999999 4.399999999999977 41.69999999999999-17.400000000000034l0-86.79999999999998c160.5 0 290.9 130.4 290.9 290.9 0 38.299999999999955-7.2999999999999545 75.60000000000002-21.299999999999955 109.10000000000002-7.2999999999999545 17.399999999999977-2 37.299999999999955 11.100000000000023 50.39999999999998 24.699999999999932 24.700000000000045 66.39999999999998 16 79.5-16.5 18-44.10000000000002 27.699999999999932-92.60000000000002 27.699999999999932-143 0-214.3-173.5999999999999-387.9-387.9-387.9z" opacity="0.4"/>
<path d="M487.9 789.9c-160.5 0-290.9-130.39999999999998-290.9-290.9 0-38.30000000000001 7.199999999999989-75.69999999999999 21.30000000000001-109.10000000000002 7.299999999999983-17.5 1.8999999999999773-37.299999999999955-11.100000000000023-50.39999999999998-24.799999999999983-24.80000000000001-66.5-16-79.6 16.5-17.89999999999999 44.10000000000002-27.599999999999994 92.60000000000002-27.599999999999994 143 0 214.29999999999995 173.60000000000002 387.9 387.9 387.9l0 86.80000000000007c0 21.799999999999955 26.200000000000045 32.39999999999998 41.200000000000045 16.899999999999977l135.29999999999995-135.30000000000007c9.700000000000045-9.599999999999909 9.700000000000045-24.699999999999932 0-34.39999999999998l-135.29999999999995-135.19999999999993c-15-15.100000000000023-41.200000000000045-4.400000000000091-41.200000000000045 17.399999999999977l0 86.79999999999995z"/>
</svg>
