<svg xmlns="http://www.w3.org/2000/svg" viewBox="0 0 1000 1000" width="1000" height="1000">
<path d="M1000 500c0-92.89999999999998-69.89999999999998-166.7-157.79999999999995-166.7l-451.00000000000006 0c-85.59999999999997 0-154.1 69.89999999999998-157.7 159.2l-0.19999999999998863 7.5c0 92.89999999999998 69.89999999999998 166.70000000000005 157.89999999999998 166.70000000000005l451.00000000000006 0c85.5 0 154-69.90000000000009 157.5999999999999-159.20000000000005l0.20000000000004547-7.5z" opacity="0.4"/>
<path d="M266.7 233.3c147.2 0 266.59999999999997 119.39999999999998 266.59999999999997 266.7 0 147.29999999999995-119.39999999999998 266.70000000000005-266.59999999999997 266.70000000000005-147.29999999999998 0-266.7-119.40000000000009-266.7-266.70000000000005 0-147.3 119.4-266.7 266.7-266.7z"/>
</svg>
