<svg xmlns="http://www.w3.org/2000/svg" viewBox="0 0 1000 1000" width="1000" height="1000">
<path d="M861.7 656.1c78.59999999999991 78.60000000000002 78.59999999999991 205.89999999999998 0 284.5-57.5 57.60000000000002-144.10000000000002 74.79999999999995-219.30000000000007 43.69999999999993-75.19999999999993-31.199999999999932-124.19999999999993-104.5-124.19999999999993-186 0-81.39999999999998 49-154.79999999999995 124.19999999999993-185.89999999999998 75.20000000000005-31.100000000000023 161.80000000000007-13.899999999999977 219.30000000000007 43.700000000000045z m-186.60000000000002 35.60000000000002c-43.30000000000007 17.899999999999977-71.5 60.19999999999993-71.5 107 0 46.89999999999998 28.199999999999932 89.09999999999991 71.5 107 41.10000000000002 17 88.10000000000002 9 121.10000000000002-20.300000000000068l5.099999999999909-4.7999999999999545 0-0.39999999999997726c45.10000000000002-45.10000000000002 45.10000000000002-118.30000000000007 0-163.4000000000001-33.09999999999991-33.09999999999991-82.89999999999998-43-126.19999999999993-25.09999999999991z m-457.90000000000003-674.7l241.7 347c3.6000000000000227 5.199999999999989 3.6000000000000227 12.100000000000023 0 17.399999999999977l-87.79999999999995 125.90000000000003c-4.400000000000034 6.199999999999989-9.700000000000045 11.699999999999989-15.700000000000045 16.30000000000001-3.2999999999999545 2.699999999999932-7.5 3.7999999999999545-11.699999999999989 3.199999999999932-4.099999999999966-0.599999999999909-7.800000000000011-3-10.199999999999989-6.399999999999977-2.8999999999999773-4.600000000000023-5.800000000000011-9.299999999999955-8.300000000000011-14.199999999999989l-28.099999999999966-54.099999999999966c-48.00000000000003-93.30000000000001-109.20000000000002-217.20000000000002-135.10000000000002-292.1-14.400000000000006-39.5-20.30000000000001-81.6-17.30000000000001-123.5 1.5-16.7 13.200000000000017-30.8 29.400000000000006-35.1 16.200000000000017-4.399999999999999 33.5 1.9000000000000012 43.099999999999994 15.600000000000001z" opacity="0.4"/>
<path d="M802 1.4c21-0.2999999999999998 38.5 15.799999999999999 40.200000000000045 36.7 2.8999999999999773 41.9-2.900000000000091 83.9-17.300000000000068 123.4-31.399999999999977 90.6-114.5 253.2-163.29999999999995 345.7-21.800000000000068 41.400000000000034-59.30000000000007 72.30000000000001-103.80000000000007 85.90000000000003l-8.399999999999977 2.3999999999999773-114 28.700000000000045c-5.5 1.3999999999999773-10.099999999999966 5.199999999999932-12.599999999999966 10.199999999999932-1.900000000000034 4.100000000000023-2.400000000000034 8.700000000000045-1.400000000000034 13l1.1000000000000227 3.2000000000000455 26.600000000000023 61.19999999999993c27.399999999999977 57 26.299999999999955 123.70000000000005-3 179.9000000000001-29.30000000000001 56.19999999999993-83.30000000000001 95.29999999999995-145.8 105.59999999999991-10.900000000000034 1.8000000000000682-21.900000000000034 2.7000000000000455-32.900000000000034 2.7000000000000455-104.59999999999997-0.2999999999999545-191.49999999999997-80.60000000000002-200.09999999999997-184.89999999999998-8.300000000000011-101.60000000000002 60.69999999999999-192.89999999999998 159.79999999999998-213.39999999999998l7.599999999999994-1.400000000000091 95.60000000000002-15.799999999999955c29.30000000000001-4.7999999999999545 55.599999999999966-20.399999999999977 74-43.5l4.399999999999977-5.899999999999977 8.699999999999989-12.5c2.3000000000000114-3.300000000000068 6.2000000000000455-5.300000000000068 10.200000000000045-5.2000000000000455 3.2999999999999545-0.10000000000002274 6.399999999999977 1.2000000000000455 8.699999999999989 3.3999999999999773l1.5 1.900000000000091 7.300000000000011 10.199999999999932c10.299999999999955 11.300000000000068 27.299999999999955 13.200000000000045 39.89999999999998 4.600000000000023 11.5-7.899999999999977 16.100000000000023-22.5 11.5-35.39999999999998l-1.3999999999999773-3.5-20.400000000000034-29.900000000000034c-5.099999999999966-7.199999999999989-5.699999999999989-16.599999999999966-1.8999999999999773-24.30000000000001l1.8999999999999773-3.1999999999999886 294.40000000000003-422.9c7.399999999999977-10.900000000000011 19.799999999999955-17.20000000000001 32.89999999999998-16.900000000000013z m-452.6 715c-33.099999999999966-33.10000000000002-82.89999999999998-43-126.19999999999999-25.100000000000023-43.29999999999998 17.90000000000009-71.5 60.10000000000002-71.5 107 0 46.80000000000007 28.200000000000017 89.10000000000002 71.5 107 43.30000000000001 17.90000000000009 93.10000000000002 8 126.19999999999999-25.09999999999991 21.900000000000034-21.700000000000045 34.200000000000045-51.10000000000002 34.200000000000045-81.90000000000009 0-30.799999999999955-12.300000000000011-60.299999999999955-34.200000000000045-81.89999999999998z"/>
</svg>
