<svg xmlns="http://www.w3.org/2000/svg" viewBox="0 0 1000 1000" width="1000" height="1000">
<path d="M400.7 870.9l191.50000000000006 0c0 52.700000000000045-43.10000000000002 95.80000000000007-95.80000000000007 95.80000000000007-51 0-92.29999999999995-39.700000000000045-95.5-89.5l-0.19999999999998863-6.300000000000068 191.50000000000006 0-191.50000000000006 0z" opacity="0.4"/>
<path d="M732.8 645.8l0-208.29999999999995c0-127.89999999999998-68.39999999999998-235-187.5-263.3l0-28.399999999999977c0-34.500000000000014-27.899999999999977-62.500000000000014-62.49999999999994-62.500000000000014-34.60000000000002 0-62.5 28-62.5 62.500000000000014l0 28.399999999999977c-119.60000000000002 28.30000000000001-187.5 135-187.5 263.3l0 208.29999999999995-53.80000000000001 53.80000000000007c-26.19999999999999 26.199999999999932-7.900000000000006 71.19999999999993 29.19999999999999 71.19999999999993l548.7 0c37.09999999999991 0 55.899999999999864-45 29.59999999999991-71.19999999999993l-53.700000000000045-53.80000000000007z"/>
</svg>
