<svg xmlns="http://www.w3.org/2000/svg" viewBox="0 0 1000 1000" width="1000" height="1000">
<path d="M817.5 489.7c30.799999999999955 0 55.700000000000045 25.000000000000057 55.700000000000045 55.80000000000001l0 398.6c0.09999999999990905 14.799999999999955-5.800000000000068 29.100000000000023-16.300000000000068 39.5-10.399999999999977 10.5-24.600000000000023 16.399999999999977-39.39999999999998 16.399999999999977l-620.8 0c-14.80000000000004 0-29.000000000000057-5.899999999999977-39.50000000000006-16.399999999999977-10.5-10.399999999999977-16.299999999999983-24.700000000000045-16.299999999999983-39.5l0-398.6c0-30.799999999999955 25-55.80000000000001 55.79999999999998-55.80000000000001l620.8 0z m-188.89999999999998 125.40000000000003c-8.399999999999977 0-16.5 3.3999999999999773-22.399999999999977 9.299999999999955l-139.50000000000006 139.70000000000005c-2.5 2.5-5.800000000000011 3.8999999999999773-9.300000000000011 3.8999999999999773-3.3999999999999773 0-6.7999999999999545-1.3999999999999773-9.199999999999989-3.8999999999999773l-37.69999999999999-36.80000000000007c-6.100000000000023-6.099999999999909-14.300000000000011-9.599999999999909-22.899999999999977-9.599999999999909-8.600000000000023 0-16.900000000000034 3.5-23 9.599999999999909l-16.600000000000023 16.600000000000023c-12.600000000000023 12.700000000000045-12.600000000000023 33.200000000000045 0 45.89999999999998l86.69999999999999 86.70000000000005c12.400000000000034 12.299999999999955 32.400000000000034 12.299999999999955 44.80000000000001 0l189.20000000000005-189.60000000000002c5.899999999999977-5.899999999999977 9.299999999999955-14 9.299999999999955-22.399999999999977 0-8.299999999999955-3.3999999999999773-16.399999999999977-9.299999999999955-22.299999999999955l-17.700000000000045-17.800000000000068c-5.899999999999977-5.899999999999977-14-9.299999999999955-22.399999999999977-9.299999999999955z" opacity="0.4"/>
<path d="M357 424.2c0 9-7.199999999999989 16.19999999999999-16.19999999999999 16.30000000000001l-71.30000000000001 0c-9 0-16.30000000000001-7.300000000000011-16.30000000000001-16.30000000000001l0-157.3c-1.799999999999983-92.99999999999997 46.69999999999999-179.7 126.90000000000003-226.7 80.29999999999995-46.999999999999986 179.60000000000002-46.999999999999986 259.9 1.4210854715202004e-14 80.20000000000005 47 128.70000000000005 133.7 126.89999999999998 226.7l0 157.3c0 9-7.2999999999999545 16.19999999999999-16.199999999999932 16.30000000000001l-71.30000000000007 0c-9 0-16.299999999999955-7.300000000000011-16.299999999999955-16.30000000000001l0-156.09999999999997c1.6999999999999318-55.60000000000002-27-107.80000000000001-74.80000000000007-136.20000000000002-47.89999999999998-28.400000000000006-107.29999999999995-28.60000000000001-155.39999999999998-0.5999999999999943-48.099999999999966 28.099999999999994-77.09999999999997 79.89999999999998-75.89999999999998 135.59999999999997l0 157.3z"/>
</svg>
