<svg xmlns="http://www.w3.org/2000/svg" viewBox="0 0 1000 1000" width="1000" height="1000">
<path d="M637.6 198l252.60000000000002 0c25.699999999999932 0 51.5 24.19999999999999 54.59999999999991 49.80000000000001l0.3000000000000682 5.099999999999994 0 439.30000000000007c0 25.699999999999932-24.100000000000023 51.39999999999998-49.80000000000007 54.5l-5.099999999999909 0.39999999999997726-285.5 0c-25.5 0-46.200000000000045-14.200000000000045-53.5-38.30000000000007l-1.400000000000091-5.699999999999932-11-65.80000000000007 98.80000000000007 0 0-439.29999999999995 252.60000000000002 0-252.60000000000002 0z" opacity="0.4"/>
<path d="M121.6 33.3l389.79999999999995 0c25.5 0 46.200000000000045 14.200000000000003 53.39999999999998 38.2l17.90000000000009 71.6 0 439.29999999999995-406.20000000000005 0 0 329.4c0 27.40000000000009-27.5 54.90000000000009-54.900000000000006 54.90000000000009-25.799999999999997 0-51.5-24.200000000000045-54.599999999999994-49.80000000000007l-0.29999999999999716-5.100000000000023 0-823.5999999999999c0-25.700000000000045 24.099999999999994-51.40000000000005 49.7-54.600000000000044l5.199999999999989-0.30000000000000426 389.79999999999995 0-389.79999999999995 0z"/>
</svg>
