<svg xmlns="http://www.w3.org/2000/svg" viewBox="0 0 1000 1000" width="1000" height="1000">
<path d="M832.4 346.8l-60.39999999999998-60.400000000000034 90.79999999999995-89.99999999999997c16.200000000000045-16.30000000000001 16.200000000000045-43 0-59.20000000000002-16.199999999999932-16.299999999999983-42.89999999999998-16.299999999999983-59.19999999999993 0l-90 90.80000000000001-60.39999999999998-60.400000000000006c-12.900000000000091-12.900000000000006-35.40000000000009-3.6999999999999886-35.40000000000009 15l0 178.79999999999998c0 11.600000000000023 9.200000000000045 20.80000000000001 20.800000000000068 20.80000000000001l178.79999999999995 0c18.700000000000045 0 27.899999999999977-22.5 15-35.39999999999998l0 0z m-664.8 306.40000000000003l60.39999999999998 60.39999999999998-90.80000000000001 90c-16.299999999999983 16.299999999999955-16.299999999999983 43 0 59.19999999999993 16.200000000000017 16.300000000000068 42.900000000000006 16.200000000000045 59.20000000000002 0l89.99999999999997-90.79999999999995 60.400000000000034 60.39999999999998c12.899999999999977 12.899999999999977 35.39999999999998 3.7000000000000455 35.39999999999998-15l0-178.79999999999995c0-11.600000000000023-9.199999999999989-20.800000000000068-20.80000000000001-20.800000000000068l-178.79999999999998 0c-18.69999999999999 0-27.900000000000006 22.5-15 35.40000000000009z" opacity="0.4"/>
<path d="M346.8 167.6l-60.400000000000034 60.400000000000006-89.99999999999997-90.80000000000001c-16.30000000000001-16.299999999999983-42.900000000000006-16.299999999999983-59.20000000000002 0-16.299999999999983 16.200000000000017-16.19999999999999 42.900000000000006 0 59.20000000000002l90.80000000000001 89.99999999999997-60.400000000000006 60.400000000000034c-12.900000000000006 12.899999999999977-3.6999999999999886 35.39999999999998 15 35.39999999999998l178.79999999999998 0c11.600000000000023 0 20.80000000000001-9.199999999999989 20.80000000000001-20.80000000000001l0-178.79999999999998c0-18.69999999999999-22.5-27.900000000000006-35.39999999999998-15l0 0z m306.40000000000003 664.8l60.39999999999998-60.39999999999998 90 90.79999999999995c16.299999999999955 16.200000000000045 43 16.200000000000045 59.19999999999993 0 16.300000000000068-16.299999999999955 16.300000000000068-42.89999999999998 0-59.19999999999993l-90.79999999999995-90 60.39999999999998-60.39999999999998c12.899999999999977-12.900000000000091 3.7000000000000455-35.40000000000009-15-35.40000000000009l-178.79999999999995 0c-11.600000000000023 0-20.800000000000068 9.200000000000045-20.800000000000068 20.800000000000068l0 178.79999999999995c0 18.700000000000045 22.5 27.899999999999977 35.40000000000009 15l0 0z"/>
</svg>
