<svg xmlns="http://www.w3.org/2000/svg" viewBox="0 0 1000 1000" width="1000" height="1000">
<path d="M801.3 635.8l-105.89999999999998-12c-25.399999999999977-3-50.39999999999998 5.800000000000068-68.29999999999995 23.700000000000045l-76.70000000000005 76.70000000000005c-117.89999999999998-60-214.59999999999997-156.30000000000007-274.59999999999997-274.6l77.09999999999997-77.10000000000002c17.900000000000034-17.899999999999977 26.700000000000045-42.89999999999998 23.80000000000001-68.30000000000001l-12.099999999999966-105c-5-42.099999999999994-40.400000000000034-73.79999999999998-82.90000000000003-73.79999999999998l-72.1 0c-47.099999999999994 0-86.3 39.19999999999999-83.3 86.29999999999998 22.000000000000014 355.8 306.59999999999997 640 662 662.0999999999999 47.10000000000002 2.900000000000091 86.30000000000007-36.299999999999955 86.30000000000007-83.39999999999998l0-72.10000000000002c0.39999999999997726-42-31.300000000000068-77.5-73.30000000000007-82.5z" opacity="0.4"/>
<path d="M542.4 127.2l4.300000000000068 0.29999999999999716c170.39999999999998 21.30000000000001 304.0999999999999 155 325.4 325.4 2.8999999999999773 22.900000000000034-13.300000000000068 43.80000000000001-36.30000000000007 46.700000000000045-1.599999999999909 0.39999999999997726-3.2999999999999545 0.39999999999997726-5 0.39999999999997726-20.799999999999955 0-38.69999999999993-15.399999999999977-41.19999999999993-36.69999999999999-16.700000000000045-132.5-120.39999999999998-236.20000000000002-252.89999999999998-252.9-22.90000000000009-2.5-39.200000000000045-23.30000000000001-36.30000000000007-46.20000000000002 2.5-22.899999999999977 23.399999999999977-39.19999999999999 46.30000000000007-36.69999999999999z m-40.69999999999999 201.10000000000002c5.800000000000011-22.5 28.69999999999999-35.80000000000001 50.80000000000001-30 72.89999999999998 18.80000000000001 130 75.89999999999998 149.60000000000002 149.59999999999997 5.399999999999977 22.100000000000023-7.899999999999977 45-30 50.900000000000034-3.300000000000068 0.8000000000000114-7.100000000000023 1.1999999999999886-10.399999999999977 1.1999999999999886-18.800000000000068 0-35.40000000000009-12.5-40.40000000000009-31.19999999999999-11.699999999999932-44.19999999999999-45.89999999999998-78.40000000000003-89.59999999999991-89.60000000000002-22.500000000000057-5.899999999999977-35.900000000000034-28.399999999999977-30.000000000000057-50.89999999999998z"/>
</svg>
