<svg xmlns="http://www.w3.org/2000/svg" viewBox="0 0 1000 1000" width="1000" height="1000">
<path d="M494.7 0c98.09999999999997 0 176.2 81 176.2 179.7 0 80.60000000000002-52.19999999999993 149.2-124.69999999999993 171.90000000000003l0 0 0 258.19999999999993c0 91.30000000000007-31.200000000000045 165.30000000000007-51.50000000000006 165.30000000000007-20.19999999999999 0-51.80000000000001-74.39999999999998-51.80000000000001-165.30000000000007l0 0 0-258.59999999999997c-72.09999999999997-22.69999999999999-124.39999999999998-90.89999999999998-124.39999999999998-171.5 0-98.69999999999999 78.60000000000002-179.7 176.2-179.7z m-49.80000000000001 67.4c-32 0-60.39999999999998 28-60.39999999999998 61.29999999999998 0 32.900000000000006 28.399999999999977 61.70000000000002 60.39999999999998 61.70000000000002 33.200000000000045 0 60.400000000000034-28.80000000000001 60.400000000000034-61.70000000000002 0-33.29999999999998-27.19999999999999-61.29999999999998-60.400000000000034-61.29999999999998z" opacity="0.4"/>
<path d="M493.9 957.2c-281.5 0-460.59999999999997-91.70000000000005-460.59999999999997-212.5-1.4210854715202004e-14-113.90000000000009 162.1-194.10000000000002 334.2-207.70000000000005l0 97c-112.6 9.5-223.2 50.60000000000002-223.2 106.10000000000002 0 71.19999999999993 145.89999999999998 118 349.59999999999997 118 203.39999999999998 0 349.6-47.200000000000045 349.6-118 0-55.5-110.60000000000002-96.60000000000002-223.20000000000005-106.10000000000002l0-97c172.20000000000005 13.600000000000023 334.20000000000005 93.79999999999995 334.20000000000005 207.70000000000005 0 120.79999999999995-179 212.5-460.6 212.5z"/>
</svg>
