<svg xmlns="http://www.w3.org/2000/svg" viewBox="0 0 1000 1000" width="1000" height="1000">
<path d="M32.5 942.4c-18 0-32.5-14.5-32.5-32.39999999999998 0-18 14.5-32.5 32.5-32.5l97.4 0 0-779.2-97.4 4.263256414560601e-14c-18 0-32.5-14.599999999999994-32.5-32.5 0-17.9 14.5-32.5 32.5-32.5l259.7 0c17.900000000000034 0 32.5 14.600000000000001 32.5 32.5 0 17.900000000000006-14.599999999999966 32.5-32.5 32.5l-97.39999999999998 0 0 779.2 97.39999999999998 0c17.900000000000034 0 32.5 14.5 32.5 32.5 0 17.899999999999977-14.599999999999966 32.39999999999998-32.5 32.39999999999998l-259.7 0z" opacity="0.4"/>
<path d="M907.4 228.1c36.80000000000007 0 66.60000000000002 29.900000000000006 66.60000000000002 66.70000000000002l0 386.2c0 35.10000000000002-27.200000000000045 63.89999999999998-61.700000000000045 66.39999999999998l-4.899999999999977 0.20000000000004547-581 0c-36.799999999999955 0-66.69999999999999-29.800000000000068-66.69999999999999-66.60000000000002l0-386.2c0-36.80000000000001 29.900000000000034-66.70000000000002 66.69999999999999-66.70000000000002l581 0z"/>
</svg>
