<svg xmlns="http://www.w3.org/2000/svg" viewBox="0 0 1000 1000" width="1000" height="1000">
<path d="M133.2 0l526.5999999999999 0c7.300000000000068 0 14.300000000000068 2.4 20.100000000000023 6.9l3.300000000000068 2.9000000000000004 174 173.79999999999998c5.199999999999932 5.200000000000017 8.5 11.900000000000006 9.5 19.099999999999994l0.2999999999999545 4.300000000000011 0 293.4c0 17-12.799999999999955 31.100000000000023-29.299999999999955 33l-3.900000000000091 0.20000000000004547-47.09999999999991 0c-17 0-31-12.800000000000068-33-29.30000000000001l-0.20000000000004547-3.900000000000034 0-160.59999999999997c0-17-12.799999999999955-31-29.299999999999955-32.900000000000034l-3.900000000000091-0.2999999999999545-160.0999999999999 0 0-154.10000000000002c0-17-12.800000000000068-31-29.40000000000009-32.900000000000006l-3.7999999999999545-0.29999999999999716-280.5 0c-17.099999999999994 0-31.099999999999994 12.799999999999997-33 29.39999999999999l-0.19999999999998863 3.8000000000000114 0 707.1c0 17 12.799999999999983 31 29.299999999999983 33l3.9000000000000057 0.1999999999999318 120.5 0c17 0 31.100000000000023 12.800000000000068 33 29.300000000000068l0.19999999999998863 3.8999999999999773 0 40.799999999999955c0 17-12.800000000000011 31.100000000000023-29.30000000000001 33l-3.8999999999999773 0.20000000000004547-233.8 0c-16.999999999999986 0-31.099999999999994-12.799999999999955-32.999999999999986-29.299999999999955l-0.20000000000000284-3.900000000000091 0-933.5999999999999c0-17.000000000000046 12.799999999999997-31.100000000000044 29.30000000000001-33.00000000000004l3.8999999999999773-0.20000000000000284 526.5999999999999 0-526.5999999999999 0z" opacity="0.4"/>
<path d="M696.7 750l51.09999999999991-51.10000000000002c14.900000000000091-14.899999999999977 38.30000000000007-16 54.40000000000009-3.199999999999932l3.599999999999909 3.199999999999932 22.100000000000023 22.100000000000023c14.899999999999977 14.799999999999955 15.899999999999977 38.299999999999955 3.2000000000000455 54.39999999999998l-3.2000000000000455 3.6000000000000227-51.10000000000002 51.10000000000002 51.10000000000002 51.10000000000002c14.899999999999977 14.899999999999977 15.899999999999977 38.299999999999955 3.2000000000000455 54.39999999999998l-3.2000000000000455 3.6000000000000227-22.100000000000023 22.09999999999991c-14.899999999999977 14.900000000000091-38.299999999999955 15.900000000000091-54.39999999999998 3.2000000000000455l-3.6000000000000227-3.2000000000000455-51.09999999999991-51.09999999999991-51.10000000000002 51.09999999999991c-14.899999999999977 14.900000000000091-38.30000000000007 15.900000000000091-54.39999999999998 3.2000000000000455l-3.6000000000000227-3.2000000000000455-22.100000000000023-22.09999999999991c-14.899999999999977-14.900000000000091-16-38.30000000000007-3.2000000000000455-54.40000000000009l3.2000000000000455-3.599999999999909 51.10000000000002-51.10000000000002-51.10000000000002-51.10000000000002c-14.899999999999977-14.899999999999977-16-38.299999999999955-3.2000000000000455-54.39999999999998l3.2000000000000455-3.6000000000000227 22.100000000000023-22.100000000000023c14.899999999999977-14.899999999999977 38.299999999999955-16 54.39999999999998-3.199999999999932l3.6000000000000227 3.199999999999932 51.10000000000002 51.10000000000002 51.09999999999991-51.10000000000002-51.09999999999991 51.10000000000002z"/>
</svg>
