<svg xmlns="http://www.w3.org/2000/svg" viewBox="0 0 1000 1000" width="1000" height="1000">
<path d="M550 700l0 100-100 0 0-100 100 0z m-19.5-498c87 13 155.5 86.5 167.5 173.5 13.5 95.5-51.5 132.5-99.5 178-6 5.5-11.5 11-16.5 17l-1.5 2 0 0c-5 6-10 12.5-14 19.5l-2.5 4.5 0 0c-7.2999999999999545 12.899999999999977-12.399999999999977 27.600000000000023-13.700000000000045 44.700000000000045l-0.2999999999999545 8.799999999999955-100 0c0-25 4-45.5 10-62.5l1-3.5 2-4c2.3000000000000114-6 5.100000000000023-11.799999999999955 8-17.200000000000045l6.5-11.299999999999955 0 0c41.5-62.5 117.5-77 122.5-144 4-48.5-31-95-78.5-105-51.5-11-99 19.5-115 64-6.399999999999977 17.399999999999977-20.80000000000001 31.100000000000023-39 33.19999999999999l-5 0.30000000000001137-10 0c-30.5 0-52.5-29.5-43.5-58.5 27.5-91 118.5-154.5 221.5-139.5z" opacity="0.4"/>
<path d="M500 0c276 0 500 224 500 500 0 276-224 500-500 500-276 0-500-224-500-500 0-276 224-500 500-500z m0 100c-220.5 0-400 179.5-400 400 0 220.5 179.5 400 400 400 220.5 0 400-179.5 400-400 0-220.5-179.5-400-400-400z"/>
</svg>
