<svg xmlns="http://www.w3.org/2000/svg" viewBox="0 0 1000 1000" width="1000" height="1000">
<path d="M811.3 153l3.7000000000000455-0.19999999999998863c13.299999999999955 0.19999999999998863 25.100000000000023 9 29 21.799999999999983l0.8999999999999773 3.5 113.39999999999998 624.8c3 16.899999999999977-7.099999999999909 33-23.09999999999991 37.89999999999998l-3.800000000000068 0.900000000000091-624.5999999999999 112c-1.3000000000000682 0.1999999999999318-2.6000000000000796 0.2999999999999545-3.900000000000091 0.39999999999997726l-3.7999999999999545 0c-13.800000000000011-0.7000000000000455-26-10-30.100000000000023-23.5l-0.8999999999999773-3.800000000000068-18.100000000000023-99.69999999999993 528 0c17.100000000000023 0 31.100000000000023-12.899999999999977 33.10000000000002-29.5l0.1999999999999318-3.800000000000068 0-640.8 3.7000000000000455-0.19999999999998863-3.7000000000000455 0.19999999999998863z" opacity="0.4"/>
<path d="M57.1 764.3c-18.4 0-33.3-14.899999999999977-33.3-33.299999999999955l-3.552713678800501e-15-647.7c0-18.39999999999995 14.900000000000002-33.299999999999955 33.3-33.299999999999955l647.6 0c18.5 0 33.39999999999998 14.900000000000006 33.39999999999998 33.3l0 647.7c0 17-12.899999999999977 31.100000000000023-29.5 33.10000000000002l-3.8999999999999773 0.1999999999999318-647.6 0z"/>
</svg>
