<svg xmlns="http://www.w3.org/2000/svg" viewBox="0 0 1000 1000" width="1000" height="1000">
<path d="M833.5 374.7l38 37.69999999999999c25.600000000000023 25.200000000000045 24.399999999999977 53 1.3999999999999773 78.20000000000005l-3.7999999999999545 3.8999999999999773-167.10000000000002 166.39999999999998c-11.799999999999955 11.899999999999977-24.200000000000045 18.899999999999977-36.799999999999955 20.700000000000045l-4.2000000000000455 0.39999999999997726-4.2000000000000455 0c-11-0.6000000000000227-22-5.2999999999999545-32.799999999999955-14.399999999999977l-4.5-4.2000000000000455-232.7-233.09999999999997c-26.30000000000001-26.19999999999999-25.400000000000034-51.5-3.900000000000034-79.40000000000003l10.600000000000023-13.099999999999966c72.5-91.10000000000002 70.39999999999998-172.70000000000002 107.60000000000002-219.20000000000002 9.799999999999955-12.5 22.899999999999977-18.5 36.39999999999998-18.599999999999994l4.5 0.20000000000000284c10.399999999999977 0.8999999999999915 20.700000000000045 5.299999999999997 29.899999999999977 12.899999999999991l4.399999999999977 4.1000000000000085 180.9000000000001 180.90000000000003c-5.7000000000000455 54-45.200000000000045 107.19999999999999-79.5 146l-6 6.699999999999989-10.300000000000068 11.300000000000011c-3.2999999999999545 3.8999999999999773-5.7999999999999545 8.5-1.1999999999999318 13.099999999999966 1.599999999999909 1.6000000000000227 3.8999999999999773 2.400000000000034 6.7999999999999545 2.5l3.1000000000000227-0.0999999999999659c28.199999999999932-2.3000000000000114 98.5-50.200000000000045 141.79999999999995-84.70000000000005l11.600000000000023-9.5 10-8.699999999999989 38 37.69999999999999-38-37.69999999999999z" opacity="0.4"/>
<path d="M293.5 418.2l4.5 0.19999999999998863c11.899999999999977 1.2000000000000455 23.80000000000001 6.800000000000011 35.19999999999999 16.900000000000034l4.199999999999989 4 283.80000000000007 283.8c26.199999999999932 26.600000000000023 27.59999999999991 56.89999999999998 4.7999999999999545 82.60000000000002l-3.7999999999999545 4-28.300000000000068 28.699999999999932c-11.899999999999977 11.800000000000068-25.100000000000023 18.399999999999977-38.5 19.399999999999977l-4.5 0.20000000000004547c-13.399999999999977-0.20000000000004547-27-5.7999999999999545-39.69999999999999-17.299999999999955l-4.300000000000011-4-89-88.80000000000007c-20.799999999999955 40.80000000000007-47.69999999999999 111.89999999999998-79.09999999999997 143.30000000000007-21.5 21.699999999999932-46.60000000000002 33.299999999999955-72.40000000000003 34.89999999999998l-6 0.1999999999999318c-29.899999999999977 0.20000000000004547-60.39999999999998-13-86.99999999999997-39.19999999999993-51.80000000000001-51.10000000000002-53.5-117.39999999999998-4.5-165.70000000000005 29.69999999999999-29 93.9-54.69999999999993 134.9-74.60000000000002l8.399999999999977-4.199999999999932-88.69999999999999-89.39999999999998c-26.599999999999994-26.90000000000009-27.900000000000006-56.900000000000034-4.900000000000006-82.60000000000002l3.8000000000000114-4 28-28.30000000000001c13.499999999999972-13.5 28.200000000000017-20.19999999999999 43.099999999999994-20.100000000000023z m-41.69999999999999 360.09999999999997l-3.700000000000017 0.20000000000004547c-6.199999999999989 0.7999999999999545-12.099999999999994 3.6000000000000227-17 8.5-11.400000000000006 11.700000000000045-11.799999999999983 29.299999999999955 0 41.39999999999998 5.800000000000011 6 13.400000000000006 8.899999999999977 20.80000000000001 8.800000000000068l3.6999999999999886-0.3000000000000682c6.200000000000017-0.8999999999999773 12.200000000000017-3.7999999999999545 16.900000000000006-8.5 11.399999999999977-12.100000000000023 11.399999999999977-29.699999999999932 0-41.39999999999998-4.899999999999977-4.7999999999999545-10.899999999999977-7.600000000000023-17-8.5l-3.6999999999999886-0.20000000000004547 0 0z"/>
</svg>
