<svg xmlns="http://www.w3.org/2000/svg" viewBox="0 0 1000 1000" width="1000" height="1000">
<path d="M500.6 266.9l3.5 0.30000000000001137c18.399999999999977 2 35.19999999999993 16.100000000000023 37.299999999999955 37l0.3000000000000682 4.600000000000023 0 66.19999999999999c291.5999999999999 41.69999999999999 416.5999999999999 250 458.29999999999995 458.29999999999995-101.79999999999995-142.5-243.39999999999998-209.39999999999998-444.20000000000005-212.39999999999998l-14.099999999999909-0.10000000000002274 0 70c0 23.40000000000009-17.90000000000009 39.5-37.60000000000002 41.60000000000002l-3.5 0.3000000000000682c-9.100000000000023 0.1999999999999318-18.30000000000001-2.5-26.30000000000001-8.800000000000068l-3.900000000000034-3.5-191.2-191.19999999999993c-15.199999999999989-15.200000000000045-16.19999999999999-39.10000000000002-3.099999999999966-55.400000000000034l3.099999999999966-3.400000000000034 191.2-191.2c7.5-7.5 16.5-11.399999999999977 25.600000000000023-12.099999999999966l4.600000000000023-0.20000000000004547z" opacity="0.4"/>
<path d="M247 270.7l3.5999999999999943 0.19999999999998863c21.400000000000006 1.7000000000000455 41.099999999999994 18.900000000000034 41.099999999999994 44.10000000000002 0 10-3.3999999999999773 19.69999999999999-9.599999999999966 27.5l-3.3000000000000114 3.8000000000000114-153.8 153.7 153.8 153.79999999999995c8.300000000000011 8.300000000000068 12.899999999999977 19.5 12.899999999999977 31.200000000000045 0 25.200000000000045-19.69999999999999 42.39999999999998-41.099999999999994 44l-3.5999999999999943 0.10000000000002274c-9.199999999999989 0-18.599999999999994-3.1000000000000227-26.80000000000001-9.700000000000045l-3.8999999999999773-3.6000000000000227-186.70000000000002-186.5999999999999c-15.199999999999994-15.200000000000045-16.199999999999996-39.10000000000002-2.999999999999993-55.400000000000034l3-3.400000000000034 186.70000000000002-186.59999999999997c7.599999999999994-7.699999999999989 16.799999999999983-11.800000000000011 26.099999999999994-12.800000000000011l4.599999999999994-0.30000000000001137z"/>
</svg>
