<svg xmlns="http://www.w3.org/2000/svg" viewBox="0 0 1000 1000" width="1000" height="1000">
<path d="M358 695.6c-11.399999999999977 0-22.69999999999999-4.7000000000000455-30.600000000000023-12.800000000000068 0 0 0 0 0 0-17-17.399999999999977-17-45.299999999999955 0-62.69999999999993l333-340.5-623 0c-18.099999999999977 0-31.699999999999978 15.199999999999989-31.699999999999978 32.599999999999966l8.881784197001252e-16 646c0 18.59999999999991 14.7 32.5 31.7 32.5l646.8000000000001 0c18.09999999999991 0 31.699999999999932-15.100000000000023 31.699999999999932-32.5l0-611.2-327.29999999999995 335.79999999999995c-9.100000000000023 8.100000000000023-19.30000000000001 12.800000000000068-30.600000000000023 12.800000000000068z" opacity="0.4"/>
<path d="M987.5 933.7c2.7999999999999545 0 5.7000000000000455 2.3999999999999773 6.5 5.2999999999999545l0.2999999999999545 1.7000000000000455 0 45.299999999999955c0 3-2.2999999999999545 5.899999999999977-5.099999999999909 6.7000000000000455l-1.7000000000000455 0.2999999999999545-45.5 0c-2.7999999999999545 0-5.600000000000023-2.3999999999999773-6.5-5.2000000000000455l-0.2999999999999545-1.7999999999999545 0-25.5c0-2.8999999999999773 2.3999999999999773-5.7999999999999545 5.199999999999932-6.7000000000000455l1.6000000000000227-0.2999999999999545 5.7000000000000455 0c2.8999999999999773 0 5.699999999999932-2.3999999999999773 6.599999999999909-5.2999999999999545l0.20000000000004547-1.7000000000000455 0-5.7999999999999545c0-2.900000000000091 2.3999999999999773-5.800000000000068 5.2000000000000455-6.7000000000000455l1.6999999999999318-0.2999999999999545 26.100000000000023 0z m-143.20000000000005 19.799999999999955c2.900000000000091 0 5.7000000000000455 2.3999999999999773 6.600000000000023 5.2000000000000455l0.20000000000004547 1.7999999999999545 0 25.5c0 3-2.300000000000068 5.899999999999977-5.100000000000023 6.7000000000000455l-1.7000000000000455 0.2999999999999545-59.09999999999991 0c-2.800000000000068 0-5.7000000000000455-2.3999999999999773-6.5-5.2000000000000455l-0.3000000000000682-1.7999999999999545 0-25.5c0-2.8999999999999773 2.3999999999999773-5.7999999999999545 5.100000000000023-6.7000000000000455l1.7000000000000455-0.2999999999999545 59.09999999999991 0z m142.10000000000002-176.79999999999995c2.800000000000068 0 5.600000000000023 2.5 6.5 5.2999999999999545l0.3000000000000682 1.7000000000000455 0 58.19999999999993c0 2.8999999999999773-2.400000000000091 5.800000000000068-5.100000000000023 6.7000000000000455l-1.7000000000000455 0.1999999999999318-25 0c-2.8999999999999773 0-5.699999999999932-2.3999999999999773-6.600000000000023-5.199999999999932l-0.2999999999999545-1.7000000000000455 0-58.19999999999993c0-2.900000000000091 2.3999999999999773-5.800000000000068 5.2000000000000455-6.7000000000000455l1.6999999999999318-0.2999999999999545 25 0z m0-155.80000000000007c2.800000000000068 0 5.600000000000023 2.5 6.5 5.300000000000068l0.3000000000000682 1.6999999999999318 0 58.10000000000002c0 3-2.400000000000091 5.899999999999977-5.100000000000023 6.7000000000000455l-1.7000000000000455 0.2999999999999545-25 0c-2.8999999999999773 0-5.699999999999932-2.3999999999999773-6.600000000000023-5.2000000000000455l-0.2999999999999545-1.7999999999999545 0-58.10000000000002c0-2.8999999999999773 2.3999999999999773-5.7999999999999545 5.2000000000000455-6.699999999999932l1.6999999999999318-0.3000000000000682 25 0z m-292-467.9l192.60000000000002-53.400000000000006c6-2.0999999999999943 11.200000000000045 2.3000000000000114 11.5 7.300000000000011l-0.20000000000004547 2-52.09999999999991 198.6c-1 6.199999999999989-8.300000000000068 8.800000000000011-13.100000000000023 6l-1.6000000000000227-1.3000000000000114-53.299999999999955-54.599999999999966-402.1 412.4c-10.200000000000045 10.5-26.100000000000023 10.5-36.30000000000001 0-9.199999999999989-9.5-10.100000000000023-23.799999999999955-2.5-34.200000000000045l2.5-2.8999999999999773 402.2-411.29999999999995-52.10000000000002-53.50000000000003c-4-4.099999999999994-2.699999999999932-11 2.3999999999999773-14.099999999999994l2.1000000000000227-1 192.60000000000002-53.400000000000006-192.60000000000002 53.400000000000006z m292 311c2.800000000000068 0 5.600000000000023 2.3999999999999773 6.5 5.199999999999989l0.3000000000000682 1.6999999999999886 0 58.200000000000045c0 2.8999999999999773-2.400000000000091 5.7999999999999545-5.100000000000023 6.699999999999932l-1.7000000000000455 0.20000000000004547-25 0c-2.8999999999999773 0-5.699999999999932-2.3999999999999773-6.600000000000023-5.2000000000000455l-0.2999999999999545-1.6999999999999318 0-58.200000000000045c0-2.8999999999999773 2.3999999999999773-5.7999999999999545 5.2000000000000455-6.699999999999989l1.6999999999999318-0.19999999999998863 25 0z m0-157c2.800000000000068 0 5.600000000000023 2.3999999999999773 6.5 5.199999999999989l0.3000000000000682 1.8000000000000114 0 58.10000000000002c0 2.8999999999999773-2.400000000000091 5.7999999999999545-5.100000000000023 6.699999999999989l-1.7000000000000455 0.30000000000001137-25 0c-2.8999999999999773 0-5.699999999999932-2.5-6.600000000000023-5.300000000000011l-0.2999999999999545-1.6999999999999886 0-58.10000000000002c0-3 2.3999999999999773-5.899999999999977 5.2000000000000455-6.699999999999989l1.6999999999999318-0.30000000000001137 25 0z m-947.8-155.8c2.8999999999999773 0 5.699999999999974 2.4000000000000057 6.59999999999998 5.200000000000017l0.29999999999999716 1.6999999999999886 0 58.20000000000002c0 2.8999999999999773-2.3999999999999986 5.799999999999983-5.200000000000003 6.699999999999989l-1.6999999999999957 0.30000000000001137-26.1 0c-2.8000000000000007 0-5.7-2.5-6.5-5.300000000000011l-0.2999999999999998-1.6999999999999886 0-58.20000000000002c0-2.9000000000000057 2.3-5.799999999999983 5.1000000000000005-6.699999999999989l1.6999999999999993-0.20000000000001705 26.1 0z m922.8 0l25 0c2.800000000000068 0 5.600000000000023 2.4000000000000057 6.5 5.200000000000017l0.3000000000000682 1.6999999999999886 0 58.20000000000002c0 2.8999999999999773-2.400000000000091 5.799999999999983-5.100000000000023 6.699999999999989l-1.7000000000000455 0.30000000000001137-25 0c-2.8999999999999773 0-5.699999999999932-2.5-6.600000000000023-5.300000000000011l-0.2999999999999545-1.6999999999999886 0-58.20000000000002c0-2.9000000000000057 2.3999999999999773-5.799999999999983 5.2000000000000455-6.699999999999989l1.6999999999999318-0.20000000000001705z m-903.4-144.2c2.799999999999997 0 5.600000000000001 2.4000000000000004 6.5 5.199999999999999l0.29999999999999716 1.8000000000000007 0 25.5c0 2.8999999999999986-2.3999999999999986 5.799999999999997-5.199999999999996 6.700000000000003l-1.6000000000000014 0.29999999999999716-5.700000000000003 0c-2.8999999999999986 0-5.699999999999996 2.3999999999999986-6.599999999999994 5.299999999999997l-0.20000000000000284 1.7000000000000028 0 5.799999999999997c0 2.9000000000000057-2.3999999999999986 5.799999999999997-5.200000000000003 6.700000000000003l-1.6999999999999957 0.29999999999999716-26.1 0c-2.8000000000000007 0-5.7-2.3999999999999986-6.5-5.299999999999997l-0.2999999999999998-1.7000000000000028 0-45.3c0-3 2.3-5.9 5.1000000000000005-6.7l1.6999999999999993-0.2999999999999998 45.5 0z m929.5 0c2.7999999999999545 0 5.7000000000000455 2.4000000000000004 6.5 5.199999999999999l0.2999999999999545 1.8000000000000007 0 45.3c0 2.9000000000000057-2.2999999999999545 5.799999999999997-5.099999999999909 6.700000000000003l-1.7000000000000455 0.29999999999999716-26.100000000000023 0c-2.8999999999999773 0-5.699999999999932-2.3999999999999986-6.600000000000023-5.299999999999997l-0.2999999999999545-1.7000000000000028 0-5.799999999999997c0-2.8999999999999986-2.2999999999999545-5.799999999999997-5.100000000000023-6.700000000000003l-1.6999999999999318-0.29999999999999716-5.7000000000000455 0c-2.7999999999999545 0-5.600000000000023-2.3999999999999986-6.5-5.200000000000003l-0.2999999999999545-1.7999999999999972 0-25.5c0-3 2.3999999999999773-5.9 5.199999999999932-6.7l1.6000000000000227-0.2999999999999998 45.5 0z m-301.1 0c2.800000000000068 0 5.600000000000023 2.4000000000000004 6.5 5.199999999999999l0.3000000000000682 1.8000000000000007 0 25.5c0 2.8999999999999986-2.400000000000091 5.799999999999997-5.100000000000023 6.700000000000003l-1.7000000000000455 0.29999999999999716-59.10000000000002 0c-2.8999999999999773 0-5.699999999999932-2.3999999999999986-6.599999999999909-5.200000000000003l-0.20000000000004547-1.7999999999999972 0-25.5c0-3 2.2999999999999545-5.9 5.100000000000023-6.7l1.6999999999999318-0.2999999999999998 59.10000000000002 0z m-471.59999999999997 0c2.799999999999983 0 5.699999999999989 2.4000000000000004 6.5 5.199999999999999l0.29999999999998295 1.8000000000000007 0 25.5c0 2.8999999999999986-2.4000000000000057 5.799999999999997-5.099999999999994 6.700000000000003l-1.6999999999999886 0.29999999999999716-59.10000000000002 0c-2.8999999999999773 0-5.699999999999989-2.3999999999999986-6.599999999999994-5.200000000000003l-0.19999999999998863-1.7999999999999972 0-25.5c0-3 2.299999999999983-5.9 5.099999999999994-6.7l1.6999999999999886-0.2999999999999998 59.10000000000002 0z m314.7 0c2.8999999999999773 0 5.7000000000000455 2.4000000000000004 6.600000000000023 5.199999999999999l0.2999999999999545 1.8000000000000007 0 25.5c0 2.8999999999999986-2.3999999999999773 5.799999999999997-5.199999999999932 6.700000000000003l-1.7000000000000455 0.29999999999999716-59 0c-2.8999999999999773 0-5.699999999999989-2.3999999999999986-6.600000000000023-5.200000000000003l-0.2999999999999545-1.7999999999999972 0-25.5c0-3 2.3999999999999773-5.9 5.199999999999989-6.7l1.6999999999999886-0.2999999999999998 59 0z m-156.8 0c2.900000000000034 0 5.699999999999989 2.4000000000000004 6.600000000000023 5.199999999999999l0.19999999999998863 1.8000000000000007 0 25.5c0 2.8999999999999986-2.3000000000000114 5.799999999999997-5.100000000000023 6.700000000000003l-1.6999999999999886 0.29999999999999716-59.099999999999966 0c-2.8000000000000114 0-5.600000000000023-2.3999999999999986-6.5-5.200000000000003l-0.30000000000001137-1.7999999999999972 0-25.5c0-3 2.3999999999999773-5.9 5.099999999999966-6.7l1.7000000000000455-0.2999999999999998 59.099999999999966 0z m471.59999999999997 0c2.900000000000091 0 5.7000000000000455 2.4000000000000004 6.600000000000023 5.199999999999999l0.20000000000004547 1.8000000000000007 0 25.5c0 2.8999999999999986-2.300000000000068 5.799999999999997-5.100000000000023 6.700000000000003l-1.7000000000000455 0.29999999999999716-59.09999999999991 0c-2.800000000000068 0-5.7000000000000455-2.3999999999999986-6.5-5.200000000000003l-0.3000000000000682-1.7999999999999972 0-25.5c0-3 2.3999999999999773-5.9 5.100000000000023-6.7l1.7000000000000455-0.2999999999999998 59.09999999999991 0z"/>
</svg>
