<svg xmlns="http://www.w3.org/2000/svg" viewBox="0 0 1000 1000" width="1000" height="1000">
<path d="M496.9 19.4l2.1000000000000227 4.300000000000001 380 923.0999999999999c7.399999999999977 18.100000000000023 0.10000000000002274 38.700000000000045-16.399999999999977 48.200000000000045l-4.300000000000068 2.1000000000000227-4.5 1.5c-16.799999999999955 4.699999999999932-34.59999999999991-2.800000000000068-43.19999999999993-18l-2.1000000000000227-4.300000000000068-41-99.69999999999993c-3.5 0-6.899999999999977-0.5-10.299999999999955-1.5l-4.900000000000091-1.7000000000000455-210.0999999999999-88.69999999999993-178.70000000000005-32.30000000000007 234.39999999999998-287.9-25.699999999999932-62.5-301.50000000000006 267.70000000000005-179.2-75.70000000000005c-14.400000000000006-6.100000000000023-24-19.899999999999977-24.799999999999997-35.60000000000002-0.7000000000000028-13.899999999999977 5.700000000000003-27.100000000000023 16.700000000000003-35.10000000000002l4.3999999999999915-2.7999999999999545 430.2-250.2-89.39999999999998-217.20000000000002c-7.400000000000034-18.099999999999994-0.10000000000002274-38.599999999999994 16.299999999999955-48.099999999999994l4.300000000000011-2.1 4.600000000000023-1.5c16.69999999999999-4.699999999999999 34.5 2.8000000000000003 43.099999999999966 18z m439.30000000000007 78.1l-0.5 4.599999999999994-98.90000000000009 604.4-144-353.7 84.5-105c7.300000000000068-9-3.3999999999999773-20.700000000000017-12.399999999999977-15.600000000000023l-2 1.5-86.89999999999998 78-44.10000000000002-108.29999999999998 244.10000000000002-143.5c26.200000000000045-15.500000000000007 58.5 3.499999999999993 60.200000000000045 32.89999999999999l0 4.700000000000003z" opacity="0.4"/>
<path d="M371 793.5l173.89999999999998 31.399999999999977-104.19999999999999 128c-21.899999999999977 27-65.69999999999999 14.100000000000023-69.39999999999998-21.199999999999932l-0.30000000000001137-5 0-133.20000000000005z"/>
</svg>
