<svg xmlns="http://www.w3.org/2000/svg" viewBox="0 0 1000 1000" width="1000" height="1000">
<path d="M659.8 0l-526.5999999999999 0c-18.40000000000005 0-33.200000000000045 14.8-33.200000000000045 33.2l0 933.5999999999999c0 18.40000000000009 14.799999999999997 33.200000000000045 33.19999999999999 33.200000000000045l233.8 0c18.399999999999977 0 33.19999999999999-14.799999999999955 33.19999999999999-33.200000000000045l0-40.799999999999955c0-18.399999999999977-14.800000000000011-33.200000000000045-33.19999999999999-33.200000000000045l-120.5 0c-18.400000000000006 0-33.19999999999999-14.899999999999977-33.19999999999999-33.19999999999993l0-707.1c0-18.30000000000001 14.799999999999983-33.2 33.19999999999999-33.2l280.5 0c18.299999999999955 0 33.200000000000045 14.899999999999991 33.200000000000045 33.2l0 154.10000000000002 160.0999999999999 0c18.40000000000009 0 33.200000000000045 14.899999999999977 33.200000000000045 33.19999999999999l0 160.59999999999997c0 18.399999999999977 14.899999999999977 33.200000000000045 33.200000000000045 33.200000000000045l47.09999999999991 0c18.300000000000068 0 33.200000000000045-14.800000000000068 33.200000000000045-33.200000000000045l0-293.4c0-8.800000000000011-3.5-17.19999999999999-9.799999999999955-23.400000000000006l-174-173.79999999999998c-6.2000000000000455-6.300000000000011-14.600000000000023-9.800000000000011-23.40000000000009-9.800000000000011z" opacity="0.4"/>
<path d="M712.3 660.2l-31.199999999999932 0c-22.700000000000045 0-41.10000000000002 18.299999999999955-41.10000000000002 41l0 72.19999999999993-72.20000000000005 0c-22.699999999999932 0-41 18.399999999999977-41 41.10000000000002l0 31.200000000000045c0 22.699999999999932 18.300000000000068 41 41 41l72.20000000000005 0 0 72.29999999999995c0 22.600000000000023 18.399999999999977 41 41.10000000000002 41l31.199999999999932 0c22.700000000000045 0 41-18.399999999999977 41-41l0-72.29999999999995 72.30000000000007 0c22.600000000000023 0 41-18.300000000000068 41-41l0-31.200000000000045c0-22.700000000000045-18.399999999999977-41.10000000000002-41-41.10000000000002l-72.30000000000007 0 0-72.19999999999993c0-22.700000000000045-18.299999999999955-41-41-41z"/>
</svg>
