<svg xmlns="http://www.w3.org/2000/svg" viewBox="0 0 1000 1000" width="1000" height="1000">
<path d="M618.8 100c210.20000000000005 0 381.20000000000005 171 381.20000000000005 381.2 0 210.09999999999997-171 381.09999999999997-381.20000000000005 381.09999999999997-91.5 0-174.99999999999994-31.799999999999955-240.39999999999998-85.29999999999995l-8.799999999999955-7.399999999999977 85.5 0c44.89999999999998 0 81.10000000000002-36.30000000000007 81.10000000000002-81.20000000000005 0-43.10000000000002-33.400000000000034-78.19999999999993-75.80000000000007-81l-5.2999999999999545-0.1999999999999318-147.90000000000003 0c-15.899999999999977 0-30.399999999999977 4.399999999999977-43.39999999999998 13.099999999999909-5.5-14.099999999999909-10.100000000000023-28.299999999999955-13.900000000000006-43l-3.5-15 208.70000000000002 0c44.89999999999998 0 81.10000000000002-36.19999999999993 81.10000000000002-81.09999999999997 0-43.19999999999999-33.400000000000034-78.30000000000001-75.80000000000007-81l-5.2999999999999545-0.19999999999998863-208.70000000000002 0c2.1999999999999886-10.899999999999977 5.099999999999994-22.600000000000023 8.900000000000006-33.80000000000001l4.099999999999966-11.099999999999966 195.70000000000005 0c44.89999999999998 0 81.10000000000002-36.30000000000001 81.10000000000002-81.20000000000005 0-43.099999999999966-33.400000000000034-78.19999999999999-75.80000000000007-80.99999999999997l-5.2999999999999545-0.09999999999999432-85.5 0c68.09999999999997-58 153.60000000000002-92.80000000000001 249.19999999999993-92.80000000000001z m-320.19999999999993 544.9l147.79999999999995 0c24.600000000000023 0 44.900000000000034 20.300000000000068 44.900000000000034 45 0 23.100000000000023-18 42.5-40.60000000000002 44.700000000000045l-4.300000000000011 0.1999999999999318-147.79999999999995 0c-24.700000000000045 0-45.00000000000003-20.299999999999955-45.00000000000003-44.89999999999998 0-23.199999999999932 18.00000000000003-42.60000000000002 40.70000000000002-44.799999999999955l4.300000000000011-0.20000000000004547z m147.79999999999995-207.2c24.600000000000023 0 44.900000000000034 20.30000000000001 44.900000000000034 44.900000000000034 0 23.19999999999999-18 42.5-40.60000000000002 44.69999999999993l-4.300000000000011 0.20000000000004547-275.4 0c-24.599999999999994 0-44.900000000000006-20.30000000000001-44.900000000000006-44.89999999999998 0-23.200000000000045 18-42.5 40.599999999999994-44.700000000000045l4.300000000000011-0.19999999999998863 275.4 0z m0-207.29999999999998c24.600000000000023 0 44.900000000000034 20.299999999999983 44.900000000000034 44.99999999999997 0 23.200000000000045-18 42.5-40.60000000000002 44.700000000000045l-4.300000000000011 0.19999999999998863-401.5 0c-24.599999999999977 0-44.89999999999998-20.30000000000001-44.89999999999998-44.900000000000034 0-23.19999999999999 18-42.599999999999966 40.6-44.79999999999998l4.299999999999997-0.19999999999998863 401.5 0z" opacity="0.4"/>
<path d="M618.8 100c-95.59999999999991 0-181.09999999999997 34.80000000000001-249.19999999999993 92.80000000000001l85.5 0c44.89999999999998 0 81.10000000000002 36.19999999999999 81.10000000000002 81.09999999999997 0 44.900000000000034-36.200000000000045 81.20000000000005-81.10000000000002 81.20000000000005l-195.70000000000005 0c-5.799999999999983 14.5-10.099999999999966 30.399999999999977-12.999999999999972 44.89999999999998l208.70000000000002 0c44.89999999999998 0 81.10000000000002 36.19999999999999 81.10000000000002 81.19999999999999 0 44.900000000000034-36.200000000000045 81.09999999999997-81.10000000000002 81.09999999999997l-208.70000000000002 0c4.299999999999983 20.300000000000068 10.099999999999994 39.10000000000002 17.400000000000006 58 13-8.699999999999932 27.5-13.099999999999909 43.39999999999998-13.099999999999909l147.90000000000003 0c44.89999999999998 0 81.10000000000002 36.299999999999955 81.10000000000002 81.19999999999993 0 44.89999999999998-36.200000000000045 81.20000000000005-81.10000000000002 81.20000000000005l-85.5 0c66.59999999999997 57.89999999999998 153.60000000000002 92.69999999999993 249.19999999999993 92.69999999999993 210.20000000000005 0 381.20000000000005-171 381.20000000000005-381.09999999999997 0-210.2-171-381.2-381.20000000000005-381.2z"/>
</svg>
