<svg xmlns="http://www.w3.org/2000/svg" viewBox="0 0 1000 1000" width="1000" height="1000">
<path d="M661.1 133.3c16.799999999999955 0 29.699999999999932 12.899999999999977 29.699999999999932 29.799999999999983l0 72.20000000000002 156.80000000000007 0c5.899999999999977 0 9.899999999999977 4 9.899999999999977 9.899999999999977l0 109.10000000000002c0 6-4 10-9.899999999999977 10l-704.3 0c-6.000000000000057 0-10.000000000000057-4-10.000000000000057-10l0-109.10000000000002c0-5.899999999999977 4-9.899999999999977 10-9.899999999999977l164.59999999999997 0 0-72.20000000000002c0-16.900000000000006 12.900000000000034-29.799999999999983 29.80000000000001-29.799999999999983l323.40000000000003 0z" opacity="0.4"/>
<path d="M736.5 959.4l-473.2 0c-21.80000000000001 0-40.70000000000002-17.799999999999955-40.70000000000002-39.60000000000002l0-515.9 545.6 0 0 515.9c0 21.800000000000068-9.900000000000091 39.60000000000002-31.700000000000045 39.60000000000002z m-216.29999999999995-466.2l-49.60000000000002 0 0 297.59999999999997 49.60000000000002 0 0-297.59999999999997z m119 0l-39.60000000000002 0 0 297.59999999999997 39.60000000000002 0 0-297.59999999999997z m-248.00000000000006 0l-49.599999999999966 0 0 297.59999999999997 49.599999999999966 0 0-297.59999999999997z"/>
</svg>
