<svg xmlns="http://www.w3.org/2000/svg" viewBox="0 0 1000 1000" width="1000" height="1000">
<path d="M339.6 839.6l-60.400000000000034-60.39999999999998 90.80000000000001-90c16.30000000000001-16.300000000000068 16.30000000000001-42.90000000000009 0-59.200000000000045-16.19999999999999-16.200000000000045-42.89999999999998-16.200000000000045-59.19999999999999 0l-90 90.79999999999995-60.400000000000006-60.39999999999998c-12.900000000000006-12.899999999999977-35.400000000000006-3.699999999999932-35.400000000000006 15l0 178.80000000000007c0 11.599999999999909 9.199999999999989 20.799999999999955 20.80000000000001 20.799999999999955l178.8 0c18.69999999999999 0 27.899999999999977-22.5 15-35.39999999999998z" opacity="0.4"/>
<path d="M660.4 160.4l60.39999999999998 60.400000000000006-90.79999999999995 90c-16.200000000000045 16.30000000000001-16.200000000000045 43 0 59.19999999999999 16.299999999999955 16.30000000000001 42.89999999999998 16.30000000000001 59.200000000000045 0l90-90.80000000000001 60.39999999999998 60.400000000000034c12.899999999999977 12.899999999999977 35.39999999999998 3.6999999999999886 35.39999999999998-15l0-178.8c0-11.600000000000023-9.200000000000045-20.80000000000001-20.799999999999955-20.80000000000001l-178.80000000000007 0c-18.699999999999932 0-27.899999999999977 22.5-15 35.400000000000006l0 0z"/>
</svg>
