<svg xmlns="http://www.w3.org/2000/svg" viewBox="0 0 1000 1000" width="1000" height="1000">
<path d="M166.7 625l83.30000000000001 0c21.5 0 39.30000000000001 16.5 41.5 37.39999999999998l0.19999999999998863 4.300000000000068 0 83.29999999999995c0 21.5-16.5 39.299999999999955-37.5 41.5l-4.199999999999989 0.20000000000004547-83.30000000000001 0c-21.5 0-39.29999999999998-16.5-41.499999999999986-37.5l-0.20000000000000284-4.2000000000000455 0-83.29999999999995c0-21.5 16.5-39.30000000000007 37.400000000000006-41.5l4.299999999999983-0.20000000000004547z m0-208.3l83.30000000000001 0c21.5 0 39.30000000000001 16.400000000000034 41.5 37.400000000000034l0.19999999999998863 4.199999999999989 0 83.40000000000003c0 21.5-16.5 39.299999999999955-37.5 41.39999999999998l-4.199999999999989 0.1999999999999318-83.30000000000001 0c-21.5 0-39.29999999999998-16.399999999999977-41.499999999999986-37.39999999999998l-0.20000000000000284-4.199999999999932 0-83.40000000000003c0-21.5 16.5-39.30000000000001 37.400000000000006-41.400000000000034l4.299999999999983-0.19999999999998863z m0-208.39999999999998l83.30000000000001 0c21.5 0 39.30000000000001 16.5 41.5 37.5l0.19999999999998863 4.199999999999989 0 83.30000000000001c0 21.5-16.5 39.30000000000001-37.5 41.5l-4.199999999999989 0.19999999999998863-83.30000000000001 0c-21.5 0-39.29999999999998-16.5-41.499999999999986-37.39999999999998l-0.20000000000000284-4.300000000000011 0-83.30000000000001c0-21.5 16.5-39.30000000000001 37.400000000000006-41.5l4.299999999999983-0.19999999999998863 83.30000000000001 0-83.30000000000001 0z"/>
</svg>
