<svg xmlns="http://www.w3.org/2000/svg" viewBox="0 0 1000 1000" width="1000" height="1000">
<path d="M959.6 280.8c1.7999999999999545 8.099999999999966 2.199999999999932 16.19999999999999 2.199999999999932 26.599999999999966l0 367.80000000000007c0 63.09999999999991-22.09999999999991 90.09999999999991-67.09999999999991 115.39999999999998l-345.70000000000005 191.5c-5.5 3.199999999999932-10.899999999999977 5.399999999999977-16.299999999999955 6.2999999999999545l0-469.19999999999993 426.9-238.40000000000003z m-461.6-280.8c26.100000000000023 0 52.10000000000002 6.4 77.79999999999995 18.9l9.700000000000045 5 319.79999999999995 177.6c6.900000000000091 3.9000000000000057 12.900000000000091 8 18.100000000000023 12.5l5.100000000000023 4.599999999999994-430.9 238.00000000000003-430.5-238.00000000000003c6.199999999999974-6.099999999999994 13.499999999999972-11.400000000000006 21.899999999999977-16.5l6.5-3.799999999999983 314.6-174.4c28.399999999999977-15.800000000000006 58.19999999999999-23.900000000000006 87.89999999999998-23.900000000000006z" opacity="0.4"/>
<path d="M462.9 988.4l0-469.19999999999993-426.9-238.40000000000003c-1.7999999999999972 8.099999999999966-2.700000000000003 16.19999999999999-2.700000000000003 26.599999999999966l0 367.80000000000007c0 63.09999999999991 22.1 90.09999999999991 67.2 115.39999999999998l345.7 191.5c5.400000000000034 3.199999999999932 10.800000000000011 5.399999999999977 16.69999999999999 6.2999999999999545z"/>
</svg>
