<svg xmlns="http://www.w3.org/2000/svg" viewBox="0 0 1000 1000" width="1000" height="1000">
<path d="M637.3 241.8c20.700000000000045 0.19999999999998863 38.30000000000007 15 41.90000000000009 35.30000000000001l10.199999999999932 55.69999999999999c23.899999999999977 6.599999999999966 46.89999999999998 16.30000000000001 68.39999999999998 28.80000000000001l46.700000000000045-32.400000000000034c17-12 40.200000000000045-9.899999999999977 54.89999999999998 4.800000000000011l33.39999999999998 33.30000000000001c14.700000000000045 14.800000000000011 16.700000000000045 37.89999999999998 4.800000000000068 54.89999999999998l-32.5 46.400000000000034c12.600000000000023 21.69999999999999 22.299999999999955 45.10000000000002 28.799999999999955 69.39999999999998l55.60000000000002 10.200000000000045c20.200000000000045 3.5 35.10000000000002 21 35.39999999999998 41.5l0 46.89999999999998c0 20.799999999999955-15 38.60000000000002-35.39999999999998 42.19999999999993l-55.60000000000002 10.200000000000045c-6.600000000000023 24.100000000000023-16.299999999999955 47.200000000000045-28.799999999999955 68.79999999999995l32.5 46.30000000000007c12.399999999999977 17.199999999999932 10.299999999999955 40.89999999999998-4.800000000000068 55.69999999999993l-33 33c-14.699999999999932 14.700000000000045-37.89999999999998 16.700000000000045-54.89999999999998 4.800000000000068l-47.10000000000002-32.5c-21.799999999999955 12.600000000000023-45.09999999999991 22.199999999999932-69.39999999999998 28.799999999999955l-10.199999999999932 55.60000000000002c-3.6000000000000227 20.399999999999977-21.40000000000009 35.39999999999998-42.200000000000045 35.39999999999998l-46.299999999999955 0c-20.800000000000068 0-38.5-15-42.10000000000002-35.39999999999998l-10.300000000000068-55.60000000000002c-24.199999999999932-6.600000000000023-47.49999999999994-16.199999999999932-69.19999999999993-28.799999999999955l-46 32.5c-17 11.899999999999977-40.10000000000002 9.899999999999977-54.900000000000034-4.800000000000068l-33.30000000000001-33c-14.899999999999977-14.799999999999955-16.899999999999977-38.19999999999993-4.699999999999989-55.299999999999955l32.400000000000034-46.700000000000045c-12.5-21.799999999999955-22.200000000000045-45.09999999999991-28.700000000000045-69.29999999999995l-55.69999999999999-10.200000000000045c-20.399999999999977-3.599999999999909-35.29999999999998-21.399999999999977-35.39999999999998-42.19999999999993l0-46.39999999999998c0.09999999999999432-20.700000000000045 14.899999999999977-38.5 35.30000000000001-42.10000000000002l55.69999999999999-10.300000000000068c6.5-24.199999999999932 16.19999999999999-47.599999999999966 28.69999999999999-69.29999999999995l-32.30000000000001-45.89999999999998c-12-17-9.899999999999977-40.10000000000002 4.800000000000011-54.900000000000034l33.30000000000001-33.30000000000001c14.800000000000011-14.599999999999966 37.80000000000001-16.599999999999966 54.80000000000001-4.699999999999989l46.39999999999998 32.400000000000034c21.69999999999999-12.5 45-22.200000000000045 69.29999999999995-28.700000000000045l10.200000000000045-55.69999999999999c3.6000000000000227-20.399999999999977 21.299999999999955-35.29999999999998 42.10000000000002-35.39999999999998l47.19999999999993 0z m-23.899999999999977 244.09999999999997c-70.39999999999998 0-127.5 57.10000000000002-127.5 127.5 0 70.39999999999998 57.10000000000002 127.39999999999998 127.5 127.39999999999998 70.39999999999998 0 127.39999999999998-57 127.39999999999998-127.39999999999998 0-70.39999999999998-57-127.5-127.39999999999998-127.5z" opacity="0.4"/>
<path d="M27.9 344.5c-16.2-2.8999999999999773-27.9-16.899999999999977-27.9-33.30000000000001l0-37.099999999999966c0-16.400000000000034 11.7-30.400000000000034 27.9-33.30000000000001l43.800000000000004-7.600000000000023c5.200000000000003-19.099999999999994 12.899999999999991-37.5 22.799999999999997-54.599999999999994l-25.700000000000003-36.599999999999994c-9.399999999999999-13.400000000000006-7.799999999999997-31.599999999999994 3.799999999999997-43.2l26.30000000000001-26.39999999999999c11.5-11.500000000000007 29.69999999999999-13.100000000000009 43.099999999999994-3.700000000000003l36.599999999999994 25.799999999999997c17.099999999999994-9.900000000000006 35.5-17.5 54.599999999999994-22.700000000000003l7.600000000000023-43.8c2.799999999999983-16.2 16.899999999999977-28 33.30000000000001-28l37.19999999999999 0c16.399999999999977 0 30.30000000000001 11.8 33.19999999999999 27.9l7.600000000000023 43.800000000000004c19.19999999999999 5.200000000000003 37.599999999999966 12.899999999999991 54.69999999999999 22.799999999999997l36.5-25.599999999999994c13.399999999999977-9.400000000000006 31.599999999999966-7.800000000000004 43.099999999999966 3.799999999999997l26.5 26.200000000000003c11.5 11.599999999999994 13.100000000000023 29.799999999999983 3.7000000000000455 43.19999999999999l-25.600000000000023 36.5c7.5 13.200000000000017 13.600000000000023 27.200000000000017 18.30000000000001 41.599999999999994-10.900000000000034 13.5-18.19999999999999 29.5-21.19999999999999 46.5l-3.6000000000000227 20.400000000000034-10.899999999999977 4.5-16.900000000000034-11.700000000000045c-17.30000000000001-12.199999999999989-38-18.69999999999999-59.30000000000001-18.69999999999999-3.2999999999999545 0-6.5 0.6000000000000227-10.199999999999989 0.9000000000000341-14.199999999999989-45.20000000000002-58.30000000000001-74.30000000000001-105.5-69.50000000000003-47.29999999999998 4.800000000000011-84.6 42.099999999999994-89.5 89.4-4.899999999999977 47.19999999999999 24.100000000000023 91.30000000000001 69.30000000000001 105.69999999999999-2.3999999999999773 24.400000000000034 4.100000000000023 49 18.19999999999999 69.10000000000002l11.800000000000011 16.899999999999977c-1.5 3.5-3 7.199999999999989-4.5 10.900000000000034l-20.399999999999977 3.599999999999966c-17.00000000000003 3-33.00000000000003 10.300000000000011-46.50000000000003 21.19999999999999-14.400000000000006-4.699999999999989-28.400000000000006-10.799999999999955-41.599999999999994-18.299999999999955l-36.599999999999994 25.600000000000023c-13.400000000000006 9.299999999999955-31.5 7.699999999999932-43-3.800000000000068l-26.30000000000001-26.399999999999977c-11.599999999999994-11.600000000000023-13.199999999999996-29.80000000000001-3.799999999999997-43.19999999999999l25.700000000000003-36.5c-9.900000000000006-17.100000000000023-17.5-35.400000000000034-22.700000000000003-54.60000000000002l-43.9-7.699999999999989z"/>
</svg>
