<svg xmlns="http://www.w3.org/2000/svg" viewBox="0 0 1000 1000" width="1000" height="1000">
<path d="M659.8 0l-526.5999999999999 0c-18.40000000000005 0-33.200000000000045 14.8-33.200000000000045 33.2l0 933.5999999999999c0 18.40000000000009 14.799999999999997 33.200000000000045 33.19999999999999 33.200000000000045l233.8 0c18.399999999999977 0 33.19999999999999-14.799999999999955 33.19999999999999-33.200000000000045l0-40.799999999999955c0-18.399999999999977-14.800000000000011-33.200000000000045-33.19999999999999-33.200000000000045l-120.5 0c-18.400000000000006 0-33.19999999999999-14.899999999999977-33.19999999999999-33.19999999999993l0-707.1c0-18.30000000000001 14.799999999999983-33.2 33.19999999999999-33.2l280.5 0c18.299999999999955 0 33.200000000000045 14.899999999999991 33.200000000000045 33.2l0 154.10000000000002 160.0999999999999 0c18.40000000000009 0 33.200000000000045 14.899999999999977 33.200000000000045 33.19999999999999l0 160.59999999999997c0 18.399999999999977 14.899999999999977 33.200000000000045 33.200000000000045 33.200000000000045l47.09999999999991 0c18.300000000000068 0 33.200000000000045-14.800000000000068 33.200000000000045-33.200000000000045l0-293.4c0-8.800000000000011-3.5-17.19999999999999-9.799999999999955-23.400000000000006l-174-173.79999999999998c-6.2000000000000455-6.300000000000011-14.600000000000023-9.800000000000011-23.40000000000009-9.800000000000011z" opacity="0.4"/>
<path d="M566.7 766.7h266.5999999999999c18.40000000000009 0 33.40000000000009 14.899999999999977 33.40000000000009 33.299999999999955v33.299999999999955c0 18.40000000000009-15 33.40000000000009-33.40000000000009 33.40000000000009h-266.5999999999999c-18.40000000000009 0-33.40000000000009-15-33.40000000000009-33.40000000000009v-33.299999999999955c0-18.399999999999977 15-33.299999999999955 33.40000000000009-33.299999999999955z"/>
</svg>
