<svg xmlns="http://www.w3.org/2000/svg" viewBox="0 0 1000 1000" width="1000" height="1000">
<path d="M375 625l416.70000000000005 0c21.5 0 39.299999999999955 16.5 41.39999999999998 37.39999999999998l0.1999999999999318 4.300000000000068 0 83.29999999999995c0 21.5-16.399999999999977 39.299999999999955-37.39999999999998 41.5l-4.199999999999932 0.20000000000004547-416.70000000000005 0c-21.5 0-39.30000000000001-16.5-41.5-37.5l-0.19999999999998863-4.2000000000000455 0-83.29999999999995c0-21.5 16.5-39.30000000000007 37.5-41.5l4.199999999999989-0.20000000000004547z m0-208.3l416.70000000000005 0c21.5 0 39.299999999999955 16.400000000000034 41.39999999999998 37.400000000000034l0.1999999999999318 4.199999999999989 0 83.40000000000003c0 21.5-16.399999999999977 39.299999999999955-37.39999999999998 41.39999999999998l-4.199999999999932 0.1999999999999318-416.70000000000005 0c-21.5 0-39.30000000000001-16.399999999999977-41.5-37.39999999999998l-0.19999999999998863-4.199999999999932 0-83.40000000000003c0-21.5 16.5-39.30000000000001 37.5-41.400000000000034l4.199999999999989-0.19999999999998863z m0-208.39999999999998l416.70000000000005 0c21.5 0 39.299999999999955 16.5 41.39999999999998 37.5l0.1999999999999318 4.199999999999989 0 83.30000000000001c0 21.5-16.399999999999977 39.30000000000001-37.39999999999998 41.5l-4.199999999999932 0.19999999999998863-416.70000000000005 0c-21.5 0-39.30000000000001-16.5-41.5-37.39999999999998l-0.19999999999998863-4.300000000000011 0-83.30000000000001c0-21.5 16.5-39.30000000000001 37.5-41.5l4.199999999999989-0.19999999999998863 416.70000000000005 0-416.70000000000005 0z"/>
</svg>
