<svg xmlns="http://www.w3.org/2000/svg" viewBox="0 0 1000 1000" width="1000" height="1000">
<path d="M862 459.3l-161.89999999999998 162.7c-89.30000000000007 89.79999999999995-234.3 89.79999999999995-323.6 0-14.100000000000023-14.100000000000023-25.100000000000023-30-34.80000000000001-46.39999999999998l75.19999999999999-75.60000000000002c3.6000000000000227-3.6000000000000227 8-5.699999999999989 12.200000000000045-8.100000000000023 5.199999999999989 17.80000000000001 14.299999999999955 34.700000000000045 28.299999999999955 48.80000000000007 44.60000000000002 44.799999999999955 117.20000000000005 44.799999999999955 161.80000000000007 0l161.79999999999995-162.70000000000005c44.700000000000045-44.89999999999998 44.700000000000045-117.80000000000001 0-162.6-44.60000000000002-44.900000000000006-117.20000000000005-44.900000000000006-161.79999999999995 0l-57.60000000000002 57.900000000000006c-46.60000000000002-18.30000000000001-97-23.200000000000017-145.90000000000003-16l122.59999999999997-123.30000000000001c89.40000000000009-89.8 234.30000000000007-89.8 323.70000000000005 0 89.29999999999995 89.9 89.29999999999995 235.5 0 325.3z" opacity="0.4"/>
<path d="M434 726.8l-57.5 57.90000000000009c-44.69999999999999 44.799999999999955-117.30000000000001 44.799999999999955-161.9 0-44.599999999999994-44.90000000000009-44.599999999999994-117.90000000000009 0-162.70000000000005l161.9-162.7c44.60000000000002-44.80000000000001 117.19999999999999-44.80000000000001 161.79999999999995 0 13.900000000000091 14.099999999999966 23 31 28.300000000000068 48.80000000000001 4.199999999999932-2.5 8.600000000000023-4.5 12.100000000000023-8.100000000000023l75.29999999999995-75.60000000000002c-9.700000000000045-16.399999999999977-20.700000000000045-32.299999999999955-34.799999999999955-46.39999999999998-89.40000000000009-89.80000000000001-234.30000000000007-89.80000000000001-323.70000000000005 0l-161.8 162.70000000000005c-89.39999999999999 89.79999999999995-89.39999999999999 235.39999999999998 0 325.29999999999995 89.4 89.79999999999995 234.3 89.79999999999995 323.7 0l122.60000000000002-123.29999999999995c-49 7.2999999999999545-99.30000000000001 2.2999999999999545-146-15.900000000000091z"/>
</svg>
