<svg xmlns="http://www.w3.org/2000/svg" viewBox="0 0 1000 1000" width="1000" height="1000">
<path d="M941.1 494.7c0-244.2-197.89999999999998-442.09999999999997-442.20000000000005-442.09999999999997-244.2-2.1316282072803006e-14-442.09999999999997 197.89999999999998-442.09999999999997 442.09999999999997-1.4210854715202004e-14 244.2 197.89999999999998 442.09999999999997 442.09999999999997 442.09999999999997 244.30000000000007 0 442.20000000000005-197.89999999999998 442.20000000000005-442.09999999999997z m-225.30000000000007-81c26.300000000000068-7.399999999999977 55.80000000000007-11.599999999999966 86.30000000000007-11.599999999999966 31.600000000000023 0 62.10000000000002 4.199999999999989 88.39999999999998 11.599999999999966 5.2999999999999545 26.30000000000001 8.399999999999977 52.60000000000002 8.399999999999977 80 0 27.400000000000034-3.1000000000000227 54.69999999999999-8.399999999999977 80.00000000000006-26.299999999999955 7.399999999999977-56.799999999999955 11.599999999999909-88.39999999999998 11.599999999999909-30.5 0-60-4.199999999999932-86.30000000000007-11.599999999999909 9.5-25.300000000000068 14.700000000000045-52.60000000000002 14.700000000000045-81.10000000000002 0-26.30000000000001-5.2000000000000455-53.700000000000045-14.700000000000045-78.90000000000003z m-216.89999999999998 270.50000000000006c-104.19999999999999 0-189.39999999999998-85.30000000000007-189.39999999999998-189.50000000000006 0-104.19999999999999 85.19999999999999-189.39999999999998 189.39999999999998-189.39999999999998 104.30000000000007 0 189.5 85.19999999999999 189.5 189.39999999999998 0 104.19999999999999-85.19999999999993 189.50000000000006-189.5 189.50000000000006z m-400-189.50000000000006c2.842170943040401e-14-26.30000000000001 3.200000000000017-52.599999999999966 7.40000000000002-77.89999999999998 28.39999999999999-8.400000000000034 61.10000000000001-13.600000000000023 95.8-13.600000000000023 28.400000000000006 0 55.79999999999998 3.1000000000000227 80.00000000000003 9.400000000000034-9.5 25.299999999999955-14.700000000000045 52.69999999999999-14.700000000000045 82.09999999999997 0 29.500000000000057 5.2000000000000455 56.900000000000034 15.800000000000011 82.09999999999997-24.30000000000001 6.400000000000091-51.599999999999994 9.5-80 9.5-34.79999999999998 0-67.39999999999998-5.199999999999932-95.79999999999998-13.699999999999932-5.300000000000011-25.200000000000045-8.5-51.5-8.5-77.90000000000003z m483.20000000000005-391.5c8.399999999999977 27.30000000000001 12.600000000000023 58.900000000000006 12.600000000000023 91.5 0 30.600000000000023-4.2000000000000455 59-10.5 84.19999999999999-26.300000000000068-10.5-54.700000000000045-15.699999999999989-85.30000000000007-15.699999999999989-27.299999999999955 0-53.599999999999966 5.199999999999989-78.89999999999998 13.600000000000023-6.300000000000011-25.200000000000017-9.5-52.60000000000002-9.5-82.10000000000002 0-33.599999999999994 4.199999999999989-65.19999999999999 12.699999999999989-92.6 24.19999999999999-4.199999999999989 49.400000000000034-7.3999999999999915 75.69999999999999-7.3999999999999915 28.5 0 55.80000000000007 3.200000000000003 83.20000000000005 8.5z m-158.90000000000003 784.2c-8.5-27.40000000000009-12.699999999999989-59.000000000000114-12.699999999999989-92.70000000000005 0-29.40000000000009 3.1999999999999886-56.80000000000007 9.5-82.10000000000002 24.19999999999999 8.5 50.5 13.699999999999932 78.89999999999998 13.699999999999932 29.5 0 59-5.199999999999932 85.30000000000007-15.799999999999955 6.2999999999999545 25.299999999999955 10.5 54.799999999999955 10.5 84.20000000000005 0 32.69999999999993-4.2000000000000455 64.19999999999993-12.600000000000023 91.59999999999991-27.399999999999977 5.300000000000068-54.700000000000045 8.400000000000091-83.20000000000005 8.400000000000091-26.299999999999955 0-50.5-2.1000000000000227-75.69999999999999-7.300000000000068z" opacity="0.4"/>
<path d="M953.7 631.6c25.199999999999932 37.89999999999998 40 82.10000000000002 40 130.5 0 127.39999999999998-104.20000000000005 231.60000000000002-231.60000000000002 231.60000000000002-48.39999999999998 0-93.70000000000005-14.800000000000068-130.5-40 17.899999999999977-5.300000000000068 35.799999999999955-11.600000000000023 52.60000000000002-19 24.199999999999932 10.599999999999909 50.5 16.899999999999977 77.89999999999998 16.899999999999977 104.19999999999993 0 189.5-85.30000000000007 189.5-189.5 0-28.399999999999977-6.300000000000068-53.700000000000045-16.899999999999977-77.89999999999998 7.399999999999977-16.800000000000068 13.699999999999932-34.700000000000045 19-52.60000000000002z m-913.7 0c5.299999999999997 17.899999999999977 11.600000000000001 35.799999999999955 18.9 52.60000000000002-10.5 24.199999999999932-16.799999999999997 50.5-16.799999999999997 77.89999999999998 0 104.19999999999993 85.30000000000001 189.5 189.5 189.5 28.400000000000006 0 54.70000000000002-6.300000000000068 77.9-16.899999999999977 16.80000000000001 7.399999999999977 34.69999999999999 13.699999999999932 52.60000000000002 19-37.900000000000034 25.199999999999932-82.10000000000002 40-130.50000000000003 40-127.39999999999999 0-231.6-104.20000000000005-231.6-231.60000000000002 0-48.39999999999998 14.7-93.70000000000005 40-130.5z m722.1-631.6c127.39999999999998 0 231.60000000000002 104.2 231.60000000000002 231.6 0 48.400000000000006-14.800000000000068 92.6-40 130.50000000000003-5.300000000000068-17.900000000000034-11.600000000000023-35.80000000000001-19-52.60000000000002 10.599999999999909-24.19999999999999 16.899999999999977-50.60000000000002 16.899999999999977-77.9 0-104.19999999999999-85.30000000000007-189.5-189.5-189.5-27.399999999999977 7.105427357601002e-15-53.700000000000045 6.300000000000004-77.89999999999998 16.800000000000004-16.800000000000068-7.299999999999997-34.700000000000045-13.600000000000001-52.60000000000002-18.9 37.89999999999998-25.3 82.10000000000002-40 130.5-40z m-530.5 0c48.39999999999998 0 93.69999999999999 14.7 130.5 40-17.900000000000034 5.299999999999997-35.80000000000001 11.600000000000001-52.60000000000002 18.9-24.19999999999999-10.5-50.60000000000002-16.799999999999997-77.9-16.799999999999997-104.19999999999999 0-189.5 85.30000000000001-189.5 189.5 7.105427357601002e-15 28.400000000000006 6.300000000000004 53.70000000000002 16.800000000000004 77.9-7.299999999999997 16.80000000000001-13.600000000000001 34.69999999999999-18.9 52.60000000000002-25.3-37.900000000000034-40-82.10000000000002-40-130.50000000000003 0-127.39999999999999 104.2-231.6 231.6-231.6z"/>
</svg>
