<svg xmlns="http://www.w3.org/2000/svg" viewBox="0 0 1000 1000" width="1000" height="1000">
<path d="M222.2 166.7c30.600000000000023 0 55.60000000000002 25 55.60000000000002 55.5l0 555.5c0 30.5-25 55.5-55.60000000000002 55.5-30.5 0-55.5-25-55.5-55.5l0-555.5c0-30.500000000000057 25-55.50000000000006 55.5-55.50000000000006z" opacity="0.4"/>
<path d="M483.8 460.5l254.99999999999994-255c21.600000000000023-21.599999999999994 56.60000000000002-21.599999999999994 78.30000000000007 0 20.199999999999932 20.30000000000001 21.600000000000023 52.10000000000002 4 73.89999999999998l-4 4.5-216.10000000000002 216 215.5 216.10000000000002c21.700000000000045 21.100000000000023 21.700000000000045 56.700000000000045 0.6000000000000227 77.79999999999995-20.200000000000045 20.200000000000045-52.10000000000002 21.5-73.80000000000007 4l-4.5-4-254.99999999999994-255c-20.19999999999999-20.199999999999932-21.5-51.99999999999994-4-73.79999999999995l4-4.5 254.99999999999994-255-254.99999999999994 255z"/>
</svg>
