<svg xmlns="http://www.w3.org/2000/svg" viewBox="0 0 1000 1000" width="1000" height="1000">
<path d="M89.8 259.8c17.400000000000006-6.600000000000023 36.7-0.6000000000000227 47.39999999999999 14.099999999999966l2.3000000000000114 3.6000000000000227 50 86.69999999999999-66.7 38.60000000000002-50.599999999999994-87.60000000000002c-5.700000000000003-9.599999999999966-7.1000000000000085-21.099999999999966-3.700000000000003-31.69999999999999 3.4000000000000057-10.600000000000023 11.200000000000003-19.19999999999999 21.299999999999997-23.69999999999999z m156-90c17.599999999999966-7.400000000000006 37.80000000000001-1.3000000000000114 48.39999999999998 14l2.3000000000000114 3.6999999999999886 49.30000000000001 86.30000000000001-66.60000000000002 39-51-87.60000000000002c-5.699999999999989-9.599999999999994-7.099999999999994-21.099999999999994-3.6999999999999886-31.69999999999999 3.4000000000000057-10.599999999999994 11.199999999999989-19.19999999999999 21.30000000000001-23.69999999999999z" opacity="0.4"/>
<path d="M444.5 287.8l53.69999999999999 93.39999999999998c50.599999999999966 85.30000000000001 34.00000000000006 194.50000000000006-39.69999999999999 261.00000000000006l47 81c14.399999999999977 26.199999999999932 39.5 45 68.79999999999995 51.299999999999955 29.200000000000045 6.399999999999977 59.80000000000007-0.20000000000004547 83.90000000000009-18 41.59999999999991-34.200000000000045 51.59999999999991-93.79999999999995 23.299999999999955-139.70000000000005-25-42.59999999999991-32-93.39999999999998-19.5-141.09999999999997 12.600000000000023-47.80000000000001 43.5-88.59999999999997 86.20000000000005-113.5l104-62.39999999999998c20-8.800000000000011 43.39999999999998-0.9000000000000341 54.09999999999991 18.19999999999999 10.600000000000023 19.100000000000023 4.900000000000091 43.10000000000002-13.099999999999909 55.5l-103.40000000000009 59.69999999999999c-49.69999999999993 29.69999999999999-66.09999999999991 94.00000000000006-36.59999999999991 144.00000000000006l0 0c26.09999999999991 43.799999999999955 33.19999999999993 96.39999999999998 19.699999999999932 145.5999999999999-13.399999999999977 49.200000000000045-46.299999999999955 90.90000000000009-91.10000000000002 115.40000000000009-91.79999999999995 45.39999999999998-203.19999999999993 10.199999999999932-252.29999999999995-79.70000000000005l-43.69999999999999-74.29999999999995c-94.30000000000001 29.799999999999955-196.8-10.100000000000023-246-96l-53.60000000000001-93.40000000000003c-2.6000000000000085-4.199999999999989-3.9000000000000057-9-4-14l351.3-203.3c4.5 2.3999999999999773 8.300000000000011 6 11 10.300000000000011z"/>
</svg>
