<svg xmlns="http://www.w3.org/2000/svg" viewBox="0 0 1000 1000" width="1000" height="1000">
<path d="M408.5 339.3l527.7 309.49999999999994c26 16.200000000000045 16.199999999999932 55.30000000000007-13.100000000000023 58.60000000000002l-263.80000000000007 42.30000000000007-130.29999999999995 234.5999999999999c-13 22.800000000000068-52.10000000000002 19.5-55.39999999999998-9.799999999999955l-114-602.6c-3.2000000000000455-26.099999999999966 26.099999999999966-45.599999999999966 48.89999999999998-32.599999999999966z" opacity="0.4"/>
<path d="M261.9 450.1l-136.79999999999998 94.39999999999998c-25.099999999999994 18.899999999999977-53.3-19.799999999999955-31.89999999999999-37.19999999999999l139.39999999999998-99.60000000000002c26.000000000000057-16.30000000000001 55.30000000000001 22.80000000000001 29.30000000000001 42.400000000000034z m-198.7-189l162.9 29.299999999999955c31.299999999999983 3.2000000000000455 23.400000000000006 48.5-3.299999999999983 46.200000000000045l-169.4-26.600000000000023c-32.60000000000001-6.5-22.800000000000004-55.400000000000006 9.799999999999997-48.89999999999998z m586.3-84.70000000000002l-133.5 97.79999999999998c-29.399999999999977 16.19999999999999-55.39999999999998-22.799999999999983-29.399999999999977-42.39999999999998l136.89999999999998-94.5c26-19.500000000000014 55.299999999999955 22.899999999999977 26 39.099999999999994z m-441.6-116.60000000000001l99.60000000000002 139.39999999999998c16.30000000000001 26.100000000000023-22.80000000000001 55.400000000000006-42.39999999999998 29.400000000000006l-94.40000000000003-136.89999999999998c-18.899999999999977-25.100000000000023 19.80000000000001-53.20000000000002 37.20000000000002-31.90000000000002z m246.20000000000005-29.9l-29.30000000000001 162.79999999999998c-6.600000000000023 32.60000000000002-52.19999999999999 22.80000000000001-48.900000000000034-6.5l29.30000000000001-166.1c6.5-32.599999999999994 55.400000000000034-22.799999999999994 48.900000000000034 9.800000000000004z"/>
</svg>
