<svg xmlns="http://www.w3.org/2000/svg" viewBox="0 0 1000 1000" width="1000" height="1000">
<path d="M326.7 673.3c20.19999999999999 20.300000000000068 21.5 52.60000000000002 4 74.40000000000009l-4 4.5-121.1 120 80.50000000000003 80.59999999999991c16.19999999999999 16.200000000000045 6.2999999999999545 43.700000000000045-15.700000000000045 46.90000000000009l-4.2999999999999545 0.2999999999999545-238.3 0c-14.200000000000012 0-25.600000000000012-10.100000000000023-27.50000000000001-23.600000000000023l-0.3000000000000007-4.199999999999932 0-238.30000000000007c0-23.5 26.6-35.799999999999955 44.1-22.699999999999932l3.1000000000000014 2.699999999999932 80.6 80.5 120.00000000000001-121.10000000000002c21.599999999999966-21.59999999999991 57.19999999999999-21.59999999999991 78.89999999999998 0z m645.5-673.3c14.199999999999932 0 25.59999999999991 10.1 27.5 23.6l0.2999999999999545 4.199999999999999 0 238.3c0 23.5-26.600000000000023 35.799999999999955-44.10000000000002 22.69999999999999l-3.1000000000000227-2.6999999999999886-80.59999999999991-80.50000000000003-120 121.1c-21.600000000000023 21.600000000000023-57.200000000000045 21.600000000000023-78.90000000000009 0-20.199999999999932-20.30000000000001-21.5-52.599999999999966-4-74.39999999999998l4-4.5 121.10000000000002-120.00000000000001-80.5-80.6c-16.199999999999932-16.200000000000003-6.2999999999999545-43.7 15.700000000000045-46.900000000000006l4.2999999999999545-0.29999999999999716 238.30000000000007 0z" opacity="0.4"/>
<path d="M747.7 669.3l4.5 4 120 121.10000000000002 80.59999999999991-80.5c16.200000000000045-16.199999999999932 43.700000000000045-6.2999999999999545 46.90000000000009 15.700000000000045l0.2999999999999545 4.2999999999999545 0 238.30000000000007c0 14.199999999999932-10.100000000000023 25.59999999999991-23.600000000000023 27.5l-4.199999999999932 0.2999999999999545-238.30000000000007 0c-23.5 0-35.799999999999955-26.600000000000023-22.699999999999932-44.10000000000002l2.699999999999932-3.1000000000000227 80.5-80.59999999999991-121.10000000000002-120c-21.59999999999991-21.600000000000023-21.59999999999991-57.200000000000045 0-78.90000000000009 20.300000000000068-20.199999999999932 52.60000000000002-21.5 74.40000000000009-4z m-481.6-669.3c23.5 0 35.799999999999955 26.6 22.69999999999999 44.1l-2.6999999999999886 3.1000000000000014-80.50000000000003 80.6 121.1 120.00000000000001c21.600000000000023 21.599999999999966 21.600000000000023 57.19999999999999 0 78.89999999999998-20.30000000000001 20.19999999999999-52.599999999999966 21.5-74.39999999999998 4l-4.5-4-120.00000000000001-121.1-80.6 80.50000000000003c-16.200000000000003 16.19999999999999-43.7 6.2999999999999545-46.900000000000006-15.700000000000045l-0.29999999999999716-4.2999999999999545 0-238.3c0-14.200000000000012 10.1-25.600000000000012 23.6-27.50000000000001l4.199999999999999-0.3000000000000007 238.3 0z"/>
</svg>
