<svg xmlns="http://www.w3.org/2000/svg" viewBox="0 0 1000 1000" width="1000" height="1000">
<path d="M89.3 204.8c17.5-17.5 45.000000000000014-19.100000000000023 64.3-4.400000000000006l3.8000000000000114 3.1999999999999886 108.6 108.70000000000002 449 0 108.70000000000005-108.70000000000002c9.599999999999909-9 22-13.400000000000006 34.299999999999955-13.199999999999989l4.600000000000023 0.29999999999998295c10.699999999999932 1.200000000000017 21 5.900000000000006 29.199999999999932 14.100000000000023 17.5 17.5 19 45 4.300000000000068 64.30000000000001l-3.1000000000000227 3.7999999999999545-108.70000000000005 108.60000000000002 0 126.30000000000001 147.10000000000002 0c27 0 49 21.999999999999943 49 49.099999999999966 0 25.399999999999977-19.399999999999977 46.39999999999998-44.299999999999955 48.80000000000007l-4.7000000000000455 0.1999999999999318-147.10000000000002 0c-0.09999999999990905 37-7.2999999999999545 73.60000000000002-21.09999999999991 108l3.3999999999999773 2.1000000000000227 0 0 3.199999999999932 2.2999999999999545 138.70000000000005 138.70000000000005c18 19.299999999999955 17.5 49.39999999999998-1.2000000000000455 68.10000000000002-8.199999999999932 8.199999999999932-18.5 12.899999999999977-29.199999999999932 14.100000000000023l-4.600000000000023 0.2999999999999545c-10.5 0.10000000000002274-21.100000000000023-3-30-9.600000000000023l-4.2999999999999545-3.6000000000000227-127.40000000000009-127.39999999999998-7.599999999999909 8.300000000000068c-41.200000000000045 43.89999999999998-95 74.09999999999991-153.9000000000001 86.39999999999998l-11.099999999999909 2.199999999999932 0-485.99999999999994-98.00000000000006 0 0 485.99999999999994c-63.39999999999998-10.799999999999955-121.30000000000001-42-165.09999999999997-88.69999999999993l-7.600000000000023-8.399999999999977-127.5 127.39999999999998c-8.400000000000006 7.899999999999977-19 12.199999999999932-29.700000000000003 13.100000000000023l-4.599999999999994 0.09999999999990905c-12.200000000000003-0.1999999999999318-24.400000000000006-5-33.8-14.399999999999977-17.500000000000007-17.5-19.000000000000007-45-4.300000000000011-64.29999999999995l3.1000000000000085-3.7000000000000455 138.8-138.79999999999995c2-1.6000000000000227 4.199999999999989-3.1000000000000227 6.5-4.399999999999977-12.199999999999989-30.5-19.19999999999999-62.90000000000009-20.599999999999994-95.70000000000005l-0.30000000000001137-12.299999999999955-147.1 0-4.700000000000003-0.20000000000004547c-24.9-2.3999999999999773-44.3-23.299999999999955-44.3-48.799999999999955 0-25.5 19.4-46.400000000000034 44.3-48.80000000000007l4.700000000000003-0.19999999999998863 147.1 0 0-126.30000000000001-108-108.5c-18-19.299999999999983-17.5-49.39999999999998 1.2000000000000028-68.09999999999997z" opacity="0.4"/>
<path d="M490.2 66.7c105.80000000000001 0 192.09999999999997 83.8 195.90000000000003 188.7l0.1999999999999318 7.300000000000011-392.19999999999993 0c0-105.79999999999998 83.89999999999998-192 188.7-195.89999999999998l7.399999999999977-0.10000000000000853 0 0z"/>
</svg>
