<svg xmlns="http://www.w3.org/2000/svg" viewBox="0 0 1000 1000" width="1000" height="1000">
<path d="M625 285.8l0-158.70000000000002c0-22.89999999999999-18.700000000000045-41.69999999999999-41.700000000000045-41.69999999999999l-166.59999999999997 0c-22.899999999999977 0-41.69999999999999 18.799999999999997-41.69999999999999 41.69999999999999l0 158.70000000000002c-85 49.19999999999999-138.3 146.7-122.1 255.49999999999994 16.700000000000017 108.70000000000005 106.70000000000002 195.80000000000007 215.9 209.10000000000002 151.59999999999997 18.399999999999977 281.2-100 281.2-247.89999999999998 0-92.89999999999998-50.39999999999998-173.3-125-216.7z" opacity="0.4"/>
<path d="M500 835.8c21.5 0 38.89999999999998 16.100000000000023 41 37l0.2999999999999545 4.300000000000068 0 40c0 21.5-16.199999999999932 38.89999999999998-37.099999999999966 41l-4.599999999999966 0.1999999999999318c-21.5 0-39-16.09999999999991-41.10000000000002-37l-0.19999999999998863-4.199999999999932 0-40c0-21.5 16.099999999999966-39 37-41.10000000000002l4.699999999999989-0.20000000000004547z m247.89999999999998-85.79999999999995c14.800000000000068-14.799999999999955 38.60000000000002-16.100000000000023 55-3l3.3999999999999773 3 16.200000000000045 16.299999999999955c16.299999999999955 16.200000000000045 16.299999999999955 42.5 0 58.700000000000045-15.200000000000045 15.200000000000045-39 16.200000000000045-55.39999999999998 3l-3.300000000000068-3-16.299999999999955-16.200000000000045c-16.200000000000045-16.299999999999955-16.200000000000045-42.09999999999991 0.39999999999997726-58.799999999999955z m-499.59999999999997-3.3999999999999773l3.799999999999983 3.3999999999999773c14.799999999999983 14.799999999999955 16.099999999999994 38.60000000000002 3 55l-3 3.2999999999999545-16.299999999999983 16.300000000000068c-16.200000000000017 16.199999999999932-42.5 16.199999999999932-58.70000000000002 0-15.199999999999989-15.200000000000045-16.19999999999999-38.700000000000045-3.4000000000000057-55.30000000000007l3-3.5 16.200000000000017-16.199999999999932c15.199999999999989-15.200000000000045 39.099999999999994-16.200000000000045 55.400000000000006-3z m-122.9-286.20000000000005c21.5 0 39 16.100000000000023 40.69999999999999 37l0.20000000000001705 4.7000000000000455c0 21.5-16.200000000000017 38.89999999999998-37.10000000000002 41l-4.199999999999989 0.1999999999999318-42.099999999999994 0c-21.500000000000007 0-38.900000000000006-16.09999999999991-41.00000000000001-36.99999999999994l-0.19999999999999574-4.600000000000023c0-21.5 16.099999999999994-39 37-41.099999999999966l4.200000000000003-0.20000000000004547 42.5 0z m749.2 0l42.10000000000002 0c21.5 0 38.89999999999998 16.100000000000023 41 37l0.1999999999999318 4.7000000000000455c0 21.5-16.100000000000023 38.89999999999998-37 41l-4.199999999999932 0.1999999999999318-42.10000000000002 0c-21.5 0-39-16.09999999999991-41.10000000000002-36.99999999999994l-0.20000000000004547-4.600000000000023c0-21.5 16.100000000000023-39 37-41.099999999999966l4.300000000000068-0.20000000000004547z"/>
</svg>
