<svg xmlns="http://www.w3.org/2000/svg" viewBox="0 0 1000 1000" width="1000" height="1000">
<path d="M811.3 66.7c85.30000000000007 0 155.4000000000001 70.49999999999999 155.4000000000001 155.8 0 85.30000000000001-70.5 155.8-155.4000000000001 155.8-85.79999999999995 0-155.89999999999998-70.5-155.89999999999998-155.8 0-85.30000000000001 70.10000000000002-155.8 155.89999999999998-155.8z" opacity="0.4"/>
<path d="M606.9 149.8c-8.5 22.399999999999977-13 47.099999999999994-13 72.69999999999999 0 119 97.89999999999998 216.89999999999998 217.39999999999998 216.89999999999998 25.100000000000023 0 49.80000000000007-4.5 72.70000000000005-13l0 300.9c0 76.80000000000007-6.7000000000000455 140.60000000000002-52.5 186.4000000000001-43 42.89999999999998-102.5 51.89999999999998-172.70000000000005 52.89999999999998l-352.29999999999995 0.10000000000002274c-76.80000000000001 0-141.5-7.2000000000000455-187.3-53-42.89999999999999-43-51.499999999999986-101.70000000000005-52.39999999999999-172.20000000000005l-0.09999999999999432-353.7c0-75 6.700000000000003-139.20000000000002 52.5-185.10000000000002 42.999999999999986-42.89999999999998 102.49999999999999-51.89999999999998 171.90000000000003-52.89999999999998l315.79999999999995 0z"/>
</svg>
