<svg xmlns="http://www.w3.org/2000/svg" viewBox="0 0 1000 1000" width="1000" height="1000">
<path d="M966.7 410.5l0 442.1c0 51.89999999999998-40.80000000000007 94.69999999999993-91.80000000000007 98.10000000000002l-6.5 0.1999999999999318-147.29999999999995 0 0-540.4 245.60000000000002 0z m-687.8000000000001 0l0 540.4-147.29999999999998 0c-51.89999999999999 0-94.69999999999999-40.799999999999955-98.1-91.79999999999995l-0.20000000000000284-6.5 0-442.1 245.59999999999997 0z m343.9 1l0 539.4-245.59999999999997 0 0-539.4 245.59999999999997 0z" opacity="0.4"/>
<path d="M131.6 66.7l736.8 0c51.89999999999998 0 94.70000000000005 40.7 98.10000000000002 91.8l0.20000000000004547 6.400000000000006 0 147.4-933.4000000000001 0 4.263256414560601e-14-147.4c0-51.900000000000006 40.8-94.7 91.8-98l6.5-0.20000000000000284z"/>
</svg>
