<svg xmlns="http://www.w3.org/2000/svg" viewBox="0 0 1000 1000" width="1000" height="1000">
<path d="M416.7 133.3c36.80000000000001 0 66.60000000000002 29.899999999999977 66.60000000000002 66.69999999999999l0 83.30000000000001 349.99999999999994 0c36.90000000000009 0 66.70000000000005 29.899999999999977 66.70000000000005 66.69999999999999l0 425c0 36.799999999999955-29.799999999999955 66.70000000000005-66.70000000000005 66.70000000000005l-700 0c-36.799999999999955 0-66.59999999999995-29.90000000000009-66.59999999999995-66.70000000000005l0-425 0-150c0-36.80000000000001 29.799999999999997-66.69999999999999 66.60000000000001-66.69999999999999l283.4 0z m83.30000000000001 300c-7.600000000000023 0-14.199999999999989 4.899999999999977-16.69999999999999 11.599999999999966l0 5.100000000000023-1 0-0.10000000000002274 1.1000000000000227 0 97.79999999999995-97.80000000000001 0c-9.799999999999955 0-17.69999999999999 7.899999999999977-17.69999999999999 17.800000000000068 0 8.799999999999955 6.400000000000034 16.09999999999991 14.900000000000034 17.5l2.7999999999999545 0.1999999999999318 97.80000000000001 0 0 97.80000000000007c0 9.799999999999955 8 17.799999999999955 17.80000000000001 17.799999999999955 8.800000000000011 0 16.200000000000045-6.399999999999977 17.5-14.899999999999977l0.2999999999999545-2.8999999999999773 0-97.80000000000007 97.80000000000007 0c9.799999999999955 0 17.699999999999932-7.899999999999977 17.699999999999932-17.699999999999932 0-8.900000000000091-6.399999999999977-16.200000000000045-14.899999999999977-17.600000000000023l-2.7999999999999545-0.20000000000004547-97.80000000000007 0 0-97.79999999999995c0-9.800000000000011-7.999999999999943-17.80000000000001-17.799999999999955-17.80000000000001z" opacity="0.4"/>
<path d=""/>
</svg>
