<svg xmlns="http://www.w3.org/2000/svg" viewBox="0 0 1000 1000" width="1000" height="1000">
<path d="M500 0c-276.1 0-500 223.9-500 500 0 276.1 223.9 500 500 500 276.20000000000005 0 500-223.89999999999998 500-500 0-276.1-223.79999999999995-500-500-500z m68.5 525.4l5.5 77.5c29.299999999999955 22.300000000000068 48.200000000000045 57.5 48.200000000000045 97.10000000000002 0 67.5-54.700000000000045 122.20000000000005-122.20000000000005 122.20000000000005-67.5 0-122.19999999999999-54.700000000000045-122.19999999999999-122.20000000000005 0-39.60000000000002 18.899999999999977-74.79999999999995 48.19999999999999-97.10000000000002l5.5-77.19999999999993c-182.4 17.299999999999955-301.8 99.5-345.7 135.39999999999998-19.500000000000014-50-30.20000000000001-104.30000000000007-30.20000000000001-161.10000000000002 0-245.5 198.9-444.4 444.4-444.4 245.5-2.1316282072803006e-14 444.4 198.89999999999998 444.4 444.4 0 53.89999999999998-9.600000000000023 105.60000000000002-27.199999999999932 153.39999999999998-41.40000000000009-31.899999999999977-162.10000000000002-111.5-348.70000000000005-128z" opacity="0.4"/>
<path d="M543.6 635.6c-14.5-297.8-29.100000000000023-446.70000000000005-43.60000000000002-446.70000000000005-14.5 2.842170943040401e-14-29.100000000000023 148.90000000000003-43.60000000000002 446.70000000000005-20.599999999999966 14-34.19999999999999 37.60000000000002-34.19999999999999 64.39999999999998 0 43 34.80000000000001 77.79999999999995 77.80000000000001 77.79999999999995 43 0 77.79999999999995-34.799999999999955 77.79999999999995-77.79999999999995 0-26.799999999999955-13.599999999999909-50.39999999999998-34.19999999999993-64.39999999999998z"/>
</svg>
