<svg xmlns="http://www.w3.org/2000/svg" viewBox="0 0 1000 1000" width="1000" height="1000">
<path d="M684.1 489.7c30.799999999999955 0 55.799999999999955 25.000000000000057 55.799999999999955 55.80000000000001l0 398.6c0 14.799999999999955-5.7999999999999545 29.100000000000023-16.299999999999955 39.5-10.5 10.5-24.700000000000045 16.399999999999977-39.5 16.399999999999977l-620.8000000000001 0c-14.799999999999955 0-28.999999999999957-5.899999999999977-39.399999999999956-16.399999999999977-10.499999999999998-10.399999999999977-16.4-24.700000000000045-16.299999999999997-39.5l-1.7763568394002505e-15-398.6c0-30.799999999999955 24.9-55.80000000000001 55.699999999999996-55.80000000000001l620.8000000000001 0z m-300.8 177.00000000000006c-46 0-83.30000000000001 37.299999999999955-83.30000000000001 83.29999999999995 0 46 37.30000000000001 83.29999999999995 83.30000000000001 83.29999999999995 46.099999999999966 0 83.39999999999998-37.299999999999955 83.39999999999998-83.29999999999995 0-46-37.30000000000001-83.29999999999995-83.39999999999998-83.29999999999995z" opacity="0.4"/>
<path d="M570.5 424.2c0 9-7.2999999999999545 16.19999999999999-16.200000000000045 16.30000000000001l-71.29999999999995 0c-9 0-16.30000000000001-7.300000000000011-16.30000000000001-16.30000000000001l0-157.3c-1.8000000000000114-92.99999999999997 46.69999999999999-179.7 126.90000000000003-226.7 80.29999999999995-46.999999999999986 179.60000000000002-46.999999999999986 259.79999999999995 1.4210854715202004e-14 80.30000000000007 47 128.80000000000007 133.7 127 226.7l0 157.3c0 9-7.2999999999999545 16.19999999999999-16.199999999999932 16.30000000000001l-71.30000000000007 0c-9 0-16.299999999999955-7.300000000000011-16.299999999999955-16.30000000000001l0-156.09999999999997c1.6000000000000227-55.60000000000002-27-107.80000000000001-74.80000000000007-136.20000000000002-47.89999999999998-28.400000000000006-107.39999999999998-28.60000000000001-155.39999999999998-0.5999999999999943-48.10000000000002 28.099999999999994-77.10000000000002 79.89999999999998-75.89999999999998 135.59999999999997l0 157.3z"/>
</svg>
