<svg xmlns="http://www.w3.org/2000/svg" viewBox="0 0 1000 1000" width="1000" height="1000">
<path d="M370.9 0c189.89999999999998 0 348.1 141.8 369.6 330.4l0 0 0.2999999999999545 3.5c0.5 16.30000000000001-11.599999999999909 30.700000000000045-28.09999999999991 31.900000000000034l0 0-1.3000000000000682 0c-16.5 1.3000000000000114-31.699999999999932-11.400000000000034-34.19999999999993-27.80000000000001l0 0 0-1.3000000000000114c-25.300000000000068-221.5-282.30000000000007-367.09999999999997-513.9000000000001-202.5-2.499999999999943 1.200000000000017-5.099999999999966 2.5-6.2999999999999545 5-205.1 235.5-43.099999999999994 521.5999999999999 189.8 536.7l0-1.1368683772161603e-13 4 0.8000000000000682c15.599999999999966 3.8999999999999773 26.30000000000001 17.09999999999991 25.099999999999966 33.39999999999998l0 0 0 1.2999999999999545c-1.1999999999999886 17.700000000000045-16.399999999999977 30.399999999999977-34.099999999999966 29.100000000000023l0 0-9.600000000000023-0.7999999999999545c-186.5-18.600000000000023-332.2-179.60000000000002-332.2-368.80000000000007 0-203.79999999999998 165.8-370.9 370.9-370.9z m-53.19999999999999 150.6c97.5-26.5 196.2 19 243.09999999999997 105.1l0 0 1.7000000000000455 3.6000000000000227c6.100000000000023 14.399999999999977-0.39999999999997726 31.30000000000001-14.399999999999977 39.39999999999998l0 0-3.6000000000000227 1.8000000000000114c-14.399999999999977 6.100000000000023-31.299999999999955-0.39999999999997726-39.39999999999998-14.399999999999977l0 0-3.6000000000000227-6.2000000000000455c-32.80000000000001-54.29999999999998-96.30000000000001-84.39999999999998-162.3-69.79999999999998-49.30000000000001 10.200000000000017-89.79999999999998 45.599999999999994-107.6 92.4-30.299999999999983 78.5 8.900000000000006 162.10000000000002 79.79999999999998 193.7l0 0 3.400000000000034 1.8000000000000114c14.099999999999966 8.300000000000011 20.099999999999966 24.700000000000045 13 40l0 0-1.6999999999999886 3.3999999999999773c-8.400000000000034 14-24.700000000000045 20.100000000000023-40 13l0 0-6.900000000000034-3.199999999999932c-93.19999999999999-45.10000000000002-145.39999999999998-153.80000000000007-110.79999999999998-260.1 21.5-68.30000000000001 78.4-122.70000000000002 149.29999999999998-140.50000000000003z" opacity="0.4"/>
<path d="M867.1 968.4l-251.89999999999998-250.69999999999993-60.80000000000007 113.89999999999998c-5 8.899999999999977-13.899999999999977 16.5-24 17.799999999999955-16.5 2.5-31.69999999999999-7.600000000000023-35.5-22.799999999999955l-107.59999999999997-401.3c-2.5-11.400000000000034 0-22.80000000000001 8.899999999999977-30.400000000000034 7.600000000000023-7.599999999999966 20.30000000000001-11.399999999999977 30.400000000000034-7.599999999999966l397.5 112.69999999999999c10.100000000000023 2.5 18.899999999999977 10.100000000000023 22.699999999999932 20.299999999999955 6.400000000000091 15.100000000000023-1.1999999999999318 31.600000000000023-15.199999999999932 39.200000000000045l-116.39999999999998 59.5 250.5999999999999 251.89999999999998c27.90000000000009 27.800000000000068 27.90000000000009 72.10000000000002 0 98.70000000000005l0 0c-26.59999999999991 26.600000000000023-72.09999999999991 26.600000000000023-98.69999999999993-1.2000000000000455z"/>
</svg>
