<svg xmlns="http://www.w3.org/2000/svg" viewBox="0 0 1000 1000" width="1000" height="1000">
<path d="M166.7 895.8l250 0c22.900000000000034 0 41.60000000000002-18.699999999999932 41.60000000000002-41.59999999999991l0-250c0-22.90000000000009-18.69999999999999-41.700000000000045-41.60000000000002-41.700000000000045l-250 0c-22.899999999999977 0-41.69999999999999 18.799999999999955-41.69999999999999 41.700000000000045l0 250c0 22.899999999999977 18.80000000000001 41.59999999999991 41.69999999999999 41.59999999999991z" opacity="0.4"/>
<path d="M464.6 141.7l-155 253.3c-17.100000000000023 27.5 2.8999999999999773 63.30000000000001 35.39999999999998 63.30000000000001l309.6 0c32.5 0 52.5-35.80000000000001 35.39999999999998-63.30000000000001l-154.60000000000002-253.3c-16.199999999999932-26.69999999999999-54.599999999999966-26.69999999999999-70.79999999999995 0z m77.10000000000002 587.5c0-103.60000000000002 83.89999999999998-187.5 187.5-187.5 103.59999999999991 0 187.5 83.89999999999998 187.5 187.5 0 103.59999999999991-83.90000000000009 187.5-187.5 187.5-103.60000000000002 0-187.5-83.90000000000009-187.5-187.5z"/>
</svg>
