<svg xmlns="http://www.w3.org/2000/svg" viewBox="0 0 1000 1000" width="1000" height="1000">
<path d="M1000 400.9l0 321.70000000000005c0 94.10000000000002-49.60000000000002 146.39999999999998-141.70000000000005 149.79999999999995l-9.599999999999909 0.20000000000004547-697.8000000000001 0c-94.99999999999997 0-147.29999999999998-48.80000000000007-150.7-140.39999999999998l-0.19999999999998863-9.600000000000023 0-321.70000000000005 1000 0z m-695.1 95.10000000000002l-108.39999999999998 0c-24.30000000000001 0-40.900000000000006 14.899999999999977-43.099999999999994 36.89999999999998l-0.30000000000001137 5.2000000000000455 0 82.29999999999995c0 23 14.900000000000006 39.5 37.900000000000006 41.700000000000045l5.5 0.2999999999999545 108.39999999999998 0c24.200000000000045 0 40.80000000000001-14.899999999999977 43.10000000000002-36.89999999999998l0.19999999999998863-5.100000000000023 0-82.29999999999995c0-24.800000000000068-17.19999999999999-42.10000000000002-43.30000000000001-42.10000000000002z m-153.99999999999997-396l697.8000000000001 0c94.89999999999998 0 147.69999999999993 48.80000000000001 151.0999999999999 140l0.20000000000004547 9.599999999999994 0 45.099999999999994-1000 0 0-45.099999999999994c0-94.1 49.2-146.1 141.2-149.39999999999998l9.700000000000017-0.20000000000001705 697.8000000000001 0-697.8000000000001 0z" opacity="0.4"/>
<path d="M1000 400.9l0 321.70000000000005c0 94.10000000000002-49.60000000000002 146.39999999999998-141.70000000000005 149.79999999999995l-9.599999999999909 0.20000000000004547-697.8000000000001 0c-94.99999999999997 0-147.29999999999998-48.80000000000007-150.7-140.39999999999998l-0.19999999999998863-9.600000000000023 0-321.70000000000005 1000 0z m-695.1 95.10000000000002l-108.39999999999998 0c-24.30000000000001 0-40.900000000000006 14.899999999999977-43.099999999999994 36.89999999999998l-0.30000000000001137 5.2000000000000455 0 82.29999999999995c0 23 14.900000000000006 39.5 37.900000000000006 41.700000000000045l5.5 0.2999999999999545 108.39999999999998 0c24.200000000000045 0 40.80000000000001-14.899999999999977 43.10000000000002-36.89999999999998l0.19999999999998863-5.100000000000023 0-82.29999999999995c0-24.800000000000068-17.19999999999999-42.10000000000002-43.30000000000001-42.10000000000002z m-153.99999999999997-396l697.8000000000001 0c94.89999999999998 0 147.69999999999993 48.80000000000001 151.0999999999999 140l0.20000000000004547 9.599999999999994 0 45.099999999999994-1000 0 0-45.099999999999994c0-94.1 49.2-146.1 141.2-149.39999999999998l9.700000000000017-0.20000000000001705 697.8000000000001 0-697.8000000000001 0z"/>
</svg>
