<svg xmlns="http://www.w3.org/2000/svg" viewBox="0 0 1000 1000" width="1000" height="1000">
<path d="M208.3 549.2l0 117.09999999999991c0 30.40000000000009 16.69999999999999 58.700000000000045 43.39999999999998 73.30000000000007l208.3 113.69999999999993c25 13.800000000000068 55 13.800000000000068 80 0l208.29999999999995-113.69999999999993c26.700000000000045-14.600000000000023 43.40000000000009-42.89999999999998 43.40000000000009-73.30000000000007l0-117.09999999999991-251.70000000000005 137.5c-25 13.699999999999932-55 13.699999999999932-80 0l-251.7-137.5z" opacity="0.4"/>
<path d="M460 146.7l-351.2 191.60000000000002c-28.80000000000001 15.899999999999977-28.80000000000001 57.5-1.4210854715202004e-14 73.39999999999998l351.2 191.59999999999997c25 13.800000000000068 55 13.800000000000068 80 0l335-182.89999999999998 0 246.30000000000007c0 22.899999999999977 18.799999999999955 41.59999999999991 41.700000000000045 41.59999999999991 22.899999999999977 0 41.59999999999991-18.699999999999932 41.59999999999991-41.59999999999991l0-267.1c0-15.400000000000034-8.299999999999955-29.200000000000045-21.59999999999991-36.700000000000045l-396.70000000000005-216.2c-25-13.399999999999977-55-13.399999999999977-80 0z"/>
</svg>
