<svg xmlns="http://www.w3.org/2000/svg" viewBox="0 0 1000 1000" width="1000" height="1000">
<path d="M880.4 233.4l3.8999999999999773 0.19999999999998863c24.700000000000045 2.700000000000017 46.30000000000007 23.00000000000003 46.30000000000007 51.29999999999998l0 419.30000000000007c0 28.299999999999955-21.600000000000023 48.59999999999991-46.30000000000007 51.299999999999955l-3.8999999999999773 0.2999999999999545c-10.5 0.3000000000000682-21.399999999999977-2.599999999999909-31.199999999999932-9.299999999999955l-297.30000000000007-209.70000000000005c-28.799999999999955-20.59999999999991-28.799999999999955-63.89999999999998 0-83.99999999999994l297.30000000000007-210.20000000000002c9.799999999999955-6.699999999999989 20.699999999999932-9.599999999999994 31.199999999999932-9.199999999999989z" opacity="0.4"/>
<path d="M416.8 233.5l3.8999999999999773 0.30000000000001137c24.69999999999999 2.5 46.19999999999999 22.80000000000001 46.19999999999999 51.099999999999966l0 419.30000000000007c0 28.299999999999955-21.5 48.59999999999991-46.19999999999999 51.299999999999955l-3.8999999999999773 0.2999999999999545c-10.5 0.3000000000000682-21.400000000000034-2.599999999999909-31.30000000000001-9.299999999999955l-297.2-209.70000000000005c-28.80000000000001-20.59999999999991-28.80000000000001-63.89999999999998-1.4210854715202004e-14-83.99999999999994l297.2-209.60000000000002c8.300000000000011-5.799999999999983 17.19999999999999-8.799999999999983 26-9.5l5.300000000000011-0.19999999999998863z"/>
</svg>
