<svg xmlns="http://www.w3.org/2000/svg" viewBox="0 0 1000 1000" width="1000" height="1000">
<path d="M708.3 458.3l0-291.6c0-45.89999999999999-37.5-83.39999999999999-83.29999999999995-83.39999999999999l-458.3 0c-45.89999999999999 0-83.39999999999999 37.5-83.39999999999999 83.39999999999999l0 541.5999999999999 166.7-166.5999999999999 375 0c45.799999999999955 0 83.29999999999995-37.50000000000006 83.29999999999995-83.40000000000003z" opacity="0.4"/>
<path d="M833.3 250l-41.59999999999991 0 0 333.29999999999995c0 23-18.800000000000068 41.700000000000045-41.700000000000045 41.700000000000045l-500 0 0 41.700000000000045c0 45.799999999999955 37.5 83.29999999999995 83.30000000000001 83.29999999999995l416.7 0 166.70000000000005 166.70000000000005 0-583.4000000000001c0-45.799999999999955-37.5-83.29999999999995-83.40000000000009-83.29999999999995z"/>
</svg>
