<svg xmlns="http://www.w3.org/2000/svg" viewBox="0 0 1000 1000" width="1000" height="1000">
<path d="M689.3 74c20.90000000000009-0.4000000000000057 53.90000000000009 5.599999999999994 85.40000000000009 18.299999999999997 6.399999999999977 2.6000000000000085 6.899999999999977 0.4000000000000057 7.2999999999999545-5 1.8999999999999773-26.9 12-49.9 33.700000000000045-66.69999999999999 29.199999999999932-22.800000000000008 61.59999999999991-27.000000000000007 94.69999999999993-11.200000000000008 34.80000000000007 16.6 52.30000000000007 45.800000000000004 51 84.5-1.5 48-36.39999999999998 82.19999999999999-87.29999999999995 86.4-6.800000000000068 0.5999999999999943-8.200000000000045 1.3999999999999773-5.600000000000023 8.199999999999989 27.5 72.19999999999999 23.399999999999977 145 1 217.3-22.399999999999977 72.19999999999999-60.200000000000045 136.2-113.60000000000002 188.99999999999994-51.39999999999998 50.80000000000007-75.19999999999993 113.30000000000007-90 181.30000000000007-6.699999999999932 30.600000000000023-13.100000000000023 61.19999999999993-24.199999999999932 90.60000000000002-13 34.299999999999955-39.200000000000045 49.799999999999955-74.10000000000002 53.299999999999955-41.80000000000007 4.2000000000000455-81.20000000000005-6-119.5-21.5-61.900000000000034-25-115.90000000000003-62.60000000000002-166.3-105.70000000000005-65.70000000000002-56.299999999999955-124.80000000000001-118.79999999999995-172.8-191.0999999999999-29.5-44.5-53.6-91.60000000000002-65.5-144.10000000000002-5.5-24.30000000000001-7.200000000000003-48.80000000000001-3.799999999999997-73.60000000000002 5.199999999999996-37.80000000000001 27.299999999999997-59.80000000000001 63.099999999999994-70.19999999999999 35.2-10.300000000000011 71.39999999999999-15.800000000000011 107.10000000000001-23.5 28.69999999999999-6.199999999999989 57.099999999999994-13.300000000000011 84.29999999999998-24.600000000000023 26.69999999999999-11.199999999999989 48.80000000000001-28.5 69.30000000000001-48.5 37.89999999999998-36.79999999999998 79.80000000000001-68.1 126.39999999999998-92.99999999999999 58.200000000000045-30.799999999999997 119.70000000000005-50 199.39999999999998-50.2z m51.90000000000009 90.69999999999999c-20.100000000000023-6.5-39-8.899999999999977-58-9.299999999999983-52-1.200000000000017-96.30000000000007 19.099999999999994-136.20000000000005 50.599999999999994-41.19999999999999 32.599999999999994-77.19999999999999 71.10000000000002-116.10000000000002 106.39999999999998-42.19999999999999 38.30000000000001-87.19999999999999 72.70000000000005-139.2 96.90000000000003-41 19.099999999999966-83.6 32.5-129.5 31.599999999999966-9.299999999999983-0.19999999999998863-11.399999999999977 2.2000000000000455-10 10.900000000000034 5.300000000000011 33.599999999999966 24.80000000000001 57.30000000000001 51.10000000000002 76.90000000000003 9.099999999999994 6.7999999999999545 18.299999999999983 9.5 29.299999999999983 7.099999999999909 12.200000000000017-2.599999999999909 24.599999999999994-4.7999999999999545 36.50000000000003-8.799999999999955 60.799999999999955-20.30000000000001 108.79999999999995-58.19999999999999 148.89999999999998-107.30000000000001 48.89999999999998-59.89999999999998 98.60000000000002-119.09999999999997 157.20000000000005-169.89999999999998 47.89999999999998-41.20000000000002 98.09999999999991-78.60000000000002 166-85.10000000000002z m130.69999999999993-119.1c-24.600000000000023 7.105427357601002e-15-44.89999999999998 19.900000000000006-45.19999999999993 44.30000000000001-0.3000000000000682 24.69999999999999 20.5 45.69999999999999 45.09999999999991 45.69999999999999 24.40000000000009 0 44.60000000000002-20.099999999999994 44.90000000000009-44.69999999999999 0.39999999999997726-25.30000000000001-19.40000000000009-45.300000000000004-44.80000000000007-45.300000000000004z m-636.3 864.4c-2.842170943040401e-14-27.100000000000023 10.899999999999977-50.10000000000002 31.799999999999955-68.79999999999995 4.5-4 7.400000000000034-3.2000000000000455 11.700000000000045 0.1999999999999318 40.099999999999966 32 82.29999999999995 60.60000000000002 128.79999999999995 82.5 5.100000000000023 2.3999999999999773 5.5 5.2000000000000455 4.400000000000034 10-13.199999999999989 53.200000000000045-78.19999999999999 82.30000000000007-126.5 56.5-31.80000000000001-16.799999999999955-48.5-43.5-50.20000000000002-80.39999999999998z"/>
</svg>
