<svg xmlns="http://www.w3.org/2000/svg" viewBox="0 0 1000 1000" width="1000" height="1000">
<path d="M873.5 178.5c0.20000000000004547 51.099999999999994 0.5 102.19999999999999 0.6000000000000227 153.3 0.10000000000002274 20.30000000000001 0 40.5 0 60.80000000000001 0 4.199999999999989 0.39999999999997726 8.599999999999966-6.300000000000068 6.7999999999999545-26.09999999999991-7.099999999999966-47.59999999999991 1-65.79999999999995 21.200000000000045-2.5-4.400000000000034-1.3999999999999773-8.400000000000034-1.3999999999999773-12.200000000000045-0.10000000000002274-46.599999999999966-0.3000000000000682-93.29999999999995 0.10000000000002274-139.89999999999998 0.09999999999990905-8.399999999999977-1.6000000000000227-11.100000000000023-10.600000000000023-10.199999999999989-83.30000000000007 8.300000000000011-165.20000000000005 22-240.70000000000005 61.19999999999999-10.399999999999977 5.5-14.699999999999932 11.600000000000023-14.600000000000023 24.100000000000023 0.7000000000000455 107.09999999999997 0.40000000000009095 214.10000000000002 0.40000000000009095 321.19999999999993v12.900000000000091c2.199999999999932 2.5 4 1 5.7999999999999545 0.2999999999999545 77.5-29.200000000000045 158.29999999999995-42.700000000000045 240.29999999999995-50.700000000000045 6.300000000000068-0.599999999999909 9 0.8000000000000682 8.800000000000068 7.5-0.7000000000000455 20 1.1999999999999318 39.700000000000045 8.100000000000023 58.60000000000002 3.099999999999909 8.5-3.2000000000000455 7.5-7.600000000000023 7.800000000000068-37.200000000000045 2.7999999999999545-74 7.899999999999977-110.60000000000002 14.899999999999977-45.799999999999955 8.799999999999955-90.79999999999995 20.399999999999977-133.29999999999995 39.89999999999998-32.40000000000009 14.700000000000045-63.50000000000006 14.5-96.00000000000006 0-61.80000000000001-27.600000000000023-127.59999999999997-41.10000000000002-194.39999999999998-49.60000000000002-16.5-2.1000000000000227-33-3.699999999999932-49.5-5-6.600000000000023-0.6000000000000227-7.100000000000023-2.8999999999999773-5.100000000000023-8.399999999999977 6.400000000000006-17.799999999999955 8.800000000000011-36.200000000000045 8-55-0.39999999999997726-8.200000000000045 1.4000000000000057-11 10.800000000000011-10.100000000000023 82 7.7000000000000455 162.60000000000002 22.200000000000045 240 51.60000000000002 2.8999999999999773-3.6000000000000227 1.6999999999999886-7.2999999999999545 1.6999999999999886-10.700000000000045 0-109.89999999999998-0.0999999999999659-219.79999999999995 0.30000000000001137-329.69999999999993 0-8.5-2.8000000000000114-13-10-17-52-28.80000000000001-108.5-43.60000000000002-166.60000000000002-53.700000000000045-25.899999999999977-4.399999999999977-51.99999999999997-7.599999999999966-78.19999999999999-10.199999999999989-10-1-11.099999999999994 2.6000000000000227-11 11.100000000000023 0.30000000000001137 49 0.20000000000001705 98 0.20000000000001705 149.5-21.5-21.5-45.30000000000001-26.900000000000034-72.7-17.30000000000001-0.4000000000000057-3-0.9000000000000057-5.300000000000011-0.9000000000000057-7.699999999999989-0.09999999999999432-69.30000000000001-0.09999999999999432-138.70000000000002 0-208 0-2.4000000000000057 0.4000000000000057-4.900000000000006 0.6000000000000085-7.300000000000011h17c2.299999999999983 2.5 5.299999999999983 1.6999999999999886 8 1.8000000000000114 50.19999999999999 2.0999999999999943 100.1 6.799999999999983 149.70000000000002 15.399999999999977 67.69999999999999 11.700000000000017 133.5 29.200000000000017 193.5 64.10000000000002 5.599999999999966 3.3000000000000114 9.299999999999955 2.1999999999999886 14.199999999999989-0.6999999999999886 22.30000000000001-13.300000000000011 45.99999999999994-23.700000000000017 70.49999999999994-32.400000000000034 71.40000000000009-25.5 145.60000000000002-36.599999999999994 220.70000000000005-43.39999999999998 19.700000000000045-1.8000000000000114 39.60000000000002-0.30000000000001137 58.89999999999998-4.800000000000011h17.100000000000023z m-762.1 263.4c-6.799999999999983 47.80000000000001-14.799999999999983 94.30000000000007-25.299999999999983 140.39999999999998-1.5999999999999943 6.900000000000091-2.799999999999997 13.800000000000068 5.400000000000006 16 8.200000000000003 2.2000000000000455 9.799999999999997-5.2999999999999545 11.299999999999997-11.099999999999909 9-35.30000000000007 13.299999999999997-71.5 18.799999999999997-107.50000000000006 1.2000000000000028-8 1.8000000000000114-16.099999999999966 3.3000000000000114-24 2.799999999999997-15.5 13.199999999999989-24.80000000000001 26-23.80000000000001 13.699999999999989 1.2000000000000455 23.400000000000006 12.200000000000045 23.799999999999983 27.600000000000023 0.30000000000001137 10.100000000000023 0.10000000000002274 20.30000000000001 0.10000000000002274 30.399999999999977 0 48.200000000000045-0.4000000000000057 96.5 0.09999999999999432 144.80000000000007 0.29999999999998295 27.5-5.900000000000006 52.89999999999998-20.80000000000001 76-20.299999999999983 31.299999999999955-33.69999999999999 65.39999999999998-40.39999999999999 102-1.6000000000000085 8.399999999999977-4.700000000000003 9.799999999999955-13.100000000000009 6.699999999999932-30.69999999999999-11.399999999999977-61.699999999999996-22-92.69999999999999-32.5-7.000000000000005-2.2999999999999545-10.100000000000005-4.199999999999932-6.100000000000006-12.399999999999977 22.8-46.299999999999955 23.599999999999998-95.20000000000005 16.4-144.89999999999998-2.5999999999999996-17.600000000000023-4.199999999999999-35.30000000000007-4.6-53.200000000000045-0.5-23.899999999999977 6.9-44.60000000000002 22.699999999999996-62.299999999999955 21.900000000000006-24.600000000000023 46.3-46.60000000000002 69.9-69.40000000000003 1.2000000000000028-1 2.799999999999997-1.5 5.200000000000003-2.8000000000000114z m776.5-0.5c11.399999999999977 6.600000000000023 18.200000000000045 15.800000000000011 26.5 23.30000000000001 11.399999999999977 10.300000000000011 21.399999999999977 22.30000000000001 33.10000000000002 32.19999999999999 36.10000000000002 30.200000000000045 43.299999999999955 69.20000000000005 36.799999999999955 113.10000000000002-6.5 43.39999999999998-11.599999999999909 86.89999999999998 0.8000000000000682 130.20000000000005 3.5 12.099999999999909 7.600000000000023 23.899999999999977 13.199999999999932 35.09999999999991 2.800000000000068 5.7000000000000455 2.6000000000000227 8.700000000000045-3.7999999999999545 10.900000000000091-32.89999999999998 11.299999999999955-65.70000000000005 22.699999999999932-98.5 34.299999999999955-5.5 2-8 0.6000000000000227-9-5.2000000000000455-7.5-42.5-25.700000000000045-80.59999999999991-48.10000000000002-117-9.699999999999932-15.899999999999977-13.600000000000023-33.89999999999998-13.699999999999932-52.299999999999955-0.40000000000009095-61.700000000000045-0.10000000000002274-123.29999999999995-0.10000000000002274-184.89999999999998 0-11.5 3.7999999999999545-20.80000000000001 14.299999999999955-26.30000000000001 8.600000000000023-4.5 17.300000000000068-3.900000000000034 25.200000000000045 1.8999999999999773 8.299999999999955 6 9.899999999999977 15.300000000000011 11.199999999999932 24.600000000000023 5.400000000000091 39.69999999999999 10.700000000000045 79.40000000000003 19.300000000000068 118.49999999999994 0.6999999999999318 2.800000000000068 1.3999999999999773 5.5 2.199999999999932 8.200000000000045 1.6000000000000227 5.5 3.2000000000000455 12.200000000000045 10.700000000000045 10.399999999999977 7.5-1.6999999999999318 7.7000000000000455-8 6.2000000000000455-14.699999999999932-4.5-20.5-9-41-12.800000000000068-61.700000000000045-4.7999999999999545-26.19999999999999-8.799999999999955-52.60000000000002-13.5-80.60000000000002z m-473.7-45.099999999999966c0 26.19999999999999 0 26.19999999999999-24.80000000000001 18.5-38.19999999999999-11.800000000000011-76.89999999999998-21.600000000000023-116.09999999999997-29.100000000000023-7.5-1.3999999999999773-9.199999999999989-4.300000000000011-8.900000000000034-11 0.30000000000001137-10.099999999999966 0.5-20.19999999999999-0.0999999999999659-30.30000000000001-0.5-8.899999999999977 2.3000000000000114-11.199999999999989 11.099999999999966-9.399999999999977 38.30000000000001 8 76.40000000000003 16.399999999999977 113.90000000000003 27.80000000000001 24.899999999999977 7.599999999999966 24.899999999999977 7.599999999999966 24.899999999999977 33.5z m0 87c0 26.80000000000001 0 26.80000000000001-25.30000000000001 19-38.19999999999999-11.800000000000011-76.89999999999998-21.400000000000034-116.09999999999997-29.100000000000023-5.699999999999989-1.099999999999966-8.600000000000023-2.599999999999966-8.400000000000034-8.899999999999977 0.30000000000001137-11.699999999999989 0.4000000000000341-23.5-0.0999999999999659-35.19999999999999-0.30000000000001137-7.600000000000023 3.6999999999999886-7.7000000000000455 9.099999999999966-6.600000000000023 45.10000000000002 8.800000000000011 89.80000000000001 19.5 133.70000000000005 33.30000000000001 5.199999999999989 1.6999999999999886 7.2999999999999545 4 7.099999999999966 9.300000000000011-0.19999999999998863 6 0 12.099999999999966 0 18.19999999999999z m169.00000000000006-87.90000000000003c0-24.899999999999977 0-24.899999999999977 24.699999999999932-32.5 37.80000000000007-11.699999999999989 76.39999999999998-20.099999999999966 115.10000000000002-28.099999999999966 7-1.400000000000034 10.600000000000023-0.30000000000001137 10.100000000000023 8.099999999999966-0.7000000000000455 12.900000000000034 3.7999999999999545 28.200000000000045-1.8000000000000682 38.10000000000002-5.7999999999999545 10.300000000000011-23.09999999999991 7.5-35.39999999999998 10.300000000000011-34.10000000000002 8.099999999999966-68.10000000000002 16.69999999999999-101.29999999999995 28.099999999999966-9.200000000000045 3.2000000000000455-12.600000000000023 1.7000000000000455-11.5-8.199999999999989 0.6000000000000227-5.199999999999989 0.10000000000002274-10.599999999999966 0.10000000000002274-15.800000000000011z m0 88c0-25.399999999999977 0.09999999999990905-25.299999999999955 24.399999999999977-32.799999999999955 37.799999999999955-11.600000000000023 76.39999999999998-20.100000000000023 115.10000000000002-28.100000000000023 7.899999999999977-1.6999999999999886 11 0.5 10.399999999999977 8.899999999999977-0.6000000000000227 8-1.1000000000000227 16.30000000000001 0.10000000000002274 24.200000000000045 2 12.799999999999955-3.300000000000068 17.399999999999977-15.5 19.5-41.80000000000007 7.099999999999966-82.70000000000005 18.19999999999999-122.70000000000005 31.899999999999977-10.700000000000045 3.6999999999999886-12.700000000000045 0.5-11.799999999999955-9.100000000000023 0.39999999999997726-4.7999999999999545 0-9.699999999999989 0-14.5z m-169.00000000000006 89.60000000000002c0 26.399999999999977 0 26.399999999999977-24.899999999999977 18.5-37.400000000000034-11.899999999999977-75.30000000000001-21.600000000000023-113.90000000000003-28.700000000000045-7.899999999999977-1.3999999999999773-11.899999999999977-4.099999999999909-11.199999999999989-13.199999999999932 1-10.800000000000068 0.30000000000001137-21.899999999999977 0.19999999999998863-32.80000000000007 0-5.199999999999932 1.3000000000000114-6.699999999999932 7.2000000000000455-5.599999999999966 45.799999999999955 8.199999999999989 90.69999999999999 19.69999999999999 135.2 33.30000000000001 5.599999999999966 1.7000000000000455 7.800000000000011 4.600000000000023 7.399999999999977 10.299999999999955-0.30000000000001137 6 0 12.100000000000023 0 18.200000000000045z"/>
</svg>
