<svg xmlns="http://www.w3.org/2000/svg" viewBox="0 0 1000 1000" width="1000" height="1000">
<path d="M828.3 971.4c-0.1999999999999318-5.699999999999932-1.3999999999999773-11.399999999999977-1.7999999999999545-17.100000000000023-0.10000000000002274-1.7999999999999545-0.2999999999999545-3.7999999999999545-0.2999999999999545-6.099999999999909-2.5-65.60000000000002-6.5-131.10000000000002-13.700000000000045-196.4000000000001-5.5-49.89999999999998-13.200000000000045-99.39999999999998-22.399999999999977-148.69999999999993-5.899999999999977-31.700000000000045-22.200000000000045-52.200000000000045-51.60000000000002-64.30000000000007-17.200000000000045-7.099999999999909-34.60000000000002-13.599999999999909-52-20.299999999999955-10.299999999999955-3.8999999999999773-15-1.3999999999999773-19 7.7999999999999545-13.899999999999977 32.200000000000045-34.299999999999955 59.700000000000045-61.200000000000045 82.10000000000002-23 19.200000000000045-48 35.80000000000007-74 50.5-13.299999999999955 7.5-17.5 16.300000000000068-17.399999999999977 31.5 0.8000000000000682 86.89999999999998 0.39999999999997726 173.89999999999998 0.39999999999997726 260.80000000000007l0.10000000000002274 2.099999999999909h-30.399999999999977c0.10000000000002274-0.7999999999999545 0.19999999999998863-1.5 0.19999999999998863-2.199999999999932-0.19999999999998863-89.39999999999998-0.30000000000001137-178.89999999999998 0-268.30000000000007 0-9-2.6999999999999886-14.299999999999955-10.5-18.899999999999977-16.099999999999966-9.399999999999977-31.899999999999977-19.5-47.30000000000001-30-24.099999999999966-16.399999999999977-47.19999999999999-33.89999999999998-65.5-57.10000000000002-13.299999999999955-16.699999999999932-23-35.39999999999998-32.69999999999999-54.19999999999993-2.3999999999999773-4.7000000000000455-4.599999999999966-8.399999999999977-11.199999999999989-6.100000000000023-26.899999999999977 9.600000000000023-54.19999999999999 18.200000000000045-78.5 33.799999999999955-13 8.400000000000091-22.19999999999999 19.300000000000068-26 34.90000000000009-18.30000000000001 74.69999999999993-26.5 150.89999999999998-32.80000000000001 227.39999999999998-3.8999999999999773 46.799999999999955-7.399999999999977 93.69999999999993-7.599999999999994 140.69999999999993h-0.09999999999999432c-0.4000000000000057 5.900000000000091-0.6999999999999886 11.900000000000091-0.9000000000000057 17.90000000000009-0.799999999999983 19.699999999999932 8.099999999999994 28.59999999999991 28 28.59999999999991h600c20.100000000000023 0.20000000000004547 29-8.699999999999932 28.199999999999932-28.399999999999977z m-486.69999999999993-640.3c10.799999999999955 6.399999999999977 15.299999999999955 14.599999999999966 19.299999999999955 25.099999999999966 14.700000000000045 38.10000000000002 32.700000000000045 74.5 62.5 103.5 43.30000000000001 42.19999999999999 100.20000000000005 43.19999999999999 145 2.5 34.700000000000045-31.5 56.10000000000002-71.59999999999997 73.89999999999998-114 3-7 6.400000000000091-12.5 13.100000000000023-17 26.800000000000068-18.099999999999966 30.899999999999977-43.69999999999999 11.700000000000045-69-3.300000000000068-4.300000000000011-0.7000000000000455-7 0.2999999999999545-10.099999999999994 5-15.799999999999983 9.399999999999977-31.799999999999983 9.700000000000045-48.599999999999994 0.8999999999999773-43.099999999999994-16.800000000000068-79-45.200000000000045-109.8-7-7.6000000000000085-7.899999999999977-13.700000000000003-3.6000000000000227-21.799999999999997 5.100000000000023-9.600000000000009 10.400000000000091-19.10000000000001 16.300000000000068-29.700000000000003-16.5 0.8999999999999986-29.600000000000023 7.299999999999997-42.10000000000002 14.299999999999997-7.899999999999977 4.399999999999999-9.799999999999955 1.8999999999999986-13.299999999999955-4.899999999999999-8-15.899999999999999-10.400000000000091-33.400000000000006-15.200000000000045-51.6-8.899999999999977 8.1-13.5 17.5-17.399999999999977 26.9-3.8999999999999773 9.300000000000004-7.899999999999977 8.300000000000004-14.300000000000068 2.900000000000002-9.599999999999909-7.900000000000002-17.5-17.8-29.399999999999977-24.9-0.7999999999999545 2.8999999999999977-1.099999999999966 4.499999999999998-1.6999999999999886 5.999999999999998-3.1999999999999886 7.999999999999998 7.099999999999966 18.700000000000003-1.8000000000000114 23.800000000000004-6.7999999999999545 3.8999999999999986-17 1.8999999999999986-25.69999999999999 2.5999999999999943l-1.1999999999999886 0.10000000000000142c-70.5 8.600000000000001-120.69999999999999 45.9-151.89999999999998 108.6-16.400000000000034 32.900000000000006-13 67.5-3.3000000000000114 102 1.3000000000000114 4.599999999999994 5.699999999999989 9.199999999999989 0.8999999999999773 15-21.19999999999999 26.399999999999977-8.599999999999966 54.89999999999998 13.400000000000034 68.10000000000002z m36-74.30000000000001c35.39999999999998 1.5 70.39999999999998-1.1000000000000227 104.89999999999998-9.900000000000006 36.5-9.200000000000017 69-25.5 97.5-53.5 8.700000000000045 30.69999999999999 24.299999999999955 54.69999999999999 46.60000000000002 74.29999999999998 3.7999999999999545 3.3000000000000114 4.2999999999999545 7 3.199999999999932 11.199999999999989-15.5 55.5-36 108.70000000000005-76.39999999999998 151.60000000000002-11.299999999999955 12-24.299999999999955 21.69999999999999-40.39999999999998 25.899999999999977-30.30000000000001 8-53.39999999999998-6.099999999999966-72.69999999999999-27.19999999999999-28-30.69999999999999-42.80000000000001-68.59999999999997-55.19999999999999-107.39999999999998-5.800000000000011-18.100000000000023-9.800000000000011-36.80000000000001-15.800000000000011-54.80000000000001-2.900000000000034-9.199999999999989 0.0999999999999659-10.5 8.300000000000011-10.199999999999989z m217.5 239.39999999999998c-3.8999999999999773-0.8000000000000114-7.2000000000000455-1.599999999999966-9.100000000000023 3.1000000000000227-15.399999999999977 38.400000000000034-49.60000000000002 57.900000000000034-80.89999999999998 80.30000000000001-3 2.1000000000000227-5.5 4.2999999999999545-9.800000000000011 1.1999999999999318-31-22.699999999999932-65.80000000000001-41.299999999999955-81.60000000000002-79.49999999999994-1.3000000000000114-3.3000000000000114-2.5-7.600000000000023-6.300000000000011-6-16.599999999999966 3.3000000000000114-31.69999999999999 6.199999999999989-46.69999999999999 9.099999999999966-5.899999999999977 1.1000000000000227-4.800000000000011 4.5-2.599999999999966 8.100000000000023 11.699999999999989 19.600000000000023 23.099999999999966 39.299999999999955 38.39999999999998 56.5 27.80000000000001 31.200000000000045 64.80000000000001 50.10000000000002 98.60000000000002 73.29999999999995 4.699999999999989 3.2000000000000455 7.899999999999977 0.7000000000000455 11.199999999999989-1.5 18.69999999999999-12.399999999999977 37.19999999999999-25 55.900000000000034-37.19999999999993 34.799999999999955-22.700000000000045 58.299999999999955-55 78.19999999999993-90.5 3-5.400000000000034 3.1000000000000227-8-3.8999999999999773-9.100000000000023-13.899999999999977-2.1999999999999886-27.600000000000023-5-41.39999999999998-7.800000000000011z"/>
</svg>
