<svg xmlns="http://www.w3.org/2000/svg" viewBox="0 0 1000 1000" width="1000" height="1000">
<path d="M469 461.7c2.8999999999999773-13.599999999999966 3-21.599999999999966-15.300000000000011-24.30000000000001-69.19999999999999-10.5-138.59999999999997-16-208.7-13-77.69999999999999 3.2000000000000455-154.7 12.900000000000034-231.7 22.900000000000034-14.200000000000012 1.8000000000000114-14.400000000000011 9.899999999999977-12.700000000000012 21.399999999999977 10.700000000000001 74.80000000000001 20.799999999999997 149.59999999999997 31.1 224.50000000000006 6.199999999999996 45.19999999999993 12.199999999999996 90.39999999999998 18.599999999999994 135.5 1.2000000000000028 8.799999999999955 1.4000000000000057 19.09999999999991 14.900000000000006 19.59999999999991 49 1.900000000000091 95.39999999999999 16.200000000000045 141.60000000000002 30.600000000000023 51.19999999999999 15.899999999999977 100.69999999999999 35.39999999999998 140 74.30000000000007 4.699999999999989 4.699999999999932 6.699999999999989 15.199999999999932 15.300000000000011 12.599999999999909 8.899999999999977-2.699999999999932 7.099999999999966-12.899999999999977 8.5-20.199999999999932 17.19999999999999-86.70000000000005 34-173.39999999999998 51.5-260 15.399999999999977-74.80000000000007 31.19999999999999-149.39999999999998 46.89999999999998-223.90000000000003z m455.5 170.2c-41.60000000000002-24.799999999999955-82.39999999999998-51-124.20000000000005-75.5-80.79999999999995-47.299999999999955-166.29999999999995-83.79999999999995-256.69999999999993-108.59999999999997-11.899999999999977-3.3000000000000114-19.700000000000045-5-24.300000000000068 12.300000000000011-21.199999999999932 78.19999999999993-42.599999999999966 156.39999999999998-62.099999999999966 235.10000000000002-21.5 86.39999999999998-43.80000000000001 172.69999999999993-65.89999999999998 259-1.1000000000000227 4.199999999999932-2.6999999999999886 8.599999999999909 1.599999999999966 11.599999999999909 3.5 2.400000000000091 6.600000000000023-0.599999999999909 9.700000000000045-2.199999999999932 33.39999999999998-17 70-17.5 106-21.200000000000045 13.799999999999955-1.8999999999999773 27 2.7000000000000455 40.5 3.800000000000068 52 4.199999999999932 103.69999999999993 10.699999999999932 153.10000000000002 28 15.799999999999955 5.5 23.299999999999955 3.3999999999999773 32.19999999999993-11.200000000000045 62.700000000000045-103.60000000000002 128.20000000000005-205.39999999999998 195.39999999999998-306 8.100000000000023-12.200000000000045 6.800000000000068-17.899999999999977-5.2999999999999545-25.100000000000023z m63.10000000000002-122.79999999999995c-14.200000000000045-4.400000000000034-27.800000000000068-11-41.80000000000007-16.100000000000023-89.09999999999991-32.30000000000001-181.5-48.69999999999999-275.5-57.19999999999999-36.5-3.3000000000000114-73.09999999999991-8.5-110.09999999999991-0.9000000000000341l10 1.8000000000000114c61 11.199999999999989 121.19999999999993 25.5 178 51.400000000000034 58.5 26.699999999999932 114.09999999999991 58.5 164.5 98.5 9.799999999999955 7.7999999999999545 15.5 8.5 24.09999999999991-2.2000000000000455 16.90000000000009-21.100000000000023 35.60000000000002-40.799999999999955 53.60000000000002-61 5.800000000000068-6.2999999999999545 9.100000000000023-10.600000000000023-2.7999999999999545-14.299999999999955z m-957.5-109c2.8999999999999773 10.799999999999955 9.199999999999974 11.799999999999955 17.49999999999998 9.199999999999989 32.1-9.900000000000034 65.19999999999999-14.5 98.4-18.69999999999999 62-7.900000000000034 123.60000000000002-10.400000000000034 185.39999999999998 1.3999999999999773 24.30000000000001 4.600000000000023 48.900000000000034 7.800000000000011 73.40000000000003 11.600000000000023l1.5-5.300000000000011c-20.5-7.300000000000011-41.19999999999999-14.199999999999989-61.5-22-105.30000000000001-40.60000000000002-214.9-60-327-67.60000000000002-11.00000000000001-0.6999999999999886-14.200000000000012 2.900000000000034-10.800000000000011 13.600000000000023 8 25.80000000000001 16.1 51.69999999999999 23.1 77.80000000000001z m950.6-20.900000000000034c-71.90000000000009-14.599999999999966-144.70000000000005-12.800000000000011-217.30000000000007-10.599999999999966-68.89999999999998 2.099999999999966-137.29999999999995 10.099999999999966-203 32.799999999999955 9.700000000000045-1.099999999999966 19.399999999999977-2.8999999999999773 29.200000000000045-3.099999999999966 118.60000000000002-2.400000000000034 236.19999999999993 4.5 351 38.69999999999999 43.10000000000002 12.800000000000011 42.19999999999993 10.800000000000011 56.89999999999998-31.80000000000001 6.7999999999999545-19.69999999999999-0.7000000000000455-22.69999999999999-16.799999999999955-26z m-917.3000000000001-121.09999999999997c98.00000000000003 10 190.40000000000003 40.39999999999998 280.5 78.59999999999997 25.200000000000045 10.699999999999989 50.400000000000034 21.30000000000001 79.60000000000002 33.60000000000002-7.100000000000023-14.400000000000034-16.69999999999999-19.30000000000001-25.30000000000001-24.900000000000034-90.59999999999997-59.799999999999955-185.79999999999998-110.39999999999998-288.29999999999995-146.7-52.80000000000003-18.69999999999999-59.80000000000003-14.199999999999989-62.500000000000036 41.20000000000002-0.6999999999999957 12.599999999999994 2.8000000000000043 16.900000000000006 16 18.200000000000017z m375 11.799999999999955c-56.89999999999998-41.19999999999999-113.39999999999998-82.09999999999997-170.2-123.19999999999999-4 5.5-7.399999999999977 10.400000000000006-11.099999999999966 15.5 57 41.30000000000001 113.5 82.20000000000002 170.29999999999995 123.19999999999999 3.6000000000000227-5.099999999999966 7-9.899999999999977 11-15.5z m179.60000000000002-1.099999999999966c48.799999999999955-50.60000000000002 97-100.70000000000002 145.70000000000005-151.10000000000002-4.800000000000068-4.599999999999994-9.100000000000023-8.699999999999989-13.700000000000045-13.199999999999989-48.799999999999955 50.599999999999994-97.20000000000005 100.80000000000001-145.70000000000005 151 4.800000000000068 4.600000000000023 8.900000000000091 8.600000000000023 13.700000000000045 13.300000000000011z m28.200000000000045 60.599999999999966c68.5-16 136.5-32 204.5-47.89999999999998-1.6000000000000227-6.600000000000023-3-12.300000000000011-4.600000000000023-18.600000000000023-68.30000000000007 16.100000000000023-136.10000000000002 32-204.5 48.10000000000002 1.6999999999999318 6.5 3.1000000000000227 12.199999999999989 4.600000000000023 18.399999999999977z m-43.90000000000009-302.7c-6.399999999999977-1.29999999999999-12.299999999999955-2.4999999999999893-18.59999999999991-3.6999999999999886-13.700000000000045 68.9-27.200000000000045 137.2-40.90000000000009 206 6.5 1.4000000000000057 12.300000000000068 2.5999999999999943 18.600000000000023 3.9000000000000057 13.600000000000023-68.9 27.200000000000045-137.2 40.89999999999998-206.20000000000002z m-113.99999999999994 208.9c5.5-1.299999999999983 5.699999999999989-3.6999999999999886 3.8000000000000114-8.599999999999994-19.700000000000045-49.900000000000006-39.10000000000002-99.9-58.700000000000045-149.8l-14.099999999999966-35.39999999999999c-1.1999999999999886-3.0999999999999943-2.6000000000000227-4-5.699999999999989-2.6999999999999957-4.2000000000000455 1.7999999999999972-8.5 3.3999999999999986-13.300000000000011 5.199999999999996 25.80000000000001 65.8 51.30000000000001 130.7 76.80000000000001 195.60000000000002 4.099999999999966-1.6000000000000227 7.5-3.400000000000034 11.199999999999989-4.30000000000004z m-85.60000000000002-32.099999999999994l38.400000000000034 48.099999999999994c2.1999999999999886 2.8000000000000114 4.599999999999966 5.500000000000028 7 8.299999999999983 5.199999999999989-4.099999999999966 9.899999999999977-7.799999999999983 14.599999999999966-11.599999999999966-19.399999999999977-24.80000000000001-38.39999999999998-49.10000000000002-58-74.10000000000002-4.399999999999977 3.6000000000000227-8 6.700000000000017-11.899999999999977 9.400000000000006-3 2.0999999999999943-2.1999999999999886 4.400000000000006-0.6000000000000227 6.599999999999994 3.5 4.5 7 8.900000000000006 10.5 13.300000000000011z m101.10000000000002-13.400000000000006c1.3000000000000114 13.099999999999994 2.5 26.30000000000001 3.8000000000000114 39.80000000000001 6.5-0.5999999999999943 12.399999999999977-1.0999999999999943 18.699999999999932-1.700000000000017-2.699999999999932-31.19999999999999-5.5-62-8.199999999999932-92.89999999999998-5.899999999999977 0.19999999999998863-10.5 0.5999999999999943-15 0.5-4.2000000000000455 0-4.800000000000011 2.1999999999999886-4.400000000000034 5.699999999999989 1.8000000000000114 16.30000000000001 3.5 32.5 5.100000000000023 48.599999999999994z m199.59999999999997 45.80000000000001c-13.799999999999955 7.900000000000006-27.799999999999955 15.5-41.5 23.400000000000006-11.600000000000023 6.699999999999989-23 13.599999999999966-35 20.69999999999999 3.1000000000000227 5.399999999999977 6 10.600000000000023 9.300000000000068 16.30000000000001 26.899999999999977-15.5 53.39999999999998-30.69999999999999 80.39999999999998-46.20000000000002-2.6000000000000227-4.5-5.2000000000000455-8.199999999999989-7-12.400000000000006-1.7000000000000455-3.3999999999999773-3-3.5999999999999943-6.2000000000000455-1.799999999999983z m-112.19999999999993 10.199999999999989c14.199999999999932-27.5 28.299999999999955-54.69999999999999 42.799999999999955-82.6-6-3.0999999999999943-11.299999999999955-5.900000000000006-16.899999999999977-8.800000000000011-14.399999999999977 27.900000000000006-28.5 55.10000000000002-42.700000000000045 82.60000000000002 5.7000000000000455 3 11 5.799999999999983 16.800000000000068 8.799999999999983z"/>
</svg>
