<svg xmlns="http://www.w3.org/2000/svg" viewBox="0 0 1000 1000" width="1000" height="1000">
<path d="M861.1 820.2c-10 0-20 0.39999999999997726-30-0.10000000000002274-13.399999999999977-0.6000000000000227-19.600000000000023-9.899999999999977-15.300000000000068-22.600000000000023 6.7000000000000455-19.899999999999977 13.5-39.700000000000045 20.800000000000068-59.39999999999998 2-5.300000000000068 1.1000000000000227-7.800000000000068-3.6000000000000227-11.300000000000068-32.10000000000002-23.59999999999991-30.5-68.39999999999998 3.2000000000000455-89.79999999999995 4.699999999999932-3 6-6.100000000000023 6-11.200000000000045-0.10000000000002274-79.09999999999991-0.20000000000004547-158.09999999999997 0.09999999999990905-237.19999999999993 0-8.800000000000011-2.5-9.400000000000034-10.299999999999955-7.400000000000034-103.39999999999998 26.5-207 52.69999999999999-310.5 79.19999999999999-15.300000000000011 4-30.399999999999977 4.100000000000023-45.39999999999998 0.20000000000004547-154-39.80000000000001-308-79.70000000000005-460-126.90000000000003-9.100000000000023-2.8000000000000114-16.300000000000022-6.599999999999966-16.100000000000023-17.30000000000001 0.2-10.299999999999955 7.6-13.799999999999955 16.1-16.399999999999977 95.4-28.5 192.3-51.099999999999994 288.59999999999997-76.19999999999999 51.5-13.5 103.30000000000001-25.80000000000001 154.90000000000003-39.10000000000002 29.799999999999955-7.799999999999983 59-6.399999999999977 88.69999999999993 1.200000000000017 144.80000000000007 37.19999999999999 289.20000000000005 75.4 431.4000000000001 121.79999999999998 1.8999999999999773 0.6000000000000227 3.699999999999932 1.3000000000000114 5.699999999999932 1.8000000000000114 8.800000000000068 2.5 15.100000000000023 7.5 14.600000000000023 17.5-0.5 9.699999999999989-7.2999999999999545 13.399999999999977-15.700000000000045 15.5-34.19999999999993 8.699999999999989-68.29999999999995 17.600000000000023-102.59999999999991 26-6.100000000000023 1.5-7.900000000000091 3.8000000000000114-7.900000000000091 10 0.20000000000004547 82 0.20000000000004547 164.10000000000002 0 246.10000000000002 0 5.199999999999932 1.900000000000091 7.2999999999999545 6.400000000000091 9.5 38.299999999999955 18.100000000000023 43.19999999999993 67.39999999999998 9.199999999999932 92.5-5.199999999999932 3.8999999999999773-5.699999999999932 6.7999999999999545-3.699999999999932 12.299999999999955 7 18.700000000000045 13.5 37.60000000000002 20 56.5 5.399999999999977 15.600000000000023-1 24.5-17.5 24.800000000000068-9.100000000000023 0.09999999999990905-18.100000000000023 0-27.100000000000023 0z m-682.9000000000001-349.90000000000003c5.684341886080802e-14-16.69999999999999 0.3000000000000682-33.30000000000001-0.1999999999999318-50-0.19999999999998863-8 1.6999999999999886-9.400000000000034 9.599999999999994-7.199999999999989 63.70000000000002 18.099999999999966 127.50000000000003 35.69999999999999 191.9 51.39999999999998 35.5 8.600000000000023 71.19999999999999 16.899999999999977 106.89999999999998 25.100000000000023 19.200000000000045 4.5 37.89999999999998-0.30000000000001137 56-5.300000000000011 88.30000000000007-24.30000000000001 177.39999999999998-45.19999999999999 266-67.80000000000001 13.399999999999977-3.3999999999999773 13.399999999999977-3.3999999999999773 13.399999999999977 10.800000000000011 0.10000000000002274 29-0.2999999999999545 58 0.20000000000004547 86.99999999999994 0.2999999999999545 19.700000000000045-6.899999999999977 35.700000000000045-20.700000000000045 49.200000000000045-21 20.5-47.09999999999991 32.200000000000045-74.39999999999998 41.60000000000002-53.299999999999955 18.299999999999955-108.5 26.5-164.5 30.299999999999955-61.39999999999998 4.2000000000000455-122.59999999999997 2.5-183.59999999999997-6-46.30000000000001-6.5-91.69999999999999-16.299999999999955-134.60000000000002-35.89999999999998-18-8.200000000000045-34.79999999999998-18.200000000000045-48.39999999999998-32.89999999999998-11.900000000000006-12.800000000000068-18.200000000000017-27.600000000000023-17.80000000000001-45.30000000000007 0.4000000000000057-14.999999999999943 0.09999999999999432-29.999999999999943 0.09999999999999432-44.99999999999994h0.09999999999999432z"/>
</svg>
