<svg xmlns="http://www.w3.org/2000/svg" viewBox="0 0 1000 1000" width="1000" height="1000">
<path d="M848.7 927c-0.10000000000002274-1.3999999999999773 0-2.7999999999999545 0-4.2000000000000455v-461.4c0-2.7999999999999545-0.20000000000004547-5.599999999999966-0.3000000000000682-8.399999999999977h-13.5c-15.199999999999932 3.3999999999999773-30.699999999999932 2.3000000000000114-46 3.6000000000000227-80.79999999999995 6.599999999999966-160.5 18.299999999999955-236.29999999999995 49.19999999999999-16.200000000000045 6.599999999999966-31.899999999999977 14.300000000000011-46.80000000000001 23.30000000000001-3.400000000000034 2-6.100000000000023 2.699999999999932-9.900000000000034 0.5-53.599999999999966-31.700000000000045-112.5-48.10000000000002-173.2-59.10000000000002-48.30000000000001-8.800000000000011-97-13.699999999999989-146-15.699999999999989-3.5-0.10000000000002274-7.399999999999977 0.8000000000000114-10.599999999999994-1.6000000000000227h-13.599999999999994c-0.09999999999999432 3.6000000000000227-0.30000000000001137 7.300000000000011-0.30000000000001137 11v456.3c0 14.399999999999977-2 12.700000000000045 13.200000000000017 13.299999999999955 86.19999999999999 3.6000000000000227 171.4 13.200000000000045 253.70000000000002 40.700000000000045 14.699999999999989 4.899999999999977 29.19999999999999 10.5 43.19999999999999 17.100000000000023 9.300000000000011 4.399999999999977 19.399999999999977 5.600000000000023 29 8.699999999999932h18.599999999999966c50.39999999999998-15.5 98.70000000000005-37.89999999999998 151.20000000000005-47.09999999999991 46.69999999999993-8.300000000000068 93.5-14.700000000000045 140.79999999999995-17.600000000000023 13.5-0.8000000000000682 27-1.5 40.5-1.8999999999999773 4.600000000000023-0.40000000000009095 6.800000000000068-2 6.300000000000068-6.7000000000000455z m-381.6-153.20000000000005v136.20000000000005c0 9.799999999999955-0.10000000000002274 9.799999999999955-9.100000000000023 6.399999999999977-54.10000000000002-20.199999999999932-110.19999999999999-32.19999999999993-167.3-39.89999999999998-21.5-2.8999999999999773-43-5.600000000000023-64.69999999999999-6.7000000000000455-7-0.39999999999997726-7.300000000000011-4.2999999999999545-7.300000000000011-9.5 0.10000000000002274-54.5 0-108.89999999999998 0-163.39999999999998v-162.5c0-5.399999999999977-0.39999999999997726-9.899999999999977 7.800000000000011-9.100000000000023 72 7.100000000000023 143.10000000000002 18.300000000000068 209.60000000000002 48.90000000000009l23.299999999999955 11.899999999999977c6.300000000000011 2.8999999999999773 7.900000000000034 7.399999999999977 7.900000000000034 14.100000000000023-0.30000000000001137 57.89999999999998-0.19999999999998863 115.69999999999993-0.19999999999998863 173.5999999999999z m304.9 96.20000000000005c-78.60000000000002 6.2999999999999545-156 18.899999999999977-230.20000000000005 47-6.599999999999909 2.5-8.199999999999932 1-8.099999999999909-5.7999999999999545 0.09999999999990905-104.40000000000009 0.1999999999999318-208.80000000000007-0.10000000000002274-313.20000000000005 0-6.7000000000000455 3.3999999999999773-9.399999999999977 8.299999999999955-12.200000000000045 39.39999999999998-22.399999999999977 82.10000000000002-35.5 126-45.09999999999991 34.5-7.5 69.39999999999998-11.900000000000091 104.39999999999998-15.600000000000023 8-0.8000000000000682 10 1.6000000000000227 10 9.399999999999977-0.2999999999999545 54.200000000000045-0.09999999999990905 108.29999999999995-0.09999999999990905 162.5 0 53.89999999999998-0.10000000000002274 107.79999999999995 0.1999999999999318 161.70000000000005-0.10000000000002274 8.199999999999932-2.3999999999999773 10.699999999999932-10.399999999999977 11.299999999999955z m-433.1-533.5c11 7.600000000000023 18.100000000000023 16 24.200000000000045 27.100000000000023 28.5 51.099999999999966 69.29999999999995 86 129.89999999999998 89.09999999999997 71.20000000000005 3.6999999999999886 117.39999999999998-34.89999999999998 148.60000000000002-95 3.7999999999999545-7.300000000000011 7-13.899999999999977 15.100000000000023-18.30000000000001 26.299999999999955-14.299999999999955 40-38.39999999999998 45.799999999999955-66.5 4-19.299999999999983 5.399999999999977-40.89999999999998-12.5-54.39999999999998-12.799999999999955-9.699999999999989-15.600000000000023-21.30000000000001-17.299999999999955-35.19999999999999-8.800000000000068-71.4-42.80000000000007-122.70000000000002-114.30000000000007-145.4-30-9.500000000000007-59.299999999999955-21.700000000000006-88-34.7-14.099999999999966-6.400000000000003-18.69999999999999-3.300000000000003-17.69999999999999 10.599999999999998 1.1000000000000227 16.4-5.399999999999977 15.599999999999998-15.800000000000011 8.099999999999998-2.5-1.7999999999999972-5-3.5-12.5-8.7 6.800000000000011 24.000000000000004-7.2999999999999545 27.599999999999998-21.19999999999999 33.099999999999994-34.39999999999998 13.400000000000006-57.5 38-69.19999999999999 73.3-7.300000000000011 21.80000000000001-11.399999999999977 44.099999999999994-10.800000000000011 67 0.4000000000000341 13.099999999999994-0.39999999999997726 24.200000000000017-13.699999999999989 32-8.199999999999989 4.800000000000011-12 14.700000000000017-12.899999999999977 24.5-4 39.099999999999994 10.199999999999989 71.29999999999998 42.299999999999955 93.4z m-15.699999999999989-86.19999999999999c2.1999999999999886-10.400000000000006 8.300000000000011-16.700000000000017 19.400000000000034-17.700000000000017 10.099999999999966-0.9000000000000057 17.099999999999966 2.3000000000000114 20.299999999999955 12.599999999999994 2.3000000000000114 7.200000000000017 4.900000000000034 15.600000000000023 15.100000000000023 13.5 9.800000000000011-2 8.5-11 10-18.299999999999983 3.5-17.599999999999994 3.1999999999999886-35.30000000000001 3.3999999999999773-53 0.30000000000001137-25.700000000000017 12.100000000000023-43.5 36.200000000000045-52.30000000000001 48.19999999999999-17.69999999999999 96.60000000000002-17.69999999999999 144.39999999999998 1.4000000000000057 20.299999999999955 8.099999999999994 32.89999999999998 21.80000000000001 33.200000000000045 45.80000000000001 0.2999999999999545 20.799999999999983 3.3999999999999773 41.599999999999994 5.5 62.39999999999998 0.599999999999909 6.200000000000017 1.099999999999909 13.199999999999989 9.5 14.400000000000034 8 1.1999999999999886 12-4.200000000000017 13.699999999999932-10.400000000000034 4.100000000000023-15.199999999999989 14.700000000000045-18.69999999999999 27.700000000000045-15.099999999999994 13.399999999999977 3.5999999999999943 16.600000000000023 15.099999999999994 14.699999999999932 27.200000000000017-4 25.5-13.699999999999932 47.80000000000001-40.69999999999993 56.599999999999966-9.800000000000068 3.2000000000000455-11.300000000000068 10.900000000000034-14.5 18.200000000000045-20.399999999999977 46.799999999999955-52 80.39999999999998-104.60000000000002 89.5-5 0.8999999999999773-10 1.099999999999966-14.5 1.599999999999966-60.69999999999999-3.599999999999966-97.5-38.80000000000001-121.69999999999999-90-4.900000000000034-10.300000000000011-9-17.099999999999966-21.19999999999999-20.599999999999966-21-6.2000000000000455-40.400000000000034-44.200000000000045-35.900000000000034-65.80000000000001z"/>
</svg>
