<svg xmlns="http://www.w3.org/2000/svg" viewBox="0 0 1000 1000" width="1000" height="1000">
<path d="M998.6 504.3c0-23.30000000000001-12.5-35.60000000000002-35.39999999999998-38.10000000000002-75.90000000000009-8.099999999999966-151.80000000000007-15.800000000000011-227.60000000000002-24.899999999999977-23.600000000000023-2.8000000000000114-30.300000000000068 4.899999999999977-31.600000000000023 28.599999999999966-2 35.60000000000002-24.100000000000023 54.5-60.700000000000045 54.5-20.899999999999977 0-41.89999999999998 0-62.89999999999998 0 19.700000000000045 11 39.80000000000007 14.200000000000045 60.10000000000002 16.399999999999977 70.29999999999995 7.7000000000000455 140.79999999999995 14 211 22.800000000000068 54 6.699999999999932 63.299999999999955 18.699999999999932 63.39999999999998 72.10000000000002 0.20000000000004547 82.69999999999993 0.10000000000002274 165.39999999999998 0.10000000000002274 248.0999999999999 32.299999999999955-30.899999999999977 79-52.89999999999998 81.70000000000005-96.29999999999995 6-94.10000000000002 2-188.79999999999995 1.8999999999999773-283.2z m-856.8 59.99999999999994c46.99999999999994-4.099999999999909 93.99999999999994-8.699999999999932 140.69999999999993-15.5 46.80000000000001-6.7999999999999545 95.10000000000002-4.5 140.60000000000002-20.399999999999977-5.7000000000000455-3-11.300000000000011-4.399999999999977-16.600000000000023-3.699999999999932-55.60000000000002 7.199999999999932-99.19999999999999-5.900000000000091-116.30000000000001-66.30000000000007-5.800000000000011-20.399999999999977-22.19999999999999-17.299999999999955-37.599999999999994-15.599999999999966-66.19999999999999 7.399999999999977-132.2 17.099999999999966-198.6 21.5-40.4 2.6999999999999886-52.5 21.19999999999999-51.8 58.400000000000034 1.3999999999999972 68 6.299999999999997 136.79999999999995-1.2000000000000028 204.0999999999999-8.2 73.70000000000005 33.6 114.70000000000005 86.1 165.80000000000007 0-95.5 0.5-180.10000000000002-0.19999999999998863-264.6-0.20000000000000284-38.10000000000002 14.899999999999991-60.200000000000045 54.900000000000006-63.700000000000045z m160.89999999999992-135.49999999999994c0-53.10000000000002 0-100 0-146.90000000000003-0.19999999999998863-145.59999999999997-15.399999999999977-150.89999999999998 146.3-148.39999999999998 70.20000000000005 1.0999999999999943 140.39999999999998 0.19999999999998863 216.70000000000005 0.19999999999998863-20.40000000000009-30.799999999999983-18.40000000000009-70.19999999999999-66.30000000000007-69.19999999999999-91.5 1.9000000000000057-183.09999999999997 1.2000000000000028-274.59999999999997 0.29999999999999716-34.400000000000034-0.29999999999999716-47 16.299999999999997-46.900000000000034 48.400000000000006 0.4000000000000341 87.39999999999999-0.0999999999999659 174.8 0.30000000000001137 262.2 0 18.400000000000034 1.8000000000000114 37 24.5 53.400000000000034z m336.09999999999997 79.19999999999999c35.60000000000002 0.8000000000000114 50.30000000000007-16.30000000000001 50.200000000000045-50.60000000000002-0.39999999999997726-86.09999999999997-0.20000000000004547-172.2-0.10000000000002274-258.29999999999995 0-32.400000000000034-15.799999999999955-49.00000000000003-48.299999999999955-49.00000000000003-91.60000000000002-0.09999999999999432-183.20000000000005 0-274.90000000000003-0.09999999999999432-30.30000000000001 0-47.19999999999999 14-47.30000000000001 45-0.19999999999998863 88.89999999999998-0.0999999999999659 177.8 0 266.6 0.10000000000002274 32.89999999999998 16.600000000000023 47.39999999999998 49.700000000000045 46.5 44.39999999999998-1.2000000000000455 88.79999999999995-0.30000000000001137 133.29999999999995-0.30000000000001137 45.80000000000007 0 91.60000000000002-0.8000000000000114 137.39999999999998 0.19999999999998863z m-257.29999999999995-11.699999999999989c-32.5-0.6000000000000227-50.80000000000001-19.69999999999999-50.80000000000001-53.5 0-75.10000000000002-0.0999999999999659-150.10000000000002 0-225.20000000000002 0-35.79999999999998 18.100000000000023-53.69999999999999 53.900000000000034-53.69999999999999 40.299999999999955 0 80.59999999999997 0 120.89999999999998 0 38.89999999999998 0 77.79999999999995 0.09999999999999432 116.79999999999995 0 33.80000000000007-0.09999999999999432 51.80000000000007 15.699999999999989 51.700000000000045 50.5-0.10000000000002274 76.49999999999997-0.39999999999997726 152.9 0.20000000000004547 229.29999999999998 0.2999999999999545 35.30000000000001-18.90000000000009 52.10000000000002-50.90000000000009 52.60000000000002-80.59999999999991 1.3000000000000114-161.19999999999993 1.3999999999999773-241.79999999999995 0z m40.19999999999999 53.69999999999999c-91 9.700000000000045-181.89999999999998 20.100000000000023-273 29-32.19999999999999 3.2000000000000455-46.39999999999999 17.899999999999977-45.999999999999986 50.89999999999998 1 86 0.7000000000000028 172.10000000000002 0.09999999999999432 258.20000000000005-0.29999999999999716 35.799999999999955 15.400000000000006 50.39999999999998 51.2 46.60000000000002 92.4-9.700000000000045 184.89999999999998-18.200000000000045 277.3-27.600000000000023 27.599999999999966-2.800000000000068 42-17.800000000000068 41.5-46.89999999999998-0.8000000000000114-43.10000000000002-0.19999999999998863-86.10000000000002-0.19999999999998863-129.10000000000002 0-44.5-0.6000000000000227-88.89999999999998 0.19999999999998863-133.30000000000007 0.5999999999999659-35.69999999999993-15.900000000000034-51.5-51.10000000000002-47.799999999999955z m38.30000000000001 287.5c0.8999999999999773 37.39999999999998-17.19999999999999 56.89999999999998-53.39999999999998 60.700000000000045-78.5 8.199999999999932-156.90000000000003 17.09999999999991-235.50000000000003 24.09999999999991-35.19999999999999 3.2000000000000455-55.8-15.699999999999932-56.3-51-1.0999999999999943-76.19999999999993-0.7000000000000028-152.5-0.20000000000000284-228.69999999999993 0.20000000000000284-28.100000000000023 12.800000000000011-48.5 42.900000000000006-51.80000000000007 81.19999999999999-8.899999999999977 162.3-18.199999999999932 243.7-24.899999999999977 43.30000000000001-3.6000000000000227 57.19999999999999 11.100000000000023 58.5 55.39999999999998 1 36.10000000000002 0.19999999999998863 72.10000000000002 0.19999999999998863 108.20000000000005l-0.0999999999999659 0c0 36-0.6999999999999886 72 0.19999999999998863 108.10000000000002z m438.70000000000005-80.20000000000005c0-43-0.6000000000000227-86.09999999999991 0.1999999999999318-129.0999999999999 0.6000000000000227-28-9.299999999999955-44.80000000000007-39.10000000000002-47.90000000000009-95.09999999999991-9.799999999999955-190.19999999999993-20.59999999999991-285.29999999999995-30.299999999999955-29.100000000000023-3-44.39999999999998 11.5-44.39999999999998 41.10000000000002 0 91.60000000000002 0.10000000000002274 183.29999999999995-0.10000000000002274 274.9 0 25.799999999999955 14.5 38.39999999999998 38 40.799999999999955 93.79999999999995 9.700000000000045 187.70000000000005 18.40000000000009 281.5 28 36.60000000000002 3.7000000000000455 50.39999999999998-13.199999999999932 49.5-48.39999999999998-1.2000000000000455-43-0.2999999999999545-86.10000000000002-0.2999999999999545-129.10000000000002z m-11.100000000000023 107.70000000000005c-1.5 44.5-23.200000000000045 61.10000000000002-67.30000000000007 56.10000000000002-70.19999999999993-7.800000000000068-140.5-15-210.79999999999995-21.5-54.10000000000002-5-68.39999999999998-18.800000000000068-68.70000000000005-72.39999999999998-0.2999999999999545-66.5-0.599999999999909-133.10000000000002 0.10000000000002274-199.60000000000002 0.5-49.30000000000007 16.899999999999977-65.70000000000005 65.70000000000005-61.5 78.60000000000002 6.699999999999932 157 16.299999999999955 235.5 24.299999999999955 33.10000000000002 3.3999999999999773 44.69999999999993 24.899999999999977 45.5 54.200000000000045 1 37.39999999999998 0.1999999999999318 74.79999999999995 0.1999999999999318 112.29999999999995 0.10000000000002274 36 1.1000000000000227 72.10000000000002-0.1999999999999318 108.10000000000002z m-229.5-424.7c-0.5-73.40000000000003-0.6000000000000227-146.90000000000003 0.10000000000002274-220.3 0.2999999999999545-28.099999999999994-11.800000000000068-40.69999999999999-39.700000000000045-40.30000000000001-38.799999999999955 0.6000000000000227-77.60000000000002 0.10000000000002274-116.39999999999998 0.10000000000002274-37.400000000000034 0-74.90000000000003 0.5-112.20000000000005-0.20000000000001705-29-0.5-43.39999999999998 10.599999999999994-42.89999999999998 41.599999999999994 1 72.10000000000002 1 144.10000000000002 0 216.2-0.39999999999997726 30.200000000000045 13.199999999999989 43.5 42 43.5 76.19999999999999 0.10000000000002274 152.39999999999998 0 228.60000000000002 0 27.100000000000023 0 40.69999999999993-12.599999999999966 40.5-40.599999999999966z m-48.89999999999998 19.30000000000001c-22.200000000000045 0.2999999999999545-44.5 1-66.60000000000002-0.30000000000001137-12.399999999999977-0.6999999999999886-32 8.099999999999966-34.5-11.600000000000023-2.1000000000000227-15.5-12.700000000000045-36.80000000000001 10.100000000000023-47.599999999999966 8.399999999999977-4 8.799999999999955-8.100000000000023 6.599999999999909-15.700000000000045-2.7999999999999545-9.699999999999989-5.199999999999932-19.5-18.299999999999955-17.69999999999999-18.399999999999977 2.6000000000000227-39.89999999999998-9-54.80000000000001 8.600000000000023-7.199999999999989 8.399999999999977-2.8999999999999773 16.30000000000001 5 27.399999999999977 23.100000000000023 32.30000000000001 8.100000000000023 56.400000000000034-31.399999999999977 56.900000000000034-11.100000000000023 0.0999999999999659-22.30000000000001 0.6999999999999886-33.30000000000001-0.10000000000002274-11.600000000000023-0.8999999999999773-28.600000000000023 5.5-32.19999999999999-10.399999999999977-3.6000000000000227-16.700000000000045-9.600000000000023-37.400000000000034 5.699999999999989-51.10000000000002 37.89999999999998-33.89999999999998 37.39999999999998-84.10000000000002 55.10000000000002-126.39999999999998 6.5-15.700000000000017-18.100000000000023-29.400000000000034-15.800000000000011-51.50000000000003 2.3999999999999773-23 7.800000000000011-32.19999999999999 31.399999999999977-30.400000000000006 22.100000000000023 1.700000000000017 44.5 0.30000000000001137 66.69999999999999 0.30000000000001137 18 0 36.10000000000002-0.09999999999999432 54.10000000000002 0 39.5 0.30000000000001137 57.39999999999998 27.30000000000001 34.39999999999998 59.900000000000006-11.799999999999955 16.700000000000017-9.299999999999955 26.900000000000006-2.7999999999999545 39.99999999999997 18.399999999999977 37.400000000000034 18.299999999999955 81.70000000000005 53.60000000000002 113.60000000000002 22.59999999999991 20.399999999999977 0 55.60000000000002-33 56.10000000000002z m-206.30000000000007 121.89999999999998c-78.59999999999997 8.299999999999955-157.09999999999997 16.700000000000045-235.7 24.200000000000045-28.599999999999994 2.7999999999999545-37.29999999999998 18.699999999999932-36.69999999999999 44.89999999999998 0.8000000000000114 34.60000000000002 0.19999999999998863 69.29999999999995 0.19999999999998863 104 0.10000000000002274 37.5 0.10000000000002274 75 0 112.39999999999998 0 30.5 15.600000000000023 42.299999999999955 45.10000000000002 39.10000000000002 75.79999999999998-8.100000000000023 151.5-16.300000000000068 227.39999999999998-23.600000000000023 26.5-2.6000000000000227 41.10000000000002-15 41.19999999999999-42 0.20000000000004547-73.60000000000002 0.30000000000001137-147.10000000000002 0-220.70000000000005-0.0999999999999659-27-12.599999999999966-41.39999999999998-41.5-38.299999999999955z m36.900000000000034 202.89999999999998c-6.800000000000011 36.700000000000045-32.400000000000034 61.30000000000007-68.69999999999999 70.70000000000005-67.40000000000003 17.399999999999977-136.70000000000002 22.600000000000023-205.60000000000002 29.899999999999977-8 0.8999999999999773-18.599999999999994 3.7000000000000455-20-7.7999999999999545-2.1999999999999886-17.300000000000068-7.300000000000011-35.200000000000045 5-51.700000000000045 19.599999999999994-26.100000000000023 20.599999999999994-117 2.1999999999999886-141.5-22-29.399999999999977-11.199999999999989-60.700000000000045 24-65.29999999999995 57.70000000000002-7.400000000000091 115.60000000000002-13.700000000000045 173.5-19 32.19999999999999-2.900000000000091 61.60000000000002 2.8999999999999773 74.90000000000003 38.39999999999998 12.599999999999966 33.89999999999998-6.900000000000034 55.10000000000002-33.900000000000034 77.39999999999998 28.5 17.600000000000023 54.80000000000001 35.299999999999955 48.60000000000002 68.89999999999998z m390.59999999999997-179.5c-75.89999999999998-6.699999999999932-151.79999999999995-14.899999999999977-227.60000000000002-23.299999999999955-32.59999999999991-3.6000000000000227-46.09999999999991 10.699999999999932-45.89999999999998 42.39999999999998 0.5 70.79999999999995 0.6000000000000227 141.60000000000002 0 212.5-0.1999999999999318 28.899999999999977 12.899999999999977 43.200000000000045 41.60000000000002 46 75.89999999999998 7.399999999999977 151.79999999999995 15.399999999999977 227.60000000000002 23.700000000000045 29.799999999999955 3.199999999999932 45-9.600000000000023 45.39999999999998-39.30000000000007 0.5-36.10000000000002 0.10000000000002274-72.19999999999993 0.20000000000004547-108.29999999999995 0-34.700000000000045-0.8000000000000682-69.5 0.2999999999999545-104.10000000000002 1-30-9.399999999999977-46.799999999999955-41.60000000000002-49.60000000000002z m11.899999999999977 229.30000000000007c-3.2999999999999545 8.599999999999909-11.199999999999932 15.899999999999977-18.299999999999955 22.299999999999955-41 36.60000000000002-134.60000000000002 35.89999999999998-192.39999999999998-0.8999999999999773-51.10000000000002-32.60000000000002-76.39999999999998-98-60.200000000000045-155.5 20.100000000000023-71.39999999999998 88.10000000000002-105 165.80000000000007-80.70000000000005 20.299999999999955 6.300000000000068 37.5 11.600000000000023 60.89999999999998 6.800000000000068 43-8.900000000000091 49 0.2999999999999545 49.39999999999998 52.59999999999991-3.6000000000000227 12.700000000000045 9.399999999999977 37.700000000000045-9 41.60000000000002-21.899999999999977 4.7000000000000455-49.700000000000045 7.5-67.60000000000002-17.299999999999955-13.699999999999932-19-31.399999999999977-32.89999999999998-56.39999999999998-23.100000000000023-23.200000000000045 9.200000000000045-26.399999999999977 30.600000000000023-25.899999999999977 52.10000000000002 0.5 17.899999999999977 0.8999999999999773 36.19999999999993 4.899999999999977 53.5 4.7000000000000455 20.600000000000023 19.700000000000045 33.799999999999955 41.10000000000002 35.799999999999955 20.199999999999932 1.8999999999999773 35.10000000000002-8.5 42.60000000000002-26.899999999999977 19-46.39999999999998 43.89999999999998-7.2999999999999545 63.09999999999991-2.2999999999999545 31.800000000000068 8.299999999999955 7.300000000000068 28.09999999999991 1.900000000000091 42z m-377.79999999999995-504.20000000000005c16.19999999999999 1.6999999999999886 36 9.600000000000023 39.10000000000002-4.100000000000023 4.099999999999966-17.799999999999955-2.7000000000000455-38.69999999999999-18.900000000000034-56.299999999999955-6.899999999999977 20.69999999999999-12.899999999999977 38.5-20.19999999999999 60.39999999999998z m-165.39999999999998 428.79999999999995c-20.100000000000023 0.40000000000009095-36.700000000000045 4.300000000000068-34.200000000000045 22.100000000000023 1.6000000000000227 20.300000000000068-0.7999999999999545 36 19.30000000000001 31.700000000000045 19.400000000000034-4.2000000000000455 44.900000000000034-3.3999999999999773 44.69999999999999-32.700000000000045-0.0999999999999659-17.399999999999977-14.399999999999977-21.399999999999977-29.799999999999955-21.100000000000023z m-14.100000000000023-47.19999999999993c16.69999999999999-3.7000000000000455 37.69999999999999-2.300000000000068 37.80000000000001-30.5-0.5-18.700000000000045-15.900000000000034-16.300000000000068-29.400000000000034-16.399999999999977-16.69999999999999-0.10000000000002274-30.19999999999999 2.7999999999999545-27.799999999999955 24.799999999999955 1.2999999999999545 12.600000000000023-0.30000000000001137 26.600000000000023 19.399999999999977 22.100000000000023z"/>
</svg>
