<svg xmlns="http://www.w3.org/2000/svg" viewBox="0 0 1000 1000" width="1000" height="1000">
<path d="M391.3 710.2c38.599999999999966 12.399999999999977 76.30000000000001 26.899999999999977 104.5 59.09999999999991v-12.799999999999955c0-150.20000000000005-0.30000000000001137-300.3 0.39999999999997726-450.5 0.10000000000002274-14.5-4.800000000000011-24.600000000000023-16.599999999999966-33.10000000000002-1.900000000000034-1.3999999999999773-3.8000000000000114-2.8999999999999773-5.800000000000011-4.2999999999999545-29.900000000000034-21.100000000000023-64.60000000000002-33.50000000000003-100.19999999999999-43.80000000000001-72-21-146.20000000000002-32.10000000000002-221.40000000000003-38.400000000000006-16.5-1.4000000000000057-33.099999999999994-1.5999999999999943-50.29999999999998-2.3000000000000114v480c29.099999999999994 2.1000000000000227 57.400000000000006 3.699999999999932 85.69999999999999 6.399999999999977 69.50000000000003 6.7000000000000455 137.79999999999998 18.5 203.70000000000002 39.700000000000045z m113 46.799999999999955v12.299999999999955c23.099999999999966-27 52.99999999999994-41 84.49999999999994-52.19999999999993 86.5-30.800000000000068 177.10000000000002-44.200000000000045 269.20000000000005-50.39999999999998 13.299999999999955-0.900000000000091 26.700000000000045-1.400000000000091 40-2.1000000000000227v-480.1c-6.600000000000023 0-12.700000000000045-0.5-18.600000000000023 0.09999999999999432-38.5 3.5999999999999943-77.19999999999993 6.300000000000011-115.5 11.5-59.10000000000002 7.900000000000006-117.29999999999995 20-172.89999999999998 40.30000000000001-28.5 10.400000000000006-55.799999999999955 22.599999999999994-77.79999999999995 42.79999999999998-6.300000000000068 5.699999999999989-9.200000000000045 11.900000000000034-9.200000000000045 20.5 0.39999999999997726 152.40000000000003 0.30000000000001137 304.8 0.30000000000001137 457.3z m408.3-495.1v417.6c-2.800000000000068 0.20000000000004547-4.5 0.39999999999997726-6.2000000000000455 0.5-89 1.6000000000000227-176.39999999999998 13.299999999999955-261.9 35.299999999999955-53.299999999999955 13.700000000000045-106.39999999999998 28.90000000000009-145 69.40000000000009-19-22.700000000000045-45.10000000000002-36.10000000000002-73.10000000000002-46.80000000000007-89.09999999999997-34.10000000000002-183.2-47.69999999999993-278.7-55.60000000000002-19.69999999999999-1.599999999999909-39.599999999999994-2-60.499999999999986-3.099999999999909v-417.40000000000003h-24.700000000000003v454.99999999999994c7.700000000000003 0.40000000000009095 14.799999999999997 0.900000000000091 21.900000000000006 1.2000000000000455 84.5 2.7000000000000455 168 12.100000000000023 250.1 30.200000000000045 59.60000000000002 13.099999999999909 119.80000000000001 26.199999999999932 166.10000000000002 67.69999999999993 19-20.100000000000023 44.10000000000002-32 70.79999999999995-41.39999999999998 93-32.89999999999998 190.60000000000002-45.5 289.20000000000005-53.60000000000002 25.399999999999977-2.1000000000000227 51-2.7999999999999545 76.89999999999998-4.199999999999932v-454.80000000000007h-24.899999999999977z"/>
</svg>
