<svg xmlns="http://www.w3.org/2000/svg" viewBox="0 0 1000 1000" width="1000" height="1000">
<path d="M975.6 234.9l-210.5-210.5c-15.600000000000023-15.600000000000005-34.700000000000045-23.400000000000006-57.200000000000045-23.400000000000006s-41.60000000000002 7.800000000000001-57.19999999999993 23.4l-592.5 592.6c-14.700000000000045 14.700000000000045-27.900000000000045 35.5-39.600000000000044 62.39999999999998-11.8 26.800000000000068-17.6 52.30000000000007-17.6 76.60000000000002v243h244.3c24.30000000000001 0 49.599999999999966-5.7999999999999545 76-17.5s47-24.899999999999977 61.69999999999999-39.60000000000002l592.6-592.5999999999999c15.600000000000023-15.60000000000008 23.399999999999977-34.700000000000045 23.399999999999977-57.200000000000045s-7.7999999999999545-41.60000000000002-23.399999999999977-57.20000000000002z m-375.5-6.5l66.29999999999995 66.29999999999998-448.4 449.59999999999997-67.6-66.29999999999995 449.70000000000005-449.6z m-354.8 662.7h-81.9l-54.60000000000001-54.60000000000002v-80.5c0-7.7999999999999545 3-19.100000000000023 9.100000000000009-33.799999999999955l23.400000000000006 23.399999999999977c15.599999999999994 14.699999999999932 35.099999999999994 34 58.5 57.799999999999955 23.399999999999977 23.800000000000068 40.69999999999999 41.200000000000045 52 52 11.300000000000011 10.800000000000068 20.399999999999977 19.700000000000045 27.30000000000001 26.600000000000023-13 6.100000000000023-24.30000000000001 9.100000000000023-33.80000000000001 9.100000000000023z m76.69999999999999-41.5l-66.30000000000001-67.60000000000002 449.59999999999997-448.3 66.30000000000007 66.30000000000001-449.6 449.6z m487.29999999999995-487.3l-171.5999999999999-172.9 70.19999999999993-68.9 171.5 171.5-70.10000000000002 70.30000000000001z"/>
</svg>
