<svg xmlns="http://www.w3.org/2000/svg" viewBox="0 0 1000 1000" width="1000" height="1000">
<path d="M955 911.3c6.5-7.5 12.399999999999977-15.399999999999977 17.5-23.799999999999955 3.8999999999999773-6.2000000000000455 7.399999999999977-12.600000000000023 10.5-19.200000000000045 2-4.5 3.7000000000000455-9.299999999999955 5.399999999999977-14 1.6000000000000227-4.399999999999977 3-8.899999999999977 4.2000000000000455-13.5 4.2999999999999545-15.699999999999932 7.399999999999977-32 7.399999999999977-49.09999999999991 0-102.10000000000002-82.79999999999995-184.9000000000001-184.89999999999998-184.9000000000001-41.89999999999998 0-80.20000000000005 14.5-111.20000000000005 38l-79.10000000000002-95.69999999999993c8.400000000000091-18.700000000000045 13.400000000000091-39.200000000000045 13.400000000000091-61.10000000000002 0-47.89999999999998-23.100000000000023-90.10000000000002-58.200000000000045-117.30000000000001 0.2999999999999545-2.599999999999966 0.8999999999999773-5.399999999999977 1.8999999999999773-8.399999999999977 10.800000000000068-31.19999999999999 21.700000000000045-62.5 30.5-94.30000000000001 2-7.199999999999989 4.5-11.899999999999977 7.899999999999977-15.300000000000011 10 2.8000000000000114 20.300000000000068 4.699999999999989 31.100000000000023 4.699999999999989 64.70000000000005 0 117.20000000000005-52.49999999999997 117.20000000000005-117.19999999999999s-52.5-117.19999999999999-117.20000000000005-117.19999999999999-117.19999999999993 52.5-117.19999999999993 117.19999999999999c0 42.70000000000002 23.09999999999991 79.70000000000002 57.19999999999993 100.20000000000002-0.10000000000002274 3.6999999999999886-1.1999999999999318 7.599999999999994-4 12.599999999999994-16.100000000000023 28.80000000000001-31.100000000000023 58.39999999999998-45 88.30000000000001-1.2999999999999545 2.8000000000000114-2.699999999999932 4.800000000000011-4.100000000000023 6.599999999999966-15.5-5.399999999999977-31.799999999999955-8.899999999999977-49.099999999999966-8.899999999999977-82.39999999999998 0-149.09999999999997 66.69999999999999-149.09999999999997 149 0 11.899999999999977 1.7999999999999545 23.30000000000001 4.399999999999977 34.39999999999998l-91.80000000000001 52c-22.599999999999994-42.5-66.79999999999998-71.79999999999995-118.19999999999999-71.79999999999995-74.3 0-134.5 60.19999999999993-134.5 134.5 0 74.19999999999993 60.2 134.39999999999998 134.5 134.39999999999998s134.39999999999998-60.10000000000002 134.39999999999998-134.39999999999998c0-7.600000000000023-1-14.899999999999977-2.1999999999999886-22.100000000000023 1-0.7000000000000455 2-1.3999999999999773 3.1999999999999886-1.8999999999999773l101.90000000000003-34.30000000000007c16.80000000000001 21.800000000000068 39.39999999999998 38.700000000000045 65.59999999999997 48.5 40.900000000000034 17.600000000000023 87.5 14.100000000000023 131.70000000000005-12.899999999999977l0.2999999999999545-0.10000000000002274 91.60000000000002 75.40000000000009c-19.399999999999977 29.299999999999955-30.899999999999977 64.19999999999993-30.899999999999977 102 0 102.09999999999991 82.79999999999995 184.89999999999998 185 184.89999999999998 54.69999999999993 0 103.29999999999995-24.200000000000045 137.19999999999993-62 1-1.1000000000000227 1.8000000000000682-2.300000000000068 2.7000000000000455-3.300000000000068z"/>
</svg>
