<svg xmlns="http://www.w3.org/2000/svg" viewBox="0 0 1000 1000" width="1000" height="1000">
<path d="M977.9 313.4c-144.69999999999993-45.799999999999955-289.6-91.19999999999999-434.4-136.59999999999997-8-2.5-16-4.900000000000006-23.899999999999977-7.300000000000011h-4c-3.7000000000000455 1.0999999999999943-7.300000000000011 2.3000000000000114-11 3.4000000000000057-75.20000000000005 22.900000000000006-150.5 45.5-225.60000000000002 68.6-74.19999999999999 22.80000000000001-148.3 45.89999999999998-222.3 69.10000000000002-5.599999999999987 1.6999999999999886-11.099999999999987 4.099999999999966-15.899999999999991 7.199999999999989-11.699999999999996 7.599999999999966-12.899999999999999 19.5-2.0999999999999943 28.30000000000001 6.599999999999994 5.399999999999977 14.699999999999996 9.899999999999977 22.9 12.399999999999977 45.199999999999996 14.199999999999989 90.6 27.80000000000001 136.1 41.19999999999999 3.4000000000000057 1 8.700000000000017-0.5 11.800000000000011-2.8000000000000114 10.099999999999994-7.5 19.30000000000001-16.399999999999977 29.599999999999994-23.899999999999977 61.79999999999998-45.89999999999998 131.70000000000002-71.60000000000002 208.1-78.19999999999999 30-2.6000000000000227 60.400000000000034-1 90.59999999999997-0.4000000000000341 16.100000000000023 0.4000000000000341 26.200000000000045 12.100000000000023 25.40000000000009 27.30000000000001-0.7000000000000455 14.400000000000034-12.100000000000023 24.30000000000001-27.700000000000045 23.900000000000034-5.600000000000023-0.10000000000002274-11.100000000000023-0.7000000000000455-16.600000000000023-1-70.5-3.8000000000000114-138.09999999999997 7.2999999999999545-201.2 40.099999999999966-18.5 9.699999999999989-35.80000000000001 21.600000000000023-54.80000000000001 33.19999999999999 3 2 3.8000000000000114 2.7000000000000455 4.600000000000023 3 73.89999999999998 22.700000000000045 147.7 45.700000000000045 221.7 67.90000000000003 20.400000000000034 6.199999999999989 41.30000000000001 7.199999999999989 62.400000000000034 0.5 141.89999999999998-45.60000000000002 284-90.60000000000002 425.9-136.40000000000003 8.299999999999955-2.6999999999999886 15-10.199999999999989 22.5-15.5v-9.699999999999989c-7.2999999999999545-4.899999999999977-14-11.699999999999989-22.100000000000023-14.300000000000011z m-530.8 24.200000000000045c29-3 58.39999999999998-0.9000000000000341 87.69999999999993-0.8000000000000114 10.300000000000068 0.0999999999999659 18.5-5.800000000000011 19.5-15.100000000000023 1-9-5.099999999999909-16-15.399999999999977-18-2.199999999999932-0.5-4.5-0.8000000000000114-6.699999999999932-0.8999999999999773-38.80000000000007-1.900000000000034-77.40000000000003-1.5-115.80000000000007 5.199999999999989-100.09999999999997 17.399999999999977-182.2 64.89999999999998-245.7 144.3-5.099999999999994 6.300000000000011-10 10.599999999999966-18.5 12.199999999999989-16.299999999999983 3.1999999999999886-26.89999999999999 14-31.299999999999983 30.100000000000023s-0.9000000000000057 30.799999999999955 11.599999999999994 41.799999999999955c6.900000000000006 6.100000000000023 7.900000000000006 12.5 7.300000000000011 20.600000000000023-2.6000000000000227 33.200000000000045-15.300000000000011 62.799999999999955-34.70000000000002 88.89999999999998-27 36.200000000000045-56.199999999999996 70.80000000000007-84.5 106.10000000000002-2.0999999999999943 2.6000000000000227-4.199999999999996 5.100000000000023-6.299999999999994 7.7000000000000455 43.5-30 75.4-69.90000000000009 100-115.30000000000007 8.799999999999997 1 8.400000000000006 5.2000000000000455 5.299999999999997 10.300000000000068-12.299999999999997 19.799999999999955-23.599999999999994 40.5-37.3 59.299999999999955-23 31.799999999999955-50.099999999999994 59.700000000000045-82.3 82.39999999999998v1.8999999999999773c11.3 6.600000000000023 22.7 13.100000000000023 33.9 19.700000000000045 1.8000000000000043-1.7000000000000455 2.8999999999999986-2.5 3.700000000000003-3.3999999999999773 28.800000000000004-33.30000000000007 55.49999999999999-68.10000000000002 74-108.39999999999998 2.6000000000000085-5.600000000000023 5.1000000000000085-9.300000000000068 11.700000000000003-3.5-12.899999999999991 45.5-32.2 87.89999999999998-65.4 124.89999999999998 9.300000000000011 1.1999999999999318 16.60000000000001 2.7999999999999545 24.000000000000014 2.8999999999999773 27.299999999999997 0.7000000000000455 50.099999999999994-7.100000000000023 62.69999999999999-33.799999999999955 3.700000000000017-7.7000000000000455 8.200000000000017-14.900000000000091 11.400000000000006-22.700000000000045 29.80000000000001-72.5 43.5-147.39999999999998 33.599999999999994-226-0.4000000000000057-3.7999999999999545 1.200000000000017-9 3.700000000000017-11.899999999999977 14.099999999999994-16.399999999999977 16.599999999999994-35.80000000000001 5-53.900000000000034-3.4000000000000057-5.199999999999989-2.9000000000000057-8.199999999999989 0.6999999999999886-12.599999999999966 64.5-78.20000000000005 147.7-121.90000000000003 248.10000000000002-132.10000000000002z m-185.5 211.39999999999998c24.599999999999966 11.700000000000045 48.89999999999998 24.600000000000023 74.39999999999998 33.799999999999955 87.10000000000002 31.40000000000009 176.5 36.60000000000002 267.1 19.700000000000045 59-11 114.5-31.600000000000023 166.39999999999998-61.700000000000045 5.600000000000023-3.199999999999932 8.100000000000023-6 5.899999999999977-12.799999999999955-3.699999999999932-11.399999999999977-6.199999999999932-23.19999999999999-9.299999999999955-34.80000000000001-3.6000000000000227-14-7.300000000000068-27.899999999999977-10.899999999999977-41.80000000000001-2 0.4000000000000341-2.6000000000000227 0.4000000000000341-3.2000000000000455 0.5-65.60000000000002 17.600000000000023-131 35.400000000000034-196.70000000000005 52.60000000000002-15.699999999999932 4.199999999999989-31.59999999999991 7.5-48.099999999999966 3.6999999999999886-31-7.099999999999966-62.19999999999999-13.399999999999977-93.09999999999997-21.19999999999999-45.30000000000001-11.300000000000011-90.30000000000001-23.600000000000023-135.60000000000002-35.5-0.5 1-1.1999999999999886 1.8000000000000114-1.3999999999999773 2.6999999999999886-7 28.400000000000034-14.100000000000023 56.80000000000001-20.5 85.30000000000001-0.6000000000000227 2.7000000000000455 2.2999999999999545 8.200000000000045 5 9.5z m-6.700000000000017 16.799999999999955c-6.300000000000011 19.600000000000023-6.400000000000006 19.700000000000045 8.700000000000017 32.60000000000002 28.799999999999955 24.700000000000045 60.5 45.10000000000002 94.79999999999995 61.200000000000045 61.200000000000045 28.699999999999932 125.30000000000001 41.299999999999955 192.60000000000002 32.39999999999998 85-11.299999999999955 157.5-49.10000000000002 220.79999999999995-105.89999999999998 12.600000000000023-11.300000000000068 12.900000000000091-14.300000000000068 4.800000000000068-29.200000000000045-172.10000000000002 93.20000000000005-345.5 100.89999999999998-521.7 8.899999999999977z"/>
</svg>
