<svg xmlns="http://www.w3.org/2000/svg" viewBox="0 0 1000 1000" width="1000" height="1000">
<path d="M886 204.6c-33.700000000000045-70-87.20000000000005-120.89999999999999-156.39999999999998-153.89999999999998-103.39999999999998-49.20000000000002-212.5-64.60000000000002-323.70000000000005-37.30000000000002-134.89999999999998 33.300000000000004-214.49999999999997 124.79999999999998-250.39999999999998 256.90000000000003-9.300000000000011 34.39999999999998-12.900000000000006 70-13.300000000000011 105.5 0 5.699999999999989 0.4000000000000057 11.099999999999966 2.5 16.5 6.5 17.19999999999999 6.100000000000023 34.099999999999966 0 51.30000000000001-10 28-21.89999999999999 55.299999999999955-33.39999999999999 82.5-11.099999999999994 26.5-25.099999999999994 52-33.39999999999999 79.60000000000002v7.899999999999977c2.5 2.199999999999932 1.3999999999999915 5.399999999999977 2.1999999999999886 8.299999999999955 3.6000000000000085 14.700000000000045 12.600000000000009 21.899999999999977 27.30000000000001 22.600000000000023 7.199999999999989 0.39999999999997726 14.699999999999989 0.39999999999997726 21.5 3.6000000000000227 11.5 5.699999999999932 13.599999999999994 15.799999999999955 5 25.5-14 16.100000000000023-9.700000000000003 35.89999999999998 10 44.10000000000002l24 9.699999999999932c5 1.8000000000000682 7.199999999999989 4.300000000000068 1.799999999999983 7.899999999999977-15.799999999999983 10-14.399999999999977 23.300000000000068-9 38 1.8000000000000114 5 4.300000000000011 8.600000000000023 9 11.100000000000023 6.100000000000023 3.6000000000000227 11.5 7.899999999999977 17.600000000000023 11.100000000000023 12.599999999999994 7.2000000000000455 15.799999999999983 18.299999999999955 14.399999999999977 31.200000000000045-1.0999999999999943 9-1.799999999999983 18.699999999999932-4.699999999999989 27.299999999999955-12.599999999999994 33.700000000000045 23 77.5 61.39999999999998 76.39999999999998 29.100000000000023-0.6999999999999318 57-8.600000000000023 85-16.899999999999977 10.400000000000034-2.8999999999999773 20.80000000000001-6.5 30.900000000000034-10.399999999999977 6.800000000000011-2.8999999999999773 9.300000000000011-1.3999999999999773 10.800000000000011 5.699999999999932 5.699999999999989 29.40000000000009 12.199999999999989 58.10000000000002 18.299999999999955 87.20000000000005 0 1.3999999999999773 0.7000000000000455 2.5 1.1000000000000227 3.8999999999999773h3.8999999999999773c15.800000000000011-8.600000000000023 33.400000000000034-12.199999999999932 49.900000000000034-17.600000000000023 100.49999999999994-31.59999999999991 200.59999999999997-62.799999999999955 300.99999999999994-93.59999999999991 6.5-2.2000000000000455 8.300000000000068-5 7.5-11.100000000000023-5.399999999999977-37.700000000000045-9.699999999999932-75.30000000000007-15.099999999999909-112.70000000000005-1.400000000000091-9.299999999999955 0-17.199999999999932 5-25.100000000000023 29.399999999999977-44.09999999999991 62.09999999999991-86.09999999999991 90.79999999999995-131 27.600000000000023-44.09999999999991 54.200000000000045-89 64.20000000000005-140.29999999999995 17.59999999999991-90.30000000000001 14.799999999999955-179.2-25.700000000000045-263.9z m-385.4 251.50000000000003c-11.5-9.700000000000045-22.600000000000023-19.400000000000034-33.700000000000045-29.100000000000023-2.1999999999999886-1.8000000000000114-3.599999999999966-2.1999999999999886-6.5-1.1000000000000227-6.099999999999966 2.2000000000000455-12.199999999999989 3.900000000000034-18.69999999999999 5.7000000000000455-2.8999999999999773 0.6999999999999886-3.8999999999999773 2.1999999999999886-4.699999999999989 5-3.1999999999999886 15.099999999999966-6.800000000000011 30.099999999999966-10.399999999999977 45.89999999999998h-39.10000000000002c-3.6000000000000227-15.800000000000011-7.199999999999989-30.899999999999977-10.399999999999977-45.89999999999998-0.7000000000000455-3.2000000000000455-2.2000000000000455-4.300000000000011-5-5-6.100000000000023-1.8000000000000114-12.200000000000045-3.6000000000000227-18.30000000000001-5.7000000000000455-2.5-1.099999999999966-4.300000000000011-0.6999999999999886-6.5 1.1000000000000227-11.100000000000023 9.699999999999989-22.19999999999999 19.399999999999977-33.69999999999999 29.100000000000023-0.7000000000000455 0.6999999999999886-3.2000000000000455 1.3999999999999773-4.300000000000011 0.6999999999999886-10-6.5-20.100000000000023-13.600000000000023-30.100000000000023-20.5 6.800000000000011-14.699999999999989 12.900000000000034-28.69999999999999 19.400000000000034-42.69999999999999 1.3999999999999773-3.2000000000000455 1.099999999999966-5.400000000000034-1.1000000000000227-8.300000000000011-3.8999999999999773-4.300000000000011-7.5-9.300000000000011-10.800000000000011-14-1.3999999999999773-2.5-3.1999999999999886-3.6000000000000227-6.099999999999966-3.1999999999999886l-43.10000000000002 4.2999999999999545c-3.1999999999999886 0.4000000000000341-5.699999999999989 0.4000000000000341-6.800000000000011-3.599999999999966-3.5999999999999943-10.800000000000011-7.199999999999989-21.19999999999999-11.099999999999994-31.600000000000023 2.200000000000017-1.3999999999999773 3.5999999999999943-2.5 5-3.1999999999999886 12.200000000000017-7.199999999999989 24.80000000000001-14.399999999999977 37.29999999999998-21.19999999999999 2.5-1.400000000000034 3.2000000000000455-2.900000000000034 3.2000000000000455-5.699999999999989-0.4000000000000341-6.5-0.4000000000000341-12.600000000000023 0-19 0-2.900000000000034-0.7000000000000455-4.300000000000011-3.2000000000000455-5.7000000000000455-12.599999999999966-6.7999999999999545-25.099999999999966-14.399999999999977-37.69999999999999-21.5-1.3999999999999773-0.6999999999999886-2.5-1.3999999999999773-4.699999999999989-2.5 3.9000000000000057-11.499999999999972 7.900000000000006-22.599999999999966 12.199999999999989-33.69999999999999 0.4000000000000057-1.0999999999999943 2.5-1.799999999999983 3.9000000000000057-1.799999999999983 14 1.0999999999999943 28.00000000000003 2.5 42.00000000000003 3.9000000000000057 4.699999999999989 0.6999999999999886 7.899999999999977 0 10.399999999999977-4.700000000000017s6.100000000000023-8.599999999999994 9.699999999999989-12.900000000000006c1.8000000000000114-2.1999999999999886 2.1999999999999886-3.8999999999999773 1.1000000000000227-6.799999999999983-6.5-14-12.900000000000034-28.30000000000001-19.69999999999999-43.400000000000006l30.099999999999966-20.400000000000006c1.1000000000000227-0.6999999999999886 3.1999999999999886 0 4.300000000000011 1.0999999999999943 11.5 9.300000000000011 22.600000000000023 19 33.69999999999999 28.700000000000017 2.1999999999999886 1.799999999999983 3.900000000000034 2.1999999999999886 6.5 1.0999999999999943 6.100000000000023-2.1999999999999886 12.600000000000023-3.9000000000000057 18.69999999999999-5.699999999999989 2.5-0.700000000000017 3.900000000000034-1.8000000000000114 4.7000000000000455-4.700000000000017 3.1999999999999886-15.099999999999994 6.7999999999999545-30.099999999999994 10.399999999999977-45.89999999999999h39.10000000000002c3.599999999999966 15.399999999999991 7.199999999999989 30.499999999999986 10.399999999999977 45.60000000000001 0.6999999999999886 2.8999999999999773 1.8000000000000114 4.299999999999983 4.699999999999989 5 6.5 1.799999999999983 12.600000000000023 3.5999999999999943 18.69999999999999 5.699999999999989 2.5 1.0999999999999943 3.900000000000034 1.0999999999999943 6.100000000000023-0.6999999999999886 11.100000000000023-10 22.600000000000023-19.400000000000006 33.69999999999999-29.100000000000023 1.8000000000000114-1.799999999999983 3.1999999999999886-2.5 5.400000000000034-0.6999999999999886 9.699999999999932 6.5 19.399999999999977 13.300000000000011 29.399999999999977 20.099999999999994-5 10.800000000000011-9.299999999999955 20.400000000000006-14 30.5-1.7999999999999545 4.700000000000017-3.6000000000000227 9.300000000000011-6.100000000000023 13.599999999999994-1.1000000000000227 2.200000000000017-0.39999999999997726 3.9000000000000057 1.1000000000000227 5.700000000000017 3.8999999999999773 5 7.899999999999977 10 11.5 15.400000000000006 1.7999999999999545 2.5 3.2000000000000455 3.1999999999999886 6.100000000000023 2.8999999999999773 14.399999999999977-1.3999999999999773 28.699999999999932-2.5 42.69999999999993-4.299999999999983 3.900000000000091-0.4000000000000057 6.100000000000023 0 7.2000000000000455 3.9000000000000057 3.6000000000000227 10.399999999999977 7.2000000000000455 20.799999999999983 10.799999999999955 31.599999999999966-10 5.7000000000000455-19.399999999999977 11.100000000000023-28.699999999999932 16.900000000000034-4.7000000000000455 2.5-9.300000000000068 5-14 7.899999999999977-1.1000000000000227 0.6999999999999886-2.2000000000000455 2.900000000000034-2.5 4.300000000000011 0 6.800000000000011 0.39999999999997726 13.300000000000011 0 20.100000000000023 0 2.5 0.6999999999999318 3.8999999999999773 2.8999999999999773 5 12.600000000000023 7.199999999999989 25.100000000000023 14.399999999999977 37.700000000000045 21.5 1.3999999999999773 0.6999999999999886 2.5 1.7999999999999545 5 3.1999999999999886-3.900000000000091 10.800000000000011-7.900000000000091 21.899999999999977-11.800000000000068 33-0.6999999999999318 1.099999999999966-2.8999999999999773 2.5-3.8999999999999773 2.1999999999999886-14-1.1000000000000227-28.299999999999955-2.5-42.299999999999955-3.8999999999999773-4.300000000000068-0.7000000000000455-7.5-0.4000000000000341-10.400000000000091 4.2999999999999545-2.5 5-6.5 9.300000000000011-10 13.600000000000023-1.3999999999999773 1.8000000000000114-2.199999999999932 3.6000000000000227-0.6999999999999318 6.100000000000023 6.5 14.399999999999977 12.899999999999977 28.69999999999999 19.699999999999932 43.799999999999955-10 6.800000000000011-20.09999999999991 14-30.499999999999943 20.5-1 0.6000000000000227-3.5-0.0999999999999659-4.199999999999989-0.7999999999999545z m259 74.89999999999998c8.299999999999955 5 16.899999999999977 9.700000000000045 25.5 14.700000000000045 1.1000000000000227 0.6999999999999318 1.7999999999999545 1.099999999999909 3.199999999999932 2.199999999999932-2.5 7.5-5 15.100000000000023-7.899999999999977 22.600000000000023-0.39999999999997726 0.7000000000000455-1.7999999999999545 1.7999999999999545-2.8999999999999773 1.3999999999999773-9.299999999999955-0.6999999999999318-19-1.3999999999999773-28.700000000000045-2.5-3.199999999999932-0.39999999999997726-5.399999999999977-0.39999999999997726-7.199999999999932 2.8999999999999773s-4.300000000000068 6.100000000000023-6.800000000000068 9.300000000000068c-1.099999999999909 1.3999999999999773-1.3999999999999773 2.5-0.39999999999997726 4.2999999999999545 4.300000000000068 9.700000000000045 8.600000000000023 19.399999999999977 13.300000000000068 29.800000000000068-6.800000000000068 4.699999999999932-13.600000000000023 9.299999999999955-20.800000000000068 14-0.39999999999997726 0.39999999999997726-2.199999999999932 0-2.8999999999999773-0.7000000000000455-7.5-6.5-15.399999999999977-12.899999999999977-23-19.700000000000045-1.3999999999999773-1.099999999999909-2.5-1.3999999999999773-4.2999999999999545-0.6999999999999318-3.900000000000091 1.3999999999999773-8.300000000000068 2.8999999999999773-12.600000000000023 3.8999999999999773-2.2000000000000455 0.39999999999997726-2.8999999999999773 1.3999999999999773-3.2000000000000455 3.2000000000000455-2.5 10.399999999999977-4.699999999999932 20.799999999999955-7.199999999999932 31.59999999999991h-26.700000000000045c-2.2000000000000455-10.799999999999955-4.7000000000000455-21.199999999999932-6.7999999999999545-31.199999999999932-0.7000000000000455-2.2000000000000455-1.400000000000091-3.2000000000000455-3.6000000000000227-3.6000000000000227-4.300000000000068-1.1000000000000227-8.300000000000068-2.5-12.600000000000023-3.8999999999999773-1.7999999999999545-0.7000000000000455-2.8999999999999773-0.7000000000000455-4.2999999999999545 0.6999999999999318-7.5 6.800000000000068-15.100000000000023 13.300000000000068-23 19.700000000000045-0.7000000000000455 0.7000000000000455-2.5 1.1000000000000227-3.2000000000000455 0.7000000000000455l-20.5-14c4.7000000000000455-10 9-19.700000000000045 13.299999999999955-29.100000000000023 1.1000000000000227-2.5 0.7000000000000455-3.8999999999999773-0.6999999999999318-5.7000000000000455-2.8999999999999773-3.199999999999932-5-6.5-7.2000000000000455-9.699999999999932-1.3999999999999773-1.8000000000000682-2.5-2.2000000000000455-4.2999999999999545-2.2000000000000455-10 1.1000000000000227-19.700000000000045 1.7999999999999545-29.399999999999977 2.8999999999999773-2.5 0.39999999999997726-3.900000000000091 0.39999999999997726-4.7000000000000455-2.5-2.5-7.199999999999932-5-14.399999999999977-7.5-21.5 1.3999999999999773-0.6999999999999318 2.2000000000000455-1.3999999999999773 3.2000000000000455-2.199999999999932l25.5-14.400000000000091c1.7999999999999545-1.099999999999909 2.5-2.199999999999932 2.199999999999932-3.8999999999999773v-12.899999999999977c0.39999999999997726-2.2000000000000455-0.39999999999997726-2.8999999999999773-2.199999999999932-3.8999999999999773l-25.800000000000068-14.700000000000045c-0.6999999999999318-0.39999999999997726-1.3999999999999773-1.099999999999966-2.8999999999999773-1.7999999999999545 2.5-7.900000000000034 5.399999999999977-15.400000000000034 8.299999999999955-23 0-0.7000000000000455 1.8000000000000682-1.400000000000034 2.5-1.400000000000034 9.700000000000045 1.1000000000000227 19.40000000000009 1.8000000000000114 28.700000000000045 2.900000000000034 3.2000000000000455 0.39999999999997726 5.399999999999977 0 7.2000000000000455-3.2000000000000455 1.7999999999999545-3.1999999999999886 4.2999999999999545-6.099999999999966 6.7999999999999545-8.599999999999966 1.1000000000000227-1.8000000000000114 1.3999999999999773-2.900000000000034 0.7000000000000455-4.699999999999989-4.7000000000000455-9.700000000000045-9-19.700000000000045-13.600000000000023-29.80000000000001 6.7999999999999545-4.699999999999989 13.600000000000023-9.699999999999989 20.5-14 0.6999999999999318-0.4000000000000341 2.5 0 3.199999999999932 0.39999999999997726 7.900000000000091 6.800000000000011 15.400000000000091 13.300000000000011 23 20.100000000000023 1.400000000000091 1.099999999999966 2.5 1.3999999999999773 4.300000000000068 0.6999999999999886 4.2999999999999545-1.3999999999999773 8.600000000000023-2.8999999999999773 12.899999999999977-3.8999999999999773 1.7999999999999545-0.7000000000000455 2.5-1.400000000000034 2.8999999999999773-3.2000000000000455 2.5-10.399999999999977 4.7000000000000455-20.799999999999955 7.2000000000000455-31.599999999999966h26.899999999999977c2.5 10.800000000000011 4.7000000000000455 21.19999999999999 7.2000000000000455 31.19999999999999 0.39999999999997726 2.1999999999999886 1.099999999999909 2.8999999999999773 3.199999999999932 3.6000000000000227 4.300000000000068 1.099999999999966 8.300000000000068 2.5 12.600000000000023 3.8999999999999773 1.7999999999999545 0.39999999999997726 2.8999999999999773 0.39999999999997726 4.2999999999999545-0.6999999999999886 7.5-6.800000000000011 15.100000000000023-13.300000000000011 23-19.69999999999999 1.1000000000000227-1.1000000000000227 2.2000000000000455-1.8000000000000114 3.6000000000000227-0.7000000000000455 6.5 4.7000000000000455 13.300000000000068 9.300000000000011 20.100000000000023 14-3.2000000000000455 7.2000000000000455-6.5 14-9.299999999999955 20.80000000000001l-4.300000000000068 9.300000000000011c-0.6999999999999318 1.3999999999999773-0.39999999999997726 2.5 0.7000000000000455 3.6000000000000227l7.899999999999977 10.799999999999955c1.1000000000000227 1.8000000000000114 2.2000000000000455 2.2000000000000455 3.8999999999999773 1.8000000000000114 9.700000000000045-0.6999999999999886 19.700000000000045-1.8000000000000114 29.399999999999977-2.8999999999999773 2.5 0 3.900000000000091 0 5 2.8999999999999773 2.2000000000000455 7.199999999999989 4.7000000000000455 14.400000000000034 7.2000000000000455 21.5-6.7999999999999545 3.900000000000034-13.299999999999955 7.5-19.700000000000045 11.5-3.199999999999932 1.8000000000000114-6.5 3.1999999999999886-9.299999999999955 5.400000000000034-1.1000000000000227 0.6999999999999886-1.7999999999999545 2.199999999999932-1.7999999999999545 2.8999999999999773v13.600000000000023c-0.20000000000004547 1.6999999999999318 0.09999999999990905 2.699999999999932 1.8999999999999773 3.3999999999999773z m88.69999999999993-232.39999999999998c-0.39999999999997726 0.6999999999999886-1.7999999999999545 1.3999999999999773-2.8999999999999773 1.3999999999999773-9.299999999999955-0.6999999999999886-19-1.8000000000000114-28.699999999999932-2.8999999999999773-2.900000000000091-0.4000000000000341-5 0-6.800000000000068 3.1999999999999886s-4.699999999999932 6.099999999999966-7.199999999999932 9c-1.1000000000000227 1.3999999999999773-1.400000000000091 2.5-0.40000000000009095 4.300000000000011 4.300000000000068 9.699999999999989 8.600000000000023 19.69999999999999 13.300000000000068 30.099999999999966-6.800000000000068 4.699999999999989-13.600000000000023 9.300000000000011-20.800000000000068 14-0.39999999999997726 0.4000000000000341-2.199999999999932 0-2.5-0.6999999999999886-7.899999999999977-6.5-15.399999999999977-12.899999999999977-23.299999999999955-19.69999999999999-1.3999999999999773-1.400000000000034-2.5-1.400000000000034-4.2999999999999545-0.6999999999999886-3.900000000000091 1.3999999999999773-8.300000000000068 2.5-12.600000000000023 3.8999999999999773-2.2000000000000455 0.39999999999997726-2.8999999999999773 1.3999999999999773-3.2000000000000455 3.1999999999999886-2.199999999999932 10.400000000000034-4.699999999999932 20.5-7.199999999999932 31.19999999999999h-26.90000000000009l-6.7999999999999545-31.19999999999999c-0.39999999999997726-2.1999999999999886-1.3999999999999773-2.8999999999999773-3.6000000000000227-3.599999999999966-4.2999999999999545-1.1000000000000227-8.299999999999955-2.2000000000000455-12.199999999999932-3.6000000000000227-2.2000000000000455-0.6999999999999886-3.2000000000000455-0.6999999999999886-4.7000000000000455 0.6999999999999886-7.5 6.5-15.100000000000023 13.300000000000011-23 19.69999999999999-0.7000000000000455 0.7000000000000455-2.5 1.1000000000000227-2.8999999999999773 0.7000000000000455l-20.800000000000068-14c4.7000000000000455-10 9-19.700000000000045 13.300000000000068-29.400000000000034 1.1000000000000227-2.1999999999999886 0.6999999999999318-3.599999999999966-0.7000000000000455-5.399999999999977-2.8999999999999773-3.1999999999999886-5-6.5-7.199999999999932-9.699999999999989-1.1000000000000227-1.8000000000000114-2.5-2.5-4.300000000000068-2.2000000000000455-10 1.1000000000000227-19.699999999999932 1.8000000000000114-29.399999999999977 2.900000000000034-2.2000000000000455 0.39999999999997726-3.8999999999999773 0-4.7000000000000455-2.5-2.5-7.199999999999989-5-14.400000000000034-7.5-21.5 1.400000000000091-1.1000000000000227 2.2000000000000455-1.400000000000034 3.2000000000000455-2.1999999999999886 8.600000000000023-5 17.200000000000045-9.700000000000045 25.5-14.700000000000045 1.7999999999999545-0.6999999999999886 2.5-1.7999999999999545 2.5-3.599999999999966-0.39999999999997726-4.300000000000011-0.39999999999997726-8.600000000000023 0-12.900000000000006 0-2.200000000000017-0.7000000000000455-3.200000000000017-2.2000000000000455-3.9000000000000057-9-5-17.59999999999991-10-25.799999999999955-14.699999999999989-1.1000000000000227-0.700000000000017-1.7999999999999545-1.1000000000000227-3.2000000000000455-1.8000000000000114l8.300000000000068-23.30000000000001c0.39999999999997726-0.6999999999999886 1.7999999999999545-1.0999999999999943 2.5-1.0999999999999943 9.699999999999932 0.700000000000017 19.399999999999977 1.8000000000000114 28.699999999999932 2.9000000000000057 3.2000000000000455 0.4000000000000057 5.400000000000091 0 7.2000000000000455-3.1999999999999886s4.2999999999999545-6.100000000000023 6.7999999999999545-9c1.1000000000000227-1.4000000000000057 1.400000000000091-2.5 0.7000000000000455-4.700000000000017-4.7000000000000455-9.699999999999989-9-19.400000000000006-13.600000000000023-29.799999999999983 6.800000000000068-4.700000000000017 13.600000000000023-9.300000000000011 20.800000000000068-13.600000000000023 0.39999999999997726-0.6999999999999886 2.199999999999932 0 2.8999999999999773 0.4000000000000057 7.899999999999977 6.5 15.399999999999977 13.300000000000011 23 19.700000000000017 1.3999999999999773 1.3999999999999773 2.5 1.3999999999999773 4.699999999999932 1.0999999999999943 3.900000000000091-1.8000000000000114 8.300000000000068-2.9000000000000057 12.600000000000023-4.300000000000011 1.8000000000000682-0.4000000000000057 2.5-1.0999999999999943 3.2000000000000455-2.9000000000000057 2.199999999999932-10.399999999999977 4.699999999999932-20.799999999999983 6.7999999999999545-31.599999999999994h26.899999999999977c2.5 10.800000000000011 5 20.80000000000001 7.2000000000000455 31.200000000000017 0.39999999999997726 2.1999999999999886 1.1000000000000227 2.8999999999999773 3.2000000000000455 3.1999999999999886 4.2999999999999545 1.4000000000000057 8.599999999999909 2.5 12.599999999999909 3.9000000000000057 1.8000000000000682 0.6999999999999886 2.900000000000091 0.6999999999999886 4.300000000000068-0.4000000000000057 7.5-6.800000000000011 15.399999999999977-13.300000000000011 23-20.099999999999994 1.1000000000000227-1.0999999999999943 2.199999999999932-1.4000000000000057 3.6000000000000227-0.4000000000000057 6.7999999999999545 4.699999999999989 13.299999999999955 9 20.09999999999991 13.599999999999994-3.199999999999932 7.5-6.099999999999909 14.400000000000006-9.299999999999955 21.200000000000017-1.3999999999999773 2.8999999999999773-2.5 6.099999999999994-4.2999999999999545 9.299999999999983-0.7000000000000455 1.4000000000000057-0.40000000000009095 2.5 0.6999999999999318 3.5999999999999943 2.8999999999999773 3.6000000000000227 5.399999999999977 7.200000000000017 7.899999999999977 10.800000000000011 1.1000000000000227 1.4000000000000057 2.2000000000000455 2.1999999999999886 3.900000000000091 1.8000000000000114 10-1.1000000000000227 19.699999999999932-1.8000000000000114 29.399999999999977-2.9000000000000057 2.5-0.4000000000000057 3.8999999999999773 0 5 2.5 2.199999999999932 7.5 4.699999999999932 14.400000000000006 7.199999999999932 21.900000000000006-6.7999999999999545 3.8999999999999773-13.299999999999955 7.5-19.699999999999932 11.099999999999994-3.2000000000000455 1.799999999999983-6.100000000000023 3.5999999999999943-9.300000000000068 5.699999999999989-0.6999999999999318 0.4000000000000057-1.7999999999999545 1.8000000000000114-1.7999999999999545 2.9000000000000057v13.599999999999994c0 1.799999999999983 0.39999999999997726 2.9000000000000057 2.2000000000000455 3.5999999999999943l25.5 14.699999999999989c1.099999999999909 0.4000000000000341 1.7999999999999545 1.1000000000000227 3.599999999999909 2.2000000000000455-3.199999999999932 7.899999999999977-5.699999999999932 15.399999999999977-8.5 23z m-441.19999999999993-97.90000000000003c-53.400000000000034 0.10000000000002274-96.70000000000005 43.60000000000002-96.60000000000002 97.19999999999999 0.10000000000002274 53.400000000000034 43.89999999999998 97.20000000000005 97 96.90000000000003 53.69999999999999-0.30000000000001137 96.39999999999998-43.400000000000034 96.30000000000001-97.30000000000001-0.10000000000002274-53.80000000000001-43.19999999999999-96.9-96.69999999999999-96.80000000000001z m255.60000000000002 243.10000000000002c-36.200000000000045 0-65 29-65 65.5 0 36.400000000000034 28.899999999999977 65.09999999999997 65.39999999999998 64.99999999999994 36.299999999999955-0.09999999999990905 65.29999999999995-29.09999999999991 65.29999999999995-65.29999999999995-0.10000000000002274-36-29.600000000000023-65.19999999999999-65.69999999999993-65.19999999999999z m63.09999999999991-260.1c-36.39999999999998 0-65.39999999999998 29-65.29999999999995 65.20000000000002 0.10000000000002274 35.900000000000006 29.600000000000023 65.4 65.60000000000002 65.29999999999998 36.19999999999993 0 64.89999999999998-29.099999999999966 64.89999999999998-65.6-0.10000000000002274-36.79999999999998-28.299999999999955-64.9-65.20000000000005-64.9z"/>
</svg>
