<svg xmlns="http://www.w3.org/2000/svg" viewBox="0 0 1000 1000" width="1000" height="1000">
<path d="M481.5 425.1c0-45.60000000000002-37.10000000000002-82.60000000000002-82.60000000000002-82.60000000000002s-82.69999999999999 37-82.69999999999999 82.60000000000002 37.10000000000002 82.59999999999997 82.69999999999999 82.59999999999997 82.60000000000002-37 82.60000000000002-82.59999999999997z m-82.60000000000002 15.199999999999989c-8.399999999999977 0-15.199999999999989-6.800000000000011-15.199999999999989-15.199999999999989s6.800000000000011-15.200000000000045 15.199999999999989-15.200000000000045c8.400000000000034 0 15.200000000000045 6.800000000000011 15.200000000000045 15.200000000000045s-6.800000000000011 15.199999999999989-15.200000000000045 15.199999999999989z m242.70000000000005-87.19999999999999c-39.700000000000045-22.400000000000034-90.10000000000002-8.200000000000045-112.5 31.5-10.800000000000068 19.19999999999999-13.5 41.5-7.600000000000023 62.799999999999955s19.899999999999977 38.900000000000034 39.10000000000002 49.700000000000045c12.799999999999955 7.199999999999989 26.699999999999932 10.599999999999966 40.39999999999998 10.599999999999966 28.899999999999977 0 57-15.099999999999966 72.10000000000002-42.099999999999966 22.399999999999977-39.700000000000045 8.299999999999955-90.20000000000005-31.5-112.5z m-27.200000000000045 79.29999999999995c-4.100000000000023 7.300000000000011-13.399999999999977 9.600000000000023-20.699999999999932 5.600000000000023h0c-4.800000000000068-2-6.600000000000023-6.699999999999989-7.2000000000000455-9-0.7000000000000455-2.3000000000000114-1.2999999999999545-6.699999999999989 1.3999999999999773-11.5 2.7000000000000455-4.899999999999977 7.899999999999977-7.699999999999989 13.200000000000045-7.699999999999989 2.6000000000000227 0 5.100000000000023 0.5999999999999659 7.5 1.8999999999999773 7.2999999999999545 4.100000000000023 9.899999999999977 13.400000000000034 5.7999999999999545 20.69999999999999z m-73.89999999999998 212.80000000000007c-39.69999999999999-22.40000000000009-90.19999999999999-8.200000000000045-112.5 31.5-10.899999999999977 19.199999999999932-13.5 41.5-7.600000000000023 62.799999999999955s19.80000000000001 38.89999999999998 39.10000000000002 49.700000000000045c12.699999999999989 7.199999999999932 26.600000000000023 10.599999999999909 40.39999999999998 10.599999999999909 28.800000000000068 0 56.89999999999998-15.099999999999909 72.10000000000002-42 22.399999999999977-39.69999999999993 8.200000000000045-90.19999999999993-31.5-112.59999999999991z m-27.200000000000045 79.19999999999993c-4.199999999999932 7.300000000000068-13.499999999999943 10.600000000000023-20.799999999999955 5.600000000000023h0c-4.800000000000011-2-6.5-6.7000000000000455-7.199999999999989-8.899999999999977-0.6000000000000227-2.300000000000068-1.3000000000000114-6.7000000000000455 1.3999999999999773-11.5 2.8000000000000114-4.899999999999977 8-7.600000000000023 13.300000000000011-7.600000000000023 2.5 0 5.100000000000023 0.5 7.5 1.7999999999999545 7.2999999999999545 4.100000000000023 9.899999999999977 13.300000000000068 5.7999999999999545 20.600000000000023z m-13.299999999999955-724.4c-275.7 0-500 224.3-500 500s224.3 500 500 500 500-224.29999999999995 500-500-224.29999999999995-500-500-500z m0 932.6c-238.5 0-432.6-194.10000000000002-432.6-432.6s194.10000000000002-432.6 432.6-432.6 432.6 194.10000000000002 432.6 432.6-194.10000000000002 432.6-432.6 432.6z"/>
</svg>
