<svg xmlns="http://www.w3.org/2000/svg" viewBox="0 0 1000 1000" width="1000" height="1000">
<path d="M500 0c-275.7 0-500 224.3-500 500s224.3 500 500 500 500-224.29999999999995 500-500-224.29999999999995-500-500-500z m0 932.6c-238.5 0-432.6-194.10000000000002-432.6-432.6s194.10000000000002-432.6 432.6-432.6 432.6 194.10000000000002 432.6 432.6-194.10000000000002 432.6-432.6 432.6z m-59.10000000000002-616.9000000000001c0 27.000000000000057-21.899999999999977 48.90000000000009-49 48.90000000000009s-48.89999999999998-21.900000000000034-48.89999999999998-48.900000000000034c0-27.099999999999966 21.899999999999977-49 48.89999999999998-49s49 21.900000000000034 49 49z m177.30000000000007-42.69999999999993c23.59999999999991 13.300000000000011 31.899999999999977 43.10000000000002 18.699999999999932 66.69999999999999s-43.10000000000002 31.80000000000001-66.69999999999993 18.600000000000023c-23.5-13.300000000000011-31.90000000000009-43.10000000000002-18.600000000000023-66.60000000000002s43.10000000000002-31.899999999999977 66.60000000000002-18.69999999999999z m-354.20000000000005 323.1c0 41.10000000000002 11 77.10000000000002 28.399999999999977 108.10000000000002s43.30000000000001 61.89999999999998 75.80000000000001 78.59999999999991c32.5 16.700000000000045 71.19999999999999 32.200000000000045 114.5 32.200000000000045h29.30000000000001c42.10000000000002 0 79.5-15.799999999999955 112-32.5 32.5-16.700000000000045 57.299999999999955-43.89999999999998 74.89999999999998-74.60000000000002 17.600000000000023-30.600000000000023 26.100000000000023-69.39999999999998 26.100000000000023-109.29999999999995v-120.60000000000002h-461v118.10000000000002z m56-51.10000000000002h360v55.200000000000045c0 44.89999999999998-16.899999999999977 82.59999999999991-45.799999999999955 107.09999999999991s-71.20000000000005 39.700000000000045-123.30000000000007 39.700000000000045h-26.799999999999955c-53.60000000000002 0-93.20000000000005-16-122.20000000000005-41.89999999999998-29-26-41.89999999999998-65.30000000000007-41.89999999999998-111.89999999999998v-48.200000000000045z"/>
</svg>
