<svg xmlns="http://www.w3.org/2000/svg" viewBox="0 0 1000 1000" width="1000" height="1000">
<path d="M398.9 645.8c-45.599999999999966 0-82.69999999999999 37.10000000000002-82.69999999999999 82.70000000000005s37.10000000000002 82.60000000000002 82.69999999999999 82.60000000000002 82.60000000000002-37.10000000000002 82.60000000000002-82.60000000000002-37.10000000000002-82.70000000000005-82.60000000000002-82.70000000000005z m0 97.90000000000009c-8.399999999999977 0-15.199999999999989-6.800000000000068-15.199999999999989-15.200000000000045s6.800000000000011-15.299999999999955 15.199999999999989-15.299999999999955c8.400000000000034 0 15.200000000000045 6.899999999999977 15.200000000000045 15.299999999999955s-6.800000000000011 15.200000000000045-15.200000000000045 15.200000000000045z m286.5-438.70000000000005c-59.89999999999998 0-112.10000000000002 33.5-138.69999999999993 82.80000000000001-14-7.5-28.5-11.800000000000011-43.400000000000034-11.800000000000011h-1.5c-20 0-36.19999999999999 7.100000000000023-47.5 14-26.19999999999999-50.5-78.90000000000003-85.10000000000002-139.7-85.10000000000002-86.80000000000001 0-157.40000000000003 70.70000000000005-157.40000000000003 157.5 0 86.80000000000007 70.60000000000002 157.39999999999998 157.40000000000003 157.39999999999998s157.39999999999998-70.59999999999991 157.39999999999998-157.39999999999998c0-8.099999999999966-0.8000000000000114-15.899999999999977-2-23.69999999999999l13.899999999999977 14.5c7.2000000000000455-6.599999999999966 22-13.599999999999966 44.30000000000007 5.199999999999989-0.10000000000002274 1.3000000000000114-0.20000000000004547 2.7000000000000455-0.20000000000004547 4 0 86.80000000000007 70.60000000000002 157.5 157.39999999999998 157.5s157.39999999999998-70.69999999999993 157.39999999999998-157.5c0-86.79999999999995-70.59999999999991-157.39999999999998-157.39999999999998-157.39999999999998z m-460.79999999999995 157.39999999999998c-2.842170943040401e-14-49.599999999999966 40.39999999999998-90 90-90 24.799999999999955 0 47.19999999999999 10.100000000000023 63.5 26.30000000000001-0.6000000000000227 0-1.1000000000000227-0.0999999999999659-1.7000000000000455-0.0999999999999659-45.599999999999966 0-82.59999999999997 37.099999999999966-82.59999999999997 82.69999999999999 0 29.099999999999966 15.199999999999989 54.69999999999999 38 69.40000000000003-5.5 1.099999999999909-11.300000000000011 1.6999999999999318-17.19999999999999 1.6999999999999318-49.60000000000002 0-90.00000000000003-40.299999999999955-90.00000000000003-90z m460.79999999999995 90c-5.899999999999977 0-11.699999999999932-0.6000000000000227-17.399999999999977-1.6999999999999318 11.100000000000023-7 20.700000000000045-16.700000000000045 27.600000000000023-28.90000000000009 22.399999999999977-39.69999999999993 8.199999999999932-90.19999999999993-31.5-112.49999999999994-13.300000000000068-7.600000000000023-27.899999999999977-10.900000000000034-42.30000000000007-10.5 16.300000000000068-16.30000000000001 38.80000000000007-26.400000000000034 63.60000000000002-26.400000000000034 49.60000000000002 0 90 40.400000000000034 90 90s-40.39999999999998 90-90 90z m-185.39999999999998-552.4c-275.7 0-500 224.3-500 500s224.3 500 500 500 500-224.29999999999995 500-500-224.29999999999995-500-500-500z m0 932.6c-238.5 0-432.6-194.10000000000002-432.6-432.6s194.10000000000002-432.6 432.6-432.6 432.6 194.10000000000002 432.6 432.6-194.10000000000002 432.6-432.6 432.6z"/>
</svg>
