<svg xmlns="http://www.w3.org/2000/svg" viewBox="0 0 1000 1000" width="1000" height="1000">
<path d="M481.5 368.9c0-45.599999999999966-37.10000000000002-82.59999999999997-82.60000000000002-82.59999999999997s-82.69999999999999 37-82.69999999999999 82.59999999999997 37.10000000000002 82.60000000000002 82.69999999999999 82.60000000000002 82.60000000000002-37 82.60000000000002-82.60000000000002z m-97.80000000000001 0c0-8.399999999999977 6.800000000000011-15.199999999999989 15.199999999999989-15.199999999999989 8.400000000000034 0 15.200000000000045 6.800000000000011 15.200000000000045 15.199999999999989s-6.800000000000011 15.200000000000045-15.200000000000045 15.200000000000045c-8.399999999999977 0-15.199999999999989-6.800000000000011-15.199999999999989-15.200000000000045z m257.90000000000003-72c-39.700000000000045-22.399999999999977-90.20000000000005-8.199999999999989-112.5 31.5-10.800000000000068 19.200000000000045-13.5 41.5-7.600000000000023 62.80000000000001s19.899999999999977 38.900000000000034 39.10000000000002 49.69999999999999c12.799999999999955 7.2000000000000455 26.699999999999932 10.600000000000023 40.39999999999998 10.600000000000023 28.899999999999977 0 57-15.100000000000023 72.10000000000002-42.10000000000002 22.399999999999977-39.69999999999999 8.299999999999955-90.09999999999997-31.5-112.5z m-27.200000000000045 79.40000000000003c-4.100000000000023 7.300000000000011-13.5 9.699999999999989-20.699999999999932 5.699999999999989h0c-4.800000000000068-3-6.600000000000023-6.800000000000011-7.2000000000000455-9.100000000000023-0.7000000000000455-2.1999999999999886-1.2999999999999545-6.699999999999989 1.3999999999999773-11.5 2.7000000000000455-5 7.899999999999977-7.699999999999989 13.200000000000045-7.699999999999989 2.6000000000000227 0 5.100000000000023 0.6000000000000227 7.5 1.900000000000034 7.2999999999999545 4.099999999999966 9.899999999999977 13.399999999999977 5.7999999999999545 20.69999999999999z m-11.899999999999977 237.40000000000003l-47.700000000000045-47.60000000000002-54.799999999999955 54.799999999999955-54.80000000000001-54.799999999999955-47.69999999999999 47.60000000000002 54.80000000000001 54.799999999999955-64 64.10000000000002 47.599999999999966 47.69999999999993 64.10000000000002-64.09999999999991 64.10000000000002 64.09999999999991 47.60000000000002-47.69999999999993-64-64.10000000000002z m-102.5-613.7c-275.7 0-500 224.3-500 500s224.3 500 500 500 500-224.29999999999995 500-500-224.29999999999995-500-500-500z m0 932.6c-238.5 0-432.6-194.10000000000002-432.6-432.6s194.10000000000002-432.6 432.6-432.6 432.6 194.10000000000002 432.6 432.6-194.10000000000002 432.6-432.6 432.6z"/>
</svg>
