<svg xmlns="http://www.w3.org/2000/svg" viewBox="0 0 1000 1000" width="1000" height="1000">
<path d="M500 0c-275.7 0-500 224.3-500 500s224.3 500 500 500 500-224.29999999999995 500-500-224.29999999999995-500-500-500z m0 932.6c-238.5 0-432.6-194.10000000000002-432.6-432.6s194.10000000000002-432.6 432.6-432.6 432.6 194.10000000000002 432.6 432.6-194.10000000000002 432.6-432.6 432.6z m142.20000000000005-279.6c-79.70000000000005 69.10000000000002-204.70000000000005 69.10000000000002-284.40000000000003 0-14.100000000000023-12.200000000000045-35.400000000000034-10.700000000000045-47.60000000000002 3.3999999999999773-12.099999999999966 14-10.599999999999966 35.30000000000007 3.400000000000034 47.5 53.19999999999999 46.10000000000002 119.79999999999995 69.10000000000002 186.39999999999998 69.10000000000002s133.20000000000005-23 186.39999999999998-69.10000000000002c14-12.199999999999932 15.5-33.5 3.3999999999999773-47.5s-33.5-15.600000000000023-47.59999999999991-3.3999999999999773z m-194.40000000000003-261.6c0 27-21.900000000000034 48.900000000000034-48.900000000000034 48.900000000000034s-49-21.900000000000034-49-48.900000000000034c0-27 22-48.89999999999998 49-48.89999999999998s48.900000000000034 21.899999999999977 48.900000000000034 48.89999999999998z m177.3-42.599999999999966c23.600000000000023 13.199999999999989 31.899999999999977 43.099999999999966 18.600000000000023 66.59999999999997s-43 31.900000000000034-66.60000000000002 18.700000000000045c-23.5-13.300000000000011-31.899999999999977-43.10000000000002-18.600000000000023-66.70000000000005s43.10000000000002-31.899999999999977 66.60000000000002-18.599999999999966z"/>
</svg>
