<svg xmlns="http://www.w3.org/2000/svg" viewBox="0 0 1000 1000" width="1000" height="1000">
<path d="M500 0c-275.7 0-500 224.3-500 500s224.3 500 500 500 500-224.29999999999995 500-500-224.29999999999995-500-500-500z m0 932.6c-238.5 0-432.6-194.10000000000002-432.6-432.6s194.10000000000002-432.6 432.6-432.6 432.6 194.10000000000002 432.6 432.6-194.10000000000002 432.6-432.6 432.6z m0-452.1c-114 0-213.3 62.89999999999998-259.3 164.10000000000002-7.699999999999989 17-0.19999999999998863 36.89999999999998 16.80000000000001 44.60000000000002 17 7.699999999999932 36.89999999999998 0.1999999999999318 44.60000000000002-16.800000000000068 34.89999999999998-76.69999999999993 110.69999999999999-124.39999999999998 197.89999999999998-124.39999999999998s163 47.700000000000045 197.89999999999998 124.5c5.600000000000023 12.399999999999977 17.899999999999977 19.799999999999955 30.700000000000045 19.799999999999955 4.699999999999932 0 9.399999999999977-1 13.899999999999977-3 17-7.699999999999932 24.5-27.699999999999932 16.799999999999955-44.59999999999991-46-101.30000000000007-145.29999999999995-164.20000000000005-259.29999999999995-164.20000000000005z m-101.10000000000002-85.10000000000002c27 0 48.900000000000034-21.899999999999977 48.900000000000034-48.89999999999998s-21.900000000000034-48.89999999999998-48.900000000000034-48.89999999999998-48.89999999999998 21.899999999999977-48.89999999999998 48.89999999999998c-0.10000000000002274 27 21.80000000000001 48.89999999999998 48.89999999999998 48.89999999999998z m178.20000000000005-6.2999999999999545c23.5 13.299999999999955 53.39999999999998 4.899999999999977 66.60000000000002-18.600000000000023 13.299999999999955-23.600000000000023 4.899999999999977-53.39999999999998-18.600000000000023-66.60000000000002s-53.39999999999998-4.899999999999977-66.60000000000002 18.600000000000023c-13.299999999999955 23.5-4.899999999999977 53.30000000000001 18.600000000000023 66.60000000000002z"/>
</svg>
