<svg xmlns="http://www.w3.org/2000/svg" viewBox="0 0 1000 1000" width="1000" height="1000">
<path d="M499.8 461.1c113.80000000000001 0 205.99999999999994-34.200000000000045 205.99999999999994-76.60000000000002v-62.89999999999998c0-42.30000000000001-92.29999999999995-76.60000000000002-205.99999999999994-76.60000000000002-113.80000000000001 0-206.10000000000002 34.30000000000001-206.10000000000002 76.60000000000002v62.799999999999955c0.10000000000002274 42.30000000000001 92.30000000000001 76.70000000000005 206.10000000000002 76.70000000000005z m0 36.599999999999966c-108.60000000000002 0-198.2-31.19999999999999-206.10000000000002-70.89999999999998-0.39999999999997726 1.8999999999999773 0 103.80000000000001 0 103.80000000000001 0 42.299999999999955 92.30000000000001 76.60000000000002 206.10000000000002 76.60000000000002s205.99999999999994-34.30000000000007 205.99999999999994-76.60000000000002c0 0 0.20000000000004547-101.90000000000003-0.09999999999990905-103.80000000000001-7.800000000000068 39.599999999999966-97.20000000000005 70.89999999999998-205.90000000000003 70.89999999999998z m0 147.90000000000003c-108.60000000000002 0-198.2-31.200000000000045-206.10000000000002-70.89999999999998v103.79999999999995c0 42.299999999999955 92.30000000000001 76.60000000000002 206.10000000000002 76.60000000000002s205.99999999999994-34.30000000000007 205.99999999999994-76.60000000000002l-0.1999999999999318-103.79999999999995c-7.7000000000000455 39.5-97.10000000000002 70.89999999999998-205.8 70.89999999999998z m342.3-645.6h-665.8c-44.00000000000006 0-79.80000000000007 35.8-79.80000000000007 79.8v840.4000000000001c0 44 35.80000000000001 79.79999999999995 79.80000000000001 79.79999999999995h646.9000000000001c44 0 79.79999999999995-35.799999999999955 79.79999999999995-79.79999999999995v-859.2c0-33.8-27.299999999999955-61-60.89999999999998-61z m-7.5 556v364.20000000000005c0 6.2999999999999545-5.100000000000023 11.399999999999977-11.399999999999977 11.399999999999977h-646.9000000000001c-6.2999999999999545 0-11.399999999999949-5.100000000000023-11.399999999999949-11.399999999999977v-840.4000000000001c0-6.2999999999999545 5.099999999999994-11.399999999999949 11.400000000000006-11.399999999999949h489.09999999999997c13.5 0 35.5 10 44.200000000000045 20.19999999999999l16.100000000000023 18.400000000000006c10.299999999999955 11.900000000000006 20.399999999999977 23.599999999999994 30.699999999999932 35.400000000000006 13.700000000000045 15.799999999999983 27.399999999999977 31.799999999999983 40.89999999999998 47.599999999999994l17.90000000000009 20.900000000000006c10 11.5 19.399999999999977 36.900000000000006 19.399999999999977 52.099999999999994v293z"/>
</svg>
