<svg xmlns="http://www.w3.org/2000/svg" viewBox="0 0 1000 1000" width="1000" height="1000">
<path d="M277.4 262.1c2 17.5 4.2000000000000455 34.89999999999998 5.900000000000034 52.39999999999998 5.300000000000011 57.10000000000002 10.300000000000011 114.19999999999999 15.300000000000011 171.3 4.199999999999989 47.599999999999966 8.299999999999955 95.30000000000001 12.399999999999977 142.99999999999994 2 22.90000000000009 4.300000000000011 45.700000000000045 5.800000000000011 68.60000000000002 0.39999999999997726 6.7000000000000455 4.5 7.899999999999977 9.300000000000011 9.200000000000045 52.599999999999966 14.5 105.29999999999995 29.100000000000023 157.79999999999995 43.69999999999993 4 1.2000000000000455 7.900000000000034 2.7000000000000455 11.900000000000034 4.100000000000023h7.800000000000011c24.699999999999932-7.199999999999932 49.39999999999998-14.600000000000023 74.10000000000002-21.600000000000023 31.399999999999977-8.799999999999955 62.89999999999998-17.59999999999991 94.5-26 7-1.8999999999999773 9.899999999999977-4.899999999999977 10.5-12.5 4.699999999999932-57.09999999999991 10.099999999999909-114.19999999999993 15.099999999999909-171.19999999999993 4.900000000000091-54.80000000000001 9.600000000000023-109.60000000000002 14.400000000000091-164.5 2.699999999999932-30.600000000000023 5.399999999999977-61.30000000000001 8.199999999999932-92 0.10000000000002274-1.5 1.1000000000000227-3 1.7000000000000455-4.5v-11.800000000000011h-445c0.2999999999999545 4 0.2999999999999545 8 0.2999999999999545 11.800000000000011z m403.70000000000005 26.19999999999999c-1.7000000000000455 18.80000000000001-3.2000000000000455 37-4.7000000000000455 55.19999999999999l-11 122.39999999999998c-4.2999999999999545 48.30000000000007-8.699999999999932 96.60000000000002-13 145-1.6999999999999318 18.300000000000068-3.5 36.5-4.600000000000023 54.89999999999998-0.39999999999997726 6.5-2.099999999999909 9.900000000000091-8.699999999999932 11.700000000000045-44.5 12-88.89999999999998 24.5-133.5 36.5-3.5 0.8999999999999773-7.800000000000011 0.7999999999999545-11.400000000000034-0.20000000000004547-44.19999999999999-11.899999999999977-88.30000000000001-24.399999999999977-132.5-36.19999999999993-6.800000000000011-1.8000000000000682-8.5-5.5-9-11.600000000000023-3.3999999999999773-39.5-7-79-10.5-118.5-4.399999999999977-49-8.899999999999977-97.89999999999998-13.199999999999989-146.89999999999998-3.3000000000000114-37.200000000000045-6.5-74.40000000000003-9.800000000000011-112.20000000000005l361.90000000000003-0.0999999999999659z m-131.80000000000007 310.90000000000003c-16.09999999999991 4.099999999999909-32.09999999999991 8.699999999999932-48.19999999999993 12.699999999999932-3.900000000000034 0.8999999999999773-8.5 1.1000000000000227-12.400000000000034 0.10000000000002274-14.699999999999989-3.6000000000000227-29.19999999999999-8.399999999999977-44-11.600000000000023-7.699999999999989-1.6999999999999318-9.899999999999977-5.899999999999977-10.099999999999966-12.699999999999932-0.10000000000002274-1.900000000000091 0.0999999999999659-3.800000000000068-0.10000000000002274-5.800000000000068-0.8999999999999773-8.899999999999977-1.6999999999999886-17.799999999999955-2.6999999999999886-26.799999999999955h-52.19999999999999c0.39999999999997726 6.2999999999999545 0.39999999999997726 12.299999999999955 1 18.199999999999932 1.7999999999999545 18.700000000000045 4.2999999999999545 37.40000000000009 5.2999999999999545 56.200000000000045 0.4000000000000341 7.2999999999999545 2.7000000000000455 9.399999999999977 9.200000000000045 11.100000000000023 31.899999999999977 8.5 63.5 17.600000000000023 95.29999999999995 26.199999999999932 3.900000000000034 1.1000000000000227 8.5 0.900000000000091 12.400000000000034-0.09999999999990905 14.999999999999943-3.7000000000000455 29.900000000000034-7.900000000000091 44.69999999999999-12 19.399999999999977-5.400000000000091 38.700000000000045-10.900000000000091 58-16.300000000000068l14.700000000000045-164.39999999999998h-182.50000000000006c-0.0999999999999659-2.3999999999999773-0.5-4.199999999999989-0.30000000000001137-6.100000000000023 2.400000000000034-24.899999999999977 4.7000000000000455-49.799999999999955 7.400000000000034-74.69999999999999 0.0999999999999659-1.5 3.5-4 5.300000000000011-4 37.099999999999966 0.30000000000001137 74.10000000000002 0.9000000000000341 111.60000000000002 1.400000000000034 1.8999999999999773 19.899999999999977 3.5 38.099999999999966 5.2999999999999545 56.19999999999999h53.39999999999998c-3.5-38.10000000000002-6.7999999999999545-75.60000000000002-10.199999999999932-113.90000000000003h-8.200000000000045c-65.60000000000002 0.10000000000002274-131.3 0.4000000000000341-196.89999999999998 0.10000000000002274-7.5 0-8.400000000000034 3.1999999999999886-8.800000000000011 9.300000000000011-1.1999999999999886 17.599999999999966-2.900000000000034 35.099999999999966-4.600000000000023 52.69999999999999-1.8000000000000114 19.399999999999977-3.5 38.89999999999998-5.399999999999977 58.30000000000001-1.3000000000000114 13.699999999999989-2.8000000000000114 27.5-4 41.19999999999999-0.9000000000000341 10.600000000000023-1.400000000000034 21.200000000000045-2.1999999999999886 32.700000000000045h181.89999999999998c-2 22.09999999999991-4 43.19999999999993-5.7000000000000455 64.39999999999998-0.599999999999909 5-2.8999999999999773 6.5-7 7.600000000000023z m292.80000000000007-599.2h-665.8c-44.00000000000006 0-79.80000000000007 35.8-79.80000000000007 79.8v840.4000000000001c0 44 35.80000000000001 79.79999999999995 79.80000000000001 79.79999999999995h646.9000000000001c44 0 79.79999999999995-35.799999999999955 79.79999999999995-79.79999999999995v-859.2c0-33.8-27.299999999999955-61-60.89999999999998-61z m-7.5 556v364.20000000000005c0 6.2999999999999545-5.100000000000023 11.399999999999977-11.399999999999977 11.399999999999977h-646.9000000000001c-6.2999999999999545 0-11.399999999999949-5.100000000000023-11.399999999999949-11.399999999999977v-840.4000000000001c0-6.2999999999999545 5.099999999999994-11.399999999999949 11.400000000000006-11.399999999999949h489.09999999999997c13.5 0 35.5 10 44.200000000000045 20.19999999999999l16.100000000000023 18.400000000000006c10.299999999999955 11.900000000000006 20.399999999999977 23.599999999999994 30.699999999999932 35.400000000000006 13.700000000000045 15.799999999999983 27.399999999999977 31.799999999999983 40.89999999999998 47.599999999999994l17.90000000000009 20.900000000000006c10 11.5 19.399999999999977 36.900000000000006 19.399999999999977 52.099999999999994v293z"/>
</svg>
