<svg xmlns="http://www.w3.org/2000/svg" viewBox="0 0 1000 1000" width="1000" height="1000">
<path d="M611.5 540.2c19.100000000000023 0 33.799999999999955-14.700000000000045 34.299999999999955-33.30000000000007 0-19.099999999999966-14.699999999999932-34.799999999999955-33.799999999999955-35.299999999999955-19.100000000000023 0-34.799999999999955 15.699999999999989-34.799999999999955 35.299999999999955 0.5 18.100000000000023 15.699999999999932 32.80000000000007 34.299999999999955 33.30000000000007z m-0.7000000000000455-259.1l-371.4 155.59999999999997 119.20000000000005 282.3h401.4v-306.2h-94l-55.200000000000045-131.7z m-252.19999999999993 390.1l-95.30000000000001-225.80000000000007 336.8-141.09999999999997 45.799999999999955 108.5h-287.29999999999995v258.40000000000003z m383.29999999999995 16.299999999999955l-60.799999999999955-77.10000000000002c-5.600000000000023-6.899999999999977-15.100000000000023-6.899999999999977-20.100000000000023 0.6000000000000227-3.1000000000000227 4.399999999999977-5.600000000000023 8.799999999999955-8.799999999999955 12.5-5 7.5-14.400000000000091 8.200000000000045-20.700000000000045 1.2999999999999545-12.5-15.099999999999909-25.100000000000023-29.5-37.60000000000002-43.89999999999998-6.2999999999999545-6.899999999999977-15.699999999999932-6.899999999999977-22 0.6000000000000227l-18.799999999999955 22.600000000000023c-5.600000000000023 6.899999999999977-15.100000000000023 8.799999999999955-20.100000000000023 4.399999999999977-5-4.399999999999977-11.899999999999977-4.399999999999977-15.100000000000023 0-3.7999999999999545 4.399999999999977-9.399999999999977 2.5-13.199999999999989-3.7999999999999545-2.5-3.800000000000068-5-8.200000000000045-6.899999999999977-11.900000000000091-1.900000000000034-3.099999999999909-4.400000000000034-5-5-4.399999999999977l-0.6000000000000227 1.8999999999999773c-12.5 23.200000000000045-25.099999999999966 46.40000000000009-37.599999999999966 70.20000000000005-1.900000000000034 3.1000000000000227-3.1000000000000227 3.7999999999999545-6.300000000000011 3.1000000000000227-13.800000000000011-3.1000000000000227-27-3.800000000000068-40.80000000000001 0-13.199999999999989 3.1000000000000227-23.80000000000001 10.699999999999932-30.69999999999999 23.799999999999955v-257h365.09999999999997v257.1z m100.20000000000005-687.5h-665.8c-44.00000000000006 0-79.80000000000007 35.8-79.80000000000007 79.8v840.4000000000001c0 44 35.80000000000001 79.79999999999995 79.80000000000001 79.79999999999995h646.9000000000001c44 0 79.79999999999995-35.799999999999955 79.79999999999995-79.79999999999995v-859.2c0-33.8-27.299999999999955-61-60.89999999999998-61z m-7.5 556v364.20000000000005c0 6.2999999999999545-5.100000000000023 11.399999999999977-11.399999999999977 11.399999999999977h-646.9000000000001c-6.2999999999999545 0-11.399999999999949-5.100000000000023-11.399999999999949-11.399999999999977v-840.4000000000001c0-6.2999999999999545 5.099999999999994-11.399999999999949 11.400000000000006-11.399999999999949h489.09999999999997c13.5 0 35.5 10 44.200000000000045 20.19999999999999l16.100000000000023 18.400000000000006c10.299999999999955 11.900000000000006 20.399999999999977 23.599999999999994 30.699999999999932 35.400000000000006 13.700000000000045 15.799999999999983 27.399999999999977 31.799999999999983 40.89999999999998 47.599999999999994l17.90000000000009 20.900000000000006c10 11.5 19.399999999999977 36.900000000000006 19.399999999999977 52.099999999999994v293z"/>
</svg>
