<svg xmlns="http://www.w3.org/2000/svg" viewBox="0 0 1000 1000" width="1000" height="1000">
<path d="M277.7 260.2c2 17.400000000000034 4.199999999999989 34.80000000000001 5.900000000000034 52.30000000000001 5.199999999999989 56.89999999999998 10.299999999999955 113.89999999999998 15.299999999999955 171 4.2000000000000455 47.5 8.300000000000011 95.10000000000002 12.400000000000034 142.70000000000005 2 22.799999999999955 4.300000000000011 45.59999999999991 5.800000000000011 68.39999999999998 0.39999999999997726 6.699999999999932 4.5 7.899999999999977 9.299999999999955 9.199999999999932 52.5 14.5 105 29.100000000000023 157.5 43.700000000000045 4 1.1000000000000227 7.900000000000034 2.7000000000000455 11.900000000000034 4.100000000000023h7.800000000000011c24.600000000000023-7.2000000000000455 49.299999999999955-14.600000000000023 74-21.5 31.399999999999977-8.800000000000068 62.799999999999955-17.5 94.29999999999995-25.899999999999977 7-1.900000000000091 9.800000000000068-4.900000000000091 10.5-12.5 4.7000000000000455-57 10.100000000000023-113.90000000000009 15.100000000000023-171 4.7999999999999545-54.700000000000045 9.5-109.40000000000003 14.399999999999977-164.10000000000002 2.7000000000000455-30.600000000000023 5.399999999999977-61.200000000000045 8.200000000000045-91.80000000000001 0.10000000000002274-1.5 1.1000000000000227-2.900000000000034 1.6999999999999318-4.5v-11.800000000000011h-443.99999999999994l-0.10000000000002274 11.699999999999989z m402.90000000000003 26.100000000000023c-1.5 18.69999999999999-3 36.89999999999998-4.7000000000000455 55.099999999999966l-11 122.10000000000002c-4.2999999999999545 48.19999999999999-8.699999999999932 96.39999999999998-13 144.70000000000005-1.6999999999999318 18.199999999999932-3.5 36.5-4.600000000000023 54.799999999999955-0.39999999999997726 6.5-2.099999999999909 9.799999999999955-8.699999999999932 11.600000000000023-44.39999999999998 12-88.70000000000005 24.399999999999977-133.20000000000005 36.5-3.5 0.8999999999999773-7.7999999999999545 0.7999999999999545-11.299999999999955-0.20000000000004547-44.10000000000002-11.899999999999977-88.10000000000002-24.299999999999955-132.3-36.10000000000002-6.800000000000011-1.7999999999999545-8.5-5.5-9-11.599999999999909-3.400000000000034-39.40000000000009-7-78.80000000000007-10.5-118.30000000000007-4.400000000000034-48.89999999999998-8.800000000000011-97.69999999999999-13.100000000000023-146.59999999999997-3.3000000000000114-37.10000000000002-6.5-74.19999999999999-9.800000000000011-112h361.20000000000005z m-113 223c-2 22.900000000000034-3.7000000000000455 44.400000000000034-6 65.80000000000001-0.3000000000000682 2.5-3 6.199999999999932-5.300000000000068 6.899999999999977-17.5 5.2000000000000455-35.19999999999993 9.799999999999955-52.89999999999998 14.299999999999955-3 0.8000000000000682-6.599999999999966 0.5-9.599999999999966-0.2999999999999545-16.400000000000034-4.2000000000000455-32.69999999999999-9-49.19999999999999-13.100000000000023-5.5-1.3999999999999773-7.400000000000034-4.2999999999999545-7.7000000000000455-9.5-0.5-9.799999999999955-1.099999999999966-19.600000000000023-2.3999999999999773-29.299999999999955-0.30000000000001137-2.6000000000000227-2.8000000000000114-7-4.5-7-17.19999999999999-0.5-34.30000000000001-0.3000000000000682-52.30000000000001-0.3000000000000682 2.6000000000000227 28.600000000000023 5 55.60000000000002 7.800000000000011 82.60000000000002 0.30000000000001137 2.3999999999999773 3.8999999999999773 5.7000000000000455 6.699999999999989 6.5 33.900000000000034 9.800000000000068 67.90000000000003 19.200000000000045 101.80000000000001 28.399999999999977 3.5 0.900000000000091 7.800000000000011 0.8000000000000682 11.399999999999977-0.1999999999999318 33.39999999999998-9 66.60000000000002-18.600000000000023 100.10000000000002-27.399999999999977 6.2999999999999545-1.7000000000000455 8.200000000000045-4.400000000000091 8.700000000000045-10.5 3.5-41.10000000000002 7.399999999999977-82.10000000000002 11.099999999999909-123.10000000000002 1.1000000000000227-12.900000000000034 2.2000000000000455-25.80000000000001 3.300000000000068-39.60000000000002h-202c-1.7000000000000455-18.80000000000001-3.3000000000000114-36.89999999999998-5-56.39999999999998h198.69999999999993c2.6000000000000227 0 5.5 0.6999999999999886 7.800000000000068-0.20000000000004547 2.3999999999999773-1 6-3.2999999999999545 6.199999999999932-5.399999999999977 1.900000000000091-16.399999999999977 3.1000000000000227-32.89999999999998 4.5-49.60000000000002h-278.4c5 56.10000000000002 10 111.60000000000002 15 167.90000000000003 64.20000000000005-0.5 127.30000000000001-0.5 192.20000000000005-0.5z m274.5-509.3h-665.8c-44.00000000000006 0-79.80000000000007 35.8-79.80000000000007 79.8v840.4000000000001c0 44 35.80000000000001 79.79999999999995 79.80000000000001 79.79999999999995h646.9000000000001c44 0 79.79999999999995-35.799999999999955 79.79999999999995-79.79999999999995v-859.2c0-33.8-27.299999999999955-61-60.89999999999998-61z m-7.5 556v364.20000000000005c0 6.2999999999999545-5.100000000000023 11.399999999999977-11.399999999999977 11.399999999999977h-646.9000000000001c-6.2999999999999545 0-11.399999999999949-5.100000000000023-11.399999999999949-11.399999999999977v-840.4000000000001c0-6.2999999999999545 5.099999999999994-11.399999999999949 11.400000000000006-11.399999999999949h489.09999999999997c13.5 0 35.5 10 44.200000000000045 20.19999999999999l16.100000000000023 18.400000000000006c10.299999999999955 11.900000000000006 20.399999999999977 23.599999999999994 30.699999999999932 35.400000000000006 13.700000000000045 15.799999999999983 27.399999999999977 31.799999999999983 40.89999999999998 47.599999999999994l17.90000000000009 20.900000000000006c10 11.5 19.399999999999977 36.900000000000006 19.399999999999977 52.099999999999994v293z"/>
</svg>
