<svg xmlns="http://www.w3.org/2000/svg" viewBox="0 0 1000 1000" width="1000" height="1000">
<path d="M706.2 638.7c-14.400000000000091 0-26.90000000000009-15.700000000000045-36.700000000000045-34.700000000000045 11.100000000000023-2 21.600000000000023-4.600000000000023 30.799999999999955-9.200000000000045-12.5 0-23.59999999999991-13.799999999999955-32.799999999999955-30.799999999999955 9.799999999999955-1.2999999999999545 19-3.8999999999999773 26.200000000000045-7.899999999999977-28.800000000000068 0-50.5-83.90000000000003-50.5-83.90000000000003s-24.90000000000009 83.90000000000003-50.5 83.90000000000003c7.199999999999932 3.2999999999999545 15.699999999999932 5.899999999999977 24.899999999999977 7.899999999999977-0.7000000000000455 1.2999999999999545-2 2.6000000000000227-2.6000000000000227 4.600000000000023-21-2-42-29.5-59.700000000000045-62.900000000000034 19-3.3000000000000114 37.40000000000009-8.5 51.80000000000007-15.099999999999966-19.700000000000045 0-39.30000000000007-24.900000000000034-55.700000000000045-55.700000000000045 16.399999999999977-3.2999999999999545 32.10000000000002-7.199999999999989 44.60000000000002-13.099999999999966-45.200000000000045 0-90.5-150.10000000000002-90.5-150.10000000000002s-38.5 150-89.69999999999999 150c13.800000000000011 5.900000000000034 29.5 10.5 47.19999999999999 13.100000000000023-11.800000000000011 21.599999999999966-25.600000000000023 40-40 49.19999999999999-24.30000000000001-30.80000000000001-40.60000000000002-94.39999999999998-40.60000000000002-94.39999999999998s-33.39999999999998 111.39999999999998-66.89999999999998 111.39999999999998c9.199999999999989 4.600000000000023 20.30000000000001 7.199999999999989 32.80000000000001 9.800000000000011-12.5 22.900000000000034-26.900000000000034 41.30000000000001-41.30000000000001 41.30000000000001 11.100000000000023 5.199999999999932 24.30000000000001 8.5 38.69999999999999 11.100000000000023-13.800000000000011 25.59999999999991-30.19999999999999 47.19999999999993-45.89999999999998 47.19999999999993 17.69999999999999 7.899999999999977 42 13.100000000000023 66.89999999999998 14.399999999999977v78.70000000000005c-55.69999999999999-17.700000000000045-73.39999999999998 12.5-73.39999999999998 24.899999999999977h405.09999999999997c-2-42.60000000000002-11.799999999999955-11.699999999999932-44.60000000000002-13.799999999999955v-64.20000000000005c19-1.2999999999999545 38-4.5 52.40000000000009-11.699999999999932z m-262.20000000000005-135.70000000000005c5.199999999999989 0.6999999999999886 9.800000000000011 2 15.699999999999989 3.3000000000000114-7.199999999999989 13.099999999999966-15.099999999999966 25.599999999999966-22.899999999999977 35.400000000000034-8.5-7.2000000000000455-15.699999999999989-18.40000000000009-22.900000000000034-30.800000000000068 11.100000000000023-1.3999999999999773 21-4.699999999999989 30.100000000000023-7.899999999999977z m42.60000000000002 201.29999999999995c-52.400000000000034 3.300000000000068-71.5-41.299999999999955-76.70000000000005 5.900000000000091-4.599999999999966 0.6999999999999318-8.5 0.6999999999999318-13.799999999999955 0.6999999999999318v-85.19999999999993c25.599999999999966-1.3000000000000682 49.799999999999955-6.600000000000023 68.79999999999995-15.100000000000023-14.399999999999977 0-27.5-13.100000000000023-38.69999999999999-30.800000000000068 19 5.2000000000000455 39.30000000000001 8.5 60.30000000000001 9.800000000000068l0.10000000000002274 114.69999999999993z m145 5.2000000000000455c-5.899999999999977-2-11.100000000000023-2.6000000000000227-15.700000000000045-3.2999999999999545-13.100000000000023-14.400000000000091-40-26.90000000000009-88.5-11.100000000000023v-106.30000000000007c32.10000000000002-2 62.89999999999998-7.899999999999977 86.5-18.399999999999977-8.5 13.800000000000068-17.699999999999932 24.300000000000068-27.5 24.300000000000068 8.5 3.8999999999999773 18.399999999999977 6.599999999999909 29.5 8.5-10.5 19.699999999999932-22.299999999999955 35.39999999999998-34.69999999999993 35.39999999999998 13.799999999999955 6.600000000000023 31.5 10.5 50.5 11.799999999999955v59.10000000000002z m210.5-709.5h-665.8c-44.00000000000006 0-79.80000000000007 35.8-79.80000000000007 79.8v840.4000000000001c0 44 35.80000000000001 79.79999999999995 79.80000000000001 79.79999999999995h646.9000000000001c44 0 79.79999999999995-35.799999999999955 79.79999999999995-79.79999999999995v-859.2c0-33.8-27.299999999999955-61-60.89999999999998-61z m-7.5 556v364.20000000000005c0 6.2999999999999545-5.100000000000023 11.399999999999977-11.399999999999977 11.399999999999977h-646.9000000000001c-6.2999999999999545 0-11.399999999999949-5.100000000000023-11.399999999999949-11.399999999999977v-840.4000000000001c0-6.2999999999999545 5.099999999999994-11.399999999999949 11.400000000000006-11.399999999999949h489.09999999999997c13.5 0 35.5 10 44.200000000000045 20.19999999999999l16.100000000000023 18.400000000000006c10.299999999999955 11.900000000000006 20.399999999999977 23.599999999999994 30.699999999999932 35.400000000000006 13.700000000000045 15.799999999999983 27.399999999999977 31.799999999999983 40.89999999999998 47.599999999999994l17.90000000000009 20.900000000000006c10 11.5 19.399999999999977 36.900000000000006 19.399999999999977 52.099999999999994v293z"/>
</svg>
