<svg xmlns="http://www.w3.org/2000/svg" viewBox="0 0 1000 1000" width="1000" height="1000">
<path d="M594.1 456.9c-1.6000000000000227-3.3999999999999773-5-4-7.7000000000000455-1.2999999999999545l-131.7 136.69999999999993c-2.599999999999966 2.7000000000000455-1.8999999999999773 6.100000000000023 1.5 7.600000000000023 83.90000000000003 36.30000000000007 167.09999999999997 72.20000000000005 252.00000000000006 108.89999999999998 3.3999999999999773 1.5 5-0.09999999999990905 3.2999999999999545-3.3999999999999773-39.60000000000002-83.89999999999998-78.39999999999998-166-117.39999999999998-248.5z m-151.70000000000005 157.5c-3.3999999999999773-1.5-8.299999999999955-0.5-11 2.2000000000000455-35 36.299999999999955-69.69999999999999 72.39999999999998-105.39999999999998 109.29999999999995-2.6000000000000227 2.7000000000000455-1.6999999999999886 4.899999999999977 2 4.899999999999977 125-0.1999999999999318 248.5-0.39999999999997726 372-0.6999999999999318 3.7999999999999545 0 6.7999999999999545-0.3000000000000682 6.899999999999977-0.7000000000000455 0.10000000000002274-0.2999999999999545-2.699999999999932-1.8999999999999773-6.100000000000023-3.3999999999999773l-258.4-111.60000000000002z m277.80000000000007-290.7c-0.10000000000002274-3.8000000000000114-1.6000000000000227-5.399999999999977-3.300000000000068-3.599999999999966-1.1999999999999318 1.1999999999999886-2.1000000000000227 2.1999999999999886-3 3.1999999999999886-34.5 35.69999999999999-68.89999999999998 71.59999999999997-103.60000000000002 107.09999999999997-4.599999999999909 4.600000000000023-4.399999999999977 8-1.8999999999999773 13.100000000000023 34.39999999999998 72.39999999999998 68.70000000000005 145 103 217.5 5.800000000000068 12.200000000000045 11.600000000000023 24.5 17.5 36.700000000000045 1.6000000000000227 3.3999999999999773 3.2000000000000455 6.099999999999909 3.3999999999999773 6 0.3000000000000682-0.10000000000002274 0.40000000000009095-3.2000000000000455 0.3000000000000682-7-4.2000000000000455-123.80000000000007-8.300000000000068-247.60000000000002-12.399999999999977-373.00000000000006z m-312.6 85.69999999999999c-3.7000000000000455-0.6999999999999886-6 1.7000000000000455-5.2000000000000455 5.400000000000034 11.800000000000011 53.5 23.400000000000034 106.09999999999997 35.10000000000002 159.09999999999997 0.8000000000000114 3.7000000000000455 3.6000000000000227 4.399999999999977 6.199999999999989 1.8000000000000682 42.19999999999999-43.80000000000007 83.69999999999999-86.90000000000003 125.80000000000001-130.50000000000006 2.6000000000000227-2.6999999999999886 1.7000000000000455-5.399999999999977-2-6.099999999999966-53.39999999999998-10-106.30000000000001-19.80000000000001-159.89999999999998-29.700000000000045z m3.2999999999999545 191.30000000000007c-46.5-20.100000000000023-92.29999999999995-39.90000000000009-139.09999999999997-60.10000000000002-3.400000000000034-1.5-5.600000000000023 0.2999999999999545-4.800000000000011 4 12.399999999999977 56.60000000000002 24.600000000000023 112 36.89999999999998 168.10000000000002 0.8000000000000114 3.699999999999932 3.6000000000000227 4.399999999999977 6.2000000000000455 1.7999999999999545l102.29999999999995-106.10000000000002c2.6000000000000227-2.7999999999999545 1.900000000000034-6.199999999999932-1.5-7.699999999999932z m182.5-189.30000000000007c1.6000000000000227 3.400000000000034 5 4 7.600000000000023 1.3000000000000114 34.200000000000045-35.5 67.89999999999998-70.5 102.20000000000005-106.09999999999997 2.599999999999909-2.7000000000000455 1.6999999999999318-5.400000000000034-2-6.100000000000023-56.60000000000002-10.399999999999977-112.20000000000005-20.600000000000023-169-31.100000000000023-3.7000000000000455-0.6999999999999886-5.400000000000091 1.5-3.800000000000068 5 22.100000000000023 46.200000000000045 43.5 91.5 65 137z m-22.600000000000023 9.100000000000023c3.7000000000000455 0.6999999999999886 5.400000000000091-1.5 3.800000000000068-4.899999999999977-21.700000000000045-45.900000000000034-42.89999999999998-90.70000000000005-64.20000000000005-135.70000000000005-1.599999999999966-3.3999999999999773-5-4-7.599999999999966-1.2999999999999545-33.900000000000034 35.19999999999999-67.10000000000002 69.69999999999999-101.10000000000002 104.89999999999998-2.599999999999966 2.6999999999999886-1.6999999999999886 5.399999999999977 2 6.100000000000023 55.900000000000034 10.299999999999955 110.90000000000003 20.5 167.09999999999997 30.899999999999977z m-156.49999999999994 161.20000000000005c3.3999999999999773 1.5 5.599999999999966-0.3000000000000682 4.800000000000011-4-12.400000000000034-56-24.400000000000034-110.80000000000007-36.60000000000002-166.20000000000005-0.8000000000000114-3.6999999999999886-3.6000000000000227-4.399999999999977-6.199999999999989-1.8000000000000114-34 35.19999999999999-67.30000000000001 69.80000000000001-101 104.80000000000001-2.6000000000000227 2.7000000000000455-1.900000000000034 6.100000000000023 1.5 7.600000000000023 45.5 19.799999999999955 90.89999999999998 39.5 137.5 59.60000000000002z m427.8-581.7h-665.8c-44.00000000000006 0-79.80000000000007 35.8-79.80000000000007 79.8v840.4000000000001c0 44 35.80000000000001 79.79999999999995 79.80000000000001 79.79999999999995h646.9000000000001c44 0 79.79999999999995-35.799999999999955 79.79999999999995-79.79999999999995v-859.2c0-33.8-27.299999999999955-61-60.89999999999998-61z m-7.5 556v364.20000000000005c0 6.2999999999999545-5.100000000000023 11.399999999999977-11.399999999999977 11.399999999999977h-646.9000000000001c-6.2999999999999545 0-11.399999999999949-5.100000000000023-11.399999999999949-11.399999999999977v-840.4000000000001c0-6.2999999999999545 5.099999999999994-11.399999999999949 11.400000000000006-11.399999999999949h489.09999999999997c13.5 0 35.5 10 44.200000000000045 20.19999999999999l16.100000000000023 18.400000000000006c10.299999999999955 11.900000000000006 20.399999999999977 23.599999999999994 30.699999999999932 35.400000000000006 13.700000000000045 15.799999999999983 27.399999999999977 31.799999999999983 40.89999999999998 47.599999999999994l17.90000000000009 20.900000000000006c10 11.5 19.399999999999977 36.900000000000006 19.399999999999977 52.099999999999994v293z"/>
</svg>
