<svg xmlns="http://www.w3.org/2000/svg" viewBox="0 0 1000 1000" width="1000" height="1000">
<path d="M380.2 462.5c69.19999999999999 0.19999999999998863 138.50000000000006 0.10000000000002274 207.7 0.10000000000002274 6.300000000000068 0 6.7000000000000455-0.5 5.300000000000068-6.5-3.400000000000091-15.100000000000023-15.800000000000068-24.400000000000034-32.80000000000007-24.5-31.799999999999955-0.10000000000002274-63.5 0-95.29999999999995 0-60.60000000000002 0-121.20000000000005 0.0999999999999659-181.8-0.10000000000002274-11.699999999999989 0-21.19999999999999 3.8000000000000114-28.30000000000001 13.199999999999989-2.5999999999999943 3.400000000000034-5.400000000000006 7-5.400000000000006 11.100000000000023v224.90000000000003l-0.09999999999999432 5.599999999999909c0 0.10000000000002274 0 0.20000000000004547 0.09999999999999432 0.20000000000004547 4.900000000000006 14.600000000000023 16.799999999999983 21.700000000000045 32.29999999999998 21.700000000000045h281c17.100000000000023 0 30.700000000000045-13.400000000000091 30.700000000000045-30.100000000000023 0-60-0.10000000000002274-120 0.10000000000002274-180 0-4.300000000000011-1.1000000000000227-5.300000000000011-5.400000000000091-5.300000000000011-54.69999999999993 0.0999999999999659-109.49999999999994 0.0999999999999659-164.19999999999993 0.0999999999999659-15 0-30-0.0999999999999659-44.900000000000034 0.10000000000002274-3.6999999999999886 0.10000000000002274-4.800000000000011-1-4.599999999999966-4.600000000000023 0.2999999999999545-6.7999999999999545 0.39999999999997726-13.699999999999989 0-20.69999999999999-0.30000000000001137-4.199999999999989 1.1999999999999886-5.199999999999989 5.599999999999966-5.199999999999989z m107.69999999999999 77.29999999999995c33.39999999999998-0.09999999999990905 61.5 27 62.5 58.60000000000002 1.1000000000000227 35.30000000000007-27.399999999999977 63-60.19999999999999 64-35.80000000000001 1.1000000000000227-63.39999999999998-27.199999999999932-64.59999999999997-58.799999999999955-1.400000000000034-33.700000000000045 26.099999999999966-63.700000000000045 62.299999999999955-63.80000000000007z m-144.7 106.90000000000009c-17.099999999999966-0.10000000000002274-30.899999999999977-13.800000000000068-30.80000000000001-30.700000000000045 0.10000000000002274-16.600000000000023 14.300000000000011-30.600000000000023 31.200000000000045-30.5 16.899999999999977 0.10000000000002274 30.899999999999977 14.200000000000045 30.799999999999955 30.799999999999955-0.0999999999999659 16.800000000000068-14.099999999999966 30.5-31.19999999999999 30.40000000000009z m382.3-227.80000000000007l-1.2000000000000455 0.8000000000000114c-24.899999999999977 18.30000000000001-50.09999999999991 36.19999999999999-74.39999999999998 55.10000000000002-15.899999999999977 12.300000000000011-24.600000000000023 29.19999999999999-24.899999999999977 49.400000000000034-0.2999999999999545 29.899999999999977-0.10000000000002274 59.799999999999955-0.10000000000002274 89.69999999999993 0.10000000000002274 21.899999999999977 9.200000000000045 39.60000000000002 26.700000000000045 52.89999999999998 23.699999999999932 18 47.799999999999955 35.30000000000007 71.69999999999993 53 2.800000000000068 2 5.5 3.900000000000091 8.800000000000068 5 7.699999999999932 2.6000000000000227 13.799999999999955 1.3000000000000682 16.799999999999955-6 0.39999999999997726-0.8999999999999773 0.8999999999999773-2.099999999999909 0.8999999999999773-3.7999999999999545v-289.9c0.20000000000004547-10.900000000000034-12.799999999999955-14-24.299999999999955-6.2000000000000455z m-232.60000000000002-18.5c33.80000000000007-1.099999999999966 63.30000000000007-29.599999999999966 62.10000000000002-66-1.1000000000000227-32.599999999999966-30-60.599999999999966-64.5-60.39999999999998-37.30000000000001 0-65.69999999999999 31-64.30000000000001 65.80000000000001 1.400000000000034 32.5 29.69999999999999 61.80000000000001 66.69999999999999 60.599999999999966z m-154.7 0c26.900000000000034-0.8999999999999773 50.30000000000001-23.599999999999966 49.400000000000034-52.5-0.8000000000000114-26-23.900000000000034-48.299999999999955-51.30000000000001-48.099999999999966-29.69999999999999 0-52.30000000000001 24.69999999999999-51.19999999999999 52.39999999999998 1 25.80000000000001 23.69999999999999 49.10000000000002 53.099999999999966 48.19999999999999z m503.90000000000003-400.4h-665.8c-44.00000000000006 0-79.80000000000007 35.8-79.80000000000007 79.8v840.4000000000001c0 44 35.80000000000001 79.79999999999995 79.80000000000001 79.79999999999995h646.9000000000001c44 0 79.79999999999995-35.799999999999955 79.79999999999995-79.79999999999995v-859.2c0-33.8-27.299999999999955-61-60.89999999999998-61z m-7.5 556v364.20000000000005c0 6.2999999999999545-5.100000000000023 11.399999999999977-11.399999999999977 11.399999999999977h-646.9000000000001c-6.2999999999999545 0-11.399999999999949-5.100000000000023-11.399999999999949-11.399999999999977v-840.4000000000001c0-6.2999999999999545 5.099999999999994-11.399999999999949 11.400000000000006-11.399999999999949h489.09999999999997c13.5 0 35.5 10 44.200000000000045 20.19999999999999l16.100000000000023 18.400000000000006c10.299999999999955 11.900000000000006 20.399999999999977 23.599999999999994 30.699999999999932 35.400000000000006 13.700000000000045 15.799999999999983 27.399999999999977 31.799999999999983 40.89999999999998 47.599999999999994l17.90000000000009 20.900000000000006c10 11.5 19.399999999999977 36.900000000000006 19.399999999999977 52.099999999999994v293z"/>
</svg>
