<svg xmlns="http://www.w3.org/2000/svg" viewBox="0 0 1000 1000" width="1000" height="1000">
<path d="M712.9 602.5c0.8000000000000682-15.299999999999955 1.5-30.600000000000023 2.1000000000000227-45.89999999999998l2.6000000000000227-58.200000000000045 2.1000000000000227-48 2.599999999999909-59.19999999999999 1.5-35.39999999999998c0.6000000000000227-15.900000000000034 1.3000000000000682-31.69999999999999 2.1000000000000227-47.60000000000002 0.20000000000004547-4.399999999999977-0.10000000000002274-8.800000000000011 0.8000000000000682-13.199999999999989v-2.1000000000000227c0.09999999999990905-0.7999999999999545-0.6000000000000227-0.19999999999998863-0.900000000000091-0.39999999999997726-2.199999999999932 0.8000000000000114-4.599999999999909 0.6000000000000227-6.7999999999999545 0.8000000000000114-18.5 1.5-37.10000000000002 2.8999999999999773-55.60000000000002 4.300000000000011l-55.19999999999993 4.199999999999989-47 3.5-47 3.6999999999999886-47.00000000000006 3.5-30.69999999999999 2.3999999999999773c-1.3000000000000114 0.10000000000002274-1.8000000000000114 0.5-1.8000000000000114 1.8000000000000114l-1.8000000000000114 46.80000000000001c-0.5999999999999659 14.300000000000011-1.099999999999966 28.600000000000023-1.6999999999999886 43l-2.099999999999966 54.80000000000001-1.7000000000000455 42.80000000000001-2.099999999999966 54.799999999999955c-0.4000000000000341 9.899999999999977-0.8000000000000114 19.800000000000068-1.1000000000000227 29.700000000000045-0.0999999999999659 1.7999999999999545-0.5 1.7999999999999545-1.8999999999999773 1.1000000000000227-11.600000000000023-5.5-23.900000000000034-8.100000000000023-36.69999999999999-7.7000000000000455-23.600000000000023 0.8999999999999773-44.900000000000034 7.7000000000000455-61.900000000000034 24.899999999999977-7.899999999999977 7.899999999999977-13.699999999999989 17.100000000000023-15.800000000000011 28.300000000000068-0.19999999999998863 0.8999999999999773 0.10000000000002274 2-0.5999999999999659 2.7999999999999545v10.200000000000045c0.8999999999999773 3.199999999999932 1.1999999999999886 6.5 2.1999999999999886 9.799999999999955 3.6999999999999886 11.700000000000045 11.100000000000023 20.700000000000045 21.100000000000023 27.600000000000023 12.399999999999977 8.5 26.099999999999966 13.199999999999932 41.099999999999966 13.899999999999977 0.4000000000000341 0 0.9000000000000341-0.10000000000002274 1.1999999999999886 0.2999999999999545h7.2000000000000455c0.5-0.5 1.099999999999966-0.2999999999999545 1.599999999999966-0.2999999999999545 4.600000000000023-0.20000000000004547 9.100000000000023-0.8999999999999773 13.600000000000023-1.7999999999999545 18.5-3.900000000000091 34.5-12.300000000000068 47-26.800000000000068 7.099999999999966-8.199999999999932 11.699999999999989-17.799999999999955 13-28.600000000000023 0.8999999999999773-8.199999999999932 1-16.399999999999977 1.3000000000000114-24.59999999999991 0.5999999999999659-13.100000000000023 1.1999999999999886-26.100000000000023 1.6999999999999886-39.200000000000045l2.099999999999966-52.700000000000045c0.5-13.199999999999932 1.1000000000000227-26.299999999999955 1.7000000000000455-39.39999999999998 0.7999999999999545-19.5 1.6999999999999886-38.89999999999998 2.599999999999966-58.39999999999998l1.5-34.10000000000002c0.10000000000002274-1.5 0.4000000000000341-2.099999999999966 1.900000000000034-2.1999999999999886 7.099999999999966-0.5999999999999659 14.299999999999955-1.5 21.5-2.1999999999999886l26.5-2.6999999999999886c10.600000000000023-1.1000000000000227 21.299999999999955-2.1999999999999886 32-3.1999999999999886l26.5-2.7000000000000455c10.600000000000023-1.099999999999966 21.299999999999955-2.1999999999999886 32-3.1999999999999886l26.5-2.6999999999999886c10.5-1.1000000000000227 21-2.1000000000000227 31.600000000000023-3.1999999999999886 9.199999999999932-0.9000000000000341 18.399999999999977-1.8000000000000114 27.5-2.8000000000000114 2-0.19999999999998863 2.5 0.39999999999997726 2.2999999999999545 2.3000000000000114-0.6000000000000227 10-1.2000000000000455 19.899999999999977-1.7000000000000455 29.899999999999977l-1.8999999999999773 35c-0.6000000000000227 11.5-1.2999999999999545 22.900000000000034-1.8999999999999773 34.30000000000001-0.6000000000000227 11.699999999999989-1.2000000000000455 23.399999999999977-1.8999999999999773 35.19999999999999l-2.3999999999999773 44.19999999999999c-0.3000000000000682 5-0.6000000000000227 9.899999999999977-0.900000000000091 15.100000000000023l-2-1c-10.899999999999977-5.600000000000023-22.399999999999977-8.5-34.69999999999993-8.899999999999977-7.600000000000023-0.20000000000004547-15 0.6000000000000227-22.399999999999977 2-19.40000000000009 3.7999999999999545-35.700000000000045 12.899999999999977-47.80000000000007 28.600000000000023-13 16.799999999999955-15.600000000000023 35.09999999999991-6.199999999999932 54.39999999999998 5.7999999999999545 11.899999999999977 16.09999999999991 19.299999999999955 27.799999999999955 24.799999999999955 14.200000000000045 6.7000000000000455 29.200000000000045 8.700000000000045 44.700000000000045 7.100000000000023 17.799999999999955-1.7000000000000455 33.799999999999955-7.7999999999999545 47.59999999999991-19.200000000000045 8.800000000000068-7.2999999999999545 15.800000000000068-16 19.600000000000023-26.899999999999977 2.2000000000000455-7.7999999999999545 2.1000000000000227-15.699999999999932 2.5-23.399999999999977z m-413.5-63.60000000000002c5.800000000000011-0.6999999999999318 9.100000000000023-5.399999999999977 7.900000000000034-11.600000000000023-1.1999999999999886-6.699999999999932-6-9.099999999999909-12.300000000000011-8.199999999999932-7.100000000000023 1-14 2.8999999999999773-20.600000000000023 5.899999999999977-15.299999999999955 7-26.49999999999997 19.100000000000023-29.99999999999997 34.5-0.5999999999999943 2.6000000000000227-1 5.399999999999977 0 7.899999999999977 4.299999999999983 10.600000000000023 16.700000000000017 9 19.599999999999994 0.6000000000000227 6-17.100000000000023 17-26.899999999999977 35.39999999999998-29.100000000000023z m448.1 108c-7.600000000000023-1.2999999999999545-10.799999999999955 3.3999999999999773-12.299999999999955 10.600000000000023-3 14.299999999999955-12 23.600000000000023-26.100000000000023 27.799999999999955-13.600000000000023 4.2000000000000455-18.5 15.800000000000068-5.100000000000023 21.600000000000023 2.3999999999999773 1.1000000000000227 5.5 1.1000000000000227 7.899999999999977 0 3.800000000000068-1.6999999999999318 7-3 10.399999999999977-4.600000000000023 17.90000000000009-8.199999999999932 29.40000000000009-21.5 33.10000000000002-41 1.2000000000000455-6.899999999999977 0-13.099999999999909-7.899999999999977-14.399999999999977z m-377.9-91.89999999999998c-1.3000000000000114-8.200000000000045-8-9.5-15.300000000000011-8.100000000000023-5.5 1-11 1.7000000000000455-16.400000000000034 3.300000000000068-35.19999999999999 10.299999999999955-57.89999999999998 33.19999999999993-68.29999999999995 68.29999999999995-2.5 8.399999999999977 1.7999999999999545 14.299999999999955 7.7999999999999545 14.100000000000023 7.7000000000000455 0 10.600000000000023-3.6000000000000227 12-8.800000000000068 2.8000000000000114-10.599999999999909 7.7000000000000455-20.199999999999932 14.700000000000045-28.59999999999991 13.799999999999955-16.800000000000068 31.899999999999977-25.700000000000045 53.299999999999955-28.100000000000023 7.400000000000034-0.8999999999999773 13.600000000000023-3.800000000000068 12.200000000000045-12.100000000000023z m472.5-555h-665.8c-44.00000000000006 0-79.80000000000007 35.8-79.80000000000007 79.8v840.4000000000001c0 44 35.80000000000001 79.79999999999995 79.80000000000001 79.79999999999995h646.9000000000001c44 0 79.79999999999995-35.799999999999955 79.79999999999995-79.79999999999995v-859.2c0-33.8-27.299999999999955-61-60.89999999999998-61z m-7.5 556v364.20000000000005c0 6.2999999999999545-5.100000000000023 11.399999999999977-11.399999999999977 11.399999999999977h-646.9000000000001c-6.2999999999999545 0-11.399999999999949-5.100000000000023-11.399999999999949-11.399999999999977v-840.4000000000001c0-6.2999999999999545 5.099999999999994-11.399999999999949 11.400000000000006-11.399999999999949h489.09999999999997c13.5 0 35.5 10 44.200000000000045 20.19999999999999l16.100000000000023 18.400000000000006c10.299999999999955 11.900000000000006 20.399999999999977 23.599999999999994 30.699999999999932 35.400000000000006 13.700000000000045 15.799999999999983 27.399999999999977 31.799999999999983 40.89999999999998 47.599999999999994l17.90000000000009 20.900000000000006c10 11.5 19.399999999999977 36.900000000000006 19.399999999999977 52.099999999999994v293z"/>
</svg>
