<svg xmlns="http://www.w3.org/2000/svg" viewBox="0 0 1000 1000" width="1000" height="1000">
<path d="M282.4 265.2c2 17.100000000000023 4.100000000000023 34.10000000000002 5.800000000000011 51.19999999999999 5.100000000000023 55.700000000000045 10.100000000000023 111.60000000000002 15 167.40000000000003 4.100000000000023 46.49999999999994 8.100000000000023 93.09999999999997 12.199999999999989 139.7 2 22.399999999999977 4.2000000000000455 44.60000000000002 5.7000000000000455 67 0.39999999999997726 6.5 4.399999999999977 7.7000000000000455 9.099999999999966 9l154.2 42.700000000000045c3.900000000000034 1.099999999999909 7.7000000000000455 2.699999999999932 11.700000000000045 4h7.699999999999989c24.099999999999966-7 48.19999999999999-14.300000000000068 72.40000000000003-21.100000000000023 30.699999999999932-8.600000000000023 61.5-17.200000000000045 92.39999999999998-25.399999999999977 6.7999999999999545-1.8000000000000682 9.600000000000023-4.800000000000068 10.299999999999955-12.200000000000045 4.600000000000023-55.799999999999955 9.800000000000068-111.60000000000002 14.800000000000068-167.29999999999995l14.099999999999909-160.70000000000005c2.6000000000000227-29.899999999999977 5.300000000000068-59.89999999999998 8-89.89999999999998 0.10000000000002274-1.5 1.1000000000000227-2.900000000000034 1.6000000000000227-4.400000000000034v-11.5h-435.09999999999997c0.0999999999999659 3.8000000000000114 0.0999999999999659 7.699999999999989 0.0999999999999659 11.5z m394.5 25.5c-1.6000000000000227 18.30000000000001-3.1000000000000227 36.10000000000002-4.600000000000023 53.900000000000034l-10.799999999999955 119.59999999999997-12.700000000000045 141.59999999999997c-1.599999999999909 17.90000000000009-3.3999999999999773 35.700000000000045-4.5 53.60000000000002-0.39999999999997726 6.300000000000068-2 9.600000000000023-8.5 11.399999999999977-43.5 11.700000000000045-86.89999999999998 23.90000000000009-130.39999999999998 35.700000000000045-3.3999999999999773 0.8999999999999773-7.599999999999966 0.7999999999999545-11.099999999999966-0.20000000000004547-43.19999999999999-11.699999999999932-86.30000000000001-23.799999999999955-129.5-35.39999999999998-6.600000000000023-1.7999999999999545-8.300000000000011-5.399999999999977-8.800000000000011-11.299999999999955-3.3000000000000114-38.60000000000002-6.800000000000011-77.20000000000005-10.300000000000011-115.80000000000007-4.300000000000011-47.89999999999998-8.599999999999966-95.69999999999993-12.899999999999977-143.49999999999994-3.1999999999999886-36.30000000000001-6.300000000000011-72.69999999999999-9.600000000000023-109.69999999999999l353.7 0.0999999999999659z m-312.59999999999997 94.90000000000003l1.099999999999966 12.5h213l-5.100000000000023 57h-139.79999999999995l1.3000000000000114 14.899999999999977 2.5 28.30000000000001 1.099999999999966 12.399999999999977h129.89999999999998l-6.5 72.19999999999999-62.099999999999966 16.800000000000068-61.89999999999998-16.700000000000045-4-44.39999999999998h-55.900000000000034l7.800000000000011 87.39999999999998 114 31.700000000000045 0.30000000000001137-0.10000000000002274 113.89999999999998-31.600000000000023 0.8000000000000682-9.299999999999955 9.5-105.90000000000003v-0.30000000000001137l0.1999999999999318-2 13.5-151.10000000000002 1.3000000000000682-14.899999999999977h-278.80000000000007l1.3000000000000114 14.899999999999977 2.6000000000000227 28.200000000000045z m477.8-385.6h-665.8c-44.00000000000006 0-79.80000000000007 35.8-79.80000000000007 79.8v840.4000000000001c0 44 35.80000000000001 79.79999999999995 79.80000000000001 79.79999999999995h646.9000000000001c44 0 79.79999999999995-35.799999999999955 79.79999999999995-79.79999999999995v-859.2c0-33.8-27.299999999999955-61-60.89999999999998-61z m-7.5 556v364.20000000000005c0 6.2999999999999545-5.100000000000023 11.399999999999977-11.399999999999977 11.399999999999977h-646.9000000000001c-6.2999999999999545 0-11.399999999999949-5.100000000000023-11.399999999999949-11.399999999999977v-840.4000000000001c0-6.2999999999999545 5.099999999999994-11.399999999999949 11.400000000000006-11.399999999999949h489.09999999999997c13.5 0 35.5 10 44.200000000000045 20.19999999999999l16.100000000000023 18.400000000000006c10.299999999999955 11.900000000000006 20.399999999999977 23.599999999999994 30.699999999999932 35.400000000000006 13.700000000000045 15.799999999999983 27.399999999999977 31.799999999999983 40.89999999999998 47.599999999999994l17.90000000000009 20.900000000000006c10 11.5 19.399999999999977 36.900000000000006 19.399999999999977 52.099999999999994v293z"/>
</svg>
