<svg xmlns="http://www.w3.org/2000/svg" viewBox="0 0 1000 1000" width="1000" height="1000">
<path d="M705.2 469.1v-49.60000000000002c0-3.6999999999999886-3.1000000000000227-6.899999999999977-6.900000000000091-6.899999999999977h-262.99999999999994c-3.900000000000034 0-7.100000000000023-0.20000000000004547-7.100000000000023-0.30000000000001137 0-0.19999999999998863 2.900000000000034-1.1999999999999886 6.699999999999989-2.1000000000000227 87.89999999999998-23 175.80000000000007-45.89999999999998 263.9-68.89999999999998 3.7000000000000455-1 6-4.699999999999989 4.900000000000091-8.199999999999989-5.300000000000068-18.5-10.400000000000091-36.80000000000001-15.5-55-1.1000000000000227-3.7000000000000455-3.1000000000000227-6.300000000000011-4.7000000000000455-6-1.1000000000000227 0.2999999999999545-2 0.5-2.8999999999999773 0.6999999999999886-49.80000000000007 13-99.60000000000002 26.099999999999966-149.30000000000007 39.099999999999966l-233.09999999999997 60.400000000000034c-3.099999999999966 0.8999999999999773-4.399999999999977 1.8999999999999773-4.399999999999977 5.300000000000011 0.19999999999998863 22.299999999999955 0.19999999999998863 44.5 0.19999999999998863 66.69999999999999v31.69999999999999c-0.19999999999998863 81.79999999999995-0.19999999999998863 163.29999999999995-0.19999999999998863 245.20000000000005 0 3.699999999999932 3.3000000000000114 6.699999999999932 7.099999999999966 6.699999999999932h397.70000000000005c3.7999999999999545 0 6.899999999999977-3 6.899999999999977-6.699999999999932v-238.50000000000006c0-3.6999999999999886 0-6.699999999999989-0.20000000000004547-6.699999999999989 0.10000000000002274 0-0.09999999999990905-3.1999999999999886-0.09999999999990905-6.899999999999977z m-107.60000000000002-159.8c19.299999999999955-5.100000000000023 38.10000000000002-10 57.19999999999993-15.100000000000023 3.800000000000068-0.8999999999999773 7.600000000000023 1.1999999999999886 8.700000000000045 4.699999999999989 2.6000000000000227 9.300000000000011 5.100000000000023 18.5 7.7999999999999545 27.80000000000001 0.900000000000091 3.5-1.2999999999999545 7.400000000000034-5.099999999999909 8.199999999999989-7.300000000000068 1.900000000000034-14.600000000000023 3.900000000000034-21.700000000000045 5.600000000000023-8.200000000000045 2.3000000000000114-16.399999999999977 4.600000000000023-24.799999999999955 6.5-1.3000000000000682 0.30000000000001137-3.800000000000068-0.19999999999998863-4.400000000000091-1.1999999999999886-6.899999999999977-9.400000000000034-13.699999999999932-19.30000000000001-20.59999999999991-29.30000000000001-1.900000000000091-3-0.7000000000000455-6.300000000000011 2.8999999999999773-7.199999999999989z m-99.10000000000002 25.80000000000001c7.300000000000011-1.900000000000034 14.399999999999977-3.7000000000000455 21.299999999999955-5.600000000000023 8.400000000000091-2.1000000000000227 16.600000000000023-4.399999999999977 24.800000000000068-6.300000000000011 1.6999999999999318-0.30000000000001137 4.399999999999977 0.19999999999998863 5.100000000000023 1.1999999999999886 6.699999999999932 9.400000000000034 13.5 19.30000000000001 20.399999999999977 29.30000000000001 2.199999999999932 3 0.6999999999999318 6.300000000000011-2.8999999999999773 7.400000000000034-14.600000000000023 3.8999999999999773-28.800000000000068 7.5-43.10000000000002 11.199999999999989-3.800000000000068 1-8.600000000000023-0.6999999999999886-10.800000000000068-3.900000000000034-5.7999999999999545-8.599999999999966-11.899999999999977-17.19999999999999-17.799999999999955-25.899999999999977-2.1000000000000227-3.1000000000000227-0.8999999999999773-6.300000000000011 3-7.399999999999977z m-153.2 105.79999999999995c-11.900000000000034 0-21.900000000000034-9.799999999999955-21.900000000000034-21 0-11.699999999999989 10-21.399999999999977 22.30000000000001-21.399999999999977 11.900000000000034 0 22.100000000000023 10.100000000000023 21.900000000000034 21.600000000000023-0.20000000000004547 11.399999999999977-10.600000000000023 21-22.30000000000001 20.799999999999955z m47.80000000000001-77.59999999999997c0-0.30000000000001137 2.8999999999999773-1.400000000000034 6.699999999999989-2.400000000000034 15.5-4 31-8.099999999999966 46.599999999999966-11.899999999999977 1.1000000000000227-0.30000000000001137 3.1000000000000227 0.19999999999998863 3.7000000000000455 1 6.899999999999977 9.600000000000023 13.699999999999989 19.399999999999977 20.599999999999966 29.5 2.1999999999999886 3.1000000000000227 0.9000000000000341 6.5-2.8999999999999773 7.5-8.699999999999989 2.3000000000000114-17.30000000000001 4.399999999999977-25.69999999999999 6.699999999999989-6.900000000000034 1.6999999999999886-13.900000000000034 3.6999999999999886-20.80000000000001 5.5-1.5 0.19999999999998863-3.900000000000034-0.30000000000001137-4.600000000000023-1.1999999999999886-7.800000000000011-11.199999999999989-15.699999999999989-22.5-23.399999999999977-33.60000000000002 0-0.39999999999997726 0-0.7999999999999545-0.19999999999998863-1.099999999999966z m6.199999999999989 99.30000000000001l4.899999999999977-14.200000000000045c2.1999999999999886-6.2999999999999545 4.199999999999989-12.599999999999966 6.5-18.69999999999999 0.4000000000000341-1.1999999999999886 2-2.8000000000000114 3.1000000000000227-2.8000000000000114 16.399999999999977-0.19999999999998863 32.80000000000001-0.19999999999998863 49.39999999999998-0.19999999999998863 4 0 6 3 4.900000000000034 6.5-3.5 10-6.900000000000034 19.600000000000023-10.400000000000034 29.5-1.099999999999966 3.5-5.300000000000011 6.5-9.099999999999966 6.5h-44.60000000000002c-3.8000000000000114-0.0999999999999659-6-3-4.699999999999989-6.599999999999966z m150.8 140c-31.700000000000045 16.100000000000023-62.200000000000045 31.699999999999932-93.60000000000002 47.69999999999993-4.899999999999977 2.6000000000000227-11-0.8999999999999773-11-6.2999999999999545v-95.39999999999998c0-5.5 6-8.800000000000068 11-6.300000000000068 31 15.800000000000068 61.60000000000002 31.40000000000009 93.60000000000002 47.5 5.199999999999932 2.900000000000091 5.199999999999932 10.200000000000045 0 12.800000000000068z m22.100000000000023-172.40000000000003c-4.2000000000000455 11.900000000000034-8.400000000000091 23.80000000000001-12.400000000000091 35.69999999999999-0.6999999999999318 2.1000000000000227-1.2999999999999545 3.3000000000000114-4 3.3000000000000114-18-0.19999999999998863-36.09999999999991 0-53.99999999999994 0-0.4000000000000341 0-0.6000000000000227-0.19999999999998863-0.9000000000000341-0.19999999999998863-0.5999999999999659-0.19999999999998863 0.20000000000004547-3.1000000000000227 1.5-6.699999999999989 2.400000000000034-7.199999999999989 4.7000000000000455-14.199999999999989 7.300000000000011-21.19999999999999 1.6999999999999886-4.7000000000000455 2.400000000000034-11.200000000000045 5.800000000000011-13.700000000000045 3.5-2.3999999999999773 10-0.6999999999999886 15.299999999999955-0.6999999999999886h35c3.7000000000000455 0 6.7000000000000455 0.6999999999999886 6.7000000000000455 1.6000000000000227-0.20000000000004547 0.8999999999999773-0.20000000000004547 1.3999999999999773-0.2999999999999545 1.8999999999999773z m103.69999999999993 32.10000000000002c-0.10000000000002274 3.8999999999999773-3.1000000000000227 6.800000000000011-7.199999999999932 6.800000000000011h-58.80000000000007c-4 0-6-2.8000000000000114-4.899999999999977-6.5 3.5-9.800000000000011 6.899999999999977-19.600000000000023 10.200000000000045-29.30000000000001 1.2999999999999545-3.6999999999999886 5.5-6.5 9.299999999999955-6.5h44.299999999999955c4 0 7.100000000000023 3 7.100000000000023 6.899999999999977v28.600000000000023z m166.20000000000005-462.3h-665.8c-44.00000000000006 0-79.80000000000007 35.8-79.80000000000007 79.8v840.4000000000001c0 44 35.80000000000001 79.79999999999995 79.80000000000001 79.79999999999995h646.9000000000001c44 0 79.79999999999995-35.799999999999955 79.79999999999995-79.79999999999995v-859.2c0-33.8-27.299999999999955-61-60.89999999999998-61z m-7.5 556v364.20000000000005c0 6.2999999999999545-5.100000000000023 11.399999999999977-11.399999999999977 11.399999999999977h-646.9000000000001c-6.2999999999999545 0-11.399999999999949-5.100000000000023-11.399999999999949-11.399999999999977v-840.4000000000001c0-6.2999999999999545 5.099999999999994-11.399999999999949 11.400000000000006-11.399999999999949h489.09999999999997c13.5 0 35.5 10 44.200000000000045 20.19999999999999l16.100000000000023 18.400000000000006c10.299999999999955 11.900000000000006 20.399999999999977 23.599999999999994 30.699999999999932 35.400000000000006 13.700000000000045 15.799999999999983 27.399999999999977 31.799999999999983 40.89999999999998 47.599999999999994l17.90000000000009 20.900000000000006c10 11.5 19.399999999999977 36.900000000000006 19.399999999999977 52.099999999999994v293z"/>
</svg>
