<svg xmlns="http://www.w3.org/2000/svg" viewBox="0 0 1000 1000" width="1000" height="1000">
<path d="M842.1 0h-665.8c-44.00000000000006 0-79.80000000000007 35.8-79.80000000000007 79.8v840.4000000000001c0 44 35.80000000000001 79.79999999999995 79.80000000000001 79.79999999999995h646.9000000000001c44 0 79.79999999999995-35.799999999999955 79.79999999999995-79.79999999999995v-859.2c0-33.8-27.299999999999955-61-60.89999999999998-61z m-7.5 556v364.20000000000005c0 6.2999999999999545-5.100000000000023 11.399999999999977-11.399999999999977 11.399999999999977h-646.9000000000001c-6.2999999999999545 0-11.399999999999949-5.100000000000023-11.399999999999949-11.399999999999977v-840.4000000000001c0-6.2999999999999545 5.099999999999994-11.399999999999949 11.400000000000006-11.399999999999949h489.09999999999997c13.5 0 35.5 10 44.200000000000045 20.19999999999999l16.100000000000023 18.400000000000006c10.299999999999955 11.900000000000006 20.399999999999977 23.599999999999994 30.699999999999932 35.400000000000006 13.700000000000045 15.799999999999983 27.399999999999977 31.799999999999983 40.89999999999998 47.599999999999994l17.90000000000009 20.900000000000006c10 11.5 19.399999999999977 36.900000000000006 19.399999999999977 52.099999999999994v293z m-157.39999999999998-97.30000000000001c-27-50.099999999999966-75.90000000000009-84.69999999999999-132.5-94.89999999999998l34.299999999999955-14.699999999999989c7.399999999999977 6.7999999999999545 19 9.099999999999966 28.700000000000045 5.199999999999989 6.599999999999909-2.8000000000000114 11.899999999999977-8.199999999999989 14.5-14.900000000000034 2.599999999999909-6.5 2.5-13.5-0.40000000000009095-19.899999999999977-6.099999999999909-13-22.299999999999955-19-35.299999999999955-13.5-10.100000000000023 4.100000000000023-16.299999999999955 13.800000000000011-16.100000000000023 23.899999999999977l-73.39999999999998 30.400000000000034c-5 0.39999999999997726-10.199999999999989 0.8000000000000114-15.199999999999989 1.5l-12.5-27.100000000000023-85.10000000000002 35.69999999999999 12 25.5c-6.199999999999989 4.300000000000011-12.199999999999989 9.300000000000011-17.599999999999966 14.5l-72.60000000000002 30.200000000000045c-7.600000000000023-6.600000000000023-19.19999999999999-8.800000000000011-29.100000000000023-4.7000000000000455-13.5 5.7000000000000455-19.5 20.80000000000001-13.699999999999989 34.60000000000002 5.600000000000023 12.600000000000023 22.5 19.100000000000023 35.400000000000034 13.600000000000023 9.699999999999989-4 15.899999999999977-13.600000000000023 16-23.900000000000034l33.799999999999955-14.099999999999966c-30.399999999999977 46.19999999999999-37.5 104.89999999999998-18 157.60000000000002l-23.599999999999966 10 37.099999999999966 82.29999999999995 85-35.700000000000045-37.099999999999966-82.29999999999995-28 11.700000000000045c-19.900000000000034-57.30000000000007-1-121.40000000000003 47.39999999999998-160.60000000000002l11 23.5 84.30000000000001-35.700000000000045-9.300000000000011-22c60.50000000000006-4.599999999999966 119.19999999999999 26.5 147.90000000000003 77.10000000000002l-28.5 12.199999999999989 37.10000000000002 82.19999999999999 85-35.69999999999993-37.10000000000002-82.20000000000005-24.399999999999977 10.199999999999989z"/>
</svg>
