<svg xmlns="http://www.w3.org/2000/svg" viewBox="0 0 1000 1000" width="1000" height="1000">
<path d="M842.1 0h-665.8c-44.00000000000006 0-79.80000000000007 35.8-79.80000000000007 79.8v840.4000000000001c0 44 35.80000000000001 79.79999999999995 79.80000000000001 79.79999999999995h646.9000000000001c44 0 79.79999999999995-35.799999999999955 79.79999999999995-79.79999999999995v-859.2c0-33.8-27.299999999999955-61-60.89999999999998-61z m-7.5 556v364.20000000000005c0 6.2999999999999545-5.100000000000023 11.399999999999977-11.399999999999977 11.399999999999977h-646.9000000000001c-6.2999999999999545 0-11.399999999999949-5.100000000000023-11.399999999999949-11.399999999999977v-840.4000000000001c0-6.2999999999999545 5.099999999999994-11.399999999999949 11.400000000000006-11.399999999999949h489.09999999999997c13.5 0 35.5 10 44.200000000000045 20.19999999999999l16.100000000000023 18.400000000000006c10.299999999999955 11.900000000000006 20.399999999999977 23.599999999999994 30.699999999999932 35.400000000000006 13.700000000000045 15.799999999999983 27.399999999999977 31.799999999999983 40.89999999999998 47.599999999999994l17.90000000000009 20.900000000000006c10 11.5 19.399999999999977 36.900000000000006 19.399999999999977 52.099999999999994v293z m-294.6 21.100000000000023c-1.8999999999999773-1.1000000000000227-2.5-2.2000000000000455-2.3999999999999773-4.300000000000068 0.1999999999999318-5.399999999999977-0.10000000000002274-10.799999999999955 0.10000000000002274-16.09999999999991 0.09999999999990905-1.2000000000000455 1-2.900000000000091 2.099999999999909-3.6000000000000227 3.5-2.3999999999999773 7.300000000000068-4.399999999999977 11-6.5 7.600000000000023-4.399999999999977 15.200000000000045-8.800000000000068 23.300000000000068-13.5-3-8.600000000000023-6-17.100000000000023-8.800000000000068-25.700000000000045-1-3.099999999999966-2.699999999999932-3.5-5.699999999999932-3.1999999999999886-11.5 1.3000000000000114-23.100000000000023 2.3000000000000114-34.60000000000002 3.5-2.1000000000000227 0.19999999999998863-3.3999999999999773-0.39999999999997726-4.7000000000000455-2.3000000000000114-2.8999999999999773-4.399999999999977-6.199999999999932-8.5-9.399999999999977-12.599999999999966-1.1999999999999886-1.5-1.599999999999966-2.6999999999999886-0.5999999999999659-4.5 1.8000000000000114-3.6000000000000227 3.3000000000000114-7.300000000000011 4.900000000000034-11 3.599999999999909-8.100000000000023 7.199999999999932-16.19999999999999 11.099999999999909-24.900000000000034-8-5.5-15.899999999999977-10.899999999999977-23.599999999999966-16.299999999999955-1.8000000000000114-1.2000000000000455-2.8999999999999773-0.7000000000000455-4.399999999999977 0.5999999999999659l-27.100000000000023 23.600000000000023c-1.599999999999966 1.3999999999999773-2.8999999999999773 1.5-4.899999999999977 0.6999999999999886-4.900000000000034-1.8000000000000114-9.900000000000034-3.3999999999999773-15-4.699999999999989-2.3000000000000114-0.6000000000000227-3.3000000000000114-1.6999999999999886-3.900000000000034-4-2.599999999999966-12.300000000000011-5.5-24.400000000000034-8.299999999999955-37.10000000000002h-31.600000000000023c-2.8999999999999773 12.800000000000011-5.699999999999989 25.100000000000023-8.300000000000011 37.30000000000001-0.5 2.1999999999999886-1.599999999999966 3.1999999999999886-3.6999999999999886 3.6999999999999886-5 1.400000000000034-10.100000000000023 2.900000000000034-14.899999999999977 4.699999999999989-2.2000000000000455 0.8000000000000114-3.400000000000034 0.6000000000000227-5.2000000000000455-0.8999999999999773-9-7.899999999999977-18-15.699999999999989-27.099999999999966-23.5-0.8000000000000114-0.6999999999999886-2.900000000000034-1.1999999999999886-3.6000000000000227-0.6999999999999886-8.099999999999966 5.300000000000011-16.099999999999966 10.899999999999977-24.19999999999999 16.5 5.5 12.300000000000011 10.5 23.899999999999977 15.800000000000011 35.30000000000001 1.099999999999966 2.1999999999999886 0.6999999999999886 3.6999999999999886-0.8000000000000114 5.5-2.8000000000000114 3.3999999999999773-5.800000000000011 6.699999999999989-7.899999999999977 10.5-2.1000000000000227 3.6999999999999886-4.5 4.199999999999989-8.300000000000011 3.7999999999999545-11.300000000000011-1.2999999999999545-22.600000000000023-2.2999999999999545-33.80000000000001-3.2999999999999545-1.1000000000000227-0.10000000000002274-2.8999999999999773 0.5999999999999659-3.1000000000000227 1.3999999999999773-3.3999999999999773 9.100000000000023-6.5 18.200000000000045-9.699999999999989 27.299999999999955 1.6999999999999886 1.1000000000000227 2.6999999999999886 1.6000000000000227 3.6000000000000227 2.2000000000000455 10.099999999999966 5.7999999999999545 20.30000000000001 11.700000000000045 30.5 17.5 1.8999999999999773 1.1000000000000227 2.599999999999966 2.3999999999999773 2.599999999999966 4.600000000000023-0.19999999999998863 5.100000000000023-0.19999999999998863 10.299999999999955 0 15.399999999999977 0.10000000000002274 2.2999999999999545-0.5999999999999659 3.5-2.599999999999966 4.600000000000023-10.100000000000023 5.699999999999932-20.100000000000023 11.5-30.19999999999999 17.299999999999955-1.1000000000000227 0.6000000000000227-2.2000000000000455 1.3999999999999773-3.8000000000000114 2.3999999999999773 3 8.600000000000023 6 17.100000000000023 8.800000000000011 25.600000000000023 1 3.1000000000000227 2.7999999999999545 3.2000000000000455 5.5 3 11.5-1.1999999999999318 23.099999999999966-2.199999999999932 34.599999999999966-3.5 2.3000000000000114-0.1999999999999318 3.6999999999999886 0.39999999999997726 5 2.3999999999999773 2.6000000000000227 4 5.300000000000011 7.900000000000091 8.5 11.400000000000091 1.900000000000034 2.199999999999932 2.1999999999999886 4 1 6.699999999999932-5.199999999999989 11.300000000000068-10.099999999999966 22.600000000000023-15.5 34.60000000000002 8.100000000000023 5.5 16.100000000000023 11.100000000000023 24.19999999999999 16.5 0.7000000000000455 0.5 2.7000000000000455 0 3.6000000000000227-0.7000000000000455 9.100000000000023-7.699999999999932 18.19999999999999-15.5 27.100000000000023-23.5 1.6999999999999886-1.5 3-1.6999999999999318 5.199999999999989-0.8999999999999773 4.800000000000011 1.8000000000000682 9.599999999999966 3.300000000000068 14.599999999999966 4.600000000000023 2.400000000000034 0.6000000000000227 3.5 1.6000000000000227 4.100000000000023 4.2000000000000455 2.6000000000000227 12.299999999999955 5.5 24.399999999999977 8.300000000000011 37h31.5c2.8999999999999773-12.700000000000045 5.699999999999989-24.90000000000009 8.300000000000011-37.10000000000002 0.5-2.300000000000068 1.5-3.3999999999999773 3.8999999999999773-4 5-1.3000000000000682 10.100000000000023-2.8999999999999773 14.899999999999977-4.7000000000000455 2.2000000000000455-0.7999999999999545 3.5-0.39999999999997726 5.100000000000023 1 9 7.899999999999977 18 15.700000000000045 27.100000000000023 23.5 0.7999999999999545 0.7000000000000455 2.599999999999966 1.2000000000000455 3.2999999999999545 0.7000000000000455 8.200000000000045-5.399999999999977 16.300000000000068-11 24.399999999999977-16.5-5.5-12.399999999999977-10.599999999999909-24-15.899999999999977-35.5-1-2.1000000000000227-0.6999999999999886-3.3999999999999773 0.7000000000000455-5.2000000000000455 2.8999999999999773-3.5 6-6.899999999999977 8.100000000000023-10.799999999999955 2.099999999999909-3.800000000000068 4.699999999999932-4 8.299999999999955-3.6000000000000227 11.299999999999955 1.2999999999999545 22.600000000000023 2.3999999999999773 33.799999999999955 3.2999999999999545 1.1000000000000227 0.10000000000002274 2.800000000000068-0.8999999999999773 3.2000000000000455-1.8999999999999773 3.2999999999999545-8.899999999999977 6.2999999999999545-17.799999999999955 9.5-26.799999999999955-1.7999999999999545-1.1000000000000227-2.8999999999999773-1.8999999999999773-4-2.5-10-5.5-20-11.300000000000068-30-17z m-119.10000000000002 37c-26.599999999999966-0.7000000000000455-48.599999999999966-23.800000000000068-47.799999999999955-50.200000000000045 0.8999999999999773-27.799999999999955 23.69999999999999-48.69999999999993 52.599999999999966-48 26.69999999999999 0.6000000000000227 48.5 23.800000000000068 47.80000000000001 50.60000000000002-0.8000000000000114 27.299999999999955-24 48.299999999999955-52.60000000000002 47.60000000000002z m181-158c1.7000000000000455 8 3.5 15.899999999999977 5.399999999999977 24.099999999999966h20.5c1.900000000000091-8.300000000000011 3.7000000000000455-16.19999999999999 5.5-24.19999999999999 0.3000000000000682-1.5 1-2.1999999999999886 2.5-2.6000000000000227 3.300000000000068-0.8999999999999773 6.600000000000023-1.8999999999999773 9.800000000000068-3 1.3999999999999773-0.5999999999999659 2.199999999999932-0.2999999999999545 3.3999999999999773 0.6000000000000227 5.7999999999999545 5.199999999999989 11.799999999999955 10.300000000000011 17.700000000000045 15.300000000000011 0.5 0.39999999999997726 1.6999999999999318 0.6999999999999886 2.199999999999932 0.39999999999997726 5.300000000000068-3.5 10.600000000000023-7.199999999999989 15.899999999999977-10.800000000000011-3.599999999999909-8.099999999999966-6.899999999999977-15.699999999999989-10.299999999999955-23.099999999999966-0.6000000000000227-1.400000000000034-0.39999999999997726-2.1999999999999886 0.5-3.400000000000034 1.8999999999999773-2.1999999999999886 3.8999999999999773-4.5 5.2999999999999545-7 1.400000000000091-2.3999999999999773 3-2.599999999999966 5.5-2.3999999999999773 7.300000000000068 0.8999999999999773 14.700000000000045 1.5 22.100000000000023 2.1000000000000227 0.7000000000000455 0.0999999999999659 1.8999999999999773-0.6000000000000227 2.1000000000000227-1.2000000000000455 2.2000000000000455-5.7999999999999545 4.2000000000000455-11.599999999999966 6.2000000000000455-17.5-1.2000000000000455-0.6999999999999886-1.900000000000091-1.1999999999999886-2.6000000000000227-1.599999999999966-6.5-3.8000000000000114-13.100000000000023-7.5-19.700000000000045-11.300000000000011-1.1999999999999318-0.6999999999999886-1.6000000000000227-1.3999999999999773-1.6000000000000227-2.8000000000000114 0.10000000000002274-3.5-0.09999999999990905-7 0.10000000000002274-10.5 0.10000000000002274-0.8000000000000114 0.6000000000000227-1.8999999999999773 1.3000000000000682-2.3999999999999773 2.2999999999999545-1.6000000000000227 4.7999999999999545-2.900000000000034 7.199999999999932-4.199999999999989 4.899999999999977-2.900000000000034 9.899999999999977-5.7000000000000455 15.200000000000045-8.800000000000011-1.8999999999999773-5.699999999999989-3.8999999999999773-11.100000000000023-5.7000000000000455-16.69999999999999-0.6999999999999318-2.1000000000000227-1.7999999999999545-2.3000000000000114-3.699999999999932-2.1000000000000227-7.5 0.8999999999999773-15.100000000000023 1.5-22.5 2.1999999999999886-1.400000000000091 0.10000000000002274-2.2000000000000455-0.19999999999998863-3.1000000000000227-1.5-1.8999999999999773-2.8000000000000114-4-5.5-6.100000000000023-8.199999999999989-0.7000000000000455-1-1-1.6999999999999886-0.39999999999997726-2.8999999999999773 1.1999999999999318-2.400000000000034 2.199999999999932-4.800000000000011 3.199999999999932-7.2000000000000455 2.400000000000091-5.2999999999999545 4.7000000000000455-10.5 7.2000000000000455-16.19999999999999-5.2000000000000455-3.599999999999966-10.299999999999955-7.099999999999966-15.399999999999977-10.599999999999966-1.2000000000000455-0.8000000000000114-1.8999999999999773-0.4000000000000341-2.8999999999999773 0.39999999999997726l-17.600000000000023 15.399999999999977c-1.1000000000000227 0.9000000000000341-1.8999999999999773 1-3.2000000000000455 0.5-3.199999999999932-1.1999999999999886-6.5-2.1999999999999886-9.799999999999955-3-1.5-0.39999999999997726-2.2000000000000455-1.099999999999966-2.5-2.599999999999966-1.7000000000000455-8-3.5-15.900000000000034-5.399999999999977-24.100000000000023h-20.600000000000023c-1.8999999999999773 8.400000000000034-3.7000000000000455 16.400000000000034-5.5 24.30000000000001-0.3000000000000682 1.5-1 2.1000000000000227-2.3999999999999773 2.3999999999999773-3.300000000000068 0.9000000000000341-6.5 1.900000000000034-9.800000000000068 3-1.3999999999999773 0.5-2.199999999999932 0.4000000000000341-3.3999999999999773-0.5999999999999659-5.7999999999999545-5.199999999999989-11.799999999999955-10.300000000000011-17.700000000000045-15.300000000000011-0.599999999999909-0.39999999999997726-1.8999999999999773-0.6999999999999886-2.3999999999999773-0.39999999999997726-5.2999999999999545 3.5-10.5 7.099999999999966-15.699999999999932 10.699999999999989 3.5 8 6.7999999999999545 15.5 10.299999999999955 23 0.7000000000000455 1.5 0.39999999999997726 2.3999999999999773-0.5 3.5-1.8999999999999773 2.1999999999999886-3.7999999999999545 4.399999999999977-5.2000000000000455 6.800000000000011-1.2999999999999545 2.3999999999999773-2.8999999999999773 2.6999999999999886-5.399999999999977 2.3999999999999773-7.2999999999999545-0.8999999999999773-14.699999999999932-1.5-22.100000000000023-2.1999999999999886-0.6999999999999318-0.10000000000002274-1.8999999999999773 0.39999999999997726-2.099999999999909 0.8999999999999773-2.2000000000000455 6-4.300000000000068 12-6.300000000000068 17.900000000000034 1.1000000000000227 0.6999999999999886 1.7000000000000455 1.099999999999966 2.3999999999999773 1.3999999999999773l19.800000000000068 11.399999999999977c1.2999999999999545 0.7000000000000455 1.6999999999999318 1.5 1.6999999999999318 3-0.09999999999990905 3.400000000000034-0.09999999999990905 6.7000000000000455 0 10 0.10000000000002274 1.5-0.39999999999997726 2.3000000000000114-1.6999999999999318 3-6.600000000000023 3.7000000000000455-13.100000000000023 7.5-19.700000000000045 11.300000000000011-0.6999999999999318 0.4000000000000341-1.3999999999999773 0.9000000000000341-2.5 1.6000000000000227 1.8999999999999773 5.599999999999966 3.8999999999999773 11.099999999999966 5.7000000000000455 16.69999999999999 0.6000000000000227 2 1.7999999999999545 2.1000000000000227 3.5 1.8999999999999773 7.5-0.7999999999999545 15.100000000000023-1.5 22.5-2.1999999999999886 1.5-0.19999999999998863 2.3999999999999773 0.19999999999998863 3.2999999999999545 1.6000000000000227 1.7000000000000455 2.599999999999966 3.5 5.099999999999966 5.5 7.5 1.3000000000000682 1.5 1.3999999999999773 2.599999999999966 0.6000000000000227 4.399999999999977-3.3999999999999773 7.300000000000011-6.600000000000023 14.699999999999989-10.100000000000023 22.600000000000023 5.300000000000068 3.599999999999966 10.5 7.300000000000011 15.800000000000068 10.800000000000011 0.5 0.2999999999999545 1.7999999999999545 0 2.3999999999999773-0.4000000000000341 6-5 11.799999999999955-10.099999999999966 17.699999999999932-15.300000000000011 1.1000000000000227-1 1.900000000000091-1.099999999999966 3.400000000000091-0.5999999999999659 3.099999999999909 1.1999999999999886 6.2999999999999545 2.1999999999999886 9.5 3 1.599999999999909 0.5 2.2999999999999545 1.1999999999999886 2.699999999999932 2.8000000000000114z m-17-74.10000000000002c0.6000000000000227-18.100000000000023 15.399999999999977-31.69999999999999 34.200000000000045-31.30000000000001 17.399999999999977 0.4000000000000341 31.600000000000023 15.5 31.100000000000023 33-0.5 17.900000000000034-15.600000000000023 31.5-34.200000000000045 31-17.299999999999955-0.5-31.600000000000023-15.5-31.100000000000023-32.69999999999999z m126.39999999999998 183.20000000000005c1.6000000000000227-1.1000000000000227 3.400000000000091-2 5-2.900000000000091 3.400000000000091-2 6.900000000000091-4 10.600000000000023-6.099999999999909-1.3999999999999773-3.900000000000091-2.699999999999932-7.800000000000068-4-11.600000000000023-0.39999999999997726-1.3999999999999773-1.1999999999999318-1.6000000000000227-2.6000000000000227-1.3999999999999773-5.199999999999932 0.599999999999909-10.399999999999977 1.099999999999909-15.699999999999932 1.599999999999909-1 0.10000000000002274-1.6000000000000227-0.1999999999999318-2.2000000000000455-1.099999999999909-1.2999999999999545-2-2.7999999999999545-3.900000000000091-4.2999999999999545-5.7000000000000455-0.6000000000000227-0.7000000000000455-0.7000000000000455-1.2000000000000455-0.3000000000000682-2.1000000000000227 0.8000000000000682-1.6000000000000227 1.5-3.2999999999999545 2.2000000000000455-5 1.6000000000000227-3.699999999999932 3.2000000000000455-7.2999999999999545 5-11.299999999999955-3.7000000000000455-2.5-7.2000000000000455-4.899999999999977-10.799999999999955-7.399999999999977-0.7000000000000455-0.7000000000000455-1.2000000000000455-0.4000000000000341-1.900000000000091 0.1999999999999318l-12.299999999999955 10.700000000000045c-0.7000000000000455 0.6000000000000227-1.2999999999999545 0.6999999999999318-2.2000000000000455 0.39999999999997726-2.199999999999932-0.7999999999999545-4.5-1.5-6.7999999999999545-2.1000000000000227-1.1000000000000227-0.1999999999999318-1.5-0.6999999999999318-1.7000000000000455-1.7999999999999545-1.1999999999999318-5.5-2.5-11.100000000000023-3.7999999999999545-16.900000000000034h-14.399999999999977c-1.3000000000000682 5.800000000000011-2.6000000000000227 11.400000000000034-3.800000000000068 17.000000000000057-0.1999999999999318 1-0.6999999999999318 1.3999999999999773-1.6999999999999318 1.6999999999999318-2.300000000000068 0.6000000000000227-4.5 1.3000000000000682-6.800000000000068 2.1000000000000227-1 0.39999999999997726-1.599999999999909 0.20000000000004547-2.3999999999999773-0.39999999999997726-4-3.6000000000000227-8.199999999999932-7.2000000000000455-12.299999999999955-10.600000000000023-0.39999999999997726-0.2999999999999545-1.3000000000000682-0.6000000000000227-1.6000000000000227-0.2999999999999545-3.7000000000000455 2.3999999999999773-7.2999999999999545 5-11 7.5 2.5 5.599999999999909 4.7999999999999545 10.799999999999955 7.2000000000000455 16 0.5 1 0.2999999999999545 1.6999999999999318-0.40000000000009095 2.5-1.2999999999999545 1.5-2.599999999999909 3-3.599999999999909 4.7999999999999545-0.900000000000091 1.7000000000000455-2.1000000000000227 1.8999999999999773-3.7000000000000455 1.7000000000000455-5.100000000000023-0.6000000000000227-10.299999999999955-1.1000000000000227-15.399999999999977-1.5-0.5-0.10000000000002274-1.3000000000000682 0.2999999999999545-1.3999999999999773 0.599999999999909-1.6000000000000227 4.100000000000023-3 8.300000000000068-4.400000000000091 12.400000000000091 0.8000000000000682 0.5 1.2000000000000455 0.6999999999999318 1.6000000000000227 1l13.800000000000068 8c0.8999999999999773 0.5 1.1999999999999318 1.099999999999909 1.1999999999999318 2.099999999999909-0.10000000000002274 2.300000000000068-0.10000000000002274 4.7000000000000455 0 7 0.10000000000002274 1.1000000000000227-0.2999999999999545 1.6000000000000227-1.1999999999999318 2.1000000000000227-4.600000000000023 2.5-9.100000000000023 5.2000000000000455-13.700000000000045 7.800000000000068-0.5 0.2999999999999545-1 0.599999999999909-1.7000000000000455 1.099999999999909 1.400000000000091 3.900000000000091 2.7000000000000455 7.800000000000068 4 11.600000000000023 0.40000000000009095 1.3999999999999773 1.2000000000000455 1.5 2.5 1.3999999999999773l15.700000000000045-1.599999999999909c1.1000000000000227-0.10000000000002274 1.7000000000000455 0.1999999999999318 2.2999999999999545 1.099999999999909 1.2000000000000455 1.8000000000000682 2.400000000000091 3.5 3.900000000000091 5.2000000000000455 0.8999999999999773 1 1 1.7999999999999545 0.39999999999997726 3-2.3999999999999773 5.100000000000023-4.600000000000023 10.299999999999955-7 15.700000000000045l11 7.5c0.2999999999999545 0.1999999999999318 1.1999999999999318 0 1.6000000000000227-0.3000000000000682 4.199999999999932-3.5 8.299999999999955-7 12.299999999999955-10.600000000000023 0.7000000000000455-0.6999999999999318 1.3999999999999773-0.7999999999999545 2.3999999999999773-0.39999999999997726 2.2000000000000455 0.8000000000000682 4.399999999999977 1.5 6.7000000000000455 2.1000000000000227 1.1000000000000227 0.2999999999999545 1.6000000000000227 0.7000000000000455 1.8999999999999773 1.8999999999999773 1.2000000000000455 5.5 2.5 11.100000000000023 3.7999999999999545 16.800000000000068h14.300000000000068c1.2999999999999545-5.800000000000068 2.6000000000000227-11.300000000000068 3.7999999999999545-16.90000000000009 0.20000000000004547-1.099999999999909 0.7000000000000455-1.599999999999909 1.7000000000000455-1.8999999999999773 2.2999999999999545-0.6000000000000227 4.600000000000023-1.2999999999999545 6.7999999999999545-2.1000000000000227 1-0.39999999999997726 1.6000000000000227-0.1999999999999318 2.300000000000068 0.40000000000009095 4 3.599999999999909 8.199999999999932 7.199999999999932 12.299999999999955 10.599999999999909 0.39999999999997726 0.3000000000000682 1.2000000000000455 0.5 1.5 0.3000000000000682 3.7000000000000455-2.3999999999999773 7.399999999999977-5 11.100000000000023-7.5-2.5-5.7000000000000455-4.800000000000068-10.899999999999977-7.2000000000000455-16.100000000000023-0.39999999999997726-1-0.2999999999999545-1.6000000000000227 0.3000000000000682-2.3999999999999773 1.2999999999999545-1.6000000000000227 2.699999999999932-3.1000000000000227 3.699999999999932-4.899999999999977 0.8999999999999773-1.7000000000000455 2.1000000000000227-1.900000000000091 3.800000000000068-1.6000000000000227 5.099999999999909 0.6000000000000227 10.299999999999955 1.1000000000000227 15.399999999999977 1.5 0.5 0.10000000000002274 1.2999999999999545-0.39999999999997726 1.3999999999999773-0.8999999999999773 1.5-4 2.8999999999999773-8.100000000000023 4.2999999999999545-12.200000000000045-0.7999999999999545-0.5-1.2999999999999545-0.8999999999999773-1.7999999999999545-1.1000000000000227-4.399999999999977-2.699999999999932-9-5.399999999999977-13.5-8-0.7999999999999545-0.5-1.1000000000000227-1-1.1000000000000227-1.8999999999999773 0.10000000000002274-2.3999999999999773-0.10000000000002274-4.899999999999977 0.10000000000002274-7.2999999999999545-0.20000000000004547-0.40000000000009095 0.2999999999999545-1.1000000000000227 0.7999999999999545-1.5z m-54 27.699999999999932c-12.099999999999909-0.2999999999999545-22.09999999999991-10.799999999999955-21.699999999999932-22.799999999999955 0.39999999999997726-12.600000000000023 10.799999999999955-22.100000000000023 23.899999999999977-21.800000000000068 12.100000000000023 0.3000000000000682 22 10.800000000000068 21.700000000000045 23-0.40000000000009095 12.400000000000091-10.900000000000091 21.90000000000009-23.90000000000009 21.600000000000023z"/>
</svg>
