<svg xmlns="http://www.w3.org/2000/svg" viewBox="0 0 1000 1000" width="1000" height="1000">
<path d="M494.6 464.6c0.0999999999999659-30.600000000000023 0.0999999999999659-61.10000000000002 0.0999999999999659-91.60000000000002 0-12.399999999999977-7.099999999999966-16.600000000000023-18-10.600000000000023-38.099999999999966 21.100000000000023-76.19999999999999 42.30000000000001-114.30000000000001 63.30000000000001-3.3999999999999773 1.900000000000034-4.599999999999966 4-4.599999999999966 7.900000000000034 0.0999999999999659 22 0.0999999999999659 43.89999999999998 0.0999999999999659 65.89999999999998 0 22.600000000000023 0 45.299999999999955-0.0999999999999659 67.89999999999998 0 2.300000000000068 0.30000000000001137 3.800000000000068 2.599999999999966 5.100000000000023 39.10000000000002 20.899999999999977 78.10000000000002 42 117.30000000000001 62.89999999999998 9.600000000000023 5.2000000000000455 17 0.3000000000000682 17-10.699999999999932 0-29.90000000000009 0-59.80000000000007-0.0999999999999659-89.70000000000005 0-3.1000000000000227 0.7999999999999545-5.399999999999977 2.7999999999999545-7.7999999999999545 13.200000000000045-15.400000000000034 13.300000000000011-37.80000000000007 0.30000000000001137-53.400000000000034-2.3999999999999773-2.8000000000000114-3.099999999999966-5.600000000000023-3.099999999999966-9.199999999999989z m160.60000000000002-141.90000000000003c-1.8000000000000682-1.5-3-2.3999999999999773-5.100000000000023-0.19999999999998863-8.5 8.800000000000011-17.300000000000068 17.5-26.100000000000023 26.100000000000023-1.8999999999999773 1.8999999999999773-1.7000000000000455 2.7999999999999545 0.2999999999999545 4.399999999999977 5.300000000000068 4.300000000000011 10.400000000000091 8.800000000000011 15.100000000000023 13.699999999999989 44.5 46.10000000000002 62.30000000000007 101.10000000000002 52.700000000000045 164.2-7.100000000000023 46.89999999999998-30.100000000000023 85.39999999999998-66.60000000000002 115.80000000000007-2.2999999999999545 1.8999999999999773-2.6000000000000227 2.8999999999999773-0.2999999999999545 5.099999999999909 8.599999999999909 8.300000000000068 17.09999999999991 16.700000000000045 25.399999999999977 25.40000000000009 2.3999999999999773 2.5 3.6000000000000227 1.8999999999999773 5.7999999999999545 0 9.800000000000068-8.600000000000023 19.200000000000045-17.800000000000068 27.5-28 35.39999999999998-43.200000000000045 53.30000000000007-92.70000000000005 53.89999999999998-149.30000000000007-0.1999999999999318-30.299999999999955-6-60.19999999999999-17.899999999999977-88.79999999999995-14.5-34.700000000000045-36.19999999999993-64-64.69999999999993-88.40000000000003z m6.199999999999932 148.3c-7.5-39-26.399999999999977-71.39999999999998-56.799999999999955-97-2.6000000000000227-2.1999999999999886-4-1.8999999999999773-6.300000000000068 0.39999999999997726-7.899999999999977 8.100000000000023-15.899999999999977 16.200000000000045-24 23.900000000000034-2.7999999999999545 2.6999999999999886-3.099999999999909 3.8999999999999773 0.3000000000000682 6.699999999999989 37.89999999999998 31.399999999999977 52.799999999999955 71.60000000000002 43.89999999999998 119.89999999999998-5.2999999999999545 28.600000000000023-20.399999999999977 52.10000000000002-43.200000000000045 70.20000000000005-2.8999999999999773 2.2999999999999545-3.099999999999909 3.5-0.39999999999997726 6.100000000000023 7.800000000000068 7.5 15.600000000000023 15 22.899999999999977 23 3.6000000000000227 3.8999999999999773 5.800000000000068 3.699999999999932 9.5 0.39999999999997726 37-33.200000000000045 55.90000000000009-74.60000000000002 56.90000000000009-124.10000000000002-0.5-10-1-19.80000000000001-2.800000000000068-29.5z m-327.2-39.10000000000002h-51.89999999999998c-12.699999999999989 0.10000000000002274-20.600000000000023 8.300000000000011-20.600000000000023 21.200000000000045v94.60000000000002c0 11.699999999999932 8.400000000000034 20.299999999999955 20.100000000000023 20.399999999999977 17.5 0 34.89999999999998-0.10000000000002274 52.39999999999998 0 3.3000000000000114 0.10000000000002274 4.300000000000011-0.8000000000000682 4.300000000000011-4.2000000000000455-0.10000000000002274-21.199999999999932-0.10000000000002274-42.299999999999955-0.10000000000002274-63.5 0-21.299999999999955-0.0999999999999659-42.69999999999999 0.10000000000002274-64 0-3.599999999999966-0.8999999999999773-4.5-4.300000000000011-4.5z m217.50000000000006-5c-1.8000000000000682-1.3999999999999773-3.2000000000000455-2.7999999999999545-5.600000000000023-0.39999999999997726-8.700000000000045 9.100000000000023-17.700000000000045 17.899999999999977-26.700000000000045 26.80000000000001-2.1000000000000227 2-1.5 2.8000000000000114 0.7000000000000455 4.099999999999966 34 20.100000000000023 32.39999999999998 66.60000000000002 1 85.39999999999998-2.7000000000000455 1.6000000000000227-2.3999999999999773 2.6000000000000227-0.39999999999997726 4.5 8.5 8.400000000000091 17.09999999999991 16.800000000000068 25.299999999999955 25.40000000000009 2.6000000000000227 2.7999999999999545 4.2000000000000455 2.599999999999909 7 0.39999999999997726 22.600000000000023-18.700000000000045 34.299999999999955-42.60000000000002 35.200000000000045-73-0.5-29.5-12.600000000000023-54.30000000000001-36.5-73.20000000000005z m290.4-426.9h-665.8c-44.00000000000006 0-79.80000000000007 35.8-79.80000000000007 79.8v840.4000000000001c0 44 35.80000000000001 79.79999999999995 79.80000000000001 79.79999999999995h646.9000000000001c44 0 79.79999999999995-35.799999999999955 79.79999999999995-79.79999999999995v-859.2c0-33.8-27.299999999999955-61-60.89999999999998-61z m-7.5 556v364.20000000000005c0 6.2999999999999545-5.100000000000023 11.399999999999977-11.399999999999977 11.399999999999977h-646.9000000000001c-6.2999999999999545 0-11.399999999999949-5.100000000000023-11.399999999999949-11.399999999999977v-840.4000000000001c0-6.2999999999999545 5.099999999999994-11.399999999999949 11.400000000000006-11.399999999999949h489.09999999999997c13.5 0 35.5 10 44.200000000000045 20.19999999999999l16.100000000000023 18.400000000000006c10.299999999999955 11.900000000000006 20.399999999999977 23.599999999999994 30.699999999999932 35.400000000000006 13.700000000000045 15.799999999999983 27.399999999999977 31.799999999999983 40.89999999999998 47.599999999999994l17.90000000000009 20.900000000000006c10 11.5 19.399999999999977 36.900000000000006 19.399999999999977 52.099999999999994v293z"/>
</svg>
