<svg xmlns="http://www.w3.org/2000/svg" viewBox="0 0 1000 1000" width="1000" height="1000">
<path d="M368.7 586.4c51.400000000000034 18.200000000000045 104 20.899999999999977 157.09999999999997 8.899999999999977 46.10000000000002-10.399999999999977 87.30000000000007-30.09999999999991 117.60000000000002-67.09999999999991 30.700000000000045-37.400000000000034 38.39999999999998-78.90000000000003 17.800000000000068-123.70000000000005-13.800000000000068-30-37.30000000000007-51.39999999999998-65.60000000000002-67.80000000000001-41-23.80000000000001-85.70000000000005-33.89999999999998-140.10000000000002-33.89999999999998-18.100000000000023-0.30000000000001137-42.80000000000001 2.8999999999999773-67.10000000000002 9.599999999999966-42.5 11.700000000000045-79.79999999999995 31.600000000000023-108 65.90000000000003-33.99999999999997 41.39999999999998-36.89999999999998 94.59999999999997-6.899999999999977 138.8 23.100000000000023 34.299999999999955 56.60000000000002 55.5 95.19999999999999 69.29999999999995z m144.59999999999997-28.399999999999977c-13.599999999999966 14.299999999999955-31.299999999999955 19-50.49999999999994 19.600000000000023-18.69999999999999-0.5-35.900000000000034-4.899999999999977-49.5-18.200000000000045-15.699999999999989-15.199999999999932-15.5-36.10000000000002 0.19999999999998863-51.299999999999955 24.80000000000001-24.100000000000023 75.19999999999999-23.5 99.29999999999995 1.1999999999999886 14.200000000000045 14.400000000000034 14.5 33.99999999999994 0.5 48.69999999999999z m-66.09999999999997-105.69999999999999c0.19999999999998863-6 7-10.800000000000011 15.5-10.800000000000011 8.600000000000023 0.10000000000002274 15.300000000000011 4.800000000000011 15.300000000000011 10.899999999999977 0 6.2000000000000455-7.300000000000011 11.400000000000034-15.800000000000011 11.200000000000045-8.399999999999977-0.20000000000004547-15.099999999999966-5.2000000000000455-15-11.300000000000011z m176.90000000000003-27.19999999999999c17 14.5 18.199999999999932 36.799999999999955 2.199999999999932 52.5-13.799999999999955 13.5-31 18.099999999999966-48.89999999999998 18.5-17.299999999999955-0.20000000000004547-32.5-3.900000000000034-45.5-14-21.5-16.5-21.599999999999966-42.400000000000034-0.2999999999999545-59 25.299999999999955-19.700000000000045 68.10000000000002-18.80000000000001 92.5 2z m-204.5-84.90000000000003c23.299999999999955-16.899999999999977 63.39999999999998-16.69999999999999 86.59999999999997 0.5 24.000000000000057 17.80000000000001 23.099999999999966 45.900000000000034-2 62.30000000000001-12.5 8.199999999999989-26.399999999999977 11.800000000000011-41.80000000000001 11.600000000000023-14.299999999999955 0.2999999999999545-28-3.2000000000000455-40.5-11-26.099999999999966-16.400000000000034-27.099999999999966-45.30000000000001-2.2999999999999545-63.400000000000034z m-116.60000000000002 83.60000000000002c24.899999999999977-20.600000000000023 71.30000000000001-19.400000000000034 94.19999999999999 2.5 17.80000000000001 17 16.5 40.5-3.1999999999999886 55.5-13.300000000000011 10.099999999999966-28.5 14.199999999999989-45.10000000000002 14.300000000000011-16.19999999999999-0.10000000000002274-31.19999999999999-3.8000000000000114-44.299999999999955-13.400000000000034-22-16.30000000000001-22.700000000000045-41.39999999999998-1.6000000000000227-58.89999999999998z m431.79999999999995 150.09999999999997c-22-2.7999999999999545-44.09999999999991-1.8999999999999773-65.59999999999991 1.7000000000000455-36.90000000000009 6.199999999999932-73.60000000000002 13.399999999999977-110.10000000000002 21.399999999999977-26.800000000000068 5.899999999999977-53.400000000000034 13.5-81.10000000000002 14.600000000000023-44.69999999999999 1.7999999999999545-87.80000000000001-4.800000000000068-128.89999999999998-22.800000000000068-31.400000000000034-13.799999999999955-58.700000000000045-32.89999999999998-79.20000000000005-60.39999999999998-6-8.100000000000023-11-16.899999999999977-16.69999999999999-25.899999999999977-0.09999999999999432 2.1000000000000227-0.29999999999998295 3.8999999999999773-0.29999999999998295 5.899999999999977-0.09999999999999432 11.5 0.19999999999998863 23-0.09999999999999432 34.39999999999998-0.4000000000000057 15.300000000000068 1.8999999999999773 30 7.5 44.30000000000007 12.899999999999977 33 36.599999999999966 57 66.89999999999998 74.60000000000002 64.80000000000001 37.69999999999993 134.2 43.59999999999991 206.3 26.59999999999991 12.899999999999977-3.099999999999909 25.200000000000045-8.899999999999977 38.200000000000045-11.899999999999977 22.5-5.199999999999932 45.09999999999991-9.899999999999977 67.79999999999995-13.399999999999977 26.5-4.100000000000023 53.299999999999955-6.100000000000023 80.20000000000005-4.399999999999977 8.799999999999955 0.5 17.59999999999991 1.3999999999999773 27 2.199999999999932v-73.69999999999993c0-11.800000000000068 0-11.700000000000045-11.900000000000091-13.200000000000045z m-142.5999999999999 7.600000000000023c1.3999999999999773 0.20000000000004547 2.5 0.10000000000002274 3.599999999999909-0.20000000000004547 22.90000000000009-4 45.700000000000045-8.299999999999955 68.70000000000005-11.799999999999955 5-0.7999999999999545 6.7000000000000455-2.6000000000000227 6.7999999999999545-7 0.40000000000009095-12.5 0.8000000000000682-25.100000000000023 1-37.700000000000045 0.20000000000004547-7.5 0.10000000000002274-15.099999999999966 0.10000000000002274-22.599999999999966-17.799999999999955 35.400000000000034-46.10000000000002 60.099999999999966-80.19999999999993 79.30000000000001z m249.89999999999998-581.5h-665.8c-44.00000000000006 0-79.80000000000007 35.8-79.80000000000007 79.8v840.4000000000001c0 44 35.80000000000001 79.79999999999995 79.80000000000001 79.79999999999995h646.9000000000001c44 0 79.79999999999995-35.799999999999955 79.79999999999995-79.79999999999995v-859.2c0-33.8-27.299999999999955-61-60.89999999999998-61z m-7.5 556v364.20000000000005c0 6.2999999999999545-5.100000000000023 11.399999999999977-11.399999999999977 11.399999999999977h-646.9000000000001c-6.2999999999999545 0-11.399999999999949-5.100000000000023-11.399999999999949-11.399999999999977v-840.4000000000001c0-6.2999999999999545 5.099999999999994-11.399999999999949 11.400000000000006-11.399999999999949h489.09999999999997c13.5 0 35.5 10 44.200000000000045 20.19999999999999l16.100000000000023 18.400000000000006c10.299999999999955 11.900000000000006 20.399999999999977 23.599999999999994 30.699999999999932 35.400000000000006 13.700000000000045 15.799999999999983 27.399999999999977 31.799999999999983 40.89999999999998 47.599999999999994l17.90000000000009 20.900000000000006c10 11.5 19.399999999999977 36.900000000000006 19.399999999999977 52.099999999999994v293z"/>
</svg>
