<svg xmlns="http://www.w3.org/2000/svg" viewBox="0 0 1000 1000" width="1000" height="1000">
<path d="M734.8 245.9h-470.09999999999997c-3.599999999999966 0-5.800000000000011 2.1999999999999886-5.800000000000011 5.799999999999983v49c0 3.6000000000000227 2.2000000000000455 6.5 5.800000000000011 6.5h26.600000000000023c3.599999999999966 0 6.5 2.1999999999999886 6.5 5.800000000000011v290.79999999999995c0 2.900000000000091 2.1999999999999886 5.800000000000068 5.800000000000011 5.800000000000068h158.39999999999998c3.6000000000000227 0 5.800000000000011 2.199999999999932 5.800000000000011 5.7999999999999545v95c0 3.6000000000000227-2.1999999999999886 5.800000000000068-5.800000000000011 5.800000000000068h-40.30000000000001c-2.8999999999999773 0-5.800000000000011 2.8999999999999773-5.800000000000011 6.5v25.899999999999977c0 2.8999999999999773 2.900000000000034 5.7999999999999545 5.800000000000011 5.7999999999999545h156.2c2.8999999999999773 0 5.800000000000068-2.8999999999999773 5.800000000000068-5.7999999999999545v-25.899999999999977c0-3.6000000000000227-2.900000000000091-6.5-5.800000000000068-6.5h-40.299999999999955c-3.6000000000000227 0-5.800000000000068-2.2000000000000455-5.800000000000068-5.800000000000068v-95.69999999999993c0-2.900000000000091 2.2000000000000455-5.800000000000068 5.800000000000068-5.800000000000068h158.39999999999998c3.6000000000000227 0 6.5-2.199999999999932 6.5-5.7999999999999545v-291c0-2.900000000000034 2.2000000000000455-5.800000000000011 5.7999999999999545-5.800000000000011h26.600000000000023c3.6000000000000227 0 5.800000000000068-2.900000000000034 5.800000000000068-5.800000000000011v-48.900000000000006c-0.20000000000004547-3.5999999999999943-2.300000000000068-5.699999999999989-5.900000000000091-5.699999999999989z m-369.99999999999994 121.6c0-2.8999999999999773 2.8999999999999773-5.800000000000011 6.5-5.800000000000011h82.69999999999999c3.6000000000000227 0 5.800000000000011 2.900000000000034 5.800000000000011 5.800000000000011v85.69999999999999c0 3.6000000000000227-2.1999999999999886 5.800000000000011-5.800000000000011 5.800000000000011h-82.80000000000001c-3.599999999999966 0-6.5-2.1999999999999886-6.5-5.800000000000011v-85.69999999999999z m269.2 149.70000000000005c0 2.8999999999999773-2.8999999999999773 5.7999999999999545-5.7999999999999545 5.7999999999999545h-257.00000000000006c-3.599999999999966 0-6.5-2.8999999999999773-6.5-5.7999999999999545v-22.300000000000068c0-2.8999999999999773 2.900000000000034-5.7999999999999545 6.5-5.7999999999999545h257.00000000000006c2.8999999999999773 0 5.7999999999999545 2.8999999999999773 5.7999999999999545 5.7999999999999545v22.300000000000068z m0-64.00000000000006c0 3.6000000000000227-2.8999999999999773 5.800000000000011-5.7999999999999545 5.800000000000011h-127.40000000000003c-2.900000000000034 0-5.800000000000011-2.1999999999999886-5.800000000000011-5.800000000000011v-21.599999999999966c0-2.900000000000034 2.8999999999999773-5.800000000000011 5.800000000000011-5.800000000000011h127.40000000000003c2.8999999999999773 0 5.7999999999999545 2.8999999999999773 5.7999999999999545 5.800000000000011v21.599999999999966z m0-63.30000000000001c0 2.900000000000034-2.8999999999999773 5.800000000000011-5.7999999999999545 5.800000000000011h-127.40000000000003c-2.900000000000034 0-5.800000000000011-2.8999999999999773-5.800000000000011-5.800000000000011v-22.299999999999955c0-2.900000000000034 2.8999999999999773-5.800000000000011 5.800000000000011-5.800000000000011h127.40000000000003c2.8999999999999773 0 5.7999999999999545 2.8999999999999773 5.7999999999999545 5.800000000000011v22.299999999999955z m208.10000000000002-389.9h-665.8c-44.00000000000006 0-79.80000000000007 35.8-79.80000000000007 79.8v840.4000000000001c0 44 35.80000000000001 79.79999999999995 79.80000000000001 79.79999999999995h646.9000000000001c44 0 79.79999999999995-35.799999999999955 79.79999999999995-79.79999999999995v-859.2c0-33.8-27.299999999999955-61-60.89999999999998-61z m-7.5 556v364.20000000000005c0 6.2999999999999545-5.100000000000023 11.399999999999977-11.399999999999977 11.399999999999977h-646.9000000000001c-6.2999999999999545 0-11.399999999999949-5.100000000000023-11.399999999999949-11.399999999999977v-840.4000000000001c0-6.2999999999999545 5.099999999999994-11.399999999999949 11.400000000000006-11.399999999999949h489.09999999999997c13.5 0 35.5 10 44.200000000000045 20.19999999999999l16.100000000000023 18.400000000000006c10.299999999999955 11.900000000000006 20.399999999999977 23.599999999999994 30.699999999999932 35.400000000000006 13.700000000000045 15.799999999999983 27.399999999999977 31.799999999999983 40.89999999999998 47.599999999999994l17.90000000000009 20.900000000000006c10 11.5 19.399999999999977 36.900000000000006 19.399999999999977 52.099999999999994v293z"/>
</svg>
