<svg xmlns="http://www.w3.org/2000/svg" viewBox="0 0 1000 1000" width="1000" height="1000">
<path d="M500 298.9l-262.3 94.60000000000002 261.7 94.60000000000002 0.6000000000000227 0.5999999999999659 261.79999999999995-95.19999999999999-261.19999999999993-94.60000000000002h-0.6000000000000227z m0 261.20000000000005l-102.30000000000001-36.89999999999998-73.80000000000001 26.799999999999955 175.5 63 0.6000000000000227 0.6000000000000227 176.10000000000002-63.700000000000045-73.80000000000007-26.799999999999955-102.29999999999995 37z m0 87.39999999999998l-102.30000000000001-36.89999999999998-73.80000000000001 26.799999999999955 175.40000000000003 63.700000000000045h0.5999999999999659l176.10000000000002-63.700000000000045-73.79999999999995-26.799999999999955-102.20000000000005 36.89999999999998z m342.1-647.5h-665.8c-44.00000000000006 0-79.80000000000007 35.8-79.80000000000007 79.8v840.4000000000001c0 44 35.80000000000001 79.79999999999995 79.80000000000001 79.79999999999995h646.9000000000001c44 0 79.79999999999995-35.799999999999955 79.79999999999995-79.79999999999995v-859.2c0-33.8-27.299999999999955-61-60.89999999999998-61z m-7.5 556v364.20000000000005c0 6.2999999999999545-5.100000000000023 11.399999999999977-11.399999999999977 11.399999999999977h-646.9000000000001c-6.2999999999999545 0-11.399999999999949-5.100000000000023-11.399999999999949-11.399999999999977v-840.4000000000001c0-6.2999999999999545 5.099999999999994-11.399999999999949 11.400000000000006-11.399999999999949h489.09999999999997c13.5 0 35.5 10 44.200000000000045 20.19999999999999l16.100000000000023 18.400000000000006c10.299999999999955 11.900000000000006 20.399999999999977 23.599999999999994 30.699999999999932 35.400000000000006 13.700000000000045 15.799999999999983 27.399999999999977 31.799999999999983 40.89999999999998 47.599999999999994l17.90000000000009 20.900000000000006c10 11.5 19.399999999999977 36.900000000000006 19.399999999999977 52.099999999999994v293z"/>
</svg>
