<svg xmlns="http://www.w3.org/2000/svg" viewBox="0 0 1000 1000" width="1000" height="1000">
<path d="M586.7 0c8.599999999999909 6.5 17.5 12.6 25.799999999999955 19.4 35.5 28.9 51.39999999999998 64.5 33.700000000000045 109.29999999999998-17.100000000000023 43.20000000000002-50.5 65.5-96.70000000000005 61.70000000000002-46.80000000000001-3.8000000000000114-75.60000000000002-33.400000000000006-84.69999999999999-77.80000000000001-9.5-46.19999999999999 13.399999999999977-79.5 52.80000000000001-102.3 6.699999999999932-3.899999999999997 14-6.899999999999997 21.100000000000023-10.199999999999998l48-0.09999999999999964z m-259.20000000000005 436.4c7.300000000000011 4.600000000000023 11 8.600000000000023 15.300000000000011 9.5 109.5 22.700000000000045 158.7 100.30000000000007 185.7 200 7.899999999999977 29.100000000000023 22.299999999999955 56.39999999999998 33.200000000000045 84.70000000000005 10.399999999999977 26.799999999999955 17.399999999999977 56.10000000000002-15.200000000000045 70.60000000000002-33.60000000000002 15-49.80000000000001-13.600000000000023-62-37.30000000000007-25.399999999999977-49.69999999999993-49-100.39999999999998-71.19999999999999-151.60000000000002-11.800000000000011-27.09999999999991-29.100000000000023-42.799999999999955-58-51.09999999999991-50.5-14.600000000000023-100.9-30.800000000000068-149.5-50.60000000000002-60.30000000000001-24.5-77.20000000000002-73.60000000000002-41.70000000000002-127.5 48.400000000000006-73.5 106.79999999999998-139.50000000000003 168.1-202.8 24.100000000000023-24.900000000000006 52-28.400000000000006 83.10000000000002-14.5 107.90000000000003 48 215.90000000000003 95.69999999999999 323.8 143.59999999999997 21.199999999999932 9.400000000000034 36.10000000000002 24.80000000000001 26.799999999999955 48.700000000000045-9.5 24.599999999999966-29.600000000000023 30.399999999999977-55.299999999999955 21.799999999999955-77.10000000000002-25.899999999999977-154.89999999999998-49.69999999999999-231.60000000000002-76.5-21.399999999999977-7.5-36.30000000000001-6.399999999999977-50.60000000000002 11-33.19999999999999 40.60000000000002-66.89999999999998 80.90000000000003-100.89999999999998 122z m-134.7 180.30000000000007c104.39999999999998 0.39999999999997726 192 89.09999999999991 191 193.5s-90.30000000000001 191.39999999999998-194.70000000000002 189.69999999999993c-102.5-1.5-188.29999999999998-88.5-188.6-191-0.3-104.60000000000002 87.7-192.5 192.3-192.19999999999993z m115.5 192.5c0.6999999999999886-63-51.19999999999999-116.20000000000005-114.10000000000002-117-63.79999999999998-0.8000000000000682-116.89999999999999 49.89999999999998-118.19999999999999 112.89999999999998-1.4000000000000057 66 51.099999999999994 119.79999999999995 116.5 119.39999999999998 63.80000000000001-0.2999999999999545 115.10000000000002-51.39999999999998 115.80000000000001-115.29999999999995z m691.3-157.20000000000005c1.3000000000000682 104.39999999999998-85.99999999999989 193.29999999999995-190.4999999999999 194-104.5 0.6000000000000227-192.80000000000007-87.20000000000005-192.80000000000007-191.70000000000005 0-102.59999999999991 85.5-189.69999999999993 188.10000000000002-191.59999999999997 104.39999999999998-1.8999999999999773 194 85.00000000000006 195.20000000000005 189.3z m-75.39999999999986 2.5c0.2999999999999545-62.89999999999998-52-115.89999999999998-114.90000000000009-116.29999999999995-63.59999999999991-0.40000000000009095-116.39999999999998 50.799999999999955-117.39999999999998 113.69999999999993-1 65.89999999999998 51.80000000000007 119.39999999999998 117.30000000000007 118.60000000000002 63.799999999999955-0.7000000000000455 114.69999999999993-52.10000000000002 115-116z m-885.2-368.1c4.399999999999999-29.299999999999955 17.4-54.69999999999999 37.599999999999994-75.79999999999998 47.10000000000001-49.19999999999999 102.70000000000002-80.19999999999999 173.5-75 22.200000000000017 1.700000000000017 34.79999999999998 9.099999999999994 16.099999999999994 32.099999999999994-49.39999999999998 60.5-98.6 121-147.89999999999998 181.60000000000002-8.300000000000011 10.199999999999989-15.900000000000006 20.19999999999999-31.400000000000006 9.899999999999977-26.500000000000007-17.69999999999999-46.60000000000001-38.80000000000001-47.900000000000006-72.80000000000001z"/>
</svg>
