<svg xmlns="http://www.w3.org/2000/svg" viewBox="0 0 1000 1000" width="1000" height="1000">
<path d="M517.6 185.4c47.5 0 86-38.599999999999994 86-86 0-47.400000000000006-38.5-85.9-86-85.9-47.30000000000001 0-85.80000000000001 38.5-85.80000000000001 85.9 0 47.400000000000006 38.5 86 85.80000000000001 86z m-517.6 471.5l2.8 314.80000000000007 94.9-0.8000000000000682-2.799999999999997-314.9z m785.5-19.600000000000023l1.2000000000000455 130.20000000000005-165.80000000000007 1.5 0-425 210.5-216.3c14.300000000000068-14.299999999999983 14.300000000000068-37.29999999999998 0.10000000000002274-51.599999999999994-14-14.099999999999994-37-13.999999999999993-51.200000000000045 0-0.1999999999999318 0.4000000000000057-135.89999999999998 137.1-135.89999999999998 137.1h-263.5l-135.7-136.7c-14.399999999999977-14.399999999999999-37.39999999999998-14.5-51.5-0.4000000000000057-14.199999999999989 14.300000000000011-14.199999999999989 37.30000000000001 0 51.400000000000006 0.10000000000002274 0.20000000000000284 209.8 215.60000000000002 209.8 215.60000000000002l-0.10000000000002274 427.9-190.89999999999998 1.7000000000000455-1-117.80000000000007-94.9 0.8999999999999773 2.8000000000000114 314.80000000000007 94.9-0.8000000000000682-1.200000000000017-142.79999999999995 190.20000000000002-1.7000000000000455-0.10000000000002274 112.5c0 27.100000000000023 22 49 49.10000000000002 49 27 0 49-21.899999999999977 49-49l-0.10000000000002274-113.39999999999998 21.900000000000034-0.1999999999999318v114c0.6999999999999318 27 22.399999999999977 48.59999999999991 49.10000000000002 48.59999999999991 26.899999999999977 0 48.69999999999993-21.899999999999977 48.69999999999993-48.799999999999955v-114.60000000000002l166.30000000000007-1.6000000000000227 1.099999999999909 130.30000000000007 95-0.8000000000000682-2.8999999999999773-314.9-94.89999999999998 0.8999999999999773z m-164.60000000000002-316.4c0.6000000000000227-0.0999999999999659 0 3.1000000000000227 0 3.1000000000000227v-3.1000000000000227z m-119.69999999999999 449.20000000000005l0-229.80000000000007h21.900000000000034v229.60000000000002l-21.900000000000034 0.20000000000004547z m496.00000000000006-134.70000000000005l-94.90000000000009 0.8000000000000682 2.800000000000068 314.79999999999995 94.89999999999998-0.7999999999999545z"/>
</svg>
