<svg xmlns="http://www.w3.org/2000/svg" viewBox="0 0 1000 1000" width="1000" height="1000">
<path d="M251.7 502h39.80000000000001c9.100000000000023 0 16.5-7.399999999999977 16.5-16.5v-208.5c0-9.100000000000023-7.399999999999977-16.399999999999977-16.5-16.399999999999977h-39.80000000000001c-9.099999999999994 0-16.5 7.2999999999999545-16.5 16.399999999999977v208.5c0 9.100000000000023 7.400000000000006 16.5 16.5 16.5z m642.3-251h-39.89999999999998c-9 0-16.399999999999977 7.399999999999977-16.399999999999977 16.399999999999977v67c0 9.100000000000023-7.300000000000068 16.5-16.40000000000009 16.5h-407.4c-9.099999999999966 0-16.5-7.399999999999977-16.5-16.5v-57.39999999999998c0-9.100000000000023-7.2999999999999545-16.399999999999977-16.399999999999977-16.399999999999977h-39.89999999999998c-9.100000000000023 0-16.400000000000034 7.2999999999999545-16.400000000000034 16.399999999999977v208.5c0 9.100000000000023 7.300000000000011 16.5 16.400000000000034 16.5h39.89999999999998c9.100000000000023 0 16.399999999999977-7.399999999999977 16.399999999999977-16.5v-76.60000000000002c0-9 7.400000000000034-16.399999999999977 16.5-16.399999999999977h407.4c9.100000000000023 0 16.40000000000009 7.399999999999977 16.40000000000009 16.399999999999977v67.10000000000002c0 9 7.399999999999977 16.399999999999977 16.399999999999977 16.399999999999977h39.89999999999998c9.100000000000023 0 16.5-7.399999999999977 16.5-16.399999999999977v-208.60000000000002c0-9-7.399999999999977-16.399999999999977-16.5-16.399999999999977z m89.60000000000002 0h-39.89999999999998c-9.100000000000023 0-16.5 7.399999999999977-16.5 16.399999999999977v208.60000000000002c0 9 7.399999999999977 16.399999999999977 16.5 16.399999999999977h39.89999999999998c9 0 16.399999999999977-7.399999999999977 16.399999999999977-16.399999999999977v-208.60000000000002c0-9-7.399999999999977-16.399999999999977-16.399999999999977-16.399999999999977z m-927.4 256.7l-39.90000000000005 0.30000000000001137c-9.099999999999998 0.10000000000002274-16.4 7.5-16.299999999999997 16.600000000000023l1.9 208.60000000000002c0.10000000000000009 9 7.5 16.299999999999955 16.6 16.199999999999932l39.9-0.2999999999999545c9.100000000000001-0.10000000000002274 16.300000000000004-7.5 16.300000000000004-16.600000000000023l-1.9000000000000057-208.5c-0.09999999999999432-9.100000000000023-7.5-16.399999999999977-16.599999999999994-16.30000000000001z m602.3-15l-39.799999999999955 0.30000000000001137c-9.100000000000023 0.10000000000002274-16.40000000000009 7.5-16.300000000000068 16.600000000000023l0.6000000000000227 67c0.10000000000002274 9.100000000000023-7.2000000000000455 16.5-16.299999999999955 16.600000000000023l-407.40000000000003 3.599999999999909c-9.100000000000023 0.10000000000002274-16.5-7.199999999999932-16.600000000000023-16.199999999999932l-0.5-57.5c-0.09999999999999432-9-7.5-16.30000000000001-16.599999999999994-16.200000000000045l-39.8 0.30000000000001137c-9.099999999999994 0.10000000000002274-16.39999999999999 7.500000000000057-16.299999999999997 16.599999999999966l1.7999999999999972 208.60000000000002c0.10000000000000853 9.100000000000023 7.5 16.300000000000068 16.60000000000001 16.300000000000068l39.900000000000006-0.40000000000009095c9-0.09999999999990905 16.299999999999983-7.5 16.19999999999999-16.59999999999991l-0.5999999999999943-76.60000000000002c-0.09999999999999432-9.100000000000023 7.199999999999989-16.5 16.299999999999983-16.600000000000023l407.40000000000003-3.7000000000000455c9.100000000000023-0.09999999999990905 16.5 7.2000000000000455 16.600000000000023 16.300000000000068l0.5 67.10000000000002c0.09999999999990905 9 7.5 16.299999999999955 16.59999999999991 16.199999999999932l40-0.2999999999999545c9.100000000000023-0.10000000000002274 16.300000000000068-7.5 16.300000000000068-16.600000000000023l-2-208.5c-0.10000000000002274-9.100000000000023-7.5-16.399999999999977-16.600000000000023-16.30000000000001z m89.60000000000002-0.8000000000000114l-39.89999999999998 0.30000000000001137c-9.100000000000023 0.10000000000002274-16.40000000000009 7.5-16.300000000000068 16.600000000000023l1.8999999999999773 208.49999999999994c0.10000000000002274 9.100000000000023 7.5 16.40000000000009 16.600000000000023 16.300000000000068l39.80000000000007-0.3000000000000682c9.099999999999909-0.09999999999990905 16.399999999999977-7.5 16.299999999999955-16.59999999999991l-1.7999999999999545-208.50000000000006c-0.10000000000002274-9.099999999999966-7.5-16.399999999999977-16.600000000000023-16.30000000000001z"/>
</svg>
