<svg xmlns="http://www.w3.org/2000/svg" viewBox="0 0 1000 1000" width="1000" height="1000">
<path d="M507.7 176.6c48.69999999999999 0 88.30000000000001-39.69999999999999 88.30000000000001-88.39999999999999s-39.60000000000002-88.2-88.30000000000001-88.2c-48.69999999999999 0-88.30000000000001 39.5-88.30000000000001 88.3 0 48.7 39.60000000000002 88.3 88.30000000000001 88.3z m142.40000000000003 355.4l64 70.60000000000002 21.199999999999932-19.200000000000045-63.89999999999998-70.5-21.299999999999955 19.100000000000023z m173.60000000000002-162.2l26.399999999999977 29.19999999999999-36.60000000000002 33.19999999999999-153.70000000000005-212.5c-5.5-7.699999999999989-13.5-12.299999999999983-22.09999999999991-13.899999999999977 0-0.700000000000017-270.6-0.700000000000017-270.6-0.700000000000017-6.7000000000000455 3.9000000000000057-13.100000000000023 8.200000000000017-17.80000000000001 14.599999999999994l-156 215.7-40.5-35.799999999999955 23.599999999999994-26.700000000000045-21.599999999999994-18.899999999999977-62.900000000000006 71.30000000000001 21.5 19 28.599999999999994-32.30000000000001 43.30000000000001 38.30000000000001c-3.9000000000000057 13.899999999999977 0.799999999999983 29.30000000000001 13.099999999999994 38.19999999999999 10.400000000000006 7.5 23.5 8.399999999999977 34.5 3.6999999999999886l39.20000000000002 34.599999999999966-26.100000000000023 29.600000000000023 21.5 19 62.89999999999998-71.29999999999995-21.5-19-25.899999999999977 29.399999999999977-36.69999999999999-32.30000000000001 1.299999999999983-1.599999999999966 135.00000000000003-186.60000000000002 7.7999999999999545 44.69999999999999-0.2999999999999545 610.9000000000001c0 27.899999999999864 22.5 50.399999999999864 50.299999999999955 50.399999999999864 27.700000000000045 0 50.30000000000001-22.5 50.30000000000001-50.39999999999998v-408.30000000000007h22.500000000000057v408.80000000000007c0.6999999999999318 27.699999999999932 23 49.89999999999998 50.39999999999998 49.89999999999998 27.699999999999932 0 50.10000000000002-22.5 50.10000000000002-50.200000000000045v-610.3l9.099999999999909-50.60000000000002 138 190.90000000000003-39.39999999999998 35.69999999999999-23.899999999999977-26.399999999999977-21.200000000000045 19.19999999999999 63.90000000000009 70.49999999999994 21.299999999999955-19.199999999999932-29-32 40.700000000000045-36.900000000000034c11.5 6.300000000000011 26.09999999999991 6 37.5-2.3000000000000114 13.599999999999909-9.799999999999955 18-27.5 11.699999999999932-42.299999999999955l38.700000000000045-35.10000000000002 26.5 29.19999999999999 21.199999999999932-19.30000000000001-63.89999999999998-70.59999999999997-21.199999999999932 19.5z m-210-50.80000000000001v-3.1000000000000227c0.6999999999999318-0.19999999999998863 0 3.1000000000000227 0 3.1000000000000227z m257.4 7.800000000000011l-21.300000000000068 19.19999999999999 63.90000000000009 70.5 21.299999999999955-19.19999999999999-63.89999999999998-70.5z m-742.7 4l-62.89999999999998 71.39999999999998 21.5 18.900000000000034 62.900000000000006-71.30000000000001-21.5-19z m144.20000000000005 248.90000000000003l21.5 19 63-71.40000000000009-21.5-18.999999999999943-63 71.40000000000003z"/>
</svg>
