<svg xmlns="http://www.w3.org/2000/svg" viewBox="0 0 1000 1000" width="1000" height="1000">
<path d="M500.1 249.1c41.299999999999955 0 74.89999999999998-33.599999999999994 74.89999999999998-75 0-41.5-33.60000000000002-75.1-74.89999999999998-75.1-41.400000000000034 0-75.10000000000002 33.599999999999994-75.10000000000002 75.1 0 41.400000000000006 33.69999999999999 75 75.10000000000002 75z m-500.1 263.1h72.5v240.5h-72.5v-240.5z m843 74.89999999999998h-7c-39-61.700000000000045-198.39999999999998-313.8-198.39999999999998-313.8h-284.8s-141.10000000000002 215.5-187.9 286.99999999999994l-3.4000000000000057-71.99999999999994h-72.4v288.2h72.4v-132.89999999999998h123.5v214.60000000000002c0 23.699999999999932 19.19999999999999 42.799999999999955 42.80000000000001 42.799999999999955 23.599999999999966 0 42.69999999999999-19.100000000000023 42.69999999999999-42.799999999999955l0-214.60000000000002h249.10000000000002v214.60000000000002c0 23.699999999999932 19.199999999999932 42.799999999999955 42.69999999999993 42.799999999999955 23.700000000000045 0 42.80000000000007-19.100000000000023 42.80000000000007-42.799999999999955v-214.60000000000002h133.29999999999995v123.39999999999998h72.39999999999998v-288.2h-72.39999999999998l4.600000000000023 108.30000000000001z m-290.6 0h-109.09999999999997l56.69999999999999-23.700000000000045 52.39999999999998 23.700000000000045z m-316.7 0c43.400000000000034-65.80000000000007 164.7-250.40000000000003 164.7-250.40000000000003l-0.5 174.60000000000002-114.89999999999998 28.80000000000001v47.10000000000002h-49.30000000000001z m354.50000000000006-75.80000000000001l-0.3000000000000682-174.60000000000002c0.10000000000002274-0.0999999999999659 131.70000000000005 186.7 176.70000000000005 250.40000000000003h-61.5v-47l-114.89999999999998-28.900000000000034z m337.4-8.600000000000023h72.39999999999998v240.40000000000003h-72.39999999999998v-240.40000000000003z"/>
</svg>
