<svg xmlns="http://www.w3.org/2000/svg" viewBox="0 0 1000 1000" width="1000" height="1000">
<path d="M603 516.8c22.600000000000023-2.7999999999999545 46.10000000000002 1.7000000000000455 69.20000000000005 3.1000000000000227 6.5 0.39999999999997726 13 1.8000000000000682 19.5 1.8999999999999773 3 0.10000000000002274 5.899999999999977-1.8999999999999773 8.799999999999955-2.8999999999999773-1.7999999999999545-2.6000000000000227-3.2000000000000455-6.5-5.5-7.699999999999989-17.600000000000023-8.899999999999977-35.39999999999998-17.399999999999977-53.200000000000045-25.69999999999999-5.099999999999909-2.3999999999999773-10.5-3.8000000000000114-17.199999999999932-6.199999999999989 25.299999999999955-17 55.69999999999993-21.5 74.79999999999995-47l-0.6999999999999318-4c-16.600000000000023 1.8999999999999773-33.80000000000007 1.5-49.700000000000045 6-37.299999999999955 10.599999999999966-75.5 9.300000000000011-113.60000000000002 11.599999999999966-48.5 3-97.19999999999999 4.300000000000011-145.29999999999995 10-89.70000000000005 10.700000000000045-179.00000000000003 24-268.5 36.30000000000001-19.600000000000023 2.6999999999999886-39.10000000000002 6.400000000000034-59.200000000000024 9.699999999999989l9.100000000000001 81.5 10.200000000000003-1.1000000000000227c98.60000000000001-11 197.3-21 295.7-33.299999999999955 75.5-9.299999999999955 150.30000000000007-22.799999999999955 225.60000000000002-32.200000000000045z m157.79999999999995 60.700000000000045c-11.599999999999909-2.2000000000000455-23.09999999999991-4.5-37.299999999999955-7.2000000000000455 25-17.299999999999955 53.200000000000045-22.699999999999932 72.10000000000002-47.39999999999998-4.899999999999977 0.20000000000004547-10.200000000000045-0.8999999999999773-14.5 0.8000000000000682-47 19-95.60000000000002 20-145.39999999999998 16.5-27.100000000000023-1.900000000000091-54.60000000000002 2.7999999999999545-81.80000000000007 5.699999999999932-32.69999999999993 3.6000000000000227-65.29999999999995 8.600000000000023-97.89999999999998 12.899999999999977-95.10000000000002 12.400000000000091-190.2 24.700000000000045-285.2 37-1.6000000000000227 0.20000000000004547-3.1000000000000227 0.7000000000000455-6.200000000000017 1.400000000000091 2.5 22.199999999999932 4.900000000000006 43.5 7.200000000000017 64.79999999999995 0.8999999999999773 7.899999999999977 6.099999999999994 6.600000000000023 10.399999999999977 6.2000000000000455 27.900000000000006-2.300000000000068 55.900000000000006-4.2000000000000455 83.80000000000001-7.2000000000000455 83.69999999999999-9.100000000000023 167.5-17.700000000000045 251-28.399999999999977 57.5-7.399999999999977 114.70000000000005-17.300000000000068 171.89999999999998-27.300000000000068 26.5-4.599999999999909 52.5-1.8999999999999773 78.80000000000007 2.400000000000091 10.599999999999909 1.7999999999999545 21.5 0.6999999999999318 32.19999999999993 0.599999999999909 2.1000000000000227 0 4.2000000000000455-2 6.300000000000068-3.099999999999909-1.2000000000000455-2.400000000000091-1.900000000000091-5.300000000000068-3.7000000000000455-7-11.899999999999977-11.800000000000068-26.299999999999955-17.800000000000068-41.700000000000045-20.700000000000045z m-568.3-117.5c48.599999999999994-6.100000000000023 97-13.199999999999989 145.60000000000002-18.19999999999999 61.599999999999966-6.300000000000011 123.39999999999998-11.199999999999989 185.10000000000002-15.900000000000034 24.399999999999977-1.8999999999999773 48.89999999999998-1 73.29999999999995-2.7999999999999545 12.899999999999977-1 25.600000000000023-4.5 38.10000000000002-7.800000000000011 41.19999999999993-10.900000000000034 82.60000000000002-10.100000000000023 124.19999999999993 0.19999999999998863 3.2000000000000455 0.8000000000000114 6.400000000000091 1.5 9.600000000000023 2.1999999999999886 0.3000000000000682 0.10000000000002274 0.6000000000000227-0.19999999999998863 3.300000000000068-1-8-6.399999999999977-14.300000000000068-13.5-21.800000000000068-17.099999999999966-13.799999999999955-6.600000000000023-28.299999999999955-11-42.39999999999998-16.5-2.2000000000000455-0.8000000000000114-4.100000000000023-2.400000000000034-6.2000000000000455-3.7000000000000455 1.6000000000000227-1.8999999999999773 2.800000000000068-4.7999999999999545 4.800000000000068-5.5 16.799999999999955-6.2999999999999545 34-11.599999999999966 50.60000000000002-18.5 8.899999999999977-3.6999999999999886 17-10.099999999999966 25.199999999999932-15.699999999999989 1.5-1 1.8000000000000682-4 2.7000000000000455-6.099999999999966-1.6000000000000227-0.8000000000000114-3.3999999999999773-2.5-4.899999999999977-2.3000000000000114-18.800000000000068 1.1999999999999886-37.5 2.3000000000000114-56.200000000000045 4.099999999999966-25.600000000000023 2.5-51 6.2000000000000455-76.60000000000002 8.300000000000011l-100.5 6.900000000000034c-62.39999999999998 5.2999999999999545-124.89999999999998 9.5-187 17.19999999999999-63.39999999999998 7.800000000000011-126.29999999999998 19.19999999999999-189.39999999999998 29.099999999999966-8.599999999999994 1.400000000000034-17.19999999999999 2.900000000000034-26.599999999999994 4.5 2.5 22.100000000000023 4.699999999999989 42.30000000000001 7.099999999999994 63.60000000000002 14.199999999999989-1.8999999999999773 28.099999999999994-3.3000000000000114 42-5z m453 17.5c6.2000000000000455 3.8999999999999773 11.700000000000045 7.600000000000023 17.399999999999977 11.100000000000023 7.7000000000000455 4.7999999999999545 16.399999999999977 8.399999999999977 23.100000000000023 14.299999999999955 24.799999999999955 22 50.39999999999998 12.100000000000023 76.5 3.5-28.600000000000023-40.599999999999966-72.70000000000005-58.39999999999998-117-28.899999999999977z m113.29999999999995 86.20000000000005c16.600000000000023 8.399999999999977 35.40000000000009 14.199999999999932 49.30000000000007 25.899999999999977 15 12.600000000000023 28.199999999999932 15.100000000000023 45.39999999999998 8.5 8.700000000000045-3.3999999999999773 18.100000000000023-5.2000000000000455 29.399999999999977-8.300000000000068-27.600000000000023-19.199999999999932-54.39999999999998-34.19999999999993-85.5-39.69999999999993-16-2.800000000000068-27.5 6.7999999999999545-38.60000000000002 13.600000000000023z m47-146.70000000000005c13.900000000000091-1.8999999999999773 27.700000000000045-5.100000000000023 42.80000000000007-8-33.5-39-81.39999999999998-51.10000000000002-113.70000000000005-30 18.600000000000023 11.899999999999977 36.700000000000045 23.899999999999977 55.39999999999998 35 4.300000000000068 2.5 10.5 3.6999999999999886 15.5 3z m-28.299999999999955 81.80000000000001c8.200000000000045 1.599999999999966 18.600000000000023-7.199999999999989 28-11.699999999999989 7.7999999999999545-3.8000000000000114 15.600000000000023-7.7000000000000455 23.200000000000045-11.900000000000034 6.5-3.599999999999966 6.5-7.699999999999989-0.3000000000000682-10.800000000000011-12.600000000000023-5.599999999999966-25.299999999999955-10.799999999999955-38.19999999999993-15.799999999999955-2.1000000000000227-0.8000000000000114-5.800000000000068-0.20000000000004547-7.5 1.1999999999999886-9.700000000000045 8.199999999999989-19 16.80000000000001-28.40000000000009 25.30000000000001 0.7000000000000455 1.8999999999999773 0.7000000000000455 2.2999999999999545 1 2.5 7.2000000000000455 7.5 13.700000000000045 19.5 22.200000000000045 21.19999999999999z m100.10000000000002-100.90000000000003c2.3999999999999773-0.6999999999999886 5-1.2999999999999545 7.199999999999932-2.3999999999999773 11-5.5 22-11.100000000000023 34.90000000000009-17.69999999999999-15-7.900000000000034-28-15.100000000000023-41.40000000000009-21.400000000000034-2.2999999999999545-1.099999999999966-6.899999999999977 0.4000000000000341-9.299999999999955 2.3000000000000114-9 6.800000000000011-17.5 14.199999999999989-26.100000000000023 21.19999999999999 6.2000000000000455 15.800000000000011 19.300000000000068 22.5 34.700000000000045 18z m17.199999999999932 141.39999999999998c-1.599999999999909-0.39999999999997726-4.199999999999932 0.7000000000000455-5.699999999999932 2-7.5 6.600000000000023-14.899999999999977 13.600000000000023-22.100000000000023 20.300000000000068 0.7000000000000455 1.1000000000000227 0.7999999999999545 1.5 1.1000000000000227 1.6999999999999318 27.399999999999977 23.800000000000068 32.39999999999998 23.5 69.39999999999998-4.5-12.100000000000023-11.5-27.399999999999977-15.699999999999932-42.700000000000045-19.5z m-35.299999999999955-191.39999999999998c-18-5-34.700000000000045-9.799999999999955-51.39999999999998-14.099999999999966-2.1000000000000227-0.6000000000000227-5.600000000000023 0.6999999999999886-7.2000000000000455 2.3000000000000114-5.399999999999977 5.2999999999999545-10.299999999999955 11.199999999999989-15.299999999999955 16.899999999999977 27.199999999999932 24.399999999999977 51.19999999999993 23 73.89999999999998-5.100000000000023z m-92.10000000000002 98.80000000000001c0.39999999999997726-1.6999999999999886-2.699999999999932-5.800000000000011-4.7999999999999545-6.199999999999989-16.300000000000068-3.3999999999999773-32.60000000000002-7.600000000000023-49.10000000000002-8.399999999999977-5.7999999999999545-0.30000000000001137-12.100000000000023 8.199999999999989-20.799999999999955 14.599999999999966 16.59999999999991 6.699999999999989 29.199999999999932 12.100000000000023 42 16.900000000000034 7.599999999999909 2.7999999999999545 30.799999999999955-9.100000000000023 32.69999999999993-16.900000000000034z m110.60000000000002 85.19999999999999c-19.100000000000023-3.199999999999932-36.299999999999955-6.100000000000023-53.39999999999998-8.899999999999977-10.899999999999977-1.7999999999999545-15.800000000000068 5.100000000000023-20 15.5 14.5 4.7999999999999545 28.5 10.700000000000045 43.10000000000002 13.799999999999955 14.799999999999955 3.1000000000000227 21.09999999999991-9.899999999999977 30.299999999999955-20.399999999999977z"/>
</svg>
