<svg xmlns="http://www.w3.org/2000/svg" viewBox="0 0 1000 1000" width="1000" height="1000">
<path d="M897.1 208c-7-15.900000000000006-17.700000000000045-27.599999999999994-34.200000000000045-30.900000000000006-27.699999999999932-5.599999999999994-56.19999999999993-13.599999999999994-83.89999999999998-12-60.200000000000045 3.4000000000000057-120.79999999999995 8.400000000000006-180 19.5-139.3 26-272.7 70.70000000000002-398.1 137.6-40.99999999999997 21.80000000000001-79.89999999999998 46.69999999999999-112.59999999999998 80.5-21.39999999999999 22.100000000000023-32.8 47-21.099999999999994 77.40000000000003 16.700000000000003 43 29.799999999999997 88.10000000000002 52.7 127.60000000000002 84.29999999999998 145 211.49999999999997 221.39999999999998 386.4 227.0999999999999 19.40000000000009-2.2999999999999545 44.90000000000009-4.099999999999909 69.90000000000009-8.399999999999977 271.4-46.799999999999955 444-338.5 320.9-618.4z m-440.70000000000005 524.8c-24.099999999999966 0-43.599999999999966-19.5-43.599999999999966-43.5 0-24.09999999999991 19.5-43.59999999999991 43.599999999999966-43.59999999999991 24 0 43.5 19.5 43.5 43.59999999999991 0.10000000000002274 24-19.399999999999977 43.5-43.5 43.5z m171.30000000000007-52.39999999999998c-19.200000000000045 0-34.700000000000045-15.5-34.700000000000045-34.69999999999993 0-19.200000000000045 15.5-34.700000000000045 34.700000000000045-34.700000000000045 19.199999999999932 0 34.69999999999993 15.5 34.69999999999993 34.700000000000045 0 19.199999999999932-15.600000000000023 34.69999999999993-34.69999999999993 34.69999999999993z m245.79999999999995-436.29999999999995c-16.799999999999955 19.599999999999966-35.200000000000045 38.89999999999998-56.10000000000002 53.799999999999955-84.89999999999998 60.5-181 98.40000000000003-279.4 130.40000000000003-111.5 36.30000000000001-225.10000000000002 62.30000000000001-343.5 69.09999999999997-28.5-4.899999999999977-57.5-8-85.4-15.399999999999977-24-6.399999999999977-31.5-30-14.899999999999991-48.69999999999999 19.099999999999994-21.5 40.499999999999986-42.10000000000002 64.2-58.10000000000002 97-65.19999999999999 205.6-104.69999999999999 316.79999999999995-137.7 83.20000000000005-24.5 167.80000000000007-43.5 254.60000000000002-48.5 37-2.1999999999999886 74.40000000000009 2.9000000000000057 111.60000000000002 5.5 6.800000000000068 0.4000000000000057 13.700000000000045 3.6999999999999886 20 6.900000000000006 17.300000000000068 8.699999999999989 24.399999999999977 28.299999999999983 12.100000000000023 42.69999999999999z m-87.39999999999998-35.70000000000002c-14.100000000000023-3.700000000000017-29.300000000000068-3.5-51.10000000000002-5.800000000000011-33.200000000000045 5-73.29999999999995 9.300000000000011-112.70000000000005 17.30000000000001-134.49999999999994 27.5-264.9 68.4-388.29999999999995 129.20000000000002-26.80000000000001 13.199999999999989-51.900000000000006 31.19999999999999-74.6 50.69999999999999-21.200000000000017 18.30000000000001-14.800000000000011 40.39999999999998 12.699999999999989 44.5 26 3.8999999999999773 53.30000000000001 4.300000000000011 79.6 1.3999999999999773 100.60000000000002-10.899999999999977 198.3-36.099999999999966 293.2-70.39999999999998 68.89999999999998-24.900000000000034 135.89999999999998-55.30000000000001 202.80000000000007-85.5 18.899999999999977-8.600000000000023 36-23.19999999999999 51-38 18.299999999999955-18.200000000000017 12.5-36.900000000000006-12.600000000000023-43.400000000000006z m-18.5 47.099999999999994c-57.200000000000045 39.30000000000001-121.10000000000002 64.69999999999999-185.70000000000005 88.10000000000002-99.89999999999998 36.19999999999999-201.7 65.5-306.9 80.69999999999999-27.5 4-55.5 4.399999999999977-83.30000000000001 5.399999999999977-8.299999999999983 0.30000000000001137-16.69999999999999-3.3000000000000114-25.099999999999994-5.099999999999966l-2.4000000000000057-6c11.400000000000006-9.400000000000034 21.600000000000023-21.5 34.5-27.80000000000001 58-28.100000000000023 115.5-57.69999999999999 175.5-80.80000000000001 99-38.10000000000002 201.3-66.1 306.50000000000006-81.5 28-4.099999999999994 56.69999999999993-4.199999999999989 85.09999999999991-5.099999999999994 8.200000000000045-0.20000000000001705 16.600000000000023 3.5 30.700000000000045 6.699999999999989-12.5 11.099999999999994-20 19.30000000000001-28.899999999999977 25.400000000000006z"/>
</svg>
