<svg xmlns="http://www.w3.org/2000/svg" viewBox="0 0 1000 1000" width="1000" height="1000">
<path d="M581.4 781.8c35.30000000000007-0.2999999999999545 70.5-0.09999999999990905 105.80000000000007-0.09999999999990905l52.299999999999955-0.10000000000002274s34.89999999999998 0 52.299999999999955 0.2999999999999545c7.800000000000068 0.10000000000002274 12.600000000000023-2.3999999999999773 16.40000000000009-9 27.09999999999991-46.10000000000002 28.299999999999955-93 4.699999999999932-140.79999999999995-9.399999999999977-18.899999999999977-21.299999999999955-37-27.600000000000023-56.89999999999998-7.7999999999999545-24.40000000000009-12.699999999999932-50-15.899999999999977-75.60000000000002-6.2999999999999545-48.700000000000045-5.600000000000023-97.60000000000002 4.7000000000000455-145.8 3.1000000000000227-14.600000000000023 9.100000000000023-28.69999999999999 12.899999999999977-43.19999999999999 3.8999999999999773-14.5 0.7999999999999545-18.200000000000045-14-18.200000000000045h-171.5c-15 0-18.5 4.5-14.200000000000045 19.200000000000045 2.900000000000091 9.599999999999966 7.2000000000000455 18.799999999999955 9.800000000000068 28.399999999999977 9.199999999999932 33.5 11.5 67.89999999999998 11.100000000000023 102.5-0.900000000000091 65.60000000000002-9.600000000000023 128.60000000000002-44.80000000000007 187-28.199999999999932 46.700000000000045-25.5 96.70000000000005 3.1000000000000227 144.20000000000005 3.7000000000000455 6 8 8.199999999999932 14.899999999999977 8.099999999999909z m-342.5-301.79999999999995c28.80000000000001 0.6000000000000227 57.60000000000002 0.39999999999997726 86.40000000000003 0.39999999999997726 29.5 0 59.099999999999966 0.30000000000001137 88.5-0.2999999999999545 4.099999999999966-0.10000000000002274 9.5-2.900000000000034 12-6.2000000000000455 18.80000000000001-25.19999999999999 17.69999999999999-55.89999999999998-2.400000000000034-80.39999999999998-42.599999999999966-52.19999999999999-145.79999999999995-54.69999999999999-191.09999999999997-4.600000000000023-23.400000000000006 25.900000000000034-26.100000000000023 57.700000000000045-6.400000000000006 84.60000000000002 2.5999999999999943 3.6000000000000227 8.5 6.5 13 6.5z m361.30000000000007-243.5c21.59999999999991-0.30000000000001137 43.09999999999991-0.19999999999998863 64.69999999999993-0.19999999999998863h43.200000000000045c21.600000000000023-0.10000000000002274 43.10000000000002-0.10000000000002274 64.69999999999993 0.19999999999998863 7.900000000000091 0.09999999999999432 12.300000000000068-2.6999999999999886 16.40000000000009-9.099999999999994 19.09999999999991-29.700000000000017 12.899999999999977-65.20000000000002-16.100000000000023-89.5-43.700000000000045-36.900000000000006-120.89999999999998-38.80000000000001-166.89999999999998-4.200000000000017-33.90000000000009 25.600000000000023-41.700000000000045 63.60000000000002-20 95.4 3.699999999999932 5.400000000000006 7.5 7.400000000000006 14 7.400000000000006z m-156.90000000000003 470.9c-9.400000000000034-40.19999999999993-16.5-81-12.300000000000011-122.69999999999993l6.199999999999989-30.40000000000009c1.3000000000000114-12.799999999999955-4-18-16.69999999999999-18.09999999999991-63-0.10000000000002274-125.89999999999998-0.10000000000002274-188.9 0-12.900000000000006 0-17.400000000000006 4.7999999999999545-16.799999999999983 17.899999999999977 0.29999999999998295 5.2999999999999545 2.0999999999999943 10.5 2.799999999999983 15.799999999999955 1.700000000000017 12 4.599999999999994 24.100000000000023 4.5 36-1 46.89999999999998-9.699999999999989 92.70000000000005-22 137.89999999999998-8.699999999999989 32.200000000000045-19.599999999999994 63.80000000000007-26.900000000000006 96.20000000000005-6.599999999999994 28.799999999999955-4.299999999999983 57.700000000000045 8.600000000000023 85.29999999999995 3.8999999999999773 8.5 9 12.100000000000023 18.899999999999977 12 41.70000000000002-0.599999999999909 83.5-0.2999999999999545 125.19999999999999-0.2999999999999545h118.70000000000005c20.69999999999999 0 22.19999999999999-0.8999999999999773 29.299999999999955-20.600000000000023 11.400000000000034-31.600000000000023 9.400000000000034-63.60000000000002 1-95.39999999999998-10.099999999999966-37.799999999999955-22.599999999999966-75.29999999999995-31.599999999999966-113.60000000000002z m16 196.30000000000007c-2.900000000000034 11.5-7.800000000000011 15.799999999999955-20.400000000000034 15.699999999999932-76.19999999999999-0.6999999999999318-152.5-0.5-228.7-0.10000000000002274-9.799999999999983 0.10000000000002274-14.099999999999994-3.2999999999999545-16.399999999999977-12.199999999999932-9.100000000000023-33.5-5.400000000000006-66.20000000000005 5.699999999999989-98.39999999999998 18.19999999999999-52.80000000000007 31.5-106.60000000000002 38-162 3.5999999999999943-30.800000000000068 6.300000000000011-61.5-5.400000000000006-92.20000000000005h185.70000000000002c-15.800000000000011 84.70000000000005 7.199999999999989 164.29999999999995 31.80000000000001 243.5 10.5 34.799999999999955 18.899999999999977 69.10000000000002 9.699999999999989 105.70000000000005z m322.99999999999994-66.60000000000002c-63.59999999999991-0.3000000000000682-127.19999999999993-0.39999999999997726-190.79999999999995 0.10000000000002274-3.7999999999999545 0-8.899999999999977 2.7999999999999545-11.399999999999977 5.899999999999977-19.700000000000045 25.199999999999932-20.100000000000023 56.89999999999998-2 83.10000000000002 3.7999999999999545 5.399999999999977 8 8 15 7.899999999999977 15.699999999999932-0.20000000000004547 31.199999999999932-0.3000000000000682 46.89999999999998-0.3000000000000682l46.89999999999998 0.10000000000002274h23.700000000000045c23.699999999999932 0 47.39999999999998 0 71.10000000000002-0.1999999999999318 3.7999999999999545 0 8.799999999999955-1.3000000000000682 11.199999999999932-3.800000000000068 21.5-23.799999999999955 21.600000000000023-64.10000000000002 0.39999999999997726-88-2.3999999999999773-2.7999999999999545-7.199999999999932-4.7999999999999545-11-4.7999999999999545z m-2.599999999999909-41.200000000000045h-122c-22.300000000000068 0-44.60000000000002 0.10000000000002274-66.90000000000009 0-9 0-14.799999999999955 3.8999999999999773-15 13.100000000000023-0.1999999999999318 9.299999999999955 5.800000000000068 13.399999999999977 14.5 13.600000000000023 2.1000000000000227 0.10000000000002274 4.300000000000068 0 6.5 0h180.20000000000005c3.6000000000000227 0 7.2000000000000455 0 10.799999999999955-0.5 7.2000000000000455-1 10.300000000000068-5.600000000000023 10.600000000000023-12.700000000000045 0.20000000000004547-7.2999999999999545-3.5-11.5-10.100000000000023-13.299999999999955-2.7999999999999545-0.5-5.699999999999932-0.20000000000004547-8.599999999999909-0.20000000000004547z m-548.2-300.7c-12.099999999999994 0-16.80000000000001 3.8000000000000114-16.80000000000001 13s5 13.099999999999966 16.900000000000006 13.099999999999966h188.79999999999998c11.800000000000011 0 17-4 17-13.099999999999966 0-8.899999999999977-5.199999999999989-13-17.099999999999966-13h-188.8z m551.3-244c-31.699999999999932 0.10000000000002274-63.299999999999955 0.10000000000002274-94.89999999999998 0.10000000000002274h-97.10000000000002c-8.899999999999977 0-14.899999999999977 3.6999999999999886-15 12.899999999999977-0.1999999999999318 9.199999999999989 5.400000000000091 13.600000000000023 14.400000000000091 13.600000000000023 64.69999999999993 0 129.39999999999998 0.0999999999999659 194.19999999999993-0.10000000000002274 10.5 0 16.300000000000068-7.699999999999989 13.600000000000023-17.099999999999966-2.2000000000000455-7.400000000000034-8-9.500000000000028-15.200000000000045-9.400000000000034z m-108.39999999999998-152c8.5-0.6999999999999886 17.100000000000023-0.5999999999999943 25.600000000000023 1.4210854715202004e-14 10.100000000000023 0.7999999999999972 17.5-5 17.799999999999955-15.600000000000009-0.2999999999999545-1-0.599999999999909-2.6999999999999886-1.1999999999999318-4.3999999999999915-3.300000000000068-9.700000000000003-14.800000000000068-16.400000000000006-28.700000000000045-16.700000000000003-13.100000000000023-0.29999999999999716-26.299999999999955 6.599999999999994-29.699999999999932 15.5-4.600000000000023 11.700000000000003 3.7999999999999545 22.200000000000003 16.199999999999932 21.200000000000003z m-262.2 641.5c-4.5-16.40000000000009-6.5-33.60000000000002-9.699999999999989-51.10000000000002-49.69999999999999 0-99-0.10000000000002274-148.2 0.2999999999999545-2.3000000000000114 0-6.100000000000023 3.800000000000068-6.5 6.100000000000023-5.300000000000011 41.799999999999955-16.900000000000006 82-31.600000000000023 121.5-9 24.399999999999977-11.799999999999983 49.5-2.5 74.79999999999995 2.9000000000000057 7.900000000000091 7.100000000000023 11.5 16.5 11.5 62.900000000000034-0.5 125.90000000000003-0.7999999999999545 188.7 0.10000000000002274 12.700000000000045 0.20000000000004547 17.100000000000023-5.199999999999932 20.400000000000034-15.399999999999977 8.099999999999966-25.299999999999955 3.1999999999999886-49.60000000000002-4.600000000000023-73.79999999999995-7.699999999999989-24.600000000000023-15.899999999999977-49.10000000000002-22.5-74z"/>
</svg>
