<svg xmlns="http://www.w3.org/2000/svg" viewBox="0 0 1000 1000" width="1000" height="1000">
<path d="M920.1 489.7c-29.800000000000068-38.099999999999966-58.89999999999998-77.09999999999997-87.60000000000002-116.39999999999998-13.299999999999955-18.19999999999999-26.799999999999955-35.80000000000001-46.299999999999955-43.5-25.300000000000068-10-51-17.80000000000001-78.40000000000009-27.19999999999999 2.1000000000000227 14.099999999999966 3.900000000000091 25.299999999999955 5.300000000000068 36.5 1.2999999999999545 10.899999999999977 2.699999999999932 21.799999999999955 3.2999999999999545 32.799999999999955 0.5 11 0 22 0 33-1.1000000000000227 0.10000000000002274-2.1000000000000227 0.20000000000004547-3.2999999999999545 0.30000000000001137-0.8999999999999773-6.800000000000011-2.1000000000000227-13.5-2.6000000000000227-20.399999999999977-1.7000000000000455-25.5-7.2999999999999545-49.5-16.700000000000045-72.40000000000003-4.5-11.099999999999966-11.599999999999909-17.599999999999966-21.59999999999991-20.799999999999955-105-32.700000000000045-211.10000000000002-44.50000000000003-318.70000000000005-21.80000000000001-19.80000000000001 4.199999999999989-39.19999999999999 10.300000000000011-59.80000000000001 15.800000000000011 10.100000000000023 35.599999999999966 17.19999999999999 69.09999999999997 16.400000000000034 104.29999999999995-2.1000000000000227-5.399999999999977-3.5-11-5.100000000000023-16.5-6.600000000000023-23-13.100000000000023-46.19999999999999-20.30000000000001-69-3.3999999999999773-10.899999999999977-10.300000000000011-17.899999999999977-21-15.399999999999977-58.79999999999998 13.399999999999977-99.6 55.30000000000001-130.39999999999998 114.10000000000002 16.599999999999994 23.299999999999955 20.799999999999983 49.5 15.899999999999977 78.5-1.5-7.600000000000023-2-15.600000000000023-4.599999999999994-22.600000000000023-4.400000000000006-12-9.5-23.899999999999977-15.5-34.89999999999998-3.799999999999997-7-9.899999999999991-7.2000000000000455-14.899999999999991-0.30000000000001137-12.600000000000009 17.69999999999999-27 34.099999999999966-37.5 53.5-24.1 45.099999999999966-17.700000000000003 90.49999999999994 20 119.49999999999994 32.60000000000001 25.200000000000045 68.10000000000001 45.40000000000009 103.2 65.60000000000002 11.799999999999983 6.800000000000068 26.299999999999983 8.600000000000023 39.599999999999994 9.600000000000023 49.80000000000001 4.100000000000023 99.5 6.2000000000000455 149.3 10.200000000000045 29.599999999999966 2.3999999999999773 58.599999999999966 10.299999999999955 84.80000000000001 27.299999999999955 48.799999999999955 31.700000000000045 100.89999999999998 38.60000000000002 154.60000000000002 28.299999999999955 40.19999999999993-7.699999999999932 79.79999999999995-19.799999999999955 119.69999999999993-30.09999999999991 19.100000000000023-4.900000000000091 38.10000000000002-11.100000000000023 57.30000000000007-14.900000000000091 62.69999999999993-12.5 102.19999999999993-57.59999999999991 126.39999999999998-125 10.600000000000023-29.09999999999991 6.899999999999977-54.39999999999998-11.5-78.09999999999997z m-452.90000000000003-8.899999999999977c-23.899999999999977 10.399999999999977-49.80000000000001 4-57.69999999999999-14.199999999999989-7.899999999999977-18.30000000000001 5.100000000000023-41.5 29-51.80000000000001 23.899999999999977-10.400000000000034 49.80000000000001-4.100000000000023 57.60000000000002 14.199999999999989 8 18.19999999999999-5.100000000000023 41.39999999999998-28.900000000000034 51.80000000000001z m117.09999999999997 116.49999999999994c-10 19.200000000000045-23.899999999999977 32.60000000000002-43 36.40000000000009-14.899999999999977 3-23.799999999999955-7.5-21.59999999999991-25.100000000000023 3-23.399999999999977 33-51.30000000000007 52.69999999999993-48.700000000000045 11.200000000000045 1.3999999999999773 16.100000000000023 7.899999999999977 16 24.300000000000068-0.7999999999999545 2.2999999999999545-1.6999999999999318 8.299999999999955-4.100000000000023 13.099999999999909z m135.20000000000005-1.5c-4.899999999999977 12.700000000000045-12.700000000000045 22.800000000000068-24.200000000000045 26.100000000000023-5 1.5-13-0.10000000000002274-16-4.100000000000023-2.8999999999999773-3.7999999999999545-3.099999999999909-13.799999999999955-1-19 5.7000000000000455-13.899999999999977 16.200000000000045-21.299999999999955 27.600000000000023-24.399999999999977 11.300000000000068 0.20000000000004547 17.700000000000045 11.100000000000023 13.600000000000023 21.399999999999977z"/>
</svg>
