<svg xmlns="http://www.w3.org/2000/svg" viewBox="0 0 1000 1000" width="1000" height="1000">
<path d="M245.8 804.7c-52.10000000000002 0-97.60000000000002-29.700000000000045-122.00000000000001-73.60000000000002-18.799999999999997 21.899999999999977-30.299999999999997 50.799999999999955-30.299999999999997 82.29999999999995 0 68.30000000000007 53.400000000000006 124.10000000000002 119.1 124.10000000000002 45.70000000000002 0 85.4-27 105.29999999999998-66.5-19.69999999999999-18.399999999999977-34.5-42.39999999999998-41.799999999999955-69.70000000000005-9.700000000000045 2.1000000000000227-19.900000000000034 3.400000000000091-30.30000000000001 3.400000000000091z m-110.20000000000002-100.20000000000005c1.4000000000000057 3.7000000000000455 3.0999999999999943 7.2000000000000455 4.800000000000011 10.700000000000045 19.900000000000006 39.5 59.69999999999999 66.69999999999993 105.5 66.69999999999993 8.900000000000006 0 17.700000000000017-1.1000000000000227 25.99999999999997-3.1000000000000227-0.5999999999999659-5.699999999999932-1-11.399999999999977-1-17.09999999999991 0-17.800000000000068 3.2000000000000455-34.80000000000007 8.800000000000011-50.60000000000002 1.3000000000000114-3.7000000000000455 2.6999999999999886-7.300000000000068 4.300000000000011-10.800000000000068 1.5-3.3999999999999773 3.1000000000000227-6.7999999999999545 4.899999999999977-10.099999999999909 8.400000000000034-15.700000000000045 19.600000000000023-29.700000000000045 32.700000000000045-41.30000000000007-59.80000000000001-3.1000000000000227-110.10000000000002-45.19999999999993-127.30000000000001-102.60000000000002-39.900000000000006 20.100000000000023-67.50000000000001 62.5-67.50000000000001 111.70000000000005 0 12.200000000000045 1.7000000000000028 24.100000000000023 5.000000000000014 35.299999999999955 1.0999999999999943 3.7000000000000455 2.3999999999999773 7.5 3.799999999999983 11.200000000000045z m375.79999999999995 48.299999999999955c-54.5 0-101.89999999999998-32.5-125.29999999999995-79.79999999999995-4.5-9.299999999999955-8.200000000000045-19.200000000000045-10.800000000000011-29.399999999999977h-0.10000000000002274c-3.6999999999999886 1.2999999999999545-7.300000000000011 2.699999999999932-10.800000000000011 4.2999999999999545-24.899999999999977 11.399999999999977-45.299999999999955 31.300000000000068-58 56.30000000000007-1.6999999999999886 3.5-3.2999999999999545 7.099999999999909-4.7999999999999545 10.799999999999955-1.5 3.7999999999999545-2.900000000000034 7.899999999999977-4 12-3.1000000000000227 11-4.800000000000011 22.700000000000045-4.800000000000011 34.799999999999955 0 3.300000000000068 0.30000000000001137 6.600000000000023 0.39999999999997726 9.900000000000091 0.30000000000001137 4 0.9000000000000341 8 1.5 11.899999999999977 0.6000000000000227 3.7999999999999545 1.400000000000034 7.5 2.400000000000034 11.199999999999932 5.399999999999977 20.600000000000023 15.699999999999989 38.90000000000009 29.69999999999999 53.700000000000045 2.8000000000000114 3 5.699999999999989 5.899999999999977 8.800000000000011 8.600000000000023 3 2.5 6 4.899999999999977 9.199999999999989 7.2999999999999545 19.099999999999966 13.600000000000023 42.099999999999966 21.5 66.89999999999998 21.5 65.60000000000002 0 119.09999999999997-55.60000000000002 119.09999999999997-124.10000000000002 0-3.3999999999999773-0.2999999999999545-6.7999999999999545-0.5-10.199999999999932-6.099999999999909 0.6000000000000227-12.399999999999977 1.1999999999999318-18.899999999999977 1.1999999999999318z m-299.2-225.89999999999998c0.700000000000017 3.800000000000068 1.700000000000017 7.399999999999977 2.700000000000017 11.100000000000023 14.799999999999983 50.799999999999955 60.29999999999998 88 113.79999999999998 88 10.800000000000011 0 21.100000000000023-1.7000000000000455 30.900000000000034-4.399999999999977 3.599999999999966-1 7.099999999999966-2.2000000000000455 10.5-3.5l0.7999999999999545-0.3000000000000682c-0.2999999999999545-3.8999999999999773-0.5999999999999659-8-0.5999999999999659-12.099999999999909 0-5.100000000000023 0.19999999999998863-10.100000000000023 0.6999999999999886-15.100000000000023 3.5-35.30000000000007 19-66.70000000000005 42.10000000000002-90.10000000000002-14.300000000000011-20.80000000000001-23.400000000000034-45.69999999999999-25.5-72.60000000000002-17.80000000000001 8.600000000000023-37.80000000000001 13.600000000000023-58.80000000000001 13.600000000000023-31 0-59.60000000000002-10.5-82.9-28.30000000000001-22.30000000000001 22.600000000000023-36.20000000000002 54.10000000000002-36.20000000000002 88.90000000000003 0 4.599999999999966 0.30000000000001137 9.099999999999966 0.700000000000017 13.600000000000023 0.5 3.699999999999932 1 7.599999999999909 1.799999999999983 11.199999999999932z m340.8 44.30000000000007c0-3.800000000000068 0.2999999999999545-7.5 0.6000000000000227-11.300000000000068-8.300000000000068 1.7000000000000455-16.800000000000068 2.5-25.5 2.5-23.30000000000001 0-45.30000000000001-5.899999999999977-64.70000000000005-16.399999999999977-3.3999999999999773-1.8999999999999773-6.599999999999966-3.7999999999999545-9.899999999999977-6-3.3000000000000114-2.1000000000000227-6.5-4.399999999999977-9.600000000000023-6.7999999999999545-5.899999999999977-4.5-11.5-9.5-16.599999999999966-15-21.5 22.5-34.900000000000034 53.5-34.900000000000034 87.69999999999993v0.8000000000000682c0.10000000000002274 3.199999999999932 0.30000000000001137 6.2999999999999545 0.5 9.299999999999955l0.30000000000001137 3.7000000000000455c0.30000000000001137 2.599999999999909 0.6999999999999886 5.199999999999932 1.1000000000000227 7.699999999999932l0.6999999999999886 4.399999999999977c0.39999999999997726 2.400000000000091 1 4.5 1.6999999999999886 6.900000000000091 13.800000000000011 52.5 59.900000000000034 91.29999999999995 114.60000000000002 91.29999999999995 5.199999999999989 0 10.099999999999966-0.39999999999997726 15.099999999999966-1.1000000000000227 3.7000000000000455-0.39999999999997726 7.300000000000068-1.1000000000000227 10.899999999999977-1.8999999999999773s7.100000000000023-1.7000000000000455 10.5-3c22.100000000000023-7.399999999999977 41.40000000000009-21.399999999999977 55.700000000000045-39.89999999999998-30.799999999999955-27.100000000000023-50.5-67.70000000000005-50.5-112.89999999999998z m-298.6-180.10000000000002c3 2.5 6.2000000000000455 4.899999999999977 9.400000000000034 7.199999999999989 18.80000000000001 12.800000000000011 41 20.19999999999999 65 20.19999999999999 21.399999999999977 0 41.5-5.899999999999977 58.80000000000001-16.399999999999977 0.2999999999999545-2.400000000000034 0.5999999999999659-4.800000000000011 1-7.300000000000011 0.5999999999999659-4.100000000000023 1.1999999999999886-8.100000000000023 2.099999999999966-12.100000000000023 0.9000000000000341-3.8000000000000114 1.6999999999999886-7.5 2.900000000000034-11.300000000000011 9.399999999999977-31.399999999999977 28.899999999999977-58.39999999999998 54.299999999999955-76.69999999999999v-0.30000000000001137c0-68.49999999999997-53.5-124.09999999999997-119.09999999999997-124.09999999999997s-119 55.599999999999994-119 124.09999999999997c0 34.80000000000001 13.899999999999977 66.30000000000001 36.19999999999999 88.80000000000001 2.5999999999999943 2.8000000000000114 5.400000000000006 5.400000000000034 8.400000000000006 7.900000000000034z m159.40000000000003-9.900000000000034c-0.30000000000001137 1-0.6000000000000227 2.1000000000000227-0.8000000000000114 3.1000000000000227-1 4-1.8000000000000114 8.099999999999966-2.3999999999999773 12.300000000000011-0.20000000000004547 1.1999999999999886-0.4000000000000341 2.3999999999999773-0.5 3.5-0.4000000000000341 3.5-0.6000000000000227 7.099999999999966-0.8000000000000114 10.699999999999989-0.10000000000002274 1.3999999999999773-0.30000000000001137 2.8000000000000114-0.30000000000001137 4.300000000000011v0.2999999999999545c0 26.200000000000045 7.800000000000011 50.30000000000001 21.19999999999999 70.30000000000001 2.1000000000000227 3.1000000000000227 4.199999999999989 6.199999999999989 6.600000000000023 9.100000000000023 2.3999999999999773 3 4.899999999999977 5.899999999999977 7.5 8.5 1 1.099999999999966 2.3000000000000114 2.1999999999999886 3.3999999999999773 3.1999999999999886 3.3000000000000114 3.1999999999999886 6.900000000000034 6.2999999999999545 10.5 9 3.3000000000000114 2.3999999999999773 6.600000000000023 4.7999999999999545 10.100000000000023 6.7999999999999545 17.599999999999966 10.800000000000068 37.89999999999998 17 59.69999999999999 17 10.100000000000023 0 19.899999999999977-1.5 29.399999999999977-3.8999999999999773 3.1000000000000227-13 7.800000000000068-25.399999999999977 14.100000000000023-36.69999999999999 1.7000000000000455-3.3000000000000114 3.7000000000000455-6.599999999999966 5.7000000000000455-9.899999999999977 2-3.1000000000000227 4.2999999999999545-6.199999999999989 6.599999999999909-9.199999999999989 16-20.900000000000034 37.40000000000009-37.200000000000045 61.90000000000009-46.5 0.7999999999999545-5.800000000000011 1.3999999999999773-11.800000000000011 1.3999999999999773-17.80000000000001 0-33.19999999999999-12.600000000000023-63.30000000000001-33.10000000000002-85.60000000000002 1.5-3.8000000000000114 3-7.899999999999977 4.5-11.5 1.6000000000000227-3.6999999999999886 3.2999999999999545-7.199999999999989 5.100000000000023-10.699999999999989 43.299999999999955-90.6 127.69999999999993-145 216.69999999999993-183.6 34.40000000000009-15 19.300000000000068-74.10000000000001-15.699999999999932-59-104.80000000000007 45.8-198.89999999999998 107.6-251 211.6-1.7000000000000455 3.3000000000000114-3.2000000000000455 6.899999999999977-4.899999999999977 10.300000000000011-1.6000000000000227 3.3999999999999773-3.300000000000068 6.800000000000011-4.800000000000068 10.300000000000011-11.299999999999955-3.8000000000000114-23.299999999999955-5.800000000000011-35.799999999999955-5.800000000000011-21.400000000000034 0-41.400000000000034 5.899999999999977-58.80000000000001 16.399999999999977-4.199999999999989 2.5-8.300000000000011 5.300000000000011-12.199999999999989 8.400000000000034-4.900000000000034 3.7999999999999545-9.600000000000023 8-13.900000000000034 12.5-13.800000000000011 14.599999999999966-23.899999999999977 32.599999999999966-29.399999999999977 52.599999999999966z m280.3 65.90000000000003c-10.100000000000023 0-19.899999999999977 1.5-29.300000000000068 4-4.199999999999932 1-8.299999999999955 2.3999999999999773-12.299999999999955 3.8999999999999773-4.7999999999999545 1.8000000000000114-9.399999999999977 4-14 6.5-14.200000000000045 7.899999999999977-26.700000000000045 18.5-36.700000000000045 31.399999999999977-2.2999999999999545 3-4.5 6-6.5 9.200000000000045-2.099999999999909 3.1999999999999886-4 6.599999999999966-5.7999999999999545 10-2.2999999999999545 4.199999999999932-4.100000000000023 8.5-5.7000000000000455 12.899999999999977-1.8999999999999773 4.7999999999999545-3.3999999999999773 10-4.699999999999932 15-1 4.399999999999977-1.8999999999999773 8.700000000000045-2.5 13.100000000000023-0.8999999999999773 5.7999999999999545-1.3999999999999773 11.799999999999955-1.3999999999999773 17.799999999999955 0 37.39999999999998 16 70.80000000000007 41.09999999999991 93.5 2.800000000000068 2.5 5.800000000000068 4.899999999999977 8.700000000000045 7.2000000000000455 3 2.2999999999999545 6.100000000000023 4.2999999999999545 9.299999999999955 6.2999999999999545 17.700000000000045 10.800000000000068 38.10000000000002 17.100000000000023 59.90000000000009 17.100000000000023 65.59999999999991 0 119.09999999999991-55.60000000000002 119.09999999999991-124.10000000000002s-53.59999999999991-123.79999999999995-119.19999999999993-123.79999999999995z m12.100000000000023-197.70000000000002c-108.60000000000002 138.29999999999998 123.79999999999995 194.29999999999998 199.5999999999999 140.79999999999998 0 0-91-278.9-199.5999999999999-140.79999999999998z"/>
</svg>
