<svg xmlns="http://www.w3.org/2000/svg" viewBox="0 0 1000 1000" width="1000" height="1000">
<path d="M914.8 880.2h-294v-17.800000000000068c41.10000000000002-0.39999999999997726 87.10000000000002-55.89999999999998 114.40000000000009-104.89999999999998 80.29999999999995-11 198.19999999999993-107.89999999999998 199-217.39999999999998 0.39999999999997726-41.30000000000001-16.800000000000068-62.60000000000002-31.300000000000068-73.30000000000001-28.699999999999932-21.30000000000001-67.79999999999995-17.100000000000023-96.89999999999998-10.100000000000023 0.7999999999999545-22.69999999999999 0.6000000000000227-42.89999999999998-0.20000000000004547-58.5h-344.59999999999997c-29-0.19999999999998863-183.5-0.19999999999998863-285.7-0.19999999999998863-5.5 106.60000000000002 35.400000000000006 451 191.3 464.29999999999995v17.800000000000068h-281.6c-10.799999999999983 0-19.599999999999994 8.699999999999932-19.599999999999994 19.600000000000023v18.299999999999955c0 10.799999999999955 8.700000000000003 19.600000000000023 19.60000000000001 19.600000000000023h829.6999999999999c10.800000000000068 0 19.600000000000023-8.700000000000045 19.600000000000023-19.600000000000023v-18.200000000000045c-0.10000000000002274-10.899999999999977-8.799999999999955-19.59999999999991-19.700000000000045-19.59999999999991z m-113-360.9000000000001c33.90000000000009-10.199999999999932 56.60000000000002-12.199999999999932 66-5.099999999999909 6.100000000000023 4.5 7.300000000000068 16.199999999999932 7.2000000000000455 25.199999999999932-0.39999999999997726 60.60000000000002-58 118.60000000000002-107.5 144.80000000000007 18.399999999999977-54.10000000000002 28.799999999999955-112.60000000000002 34.299999999999955-164.9000000000001z m-511.79999999999995 205.20000000000005c-33.89999999999998-78.20000000000005-58.30000000000001-290.5-58.30000000000001-290.5s68.80000000000001 190.60000000000002 84.30000000000001 243.60000000000002c15.699999999999989 52.69999999999993 84.19999999999999 127.60000000000002 84.19999999999999 127.60000000000002s-76.39999999999998-2.5-110.19999999999999-80.70000000000005z m155.8-397.4c0.8000000000000114 0.5 1.6999999999999886 0.7999999999999545 2.3999999999999773 0.7999999999999545 2.400000000000034 0 4.5-2 4.5-4.5 0-0.5-0.0999999999999659-1-0.30000000000001137-1.5-10.299999999999955-44.799999999999955-5.199999999999989-81.19999999999999 15.100000000000023-108.29999999999998 19.399999999999977-25.900000000000006 28.100000000000023-59 23.100000000000023-88.5-4.300000000000011-25.599999999999994-18.100000000000023-47.099999999999994-40-61.8-1.5-1-3.5-1-5 0s-2.2000000000000455 2.9000000000000057-1.7000000000000455 4.6000000000000085c10.900000000000034 46.599999999999994 0.7000000000000455 77.19999999999999-23.399999999999977 120.4-13.100000000000023 23.599999999999994-18.5 50-15.100000000000023 74.30000000000001 3.900000000000034 27.099999999999966 17.80000000000001 49.299999999999955 40.400000000000034 64.5z m111.90000000000003 0.0999999999999659c0.599999999999909 0.4000000000000341 1.2999999999999545 0.6000000000000227 2 0.6000000000000227 2 0 3.599999999999909-1.6999999999999886 3.599999999999909-3.6000000000000227 0-0.39999999999997726-0.09999999999990905-0.8999999999999773-0.1999999999999318-1.1999999999999886-8.399999999999977-36.60000000000002-4.2000000000000455-66.30000000000001 12.299999999999955-88.5 15.800000000000068-21.099999999999994 22.899999999999977-48.099999999999994 18.800000000000068-72.30000000000001-3.5-21-14.800000000000068-38.39999999999999-32.60000000000002-50.39999999999999-1.2000000000000455-0.8999999999999915-2.800000000000068-0.7999999999999972-4 0-1.2000000000000455 0.9000000000000057-1.7000000000000455 2.4000000000000057-1.5 3.799999999999997 8.899999999999977 38.099999999999994 0.6000000000000227 63-19.100000000000023 98.30000000000001-10.700000000000045 19.19999999999999-15.100000000000023 40.79999999999998-12.299999999999955 60.599999999999994 3.099999999999909 22.19999999999999 14.5 40.30000000000001 33 52.69999999999999z"/>
</svg>
