<svg xmlns="http://www.w3.org/2000/svg" viewBox="0 0 1000 1000" width="1000" height="1000">
<path d="M769.9 391.8l-287 35.39999999999998c-9.299999999999955 1.1999999999999886-11.5 7.5-4.899999999999977 14.100000000000023l188.79999999999995 188.8c6.7000000000000455 6.699999999999932 17.100000000000023 6.399999999999977 23.100000000000023-0.8999999999999773 53.700000000000045-64.90000000000009 86.89999999999998-142.10000000000002 95.39999999999998-222.50000000000006 1.1000000000000227-9.399999999999977-6.099999999999909-16.099999999999966-15.399999999999977-14.899999999999977z m-342.2 91.69999999999999l-35.30000000000001 286.4c-1.1999999999999886 9.300000000000068 5.5 16.5 14.900000000000034 15.399999999999977 79.39999999999998-8.699999999999932 157.2-42.09999999999991 221.8-95.29999999999995 7.2999999999999545-6 7.600000000000023-16.5 0.8999999999999773-23.100000000000023l-188.2-188.29999999999995c-6.600000000000023-6.600000000000023-12.900000000000034-4.400000000000034-14.100000000000023 4.899999999999977z m269.90000000000003-324.5l-203.8 203.8c-6.699999999999989 6.699999999999989-4.5 11.099999999999966 4.899999999999977 10l270.90000000000003-33.400000000000034c9.299999999999955-1.1999999999999886 16.399999999999977-9.699999999999989 15.199999999999932-19-7.399999999999977-59.39999999999998-29.399999999999977-114.09999999999997-64.39999999999998-160.2-5.699999999999932-7.5-16.100000000000023-7.899999999999977-22.799999999999955-1.1999999999999886z m-334 334l-204.60000000000002 204.60000000000002c-6.699999999999989 6.699999999999932-6.300000000000011 17 1.1999999999999886 22.699999999999932 46 35 101.19999999999999 57.10000000000002 160.8 64.5 9.300000000000011 1.2000000000000455 17.899999999999977-5.899999999999977 19-15.199999999999932l33.5-271.70000000000005c1.1999999999999886-9.299999999999955-3.3000000000000114-11.5-9.899999999999977-4.899999999999977z m425.19999999999993-425.7l-30.399999999999977 30.39999999999999c-6.699999999999932 6.700000000000003-7 17.799999999999997-1.1000000000000227 25.200000000000003 58.30000000000007 73.4 87.20000000000005 166.49999999999997 81.70000000000005 266.5-6.2000000000000455 114.10000000000002-56.299999999999955 223.60000000000002-141.10000000000002 308.4-90.10000000000002 90.10000000000002-211 141.80000000000007-331.79999999999995 141.80000000000007-90.90000000000003 0-175.8-29-243.10000000000002-82.39999999999998-7.400000000000006-5.800000000000068-18.5-5.5-25.200000000000003 1.099999999999909l-30.39999999999999 30.40000000000009c-6.700000000000003 6.699999999999932-6.400000000000006 17.199999999999932 0.6999999999999886 23.299999999999955 95.30000000000001 81.20000000000005 215.1 125.39999999999998 341.6 125.39999999999998 141 0 273.5-54.89999999999998 373.19999999999993-154.60000000000002 99.70000000000005-99.69999999999993 154.60000000000002-232.19999999999993 154.60000000000002-373.19999999999993 0-126.60000000000002-44.200000000000045-246.3-125.39999999999998-341.6-6.100000000000023-7.100000000000001-16.600000000000023-7.299999999999997-23.300000000000068-0.7000000000000028z"/>
</svg>
