<svg xmlns="http://www.w3.org/2000/svg" viewBox="0 0 1000 1000" width="1000" height="1000">
<path d="M935 456.7c-0.7999999999999545-7-1.7000000000000455-14.099999999999966-2.7999999999999545-21.099999999999966-18.200000000000045-114-71.90000000000009-207.60000000000002-162.5-279.3-66.40000000000009-52.60000000000001-142.4000000000001-82.10000000000001-226.4000000000001-91.4l-9.699999999999932-1.2000000000000028c-5.300000000000068-0.7000000000000028-20-1.2000000000000028-32.700000000000045-1.2000000000000028s-32.5 1.1000000000000014-44.19999999999999 2.4000000000000057c-7 0.7999999999999972-14.099999999999966 1.6999999999999886-21.099999999999966 2.8999999999999915-154.10000000000002 26.700000000000003-265.70000000000005 110.10000000000001-333.20000000000005 251.3-22.399999999999977 46.89999999999998-34.49999999999997 96.79999999999995-38.09999999999998 148.7-0.09999999999999432 1.3999999999999773-0.3999999999999986 2.8000000000000114-0.6999999999999957 4.199999999999989-0.6000000000000014 2.1999999999999886-1 14.399999999999977-1 27.19999999999999s1.1000000000000014 32.50000000000006 2.499999999999993 44.19999999999999c0.8000000000000114 7 1.7000000000000028 14 2.8000000000000114 21 19.39999999999999 120.80000000000007 78.1 218.10000000000002 177.1 290.30000000000007 63.10000000000002 46.09999999999991 134.3 71.79999999999995 211.89999999999998 80.39999999999998 3.2000000000000455 0.39999999999997726 6.400000000000034 0.7999999999999545 9.700000000000045 1.1999999999999318 5.2999999999999545 0.7000000000000455 20 1.2000000000000455 32.69999999999999 1.2000000000000455 12.699999999999989 0 32.49999999999994-1.1000000000000227 44.19999999999999-2.3999999999999773 7-0.8000000000000682 14.100000000000023-1.7000000000000455 21.100000000000023-2.8999999999999773 143.10000000000002-24 250.39999999999998-99.30000000000007 320.79999999999995-226 29.899999999999977-53.80000000000007 46.30000000000007-112.30000000000007 50.5-173.9000000000001 0.10000000000002274-1.3999999999999773 0.39999999999997726-2.7999999999999545 0.7000000000000455-4.099999999999909 0.6000000000000227-2.2000000000000455 1-14.400000000000091 1-27.200000000000045-0.10000000000002274-12.899999999999977-1.2000000000000455-32.69999999999999-2.6000000000000227-44.30000000000001z m-35.60000000000002 53.69999999999999c-6.399999999999977 227.70000000000005-194.29999999999995 393.80000000000007-408.29999999999995 389.20000000000005-201.40000000000003-5.800000000000068-358.90000000000003-153.5-386.40000000000003-340.20000000000005-5.799999999999983-39.39999999999998-3.5999999999999943-104.39999999999998 4.6000000000000085-143.39999999999998 40.000000000000014-189.2 209.8-322.3 404.3-315.3 225 8.100000000000009 391.9 193.5 385.79999999999995 409.7z m-440.79999999999995 30.600000000000023c-7-6.600000000000023-15.100000000000023-2.1000000000000227-22.400000000000034 0.8999999999999773-42 17.300000000000068-83.89999999999998 34.89999999999998-126 52.30000000000007-34.39999999999998 14.299999999999955-68.79999999999998 28.399999999999977-103.19999999999999 42.59999999999991-7.300000000000011 3-13.199999999999989 7.100000000000023-17.400000000000006 12.5-7.299999999999983 9.5-6.099999999999994 24.40000000000009-4.400000000000006 29.800000000000068 1 3.199999999999932 2.200000000000017 6.399999999999977 3.9000000000000057 9.299999999999955 30 50.700000000000045 70.70000000000002 91.10000000000002 120.70000000000002 121.80000000000007 22.399999999999977 13.799999999999955 43.30000000000001 6.5 53.39999999999998-17.800000000000068 31.80000000000001-76.29999999999995 63.400000000000034-152.69999999999993 95-229.10000000000002 3-7.199999999999932 7.600000000000023-15.399999999999977 0.4000000000000341-22.299999999999955z m26.5-114.39999999999998c2.8999999999999773 6.899999999999977 5.899999999999977 15.299999999999955 15.299999999999955 15.099999999999966 9-0.19999999999998863 11.600000000000023-8.300000000000011 14.399999999999977-15 31.90000000000009-76.59999999999997 63.60000000000002-153.3 95.30000000000007-230 1.1000000000000227-2.5999999999999943 1.8999999999999773-5.299999999999983 2.6000000000000227-8 1.1999999999999318-4.5 2.199999999999932-19.599999999999994-5.900000000000091-29.599999999999994-4.7999999999999545-5.900000000000006-11.399999999999977-10.299999999999983-19.299999999999955-12.199999999999989-10.5-2.5-21.100000000000023-4.5-31.799999999999955-6.200000000000017-47.80000000000007-7.599999999999994-95.30000000000007-5.699999999999989-142.20000000000005 6.200000000000017-23.100000000000023 5.900000000000006-33.30000000000001 26.19999999999999-24.19999999999999 48.29999999999998 31.80000000000001 77.10000000000002 63.69999999999999 154.2 95.80000000000001 231.40000000000003z m208.19999999999993-235.10000000000002c-24.399999999999977-15.800000000000011-46.5-8.800000000000011-57.69999999999993 18.099999999999994-31.100000000000023 75.4-62.30000000000007 150.70000000000002-93.5 226.00000000000003-3.1000000000000227 7.5-8 15.899999999999977-0.8999999999999773 23.099999999999966 7.199999999999932 7.300000000000011 15.5 2.1000000000000227 23-1.099999999999966 39.19999999999993-16.100000000000023 78.29999999999995-32.30000000000001 117.39999999999998-48.5 37.299999999999955-15.400000000000034 74.60000000000002-30.900000000000034 111.79999999999995-46.30000000000001 7.600000000000023-3.1999999999999886 13.600000000000023-7.600000000000023 17.600000000000023-14.199999999999989 6.600000000000023-10.800000000000011 3.8999999999999773-26.900000000000034 1.2999999999999545-32.900000000000034-1.5-3.3999999999999773-3.199999999999932-7.099999999999966-5.399999999999977-10.599999999999966-28.899999999999977-46.700000000000045-67.5-83.90000000000003-113.60000000000002-113.60000000000002z m-178.19999999999993 382.5c-2.8999999999999773-7-5.600000000000023-15.399999999999977-14.900000000000034-15.600000000000023-9.5-0.1999999999999318-12.099999999999966 8.399999999999977-15 15.300000000000068-32 76.89999999999998-63.89999999999998 153.79999999999995-95.69999999999999 230.69999999999993-9.5 23 0.8999999999999773 43.10000000000002 25.100000000000023 49.10000000000002 28.299999999999955 7 57.099999999999966 10.200000000000045 86.19999999999999 10.299999999999955 28.599999999999966 0 56.80000000000001-3.2999999999999545 84.49999999999994-10.199999999999932 24.5-6 34.80000000000007-26.600000000000023 25.200000000000045-49.80000000000007-31.899999999999977-76.5-63.60000000000002-153.19999999999993-95.39999999999998-229.79999999999995z m-307.6-210.60000000000002c75.89999999999998 31.400000000000034 151.8 62.80000000000001 227.7 94.10000000000002 7.699999999999989 3.1999999999999886 16.30000000000001 8.800000000000011 23.69999999999999 1 7-7.300000000000011 1.6000000000000227-15.600000000000023-1.5-23.100000000000023-20.299999999999955-49.39999999999998-40.799999999999955-98.69999999999999-61.299999999999955-148.09999999999997-11-26.5-21.900000000000034-53.10000000000002-32.80000000000001-79.60000000000002-3.1000000000000227-7.5-7.199999999999989-13.599999999999994-12.900000000000034-18-9.699999999999989-7.699999999999989-25.799999999999955-6.099999999999994-32.299999999999955-3.5999999999999943-3.900000000000034 1.5999999999999943-7.800000000000011 3.200000000000017-11.300000000000011 5.5-47.69999999999999 30.099999999999994-86.30000000000001 69.4-116.70000000000002 116.9-14 22-6.900000000000006 44.80000000000001 17.400000000000006 54.89999999999998z m367.29999999999995 121.40000000000003c-7.199999999999932 3-16.299999999999955 5.399999999999977-16.299999999999955 15.199999999999989 0 9.699999999999989 8.899999999999977 12.299999999999955 16.200000000000045 15.299999999999955 76.29999999999995 31.700000000000045 152.69999999999993 63.30000000000007 229.0999999999999 95 23.300000000000068 9.700000000000045 43.60000000000002-0.39999999999997726 49.80000000000007-25 7-27.699999999999932 10.199999999999932-55.89999999999998 10.399999999999977-97.39999999999998 0-15.899999999999977-3.2000000000000455-44.39999999999998-10-72.39999999999998-6.2000000000000455-25.30000000000001-26.200000000000045-35.60000000000002-50-25.69999999999999-76.60000000000002 31.5-152.89999999999998 63.19999999999999-229.20000000000005 95z m-154.89999999999998 32.69999999999999c4.7000000000000455-2 9.600000000000023-3.7000000000000455 14-6.300000000000011 11-6.599999999999966 11-15.699999999999989-0.0999999999999659-22.399999999999977-5.600000000000023-3.3000000000000114-11.800000000000011-5.600000000000023-17.80000000000001-8-73.19999999999999-30.400000000000034-146.39999999999998-60.80000000000001-219.7-91.10000000000002-23.80000000000001-9.899999999999977-44.80000000000001 0.30000000000001137-49.80000000000001 25.80000000000001-2.6999999999999886 13.800000000000011-4.800000000000011 27.69999999999999-6.800000000000011 41.5-3.1999999999999886 23-5.299999999999983 41.80000000000001-4.599999999999994 41.89999999999998 0.700000000000017 0.10000000000002274 0.9000000000000057 20.300000000000068 3.8000000000000114 44.89999999999998 1.799999999999983 14.800000000000068 4.5 29.40000000000009 8.199999999999989 44 3.8000000000000114 14.800000000000068 15.599999999999994 25.700000000000045 30.200000000000017 25.90000000000009 7.899999999999977 0.09999999999990905 16.299999999999983-2.300000000000068 23.69999999999999-5.400000000000091 73-30 146-60.39999999999998 218.89999999999998-90.79999999999995z m369.1 117.60000000000002c-28.5-11.5-56.799999999999955-23.399999999999977-85.10000000000002-35.10000000000002-47.5-19.600000000000023-95-39.39999999999998-142.60000000000002-58.89999999999998-6.5-2.7000000000000455-13.799999999999955-6.100000000000023-20-0.10000000000002274-6.2999999999999545 6.100000000000023-2.599999999999909 13.200000000000045-0.2999999999999545 19.899999999999977l1.2000000000000455 3.2000000000000455 49.59999999999991 119.69999999999993 45.60000000000002 110.30000000000007c3.1000000000000227 7.399999999999977 7.399999999999977 13.100000000000023 13.100000000000023 17.100000000000023 9.899999999999977 6.899999999999977 24.700000000000045 5.399999999999977 29.899999999999977 3.3999999999999773 3.2000000000000455-1.2000000000000455 6.300000000000068-2.3999999999999773 9.200000000000045-4.2000000000000455 50.60000000000002-30.699999999999932 91.10000000000002-71.60000000000002 121.69999999999993-122.19999999999993 3.7000000000000455-6.100000000000023 5.400000000000091-14.600000000000023 5.100000000000023-21.800000000000068-0.6999999999999318-17.100000000000023-12.799999999999955-25.399999999999977-27.399999999999977-31.299999999999955z"/>
</svg>
