<svg xmlns="http://www.w3.org/2000/svg" viewBox="0 0 1000 1000" width="1000" height="1000">
<path d="M933.4 525.2c-6.5-42.00000000000006-26.199999999999932-77.50000000000006-60.19999999999993-104.20000000000005-24.200000000000045-19-52-31.80000000000001-79.20000000000005-45.39999999999998-28.899999999999977-14.400000000000034-57.700000000000045-29.100000000000023-79.79999999999995-53.200000000000045-12.900000000000091-14.099999999999966-24.40000000000009-29.69999999999999-35.5-45.5-40.40000000000009-57.39999999999998-89-104.89999999999998-154-134.49999999999997-95.70000000000005-43.60000000000001-190.40000000000003-42.60000000000001-281.80000000000007 8.599999999999994-93.79999999999998 52.400000000000006-150.99999999999997 133.89999999999998-172.29999999999998 239.10000000000002-15.599999999999994 77-7.199999999999996 153.39999999999998 12.400000000000006 230.10000000000002 3.799999999999997 10.799999999999955 7.700000000000003 22.699999999999932 12.099999999999994 34.5 15.100000000000009 40.799999999999955 36.30000000000001 77.89999999999998 67.20000000000002 108.89999999999998 36.599999999999994 36.69999999999993 79.1 61.799999999999955 132.7 56.5 35.5-3.5 70.39999999999998-12.300000000000068 105.5-18.700000000000045 26.19999999999999-4.7999999999999545 52.39999999999998-7 79-1.3999999999999773 23 4.7999999999999545 42.39999999999998 17 62 28.899999999999977 30.600000000000023 18.5 61.299999999999955 37 95.39999999999998 49 42.200000000000045 14.899999999999977 83.70000000000005 15.200000000000045 124.60000000000002-4.5 28.299999999999955-13.600000000000023 52.799999999999955-32.5 73.89999999999998-55.5 75.70000000000005-83 115.60000000000002-178.5 98-292.69999999999993z m-34.5 95.5c-15.600000000000023 81.59999999999991-54.69999999999993 149.5999999999999-120.29999999999995 201.39999999999998-33.700000000000045 26.600000000000023-71.30000000000007 38.89999999999998-114.39999999999998 27.799999999999955-26.200000000000045-6.7999999999999545-50.30000000000007-18.699999999999932-73.5-32.19999999999993-18.90000000000009-10.900000000000091-37.40000000000009-22.5-56.30000000000007-33.30000000000007-36.89999999999998-21.100000000000023-76.89999999999998-26.699999999999932-118.29999999999995-20.299999999999955-31.700000000000045 4.899999999999977-63.200000000000045 11.5-94.70000000000005 18.399999999999977-51.89999999999998 11.299999999999955-95.19999999999999-3.7999999999999545-131.99999999999997-40.89999999999998-26.599999999999994-26.800000000000068-45.70000000000002-58.5-59.30000000000001-93.39999999999998-28.799999999999997-74.10000000000002-39.099999999999994-151.30000000000007-28.5-229.70000000000005 15.100000000000009-112.5 73.4-197.2 176.6-246.5 81.90000000000003-39.19999999999999 164.10000000000002-32.19999999999999 244.7 7.800000000000011 53.5 26.599999999999994 92.80000000000007 68.1 126.5 116 19.300000000000068 27.399999999999977 38.200000000000045 55.69999999999999 66.89999999999998 74.19999999999999 24.200000000000045 15.5 49.80000000000007 28.80000000000001 74.90000000000009 43 17.299999999999955 9.800000000000011 35.09999999999991 18.600000000000023 51.799999999999955 29.19999999999999 27 17.30000000000001 44.200000000000045 42.19999999999999 50.200000000000045 65.19999999999999 12.099999999999909 42.80000000000007 12.399999999999977 78 5.699999999999932 113.30000000000007z m-449.09999999999997-274.00000000000006c-94.10000000000002 25.600000000000023-147.8 118.5-122.69999999999999 212.50000000000006 24.299999999999955 91.09999999999991 119.59999999999997 144.79999999999995 212.19999999999993 119.69999999999993 90.5-24.699999999999932 144.60000000000002-119.79999999999995 119.70000000000005-210.89999999999998-24.899999999999977-90.89999999999998-119.20000000000005-145.7-209.2-121.30000000000001z m15.899999999999977 75.80000000000001c-47.30000000000001 13.199999999999989-69.39999999999998 63.80000000000001-66.09999999999997 102.20000000000005 0.39999999999997726 5 1.6999999999999886 9.899999999999977 2.2999999999999545 14.899999999999977 1.400000000000034 10.899999999999977-3.7999999999999545 19.100000000000023-13.299999999999955 20.899999999999977-9.200000000000045 1.7999999999999545-17.5-4.2000000000000455-20.30000000000001-14.5-12.5-55.39999999999998 12.199999999999989-132 86.09999999999997-155.8 10.900000000000034-3.5 20.400000000000034 0.5 23.80000000000001 9.5 3.5 9.600000000000023-1.1999999999999886 19.600000000000023-12.5 22.80000000000001z"/>
</svg>
