<svg xmlns="http://www.w3.org/2000/svg" viewBox="0 0 1000 1000" width="1000" height="1000">
<path d="M776.1 302.1c0-40.700000000000045-28.300000000000068-76.20000000000002-68.80000000000007-86.30000000000001-2-0.5-4.099999999999909-1-6.2999999999999545-1.4000000000000057l-6.100000000000023-0.9000000000000057-4.399999999999977-0.4000000000000057-1-4.199999999999989c-20.899999999999977-86.2-99-146.4-189.7-146.4-90.80000000000001 0-168.8 60.2-189.7 146.4l-1 4.099999999999994-4.400000000000034 0.4000000000000057c-2 0.29999999999998295-4.099999999999966 0.5999999999999943-6.099999999999966 1-2.2000000000000455 0.4000000000000057-4.300000000000011 0.799999999999983-6.300000000000011 1.299999999999983-40.5 10.100000000000023-68.80000000000001 45.60000000000002-68.80000000000001 86.30000000000001 0 29.69999999999999 15.099999999999994 56.89999999999998 39.39999999999998 73.10000000000002l236.20000000000005 562.4 235.5-561c25.399999999999977-16.100000000000023 41.5-43.89999999999998 41.5-74.39999999999998z m-288.90000000000003-170.70000000000002c3.900000000000034-13.800000000000011 17.100000000000023-18.5 30.400000000000034-16.80000000000001 57.799999999999955 7.900000000000006 102.60000000000002 46.5 118.89999999999998 101 8.799999999999955 29.80000000000001-38.700000000000045 42.50000000000003-47.60000000000002 12.800000000000011-11.899999999999977-39.70000000000002-43.39999999999998-61.80000000000001-84.5-67.4-13.299999999999955-1.6999999999999886-20.399999999999977-18.19999999999999-17.19999999999999-29.599999999999994z m-184.39999999999998 201.6c2-0.8999999999999773 4.099999999999966-1.6000000000000227 6.399999999999977-2.3000000000000114 2-0.5999999999999659 4.400000000000034-1.099999999999966 6.699999999999989-1.6999999999999886 6.900000000000034-1.5 13.300000000000011-2.1000000000000227 20.30000000000001-2.1000000000000227h327.3c7 0 13.399999999999977 0.6000000000000227 20.299999999999955 2.1000000000000227 2.300000000000068 0.5 4.5 1.1000000000000227 6.600000000000023 1.6999999999999886 2.300000000000068 0.6999999999999886 4.5 1.5 6.399999999999977 2.3000000000000114 16.40000000000009 7 23.300000000000068 18.600000000000023 25.90000000000009 24.899999999999977 1.3999999999999773 3.2000000000000455 2.8999999999999773 8.300000000000011 3.199999999999932 14.600000000000023h-13c-8-18.5-31.899999999999977-32-60.60000000000002-32h-306.69999999999993c-28.700000000000045 0-52.700000000000045 13.600000000000023-60.60000000000002 32h-11.300000000000011c0.30000000000001137-6.300000000000011 1.8000000000000114-11.300000000000011 3.1999999999999886-14.600000000000023 2.6000000000000227-6.199999999999989 9.600000000000023-17.799999999999955 25.900000000000034-24.899999999999977z m188.3 80.10000000000002l41.5 42.39999999999998-59.80000000000001 58.60000000000002-49.19999999999999-50.30000000000001 52-50.69999999999999 8.099999999999966-7.800000000000011 7.400000000000034 7.800000000000011z m-1.6000000000000227-13.5l2.8000000000000114-2.7000000000000455h100.49999999999994l-16.59999999999991 16.200000000000045-37.60000000000002 36.69999999999999-35.900000000000034-36.69999999999999-13.199999999999989-13.5z m-29.100000000000023 13.5l-44.099999999999966 43.099999999999966-42.19999999999999-43.099999999999966-7.7000000000000455-8 8.400000000000034-8.300000000000011h100.59999999999997l0.7000000000000455 0.8999999999999773-15.700000000000045 15.400000000000034z m-42.69999999999999 56.599999999999966l49 50.19999999999999-58 56.5-49-50.19999999999993 58-56.50000000000006z m56.5 57.80000000000001l46.50000000000006 47.700000000000045-58.200000000000045 56.69999999999993-46.5-47.69999999999993 58.19999999999999-56.700000000000045z m53.900000000000034 55.39999999999998l48.299999999999955 49.30000000000007-58 56.69999999999993-48.299999999999955-49.39999999999998 58-56.60000000000002z m-1.5-13.399999999999977l-46.60000000000002-47.700000000000045 59.89999999999998-58.49999999999994 46.60000000000002 47.69999999999999-59.89999999999998 58.5z m19.399999999999977-112.10000000000002l62-60.299999999999955 46.5 47.69999999999999-62 60.5-46.5-47.900000000000034z m-186.3-60.5l-0.6999999999999886 0.7000000000000455-0.6999999999999886-0.7000000000000455h1.3999999999999773z m-59.5 4l-1.6999999999999886-4h48.30000000000001l6.199999999999989 6.5-9.899999999999977 9.600000000000023-26.900000000000034 26.30000000000001-16-38.400000000000034z m47.400000000000034 112.89999999999998l-26.900000000000034-63.99999999999994 37.5-36.69999999999999 2.1999999999999886-2.2000000000000455 2.2000000000000455 2.2000000000000455 47.69999999999999 49-58 56.60000000000002-4.699999999999989-4.900000000000091z m8.699999999999989 20.800000000000068l46.599999999999966 47.799999999999955-18.899999999999977 18.200000000000045-27.69999999999999-66z m32.19999999999999 76.5l21.69999999999999-21.300000000000068 46.60000000000002 47.700000000000045-40.60000000000002 39.60000000000002-27.69999999999999-66z m57.80000000000001 137.69999999999993l-25.600000000000023-61.09999999999991 43.5-42.5 48.099999999999966 49.299999999999955-60.99999999999994 59.5-5-5.2000000000000455z m8.599999999999966 20.700000000000045l47.900000000000034 49-19.30000000000001 18.899999999999977-28.600000000000023-67.89999999999998z m44.200000000000045 104.89999999999998l-11.200000000000045-26.600000000000023 22.30000000000001-21.899999999999977 6.500000000000057 6.600000000000023-17.600000000000023 41.89999999999998z m20.899999999999977-50l-3.8999999999999773-4 9.600000000000023-9.399999999999977-5.7000000000000455 13.399999999999977z m16.200000000000045-38.60000000000002l-27.500000000000057 27-49.89999999999998-51.09999999999991 60.99999999999994-59.5 36.10000000000002 36.89999999999998-19.699999999999932 46.69999999999993z m23.09999999999991-55l-33.5-34.5 57.90000000000009-56.5 9.699999999999932 10-34.10000000000002 81z m37.60000000000002-89.29999999999995l-7.2999999999999545-7.399999999999977 17.699999999999932-17.300000000000068-10.399999999999977 24.700000000000045z m21-49.89999999999998l-35.69999999999993 34.89999999999998-48.10000000000002-49.39999999999998 59.89999999999998-58.60000000000002 38.10000000000002 39.10000000000002-14.200000000000045 34z m17.700000000000045-42.200000000000045l-35.700000000000045-36.60000000000002 62-60.49999999999994 10.200000000000045 10.300000000000011-36.5 86.79999999999995z m39.799999999999955-94.89999999999998l-7.699999999999932-8 18.59999999999991-18.30000000000001-10.899999999999977 26.30000000000001z m22.600000000000023-53.60000000000002l-1 2.3000000000000114-36.60000000000002 35.80000000000001-25.100000000000023-25.80000000000001-15.899999999999977-16.19999999999999h80.20000000000005l-1.6000000000000227 3.8999999999999773z"/>
</svg>
