<svg xmlns="http://www.w3.org/2000/svg" viewBox="0 0 1000 1000" width="1000" height="1000">
<path d="M321.3 172.7c23.399999999999977-1.799999999999983 46.69999999999999-6.099999999999994 66.39999999999998-10 6.5-1.299999999999983 12.900000000000034-2.5 19.30000000000001-3.8999999999999773 10-2 20-4 29.80000000000001-6l1.5-0.30000000000001137c2.5-0.5 5.5-1.0999999999999943 8.599999999999966-1.8000000000000114 3.2000000000000455-0.6999999999999886 6.600000000000023-1.3999999999999773 9.600000000000023-2-6 2.5-13.100000000000023 5.300000000000011-19.5 7.700000000000017-13 5-26.30000000000001 10.199999999999989-35.89999999999998 14.599999999999994l-1.8000000000000114 0.8000000000000114c-18.5 8.399999999999977-46.5 21.099999999999994-51.69999999999999 43.89999999999998-2.1000000000000227 8.800000000000011 0 17.900000000000006 5.7999999999999545 25.100000000000023 6.100000000000023 7.599999999999994 15.400000000000034 12 25 11.699999999999989 3.3000000000000114-0.09999999999999432 6.900000000000034-0.30000000000001137 10.800000000000011-1 6.199999999999989-1.1999999999999886 12.300000000000011-3 17.900000000000034-5.300000000000011 29.399999999999977-12.099999999999994 31.19999999999999-4.199999999999989 31.399999999999977-3.299999999999983 1.1000000000000227 5.199999999999989-7.199999999999989 16.200000000000017-10.800000000000011 20.799999999999983-0.8000000000000114 1.1000000000000227-1.3999999999999773 1.8000000000000114-1.8000000000000114 2.5-0.8999999999999773 1.3000000000000114-2 2.6999999999999886-3.1999999999999886 4.300000000000011-7.199999999999989 9.5-17.099999999999966 22.600000000000023-13.300000000000011 34 0.4000000000000341 1.3999999999999773 1.8000000000000114 2.1999999999999886 3.2000000000000455 1.8999999999999773h0.0999999999999659c1.400000000000034-0.39999999999997726 2.400000000000034-1.6999999999999886 2.1999999999999886-3.1999999999999886-0.5999999999999659-4.899999999999977 3.2000000000000455-10.099999999999966 6.900000000000034-14.399999999999977 3.5-4.199999999999989 7.399999999999977-8.199999999999989 11.099999999999966-12.100000000000023 1.6000000000000227-1.6999999999999886 3.2000000000000455-3.1999999999999886 4.600000000000023-4.899999999999977l0.10000000000002274-0.10000000000002274c6.7999999999999545-7.300000000000011 18.299999999999955-19.399999999999977 17.899999999999977-31.19999999999999-0.19999999999998863-4.699999999999989-2.1999999999999886-8.900000000000006-6-12.400000000000006-10.699999999999989-9.799999999999983-26.100000000000023-7.699999999999989-39.60000000000002-5.099999999999994l-1.099999999999966 0.30000000000001137-7.300000000000011 1.5999999999999943-7.5 1.5999999999999943c-4.399999999999977 0.9000000000000057-7.899999999999977 1.4000000000000057-11.100000000000023 1.5999999999999943-6.599999999999966 0.4000000000000057-9.399999999999977-2.5999999999999943-8.399999999999977-5.400000000000006 3-8.399999999999977 23.899999999999977-19.399999999999977 63-32.599999999999994 2.1000000000000227-0.6999999999999886 3.8000000000000114-1.299999999999983 4.899999999999977-1.6999999999999886 2.400000000000034-0.9000000000000057 4.800000000000011-1.8000000000000114 7.2000000000000455-2.5 13.799999999999955-4.900000000000006 28.099999999999966-10 41.299999999999955-17 23.5-12.300000000000011 25.899999999999977-25.900000000000006 23.5-35.400000000000006v-0.19999999999998863l-0.10000000000002274-0.30000000000001137c0-0.19999999999998863-0.09999999999990905-0.4000000000000057-0.1999999999999318-0.5-3.1000000000000227-9.700000000000003-11.600000000000023-16.5-23.5-18.599999999999994-17.100000000000023-3-35.60000000000002 0.5999999999999943-52.10000000000002 3.799999999999997l-4.300000000000011 0.7999999999999972c-14 2.700000000000003-28.30000000000001 5.799999999999997-42 8.799999999999997-12 2.6000000000000085-24.399999999999977 5.3999999999999915-36.69999999999999 7.799999999999997s-23.100000000000023 4.200000000000017-33.19999999999999 5.599999999999994c-7.699999999999989 1.1000000000000227-17 2.200000000000017-26.30000000000001 2.3000000000000114-7.100000000000023 0.09999999999999432-15.899999999999977 0.19999999999998863-22.30000000000001-3.3000000000000114-5.800000000000011-3.1999999999999886-2.5-13.399999999999991 0.10000000000002274-18.299999999999983 7.699999999999989-15 24.599999999999966-23.80000000000001 40.099999999999966-30.5 14.100000000000023-6 30.100000000000023-10.900000000000006 50.10000000000002-15.300000000000011 12.899999999999977-2.799999999999997 25.5-5 37.5-6.3999999999999915h0.30000000000001137c1.599999999999966-0.29999999999999716 2.5-1.7999999999999972 2.3000000000000114-3.299999999999997-0.30000000000001137-1.4000000000000057-1.400000000000034-2.3000000000000043-2.8000000000000114-2.3000000000000043-24.19999999999999-2.1000000000000014-49.400000000000034-0.7000000000000028-72.5 3.8999999999999986-7.199999999999989 1.4000000000000057-14.300000000000011 3.200000000000003-21.100000000000023 5.200000000000003-26.19999999999999 7.700000000000003-58.5 24.099999999999994-63.79999999999998 57.60000000000001-1.8000000000000114 11.399999999999977 0.5999999999999943 20.69999999999999 7.199999999999989 27.799999999999983 14.500000000000028 15.5 46.099999999999994 16.599999999999994 70.20000000000002 14.599999999999994z m530.7 266c-29.600000000000023-33.69999999999999-77.29999999999995-52.80000000000001-138.39999999999998-55.69999999999999-7.399999999999977-34.19999999999999-34.200000000000045-59.69999999999999-66.39999999999998-59.69999999999999h-463.80000000000007c-37.79999999999998 0-68.39999999999998 35-68.39999999999998 78.19999999999999v405c0 41 27.599999999999994 74.5 62.599999999999994 78v37.5c0 8.700000000000045 7 15.700000000000045 15.700000000000017 15.700000000000045h444.2c8.700000000000045 0 15.700000000000045-7 15.700000000000045-15.700000000000045v-37.5c35.09999999999991-3.3999999999999773 62.59999999999991-36.89999999999998 62.59999999999991-78v-56.5c48-12.799999999999955 88.80000000000007-40.299999999999955 120.20000000000005-81.39999999999998 31.700000000000045-41.60000000000002 42.200000000000045-82.39999999999998 43.299999999999955-87l0.3000000000000682-1c12.5-58.89999999999998 3.2999999999999545-106.70000000000005-27.600000000000023-141.90000000000003z m-64.60000000000002 124.00000000000006c-0.7999999999999545 2.8999999999999773-8.5 29.5-28.199999999999932 55.299999999999955-12.600000000000023 16.5-27.100000000000023 29.100000000000023-43.60000000000002 37.799999999999955v-185.09999999999997c22.399999999999977 1.8000000000000114 49.60000000000002 7.400000000000034 63.60000000000002 23.400000000000034 12.199999999999932 13.899999999999977 15 37 8.199999999999932 68.60000000000002z"/>
</svg>
