<svg xmlns="http://www.w3.org/2000/svg" viewBox="0 0 1000 1000" width="1000" height="1000">
<path d="M607 319.7h0.20000000000004547-0.20000000000004547z m-249 18.19999999999999h0.19999999999998863l0.8000000000000114-0.2999999999999545c-0.39999999999997726 0.0999999999999659-0.8000000000000114 0.19999999999998863-1 0.2999999999999545z m578.9 157.40000000000003l-0.1999999999999318-0.5c-6.7000000000000455-18.600000000000023-22.90000000000009-29.80000000000001-46.90000000000009-32.19999999999999-17.799999999999955-1.8000000000000114-33.299999999999955 1.6999999999999886-33.89999999999998 1.7999999999999545-2.8999999999999773 0.6000000000000227-6.100000000000023 1.7000000000000455-9.5 3.2000000000000455-0.1999999999999318 0-0.2999999999999545-0.20000000000004547-0.5-0.10000000000002274l-56.69999999999993 10.300000000000011c-3.2000000000000455-4.5-7.300000000000068-8-11.5-10.5 29.299999999999955-1.1000000000000227 49.89999999999998-1.900000000000034 58.09999999999991-2.1999999999999886 0.7000000000000455 0.5999999999999659 1.6000000000000227 1 2.6000000000000227 1 0.5 0 1.1000000000000227-0.10000000000002274 1.6000000000000227-0.30000000000001137l2.6000000000000227-1 1.8999999999999773-0.10000000000002274-0.10000000000002274-0.5999999999999659 16.200000000000045-6.5 0.1999999999999318-2.7000000000000455c5.900000000000091-106.39999999999998-5.399999999999977-126.69999999999999-6.699999999999932-128.7-0.20000000000004547-0.39999999999997726-0.7000000000000455-0.39999999999997726-1-0.6999999999999886l0.1999999999999318-0.6999999999999886-3.5-1.400000000000034c-39-15.699999999999989-94.79999999999995-20.5-165.79999999999995-14.299999999999955-31.700000000000045 2.7999999999999545-59.39999999999998 7.2999999999999545-76.60000000000002 10.399999999999977 2.7000000000000455-0.5 11.100000000000023-1.8999999999999773 13.700000000000045-2.3000000000000114 30.600000000000023 7.100000000000023 66.29999999999995 18 109.79999999999995 37.60000000000002 3.2000000000000455 1.3000000000000114 3.2000000000000455 7.199999999999989 1.8000000000000682 10.399999999999977-0.20000000000004547 0.6000000000000227-0.7000000000000455 0.9000000000000341-1.1000000000000227 1.3000000000000114 1-3.1000000000000227-0.3000000000000682-6.5-3.2000000000000455-7.800000000000011-41.39999999999998-18.30000000000001-83.89999999999998-31.30000000000001-121.19999999999993-39.19999999999999-2.6000000000000227 0.5-5.100000000000023 0.8999999999999773-7.2000000000000455 1.3999999999999773-65.89999999999998-10.599999999999966-122.69999999999999-7.599999999999966-164.89999999999998-1.1999999999999886-30.80000000000001 4.699999999999989-56.30000000000001 11.400000000000034-76 17.80000000000001 2.8999999999999773-0.8000000000000114 9.799999999999955-2.6999999999999886 11.799999999999955-3.1999999999999886 6.2000000000000455 0.5 10.700000000000045 1.099999999999966 16.5 1.8000000000000114 1.900000000000034 0 6.5 0.6999999999999886 8.400000000000034 0.8999999999999773 33.69999999999999 4.399999999999977 61.30000000000001 15.300000000000011 85.39999999999998 28.19999999999999 2.3000000000000114 1.1999999999999886 3.1000000000000227 3.900000000000034 1.900000000000034 5.800000000000011-0.20000000000004547 0.39999999999997726-0.7000000000000455 0.5-1.1000000000000227 0.8000000000000114 0.6999999999999886-1.8000000000000114 0.10000000000002274-4-1.8000000000000114-5-24.19999999999999-12.600000000000023-53.69999999999999-21.19999999999999-87.59999999999997-25.600000000000023-1.900000000000034-0.19999999999998863-3.900000000000034-0.5-5.900000000000034-0.5999999999999659-7.699999999999989-0.9000000000000341-20.099999999999966-2.3000000000000114-28.399999999999977-2.8000000000000114-5.400000000000034 1.8000000000000114-10.5 3.5-14.900000000000034 5.099999999999966-7.399999999999977 0.10000000000002274-15 0.4000000000000341-22.69999999999999 0.8000000000000114-54 3.1999999999999886-95.69999999999999 13.100000000000023-96.1 13.100000000000023l-0.09999999999999432 0.0999999999999659c-45.900000000000006 12.700000000000045-78.4 38.30000000000001-97.5 57.700000000000045-20.700000000000003 20.799999999999955-30.599999999999994 38.599999999999966-31 39.299999999999955-0.5999999999999943 1-0.5999999999999943 2.2000000000000455-0.20000000000000284 3.2000000000000455 0.10000000000000853 1.3999999999999773 0.5 2.6999999999999886 1.7999999999999972 3.5 5 3 15.400000000000006 5.599999999999966 30.80000000000001 7.7999999999999545-11.800000000000011 2.6000000000000227-24.80000000000001 7.2000000000000455-29.900000000000006 15.800000000000011-2.799999999999997 4.699999999999989-3.0999999999999943 10.100000000000023-0.7000000000000028 16-6.3999999999999915 2.900000000000034-23.89999999999999 12.000000000000057-28.200000000000003 25.400000000000034-1.6999999999999886 5.5-0.8999999999999915 11 2.1000000000000085 16.399999999999977-1.1000000000000085 0.5-2.200000000000003 1.1000000000000227-3.299999999999997 1.7999999999999545l-0.5 0.3000000000000682-0.30000000000001137 0.5c-0.29999999999999716 0.6000000000000227-7.799999999999997 13.600000000000023-3.8999999999999915 23 1.5 3.5 4.5 5.899999999999977 8.5 7.2999999999999545-0.10000000000000853 3 0.09999999999999432 7 0.7000000000000028 11.600000000000023 0.6999999999999886 9.700000000000045 3.6999999999999886 22.799999999999955 13 36.10000000000002 15.799999999999997 22.5 44.099999999999994 37.10000000000002 84.19999999999999 43.299999999999955l49.70000000000002 1.6000000000000227h0.09999999999999432c0.799999999999983 0 1.5-0.39999999999997726 2.0999999999999943-0.7999999999999545 1.4000000000000057 1.2999999999999545 2.9000000000000057 2.599999999999909 4.599999999999994 3.8999999999999773 8 5.699999999999932 17.099999999999994 7.699999999999932 26.099999999999994 7.699999999999932 9.699999999999989 0 19.100000000000023-2.3999999999999773 26.900000000000034-5.099999999999909l1.099999999999966-0.40000000000009095 0.4000000000000341-1.099999999999909c0-0.10000000000002274 0.0999999999999659-0.5 0.19999999999998863-1l562.0999999999999 21.799999999999955 0.20000000000015916 0.6000000000000227 1.1000000000000227-0.6000000000000227h0.09999999999990905c1.2000000000000455 0 2.1000000000000227-0.7000000000000455 2.7000000000000455-1.5l0.20000000000004547-0.10000000000002274c5.399999999999977-2.8999999999999773 11.699999999999932-13.299999999999955 12.599999999999909-68.10000000000002 0.3000000000000682-18.799999999999955-0.1999999999999318-37.19999999999993-0.599999999999909-48.39999999999998 18 6.899999999999977 24.799999999999955 14 24.899999999999977 14.200000000000045l0.8999999999999773 1 1.2999999999999545-0.20000000000004547c8.200000000000045-1.3999999999999773 14.200000000000045-5.2999999999999545 17.800000000000068-11.600000000000023 8.299999999999955-14.299999999999955 0.6000000000000227-35.799999999999955 0.2999999999999545-36.69999999999993 9.700000000000045-0.8999999999999773 16.200000000000045-2.6000000000000227 17.399999999999977-3 19.5-2.800000000000068 14.800000000000068-41.200000000000045 14.600000000000023-42.80000000000001z m-87.39999999999998-156c2.7999999999999545 12.899999999999977 6.600000000000023 43.89999999999998 2.8999999999999773 112.59999999999997l-9.100000000000023 3.6000000000000227c-6-50.30000000000001 1.8000000000000682-96.10000000000002 6.2000000000000455-116.19999999999999z m-16.399999999999977 135.5c-15 9-30.800000000000068 21.5-39.700000000000045 28.69999999999999 1.7000000000000455-7.899999999999977 1.2000000000000455-15-1.6999999999999318-21.19999999999999l41.39999999999998-7.5z m-66-93.90000000000003c5.600000000000023-5.599999999999966 13.699999999999932-6.199999999999989 18.299999999999955-1.5 4.600000000000023 4.400000000000034 4 12.700000000000045-1.5 18.30000000000001-5.600000000000023 5.600000000000023-13.699999999999932 6.199999999999989-18.299999999999955 1.5-4.600000000000023-4.599999999999966-4.100000000000023-12.699999999999989 1.5-18.30000000000001z m-27 87.80000000000001c9.699999999999932-0.30000000000001137 18.699999999999932-0.6999999999999886 27.199999999999932-1 5.5 2.1000000000000227 12.700000000000045 5.900000000000034 17.40000000000009 12.199999999999989-0.20000000000004547 0.4000000000000341-0.40000000000009095 0.8000000000000114-0.3000000000000682 1.3000000000000114 0.20000000000004547 1.1999999999999886 1.2000000000000455 1.900000000000034 2.300000000000068 2 3.2999999999999545 6.300000000000011 3.7999999999999545 13.900000000000034 1.1999999999999318 22.600000000000023l0.10000000000002274 0.19999999999998863v0.30000000000001137s-0.10000000000002274 0.8000000000000114-0.6000000000000227 2.1999999999999886c-0.5 0.39999999999997726-0.8999999999999773 0.6999999999999886-1 0.8999999999999773-0.7999999999999545 0.7000000000000455-0.8999999999999773 1.8000000000000114-0.39999999999997726 2.800000000000068-1.7000000000000455 3.699999999999932-5 9.5-11 17.5l-3.8999999999999773 2.2999999999999545c-0.3000000000000682 0.20000000000004547-0.39999999999997726 0.5-0.6000000000000227 0.7999999999999545-3.8999999999999773 1.3000000000000682-6.899999999999977 4.2000000000000455-7.100000000000023 4.300000000000068l-0.6000000000000227 0.6000000000000227-0.09999999999990905 0.7999999999999545c-0.20000000000004547 1.7000000000000455-0.7000000000000455 2.3999999999999773-1.2000000000000455 2.8999999999999773-0.2999999999999545 0-0.7000000000000455-0.10000000000002274-1.1000000000000227 0l-2.1000000000000227 0.8999999999999773c-1.6999999999999318-0.09999999999990905-3.5-0.599999999999909-4.199999999999932-0.8999999999999773-7.600000000000023-4.5-14.300000000000068-5.699999999999932-20-3.6000000000000227l-0.8999999999999773 0.40000000000009095c-18.40000000000009 3.099999999999909-37-2.900000000000091-37.200000000000045-3l-40-11.5c3.3999999999999773-0.900000000000091 7-1.900000000000091 10.899999999999977-3 10.200000000000045 3.2999999999999545 40.60000000000002 12.599999999999909 61.80000000000007 14.599999999999909 1 0.20000000000004547 5.5 1.2000000000000455 11.699999999999932 1.2000000000000455 9.100000000000023 0 22-2.1000000000000227 33.39999999999998-11.299999999999955l0.40000000000009095-0.40000000000009095c0.39999999999997726-0.5 10.099999999999909-12.699999999999932 11.299999999999955-25.299999999999955v-0.39999999999997726c-0.10000000000002274-0.8000000000000114-1.5-20.80000000000001-17.100000000000023-27.30000000000001l-0.39999999999997726-0.10000000000002274c-1.2999999999999545-0.30000000000001137-31.5-7.199999999999989-62.10000000000002 16-27.699999999999932 21.100000000000023-53.89999999999998 41.00000000000006-103.79999999999995 32.00000000000006-0.20000000000004547 0-0.3000000000000682 0.09999999999990905-0.6000000000000227 0.09999999999990905l-16.399999999999977-2.099999999999909 3.699999999999932-1.6000000000000227c6.600000000000023 0.6999999999999318 57.80000000000007 5.2999999999999545 76.70000000000005-7.7000000000000455 0.6000000000000227-0.39999999999997726 42.700000000000045-29.799999999999955 74.60000000000002-39.69999999999999z m-102 81.00000000000006c-8.600000000000023-1.2000000000000455-14-0.20000000000004547-16.800000000000068 3-0.7999999999999545 1-1.1999999999999318 1.8999999999999773-1.3999999999999773 2.7999999999999545l-22.199999999999932-2.2999999999999545-0.6000000000000227 0.2999999999999545c-16.600000000000023 7.7999999999999545-44.30000000000007-9.299999999999955-44.5-9.5l-0.7000000000000455-0.39999999999997726-0.7999999999999545 0.10000000000002274c-13.5 1-17.800000000000068-11.100000000000023-18-11.600000000000023l-0.20000000000004547-0.39999999999997726-0.1999999999999318-0.3000000000000682-0.7000000000000455-0.6000000000000227 4.2000000000000455-14.599999999999909 96.39999999999998 12.599999999999909c0.39999999999997726 0.3000000000000682 0.8999999999999773 0.5 1.5 0.5 0.1999999999999318 0 0.39999999999997726 0 0.6000000000000227-0.09999999999990905l0.5-0.10000000000002274 38.19999999999993 5h0.3000000000000682l0.2999999999999545-0.10000000000002274 20.600000000000023 6c0.6999999999999318 0.20000000000004547 12.799999999999955 4.2000000000000455 27.600000000000023 4.2000000000000455 1.3999999999999773 0 2.7999999999999545-0.10000000000002274 4.2999999999999545-0.20000000000004547-0.5 0.7000000000000455-1 1.5-1.2999999999999545 2-5.900000000000091-0.20000000000004547-9.900000000000091 1.2999999999999545-11.900000000000091 4.7999999999999545 0 0.10000000000002274 0 0.20000000000004547-0.09999999999990905 0.20000000000004547l-0.3000000000000682-0.10000000000002274-27.899999999999977 6.100000000000023-0.20000000000004547-0.10000000000002274-27.899999999999977-2.1000000000000227c-5.399999999999977-2.599999999999909-13.299999999999955-4.199999999999932-18.799999999999955-5.099999999999909z m13.299999999999955 8.199999999999932c-3.1000000000000227-0.6999999999999318-6.2999999999999545-0.8999999999999773-9.399999999999977-0.2999999999999545-6.899999999999977 1.3999999999999773-12.5 5.7999999999999545-16.799999999999955 10.199999999999932 0.09999999999990905-3.099999999999909 0-6.5-0.7000000000000455-10.199999999999932v-0.20000000000004547c0-0.10000000000002274-0.20000000000004547-0.8999999999999773 0.5-1.6999999999999318 0.7000000000000455-0.8000000000000682 3.3999999999999773-2.6000000000000227 12.399999999999977-1.3000000000000682 5.100000000000023 0.8000000000000682 10.100000000000023 2.1000000000000227 14 3.300000000000068v0.1999999999999318z m-32.19999999999993 17.300000000000068c-1.7000000000000455 2.5-2.7000000000000455 4.2999999999999545-2.800000000000068 4.599999999999909-0.1999999999999318 0.3000000000000682-0.10000000000002274 0.7000000000000455-0.10000000000002274 1-3.099999999999909 3.7000000000000455-7 4.7000000000000455-8.299999999999955 4.900000000000091-7.399999999999977-3-16.899999999999977-17.90000000000009-21.100000000000023-25.5 4 0 8-0.5 11.600000000000023-2l21.5 2.199999999999932c0.7999999999999545 5.899999999999977 0.5 10.899999999999977-0.7999999999999545 14.800000000000068z m-119.70000000000005-43.90000000000009c-0.6000000000000227-0.8999999999999773-1.3000000000000114-1.5-2-2.099999999999909 3.3999999999999773-0.900000000000091 7-1.6000000000000227 10.699999999999989-1.8000000000000682-0.19999999999998863 0.6000000000000227-0.19999999999998863 1.3000000000000682 0.19999999999998863 1.8999999999999773 10.5 18.800000000000068-6.7999999999999545 32.5-8.699999999999989 34-2.5-1.2999999999999545-4.800000000000011-3.199999999999932-5.300000000000011-5.599999999999909-0.5-3.1000000000000227 2.2000000000000455-6.300000000000068 3.3000000000000114-7.300000000000068l0.4000000000000341-0.2999999999999545 0.19999999999998863-0.5c3.3999999999999773-8.200000000000045 3.8999999999999773-14.300000000000068 1.1999999999999886-18.300000000000068z m-27.100000000000023 0.10000000000002274c-0.7999999999999545-0.1999999999999318-1.6999999999999886-0.1999999999999318-2.599999999999966-0.6000000000000227-0.5-0.1999999999999318-1-0.599999999999909-1.5-1 18.899999999999977-4.899999999999977 30.099999999999966-12.099999999999909 36.599999999999966-18.899999999999977 0.20000000000004547 0.10000000000002274 0.5 0.20000000000004547 0.8000000000000114 0.20000000000004547 0.19999999999998863 0 0.5 0 0.6999999999999886-0.10000000000002274 5.600000000000023-1.8000000000000114 55.10000000000002-18 60.30000000000007-33.89999999999998 0.39999999999997726-1.2000000000000455 0.39999999999997726-2.3000000000000114 0.2999999999999545-3.5l7.899999999999977-0.20000000000004547c0 1-0.10000000000002274 2.3000000000000114-0.6999999999999318 4-3.7000000000000455 9.600000000000023-21.700000000000045 29.200000000000045-101.80000000000007 54z m59.30000000000007-16.699999999999932l-3.6000000000000227 12.599999999999909c-4.100000000000023-2.8999999999999773-9.300000000000068-4.399999999999977-15.5-4.599999999999909 7-2.800000000000068 13.399999999999977-5.400000000000091 19.100000000000023-8z m-19 12.599999999999909c6.199999999999932 0.20000000000004547 12 2 16 6.800000000000068 2.099999999999909 5.600000000000023 9 15.100000000000023 22 14.399999999999977 1.3999999999999773 0.7999999999999545 5 2.7999999999999545 9.599999999999909 5l-53.39999999999998 9.5c5.899999999999977-6.399999999999977 14.600000000000023-19.5 5.800000000000068-35.700000000000045z m204.79999999999995 25.800000000000068c1.3999999999999773-2.3999999999999773 5.7000000000000455-2.6000000000000227 9-2.300000000000068l1.7999999999999545 0.20000000000004547 0.6000000000000227-1.7000000000000455c0-0.09999999999990905 1.8000000000000682-4.2999999999999545 6-6.399999999999977l3.1000000000000227-0.5c0.2999999999999545-0.10000000000002274 0.6000000000000227-0.39999999999997726 0.7999999999999545-0.6000000000000227 3.6000000000000227-0.2999999999999545 7.800000000000068 0.900000000000091 12.600000000000023 3.7000000000000455l-33.799999999999955 15c-0.8000000000000682-3-1.1000000000000227-5.7000000000000455-0.10000000000002274-7.399999999999977z m34.5-66.70000000000005c-1.1000000000000227-0.6999999999999886-2.6000000000000227-0.39999999999997726-3.2999999999999545 0.7000000000000455-3.1000000000000227 4.599999999999966-33.700000000000045 15-70.10000000000002 25.299999999999955 10.600000000000023-6 20.399999999999977-13.399999999999977 30.299999999999955-20.899999999999977 27.600000000000023-20.899999999999977 55.39999999999998-15.800000000000011 57.89999999999998-15.199999999999989 12 5.099999999999966 13.800000000000068 21.099999999999966 14 22.899999999999977-1.099999999999909 10.300000000000011-8.899999999999977 20.80000000000001-10.099999999999909 22.400000000000034-18 14.399999999999977-40.700000000000045 9-41 9l-0.3000000000000682-0.10000000000002274c-7.2999999999999545-0.7000000000000455-15.799999999999955-2.2999999999999545-24.199999999999932-4.2000000000000455l42.09999999999991-1.7999999999999545c1.3000000000000682-0.10000000000002274 2.400000000000091-1.2000000000000455 2.300000000000068-2.5-0.10000000000002274-1.2999999999999545-1.2000000000000455-2.2999999999999545-2.5-2.2999999999999545l-56.5 2.3999999999999773c-0.3000000000000682 0-0.5 0.1999999999999318-0.7000000000000455 0.2999999999999545-5.399999999999977-1.5-10.299999999999955-2.8999999999999773-14.399999999999977-4.100000000000023 4.899999999999977-1.3999999999999773 9.899999999999977-2.7999999999999545 14.899999999999977-4.2999999999999545 57.30000000000007-16.80000000000001 60.89999999999998-22.19999999999999 62.30000000000007-24.30000000000001 0.6999999999999318-1.099999999999966 0.39999999999997726-2.599999999999966-0.7000000000000455-3.3000000000000114z m-76-73.39999999999998c5-3.5 11.399999999999977-2.6999999999999886 14.299999999999955 1.5 2.900000000000091 4.199999999999989 1 10.399999999999977-4.199999999999932 13.899999999999977-5 3.3000000000000114-11.399999999999977 2.5-14.300000000000068-1.6999999999999886-2.699999999999932-4.199999999999989-1-10.399999999999977 4.2000000000000455-13.699999999999989z m-38.799999999999955 58.89999999999998c19.899999999999977-0.5999999999999659 38.89999999999998-1.1999999999999886 56.89999999999998-1.6999999999999886l-58.39999999999998 7.800000000000011c0.6999999999999318-2 1.1999999999999318-4 1.5-6.100000000000023z m-3.5 11.200000000000045h0.2999999999999545l85.5-11.5c-27.600000000000023 12.599999999999966-55 31.599999999999966-56.700000000000045 32.799999999999955-13.599999999999909 9.399999999999977-47.89999999999998 8.600000000000023-64.59999999999991 7.5 1.6999999999999318-0.6999999999999886 3.2999999999999545-1.3999999999999773 5-2.1999999999999886 14.899999999999977-7 25.09999999999991-16.099999999999966 30.299999999999955-26.69999999999999l0.20000000000004547 0.10000000000002274z m-1.400000000000091-11.100000000000023c-6.399999999999977 34-62.19999999999993 43.299999999999955-62.799999999999955 43.39999999999998l-0.20000000000004547 0.10000000000002274-17.699999999999932-2.2999999999999545c6.600000000000023-0.900000000000091 14.299999999999955-2.2000000000000455 22.399999999999977-4.400000000000034 26.899999999999977-7.199999999999989 44.299999999999955-19.80000000000001 50.700000000000045-36.69999999999999 2.5 0.0999999999999659 5.099999999999909 0 7.599999999999909-0.10000000000002274z m-52.69999999999993 1.3999999999999773c13.5-0.2999999999999545 26.799999999999955-0.6999999999999886 39.799999999999955-1-12.600000000000023 28-57.299999999999955 35.30000000000001-76.79999999999995 37 23.899999999999977-12.299999999999955 33.19999999999993-22.599999999999966 36-30.099999999999966 0.8999999999999773-2.400000000000034 1-4.300000000000011 1-5.900000000000034z m-18.899999999999977-104.5c7.2999999999999545-1.5 14.299999999999955 2.1000000000000227 15.599999999999909 8.300000000000011 1.2000000000000455 6.199999999999989-3.699999999999932 12.300000000000011-11.199999999999932 13.900000000000034-7.100000000000023 1.2999999999999545-14.300000000000068-2.3000000000000114-15.399999999999977-8.5-1.3000000000000682-6.100000000000023 3.599999999999909-12.300000000000011 11-13.700000000000045z m1.5 104.90000000000003c0.09999999999990905 0.5999999999999659 0 1.1999999999999886-0.20000000000004547 1.8999999999999773-1 3.1000000000000227-6.2000000000000455 10-29.799999999999955 20.400000000000034-8.800000000000068 3.8999999999999773-17.40000000000009 7-22.500000000000057 8.799999999999955 4.000000000000057-6.2999999999999545 4.400000000000034-11.099999999999966 4.400000000000034-11.5 1-10.699999999999989-2.1000000000000227-13.899999999999977-4.800000000000011-16.69999999999999-0.6000000000000227-0.5999999999999659-1-1.1999999999999886-1.400000000000034-1.6999999999999886 18.300000000000068-0.39999999999997726 36.39999999999998-0.6999999999999886 54.30000000000007-1.1999999999999886z m-59.50000000000006 1.3000000000000114c0 0.39999999999997726-0.0999999999999659 0.8999999999999773 0.19999999999998863 1.2999999999999545 0.9000000000000341 1.6000000000000227 2 2.7000000000000455 3 3.7000000000000455 2.3000000000000114 2.2999999999999545 4.2000000000000455 4.399999999999977 3.5 13 0 0.0999999999999659-0.39999999999997726 5.599999999999966-5.899999999999977 12.299999999999955-5.100000000000023 6.300000000000011-15.899999999999977 14.899999999999977-37.89999999999998 20.300000000000068-0.30000000000001137 0.09999999999990905-0.5 0.39999999999997726-0.8000000000000114 0.599999999999909-1.6000000000000227-2.099999999999909-2.8000000000000114-4.5-3.6000000000000227-6.2999999999999545 18.900000000000034 3 33.60000000000002-11.199999999999989 34.19999999999999-11.800000000000011l0.30000000000001137-0.19999999999998863 0.19999999999998863-0.30000000000001137c5.100000000000023-9.699999999999989 6.100000000000023-18.099999999999966 3-24.899999999999977-1.5-3.1999999999999886-3.599999999999966-5.5-5.899999999999977-7.300000000000011 3.1999999999999886-0.30000000000001137 6.399999999999977-0.30000000000001137 9.699999999999989-0.39999999999997726z m-41.099999999999966 0.6999999999999886c7.099999999999966-0.10000000000002274 14.299999999999955-0.19999999999998863 21.599999999999966-0.30000000000001137 2.3000000000000114 0.8000000000000114 8.5 3.3000000000000114 11.100000000000023 9.199999999999989 2.3999999999999773 5.300000000000011 1.5 12.100000000000023-2.6999999999999886 20.30000000000001-2 1.8999999999999773-15.900000000000034 14-32.30000000000001 9.899999999999977-0.19999999999998863-0.10000000000002274-0.5 0.10000000000002274-0.6999999999999886 0.10000000000002274-6.400000000000034-5.399999999999977-12.900000000000034-7.899999999999977-19.200000000000045-7.399999999999977-5.5 0.39999999999997726-9.5 3.099999999999966-11.699999999999989 4.899999999999977l-0.30000000000001137-0.10000000000002274-24.5 0.8000000000000682c10.800000000000011-5.600000000000023 21.80000000000001-12.400000000000034 32.10000000000002-20.600000000000023l0.10000000000002274-0.10000000000002274c0.0999999999999659-0.10000000000002274 7.399999999999977-6.800000000000011 17-12.300000000000011 2.8999999999999773-1.5 6.099999999999966-3.099999999999966 9.5-4.399999999999977z m-42.900000000000034 48.599999999999966h-40.30000000000001c4.5-1.7999999999999545 9.200000000000045-3.7999999999999545 14-6l29.80000000000001-1c-2 2.2000000000000455-3.099999999999966 4.5-3.5 7z m12 19c-2.3000000000000114 3.5-4 7-4.899999999999977 8.899999999999977-47.69999999999999 8.800000000000068-70.19999999999999 4.100000000000023-75.5 2.7000000000000455-0.8000000000000114-3.5-2.6000000000000227-6.399999999999977-4.600000000000023-8.799999999999955l0.10000000000002274-0.20000000000004547v-11c3.3000000000000114-0.7999999999999545 7.899999999999977-2.1000000000000227 13.399999999999977-3.8999999999999773 0.30000000000001137 0.1999999999999318 0.6000000000000227 0.39999999999997726 1 0.39999999999997726h59.60000000000002c2.6999999999999886 5.7000000000000455 8.199999999999989 10 10.899999999999977 11.899999999999977z m1.3000000000000114-54.39999999999998c-35.39999999999998 28.100000000000023-80.30000000000001 39.799999999999955-90.5 42.200000000000045 0.19999999999998863-3.1000000000000227-0.19999999999998863-5.900000000000091-1.3000000000000114-8.600000000000023l-0.6999999999999886-1.1000000000000227c8.899999999999977-1.7000000000000455 37-7.7999999999999545 66.39999999999998-25 1-0.6000000000000227 21.600000000000023-12.600000000000023 32.5-20.399999999999977 3.900000000000034-0.10000000000002274 7.600000000000023-0.10000000000002274 11.600000000000023-0.10000000000002274-9.600000000000023 5.5-17 12.100000000000023-18 13z m-98.19999999999999-12.199999999999989h8c1.6999999999999886 6.399999999999977 6 27.5-7 38.599999999999966v0.10000000000002274c-2.5-1.8999999999999773-4.600000000000023-2.7999999999999545-4.800000000000011-2.8999999999999773l-0.39999999999997726-0.20000000000004547h-0.4000000000000341l-1.5 0.20000000000004547c3.1999999999999886-4.2000000000000455 5.900000000000034-9 7.400000000000034-15 0.5-1 1.8999999999999773-4.400000000000034 2.099999999999966-8.900000000000034-0.0999999999999659-3.099999999999966-0.8000000000000114-7.399999999999977-3.3999999999999773-11.899999999999977z m7.300000000000011 59.49999999999994v5.5c-0.6000000000000227-0.5-1.3000000000000114-1-1.8000000000000114-1.3999999999999773 0.5999999999999659-1.3999999999999773 1-2.699999999999932 1.3000000000000114-4l0.5-0.10000000000002274z m86.5-130.19999999999993c7.699999999999989-1.7000000000000455 14.799999999999955 2.2999999999999545 16.19999999999999 8.699999999999989s-3.900000000000034 12.899999999999977-11.600000000000023 14.399999999999977c-7.5 1.5-14.800000000000011-2.5-16-8.899999999999977-1.3000000000000114-6.300000000000011 3.6999999999999886-12.600000000000023 11.400000000000034-14.199999999999989z m2.1999999999999886 70.09999999999997c-11.100000000000023 7.300000000000011-26.100000000000023 16-26.30000000000001 16.100000000000023-27 15.800000000000011-53.39999999999998 22.19999999999999-63.39999999999998 24.19999999999999 2.3999999999999773-2.6000000000000227 4.399999999999977-5.600000000000023 5.7999999999999545-9.100000000000023 5.400000000000034-1.5 51-14.699999999999989 68.40000000000003-31 5.099999999999966 0 10.399999999999977-0.0999999999999659 15.5-0.19999999999998863z m-23.100000000000023 0.30000000000001137c-16.599999999999966 12.100000000000023-49 22.399999999999977-59.30000000000001 25.5 0.8000000000000114-3.6000000000000227 1.3000000000000114-7.5 1.2000000000000455-11.800000000000011-0.20000000000004547-5.599999999999966-1.1000000000000227-10.300000000000011-1.900000000000034-13.399999999999977 19 0 38.900000000000034-0.10000000000002274 60-0.30000000000001137z m-72.89999999999998-96.19999999999999c7.5 0 13.699999999999989 5.199999999999989 13.699999999999989 11.399999999999977 0 6.400000000000034-6.199999999999989 11.400000000000034-13.699999999999989 11.400000000000034-7.300000000000011 0-13.5-5-13.5-11.400000000000034 0-6.199999999999989 6.199999999999989-11.399999999999977 13.5-11.399999999999977z m-110.5 25.099999999999966c11.199999999999989 0 20 7.5 20 16.80000000000001 0 9.100000000000023-8.900000000000006 16.600000000000023-20 16.600000000000023-11 0-19.80000000000001-7.5-19.80000000000001-16.600000000000023-0.09999999999999432-9.300000000000011 8.800000000000011-16.80000000000001 19.80000000000001-16.80000000000001z m-116.30000000000001 50.30000000000001c-0.4000000000000057-0.0999999999999659-0.9000000000000057-0.19999999999998863-1.2000000000000028-0.39999999999997726 4.799999999999997-7.699999999999989 21.700000000000003-33 52.10000000000001-55.900000000000034-29.700000000000017 23.200000000000045-46.30000000000001 48.400000000000034-50.900000000000006 56.30000000000001z m-33 71.50000000000006c4.400000000000006-13.900000000000091 27.5-23.300000000000068 27.700000000000003-23.400000000000034l2.3999999999999915-1-1.1999999999999886-2.3000000000000114c-2.700000000000003-5.300000000000011-2.8000000000000114-9.800000000000011-0.5-13.699999999999989 3.5999999999999943-6 13-10.699999999999989 27.400000000000006-13.699999999999989 6.5-1.400000000000034 12.599999999999994-2.1000000000000227 16.69999999999999-2.400000000000034 15.099999999999994 1.5 33.400000000000006 2.6999999999999886 54.900000000000006 3.6000000000000227-8.200000000000017 10.199999999999989-13.599999999999994 17.30000000000001-13.599999999999994 17.30000000000001-20.80000000000001 25.399999999999977-51.20000000000002 32.799999999999955-51.5 32.799999999999955-1.3000000000000114 0.3000000000000682-2.1000000000000227 1.6000000000000227-1.8000000000000114 2.8999999999999773 0.19999999999998863 1.1000000000000227 1.1999999999999886 1.900000000000091 2.3000000000000114 1.900000000000091 0.19999999999998863 0 0.39999999999997726 0 0.5-0.10000000000002274 1.299999999999983-0.3000000000000682 32.29999999999998-7.7000000000000455 54.19999999999999-34.5 0.09999999999999432-0.10000000000002274 6.400000000000006-8.400000000000034 15.800000000000011-20.100000000000023 33 1.3000000000000114 73.39999999999998 2.1000000000000227 120.69999999999999 2.1999999999999886 7.300000000000011 9.400000000000034 2.6999999999999886 18.5 2.5 18.900000000000034l-0.19999999999998863 0.2999999999999545-0.10000000000002274 0.30000000000001137c-5.199999999999989 22.000000000000057-29.399999999999977 29.599999999999966-32.69999999999999 30.500000000000057-24.600000000000023-2.300000000000068-32.89999999999998-10-32.89999999999998-10.100000000000023l-0.5-0.39999999999997726-0.6000000000000227-0.20000000000004547c-7.599999999999994-2.1000000000000227-18.099999999999994-2.6000000000000227-28.69999999999999-2.3999999999999773 1.0999999999999943-1.7000000000000455 1.5-3.5 1.1999999999999886-5.300000000000011-0.6999999999999886-4.699999999999989-5.699999999999989-8-9.400000000000006-9.800000000000011 11.300000000000011-7.600000000000023 35.70000000000002-20.899999999999977 61.00000000000003-15 1.2999999999999545 0.30000000000001137 2.599999999999966-0.5 2.8999999999999773-1.8000000000000114 0.30000000000001137-1.3000000000000114-0.5-2.599999999999966-1.8000000000000114-2.8999999999999773-36.79999999999998-8.600000000000023-70.39999999999998 19.69999999999999-71.79999999999998 20.899999999999977l-0.20000000000001705 0.19999999999998863c-6.799999999999983 7.5-15.199999999999989 13-23.599999999999994 17.300000000000068h-0.19999999999998863c-0.4000000000000057 0.09999999999990905-0.700000000000017 0.39999999999997726-1.0999999999999943 0.599999999999909-5.900000000000006 2.800000000000068-11.800000000000011 5-17.200000000000017 6.600000000000023 2.4000000000000057-1.2999999999999545 4.900000000000006-2.699999999999932 7.400000000000006-4.399999999999977 19.19999999999999-12.100000000000023 31.69999999999999-26.600000000000023 36.30000000000001-41.89999999999998 0.39999999999997726-1.3000000000000114-0.30000000000001137-2.6000000000000227-1.6000000000000227-3-1.299999999999983-0.4000000000000341-2.5999999999999943 0.2999999999999545-3 1.599999999999966-9.699999999999989 32.10000000000002-53.89999999999998 49.80000000000001-60.19999999999999 52.19999999999999-17.80000000000001 1.8999999999999773-31.200000000000003 3.6000000000000227-32.7 3.800000000000068l-2.0999999999999943 0.1999999999999318-0.4000000000000057-0.2999999999999545c-4.8999999999999915-1.2000000000000455-10.099999999999994 5.899999999999977-12.099999999999994 8.899999999999977-4 2-8.200000000000003 4.899999999999977-12.100000000000009 8.100000000000023-2.0999999999999943-2.800000000000068-6.299999999999997-7.399999999999977-12.199999999999989-8.800000000000068-1.9000000000000057-0.39999999999997726-3.8000000000000114-0.39999999999997726-5.700000000000003-0.1999999999999318-2.9000000000000057-4.300000000000068-3.6000000000000085-8.800000000000068-2.200000000000003-13.399999999999977z m202.10000000000002 13.299999999999955c-0.4000000000000341-1.2000000000000455-1.8000000000000114-1.8999999999999773-3.1000000000000227-1.5-1.1999999999999886 0.39999999999997726-1.8999999999999773 1.7999999999999545-1.5 3 0.10000000000002274 0.20000000000004547 4.399999999999977 13.600000000000023 1.8999999999999773 28.899999999999977-0.19999999999998863 0.20000000000004547-0.5 0.3000000000000682-0.6999999999999886 0.7000000000000455-5.099999999999966 12.299999999999955-25.799999999999983 7.100000000000023-26 7-1.299999999999983-0.3000000000000682-2.5999999999999943 0.39999999999997726-2.8999999999999773 1.6999999999999318s0.39999999999997726 2.6000000000000227 1.6999999999999886 2.900000000000091c0.19999999999998863 0.09999999999990905 5.099999999999994 1.2999999999999545 11 1.2999999999999545h1.3000000000000114c-8.400000000000006 16.899999999999977-21.5 19.200000000000045-26.400000000000006 19.299999999999955-2.8000000000000114-21.799999999999955-8.300000000000011-35.299999999999955-16.400000000000006-40.5l31.30000000000001-9.199999999999932 0.5-0.6000000000000227c8.899999999999977-11.600000000000023 10.300000000000011-20.100000000000023 10.300000000000011-24.299999999999955 7.199999999999989 0.1999999999999318 28.299999999999955 2.5 34.69999999999999 23.59999999999991l0.19999999999998863 0.3000000000000682c-0.10000000000002274 3.2999999999999545 0.39999999999997726 6 0.6999999999999886 7.2999999999999545-4.099999999999966 11.300000000000068-12.5 20.600000000000023-19.80000000000001 27.200000000000045 11.300000000000011-21.899999999999977 3.3000000000000114-46.80000000000007 3.2000000000000455-47.10000000000002z m-40.60000000000002 11.799999999999955l-30.5 9-11.900000000000006-14.599999999999909 42.400000000000006 5.599999999999909z m-46.69999999999999-11c-0.20000000000001705 0-0.4000000000000057 0.10000000000002274-0.6000000000000227 0.20000000000004547l-0.29999999999998295-0.20000000000004547h-0.700000000000017c-1.799999999999983 0-3.6999999999999886 1.3000000000000682-5.5 3-0.09999999999999432-0.6999999999999318-0.19999999999998863-1.3999999999999773-0.39999999999997726-2l-1.3000000000000114-1.6999999999999318v-0.10000000000002274c-2.1999999999999886 1-5.900000000000006 6.5-9.900000000000006 15.200000000000045-15.900000000000006-0.20000000000004547-27.69999999999999 1.3999999999999773-34.79999999999998 4.7999999999999545h-0.10000000000002274l-11.599999999999994 1.8999999999999773v-25.100000000000023c4.400000000000006-0.599999999999909 15.5-1.8999999999999773 29.400000000000006-3.3999999999999773h0.4000000000000057l0.19999999999998863 0.10000000000002274c0.30000000000001137 0 0.5 0 0.8000000000000114-0.10000000000002274l0.19999999999998863-0.10000000000002274c7.700000000000017-0.7999999999999545 16.099999999999994-1.599999999999909 24.700000000000017-2.2999999999999545 49.19999999999999-4.100000000000023 66.79999999999998-2.2999999999999545 72.89999999999998-0.10000000000002274-0.799999999999983 6.100000000000023-5.399999999999977 13.700000000000045-8.199999999999989 17.800000000000068-0.30000000000001137-0.3000000000000682-0.6999999999999886-0.6000000000000227-1.1999999999999886-0.7000000000000455l-54-7.2000000000000455z m19.899999999999977 24.90000000000009v-0.20000000000004547c1 0.10000000000002274 2.1000000000000227 0.2999999999999545 3.5 1.1000000000000227 3.700000000000017 2.1000000000000227 10 9.199999999999932 13.700000000000017 31.899999999999977-8.5 0.39999999999997726-14.599999999999994-1.3999999999999773-17.700000000000017-5.7000000000000455-6.799999999999983-9.299999999999955 0.5-26.899999999999977 0.5-27.09999999999991z m45.70000000000002-41.80000000000007l-2.8000000000000114 0.20000000000004547 0.4000000000000057 1.6999999999999318c-12-3.2999999999999545-39.900000000000006-2.2999999999999545-67.19999999999999-0.1999999999999318 3.299999999999983-1.2000000000000455 6.699999999999989-2.7000000000000455 10.099999999999994-4.399999999999977 7.299999999999983-1 47.599999999999994-6.300000000000068 66.9-1.2000000000000455 2.3000000000000114 1.8999999999999773 12.099999999999966 8.899999999999977 35.80000000000001 11h0.39999999999997726l0.39999999999997726-0.10000000000002274c0.7000000000000455-0.1999999999999318 8.800000000000011-2.3999999999999773 17.30000000000001-8-1.5 2.8999999999999773-2.5 5.7000000000000455-3 7.300000000000068-8.5 2.199999999999932-14.5 6.2999999999999545-17.80000000000001 12.099999999999909-0.39999999999997726 0.7000000000000455-0.5999999999999659 1.5-0.8999999999999773 2.2000000000000455-11.300000000000011-22.399999999999977-39.30000000000001-20.600000000000023-39.599999999999994-20.600000000000023z m-48.70000000000002-8.699999999999932c5.200000000000017-3.5 10.200000000000017-7.500000000000057 14.5-12.300000000000068 0.20000000000001705-0.19999999999998863 0.9000000000000057-0.6999999999999886 1.9000000000000057-1.5 3.3000000000000114 1.3000000000000114 8.800000000000011 4.300000000000011 9.200000000000017 7.300000000000011 0.19999999999998863 1.6999999999999886-1.6000000000000227 3.599999999999966-3.200000000000017 4.800000000000011-8.199999999999989 0.2999999999999545-16.19999999999999 1-22.400000000000006 1.7000000000000455z m-137.6 50.39999999999998c-2.3999999999999915-5.7000000000000455 1.3000000000000114-14.700000000000045 3.3000000000000114-18.300000000000068 3.1999999999999886-2 6.3999999999999915-2.699999999999932 9.5-2 4.699999999999989 1.1000000000000227 8.099999999999994 5.100000000000023 9.699999999999989 7.300000000000068-7.8999999999999915 7.100000000000023-14.5 14.899999999999977-17 17.899999999999977-2.799999999999997-1.1000000000000227-4.599999999999994-2.7000000000000455-5.5-4.899999999999977z m59.10000000000001 5.199999999999932h-47.3l-0.10000000000000853-0.39999999999997726c5.900000000000006-6.899999999999977 18.200000000000003-20 29.10000000000001-25.100000000000023l0.6999999999999886-0.2999999999999545 0.4000000000000057-0.6000000000000227c2.5999999999999943-4.199999999999932 6.200000000000003-7.600000000000023 7.200000000000003-7.399999999999977 0 0 1.2000000000000028 0.7000000000000455 1.5999999999999943 6.2999999999999545v20.300000000000068l0.20000000000000284 0.6000000000000227c-0.09999999999999432 0.2999999999999545-0.29999999999999716 0.599999999999909-0.20000000000000284 1 0.20000000000000284 1.1999999999999318 1.2000000000000028 2 2.4000000000000057 2h0.3999999999999915l6.800000000000011-1.1000000000000227c-1.2000000000000028 2.1000000000000227-1.3000000000000114 3.7999999999999545-1.2000000000000028 4.699999999999932z m4.799999999999997-0.5s0.09999999999999432-1.099999999999909 0.9000000000000057-2.3999999999999773c1.299999999999983-0.1999999999999318 3.0999999999999943-0.39999999999997726 4.400000000000006 0.39999999999997726 0.6999999999999886 0.5 1.1999999999999886 1.400000000000091 1.5999999999999943 2.5h-6.900000000000006c-0.09999999999999432-0.1999999999999318 0-0.2999999999999545 0-0.5z m6.099999999999994 5.300000000000068h1.200000000000017c0.6999999999999886 0 1.1999999999999886-0.3000000000000682 1.6999999999999886-0.7000000000000455 1.8000000000000114 2.2000000000000455 5.400000000000006 6 9.5 9-4.5-1.1000000000000227-9-4.7999999999999545-12.400000000000006-8.299999999999955z m24.30000000000001-0.7000000000000455c-1.0999999999999943 3.6000000000000227-2.8000000000000114 5.800000000000068-4.900000000000006 7.300000000000068-4.5-1.5-10.199999999999989-6.900000000000091-13.599999999999994-11.200000000000045-0.5-3.1000000000000227-2-5.5-4.200000000000017-6.7999999999999545-0.29999999999998295-0.20000000000004547-0.6999999999999886-0.20000000000004547-1.0999999999999943-0.40000000000009095 5-2.099999999999909 14-3.7999999999999545 29.30000000000001-3.7999999999999545-1.8000000000000114 4.399999999999977-3.700000000000017 9.399999999999977-5.5 14.899999999999977z m47.19999999999999 84.80000000000007c-2-3.300000000000068-3.0999999999999943-5.900000000000091-3.0999999999999943-6l-0.19999999999998863-0.40000000000009095v-0.5c0-2.099999999999909-4.900000000000006-6.399999999999977-9.400000000000006-9-11.400000000000006-2.7999999999999545-23.400000000000006-15.299999999999955-23.900000000000006-15.799999999999955l-0.30000000000001137-0.2999999999999545-0.19999999999998863-0.40000000000009095c-8.699999999999989-20.399999999999977 0.09999999999999432-30.899999999999977 3.4000000000000057-33.89999999999998-0.5-16.899999999999977 0.6999999999999886-28 2-35.10000000000002 3.5-6.899999999999977 6.699999999999989-11.5 8.699999999999989-12.299999999999955v0.10000000000002274l1.3000000000000114 1.6000000000000227c0.5999999999999943 1.1999999999999318 0.799999999999983 3-0.30000000000001137 5.399999999999977-0.6999999999999886 1.2999999999999545-6.099999999999994 11.899999999999977-5.099999999999994 43.299999999999955-3.3000000000000114 2.8999999999999773-11.900000000000006 12.899999999999977-3.4000000000000057 32.10000000000002l0.20000000000001705 0.39999999999997726 0.29999999999998295 0.3000000000000682c0.5 0.5 12.400000000000006 12.299999999999955 23.599999999999994 15 4.5 2.599999999999909 9.300000000000011 6.599999999999909 9.300000000000011 8.599999999999909v0.40000000000009095l0.19999999999998863 0.39999999999997726c0.10000000000002274 0.1999999999999318 1.200000000000017 3 3.6000000000000227 6.600000000000023l-6.700000000000017-0.5z m66.70000000000002 9.099999999999909c-44.30000000000001 15.100000000000023-57.5-13.299999999999955-58.900000000000006-16.799999999999955-0.5999999999999943-5.7000000000000455-10.099999999999994-11.299999999999955-12-12.399999999999977l-0.30000000000001137-0.20000000000004547-0.29999999999998295-0.10000000000002274c-9.100000000000023-2-19.400000000000006-11.599999999999909-21.30000000000001-13.5-8.300000000000011-19 2.4000000000000057-26.299999999999955 2.9000000000000057-26.59999999999991l1.1999999999999886-0.7000000000000455v-1.3999999999999773c-1.1999999999999886-32.10000000000002 4.400000000000006-41.80000000000007 4.5-41.89999999999998l0.09999999999999432-0.20000000000004547c0.30000000000001137-0.7000000000000455 0.5-1.2999999999999545 0.700000000000017-1.8999999999999773l10.699999999999989 13.199999999999932h0.09999999999999432c-2 5.600000000000023-5.899999999999977 20 0.8000000000000114 29.300000000000068 3.8000000000000114 5.199999999999932 10.300000000000011 7.7999999999999545 19.19999999999999 7.7999999999999545 1 0 2.1000000000000227-0.10000000000002274 3.1000000000000227-0.1999999999999318l0.39999999999997726 2.599999999999909 0.20000000000001705 1.900000000000091 1.9000000000000057 0.1999999999999318c0.09999999999999432 0 0.6999999999999886 0.10000000000002274 1.6999999999999886 0.10000000000002274 2.3000000000000114 0 6.599999999999994-0.2999999999999545 11.599999999999994-2.2999999999999545 6.5-2.6000000000000227 15.400000000000006-8.600000000000023 21.299999999999983-22.5 2.7000000000000455-0.6000000000000227 5.100000000000023-1.5 7.100000000000023-2.7000000000000455-2.3000000000000114 6.100000000000023-6 12.100000000000023-11.699999999999989 17.299999999999955-21.100000000000023 13.900000000000091-30.5 25-29 33.90000000000009 1.299999999999983 7.599999999999909 10.399999999999977 9.899999999999977 10.699999999999989 10l0.5999999999999943 0.09999999999990905 0.5999999999999943-0.1999999999999318c2.6000000000000227-0.7000000000000455 3.5-0.20000000000004547 3.700000000000017-0.10000000000002274 0.4000000000000057 0.2999999999999545 0.5 1.2000000000000455 0.5 1.7000000000000455-2.9000000000000057 4.2999999999999545-3.5999999999999943 8-2.200000000000017 11 2.200000000000017 4.699999999999932 8.400000000000006 5.399999999999977 9.100000000000023 5.5 15.800000000000011 1.2999999999999545 20.80000000000001 5.199999999999932 22.30000000000001 7.2999999999999545 0.2999999999999545 0.7000000000000455 0.5 1.2999999999999545 0.6999999999999886 1.7999999999999545z m42.89999999999998-61.69999999999993h-0.5l-0.39999999999997726-0.20000000000004547c-0.30000000000001137-0.1999999999999318-8.300000000000011-3.6000000000000227-10.900000000000034-12-1.7999999999999545-5.899999999999977-0.5999999999999659-12.5 3.7000000000000455-19.699999999999932 0.2999999999999545-0.40000000000009095 0.6999999999999886-0.7000000000000455 1.099999999999966-0.8000000000000682 0.19999999999998863-0.5 0.4000000000000341-1 0.8000000000000114-1.1999999999999318 0.10000000000002274-0.10000000000002274 3.6999999999999886-2.900000000000091 7.199999999999989-8.300000000000068l0.6999999999999886-0.6000000000000227s0.30000000000001137-0.599999999999909 0.5-0.8999999999999773h0.20000000000004547c1.1999999999999886-0.5 1.6999999999999886-2 1.1999999999999886-3.199999999999932l-0.10000000000002274-0.20000000000004547c0.9000000000000341-1.8999999999999773 1.6999999999999886-3.8999999999999773 2.3000000000000114-6.399999999999977 0.6999999999999886 0.2999999999999545 1.3999999999999773 0.6999999999999318 2.3000000000000114 1.2999999999999545 1 0.8000000000000682 2.3000000000000114 1.6000000000000227 3.5 2.3999999999999773-0.19999999999998863 0.3000000000000682-0.5 0.5-0.6000000000000227 0.8000000000000682-3.3000000000000114 13.100000000000023-12 18.899999999999977-12.199999999999989 19-0.39999999999997726 0.2999999999999545-0.6999999999999886 0.6999999999999318-0.8000000000000114 1.1999999999999318-0.39999999999997726 0.20000000000004547-0.8000000000000114 0.40000000000009095-1.099999999999966 0.8000000000000682-4.300000000000011 6.7999999999999545-5.5 13.100000000000023-3.7000000000000455 18.600000000000023 1.6000000000000227 4.7999999999999545 4.900000000000034 7.699999999999932 7.5 9.399999999999977h-0.6999999999999886z m13.5 30.199999999999932l-0.39999999999997726-0.1999999999999318-0.30000000000001137-0.3000000000000682c-1.1000000000000227-1.1999999999999318-10.5-11.299999999999955-9.899999999999977-20.199999999999932 0.19999999999998863-2.800000000000068 1.2999999999999545-5.2000000000000455 3.3999999999999773-7.100000000000023 0 0 0-0.10000000000002274-0.10000000000002274-0.20000000000004547 3.5 0.20000000000004547 4.600000000000023 1.1000000000000227 4.800000000000011 1.400000000000091 0.19999999999998863 0.1999999999999318 0.19999999999998863 0.599999999999909 0.19999999999998863 0.7999999999999545-2 1.7000000000000455-3.099999999999966 4-3.2999999999999545 6.7000000000000455-0.6000000000000227 8.5 8.799999999999955 18.09999999999991 9.799999999999955 19.199999999999932l0.30000000000001137 0.3000000000000682 0.4000000000000341 0.1999999999999318c5.399999999999977 2.6000000000000227 10.199999999999989 4.2000000000000455 14.299999999999955 4.899999999999977-5.099999999999966 0-11.5-1.6999999999999318-19.19999999999999-5.5z m112.5-85.79999999999995l-0.5 1.7999999999999545c-0.0999999999999659 0.3000000000000682-0.39999999999997726 0.5-0.30000000000001137 0.900000000000091l0.10000000000002274 0.1999999999999318c-0.10000000000002274 0.5-0.19999999999998863 1-0.39999999999997726 1.5l-0.20000000000004547 0.6000000000000227-0.39999999999997726 0.39999999999997726c-0.19999999999998863 0.20000000000004547-3.3999999999999773 3.800000000000068-4.100000000000023 8.300000000000068-1.5 3.599999999999909-2.099999999999966 8.099999999999909 0.5 12.799999999999955 0 0.10000000000002274 0.8000000000000114 1.7000000000000455 0.20000000000004547 4.399999999999977-0.8000000000000114 2-1.900000000000034 4-3.6000000000000227 5.899999999999977-1.6999999999999886 1.8000000000000682-4 3.7000000000000455-7.399999999999977 5.800000000000068l-5.300000000000011-19.100000000000023c-0.30000000000001137-1.2999999999999545-1.6999999999999886-2-3-1.7000000000000455-1.3000000000000114 0.3000000000000682-2 1.7000000000000455-1.6999999999999886 2.900000000000091l6 21.59999999999991c0.0999999999999659 0.5 0.39999999999997726 0.900000000000091 0.7999999999999545 1.2000000000000455-0.5 1.1000000000000227-1.6999999999999886 2.7000000000000455-5.2999999999999545 4.2999999999999545-1.2000000000000455 0.3000000000000682-6 1.8000000000000682-8.700000000000045 5.900000000000091l-10-24.90000000000009c-0.5-1.1999999999999318-1.8999999999999773-1.7999999999999545-3.099999999999966-1.2999999999999545-1.1999999999999886 0.5-1.8000000000000114 1.8999999999999773-1.3000000000000114 3.1000000000000227l12 30.100000000000023c0.19999999999998863 0.5 0.6000000000000227 0.8999999999999773 1 1.1999999999999318v0.7000000000000455c0 0.6999999999999318-0.19999999999998863 3.5-2.8999999999999773 6.199999999999932-2.8000000000000114 2.800000000000068-8.900000000000034 6-22.200000000000045 5.5-2.6999999999999886-0.1999999999999318-10-0.599999999999909-15.5 0.6000000000000227l12.700000000000045-29.699999999999932c0.5-1.2000000000000455 0-2.6000000000000227-1.3000000000000114-3.1000000000000227-1.1999999999999886-0.5-2.6000000000000227 0-3.1000000000000227 1.1999999999999318l-14.199999999999989 33.5c-0.19999999999998863 0.40000000000009095 0 0.7000000000000455 0 1.1000000000000227l-0.10000000000002274 0.6000000000000227c0 0.10000000000002274-0.5 2.1000000000000227-3 3.3999999999999773-2.8999999999999773 1.3999999999999773-8.899999999999977 1.8999999999999773-20.899999999999977-3.699999999999932-2.6000000000000227-2.7000000000000455-8.5-10-8.100000000000023-15.100000000000023 0.10000000000002274-1.6000000000000227 0.8000000000000114-2.800000000000068 2.1000000000000227-3.800000000000068l0.5-0.39999999999997726 0.19999999999998863-0.6000000000000227c0.10000000000002274-0.2999999999999545 1.1999999999999886-3.099999999999909-0.5999999999999659-5.599999999999909-1.6000000000000227-2.400000000000091-4.800000000000011-3.6000000000000227-9.5-3.7000000000000455-1.400000000000034-0.6000000000000227-6.100000000000023-3.2000000000000455-7.7000000000000455-8.200000000000045-1.2999999999999545-4.099999999999909-0.2999999999999545-9 3.2000000000000455-14.599999999999909l0.0999999999999659-0.3000000000000682 0.4000000000000341-0.10000000000002274c0.39999999999997726-0.1999999999999318 10.5-6.699999999999932 14.299999999999955-21.899999999999977 0.10000000000002274-0.2999999999999545-0.0999999999999659-0.6000000000000227-0.19999999999998863-1 0.30000000000001137-0.1999999999999318 0.6999999999999886-0.1999999999999318 1-0.6000000000000227 0-0.09999999999990905 0-0.1999999999999318 0.10000000000002274-0.1999999999999318l0.0999999999999659-0.10000000000002274 0.10000000000002274-0.7000000000000455c0.10000000000002274-0.2999999999999545 0.19999999999998863-0.599999999999909 0.10000000000002274-0.8999999999999773-0.10000000000002274-0.2999999999999545-0.30000000000001137-0.5-0.5-0.7999999999999545l-0.4000000000000341-0.7000000000000455c-1.6999999999999886-1.1999999999999318-3.1999999999999886-2.199999999999932-4.699999999999989-3.1000000000000227-3.3000000000000114-2.599999999999909-5.300000000000011-5.5-5.699999999999989-8.599999999999909-1.1000000000000227-7.100000000000023 5.5-14 7.599999999999966-16.300000000000068l1-1.1000000000000227c0.7000000000000455-1.099999999999909 0.4000000000000341-2.599999999999909-0.6999999999999886-3.2999999999999545-1.099999999999966-0.7000000000000455-2.5-0.39999999999997726-3.1999999999999886 0.6000000000000227l-0.5 0.5c-2.6000000000000227 2.699999999999932-10.399999999999977 10.899999999999977-8.899999999999977 20.299999999999955 0.19999999999998863 1.5 0.6999999999999886 2.8999999999999773 1.2999999999999545 4.300000000000068-0.6999999999999886 0-1.1999999999999886 0.2999999999999545-1.6999999999999886 0.5-2.6999999999999886-1.400000000000091-3.6999999999999886-1.2000000000000455-3.6999999999999886-1.2000000000000455-0.30000000000001137 0.5 0 2.3999999999999773 0.5 4.5-0.5 2.1000000000000227-0.10000000000002274 4.5 0.5 6.600000000000023-0.19999999999998863 0.1999999999999318-0.19999999999998863 0.39999999999997726-0.5 0.6000000000000227h-0.19999999999998863c-0.19999999999998863 0.2999999999999545-0.19999999999998863 0.6999999999999318-0.5 0.8999999999999773-18.69999999999999 15.100000000000023-26.30000000000001 27.5-29.5 35.19999999999993-3.400000000000034 8.200000000000045-2.400000000000034 13-2.400000000000034 13l0.10000000000002274 0.5-0.10000000000002274 0.5-7.2999999999999545 53.10000000000002c-4.400000000000034-3.6000000000000227-12-5.899999999999977-23.100000000000023-6.899999999999977-0.9000000000000057-0.10000000000002274-4.300000000000011-0.7999999999999545-5.199999999999989-2.7000000000000455-0.700000000000017-1.5 0.09999999999999432-3.8999999999999773 2.0999999999999943-6.7999999999999545l0.29999999999998295-0.5 0.10000000000002274-0.5c0.09999999999999432-0.39999999999997726 0.5999999999999943-4.2000000000000455-2-6.5-1.700000000000017-1.6000000000000227-4.300000000000011-2-7.5-1.2000000000000455-1.6000000000000227-0.5-5.900000000000006-2.199999999999932-6.600000000000023-6-0.6999999999999886-3.7999999999999545 2-12.599999999999909 27-29.09999999999991 1.1000000000000227-0.7000000000000455 27.30000000000001-16.300000000000068 35.900000000000034-40.90000000000009l0.19999999999998863-0.7999999999999545-0.19999999999998863-0.7999999999999545c0-0.10000000000002274-2.400000000000034-7.7000000000000455 1.3999999999999773-14.400000000000091 2.8000000000000114-4.899999999999977 8.199999999999989-8.299999999999955 16.100000000000023-10.099999999999909l1.3999999999999773-0.3000000000000682 0.39999999999997726-1.3999999999999773c1.1000000000000227-4.100000000000023 5.5-15.700000000000045 11.600000000000023-16.200000000000045 1.3000000000000114 0.6000000000000227 5.300000000000011 2.6000000000000227 7.199999999999989 7.2000000000000455 1.8000000000000114 4.2999999999999545 1.1999999999999886 9.600000000000023-1.6999999999999886 15.799999999999955l-1 2 2 1.1000000000000227c0.10000000000002274 0.10000000000002274 9.699999999999989 5.5 10.800000000000011 13.800000000000068l0.19999999999998863 1.3999999999999773 1.3000000000000114 0.5c0.8999999999999773 0.2999999999999545 22.899999999999977 8.5 80.59999999999997-2.300000000000068l1.3000000000000114-0.1999999999999318 0.5-1.2000000000000455c2.1000000000000227-5.2999999999999545 7.900000000000034-15.899999999999977 13-16.5 0.4000000000000341 0.20000000000004547 1.3000000000000114 0.8000000000000682 2 2.2000000000000455 1 1.7999999999999545 1.5 5.2999999999999545 0.5 10.899999999999977z m51.900000000000034 72.89999999999998c-4.100000000000023-3.699999999999932-4.5-9.600000000000023-4.400000000000034-12.299999999999955-10.199999999999989-8.300000000000068-15.399999999999977-16.399999999999977-15.599999999999966-24-0.10000000000002274-5 2.1999999999999886-8.399999999999977 3.5-9.899999999999977-0.30000000000001137-5.800000000000068-2.8000000000000114-11-5.400000000000034-14.900000000000091 3.1999999999999886 3.6000000000000227 8.400000000000034 10.5 8.800000000000011 18.700000000000045-1.3000000000000114 1.3999999999999773-3.5 4.600000000000023-3.3999999999999773 9.399999999999977 0.0999999999999659 7.2000000000000455 5.2999999999999545 14.800000000000068 15.399999999999977 22.700000000000045-0.10000000000002274 2.6000000000000227 0.30000000000001137 8.199999999999932 4.399999999999977 11.600000000000023 1.1000000000000227 1 2.7000000000000455 1.1999999999999318 4.2000000000000455 1.6999999999999318-3-0.39999999999997726-5.5-1.2999999999999545-7.5-3z m37.39999999999998 5.399999999999977l-0.8999999999999773-0.2999999999999545-0.39999999999997726-0.8999999999999773c-2-4.100000000000023-3.7000000000000455-7.100000000000023-5.100000000000023-9.300000000000068 0.5-0.1999999999999318 1.1000000000000227-0.5 1.6000000000000227-0.5 1.1999999999999318 1.7000000000000455 3.7999999999999545 5.600000000000023 6.399999999999977 10.800000000000068l0.39999999999997726 0.6999999999999318-2-0.5z m39.39999999999998-8c3-5 6.7000000000000455-12.599999999999909 7.5-20.799999999999955v-0.20000000000004547c0-0.09999999999990905 0.10000000000002274-4.699999999999932 2.7000000000000455-7.099999999999909 1.1000000000000227-1 2.6000000000000227-1.5 4.5-1.400000000000091 1.1000000000000227 1.3000000000000682 3.2999999999999545 3.6000000000000227 6.5 5.600000000000023-6.300000000000068 12.100000000000023-13.800000000000068 19.5-21.200000000000045 23.899999999999977z m70.5-56.19999999999993l-1.2999999999999545 0.10000000000002274c-1.2000000000000455 0.1999999999999318-2.3999999999999773 0.599999999999909-3.5 1-0.8999999999999773 0.2999999999999545-1.8999999999999773 0.599999999999909-2.7000000000000455 1.099999999999909-10.5 5-14.5 15.200000000000045-14.5 15.400000000000091l-0.1999999999999318 0.39999999999997726v0.39999999999997726c0 3.7999999999999545-5.2000000000000455 8.5-7.300000000000068 10-14.5 7.100000000000023-22.799999999999955-4.7999999999999545-23.199999999999932-5.2999999999999545l-0.6000000000000227-0.900000000000091-1.1000000000000227-0.09999999999990905c-3.7000000000000455-0.40000000000009095-6.7999999999999545 0.39999999999997726-9.200000000000045 2.599999999999909-4 3.6000000000000227-4.2999999999999545 9.5-4.2999999999999545 10.5-1.2000000000000455 12.300000000000068-10.200000000000045 23.700000000000045-10.299999999999955 23.90000000000009-0.20000000000004547 0.2999999999999545-0.20000000000004547 0.599999999999909-0.3000000000000682 1-12.199999999999932 4.199999999999932-23 1.7999999999999545-26.199999999999932 0.8999999999999773-3.5-6.800000000000068-6.800000000000068-11.300000000000068-7-11.5l-0.6000000000000227-0.7000000000000455-0.8999999999999773-0.1999999999999318c-6.5-1.3000000000000682-14.100000000000023 6.399999999999977-16.200000000000045 8.699999999999932-3.8999999999999773 1.1000000000000227-8.800000000000011 1.7000000000000455-11.600000000000023-0.6999999999999318-3.3999999999999773-2.900000000000091-2.599999999999966-8.800000000000068-2.599999999999966-8.800000000000068l0.19999999999998863-1.3999999999999773-1.1000000000000227-0.8999999999999773c-11.799999999999955-9-14.399999999999977-15.700000000000045-14.5-19.700000000000045-0.0999999999999659-4.199999999999932 2.5-6.5 2.6000000000000227-6.600000000000023l0.8999999999999773-0.6999999999999318v-1.1000000000000227c0-13.5-11.299999999999955-24.399999999999977-12.699999999999989-25.700000000000045-3.5-4-10.599999999999966-5.2999999999999545-17-5.699999999999932-2.8999999999999773-0.39999999999997726-6-0.5-9-0.5 0.6999999999999886-5.300000000000068 0.4000000000000341-9.700000000000045-1.3000000000000114-12.800000000000068-2-3.599999999999909-4.7999999999999545-4.399999999999977-5.099999999999966-4.399999999999977l-0.30000000000001137-0.10000000000002274h-0.30000000000001137c-3.599999999999966 0-6.800000000000011 2.400000000000091-9.599999999999966 5.5-3.7000000000000455-2.5-10.200000000000045-8-10.300000000000011-13.399999999999977-0.10000000000002274-2.8999999999999773 1.8000000000000114-5.600000000000023 5.599999999999966-8.199999999999932l0.30000000000001137-0.20000000000004547 0.19999999999998863-0.2999999999999545s3.900000000000034-4.600000000000023 10.5-5.100000000000023c5-0.39999999999997726 10.300000000000011 1.6999999999999318 15.600000000000023 6.199999999999932 0.8999999999999773 2.800000000000068 4.399999999999977 12.800000000000068 12.199999999999989 16.600000000000023 1.3000000000000114 0.7000000000000455 2.6999999999999886 1 4.199999999999989 1.2000000000000455l0.20000000000004547 0.10000000000002274h0.0999999999999659c2.900000000000034 0.39999999999997726 6 0 9.199999999999989-1.400000000000091l0.10000000000002274-0.09999999999990905c0.10000000000002274-0.10000000000002274 3.6999999999999886-1.8000000000000682 9-3.7000000000000455 0.19999999999998863 0.10000000000002274 0.39999999999997726 0.2999999999999545 0.6999999999999886 0.2999999999999545 0.10000000000002274 0 2.900000000000034 0.10000000000002274 4.300000000000011 2.300000000000068 1.6000000000000227 2.5 1.1000000000000227 7.100000000000023-1.5 13.100000000000023-1.3000000000000114 1.2999999999999545-5.300000000000011 5.899999999999977-4.399999999999977 11.299999999999955 0.6999999999999886 4.2000000000000455 4.199999999999989 7.7000000000000455 10.299999999999955 10.299999999999955l0.7000000000000455 0.3000000000000682 68-12.100000000000023 0.10000000000002274-0.10000000000002274c4.099999999999909 1.3999999999999773 8.399999999999977 2.5 12.899999999999977 3.1000000000000227 0 0.20000000000004547 0 0.39999999999997726 0.10000000000002274 0.6000000000000227 1.3999999999999773 2.699999999999932 14 26.199999999999932 25.399999999999977 30l0.5 0.1999999999999318h0.5c0.2999999999999545 0 7.2999999999999545-0.599999999999909 12.399999999999977-6.899999999999977 1.3999999999999773-1.6999999999999318 2.3999999999999773-3.8999999999999773 3.2000000000000455-6.100000000000023 3.599999999999909-5.199999999999932 10.399999999999977-13.299999999999955 19.299999999999955-15.099999999999909 5.5-1.1000000000000227 11.100000000000023 0.599999999999909 16.600000000000023 4.599999999999909-6-1.8999999999999773-10.899999999999977-1.8999999999999773-15.200000000000045-1.1999999999999318z m16.5 22.199999999999932l-0.2999999999999545 0.7000000000000455-3.5 1.2000000000000455 2.2999999999999545-5.300000000000068c2.2000000000000455-5.100000000000023 2.3999999999999773-8.899999999999977 2-11.600000000000023 1.3000000000000682 2 3.2000000000000455 6.800000000000068-0.5 15z m19.899999999999977-26.899999999999977c-3.699999999999932 3.8999999999999773-7.2999999999999545 5.800000000000068-10.199999999999932 5.399999999999977-4.300000000000068-0.599999999999909-6.899999999999977-5.399999999999977-7.5-6.699999999999932l17.699999999999932 1.2999999999999545z m15.800000000000068 42.30000000000007c-8.300000000000068-0.10000000000002274-15-14.400000000000091-16.800000000000068-20l-0.7999999999999545-2.300000000000068-12 4c2.6000000000000227-9.699999999999932-1.6000000000000227-15.100000000000023-3.1000000000000227-16.699999999999932 1.6000000000000227 1.2999999999999545 3.6000000000000227 2.3999999999999773 6 2.699999999999932 5.5 0.7000000000000455 11.300000000000068-2.6000000000000227 17.300000000000068-10.100000000000023l25-5.399999999999977c0.09999999999990905 7.899999999999977 6.399999999999977 17.800000000000068 8.399999999999977 20.800000000000068-1.3999999999999773 23.799999999999955-22.100000000000023 26.799999999999955-24 27z m28.100000000000023-31.600000000000023l-0.20000000000004547 1.6000000000000227c-1.3999999999999773-2-2.8999999999999773-4.300000000000068-4.100000000000023-6.900000000000091 0.5-0.1999999999999318 1-0.2999999999999545 1.5-0.39999999999997726 0.8000000000000682 1.3999999999999773 1.7000000000000455 3.1000000000000227 2.3999999999999773 4.2000000000000455l0.5 0.6999999999999318-0.09999999999990905 0.8000000000000682z m48.89999999999998-14c-1 0-1.7000000000000455 0.6999999999999318-2.1000000000000227 1.5-2.7000000000000455-0.8999999999999773-7.2999999999999545-2.1000000000000227-13.5-2.800000000000068-0.39999999999997726-0.09999999999990905-0.7000000000000455-0.1999999999999318-1.1000000000000227-0.1999999999999318-5.100000000000023-0.6000000000000227-12.100000000000023-0.39999999999997726-20.299999999999955 1l-0.7000000000000455 0.10000000000002274 23.5-10.5c1.3000000000000682-0.10000000000002274 2.6000000000000227-0.40000000000009095 3.8999999999999773-1.1000000000000227 1.5-0.8000000000000682 3.300000000000068-2.6000000000000227 4-6.100000000000023 1.400000000000091-1.2000000000000455 4.5-3.2999999999999545 7.2000000000000455-3.1000000000000227 1.5 0.20000000000004547 2.7999999999999545 1.1000000000000227 4 2.800000000000068 0.39999999999997726 1.8999999999999773 1.7000000000000455 10.299999999999955-4.899999999999977 18.399999999999977z m67.69999999999993 127.19999999999993c-0.2999999999999545-1.1999999999999318-0.599999999999909-2.599999999999909-0.8999999999999773-4.2999999999999545 0.3000000000000682 1.5 0.7000000000000455 3.2999999999999545 0.8999999999999773 4.2999999999999545z m5.900000000000091-6.599999999999909c-4.300000000000068-19.800000000000068-14.200000000000045-71-10.400000000000091-110.90000000000009 2.6000000000000227 0.6000000000000227 4.7000000000000455 1.3000000000000682 7.100000000000023 1.900000000000091-1.8999999999999773 33.89999999999998 2.5 75.29999999999995 5.5 98.89999999999998-0.6999999999999318 4.399999999999977-1.3999999999999773 7.7999999999999545-2.199999999999932 10.100000000000023z m-67.90000000000009-120.5c6.2000000000000455-9.800000000000068 3.900000000000091-19.40000000000009 3.7000000000000455-19.90000000000009l-0.10000000000002274-0.2999999999999545-0.1999999999999318-0.2999999999999545c-1.3000000000000682-2-2.900000000000091-3.300000000000068-4.600000000000023-4.2000000000000455l0.10000000000002274-0.10000000000002274 0.6999999999999318-0.39999999999997726 90 6.899999999999977 0.3000000000000682 0.20000000000004547 0.5 0.10000000000002274 1 19.199999999999932h-15.5l-75.90000000000009-1.1999999999999318z m120.70000000000005 17.299999999999955c-2.7000000000000455 4.600000000000023-7.100000000000023 7.600000000000023-13.200000000000045 9-2.699999999999932-2.5-10.799999999999955-9.100000000000023-27.699999999999932-15.200000000000045l-0.20000000000004547-5.099999999999909h16.899999999999977l-1.1999999999999318-23.40000000000009c5.899999999999977 0.7000000000000455 11.5 1.2000000000000455 16.600000000000023 1.2000000000000455 3.099999999999909 0 6-0.10000000000002274 8.799999999999955-0.2999999999999545-0.10000000000002274 0.39999999999997726-0.20000000000004547 0.8999999999999773-0.10000000000002274 1.2999999999999545 0.10000000000002274 0 7.2000000000000455 20.100000000000023 0.10000000000002274 32.5z m21-42l-0.2999999999999545 0.10000000000002274c-0.20000000000004547 0.10000000000002274-20.40000000000009 5.600000000000023-46.200000000000045 2.2999999999999545v-0.39999999999997726l-92.5-7.100000000000023c5.600000000000023-8 8.299999999999955-13.5 9.600000000000023-16.899999999999977 8.899999999999977-7.5 46.10000000000002-38.19999999999999 65.5-42.30000000000001 0.6000000000000227-0.19999999999998863 60.299999999999955-13.399999999999977 75.19999999999993 27.100000000000023 1.1000000000000227 9.899999999999977 1.400000000000091 35.49999999999994-11.299999999999955 37.19999999999999z m-23-60.60000000000002l-0.2999999999999545-0.0999999999999659c-6.5-1.400000000000034-13-2.1000000000000227-19.300000000000068-2.1000000000000227-26.100000000000023 0-40.89999999999998 11.600000000000023-41.60000000000002 12.199999999999989l-52.799999999999955 44.89999999999998 123.20000000000005 4.5 0.5-0.1999999999999318c22.799999999999955-9.600000000000023 20-28.200000000000045 19.5-30.700000000000045-0.8000000000000682-18.799999999999955-28-28.099999999999966-29.200000000000045-28.5z m8.399999999999977 54.5l-109.79999999999995-4 18.699999999999932-15.899999999999977 0.20000000000004547 0.10000000000002274c0.20000000000004547 0 0.5 0 0.7000000000000455-0.10000000000002274 23.399999999999977-6.800000000000011 63-13.399999999999977 69.29999999999995-2.3000000000000114 0.7000000000000455 1.1999999999999886 2.1000000000000227 1.6000000000000227 3.2999999999999545 0.9000000000000341 1.2000000000000455-0.7000000000000455 1.6000000000000227-2.1000000000000227 0.900000000000091-3.3000000000000114-8.300000000000068-14.600000000000023-48-6.699999999999989-66.30000000000007-2.1999999999999886l16.399999999999977-14c0.20000000000004547-0.10000000000002274 14.200000000000045-11.100000000000023 38.5-11.100000000000023 5.900000000000091 0 12.100000000000023 0.6999999999999886 18.200000000000045 1.8999999999999773 1.8999999999999773 0.7000000000000455 25.299999999999955 9.200000000000045 25.799999999999955 24.200000000000045l0.10000000000002274 0.5c0.3000000000000682 0.7999999999999545 4.2000000000000455 16.600000000000023-16 25.299999999999955z"/>
</svg>
