<svg xmlns="http://www.w3.org/2000/svg" viewBox="0 0 1000 1000" width="1000" height="1000">
<path d="M912.5 193.1c18.799999999999955-15.699999999999989 32.299999999999955-46 20.5-54.099999999999994-10.399999999999977-7-39.39999999999998 29.599999999999994-45.10000000000002 49.30000000000001-1.6999999999999318 5.899999999999977-4.699999999999932 14.199999999999989-0.6000000000000227 15.399999999999977 4.600000000000023 1.4000000000000057 20.5-6.599999999999994 25.200000000000045-10.599999999999994z m-51.89999999999998 50.70000000000002c11.899999999999977-24 20.399999999999977-63.80000000000001 8.600000000000023-68.30000000000001-15.900000000000091-6.099999999999994-35.30000000000007 28.80000000000001-37.10000000000002 58.5-0.39999999999997726 7.5 3.3999999999999773 28.80000000000001 7.7999999999999545 32.30000000000001 0.20000000000004547 0.30000000000001137 0.5 0.19999999999998863 0.7000000000000455 0.30000000000001137-9.700000000000045 12.899999999999977-19.600000000000023 25-30 36.39999999999998l0.1999999999999318-0.5c11.100000000000023-21.69999999999999 15.700000000000045-78 1.2000000000000455-80.6-16.799999999999955-3-29.899999999999977 34.599999999999994-26.5 64.1 1 7.199999999999989 7.5 26.100000000000023 12.600000000000023 29.899999999999977-11.600000000000023 11.700000000000045-23.300000000000068 23.100000000000023-35.39999999999998 33.30000000000001l3.199999999999932-6.5c10.100000000000023-22.30000000000001 12.399999999999977-78.80000000000001-2.5-80.69999999999999-16.799999999999955-2.3999999999999773-28.299999999999955 36-23.5 65.30000000000001 1.1000000000000227 7 8.800000000000068 26.099999999999966 14.100000000000023 29.399999999999977-10.899999999999977 9.100000000000023-21.899999999999977 17.80000000000001-33.200000000000045 25.900000000000034 1.6000000000000227-3.1000000000000227 3-7.300000000000011 4.100000000000023-10.600000000000023 8.100000000000023-23.30000000000001 5.2000000000000455-79.60000000000002-10-80.10000000000002-16.899999999999977-0.5999999999999659-24.799999999999955 38.400000000000034-17.399999999999977 67 2 7.100000000000023 11.600000000000023 25.600000000000023 16.799999999999955 28.30000000000001-12.199999999999932 8.5-24.5 17.100000000000023-36.69999999999993 24.900000000000034l-3 1.7999999999999545c1.6000000000000227-2.7999999999999545 2.7999999999999545-6.2999999999999545 4.199999999999932-9.199999999999989 9.400000000000091-22.599999999999966 10.200000000000045-79.09999999999997-4.7999999999999545-80.59999999999997-16.799999999999955-1.6000000000000227-27 36.69999999999999-21.700000000000045 65.89999999999998 1.400000000000091 6.899999999999977 9.100000000000023 24.600000000000023 14.300000000000068 28.69999999999999-6.399999999999977 3.900000000000034-13 7.699999999999989-19.600000000000023 11.800000000000011-7.5 4.300000000000011-15.299999999999955 8.399999999999977-23.100000000000023 12.800000000000011 1.3000000000000682-2.1000000000000227 2.7000000000000455-4.5 3.800000000000068-6.800000000000011 11.799999999999955-21.600000000000023 18.199999999999932-77.60000000000002 3.5-80.80000000000001-16.600000000000023-3.3999999999999773-30.800000000000068 33.69999999999999-28.200000000000045 63.19999999999999 0.5 7.100000000000023 6.2000000000000455 24.80000000000001 11.100000000000023 29.80000000000001-1.6000000000000227 0.9000000000000341-2.8999999999999773 1.5-4.5 2.5-11.800000000000068 6.100000000000023-24.300000000000068 12.400000000000034-36.80000000000007 18.69999999999999 1.1000000000000227-1.6999999999999886 2.1000000000000227-3.6999999999999886 3.2000000000000455-5.099999999999966 13.100000000000023-20.600000000000023 23.100000000000023-76.19999999999999 8.799999999999955-80.40000000000003-16.399999999999977-4.699999999999989-32.89999999999998 31.600000000000023-32.39999999999998 61.30000000000001 0.20000000000004547 6.699999999999989 4.399999999999977 24.100000000000023 8.700000000000045 30-10.5 5.199999999999989-21.100000000000023 10.699999999999989-31.700000000000045 16.19999999999999-3.5 1.8000000000000114-7.399999999999977 3.8000000000000114-11 5.800000000000011 1.5-1.8000000000000114 2.800000000000068-4 4.100000000000023-5.5 14.700000000000045-19.5 28.600000000000023-74.19999999999999 14.600000000000023-79.19999999999999-16-5.800000000000011-35.30000000000001 28.80000000000001-36.700000000000045 58.69999999999999-0.5999999999999659 7.199999999999989 2.900000000000034 27.30000000000001 7.300000000000011 31.600000000000023-14 7.599999999999966-28.19999999999999 15.099999999999966-42.099999999999966 22.80000000000001 0.6999999999999886-1.3000000000000682 1.6999999999999886-2.5 2.6999999999999886-3.7000000000000455 14.699999999999989-19.5 28.599999999999966-74.09999999999997 14.599999999999966-79.19999999999999-16-5.800000000000011-35.299999999999955 28.80000000000001-36.69999999999999 58.69999999999999-0.5 6.900000000000034 2.8000000000000114 25.600000000000023 6.699999999999989 31.100000000000023-1.8999999999999773 1.1000000000000227-3.7999999999999545 2-5.7999999999999545 3.1000000000000227-11.600000000000023 6.899999999999977-23.700000000000045 13.699999999999932-35.5 20.299999999999955 15.599999999999966-19.699999999999932 32.099999999999966-70.19999999999999 18.799999999999955-76.29999999999995-15.399999999999977-6.900000000000034-36.89999999999998 26.299999999999955-40.599999999999966 55.89999999999998-0.9000000000000341 6.5 0.8000000000000114 24.100000000000023 4 30.799999999999955-9.199999999999989 5.2000000000000455-18.19999999999999 10.800000000000068-27.100000000000023 16.600000000000023-25.899999999999977 16.800000000000068-52.30000000000001 32.10000000000002-75.5 49.89999999999998-23.5 18-47.19999999999999 33.80000000000007-66.89999999999998 52.700000000000045-10.200000000000017 8.799999999999955-19.900000000000006 17.5-29.5 26-4.900000000000006 4.2000000000000455-9.5 8.299999999999955-14.100000000000023 12.299999999999955-4.199999999999989 4.400000000000091-8.5 8.900000000000091-12.5 12.900000000000091-4.399999999999977 4.699999999999932-8.399999999999977 8.899999999999977-12.599999999999994 13.299999999999955l1.9000000000000057-3.8999999999999773c2.3000000000000114-4.600000000000023 4.800000000000011-9.100000000000023 6.5-13.899999999999977 1.8000000000000114-4.7000000000000455 3.6999999999999886-9.300000000000068 5.5-14.100000000000023 1.4000000000000057-4.7000000000000455 3-9.399999999999977 4.199999999999989-14.200000000000045 3-9.199999999999932 4.5-18.399999999999977 6.100000000000023-27.100000000000023 1.299999999999983-8.699999999999932 2.799999999999983-17 3.3999999999999773-24.59999999999991 1.1000000000000227-7.600000000000023 1.4000000000000057-14.600000000000023 1.700000000000017-20.90000000000009 0.4000000000000057-6.099999999999909 0.6999999999999886-11.699999999999932 0.799999999999983-16.09999999999991 0.20000000000001705-9 0.20000000000001705-14.100000000000023 0.20000000000001705-14.100000000000023s-0.700000000000017 5.100000000000023-2.200000000000017 13.799999999999955c-1.299999999999983 8.800000000000068-3.1999999999999886 21.5-6 36.39999999999998-1.0999999999999943 7.600000000000023-3.0999999999999943 15.600000000000023-5 24-2.1999999999999886 8.400000000000091-4.399999999999977 17.100000000000023-7.299999999999983 26.200000000000045-1.5999999999999943 4.399999999999977-3.0999999999999943 8.899999999999977-4.700000000000017 13.5-1.799999999999983 4.399999999999977-3.6999999999999886 8.899999999999977-5.599999999999994 13.5-1.6999999999999886 4.600000000000023-4.099999999999994 8.799999999999955-6.400000000000006 13.200000000000045l-3.299999999999983 6.599999999999909-0.9000000000000057 1.7000000000000455c0 0.20000000000004547-0.5 0.8999999999999773-0.8000000000000114 1.3999999999999773l-2 3.2000000000000455-8 12.899999999999977c-2.6999999999999886 4.2000000000000455-5.699999999999989 7.899999999999977-8.499999999999986 12-3.799999999999997 5.399999999999977-7.799999999999997 10.399999999999977-11.900000000000006 15.200000000000045h0.9000000000000057c-17.400000000000006 19-34.400000000000006 38.69999999999993-50.7 59.59999999999991-0.8999999999999986 1-1.1000000000000014 2.2000000000000455-1 3.300000000000068s0.5 2.1000000000000227 1.5 3c1.7999999999999972 1.5 4.5 1.1999999999999318 6-0.8999999999999773 48.099999999999994-56.700000000000045 135.9-109.60000000000002 149.4-116 13-7.2000000000000455 27.599999999999994-13 42.29999999999998-19.800000000000068 4.800000000000011-1.8999999999999773 9.699999999999989-3.8999999999999773 15-6.199999999999932 10.100000000000023-4.100000000000023 20.600000000000023-8 31.400000000000034-11.300000000000068 8.199999999999989-2.3999999999999773 16-5.2999999999999545 24.299999999999955-7.399999999999977l31.600000000000023-7.7000000000000455c1.1000000000000227-0.09999999999990905 2.6000000000000227-0.599999999999909 2.8000000000000114-0.5l3.3000000000000114-0.599999999999909 12.599999999999966-1.8000000000000682c8.5-1.1999999999999318 16.600000000000023-2.8999999999999773 25-3.1000000000000227 8.600000000000023-0.6999999999999318 16.80000000000001-1.1999999999999318 25.100000000000023-1.7999999999999545 8.300000000000011 0 16.399999999999977-0.10000000000002274 24.5-0.20000000000004547 16.19999999999999 0.40000000000009095 31.599999999999966 1.5 46.5 2.7000000000000455 14.699999999999989 1.6000000000000227 28.80000000000001 2.7999999999999545 41.69999999999999 5.2999999999999545 25.600000000000023 3.7000000000000455 47.299999999999955 7.7000000000000455 62.299999999999955 10.5 14.900000000000091 2.5 23.600000000000023 4.300000000000068 23.600000000000023 4.300000000000068s-8.299999999999955-2.8999999999999773-22.899999999999977-7.7000000000000455c-7.2000000000000455-2.199999999999932-16.399999999999977-4.899999999999977-26.5-7.699999999999932-10.299999999999955-3.1000000000000227-22-6.5-34.799999999999955-9-12.800000000000068-3.300000000000068-27-5.5-41.80000000000007-8.300000000000068-15-2.2999999999999545-30.899999999999977-4.899999999999977-47.39999999999998-5.100000000000023-8.399999999999977-0.5-16.899999999999977-0.599999999999909-25.30000000000001-0.8999999999999773l-25.899999999999977 1.2000000000000455c-8.800000000000011 0.10000000000002274-17.5 1.7999999999999545-26.30000000000001 2.8999999999999773l-13.399999999999977 1.7999999999999545-3.2000000000000455 0.3000000000000682c-1.8999999999999773 0.2999999999999545-2.2999999999999545 0.6999999999999318-3.6999999999999886 0.8999999999999773l-6.199999999999989 1.5-25.5 6.399999999999977c-8.5 2.6000000000000227-16.80000000000001 5.5-25.30000000000001 8-6.5 2-12.800000000000011 4.399999999999977-18.899999999999977 7l-5.5 2.3999999999999773c-7.699999999999989 3.400000000000091-15.600000000000023 6.5-23.100000000000023 9.900000000000091-14.699999999999989 7.599999999999909-29.299999999999983 14.699999999999932-42.099999999999994 22.799999999999955-13.199999999999989 7.600000000000023-25.19999999999999 15.5-36.19999999999999 22.899999999999977-11.099999999999994 6.899999999999977-20.80000000000001 14.300000000000068-29.5 20.700000000000045-3.700000000000017 2.7999999999999545-6.900000000000006 5.2999999999999545-10.099999999999994 7.7999999999999545 12.199999999999989-11.199999999999932 25.19999999999999-23.399999999999977 39.599999999999994-36.89999999999998 4.299999999999983-3.8999999999999773 8.400000000000006-8.100000000000023 13.099999999999994-12.200000000000045 4.5-3.7999999999999545 9.400000000000006-7.7999999999999545 14.199999999999989-11.799999999999955 9.700000000000017-7.899999999999977 19.700000000000017-16.200000000000045 30-24.5 20.200000000000017-17.399999999999977 43.5-33.60000000000002 67-50.799999999999955 22.69999999999999-18 48.400000000000034-33.60000000000002 73.80000000000001-50.90000000000009 4.300000000000011-3.099999999999909 8.899999999999977-5.7999999999999545 13.300000000000011-8.599999999999909 4.300000000000011 6.699999999999932 15.800000000000011 17.09999999999991 20.899999999999977 20.09999999999991 25.600000000000023 14.300000000000068 64.90000000000003 16.300000000000068 68.5-0.599999999999909 3.1999999999999886-14.900000000000091-49.599999999999966-31.600000000000023-73.69999999999999-29.700000000000045 13.399999999999977-8.100000000000023 26.600000000000023-16 40.10000000000002-24.299999999999955 2.099999999999966 6.2999999999999545 16.399999999999977 19.5 22.5 22.799999999999955 25.599999999999966 14.5 64.79999999999995 16.5 68.29999999999995-0.6000000000000227 3.1000000000000227-14.699999999999932-49.89999999999998-31.699999999999932-73.89999999999998-29.199999999999932-1.8999999999999773 0.09999999999990905-4 0.2999999999999545-5.800000000000011 0.39999999999997726 15.300000000000011-9 30.600000000000023-17.600000000000023 45.900000000000034-26.100000000000023 2.3999999999999773 6.7000000000000455 14.299999999999955 20.299999999999955 20 24 23.799999999999955 17 62.89999999999998 22.899999999999977 68.10000000000002 6.2000000000000455 4.399999999999977-14.200000000000045-46.60000000000002-36.30000000000007-70.70000000000005-36.5-1.7999999999999545-0.20000000000004547-3.7999999999999545-0.20000000000004547-5.899999999999977-0.20000000000004547 7.5-4 14.699999999999932-8.100000000000023 21.899999999999977-12.199999999999989 5.100000000000023-2.6000000000000227 10.299999999999955-5.300000000000011 15.100000000000023-8 0.8999999999999773 5.899999999999977 16.199999999999932 20.19999999999999 22.600000000000023 23.900000000000034 25.299999999999955 14.399999999999977 64.69999999999993 16.799999999999955 68.29999999999995-0.10000000000002274 3.3999999999999773-14.800000000000011-49.700000000000045-32.200000000000045-73.5-30.200000000000045l-6.7000000000000455 0.6000000000000227c14.300000000000068-7.800000000000011 28.5-15.300000000000011 42.40000000000009-22.69999999999999 1.3999999999999773 6.099999999999966 16.199999999999932 20.19999999999999 22.399999999999977 23.599999999999966 25.5 14.700000000000045 64.60000000000002 17 68.29999999999995-0.0999999999999659 3.300000000000068-14.600000000000023-49.5-32.10000000000002-73.60000000000002-29.900000000000034-1.8999999999999773 0.10000000000002274-4 0.30000000000001137-5.7999999999999545 0.4000000000000341 12.600000000000023-7.300000000000011 25.200000000000045-14.699999999999989 37.39999999999998-21.900000000000034 4-2.3999999999999773 7.7000000000000455-4.699999999999989 11.5-7.199999999999989l0.8999999999999773-0.39999999999997726c13.700000000000045-8.300000000000011 27.40000000000009-17.30000000000001 41.30000000000007-26.80000000000001 0.1999999999999318 5.899999999999977 14.100000000000023 21.69999999999999 20.100000000000023 25.899999999999977 23.799999999999955 17 62.89999999999998 23.200000000000045 67.89999999999998 6.600000000000023 4.7999999999999545-14.5-46.200000000000045-36.60000000000002-70.39999999999998-37.19999999999999-3.400000000000091 0-7.800000000000068-0.10000000000002274-11 0.30000000000001137 10.199999999999932-7.2000000000000455 20.5-14.600000000000023 30.699999999999932-22.700000000000045 3.300000000000068 6.5 16.700000000000045 18 22.5 21.30000000000001 25.899999999999977 13.600000000000023 65 14.5 68.20000000000005-2.5 2.8999999999999773-15-50.60000000000002-30.399999999999977-74.5-27.599999999999966-2.2000000000000455 0.19999999999998863-4.300000000000068 0.5-6.600000000000023 0.8999999999999773 8.799999999999955-6.899999999999977 17.200000000000045-14.300000000000011 25.700000000000045-21.899999999999977l-0.10000000000002274 1c2.5 5.199999999999989 21.699999999999932 14.299999999999955 29 15.799999999999955 28.5 5.800000000000011 66.69999999999993-4.099999999999966 65-21.399999999999977-1.5-15.100000000000023-57-15.100000000000023-79.20000000000005-5.600000000000023l-6.600000000000023 3c10.700000000000045-9.899999999999977 21.100000000000023-20.69999999999999 31.200000000000045-31.69999999999999-0.7000000000000455 1.1000000000000227-0.6000000000000227 2.400000000000034 0 3.400000000000034 3.5 4.5 24.100000000000023 9.199999999999989 31.399999999999977 9.099999999999966 29.100000000000023-0.19999999999998863 64.39999999999998-18.19999999999999 59-34.80000000000001-4.5-14.599999999999966-58.5-2.5-78.5 11.5-2.5 1.900000000000034-5.600000000000023 3.900000000000034-7.899999999999977 6 9.200000000000045-10.199999999999989 18.200000000000045-21.099999999999966 26.799999999999955-32.599999999999966 7.300000000000068 2 24.200000000000045-0.30000000000001137 30.5-2.400000000000034 27.5-9.799999999999955 54.90000000000009-38.49999999999997 45-52.29999999999998-8.099999999999909-10.699999999999989-44 9.400000000000006-63.19999999999993 27.700000000000017z m-181.5 185.89999999999998c-7.399999999999977-0.0999999999999659-17.700000000000045-0.8999999999999773-17.700000000000045 4.300000000000011 0 5.800000000000011 14.200000000000045 21.899999999999977 20.300000000000068 26.100000000000023 23.899999999999977 17 62.799999999999955 23 68 6.5 4.599999999999909-14.300000000000011-46.40000000000009-36.700000000000045-70.60000000000002-36.900000000000034z"/>
</svg>
