<svg xmlns="http://www.w3.org/2000/svg" viewBox="0 0 1000 1000" width="1000" height="1000">
<path d="M677.2 393.7c-91.80000000000007-19-126.70000000000005-69.19999999999999-135.5-142.79999999999998-4.800000000000068-41-6.7000000000000455-93.6-9.300000000000068-140.10000000000002-0.8999999999999773-15.799999999999983-15.899999999999977-29.499999999999986-33.299999999999955-30.59999999999998-17.5-1.2000000000000028-32.700000000000045 10.799999999999997-33.700000000000045 26.599999999999994-1.3999999999999773 21.200000000000003-2.599999999999966 44.000000000000014-4.2999999999999545 59.000000000000014-5 44.89999999999998-7.600000000000023 90.39999999999998-16.400000000000034 134.8-9 45.599999999999966-39.5 74.19999999999999-94.09999999999997 85.29999999999995-78.70000000000005 16.100000000000023-150.50000000000003 46.80000000000001-207.90000000000003 99.10000000000002-139.39999999999998 127.10000000000002-90.1 322.29999999999995 93.60000000000002 388.79999999999995 17.399999999999977 6.300000000000068 22.5-0.5 12.099999999999994-14.399999999999977-102.5-137.19999999999993-77-321 56.400000000000006-403.59999999999997 15.399999999999977-9.5 24.899999999999977-9.699999999999989 19.899999999999977-2.5-3.5 4.899999999999977-6.399999999999977 9-9.5 13-54.30000000000001 68.99999999999994-81 145.40000000000003-76.89999999999998 229.3 0.09999999999999432 2.7999999999999545 0.799999999999983 5.600000000000023 1.299999999999983 8.5 3.5 22.899999999999977 7.5 45.799999999999955 15.5 67.69999999999993 7.500000000000028 20.700000000000045 18.599999999999994 40.30000000000007 32.79999999999998 58 13.900000000000034 17.200000000000045 30.600000000000023 32.700000000000045 49.5 45.700000000000045 15.700000000000045 10.700000000000045 121.40000000000003 67.5 137.3 34.5 5.300000000000011-10.899999999999977 23.100000000000023-98.5 25.600000000000023-117.5 6.399999999999977-50.299999999999955 10.399999999999977-111 10.599999999999966-161.60000000000002 0-8.199999999999932-1-19.899999999999977-2.5-29.5-0.39999999999997726-3.5-1.099999999999966-7.399999999999977 3.2000000000000455-6.5 2.5 1.1000000000000227 3.5 3.7000000000000455 4.2999999999999545 6.5 13.200000000000045 44.30000000000007 21.600000000000023 91.80000000000007 24.5 137.39999999999998 1.2000000000000455 19.700000000000045 1.3999999999999773 39.5 2.300000000000068 59.200000000000045 1.1999999999999318 25.5 2.8999999999999773 51.10000000000002 4.5 76.60000000000002l1.3999999999999773 22c0.7999999999999545 12.100000000000023 15.799999999999955 20 32.89999999999998 15.399999999999977 128.10000000000002-34.39999999999998 204.5-154 176.60000000000002-286.20000000000005-2.2000000000000455-10.399999999999977-4.800000000000068-20.799999999999955-7.100000000000023-31.299999999999955l-3-13.100000000000023c-1.7000000000000455-7.199999999999932 4.899999999999977-1.6000000000000227 13 13.300000000000068 45.60000000000002 83.89999999999998 44.200000000000045 168.5999999999999 2.7999999999999545 254.39999999999998-7.399999999999977 15.299999999999955 0.5 24.100000000000023 17.800000000000068 17.699999999999932 127.10000000000002-46.69999999999993 192.79999999999995-190.0999999999999 134.29999999999995-304.79999999999995-46.89999999999998-91.89999999999998-132.79999999999995-146.39999999999998-238.69999999999993-168.3z"/>
</svg>
