<svg xmlns="http://www.w3.org/2000/svg" viewBox="0 0 1000 1000" width="1000" height="1000">
<path d="M932.5 398.1c-6.600000000000023-29.200000000000045-19.799999999999955-55.30000000000001-37.299999999999955-77.30000000000001-16-40.30000000000001-43.700000000000045-70.30000000000001-83-89-6.800000000000068-3.200000000000017-9.5-6.400000000000006-10-14.300000000000011-5.100000000000023-79.9-66.10000000000002-143.9-145.70000000000005-153.1-7.7000000000000455-1.000000000000007-15.600000000000023-1.3000000000000043-23.399999999999977-1.8000000000000043l-35.80000000000007 4.899999999999999-14.299999999999955 5.099999999999994c-30.299999999999955 10.800000000000011-54.799999999999955 28.700000000000003-74 53-43.10000000000002 0.8000000000000114-86.30000000000001 14.800000000000011-122 44-29.80000000000001 24.30000000000001-51.60000000000002 54.5-69.39999999999998 90.00000000000003-46.30000000000001-15.000000000000028-91.60000000000002-15.100000000000023-136.20000000000002 3.2999999999999545-45 18.5-78.2 50.10000000000002-99.5 93.70000000000005-35.900000000000006 73.59999999999997-18.60000000000001 165.39999999999998 41 220.39999999999998 30.19999999999999 27.799999999999955 65.5 45.299999999999955 106.19999999999999 50.10000000000002 57.599999999999994 6.699999999999932 108.4-10 152.29999999999998-47.700000000000045 3.7000000000000455 2.7000000000000455 6.600000000000023 4.7000000000000455 9.400000000000034 6.800000000000068 70.69999999999999 52.799999999999955 155.3 56.39999999999998 229.2 9.399999999999977 7.2999999999999545-4.7000000000000455 12.299999999999955-5.100000000000023 19.799999999999955 0 42.60000000000002 28.799999999999955 89.5 38.299999999999955 140.4000000000001 30 104.19999999999993-17.200000000000045 175.69999999999993-124.5 152.29999999999995-227.5z m-310.1 237.79999999999995c-79.19999999999993 40.10000000000002-156.5 37.5-232.59999999999997-7.7999999999999545-5.800000000000011-3.6000000000000227-9.699999999999989-3.6000000000000227-15.199999999999989 0.39999999999997726-26.900000000000034 17.5-56.30000000000001 28.799999999999955-87.90000000000003 32.60000000000002-9.399999999999977 1.2999999999999545-11.599999999999966 4.199999999999932-11.300000000000011 13.299999999999955 0.30000000000001137 40.60000000000002 0.10000000000002274 81.20000000000005 0 122v77.30000000000007h470.30000000000007v-209.30000000000007c-40.10000000000002-1.2999999999999545-77-10.699999999999932-111-29.799999999999955-2.900000000000091-2-8.800000000000068-0.6000000000000227-12.300000000000068 1.2999999999999545z m-347.09999999999997 250.60000000000002h470.3v51h-470.3v-51z"/>
</svg>
