<svg xmlns="http://www.w3.org/2000/svg" viewBox="0 0 1000 1000" width="1000" height="1000">
<path d="M337.4 107.6c8.200000000000045 4.5 12.100000000000023 13 12.200000000000045 13.600000000000009l28 72.60000000000001h-0.10000000000002274l49.80000000000001 129.59999999999997h21.69999999999999l-44.39999999999998-115.39999999999998h0.0999999999999659l-36.39999999999998-94.5c-4.400000000000034-10-14.100000000000023-26.400000000000006-34.69999999999999-28.5-4.300000000000011-0.4000000000000057-8.800000000000011-0.5999999999999943-13.700000000000045 0.4000000000000057-25.19999999999999 5.099999999999994-80.59999999999997 19.799999999999997-82.89999999999998 20.39999999999999l5.199999999999989 19.5c0.5-0.09999999999999432 53.19999999999999-14.399999999999991 77.80000000000001-19.299999999999997 6-1.2999999999999972 12.800000000000011-0.9000000000000057 17.399999999999977 1.5999999999999943z m389.20000000000005 185.1l1.8999999999999773-2.1999999999999886c20.100000000000023-22.80000000000001 31.799999999999955-51.099999999999994 33.700000000000045-81.6l0.1999999999999318-2.9000000000000057h-122.39999999999998l86.60000000000002 86.69999999999999z m-95.30000000000007 44.5l2.900000000000091-0.19999999999998863c30.5-2 58.69999999999993-13.600000000000023 81.59999999999991-33.80000000000001l2.2000000000000455-1.8000000000000114-86.60000000000002-86.69999999999999-0.10000000000002274 122.5z m-107.5-230.2l-1.7999999999999545 2.200000000000003c-20.100000000000023 22.799999999999997-31.80000000000001 51.10000000000001-33.69999999999999 81.60000000000001l-0.19999999999998863 2.8999999999999773h122.5l-86.80000000000007-86.69999999999999z m238.70000000000005 86.69999999999999l-0.20000000000004547-2.8999999999999773c-2-30.5-13.599999999999909-58.80000000000001-33.69999999999993-81.60000000000001l-1.8999999999999773-2.200000000000003-86.60000000000002 86.69999999999999h122.39999999999998z m-46.700000000000045-97.29999999999998c-22.799999999999955-20.10000000000001-51.09999999999991-31.80000000000001-81.59999999999991-33.800000000000004l-2.900000000000091-0.20000000000000284v122.69999999999999l86.60000000000002-86.8c0 0.10000000000000853-2.1000000000000227-1.8999999999999915-2.1000000000000227-1.8999999999999915z m-181.19999999999993 0l-2.2000000000000455 1.8999999999999915 86.60000000000002 86.7v-122.5l-2.8999999999999773 0.20000000000000284c-30.399999999999977 2-58.60000000000002 13.599999999999994-81.5 33.7z m-211 823.9h282.4v17.200000000000045h-282.4v-17.200000000000045z m294.69999999999993-697.1999999999999v-15.600000000000023h-204.29999999999995l6 15 182.20000000000005 0.5v114.10000000000002h-274.80000000000007v-114.00000000000003h52.30000000000001l-5.599999999999966-15.599999999999994h-62.900000000000034v390.20000000000005s-5.399999999999977 60.5 39.5 94.09999999999991c10.900000000000034 8.200000000000045 28.900000000000034 18.800000000000068 36.30000000000001 25.200000000000045 24.399999999999977 20.600000000000023 42.5 32.60000000000002 41.89999999999998 78.89999999999998s-24.19999999999999 57.200000000000045-61.19999999999999 70.70000000000005c-36.89999999999998 13.399999999999977-43.69999999999999 23.399999999999977-43.69999999999999 40.19999999999993h281.4c0-16.799999999999955-6.7999999999999545-26.899999999999977-43.799999999999955-40.19999999999993-36.89999999999998-13.5-60.5-24.399999999999977-61.200000000000045-70.70000000000005-0.5999999999999659-46.299999999999955 17.600000000000023-58.299999999999955 41.89999999999998-78.89999999999998 7.400000000000091-6.399999999999977 25.5-17 36.5-25.200000000000045 44.700000000000045-33.69999999999993 39.30000000000007-94.09999999999991 39.30000000000007-94.09999999999991l0.1999999999999318-374.6z"/>
</svg>
