<svg xmlns="http://www.w3.org/2000/svg" viewBox="0 0 1000 1000" width="1000" height="1000">
<path d="M228.1 306.4h54.70000000000002c2.1999999999999886 0 4 0.8000000000000114 6.099999999999966 1.1000000000000227l-10.899999999999977-103.5-44.599999999999994 7.300000000000011c-6.5 1-12.200000000000017 4.399999999999977-15.900000000000006 9.199999999999989-3.6999999999999886 4.800000000000011-5.099999999999994 10.800000000000011-3.9000000000000057 16.400000000000006l14.5 69.49999999999997z m107.20000000000002 23.200000000000045c7.899999999999977 8.699999999999989 14 18.599999999999966 15.599999999999966 30.399999999999977 4.600000000000023 34 23.600000000000023 63.69999999999999 51.10000000000002 84.80000000000001v-319.5l-2.1999999999999886-0.4000000000000057c-0.8000000000000114 0-1.5 0-2.3000000000000114 0.09999999999999432l-58.39999999999998 4.800000000000011c-6.5 0.5-12.600000000000023 3.3999999999999773-16.80000000000001 7.899999999999977-4.199999999999989 4.600000000000023-6.199999999999989 10.300000000000011-5.600000000000023 16.100000000000023l18.600000000000023 175.8z m436.59999999999997-23.200000000000045l14.600000000000023-69.59999999999997c2.5-11.900000000000006-6.5-23.5-19.899999999999977-25.600000000000023l-44.60000000000002-7.299999999999983-11 103.6c2.1000000000000227-0.19999999999998863 4-1.1000000000000227 6.2000000000000455-1.1000000000000227h54.69999999999993z m-122.79999999999995 53.700000000000045c1.6000000000000227-11.700000000000045 7.600000000000023-21.80000000000001 15.5-30.400000000000034l18.600000000000023-175.89999999999998c1.2999999999999545-12.100000000000023-8.800000000000068-22.80000000000001-22.300000000000068-23.900000000000006l-58.5-4.900000000000006-2.2999999999999545-0.09999999999999432-2.2000000000000455 0.29999999999999716v319.6c27.600000000000023-21 46.60000000000002-50.69999999999999 51.200000000000045-84.69999999999999z m-94.89999999999998 108.09999999999997v-383.7c0-12.200000000000003-11.100000000000023-22-24.800000000000068-22h-58.799999999999955c-13.700000000000045 0-24.80000000000001 9.900000000000006-24.80000000000001 22v383.8c16.899999999999977 5.800000000000011 35.19999999999999 8.899999999999977 54.19999999999999 8.899999999999977 18.899999999999977 0 37.299999999999955-3.1999999999999886 54.200000000000045-9z m-311.6 422.7h514.9l-3.2999999999999545 26.899999999999977c-1.3000000000000682 11.300000000000068-12 19.700000000000045-24.600000000000023 19.700000000000045h-459c-12.700000000000045 0-23.30000000000001-8.299999999999955-24.600000000000023-19.700000000000045l-3.4000000000000057-26.899999999999977z m578.4-521.2l-61.299999999999955 501.9000000000001h-519.5l-61.200000000000045-501.90000000000003c-0.6999999999999886-6.300000000000011 1.6999999999999886-12.699999999999989 6.300000000000011-17.30000000000001 4.599999999999994-4.599999999999966 11.299999999999983-7 18.299999999999983-7h79.20000000000002c12.699999999999989 0 22.899999999999977 8 24.599999999999966 19.30000000000001 11.600000000000023 85.19999999999999 93.20000000000005 151.09999999999997 192.40000000000003 151.09999999999997 99.49999999999994 0 180.99999999999994-65.89999999999998 192.7-151.09999999999997 1.2999999999999545-11 12-19.30000000000001 24.600000000000023-19.30000000000001h79.19999999999993c7 0 13.600000000000023 2.400000000000034 18.300000000000068 7 4.699999999999932 4.600000000000023 7 11 6.399999999999977 17.30000000000001z"/>
</svg>
