<svg xmlns="http://www.w3.org/2000/svg" viewBox="0 0 1000 1000" width="1000" height="1000">
<path d="M98.2 516.5c2.799999999999997-2.6000000000000227 5.8999999999999915-6.300000000000011 6.5-5.899999999999977 10.700000000000003 6.5 18.799999999999997-5.100000000000023 28.89999999999999-2.5-4.199999999999989-17.5-4.5-18.200000000000045-18.5-18.600000000000023-7.299999999999997-0.19999999999998863-14.699999999999989 1.5-22.099999999999994 1.6999999999999886-2.5 0.10000000000002274-5-2-7.5-3.099999999999966 2.0999999999999943-1.900000000000034 4-5.300000000000011 6.299999999999997-5.600000000000023 9.900000000000006-1.3000000000000114 19.900000000000006-1.8000000000000114 32.10000000000001-2.6999999999999886 7.900000000000006 9.899999999999977 13.599999999999994 21.69999999999999 16.400000000000006 36.49999999999994 2.799999999999983 14.700000000000045 18.5 23.800000000000068 30.799999999999983 32.40000000000009 0-7.900000000000091-0.19999999999998863-15 0.09999999999999432-22.100000000000023 0.20000000000001705-5.7000000000000455 0.30000000000001137-11.5 1.700000000000017-16.900000000000034 2.1999999999999886-8.699999999999989-5.5-8.599999999999966-9.300000000000011-12.099999999999966-2.5-2.2000000000000455-4.400000000000006-5.2000000000000455-6.599999999999994-7.7000000000000455-6.400000000000006-7-12.800000000000011-14-19.5-20.69999999999999-3.8000000000000114-3.8000000000000114-8.099999999999994-6.899999999999977-12.200000000000003-10.399999999999977 23.39999999999999 4.899999999999977 32.60000000000001 26.5 48.3 40.39999999999998 2.5-4.199999999999989 4.5-7.599999999999966 6.800000000000011-11.599999999999966-3.200000000000017-3.400000000000034-6.400000000000006-9.700000000000045-10-10-10.900000000000006-0.9000000000000341-13.900000000000006-7.600000000000023-15.900000000000006-16.200000000000045-0.9000000000000057-4.199999999999989-1.8000000000000114-8.399999999999977-2.1999999999999886-10.5-10.700000000000017 0-20.700000000000017 0.7000000000000455-30.500000000000014-0.19999999999998863-6.299999999999997-0.5999999999999659-12.299999999999997-4.099999999999966-18.700000000000003-5.099999999999966-9.599999999999994-1.5-19.39999999999999-2.2000000000000455-29.19999999999999-2.6000000000000227-5.6000000000000085-0.19999999999998863-8 2.8999999999999773-7.200000000000003 9 3.299999999999997 25.80000000000001 18 45.5 31.5 64.5z m-12.200000000000003-64.60000000000002c15.400000000000006 7.100000000000023 28.200000000000003 16 37.8 27.900000000000034-14.399999999999991-9.400000000000034-28.099999999999994-18.400000000000034-41.7-27.400000000000034 1.9000000000000057-1.2999999999999545 2.9000000000000057-0.8999999999999773 3.9000000000000057-0.5z m130.3 323.5c0.5 1.5 8.899999999999977 2.7000000000000455 12.099999999999994 1 13.199999999999989-7 25.799999999999983-15.100000000000023 40.49999999999997-23.799999999999955-7-9.899999999999977-13.699999999999989-20.5-21.599999999999966-30.100000000000023-6.300000000000011-7.600000000000023-13-0.2999999999999545-19.100000000000023 1.7999999999999545-5 1.7000000000000455-6.099999999999994 6-4.099999999999994 11.5 3.5 9.600000000000023 1.9000000000000057 18.5-6.699999999999989 24.700000000000045-6.5 4.7000000000000455-2.5 10.399999999999977-1.0999999999999943 14.899999999999977z m95-28.299999999999955c-7.600000000000023-10.300000000000068-14.400000000000034-19.700000000000045-21.400000000000034-29-0.6999999999999886-1-2.3999999999999773-1.3000000000000682-3.599999999999966-1.8999999999999773-4.300000000000011-2.300000000000068-9.300000000000011-3.800000000000068-12.699999999999989-7-11.900000000000034-11.100000000000023-23.700000000000017-22.5-34.60000000000002-34.60000000000002-4-4.399999999999977-7.099999999999994-5.5-12.5-4.100000000000023-4.699999999999989 1.2000000000000455-9.699999999999989 1.1000000000000227-14.599999999999994 1.5l-1-3.7000000000000455c5.299999999999983-2.599999999999909 10.599999999999994-5.099999999999909 16.69999999999999-8.099999999999909-4.199999999999989-4.5-7.699999999999989-11-13-13.300000000000068-8.400000000000006-3.699999999999932-18-4.600000000000023-27.099999999999994-6.600000000000023 3.3000000000000114 23.300000000000068 15.400000000000006 40.30000000000007 36 52.30000000000007 23.80000000000001 13.799999999999955 44.30000000000001 31.199999999999932 52.39999999999998 59.299999999999955 12.100000000000023-1.6000000000000227 23.700000000000045-3.199999999999932 35.400000000000034-4.7999999999999545z m611.8-76.20000000000005c1.1000000000001364-15.899999999999977-1.2999999999999545-31.600000000000023-12.799999999999955-46.299999999999955-8.299999999999955 25-26.399999999999977 39.89999999999998-45.09999999999991 52.19999999999993 5.899999999999977 6.5 12.099999999999909 11.700000000000045 16.09999999999991 18.300000000000068 2.900000000000091 4.7999999999999545 5.400000000000091 7.2999999999999545 11 7.699999999999932 5.7000000000000455 0.5 11.800000000000068 1.6000000000000227 15.100000000000023 9-2.8999999999999773 0-4.7999999999999545 0.6000000000000227-5.7999999999999545-0.09999999999990905-11-6.900000000000091-15.899999999999977 0.39999999999997726-20.899999999999977 8.399999999999977-2.5 3.8999999999999773-5.900000000000091 7.199999999999932-9.700000000000045 11.899999999999977-4.899999999999977-12 5.2000000000000455-16.299999999999955 8.799999999999955-25.5-22.59999999999991-2.1000000000000227-29.5 18.200000000000045-43.89999999999998 29.200000000000045-0.10000000000002274-15.800000000000068 13.899999999999977-20.100000000000023 19.300000000000068-31.600000000000023-4.400000000000091 0.7999999999999545-7.600000000000023 2-10.600000000000023 1.7999999999999545-2.7000000000000455-0.1999999999999318-5.300000000000068-2-8-3.1000000000000227l0.2999999999999545 0.3000000000000682c-1.2999999999999545 0.7999999999999545-2.8999999999999773 1.2999999999999545-3.7999999999999545 2.3999999999999773-14.399999999999977 18.299999999999955-28.700000000000045 36.60000000000002-43.200000000000045 55.200000000000045 5.5 4 13.5 4.5 21.200000000000045 1.8999999999999773 19.199999999999932-6.399999999999977 38.19999999999993-13.5 57.39999999999998-20.100000000000023 5.7000000000000455-2 11.700000000000045-3.7000000000000455 17.600000000000023-4.7999999999999545 16.699999999999932-3.1000000000000227 33.5-5.800000000000068 51.39999999999998-8.900000000000091-12.299999999999955-18.699999999999932-15.799999999999955-37.5-14.399999999999977-57.89999999999998z m-23.59999999999991 28.899999999999977c-8.899999999999977-8.799999999999955-5.600000000000023-22.199999999999932 8.700000000000045-37.09999999999991-1.3000000000000682 14.199999999999932-15.800000000000068 22.699999999999932-8.700000000000045 37.09999999999991z m-58.89999999999998-159.0999999999999h-14.899999999999977s4 25.699999999999932-3.300000000000068 26.5c0 0 24.700000000000045 22.199999999999932 27.700000000000045 40.19999999999993l8.699999999999932-13.5-18.199999999999932-53.19999999999993z m65.5-33.30000000000007c-3.7000000000000455 4.400000000000034-3.8999999999999773 11.800000000000068-5.600000000000023 17.700000000000045 6.7999999999999545-0.10000000000002274 12.700000000000045-0.20000000000004547 18.600000000000023-0.3000000000000682l0.7999999999999545 3.800000000000068c-4.600000000000023 1.7999999999999545-9 4.199999999999932-13.699999999999932 5.199999999999932-5.5 1.2000000000000455-7.7000000000000455 3.5-9.300000000000068 9.300000000000068-4.2999999999999545 15.699999999999932-9.699999999999932 31.199999999999932-15.399999999999977 46.39999999999998-1.6000000000000227 4.399999999999977-5.399999999999977 8-8.200000000000045 12-0.7999999999999545 1.1000000000000227-2.199999999999932 2.1000000000000227-2.3999999999999773 3.2999999999999545-2.1000000000000227 11.5 0.39999999999997726 37.10000000000002-1.7999999999999545 49.700000000000045 11.199999999999932-3.7999999999999545 18-21.799999999999955 29.5-25.799999999999955-5.399999999999977-28.700000000000045 5.100000000000023-53.5 20.199999999999932-76.5 13-20 16.200000000000045-40.60000000000002 8.700000000000045-62.900000000000034-7.2999999999999545 5.899999999999977-15.5 11-21.399999999999977 18.099999999999966z m-45.5 34.10000000000002c-0.5 5.600000000000023-8.300000000000068 12.899999999999977-5.600000000000023 19.200000000000045 3.1000000000000227 7.199999999999932 9.299999999999955 12.399999999999977 12 19.799999999999955 1.6000000000000227 4.2000000000000455 3 8.600000000000023 4.2000000000000455 12.100000000000023 5.399999999999977-13.899999999999977 11.899999999999977-28.399999999999977 16.399999999999977-43.5 2-6.399999999999977 0.1999999999999318-14.200000000000045-1.1000000000000227-21.200000000000045-1.3999999999999773-6.699999999999932-4.5-13.100000000000023-6.7000000000000455-19.69999999999999l3.7000000000000455-1.5 8.899999999999977 14.900000000000034h3c1-19.900000000000034 1.8999999999999773-39.700000000000045 3-59.30000000000001l3.1000000000000227-0.10000000000002274c1.1000000000000227 11.900000000000034 1.8999999999999773 23.900000000000034 3 36.400000000000034 8-4.400000000000034 11.399999999999977-17.700000000000045 22.899999999999977-9.700000000000045-4.199999999999932-16.599999999999966-7.699999999999932-33.39999999999998-12.699999999999932-49.69999999999999-2.7000000000000455-8.699999999999989-6.800000000000068-8.699999999999989-13.300000000000068-1.8999999999999773-1 1.099999999999966-2.3999999999999773 2.1999999999999886-2.7999999999999545 3.5-4.300000000000068 13-11.800000000000068 23.399999999999977-24.5 29.599999999999966-1.6000000000000227 0.8000000000000114-2.300000000000068 6.100000000000023-1.5 8.700000000000045 4.7999999999999545 14.5 4.2999999999999545 16.19999999999999-8.600000000000023 24.799999999999955-1.7999999999999545 1.3000000000000114-3.7999999999999545 4-3.7000000000000455 6.100000000000023-0.1999999999999318 10.600000000000023 1.2000000000000455 21.200000000000045 0.3000000000000682 31.5z m-64.39999999999998 157.29999999999995c-2.5 1.400000000000091-4.800000000000068 3.400000000000091-6.5 5.7000000000000455-6.7000000000000455 9.5-13 19.399999999999977-19.800000000000068 28.899999999999977-3.7999999999999545 5.300000000000068-8.100000000000023 10.100000000000023-13.699999999999932 16.800000000000068 8.5-1.8000000000000682 15.5-5.400000000000091 19.899999999999977-3.5 4.600000000000023 2.099999999999909 6.600000000000023 1.099999999999909 9.299999999999955-1.2000000000000455 5.2000000000000455-4.399999999999977 10.800000000000068-8.5 15-13.700000000000045 11.300000000000068-14.199999999999932 22-29 32.80000000000007-43.59999999999991 1-1.400000000000091 1-3.400000000000091 1.599999999999909-5.100000000000023 2-5.800000000000068 3.6000000000000227-11.700000000000045 6.100000000000023-17.200000000000045 3.2000000000000455-7.2999999999999545 7.5-14.199999999999932 10.5-21.5 5.7000000000000455-13.600000000000023 5.600000000000023-26.100000000000023-7.199999999999932-36.60000000000002-5.900000000000091-4.899999999999977-7.800000000000068-14-17.100000000000023-16.09999999999991-2.300000000000068-0.5-3.8999999999999773-5.2000000000000455-5.300000000000068-8.300000000000068-1.6999999999999318-3.6000000000000227-2.7999999999999545-7.5-4.5-12.199999999999932-3.8999999999999773 6.7999999999999545-6.099999999999909 14.099999999999909-11 17.899999999999977-6.899999999999977 5.199999999999932-7.699999999999932 11.699999999999932-8.599999999999909 18.899999999999977-0.8000000000000682 5.7999999999999545-1.1000000000000227 11.700000000000045-2.300000000000068 17.399999999999977-2 9.200000000000045-5.2999999999999545 17.399999999999977-13.899999999999977 23-7 4.600000000000023-13.200000000000045 10.700000000000045-19.399999999999977 16.5-3.3999999999999773 3.2000000000000455-7.7000000000000455 6.899999999999977-8.700000000000045 11-2.199999999999932 9.5-5.5 16.300000000000068-17.299999999999955 14.200000000000045-0.6000000000000227 6.7999999999999545-1.3999999999999773 12.899999999999977-1.6000000000000227 19.100000000000023-0.6000000000000227 13.599999999999909-4.5 24.899999999999977-16.899999999999977 33-5.300000000000068 3.5-8.700000000000045 10.099999999999909-12.700000000000045 15.599999999999909-0.8999999999999773 1.2000000000000455-1 3.400000000000091-0.5 4.900000000000091 3.5 12 7.300000000000068 24 11.300000000000068 36.799999999999955 2.3999999999999773-4 5.899999999999977-8.700000000000045 8.199999999999932-14 5.100000000000023-11.700000000000045 7.300000000000068-25.299999999999955 22-29.899999999999977 0.7000000000000455-0.20000000000004547 1.1000000000000227-1.5 1.6000000000000227-2.2000000000000455 8.399999999999977-11.399999999999977 16.5-23 25.200000000000045-34.10000000000002 15.899999999999977-20.299999999999955 16.699999999999932-29.09999999999991 4.2999999999999545-51.59999999999991-1.1000000000000227-2-0.5-4.900000000000091-0.7000000000000455-7.5 2.6000000000000227 0.8999999999999773 6.2000000000000455 1.1999999999999318 7.600000000000023 3 3.7000000000000455 5.099999999999909 6.5 10.799999999999955 10.300000000000068 17.5 12.599999999999909-25.200000000000045 11.699999999999932-54.10000000000002 26-77.5l2.699999999999932 0.7999999999999545c-3.2999999999999545 13.100000000000023-6.5 26.200000000000045-9.899999999999977 39.89999999999998 7.5-3 13-5.199999999999932 18.600000000000023-7.399999999999977l1.8999999999999773 3.3999999999999773c-4.399999999999977 3.3999999999999773-8.700000000000045 6.899999999999977-13.200000000000045 10.300000000000068-3.699999999999932 2.7999999999999545-9.199999999999932 4.699999999999932-10.799999999999955 8.299999999999955-4.600000000000023 10.399999999999977-7.7000000000000455 21.5-11.5 32.700000000000045 10.899999999999977-5.800000000000068 21.299999999999955-11.400000000000091 31.600000000000023-16.90000000000009l3.6000000000000227 4.300000000000068c-2.900000000000091 1.5-5.900000000000091 3-8.800000000000068 4.600000000000023-9.299999999999955 5.199999999999932-18.799999999999955 10.299999999999955-28.199999999999932 15.599999999999909z m-516.2-27.5c-0.39999999999997726-6.7999999999999545-6.399999999999977-9.599999999999909-9.399999999999977-14.399999999999977-5.400000000000034-8.799999999999955-8.900000000000034-18.899999999999977-13.700000000000045-28.199999999999932-0.8999999999999773-1.900000000000091-3.8999999999999773-3.5-6.099999999999966-3.800000000000068-15.400000000000006-1.8999999999999773-16.600000000000023-3.199999999999932-18.80000000000001-18.299999999999955-0.4000000000000057-2.7000000000000455-3.4000000000000057-7.100000000000023-5.199999999999989-7.100000000000023-14.200000000000017 0.20000000000004547-25.5-5.7000000000000455-35.20000000000002-15.399999999999977-1-1-2.6999999999999886-1.3999999999999773-4.099999999999994-1.8999999999999773-8.800000000000011-3.1000000000000227-12.5-1.3000000000000682-11 7.699999999999932 2.8000000000000114 16.800000000000068 7.199999999999989 33.39999999999998 10.900000000000006 50l-0.20000000000001705 0.3000000000000682c0.10000000000002274 0 0.20000000000001705 0 0.4000000000000057 0.09999999999990905l-0.09999999999999432-0.39999999999997726v-0.10000000000002274c6.699999999999989-12 15.599999999999994-1.7999999999999545 24.69999999999999-1.3999999999999773-4.699999999999989-11.699999999999932-9.299999999999983-22.799999999999955-13.699999999999989-33.89999999999998l2.8000000000000114-1.2999999999999545c9.799999999999983 17 19.5 34.299999999999955 29.299999999999983 51.59999999999991l2.700000000000017-1.3999999999999773 1.299999999999983-17.299999999999955 4-0.3000000000000682c0.9000000000000057 6.900000000000091 1 14 2.8000000000000114 20.600000000000023 1.9000000000000057 6.800000000000068 3.9000000000000057 14.600000000000023 8.5 19.399999999999977 10.799999999999983 11.5 23.099999999999994 21.5 34.20000000000002 31.5-0.5-3.699999999999932-1.2000000000000455-8.199999999999932-1.7000000000000455-12.699999999999932-0.8999999999999773-7.800000000000068-1.8999999999999773-15.5-2.3999999999999773-23.300000000000068z m-16.5-18.59999999999991c0.8999999999999773 10 1.6999999999999886 19.5 2.6000000000000227 30.399999999999977-11.700000000000017-5.899999999999977-12.500000000000028-23.700000000000045-2.6000000000000227-30.399999999999977z m560.1-221.90000000000003c-4.100000000000023 1-8.5 1.1999999999999886-14.700000000000045 2.099999999999966 6.2000000000000455 10.400000000000034 12.100000000000023 19.700000000000045 17.300000000000068 29.30000000000001 1.6999999999999318 3.1000000000000227 2.7999999999999545 7.100000000000023 2.599999999999909 10.5-0.39999999999997726 7-2 14-2.7999999999999545 21-0.2999999999999545 2.3000000000000114-0.6000000000000227 6.100000000000023 0.6000000000000227 6.699999999999989 6.600000000000023 3.900000000000034 3.8999999999999773 9.700000000000045 3.8999999999999773 14.899999999999977v9.5c5-2 9.100000000000023-2.699999999999932 12.100000000000023-5 3.3999999999999773-2.599999999999909 7.600000000000023-6.2999999999999545 8.299999999999955-10.099999999999966 1.3000000000000682-7.099999999999966 0.3000000000000682-14.699999999999989 0.39999999999997726-22 0.10000000000002274-4-1.5-8.099999999999966 4.900000000000091-10.199999999999989 3.099999999999909-1 6-6.399999999999977 1-11.199999999999989-2.1000000000000227-2-3.800000000000068-7.699999999999989-2.6000000000000227-9 6.600000000000023-7.300000000000011 3.1000000000000227-12.199999999999989-1.2000000000000455-15.199999999999989 0-6.600000000000023-0.1999999999999318-11.300000000000011 0-15.900000000000034 0.20000000000004547-5.099999999999966 1.2000000000000455-10.099999999999966 1-15.199999999999989-0.10000000000002274-1.5-2.699999999999932-3.1000000000000227-4.2999999999999545-4.5-2.1000000000000227-1.6999999999999886-4.300000000000068-3.1999999999999886-6.399999999999977-4.800000000000011 6.199999999999932-11.800000000000011 6.199999999999932-12.099999999999966 0.8999999999999773-16.099999999999966-0.5 3-0.6000000000000227 6.199999999999989-1.7000000000000455 9-4.2999999999999545 10.799999999999955-8.799999999999955 21.599999999999966-13.600000000000023 32.099999999999966-0.8999999999999773 2-3.599999999999909 3.6000000000000227-5.699999999999932 4.100000000000023z m-37 341.99999999999994c-6.600000000000023-10-14.700000000000045-14.899999999999977-26-14.099999999999909-11.5 0.8999999999999773-21.300000000000068 5.2999999999999545-26 17.09999999999991 4.100000000000023 2.800000000000068 8.299999999999955 4.900000000000091 11.5 8.100000000000023 4.5 4.300000000000068 8.399999999999977 4.5 13.899999999999977 1.6000000000000227 4-2.1000000000000227 9.100000000000023-2.2000000000000455 13.700000000000045-3.2000000000000455l0.7999999999999545 3.300000000000068c-5.7000000000000455 2.1000000000000227-11.5 4.199999999999932-19 6.899999999999977 9.700000000000045 8.799999999999955 18.299999999999955 16.600000000000023 26.700000000000045 24.200000000000045-6.7000000000000455 5.099999999999909-11.600000000000023 4.5-18.90000000000009-3.300000000000068-5.399999999999977-5.699999999999932-10.599999999999909-11.5-16.699999999999932-18.100000000000023-3.8999999999999773 11.100000000000023-7 20.40000000000009-10.200000000000045 29.600000000000023l-3.5-1.1999999999999318c2.2000000000000455-6.5 4.100000000000023-13.200000000000045 6.600000000000023-19.600000000000023 4.7999999999999545-12.300000000000068 4.7999999999999545-12.5-6-20.600000000000023-4.7999999999999545 6.7000000000000455-9 13-13.700000000000045 18.899999999999977-5.5 6.899999999999977-11.5 13.300000000000068-17.199999999999932 19.800000000000068 9.899999999999977 8.599999999999909 18.799999999999955 12.199999999999932 29.899999999999977 9.799999999999955 3.2000000000000455-0.7000000000000455 7.5 0.8999999999999773 10.399999999999977 2.7999999999999545 14.700000000000045 10 29.100000000000023 7.2000000000000455 43.60000000000002-0.1999999999999318 8.399999999999977-4.300000000000068 14.399999999999977-14.399999999999977 12.700000000000045-23.100000000000023-2.7000000000000455-13.200000000000045-4.7000000000000455-26.600000000000023-12.600000000000023-38.700000000000045z m-67.30000000000007-101.79999999999995c0.7000000000000455-1.2000000000000455 2.400000000000091-2.7999999999999545 3.6000000000000227-2.7999999999999545 12.5-0.10000000000002274 13.200000000000045-9.5 15.200000000000045-18.300000000000068 0.6000000000000227-2.5 3.2999999999999545-4.600000000000023 4.7999999999999545-6.899999999999977 1.6000000000000227 2.7000000000000455 4.899999999999977 5.899999999999977 4.300000000000068 7.7999999999999545-2.2000000000000455 6.600000000000023-5.7000000000000455 12.800000000000068-8.800000000000068 19-2.199999999999932 4-4.699999999999932 7.900000000000091-7.600000000000023 12.900000000000091h12.200000000000045c7.899999999999977-18.40000000000009 11.899999999999977-24.100000000000023 26.899999999999977-37 3.5-3 8.700000000000045-4.600000000000023 11.399999999999977-8.200000000000045 9.900000000000091-12.899999999999977 7.800000000000068-28.700000000000045 9.900000000000091-43.60000000000002 0.2999999999999545-3.2999999999999545 2.8999999999999773-8.799999999999955 4.699999999999932-8.899999999999977 7.5-0.2999999999999545 8.700000000000045-6 10.600000000000023-11 2.7999999999999545-7.2999999999999545 4.7000000000000455-14.899999999999977 7.7999999999999545-22 3.1000000000000227-7.2000000000000455 7.5-13.700000000000045 10.800000000000068-20.799999999999955 0.8999999999999773-1.7000000000000455 0-4.2000000000000455-0.10000000000002274-6.400000000000091 0-3.099999999999909-0.7000000000000455-6.5 0.10000000000002274-9.399999999999977 1.8999999999999773-7.099999999999966 1.5-11.599999999999966-8.399999999999977-9.099999999999966 2.2999999999999545-4.900000000000034 4.099999999999909-8.699999999999989 6.099999999999909-13.100000000000023-6.2999999999999545 0-7.899999999999977-1.8999999999999773-5.699999999999932-7.099999999999966 1.8999999999999773-4.100000000000023 3.6000000000000227-8.5 4-13.100000000000023 0.2999999999999545-2.1999999999999886-2.7000000000000455-6.899999999999977-3.6000000000000227-6.600000000000023-8.100000000000023 1.1000000000000227-6.399999999999977-4.5-7.100000000000023-8.799999999999955-0.8999999999999773-4.900000000000034-0.8999999999999773-11.400000000000034-3.8999999999999773-14.200000000000045-7.100000000000023-6.399999999999977-7.100000000000023-12.899999999999977-4.2999999999999545-20.899999999999977h11.699999999999932c4.5-4.100000000000023 7.300000000000068-6.5 10-9.100000000000023 1.8000000000000682-1.8999999999999773 5.100000000000023-5.2999999999999545 4.7000000000000455-5.899999999999977-4.300000000000068-6.300000000000011 0.6999999999999318-8.699999999999989 4.100000000000023-12 1.099999999999909-1.1999999999999886 1.5-3.1000000000000227 2.199999999999932-4.699999999999989-2.5-1.900000000000034-4.600000000000023-3.6000000000000227-7.699999999999932-6 2.699999999999932-2.1999999999999886 4.699999999999932-3.6999999999999886 6.5-5.699999999999989 1.6999999999999318-1.8000000000000114 3.099999999999909-4.100000000000023 4.599999999999909-6.100000000000023-1.7999999999999545-1.1999999999999886-3.599999999999909-3.1000000000000227-5.699999999999932-3.6000000000000227-5.100000000000023-1.1999999999999886-5.2000000000000455-3.599999999999966-3.6000000000000227-8.099999999999966 4.100000000000023-11.800000000000011 2.7999999999999545-14.100000000000023-9-19.69999999999999-0.2999999999999545-4-0.7000000000000455-8.200000000000045-1.1000000000000227-12.400000000000034h-9.299999999999955c-0.7000000000000455-4.800000000000011-1.3000000000000682-9.099999999999966-1.8999999999999773-13.5-8.400000000000091 1.8000000000000114-11.700000000000045-6.300000000000011-17.40000000000009-9.300000000000011-6.599999999999909-3.3999999999999773-13.599999999999909-6.2999999999999545-20.299999999999955-9.299999999999955l1.2999999999999545-3.6000000000000227c4.100000000000023 1.1000000000000227 8.100000000000023 2.1999999999999886 11.800000000000068 3.1000000000000227 7.600000000000023-5.900000000000034 10.299999999999955-13 6-22.30000000000001-0.8999999999999773-2.1000000000000227 0.6999999999999318-5.300000000000011 1.1999999999999318-7.900000000000034l2.400000000000091-0.2999999999999545c1.8999999999999773 4.599999999999966 3.8999999999999773 9.299999999999955 5.899999999999977 14.199999999999989 7.600000000000023-5.400000000000034 14.699999999999932-10.699999999999989 22.100000000000023-15.400000000000034 1.2999999999999545-0.8999999999999773 4.199999999999932 0.7000000000000455 6.2999999999999545 1.2000000000000455-0.8999999999999773 1.6999999999999886-1.2000000000000455 4.599999999999966-2.7000000000000455 5.099999999999966-7.199999999999932 3-8.5 9-8.899999999999977 15.600000000000023 0 0.5-0.8999999999999773 0.8999999999999773-1.6999999999999318 1.599999999999966-1.3000000000000682-1.5-2.7000000000000455-2.8999999999999773-4.2000000000000455-4.7999999999999545-2.2999999999999545 1.8999999999999773-4.5 3.8999999999999773-6.5 5.699999999999989 7.600000000000023 3.099999999999966 14.100000000000023 5.800000000000011 20.700000000000045 8.5l-1.2000000000000455 3.3000000000000114c-5.2999999999999545-1.2000000000000455-10.700000000000045-2.1000000000000227-15.899999999999977-3.6000000000000227-10.5-3.3999999999999773-10.5-3.6000000000000227-13.200000000000045 0.6000000000000227 4.100000000000023 12.199999999999989 23.700000000000045 7.599999999999966 23.100000000000023 22.69999999999999 4.600000000000023 2.3000000000000114 8.200000000000045 4 11.799999999999955 5.800000000000011 10.600000000000023-10.5 11.900000000000091-23.30000000000001 8.300000000000068-37.900000000000034-2.3999999999999773-9.300000000000011-3.300000000000068-19-4.300000000000068-26.30000000000001-18.199999999999932-1.8999999999999773-36.59999999999991-3.8999999999999773-55.299999999999955-5.7999999999999545-0.6000000000000227 3-1.2999999999999545 6.399999999999977-2.2000000000000455 10.399999999999977-5.199999999999932-6.699999999999989-10.099999999999909-12.599999999999994-15.199999999999932-19 0.5-0.5999999999999943 2.1000000000000227-1.6999999999999886 2.2999999999999545-3 1.2000000000000455-7 2.3999999999999773-14.099999999999994 3-21l-2.3999999999999773-7.800000000000011c0.5-9.299999999999983-2.7000000000000455-12.399999999999977-12.200000000000045-11.699999999999989-1.5 0.09999999999999432-2.8999999999999773-0.6999999999999886-4.199999999999932-1.0999999999999943 0.8999999999999773-14.400000000000006 0-15-12.899999999999977-9.5-1.5 0.5999999999999943-5.5-2.0999999999999943-6.600000000000023-4.099999999999994-2.2000000000000455-3.6000000000000227-2.8999999999999773-8.100000000000023-4.300000000000068-12.400000000000006-11.199999999999932 6.299999999999983-11 6.099999999999994-15.599999999999909-5.300000000000011-0.900000000000091-2.1999999999999886-5.7000000000000455-5.199999999999989-7-4.5-6.600000000000023 3.4000000000000057-9 0.09999999999999432-10.800000000000068-5.299999999999983-2.2999999999999545-7-5.7999999999999545-8.200000000000017-11.199999999999932-2.5-3.300000000000068 3.3999999999999773-6.5 3.0999999999999943-8.5-1.700000000000017-3.7000000000000455-8.799999999999983-9.300000000000068-8.299999999999983-16.200000000000045-3.5999999999999943-2.2000000000000455 1.5-6.899999999999977 2.4000000000000057-7.899999999999977 1.3000000000000114-8.700000000000045-8.5-15.200000000000045-3-22.899999999999977 1.6999999999999886-5.800000000000068 3.4000000000000057-12.800000000000068 4.599999999999994-19.200000000000045 6.900000000000006-0.2999999999999545-0.9000000000000057-0.5-1.8000000000000114-0.7000000000000455-2.700000000000017 1.5-2.8999999999999773 3-5.799999999999983 5.5-10.199999999999989-4.599999999999909-0.30000000000001137-8.199999999999932-1.6999999999999886-10.599999999999909-0.5-5.300000000000068 2.8000000000000114-7.7000000000000455 1.1999999999999886-10.400000000000091-3.5-1.099999999999909-2.0999999999999943-4.7999999999999545-4.900000000000006-5.7999999999999545-4.5-9.600000000000023 5.199999999999989-17.600000000000023-2.4000000000000057-26.299999999999955-3.5999999999999943l7.5-2.200000000000017c0.2999999999999545-0.8999999999999773 0.599999999999909-1.799999999999983 0.8999999999999773-2.799999999999983-3.300000000000068-1.5-7.2000000000000455-4.800000000000011-9.899999999999977-4-5.7000000000000455 1.9000000000000057-8.800000000000068-0.30000000000001137-11.800000000000068-4.200000000000003-3.8999999999999773-4.799999999999997-8.100000000000023-7.6000000000000085-14.199999999999932-3.4000000000000057-4.600000000000023 3-7.2000000000000455 1.7000000000000028-10-3.5-1.5-2.8999999999999915-7.000000000000057-4.5-10.800000000000068-5.099999999999994-3.3999999999999773-0.5-7.199999999999989 1.2000000000000028-11.199999999999989 2.0999999999999943-2.3999999999999773-9-8.699999999999989-7.799999999999997-15.399999999999977-6.3999999999999915-3.6000000000000227 0.8999999999999915-7.600000000000023 1.5-11.199999999999989 1.0999999999999943-7.100000000000023-0.9000000000000057-11.400000000000034 1.9000000000000057-13.5 8.400000000000006-1.8000000000000114 5.8999999999999915-0.6000000000000227 10.599999999999994 7.699999999999989 11.599999999999994-12 5.699999999999989-12 5.699999999999989-15.5-7.299999999999997-6-2.4000000000000057-11.100000000000023-4.1000000000000085-15.800000000000011-6.5-7.699999999999989-3.9000000000000057-14.899999999999977-4.1000000000000085-22.69999999999999 0.5-7.5 4.299999999999997-15.300000000000011 8.899999999999991-23.69999999999999 11.100000000000009-8.5 2.0999999999999943-10.300000000000011 8.699999999999989-14.900000000000034 14.199999999999989-4.199999999999989 5-15.800000000000011 5.199999999999989-18 10.199999999999989-4.699999999999989 11.300000000000011-14.399999999999977 16-22.5 23.100000000000023-2.3000000000000114 1.8999999999999773-5.099999999999966 3.5-7.599999999999966 5.199999999999989-0.9000000000000341-3.9000000000000057-0.30000000000001137-6.599999999999994 0.6999999999999886-8.900000000000006 1.1999999999999886-2.6999999999999886 2.8000000000000114-5.299999999999983 5.099999999999966-9.299999999999983-7.199999999999989-0.30000000000001137-13-1.200000000000017-18.599999999999966-0.700000000000017-11.100000000000023 0.9000000000000057-18.19999999999999 9.5-22.30000000000001 20.400000000000006-4.5 12.099999999999994-8.699999999999989 25-25.600000000000023 27.099999999999994-7.299999999999983 0.9000000000000057-14.199999999999989 6.700000000000017-20.99999999999997 10.800000000000011-1.8000000000000114 1.0999999999999943-4.099999999999994 4.199999999999989-3.5999999999999943 5.799999999999983 2.0999999999999943 7.600000000000023-3.3000000000000114 8.100000000000023-8.100000000000023 9.400000000000006-8.199999999999989 2.200000000000017-11.699999999999989 7.800000000000011-13.399999999999977 15.900000000000006-0.9000000000000057 4.300000000000011-3.700000000000017 8.300000000000011-5.900000000000006 12.399999999999977-2.9000000000000057 5.7000000000000455-6.700000000000017 11-8.599999999999994 16.700000000000045-3.700000000000017 11.299999999999955-6.400000000000006 23-9.600000000000023 34.39999999999998-0.09999999999999432 0.5-0.6999999999999886 0.8999999999999773-1.1999999999999886 1.3000000000000114-13.800000000000011 8.099999999999966-12.199999999999989 20.69999999999999-9.599999999999994 33.30000000000001 1.5 7.2999999999999545 5.199999999999989 11.799999999999955 13.799999999999983 8.799999999999955-1.0999999999999943-8.5-1.8999999999999773-17.19999999999999 7-22.899999999999977 0.9000000000000057-0.6000000000000227 1.200000000000017-2.8000000000000114 1.3000000000000114-4.199999999999989 1.3000000000000114-8.400000000000034 6.599999999999994-13.5 13.5-17.80000000000001 3.9000000000000057-2.3999999999999773 7.800000000000011-5.800000000000011 10.199999999999989-9.699999999999989 9.600000000000023-15.400000000000034 39-24.5 55.5-15-4.699999999999989 0.6999999999999886-7.800000000000011 1.3999999999999773-10.800000000000011 1.6999999999999886-12.599999999999966 0.8999999999999773-24.399999999999977 4.199999999999989-34.19999999999999 12.399999999999977-1.8999999999999773 1.7000000000000455-4.699999999999989 5.100000000000023-4.099999999999994 6.5 2.4000000000000057 6.100000000000023-1.299999999999983 6.5-5.5 7.600000000000023-11.699999999999989 2.8999999999999773-15.5 7.899999999999977-17 20.69999999999999-0.09999999999999432 1.6000000000000227-0.9000000000000057 4.300000000000011-1.9000000000000057 4.600000000000023-9.799999999999983 2-7.299999999999983 8.399999999999977-5.899999999999977 15 1.0999999999999943 4.699999999999989-0.10000000000002274 7-6.400000000000006 6.300000000000011-16.200000000000017-1.8000000000000114-28.30000000000001 11.199999999999989-26.599999999999994 27.69999999999999 0.29999999999998295 2.3999999999999773 0 5.5-1.5 7.199999999999989-6.300000000000011 7.199999999999989-8.800000000000011 14.600000000000023-4.5 20-2.5 8.699999999999989-5.700000000000017 14.899999999999977-5.900000000000006 21.19999999999999-0.09999999999999432 6.100000000000023 3.4000000000000057 12.300000000000011 4.299999999999983 18.5 0.9000000000000057 6.600000000000023 2.4000000000000057 11.300000000000011 10.800000000000011 10.199999999999989 2.3000000000000114-0.2999999999999545 6.099999999999994 1.6000000000000227 7.199999999999989 3.5 5.200000000000017 9.600000000000023 15.5 14 25.5 8.5 7.300000000000011-4 14.200000000000017-6.599999999999966 20.700000000000017-2.5 4.699999999999989-4 8.299999999999983-7.099999999999966 11.900000000000006-10.199999999999989 0.6999999999999886 0.6000000000000227 1.299999999999983 1.3000000000000114 1.8999999999999773 1.900000000000034-2.0999999999999943 4.599999999999966-3.3999999999999773 9.399999999999977-6.099999999999994 13.399999999999977-1.299999999999983 1.8000000000000114-6.400000000000006 3.3999999999999773-7.799999999999983 2.3999999999999773-6.900000000000006-5.099999999999966-13-4-19.700000000000017 0.10000000000002274-2.799999999999983 1.6999999999999886-6.099999999999994 2.8000000000000114-9.5 3.3999999999999773-12.299999999999983 2.3000000000000114-20.400000000000006 13.200000000000045-16 24.5 2.8000000000000114 6.7000000000000455 1.200000000000017 11.399999999999977-1.1999999999999886 17.100000000000023-2.4000000000000057 5.7000000000000455-2.3000000000000114 10.799999999999955 5.5 12.5 4.799999999999983 1.1000000000000227 6.599999999999994 4 4.5 8.799999999999955-2.200000000000017 5.2000000000000455 0.29999999999998295 8.100000000000023 4.799999999999983 10.200000000000045 5.900000000000006 3 11.200000000000017 5.7999999999999545 14.700000000000017 12.799999999999955 3 5.900000000000091 10.199999999999989 11.900000000000091 16.69999999999999 13.400000000000091 12.300000000000011 2.699999999999932 15.800000000000011 9.899999999999977 17 20.699999999999932 0.30000000000001137 2.2000000000000455 4.800000000000011 5.800000000000068 7.099999999999994 5.5 9.800000000000011-0.8999999999999773 14.300000000000011 3.5 16.400000000000034 12.399999999999977 0.5 2.2000000000000455 1.8999999999999773 4.2000000000000455 4 8.300000000000068-0.30000000000001137-7.899999999999977-0.7000000000000455-13.600000000000023-0.9000000000000341-19-14.199999999999989-4.100000000000023-20-13.399999999999977-18-27.300000000000068 0.30000000000001137-2.2999999999999545-0.29999999999998295-4.599999999999909-0.29999999999998295-6.899999999999977 0-6.5 0-13 0.09999999999999432-19.399999999999977 0.09999999999999432-3.5 1.5-7 0.9000000000000057-10.399999999999977-1.700000000000017-9.399999999999977 3.9000000000000057-18 12.999999999999972-19.200000000000045-10.999999999999972 9.300000000000068-11.099999999999966 10.800000000000068-4.7999999999999545 24.300000000000068 1.1999999999999886 2.3999999999999773 0 6.699999999999932-1.5 9.5-2.3000000000000114 4.2999999999999545-3.900000000000034 7.7999999999999545 1.5 11 4.599999999999966 2.5 3.099999999999966 5.399999999999977 0.8999999999999773 9.099999999999909-4.600000000000023 8.200000000000045-1.1999999999999886 17.800000000000068 7.199999999999989 20.200000000000045 3.1000000000000227 0.8999999999999773 6.900000000000034 0.2999999999999545 12.199999999999989 0.2999999999999545-8.399999999999977 14.400000000000091-2.099999999999966 26.5 6.400000000000034 38.200000000000045-0.6000000000000227 0.5-1.1999999999999886 1.1000000000000227-1.6999999999999886 1.6000000000000227-2.8000000000000114-0.7000000000000455-5.5-1.5-11.200000000000045-2.8999999999999773 5.5 5.899999999999977 11.200000000000045 9.5 12.900000000000034 14.299999999999955 3.099999999999966 9.899999999999977 6.099999999999966 20.600000000000023 5.5 30.700000000000045-0.9000000000000341 16.59999999999991 8.699999999999989 25.59999999999991 20.30000000000001 33.299999999999955 4.899999999999977 3.2999999999999545 12.199999999999989 5.7999999999999545 17.69999999999999 4.899999999999977 6.599999999999966-1.1000000000000227 8.800000000000011 0.7000000000000455 9.399999999999977 6.100000000000023 0.5 5.7000000000000455 3.5 7 8.699999999999989 6.899999999999977 5.5-0.10000000000002274 12-1.1999999999999318 16.5 1.1000000000000227 7.900000000000034 4.2000000000000455 13.5 3 18.30000000000001-3.7000000000000455 12.199999999999989 9.400000000000091 12.199999999999989 9.400000000000091 23-2.3999999999999773 1.1000000000000227-1.1999999999999318 2.1000000000000227-2.3999999999999773 3.400000000000034-3.1000000000000227 1.7999999999999545-1.099999999999909 24.19999999999999 10 24.799999999999955 12.200000000000045 3.400000000000034 11.299999999999955 8.400000000000034 15 19.400000000000034 12.799999999999955 4.800000000000011-0.8999999999999773 7.099999999999966 0.10000000000002274 10 3.900000000000091 2.5 3.3999999999999773 6.699999999999989 5.399999999999977 10.199999999999989 8.099999999999909 2.3999999999999773-3.2999999999999545 5.899999999999977-6.099999999999909 7.100000000000023-9.699999999999932 4.5-14.300000000000068 14.299999999999955-22.100000000000023 28.69999999999999-23.800000000000068 18.900000000000034-2.199999999999932 37.99999999999994-3.599999999999909 56.99999999999994-5.199999999999932 17.40000000000009-1.5 33.700000000000045 0 49.5 10.199999999999932 11.300000000000068 7.2000000000000455 25.600000000000023 7.7000000000000455 39 0.900000000000091 2.5-1.3000000000000682 5.900000000000091-1.8000000000000682 8.900000000000091-1.8000000000000682 8.299999999999955 0.3000000000000682 17.09999999999991 1.6000000000000227 14.699999999999932-11.699999999999932 8.399999999999977-6.5 11.800000000000068-15.900000000000091 16.600000000000023-24.90000000000009 3.5-6.699999999999932 5.7999999999999545-12.399999999999977 5.7999999999999545-19.5l0.3000000000000682-1.8999999999999773c-3.1000000000000227-0.2999999999999545-6.100000000000023-0.6999999999999318-9.100000000000023-1.1999999999999318l-1.2000000000000455-2.300000000000068c3.5-1.7999999999999545 9.300000000000068-5.600000000000023 10.900000000000091-4.2999999999999545 7.899999999999977 6.100000000000023 12.799999999999955 4 17.09999999999991-3.6000000000000227z m25.300000000000068-66c-4.2000000000000455-2.2000000000000455-7-3.5-9.700000000000045-4.899999999999977 1.8999999999999773-2.7000000000000455 3.5-5.399999999999977 5.800000000000068-7.7000000000000455 3.099999999999909-3.1000000000000227 6.699999999999932-5.899999999999977 10.799999999999955-9.399999999999977 6.2999999999999545 19.100000000000023-2.1000000000000227 34.299999999999955-8.899999999999977 49.39999999999998-2.800000000000068 6-8.700000000000045 8.5-15.5 7.5-1.5-0.2999999999999545-3.6000000000000227-1.5-4-2.699999999999932-0.3000000000000682-1.3000000000000682 0.6999999999999318-4.300000000000068 1.6999999999999318-4.600000000000023 15.400000000000091-3.6000000000000227 11.600000000000023-19.700000000000045 19.800000000000068-27.600000000000023z m-103.20000000000005-364.3c9.899999999999977 3.1000000000000227 19.5 7.600000000000023 28.300000000000068 13 7.7999999999999545 4.800000000000011 12.899999999999977 37.30000000000001 8.299999999999955 45.5-0.2999999999999545 0.30000000000001137-0.8999999999999773 0.6000000000000227-2.7999999999999545 1.6000000000000227-2.1000000000000227-11.400000000000034-3.7000000000000455-22.100000000000023-5.900000000000091-32.69999999999999-1.2999999999999545-6.100000000000023-2.8999999999999773-12.400000000000034-11.899999999999977-10.5-1.6999999999999318 0.2999999999999545-4.699999999999932-1.2000000000000455-5.899999999999977-2.8000000000000114-9.299999999999955-11.100000000000023-9.299999999999955-11.200000000000017-23.200000000000045-6.400000000000006 0.6000000000000227-7 4.7000000000000455-10.400000000000006 13.100000000000023-7.700000000000017z m-73.39999999999998 64h-16.600000000000023l-0.6000000000000227 0.9000000000000341c1.7000000000000455 1 3.1000000000000227 2.6999999999999886 3.7000000000000455 5 1.2000000000000455 4.2999999999999545-1.5 10.199999999999989-6.2000000000000455 10.899999999999977-0.599999999999909 0.10000000000002274-1.1999999999999318 0.19999999999998863-1.6999999999999318 0.30000000000001137-0.20000000000004547 0.0999999999999659-0.3000000000000682 0.0999999999999659-0.39999999999997726 0.0999999999999659l-0.7000000000000455 0.4000000000000341c-0.10000000000002274 0.0999999999999659-1.1000000000000227 0.8000000000000114-1.2999999999999545 1-0.5 0.5-1 1-1.400000000000091 1.599999999999966l-1 1.400000000000034c-0.5 0.8000000000000114-1 1.5-1.3999999999999773 2.3000000000000114l-2.699999999999932 4.699999999999989c-2.400000000000091 4.199999999999989-8 5.599999999999966-12.200000000000045 3.1999999999999886-4.2000000000000455-2.3999999999999773-5.600000000000023-8-3.2000000000000455-12.199999999999989 3.300000000000068-5.699999999999989 6.900000000000091-12 12.100000000000023-16-8.799999999999955-0.6000000000000227-17.600000000000023-1.8000000000000114-26.5-2.6000000000000227-4.7999999999999545-0.39999999999997726-8.899999999999977-3.6999999999999886-8.899999999999977-8.899999999999977 0-4.5 4.100000000000023-9.300000000000011 8.899999999999977-8.900000000000034 12 1.1000000000000227 23.899999999999977 2.900000000000034 36 3 3.6000000000000227 0 6 1.8000000000000114 7.399999999999977 4.2000000000000455h16.700000000000045c6.100000000000023 0.19999999999998863 6.100000000000023 9.599999999999966 0 9.599999999999966z m-27.799999999999955 188.90000000000003c-1.900000000000091-1.8000000000000114-0.3000000000000682-7.300000000000011-0.3000000000000682-11.200000000000045h3c-2.7999999999999545 11 15.600000000000023 20.600000000000023 0.6000000000000227 32.5 2.2999999999999545-7.7999999999999545 3.6000000000000227-14.899999999999977-3.2999999999999545-21.299999999999955z m-31.700000000000045-52.700000000000045c-10.600000000000023 12.100000000000023-26.69999999999999 18.200000000000045-42.19999999999999 20.700000000000045-6 1-8.5-8.100000000000023-2.5-9.100000000000023 2.8999999999999773-0.5 5.899999999999977-1.1000000000000227 8.800000000000011-1.8000000000000114-0.20000000000004547-0.5-0.30000000000001137-1.099999999999966-0.30000000000001137-1.599999999999966v-7c0-2.6000000000000227 2.1999999999999886-4.600000000000023 4.699999999999989-4.7000000000000455 2.6000000000000227-0.0999999999999659 4.699999999999989 2.3000000000000114 4.699999999999989 4.7000000000000455v5.699999999999989c6.900000000000034-2.6999999999999886 13.300000000000011-6.5 18.5-11.800000000000011 9.699999999999989-10 11.5-23.399999999999977 8.199999999999989-36.60000000000002-1.5-5.899999999999977 7.600000000000023-8.399999999999977 9.100000000000023-2.5 4 15.5 1.8999999999999773 31.5-9 44z m7.2999999999999545 152.80000000000007c-10.399999999999977 7.7999999999999545-25.099999999999966 6.2999999999999545-32.19999999999993-2.2000000000000455 10.399999999999977 0.7000000000000455 20.099999999999966 1.2999999999999545 32.19999999999993 2.2000000000000455z m-97.49999999999994-267.1c5.099999999999966-6.600000000000023 9.899999999999977-5.2000000000000455 14.899999999999977-1.2000000000000455 4.5 3.5 9 6.900000000000034 13.199999999999989 10.700000000000045 1.8000000000000114 1.5 3.900000000000034 3.6999999999999886 4 5.7999999999999545 0.9000000000000341 9.100000000000023 5.800000000000011 13.800000000000011 15.300000000000011 14.800000000000011l-18.30000000000001 9.5c0.5-20-8.699999999999989-33-29.099999999999966-39.599999999999966z m51.099999999999966 239.89999999999998c-11.299999999999955 3-19.69999999999999-4.100000000000023-19.5-18.299999999999955 6.7000000000000455 6.399999999999977 13.300000000000011 12.5 19.5 18.299999999999955z m-124-326.3c7-7.199999999999989 16.5-7.5 25.900000000000034-7.199999999999989 2.3999999999999773 0.09999999999999432 5.899999999999977 0.6999999999999886 7-0.5999999999999943 7.5-8.800000000000011 18.399999999999977-11.099999999999994 27.899999999999977-16 10-5.200000000000017 19.80000000000001-4.700000000000017 31.30000000000001 0-14.600000000000023-13.800000000000011-13.699999999999989-25 0.8999999999999773-37.80000000000001 2.5-2.1999999999999886 2.900000000000034-6.599999999999994 5.100000000000023-9.5 1.1999999999999886-1.6999999999999886 3.8999999999999773-2.5 5.899999999999977-3.6999999999999886 0.30000000000001137 2.0999999999999943 1.2000000000000455 4.199999999999989 0.7000000000000455 6-1.900000000000034 6.699999999999989-2.1000000000000227 14-11.300000000000011 17-5.400000000000034 1.799999999999983-4.699999999999989 10.699999999999989 0 18.599999999999994 5.800000000000011-0.6999999999999886 11-2.8000000000000114 15.399999999999977-1.5999999999999943 10.400000000000034 2.6999999999999886 18.80000000000001-1.5 27.80000000000001-5.099999999999994 13.800000000000011-5.400000000000006 27.5-11.200000000000017 41.799999999999955-15 6.400000000000091-1.8000000000000114 14.100000000000023 0.6999999999999886 21.200000000000045 1.5999999999999943 1.7000000000000455 0.29999999999998295 3.3999999999999773 2.0999999999999943 4.899999999999977 2.0999999999999943 9.399999999999977-0.30000000000001137 12.399999999999977 6.099999999999994 14 13.199999999999989 2.1000000000000227 10.200000000000017 3.3999999999999773 20.700000000000017 4.5 31 0.3000000000000682 1.9000000000000057-1.8999999999999773 4.200000000000017-3.2999999999999545 6.600000000000023-1.8000000000000682-1.5-3.7000000000000455-2.200000000000017-4-3.4000000000000057-1.6000000000000227-9.099999999999994-3.300000000000068-18.30000000000001-4.2000000000000455-27.400000000000006-0.6000000000000227-6.400000000000006-0.10000000000002274-13-9.600000000000023-11.900000000000006-0.7999999999999545 0.20000000000001705-2-0.19999999999998863-2.599999999999909-0.799999999999983-10.5-10.5-19.200000000000045-5.5-26 1.799999999999983-20.100000000000023-0.9000000000000057-35.60000000000002 5.700000000000017-49.700000000000045 17.80000000000001-6.5-7-15.399999999999977-5.300000000000011-23.100000000000023-3.5-2.7999999999999545 0.6999999999999886-4 7.900000000000006-6.899999999999977 14.400000000000006-2.5-0.6000000000000227-7-1.700000000000017-11.399999999999977-2.5-4-0.700000000000017-10.100000000000023-3-11.900000000000034-1.200000000000017-9.599999999999966 9.900000000000006-27.19999999999999 4.900000000000006-34.5 18.80000000000001-0.6999999999999886 1.5-5.099999999999966 1.5-7.599999999999966 1.299999999999983-13.400000000000034-0.8999999999999773-24.100000000000023 1.1000000000000227-29 16.400000000000034-3.3000000000000114 9.899999999999977-11.100000000000023 3.3999999999999773-17.100000000000023 2.5 6.100000000000023-7.600000000000023 11.5-15.300000000000011 17.899999999999977-21.900000000000034z m8.800000000000011 94.19999999999999c-0.19999999999998863 3.1000000000000227-0.30000000000001137 6-0.5 8.600000000000023-0.39999999999997726 6-9.899999999999977 6.100000000000023-9.5 0 1.1999999999999886-17.80000000000001 2-43.39999999999998 23.5-48.60000000000002 5.900000000000034-1.3999999999999773 8.400000000000034 7.7000000000000455 2.5 9.100000000000023-9.599999999999966 2.3000000000000114-13.300000000000011 11-14.899999999999977 20.5 7.699999999999989 4.600000000000023 14.699999999999989 10 18.19999999999999 18.69999999999999 1 2.400000000000034-1.1000000000000227 5.199999999999989-3.3000000000000114 5.800000000000011-2.6999999999999886 0.6999999999999886-4.800000000000011-0.8999999999999773-5.800000000000011-3.3000000000000114-1.8999999999999773-4.599999999999966-5.899999999999977-8-10.199999999999989-10.800000000000011z m4.100000000000023 22.900000000000034c-6.900000000000034 7.099999999999966-10.400000000000034 15.800000000000011-10.600000000000023 25.69999999999999-0.0999999999999659 6.100000000000023-9.599999999999966 6.100000000000023-9.5 0 0.19999999999998863-12.399999999999977 4.800000000000011-23.399999999999977 13.400000000000034-32.30000000000001 4.2999999999999545-4.399999999999977 11 2.3000000000000114 6.699999999999989 6.600000000000023z m-39.10000000000002 119.80000000000001c-1.6999999999999886-3-3-6.300000000000011-4.899999999999977-10.100000000000023 3.3999999999999773-4.399999999999977 6.099999999999966-6.399999999999977 10.399999999999977 1 4 6.600000000000023 5.100000000000023 12.600000000000023 2.1999999999999886 19.600000000000023 0.30000000000001137 5.199999999999989 0.5 10.399999999999977 0.7000000000000455 16.19999999999999 2.1999999999999886 2.099999999999966 5.899999999999977 5.800000000000011 9.599999999999966 9.400000000000034l-1.099999999999966 1.2999999999999545c-5.400000000000034-1.2000000000000455-10.800000000000011-3.6000000000000227-16-3.3000000000000114-5.300000000000011 0.30000000000001137-10.400000000000034 3.500000000000057-17 3.900000000000034 4.7999999999999545-4.100000000000023 9.699999999999989-8.100000000000023 13.099999999999966-10.800000000000011 3.900000000000034-6.300000000000011 7-11.300000000000011 10.100000000000023-16.400000000000034-2.400000000000034-3.599999999999966-4.800000000000011-7.099999999999966-7.100000000000023-10.799999999999955z m-22.19999999999999-106c-3.3000000000000114 6.599999999999966-4.699999999999989 14-7.199999999999989 20.899999999999977-0.6999999999999886 2.3000000000000114-2.1999999999999886 5.899999999999977-3.5 6-9.100000000000023 0.5-7.5 6.899999999999977-7.699999999999989 12.600000000000023-0.10000000000002274 3.099999999999966-0.7000000000000455 6.399999999999977-1.6000000000000227 9.399999999999977-2.3000000000000114 8.300000000000011 0.6000000000000227 14.199999999999989 7.699999999999989 18.600000000000023-10.399999999999977 4.7999999999999545-18.399999999999977-2.900000000000034-17.099999999999966-16.700000000000045 0.6999999999999886-7.599999999999966 2.3999999999999773-15 3.8999999999999773-22.5 0.10000000000002274-0.8999999999999773 0.6000000000000227-1.7999999999999545 1.1000000000000227-2.5 5.699999999999989-10.5 11.599999999999966-20.69999999999999 17.099999999999966-31.299999999999955 2.8000000000000114-5.400000000000034 4.699999999999989-11.300000000000011 7.100000000000023-17l3 0.8999999999999773c3.3000000000000114 7.699999999999989 0.8000000000000114 14.399999999999977-2.8000000000000114 21.600000000000023z m3.3999999999999773-137.60000000000002c3.900000000000034 9.099999999999994 6.7000000000000455 16.400000000000006 9.900000000000034 24.100000000000023-8.199999999999989 0.5-12.800000000000011-8.200000000000017-9.900000000000034-24.100000000000023z m21.200000000000045 411.6c-15 8.5-15 8.5-19.5 6.2999999999999545 6.2999999999999545-4 13-8.199999999999932 19.5-12.299999999999955 4.7999999999999545 3.3999999999999773 9.899999999999977 8.399999999999977 16 11.100000000000023 6.099999999999966 2.7999999999999545 13.5 3.599999999999909 17-5.5 12.299999999999955 6 21.399999999999977 1.6999999999999318 29.599999999999966-7.300000000000068 2.3000000000000114-2.5 6.699999999999989-4.5 10-4.199999999999932 10 0.8999999999999773 16.69999999999999-2.900000000000091 21.19999999999999-12.300000000000068 1.2000000000000455-2.5 4.5-4.100000000000023 6.900000000000034-6 0.30000000000001137 3.1000000000000227 1.8999999999999773 7 0.8999999999999773 9.5-4.899999999999977 10.800000000000068-13 17.399999999999977-25.899999999999977 17.300000000000068-3 0-6.5 1.1999999999999318-9 3-8.400000000000034 6.099999999999909-16.69999999999999 11.099999999999909-28 8.699999999999932-3-0.6000000000000227-6.600000000000023 2.7000000000000455-10.199999999999989 3-11.300000000000011 1.2000000000000455-20.80000000000001-2.3999999999999773-28.5-11.299999999999955z m232.5 34.299999999999955c-4.899999999999977-8.199999999999932-10-16.5-15-24.799999999999955 8.699999999999932-1.2000000000000455 16.799999999999955 10 17.299999999999955 23.299999999999955l-2.2999999999999545 1.5z m27.399999999999977 35.200000000000045c-6 2.3999999999999773-12.200000000000045 1.2999999999999545-14.200000000000045-8.5 3.7000000000000455 0.6999999999999318 6.600000000000023 2.1000000000000227 9.300000000000068 1.6999999999999318 3.3999999999999773-0.5 6.5-2.5 9.699999999999932-3.599999999999909 4.900000000000091-1.5 9.900000000000091-2.900000000000091 14.900000000000091-4.300000000000068 0.2999999999999545 1.2000000000000455 0.599999999999909 2.3999999999999773 0.8999999999999773 3.5-6.800000000000068 3.800000000000068-13.300000000000068 8.5-20.600000000000023 11.200000000000045z m101.29999999999995-251.60000000000002c-1.7999999999999545-0.6000000000000227-4.699999999999932-0.8999999999999773-5.2999999999999545-2.1000000000000227-4.2000000000000455-9.599999999999966-9.899999999999977-3.8999999999999773-15-1.599999999999966-4.600000000000023 2.099999999999966-9.299999999999955 4.300000000000011-13.399999999999977 7.199999999999989-2.3999999999999773 1.6000000000000227-5.899999999999977 5.199999999999989-5.399999999999977 6.899999999999977 2.199999999999932 7-2.400000000000091 8.100000000000023-6.900000000000091 10.5-6.2999999999999545 3.400000000000034-13 7.300000000000011-6.2999999999999545 16.200000000000045 0.7000000000000455 1.099999999999966 0.10000000000002274 4.699999999999989-0.8999999999999773 5.5-6.600000000000023 5.199999999999989-2.300000000000068 8.199999999999932 1.8999999999999773 11.100000000000023 3.3999999999999773 2.3999999999999773 7 4.199999999999932 10.5 6.2999999999999545-0.2999999999999545 1.2000000000000455-0.7000000000000455 2.3999999999999773-0.8999999999999773 3.5-4.2000000000000455-0.2999999999999545-8.800000000000068 0.10000000000002274-12.5-1.2999999999999545-10.200000000000045-3.900000000000091-22.100000000000023-1.8000000000000682-29.300000000000068 6.099999999999909-1.2999999999999545 1.3000000000000682-2.2999999999999545 3.5-2.2999999999999545 5.300000000000068 0.10000000000002274 12.299999999999955 1.2000000000000455 24.5 0.7000000000000455 36.799999999999955-0.3000000000000682 4.5-2.5 10.399999999999977-5.900000000000091 12.800000000000068-6.399999999999977 4.5-6 9-4.199999999999932 15 1.5 4.899999999999977 2.3999999999999773 10.099999999999909 3.5 15.199999999999932l-2.1000000000000227 0.6000000000000227c-2.2000000000000455-2.1000000000000227-4.2999999999999545-4.100000000000023-7-6.600000000000023-10.700000000000045 8.899999999999977-23.299999999999955 13.600000000000023-37.39999999999998 14.800000000000068-2.3999999999999773 0.2999999999999545-5.300000000000068 3.699999999999932-6.399999999999977 6.2999999999999545-1.8000000000000682 4.2000000000000455-2.2000000000000455 9-3.6000000000000227 13.399999999999977-3.5 10.399999999999977-8.800000000000068 13.700000000000045-19.5 13.100000000000023-10.100000000000023-0.6000000000000227-22.700000000000045 7.5-26.30000000000001 17-0.6999999999999886 1.7000000000000455-0.6999999999999886 3.6000000000000227-0.6999999999999886 5.399999999999977-0.10000000000002274 4.600000000000023 0 9.300000000000068 0 16 2.7999999999999545 2.3999999999999773 9.399999999999977 6.399999999999977 1.099999999999966 13.100000000000023 2.8000000000000114 3.2999999999999545 4.900000000000034 7.100000000000023 8.300000000000011 9.5 3.6999999999999886 2.8999999999999773 8.5 4.600000000000023 12.5 7.600000000000023-17.100000000000023 4-27.80000000000001-5.300000000000068-27.100000000000023-21.5 0.30000000000001137-6 0.6000000000000227-12.399999999999977-0.8999999999999773-18-3-11.100000000000023 2.8000000000000114-18.899999999999977 9.100000000000023-26.899999999999977-4.2000000000000455-2.400000000000091-7.800000000000011-4.5-10.700000000000045-6-3.5 10.099999999999909-6.699999999999989 19.5-10.199999999999989 28.899999999999977-0.5 1.2999999999999545-1.8000000000000114 2.7999999999999545-3 3.2999999999999545-14.800000000000011 5.5-27.399999999999977 16.200000000000045-45.5 14-10-1.1999999999999318-20.69999999999999 3.8999999999999773-31.099999999999966 5.899999999999977-4.100000000000023 0.900000000000091-8.700000000000045 2.5-12.5 1.7000000000000455-8.900000000000034-1.7999999999999545-17.700000000000045-4.600000000000023-26.200000000000045-7.5-7.699999999999989-2.7000000000000455-10.799999999999955-7.2999999999999545-12-17.399999999999977 3.400000000000034 2.5 5.7000000000000455 4.899999999999977 8.300000000000011 6.100000000000023 4.699999999999989 2.199999999999932 9.5 3.8999999999999773 14.400000000000034 5.399999999999977 4.5 1.2999999999999545 9.099999999999966 2.3999999999999773 13.799999999999955 2.8999999999999773 3.3000000000000114 0.5 8.100000000000023 1.2000000000000455 9.800000000000011-0.5 6.100000000000023-6.100000000000023 11.900000000000034-8.200000000000045 19.600000000000023-3.3999999999999773 1.5 0.8999999999999773 4-0.10000000000002274 7.199999999999989-0.3000000000000682-3.5-10.5-19.5-17.899999999999977-5.199999999999989-32-2.1999999999999886 9.900000000000091 1.3000000000000114 15.400000000000091 8.399999999999977 19.200000000000045 2.400000000000034 1.2000000000000455 5.400000000000034 3.1000000000000227 6.300000000000011 5.2999999999999545 3.8999999999999773 10.800000000000068 12.199999999999989 10.5 21.399999999999977 9.5-1.6999999999999886-15.799999999999955 14.800000000000011-7.699999999999932 19.5-16-6.899999999999977-3.8999999999999773-7-6.599999999999909 1.3000000000000114-10 3.1000000000000227-1.1999999999999318 5.699999999999989-6.699999999999932 6.5-10.699999999999932 0.30000000000001137-2.2000000000000455-2.8999999999999773-6.100000000000023-5.5-7.800000000000068-7.199999999999989-4.5-14.800000000000011-8.099999999999909-22.399999999999977-12-10.199999999999989-5.2999999999999545-16.600000000000023-11.899999999999977-15.400000000000034-25.299999999999955 0.6000000000000227-6.5-2.8999999999999773-15.399999999999977-7.699999999999989-19.799999999999955-10.5-10-6.099999999999966-19.200000000000045-1.599999999999966-29.90000000000009-10.5-4.5-17.600000000000023-11.799999999999955-16.100000000000023-23.799999999999955 0.30000000000001137-2.3999999999999773 6-4.2000000000000455 11.300000000000011-7.7999999999999545-7.300000000000011 18 8.300000000000011 19 13.699999999999989 25.299999999999955-2.8999999999999773 8.799999999999955-5.699999999999989 16.799999999999955-8.899999999999977 26.799999999999955 13.399999999999977-1.6999999999999318 13.099999999999966 4.900000000000091 12.799999999999955 12.300000000000068-0.2999999999999545 2.7999999999999545 0.7000000000000455 6.2999999999999545 2.400000000000034 8.5 3.599999999999966 4.899999999999977 8.399999999999977 7.899999999999977 6.300000000000011 16.399999999999977-1.900000000000034 7.5 13.599999999999966 12.899999999999977 23.599999999999966 7.5 1.8000000000000114 16 12 17.299999999999955 24.30000000000001 12.600000000000023 2.8999999999999773 9.5 14.600000000000023 13.799999999999955 20.30000000000001 7.199999999999932 5.699999999999989-6.399999999999977 9.599999999999966-4.599999999999909 16.499999999999943 0.900000000000091 2.2000000000000455-7.5 5.2000000000000455-13.200000000000045 5.5-19.200000000000045 0.5-10.100000000000023 4.800000000000068-13.799999999999955 14.800000000000068-13.600000000000023 6.399999999999977 0.10000000000002274 13.5-0.2999999999999545 19-3.2999999999999545 5.7999999999999545-2.8999999999999773 11.199999999999932-8.200000000000045 14.600000000000023-13.800000000000068 1.8999999999999773-3.099999999999909-0.7000000000000455-9-1.6000000000000227-15.399999999999977 4.5-2.8999999999999773 18.199999999999932-0.2999999999999545 14.799999999999955-14.100000000000023-0.6999999999999318-3.099999999999909-4-5.699999999999932-7.2999999999999545-10.199999999999932 1.1000000000000227-6 20.299999999999955-17-5.100000000000023-23 2.7000000000000455-2.7000000000000455 4.2000000000000455-5.5 6-5.7000000000000455 11.100000000000023-1.1000000000000227 12.399999999999977-8.399999999999977 12.200000000000045-17.199999999999932-0.3000000000000682-8.500000000000057-3.6000000000000227-14.100000000000023-13.100000000000023-13.800000000000068 0-4.5 1.1999999999999318-8.899999999999977-0.3000000000000682-12-1.8999999999999773-4.2999999999999545-5.399999999999977-8.899999999999977-9.399999999999977-11.399999999999977-6.699999999999932-4.300000000000011-7.199999999999932-4.5 0.3000000000000682-10.699999999999989 12.199999999999932 17 27.299999999999955 32.099999999999966 29.899999999999977 54.49999999999994 4.199999999999932-1.1999999999999318 8.799999999999955-2.5 13.100000000000023-3.699999999999932 0.5-11.700000000000045-1.3000000000000682-24.200000000000045 7.199999999999932-33.80000000000001 4.600000000000023-5.199999999999989 11.300000000000068-7.699999999999989 12.5-16.19999999999999 0.8999999999999773-5.900000000000034 30.800000000000068-20.200000000000045 36.60000000000002-18 3.8999999999999773 1.599999999999966 6.7000000000000455 6.099999999999966 9.600000000000023 9.699999999999989 0.5 0.30000000000001137-0.8999999999999773 2.599999999999966-1.3000000000000682 4.199999999999989z m-30.59999999999991-36.89999999999998c-1.900000000000091-4.100000000000023-3.7000000000000455-6.300000000000011-8.200000000000045-4.300000000000011-5.2000000000000455 2.1999999999999886-7 0.0999999999999659-8.200000000000045-4.900000000000034-0.8999999999999773-3.3999999999999773-3.599999999999909-6.399999999999977-5.7999999999999545-9.699999999999989 0.10000000000002274-0.0999999999999659 1.2000000000000455-1.099999999999966 1.5-0.8999999999999773 8.700000000000045 5.699999999999989 17.299999999999955 11.399999999999977 25.899999999999977 17.30000000000001 1.8999999999999773 1.2999999999999545 3.8999999999999773 3.099999999999966 5.300000000000068 4.899999999999977 1.7999999999999545 2.5 4.5 5.399999999999977 4.599999999999909 8.199999999999989 0.10000000000002274 2.8000000000000114-2.5 5.699999999999989-4 8.5l-2.7999999999999545-1.6999999999999886c0.2999999999999545-1.8000000000000114 0.7000000000000455-3.6000000000000227 0.7000000000000455-3.6000000000000227-3.6000000000000227-5.599999999999966-7-9.299999999999955-9-13.799999999999955z m48.39999999999998 5.7999999999999545c-8.800000000000068-5.2999999999999545-12.200000000000045 0.8000000000000114-15.899999999999977 6.7000000000000455-1.1000000000000227 1.6999999999999886-2.400000000000091 3.099999999999966-5.400000000000091 6.699999999999989 0-5.300000000000011-1.099999999999909-9.5 0.3000000000000682-10.600000000000023 7.199999999999932-5.399999999999977 7.2999999999999545-15.599999999999966 15.399999999999977-20.69999999999999 3.1000000000000227-2.1000000000000227 3.3999999999999773-8.300000000000011 5.7999999999999545-12 2.900000000000091-4.699999999999989 2.300000000000068-8.199999999999989-0.8999999999999773-12.5-1.1999999999999318-1.8000000000000114 0-5.5 0.5-8.300000000000011 0.6000000000000227-2.8999999999999773 3.1000000000000227-6.5 2.2000000000000455-8.399999999999977-6.100000000000023-12.800000000000011-4.2000000000000455-26.30000000000001-5.2000000000000455-39.60000000000002-0.10000000000002274-2.1999999999999886-3.1000000000000227-4.800000000000011-5.399999999999977-5.899999999999977-3.5-1.6999999999999886-8.200000000000045-1.1999999999999886-11.200000000000045-3.400000000000034-9-6.399999999999977-18.899999999999977-3.3999999999999773-26.699999999999932-0.2999999999999545-8.899999999999977 3.5-16.100000000000023 11.599999999999966-24.200000000000045 17.69999999999999-2.1000000000000227 1.6999999999999886-4.100000000000023 3.599999999999966-6.100000000000023 5.300000000000011l-2.699999999999932-1.6000000000000227c3.3999999999999773-5.5 5.899999999999977-12 10.5-16.19999999999999 11.399999999999977-10.199999999999989 25-16.100000000000023 40.799999999999955-15.199999999999989 2.8999999999999773 0.0999999999999659 7 0.8999999999999773 8.300000000000068 2.8999999999999773 4.699999999999932 7.699999999999989 8.799999999999955 4.100000000000023 13-0.10000000000002274 4.2999999999999545-4.199999999999989 6.699999999999932-11.399999999999977 15.599999999999909-7.699999999999989 1.7000000000000455 0.6999999999999886 5.800000000000068-4.5 8.800000000000068-6.899999999999977-1.3000000000000682 7.5 0.10000000000002274 17.099999999999966-11.899999999999977 15.399999999999977-1.900000000000091-0.30000000000001137-4.300000000000068 2.6999999999999886-5.100000000000023 3.1000000000000227 7.7999999999999545 30.80000000000001 12.899999999999977 60.39999999999998 6.600000000000023 93.09999999999997 5.899999999999977-2.2999999999999545 10.699999999999932-4.5 15.599999999999909-5.7999999999999545 2.400000000000091-0.6000000000000227 5.300000000000068 0.2999999999999545 7.900000000000091 0.5-0.5 2.2999999999999545-0.7000000000000455 4.599999999999966-1.3000000000000682 6.699999999999989-2.699999999999932 7.800000000000011-6.699999999999932 11.300000000000011-15.299999999999955 6.5-1.1000000000000227-0.6000000000000227-5.2000000000000455 4-7.899999999999977 6-2.1000000000000227 1.6999999999999886-5.300000000000068 5.099999999999966-6.100000000000023 4.599999999999966z m-89.20000000000005 406.9c4.600000000000023-17.09999999999991 22.600000000000023-17.899999999999977 33.200000000000045-28.799999999999955-2.300000000000068-1.5-3.7000000000000455-2.7000000000000455-5.300000000000068-3.3999999999999773-1.8999999999999773-0.8999999999999773-4-2-6.099999999999909-2l-55 1.1000000000000227c-4.600000000000023 0.09999999999990905-9.200000000000045-0.10000000000002274-13.900000000000091-0.10000000000002274l0.10000000000002274-3.7000000000000455c17-7.399999999999977 35.30000000000007-3.2999999999999545 51.39999999999998-4.600000000000023-6.2999999999999545-9.699999999999932-12.799999999999955-19.5-19.299999999999955-29.399999999999977-6.899999999999977 5.5-14.600000000000023 12-22.700000000000045 18-6.399999999999977 4.7000000000000455-13.5 8.5-14.5 17.800000000000068-0.2999999999999545 2.599999999999909-3.2999999999999545 5.099999999999909-5.5 7.099999999999909-4.5 4.100000000000023-9.399999999999977 7.800000000000068-14.299999999999955 11.800000000000068 8.600000000000023 4.600000000000023 16.200000000000045 7.600000000000023 22.399999999999977 12.399999999999977 21.200000000000045 16.200000000000045 44.5 20 70.70000000000005 16.799999999999955 26.699999999999932-3.2999999999999545 43.5-20.09999999999991 60.19999999999993-37.799999999999955 2.6000000000000227-2.7999999999999545 3.2000000000000455-7.5 4.5-10.899999999999977-15.799999999999955 3.2999999999999545-31.899999999999977 4.5-46 10.299999999999955-14.399999999999977 6-26.699999999999932 16.700000000000045-39.89999999999998 25.399999999999977z m-139.2-58.09999999999991c-5.800000000000011-5-10.5-9.300000000000068-15.399999999999977-13.100000000000023-1.5-1.2000000000000455-3.900000000000034-1.8999999999999773-5.699999999999989-1.7000000000000455-12.600000000000023 1.3999999999999773-20.900000000000034-3.6000000000000227-24.400000000000034-16.600000000000023-5.399999999999977-0.7999999999999545-13.5-4.399999999999977-16.099999999999966-2.099999999999909-15 13.599999999999909-31.600000000000023 5.099999999999909-47.900000000000034 6.2999999999999545-3.6999999999999886 5.899999999999977-8.099999999999966 12.5-12.199999999999989 19.299999999999955-10.399999999999977 17.5-4.5 47.30000000000007 12.699999999999989 53.40000000000009 15.400000000000034 5.5 32.400000000000034 6.5 50.10000000000002 9.799999999999955-7.600000000000023-18-14.100000000000023-33.10000000000002-20.600000000000023-48.5l-19.30000000000001 20.600000000000023-2.8999999999999773-2.2000000000000455c2.3000000000000114-4 4.100000000000023-8.399999999999977 7-11.899999999999977 8-9.700000000000045 19.30000000000001-17.100000000000023 20.30000000000001-31.399999999999977 0.0999999999999659-2 2.3999999999999773-3.8999999999999773 3.6999999999999886-5.800000000000068 0.6999999999999886 5.600000000000023-0.19999999999998863 10.700000000000045-0.39999999999997726 15.800000000000068-0.9000000000000341 20.299999999999955 7.699999999999989 37.60000000000002 17.19999999999999 54.69999999999993 2 3.7000000000000455 2.5 8.200000000000045 4.399999999999977 14.800000000000068 15.800000000000011 6.899999999999977 33.900000000000034 11.100000000000023 51.60000000000002 5 0.6999999999999886-12.100000000000023 1.3000000000000114-22.600000000000023 1.8999999999999773-33 0.10000000000002274-1.2000000000000455-0.19999999999998863-2.6000000000000227-0.8000000000000114-3.6000000000000227-7.2999999999999545-9.700000000000045-6.7999999999999545-20.299999999999955-3.1999999999999886-29.799999999999955z m-69.59999999999997 2c22.5 7.5 37.39999999999998 15.799999999999955 40.299999999999955 22.199999999999932-18.299999999999955 0.39999999999997726-31.5-6.699999999999932-40.299999999999955-22.199999999999932z m8.899999999999977 26.59999999999991c13.300000000000011 3.400000000000091 24.30000000000001 6.2000000000000455 36.69999999999999 9.300000000000068-13 6.7999999999999545-27.599999999999966 3.2999999999999545-36.69999999999999-9.300000000000068z m245.29999999999995-55.299999999999955c-17.09999999999991 3.7000000000000455-33.39999999999998 2.2999999999999545-49.299999999999955-6.100000000000023-6.899999999999977-3.699999999999932-14.899999999999977-6-22.600000000000023-7.5-13-2.5-25.199999999999932-1.2999999999999545-31.5 12.899999999999977l14.600000000000023 8.400000000000091-1.6000000000000227 3.599999999999909c-3.5-0.8999999999999773-7.199999999999932-1.3999999999999773-10.399999999999977-2.8999999999999773-10.100000000000023-4.699999999999932-11.200000000000045-4.399999999999977-15.299999999999955 5.100000000000023 4 3.8999999999999773 7.699999999999932 7.5 11.399999999999977 11.100000000000023l-2.300000000000068 2.6000000000000227c-4.5-2.800000000000068-9-5.5-15-9.300000000000068l-22 39.60000000000002c-6.2999999999999545-10.399999999999977 1.8000000000000682-19.200000000000045 4-28.399999999999977-6.2999999999999545 0.6000000000000227-12.299999999999955 1.1999999999999318-18.299999999999955 1.7999999999999545l-0.6000000000000227-3.3999999999999773c6.300000000000011-1.8999999999999773 12.900000000000034-2.8999999999999773 18.700000000000045-5.7999999999999545 5.399999999999977-2.7000000000000455 9.799999999999955-7.400000000000091 14.699999999999932-11.200000000000045l-1.7999999999999545-2.6000000000000227-27.899999999999977 6.399999999999977-1.5-2.8999999999999773c1.8999999999999773-1.8999999999999773 3.5-5 5.699999999999989-5.5 8.300000000000011-1.8999999999999773 16.80000000000001-2.7999999999999545 25.19999999999999-4.399999999999977 2.7000000000000455-0.5 5.600000000000023-1.1000000000000227 7.7000000000000455-2.7000000000000455 3.599999999999909-2.699999999999932 6.699999999999932-6.099999999999909 11-10.199999999999932-9.300000000000068 0.39999999999997726-17.100000000000023 0.10000000000002274-24.600000000000023 1.2999999999999545-8.100000000000023 1.2000000000000455-16.600000000000023 2.6000000000000227-24 6-6.300000000000011 2.8999999999999773-13.400000000000034 7.5-8.700000000000045 17.200000000000045 0.6000000000000227 1.1999999999999318-0.6999999999999886 4.699999999999932-1.8999999999999773 5.2999999999999545-9.699999999999989 4.2000000000000455-9.5 13-9.600000000000023 21.100000000000023-0.0999999999999659 7.2000000000000455 1.400000000000034 14.399999999999977 1.900000000000034 21.600000000000023 0.5999999999999659 8.399999999999977 0.30000000000001137 16.899999999999977 1.3999999999999773 25.199999999999932 1.3000000000000114 9.600000000000023 3.1999999999999886 9.700000000000045 11.300000000000011 4.100000000000023 4.199999999999989-2.8999999999999773 9.600000000000023-5.699999999999932 14.399999999999977-5.699999999999932 8.700000000000045 0.1999999999999318 14.100000000000023-3.2000000000000455 13.399999999999977-11.900000000000091-0.39999999999997726-5.599999999999909 2-7.5 6.7000000000000455-9.199999999999932 3.2999999999999545-1.2000000000000455 6.2999999999999545-3.7000000000000455 9.100000000000023-5.899999999999977 7.399999999999977-5.7000000000000455 15.799999999999955-10.700000000000045 16.600000000000023-21.600000000000023 0.09999999999990905-0.8000000000000682 1.8999999999999773-1.3999999999999773 2.7999999999999545-2.300000000000068 11.700000000000045-11.099999999999909 23.399999999999977-22.199999999999932 35.299999999999955-33.09999999999991 1.5-1.400000000000091 4.800000000000068-2.300000000000068 6.400000000000091-1.5 1.3999999999999773 0.599999999999909 2 3.8999999999999773 2.099999999999909 6.099999999999909 0.10000000000002274 2.6000000000000227-1.7999999999999545 5.800000000000068-0.8999999999999773 7.7000000000000455 7.7000000000000455 15.799999999999955 19 27.600000000000023 36.60000000000002 31.100000000000023v-24l1.7999999999999545-0.10000000000002274c4.400000000000091 10.200000000000045 8.900000000000091 20.399999999999977 13.900000000000091 31.899999999999977 15.199999999999932-3.8999999999999773 29.59999999999991-7.5 45.59999999999991-11.600000000000023-0.8999999999999773-8.399999999999977 0.8000000000000682-18-3-24.5-10-17.399999999999977-19.399999999999977-20.09999999999991-39.5-15.799999999999955z m-490.69999999999993-160.20000000000005l1.4999999999999716-2.7999999999999545c-1.6999999999999886-1.7999999999999545-3.1999999999999886-3.8999999999999773-5.099999999999994-5.399999999999977-4.699999999999989-3.3999999999999773-10.300000000000011-5.800000000000068-14.5-9.700000000000045-16.599999999999994-15.100000000000023-33-30.5-49.2-46-13.200000000000003-12.600000000000023-15-12.699999999999932-27.39999999999999 1.3000000000000682-2.200000000000003 2.5-4.200000000000003 5.2999999999999545-5.900000000000006 8.199999999999932-4.100000000000001 7-4.5 14.300000000000068 3.5999999999999943 18.200000000000045 22.900000000000006 11.100000000000023 45.80000000000001 22.100000000000023 69.30000000000001 31.799999999999955 8.299999999999983 3.5 18.299999999999983 3 27.69999999999999 4.399999999999977z m2.8999999999999773 17.600000000000023c-0.8000000000000114-2.7999999999999545-4.099999999999994-6.899999999999977-6.300000000000011-6.899999999999977-14.099999999999994-0.2999999999999545-28.299999999999983-0.6000000000000227-42.29999999999998 0.8999999999999773-4.900000000000006 0.5-11.200000000000003 5.2000000000000455-13.300000000000011 9.700000000000045-9.099999999999994 18.699999999999932 0.5 40.89999999999998 19.80000000000001 48.39999999999998 13.699999999999989 5.399999999999977 27.299999999999983 11.100000000000023 41.29999999999998 15.899999999999977 7.900000000000006 2.7000000000000455 16.30000000000001 4 26.100000000000023 6.399999999999977-4.400000000000006-9.299999999999955-8.600000000000023-15.899999999999977-10.800000000000011-23.09999999999991-5.199999999999989-16.90000000000009-9.400000000000006-34.30000000000007-14.5-51.30000000000007z m-13.400000000000006 39.10000000000002c-13.5-10.100000000000023-26.69999999999999-20.700000000000045-46.89999999999999-15.399999999999977 12.200000000000003-15.899999999999977 47.8-4.899999999999977 60.7 18-5.800000000000011-0.8999999999999773-10.900000000000006-0.39999999999997726-13.800000000000011-2.6000000000000227z m25.400000000000006-88.89999999999998c-5.599999999999994-6-10.900000000000006-11-20.19999999999999-7.7000000000000455-4.600000000000023 1.6000000000000227-10 3-13.800000000000011-4.199999999999932 4.300000000000011-0.6000000000000227 7.699999999999989-1.1000000000000227 11.800000000000011-1.6000000000000227-4.5-5.7000000000000455-8.600000000000023-10.800000000000068-11.900000000000006-15-6.900000000000006 1.6999999999999318-12.700000000000017 3.699999999999932-18.599999999999994 4.2999999999999545-1.8000000000000114 0.20000000000004547-3.9000000000000057-3.5-5.900000000000006-5.399999999999977 2.0999999999999943-1.2000000000000455 4.099999999999994-3.1000000000000227 6.400000000000006-3.2999999999999545 4.299999999999983-0.5 8.799999999999983-0.20000000000004547 13.5-0.20000000000004547-3.200000000000017-5.7999999999999545-5.700000000000017-10.600000000000023-7.700000000000017-14.200000000000045-11.099999999999994 2.300000000000068-21.299999999999997 4.400000000000091-33.3 6.900000000000091 19.299999999999997 16.299999999999955 37.60000000000001 32.299999999999955 56.500000000000014 47.5 3.8999999999999773 3.199999999999932 10.699999999999989 5.699999999999932 15.199999999999989 4.5 10.400000000000006-2.7000000000000455 19.099999999999994-0.5 28.69999999999999 3.199999999999932-3.3999999999999773-2.1000000000000227-6.899999999999977-4-10.099999999999994-6.2999999999999545-3.799999999999983-2.7000000000000455-7.599999999999994-5.300000000000068-10.599999999999994-8.5z m244.3 293c-8.5-7.7000000000000455-17.100000000000023-14.899999999999977-29.80000000000001-12.899999999999977-3.3000000000000114 0.5-6.800000000000011 0.39999999999997726-10.199999999999989 0.1999999999999318-18.80000000000001-1.2999999999999545-34.19999999999999-8.799999999999955-42.60000000000002-26.299999999999955-8.300000000000011-17.399999999999977-6.899999999999977-34.700000000000045 4.100000000000023-50.80000000000007 2.8999999999999773-4.2999999999999545 6.199999999999989-8.399999999999977 9.800000000000011-13.299999999999955-11.900000000000034-3.7000000000000455-15.300000000000011-3.2000000000000455-17.100000000000023 2.7000000000000455-3.6000000000000227 12.099999999999909-7.5 24.09999999999991-10.199999999999989 36.39999999999998-3.6000000000000227 16.299999999999955-1 31.100000000000023 13.199999999999989 42.39999999999998 8.699999999999989 6.899999999999977 16.600000000000023 15 24.80000000000001 22.600000000000023 1.8000000000000114 1.6999999999999318 3 3.8999999999999773 4.699999999999989 5.699999999999932 9.100000000000023 9.100000000000023 18 18.300000000000068 27.5 27 2.1000000000000227 1.900000000000091 6.199999999999989 2.400000000000091 9.399999999999977 2.300000000000068 24.5-0.6000000000000227 39.200000000000045-21 60-30.100000000000023-12.299999999999955-1.8999999999999773-24.099999999999966-1.7000000000000455-35.89999999999998-2.1000000000000227-2.6000000000000227-0.1999999999999318-5.699999999999989-1.8999999999999773-7.699999999999989-3.7999999999999545z m-104.30000000000001-100.20000000000005c-13.199999999999989 1.2000000000000455-27.899999999999977-1.1999999999999318-39.19999999999999 3.8999999999999773-26.700000000000017 12-51.900000000000006 27.600000000000023-77.9 41.90000000000009l3 4.199999999999932c1.0999999999999943 1 2.299999999999983 2.1000000000000227 3.5999999999999943 2.8999999999999773 31.30000000000001 19.600000000000023 64.69999999999999 24.5 99.89999999999998 13.100000000000023 12.700000000000045-4.100000000000023 15.800000000000011-24.699999999999932 6.300000000000011-34.60000000000002-2.8999999999999773-3-4-7.7999999999999545-6-11.799999999999955l3-1.8999999999999773c3 3.199999999999932 5.900000000000034 6.199999999999932 9.400000000000034 10 3.1999999999999886-10.200000000000045 6.099999999999966-19.600000000000023 9.299999999999955-30-4.599999999999966 1-8 2-11.399999999999977 2.2999999999999545z m-20.30000000000001 48.200000000000045l-3 0.2999999999999545c-1.1999999999999886-2.7999999999999545-2.3999999999999773-5.699999999999932-3.599999999999966-8.600000000000023-11.800000000000011 1.1000000000000227-6.7000000000000455 14.5-12.800000000000011 20l-0.4000000000000341-2.8999999999999773c-5.099999999999966-1-10.199999999999989-3.199999999999932-15.099999999999966-2.8999999999999773-11 0.6000000000000227-21.900000000000006 2.6000000000000227-32.900000000000006 3.7999999999999545-3.3000000000000114 0.3000000000000682-6.599999999999994 0.10000000000002274-12 0.10000000000002274 8.099999999999994-12.100000000000023 19.799999999999983-7.2999999999999545 29.69999999999999-10.699999999999932-2.9000000000000057-2.300000000000068-5.099999999999994-4-7.199999999999989-5.800000000000068l0.19999999999998863-2.2999999999999545c14.200000000000017 1.1000000000000227 29.400000000000006 13.5 42.400000000000006-2.3999999999999773-1.3999999999999773-0.900000000000091-3.3000000000000114-2.1000000000000227-6.699999999999989-4.400000000000091 9-1.6999999999999318 16.30000000000001-3.199999999999932 24-4.599999999999909-0.9000000000000341 6-1.6999999999999886 13.199999999999932-2.6000000000000227 20.399999999999977z"/>
</svg>
