<svg xmlns="http://www.w3.org/2000/svg" viewBox="0 0 1000 1000" width="1000" height="1000">
<path d="M905.8 400.5c-12.5-8.300000000000011-18.699999999999932-16.30000000000001-17-31.5 2.5-22.100000000000023-8.299999999999955-34.80000000000001-29.5-42.30000000000001-92.69999999999993-32.80000000000001-184.89999999999998-67.09999999999997-277.79999999999995-99.39999999999998-13-4.5-30.299999999999955-4.400000000000006-43.39999999999998 0.09999999999999432-77.5 26.599999999999994-154.60000000000002 54.599999999999994-231.40000000000003 83.1-24.899999999999977 9.199999999999989-49.5 15.399999999999977-76.39999999999998 14.699999999999989-18.700000000000017-0.5999999999999659-38 2.900000000000034-56.400000000000006 7.199999999999989-47.10000000000001 10.700000000000045-85 31.400000000000034-79.7 98.10000000000002 0.7000000000000028 8.5-5 19.69999999999999-11.299999999999997 26.30000000000001-26.000000000000007 27.19999999999999-28.000000000000007 65.99999999999994-0.7000000000000028 91.40000000000003 15.5 14.399999999999977 21 30.299999999999955 20.799999999999997 50.39999999999998-0.5 41.60000000000002 13.200000000000003 64.89999999999998 53 77 30.900000000000006 9.399999999999977 64.19999999999999 10.899999999999977 96.30000000000001 16.799999999999955 6.399999999999977 1.2000000000000455 15.300000000000011 4.899999999999977 17.399999999999977 9.899999999999977 10.600000000000023 24.90000000000009 29.600000000000023 41.5 54 48.5 37.5 10.700000000000045 76.19999999999999 17.40000000000009 113.10000000000002 25.40000000000009 38.5-7.400000000000091 74.19999999999999-12.600000000000023 108.90000000000003-21.600000000000023 25.09999999999991-6.5 45.89999999999998-21.399999999999977 60-45 5.099999999999909-8.5 13.899999999999977-17.200000000000045 23-20.600000000000023 71.79999999999995-26.899999999999977 144.0999999999999-52.60000000000002 216.29999999999995-78.70000000000005 51.5-18.699999999999932 51.799999999999955-18.699999999999932 51.39999999999998-74-0.10000000000002274-12.599999999999909 2.6000000000000227-21.299999999999955 13.5-29.799999999999955 38.30000000000007-30.30000000000001 36.60000000000002-79-4.100000000000023-106z m-756.9-23.19999999999999c31.200000000000017-17.900000000000034 66.30000000000001-18.80000000000001 101.20000000000002-19.80000000000001 13.500000000000028-0.39999999999997726 27.599999999999994-1.3999999999999773 40.099999999999994-5.800000000000011 85.30000000000001-30.099999999999966 170.2-61.30000000000001 255.40000000000003-91.59999999999997 7.2999999999999545-2.6000000000000227 17-4 24.100000000000023-1.5 92.69999999999993 32.69999999999999 185.0999999999999 66.19999999999999 277.5 99.59999999999997 1.099999999999909 0.4000000000000341 1.8999999999999773 1.6999999999999886 5.5 5.300000000000011-55.80000000000007 20.19999999999999-109.90000000000009 39.80000000000001-164.10000000000002 59.30000000000001-33.89999999999998 12.199999999999989-67.80000000000007 24.399999999999977-101.80000000000007 36.39999999999998-8.799999999999955 3.1000000000000227-15 5.900000000000034-16.299999999999955 18.100000000000023-2 19.599999999999966-17.700000000000045 31.5-35 36.19999999999999-28.899999999999977 8-58.60000000000002 16.299999999999955-88.19999999999999 17.299999999999955-33 1.1000000000000227-66.30000000000001-5.2999999999999545-99.30000000000001-9.799999999999955-10.100000000000023-1.3999999999999773-20-6.5-29.100000000000023-11.600000000000023-28.599999999999966-15.799999999999955-33.099999999999966-33.69999999999999-18-58.799999999999955-29.69999999999999 0-60.99999999999997 2.099999999999966-91.69999999999999-0.7000000000000455-20.399999999999977-1.7999999999999545-41.5-7.7999999999999545-59.89999999999998-16.899999999999977-28.10000000000001-13.699999999999989-27.80000000000001-40-0.4000000000000057-55.69999999999999z m734.3000000000001 105.39999999999998c-27.90000000000009 11.5-58.80000000000007 16.30000000000001-88.70000000000005 21.69999999999999-11.799999999999955 2.1000000000000227-22.600000000000023 1.900000000000034-30.700000000000045 13-3.599999999999909 5-10.199999999999932 8.899999999999977-16.09999999999991 10.800000000000068-17 5.2999999999999545-28.300000000000068 14-35.80000000000007 31.699999999999932-8.699999999999932 20.399999999999977-22.5 17.399999999999977-39.89999999999998-6-31.299999999999955 16.899999999999977-62.5 33.80000000000007-93.70000000000005 50.700000000000045-2.7999999999999545 1.5-6.7999999999999545 2.6000000000000227-7.899999999999977 5-15.100000000000023 33.799999999999955-47.5 36.19999999999993-77.39999999999998 41.799999999999955-11 2.1000000000000227-18.600000000000023 4.2000000000000455-25.30000000000001 14.399999999999977-16.899999999999977 25.600000000000023-38.599999999999966 24-56.69999999999999-0.8999999999999773-5.399999999999977-7.399999999999977-14.699999999999989-13.600000000000023-23.399999999999977-16.799999999999955-28.900000000000034-10.300000000000068-58.400000000000034-18.899999999999977-87.5-28.399999999999977-4.900000000000034-1.6000000000000227-11-3.5-13.800000000000011-7.2000000000000455-16-21.299999999999955-40.70000000000002-19.899999999999977-62.80000000000001-25.5-21-5.399999999999977-41.599999999999994-11.799999999999955-54.19999999999999-32.39999999999998-2.700000000000017-4.399999999999977-11.100000000000023-5.300000000000068-17-7.800000000000068-13.800000000000011-5.7999999999999545-28.400000000000006-10.299999999999955-41.10000000000001-17.799999999999955-11.799999999999997-7-18.10000000000001-18.30000000000001-13.200000000000003-36.30000000000001 38.19999999999999 48.599999999999966 90 53.50000000000006 143.2 53.69999999999999 12 0 17 4.2000000000000455 23.900000000000034 14.200000000000045 10.699999999999989 15.600000000000023 24.399999999999977 32.799999999999955 40.89999999999998 40 82.60000000000002 36.299999999999955 167.2 36.5 249.89999999999998 0.6000000000000227 17.600000000000023-7.600000000000023 29.5-28 44.30000000000007-42.10000000000002 5.7999999999999545-5.5 12.099999999999909-11.700000000000045 19.299999999999955-14.399999999999977 75.70000000000005-27.800000000000068 151.70000000000005-54.60000000000002 227.29999999999995-82.70000000000005 16.300000000000068-6.100000000000023 30.90000000000009-16.5 47.5-25.600000000000023 15 15.800000000000011 14.100000000000023 35.900000000000034-11.099999999999909 46.30000000000001z"/>
</svg>
