<svg xmlns="http://www.w3.org/2000/svg" viewBox="0 0 1000 1000" width="1000" height="1000">
<path d="M685.5 309.5c-0.10000000000002274-0.30000000000001137-0.20000000000004547-0.30000000000001137-0.2999999999999545-0.39999999999997726-7.300000000000068-12.100000000000023-16.5-22.700000000000045-27.40000000000009-31.400000000000034v103.80000000000001l45.60000000000002 69.19999999999999c12.700000000000045 18.5 11.700000000000045 59.10000000000002 0 86.59999999999997l-2.699999999999932-58.69999999999993-58.5-92.30000000000001v-119.40000000000003c-6.600000000000023-3.8999999999999773-13.800000000000068-7.099999999999966-21.300000000000068-9.599999999999966v64.39999999999998h-73.19999999999993v-64.30000000000001c-7.400000000000091 2.400000000000034-14.600000000000023 5.7000000000000455-21.300000000000068 9.600000000000023v119.30000000000001l-58.5 92.19999999999999-2.6999999999999886 413.79999999999995c0 24.800000000000068 19.600000000000023 45.10000000000002 43.69999999999999 45.10000000000002s43.700000000000045-20.199999999999932 43.700000000000045-45.10000000000002c0 0 20.699999999999932-294.5999999999999 31.699999999999932-294.5999999999999 10.800000000000068 0 31 294.5999999999999 31 294.5999999999999 0 24.800000000000068 19.600000000000023 45.10000000000002 43.700000000000045 45.10000000000002s43.700000000000045-20.199999999999932 43.700000000000045-45.10000000000002l0.39999999999997726-293c13.399999999999977 6.600000000000023 31.299999999999955 5.800000000000068 42.69999999999993-9.399999999999977 56-74.89999999999998-11.799999999999955-214.09999999999997-60.299999999999955-280.4z m-122.5 123.39999999999998c-7.600000000000023 0-13.600000000000023-6.2999999999999545-13.600000000000023-14.099999999999966s6.100000000000023-14 13.600000000000023-14 13.600000000000023 6.300000000000011 13.600000000000023 14c0.10000000000002274 7.800000000000011-6 14.099999999999966-13.600000000000023 14.099999999999966z m42.5 0c-7.5 0-13.700000000000045-6.2999999999999545-13.700000000000045-14.099999999999966s6.2000000000000455-14 13.700000000000045-14c7.5 0 13.700000000000045 6.300000000000011 13.700000000000045 14 0 7.800000000000011-6.2000000000000455 14.099999999999966-13.700000000000045 14.099999999999966z m-94.80000000000001-155.09999999999997c-12.699999999999989 10.199999999999989-118.89999999999998 159.2-123 167.59999999999997-18.19999999999999 5.300000000000011-36.599999999999966 9.700000000000045-55.099999999999966 13.700000000000045v-82.10000000000002c46-4.5 82.19999999999999-44.39999999999998 82.19999999999999-93v-74h-15.800000000000011v74c0 28.600000000000023-15.100000000000023 53.5-37.39999999999998 66.89999999999998v-140.99999999999997h-15.600000000000023v148.1c-11.399999999999977 3.6999999999999886-30.80000000000001 3.8000000000000114-43 0.30000000000001137v-148.5h-15.699999999999989v141.8c-23-13.300000000000011-38.70000000000002-38.60000000000002-38.70000000000002-67.60000000000002v-74h-15.599999999999994v74c0 48.89999999999998 36.69999999999999 89.19999999999999 83.30000000000001 93.10000000000002v85.39999999999998c-0.30000000000001137 0.10000000000002274-0.5 0.10000000000002274-0.8000000000000114 0.30000000000001137-33.69999999999999 6.899999999999977-26.399999999999977 52.80000000000001 0.8000000000000114 61.19999999999999v413.5h16.19999999999999v-412.79999999999995c29.69999999999999-6.100000000000023 59.30000000000001-12.600000000000023 88.30000000000001-22.200000000000045 17.099999999999966-5.699999999999989 29.5-25.5 89.89999999999998-120.89999999999998v-103.80000000000001z m44.80000000000001 35.80000000000001h57.5v-58.60000000000002c-9.200000000000045-2.4000000000000057-18.799999999999955-3.6999999999999886-28.799999999999955-3.6999999999999886s-19.600000000000023 1.299999999999983-28.90000000000009 3.6999999999999886l0.20000000000004547 58.60000000000002z m-33.10000000000002-127.10000000000002c3.5 33.5 29.899999999999977 59.69999999999999 61.89999999999998 59.69999999999999s58.40000000000009-26.19999999999999 61.90000000000009-59.69999999999999c35.299999999999955-5.199999999999989 58.299999999999955-31.099999999999994 59.19999999999993-32.30000000000001 5.899999999999977-6.899999999999977 5.300000000000068-17.5-1.3999999999999773-23.69999999999999-6.600000000000023-6.200000000000003-17.100000000000023-5.599999999999994-23.100000000000023 1.1999999999999886-0.1999999999999318 0.30000000000001137-16.100000000000023 17.900000000000006-39.19999999999993 21.30000000000001-1.5-4-3.400000000000091-7.800000000000011-5.600000000000023-11.400000000000006 0.10000000000002274-0.19999999999998863-8-74.19999999999999-8-74.19999999999999 0-2.8000000000000114-2.8999999999999773-5.000000000000007-6.5-5.000000000000007h-79.60000000000002c-3.6000000000000227 0-6.600000000000023 2.3000000000000043-6.600000000000023 5.000000000000007 0 0-5.7999999999999545 76.19999999999999-4.5 77.1-1.5 2.6999999999999886-2.8999999999999773 5.599999999999994-4 8.5-22.899999999999977-3.3000000000000114-38.799999999999955-20.80000000000001-39.19999999999999-21.30000000000001-5.899999999999977-6.8999999999999915-16.399999999999977-7.499999999999986-23.099999999999966-1.299999999999983-6.7000000000000455 6.099999999999994-7.400000000000034 16.799999999999983-1.400000000000034 23.799999999999983 1 1.3000000000000114 23.900000000000034 27.200000000000017 59.19999999999999 32.30000000000001z m16.600000000000023-40.400000000000006h90.5c1.5 2.4000000000000057 2.7999999999999545 4.900000000000006 3.8999999999999773 7.599999999999994h-98.29999999999995c1.1000000000000227-2.5999999999999943 2.2999999999999545-5.199999999999989 3.8999999999999773-7.599999999999994z m99.10000000000002 41.20000000000002c-3.7000000000000455 28.69999999999999-26.399999999999977 50.89999999999998-54 50.89999999999998-27.399999999999977 0-50-22.099999999999994-53.80000000000007-50.89999999999998h107.80000000000007z"/>
</svg>
