<svg xmlns="http://www.w3.org/2000/svg" viewBox="0 0 1000 1000" width="1000" height="1000">
<path d="M916.7 372.5c-16-27.5-37.40000000000009-44.89999999999998-48.700000000000045-52.89999999999998-1.5-1-2.7999999999999545-2-4-2.7000000000000455 3.7999999999999545-10.899999999999977 28.799999999999955-74.39999999999998 46.299999999999955-118.79999999999998 8-20.400000000000006-8-42.19999999999999-29.899999999999977-40.5l-68.69999999999993 5.300000000000011c-17.90000000000009 1.4000000000000057-31.800000000000068 16.099999999999994-32.10000000000002 34.099999999999994-0.6000000000000227 39.5-4 108.30000000000001-19.5 161.8-14.700000000000045 50.599999999999966-43.5 94.09999999999997-79.60000000000002 131.39999999999998-58.60000000000002 60.30000000000001-142.60000000000002 103.59999999999997-249.8 128.90000000000003-58.39999999999998 13.799999999999955-118 21.799999999999955-177.7 25-30 1.6000000000000227-60 1.8999999999999773-90 1-3.0999999999999943-0.10000000000002274-37.599999999999994-2.8999999999999773-60.7-6-12.899999999999991-1.8000000000000682-25.5 5.100000000000023-31 16.899999999999977l-6 12.799999999999955c-5.699999999999996 12.300000000000068-2.3999999999999986 26.800000000000068 7.900000000000006 35.30000000000007 26.200000000000003 21.899999999999977 82.49999999999999 63.799999999999955 169.89999999999998 102.60000000000002 47.80000000000001 21.299999999999955 102.30000000000001 30 155.60000000000002 34.09999999999991 89.90000000000003 6.7000000000000455 223.2-2.3999999999999773 347.59999999999997-84.09999999999991 55.60000000000002-36.40000000000009 100.80000000000007-82.70000000000005 134.5-137.70000000000005 33.200000000000045-54 47.30000000000007-103 53.30000000000007-134.60000000000002 7.899999999999977-41.299999999999955 2-78.79999999999995-17.399999999999977-111.89999999999998z"/>
</svg>
