<svg xmlns="http://www.w3.org/2000/svg" viewBox="0 0 1000 1000" width="1000" height="1000">
<path d="M715.1 641.9h-644.1c-5.200000000000003 0-9.100000000000001 4.2000000000000455-8.399999999999999 9.399999999999977 0.6000000000000014 5 1.2999999999999972 10 2.1000000000000014 14.900000000000091 0.7999999999999972 5.199999999999932 5.8999999999999915 9.299999999999955 11.099999999999994 9.299999999999955h634.3000000000001c5.199999999999932 0 10.299999999999955-4.2000000000000455 11.199999999999932-9.299999999999955 0.8000000000000682-4.900000000000091 1.6000000000000227-9.900000000000091 2.2000000000000455-14.900000000000091 0.7000000000000455-5.199999999999932-3.2000000000000455-9.399999999999977-8.399999999999977-9.399999999999977z m-9.800000000000068 54.5h-624.4c-5.199999999999974 0-8.399999999999977 4.100000000000023-6.899999999999977 9.100000000000023 13.900000000000006 46.200000000000045 37.7 88.29999999999995 69 123.60000000000002 3.5 3.8999999999999773 10.599999999999994 7 15.900000000000006 7h468.30000000000007c5.199999999999932 0 12.399999999999977-3.1000000000000227 15.899999999999977-7 31.199999999999932-35.39999999999998 55.10000000000002-77.39999999999998 69.10000000000002-123.70000000000005 1.3999999999999773-4.899999999999977-1.7000000000000455-9-6.900000000000091-9z m-99.19999999999993 160.39999999999998h-426c-5.200000000000017 0-6.300000000000011 2.800000000000068-2.3000000000000114 6.2000000000000455 9.299999999999983 7.899999999999977 19.099999999999994 15.299999999999955 29.299999999999983 22 4.400000000000006 2.8999999999999773 12.300000000000011 5 17.5 5h337.5c5.199999999999932 0 13.100000000000023-2.2000000000000455 17.399999999999977-5.100000000000023 10-6.699999999999932 19.700000000000045-14 28.899999999999977-21.799999999999955 4-3.3999999999999773 2.8999999999999773-6.300000000000068-2.2999999999999545-6.300000000000068z m-261-497.69999999999993c3.099999999999966 24.69999999999999 4.099999999999966 50.299999999999955 1.2999999999999545 75-3.2999999999999545 28.399999999999977-5 56 0.4000000000000341 84.29999999999995 5.899999999999977 30.600000000000023 4.099999999999966 61.30000000000007-3.1000000000000227 91.70000000000005h-32.69999999999999c0.5-7.5 1.1000000000000227-14 1.3000000000000114-20.600000000000023 0.5999999999999659-25 1.3000000000000114-50 1.599999999999966-75.10000000000002 0.4000000000000341-29 0.5-58.099999999999966 0.8000000000000114-87.09999999999997 0.19999999999998863-18.5 4.300000000000011-37.80000000000001 0.6000000000000227-55.5-10-47.5 1.6999999999999886-94 2-141.60000000000002h33.099999999999966c-0.7999999999999545 15.100000000000023-0.19999999999998863 29.30000000000001-2.5 43.10000000000002-4.699999999999989 28.69999999999999-6.399999999999977 56.80000000000001-2.7999999999999545 85.80000000000001z m150.59999999999997 251.60000000000002c-10.099999999999966 0-17.899999999999977-0.5-25.599999999999966 0.09999999999990905-7.400000000000034 0.6000000000000227-10.800000000000011-3.099999999999909-10.900000000000034-9.699999999999932-0.5999999999999659-29.100000000000023-2.8000000000000114-58.30000000000007-0.5-87.20000000000005 2.3000000000000114-28.799999999999955 3.1000000000000227-57-1.099999999999966-85.79999999999995-2.900000000000034-19.900000000000034-3.6000000000000227-41-0.5-60.80000000000001 4.7999999999999545-31.5 6-62.19999999999999-0.10000000000002274-93.5-2.3000000000000114-11.600000000000023-1.6999999999999886-23.80000000000001-1.3999999999999773-35.80000000000001 0.0999999999999659-3.0999999999999943 4.099999999999966-8.099999999999994 6.7999999999999545-8.5 7.900000000000034-1.1999999999999886 16-0.4000000000000057 23.900000000000034-0.4000000000000057 0.8000000000000114 13.400000000000006 0.8000000000000114 24.5 2.1999999999999886 35.400000000000006 4.399999999999977 32.89999999999998 8.399999999999977 65.30000000000001 3 98.89999999999998-3.6000000000000227 22.30000000000001-4.100000000000023 46-1.1000000000000227 68.40000000000003 4 29.69999999999999 4.400000000000034 58.5 0.10000000000002274 88.30000000000001-3 20.600000000000023-0.30000000000001137 42.10000000000002 0.6000000000000227 63.19999999999993 0.2999999999999545 8.5 2.7999999999999545 17 4.599999999999966 27.40000000000009z m-104-154.30000000000007c-0.5999999999999659 12.300000000000011-0.8999999999999773 24.80000000000001-0.19999999999998863 37.10000000000002 1.3999999999999773 25.899999999999977 4.300000000000011 51.799999999999955 5 77.79999999999995 0.39999999999997726 13-2.6000000000000227 26-4.100000000000023 39.30000000000007h-34.599999999999966c0.5999999999999659-6.7000000000000455 0.19999999999998863-12.100000000000023 1.5-17.100000000000023 7-28 4.5-55.89999999999998 2.1999999999999886-84.30000000000001-2.1999999999999886-26.599999999999966 0.5-53.599999999999966 0.8999999999999773-80.39999999999998 0.30000000000001137-20.69999999999999 0.9000000000000341-41.5 0.20000000000004547-62.19999999999999-0.7000000000000455-22-4-44-3.8000000000000114-66 0.19999999999998863-21.100000000000023 3.3999999999999773-42.200000000000045 5.899999999999977-63.20000000000002 0.30000000000001137-2.8000000000000114 4-7 6.600000000000023-7.400000000000006 7.599999999999966-1 15.399999999999977-0.30000000000001137 24.30000000000001-0.30000000000001137 2.8999999999999773 52.10000000000002-10 102.30000000000001-0.20000000000004547 153.3 4.400000000000034 23.100000000000023-2.5 48.69999999999999-3.6999999999999886 73.39999999999998z m-128.5 130.30000000000007c0.5-23.700000000000045 0.6999999999999886-47.40000000000009 0.5-71.10000000000002-0.19999999999998863-19.30000000000001-4.599999999999966-39.30000000000001-1.1999999999999886-57.80000000000001 6.300000000000011-33.5 4.399999999999977-65.80000000000001-1.6999999999999886-98.69999999999999-1.6999999999999886-9-2-18.700000000000045-0.5-27.700000000000045 5.5-33.19999999999999 11.5-66.19999999999999 1.099999999999966-100.89999999999998h30.200000000000045c1 14.599999999999994 2.3999999999999773 27.80000000000001 2.6999999999999886 41 0.6999999999999886 31.69999999999999 0.8999999999999773 63.39999999999998 1.099999999999966 95.10000000000002 0.10000000000002274 21.099999999999966-0.19999999999998863 42.299999999999955-0.19999999999998863 63.39999999999998-0.0999999999999659 31.30000000000001-0.19999999999998863 62.60000000000002 0.10000000000002274 93.79999999999995 0.19999999999998863 22.40000000000009 1.1999999999999886 44.80000000000007 1.8000000000000114 67.20000000000005 0.19999999999998863 6.399999999999977 0 12.799999999999955 0 19.100000000000023h-36.900000000000034c1.1000000000000227-8.600000000000023 2.900000000000034-16 3-23.399999999999977z m271.00000000000006-150.50000000000006c0.1999999999999318 24.19999999999999 4.099999999999909 48.80000000000001 0.8999999999999773 72.40000000000003-4.100000000000023 30.299999999999955-5.7000000000000455 59.69999999999993 2.199999999999932 89.39999999999998 1 3.6000000000000227 0.7000000000000455 7.5 1 11.899999999999977h-26.799999999999955c-7.600000000000023-36.10000000000002-8.899999999999977-71-2.1000000000000227-106.39999999999998 2.800000000000068-14.5 2.6000000000000227-30.100000000000023 1.3000000000000114-44.89999999999998-2.8999999999999773-33-10-65.70000000000005-2.8999999999999773-99 6.199999999999989-29.100000000000023 4.199999999999989-57.900000000000034-1-87-2.400000000000034-13.600000000000023-1.6000000000000227-27.900000000000034-2.3000000000000114-42.80000000000001h24.700000000000045c1.7999999999999545 18.799999999999983 2.199999999999932 37 5.399999999999977 54.69999999999999 4.5 25.69999999999999 3.2999999999999545 50.80000000000001 0.5 76.5-2.6000000000000227 24.899999999999977-1.1000000000000227 50.19999999999999-0.8999999999999773 75.19999999999999z m-89.30000000000007 174.2h-27.19999999999999c-6.699999999999989-32.299999999999955-9.899999999999977-63.799999999999955-3.6999999999999886-95.5 5.5-27.69999999999999 3.6999999999999886-55.099999999999966 0.39999999999997726-83-2.6999999999999886-23.399999999999977-2.8999999999999773-47.69999999999999 0.20000000000004547-71 3.8999999999999773-30.299999999999955 3.5-59.69999999999999-1.8000000000000114-89.59999999999997-2.3000000000000114-13.100000000000023-0.4000000000000341-26.900000000000006-0.4000000000000341-40.80000000000001h23.5c0.9000000000000341 13.199999999999989 0.9000000000000341 25.600000000000023 2.6000000000000227 37.80000000000001 4.399999999999977 30.69999999999999 7.800000000000011 61 3.3000000000000114 92.30000000000001-3.5 24.19999999999999-4.5 49.5-1.400000000000034 73.59999999999997 3.7000000000000455 28.900000000000034 5.300000000000011 56.900000000000034-0.5999999999999659 85.50000000000006-4.900000000000034 23.59999999999991-4.199999999999989 47.5 2 71 1.599999999999966 6.099999999999909 2 12.599999999999909 3.099999999999966 19.699999999999932z m-372.4-373.4v17c0 5.100000000000023 3.700000000000003 9.199999999999989 8.200000000000003 9.300000000000011l137.3 2.1999999999999886v-37.599999999999994h-137.3c-4.499999999999986 0-8.199999999999989 4.099999999999994-8.199999999999989 9.099999999999994z m856.7-9.099999999999994h-361v43.099999999999994l361 5.800000000000011c4.5 0.0999999999999659 8.199999999999932-4 8.199999999999932-9v-30.80000000000001c0-5-3.699999999999932-9.099999999999994-8.199999999999932-9.099999999999994z m-847.3000000000001-29.099999999999994l847.9-39.70000000000002c4.5-0.19999999999998863 8-4.5 7.7000000000000455-9.5l-1.5-30.69999999999999c-0.20000000000004547-5-4.100000000000023-8.900000000000006-8.600000000000023-8.600000000000009l-847.3 53.10000000000001c-4.500000000000028 0.29999999999998295-8.000000000000028 4.599999999999994-7.700000000000017 9.699999999999989l0.7999999999999972 16.900000000000006c0.29999999999999716 5.099999999999994 4.200000000000003 9 8.700000000000003 8.800000000000011z"/>
</svg>
