<svg xmlns="http://www.w3.org/2000/svg" viewBox="0 0 1000 1000" width="1000" height="1000">
<path d="M386.9 561.4c-28.899999999999977 8.600000000000023-41.599999999999966-6.100000000000023-41.599999999999966-30.699999999999932 0-21.400000000000034 8.199999999999989-42.30000000000007 21.099999999999966-57.400000000000034 10-11.600000000000023 23.5-20.5 37.400000000000034-24.600000000000023 12.899999999999977-3.8000000000000114 22.80000000000001-4.199999999999989 27.69999999999999-3l7.399999999999977-22.69999999999999c-4.099999999999966-1.6000000000000227-15.899999999999977-2-32 2.6999999999999886-21.099999999999966 6.300000000000011-39.39999999999998 17.600000000000023-54.599999999999966 33.69999999999999-21.30000000000001 22.200000000000045-34.400000000000034 52-34.400000000000034 82.39999999999998 0 38.10000000000002 24.400000000000034 54.30000000000007 62.400000000000034 43 17.19999999999999-5.199999999999932 30.5-12.099999999999909 38.30000000000001-17.899999999999977l-2.400000000000034-20c-7.800000000000011 6.2000000000000455-18.599999999999966 11.399999999999977-29.30000000000001 14.5z m189-70.39999999999998c0 21.299999999999955 12.399999999999977 32.39999999999998 31.300000000000068 26.799999999999955 13.5-4 27.399999999999977-14.899999999999977 37.799999999999955-37.599999999999966l0.6000000000000227-0.19999999999998863c-0.8999999999999773 9.399999999999977-1.8000000000000682 18.100000000000023-1.8999999999999773 24.5l23.5-7c-0.40000000000009095-12.5 1.2999999999999545-32.80000000000001 4.399999999999977-49.60000000000002l10.899999999999977-58.5c-8.100000000000023-0.2999999999999545-20.5 1.2000000000000455-32 4.7000000000000455-49.39999999999998 14.699999999999989-74.60000000000002 60.69999999999999-74.60000000000002 96.89999999999998z m72.60000000000002-47.80000000000001c-5 28.400000000000034-19.299999999999955 47.5-31.100000000000023 51-11.100000000000023 3.1999999999999886-15.199999999999932-4.599999999999966-15.199999999999932-15.800000000000011 0-24.099999999999966 18-55.799999999999955 41.59999999999991-62.799999999999955 4.600000000000023-1.3000000000000114 7.800000000000068-1.8000000000000114 10.5-2l-5.7999999999999545 29.599999999999966z m-161.3-0.5999999999999659c-36.099999999999966 10.799999999999955-61.19999999999999 49.299999999999955-61.19999999999999 85.10000000000002 0 25.199999999999932 16.5 38.799999999999955 43.19999999999999 30.899999999999977 36.10000000000002-10.800000000000068 61.30000000000001-49.10000000000002 61.30000000000001-85.10000000000002 0.20000000000004547-23.399999999999977-14.799999999999955-39.30000000000001-43.30000000000001-30.899999999999977z m-14.300000000000011 95.5c-12.799999999999955 3.8999999999999773-20.599999999999966-4.100000000000023-20.599999999999966-18.600000000000023 0-19.80000000000001 11.699999999999989-50.30000000000001 31.899999999999977-56.30000000000001 15.5-4.599999999999966 20.19999999999999 7.5 20.19999999999999 18.400000000000034 0 20.899999999999977-12.599999999999966 50.799999999999955-31.5 56.5z m263.6 302.5v-624.7c0-19.099999999999966-30.399999999999977-72.99999999999997-45.5-98.79999999999998v-13.299999999999997c5.7999999999999545-3.799999999999997 9.399999999999977-10.299999999999997 9.399999999999977-17.39999999999999 0-11.300000000000011-8.799999999999955-20.700000000000003-20-21-4.7999999999999545-0.30000000000001137-45.89999999999998-2.9000000000000057-182.39999999999998-2.9000000000000057-134 0-168.5 2.5999999999999943-173.3 2.9000000000000057-10.899999999999977 0.5999999999999943-20 9.699999999999989-20 21 0 4.199999999999989 1.6000000000000227 8.399999999999991 3.900000000000034 11.599999999999994v19.099999999999994c-15.100000000000023 25.80000000000001-45.5 79.70000000000002-45.5 98.80000000000001v630.6l0.39999999999997726 1.6000000000000227 0.39999999999997726 1.2999999999999545s0.30000000000001137 1 0.30000000000001137 1.3000000000000682c0.4000000000000341 0.39999999999997726 0.4000000000000341 0.599999999999909 0.6000000000000227 1.2999999999999545 0 0.39999999999997726 0.30000000000001137 0.6000000000000227 0.5999999999999659 1s0.4000000000000341 0.6000000000000227 0.6000000000000227 1l1 1 1 1 1 1s1 0.39999999999997726 1.3000000000000114 0.6000000000000227c0.39999999999997726 0.2999999999999545 0.5999999999999659 0.2999999999999545 0.5999999999999659 0.6000000000000227 1.900000000000034 0.599999999999909 11.300000000000011 4.7999999999999545 27.700000000000045 10.699999999999932-1.3000000000000114 1.8999999999999773-1.900000000000034 4.2000000000000455-1.900000000000034 6.7000000000000455v22.299999999999955c0 6.100000000000023 3.8000000000000114 11.600000000000023 10 13.200000000000045 6.100000000000023 1.6000000000000227 99.10000000000002 26.5 206.3 26.5 63 0 130.5-8.800000000000068 188.20000000000005-35.5 4.7999999999999545-2.300000000000068 7.7999999999999545-7.100000000000023 7.7999999999999545-12.200000000000045v-17.199999999999932c0-2.300000000000068-0.6000000000000227-4.5-1.6000000000000227-6.5 7.100000000000023-2.6000000000000227 14.200000000000045-5.2000000000000455 21.600000000000023-7.800000000000068 6.899999999999977-2.8999999999999773 10.200000000000045-10.699999999999932 7.5-17.799999999999955z m-27.100000000000023-248.60000000000002c-12.199999999999932-3.2000000000000455-25.199999999999932-5.7999999999999545-39-7.7999999999999545-22.899999999999977-2.6000000000000227-48.10000000000002-3.2000000000000455-73.89999999999998 0.599999999999909-6.5 1-13.200000000000045 1.900000000000091-19.700000000000045 3.6000000000000227-6.5 1.3000000000000682-13 3.2000000000000455-19.299999999999955 5.2000000000000455-13 3.8999999999999773-25.799999999999955 9-38.10000000000002 15.100000000000023-6.100000000000023 2.8999999999999773-12 6.5-18.099999999999966 9.699999999999932-6.100000000000023 3.2000000000000455-11.600000000000023 7.100000000000023-17.19999999999999 10.899999999999977-5.5 3.900000000000091-11.300000000000011 8.400000000000091-16.80000000000001 12.900000000000091l-8 6.699999999999932-6.5 5.800000000000068c-8.100000000000023 7.7999999999999545-16.100000000000023 15.5-24.5 23.299999999999955l-11 11-12 9.700000000000045-11.600000000000023 9.699999999999932c-3.8999999999999773 2.8999999999999773-8.099999999999966 5.800000000000068-12.199999999999989 8.800000000000068-4.199999999999989 2.8999999999999773-8.100000000000023 5.7999999999999545-12.199999999999989 8.799999999999955l-12.600000000000023 7.7999999999999545-12.599999999999966 7.800000000000068c-4.2000000000000455 2.2999999999999545-8.400000000000034 4.5-12.600000000000023 6.699999999999932-4.199999999999989 2.300000000000068-8.399999999999977 4.5-12.600000000000023 6.5-4.599999999999966 1.900000000000091-8.799999999999955 3.800000000000068-12.899999999999977 5.800000000000068l-12.600000000000023 5.5c-1 0.2999999999999545-2.2999999999999545 0.6000000000000227-3.1999999999999886 1.2999999999999545v-370.4l14.900000000000034-1.8999999999999773c5.5-1 10.699999999999989-1.900000000000034 16.099999999999966-3.2000000000000455 5.5-1 10.900000000000034-2.2999999999999545 16.400000000000034-3.599999999999966l16.5-5.199999999999989c5.5-1.900000000000034 11.299999999999955-3.6000000000000227 16.799999999999955-5.800000000000011 5.5-2.3000000000000114 10.900000000000034-4.600000000000023 16.5-7.100000000000023 5.5-2.599999999999966 11.300000000000011-4.599999999999966 16.80000000000001-7.399999999999977 5.199999999999989-3.1999999999999886 10.300000000000011-6.100000000000023 15.800000000000011-9.400000000000034 5.5-2.8999999999999773 10.899999999999977-6.099999999999966 16.100000000000023-9.399999999999977l15.099999999999966-10.899999999999977 15.100000000000023-11.300000000000011c4.800000000000011-3.8000000000000114 9.399999999999977-8 14.199999999999989-12.199999999999989l25.600000000000023-24.200000000000045 6.100000000000023-5.7999999999999545 4.7999999999999545-4.2000000000000455c3.2000000000000455-2.8999999999999773 6.7000000000000455-5.7999999999999545 10.700000000000045-8.399999999999977 3.8999999999999773-2.8999999999999773 7.7999999999999545-5.800000000000011 11.599999999999909-8.399999999999977s7.800000000000068-5.500000000000028 12-7.400000000000034c3.900000000000091-2.5999999999999943 8.100000000000023-4.799999999999983 12.200000000000045-6.699999999999989 3.8999999999999773-2.3000000000000114 8.100000000000023-4.199999999999989 12.200000000000045-5.800000000000011 4.599999999999909-1.8999999999999773 8.799999999999955-3.8999999999999773 13-5.199999999999989l6.699999999999932-2.3000000000000114 6.5-1.8999999999999773c35.200000000000045-10.700000000000017 73-12.200000000000017 105.89999999999998-10.700000000000017 0.6000000000000227 0.4000000000000057 1 0.4000000000000057 1.6000000000000227 0.4000000000000057v373z m-149-217.2l-29.600000000000023 163.3 25.5-7.5 29.40000000000009-163.20000000000005-25.300000000000068 7.400000000000034z"/>
</svg>
