<svg xmlns="http://www.w3.org/2000/svg" viewBox="0 0 1000 1000" width="1000" height="1000">
<path d="M738.9 915.4c-50.10000000000002-6-96.19999999999993-21-131.69999999999993-56.10000000000002-38.90000000000009-38.5-62.80000000000007-85.5-73.90000000000009-139.0999999999999-6-28.800000000000068 1.5-52.30000000000007 27.300000000000068-71.70000000000005 85.29999999999995-63.89999999999998 118.60000000000002-174.10000000000002 74.5-271.6-41.30000000000007-91.19999999999999-123.80000000000001-131.89999999999998-227.90000000000003-103.59999999999997-12.300000000000011 3.3000000000000114-24.30000000000001 7.399999999999977-36.80000000000001 11.199999999999989-17.5-77.5-27.899999999999977-156.2-76-222.1-3.599999999999966 2.299999999999997-6 3.5-8 5.199999999999989-1.8999999999999773 1.6000000000000085-3.599999999999966 3.700000000000003-5.5 5.6000000000000085 30.200000000000045 50.39999999999999 44.5 105.89999999999999 56.5 164.60000000000002-18.69999999999999-41.30000000000001-36.19999999999999-80.5-54.299999999999955-119.50000000000001-7.600000000000023-16.39999999999999-10.700000000000045-16.5-26.5-4.5 18.099999999999966 41.500000000000014 36.19999999999999 83.00000000000001 54.39999999999998 124.39999999999999l-4.899999999999977 2.5c-31.30000000000001-53.29999999999998-62.70000000000002-106.6-94.20000000000002-160.2-6.200000000000017 5.299999999999997-16.400000000000006 8.599999999999994-9.300000000000011 21.200000000000003 19.400000000000006 34.89999999999999 38 70.3 56.70000000000002 105.60000000000001 10 18.69999999999999 19.5 37.69999999999999 30.5 59.19999999999999-5.199999999999989-5.600000000000023-9-8.800000000000011-11.699999999999989-13-22.30000000000001-33.599999999999994-45.20000000000002-66.9-66.30000000000001-101.30000000000001-7.100000000000023-11.599999999999994-13.300000000000011-11.5-23.80000000000001-4.099999999999994 29.900000000000006 63.099999999999994 66.9 120.4 116.19999999999999 167.20000000000002-21.80000000000001 18.599999999999966-43.80000000000001 34.39999999999998-62.19999999999999 53.5-75.30000000000001 77.39999999999998-81.80000000000001 182.49999999999994-14.400000000000006 259.59999999999997 51.00000000000003 58.39999999999998 119.50000000000003 81.20000000000005 199.9 73.89999999999998 44.89999999999998-4 61.39999999999998 5.900000000000091 77.60000000000002 45.5 9.600000000000023 23.600000000000023 18.600000000000023 48 31.5 69.80000000000007 37.69999999999993 64.39999999999998 93.19999999999993 105.89999999999998 172.29999999999995 113.39999999999998 31.700000000000045 3 63.60000000000002 4 95.5 6.100000000000023 48 3.199999999999932-42.39999999999998-18.899999999999977-65.5-21.700000000000045z"/>
</svg>
