<svg xmlns="http://www.w3.org/2000/svg" viewBox="0 0 1000 1000" width="1000" height="1000">
<path d="M633.6 384.2c39.19999999999993 6.5 69.39999999999998-8.399999999999977 85.69999999999993-42.19999999999999-33-14.199999999999989-75.89999999999998 6.899999999999977-85.69999999999993 42.19999999999999z m-2.6000000000000227 79.30000000000001c23.799999999999955 29.19999999999999 56.60000000000002 37 95.89999999999998 21-27.699999999999932-33.19999999999999-66.89999999999998-41.10000000000002-95.89999999999998-21z m20.5-232.2c-35.299999999999955 1.3999999999999773-62.89999999999998 34.30000000000001-60.299999999999955 72 36.39999999999998-6 59-32.900000000000034 60.299999999999955-72z m-253.3 487.7c33.69999999999999-23.799999999999955 43.5-57.799999999999955 28.100000000000023-91.70000000000005-31.600000000000023 18.5-42.5 51.90000000000009-28.100000000000023 91.70000000000005z m169.3-160.60000000000002c15.700000000000045 45.30000000000007 42.5 66.80000000000007 74.39999999999998 61.5-9.199999999999932-40.89999999999998-35.5-63.39999999999998-74.39999999999998-61.5z m298.70000000000005-333c-68.80000000000007-121.49999999999997-187.9000000000001-178.79999999999998-322.70000000000005-155.7-236.7 40.500000000000014-434.3 233.3-474.8 470.00000000000006-21.29999999999999 124.59999999999991 10.500000000000014 232.19999999999993 121.4 308.29999999999995 142.70000000000002 97.89999999999998 296.70000000000005 106.39999999999998 456.79999999999995 59.5 128.20000000000005-37.60000000000002 200.30000000000007-121.70000000000005 254.5-250.70000000000005 23.600000000000023-56.09999999999991 36.200000000000045-112.89999999999998 36.200000000000045-179.89999999999998-3.800000000000068-91.29999999999995-27.600000000000023-174-71.39999999999998-251.49999999999997z m-18.200000000000045 152.90000000000003c-7 130.89999999999998-89.70000000000005 249.90000000000003-211 346.49999999999994-76.10000000000002 60.60000000000002-162.39999999999998 96.20000000000005-260.5 107.20000000000005-168.3 18.799999999999955-298.7-112.10000000000002-275-279.79999999999995 22.700000000000003-160.80000000000007 113.6-276.70000000000005 242.60000000000002-366.70000000000005 79.09999999999997-55.099999999999994 166.7-86 264.5-84.6 143.69999999999993 2.0999999999999943 243 104.29999999999998 239.39999999999998 277.4z m-334.29999999999995-67.5c-85.80000000000007-1.3000000000000114-184.10000000000002 87.80000000000001-191.30000000000007 173.39999999999998-6 71.00000000000006 35.80000000000001 115.50000000000006 107.20000000000005 114.40000000000003 81.39999999999998-1.3000000000000682 171.69999999999993-78.89999999999998 185.19999999999993-159.20000000000005 13.100000000000023-78.09999999999997-25.699999999999932-127.5-101.09999999999991-128.59999999999997z m84.79999999999995 104.69999999999999c-4.100000000000023 81-90.80000000000001 163.79999999999995-171.7 164.20000000000005-59 0.2999999999999545-91.5-37.40000000000009-84-97.50000000000006 9.800000000000011-78.5 96.89999999999998-153.5 176.09999999999997-151.7 50.5 1.1000000000000227 82.10000000000002 34.89999999999998 79.60000000000002 85z m-103.30000000000001 191.29999999999995c-14.599999999999966 39.5-5.5 72.90000000000009 24.19999999999999 94.80000000000007 19.200000000000045-29.300000000000068 10-67.89999999999998-24.19999999999999-94.80000000000007z m-195.7-76.19999999999993c-29.399999999999977-15.100000000000023-68.19999999999999 1.5-89.1 39.89999999999998 36.69999999999999 9.5 69.99999999999997-6.2000000000000455 89.1-39.89999999999998z m125.80000000000001-228.70000000000005c16.399999999999977-35 8.399999999999977-68.69999999999999-22.100000000000023-92.89999999999998-20 31.80000000000001-10.800000000000011 70.5 22.100000000000023 92.89999999999998z m-117.69999999999999 137.90000000000003c-20.5-30.30000000000001-54.30000000000001-38.80000000000001-93.70000000000002-21.900000000000034 25.799999999999983 32.30000000000001 62.29999999999998 40.10000000000002 93.70000000000002 21.900000000000034z m-27.700000000000045 231.90000000000003c39.200000000000045-5.7000000000000455 66.70000000000005-42.5 57-76.40000000000009-38.39999999999998 14-59.099999999999966 41.700000000000045-57 76.40000000000009z m249.39999999999998-482.30000000000007c-29.199999999999932 25.900000000000034-36.69999999999993 56.400000000000034-29.999999999999943 95.60000000000002 37.099999999999966-18.600000000000023 49.099999999999966-58 29.999999999999943-95.6z m-178.59999999999997 181.3c-5.5-37.30000000000001-28-59.39999999999998-69.39999999999998-65.80000000000001 5.599999999999966 42.30000000000001 32.80000000000001 67.20000000000005 69.39999999999998 65.80000000000001z"/>
</svg>
