<svg xmlns="http://www.w3.org/2000/svg" viewBox="0 0 1000 1000" width="1000" height="1000">
<path d="M561.3 232.7c-169.09999999999997 1-334.29999999999995 167.7-333.29999999999995 336.00000000000006 0.6999999999999886 110 71.5 182.5 181.3 185.39999999999998 173.49999999999994 4.699999999999932 340.99999999999994-158.39999999999998 341.49999999999994-332.5 0.40000000000009095-118.10000000000002-71.29999999999995-189.60000000000002-189.5-188.90000000000003z m6.800000000000068 434.09999999999997c-32.80000000000007 23.100000000000023-50.60000000000002-7.599999999999909-70.90000000000003-22.09999999999991-62.30000000000001-44.5-113.89999999999998-100.30000000000007-164.09999999999997-158.00000000000006-30.100000000000023-34.599999999999966-32.10000000000002-62.89999999999998 1.1999999999999886-94.30000000000001 13.399999999999977-12.599999999999966 25.399999999999977-26.69999999999999 37.80000000000001-40.39999999999998 40.299999999999955-45 77.19999999999999-52.10000000000002 125.89999999999998-5 53.299999999999955 51.39999999999998 106 102.60000000000002 150.89999999999998 161.5 9.600000000000023 12.700000000000045 16.700000000000045 27.200000000000045 25.100000000000023 41.200000000000045-23.100000000000023 51.09999999999991-62.200000000000045 86.19999999999993-105.89999999999998 117.09999999999991z m430-391.69999999999993c-9.100000000000023-73.30000000000001-37.700000000000045-91.70000000000002-111.30000000000007-73.70000000000002-14.599999999999909 3.5999999999999943-28.59999999999991 8.400000000000006-35.39999999999998-7.599999999999994-9.699999999999932-22.80000000000001 13.399999999999977-24.200000000000017 25.100000000000023-33.30000000000001 11.399999999999977-8.800000000000011 37.10000000000002-4.300000000000011 32.299999999999955-28.19999999999999-3.699999999999932-18.80000000000001-17.799999999999955-32.80000000000001-36.799999999999955-38.30000000000001-24.799999999999955-7.299999999999997-29.399999999999977 16.599999999999994-40.700000000000045 29.400000000000006-9.5 10.799999999999983-20.299999999999955 23.5-34.5 14.199999999999989-14.299999999999955-9.400000000000006-7.699999999999932-25 0-37 16.200000000000045-25.39999999999999 41.5-53.3-4.399999999999977-71.8-40.39999999999998-16.4-83.19999999999993-52.4-126.39999999999998-5.799999999999997-49 52.8-33.200000000000045 165.2 26.799999999999955 205.2 31.200000000000045 20.80000000000001 60.90000000000009 45.80000000000001 71.80000000000007 82.10000000000002 15.100000000000023 50.099999999999966 46.69999999999993 63.599999999999966 79.69999999999993 56.89999999999998 30.200000000000045-2.3999999999999773 46.40000000000009-2.6999999999999886 62.40000000000009-5.099999999999966 50.299999999999955-7.900000000000034 99.89999999999998-19.100000000000023 91.39999999999998-87z m-687.9000000000001 494.69999999999993c-35.299999999999955-10.599999999999909-62.19999999999993-38.59999999999991-82.79999999999993-70.59999999999991-18.599999999999994-28.90000000000009-24-70.90000000000009-76.4-63.10000000000002-38.400000000000006 5.699999999999932-79-0.10000000000002274-114.2 21-60.599999999999994 36.299999999999955-28.199999999999996 82.19999999999993-12.399999999999999 126.89999999999998 16.6 46.60000000000002 42.4 39.299999999999955 73.6 15.5 10.799999999999997-8.299999999999955 26.099999999999994-16.799999999999955 37-4.100000000000023 15.300000000000011 17.899999999999977-1.5999999999999943 29.5-14.799999999999997 37.89999999999998-30.299999999999997 19.300000000000068-36.400000000000006 40.30000000000007-7.5 65.40000000000009 36.499999999999986 31.799999999999955 39.3-5.800000000000068 50.2-25.200000000000045 6.699999999999989-11.899999999999977 11.199999999999989-28.600000000000023 28.69999999999999-22.399999999999977 21.400000000000006 7.600000000000023 13 23.799999999999955 8.700000000000017 40.10000000000002-6 22.899999999999977-33.5 48.19999999999993-8.700000000000017 69.5 31.400000000000006 27 71.50000000000003 45.39999999999998 114.29999999999998 37.299999999999955 36.400000000000034-6.899999999999977 47.5-40.60000000000002 53.900000000000034-73.10000000000002 4-20.299999999999955 4.599999999999966-41.19999999999993 8.199999999999989-76.60000000000002 6.100000000000023-32.19999999999993-7-63.299999999999955-57.80000000000001-78.5z"/>
</svg>
