<svg xmlns="http://www.w3.org/2000/svg" viewBox="0 0 1000 1000" width="1000" height="1000">
<path d="M535.5 785.7c0.10000000000002274-23.800000000000068 0.8999999999999773-48.200000000000045-6-70.90000000000009-5.7999999999999545-19.09999999999991 1-29.899999999999977 13.899999999999977-42.5 55.80000000000007-54.5 110.5-110 165.80000000000007-165.09999999999997 4.2999999999999545-4.300000000000011 5.7999999999999545-7.099999999999966 2.199999999999932-13.199999999999989-39.39999999999998-67-39.60000000000002-134.39999999999998-1-201.89999999999998 0.7000000000000455-1.1000000000000227 1.1000000000000227-2.400000000000034 2.3999999999999773-5.100000000000023-10.099999999999909 5.100000000000023-18.899999999999977 9.899999999999977-28 14.100000000000023-81 37.599999999999966-184.79999999999995 8.799999999999955-234.49999999999994-64.70000000000002-3.3000000000000114-4.900000000000006-3.6999999999999886-7.700000000000017 0.8999999999999773-12.300000000000011 53-52.599999999999994 105.00000000000006-106.3 158.8-158 65.60000000000002-62.599999999999994 144.10000000000002-81.1 230-53.99999999999999 83.29999999999995 26.299999999999997 135.79999999999995 85.30000000000001 154 171 16.5 77.9-3 148.4-59.10000000000002 205.29999999999998-126.5 128.39999999999998-254.5 255.20000000000005-381.9 382.70000000000005-5.100000000000023 5.100000000000023-9.700000000000045 10.799999999999955-14.600000000000023 16.299999999999955l-2.8999999999999773-1.6999999999999318z m234-477.70000000000005c43.60000000000002 0.30000000000001137 78.79999999999995-34.39999999999998 79-77.69999999999999 0.20000000000004547-43.10000000000002-35.10000000000002-78.5-78.20000000000005-78.70000000000002-42.799999999999955-0.09999999999999432-77.89999999999998 34.599999999999994-78.29999999999995 77.4-0.2999999999999545 43.69999999999999 34 78.69999999999999 77.5 79z m-525.5 234.10000000000002c48.30000000000001 3.6000000000000227 92 19.5 129.39999999999998 50.5 56.30000000000001 46.60000000000002 85.30000000000001 106.69999999999993 84.80000000000001 179.79999999999995-0.8999999999999773 131.30000000000007-110.39999999999998 233.89999999999998-241.5 227.30000000000007-110.89999999999999-5.600000000000023-203.79999999999998-93.70000000000005-214.79999999999998-203.9000000000001-7.400000000000006-74 15.799999999999994-137.29999999999995 68.1-189.69999999999993 96.30000000000001-96.5 192.8-192.8 289.4-289.20000000000005 22.700000000000045-22.69999999999999 56.700000000000045-15.799999999999955 65.30000000000001 13.300000000000011 4.5 15.300000000000011 0.30000000000001137 28.5-11.199999999999989 39.900000000000034l-155.7 155.39999999999998c-4.900000000000006 4.899999999999977-10.300000000000011 9.200000000000045-15.400000000000006 13.799999999999955l1.5999999999999943 2.800000000000068z m-167.7 229c1.5999999999999943 86.79999999999995 70.29999999999998 154.19999999999993 155.5 152.60000000000002 85.5-1.6000000000000227 152.39999999999998-71.5 150.7-157.5-1.6999999999999886-83.80000000000007-72.19999999999999-150.30000000000007-157.5-148.60000000000002-82.19999999999999 1.6000000000000227-150.2 71.79999999999995-148.7 153.5z"/>
</svg>
