<svg xmlns="http://www.w3.org/2000/svg" viewBox="0 0 1000 1000" width="1000" height="1000">
<path d="M143.9 475c21.099999999999994-15.899999999999977 38.099999999999994-34.39999999999998 51.599999999999994-56.19999999999999 16.19999999999999-26 22-55.10000000000002 24.099999999999994-84.80000000000001 2.700000000000017-36.30000000000001 16.900000000000006-65.39999999999998 47.599999999999994-85.9 17.69999999999999-11.699999999999989 37.900000000000034-14.400000000000006 58.19999999999999-16 64.5-4.900000000000006 112.70000000000005-35.5 146.20000000000005-90.29999999999998 0.2999999999999545-0.5 1-0.9000000000000057 2.099999999999966-2 10.800000000000011 20.599999999999994 17.80000000000001 42.29999999999998 21.80000000000001 64.89999999999998 10.600000000000023 60.400000000000034 0.6999999999999886 117.40000000000003-30 170.7-2.6999999999999886 4.800000000000011-2.8000000000000114 7.5 1.5 11.800000000000011 58.89999999999998 58.60000000000002 117.60000000000002 117.40000000000003 176.20000000000005 176.40000000000003 5.699999999999932 5.7999999999999545 10 6.7999999999999545 17.699999999999932 2.6000000000000227 137.60000000000002-75.40000000000003 311.6 10.599999999999909 336 165.89999999999998 20.5 130.5-69.5 250.10000000000002-200.29999999999995 266.19999999999993-120.89999999999998 14.900000000000091-234.70000000000005-70.29999999999995-254.39999999999998-190-8.600000000000023-51.89999999999998-0.7000000000000455-100.89999999999998 24-147.19999999999993 3.2999999999999545-6 2.8999999999999773-9.600000000000023-2-14.399999999999977-59.900000000000034-59.5-119.70000000000005-119.20000000000005-179.20000000000005-179.10000000000002-4.600000000000023-4.600000000000023-7.600000000000023-3.2000000000000455-11.899999999999977-0.7000000000000455-40.700000000000045 23.200000000000045-84.70000000000005 33.80000000000001-131.40000000000003 32.400000000000034-31.299999999999983-1-61.39999999999998-7.800000000000011-90.19999999999999-20.19999999999999-2.4000000000000057-1-4.599999999999994-2.5-7.599999999999994-4.100000000000023z m624.9 178.79999999999995c-65.59999999999991 1-115.69999999999993 52.700000000000045-114.79999999999995 118.5 0.7000000000000455 61.30000000000007 54 113.40000000000009 114.89999999999998 112.60000000000002 66.30000000000007-1 117.10000000000002-53.39999999999998 116.10000000000002-119.79999999999995-0.8999999999999773-60.89999999999998-54.60000000000002-112.30000000000007-116.20000000000005-111.30000000000007z m-768.8-405.9c1.9-126.19999999999997 91.6-228.79999999999998 218.3-245.59999999999997 71.30000000000001-9.400000000000011 135.39999999999998 10.099999999999989 191.39999999999998 55.69999999999999 5.199999999999989 4.200000000000003 6.400000000000034 8.400000000000006 5.300000000000011 14.599999999999994-8.300000000000011 46.7-44.39999999999998 78.5-96.19999999999999 82.20000000000002-57 4-104.4 25.399999999999977-139.9 71.1-22.599999999999994 29-32.900000000000006 62.29999999999998-35.70000000000002 98.20000000000002-2.5 31.299999999999955-10.799999999999983 59.299999999999955-35.69999999999999 80.89999999999998-27.400000000000006 23.899999999999977-36.099999999999994 23.5-57.5-5.399999999999977-33-44.60000000000002-49.3-94.80000000000001-50-151.70000000000002z"/>
</svg>
