<svg xmlns="http://www.w3.org/2000/svg" viewBox="0 0 1000 1000" width="1000" height="1000">
<path d="M771.1 615.8c-29 0-58.10000000000002-0.7999999999999545-87.10000000000002 0.20000000000004547-74.20000000000005 2.6000000000000227-132.79999999999995 35.39999999999998-177.3 94.10000000000002-4.899999999999977 6.5-6.699999999999989 7.399999999999977-12.199999999999989 0.1999999999999318-47.89999999999998-63.39999999999998-111.69999999999999-95-191.2-94.89999999999998-54.70000000000002 0.10000000000002274-109.5 0.20000000000004547-164.20000000000002 0-49.19999999999999-0.1999999999999318-86.3-29.199999999999932-97.6-75.69999999999993-13.399999999999999-55.60000000000002 29.700000000000003-113.70000000000005 86.80000000000001-115.50000000000006 39.29999999999998-1.1999999999999886 78.69999999999999-0.39999999999997726 118.1-0.5999999999999659 11.599999999999994 0 11.599999999999994 0 6.900000000000006-10.900000000000034-8.300000000000011-19.399999999999977-14.800000000000011-39.39999999999998-17.5-60.30000000000001-1-7.899999999999977-4.800000000000011-10.799999999999955-12.100000000000023-13-70.39999999999998-21.69999999999999-112.69999999999999-69.29999999999995-124.99999999999999-141.59999999999997-11.5-67.4 22.39999999999999-136.70000000000002 81.60000000000001-172.4 68.1-41.10000000000001 154.7-30.700000000000006 210.8 25.699999999999996 5.7999999999999545 5.799999999999997 10.399999999999977 7 18.19999999999999 4.199999999999996 60.599999999999966-21.799999999999997 121.49999999999994-21.9 182.09999999999997-0.09999999999999432 7.600000000000023 2.6999999999999957 12.100000000000023 1.7999999999999972 18.100000000000023-4 49.299999999999955-46.800000000000004 107.5-62.800000000000004 172.5-42.6 65.29999999999995 20.299999999999997 105.70000000000005 66 118.60000000000002 133.3 17.100000000000023 89-37.10000000000002 174.1-124.20000000000005 197.79999999999998-7.100000000000023 1.900000000000034-10.199999999999932 5.199999999999989-11.199999999999932 12.400000000000034-2.900000000000091 22-9.800000000000068 42.89999999999998-18.800000000000068 63-3.1000000000000227 6.7999999999999545-1.6999999999999318 8.599999999999966 5.7000000000000455 8.5 37-0.20000000000004547 74.10000000000002-0.20000000000004547 111.10000000000002 0.19999999999998863 56.59999999999991 0.5 98.19999999999993 41.099999999999966 98.19999999999993 95.59999999999997 0 53.89999999999998-42.19999999999993 95.39999999999998-98.19999999999993 96-30.700000000000045 0.3000000000000682-61.40000000000009 0.10000000000002274-92.10000000000002 0.10000000000002274v0.2999999999999545z m-269.20000000000005-372.4c-44.39999999999998 0.9000000000000341-82.69999999999999 13.600000000000023-115.5 41.900000000000034-58.5 50.69999999999999-62.099999999999966 136-7.899999999999977 190.89999999999998 60.39999999999998 61.19999999999999 163.20000000000005 66.80000000000001 230 12.699999999999989 65.10000000000002-52.69999999999999 70.39999999999998-140.7 11.399999999999977-198.2-33-32.39999999999998-73.79999999999995-46.39999999999998-118-47.29999999999998z m-328.59999999999997-67.19999999999999c2 36.30000000000001 19.599999999999994 64.4 52.89999999999998 83 6.600000000000023 3.6999999999999886 9.400000000000006 2.900000000000034 11.100000000000023-5.199999999999989 12.399999999999977-59.80000000000001 41.69999999999999-109.80000000000001 87.89999999999998-149.8 5.800000000000011-5.099999999999994 4-7.099999999999994-1.3000000000000114-10.499999999999986-32.299999999999955-20.700000000000003-66-23-99.59999999999997-5.1000000000000085-33.70000000000002 17.900000000000006-50 47.599999999999994-51 87.6z m556.5-99.1c-16.899999999999977-0.7999999999999972-33.69999999999993 5.1000000000000085-49.39999999999998 14.5-11 6.6000000000000085-11.100000000000023 6.700000000000003-1.6000000000000227 15.200000000000003 44.200000000000045 39.60000000000001 72.30000000000007 88.50000000000001 84.5 146.39999999999998 1.900000000000091 9.100000000000023 4.300000000000068 9.699999999999989 12 5.699999999999989 39.200000000000045-20.49999999999997 59.5-64.49999999999997 49.40000000000009-108.09999999999997-9.900000000000091-42.900000000000006-47.700000000000045-72.80000000000001-94.90000000000009-73.70000000000002z m-420.9 615.6c83.90000000000003 0.09999999999990905 153.10000000000002 69.19999999999993 153 152.79999999999995-0.0999999999999659 85.10000000000002-68.79999999999995 154-153.89999999999998 154.29999999999995-83.69999999999999 0.3000000000000682-153.5-69.5-153.4-153.69999999999993-0.09999999999999432-85.10000000000002 68.70000000000002-153.39999999999998 154.29999999999998-153.39999999999998z m384.30000000000007 0c86.5 1 154.69999999999993 70.79999999999995 153.29999999999995 156.69999999999993-1.3999999999999773 82.30000000000007-72.60000000000002 151.89999999999998-153.89999999999998 150.5-87.60000000000002-1.3999999999999773-155.10000000000002-71.10000000000002-153.60000000000002-158.5 1.2999999999999545-81.5 72.10000000000002-149.69999999999993 154.20000000000005-148.69999999999993z m-192.80000000000007-282.70000000000005c-31.599999999999966-0.8000000000000114-59.69999999999999-9.899999999999977-80.5-35.19999999999999-20.899999999999977-25.5-20.5-58 0.5-83.40000000000003 36-43.79999999999998 117.30000000000007-46.19999999999999 156-4.5 29 31.200000000000045 26.100000000000023 73.20000000000005-7.2999999999999545 100-20 16-43.10000000000002 23.30000000000001-68.70000000000005 23.100000000000023z"/>
</svg>
