<svg xmlns="http://www.w3.org/2000/svg" viewBox="0 0 1000 1000" width="1000" height="1000">
<path d="M762.3 87.8c9.600000000000023-42.599999999999994-0.1999999999999318-69.69999999999999-38.59999999999991-87.8h-27.40000000000009c-11.799999999999955 100-81.39999999999998 161.3-186.89999999999998 164.8-129.09999999999997 4.199999999999989-200-48.10000000000001-223.29999999999995-164.8h-27.400000000000034c-37.099999999999994 20.2-43.19999999999999 46.2-32.79999999999998 89.1 18.099999999999994 74.9 37.49999999999997 155.8 11 229.50000000000003-43.20000000000002 120.09999999999997-27.5 242.19999999999993-32.599999999999994 363.9-1.6000000000000227 37.89999999999998 5.099999999999994 53.89999999999998 49.89999999999998 56.89999999999998 83.60000000000002 5.5 170 109.20000000000005 150.2 188.70000000000005-17.69999999999999 70.79999999999995 15.600000000000023 72 63.400000000000034 71.89999999999998 27.30000000000001 0 54.69999999999999-0.6000000000000227 81.90000000000003-2.2000000000000455 30.899999999999977-1.8999999999999773 45.19999999999993-9.899999999999977 39.19999999999993-49.799999999999955-16.299999999999955-108 48.60000000000002-192.20000000000005 154.5-210.89999999999998 14.700000000000045-2.6000000000000227 34.700000000000045 4 34.5-21.100000000000023-0.7999999999999545-104.70000000000005 16.300000000000068-213.89999999999998-8.100000000000023-312.8-26.699999999999932-108.30000000000001-31.399999999999977-210.2-7.5-315.4z m-567.1999999999999 63.60000000000001c-5.700000000000017-25.80000000000001 5.999999999999972-66.2-20.30000000000001-74.4-27.700000000000017-8.700000000000003-47.000000000000014 28.200000000000003-68.00000000000001 46.8-117.8 104.00000000000001-117.7 104.7-18.89999999999999 225 14.599999999999994 17.69999999999999 23.599999999999994 47.69999999999999 57.400000000000006 35.5 27.399999999999977-9.800000000000011 46.79999999999998-26.900000000000034 50.79999999999998-57.5 3.5-26.900000000000034 6.800000000000011-53.69999999999999 10.200000000000017-81.4-3.4000000000000057-31.30000000000001-4.300000000000011-63.30000000000001-11.200000000000017-94z m778.9 62.900000000000006c-3.1000000000000227-3.4000000000000057-6-6.900000000000006-9.299999999999955-10-48.10000000000002-44.80000000000001-96.20000000000005-89.60000000000001-157.30000000000007-146.5-15.899999999999977 92.39999999999998-33.5 169.1-19.899999999999977 249.89999999999998 6.2000000000000455 36.80000000000001 17.100000000000023 77 54.700000000000045 74.90000000000003 66.79999999999995-3.8000000000000114 78.79999999999995-78.30000000000001 121.19999999999993-115.80000000000001 14.200000000000045-12.5 30.899999999999977-30.200000000000017 10.600000000000023-52.5z m-765.1 568.2c50.900000000000034 63.5 94.80000000000001 118.29999999999995 141.3 176.29999999999995 35.80000000000001-94.09999999999991-30.399999999999977-181-141.29999999999998-176.29999999999995z m429.9 167.79999999999995c35.90000000000009-44.39999999999998 69.90000000000009-86.19999999999993 103.70000000000005-128.29999999999995 8.200000000000045-10.200000000000045 15.399999999999977-21.299999999999955 28.899999999999977-39.89999999999998-104.69999999999993-0.39999999999997726-162.19999999999993 75.60000000000002-132.60000000000002 168.19999999999993z m-12.699999999999932-888.0999999999999c-88.60000000000002 25.299999999999955-177.3 17.69999999999996-279.6-4.800000000000047 95.60000000000002 90.5 202.20000000000005 89.6 279.6 4.800000000000004z"/>
</svg>
