<svg xmlns="http://www.w3.org/2000/svg" viewBox="0 0 1000 1000" width="1000" height="1000">
<path d="M798.6 397.2c-2.3999999999999773 56.900000000000034-4.7000000000000455 113.90000000000003-8 170.8-2.5 42.60000000000002-14.600000000000023 80.60000000000002-39.30000000000007 115.20000000000005-5.7999999999999545 8.199999999999932-17.5 19-6.5 28.199999999999932 10.5 8.800000000000068 17.90000000000009-5.2999999999999545 25.100000000000023-11.5 26.300000000000068-22.299999999999955 26.200000000000045-22.799999999999955 54.200000000000045-4.199999999999932 28.899999999999977 19.299999999999955 57.5 39 86 58.799999999999955 31.399999999999977 21.899999999999977 41.5 54.10000000000002 42.60000000000002 90.39999999999998 0.1999999999999318 6.100000000000023-1.8000000000000682 10.600000000000023-8.100000000000023 12.300000000000068-86.89999999999998 22.899999999999977-167 63.69999999999993-250.39999999999998 95.69999999999993-66.80000000000007 25.600000000000023-134.80000000000007 45.10000000000002-206.60000000000002 47-52.700000000000045 1.3999999999999773-104.90000000000003-5.399999999999977-156.60000000000002-16.399999999999977-87.6-18.600000000000023-172-48.299999999999955-258.3-71.39999999999998-24.999999999999986-6.7000000000000455-24.79999999999999-6.800000000000068-24.69999999999999-33.10000000000002 0.10000000000000142-35 12.5-64 38.599999999999994-88 43.20000000000002-39.60000000000002 92.70000000000002-69.60000000000002 143.20000000000002-98.60000000000002 6.399999999999977-3.699999999999932 10.099999999999994-3.5 14.799999999999983 2.6000000000000227 9.900000000000006 12.899999999999977 20.50000000000003 25.299999999999955 31.099999999999994 37.700000000000045 3.400000000000034 4.099999999999909 7.400000000000034 9.399999999999977 13.400000000000034 6.899999999999977 5.899999999999977-2.5 4.7999999999999545-9 4.5-14.399999999999977-0.6000000000000227-11.200000000000045-5.600000000000023-21-11.300000000000011-30.200000000000045-35-57-50.20000000000002-119.39999999999998-51.5-185.8-1.1000000000000227-53.69999999999999-5.700000000000017-107.39999999999998-0.4000000000000057-161.09999999999997 6.599999999999994-67.90000000000003 9.299999999999983-136.40000000000003 35.49999999999997-200.90000000000003 16.30000000000001-40.19999999999999 41.80000000000001-71.6 80-92.99999999999999 46.700000000000045-26.200000000000003 94.10000000000002-49 148.70000000000005-53.5 44.39999999999998-3.6000000000000028 85.79999999999995 6.999999999999997 127 21.799999999999997 110.39999999999998 39.7 153.19999999999993 128.1 171.39999999999998 235 7.899999999999977 46.39999999999998 7.100000000000023 93 5.600000000000023 139.7z m-155.30000000000007 61.69999999999999c52-0.2999999999999545 86.10000000000002-31.599999999999966 90.90000000000009-83.39999999999998 4.099999999999909-44.10000000000002-18.600000000000023-86-64.70000000000005-98.30000000000001-33-8.800000000000011-62.89999999999998 2.3000000000000114-90.70000000000005 16.30000000000001-43.69999999999993 22-84.19999999999993 17.5-125.39999999999998-5.100000000000023-17.5-9.599999999999966-35.5-19.19999999999999-55.89999999999998-20.799999999999955-39.19999999999999-3.2000000000000455-71.60000000000002 15.5-86 48.5-16.899999999999977 38.799999999999955-9.300000000000011 85.79999999999995 18.100000000000023 111.69999999999999 31.599999999999966 29.899999999999977 81.19999999999999 32.80000000000001 116.29999999999995 5.800000000000011 12.400000000000034-9.5 23-21.400000000000034 34.80000000000001-31.80000000000001 26.900000000000034-23.600000000000023 55.900000000000034-22 80.40000000000003 4.099999999999966 7.399999999999977 7.900000000000034 14.399999999999977 16.200000000000045 21.899999999999977 24.100000000000023 17.399999999999977 18.600000000000023 37.799999999999955 30.899999999999977 60.299999999999955 28.899999999999977z m-141.19999999999993 95.30000000000007c-15.200000000000045-0.20000000000004547-30.30000000000001 0.6999999999999318-45.400000000000034 3.199999999999932-38.19999999999999 6.300000000000068-59.30000000000001 33.80000000000007-63.80000000000001 84.30000000000007-2.099999999999966 23.399999999999977 20.700000000000045 51 50.400000000000034 61 2.599999999999966 0.8999999999999773 5.099999999999966 1.7999999999999545 7.800000000000011 2.2999999999999545 39.89999999999998 8.600000000000023 79.79999999999995 7.600000000000023 119.5-0.39999999999997726 32-6.399999999999977 51.799999999999955-26.100000000000023 59.10000000000002-57.700000000000045 8.299999999999955-36.10000000000002-1.900000000000091-73.60000000000002-45.40000000000009-83.10000000000002-27.199999999999932-6-54.5-9.199999999999932-82.19999999999993-9.599999999999909z"/>
</svg>
