<svg xmlns="http://www.w3.org/2000/svg" viewBox="0 0 1000 1000" width="1000" height="1000">
<path d="M999.7 947.4c-0.3000000000000682-11.899999999999977-2.7000000000000455-19.799999999999955-16.300000000000068-17.199999999999932-26.600000000000023 5-29.399999999999977-10.600000000000023-28.100000000000023-30.90000000000009 0.6000000000000227-8.099999999999909 6.400000000000091-20.899999999999977-5.7999999999999545-22.59999999999991-15.700000000000045-2.300000000000068-12.899999999999977-12-12.899999999999977-21.200000000000045-0.20000000000004547-95.20000000000005 0.10000000000002274-190.39999999999998-0.20000000000004547-285.6-0.10000000000002274-19.799999999999955-4.100000000000023-41.19999999999993 28.200000000000045-35 7.199999999999932 1.3999999999999773 12.799999999999955-3.699999999999932 12.199999999999932-11.799999999999955-0.5-7.7000000000000455-7.2999999999999545-7.7000000000000455-13-8-5.699999999999932-0.39999999999997726-11.5-0.20000000000004547-17.199999999999932-0.20000000000004547-128.10000000000002-0.10000000000002274-256.20000000000005-0.10000000000002274-384.20000000000005-0.10000000000002274-172.39999999999998 0-344.9 0-517.3 0.20000000000004547-8.40000000000002 0-21.600000000000023-3.1999999999999886-22.600000000000023 8.399999999999977-1.1999999999999993 14.399999999999977 12.899999999999999 12.5 22.1 11.800000000000068 14.799999999999997-1.2000000000000455 19.9 3.599999999999909 19.800000000000004 19.09999999999991-0.7000000000000028 101-0.30000000000001137 202-0.4000000000000057 303 0 5.600000000000023 1.7000000000000028 15-3.3999999999999986 15.700000000000045-25.800000000000004 3.5-15.399999999999999 22.899999999999977-15.800000000000004 35.89999999999998-0.3999999999999986 14.800000000000068-2.799999999999997 24.200000000000045-20.299999999999997 21.200000000000045-31.8-5.5-21.7 17.899999999999977-24 33.799999999999955-3.2 21.700000000000045 9.7 21.100000000000023 24.9 21.100000000000023 157.6-0.2999999999999545 315.3-0.20000000000004547 472.90000000000003-0.20000000000004547 155.2 0 310.3 0 465.49999999999994 0 37.40000000000009 0 36.90000000000009 0 35.90000000000009-37.39999999999998z m-687.6-236.19999999999993c0 27.799999999999955-0.4000000000000341 55.69999999999993 0.0999999999999659 83.5 0.19999999999998863 11.599999999999909-1.6999999999999886 18-15.699999999999989 17.799999999999955-16-0.2999999999999545-27 10.200000000000045-28.100000000000023 25.5-1.2999999999999545 19.200000000000045-12.199999999999989 22.100000000000023-27.599999999999966 22.600000000000023-26.100000000000023 0.8999999999999773-52.10000000000002-4.5-78.30000000000001-0.7000000000000455-7.300000000000011 1-10.699999999999989-2.8999999999999773-10.400000000000006-10 0.700000000000017-24.100000000000023-11.400000000000006-36.799999999999955-35-37.69999999999993-10.399999999999991-0.40000000000009095-12.099999999999994-5.5-12.099999999999994-14 0.09999999999999432-58.90000000000009 0.29999999999999716-117.90000000000009-0.20000000000000284-176.9000000000001-0.09999999999999432-12.599999999999909 6-15 16.5-15.299999999999955 18.500000000000014-0.6000000000000227 29.39999999999999-12.100000000000023 30.500000000000014-29.200000000000045 1-14.899999999999977 7.199999999999989-17 19.799999999999983-16.59999999999991 26.200000000000017 0.7999999999999545 52.400000000000006 0.599999999999909 78.6 0.09999999999990905 10.699999999999989-0.1999999999999318 16.30000000000001 2.1000000000000227 16.5 14.700000000000045 0.30000000000001137 19.200000000000045 11.400000000000034 30.600000000000023 30.900000000000034 30.899999999999977 12.5 0.20000000000004547 14.799999999999955 6.2000000000000455 14.599999999999966 16.800000000000068-0.39999999999997726 29.5-0.0999999999999659 59-0.0999999999999659 88.5z m290.9-83.90000000000009c-0.39999999999997726 54.10000000000002-0.2999999999999545 108.30000000000007-0.10000000000002274 162.4000000000001 0.10000000000002274 13 1 22.699999999999932-18.199999999999932 23.5-15.100000000000023 0.6999999999999318-25.90000000000009 13.799999999999955-26.800000000000068 30.699999999999932-0.6999999999999318 13.200000000000045-8.899999999999977 18.100000000000023-19.5 16.200000000000045-23.899999999999977-4.2000000000000455-47.299999999999955 1.2999999999999545-71 0.7999999999999545-15.099999999999966-0.39999999999997726-24.799999999999955-4-26.5-21.100000000000023-1.6999999999999886-16.899999999999977-12.399999999999977-27.299999999999955-29.399999999999977-27.299999999999955-13.800000000000011 0-16.100000000000023-6.2000000000000455-15.899999999999977-18 0.5999999999999659-28.700000000000045 0.19999999999998863-57.39999999999998 0.19999999999998863-86.10000000000002 0-27.100000000000023 0.5999999999999659-54.19999999999993-0.30000000000001137-81.29999999999995-0.39999999999997726-13.800000000000068 2.1999999999999886-21.5 18.19999999999999-21.600000000000023 17.5-0.10000000000002274 28.19999999999999-12.100000000000023 28.69999999999999-28 0.6000000000000227-17.200000000000045 9.100000000000023-17.600000000000023 21.700000000000045-17.200000000000045 18.799999999999955 0.6000000000000227 37.69999999999999 0.3000000000000682 56.60000000000002 0.10000000000002274 18.899999999999977-0.1999999999999318 39.09999999999991-5 39.299999999999955 26 0.10000000000002274 10.899999999999977 12.5 19.700000000000045 25.399999999999977 19.200000000000045 16.800000000000068-0.7000000000000455 17.700000000000045 8.600000000000023 17.600000000000023 21.699999999999932z m290.5 84.20000000000005c0 27.899999999999977-0.10000000000002274 55.700000000000045 0.10000000000002274 83.60000000000002 0.10000000000002274 11-1.1000000000000227 18.299999999999955-15.700000000000045 18.100000000000023-18.199999999999932-0.20000000000004547-29.299999999999955 10.899999999999977-28.799999999999955 29.399999999999977 0.2999999999999545 13.5-5.399999999999977 16.600000000000023-17.200000000000045 16.399999999999977-20.399999999999977-0.20000000000004547-40.799999999999955-0.5-61.10000000000002 1-20.799999999999955 1.6000000000000227-38.299999999999955 1.6000000000000227-40.799999999999955-26.100000000000023-1.3999999999999773-16.299999999999955-16.600000000000023-19.699999999999932-29.200000000000045-21.299999999999955-12-1.3999999999999773-14.599999999999909-5.800000000000068-14.599999999999909-16.899999999999977 0.5-57.40000000000009 0.39999999999997726-114.80000000000007 0.1999999999999318-172.20000000000005-0.10000000000002274-10.200000000000045 1.2000000000000455-17.5 14.100000000000023-17.5 20.799999999999955 0.10000000000002274 32.200000000000045-12.100000000000023 33.200000000000045-31.799999999999955 0.599999999999909-13.200000000000045 6.899999999999977-14 17-13.900000000000091 27.09999999999991 0.40000000000009095 54.09999999999991 0.5 81.19999999999993 0 10.899999999999977-0.1999999999999318 16 2.300000000000068 16.300000000000068 14.700000000000045 0.39999999999997726 19.200000000000045 11.5 30.600000000000023 31 30.799999999999955 12.799999999999955 0.20000000000004547 14.5 6.800000000000068 14.399999999999977 17.200000000000045-0.3000000000000682 29.5-0.10000000000002274 59-0.10000000000002274 88.5z m-774.6-237.60000000000002c96.80000000000001-0.39999999999997726 193.60000000000002-0.2999999999999545 290.40000000000003 0 12.099999999999966 0 18.30000000000001-2.8999999999999773 18.099999999999966-16.399999999999977-0.6999999999999886-31.100000000000023 0.20000000000004547-62.30000000000001-0.6999999999999886-93.5-0.5999999999999659-22.19999999999999-11.800000000000011-39-31.5-49.30000000000001-24.30000000000001-12.899999999999977-42.39999999999998-7.300000000000011-56.099999999999966 16.400000000000034-15 25.69999999999999-30.100000000000023 51.19999999999999-47 80-10.800000000000011-23.700000000000045-26.80000000000001-42.80000000000001 0.7999999999999545-60.900000000000034 3.3000000000000114-2.3000000000000114 6.100000000000023-6.899999999999977 2.5-10.599999999999966-9.699999999999989-9.900000000000034-18.799999999999955-22.200000000000045-30.799999999999955-27.600000000000023-8.100000000000023-3.6000000000000227-14.900000000000034 10.399999999999977-21.400000000000034 17.19999999999999-5 5.199999999999989-20.19999999999999 11.900000000000034-8.099999999999994 20.5 28.00000000000003 19.900000000000034 11.5 38.69999999999999 1.4000000000000057 63.400000000000034-17.69999999999999-30.600000000000023-33-56.700000000000045-48.099999999999994-82.90000000000003-13.200000000000017-22.899999999999977-25.400000000000006-27.599999999999966-49.900000000000006-18-24.799999999999997 9.800000000000011-37.2 29-38 55.10000000000002-0.7999999999999972 29.5 0.4000000000000057 59.099999999999966-0.5 88.59999999999997-0.4000000000000057 14.5 5.599999999999994 18.100000000000023 18.900000000000006 18z m453.9-110.39999999999998c-1.1999999999999318 31.100000000000023 0.10000000000002274 62.30000000000001-0.599999999999909 93.39999999999998-0.3000000000000682 13 4.5 17.100000000000023 17.09999999999991 17 97.5-0.2999999999999545 195.10000000000002-0.2999999999999545 292.6-0.0999999999999659 10.800000000000068 0 16.800000000000068-2.3000000000000114 16.600000000000023-14.900000000000034-0.7000000000000455-32.799999999999955 0.39999999999997726-65.59999999999997-0.7000000000000455-98.29999999999995-0.7999999999999545-24.900000000000034-15.599999999999909-41.5-38.299999999999955-49-19.600000000000023-6.400000000000034-37.299999999999955-6.300000000000011-48.60000000000002 17.899999999999977-12.600000000000023 27.100000000000023-29.5 52.19999999999999-46.5 81.39999999999998-16.100000000000023-33.5-16.699999999999932-33.799999999999955 1.3999999999999773-61 7.800000000000068-11.599999999999966-2.5-14.399999999999977-7.2999999999999545-19.299999999999955-21.299999999999955-21.900000000000034-41.10000000000002-18.200000000000045-54.60000000000002 8.799999999999955-3.2999999999999545 6.400000000000034-0.10000000000002274 9.5 3.7000000000000455 12.100000000000023 28.699999999999932 19.19999999999999 11 38.19999999999999 0 60.19999999999999-16.800000000000068-29-34.200000000000045-55-47.39999999999998-83-11.5-24.399999999999977-29.40000000000009-23-48.700000000000045-16.69999999999999-24.100000000000023 7.800000000000011-37.700000000000045 26.19999999999999-38.700000000000045 51.5z m162.9000000000001-64c59.19999999999993 0.10000000000002274 107.59999999999991-46.80000000000001 108-104.9 0.5-59.69999999999999-47.200000000000045-107-107.90000000000009-107.1-59-0.09999999999999432-107.79999999999995 46.80000000000001-108.79999999999995 104.5-1 57.900000000000006 49 107.30000000000001 108.70000000000005 107.5z m-471.00000000000006 0c59.19999999999999-0.39999999999997726 107-47.5 107.19999999999999-105.69999999999999 0.20000000000004547-59.400000000000006-48-106.60000000000001-108.79999999999995-106.30000000000001-58.900000000000034 0.29999999999999716-107.60000000000002 47.80000000000001-107.70000000000002 105.4-0.20000000000001705 58.400000000000006 49.599999999999994 106.9 109.29999999999998 106.6z m234.8-117.4c47.200000000000045 0.09999999999999432 86-37.099999999999994 86.10000000000002-82.6 0.10000000000002274-45.2-39.10000000000002-83.7-85.5-84-46.5-0.3000000000000007-85.40000000000003 37.7-85.5 83.5-0.20000000000004547 46.400000000000006 37.299999999999955 83.1 84.89999999999998 83.1z m-97.60000000000002 92.00000000000003c48.700000000000045 18.799999999999955 67.5 56.599999999999966 65.80000000000001 106.5-0.5 13.299999999999955 3.1000000000000227 20.099999999999966 17.600000000000023 18.399999999999977 6.399999999999977-0.6999999999999886 13.199999999999989-0.8999999999999773 19.599999999999966 0.10000000000002274 22.300000000000068 3.3999999999999773 29.600000000000023-4.900000000000034 28.300000000000068-27.80000000000001-2.5-44.900000000000034 18.699999999999932-77.60000000000002 59.69999999999993-95 14.899999999999977-6.300000000000011 13.5-12.400000000000034 7.600000000000023-23.200000000000017-7.5-13.900000000000006-9.799999999999955-29.299999999999983-13-44.599999999999994-1.2999999999999545-6.199999999999989 3.8999999999999773-15.699999999999989-7.7000000000000455-17.69999999999999-10.199999999999932-1.8000000000000114-14.199999999999932 5-18.5 12.5-12.299999999999955 21.69999999999999-25.199999999999932 43.19999999999999-40.69999999999993 69.69999999999999-2.800000000000068-18.900000000000006-20.200000000000045-29.80000000000001-3.2000000000000455-44.69999999999999 4-3.5 13.300000000000068-7.900000000000006 5.7000000000000455-15.400000000000006-7.399999999999977-7.300000000000011-14-20.700000000000017-23.600000000000023-19.200000000000017-8.600000000000023 1.3000000000000114-16 12.600000000000023-23.5 20-3.8999999999999773 3.9000000000000057-1 8 2.3000000000000114 10.400000000000006 20.599999999999966 14.599999999999994 8.800000000000011 28.900000000000006-0.6999999999999886 47.00000000000003-15.100000000000023-26.100000000000023-28.5-48.60000000000002-41.30000000000001-71.40000000000003-3.6999999999999886-6.599999999999994-8.100000000000023-9.599999999999994-15.600000000000023-9.099999999999994-8.5 0.700000000000017-7.599999999999966 7.300000000000011-8.300000000000011 12.599999999999994-2.5 19.600000000000023-6.2999999999999545 38.900000000000006-16.19999999999999 56.19999999999999-4.399999999999977 7.800000000000011-2.099999999999966 11.700000000000045 5.699999999999989 14.700000000000045z m-117.5 344.19999999999993c-16.099999999999966-3.8999999999999773-26.099999999999966-16.09999999999991-31.299999999999983-31.899999999999977-1.4000000000000057-4.2999999999999545-0.5-10.899999999999977-7.299999999999983-11-23.80000000000001-0.2999999999999545-47.60000000000002-1.3999999999999773-71.30000000000001 0.10000000000002274-13.599999999999994 0.8999999999999773-8.400000000000006 18-16.19999999999999 25-4.300000000000011 3.7999999999999545-7.5 10.799999999999955-12.100000000000023 11.700000000000045-31.39999999999999 6.2999999999999545-27.69999999999999 29.59999999999991-26.999999999999986 52.09999999999991 0.5 14.800000000000068 0.09999999999999432 29.5 0.09999999999999432 44.30000000000007 0 19.600000000000023 0.6000000000000085 39.299999999999955-0.09999999999999432 59-0.7000000000000028 16.899999999999977-1.5 32.299999999999955 21.299999999999997 35.69999999999993 7.699999999999989 1.2000000000000455 14.699999999999989 8.200000000000045 18 15.800000000000068 6.800000000000011 16.100000000000023 14.599999999999994 27.899999999999977 35.80000000000001 24.5 16.69999999999999-2.6000000000000227 40.79999999999998 6.100000000000023 49.79999999999998-2.6000000000000227 16.900000000000006-16.100000000000023 26.50000000000003-39.799999999999955 52.099999999999994-47.200000000000045 1.6000000000000227-0.5 1.6999999999999886-7.599999999999909 1.6999999999999886-11.599999999999909 0.10000000000002274-48.40000000000009-0.0999999999999659-96.70000000000005 0.20000000000004547-145.10000000000002 0-10.200000000000045-2.1000000000000227-15.899999999999977-13.700000000000045-18.800000000000068z m579.5-0.7999999999999545c-13.100000000000023-3-23.5-12.899999999999977-26.899999999999977-26.399999999999977-3.5-13.700000000000045-10.700000000000045-18-24.200000000000045-16.5-10.5 1.1000000000000227-21.299999999999955 0.8999999999999773-31.899999999999977 0-19-1.5-35.5-0.7000000000000455-40 23.399999999999977-1.2999999999999545 7.2000000000000455-8.100000000000023 14.399999999999977-14.799999999999955 15.299999999999955-30.200000000000045 3.800000000000068-25.700000000000045 25.40000000000009-25.300000000000068 45.5 0.3000000000000682 16.40000000000009 0 32.80000000000007 0 49.200000000000045 0 13.899999999999977 0.20000000000004547 27.799999999999955 0 41.799999999999955-0.39999999999997726 23.600000000000023-5.7999999999999545 49.10000000000002 27.100000000000023 57.90000000000009 5.899999999999977 1.599999999999909 12.300000000000068 9.5 14.399999999999977 15.799999999999955 8.400000000000091 25.799999999999955 28.5 23.299999999999955 47.90000000000009 20.600000000000023 18.09999999999991-2.5 41.89999999999998 7.5 49.39999999999998-21.899999999999977 2.8999999999999773-11.400000000000091 13.699999999999932-18.40000000000009 25.299999999999955-21.300000000000068 11.700000000000045-2.8999999999999773 15-9.5 14.899999999999977-21-0.5-46.69999999999993-0.5-93.39999999999998 0-140.10000000000002 0.10000000000002274-12.199999999999932-2.3999999999999773-19.09999999999991-15.899999999999977-22.299999999999955z m-275.19999999999993 91.39999999999998c0-21.299999999999955-0.40000000000009095-42.60000000000002 0.1999999999999318-63.89999999999998 0.3000000000000682-13.899999999999977 0.3000000000000682-25.100000000000023-17.799999999999955-28.5-12.300000000000068-2.2999999999999545-22.5-12.600000000000023-24.700000000000045-25.100000000000023-3.1000000000000227-17.299999999999955-13.699999999999932-17.299999999999955-26.699999999999932-16.699999999999932-9.800000000000068 0.5-19.700000000000045 0.6999999999999318-29.400000000000034-0.10000000000002274-19.100000000000023-1.5-34.900000000000034-0.39999999999997726-40.19999999999999 23.399999999999977-2.6000000000000227 11.399999999999977-14.5 18.5-25.80000000000001 20.600000000000023-11.5 2.1000000000000227-14.5 7.100000000000023-14.400000000000034 18 0.4000000000000341 48.299999999999955 0.10000000000002274 96.69999999999993 0.20000000000004547 145 0 7.2999999999999545-1.3000000000000114 14.5 9.199999999999989 16.899999999999977 19.19999999999999 4.399999999999977 30.899999999999977 17.399999999999977 37.39999999999998 35.60000000000002 1.6000000000000227 4.600000000000023 4 9.5 9.900000000000034 9.5 22.099999999999966 0 44.19999999999999 0.6999999999999318 66.19999999999993-0.8999999999999773 13.100000000000023-0.900000000000091 10.5-17 18.100000000000023-23.90000000000009 3.6000000000000227-3.2999999999999545 6.2000000000000455-9.399999999999977 10.200000000000045-10.299999999999955 31.799999999999955-7.600000000000023 28.399999999999977-31.899999999999977 27.699999999999932-55.39999999999998-0.5-14.700000000000045-0.09999999999990905-29.5-0.09999999999990905-44.200000000000045z"/>
</svg>
