<svg xmlns="http://www.w3.org/2000/svg" viewBox="0 0 1000 1000" width="1000" height="1000">
<path d="M531.4 0c17.5 3.8 35.39999999999998 4.2 53 7.6 122.20000000000005 23.4 221 84.5 296.1 183.4 46.39999999999998 61.099999999999994 75.79999999999995 130 86.70000000000005 205.7 9.299999999999955 64.69999999999999 8.5 130.00000000000006 6.899999999999977 195.3-1.3999999999999773 56.5-7.899999999999977 112.39999999999998-17.899999999999977 167.89999999999998-4.600000000000023 25.5-25.100000000000023 41-49.700000000000045 36.700000000000045-23.700000000000045-4.2000000000000455-37.700000000000045-26-32.89999999999998-51.200000000000045 18.799999999999955-98.39999999999998 19.799999999999955-197.60000000000002 14.600000000000023-297.09999999999997-2.6000000000000227-49.400000000000034-13.700000000000045-96.69999999999999-35.60000000000002-141-58.80000000000007-119.4-153.70000000000005-194.20000000000002-284.80000000000007-216.70000000000002-152.79999999999995-26.19999999999999-277.69999999999993 27.10000000000001-376.19999999999993 145.1-12.300000000000011 14.700000000000017-26.700000000000017 22-45.400000000000034 17.700000000000017-30.599999999999994-7.099999999999994-41.89999999999999-42.80000000000001-21.799999999999983-68.30000000000001 28.19999999999999-35.79999999999998 60.599999999999994-67.39999999999999 97.6-94.1 68-49 143.5-78.6 226.7-88.6 5.400000000000034-0.7000000000000057 11.100000000000023 0.8999999999999941 16.19999999999999-2.4000000000000057h66.5z m272.20000000000005 523.2c2.699999999999932 111.69999999999993-11.899999999999977 220.89999999999998-49 326.5999999999999-11.200000000000045 32-24.399999999999977 63.10000000000002-39.60000000000002 93.40000000000009-11.299999999999955 22.399999999999977-35.39999999999998 31.09999999999991-56.799999999999955 20.59999999999991s-29.700000000000045-35.09999999999991-18.5-57.5c34.19999999999993-68.29999999999995 57-140.29999999999995 69.5-215.5999999999999 9.399999999999977-57.10000000000002 12.099999999999909-114.70000000000005 10.299999999999955-172.5-1-32.50000000000006 1.3999999999999773-65.50000000000006-6.899999999999977-97.30000000000007-22.600000000000023-85.89999999999998-78.60000000000002-138.89999999999998-164.10000000000002-160.39999999999998-49.39999999999998-12.400000000000006-97.60000000000002-5.900000000000006-143.7 15.800000000000011-23.900000000000034 11.300000000000011-48.5 3.3000000000000114-58.69999999999999-18.900000000000034-10.200000000000045-21.99999999999997-0.9000000000000341-45.099999999999966 22.799999999999955-56.69999999999999 175.89999999999998-86.39999999999999 391.80000000000007 21.100000000000023 428.30000000000007 213.40000000000003 6.699999999999932 36 4.7999999999999545 72.69999999999999 6.399999999999977 109.10000000000002z m-420.6-2c0.8999999999999773-27.300000000000068-2.1999999999999886-54.80000000000007 3.8000000000000114-81.90000000000003 12.800000000000011-58.5 64.69999999999999-98.90000000000003 125-97.19999999999999 59.99999999999994 1.6999999999999886 113.19999999999999 45.799999999999955 120.99999999999994 103.79999999999995 6.100000000000023 45.200000000000045 7.600000000000023 90.89999999999998 5.900000000000091 136.60000000000002-0.900000000000091 23.700000000000045-20.90000000000009 40.89999999999998-44.5 39.799999999999955-22.300000000000068-1-39.80000000000007-19.699999999999932-39.200000000000045-43.09999999999991 1.1000000000000227-38.5-2.2999999999999545-76.90000000000003-4-115.30000000000007-0.8999999999999773-18.799999999999955-18.100000000000023-35.69999999999999-37.60000000000002-37.5-22.19999999999999-2.099999999999966-39.099999999999966 9.5-44.39999999999998 30.900000000000034-1.3999999999999773 5.599999999999966-1.8999999999999773 11.599999999999966-2 17.399999999999977-0.19999999999998863 28.69999999999999 0.19999999999998863 57.400000000000034-0.30000000000001137 86.09999999999997-2.599999999999966 145.60000000000002-69.89999999999998 250.10000000000002-200.7 313.80000000000007-12.599999999999994 6.100000000000023-25.599999999999994 11.299999999999955-38.69999999999999 16.100000000000023-22.80000000000001 8.299999999999955-46-2.5-54.10000000000002-24.600000000000023-8-21.600000000000023 2.200000000000017-45 24.600000000000023-53.5 44-16.800000000000068 84.59999999999997-38.89999999999998 117.59999999999997-73.20000000000005 38.80000000000001-40.299999999999955 58.900000000000034-89 65.5-143.89999999999998 3-24.799999999999955 1.5-49.60000000000002 2.1000000000000227-74.29999999999995z m61.89999999999998 478.79999999999995c-9.299999999999955-0.5-21.899999999999977-7.7999999999999545-29.399999999999977-22.899999999999977-7.899999999999977-15.800000000000068-6.100000000000023-31.100000000000023 4.800000000000011-44.80000000000007 27.19999999999999-33.89999999999998 50.69999999999999-70.19999999999993 69.69999999999999-109.29999999999995 16-32.799999999999955 28.5-66.89999999999998 37.89999999999998-102.20000000000005 5.2000000000000455-19.59999999999991 20.300000000000068-31.799999999999955 39.10000000000002-32.69999999999993 18.399999999999977-0.8999999999999773 35 10.399999999999977 41.5 28.199999999999932 3.2000000000000455 8.900000000000091 2.7999999999999545 17.800000000000068 0.39999999999997726 26.90000000000009-23.5 88-63.89999999999998 167.39999999999998-120.69999999999999 238.5999999999999-9.399999999999977 11.400000000000091-20.599999999999966 18.700000000000045-43.30000000000001 18.200000000000045z m-419.79999999999995-513.5c-1.0000000000000213-66.19999999999999 9.499999999999979-130.3 33.39999999999998-192.10000000000002 7.5-19.5 23-29.19999999999999 43.3-28.099999999999966 17.10000000000001 0.8999999999999773 32.60000000000001 13.899999999999977 37.000000000000014 31.30000000000001 2 8 2.0999999999999943 16.299999999999955-1 24-24.60000000000001 61.299999999999955-30.80000000000001 125.39999999999998-28.700000000000017 190.69999999999993 0.30000000000001137 9.400000000000091 0.10000000000000853 18.90000000000009-0.09999999999999432 28.40000000000009-0.4000000000000057 25-17.200000000000003 42.69999999999993-40.900000000000006 43.09999999999991-23.89999999999999 0.40000000000009095-42.199999999999996-17.399999999999977-42.8-42.5-0.49999999999999645-18.299999999999955-0.19999999999999574-36.49999999999994-0.19999999999999574-54.799999999999955z m253.89999999999998 78.60000000000002c-1.3999999999999773 49.89999999999998-13.5 95.39999999999998-53.5 129.19999999999993-23.30000000000001 19.700000000000045-50.599999999999994 31.700000000000045-79.30000000000001 40.90000000000009-15.199999999999989 4.7999999999999545-30.499999999999986 9.199999999999932-45.89999999999999 13.399999999999977-23.89999999999999 6.600000000000023-46.199999999999996-5.800000000000068-52.8-29.100000000000023-6.299999999999997-22.200000000000045 6.5-44.799999999999955 29.900000000000006-51.700000000000045 20.89999999999999-6.199999999999932 42-11.399999999999977 62.29999999999998-19.399999999999977 39.70000000000002-15.600000000000023 54.400000000000006-36.799999999999955 55.30000000000001-79.29999999999995 0.19999999999998863-7.800000000000068-0.5999999999999943-15.600000000000023 1.4000000000000057-23.300000000000068 5.099999999999994-20.199999999999932 24.69999999999999-34.69999999999993 44.19999999999999-32.39999999999998 22.599999999999994 2.7000000000000455 38.20000000000002 19.600000000000023 38.400000000000006 41.89999999999998v9.800000000000068z m35.60000000000002-313c13.899999999999977 0.29999999999998295 27 8.799999999999955 33.89999999999998 24.69999999999999 7.199999999999989 16.69999999999999 4.399999999999977 32.80000000000001-8.199999999999989 46.19999999999999-20.100000000000023 21.399999999999977-36.10000000000002 45.30000000000001-46.80000000000001 72.69999999999999-6.399999999999977 16.400000000000034-10.800000000000011 33.400000000000034-12.800000000000011 51-2.8000000000000114 23.69999999999999-24.19999999999999 41.19999999999999-46.19999999999999 38-24.599999999999994-3.5-40.400000000000006-24.399999999999977-37.099999999999994-48.80000000000001 8.799999999999983-64.59999999999997 35.69999999999999-120.69999999999999 79.99999999999997-168.39999999999998 10.5-11.199999999999989 19.80000000000001-15.5 37.200000000000045-15.400000000000006z"/>
</svg>
