<svg xmlns="http://www.w3.org/2000/svg" viewBox="0 0 1000 1000" width="1000" height="1000">
<path d="M802.5 272.8c0.7999999999999545 16.69999999999999 0.10000000000002274 33.39999999999998 1.1000000000000227 50 0.6000000000000227 9.5-5.300000000000068 23.099999999999966 4.899999999999977 27.399999999999977 12.399999999999977 5.300000000000011 23.399999999999977-4.699999999999989 32.700000000000045-13.300000000000011 9-8.299999999999955 13.399999999999977-19.5 14.599999999999909-31.099999999999966 6.800000000000068-65-10.199999999999932-121.9-64.59999999999991-161.20000000000002-38.5-27.69999999999999-82.70000000000005-46.599999999999994-128.80000000000007-58.89999999999999-31.100000000000023-8.299999999999997-56.60000000000002 3-78.19999999999993 27.39999999999999 57.59999999999991 21.400000000000006 112.79999999999995 39 163.5 67.70000000000002 35.89999999999998 20.299999999999983 53 51.599999999999994 54.799999999999955 92z m-625.9 76.89999999999998c10.999999999999972 4.400000000000034 17.099999999999966 2.400000000000034 17.19999999999999-11.300000000000011 0.09999999999999432-20.799999999999955 2.1999999999999886-41.5 2.1999999999999886-62.299999999999955-0.09999999999999432-46.50000000000003 21.30000000000001-78.70000000000002 62.19999999999999-99.90000000000003 49.10000000000002-25.399999999999977 101.19999999999999-43.39999999999998 153.10000000000002-61.69999999999999-17.5-26.299999999999997-45.30000000000001-37-77.30000000000001-28.5-37.19999999999999 9.900000000000006-71.69999999999999 26.5-105.30000000000001 45-65.19999999999999 35.80000000000001-98.39999999999998 103.5-86.5 176.10000000000002 3.3000000000000114 20.399999999999977 15 34.799999999999955 34.400000000000006 42.599999999999966z m449.9-171.7c3.2000000000000455-17.69999999999999-7.2000000000000455-28-24.5-31.30000000000001-33.700000000000045-6.399999999999977-67.70000000000005-9.899999999999977-102-9.199999999999989-34.30000000000001-0.9000000000000057-68.19999999999999 2.9000000000000057-102 8.699999999999989-18.899999999999977 3.3000000000000114-29.19999999999999 13.200000000000017-25.899999999999977 32.400000000000006 3.1999999999999886 18.30000000000001 16.5 23.30000000000001 33.799999999999955 20.5 62.30000000000001-9.799999999999983 124.60000000000002-9.900000000000006 186.89999999999998 0.20000000000001705 17.800000000000068 2.8999999999999773 30.5-3.9000000000000057 33.700000000000045-21.30000000000001z m-345.4 80.39999999999998c-4.5 2.2000000000000455-7.900000000000034 4.7000000000000455-6.900000000000034 11.200000000000045 6 40.69999999999999 11.400000000000034 43.89999999999998 50.10000000000002 29.399999999999977 10.099999999999966-3.8000000000000114 20.5-6.899999999999977 30.19999999999999-11.399999999999977 27-12.400000000000034 49.10000000000002-30.400000000000034 65.5-62.50000000000003-20 3.0999999999999943-35.60000000000002 3-49.80000000000001-5.599999999999994-2.3999999999999773-1.4000000000000057-7.599999999999966-1.9000000000000057-9.099999999999966-0.4000000000000057-22.400000000000034 21.900000000000006-53.400000000000034 26.200000000000017-80 39.29999999999998z m437.69999999999993 19.900000000000034c9.600000000000023-10.800000000000011 8-16.30000000000001-6.2999999999999545-22.19999999999999-25.200000000000045-10.300000000000011-53-15.500000000000028-73.5-35.50000000000003-4.5-4.400000000000006-9-2.799999999999983-13.600000000000023-0.09999999999999432-13.5 7.900000000000006-28.299999999999955 7.699999999999989-47.60000000000002 4 21.700000000000045 43.19999999999999 55.30000000000007 61.19999999999999 93.30000000000007 73.80000000000001 11.799999999999955 3.8999999999999773 23.600000000000023 13.899999999999977 34.5 12.699999999999989 16.199999999999932-1.6999999999999886 2.5-22.100000000000023 12.299999999999955-30.399999999999977 0.5-0.5 0.39999999999997726-1.7000000000000455 0.8999999999999773-2.3000000000000114z m178.60000000000002 200.39999999999998c-14.399999999999977-10-21.100000000000023-19.599999999999966-19.899999999999977-38.39999999999998 0.7000000000000455-10.699999999999989-2.2999999999999545-19.5-7.100000000000023-27.30000000000001v-0.39999999999997726h-0.2999999999999545c-7.399999999999977-11.800000000000011-19.600000000000023-19.900000000000034-34.700000000000045-20.200000000000045-53.5-1.5-53.5-1.5-54.19999999999993-55.39999999999998 0-15.100000000000023 1.099999999999909-30.19999999999999-0.40000000000009095-45-1.099999999999909-13.300000000000011-9.599999999999909-21-24-20.30000000000001-12.899999999999977 1.1000000000000227-19.09999999999991 8.900000000000034-19.899999999999977 21.400000000000034l-0.2999999999999545 45c-0.39999999999997726 55-0.39999999999997726 55-55 54.299999999999955-21.800000000000068 0-34.30000000000007 10.600000000000023-38.39999999999998 31.30000000000001-2.2000000000000455 11.400000000000034-5.5 23.19999999999999-4 34.69999999999999 2.199999999999932 19.200000000000045-6.7000000000000455 29.5-21 40.900000000000034-110.30000000000007 87.80000000000001-114.40000000000003 249.40000000000003-10.400000000000091 344.2 28.40000000000009 26.100000000000023 67.20000000000005 36.5 93.70000000000005 64.89999999999998 3.7000000000000455 3.7000000000000455 11.100000000000023 4 16.600000000000023 4.800000000000068 110.29999999999995 19.199999999999932 220.60000000000002-42.10000000000002 263.69999999999993-145.70000000000005 42.799999999999955-103.70000000000005 8.200000000000045-224.29999999999995-84.39999999999998-288.8z m-140.89999999999998-42.80000000000001c0-4.5 3.2999999999999545-7.399999999999977 7.2999999999999545-7.399999999999977h38.40000000000009c4.099999999999909 0 8.899999999999977-3 12.199999999999932-5.899999999999977 4.399999999999977-4.100000000000023 9.899999999999977-6.600000000000023 16.600000000000023-6.600000000000023 14.399999999999977 0 26.200000000000045 11.800000000000011 26.200000000000045 26.100000000000023s-11.800000000000068 26.19999999999999-26.200000000000045 26.19999999999999c-6.7000000000000455 0-12.200000000000045-2.5-16.600000000000023-6.600000000000023-3.2999999999999545-3-8.100000000000023-5.5-12.199999999999932-5.5h-38.40000000000009c-4 0-7.2999999999999545-3.3999999999999773-7.2999999999999545-7.399999999999977v-12.900000000000034z m-42.10000000000002 453.30000000000007c-9.199999999999932 0-16.899999999999977-7.800000000000068-16.899999999999977-17s7.7000000000000455-16.90000000000009 16.899999999999977-16.90000000000009c9.200000000000045 0 17 7.7000000000000455 17 16.90000000000009s-7.7999999999999545 17-17 17z m26.200000000000045-51.60000000000002c-94.80000000000007 0-171.5-76.80000000000007-171.5-171.60000000000002 0-94.39999999999998 76.69999999999993-171.10000000000002 171.5-171.10000000000002s171.5 76.70000000000005 171.5 171.10000000000002c0 94.79999999999995-76.70000000000005 171.60000000000002-171.5 171.60000000000002z m-358.70000000000005-338.3c-14.399999999999977-11.400000000000034-23.299999999999955-21.69999999999999-21.099999999999966-40.900000000000034 1.5-11.5-1.8000000000000114-23.299999999999955-4-34.69999999999999-4.100000000000023-20.69999999999999-16.600000000000023-31.30000000000001-38.400000000000034-31.30000000000001-54.599999999999966 0.7000000000000455-54.599999999999966 0.7000000000000455-55-54.299999999999955l-0.2999999999999545-45c-0.8000000000000114-12.5-7-20.30000000000001-19.900000000000034-21.400000000000034-14.399999999999977-0.6999999999999886-22.899999999999977 7-24 20.30000000000001-1.5 14.800000000000011-0.39999999999997726 29.899999999999977-0.39999999999997726 45-0.700000000000017 53.89999999999998-0.700000000000017 53.89999999999998-54.20000000000002 55.30000000000001-15.099999999999994 0.39999999999997726-27.299999999999983 8.5-34.69999999999999 20.30000000000001h-0.30000000000001137v0.39999999999997726c-4.799999999999997 7.699999999999989-7.799999999999997 16.600000000000023-7.099999999999994 27.30000000000001 1.2000000000000028 18.80000000000001-5.5 28.399999999999977-19.900000000000006 38.39999999999998-92.6 64.50000000000006-127.19999999999999 185.09999999999997-84.39999999999999 288.8 43.099999999999994 103.60000000000002 153.39999999999998 164.79999999999995 263.7 145.70000000000005 5.5-0.8000000000000682 12.900000000000034-1.1000000000000227 16.600000000000023-4.800000000000068 26.600000000000023-28.399999999999977 65.30000000000001-38.799999999999955 93.69999999999999-64.89999999999998 104-94.79999999999995 99.90000000000003-256.4-10.300000000000011-344.2z m-212.89999999999998-83.30000000000001c6.699999999999989 0 12.199999999999989 2.5 16.599999999999994 6.600000000000023 3.3000000000000114 2.8999999999999773 8.099999999999994 5.899999999999977 12.200000000000017 5.899999999999977h38.39999999999998c4 0 7.300000000000011 2.8999999999999773 7.300000000000011 7.399999999999977v12.900000000000034c0 4-3.3000000000000114 7.399999999999977-7.300000000000011 7.399999999999977h-38.39999999999998c-4.100000000000023 0-8.900000000000006 2.5-12.200000000000017 5.5-4.400000000000006 4.100000000000023-9.900000000000006 6.600000000000023-16.599999999999994 6.600000000000023-14.400000000000006 0-26.19999999999999-11.800000000000011-26.19999999999999-26.19999999999999s11.799999999999983-26.100000000000023 26.19999999999999-26.100000000000023z m116.60000000000002 473.20000000000005c-9.200000000000045 0-17-7.800000000000068-17-17s7.7999999999999545-16.90000000000009 17-16.90000000000009c9.199999999999989 0 16.899999999999977 7.7000000000000455 16.899999999999977 16.90000000000009s-7.699999999999989 17-16.899999999999977 17z m-26.200000000000045-51.60000000000002c-94.79999999999998 0-171.49999999999997-76.80000000000007-171.49999999999997-171.60000000000002 0-94.39999999999998 76.69999999999999-171.10000000000002 171.49999999999997-171.10000000000002s171.5 76.70000000000005 171.5 171.10000000000002c0 94.79999999999995-76.69999999999999 171.60000000000002-171.5 171.60000000000002z"/>
</svg>
