<svg xmlns="http://www.w3.org/2000/svg" viewBox="0 0 1000 1000" width="1000" height="1000">
<path d="M876.1 263.6c-63.10000000000002-33.70000000000002-142.60000000000002-36.900000000000034-187-106.10000000000002-5.399999999999977-8.5-34.30000000000007-11-46.200000000000045-4.699999999999989-38.60000000000002 20.399999999999977-60.299999999999955-4.700000000000017-86.89999999999998-23.5-89.5-63.000000000000014-145.60000000000002-57.10000000000001-237.89999999999998-2.000000000000014-103.30000000000001 61.7-98.60000000000002 203.7-205.10000000000002 260-4.799999999999997 2.5-6.700000000000003 15.599999999999966-5.599999999999994 23.19999999999999 7.299999999999997 49.89999999999998-23.80000000000001 79.39999999999998-52.900000000000006 113.5-77.8 91.60000000000002-70.9 226.70000000000005 11.700000000000003 315.5 79.2 85.10000000000002 212.7 101.89999999999998 308.1 38.89999999999998 101.69999999999999-67.19999999999993 140.59999999999997-196.60000000000002 88-304.4-31.19999999999999-64.10000000000002-97.69999999999999-111.30000000000001-87.60000000000002-195.60000000000002 2.1999999999999886-17.899999999999977-23-29-42.19999999999999-33.89999999999998-43.60000000000002-11.199999999999989-41.69999999999999-46.5-25.19999999999999-70.39999999999998 22.899999999999977-33.00000000000003 54.5-63.400000000000034 88.80000000000001-84.10000000000002 27.19999999999999-16.400000000000006 61.599999999999966-11.400000000000006 92.09999999999997 11.099999999999994 35.30000000000001 26 12.600000000000023 42.20000000000002-1.5 65.70000000000002-13 21.69999999999999-11.800000000000011 48.80000000000001 5.600000000000023 69.69999999999999 26.999999999999943 32.30000000000001 33.900000000000034 67.80000000000001 23.900000000000034 101.89999999999998-7.100000000000023 140 65.79999999999995 244.70000000000005 184.5999999999999 271.4 119.60000000000002 26.90000000000009 243.10000000000002-40.5 285-155.39999999999998 39.5-108.69999999999999-5.399999999999977-235.09999999999997-109.69999999999993-290.79999999999995z m-632.5 132.79999999999995c19.299999999999955 0 35 15.700000000000045 35 35s-15.700000000000045 35.10000000000002-35.00000000000003 35.10000000000002-35.099999999999994-15.699999999999989-35.099999999999994-35.10000000000002c0-19.299999999999955 15.699999999999989-35 35.099999999999994-35z m162.39999999999998 274.70000000000005c1.8000000000000114 93.5-72.89999999999998 169.89999999999998-165.2 169-89.30000000000001-0.8999999999999773-160.70000000000002-74.10000000000002-160.4-164.70000000000005 0.29999999999999716-92.79999999999995 68.29999999999998-161.89999999999998 160.29999999999998-162.60000000000002 92.10000000000002-0.6999999999999318 163.60000000000002 67.80000000000007 165.3 158.30000000000007z m167.79999999999995-400.6c0-19.400000000000006 15.700000000000045-35.099999999999994 35.10000000000002-35.099999999999994s35.10000000000002 15.699999999999989 35.10000000000002 35.099999999999994c0 19.30000000000001-15.700000000000045 35-35.10000000000002 35s-35.10000000000002-15.699999999999989-35.10000000000002-35z m185.20000000000005 364.20000000000005c-93.39999999999998 1.1999999999999318-163-65.5-164.60000000000002-157.80000000000007-1.6000000000000227-93.29999999999995 64.89999999999998-164.59999999999997 156.10000000000002-167.2 92.60000000000002-2.6999999999999886 172 72.60000000000002 172.20000000000005 163.2 0.09999999999990905 87.60000000000002-73.80000000000007 160.60000000000002-163.70000000000005 161.80000000000007z"/>
</svg>
