<svg xmlns="http://www.w3.org/2000/svg" viewBox="0 0 1000 1000" width="1000" height="1000">
<path d="M967.7 933.3h-23.300000000000068v-877.6999999999999h23.300000000000068c17.799999999999955-2.1316282072803006e-14 32.299999999999955-10.000000000000021 32.299999999999955-27.800000000000022s-14.5-27.8-32.299999999999955-27.8h-935.4000000000001c-17.799999999999955 0-32.299999999999955 10-32.299999999999955 27.8s14.5 27.8 32.3 27.8h12.200000000000003v877.8h-12.200000000000003c-17.799999999999997-0.10000000000002274-32.3 15.5-32.3 33.30000000000007 0 17.799999999999955 14.5 33.299999999999955 32.3 33.299999999999955h935.5c17.800000000000068 0 32.30000000000007-15.5 32.30000000000007-33.299999999999955-0.10000000000002274-17.800000000000068-14.600000000000023-33.40000000000009-32.39999999999998-33.40000000000009z m-178.80000000000007-877.6999999999999h88.89999999999998v293h-88.89999999999998v-293z m-566.7 877.6999999999999h-99.99999999999993v-877.6999999999999h99.99999999999999v877.6999999999999z m155.60000000000008 0h-77.80000000000001v-877.6999999999999h77.80000000000001v877.6999999999999z m166.59999999999997 0h-88.89999999999998v-877.6999999999999h88.89999999999998v877.6999999999999z m166.70000000000005 0h-77.80000000000007v-877.6999999999999h77.80000000000007v877.6999999999999z m166.69999999999993 0h-88.89999999999998v-281.79999999999995h88.89999999999998v281.79999999999995z m0-358.29999999999995h-88.89999999999998v-1l29.899999999999977-70.10000000000002c-15.199999999999932-6-25.899999999999977-20.69999999999999-25.899999999999977-38 0-22.599999999999966 18.300000000000068-40.89999999999998 40.89999999999998-40.89999999999998 22.600000000000023 0 40.90000000000009 18.30000000000001 40.90000000000009 40.89999999999998 0 16.400000000000034-9.700000000000045 30.600000000000023-23.700000000000045 37.10000000000002l0.39999999999997726-0.19999999999998863 26.399999999999977 61.900000000000034 4.400000000000091 10.299999999999955h-4.400000000000091z"/>
</svg>
