<svg xmlns="http://www.w3.org/2000/svg" viewBox="0 0 1000 1000" width="1000" height="1000">
<path d="M898.6 1000c-1.7000000000000455-11.600000000000023-12-16.799999999999955-19.100000000000023-24-52.799999999999955-53.200000000000045-105.89999999999998-106-158.79999999999995-159-8.300000000000068-8.299999999999955-22.800000000000068-15.799999999999955-6-29.5 6.7999999999999545-5.600000000000023 3.699999999999932-10.799999999999955-1.2000000000000455-15.700000000000045-1.5-1.5-3-3-4.399999999999977-4.599999999999909-45.30000000000007-51.200000000000045-45.200000000000045-51.200000000000045-103.30000000000007-16.800000000000068-136.09999999999997 80.80000000000007-314.69999999999993 72.30000000000007-441.19999999999993-21.100000000000023-134.50000000000003-99.19999999999993-192.3-262.49999999999994-152.00000000000003-428.99999999999994 36.10000000000001-149.10000000000002 167.9-269.8 321.70000000000005-294.7 225.4999999999999-36.40000000000002 429.4999999999999 107.19999999999997 466.69999999999993 332.4 17.5 105.89999999999998-4.899999999999977 206-68.39999999999998 293.9-15.5 21.5-13.899999999999977 33.200000000000045 5.2999999999999545 48.10000000000002 11.600000000000023 9 21 20.799999999999955 31.700000000000045 31 4.100000000000023 3.8999999999999773 9.299999999999955 12.200000000000045 15.199999999999932 5.600000000000023 18.5-20.899999999999977 26.700000000000045-0.8999999999999773 36.5 8.699999999999932 51.80000000000007 51.200000000000045 102.90000000000009 103 154.60000000000002 154.20000000000005 7.2000000000000455 7.2000000000000455 12.399999999999977 17.399999999999977 24 19.200000000000045v12.699999999999932c-33.69999999999993 25.399999999999977-63.19999999999993 54.89999999999998-88.60000000000002 88.60000000000002h-12.699999999999932z m-843.6-597.9c-0.5 189.69999999999993 150 346 336.3 349.4 200.2 3.6000000000000227 360.7-152.20000000000005 358.99999999999994-356.6-1.599999999999909-191.29999999999998-156.19999999999993-339.4-344.59999999999997-340.09999999999997-194.79999999999998-0.8000000000000114-350.2 152.39999999999998-350.7 347.3z m360.5 94.5c-20.19999999999999-4.2000000000000455-47.89999999999998 14.199999999999989-61.5-3.5-10.600000000000023-13.700000000000045-3.5-40.5-5.800000000000011-61.30000000000001-3.599999999999966-32.69999999999999-17.099999999999966-62.69999999999999-27.899999999999977-93.40000000000003-23.30000000000001-66.59999999999997-5.699999999999989-127.09999999999997 30.80000000000001-182.7 20.5-31.19999999999999 52.89999999999998-32.599999999999994 80.89999999999998-3 56.39999999999998 59.60000000000002 82.79999999999995 131.40000000000003 69.89999999999998 213.90000000000003-6.199999999999989 39.39999999999998-20.399999999999977 77.59999999999997-20.799999999999955 117.89999999999998-0.10000000000002274 13-5.100000000000023 16.5-17 15.300000000000011-15.700000000000045-1.5-31.5-2.1000000000000227-48.60000000000002-3.1999999999999886z m65.69999999999999 72.69999999999993c0 18.100000000000023-0.8000000000000114 39.80000000000007-11.699999999999989 60.10000000000002-14.199999999999989 26.700000000000045-38 35.30000000000007-65.5 34.10000000000002-29.600000000000023-1.3999999999999773-51.5-15.899999999999977-62-45-10.600000000000023-29.100000000000023-3.1999999999999886-58 1.3000000000000114-86.89999999999998 1.8999999999999773-11.600000000000023 10.599999999999966-14.5 20.69999999999999-15 23-1 46.10000000000002-3.5 69-2.7000000000000455 49.39999999999998 1.7000000000000455 49.39999999999998 2.3999999999999773 48.19999999999999 55.39999999999998z"/>
</svg>
