<svg xmlns="http://www.w3.org/2000/svg" viewBox="0 0 1000 1000" width="1000" height="1000">
<path d="M976.4 609.8c-5.899999999999977 0.6000000000000227-10-0.599999999999909-13.199999999999932-6.7999999999999545-41.60000000000002-81.10000000000002-83.5-162-125.20000000000005-242.89999999999998-1-1.8000000000000114-1.7000000000000455-3.8000000000000114-2.6000000000000227-6.100000000000023 17.899999999999977-3.3000000000000114 34.60000000000002-8.800000000000011 50.700000000000045-16 21.799999999999955-9.600000000000023 31-32.19999999999999 22.100000000000023-53.39999999999998-9-21.5-32.5-31.700000000000017-54.40000000000009-21.600000000000023-37.69999999999993 17.30000000000001-74.19999999999993 17.399999999999977-110.29999999999995-3.8999999999999773-2.3999999999999773-1.400000000000034-5-2.400000000000034-7.5-3.6000000000000227-54.700000000000045-27.599999999999994-113.29999999999995-40-174.10000000000002-43.69999999999999-11.399999999999977-0.700000000000017-22.899999999999977-1.3000000000000114-34.39999999999998-2 30.200000000000045-11.200000000000017 51.799999999999955-40 51.799999999999955-74 0-43.80000000000001-35.5-79.30000000000001-79.29999999999995-79.30000000000001s-79.30000000000001 35.5-79.30000000000001 79.30000000000001c0 33.89999999999998 21.5 62.599999999999994 51.5 73.89999999999998-9.099999999999966 0.6000000000000227-18.099999999999966 1.200000000000017-27.19999999999999 1.700000000000017-69.19999999999999 3.1999999999999886-135 18.799999999999983-196.4 51.400000000000006-33.19999999999999 17.69999999999999-66.29999999999998 16.69999999999999-99.9 1.3000000000000114-22.799999999999983-10.400000000000034-46.599999999999994-2-56.39999999999999 19.19999999999999-9.799999999999997 21.099999999999966-0.5 44.19999999999999 22.299999999999997 55.30000000000001 15.700000000000017 7.5 32.30000000000001 12.299999999999955 50.400000000000006 15.399999999999977-2.0999999999999943 4.199999999999989-4 7.800000000000011-5.800000000000011 11.5-40.099999999999994 77.60000000000002-80.19999999999999 155.10000000000002-119.89999999999999 232.89999999999998-4.299999999999997 8.399999999999977-8.999999999999996 13.200000000000045-18.799999999999997 11.399999999999977-9.4-1.7999999999999545-16 2.300000000000068-20.5 10.300000000000068v6.2999999999999545c16.1 56.60000000000002 58.3 85.89999999999998 110.6 102.60000000000002 70.4 22.600000000000023 140.1 19.600000000000023 207.70000000000002-11.399999999999977 25.30000000000001-11.600000000000023 47-28.100000000000023 63.30000000000001-51.10000000000002 8.299999999999955-11.700000000000045 14.299999999999955-24.5 16.899999999999977-38.700000000000045 2-10.699999999999932-3.5-19.09999999999991-14-17.699999999999932-15 2-20.69999999999999-5.399999999999977-26.80000000000001-17.399999999999977-38.30000000000001-75.30000000000007-77.5-150.20000000000005-116.39999999999998-225.30000000000007-6.5-12.699999999999989-6.5-12.399999999999977 7.399999999999977-14.299999999999955 29.30000000000001-4 57.30000000000001-13 84.80000000000001-23.600000000000023 28-10.899999999999977 56-22.30000000000001 86.39999999999998-25.30000000000001 13.5-1.3999999999999773 13.5-1.8000000000000114 13.5 12.199999999999989 0 160.60000000000002-0.0999999999999659 321.30000000000007 0.10000000000002274 482 0 7.5-0.5 11-9.800000000000011 12.100000000000023-29.599999999999966 3.3999999999999773-53.599999999999966 28.5-56.5 58.10000000000002-0.8000000000000114 7.600000000000023-3.8000000000000114 8-9.599999999999966 7.899999999999977-18.80000000000001-0.20000000000004547-37.5-0.10000000000002274-56.200000000000045-0.10000000000002274-39.599999999999966 0-67.19999999999999 27-68.09999999999997 66.60000000000002h533.4000000000001c-0.900000000000091-36.799999999999955-29.90000000000009-65.5-67.70000000000005-66.5-19.100000000000023-0.39999999999997726-38.200000000000045-0.20000000000004547-57.299999999999955 0-5.7000000000000455 0.10000000000002274-8.100000000000023-0.7000000000000455-8.800000000000068-7.600000000000023-3.199999999999932-30.699999999999932-27.799999999999955-55.39999999999998-58.299999999999955-58.799999999999955-6.100000000000023-0.6000000000000227-8.100000000000023-1.8000000000000682-8.100000000000023-8.300000000000068 0.20000000000004547-163.5 0.20000000000004547-326.99999999999994 0-490.49999999999994-0.10000000000002274-7.800000000000011 3.2000000000000455-8.199999999999989 9.200000000000045-7.699999999999989 26.199999999999932 2.2999999999999545 50.799999999999955 10.299999999999955 75.09999999999991 19.799999999999955 34.80000000000007 13.600000000000023 69.80000000000007 27 107.5 30.400000000000034 10.100000000000023 0.8999999999999773 4 6.399999999999977 2.300000000000068 9.800000000000011-28.100000000000023 54.5-56.39999999999998 108.89999999999998-84.60000000000002 163.39999999999998-13 25.200000000000045-26.299999999999955 50.299999999999955-39 75.70000000000005-2.7999999999999545 5.399999999999977-6 7.899999999999977-12.100000000000023 7.099999999999909-3-0.39999999999997726-6.199999999999932-0.1999999999999318-9.299999999999955 0-10.800000000000068 0.40000000000009095-16.200000000000045 7.300000000000068-14.100000000000023 17.90000000000009 5.899999999999977 29.5 23.399999999999977 51.39999999999998 46.5 69.19999999999993 31.799999999999955 24.600000000000023 68.60000000000002 37.5 107.89999999999998 43.10000000000002 56.10000000000002 7.899999999999977 110.70000000000005 2.2999999999999545 162.39999999999998-22.399999999999977 28-13.300000000000068 51.90000000000009-31.800000000000068 68.40000000000009-58.80000000000007 6.199999999999932-10.099999999999909 9.099999999999909-21.5 13.299999999999955-32.39999999999998v-6.2999999999999545c-5-9.899999999999977-13.799999999999955-11.399999999999977-23.600000000000023-10.300000000000068z m-677-0.8999999999999773h-198.79999999999998c33.20000000000002-62.10000000000002 65.70000000000002-123.09999999999997 99.4-186.29999999999995 33.5 62.89999999999998 66.10000000000002 124 99.39999999999998 186.29999999999995z m401.1 0.3000000000000682c33.200000000000045-62.30000000000007 65.79999999999995-123.50000000000006 99.5-186.60000000000002 33.60000000000002 63.099999999999966 66.29999999999995 124.29999999999995 99.5 186.60000000000002h-199z"/>
</svg>
