<svg xmlns="http://www.w3.org/2000/svg" viewBox="0 0 1000 1000" width="1000" height="1000">
<path d="M993.8 616.2c-4.7999999999999545-34.60000000000002-23.799999999999955-60-56.59999999999991-73-28.5-11.200000000000045-57.60000000000002-21.300000000000068-86.90000000000009-30.5-27.5-8.800000000000068-56.39999999999998-13.600000000000023-83.09999999999991-24.100000000000023-52.40000000000009-20.700000000000045-103.5-44.80000000000001-155.60000000000002-66.40000000000003-35-14.5-70.30000000000007-28.399999999999977-108.90000000000003-30.19999999999999-8.699999999999989-0.39999999999997726-17.30000000000001-0.39999999999997726-26-0.6000000000000227v-0.19999999999998863c0-3.599999999999966-2.8000000000000114-6.399999999999977-6.399999999999977-6.399999999999977h-80.5c-3.5 0-6.400000000000034 2.8000000000000114-6.400000000000034 6.399999999999977v1c-30.799999999999955 1.400000000000034-61.599999999999966 3.6000000000000227-92.29999999999995 6.900000000000034-15 1.599999999999966-30.900000000000034 3.599999999999966-44.30000000000001 10-72.70000000000002 34.5-144.8 70.39999999999998-217.3 105.69999999999993-7.100000000000001 3.400000000000091-12 7-12.5 16.100000000000023-0.5 9.899999999999977-3.5 19.700000000000045-5 29.600000000000023-4.9 34.10000000000002-14.9 67.5-11.2 102.60000000000002 1.4999999999999991 13.799999999999955 1.9999999999999991 27.699999999999932 2.999999999999999 41.19999999999993h55.6c0.8999999999999986-12 1.3000000000000043-23.5 2.8999999999999986-34.799999999999955 5.900000000000006-42.60000000000002 42.3-76.29999999999995 82.7-79.20000000000005 54.80000000000001-3.7999999999999545 91.19999999999999 34.40000000000009 98.4 69.80000000000007 2.9000000000000057 14.399999999999977 3.799999999999983 29.199999999999932 5.599999999999994 43.89999999999998h486.79999999999995c0-15-2-29.399999999999977 0.40000000000009095-43.10000000000002 8.5-49 49.89999999999998-77.89999999999998 101.29999999999995-72.39999999999998 46.700000000000045 5 81.60000000000002 42.5 83 88.70000000000005 0.20000000000004547 8.5 1.2999999999999545 16.899999999999977 2.1000000000000227 27.699999999999932 23.699999999999932-1.1000000000000227 46.19999999999993-2 68.69999999999993-3.199999999999932 6-0.3000000000000682 9.200000000000045-3.400000000000091 8.600000000000023-10.200000000000045-2.1000000000000227-25.100000000000023-2.699999999999932-50.39999999999998-6.100000000000023-75.29999999999995z m-735-105.40000000000003c11.900000000000034-24 24.700000000000045-45.19999999999999 42.10000000000002-63.30000000000001 11-11.5 25.600000000000023-14.800000000000011 40.5-16.19999999999999 30.200000000000045-2.900000000000034 60.400000000000034-5.100000000000023 91.80000000000001-7.600000000000023 1.400000000000034 34.400000000000034 2.8000000000000114 66.10000000000002 4.199999999999989 99.19999999999999-59.89999999999998-4.100000000000023-118.59999999999997-8-178.59999999999997-12.099999999999966z m464.80000000000007 23.499999999999943c-75.10000000000002-2.599999999999909-150.20000000000005-5.699999999999932-225.20000000000005-8.799999999999955-9.299999999999955-0.2999999999999545-18.5-1.2000000000000455-29-1.8999999999999773-1.8999999999999773-32.30000000000001-3.7999999999999545-64.5-5.7999999999999545-98 32-1.5 61.60000000000002 3.1999999999999886 90.79999999999995 10.599999999999966 61 15.400000000000034 117.60000000000002 41.30000000000001 171.39999999999998 73.30000000000001 1.6000000000000227 1 3.5 1.8000000000000114 4.7000000000000455 3.1000000000000227 5.100000000000023 5.7999999999999545 10.100000000000023 11.699999999999932 15.100000000000023 17.5-7.300000000000068 1.5-14.700000000000045 4.5-22 4.199999999999932z m103.69999999999993 71.80000000000007c-42.19999999999993 0-76.59999999999991 34.299999999999955-76.69999999999993 76.39999999999998 0 42.10000000000002 34.10000000000002 76.60000000000002 76.29999999999995 76.89999999999998 42.10000000000002 0.39999999999997726 78.10000000000002-35.39999999999998 77.60000000000002-77.10000000000002-0.5-42.09999999999991-35-76.19999999999993-77.20000000000005-76.19999999999993z m0.5 108.39999999999998c-17.699999999999932 0.2999999999999545-32.19999999999993-13.600000000000023-32.5-31.100000000000023-0.39999999999997726-18.199999999999932 13.5-32.69999999999993 31.800000000000068-32.89999999999998 18-0.10000000000002274 32.69999999999993 14.399999999999977 32.69999999999993 32.200000000000045-0.09999999999990905 17.199999999999932-14.599999999999909 31.59999999999991-32 31.799999999999955z m-673.1999999999999-108.39999999999998c-42.90000000000002-0.3000000000000682-77.40000000000002 33.69999999999993-77.70000000000002 76.5-0.20000000000000284 41.799999999999955 34.19999999999999 76.5 76.5 76.79999999999995 42 0.39999999999997726 76.6-33.89999999999998 76.9-76.10000000000002 0.19999999999998863-42.5-33.400000000000006-76.79999999999995-75.70000000000002-77.19999999999993z m-0.9000000000000341 108.5c-17.69999999999999-0.10000000000002274-31.999999999999986-14.200000000000045-32.099999999999994-31.600000000000023-0.19999999999998863-18.299999999999955 13.900000000000006-32.5 32.099999999999994-32.39999999999998 18.600000000000023 0.10000000000002274 32.10000000000002 13.899999999999977 31.80000000000001 32.5-0.19999999999998863 18-13.900000000000006 31.5-31.80000000000001 31.5z m238.8-333.1h75.10000000000002c0-11.899999999999977 0.2999999999999545-23.30000000000001-0.10000000000002274-34.69999999999999-0.30000000000001137-8.900000000000034-4-16.5-10.5-23-11.5-11.300000000000011-24.69999999999999-14.600000000000023-39.60000000000002-9.300000000000011-15.099999999999966 5.399999999999977-23.5 16.80000000000001-24.69999999999999 32.89999999999998-0.5999999999999659 7.2000000000000455-0.0999999999999659 14.5-0.19999999999998863 21.80000000000001 0 4.100000000000023 0 8.199999999999989 0 12.300000000000011z m69.89999999999998-36.69999999999999c1 10.699999999999989 0.20000000000004547 21.399999999999977 0.20000000000004547 32.5h-11.900000000000034c0-8.199999999999989-0.0999999999999659-16.30000000000001 0-24.400000000000034 0.19999999999998863-16.799999999999955-6.800000000000011-28.899999999999977-22.80000000000001-35.299999999999955-0.39999999999997726-0.10000000000002274-0.6999999999999886-0.6000000000000227-1.1999999999999886-1 17-2.1000000000000227 34.30000000000001 11.199999999999989 35.69999999999999 28.19999999999999z m23.400000000000034-6.600000000000023c0.19999999999998863 3.8000000000000114 2.8000000000000114 4.900000000000034 6.199999999999989 4.900000000000034 4.800000000000011 0 9.699999999999989 0 14.5 0 5.199999999999989 0 10.399999999999977 0 15.600000000000023 0 3.3999999999999773-0.10000000000002274 5.899999999999977-1.400000000000034 5.7999999999999545-5.2000000000000455 0-3.599999999999966-2.5-4.699999999999989-5.600000000000023-4.699999999999989-10.199999999999932 0-20.499999999999943 0-30.699999999999932 0-3.400000000000034 0-5.900000000000034 1.1999999999999886-5.800000000000011 5z m-7.900000000000034-40.099999999999966c3.3000000000000114-3.5 6.7000000000000455-7 10-10.5 3.6000000000000227-3.8000000000000114 7.2000000000000455-7.5 10.800000000000011-11.300000000000011 2.3000000000000114-2.5 3-5.199999999999989 0.19999999999998863-7.699999999999989-2.599999999999966-2.5-5.099999999999966-1.400000000000034-7.199999999999989 0.7999999999999545-7.099999999999966 7.400000000000034-14.199999999999989 14.800000000000011-21.19999999999999 22.200000000000045-2.3999999999999773 2.3999999999999773-3.3000000000000114 5.099999999999966-0.39999999999997726 7.699999999999989 2.7999999999999545 2.3999999999999773 5.5 1.3000000000000114 7.7999999999999545-1.1999999999999886z m-139.89999999999998 45c5.199999999999989 0 10.399999999999977 0 15.600000000000023 0 4.899999999999977 0 9.699999999999989 0 14.599999999999966 0 3.3000000000000114 0 5.900000000000034-1.1000000000000227 6.100000000000023-4.900000000000034 0.19999999999998863-3.8000000000000114-2.400000000000034-5-5.800000000000011-5-10.199999999999989 0-20.399999999999977 0-30.69999999999999 0-3.1000000000000227 0-5.600000000000023 1.1000000000000227-5.600000000000023 4.699999999999989 0 3.8000000000000114 2.400000000000034 5.100000000000023 5.800000000000011 5.2000000000000455z m34.19999999999999-55.5c3.400000000000034 3.5 6.699999999999989 7 10.100000000000023 10.5 2.3000000000000114 2.3999999999999773 4.899999999999977 3.599999999999966 7.699999999999989 1.099999999999966 2.8999999999999773-2.5 2-5.199999999999989-0.30000000000001137-7.599999999999966-7.099999999999966-7.400000000000034-14.099999999999966-14.800000000000011-21.19999999999999-22.200000000000045-2.1999999999999886-2.1999999999999886-4.699999999999989-3.2999999999999545-7.300000000000011-0.7999999999999545-2.6999999999999886 2.5-2.099999999999966 5.199999999999989 0.30000000000001137 7.699999999999989 3.5 3.8000000000000114 7.100000000000023 7.5 10.699999999999989 11.300000000000011z m57.60000000000002-5c3.8000000000000114 0.19999999999998863 5.099999999999966-2.400000000000034 5.099999999999966-5.800000000000011 0-10.199999999999989 0.10000000000002274-20.400000000000034 0.10000000000002274-30.600000000000023 0-3.1999999999999886-1.1000000000000227-5.599999999999994-4.699999999999989-5.699999999999989-3.6999999999999886-0.09999999999999432-5.100000000000023 2.4000000000000057-5.100000000000023 5.800000000000011-0.0999999999999659 5.199999999999989-0.0999999999999659 10.399999999999977-0.0999999999999659 15.599999999999966-0.10000000000002274 4.800000000000011-0.10000000000002274 9.700000000000045-0.10000000000002274 14.5 0 3.400000000000034 1.1000000000000227 6 4.800000000000011 6.2000000000000455z"/>
</svg>
