<svg xmlns="http://www.w3.org/2000/svg" viewBox="0 0 1000 1000" width="1000" height="1000">
<path d="M415 549.7c-5.199999999999989 3.3999999999999773-7.100000000000023 8.5-4.800000000000011 14.699999999999932 4.699999999999989 12.899999999999977 14.5 21.100000000000023 26.400000000000034 26.899999999999977 20.399999999999977 9.800000000000068 42.19999999999999 13.100000000000023 64.59999999999997 13.100000000000023 23.80000000000001 0 46.80000000000001-3.199999999999932 67.50000000000006-16.100000000000023 9.199999999999932-5.699999999999932 16.799999999999955-12.899999999999977 21.5-22.799999999999955 2.8999999999999773-6.100000000000023 1.8999999999999773-11.799999999999955-3.900000000000091-15.700000000000045-5.2999999999999545-3.599999999999909-10.199999999999932-1.7999999999999545-14 2.800000000000068-14.5 17.5-33.89999999999998 24.600000000000023-55.69999999999993 26.600000000000023-32.80000000000001 3-63.400000000000034-1.6000000000000227-87.30000000000001-27.300000000000068-4.199999999999989-4.600000000000023-9.199999999999989-5.5-14.300000000000011-2.199999999999932z m181.89999999999998-63.60000000000002c15.899999999999977 0.0999999999999659 28.800000000000068-12.800000000000011 28.899999999999977-28.900000000000034 0.10000000000002274-16.19999999999999-12.5-29.099999999999966-28.59999999999991-29.30000000000001-15.600000000000023-0.0999999999999659-29 13.100000000000023-29.100000000000023 28.900000000000034 0 15.800000000000011 13 29.099999999999966 28.799999999999955 29.30000000000001z m-107.69999999999999 219.5z m-282.29999999999995-486.40000000000003c12.299999999999955 11.200000000000017 25.899999999999977 20.5 39.599999999999966 29.80000000000001 5.099999999999994 3.5 10.399999999999977 4.900000000000006 16.600000000000023 5.199999999999989 31.099999999999966 1.5 62.099999999999966 3.5 93.19999999999999 4.900000000000034 57.89999999999998 2.5 115.69999999999999 6 173.7 4 64.89999999999998-1.6000000000000227 129.60000000000002-5.400000000000034 194.29999999999995-8.900000000000034 3.6000000000000227-0.19999999999998863 7.300000000000068 0.10000000000002274 10.600000000000023-2 15.899999999999977-10.099999999999994 31.700000000000045-20.399999999999977 45.60000000000002-33.29999999999998 7.399999999999977-6.800000000000011 9.399999999999977-14.200000000000017 5.7999999999999545-24-8-21.5-18.5-41.70000000000002-29.399999999999977-61.70000000000002-13.899999999999977-25.39999999999999-32.60000000000002-43.499999999999986-60.69999999999993-54.79999999999998-51.700000000000045-20.800000000000004-101.90000000000009-45.60000000000001-153.20000000000005-67.60000000000001-34.30000000000001-14.799999999999997-66-14.099999999999998-100.19999999999999 0.1000000000000032-56.400000000000034 23.5-111.90000000000003 49-167.60000000000002 74.3-10.300000000000011 4.700000000000003-18.69999999999999 11-25.299999999999983 20-20.200000000000017 27.700000000000003-36.099999999999994 57.7-49.099999999999994 89.3-4.200000000000017 10.199999999999989-1.700000000000017 17.599999999999994 6.099999999999994 24.69999999999999z m207.7-91.79999999999998c0-0.7000000000000028 0-1.3000000000000114 0.0999999999999659-2 0.19999999999998863-18.80000000000001 0.19999999999998863-19.30000000000001 18.69999999999999-17.60000000000001 19.5 1.7000000000000028 33.30000000000001-5 41.60000000000002-23.099999999999994 3.6999999999999886-7.900000000000006 7.300000000000011-17.60000000000001 18.30000000000001-17.200000000000003 10.099999999999966 0.4000000000000057 13.300000000000011 9.700000000000003 17.399999999999977 17.099999999999994 12.000000000000057 21.900000000000006 21.599999999999966 26.5 49.30000000000001 21.60000000000001 8-1.4000000000000057 10.299999999999955 0.7000000000000028 11.299999999999955 8.200000000000003 2.5 19.19999999999999 0.20000000000004547 37.599999999999994-8.399999999999977 55-11.699999999999932 23.599999999999994-29.699999999999932 41-52.69999999999999 53.5-11.699999999999989 6.400000000000006-23.099999999999966 6.599999999999994-35 0.9000000000000057-40.5-19.400000000000006-59.599999999999966-52.20000000000002-60.599999999999966-96.4z m-21.700000000000045 358.70000000000005c16-0.20000000000004547 28.600000000000023-13.300000000000011 28.400000000000034-29.400000000000034-0.19999999999998863-16-13.400000000000034-29-29.100000000000023-28.899999999999977-15.5 0.19999999999998863-29 14-28.69999999999999 29.5 0.30000000000001137 15.800000000000011 13.800000000000011 29 29.399999999999977 28.80000000000001z m260.20000000000005 232.89999999999998z m-57.39999999999998 42.10000000000002c12.299999999999955 4.2999999999999545 24.899999999999977 7.399999999999977 39.799999999999955 11.699999999999932-7.5-11.5-13.600000000000023-20.899999999999977-19.700000000000045-30.299999999999955-4.2999999999999545-6.600000000000023-7.2999999999999545-15.799999999999955-13.399999999999977-19.200000000000045-7.100000000000023-3.8999999999999773-15 4-22.600000000000023 6.400000000000091-55 17.59999999999991-109.39999999999998 15-163.39999999999998-4.100000000000023-3.6999999999999886-1.3000000000000682-7.599999999999966-4.899999999999977-11.599999999999966-0.10000000000002274-12.5 14.899999999999977-25 29.700000000000045-39.400000000000034 46.89999999999998 15.100000000000023-3.699999999999932 27.200000000000045-6.399999999999977 39-9.899999999999977 10.700000000000045-3 19.100000000000023-0.10000000000002274 26.900000000000034 7.7000000000000455 20.80000000000001 20.899999999999977 42.19999999999999 41.19999999999993 62.89999999999998 62.09999999999991 5 5.100000000000023 7.600000000000023 5.900000000000091 12.800000000000011 0 18.700000000000045-21 38.299999999999955-41.19999999999993 56.89999999999998-62.299999999999955 9.100000000000023-10.200000000000045 18.800000000000068-13.299999999999955 31.800000000000068-8.899999999999977z m296.79999999999995 114.19999999999993c-15.299999999999955-34.799999999999955-29.5-70-48.39999999999998-103.09999999999991-4.5-7.900000000000091-10.5-12.900000000000091-19.5-15.400000000000091-55.80000000000007-15.199999999999932-112.70000000000005-25.399999999999977-171.5-37.799999999999955 17.100000000000023 26.399999999999977 32.89999999999998 50.799999999999955 48.69999999999993 75 7.600000000000023 11.799999999999955 8.200000000000045 20.799999999999955 1.8000000000000682 29.299999999999955-6.300000000000068 8.400000000000091-15.200000000000045 10.5-28.600000000000023 6.600000000000023-25.399999999999977-7.2999999999999545-50.799999999999955-14.399999999999977-76.10000000000002-22.100000000000023-6-1.7999999999999545-9.699999999999932-0.599999999999909-13.799999999999955 3.900000000000091-19.800000000000068 21.799999999999955-39.80000000000007 43.39999999999998-59.89999999999998 64.89999999999998-3.400000000000091 3.699999999999932-4.900000000000091 7.399999999999977-4.900000000000091 12.399999999999977 0.20000000000004547 34.10000000000002 0.3000000000000682 68.20000000000005 0 102.29999999999995-0.09999999999990905 7.300000000000068 2.400000000000091 8.800000000000068 9.200000000000045 8.5 86.70000000000005-3.2999999999999545 170.39999999999998-20.399999999999977 250.60000000000002-54 38-15.799999999999955 74.10000000000002-35 107.29999999999995-59.5 3.6000000000000227-2.699999999999932 7.899999999999977-4.699999999999932 5.100000000000023-11z m-175.60000000000002 66.80000000000007c-6.600000000000023 2-12.5 0.2999999999999545-18.100000000000023-2.7000000000000455-22.299999999999955-12-32.799999999999955-30.899999999999977-33-55.89999999999998-0.09999999999990905-7.7999999999999545 0.8000000000000682-14.600000000000023 9.900000000000091-11 12.5 1.6000000000000227 19.899999999999977-2.6000000000000227 25.199999999999932-12.100000000000023 7.899999999999977-14.699999999999932 13.600000000000023-14.699999999999932 21.399999999999977-0.10000000000002274 5.5 10.200000000000045 13.300000000000068 14.5 24.40000000000009 12.100000000000023 8.599999999999909-1.8999999999999773 10.599999999999909 2.1000000000000227 11.199999999999932 9.700000000000045 1.7000000000000455 23.799999999999955-18.199999999999932 53.10000000000002-41 60z m-362.7-224.5z m116 153.60000000000002c-19.399999999999977-19-38.80000000000001-38-57.69999999999999-57.40000000000009-4.800000000000011-4.899999999999977-9.100000000000023-5.899999999999977-15.600000000000023-4.199999999999932-28.69999999999999 7.5-57.599999999999966 14.699999999999932-86.39999999999998 21.899999999999977-9.800000000000011 2.3999999999999773-17.600000000000023-0.8999999999999773-23.399999999999977-8.899999999999977-5.5-7.600000000000023-5-17.800000000000068 1-25.899999999999977 2.3999999999999773-3.2000000000000455 5.099999999999966-6.2000000000000455 7.599999999999966-9.200000000000045 18.900000000000034-22.600000000000023 37.69999999999999-45.10000000000002 58.5-69.89999999999998-12.800000000000011 2.3999999999999773-22.599999999999966 4-32.39999999999998 5.899999999999977-47.10000000000002 8.700000000000045-94.10000000000002 17.700000000000045-140.60000000000002 29.5-14.699999999999989 3.7999999999999545-24.19999999999999 11.5-30.799999999999983 25.100000000000023-15.800000000000011 32.39999999999998-29.200000000000003 65.79999999999995-42.7 99.19999999999993-2 4.800000000000068-1.2000000000000028 7.600000000000023 3 10.800000000000068 18.799999999999997 14.199999999999932 38.7 26.600000000000023 59.60000000000001 37.39999999999998 93.30000000000001 48.5 193.09999999999997 70.79999999999995 297.59999999999997 74.5 7.2000000000000455 0.20000000000004547 8.100000000000023-2.7000000000000455 8.100000000000023-8.700000000000045-0.19999999999998863-35.69999999999993-0.30000000000001137-71.5 0-107.19999999999993 0-5.600000000000023-2.1000000000000227-9.200000000000045-5.800000000000011-12.899999999999977z m-220.1-385.50000000000006c5 1.8000000000000114 7.200000000000017 4.400000000000034 8.299999999999983 9.5 4.600000000000023 20.69999999999999 11.100000000000023 40.80000000000001 19.700000000000045 60.19999999999999 42.39999999999998 95.39999999999998 113.79999999999995 148.39999999999998 211.09999999999997 150.20000000000005 89.30000000000001-0.10000000000002274 153.59999999999997-30.899999999999977 199.00000000000006-98.20000000000005 22.799999999999955-34 36.19999999999993-71.89999999999998 44-111.79999999999995 1.1999999999999318-6.100000000000023 3.699999999999932-8.900000000000034 9.199999999999932-11.100000000000023 27.600000000000023-11.100000000000023 45.10000000000002-31.30000000000001 53.200000000000045-60 4-14.300000000000011 4.600000000000023-28.80000000000001 3.3999999999999773-43.30000000000001-2.7000000000000455-31.399999999999977-12.799999999999955-59.5-39-79.39999999999998-10.5-8-21.700000000000045-13-35.700000000000045-11.600000000000023-17.399999999999977 1.8000000000000114-35 2.3000000000000114-52.5 3.1999999999999886-63.09999999999991 3.1000000000000227-126.29999999999995 7.2000000000000455-189.49999999999994 6.400000000000034-68.5-0.9000000000000341-137-3.6000000000000227-205.3-9.300000000000011-34.599999999999994-2.8999999999999773-56.5 12.899999999999977-73.6 39.89999999999998-4.5 7-7.300000000000011 14.800000000000011-9.5 22.80000000000001-4.300000000000011 15.400000000000034-5.300000000000011 31.30000000000001-4.200000000000017 47.19999999999999 2.8000000000000114 41.10000000000002 21.80000000000001 70.80000000000001 61.400000000000006 85.30000000000001z m-23.599999999999994-127.89999999999998c2.5-8 6.699999999999989-15.199999999999989 12.699999999999989-21.100000000000023 3.5-3.3999999999999773 7.300000000000011-9.399999999999977 11.700000000000017-8 5.299999999999983 1.6999999999999886 2.5999999999999943 8.699999999999989 3.0999999999999943 13.300000000000011 2.5 22 5 44 12 65.19999999999999 2.1000000000000227 6.300000000000011 4.600000000000023 12.400000000000034 8.699999999999989 17.69999999999999 3.400000000000034 4.400000000000034 7.600000000000023 7.600000000000023 13.600000000000023 6.400000000000034 5.5-1 7.399999999999977-5.699999999999989 8.399999999999977-10.100000000000023 2.6000000000000227-11.599999999999966 4.5-23.399999999999977 6.400000000000034-35.099999999999966 4.199999999999989-26.200000000000045 4.099999999999966-26.200000000000045 27.799999999999955-16.200000000000045 50.700000000000045 21.400000000000034 103.10000000000002 36 158.20000000000005 38.400000000000034 57.299999999999955 2.3999999999999773 111.29999999999995-12.199999999999989 163.10000000000002-35.900000000000034 5.199999999999932-2.3999999999999773 10.5-4.5 15.099999999999909-7.599999999999966 5.800000000000068-3.900000000000034 8-1.6000000000000227 9.5 4 4 15.399999999999977 7.800000000000068 30.80000000000001 12.200000000000045 46 1.8999999999999773 6.699999999999989 2.8999999999999773 16.099999999999966 11.799999999999955 16.399999999999977 9.400000000000091 0.19999999999998863 11.200000000000045-9.399999999999977 13.400000000000091-16.30000000000001 8.299999999999955-26.799999999999955 9.799999999999955-54.599999999999966 12.099999999999909-82.29999999999995 0.3000000000000682-2.900000000000034 0.5-5.800000000000011 0.8000000000000682-9.800000000000011 13.899999999999977 5 22.799999999999955 14.399999999999977 28.100000000000023 26.80000000000001 9.799999999999955 21.799999999999955 12.399999999999977 44.599999999999966 5.7999999999999545 67.79999999999995-6.7000000000000455 23.600000000000023-23.5 36.200000000000045-47 39.80000000000001-8 1.3000000000000114-11.299999999999955 3.900000000000034-12.299999999999955 12.5-3.6000000000000227 32.10000000000002-12.400000000000091 62.80000000000001-26.600000000000023 91.90000000000003-32.200000000000045 66-84.20000000000005 104.39999999999998-158.10000000000002 109.69999999999993-66.30000000000001 4.800000000000068-124.39999999999998-14-169.10000000000002-65.59999999999991-29-33.40000000000009-46-73-56.5-115.60000000000002-2.2999999999999545-9.300000000000011-1.7999999999999545-19.900000000000034-6.199999999999989-27.900000000000034-4.899999999999977-9-17.30000000000001-4.800000000000011-25.899999999999977-8.5-16.900000000000006-7.300000000000011-28.700000000000017-18.5-33.900000000000006-36.30000000000001-5.800000000000011-19.899999999999977-5-39.89999999999998 1.0999999999999943-59.599999999999966z"/>
</svg>
