<svg xmlns="http://www.w3.org/2000/svg" viewBox="0 0 1000 1000" width="1000" height="1000">
<path d="M551.6 4.5c50.299999999999955 9.4 96.89999999999998 33.3 137.5 67 33.5 27.799999999999997 57.69999999999993 62.5 82.79999999999995 101.9 12.899999999999977-19.5 24.899999999999977-36.80000000000001 44.5-46.400000000000006 32.10000000000002-15.799999999999997 74.70000000000005-9.599999999999994 100.80000000000007 15.599999999999994 27.5 26.5 34.59999999999991 68 15.299999999999955 103.30000000000001-7.899999999999977 14.400000000000006-13.700000000000045 22.299999999999983 1.7000000000000455 38.099999999999994 45.19999999999993 46.5 34.89999999999998 107.19999999999999-21.40000000000009 139.39999999999998-13 7.400000000000034-21.799999999999955 11.300000000000011-19.59999999999991 30.700000000000045 5.699999999999932 49.89999999999998-10.900000000000091 79.89999999999998-47.10000000000002 96.29999999999995-37.39999999999998 16.899999999999977-74 7.600000000000023-107.80000000000007-27.899999999999977-3.5-3.7000000000000455-5.7999999999999545-8.600000000000023-8.599999999999909-12.800000000000011-104.40000000000009 101.00000000000006-220.40000000000003 132.09999999999997-354.6 78.80000000000001-32.900000000000034-13.100000000000023-61.400000000000034-33.299999999999955-86.5-57.700000000000045-12.800000000000011-12.5-19.600000000000023-13.399999999999977-33.10000000000002 1.400000000000091-31.400000000000006 34.39999999999998-67.9 40.299999999999955-104.9 21.799999999999955-36.099999999999994-18.100000000000023-53.39999999999999-51.60000000000002-46.39999999999999-97.10000000000002 2.200000000000003-14.099999999999966 0.7000000000000028-18.899999999999977-12.400000000000006-26.099999999999966-63.5-34.900000000000034-71.8-87.90000000000003-24.299999999999997-146.40000000000003 6-7.399999999999977 9.900000000000006-11 5.099999999999994-22.5-25.799999999999997-60.79999999999998-17.999999999999993-99.59999999999997 22.700000000000003-125.39999999999998 43.000000000000014-27.200000000000003 81.89999999999999-17.5 130.10000000000002 34.69999999999999 45.099999999999966-91.79999999999998 120.79999999999995-152.79999999999998 217.29999999999995-166.7 35.900000000000034-5.2 73.19999999999999-6.7 108.90000000000003 0z m-55.900000000000034 592.2c64.40000000000003-0.8000000000000682 108.80000000000001-13.5 153.59999999999997-43.90000000000009 133.80000000000007-90.79999999999995 130.5-274.59999999999997-8.199999999999932-357.49999999999994-92.80000000000007-55.5-189.8-56.5-283.70000000000005-3.1000000000000227-139.49999999999997 79.30000000000001-149.79999999999998 259.8-21 354.7 46.80000000000001 34.39999999999998 99.90000000000003 53.39999999999998 159.3 49.80000000000007z m376.8-209.30000000000007c26.399999999999977-0.5 42.299999999999955-13.399999999999977 43.799999999999955-39.19999999999999 1.6000000000000227-27.69999999999999-14.799999999999955-45-41.39999999999998-45.39999999999998-26-0.30000000000001137-43.799999999999955 15.300000000000011-43.39999999999998 43.5 0.2999999999999545 26.19999999999999 15.799999999999955 39.30000000000001 41 41.099999999999966z m-17.5-140.89999999999998c28.799999999999955-0.5999999999999943 44.10000000000002-16.900000000000006 43.799999999999955-43.30000000000001-0.2999999999999545-24.599999999999994-16.399999999999977-41.69999999999999-41.59999999999991-41.39999999999998-26.40000000000009 0.29999999999998295-42.90000000000009 15.799999999999983-42.60000000000002 44 0.10000000000002274 26.399999999999977 14.899999999999977 39.39999999999998 40.39999999999998 40.69999999999999z m-664.1 272.20000000000005c25.30000000000001-2.6000000000000227 40.80000000000001-17.300000000000068 41.20000000000002-42.10000000000002 0.5-27.400000000000034-17.19999999999999-43.5-43.900000000000006-43.30000000000001-25 0.19999999999998863-41 15.300000000000011-40.89999999999998 41.69999999999999 0.29999999999998295 27.600000000000023 15.399999999999977 42.299999999999955 43.599999999999994 43.700000000000045z m-90.99999999999997-312.90000000000003c0.5999999999999943 29.099999999999994 14.699999999999989 46.29999999999998 41.900000000000006 46.79999999999998 25.19999999999999 0.5 42-15.900000000000006 43.19999999999999-40.400000000000006 1.3000000000000114-26.899999999999977-14.800000000000011-43.39999999999998-42.5-44.29999999999998-26.200000000000003-0.8000000000000114-40.099999999999994 13.599999999999994-42.599999999999994 37.900000000000006z m-18.400000000000006 147.09999999999997c4 25.700000000000045 18.700000000000003 41.900000000000034 46.3 40.200000000000045 26.000000000000014-1.6000000000000227 40.10000000000001-19.30000000000001 38.60000000000001-44-1.5999999999999943-26.200000000000045-17.599999999999994-43.30000000000001-45.80000000000001-41.30000000000001-26 1.8000000000000114-37.89999999999999 18.899999999999977-39.099999999999994 45.099999999999966z m686 117.40000000000003c1.6000000000000227 27.30000000000001 14.899999999999977 43.19999999999999 41.200000000000045 43.19999999999999 28.09999999999991 0.10000000000002274 44-17.5 43.19999999999993-44.39999999999998-0.7999999999999545-25.600000000000023-18.299999999999955-39.80000000000001-44-39.5-26.399999999999977 0.39999999999997726-40.10000000000002 15.299999999999955-40.39999999999998 40.69999999999999z m83.60000000000002 371.8c-3-82.89999999999998-62.200000000000045-152.20000000000005-142.89999999999998-172.5-24-6-37.5-1.8999999999999773-49.90000000000009 21-32.19999999999993 60-67.09999999999991 118.89999999999998-100.89999999999998 178.5-2.6000000000000227-0.39999999999997726-5.600000000000023-1.1000000000000227-8.299999999999955-1.5 0-51.39999999999998 0.39999999999997726-102.39999999999998-0.39999999999997726-153.70000000000005-0.40000000000009095-37.89999999999998-17.200000000000045-56.60000000000002-48.700000000000045-56.19999999999993h-0.8000000000000114c-31.5-0.40000000000009095-48.39999999999998 18.399999999999977-48.69999999999999 56.19999999999993-0.8000000000000114 51.39999999999998-0.39999999999997726 102.39999999999998-0.39999999999997726 153.70000000000005-2.6000000000000227 0.39999999999997726-5.600000000000023 1.1000000000000227-8.300000000000011 1.5-33.69999999999999-59.60000000000002-68.60000000000002-118.5-100.90000000000003-178.5-12.399999999999977-22.899999999999977-25.899999999999977-27-49.89999999999998-21-80.6 20.199999999999932-139.9 89.60000000000002-142.9 172.5-1.5 42.69999999999993 0.4000000000000057 85.5-0.799999999999983 128.19999999999993-0.8000000000000114 20.200000000000045 3.6999999999999886 29.600000000000023 27.399999999999977 29.600000000000023 108.40000000000003-0.39999999999997726 216.40000000000003-0.7999999999999545 324.7-0.7999999999999545s216.39999999999998 0.39999999999997726 324.70000000000005 0.7999999999999545c23.600000000000023 0 28.100000000000023-9.399999999999977 27.399999999999977-29.600000000000023-0.7999999999999545-42.69999999999993 1.1000000000000227-85.39999999999998-0.39999999999997726-128.19999999999993z m-408.90000000000003-503.90000000000003c0 19.69999999999999-16 35.69999999999999-35.69999999999999 35.69999999999999s-35.69999999999999-16-35.69999999999999-35.69999999999999c0-19.69999999999999 16-35.69999999999999 35.69999999999999-35.69999999999999s35.69999999999999 15.899999999999977 35.69999999999999 35.69999999999999z m189.90000000000003 0c0 19.69999999999999-16 35.69999999999999-35.700000000000045 35.69999999999999s-35.69999999999993-16-35.69999999999993-35.69999999999999c0-19.69999999999999 16-35.69999999999999 35.69999999999993-35.69999999999999s35.700000000000045 15.899999999999977 35.700000000000045 35.69999999999999z m11.899999999999977 66.10000000000002c-3.2999999999999545 0.30000000000001137-3.8999999999999773-1.3000000000000114-4.399999999999977-4.300000000000011-4.399999999999977-29.19999999999999-26.600000000000023-50.39999999999998-55.200000000000045-53.19999999999999-28-2.8000000000000114-53.60000000000002 13.899999999999977-64 41.39999999999998-0.5 1.1999999999999886-1.1000000000000227 2.400000000000034-1.7999999999999545 3.900000000000034-5.7000000000000455-4.800000000000011-11.400000000000034-7.100000000000023-17-7.100000000000023-5.7000000000000455 0-11.300000000000011 2.3000000000000114-17 7.100000000000023-0.7000000000000455-1.5-1.3000000000000114-2.7000000000000455-1.8000000000000114-3.900000000000034-10.300000000000011-27.599999999999966-36-44.19999999999999-64-41.39999999999998-28.600000000000023 2.8000000000000114-50.80000000000001 24.099999999999966-55.19999999999999 53.19999999999999-0.4000000000000341 2.8999999999999773-1.1000000000000227 4.600000000000023-4.400000000000034 4.300000000000011-2.8000000000000114-0.30000000000001137-3.3999999999999773 1.5-3.3000000000000114 3.8000000000000114 0 2.099999999999966 0.10000000000002274 4.2999999999999545 3.1000000000000227 4 3.6999999999999886-0.4000000000000341 4.199999999999989 1.5 4.600000000000023 4.699999999999989 2.5 17.099999999999966 10.799999999999955 30.80000000000001 24.69999999999999 41.19999999999999 8.199999999999989 6.199999999999989 17.5 10.300000000000011 27.30000000000001 11.699999999999989 6.199999999999989 0.9000000000000341 12.599999999999966 0.9000000000000341 18.69999999999999 0 12.5-1.8999999999999773 23.80000000000001-8.099999999999966 33.099999999999966-17.399999999999977 12.300000000000011-12.300000000000011 18.200000000000045-27.100000000000023 18.80000000000001-44.30000000000001 0.30000000000001137-8.399999999999977 6.600000000000023-14.899999999999977 14.600000000000023-15.100000000000023h1.1999999999999886c8 0.20000000000004547 14.299999999999955 6.600000000000023 14.600000000000023 15.100000000000023 0.6000000000000227 17.19999999999999 6.5 32 18.799999999999955 44.30000000000001 9.300000000000068 9.300000000000011 20.600000000000023 15.5 33.10000000000002 17.399999999999977 6.2000000000000455 0.9000000000000341 12.600000000000023 0.9000000000000341 18.700000000000045 0 9.899999999999977-1.3999999999999773 19.09999999999991-5.599999999999966 27.299999999999955-11.699999999999989 13.899999999999977-10.399999999999977 22.200000000000045-24.100000000000023 24.700000000000045-41.19999999999999 0.5-3.1000000000000227 1-5.100000000000023 4.599999999999909-4.699999999999989 2.900000000000091 0.2999999999999545 3-1.900000000000034 3.1000000000000227-4 0.39999999999997726-2.3000000000000114-0.10000000000002274-4.100000000000023-2.8999999999999773-3.8000000000000114z m-220 57.599999999999966c-29.600000000000023-0.2999999999999545-53.39999999999998-24.19999999999999-53.30000000000001-53.799999999999955 0-30 24.400000000000034-53.900000000000034 54.80000000000001-53.700000000000045 29.80000000000001 0.20000000000004547 53.5 24.5 53.30000000000001 54.400000000000034-0.4000000000000341 29.80000000000001-24.80000000000001 53.39999999999998-54.80000000000001 53.099999999999966z m155.39999999999998 0c-30.100000000000023 0.30000000000001137-54.5-23.399999999999977-54.69999999999993-53-0.3000000000000682-30 23.5-54.19999999999999 53.299999999999955-54.39999999999998 30.399999999999977-0.19999999999998863 54.799999999999955 23.69999999999999 54.799999999999955 53.69999999999999 0 29.5-23.799999999999955 53.5-53.39999999999998 53.69999999999999z m-1.2999999999999545 13.200000000000045c-3.3999999999999773 0-6.7000000000000455-0.30000000000001137-10-0.8000000000000114-13.100000000000023-2-25.5-8.400000000000034-35.700000000000045-18.69999999999999-12.699999999999932-12.700000000000045-19.5-28.600000000000023-20.199999999999932-47.400000000000034-0.20000000000004547-5.899999999999977-4.500000000000057-10.399999999999977-10.100000000000023-10.5-6.5 0.10000000000002274-10.800000000000011 4.699999999999989-11 10.5-0.7000000000000455 18.80000000000001-7.5 34.80000000000001-20.200000000000045 47.400000000000034-10.299999999999955 10.299999999999955-22.599999999999966 16.799999999999955-35.69999999999999 18.69999999999999-6.599999999999966 1-13.5 1-20.099999999999966 0-10.400000000000034-1.5-20.400000000000034-5.800000000000011-29.5-12.600000000000023-14.900000000000034-11.199999999999989-23.900000000000034-26.099999999999966-26.5-44.30000000000001l-0.10000000000002274-0.5999999999999659h-0.39999999999997726c-2.6000000000000227 0-7.100000000000023-1.1000000000000227-7.2000000000000455-8.600000000000023 0-1-0.0999999999999659-4.199999999999989 2.2000000000000455-6.5 0.8999999999999773-1 2.599999999999966-2.099999999999966 5.2999999999999545-2.099999999999966h0.30000000000001137v-0.30000000000001137c4.699999999999989-31.100000000000023 28.600000000000023-54.10000000000002 59.400000000000034-57.19999999999999 29.69999999999999-2.8000000000000114 56.799999999999955 14.5 68.19999999999999 42.799999999999955 10-6.099999999999966 20.399999999999977-5.899999999999977 30.099999999999966 0 11.399999999999977-28.399999999999977 38.5-45.89999999999998 68.20000000000005-42.799999999999955 30.799999999999955 3.099999999999966 54.60000000000002 26.099999999999966 59.39999999999998 57.19999999999999v0.30000000000001137h0.20000000000004547c2.699999999999932 0 4.2999999999999545 1.099999999999966 5.2999999999999545 2.099999999999966 2.2999999999999545 2.3000000000000114 2.2000000000000455 5.5 2.2000000000000455 6.5-0.10000000000002274 7.5-4.600000000000023 8.600000000000023-7.300000000000068 8.600000000000023l-0.1999999999999318-0.8000000000000114c-0.10000000000002274 0.30000000000001137-0.20000000000004547 0.8000000000000114-0.3000000000000682 1.5-2.699999999999932 18.19999999999999-11.600000000000023 33.10000000000002-26.5 44.30000000000001-9.100000000000023 6.800000000000011-19 11.099999999999966-29.5 12.599999999999966-3.5 0.5-6.899999999999977 0.7000000000000455-10.299999999999955 0.7000000000000455z m0.1999999999999318-120.60000000000002l-0.2999999999999545 4.699999999999989c-13.100000000000023 0.10000000000002274-25.299999999999955 5.300000000000011-34.5 14.5-9.200000000000045 9.400000000000034-14.299999999999955 21.900000000000034-14.200000000000045 35.19999999999999 0.20000000000004547 26.600000000000023 22.5 48.30000000000001 49.5 48.30000000000001 27.300000000000068-0.19999999999998863 49.200000000000045-22.19999999999999 49.10000000000002-49.099999999999966 0-27.400000000000034-21.899999999999977-49-49.69999999999993-49l0.09999999999990905-4.600000000000023z m-153.29999999999995 0v4.699999999999989c-27.80000000000001 0-49.69999999999999 21.5-49.69999999999999 49 0 26.80000000000001 21.80000000000001 48.80000000000001 48.69999999999999 49.10000000000002 27.5 0 49.69999999999999-21.69999999999999 50-48.30000000000001 0.10000000000002274-13.300000000000011-4.899999999999977-25.80000000000001-14.100000000000023-35.19999999999999-9.199999999999989-9.300000000000011-21.399999999999977-14.5-34.5-14.600000000000023l-0.39999999999997726-4.699999999999989z"/>
</svg>
