<svg xmlns="http://www.w3.org/2000/svg" viewBox="0 0 1000 1000" width="1000" height="1000">
<path d="M789.6 971.7c-0.8000000000000682-4.900000000000091-0.6000000000000227-10.100000000000023-0.10000000000002274-15.100000000000023 1.7999999999999545-16.100000000000023-4.100000000000023-24.200000000000045-21.100000000000023-21.100000000000023-18.600000000000023 3.3999999999999773-23.5-6.2999999999999545-22.600000000000023-22.399999999999977l0.6000000000000227-25.200000000000045c0.5-8.799999999999955-1.2999999999999545-16-11.899999999999977-14-23.600000000000023 4.399999999999977-23.399999999999977-10.699999999999932-23.299999999999955-26.799999999999955 0.39999999999997726-132.10000000000002 0.599999999999909-264.1 0.7999999999999545-396.20000000000005 0.10000000000002274-36.39999999999998 0-36.5 35.200000000000045-41.799999999999955 12.399999999999977-1.900000000000034 20.399999999999977-7.800000000000011 20.699999999999932-21 0.3000000000000682-13.5-7.600000000000023-19.80000000000001-20.199999999999932-20.900000000000034-5.800000000000068-0.5-11.800000000000068-0.39999999999997726-17.700000000000045-0.39999999999997726h-461.8c-6.699999999999989 0-13.5 0-20.099999999999994 1.099999999999966-10.5 1.7000000000000455-16 8.5-16.400000000000006 19.200000000000045-0.39999999999997726 10.799999999999955 5.200000000000017 18 15 20.599999999999966 7.100000000000023 1.900000000000034 15.100000000000023 2.1000000000000227 22.5 1.3000000000000114 14-1.3999999999999773 18.80000000000001 3.5 18.80000000000001 18.100000000000023-0.5 143-0.5 286 0 429 0.10000000000002274 15.199999999999932-5.800000000000011 19.299999999999955-19.19999999999999 17.600000000000023-12.100000000000023-1.6000000000000227-17 3.8999999999999773-15.900000000000006 15.899999999999977 0.5999999999999943 5.7999999999999545-0.5 11.799999999999955 0.19999999999998863 17.600000000000023 2.4000000000000057 19.899999999999977-1.5 33.09999999999991-26.099999999999994 28.399999999999977-11.599999999999994-2.2000000000000455-17.19999999999999 3.2999999999999545-16.30000000000001 15.5 0.5 7.5 1 15.299999999999955-0.09999999999999432 22.699999999999932-3.1999999999999886 21.600000000000023 6.200000000000017 26.40000000000009 26.700000000000017 26.200000000000045 86.59999999999997-1.1000000000000227 173.3-0.5 259.9-0.5 88.30000000000001 0 176.7-0.8999999999999773 265.00000000000006 0.6000000000000227 23 0.2999999999999545 30.699999999999932-6.800000000000068 27.399999999999977-28.399999999999977z m-158.39999999999998-178.4000000000001c-30 0-46.60000000000002 15.900000000000091-47.80000000000007 46.80000000000007-0.6999999999999318 18.100000000000023-8 20.199999999999932-22.799999999999955 20-40.39999999999998-0.6000000000000227-80.70000000000005-0.7000000000000455-121.10000000000002 0-14.800000000000011 0.2999999999999545-21.899999999999977-2-22.80000000000001-19.899999999999977-1.599999999999966-32.10000000000002-17.30000000000001-46-50.30000000000001-47-15-0.5-18-6-17.899999999999977-19.5 0.5-87.5 0.6000000000000227-174.9000000000001-0.10000000000002274-262.40000000000003-0.0999999999999659-14.400000000000034 4.7000000000000455-18.19999999999999 18.5-19.19999999999999 34.700000000000045-2.7000000000000455 47.700000000000045-15.700000000000045 50.200000000000045-50.5 0.8999999999999773-12.900000000000034 3.7999999999999545-17.5 17.19999999999999-17.200000000000045 43.69999999999999 0.8000000000000114 87.49999999999994 0.8000000000000114 131.2 0 13.399999999999977-0.2999999999999545 16.399999999999977 3.900000000000034 17.5 16.900000000000034 3 36.69999999999999 14 47.39999999999998 52.200000000000045 50.89999999999998 14 1.3000000000000114 16.199999999999932 7 16 18.900000000000034-0.5 43.69999999999993-0.20000000000004547 87.5-0.20000000000004547 131.19999999999993 0 42.90000000000009-0.5 85.80000000000007 0.2999999999999545 128.70000000000005 0.40000000000009095 15.200000000000045-2.199999999999932 22.299999999999955-20.09999999999991 22.299999999999955z m-302.1-464.59999999999997h15.099999999999966c116 0 231.90000000000003 0.10000000000002274 347.90000000000003-0.39999999999997726 7.699999999999932 0 23.899999999999977 7.099999999999966 19.5-12-7.300000000000068-31.900000000000034-15.200000000000045-63.80000000000001-35.200000000000045-90.80000000000001-17-23.099999999999994-40.39999999999998-32.900000000000006-68.39999999999998-27.30000000000001-11.899999999999977 2.4000000000000057-23.200000000000045 3-34.700000000000045 0.700000000000017-23.199999999999932-4.700000000000017-43.59999999999991 0-60.5 15.799999999999983 7.5 13.700000000000017 19 13.100000000000023 31.800000000000068 8.100000000000023-2.3999999999999773 22.299999999999983 5.5 40.599999999999966 7.199999999999932 59.80000000000001 2.300000000000068 25.899999999999977-14.599999999999909 30.5-34.89999999999998 32.19999999999999-45.599999999999966 3.8999999999999773-66.5-2.8000000000000114-68.59999999999997-23.30000000000001-0.9000000000000341-8.199999999999989-0.10000000000002274-17 2.099999999999966-24.899999999999977 3.900000000000034-13.900000000000034 4.900000000000034-28.00000000000003 5.5-44.20000000000002 13.400000000000034 8.099999999999994 23.5 3.299999999999983 32.80000000000001-8.599999999999994-16.69999999999999-8.100000000000023-29.5-19.400000000000006-48.19999999999999-16.30000000000001-18.899999999999977 3.0999999999999943-37.69999999999999 3.4000000000000057-57.19999999999999 0.30000000000001137-26.5-4.300000000000011-47 9.199999999999989-61.900000000000034 30.799999999999983-11.599999999999966 16.700000000000017-18.599999999999966 35.50000000000003-24.399999999999977 54.900000000000006-13.5 45.19999999999999-13.600000000000023 45.19999999999999 32.10000000000002 45.19999999999999z m170.39999999999998-141.29999999999998c51.89999999999998 0.29999999999998295 95.20000000000005-42.900000000000006 94.89999999999998-94.5-0.5-50.800000000000004-42.799999999999955-92.80000000000001-93.79999999999995-92.9-52.5-0.1-95.40000000000003 42.6-94.80000000000001 94.2 0.6999999999999886 51.3 42.5 92.99999999999999 93.69999999999999 93.2z m115.29999999999995 323.79999999999995c-27.299999999999955-5.39999999999992-44.19999999999993-23.199999999999932-50.5-50.09999999999991-2.7999999999999545-12-8.899999999999977-16.30000000000001-20.899999999999977-16.100000000000023-29.399999999999977 0.5-58.799999999999955 0.6000000000000227-88.19999999999999-0.10000000000002274-11.099999999999966-0.2999999999999545-16.5 2.7000000000000455-18.899999999999977 14.100000000000023-6.300000000000011 29-24.5 47.19999999999999-53.80000000000001 53.10000000000002-10.300000000000011 2.1000000000000227-13.300000000000011 7.199999999999932-13.300000000000011 17.299999999999955 0.30000000000001137 75.60000000000002 0.30000000000001137 151.10000000000002 0.10000000000002274 226.70000000000005 0 9.600000000000023 2.1999999999999886 15.199999999999932 13.300000000000011 17.199999999999932 28.299999999999955 5.100000000000023 46.5 22.700000000000045 53 50.60000000000002 2.8999999999999773 12.300000000000068 8.299999999999955 16 20.5 15.700000000000045 28.5-0.8000000000000682 57.10000000000002-1.2000000000000455 85.60000000000002 0.10000000000002274 14.899999999999977 0.6999999999999318 20.199999999999932-4.800000000000068 23.59999999999991-18.600000000000023 6.300000000000068-25.899999999999977 23.90000000000009-42.60000000000002 50-47.30000000000007 13.800000000000068-2.5 15.600000000000023-9.099999999999909 15.5-20.399999999999977-0.2999999999999545-36.89999999999998-0.09999999999990905-73.89999999999998-0.1999999999999318-110.79999999999995 0-36.10000000000002-0.5-72.20000000000005 0.1999999999999318-108.30000000000007 0.3000000000000682-12.699999999999932-1.8999999999999773-20.299999999999955-16-23.099999999999966z"/>
</svg>
