<svg xmlns="http://www.w3.org/2000/svg" viewBox="0 0 1000 1000" width="1000" height="1000">
<path d="M833 387.2c-2.7999999999999545-44.80000000000001-5.5-89.69999999999999-7.2000000000000455-134.6-0.5-12.299999999999983-4.899999999999977-15.099999999999994-16.699999999999932-14.900000000000006-114.60000000000002 2.9000000000000057-229.20000000000005 5.100000000000023-343.8 7.600000000000023-64.69999999999999 0-129.40000000000003 3.1999999999999886-194.10000000000002 3.799999999999983-51.69999999999999 0.5-103.39999999999998 2.4000000000000057-155.1 3.3000000000000114-8.599999999999994 0.19999999999998863-12.5 2-11.899999999999991 12.200000000000017 4 61.799999999999955 7.5 123.69999999999999 10.599999999999994 185.59999999999997 0.5 9.400000000000034 3.299999999999997 12.699999999999989 12.700000000000003 11.600000000000023 19.599999999999994-2.1999999999999886 39.30000000000001-3.900000000000034 59-5.400000000000034 6.699999999999989-0.5 9.5-3.099999999999966 9.300000000000011-10.099999999999966-0.4000000000000057-13 0.29999999999998295-26-0.30000000000001137-39.10000000000002-0.4000000000000057-8.199999999999989 2.0999999999999943-10.800000000000011 10.5-10.599999999999966 22.900000000000006 0.5999999999999659 45.900000000000006 0 68.80000000000001 0.2999999999999545 7.099999999999966 0.10000000000002274 12.599999999999966-1.6999999999999886 18.399999999999977-6.099999999999966 83.69999999999999-63.900000000000034 189.90000000000003-63.900000000000034 272.7-0.30000000000001137 5.600000000000023 4.300000000000011 11.100000000000023 6.5 18.399999999999977 6.399999999999977 27.90000000000009-0.39999999999997726 55.700000000000045-0.2999999999999545 83.60000000000002 0 7.2000000000000455 0 17.100000000000023-3.8999999999999773 16.600000000000023 10.200000000000045-0.20000000000004547 4.699999999999989 4.600000000000023 2.5 7.399999999999977 2.1999999999999886 43.80000000000007-4 87.5-8.300000000000011 131.39999999999998-12 7.400000000000091-0.6000000000000227 10.200000000000045-2.1999999999999886 9.700000000000045-10.100000000000023z m-403.2-29.899999999999977c-113.19999999999999 0.0999999999999659-206.60000000000002 93.5-206.5 206.59999999999997 0.09999999999999432 114.30000000000007 93.5 206 209.59999999999997 205.60000000000002 112.30000000000007-0.39999999999997726 203-93.39999999999998 202.70000000000005-208-0.39999999999997726-111.80000000000001-93.60000000000002-204.3-205.8-204.2z m128.49999999999994 104.19999999999999c18.300000000000068 22.899999999999977 28.800000000000068 49.19999999999999 33.90000000000009 77.70000000000005 1.6999999999999318 8.899999999999977 0.09999999999990905 14.899999999999977-12.5 13.099999999999909-18.5-2.699999999999932-37.40000000000009-2.699999999999932-54-3.699999999999932-17.100000000000023 0-26.900000000000034-8.700000000000045-29.600000000000023-23.800000000000068-0.6000000000000227-3.2999999999999545 1-5.199999999999932 2.599999999999966-7.099999999999909 16.500000000000057-19.000000000000057 33.30000000000001-37.60000000000002 49.50000000000006-56.700000000000045 4.399999999999977-5.100000000000023 6.699999999999932-3.8000000000000114 10.099999999999909 0.5z m-109.29999999999995-61c30 3.8000000000000114 57 15 81.20000000000005 33.10000000000002 5.7999999999999545 4.399999999999977 7.399999999999977 7.599999999999966 0.6999999999999318 13.099999999999966-17.899999999999977 14.900000000000034-35.099999999999966 30.69999999999999-52.89999999999998 45.80000000000001-8.300000000000011 7.100000000000023-30.899999999999977-0.6999999999999886-31.899999999999977-11.600000000000023-2.400000000000034-25-3.400000000000034-50.099999999999966-5-75.19999999999999-0.4000000000000341-6.399999999999977 3.6999999999999886-6 7.899999999999977-5.199999999999989z m-121.5 34.39999999999998c24.69999999999999-19.19999999999999 52.69999999999999-30.099999999999966 83.5-34.69999999999999 6.5-1 9.5 1.1000000000000227 7.199999999999989 9.699999999999989-1.1999999999999886 21.200000000000045-2.5 44-3.8000000000000114 66.90000000000003-0.39999999999997726 5.300000000000011 0.10000000000002274 11.5-7.399999999999977 12.300000000000011-8.699999999999989 1-15.5 13.299999999999955-26.5 2.8999999999999773-16.899999999999977-16.100000000000023-35-30.899999999999977-52.80000000000001-45.89999999999998-4.899999999999977-4.100000000000023-5.899999999999977-6.7000000000000455-0.19999999999998863-11.200000000000045z m-61.39999999999998 111.10000000000002c4.2999999999999545-31.700000000000045 16-60.30000000000001 35.89999999999998-85.60000000000002 3.6999999999999886-4.7999999999999545 6.100000000000023-3.3999999999999773 9.300000000000011 0.4000000000000341 16 18.69999999999999 32.39999999999998 37.19999999999999 48.30000000000001 56.099999999999966 5.599999999999966 6.600000000000023-4.300000000000011 30-13 30.700000000000045-24.600000000000023 2-49.200000000000045 3.5-72.5 5-6.900000000000034 1.2999999999999545-8.700000000000045-1.3999999999999773-8-6.600000000000023z m33.39999999999998 118.10000000000002c-18.100000000000023-24.200000000000045-29.399999999999977-51.30000000000007-32.80000000000001-81.10000000000002-1.8999999999999773-16.100000000000023 12.199999999999989-3.2000000000000455 16.19999999999999-7.899999999999977 22 1.6999999999999318 43 2.7999999999999545 64 4.899999999999977 10.700000000000045 1.1000000000000227 19.200000000000045 24.299999999999955 12.200000000000045 32.39999999999998-15.100000000000023 17.300000000000068-30.600000000000023 34.10000000000002-45.400000000000034 51.5-5.300000000000011 6.100000000000023-8.5 7.600000000000023-14.199999999999989 0.20000000000004547z m108.30000000000001 62.10000000000002c-32.30000000000001-4.100000000000023-60.69999999999999-17.100000000000023-86.40000000000003-39.30000000000007 21.100000000000023-18.5 41.400000000000034-36.69999999999993 62.10000000000002-54.39999999999998 6.300000000000011-5.2999999999999545 30 5.600000000000023 30.600000000000023 13.899999999999977 1.7999999999999545 24.5 3.1999999999999886 49.10000000000002 4.7999999999999545 73.70000000000005 0.7000000000000455 10.100000000000023-7 6.600000000000023-11.099999999999966 6.100000000000023z m21.599999999999966-99.90000000000009c-34.39999999999998-0.1999999999999318-60.5-28.299999999999955-61.69999999999999-63.299999999999955-1.1999999999999886-32.60000000000002 32.69999999999999-64.89999999999998 61.80000000000001-60.60000000000002 31.19999999999999-3.3999999999999773 62.5 26.200000000000045 62.69999999999999 61.200000000000045 0.19999999999998863 34.10000000000002-29.099999999999966 63-62.80000000000001 62.69999999999993z m24.700000000000045 100c-9.100000000000023 1.5-14.200000000000045 0.3000000000000682-13.100000000000023-11.299999999999955 2.1000000000000227-21.399999999999977 2.8000000000000114-42.89999999999998 4.300000000000011-64.39999999999998 0.39999999999997726-6.100000000000023 0.0999999999999659-12.700000000000045 9.199999999999989-13.800000000000068 8.600000000000023-1.099999999999909 15.300000000000011-11.699999999999932 25.899999999999977-1 18 18 37.89999999999998 34 57.39999999999998 51.200000000000045-24.699999999999932 21.899999999999977-52.599999999999966 33.89999999999998-83.69999999999993 39.299999999999955z m104.19999999999993-60.5c-4.599999999999909 5.900000000000091-6.599999999999909 5-10.799999999999955 0.10000000000002274-15.399999999999977-18.100000000000023-31.299999999999955-35.799999999999955-46.89999999999998-53.799999999999955-7.100000000000023-8.100000000000023 1-30.899999999999977 11.899999999999977-32 21-2.2000000000000455 42-3.300000000000068 60.39999999999998-4.7000000000000455 22.399999999999977-0.6000000000000227 22.100000000000023-0.6000000000000227 18.100000000000023 19.200000000000045-5.399999999999977 26.299999999999955-16.100000000000023 50-32.700000000000045 71.19999999999993z m-520.3-17.5c-11.899999999999999 5-27.8 7.2000000000000455-34.5 16.200000000000045-7.2 9.799999999999955-0.8999999999999999 26.100000000000023-2.3 39.5-1.0000000000000002 10.5 3.0999999999999996 12.600000000000023 12.899999999999999 12.5 80.9-0.39999999999997726 161.8-0.20000000000004547 242.70000000000002-0.20000000000004547 3.3999999999999773 0 7.099999999999966 1 11.399999999999977-2.3999999999999773-35.39999999999998-38.60000000000002-54-83.89999999999998-59-135.89999999999998-57.79999999999998 23.700000000000045-114.49999999999999 47-171.2 70.29999999999995z m630.6-97.29999999999995c0-43.10000000000002 0.10000000000002274-86.19999999999999-0.10000000000002274-129.3 0-4.300000000000011 2.3999999999999773-10.899999999999977-5.899999999999977-10.899999999999977-23.600000000000023-0.10000000000002274-47.200000000000045 0-71.20000000000005 0 78.20000000000005 101.99999999999994 79.70000000000005 202.8-0.10000000000002274 305.49999999999994 21.100000000000023 0 41.200000000000045-0.7999999999999545 61.10000000000002 0.3000000000000682 12.600000000000023 0.6999999999999318 16.800000000000068-2.5 16.600000000000023-16-0.8999999999999773-49.80000000000007-0.39999999999997726-99.70000000000005-0.39999999999997726-149.60000000000002z m175-176.60000000000002c1.8999999999999773 33.10000000000002 2 33.10000000000002 34.89999999999998 30.400000000000034 25.200000000000045-2.1000000000000227 25.200000000000045-2.1000000000000227 24.299999999999955-27.30000000000001-0.09999999999990905-1.8000000000000114 0-3.6000000000000227 0-4.600000000000023-1-20.5-1.7999999999999545-40.19999999999999-3-59.89999999999998-1.599999999999909-27.30000000000001-3.5-54.60000000000002-5.199999999999932-81.9-0.20000000000004547-4.299999999999983 0-8-6.300000000000068-7.599999999999994-14.699999999999932 1.0999999999999943-29.5 1.8000000000000114-44.299999999999955 2.4000000000000057-6.899999999999977 0.29999999999998295-8.799999999999955 3.299999999999983-8.299999999999955 10.199999999999989 2.8999999999999773 46.099999999999994 5.2999999999999545 92.20000000000002 7.899999999999977 138.29999999999998z m109.5 305.6c-27.5-0.20000000000004547-49.200000000000045 20.299999999999955-49.89999999999998 47.200000000000045-0.7000000000000455 25.899999999999977 21.899999999999977 48.89999999999998 48.299999999999955 49.19999999999993 27.100000000000023 0.39999999999997726 48.39999999999998-20.799999999999955 48.5-48.299999999999955 0.10000000000002274-27-20.299999999999955-47.89999999999998-46.89999999999998-48.10000000000002z m-113.60000000000002 0c-27.899999999999977 0.10000000000002274-48.39999999999998 20.700000000000045-48.200000000000045 48.5 0.10000000000002274 26.600000000000023 21.40000000000009 47.799999999999955 48 48 26.800000000000068 0.20000000000004547 48.80000000000007-22.100000000000023 48.30000000000007-49.10000000000002-0.39999999999997726-27.199999999999932-21-47.39999999999998-48.10000000000002-47.39999999999998z m104.20000000000005-49.200000000000045c0.1999999999999318-27.59999999999991-21-48.799999999999955-48.40000000000009-48.59999999999991-26.799999999999955 0.1999999999999318-47.5 20.899999999999977-48 47.89999999999998-0.5 26.899999999999977 21.200000000000045 48.5 48.700000000000045 48.39999999999998 27.100000000000023-0.20000000000004547 47.60000000000002-20.600000000000023 47.700000000000045-47.700000000000045z m-896.5-263.49999999999994c10.899999999999956 3.5 9.799999999999955 12 11.899999999999956 19.80000000000001 4.5 17.5 11.899999999999999 33.89999999999998 23.199999999999996 48.099999999999966 5.799999999999997 7.400000000000034 11.600000000000009 15.300000000000011 21.900000000000006 20-3.799999999999997-65.09999999999997-7.400000000000006-128.7-11.299999999999997-195.3-23.60000000000001 23.600000000000023-34.00000000000001 50.10000000000002-37.300000000000004 79.80000000000001-0.7000000000000028 6.100000000000023 0.5 11.699999999999989-7.899999999999999 14.800000000000011-5.800000000000004 2.1000000000000227-5.700000000000003 11.199999999999989-0.5 12.800000000000011z m223.39999999999998 43.39999999999998c-19.30000000000001 0-35.20000000000002 0.5-51.10000000000002-0.19999999999998863-9-0.39999999999997726-10.300000000000011 3.3999999999999773-10.199999999999989 11.100000000000023 0.29999999999998295 35.799999999999955 0.09999999999999432 71.69999999999999 0.09999999999999432 107.60000000000002 9.900000000000006-43.50000000000006 28.400000000000006-82.90000000000003 61.20000000000002-118.50000000000006z m159.89999999999998 127.09999999999997c-13 0.10000000000002274-25.899999999999977 12.900000000000091-26.100000000000023 25.90000000000009-0.2999999999999545 13.599999999999909 12 25.299999999999955 26.100000000000023 25 13.399999999999977-0.3000000000000682 24.399999999999977-11.700000000000045 24.19999999999999-25.200000000000045-0.19999999999998863-13.399999999999977-11.899999999999977-25.799999999999955-24.19999999999999-25.700000000000045z"/>
</svg>
