<svg xmlns="http://www.w3.org/2000/svg" viewBox="0 0 1000 1000" width="1000" height="1000">
<path d="M351.9 110c10.200000000000045 0.09999999999999432 9.600000000000023-9.599999999999994 9.800000000000011-17.299999999999997 0.6999999999999886-38.800000000000004 22.19999999999999-61.300000000000004 57.5-72.4 7.300000000000011-2.299999999999997 17.19999999999999-2.4999999999999964 14.699999999999989-12.599999999999998-2-8.5-10.199999999999989-8.2-18.899999999999977-6.699999999999999-40 6.9-75.69999999999999 49.1-74.69999999999999 92.2 0.39999999999997726 6.099999999999994 0.19999999999998863 16.599999999999994 11.599999999999966 16.799999999999997z m229.80000000000007-89.6c33.89999999999998 11.199999999999996 54.799999999999955 33.199999999999996 56.39999999999998 70.39999999999999 0.39999999999997726 8.200000000000003-1.8000000000000682 19.799999999999997 10.799999999999955 18.900000000000006 10.800000000000068-0.7999999999999972 10.5-11.600000000000009 10.5-20.299999999999997-0.2999999999999545-40.400000000000006-33.69999999999993-80.30000000000001-73-87.9-9.100000000000023-1.8-18.699999999999932-4.1-20.699999999999932 7.199999999999999-1.7000000000000455 10.2 9 9.400000000000002 16 11.7z m-191.90000000000003 73.8c0.5999999999999659 5.5-1 13.700000000000003 7.399999999999977 15.700000000000003 9.400000000000034 2.1999999999999886 10.300000000000011-5.300000000000011 11.300000000000011-12.300000000000011 2.3999999999999773-17.599999999999994 11-29.799999999999997 29.30000000000001-34.3 5.199999999999989-1.2999999999999972 11.300000000000011-5 9-12.199999999999996-2.5-7.899999999999999-9.5-8.300000000000004-16.600000000000023-7.300000000000004-20.399999999999977 2.8000000000000043-40.599999999999966 27.5-40.39999999999998 50.400000000000006z m174.3-30c17.100000000000023 4.599999999999994 25 16.200000000000003 27.199999999999932 32.7 0.900000000000091 6.8999999999999915 1.8000000000000682 14.599999999999994 10.900000000000091 13.099999999999994 8.599999999999909-1.4000000000000057 7.099999999999909-9.799999999999997 8-15.5-0.900000000000091-25.700000000000003-15-41-37.200000000000045-49.6-7.2999999999999545-2.799999999999997-16-3.6999999999999957-19.5 5.600000000000001-3.2000000000000455 8.600000000000001 4.5 12.100000000000001 10.600000000000023 13.700000000000003z m415.79999999999995 454.90000000000003c-0.2999999999999545-32.80000000000001-24.399999999999977-61.400000000000034-56.39999999999998-68.5-9.200000000000045-2-18.700000000000045-2.3000000000000114-28.5-3.3000000000000114-8.399999999999977-34.69999999999999-17.100000000000023-69.5-25.200000000000045-104.19999999999999-7.199999999999932-30.600000000000023-15.799999999999955-61-20.5-91.90000000000003-7.599999999999909-50.89999999999998-50.09999999999991-89.79999999999998-97.59999999999991-91.39999999999998-6.2000000000000455-0.20000000000001705-172-0.9000000000000057-172-0.9000000000000057h-9.400000000000091c0.5-2.5999999999999943 0.8000000000000682-5.300000000000011 0.8000000000000682-8.099999999999994v-26.10000000000001c0-23.10000000000001-18.700000000000045-41.8-41.80000000000007-41.8h-56.39999999999998c-23.099999999999966 0-41.799999999999955 18.69999999999999-41.799999999999955 41.8v26.10000000000001c0 2.799999999999983 0.2999999999999545 5.5 0.7999999999999545 8.199999999999989-51.599999999999966 0-103.29999999999995 0-154.89999999999998-0.09999999999999432-47.5-0.09999999999999432-84.19999999999999 18.19999999999999-104.6 62.29999999999998-6.200000000000017 13.200000000000017-7.400000000000006 28.80000000000001-10.900000000000006 43.30000000000001-15 61-30 122-45.2 184.10000000000002h-23.89999999999999c-38.800000000000004 0.2999999999999545-72.2 32.099999999999966-72.5 71-0.600000000000005 88-0.5000000000000071 176.10000000000002-0.10000000000000497 264.1 0.3000000000000007 35.5 28.400000000000002 65.69999999999993 63.8 70.09999999999991 8.300000000000011 1.1000000000000227 16.700000000000003 1.3000000000000682 26.30000000000001 1.8000000000000682v12.299999999999955c0.09999999999999432 20.200000000000045-0.30000000000001137 40.39999999999998 0.29999999999999716 60.5 0.8999999999999915 31.600000000000023 21.999999999999986 59 51.60000000000001 68.10000000000002 31.299999999999983 9.600000000000023 64.69999999999999-0.7999999999999545 83.89999999999998-25.600000000000023 12.300000000000011-15.899999999999977 16-34.19999999999993 16.100000000000023-53.69999999999993 0.19999999999998863-20.40000000000009 0-40.90000000000009 0-61.90000000000009h475.99999999999994c0 5.100000000000023-0.09999999999990905 9.400000000000091 0 13.700000000000045 0.5 22-0.39999999999997726 44 1.8000000000000682 65.89999999999998 3.6000000000000227 36.80000000000007 33.299999999999955 62.89999999999998 71.39999999999998 65 35.5 2.1000000000000227 68.5-22 76.29999999999995-56.69999999999993 2.2000000000000455-9.5 2.300000000000068-19.600000000000023 2.400000000000091-29.40000000000009 0.2999999999999545-19.299999999999955 0.09999999999990905-38.69999999999993 0.09999999999990905-59.19999999999993 6.600000000000023 0 11.700000000000045 0.1999999999999318 16.700000000000045 0 40.299999999999955-1.1000000000000227 73.10000000000002-32 73.29999999999995-71.39999999999998 0.7000000000000455-88 0.6000000000000227-176 0.10000000000002274-264.1z m-765.3-160.10000000000002c7.999999999999972-33.80000000000001 15.799999999999983-67.60000000000002 23.49999999999997-101.5 2.5999999999999943-11.400000000000006 12.5-21.099999999999994 24.099999999999994-22.599999999999994 5.400000000000034-0.8000000000000114 10.900000000000034-0.9000000000000057 16.5-0.9000000000000057 151.10000000000002-0.09999999999999432 302.2-0.09999999999999432 453.40000000000003-0.09999999999999432 31.600000000000023 0 36.60000000000002 4.099999999999994 44.10000000000002 34.900000000000006 14 57.80000000000001 28.299999999999955 115.80000000000001 42.39999999999998 173.59999999999997 0.2999999999999545 1.400000000000034 0.39999999999997726 2.8000000000000114 0.7999999999999545 5.5h-626.5999999999999c7.299999999999926-30.099999999999966 14.799999999999926-59.39999999999998 21.799999999999926-88.89999999999998z m-40.10000000000002 349.29999999999995c-56.7 0.10000000000002274-102.9-45.09999999999991-103.4-101.5-0.5999999999999943-57.39999999999998 45-103.89999999999998 102.1-104.29999999999995 57.80000000000001-0.39999999999997726 105.30000000000001 46.700000000000045 104.80000000000001 103.89999999999998-0.30000000000001137 56-46.900000000000006 101.80000000000007-103.5 101.89999999999998z m650.6 0c-56.700000000000045 0.10000000000002274-102.89999999999998-45.09999999999991-103.39999999999998-101.5-0.5-57.39999999999998 45-103.89999999999998 102.19999999999993-104.29999999999995 57.700000000000045-0.39999999999997726 105.20000000000005 46.700000000000045 104.70000000000005 103.89999999999998-0.39999999999997726 56-46.89999999999998 101.80000000000007-103.5 101.89999999999998z m-0.8000000000000682-175.29999999999995c-40.299999999999955 0.2999999999999545-72.29999999999995 33-71.89999999999998 73.39999999999998 0.39999999999997726 39.700000000000045 32.89999999999998 71.5 72.80000000000007 71.39999999999998 39.799999999999955-0.09999999999990905 72.59999999999991-32.299999999999955 72.89999999999998-71.69999999999993 0.1999999999999318-40.200000000000045-33.200000000000045-73.39999999999998-73.80000000000007-73.10000000000002z m-650.5999999999999-2.6000000000000227c-40.00000000000006 0.3000000000000682-71.90000000000005 34.200000000000045-71.50000000000004 76.10000000000002 0.3999999999999915 41.10000000000002 32.7 74.10000000000002 72.39999999999999 74 39.599999999999994-0.10000000000002274 72.20000000000002-33.5 72.5-74.29999999999995 0.30000000000001137-41.700000000000045-33-76.10000000000002-73.4-75.80000000000007z"/>
</svg>
