<svg xmlns="http://www.w3.org/2000/svg" viewBox="0 0 1000 1000" width="1000" height="1000">
<path d="M520.7 701.3c-15.200000000000045-26.09999999999991-37.200000000000045-36.59999999999991-65.40000000000003-41.09999999999991-104-16.700000000000045-208.10000000000002-15-312.4-4.100000000000023-41.70000000000003 4.399999999999977-77.50000000000003 17.600000000000023-96.80000000000004 59.39999999999998-5.699999999999996 12.399999999999977-15.599999999999994 23-23.499999999999993 34.39999999999998-34.7 50-32.7 54.700000000000045 29 67.60000000000002 77.20000000000002 16.100000000000023 155.6 17 229.6 20.100000000000023 65.30000000000001-1.1000000000000227 126.30000000000001-3.300000000000068 186.90000000000003-10.600000000000023 32.69999999999999-3.8999999999999773 65.60000000000002-8.5 96.39999999999998-21.5 14.200000000000045-6 20.5-13.5 8.299999999999955-29.200000000000045-18.699999999999932-24-36.799999999999955-48.799999999999955-52.09999999999991-75z m-56.30000000000007-0.5c-34.299999999999955 10.700000000000045-70.09999999999997 13.5-105.59999999999997 15.5-73.90000000000003 4.300000000000068-147.8 3.5-221.10000000000002-9.099999999999909-8.599999999999994-1.5-17.19999999999999-3.300000000000068-25.19999999999999-6.400000000000091-6.799999999999997-2.599999999999909-17.400000000000006-3.3999999999999773-17.299999999999997-13.199999999999932 0.20000000000000284-9.399999999999977 10-10.899999999999977 17.299999999999997-13.100000000000023 48.80000000000001-15 99.69999999999999-13.600000000000023 148.89999999999998-18.299999999999955 63.5 0 126.10000000000002 1.5 187.70000000000005 14.399999999999977 5.099999999999966 1.1000000000000227 10.199999999999989 2.2999999999999545 15.099999999999966 4.100000000000023 7.100000000000023 2.599999999999909 17.30000000000001 3.699999999999932 17.400000000000034 12.899999999999977 0.0999999999999659 9.399999999999977-10.300000000000011 11-17.200000000000045 13.199999999999932z m-41.599999999999966-208.89999999999998c14.300000000000011 3.900000000000034 22.30000000000001-0.6999999999999886 29.399999999999977-13.299999999999955 13.100000000000023-23.400000000000034 27.80000000000001-46.10000000000002 41.80000000000001-69.10000000000002 31.200000000000045-51.30000000000001 30.600000000000023-65.39999999999998-5.699999999999989-112.10000000000002 6.899999999999977-1.2999999999999545 13.699999999999989-1.8999999999999773 19.80000000000001-4.099999999999966 4.5-1.5 10.799999999999955-2.8000000000000114 11.199999999999932-9.199999999999989 0.40000000000009095-5.2000000000000455-4.899999999999977-6.7000000000000455-8.399999999999977-8.800000000000011-41.5-25.400000000000006-83.29999999999995-50.400000000000006-124.69999999999999-75.9-11.5-7.200000000000017-16.099999999999966-4.400000000000006-15.199999999999989 8.400000000000006 0.5 6.799999999999983 2.8999999999999773 13.5 4.800000000000011 22.19999999999999-50.19999999999999-13-70.90000000000003-4.699999999999989-96.80000000000001 37.80000000000001-15.399999999999977 25.19999999999999-30.099999999999994 50.89999999999998-46.400000000000006 75.5-8.5 12.599999999999966-9.400000000000006 21.80000000000001 1.4000000000000057 33.69999999999999 51.60000000000002 57.19999999999999 114.60000000000002 95 188.8 114.89999999999998z m505.09999999999997 127.20000000000005c1.3999999999999773-13.800000000000068-6-25.800000000000068-23.5-34.30000000000007-108.5-52.5-216.60000000000002-106.09999999999997-325.1-158.69999999999993-42.09999999999991-20.400000000000034-42-19.200000000000045-66.89999999999998 21-8.699999999999989 13.899999999999977-8.799999999999955 20.299999999999955 7 29.5 109.60000000000002 63.69999999999993 218.39999999999998 128.69999999999993 327.5 193.19999999999993 39.30000000000007 23.200000000000045 78.39999999999998 1 81-50.69999999999993z m-697.5999999999999-144.20000000000005c35.09999999999991 22.400000000000034 70.59999999999991 44 106.59999999999991 65 33 19.200000000000045 61 13 89.5-20.899999999999977-89-19.600000000000023-160.39999999999998-64-217.99999999999997-131.8-17.900000000000006 36.19999999999999-10 67.30000000000001 21.900000000000006 87.69999999999999z m720.9999999999999 134.39999999999998c3.7000000000000455 19.90000000000009 6 38.700000000000045-3.8999999999999773 56.5-9.699999999999932 17.5-25 28.40000000000009-46.5 34.40000000000009 22.5 15.299999999999955 41.200000000000045 31.299999999999955 66.5 15.5 21.5-13.300000000000068 33.200000000000045-33.30000000000007 32.60000000000002-58.5-0.7000000000000455-30.100000000000023-24.399999999999977-38.80000000000007-48.700000000000045-47.90000000000009z m-442.4-398.19999999999993c-39.19999999999999-17.200000000000017-68.59999999999997-65.80000000000001-120.69999999999999-43.20000000000002-0.5999999999999659 2.6999999999999886-1.1999999999999886 5.299999999999983-1.8999999999999773 8 48.599999999999966 29.5 97.09999999999997 59.099999999999994 146.90000000000003 89.4 7.2999999999999545-27.80000000000001-3.7000000000000455-45.20000000000002-24.300000000000068-54.20000000000002z"/>
</svg>
