<svg xmlns="http://www.w3.org/2000/svg" viewBox="0 0 1000 1000" width="1000" height="1000">
<path d="M249.7 214.4c71.19999999999999 14.099999999999994 142.10000000000002 29.400000000000006 214.10000000000002 37.79999999999998 10.5 1.200000000000017 17.19999999999999 2.3000000000000114 17 16.30000000000001-0.6000000000000227 36.80000000000001 0.19999999999998863 73.60000000000002 0.19999999999998863 110.5 0 81-0.30000000000001137 162.10000000000002-0.30000000000001137 243.10000000000002 0 4.399999999999977-2 11.799999999999955 3.8000000000000114 12.5 11.300000000000011 1.1999999999999318 23.5 2.8999999999999773 33.89999999999998-0.7000000000000455 7.100000000000023-2.3999999999999773 3.1000000000000227-14.600000000000023 3.1000000000000227-22.299999999999955 0.20000000000004547-112.30000000000001 0.20000000000004547-224.60000000000002 0.10000000000002274-336.8 0-11.900000000000034-1.3000000000000682-21.200000000000017 15.5-22.80000000000001 69.89999999999998-6.599999999999994 138.5-22.400000000000006 207.5-35.599999999999994 19.699999999999932-3.8000000000000114 26-10.300000000000011 23.399999999999977-32.80000000000001-2.7999999999999545-24-17.799999999999955-14-27.200000000000045-14.099999999999994-79.5-0.9000000000000057-159-0.5-238.39999999999998-0.5-82.59999999999997 0-165.2 0-247.7 0-9.799999999999983 0-21.19999999999999-2.8000000000000114-19.69999999999999 14.900000000000006 1.0999999999999943 12.299999999999983-7.300000000000011 26.099999999999994 14.699999999999989 30.5z m739.9000000000001 333.4c-2.900000000000091-3.2999999999999545-3.6000000000001364-8.899999999999977-5.400000000000091-13.5-32.40000000000009-83.09999999999997-64.70000000000005-166.19999999999993-97.5-249.19999999999993-3.1000000000000227-7.7000000000000455-3.400000000000091-17.80000000000001-18-24.900000000000034 40 102.90000000000003 78.09999999999991 201 117.59999999999991 302.50000000000006-39.89999999999998 0-76.69999999999993-0.900000000000091-113.39999999999998 0.5-17.699999999999932 0.599999999999909-23.600000000000023-4.100000000000023-23.299999999999955-24.100000000000023 1.1999999999999318-82 0.6000000000000227-164.10000000000002 0.39999999999997726-246.10000000000002 0-8.199999999999989 2-17.100000000000023-3.7000000000000455-25.80000000000001-7.7999999999999545 8.199999999999989-4.899999999999977 16.69999999999999-5 24.19999999999999-0.1999999999999318 83.70000000000005-0.5 167.40000000000003 0.20000000000004547 251 0.10000000000002274 16-3.8999999999999773 21.300000000000068-19.200000000000045 20.700000000000045-31.699999999999932-1.2000000000000455-63.39999999999998-1.3999999999999773-95 0-18.5 0.7999999999999545-22.5-2.8999999999999773-14.699999999999932-22.300000000000068 33.89999999999998-84.19999999999993 66.60000000000002-168.89999999999998 99.5-253.59999999999997 2.699999999999932-7.199999999999989 8.399999999999977-13.899999999999977 5.399999999999977-24.80000000000001-9.600000000000023 5.300000000000011-9.899999999999977 14.5-12.700000000000045 21.600000000000023-33.89999999999998 85.80000000000001-67.39999999999998 171.8-101.09999999999991 257.79999999999995-2.400000000000091 6-3.5 14.900000000000091-7.7000000000000455 17.40000000000009-12.5 7.099999999999909-6.399999999999977 13.899999999999977-1.5 20.899999999999977 17.899999999999977 25.199999999999932 40.89999999999998 43.19999999999993 70.70000000000005 46.799999999999955 52.299999999999955 6.100000000000023 104.69999999999993 4.800000000000068 157.0999999999999 0.7000000000000455 20.700000000000045-1.6000000000000227 38.700000000000045-11.300000000000068 54.200000000000045-25.300000000000068 16.100000000000023-14.399999999999977 36-28.799999999999955 13.100000000000023-54.5z m-677.9000000000001 15.5c-9.700000000000045-5.599999999999909-10.300000000000068-15.699999999999932-13.700000000000045-24.299999999999955-33.60000000000002-85.10000000000002-66.80000000000001-170.39999999999998-100.5-255.5-2.8000000000000114-7.100000000000023-2-17.69999999999999-13.199999999999989-19.69999999999999-0.9000000000000057 9.599999999999966 3.8999999999999773 16.399999999999977 6.699999999999989 23.599999999999966 32.400000000000006 83.10000000000002 64.9 166.20000000000005 97.39999999999998 249.20000000000005 10.100000000000023 26 10 26.100000000000023-15.5 26.100000000000023-30.099999999999966 0.09999999999990905-60.29999999999998-1-90.29999999999998 0.5-17.099999999999994 0.7999999999999545-22.5-4.100000000000023-22.19999999999999-23 1-81.90000000000003 0.4000000000000057-163.80000000000007 0.4000000000000057-245.80000000000007v-24.399999999999977c-2.5 0-5.100000000000023 0-7.600000000000023 0 0 11.800000000000011 0 23.69999999999999 0 35.5 0 78.60000000000002 0.10000000000002274 157.2 0 235.79999999999995-0.09999999999999432 9.700000000000045 3.700000000000017 22-13.399999999999977 21.700000000000045-40.000000000000014-0.7999999999999545-80.00000000000001-0.2999999999999545-122.9-0.2999999999999545 19.999999999999993-52.400000000000034 39.3-102.10000000000002 57.8-152.10000000000002 18.099999999999994-49 41.599999999999994-95.80000000000001 57.999999999999986-151.60000000000002-11.999999999999986 8.600000000000023-12.799999999999983 17.100000000000023-15.599999999999994 24.19999999999999-33.8 86.10000000000002-67.39999999999999 172.10000000000002-101.1 258.2-2.4000000000000004 6-3.6999999999999993 14.899999999999977-8 17.200000000000045-13.9 7.5-6.6 14.399999999999977-1.2000000000000002 22.100000000000023 22.3 31.59999999999991 52.7 47.89999999999998 89.3 49 40.900000000000006 1.2999999999999545 81.80000000000001 1.1999999999999318 122.70000000000002 0 37.69999999999999-1.1000000000000227 68.19999999999999-18.600000000000023 90.39999999999998-51.30000000000007 2.8000000000000114-4.199999999999932 11-10.199999999999932 2.5-15.100000000000023z m329.79999999999995 294.30000000000007c-9.200000000000045 0.6999999999999318-18.5 0.10000000000002274-27.700000000000045 0.10000000000002274-46.19999999999993 0-46.09999999999991 0-46.59999999999991-50.10000000000002-0.10000000000002274-6.600000000000023 0-13.200000000000045-1.1000000000000227-19.600000000000023-6-37.299999999999955-33.60000000000002-61.10000000000002-68.20000000000005-59.39999999999998-34.39999999999998 1.6999999999999318-59.099999999999966 28.399999999999977-61.099999999999966 66.79999999999995-0.6999999999999886 14.700000000000045-0.9000000000000341 29.5-0.19999999999998863 44.200000000000045 0.5999999999999659 13.600000000000023-3.8000000000000114 19.100000000000023-17.200000000000045 18.399999999999977-18.399999999999977-1.1000000000000227-37 0-55.5-0.39999999999997726-10.199999999999989-0.20000000000004547-17.599999999999966 0.39999999999997726-17.599999999999966 15.199999999999932 0.0999999999999659 14.200000000000045 6.699999999999989 15.600000000000023 17.30000000000001 15.600000000000023 45.5-0.39999999999997726 90.89999999999998-0.1999999999999318 136.39999999999998-0.1999999999999318 47 0 94.10000000000002-0.20000000000004547 141.10000000000002 0.1999999999999318 10.5 0.10000000000002274 15.100000000000023-3 15-15.199999999999932-0.10000000000002274-11.600000000000023-3.3999999999999773-16.5-14.600000000000023-15.600000000000023z m-486-604.9000000000001c36.599999999999994 0.8000000000000682 67-29.199999999999932 68.6-67.79999999999993 1.700000000000017-38.5-29.299999999999983-72.7-66.1-73.4-35.599999999999994-0.5999999999999943-66.5 31.400000000000006-67.2 69.5-0.7000000000000028 38.5 28.5 70.80000000000001 64.7 71.69999999999999z m689.9 5.684341886080802e-14c36.60000000000002 0.10000000000002274 65.80000000000007-30.799999999999983 66-69.69999999999999 0.20000000000004547-40.30000000000001-29.399999999999977-71.9-66.89999999999998-71.4-35.299999999999955 0.4000000000000057-64.20000000000005 31.099999999999994-64.79999999999995 68.70000000000002-0.7000000000000455 40.599999999999994 28.199999999999932 72.39999999999998 65.69999999999993 72.39999999999998z m-373.7 404.00000000000006c-25.69999999999999 20.199999999999932-21.80000000000001 48.299999999999955-18.899999999999977 79.29999999999995 33.5-24.5 65.19999999999999-22.899999999999977 99.30000000000001 1 1.6000000000000227-34.89999999999998 4.100000000000023-66-26.300000000000068-84.10000000000002-18.299999999999955-11-37.099999999999966-9.699999999999932-54.099999999999966 3.800000000000068z"/>
</svg>
