<svg xmlns="http://www.w3.org/2000/svg" viewBox="0 0 1000 1000" width="1000" height="1000">
<path d="M240.5 776.9c0.4000000000000057-41.5 14.099999999999994-78.60000000000002 27.80000000000001-115.69999999999993 8.399999999999977-22.700000000000045 18-45 22.30000000000001-69.10000000000002 3.599999999999966-19.899999999999977-0.8000000000000114-37.200000000000045-14.400000000000034-52-8.899999999999977-9.700000000000045-18.19999999999999-19.100000000000023-27.19999999999999-28.80000000000001-7.5-8.100000000000023-7.400000000000006-13.100000000000023 0.9000000000000057-20.19999999999999 33.79999999999998-28.80000000000001 67.9-57.30000000000001 101.49999999999997-86.30000000000001 6.900000000000034-6 7.900000000000034-1.1999999999999886 10.400000000000034 3.6999999999999886 23.599999999999966 48.19999999999999 59 82.89999999999998 112.89999999999998 94.80000000000001 44.00000000000006 9.800000000000011 82.09999999999997-4.5 116.00000000000006-32.10000000000002 21-17.099999999999966 37.19999999999993-38.30000000000001 47.299999999999955-63.69999999999999 2.8999999999999773-7.300000000000011 5.399999999999977-7 10.700000000000045-2.3999999999999773 33.19999999999993 28.399999999999977 66.69999999999993 56.599999999999966 100 84.89999999999998 9.799999999999955 8.399999999999977 9.899999999999977 13 1.099999999999909 22.399999999999977-9 9.600000000000023-18.299999999999955 19-27.09999999999991 28.800000000000068-13.200000000000045 14.699999999999932-17 31.899999999999977-13.400000000000091 51.299999999999955 6.100000000000023 32.60000000000002 20.800000000000068 62.39999999999998 31.300000000000068 93.5 11.199999999999932 33 20.600000000000023 66.20000000000005 18.100000000000023 101.60000000000002-4.400000000000091 63.69999999999993-36.80000000000007 108.89999999999998-91.5 139.60000000000002-23.200000000000045 13-48.40000000000009 20.5-74.10000000000002 26.59999999999991-30.899999999999977 7.300000000000068-59.30000000000007 19.300000000000068-82.90000000000003 41-5.699999999999989 5.2000000000000455-12 7.7000000000000455-18.399999999999977 1.6000000000000227-28.30000000000001-27-63.900000000000034-37.60000000000002-100.60000000000002-46.69999999999993-44.39999999999998-11-83.80000000000001-31.100000000000023-113.5-67.10000000000002-25.799999999999983-31-36.89999999999998-67.10000000000002-37.19999999999999-105.70000000000005z m182.89999999999998 11.200000000000045c-0.2999999999999545 8.299999999999955 6.300000000000011 11.5 14.600000000000023 6.600000000000023 18.5-11 36.89999999999998-22.200000000000045 55-33.700000000000045 5.100000000000023-3.2000000000000455 8.899999999999977-3.2999999999999545 14 0 17 10.799999999999955 34.299999999999955 21.100000000000023 51.39999999999998 31.600000000000023 4.7000000000000455 2.7999999999999545 9.300000000000068 7.399999999999977 15.100000000000023 3 5.7999999999999545-4.399999999999977 2.3999999999999773-10.300000000000068 1.2000000000000455-15.399999999999977-4.5-19.600000000000023-9.100000000000023-39.10000000000002-14.100000000000023-58.60000000000002-1.3999999999999773-5.399999999999977-0.39999999999997726-8.800000000000068 4-12.5 15.799999999999955-13 31.199999999999932-26.5 46.69999999999993-39.89999999999998 3.800000000000068-3.300000000000068 9.400000000000091-6.2000000000000455 7.2000000000000455-12.5-2.2000000000000455-6.600000000000023-8.600000000000023-6-14.100000000000023-6.5-20.100000000000023-1.6000000000000227-40.10000000000002-3.300000000000068-60.19999999999993-4.400000000000091-5.600000000000023-0.2999999999999545-8.600000000000023-2.2999999999999545-10.800000000000068-7.599999999999909-7.899999999999977-19.600000000000023-16.199999999999932-39-24.399999999999977-58.60000000000002-1.6999999999999886-4.2000000000000455-3.1000000000000227-8.800000000000068-8.699999999999989-9.100000000000023-6.300000000000011-0.2999999999999545-7.800000000000011 4.600000000000023-9.699999999999989 9.100000000000023-8 19.199999999999932-16.30000000000001 38.299999999999955-23.900000000000034 57.60000000000002-2.3999999999999773 6.199999999999932-5.899999999999977 8.299999999999955-12.300000000000011 8.599999999999909-20.099999999999966 1.1000000000000227-40.19999999999999 2.800000000000068-60.19999999999999 4.400000000000091-5.199999999999989 0.39999999999997726-11 0.1999999999999318-13 6.399999999999977-1.8999999999999773 5.899999999999977 2.900000000000034 8.699999999999932 6.5 11.799999999999955 14.5 12.5 28.600000000000023 25.300000000000068 43.60000000000002 37.10000000000002 7.599999999999966 6 9.5 11.600000000000023 6.800000000000011 21-5.600000000000023 20.5-9.900000000000034 41.200000000000045-14.700000000000045 61.60000000000002z m-99.5-519.7c1.1000000000000227-15.499999999999972 0.7000000000000455-30.399999999999977 14.300000000000011-40.49999999999997 3.1000000000000227-2.3000000000000114 1.5-6.5 1.6000000000000227-9.900000000000006 0.5-20 0.39999999999997726-20 18.80000000000001-13.5 43.799999999999955 15.5 88.79999999999995 24 135.29999999999995 25.19999999999999 53.5 1.4000000000000057 104.70000000000005-9 154.5-28 11.300000000000068-4.299999999999983 11.399999999999977-4.299999999999983 11.399999999999977 7.900000000000006 0 9.300000000000011-0.8999999999999773 18.200000000000017 8.300000000000068 25 4.899999999999977 3.5999999999999943 5.7999999999999545 10.800000000000011 6.600000000000023 17.099999999999994 5.7999999999999545 42.900000000000034-9.100000000000023 79.10000000000002-36.60000000000002 110.90000000000003-5.100000000000023 5.899999999999977-8.800000000000068 12.099999999999966-11.200000000000045 19.5-7.2999999999999545 23.099999999999966-19.5 43.599999999999966-36 61.39999999999998-54.39999999999998 58.39999999999998-133.29999999999995 56.80000000000001-185.5-3.8000000000000114-14.899999999999977-17.30000000000001-26-36.69999999999999-32.89999999999998-58.5-2.1000000000000227-6.699999999999989-5.399999999999977-12.300000000000011-10.199999999999989-17.69999999999999-23.900000000000034-27.30000000000001-38.60000000000002-58.69999999999999-38.400000000000034-95.10000000000002z m178.3-268.4c65.00000000000006 4.2 122.19999999999999 27.6 167.40000000000003 77.1 13 14.300000000000011 22.399999999999977 30.80000000000001 24.799999999999955 50.5 0.3000000000000682 2.4000000000000057 0.6000000000000227 4.800000000000011 0.6000000000000227 7.200000000000017-0.20000000000004547 20.099999999999994-3.3999999999999773 22.19999999999999-20.899999999999977 14.299999999999983-62-27.69999999999999-126.70000000000005-42.39999999999999-194.90000000000003-38.599999999999994-55.599999999999966 3.0999999999999943-108.5 17.599999999999994-158.89999999999998 41.30000000000001-11.100000000000023 5.199999999999989-11.699999999999989 4.699999999999989-14.100000000000023-7.800000000000011-3-15.5 1.1000000000000227-29.5 7.900000000000034-43.099999999999994 6.2999999999999545-12.5 14.699999999999989-23.60000000000001 24.799999999999955-33.2 45.400000000000034-43.1 99.70000000000005-65 163.3-67.7z m-2.3000000000000114 90.7c23.700000000000045 0.09999999999999432 42.10000000000002-18.400000000000006 42.10000000000002-42.1 0-22.700000000000003-18.700000000000045-41.5-41.69999999999999-41.800000000000004-22.5-0.29999999999999716-41.900000000000034 18.800000000000004-42.30000000000001 41.300000000000004-0.30000000000001137 23.4 18.5 42.49999999999999 41.89999999999998 42.6z m181.20000000000005 76.3c-121.60000000000002 58.099999999999994-240.5 58-361.90000000000003 0.19999999999998863 58.400000000000034-27.69999999999999 117.40000000000003-43.599999999999994 180.3-43.79999999999998 63.200000000000045-0.20000000000000284 122.29999999999995 16.19999999999999 181.60000000000002 43.599999999999994z"/>
</svg>
