<svg xmlns="http://www.w3.org/2000/svg" viewBox="0 0 1000 1000" width="1000" height="1000">
<path d="M305.9 603.3l171.40000000000003-380.69999999999993c-26.80000000000001-5.600000000000023-56.60000000000002-9.500000000000028-89.5-11.300000000000011l-154.9 357.8c31.799999999999983 5.600000000000023 56.70000000000002 20.799999999999955 72.99999999999997 34.19999999999993z m450-478.49999999999994l-249.39999999999998-122.10000000000001c-13.199999999999989-6.500000000000003-28.69999999999999-0.9000000000000028-34.5 12.699999999999998l-64.30000000000001 148.6c149.2 18.099999999999994 245.40000000000003 75.30000000000001 305.2 130.2l56.60000000000002-133.1c5.7000000000000455-13.599999999999994-0.2999999999999545-29.799999999999983-13.600000000000023-36.3z m-64.5 223.09999999999997c-10.199999999999932-14.599999999999966-26.600000000000023-34-51.39999999999998-53.599999999999966l-168.5 374.09999999999997c29.19999999999999 4.800000000000068 53.10000000000002 17.899999999999977 70.60000000000002 31.200000000000045l149.29999999999995-351.70000000000005z m-349 271.70000000000005c42.30000000000001 5.5 72.80000000000001 21.5 91.5 34.799999999999955l172.5-383.29999999999995c-24.199999999999932-14.5-53.799999999999955-28.00000000000003-89.69999999999993-38.60000000000002l-174.30000000000007 387.1z m5.300000000000011 282.29999999999995c-22.19999999999999-16.899999999999977-57.69999999999999-36.19999999999993-107.69999999999999-43.799999999999955l6.800000000000011 141.89999999999998 100.89999999999998-98.10000000000002z m172.90000000000003-168.29999999999995c-17.80000000000001-14-44.60000000000002-28.800000000000068-78.20000000000005-27l-9.599999999999966 0.5-6.5-7.300000000000068c-1.5-1.6999999999999318-39.19999999999999-42.299999999999955-113.90000000000003-42.299999999999955h-9.799999999999955l-6-7.7999999999999545c-1.3000000000000114-1.6000000000000227-26.700000000000045-32.700000000000045-68.60000000000002-41l10 208.5c65.5 8.299999999999955 111 34.39999999999998 138.60000000000002 56.39999999999998l144-140z"/>
</svg>
