<svg xmlns="http://www.w3.org/2000/svg" viewBox="0 0 1000 1000" width="1000" height="1000">
<path d="M940.5 185.7c-89.79999999999995-57.69999999999999-179.70000000000005-115.1-268.9-173.6-27.700000000000045-18.099999999999994-48.10000000000002-16.799999999999994-69.30000000000007 10.400000000000006-117.69999999999993 151.1-236.29999999999995 301.4-354.49999999999994 452.1-11.700000000000017 14.899999999999977-22.400000000000006 30.19999999999999-14.800000000000011 50.89999999999998 23.69999999999999 65.20000000000005 34.60000000000002 131 9.900000000000006 190.60000000000002-7.599999999999994 29.799999999999955 4.799999999999983 42.5 21.599999999999994 53.39999999999998 49.80000000000001 32.10000000000002 99.89999999999998 63.799999999999955 148.89999999999998 97.10000000000002 21.900000000000034 14.899999999999977 39.900000000000034 12.799999999999955 59.700000000000045-3 47.5-38 102.29999999999995-59.10000000000002 162.29999999999995-66.70000000000005 25.899999999999977-3.2999999999999545 41.80000000000007-16.399999999999977 54.10000000000002-39.799999999999955 88.10000000000002-167.89999999999998 176.89999999999998-335.5 266.5-502.5 15.600000000000023-29.50000000000003 12.700000000000045-50.80000000000001-15.5-68.90000000000003z m-63.799999999999955 78.90000000000003c-74.40000000000009 138.79999999999995-147.80000000000007 278.29999999999995-221.9000000000001 417.29999999999995-5.199999999999932 9.899999999999977-8.099999999999909 23.200000000000045-23.5 24.800000000000068-9.899999999999977-5.600000000000023-20.59999999999991-10.900000000000091-30.5-17.40000000000009-86.79999999999995-56.09999999999991-172.89999999999998-113.39999999999998-260.49999999999994-168.0999999999999-26.100000000000023-16.300000000000068-24.900000000000034-28.500000000000057-7.5-50.30000000000007 98.19999999999999-123.39999999999998 195.8-247.2 292.40000000000003-371.9 16.199999999999932-21 28.799999999999955-22.400000000000006 50-8.099999999999994 63.19999999999993 42.69999999999999 126.79999999999995 84.79999999999998 191.5999999999999 125 23.800000000000068 14.699999999999989 21 27.900000000000006 9.900000000000091 48.70000000000002z m-648.4000000000001 582.6999999999999l-76.89999999999995 118.30000000000007h187.20000000000002l35.599999999999966-59.39999999999998-102-68c-14.599999999999966-9.700000000000045-34.29999999999998-5.600000000000023-43.89999999999998 9.099999999999909z m102.70000000000005 132.30000000000007h-286.3c-5.599999999999987 0-10.199999999999989 4.600000000000023-10.199999999999989 10.199999999999932s4.600000000000001 10.200000000000045 10.200000000000003 10.200000000000045h286.3c5.600000000000023 0 10.199999999999989-4.600000000000023 10.199999999999989-10.200000000000045s-4.599999999999966-10.199999999999932-10.199999999999989-10.199999999999932z"/>
</svg>
