<svg xmlns="http://www.w3.org/2000/svg" viewBox="0 0 1000 1000" width="1000" height="1000">
<path d="M580.6 291.8c5.100000000000023 4.899999999999977 10.899999999999977 8.599999999999966 17.600000000000023 11.099999999999966 6.699999999999932 2.5 13.699999999999932 3.7000000000000455 21.09999999999991 3.7000000000000455 5.2000000000000455 0 9.700000000000045-0.5 13.700000000000045-1.7000000000000455 3.8999999999999773-1.099999999999966 7.399999999999977-2.599999999999966 10.399999999999977-4.399999999999977s5.600000000000023-3.8000000000000114 7.7000000000000455-5.899999999999977c2.1000000000000227-2.1000000000000227 4-4.300000000000011 5.5-6.600000000000023-1.3999999999999773 7.199999999999989-3.7000000000000455 14.100000000000023-7 20.600000000000023-3.300000000000068 6.5-7.5 12.299999999999955-12.700000000000045 17.399999999999977-5.199999999999932 5.100000000000023-11.600000000000023 9.100000000000023-19 12.199999999999989-7.5 3.1000000000000227-15.899999999999977 4.800000000000011-25.299999999999955 5.100000000000023-1.5 5-2.300000000000068 9.5-2.300000000000068 13.599999999999966 0 2.900000000000034 0.3000000000000682 5.7000000000000455 0.900000000000091 8.5 0.599999999999909 2.7000000000000455 1.2999999999999545 5.5 2.199999999999932 8.200000000000045 17.300000000000068-0.7000000000000455 32.39999999999998-4.100000000000023 45.10000000000002-10.300000000000011 12.700000000000045-6.199999999999989 23.399999999999977-14.400000000000034 31.700000000000045-24.600000000000023s14.599999999999909-22.099999999999966 18.799999999999955-35.69999999999999c4.100000000000023-13.600000000000023 6.100000000000023-28.19999999999999 6.100000000000023-43.80000000000001 0-25-5.600000000000023-43.79999999999998-16.899999999999977-56.29999999999998-11.300000000000068-12.5-27.700000000000045-18.80000000000001-49.10000000000002-18.80000000000001-8.200000000000045 0-16.300000000000068 1.3000000000000114-24.200000000000045 4s-14.799999999999955 6.599999999999994-20.799999999999955 12c-6 5.300000000000011-10.800000000000068 11.900000000000006-14.5 19.700000000000017s-5.5 16.799999999999983-5.5 27.099999999999994c0 10.099999999999994 1.5 18.900000000000006 4.5 26.400000000000006s7 13.699999999999989 12 18.5z m29.5-69.80000000000001c5.2999999999999545-5.300000000000011 11.899999999999977-8 19.799999999999955-8 8.200000000000045 0 14.800000000000068 2.9000000000000057 19.700000000000045 8.599999999999994 4.899999999999977 5.700000000000017 7.2999999999999545 14 7.2999999999999545 24.80000000000001 0 10.099999999999994-2.5 17.700000000000017-7.600000000000023 22.700000000000017-5.099999999999909 5.099999999999966-11.899999999999977 7.599999999999966-20.5 7.599999999999966-7.699999999999932 0-14.099999999999909-2.5-19.09999999999991-7.300000000000011s-7.600000000000023-13-7.600000000000023-24.299999999999983c0-10.699999999999989 2.699999999999932-18.69999999999999 8-24.099999999999994z m123.19999999999993 111.10000000000002c5.400000000000091 7.699999999999989 12.300000000000068 13.699999999999989 20.700000000000045 18 8.399999999999977 4.2999999999999545 18.299999999999955 6.399999999999977 29.799999999999955 6.399999999999977s21.5-2.1999999999999886 30.100000000000023-6.399999999999977c8.600000000000023-4.300000000000011 15.600000000000023-10.300000000000011 21.100000000000023-18s9.600000000000023-16.80000000000001 12.299999999999955-27.400000000000034 4.100000000000023-22.099999999999966 4.100000000000023-34.599999999999966-1.2999999999999545-24.100000000000023-3.8999999999999773-34.70000000000002c-2.6000000000000227-10.599999999999994-6.600000000000023-19.80000000000001-12.100000000000023-27.5-5.5-7.700000000000017-12.399999999999977-13.800000000000011-20.799999999999955-18.099999999999994-8.399999999999977-4.400000000000006-18.300000000000068-6.600000000000023-29.800000000000068-6.600000000000023-11.599999999999909 0-21.699999999999932 2.200000000000017-30.199999999999932 6.600000000000023s-15.5 10.399999999999977-20.899999999999977 18.099999999999994c-5.5 7.699999999999989-9.600000000000023 16.900000000000006-12.400000000000091 27.5s-4.099999999999909 22.200000000000017-4.099999999999909 34.70000000000002c0 12.5 1.2999999999999545 24 4 34.599999999999966 2.699999999999932 10.600000000000023 6.7999999999999545 19.69999999999999 12.099999999999909 27.400000000000034z m30.100000000000023-104.00000000000003c5.100000000000023-9 12-13.5 20.899999999999977-13.5 8.700000000000045 0 15.600000000000023 4.5 20.5 13.5s7.300000000000068 23 7.300000000000068 42.00000000000003-2.5 33.099999999999966-7.300000000000068 42c-4.899999999999977 9-11.699999999999932 13.5-20.5 13.5-8.699999999999932 0-15.699999999999932-4.5-20.799999999999955-13.5-5.100000000000023-9-7.7000000000000455-23-7.7000000000000455-42 0.10000000000002274-19.00000000000003 2.6000000000000227-33.00000000000003 7.600000000000023-42.00000000000003z m118.39999999999998 4.599999999999994c3.400000000000091 3.5 7.5 6.300000000000011 12.200000000000045 8.200000000000017 4.7000000000000455 2 9.700000000000045 2.9000000000000057 15 2.9000000000000057 5.2999999999999545 0 10.399999999999977-1 15.200000000000045-2.9000000000000057s9-4.700000000000017 12.5-8.200000000000017 6.2999999999999545-7.599999999999994 8.299999999999955-12.199999999999989 3.1000000000000227-9.599999999999994 3.1000000000000227-14.900000000000006c0-5.299999999999983-1-10.400000000000006-3.1000000000000227-15.199999999999989-2-4.800000000000011-4.7999999999999545-8.900000000000006-8.299999999999955-12.300000000000011s-7.7000000000000455-6.199999999999989-12.5-8.199999999999989c-4.800000000000068-2.0999999999999943-9.800000000000068-3.0999999999999943-15.200000000000045-3.0999999999999943-5.2999999999999545 0-10.399999999999977 1-15 3.0999999999999943-4.7000000000000455 2.0999999999999943-8.799999999999955 4.799999999999983-12.200000000000045 8.199999999999989s-6.199999999999932 7.5-8.199999999999932 12.300000000000011c-2 4.799999999999983-3.1000000000000227 9.900000000000006-3.1000000000000227 15.199999999999989 0 5.300000000000011 1 10.300000000000011 3.1000000000000227 14.900000000000006s4.7999999999999545 8.699999999999989 8.199999999999932 12.199999999999989z m16-39.39999999999998c3.1000000000000227-3.3000000000000114 6.900000000000091-4.900000000000006 11.300000000000068-4.900000000000006s8.299999999999955 1.5999999999999943 11.600000000000023 4.900000000000006 4.899999999999977 7.399999999999977 4.899999999999977 12.299999999999983c0 5-1.6000000000000227 9-4.899999999999977 12.099999999999994-3.300000000000068 3.1000000000000227-7.100000000000023 4.600000000000023-11.600000000000023 4.600000000000023s-8.200000000000045-1.5-11.300000000000068-4.600000000000023c-3.099999999999909-3.0999999999999943-4.599999999999909-7.099999999999994-4.599999999999909-12.099999999999994 0-4.900000000000006 1.5-9.099999999999994 4.599999999999909-12.299999999999983z m-220.29999999999995 629.2c-22.399999999999977-250.89999999999998-214.10000000000002-452.5-460.5-490.4v-333.1h-175v1000h915.7v-176.5h-280.20000000000005z m-460.5 0v-375.6c183.39999999999998 35.900000000000034 325.4 187.39999999999998 346.70000000000005 375.6h-346.70000000000005z"/>
</svg>
