<svg xmlns="http://www.w3.org/2000/svg" viewBox="0 0 1000 1000" width="1000" height="1000">
<path d="M854.6 0h-708.9000000000001c-23.199999999999932 0-42.19999999999993 20.4-42.19999999999993 45.3v909.5c0 24.90000000000009 19 45.30000000000007 42.19999999999999 45.30000000000007h708.9000000000001c23.199999999999818 0 42.19999999999982-20.399999999999977 42.19999999999982-45.30000000000007v-909.5c0-24.899999999999956-19-45.299999999999955-42.19999999999993-45.299999999999955z m-493.40000000000003 878.3c0 11.600000000000023-8.899999999999977 21.100000000000023-19.69999999999999 21.100000000000023h-113.69999999999999c-10.800000000000011 0-19.700000000000017-9.5-19.700000000000017-21.100000000000023v-79.69999999999993c0-11.600000000000023 8.900000000000006-21.100000000000023 19.700000000000017-21.100000000000023h113.69999999999999c10.800000000000011 0 19.69999999999999 9.5 19.69999999999999 21.100000000000023v79.69999999999993z m0-172.69999999999993c0 11.600000000000023-8.899999999999977 21.100000000000023-19.69999999999999 21.100000000000023h-113.69999999999999c-10.800000000000011 0-19.700000000000017-9.5-19.700000000000017-21.100000000000023v-79.70000000000005c0-11.600000000000023 8.900000000000006-21.100000000000023 19.700000000000017-21.100000000000023h113.69999999999999c10.800000000000011 0 19.69999999999999 9.5 19.69999999999999 21.100000000000023v79.70000000000005z m0-164.70000000000005c0 11.600000000000023-8.899999999999977 21.100000000000023-19.69999999999999 21.100000000000023h-113.69999999999999c-10.800000000000011 0-19.700000000000017-9.5-19.700000000000017-21.100000000000023v-79.69999999999999c0-11.599999999999966 8.900000000000006-21.099999999999966 19.700000000000017-21.099999999999966h113.69999999999999c10.800000000000011 0 19.69999999999999 9.5 19.69999999999999 21.099999999999966v79.69999999999999z m215.50000000000006 337.4c0 11.600000000000023-8.900000000000091 21.100000000000023-19.700000000000045 21.100000000000023h-113.69999999999999c-10.800000000000011 0-19.69999999999999-9.5-19.69999999999999-21.100000000000023v-79.69999999999993c0-11.600000000000023 8.899999999999977-21.100000000000023 19.69999999999999-21.100000000000023h113.69999999999999c10.799999999999955 0 19.700000000000045 9.5 19.700000000000045 21.100000000000023v79.69999999999993z m0-172.69999999999993c0 11.600000000000023-8.900000000000091 21.100000000000023-19.700000000000045 21.100000000000023h-113.69999999999999c-10.800000000000011 0-19.69999999999999-9.5-19.69999999999999-21.100000000000023v-79.70000000000005c0-11.600000000000023 8.899999999999977-21.100000000000023 19.69999999999999-21.100000000000023h113.69999999999999c10.799999999999955 0 19.700000000000045 9.5 19.700000000000045 21.100000000000023v79.70000000000005z m0-164.70000000000005c0 11.600000000000023-8.900000000000091 21.100000000000023-19.700000000000045 21.100000000000023h-113.69999999999999c-10.800000000000011 0-19.69999999999999-9.5-19.69999999999999-21.100000000000023v-79.69999999999999c0-11.599999999999966 8.899999999999977-21.099999999999966 19.69999999999999-21.099999999999966h113.69999999999999c10.799999999999955 0 19.700000000000045 9.5 19.700000000000045 21.099999999999966v79.69999999999999z m215.5 337.4c0 11.600000000000023-8.900000000000091 21.100000000000023-19.700000000000045 21.100000000000023h-113.70000000000005c-10.799999999999955 0-19.699999999999932-9.5-19.699999999999932-21.100000000000023v-79.69999999999993c0-11.600000000000023 8.899999999999977-21.100000000000023 19.699999999999932-21.100000000000023h113.70000000000005c10.799999999999955 0 19.700000000000045 9.5 19.700000000000045 21.100000000000023v79.69999999999993z m0-172.69999999999993c0 11.600000000000023-8.900000000000091 21.100000000000023-19.700000000000045 21.100000000000023h-113.70000000000005c-10.799999999999955 0-19.699999999999932-9.5-19.699999999999932-21.100000000000023v-79.70000000000005c0-11.600000000000023 8.899999999999977-21.100000000000023 19.699999999999932-21.100000000000023h113.70000000000005c10.799999999999955 0 19.700000000000045 9.5 19.700000000000045 21.100000000000023v79.70000000000005z m0-164.70000000000005c0 11.600000000000023-8.900000000000091 21.100000000000023-19.700000000000045 21.100000000000023h-113.70000000000005c-10.799999999999955 0-19.699999999999932-9.5-19.699999999999932-21.100000000000023v-79.69999999999999c0-11.599999999999966 8.899999999999977-21.099999999999966 19.699999999999932-21.099999999999966h113.70000000000005c10.799999999999955 0 19.700000000000045 9.5 19.700000000000045 21.099999999999966v79.69999999999999z m0-230.5c0 16.600000000000023-12.700000000000045 30.200000000000045-28.100000000000023 30.200000000000045h-527.8c-15.500000000000057 0-28.10000000000008-13.600000000000023-28.10000000000008-30.200000000000045v-155.89999999999998c0-16.599999999999994 12.700000000000017-30.200000000000003 28.100000000000023-30.200000000000003h527.7c15.5 0 28.100000000000023 13.600000000000009 28.100000000000023 30.200000000000003v155.89999999999998z"/>
</svg>
