<svg xmlns="http://www.w3.org/2000/svg" viewBox="0 0 1000 1000" width="1000" height="1000">
<path d="M488.1 987c-56.80000000000001-55.299999999999955-113.5-110.70000000000005-170.60000000000002-165.70000000000005-7.300000000000011-7.099999999999909-10.5-14-10.5-24.199999999999932 0.30000000000001137-145.10000000000002 0.10000000000002274-290.20000000000005 0.10000000000002274-435.40000000000003v-20h384.9c0.2999999999999545 3.1000000000000227 0.6000000000000227 5.400000000000034 0.6000000000000227 7.800000000000011 0.10000000000002274 150.5 0.1999999999999318 301-0.10000000000002274 451.5 0 5.5-3.3999999999999773 12.100000000000023-7.2999999999999545 16.299999999999955-13.600000000000023 14.400000000000091-28.200000000000045 27.90000000000009-42.30000000000007 41.700000000000045-47.10000000000002 46-94.10000000000002 92.10000000000002-143.89999999999998 140.89999999999998-4.600000000000023-5.399999999999977-7.399999999999977-9.5-10.899999999999977-12.899999999999977z m107.60000000000002-271v-280.4h-94.60000000000002v280.4h94.60000000000002z m-127.80000000000007 184c2.8000000000000114 2.6000000000000227 7.900000000000034 3.8999999999999773 12 4.100000000000023 45.39999999999998 2.199999999999932 45.30000000000007 2.1000000000000227 78.10000000000002-29.700000000000045 20.899999999999977-20.299999999999955 42-40.5 65-62.69999999999993h-246.5c31.69999999999999 30.799999999999955 61.39999999999998 59.69999999999993 91.39999999999998 88.29999999999995z m-160.2-831.4c0.6999999999999886-37.200000000000024 37.400000000000034-68.50000000000003 76.60000000000002-68.60000000000002h228.8c45.10000000000002 0 80 34.1 79.89999999999998 77.9-0.10000000000002274 56.19999999999999 0 112.29999999999998 0 168.5v34.70000000000002h-385.6c0-71.90000000000003-0.8999999999999773-142.20000000000002 0.30000000000001137-212.50000000000003z m287.09999999999997 118.79999999999998v-92.4h-94.09999999999997v92.4h94.09999999999997z"/>
</svg>
