<svg xmlns="http://www.w3.org/2000/svg" viewBox="0 0 1000 1000" width="1000" height="1000">
<path d="M781.5 62.5h-563.1c-8.699999999999989 0-15.899999999999977 7-15.899999999999977 15.900000000000006v843.2c0 8.600000000000023 7.300000000000011 15.899999999999977 15.900000000000006 15.899999999999977h563.1c8.600000000000023 0 15.600000000000023-7.2999999999999545 15.600000000000023-15.899999999999977v-843.2c-0.10000000000002274-8.899999999999977-7-15.899999999999977-15.600000000000023-15.899999999999977z m-509.1 85.80000000000001c0-8.900000000000006 7-15.900000000000006 15.900000000000034-15.900000000000006h422.59999999999997c8.899999999999977 0 15.899999999999977 7 15.899999999999977 15.900000000000006v177.39999999999998c0 8.600000000000023-7 15.900000000000034-15.899999999999977 15.900000000000034h-422.59999999999997c-8.900000000000034 0-15.900000000000034-7.300000000000011-15.900000000000034-15.900000000000034v-177.39999999999998z m279.1 280.5v72.30000000000001c0 8.899999999999977-7 15.899999999999977-15.600000000000023 15.899999999999977h-72.29999999999995c-8.900000000000034 0-15.900000000000034-7-15.900000000000034-15.899999999999977v-72.30000000000001c0-8.600000000000023 7-15.900000000000034 15.900000000000034-15.900000000000034h72.29999999999995c8.600000000000023 0 15.600000000000023 7.2000000000000455 15.600000000000023 15.900000000000034z m-175 422.90000000000003c0 8.599999999999909-7 15.599999999999909-15.600000000000023 15.599999999999909h-72.29999999999995c-8.900000000000034 0-15.900000000000034-7-15.900000000000034-15.599999999999909v-72.70000000000005c0-8.600000000000023 7-15.899999999999977 15.900000000000034-15.899999999999977h72.29999999999995c8.600000000000023 0 15.600000000000023 7.2999999999999545 15.600000000000023 15.899999999999977v72.70000000000005z m0.30000000000001137-175.4000000000001c0 8.600000000000023-7.300000000000011 15.900000000000091-15.900000000000034 15.900000000000091h-72.29999999999995c-8.900000000000034 0-15.900000000000034-7.300000000000068-15.900000000000034-15.900000000000091v-72.29999999999995c0-8.899999999999977 7-15.899999999999977 15.900000000000034-15.899999999999977h72.29999999999995c8.600000000000023 0 15.900000000000034 7 15.900000000000034 15.899999999999977v72.29999999999995z m0-175.29999999999995c0 8.600000000000023-7.300000000000011 15.899999999999977-15.900000000000034 15.899999999999977h-72.29999999999995c-8.900000000000034 0-15.900000000000034-7.2999999999999545-15.900000000000034-15.899999999999977v-72.30000000000001c0-8.599999999999966 7-15.899999999999977 15.900000000000034-15.899999999999977h72.29999999999995c8.600000000000023 0 15.900000000000034 7.300000000000011 15.900000000000034 15.899999999999977v72.30000000000001z m174.99999999999994 350.29999999999995c0 8.600000000000023-7 15.600000000000023-15.899999999999977 15.600000000000023h-72.29999999999995c-8.600000000000023 0-15.900000000000034-7-15.900000000000034-15.600000000000023v-72.29999999999995c0-8.899999999999977 7.300000000000011-15.899999999999977 15.900000000000034-15.899999999999977h72.29999999999995c8.899999999999977 0 15.899999999999977 7 15.899999999999977 15.899999999999977v72.29999999999995z m0-175.29999999999995c0 8.600000000000023-7 15.899999999999977-15.899999999999977 15.899999999999977h-72.29999999999995c-8.600000000000023 0-15.900000000000034-7.2999999999999545-15.900000000000034-15.899999999999977v-72.29999999999995c0-8.600000000000023 7.300000000000011-15.900000000000091 15.900000000000034-15.900000000000091h72.29999999999995c8.899999999999977 0 15.899999999999977 7.300000000000068 15.899999999999977 15.900000000000091v72.29999999999995z m175.30000000000007 175.29999999999995c0 8.900000000000091-7 15.900000000000091-15.899999999999977 15.900000000000091h-72.30000000000007c-8.600000000000023 0-15.899999999999977-7-15.899999999999977-15.900000000000091v-247.5999999999999c0-8.600000000000023 7-15.900000000000091 15.899999999999977-15.900000000000091h72.30000000000007c8.599999999999909 0 15.899999999999977 7.300000000000068 15.899999999999977 15.900000000000091v247.5999999999999z m0.39999999999997726-350.59999999999997c0 8.900000000000034-7.2999999999999545 15.900000000000034-15.899999999999977 15.900000000000034h-72.60000000000002c-8.899999999999977 0-15.899999999999977-7-15.899999999999977-15.900000000000034v-71.89999999999998c0-8.900000000000034 7-15.900000000000034 15.899999999999977-15.900000000000034h72.60000000000002c8.600000000000023 0 15.899999999999977 7 15.899999999999977 15.900000000000034v71.89999999999998z"/>
</svg>
