<svg xmlns="http://www.w3.org/2000/svg" viewBox="0 0 1000 1000" width="1000" height="1000">
<path d="M873.3 692.6c-31.09999999999991-178-186.0999999999999-313.5-373.09999999999997-313.5-187.09999999999997 0-342.29999999999995 135.5-373.5 313.5h-126.69999999999999v107.79999999999995h1000v-107.79999999999995h-126.70000000000005z m-679.6999999999999 0c30.19999999999999-141.5 156-247.8 306.59999999999997-247.8 150.50000000000006 0 276.2 106.30000000000001 306.40000000000003 247.8h-613z m173.79999999999995-443.40000000000003l20.100000000000023-8v57h-23.69999999999999c-0.30000000000001137 1.900000000000034-0.5 3.6000000000000227-0.6000000000000227 5.100000000000023-0.0999999999999659 1.5-0.19999999999998863 3-0.19999999999998863 4.5 0 1.8000000000000114 0.10000000000002274 3.3999999999999773 0.19999999999998863 4.899999999999977 0.10000000000002274 1.5 0.30000000000001137 3.1999999999999886 0.6000000000000227 5.100000000000023h69.39999999999998c0.4000000000000341-1.900000000000034 0.6000000000000227-3.6000000000000227 0.6999999999999886-5.100000000000023 0.10000000000002274-1.5 0.20000000000004547-3.099999999999966 0.20000000000004547-4.899999999999977 0-1.5-0.10000000000002274-3-0.20000000000004547-4.5-0.0999999999999659-1.5-0.2999999999999545-3.1999999999999886-0.6999999999999886-5.100000000000023h-23.30000000000001v-87h-4.399999999999977l-46.69999999999999 20.600000000000023c0.8999999999999773 3.0999999999999943 2 6.199999999999989 3.3999999999999773 9.099999999999994 1.400000000000034 2.799999999999983 3.1999999999999886 5.599999999999994 5.199999999999989 8.299999999999983z m95.90000000000003 63c3.8999999999999773 2.6000000000000227 8.199999999999989 4.600000000000023 13.199999999999989 5.699999999999989s10 1.8000000000000114 15.199999999999989 1.8000000000000114c5.199999999999989 0 10.300000000000011-0.5999999999999659 15.199999999999989-1.8000000000000114 5-1.099999999999966 9.399999999999977-3.099999999999966 13.300000000000068-5.699999999999989 3.7999999999999545-2.6999999999999886 6.899999999999977-6.099999999999966 9.199999999999932-10.300000000000011 2.3999999999999773-4.199999999999989 3.5-9.199999999999989 3.5-15.099999999999966 0-4.199999999999989-0.5-8-1.6999999999999318-11.300000000000011-1.2000000000000455-3.3000000000000114-2.800000000000068-6.199999999999989-4.600000000000023-8.800000000000011-1.8999999999999773-2.5-4-4.699999999999989-6.399999999999977-6.5-2.5-1.8000000000000114-4.900000000000091-3.3000000000000114-7.300000000000068-4.5 4.2000000000000455-2.5999999999999943 7.800000000000068-6 10.600000000000023-10.299999999999983 2.7999999999999545-4.300000000000011 4.2000000000000455-9.200000000000017 4.2000000000000455-14.800000000000011 0-4.5-0.900000000000091-8.699999999999989-2.7000000000000455-12.400000000000006-1.8999999999999773-3.5999999999999943-4.399999999999977-6.799999999999983-7.600000000000023-9.399999999999977-3.199999999999932-2.6000000000000227-7-4.600000000000023-11.399999999999977-6-4.399999999999977-1.5-9.199999999999989-2.200000000000017-14.300000000000011-2.200000000000017s-9.800000000000011 0.700000000000017-14.199999999999989 2.200000000000017c-4.399999999999977 1.3999999999999773-8.199999999999989 3.3999999999999773-11.399999999999977 6-3.2000000000000455 2.5999999999999943-5.800000000000011 5.799999999999983-7.600000000000023 9.399999999999977-1.8999999999999773 3.700000000000017-2.8000000000000114 7.900000000000006-2.8000000000000114 12.400000000000006 0 5.599999999999994 1.400000000000034 10.5 4.199999999999989 14.800000000000011 2.7000000000000455 4.400000000000006 6.300000000000011 7.799999999999983 10.5 10.299999999999983-2.5 1.1999999999999886-4.899999999999977 2.6999999999999886-7.2999999999999545 4.600000000000023s-4.400000000000034 4-6.300000000000011 6.599999999999966c-1.900000000000034 2.5-3.400000000000034 5.400000000000034-4.600000000000023 8.800000000000011s-1.6999999999999886 7-1.6999999999999886 11.100000000000023c0 5.899999999999977 1.1999999999999886 10.899999999999977 3.5 15.099999999999966 2.3999999999999773 4.2000000000000455 5.399999999999977 7.600000000000023 9.300000000000011 10.300000000000011z m17.69999999999999-90c2.3999999999999773-2.299999999999983 6-3.5 10.699999999999989-3.5s8.400000000000034 1.200000000000017 10.900000000000034 3.5c2.3999999999999773 2.4000000000000057 3.599999999999966 5.400000000000006 3.599999999999966 9.200000000000017 0 4.599999999999994-1.3000000000000114 8.199999999999989-4 10.900000000000006-2.599999999999966 2.5999999999999943-6.099999999999966 4.699999999999989-10.5 6.199999999999989-4.199999999999989-1.5-7.699999999999989-3.5999999999999943-10.300000000000011-6.199999999999989-2.6999999999999886-2.700000000000017-4-6.300000000000011-4-10.900000000000006 0-3.8000000000000114 1.2000000000000455-6.800000000000011 3.6000000000000227-9.200000000000017z m-2.1999999999999886 50c3.3000000000000114-3.3000000000000114 7.599999999999966-5.800000000000011 12.800000000000011-7.5 5.199999999999989 1.6999999999999886 9.5 4.199999999999989 12.799999999999955 7.5 3.400000000000034 3.1999999999999886 5.100000000000023 7.5 5.100000000000023 12.699999999999989 0 5.100000000000023-1.5 9-4.5 11.900000000000034-3 2.8000000000000114-7.399999999999977 4.199999999999989-13.300000000000011 4.199999999999989-5.599999999999966 0-10-1.3999999999999773-13.099999999999966-4.199999999999989s-4.600000000000023-6.800000000000011-4.600000000000023-11.900000000000034c0-5.099999999999966 1.6000000000000227-9.299999999999955 4.899999999999977-12.699999999999989z m78.80000000000001 32.10000000000002c3.3999999999999773 4.800000000000011 7.7999999999999545 8.599999999999966 13.100000000000023 11.399999999999977 5.399999999999977 2.6999999999999886 11.699999999999932 4 18.899999999999977 4s13.699999999999932-1.3000000000000114 19.100000000000023-4c5.399999999999977-2.8000000000000114 9.899999999999977-6.599999999999966 13.399999999999977-11.399999999999977s6-10.699999999999989 7.7999999999999545-17.400000000000034c1.7000000000000455-6.699999999999989 2.6000000000000227-14 2.6000000000000227-21.899999999999977 0-7.899999999999977-0.7999999999999545-15.300000000000011-2.3999999999999773-22-1.7000000000000455-6.699999999999989-4.2000000000000455-12.5-7.7000000000000455-17.400000000000006-3.5-4.900000000000006-7.899999999999977-8.699999999999989-13.199999999999932-11.5s-11.600000000000023-4.199999999999989-18.90000000000009-4.199999999999989c-7.399999999999977 0-13.799999999999955 1.4000000000000057-19.09999999999991 4.199999999999989-5.400000000000091 2.8000000000000114-9.800000000000068 6.599999999999994-13.300000000000068 11.5s-6.100000000000023 10.700000000000017-7.7999999999999545 17.400000000000006c-1.8000000000000682 6.699999999999989-2.6000000000000227 14.100000000000023-2.6000000000000227 22 0 7.899999999999977 0.7999999999999545 15.199999999999989 2.5 21.899999999999977 1.6000000000000227 6.7000000000000455 4.2000000000000455 12.5 7.600000000000023 17.400000000000034z m19.100000000000023-65.9c3.199999999999932-5.700000000000017 7.599999999999909-8.599999999999994 13.299999999999955-8.599999999999994 5.5 0 9.799999999999955 2.8999999999999773 12.899999999999977 8.599999999999994 3.1000000000000227 5.699999999999989 4.7000000000000455 14.5 4.7000000000000455 26.599999999999994 0 12-1.6000000000000227 20.899999999999977-4.7000000000000455 26.600000000000023-3.1000000000000227 5.699999999999989-7.399999999999977 8.599999999999966-12.899999999999977 8.599999999999966-5.600000000000023 0-10-2.8999999999999773-13.200000000000045-8.599999999999966-3.2999999999999545-5.7000000000000455-4.899999999999977-14.600000000000023-4.899999999999977-26.600000000000023 0-12.099999999999994 1.6000000000000227-20.900000000000006 4.800000000000068-26.599999999999994z m75 2.9000000000000057c2.199999999999932 2.1999999999999886 4.699999999999932 4 7.699999999999932 5.199999999999989 3 1.3000000000000114 6.2000000000000455 1.9000000000000057 9.600000000000023 1.9000000000000057s6.5-0.5999999999999943 9.600000000000023-1.9000000000000057c3-1.1999999999999886 5.699999999999932-3 7.899999999999977-5.199999999999989s4-4.800000000000011 5.2999999999999545-7.700000000000017c1.3000000000000682-3 1.900000000000091-6.099999999999994 1.900000000000091-9.5s-0.6000000000000227-6.599999999999994-1.900000000000091-9.599999999999994c-1.2999999999999545-3-3.099999999999909-5.699999999999989-5.2999999999999545-7.800000000000011-2.2000000000000455-2.1999999999999886-4.899999999999977-3.8999999999999773-7.899999999999977-5.199999999999989-3.1000000000000227-1.3000000000000114-6.300000000000068-2-9.600000000000023-2s-6.600000000000023 0.6999999999999886-9.600000000000023 2c-3 1.3000000000000114-5.5 3-7.699999999999932 5.199999999999989-2.2000000000000455 2.200000000000017-3.900000000000091 4.700000000000017-5.2000000000000455 7.800000000000011-1.2999999999999545 3-2 6.199999999999989-2 9.599999999999994s0.7000000000000455 6.5 2 9.5c1.2999999999999545 2.9000000000000057 3 5.5 5.2000000000000455 7.700000000000017z m10.099999999999909-25c1.900000000000091-2.1000000000000227 4.300000000000068-3.1000000000000227 7.2000000000000455-3.1000000000000227s5.2000000000000455 1 7.2999999999999545 3.1000000000000227c2.1000000000000227 2 3.1000000000000227 4.699999999999989 3.1000000000000227 7.799999999999983s-1 5.700000000000017-3.1000000000000227 7.700000000000017c-2.099999999999909 1.8999999999999773-4.5 2.8999999999999773-7.2999999999999545 2.8999999999999773s-5.2999999999999545-1-7.2000000000000455-2.8999999999999773c-2-2-2.8999999999999773-4.5-2.8999999999999773-7.700000000000017s0.8999999999999773-5.799999999999983 2.8999999999999773-7.799999999999983z"/>
</svg>
