<svg xmlns="http://www.w3.org/2000/svg" viewBox="0 0 1000 1000" width="1000" height="1000">
<path d="M7 894.4c-5.8 5.899999999999977-8.1 14.100000000000023-6.5 22.100000000000023 1.7000000000000002 7.899999999999977 7.3 14.5 14.9 17.700000000000045l83.8 35.299999999999955c9.799999999999997 4.2000000000000455 21.200000000000003 1.7999999999999545 28.700000000000003-5.7999999999999545l18.5-19-99.10000000000001-91.60000000000002-40.3 41.299999999999955z m930.1-584.7l2.1000000000000227-2.099999999999909c12.299999999999955-12.700000000000045 11.599999999999909-32.900000000000034-1.6000000000000227-44.900000000000034l24.299999999999955-25.399999999999977-229.79999999999995-208.8-24.300000000000068 25.4-5.099999999999909-4.799999999999997c-15.400000000000091-14-39.40000000000009-13-53.80000000000007 1.7999999999999972l-315.09999999999997 328c-6.300000000000011 6.7000000000000455-9.699999999999989 15.5-9.400000000000034 24.700000000000045 0.20000000000004547 9.199999999999989 4.300000000000011 17.899999999999977 11.200000000000045 24.099999999999966l-232.50000000000003 237.90000000000003s-4.299999999999997 39.799999999999955 14.200000000000003 86.39999999999998l-60.5 62.10000000000002 129.3 119.39999999999998 61.89999999999998-63.39999999999998c47.89999999999998 15 88 10.600000000000023 88 10.600000000000023l234.10000000000002-239.9000000000001 0.39999999999997726 0.3000000000000682c14.299999999999955 13 36.700000000000045 12.199999999999932 50.10000000000002-1.8000000000000682l170.39999999999998-177.49999999999994 33 29.899999999999977-243.39999999999998 253.50000000000006 24.5 22.399999999999977c7.399999999999977 6.699999999999932 17.199999999999932 10.100000000000023 27.100000000000023 9.899999999999977 10-0.2999999999999545 19.5-4.600000000000023 26.09999999999991-11.700000000000045l327.20000000000005-340.49999999999994c9.799999999999955-10.100000000000023 14.899999999999977-23.600000000000023 14.5-37.5-0.5-13.900000000000034-6.600000000000023-27-17-36.5l-45.89999999999998-41.60000000000002z m-235.5-137.89999999999992l-209.20000000000005 216.89999999999998c-7.2999999999999545 7.699999999999989-17.399999999999977 11.5-27.399999999999977 11.5-9.199999999999989 0-18.399999999999977-3.3999999999999773-25.69999999999999-9.899999999999977-15.100000000000023-13.900000000000034-15.800000000000011-36.900000000000034-1.6999999999999886-51.60000000000002l209.19999999999993-216.79999999999998c14.200000000000045-14.900000000000006 37.80000000000007-15.600000000000009 53.10000000000002-1.7000000000000028 15.100000000000023 13.799999999999997 15.899999999999977 36.89999999999999 1.7000000000000455 51.60000000000001z"/>
</svg>
