<svg xmlns="http://www.w3.org/2000/svg" viewBox="0 0 1000 1000" width="1000" height="1000">
<path d="M15 1000c323.5-333.6 646.4-666.5 969.9-1000v1000h-969.9z m458.3-195.20000000000005h322.3v-332.29999999999995l-322.3 332.29999999999995z m424.49999999999994-471.09999999999997c-4.2999999999999545-6.800000000000011-6.599999999999909-12.199999999999989-10.299999999999955-16-25.399999999999977-26.599999999999966-51.10000000000002-53-76.79999999999995-79.29999999999998-9.300000000000068-9.5-19.200000000000045-10.200000000000017-27-2.3000000000000114-7.7000000000000455 7.800000000000011-7 18.200000000000017 2.199999999999932 27.799999999999983 13.899999999999977 14.5 27.899999999999977 28.80000000000001 41.89999999999998 43.200000000000045 12.100000000000023 12.5 24.200000000000045 25 36.40000000000009 37.39999999999998 5.599999999999909 5.600000000000023 12.599999999999909 9 19.59999999999991 4.300000000000011 5.300000000000068-3.400000000000034 8.900000000000091-9.400000000000034 14-15.100000000000023z m-465.69999999999993 269.00000000000006c-5.300000000000011 4.5-11.300000000000011 7.699999999999932-14.300000000000011 12.899999999999977-4.5 7.699999999999932-1.8000000000000114 15.5 4.5 22l78.19999999999999 80.60000000000002c8.699999999999989 8.899999999999977 18.799999999999955 9.299999999999955 26.200000000000045 1.599999999999909 7.199999999999932-7.399999999999977 6.899999999999977-18.5-1.400000000000091-27.09999999999991-25.899999999999977-27-51.99999999999994-53.90000000000009-78.19999999999993-80.5-3.6000000000000227-3.7000000000000455-8.600000000000023-5.600000000000023-15-9.5z m-97.70000000000005 311.5c5-4.400000000000091 11.100000000000023-7.600000000000023 14-12.800000000000068 4.2000000000000455-7.2999999999999545 1.8000000000000114-15-4.199999999999989-21.199999999999932-26.30000000000001-27-52.5-54.200000000000045-78.89999999999998-81.20000000000005-8.300000000000011-8.5-19.200000000000017-8.799999999999955-26.200000000000017-1.2999999999999545-6.900000000000006 7.2999999999999545-6.799999999999983 18 1.200000000000017 26.299999999999955 26.30000000000001 27.5 52.80000000000001 54.799999999999955 79.5 81.89999999999998 3.3000000000000114 3.3999999999999773 8.300000000000011 4.899999999999977 14.599999999999966 8.300000000000068z m378.80000000000007-397.6c-0.8000000000000682-1.6000000000000227-1.900000000000091-6.2000000000000455-4.7000000000000455-9.100000000000023-27-28.30000000000001-54.10000000000002-56.5-81.89999999999998-84-3.7000000000000455-3.6999999999999886-11.700000000000045-5.5-16.899999999999977-4.399999999999977-12.800000000000068 2.8999999999999773-17.100000000000023 19-7.600000000000023 29 26.799999999999955 28.5 54.299999999999955 56.299999999999955 81.60000000000002 84.29999999999995 1.1999999999999318 1.2000000000000455 2.5 2.2000000000000455 3.8999999999999773 3 11.899999999999977 6.800000000000068 25.899999999999977-2.1000000000000227 25.600000000000023-18.799999999999955z m-156.5 91c-2.6000000000000227-5.899999999999977-3.400000000000091-10.300000000000068-5.900000000000091-13-15-16.100000000000023-30.199999999999932-32.10000000000002-45.89999999999998-47.5-6.7999999999999545-6.7000000000000455-16.799999999999955-5.800000000000068-23.19999999999999 0.5-6.699999999999989 6.5-7.800000000000011 17.399999999999977-1.099999999999966 24.699999999999932 14.899999999999977 16.200000000000045 30.099999999999966 32.30000000000007 46.19999999999993 47.10000000000002 3.800000000000068 3.5 12.800000000000068 4 17.90000000000009 2 5-2 8.099999999999909-9.100000000000023 12-13.799999999999955z m181.39999999999998-186.90000000000003c-2.1000000000000227-5.399999999999977-2.7000000000000455-9.599999999999966-4.899999999999977-12.099999999999966-15.700000000000045-16.80000000000001-31.600000000000023-33.5-48-49.5-6.2000000000000455-6-16.600000000000023-4.300000000000011-22.40000000000009 1.7999999999999545-6.199999999999932 6.5-7.599999999999909 16.30000000000001-1.3999999999999773 23 15.600000000000023 17 31.5 33.60000000000002 48.30000000000007 49.200000000000045 3.3999999999999773 3.1999999999999886 12.299999999999955 3 17.199999999999932 0.7999999999999545 4.7000000000000455-2.1999999999999886 7.7000000000000455-8.799999999999955 11.200000000000045-13.199999999999989z m-120.89999999999998 124.00000000000006c-2.900000000000091-5.900000000000091-4-10.5-6.800000000000068-13.5-14.600000000000023-15.600000000000023-29.5-31.100000000000023-44.69999999999993-46.10000000000002-6.600000000000023-6.5-17-6.100000000000023-23.40000000000009-0.10000000000002274-6.7999999999999545 6.300000000000011-8.199999999999932 17.5-1.5 24.69999999999999 14.900000000000091 16.30000000000001 30.100000000000023 32.400000000000034 46.30000000000007 47.30000000000001 3.7999999999999545 3.5 13 4.100000000000023 18.100000000000023 2 5.099999999999909-2.1000000000000227 8.099999999999909-9.299999999999955 12-14.299999999999955z m-181.90000000000003 188c-1.8000000000000114-5.300000000000068-2.1000000000000227-8.900000000000091-3.900000000000034-10.900000000000091-16.5-17.399999999999977-32.799999999999955-35.09999999999991-50.19999999999999-51.39999999999998-6.300000000000011-5.899999999999977-15.199999999999989-3.699999999999932-21.30000000000001 3-6 6.7000000000000455-7.5 15.399999999999977-1.2999999999999545 22.100000000000023 15.399999999999977 17.100000000000023 31.399999999999977 33.700000000000045 48.099999999999966 49.39999999999998 3.5 3.2000000000000455 12.400000000000034 3.5 17.100000000000023 1.3000000000000682 5.099999999999966-2.5 8.099999999999966-9.400000000000091 11.5-13.5z m-60.400000000000034 61.89999999999998c-2.3999999999999773-5.5-3.099999999999966-9.899999999999977-5.599999999999966-12.600000000000023-15.300000000000011-16.299999999999955-30.69999999999999-32.5-46.60000000000002-48.10000000000002-6.899999999999977-6.7999999999999545-16.599999999999966-5.399999999999977-23.099999999999966 1.3999999999999773-5.900000000000034 6.100000000000023-7.2000000000000455 16.700000000000045-1.400000000000034 23.100000000000023 15.400000000000034 16.700000000000045 31 33.200000000000045 47.60000000000002 48.5 3.6999999999999886 3.3999999999999773 12.800000000000011 3.5 17.899999999999977 1.3000000000000682 4.800000000000011-1.8000000000000682 7.600000000000023-8.800000000000068 11.199999999999989-13.600000000000023z m359.80000000000007-503.70000000000005c-5.100000000000023 4.300000000000011-11.100000000000023 7.400000000000034-14.200000000000045 12.5-4.5 7.2000000000000455-2.3999999999999773 15 3.6000000000000227 21.200000000000045 14 14.399999999999977 27.799999999999955 28.899999999999977 42 43.19999999999999 8.199999999999932 8.199999999999989 18.299999999999955 8.5 25.5 1.3000000000000114 7.100000000000023-7.100000000000023 7.199999999999932-18.30000000000001-0.5-26.400000000000034-13.800000000000068-14.599999999999966-27.800000000000068-29-42-43.099999999999966-3.3999999999999773-3.3000000000000114-8.200000000000045-5-14.399999999999977-8.700000000000045z"/>
</svg>
