<svg xmlns="http://www.w3.org/2000/svg" viewBox="0 0 1000 1000" width="1000" height="1000">
<path d="M947.2 502.7s-40.10000000000002 8.100000000000023-90.30000000000007 14.400000000000034l-23.899999999999977-102.70000000000005h18.299999999999955v-171.29999999999998h-62.5v-134.6h-66.59999999999991v134.8h-62.5v171.2h18.299999999999955l-23.700000000000045 102.5c-50.299999999999955-6.300000000000011-90.29999999999995-14.199999999999989-90.29999999999995-14.199999999999989v76.69999999999999s31.200000000000045 6.100000000000023 73.20000000000005 11.899999999999977l-72.60000000000002 313.6 20.799999999999955 4.7000000000000455-6 27.5 12.700000000000045 2.699999999999932-2.6000000000000227 11.600000000000023 7.399999999999977 1.5 2.3999999999999773-11.600000000000023 15.5 3.3999999999999773 5.900000000000091-27 23.09999999999991 5.300000000000068 75.90000000000009-323.30000000000007c12.599999999999909 0.7000000000000455 24.899999999999977 1.2000000000000455 36.89999999999998 1.2000000000000455 11.5 0 23.100000000000023-0.5 35-1.1000000000000227l76 323.20000000000005 22.899999999999977-5.2000000000000455 6.399999999999977 28.899999999999977 15.399999999999977-3.3999999999999773 2.5 11.600000000000023 7.300000000000068-1.5-2.6000000000000227-11.600000000000023 12.700000000000045-2.8999999999999773-6.400000000000091-29.299999999999955 20.90000000000009-4.7000000000000455-72.70000000000005-313.5c42-5.7999999999999545 73.20000000000005-12.100000000000023 73.20000000000005-12.100000000000023v-76.69999999999999z m-267.9000000000001-239.8h152.5v131.90000000000003h-152.5v-131.90000000000003z m-50.299999999999955 636.7l-41-9.5 68.70000000000005-296.1c13.799999999999955 1.7000000000000455 28.399999999999977 3.2000000000000455 43.09999999999991 4.5l-70.79999999999995 301.1z m88.5-376.5c-14.5-0.8999999999999773-29.299999999999955-2.300000000000068-43.60000000000002-3.800000000000068l24.300000000000068-104.79999999999995h44.89999999999998l-25.600000000000023 108.60000000000002z m39 1.1999999999999318c-6.100000000000023 0-12.5-0.1999999999999318-19-0.2999999999999545l18-76.60000000000002 18 76.70000000000005c-5.7000000000000455 0.1999999999999318-11.399999999999977 0.1999999999999318-17 0.1999999999999318z m11.399999999999977-109.89999999999998h44.89999999999998l24.5 105c-14.399999999999977 1.5-29.199999999999932 2.8999999999999773-43.69999999999993 3.800000000000068l-25.700000000000045-108.80000000000007z m155.20000000000005 475.70000000000005l-40.80000000000007 9.5-70.89999999999998-301c14.800000000000068-1.3000000000000682 29.300000000000068-2.800000000000068 43.30000000000007-4.5l68.39999999999998 296z m-871.1-562.9000000000001l230.89999999999998 672.8000000000001 32.900000000000034-82.20000000000005 0.19999999999998863 0.20000000000004547 9.5-23.899999999999977 358.20000000000005-894.1-631.7 327.2z m543.6-195.49999999999994l-9.200000000000045 23.200000000000017-43.5-17.30000000000001-6.2999999999999545 15.900000000000006 43.5 17.30000000000001-6.899999999999977 17.299999999999983-29.700000000000045-11.699999999999989-6.399999999999977 15.900000000000006 29.699999999999932 11.799999999999983-9.299999999999955 23.700000000000017-43.5-17.5-6.300000000000011 16 43.400000000000034 17.299999999999983-6.7000000000000455 17.299999999999983-29.799999999999955-11.899999999999977-6.300000000000011 16 29.80000000000001 11.600000000000023-8.700000000000045 21.899999999999977-43.5-17.30000000000001-6.2999999999999545 15.900000000000034 43.39999999999998 17.299999999999955-6.7000000000000455 17.30000000000001-29.699999999999932-11.699999999999989-6.400000000000034 15.899999999999977 29.69999999999999 11.800000000000011-9.299999999999955 23.69999999999999-43.400000000000034-17.299999999999955-6.399999999999977 15.899999999999977 43.599999999999966 17.30000000000001-6.899999999999977 17.30000000000001-29.69999999999999-11.800000000000011-6.400000000000034 15.899999999999977 29.700000000000045 11.800000000000011-8.400000000000034 21.19999999999999-0.8000000000000114-0.30000000000001137-4.2999999999999545 11.900000000000034-32.700000000000045-13-6.399999999999977 15.899999999999977 34.5 13.800000000000011-6.899999999999977 17.100000000000023-20.600000000000023-8.100000000000023-6.399999999999977 15.899999999999977 20.599999999999966 8.100000000000023-9.5 23.700000000000045-34.19999999999999-13.800000000000068-6.399999999999977 16 34.19999999999999 13.600000000000023-6.900000000000034 17.100000000000023-20.299999999999955-8.100000000000023-6.400000000000034 15.899999999999977 20.30000000000001 8.100000000000023-9.199999999999989 23.200000000000045-38.400000000000034-15.300000000000068-6.2999999999999545 16 38.19999999999999 15.100000000000023-6.900000000000034 17.299999999999955-24.299999999999955-9.799999999999955-6.400000000000034 15.899999999999977 24.30000000000001 9.700000000000045-9.5 23.699999999999932-37.80000000000001-15.299999999999955-6.399999999999977 15.899999999999977 38 15.100000000000023-6.800000000000011 17.100000000000023-24.30000000000001-9.600000000000023-6.300000000000011 15.899999999999977 24.200000000000045 9.600000000000023-8.700000000000045 21.899999999999977-37.89999999999998-15.100000000000023-6.300000000000011 16 37.80000000000001 15-6.899999999999977 17.100000000000023-23.80000000000001-9.5-6.400000000000034 15.899999999999977 23.80000000000001 9.5-9.5 23.700000000000045-37.599999999999966-15-6.300000000000011 15.899999999999977 37.599999999999966 14.899999999999977-6.899999999999977 17.100000000000023-23.69999999999999-9.5-6.400000000000034 15.899999999999977 23.700000000000045 9.5-19.900000000000034 49.80000000000007-196.1-571.1 532.6999999999999-275.8-19.799999999999955 49.60000000000001-25.5-10.099999999999994-6.399999999999977 15.899999999999991 25.5 10.099999999999994z m-298.20000000000005 533.9000000000001l169.8-423.90000000000015-267.6 138.8 97.80000000000001 285.1z m2.3000000000000114-86.90000000000009l-63.099999999999994-183.40000000000003 172.20000000000002-89.19999999999999-109.10000000000002 272.6z"/>
</svg>
