<svg xmlns="http://www.w3.org/2000/svg" viewBox="0 0 1000 1000" width="1000" height="1000">
<path d="M819.1 236.8l28.899999999999977-38.20000000000002c39.60000000000002-52.19999999999999 31.5-128.6-18-170.4l-1.7999999999999545-1.5999999999999872c-49.5-41.900000000000006-121.60000000000002-33.4-161.20000000000005 19l-28.799999999999955 38.1 180.89999999999998 153.10000000000002z m-175.70000000000005 321.2c1 9.299999999999955 5.300000000000068 18.100000000000023 12.700000000000045 24.399999999999977 14.899999999999977 12.600000000000023 36.60000000000002 10.100000000000023 48.39999999999998-5.699999999999932l198.29999999999995-262.30000000000007c12.100000000000023-15.899999999999977 9.400000000000091-39.39999999999998-6.099999999999909-51.799999999999955-15-12.000000000000028-36.5-8.600000000000023-48.200000000000045 6.899999999999977l-19.399999999999977 25.600000000000023-33.10000000000002-28 0.10000000000002274-0.10000000000002274-180.60000000000002-153.2-462.4 611.0999999999999 180.79999999999995 153.10000000000014 419.30000000000007-554 33.09999999999991 28-135.5 179.20000000000005c-6 7.7999999999999545-8.399999999999977 17.59999999999991-7.399999999999977 26.799999999999955z m-339.5 348.29999999999995l-170.29999999999998-144.29999999999995c-2.799999999999983 10.100000000000023-4.199999999999989 18.899999999999977-4.199999999999989 18.899999999999977l-39 197.70000000000005c-2.8000000000000114 14.199999999999932 10.899999999999991 25.899999999999977 23.39999999999999 19.799999999999955l173.89999999999998-83.69999999999993c-0.19999999999998863 0 7.5-3.400000000000091 16.19999999999999-8.400000000000091z"/>
</svg>
