<svg xmlns="http://www.w3.org/2000/svg" viewBox="0 0 1000 1000" width="1000" height="1000">
<path d="M1000 755.9h-758.6c2.842170943040401e-14-43.60000000000002-0.0999999999999659-87.19999999999993-0.0999999999999659-130.89999999999998 0-69.79999999999995-0.10000000000002274-139.60000000000002-0.10000000000002274-209.39999999999998 0-76.40000000000003 0.10000000000002274-152.90000000000003 0.10000000000002274-229.3 0-54.900000000000006 0.09999999999999432-109.70000000000002 0-164.5 0-3.0000000000000107-0.6000000000000227-5.900000000000011-1-9.800000000000011h-240.3v975.9h1000v-232z m-807.9-93.19999999999993h-47.10000000000002v46.69999999999993h46.80000000000001v46c-4.100000000000023 0-7.5 0-10.900000000000006 0-25.200000000000017 0-50.30000000000001-0.10000000000002274-75.5 0.20000000000004547-3.200000000000003 0.10000000000002274-9.100000000000009 2.7999999999999545-9.200000000000003 4.5-0.7000000000000028 13.799999999999955-0.4000000000000057 27.699999999999932-0.4000000000000057 42.5h96.00000000000001v46.19999999999993h-46.80000000000001v46.80000000000007h47v45.799999999999955h-11.599999999999994c-39.599999999999994 0-79.30000000000001 0-119 0-13.200000000000003 0-13.200000000000003 0-13.200000000000003-13.100000000000023 0.09999999999999432-124.29999999999995 0.19999999999999574-248.69999999999993 0.19999999999999574-373.0999999999999 0-159.20000000000005 0-318.50000000000006 0-477.80000000000007v-17.49999999999998h143.5v45.9h-46.70000000000002v46.39999999999999h46.80000000000001v45.80000000000001h-95.5v47.400000000000006h95.1v46.099999999999994h-46.599999999999994v46.19999999999999h46.80000000000001v46h-13.100000000000023c-24.799999999999983 0-49.69999999999999-0.19999999999998863-74.49999999999999 0.19999999999998863-2.799999999999997 0-7.799999999999997 2.900000000000034-7.900000000000006 4.7000000000000455-0.5999999999999943 13.799999999999955-0.29999999999999716 27.69999999999999-0.29999999999999716 42.599999999999966h95.80000000000001v46.400000000000034h-46.5v46.19999999999993h46.5v45.700000000000045c-5.600000000000023 0-10.400000000000006 0-15.200000000000017 0-23.799999999999983-0.10000000000002274-47.599999999999994-0.20000000000004547-71.39999999999999-0.20000000000004547-4.400000000000006 0-9.400000000000006-0.7999999999999545-9.299999999999997 6 0.09999999999999432 13.300000000000068 0 26.5 0 41.700000000000045h96.19999999999999v45.700000000000045z m758 278.5h-709.3c0.2999999999999261-14.300000000000068 0.3999999999999204-28.700000000000045 0.49999999999994316-43 0-32.10000000000002 0-64.10000000000002 0-96.20000000000005h35.099999999999966v46h48.400000000000034v-45.10000000000002h47.80000000000001v92.39999999999998c15.5 0 30.099999999999966 0.3000000000000682 44.69999999999999-0.39999999999997726 1.6999999999999886-0.10000000000002274 4.399999999999977-5.899999999999977 4.5-9 0.30000000000001137-24.600000000000023 0.0999999999999659-49.19999999999993 0.19999999999998863-73.79999999999995 0-2.8999999999999773 0.30000000000001137-5.899999999999977 0.5-9.300000000000068h46.80000000000001v45.200000000000045h48.19999999999999v-45.200000000000045h47.799999999999955v91.80000000000007h48.90000000000009v-91.80000000000007h47.59999999999991v45.10000000000002h48.30000000000007v-45h47.799999999999955v91.70000000000005h48.80000000000007v-91.70000000000005h48.19999999999993v45.200000000000045h48.200000000000045v-45.39999999999998h47v138.5z"/>
</svg>
