<svg xmlns="http://www.w3.org/2000/svg" viewBox="0 0 1000 1000" width="1000" height="1000">
<path d="M572.4 211c-10.600000000000023-25.80000000000001-36-44-65.59999999999997-44s-55.10000000000002 18.19999999999999-65.69999999999999 44h-48.700000000000045c-10.699999999999989-25.80000000000001-36.099999999999966-44-65.69999999999999-44s-55.099999999999966 18.19999999999999-65.69999999999999 44h-52.69999999999999c-10.700000000000017-25.80000000000001-36-44-65.70000000000002-44s-55.099999999999994 18.19999999999999-65.69999999999999 44h-76.9v54h76.9c10.599999999999994 25.899999999999977 36 44.10000000000002 65.69999999999999 44.10000000000002s55-18.200000000000045 65.70000000000002-44.10000000000002h52.69999999999999c10.600000000000023 25.899999999999977 36 44.10000000000002 65.69999999999999 44.10000000000002s55-18.200000000000045 65.69999999999999-44.10000000000002h48.700000000000045c10.599999999999966 25.899999999999977 36 44.10000000000002 65.69999999999999 44.10000000000002s54.99999999999994-18.200000000000045 65.59999999999997-44.10000000000002h427.6v-54h-427.6z m285 480.29999999999995c-29.699999999999932 0-55 18.100000000000023-65.69999999999993 44h-52.700000000000045c-10.600000000000023-25.899999999999977-36-44-65.70000000000005-44s-55 18.100000000000023-65.69999999999993 44h-48.700000000000045c-10.600000000000023-25.899999999999977-36-44-65.69999999999999-44s-55 18.100000000000023-65.69999999999999 44h-427.5v54h427.5c10.699999999999989 25.800000000000068 36.10000000000002 44 65.69999999999999 44s55.099999999999966-18.199999999999932 65.69999999999999-44h48.700000000000045c10.699999999999932 25.800000000000068 36.10000000000002 44 65.69999999999993 44s55.10000000000002-18.199999999999932 65.70000000000005-44h52.700000000000045c10.699999999999932 25.800000000000068 36 44 65.69999999999993 44s55.10000000000002-18.199999999999932 65.70000000000005-44h76.89999999999998v-54h-76.89999999999998c-10.600000000000023-25.899999999999977-36-44-65.70000000000005-44z m-86.5-260.19999999999993c-29.699999999999932 0-55.10000000000002 18.19999999999999-65.69999999999993 44h-48.700000000000045c-10.600000000000023-25.80000000000001-36-44-65.70000000000005-44s-55 18.19999999999999-65.69999999999993 44h-252.8c-10.600000000000023-25.80000000000001-36-44-65.70000000000002-44s-55 18.19999999999999-65.69999999999999 44h-140.9v54.10000000000002h140.9c10.699999999999989 25.799999999999955 36.099999999999994 44 65.69999999999999 44s55.099999999999994-18.200000000000045 65.70000000000002-44h252.8c10.699999999999932 25.799999999999955 36 44 65.69999999999993 44s55.10000000000002-18.200000000000045 65.70000000000005-44h48.700000000000045c10.599999999999909 25.799999999999955 36 44 65.69999999999993 44s55-18.200000000000045 65.70000000000005-44h163.39999999999998v-54.10000000000002h-163.39999999999998c-10.700000000000045-25.80000000000001-36-44-65.70000000000005-44z"/>
</svg>
