<svg xmlns="http://www.w3.org/2000/svg" viewBox="0 0 1000 1000" width="1000" height="1000">
<path d="M358.1 269.5c-1.6000000000000227 0-4.2000000000000455-3-4.7000000000000455-5.100000000000023-0.7999999999999545-3.099999999999966-0.19999999999998863-6.5-0.19999999999998863-10.699999999999989h20.19999999999999c0.8000000000000114-4.899999999999977 1.5-9 2-13.099999999999994 2-15.5 10.600000000000023-25.69999999999999 25.100000000000023-31.299999999999983 2.3000000000000114-0.9000000000000057 4.600000000000023-1.9000000000000057 6.899999999999977-2.9000000000000057h12c20 5.900000000000006 32.30000000000001 18.299999999999983 34 39.400000000000006l0.9000000000000341 8h21.30000000000001v14.599999999999966c-0.8000000000000114 0.4000000000000341-1.3000000000000114 0.9000000000000341-1.8000000000000114 0.9000000000000341-38.60000000000002 0.19999999999998863-77.10000000000002 0.39999999999997726-115.69999999999999 0.19999999999998863z m311.1 418.20000000000005c-13.700000000000045 40.799999999999955 8.299999999999955 85.79999999999995 49.5 100.89999999999998 6.399999999999977 2.2999999999999545 13.099999999999909 3.5 19.699999999999932 5.2999999999999545h18.899999999999977c3.5-0.8999999999999773 7.100000000000023-1.8999999999999773 10.600000000000023-2.699999999999932 34.30000000000007-8.600000000000023 60.200000000000045-40.700000000000045 61-75.80000000000007 0.8000000000000682-36.39999999999998-23.5-69.89999999999998-58-79.79999999999995-42.89999999999998-12.399999999999977-87.79999999999995 10.600000000000023-101.69999999999993 52.10000000000002z m37.89999999999998 26.399999999999977c-0.20000000000004547-21.800000000000068 18.199999999999932-40.200000000000045 40.10000000000002-40 21.199999999999932 0.1999999999999318 39.59999999999991 18.199999999999932 39.59999999999991 38.89999999999998 0 20.899999999999977-18.199999999999932 39-39.299999999999955 39-21.600000000000023 0-40.200000000000045-17.399999999999977-40.39999999999998-37.89999999999998z m-517.8-0.7000000000000455c-0.10000000000007958 37.30000000000007 23.999999999999943 68.5 60.49999999999994 78.5 2.1999999999999886 0.6000000000000227 4.299999999999983 1.3999999999999773 6.399999999999977 2.1000000000000227h30.900000000000034c15-5.2000000000000455 29.599999999999966-10.899999999999977 41.39999999999998-22.399999999999977 26.30000000000001-25.700000000000045 31.899999999999977-65.5 13.199999999999989-97.89999999999998-18.399999999999977-32-55.39999999999998-47.30000000000007-91.69999999999999-37.90000000000009-35.19999999999999 9-60.599999999999994 41.5-60.69999999999999 77.60000000000002z m41.69999999999993 0.8999999999999773c0.19999999999998863-21.59999999999991 18.30000000000001-39.39999999999998 39.89999999999998-39.19999999999993 22 0.10000000000002274 39.80000000000001 17.600000000000023 39.80000000000001 39.19999999999993 0 21.40000000000009-17.599999999999966 37.80000000000007-40.599999999999966 37.80000000000007-20.80000000000001 0-39.30000000000001-17.800000000000068-39.10000000000002-37.80000000000007z m705.5-222.39999999999998c-0.20000000000004547-56-0.39999999999997726-112.09999999999997-0.7000000000000455-167.89999999999998 0-18.19999999999999-14.899999999999977-32.89999999999998-33.69999999999993-32.89999999999998-37 0-74.20000000000005 0.19999999999998863-111.39999999999998 0.19999999999998863l-545.5 0.8999999999999773c-21.000000000000057 0-35.00000000000006 9.5-44.10000000000005 27.30000000000001-5.400000000000006 10.800000000000011-10.400000000000006 22.100000000000023-15.099999999999994 33.10000000000002-16.69999999999999 39.799999999999955-33.30000000000001 79.59999999999997-50.19999999999999 119.19999999999999-1.700000000000017 4.099999999999966-5.200000000000017 9.099999999999966-8.900000000000006 10.399999999999977-22.10000000000001 7.800000000000011-33.7 24-38.30000000000001 45.19999999999999-6.5 29-11.899999999999991 58.39999999999998-17.299999999999997 87.60000000000002-3.299999999999997 17.899999999999977-5.799999999999997 35.89999999999998-8.699999999999996 53.89999999999998v20.399999999999977c6.100000000000001 12.5 14.899999999999999 22.100000000000023 30.1 22.700000000000045 20.099999999999994 1.1000000000000227 40.39999999999999 1.5 60.60000000000001 2 7.099999999999994 0.20000000000004547 10.199999999999989-3 10.799999999999983-10.799999999999955 4.300000000000011-51.5 50.80000000000001-94.10000000000002 103.00000000000003-95.20000000000005 57.39999999999998-1.2999999999999545 103.59999999999997 38.299999999999955 111.39999999999998 95 1.6999999999999886 11.200000000000045 1.6999999999999886 11.5 13.600000000000023 11.200000000000045 78.69999999999999-0.20000000000004547 157.69999999999993-0.900000000000091 236.5-0.900000000000091 8.699999999999932 0 11-2.599999999999909 11.899999999999977-10.599999999999909 4.600000000000023-49.30000000000007 48-90.70000000000005 96.5-94.5 61.700000000000045-5 105.20000000000005 38.5 115.29999999999995 82 1.7000000000000455 7.7999999999999545 3 15.799999999999955 4.800000000000068 25.09999999999991 18.799999999999955-1.099999999999909 37.19999999999993-1.6999999999999318 55.60000000000002-3.2999999999999545 8.899999999999977-0.7000000000000455 15.399999999999977-5.600000000000023 19.699999999999932-13.399999999999977 1.5-2.6000000000000227 3.5-5 5.2000000000000455-7.600000000000023v-189.10000000000002c-0.5-3.2999999999999545-1.1000000000000227-6.699999999999989-1.1000000000000227-10z m-586.8-24.19999999999999c-5.684341886080802e-14 7.800000000000011-2.800000000000068 9.5-10.200000000000045 9.300000000000011-46.69999999999999-0.39999999999997726-93.69999999999999-0.39999999999997726-140.4-0.39999999999997726-7.400000000000006-0.20000000000004547-14.699999999999989 0-23.400000000000006 0 0.9000000000000057-4.100000000000023 1.1000000000000227-5.800000000000011 1.700000000000017-7.400000000000034 18.599999999999994-45.69999999999999 37.400000000000006-91.30000000000001 55.79999999999998-137 2.1000000000000227-5.199999999999989 5.400000000000006-6.5 10.600000000000023-6.300000000000011 32 0 63.80000000000001 0.20000000000004547 96.09999999999997-0.19999999999998863 7.400000000000034 0 9.700000000000045 2 9.700000000000045 9.5-0.4000000000000341 44.19999999999999-0.4000000000000341 88.30000000000001 0.0999999999999659 132.5z m222 47.599999999999966c26.199999999999932 31.800000000000068 74.19999999999993 45.200000000000045 117 23.200000000000045-5.800000000000068 8.700000000000045-32.90000000000009 23.200000000000045-50.60000000000002 27.299999999999955-19.200000000000045 4.5-38.5 4.300000000000068-57.80000000000007-0.8999999999999773-47.59999999999991-13-79.89999999999998-53.69999999999999-83.29999999999995-99.5-4.100000000000023-53 29.200000000000045-97.59999999999997 74.20000000000005-114 43.89999999999998-16 90-3 117.69999999999993 23.600000000000023-23.199999999999932-11.699999999999989-47.19999999999993-14.100000000000023-72-6.699999999999989-20.100000000000023 6.099999999999966-36.299999999999955 17.5-48.69999999999993 34.39999999999998-25.100000000000023 34.10000000000002-23.600000000000023 79.90000000000003 3.5 112.59999999999997z"/>
</svg>
