<svg xmlns="http://www.w3.org/2000/svg" viewBox="0 0 1000 1000" width="1000" height="1000">
<path d="M1000 133c-1.1000000000000227 2.6999999999999886-1.2000000000000455 5.5-1.8999999999999773 8.199999999999989-3.5 14.700000000000017-8.399999999999977 28.80000000000001-15.800000000000068 41.900000000000006-8.099999999999909 14.200000000000017-18.59999999999991 26.099999999999994-32.89999999999998 34.5-10.100000000000023 5.900000000000006-21.100000000000023 9.5-32.69999999999993 11.099999999999994-17.40000000000009 2.6000000000000227-34.700000000000045 0.8000000000000114-51.80000000000007-2.8999999999999773-26.399999999999977-5.600000000000023-51.19999999999993-15.600000000000023-75.39999999999998-27.200000000000017-26.200000000000045-12.599999999999994-51.200000000000045-27.19999999999999-75.89999999999998-42.5-12.200000000000045-7.5-24.399999999999977-15.099999999999994-37.60000000000002-20.900000000000006-8.700000000000045-3.8999999999999773-17.600000000000023-7-27.100000000000023-8.199999999999989-16.100000000000023-2-29.899999999999977 2.4000000000000057-40.89999999999998 14.599999999999994-7.7999999999999545 8.700000000000017-13 18.900000000000006-16.600000000000023 30-2.199999999999932 6.800000000000011-4.199999999999932 13.700000000000017-6.399999999999977 20.5-1.2999999999999545 4.200000000000017-3 8.300000000000011-5.2000000000000455 12.099999999999994-4.7999999999999545 8.200000000000017-12.099999999999909 12.200000000000017-21.5 12.400000000000006-1.8999999999999773 0-3.8999999999999773 0-5.899999999999977 0-0.10000000000002274-1.299999999999983 0.8000000000000682-1.1999999999999886 1.3000000000000682-1.4000000000000057 8.199999999999932-3.1999999999999886 13.399999999999977-9.199999999999989 16.199999999999932-17.5 2.6000000000000227-7.699999999999989 3-15.699999999999989 3.1000000000000227-23.69999999999999 0-6.599999999999994-0.2999999999999545-13.099999999999994-0.2999999999999545-19.599999999999994-0.20000000000004547-9.700000000000017-0.10000000000002274-19.400000000000006 2.199999999999932-29 2-8 6-14.700000000000003 12.5-20 10.5-8.400000000000006 22.399999999999977-13.400000000000006 35.60000000000002-15.5 16.200000000000045-2.6000000000000085 32.39999999999998-1 48.39999999999998 2.299999999999997 23.300000000000068 4.799999999999997 45.5 13.299999999999997 67.30000000000007 22.700000000000003 12.899999999999977 5.699999999999989 25.59999999999991 12 38.39999999999998 17.799999999999983 23.899999999999977 10.900000000000006 48.799999999999955 18 74.79999999999995 22 17.800000000000068 2.700000000000017 35.700000000000045 3.700000000000017 53.60000000000002 2.8000000000000114 29.299999999999955-1.4000000000000057 57.39999999999998-7.900000000000006 83.89999999999998-20.69999999999999 3.6000000000000227-1.700000000000017 7.2000000000000455-3.5 10.5-5.700000000000017 0.10000000000002274 0.700000000000017 0.10000000000002274 1.3000000000000114 0.10000000000002274 1.9000000000000057z m-462 434.20000000000005c4.2000000000000455-0.8000000000000682 8.399999999999977-1.5 12.600000000000023-2.400000000000091 11.299999999999955-2.5 22.100000000000023-6.2999999999999545 32.5-11.399999999999977 3-1.3999999999999773 3-1.3999999999999773 3.8999999999999773 1.8999999999999773 3 11.100000000000023 4.600000000000023 22.5 3.8999999999999773 34.10000000000002-1.1000000000000227 17.600000000000023-7.7999999999999545 32.89999999999998-19.899999999999977 45.700000000000045-11.299999999999955 12.100000000000023-25.299999999999955 20.199999999999932-40.60000000000002 26.100000000000023-4.2999999999999545 1.599999999999909-8.600000000000023 3.099999999999909-13 4.099999999999909-1.5 0.3000000000000682-2.199999999999932 1.1000000000000227-2.2999999999999545 2.7000000000000455-0.6000000000000227 10.299999999999955-1.2000000000000455 20.5-1.8000000000000682 30.700000000000045 0 0.09999999999990905 0.20000000000004547 0.2999999999999545 0.3000000000000682 0.5 0.1999999999999318 0 0.39999999999997726 0.1999999999999318 0.6000000000000227 0.09999999999990905 6.699999999999932-3.2999999999999545 11.699999999999932-8.099999999999909 13.5-15.699999999999932 1.2999999999999545-5.899999999999977-0.40000000000009095-10.100000000000023-5.600000000000023-13.200000000000045-0.7000000000000455-0.5-1.5-0.6000000000000227-2.1000000000000227-1.3999999999999773 0.6000000000000227-1 1.7000000000000455-0.7000000000000455 2.6000000000000227-0.7999999999999545 7.699999999999932-1.8000000000000682 15-4.800000000000068 22.100000000000023-8.5 3.699999999999932-1.900000000000091 7.2999999999999545-4.100000000000023 11-6.2000000000000455 2.199999999999932-1.2999999999999545 2.199999999999932-1.2999999999999545 3.3999999999999773 1.1000000000000227 6.899999999999977 14.100000000000023 6.7999999999999545 28.100000000000023-0.7000000000000455 41.89999999999998-5.600000000000023 10.200000000000045-13.799999999999955 17.700000000000045-23.600000000000023 23.700000000000045-6.199999999999932 3.8999999999999773-12.899999999999977 6.7999999999999545-19.899999999999977 8.899999999999977-2.8999999999999773 0.8999999999999773-2.8999999999999773 0.8999999999999773-3 4.100000000000023-0.19999999999998863 8.199999999999932-0.39999999999997726 16.299999999999955-0.5999999999999659 24.399999999999977 0 0.7999999999999545-0.30000000000001137 1.6999999999999318 0.30000000000001137 2.3999999999999773 7.7999999999999545-2.2000000000000455 11.699999999999932-11.600000000000023 7.7999999999999545-18.399999999999977-1.1999999999999318-2.2000000000000455-2.8999999999999773-4.2000000000000455-4.600000000000023-6-0.6999999999999318-0.7000000000000455-1.6999999999999318-1.2000000000000455-2.099999999999909-2.300000000000068 1-0.7999999999999545 2.099999999999909-0.8999999999999773 3.199999999999932-1.1999999999999318 6.7000000000000455-2.1000000000000227 13-5.100000000000023 19.100000000000023-8.399999999999977 2.2999999999999545-1.400000000000091 2.3999999999999773-1.400000000000091 4.2999999999999545 0.5 10.5 10.5 12.900000000000091 22.899999999999977 8 36.69999999999993-4.899999999999977 13.899999999999977-14.799999999999955 23.5-27.699999999999932 30.300000000000068-2.7000000000000455 1.3999999999999773-5.399999999999977 2.5-8.200000000000045 3.3999999999999773-1.099999999999966 0.2999999999999545-1.6999999999999886 0.7999999999999545-1.7999999999999545 2.1000000000000227-0.10000000000002274 10.299999999999955-0.20000000000004547 20.5-0.4000000000000341 30.799999999999955 0 0.39999999999997726-0.19999999999998863 1 0.6999999999999886 1.6000000000000227 4.600000000000023-4 7.100000000000023-9.100000000000023 7.300000000000068-15.300000000000068s-2.300000000000068-11.5-7.100000000000023-16.09999999999991c8.399999999999977-2.2000000000000455 15.699999999999932-5.900000000000091 22.199999999999932-11.400000000000091 3.1000000000000227 5 4.800000000000068 10.200000000000045 5.300000000000068 15.700000000000045 0.7999999999999545 9.299999999999955-1.8999999999999773 17.799999999999955-6.7000000000000455 25.600000000000023-5.399999999999977 8.699999999999932-12.399999999999977 15.899999999999977-20.69999999999999 22-1.5 1.1000000000000227-2.1999999999999886 2.2999999999999545-2.099999999999966 4.100000000000023 0.0999999999999659 5 0 9.899999999999977 0 15.099999999999909 2.6999999999999886-0.7999999999999545 3.8999999999999773-2.7999999999999545 4.2999999999999545-5.2999999999999545 0.5-3.1000000000000227 0-6.100000000000023-1.5-8.899999999999977-0.6999999999999886-1.2000000000000455-0.7999999999999545-1.8999999999999773 0.5-2.800000000000068 3.1000000000000227-2.099999999999909 5.899999999999977-4.5 8.300000000000068-7.2999999999999545 0.6999999999999318-0.7999999999999545 1.2999999999999545-0.8999999999999773 2.099999999999909 0 3.2000000000000455 3.5 5.5 7.399999999999977 5.7000000000000455 12.299999999999955 0.39999999999997726 7.300000000000068-1.7999999999999545 13.900000000000091-5.399999999999977 20.200000000000045-2.1000000000000227 3.6000000000000227-4.5 7.2000000000000455-7.300000000000068 10.299999999999955-6.599999999999966 7.5-9.499999999999943 16.5-10.799999999999955 26.200000000000045-1.5 11.799999999999955-2.6000000000000227 23.700000000000045-3.1999999999999886 35.60000000000002-0.10000000000002274 1.7999999999999545-0.30000000000001137 3.5-1 5.199999999999932-0.10000000000002274-2.5-0.4000000000000341-5.099999999999909-0.5-7.599999999999909-0.6999999999999886-13.800000000000068-2.400000000000034-27.600000000000023-4.199999999999989-41.30000000000007-1.3000000000000114-10-1.6000000000000227-20.199999999999932-2.400000000000034-30.299999999999955-0.5-6.399999999999977-0.5999999999999659-12.800000000000068-0.5999999999999659-19.300000000000068 0-0.599999999999909-0.20000000000004547-1.1999999999999318-0.30000000000001137-2-2.5 0.40000000000009095-3.6000000000000227 2.1000000000000227-4.199999999999989 4.2000000000000455-0.7000000000000455 2.5-0.4000000000000341 5.100000000000023 1.1999999999999886 7.2000000000000455 1.1999999999999886 1.6999999999999318 1.6999999999999886 3.599999999999909 1.8999999999999773 5.599999999999909 0.8000000000000114 10 1.6999999999999886 20 2.5 30 0 0.10000000000002274-0.19999999999998863 0.3000000000000682-0.19999999999998863 0.5-1.1000000000000227-0.39999999999997726-1.1999999999999886-1.5-1.6999999999999886-2.199999999999932-3.5-5.399999999999977-7.199999999999989-10.700000000000045-10.400000000000034-16.200000000000045-4.199999999999989-7.2999999999999545-7.399999999999977-14.799999999999955-8.099999999999966-23.199999999999932-0.5-5.800000000000068 0.30000000000001137-11.300000000000068 3.5-16.300000000000068 3-4.5 7.099999999999966-7.199999999999932 12.199999999999989-8.600000000000023 2.5-0.7999999999999545 2.5-0.7999999999999545 2.5-3.099999999999909-0.19999999999998863-10.400000000000091-0.39999999999997726-20.700000000000045-0.5-31.100000000000023 0-0.6000000000000227 0-1.3000000000000682-0.39999999999997726-1.8000000000000682-0.9000000000000341-0.1999999999999318-1.2000000000000455 0.6000000000000227-1.7000000000000455 1.1000000000000227-5 5.899999999999977-6.599999999999966 12.5-4 20 1.5 4 3.400000000000034 7.800000000000068 5.5 11.5-1.5 1.2000000000000455-3.3999999999999773 1.3999999999999773-5 2.1000000000000227-1.8999999999999773 0.8999999999999773-3.8999999999999773 1.7999999999999545-5.599999999999966 3-1.1000000000000227 0.7999999999999545-1.900000000000034 0.8999999999999773-3-0.10000000000002274-6.400000000000034-6.199999999999932-11.800000000000011-13.100000000000023-13.900000000000034-21.899999999999977-3.099999999999966-13.399999999999977 0.4000000000000341-25.299999999999955 9.400000000000034-35.60000000000002 4.199999999999989-4.899999999999977 9.300000000000011-8.899999999999977 15-11.899999999999977 1.6999999999999886-0.7999999999999545 2.3000000000000114-1.7999999999999545 2.1999999999999886-3.6000000000000227-0.19999999999998863-8.399999999999977-0.39999999999997726-16.699999999999932-0.6000000000000227-25 0-0.2999999999999545-0.0999999999999659-0.6000000000000227-0.19999999999998863-0.8999999999999773-3.6999999999999886 1.6000000000000227-8.5 7-9.300000000000011 10.600000000000023-0.5 2.5 0 4.7999999999999545 1.1000000000000227 7.100000000000023 1.1999999999999886 2.5 3 4.5 5.100000000000023 6.2999999999999545 0.7999999999999545 0.7000000000000455 1.7999999999999545 1.1000000000000227 2.3999999999999773 2-0.30000000000001137 0.7999999999999545-1.1000000000000227 1-1.6999999999999886 1.3999999999999773-4.400000000000034 2.7000000000000455-8.5 5.800000000000068-12.5 9.200000000000045-2.6999999999999886 2.2999999999999545-2.6999999999999886 2.3999999999999773-6 0.5-8.300000000000011-4.899999999999977-13.199999999999989-12.300000000000068-15-21.700000000000045-2.5-13.399999999999977 1.6999999999999886-25 11-34.799999999999955 5.800000000000011-6 12.800000000000011-10.200000000000045 20.399999999999977-13.600000000000023 0.6000000000000227-0.39999999999997726 1.3000000000000114-0.7000000000000455 2-0.8999999999999773 1.5-0.39999999999997726 1.900000000000034-1.3999999999999773 1.8000000000000114-2.800000000000068-0.5-10-0.8000000000000114-19.899999999999977-1.1999999999999886-29.799999999999955-0.10000000000002274-2.2000000000000455-0.4000000000000341-2.5-2.5-2-2.6999999999999886 0.5-5.300000000000011 1.3999999999999773-7.5 3.1000000000000227-3.1000000000000227 2.199999999999932-4.400000000000034 5.2999999999999545-4 9.100000000000023 0.5 5.899999999999977 3.3000000000000114 10.5 7.800000000000011 14.299999999999955 1.599999999999966 1.2999999999999545 3.3999999999999773 2.3999999999999773 5.099999999999966 3.7000000000000455-0.30000000000001137 1-1.1999999999999886 1.099999999999909-2 1.3999999999999773-8.199999999999989 3.699999999999932-16 8.100000000000023-22.599999999999966 14.299999999999955-1.400000000000034 1.3000000000000682-2.3000000000000114 0.8999999999999773-3.6000000000000227 0-8.100000000000023-5.600000000000023-13.899999999999977-13.100000000000023-17.30000000000001-22.399999999999977-6.899999999999977-18.200000000000045-2.8999999999999773-34.700000000000045 9-49.39999999999998 8.600000000000023-10.600000000000023 20-17.399999999999977 32.69999999999999-22.200000000000045 3.2000000000000455-1.1999999999999318 3.3000000000000114-1.1999999999999318 3.2000000000000455-4.5-0.5-16.600000000000023-1-33.19999999999993-1.6000000000000227-49.69999999999993 0-2.800000000000068-0.10000000000002274-2.800000000000068-2.8999999999999773-2.900000000000091-4.400000000000034 0-8.800000000000011 0.5-13.100000000000023 1.900000000000091-11.600000000000023 3.7999999999999545-17.399999999999977 13.399999999999977-15 25.699999999999932 2.3999999999999773 12.600000000000023 10 21.200000000000045 21.899999999999977 25.899999999999977 0.8000000000000114 0.3000000000000682 1.8000000000000114 0.3000000000000682 2.5 1.1000000000000227-0.39999999999997726 0.8999999999999773-1.2999999999999545 0.8999999999999773-2 1.3000000000000682-10.699999999999989 4.899999999999977-19.899999999999977 11.799999999999955-27.899999999999977 20.399999999999977-2.1999999999999886 2.3999999999999773-2.3000000000000114 2.5-5.199999999999989 0.8999999999999773-13.5-6.7999999999999545-23.30000000000001-17.299999999999955-30.30000000000001-30.5-5.300000000000011-10-8-20.600000000000023-6.899999999999977-32 0.5-5.5 2.099999999999966-10.700000000000045 4.7999999999999545-15.600000000000023 9.600000000000023-17.799999999999955 24.100000000000023-30.5 42.30000000000001-39 8.699999999999989-4 17.80000000000001-6.399999999999977 27.400000000000034-7.100000000000023 2.7999999999999545-0.1999999999999318 2.8999999999999773-0.2999999999999545 2.7999999999999545-3.2999999999999545-0.5-14.699999999999989-1-29.5-1.5-44.19999999999999-0.5-12.5-0.8999999999999773-24.900000000000034-1.3999999999999773-37.400000000000034-0.19999999999998863-5-0.30000000000001137-4.899999999999977-5.199999999999989-5.099999999999966-11.100000000000023-0.19999999999998863-22.100000000000023 0.8999999999999773-32.69999999999999 4.599999999999966-5.800000000000011 1.900000000000034-11.100000000000023 4.7000000000000455-15.600000000000023 8.900000000000034-7.5 7.099999999999966-10 16.099999999999966-9.199999999999989 26.099999999999966 1 12.400000000000034 6.800000000000011 22.30000000000001 16.19999999999999 30.100000000000023 9 7.5 19.5 12.100000000000023 30.600000000000023 15.399999999999977l5.7999999999999545 1.6000000000000227c0.20000000000004547 0.10000000000002274 0.30000000000001137 0.2999999999999545 0.6000000000000227 0.6000000000000227-1.6999999999999886 0.39999999999997726-3.1000000000000227 0.7999999999999545-4.600000000000023 1.1999999999999318-18.599999999999966 4.900000000000091-34.099999999999966 14.800000000000068-47.299999999999955 28.600000000000023-3.3000000000000114 3.5-3.3000000000000114 3.6000000000000227-7.400000000000034 1.2000000000000455-25.099999999999966-14.700000000000045-43.39999999999998-35.30000000000001-52.69999999999999-63.200000000000045-5.199999999999989-15.199999999999989-5.300000000000011-30.599999999999966 0.6000000000000227-45.799999999999955 5.699999999999989-14.400000000000034 15.199999999999989-25.5 28.099999999999966-33.80000000000001 11.800000000000011-7.699999999999989 24.900000000000034-12.199999999999989 38.60000000000002-15.199999999999989 11.800000000000011-2.6000000000000227 23.69999999999999-3.6000000000000227 35.80000000000001-3.400000000000034 5 0.10000000000002274 9.899999999999977-0.30000000000001137 14.899999999999977-0.5 2.1999999999999886-0.0999999999999659 2.3000000000000114-0.19999999999998863 2.1999999999999886-2.3999999999999773-0.39999999999997726-14.199999999999989-0.8999999999999773-28.30000000000001-1.3000000000000114-42.400000000000034-0.2999999999999545-8.399999999999977-0.6999999999999886-16.69999999999999-0.7999999999999545-25 0-2.5-0.9000000000000341-3.8999999999999773-2.7000000000000455-5.2999999999999545-8.899999999999977-6.400000000000034-18.5-11.100000000000023-28.799999999999955-14.400000000000034-15.600000000000023-4.899999999999977-31.600000000000023-6.5-47.900000000000034-5-2.5 0.19999999999998863-5 0.4000000000000341-7.5 0.6000000000000227-0.0999999999999659 0-0.19999999999998863 0-0.30000000000001137-0.10000000000002274 0.10000000000002274-0.30000000000001137 0-0.6999999999999886 0.20000000000004547-0.8999999999999773 5.2999999999999545-9 8.599999999999966-18.80000000000001 12.099999999999966-28.5 2.5-6.700000000000017 4.900000000000034-13.5 8.199999999999989-19.900000000000006 2-3.8000000000000114 4.300000000000011-7.5 7.300000000000011-10.700000000000017 4.900000000000034-5.199999999999989 11-7.799999999999983 18.100000000000023-8.699999999999989 11-1.5 21.599999999999966 0.9000000000000057 31.80000000000001 4.800000000000011 3 1.1999999999999886 6 2.5999999999999943 9.199999999999989 3.8999999999999773 0.30000000000001137-3.3999999999999773-0.6999999999999886-6.299999999999983-1.5-9.199999999999989-1.3000000000000114-4.699999999999989-3.5-9-6.100000000000023-13.199999999999989l-5.5-8.800000000000011c-5.199999999999989-8.699999999999989-6-17.900000000000006-2.8999999999999773-27.400000000000006 0.5999999999999659-2 1.3000000000000114-3.9000000000000057 2-5.699999999999989 1.599999999999966-3.8000000000000114 1.599999999999966-3.8000000000000114-1.5-6.400000000000006-7.300000000000011-6.099999999999994-12.900000000000034-13.5-16.900000000000034-22.099999999999994-17.399999999999977-37.7 5.400000000000034-81.7 46.10000000000002-89.30000000000001 34.200000000000045-6.3999999999999915 67.5 16.300000000000004 73.70000000000005 50.60000000000001 4.5 24.599999999999994-3.400000000000091 45.2-22.300000000000068 61.39999999999999-0.39999999999997726 0.4000000000000057-0.6999999999999318 0.700000000000017-1.1999999999999318 1-1 0.5999999999999943-1 1.4000000000000057-0.5 2.4000000000000057 1.2999999999999545 2.9000000000000057 2.3999999999999773 5.800000000000011 3.2999999999999545 8.900000000000006 2.7999999999999545 9.199999999999989 1.8999999999999773 17.900000000000006-3 26.19999999999999-2.2999999999999545 3.9000000000000057-4.7000000000000455 7.700000000000017-7 11.700000000000017-3.2999999999999545 5.599999999999994-5.5 11.599999999999994-6.2000000000000455 18.099999999999994 0 0.4000000000000057 0 0.799999999999983 0 1.1999999999999886 0 0.09999999999999432 0.10000000000002274 0.20000000000001705 0.10000000000002274 0.4000000000000057 1.2000000000000455 0.09999999999999432 2.2000000000000455-0.6999999999999886 3.2000000000000455-1.1999999999999886 9-4.100000000000023 18.299999999999955-7 28.199999999999932-7.700000000000017 6-0.29999999999998295 11.900000000000091 0.30000000000001137 17.5 2.3000000000000114 4.100000000000023 1.4000000000000057 7.600000000000023 4 10.5 7.299999999999983 3.300000000000068 3.6000000000000227 5.800000000000068 7.800000000000011 7.900000000000091 12.200000000000017 3.699999999999932 7.799999999999983 6.399999999999977 15.999999999999972 9.399999999999977 24.099999999999994 2.7999999999999545 7.600000000000023 5.600000000000023 15 9.699999999999932 22 0.20000000000004547 0.39999999999997726 0.5 0.6999999999999886 0.3000000000000682 1.3999999999999773-2.8999999999999773-0.2999999999999545-5.7000000000000455-0.5999999999999659-8.700000000000045-0.7999999999999545-24.199999999999932-1.7000000000000455-47.19999999999993 2.2999999999999545-68.5 14.799999999999955-2.5 1.5-4.899999999999977 3.3000000000000114-7.2999999999999545 5-1.8000000000000682 1.3000000000000114-2.6000000000000227 2.7000000000000455-2.6000000000000227 5-0.20000000000004547 11.5-0.6000000000000227 23-0.8999999999999773 34.5-0.39999999999997726 10.600000000000023-0.7000000000000455 21.30000000000001-1.1000000000000227 31.900000000000034 0 0.5 0.10000000000002274 0.8999999999999773 0 1.3000000000000114-0.20000000000004547 1.6999999999999886 0.6000000000000227 2.1999999999999886 2.2000000000000455 2.1999999999999886 6.399999999999977 0.19999999999998863 12.799999999999955 0.5 19.299999999999955 0.5999999999999659 12.799999999999955 0.20000000000004547 25.700000000000045-0.19999999999998863 38.60000000000002-1.2999999999999545s25.600000000000023-2.8000000000000114 37.89999999999998-6.900000000000034c3.1000000000000227-1 6.100000000000023-2.1999999999999886 9-3.8000000000000114 1.3999999999999773-0.6999999999999886 2.7999999999999545-1.5 4-2.3999999999999773 7.2999999999999545-5.100000000000023 10.100000000000023-11.399999999999977 8.5-18.69999999999999-2-9.100000000000023-7.7999999999999545-14.800000000000011-16.399999999999977-16.30000000000001-6.399999999999977-1.1999999999999886-12.800000000000068-0.6000000000000227-19.200000000000045 0.30000000000001137-10.600000000000023 1.3999999999999773-21 3.599999999999966-31.699999999999932 4.5-10.100000000000023 0.8000000000000114-20.200000000000045 0.5999999999999659-30-2.900000000000034-0.900000000000091-0.39999999999997726-2.400000000000091-0.39999999999997726-2.400000000000091-1.599999999999966-0.09999999999990905-1.400000000000034 1.1000000000000227-2.1999999999999886 2.300000000000068-2.6999999999999886 1.7999999999999545-0.9000000000000341 3.7999999999999545-1.3000000000000114 5.7999999999999545-1.400000000000034 3.7000000000000455-0.0999999999999659 7.399999999999977-0.0999999999999659 11.100000000000023 0.30000000000001137 2.5 0.19999999999998863 5.100000000000023 0.30000000000001137 7.600000000000023 0.19999999999998863 1.1999999999999318-0.0999999999999659 2.8999999999999773-0.0999999999999659 3.1000000000000227-1.599999999999966 0.1999999999999318-1.7000000000000455-1.5-1.8000000000000114-2.7000000000000455-2.1000000000000227-3.2000000000000455-0.8000000000000114-6.5-1-9.700000000000045-1.3000000000000114-3.3999999999999773-0.19999999999998863-6.699999999999932-0.5-10-1.3000000000000114-1.7999999999999545-0.2999999999999545-3.5-0.6999999999999886-5-2.099999999999966 0.5-1.1999999999999886 1.8000000000000682-1.6999999999999886 2.7000000000000455-2.400000000000034 6.600000000000023-4.2999999999999545 13.799999999999955-6.899999999999977 21.299999999999955-8.599999999999966 12.700000000000045-3 25.5-3.3000000000000114 38.40000000000009-2.1999999999999886 13.399999999999977 1.099999999999966 26.299999999999955 3.8999999999999773 38.69999999999993 9 6.7000000000000455 2.7999999999999545 12.899999999999977 6.199999999999989 18.700000000000045 10.5 19.199999999999932 14.299999999999955 19.600000000000023 35.799999999999955 12.699999999999932 51.599999999999966-3.7999999999999545 8.600000000000023-9.799999999999955 15.400000000000034-17 21.400000000000034-6.7999999999999545 5.599999999999966-14.299999999999955 10.099999999999966-22.299999999999955 13.699999999999989-4.7000000000000455 2.099999999999966-9.899999999999977 3-14.899999999999977 4.099999999999966-28.200000000000045 6.400000000000034-56.89999999999998 9-85.80000000000007 8.200000000000045-4.399999999999977-0.10000000000002274-8.799999999999955-0.5-13.299999999999955-0.8000000000000114-2.5-0.10000000000002274-2.6000000000000227-0.19999999999998863-2.7000000000000455 2.3999999999999773-0.5 12.699999999999989-0.8999999999999773 25.30000000000001-1.2999999999999545 38-0.5 15.100000000000023-1 30.19999999999999-1.5 45.19999999999999-0.10000000000002274 3-0.10000000000002274 3.1000000000000227 2.6000000000000227 2.7000000000000455 13.5-2.300000000000068 26.5-6.100000000000023 38.39999999999998-13.200000000000045 6.2999999999999545-3.6999999999999886 11.899999999999977-8.299999999999955 16.299999999999955-14.199999999999989 6.600000000000023-8.699999999999989 9.100000000000023-18.599999999999966 8.100000000000023-29.19999999999999-1.1000000000000227-10.800000000000011-7-18.600000000000023-16.299999999999955-23.80000000000001l-3.8999999999999773-2.099999999999966c-0.10000000000002274-0.10000000000002274-0.10000000000002274-0.20000000000004547-0.20000000000004547-0.30000000000001137 0.5-0.9000000000000341 1.2999999999999545-0.6000000000000227 2-0.6000000000000227 22.799999999999955-0.39999999999997726 45.200000000000045-3.6999999999999886 67-10.399999999999977 1.7000000000000455-0.5 2.5-0.30000000000001137 3.3999999999999773 1.099999999999966 5.100000000000023 8.700000000000045 8.399999999999977 17.900000000000034 9.5 27.900000000000034 2 18.19999999999999-2.699999999999932 34.80000000000001-11.5 50.39999999999998-11.399999999999977 19.900000000000034-26.899999999999977 35.80000000000001-47.60000000000002 45.900000000000034-14.899999999999977 7.199999999999932-30.699999999999932 11.899999999999977-47 14.799999999999955-6.5 1.2000000000000455-13.099999999999909 1.8999999999999773-19.799999999999955 2-2.7000000000000455 0.10000000000002274-2.7000000000000455 0.20000000000004547-2.7000000000000455 2.8999999999999773-0.599999999999909 16.5-1.099999999999909 32.90000000000009-1.599999999999909 49.40000000000009 0 0.5 0 1-0.10000000000002274 1.599999999999909-0.10000000000002274 1.3000000000000682 0.6000000000000227 1.7000000000000455 1.7999999999999545 1.5 2.5-0.2999999999999545 5-0.599999999999909 7.399999999999977-1.3999999999999773 13.700000000000045-4.7999999999999545 21.90000000000009-14.299999999999955 23.800000000000068-28.699999999999932 1.1000000000000227-8.400000000000091-1.8999999999999773-15.400000000000091-9-20.40000000000009-0.6000000000000227-0.39999999999997726-1.3999999999999773-0.5-1.6000000000000227-1.599999999999909z m-537.8-435.40000000000003c1.0999999999999546-0.20000000000001705 1.7999999999999545 0.5 2.4999999999999547 0.8999999999999773 21.7 11.800000000000011 44.8 19.100000000000023 69.2 22.600000000000023 20.099999999999994 3 40.3 3.1999999999999886 60.599999999999994 1.299999999999983 34-3.1999999999999886 66.4-12.199999999999989 97.30000000000001-27.099999999999994 20.599999999999994-9.900000000000006 41.39999999999998-19.400000000000006 63-27.099999999999994 13.899999999999977-4.900000000000006 28.099999999999966-9 42.69999999999999-11.5 15-2.5 30-3.3000000000000114 45-0.4000000000000057 11.100000000000023 2.299999999999997 21.19999999999999 6.799999999999997 30.399999999999977 13.5 8.800000000000011 6.599999999999994 13.5 15.400000000000006 15.200000000000045 26.099999999999994 1.6999999999999886 10.599999999999994 1.2999999999999545 21.200000000000017 1.1999999999999886 31.900000000000006-0.10000000000002274 6.400000000000006-0.19999999999998863 12.900000000000006 0.0999999999999659 19.30000000000001 0.20000000000004547 5.199999999999989 0.9000000000000341 10.299999999999983 2.400000000000034 15.299999999999983 2.6999999999999886 8.900000000000006 8 15.400000000000006 16.899999999999977 18.700000000000017 0.4000000000000341 0.09999999999999432 0.8000000000000114 0.19999999999998863 1 0.6999999999999886-8.5 2.5999999999999943-19.80000000000001-1.5-25.5-9-2.6999999999999886-3.6999999999999886-4.599999999999966-7.800000000000011-6.099999999999966-12.099999999999994-2.5-6.700000000000017-4.300000000000011-13.5-6.400000000000034-20.200000000000017-3.099999999999966-9.899999999999977-7.199999999999989-19.399999999999977-13.300000000000011-27.799999999999983-6.599999999999966-9-14.699999999999989-15.800000000000011-25.599999999999966-18.80000000000001-8.800000000000011-2.3999999999999915-17.69999999999999-1.8999999999999915-26.600000000000023 0.09999999999999432-10.599999999999966 2.5-20.399999999999977 6.800000000000011-30 11.800000000000011-12 6.199999999999989-23.399999999999977 13.5-34.89999999999998 20.5-24.100000000000023 14.800000000000011-48.70000000000002 28.80000000000001-74.30000000000001 40.80000000000001-20.69999999999999 9.599999999999994-41.900000000000006 17.899999999999977-64.1 23.19999999999999-14.300000000000011 3.4000000000000057-28.60000000000001 5.699999999999989-43.30000000000001 5.400000000000006-17.89999999999999-0.4000000000000057-34.89999999999999-4.300000000000011-50.099999999999994-14.300000000000011-13.399999999999999-8.699999999999989-23.3-20.599999999999994-30.9-34.599999999999994-8.3-15.400000000000006-13.3-31.900000000000006-16.6-48.900000000000006 0-0.09999999999999432 0.1-0.19999999999998863 0.2-0.29999999999998295z m608.3 21.69999999999999c0.10000000000002274-0.19999999999998863 0.10000000000002274-0.5999999999999943 0.20000000000004547-0.8000000000000114 8.799999999999955-12.799999999999983 20.5-19.799999999999983 36.39999999999998-18.599999999999994 9.100000000000023 0.700000000000017 17.600000000000023 3.5 25.899999999999977 7 11.200000000000045 4.700000000000017 21.700000000000045 10.800000000000011 32 17.200000000000017 21.799999999999955 13.399999999999977 43.60000000000002 26.599999999999994 66.29999999999995 38.39999999999998 23.100000000000023 12 46.90000000000009 22.700000000000017 71.80000000000007 30.5 13.399999999999977 4.200000000000017 26.899999999999977 7.400000000000006 40.69999999999993 9 15.600000000000023 1.8000000000000114 31.200000000000045 1.700000000000017 46.60000000000002-2.1999999999999886 0.3000000000000682 0 0.6000000000000227-0.09999999999999432 0.8999999999999773-0.09999999999999432 0.20000000000004547 0 0.40000000000009095 0.09999999999999432 0.7000000000000455 0.19999999999998863-0.39999999999997726 2.8000000000000114-1.5 5.400000000000006-2.6000000000000227 8-5.7999999999999545 14.000000000000028-15.699999999999932 24.599999999999994-28.299999999999955 32.79999999999998-13 8.5-27.5 13.600000000000023-42.80000000000007 16.5-7.899999999999977 1.5-15.899999999999977 2.3000000000000114-23.899999999999977 2.2000000000000455-12.100000000000023-0.20000000000004547-23.600000000000023-3.3000000000000114-34.69999999999993-7.7000000000000455-15.200000000000045-6-28.600000000000023-14.899999999999977-41.30000000000007-25-11.600000000000023-9.199999999999989-22.299999999999955-19.399999999999977-32.799999999999955-29.799999999999983-13.399999999999977-13.099999999999994-26.399999999999977-26.799999999999983-40.30000000000007-39.400000000000006-11.5-10.5-23.59999999999991-20.19999999999999-37.39999999999998-27.399999999999977-11.399999999999977-6-23.399999999999977-9.700000000000017-36.19999999999993-10.300000000000011-0.40000000000009095-0.09999999999999432-0.900000000000091 0-1.2000000000000455-0.5z m-538.4 80.30000000000001c3.9999999999999716 0.6999999999999886 7.699999999999974 1.5 11.399999999999977 2.0999999999999943 10.700000000000003 1.6999999999999886 21.5 1.6999999999999886 32.2 0.6999999999999886 28.39999999999999-2.6999999999999886 54.999999999999986-11.599999999999994 80.99999999999999-22.69999999999999 27.30000000000001-11.700000000000017 53.30000000000001-26 78.69999999999999-41.20000000000002 11.100000000000023-6.699999999999989 22.200000000000045-13.599999999999994 33.30000000000001-20.19999999999999 11.100000000000023-6.5 22.400000000000034-12.300000000000011 34.80000000000001-15.900000000000006 6.600000000000023-1.9000000000000057 13.300000000000011-3 20.30000000000001-2.5 9 0.700000000000017 16.599999999999966 4.400000000000006 23 10.700000000000017 2.599999999999966 2.5 5 5.299999999999983 7.099999999999966 8.899999999999977-2.099999999999966 0.20000000000001705-3.8999999999999773 0.4000000000000057-5.699999999999989 0.6000000000000227-13.699999999999989 1.299999999999983-26.099999999999966 6.199999999999989-37.89999999999998 13.199999999999989-12.800000000000011 7.699999999999989-24.100000000000023 17.099999999999994-34.900000000000034 27.19999999999999-12.399999999999977 11.5-24.099999999999966 23.700000000000017-36.099999999999966 35.60000000000002-11.199999999999989 11-22.600000000000023 21.899999999999977-35 31.599999999999966-10.5 8.300000000000011-21.600000000000023 15.700000000000045-33.900000000000006 21.30000000000001-16 7.400000000000034-32.599999999999994 11.600000000000023-50.30000000000001 10.100000000000023-22-1.900000000000034-42.5-8-60.599999999999994-20.80000000000001-12.400000000000006-8.800000000000011-21.599999999999994-20.19999999999999-26.5-34.69999999999999-0.4000000000000057-1.1000000000000227-0.9000000000000057-2.3000000000000114-0.9000000000000057-4z m523.1999999999999-43.20000000000002c2.800000000000068-9.099999999999994 5.2000000000000455-18.099999999999994 8.900000000000091-26.599999999999994 0.8999999999999773-2.0999999999999943 2.099999999999909-2.6999999999999886 4.2999999999999545-2.6999999999999886 12.799999999999955 0 24.600000000000023 3.5 35.799999999999955 9.299999999999983 11.5 6 21.700000000000045 13.800000000000011 31.40000000000009 22.30000000000001 10.199999999999932 8.900000000000006 19.799999999999955 18.400000000000006 29.299999999999955 28 14.899999999999977 14.900000000000006 29.700000000000045 30 46 43.49999999999997 14.299999999999955 11.700000000000045 29.5 21.900000000000034 46.799999999999955 28.600000000000023 13.5 5.300000000000011 27.600000000000023 8.5 42.30000000000007 7.899999999999977 3.199999999999932-0.0999999999999659 6.5-0.5 9.699999999999932-0.6999999999999886 0.7000000000000455 0 1.3000000000000682-0.30000000000001137 1.900000000000091 0.10000000000002274 0 0.19999999999998863 0 0.5 0 0.5999999999999659-7.2000000000000455 10-15.400000000000091 19.100000000000023-25.700000000000045 25.900000000000034-8.600000000000023 5.699999999999989-18 8.800000000000011-28.399999999999977 8.300000000000011-7.399999999999977-0.4000000000000341-14.300000000000068-2.400000000000034-21-5.5-11.200000000000045-5.2000000000000455-21-12.5-30.200000000000045-20.600000000000023-14.299999999999955-12.399999999999977-27.199999999999932-26.19999999999999-40.19999999999993-40-13.700000000000045-14.5-27.40000000000009-29.19999999999999-42.40000000000009-42.5-9.799999999999955-8.800000000000011-20.09999999999991-16.80000000000001-31.5-23.400000000000006-9.599999999999909-5.5-19.699999999999932-9.599999999999994-30.59999999999991-11.400000000000006-1.1000000000000227-0.19999999999998863-2.1000000000000227-0.29999999999998295-3.2000000000000455-0.39999999999997726-1-0.30000000000001137-1.8999999999999773-0.4000000000000057-3.2000000000000455-0.700000000000017z m-443.4 109.50000000000003c2.0000000000000284 0.0999999999999659 3.6000000000000227 0.0999999999999659 5.100000000000023 0.2999999999999545 18 2.1000000000000227 35.099999999999994-1.5 51.599999999999994-8.299999999999955 15.700000000000017-6.5 29.700000000000017-15.800000000000011 42.900000000000006-26.5 15.600000000000023-12.600000000000023 29.600000000000023-26.700000000000017 43.69999999999999-40.900000000000034 12.699999999999989-12.699999999999989 25.19999999999999-25.5 39.19999999999999-36.89999999999998 9.800000000000011-8 20.200000000000045-15.200000000000017 31.900000000000034-20.30000000000001 9.399999999999977-4 19.19999999999999-6.199999999999989 29.5-6.300000000000011 2.099999999999966 0 3.1999999999999886 0.700000000000017 4 2.6000000000000227 3.599999999999966 8.199999999999989 6 16.69999999999999 8.5 25.099999999999994 0.5 1.6999999999999886 0.30000000000001137 1.9000000000000057-2.3000000000000114 2.1999999999999886-7.399999999999977 0.8000000000000114-14.5 2.8000000000000114-21.399999999999977 5.599999999999994-12.400000000000034 5.100000000000023-23.400000000000034 12.5-33.80000000000001 20.900000000000006-14.900000000000034 11.900000000000006-28.19999999999999 25.400000000000006-41.30000000000001 39.20000000000002-13.199999999999989 13.800000000000011-26.100000000000023 27.899999999999977-39.80000000000001 41.19999999999999-9.899999999999977 9.5-20.19999999999999 18.600000000000023-31.899999999999977 26-7.100000000000023 4.399999999999977-14.700000000000017 8.100000000000023-23.100000000000023 9.899999999999977-11.5 2.6000000000000227-22.399999999999977 0.8000000000000114-32.69999999999999-4.7999999999999545-8.900000000000006-4.900000000000034-16.099999999999994-11.800000000000011-22.69999999999999-19.5-2.5-2.900000000000034-4.900000000000006-5.900000000000034-7.400000000000006-9.5z m269.1-85.40000000000003c-3.8000000000000114 0.6000000000000227-7.199999999999989 0.8000000000000114-10.5 1.6000000000000227-11.199999999999989 2.6999999999999886-20.5 8.699999999999989-28.69999999999999 16.599999999999994-7.699999999999989 7.299999999999983-14 15.699999999999989-20 24.49999999999997-7.300000000000011 10.900000000000034-13.900000000000034 22.400000000000034-20.80000000000001 33.60000000000002-5.399999999999977 8.800000000000011-10.899999999999977 17.600000000000023-17.30000000000001 25.69999999999999-4 5-8.300000000000011 9.600000000000023-13.199999999999989 13.600000000000023-12.100000000000023 10-25.69999999999999 12.5-40.69999999999999 7.899999999999977-7.100000000000023-2.099999999999966-17-7.199999999999989-22.200000000000017-11.199999999999989-0.19999999999998863-0.6999999999999886 0.4000000000000057-1 0.8000000000000114-1.3000000000000114 14.499999999999972-10.399999999999977 27.299999999999983-22.899999999999977 39.70000000000002-35.80000000000001 15.5-16 30.299999999999955-32.599999999999966 46.39999999999998-47.99999999999997 10.699999999999989-10.400000000000006 21.80000000000001-20.200000000000017 34.30000000000001-28.400000000000006 10.099999999999966-6.599999999999994 20.69999999999999-11.800000000000011 32.599999999999966-14.199999999999989 2.7000000000000455-0.5 5.400000000000034-1 8.200000000000045-1.1000000000000227 1.1999999999999886-0.09999999999999432 1.8999999999999773 0.20000000000001705 2.3999999999999773 1.4000000000000057 2 5.300000000000011 4.800000000000011 10.300000000000011 9 15.099999999999994z m335.70000000000005 111.80000000000001c-0.3000000000000682 0.39999999999997726-0.40000000000009095 0.6999999999999886-0.6000000000000227 0.8999999999999773-8.5 5.600000000000023-17.5 10.300000000000011-27.600000000000023 12.200000000000045-11.100000000000023 2.099999999999966-21.399999999999977 0-30.700000000000045-6.300000000000011-6.199999999999932-4.100000000000023-11.399999999999977-9.400000000000034-16.09999999999991-15.100000000000023-7-8.5-12.900000000000091-17.80000000000001-18.600000000000023-27.099999999999966-7.100000000000023-11.700000000000045-14-23.600000000000023-21.700000000000045-35-6.399999999999977-9.300000000000011-13.299999999999955-18.200000000000017-21.799999999999955-25.700000000000017-8.5-7.5-18-12.800000000000011-29.300000000000068-14.800000000000011-2.199999999999932-0.4000000000000057-4.5-0.29999999999998295-7.099999999999909-1.1999999999999886 2.599999999999909-2.9000000000000057 4.699999999999932-5.900000000000006 6.2999999999999545-9.200000000000017 0.7999999999999545-1.5999999999999943 1.7000000000000455-3.1999999999999886 2.2000000000000455-4.899999999999977 0.6999999999999318-1.9000000000000057 1.7999999999999545-2.3000000000000114 3.599999999999909-2.1000000000000227 5.7000000000000455 0.4000000000000057 11.200000000000045 1.700000000000017 16.600000000000023 3.5 12.200000000000045 4.200000000000017 22.800000000000068 10.900000000000006 33 18.600000000000023 12.700000000000045 9.599999999999994 24.200000000000045 20.599999999999994 35.30000000000007 32.099999999999994 12.699999999999932 13.099999999999994 25.09999999999991 26.49999999999997 37.799999999999955 39.599999999999994 11.799999999999955 12.199999999999989 24.100000000000023 24 37.89999999999998 33.89999999999998 0.3000000000000682 0.20000000000004547 0.6000000000000227 0.4000000000000341 0.8000000000000682 0.6000000000000227z m-299.90000000000003-3.6000000000000227c-2.6999999999999886 2-5.800000000000011 2.3000000000000114-8.699999999999989 2.6000000000000227-4.300000000000011 0.6000000000000227-8.600000000000023 0.8999999999999773-12.900000000000034 1.3000000000000114-1.6999999999999886 0.19999999999998863-3.3999999999999773 0.5-4.899999999999977 1.3000000000000114-0.6000000000000227 0.2999999999999545-1 0.6999999999999886-0.9000000000000341 1.3999999999999773 0.10000000000002274 0.6000000000000227 0.5 0.8999999999999773 1 1.1999999999999886 1.2000000000000455 0.5 2.400000000000034 0.5 3.7000000000000455 0.5 4.399999999999977-0.19999999999998863 8.699999999999989-0.39999999999997726 13-0.5999999999999659 2.599999999999966-0.10000000000002274 5.2999999999999545-0.10000000000002274 7.899999999999977 0.6999999999999886 1.3000000000000114 0.30000000000001137 2.6000000000000227 0.8000000000000114 3.5 1.8000000000000114 1.3999999999999773 1.3999999999999773 1.3000000000000114 2-0.5 2.6999999999999886-3.6000000000000227 1.5-7.399999999999977 2.5-11.300000000000011 3-8.800000000000011 1.3000000000000114-17.599999999999966 0.8000000000000114-26.399999999999977-0.30000000000001137-10.199999999999989-1.1999999999999886-20.19999999999999-3.3999999999999773-30.400000000000034-4.399999999999977-5.599999999999966-0.5-11.199999999999989-0.6000000000000227-16.599999999999966 1-9.600000000000023 2.7999999999999545-15.900000000000034 13.5-13.699999999999989 23.099999999999966 0.8999999999999773 3.900000000000034 3.1999999999999886 6.900000000000034 6.199999999999989 9.400000000000034 4 3.5 8.800000000000011 5.599999999999966 13.800000000000011 7.5 9 3.1999999999999886 18.5 4.899999999999977 28 6.199999999999989 4.699999999999989 0.5999999999999659 9.399999999999977 1.1999999999999886 14.099999999999966 1.3999999999999773 0.6000000000000227 0 1.3000000000000114 0 2.1000000000000227 0.6999999999999886-2.3000000000000114 0.7000000000000455-4.400000000000034 1.2000000000000455-6.5 1.7000000000000455-11.900000000000034 3.099999999999966-23.19999999999999 7.5-33.60000000000002 14.199999999999989-6.5 4.300000000000011-12.300000000000011 9.300000000000011-17.099999999999966 15.399999999999977-0.8000000000000114 1.1000000000000227-1.6000000000000227 1.8000000000000114-3.1000000000000227 1.1000000000000227-12.100000000000023-5.900000000000034-23.19999999999999-13-31.899999999999977-23.400000000000034-5.800000000000011-7.099999999999966-9.800000000000011-15.099999999999966-10.900000000000034-24.19999999999999-1.599999999999966-13.300000000000011 1.400000000000034-25.099999999999966 11.300000000000011-34.69999999999999 7.199999999999989-7.100000000000023 15.800000000000011-11.899999999999977 25.100000000000023-15.5 11.799999999999955-4.699999999999989 24-7.300000000000011 36.599999999999966-8.399999999999977 13.100000000000023-1.2000000000000455 26.100000000000023-0.8000000000000114 39 2.099999999999966 7.800000000000011 1.8000000000000114 15.300000000000011 4.5 22 9.100000000000023 0.6000000000000227 0.39999999999997726 1.1000000000000227 0.8000000000000114 1.6000000000000227 1.099999999999966 0.0999999999999659 0.20000000000004547 0.19999999999998863 0.5 0.5 1z m-44.5-98.89999999999998c-9.100000000000023 10.400000000000006-13.300000000000011 23.099999999999994-17.80000000000001 35.60000000000002-2.6000000000000227 7.199999999999989-5.199999999999989 14.5-8.699999999999989 21.299999999999955-2.1000000000000227 4-4.5 7.800000000000011-7.699999999999989 11.100000000000023-5.800000000000011 5.899999999999977-12.900000000000034 8.199999999999989-21 7.399999999999977-3.6000000000000227-0.2999999999999545-7.300000000000011-0.8999999999999773-10.600000000000023-2.2999999999999545-0.19999999999998863-0.7000000000000455 0-1 0.30000000000001137-1.400000000000034 7.800000000000011-12.800000000000011 15.199999999999989-25.80000000000001 23.80000000000001-38 5.599999999999966-8.099999999999994 11.799999999999955-15.699999999999989 19.299999999999955-22.099999999999994 6.100000000000023-5.299999999999983 12.900000000000034-9.5 20.80000000000001-11.699999999999989 0.4000000000000341-0.09999999999999432 0.8000000000000114-0.30000000000001137 1.6000000000000227 0.09999999999999432z m179.7-0.09999999999999432c5.600000000000023 1 10.5 3.299999999999983 15.100000000000023 6.400000000000006 8.799999999999955 5.699999999999989 15.799999999999955 13.299999999999983 22.100000000000023 21.5 7.099999999999909 9.399999999999977 13.199999999999932 19.30000000000001 19.299999999999955 29.399999999999977 3.1000000000000227 5.100000000000023 6.2000000000000455 10.300000000000011 9.299999999999955 15.400000000000034-0.5 1-1.3999999999999773 1-2.199999999999932 1.1999999999999886-4.7000000000000455 1.3000000000000114-9.399999999999977 2.1999999999999886-14.300000000000068 1.6999999999999886-7.399999999999977-0.6999999999999886-13.099999999999909-4.399999999999977-17.59999999999991-10.100000000000023-3.400000000000091-4.2999999999999545-5.900000000000091-9.199999999999989-8.100000000000023-14.199999999999989-3.6000000000000227-8.199999999999989-6.300000000000068-16.599999999999966-9.399999999999977-24.899999999999977-2.5-6.600000000000023-5.300000000000068-13.100000000000023-9-19.100000000000023-1.6000000000000227-2.5-3.5-4.899999999999977-5.2000000000000455-7.299999999999983z"/>
</svg>
