<svg xmlns="http://www.w3.org/2000/svg" viewBox="0 0 1000 1000" width="1000" height="1000">
<path d="M953.3 895.6l-298-656.8c-3.3999999999999773-7.9000000000000625-6.199999999999932-21.400000000000063-6.199999999999932-30.10000000000008v-60.5c0-8.599999999999994 6.899999999999977-17.399999999999977 14.399999999999977-21.599999999999994 20.799999999999955-11.5 34.89999999999998-33.5 34.89999999999998-58.89999999999999 0-37.300000000000004-30.399999999999977-67.7-67.60000000000002-67.7h-249.99999999999994c-37.400000000000034 0-67.80000000000001 30.4-67.80000000000001 67.7 0 23.099999999999994 11.699999999999989 43.39999999999999 29.30000000000001 55.599999999999994 7 5.000000000000014 13.800000000000011 14.399999999999991 13.800000000000011 23.000000000000014v69.89999999999998c0 8.600000000000023-3 22-6.600000000000023 29.80000000000001l-302.1 650c-12.09999999999998 26.100000000000023-11.699999999999974 52.5 1.1000000000000227 72.60000000000002 12.799999999999997 20 36.599999999999994 31.5 65.3 31.5h770.5c28.600000000000023 0 52.60000000000002-11.5 65.80000000000007-31.5 13.199999999999932-20.100000000000023 14.5-46.700000000000045 3.199999999999932-73z m-687.4-282.9l-153.99999999999997 318.9c-1.5 3.1000000000000227-4.700000000000003 5-8 5-1.3000000000000114 0-2.6000000000000085-0.3000000000000682-3.8000000000000114-0.8999999999999773-4.5-2.2000000000000455-6.299999999999997-7.5-4.199999999999989-11.900000000000091l153.9-318.9c2.0999999999999943-4.2999999999999545 7.5-6.2999999999999545 11.800000000000011-4.100000000000023 4.5 2.1000000000000227 6.2999999999999545 7.5 4.2999999999999545 11.900000000000091z m461.5-48.80000000000007h-458.4c-8.600000000000023 0-12.699999999999989-6.399999999999977-9-14.199999999999932l136.39999999999998-293.40000000000003c3.7000000000000455-7.800000000000011 5.7000000000000455-21.100000000000023 5.7000000000000455-29.80000000000001v-120.1c0-9.800000000000011-4.800000000000011-17.80000000000001-10.600000000000023-17.80000000000001h-10.699999999999989c-11.5 0-20.80000000000001-9.299999999999997-20.80000000000001-20.89999999999999 0-11.400000000000006 9.300000000000011-20.800000000000004 20.80000000000001-20.800000000000004h249.99999999999994c11.600000000000023 0 20.800000000000068 9.399999999999999 20.800000000000068 20.800000000000004 0 11.5-9.200000000000045 20.89999999999999-20.800000000000068 20.89999999999999h-13.899999999999977c-7.699999999999932 0-13.899999999999977 7.900000000000006-13.899999999999977 17.80000000000001v111.9c0 8.599999999999994 2.2000000000000455 22 5.600000000000023 30.099999999999994l128.5 301.20000000000005c3.199999999999932 7.899999999999977-1 14.299999999999955-9.700000000000045 14.299999999999955z"/>
</svg>
