<svg xmlns="http://www.w3.org/2000/svg" viewBox="0 0 1000 1000" width="1000" height="1000">
<path d="M995.5 938.4l-225.39999999999998-203.5c9.899999999999977-13.299999999999955 16.799999999999955-27.699999999999932 19.799999999999955-41.69999999999993l0.5-2.6000000000000227c7-86.89999999999998 1-92.39999999999998-6-98.70000000000005l-475.2-429.09999999999997c-13.899999999999977-12.600000000000023-35.39999999999998-11.400000000000006-48 2.3999999999999773l-17.69999999999999 19.600000000000023-44.19999999999999-39.900000000000006 8.699999999999989-9.5c29-32.10000000000001 35-69.10000000000001 14.099999999999994-87.80000000000001-20.799999999999983-18.899999999999995-57-9.199999999999996-86 23l-109.6 121.30000000000001c-29 32.19999999999999-34.9 69.1-14.2 87.9 20.900000000000002 18.80000000000001 57.10000000000001 9.099999999999966 86.10000000000001-23l8.599999999999994-9.5 44.099999999999994 39.80000000000001-17.69999999999999 19.599999999999966c-12.5 13.800000000000011-11.400000000000006 35.30000000000001 2.5 47.900000000000034l475.20000000000005 429.19999999999993c20.799999999999955 18.700000000000045 100.60000000000002-4.5 101.39999999999998-4.7999999999999545 13.600000000000023-4.5 27.200000000000045-12.899999999999977 39.39999999999998-23.899999999999977l225.39999999999998 203.5c5.600000000000023 5 14.200000000000045 4.600000000000023 19.200000000000045-1.1000000000000227 5-5.399999999999977 4.600000000000023-14-1-19.100000000000023z m-242.29999999999995-251.19999999999993c-5.300000000000068 21.299999999999955-32.90000000000009 46.299999999999955-53.40000000000009 53.09999999999991-21.59999999999991 7.2000000000000455-53.799999999999955 10.700000000000045-65 10.100000000000023l-466.59999999999997-421.4 17.700000000000017-19.5c12.5-13.899999999999977 11.400000000000006-35.5-2.5-48l-79.4-71.80000000000001-35.900000000000006 39.80000000000001c-11.199999999999996 12.400000000000006-21.699999999999996 17.30000000000001-27.099999999999994 18.599999999999994 0.7999999999999972-5.5 4.600000000000001-16.5 15.700000000000003-28.799999999999983l109.7-121.4c11.099999999999994-12.300000000000011 21.599999999999994-17.30000000000001 27.099999999999994-18.60000000000001-0.6999999999999886 5.5-4.599999999999994 16.5-15.800000000000011 28.799999999999997l-35.79999999999998 39.80000000000001 79.4 71.69999999999999c13.899999999999977 12.5 35.39999999999998 11.400000000000006 47.89999999999998-2.5l17.69999999999999-19.5 67.60000000000002 61.00000000000003c-0.6000000000000227 0.39999999999997726-1.3000000000000114 0.7999999999999545-1.8999999999999773 1.3999999999999773l-73.80000000000001 81.80000000000001c-5 5.5-4.600000000000023 14.199999999999989 0.8999999999999773 19.19999999999999 5.600000000000023 5 14.199999999999989 4.5 19.19999999999999-1l73.80000000000001-81.80000000000001c0.6000000000000227-0.5999999999999659 0.8000000000000114-1.3999999999999773 1.3000000000000114-2l19.19999999999999 17.30000000000001c-0.6999999999999886 0.5-1.3999999999999773 0.6999999999999886-1.8999999999999773 1.3999999999999773l-55.69999999999999 61.60000000000002c-5.100000000000023 5.600000000000023-4.600000000000023 14.199999999999989 0.8999999999999773 19.19999999999999 5.600000000000023 5.100000000000023 14.199999999999989 4.699999999999989 19.30000000000001-1l55.69999999999999-61.599999999999966c0.5-0.6000000000000227 0.8000000000000114-1.2000000000000455 1.1000000000000227-1.900000000000034l19.19999999999999 17.19999999999999c-0.5 0.5-1.3000000000000114 0.7000000000000455-1.8000000000000114 1.400000000000034l-73.89999999999998 81.89999999999998c-5 5.5-4.600000000000023 14.100000000000023 1 19.100000000000023 5.5 5 14.199999999999989 4.599999999999966 19.099999999999966-0.9000000000000341l74-81.79999999999995c0.5-0.7000000000000455 0.6999999999999886-1.5 1.1000000000000227-2.1000000000000227l19.19999999999999 17.30000000000001c-0.6000000000000227 0.5999999999999659-1.1999999999999886 0.8999999999999773-1.8999999999999773 1.3999999999999773l-23.100000000000023 25.600000000000023c-1.1999999999999886 1-2.5 1.8000000000000114-3.5 3l-59.69999999999999 65.5c-7.300000000000011 8-8.5 18.899999999999977-2.6000000000000227 24.30000000000001l226.90000000000003 209.89999999999998c0.2999999999999545 0.20000000000004547 0.8999999999999773 0.2999999999999545 1.1999999999999318 0.5l41.80000000000007 36.200000000000045s34.60000000000002-2.5 59.19999999999993-26.300000000000068c29.40000000000009-28.5 25-66.39999999999998 25-66.39999999999998l-40.89999999999998-38.39999999999998c-0.10000000000002274-0.10000000000002274-0.10000000000002274-0.20000000000004547-0.10000000000002274-0.20000000000004547l-9.399999999999977-8.600000000000023-207.79999999999995-192.19999999999993 13.099999999999966-14.600000000000023c0.6000000000000227-0.6000000000000227 0.8000000000000114-1.3000000000000114 1.1999999999999886-2l262.5 237c8.300000000000068 25.200000000000045 8.700000000000045 37.299999999999955 0.8000000000000682 69.10000000000002z m-95 1.7999999999999545c3.599999999999909 3.5 3.8999999999999773 9.299999999999955 0.39999999999997726 12.899999999999977-1.7000000000000455 1.8999999999999773-4.2000000000000455 3-6.600000000000023 3-2.2999999999999545 0-4.5-0.8999999999999773-6.2999999999999545-2.5l-210.40000000000003-195.7c-3.6999999999999886-3.3999999999999773-3.900000000000034-9.199999999999989-0.5-12.899999999999977 3.5-3.6999999999999886 9.300000000000011-3.900000000000034 13-0.5l210.40000000000003 195.7z"/>
</svg>
