<svg xmlns="http://www.w3.org/2000/svg" viewBox="0 0 1000 1000" width="1000" height="1000">
<path d="M934.2 32h-868.3000000000001c-36.39999999999998 0-65.89999999999998 29.5-65.89999999999998 65.9v804.7c0 36.39999999999998 29.5 65.89999999999998 65.9 65.89999999999998h868.2c36.39999999999998 0 65.89999999999998-29.5 65.89999999999998-65.89999999999998v-804.7c0-36.39999999999998-29.5-65.89999999999998-65.79999999999995-65.89999999999998z m-107 545.3c0 12.300000000000068-9.700000000000045 22-21.90000000000009 22h-184.19999999999993c-12.100000000000023 0-22 9.800000000000068-22 22v184.20000000000005c0 12.100000000000023-9.800000000000068 22-22 22h-154.10000000000002c-12.199999999999989 0-22-9.899999999999977-22-22v-184.20000000000005c0-12.199999999999932-9.800000000000011-22-22-22h-184.2c-12.100000000000023 0-21.900000000000006-9.699999999999932-21.900000000000006-22v-154.09999999999997c0-12.099999999999966 9.799999999999983-22 21.900000000000006-22h184.2c12.199999999999989 0 22-9.800000000000011 22-22v-184.1c0-12.199999999999989 9.800000000000011-22 22-22h154.10000000000002c12.199999999999932 0 22 9.800000000000011 22 22v184.1c0 12.199999999999989 9.899999999999977 22 22 22h184.19999999999993c12.200000000000045 0 21.90000000000009 9.900000000000034 21.90000000000009 22v154.09999999999997z"/>
</svg>
