<svg xmlns="http://www.w3.org/2000/svg" viewBox="0 0 1000 1000" width="1000" height="1000">
<path d="M719 639.2c18.700000000000045 53.09999999999991 1.1000000000000227 96.5-30.200000000000045 136.5999999999999-5.599999999999909 7.2000000000000455-17.09999999999991 14.300000000000068-8.199999999999932 25.600000000000023 31.399999999999977 40 35.19999999999993 89.20000000000005 47.69999999999993 135.70000000000005 4.100000000000023 15.299999999999955 15.100000000000023 28.100000000000023-0.6999999999999318 41.89999999999998-9.700000000000045 8.5-20.5 10.399999999999977-31.200000000000045 2.2000000000000455-16-12.400000000000091-9.399999999999977-25.800000000000068-4.100000000000023-41.80000000000007 27.300000000000068-83.10000000000002-49.39999999999998-170.69999999999993-134.19999999999993-153.79999999999995-22 4.399999999999977-45.200000000000045 7-59.80000000000001 28.899999999999977-7.100000000000023 10.5-19.19999999999999 11.799999999999955-30.600000000000023 4.399999999999977-9.099999999999966-5.899999999999977-13.800000000000011-14.299999999999955-12.699999999999989-25.399999999999977 1.1000000000000227-11.100000000000023 7.600000000000023-21.799999999999955 17.80000000000001-21.100000000000023 54.80000000000001 3.6000000000000227 109.09999999999997-29.699999999999932 163.90000000000003-2.8999999999999773 17.399999999999977 8.5 25.699999999999932-1.2000000000000455 35.19999999999993-13.299999999999955 51.5-65.60000000000002 37.60000000000002-121.30000000000007-46.5-164.5 52.60000000000002-41.40000000000009 84.89999999999998-90.70000000000005 101.39999999999998-150.30000000000007 2.2000000000000455-8.099999999999966 4.2000000000000455-15.799999999999955 12.900000000000091-20.899999999999977 44.299999999999955-25.80000000000001 47-67 31.899999999999977-108.19999999999999-9-24.5-6.600000000000023-44.80000000000001-3.5-69 8.699999999999932-68.4-1.7000000000000455-144.70000000000002-61-176.5-53.60000000000002-28.60000000000001-110.89999999999998-66.20000000000002-178.30000000000007-66.80000000000001-60.89999999999998-0.6-119.39999999999998 11.5-175.89999999999998 32.9-88.69999999999999 33.50000000000001-133.59999999999997 100.69999999999999-128.49999999999997 195.7 1.799999999999983 33.79999999999998 5.900000000000006 65.20000000000002-5.700000000000017 99.6-11 32.60000000000002-3.299999999999983 68.30000000000001 30.600000000000023 91 5.399999999999977 3.6000000000000227 10.899999999999977 10 12.5 16.100000000000023 16.899999999999977 64.30000000000001 51.89999999999998 116.90000000000003 107.5 160.40000000000003-16 6.599999999999909-28 10.099999999999909-38.60000000000002 16.09999999999991-40.30000000000001 22.600000000000023-49.39999999999998 60.60000000000002-48.19999999999999 102.70000000000005 0.8999999999999773 32-2.3999999999999773 63.5 42.80000000000001 75.10000000000002 34.30000000000001 8.899999999999977 44.39999999999998 47.799999999999955 28.899999999999977 77.29999999999995-17.19999999999999 32.700000000000045-56.39999999999998 44.39999999999998-88.09999999999997 26.200000000000045-31.200000000000017-17.800000000000068-39.400000000000034-53.60000000000002-20.200000000000017-84.89999999999998 7-11.5 23.900000000000006-17.90000000000009 18.599999999999994-35.90000000000009-12.199999999999989-41.299999999999955-7.800000000000011-83.09999999999991 1.1000000000000227-131-117.10000000000002 74.70000000000005-187.00000000000003 170.9000000000001-199.60000000000002 305.20000000000005-4.899999999999999 51.799999999999955-4.600000000000001 53 47.7 53 187 0.10000000000002274 374 0.39999999999997726 560.9 0.5 74.39999999999998 0 148.79999999999995-0.39999999999997726 223.19999999999993-0.7000000000000455 19-0.09999999999990905 35.700000000000045 1.2000000000000455 37.60000000000002-27.5 8.200000000000045-120.89999999999998-96.10000000000002-285.0999999999999-216.39999999999998-332.5999999999999z m-55.10000000000002-288.50000000000006c-1.1999999999999318 36.60000000000002-30.100000000000023 63.80000000000001-66.5 62.80000000000001-35.60000000000002-1-64.69999999999993-30.80000000000001-64.5-66.10000000000002 0.20000000000004547-36.5 33-67.29999999999995 69.70000000000005-65.29999999999995 35.10000000000002 1.8999999999999773 62.5 32.599999999999966 61.299999999999955 68.59999999999997z m-56.19999999999993-137c4.099999999999909 16.600000000000023 7.099999999999909 28.700000000000017 10.699999999999932 43.30000000000001-39.89999999999998 1.3000000000000114-71.39999999999998 13.699999999999989-95.29999999999995 47.5-17.100000000000023 24.100000000000023-44.900000000000034 13.100000000000023-70.80000000000001-26.399999999999977 50.69999999999999-20.80000000000001 106.40000000000003-27.80000000000001 155.40000000000003-64.40000000000003z m-201.50000000000006 70.5c28.600000000000023 0.8000000000000114 53.900000000000034 32.30000000000001 53.30000000000001 66.19999999999999-0.6999999999999886 36.80000000000001-28.5 63.400000000000034-65.60000000000002 63-37-0.39999999999997726-67.29999999999995-31.899999999999977-66.09999999999997-68.79999999999995 1-35.400000000000034 35-61.60000000000002 78.39999999999998-60.400000000000034z m23.19999999999999 350.7c8.700000000000045-40.299999999999955-23.19999999999999-49.69999999999993-47.299999999999955-66-40.5-27.299999999999955-65.70000000000005-66.19999999999999-84-111-10.600000000000023-25.899999999999977-6.400000000000034-57.099999999999966-42.900000000000034-74-21.399999999999977-9.899999999999977-17.899999999999977-48.099999999999966-3.299999999999983-70.59999999999997 12.599999999999994-19.400000000000034 39.400000000000006-11.5 59.29999999999998-14.800000000000011 13.199999999999989-2.1999999999999886 5.300000000000011 15.399999999999977 2.900000000000034 23.69999999999999-9.600000000000023 33-3.7000000000000455 62.900000000000034 19.69999999999999 87.5 22.099999999999966 23.30000000000001 50.69999999999999 33.80000000000001 82.09999999999997 24.19999999999999 33.80000000000001-10.399999999999977 54.200000000000045-35.099999999999966 62.80000000000001-69.79999999999995 2.900000000000034-11.900000000000034-4.699999999999989-31.80000000000001 19.5-30.400000000000034 23.000000000000057 1.3000000000000114 15.300000000000011 20 18.000000000000057 32.400000000000034 10.399999999999977 48.39999999999998 56.39999999999998 80 101.69999999999993 69.19999999999999 44.700000000000045-10.699999999999989 75-60.80000000000001 63.700000000000045-106.40000000000003-3.300000000000068-13.399999999999977-9-26.299999999999955-15.200000000000045-44.099999999999966 29.700000000000045 3.3000000000000114 41.60000000000002 29.399999999999977 71.20000000000005 27.80000000000001 17.100000000000023-1 12.899999999999977 33.69999999999999 10.600000000000023 53-1.7000000000000455 13.5-5.300000000000068 31.69999999999999-25.300000000000068 26.299999999999955-16.799999999999955-4.5-15.699999999999932 5-17.399999999999977 14.900000000000034-13 74-47.200000000000045 134.2-113.39999999999998 173.3-9.399999999999977 5.5-14 11.5-16.100000000000023 22.699999999999932-9.600000000000023 51.80000000000007-91.5 81-134.39999999999998 48.30000000000007-5.5-4.2000000000000455-13.100000000000023-11.899999999999977-12.200000000000045-16.200000000000045z m-152.89999999999998 239c24.80000000000001 13.600000000000023 48.10000000000002 7.600000000000023 59.30000000000001-19.799999999999955 10.399999999999977-25.600000000000023-1.1000000000000227-42.10000000000002-29.19999999999999-47.200000000000045 14 12.100000000000023 28.69999999999999 24.200000000000045 16.799999999999955 44.30000000000007-6.899999999999977 11.599999999999909-18.399999999999977 18.399999999999977-32.5 13.799999999999955-25.399999999999977-8.299999999999955-21.399999999999977-28.799999999999955-21.099999999999966-49.39999999999998-18.900000000000006 21.600000000000023-20.100000000000023 43.60000000000002 6.699999999999989 58.299999999999955z"/>
</svg>
