<svg xmlns="http://www.w3.org/2000/svg" viewBox="0 0 1000 1000" width="1000" height="1000">
<path d="M767.9 33.9c-3.6000000000000227-18.799999999999997-21.899999999999977-33.9-40.89999999999998-33.9h-463.8c-19 0-37.39999999999998 15.1-40.89999999999998 33.9l-10.900000000000006 57.00000000000001h567.4c-0.09999999999990905-0.10000000000000853-10.899999999999977-57.00000000000001-10.899999999999977-57.00000000000001z m-276.4 39.699999999999996h-256.7l6.699999999999989-35.199999999999996c2.1999999999999886-11.599999999999998 13.5-21.099999999999998 25.399999999999977-21.099999999999998h228.10000000000002l-3.5 56.3z m475.5 346h-33.700000000000045v-212.70000000000002c0-38.099999999999994-30.899999999999977-69-69-69h-728.4c-38.09999999999998 0-68.99999999999997 30.799999999999983-68.99999999999997 69v212.70000000000002h-33.7c-9.500000000000004 0-17.200000000000003 7.599999999999966-17.200000000000003 17.19999999999999v132.2c0 9.5 7.699999999999999 17.200000000000045 17.200000000000003 17.200000000000045h33.7v202.69999999999993c0 9.5 7.699999999999989 17.200000000000045 17.19999999999999 17.200000000000045h38.900000000000006c9.5 0 17.19999999999999 7.600000000000023 17.19999999999999 17.100000000000023v159.5999999999999c0 9.5 7.700000000000017 17.200000000000045 17.200000000000017 17.200000000000045h90.6c9.5 0 17.19999999999999-7.7000000000000455 17.19999999999999-17.200000000000045v-159.5999999999999c0-9.5 7.699999999999989-17.100000000000023 17.19999999999999-17.100000000000023h439.70000000000005c9.5 0 17.199999999999932 7.600000000000023 17.199999999999932 17.100000000000023v159.5999999999999c0 9.5 7.7000000000000455 17.200000000000045 17.200000000000045 17.200000000000045h90.60000000000002c9.5 0 17.199999999999932-7.7000000000000455 17.199999999999932-17.200000000000045v-159.5999999999999c0-9.5 7.7000000000000455-17.100000000000023 17.200000000000045-17.100000000000023h34.5c9.5 0 17.200000000000045-7.7000000000000455 17.200000000000045-17.200000000000045v-202.69999999999993h33.799999999999955c9.600000000000023 0 17.200000000000045-7.7000000000000455 17.200000000000045-17.200000000000045v-132.3c0.09999999999990905-9.5-7.600000000000023-17.099999999999966-17.200000000000045-17.099999999999966z m-543.9-194.50000000000003c0-2.9000000000000057 2.3999999999999773-5.099999999999994 5.199999999999989-5.099999999999994h43.30000000000001c2.8999999999999773 0 5.199999999999989-2.4000000000000057 5.199999999999989-5.199999999999989v-43.400000000000006c0-2.9000000000000057 2.3999999999999773-5.099999999999994 5.199999999999989-5.099999999999994h36.200000000000045c2.8999999999999773 0 5.199999999999932 2.299999999999983 5.199999999999932 5.099999999999994v43.400000000000006c0 2.8999999999999773 2.3999999999999773 5.199999999999989 5.2000000000000455 5.199999999999989h43.39999999999998c2.8999999999999773 0 5.100000000000023 2.3000000000000114 5.100000000000023 5.099999999999994v36.29999999999998c0 2.900000000000034-2.2000000000000455 5.2000000000000455-5.100000000000023 5.2000000000000455h-43.39999999999998c-2.8999999999999773 0-5.2000000000000455 2.2999999999999545-5.2000000000000455 5.099999999999966v43.400000000000034c0 2.8999999999999773-2.3999999999999773 5.199999999999989-5.199999999999932 5.199999999999989h-36.200000000000045c-2.8999999999999773 0-5.199999999999989-2.400000000000034-5.199999999999989-5.199999999999989v-43.30000000000001c0-2.900000000000034-2.400000000000034-5.100000000000023-5.199999999999989-5.100000000000023h-43.30000000000001c-2.900000000000034 0-5.199999999999989-2.3999999999999773-5.199999999999989-5.199999999999989v-36.400000000000006z m-285.1 147.1c0-9.5 7.699999999999989-17.19999999999999 17.19999999999999-17.19999999999999h689.5999999999999c9.5 0 17.200000000000045 7.699999999999989 17.200000000000045 17.19999999999999v215.50000000000006c0 9.599999999999909-7.7000000000000455 17.199999999999932-17.200000000000045 17.199999999999932h-689.5c-9.499999999999943 0-17.19999999999996-7.600000000000023-17.19999999999996-17.199999999999932l-0.09999999999999432-215.50000000000006z m150.89999999999998 386.40000000000003h-132.2c-19 0-34.39999999999999-15.399999999999977-34.39999999999999-34.39999999999998v-43.200000000000045c0-19 15.399999999999991-34.39999999999998 34.39999999999999-34.39999999999998h132.2v112z m350.6 0h-281.6c-9.5 0-17.19999999999999-6.399999999999977-17.19999999999999-14.399999999999977 0-7.900000000000091 7.699999999999989-14.400000000000091 17.19999999999999-14.400000000000091h281.6c9.5 0 17.200000000000045 6.5 17.200000000000045 14.400000000000091 0.09999999999990905 8-7.7000000000000455 14.399999999999977-17.200000000000045 14.399999999999977z m17.299999999999955-73.30000000000007c0 9.5-7.699999999999932 17.200000000000045-17.199999999999932 17.200000000000045h-281.70000000000005c-9.5 0-17.19999999999999-7.7000000000000455-17.19999999999999-17.200000000000045v-21.59999999999991c0-9.5 7.699999999999989-17.200000000000045 17.19999999999999-17.200000000000045h281.6c9.5 0 17.200000000000045 7.7000000000000455 17.200000000000045 17.200000000000045v21.59999999999991z m221.20000000000005 38.80000000000007c0 19-15.5 34.39999999999998-34.5 34.39999999999998h-132.20000000000005v-112h132.20000000000005c19 0 34.5 15.399999999999977 34.5 34.39999999999998v43.200000000000045z"/>
</svg>
