<svg xmlns="http://www.w3.org/2000/svg" viewBox="0 0 1000 1000" width="1000" height="1000">
<path d="M734.3 70.1h-133v-22.699999999999996c0-26.099999999999998-21.199999999999932-47.4-47.5-47.4h-107.99999999999994c-26.19999999999999 0-47.400000000000034 21.2-47.400000000000034 47.4v22.699999999999996h-133c-60.29999999999998 0-109.39999999999998 49-109.39999999999998 109.4v711.2c0 60.299999999999955 49.099999999999994 109.39999999999998 109.39999999999998 109.39999999999998h468.9c60.30000000000007 0 109.40000000000009-49.10000000000002 109.40000000000009-109.39999999999998v-711.3000000000001c0-60.29999999999998-49.10000000000002-109.29999999999998-109.40000000000009-109.29999999999998z m-234.39999999999998-48.599999999999994c13.100000000000023 0 23.700000000000045 10.5 23.700000000000045 23.700000000000003 0 13-10.5 23.700000000000003-23.700000000000045 23.700000000000003-13.099999999999966 0-23.69999999999999-10.600000000000009-23.69999999999999-23.700000000000003 0-13.200000000000003 10.600000000000023-23.700000000000003 23.69999999999999-23.700000000000003z m-128.09999999999997 115.69999999999999h256.09999999999997v99.9h-256.09999999999997v-99.9z m362.49999999999994 800.2h-468.9c-25.899999999999977-1.1368683772161603e-13-46.89999999999998-21.000000000000114-46.89999999999998-46.80000000000007v-711.2c0-25.799999999999983 21-46.89999999999998 46.89999999999998-46.89999999999998h44.700000000000045v111.69999999999999c0 30.100000000000023 24.5 54.60000000000002 54.599999999999966 54.60000000000002h270.3c30.100000000000023 0 54.60000000000002-24.5 54.60000000000002-54.60000000000002v-111.69999999999999h44.69999999999993c25.800000000000068 0 46.90000000000009 21.099999999999994 46.90000000000009 46.900000000000006v711.2c0 25.799999999999955-21 46.799999999999955-46.90000000000009 46.799999999999955z m-342.4-533.5000000000001l-11 13c-3.599999999999966-9.399999999999977-12.699999999999989-16.099999999999966-23.5-16.099999999999966h-72.69999999999999c-14 0-25.30000000000001 11.300000000000011-25.30000000000001 25.30000000000001v80.19999999999999c0 13.900000000000034 11.300000000000011 25.30000000000001 25.30000000000001 25.30000000000001h72.69999999999999c13.900000000000034 0 25.30000000000001-11.399999999999977 25.30000000000001-25.30000000000001v-42.900000000000034l33.10000000000002-39.5c5.5-6.599999999999966 4.699999999999989-16.5-1.900000000000034-22s-16.399999999999977-4.599999999999966-22 2z m-25.899999999999977 102.40000000000003c-0.10000000000002274 4.599999999999966-3.8999999999999773 8.400000000000034-8.5 8.400000000000034h-72.69999999999999c-4.699999999999989 0-8.5-3.800000000000068-8.5-8.400000000000034v-80.19999999999999c0-4.600000000000023 3.8000000000000114-8.400000000000034 8.5-8.400000000000034h72.69999999999999c4.600000000000023 0 8.399999999999977 3.8000000000000114 8.399999999999977 8.400000000000034v8.799999999999955l-21 25.100000000000023c-5.599999999999966 6.600000000000023-15.199999999999989 7.199999999999989-21.5 1.3000000000000114l-13-12.100000000000023c-6.199999999999989-5.899999999999977-16.19999999999999-5.5-22.099999999999966 0.8000000000000114-5.900000000000034 6.300000000000011-5.400000000000034 16.19999999999999 0.8000000000000114 22.100000000000023l36.5 33.89999999999998c2.8999999999999773 2.6999999999999886 6.599999999999966 4.100000000000023 10.599999999999966 4.100000000000023h1c4.300000000000011-0.30000000000001137 8.199999999999989-2.3000000000000114 10.900000000000034-5.5l17.799999999999955-21.200000000000045 0.10000000000002274 22.900000000000034z m25.899999999999977 67.59999999999997l-12.099999999999966 14.399999999999977c-4.199999999999989-8.199999999999932-12.600000000000023-13.699999999999932-22.30000000000001-13.699999999999932h-72.69999999999999c-14 0-25.30000000000001 11.399999999999977-25.30000000000001 25.299999999999955v80.10000000000002c0 13.899999999999977 11.300000000000011 25.299999999999955 25.30000000000001 25.299999999999955h72.69999999999999c13.899999999999977 0 25.30000000000001-11.399999999999977 25.30000000000001-25.299999999999955v-46.5l33.099999999999966-39.60000000000002c5.5-6.600000000000023 4.7000000000000455-16.5-1.8999999999999773-22-6.699999999999989-5.5-16.5-4.600000000000023-22.100000000000023 2z m-25.899999999999977 106.10000000000002c-0.10000000000002274 4.600000000000023-3.8999999999999773 8.399999999999977-8.5 8.399999999999977h-72.69999999999999c-4.699999999999989 0-8.5-3.7999999999999545-8.5-8.399999999999977v-80.20000000000005c0-4.599999999999909 3.8000000000000114-8.5 8.5-8.5h72.69999999999999c4.600000000000023 0 8.399999999999977 3.900000000000091 8.399999999999977 8.5v5l-21 25.200000000000045c-5.599999999999966 6.600000000000023-15.199999999999989 7.2000000000000455-21.5 1.2999999999999545l-13-12c-6.199999999999989-5.899999999999977-16.19999999999999-5.5-22.099999999999966 0.7000000000000455-5.900000000000034 6.399999999999977-5.400000000000034 16.200000000000045 0.8000000000000114 22.200000000000045l36.5 33.89999999999998c2.8999999999999773 2.699999999999932 6.599999999999966 4.199999999999932 10.599999999999966 4.199999999999932h1c4.300000000000011-0.2999999999999545 8.199999999999989-2.2999999999999545 10.900000000000034-5.5l17.799999999999955-21.199999999999932 0.10000000000002274 26.399999999999977z m25.899999999999977 64.70000000000005l-12.5 15c-4.399999999999977-7.600000000000023-12.5-12.900000000000091-21.899999999999977-12.900000000000091h-72.69999999999999c-14 0-25.30000000000001 11.400000000000091-25.30000000000001 25.40000000000009v80.09999999999991c0 14 11.300000000000011 25.40000000000009 25.30000000000001 25.40000000000009h72.69999999999999c13.899999999999977 0 25.30000000000001-11.400000000000091 25.30000000000001-25.40000000000009v-47.89999999999998l33.099999999999966-39.5c5.5-6.699999999999932 4.7000000000000455-16.5-1.8999999999999773-22.100000000000023-6.699999999999989-5.599999999999909-16.5-4.699999999999932-22.100000000000023 1.900000000000091z m-25.899999999999977 107.5c-0.10000000000002274 4.699999999999932-3.8999999999999773 8.5-8.5 8.5h-72.69999999999999c-4.699999999999989 0-8.5-3.800000000000068-8.5-8.5v-80.10000000000002c0-4.7000000000000455 3.8000000000000114-8.5 8.5-8.5h72.69999999999999c4.600000000000023 0 8.399999999999977 3.7999999999999545 8.399999999999977 8.5v3.6000000000000227l-21 25.09999999999991c-5.599999999999966 6.600000000000023-15.199999999999989 7.2000000000000455-21.5 1.3000000000000682l-13-12c-6.199999999999989-6-16.19999999999999-5.5-22.099999999999966 0.7999999999999545-5.900000000000034 6.300000000000068-5.400000000000034 16.200000000000045 0.8000000000000114 22.100000000000023l36.5 33.89999999999998c2.8999999999999773 2.7000000000000455 6.599999999999966 4.2000000000000455 10.599999999999966 4.2000000000000455 0.30000000000001137 0 0.6000000000000227 0 1-0.10000000000002274 4.300000000000011-0.20000000000004547 8.199999999999989-2.2000000000000455 10.900000000000034-5.5l17.799999999999955-21.200000000000045 0.10000000000002274 27.90000000000009z m363.5-396.70000000000005h-252.60000000000002c-8.599999999999966 0-15.599999999999966 7-15.599999999999966 15.699999999999989 0 8.600000000000023 7 15.600000000000023 15.599999999999966 15.600000000000023h252.70000000000005c8.600000000000023 0 15.699999999999932-6.900000000000034 15.699999999999932-15.600000000000023s-7.099999999999909-15.699999999999989-15.799999999999955-15.699999999999989z m0 153.20000000000005h-252.60000000000002c-8.599999999999966 0-15.599999999999966 6.899999999999977-15.599999999999966 15.699999999999932 0 8.600000000000023 7 15.600000000000023 15.599999999999966 15.600000000000023h252.70000000000005c8.600000000000023 0 15.699999999999932-7 15.699999999999932-15.600000000000023-0.09999999999990905-8.799999999999955-7.099999999999909-15.699999999999932-15.799999999999955-15.699999999999932z m0 153h-252.60000000000002c-8.599999999999966 0-15.599999999999966 7-15.599999999999966 15.699999999999932s7 15.700000000000045 15.599999999999966 15.700000000000045h252.70000000000005c8.600000000000023 0 15.699999999999932-7 15.699999999999932-15.700000000000045-0.09999999999990905-8.699999999999932-7.099999999999909-15.699999999999932-15.799999999999955-15.699999999999932z"/>
</svg>
