<svg xmlns="http://www.w3.org/2000/svg" viewBox="0 0 1000 1000" width="1000" height="1000">
<path d="M910.6 429.2c-2.1000000000000227-4.300000000000011-2.5-8.5-2.8999999999999773-13-7.900000000000091-84.59999999999997-49.200000000000045-149-119.40000000000009-195.6-6.2999999999999545-4.199999999999989-10-9.5-13.599999999999909-15.599999999999994-23.40000000000009-39.80000000000001-52.40000000000009-74.69999999999999-89.5-102.6-62-46.60000000000001-117-48.00000000000001-174.60000000000002-3.5-10.700000000000045 8.199999999999989-17.400000000000034 7.599999999999994-28.5 1.1999999999999886-68.30000000000001-39.49999999999999-132.10000000000002-31.89999999999999-190.20000000000005 21.700000000000003-28.5 26.299999999999997-53.99999999999997 55.3-73.39999999999998 89.2-2.5 4.5-5.800000000000011 7.800000000000011-10.400000000000006 10.300000000000011-53.19999999999999 29.19999999999999-88.89999999999999 74.19999999999999-113.8 128.39999999999998-11.799999999999997 25.69999999999999-19.89999999999999 52.60000000000002-13.599999999999994 81.60000000000002 1.0999999999999943 5-0.10000000000000853 9.800000000000011-1.9000000000000057 14.599999999999966-13.200000000000003 34.10000000000002-17.299999999999997 69.80000000000007-16 106.20000000000005 0 10.5-0.7999999999999972 21.199999999999932 0.20000000000000284 31.600000000000023 3.200000000000003 35.299999999999955 9.700000000000003 69.89999999999998 31 99.19999999999993 8.099999999999994 11.100000000000023 11.400000000000006 22.5 14.400000000000006 35.30000000000007 14.5 61.39999999999998 45.400000000000006 112.39999999999998 100.5 145.69999999999993 13.699999999999989 8.300000000000068 26.900000000000006 17.100000000000023 39.400000000000006 27 42.69999999999999 34 90 47.39999999999998 143.5 29.800000000000068 5.599999999999966-1.8000000000000682 10.5-1.3000000000000682 16 0.09999999999990905 27.30000000000001 6.900000000000091 54 4.900000000000091 78.69999999999999-9.099999999999909 9.699999999999989-5.5 16.5-4.600000000000023 25.600000000000023 1.3999999999999773 27.5 18.100000000000023 57.10000000000002 26.600000000000023 89.89999999999998 14.600000000000023 5-1.8000000000000682 9.899999999999977-1.1000000000000227 14.899999999999977-0.20000000000004547 61.5 11.899999999999977 115.89999999999998-12.200000000000045 147.20000000000005-65.79999999999995 4.600000000000023-7.800000000000068 10.399999999999977-12.600000000000023 18.100000000000023-16.90000000000009 43.89999999999998-24.59999999999991 81.09999999999991-57.5 101.19999999999993-103.89999999999998 13.200000000000045-30.399999999999977 28.200000000000045-60.60000000000002 37.89999999999998-92.10000000000002 22.40000000000009-73.59999999999991 24.100000000000023-147.89999999999998-10.699999999999932-219.59999999999997z m-428.1-208.6c-3 23.700000000000017-1.1000000000000227 48.099999999999994-0.39999999999997726 72.29999999999998 0.39999999999997726 11.100000000000023-2.3000000000000114 16.5-14.400000000000034 19.5-42.099999999999966 10.400000000000034-77.30000000000001 32.900000000000034-105.09999999999997 66.30000000000001-12.400000000000034 15-12.800000000000011 27.400000000000034-1.400000000000034 36.80000000000001 10.800000000000011 8.899999999999977 22.80000000000001 6.399999999999977 34.80000000000001-7.699999999999989 18.30000000000001-21.400000000000034 40.10000000000002-37.69999999999999 66.69999999999999-47.60000000000002 19.19999999999999-7.099999999999966 19.30000000000001-7.099999999999966 19.30000000000001 12.5 0.10000000000002274 36.69999999999999 0 73.30000000000001 0 110h-0.10000000000002274c0 37.599999999999966-0.5 75.30000000000001 0.30000000000001137 113.00000000000006 0.30000000000001137 14.099999999999909-3.8000000000000114 13.899999999999977-15.300000000000011 9.599999999999909-38.299999999999955-14.099999999999909-60.5-37.59999999999991-53.39999999999998-81.39999999999998 1.5-9.399999999999977 0.8000000000000114-19.099999999999966 1-28.599999999999966 0.30000000000001137-14.800000000000011-7.399999999999977-24.19999999999999-20-24.900000000000034-12.5-0.6999999999999886-22.899999999999977 8-23.80000000000001 22-1.6999999999999886 25.600000000000023-3.599999999999966 51.200000000000045 1.5 76.60000000000002 1.8000000000000114 8.600000000000023-1.3000000000000114 12.799999999999955-7.699999999999989 17.299999999999955-17.5 12.100000000000023-34.5 24.700000000000045-49.39999999999998 39.60000000000002-13.200000000000045 13.300000000000068-14.700000000000045 25.300000000000068-4.900000000000034 35.5 9.900000000000034 10.300000000000068 23.19999999999999 8.800000000000068 36.60000000000002-4.199999999999932 13.300000000000011-13 28.5-23.700000000000045 43.30000000000001-34.90000000000009 5.699999999999989-4.2999999999999545 10.199999999999989-4.199999999999932 16-0.09999999999990905 19.799999999999955 13.899999999999977 41.599999999999966 24.199999999999932 64.09999999999997 32.89999999999998 8.100000000000023 3.1000000000000227 11.800000000000011 7 11.699999999999989 16.299999999999955-0.39999999999997726 48.200000000000045 0 96.39999999999998-0.2999999999999545 144.60000000000002-0.10000000000002274 19.299999999999955-33.5 42.60000000000002-52.10000000000002 37-5.399999999999977-1.7000000000000455-6.699999999999989-5.2000000000000455-6.800000000000011-10.200000000000045-0.5-24.699999999999932-2.5-49.09999999999991-10.300000000000011-72.69999999999993-1.7999999999999545-5.300000000000068 0.4000000000000341-8.600000000000023 3.3000000000000114-12.200000000000045 5.800000000000011-7 11.900000000000034-13.699999999999932 17-21.100000000000023 7.400000000000034-10.699999999999932 6.100000000000023-21.399999999999977-3.8000000000000114-29.59999999999991-9.799999999999955-8.100000000000023-20.399999999999977-7-30 1.3999999999999773-0.39999999999997726 0.39999999999997726-0.8999999999999773 0.6000000000000227-1.099999999999966 1.1000000000000227-10.800000000000011 20.799999999999955-26.900000000000034 22.09999999999991-47.30000000000001 15.199999999999932-12.300000000000011-4.199999999999932-23.80000000000001 4.600000000000023-26.19999999999999 16.100000000000023-2.900000000000034 13.700000000000045 2.8999999999999773 22.799999999999955 17.19999999999999 27 28 8.200000000000045 31.899999999999977 13 34.39999999999998 42.39999999999998 0.5 6 0.9000000000000341 12 1.5 18 2.5 22-1.1999999999999886 25.899999999999977-23.69999999999999 27.800000000000068-23.599999999999966 2.099999999999909-43-7.800000000000068-61.19999999999999-21-16.80000000000001-12.200000000000045-33.19999999999999-24.40000000000009-51.5-35-36.599999999999994-21.40000000000009-55-58.40000000000009-64.30000000000001-99.5-1.6999999999999886-7.5 3.200000000000017-9.600000000000023 8.800000000000011-11.600000000000023 16.099999999999994-5.7000000000000455 31.80000000000001-12.300000000000068 46.19999999999999-21.700000000000045 19.30000000000001-12.399999999999977 25.600000000000023-29.699999999999932 21-51.799999999999955-6.699999999999989-31.899999999999977-20.69999999999999-60.60000000000002-36.69999999999999-88.60000000000002-7-12.299999999999955-19.900000000000006-15.5-30.900000000000006-9-11.199999999999989 6.600000000000023-14.400000000000006 18.399999999999977-7.400000000000006 31.399999999999977 11.600000000000023 21.800000000000068 22.100000000000023 43.80000000000007 29.80000000000001 67.30000000000007 3 9 0.8000000000000114 14.399999999999977-7.699999999999989 17.899999999999977l-16.400000000000006 7.5c-26.400000000000006 10.899999999999977-32.30000000000001 9.299999999999955-40.5-17.800000000000068-15.300000000000011-50.799999999999955-14.599999999999994-101.79999999999995 1.5999999999999943-152.49999999999994 4.599999999999994-14.400000000000034 13.699999999999989-19.30000000000001 28.400000000000006-21.69999999999999 29.799999999999983-4.900000000000034 51.5 4.699999999999989 69.4 28 12.299999999999983 15.899999999999977 24.5 31.799999999999955 34 49.60000000000002 7 13.299999999999955 19.5 18.399999999999977 31 13 11.899999999999977-5.600000000000023 15.599999999999966-19.200000000000045 8.300000000000011-33.400000000000034-14-27.5-32.60000000000002-51.60000000000002-54.10000000000002-73.80000000000001-24.599999999999994-25.19999999999999-54.099999999999994-33-88-27.80000000000001-24.69999999999999 3.8000000000000114-26.30000000000001 1.900000000000034-17.19999999999999-20.899999999999977 13.5-33.80000000000001 35-61.80000000000001 62.29999999999998-85.60000000000002 8.300000000000011-7.300000000000011 13.300000000000011-8.800000000000011 17.700000000000017 3.6999999999999886 4.5 12.800000000000011 11.599999999999994 24.5 20.599999999999966 34.80000000000001 13.900000000000034 16 31 19.5 50.10000000000002 10.100000000000023 14.5-7.199999999999989 26.80000000000001-17.80000000000001 38.19999999999999-29.100000000000023 21.900000000000034-21.399999999999977 43.60000000000002-43.099999999999966 65.19999999999999-64.79999999999998 11.5-11.599999999999994 12.200000000000045-22.900000000000006 2.6000000000000227-33.20000000000002-8.800000000000011-9.399999999999977-22.5-9.599999999999994-33.39999999999998 0.9000000000000057-24.30000000000001 23.30000000000001-47.700000000000045 47.50000000000003-72.10000000000002 70.70000000000002-18.600000000000023 17.599999999999966-18.899999999999977 16.5-30.19999999999999-6.300000000000011-7.100000000000023-14.399999999999977-5.800000000000011-26.5 2.1999999999999886-39.599999999999994 19.30000000000001-31.599999999999994 43.60000000000002-58.80000000000001 72-82.4 23.600000000000023-19.5 49.69999999999999-22.099999999999994 77.60000000000002-11 7 2.8000000000000114 13.5 6.599999999999994 20.099999999999966 10.199999999999989 23 12.200000000000017 37 28.30000000000001 33.30000000000001 57.400000000000006z m371.1 408.29999999999995c-7 21.800000000000068-9.5 22.100000000000023-30 13.899999999999977-31.899999999999977-12.799999999999955-32.5-13.699999999999932-19.200000000000045-45.299999999999955 6.600000000000023-15.700000000000045 14.5-30.799999999999955 21.899999999999977-46.200000000000045 7.100000000000023-14.699999999999932 4.100000000000023-27.899999999999977-7.699999999999932-34-11.5-5.999999999999943-23.700000000000045-1.599999999999909-31.200000000000045 12.100000000000023-15.699999999999932 28.600000000000023-30 57.80000000000007-35.69999999999993 90.5-3.2000000000000455 18.399999999999977 2.3999999999999773 32.5 16.59999999999991 43.80000000000007 14.400000000000091 11.5 31.200000000000045 18.09999999999991 48 24.699999999999932 6.800000000000068 2.6000000000000227 10.200000000000045 5.2000000000000455 7.100000000000023 13-14.899999999999977 37.39999999999998-42.89999999999998 62.30000000000007-76.69999999999993 81.80000000000007-5.7000000000000455 3.199999999999932-9.200000000000045 0.1999999999999318-12.400000000000091-4.400000000000091-9-12.799999999999955-19.699999999999932-24.399999999999977-32.39999999999998-33.39999999999998-8.299999999999955-5.899999999999977-8.5-12.399999999999977-6.699999999999932-20.699999999999932 2-9.800000000000068 4.199999999999932-19.600000000000023 5.2999999999999545-29.600000000000023 1.2999999999999545-13-5.100000000000023-21.300000000000068-18-23.300000000000068-13-2.099999999999909-21.399999999999977 4.300000000000068-25.100000000000023 16.300000000000068-3.199999999999932 10.399999999999977-0.2999999999999545 25-8.799999999999955 30.699999999999932-7.5 4.900000000000091-20.399999999999977 1.5-30.800000000000068 2.2000000000000455-5 0.39999999999997726-9.899999999999977 1.6000000000000227-14.699999999999932 2.8999999999999773-14.300000000000068 3.8999999999999773-20.800000000000068 13.399999999999977-18.600000000000023 26.399999999999977 2.1000000000000227 12.400000000000091 12.399999999999977 20.5 27 17 40.89999999999998-9.699999999999932 67 10.300000000000068 89.29999999999995 40.700000000000045 5.900000000000091 8 5 14.100000000000023-0.09999999999990905 21.700000000000045-19.600000000000023 29.199999999999932-51.10000000000002 38.89999999999998-82.80000000000007 22.899999999999977-12.899999999999977-6.5-22.399999999999977-8.100000000000023-32.60000000000002 3.3999999999999773-6.7999999999999545 7.7000000000000455-15.599999999999909 7.399999999999977-24.899999999999977 3.2999999999999545-26.100000000000023-11.299999999999955-33.60000000000002-22.899999999999977-33.5-51.5 0.20000000000004547-60.299999999999955-0.10000000000002274-120.59999999999991 0.10000000000002274-180.79999999999995 0.10000000000002274-20 1.7999999999999545-21.5 21.899999999999977-18.600000000000023 18.700000000000045 2.7000000000000455 35.80000000000007 9.300000000000068 50.200000000000045 22.100000000000023 12.399999999999977 10.899999999999977 25.799999999999955 11.200000000000045 34.69999999999993 1.5 9.800000000000068-10.799999999999955 8.100000000000023-23.100000000000023-5.599999999999909-35.299999999999955-23.800000000000068-21.300000000000068-52-32.30000000000007-83.70000000000005-32.60000000000002-14.200000000000045-0.10000000000002274-16.700000000000045-5.5-18.100000000000023-18.399999999999977-3.8999999999999773-35.60000000000002 0.8999999999999773-62.700000000000045 41.700000000000045-75.80000000000007 16.899999999999977-5.399999999999977 27.399999999999977-8.899999999999977 39.89999999999998 4.2000000000000455 5.5 5.7999999999999545 12.200000000000045 10.5 18.100000000000023 15.799999999999955 11.899999999999977 10.700000000000045 23.600000000000023 11.300000000000011 33.299999999999955 1.5 8.899999999999977-9 8.100000000000023-22.599999999999966-2.2999999999999545-33.5-10.800000000000068-11.399999999999977-23.200000000000045-20.799999999999955-36.10000000000002-29.599999999999966-6.5-4.5-8.799999999999955-9.199999999999989-8.299999999999955-17.400000000000034 1-16.5 0.7999999999999545-33.19999999999999 0.09999999999990905-49.69999999999999-0.599999999999909-15.699999999999989-9.5-24.099999999999966-23.399999999999977-23.599999999999966s-20.799999999999955 9.199999999999989-20.600000000000023 25.599999999999966c0.20000000000004547 9-0.5 18.19999999999999 0.6000000000000227 27.100000000000023 2.8999999999999773 23.099999999999966-7.7999999999999545 36.5-28.399999999999977 45.19999999999999-10.600000000000023 4.600000000000023-14.299999999999955 3.8000000000000114-14.200000000000045-8.300000000000011 0.3000000000000682-34.69999999999999 0.10000000000002274-69.30000000000001 0.10000000000002274-104v-15.099999999999966h0.20000000000004547c0-37.700000000000045 0.2999999999999545-75.30000000000001-0.20000000000004547-113.00000000000003-0.10000000000002274-10.299999999999983 3.2000000000000455-18 10.200000000000045-25.5 37.89999999999998-39.19999999999999 64.29999999999995-41.69999999999999 107.29999999999995-8.799999999999983 29.899999999999977 22.899999999999977 52.89999999999998 51.89999999999998 71.70000000000005 84.39999999999998 4.5 7.700000000000017 3.3999999999999773 12-3.6000000000000227 17.400000000000034-21.600000000000023 16.799999999999955-28.600000000000023 17.899999999999977-52.39999999999998 4.099999999999966-16.399999999999977-9.5-29.800000000000068-21.899999999999977-38.200000000000045-39.29999999999998-7.2999999999999545-15-19.399999999999977-20-31.600000000000023-13.700000000000017-11.899999999999977 6.100000000000023-15.599999999999909 17.900000000000006-8.899999999999977 32.30000000000001 18.800000000000068 40.10000000000002 52.200000000000045 62.69999999999999 93.30000000000007 74.69999999999999 11 3.1999999999999886 23.09999999999991 1.3000000000000114 33.799999999999955-4.099999999999966 8.899999999999977-4.600000000000023 17.899999999999977-9.300000000000011 26.100000000000023-15 26.799999999999955-18.400000000000034 26.799999999999955-18.600000000000023 49.799999999999955 5.599999999999966 22.800000000000068 24 39.80000000000007 51.5 48.80000000000007 83.69999999999999 3 10.400000000000034 1.099999999999909 14.800000000000011-10.900000000000091 13.5-35.39999999999998-3.7999999999999545-63.299999999999955 10.600000000000023-86.39999999999998 36.700000000000045-17.399999999999977 19.599999999999966-33.10000000000002 40.39999999999998-45.299999999999955 63.599999999999966-8.100000000000023 15.500000000000057-5.300000000000068 29.500000000000057 6.600000000000023 35.400000000000034 12.5 6.199999999999932 24.899999999999977 0.7999999999999545 32.799999999999955-14.399999999999977 12.799999999999955-24.900000000000034 29.600000000000023-46.60000000000002 50.200000000000045-65.30000000000007 26.299999999999955-23.799999999999955 66.09999999999991-13.699999999999989 75.89999999999998 20.200000000000045 14.100000000000023 49.39999999999998 13.299999999999955 99.19999999999993-2.5 148.29999999999995z"/>
</svg>
