<svg xmlns="http://www.w3.org/2000/svg" viewBox="0 0 1000 1000" width="1000" height="1000">
<path d="M740.3 502.2c-40.59999999999991 33.30000000000001-80.39999999999998 66.30000000000001-125.19999999999993 103.19999999999999-33.30000000000007-48-63.200000000000045-91.10000000000002-98.20000000000005-141.89999999999998-40.099999999999966 70.5-75.29999999999995 132.29999999999995-114.19999999999999 201.39999999999998-40.30000000000001-62.60000000000002-75.89999999999998-118.19999999999993-111.69999999999999-173.7-35.30000000000001 14.699999999999989-66.30000000000001 34.099999999999966-103.19999999999999 40.900000000000034-21.200000000000017 3.8999999999999773-44 3.8999999999999773-68.00000000000001 3.3999999999999773 22.000000000000014 37.200000000000045 48.8 71.60000000000002 78.7 104.10000000000002 85.5 92.69999999999993 187.3 164.39999999999998 296.2 226.39999999999998 3.1000000000000227 1.7000000000000455 9 1.3999999999999773 12.100000000000023-0.6000000000000227 21.400000000000034-12.399999999999977 42.900000000000034-24.799999999999955 63.99999999999994-38.39999999999998 94.80000000000007-60.10000000000002 182.5-128.29999999999995 254.70000000000005-214.89999999999998 20.600000000000023-24.800000000000068 39.799999999999955-50.5 55.799999999999955-77.80000000000007-69 5.100000000000023-104.29999999999995-3.8999999999999773-141-32.099999999999966z m130.60000000000002-301.79999999999995c-81.19999999999993-82.90000000000003-220.60000000000002-90.30000000000004-310.79999999999995-16.900000000000034-24.300000000000068 20-44 43.400000000000006-59.80000000000001 71.9-1.400000000000034-2-2.3000000000000114-2.5-2.5-3.4000000000000057-55-90.5-136-130-240-115.6-83 11.5-142.8 58.599999999999994-176.9 134.99999999999997-26.200000000000003 59-22.300000000000004 119-1.4000000000000057 178.8 4.5 12.699999999999989 9.599999999999994 25.100000000000023 15.200000000000003 37 94.2 10.199999999999989 150.60000000000002-31.599999999999966 208.7-74.69999999999999 33.80000000000001 44.80000000000001 64.30000000000001 84.60000000000002 99.30000000000001 130.89999999999998 38.400000000000034-72.19999999999999 73.90000000000003-138.2 114.00000000000006-213.5 39.799999999999955 66.30000000000001 74.69999999999993 124.40000000000003 113.69999999999993 189.30000000000007 39.5-31.900000000000034 75.30000000000007-60.60000000000002 118.70000000000005-95.60000000000002 27.399999999999977 55 85.5 67.39999999999998 157.10000000000002 63.5 7.899999999999977-17.5 14.699999999999932-35.5 20-54.400000000000034 25.09999999999991-87.89999999999998 9-166.3-55.30000000000007-232.29999999999998z"/>
</svg>
