<svg xmlns="http://www.w3.org/2000/svg" viewBox="0 0 1000 1000" width="1000" height="1000">
<path d="M358.1 269.1c-1.7000000000000455 0-4.2000000000000455-3.1000000000000227-4.800000000000011-5.100000000000023-0.8000000000000114-3.1000000000000227-0.19999999999998863-6.600000000000023-0.19999999999998863-10.699999999999989h20.19999999999999c0.8000000000000114-4.900000000000006 1.5-9 2-13.100000000000023 2-15.399999999999977 10.599999999999966-25.69999999999999 25.099999999999966-31.299999999999983 2.3000000000000114-0.9000000000000057 4.600000000000023-1.9000000000000057 6.900000000000034-2.9000000000000057h12c20 5.900000000000006 32.30000000000001 18.30000000000001 34 39.400000000000006l0.8999999999999773 8h21.30000000000001v14.599999999999994c-0.8000000000000114 0.39999999999997726-1.3000000000000114 0.8999999999999773-1.8000000000000114 0.8999999999999773-38.5 0.20000000000004547-77 0.30000000000001137-115.59999999999997 0.20000000000004547z m311.1 418.29999999999995c-13.700000000000045 40.80000000000007 8.299999999999955 85.80000000000007 49.59999999999991 101 6.400000000000091 2.300000000000068 13.100000000000023 3.6000000000000227 19.700000000000045 5.300000000000068h18.899999999999977c3.6000000000000227-0.900000000000091 7.100000000000023-1.900000000000091 10.600000000000023-2.7000000000000455 34.39999999999998-8.600000000000023 60.200000000000045-40.700000000000045 61-75.79999999999995 0.7999999999999545-36.40000000000009-23.600000000000023-69.90000000000009-58-79.80000000000007-43-12.5-87.79999999999995 10.5-101.79999999999995 52z m38 26.399999999999977c-0.20000000000004547-21.799999999999955 18.199999999999932-40.19999999999993 40.09999999999991-40 21.200000000000045 0.20000000000004547 39.60000000000002 18.200000000000045 39.60000000000002 38.90000000000009 0 20.899999999999977-18.199999999999932 39-39.299999999999955 39-21.600000000000023 0.09999999999990905-40.200000000000045-17.40000000000009-40.39999999999998-37.90000000000009z m-517.9000000000001-0.6999999999999318c-0.0999999999999659 37.299999999999955 24.000000000000057 68.5 60.60000000000005 78.5 2.1999999999999886 0.6000000000000227 4.299999999999983 1.3999999999999773 6.499999999999972 2.1000000000000227h30.900000000000034c15.099999999999966-5.2000000000000455 29.69999999999999-10.900000000000091 41.39999999999998-22.40000000000009 26.30000000000001-25.699999999999932 31.80000000000001-65.59999999999991 13.199999999999989-97.89999999999998-18.399999999999977-32-55.39999999999998-47.299999999999955-91.79999999999998-37.89999999999998-35.400000000000006 8.899999999999977-60.79999999999998 41.5-60.79999999999998 77.60000000000002z m41.60000000000005 0.8999999999999773c0.19999999999998863-21.600000000000023 18.299999999999983-39.39999999999998 39.900000000000006-39.200000000000045 22 0.10000000000002274 39.80000000000001 17.600000000000023 39.80000000000001 39.10000000000002 0 21.399999999999977-17.600000000000023 37.80000000000007-40.60000000000002 37.89999999999998-20.80000000000001 0-39.19999999999999-17.799999999999955-39.099999999999994-37.799999999999955z m705.7-222.39999999999998c-0.20000000000004547-56.10000000000002-0.39999999999997726-112.10000000000002-0.7000000000000455-168 0-18.200000000000045-14.899999999999977-32.900000000000034-33.799999999999955-32.900000000000034-37 0-74.20000000000005 0.19999999999998863-111.5 0.19999999999998863l-545.6 0.9000000000000341c-21 0-35.099999999999994 9.5-44.19999999999999 27.30000000000001-5.400000000000006 10.799999999999955-10.400000000000006 22.099999999999966-15.100000000000023 33.099999999999966-16.69999999999999 39.80000000000001-33.29999999999998 79.60000000000002-50.39999999999998 119.30000000000001-1.700000000000017 4.100000000000023-5 9.100000000000023-8.700000000000017 10.399999999999977-22.299999999999997 7.800000000000011-33.8 24-38.5 45.200000000000045-6.299999999999997 29-11.699999999999989 58.39999999999998-17.099999999999994 87.60000000000002-3.200000000000003 18-5.900000000000006 35.89999999999998-8.700000000000003 53.89999999999998v20.299999999999955c6 12.600000000000023 14.900000000000006 22.100000000000023 29.900000000000006 22.700000000000045 20.299999999999997 1.1000000000000227 40.7 1.5 60.8 2 7.099999999999994 0.1999999999999318 10.199999999999989-3 10.800000000000011-10.800000000000068 4.299999999999983-51.5 50.89999999999998-94.09999999999991 103-95.19999999999993 57.39999999999998-1.3000000000000682 103.69999999999999 38.299999999999955 111.5 95 1.6999999999999886 11.199999999999932 1.6999999999999886 11.5 13.399999999999977 11.199999999999932 79-0.1999999999999318 158.00000000000006-0.8999999999999773 236.8-0.8999999999999773 8.700000000000045 0 11-2.6000000000000227 11.700000000000045-10.600000000000023 4.7999999999999545-49.39999999999998 48.299999999999955-90.69999999999993 96.69999999999993-94.59999999999991 61.700000000000045-5 105.20000000000005 38.5 115.39999999999998 82 1.7000000000000455 7.7999999999999545 3 15.799999999999955 4.800000000000068 25.09999999999991 18.799999999999955-1.099999999999909 37.19999999999993-1.6999999999999318 55.60000000000002-3.199999999999932 8.899999999999977-0.7000000000000455 15.399999999999977-5.600000000000023 19.699999999999932-13.399999999999977 1.3000000000000682-2.6000000000000227 3.2000000000000455-5 5-7.600000000000023v-189.10000000000002c-0.10000000000002274-3.1999999999999886-0.7999999999999545-6.699999999999989-0.7999999999999545-9.899999999999977z m-587.1-24.30000000000001c0.19999999999998863 7.800000000000011-2.6000000000000227 9.5-10 9.300000000000011-46.69999999999999-0.4000000000000341-93.69999999999999-0.4000000000000341-140.7-0.4000000000000341-7.100000000000023-0.19999999999998863-14.700000000000017 0-23.400000000000006 0 1.0999999999999943-4.099999999999966 1.299999999999983-5.899999999999977 2-7.399999999999977l55.79999999999998-137c2.200000000000017-5.199999999999989 5.400000000000006-6.5 10.400000000000006-6.300000000000011 32.00000000000003 0 64.1 0.19999999999998863 96.1-0.19999999999998863 7.600000000000023 0 10 2 9.699999999999989 9.5-0.0999999999999659 44.19999999999999-0.0999999999999659 88.39999999999998 0.10000000000002274 132.5z m370.29999999999995 18.19999999999999h-77v85.5c-9.699999999999932 2-19.899999999999977 2.7999999999999545-29.899999999999977 2.7999999999999545s-19.699999999999932-0.8999999999999773-29.399999999999977-2.7999999999999545v-85.5h-77.30000000000001c-2-9.5-2.8000000000000114-19.5-2.8000000000000114-29.399999999999977 0-9.5 0.9000000000000341-19.30000000000001 2.8000000000000114-29h77.30000000000001v-85.5c9.700000000000045-2 19.700000000000045-2.8000000000000114 29.899999999999977-2.8000000000000114 9.700000000000045 0 19.700000000000045 0.8999999999999773 29.399999999999977 2.8000000000000114v85.5h77c2 9.699999999999989 3 19.5 3 29.399999999999977 0 9.699999999999989-1.099999999999909 19.5-3 29z"/>
</svg>
