<svg xmlns="http://www.w3.org/2000/svg" viewBox="0 0 1000 1000" width="1000" height="1000">
<path d="M800.8 71.7h-319.49999999999994c-4.300000000000011-19-11.400000000000034-37-23.400000000000034-50.300000000000004-12.699999999999989-13.999999999999998-29.19999999999999-21.4-47.799999999999955-21.4-24.30000000000001 0-44.700000000000045 9.3-59.10000000000002 26.8-10.199999999999989 12.599999999999998-16.399999999999977 28.400000000000002-19.899999999999977 44.900000000000006h-90.10000000000002c-14.400000000000006 0-26.19999999999999 11.700000000000003-26.19999999999999 26.200000000000003s11.799999999999983 26.19999999999999 26.19999999999999 26.19999999999999h86.60000000000002c0.2999999999999545 8.300000000000011 1 16 1.7999999999999545 22.400000000000006-86.49999999999997 0.8000000000000114-156.39999999999998 71.19999999999999-156.39999999999998 157.8v445.7c0 87.20000000000005 70.69999999999999 157.89999999999998 157.89999999999998 157.89999999999998h23.200000000000045v48.200000000000045c0 5.899999999999977 4.2999999999999545 12.5 9.799999999999955 14.799999999999955l32 13.899999999999977c5.400000000000034 2.300000000000068 14.100000000000023 2.5 19.600000000000023 0.5l36.80000000000001-13.699999999999932c5.5-1.8999999999999773 9.899999999999977-8.300000000000068 9.899999999999977-14.200000000000045v-49.60000000000002h23.19999999999999c87.10000000000002 0 157.89999999999998-70.69999999999993 157.89999999999998-157.89999999999998v-445.59999999999997c0-86.60000000000002-69.79999999999995-156.9-156.19999999999993-157.8 0.2999999999999545-6.300000000000011 0.2999999999999545-14.099999999999994 0.2999999999999545-22.5h287.4v849.7c0 14.399999999999977 11.800000000000068 26.199999999999932 26.200000000000045 26.199999999999932 14.5 0 26.299999999999955-11.799999999999955 26.299999999999955-26.199999999999932v-875.8000000000001c-0.2999999999999545-14.499999999999972-12-26.199999999999974-26.5-26.199999999999974z m-409.19999999999993-11.700000000000003c3.099999999999966-3.799999999999997 7.699999999999989-7.600000000000001 18.5-7.600000000000001 3.7999999999999545 0 6.199999999999989 1.1000000000000014 8.899999999999977 4.100000000000001 3.3000000000000114 3.6000000000000014 5.899999999999977 8.900000000000006 8 15.099999999999994h-41.39999999999998c1.5-4.3999999999999915 3.3999999999999773-8.399999999999991 6-11.599999999999994z m43.099999999999966 64.1c0.19999999999998863 7.800000000000011 0.10000000000002274 15.400000000000006-0.30000000000001137 22.400000000000006h-52c-1-6.5-1.7999999999999545-14.199999999999989-2.1999999999999886-22.400000000000006h54.5z m-214.1 243.79999999999998c-9.699999999999989 0-17.5-7.7999999999999545-17.5-17.5 0-96.69999999999999 78.79999999999998-175.39999999999998 175.4-175.39999999999998 9.699999999999989 0 17.5 7.900000000000006 17.5 17.5 0 9.699999999999989-7.899999999999977 17.5-17.5 17.5-77.5 0-140.5 63-140.5 140.39999999999998 0.09999999999999432 9.700000000000045-7.800000000000011 17.5-17.400000000000006 17.5z m358.5 136.90000000000003v215.8c0 68.79999999999995-51.39999999999998 124.60000000000002-114.90000000000003 124.60000000000002h-112.19999999999999c-63.5 0-114.9-55.80000000000007-114.9-124.60000000000002v-215.8h342z"/>
</svg>
