<svg xmlns="http://www.w3.org/2000/svg" viewBox="0 0 1000 1000" width="1000" height="1000">
<path d="M469 856.9h-14.399999999999977c-8 0-14.5 6.5-14.5 14.399999999999977v19.800000000000068c0 8 6.5 14.5 14.5 14.5h14.399999999999977c7.899999999999977 0 14.399999999999977-6.5 14.399999999999977-14.5v-19.800000000000068c0-7.899999999999977-6.5-14.399999999999977-14.399999999999977-14.399999999999977z m76.39999999999998 0h-14.299999999999955c-8.100000000000023 0-14.5 6.5-14.5 14.399999999999977v19.800000000000068c0 8 6.399999999999977 14.5 14.5 14.5h14.299999999999955c8 0 14.5-6.5 14.5-14.5v-19.800000000000068c0-7.899999999999977-6.5-14.399999999999977-14.5-14.399999999999977z m400.80000000000007-848.4h-892.4000000000001c-31.699999999999953 0-55.69999999999995 25.700000000000003-53.69999999999995 57.2l56 868.5999999999999c2 31.700000000000045 29.4 57.30000000000007 60.99999999999999 57.30000000000007h271.1l-15.500000000000057-156.20000000000005c-3.099999999999966-31.5 20.100000000000023-57 51.69999999999999-57h155.10000000000002c31.700000000000045 0 54.799999999999955 25.5 51.700000000000045 57l-15.5 156.20000000000005h267.19999999999993c31.700000000000045 0 59-25.700000000000045 61-57.30000000000007l56-868.5999999999999c1.8999999999999773-31.600000000000044-22-57.200000000000045-53.69999999999993-57.200000000000045z m-225.70000000000005 336.4c0-11.5 9.299999999999955-20.69999999999999 20.700000000000045-20.69999999999999h64.19999999999993c11.5 0 20.800000000000068 9.199999999999989 20.800000000000068 20.69999999999999v89.20000000000005c0 11.5-9.300000000000068 20.799999999999955-20.800000000000068 20.799999999999955h-64.19999999999993c-11.5 0-20.700000000000045-9.299999999999955-20.700000000000045-20.799999999999955v-89.20000000000005z m0 220.60000000000002c0-11.399999999999977 9.299999999999955-20.799999999999955 20.700000000000045-20.799999999999955h64.19999999999993c11.5 0 20.800000000000068 9.399999999999977 20.800000000000068 20.799999999999955v89.29999999999995c0 11.600000000000023-9.300000000000068 20.800000000000068-20.800000000000068 20.800000000000068h-64.19999999999993c-11.5 0-20.700000000000045-9.300000000000068-20.700000000000045-20.800000000000068v-89.29999999999995z m-441 324.70000000000005c0 11.5-9.199999999999989 20.799999999999955-20.69999999999999 20.799999999999955h-64.20000000000002c-11.5 0-20.799999999999983-9.299999999999955-20.799999999999983-20.799999999999955v-89.20000000000005c0-11.5 9.299999999999983-20.799999999999955 20.799999999999983-20.799999999999955h64.20000000000002c11.5 0 20.69999999999999 9.299999999999955 20.69999999999999 20.799999999999955v89.20000000000005z m0-235.4000000000001c0 11.5-9.199999999999989 20.800000000000068-20.69999999999999 20.800000000000068h-64.20000000000002c-11.5 0-20.799999999999983-9.300000000000068-20.799999999999983-20.800000000000068v-89.29999999999995c0-11.399999999999977 9.299999999999983-20.799999999999955 20.799999999999983-20.799999999999955h64.20000000000002c11.5 0 20.69999999999999 9.399999999999977 20.69999999999999 20.799999999999955v89.29999999999995z m0-220.69999999999993c0 11.5-9.199999999999989 20.799999999999955-20.69999999999999 20.799999999999955h-64.20000000000002c-11.5 0-20.799999999999983-9.299999999999955-20.799999999999983-20.799999999999955v-89.20000000000005c0-11.5 9.299999999999983-20.69999999999999 20.799999999999983-20.69999999999999h64.20000000000002c11.5 0 20.69999999999999 9.199999999999989 20.69999999999999 20.69999999999999v89.20000000000005z m182.3 220.69999999999993c0 11.5-9.300000000000011 20.800000000000068-20.80000000000001 20.800000000000068h-64.19999999999999c-11.5 0-20.69999999999999-9.300000000000068-20.69999999999999-20.800000000000068v-89.29999999999995c0-11.399999999999977 9.299999999999955-20.799999999999955 20.69999999999999-20.799999999999955h64.19999999999999c11.5 0 20.80000000000001 9.399999999999977 20.80000000000001 20.799999999999955v89.29999999999995z m0-220.69999999999993c0 11.5-9.300000000000011 20.799999999999955-20.80000000000001 20.799999999999955h-64.19999999999999c-11.5 0-20.69999999999999-9.299999999999955-20.69999999999999-20.799999999999955v-89.20000000000005c0-11.5 9.299999999999955-20.69999999999999 20.69999999999999-20.69999999999999h64.19999999999999c11.5 0 20.80000000000001 9.199999999999989 20.80000000000001 20.69999999999999v89.20000000000005z m67.49999999999994-242.50000000000003v54.400000000000006c0 3.5999999999999943-2.8999999999999773 6.5-6.599999999999909 6.5h-45.400000000000034c-3.6999999999999886 0-6.600000000000023-2.9000000000000057-6.600000000000023-6.5v-54.400000000000006c0-3.5999999999999943-2.8999999999999773-6.400000000000006-6.5-6.400000000000006h-54.30000000000001c-3.6999999999999886 0-6.5-3-6.5-6.5v-45.5c0-3.5999999999999943 2.900000000000034-6.599999999999994 6.5-6.599999999999994h54.30000000000001c3.6000000000000227 0 6.5-2.799999999999997 6.5-6.5v-54.3c0-3.6999999999999957 2.900000000000034-6.5 6.600000000000023-6.5h45.400000000000034c3.599999999999909 0 6.599999999999909 2.8000000000000043 6.599999999999909 6.5v54.3c0 3.700000000000003 2.800000000000068 6.5 6.400000000000091 6.5h54.299999999999955c3.7000000000000455 0 6.600000000000023 2.9000000000000057 6.600000000000023 6.599999999999994v45.5c0 3.5-2.8999999999999773 6.5-6.600000000000023 6.5h-54.299999999999955c-3.5 0-6.400000000000091 2.8000000000000114-6.400000000000091 6.400000000000006z m114.60000000000002 463.19999999999993c0 11.5-9.299999999999955 20.800000000000068-20.799999999999955 20.800000000000068h-64.20000000000005c-11.5 0-20.799999999999955-9.300000000000068-20.799999999999955-20.800000000000068v-89.29999999999995c0-11.399999999999977 9.299999999999955-20.799999999999955 20.799999999999955-20.799999999999955h64.20000000000005c11.5 0 20.799999999999955 9.399999999999977 20.799999999999955 20.799999999999955v89.29999999999995z m0-220.69999999999993c0 11.5-9.299999999999955 20.799999999999955-20.799999999999955 20.799999999999955h-64.20000000000005c-11.5 0-20.799999999999955-9.299999999999955-20.799999999999955-20.799999999999955v-89.20000000000005c0-11.5 9.299999999999955-20.69999999999999 20.799999999999955-20.69999999999999h64.20000000000005c11.5 0 20.799999999999955 9.199999999999989 20.799999999999955 20.69999999999999v89.20000000000005z m182.39999999999998 456.1c0 11.5-9.299999999999955 20.799999999999955-20.799999999999955 20.799999999999955h-64.20000000000005c-11.5 0-20.799999999999955-9.299999999999955-20.799999999999955-20.799999999999955v-89.20000000000005c0-11.5 9.299999999999955-20.799999999999955 20.799999999999955-20.799999999999955h64.20000000000005c11.5 0 20.799999999999955 9.299999999999955 20.799999999999955 20.799999999999955v89.20000000000005z"/>
</svg>
