<svg xmlns="http://www.w3.org/2000/svg" viewBox="0 0 1000 1000" width="1000" height="1000">
<path d="M597.8 94c0 51.900000000000006-42.09999999999991 94-93.99999999999994 94s-94-42.19999999999999-94-94 42.19999999999999-94 94-94 93.99999999999994 42.1 93.99999999999994 94z m111.40000000000009 112.30000000000001h-418.90000000000003c-15.300000000000011 0-27.80000000000001 12.5-27.80000000000001 27.799999999999983v292.19999999999993c0 15.300000000000068 12.5 27.800000000000068 27.80000000000001 27.800000000000068h102.39999999999998l0.19999999999998863 76v318.6c0 28.299999999999955 21.700000000000045 51.299999999999955 44.60000000000002 51.299999999999955 23 0 41.60000000000002-22.899999999999977 41.60000000000002-51.299999999999955v-281.80000000000007h51.69999999999993v281.70000000000005c0 28.399999999999977 18.600000000000023 51.39999999999998 41.5 51.39999999999998s42.40000000000009-23 42.40000000000009-51.39999999999998l0.39999999999997726-322v-72.60000000000002h94c15.299999999999955 0 27.799999999999955-12.5 27.799999999999955-27.799999999999955v-292.20000000000005c0-15.199999999999989-12.399999999999977-27.69999999999999-27.699999999999932-27.69999999999999z m-198.40000000000003 94.80000000000001h85.90000000000003c2.8999999999999773 0 5.5 1.099999999999966 7.199999999999932 3 1.8000000000000682 2 2.5 4.699999999999989 2.2000000000000455 7.599999999999966l-1.8999999999999773 15.900000000000034-82.70000000000005 8.199999999999989c-3.1000000000000227 0.30000000000001137-6.7999999999999545 0.39999999999997726-10.800000000000011 0.5999999999999659l0.10000000000002274-35.299999999999955z m0.0999999999999659 90c4.600000000000023-0.10000000000002274 9-0.30000000000001137 12.600000000000023-0.6000000000000227l74.20000000000005-7.699999999999989-3.2000000000000455 27-72.20000000000005 7.800000000000011c-3.2999999999999545 0.2999999999999545-7.199999999999932 0.5999999999999659-11.299999999999955 0.5999999999999659l-0.10000000000002274-27.099999999999966z m11.200000000000045-14.5c-3.300000000000068 0.2999999999999545-7.2000000000000455 0.5-11.200000000000045 0.5999999999999659v-27.099999999999966c4.300000000000068-0.10000000000002274 8.600000000000023-0.30000000000001137 12.100000000000023-0.7000000000000455l79.5-7.899999999999977-3.2000000000000455 27-77.19999999999993 8.100000000000023z m-25.100000000000023 117.19999999999999h-61.10000000000002c-6.699999999999989 0-13-5.600000000000023-13.799999999999955-12.300000000000011l-2.1000000000000227-17.19999999999999 69.5 8c2.1999999999999886 0.30000000000001137 4.899999999999977 0.30000000000001137 7.5 0.5999999999999659v20.900000000000034z m0-34.900000000000034c-2.1000000000000227-0.0999999999999659-4.300000000000011-0.2999999999999545-6-0.5l-72.80000000000001-8.299999999999955-3-26.30000000000001 70.10000000000002 7.5c3.3999999999999773 0.39999999999997726 7.5 0.6999999999999886 11.699999999999989 0.6999999999999886v26.899999999999977z m0-40.69999999999999c-3.6999999999999886-0.19999999999998863-7.199999999999989-0.39999999999997726-10.100000000000023-0.5999999999999659l-73.39999999999998-8-3.1999999999999886-27 75 7.7999999999999545c3.3999999999999773 0.30000000000001137 7.5 0.5 11.800000000000011 0.6000000000000227v27.19999999999999h-0.10000000000002274z m0-41c-3.6999999999999886-0.0999999999999659-7.300000000000011-0.30000000000001137-10.300000000000011-0.5999999999999659l-78.19999999999999-8.200000000000045-3.1999999999999886-26.799999999999955 79.5 7.899999999999977c3.5 0.39999999999997726 7.800000000000011 0.6000000000000227 12.099999999999966 0.6999999999999886v27z m0-41c-3.8999999999999773-0.0999999999999659-7.699999999999989-0.30000000000001137-10.800000000000011-0.5999999999999659l-82.59999999999997-8.200000000000045-1.8000000000000114-15.799999999999955c-0.4000000000000341-2.900000000000034 0.30000000000001137-5.600000000000023 2.1999999999999886-7.600000000000023 1.6999999999999886-2 4.399999999999977-3.1000000000000227 7.199999999999989-3.1000000000000227h85.80000000000001v35.30000000000001z m0-49h-85.80000000000001c-7 0-13.199999999999989 2.6999999999999886-17.599999999999966 7.699999999999989-4.400000000000034 5.100000000000023-6.400000000000034 11.600000000000023-5.600000000000023 18.400000000000034l20.30000000000001 169.8c1.599999999999966 13.699999999999989 13.800000000000011 24.5 27.599999999999966 24.5h61.10000000000002v27.799999999999955h-147.3c-2.8999999999999773-2.1000000000000227-5-5.399999999999977-5-9.299999999999955v-245.20000000000005c0-6.2999999999999545 5.199999999999989-11.599999999999966 11.600000000000023-11.599999999999966h140.7v17.899999999999977z m0-31.69999999999999h-140.8c-14 0-25.399999999999977 11.5-25.399999999999977 25.5v245.29999999999995c0 3.300000000000068 0.5999999999999659 6.300000000000068 1.8000000000000114 9.200000000000045h-42.30000000000001c-5.199999999999989 0-9.300000000000011-4.100000000000023-9.300000000000011-9.200000000000045v-292.29999999999995c0-5.099999999999994 4.100000000000023-9.300000000000011 9.300000000000011-9.300000000000011h206.7v30.80000000000001z m13.800000000000011 176.5c4.599999999999966-0.10000000000002274 9.099999999999966-0.30000000000001137 12.699999999999989-0.6999999999999886l69.20000000000005-7.300000000000011-3.300000000000068 27.19999999999999-63.299999999999955 7.199999999999989c-4.300000000000068 0.6000000000000227-9.800000000000068 0.7000000000000455-15.400000000000034 0.8000000000000114l0.10000000000002274-27.19999999999999z m0 41.10000000000002c6.199999999999989 0 12.199999999999989-0.30000000000001137 16.999999999999943-0.8000000000000114l60-6.900000000000034-2 16.100000000000023c-0.7999999999999545 6.699999999999989-7.199999999999932 12.300000000000011-13.799999999999955 12.300000000000011h-61.10000000000002l-0.0999999999999659-20.69999999999999z m146.8 62.299999999999955h-146.70000000000005v-27.799999999999955h61.200000000000045c13.799999999999955 0 26-10.800000000000011 27.600000000000023-24.400000000000034l20.299999999999955-169.89999999999998c0.7999999999999545-6.900000000000034-1.2000000000000455-13.5-5.600000000000023-18.400000000000034-4.2999999999999545-5-10.699999999999932-7.699999999999989-17.600000000000023-7.699999999999989h-85.79999999999995v-17.80000000000001h140c6.399999999999977 0 11.600000000000023 5.300000000000011 11.600000000000023 11.600000000000023v245.29999999999995c0 3.800000000000068-2.1000000000000227 7.100000000000023-5 9.100000000000023z m60.89999999999998-9.100000000000023c0 5.100000000000023-4.100000000000023 9.200000000000045-9.299999999999955 9.200000000000045h-34.5c1.1999999999999318-2.8999999999999773 1.7999999999999545-5.899999999999977 1.7999999999999545-9.200000000000045v-245.29999999999995c0-14-11.399999999999977-25.400000000000006-25.5-25.400000000000006h-140v-30.799999999999983h198.39999999999998c5 0 9.200000000000045 4.099999999999994 9.200000000000045 9.299999999999983l-0.10000000000002274 292.19999999999993z"/>
</svg>
