<svg xmlns="http://www.w3.org/2000/svg" viewBox="0 0 1000 1000" width="1000" height="1000">
<path d="M166.3 670.1c80.19999999999999 31.100000000000023 163.39999999999998 40.10000000000002 248.7 32.5 57.10000000000002-5.100000000000023 112.29999999999995-17.899999999999977 164.29999999999995-42.39999999999998 15.600000000000023-7.400000000000091 30.700000000000045-16.200000000000045 45.80000000000007-24.800000000000068 6.699999999999932-3.7999999999999545 11.799999999999955-7.5 11.5-8.199999999999932-0.3000000000000682-0.8000000000000682-2-2.2000000000000455-3.800000000000068-3.1000000000000227-1.099999999999909-0.6000000000000227-2.099999999999909-1.1000000000000227-3.199999999999932-1.6000000000000227-75.5-35.60000000000002-151.10000000000002-71.20000000000005-226.60000000000002-106.89999999999998-109.10000000000002-51.400000000000034-218.2-102.90000000000003-327.2-154.60000000000002-6.300000000000011-3-10.200000000000017-2.1999999999999886-14.600000000000009 2.5-7.5 8.300000000000011-15.800000000000004 16-22.900000000000006 24.69999999999999-21.199999999999996 25.80000000000001-35.099999999999994 54.900000000000034-37.099999999999994 88.60000000000002-2.700000000000003 47.49999999999994 17.099999999999998 86.19999999999999 48.9 119.49999999999994 32.699999999999996 34 72.6 57 116.20000000000002 73.80000000000007z m92.69999999999999-259c133.39999999999998 63 266.9 125.89999999999998 400.29999999999995 189 4.600000000000023 2.1000000000000227 7.5 2.199999999999932 10.900000000000091-1.8000000000000682 5.399999999999977-6.599999999999909 11.5-12.599999999999909 16.899999999999977-19.299999999999955 45.19999999999993-55.799999999999955 46.10000000000002-127.69999999999999 2.5-184.89999999999998-31.600000000000023-41.30000000000001-73.70000000000005-68.40000000000003-120.70000000000005-88.70000000000005-54.19999999999993-23.399999999999977-111.19999999999999-35.099999999999966-170-38.799999999999955-83.89999999999998-5.2000000000000455-165.29999999999998 5.5-242.99999999999997 38.299999999999955-15.300000000000011 6.400000000000034-30 14.400000000000034-44.80000000000001 22.100000000000023-6.799999999999997 3.6000000000000227-12.099999999999994 6.899999999999977-11.799999999999997 7.600000000000023s6.1000000000000085 3.8999999999999773 13.100000000000009 7.199999999999989c48.900000000000006 23.099999999999966 97.69999999999999 46.19999999999999 146.6 69.30000000000001z m455.70000000000005 165.69999999999993c-5.800000000000068 11.300000000000068-11.5 22.600000000000023-18.700000000000045 32.90000000000009-24.399999999999977 34.89999999999998-58.89999999999998 57.799999999999955-96.70000000000005 75.89999999999998-61.59999999999991 29.399999999999977-127.29999999999995 42.5-194.99999999999994 46.799999999999955-58.60000000000002 3.7000000000000455-117 0.20000000000004547-174.5-12.600000000000023-54.900000000000006-12.199999999999932-107.10000000000001-31.199999999999932-153.3-64.09999999999991-30-21.5-55.1-47.40000000000009-69.6-82.10000000000002-0.9000000000000057-2.300000000000068-1.800000000000006-4.5-2.7000000000000055-6.800000000000068-1.4000000000000004-3.7999999999999545-3.1-6.7999999999999545-3.7-6.699999999999932s-0.7 5.5-0.2 12.199999999999932c0.39999999999999997 4 0.6000000000000001 8 0.6000000000000001 12 0.19999999999999996 43 18.200000000000003 78.5 46.800000000000004 109.20000000000005 33.599999999999994 36.299999999999955 75.3 60.39999999999998 120.99999999999999 77.60000000000002 101.80000000000001 38.299999999999955 206.3 43.39999999999998 312.2 21.5 65.5-13.5 126.30000000000007-38.10000000000002 177.30000000000007-82.60000000000002 31.09999999999991-27.200000000000045 54.5-59.700000000000045 61.299999999999955-101.5 1.7000000000000455-10 2.1000000000000227-20.200000000000045 2.5-30.399999999999977 0.2999999999999545-7.7000000000000455 0.39999999999997726-13.800000000000068-0.10000000000002274-13.700000000000045-0.39999999999997726 0.10000000000002274-3.699999999999932 5.600000000000023-7.199999999999932 12.399999999999977z m158.89999999999998-33.09999999999991c13.799999999999955-6.600000000000023 27.100000000000023-14.100000000000023 40.39999999999998-22 5.7999999999999545-3.300000000000068 10.399999999999977-6.600000000000023 10.399999999999977-7.100000000000023-0.39999999999997726-0.8000000000000682-2.1000000000000227-2.1000000000000227-3.2999999999999545-2.900000000000034-1.3000000000000682-0.39999999999997726-2.1000000000000227-0.8000000000000114-2.8999999999999773-1.1999999999999886-58.700000000000045-27.5-116.90000000000009-55.39999999999998-175.10000000000002-82.39999999999998 17 33.299999999999955 26.199999999999932 69.5 26.199999999999932 107.29999999999995 0 14.200000000000045-1.2999999999999545 27.899999999999977-3.7999999999999545 41.200000000000045 37-6.300000000000068 73.20000000000005-16.600000000000023 108.10000000000002-32.89999999999998z m-159.70000000000005-162.20000000000005c76.60000000000002 36.60000000000002 153.5 72.80000000000001 230.39999999999998 109 4.2000000000000455 2.1000000000000227 6.7000000000000455 2.1000000000000227 9.600000000000023-1.3000000000000114 4.600000000000023-5.800000000000011 10-11.199999999999989 15-17 39.89999999999998-49.5 40.80000000000007-113.19999999999999 2.1000000000000227-163.89999999999998-27.899999999999977-36.60000000000002-64.89999999999998-60.30000000000001-106.5-78.20000000000002-48.200000000000045-20.799999999999983-98.5-31.19999999999999-150.5-34.5-74.10000000000002-4.599999999999994-146 5-215.10000000000002 34.099999999999994-8.299999999999955 3.3000000000000114-17 7.5-25.399999999999977 12.100000000000023 102.29999999999995 21.599999999999966 188 72.30000000000001 240.39999999999998 139.7z m285.80000000000007 77.39999999999998c-0.5 0.4000000000000341-3.400000000000091 5-6.300000000000068 11.200000000000045-5.399999999999977 10-10.399999999999977 20-16.600000000000023 29.099999999999966-21.59999999999991 30.80000000000001-52 51.19999999999999-85.69999999999993 67.00000000000006-42.39999999999998 20.299999999999955-86.89999999999998 32-132.20000000000005 37.39999999999998-6.699999999999932 23.299999999999955-17.5 45.299999999999955-31.199999999999932 66.10000000000002 19.59999999999991-1.7000000000000455 39.09999999999991-4.600000000000023 58.59999999999991-8.700000000000045 58.30000000000007-12.100000000000023 111.90000000000009-33.700000000000045 156.9000000000001-73.20000000000005 27.799999999999955-24.199999999999932 48.19999999999993-52.799999999999955 54.5-89.79999999999995 1.1999999999999318-8.800000000000011 1.599999999999909-17.899999999999977 2-26.69999999999999 0.39999999999997726-7 0.39999999999997726-12.400000000000034 0-12.400000000000034z"/>
</svg>
