<svg xmlns="http://www.w3.org/2000/svg" viewBox="0 0 1000 1000" width="1000" height="1000">
<path d="M912.3 242.7h-149.19999999999993c-9.600000000000023 0-17.5-7.799999999999983-17.5-17.5v-146.1c0-9.699999999999989-7.899999999999977-17.599999999999994-17.600000000000023-17.599999999999994h-456.1c-9.699999999999989 0-17.49999999999997 7.900000000000006-17.49999999999997 17.599999999999994v146.1c0 9.700000000000017-7.900000000000006 17.5-17.599999999999994 17.5h-149.10000000000002c-48.39999999999999 0-87.69999999999999 39.400000000000034-87.69999999999999 87.80000000000001v497.1c0 48.39999999999998 39.2 87.69999999999993 87.7 87.69999999999993h42.3v4.5c0 10.100000000000023 15.599999999999994 18.40000000000009 35 18.40000000000009h141.8c19.399999999999977 0 35-8.300000000000068 35-18.40000000000009v-4.5h330.40000000000003v4.5c0 10.100000000000023 15.799999999999955 18.40000000000009 35.09999999999991 18.40000000000009h141.80000000000007c19.299999999999955 0 35.10000000000002-8.300000000000068 35.10000000000002-18.40000000000009v-4.5h28.09999999999991c48.40000000000009 0 87.70000000000005-39.19999999999993 87.70000000000005-87.69999999999993v-497.20000000000005c0-48.299999999999955-39.299999999999955-87.69999999999999-87.70000000000005-87.69999999999999z m-508.79999999999995-78.79999999999998c0-9.700000000000017 7.899999999999977-17.599999999999994 17.5-17.599999999999994h157.89999999999998c9.800000000000068 0 17.600000000000023 7.899999999999977 17.600000000000023 17.599999999999994v61.29999999999998c0 9.700000000000017-7.7999999999999545 17.5-17.600000000000023 17.5h-36.69999999999993v-0.5c0-9.599999999999994-7.900000000000091-17.5-17.5-17.5h-49.80000000000007c-9.699999999999989 0-17.5 7.900000000000006-17.5 17.5v0.5h-36.39999999999998c-9.600000000000023 0-17.5-7.799999999999983-17.5-17.5v-61.29999999999998z m230.20000000000005 455.70000000000005c0 4.699999999999932-3.800000000000068 8.5-8.600000000000023 8.5h-71.10000000000002c-4.7999999999999545 0-8.600000000000023 3.7999999999999545-8.600000000000023 8.5v71.29999999999995c0 4.7000000000000455-3.7999999999999545 8.5-8.5 8.5h-59.599999999999966c-4.800000000000011 0-8.600000000000023-3.7999999999999545-8.600000000000023-8.5v-71.29999999999995c0-4.7000000000000455-3.8000000000000114-8.5-8.5-8.5h-71.30000000000001c-4.699999999999989 0-8.399999999999977-3.800000000000068-8.399999999999977-8.5v-59.700000000000045c0-4.600000000000023 3.8000000000000114-8.5 8.399999999999977-8.5h71.30000000000001c4.699999999999989 0 8.5-3.699999999999932 8.5-8.5v-71.19999999999999c0-4.699999999999989 3.8000000000000114-8.5 8.600000000000023-8.5h59.599999999999966c4.7000000000000455 0 8.5 3.8000000000000114 8.5 8.5v71.19999999999999c0 4.800000000000068 3.800000000000068 8.5 8.600000000000023 8.5h71.10000000000002c4.7999999999999545 0 8.600000000000023 3.8999999999999773 8.600000000000023 8.5v59.700000000000045z"/>
</svg>
