<svg xmlns="http://www.w3.org/2000/svg" viewBox="0 0 1000 1000" width="1000" height="1000">
<path d="M500.6 0c14.699999999999932 92.5 53.60000000000002 175.2 100.60000000000002 254.4 30.299999999999955 50.99999999999997 62.39999999999998 101.1 93.39999999999998 151.79999999999998 39.69999999999993 64.90000000000003 77.10000000000002 130.90000000000003 96.69999999999993 205.3 38.60000000000002 146.29999999999995-25.299999999999955 291.79999999999995-157 357-183.89999999999998 91.20000000000005-404.49999999999994-25-433.4-228.39999999999998-9.799999999999983-68.80000000000007 5.300000000000011-133.60000000000002 32.10000000000002-196.60000000000002 32.80000000000001-77.19999999999999 79.30000000000001-146.60000000000002 123.30000000000001-217.39999999999998 43.80000000000001-70.50000000000003 86.89999999999998-141.40000000000003 115.59999999999997-219.90000000000003 12.800000000000011-34.499999999999986 21.5-69.99999999999999 28.700000000000045-106.19999999999999z m76.69999999999993 913.3c62.200000000000045 0.20000000000004547 129.4000000000001-60.59999999999991 137.70000000000005-124.59999999999991 7.100000000000023-54.5-28.399999999999977-90.20000000000005-82.39999999999998-82.80000000000007-62.10000000000002 8.600000000000023-119.70000000000005 70.20000000000005-124.40000000000003 132.89999999999998-3.099999999999966 42.80000000000007 26.099999999999966 74.30000000000007 69.09999999999997 74.5z m-177.99999999999994-410.9c0.8999999999999773-30.69999999999999-17.900000000000034-45.89999999999998-40.69999999999999-37.099999999999966-24.30000000000001 9.5-42.10000000000002 41.89999999999998-36.80000000000001 67.40000000000003 4.5 22.09999999999991 23.69999999999999 31.699999999999932 43.69999999999999 21 21.899999999999977-11.600000000000023 31.80000000000001-31.200000000000045 33.80000000000001-51.30000000000007z"/>
</svg>
