<svg xmlns="http://www.w3.org/2000/svg" viewBox="0 0 1000 1000" width="1000" height="1000">
<path d="M607.9 496.4c-79.89999999999998-96.79999999999995-158.59999999999997-194.59999999999997-239.2-290.79999999999995-31.30000000000001-37.400000000000034-106.59999999999997-28.400000000000034-130.2 13.799999999999983-32.5 58.099999999999994-64.30000000000001 116.6-96.30000000000001 174.99999999999997-6.399999999999977 11.700000000000045-13.599999999999994 23.100000000000023-11.399999999999977 37.400000000000034 8.5 53.80000000000001 16.19999999999999 107.80000000000001 25.899999999999977 161.49999999999994 3.8000000000000114 21.200000000000045 18.80000000000001 31.700000000000045 41.20000000000002 28.100000000000023 21.799999999999983-3.5 32.900000000000006-16.299999999999955 31.19999999999999-38.799999999999955-0.799999999999983-10.600000000000023-1.5-21.399999999999977-4.299999999999983-31.600000000000023-19.600000000000023-71.39999999999998-17.100000000000023-139 35.30000000000001-198.39999999999998 0 50.39999999999998-1.900000000000034 101.19999999999999 0.5 151.79999999999995 2.6999999999999886 59.60000000000002-8.300000000000011 115.89999999999998-27.400000000000034 172-28.299999999999983 82.89999999999998-54.29999999999998 166.60000000000002-80 250.39999999999998-14.399999999999977 46.700000000000045 17.700000000000017 81.30000000000007 63.80000000000001 71 26.19999999999999-5.899999999999977 34.400000000000006-27.59999999999991 42.10000000000002-48.89999999999998 32.89999999999998-91.19999999999993 63-183.5 98.59999999999997-273.69999999999993 24.5-62 32.30000000000001-124.5 33.19999999999999-190.60000000000002 0.8000000000000114-60.10000000000002-4.699999999999989-113.5-54.099999999999966-153.90000000000003-3.1000000000000227-2.5-5.5-5.899999999999977-7.800000000000011-9.099999999999966-4.399999999999977-6-5.699999999999989-13 0.19999999999998863-17.900000000000034 6.900000000000034-5.699999999999989 12.199999999999989 0.6999999999999886 16.600000000000023 5.300000000000011 8.300000000000011 8.699999999999989 16.19999999999999 17.80000000000001 24 26.899999999999977 58.5 69.20000000000005 117.59999999999997 138.10000000000002 175.49999999999994 208.10000000000002 18 21.799999999999955 38.60000000000002 31.799999999999955 61.90000000000009 14.700000000000045 24.299999999999955-18 18.699999999999932-40.5 0.6999999999999318-62.30000000000007z m-205.29999999999995 139.80000000000007l-10.200000000000045 1.3999999999999773c-14 41.19999999999993-45 85.5-38.19999999999999 122.89999999999998 13.600000000000023 74.70000000000005 41 148.5 75.69999999999999 217.29999999999995 13.300000000000011 26.40000000000009 41.5 26.600000000000023 66.90000000000003 13.800000000000068 25.099999999999966-12.600000000000023 33.599999999999966-33.30000000000007 23.099999999999966-60-39-98.39999999999998-78.19999999999999-196.80000000000007-117.29999999999995-295.4z m-88.80000000000001-488.1c43.80000000000001-0.10000000000002274 75.80000000000001-32.00000000000003 75.39999999999998-75.10000000000002-0.5-43.6-31.899999999999977-73.4-77.19999999999999-73-43.60000000000002 0.3-77 33.2-76.19999999999999 74.8 0.8999999999999773 42.2 34.19999999999999 73.50000000000001 78 73.3z m540.0999999999999 808l-195.39999999999986-339.1c-6-10.299999999999955-11.799999999999955-20.799999999999955-18.5-30.700000000000045-4.100000000000023-6.199999999999932-8.799999999999955-15.199999999999932-18.399999999999977-8.399999999999977-6.899999999999977 4.800000000000068-3.1000000000000227 12.300000000000068-0.8000000000000682 18.300000000000068 2.300000000000068 6.099999999999909 6 11.799999999999955 9.300000000000068 17.5 68.5 118.79999999999995 137 237.5 205.60000000000002 356.19999999999993 4.599999999999909 8 9.5 16 15.199999999999932 23.300000000000068 3.5 4.5 9.5 5.399999999999977 14 1.3999999999999773 2.5-2.2000000000000455 3.2000000000000455-6.5 4.600000000000023-9.600000000000023-5.399999999999977-10.200000000000045-10.299999999999955-19.700000000000045-15.600000000000023-28.899999999999977z"/>
</svg>
