<svg xmlns="http://www.w3.org/2000/svg" viewBox="0 0 1000 1000" width="1000" height="1000">
<path d="M334.6 541.1c6.099999999999966-70.5 63.5-128.10000000000002 142.7-154.3 26.599999999999966-8.900000000000034 53.80000000000001-25.30000000000001 73.19999999999999-45.69999999999999 62.799999999999955-65.70000000000005 194.60000000000002-75.60000000000002 273.1-17-30.300000000000068-37.700000000000045-75.70000000000005-67.5-129.80000000000007-85.10000000000002-31.59999999999991-10.300000000000011-64-29.5-87.09999999999991-53.30000000000001-102.60000000000002-105.79999999999998-361.00000000000006-88.1-395.20000000000005 92.19999999999999-98.6 14.700000000000045-186.4 51.400000000000034-207.5 160.5-22.2 115 50.7 177.60000000000002 159.9 224.10000000000002-30.400000000000006 72.60000000000002-59.30000000000001 141.39999999999998-89 212.20000000000005 86.19999999999999-11.800000000000068 163.6-48.30000000000007 231.49999999999997-107.60000000000002 15.300000000000011-13.399999999999977 38.400000000000034-28.800000000000068 56.200000000000045-26.899999999999977 33.69999999999999 3.699999999999932 66.29999999999995 4 98.09999999999997 1.599999999999909-8.199999999999989-5.2999999999999545-16.399999999999977-10.599999999999909-24.599999999999966-16.299999999999955-67-47.10000000000002-108.60000000000002-100.20000000000005-101.5-184.39999999999998z m612.6 338.29999999999995c-21-50.799999999999955-41.30000000000007-100.10000000000002-62.80000000000007-152.19999999999993 77-33.40000000000009 128.5-78.30000000000007 112.80000000000007-160.70000000000005-14.900000000000091-78.30000000000001-76.80000000000007-104.60000000000002-146.4000000000001-115.19999999999999-24.09999999999991-129.2-206.39999999999998-142-278.69999999999993-66.10000000000002-16.300000000000068 17.100000000000023-39.10000000000002 30.900000000000034-61.5 38.30000000000001-66.30000000000001 22-114.5 70.30000000000001-119.5 129.39999999999998-6 70.5 28.799999999999955 115.10000000000002 85 154.5 82.29999999999995 57.700000000000045 168.5 86.39999999999998 268.19999999999993 75.5 12.5-1.2999999999999545 28.800000000000068 9.700000000000045 39.60000000000002 19.300000000000068 47.89999999999998 42.5 102.39999999999998 68.69999999999993 163.30000000000007 77.19999999999993z"/>
</svg>
