<svg xmlns="http://www.w3.org/2000/svg" viewBox="0 0 1000 1000" width="1000" height="1000">
<path d="M582.8 741.6c-32.69999999999993 80.60000000000002-111.69999999999993 137.69999999999993-203.99999999999994 137.69999999999993-121.40000000000003 0-220.10000000000002-98.79999999999995-220.10000000000002-220.0999999999999 0-86 49.70000000000002-160.40000000000003 121.80000000000001-196.60000000000002v-129.60000000000002c-140.1 42.30000000000001-242.5 172.5-242.5 326.20000000000005 0 187.89999999999998 152.9 340.79999999999995 340.8 340.79999999999995 134.59999999999997 0 250.7-78.60000000000002 305.99999999999994-192.20000000000005l-35.5-66.29999999999995-66.5 0.10000000000002274z m348.80000000000007 107.19999999999993h-63.700000000000045l-122.39999999999998-228.39999999999998c-4.5-8.299999999999955-12.5-13.299999999999955-21.100000000000023-14.899999999999977-5.5-6.7999999999999545-13.600000000000023-11.299999999999955-23-11.299999999999955h-248.59999999999997v-128.50000000000006h214.99999999999994c16.5 0 30.200000000000045-13.599999999999966 30.200000000000045-30.19999999999999v-29.5c0-16.600000000000023-13.600000000000023-30.19999999999999-30.200000000000045-30.19999999999999h-214.99999999999994v-146.5c52.80000000000001-10.800000000000011 92.49999999999994-57.5 92.49999999999994-113.4 0-64-51.799999999999955-115.9-115.79999999999995-115.9s-115.80000000000001 51.9-115.80000000000001 115.9c0 35.099999999999994 16 66.29999999999998 40.69999999999999 87.4-0.2999999999999545 1.799999999999983-1.099999999999966 3.299999999999983-1.099999999999966 5.199999999999989v444.20000000000005c0 16.59999999999991 13.599999999999966 30.199999999999932 30.19999999999999 30.199999999999932h294.79999999999995l121.5 226.60000000000002c3.900000000000091 7.2999999999999545 10.400000000000091 12.200000000000045 17.600000000000023 14.5 5.5 7.899999999999977 14.200000000000045 13.399999999999977 24.5 13.399999999999977h89.60000000000002c16.5 0 30.200000000000045-13.5 30.200000000000045-30.199999999999932v-28.200000000000045c0-16.600000000000023-13.600000000000023-30.200000000000045-30.100000000000023-30.200000000000045z"/>
</svg>
