<svg xmlns="http://www.w3.org/2000/svg" viewBox="0 0 1000 1000" width="1000" height="1000">
<path d="M716.4 783.7h-14.299999999999955c-38 0-69-31.100000000000023-69-69v-127.70000000000005h-118.5c-37.900000000000034 0-69-31-69-68.89999999999998v-131.90000000000003c0-37.89999999999998 31.099999999999966-68.89999999999998 69-68.89999999999998h63.19999999999993l-105.09999999999997-241.20000000000002c-7.599999999999966-17.499999999999993-20-17.499999999999993-27.5 0l-108.89999999999998 249.70000000000002c-7.5 17.399999999999977-29.19999999999999 33.099999999999966-48.10000000000002 34.89999999999998l-271.09999999999997 26.400000000000034c-18.900000000000023 1.7999999999999545-22.700000000000024 13.599999999999966-8.500000000000023 26.19999999999999l203.9 180.59999999999997c14.099999999999994 12.600000000000023 22.400000000000006 38.10000000000002 18.30000000000001 56.60000000000002l-58.70000000000002 266c-4.099999999999994 18.5 5.900000000000006 25.799999999999955 22.30000000000001 16.200000000000045l234.79999999999998-138.10000000000002c16.400000000000034-9.600000000000023 43.10000000000002-9.600000000000023 59.400000000000034 0l234.89999999999998 138.10000000000002c16.299999999999955 9.599999999999909 26.299999999999955 2.2999999999999545 22.299999999999955-16.200000000000045l-29.399999999999977-132.79999999999995z m249.10000000000002-398.40000000000003h-132.79999999999995v-130.60000000000002c0-18.899999999999977-15.5-34.39999999999998-34.5-34.39999999999998h-65c-19 0-34.5 15.5-34.5 34.39999999999998v130.60000000000002h-129.70000000000005c-19 0-34.5 15.5-34.5 34.39999999999998v65c0 19 15.5 34.50000000000006 34.5 34.50000000000006h129.70000000000005l0 132.0999999999999c0 19 15.5 34.5 34.39999999999998 34.5h65.19999999999993c18.90000000000009 0 34.5-15.5 34.5-34.5l-0.09999999999990905-132.0999999999999h132.79999999999995c19 0 34.5-15.500000000000057 34.5-34.50000000000006v-65c0-18.899999999999977-15.5-34.39999999999998-34.5-34.39999999999998z"/>
</svg>
