<svg xmlns="http://www.w3.org/2000/svg" viewBox="0 0 1000 1000" width="1000" height="1000">
<path d="M766.8 978.7c-14.399999999999977 0-28.899999999999977-4.300000000000068-43-12.5l-219.89999999999998-129.30000000000007c0.7000000000000455 0.39999999999997726-1.1999999999999886-0.10000000000002274-3.8999999999999773-0.10000000000002274s-4.5 0.5-5 0.6000000000000227l-218.7 128.70000000000005c-34.80000000000001 20.5-74.5 14.399999999999977-96.10000000000002-12.5-8.199999999999989-10.200000000000045-20.799999999999983-32.5-13.199999999999989-66.80000000000007l55-249.0999999999999c-0.09999999999999432-1.2000000000000455-1.6999999999999886-6.300000000000068-3.3000000000000114-8.200000000000045l-190-168.39999999999998c-24.79999999999999-22-34.39999999999999-51.60000000000002-25.399999999999988-79.20000000000005 9-27.599999999999966 34.099999999999994-46 67.2-49.19999999999999l253.89999999999998-24.69999999999999c1.1000000000000227-0.39999999999997726 5.400000000000034-3.6000000000000227 6.7000000000000455-5.600000000000023l101.39999999999998-232.7c13.199999999999989-30.499999999999986 38.5-48.69999999999999 67.5-48.69999999999999s54.299999999999955 18.200000000000003 67.5 48.7l101.89999999999998 233.8c0.8000000000000682 0.8999999999999773 5.100000000000023 4.100000000000023 7.399999999999977 4.699999999999989l252.80000000000007 24.5c33 3.1999999999999886 58.10000000000002 21.600000000000023 67.10000000000002 49.19999999999999 9 27.600000000000023-0.6000000000000227 57.200000000000045-25.5 79.30000000000001l-190.80000000000007 169.2c-0.6999999999999318 1-2.2999999999999545 6.100000000000023-2.199999999999932 8.5l54.799999999999955 247.89999999999998c7.600000000000023 34.30000000000007-5 56.60000000000002-13.200000000000045 66.80000000000007-12.799999999999955 15.899999999999977-32.19999999999993 25.100000000000023-53 25.100000000000023z m-592.8-541.3000000000001l121.30000000000001 107.5c31.099999999999966 27.5 47.099999999999966 76.89999999999998 38.19999999999999 117.39999999999998l-35 158.30000000000007 139.8-82.10000000000002c22.19999999999999-13.100000000000023 45.80000000000001-15.899999999999977 61.69999999999999-15.899999999999977s39.39999999999998 2.7999999999999545 61.700000000000045 15.799999999999955l139.79999999999995 82.20000000000005-35-158.30000000000007c-9-40.5 7.100000000000023-89.89999999999998 38.200000000000045-117.39999999999998l121.29999999999995-107.5-161.39999999999998-15.699999999999989c-41.30000000000007-4-83.30000000000007-34.5-99.89999999999998-72.59999999999997l-64.70000000000005-148.60000000000002-64.80000000000001 148.60000000000002c-16.5 38.099999999999966-58.5 68.59999999999997-99.89999999999998 72.59999999999997l-161.3 15.699999999999989z"/>
</svg>
