<svg xmlns="http://www.w3.org/2000/svg" viewBox="0 0 1000 1000" width="1000" height="1000">
<path d="M715.8 0h-431.29999999999995c-47.80000000000001 0-87 39.2-87 87v826c0 47.799999999999955 39.19999999999999 87 87 87h431.29999999999995c47.90000000000009 0 87-39.200000000000045 87-87v-826c0-47.8-39.09999999999991-87-87-87z m-286.79999999999995 35.9h142.39999999999998c7.2000000000000455 0 13 4 13 8.800000000000004 0 4.799999999999997-5.899999999999977 8.799999999999997-13 8.799999999999997h-142.39999999999998c-7.199999999999989 0-13-4-13-8.799999999999997-0.10000000000002274-4.900000000000006 5.800000000000011-8.800000000000004 13-8.800000000000004z m71.19999999999999 920c-37.19999999999999 0-67.30000000000001-30.199999999999932-67.30000000000001-67.29999999999995 0-37.10000000000002 30.100000000000023-67.30000000000007 67.30000000000001-67.30000000000007s67.30000000000001 30.200000000000045 67.30000000000001 67.30000000000007c0 37.19999999999993-30.100000000000023 67.29999999999995-67.30000000000001 67.29999999999995z m252.8-205.79999999999995c0 23.899999999999977-19.600000000000023 43.5-43.5 43.5h-418.7c-23.900000000000034 0-43.5-19.600000000000023-43.5-43.5v-619.9000000000001c0-23.899999999999935 19.599999999999966-43.49999999999993 43.5-43.49999999999993h418.7c23.899999999999977 0 43.5 19.599999999999994 43.5 43.499999999999986v619.9000000000001z"/>
</svg>
