<svg xmlns="http://www.w3.org/2000/svg" viewBox="0 0 1000 1000" width="1000" height="1000">
<path d="M811.3 563.6c-51.39999999999998 0-98 20.699999999999932-132 54.19999999999993l-82.29999999999995-117.99999999999994 214-307c29.700000000000045-42.60000000000002 25.200000000000045-97.50000000000001-9.899999999999977-121.9-35.200000000000045-24.60000000000001-88.20000000000005-9.700000000000003-117.89999999999998 32.89999999999999l-181.10000000000002 259.8-181.10000000000002-259.8c-29.69999999999999-42.60000000000001-82.69999999999999-57.500000000000014-117.9-32.900000000000006-35.19999999999999 24.39999999999999-39.5 79.29999999999998-9.799999999999983 121.9l213.8 307-83.90000000000003 120.49999999999994c-34.19999999999999-34.89999999999998-81.79999999999998-56.69999999999993-134.5-56.69999999999993-104.1 0-188.7 84.79999999999995-188.7 188.79999999999995s84.7 188.70000000000005 188.7 188.70000000000005c11.900000000000006 0 23.600000000000023-1.2000000000000455 34.900000000000006-3.300000000000068 33.00000000000003 8.800000000000068 73.1-7 97.4-42l181.10000000000002-259.69999999999993 142.29999999999995 204c7.100000000000023 13.600000000000023 15.899999999999977 26.100000000000023 26 37.5l12.800000000000068 18.199999999999932c24 34.5 63.09999999999991 50.30000000000007 95.89999999999998 42.40000000000009 10.399999999999977 1.7999999999999545 21.199999999999932 2.8999999999999773 32.19999999999993 2.8999999999999773 104.10000000000002 0 188.70000000000005-84.60000000000002 188.70000000000005-188.70000000000005s-84.60000000000002-188.79999999999995-188.70000000000005-188.79999999999995z m-622.5999999999999 277.6c-48.900000000000034 0-88.80000000000004-39.80000000000007-88.80000000000004-88.80000000000007s39.900000000000006-88.79999999999995 88.79999999999998-88.79999999999995 88.80000000000001 39.89999999999998 88.80000000000001 88.79999999999995c0 49-39.80000000000001 88.80000000000007-88.80000000000001 88.80000000000007z m311.29999999999995-262c-32.80000000000001 0-59.39999999999998-26.600000000000023-59.39999999999998-59.40000000000009 0-32.799999999999955 26.599999999999966-59.49999999999994 59.39999999999998-59.49999999999994 32.799999999999955 0 59.5 26.69999999999999 59.5 59.49999999999994 0 32.80000000000007-26.700000000000045 59.40000000000009-59.5 59.40000000000009z m311.29999999999995 262c-49 0-88.79999999999995-39.80000000000007-88.79999999999995-88.80000000000007s39.799999999999955-88.79999999999995 88.79999999999995-88.79999999999995 88.80000000000007 39.89999999999998 88.80000000000007 88.79999999999995c0 49-39.89999999999998 88.80000000000007-88.80000000000007 88.80000000000007z"/>
</svg>
