<svg xmlns="http://www.w3.org/2000/svg" viewBox="0 0 1000 1000" width="1000" height="1000">
<path d="M891.5 23h-783c-59.7 0-108.5 48.8-108.5 108.5v466.20000000000005c0 59.59999999999991 48.8 108.5 108.5 108.5h222.39999999999998v270.5999999999999l270.6-270.5999999999999h290c59.60000000000002 0 108.5-48.90000000000009 108.5-108.5v-466.20000000000005c0-59.7-48.89999999999998-108.5-108.5-108.5z m-659.5 440.2c-51.099999999999994 0-92.5-41.39999999999998-92.5-92.5 0-51.099999999999966 41.400000000000006-92.5 92.5-92.5 51.10000000000002 0 92.5 41.400000000000034 92.5 92.5 0 51.10000000000002-41.39999999999998 92.5-92.5 92.5z m268 0c-51.10000000000002 0-92.5-41.39999999999998-92.5-92.5 0-51.099999999999966 41.39999999999998-92.5 92.5-92.5 51.10000000000002 0 92.5 41.400000000000034 92.5 92.5 0 51.10000000000002-41.39999999999998 92.5-92.5 92.5z m268 0c-51.10000000000002 0-92.60000000000002-41.39999999999998-92.60000000000002-92.5 0-51.099999999999966 41.5-92.5 92.60000000000002-92.5 51 0 92.39999999999998 41.400000000000034 92.39999999999998 92.5 0 51.10000000000002-41.39999999999998 92.5-92.39999999999998 92.5z"/>
</svg>
