<svg xmlns="http://www.w3.org/2000/svg" viewBox="0 0 1000 1000" width="1000" height="1000">
<path d="M0 960.4c27.8-95.39999999999998 55.5-190.79999999999995 83.3-286.19999999999993 2.200000000000003-7.600000000000023 4.5-15.200000000000045 6.5-22.800000000000068 3.200000000000003-11.5 9.200000000000003-20.799999999999955 18.400000000000006-28.5 8.599999999999994-7.100000000000023 16.200000000000003-15.600000000000023 24.10000000000001-23.5 130.3-129.09999999999997 260.59999999999997-258.2 390.8-387.4 3-3 5.600000000000023-6.400000000000006 7.699999999999932-9 17.700000000000045 17.80000000000001 34.30000000000007 34.5 52.80000000000007 53.10000000000002-2 1.3999999999999773-5.899999999999977 3.3999999999999773-8.899999999999977 6.399999999999977-135.00000000000006 134.7-269.90000000000003 269.4-404.6 404.4-4.800000000000011 4.899999999999977-8.800000000000011 11.600000000000023-10.700000000000017 18.200000000000045-16.200000000000017 53.5-31.60000000000001 107.29999999999995-47.60000000000001 161-2 6.699999999999932-1 10.899999999999977 4.1000000000000085 15.5 8.299999999999997 7.5 15.599999999999994 16.100000000000023 24 23.5 2.9000000000000057 2.5 8.400000000000006 4.399999999999977 11.900000000000006 3.5 53.79999999999998-15.399999999999977 107.5-31.100000000000023 161.09999999999997-47.30000000000007 4.600000000000023-1.3999999999999773 8.900000000000034-5.2999999999999545 12.5-9 136.90000000000003-136.5 273.6-273.19999999999993 410.30000000000007-409.79999999999995 2.599999999999909-2.6000000000000227 4.7999999999999545-5.5 6.2999999999999545-7.199999999999989 19.399999999999977 19.399999999999977 38.200000000000045 38.19999999999999 58.799999999999955 58.80000000000001-0.8999999999999773 0.5999999999999659-4.5 2.099999999999966-7 4.599999999999966-134.79999999999995 133.50000000000006-269.79999999999995 266.7-403.9 400.90000000000003-18.69999999999999 18.799999999999955-39 30.399999999999977-64.09999999999997 37.5-89 25.199999999999932-177.60000000000002 51.799999999999955-266.40000000000003 77.89999999999998-5.899999999999977 1.7000000000000455-11.899999999999977 3.2999999999999545-17.799999999999976 5h-8c-4.300000000000001-1.8999999999999773-8.700000000000003-3.6000000000000227-13-5.600000000000023-12.000000000000002-5.600000000000023-16.1-17-20.6-28.100000000000023v-5.899999999999977z m268.9-165.69999999999993c-2.599999999999966-16.600000000000023-5.399999999999977-31.800000000000068-7.199999999999989-47-0.8999999999999773-7.2000000000000455-3.8000000000000114-10.100000000000023-10.799999999999983-11.400000000000091-17.099999999999994-3.2999999999999545-34-7.599999999999909-49.80000000000001-11.099999999999909 141.79999999999998-142.10000000000002 283.6-284.30000000000007 424.5-425.6 22.5 22.5 46 45.89999999999998 68.69999999999993 68.5-140.39999999999998 140.79999999999995-282.09999999999997 282.9-425.4 426.6z m408.4-730.6c12.800000000000068-12.500000000000021 25.600000000000023-25.800000000000026 39.30000000000007-38.200000000000024 39.299999999999955-35.4 90.5-34.599999999999994 128.79999999999995 2.8000000000000007 42.30000000000007 41.2 84 82.89999999999999 125.20000000000005 125.2 39 39.900000000000006 38.39999999999998 93.29999999999998-0.5 133.1-11.700000000000045 12-23.800000000000068 23.69999999999999-35 34.69999999999999-85.60000000000002-85.5-171.10000000000002-170.89999999999998-257.80000000000007-257.6z m-104.29999999999995 94.39999999999998c19.399999999999977-18.19999999999999 39.299999999999955-36.900000000000006 58.200000000000045-54.7 89.59999999999991 89.60000000000001 178.69999999999993 178.8 268.5999999999999 268.7-18.699999999999932 17.5-38.799999999999955 36.39999999999998-58.19999999999993 54.60000000000002l-268.6-268.6z"/>
</svg>
