<svg xmlns="http://www.w3.org/2000/svg" viewBox="0 0 1000 1000" width="1000" height="1000">
<path d="M980.7 746.2l-246.20000000000005-246.20000000000005 246.20000000000005-246.3c25.799999999999955-25.69999999999999 25.699999999999932-68 0-93.69999999999999l-140.70000000000005-140.7c-25.799999999999955-25.70000000000001-68-25.70000000000001-93.79999999999995-1.0658141036401503e-14l-246.10000000000002 246.3-246.3-246.3c-25.700000000000017-25.70000000000001-68-25.70000000000001-93.80000000000001-1.0658141036401503e-14l-140.7 140.7c-25.70000000000001 25.69999999999999-25.70000000000001 68-1.0658141036401503e-14 93.80000000000001l246.2 246.3-246.2 246.10000000000002c-25.70000000000001 25.799999999999955-25.70000000000001 68-1.0658141036401503e-14 93.79999999999995l140.7 140.60000000000002c25.69999999999999 25.799999999999955 68 25.799999999999955 93.80000000000001 0l246.2-246.10000000000002 246.20000000000005 246.20000000000005c25.799999999999955 25.699999999999932 68 25.699999999999932 93.79999999999995-0.10000000000002274l140.70000000000005-140.60000000000002c25.799999999999955-25.799999999999955 25.799999999999955-68.10000000000002 0-93.79999999999995z"/>
</svg>
