<svg xmlns="http://www.w3.org/2000/svg" viewBox="0 0 1000 1000" width="1000" height="1000">
<path d="M917.7 273.5c-8.100000000000023 9.100000000000023-18.5 13.800000000000011-31 10.800000000000011-13.100000000000023-3.1000000000000227-21.300000000000068-11.699999999999989-23.5-25.100000000000023-3.6000000000000227-21.69999999999999-9.300000000000068-42.69999999999999-18.300000000000068-62.89999999999998-40.19999999999993-89.9-137.10000000000002-144.9-234.79999999999995-133-10.899999999999977 1.299999999999983-21.399999999999977 1.5999999999999943-30.399999999999977-6.000000000000014-9.800000000000068-8.399999999999999-13.600000000000023-19.099999999999994-10.200000000000045-31.499999999999996 3.3999999999999773-12.600000000000001 11.899999999999977-20.6 25-22.6 24.5-3.7999999999999994 49.10000000000002-4.199999999999999 73.70000000000005-1.3999999999999992 63 7.3 118.19999999999993 32.300000000000004 164.69999999999993 75.2 50 46.099999999999994 80.10000000000002 103.19999999999999 90.5 170.5 1.5 9.399999999999977-0.10000000000002274 17.899999999999977-5.699999999999932 26z m-161.60000000000002-141.1c42.10000000000002 32.5 67.89999999999998 75.29999999999998 76.39999999999998 128.29999999999998 3 18.5-7.899999999999977 34.19999999999999-25.200000000000045 36.900000000000034-17.5 2.7999999999999545-32.19999999999993-8.5-35.5-27.200000000000045-13.299999999999955-75.99999999999997-76.5-123.49999999999997-153.89999999999998-115.79999999999998-15.600000000000023 1.5999999999999943-26.899999999999977-3.9000000000000057-33.19999999999993-16-5.7000000000000455-11-4.2000000000000455-24.5 3.8999999999999773-34.19999999999999 5.399999999999977-6.400000000000006 12.5-9.600000000000009 20.699999999999932-10.600000000000009 54-6.700000000000003 102.80000000000007 6.1000000000000085 146.80000000000007 38.60000000000001z m-33.700000000000045 216.70000000000002c10.100000000000023 72-0.6000000000000227 137.09999999999997-61.299999999999955 185.89999999999998-43.60000000000002 35.10000000000002-59.30000000000007 35.39999999999998-103.20000000000005 2.2999999999999545-52.69999999999999-39.69999999999993-104.89999999999998-80.09999999999997-158.79999999999995-118.19999999999993-21.700000000000045-15.300000000000011-25.600000000000023-32-20-56 16.799999999999955-71.40000000000003 61.299999999999955-116.60000000000002 131-133.8 66.29999999999995-16.30000000000001 124.79999999999995 2.1999999999999886 171 53.80000000000001 11.600000000000023 12.899999999999977 21.5 27.299999999999955 32.19999999999993 41 3.1000000000000227 8.399999999999977 6.100000000000023 16.69999999999999 9.100000000000023 25z m-377.79999999999995 108.69999999999999c70.19999999999999 52.599999999999966 137 102.69999999999999 207.89999999999998 155.8-125.10000000000002 129-248.2 255.89999999999998-374.7 386.4-33.60000000000002-23.899999999999977-66.4-47.39999999999998-102.20000000000002-72.89999999999998 89.6-156.5 177.9-310.5 269-469.3z"/>
</svg>
