<svg xmlns="http://www.w3.org/2000/svg" viewBox="0 0 1000 1000" width="1000" height="1000">
<path d="M499.8 918.7c-74.90000000000003 0-149.8-0.7000000000000455-224.7 0.1999999999999318-104.90000000000003 1.3999999999999773-164.40000000000003-82.10000000000002-160.70000000000002-160.5 3.3999999999999915-72.39999999999998 1.0999999999999943-145 0.3999999999999915-217.39999999999998-0.09999999999999432-16.100000000000023 3.6000000000000085-25.700000000000045 19.299999999999997-33.89999999999998 116.6-61.30000000000001 232.70000000000002-123.60000000000002 348.6-186.3 12.999999999999943-7.100000000000023 22.799999999999955-6.400000000000034 35.299999999999955 0.30000000000001137 116 62.5 232.20000000000005 124.79999999999995 348.70000000000005 186.29999999999995 14.399999999999977 7.5 18.799999999999955 16.100000000000023 18.699999999999932 31.800000000000068-0.8999999999999773 74.89999999999998-0.1999999999999318 149.79999999999995-0.39999999999997726 224.69999999999993-0.2999999999999545 89.10000000000002-63.89999999999998 153.70000000000005-153.29999999999995 154.70000000000005-77.30000000000007 0.7999999999999545-154.60000000000002 0.10000000000002274-231.90000000000003 0.10000000000002274z m436.59999999999997-478.70000000000005c-13.199999999999932-5.100000000000023-27.199999999999932-8.899999999999977-39.69999999999993-15.5-124.30000000000007-65.89999999999998-248.5-131.8-372.1-199.2-18.80000000000001-10.300000000000011-32.200000000000045-8.900000000000006-50.10000000000002 0.799999999999983-125.10000000000002 67.70000000000002-250.8 134.4-376.5 201.20000000000002-43.1 22.80000000000001-86.2 4.699999999999989-96.5-39.80000000000001-6.4-27.600000000000023 7.9-54.19999999999999 38.4-70.5 115.6-61.900000000000006 231.1-123.6 346.8-185.2 30.400000000000034-16.200000000000017 60.400000000000034-33.60000000000001 92.30000000000001-46.400000000000006 13.100000000000023-5.300000000000011 33.10000000000002-5.400000000000006 45.39999999999998 1 147.5 76.9 294.30000000000007 155.2 441 233.70000000000002 28.800000000000068 15.399999999999977 40.10000000000002 42.799999999999955 32.10000000000002 70.79999999999995-8.299999999999955 29.200000000000045-30.399999999999977 46.200000000000045-61.10000000000002 49.10000000000002z"/>
</svg>
