<svg xmlns="http://www.w3.org/2000/svg" viewBox="0 0 1000 1000" width="1000" height="1000">
<path d="M515.5 0c7.2999999999999545 5.6 15.899999999999977 10.2 21.600000000000023 17.1 16.399999999999977 20.1 11.100000000000023 49.49999999999999-11.300000000000068 64.5-5.399999999999977 3.700000000000003-7.2999999999999545 7.300000000000011-7.199999999999932 13.5 0.2999999999999545 19.400000000000006 0.10000000000002274 38.70000000000002 0.10000000000002274 57.5 194.69999999999993 22.80000000000001 329.5999999999999 121.6 377.69999999999993 313.6 44.30000000000007 176.79999999999995-19.199999999999932 321.29999999999995-161.60000000000002 433.5999999999999 13.100000000000023 13 26.40000000000009 26.300000000000068 39.90000000000009 39.60000000000002 9.399999999999977 9.300000000000068 13.599999999999909 20.399999999999977 10.799999999999955 33.60000000000002-5.7000000000000455 26.200000000000045-37 36-57.200000000000045 17.399999999999977-16.699999999999932-15.399999999999977-32.59999999999991-31.799999999999955-48.299999999999955-48.19999999999993-5.899999999999977-6.100000000000023-10.299999999999955-7.7000000000000455-18.899999999999977-4-107.60000000000002 45.39999999999998-215.3 45.09999999999991-322.70000000000005-0.7000000000000455-7.399999999999977-3.2000000000000455-11.199999999999989-1.7000000000000455-16.19999999999999 3.5-15.5 16.100000000000023-31.5 31.899999999999977-47.39999999999998 47.60000000000002-14.800000000000011 14.600000000000023-36.400000000000006 15.199999999999932-50.10000000000002 1.6000000000000227-13.899999999999977-13.800000000000068-13.399999999999977-34.90000000000009 1.3000000000000114-50 6.800000000000011-7 13.699999999999989-13.800000000000068 20.599999999999994-20.600000000000023 6.599999999999994-6.600000000000023 13.299999999999983-13.100000000000023 19.50000000000003-19.200000000000045-156.8-127.5-214.00000000000003-286.5-148.10000000000002-480.4 46.900000000000006-138 183.10000000000002-255.6 364.4-266.1 0-21.399999999999977 0.10000000000002274-42.99999999999997-0.19999999999998863-64.49999999999997 0-2-2.3000000000000114-4.700000000000003-4.199999999999989-5.700000000000003-31-15.900000000000006-31.899999999999977-64.6 4.100000000000023-81.4 0.8999999999999773-0.39999999999999725 1.3999999999999773-1.4999999999999971 2-2.299999999999997h31.399999999999977z m299.20000000000005 563c0.5-172.39999999999998-141.60000000000002-314.6-314.1-314.4-172.60000000000002 0.29999999999998295-313.40000000000003 140.79999999999995-314.3 313.4-0.9000000000000057 172.20000000000005 140.3 313.70000000000005 313.8 314.6 172.60000000000002 0.7999999999999545 314.1-140.30000000000007 314.6-313.6z m-812.2-334.5c3.8-17 6.1-34.5 11.6-51 27.6-82 83.9-134.7 168.5-151.8 87.20000000000002-17.599999999999987 160.20000000000002 11.20000000000001 217.79999999999998 79.00000000000001 1 1.0999999999999943 1.900000000000034 2.299999999999997 2.7000000000000455 3.5999999999999943 0.39999999999997726 0.6000000000000085 0.5 1.4000000000000057 1.099999999999966 2.9000000000000057-159.79999999999998 38.60000000000001-272.7 133-340.3 287.7-1.3999999999999773-3-2.299999999999976-6.399999999999977-4.399999999999977-8.799999999999955-30.7-35-48.4-75.80000000000001-54.5-121.70000000000005-0.5-3.599999999999966-1.6-7.099999999999966-2.4-10.699999999999989l-0.10000000000000009-29.19999999999999z m592.5-116.9c56.200000000000045-68.8 126-101 211.60000000000002-87.89999999999999 92.5 14.199999999999996 154.69999999999993 68.5 181.29999999999995 158.39999999999998 23.700000000000045 80.30000000000001 3.5 152.20000000000005-53.299999999999955 216.20000000000005-29.5-74.5-73.39999999999998-136.5-133.30000000000007-186.9-59.69999999999993-50.099999999999994-127.79999999999995-83.1-206.29999999999995-99.80000000000001z m-62.299999999999955 428h14.599999999999909c29.100000000000023 0 58.200000000000045-0.3000000000000682 87.40000000000009 0 18.299999999999955 0.1999999999999318 31.199999999999932 13.5 31.199999999999932 31.199999999999932 0.10000000000002274 18.300000000000068-13.100000000000023 31.800000000000068-31.699999999999932 31.90000000000009-44.40000000000009 0.1999999999999318-88.80000000000007 0.1999999999999318-133.30000000000007 0-19.299999999999955-0.10000000000002274-32.099999999999966-13-32.099999999999966-32.60000000000002-0.19999999999998863-67.90000000000003-0.10000000000002274-135.90000000000003 0-203.8 0-19.80000000000001 14.199999999999989-34.10000000000002 32.599999999999966-33.69999999999999 17.899999999999977 0.2999999999999545 31.300000000000068 14.599999999999966 31.399999999999977 33.89999999999998 0.10000000000002274 53 0 106 0 159-0.09999999999990905 4.2000000000000455-0.09999999999990905 8.600000000000023-0.09999999999990905 14.100000000000023z"/>
</svg>
