<svg xmlns="http://www.w3.org/2000/svg" viewBox="0 0 1000 1000" width="1000" height="1000">
<path d="M528.9 445.4v-117.59999999999997c0-33.80000000000001 27.700000000000045-61.400000000000034 61.5-61.400000000000034h228.20000000000005c-79.5-136.59999999999997-297.30000000000007-161.79999999999998-394.40000000000003 24.400000000000034-120.59999999999997-231.3-427.59999999999997-136.5-424.2 93 3.7 250.2 311.6 293.59999999999997 424.2 458.8v0.10000000000002274l0-0.10000000000002274c91.09999999999997-133.70000000000005 309.8-187.60000000000002 392.2-335.70000000000005h-226c-33.799999999999955 0-61.5-27.69999999999999-61.5-61.5z m440.30000000000007-127.39999999999998h-361.1c-16.899999999999977 0-30.700000000000045 13.899999999999977-30.700000000000045 30.80000000000001v75.59999999999997c0 16.900000000000034 13.800000000000068 30.80000000000001 30.700000000000045 30.80000000000001h361.1c17 0 30.799999999999955-13.899999999999977 30.799999999999955-30.80000000000001v-75.59999999999997c0-16.900000000000034-13.799999999999955-30.80000000000001-30.799999999999955-30.80000000000001z"/>
</svg>
