<svg xmlns="http://www.w3.org/2000/svg" viewBox="0 0 1000 1000" width="1000" height="1000">
<path d="M853.5 146.4c-195.20000000000005-195.2-511.8-195.2-707.1 0-195.2 195.29999999999998-195.2 511.9 2.842170943040401e-14 707.2 195.29999999999998 195.19999999999993 511.9 195.19999999999993 707.1 0 195.29999999999995-195.30000000000007 195.29999999999995-511.90000000000003 0-707.2z m-590.6 116.6c110.80000000000001-110.80000000000001 279.70000000000005-127.5 408.4-50.80000000000001l-459.09999999999997 459.09999999999997c-76.69999999999999-128.69999999999993-60-297.59999999999997 50.69999999999999-408.29999999999995z m474.1 474c-110.79999999999995 110.79999999999995-279.6 127.5-408.3 50.799999999999955l459.09999999999997-459.09999999999997c76.70000000000005 128.7 60 297.59999999999997-50.799999999999955 408.3z"/>
</svg>
