<svg xmlns="http://www.w3.org/2000/svg" viewBox="0 0 1000 1000" width="1000" height="1000">
<path d="M426.6 250c127.19999999999993 0 254.5 0 381.79999999999995 0 29.200000000000045 0 45.30000000000007 16.100000000000023 45.30000000000007 45.30000000000001 0 136.7 0 273.40000000000003 0 410.09999999999997 0 27.800000000000068-16.5 44.5-44.200000000000045 44.5-83.79999999999995-0.10000000000002274-167.70000000000005-0.2999999999999545-251.60000000000002-0.2999999999999545-69-0.10000000000002274-137.89999999999998 0-206.79999999999995 0-87.5 0.10000000000002274-175.00000000000003 0.1999999999999318-262.5 0.2999999999999545-15.600000000000023 0-31.200000000000024 0.10000000000002274-46.800000000000026 0-24.599999999999998-0.2999999999999545-41.599999999999994-17.199999999999932-41.699999999999996-41.89999999999998-0.10000000000000142-66.70000000000005-0.10000000000000142-133.5-0.10000000000000142-200.2 0-70.30000000000001 0-140.60000000000002 0-211 0-31.19999999999999 15.5-46.80000000000001 46.6-46.80000000000001 126.70000000000002 0 253.29999999999998 0 380 0z m-345.90000000000003 419.4h692.5v-338.79999999999995h-692.5v338.79999999999995z m833.0999999999999-270.9c18.800000000000068 0 37.200000000000045-2.1000000000000227 54.90000000000009 0.6000000000000227 18.299999999999955 2.6999999999999886 29.799999999999955 14.099999999999966 30.399999999999977 35.19999999999999 1.3999999999999773 43.599999999999966 0.8999999999999773 87.19999999999999 0.1999999999999318 130.8-0.2999999999999545 20-16.399999999999977 35.69999999999993-36.19999999999993 36.69999999999993-16.200000000000045 0.8000000000000682-32.39999999999998 0.20000000000004547-49.30000000000007 0.20000000000004547v-203.5z m-785.1999999999999-17.399999999999977h117.69999999999999v237.79999999999995h-117.70000000000002v-237.79999999999995z m609.8 237.79999999999995h-129.5v-238.29999999999995h129.5v238.29999999999995z m-105.29999999999995-24.299999999999955h81.10000000000002v-189.8h-81.10000000000002v189.8z m-62.10000000000002 24.299999999999955h-125v-238.29999999999995h125v238.29999999999995z m-100.80000000000001-24.299999999999955h76.50000000000006v-189.8h-76.50000000000006v189.8z m-182.7-213.5h117v237.69999999999993h-117v-237.69999999999993z"/>
</svg>
