<svg xmlns="http://www.w3.org/2000/svg" viewBox="0 0 1000 1000" width="1000" height="1000">
<path d="M454.4 750.4l2-2.1000000000000227c0.4000000000000341 1.8000000000000682-0.2999999999999545 2.5-2 2.1000000000000227z m545.6-390.09999999999997c-3.7999999999999545 8.800000000000011-6.5 18.19999999999999-11.399999999999977 26.30000000000001-16.700000000000045 27.599999999999966-56.80000000000007 36.39999999999998-82.70000000000005 17.299999999999955-21.399999999999977-15.799999999999955-40.60000000000002-34.5-61.89999999999998-50.39999999999998-111.10000000000002-83-236.10000000000002-121.4-374.6-114.1-137.59999999999997 7.199999999999989-257.29999999999995 58.400000000000006-358.79999999999995 151.79999999999998-16.200000000000017 14.900000000000034-33.800000000000026 24.900000000000034-56.700000000000024 21.900000000000034-27.099999999999998-3.6000000000000227-47.199999999999996-23-52-50.200000000000045-0.2999999999999985-1.599999999999966-1.1999999999999986-3.099999999999966-1.8999999999999986-4.699999999999989v-10.300000000000011c3.8-25 20.4-41.19999999999999 38.3-56.89999999999998 33.400000000000006-29.100000000000023 68.8-55.5 106.89999999999999-78.1 82.5-48.70000000000002 171.10000000000002-79.5 266.2-91.2 17.80000000000001-2.200000000000003 35.60000000000002-4.1000000000000085 53.30000000000001-6.200000000000003h70.59999999999997c4 0.7000000000000028 8 1.5999999999999943 12.100000000000023 2.0999999999999943 29.399999999999977 3.9000000000000057 59.200000000000045 5.900000000000006 88.20000000000005 11.700000000000017 116.39999999999998 23.099999999999994 220.19999999999993 73 311.1 149.39999999999998 21.799999999999955 18.30000000000001 45.299999999999955 35.400000000000034 53.299999999999955 65v16.600000000000023z m-136.79999999999995 145.5c-0.8000000000000682 26.30000000000001-12.800000000000068 45.69999999999999-37 56.099999999999966-25.200000000000045 10.800000000000068-47.30000000000007 3.5-68-13.199999999999932-24.700000000000045-19.800000000000068-49-40.900000000000034-76-57.00000000000006-66.90000000000009-39.89999999999998-140.30000000000007-54.89999999999998-217.90000000000003-47.30000000000001-84.80000000000001 8.200000000000045-157.8 42.700000000000045-219.5 101.20000000000005-20.600000000000023 19.399999999999977-43.70000000000002 26.699999999999932-71.10000000000002 16.100000000000023-35.89999999999998-14-49.29999999999998-62.80000000000007-24.5-92.50000000000006 22.100000000000023-26.399999999999977 49.5-47.19999999999999 77.9-66.19999999999999 60.20000000000002-40.19999999999999 126.29999999999998-66.69999999999999 198.00000000000003-77.30000000000001 83.5-12.199999999999989 165.19999999999993-4.699999999999989 244.69999999999993 24.900000000000034 66 24.599999999999966 123.90000000000009 61.799999999999955 174.4000000000001 110.69999999999999 12.399999999999977 12 19.199999999999932 26.80000000000001 19 44.5z m-354.80000000000007 18.599999999999966c74 1.3999999999999773 144.5 31.399999999999977 201.39999999999998 91.89999999999998 18.100000000000023 19.300000000000068 23.100000000000023 42.30000000000007 12.5 67.10000000000002-9.799999999999955 23-28.59999999999991 35.30000000000007-53.19999999999993 36.80000000000007-20.5 1.1999999999999318-37.10000000000002-8.400000000000091-51.200000000000045-23-27.799999999999955-28.600000000000023-61.39999999999998-45.5-101.19999999999993-49.30000000000007-51.60000000000002-4.899999999999977-96.10000000000002 11-132.80000000000007 47.60000000000002-15.399999999999977 15.299999999999955-32.099999999999966 25.799999999999955-54.799999999999955 24-23.400000000000034-1.8999999999999773-40.30000000000001-13.399999999999977-50.30000000000001-34.39999999999998-10.300000000000011-21.399999999999977-8.699999999999989-42.80000000000007 5.800000000000011-61.39999999999998 25.899999999999977-33.5 60.099999999999966-56.90000000000009 98.29999999999995-74.20000000000005 36.900000000000034-16.799999999999955 76-24.899999999999977 125.5-25.100000000000023z m-8.5 211.80000000000007c40.200000000000045-0.10000000000002274 73.89999999999998 33.5 74.10000000000002 73.89999999999998 0.20000000000004547 40.10000000000002-33.5 73.89999999999998-73.89999999999998 74-40.10000000000002 0.1999999999999318-74-33.5-74.10000000000002-73.80000000000007-0.10000000000002274-40.19999999999993 33.5-73.89999999999998 73.89999999999998-74.09999999999991z"/>
</svg>
