<svg xmlns="http://www.w3.org/2000/svg" viewBox="0 0 1000 1000" width="1000" height="1000">
<path d="M803.5 0h-606.9c-68.20000000000002 0-124.10000000000002 55.9-124.10000000000002 124.2v751.6999999999999c0 68.20000000000005 55.900000000000006 124.10000000000002 124.1 124.10000000000002h606.9c68.29999999999995 0 124.20000000000005-55.89999999999998 124.20000000000005-124.10000000000002v-751.6999999999999c-0.10000000000002274-68.30000000000004-55.90000000000009-124.20000000000005-124.20000000000005-124.20000000000005z m20.700000000000045 807.7c0 45.5-37.10000000000002 82.69999999999993-82.70000000000005 82.69999999999993h-482.8c-45.5 0-82.79999999999998-37.19999999999993-82.79999999999998-82.69999999999993v-615.4000000000001c0-45.49999999999994 37.19999999999999-82.79999999999995 82.79999999999998-82.79999999999995h482.8c45.5 0 82.70000000000005 37.30000000000001 82.70000000000005 82.80000000000001v615.4000000000001z m-119-362.90000000000003h-410.30000000000007c-22.799999999999955 0-41.39999999999998 18.69999999999999-41.39999999999998 41.39999999999998v38.00000000000006c0 22.699999999999932 18.600000000000023 41.299999999999955 41.39999999999998 41.299999999999955h410.30000000000007c22.799999999999955 0 41.39999999999998-18.600000000000023 41.39999999999998-41.299999999999955v-38.00000000000006c0-22.69999999999999-18.600000000000023-41.39999999999998-41.39999999999998-41.39999999999998z m0-186.2h-410.30000000000007c-22.799999999999955 0-41.39999999999998 18.599999999999966-41.39999999999998 41.39999999999998v37.89999999999998c0 22.80000000000001 18.600000000000023 41.400000000000034 41.39999999999998 41.400000000000034h410.30000000000007c22.799999999999955 0 41.39999999999998-18.600000000000023 41.39999999999998-41.400000000000034v-37.89999999999998c0-22.69999999999999-18.600000000000023-41.39999999999998-41.39999999999998-41.39999999999998z m0 372.5h-410.30000000000007c-22.799999999999955 0-41.39999999999998 18.600000000000023-41.39999999999998 41.299999999999955v37.89999999999998c0 22.800000000000068 18.600000000000023 41.40000000000009 41.39999999999998 41.40000000000009h410.30000000000007c22.799999999999955 0 41.39999999999998-18.600000000000023 41.39999999999998-41.40000000000009v-37.89999999999998c0-22.699999999999932-18.600000000000023-41.299999999999955-41.39999999999998-41.299999999999955z"/>
</svg>
