<svg xmlns="http://www.w3.org/2000/svg" viewBox="0 0 1000 1000" width="1000" height="1000">
<path d="M302.3 672h-62.5c-2.5-0.7000000000000455-5-1.5-7.5-1.8999999999999773-40.20000000000002-5.300000000000068-80.5-10.300000000000068-120.60000000000001-16.100000000000023-11-1.6000000000000227-21.60000000000001-5.5-32.3-8.299999999999955l0.19999999999998863-3.300000000000068c98.70000000000002-34.19999999999993 197.4-68.39999999999998 297.29999999999995-103-48.89999999999998-58.799999999999955-96.69999999999999-116.09999999999997-144.59999999999997-173.7 11.899999999999977-12.899999999999977 23.399999999999977-25.30000000000001 34.80000000000001-37.69999999999999h5.899999999999977c2.6999999999999886 1.5 5.399999999999977 3.3000000000000114 8.199999999999989 4.399999999999977 105.80000000000001 42.30000000000001 211.60000000000002 84.60000000000002 317.50000000000006 126.60000000000002 4.599999999999909 1.8999999999999773 10.899999999999977 2 15.5 0.5 84.19999999999993-27.600000000000023 168.29999999999995-55.39999999999998 252.19999999999993-83.69999999999999 27.899999999999977-9.400000000000034 55.60000000000002-18.30000000000001 85.60000000000002-14.5 18.100000000000023 2.3000000000000114 36.10000000000002 5.099999999999966 48 21.399999999999977v15.600000000000023c-16 33.099999999999966-42.700000000000045 54.39999999999998-76 67.69999999999999-17.200000000000045 6.800000000000011-35.10000000000002 11.899999999999977-52.60000000000002 17.600000000000023-170.29999999999995 56-340.5 112-510.7 168-19.599999999999966 6.5-38.89999999999998 13.600000000000023-58.39999999999998 20.299999999999955z m-128.8-81c-24.400000000000006 8.700000000000045-48.7 17.299999999999955-73 25.899999999999977-2.799999999999997 0.8999999999999773-5.599999999999994 1.8000000000000682-8.299999999999997 2.7000000000000455-21.299999999999997 7.600000000000023-21.200000000000003 7.600000000000023-35.5-9.300000000000068-18.700000000000003-22.09999999999991-37.5-44-56.2-66.09999999999991-0.2-0.20000000000004547-0.2-0.6000000000000227-0.5-1.7000000000000455 7.7-7.2000000000000455 15.5-14.899999999999977 23.8-22.200000000000045 1.3999999999999986-1.1999999999999318 4.800000000000001-1.5 6.599999999999998-0.599999999999909 47.4 22.799999999999955 94.6 45.799999999999955 141.79999999999998 68.89999999999998 0.5 0.1999999999999318 0.6000000000000227 1 1.3000000000000114 2.3999999999999773z"/>
</svg>
