<svg xmlns="http://www.w3.org/2000/svg" viewBox="0 0 1000 1000" width="1000" height="1000">
<path d="M997.8 506.9l-1.7999999999999545 0c0-93.79999999999995 6.100000000000023-188.09999999999997-1.7999999999999545-281.29999999999995-7.2000000000000455-84.10000000000002-70.40000000000009-114.80000000000003-138-68.60000000000002-101.40000000000009 69.4-200.5 142.3-299 215.89999999999998 0.6999999999999318-49.19999999999999 0.39999999999997726-98.39999999999998-3.800000000000068-147.29999999999998-7.199999999999932-84.1-70.29999999999995-114.8-137.89999999999998-68.6-125 85.4-246.4 176.3-367.5 267.2-63.6 47.80000000000001-63.9 104.50000000000006-1.5 152.2 117.5 89.80000000000007 236.10000000000002 178.5 358.5 261.4 79.60000000000002 54 142.5 23.90000000000009 150.60000000000002-71.09999999999991 3.7999999999999545-45.10000000000002 4-90.40000000000009 3.3999999999999773-135.9000000000001 94.10000000000002 71.10000000000002 189.20000000000005 140.9000000000001 286.70000000000005 207 79.69999999999993 54 142.5999999999999 23.90000000000009 150.5999999999999-71.09999999999991 7.300000000000068-86 1.6000000000000227-173.10000000000002 1.6000000000000227-259.80000000000007z"/>
</svg>
