<svg xmlns="http://www.w3.org/2000/svg" viewBox="0 0 1000 1000" width="1000" height="1000">
<path d="M953.5 423.6c-117.5-89.80000000000001-236.10000000000002-178.50000000000003-358.5-261.40000000000003-79.60000000000002-53.999999999999986-142.5-23.899999999999977-150.60000000000002 71.10000000000002-3.7999999999999545 45.099999999999966-4 90.39999999999998-3.3999999999999773 135.89999999999998-94.10000000000002-71.09999999999997-189.2-140.89999999999998-286.7-207-79.70000000000002-53.999999999999986-142.60000000000002-23.899999999999977-150.60000000000002 71.10000000000002-7.299999999999988 86-1.4999999999999885 173.09999999999997-1.4999999999999885 259.8l1.7999999999999998 0c0 93.79999999999995-6.1 188.10000000000002 1.7999999999999998 281.29999999999995 7.2 84.10000000000002 70.4 114.80000000000007 138 68.60000000000002 101.39999999999998-69.39999999999998 200.5-142.29999999999995 299-215.89999999999998-0.6999999999999886 49.19999999999993-0.4000000000000341 98.39999999999998 3.8000000000000114 147.29999999999995 7.199999999999989 84.10000000000002 70.29999999999995 114.80000000000007 137.89999999999998 68.60000000000002 125-85.39999999999998 246.39999999999998-176.29999999999995 367.5-267.20000000000005 63.60000000000002-47.799999999999955 63.89999999999998-104.49999999999994 1.5-152.19999999999993z"/>
</svg>
