<svg xmlns="http://www.w3.org/2000/svg" viewBox="0 0 1000 1000" width="1000" height="1000">
<path d="M929.8 174c-0.09999999999990905-49.900000000000006-28.09999999999991-75-77.59999999999991-73.7-16.800000000000068 0.4000000000000057-20.5 7-20.100000000000023 21.900000000000006 0.6999999999999318 25.200000000000003 1.1000000000000227 50.499999999999986-0.20000000000004547 75.7-2 40.79999999999998-26.199999999999932 66.20000000000002-66.60000000000002 69.4-21.399999999999977 1.6999999999999886-43.09999999999991 1.599999999999966-64.39999999999998 0.0999999999999659-43.39999999999998-3-67.69999999999993-29.299999999999983-68.69999999999993-72.89999999999998-0.5-24.30000000000001-0.8000000000000682-48.599999999999994 0.09999999999990905-72.9 0.6000000000000227-15.599999999999994-4.699999999999932-21.19999999999999-20.699999999999932-21.099999999999994-74.80000000000007 0.7000000000000028-149.60000000000002 0.7000000000000028-224.3 0-17-0.20000000000000284-20.30000000000001 7.099999999999994-19.80000000000001 21.799999999999997 0.8000000000000114 25.200000000000003 0.6999999999999886 50.500000000000014 0.10000000000002274 75.7-0.9000000000000341 38.099999999999994-22.900000000000034 64-60.700000000000045 68.30000000000001-23.099999999999966 2.6999999999999886-46.69999999999999 2.5-69.99999999999997 1.099999999999966-42.5-2.5-66.20000000000002-27.69999999999999-67.70000000000002-70.49999999999997-0.799999999999983-25.200000000000017-0.8999999999999773-50.5 0-75.7 0.6000000000000227-15.900000000000006-5.599999999999994-20.5-21.19999999999999-20.799999999999997-50.900000000000006-1.1000000000000085-77.9 24.39999999999999-77.9 76.4-0.09999999999999432 248.7-0.09999999999999432 497.3 0 746 0 53.60000000000002 23.10000000000001 77.10000000000002 76.6 77.20000000000005 235.60000000000002 0.20000000000004547 471.09999999999997 0.20000000000004547 706.7 0 53.899999999999864 0 76.39999999999986-23 76.39999999999986-77.10000000000002 0.20000000000004547-124.29999999999995 0-248.69999999999993 0-373 0.10000000000002274-125.39999999999998 0.3000000000000682-250.7 0-375.9z m-761.8 176.8c-0.09999999999999432-13 5.5-18.19999999999999 18.5-18.19999999999999 55 0.2999999999999545 110 0.2999999999999545 164.89999999999998 0.0999999999999659 11.800000000000011 0 16.400000000000034 4.900000000000034 16.30000000000001 16.80000000000001-0.39999999999997726 44.69999999999999-0.5 89.5 0.10000000000002274 134.2 0.19999999999998863 14.800000000000011-7.800000000000011 16.5-19.400000000000034 16.400000000000034-27-0.30000000000001137-54-0.10000000000002274-81.09999999999997-0.10000000000002274-27 0-54.10000000000002-0.39999999999997726-81.10000000000002 0.19999999999998863-13.099999999999994 0.30000000000001137-18.399999999999977-4.699999999999989-18.299999999999983-17.899999999999977 0.5-43.900000000000034 0.4000000000000057-87.69999999999999 0.09999999999999432-131.5z m199.89999999999998 531c0.20000000000004547 14.300000000000068-4.5 20-19.099999999999966 19.800000000000068-53.10000000000002-0.5-106.20000000000002-0.5-159.3 0-15.5 0.1999999999999318-21.80000000000001-5.2000000000000455-21.599999999999994-21 0.5999999999999943-42.89999999999998 0.5-85.70000000000005 0.09999999999999432-128.60000000000002-0.09999999999999432-13.100000000000023 5.099999999999994-18.299999999999955 18.19999999999999-18 27 0.6000000000000227 54 0.20000000000004547 81.10000000000002 0.20000000000004547 27 0 54.099999999999966 0.5 81.09999999999997-0.20000000000004547 14.200000000000045-0.39999999999997726 19.80000000000001 4.399999999999977 19.600000000000023 19.200000000000045-0.8000000000000114 42.89999999999998-0.6999999999999886 85.79999999999995-0.10000000000002274 128.5999999999999z m-22.599999999999966-180.5c-26.100000000000023-1.099999999999909-52.30000000000001-0.2999999999999545-78.5-0.2999999999999545-25.200000000000017 0-50.5-0.7999999999999545-75.70000000000002 0.2999999999999545-16.400000000000006 0.7000000000000455-23.69999999999999-3.7999999999999545-23.299999999999983-21.699999999999932 0.8999999999999773-42 0.799999999999983-84.10000000000002 0.09999999999999432-126.20000000000005-0.30000000000001137-16.199999999999932 6.299999999999983-20.699999999999932 21.599999999999994-20.5 52.30000000000001 0.7000000000000455 104.69999999999999 1 157-0.10000000000002274 18.19999999999999-0.39999999999997726 21.80000000000001 7 21.5 23.100000000000023-0.8000000000000114 41.10000000000002-1.1000000000000227 82.30000000000007 0.10000000000002274 123.39999999999998 0.39999999999997726 17.800000000000068-6.2000000000000455 22.700000000000045-22.80000000000001 22z m74.19999999999999-368.59999999999997c53.30000000000001 0.30000000000001137 106.60000000000002 0.4000000000000341 159.89999999999998-0.0999999999999659 14.399999999999977-0.10000000000002274 19.899999999999977 5.199999999999989 19.700000000000045 19.69999999999999-0.6000000000000227 43-0.7000000000000455 86 0 129 0.1999999999999318 15.300000000000011-6.600000000000023 19.099999999999966-20.300000000000068 18.80000000000001-27.09999999999991-0.6000000000000227-54.19999999999993-0.20000000000004547-81.29999999999995-0.20000000000004547-26.19999999999999 0-52.39999999999998-0.39999999999997726-78.5 0.20000000000004547-13.199999999999989 0.2999999999999545-18.100000000000023-4.7000000000000455-18-18 0.5-43.900000000000034 0.5-87.90000000000003 0-131.8-0.19999999999998863-13.800000000000011 5.899999999999977-17.69999999999999 18.5-17.600000000000023z m-18.600000000000023 219.90000000000003c-0.19999999999998863-14.200000000000045 4.300000000000011-19.800000000000068 19.200000000000045-19.600000000000023 53.19999999999999 0.7000000000000455 106.39999999999998 0.6000000000000227 159.69999999999993 0 14.800000000000068-0.20000000000004547 19.5 5.5 19.300000000000068 19.700000000000045-0.5 42.89999999999998-0.5 85.89999999999998 0 128.89999999999998 0.1999999999999318 14.299999999999955-4.7000000000000455 20-19.399999999999977 19.600000000000023-27.100000000000023-0.8000000000000682-54.10000000000002-0.20000000000004547-81.20000000000005-0.20000000000004547-25.19999999999999 0-50.39999999999998-0.5-75.60000000000002 0.20000000000004547-14.599999999999966 0.5-22.399999999999977-2.6000000000000227-22-19.700000000000045 0.9000000000000341-42.89999999999998 0.6000000000000227-85.89999999999998 0-128.89999999999998z m198.39999999999998 326.6c0.40000000000009095 17.199999999999932-5.899999999999977 22.799999999999955-22.799999999999955 22.59999999999991-51.39999999999998-0.7999999999999545-102.80000000000001-0.599999999999909-154.3-0.09999999999990905-15.300000000000011 0.1999999999999318-21.80000000000001-4.300000000000068-21.399999999999977-20.700000000000045 0.8999999999999773-42.10000000000002 0.8999999999999773-84.10000000000002 0-126.20000000000005-0.30000000000001137-16 5.399999999999977-21.399999999999977 21-20.799999999999955 26.099999999999966 0.8999999999999773 52.30000000000001 0.2999999999999545 78.5 0.2999999999999545 25.19999999999999 0 50.49999999999994 0.7000000000000455 75.69999999999999-0.2999999999999545 16.399999999999977-0.6000000000000227 23.600000000000023 4 23.200000000000045 21.799999999999955-1 41.10000000000002-0.900000000000091 82.30000000000007 0.09999999999990905 123.40000000000009z m32.60000000000002-526.7c-0.1999999999999318-14.300000000000011 4.800000000000068-20.100000000000023 19.399999999999977-19.899999999999977 53.200000000000045 0.5 106.30000000000007 0.5 159.5 0 15-0.10000000000002274 22.100000000000023 4.5 21.800000000000068 20.799999999999955-0.7000000000000455 42.900000000000034-0.5 85.80000000000001-0.10000000000002274 128.70000000000005 0.10000000000002274 13.199999999999989-5 18.299999999999955-18.200000000000045 18-28-0.5-56-0.20000000000004547-83.89999999999998-0.20000000000004547-25.199999999999932 0-50.39999999999998-0.6999999999999886-75.5 0.30000000000001137-16.299999999999955 0.6000000000000227-23.5-4-23-21.80000000000001 0.8999999999999773-41.89999999999998 0.6000000000000227-83.89999999999998 0-125.89999999999998z m200.5 531.1c0.10000000000002274 13.5-6.2999999999999545 17.899999999999977-18.799999999999955 17.899999999999977-55-0.20000000000004547-110.10000000000002-0.20000000000004547-165.10000000000002 0-11.799999999999955 0-16.600000000000023-5.100000000000023-16.5-16.899999999999977 0.2999999999999545-44.80000000000007 0.39999999999997726-89.5 0-134.30000000000007-0.10000000000002274-14.899999999999977 8.600000000000023-16.199999999999932 19.899999999999977-16.09999999999991 27 0.1999999999999318 54.10000000000002 0.09999999999990905 81.10000000000002 0.09999999999990905 27 0 54.10000000000002 0.40000000000009095 81.10000000000002-0.09999999999990905 13.100000000000023-0.3000000000000682 18.399999999999977 4.699999999999932 18.199999999999932 18-0.2999999999999545 43.69999999999993-0.2999999999999545 87.59999999999991 0.10000000000002274 131.39999999999998z m-23.100000000000023-182.39999999999998c-26.09999999999991-1-52.19999999999993-0.3000000000000682-78.29999999999995-0.3000000000000682-27 0-54.10000000000002-0.5-81.10000000000002 0.10000000000002274-13.199999999999932 0.2999999999999545-18.199999999999932-4.7999999999999545-18-18 0.39999999999997726-43.799999999999955 0.6000000000000227-87.60000000000002-0.10000000000002274-131.39999999999998-0.1999999999999318-15.300000000000068 6.600000000000023-18.800000000000068 20.300000000000068-18.700000000000045 53.10000000000002 0.5 106.19999999999993 0.6000000000000227 159.29999999999995-0.10000000000002274 15.800000000000068-0.1999999999999318 21.399999999999977 5.2000000000000455 21.100000000000023 20.90000000000009-0.7000000000000455 41.89999999999998-0.8999999999999773 83.89999999999998 0.10000000000002274 125.79999999999995 0.5 18.200000000000045-7.2000000000000455 22.299999999999955-23.300000000000068 21.700000000000045z m-537.1999999999999-467.90000000000003c33.89999999999998-2.3000000000000114 60.19999999999999-29.30000000000001 61.89999999999998-64.5 0.8000000000000114-17.700000000000017 0.10000000000002274-35.5 0.10000000000002274-53.20000000000002 0-16.799999999999997 0.5999999999999659-33.599999999999994-0.10000000000002274-50.39999999999999-1.6000000000000227-35.6-27.30000000000001-62.400000000000006-61.30000000000001-65-33.69999999999999-2.5000000000000027-64.19999999999999 20.699999999999996-68.79999999999998 56.199999999999996-5.200000000000017 39.800000000000004-5 80.29999999999998-0.09999999999999432 120.1 4.299999999999983 35.5 34.69999999999999 59 68.30000000000001 56.80000000000001z m458 0.09999999999999432c36.39999999999998 1.4000000000000057 65.79999999999995-27 68.39999999999998-67.1 1-15.800000000000011 0.20000000000004547-31.700000000000017 0.20000000000004547-47.60000000000001h-0.10000000000002274c0-17.700000000000003 1.1000000000000227-35.60000000000001-0.20000000000004547-53.2-2.8999999999999773-38.4-31.799999999999955-65.9-67.19999999999993-65.4-35.5 0.5000000000000057-64 28.700000000000006-65.40000000000009 67.10000000000001-1.1999999999999318 32.599999999999994-1.099999999999909 65.39999999999999 0 97.99999999999999 1.2000000000000455 38.80000000000001 28.40000000000009 66.80000000000001 64.30000000000007 68.20000000000002z"/>
</svg>
