<svg xmlns="http://www.w3.org/2000/svg" viewBox="0 0 1000 1000" width="1000" height="1000">
<path d="M880.5 125.7c-8.200000000000045-4.200000000000003-17.600000000000023-7.799999999999997-26.600000000000023-8-38.39999999999998-0.9000000000000057-76.79999999999995-0.4000000000000057-115.10000000000002-0.4000000000000057-0.8999999999999773 0-1.7999999999999545 0.4000000000000057-4 1v60.000000000000014c0 28.599999999999994 0.20000000000004547 57.19999999999999 0.10000000000002274 85.89999999999998-0.10000000000002274 18.600000000000023-10.399999999999977 29.100000000000023-29.100000000000023 29.100000000000023-80 0.19999999999998863-160 0-240.09999999999997 0-55.599999999999966 0-111.19999999999999-0.10000000000002274-166.89999999999998 0-24.19999999999999 0.0999999999999659-33.80000000000001-9.5-33.69999999999999-33.5 0.19999999999998863-44.60000000000002 0.0999999999999659-89.10000000000002 0-133.70000000000002 0-2.5999999999999943-0.30000000000001137-5.099999999999994-0.5-9.099999999999994h-54.50000000000003c-20.19999999999999 0-40.29999999999998-0.09999999999999432-60.5 0.20000000000000284-33.8 0.3999999999999915-60.5 27.10000000000001-60.5 60.999999999999986-0.09999999999999432 255.40000000000003-0.09999999999999432 510.8 0 766.2 0 29.499999999999886 23.80000000000001 53.59999999999991 53.599999999999994 54.999999999999886 4.200000000000017 0.20000000000004547 8.5 0.10000000000002274 12.700000000000017 0.10000000000002274 228.70000000000002 0 457.4-0.2999999999999545 686.1 0.2999999999999545 34.299999999999955 0.10000000000002274 58.5-11.399999999999977 69.5-45.19999999999993v-786.7c-5.7999999999999545-17.19999999999999-13.5-33.49999999999997-30.5-42.199999999999974z m-156.89999999999998 380c-70 70.69999999999999-140.10000000000002 141.3-210.20000000000005 212.00000000000006-14.699999999999989 14.799999999999955-29.19999999999999 29.699999999999932-43.89999999999998 44.39999999999998-14.699999999999989 14.600000000000023-28.30000000000001 14.399999999999977-43.19999999999999 0.2999999999999545-49.10000000000002-47-98.30000000000001-93.89999999999998-147.60000000000002-140.69999999999993-17.19999999999999-16.300000000000068-17.899999999999977-30.700000000000045-1.3000000000000114-47.5 9.400000000000034-9.5 18.80000000000001-19 28.200000000000045-28.40000000000009 15.599999999999966-15.599999999999909 28.399999999999977-15.699999999999932 44.799999999999955-0.5l92.40000000000003 85.40000000000009c1.3999999999999773 1.2999999999999545 3 2.5 3.8000000000000114 3.199999999999932 32.299999999999955-31.699999999999932 64.09999999999997-62.39999999999998 95.39999999999998-93.60000000000002 35.700000000000045-35.599999999999966 71-71.49999999999994 106.60000000000002-107.29999999999995 16.699999999999932-16.80000000000001 29.899999999999977-16.69999999999999 46.69999999999993 0.19999999999998863 9.400000000000091 9.400000000000034 18.700000000000045 19 28.100000000000023 28.5 14.700000000000045 14.800000000000011 14.899999999999977 29.19999999999999 0.20000000000004547 44z m-377.5-271.5c9.199999999999989 1.4000000000000057 18.799999999999955 1.3000000000000114 28.19999999999999 1.3000000000000114 89.09999999999997 0.09999999999999432 178.2 0.09999999999999432 267.3 0 3.6000000000000227 0 7.199999999999932-0.30000000000001137 10.699999999999932-0.9000000000000057 15.600000000000023-2.5999999999999943 24.100000000000023-12.400000000000006 24.200000000000045-28 0.20000000000004547-29.900000000000006 0.2999999999999545-59.79999999999998 0-89.8-0.2999999999999545-28.299999999999997-14.299999999999955-49.3-37.60000000000002-55.3-8.699999999999932-2.299999999999997-18-2.700000000000003-27-2.8999999999999986-17.399999999999977-0.3999999999999986-34.89999999999998-0.10000000000000142-52.299999999999955-0.10000000000000142-0.5-5.100000000000001-1.1000000000000227-8.899999999999999-1.3000000000000682-12.799999999999997-1.1999999999999318-22.700000000000003-9.5-40.2-33.89999999999998-45.7h-48.799999999999955c-31.700000000000045 7.1-33.5 32.7-35 58.5h-55.5c-36.30000000000001-0.10000000000000142-60.60000000000002 22.5-61.5 58.7-0.8000000000000114 30.200000000000003-0.30000000000001137 60.499999999999986 0 90.7 0.0999999999999659 14.400000000000006 8.199999999999989 24.099999999999994 22.5 26.299999999999983z"/>
</svg>
