<svg xmlns="http://www.w3.org/2000/svg" viewBox="0 0 1000 1000" width="1000" height="1000">
<path d="M1000 391.2c-11.5 69.90000000000003-25 158.09999999999997-40.700000000000045 245.8-7.699999999999932 43.39999999999998-16.199999999999932 87.10000000000002-30 128.79999999999995-26.699999999999932 80.40000000000009-92.59999999999991 110.40000000000009-171 80.20000000000005-55.39999999999998-21.299999999999955-95-59.60000000000002-114.19999999999993-116.70000000000005-12.899999999999977-38.59999999999991-25.700000000000045-77.19999999999993-37.5-116.09999999999991-5.600000000000023-18.40000000000009-15.399999999999977-26.800000000000068-35.5-26.40000000000009-47.700000000000045 1.1000000000000227-95.40000000000003 1-143.10000000000002 0.3000000000000682-19.69999999999999-0.3000000000000682-30.100000000000023 7.699999999999932-35.80000000000001 26.299999999999955-12.300000000000011 40.60000000000002-25.30000000000001 81-39.099999999999966 121.10000000000002-27 78.70000000000005-110.90000000000003 130.89999999999998-191.70000000000002 119.70000000000005-45.30000000000001-6.300000000000068-75.2-34.40000000000009-87.4-75.5-17.4-58.80000000000007-30.200000000000003-119-41.6-179.30000000000007-12.299999999999997-64.60000000000002-21.299999999999997-129.79999999999995-30.4-195-17.2-124.29999999999995 77-240.99999999999997 201.9-253.7 52-5.299999999999983 98.99999999999997 5.5 144.6 30.30000000000001 16 8.699999999999989 35.69999999999999 13.900000000000006 53.89999999999998 14.5 60.700000000000045 1.8000000000000114 121.5 2.5999999999999943 182.10000000000002 0 22.100000000000023-0.9000000000000057 45.799999999999955-8.699999999999989 65.39999999999998-19.5 78.70000000000005-43.30000000000001 157.10000000000002-45.69999999999999 234.70000000000005-0.9000000000000057 75.29999999999995 43.30000000000001 110.89999999999998 111.50000000000003 115.39999999999998 216.1z m-261-61.099999999999966c-10.899999999999977 0.5-19.399999999999977 1-27.799999999999955 1.1999999999999886-8.600000000000023 0.30000000000001137-17.300000000000068-0.19999999999998863-25.90000000000009 0.5-27.199999999999932 2-43 18.099999999999966-42.39999999999998 42.5 0.5 23.19999999999999 16.100000000000023 37.599999999999966 42.89999999999998 38.69999999999999 17.100000000000023 0.6000000000000227 34.10000000000002 0.10000000000002274 53 0.10000000000002274 0 12.699999999999989-0.09999999999990905 21.19999999999999 0.10000000000002274 29.799999999999955 0.20000000000004547 9.5-0.1999999999999318 19.100000000000023 1.1000000000000227 28.5 3.6000000000000227 25.900000000000034 20.299999999999955 40.80000000000007 42.89999999999998 39.30000000000001 22.800000000000068-1.5 38.30000000000007-18 39.5-43.30000000000001 0.7000000000000455-17 0.10000000000002274-34.099999999999966 0.10000000000002274-52.599999999999966 11.399999999999977-0.5 19.899999999999977-0.9000000000000341 28.399999999999977-1.1999999999999886 9.5-0.30000000000001137 19.100000000000023 0.2999999999999545 28.5-0.6000000000000227 23.800000000000068-2.1999999999999886 41.10000000000002-20.69999999999999 40.30000000000007-42.39999999999998-0.8000000000000682-21.400000000000034-16.800000000000068-36.900000000000034-41.200000000000045-38.30000000000001-17.899999999999977-1-35.89999999999998-0.19999999999998863-56.200000000000045-0.19999999999998863 0-19.400000000000034 0.10000000000002274-34.900000000000034-0.09999999999990905-50.30000000000001-0.40000000000009095-29.200000000000017-15.100000000000023-46.80000000000001-39.90000000000009-47.900000000000006-23.59999999999991-1.0999999999999943-41.39999999999998 17-43.09999999999991 45.49999999999997-1 16.200000000000045-0.20000000000004547 32.5-0.20000000000004547 50.700000000000045z m-337.1 45.799999999999955c-0.5999999999999659-30.399999999999977-27.19999999999999-55-58-53.69999999999999-29.399999999999977 1.1999999999999886-54 27.19999999999999-53.19999999999999 56.19999999999999 0.8000000000000114 31.600000000000023 25.900000000000034 55.700000000000045 56.900000000000034 54.900000000000034 31.099999999999966-0.9000000000000341 55-26.19999999999999 54.299999999999955-57.400000000000034z m-216.39999999999998-104.5c-0.5999999999999943 30.200000000000045 23.400000000000006 56.400000000000034 52.30000000000001 57.10000000000002 31.5 0.6999999999999886 58.39999999999998-25 59.19999999999999-56.69999999999999 0.6999999999999886-29.600000000000023-25.600000000000023-54.900000000000006-57.19999999999999-55.10000000000002-29.600000000000023-0.09999999999999432-53.70000000000002 24.100000000000023-54.30000000000001 54.69999999999999z m0.09999999999999432 212.3c0.5 30.099999999999966 25.400000000000006 56.099999999999966 53.599999999999994 55.900000000000034 31.69999999999999-0.3000000000000682 58.400000000000034-27 57.69999999999999-58-0.5999999999999659-29.400000000000034-27.899999999999977-54.900000000000034-58.39999999999998-54.60000000000002-27.900000000000006 0.30000000000001137-53.400000000000006 27.5-52.900000000000006 56.69999999999999z m-51-50.39999999999998c30.700000000000017 0.0999999999999659 56.80000000000001-25.30000000000001 57.20000000000002-55.69999999999999 0.29999999999998295-29.30000000000001-27.100000000000023-56-57.20000000000002-55.5-29.19999999999999 0.39999999999997726-54.69999999999999 25.399999999999977-55.5 54.39999999999998-0.8999999999999915 30.30000000000001 24.80000000000001 56.60000000000002 55.5 56.80000000000001z"/>
</svg>
