<svg xmlns="http://www.w3.org/2000/svg" viewBox="0 0 1000 1000" width="1000" height="1000">
<path d="M785 997.4c25.899999999999977-28 51-54.69999999999993 75.70000000000005-81.89999999999998 48.299999999999955-53.200000000000045 42.69999999999993-113.29999999999995-15-155.79999999999995-46.5-34.200000000000045-93-68.5-140.9000000000001-100.5-53.799999999999955-35.90000000000009-103.29999999999995-23.40000000000009-136.19999999999993 32-12.399999999999977 20.899999999999977-23.300000000000068 42.69999999999993-34.80000000000007 64-105.19999999999993-52.60000000000002-200.39999999999998-151.5-255.79999999999995-254.60000000000002 22.80000000000001-12.600000000000023 46.19999999999999-24.200000000000045 68.19999999999999-38 51.400000000000034-32.200000000000045 63.80000000000001-79.40000000000003 30.600000000000023-130.5-36.19999999999999-55.700000000000045-76.10000000000002-109.10000000000002-115.5-162.8-15.100000000000023-20.600000000000023-38.70000000000002-28.900000000000006-75.4-31.30000000000001 0-25.5-3-51.5 0.6999999999999886-76.5 5.400000000000006-36.7 36.099999999999994-61.1 73.20000000000002-61.1 208.8-0.3999999999999986 417.49999999999994-0.49999999999999856 626.3-0.19999999999999857 45.90000000000009 0.09999999999999998 76.90000000000009 35.099999999999994 76.90000000000009 84.8 0.20000000000004547 106.80000000000001 0.10000000000002274 213.5 0.10000000000002274 320.2v475.3c0 13.600000000000023 0.39999999999997726 27.200000000000045-0.39999999999997726 40.799999999999955-3 49.80000000000007-33.200000000000045 78.30000000000007-82.90000000000009 78.40000000000009-29.899999999999977 0.09999999999990905-59.799999999999955-0.10000000000002274-89.69999999999993-0.20000000000004547-1.2000000000000455 0.10000000000002274-2.300000000000068-0.8999999999999773-5.100000000000023-2.1000000000000227z m-182.70000000000005-441c61.60000000000002 0 123.30000000000007 0.10000000000002274 184.9000000000001 0 13.599999999999909 0 28.699999999999932-2.1000000000000227 27.5-19.199999999999932-1.1000000000000227-15.5-15.5-18.800000000000068-29.40000000000009-18.200000000000045-10.099999999999909 0.39999999999997726-20.299999999999955 2-30.399999999999977 1.8999999999999773-49.89999999999998-0.39999999999997726-99.69999999999993-1.5-149.60000000000002-1.7999999999999545-62-0.3000000000000682-124.09999999999997 0-186.09999999999997 0.1999999999999318-12.399999999999977 0.10000000000002274-26.099999999999966 0.8000000000000682-26.899999999999977 17.5-0.9000000000000341 16.800000000000068 11.699999999999989 19.5 24.899999999999977 19.5 61.69999999999999 0.20000000000004547 123.40000000000003 0.10000000000002274 185.09999999999997 0.10000000000002274z m40.700000000000045-344.09999999999997l146.5 0.09999999999999432c12.899999999999977 0 24.5-3.4000000000000057 24.5-18 0-16.200000000000017-13.299999999999955-18.5-26.299999999999955-18.5l-288.90000000000003 0.09999999999999432c-13.400000000000034 0-25.5 2.3000000000000114-24.900000000000034 19.19999999999999 0.5 15.600000000000023 12 17.200000000000017 24.600000000000023 17.100000000000023 48.10000000000002-0.20000000000001705 96.29999999999995 0 144.5 0z m-1.7999999999999545 163.2c48.799999999999955 0.10000000000002274 97.69999999999993 0 146.5 0.19999999999998863 13.399999999999977 0.10000000000002274 26.299999999999955-2.3999999999999773 26.199999999999932-18.30000000000001-0.10000000000002274-16-13.600000000000023-18.19999999999999-26.5-18.299999999999955l-288.9 0.0999999999999659c-12.5 0-24.19999999999999 1.900000000000034-24.600000000000023 17.5-0.5 16.80000000000001 11.300000000000011 19 24.900000000000034 18.900000000000034 47.400000000000034-0.30000000000001137 94.90000000000003-0.10000000000002274 142.40000000000003-0.10000000000002274z m14.399999999999977 621.2c-61.89999999999998-5.5-122.80000000000007-30.100000000000023-179.60000000000002-63.90000000000009-155.3-92.5-279.8-216.5999999999999-373.3-371.4-29.999999999999986-49.599999999999966-52.69999999999999-102.59999999999997-62.59999999999999-160.09999999999997-9.5-55.60000000000002 1.2999999999999972-105.19999999999999 46.199999999999996-143.90000000000003 22.700000000000003-19.49999999999997 43.7-40.89999999999998 66.50000000000001-60.099999999999966 32.29999999999998-27.30000000000001 62.099999999999994-24.400000000000006 87.19999999999999 9.599999999999994 33.80000000000001 45.900000000000006 66.69999999999999 92.49999999999997 98.5 139.79999999999998 25.399999999999977 37.69999999999999 19 62.30000000000001-20.69999999999999 85.30000000000001-20.5 11.899999999999977-42.19999999999999 21.5-63.5 32-26.30000000000001 13.100000000000023-32.20000000000002 27.80000000000001-15.600000000000023 51.799999999999955 27.80000000000001 40.10000000000002 56.30000000000001 79.90000000000009 87.80000000000001 117.10000000000002 52.60000000000002 62 113.89999999999998 114.60000000000002 183.60000000000002 156.89999999999998 34.39999999999998 20.90000000000009 44.799999999999955 17.800000000000068 62.39999999999998-18.59999999999991 9.200000000000045-18.90000000000009 18.5-37.80000000000007 29-55.90000000000009 22.899999999999977-39.39999999999998 46.10000000000002-45.799999999999955 83.60000000000002-20.5 46.69999999999993 31.5 92.10000000000002 64.90000000000009 137.69999999999993 97.90000000000009 7 5.099999999999909 13.200000000000045 11.799999999999955 18.200000000000045 19 15.299999999999955 22.199999999999932 15.5 45.39999999999998-2.1000000000000227 65.69999999999993-25.299999999999955 29.300000000000068-51.60000000000002 57.80000000000007-79 85.20000000000005-26.799999999999955 27.100000000000023-62.10000000000002 33.799999999999955-104.29999999999995 34.10000000000002z m-471.5-264c98.5 108 203.59999999999997 199.5999999999999 335.1 265.5-8.700000000000045 0.8999999999999773-12.800000000000068 1.7999999999999545-17.000000000000057 1.7999999999999545-78.09999999999997 0.10000000000002274-156.2 0.10000000000002274-234.3 0-52.19999999999999-0.10000000000002274-83.79999999999998-31.700000000000045-83.79999999999998-83.5v-183.79999999999995z"/>
</svg>
