<svg xmlns="http://www.w3.org/2000/svg" viewBox="0 0 1000 1000" width="1000" height="1000">
<path d="M197.5 499.2c0.19999999999998863-167.2 136.7-303.7 303.4-303.2 166.70000000000005 0.4000000000000057 302.9 137.10000000000002 303.1 304.1 0.20000000000004547 165.79999999999995-136.29999999999995 302.4-302.3 302.4-169.39999999999998 0-304.4-134.60000000000002-304.2-303.3z m305-184.39999999999998v370.3c106.5-0.8000000000000682 186.79999999999995-87.39999999999998 183.70000000000005-196.40000000000003-2.800000000000068-93.89999999999998-92.10000000000002-179.2-183.70000000000005-173.89999999999998z m346 188.3c0.39999999999997726-48.700000000000045 31.799999999999955-81.5 77.29999999999995-80.90000000000003 45.200000000000045 0.6999999999999886 75 35 74.40000000000009 85.69999999999999-0.40000000000009095 45.5-32.700000000000045 78.39999999999998-76.60000000000002 78.10000000000002-45.10000000000002-0.20000000000004547-75.5-33.799999999999955-75.10000000000002-82.89999999999998z m-54.60000000000002 379.4c-42.89999999999998 0.2999999999999545-77.79999999999995-33.799999999999955-77.60000000000002-75.89999999999998 0.20000000000004547-42.80000000000007 40.80000000000007-83.20000000000005 83.70000000000005-83.5 42.200000000000045-0.20000000000004547 77.29999999999995 35 76.89999999999998 77.10000000000002-0.5 41.59999999999991-41.19999999999993 82-83 82.29999999999995z m-288.79999999999995-882.5c47.10000000000002 0.1 80.29999999999995 31.4 80.5 76 0.1999999999999318 42.599999999999994-33.60000000000002 74.1-77.30000000000001 76-55.69999999999999 2.3000000000000114-85.10000000000002-39.099999999999994-85.5-75.6-0.6000000000000227-44.10000000000001 34.39999999999998-76.5 82.30000000000001-76.4z m-221.20000000000005 193.4c-0.19999999999998863 42.29999999999998-41.69999999999999 83.70000000000002-83.89999999999998 83.70000000000002-41.80000000000001 0-77.2-35.900000000000034-76.5-77.70000000000002 0.7000000000000028-42.400000000000006 43.099999999999994-83.60000000000001 84.80000000000001-82.7 41.69999999999999 1 75.89999999999998 35.7 75.59999999999997 76.7z m521.5 88.70000000000002c-43.39999999999998-0.7000000000000455-83.19999999999993-41.10000000000002-82.69999999999993-84.00000000000003 0.5-42.5 35.299999999999955-75.89999999999999 78.29999999999995-75.1 43.10000000000002 0.7000000000000028 82.29999999999995 41.69999999999999 81.5 85.1-0.7999999999999545 42.099999999999994-34.799999999999955 74.70000000000002-77.10000000000002 74.00000000000003z m-603.7 593.5c-43.799999999999926 0.2999999999999545-83.29999999999993-38.5-83.79999999999993-82.5-0.4000000000000057-42.10000000000002 32.69999999999999-76.5 74.19999999999999-77.10000000000002 43.900000000000006-0.6000000000000227 85.00000000000003 39.799999999999955 85.1 83.79999999999995 0 42-33.29999999999998 75.5-75.5 75.80000000000007z m212.70000000000005 46.89999999999998c0.20000000000004547-43 34.400000000000034-75.39999999999998 79.70000000000005-75.5 47.19999999999993-0.10000000000002274 82.89999999999998 33 82.79999999999995 76.70000000000005-0.10000000000002274 43.59999999999991-35.19999999999993 76.59999999999991-81.09999999999997 76.29999999999995-48-0.39999999999997726-81.60000000000002-32.299999999999955-81.40000000000003-77.5z m-261.59999999999997-427.4c-0.8000000000000114 47.60000000000002-34.10000000000001 82.19999999999993-78.00000000000001 80.89999999999998-44.099999999999994-1.2000000000000455-75.39999999999999-35.700000000000045-74.8-82.19999999999999 0.7-46.10000000000002 34.1-80.90000000000003 77.2-80.30000000000001 43.599999999999994 0.6000000000000227 76.39999999999999 36 75.60000000000001 81.60000000000002z"/>
</svg>
