<svg xmlns="http://www.w3.org/2000/svg" viewBox="0 0 1000 1000" width="1000" height="1000">
<path d="M742 46.5c15 2.799999999999997 30.299999999999955 4.299999999999997 44.89999999999998 8.600000000000001 118.30000000000007 34.300000000000004 190.39999999999998 112.1 209.5 233.70000000000002 14.300000000000068 91.39999999999998-14.299999999999955 172-79.69999999999993 237.90000000000003-112.90000000000009 113.89999999999998-226.70000000000005 227-340.1 340.4-14.200000000000045 14.199999999999932-33.10000000000002 14.899999999999977-46 1.8999999999999773-12.800000000000068-12.899999999999977-12.100000000000023-31.700000000000045 2.1000000000000227-45.89999999999998 111.5-111.70000000000005 223-223.30000000000007 334.69999999999993-334.90000000000003 117.60000000000002-117.39999999999998 70-314.4-86.5-364-84.5-26.69999999999999-160.19999999999993-6.799999999999983-223.5 55.400000000000006-145.2 142.9-289.7 286.4-434.79999999999995 429.29999999999995-22.800000000000026 22.5-43.00000000000003 46-52.800000000000026 77.20000000000005-21.5 68.29999999999995 5 141.69999999999993 65.10000000000001 179.79999999999995 60.5 38.200000000000045 137.99999999999997 31.600000000000023 190.1-18 45.69999999999999-43.5 90-88.5 134.89999999999998-132.79999999999995 107.70000000000005-106.39999999999998 215.39999999999998-212.60000000000002 322.9-319.1 52.10000000000002-51.69999999999999 32.60000000000002-136.10000000000002-36.89999999999998-157.8-34.39999999999998-10.699999999999989-66.29999999999995-3.1999999999999886-92 22-53.69999999999993 52.60000000000002-106.5 106.10000000000002-159.7 159.2-60.69999999999999 60.80000000000001-121.5 121.5-182.2 182.30000000000007-9.800000000000011 9.899999999999977-21.100000000000023 13.899999999999977-34.5 9.599999999999909-11.899999999999977-3.7999999999999545-18.69999999999999-12.699999999999932-20.69999999999999-24.799999999999955-2.1000000000000227-12.5 3.8000000000000114-21.899999999999977 12.300000000000011-30.299999999999955 52.5-52.400000000000034 104.89999999999998-104.90000000000003 157.39999999999998-157.40000000000003 60.10000000000002-60 119.79999999999995-120.40000000000003 180.29999999999995-180 43.90000000000009-43.400000000000006 96.90000000000009-58 156.10000000000002-40.400000000000006 58.700000000000045 17.400000000000006 95.60000000000002 58 108.30000000000007 118.1 11.299999999999955 53.80000000000001-2.900000000000091 102-41.700000000000045 140.7-153 152.09999999999997-306 304.2-460.7 454.59999999999997-62.69999999999999 60.90000000000009-139.9 76.60000000000002-222.3 48-80.9-28.199999999999932-128.2-87.89999999999998-144-172.19999999999993-0.8-4.100000000000023 0.2999999999999998-8.600000000000023-2.5-12.300000000000068v-42.89999999999998c0.6-1.5 1.5-2.8999999999999773 1.7-4.5 6.3999999999999995-53.5 30.400000000000002-97.79999999999995 68.8-135.19999999999993 47.8-46.60000000000002 95-93.70000000000005 142.4-140.50000000000006 103.4-102.19999999999999 206.79999999999998-204.39999999999998 310.4-306.5 33.5-32.999999999999986 73.40000000000009-55.29999999999998 118.5-68.6 17.5-5.199999999999996 35.700000000000045-6.599999999999994 53.40000000000009-10.599999999999994h46.799999999999955z"/>
</svg>
