<svg xmlns="http://www.w3.org/2000/svg" viewBox="0 0 1000 1000" width="1000" height="1000">
<path d="M782 342.9c-10.700000000000045-191.7-132.70000000000005-342.9-282.1-342.9-149.39999999999998 0-271.4 151.2-282.09999999999997 342.9-90.80000000000001 24.30000000000001-158.3 107.40000000000003-158.3 205.70000000000005v238.19999999999993c0 117.30000000000007 96 213.20000000000005 213.3 213.20000000000005h454.3c117.29999999999995 0 213.29999999999995-95.89999999999998 213.29999999999995-213.20000000000005v-238.19999999999993c-0.10000000000002274-98.30000000000001-67.60000000000002-181.40000000000003-158.39999999999998-205.70000000000005z m-230.39999999999998 366.20000000000005v68.29999999999995c0 58.700000000000045-23.300000000000068 106.60000000000002-51.700000000000045 106.60000000000002-28.399999999999977 0-51.69999999999999-47.89999999999998-51.69999999999999-106.60000000000002v-68.29999999999995c-41.599999999999966-19.5-70.5-61.39999999999998-70.5-110.39999999999998 0-67.60000000000002 54.69999999999999-122.20000000000005 122.19999999999999-122.20000000000005s122.20000000000005 54.700000000000045 122.20000000000005 122.20000000000005c0.10000000000002274 49-28.899999999999977 90.89999999999998-70.5 110.39999999999998z m-214.60000000000002-373.70000000000005c7.5-115.29999999999998 77.5-205.7 162.89999999999998-205.7s155.39999999999998 90.4 162.89999999999998 205.7h-325.79999999999995z"/>
</svg>
