<svg xmlns="http://www.w3.org/2000/svg" viewBox="0 0 1000 1000" width="1000" height="1000">
<path d="M519.9 0c21 19.6 40.200000000000045 37.7 60.700000000000045 54.4 85.10000000000002 69.30000000000001 181.60000000000002 112.5 290.69999999999993 126.29999999999998 29.800000000000068 3.8000000000000114 59.90000000000009 5.700000000000017 90 5.300000000000011 9.600000000000023-0.09999999999999432 12.400000000000091 2.6999999999999886 10.5 12.199999999999989-14.099999999999909 70.90000000000003-31.399999999999977 141-53.09999999999991 210.10000000000002-2.5 8.099999999999966-6.100000000000023 11.199999999999989-14.800000000000068 11.099999999999966-124.29999999999995-0.2999999999999545-248.5-0.19999999999998863-372.79999999999995-0.0999999999999659-7.7000000000000455 0-12.200000000000045-0.6000000000000227-12.100000000000023-10.600000000000023 0.2999999999999545-133.8 0.20000000000004547-267.5 0.20000000000004547-401.3 0.1999999999999318-1.499999999999977 0.39999999999997726-2.999999999999977 0.6999999999999318-7.399999999999977z m-40.69999999999999 1c2.8000000000000114 5 1.8000000000000114 9 1.8000000000000114 12.8 0.10000000000002274 130.1-0.10000000000002274 260.3 0.30000000000001137 390.4 0 11.800000000000011-2.8000000000000114 15.300000000000011-14.900000000000034 15.300000000000011-123-0.5-245.99999999999997-0.39999999999997726-369 0-10.499999999999972 0-14.799999999999983-3.1000000000000227-17.99999999999997-13.300000000000011-20.700000000000003-66.80000000000001-38.800000000000004-134.2-50.10000000000001-203.29999999999998-2.3999999999999986-14.800000000000011-2.599999999999998-15.200000000000017 12.600000000000001-16.30000000000001 31.500000000000007-2.0999999999999943 63.1-3.5 94.6-7.400000000000006 110.9-13.899999999999977 208.5-57.499999999999986 292.5-131.6 16.80000000000001-14.899999999999991 33-30.599999999999994 50.19999999999999-46.599999999999994z m-0.6999999999999886 999c-21-18.799999999999955-42.30000000000001-36.799999999999955-62.5-56-137.60000000000002-130.20000000000005-236.7-286.20000000000005-307.6-461-10.59999999999998-26.100000000000023-10.799999999999983-26 17.700000000000017-26 113.9 0 227.9 0.10000000000002274 341.79999999999995-0.19999999999998863 10.100000000000023 0 13.400000000000034 2 13.400000000000034 12.800000000000011-0.4000000000000341 172.89999999999998-0.19999999999998863 345.69999999999993-0.30000000000001137 518.6 0 3.3999999999999773 1.1000000000000227 7.099999999999909-2.5 11.799999999999955z m40.799999999999955-1.5v-13.5c0-171.20000000000005 0.10000000000002274-342.5-0.1999999999999318-513.7 0-10.999999999999943 2-14.599999999999966 13.899999999999977-14.599999999999966 118.60000000000002 0.5 237.29999999999995 0.4000000000000341 355.9 0.10000000000002274 9.300000000000068 0 11.5 1.1999999999999886 7.800000000000068 10.899999999999977-79 208.00000000000006-203.4000000000001 383.8-372.80000000000007 527.8-0.7999999999999545 0.7999999999999545-1.7999999999999545 1.2999999999999545-4.600000000000023 3z"/>
</svg>
