<svg xmlns="http://www.w3.org/2000/svg" viewBox="0 0 1000 1000" width="1000" height="1000">
<path d="M884.6 0h-769.2c-63.49999999999998 0-115.39999999999998 52-115.39999999999998 115.3v769.3000000000001c0 63.39999999999998 51.9 115.39999999999998 115.4 115.39999999999998h769.2c63.39999999999998 0 115.29999999999995-52 115.29999999999995-115.39999999999998v-769.3000000000001c0-63.299999999999955-51.89999999999998-115.29999999999995-115.29999999999995-115.29999999999995z m-168.5 645.4c0 39-31.800000000000068 70.80000000000007-70.80000000000007 70.80000000000007h-290.79999999999995c-38.89999999999998 0-70.80000000000001-31.800000000000068-70.80000000000001-70.80000000000007v-290.79999999999995c0-39 31.900000000000034-70.80000000000001 70.80000000000001-70.80000000000001h290.79999999999995c39 0 70.80000000000007 31.80000000000001 70.80000000000007 70.80000000000001v290.79999999999995z"/>
</svg>
