<svg xmlns="http://www.w3.org/2000/svg" viewBox="0 0 1000 1000" width="1000" height="1000">
<path d="M386.6 462.6c13.699999999999989 0.2999999999999545 20.899999999999977-8 22.599999999999966-21.400000000000034-1.3999999999999773-13.5-8.599999999999966-21.80000000000001-22.19999999999999-21.5-13.600000000000023 0.19999999999998863-21.600000000000023 8.600000000000023-21.30000000000001 22.19999999999999 0.10000000000002274 13 8.300000000000011 20.30000000000001 20.900000000000034 20.700000000000045z m-14.600000000000023 184.69999999999993c76.80000000000001-64.79999999999995 200.79999999999995-87.5 291.4-33.59999999999991 1.3999999999999773 0.7999999999999545 3.300000000000068 0.8999999999999773 5.100000000000023 1.3999999999999773 3.3999999999999773-6.5 1.7000000000000455-13.100000000000023 1.7000000000000455-19.300000000000068 0.09999999999990905-137.49999999999994 0.5-274.99999999999994-0.3000000000000682-412.49999999999994 0-1.4000000000000057 0.3000000000000682-2.5 0.39999999999997726-3.9000000000000057-70.69999999999993-76.60000000000001-171.59999999999997-124.9-283.79999999999995-124.9-213.1 0-386.5 173.4-386.5 386.5 0 191.10000000000002 127.5 347.6 309.9 378.5-32.19999999999999-54.299999999999955 0.10000000000002274-119.89999999999998 62.10000000000002-172.20000000000005z m-235.3-329.19999999999993c-3 5.2999999999999545-6.599999999999994 10.199999999999989-10.299999999999983 15.099999999999966-3 3.900000000000034-6.900000000000006 7.800000000000011-12.300000000000011 5.699999999999989-5.599999999999994-2.099999999999966-5.3999999999999915-7.5-5.5-12.5-0.19999999999998863-7.599999999999966 2.5-14.399999999999977 6-20.799999999999955 32.099999999999994-59.20000000000002 78.20000000000002-104.00000000000003 137.70000000000002-135.3 0.5-0.30000000000001137 1.0999999999999943-0.6000000000000227 1.6999999999999886-0.700000000000017 9.899999999999977-2.5 22.30000000000001-13.299999999999983 29.30000000000001-0.09999999999999432 7.699999999999989 14.599999999999994-9.300000000000011 17.599999999999994-17.69999999999999 22.099999999999994-55.30000000000001 29.900000000000006-98.50000000000003 71.6-128.90000000000003 126.50000000000003z m84.10000000000002 29.69999999999999c-2.700000000000017 3.3999999999999773-6.5 6-11.200000000000017 4.300000000000011-4.900000000000006-1.900000000000034-4.799999999999983-6.600000000000023-4.900000000000006-12.100000000000023 0.30000000000001137-1.8000000000000114 0.10000000000002274-5.199999999999989 1.4000000000000057-7.800000000000011 17.30000000000001-34.5 43.599999999999994-59.89999999999998 78.79999999999998-75.80000000000001 5.100000000000023-2.299999999999983 11.200000000000045-2.599999999999966 14.700000000000045 3.3000000000000114 3.7999999999999545 6.300000000000011 1.5 12.600000000000023-4 16-30.200000000000045 18.69999999999999-52.900000000000034 44.900000000000034-74.80000000000001 72.10000000000002z m167.39999999999998-16.100000000000023c61.10000000000002 0.30000000000001137 108.60000000000002 48.60000000000002 108.30000000000001 110.30000000000001-0.30000000000001137 61.30000000000001-48.60000000000002 108.60000000000002-110.39999999999998 108.29999999999995-61.10000000000002-0.2999999999999545-108.5-48.599999999999966-108.20000000000005-110.29999999999995 0.30000000000001137-61.10000000000002 48.700000000000045-108.69999999999999 110.30000000000001-108.30000000000001z m601.9000000000001 96.19999999999999c-24.70000000000016-58.799999999999955-74.30000000000018-95.89999999999998-129.9000000000001-127.5-26.800000000000068-15.299999999999955-54.10000000000002-29.799999999999955-81.80000000000007-43.5-12.699999999999932-6.299999999999983-19.199999999999932-14.099999999999966-16.899999999999977-28.799999999999983 3.1000000000000227-19.799999999999983-2.2999999999999545-36-21.299999999999955-45.69999999999999h-14.300000000000068c-19.699999999999932 8.099999999999994-25.399999999999977 22.799999999999983-25.299999999999955 43.79999999999998 0.6999999999999318 137.40000000000003 0.39999999999997726 274.90000000000003 0.2999999999999545 412.40000000000003 0 6.2999999999999545 1.7000000000000455 12.799999999999955-1.6999999999999318 19.299999999999955-1.900000000000091-0.5-3.7000000000000455-0.5-5.100000000000023-1.3999999999999773-90.70000000000005-53.89999999999998-222.3-33.39999999999998-299.1 31.399999999999977-91.69999999999999 77.30000000000007-75.80000000000001 193.70000000000005 33.80000000000001 239.70000000000005 91.30000000000001 38.39999999999998 214.99999999999994 14.199999999999932 285.09999999999997-55.700000000000045 31.800000000000068-31.600000000000023 48.700000000000045-68.39999999999998 48.10000000000002-114.60000000000002-1.3999999999999773-117.19999999999993-0.2999999999999545-234.5-0.6000000000000227-351.69999999999993-0.10000000000002274-12.100000000000023 0.7000000000000455-19 16-16.30000000000001 53.89999999999998 9.300000000000011 102.60000000000002 29.19999999999999 143.89999999999998 65.80000000000001 27.90000000000009 24.69999999999999 49.200000000000045 54.39999999999998 67 88 20.600000000000023-51 9.300000000000068-95.10000000000002 1.8000000000000682-115.20000000000005z"/>
</svg>
