<svg xmlns="http://www.w3.org/2000/svg" viewBox="0 0 1000 1000" width="1000" height="1000">
<path d="M910.5 745.7c5.100000000000023-14.700000000000045 5-30 5.7999999999999545-45.200000000000045 1.5-30 2.800000000000068-59.89999999999998 4.2000000000000455-89.89999999999998 1.7000000000000455-37.89999999999998 3.2999999999999545-75.89999999999998 4.899999999999977-113.80000000000001 1.3999999999999773-31.400000000000034 2.800000000000068-62.69999999999999 4.2000000000000455-94 1.6000000000000227-38.69999999999999 3.2999999999999545-77.30000000000001 4.899999999999977-115.90000000000003 1-23.099999999999966 1.8999999999999773-46.29999999999998 2.8999999999999773-69.39999999999998 1.3000000000000682-31 2.5-62.099999999999994 4.100000000000023-93.2 0.39999999999997726-8.5-0.10000000000002274-17.200000000000003 1.5-25.799999999999997 0-1.2999999999999972 0-2.700000000000003 0-4.099999999999994 0.10000000000002274-1.6000000000000085-1.1000000000000227-0.5-1.6000000000000227-0.8000000000000114-4.399999999999977 1.6000000000000085-9 1.1000000000000085-13.399999999999977 1.5-36.200000000000045 2.9000000000000057-72.5 5.6000000000000085-108.70000000000005 8.400000000000006-35.89999999999998 2.700000000000003-71.89999999999998 5.5-107.79999999999995 8.200000000000003-30.600000000000023 2.299999999999997-61.200000000000045 4.5-91.79999999999995 6.8999999999999915-30.600000000000023 2.3000000000000114-61.200000000000045 4.800000000000011-91.80000000000007 7.1000000000000085l-91.79999999999995 6.8999999999999915c-20 1.5-40 3.200000000000017-60 4.700000000000017-2.6000000000000227 0.19999999999998863-3.5 0.8999999999999773-3.6000000000000227 3.5999999999999943-1 30.5-2.3000000000000114 61-3.5 91.6-1.1000000000000227 28-2.1999999999999886 56.10000000000002-3.1999999999999886 84.10000000000002-1.400000000000034 35.799999999999955-2.8000000000000114 71.5-4.199999999999989 107.29999999999995-1.1000000000000227 27.900000000000034-2.2000000000000455 55.80000000000001-3.3000000000000114 83.70000000000005-1.400000000000034 35.799999999999955-2.8000000000000114 71.5-4.100000000000023 107.29999999999995-0.8000000000000114 19.399999999999977-1.599999999999966 38.80000000000007-2.1999999999999886 58.200000000000045-0.10000000000002274 3.3999999999999773-1 3.5-3.8000000000000114 2.199999999999932-22.599999999999966-10.799999999999955-46.599999999999966-16-71.59999999999997-15-46.00000000000003 1.8000000000000682-87.60000000000002 15-120.80000000000001 48.700000000000045-15.400000000000006 15.600000000000023-26.700000000000017 33.5-30.80000000000001 55.39999999999998-0.4000000000000057 1.8000000000000682 0.20000000000000284 4-1.2999999999999972 5.5v19.899999999999977c1.7000000000000028 6.300000000000068 2.299999999999997 12.900000000000091 4.299999999999997 19.100000000000023 7.199999999999989 23 21.69999999999999 40.5 41.19999999999999 54 24.200000000000017 16.600000000000023 51 25.800000000000068 80.4 27.100000000000023 0.8000000000000114 0.10000000000002274 1.700000000000017-0.10000000000002274 2.3000000000000114 0.6000000000000227h14.099999999999994c0.8000000000000114-0.8999999999999773 2-0.6000000000000227 3.1000000000000227-0.6000000000000227 8.899999999999977-0.39999999999997726 17.799999999999955-1.7000000000000455 26.5-3.6000000000000227 36.19999999999999-7.600000000000023 67.5-24 91.79999999999995-52.39999999999998 13.800000000000011-16.200000000000045 22.900000000000034-34.700000000000045 25.30000000000001-55.89999999999998 1.8000000000000114-16 1.900000000000034-32.10000000000002 2.6000000000000227-48.200000000000045 1.1999999999999886-25.600000000000023 2.3000000000000114-51.19999999999993 3.3000000000000114-76.69999999999993 1.3999999999999773-34.40000000000009 2.7999999999999545-68.80000000000007 4.199999999999989-103.20000000000005 1.099999999999966-25.700000000000045 2.1999999999999886-51.39999999999998 3.3000000000000114-77.10000000000002l5-114.19999999999999c0.8999999999999773-22.30000000000001 2-44.599999999999966 2.7999999999999545-66.80000000000001 0.10000000000002274-2.8999999999999773 0.7000000000000455-4.099999999999966 3.8000000000000114-4.399999999999977 14-1.3000000000000114 27.900000000000034-2.8000000000000114 41.900000000000034-4.300000000000011 17.19999999999999-1.6999999999999886 34.5-3.5 51.69999999999993-5.199999999999989 20.800000000000068-2.1000000000000227 41.60000000000002-4.199999999999989 62.40000000000009-6.399999999999977l51.799999999999955-5.2000000000000455c20.799999999999955-2.099999999999966 41.60000000000002-4.199999999999989 62.39999999999998-6.2999999999999545l51.700000000000045-5.300000000000011c20.600000000000023-2.1000000000000227 41.10000000000002-4.100000000000023 61.60000000000002-6.200000000000017 18-1.799999999999983 35.89999999999998-3.4000000000000057 53.799999999999955-5.5 4-0.5 4.7999999999999545 0.700000000000017 4.5 4.400000000000006-1.2000000000000455 19.5-2.2000000000000455 39-3.2999999999999545 58.5-1.2000000000000455 22.80000000000001-2.400000000000091 45.60000000000002-3.6000000000000227 68.39999999999998-1.3000000000000682 22.400000000000034-2.6000000000000227 44.80000000000001-3.800000000000068 67.20000000000005-1.2999999999999545 22.899999999999977-2.5 45.89999999999998-3.699999999999932 68.79999999999995-1.5 28.899999999999977-3.1000000000000227 57.700000000000045-4.7000000000000455 86.60000000000002-0.6000000000000227 9.600000000000023-1.1999999999999318 19.299999999999955-1.7999999999999545 29.5-1.6000000000000227-0.7999999999999545-2.800000000000068-1.3999999999999773-4-2-21.300000000000068-10.899999999999977-43.89999999999998-16.600000000000023-67.70000000000005-17.399999999999977-14.799999999999955-0.5-29.399999999999977 1.1000000000000227-43.89999999999998 4-37.799999999999955 7.5-69.70000000000005 25.299999999999955-93.39999999999998 56-25.300000000000068 32.89999999999998-30.399999999999977 68.69999999999993-12.100000000000023 106.39999999999998 11.399999999999977 23.299999999999955 31.5 37.700000000000045 54.39999999999998 48.5 27.700000000000045 13.100000000000023 57 16.899999999999977 87.30000000000007 14 34.69999999999993-3.3999999999999773 66-15.200000000000045 93-37.60000000000002 17.199999999999932-14.199999999999932 30.799999999999955-31.199999999999932 38.299999999999955-52.69999999999993z m-801.9-169.60000000000002c11.299999999999983-1.3000000000000682 17.699999999999974-10.600000000000023 15.499999999999972-22.600000000000023-2.299999999999997-13-11.599999999999994-17.799999999999955-24.099999999999994-16-13.900000000000006 1.8999999999999773-27.299999999999997 5.600000000000023-40.2 11.600000000000023-29.9 13.699999999999932-51.9 37.19999999999993-58.599999999999994 67.39999999999998-1.2000000000000028 5.100000000000023-2.0000000000000027 10.700000000000045-2.886579864025407e-15 15.5 8.3 20.799999999999955 32.599999999999994 17.600000000000023 38.3 1.2000000000000455 11.700000000000003-33.80000000000007 33.3-52.90000000000009 69.1-57.10000000000002z m875.1999999999999 211.19999999999993c-14.899999999999977-2.3999999999999773-21.09999999999991 6.800000000000068-24 20.90000000000009-5.899999999999977 28.09999999999991-23.5 46-51 54.39999999999998-26.59999999999991 8.100000000000023-36.19999999999993 31.100000000000023-10 42.19999999999993 4.800000000000068 2 10.800000000000068 2.1000000000000227 15.5 0 7.400000000000091-3.2999999999999545 13.5-6 20.300000000000068-9.099999999999909 34.799999999999955-16 57.39999999999998-42 64.60000000000002-80.30000000000007 2.3999999999999773-13.399999999999977 0-25.5-15.400000000000091-28.100000000000023z m-737.9-179.89999999999998c-2.6999999999999886-16-15.699999999999989-18.5-29.899999999999977-15.799999999999955-10.599999999999994 1.8999999999999773-21.5 3.2999999999999545-31.900000000000006 6.399999999999977-68.69999999999999 20.200000000000045-113.1 65-133.3 133.5-4.799999999999983 16.5 3.6000000000000156 27.899999999999977 15.200000000000017 27.600000000000023 15.099999999999994 0 20.799999999999997-7 23.400000000000006-17.200000000000045 5.5-20.799999999999955 15.099999999999994-39.39999999999998 28.69999999999999-56 26.900000000000006-32.69999999999993 62.20000000000002-50.10000000000002 104.1-54.89999999999998 14.200000000000017-1.6000000000000227 26.400000000000006-7.100000000000023 23.700000000000017-23.600000000000023z"/>
</svg>
