<svg xmlns="http://www.w3.org/2000/svg" viewBox="0 0 1000 1000" width="1000" height="1000">
<path d="M0 24.5v951c0 13.5 11 24.5 24.6 24.5l950.9-0.7000000000000455c13.5 0 24.5-11 24.5-24.5v-950.3c0-13.5-11-24.5-24.5-24.5h-951c-13.5 0-24.5 11-24.5 24.5z m672.5 19h52.89999999999998c13.5 0 24.5 11 24.5 24.5v89.9c0 13.5-11 24.5-24.5 24.5h-52.89999999999998c-13.5 0-24.5-11-24.5-24.5v-89.9c0-13.5 11-24.5 24.5-24.5z m-198.2-0.6000000000000014h53.19999999999999c13.600000000000023 0 24.5 11 24.5 24.500000000000007v91.29999999999998c0 13.600000000000023-11 24.5-24.5 24.5h-53.19999999999999c-13.600000000000023 0-24.5-11-24.5-24.5v-91.19999999999999c0-13.600000000000001 10.899999999999977-24.6 24.5-24.6z m-197.60000000000002 0.20000000000000284h54.5c13.5 0 24.5 11 24.5 24.499999999999993v90.70000000000002c0 13.5-11 24.5-24.5 24.5h-54.5c-13.599999999999966 0-24.599999999999994-11-24.599999999999994-24.5v-90.70000000000002c0-13.499999999999993 11.000000000000028-24.499999999999993 24.599999999999994-24.499999999999993z m-208.39999999999998-0.30000000000000426h65.1c13.599999999999994 0 24.5 11 24.5 24.5v90.10000000000001c0 13.599999999999994-11 24.599999999999994-24.5 24.599999999999994h-65.10000000000001c-13.599999999999994 0-24.599999999999994-11-24.599999999999994-24.599999999999994v-90.10000000000001c0-13.5 11-24.5 24.599999999999994-24.5z m-1.1000000000000085 183.2h864.5c13.599999999999909 0 24.5 11 24.5 24.5v498.4c0 13.5-11 24.5-24.5 24.5h-864.5c-13.500000000000043 0-24.500000000000043-11-24.500000000000043-24.5v-498.4c0-13.5 11-24.5 24.5-24.5z m66.2 730.6h-65.2c-13.600000000000001 0-24.5-11-24.5-24.5v-90.10000000000002c0-13.600000000000023 10.899999999999999-24.600000000000023 24.5-24.600000000000023h65.2c13.599999999999994 0 24.599999999999994 11 24.599999999999994 24.600000000000023v90.10000000000002c0 13.5-11 24.5-24.599999999999994 24.5z m197.79999999999998-0.10000000000002274h-54.69999999999999c-13.600000000000023 0-24.5-11-24.5-24.5v-90.29999999999995c0-13.600000000000023 11-24.5 24.5-24.5h54.69999999999999c13.600000000000023 0 24.5 11 24.5 24.5v90.29999999999995c0 13.5-11 24.5-24.5 24.5z m196.59999999999997 0.8999999999999773h-53.799999999999955c-13.600000000000023 0-24.5-11-24.5-24.5v-91.19999999999993c0-13.600000000000023 11-24.5 24.5-24.5h53.799999999999955c13.5 0 24.5 11 24.5 24.5v91.19999999999993c0 13.5-11 24.5-24.5 24.5z m197.30000000000007-0.7999999999999545h-52c-13.600000000000023 0-24.600000000000023-11-24.600000000000023-24.600000000000023v-90.20000000000005c0-13.5 11-24.5 24.600000000000023-24.5h52c13.5 0 24.5 11 24.5 24.5v90.20000000000005c0 13.600000000000023-11 24.600000000000023-24.5 24.600000000000023z m206.60000000000002 0.8999999999999773h-61.200000000000045c-13.600000000000023 0-24.5-11-24.5-24.5v-91.20000000000005c0-13.599999999999909 11-24.5 24.5-24.5h61.200000000000045c13.599999999999909 0 24.59999999999991 11 24.59999999999991 24.5v91.20000000000005c0 13.5-11 24.5-24.59999999999991 24.5z m0.2999999999999545-775.3h-60.89999999999998c-13.5-5.684341886080802e-14-24.5-11.000000000000057-24.5-24.500000000000057v-90.89999999999999c0-13.599999999999994 11-24.599999999999994 24.5-24.599999999999994h60.89999999999998c13.5 0 24.5 11 24.5 24.599999999999994v90.8c0 13.599999999999994-11 24.599999999999994-24.5 24.599999999999994z m-273.70000000000005 312.99999999999994c-75-39.80000000000001-146.89999999999998-77.80000000000001-219.79999999999995-116.39999999999998-11.699999999999989-6.199999999999989-25.80000000000001 2.1999999999999886-25.80000000000001 15.5v233.3c0 13.199999999999932 14.199999999999989 21.699999999999932 25.900000000000034 15.5 73.5-39 145.39999999999998-77.20000000000005 219.79999999999995-116.70000000000005 12.399999999999977-6.600000000000023 12.399999999999977-24.599999999999966-0.10000000000002274-31.19999999999999z"/>
</svg>
