<svg xmlns="http://www.w3.org/2000/svg" viewBox="0 0 1000 1000" width="1000" height="1000">
<path d="M500.1 527.9c17.799999999999955 0.5 27.100000000000023-10.299999999999955 29.299999999999955-27.599999999999966-1.7999999999999545-17.5-11.100000000000023-28.19999999999999-28.799999999999955-27.900000000000034-17.5 0.30000000000001137-27.80000000000001 11.100000000000023-27.5 28.80000000000001 0.19999999999998863 16.69999999999999 10.799999999999955 26.19999999999999 27 26.69999999999999z m-0.10000000000002274-527.9c-275.7 0-500 224.3-500 500s224.3 500 500 500 500-224.29999999999995 500-500-224.29999999999995-500-500-500z m-233.3 359.3c22.400000000000034-44.69999999999999 56.400000000000034-77.5 101.90000000000003-98.10000000000002 6.599999999999966-3 14.599999999999966-3.3999999999999773 19.099999999999966 4.199999999999989 4.800000000000011 8.200000000000045 1.8000000000000114 16.400000000000034-5.300000000000011 20.80000000000001-39 24.19999999999999-68.39999999999998 58.10000000000002-96.69999999999999 93.19999999999999-3.5 4.400000000000034-8.399999999999977 7.900000000000034-14.5 5.5-6.300000000000011-2.3999999999999773-6.199999999999989-8.399999999999977-6.399999999999977-15.599999999999966 0.39999999999997726-2.3000000000000114 0.19999999999998863-6.600000000000023 1.8999999999999773-10z m-89.79999999999998-18.30000000000001c-3.8000000000000114 6.800000000000011-8.5 13.300000000000011-13.300000000000011 19.5-3.9000000000000057 5.100000000000023-8.799999999999983 10.100000000000023-16 7.399999999999977-7.099999999999994-2.6999999999999886-7-9.699999999999989-7-16.099999999999966-0.19999999999998863-9.800000000000011 3.3000000000000114-18.600000000000023 7.800000000000011-27 41.5-76.5 101.19999999999999-134.5 178.1-174.9 0.6999999999999886-0.4000000000000057 1.3999999999999773-0.8000000000000114 2.1000000000000227-1 12.899999999999977-3.200000000000017 29-17.099999999999994 37.89999999999998-0.09999999999999432 10 19-12 22.799999999999983-22.80000000000001 28.69999999999999-71.5 38.5-127.39999999999998 92.5-166.79999999999998 163.5z m325.29999999999995 17.600000000000023c79.00000000000011 0.39999999999997726 140.5000000000001 63 140.10000000000002 142.79999999999995-0.39999999999997726 79.10000000000002-62.799999999999955 140.39999999999998-142.79999999999995 140-79.10000000000002-0.39999999999997726-140.39999999999998-62.89999999999998-140-142.79999999999995 0.39999999999997726-79 63.10000000000002-140.5 142.7-140z m122.20000000000005 362.69999999999993c7.399999999999977-7.099999999999909 14.800000000000068-14.399999999999977 23-20.5 26.600000000000023-19.299999999999955 46.60000000000002-44.69999999999993 67.30000000000007-69.59999999999991 5.699999999999932-6.800000000000068 11.799999999999955-18.40000000000009 22.699999999999932-10.5 8.700000000000045 6.2999999999999545 5.7000000000000455 17.699999999999932 1.7000000000000455 26.299999999999955-11.899999999999977 25.600000000000023-31.399999999999977 45.299999999999955-52.10000000000002 63.799999999999955-15.299999999999955 13.700000000000045-31 27-49.60000000000002 29.5-8.799999999999955 0.10000000000002274-14.699999999999932 0-17.199999999999932-6.2999999999999545-1.900000000000091-4.899999999999977 0.6999999999999318-9.399999999999977 4.199999999999932-12.700000000000045z m15.600000000000023 123.60000000000002c7.399999999999977-5.7999999999999545 14.899999999999977-11.799999999999955 23-16.399999999999977 68-38 121.20000000000005-90.60000000000002 159.5-158.39999999999998 4.2999999999999545-7.5 9.200000000000045-14.700000000000045 14.5-21.600000000000023 3.8999999999999773-5.100000000000023 9.100000000000023-9.600000000000023 16.200000000000045-6.7999999999999545 7.199999999999932 2.7999999999999545 7.199999999999932 9.599999999999909 7.399999999999977 14.5-0.20000000000004547 12.199999999999932-4.800000000000068 21.5-9.700000000000045 30.5-38.89999999999998 71.19999999999993-94.29999999999995 126.19999999999993-164.5 166.5-11.699999999999932 6.699999999999932-24.199999999999932 11.799999999999955-38.10000000000002 11.399999999999977-5.699999999999932-0.10000000000002274-11.5-0.8000000000000682-13.5-7.300000000000068-1.599999999999909-5.2999999999999545 1.5-9.5 5.2000000000000455-12.399999999999977z"/>
</svg>
