<svg xmlns="http://www.w3.org/2000/svg" viewBox="0 0 1000 1000" width="1000" height="1000">
<path d="M999.9 254v490.20000000000005c0 6.7999999999999545-1.6999999999999318 12.899999999999977-3.6000000000000227 18.59999999999991-15.099999999999909 45.5-56.59999999999991 71.10000000000002-108.19999999999993 71.10000000000002-166.80000000000007-0.1999999999999318-333.70000000000005-0.10000000000002274-500.5-0.10000000000002274-94 0-187.90000000000003 0.20000000000004547-282-0.09999999999990905-51.60000000000002-0.20000000000004547-92.20000000000002-33.30000000000007-103.50000000000003-83.40000000000009-0.39999999999999436-1.599999999999909-0.7999999999999943-4.699999999999932-0.7999999999999943-4.699999999999932l-1.3-489.6c0-3.3000000000000114-0.1-5.599999999999994 0.5-8.099999999999994 9.4-42.5 46.6-81.9 90.2-81.9 28.89999999999999 0 43.89999999999999 0.09999999999999432 70.89999999999999 0.09999999999999432 11.400000000000006-0.799999999999983 16.700000000000017 4 21.900000000000006 12.900000000000006 36.099999999999994 60.900000000000006 72.69999999999999 121.5 108.89999999999998 182.3 5.600000000000023 9.399999999999977 12.900000000000034 13.899999999999977 23.80000000000001 13.899999999999977 122-0.0999999999999659 243.90000000000003-0.0999999999999659 365.90000000000003 0.10000000000002274 12 0 19.799999999999955-4.600000000000023 26-15 37-62.30000000000001 74.5-124.30000000000001 111.60000000000002-186.5 3.199999999999932-5.400000000000006 6.599999999999909-7.600000000000023 13-7.5 20.799999999999955 0.5 41.59999999999991 0.09999999999999432 62.5 0.19999999999998863 47.89999999999998 0.19999999999998863 91.29999999999995 31.5 104.19999999999993 77.80000000000001 1 3.1999999999999886 0.5 4.799999999999983 0.5 9.699999999999989z m-499.9 204.89999999999998v-0.0999999999999659c-34.19999999999999 0-68.30000000000001-0.10000000000002274-102.5 0-13.600000000000023 0.0999999999999659-22.399999999999977 8.099999999999966-22.5 21.5-0.30000000000001137 40.900000000000034-0.30000000000001137 81.90000000000003 0 122.90000000000003 0.10000000000002274 13.5 8.800000000000011 21.699999999999932 22.399999999999977 21.699999999999932 68.30000000000001 0.20000000000004547 136.60000000000002 0.20000000000004547 204.89999999999998 0.10000000000002274 13.900000000000091-0.10000000000002274 22.5-8.700000000000045 22.5-22.700000000000045 0.20000000000004547-40 0.20000000000004547-80.09999999999991 0-120.09999999999997-0.09999999999990905-15.699999999999989-7.7999999999999545-23.30000000000001-23.399999999999977-23.399999999999977-33.799999999999955 0-67.60000000000002 0.0999999999999659-101.39999999999998 0.0999999999999659z m-395.5 82.60000000000002c-0.20000000000000284 57.200000000000045 45.69999999999999 103.5 103.19999999999999 104.20000000000005 57.10000000000002 0.599999999999909 104.69999999999999-46.40000000000009 104.80000000000001-103.70000000000005 0.10000000000002274-56.60000000000002-46.69999999999999-104-103.4-104.39999999999998-57.29999999999998-0.5-104.39999999999999 46.299999999999955-104.6 103.89999999999998z m685.9 104.10000000000002c56.89999999999998 1.2999999999999545 103.39999999999998-44.39999999999998 105-103.30000000000007 1.6000000000000227-55.299999999999955-45.19999999999993-103.49999999999994-101.69999999999993-104.69999999999993-56.60000000000002-1.2000000000000455-104.5 44.599999999999966-106.20000000000005 101.5-1.7999999999999545 57.299999999999955 44.39999999999998 105.10000000000002 102.89999999999998 106.5z m-14.799999999999955-478.40000000000003c-22.399999999999977 37.30000000000001-44.10000000000002 73.60000000000002-65.80000000000007 109.69999999999999-10 16.700000000000045-20.299999999999955 33.30000000000001-30.09999999999991 50.200000000000045-2.7000000000000455 4.7999999999999545-5.600000000000023 6.7999999999999545-11.400000000000091 6.7999999999999545-111.89999999999998-0.19999999999998863-223.89999999999998-0.0999999999999659-335.79999999999995-0.0999999999999659-4.699999999999989 0-8.5-0.10000000000002274-11.399999999999977-5.100000000000023-31.400000000000034-52.69999999999999-63.10000000000002-105.29999999999998-94.70000000000002-158-0.4000000000000057-0.799999999999983-0.700000000000017-1.6999999999999886-1.3000000000000114-3.5h550.4z m-275.70000000000005 416.59999999999997c-24.69999999999999 0-49.39999999999998-0.39999999999997726-74.09999999999997 0.20000000000004547-8 0.10000000000002274-9.900000000000034-2.5-9.800000000000011-10 0.5-22.100000000000023 0.39999999999997726-44.200000000000045 0.10000000000002274-66.30000000000001-0.10000000000002274-6.099999999999966 1.6999999999999886-7.699999999999989 7.699999999999989-7.699999999999989 50.80000000000001 0.19999999999998863 101.49999999999994 0.19999999999998863 152.3 0 6-0.10000000000002274 7.7999999999999545 1.6999999999999886 7.699999999999932 7.699999999999989-0.39999999999997726 22.69999999999999-0.39999999999997726 45.50000000000006 0 68.30000000000001 0.10000000000002274 7-2.8999999999999773 7.899999999999977-8.799999999999955 7.7999999999999545-25-0.1999999999999318-50 0-75.10000000000002 0z m-354.09999999999997-41.799999999999955c-0.30000000000001137-34.5 27.799999999999983-62.89999999999998 62.19999999999999-63.10000000000002 34.19999999999999-0.19999999999998863 62.89999999999998 28.30000000000001 63.19999999999999 62.60000000000002 0.10000000000002274 34.39999999999998-28 62.700000000000045-62.5 62.89999999999998-34.79999999999998 0.10000000000002274-62.69999999999999-27.600000000000023-62.89999999999998-62.39999999999998z m708.4000000000001-0.2999999999999545c0 34.69999999999993-27.800000000000068 62.69999999999993-62.60000000000002 62.69999999999993-34.5 0-62.80000000000007-28.100000000000023-62.89999999999998-62.60000000000002 0-34.099999999999966 28.699999999999932-62.89999999999998 62.799999999999955-62.89999999999998 34.5 0 62.60000000000002 28.200000000000045 62.700000000000045 62.80000000000007z"/>
</svg>
