<svg xmlns="http://www.w3.org/2000/svg" viewBox="0 0 1000 1000" width="1000" height="1000">
<path d="M605.6 453.5c35.5 57.69999999999999 31.399999999999977 105.10000000000002-8.899999999999977 147.39999999999998-34.700000000000045 36.5-67.30000000000007 75.10000000000002-101.30000000000007 112.20000000000005-6.699999999999989 7.2999999999999545-8.899999999999977 14.299999999999955-7.599999999999966 23.899999999999977 16.399999999999977 117.79999999999995-53.60000000000002 223.60000000000002-168.40000000000003 255-134.79999999999998 37-273.79999999999995-59.799999999999955-285.9-199-11.100000000000001-127.70000000000005 76.7-236.29999999999995 203.2-251.20000000000005 2.6000000000000227-0.2999999999999545 5.400000000000006-0.8999999999999773 7.800000000000011-0.39999999999997726 30.80000000000001 6.5 50.10000000000002-8.699999999999932 68.5-31.599999999999966 25.899999999999977-32.30000000000001 54.80000000000001-62.30000000000001 82.80000000000001-92.90000000000003 38.80000000000001-42.39999999999998 78.39999999999998-50.599999999999966 132.2-28.899999999999977 10.200000000000045 4.100000000000023 11.700000000000045 6.600000000000023 3.7999999999999545 15.300000000000011-66.99999999999994 73.89999999999998-133.59999999999997 148.2-200.19999999999993 222.40000000000003-2.5 2.7999999999999545-5.100000000000023 5.2999999999999545-7.400000000000034 8.199999999999932-9.800000000000011 12.800000000000068-20.099999999999966 20.300000000000068-38.69999999999999 21-40 1.6000000000000227-72.4 42.60000000000002-68.80000000000001 81.60000000000002 4.100000000000023 44.39999999999998 41.80000000000001 77.70000000000005 84.10000000000002 74.10000000000002 43.099999999999966-3.7000000000000455 76.09999999999997-39.5 72.89999999999998-81.30000000000007-1-12.899999999999977 2.6999999999999886-21.299999999999955 11-30.5 70.5-77.89999999999998 140.50000000000006-156.0999999999999 210.7-234.19999999999993 3-3.3000000000000114 6.2000000000000455-6.7000000000000455 10.200000000000045-11.100000000000023z m-376.70000000000005 278c0.9000000000000341-38 32.200000000000045-68.60000000000002 69.20000000000005-66 9.699999999999989 0.7000000000000455 15.299999999999955-1.8999999999999773 21.5-8.700000000000045 105.79999999999995-118 211.79999999999995-235.89999999999998 317.79999999999995-353.79999999999995 39.700000000000045-44.10000000000002 79.20000000000005-88.30000000000001 118.80000000000007-132.4 4.099999999999909-4.599999999999994 8.799999999999955-8.299999999999983 5.899999999999977-16.19999999999999-6.800000000000068-18.400000000000006-2.6000000000000227-35.30000000000001 10-49.80000000000001 7.399999999999977-8.5 3.6000000000000227-12.399999999999991-4.899999999999977-13.299999999999997-10.800000000000068-1.2000000000000028-16.90000000000009-6.3999999999999915-16.600000000000023-16.799999999999997 0.10000000000002274-8 5-14 13.5-15.100000000000001 10.699999999999932-1.2999999999999972 16.899999999999977 4.100000000000001 18.899999999999977 14.399999999999999 0.8999999999999773 4.5 2.8999999999999773 9.600000000000009 7.5 8 5.7000000000000455-2 10.899999999999977-7.200000000000003 11.700000000000045-13.599999999999994 0.599999999999909-4.800000000000004-4.600000000000023-6.100000000000001-9.100000000000023-6.400000000000006-10.700000000000045-0.7999999999999972-16.300000000000068-6.699999999999996-15.700000000000045-17.5 0.39999999999997726-8.599999999999994 5.7000000000000455-13.699999999999996 13.899999999999977-14.399999999999999 9.600000000000023-0.8999999999999986 16.100000000000023 3.5 17.600000000000023 13.800000000000004 0.7000000000000455 4.899999999999999 3.300000000000068 10.599999999999994 8.600000000000023 8.199999999999996 4.7999999999999545-2.1000000000000014 9.799999999999955-7.5 11.200000000000045-12.399999999999999 1.599999999999909-5.700000000000003-4.800000000000068-6.399999999999999-9.5-6.899999999999999-9.700000000000045-1.2000000000000028-15.800000000000068-6.800000000000001-15.800000000000068-16.400000000000002-0.10000000000002274-8.799999999999999 5.5-15.1 14.300000000000068-16.099999999999998 9.699999999999932-1.1000000000000014 16.09999999999991 4.299999999999999 18.09999999999991 13.799999999999999 2.2000000000000455 10.999999999999998 7.2000000000000455 11.4 16.700000000000045 7.1 26.399999999999977-11.9 49.60000000000002-2.8000000000000007 69.29999999999995 15 19.40000000000009 17.5 29.800000000000068 39.7 21.200000000000045 66.3-3.7000000000000455 11.5-0.7000000000000455 15.400000000000006 10.299999999999955 16.60000000000001 9.100000000000023 1 14.5 6.599999999999994 14.200000000000045 15.699999999999989-0.20000000000004547 8-4.2999999999999545 14-12.899999999999977 15.599999999999994-10 1.9000000000000057-16.200000000000045-3-19-12.199999999999989-1.5-5.099999999999994-2-11.900000000000006-9-9.599999999999994-5 1.5999999999999943-10.100000000000023 6.900000000000006-10.700000000000045 12.599999999999994-0.6000000000000227 6.099999999999994 5.5 6 10.200000000000045 6.900000000000006 9.100000000000023 1.799999999999983 15.399999999999977 6.599999999999994 14.699999999999932 17.099999999999994-0.599999999999909 8.599999999999994-5.599999999999909 13.699999999999989-13.599999999999909 14.900000000000006-10 1.5999999999999943-15.800000000000068-3.5999999999999943-18-13.200000000000017-1.1000000000000227-4.699999999999989-2.800000000000068-10.699999999999989-8.200000000000045-9.199999999999989-5.899999999999977 1.5999999999999943-11.200000000000045 7.599999999999994-12.100000000000023 13.400000000000006-0.6999999999999318 4.799999999999983 5.7000000000000455 6.099999999999994 10.700000000000045 6.699999999999989 9.699999999999932 1.200000000000017 15.600000000000023 6.900000000000006 15 16.80000000000001-0.39999999999997726 8-5.399999999999977 13.900000000000006-13.600000000000023 15.199999999999989-10 1.5999999999999943-16.200000000000045-3.799999999999983-18.5-13-2.7000000000000455-11.099999999999994-6.2000000000000455-13.699999999999989-14.899999999999977-4.199999999999989-11.899999999999977 12.900000000000006-27.5 17-44.39999999999998 14.599999999999994-8.200000000000045-1.1999999999999886-13.5 1.0999999999999943-19 7.300000000000011-145.60000000000002 162.2-291.1 324.3-436.90000000000003 486.2-7.100000000000023 7.7999999999999545-6.900000000000034 15.100000000000023-5.800000000000011 24.299999999999955 4.800000000000011 38.40000000000009-25 73.10000000000002-63.60000000000002 74.70000000000005-37.89999999999998 1.3999999999999773-69.89999999999998-30-68.99999999999997-68z"/>
</svg>
