<svg xmlns="http://www.w3.org/2000/svg" viewBox="0 0 1000 1000" width="1000" height="1000">
<path d="M999.9 429.1h-1.6999999999999318c0-9.800000000000011 0.1999999999999318-19.5-0.10000000000002274-29.30000000000001-0.3000000000000682-9.600000000000023-1-19.19999999999999-1.7000000000000455-28.80000000000001-0.8999999999999773-11.899999999999977-2.1000000000000227-23.80000000000001-3.199999999999932-35.69999999999999s-1.3000000000000682-24-3.7000000000000455-35.60000000000002c-3.6000000000000227-17.5-8.100000000000023-34.80000000000001-13.299999999999955-51.79999999999998-4.7000000000000455-15.300000000000011-11.700000000000045-29.80000000000001-22.300000000000068-42-23.299999999999955-26.900000000000006-53.299999999999955-41.20000000000002-88.39999999999998-44.900000000000006-18.5-1.9000000000000057-37.200000000000045-3.0999999999999943-55.799999999999955-4.199999999999989-17.100000000000023-1.1000000000000227-34.200000000000045-1.9000000000000057-51.40000000000009-2.5-25.799999999999955-1-51.59999999999991-1.9000000000000057-77.39999999999998-2.6000000000000227-25.299999999999955-0.6999999999999886-50.60000000000002-1.3999999999999773-75.79999999999995-1.5999999999999943-49.60000000000002-0.29999999999998295-99.20000000000005-0.799999999999983-148.8-0.4000000000000057-50.30000000000001 0.4000000000000057-100.5 1.700000000000017-150.8 2.700000000000017-21.19999999999999 0.4000000000000057-42.39999999999998 1.0999999999999943-63.599999999999994 1.6999999999999886-6.700000000000017 0.20000000000001705-13.400000000000006 0.5-20.099999999999994 0.9000000000000057-22 1.3000000000000114-44 2.3000000000000114-65.9 4.199999999999989-14.700000000000017 1.3000000000000114-29.700000000000003 2.6000000000000227-44 6.100000000000023-31.5 7.599999999999994-56.900000000000006 24.899999999999977-74.4 52.39999999999998-12.7 20.200000000000017-19.7 42.80000000000001-24 66-3.5 18.900000000000034-5.6 38.10000000000002-7.6 57.30000000000001-2.0000000000000004 19.399999999999977-3.1000000000000005 38.89999999999998-4.2 58.30000000000001-1.0000000000000002 15.899999999999977-1.7000000000000002 31.80000000000001-1.7000000000000002 47.69999999999999 0 45.10000000000002 0.3 90.29999999999995 0.8 135.39999999999998 0.09999999999999998 11.300000000000068 0.8999999999999999 22.600000000000023 1.7 33.80000000000007 1.2000000000000002 16.09999999999991 2.5999999999999996 32.19999999999993 4 48.19999999999993 1 11.899999999999977 1.6999999999999993 23.899999999999977 3.5999999999999996 35.700000000000045 3.200000000000001 20.299999999999955 8.6 40 15.9 59.19999999999993 13.399999999999999 35.5 38.5 58.80000000000007 74.2 70.80000000000007 22.700000000000003 7.600000000000023 46.39999999999999 9.699999999999932 69.89999999999999 11.899999999999977 19 1.7999999999999545 38.099999999999994 2.3999999999999773 57.20000000000002 3.2999999999999545 15.699999999999989 0.7000000000000455 31.5 1.3000000000000682 47.30000000000001 1.7000000000000455 24.69999999999999 0.7000000000000455 49.39999999999998 1.2999999999999545 74.09999999999997 1.7000000000000455 22.900000000000034 0.39999999999997726 45.80000000000001 0.8999999999999773 68.69999999999999 1.099999999999909 40.200000000000045 0.40000000000009095 80.5 1.1000000000000227 120.60000000000002 0.8000000000000682 50.39999999999998-0.39999999999997726 100.79999999999995-1.7000000000000455 151.20000000000005-2.7000000000000455 20.699999999999932-0.39999999999997726 41.299999999999955-1.1000000000000227 62-1.6999999999999318 6.7999999999999545-0.20000000000004547 13.699999999999932-0.5 20.5-0.900000000000091 22.699999999999932-1.2999999999999545 45.39999999999998-2.3999999999999773 68-4.199999999999932 14.199999999999932-1.1000000000000227 28.59999999999991-2.1000000000000227 42.5-5.100000000000023 44.09999999999991-9.5 75.29999999999995-34.89999999999998 91.79999999999995-77.60000000000002 11.299999999999955-29.100000000000023 16.600000000000023-59.39999999999998 19.100000000000023-90.29999999999995 1.3999999999999773-17.5 3.1000000000000227-35 4-52.39999999999998 1.1999999999999318-22.40000000000009 2.2999999999999545-44.90000000000009 2.5-67.30000000000007 0.6000000000000227-39.69999999999999 0.2999999999999545-79.5 0.2999999999999545-119.29999999999995z m-603.3 200.79999999999995v-280.7c90.09999999999997 46.900000000000034 179.69999999999993 93.60000000000002 270.1 140.8-90.20000000000005 46.700000000000045-179.80000000000007 93.10000000000002-270.1 139.89999999999998z"/>
</svg>
