<svg xmlns="http://www.w3.org/2000/svg" viewBox="0 0 1000 1000" width="1000" height="1000">
<path d="M489.1 425.8c0.2999999999999545-64.19999999999999 0.2999999999999545-128.40000000000003 0.19999999999998863-192.5 0-26.200000000000017-14.900000000000034-35-37.80000000000001-22.30000000000001-80.10000000000002 44.400000000000006-160 88.89999999999998-240.2 133-7.200000000000017 4-9.700000000000017 8.5-9.700000000000017 16.600000000000023 0.30000000000001137 46.099999999999966 0.20000000000001705 92.29999999999995 0.20000000000001705 138.5h0c0 47.5 0 95-0.10000000000002274 142.60000000000002 0 4.699999999999932 0.700000000000017 8 5.5 10.599999999999909 82.19999999999999 44 164.10000000000002 88.30000000000007 246.40000000000003 132.20000000000005 20.19999999999999 10.799999999999955 35.799999999999955 0.7000000000000455 35.799999999999955-22.399999999999977-0.0999999999999659-62.80000000000007 0-125.70000000000005-0.19999999999998863-188.39999999999998-0.0999999999999659-6.5 1.6000000000000227-11.400000000000091 5.900000000000034-16.5 27.600000000000023-32.40000000000009 28-79.50000000000006 0.6999999999999886-112.10000000000002-5.100000000000023-6-6.699999999999989-11.900000000000034-6.699999999999989-19.30000000000001z m473.29999999999995-112.60000000000002c-30.399999999999977-72.69999999999999-75.89999999999998-134.39999999999998-135.79999999999995-185.5-3.7000000000000455-3.1999999999999886-6.2000000000000455-4.999999999999986-10.700000000000045-0.3999999999999915-18 18.500000000000014-36.299999999999955 36.7-54.69999999999993 54.8-4 4-3.5 6 0.6999999999999318 9.300000000000011 11 9 21.700000000000045 18.5 31.600000000000023 28.69999999999999 93.5 96.9 130.79999999999995 212.50000000000003 110.70000000000005 345-14.900000000000091 98.39999999999998-63.200000000000045 179.39999999999998-139.9000000000001 243.19999999999993-4.899999999999977 4.100000000000023-5.399999999999977 6.2000000000000455-0.6999999999999318 10.800000000000068 18.100000000000023 17.399999999999977 36 35.10000000000002 53.39999999999998 53.19999999999993 5 5.100000000000023 7.600000000000023 3.900000000000091 12.100000000000023 0 20.699999999999932-18.199999999999932 40.299999999999955-37.5 57.69999999999993-58.799999999999955 74.30000000000007-90.79999999999995 112-194.79999999999995 113.20000000000005-313.7-0.39999999999997726-63.5-12.5-126.30000000000001-37.60000000000002-186.60000000000002z m-122.89999999999998 126c-15.700000000000045-82-55.5-149.89999999999998-119.20000000000005-203.79999999999998-5.5-4.599999999999994-8.5-4-13.299999999999955 0.9000000000000057-16.5 17.099999999999994-33.200000000000045 33.89999999999998-50.39999999999998 50.30000000000001-6 5.699999999999989-6.600000000000023 8.299999999999955 0.5 14.199999999999989 79.60000000000002 65.89999999999998 110.89999999999998 150.5 92.10000000000002 251.8-11.100000000000023 60.10000000000002-42.700000000000045 109.29999999999995-90.80000000000007 147.5-6.100000000000023 4.7999999999999545-6.600000000000023 7.2999999999999545-0.7999999999999545 12.799999999999955 16.399999999999977 15.700000000000045 32.799999999999955 31.600000000000023 48.10000000000002 48.30000000000007 7.5 8.299999999999955 12.099999999999909 7.899999999999977 20 0.6999999999999318 77.79999999999995-69.69999999999993 117.5-156.69999999999993 119.59999999999991-260.7-0.7999999999999545-21-1.8999999999999773-41.599999999999966-5.7999999999999545-62z m-687.2-82.09999999999997c-36.299999999999955 0.2999999999999545-72.59999999999995-0.10000000000002274-108.99999999999996 0-26.799999999999997 0.0999999999999659-43.3 17.399999999999977-43.3 44.39999999999998 0 66.19999999999999 0 132.39999999999998 0 198.60000000000002 0 24.5 17.7 42.69999999999993 42.1 42.799999999999955 36.699999999999996 0 73.4-0.2999999999999545 110 0 7.099999999999994 0.10000000000002274 9.200000000000017-1.6000000000000227 9.099999999999994-8.899999999999977-0.29999999999998295-44.5-0.09999999999999432-89-0.09999999999999432-133.39999999999998 0-44.80000000000001-0.19999999999998863-89.60000000000002 0.09999999999999432-134.40000000000003 0.10000000000002274-7.300000000000011-1.799999999999983-9.199999999999989-8.899999999999977-9.099999999999966z m456.80000000000007-10.600000000000023c-3.7000000000000455-2.8999999999999773-6.600000000000023-6-11.700000000000045-0.6999999999999886-18.299999999999955 19-37.19999999999993 37.599999999999966-56 56.19999999999999-4.399999999999977 4.300000000000011-3.199999999999932 5.800000000000011 1.3999999999999773 8.600000000000023 71.40000000000009 42.099999999999966 68.10000000000002 139.89999999999998 2.2000000000000455 179.29999999999995-5.7000000000000455 3.3999999999999773-5 5.300000000000068-0.7999999999999545 9.399999999999977 17.899999999999977 17.600000000000023 35.799999999999955 35.200000000000045 53.09999999999991 53.40000000000009 5.5 5.7999999999999545 8.900000000000091 5.399999999999977 14.600000000000023 0.7999999999999545 47.5-39.299999999999955 72.20000000000005-89.5 73.80000000000007-153.39999999999998-1-61.80000000000001-26.300000000000068-113.80000000000001-76.60000000000002-153.60000000000002z"/>
</svg>
