<svg xmlns="http://www.w3.org/2000/svg" viewBox="0 0 1000 1000" width="1000" height="1000">
<path d="M502.1 1000c273.6-1.7000000000000455 497.6-227.89999999999998 496.5-501.3-1.1000000000000227-275.4-228.20000000000005-500.9-502.1-498.7-275 2.2-497.3 227.1-495.5 501.2 1.7999999999999998 277.59999999999997 225.8 500.50000000000006 501.1 498.8z m-220.20000000000005-532.6c59.400000000000034-35.099999999999966 119.30000000000001-69.5 179.70000000000005-102.79999999999995 35.69999999999999-19.700000000000045 57.299999999999955-5.800000000000011 58 35.799999999999955 0.10000000000002274 8.700000000000045 0 17.400000000000034 0 26.100000000000023 36-20.69999999999999 71.79999999999995-41.80000000000001 108.10000000000002-61.80000000000001 35.69999999999993-19.69999999999999 57.299999999999955-5.800000000000011 58 35.80000000000001 0.599999999999909 33 0.09999999999990905 66.10000000000002 0.09999999999990905 99.19999999999999h-0.09999999999990905c0 35.099999999999966 0.7999999999999545 70.19999999999999-0.20000000000004547 105.19999999999999-1.1000000000000227 35.10000000000002-24.100000000000023 49.200000000000045-54.89999999999998 32.30000000000007-37.39999999999998-20.600000000000023-74-42.60000000000002-110.89999999999998-64.10000000000002 0 10.600000000000023 0 21.199999999999932-0.3000000000000682 31.799999999999955-1.1000000000000227 35.10000000000002-24.099999999999966 49.200000000000045-54.89999999999998 32.30000000000007-62.19999999999999-34.30000000000007-123.80000000000001-69.70000000000005-184.5-106.60000000000002-30.5-18.700000000000045-29.30000000000001-44.80000000000001 1.8999999999999773-63.200000000000045z"/>
</svg>
