<svg xmlns="http://www.w3.org/2000/svg" viewBox="0 0 1000 1000" width="1000" height="1000">
<path d="M755.2 499.9v-414.9c0-3.5 0.2999999999999545-6.900000000000006-0.10000000000002274-10.400000000000006-1-10.899999999999991-6.7000000000000455-14.999999999999993-16.399999999999977-10.399999999999991-6.5 3.0999999999999943-12.400000000000091 7.700000000000003-17.90000000000009 12.5-92.79999999999995 81.49999999999999-185.5 163.10000000000002-278.09999999999997 244.8-11.300000000000011 10-23.80000000000001 14.699999999999989-38.89999999999998 14.600000000000023-46.19999999999999-0.30000000000001137-92.5-0.10000000000002274-138.7-0.10000000000002274-16.900000000000034 0-20.700000000000017 3.8000000000000114-20.700000000000017 20.399999999999977v286.6c0 16.799999999999955 3.799999999999983 20.700000000000045 20.400000000000006 20.700000000000045 46.599999999999966 0.09999999999990905 93.39999999999998 0 140 0 12.899999999999977 0 24.399999999999977 2.7999999999999545 34.599999999999966 11.699999999999932 93.30000000000007 82.30000000000007 186.70000000000005 164.39999999999998 280.1 246.39999999999998 6 5.300000000000068 13 9.800000000000068 20.100000000000023 13.700000000000045 8.299999999999955 4.600000000000023 13.100000000000023-0.10000000000002274 15-8 1-4.100000000000023 0.39999999999997726-8.600000000000023 0.39999999999997726-13v-414.6h0.20000000000004547z"/>
</svg>
