<svg xmlns="http://www.w3.org/2000/svg" viewBox="0 0 1000 1000" width="1000" height="1000">
<path d="M892.3 535.2c-17.399999999999977 0.1999999999999318-29.199999999999932-6.600000000000023-37.69999999999993-21.100000000000023-8.800000000000068-15-14.700000000000045-31.200000000000045-22-46.900000000000034-5.5-12.099999999999966-11.300000000000068-24.099999999999966-20.5-34-24.800000000000068-26.599999999999966-60.30000000000007-23.399999999999977-79.60000000000002 7.300000000000011-14.200000000000045 22.600000000000023-19.200000000000045 48.39999999999998-25.399999999999977 73.79999999999995-5.600000000000023 22.600000000000023-10 45.60000000000002-19.5 67.10000000000002-1.7000000000000455 4-3.2000000000000455 9.100000000000023-8.700000000000045 8.600000000000023-5.5-0.39999999999997726-6-5.7999999999999545-7.199999999999932-9.899999999999977-10.100000000000023-35.39999999999998-13.600000000000023-71.90000000000003-18.200000000000045-108.20000000000005-7.2999999999999545-58.299999999999955-10.799999999999955-117.19999999999999-31.299999999999955-173-4.5-12.299999999999955-10.300000000000068-23.69999999999999-18.800000000000068-33.5-20-28.099999999999966-42.799999999999955-22.99999999999997-56.69999999999993-15.599999999999966l-0.20000000000004547 0.09999999999999432c-0.8999999999999773 0.5-1.7999999999999545 1-2.6000000000000227 1.5-2.1000000000000227 1.1999999999999886-4 2.5-5.7999999999999545 3.9000000000000057-0.5 0.39999999999997726-1 0.6999999999999886-1.3999999999999773 1.099999999999966-0.3000000000000682 0.20000000000004547-0.6000000000000227 0.4000000000000341-0.8000000000000682 0.6000000000000227-1.2999999999999545 1.1000000000000227-2 1.8999999999999773-2 1.8999999999999773l-0.10000000000002274 0.10000000000002274c-3 2.8000000000000114-5.599999999999909 5.800000000000011-8.099999999999909 9.100000000000023l-0.10000000000002274 0.0999999999999659c-5.100000000000023 7-9.200000000000045 14.900000000000034-12.700000000000045 23.5-6.199999999999989 14.900000000000034-10.699999999999989 30.30000000000001-14 46.10000000000002-16.5 79.09999999999997-18.299999999999955 159.89999999999998-26.5 239.99999999999994-3.3999999999999773 34-7.199999999999989 68-15.599999999999966 101.30000000000007-0.9000000000000341 3.5-1.1000000000000227 8.799999999999955-6.600000000000023 8.699999999999932-4.5 0-5.399999999999977-4.5-6.599999999999966-7.699999999999932-6.5-17.399999999999977-11.200000000000045-35.30000000000007-15.100000000000023-53.39999999999998-10.699999999999989-49.10000000000002-16.5-99.20000000000005-29.19999999999999-147.90000000000003-6-22.600000000000023-12.400000000000034-45.19999999999999-27.400000000000034-63.900000000000034-19.899999999999977-24.69999999999999-52.299999999999955-25.099999999999966-73.09999999999997-1.099999999999966-6.699999999999989 7.599999999999966-11.699999999999989 16.30000000000001-15.800000000000011 25.599999999999966-16.399999999999977 37.700000000000045-21 78.30000000000007-28.599999999999994 118.10000000000002-4.400000000000006 22.899999999999977-8 46-16.599999999999994 67.89999999999998-1.3000000000000114 3.300000000000068-2.3000000000000114 7-7 7.100000000000023-4.800000000000011 0.20000000000004547-6-3.7000000000000455-7.300000000000011-6.899999999999977-3-7.5-5.699999999999989-15-8.300000000000011-22.600000000000023-9.399999999999977-26.899999999999977-17.19999999999999-54.60000000000002-33.599999999999994-78.5-16.69999999999999-24.5-39.599999999999994-36.89999999999998-69.39999999999999-36.69999999999999-32.7 0.19999999999998863-65.30000000000001 0-98 0.0999999999999659-4.8000000000000025 0-9.700000000000003-0.7999999999999545-14.200000000000003 1.7000000000000455v48.39999999999998c4.5 2.3999999999999773 9.4 1.7000000000000455 14.2 1.7000000000000455 31.099999999999998 0 62.099999999999994 0.5 93.1-0.20000000000004547 17.10000000000001-0.39999999999997726 28.10000000000001 7.2000000000000455 36.000000000000014 21.5 9.799999999999983 17.700000000000045 14.699999999999989 37.299999999999955 21.399999999999977 56.200000000000045 6.100000000000023 17.5 12 35.09999999999991 23 50.299999999999955 24.5 34.10000000000002 66.9 32.799999999999955 88.5-3.1000000000000227 17.400000000000034-28.899999999999977 22.400000000000034-61.69999999999993 28.600000000000023-94.10000000000002 6-31.09999999999991 10-62.69999999999993 19.399999999999977-93.19999999999993 1.1000000000000227-3.8000000000000114 2.6000000000000227-7.600000000000023 4-11.300000000000011 1.3000000000000114-3.400000000000034 2.3000000000000114-7.600000000000023 6.900000000000034-7.199999999999989 3.6999999999999886 0.2999999999999545 4.7999999999999545 4.199999999999989 5.7999999999999545 7.099999999999966 6.7000000000000455 18.600000000000023 11.200000000000045 37.80000000000001 15.100000000000023 57.099999999999966 10.399999999999977 51.200000000000045 16.69999999999999 103.20000000000005 31.600000000000023 153.5 3 10 6.5 19.90000000000009 10.599999999999966 29.5 9.800000000000011 23.300000000000068 23.69999999999999 42.90000000000009 49.80000000000001 50.10000000000002h9.699999999999989c22.100000000000023-5.600000000000023 33.60000000000002-21.699999999999932 41.400000000000034-41.69999999999993 14.699999999999932-37.5 19.299999999999955-77.10000000000002 23.699999999999932-116.70000000000005 8.300000000000068-74.5 10-149.5 21.800000000000068-223.7 3.1000000000000227-19 7-37.900000000000034 13.399999999999977-56.19999999999999 1.3999999999999773-3.900000000000034 1.6000000000000227-9.700000000000045 7.399999999999977-9.900000000000034 6.399999999999977-0.19999999999998863 7 5.900000000000034 8.600000000000023 10.100000000000023 10.700000000000045 28.099999999999966 15.200000000000045 57.5 19.5 87 8.200000000000045 57.69999999999999 10.799999999999955 116.30000000000001 24 173.3 3.7000000000000455 15.699999999999932 8.700000000000045 31 16.200000000000045 45.39999999999998 20.199999999999932 38.799999999999955 59 30.600000000000023 79.09999999999991 11.700000000000045 17.600000000000023-16.700000000000045 26.100000000000023-38.60000000000002 32.5-61.10000000000002 8.200000000000045-28.200000000000045 14.700000000000045-56.80000000000007 22.300000000000068-85.20000000000005 1.2999999999999545-4.599999999999966 1.5-11.799999999999955 8.100000000000023-12.099999999999966 6.5-0.30000000000001137 7.099999999999909 6.800000000000011 9.199999999999932 11.300000000000011 8.5 18.69999999999999 15.600000000000023 38 26.800000000000068 55.39999999999998 18.299999999999955 28.399999999999977 42.799999999999955 44.5 78.19999999999993 43.200000000000045 36.700000000000045-1.3000000000000682 73.39999999999998-0.3000000000000682 110.10000000000002-0.3000000000000682v-50.799999999999955c-35.89999999999998-0.3000000000000682-71.79999999999995-1.1000000000000227-107.70000000000005-0.39999999999997726z"/>
</svg>
