<svg xmlns="http://www.w3.org/2000/svg" viewBox="0 0 1000 1000" width="1000" height="1000">
<path d="M961.7 286.8h-93.90000000000009c0.40000000000009095-46.80000000000001 0.3000000000000682-93.60000000000002 0.3000000000000682-140.4 0-3.8000000000000114 0-7.700000000000017-0.10000000000002274-11.5-0.2999999999999545-23.400000000000006-12.200000000000045-34.900000000000006-35.700000000000045-34.900000000000006h-112.09999999999991c-183.5 0-367.00000000000006 0.09999999999999432-550.6 0.09999999999999432-7.700000000000017 0-15.300000000000011-0.19999999999998863-22.200000000000017 4.1000000000000085-11 6.8999999999999915-15.599999999999994 16.89999999999999-15.5 29.799999999999997 0.19999999999998863 50.900000000000006-0.20000000000001705 101.9 0.29999999999998295 152.8h-93.89999999999999c-21.199999999999996 0-38.3 17.099999999999966-38.3 38.30000000000001v536.3c0 21.100000000000023 17.1 38.30000000000007 38.3 38.30000000000007h923.4000000000001c21.09999999999991 0 38.299999999999955-17.200000000000045 38.299999999999955-38.30000000000007v-536.3c0-21.100000000000023-17.100000000000023-38.30000000000001-38.299999999999955-38.30000000000001z m-91.90000000000009 348.90000000000003c-0.5 43.19999999999993-35.5 77.69999999999993-78.5 77.39999999999998-42.89999999999998-0.20000000000004547-77.19999999999993-36-76.79999999999995-80 0.39999999999997726-41.39999999999998 36.200000000000045-75.60000000000002 78.5-75.10000000000002 42.89999999999998 0.6000000000000227 77.20000000000005 35.299999999999955 76.79999999999995 77.70000000000005z m-302.5-13c0.10000000000002274 7.5-2.199999999999932 9-9.199999999999932 8.899999999999977-38.89999999999998-0.3000000000000682-77.80000000000001-0.3000000000000682-116.70000000000005 0.10000000000002274-7.5 0-8.899999999999977-2.5-8.799999999999955-9.300000000000068 0.39999999999997726-21.699999999999932 0.19999999999998863-43.39999999999998 0.19999999999998863-65.10000000000002 0-21 0.19999999999998863-42.09999999999991-0.10000000000002274-63.099999999999966-0.0999999999999659-6.300000000000011 0.8000000000000114-9 8.100000000000023-8.899999999999977 38.89999999999998 0.39999999999997726 77.80000000000001 0.30000000000001137 116.69999999999999 0.0999999999999659 6.899999999999977-0.0999999999999659 9.899999999999977 1 9.799999999999955 9.100000000000023-0.39999999999997726 42.799999999999955-0.2999999999999545 85.5 0 128.20000000000005z m-281.79999999999995 13.5c-0.30000000000001137 42.19999999999993-35.69999999999999 77.19999999999993-78 77-42.69999999999999-0.20000000000004547-77.5-35.60000000000002-77.30000000000001-78.60000000000002 0.20000000000001705-42.5 35-76.70000000000005 77.9-76.60000000000002 43.20000000000002 0.10000000000002274 77.70000000000002 34.89999999999998 77.4 78.20000000000005z m-90.80000000000001-463.30000000000007c0-8.299999999999983 2.8000000000000114-9.999999999999972 10.400000000000006-9.899999999999977 98.6 0.19999999999998863 197.20000000000002 0.09999999999999432 295.9 0.09999999999999432 97.60000000000002 0 195.29999999999995 0.09999999999999432 293-0.19999999999998863 8.399999999999977 0 11.299999999999955 1.9000000000000057 11.200000000000045 10.900000000000006-0.40000000000009095 37.69999999999999-0.3000000000000682 75.39999999999998-0.10000000000002274 113h-119.30000000000007c0.3000000000000682-9.100000000000023 0.10000000000002274-18.19999999999999-0.09999999999990905-27.30000000000001-0.20000000000004547-17.900000000000006-13.900000000000091-32-31.200000000000045-32.099999999999994-16.600000000000023-0.09999999999999432-30.799999999999955 13.599999999999994-31.5 30.900000000000006-0.39999999999997726 9.5-0.39999999999997726 19-0.20000000000004547 28.5h-91.29999999999995c0.20000000000004547-9 0.10000000000002274-18-0.20000000000004547-26.900000000000034-0.599999999999909-18.69999999999999-13.5-32.099999999999966-30.799999999999955-32.49999999999997-17.5-0.30000000000001137-31.100000000000023 13.299999999999983-31.899999999999977 32.49999999999997-0.30000000000001137 8.900000000000034-0.30000000000001137 17.900000000000034-0.10000000000002274 26.900000000000034h-91.30000000000001c0.10000000000002274-8.900000000000034 0.10000000000002274-17.69999999999999 0-26.600000000000023-0.39999999999997726-18.5-14.399999999999977-32.89999999999998-31.69999999999999-32.79999999999998-17.69999999999999 0.09999999999999432-31.100000000000023 14.299999999999983-31.19999999999999 33.099999999999994-0.10000000000002274 8.699999999999989-0.30000000000001137 17.5 0 26.30000000000001h-119.5c0.29999999999998295-38 0.39999999999997726-76-0.10000000000002274-113.9z"/>
</svg>
