<svg xmlns="http://www.w3.org/2000/svg" viewBox="0 0 1000 1000" width="1000" height="1000">
<path d="M580.2 499.9v-414.9c0-3.5 0.2999999999999545-6.900000000000006-0.10000000000002274-10.400000000000006-1-10.899999999999991-6.7000000000000455-14.999999999999993-16.399999999999977-10.399999999999991-6.5 3.0999999999999943-12.400000000000091 7.700000000000003-17.90000000000009 12.5-92.79999999999995 81.49999999999999-185.49999999999994 163.10000000000002-278.09999999999997 244.8-11.300000000000011 10-23.799999999999983 14.699999999999989-38.89999999999998 14.600000000000023-46.20000000000002-0.30000000000001137-92.5-0.10000000000002274-138.70000000000002-0.10000000000002274-16.89999999999999 0-20.69999999999999 3.8000000000000114-20.69999999999999 20.399999999999977v286.6c0 16.799999999999955 3.799999999999997 20.700000000000045 20.39999999999999 20.700000000000045 46.60000000000001 0.09999999999990905 93.39999999999999 0 140 0 12.899999999999977 0 24.399999999999977 2.7999999999999545 34.599999999999966 11.699999999999932 93.30000000000001 82.30000000000007 186.70000000000005 164.39999999999998 280.1 246.39999999999998 6 5.300000000000068 13 9.800000000000068 20.100000000000023 13.700000000000045 8.299999999999955 4.600000000000023 13.100000000000023-0.10000000000002274 15-8 1-4.100000000000023 0.39999999999997726-8.600000000000023 0.39999999999997726-13v-414.6h0.20000000000004547z m154.5-324.4c-20.200000000000045 21.599999999999994-40.5 43.19999999999999-61.200000000000045 65.30000000000001-8.899999999999977 9.5-8.600000000000023 24.69999999999999 0.6000000000000227 34 61.69999999999993 62.89999999999998 110.79999999999995 131.8 116.29999999999995 223.7 5.5 91.89999999999998-35.5 165.70000000000005-89.69999999999993 234.79999999999995-8.100000000000023 10.300000000000068-6.800000000000068 25.5 3.099999999999909 34 23 19.90000000000009 45.700000000000045 39.40000000000009 68.30000000000007 59 9.899999999999977 8.600000000000023 25 7.600000000000023 33.39999999999998-2.5 190.89999999999998-229.5 151.79999999999995-471.79999999999995-37-649.5999999999999-9.5-9.000000000000057-24.799999999999955-8.200000000000045-33.799999999999955 1.2999999999999545z"/>
</svg>
