<svg xmlns="http://www.w3.org/2000/svg" viewBox="0 0 1000 1000" width="1000" height="1000">
<path d="M146.5 937.5c-8-5.2999999999999545-12.199999999999989-12.200000000000045-12.199999999999989-22.5 0.29999999999998295-276.5 0.29999999999998295-552.9 0.19999999999998863-829.4 0-8.500000000000028 1.3000000000000114-16.00000000000003 9.099999999999994-20.600000000000023 8.200000000000017-4.799999999999997 15.599999999999994-1.8999999999999986 23.099999999999994 2.5999999999999943 228.5 138 457.2 275.9 685.8 413.9 18.399999999999977 11 18.200000000000045 25.899999999999977-0.39999999999997726 37.10000000000002-228.10000000000002 137.69999999999993-456.20000000000005 275.4-684.4000000000001 413.1l-9.39999999999992 5.7999999999999545h-11.800000000000011z m25.400000000000006-51.200000000000045c213.6-129 426.1-257.19999999999993 639.9-386.29999999999995-214-129.10000000000002-426.49999999999994-257.4-639.9-386.2v772.5z"/>
</svg>
