<svg xmlns="http://www.w3.org/2000/svg" viewBox="0 0 1000 1000" width="1000" height="1000">
<path d="M501.4 0.5c-274.7-2.1-500.59999999999997 222.9-501.4 499.2-0.7 275.00000000000006 221.5 498.40000000000003 497.6 500.00000000000006 276.9 1.599999999999909 500.4-219.70000000000005 502.4-497.40000000000003 1.8999999999999773-275.5-220.89999999999998-499.7-498.6-501.8z m-1.3999999999999773 939.4c-243.2 0-438.4-194.60000000000002-439.6-438.29999999999995-1.1999999999999744-243.8 195.40000000000003-440.70000000000005 439.8-440.5 243.8 0.19999999999997442 438.3 194.09999999999997 439.40000000000003 438.09999999999997 1 244.00000000000006-195.20000000000005 440.7-439.6 440.7z m-121.69999999999999-516.7c73.59999999999997 0.3000000000000682 135.99999999999994-61.799999999999955 136.3-135.49999999999994 0.39999999999997726-73.69999999999999-61.5-135.6-135.70000000000005-135.89999999999998-74.09999999999997-0.30000000000001137-135.99999999999997 61.099999999999994-136.49999999999997 135.3-0.4000000000000057 73.29999999999995 62.099999999999994 135.89999999999998 135.9 136.09999999999997z m298.7 35.700000000000045c72.89999999999998 0.7000000000000455 136-61.69999999999999 137-135.39999999999998 1-72.69999999999999-62-136.4-135.39999999999998-137.2-73.10000000000002-0.700000000000017-136.30000000000007 61.89999999999998-136.89999999999998 135.5-0.5 73.59999999999997 61.39999999999998 136.3 135.29999999999995 137.09999999999997z m36 27.30000000000001c-74 0.10000000000002274-135.79999999999995 61.80000000000001-135.89999999999998 135.8 0 73.79999999999995 62 135.70000000000005 136 135.5 73.79999999999995-0.10000000000002274 136.39999999999998-62.39999999999998 136.10000000000002-135.60000000000002-0.3000000000000682-74-62.200000000000045-135.7-136.20000000000005-135.7z m-260.9 135.40000000000003c-74.70000000000005 0.39999999999997726-135 61.39999999999998-134.5 135.89999999999998 0.5 74.70000000000005 61.39999999999998 134.60000000000002 136.59999999999997 134.20000000000005 74.69999999999999-0.5 135.09999999999997-61.60000000000002 134.50000000000006-136.30000000000007-0.7000000000000455-74.89999999999998-61.10000000000002-134.19999999999993-136.60000000000002-133.79999999999995z m-73.10000000000002-75.10000000000002c-0.30000000000001137-74.80000000000001-61.69999999999999-135.89999999999998-135.7-135.2-74.5 0.8000000000000114-134.5 61.89999999999998-134.4 136.7 0.19999999999998863 74 62.099999999999994 135.60000000000002 135.9 135.10000000000002 74.5-0.39999999999997726 134.59999999999997-61.60000000000002 134.2-136.60000000000002z m85.80000000000001-45.80000000000001c0.0999999999999659 19.599999999999966 16.099999999999966 35.19999999999999 35.69999999999999 35.00000000000006 19.399999999999977-0.20000000000004547 35.39999999999998-16.40000000000009 35-35.700000000000045-0.20000000000004547-19.69999999999999-16.100000000000023-35-35.80000000000001-34.80000000000001-19.899999999999977 0.19999999999998863-35 15.600000000000023-34.89999999999998 35.5z"/>
</svg>
