<svg xmlns="http://www.w3.org/2000/svg" viewBox="0 0 1000 1000" width="1000" height="1000">
<path d="M968.1 347c-27.899999999999977-64.5-70.70000000000005-117.30000000000001-127.10000000000002-159-67.60000000000002-49.900000000000006-143.5-77.3-227.29999999999995-82.8-40.40000000000009-2.700000000000003-80.80000000000007-0.4000000000000057-114.20000000000005-1.1000000000000085-37.80000000000001 0-68.69999999999999-0.09999999999999432-99.5 0-46.80000000000001 0.20000000000000284-92.60000000000002 7-136.89999999999998 22.5-87.30000000000001 30.5-156.3 84.20000000000002-205.00000000000003 163.1-33.49999999999999 54.400000000000034-51.39999999999999 114.10000000000002-56.599999999999994 177.8-7.9 96.79999999999995 15.3 185.60000000000002 73.3 263.5 80.60000000000001 108.29999999999995 189.8 163.29999999999995 325.09999999999997 164.89999999999998 63.10000000000002 0.8000000000000682 126.30000000000007 0.10000000000002274 189.5 0.10000000000002274 19.800000000000068 0 39.60000000000002-1.7999999999999545 59.10000000000002-4.7999999999999545 74.70000000000005-11.600000000000023 141.89999999999998-41.10000000000002 200.5-88.70000000000005 89.5-72.70000000000005 143.5-165 150.39999999999998-281.79999999999995 3.5-60.30000000000007-7.2999999999999545-118.30000000000007-31.299999999999955-173.70000000000005z m-569.8 514.6c-198.80000000000007-1.1000000000000227-360.50000000000006-162.70000000000005-360.30000000000007-362.6 0.10000000000000142-198.5 160.9-361.7 361.5-362 200.89999999999998 0.09999999999999432 363.20000000000005 161.89999999999998 363.4 361.5 0.20000000000004547 199.79999999999995-161.79999999999995 364.1-364.59999999999997 363.1z m92.09999999999991-573.6c-7.899999999999977-3.3999999999999773-7.899999999999977-3.3999999999999773-7.899999999999977 5.300000000000011v206c0 68.90000000000003 0.10000000000002274 137.90000000000003-0.10000000000002274 206.8 0 6.7999999999999545 1.6000000000000227 7.399999999999977 7.5 4.7999999999999545 48.89999999999998-21.399999999999977 86.89999999999998-55 112.30000000000007-101.89999999999998 65.19999999999993-120.30000000000001 12.799999999999955-266.9-111.80000000000007-321z m-179.29999999999995-0.5c-15 6.800000000000011-29.30000000000001 14.699999999999989-42.900000000000034 24-73.29999999999998 50-112.19999999999999 146.89999999999998-93.1 233.20000000000005 11.400000000000006 51.799999999999955 36.20000000000002 95.39999999999998 77.6 129.69999999999993 17.900000000000034 14.800000000000068 37.10000000000002 26.700000000000045 58 36.30000000000007 7.400000000000034 3.3999999999999773 7.5 3.199999999999932 7.5-5.2000000000000455v-206c0-69.19999999999999-0.0999999999999659-138.3 0.19999999999998863-207.5 0-7-2.2999999999999545-6.800000000000011-7.2999999999999545-4.5z"/>
</svg>
