<svg xmlns="http://www.w3.org/2000/svg" viewBox="0 0 1000 1000" width="1000" height="1000">
<path d="M846.7 154.4h-693.4000000000001c-84.29999999999995 0-153.29999999999995 68.9-153.29999999999995 153.20000000000002v384.69999999999993c0 84.30000000000007 69 153.30000000000007 153.3 153.30000000000007h693.4000000000001c84.29999999999995 0 153.29999999999995-69 153.29999999999995-153.30000000000007v-384.69999999999993c0-84.30000000000001-69-153.20000000000002-153.29999999999995-153.20000000000002z m-47.60000000000002 255.6h36.19999999999993c13.900000000000091 0 24.800000000000068 3.1999999999999886 32.5 9.699999999999989s11.600000000000023 15.600000000000023 11.600000000000023 27.30000000000001c0 19.399999999999977-9.5 31.100000000000023-28.399999999999977 35.10000000000002l39.200000000000045 52.299999999999955h-29.90000000000009l-33.59999999999991-49.69999999999999h-3.400000000000091v49.69999999999999h-24.299999999999955v-124.39999999999998z m-84.70000000000005 0h68.70000000000005v21.30000000000001h-44.39999999999998v27.599999999999966h42.89999999999998v20.900000000000034h-42.89999999999998v33.599999999999966h44.39999999999998v20.899999999999977h-68.70000000000005v-124.29999999999995z m-104.19999999999993 0l33.19999999999993 83.60000000000002 33.60000000000002-83.60000000000002h26.5l-53.799999999999955 127.70000000000005h-13.100000000000023l-53-127.70000000000005h26.600000000000023z m-131.50000000000006 16.69999999999999c13.199999999999989-13.199999999999989 29.100000000000023-19.80000000000001 47.80000000000001-19.80000000000001s34.60000000000002 6.600000000000023 47.799999999999955 19.80000000000001c13.200000000000045 13.199999999999989 19.800000000000068 29.100000000000023 19.800000000000068 47.80000000000001s-6.600000000000023 34.60000000000002-19.800000000000068 47.799999999999955c-13.199999999999932 13.200000000000045-29.09999999999991 19.800000000000068-47.799999999999955 19.800000000000068s-34.60000000000002-6.600000000000023-47.80000000000001-19.800000000000068c-13.199999999999989-13.199999999999932-19.80000000000001-29.099999999999966-19.80000000000001-47.799999999999955 0.10000000000002274-18.69999999999999 6.600000000000023-34.60000000000002 19.80000000000001-47.80000000000001z m-104.59999999999997-0.5c12.799999999999955-12.599999999999966 28.399999999999977-18.899999999999977 46.89999999999998-18.899999999999977 10 0 19.899999999999977 2.5 29.899999999999977 7.5v28.69999999999999c-9.5-9.5-19.5-14.199999999999989-30.19999999999999-14.199999999999989-11.5 0-21.099999999999966 4.199999999999989-28.899999999999977 12.5s-11.800000000000011 18.5-11.800000000000011 30.399999999999977c0 12.400000000000034 3.8999999999999773 22.69999999999999 11.800000000000011 30.80000000000001 7.800000000000011 8.100000000000023 17.899999999999977 12.100000000000023 30.099999999999966 12.100000000000023 10.200000000000045 0 19.900000000000034-4.600000000000023 29.100000000000023-13.800000000000011v28.69999999999999c-9.699999999999989 4.7000000000000455-19.80000000000001 7.100000000000023-30.19999999999999 7.100000000000023-18.400000000000034 0-34-6.300000000000068-46.69999999999999-18.899999999999977s-19-27.900000000000034-19-46.10000000000002c-0.20000000000004547-17.900000000000034 6.199999999999989-33.30000000000001 19-45.900000000000034z m-59.200000000000045 58.80000000000001c-2-1.5-7.599999999999966-3.8999999999999773-16.799999999999955-7.100000000000023-11.400000000000034-4-19.400000000000034-8.5-23.900000000000034-13.599999999999966s-6.699999999999989-12-6.699999999999989-20.69999999999999c0-10 3.6999999999999886-18.400000000000034 11.199999999999989-25.200000000000045s16.69999999999999-10.299999999999955 27.600000000000023-10.299999999999955c14.199999999999989 0 26.399999999999977 4.599999999999966 36.599999999999966 13.799999999999955l-12.699999999999989 16.400000000000034c-6-6.699999999999989-12.599999999999966-10.100000000000023-19.80000000000001-10.100000000000023-5.199999999999989 0-9.5 1.3000000000000114-12.899999999999977 3.900000000000034s-5 5.899999999999977-5 9.899999999999977c0 3.5 1.3000000000000114 6.300000000000011 3.8999999999999773 8.600000000000023 2.6000000000000227 2.1999999999999886 7.5 4.599999999999966 14.700000000000045 7.099999999999966 13.699999999999989 5 23.099999999999966 10.199999999999989 28.19999999999999 15.699999999999989s7.699999999999989 13.200000000000045 7.699999999999989 23.100000000000023c0 12.199999999999989-4 22.100000000000023-11.899999999999977 29.700000000000045-8 7.599999999999909-18.30000000000001 11.399999999999977-31 11.399999999999977-17.700000000000045 0-32-8-42.900000000000034-23.899999999999977l15.699999999999989-14.900000000000034c5.7000000000000455 11 14.600000000000023 16.400000000000034 26.5 16.400000000000034 5.5 0 10-1.7000000000000455 13.400000000000034-5.000000000000057 3.5-3.3999999999999773 5.199999999999989-7.5 5.199999999999989-12.5 0-5.399999999999977-2.3999999999999773-9.699999999999989-7.100000000000023-12.699999999999989z m-120.99999999999997 35.10000000000002c-11.200000000000017 9.5-26 14.199999999999932-44.400000000000006 14.199999999999932h-35.5v-124.29999999999995h35.5c19.69999999999999 0 35.69999999999999 5.800000000000011 48.19999999999999 17.399999999999977 12.400000000000006 11.600000000000023 18.700000000000017 26.600000000000023 18.700000000000017 45-0.09999999999999432 19.100000000000023-7.5 35-22.5 47.700000000000045z m33.599999999999994-110.10000000000002h24.30000000000001v124.29999999999995h-24.30000000000001v-124.29999999999995z m738.1 251.39999999999998c0 84.30000000000007-69 153.30000000000007-153.30000000000007 153.30000000000007h-572.5999999999999c628-24.800000000000068 725.9-290.30000000000007 725.9-290.30000000000007v137z m-820.9000000000001-230.09999999999997h-6.299999999999926v82.09999999999997h6.299999999999983c14.900000000000006 0 26-3.1999999999999886 33.20000000000002-9.699999999999989 9-8.199999999999989 13.400000000000006-18.69999999999999 13.400000000000006-31.399999999999977 0-12.900000000000034-4.5-23.30000000000001-13.400000000000006-31-7-6.699999999999989-18.099999999999994-10-33.20000000000002-10z m709.7 16.80000000000001c0-12.200000000000045-7.7999999999999545-18.30000000000001-23.5-18.30000000000001h-7.5v37.69999999999999h7.100000000000023c15.899999999999977 0 23.899999999999977-6.5 23.899999999999977-19.399999999999977z"/>
</svg>
