<svg xmlns="http://www.w3.org/2000/svg" viewBox="0 0 1000 1000" width="1000" height="1000">
<path d="M350.1 409h-349c4.499999999999977-3.1000000000000227 6.799999999999978-5.100000000000023 9.299999999999978-6.399999999999977 52.6-27.700000000000045 105.19999999999999-55.400000000000034 158-82.80000000000001 3.6999999999999886-1.900000000000034 9.900000000000006-3 13.299999999999983-1.1999999999999886 55.400000000000006 28.599999999999966 110.5 57.599999999999966 165.7 86.69999999999999 0.9000000000000341 0.5 1.400000000000034 1.8000000000000114 2.7000000000000455 3.6999999999999886z m1.7999999999999545 211.39999999999998v25.800000000000068h-347.59999999999997v-25.800000000000068h347.59999999999997z m0 32.10000000000002v29.700000000000045h-347.59999999999997v-29.700000000000045h347.59999999999997z m-324.79999999999995-210.10000000000002h47.09999999999998v172.39999999999998h-47.1v-172.39999999999998z m132.29999999999998 173.39999999999998c-13.599999999999994 0-26.599999999999994-0.09999999999990905-39.60000000000001 0-8.5 0.10000000000002274-7.200000000000003-6.099999999999909-7.200000000000003-11.299999999999955-0.09999999999999432-41.39999999999998 0-82.89999999999998 0-124.30000000000001v-37.599999999999966h46.80000000000001v173.19999999999993z m192.49999999999997-200.59999999999997v21.69999999999999h-350.79999999999995c-0.3000000000000227-3.099999999999966-0.4000000000000228-5.899999999999977-0.8000000000000227-8.599999999999966-1.5-10 2.3-13.5 12.799999999999999-13.400000000000034 44.8 0.5 89.5 0.20000000000004547 134.3 0.20000000000004547h188.49999999999997c4.800000000000011 0.0999999999999659 9.700000000000045 0.0999999999999659 16 0.0999999999999659z m-109.49999999999997 199.90000000000003h-43.099999999999994v-172.5h43.099999999999994v172.5z m82.99999999999997 0h-43.099999999999966v-172.5h43.099999999999966v172.5z m268.5-88.10000000000002c0 6.899999999999977-1.3999999999999773 12.899999999999977-4.2999999999999545 18-2.800000000000068 5.100000000000023-6.7000000000000455 9.299999999999955-11.700000000000045 12.700000000000045s-10.699999999999932 5.899999999999977-17.299999999999955 7.599999999999909c-6.600000000000023 1.7000000000000455-13.600000000000023 2.6000000000000227-20.899999999999977 2.6000000000000227h-77.70000000000005v-159.59999999999997h88.79999999999995c5.5 0 10.600000000000023 1.1999999999999886 15.100000000000023 3.599999999999966s8.300000000000068 5.5 11.5 9.300000000000011c3.1000000000000227 3.8000000000000114 5.600000000000023 8.199999999999989 7.300000000000068 13 1.6999999999999318 4.900000000000034 2.599999999999909 9.900000000000034 2.599999999999909 14.900000000000034 0 7.599999999999966-1.8999999999999773 14.799999999999955-5.699999999999932 21.599999999999966-3.800000000000068 6.699999999999989-9.600000000000023 11.800000000000011-17.200000000000045 15.300000000000011 9.100000000000023 2.6999999999999886 16.399999999999977 7.5 21.700000000000045 14.399999999999977 5.199999999999932 7 7.7999999999999545 15.800000000000068 7.7999999999999545 26.600000000000023z m-95-87.19999999999999v33h36.10000000000002c4 0 7.600000000000023-1.3000000000000114 10.799999999999955-4 3.1000000000000227-2.6999999999999886 4.7000000000000455-6.900000000000034 4.7000000000000455-12.600000000000023 0-5.199999999999989-1.3999999999999773-9.300000000000011-4.2000000000000455-12.099999999999966s-6.099999999999909-4.300000000000011-10-4.300000000000011h-37.39999999999998z m57.5 79.80000000000001c0-4.899999999999977-1.3999999999999773-9.100000000000023-4.2999999999999545-12.600000000000023-2.800000000000068-3.3999999999999773-6.399999999999977-5.199999999999989-10.800000000000068-5.199999999999989h-42.49999999999994v34.80000000000001h40.900000000000034c4.7999999999999545 0 8.799999999999955-1.6000000000000227 11.899999999999977-4.7000000000000455 3.199999999999932-3.1000000000000227 4.7999999999999545-7.199999999999932 4.7999999999999545-12.299999999999955z m89.89999999999998 50.5c-5.7999999999999545 0-11.299999999999955-0.8999999999999773-16.299999999999955-2.800000000000068s-9.299999999999955-4.5-12.899999999999977-7.899999999999977c-3.6000000000000227-3.3999999999999773-6.399999999999977-7.2999999999999545-8.5-11.899999999999977s-3.1000000000000227-9.600000000000023-3.1000000000000227-14.899999999999977c0-5.800000000000068 1.2000000000000455-11.200000000000045 3.7000000000000455-16s6-8.900000000000034 10.5-12.400000000000034c4.5-3.3999999999999773 9.799999999999955-6.099999999999966 16-8.099999999999966 6.099999999999909-1.900000000000034 13-2.900000000000034 20.5-2.900000000000034 4.899999999999977 0 9.699999999999932 0.4000000000000341 14.399999999999977 1.1999999999999886 4.600000000000023 0.8000000000000114 8.699999999999932 2.1000000000000227 12.100000000000023 3.7000000000000455v-5.400000000000034c0-13.599999999999966-7.900000000000091-20.5-23.600000000000023-20.5-6.399999999999977 0-12.600000000000023 1.1000000000000227-18.399999999999977 3.3000000000000114s-12 5.399999999999977-18.40000000000009 9.800000000000011l-10.599999999999909-22.5c7.7999999999999545-5.100000000000023 15.899999999999977-8.900000000000034 24.299999999999955-11.5 8.399999999999977-2.5 17.299999999999955-3.8000000000000114 26.700000000000045-3.8000000000000114 17.799999999999955 0 31.59999999999991 4.199999999999989 41.39999999999998 12.600000000000023 9.699999999999932 8.399999999999977 14.600000000000023 20.69999999999999 14.600000000000023 36.89999999999998v30.299999999999955c0 3.6000000000000227 0.6999999999999318 6.100000000000023 2 7.5s3.699999999999932 2.300000000000068 7.199999999999932 2.6000000000000227v30.300000000000068c-3.3999999999999773 0.6999999999999318-6.600000000000023 1.1999999999999318-9.600000000000023 1.5-2.8999999999999773 0.1999999999999318-5.5 0.2999999999999545-7.7999999999999545 0.2999999999999545-6.600000000000023-0.20000000000004547-11.600000000000023-1.5-15.100000000000023-4-3.3999999999999773-2.5-5.600000000000023-6.2000000000000455-6.5-11l-0.6999999999999318-5.399999999999977c-5.2000000000000455 6.699999999999932-11.5 11.899999999999977-18.800000000000068 15.5-7.399999999999977 3.699999999999932-15 5.5-23.100000000000023 5.5z m10.5-25.800000000000068c3.900000000000091 0 7.7000000000000455-0.6999999999999318 11.300000000000068-2 3.699999999999932-1.2999999999999545 6.699999999999932-3.099999999999909 9.100000000000023-5.399999999999977 3.3999999999999773-2.699999999999932 5.199999999999932-5.5 5.199999999999932-8.5v-11.199999999999932c-3.1000000000000227-1.2000000000000455-6.600000000000023-2.1000000000000227-10.199999999999932-2.800000000000068-3.7000000000000455-0.6999999999999318-7.100000000000023-1-10.200000000000045-1-6.600000000000023 0-12 1.5-16.299999999999955 4.5s-6.400000000000091 6.899999999999977-6.400000000000091 11.700000000000045c0 4.2999999999999545 1.6000000000000227 7.899999999999977 4.900000000000091 10.699999999999932 3.2999999999999545 2.6000000000000227 7.5 4 12.599999999999909 4z m202.30000000000007 23.600000000000023h-36v-66.29999999999995c0-7.800000000000011-1.5-13.400000000000034-4.399999999999977-17-2.900000000000091-3.5-6.800000000000068-5.300000000000011-11.600000000000023-5.300000000000011-2.5 0-5.100000000000023 0.5-7.800000000000068 1.599999999999966-2.599999999999909 1-5.099999999999909 2.5-7.399999999999977 4.400000000000034s-4.5 4.099999999999966-6.399999999999977 6.599999999999966c-1.8999999999999773 2.5-3.3999999999999773 5.300000000000011-4.5 8.300000000000011v67.59999999999997h-36v-117.99999999999994h32.39999999999998v19.80000000000001c4.300000000000068-7 10.5-12.5 18.399999999999977-16.30000000000001s17.100000000000023-5.699999999999989 27.40000000000009-5.699999999999989c7.599999999999909 0 13.799999999999955 1.3999999999999773 18.5 4.199999999999989s8.399999999999977 6.399999999999977 10.899999999999977 10.800000000000011 4.199999999999932 9.299999999999955 5.100000000000023 14.5c0.7999999999999545 5.199999999999989 1.1999999999999318 10.299999999999955 1.1999999999999318 15.299999999999955v75.5z m102.69999999999993 0l-30.799999999999955-47.39999999999998-12.600000000000023 13v34.39999999999998h-36v-164.09999999999997h36v95.09999999999997l40-49h38.200000000000045l-42.5 50.80000000000001 45.799999999999955 67.19999999999999h-38.10000000000002z m-440.29999999999995 48.60000000000002h-23.30000000000001v60.700000000000045h-14.199999999999989v-60.700000000000045h-23.399999999999977v-12.5h60.89999999999998v12.5z m39.89999999999998 18.600000000000023c-4.199999999999932 0.10000000000002274-7.899999999999977 0.8999999999999773-11.199999999999932 2.3999999999999773s-5.7000000000000455 3.8999999999999773-7.100000000000023 7v32.700000000000045h-13.800000000000068v-54h12.700000000000045v11.5c1.8999999999999773-3.7000000000000455 4.2999999999999545-6.7000000000000455 7.2999999999999545-9s6.100000000000023-3.400000000000091 9.400000000000091-3.400000000000091c0.7999999999999545 0 1.2999999999999545 0 1.6999999999999318 0.10000000000002274 0.39999999999997726 0 0.7000000000000455 0.10000000000002274 1.1000000000000227 0.20000000000004547v12.5z m21.700000000000045 43.10000000000002c-2.6000000000000227 0-5-0.40000000000009095-7.300000000000068-1.3000000000000682s-4.199999999999932-2.1000000000000227-5.899999999999977-3.6000000000000227c-1.6000000000000227-1.5-2.8999999999999773-3.2999999999999545-3.8999999999999773-5.399999999999977-0.8999999999999773-2.1000000000000227-1.3999999999999773-4.2999999999999545-1.3999999999999773-6.7999999999999545s0.6000000000000227-4.899999999999977 1.6999999999999318-7.100000000000023c1.1000000000000227-2.2000000000000455 2.7000000000000455-4 4.7000000000000455-5.5s4.399999999999977-2.7000000000000455 7.2999999999999545-3.6000000000000227c2.800000000000068-0.8999999999999773 5.900000000000091-1.2999999999999545 9.300000000000068-1.2999999999999545 2.3999999999999773 0 4.7999999999999545 0.1999999999999318 7.100000000000023 0.6000000000000227s4.2999999999999545 1 6.099999999999909 1.7999999999999545v-3.1000000000000227c0-3.6000000000000227-1-6.2999999999999545-3-8.199999999999932s-5-2.900000000000091-9-2.900000000000091c-2.8999999999999773 0-5.699999999999932 0.5-8.399999999999977 1.5s-5.600000000000023 2.5-8.399999999999977 4.5l-4.2000000000000455-8.799999999999955c6.900000000000091-4.600000000000023 14.400000000000091-6.899999999999977 22.5-6.899999999999977 7.800000000000068 0 13.800000000000068 1.8999999999999773 18.100000000000023 5.699999999999932s6.399999999999977 9.300000000000068 6.399999999999977 16.5v16.800000000000068c0 1.3999999999999773 0.3000000000000682 2.5 0.8000000000000682 3.1000000000000227s1.5 1 2.8999999999999773 1v11.699999999999932c-1.2999999999999545 0.3000000000000682-2.5 0.5-3.7000000000000455 0.6000000000000227-1.099999999999909 0.10000000000002274-2.099999999999909 0.20000000000004547-2.8999999999999773 0.20000000000004547-2.6000000000000227-0.10000000000002274-4.600000000000023-0.7000000000000455-6-1.8000000000000682s-2.199999999999932-2.699999999999932-2.6000000000000227-4.600000000000023l-0.2999999999999545-3c-2.3999999999999773 3.2000000000000455-5.2999999999999545 5.600000000000023-8.799999999999955 7.2000000000000455-3.5 1.7999999999999545-7.2000000000000455 2.7000000000000455-11.100000000000023 2.7000000000000455z m3.8999999999999773-10.100000000000023c2.2999999999999545 0 4.5-0.39999999999997726 6.600000000000023-1.2000000000000455s3.699999999999932-1.8999999999999773 4.899999999999977-3.2999999999999545c1.5-1.2000000000000455 2.2999999999999545-2.5 2.2999999999999545-3.8999999999999773v-6.2000000000000455c-1.599999999999909-0.6000000000000227-3.3999999999999773-1.1000000000000227-5.399999999999977-1.5-1.8999999999999773-0.39999999999997726-3.7999999999999545-0.6000000000000227-5.600000000000023-0.6000000000000227-3.599999999999909 0-6.5 0.8000000000000682-8.799999999999955 2.3999999999999773s-3.3999999999999773 3.7000000000000455-3.3999999999999773 6.100000000000023c0 2.300000000000068 0.8999999999999773 4.300000000000068 2.699999999999932 5.800000000000068 1.900000000000091 1.599999999999909 4.100000000000023 2.3999999999999773 6.7000000000000455 2.3999999999999773z m91 9h-13.799999999999955v-30.300000000000068c0-4.2999999999999545-0.8000000000000682-7.5-2.300000000000068-9.5s-3.6000000000000227-3-6.2999999999999545-3c-1.3999999999999773 0-2.800000000000068 0.3000000000000682-4.2000000000000455 0.8000000000000682-1.3999999999999773 0.6000000000000227-2.7999999999999545 1.2999999999999545-4.100000000000023 2.2999999999999545s-2.3999999999999773 2.2000000000000455-3.5 3.6000000000000227c-1 1.3999999999999773-1.7999999999999545 2.8999999999999773-2.2999999999999545 4.5v31.5h-13.799999999999955v-54h12.5v10c2-3.3999999999999773 4.899999999999977-6.100000000000023 8.699999999999932-8s8-2.8999999999999773 12.800000000000068-2.8999999999999773c3.3999999999999773 0 6.099999999999909 0.6000000000000227 8.199999999999932 1.8999999999999773 2.1000000000000227 1.2000000000000455 3.800000000000068 2.7999999999999545 4.899999999999977 4.7999999999999545 1.2000000000000455 2 2 4.300000000000068 2.400000000000091 6.800000000000068s0.6999999999999318 5.100000000000023 0.6999999999999318 7.699999999999932v33.80000000000007z m33.10000000000002 1.1000000000000227c-2.2000000000000455 0-4.5-0.20000000000004547-6.800000000000068-0.5-2.3999999999999773-0.3000000000000682-4.699999999999932-0.8000000000000682-7-1.400000000000091s-4.399999999999977-1.3999999999999773-6.5-2.2999999999999545c-2.099999999999909-0.8999999999999773-3.8999999999999773-1.8999999999999773-5.5-3l5.600000000000023-9.399999999999977c6.899999999999977 4.5 13.5 6.699999999999932 19.899999999999977 6.699999999999932 2.900000000000091 0 5.100000000000023-0.5 6.800000000000068-1.5 1.6000000000000227-1 2.5-2.5 2.5-4.399999999999977s-1-3.2999999999999545-2.8999999999999773-4.2999999999999545c-2-0.8999999999999773-5.2000000000000455-1.8999999999999773-9.800000000000068-3-3.5-0.8000000000000682-6.5-1.7000000000000455-9-2.6000000000000227s-4.5-1.8999999999999773-6-3.1000000000000227c-1.5-1.1999999999999318-2.6000000000000227-2.5-3.2999999999999545-4s-1-3.2999999999999545-1-5.399999999999977c0-2.7000000000000455 0.5-5.2000000000000455 1.6000000000000227-7.399999999999977s2.599999999999909-4.100000000000023 4.599999999999909-5.600000000000023c2-1.5 4.300000000000068-2.7000000000000455 6.900000000000091-3.6000000000000227 2.599999999999909-0.7999999999999545 5.5-1.1999999999999318 8.599999999999909-1.1999999999999318 3.800000000000068 0 7.7000000000000455 0.599999999999909 11.5 1.7999999999999545s7.400000000000091 2.7999999999999545 10.700000000000045 4.899999999999977l-5.7000000000000455 8.5c-3-1.8999999999999773-5.899999999999977-3.2999999999999545-8.5-4.199999999999932-2.699999999999932-0.900000000000091-5.399999999999977-1.3000000000000682-8-1.3000000000000682-2.5 0-4.599999999999909 0.5-6.199999999999932 1.3999999999999773-1.7000000000000455 1-2.5 2.5-2.5 4.600000000000023 0 1.8999999999999773 0.7999999999999545 3.2000000000000455 2.3999999999999773 4s4.5 1.8000000000000682 8.600000000000023 2.800000000000068c3.7999999999999545 1 7.100000000000023 1.8999999999999773 9.799999999999955 2.8999999999999773s4.899999999999977 2.1000000000000227 6.7000000000000455 3.2999999999999545c1.7999999999999545 1.2000000000000455 3 2.7000000000000455 3.7999999999999545 4.300000000000068s1.2000000000000455 3.599999999999909 1.2000000000000455 5.7999999999999545c0 2.6000000000000227-0.5 5-1.6000000000000227 7.100000000000023s-2.6000000000000227 3.8999999999999773-4.5 5.399999999999977c-1.8999999999999773 1.5-4.2999999999999545 2.6000000000000227-7.100000000000023 3.3999999999999773-2.7999999999999545 0.8999999999999773-5.899999999999977 1.3000000000000682-9.299999999999955 1.3000000000000682z m34.10000000000002-1.1000000000000227v-37.10000000000002h-7v-10.600000000000023h7v-6.699999999999932c0-6.7000000000000455 1.599999999999909-12.100000000000023 4.899999999999977-16s7.600000000000023-5.900000000000091 13.100000000000023-5.900000000000091c4.399999999999977 0 8.799999999999955 1.1000000000000227 13.299999999999955 3.2000000000000455l-2.7999999999999545 10.399999999999977c-1-0.5-2.300000000000068-1-3.7000000000000455-1.3999999999999773s-2.7000000000000455-0.6000000000000227-3.8999999999999773-0.6000000000000227c-4.800000000000068 0-7.2000000000000455 3.2000000000000455-7.2000000000000455 9.700000000000045v7.199999999999932h13.200000000000045v10.600000000000023h-13.100000000000023v37.10000000000002h-13.799999999999955z m60.89999999999998 1.1000000000000227c-4.300000000000068 0-8.200000000000045-0.7000000000000455-11.700000000000045-2.2000000000000455s-6.5-3.5-9-6-4.399999999999977-5.5-5.699999999999932-8.899999999999977-2-6.899999999999977-2-10.600000000000023c0-3.7999999999999545 0.6999999999999318-7.5 2-10.899999999999977s3.199999999999932-6.399999999999977 5.699999999999932-9c2.5-2.6000000000000227 5.5-4.600000000000023 9-6.100000000000023s7.5-2.2999999999999545 11.899999999999977-2.2999999999999545 8.300000000000068 0.7999999999999545 11.800000000000068 2.2999999999999545 6.399999999999977 3.5 8.899999999999977 6.100000000000023c2.3999999999999773 2.5 4.2999999999999545 5.5 5.600000000000023 8.899999999999977s1.8999999999999773 6.899999999999977 1.8999999999999773 10.5c0 0.8999999999999773 0 1.7999999999999545-0.10000000000002274 2.6000000000000227 0 0.7999999999999545-0.10000000000002274 1.5-0.2999999999999545 2.1000000000000227h-41.700000000000045c0.20000000000004547 2.099999999999909 0.7000000000000455 4 1.5 5.699999999999932 0.8000000000000682 1.6000000000000227 1.8999999999999773 3.1000000000000227 3.2000000000000455 4.2000000000000455 1.2999999999999545 1.1999999999999318 2.7999999999999545 2.1000000000000227 4.399999999999977 2.699999999999932s3.3999999999999773 0.900000000000091 5.100000000000023 0.900000000000091c2.699999999999932 0 5.2999999999999545-0.7000000000000455 7.7999999999999545-2 2.3999999999999773-1.3000000000000682 4.100000000000023-3.1000000000000227 5-5.300000000000068l11.800000000000068 3.300000000000068c-2 4.099999999999909-5.2000000000000455 7.5-9.5 10.099999999999909-4.300000000000068 2.5-9.5 3.900000000000091-15.600000000000023 3.900000000000091z m14-32.60000000000002c-0.3000000000000682-4.100000000000023-1.8000000000000682-7.300000000000068-4.5-9.700000000000045-2.6000000000000227-2.3999999999999773-5.899999999999977-3.699999999999932-9.600000000000023-3.699999999999932-1.8999999999999773 0-3.6000000000000227 0.2999999999999545-5.2000000000000455 1s-3 1.599999999999909-4.2999999999999545 2.699999999999932c-1.2000000000000455 1.2000000000000455-2.2000000000000455 2.6000000000000227-3 4.2000000000000455s-1.2999999999999545 3.5-1.3999999999999773 5.5h28z m54.799999999999955-10.5c-4.199999999999932 0.10000000000002274-7.899999999999977 0.8999999999999773-11.199999999999932 2.3999999999999773s-5.7000000000000455 3.8999999999999773-7.100000000000023 7v32.700000000000045h-13.800000000000068v-54h12.700000000000045v11.5c1.8999999999999773-3.7000000000000455 4.2999999999999545-6.7000000000000455 7.2999999999999545-9s6.100000000000023-3.400000000000091 9.400000000000091-3.400000000000091c0.7999999999999545 0 1.2999999999999545 0 1.6999999999999318 0.10000000000002274 0.39999999999997726 0 0.7000000000000455 0.10000000000002274 1.1000000000000227 0.20000000000004547v12.5z"/>
</svg>
