<svg xmlns="http://www.w3.org/2000/svg" viewBox="0 0 1000 1000" width="1000" height="1000">
<path d="M257 500v-0.30000000000001137c0-33.19999999999999 26.19999999999999-60.89999999999998 62.39999999999998-60.89999999999998 12.200000000000045 0 23.30000000000001 3.099999999999966 32.5 8.5-22.5-73.69999999999999-90.89999999999998-127.19999999999999-171.99999999999997-127.19999999999999-99.4-0.10000000000002274-179.9 80.5-179.9 179.89999999999998s80.6 180 180 180c81.39999999999998 0 150.2-54.10000000000002 172.39999999999998-128.29999999999995-9.299999999999955 5.599999999999909-21 8.899999999999977-33.39999999999998 8.899999999999977-36.19999999999999 0-62-27.399999999999977-62-60.60000000000002z m-117 60h-85v-17.799999999999955l39.7-34.50000000000006c16.200000000000003-13.599999999999966 21.599999999999994-21.19999999999999 21.599999999999994-31.80000000000001 0-11.599999999999966-8.5-18.299999999999955-19.200000000000003-18.299999999999955-10.799999999999997 0-18.299999999999997 5.899999999999977-27.39999999999999 17.69999999999999l-14.700000000000003-11.400000000000034c11.299999999999997-15.799999999999955 21.700000000000003-24.69999999999999 42.7-24.69999999999999 23.099999999999994 0 38.2 14.100000000000023 38.2 35.19999999999999v0.30000000000001137c0 18.5-9.100000000000009 29.400000000000034-30 46.400000000000034l-23.60000000000001 21h57.7v17.899999999999977z m71.19999999999999-18.399999999999977c12.100000000000023 0 20.700000000000017-4.2000000000000455 29.100000000000023-11.100000000000023l13.899999999999977 13.5c-11.199999999999989 10.299999999999955-24.899999999999977 16.600000000000023-44.29999999999998 16.600000000000023-34.30000000000001 0-60.80000000000001-26.800000000000068-60.80000000000001-60.60000000000002v-0.30000000000001137c0-33.5 26-60.89999999999998 61.70000000000002-60.89999999999998 20.19999999999999 0 33.39999999999998 6.599999999999966 44.19999999999999 16.19999999999999l-14.300000000000011 14.199999999999989c-8.399999999999977-6.899999999999977-17.799999999999983-11.399999999999977-29.5-11.399999999999977-22.599999999999994 0-39.099999999999994 18.5-39.099999999999994 41.599999999999966v0.30000000000001137c-0.09999999999999432 23.000000000000057 16.5 41.900000000000034 39.099999999999994 41.900000000000034z m109.10000000000002-83.80000000000001c-23.400000000000034 0-40.30000000000001 18.69999999999999-40.30000000000001 41.599999999999966v0.30000000000001137c0 22.900000000000034 17.30000000000001 41.900000000000034 40.69999999999999 41.900000000000034s40.30000000000001-18.700000000000045 40.30000000000001-41.60000000000002v-0.30000000000001137c0-22.899999999999977-17.30000000000001-41.89999999999998-40.69999999999999-41.89999999999998z m146.89999999999998 50.5c9.600000000000023-6.900000000000034 14.800000000000011-11.199999999999989 14.800000000000011-21.600000000000023v-0.19999999999998863c0-12.199999999999989-9.5-20.69999999999999-23.69999999999999-20.69999999999999-12.600000000000023 0-19.30000000000001 4.899999999999977-26.30000000000001 13.899999999999977l12.199999999999989 10.100000000000023c5.100000000000023-5.800000000000011 8.600000000000023-8.300000000000011 12.900000000000034-8.300000000000011s7.199999999999989 2.5 7.199999999999989 6.600000000000023c0 3.8999999999999773-1.6999999999999886 6.899999999999977-7.699999999999989 11.699999999999989l-23.600000000000023 18.599999999999966v14.600000000000023h49v-18h-25.69999999999999l10.899999999999977-6.699999999999989z m53.69999999999999 8.499999999999943c-9.099999999999966 0-15.899999999999977-7.599999999999966-15.899999999999977-17.299999999999955v-0.19999999999998863c0-9.5 6.800000000000011-17.19999999999999 15.899999999999977-17.19999999999999 6.2000000000000455 0 10.700000000000045 3 14.399999999999977 7.599999999999966l13.600000000000023-10.5c-5.699999999999932-8-14.399999999999977-13.5-27.600000000000023-13.5-19.599999999999966 0-34.299999999999955 14.800000000000011-34.299999999999955 33.69999999999999v0.20000000000004547c0 19.399999999999977 15.100000000000023 33.5 33.60000000000002 33.5 14.399999999999977 0 22.699999999999932-6.2000000000000455 28.799999999999955-14.700000000000045l-13.699999999999932-9.599999999999966c-3.900000000000091 4.800000000000011-8.100000000000023 7.999999999999943-14.800000000000068 7.999999999999943z m420.1-50.799999999999955v18h23v49h18v-49h18v-18z m-301 40h31v-13h-31v-9h36v-18h-54v67h54v-18h-36z m279-2.5c0 9.100000000000023-4.2999999999999545 13.299999999999955-11.5 13.299999999999955s-11.5-4.399999999999977-11.5-13.799999999999955v-37h-18v37.5c0 20.299999999999955 10.899999999999977 29.700000000000045 29.299999999999955 29.700000000000045s29.700000000000045-9.200000000000045 29.700000000000045-30.100000000000023v-37h-18v37.39999999999998z m-111.79999999999995-37.5h-21.300000000000068l-24.899999999999977 27.399999999999977v-27.399999999999977h-18v67h18v-17.899999999999977l7.7999999999999545-6.7000000000000455 17.600000000000023 24.600000000000023h21.600000000000023l-25.399999999999977-38z m-94.20000000000005 50.799999999999955c-9.100000000000023 0-15-7.599999999999966-15-17.299999999999955v-0.19999999999998863c0-9.5 5.899999999999977-17.19999999999999 15-17.19999999999999 6.2000000000000455 0 10.200000000000045 3 13.899999999999977 7.599999999999966l13.399999999999977-10.5c-5.699999999999932-8-13.599999999999909-13.5-26.799999999999955-13.5-19.600000000000023 0-33.5 14.800000000000011-33.5 33.69999999999999v0.20000000000004547c0 19.399999999999977 14.100000000000023 33.5 32.700000000000045 33.5 14.399999999999977 0 22.199999999999932-6.2000000000000455 28.299999999999955-14.700000000000045l-13.5-9.599999999999966c-3.7999999999999545 4.800000000000011-7.7999999999999545 7.999999999999943-14.5 7.999999999999943z m125.10000000000002-51.099999999999966c-20 0-36.10000000000002 15.100000000000023-36.10000000000002 33.69999999999999v0.20000000000004547c0 18.600000000000023 15.899999999999977 33.5 35.89999999999998 33.5s36.10000000000002-15.100000000000023 36.10000000000002-33.700000000000045v-0.19999999999998863c0-18.5-15.899999999999977-33.5-35.89999999999998-33.5z m17.899999999999977 34c0 9.300000000000011-8 17.30000000000001-17.899999999999977 17.30000000000001-9.800000000000068 0-18.100000000000023-8.199999999999989-18.100000000000023-17.5v-0.19999999999998863c0-9.400000000000034 8-17.30000000000001 17.899999999999977-17.30000000000001s18.100000000000023 8.199999999999989 18.100000000000023 17.5v0.19999999999998863z m-261-6.699999999999989h-23v-27h-18v67h18v-27h23v27h18v-67h-18z"/>
</svg>
