<svg xmlns="http://www.w3.org/2000/svg" viewBox="0 0 1000 1000" width="1000" height="1000">
<path d="M846.7 154.4h-693.4000000000001c-84.29999999999995 0-153.29999999999995 68.9-153.29999999999995 153.20000000000002v384.69999999999993c0 84.30000000000007 69 153.30000000000007 153.3 153.30000000000007h693.4000000000001c84.29999999999995 0 153.29999999999995-69 153.29999999999995-153.30000000000007v-384.69999999999993c0-84.30000000000001-69-153.20000000000002-153.29999999999995-153.20000000000002z m-577.5 334.29999999999995c-10.600000000000023 5.800000000000068-22.200000000000045 8.500000000000057-34.200000000000045 9.900000000000091-7.199999999999989 0.7999999999999545-14.400000000000006 0.8999999999999773-21.69999999999999 0.8999999999999773-6.100000000000023 0-9.800000000000011 3.1999999999999886-11.200000000000017 9.199999999999989-2.1999999999999886 9.699999999999989-4.5 19.30000000000001-6.699999999999989 28.900000000000034-1.0999999999999943 4.5-5.300000000000011 7.899999999999977-9.900000000000006 7.899999999999977-6.800000000000011 0.10000000000002274-13.599999999999994 0.10000000000002274-20.30000000000001 0-4.599999999999994 0-7.299999999999983-3.5-6.199999999999989-7.899999999999977l16.5-71.90000000000003 12.099999999999994-52.5c1.200000000000017-5.300000000000011 5.400000000000006-8.599999999999966 10.700000000000017-8.599999999999966h28.399999999999977c7.100000000000023 0.0999999999999659 16-0.30000000000001137 24.900000000000006 0.39999999999997726 9.599999999999994 0.6999999999999886 19.099999999999994 2 27.799999999999983 6.5 10.5 5.5 16.400000000000034 14.199999999999989 17.600000000000023 26 1 9.100000000000023 0 18-3.6999999999999886 26.399999999999977-5 11.200000000000045-13.5 19-24.100000000000023 24.80000000000001z m129.29999999999995 3.000000000000057c-3.3999999999999773 15.300000000000011-7 30.500000000000057-10.600000000000023 45.80000000000001-1.099999999999966 4.899999999999977-5.2999999999999545 8.200000000000045-10.199999999999989 8.299999999999955-5.399999999999977 0.10000000000002274-10.800000000000011 0.10000000000002274-16.19999999999999 0.10000000000002274-5.899999999999977 0-8.399999999999977-3.2999999999999545-7-9 0.10000000000002274-0.6000000000000227 0.19999999999998863-1.2999999999999545 0.39999999999997726-2.3999999999999773-2.7999999999999545 1.7999999999999545-5.099999999999966 3.3999999999999773-7.5 4.899999999999977-11.5 7.800000000000068-24.19999999999999 10.800000000000068-38 9-14.599999999999966-1.8999999999999773-24.399999999999977-14.100000000000023-23.399999999999977-28.799999999999955 0.6999999999999886-9.900000000000034 3.8999999999999773-18.600000000000023 11.5-25.30000000000001 5.5-4.900000000000034 12-7.900000000000034 18.899999999999977-10.300000000000011 7.900000000000034-2.6999999999999886 16.100000000000023-4.100000000000023 24.400000000000034-5.199999999999989 8.199999999999989-1.1000000000000227 16.30000000000001-2 24.5-2.400000000000034 2.599999999999966-0.0999999999999659 3.3000000000000114-1.1999999999999886 3.5-3.6999999999999886 0.5999999999999659-6.099999999999966-2.6999999999999886-9.699999999999989-8.300000000000011-11.199999999999989-7.800000000000011-2.1000000000000227-15.699999999999989-2.3000000000000114-23.69999999999999-1.3999999999999773s-15.699999999999989 2.7999999999999545-23.30000000000001 5.399999999999977c-3.8999999999999773 1.3999999999999773-5.800000000000011-0.30000000000001137-4.899999999999977-4.399999999999977 0.7999999999999545-4.300000000000011 1.7999999999999545-8.600000000000023 3-12.800000000000011 1.2999999999999545-4.5 4.5-7.300000000000011 9.199999999999989-8.199999999999989 14-2.900000000000034 28.19999999999999-4.2000000000000455 42.5-3.5 8.899999999999977 0.39999999999997726 17.80000000000001 1.5 26.19999999999999 5.099999999999966 9.800000000000011 4.199999999999989 15 12.900000000000034 14.199999999999989 23.600000000000023-0.5999999999999659 9-3.1999999999999886 17.599999999999966-5.199999999999989 26.399999999999977z m122.60000000000002-25.5c-7.100000000000023 11.800000000000011-14 23.600000000000023-21 35.400000000000034l-30 50.69999999999993c-6.5 11.100000000000023-13.100000000000023 22.100000000000023-19.600000000000023 33.30000000000007-1.8999999999999773 3.199999999999932-4.100000000000023 6-7.300000000000011 7.7999999999999545-2.3000000000000114 1.3000000000000682-4.800000000000011 2.1000000000000227-7.5 2-3.1999999999999886-0.10000000000002274-6.5 0-9.699999999999989 0h-11.100000000000023c-3.3999999999999773 0-5-2.199999999999932-3.8999999999999773-5.399999999999977 1.3999999999999773-3.8999999999999773 3.8000000000000114-7.2000000000000455 5.800000000000011-10.700000000000045 4.199999999999989-7.599999999999909 8.599999999999966-15 12.899999999999977-22.59999999999991 1.6999999999999886-2.900000000000091 1.3000000000000114-6.2000000000000455 0.9000000000000341-9.300000000000068-2-15.699999999999932-4.900000000000034-31.299999999999955-7.600000000000023-46.89999999999998-3.1000000000000227-18.19999999999999-6.300000000000011-36.30000000000001-9.5-54.5-0.8000000000000114-4.899999999999977 1.8000000000000114-8 6.600000000000023-8h16.19999999999999c8.399999999999977 0 12.099999999999966 3.1999999999999886 13.399999999999977 11.5l8.300000000000011 50.69999999999999c0.19999999999998863 1 0.39999999999997726 2 1.6000000000000227 2.1999999999999886s1.6999999999999886-0.7999999999999545 2.1999999999999886-1.599999999999966l27.399999999999977-47 4.100000000000023-7c3.599999999999966-5.800000000000011 8.5-9.100000000000023 15.599999999999966-8.900000000000034s14.200000000000045 0.10000000000002274 21.300000000000068 0c4.599999999999909-0.0999999999999659 4.599999999999909 2.1000000000000227 3.699999999999932 5.2000000000000455-1 3.2999999999999545-2.7999999999999545 6.099999999999966-4.600000000000023 8.899999999999977-2.8999999999999773 4.600000000000023-5.2999999999999545 9.5-8.199999999999932 14.199999999999989z m120.29999999999995 22.900000000000034c-13.199999999999932 7.399999999999977-27.699999999999932 9.899999999999977-42.60000000000002 10.699999999999989-4.899999999999977 0.30000000000001137-9.699999999999932 0.30000000000001137-14.599999999999909 0.30000000000001137-4.600000000000023 0-8.700000000000045 3.1999999999999886-9.800000000000068 7.699999999999989-2.2999999999999545 9.800000000000011-4.5 19.69999999999999-6.7999999999999545 29.599999999999966-1.2000000000000455 5.399999999999977-5.300000000000068 8.700000000000045-10.899999999999977 8.700000000000045h-18.800000000000068c-5.5 0-8.199999999999932-3.2000000000000455-6.899999999999977-8.5l8.399999999999977-36.5c6-26.100000000000023 12-52.10000000000002 17.899999999999977-78.20000000000005 0.7000000000000455-3.2999999999999545 1.5-6.5 2.300000000000068-9.799999999999955 1.1999999999999318-4.800000000000011 5.399999999999977-8.100000000000023 10.399999999999977-8.100000000000023h30.399999999999977c6.800000000000068 0 17.100000000000023-0.30000000000001137 27.300000000000068 0.6999999999999886 9.599999999999909 0.9000000000000341 18.899999999999977 2.6999999999999886 27.09999999999991 8.100000000000023 9.200000000000045 6 13.700000000000045 14.800000000000011 14.400000000000091 25.599999999999966 1.599999999999909 22.700000000000045-8.5 38.80000000000001-27.800000000000068 49.700000000000045z m129.30000000000007 2.3999999999999773c-3.400000000000091 15.199999999999989-7 30.5-10.600000000000023 45.700000000000045-1.3000000000000682 5.5-5.300000000000068 8.799999999999955-10.800000000000068 8.799999999999955h-15.599999999999909c-5.900000000000091 0-8.400000000000091-3.1000000000000227-7.2000000000000455-8.899999999999977 0.10000000000002274-0.6000000000000227 0.5-1.2000000000000455 0.20000000000004547-2.300000000000068-2.800000000000068 1.8000000000000682-5.400000000000091 3.6000000000000227-8 5.300000000000068-11.700000000000045 7.600000000000023-24.5 10.5-38.200000000000045 8.199999999999932-15-2.3999999999999773-24-15.5-22.299999999999955-30.59999999999991 1.8999999999999773-16.700000000000045 11.699999999999932-26.400000000000034 26.5-32.200000000000045 9.299999999999955-3.6999999999999886 19.09999999999991-5.399999999999977 28.899999999999977-6.699999999999989 8-1 16.100000000000023-1.900000000000034 24.100000000000023-2.400000000000034 2.099999999999909-0.0999999999999659 3.199999999999932-1.2999999999999545 3.2999999999999545-3.3999999999999773 0.2999999999999545-6.100000000000023-2.5-9.899999999999977-8.600000000000023-11.399999999999977-8.299999999999955-2.1000000000000227-16.799999999999955-2.2000000000000455-25.299999999999955-1.1000000000000227-7.300000000000068 1-14.399999999999977 2.6999999999999886-21.399999999999977 5.199999999999989-3.900000000000091 1.400000000000034-5.800000000000068-0.19999999999998863-5.100000000000023-4.300000000000011 0.7999999999999545-4.5 1.8999999999999773-9 3.2999999999999545-13.399999999999977 1.7000000000000455-5.300000000000011 6.100000000000023-7.300000000000011 11.300000000000068-8.300000000000011 14.799999999999955-2.6999999999999886 29.699999999999932-3.8999999999999773 44.799999999999955-2.6999999999999886 6.399999999999977 0.5 12.799999999999955 1.5 18.899999999999977 3.6999999999999886 12.600000000000023 4.400000000000034 18.300000000000068 13.699999999999989 16.700000000000045 26.900000000000034-0.8000000000000682 8.099999999999966-3.1000000000000227 15.899999999999977-4.899999999999977 23.899999999999977z m64.29999999999995-49.5l-15.600000000000023 70.60000000000002-5.5 25c-1.1000000000000227 4.899999999999977-5.199999999999932 8.199999999999932-10.199999999999932 8.299999999999955-3 0.10000000000002274-5.900000000000091 0-8.900000000000091 0h-8.299999999999955c-5.5 0-8.100000000000023-3.2999999999999545-7-8.600000000000023l5.2000000000000455-23.299999999999955c5.099999999999909-23.100000000000023 10.199999999999932-46.19999999999999 15.299999999999955-69.19999999999999 2.2000000000000455-10.199999999999989 4.5-20.400000000000034 6.7999999999999545-30.600000000000023 1.1000000000000227-4.899999999999977 5.300000000000068-8.099999999999966 10.300000000000068-8.099999999999966h17.600000000000023c4.7999999999999545 0 7.5 3 6.5 7.599999999999966-2 9.5-4.2000000000000455 18.900000000000034-6.2000000000000455 28.30000000000001z m-217.5-9.800000000000011c-6-1.3000000000000114-12-1.3000000000000114-18.100000000000023-1.099999999999966-4.2999999999999545 0.0999999999999659-8.199999999999932 3.5-9.199999999999932 7.699999999999989-2.1000000000000227 9-4.2000000000000455 18-6.2000000000000455 27.099999999999966-0.7000000000000455 3.2000000000000455 1.1000000000000227 6 4.2000000000000455 7 2.199999999999932 0.7000000000000455 4.399999999999977 0.20000000000004547 6.5 0.4000000000000341 5.699999999999932 0 11.099999999999909-0.4000000000000341 16.399999999999977-2 10.299999999999955-3 17.5-9 19.199999999999932-20.30000000000001 1.5-10-3-16.600000000000023-12.799999999999955-18.80000000000001z m-369.9 0c-4.600000000000023-1.3999999999999773-9.400000000000034-1.6999999999999886-14.200000000000017-1.599999999999966h-4.900000000000006c-4.900000000000006 0-8.900000000000006 3-10.099999999999994 7.7999999999999545-2.0999999999999943 8.800000000000011-4.200000000000017 17.600000000000023-6.200000000000017 26.400000000000034-1 4.300000000000011 1.5 7.899999999999977 5.800000000000011 8 7.199999999999989 0.30000000000001137 14.300000000000011 0.0999999999999659 21.30000000000001-2 10.5-3.1000000000000227 18.30000000000001-10 19.30000000000001-21.69999999999999 0.5999999999999659-8.400000000000034-3.0000000000000284-14.300000000000011-11.000000000000028-16.900000000000034z m485.9 63.80000000000001c-4.399999999999977 0.6000000000000227-8.799999999999955 0.8999999999999773-13.100000000000023 1.3999999999999773-5.2999999999999545 0.7000000000000455-10.699999999999932 1.6000000000000227-15.699999999999932 3.6000000000000227-7.7000000000000455 3-11.200000000000045 8.300000000000011-10.900000000000091 16.200000000000045 0.10000000000002274 3.699999999999932 1.900000000000091 6.2999999999999545 5.400000000000091 7.699999999999932 3.099999999999909 1.2000000000000455 6.399999999999977 1.5 9.5 1.6000000000000227 6.699999999999932 0 12.5-2.5 18.09999999999991-5.7000000000000455 1.900000000000091-1.099999999999909 3.800000000000068-2.5 4.300000000000068-4.599999999999909 1.6000000000000227-6.000000000000057 3-12.100000000000023 4.399999999999977-18.200000000000045 0.39999999999997726-1.6000000000000227-0.2999999999999545-2.1999999999999886-2-2z m-372-0.10000000000002274c-3.5 0.5-7.100000000000023 0.8000000000000114-10.600000000000023 1.2000000000000455-5.899999999999977 0.6999999999999886-11.699999999999989 1.5-17.299999999999955 3.5-8 2.7999999999999545-12 8.199999999999989-12 15.899999999999977 0 4.5 1.8999999999999773 7.2000000000000455 6.099999999999966 8.600000000000023 2.900000000000034 1 5.900000000000034 1.2999999999999545 8.900000000000034 1.2999999999999545 7.2999999999999545 0.10000000000002274 13.699999999999989-2.8999999999999773 19.69999999999999-6.600000000000023 1.3999999999999773-0.8999999999999773 2.5-2.2999999999999545 2.8999999999999773-3.8999999999999773 1.5-6 3.1000000000000227-11.899999999999977 4.300000000000011-18 0.30000000000001137-1.6999999999999886-0.30000000000001137-2.1999999999999886-2-2z"/>
</svg>
