<svg xmlns="http://www.w3.org/2000/svg" viewBox="0 0 1000 1000" width="1000" height="1000">
<path d="M846.7 154.4h-693.4000000000001c-84.29999999999995 0-153.29999999999995 68.9-153.29999999999995 153.20000000000002v384.69999999999993c0 84.30000000000007 69 153.30000000000007 153.3 153.30000000000007h693.4000000000001c84.29999999999995 0 153.29999999999995-69 153.29999999999995-153.30000000000007v-384.69999999999993c0-84.30000000000001-69-153.20000000000002-153.29999999999995-153.20000000000002z m-423.6 461l-0.30000000000001137-2.3999999999999773c0-3-0.6999999999999886-5.899999999999977-1.5-8.799999999999955-0.19999999999998863-0.900000000000091-0.4000000000000341-1.900000000000091-0.6999999999999886-2.800000000000068-0.4000000000000341-2.7999999999999545-1-5.5-2-8.100000000000023l-0.8000000000000114-3c-0.6000000000000227-2.5-1.1999999999999886-5-2.5-7.199999999999932l-1.1999999999999886-3.5-2.400000000000034-6.100000000000023-1.3000000000000114-2.7000000000000455c-0.5999999999999659-2.5-1.7999999999999545-4.699999999999932-3.1999999999999886-6.899999999999977l-1.3000000000000114-2.699999999999932c-0.7999999999999545-2.300000000000068-2-4.300000000000068-3.3999999999999773-6.2000000000000455-0.39999999999997726-0.7000000000000455-0.8000000000000114-1.3999999999999773-1.1999999999999886-2-1-2.5-2.400000000000034-4.7000000000000455-4.300000000000011-6.7000000000000455l-1.3000000000000114-2.099999999999909c-1-2.1000000000000227-2.3999999999999773-3.900000000000091-4-5.600000000000023-0.5-0.6000000000000227-1-1.3000000000000682-1.599999999999966-1.8999999999999773-1-2.1000000000000227-2.6000000000000227-3.800000000000068-4.2000000000000455-5.400000000000091-0.6999999999999886-0.6999999999999318-1.2999999999999545-1.3999999999999773-1.8999999999999773-2.099999999999909-1.3000000000000114-2.1000000000000227-2.8999999999999773-3.900000000000091-4.800000000000011-5.400000000000091l-2-2c-1.5-1.8999999999999773-3.1999999999999886-3.699999999999932-5.300000000000011-4.899999999999977l-1.5-1.3999999999999773c-1.599999999999966-1.8999999999999773-3.3999999999999773-3.5-5.5-4.699999999999989-0.6999999999999886-0.5-1.2999999999999545-1-2-1.400000000000034-1.7999999999999545-1.8999999999999773-3.7999999999999545-3.5-6.099999999999966-4.599999999999966-0.6999999999999886-0.5-1.400000000000034-1-2.1000000000000227-1.400000000000034-1.8999999999999773-1.599999999999966-3.8000000000000114-3-6.099999999999966-4l-2.1000000000000227-1.2999999999999545-6.600000000000023-3.8000000000000114-2-1.400000000000034-5-4.599999999999966-1.8999999999999773-2.1000000000000227c-3.3999999999999773-4.699999999999989-5.300000000000011-10.099999999999966-6.899999999999977-15.599999999999966v-9.5c1.1999999999999886-1.8000000000000114 1-4.100000000000023 1.6999999999999886-6.100000000000023 2.5-8 8-13.699999999999989 14.599999999999966-18.399999999999977l0.9000000000000341-0.6000000000000227-0.10000000000002274 0.10000000000002274c0.6000000000000227 0 1.1000000000000227-0.20000000000004547 1.400000000000034-0.8000000000000114v0.0999999999999659c1.2999999999999545-0.5 2.599999999999966-1 4-1.5 0.39999999999997726-0.0999999999999659 0.7999999999999545-0.0999999999999659 0.7999999999999545-0.5999999999999659l10.800000000000011-1c1.1000000000000227 0.0999999999999659 2.3000000000000114 0.0999999999999659 3.5 0.19999999999998863l8.100000000000023 2.1000000000000227 1.8000000000000114 0.8999999999999773c2.2999999999999545 1.5 4.5 3 7.099999999999966 3.8999999999999773 0.6999999999999886 0.4000000000000341 1.400000000000034 0.8000000000000114 2.1000000000000227 1.3000000000000114l6 3.6000000000000227c0.8999999999999773 0.5999999999999659 1.8000000000000114 1.1999999999999886 2.8000000000000114 1.8000000000000114l5.5 3.5c0.8999999999999773 0.5999999999999659 1.7999999999999545 1.2999999999999545 2.599999999999966 1.8999999999999773 1.8000000000000114 1.1999999999999886 3.6000000000000227 2.5 5.300000000000011 3.6999999999999886l2.3000000000000114 1.6999999999999886 6 4.5 1.5 1.2000000000000455c1.8000000000000114 1.8999999999999773 3.8000000000000114 3.3999999999999773 6 4.7999999999999545l1.5 1.3000000000000114c1.5 1.900000000000034 3.3999999999999773 3.400000000000034 5.399999999999977 4.800000000000011l2.1000000000000227 1.8999999999999773 4.800000000000011 4.800000000000011 2 2 4.699999999999989 4.900000000000034 2.099999999999966 2.5 6.800000000000011 7.7999999999999545c1.3000000000000114 4.800000000000011 1.6000000000000227 9.800000000000011 2 14.800000000000068 2.3000000000000114 29.399999999999977-3 57.39999999999998-16 83.89999999999998-3.3999999999999773 6.899999999999977-7.800000000000011 13.199999999999932-10.399999999999977 20.5-0.4000000000000341-0.39999999999997726-0.5-0.8000000000000682-0.6999999999999886-1.2000000000000455z m100.5-77.29999999999995c-0.20000000000004547 4-0.6000000000000227 7.899999999999977-1 11.899999999999977l-0.8999999999999773 7.899999999999977c-0.6000000000000227 1.3000000000000682-0.8000000000000682 2.7000000000000455-0.7000000000000455 4.100000000000023-0.7999999999999545 4.100000000000023-1.6000000000000227 8.200000000000045-2.5 12.200000000000045l-0.8999999999999773 4.7999999999999545-3.800000000000068 13.600000000000023c-0.5 1.2999999999999545-1.099999999999909 2.6000000000000227-1.099999999999909 4-0.6000000000000227 0.2999999999999545-0.6000000000000227 0.8999999999999773-0.6000000000000227 1.3999999999999773l-5.600000000000023 14.899999999999977c-1.3000000000000114 2.1000000000000227-2.1000000000000227 4.5-2.8000000000000114 6.800000000000068l-10.199999999999989 19.699999999999932h0.19999999999998863l-1.099999999999966 1.5-4.600000000000023 7.5-6 5.800000000000068-7.5 4.2999999999999545c-4 1.3999999999999773-8 2.3999999999999773-12.199999999999989 2.7999999999999545h-3.5c-2.900000000000034-0.5-5.800000000000011-1-8.800000000000011-1.5-0.8999999999999773-0.39999999999997726-1.8000000000000114-0.7999999999999545-2.8000000000000114-1.1999999999999318l-6-3c-0.5-0.7000000000000455-1.1999999999999886-1.2000000000000455-2-1.3000000000000682l-4.899999999999977-4.699999999999932-1.8000000000000114-2.1000000000000227-4.100000000000023-7c-0.0999999999999659-0.7000000000000455-0.0999999999999659-1.2999999999999545-0.6999999999999886-1.7999999999999545l-1.8999999999999773-8.300000000000068-0.30000000000001137-3.2999999999999545 1.3999999999999773-10.700000000000045c2.6000000000000227-7.2999999999999545 7.100000000000023-13.600000000000023 10.400000000000034-20.5 13-26.5 18.30000000000001-54.5 16-83.89999999999998-0.4000000000000341-4.899999999999977-0.8000000000000114-9.899999999999977-2-14.800000000000011-0.6999999999999886-4.199999999999989-1.1999999999999886-8.399999999999977-2.6999999999999886-12.399999999999977l-0.7000000000000455-2.8000000000000114-2.099999999999966-7.5c-0.19999999999998863-1-0.4000000000000341-2-1.1000000000000227-2.8000000000000114-0.5999999999999659-2.599999999999966-1.3999999999999773-5.099999999999966-2.6999999999999886-7.5-0.39999999999997726-1-0.8000000000000114-2-1.1999999999999886-2.8999999999999773-0.8000000000000114-2.3000000000000114-1.6000000000000227-4.5-3-6.5-0.10000000000002274-0.9000000000000341-0.5-1.6000000000000227-1.1000000000000227-2.1999999999999886-0.8000000000000114-2.5-2-4.7000000000000455-3.599999999999966-6.7000000000000455-0.20000000000004547-0.7999999999999545-0.6000000000000227-1.599999999999966-1.3000000000000114-2.099999999999966l-3.5-6.699999999999989c-0.30000000000001137-1-0.6999999999999886-2-1-3.1000000000000227l-1.8000000000000114-7.800000000000011v-3.5c0.5-4.199999999999989 1.6999999999999886-8.199999999999989 2.8999999999999773-12.199999999999989l3.6000000000000227-6.800000000000011 0.39999999999997726-0.5999999999999659c0.6000000000000227-0.20000000000004547 0.8000000000000114-0.7000000000000455 0.9000000000000341-1.3000000000000114l-0.10000000000002274 0.0999999999999659 0.8000000000000114-0.8999999999999773 5.199999999999989-5.100000000000023 1.400000000000034-1.099999999999966 0.5999999999999659-0.4000000000000341 5.400000000000034-2.7999999999999545c0.5-0.10000000000002274 1.1999999999999886-0.10000000000002274 1.3999999999999773-0.8000000000000114v0.0999999999999659c3.8000000000000114-1 7.600000000000023-1.8999999999999773 11.5-2.2999999999999545h3.5c2.8999999999999773 0.5999999999999659 5.800000000000011 1.1999999999999886 8.699999999999989 1.6999999999999886l2.1999999999999886 0.8999999999999773c2.2000000000000455 1.1999999999999886 4.5 2.400000000000034 6.7000000000000455 3.5 0.5 0.8000000000000114 1.099999999999966 1.3000000000000114 1.8999999999999773 1.6000000000000227 1.8000000000000114 1.5 3.1999999999999886 3.5 5.399999999999977 4.599999999999966 0.20000000000004547 0.4000000000000341 0.4000000000000341 0.9000000000000341 0.7000000000000455 1.3000000000000114 12.099999999999966 19.600000000000023 21.299999999999955 40.5 27.299999999999955 62.80000000000001 6.5 24.19999999999999 8.800000000000068 48.5 7.7000000000000455 73.10000000000002z m17.100000000000023 59.19999999999993c-0.5-2.699999999999932-1-5.399999999999977-1.6000000000000227-8.099999999999909l-0.8000000000000682-2.800000000000068c-0.5-2.7999999999999545-1.1999999999999318-5.5-2.2999999999999545-8.100000000000023 0-1-0.20000000000004547-1.8999999999999773-0.7999999999999545-2.699999999999932-0.20000000000004547-2.7000000000000455-1.5-5-2.300000000000068-7.5-0.39999999999997726-0.8999999999999773-0.7999999999999545-1.8000000000000682-1.1000000000000227-2.800000000000068-0.5-2.599999999999909-1.3999999999999773-5.099999999999909-2.699999999999932-7.399999999999977l-0.8999999999999773-2.199999999999932-2.2000000000000455-5.7000000000000455c0.2999999999999545-3.8999999999999773 0.7999999999999545-7.899999999999977 1-11.899999999999977 1.2000000000000455-24.600000000000023-1.2000000000000455-48.900000000000034-7.600000000000023-72.80000000000001-6-22.30000000000001-15.199999999999989-43.19999999999999-27.299999999999955-62.80000000000001l1.5 0.10000000000002274c1.599999999999966 1.599999999999966 3.5 2.8999999999999773 5.5 4.099999999999966 0.5 0.6999999999999886 1.1999999999999886 1.1999999999999886 2 1.400000000000034 1.7999999999999545 1.8999999999999773 4 3.2999999999999545 6.199999999999989 4.7999999999999545l1.5 1.3000000000000114c1.599999999999966 1.8000000000000114 3.499999999999943 3.3000000000000114 5.499999999999943 4.699999999999989l1.900000000000091 1.5 5.399999999999977 4.800000000000011 2.1000000000000227 2 4.899999999999977 4.699999999999989 1.7999999999999545 1.5 5.100000000000023 5.300000000000011 1.8999999999999773 2c1.3999999999999773 1.8000000000000114 2.8999999999999773 3.5 4.7000000000000455 4.900000000000034l2 2.099999999999966c1.3999999999999773 2 2.8999999999999773 3.900000000000034 4.7999999999999545 5.5 0.3000000000000682 0.8000000000000114 0.8000000000000682 1.400000000000034 1.5 1.900000000000034 1.3999999999999773 2 2.8999999999999773 3.8999999999999773 4.7000000000000455 5.5 0.5 0.6999999999999886 1 1.2999999999999545 1.3999999999999773 2l4.2000000000000455 5.5c2.199999999999932 3 4.399999999999977 6 6.5 9 8.299999999999955 53 1.7999999999999545 104.10000000000002-19.600000000000023 153.29999999999995-0.6000000000000227 1.3000000000000682-1.3999999999999773 2.6000000000000227-2.1000000000000227 3.800000000000068l-0.7999999999999545-10c0.09999999999990905-1 0-2-0.40000000000009095-2.900000000000091 0.20000000000004547-3.199999999999932-0.2999999999999545-6.2999999999999545-0.8999999999999773-9.399999999999977l-0.6000000000000227-2.7999999999999545c-0.09999999999990905-3-0.5-5.899999999999977-1.3999999999999773-8.800000000000068 0.10000000000002274-1.1999999999999318-0.1999999999999318-2.099999999999909-0.6999999999999318-3z m101.79999999999995-3.8999999999999773c-0.2999999999999545 1.6000000000000227-0.6000000000000227 3.2000000000000455-0.7999999999999545 4.7000000000000455-1 4-2 8-3.1000000000000227 12-0.6000000000000227 2.1000000000000227-1.2000000000000455 4.199999999999932-1.7000000000000455 6.2999999999999545-1.5 4.800000000000068-3.1000000000000227 9.600000000000023-4.600000000000023 14.300000000000068l-1.5 5.399999999999977c-1.8999999999999773 4.899999999999977-3.7999999999999545 9.899999999999977-5.599999999999909 14.799999999999955-1.2000000000000455 1.8999999999999773-2.1000000000000227 4-2.5 6.2000000000000455-0.6000000000000227 0.2999999999999545-0.7000000000000455 0.7999999999999545-0.7000000000000455 1.3999999999999773-3.2999999999999545 6.2999999999999545-6.100000000000023 12.899999999999977-10 19-0.20000000000004547 0.10000000000002274-0.2999999999999545 0.20000000000004547-0.20000000000004547 0.39999999999997726l-0.6999999999999318 1-7.5 7.399999999999977-0.7000000000000455 0.7000000000000455v-0.10000000000002274c-6.100000000000023 3.6000000000000227-12.5 6.300000000000068-19.699999999999932 6.800000000000068-10.700000000000045 0.7999999999999545-20-2.6000000000000227-28.5-8.900000000000091l-1.400000000000091-1.1999999999999318-4.699999999999932-5.5c-0.5-0.7000000000000455-1-1.3000000000000682-1.3999999999999773-2l-3-6.7000000000000455-1.1000000000000227-2.7999999999999545c-0.3000000000000682-2.8999999999999773-0.7000000000000455-5.800000000000068-1-8.800000000000068l0.1999999999999318-4.199999999999932c0.7000000000000455-5 2.5-9.700000000000045 4.600000000000023-14.300000000000068 0.8000000000000682-1.6999999999999318 1.8999999999999773-3.3999999999999773 2.1000000000000227-5.399999999999977l0.10000000000002274-0.1999999999999318c0.6999999999999318-1.3000000000000682 1.5-2.5 2.1000000000000227-3.800000000000068 21.299999999999955-49.19999999999993 27.899999999999977-100.29999999999995 19.59999999999991-153.29999999999995-0.1999999999999318-4.300000000000011-1-8.400000000000034-2.3999999999999773-12.5-0.2999999999999545-3.1000000000000227-0.6999999999999318-6.2000000000000455-2-9-0.10000000000002274-0.6000000000000227-0.2999999999999545-1.2000000000000455-0.39999999999997726-1.900000000000034-0.7000000000000455-2.6999999999999886-1.3999999999999773-5.399999999999977-2-8.099999999999966-0.2999999999999545-0.9000000000000341-0.6000000000000227-1.900000000000034-1-2.8000000000000114-0.6000000000000227-2.900000000000034-1.3999999999999773-5.699999999999989-2.7000000000000455-8.300000000000011l-0.599999999999909-1.8999999999999773c-0.5-2.6000000000000227-1.400000000000091-5-2.5-7.400000000000034-0.40000000000009095-0.8999999999999773-0.8000000000000682-1.8000000000000114-1.3000000000000682-2.6999999999999886-0.6000000000000227-2.6000000000000227-1.6999999999999318-5-2.7999999999999545-7.399999999999977l-0.8999999999999773-2.2000000000000455c-0.900000000000091-2.6999999999999886-2-5.2999999999999545-3.6000000000000227-7.699999999999989-0.10000000000002274-0.6999999999999886-0.20000000000004547-1.3999999999999773-0.8000000000000682-1.8000000000000114l-2.8999999999999773-6.7999999999999545c-0.39999999999997726-0.9000000000000341-0.8999999999999773-1.8000000000000114-1.2999999999999545-2.8000000000000114-0.6000000000000227-2.6999999999999886-1.3000000000000682-5.400000000000034-1.8999999999999773-8.199999999999989l-0.10000000000002274-3.400000000000034c0.1999999999999318-4 0.7999999999999545-7.800000000000011 2-11.599999999999966 0.6000000000000227-1.6000000000000227 1.1999999999999318-3.1000000000000227 1.6999999999999318-4.7000000000000455 5.900000000000091-10 14.100000000000023-16.799999999999955 25.600000000000023-19.5 1.2000000000000455-0.2999999999999545 2.5 0.10000000000002274 3.5-1h10.899999999999977c5.100000000000023 1.5 10.200000000000045 3 15 5.5l2 1.400000000000034 4.900000000000091 4.099999999999966 2.599999999999909 2.7000000000000455c1.400000000000091 1.8999999999999773 2.7000000000000455 3.7999999999999545 4.100000000000023 5.599999999999966l1.3000000000000682 2.6999999999999886 2.8999999999999773 6c0.39999999999997726 0.9000000000000341 0.7999999999999545 1.900000000000034 1.2999999999999545 2.8000000000000114l3 6.600000000000023 1.1000000000000227 2.1999999999999886c0.7000000000000455 2.6000000000000227 1.6000000000000227 5.100000000000023 2.8999999999999773 7.399999999999977 0.3000000000000682 0.7000000000000455 0.6000000000000227 1.400000000000034 0.8999999999999773 2.2000000000000455 1 2.5 2 5.099999999999966 2.900000000000091 7.599999999999966l1 2.5 2.2999999999999545 7.5c0.39999999999997726 0.9000000000000341 0.7999999999999545 1.900000000000034 1.1000000000000227 2.8000000000000114l2.199999999999932 7.5 0.900000000000091 2.8000000000000114c0.39999999999997726 2.8000000000000114 1.1999999999999318 5.5 2.199999999999932 8.099999999999966 0 1 0.10000000000002274 1.900000000000034 0.8000000000000682 2.7000000000000455l1.8999999999999773 8.299999999999955 0.6000000000000227 2.7000000000000455 1.6999999999999318 8.699999999999989 0.6000000000000227 2.8000000000000114c0.10000000000002274 0.8999999999999773 0.10000000000002274 1.7999999999999545 0.2999999999999545 2.6999999999999886 2.1000000000000227 12.599999999999966 3.7000000000000455 25.30000000000001 4.400000000000091 38.099999999999966 1.5 32-1 63.39999999999998-7.7000000000000455 94.5z"/>
</svg>
