<svg xmlns="http://www.w3.org/2000/svg" viewBox="0 0 1000 1000" width="1000" height="1000">
<path d="M995.2 124.9c-58.60000000000002 0.09999999999999432-117.20000000000005 0.09999999999999432-175.9000000000001 0.09999999999999432-11.199999999999932 0-22.199999999999932 1-33.09999999999991 3.9000000000000057-56.700000000000045 14.900000000000006-94.5 63.5-94.70000000000005 122.19999999999999-0.10000000000002274 41.20000000000002 0.10000000000002274 82.4-0.10000000000002274 123.50000000000003 0 4.399999999999977 1.1000000000000227 5.5 5.5 5.399999999999977 57.30000000000007-0.19999999999998863 114.60000000000002-0.19999999999998863 171.89999999999998-0.10000000000002274 17.200000000000045 0 34.200000000000045 1.8000000000000114 49.90000000000009 9.600000000000023 25.299999999999955 12.399999999999977 37.19999999999993 38 29.299999999999955 64.39999999999998-6.2999999999999545 21.30000000000001-21.899999999999977 33.200000000000045-42.39999999999998 39.400000000000034-4 1.1999999999999886-8.100000000000023 2-12.800000000000068 3.1999999999999886 1.1000000000000227 0.8000000000000114 1.3000000000000682 1 1.6000000000000227 1.1000000000000227 0.8999999999999773 0.0999999999999659 1.8000000000000682 0.0999999999999659 2.6000000000000227 0.19999999999998863 16.399999999999977 1.8000000000000114 31.799999999999955 6.199999999999989 45.299999999999955 16.19999999999999 26.600000000000023 19.700000000000045 30.5 56.799999999999955 8.300000000000068 81.39999999999998-15.600000000000023 17.300000000000068-36.200000000000045 24.300000000000068-58.700000000000045 24.5-65.19999999999993 0.6000000000000227-130.39999999999998 0.3000000000000682-195.60000000000002 0.20000000000004547-3.699999999999932 0-5 0.6000000000000227-5 4.699999999999932 0.10000000000002274 81.90000000000009 0.10000000000002274 163.80000000000007 0 245.80000000000007 0 3.5 0.7000000000000455 4.699999999999932 4.5 4.699999999999932 60.200000000000045-0.09999999999990905 120.5 0.20000000000004547 180.70000000000005-0.1999999999999318 37-0.3000000000000682 68-15.200000000000045 92.39999999999998-42.80000000000007 21.100000000000023-23.899999999999977 30.899999999999977-52.299999999999955 30.899999999999977-84.09999999999991 0-206 0-412.1 0.10000000000002274-618.1 0.10000000000002274-4.300000000000026-0.8999999999999773-5.200000000000017-4.699999999999932-5.200000000000017z m-345.70000000000005 0c-58.799999999999955 0.19999999999998863-117.5 0.09999999999999432-176.3 0.09999999999999432-3.1999999999999886 0-6.399999999999977-0.29999999999999716-9.599999999999966 0.5999999999999943-17.400000000000034 0.30000000000001137-34.10000000000002 4.700000000000017-49.10000000000002 12.900000000000006-45.10000000000002 24.599999999999994-68.30000000000001 62.900000000000006-68.60000000000002 114.4-0.2999999999999545 51.900000000000006-0.0999999999999659 103.79999999999998-0.0999999999999659 155.6v4.800000000000011c1.3000000000000114-0.9000000000000341 2-1.400000000000034 2.599999999999966-1.900000000000034 12.5-10.099999999999966 26.5-17.299999999999955 41.400000000000034-22.799999999999955 25.80000000000001-9.5 52.599999999999966-13.200000000000045 79.89999999999998-15.100000000000023 28-1.3999999999999773 55.900000000000034-0.6999999999999886 83.69999999999999 2.8000000000000114 21.300000000000068 2.6999999999999886 42.39999999999998 6.599999999999966 63.39999999999998 11.399999999999977 1.7000000000000455 0.4000000000000341 2.5 1 2.5 2.900000000000034v50c-3.7999999999999545 0.39999999999997726-6.199999999999932-2.400000000000034-9.099999999999909-3.8000000000000114-27.90000000000009-13.300000000000011-57.10000000000002-21.30000000000001-88-23.400000000000034-10.800000000000068-0.6999999999999886-21.700000000000045-0.7999999999999545-32.30000000000007 1.5l-1.6999999999999886 0.10000000000002274c-1-0.19999999999998863-1.8999999999999773 0-2.8000000000000114 0.6999999999999886-1.8999999999999773 0.30000000000001137-3.7999999999999545 0.5-5.599999999999966 0.9000000000000341-28.100000000000023 7-48.69999999999999 22.799999999999955-58.30000000000001 50.89999999999998-5.399999999999977 15.800000000000011-6 32.10000000000002-3.6999999999999886 48.60000000000002 5.5 40.5 34.80000000000001 64 72 68.69999999999993 4 1.1000000000000227 8 1.400000000000091 12.099999999999966 1.6000000000000227 38.39999999999998 1.6000000000000227 74.39999999999998-7.5 108.89999999999998-23.699999999999932 2.7000000000000455-1.3000000000000682 5.100000000000023-3.2000000000000455 8.5-3.400000000000091 0 16.800000000000068-0.09999999999990905 33.5 0.10000000000002274 50.10000000000002 0 2.800000000000068-1.8999999999999773 2.6000000000000227-3.3999999999999773 2.8999999999999773-35.39999999999998 8.100000000000023-71.10000000000002 14-107.5 14.5-12 0.20000000000004547-24 0-36 0-45.10000000000002-3.5-89.19999999999999-10.299999999999955-126.60000000000002-40.19999999999993v283.69999999999993c0 0.40000000000009095 0.10000000000002274 0.900000000000091 0 1.3000000000000682-0.39999999999997726 2.3999999999999773 0.5 3.3999999999999773 3.1000000000000227 3.2999999999999545 4.800000000000011-0.1999999999999318 9.699999999999989-0.10000000000002274 14.5-0.10000000000002274 33.10000000000002 0 66.19999999999999-0.09999999999990905 99.39999999999998-0.09999999999990905 24.30000000000001 0 48.60000000000002 0.1999999999999318 73 0 7-0.10000000000002274 14-1.2000000000000455 20.800000000000068-2.900000000000091 59-14.299999999999955 97.5-63.299999999999955 97.5-124.39999999999998l0.09999999999990905-617.5999999999999c-0.09999999999990905-3.6000000000000654-0.6999999999999318-4.9000000000000625-4.7999999999999545-4.9000000000000625z m-345.7 0.09999999999999432c-59 0.09999999999999432-118.10000000000002 0-177.10000000000002 0-2.8999999999999915 0-5.8999999999999915-0.29999999999999716-8.699999999999989 0.5999999999999943-17.5 0.5-34.099999999999994 4.900000000000006-49.400000000000006 13.200000000000017-43.89999999999999 23.799999999999983-67.6 60.89999999999998-68 110.69999999999999-0.7999999999999943 101.80000000000001-0.1999999999999943 203.7-0.2999999999999943 305.5 0 2.7000000000000455 0.7 4.100000000000023 3.3000000000000003 5.2999999999999545 28.9 13.5 58.8 23.600000000000023 90.80000000000001 25.800000000000068 17.19999999999999 1.1999999999999318 34.19999999999999 0.8999999999999773 50.19999999999999-7.600000000000023 13.400000000000006-7.100000000000023 22.30000000000001-17.5 27.200000000000017-31.5 2.5999999999999943-7.5 3.5999999999999943-15.299999999999955 3.5999999999999943-23.299999999999955 0-47.900000000000034 0-95.80000000000007 0.09999999999999432-143.70000000000005-0.6999999999999886-0.30000000000001137-1.0999999999999943-0.6999999999999886-1.4000000000000057-1.1999999999999886 0.30000000000001137 0.39999999999997726 0.700000000000017 0.8000000000000114 1.4000000000000057 1.1999999999999886 34.599999999999994 0 69.1 0 103.69999999999999-0.19999999999998863 3.3000000000000114 0 3.8000000000000114 1.099999999999966 3.6999999999999886 4l-0.0999999999999659 56.30000000000001c0 30.899999999999977 0.5999999999999659 61.799999999999955-0.4000000000000341 92.69999999999993-1 31.100000000000023-15 55.30000000000007-42.099999999999966 71.5-10.5 6.2000000000000455-21.80000000000001 10.5-33.5 13.900000000000091-11.300000000000011 3.199999999999932-22.80000000000001 4.7999999999999545-34.30000000000001 6.899999999999977l0.09999999999999432 1.7999999999999545-0.09999999999999432-1.7999999999999545c-8.900000000000006 0.6000000000000227-17.80000000000001 1.6000000000000227-26.69999999999999 1.8999999999999773-47.500000000000014 1.3999999999999773-94.4-3.2000000000000455-140.60000000000002-14.100000000000023-4.199999999999989-1-4.9999999999999885-0.39999999999997726-4.9999999999999885 3.800000000000068 0.09999999999999981 84.5 0.09999999999999981 169 0.09999999999999981 253.5999999999999 0 0.7000000000000455 0.10000000000000003 1.5 0 2.2000000000000455-0.3 2.2000000000000455 0.7 2.7000000000000455 2.7 2.7000000000000455l95.8-0.20000000000004547h73.7c7.599999999999994 0.2999999999999545 15.199999999999989 0.39999999999997726 22.80000000000001-0.39999999999997726 36.599999999999994-3.800000000000068 66-20.399999999999977 88.19999999999999-49.700000000000045 17.100000000000023-22.600000000000023 24.80000000000001-48.299999999999955 24.80000000000001-76.60000000000002-0.10000000000002274-206.0999999999999 0-412.29999999999995 0-618.4 0-3.799999999999983-0.8000000000000114-4.899999999999977-4.5-4.899999999999977z m-130.4 252.3c0 0.30000000000001137 0.09999999999999432 0.5 0.19999999999998863 0.8000000000000114-0.09999999999999432-0.20000000000004547-0.19999999999998863-0.5-0.19999999999998863-0.8000000000000114z m583.6 203.99999999999994c22.600000000000023-0.09999999999990905 45.10000000000002-0.09999999999990905 67.70000000000005 0 3.699999999999932 0 7.2999999999999545-0.39999999999997726 10.899999999999977-1.3999999999999773 15.299999999999955-4.2999999999999545 25.299999999999955-19.299999999999955 23.399999999999977-34.799999999999955-2.2000000000000455-17.300000000000068-14.700000000000045-29.300000000000068-31.399999999999977-29.700000000000045-11.700000000000045-0.1999999999999318-23.399999999999977 0-35.200000000000045 0v-0.10000000000002274c-11.899999999999977 0-23.699999999999932 0.10000000000002274-35.60000000000002-0.09999999999990905-2.8999999999999773 0-4 0.5-4 3.699999999999932 0.20000000000004547 19.5 0.20000000000004547 39 0 58.5-0.1999999999999318 3.5 1.2000000000000455 3.8999999999999773 4.2000000000000455 3.8999999999999773z m-0.5-103.09999999999997c10.399999999999977-0.0999999999999659 20.799999999999955-0.0999999999999659 33.5-0.0999999999999659 9.899999999999977-0.4000000000000341 22 0.6999999999999886 34.10000000000002-0.5 15.5-1.6000000000000227 26.600000000000023-14.5 26.5-30.30000000000001-0.10000000000002274-15.699999999999989-11.700000000000045-28.69999999999999-27.200000000000045-29.600000000000023-22.5-1.3000000000000114-45.10000000000002-0.19999999999998863-67.60000000000002-0.5999999999999659-2.7999999999999545 0-3 1.1999999999999886-3 3.5 0.10000000000002274 18 0.10000000000002274 36 0 54-0.09999999999990905 3.099999999999966 1 3.599999999999966 3.7000000000000455 3.599999999999966z"/>
</svg>
