<svg xmlns="http://www.w3.org/2000/svg" viewBox="0 0 1000 1000" width="1000" height="1000">
<path d="M998.6 642.1c-6-28.899999999999977-12.100000000000023-57.80000000000007-18.100000000000023-86.80000000000007-14.100000000000023-68.19999999999993-28.299999999999955-136.39999999999998-42.10000000000002-204.59999999999997-1.1999999999999318-6.099999999999966-3.199999999999932-8.199999999999989-9.5-8.199999999999989-24 0.30000000000001137-47.89999999999998 0.30000000000001137-71.89999999999998 0-6-0.10000000000002274-8.700000000000045 2.3999999999999773-11 7.699999999999989-14.700000000000045 34.60000000000002-29.799999999999955 69-44.89999999999998 103.5-25.899999999999977 59.599999999999966-51.89999999999998 119.09999999999997-77.89999999999998 178.59999999999997-2.900000000000091 6.7000000000000455-5.600000000000023 13.400000000000091-8.5 20.300000000000068 1.8999999999999773 0.6999999999999318 2.7999999999999545 1.2999999999999545 3.599999999999909 1.2999999999999545 24.300000000000068 0.10000000000002274 48.60000000000002 0.39999999999997726 72.80000000000007-0.10000000000002274 2.7999999999999545-0.09999999999990905 6.7999999999999545-3.8999999999999773 8.199999999999932-6.899999999999977 4.600000000000023-10.199999999999932 8-20.899999999999977 12.300000000000068-31.199999999999932 1-2.400000000000091 3.7999999999999545-5.600000000000023 5.899999999999977-5.600000000000023 32.60000000000002-0.39999999999997726 65.29999999999995-0.20000000000004547 98.5-0.20000000000004547 1.7000000000000455 8.600000000000023 3 15.899999999999977 4.600000000000023 23.200000000000045 5.5 26.199999999999932 1 20.5 25.299999999999955 21 17.600000000000023 0.39999999999997726 35.30000000000007 0.10000000000002274 54 0.10000000000002274-0.5-4.800000000000068-0.6000000000000227-8.5-1.2999999999999545-12.100000000000023z m-161.5-93c14.199999999999932-37.200000000000045 28.199999999999932-73.80000000000001 42.10000000000002-110.40000000000003 0.7999999999999545 0.10000000000002274 1.599999999999909 0.19999999999998863 2.5 0.30000000000001137 7.2999999999999545 36.39999999999998 14.599999999999909 72.89999999999998 22 110.10000000000002h-66.60000000000002z m-137.5-43.200000000000045c-9.600000000000023-10.899999999999977-22.5-19.399999999999977-35-27.399999999999977-15.399999999999977-9.899999999999977-32-17.899999999999977-47.700000000000045-27.19999999999999-9-5.300000000000011-15.5-12.900000000000034-13.199999999999932-24.5 2.2999999999999545-11.699999999999989 10.5-18.30000000000001 21.299999999999955-21.19999999999999 21.5-5.800000000000011 43-6.300000000000011 63.89999999999998 2.8999999999999773 8.200000000000045 3.6000000000000227 16.399999999999977 7.399999999999977 26 11.699999999999989 1-3.599999999999966 2-6.5 2.6000000000000227-9.5 3.2000000000000455-16.5 5.899999999999977-33.099999999999966 9.799999999999955-49.39999999999998 1.8000000000000682-7.699999999999989-0.6999999999999318-10.400000000000034-7.599999999999909-12.600000000000023-41.5-13.5-83.40000000000009-16.899999999999977-125.70000000000005-4.300000000000011-25 7.400000000000034-46.39999999999998 20.200000000000045-61.299999999999955 42.700000000000045-18.5 27.899999999999977-17.700000000000045 72.79999999999995 2.3999999999999773 99.59999999999997 14.699999999999932 19.600000000000023 36.10000000000002 29.900000000000034 56.799999999999955 41.19999999999999 11.100000000000023 6 22.600000000000023 12.200000000000045 32 20.5 16.200000000000045 14.399999999999977 10.700000000000045 36.200000000000045-9.899999999999977 43.200000000000045-24.700000000000045 8.5-49.799999999999955 6.399999999999977-74.60000000000002 0.6000000000000227-13.100000000000023-3-25.899999999999977-7.600000000000023-39.599999999999966-11.800000000000068-4.300000000000011 20-8.400000000000034 39.700000000000045-12.699999999999989 59.30000000000007-1.400000000000034 6.2999999999999545 2.3999999999999773 8.099999999999909 7.099999999999966 9.799999999999955 21.400000000000034 8 43.50000000000006 12.299999999999955 66.40000000000003 13.5 53.39999999999998 2.8999999999999773 98.60000000000002-15.200000000000045 134.19999999999993-54.5 26.800000000000068-29.600000000000023 32.30000000000007-71.39999999999998 4.800000000000068-102.60000000000002z m-291.5-163.29999999999995c-5.300000000000011 0-6.800000000000011 2.5-7.600000000000023 7.199999999999989-3.5 23-7.399999999999977 46-11 69l-27.399999999999977 174.99999999999994c-3.1000000000000227 19.600000000000023-6.2000000000000455 39.10000000000002-9.5 59.700000000000045 4.199999999999989 0.20000000000004547 7.199999999999989 0.5 10.199999999999989 0.5 21.19999999999999 0.10000000000002274 42.30000000000001-0.20000000000004547 63.5 0.20000000000004547 7.5 0.1999999999999318 10.599999999999966-2.300000000000068 11.099999999999966-9.800000000000068 0.5-7.100000000000023 2.5-14.100000000000023 3.6000000000000227-21.100000000000023l38.69999999999999-241.19999999999993c2-12.800000000000011 4-25.5 6-38.5-2.599999999999966-0.5-3.6999999999999886-1-4.899999999999977-1-24.100000000000023 0.19999999999998863-48.400000000000034 0.19999999999998863-72.69999999999999 0z m-38.5 0.6999999999999886c-4.2000000000000455-0.19999999999998863-7.2000000000000455-0.5-10.200000000000045-0.5-23 0-46.099999999999966 0.19999999999998863-69.09999999999997-0.19999999999998863-6.600000000000023-0.10000000000002274-9.900000000000034 1.6999999999999886-12.100000000000023 8.299999999999955-22.299999999999983 66.20000000000005-45 132.3-67.6 198.5l-3 9c-7.099999999999994-34.39999999999998-25.099999999999994-62.5-45.69999999999999-88.5-31.599999999999994-39.89999999999998-59.900000000000006-63.19999999999999-74-65 0 0.9000000000000341-0.20000000000000284 1.900000000000034 0 2.7000000000000455 21 79.89999999999998 42.099999999999994 159.79999999999995 62.900000000000006 239.69999999999993 1.5999999999999943 6 5 6.900000000000091 10.099999999999994 6.900000000000091 25.19999999999999-0.10000000000002274 50.400000000000006-0.20000000000004547 75.6 0 5.800000000000011 0 8.800000000000011-2 11.099999999999994-7.5 37.099999999999994-92.20000000000005 74.4-184.40000000000003 111.6-276.50000000000006 3.6000000000000227-8.5 6.699999999999989-17.19999999999999 10.400000000000034-26.899999999999977z m-175.50000000000003 163.2c-7.400000000000006-41.30000000000001-15.299999999999983-82.10000000000002-23.69999999999999-122.80000000000001-5-24.30000000000001-21.400000000000006-39-45.900000000000006-39.5-40.099999999999994-0.8000000000000114-80.2-0.30000000000001137-120.3-0.39999999999997726-0.8000000000000029 0-1.6000000000000028 0.5999999999999659-4.100000000000003 1.599999999999966 82.7 33.30000000000001 156.20000000000002 75.5 194 161.10000000000002z"/>
</svg>
