<svg xmlns="http://www.w3.org/2000/svg" viewBox="0 0 1000 1000" width="1000" height="1000">
<path d="M846.7 154.4h-693.4000000000001c-84.29999999999995 0-153.29999999999995 68.9-153.29999999999995 153.20000000000002v384.69999999999993c0 84.30000000000007 69 153.30000000000007 153.3 153.30000000000007h693.4000000000001c84.29999999999995 0 153.29999999999995-69 153.29999999999995-153.30000000000007v-384.69999999999993c0-84.30000000000001-69-153.20000000000002-153.29999999999995-153.20000000000002z m-111.20000000000005 525.4c-38.700000000000045 21.600000000000023-80.5 29.200000000000045-124.5 23.800000000000068-42-5.100000000000023-78.70000000000005-22.100000000000023-110.60000000000002-49.80000000000007-13.899999999999977 11.400000000000091-28.5 21.90000000000009-44.69999999999999 29.90000000000009-34.5 17-70.89999999999998 24.5-109.19999999999999 20.59999999999991-76.39999999999998-7.599999999999909-132.3-46.299999999999955-167.4-114.29999999999995-17.5-34-23.599999999999994-70.70000000000005-20-108.80000000000001 5.300000000000011-56.30000000000001 29.900000000000006-102.80000000000001 73.1-139 38.19999999999999-32 82.69999999999999-47.80000000000001 132.60000000000002-47.599999999999966 50.099999999999966 0.19999999999998863 94.19999999999999 16.899999999999977 132.59999999999997 49 1 0.7999999999999545 2.1000000000000227 1.5 3.1000000000000227 2.1999999999999886l0.10000000000002274 0.0999999999999659-0.10000000000002274-0.0999999999999659c42.700000000000045-36.900000000000034 92.39999999999998-53.80000000000001 148.60000000000002-50.900000000000034 92.89999999999998 4.7000000000000455 173.69999999999993 76.20000000000005 189.60000000000002 167.8 15.399999999999977 88.30000000000001-24.700000000000045 173.40000000000003-103.20000000000005 217.09999999999997z m-211-307.09999999999997c0-0.0999999999999659-0.10000000000002274-0.0999999999999659-0.10000000000002274-0.0999999999999659-3.1000000000000227-4.100000000000023-6.399999999999977-8-9.799999999999955-11.700000000000045-0.39999999999997726 0.20000000000004547-0.6000000000000227 0.30000000000001137-0.7000000000000455 0.30000000000001137h-21.69999999999999c-7.599999999999966 0-12.899999999999977 3.6999999999999886-16.099999999999966 11.5h45.299999999999955c1.1000000000000227 0 2.2000000000000455-0.19999999999998863 3.1000000000000227 0z m13.299999999999955 24.30000000000001c1 0 2.2000000000000455-0.30000000000001137 3.2000000000000455 0 0 0-0.10000000000002274 0-0.10000000000002274-0.10000000000002274-2.2999999999999545-3.8999999999999773-4.699999999999932-7.699999999999989-7.100000000000023-11.299999999999955h-60.599999999999966c-7.800000000000011 0-11.5 3.099999999999966-13.399999999999977 11.399999999999977h3.3999999999999773c24.80000000000001 0 49.69999999999999-0.10000000000002274 74.59999999999997 0z m8.200000000000045 24.69999999999999c4.899999999999977 0 6.899999999999977 0.10000000000002274 8.299999999999955 1.6999999999999886l0.10000000000002274-0.0999999999999659c-1.7999999999999545-4.400000000000034-3.8999999999999773-8.699999999999989-6.100000000000023-12.900000000000034-29.5 0-58.799999999999955 0.20000000000004547-87.99999999999994-0.19999999999998863-6.5-0.0999999999999659-10.300000000000011 1.400000000000034-12.400000000000034 7.800000000000011-1.1999999999999886 3.6000000000000227-0.7999999999999545 3.8000000000000114 2.6000000000000227 3.8000000000000114 31.899999999999977-0.19999999999998863 63.700000000000045-0.10000000000002274 95.5-0.10000000000002274z m-217 15c-13.300000000000011 0.19999999999998863-26.69999999999999 0.19999999999998863-40 0-3.1999999999999886 0-4.399999999999977 1.3000000000000114-5.5 4-9 22.100000000000023-18.19999999999999 44.19999999999999-27.30000000000001 66.30000000000001-0.39999999999997726 1-0.29999999999998295 2.6999999999999886-2.0999999999999943 2.8000000000000114-1.4000000000000057-22.900000000000034-2.9000000000000057-45.80000000000001-4.099999999999994-68.69999999999999-0.19999999999998863-3.3000000000000114-1.0999999999999943-4.400000000000034-4.5-4.400000000000034-12.699999999999989 0.19999999999998863-25.400000000000006 0.19999999999998863-38.099999999999994 0-3.0999999999999943 0-4.200000000000017 1-4.700000000000017 3.900000000000034-6.899999999999977 40.099999999999966-13.899999999999977 80.19999999999993-21 120.39999999999998-0.5 3 0.4000000000000057 3.6000000000000227 3.1000000000000227 3.5 6.399999999999977-0.10000000000002274 12.899999999999977-0.20000000000004547 19.299999999999983 0 3.0999999999999943 0.10000000000002274 4-1 4.5-4 4.300000000000011-25.5 8.800000000000011-50.89999999999998 13.400000000000006-76.30000000000001 0.8000000000000114-4.699999999999989 1.0999999999999943-9.599999999999966 3.3000000000000114-15.300000000000011 1.799999999999983 31.200000000000045 3.5999999999999943 60.89999999999998 5.099999999999994 90.70000000000005 0.19999999999998863 3.7999999999999545 1.299999999999983 5 5.099999999999994 4.899999999999977 7.099999999999994-0.2999999999999545 14.099999999999994-0.20000000000004547 21.19999999999999 0 3.1000000000000227 0.10000000000002274 4.5-1.1000000000000227 5.699999999999989-3.7999999999999545 5.7000000000000455-14.100000000000023 11.600000000000023-28.200000000000045 17.400000000000034-42.30000000000007l20-48.39999999999998c0.30000000000001137 0 0.5999999999999659 0.10000000000002274 0.8000000000000114 0.10000000000002274l-4.100000000000023 23.099999999999966c-3.8999999999999773 22.400000000000034-7.899999999999977 44.80000000000001-11.899999999999977 67.30000000000001-0.5 2.7999999999999545 0.0999999999999659 4.100000000000023 3.2999999999999545 4 6.600000000000023-0.20000000000004547 13.200000000000045-0.10000000000002274 19.700000000000045 0 2.3999999999999773 0 3.3999999999999773-0.7999999999999545 3.7999999999999545-3.2000000000000455 7-40.09999999999991 14-80.19999999999993 21.100000000000023-120.29999999999995 0.6000000000000227-3.1000000000000227 0-4.399999999999977-3.5-4.300000000000011z m92.80000000000001 45.10000000000002c-2.6999999999999886-11-10.800000000000011-16.69999999999999-20.69999999999999-20.30000000000001-10.400000000000034-3.6999999999999886-21.200000000000045-2.8000000000000114-31.900000000000034-2.5-6.699999999999989 0.19999999999998863-13.5 0.8000000000000114-19.80000000000001 3.3999999999999773-1.2999999999999545 0.5-3 0.8000000000000114-3.5 2.3000000000000114-2.1999999999999886 7.100000000000023-4.399999999999977 14.199999999999989-6.7999999999999545 21.900000000000034 13.699999999999989-3.8000000000000114 26.69999999999999-5.2000000000000455 39.89999999999998-5 8 0.0999999999999659 13.399999999999977 5 13.199999999999989 11.699999999999989-0.0999999999999659 3-0.8000000000000114 5.099999999999966-4.699999999999989 4.800000000000011-8.199999999999989-0.6000000000000227-16.30000000000001 0-24.5 0.8999999999999773-17 1.8000000000000114-30.899999999999977 8.399999999999977-37.19999999999999 25.299999999999955-7.800000000000011 20.800000000000068 2.5 43.10000000000002 30 41.5 10.300000000000011-0.599999999999909 19.19999999999999-4.5 27.599999999999966-10.199999999999932 0.20000000000004547-0.20000000000004547 0.6000000000000227-0.5 0.7000000000000455-0.39999999999997726 0.5999999999999659 0.2999999999999545 0.2999999999999545 0.6999999999999318-0.10000000000002274 1-0.10000000000002274 1.099999999999909 0 2.2999999999999545-0.30000000000001137 3.2999999999999545-1.099999999999966 4.100000000000023 0.5 5.2999999999999545 4.600000000000023 5 5.099999999999966-0.39999999999997726 10.300000000000011-0.2999999999999545 15.399999999999977 0 3.3000000000000114 0.20000000000004547 4.400000000000034-1.1000000000000227 5-4.2000000000000455l12.400000000000034-64.69999999999993c0.8999999999999773-4.5 1.8999999999999773-9 0.6999999999999886-13.800000000000011z m-34.400000000000034 40.400000000000034c-2.5 14.099999999999909-7.899999999999977 19.199999999999932-21.599999999999966 20.59999999999991-4.199999999999989 0.40000000000009095-8.5 0.5-11-3.8999999999999773-2.1000000000000227-3.7999999999999545-1.1000000000000227-10.399999999999977 2-14 3.8999999999999773-4.399999999999977 9-6.600000000000023 14.5-7.899999999999977 3.3999999999999773-0.7999999999999545 6.899999999999977-1.2000000000000455 10.399999999999977-1.7999999999999545 6.800000000000011 0.2999999999999545 6.900000000000034 0.5 5.699999999999989 7z m65.5 55.89999999999998c-1.5 0-3.1999999999999886-0.5-4.699999999999989 0.39999999999997726-0.19999999999998863 1.8999999999999773 1.400000000000034 3.2000000000000455 1.8000000000000114 4.899999999999977 1.3999999999999773 5.2000000000000455 4.699999999999989 6.399999999999977 10 6.300000000000068 25-0.3000000000000682 50.10000000000002-0.10000000000002274 75.10000000000002-0.10000000000002274h13.199999999999932c0 0.10000000000002274-0.09999999999990905 0.1999999999999318-0.09999999999990905 0.39999999999997726 2-4.2999999999999545 3.8999999999999773-8.700000000000045 5.599999999999909-13.200000000000045-1.5 1.2000000000000455-3.599999999999909 1.6000000000000227-6.5 1.6000000000000227-31.5-0.5-62.99999999999994-0.2999999999999545-94.39999999999998-0.2999999999999545z m18 25.899999999999977h-10.699999999999989c1.5 2.3999999999999773 2.900000000000034 3.8999999999999773 3.6999999999999886 5.7999999999999545 2 4.7000000000000455 5.400000000000034 5.7000000000000455 10.300000000000011 5.7000000000000455 16.400000000000034-0.2999999999999545 32.69999999999999-0.10000000000002274 49.099999999999966 0 3.2000000000000455 0 7.800000000000068-1.6000000000000227 9.300000000000068 0.8999999999999773 0.1999999999999318 0.3000000000000682 0.1999999999999318 0.7000000000000455 0.10000000000002274 1.1000000000000227 3.3999999999999773-5 6.599999999999909-10.100000000000023 9.5-15.399999999999977-1.6000000000000227 1.6000000000000227-3.7000000000000455 2.1000000000000227-6.600000000000023 2.1000000000000227-21.700000000000045-0.40000000000009095-43.200000000000045-0.20000000000004547-64.70000000000005-0.20000000000004547z m47.30000000000007 24.799999999999955c-11.500000000000057-0.2999999999999545-23.100000000000023-0.09999999999990905-34.700000000000045 0-2.1000000000000227 0-4.399999999999977-0.5-6.5 0.40000000000009095 6.5 10.099999999999909 7.600000000000023 10.799999999999955 18.69999999999999 10.799999999999955 3.6999999999999886 0 7.400000000000034-0.10000000000002274 11.100000000000023 0 2.099999999999966 0.10000000000002274 4.399999999999977-0.8999999999999773 6.499999999999943 0.7999999999999545l-0.39999999999997726 0.5c4.5-4.699999999999932 8.700000000000045-9.5 12.600000000000023-14.5l-0.10000000000002274-0.09999999999990905c-1.8999999999999773 1.5-4.199999999999932 2.099999999999909-7.199999999999932 2.099999999999909z m-68.80000000000007-68l1.2000000000000455 0.40000000000009095c3 0.8999999999999773 6.099999999999966 1.6999999999999318 9.199999999999989 2.5h0.0999999999999659l1.900000000000034 0.5h0.8000000000000114c8 1.5 19 2.3999999999999773 29.299999999999955-0.20000000000004547 1.6000000000000227-0.39999999999997726 3.1000000000000227-0.8999999999999773 4.600000000000023-1.5 0.19999999999998863-0.10000000000002274 0.39999999999997726-0.10000000000002274 0.6999999999999886-0.20000000000004547l0.30000000000001137-0.09999999999990905c0.8999999999999773-0.20000000000004547 1.8000000000000114-0.5 2.6000000000000227-0.8000000000000682 1.599999999999966-0.6999999999999318 2.8999999999999773-1.6000000000000227 3.8999999999999773-2.7999999999999545 0.39999999999997726-0.5 0.6999999999999886-1.1000000000000227 1-1.8000000000000682 0.39999999999997726-1.099999999999909 0.6000000000000227-2.3999999999999773 0.6000000000000227-4l1.7999999999999545-9.899999999999977 0.30000000000001137-1.7999999999999545 0.30000000000001137-1.8000000000000682s0.39999999999997726-2.5 0.6000000000000227-3.8999999999999773c-1 0.20000000000004547-1.7000000000000455 0.20000000000004547-2.1000000000000227 0.5-2.3000000000000114 1.3000000000000682-4.600000000000023 2.5-7 3.3999999999999773-1.6000000000000227 0.6000000000000227-3.1999999999999886 1.1000000000000227-4.699999999999989 1.6000000000000227l-2.400000000000034 0.6000000000000227c-3.1999999999999886 0.7000000000000455-6.5 1.1000000000000227-9.799999999999955 1.2999999999999545l-2.5 0.10000000000002274h-2.5l-2.5-0.10000000000002274c-2.5-0.1999999999999318-5.100000000000023-0.5-7.600000000000023-0.8999999999999773-1.6000000000000227-0.2999999999999545-3.1000000000000227-0.6000000000000227-4.5-1.1999999999999318-0.6999999999999886-0.3000000000000682-1.3999999999999773-0.6000000000000227-2-0.900000000000091-2-1-3.6999999999999886-2.2999999999999545-5.300000000000011-3.8999999999999773-1-1.1000000000000227-2-2.2999999999999545-2.8999999999999773-3.6000000000000227l-0.5-0.6999999999999318c-0.5-0.7000000000000455-1-1.3999999999999773-1.400000000000034-2.1000000000000227-0.5-1-0.7999999999999545-1.7999999999999545-1.099999999999966-2.6000000000000227s-0.5-1.5-0.6000000000000227-2.1000000000000227c-0.39999999999997726-1.8999999999999773 0-3.199999999999932 1.1999999999999886-4s3.3000000000000114-1.099999999999909 6.400000000000034-1.099999999999909h51l1.099999999999966 0.09999999999990905c0.30000000000001137 0 0.5 0 0.8000000000000114 0.10000000000002274 0.6000000000000227 0 1.1000000000000227 0 1.6000000000000227-0.2999999999999545 0.19999999999998863-0.10000000000002274 0.30000000000001137-0.20000000000004547 0.5-0.39999999999997726 0.0999999999999659-0.20000000000004547 0.30000000000001137-0.3000000000000682 0.4000000000000341-0.6000000000000227l0.1999999999999318-0.39999999999997726 0.20000000000004547-0.6000000000000227 2-11.200000000000045c0.8999999999999773-7.199999999999989 1.1000000000000227-14.199999999999989-0.39999999999997726-20.799999999999955-0.5-2.2000000000000455-1.2000000000000455-4.400000000000034-2.1000000000000227-6.600000000000023-0.6000000000000227-1.3999999999999773-1.3000000000000114-2.8000000000000114-2.1000000000000227-4.199999999999989s-1.6999999999999886-2.8000000000000114-2.6999999999999886-4.100000000000023c-1.1000000000000227-1.1999999999999886-2.3000000000000114-2.1999999999999886-3.5-3.1999999999999886s-2.5-1.8999999999999773-3.8000000000000114-2.6999999999999886l-1.3000000000000114-0.8000000000000114c-1.3000000000000114-0.6999999999999886-2.6999999999999886-1.3999999999999773-4.099999999999966-2-1.900000000000034-0.8000000000000114-3.8000000000000114-1.3999999999999773-5.900000000000034-2-1-0.30000000000001137-2-0.5-3.099999999999966-0.6999999999999886-4.600000000000023-0.6000000000000227-9.100000000000023-0.6999999999999886-13.700000000000045-0.6000000000000227l-5.5 0.30000000000001137c-0.8999999999999773 0.10000000000002274-1.7999999999999545 0.19999999999998863-2.6999999999999886 0.19999999999998863-3.3999999999999773 0.6999999999999886-6.800000000000011 1.6000000000000227-10 2.8000000000000114-1.099999999999966 0.39999999999997726-2.099999999999966 0.8000000000000114-3.1999999999999886 1.3000000000000114l-3.1000000000000227 1.5s-2 1.099999999999966-3 1.6999999999999886l-2.8999999999999773 1.8999999999999773c-0.8999999999999773 0.7000000000000455-1.8000000000000114 1.400000000000034-2.6999999999999886 2.2000000000000455-5.100000000000023 4.7999999999999545-8.900000000000034 10.199999999999989-11.699999999999989 16-0.8000000000000114 1.6999999999999886-1.5 3.3999999999999773-2.2000000000000455 5.099999999999966l-0.8999999999999773 2.6000000000000227-0.8999999999999773 3.1999999999999886c-0.4000000000000341 1.6000000000000227-0.8000000000000114 3.3000000000000114-1.1000000000000227 4.899999999999977-0.5 2.8000000000000114-0.8999999999999773 5.600000000000023-1.1000000000000227 8.5-1.599999999999966 18.899999999999977 2.6000000000000227 35.5 20.200000000000045 46.200000000000045l1.1999999999999886 0.6999999999999318c0.19999999999998863 0.10000000000002274 0.39999999999997726 0.20000000000004547 0.5 0.3000000000000682l0.6999999999999886 0.2999999999999545s0.5 0.20000000000004547 0.6999999999999886 0.3000000000000682c0.19999999999998863 0.09999999999990905 0.4000000000000341 0.1999999999999318 0.5 0.1999999999999318l0.8000000000000114 0.3000000000000682 0.39999999999997726 0.1999999999999318c0.30000000000001137 0.10000000000002274 0.6000000000000227 0.20000000000004547 0.9000000000000341 0.39999999999997726l0.30000000000001137 0.10000000000002274 1 0.39999999999997726 0.19999999999998863 0.10000000000002274c0.39999999999997726 0.10000000000002274 0.8000000000000114 0.3000000000000682 1.099999999999966 0.39999999999997726z m26.700000000000045-80.09999999999997c7.5 1.400000000000034 13.199999999999989 10.100000000000023 11.599999999999966 17.5-0.39999999999997726 2-1.599999999999966 2.1000000000000227-3.099999999999966 2.1000000000000227h-14.400000000000034s-9.599999999999966-0.10000000000002274-14.399999999999977 0c-2.1000000000000227 0-2.8000000000000114-0.6999999999999886-2.5-2.900000000000034 1.6999999999999886-11.399999999999977 11.699999999999989-18.799999999999955 22.80000000000001-16.69999999999999z m75.29999999999995-34.69999999999999c8.200000000000045 0 10.600000000000023 0.10000000000002274 12 4.300000000000011h0.10000000000002274c-1.5-6-3.2999999999999545-12-5.5-17.900000000000034v-0.2999999999999545c0.2999999999999545 1.8999999999999773-0.7000000000000455 2.6999999999999886-4.2000000000000455 2.599999999999966-34.799999999999955-0.19999999999998863-69.69999999999993-0.0999999999999659-104.49999999999994-0.0999999999999659-7.699999999999989 0-7.5 0.0999999999999659-9.800000000000011 7.5-1.1000000000000227 3.5-0.19999999999998863 3.8999999999999773 3.1000000000000227 3.8999999999999773h108.79999999999995z m41.89999999999998 13.5c-4.699999999999932-0.6000000000000227-9.399999999999977-1-14.099999999999909-1.1999999999999886-4.600000000000023-0.19999999999998863-9.300000000000068-0.4000000000000341-14-0.5h-0.40000000000009095c-4.599999999999909 0.39999999999997726-9.199999999999932 0.8999999999999773-13.899999999999977 1.3000000000000114-8.299999999999955 1.599999999999966-16.100000000000023 4.399999999999977-21.699999999999932 11.199999999999989-4.600000000000023 7.699999999999989-7.100000000000023 15.699999999999989-6.600000000000023 24 0.10000000000002274 1.5 0.2999999999999545 3 0.6000000000000227 4.599999999999966 0.5 2.3000000000000114 1.1999999999999318 4.600000000000023 2.099999999999909 7 0.8000000000000682 1.3000000000000114 1.6000000000000227 2.5 2.5 3.6000000000000227 2.800000000000068 3.2999999999999545 6.400000000000091 5.7000000000000455 10.200000000000045 7.7000000000000455l8.200000000000045 3.2999999999999545s5.5 2.2000000000000455 8.199999999999932 3.5c1.6000000000000227 0.7000000000000455 3.2000000000000455 1.6000000000000227 4.300000000000068 2.8999999999999773s1.6999999999999318 2.8999999999999773 1.3999999999999773 5.100000000000023c-0.5 4-1.8000000000000682 6.7999999999999545-4.2000000000000455 8.399999999999977-1.7999999999999545 1.3000000000000682-4.2999999999999545 2-7.600000000000023 2.1000000000000227-9.799999999999955 0.39999999999997726-19.5-0.6000000000000227-29-3.2000000000000455-1.8999999999999773-0.5-3.199999999999932-0.599999999999909-4.199999999999932-0.1999999999999318-0.3000000000000682 0.10000000000002274-0.5 0.2999999999999545-0.7000000000000455 0.5l-0.2999999999999545 0.2999999999999545c-0.20000000000004547 0.20000000000004547-0.3000000000000682 0.5-0.39999999999997726 0.8000000000000682-0.3000000000000682 0.6999999999999318-0.40000000000009095 1.5-0.40000000000009095 2.599999999999909l-1.8999999999999773 9.800000000000068c-0.6999999999999886 4-1.099999999999966 5.699999999999932 0 6.899999999999977 0.10000000000002274 0.10000000000002274 0.20000000000004547 0.20000000000004547 0.4000000000000341 0.2999999999999545h0.0999999999999659c0.10000000000002274 0.10000000000002274 0.3000000000000682 0.20000000000004547 0.39999999999997726 0.20000000000004547 0 0 0.10000000000002274 0 0.10000000000002274 0.10000000000002274 0.10000000000002274 0.10000000000002274 0.3000000000000682 0.10000000000002274 0.5 0.1999999999999318 0.10000000000002274 0 0.10000000000002274 0 0.20000000000004547 0.10000000000002274l0.6000000000000227 0.20000000000004547c0.09999999999990905 0 0.1999999999999318 0.10000000000002274 0.1999999999999318 0.10000000000002274 0.20000000000004547 0.09999999999990905 0.39999999999997726 0.09999999999990905 0.7000000000000455 0.1999999999999318l0.2999999999999545 0.10000000000002274c0.20000000000004547 0.10000000000002274 0.5 0.10000000000002274 0.8000000000000682 0.20000000000004547l0.2999999999999545 0.09999999999990905 1.2000000000000455 0.3000000000000682c2.099999999999909 0.6999999999999318 5 1.1999999999999318 8.099999999999909 1.5l3.900000000000091 0.39999999999997726v0.10000000000002274h0.5c6.699999999999932 0.5 13 0.5 13 0.5v-0.10000000000002274h4.2999999999999545c1 0 1.8999999999999773 0 2.8999999999999773-0.10000000000002274h1l2.7000000000000455-0.10000000000002274c0.2999999999999545 0 0.6999999999999318 0 1-0.09999999999990905 1.1999999999999318-0.10000000000002274 2.3999999999999773-0.20000000000004547 3.699999999999932-0.3000000000000682 5.100000000000023-0.7999999999999545 11.400000000000091-2.3999999999999773 16-4.7999999999999545 14.200000000000045-7.399999999999977 17.90000000000009-20.100000000000023 16.800000000000068-34.80000000000007-0.8999999999999773-12.999999999999943-9.700000000000045-18.599999999999966-21-21.699999999999932-0.3000000000000682-0.10000000000002274-0.5-0.20000000000004547-0.7000000000000455-0.4000000000000341v-0.39999999999997726h-0.10000000000002274v0.39999999999997726l-3-0.8000000000000114c-0.5-0.0999999999999659-1-0.2999999999999545-1.5-0.5-2.5-0.7999999999999545-4.7999999999999545-1.7999999999999545-7-3.3999999999999773-0.39999999999997726-0.30000000000001137-0.7999999999999545-0.6000000000000227-1.099999999999909-0.8999999999999773-3.1000000000000227-2.8000000000000114-3.900000000000091-6.100000000000023-2.7000000000000455-8.900000000000034 0.39999999999997726-0.8999999999999773 1.1000000000000227-1.8000000000000114 2-2.6999999999999886 0.2999999999999545-0.30000000000001137 0.6000000000000227-0.5 1-0.8000000000000114 0.7000000000000455-0.5 1.5-1 2.3999999999999773-1.3999999999999773l2.2000000000000455-0.9000000000000341 2.2999999999999545-0.5999999999999659s1.6000000000000227-0.30000000000001137 2.3999999999999773-0.30000000000001137c0.8000000000000682-0.10000000000002274 1.6000000000000227-0.10000000000002274 2.400000000000091 0v0.10000000000002274-0.20000000000004547c0.6999999999999318-0.0999999999999659 1.3999999999999773-0.0999999999999659 2.199999999999932-0.19999999999998863 1-0.0999999999999659 1.8999999999999773-0.0999999999999659 2.8999999999999773-0.0999999999999659 5 0 10 0.5999999999999659 15 1.599999999999966 2.800000000000068 0.5 3.7000000000000455-0.39999999999997726 4.2000000000000455-3 1-5.199999999999989 2-10.399999999999977 3.3999999999999773-15.399999999999977 0.7000000000000455-3.1000000000000227-0.1999999999999318-3.900000000000034-3.1000000000000227-4.300000000000011z m42.90000000000009 22.600000000000023c3.699999999999932 0.19999999999998863 7.399999999999977 0.0999999999999659 11.099999999999909 0.39999999999997726 2.2000000000000455 0.10000000000002274 3.1000000000000227-0.6999999999999886 3.5-2.8999999999999773 0.8000000000000682-5.400000000000034 1.8000000000000682-10.800000000000011 2.800000000000068-16.100000000000023 0.39999999999997726-2.3000000000000114-0.10000000000002274-3.1999999999999886-2.6000000000000227-3.1000000000000227-3.5 0.20000000000004547-7.100000000000023 0-10.600000000000023 0.10000000000002274-2.2999999999999545 0.10000000000002274-3.1000000000000227-0.39999999999997726-2.5-3l3-16.100000000000023c0.8000000000000682-3.3999999999999773 0.39999999999997726-5.199999999999989-3.699999999999932-4.7999999999999545-3.2000000000000455 0.2999999999999545-6.400000000000091 0.0999999999999659-9.600000000000023 0.0999999999999659s-6.399999999999977 0.19999999999998863-9.600000000000023-0.0999999999999659c-3.1000000000000227-0.30000000000001137-4.2000000000000455 1-4.600000000000023 3.8999999999999773-2 12.5-4.199999999999932 25-6.2999999999999545 37.5-3.800000000000068 22.899999999999977-7.800000000000068 45.89999999999998-11.399999999999977 68.79999999999995-1.400000000000091 8.900000000000091 2.099999999999909 13.600000000000023 10.899999999999977 15.900000000000091s17.799999999999955 2.2999999999999545 26.699999999999932 0.5c8.100000000000023-1.6000000000000227 8.900000000000091-2.5 9.900000000000091-10.700000000000045 0.2999999999999545-2.3999999999999773 0.5-4.7999999999999545 1.099999999999909-7.100000000000023 0.6000000000000227-2.7999999999999545 0.5-4.199999999999932-3.099999999999909-3-4 1.3000000000000682-8.300000000000068 1.1000000000000227-12.400000000000091 0-3.5-0.8999999999999773-5.099999999999909-3.1000000000000227-4.399999999999977-6.7999999999999545 2.800000000000068-16.800000000000068 5.7000000000000455-33.5 8.399999999999977-50.30000000000001 0-2.400000000000034 1-3.3000000000000114 3.400000000000091-3.1999999999999886z m80.09999999999991 2.599999999999966c1.7000000000000455-8.699999999999989 4.7000000000000455-17 9.800000000000068-25-15.100000000000023-2.1999999999999886-25.600000000000023 4.100000000000023-34 15.400000000000034 0.6999999999999318-3.900000000000034 1.2999999999999545-7.800000000000011 2.1000000000000227-11.700000000000045 0.5-2.1999999999999886 0-3.099999999999966-2.5-3.099999999999966-7.2000000000000455 0.0999999999999659-14.5 0-21.700000000000045-0.19999999999998863-2.7000000000000455-0.10000000000002274-3.6000000000000227 0.8999999999999773-3.8999999999999773 3.5-0.6000000000000227 4.7999999999999545-1.6000000000000227 9.5-2.3999999999999773 14.199999999999989-4.800000000000068 27.69999999999999-9.600000000000023 55.30000000000001-14.5 82.90000000000003-0.6000000000000227 3.2999999999999545 0.39999999999997726 3.8999999999999773 3.3999999999999773 3.699999999999932 4-0.1999999999999318 8-0.10000000000002274 12-0.10000000000002274 12.299999999999955 0 12.100000000000023 0 14.199999999999932-12.299999999999955 2.6000000000000227-16 5.300000000000068-32 8.5-47.80000000000001 2.2000000000000455-10.599999999999966 8.200000000000045-15.5 18.90000000000009-17 2.5-0.39999999999997726 5.099999999999909-0.5999999999999659 7.699999999999932-0.5999999999999659 1.3999999999999773 0.0999999999999659 2.1000000000000227-0.20000000000004547 2.3999999999999773-1.900000000000034z m83.70000000000005-16.5c-18.299999999999955-13-49.799999999999955-12.199999999999989-67.5 1.6999999999999886-14.700000000000045 11.5-20 27.400000000000034-20.600000000000023 45.30000000000007-1 26.399999999999977 13.800000000000068 45.5 39.60000000000002 49.89999999999998 20.100000000000023 3.3999999999999773 38.799999999999955-0.10000000000002274 53.39999999999998-15.800000000000068 10.5-11.299999999999955 13.700000000000045-25.399999999999977 14-39.89999999999998-0.10000000000002274-17-5-31.299999999999955-18.899999999999977-41.19999999999999z m-20.200000000000045 59.599999999999966c-2.599999999999909 4.600000000000023-6.2999999999999545 8.200000000000045-11.5 9.700000000000045-12.5 3.6000000000000227-21.399999999999977-2.5-22.299999999999955-15.5-0.7999999999999545-10.800000000000011 0.6000000000000227-21.100000000000023 6.899999999999977-30.30000000000001 3.2000000000000455-4.699999999999989 7.600000000000023-7.899999999999977 13.200000000000045-8.899999999999977 12.899999999999977-2.3000000000000114 20.100000000000023 5.099999999999966 19.799999999999955 21.399999999999977-0.2999999999999545 7.400000000000034-1.7999999999999545 15.900000000000034-6.100000000000023 23.599999999999966z"/>
</svg>
