<svg xmlns="http://www.w3.org/2000/svg" viewBox="0 0 1000 1000" width="1000" height="1000">
<path d="M276.9 397.3c-22.19999999999999-16.400000000000034-47.29999999999998-25.400000000000034-74.79999999999998-27.30000000000001-13.299999999999983-0.8999999999999773-26.599999999999994-0.10000000000002274-37.599999999999994-0.39999999999997726h-32.80000000000001c-15.399999999999991 0.0999999999999659-30.499999999999986 2.2999999999999545-45.099999999999994 7.399999999999977-28.699999999999996 10-51.49999999999999 27.69999999999999-67.5 53.69999999999999-11.099999999999994 18-16.999999999999993 37.60000000000002-18.699999999999996 58.60000000000002-2.5999999999999988 31.900000000000034 5.100000000000001 61.099999999999966 24.1 86.80000000000001 26.5 35.69999999999993 62.5 53.799999999999955 107 54.299999999999955 20.80000000000001 0.20000000000004547 41.599999999999994 0 62.400000000000006 0 6.5 0 13-0.6000000000000227 19.5-1.6000000000000227 24.599999999999994-3.7999999999999545 46.70000000000002-13.5 65.99999999999997-29.199999999999932 29.5-23.899999999999977 47.200000000000045-54.30000000000007 49.5-92.80000000000001 1.2000000000000455-19.80000000000001-2.3999999999999773-38.900000000000034-10.299999999999955-57.19999999999999-9-21.200000000000045-23.100000000000023-38.60000000000002-41.700000000000045-52.30000000000001z m-145.7 221.7c-65.49999999999999-0.2999999999999545-118.69999999999999-53.60000000000002-118.69999999999999-119.39999999999998 0-65.40000000000003 53-119.10000000000002 119-119.20000000000005 66.19999999999999 0 119.6 53.30000000000001 119.69999999999999 119 0.10000000000002274 65.89999999999998-53.29999999999998 120-120 119.60000000000002z m229.10000000000002-204.89999999999998c1-0.10000000000002274 2.099999999999966 0.19999999999998863 3.1999999999999886 0.2999999999999545 3.8000000000000114 0.30000000000001137 5.899999999999977 2.2000000000000455 6.899999999999977 5.800000000000011 0.6000000000000227 2.3000000000000114 0.6000000000000227 4.600000000000023 0.6000000000000227 6.900000000000034v63.099999999999966c0 9.300000000000011-1.5 11.100000000000023-10.800000000000011 12.100000000000023-2 0.19999999999998863-1.6999999999999886 1.1999999999999886-1.8000000000000114 2.5-0.0999999999999659 1.6999999999999886 1 1.3999999999999773 1.900000000000034 1.3999999999999773 12.599999999999966-0.30000000000001137 25.099999999999966 0 37.69999999999999 0 7.800000000000011 0 15.399999999999977-1.099999999999966 22.80000000000001-3.5 28.099999999999966-9.099999999999966 40.89999999999998-41 26.599999999999966-66.59999999999997-7.599999999999966-13.600000000000023-19.69999999999999-21-34.599999999999966-24.200000000000045-9.699999999999989-2.099999999999966-19.5-1.5-31.100000000000023-1.1999999999999886-5.899999999999977-0.0999999999999659-13.5 0.30000000000001137-21.099999999999966-0.19999999999998863-1-0.10000000000002274-2.2000000000000455-0.5-2.1000000000000227 1.3999999999999773-0.10000000000002274 1.400000000000034-0.10000000000002274 2.400000000000034 1.8000000000000114 2.2000000000000455z m25.80000000000001 1.2999999999999545c2.6999999999999886 0 5.5-0.5999999999999659 7.2999999999999545-0.39999999999997726 13.5 0 24.80000000000001 3.5 33.60000000000002 13.100000000000023 6 6.5 9.199999999999989 14.299999999999955 10.399999999999977 23 1.5 10.099999999999966 0.6000000000000227 19.899999999999977-3.5 29.299999999999955-6.399999999999977 14.700000000000045-18.299999999999955 21-33.799999999999955 21.5-1.5 0-3 0-4.5-0.0999999999999659-7.7000000000000455-0.6000000000000227-11.200000000000045-4.400000000000034-11.200000000000045-12.100000000000023v-69.59999999999997c0-0.9000000000000341 0.10000000000002274-1.8000000000000114 0-2.7000000000000455 0-1.3999999999999773 0.30000000000001137-2 1.7000000000000455-2z m547.3-3.7999999999999545c4.100000000000023 1.3999999999999773 5.2000000000000455 2.7999999999999545 5.399999999999977 7.2999999999999545 0.10000000000002274 1 0.10000000000002274 2 0.10000000000002274 3v61.30000000000001c0 6.5-0.6000000000000227 12.900000000000034-1.5 19.400000000000034-0.10000000000002274 1.099999999999966-0.8999999999999773 2.2999999999999545 0.8000000000000682 3.2999999999999545 1.599999999999909 0.9000000000000341 2.699999999999932 0.5 3.699999999999932-0.5999999999999659 1.5-1.6000000000000227 2.8999999999999773-1.5 4.800000000000068-0.6000000000000227 6.199999999999932 3.1000000000000227 12.799999999999955 4.300000000000011 19.59999999999991 3.5 13-1.5 21.600000000000023-9 26.5-20.69999999999999 5-11.699999999999989 4.800000000000068-23.399999999999977-2.8999999999999773-34.10000000000002-7.100000000000023-9.899999999999977-19.600000000000023-12.5-30.399999999999977-6.699999999999989-3.2000000000000455 1.6999999999999886-6.100000000000023 4-9.5 6.5v-48.80000000000001c0-3.1999999999999886-0.5-3.5-3.2000000000000455-2-4.2999999999999545 2.400000000000034-8.799999999999955 4.2000000000000455-13.399999999999977 5.900000000000034-0.7999999999999545 0.30000000000001137-1.6999999999999318 0.30000000000001137-1.7999999999999545 1.6999999999999886 0.10000000000002274 1.3000000000000114 1 1.3000000000000114 1.7999999999999545 1.6000000000000227z m18.100000000000023 44.599999999999966c9-7.300000000000011 17.200000000000045-6.899999999999977 25.299999999999955 1.5 10.200000000000045 10.5 11 29.30000000000001 1.6000000000000227 40.400000000000034-4.399999999999977 5.199999999999989-10.100000000000023 7.399999999999977-16.899999999999977 6.199999999999989-6.399999999999977-1.1999999999999886-11.200000000000045-7.199999999999989-11.299999999999955-13.699999999999989-0.10000000000002274-5.2000000000000455 0-10.300000000000011 0-15.5v-16c-0.10000000000002274-1.2000000000000455 0.2999999999999545-2 1.2999999999999545-2.900000000000034z m-183.20000000000005 45.400000000000034c18.90000000000009 10.099999999999966 38.10000000000002 7.899999999999977 57.200000000000045 0.0999999999999659 0.7999999999999545-0.30000000000001137 1.2999999999999545-0.8999999999999773 1.3999999999999773-1.8000000000000114 0.8000000000000682-5.7999999999999545 1.7000000000000455-11.699999999999989 2.7000000000000455-17.5 0.1999999999999318-1.1999999999999886-0.20000000000004547-1.5-1.2000000000000455-1.8999999999999773-2.2999999999999545-1-2.1000000000000227 0.8999999999999773-2.3999999999999773 2-4 14.300000000000011-15.799999999999955 22.69999999999999-30.200000000000045 21.19999999999999-11.299999999999955-1.1999999999999886-20.299999999999955-6.800000000000011-27-15.699999999999989-10.5-13.800000000000011-12.799999999999955-29.5-8.799999999999955-46.10000000000002 4-16.799999999999955 17.299999999999955-27.799999999999955 34.5-28.899999999999977 13.700000000000045-0.8999999999999773 28.299999999999955 3.8000000000000114 31.5 21.19999999999999 0.2999999999999545 1.6999999999999886 1.6000000000000227 1 2.6000000000000227 1.1000000000000227 1.3999999999999773 0.19999999999998863 1.1000000000000227-0.9000000000000341 1.1000000000000227-1.6999999999999886-0.40000000000009095-5.600000000000023-0.8000000000000682-11.100000000000023-1.1000000000000227-16.700000000000045-0.10000000000002274-1.1999999999999886-0.6000000000000227-1.5-1.6000000000000227-1.7999999999999545l-9.5-3.1000000000000227c-14.100000000000023-4.399999999999977-28.100000000000023-5.199999999999989-42.200000000000045 0.39999999999997726-19 7.5-31.399999999999977 25.100000000000023-31.5 44.700000000000045 0.3000000000000682 3 0.40000000000009095 6 0.8000000000000682 8.899999999999977 2.3999999999999773 15.600000000000023 9.600000000000023 28.100000000000023 23.699999999999932 35.60000000000002z m-274.69999999999993 4.599999999999966h24.899999999999977c1.3999999999999773 0 2.2999999999999545 0.10000000000002274 2.2999999999999545-1.8999999999999773 0-1.8000000000000114-0.7999999999999545-1.8000000000000114-2.099999999999909-1.8000000000000114-1.2000000000000455 0-2.300000000000068 0-3.5-0.19999999999998863-2.7000000000000455-0.4000000000000341-3.7000000000000455-1.3000000000000114-3.7000000000000455-4.100000000000023v-39.39999999999998c0-0.9000000000000341 0.10000000000002274-1.6000000000000227 1-2.1000000000000227 3.7999999999999545-2.1999999999999886 7.600000000000023-4.399999999999977 12-5.5 9.200000000000045-2.1999999999999886 15.399999999999977 2.8000000000000114 15.399999999999977 12.199999999999989v33.700000000000045c0 4.099999999999966-0.8999999999999773 5-4.899999999999977 5.2999999999999545-0.7000000000000455 0-1.2999999999999545 0.10000000000002274-2 0-1.3999999999999773-0.0999999999999659-2.2999999999999545 0-2.2999999999999545 1.900000000000034 0 1.8000000000000114 1 1.6999999999999886 2.199999999999932 1.6999999999999886h25.200000000000045c1.3999999999999773 0 2.2999999999999545 0 2.2999999999999545-1.8999999999999773 0-1.8000000000000114-0.8999999999999773-1.8000000000000114-2.199999999999932-1.7000000000000455-0.8000000000000682 0-1.7000000000000455 0-2.5-0.0999999999999659-3.900000000000091-0.4000000000000341-4.7000000000000455-1.3000000000000114-4.7000000000000455-5.199999999999989v-32.400000000000034c0-2.5-0.10000000000002274-5-0.39999999999997726-7.5-1.1000000000000227-9-7-14.199999999999989-15.800000000000068-14-3.8999999999999773 0.10000000000002274-7.699999999999932 1-11.299999999999955 2.6999999999999886-4.100000000000023 1.900000000000034-7.7999999999999545 4.600000000000023-12 7.400000000000034v-8.100000000000023c0-1.5-0.39999999999997726-2.1999999999999886-2.1000000000000227-1.5-5 2.1999999999999886-10.199999999999989 4-15.399999999999977 5.600000000000023-1.8000000000000114 0.5-1.6000000000000227 1.599999999999966-1.3999999999999773 2.8000000000000114 0.0999999999999659 0.8999999999999773 1.099999999999966 0.8999999999999773 1.7999999999999545 1.1999999999999886 4.400000000000034 1.599999999999966 6.2000000000000455 4.599999999999966 6.100000000000023 9.300000000000011-0.19999999999998863 11.399999999999977-0.10000000000002274 22.799999999999955-0.10000000000002274 34.19999999999999 0 4.5-0.7999999999999545 5.300000000000011-5.399999999999977 5.5h-1.1999999999999886c-1.3000000000000114 0-2.6000000000000227-0.4000000000000341-2.5 1.8999999999999773-0.10000000000002274 2.5 1.099999999999966 2 2.3000000000000114 2z m372.4-56.69999999999999c4.7000000000000455 0.8999999999999773 6.100000000000023 2.6000000000000227 6.2000000000000455 7.5 0.09999999999990905 2.6000000000000227 0 5.199999999999989 0 7.699999999999989 0.09999999999990905 10-0.10000000000002274 20 0.2999999999999545 29.900000000000034 0.2999999999999545 8 6.600000000000023 13.599999999999966 14.600000000000023 13.699999999999989 4.600000000000023 0.0999999999999659 8.899999999999977-1.1000000000000227 12.899999999999977-3.1999999999999886s7.5-5.100000000000023 11.5-8.100000000000023v9.5c0 1.3000000000000114 0.20000000000004547 2 1.7999999999999545 1.6000000000000227 5.800000000000068-1.6000000000000227 11.600000000000023-3 17.5-3.8000000000000114 1.2000000000000455-0.19999999999998863 1.2000000000000455-0.9000000000000341 1.2000000000000455-1.6999999999999886 0.10000000000002274-1.1000000000000227-0.39999999999997726-1.400000000000034-1.5-1.3000000000000114-1.2999999999999545 0.0999999999999659-2.7000000000000455 0-4 0-3.3999999999999773 0-3.7999999999999545-0.4000000000000341-3.7999999999999545-3.900000000000034v-49.099999999999966c0-2-0.5-2.8000000000000114-2.7000000000000455-2.5-6 0.6999999999999886-12.100000000000023 1.099999999999966-18.100000000000023 1.6999999999999886-0.7999999999999545 0.10000000000002274-1.6999999999999318-0.30000000000001137-1.7999999999999545 1.1000000000000227-0.10000000000002274 1.1999999999999886 0.1999999999999318 1.6999999999999886 1.5 2 2.6000000000000227 0.6999999999999886 5.2999999999999545 1.2999999999999545 7.7999999999999545 2.599999999999966 1.3999999999999773 0.6999999999999886 2.300000000000068 1.6999999999999886 2.300000000000068 3.5-0.10000000000002274 11.5 0 22.900000000000034 0 34.400000000000034 0 0.8999999999999773-0.10000000000002274 1.599999999999966-0.900000000000091 2.1999999999999886-4 3-8 5.899999999999977-13 7.199999999999989-6.2999999999999545 1.6999999999999886-11.899999999999977-1.5-13.799999999999955-7.800000000000011-0.7000000000000455-2.3999999999999773-0.8999999999999773-4.899999999999977-0.8999999999999773-7.399999999999977v-36.400000000000034c0-3.2999999999999545-0.3000000000000682-3.5-3.6000000000000227-3.1999999999999886-4.5 0.30000000000001137-9 0.5-13.399999999999977 0.8000000000000114-0.8000000000000682 0.10000000000002274-2.1000000000000227-0.6000000000000227-2.300000000000068 1.1000000000000227-0.09999999999990905 1.6999999999999886 1 1.6999999999999886 2.2000000000000455 1.8999999999999773z m-274.79999999999995 58.19999999999999c8.5-1.8000000000000114 14.199999999999932-7.5 19.399999999999977-14 0.7999999999999545-1 0.1999999999999318-1.3999999999999773-0.39999999999997726-2.099999999999966-0.8000000000000682-0.9000000000000341-1.3000000000000682-0.5-2 0.0999999999999659-1.400000000000091 1.3000000000000114-2.800000000000068 2.6000000000000227-4.400000000000091 3.6999999999999886-11.899999999999977 8.300000000000011-24.59999999999991 4.800000000000011-30.5-8.5-2.3999999999999773-5.2999999999999545-2.7999999999999545-10.899999999999977-2.7999999999999545-16.599999999999966 0-1.6000000000000227 0.5-2.1000000000000227 2.1000000000000227-2.1000000000000227 5.7999999999999545 0.10000000000002274 11.600000000000023 0 17.5 0h17.699999999999932c1.6000000000000227 0 2.800000000000068-0.19999999999998863 2.800000000000068-2.1999999999999886 0.10000000000002274-6-1.3999999999999773-11.399999999999977-5.7000000000000455-15.699999999999989-9.699999999999932-10-27.199999999999932-9.199999999999989-36.5 2.099999999999966-10.199999999999932 12.400000000000034-11.299999999999955 26.5-5.2999999999999545 40.900000000000034 4.7999999999999545 11.800000000000011 15.899999999999977 17.099999999999966 28.100000000000023 14.399999999999977z m-19.90000000000009-44.89999999999998c0.900000000000091-7.400000000000034 6.600000000000023-13.5 13.800000000000068-14.699999999999989 7.699999999999932-1.2000000000000455 14.600000000000023 5.599999999999966 13.5 13.299999999999955-0.3000000000000682 2-1.6000000000000227 2.5-3.3999999999999773 2.5h-22.700000000000045c-0.7000000000000455 0-1.2999999999999545 0.20000000000004547-1.2000000000000455-1.099999999999966z m24.90000000000009 122.69999999999999c-2.900000000000091-0.2999999999999545-4.7000000000000455-2.1000000000000227-6.2000000000000455-4.5-3.2000000000000455-4.899999999999977-6.399999999999977-9.700000000000045-9.700000000000045-14.5-0.7999999999999545-1.2000000000000455-2.199999999999932-2.3999999999999773-2.099999999999909-3.5 0.09999999999990905-1.3999999999999773 2.2999999999999545-1.5 3.3999999999999773-2.3999999999999773l1.7999999999999545-1.3999999999999773c4.2000000000000455-3.800000000000068 5.399999999999977-8.5 4.100000000000023-13.800000000000068-1.2000000000000455-4.899999999999977-4.7000000000000455-7.399999999999977-9.299999999999955-8.699999999999932-2.6000000000000227-0.7000000000000455-5.2000000000000455-1-7.900000000000091-0.900000000000091-5.099999999999909 0.10000000000002274-10.099999999999909 0.3000000000000682-15.199999999999932 0.3000000000000682-2.7000000000000455 0-5.300000000000068-0.20000000000004547-8-0.3000000000000682-1.1000000000000227-0.09999999999990905-1.3000000000000682 0.5-1.2000000000000455 1.400000000000091 0 0.7999999999999545-0.10000000000002274 1.5 1.2000000000000455 1.6999999999999318 4.899999999999977 0.6000000000000227 5.5 1.3000000000000682 5.5 6.2000000000000455v35.19999999999993c0 4-1 5.2000000000000455-5.100000000000023 5.400000000000091-1.1000000000000227 0.09999999999990905-1.6000000000000227 0.1999999999999318-1.7000000000000455 1.5 0 1.5 0.7000000000000455 1.599999999999909 1.8000000000000682 1.599999999999909 4.2999999999999545-0.09999999999990905 8.600000000000023-0.599999999999909 13 0h7.699999999999932c1 0 1.900000000000091 0.3000000000000682 2-1.3999999999999773 0-1.6999999999999318-0.7999999999999545-1.6000000000000227-2-1.6000000000000227-4.2999999999999545-0.09999999999990905-5.399999999999977-1.099999999999909-5.5-5.5-0.09999999999990905-4.2999999999999545 0-8.599999999999909 0-13 0-2.8999999999999773 0.20000000000004547-3 3.1000000000000227-2.7999999999999545 1.6000000000000227 0.10000000000002274 1.8999999999999773 1.2999999999999545 2.3999999999999773 2.2000000000000455 4 7.099999999999909 8.400000000000091 14 13.200000000000045 20.5 0.7000000000000455 0.8999999999999773 1.2999999999999545 1.6999999999999318 2.6000000000000227 1.599999999999909 4-0.39999999999997726 8-0.39999999999997726 11.899999999999977 0 0.7000000000000455 0.10000000000002274 1.6000000000000227 0.20000000000004547 1.5-1 0-1.1999999999999318 0.39999999999997726-2.199999999999932-1.2999999999999545-2.2999999999999545z m-20.800000000000068-28.299999999999955c-1.1000000000000227 2.099999999999909-3.2999999999999545 3-5.5 3.3999999999999773-1.5 0.2999999999999545-3.1000000000000227 0.1999999999999318-4.699999999999932 0.39999999999997726-1.8000000000000682 0.20000000000004547-2.5-0.2999999999999545-2.400000000000091-2.2999999999999545 0.20000000000004547-2.800000000000068 0-5.600000000000023 0-8.5 0-3.1000000000000227 0.10000000000002274-6.100000000000023 0-9.200000000000045 0-1.2000000000000455 0.40000000000009095-1.7999999999999545 1.7000000000000455-1.8999999999999773 4.399999999999977-0.3000000000000682 8.700000000000045 0.2999999999999545 11.100000000000023 4.5 2.5 4.5 2.1000000000000227 9.199999999999932-0.20000000000004547 13.600000000000023z m261.4-51.00000000000006c8.400000000000091-0.19999999999998863 16.800000000000068-0.19999999999998863 25.200000000000045 0.10000000000002274 1.7000000000000455 0.0999999999999659 2.1000000000000227-0.5 2.1000000000000227-2.1000000000000227 0-1.6999999999999886-0.8999999999999773-1.599999999999966-2-1.599999999999966-6.7000000000000455-0.10000000000002274-7.100000000000023-0.5-7.100000000000023-7.300000000000011v-88.60000000000002c0-1.1999999999999886 0.10000000000002274-2.3000000000000114 0-3.5-0.10000000000002274-1.599999999999966-0.7999999999999545-2.3000000000000114-2.3999999999999773-1.3000000000000114-4.600000000000023 2.7000000000000455-9.5 4.7000000000000455-14.5 6.400000000000034-0.8999999999999773 0.30000000000001137-1.3999999999999773 0.5999999999999659-1.3999999999999773 1.6999999999999886 0 1.1999999999999886 0.7999999999999545 1.3000000000000114 1.599999999999909 1.5 3.800000000000068 0.8999999999999773 5.5 3.3999999999999773 5.7000000000000455 7.199999999999989 0.10000000000002274 1.6000000000000227 0.10000000000002274 3.1999999999999886 0.10000000000002274 4.699999999999989v73.10000000000002c0 5.199999999999989-0.8999999999999773 6-6.100000000000023 6.100000000000023h-1c-1.5-0.20000000000004547-2.2000000000000455 0.19999999999998863-2.2000000000000455 2-0.1999999999999318 1.8999999999999773 0.900000000000091 1.599999999999966 2 1.599999999999966z m-176.89999999999998 31.000000000000057c0-1-0.1999999999999318-1.6000000000000227-1.3999999999999773-1.5-5.899999999999977 0.599999999999909-11.799999999999955 0.39999999999997726-17.700000000000045 0-1.099999999999909-0.10000000000002274-1.3999999999999773 0.39999999999997726-1.3999999999999773 1.5 0 0.8999999999999773 0.10000000000002274 1.5 1.3000000000000682 1.599999999999909 5.699999999999932 0.6000000000000227 6.899999999999977 2 6.899999999999977 7.800000000000068v23.5c0 0.6999999999999318 0.1999999999999318 1.5-0.39999999999997726 2.199999999999932-0.6000000000000227-0.6999999999999318-1.2000000000000455-1.2999999999999545-1.7000000000000455-1.8999999999999773-9.700000000000045-10.899999999999977-19.299999999999955-21.799999999999955-29-32.60000000000002-0.7000000000000455-0.7999999999999545-1.2999999999999545-2.099999999999909-2.7000000000000455-1.8999999999999773-4.5 0.6000000000000227-9 0.20000000000004547-13.399999999999977 0-1.1999999999999318-0.10000000000002274-1.3999999999999773 0.5-1.3999999999999773 1.5s0.10000000000002274 1.3999999999999773 1.2999999999999545 1.6000000000000227c4.7000000000000455 0.5 6.5 2.6000000000000227 6.5 7.399999999999977v23.5c0 3.300000000000068 0.10000000000002274 6.7000000000000455-0.2999999999999545 10-0.39999999999997726 4.2000000000000455-2 5.600000000000023-6.2000000000000455 5.899999999999977-1.3999999999999773 0.10000000000002274-1.2999999999999545 0.8000000000000682-1.3999999999999773 1.8000000000000682-0.10000000000002274 1.1999999999999318 0.6000000000000227 1.3999999999999773 1.5 1.2999999999999545 5.899999999999977-0.5 11.800000000000068-0.39999999999997726 17.700000000000045 0 0.8999999999999773 0.10000000000002274 1.1999999999999318-0.1999999999999318 1.3999999999999773-1.1999999999999318 0.20000000000004547-1.7000000000000455-0.7000000000000455-1.8000000000000682-2-1.8000000000000682-4.2000000000000455-0.10000000000002274-6-1.5-6-5.2999999999999545-0.10000000000002274-10.600000000000023 0-21.300000000000068 0-32.5 1 1 1.6000000000000227 1.6999999999999318 2.2000000000000455 2.2999999999999545l30.299999999999955 33.80000000000007 4.5 5c1 1.1999999999999318 2.2999999999999545 0.7999999999999545 3.5 0.6999999999999318 0.8999999999999773-0.10000000000002274 0.39999999999997726-1.1000000000000227 0.39999999999997726-1.6999999999999318-0.6999999999999318-13.5-0.10000000000002274-26.90000000000009-0.2999999999999545-40.40000000000009 0-0.7999999999999545 0.1999999999999318-1.599999999999909 0.1999999999999318-2.5 0.3000000000000682-4.099999999999909 2.2000000000000455-6.699999999999932 6.300000000000068-6.2999999999999545 1.2999999999999545-0.10000000000002274 1.1999999999999318-0.8999999999999773 1.2999999999999545-1.7999999999999545z m-217.09999999999997-1.5c-5.800000000000011 0.5-11.600000000000023 0.2999999999999545-17.400000000000034 0-1.099999999999966-0.10000000000002274-1.5 0.2999999999999545-1.3999999999999773 1.3999999999999773 0.10000000000002274 0.8999999999999773 0 1.5 1.1999999999999886 1.6000000000000227 5.5 0.599999999999909 7 2.199999999999932 7 7.7999999999999545v25.700000000000045c-1.1999999999999886-0.40000000000009095-1.5-1.2000000000000455-2.099999999999966-1.8000000000000682l-29.30000000000001-33c-0.8000000000000114-0.7999999999999545-1.400000000000034-1.8999999999999773-2.8000000000000114-1.6999999999999318-4.300000000000011 0.599999999999909-8.600000000000023 0.1999999999999318-12.899999999999977 0-0.9000000000000341 0-1.6000000000000227 0-1.6000000000000227 1.2999999999999545 0.10000000000002274 1 0 1.6000000000000227 1.3999999999999773 1.7999999999999545 4.5 0.5 6.400000000000034 2.7000000000000455 6.5 7.2000000000000455v30.200000000000045c0 1.599999999999909-0.19999999999998863 3.199999999999932-0.5 4.699999999999932-0.6999999999999886 3.2000000000000455-2.2999999999999545 4.5-5.5 4.7000000000000455-1.1999999999999886 0.10000000000002274-1.7999999999999545 0.1999999999999318-1.7999999999999545 1.6000000000000227 0 1.599999999999909 0.8999999999999773 1.5 2 1.3999999999999773 5.5-0.39999999999997726 10.899999999999977-0.5 16.399999999999977 0 0.8999999999999773 0.10000000000002274 2.1999999999999886 0.6000000000000227 2.1999999999999886-1.3000000000000682 0.10000000000002274-1.8999999999999773-1.099999999999966-1.599999999999909-2.1999999999999886-1.599999999999909-4.100000000000023-0.10000000000002274-5.800000000000011-1.5-6-5.7000000000000455-0.19999999999998863-4.899999999999977-0.10000000000002274-9.799999999999955-0.10000000000002274-14.700000000000045v-17.699999999999932c9.700000000000045 10.799999999999955 18.900000000000034 21.100000000000023 28.100000000000023 31.299999999999955 2.8999999999999773 3.2000000000000455 5.899999999999977 6.399999999999977 8.600000000000023 9.700000000000045 1.1999999999999886 1.3999999999999773 2.6999999999999886 1.3999999999999773 4 1 1.099999999999966-0.3000000000000682 0.19999999999998863-1.6000000000000227 0.19999999999998863-2.3999999999999773-0.19999999999998863-14-0.30000000000001137-27.90000000000009 0.0999999999999659-41.90000000000009 0.10000000000002274-4.599999999999909 1.7000000000000455-6.099999999999909 6.100000000000023-6.399999999999977 1.3999999999999773-0.10000000000002274 1.3000000000000114-0.6999999999999318 1.3999999999999773-1.6999999999999318 0-1.3000000000000682-0.5999999999999659-1.6000000000000227-1.599999999999966-1.5z m460.7 1.5c0-1.2000000000000455-0.39999999999997726-1.7000000000000455-1.6000000000000227-1.5-5.699999999999932 0.599999999999909-11.399999999999977 0.2999999999999545-17.199999999999932 0-1.1000000000000227-0.10000000000002274-1.7000000000000455 0.09999999999990905-1.7000000000000455 1.3999999999999773 0 1.5 0.6000000000000227 1.6000000000000227 1.7999999999999545 1.6000000000000227 4.400000000000091 0.1999999999999318 6.400000000000091 2.099999999999909 6.400000000000091 6.5 0.09999999999990905 8.899999999999977 0 17.799999999999955 0 27.399999999999977-1-1.1000000000000227-1.5-1.6000000000000227-2.1000000000000227-2.2000000000000455-9.700000000000045-10.899999999999977-19.399999999999977-21.899999999999977-29.200000000000045-32.799999999999955-0.8999999999999773-1-1.6000000000000227-2.1000000000000227-3.2999999999999545-1.8999999999999773-4.100000000000023 0.599999999999909-8.100000000000023 0.1999999999999318-12.200000000000045 0-0.8999999999999773-0.10000000000002274-2-0.5-2 1.2999999999999545 0 1.6000000000000227 0.7000000000000455 1.7000000000000455 1.8999999999999773 1.7999999999999545 3.300000000000068 0.3000000000000682 5.800000000000068 2.6000000000000227 5.800000000000068 5.7000000000000455 0.10000000000002274 11.5 0.10000000000002274 22.899999999999977-0.10000000000002274 34.39999999999998-0.10000000000002274 4.5-1.7999999999999545 6.100000000000023-6.399999999999977 6.600000000000023-1.2000000000000455 0.10000000000002274-1.2000000000000455 0.7000000000000455-1.3000000000000682 1.6000000000000227 0 1.1000000000000227 0.3000000000000682 1.5 1.400000000000091 1.3999999999999773 5.899999999999977-0.39999999999997726 11.799999999999955-0.5 17.699999999999932 0 1.1000000000000227 0.10000000000002274 1.5-0.2999999999999545 1.5-1.3999999999999773s-0.10000000000002274-1.7000000000000455-1.5-1.7000000000000455c-5.7999999999999545 0.20000000000004547-6.7999999999999545-2.3999999999999773-6.7999999999999545-7.399999999999977v-30.100000000000023c0.7999999999999545 0 1 0.6000000000000227 1.2999999999999545 0.8999999999999773 9 10 18 20 27 30.100000000000023 2.8999999999999773 3.2000000000000455 5.800000000000068 6.399999999999977 8.600000000000023 9.700000000000045 1.1000000000000227 1.2999999999999545 2.3999999999999773 0.8999999999999773 3.7000000000000455 0.8999999999999773 1 0 0.5-0.8999999999999773 0.39999999999997726-1.2999999999999545-0.5-12.100000000000023-0.10000000000002274-24.300000000000068-0.20000000000004547-36.40000000000009 0-2.5 0-5 0.20000000000004547-7.5 0.39999999999997726-3.8999999999999773 2-5.399999999999977 5.899999999999977-5.599999999999909 1.5 0 2-0.20000000000004547 2-1.5z m-92-2.5c-17.600000000000023 0.5-30 16.799999999999955-26.100000000000023 34 2.8999999999999773 12.799999999999955 13.600000000000023 20.899999999999977 28.100000000000023 21 1.6000000000000227 0 3.6000000000000227-0.20000000000004547 5.7000000000000455-0.6000000000000227 18.799999999999955-3.3999999999999773 28.899999999999977-26.300000000000068 18.399999999999977-42.200000000000045-6.2000000000000455-9.399999999999977-15.5-12.5-26.100000000000023-12.199999999999932z m18.799999999999955 30.59999999999991c-0.1999999999999318 2.800000000000068-0.5 5.600000000000023-1.1999999999999318 8.400000000000091-1.8999999999999773 6.899999999999977-6.2000000000000455 11-12.600000000000023 11.799999999999955-7 0.8999999999999773-12.299999999999955-1.7999999999999545-16-7.7000000000000455-3.1000000000000227-5-4.2999999999999545-10.599999999999909-4.600000000000023-18.199999999999932 0-2.5 0.39999999999997726-6.7000000000000455 2-10.800000000000068 4.600000000000023-11.599999999999909 19-13.799999999999955 26.800000000000068-4 4.699999999999932 5.900000000000091 6.099999999999909 13 5.599999999999909 20.5z m-165.79999999999995-72.09999999999997c0.2999999999999545 2.900000000000034 0.6000000000000227 5.800000000000011 0.7999999999999545 8.699999999999989 0.10000000000002274 1.2000000000000455 0.40000000000009095 1.900000000000034 1.6000000000000227 2.5 7.800000000000068 3.900000000000034 15.899999999999977 5.100000000000023 24.399999999999977 2.8000000000000114 7.900000000000091-2.099999999999966 13.5-8.099999999999966 14.400000000000091-15.199999999999989 1-8-2.2000000000000455-13.899999999999977-10.300000000000068-18.100000000000023-4-2.099999999999966-8.100000000000023-3.6999999999999886-12.199999999999932-5.699999999999989-2.800000000000068-1.3000000000000114-5.400000000000091-2.8999999999999773-7.300000000000068-5.399999999999977-3.6000000000000227-4.900000000000034-1.7999999999999545-11.699999999999989 3.8999999999999773-13.900000000000034 6.7000000000000455-2.599999999999966 16.300000000000068-0.39999999999997726 19 8.900000000000034 0.20000000000004547 0.8000000000000114 0.5 1.599999999999966 0.6000000000000227 2.3999999999999773 0.20000000000004547 1.400000000000034 1.2000000000000455 1.1999999999999886 2.2000000000000455 1.3000000000000114 1.3999999999999773 0.10000000000002274 1.1999999999999318-0.8000000000000114 1.1999999999999318-1.6000000000000227-0.1999999999999318-3.6999999999999886-0.5-7.2999999999999545-0.6999999999999318-10.899999999999977-0.10000000000002274-1.1000000000000227-0.5-1.8000000000000114-1.6000000000000227-2.1999999999999886-6.2000000000000455-2.6999999999999886-12.600000000000023-4-19.399999999999977-2.900000000000034-8 1.3000000000000114-14.399999999999977 7-15.700000000000045 14-1.5 8.100000000000023 1.6000000000000227 14.700000000000045 9.300000000000068 19.200000000000045 3.3999999999999773 2 7.099999999999909 3.5 10.699999999999932 5.2999999999999545 2.6000000000000227 1.3000000000000114 5.2000000000000455 2.7000000000000455 7.100000000000023 5 5 6 2.2000000000000455 14.400000000000034-5.2999999999999545 16.200000000000045-6.600000000000023 1.5-13.5-1.5-17.300000000000068-7.7000000000000455-1.2999999999999545-2.1999999999999886-2.199999999999932-4.599999999999966-2.8999999999999773-7.099999999999966-0.20000000000004547-0.8000000000000114-0.10000000000002274-1.8000000000000114-1.5-1.3000000000000114-1 0.30000000000001137-1.6000000000000227 0.6000000000000227-1.2999999999999545 1.8999999999999773 0.1999999999999318 1.1000000000000227 0.1999999999999318 2.5 0.2999999999999545 3.8000000000000114z m-49.10000000000002 13c10.700000000000045-0.30000000000001137 21.399999999999977-0.19999999999998863 32.200000000000045 0 1.3999999999999773 0 1.7999999999999545-0.39999999999997726 1.7999999999999545-1.8000000000000114s-0.2999999999999545-1.8999999999999773-1.7999999999999545-1.8999999999999773c-2.8999999999999773 0.10000000000002274-5.800000000000068 0.10000000000002274-8.700000000000045-0.19999999999998863-2.7999999999999545-0.19999999999998863-3.8999999999999773-1.400000000000034-3.8999999999999773-4.199999999999989-0.10000000000002274-10.900000000000034-0.10000000000002274-21.80000000000001 0-32.700000000000045 0.10000000000002274-4.399999999999977 2.3999999999999773-7.599999999999966 6.2000000000000455-9.799999999999955 3.599999999999909-2.1000000000000227 6.5-0.9000000000000341 9.599999999999909 1.099999999999966 3.400000000000091 2.1999999999999886 7.400000000000091 0.6999999999999886 9.100000000000023-3 1.8999999999999773-4.300000000000011-0.5-9-5.199999999999932-10-4.900000000000091-1.099999999999966-8.700000000000045 1.1000000000000227-12.200000000000045 4.199999999999989-2.8999999999999773 2.6000000000000227-5 5.900000000000034-7.7000000000000455 9.800000000000011v-12.199999999999989c0-2-0.8999999999999773-2.5-2.699999999999932-1.6999999999999886l-14.300000000000068 6.899999999999977c-0.6999999999999318 0.30000000000001137-1.099999999999909 0.6999999999999886-1.099999999999909 1.5 0 0.9000000000000341 0.2999999999999545 1.400000000000034 1.1999999999999318 1.6000000000000227 0.6000000000000227 0.19999999999998863 1.1000000000000227 0.39999999999997726 1.6000000000000227 0.6999999999999886 3 1.1999999999999886 4.600000000000023 3.1000000000000227 4.399999999999977 6.699999999999989-0.2999999999999545 3.1000000000000227-0.10000000000002274 6.300000000000011-0.10000000000002274 9.5v27.19999999999999c0 3.3000000000000114-0.8999999999999773 4.300000000000011-4.199999999999932 4.600000000000023-1.3999999999999773 0.10000000000002274-2.800000000000068 0.19999999999998863-4.2000000000000455 0.10000000000002274s-1.8999999999999773 0.2999999999999545-1.8999999999999773 1.7999999999999545c0.10000000000002274 1.400000000000034 0.39999999999997726 1.900000000000034 1.8999999999999773 1.8000000000000114z m-73.29999999999995 69.50000000000006c-1.3999999999999773-0.40000000000009095-1.8000000000000682 0.1999999999999318-2.2000000000000455 1.3999999999999773-1 3.2999999999999545-2.7999999999999545 6.100000000000023-6.5 6.7999999999999545-4.2999999999999545 0.8000000000000682-8.600000000000023 0.8999999999999773-12.899999999999977 0.3000000000000682-2.5-0.40000000000009095-3.7000000000000455-1.900000000000091-3.7000000000000455-4.300000000000068-0.09999999999990905-5.199999999999932 0-10.299999999999955 0-15.5 0-1.1000000000000227 0.40000000000009095-1.3999999999999773 1.400000000000091-1.3999999999999773 2.099999999999909 0.10000000000002274 4.199999999999932 0 6.199999999999932 0 4.800000000000068 0 5.600000000000023 0.7999999999999545 6.300000000000068 5.399999999999977 0.09999999999990905 0.8000000000000682-0.40000000000009095 2.1000000000000227 1.5 1.8000000000000682 1.3999999999999773-0.3000000000000682 1.6999999999999318-0.8000000000000682 1.599999999999909-2.1000000000000227-0.2999999999999545-4.5-0.1999999999999318-9-0.09999999999990905-13.5 0-0.8999999999999773 1.1999999999999318-2.3999999999999773-1-2.7000000000000455-1.900000000000091-0.2999999999999545-1.900000000000091 0.8999999999999773-2.2000000000000455 2.2000000000000455-0.7000000000000455 3.199999999999932-2 4.2999999999999545-5.2999999999999545 4.399999999999977h-6.7000000000000455c-1.2000000000000455 0-1.7999999999999545-0.2999999999999545-1.7999999999999545-1.7000000000000455 0.09999999999990905-5.199999999999932 0.09999999999990905-10.5 0-15.699999999999932 0-1.3000000000000682 0.5-1.5 1.599999999999909-1.5 3.1000000000000227 0.10000000000002274 6.2000000000000455-0.10000000000002274 9.200000000000045 0 5.100000000000023 0.1999999999999318 7 1.8999999999999773 7.899999999999977 6.7999999999999545 0.10000000000002274 0.6000000000000227-0.6000000000000227 2.1000000000000227 1.2000000000000455 1.7000000000000455 1.2999999999999545-0.20000000000004547 2-0.7000000000000455 1.8999999999999773-2.300000000000068-0.20000000000004547-2.7999999999999545-0.39999999999997726-5.699999999999932-0.20000000000004547-8.5 0.10000000000002274-1.6999999999999318-0.39999999999997726-1.8999999999999773-1.8999999999999773-1.8999999999999773-11.5 0.5-22.899999999999977 0.5-34.39999999999998 0-0.8999999999999773 0-2-0.2999999999999545-2 1.3999999999999773 0 1.6000000000000227 0.6999999999999886 1.6000000000000227 1.8999999999999773 1.7000000000000455 3.6000000000000227 0.10000000000002274 4.600000000000023 1.2000000000000455 4.600000000000023 4.7000000000000455v37.39999999999998c0 3.5-1.1000000000000227 4.600000000000023-4.600000000000023 4.699999999999932-1.1999999999999886 0-2 0-2 1.6000000000000227s1 1.3999999999999773 2 1.3999999999999773h18.200000000000045s12.100000000000023-0.09999999999990905 18.199999999999932 0.10000000000002274c1.900000000000091 0 2.400000000000091-0.6000000000000227 2.7000000000000455-2.2999999999999545 0.5-2.800000000000068 1.1000000000000227-5.5 1.7000000000000455-8.300000000000068 0.1999999999999318-0.599999999999909 1-1.599999999999909-0.6000000000000227-2.099999999999909z m412 9.799999999999955c-2.7000000000000455 0-4-1.7000000000000455-4.800000000000068-4-2.199999999999932-6.2000000000000455-4.2999999999999545-12.399999999999977-6.5-18.5-3.199999999999932-9-6.399999999999977-18-9.5-27-0.6999999999999318-2.2000000000000455-1.599999999999909-2.6000000000000227-3.5-1.2999999999999545-1.1999999999999318 0.7999999999999545-2.599999999999909 1.3999999999999773-4 1.8999999999999773-1.1999999999999318 0.39999999999997726-1.599999999999909 1.1999999999999318-2 2.2999999999999545-4.399999999999977 14.200000000000045-9.699999999999932 28.100000000000023-14.5 42.10000000000002-0.8999999999999773 2.5-2.699999999999932 4.2999999999999545-5.399999999999977 4.5-1.5 0.10000000000002274-1.5 0.7999999999999545-1.5 1.8999999999999773 0 1.3000000000000682 0.8000000000000682 1.2000000000000455 1.7000000000000455 1.2000000000000455 4.899999999999977-0.5 9.799999999999955-0.39999999999997726 14.699999999999932 0 0.900000000000091 0.10000000000002274 1.6000000000000227 0 1.6000000000000227-1.3000000000000682-0.10000000000002274-1 0.10000000000002274-1.8999999999999773-1.3999999999999773-1.6999999999999318-0.5 0.10000000000002274-1 0-1.5 0-3.2999999999999545-0.3000000000000682-4.100000000000023-1.3999999999999773-3.1000000000000227-4.5 0.8999999999999773-3 2-6 2.800000000000068-9 0.39999999999997726-1.3999999999999773 0.8999999999999773-1.8999999999999773 2.3999999999999773-1.8000000000000682 2.1000000000000227 0.10000000000002274 4.199999999999932 0 6.199999999999932 0 2.2000000000000455 0 4.5 0.10000000000002274 6.7000000000000455 0 1.1000000000000227 0 1.7999999999999545 0.20000000000004547 2.2000000000000455 1.400000000000091l3.3999999999999773 10.399999999999977c0.6999999999999318 2.3999999999999773 0.1999999999999318 3.199999999999932-2.300000000000068 3.5-0.5 0.10000000000002274-1 0.10000000000002274-1.5 0.10000000000002274-1.2999999999999545-0.10000000000002274-1.1999999999999318 0.6999999999999318-1.2999999999999545 1.599999999999909 0 1 0.20000000000004547 1.5 1.3999999999999773 1.400000000000091 6.5-0.5 13-0.6000000000000227 19.399999999999977 0 1.1000000000000227 0.09999999999990905 1.5-0.3000000000000682 1.400000000000091-1.400000000000091 0-0.8999999999999773 0.1999999999999318-1.7999999999999545-1.1000000000000227-1.7999999999999545z m-34.60000000000002-20.399999999999977c2.1000000000000227-6.5 4.2000000000000455-12.800000000000068 6.5-19.700000000000045 2.2000000000000455 6.899999999999977 4.2999999999999545 13.200000000000045 6.399999999999977 19.700000000000045h-12.899999999999977z m-209.10000000000002 20.399999999999977c-2.6000000000000227 0-3.8999999999999773-1.5-4.699999999999932-3.7999999999999545-1.7000000000000455-4.800000000000068-3.400000000000091-9.5-5-14.300000000000068-3.7000000000000455-10.600000000000023-7.5-21.100000000000023-11.100000000000023-31.699999999999932-0.7000000000000455-2-1.5-2.300000000000068-3.2000000000000455-1.2000000000000455-1.3999999999999773 0.8999999999999773-3 1.5-4.5 2.1000000000000227-0.8999999999999773 0.39999999999997726-1.2999999999999545 1-1.6999999999999318 1.8999999999999773l-14.5 42.299999999999955c-0.900000000000091 2.6000000000000227-2.7000000000000455 4.400000000000091-5.600000000000023 4.5-1.5 0.10000000000002274-1.2000000000000455 0.900000000000091-1.3000000000000682 1.8000000000000682-0.09999999999990905 1.2999999999999545 0.6000000000000227 1.2999999999999545 1.6000000000000227 1.1999999999999318 4.899999999999977-0.5 9.800000000000068-0.5 14.700000000000045 0 1.1000000000000227 0.10000000000002274 1.6999999999999318 0 1.6999999999999318-1.3999999999999773 0-1.1000000000000227-0.2999999999999545-1.7999999999999545-1.5-1.6000000000000227h-1.1999999999999318c-3.5-0.2999999999999545-4.2000000000000455-1.2999999999999545-3.2000000000000455-4.599999999999909l2.800000000000068-9c0.2999999999999545-1.2000000000000455 0.7999999999999545-1.8000000000000682 2.199999999999932-1.7000000000000455 4.399999999999977 0.10000000000002274 8.800000000000068 0.10000000000002274 13.200000000000045 0 1.1999999999999318 0 1.7999999999999545 0.39999999999997726 2.1000000000000227 1.5 1 3.2000000000000455 2.099999999999909 6.2999999999999545 3.099999999999909 9.399999999999977 1.1000000000000227 3.5 0.6000000000000227 4.300000000000068-3.099999999999909 4.5-1.2000000000000455 0.10000000000002274-1.8000000000000682 0.3000000000000682-1.8000000000000682 1.6000000000000227 0 1.6000000000000227 0.8999999999999773 1.5 2 1.3999999999999773 3.7000000000000455-0.2999999999999545 7.5-0.39999999999997726 11.200000000000045-0.39999999999997726 2.6000000000000227 0.10000000000002274 5.100000000000023 0.20000000000004547 7.699999999999932 0.39999999999997726 1.1000000000000227 0.10000000000002274 1.5-0.2999999999999545 1.400000000000091-1.3999999999999773-0.10000000000002274-0.7000000000000455 0-1.5-1.3000000000000682-1.5z m-34.60000000000002-20.399999999999977c2.1000000000000227-6.399999999999977 4.2000000000000455-12.700000000000045 6.5-19.700000000000045 2.300000000000068 6.899999999999977 4.300000000000068 13.200000000000045 6.400000000000091 19.700000000000045h-12.900000000000091z m81.30000000000007-31.399999999999977c-0.6000000000000227-0.10000000000002274-1.6000000000000227-0.7000000000000455-1.8999999999999773 0.2999999999999545-0.6000000000000227 1.7999999999999545-2.1000000000000227 1.6000000000000227-3.5 1.6000000000000227h-38.90000000000009c-1.5 0-3 0.10000000000002274-3.8999999999999773-1.6000000000000227-0.39999999999997726-0.7999999999999545-1.2999999999999545-0.5-2-0.39999999999997726s-0.6000000000000227 0.6999999999999318-0.6000000000000227 1.1999999999999318c0 3.6000000000000227-0.599999999999909 7.100000000000023-1.099999999999909 10.600000000000023-0.10000000000002274 0.6000000000000227-0.40000000000009095 1.5 0.599999999999909 1.5 0.8000000000000682 0 1.8000000000000682 0.39999999999997726 2.2000000000000455-0.6000000000000227 0.20000000000004547-0.5 0.20000000000004547-1.099999999999909 0.39999999999997726-1.6999999999999318 0.8999999999999773-3.7000000000000455 1.7000000000000455-4.300000000000068 5.5-4.399999999999977l10.700000000000045-0.10000000000002274c1.2999999999999545 0 1.8999999999999773 0.2999999999999545 1.8999999999999773 1.7999999999999545v37.39999999999998c0 5.300000000000068-0.7999999999999545 6-6.100000000000023 6.2000000000000455-1 0-1.6000000000000227 0.10000000000002274-1.6999999999999318 1.5 0 1.5 0.599999999999909 1.7000000000000455 1.7999999999999545 1.6000000000000227 7.399999999999977-0.5 14.799999999999955-0.5 22.200000000000045 0 1.099999999999909 0.10000000000002274 1.599999999999909-0.20000000000004547 1.599999999999909-1.5 0-1.2000000000000455-0.2999999999999545-1.5-1.5-1.6000000000000227-5-0.20000000000004547-6-1.3999999999999773-6.099999999999909-6.399999999999977v-37.200000000000045c0-1.3999999999999773 0.39999999999997726-1.8999999999999773 1.7999999999999545-1.7999999999999545 3.1000000000000227 0.10000000000002274 6.2000000000000455 0 9.200000000000045 0 3.8999999999999773 0 5.2999999999999545 1.2999999999999545 5.899999999999977 5.199999999999932 0.10000000000002274 0.6000000000000227-0.5 2 0.8999999999999773 1.7000000000000455 0.8999999999999773-0.20000000000004547 2.2000000000000455-0.20000000000004547 2.1000000000000227-1.8999999999999773-0.10000000000002274-3.3999999999999773 0.1999999999999318-6.800000000000068 0.8999999999999773-10.200000000000045 0.10000000000002274-0.2999999999999545 0.39999999999997726-1.1000000000000227-0.39999999999997726-1.1999999999999318z m-259.5 0c-0.6000000000000227-0.10000000000002274-1.5-0.5-1.8000000000000114 0.2999999999999545-0.6000000000000227 2-2.1999999999999886 1.7000000000000455-3.6000000000000227 1.7000000000000455h-38.89999999999998c-1.400000000000034 0-2.900000000000034 0.09999999999990905-3.6000000000000227-1.5-0.39999999999997726-0.900000000000091-1.3000000000000114-0.6000000000000227-2-0.5-0.8000000000000114 0.09999999999990905-0.5999999999999659 0.7999999999999545-0.6999999999999886 1.3999999999999773-0.19999999999998863 3.5-0.6000000000000227 6.899999999999977-1.1000000000000227 10.399999999999977-0.0999999999999659 0.7000000000000455-0.5 1.6000000000000227 0.8000000000000114 1.6000000000000227 0.8000000000000114 0 2 0.5 2.1000000000000227-1 0-0.3000000000000682 0.0999999999999659-0.7000000000000455 0.19999999999998863-1 1.1000000000000227-4.300000000000068 1.6999999999999886-4.7000000000000455 6.199999999999989-4.800000000000068 3.1999999999999886 0 6.300000000000011 0.10000000000002274 9.5-0.09999999999990905 1.900000000000034-0.10000000000002274 2.6000000000000227 0.39999999999997726 2.5 2.3999999999999773l-0.0999999999999659 36.89999999999998c0 5.100000000000023-0.8000000000000114 5.899999999999977-5.900000000000034 6-1.3000000000000114 0-1.6999999999999886 0.2999999999999545-1.6999999999999886 1.7000000000000455s0.6999999999999886 1.3999999999999773 1.6999999999999886 1.3999999999999773c4.400000000000034-0.10000000000002274 8.800000000000011-0.3000000000000682 13.199999999999989-0.3000000000000682 3.1000000000000227 0 6.100000000000023 0.20000000000004547 9.200000000000045 0.3000000000000682 1.099999999999966 0.10000000000002274 1.5-0.3000000000000682 1.5-1.3999999999999773s-0.20000000000004547-1.7000000000000455-1.5-1.6000000000000227c-5.600000000000023 0.2999999999999545-6.2000000000000455-2.300000000000068-6.2000000000000455-6.7000000000000455-0.0999999999999659-6 0-12 0-18v-18.699999999999932c0-1.5 0.30000000000001137-2.1000000000000227 1.900000000000034-2 2.8000000000000114 0.09999999999990905 5.699999999999989 0 8.5 0 4.800000000000011 0 5.800000000000011 0.8999999999999773 6.599999999999966 5.5 0.10000000000002274 0.599999999999909-0.2999999999999545 1.7999999999999545 1 1.3999999999999773 0.8000000000000114-0.20000000000004547 2.1000000000000227-0.20000000000004547 2.1000000000000227-1.7000000000000455-0.10000000000002274-3.5 0.30000000000001137-7 0.8000000000000114-10.399999999999977-0.10000000000002274-0.5 0.19999999999998863-1.2000000000000455-0.6999999999999886-1.2999999999999545z m-37.5-27.500000000000057c8.5-0.30000000000001137 16.899999999999977-0.19999999999998863 25.399999999999977 0 1.8000000000000114 0 2.8999999999999773-1.599999999999966 1.8999999999999773-3-0.6999999999999886-1.099999999999966-2-0.5-3-0.5-5.2999999999999545-0.19999999999998863-6.199999999999989-1.099999999999966-6.199999999999989-6.300000000000011v-50.299999999999955c0-2.6000000000000227-0.5999999999999659-3-3-2-4.199999999999989 1.7999999999999545-8.599999999999966 3-12.899999999999977 4.5-0.8000000000000114 0.2999999999999545-2.1000000000000227 0-2.1999999999999886 1.5-0.10000000000002274 1.3999999999999773 0.6999999999999886 1.8999999999999773 1.6999999999999886 2.3999999999999773 4.099999999999966 1.8000000000000114 5.5 5 5.399999999999977 9.399999999999977-0.19999999999998863 11.200000000000045 0 22.400000000000034-0.0999999999999659 33.700000000000045 0 6.699999999999989-0.4000000000000341 7.199999999999989-7.2000000000000455 7.199999999999989-1.3999999999999773 0-2.099999999999966 0.19999999999998863-2.099999999999966 1.8000000000000114 0.0999999999999659 1.599999999999966 0.8999999999999773 1.6999999999999886 2.3000000000000114 1.599999999999966z m539.1999999999999 69.00000000000006c-0.7999999999999545 0-1.8999999999999773-0.6000000000000227-2.2999999999999545 0.7999999999999545-0.20000000000004547 0.7000000000000455-0.5 1.3999999999999773-0.7999999999999545 2.1000000000000227-1.400000000000091 3.7999999999999545-4.300000000000068 5.899999999999977-8.200000000000045 6.399999999999977-2.8999999999999773 0.39999999999997726-5.899999999999977 0.6000000000000227-8.899999999999977 0.20000000000004547-4.300000000000068-0.5-5-1.2000000000000455-5-5.400000000000091v-35.39999999999998c0-4.7999999999999545 0.1999999999999318-5.100000000000023 5-5.199999999999932 1.1000000000000227 0 1.8999999999999773 0 1.8999999999999773-1.5s-0.7000000000000455-1.6000000000000227-1.7999999999999545-1.5c-4.100000000000023 0.09999999999990905-8.100000000000023 0.2999999999999545-12.200000000000045 0.2999999999999545-2.7000000000000455 0-5.5-0.20000000000004547-8.200000000000045-0.39999999999997726-1.3999999999999773-0.10000000000002274-1.599999999999909 0.6000000000000227-1.599999999999909 1.7999999999999545 0 1.8000000000000682 1.1999999999999318 1.2000000000000455 2.099999999999909 1.3000000000000682 3.400000000000091 0.1999999999999318 4.600000000000023 1.1999999999999318 4.600000000000023 4.199999999999932v37.89999999999998c0 3.400000000000091-1.1999999999999318 4.600000000000023-4.699999999999932 4.7000000000000455-1.2000000000000455 0-2 0-2 1.6000000000000227s1 1.3999999999999773 2 1.3999999999999773h36.39999999999998c1.1000000000000227 0 1.8999999999999773-0.10000000000002274 2.1000000000000227-1.3999999999999773l2.199999999999932-10.5c-0.10000000000002274-0.39999999999997726 0.6000000000000227-1.3000000000000682-0.6000000000000227-1.3999999999999773z m-619.9 10.299999999999955c-3.599999999999966-0.10000000000002274-4.599999999999966-1.2000000000000455-4.599999999999966-4.7000000000000455v-36.89999999999998c0-4.100000000000023 0.8000000000000114-5 4.800000000000011-5.199999999999932 1.1999999999999886 0 1.7999999999999545-0.20000000000004547 1.6999999999999886-1.6000000000000227 0-1.3000000000000682-0.6000000000000227-1.5-1.6999999999999886-1.3999999999999773-6.7000000000000455 0.39999999999997726-13.400000000000034 0.5-20.200000000000045 0-1-0.10000000000002274-1.7999999999999545-0.10000000000002274-1.7999999999999545 1.2999999999999545 0 1.2999999999999545 0.39999999999997726 1.6000000000000227 1.6999999999999886 1.7000000000000455 4.199999999999989 0.09999999999990905 4.899999999999977 1 4.899999999999977 5.099999999999909v36.90000000000009c0 3.699999999999932-0.8999999999999773 4.699999999999932-4.699999999999989 4.7999999999999545-1.3000000000000114 0-2 0.10000000000002274-1.8999999999999773 1.7000000000000455 0 1.6999999999999318 1.099999999999966 1.3999999999999773 2 1.2999999999999545 6.5-0.5 13-0.39999999999997726 19.399999999999977 0 1 0.10000000000002274 2.1000000000000227 0.5 2.1999999999999886-1.3999999999999773 0.30000000000001137-1.7000000000000455-0.5999999999999659-1.5-1.8000000000000114-1.6000000000000227z m401.80000000000007-46.700000000000045c1.099999999999909 0 2.099999999999909 0.10000000000002274 2-1.599999999999909 0-1.900000000000091-1.2000000000000455-1.400000000000091-2.2000000000000455-1.400000000000091-5.7999999999999545 0.10000000000002274-11.600000000000023 0.8000000000000682-17.100000000000023 0-0.7999999999999545 0-1.2999999999999545-0.09999999999990905-1.7999999999999545 0-1 0.20000000000004547-2.3999999999999773-0.7999999999999545-2.5 1.400000000000091-0.10000000000002274 2 1.1999999999999318 1.599999999999909 2.2999999999999545 1.599999999999909 3.300000000000068 0.20000000000004547 4.300000000000068 1.2000000000000455 4.300000000000068 4.7000000000000455v37.200000000000045c0 3.8999999999999773-0.900000000000091 4.7999999999999545-4.800000000000068 4.899999999999977-1.1999999999999318 0-1.7999999999999545 0.1999999999999318-1.7999999999999545 1.6000000000000227 0 1.599999999999909 0.8999999999999773 1.5 1.8999999999999773 1.3999999999999773 6.600000000000023-0.5 13.100000000000023-0.39999999999997726 19.700000000000045 0 1 0.10000000000002274 1.8999999999999773 0.1999999999999318 2-1.3999999999999773 0-1.7000000000000455-0.8000000000000682-1.6000000000000227-2-1.6000000000000227-3.6000000000000227-0.10000000000002274-4.600000000000023-1.1000000000000227-4.600000000000023-4.7000000000000455v-37.39999999999998c0-3.6000000000000227 1-4.600000000000023 4.600000000000023-4.7000000000000455z m-308.6-116.29999999999995c3.6999999999999886 0.10000000000002274 6.7999999999999545-2.8999999999999773 6.7999999999999545-6.699999999999989 0.10000000000002274-3.6000000000000227-2.8999999999999773-6.699999999999989-6.5-6.800000000000011-3.3999999999999773-0.10000000000002274-6.7999999999999545 3.1000000000000227-6.899999999999977 6.5-0.10000000000002274 3.6000000000000227 3 6.899999999999977 6.600000000000023 7z m-311.1 7.699999999999989c-2.5999999999999943-1.099999999999966-2.5999999999999943-1.099999999999966-2.5999999999999943 1.6999999999999886v135.89999999999998c0 2.300000000000068 0.5 2.400000000000091 2.5 1.6000000000000227 16.099999999999994-7.100000000000023 28.599999999999994-18.100000000000023 37-33.5 21.299999999999983-39.599999999999966 4.099999999999994-87.89999999999998-36.900000000000006-105.69999999999999z m-59.099999999999994-0.19999999999998863c-4.900000000000006 2.1999999999999886-9.600000000000009 4.800000000000011-14.100000000000009 7.899999999999977-24.099999999999994 16.5-36.9 48.400000000000034-30.699999999999996 76.80000000000007 3.799999999999997 17 11.899999999999999 31.399999999999977 25.499999999999993 42.69999999999993 5.900000000000006 4.899999999999977 12.200000000000003 8.800000000000068 19.10000000000001 12 2.3999999999999915 1.1000000000000227 2.5 1.1000000000000227 2.5-1.6999999999999318v-67.80000000000007c0-22.799999999999955 0-45.5 0.09999999999999432-68.29999999999995 0-2.400000000000034-0.7000000000000028-2.3000000000000114-2.3999999999999915-1.6000000000000227z"/>
</svg>
