<svg xmlns="http://www.w3.org/2000/svg" viewBox="0 0 1000 1000" width="1000" height="1000">
<path d="M846.7 154.4h-693.4000000000001c-84.29999999999995 0-153.29999999999995 68.9-153.29999999999995 153.20000000000002v384.69999999999993c0 84.30000000000007 69 153.30000000000007 153.3 153.30000000000007h693.4000000000001c84.29999999999995 0 153.29999999999995-69 153.29999999999995-153.30000000000007v-384.69999999999993c0-84.30000000000001-69-153.20000000000002-153.29999999999995-153.20000000000002z m-4.900000000000091 292.79999999999995c3.5-1.2999999999999545 6.900000000000091-2.599999999999909 10.200000000000045-4.499999999999943 2-1.099999999999966 2.3999999999999773-0.8999999999999773 2.3999999999999773 1.5v36.900000000000034c2.5-2 4.7000000000000455-3.6000000000000227 7.2000000000000455-5 8.100000000000023-4.400000000000034 17.600000000000023-2.400000000000034 23 5.099999999999966 5.7999999999999545 8.100000000000023 5.899999999999977 16.900000000000034 2.199999999999932 25.80000000000001-3.699999999999932 8.799999999999955-10.299999999999955 14.5-20.09999999999991 15.700000000000045-5.2000000000000455 0.599999999999909-10.200000000000045-0.3000000000000682-14.800000000000068-2.6000000000000227-1.3999999999999773-0.7000000000000455-2.5-0.8000000000000682-3.699999999999932 0.39999999999997726-0.8000000000000682 0.7999999999999545-1.6000000000000227 1.2000000000000455-2.800000000000068 0.39999999999997726-1.1999999999999318-0.6999999999999318-0.6999999999999318-1.6999999999999318-0.6000000000000227-2.5 0.7000000000000455-4.899999999999977 1.1000000000000227-9.699999999999989 1.1000000000000227-14.699999999999989v-48.69999999999999c-0.1999999999999318-3.3999999999999773-1-4.399999999999977-4.100000000000023-5.5-0.6999999999999318-0.19999999999998863-1.2999999999999545-0.19999999999998863-1.2999999999999545-1.3000000000000114 0-0.6999999999999886 0.6000000000000227-0.6999999999999886 1.2999999999999545-1z m-51 28.90000000000009l10.200000000000045-0.6000000000000227c2.5-0.19999999999998863 2.7000000000000455 0 2.7000000000000455 2.3999999999999773v27.600000000000023c0 1.8999999999999773 0.09999999999990905 3.8000000000000114 0.6999999999999318 5.600000000000023 1.3999999999999773 4.699999999999932 5.600000000000023 7.100000000000023 10.399999999999977 5.899999999999977 3.7000000000000455-1 6.800000000000068-3.2000000000000455 9.800000000000068-5.5 0.6000000000000227-0.39999999999997726 0.6999999999999318-1 0.6999999999999318-1.6999999999999886v-26.100000000000023c0-1.3999999999999773-0.6999999999999318-2.099999999999966-1.6999999999999318-2.599999999999966-1.8999999999999773-1-3.8999999999999773-1.5-5.899999999999977-2-1-0.20000000000004547-1.2000000000000455-0.6000000000000227-1.1000000000000227-1.5 0.10000000000002274-1 0.7999999999999545-0.8000000000000114 1.3999999999999773-0.8000000000000114 4.600000000000023-0.4000000000000341 9.100000000000023-0.8000000000000114 13.700000000000045-1.3000000000000114 1.6999999999999318-0.19999999999998863 2.099999999999909 0.39999999999997726 2.099999999999909 1.8999999999999773v37.200000000000045c0 2.6000000000000227 0.3000000000000682 2.8999999999999773 2.900000000000091 3h3c0.7999999999999545-0.10000000000002274 1.1999999999999318 0.1999999999999318 1.099999999999909 1 0 0.6999999999999318 0 1.1999999999999318-0.8999999999999773 1.2999999999999545-4.5 0.6000000000000227-8.899999999999977 1.6000000000000227-13.199999999999932 2.8999999999999773-1.3000000000000682 0.40000000000009095-1.400000000000091-0.1999999999999318-1.400000000000091-1.1999999999999318v-7.2000000000000455c-3.099999999999909 2.300000000000068-5.699999999999932 4.5-8.699999999999932 6.100000000000023-3.1000000000000227 1.6000000000000227-6.300000000000068 2.5-9.800000000000068 2.3999999999999773-6.099999999999909-0.10000000000002274-10.899999999999977-4.2999999999999545-11.099999999999909-10.299999999999955-0.3000000000000682-7.5-0.10000000000002274-15.100000000000023-0.20000000000004547-22.600000000000023v-5.899999999999977c-0.10000000000002274-3.7000000000000455-1.1000000000000227-5-4.7000000000000455-5.7000000000000455-0.8999999999999773-0.19999999999998863-1.6999999999999318-0.19999999999998863-1.5-1.5 0-1.1999999999999886 0.900000000000091-0.6999999999999886 1.5-0.7999999999999545z m-22.299999999999955 42.60000000000002h0.7999999999999545c3.900000000000091-0.10000000000002274 4.600000000000023-0.7000000000000455 4.600000000000023-4.600000000000023v-55.30000000000001c0-1.1999999999999886 0-2.400000000000034-0.10000000000002274-3.6000000000000227-0.09999999999990905-2.8000000000000114-1.3999999999999773-4.800000000000011-4.2999999999999545-5.399999999999977-0.6000000000000227-0.10000000000002274-1.2000000000000455-0.19999999999998863-1.2000000000000455-1.1000000000000227 0-0.8000000000000114 0.40000000000009095-1 1.1000000000000227-1.3000000000000114 3.800000000000068-1.2999999999999545 7.5-2.7999999999999545 11-4.899999999999977 1.2000000000000455-0.6999999999999886 1.8000000000000682-0.19999999999998863 1.8000000000000682 1 0.09999999999990905 0.8999999999999773 0 1.8000000000000114 0 2.6000000000000227v67c0 5.100000000000023 0.2999999999999545 5.399999999999977 5.399999999999977 5.5 0.8999999999999773 0 1.5-0.10000000000002274 1.5 1.1999999999999318 0 1.2000000000000455-0.3000000000000682 1.6000000000000227-1.6000000000000227 1.6000000000000227-6.399999999999977-0.1999999999999318-12.700000000000045-0.1999999999999318-19.100000000000023 0-0.8999999999999773 0-1.6999999999999318 0.20000000000004547-1.6999999999999318-1.1999999999999318 0.1999999999999318-1.400000000000091 0.6999999999999318-1.7000000000000455 1.7999999999999545-1.5z m-109.29999999999995-11.600000000000023c-1.5-1.7000000000000455-3.400000000000091-2.8000000000000114-5.400000000000091-3.8000000000000114-2.699999999999932-1.400000000000034-5.5-2.5-8.099999999999909-4-5.800000000000068-3.400000000000034-8.200000000000045-8.400000000000034-7-14.5 1-5.300000000000011 5.7999999999999545-9.600000000000023 11.899999999999977-10.600000000000023 5.100000000000023-0.8000000000000114 10 0.10000000000002274 14.699999999999932 2.1999999999999886 0.8000000000000682 0.4000000000000341 1.2000000000000455 0.8000000000000114 1.2000000000000455 1.7000000000000455l0.5 8.299999999999955c0 0.6000000000000227 0.20000000000004547 1.3000000000000114-0.8999999999999773 1.2000000000000455-0.8000000000000682 0-1.5 0.0999999999999659-1.7000000000000455-1-0.10000000000002274-0.6000000000000227-0.2999999999999545-1.2000000000000455-0.5-1.8000000000000114-2-7.100000000000023-9.299999999999955-8.699999999999989-14.399999999999977-6.800000000000011-4.2999999999999545 1.6000000000000227-5.7000000000000455 6.800000000000011-2.8999999999999773 10.5 1.3999999999999773 1.8999999999999773 3.3999999999999773 3.1000000000000227 5.600000000000023 4.100000000000023 3.099999999999909 1.5 6.199999999999932 2.6999999999999886 9.199999999999932 4.2999999999999545 6.100000000000023 3.2000000000000455 8.5 7.7000000000000455 7.800000000000068 13.700000000000045-0.7000000000000455 5.2999999999999545-5 9.899999999999977-10.900000000000091 11.5-6.399999999999977 1.6999999999999318-12.599999999999909 0.7999999999999545-18.5-2.1000000000000227-0.8999999999999773-0.39999999999997726-1.099999999999909-1-1.1999999999999318-1.8999999999999773l-0.6000000000000227-6.600000000000023c-0.10000000000002274-1 0-2-0.2999999999999545-3-0.20000000000004547-1 0.2999999999999545-1.1999999999999886 1-1.3999999999999773 1-0.30000000000001137 0.8999999999999773 0.39999999999997726 1.099999999999909 1 0.5 1.8999999999999773 1.2000000000000455 3.6999999999999886 2.2000000000000455 5.399999999999977 2.7999999999999545 4.600000000000023 8 7 13.100000000000023 5.7999999999999545 5.7999999999999545-1.1999999999999318 7.899999999999977-7.699999999999932 4.100000000000023-12.199999999999932z m-58.200000000000045 11.600000000000023c1.1000000000000227 0.09999999999990905 2.1000000000000227 0 3.2000000000000455-0.10000000000002274 2.5-0.20000000000004547 3.199999999999932-1 3.199999999999932-3.5v-20.600000000000023c0-2.3999999999999773-0.1999999999999318-4.800000000000011 0-7.199999999999989 0.20000000000004547-2.6999999999999886-1-4.100000000000023-3.2999999999999545-5-0.39999999999997726-0.19999999999998863-0.8000000000000682-0.4000000000000341-1.2000000000000455-0.5-0.6999999999999318-0.19999999999998863-0.8999999999999773-0.5-0.8999999999999773-1.1999999999999886 0-0.6000000000000227 0.2999999999999545-0.9000000000000341 0.7999999999999545-1.1000000000000227l10.800000000000068-5.199999999999989c1.2999999999999545-0.6000000000000227 2-0.19999999999998863 2 1.3000000000000114v9.199999999999989c2-2.900000000000034 3.6000000000000227-5.400000000000034 5.7999999999999545-7.400000000000034 2.6000000000000227-2.3999999999999773 5.5-4 9.200000000000045-3.1999999999999886 3.5 0.8000000000000114 5.2999999999999545 4.300000000000011 3.8999999999999773 7.600000000000023-1.2000000000000455 2.8000000000000114-4.2999999999999545 4-6.899999999999977 2.3000000000000114-2.3999999999999773-1.6000000000000227-4.600000000000023-2.400000000000034-7.300000000000068-0.8000000000000114-2.8999999999999773 1.6999999999999886-4.699999999999932 4.099999999999966-4.699999999999932 7.399999999999977-0.10000000000002274 8.199999999999989-0.10000000000002274 16.5 0 24.69999999999999 0 2.1000000000000227 0.7999999999999545 3 2.8999999999999773 3.1000000000000227 2.2000000000000455 0.20000000000004547 4.399999999999977 0.20000000000004547 6.600000000000023 0.10000000000002274 1.1000000000000227 0 1.3999999999999773 0.39999999999997726 1.3999999999999773 1.3999999999999773 0 1.1000000000000227-0.2999999999999545 1.3999999999999773-1.3999999999999773 1.3999999999999773-8.100000000000023-0.1999999999999318-16.200000000000045-0.1999999999999318-24.300000000000068 0-1.099999999999909 0-1.2999999999999545-0.39999999999997726-1.2999999999999545-1.3999999999999773 0.10000000000002274-1.1000000000000227 0.39999999999997726-1.3999999999999773 1.5-1.2999999999999545z m-35.700000000000045-37.900000000000034c7.100000000000023-8.600000000000023 20.300000000000068-9.100000000000023 27.700000000000045-1.6000000000000227 3.2000000000000455 3.3000000000000114 4.399999999999977 7.400000000000034 4.2999999999999545 11.900000000000034 0 1.5-1 1.6999999999999886-2.099999999999909 1.6999999999999886h-26.600000000000023c-1.2000000000000455 0-1.6000000000000227 0.39999999999997726-1.6000000000000227 1.599999999999966 0 4.300000000000011 0.2999999999999545 8.5 2.1000000000000227 12.5 4.5 10 14.100000000000023 12.700000000000045 23.100000000000023 6.399999999999977 1.1999999999999318-0.7999999999999545 2.2999999999999545-1.7999999999999545 3.2999999999999545-2.7999999999999545 0.5-0.5 0.8999999999999773-0.8000000000000114 1.5-0.10000000000002274 0.39999999999997726 0.5 0.8999999999999773 0.8000000000000114 0.2999999999999545 1.6000000000000227-3.8999999999999773 4.899999999999977-8.299999999999955 9.200000000000045-14.699999999999932 10.600000000000023-9.300000000000068 2-17.700000000000045-2-21.300000000000068-10.800000000000011-4.5-11-3.699999999999932-21.600000000000023 4-31z m-56.49999999999994 37.900000000000034h0.8999999999999773c3.400000000000034-0.20000000000004547 4.099999999999966-0.8000000000000682 4.099999999999966-4.2000000000000455 0-8.600000000000023-0.09999999999990905-17.30000000000001 0.10000000000002274-25.899999999999977 0.10000000000002274-3.6000000000000227-1.2999999999999545-5.900000000000034-4.599999999999966-7.100000000000023-0.5-0.19999999999998863-1.1999999999999886-0.19999999999998863-1.3000000000000114-0.8999999999999773-0.10000000000002274-0.9000000000000341-0.30000000000001137-1.7000000000000455 1.1000000000000227-2.2000000000000455 4-1.1999999999999886 7.899999999999977-2.5 11.699999999999932-4.199999999999989 1.3000000000000682-0.5999999999999659 1.6000000000000227 0 1.6000000000000227 1.1000000000000227v6.199999999999989c3.2000000000000455-2.1000000000000227 6-4.100000000000023 9.100000000000023-5.600000000000023 2.7000000000000455-1.2999999999999545 5.600000000000023-2 8.600000000000023-2 6.600000000000023-0.19999999999998863 11.100000000000023 3.8000000000000114 11.899999999999977 10.600000000000023 0.20000000000004547 1.8999999999999773 0.2999999999999545 3.8000000000000114 0.2999999999999545 5.600000000000023v24.600000000000023c0 3 0.6000000000000227 3.599999999999909 3.6000000000000227 3.8999999999999773 0.6000000000000227 0.10000000000002274 1.3000000000000682 0.10000000000002274 1.8999999999999773 0.10000000000002274 1-0.10000000000002274 1.6000000000000227 0 1.7000000000000455 1.2999999999999545 0 1.3999999999999773-0.7000000000000455 1.3999999999999773-1.7000000000000455 1.3999999999999773h-19.09999999999991c-0.900000000000091 0-1.7000000000000455 0.10000000000002274-1.7000000000000455-1.2999999999999545s0.7000000000000455-1.5 1.7000000000000455-1.3999999999999773h1.5c3-0.20000000000004547 3.699999999999932-0.900000000000091 3.699999999999932-4v-25.500000000000057c0-7.099999999999966-4.7999999999999545-10.899999999999977-11.699999999999932-9.300000000000011-3.300000000000068 0.8000000000000114-6.2000000000000455 2.400000000000034-9.100000000000023 4.100000000000023-0.7000000000000455 0.39999999999997726-0.7000000000000455 0.8999999999999773-0.7000000000000455 1.6000000000000227v29.799999999999955c0 2 0.7000000000000455 2.800000000000068 2.800000000000068 3.1000000000000227 0.8999999999999773 0.10000000000002274 1.7999999999999545 0.20000000000004547 2.599999999999909 0.10000000000002274 1 0 1.6000000000000227 0 1.6000000000000227 1.2999999999999545 0 1.5-0.6999999999999318 1.3999999999999773-1.6999999999999318 1.3999999999999773h-18.900000000000034c-0.9000000000000341 0-1.8000000000000114 0.3000000000000682-1.900000000000034-1.2999999999999545s0.9000000000000341-1.2999999999999545 1.900000000000034-1.2999999999999545z m-15.699999999999989-70.90000000000003c2.6999999999999886 0.0999999999999659 5 2.3999999999999773 4.899999999999977 5.099999999999966 0 2.900000000000034-2.3999999999999773 5.2000000000000455-5.199999999999989 5.100000000000023s-5.100000000000023-2.5-5-5.300000000000011c0.0999999999999659-2.599999999999966 2.6999999999999886-5 5.300000000000011-4.899999999999977z m-9.800000000000011 70.90000000000003c5.099999999999966 0 5.399999999999977-0.40000000000009095 5.399999999999977-5.5 0-8.500000000000057-0.0999999999999659-17.000000000000057 0-25.500000000000057 0-3.3000000000000114-1-5.699999999999989-4.099999999999966-7.099999999999966-0.8000000000000114-0.30000000000001137-1.400000000000034-0.7000000000000455-1.3000000000000114-1.8000000000000114s1.099999999999966-0.9000000000000341 1.6999999999999886-1.1000000000000227c3.3000000000000114-1.099999999999966 6.600000000000023-2 9.800000000000011-3.3999999999999773 1.8000000000000114-0.8000000000000114 2.1999999999999886-0.5 2.3000000000000114 1.5v38.099999999999966c0 4 0.6999999999999886 4.7000000000000455 4.699999999999989 4.800000000000068 0.8000000000000114 0 1.6999999999999886-0.5 2.3000000000000114 0.39999999999997726 0.6999999999999886 1.1000000000000227-0.10000000000002274 2.2999999999999545-1.5 2.2999999999999545-6.400000000000034-0.10000000000002274-12.800000000000011-0.1999999999999318-19.200000000000045 0-1 0-1.599999999999966 0-1.599999999999966-1.2999999999999545-0.10000000000002274-1.3000000000000682 0.39999999999997726-1.3999999999999773 1.5-1.3999999999999773z m-75.30000000000001-69.70000000000005c5.800000000000011 0.30000000000001137 11.600000000000023 0.10000000000002274 16 0.10000000000002274 8.800000000000011-0.20000000000004547 16.19999999999999-0.7000000000000455 23.600000000000023 0.8999999999999773 11.299999999999955 2.3999999999999773 20.5 8 26.19999999999999 18.30000000000001 10.899999999999977 19.399999999999977 1.099999999999966 43.599999999999966-20.100000000000023 50.49999999999994-5.599999999999966 1.8000000000000682-11.399999999999977 2.6000000000000227-17.30000000000001 2.6000000000000227-9.5 0-19-0.1999999999999318-28.5 0-0.6999999999999886 0-1.599999999999966 0.20000000000004547-1.5-1 0.10000000000002274-0.8999999999999773-0.0999999999999659-1.6999999999999318 1.3000000000000114-1.8999999999999773 7-0.7999999999999545 8.199999999999989-2.1000000000000227 8.199999999999989-9.199999999999989v-47.80000000000001c0-1.8000000000000114 0-3.5-0.39999999999997726-5.199999999999989-0.8000000000000114-2.6999999999999886-2.3999999999999773-4.100000000000023-5.199999999999989-4.400000000000034-0.8000000000000114-0.0999999999999659-1.6000000000000227-0.2999999999999545-2.400000000000034-0.19999999999998863-1.3999999999999773 0.19999999999998863-1.3999999999999773-0.5999999999999659-1.3999999999999773-1.6999999999999886-0.19999999999998863-1.3999999999999773 0.6999999999999886-1.1000000000000227 1.5-1z m-61.30000000000001 143.10000000000002c-14.599999999999966 11.899999999999977-31.399999999999977 19.199999999999932-50 22.100000000000023-4.899999999999977 0.7999999999999545-9.800000000000011 1.1999999999999318-14.699999999999989 1.1999999999999318-15.699999999999989 0-31.5 0.20000000000004547-47.19999999999999 0-33.70000000000002-0.39999999999997726-60.900000000000006-14.100000000000023-81-41.10000000000002-14.400000000000006-19.399999999999977-20.200000000000017-41.5-18.30000000000001-65.69999999999993 1.3000000000000114-15.900000000000034 5.800000000000011-30.80000000000001 14.099999999999994-44.30000000000001 12.099999999999994-19.69999999999999 29.30000000000001-33.10000000000002 51.099999999999994-40.69999999999999 11-3.8000000000000114 22.5-5.600000000000023 34.10000000000002-5.600000000000023h24.80000000000001c8.299999999999955 0.19999999999998863 18.399999999999977-0.39999999999997726 28.5 0.30000000000001137 20.899999999999977 1.3999999999999773 39.799999999999955 8.199999999999989 56.69999999999999 20.69999999999999 14.099999999999966 10.399999999999977 24.69999999999999 23.600000000000023 31.69999999999999 39.69999999999999 6 13.800000000000011 8.699999999999989 28.30000000000001 7.800000000000011 43.30000000000001-1.900000000000034 29-15.300000000000011 52-37.60000000000002 70.10000000000002z m75.5-8.399999999999977c-4.899999999999977-0.3000000000000682-9.800000000000011-0.40000000000009095-14.699999999999989 0-0.6999999999999886 0.09999999999990905-1.5 0.2999999999999545-1.5-1 0-1.2000000000000455 0.5-1.3000000000000682 1.5-1.3000000000000682 2.8999999999999773-0.10000000000002274 3.5-0.7999999999999545 3.5-3.6000000000000227v-27.899999999999977c0-3.1000000000000227-0.6000000000000227-3.699999999999932-3.6999999999999886-3.7999999999999545-1 0-1.3000000000000114-0.3000000000000682-1.3000000000000114-1.3000000000000682 0-1.099999999999909 0.6000000000000227-1.099999999999909 1.3000000000000114-1 5.099999999999966 0.40000000000009095 10.199999999999989 0.3000000000000682 15.300000000000011 0 0.7999999999999545 0 1.1999999999999886 0.10000000000002274 1.2999999999999545 1.1000000000000227 0 1.1000000000000227-0.39999999999997726 1.2000000000000455-1.2999999999999545 1.2000000000000455-3.1000000000000227 0.10000000000002274-3.6000000000000227 0.7999999999999545-3.7000000000000455 3.8999999999999773v28c0 2.7000000000000455 0.8000000000000114 3.5 3.5 3.6000000000000227 0.9000000000000341 0 1.5-0.10000000000002274 1.5 1.1999999999999318-0.0999999999999659 1.3000000000000682-1 1-1.6999999999999886 0.900000000000091z m48.19999999999999-37.700000000000045c-3.2999999999999545 0.20000000000004547-4.5 1.3999999999999773-4.599999999999966 4.899999999999977-0.30000000000001137 10.600000000000023-0.19999999999998863 21.100000000000023 0 31.700000000000045 0 0.6000000000000227 0.6999999999999886 1.6000000000000227-0.10000000000002274 1.7999999999999545-1 0.3000000000000682-2.099999999999966 0.3000000000000682-3.099999999999966-0.7999999999999545-2.1000000000000227-2.5-4.300000000000011-4.899999999999977-6.5-7.300000000000068-7-7.7999999999999545-13.900000000000034-15.5-21.30000000000001-23.699999999999932v13.399999999999977c0 3.7000000000000455 0 7.399999999999977 0.0999999999999659 11.100000000000023 0.10000000000002274 3.1000000000000227 1.400000000000034 4.199999999999932 4.5 4.2999999999999545 0.9000000000000341 0 1.8000000000000114-0.1999999999999318 1.7000000000000455 1.2000000000000455s-1 1.1000000000000227-1.7000000000000455 1c-4.099999999999966-0.39999999999997726-8.299999999999955-0.3000000000000682-12.399999999999977 0-0.8000000000000114 0.10000000000002274-1.5 0.10000000000002274-1.5-1.1000000000000227 0-1.1000000000000227 0.5-1.2000000000000455 1.3999999999999773-1.2000000000000455 2.5-0.09999999999990905 3.7000000000000455-1.099999999999909 4.2000000000000455-3.5 0.19999999999998863-1.1999999999999318 0.39999999999997726-2.3999999999999773 0.39999999999997726-3.599999999999909v-22.800000000000068c0-3.3999999999999773-1.5-5.100000000000023-4.899999999999977-5.5-1.1000000000000227-0.10000000000002274-1-0.6000000000000227-1-1.2999999999999545-0.10000000000002274-1 0.5-1 1.1999999999999886-1 3.3000000000000114 0.1999999999999318 6.5 0.5 9.800000000000011 0 1.099999999999966-0.10000000000002274 1.599999999999966 0.6000000000000227 2.099999999999966 1.2999999999999545l22.19999999999999 25c0.4000000000000341 0.39999999999997726 0.7000000000000455 1 1.6000000000000227 1.3000000000000682v-19.5c0-4.2000000000000455-1.1000000000000227-5.400000000000091-5.300000000000011-5.900000000000091-0.8999999999999773-0.09999999999990905-0.8999999999999773-0.599999999999909-0.8999999999999773-1.1999999999999318-0.10000000000002274-0.8000000000000682 0.19999999999998863-1.1000000000000227 1.099999999999966-1.1000000000000227 4.400000000000034 0.20000000000004547 8.800000000000011 0.39999999999997726 13.200000000000045 0 0.7999999999999545-0.10000000000002274 1.1999999999999886 0.10000000000002274 1.099999999999966 1-0.30000000000001137 1-0.30000000000001137 1.5-1.3000000000000114 1.5z m41.10000000000002 5.100000000000023c0 1.1000000000000227-0.8999999999999773 1.1000000000000227-1.6000000000000227 1.2999999999999545-1 0.3000000000000682-0.6999999999999886-0.6999999999999318-0.7999999999999545-1.1000000000000227-0.6000000000000227-3.5-1.400000000000034-4.199999999999932-5-4.199999999999932-2.1000000000000227 0-4.300000000000011 0.10000000000002274-6.400000000000034 0-1.1999999999999886-0.10000000000002274-1.5 0.39999999999997726-1.5 1.5 0.10000000000002274 4.699999999999932 0 9.399999999999977 0 14.199999999999932 0 4.5-0.0999999999999659 9.100000000000023 0 13.600000000000023 0.10000000000002274 3.3999999999999773 0.5 5.300000000000068 4.699999999999989 5.100000000000023 1-0.10000000000002274 1.2000000000000455 0.39999999999997726 1.2000000000000455 1.2000000000000455s-0.30000000000001137 1.099999999999909-1.1000000000000227 1.099999999999909c-2.3000000000000114-0.09999999999990905-4.699999999999989-0.2999999999999545-7-0.2999999999999545-3.3000000000000114 0-6.699999999999989 0.10000000000002274-10 0.2999999999999545-0.8000000000000114 0-1.3000000000000114 0-1.3000000000000114-1.099999999999909 0-1 0.4000000000000341-1.2000000000000455 1.3000000000000114-1.3000000000000682 3.8999999999999773-0.10000000000002274 4.5-0.7999999999999545 4.5-4.600000000000023v-27.899999999999977c0-1.5-0.5-1.8999999999999773-1.8999999999999773-1.7999999999999545-2.400000000000034 0.10000000000002274-4.800000000000011 0-7.2000000000000455 0-3.3999999999999773 0-3.8999999999999773 0.39999999999997726-4.699999999999989 3.6000000000000227-0.0999999999999659 0.1999999999999318-0.0999999999999659 0.5-0.0999999999999659 0.6999999999999318-0.10000000000002274 1.1000000000000227-1 0.7000000000000455-1.6000000000000227 0.7000000000000455-1 0.10000000000002274-0.6999999999999886-0.7000000000000455-0.6000000000000227-1.2000000000000455 0.4000000000000341-2.6000000000000227 0.7000000000000455-5.199999999999932 0.9000000000000341-7.899999999999977 0-0.39999999999997726-0.10000000000002274-1 0.5-1 0.5 0 1.1999999999999886-0.2999999999999545 1.5 0.39999999999997726 0.5999999999999659 1.2000000000000455 1.6999999999999886 1.2000000000000455 2.6999999999999886 1.2000000000000455h29.5c1.1000000000000227 0 2.3000000000000114 0.1999999999999318 2.8000000000000114-1.3000000000000682 0.19999999999998863-0.599999999999909 0.8999999999999773-0.1999999999999318 1.3000000000000114-0.1999999999999318 0.6999999999999318 0.10000000000002274 0.5 0.6000000000000227 0.39999999999997726 1-0.19999999999998863 2.699999999999932-0.5 5.399999999999977-0.5 8z m34.39999999999998 24.699999999999932l-1.2999999999999545 6.300000000000068c-0.20000000000004547 1.1999999999999318-0.6000000000000227 1.6999999999999318-2 1.6999999999999318-4.600000000000023-0.09999999999990905-9.200000000000045 0-13.800000000000068 0h-13.799999999999955c-0.7999999999999545 0-1.3999999999999773 0.20000000000004547-1.5-1.099999999999909 0-1.3000000000000682 0.6000000000000227-1.2000000000000455 1.5-1.2000000000000455 2.7000000000000455-0.10000000000002274 3.5-0.8999999999999773 3.5-3.5v-28.299999999999955c0-2.6000000000000227-0.7999999999999545-3.5-3.5-3.5-0.8999999999999773 0-1.5 0-1.5-1.3000000000000682s0.7999999999999545-1 1.5-1c8.700000000000045 0.3000000000000682 17.399999999999977 0.3000000000000682 26.100000000000023 0 1.1000000000000227 0 1.5 0.20000000000004547 1.3999999999999773 1.3999999999999773-0.10000000000002274 2.1000000000000227 0 4.300000000000068 0.20000000000004547 6.400000000000091 0.09999999999990905 1.1999999999999318-0.40000000000009095 1.5-1.400000000000091 1.6999999999999318-1.3999999999999773 0.3000000000000682-0.7999999999999545-0.7999999999999545-0.8999999999999773-1.2999999999999545-0.6999999999999318-3.7000000000000455-2.1000000000000227-5-6-5.2000000000000455-2.2999999999999545-0.10000000000002274-4.699999999999932 0-7 0-0.8999999999999773 0-1.1999999999999318 0.20000000000004547-1.1999999999999318 1.1000000000000227 0 4 0.09999999999990905 7.899999999999977 0 11.899999999999977 0 1 0.39999999999997726 1.3000000000000682 1.2999999999999545 1.3000000000000682 1.7000000000000455-0.10000000000002274 3.3999999999999773 0 5.100000000000023 0 2.5 0 3.5-0.900000000000091 4-3.300000000000068 0.1999999999999318-0.8999999999999773 0.1999999999999318-1.8999999999999773 1.6000000000000227-1.6999999999999318 1.599999999999909 0.2999999999999545 0.6999999999999318 1.3999999999999773 0.6999999999999318 2-0.10000000000002274 3.3999999999999773-0.1999999999999318 6.7999999999999545 0.10000000000002274 10.199999999999932 0.10000000000002274 1-0.10000000000002274 1.3999999999999773-1.2000000000000455 1.6000000000000227-1.3999999999999773 0.2999999999999545-1-0.7000000000000455-1.099999999999909-1.2999999999999545-0.5-3.5-1.1000000000000227-4.100000000000023-4.800000000000068-4.100000000000023h-4.699999999999932c-0.8000000000000682 0-1.1000000000000227 0.1999999999999318-1.1000000000000227 1.1000000000000227v11.699999999999932c0 1.8000000000000682 0.8999999999999773 2.8999999999999773 2.7999999999999545 3.2000000000000455 3.300000000000068 0.5 6.5 0.39999999999997726 9.800000000000068-0.20000000000004547 2.7999999999999545-0.5 4.199999999999932-2.6000000000000227 5-5.100000000000023 0.2999999999999545-1 0.599999999999909-1.3999999999999773 1.6999999999999318-1.099999999999909 1.2000000000000455 0.1999999999999318 0.6000000000000227 0.8999999999999773 0.5 1.599999999999909z m40.30000000000007 7.900000000000091c-3-0.3000000000000682-6-0.40000000000009095-9 0-1 0.09999999999990905-1.5-0.5-2-1.2000000000000455-3.7000000000000455-5-6.900000000000091-10.200000000000045-10-15.5-0.40000000000009095-0.7000000000000455-0.6000000000000227-1.6000000000000227-1.8000000000000682-1.7000000000000455-2.199999999999932-0.09999999999990905-2.2999999999999545-0.09999999999990905-2.2999999999999545 2.1000000000000227v9.800000000000068s0.7999999999999545 4.099999999999909 4.100000000000023 4.199999999999932c0.8999999999999773 0 1.5 0 1.5 1.2000000000000455 0 1.2999999999999545-0.8000000000000682 1-1.5 1h-5.800000000000068c-3.2999999999999545-0.39999999999997726-6.5-0.10000000000002274-9.799999999999955 0-0.8999999999999773 0-1.3999999999999773-0.10000000000002274-1.3999999999999773-1.2000000000000455 0-1 0.39999999999997726-1.1000000000000227 1.2999999999999545-1.1000000000000227 3-0.1999999999999318 3.7999999999999545-1 3.7999999999999545-4.099999999999909v-26.600000000000023c0-3.800000000000068-0.39999999999997726-4.300000000000068-4.199999999999932-4.7000000000000455-1-0.10000000000002274-0.8999999999999773-0.6999999999999318-0.8999999999999773-1.2999999999999545 0-0.7000000000000455 0.09999999999990905-1.1000000000000227 0.8999999999999773-1 2 0.10000000000002274 4 0.2999999999999545 6 0.2999999999999545l11.5-0.1999999999999318c2 0 4 0.1999999999999318 6 0.6999999999999318 3.5 0.8999999999999773 6.199999999999932 2.800000000000068 7.100000000000023 6.5 1 4 0.09999999999990905 7.600000000000023-3.1000000000000227 10.399999999999977-0.39999999999997726 0.40000000000009095-0.8999999999999773 0.7000000000000455-1.3000000000000682 1-0.8999999999999773 0.7000000000000455-2.5 0.8000000000000682-2.599999999999909 1.8000000000000682-0.10000000000002274 0.7999999999999545 1 1.7999999999999545 1.599999999999909 2.699999999999932l7.300000000000068 11c1.1999999999999318 1.8000000000000682 2.6000000000000227 3.2000000000000455 4.699999999999932 3.400000000000091 1.2000000000000455 0.09999999999990905 0.900000000000091 0.8999999999999773 1 1.599999999999909 0.20000000000004547 1.1000000000000227-0.5 1-1.099999999999909 0.900000000000091z m42.69999999999993-32.90000000000009c-0.10000000000002274 0.6000000000000227-0.1999999999999318 1.2000000000000455-0.1999999999999318 1.900000000000091 0.09999999999990905 10.199999999999932-0.3000000000000682 20.399999999999977 0.1999999999999318 30.59999999999991 0 0.40000000000009095 0.39999999999997726 1.2000000000000455-0.2999999999999545 1.3000000000000682-0.8999999999999773 0.10000000000002274-1.8999999999999773 0.39999999999997726-2.6000000000000227-0.5l-3.3999999999999773-3.800000000000068-23-25.59999999999991c-0.5-0.5-0.8999999999999773-1-1.7000000000000455-1.8000000000000682 0 8.5-0.10000000000002274 16.5 0 24.600000000000023 0 2.8999999999999773 1.3999999999999773 4 4.600000000000023 4 1 0 1.7000000000000455 0.10000000000002274 1.5 1.3999999999999773-0.10000000000002274 0.7000000000000455-0.2999999999999545 1-1 0.8999999999999773-4.5-0.2999999999999545-8.899999999999977-0.2999999999999545-13.399999999999977 0-0.7000000000000455 0.10000000000002274-1.2000000000000455-0.09999999999990905-1.2000000000000455-1 0-0.6999999999999318 0-1.1999999999999318 1-1.2999999999999545 3.2000000000000455-0.20000000000004547 4.399999999999977-1.2999999999999545 4.7000000000000455-4.5 0.1999999999999318-2.5 0.1999999999999318-5 0.1999999999999318-7.5v-17.799999999999955c0-3.6000000000000227-1.3999999999999773-5.2000000000000455-4.899999999999977-5.600000000000023-0.8999999999999773-0.10000000000002274-1-0.5-1-1.2000000000000455 0-0.7999999999999545 0.10000000000002274-1.1999999999999318 1-1.1000000000000227 3.3999999999999773 0.20000000000004547 6.800000000000068 0.5 10.200000000000045 0 1.1000000000000227-0.09999999999990905 1.5 0.8000000000000682 2.1000000000000227 1.400000000000091l21.899999999999977 24.699999999999932c0.39999999999997726 0.5 0.7999999999999545 0.8999999999999773 1.2999999999999545 1.3999999999999773 0.5-0.5 0.3000000000000682-1.099999999999909 0.3000000000000682-1.599999999999909v-17.800000000000068c0-4.399999999999977-1-5.399999999999977-5.2000000000000455-5.899999999999977-0.8999999999999773-0.10000000000002274-0.8999999999999773-0.5-1-1.2000000000000455 0-0.7999999999999545 0.20000000000004547-1.1999999999999318 1.1000000000000227-1.099999999999909 4.5 0.2999999999999545 8.899999999999977 0.39999999999997726 13.399999999999977 0 0.8999999999999773-0.10000000000002274 1.1000000000000227 0.2999999999999545 1 1.099999999999909 0 0.7000000000000455 0 1.3000000000000682-1 1.2000000000000455-3-0.2999999999999545-4.399999999999977 1.7000000000000455-4.600000000000023 4.7999999999999545z m43.80000000000007 32.90000000000009l-5.800000000000068-0.3000000000000682c-2.7999999999999545 0-5.699999999999932 0.10000000000002274-8.5 0.3000000000000682-0.7999999999999545 0.09999999999990905-1.5 0.1999999999999318-1.5-1 0-1 0.39999999999997726-1.2000000000000455 1.3000000000000682-1.2000000000000455 2.7999999999999545-0.10000000000002274 3.199999999999932-0.7000000000000455 2.2999999999999545-3.3999999999999773-0.7999999999999545-2.3999999999999773-1.6000000000000227-4.800000000000068-2.3999999999999773-7.100000000000023-0.3000000000000682-0.8999999999999773-0.7000000000000455-1.2000000000000455-1.6000000000000227-1.1000000000000227-3.2999999999999545 0.10000000000002274-6.7000000000000455 0.10000000000002274-10 0-1.1000000000000227 0-1.3999999999999773 0.39999999999997726-1.6000000000000227 1.3000000000000682-0.6000000000000227 2.2999999999999545-1.3999999999999773 4.599999999999909-2.1000000000000227 6.7999999999999545-0.7999999999999545 2.5-0.2999999999999545 3.2999999999999545 2.400000000000091 3.5 0.2999999999999545 0 0.599999999999909 0.10000000000002274 0.8999999999999773 0 0.8999999999999773-0.10000000000002274 1.1000000000000227 0.39999999999997726 1.1999999999999318 1.2000000000000455 0 1-0.5 1.099999999999909-1.2999999999999545 1.099999999999909-3.7000000000000455-0.2999999999999545-7.399999999999977-0.39999999999997726-11.100000000000023 0-0.6999999999999318 0.10000000000002274-1.1999999999999318 0-1.1999999999999318-0.8999999999999773 0-0.6999999999999318-0.10000000000002274-1.2999999999999545 1-1.3999999999999773 2.199999999999932-0.10000000000002274 3.599999999999909-1.3999999999999773 4.2999999999999545-3.3999999999999773 3.7000000000000455-10.700000000000045 7.399999999999977-21.300000000000068 11-32 0.20000000000004547-0.7000000000000455 0.6000000000000227-1.2000000000000455 1.2999999999999545-1.5 1.2000000000000455-0.5 2.300000000000068-0.8999999999999773 3.400000000000091-1.6000000000000227 1.2999999999999545-0.7999999999999545 1.8999999999999773-0.6000000000000227 2.3999999999999773 0.8999999999999773l8.399999999999977 24 3.7999999999999545 10.800000000000068c0.6000000000000227 1.6999999999999318 1.6000000000000227 2.8999999999999773 3.5 2.8999999999999773 1 0 0.900000000000091 0.6000000000000227 0.900000000000091 1.1999999999999318 0.1999999999999318 0.7000000000000455-0.20000000000004547 1-1 0.900000000000091z m35.19999999999993-32.700000000000045c0 1.2000000000000455-0.8999999999999773 1.2999999999999545-1.6000000000000227 1.3999999999999773-1.099999999999909 0.20000000000004547-0.599999999999909-0.7999999999999545-0.6999999999999318-1.2999999999999545-0.39999999999997726-2.8999999999999773-1.5-3.8999999999999773-4.5-3.8999999999999773h-7c-1.1000000000000227 0-1.3999999999999773 0.2999999999999545-1.3999999999999773 1.3999999999999773 0.09999999999990905 4.7999999999999545 0 9.699999999999932 0 14.5v13.600000000000023c0 3.7999999999999545 0.7999999999999545 4.599999999999909 4.599999999999909 4.7999999999999545 0.900000000000091 0 1.2000000000000455 0.2999999999999545 1.2000000000000455 1.2000000000000455 0 1-0.39999999999997726 1.1999999999999318-1.2000000000000455 1.099999999999909-5.599999999999909-0.2999999999999545-11.199999999999932-0.39999999999997726-16.799999999999955 0-0.8999999999999773 0.10000000000002274-1.3999999999999773-0.09999999999990905-1.3999999999999773-1.1999999999999318 0-1 0.5-1.1000000000000227 1.2999999999999545-1.1000000000000227 4-0.20000000000004547 4.600000000000023-0.7000000000000455 4.600000000000023-4.7000000000000455 0.10000000000002274-9.399999999999977 0-18.899999999999977 0-28.299999999999955 0-1.1000000000000227-0.39999999999997726-1.3999999999999773-1.3999999999999773-1.2999999999999545-2.7000000000000455 0.09999999999990905-5.399999999999977 0-8.100000000000023 0-2.8999999999999773 0.09999999999990905-3.5 0.599999999999909-4.100000000000023 3.2999999999999545-0.10000000000002274 0.39999999999997726-0.10000000000002274 0.8999999999999773-0.2999999999999545 1.2999999999999545-0.3000000000000682 0.8000000000000682-1.1000000000000227 0.5-1.7000000000000455 0.5-0.7999999999999545 0-0.6000000000000227-0.6999999999999318-0.5-1.099999999999909 0.3000000000000682-2.7000000000000455 0.8000000000000682-5.300000000000068 0.8000000000000682-8.100000000000023 0-0.39999999999997726-0.10000000000002274-0.8000000000000682 0.39999999999997726-0.8999999999999773 0.5 0 1.1999999999999318-0.3000000000000682 1.5 0.2999999999999545 0.6000000000000227 1.2999999999999545 1.7999999999999545 1.2000000000000455 2.8999999999999773 1.2000000000000455h29.5c1.1000000000000227 0 2.2000000000000455 0.09999999999990905 2.6000000000000227-1.2000000000000455 0.2999999999999545-0.7999999999999545 1-0.2999999999999545 1.5-0.2999999999999545 0.6000000000000227 0.09999999999990905 0.39999999999997726 0.6999999999999318 0.39999999999997726 1.099999999999909-0.39999999999997726 2.5-0.7000000000000455 5.100000000000023-0.6000000000000227 7.7000000000000455z m-9.100000000000023-60c-0.2999999999999545-2.1999999999999886-0.39999999999997726-4.5-0.599999999999909-6.800000000000011 0.09999999999990905-14.899999999999977 9.5-28.099999999999966 23.799999999999955-33.89999999999998 10.600000000000023-4.199999999999989 21.299999999999955-3.6000000000000227 31.899999999999977-0.30000000000001137l7.2000000000000455 2.3999999999999773c0.6999999999999318 0.20000000000004547 1.1999999999999318 0.5 1.1999999999999318 1.400000000000034l0.8000000000000682 12.599999999999966c0 0.6000000000000227 0.2999999999999545 1.400000000000034-0.8000000000000682 1.3000000000000114-0.6999999999999318-0.0999999999999659-1.6999999999999318 0.4000000000000341-1.8999999999999773-0.8999999999999773-2.3999999999999773-13.199999999999989-13.5-16.80000000000001-23.799999999999955-16.100000000000023-13 0.9000000000000341-23 9.199999999999989-26.100000000000023 21.900000000000034-3 12.599999999999966-1.3999999999999773 24.399999999999977 6.600000000000023 34.89999999999998 5.100000000000023 6.7000000000000455 11.899999999999977 11 20.5 11.899999999999977 10.899999999999977 1.1000000000000227 19.899999999999977-5.199999999999932 22.899999999999977-16 0.20000000000004547-0.7999999999999545 0.10000000000002274-2.1999999999999886 1.7999999999999545-1.5 0.8000000000000682 0.30000000000001137 1.1000000000000227 0.5 0.900000000000091 1.400000000000034-0.7000000000000455 4.399999999999977-1.400000000000091 8.800000000000011-2 13.199999999999989-0.10000000000002274 0.7000000000000455-0.5 1.1000000000000227-1.1000000000000227 1.3999999999999773-14.5 5.899999999999977-29 7.5-43.30000000000007-0.10000000000002274-10.699999999999932-5.599999999999909-16.199999999999932-14.999999999999943-18-26.799999999999955z m27.700000000000045 90.5c0.8999999999999773 0 1.6000000000000227-0.10000000000002274 1.5 1.2000000000000455 0 1.1999999999999318-0.7000000000000455 1.099999999999909-1.5 1.099999999999909-5-0.2999999999999545-9.899999999999977-0.39999999999997726-14.899999999999977 0-0.8000000000000682 0.10000000000002274-1.5 0.10000000000002274-1.5-1.099999999999909 0-1.1000000000000227 0.39999999999997726-1.2000000000000455 1.2999999999999545-1.2000000000000455 3-0.10000000000002274 3.6000000000000227-0.7999999999999545 3.7000000000000455-3.7000000000000455v-28.09999999999991c0-2.6000000000000227-0.8000000000000682-3.400000000000091-3.300000000000068-3.6000000000000227-0.7999999999999545 0-1.7999999999999545 0.2999999999999545-1.6999999999999318-1.2000000000000455 0.10000000000002274-1.6000000000000227 1.1000000000000227-0.8999999999999773 1.8999999999999773-1 0.39999999999997726-0.10000000000002274 0.7999999999999545 0 1.3999999999999773 0 4.2000000000000455 0.6000000000000227 8.600000000000023 0.10000000000002274 13 0 0.8000000000000682 0 1.6000000000000227-0.2999999999999545 1.6000000000000227 1.1000000000000227 0 1.2999999999999545-0.7000000000000455 1.2000000000000455-1.5 1.2000000000000455-2.7000000000000455 0.09999999999990905-3.5 0.8999999999999773-3.5 3.599999999999909v28.300000000000068c0 2.5 0.7999999999999545 3.2999999999999545 3.5 3.3999999999999773z m28.700000000000045 2.6000000000000227c-1.5 0.2999999999999545-3.1000000000000227 0.5-4.300000000000068 0.39999999999997726-11 0-19.100000000000023-6.2000000000000455-21.299999999999955-15.899999999999977-3-13 6.5-25.399999999999977 19.799999999999955-25.700000000000045 8-0.1999999999999318 15.100000000000023 2.1000000000000227 19.700000000000045 9.200000000000045 7.899999999999977 12.100000000000023 0.2999999999999545 29.5-13.899999999999977 32z m58.19999999999993-33.80000000000007c-0.1999999999999318 1.900000000000091-0.1999999999999318 3.800000000000068-0.1999999999999318 5.7000000000000455 0.09999999999990905 9.200000000000045-0.20000000000004547 18.399999999999977 0.1999999999999318 27.600000000000023 0 0.39999999999997726 0.39999999999997726 1-0.2999999999999545 1-1 0-1.8999999999999773 0.2999999999999545-2.800000000000068-0.7000000000000455-2.099999999999909-2.5-4.399999999999977-4.899999999999977-6.5-7.2999999999999545l-20.399999999999977-22.800000000000068c-0.1999999999999318-0.2999999999999545-0.39999999999997726-0.6999999999999318-1-0.6999999999999318v22.799999999999955c0 3.800000000000068 0.7000000000000455 5.800000000000068 5.2000000000000455 5.600000000000023 1 0 1.1000000000000227 0.5 1.1000000000000227 1.2999999999999545s-0.3000000000000682 1.1000000000000227-1.1000000000000227 1c-4.5-0.39999999999997726-8.899999999999977-0.2999999999999545-13.399999999999977 0-0.8000000000000682 0.10000000000002274-1.1000000000000227-0.2999999999999545-1.1000000000000227-1.099999999999909 0-0.7000000000000455 0-1.1000000000000227 1-1.2000000000000455 3.5-0.39999999999997726 4.7999999999999545-1.6000000000000227 4.7999999999999545-5 0.10000000000002274-8.700000000000045 0.10000000000002274-17.399999999999977 0.10000000000002274-26.100000000000023 0-2.3999999999999773-1.8999999999999773-4.100000000000023-4.399999999999977-4.2999999999999545-0.8999999999999773-0.10000000000002274-1.5-0.10000000000002274-1.5-1.3000000000000682 0-1.2999999999999545 0.8999999999999773-1 1.5-1 3.1000000000000227 0.20000000000004547 6.100000000000023 0.5 9.199999999999932 0 1.2000000000000455-0.1999999999999318 1.8000000000000682 0.7000000000000455 2.5 1.400000000000091 7.400000000000091 8.299999999999955 14.700000000000045 16.59999999999991 22.100000000000023 24.799999999999955 0.39999999999997726 0.5 0.8000000000000682 0.8999999999999773 1.6000000000000227 1.7000000000000455 0-7.300000000000068 0.10000000000002274-14 0-20.700000000000045 0-3.3999999999999773-1.6000000000000227-4.7999999999999545-4.899999999999977-4.899999999999977-0.8999999999999773 0-1.3999999999999773-0.10000000000002274-1.3999999999999773-1.2000000000000455 0-1 0.5-1.1000000000000227 1.2999999999999545-1.1000000000000227 4.2999999999999545 0.3000000000000682 8.700000000000045 0.5 13 0 0.8999999999999773-0.09999999999990905 1.2000000000000455 0.20000000000004547 1.2000000000000455 1.2000000000000455 0 0.8999999999999773-0.3000000000000682 1.1000000000000227-1.2000000000000455 1.2000000000000455-3.1000000000000227 0-4.2999999999999545 1.099999999999909-4.600000000000023 4.099999999999909z m43.80000000000007 33.5c-4.900000000000091-0.39999999999997726-9.800000000000068-0.39999999999997726-14.700000000000045 0-0.8999999999999773 0.10000000000002274-1.1000000000000227-0.2999999999999545-1.1000000000000227-1.099999999999909 0-0.7000000000000455 0-1.3000000000000682 1-1.2000000000000455h1.1000000000000227c1.8999999999999773-0.2999999999999545 2.2999999999999545-0.8999999999999773 1.7000000000000455-2.7000000000000455-0.8000000000000682-2.599999999999909-1.8000000000000682-5.199999999999932-2.6000000000000227-7.899999999999977-0.3000000000000682-0.8999999999999773-0.8000000000000682-1.1000000000000227-1.7000000000000455-1.1000000000000227-1.6999999999999318 0.10000000000002274-3.3999999999999773 0-5.100000000000023 0-1.599999999999909 0-3.199999999999932 0.10000000000002274-4.699999999999932 0-1.1000000000000227-0.09999999999990905-1.5 0.3000000000000682-1.8000000000000682 1.400000000000091-0.599999999999909 2.2999999999999545-1.3999999999999773 4.599999999999909-2.099999999999909 6.7999999999999545-0.7000000000000455 2.3999999999999773-0.20000000000004547 3.2000000000000455 2.2999999999999545 3.3999999999999773 0.39999999999997726 0 0.7999999999999545 0.10000000000002274 1.1000000000000227 0 1.1000000000000227-0.10000000000002274 1 0.6000000000000227 1 1.3000000000000682 0.10000000000002274 0.8999999999999773-0.5 1-1.2000000000000455 1-3.699999999999932-0.3000000000000682-7.399999999999977-0.40000000000009095-11.100000000000023 0-0.599999999999909 0.09999999999990905-1.2999999999999545 0.09999999999990905-1.2999999999999545-0.900000000000091 0-0.7999999999999545 0-1.3999999999999773 1.1000000000000227-1.3999999999999773 2.1000000000000227-0.10000000000002274 3.5-1.3999999999999773 4.100000000000023-3.3999999999999773 3.699999999999932-10.600000000000023 7.599999999999909-21.200000000000045 11-31.899999999999977 0.2999999999999545-0.8000000000000682 0.599999999999909-1.3999999999999773 1.5-1.7000000000000455 1.099999999999909-0.39999999999997726 2.099999999999909-0.7999999999999545 3.099999999999909-1.5 1.5-1 2.1000000000000227-0.6000000000000227 2.7000000000000455 1 2.2999999999999545 6.800000000000068 4.7999999999999545 13.600000000000023 7.2000000000000455 20.399999999999977 1.599999999999909 4.7000000000000455 3.2999999999999545 9.400000000000091 4.899999999999977 14 0.6000000000000227 1.7000000000000455 1.6000000000000227 3 3.6000000000000227 3 1 0 0.7999999999999545 0.6000000000000227 0.8999999999999773 1.2000000000000455 0.1999999999999318 1-0.10000000000002274 1.2999999999999545-0.8999999999999773 1.2999999999999545z m34.69999999999993-9l-1.6999999999999318 7.900000000000091c-0.20000000000004547 1-0.8000000000000682 1.099999999999909-1.6000000000000227 1.099999999999909h-27.600000000000023c-0.7000000000000455 0-1.3999999999999773 0.20000000000004547-1.5-1.099999999999909 0-1.3000000000000682 0.6000000000000227-1.2000000000000455 1.5-1.2000000000000455 2.6000000000000227-0.10000000000002274 3.5-1 3.6000000000000227-3.6000000000000227v-28.699999999999932c0-2.300000000000068-0.8999999999999773-3-3.5-3.2000000000000455-0.7000000000000455 0-1.6000000000000227 0.39999999999997726-1.6000000000000227-0.8999999999999773 0-0.8999999999999773 0.10000000000002274-1.3999999999999773 1.2000000000000455-1.3000000000000682 2.099999999999909 0.20000000000004547 4.099999999999909 0.3000000000000682 6.199999999999932 0.3000000000000682 3.1000000000000227 0 6.2000000000000455-0.10000000000002274 9.200000000000045-0.3000000000000682 0.7999999999999545 0 1.3999999999999773 0 1.3999999999999773 1.2000000000000455s-0.6000000000000227 1.1000000000000227-1.3999999999999773 1.1000000000000227c-3.6000000000000227 0.10000000000002274-3.800000000000068 0.2999999999999545-3.800000000000068 3.8999999999999773v26.799999999999955c0 3.2000000000000455 0.6000000000000227 3.7000000000000455 3.800000000000068 4.100000000000023 2.2999999999999545 0.3000000000000682 4.5 0.10000000000002274 6.7999999999999545-0.1999999999999318 2.8999999999999773-0.40000000000009095 5.100000000000023-2 6.2000000000000455-4.900000000000091l0.6000000000000227-1.599999999999909c0.2999999999999545-1 1.099999999999909-0.6000000000000227 1.6999999999999318-0.6000000000000227 1.1000000000000227 0.10000000000002274 0.6000000000000227 0.7999999999999545 0.5 1.1999999999999318z m-657.3-148.59999999999997c-50.00000000000003 0.10000000000002274-90.10000000000002 40.80000000000001-90.10000000000002 90.19999999999999 0 49.80000000000007 40.30000000000001 90.10000000000002 89.80000000000001 90.39999999999998 50.5 0.3000000000000682 90.89999999999998-40.69999999999993 90.89999999999998-90.5-0.0999999999999659-49.69999999999993-40.5-90.09999999999997-90.6-90.09999999999997z m-20.200000000000017 90.40000000000003v51.299999999999955c0 2.1000000000000227 0 2.1000000000000227-1.9000000000000057 1.3000000000000682-5.199999999999989-2.400000000000091-10-5.400000000000091-14.5-9.100000000000023-10.300000000000011-8.600000000000023-16.5-19.399999999999977-19.30000000000001-32.30000000000007-4.799999999999983-21.499999999999943 4.900000000000006-45.69999999999993 23.200000000000017-58.099999999999966 3.4000000000000057-2.3000000000000114 7-4.300000000000011 10.699999999999989-6 1.3000000000000114-0.5999999999999659 1.8000000000000114-0.5999999999999659 1.8000000000000114 1.1000000000000227-0.09999999999999432 17.30000000000001 0 34.5 0 51.80000000000001z m70.70000000000002 27.299999999999955c-6.300000000000011 11.700000000000045-15.800000000000011 20.100000000000023-28 25.399999999999977-1.5000000000000284 0.6000000000000227-1.900000000000034 0.5-1.900000000000034-1.1999999999999318 0.10000000000002274-17.200000000000045 0-34.39999999999998 0-51.60000000000002v-51.39999999999998c0-2.2000000000000455 0-2.2000000000000455 2-1.3000000000000114 31.100000000000023 13.5 44.19999999999999 50.099999999999966 27.900000000000034 80.09999999999997z m141-35.099999999999966c0 5.900000000000034 2.599999999999966 8.699999999999989 8.5 9.199999999999989 1.099999999999966 0.10000000000002274 2.2999999999999545 0.10000000000002274 3.3999999999999773 0.10000000000002274 11.699999999999989-0.39999999999997726 20.80000000000001-5.100000000000023 25.600000000000023-16.30000000000001 3.099999999999966-7.100000000000023 3.7999999999999545-14.5 2.6999999999999886-22.19999999999999-1-6.600000000000023-3.400000000000034-12.5-7.900000000000034-17.400000000000034-6.699999999999989-7.300000000000011-15.199999999999989-9.899999999999977-25.399999999999977-9.899999999999977-1.3999999999999773-0.10000000000002274-3.5 0.30000000000001137-5.600000000000023 0.30000000000001137-1 0-1.2999999999999545 0.5-1.1999999999999886 1.3999999999999773 0.10000000000002274 0.6999999999999886 0 1.3999999999999773 0 2.1000000000000227-0.0999999999999659 17.5-0.0999999999999659 35.099999999999966-0.0999999999999659 52.69999999999999z m428.29999999999995 0.8000000000000114c0.10000000000002274 4.899999999999977 3.800000000000068 9.5 8.600000000000023 10.399999999999977 5.100000000000023 1 9.5-0.7000000000000455 12.799999999999955-4.7000000000000455 7.2000000000000455-8.499999999999943 6.600000000000023-22.699999999999932-1.1999999999999318-30.599999999999966-6.2000000000000455-6.300000000000011-12.399999999999977-6.699999999999989-19.200000000000045-1.099999999999966-0.7999999999999545 0.5999999999999659-1 1.2999999999999545-1 2.1999999999999886v12.099999999999966c0 3.900000000000034-0.10000000000002274 7.800000000000011 0 11.700000000000045z m-285.9-20.200000000000045h17.200000000000045c1.2999999999999545 0 2.2999999999999545-0.39999999999997726 2.599999999999909-1.8999999999999773 0.8000000000000682-5.899999999999977-4.399999999999977-11-10.199999999999932-10.100000000000023-5.5 0.9000000000000341-9.800000000000068 5.600000000000023-10.5 11.100000000000023-0.20000000000004547 1 0.39999999999997726 0.8000000000000114 0.8999999999999773 0.8999999999999773z m-6.2000000000000455 57c-1 0.10000000000002274-1.2999999999999545 0.5-1.2999999999999545 1.3999999999999773v7c0 2.1000000000000227 0.10000000000002274 4.300000000000068 0 6.400000000000091-0.10000000000002274 1.5 0.5 1.8999999999999773 1.7999999999999545 1.6999999999999318 1.2000000000000455-0.10000000000002274 2.400000000000091-0.10000000000002274 3.6000000000000227-0.2999999999999545 1.7000000000000455-0.3000000000000682 3.3999999999999773-0.8999999999999773 4.2000000000000455-2.6000000000000227 1.7999999999999545-3.3999999999999773 2-6.899999999999977 0.10000000000002274-10.200000000000045-1.8000000000000682-3.199999999999932-5-3.599999999999909-8.400000000000091-3.3999999999999773z m176.70000000000005 7.2000000000000455c-1.2000000000000455 3.1000000000000227-1.5 6.2999999999999545-1.5 8.199999999999932 0.2999999999999545 5.800000000000068 1.1000000000000227 10 3.5 13.800000000000068 2.7999999999999545 4.5 6.899999999999977 6.5 12.100000000000023 5.7999999999999545 4.7999999999999545-0.6000000000000227 8.100000000000023-3.699999999999932 9.5-8.899999999999977 0.6000000000000227-2.1000000000000227 0.7999999999999545-4.2000000000000455 0.8999999999999773-6.2999999999999545 0.39999999999997726-5.7000000000000455-0.7000000000000455-11.100000000000023-4.2999999999999545-15.600000000000023-5.800000000000068-7.5-16.700000000000045-5.800000000000068-20.200000000000045 3z m92.10000000000002 12.399999999999977h9.699999999999932c-1.599999999999909-4.899999999999977-3.099999999999909-9.700000000000045-4.7999999999999545-14.899999999999977-1.7000000000000455 5.199999999999932-3.2000000000000455 10-4.899999999999977 14.899999999999977z m-184.39999999999998 0h9.699999999999932c-1.6000000000000227-4.899999999999977-3.1000000000000227-9.600000000000023-4.899999999999977-14.899999999999977-1.7000000000000455 5.2999999999999545-3.2000000000000455 10-4.7999999999999545 14.899999999999977z"/>
</svg>
