<svg xmlns="http://www.w3.org/2000/svg" viewBox="0 0 1000 1000" width="1000" height="1000">
<path d="M846.7 154.4h-693.4000000000001c-84.29999999999995 0-153.29999999999995 68.9-153.29999999999995 153.20000000000002v384.69999999999993c0 84.30000000000007 69 153.30000000000007 153.3 153.30000000000007h693.4000000000001c84.29999999999995 0 153.29999999999995-69 153.29999999999995-153.30000000000007v-384.69999999999993c0-84.30000000000001-69-153.20000000000002-153.29999999999995-153.20000000000002z m-183.70000000000005 486.80000000000007c-27.399999999999977 22.199999999999932-58.700000000000045 36-93.60000000000002 41.39999999999998-9.100000000000023 1.3999999999999773-18.299999999999955 2.2999999999999545-27.600000000000023 2.2999999999999545-29.5 0-58.99999999999994 0.3000000000000682-88.49999999999994-0.10000000000002274-63.19999999999999-0.7999999999999545-114.10000000000002-26.399999999999977-151.8-77-27.100000000000023-36.299999999999955-37.89999999999998-77.79999999999995-34.19999999999999-123.09999999999997 2.3999999999999773-29.69999999999999 10.800000000000011-57.599999999999966 26.5-83.09999999999997 22.69999999999999-36.900000000000034 54.89999999999998-62 95.69999999999999-76.20000000000005 20.69999999999999-7.199999999999989 42.10000000000002-10.399999999999977 63.89999999999998-10.5 14.400000000000034-0.0999999999999659 28.80000000000001 0 46.5 0 15.600000000000023 0.30000000000001137 34.5-0.6999999999999886 53.30000000000007 0.5 39.09999999999991 2.6000000000000227 74.59999999999991 15.400000000000034 106.09999999999991 38.700000000000045 26.300000000000068 19.5 46.30000000000007 44.19999999999999 59.40000000000009 74.29999999999995 11.199999999999932 25.900000000000034 16.199999999999932 53 14.599999999999909 81.10000000000002-3.2999999999999545 54.700000000000045-28.59999999999991 97.79999999999995-70.29999999999995 131.70000000000005z m-210-310.70000000000005c-93.60000000000002 0.10000000000002274-168.7 76.30000000000001-168.8 169-0.0999999999999659 93.39999999999998 75.40000000000003 168.79999999999995 168.3 169.29999999999995 94.70000000000005 0.5 170.29999999999995-76.19999999999993 170.20000000000005-169.59999999999997 0-93.09999999999997-75.80000000000007-168.7-169.70000000000005-168.7z m-37.89999999999998 169.3v96.19999999999999c0 3.8999999999999773-0.10000000000002274 4-3.5 2.3999999999999773-9.800000000000011-4.5-18.700000000000045-10-27.100000000000023-17-19.30000000000001-16-30.899999999999977-36.39999999999998-36.19999999999999-60.60000000000002-8.900000000000034-40.299999999999955 9.300000000000011-85.49999999999994 43.5-108.89999999999998 6.399999999999977-4.2999999999999545 13-8 20-11.199999999999989 2.3000000000000114-1.099999999999966 3.3999999999999773-1.1999999999999886 3.3999999999999773 2.1000000000000227-0.0999999999999659 32.39999999999998-0.0999999999999659 64.69999999999999-0.0999999999999659 97z m132.60000000000002 51.099999999999966c-11.900000000000091 21.899999999999977-29.600000000000023 37.60000000000002-52.400000000000034 47.60000000000002-2.8000000000000114 1.2000000000000455-3.5 0.8999999999999773-3.5-2.2000000000000455 0.0999999999999659-32.19999999999993 0.0999999999999659-64.39999999999998 0.0999999999999659-96.59999999999997v-96.19999999999999c0-4.100000000000023 0-4.100000000000023 3.7000000000000455-2.5 58.10000000000002 25.30000000000001 82.60000000000002 93.69999999999999 52.10000000000002 149.89999999999998z"/>
</svg>
