<svg xmlns="http://www.w3.org/2000/svg" viewBox="0 0 1000 1000" width="1000" height="1000">
<path d="M747.9 411.4c-1.1000000000000227-15.799999999999955-7.600000000000023-28.69999999999999-21.100000000000023-37.599999999999966-12-7.900000000000034-25.699999999999932-10.5-39.69999999999993-11.900000000000034-15-1.5-30.100000000000023-1-40-1.099999999999966h-44.5c-7.300000000000068 0-13.399999999999977 4.800000000000011-15.200000000000045 11.899999999999977-1.1999999999999318 4.800000000000011-2.2999999999999545 9.600000000000023-3.3999999999999773 14.300000000000011l-26.299999999999955 114.5-12.400000000000091 53.39999999999998c-1.7999999999999545 7.800000000000068 2 12.5 10.200000000000045 12.399999999999977h27.5c8.200000000000045 0 14.200000000000045-4.7999999999999545 16-12.699999999999932 3.2999999999999545-14.399999999999977 6.5-28.899999999999977 10-43.30000000000001 1.6000000000000227-6.600000000000023 7.600000000000023-11.300000000000011 14.399999999999977-11.300000000000011 7.100000000000023 0 14.300000000000068-0.10000000000002274 21.399999999999977-0.39999999999997726 21.800000000000068-1.2000000000000455 43.10000000000002-4.900000000000034 62.5-15.700000000000045 28.200000000000045-15.799999999999955 42.90000000000009-39.39999999999998 40.60000000000002-72.5z m-57 16.900000000000034c-2.5 16.599999999999966-13 25.30000000000001-28.100000000000023 29.69999999999999-7.699999999999932 2.3000000000000114-15.699999999999932 2.8999999999999773-24 2.8999999999999773-3-0.2999999999999545-6.2999999999999545 0.5-9.5-0.5-4.599999999999909-1.3999999999999773-7.199999999999932-5.599999999999966-6.199999999999932-10.299999999999955 3-13.200000000000045 6-26.5 9.100000000000023-39.60000000000002 1.5-6.199999999999989 7.099999999999909-11.100000000000023 13.5-11.300000000000011 8.799999999999955-0.30000000000001137 17.699999999999932-0.39999999999997726 26.5 1.5 14.299999999999955 3.1999999999999886 20.899999999999977 12.900000000000034 18.699999999999932 27.600000000000023z m-488.2-19.900000000000034c-1.799999999999983-17.399999999999977-10.399999999999977-30.099999999999966-25.799999999999983-38.099999999999966-12.800000000000011-6.699999999999989-26.700000000000017-8.5-40.70000000000002-9.5-12.999999999999986-0.9000000000000341-25.999999999999986-0.5-36.499999999999986-0.6000000000000227h-41.6c-7.899999999999999 0-14 4.900000000000034-15.700000000000003 12.600000000000023l-17.7 77c-8.3 35.099999999999966-16.299999999999997 70.19999999999999-24.4 105.40000000000003-1.5000000000000007 6.5 2.499999999999999 11.599999999999909 9.2 11.599999999999909 9.899999999999999 0.10000000000002274 19.9 0.10000000000002274 29.799999999999997 0 6.700000000000003-0.09999999999990905 12.900000000000006-5.099999999999909 14.5-11.599999999999909 3.3000000000000043-14.100000000000023 6.600000000000001-28.300000000000068 9.800000000000004-42.40000000000009 1.999999999999993-8.899999999999977 7.499999999999993-13.499999999999943 16.4-13.499999999999943 10.599999999999994 0 21.200000000000003-0.10000000000002274 31.799999999999997-1.3000000000000114 17.500000000000014-2 34.500000000000014-6 50.10000000000001-14.5 15.5-8.5 28-20 35.29999999999998-36.39999999999998 5.5-12.400000000000034 6.900000000000006-25.30000000000001 5.5-38.700000000000045z m-56.5 17.100000000000023c-1.3999999999999773 17.19999999999999-12.799999999999983 27.30000000000001-28.19999999999999 31.80000000000001-10.200000000000003 3-20.700000000000003 3.3000000000000114-31.200000000000003 2.8999999999999773-6.299999999999997-0.19999999999998863-10-5.399999999999977-8.5-11.699999999999989 2.9000000000000057-12.899999999999977 6-25.80000000000001 9.100000000000009-38.69999999999999 1.6999999999999886-7 7.599999999999994-11.300000000000011 14.799999999999997-11.400000000000034h7.200000000000003c7.099999999999994-0.19999999999998863 14 0.20000000000004547 20.799999999999983 2.400000000000034 11.800000000000011 3.599999999999966 17 12.300000000000011 16 24.69999999999999z m398.3-16.399999999999977c-10.399999999999977 0.19999999999998863-20.799999999999955 0.2999999999999545-31.200000000000045 0-10.399999999999977-0.20000000000004547-17.599999999999966 4.599999999999966-22.799999999999955 13-2.1000000000000227 3.2999999999999545-4 6.7999999999999545-6 10.199999999999989l-40.10000000000002 68.89999999999998c-0.6999999999999886 1.1999999999999886-1.3999999999999773 2.6999999999999886-3.1999999999999886 2.400000000000034s-2.099999999999966-1.8000000000000114-2.3000000000000114-3.3000000000000114c-4.099999999999966-24.80000000000001-8.199999999999989-49.5-12.199999999999989-74.30000000000001-2-12.100000000000023-7.399999999999977-16.80000000000001-19.69999999999999-16.80000000000001h-23.69999999999999c-7.199999999999989 0-11 4.600000000000023-9.699999999999989 11.699999999999989l13.899999999999977 79.80000000000001c3.8999999999999773 22.80000000000001 8.300000000000011 45.599999999999966 11.199999999999989 68.59999999999997 0.6000000000000227 4.600000000000023 1.1000000000000227 9.300000000000068-1.3000000000000114 13.600000000000023-6.2999999999999545 11.100000000000023-12.699999999999989 22-18.899999999999977 33.10000000000002-2.8999999999999773 5.2000000000000455-6.5 10-8.5 15.700000000000045-1.6000000000000227 4.599999999999909 0.8000000000000114 7.7999999999999545 5.699999999999989 7.7999999999999545h16.19999999999999c4.7000000000000455 0 9.5-0.10000000000002274 14.200000000000045 0 4 0.10000000000002274 7.599999999999966-1.1000000000000227 11-3 4.7999999999999545-2.7000000000000455 8-6.7000000000000455 10.799999999999955-11.399999999999977 9.5-16.300000000000068 19.100000000000023-32.5 28.700000000000045-48.700000000000045l43.89999999999998-74.29999999999995c10.199999999999989-17.30000000000001 20.399999999999977-34.700000000000045 30.799999999999955-51.900000000000034 4.100000000000023-6.899999999999977 7.7000000000000455-14.099999999999966 12.200000000000045-20.69999999999999 2.7000000000000455-4 5.399999999999977-8.300000000000011 6.7999999999999545-13 0.900000000000091-4.300000000000011 0.900000000000091-7.5-5.7999999999999545-7.399999999999977z m334.9 4c-9-3.1000000000000227-18.299999999999955-4.600000000000023-27.699999999999932-5.400000000000034-22.100000000000023-1.8000000000000114-43.90000000000009 0-65.60000000000002 4-7.600000000000023 1.400000000000034-14 4.300000000000011-16.5 12.100000000000023-2 6.399999999999977-3.6000000000000227 13-4.800000000000068 19.599999999999966-1.099999999999909 6 1.8000000000000682 8.300000000000011 7.400000000000091 6.300000000000011 10.199999999999932-3.599999999999966 20.699999999999932-6.099999999999966 31.399999999999977-7.599999999999966 12.399999999999977-1.7000000000000455 24.799999999999955-1.6000000000000227 37 1.599999999999966 8.899999999999977 2.3000000000000114 13.100000000000023 7.900000000000034 12.600000000000023 16.80000000000001-0.20000000000004547 3.1999999999999886-1.7000000000000455 4.800000000000011-4.800000000000068 5-11.799999999999955 0.6999999999999886-23.600000000000023 2-35.39999999999998 3.5-14.5 1.8999999999999773-28.700000000000045 4.399999999999977-42.39999999999998 9.800000000000011-21.700000000000045 8.5-36.10000000000002 22.69999999999999-38.89999999999998 47.099999999999966-2.5 22.100000000000023 10.699999999999932 41.30000000000007 32.59999999999991 44.80000000000007 20.100000000000023 3.2999999999999545 38.90000000000009-0.900000000000091 56-12.100000000000023 3.900000000000091-2.5 7.7000000000000455-5.100000000000023 11.700000000000045-7.800000000000068 0.39999999999997726 1.6000000000000227-0.10000000000002274 2.400000000000091-0.2999999999999545 3.400000000000091-1.8000000000000682 8.5 1.8999999999999773 13 10.5 13.099999999999909h22.899999999999977c8.100000000000023 0 14-4.899999999999977 15.899999999999977-12.899999999999977 5.2000000000000455-22.299999999999955 10.5-44.599999999999966 15.5-66.89999999999998 2.6000000000000227-11.600000000000023 6-23.100000000000023 7.399999999999977-35 2.3999999999999773-19.30000000000001-6.100000000000023-33-24.5-39.39999999999998z m-34.39999999999998 84c-2.1000000000000227 8.899999999999977-4.100000000000023 17.799999999999955-6.399999999999977 26.600000000000023-0.8000000000000682 3.099999999999909-3.5 5.199999999999932-6.399999999999977 6.7999999999999545-8.200000000000045 4.7000000000000455-16.700000000000045 8.299999999999955-26.600000000000023 8.399999999999977-4.600000000000023-0.1999999999999318-9.399999999999977-0.5-14-2.2999999999999545-5.2000000000000455-2-7.7000000000000455-5.800000000000068-7.899999999999977-11.300000000000068-0.40000000000009095-11.5 4.7999999999999545-19.299999999999955 16-23.699999999999932 7.399999999999977-2.900000000000034 15.199999999999932-4.2000000000000455 23-5.2000000000000455l19.199999999999932-2.099999999999966c2.7000000000000455-0.4000000000000341 3.7000000000000455 0.39999999999997726 3.1000000000000227 2.8000000000000114z m-506.7-82.5c-12.300000000000011-5.2000000000000455-25.19999999999999-6.800000000000011-38.30000000000001-7.400000000000034-21-1-41.80000000000001 0.9000000000000341-62.30000000000001 5.199999999999989-6.799999999999983 1.400000000000034-11.5 5.5-13.5 12.100000000000023-1.799999999999983 6.199999999999989-3.1999999999999886 12.5-4.5 18.80000000000001-1.1999999999999886 6 1.6000000000000227 8.399999999999977 7.300000000000011 6.399999999999977 11.099999999999994-3.8999999999999773 22.400000000000006-6.599999999999966 34.10000000000002-8 11.699999999999989-1.3000000000000114 23.299999999999955-1.099999999999966 34.69999999999999 2 8.199999999999989 2.1999999999999886 13 7.400000000000034 12.199999999999989 16.30000000000001-0.39999999999997726 3.8000000000000114-1.3999999999999773 5.300000000000011-5.199999999999989 5.5-12 0.6000000000000227-24 2-35.900000000000034 3.6000000000000227-12.099999999999966 1.599999999999966-24.19999999999999 3.599999999999966-35.79999999999998 7.599999999999966-10.099999999999994 3.5-19.69999999999999 7.900000000000034-27.69999999999999 15-11.099999999999994 9.900000000000034-15.800000000000011 22.500000000000057-16.80000000000001 37.099999999999966-1.5 21.5 12.900000000000006 39.40000000000009 34.20000000000002 42.10000000000002 20.19999999999999 2.6000000000000227 38.80000000000001-1.6999999999999318 55.69999999999999-13.100000000000023 3.3999999999999773-2.2999999999999545 6.899999999999977-4.5 10.899999999999977-7.199999999999932-0.2999999999999545 1.6999999999999318-0.39999999999997726 2.6000000000000227-0.5999999999999659 3.5-2 8.399999999999977 1.6999999999999886 13.100000000000023 10.300000000000011 13.100000000000023 7.899999999999977 0 15.799999999999955 0 23.69999999999999-0.10000000000002274 7.199999999999989-0.10000000000002274 13.300000000000011-5 14.899999999999977-12.100000000000023 5.199999999999989-22.399999999999977 10.5-44.69999999999999 15.5-67.10000000000002 2.900000000000034-12.799999999999955 6.800000000000011-25.5 7.800000000000011-38.69999999999999 1.3000000000000114-15.800000000000011-6.199999999999989-28.399999999999977-20.69999999999999-34.599999999999966z m-38.400000000000034 82.29999999999995c-1.6999999999999886 8.900000000000034-4 17.600000000000023-6.199999999999989 26.399999999999977-0.5999999999999659 2.400000000000091-2.3000000000000114 4.400000000000091-4.300000000000011 5.7000000000000455-8.799999999999955 5.5-18.099999999999966 9.899999999999977-28.799999999999955 9.700000000000045-4.400000000000034-0.10000000000002274-8.800000000000011-0.40000000000009095-13.100000000000023-1.900000000000091-6.099999999999994-2.199999999999932-8.900000000000006-6.099999999999909-8.900000000000006-12.699999999999932 0-11.300000000000068 5.800000000000011-19.200000000000045 17.599999999999994-23.30000000000001 8.199999999999989-2.900000000000034 16.80000000000001-4.100000000000023 25.400000000000034-5.100000000000023l15.5-1.6999999999999886c2.5-0.39999999999997726 3.2999999999999545 0.5 2.7999999999999545 2.8999999999999773z m690.3000000000001-134.5h-25.800000000000068c-7.399999999999977 0-13.5 4.800000000000011-15.100000000000023 11.900000000000034-3.3999999999999773 14.899999999999977-6.599999999999909 29.899999999999977-9.899999999999977 44.80000000000001l-22.399999999999977 101.39999999999998-7.600000000000023 34.10000000000002c-1.6999999999999318 7.7999999999999545 2.2000000000000455 12.600000000000023 10.200000000000045 12.600000000000023h12.199999999999932c4.300000000000068 0 8.700000000000045 0.09999999999990905 13 0 7.2000000000000455-0.10000000000002274 13.300000000000068-5.100000000000023 14.900000000000091-12.200000000000045l8.099999999999909-36.60000000000002 22.90000000000009-103.39999999999998c3-13.800000000000011 6.199999999999932-27.600000000000023 9-41.5 1.3999999999999773-6.600000000000023-2.6000000000000227-11-9.5-11.100000000000023z"/>
</svg>
