<svg xmlns="http://www.w3.org/2000/svg" viewBox="0 0 1000 1000" width="1000" height="1000">
<path d="M969.4 819.1c-44.10000000000002-122.20000000000005-121.60000000000002-216.60000000000002-234.89999999999998-281.20000000000005-5.7999999999999545-3.2999999999999545-9.5-3.3999999999999773-15.100000000000023 1.2000000000000455-61 51.10000000000002-131.10000000000002 79.10000000000002-211.09999999999997 80.79999999999995-85.69999999999999 1.8999999999999773-161.3-25-226.8-80.19999999999993-6.100000000000023-5.100000000000023-10.300000000000011-5.100000000000023-16.899999999999977-1.400000000000091-45.60000000000002 25.700000000000045-86.50000000000003 57.30000000000007-122.00000000000003 95.60000000000002-75 81-120.6 176.20000000000005-136.7 285.5-2.2000000000000055 14.399999999999977-3.9000000000000057 28.800000000000068-5.900000000000006 43.30000000000007v33.299999999999955c329.4 0 658.7-0.10000000000002274 988.1 0.10000000000002274 9.199999999999932 0.10000000000002274 12.199999999999932-1.7000000000000455 11.899999999999977-11.5-1.8999999999999773-56.80000000000007-11.299999999999955-112.10000000000002-30.600000000000023-165.5z m-474-260.5c158.60000000000002 1.5 283.6-122.70000000000005 282.1-279.6-1.5-157.6-129.70000000000005-276.1-277.9-275-155.5 0.5-278 124.4-276.90000000000003 280.6 1 148.89999999999998 120.80000000000001 272.69999999999993 272.7 274z"/>
</svg>
