<svg xmlns="http://www.w3.org/2000/svg" viewBox="0 0 1000 1000" width="1000" height="1000">
<path d="M753.4 420.1c49.30000000000007 0 89.5-40.200000000000045 89.5-89.40000000000003 0-49.30000000000001-40.19999999999993-89.5-89.5-89.5-49.5 0-89.5 40.19999999999999-89.5 89.5 0 49.19999999999999 40 89.40000000000003 89.5 89.40000000000003z m-506.5 0c49.200000000000045 0 89.40000000000003-40.200000000000045 89.40000000000003-89.40000000000003 0-49.30000000000001-40.19999999999999-89.5-89.4-89.5-49.30000000000001 0-89.5 40.19999999999999-89.5 89.5 0.09999999999999432 49.19999999999999 40.29999999999998 89.40000000000003 89.5 89.40000000000003z m253-92.90000000000003c72.89999999999998 0 132.39999999999998-59.5 132.39999999999998-132.29999999999998 0-72.9-59.5-132.4-132.39999999999998-132.4-72.79999999999995 0-131.89999999999998 59.5-131.89999999999998 132.4 0 72.79999999999998 59.10000000000002 132.29999999999998 131.89999999999998 132.29999999999998z m253.5 127.40000000000003c-14.100000000000023 0-27.5 2.599999999999966-40.19999999999993 6.399999999999977 16.59999999999991 32.60000000000002 27.09999999999991 69.39999999999998 27.09999999999991 108.39999999999998v285.30000000000007h155.9000000000001v-257.20000000000005c0-79-64.20000000000005-142.89999999999998-142.80000000000007-142.89999999999998z m-649.3 142.79999999999995v257.20000000000005h155.89999999999998v-285.20000000000005c0-39 10.600000000000023-75.79999999999995 27.100000000000023-108.39999999999998-12.800000000000011-3.8000000000000114-25.900000000000034-6.399999999999977-39.900000000000034-6.399999999999977-78.89999999999998 0-143.1 63.89999999999998-143.1 142.79999999999995z m395.79999999999995-235.09999999999997c-114.39999999999998 0-207 93-207 207.09999999999997v368.1h414.5v-368.1c0-114.09999999999997-93-207.09999999999997-207.5-207.09999999999997z"/>
</svg>
