<svg xmlns="http://www.w3.org/2000/svg" viewBox="0 0 1000 1000" width="1000" height="1000">
<path d="M332 756.1l-129.8 59.69999999999993c-19.19999999999999 7.900000000000091-39.599999999999994 21.5-47.39999999999998 40.80000000000007 0 0-14.5 34.39999999999998-31.400000000000006 80.89999999999998h351l20.100000000000023-134.20000000000005-100.19999999999999-99.59999999999991-62.30000000000001 52.39999999999998z m514.2 100.5c-8.5-20.100000000000023-28.5-32.89999999999998-47.80000000000007-40.80000000000007l-129.89999999999998-59.69999999999993-62.299999999999955-52.39999999999998-100.10000000000002 99.59999999999991 20.100000000000023 134.20000000000005h351c-16.700000000000045-46.60000000000002-31-80.89999999999998-31-80.89999999999998z m-662.6-333.70000000000005h37.39999999999998c17.69999999999999 0 32.099999999999994-14.299999999999955 32.099999999999994-32.099999999999966v-123.40000000000003c0-14.099999999999966-9.199999999999989-26.099999999999966-22-30.399999999999977 15.200000000000017-136.9 110.4-216.9 267-221.6h4.699999999999989c156.40000000000003 4.799999999999997 251.49999999999994 84.79999999999998 266.7 221.6-12.700000000000045 4.300000000000011-21.899999999999977 16.30000000000001-21.899999999999977 30.399999999999977v123.5c0 17.700000000000045 14.399999999999977 32.10000000000002 32.10000000000002 32.10000000000002h37.39999999999998c17.699999999999932 0 32.10000000000002-14.399999999999977 32.10000000000002-32.10000000000002v-123.59999999999997c0-15.699999999999989-11.300000000000068-28.69999999999999-26.100000000000023-31.5-7.5-76.19999999999999-36.30000000000007-140.20000000000002-84.39999999999998-186.8-51.10000000000002-49.5-123.5-78.9-210.4000000000001-85.7 0 0-9.399999999999977-0.7999999999999972-27.799999999999955-0.7999999999999972-18.5 0-27.80000000000001 0.7999999999999972-27.80000000000001 0.7999999999999972-87 6.799999999999997-159.3 36.2-210.39999999999998 85.7-48.10000000000002 46.599999999999994-76.9 110.60000000000002-84.4 186.8-14.900000000000006 2.8000000000000114-26.099999999999994 15.800000000000011-26.099999999999994 31.5v123.5c-0.30000000000001137 17.69999999999999 14.199999999999989 32.099999999999966 31.799999999999983 32.099999999999966z m550.6999999999999-142.59999999999997c1.5-143.8-67-229.9-233.99999999999994-229.9-166.90000000000003 0-235.5 86.1-234 229.9 2.1999999999999886 207.3 101.19999999999999 330.90000000000003 234 330.90000000000003s231.8-123.60000000000002 233.99999999999994-330.90000000000003z"/>
</svg>
