<svg xmlns="http://www.w3.org/2000/svg" viewBox="0 0 1000 1000" width="1000" height="1000">
<path d="M498.6 971.6c-159.3 0-318.70000000000005-0.20000000000004547-478.1 0.5-16.9 0.10000000000002274-18.7-5.899999999999977-19.8-20.600000000000023-7.699999999999999-100.29999999999995 52.2-155.39999999999998 130.9-198 50.5-27.399999999999977 106-43.10000000000002 158.6-65.5 20.80000000000001-8.899999999999977 41.5-18.100000000000023 59.5-32 23.100000000000023-17.899999999999977 28-39.10000000000002 12.900000000000034-64-11.700000000000045-19.299999999999955-26.100000000000023-36.799999999999955-38.60000000000002-55.60000000000002-65.19999999999999-97.89999999999998-88.80000000000001-204.09999999999997-61.30000000000001-319.4 27.69999999999999-115.8 125.60000000000002-193.1 244.5-189.4 99.90000000000003 3.2000000000000064 174.2 52.30000000000001 213.50000000000006 144.1 53.59999999999991 125.30000000000001 30.09999999999991 244.7-39.60000000000002 357.50000000000006-11.600000000000023 18.699999999999932-25.899999999999977 35.59999999999991-38.200000000000045 53.799999999999955-22.699999999999932 33.5-17.5 58.299999999999955 17.5 80.29999999999995 39.5 24.800000000000068 83.60000000000002 39.10000000000002 127.20000000000005 54.80000000000007 61.5 22.100000000000023 119.29999999999995 50.10000000000002 166 97.69999999999993 41.10000000000002 41.60000000000002 49.5 92.5 45.5 147.60000000000002-0.8000000000000682 11.899999999999977-9.399999999999977 8.100000000000023-15.399999999999977 8.100000000000023-56.80000000000007 0.2999999999999545-113.60000000000002 0.2999999999999545-170.4000000000001 0.2999999999999545-104.89999999999998 0.10000000000002274-209.79999999999995 0.10000000000002274-314.69999999999993 0.10000000000002274v-0.2999999999999545z"/>
</svg>
