<svg xmlns="http://www.w3.org/2000/svg" viewBox="0 0 1000 1000" width="1000" height="1000">
<path d="M383.7 553.2c-98.39999999999998-73.80000000000007-80.80000000000001-185.60000000000002-27.19999999999999-239.00000000000006 63.60000000000002-63.29999999999998 164.29999999999995-62.89999999999998 226 1.5 54.5 56.900000000000034 65.29999999999995 164.7-26.799999999999955 236.40000000000003 46.799999999999955 19 83.79999999999995 49.5 113 89.10000000000002 54 73.39999999999998 72.59999999999991 156.5999999999999 66.79999999999995 246.39999999999998-0.8999999999999773 12.699999999999932-8.299999999999955 11.5-16.600000000000023 11.5-96.29999999999995 0-192.69999999999993 0-289.09999999999997 0-69.10000000000002 0-138.10000000000002-0.20000000000004547-207.20000000000002 0.1999999999999318-9.900000000000006 0-14.699999999999989-2-15.299999999999983-12.799999999999955-6.900000000000006-119.89999999999998 27.69999999999999-223.10000000000002 122.30000000000001-301.6 16-13.299999999999955 34.69999999999999-22.799999999999955 54.099999999999966-31.699999999999932z m287.3-185.60000000000002c-37.5-27.900000000000034-61-62-65.60000000000002-107.70000000000005-6.899999999999977-70.49999999999997 37.30000000000007-134.89999999999998 106.20000000000005-153.7 68.79999999999995-18.89999999999999 141.10000000000002 15.200000000000017 170.39999999999998 80.20000000000002 27.100000000000023 60.19999999999999 11.5 126.9-39.200000000000045 169.9-3.2999999999999545 2.8000000000000114-18.5 6.800000000000011-2.8999999999999773 14.5 90.30000000000007 44.5 135.39999999999998 121.09999999999997 153.89999999999998 216.49999999999994 5.800000000000068 29.700000000000045 7.800000000000068 59.80000000000007 4.900000000000091 90.10000000000002-1 9.700000000000045-4.2000000000000455 13.600000000000023-15 13.5-83.5-0.5-167.10000000000002-0.5-250.60000000000002-0.10000000000002274-9.800000000000068 0-14.100000000000023-3.5-18.200000000000045-11.799999999999955-25.5-52.299999999999955-62.299999999999955-94.70000000000005-112.10000000000002-125-9.699999999999932-5.899999999999977-9.899999999999977-8.600000000000023-2.2999999999999545-17.299999999999955 33-37.50000000000006 48.5-81.90000000000003 42.5-131.50000000000006-2.1000000000000227-18 2.2999999999999545-27 18-32.69999999999999 2.7000000000000455-1 5.2000000000000455-2.5 10-4.899999999999977z m-494 121.39999999999998c-57.8-45.69999999999999-84.4-102.60000000000002-63.599999999999994-173.8 17.900000000000006-61.39999999999998 61.29999999999998-99.29999999999998 124.9-109.1 60.30000000000001-9.400000000000006 110.30000000000001 11.200000000000017 148.5 59.900000000000006-118.60000000000002 68.60000000000002-116.5 210.2-39.400000000000034 282.70000000000005-24.399999999999977 15.599999999999909-47.39999999999998 32.5-66.69999999999999 53.89999999999998-55.5 61.60000000000002-86.29999999999998 133.79999999999995-92.19999999999999 216.29999999999995-0.8000000000000114 12.300000000000068-3.1999999999999886 17.300000000000068-16.69999999999999 17.100000000000023-51.10000000000001-0.7999999999999545-102.20000000000002-1-153.20000000000002 0-13.899999999999995 0.2999999999999545-16.899999999999995-5.899999999999977-17.699999999999996-17-8.799999999999999-123.10000000000002 44.6-268.29999999999995 172.2-327.4 1-0.5 1.9000000000000057-1.2000000000000455 3.9000000000000057-2.6000000000000227z"/>
</svg>
