<svg xmlns="http://www.w3.org/2000/svg" viewBox="0 0 1000 1000" width="1000" height="1000">
<path d="M996.9 979.1c0.39999999999997726-45.89999999999998-0.8999999999999773-91.60000000000002-8.100000000000023-137.20000000000005-9.799999999999955-62-38-109.29999999999995-98.79999999999995-132.89999999999998-2.2000000000000455-0.8999999999999773-4.399999999999977-2-6.600000000000023-3-43.799999999999955-19.799999999999955-90.10000000000002-32.10000000000002-136-45.60000000000002-26.899999999999977-7.899999999999977-53.799999999999955-16.100000000000023-80.89999999999998-24.199999999999932-0.20000000000004547 1.5-0.5 2.5-0.39999999999997726 3.5l0.8999999999999773 7.199999999999932c2.5 30.100000000000023 3.7999999999999545 60.39999999999998-8 88.80000000000007-32 76.69999999999993-79.29999999999995 141.69999999999993-147.8 190.19999999999993-8.399999999999977 6-14.199999999999989 6-22.599999999999966 0-68.5-48.69999999999993-115.60000000000002-113.79999999999995-147.90000000000003-190.39999999999998-6.199999999999989-14.600000000000023-8.5-30.5-9-46.5-0.5-17.600000000000023 0-35.10000000000002 2.1999999999999886-52.89999999999998-1.6999999999999886 0.1999999999999318-2.6999999999999886 0.1999999999999318-3.599999999999966 0.5-53.10000000000002 16-106.30000000000001 31.600000000000023-159.10000000000002 48.299999999999955-39.19999999999999 12.399999999999977-76.99999999999999 28.200000000000045-110.1 53.60000000000002-13.399999999999991 10.299999999999955-23.799999999999997 22.5-30.299999999999994 38.39999999999998-10.3 25-17.700000000000003 50.700000000000045-21.6 77.39999999999998-2.499999999999999 17.40000000000009-4.3999999999999995 34.80000000000007-6.499999999999999 52.200000000000045 0 27.899999999999977 0.2999999999999998 55.89999999999998-0.20000000000000018 83.79999999999995-0.10000000000000009 7.600000000000023 1.4 9.600000000000023 9.4 9.600000000000023 328.40000000000003-0.1999999999999318 656.8000000000001-0.1999999999999318 985.2-0.1999999999999318 0-6.800000000000068-0.20000000000004547-13.700000000000045-0.20000000000004547-20.600000000000023z m-633.7-476.20000000000005c16.10000000000008 9.600000000000023 33.00000000000006 17.899999999999977 52.60000000000008 23.399999999999977-101.69999999999999-94.29999999999995-92-252.79999999999995-59.900000000000034-316.4 3.1000000000000227 1.700000000000017 4.100000000000023 5.100000000000023 5.900000000000034 7.800000000000011 53.5 78.5 128.09999999999997 120.60000000000002 222.2 129 34 3 67.5-0.39999999999997726 100.39999999999998-9.399999999999977 7.7000000000000455-2.1000000000000227 9.300000000000068 0.5 8.399999999999977 7.399999999999977-1.099999999999909 8.199999999999989-1.599999999999909 16.5-2.7999999999999545 24.69999999999999-9.399999999999977 59.900000000000034-32.39999999999998 113-78.10000000000002 155.60000000000002 3.6000000000000227 1.5 5.5-0.10000000000002274 7.600000000000023-0.8999999999999773 38.799999999999955-15 73.29999999999995-36.80000000000001 102.89999999999998-66.10000000000002 96.10000000000002-95.10000000000002 104.89999999999998-246.4 19.600000000000023-350.9-54.10000000000002-66.20000000000002-124.79999999999995-101.30000000000003-209.89999999999998-106.40000000000002-85.70000000000005-5.200000000000003-161.90000000000003 20.099999999999998-223.10000000000002 80.6-80.19999999999999 79.3-103 174.60000000000002-65.5 281.8 21.600000000000023 61.39999999999998 64.10000000000002 106.69999999999999 119.69999999999999 139.79999999999995z"/>
</svg>
