<svg xmlns="http://www.w3.org/2000/svg" viewBox="0 0 1000 1000" width="1000" height="1000">
<path d="M926.3 794.3c-2.5-43.19999999999993-13.899999999999977-79.19999999999993-54.59999999999991-100.39999999999998-11.600000000000023-6-23.200000000000045-12.100000000000023-35.30000000000007-16.899999999999977-46.89999999999998-19-94-37.5-141.10000000000002-56.200000000000045-22.299999999999955-8.899999999999977-23.899999999999977-8.099999999999909-30.09999999999991 15-29.700000000000045 111.5-59.30000000000007 223-89 334.4000000000001-1.5 5.699999999999932-2.1000000000000227 11.899999999999977-7.100000000000023 18.09999999999991-1.2000000000000455-5.2999999999999545-2.5-8.799999999999955-2.8999999999999773-12.5-6.600000000000023-55.69999999999993-13.800000000000068-111.39999999999998-19.40000000000009-167.19999999999993-4.7999999999999545-47.700000000000045-18.699999999999932-95.70000000000005 1.8000000000000682-143.30000000000007 3.5-8.199999999999932-2.800000000000068-8.5-8.700000000000045-8.5-24.600000000000023 0.10000000000002274-49.099999999999966 0.6000000000000227-73.69999999999999-0.1999999999999318-13.099999999999966-0.39999999999997726-17.80000000000001 2-12.699999999999989 16.100000000000023 9.399999999999977 25.899999999999977 12.300000000000011 52.39999999999998 6.699999999999989 80-4.5 22.399999999999977-5.899999999999977 45.39999999999998-8.800000000000011 68.09999999999991l-20.69999999999999 166.60000000000002h-3.099999999999966c-0.9000000000000341-2.3999999999999773-2-4.7999999999999545-2.6000000000000227-7.2999999999999545-30.5-114.10000000000002-60.89999999999998-228.20000000000005-91.30000000000001-342.30000000000007-6.399999999999977-24.199999999999932-9.099999999999966-25.59999999999991-32.69999999999999-16.199999999999932-46 18.299999999999955-92.1 36.5-138.1 54.89999999999998-20.900000000000006 8.299999999999955-40.30000000000001 19.200000000000045-57.400000000000006 34.10000000000002-16.599999999999994 14.5-27.700000000000003 31.699999999999932-29.799999999999997 54.39999999999998-5.5 60.799999999999955-12.100000000000001 121.5-17.300000000000004 182.29999999999995-3.1000000000000014 36.5 12.899999999999999 52.700000000000045 49.199999999999996 52.700000000000045 103.20000000000002-0.10000000000002274 206.29999999999998-0.10000000000002274 309.5-0.10000000000002274 159.39999999999998 0 318.69999999999993 0.10000000000002274 478.1-0.10000000000002274 31.59999999999991 0 49.59999999999991-19.899999999999977 46.5-49.39999999999998-5.600000000000023-52-12.400000000000091-103.89999999999998-15.400000000000091-156.10000000000002z m-629.3-402.19999999999993c10.899999999999977 2.8999999999999773 14.100000000000023 8.599999999999966 17.69999999999999 17.19999999999999 21.400000000000034 51.599999999999966 48.400000000000034 99.59999999999997 92.40000000000003 135.8 32.89999999999998 27.100000000000023 70 41.19999999999993 113.39999999999998 34.39999999999998 31.299999999999955-4.899999999999977 57.5-19.899999999999977 80.39999999999998-40.799999999999955 40.5-37.200000000000045 67.10000000000002-83.60000000000002 87-134.20000000000005 1.3999999999999773-3.6999999999999886 1.3000000000000682-10 6.2000000000000455-10.100000000000023 17.5-0.0999999999999659 25-14.699999999999989 36.19999999999993-23.899999999999977 18.40000000000009-15 19.100000000000023-35.19999999999999 15.300000000000068-56.39999999999998-1.7000000000000455-9.800000000000011-7.100000000000023-15.200000000000045-17.300000000000068-14-8.599999999999909 1-9.199999999999932-2.2000000000000455-7.5-9.800000000000011 6.2000000000000455-27.600000000000023 8.5-55.80000000000001 9.800000000000068-86.9-0.5-7.400000000000006-0.7000000000000455-17.80000000000001-2.1000000000000227-27.900000000000006-3.2000000000000455-22-9.100000000000023-42.80000000000001-30.799999999999955-54.400000000000006-4.300000000000068-2.299999999999997-6.2000000000000455-6.3999999999999915-8.400000000000091-10.5-21.199999999999932-39.8-50.299999999999955-71.69999999999999-92-90.69999999999999-26.699999999999932-12.300000000000006-55.09999999999991-17.800000000000004-84.09999999999991-19.400000000000006-77.20000000000005-4.3-141.40000000000003 19.3-183.40000000000003 88.3-2.900000000000034 4.799999999999997-7.100000000000023 6.700000000000003-11.600000000000023 8.600000000000009-16.80000000000001 7.099999999999994-29.69999999999999 18.599999999999994-37.599999999999966 35.19999999999999-10.200000000000045 21.200000000000017-15.5 43.70000000000002-16.900000000000034 67.1-1.8999999999999773 31.100000000000023 3.1999999999999886 61.60000000000002 9.400000000000034 91.90000000000003 1.099999999999966 5.5 1.3999999999999773 8.699999999999989-5.7000000000000455 8.5-6.699999999999989-0.20000000000004547-10.199999999999989 4.5-12.199999999999989 10.299999999999955-10.399999999999977 30.700000000000045 10.300000000000011 73.20000000000005 41.80000000000001 81.70000000000005z m48.39999999999998-67.30000000000001c-0.7999999999999545-9.699999999999989 0.7000000000000455-18.400000000000034 11-22.80000000000001 4.800000000000011-2 9.200000000000045-3.5 12.900000000000034 2.1999999999999886 3.3999999999999773 5.100000000000023 9.099999999999966 5.100000000000023 14.5 4.699999999999989 6.699999999999989-0.5 9.199999999999989 1.3000000000000114 8.599999999999966 8.900000000000034-1 13 7.900000000000034 22.30000000000001 19.100000000000023 21.899999999999977 12-0.5 19.80000000000001-10.5 17.69999999999999-23.899999999999977-0.8999999999999773-5.5 0.6000000000000227-6.800000000000011 5.600000000000023-6.699999999999989 6 0.0999999999999659 12.300000000000011 1.099999999999966 17.69999999999999-2.900000000000034 3.3999999999999773-2.5 4.600000000000023 0.6000000000000227 6.199999999999989 2.6000000000000227 10.900000000000034 13.099999999999966 11.300000000000011 31.599999999999966-0.5 43.80000000000001-21.69999999999999 22.299999999999955-48.5 30.899999999999977-79 25.099999999999966-17.69999999999999-3.3999999999999773-30.399999999999977-22.099999999999966-33.19999999999999-46.099999999999966-0.5-2.2000000000000455-0.5-4.5-0.6000000000000227-6.800000000000011z m287.20000000000005 112.5c-17.5 32.599999999999966-38.39999999999998 62.5-68.5 84.80000000000001-44.89999999999998 33.299999999999955-91.90000000000003 31.399999999999977-135.70000000000005-6.2000000000000455-36.5-31.19999999999999-59.799999999999955-71.69999999999999-78.19999999999999-115.39999999999998-0.39999999999997726-0.8999999999999773-0.30000000000001137-2-0.5999999999999659-4.399999999999977 31.599999999999966 14.299999999999955 62.299999999999955 11.199999999999989 92.09999999999997-2.5 27.5-12.700000000000045 47.80000000000001-31.5 48.30000000000001-64.70000000000005 0.10000000000002274-7.399999999999977 5.399999999999977-6.2999999999999545 9.699999999999989-6.099999999999966 4.5 0.0999999999999659 9.900000000000034-1.6999999999999886 11.300000000000011 6 7.7000000000000455 45.89999999999998 42.89999999999998 74.89999999999998 91.89999999999998 76.09999999999997 8.300000000000068 0.20000000000004547 16.600000000000023 0.6000000000000227 25-1.2999999999999545 7.7000000000000455-1.8000000000000114 14.800000000000068-5.2000000000000455 23.700000000000045-7.7000000000000455-4.800000000000068 15.700000000000045-12.100000000000023 28.5-19 41.400000000000034z m-25.200000000000045-57.400000000000034c-20.600000000000023-0.39999999999997726-39.799999999999955-6.2999999999999545-56.5-18.899999999999977-10.100000000000023-7.699999999999989-17-17.30000000000001-17.299999999999955-30.600000000000023 0-8.099999999999966 3.6000000000000227-14.799999999999955 7.899999999999977-21.19999999999999 2-3 4-3.1999999999999886 8.200000000000045-2.6999999999999886 13.599999999999909 1.8000000000000114 23.59999999999991 3.8999999999999773 23.399999999999977 21.80000000000001-0.10000000000002274 8.599999999999966 12.899999999999977 13.199999999999989 22.199999999999932 10.300000000000011 9.700000000000045-3 15.200000000000045-10.600000000000023 13.100000000000023-20-2.2999999999999545-10.100000000000023 2.1000000000000227-10.100000000000023 9.200000000000045-9.600000000000023 4.600000000000023 0.30000000000001137 8.899999999999977-0.10000000000002274 12.799999999999955-3.3999999999999773 9.300000000000068-7.900000000000034 20-4.5 24.200000000000045 7.2999999999999545 9.799999999999955 28.600000000000023-17.300000000000068 67.60000000000002-47.200000000000045 67z m-253-220.09999999999997c3.2000000000000455-3 4.800000000000011-3.5 7.900000000000034 0.29999999999998295 41.30000000000001 52.20000000000002 99.39999999999998 65.70000000000002 161.59999999999997 68.80000000000001 25.600000000000023 1.299999999999983 51.10000000000002-0.9000000000000057 75.80000000000007-8.400000000000006 12.899999999999977-3.9000000000000057 17.899999999999977-10 14.199999999999932-18.900000000000006-4.199999999999932-10.299999999999983-12.399999999999977-8.900000000000006-21.100000000000023-6.400000000000006-46.89999999999998 13.200000000000017-93.39999999999998 10.400000000000006-139.49999999999994-4.099999999999994-1.6999999999999886-0.5-3.3000000000000114-1.5999999999999943-5-2.299999999999983 24.30000000000001 4 48 6.399999999999977 72.09999999999997 5.5 41.60000000000002-1.6000000000000227 79.5-13.700000000000017 112.30000000000007-39.400000000000006 9-7 11.899999999999977-4.200000000000017 16.59999999999991 3.6999999999999886 13 21.80000000000001 18.90000000000009 45.70000000000002 21.90000000000009 70.4 2.699999999999932 21.900000000000006 4.199999999999932 44.10000000000002 2.5 70.10000000000002-14.800000000000068-23.400000000000034-36.10000000000002-19.900000000000034-56.40000000000009-19.900000000000034l-64.19999999999993 0.10000000000002274c-12.899999999999977 0-23 5.800000000000011-29.600000000000023 16.399999999999977-3.6000000000000227 5.800000000000011-7.600000000000023 7.800000000000011-14 6.800000000000011-3.3999999999999773-0.6000000000000227-6.899999999999977-0.8000000000000114-10.300000000000011-0.30000000000001137-11.800000000000011 1.900000000000034-20.69999999999999-0.8000000000000114-27.399999999999977-12-4.900000000000034-8.099999999999966-14.100000000000023-11-23.900000000000034-10.899999999999977-26.399999999999977 0.0999999999999659-52.69999999999999-0.19999999999998863-79.09999999999997 0-22.5 0.19999999999998863-26.600000000000023 2-41.60000000000002 16.5-16.69999999999999-40.60000000000002-3.3999999999999773-107.10000000000002 27.19999999999999-136z"/>
</svg>
