<svg xmlns="http://www.w3.org/2000/svg" viewBox="0 0 1000 1000" width="1000" height="1000">
<path d="M318.7 441.8c4.300000000000011 2.3000000000000114 7.100000000000023 4.899999999999977 8.699999999999989 9.599999999999966 16.30000000000001 47.200000000000045 46.700000000000045 83.10000000000002 89.5 108.20000000000005 44.700000000000045 26.299999999999955 92.20000000000005 32.89999999999998 141.20000000000005 14.799999999999955 58.19999999999993-21.5 98.29999999999995-62.19999999999993 120.5-120.29999999999995 1.5-3.8000000000000114 2-8 6.399999999999977-10.5 27.200000000000045-15.900000000000034 42.5-40.400000000000034 47.799999999999955-70.80000000000001 4.100000000000023-23.400000000000034 1.3000000000000682-45.5-20.299999999999955-60.69999999999999-3.7999999999999545-2.7000000000000455-2.8999999999999773-5.800000000000011-2.2000000000000455-9 3.6000000000000227-17.80000000000001 6-35.700000000000045 7.7000000000000455-53.80000000000001 0.39999999999997726-4 1.6000000000000227-6.900000000000006 5.100000000000023-9 18.699999999999932-11.600000000000023 32.5-27.900000000000006 45.10000000000002-45.60000000000002 3.8999999999999773-5.5 4-8.199999999999989-1.3000000000000682-12.799999999999983-12.799999999999955-11.200000000000017-26.799999999999955-20.599999999999994-41.5-31.200000000000017 15.100000000000023-6 29.800000000000068-7.599999999999994 46.5-7.899999999999977-31.299999999999955-35.900000000000006-71.19999999999993-52.500000000000014-114.69999999999993-64.30000000000001 6.2999999999999545-7.200000000000003 13.699999999999932-11.200000000000003 21.399999999999977-14.799999999999997 7.5-3.5 16-3.700000000000003 25.199999999999932-6.100000000000001-62.19999999999993-31.3-125.39999999999998-38.900000000000006-192.49999999999994-19.200000000000003 5.999999999999943-16.299999999999997 16.69999999999999-27.2 28.69999999999999-38.199999999999996-1.7999999999999545-2.831068712794149e-15-2.3999999999999773-0.10000000000000284-2.8999999999999773-2.831068712794149e-15-51.700000000000045 9.200000000000001-101 23.7-138.90000000000003 63.099999999999994-4 4.200000000000003-6.399999999999977 3.700000000000003-7.399999999999977-2.1999999999999957-1.6999999999999886-10-1.1999999999999886-19.6 4.199999999999989-28.800000000000004-20.19999999999999 3.3000000000000043-43.69999999999999 18.900000000000006-59.5 38.7-25.69999999999999 32.099999999999994-36.10000000000002 70-41.60000000000002 109.69999999999999-5.5 39.900000000000006-4.2999999999999545 79.69999999999999 2.8000000000000114 119.30000000000001 1.1000000000000227 6.100000000000023 0.6999999999999886 10.5-5.300000000000011 14.300000000000011-8.399999999999977 5.300000000000011-13.199999999999989 13.899999999999977-16.099999999999966 23.30000000000001-10.900000000000034 34.299999999999955 10.800000000000011 86.79999999999995 43.39999999999998 104.19999999999999z m0.10000000000002274-114.5c5.300000000000011-1.400000000000034 6.099999999999966-3 5.899999999999977-8.5-1.599999999999966-37 3-72.4 28.19999999999999-102 1.8000000000000114-2.1000000000000227 4-4.100000000000023 6.100000000000023-5.900000000000006 16.5-14.200000000000017 19.100000000000023-14.400000000000006 37.10000000000002-2.3000000000000114 28.69999999999999 19.30000000000001 57.19999999999999 38.80000000000001 89.79999999999995 51.099999999999994 34.700000000000045 13.100000000000023 70.80000000000007 17 107.70000000000005 15.100000000000023 28.600000000000023-1.5 57-4.900000000000034 84.39999999999998-13.800000000000011 5.2999999999999545-1.6999999999999886 5.2999999999999545 1.3000000000000114 5.7000000000000455 5.100000000000023 1.599999999999909 17.899999999999977 0.2999999999999545 35.599999999999966-1.1000000000000227 53.39999999999998-0.20000000000004547 3.3000000000000114-1.2000000000000455 6.300000000000011 3.3999999999999773 7.100000000000023 24.100000000000023 4.399999999999977 26.700000000000045 20.799999999999955 24.399999999999977 39.39999999999998-2.6000000000000227 21.100000000000023-13.399999999999977 38.19999999999999-29.199999999999932 52.19999999999999-2.300000000000068 2-5.2000000000000455 4.400000000000034-7.900000000000091 4.600000000000023-11 0.8000000000000114-12.399999999999977 9.099999999999966-15.299999999999955 17.19999999999999-23.399999999999977 65.60000000000002-68.89999999999998 106.10000000000002-137.5 119.79999999999995-5.7999999999999545 1.2000000000000455-11.800000000000011 0.900000000000091-19.5 1.3000000000000682-52.80000000000001-2.6000000000000227-94.39999999999998-28.600000000000023-127.10000000000002-70.60000000000002-13.5-17.399999999999977-22.69999999999999-37.10000000000002-28.5-58.39999999999998-0.7999999999999545-2.8000000000000114-0.7999999999999545-6.100000000000023-5.099999999999966-6.800000000000011-12.699999999999989-2-21-10.5-28-20.400000000000034-10.199999999999989-14.299999999999955-17.600000000000023-29.69999999999999-16.900000000000034-47.799999999999955 0.5-17.200000000000045 6.900000000000034-25.5 23.400000000000034-29.80000000000001z m614.4000000000001 482.99999999999994c-0.900000000000091-26.199999999999932-11.600000000000023-48.09999999999991-32.10000000000002-64.89999999999998-10.100000000000023-8.299999999999955-21.300000000000068-14.799999999999955-33.200000000000045-20.199999999999932-31-14.100000000000023-64.10000000000002-21.800000000000068-96.89999999999998-30.5-36.60000000000002-9.700000000000045-73.29999999999995-19.100000000000023-107.20000000000005-36.80000000000007-5.899999999999977-3.1000000000000227-8.199999999999932-6.699999999999932-8-13.5 0.5-16.100000000000023 0.20000000000004547-32.10000000000002 0.20000000000004547-48.10000000000002-3.7999999999999545-0.1999999999999318-5.100000000000023 1.8000000000000682-6.600000000000023 3.1000000000000227-22.699999999999932 20.200000000000045-48.299999999999955 35.89999999999998-76.89999999999998 45.5-15.100000000000023 5.100000000000023-21 11.399999999999977-20.5 28.200000000000045 0.7999999999999545 25.600000000000023-20.100000000000023 46.39999999999998-45.60000000000002 49.69999999999993-25 3.2000000000000455-49-12.799999999999955-56.5-37.5-2.6999999999999886-8.899999999999977-2.099999999999966-17.899999999999977-2-26.899999999999977 0-4.100000000000023-0.7999999999999545-6.399999999999977-5.199999999999989-7.7999999999999545-35.89999999999998-11.300000000000068-68-29.600000000000023-98.30000000000001-56.60000000000002 0 12.799999999999955-1.599999999999966 23.100000000000023 0.30000000000001137 32.799999999999955 4.800000000000011 23.5-7.699999999999989 33-27.19999999999999 40.60000000000002-37.10000000000002 14.5-75.6 23.800000000000068-113.9 34.10000000000002-30.69999999999999 8.299999999999955-61.29999999999998 16.799999999999955-89 33.10000000000002-32 18.899999999999977-48.19999999999999 46.69999999999993-47.8 84 0.20000000000000284 19.199999999999932 0.5 38.299999999999955-0.09999999999999432 57.5-0.29999999999999716 10.899999999999977 3.8999999999999915 18.699999999999932 11.799999999999997 25.399999999999977 12.200000000000003 10.399999999999977 26 18.299999999999955 40.5 24.899999999999977 91.1 41.700000000000045 188 59.89999999999998 286.9 69.39999999999998 69.60000000000002 6.600000000000023 139.30000000000007 5.600000000000023 208.80000000000007-2 82.09999999999991-9 162.5-25.299999999999955 239.69999999999993-55.39999999999998 23.200000000000045-9.100000000000023 46-19.399999999999977 65.60000000000002-35.19999999999993 7.100000000000023-5.7000000000000455 13.700000000000045-11.900000000000091 13.700000000000045-22.200000000000045-0.3000000000000682-23.700000000000045 0.2999999999999545-47.299999999999955-0.5-70.70000000000005z m-433.1 120.70000000000005c-20.100000000000023 0-36.30000000000001-16.299999999999955-36.30000000000001-36.299999999999955s16.30000000000001-36.30000000000007 36.30000000000001-36.30000000000007c20.100000000000023 0 36.299999999999955 16.300000000000068 36.299999999999955 36.30000000000007s-16.199999999999932 36.299999999999955-36.299999999999955 36.299999999999955z m0-97.70000000000005c-20.100000000000023 0-36.30000000000001-16.299999999999955-36.30000000000001-36.299999999999955 0-20.100000000000023 16.30000000000001-36.299999999999955 36.30000000000001-36.299999999999955 20.100000000000023 0 36.299999999999955 16.299999999999955 36.299999999999955 36.299999999999955 0 20-16.199999999999932 36.299999999999955-36.299999999999955 36.299999999999955z m86-458.09999999999997c18.699999999999932 0.5 34.799999999999955-14.899999999999977 35.10000000000002-33.599999999999966 0.2999999999999545-19.100000000000023-14.600000000000023-34.60000000000002-33.60000000000002-35-18.899999999999977-0.5-34.80000000000007 14.699999999999989-35 33.5-0.3000000000000682 19.099999999999966 14.5 34.599999999999966 33.5 35.099999999999966z m-172.70000000000005 0c18.400000000000034 0.10000000000002274 34-15.199999999999989 34.200000000000045-33.5 0.2999999999999545-19.099999999999966-14.800000000000011-34.69999999999999-33.900000000000034-35.099999999999966-18.5-0.4000000000000341-34.19999999999999 14.599999999999966-34.69999999999999 33-0.5 19.599999999999966 14.899999999999977 35.5 34.39999999999998 35.599999999999966z m28.80000000000001 99.90000000000003c-1.3000000000000114 2.3999999999999773-0.6999999999999886 5 1.1000000000000227 7 15.199999999999989 17.299999999999955 32.599999999999966 30.699999999999932 56.80000000000001 32 22.5-1.2000000000000455 39.299999999999955-13.100000000000023 53.89999999999998-28.900000000000034 2.7000000000000455-2.8999999999999773 6.399999999999977-5.800000000000011 3.8999999999999773-10.199999999999989-2.699999999999932-4.699999999999989-7.2999999999999545-2.1000000000000227-10.799999999999955-1.1999999999999886-19.399999999999977 5-39 7.199999999999989-59 5.899999999999977-13-0.8999999999999773-25.700000000000045-3.3999999999999773-38.30000000000001-6.599999999999966-2.900000000000034-0.7000000000000455-5.900000000000034-1.2000000000000455-7.600000000000023 2z"/>
</svg>
