<svg xmlns="http://www.w3.org/2000/svg" viewBox="0 0 1000 1000" width="1000" height="1000">
<path d="M742.2 641.6c-28.40000000000009-18.899999999999977-60.30000000000007-30.300000000000068-91-44.30000000000007-5.7000000000000455-2.5-11.400000000000091-4.699999999999932-17-7.2999999999999545-28.700000000000045-13.299999999999955-39.30000000000007-39.700000000000045-26.800000000000068-69.10000000000002 8-18.599999999999966 14.700000000000045-37.5 18.100000000000023-57.39999999999998 0.6000000000000227-4 1.5-7.300000000000011 7.2000000000000455-6.800000000000011 10.399999999999977 0.8000000000000114 16.199999999999932-5.599999999999966 19.09999999999991-14.699999999999989 5.400000000000091-16.399999999999977 10.5-32.80000000000001 15.300000000000068-49.39999999999998 1.8999999999999773-6.2000000000000455 2-12.800000000000011 0.6999999999999318-19.30000000000001-1.2999999999999545-6.5-4.599999999999909-12.400000000000034-11.5-12.800000000000011-7.7999999999999545-0.5-8.899999999999977-4.100000000000023-8.299999999999955-10.5 1-11 1.2999999999999545-22.100000000000023 2.7000000000000455-33 10.299999999999955-75.80000000000001-41.40000000000009-144.7-117-155.9-2.2000000000000455-0.29999999999998295-4.2000000000000455-1.4000000000000057-6.400000000000091-2.0999999999999943h-29.299999999999955c-4 3.5999999999999943-9.300000000000011 2.3000000000000114-13.899999999999977 3.4000000000000057-73.5 16.900000000000006-118.30000000000001 82.4-108.20000000000005 158.4 1.400000000000034 10.599999999999966 2.900000000000034 21.19999999999999 2.400000000000034 32-0.19999999999998863 4-0.9000000000000341 6.699999999999989-5.800000000000011 7.199999999999989-10.899999999999977 1.3000000000000114-14.199999999999989 9-14.699999999999989 18.600000000000023-0.6999999999999886 13.399999999999977 5.5 25.299999999999955 8.699999999999989 37.799999999999955 1.8000000000000114 6.900000000000034 4.699999999999989 13.5 6.5 20.400000000000034 3.1000000000000227 11.699999999999989 8.399999999999977 20.599999999999966 22.30000000000001 20 4.099999999999966-0.19999999999998863 4.699999999999989 2.5 5.300000000000011 5.599999999999966 4 21.100000000000023 10.5 41.400000000000034 19.399999999999977 61.10000000000002 7.300000000000011 16.299999999999955 4.199999999999989 32.299999999999955-3.1000000000000227 48-4.2999999999999545 9.399999999999977-13.099999999999966 13.100000000000023-21.69999999999999 17-29.099999999999966 13.600000000000023-59.39999999999998 24.700000000000045-87.89999999999998 39.60000000000002-9.199999999999989 4.7999999999999545-18.19999999999999 10.199999999999932-26.600000000000023 16.199999999999932-13.699999999999989 9.600000000000023-23.80000000000001 22.100000000000023-28.5 38.40000000000009-9.299999999999983 31.899999999999977-13 64.29999999999995-6.5 97.29999999999995 4.400000000000006 22 17.69999999999999 36.39999999999998 39.19999999999999 42.89999999999998s43.80000000000001 9.300000000000068 66.20000000000005 11.5c30.099999999999966 2.8999999999999773 60.299999999999955 4 90.5 4.899999999999977 3.1999999999999886 0.10000000000002274 6.399999999999977 0.900000000000091 9.599999999999966 1.3000000000000682h121.09999999999997c25.300000000000068-1.3000000000000682 50.60000000000002-2.6000000000000227 75.90000000000009-4.100000000000023 28.899999999999977-1.7000000000000455 57.69999999999993-4.600000000000023 85.89999999999998-11.399999999999977 30.5-7.300000000000068 44.799999999999955-24.100000000000023 47-55.200000000000045 2.1000000000000227-29.799999999999955-1.1000000000000227-59-8.700000000000045-87.89999999999998-4.600000000000023-17.600000000000023-15.199999999999932-30.399999999999977-30.199999999999932-40.39999999999998z m-456.80000000000007-27.899999999999977c16.200000000000045-8.300000000000068 32.400000000000034-16.600000000000023 49.200000000000045-23.800000000000068 3.2999999999999545-1.3999999999999773 7.399999999999977-1.8999999999999773 10.099999999999966-6-12.300000000000011-5.399999999999977-24.30000000000001-10.299999999999955-36-15.899999999999977-21.899999999999977-10.299999999999955-30.19999999999999-28.600000000000023-21.69999999999999-51.10000000000002 5.899999999999977-15.799999999999955 12-31.5 15-48.19999999999999 0.6999999999999886-3.8999999999999773 2.1999999999999886-5.599999999999966 6.300000000000011-5.599999999999966 8.199999999999989 0.19999999999998863 12.300000000000011-5 14.599999999999966-12 4.2000000000000455-13 8.400000000000034-26 12.300000000000011-39 1.5-5.100000000000023 1.5-10.5 0.10000000000002274-15.5-1.6999999999999886-6.800000000000011-6.900000000000034-11.800000000000011-13.5-9.300000000000011-11.600000000000023 4.5-10.5-2.1000000000000227-9.5-9.100000000000023 1.8999999999999773-14.199999999999989 3.599999999999966-28.399999999999977 3.599999999999966-42.69999999999999 0-63.19999999999999-58.19999999999999-111.69999999999999-120.29999999999998-100.30000000000001-49 9-84.3 51.69999999999999-84 101.60000000000002 0.10000000000000853 14.699999999999989 1.8000000000000114 29.19999999999999 3.8000000000000114 43.69999999999999 0.5 3.6999999999999886 2.0999999999999943 9.5-5.200000000000003 8.5-15.200000000000003-2-20.400000000000006 2.3000000000000114-18.400000000000006 17.399999999999977 2.200000000000003 16.80000000000001 8.5 32.60000000000002 14.400000000000006 48.400000000000034 1.7999999999999972 5 5.799999999999997 8 11.200000000000003 8.199999999999989 5 0.10000000000002274 7.299999999999997 2 8.399999999999991 7.199999999999989 3.200000000000003 15.600000000000023 8.299999999999997 30.5 14.299999999999997 45.400000000000034 9.300000000000011 23.199999999999932 0.30000000000001137 42.799999999999955-22.599999999999994 53.19999999999993-22.200000000000003 10-44.599999999999994 19.700000000000045-66.7 29.90000000000009-29.499999999999996 13.399999999999977-46.199999999999996 35.89999999999998-48.5 68.5-0.19999999999999707 3.2999999999999545-0.19999999999999707 6.599999999999909-2.299999999999997 9.399999999999977v33.19999999999993c2 1.1000000000000227 1.9 3.2000000000000455 2.2 5.100000000000023 3.0999999999999996 18.300000000000068 13.100000000000001 30.700000000000045 30.900000000000002 36.60000000000002 10.199999999999996 3.3999999999999773 20.799999999999997 5.5 31.4 7 49.099999999999994 6.600000000000023 98.6 5.899999999999977 148 7.5 6.699999999999989 0.20000000000004547 8.5-2.2999999999999545 8-8.5-1.1999999999999886-15.299999999999955 0.09999999999999432-30.600000000000023 1.9000000000000057-45.799999999999955 5.299999999999983-42.80000000000007 22.900000000000006-77.40000000000009 62.99999999999997-98z m706.6 38.69999999999993c-3.2000000000000455-14.600000000000023-11.700000000000045-24.699999999999932-24.5-32.299999999999955-21.600000000000023-12.800000000000068-45.299999999999955-21.100000000000023-67.89999999999998-31.700000000000045-20-9.399999999999977-27-27.699999999999932-18.300000000000068-48.299999999999955 2.2000000000000455-5.100000000000023 4.900000000000091-8.100000000000023 11.100000000000023-9 18-2.7000000000000455 35.80000000000007-6.7000000000000455 52.5-14.200000000000045 13.5-6 26.300000000000068-13 34.60000000000002-25.899999999999977 3.5-5.399999999999977 4.600000000000023-9.399999999999977-3.5-12.399999999999977-9.799999999999955-3.6000000000000227-18-9.900000000000034-24.5-18.600000000000023-13.700000000000045-18.30000000000001-17.399999999999977-39.5-20-61.19999999999999-2.5-21.30000000000001-3.2999999999999545-42.69999999999999-10.700000000000045-63.30000000000001-21.199999999999932-59.30000000000001-93-89.30000000000001-149.29999999999995-61.10000000000002-40 20.100000000000023-57.799999999999955 56.10000000000002-66.20000000000005 98-5.199999999999932 26.100000000000023-6.699999999999932 52.900000000000034-17.299999999999955 77.80000000000001-6.5 15.199999999999989-16.399999999999977 25.80000000000001-33.200000000000045 28.30000000000001-7.5 1.1000000000000227-7.2999999999999545 4.699999999999989-4.2999999999999545 10 5.2000000000000455 9.399999999999977 13.100000000000023 16.100000000000023 22.200000000000045 21.30000000000001 21.5 12.400000000000034 45.19999999999993 17.69999999999999 69.39999999999998 21.69999999999999 3.1000000000000227 0.5 6.399999999999977 0.20000000000004547 8.399999999999977 3.7000000000000455 9.600000000000023 16.5 9 43.799999999999955-13.5 52.299999999999955-8 3-15.700000000000045 7-24.100000000000023 10.799999999999955 1.8000000000000682 1.400000000000091 2.5 2.1000000000000227 3.300000000000068 2.5 5 2.5 10 4.900000000000091 14.899999999999977 7.400000000000091 29.299999999999955 15.199999999999932 54.60000000000002 34.09999999999991 63.5 68.39999999999998 6 23.100000000000023 9.799999999999955 46.60000000000002 9.799999999999955 70.29999999999995 0 9.800000000000068 3 12 12.100000000000023 11.5 17.899999999999977-1 35.799999999999955-0.6000000000000227 53.700000000000045-1.1999999999999318 31.199999999999932-1 62.39999999999998-1.900000000000091 93.09999999999991-8.600000000000023 18.300000000000068-3.8999999999999773 32.10000000000002-12.399999999999977 35-32.60000000000002 0.10000000000002274-0.8999999999999773 1.1000000000000227-1.6000000000000227 1.7000000000000455-2.2999999999999545v-27.40000000000009c-2.7000000000000455-11.299999999999955-5.5-22.5-8-33.89999999999998z"/>
</svg>
