<svg xmlns="http://www.w3.org/2000/svg" viewBox="0 0 1000 1000" width="1000" height="1000">
<path d="M555.7 619.3c-44.60000000000002-18-88.10000000000002-38.19999999999993-131.50000000000006-58.89999999999998-7.800000000000011-3.7999999999999545-11.699999999999989-8-11.800000000000011-17.100000000000023-0.0999999999999659-11.399999999999977-1.7999999999999545-22.799999999999955-3.599999999999966-34.19999999999993-1.1000000000000227-7.300000000000011 0.19999999999998863-12.600000000000023 5.899999999999977-18.200000000000045 22-21.899999999999977 39.10000000000002-46.89999999999998 44.19999999999999-78.39999999999998 0.8000000000000114-4.699999999999989 3.3000000000000114-6.100000000000023 7.800000000000011-6.300000000000011 10.100000000000023-0.5999999999999659 16.30000000000001-6.099999999999966 18-16.099999999999966 2.900000000000034-16.5 5.600000000000023-33.10000000000002 8.300000000000011-49.60000000000002 1.6999999999999886-10.199999999999989-2.3000000000000114-17.80000000000001-12.100000000000023-20.5-6.699999999999989-1.8999999999999773-5.5-5-4.899999999999977-9.899999999999977 2.6999999999999886-22.400000000000034 5.699999999999989-45-0.39999999999997726-67.20000000000002-15.300000000000011-56.099999999999994-52.400000000000034-91.80000000000001-106.80000000000001-109.9-19.900000000000034-6.599999999999994-40.30000000000001-5.099999999999994-58.80000000000001 5.099999999999994-10.399999999999977 5.700000000000017-21.100000000000023 4-32.89999999999998 4.5-44.70000000000002 1.9000000000000057-85.40000000000003 42.900000000000006-97.80000000000001 90-7 26.200000000000017-9.5 52.599999999999994-4.300000000000011 79.29999999999998 1 4.600000000000023 0.30000000000001137 6.400000000000034-4.099999999999994 8.300000000000011-9.200000000000017 4-12.5 11.400000000000034-10.700000000000017 21.5 2.9000000000000057 16.19999999999999 4.800000000000011 32.5 7.700000000000017 48.60000000000002 1.6999999999999886 9.199999999999989 7.599999999999994 15 17.19999999999999 15.699999999999989 4.900000000000006 0.30000000000001137 7.200000000000017 1.8000000000000114 8.599999999999994 6.800000000000011 8.200000000000017 31.80000000000001 24.100000000000023 59.19999999999999 47 82.69999999999999 2.5 2.6000000000000227 3.8000000000000114 5.300000000000011 3.3000000000000114 9.199999999999989-1.5999999999999943 14.000000000000057-3 28.000000000000057-4.199999999999989 42.099999999999966-0.5 6.300000000000068-3 10.100000000000023-9.100000000000023 12.900000000000091-39.29999999999998 18.59999999999991-78.5 37.39999999999998-118.99999999999999 53.09999999999991-27.5 10.700000000000045-54.2 23-76.80000000000001 42.60000000000002-22.89999999999999 19.800000000000068-35.49999999999999 44.200000000000045-34.89999999999999 75.10000000000002 0.6 29.5 0.1 58.89999999999998 0.2 88.29999999999995 0 20.800000000000068 10.100000000000001 35.5 28 45.200000000000045 10.3 5.7000000000000455 21.7 6.7000000000000455 33.3 6.7000000000000455 88.30000000000001 0 176.6 0 264.9 0 64.20000000000005 0 128.40000000000003 0.2999999999999545 192.60000000000002-0.10000000000002274 29.5-0.10000000000002274 59 2.1000000000000227 88.29999999999995-1.2000000000000455 26.40000000000009-3 45.10000000000002-24.199999999999932 45.40000000000009-50.60000000000002 0.39999999999997726-30.199999999999932 0.1999999999999318-60.39999999999998 0.09999999999990905-90.59999999999991 0-29.40000000000009-11.899999999999977-53.10000000000002-34.09999999999991-72.10000000000002-18.800000000000068-16.100000000000023-40.30000000000007-27.600000000000023-63-36.80000000000007z m443.9 111.5c-0.3000000000000682-21.5-10.399999999999977-38-29-48.89999999999998-13.899999999999977-8.199999999999932-29.300000000000068-12.600000000000023-44.89999999999998-16.600000000000023-37.200000000000045-9.5-74.70000000000005-18.299999999999955-111.5-29.5-12.400000000000091-3.7999999999999545-18.40000000000009-11.5-18.5-24.199999999999932 0-3.800000000000068 0-7.800000000000068-0.900000000000091-11.399999999999977-1.6999999999999318-7 1.3000000000000682-8.300000000000068 7.600000000000023-8.700000000000045 38.5-2.3999999999999773 74.89999999999998-12.899999999999977 109.80000000000007-29.200000000000045 15.099999999999909-7 15.5-7.399999999999977 4.7999999999999545-20.09999999999991-25.899999999999977-30.700000000000045-42.39999999999998-65.30000000000007-44.60000000000002-105.70000000000005-1.2999999999999545-23.600000000000023-0.5-47.30000000000001-1.1000000000000227-71-0.39999999999997726-21.19999999999999-4.2999999999999545-41.80000000000001-13.899999999999977-60.80000000000001-12.399999999999977-24.399999999999977-32-38.80000000000001-59.5-40.30000000000001-8.799999999999955-0.5-15.600000000000023-0.2999999999999545-19.699999999999932-10.199999999999989-3.1000000000000227-7.599999999999994-11.5-10.799999999999983-19.40000000000009-13.199999999999989-14.899999999999977-4.599999999999994-30.09999999999991-3.6999999999999886-45.39999999999998-2.3000000000000114-48.5 4.200000000000017-84.29999999999995 26.80000000000001-104.60000000000002 71.90000000000003-11.199999999999932 24.799999999999955-15.299999999999955 51-17 77.79999999999995-1.5 24-0.5 48.200000000000045-4.699999999999932 72-4.399999999999977 24.80000000000001-8.600000000000023 49.700000000000045-25.399999999999977 70.10000000000002-7.800000000000068 9.399999999999977-17.300000000000068 17-27.5 24.600000000000023 5.399999999999977 5.2999999999999545 11.099999999999909 8.199999999999932 16.799999999999955 11 34.700000000000045 17.5 71.70000000000005 25.399999999999977 110.39999999999998 26.199999999999932 15.5 0.3000000000000682 15.5 0.40000000000009095 13.800000000000068 15.300000000000068-0.3000000000000682 2.6000000000000227-0.5 5.2999999999999545-0.6000000000000227 8-0.5 9-5 15.299999999999955-13.600000000000023 17.799999999999955-8 2.3999999999999773-9.299999999999955 4.600000000000023-3.1000000000000227 11.5 20.600000000000023 22.700000000000045 31 49.60000000000002 30.700000000000045 80.39999999999998-0.20000000000004547 25.600000000000023-0.39999999999997726 51.200000000000045 0.10000000000002274 76.80000000000007 0.39999999999997726 23.100000000000023-0.3000000000000682 45.799999999999955-16.100000000000023 67.29999999999995 5.600000000000023 0.39999999999997726 8.600000000000023 0.7000000000000455 11.600000000000023 0.7000000000000455 68.09999999999991 0 136.0999999999999 0.10000000000002274 204.0999999999999 0 24.40000000000009 0 48.90000000000009 0.5 73.30000000000007-0.8999999999999773 22-1.2000000000000455 37.89999999999998-18.5 38.10000000000002-39.90000000000009 0.39999999999997726-32.799999999999955 0.39999999999997726-65.69999999999993-0.10000000000002274-98.5z"/>
</svg>
