<svg xmlns="http://www.w3.org/2000/svg" viewBox="0 0 1000 1000" width="1000" height="1000">
<path d="M800.7 704.1c-7.5-7.399999999999977-8.5-20.399999999999977-2.800000000000068-29.300000000000068 43.89999999999998-67.59999999999991 69.60000000000002-148.0999999999999 69.60000000000002-234.59999999999997 0-239.2-194.70000000000005-433.7-433.8-433.7-239.2 0-433.7 194.5-433.7 433.7 0 239.2 194.5 433.8 433.7 433.8 93.09999999999997 0 179.2-29.799999999999955 249.90000000000003-79.89999999999998 8.600000000000023-6.100000000000023 21.299999999999955-5.300000000000068 28.799999999999955 2.1000000000000227l154.60000000000002 154.69999999999993c1.1000000000000227 1 2.1000000000000227 1.8999999999999773 3.2999999999999545 2.800000000000068 1.8000000000000682 1.5 9.400000000000091 8.599999999999909 16.800000000000068 16.09999999999991l17.699999999999932 17.600000000000023c7.5 7.5 19.600000000000023 7.5 27 0l62.60000000000002-62.5c7.5-7.5 7.5-19.600000000000023 0-27l-193.69999999999993-193.79999999999995z m-104.60000000000002-61.700000000000045c-14.300000000000068 18.5-30.300000000000068 35.5-48.200000000000045 50.60000000000002-57.799999999999955 49.10000000000002-132.5 78.89999999999998-214.2 78.89999999999998-182.89999999999998 0-331.7-148.79999999999995-331.7-331.7s148.8-331.6 331.7-331.6c182.90000000000003 2.842170943040401e-14 331.7 148.70000000000005 331.7 331.6 0 76.09999999999997-26 146.2-69.29999999999995 202.2z m-156.80000000000007-276.2c4.7000000000000455-5.599999999999966 8.100000000000023-13.699999999999989 9-25.099999999999966 0.6000000000000227-7.100000000000023 0.20000000000004547-12.900000000000034-0.8999999999999773-17.600000000000023-2.199999999999932-9.5-6.899999999999977-22.80000000000001-5.699999999999932-33.30000000000001 4-35.39999999999998-8.800000000000068-54.599999999999994-20.40000000000009-64.5-8.099999999999909-6.799999999999983-20.999999999999943-16.899999999999977-28.599999999999966-24.19999999999999-17-16.5-51.80000000000001-36.900000000000006-103.69999999999999-5.199999999999989-9.699999999999989 5.899999999999977-24.899999999999977 17.299999999999983-33.89999999999998 29.099999999999994-12.100000000000023 12.799999999999983-20.900000000000034 32.29999999999998-24.400000000000034 61.900000000000006-1.3000000000000114 10.5-10.699999999999989 22.5-14.399999999999977 32.39999999999998-1.900000000000034 5.199999999999989-2.6999999999999886 12.199999999999989-1.900000000000034 21.400000000000034 1 12.199999999999989 4.800000000000011 20.69999999999999 10.100000000000023 26.299999999999955 7.199999999999989 7.7000000000000455 19.69999999999999 16.700000000000045 24.80000000000001 25.900000000000034 18.599999999999966 33.599999999999966 48.39999999999998 59 82.80000000000001 59 34.5 0 64.39999999999998-25.5 83-59.30000000000001 5-9.199999999999989 17.399999999999977-18.69999999999999 24.199999999999932-26.80000000000001z m-190.79999999999995-48.39999999999998c0-3.400000000000034 0-6.699999999999989 0.10000000000002274-9.900000000000034 0.19999999999998863-5.5 9.099999999999966-9.5 19.599999999999966-9.899999999999977 44.900000000000034-1.8999999999999773 76-17.600000000000023 96.69999999999999-34.69999999999999 8.100000000000023-6.699999999999989 20.100000000000023-7.100000000000023 26.30000000000001 1.3999999999999773 8.100000000000023 10.900000000000034 14 22.5 18.30000000000001 33.400000000000034 4 9.699999999999989 6.2999999999999545 26.599999999999966 4.7000000000000455 37-7.2000000000000455 48.599999999999966-41.10000000000002 97.69999999999999-82.10000000000002 97.69999999999999-46.30000000000001 0-83.60000000000002-62.900000000000034-83.60000000000002-115z m62.39999999999998 171.59999999999997c0.4000000000000341-1.2999999999999545 0.8000000000000114-2.3999999999999773 1.400000000000034-3.5 1.099999999999966-1.7999999999999545 2-3.1999999999999886 1.5-3.5-0.19999999999998863-0.19999999999998863-0.5-0.5-0.8000000000000114-0.6999999999999886l-33.19999999999999-27.5c-8.100000000000023-6.699999999999989-21.19999999999999-10.599999999999966-29.19999999999999-8.699999999999989l-14.600000000000023 3.3999999999999773c-49.39999999999998 11.600000000000023-84.19999999999999 53.30000000000001-84.19999999999999 101.10000000000002v62.799999999999955c0 12.400000000000091 11 22.200000000000045 24.19999999999999 22.200000000000045h104.30000000000001c10.599999999999966 0 20.599999999999966-8.399999999999977 22.399999999999977-18.799999999999955l12.199999999999989-69.70000000000005c1.900000000000034-10.399999999999977-2.8999999999999773-18.700000000000045-6.899999999999977-23.799999999999955-2.3999999999999773-3-3.3999999999999773-7-2.3999999999999773-11.100000000000023l5.2999999999999545-22.200000000000045z m101.20000000000005-43.89999999999998c-8-1.8999999999999773-21 2-29.100000000000023 8.699999999999989l-33.19999999999999 27.5-0.6999999999999886 0.6999999999999886c-0.5 0.30000000000001137 0.5 1.7000000000000455 1.5 3.5 0.5999999999999659 1.1000000000000227 1.099999999999966 2.2000000000000455 1.3999999999999773 3.5l5.399999999999977 22.200000000000045c1 4.100000000000023-0.0999999999999659 8.100000000000023-2.3999999999999773 11.100000000000023-4.100000000000023 5.099999999999909-8.800000000000011 13.5-7 23.899999999999977l12.300000000000011 69.60000000000002c1.8000000000000114 10.399999999999977 11.800000000000011 18.799999999999955 22.30000000000001 18.799999999999955h104.39999999999998c13.100000000000023 0 23.100000000000023-9.799999999999955 23.100000000000023-22.200000000000045v-62.799999999999955c0.10000000000002274-47.80000000000001-34.30000000000007-89.5-83.70000000000005-101.10000000000002 0 0-6.399999999999977-1.599999999999966-14.299999999999955-3.3999999999999773z"/>
</svg>
