<svg xmlns="http://www.w3.org/2000/svg" viewBox="0 0 1000 1000" width="1000" height="1000">
<path d="M552.4 499.5c20.5 19.899999999999977 45 29.899999999999977 73.39999999999998 29.899999999999977 28.5 0 52.700000000000045-10 72.60000000000002-29.899999999999977 19.899999999999977-19.899999999999977 29.899999999999977-44.10000000000002 29.899999999999977-72.60000000000002s-10-52.89999999999998-29.899999999999977-73.39999999999998-44.10000000000002-30.69999999999999-72.60000000000002-30.69999999999999-52.89999999999998 10.199999999999989-73.39999999999998 30.69999999999999-30.699999999999932 45-30.699999999999932 73.39999999999998c-0.10000000000002274 28.5 10.199999999999932 52.700000000000045 30.699999999999932 72.60000000000002z m365.4-24.899999999999977c-10.199999999999932 0-20.09999999999991 3.3999999999999773-29.09999999999991 10.199999999999989v-422.40000000000003h-781v422.6c-16.000000000000043-10.199999999999989-28.200000000000045-12-37.30000000000004-5.100000000000023-4.6000000000000085 4.600000000000023-1.6000000000000085 15.900000000000034 8.699999999999989 34.200000000000045 50.099999999999994 50.10000000000002 110 90.5 179.4 121.29999999999995-14.800000000000011 45.5-19.900000000000006 92.20000000000005-15.300000000000011 140.10000000000002 5.700000000000017 44.39999999999998 22.19999999999999 82.60000000000002 49.60000000000002 114.39999999999998 27.30000000000001 31.899999999999977 62.099999999999966 47.80000000000007 104.19999999999999 47.80000000000007 21.600000000000023 0 41.39999999999998-7.100000000000023 59.60000000000002-21.40000000000009 18.19999999999999-14.199999999999932 27.19999999999999-31.59999999999991 27.19999999999999-52.09999999999991v-184.5c1 0 5.800000000000011 1.3999999999999773 13.800000000000011 4.2999999999999545 8 2.7999999999999545 13.199999999999989 4.2999999999999545 17.199999999999932 4.2999999999999545v172.5c0 12.5 2.900000000000091 23.300000000000068 8.600000000000023 32.5 19.399999999999977 27.300000000000068 45.60000000000002 41 78.60000000000002 41 43.299999999999955-1.099999999999909 78.29999999999995-17.09999999999991 105.10000000000002-47.799999999999955 26.799999999999955-30.700000000000045 43-68.29999999999995 48.69999999999993-112.70000000000005 4.600000000000023-46.69999999999993-0.599999999999909-93.89999999999998-15.399999999999977-141.79999999999995 3.3999999999999773-1.1000000000000227 14.5-6.2999999999999545 33.30000000000007-15.399999999999977 18.799999999999955-9.100000000000023 32.19999999999993-15.899999999999977 40.09999999999991-20.5 8-4.600000000000023 20.200000000000045-11.700000000000045 36.700000000000045-21.399999999999977 16.5-9.700000000000045 29-18.5 37.60000000000002-26.5 8.5-8 17.100000000000023-17.700000000000045 25.600000000000023-29 8.5-11.400000000000034 14.5-22.200000000000045 17.899999999999977-32.50000000000006 1-8.099999999999966-3.5-12.099999999999966-13.800000000000068-12.099999999999966z m-75.09999999999991 37.60000000000002c-5 3.3999999999999773-17.100000000000023 9.099999999999909-34.10000000000002 17.09999999999991l-611.5 6.800000000000068c-5.700000000000017-2.300000000000068-13.400000000000034-6-23.00000000000003-11.100000000000023-9.699999999999989-5.100000000000023-17.299999999999983-8.799999999999955-21.299999999999983-11.100000000000023v-404.5h690v402.9h-0.09999999999990905z m-534.6-12.700000000000045c20.5 19.899999999999977 45 29.899999999999977 73.39999999999998 29.899999999999977 28.5 0 52.69999999999999-10 72.60000000000002-29.899999999999977 19.899999999999977-19.899999999999977 29.899999999999977-44.10000000000002 29.899999999999977-72.60000000000002s-10-52.89999999999998-29.899999999999977-73.39999999999998-44.10000000000002-30.69999999999999-72.60000000000002-30.69999999999999-52.89999999999998 10.199999999999989-73.39999999999998 30.69999999999999-30.700000000000045 45-30.700000000000045 73.39999999999998c0 28.5 10.200000000000045 52.700000000000045 30.700000000000045 72.60000000000002z"/>
</svg>
