<svg xmlns="http://www.w3.org/2000/svg" viewBox="0 0 1000 1000" width="1000" height="1000">
<path d="M935 185.9c-2.2999999999999545-13.700000000000017-7-27.400000000000006-14.100000000000023-41.599999999999994-22.199999999999932-44.60000000000001-66.69999999999993-75.50000000000001-116.60000000000002-80.9-11.399999999999977-1.2000000000000028-599.0999999999999-1.1000000000000085-610.1999999999999 0.19999999999999574-16.900000000000034 1.8999999999999986-36.00000000000003 7.999999999999993-52.80000000000001 16.699999999999996-39.400000000000006 20.60000000000001-68.70000000000002 61.10000000000001-76.4 105.60000000000001-1.7000000000000028 9.400000000000006-1.8000000000000043 22.19999999999999-1.8000000000000043 316.20000000000005v306.29999999999995l2.1999999999999957 9.5c13.5 60.89999999999998 56.5 103.89999999999998 117.39999999999999 117.39999999999998l9.5 2.2000000000000455h615.5999999999999l9.5-2.2000000000000455c60.90000000000009-13.5 103.90000000000009-56.5 117.40000000000009-117.39999999999998l2.199999999999932-9.5v-306.29999999999995c-0.1999999999999318-294-0.1999999999999318-306.8-1.8999999999999773-316.20000000000005z m-455.5 35.29999999999998c4.399999999999977-4 7.5-4.599999999999994 22.69999999999999-4.099999999999994 8 0.30000000000001137 19.599999999999966 1.200000000000017 26.000000000000057 2 32.19999999999993 4 58.19999999999993 11.800000000000011 86.69999999999993 25.700000000000017 28.100000000000023 13.800000000000011 46 26.80000000000001 69.80000000000007 50.39999999999998 22.299999999999955 22.400000000000034 34.59999999999991 39.30000000000001 47.69999999999993 65.60000000000002 18.200000000000045 36.69999999999999 28.600000000000023 80.30000000000001 30.399999999999977 128.2 0.7000000000000455 16.399999999999977 0.20000000000004547 20-3.599999999999909 24.700000000000045-7.100000000000023 9.099999999999909-22.700000000000045 7.599999999999909-28.100000000000023-2.6000000000000227-1.7000000000000455-3.400000000000034-2.2000000000000455-6.300000000000011-2.7000000000000455-19.400000000000034-0.8999999999999773-20.099999999999966-2.2999999999999545-33.099999999999966-5.100000000000023-48.599999999999966-11-60.900000000000034-40.19999999999993-109.5-86.79999999999995-144.40000000000003-38.799999999999955-29.19999999999999-78.89999999999998-43.39999999999998-131.5-46.5-17.80000000000001-1-20.899999999999977-1.6999999999999886-24.899999999999977-4.799999999999983-7.400000000000034-5.900000000000006-7.800000000000011-19.700000000000017-0.6000000000000227-26.200000000000017z m111.5 120.5c-18.799999999999955-11.199999999999989-46.60000000000002-19.5-71.89999999999998-21.599999999999966-9.200000000000045-0.7000000000000455-14.200000000000045-2.6000000000000227-17.700000000000045-6.600000000000023-5.2999999999999545-6.100000000000023-5.899999999999977-14.300000000000011-1.3999999999999773-21.100000000000023 4.899999999999977-7.599999999999966 12.299999999999955-8.799999999999955 34.700000000000045-5.399999999999977 56.799999999999955 8.300000000000011 100.69999999999993 34.69999999999999 129.5999999999999 77.5 16.200000000000045 24.100000000000023 26.300000000000068 52.5 29.700000000000045 82.89999999999998 1.2000000000000455 11.100000000000023 1.2000000000000455 31.400000000000034-0.10000000000002274 34.80000000000001-1.1999999999999318 3.1999999999999886-5.100000000000023 7.5-8.5 9.300000000000011-3.6000000000000227 1.8999999999999773-11.399999999999977 1.6999999999999886-15.699999999999932-0.6000000000000227-7.2000000000000455-3.599999999999966-9.400000000000091-9.399999999999977-9.400000000000091-25.19999999999999 0-24.19999999999999-6.2999999999999545-49.80000000000001-17.09999999999991-69.59999999999997-12.300000000000068-22.700000000000045-30.300000000000068-41.400000000000034-52.200000000000045-54.400000000000034z m31.600000000000023 124.69999999999999c-5.5 5.100000000000023-15.700000000000045 5.2000000000000455-21.899999999999977 0.5-4.5-3.3999999999999773-5.900000000000091-6.899999999999977-6.900000000000091-16.599999999999966-1.1999999999999318-12.800000000000011-3.5-21.80000000000001-7.2999999999999545-30.100000000000023-8.200000000000045-17.69999999999999-22.700000000000045-26.80000000000001-47.200000000000045-29.80000000000001-11.5-1.3999999999999773-15-2.6999999999999886-18.699999999999932-7.099999999999966-6.800000000000068-8.100000000000023-4.2000000000000455-21.30000000000001 5.199999999999932-26.19999999999999 3.6000000000000227-1.8000000000000114 5.100000000000023-2 12.900000000000091-1.5 4.899999999999977 0.2999999999999545 12.099999999999909 1.099999999999966 15.899999999999977 2 18.399999999999977 3.8999999999999773 32.60000000000002 10.899999999999977 44.60000000000002 22.299999999999955 15.5 14.700000000000045 24 32.5 27.799999999999955 58 2.6000000000000227 16.5 1.5 23.100000000000023-4.399999999999977 28.5z m139.79999999999995 245.70000000000005c-6.899999999999977 17.899999999999977-33.89999999999998 51.39999999999998-52.69999999999993 65.69999999999993-17 12.900000000000091-29.100000000000023 17.90000000000009-45 18.600000000000023-13.100000000000023 0.7000000000000455-18.5-0.5-35.30000000000007-7.399999999999977-131.29999999999995-54.200000000000045-236.2-135-319.4-246-43.5-58-76.6-118.10000000000002-99.19999999999999-180.5-13.200000000000017-36.39999999999998-13.800000000000011-52.19999999999999-3-70.80000000000001 4.699999999999989-7.899999999999977 24.599999999999994-27.30000000000001 39.099999999999994-38.19999999999999 24.099999999999994-18 35.29999999999998-24.599999999999994 44.20000000000002-26.5 6.099999999999966-1.3000000000000114 16.599999999999966-0.30000000000001137 23.399999999999977 2.1999999999999886 3.3000000000000114 1.1000000000000227 8.300000000000011 3.700000000000017 11.199999999999989 5.600000000000023 17.80000000000001 11.799999999999983 67.30000000000001 75.09999999999997 83.40000000000003 106.69999999999999 9.299999999999955 18.100000000000023 12.299999999999955 31.399999999999977 9.399999999999977 41.30000000000001-3 10.699999999999989-8 16.30000000000001-30.100000000000023 34.099999999999966-8.899999999999977 7.2000000000000455-17.19999999999999 14.600000000000023-18.5 16.600000000000023-3.3999999999999773 4.899999999999977-6.099999999999966 14.399999999999977-6.099999999999966 21.100000000000023 0.0999999999999659 15.599999999999966 10.199999999999989 44 23.5 65.79999999999995 10.300000000000011 16.899999999999977 28.69999999999999 38.60000000000002 47 55.30000000000007 21.399999999999977 19.59999999999991 40.30000000000001 33 61.599999999999966 43.59999999999991 27.399999999999977 13.700000000000045 44.200000000000045 17.100000000000023 56.39999999999998 11.400000000000091 3.1000000000000227-1.400000000000091 6.400000000000091-3.300000000000068 7.400000000000091-4.100000000000023 0.8999999999999773-0.8000000000000682 8.099999999999909-9.600000000000023 16-19.399999999999977 15.199999999999932-19.100000000000023 18.59999999999991-22.200000000000045 29-25.700000000000045 13.199999999999932-4.5 26.699999999999932-3.2999999999999545 40.19999999999993 3.6000000000000227 10.300000000000068 5.2999999999999545 32.700000000000045 19.299999999999955 47.200000000000045 29.399999999999977 19.100000000000023 13.399999999999977 59.89999999999998 46.700000000000045 65.39999999999998 53.299999999999955 9.799999999999955 12.100000000000023 11.399999999999977 27.40000000000009 4.899999999999977 44.30000000000007z"/>
</svg>
