<svg xmlns="http://www.w3.org/2000/svg" viewBox="0 0 1000 1000" width="1000" height="1000">
<path d="M158 715.1c8.300000000000011-25.300000000000068 16.30000000000001-50.89999999999998 25.30000000000001-76.20000000000005 3.5-9.899999999999977 1.799999999999983-14.299999999999955-7.300000000000011-21.100000000000023-56.900000000000006-41.59999999999991-97.8-94.89999999999998-109.7-165.99999999999994-15.399999999999999-92.69999999999999 16.299999999999997-169.5 85.8-230.20000000000002 132.9-116 346.20000000000005-110.1 473.19999999999993 12.300000000000011 33.90000000000009 32.70000000000002 57.30000000000007 72.49999999999997 69.20000000000005 118.70000000000002 2.8999999999999773 11.299999999999955 1.2000000000000455 14.399999999999977-11 14-85.60000000000002-3.2000000000000455-162.39999999999998 20.799999999999955-224.89999999999998 80.5-63.30000000000001 60.5-87.80000000000001 134.39999999999998-64.40000000000003 220.79999999999995 3.400000000000034 12.600000000000023-0.5999999999999659 14.600000000000023-11.300000000000011 14.300000000000068-33.599999999999966-1-67.09999999999997-3.300000000000068-99.29999999999995-13.900000000000091-13.700000000000045-4.5-25.100000000000023-3.199999999999932-37.80000000000001 4.2000000000000455-25.100000000000023 14.700000000000045-51.10000000000002 27.700000000000045-76.9 41.299999999999955-2.5999999999999943 1.3000000000000682-5.400000000000006 4.2000000000000455-10.900000000000006 1.3000000000000682z m157.39999999999998-399.6c0.5-23.80000000000001-19.19999999999999-44.19999999999999-43.39999999999998-44.69999999999999-23.599999999999994-0.5-44.099999999999994 19.599999999999966-44.69999999999999 43.69999999999999-0.6000000000000227 22.69999999999999 19.5 43.89999999999998 42.30000000000001 44.60000000000002 25.299999999999955 0.6999999999999886 45.19999999999999-18.100000000000023 45.799999999999955-43.60000000000002z m219.30000000000007 0.6999999999999886c0.7999999999999545-24.099999999999966-19.100000000000023-45.099999999999966-43.10000000000002-45.5-23.700000000000045-0.30000000000001137-43.5 18.5-44.5 42.400000000000034-1.1000000000000227 23.899999999999977 17.5 44.89999999999998 40.69999999999999 46 25.499999999999943 1.099999999999966 46.099999999999966-17.700000000000045 46.900000000000034-42.900000000000034z m149.5999999999999 65.80000000000001c74.20000000000005 2.1000000000000227 151.20000000000005 30.69999999999999 208.20000000000005 101.19999999999999 67.89999999999998 84.00000000000006 57.799999999999955 202.40000000000003-22.5 276.8-4.7000000000000455 4.399999999999977-9.299999999999955 8.799999999999955-14.299999999999955 12.899999999999977-20.800000000000068 16.899999999999977-20.90000000000009 16.899999999999977-12.700000000000045 42.89999999999998 3.3999999999999773 10.800000000000068 7.2000000000000455 21.5 10.5 32.30000000000007 1.2999999999999545 4.199999999999932 2.6000000000000227 9.100000000000023-1.2999999999999545 12.5-4.100000000000023 3.6000000000000227-7.2000000000000455-1.3000000000000682-10.300000000000068-2.8999999999999773-18.399999999999977-9.5-37-18.700000000000045-54.60000000000002-29.600000000000023-11.799999999999955-7.300000000000068-22.399999999999977-6.399999999999977-35.09999999999991-3.2000000000000455-96.40000000000009 24.600000000000023-186.20000000000005 11-266.20000000000005-50.19999999999993-112.69999999999999-86.10000000000002-112.60000000000002-243.5-0.6999999999999886-331.00000000000006 52.30000000000001-40.80000000000001 113.49999999999994-61.30000000000001 198.99999999999994-61.69999999999999z m-97.09999999999991 119.19999999999999c-18.600000000000023 0.19999999999998863-34.30000000000007 16.400000000000034-34.40000000000009 35.19999999999999 0 19.100000000000023 17 35.89999999999998 36 35.39999999999998 18.700000000000045-0.5 34.10000000000002-16.5 34.30000000000007-35.5 0.10000000000002274-19.399999999999977-16.300000000000068-35.39999999999998-35.89999999999998-35.099999999999966z m211.69999999999993 35.19999999999999c-0.10000000000002274-19.799999999999955-16.299999999999955-35.69999999999999-36-35.19999999999999-18.699999999999932 0.4000000000000341-34.10000000000002 16.80000000000001-33.799999999999955 35.80000000000001 0.2999999999999545 18.899999999999977 16.600000000000023 35 35.19999999999993 34.799999999999955 18.5-0.1999999999999318 34.700000000000045-16.799999999999955 34.60000000000002-35.39999999999998z"/>
</svg>
