<svg xmlns="http://www.w3.org/2000/svg" viewBox="0 0 1000 1000" width="1000" height="1000">
<path d="M879 280.5c-39.10000000000002-67.1-92.20000000000005-120.19999999999999-159.20000000000005-159.2-67.19999999999993-39.20000000000002-140.39999999999998-58.70000000000001-219.69999999999993-58.70000000000001s-152.5 19.499999999999993-219.60000000000002 58.6-120.19999999999999 92.2-159.2 159.2c-39.20000000000002 67.20000000000005-58.70000000000001 140.40000000000003-58.70000000000001 219.70000000000005s19.499999999999993 152.5 58.6 219.60000000000002 92.2 120.19999999999993 159.2 159.19999999999993c67.10000000000002 39.10000000000002 140.3 58.60000000000002 219.60000000000002 58.60000000000002s152.5-19.5 219.60000000000002-58.60000000000002 120.19999999999993-92.19999999999993 159.19999999999993-159.19999999999993c39.10000000000002-67.10000000000002 58.60000000000002-140.30000000000007 58.60000000000002-219.60000000000002s-19.299999999999955-152.5-58.39999999999998-219.60000000000002z m-378.9-145.3c87.5 0 165.10000000000002 28 232.79999999999995 84-40.19999999999993 51.30000000000001-100 93.60000000000002-179.39999999999998 126.90000000000003-43.80000000000001-79.30000000000001-91.30000000000001-145.50000000000003-142.60000000000002-198.60000000000002 29.700000000000045-8.199999999999989 59.400000000000034-12.300000000000011 89.20000000000005-12.300000000000011z m-283.90000000000003 137.40000000000003c33-41.400000000000034 72.5-73.80000000000001 118.60000000000002-97.10000000000002 53.099999999999966 52.5 101.80000000000001 118.10000000000002 146.09999999999997 196.89999999999998-87.5 26.200000000000045-180 39.400000000000034-277.4 39.400000000000034-25.099999999999994 0-44-0.6000000000000227-56.900000000000006-1.8000000000000114 13.400000000000006-50.19999999999999 36.599999999999994-96 69.6-137.39999999999998z m-81 227.5c0-2.3000000000000114 0.10000000000002274-5.2000000000000455 0.4000000000000057-8.800000000000011 0.30000000000001137-3.5 0.4000000000000057-6.400000000000034 0.4000000000000057-8.800000000000011 11.099999999999994 0.6000000000000227 28 0.8999999999999773 50.80000000000001 0.8999999999999773 116.69999999999999 0 225.2-16 325.49999999999994-48.099999999999966 8.200000000000045 16.30000000000001 16.600000000000023 34.69999999999999 25.40000000000009 55.099999999999966-57.80000000000007 12.800000000000011-117.00000000000006 44-177.60000000000002 93.60000000000002-60.700000000000045 49.60000000000002-105.00000000000003 101.79999999999995-133.00000000000003 156.60000000000002-61.19999999999999-69.39999999999998-91.9-149.5-91.9-240.5z m364.90000000000003 364.9c-82.80000000000001 0-157.20000000000005-25.700000000000045-223.10000000000002-77 26.19999999999999-51.89999999999998 66.60000000000002-101.5 121.19999999999999-148.79999999999995 54.5-47.200000000000045 108.60000000000002-76.70000000000005 162.3-88.40000000000009 33.799999999999955 93.30000000000007 56.60000000000002 189.9000000000001 68.20000000000005 289.6-42.60000000000002 16.399999999999977-85.40000000000009 24.600000000000023-128.60000000000002 24.600000000000023z m309.79999999999995-173.29999999999995c-29.199999999999932 46.69999999999993-66.79999999999995 84.89999999999998-112.89999999999998 114.59999999999991-10.5-91-30.600000000000023-179.69999999999993-60.39999999999998-266 40.799999999999955-2.8999999999999773 77.29999999999995-4.399999999999977 109.39999999999998-4.399999999999977 35 0 73.79999999999995 1.5 116.39999999999998 4.399999999999977-5.899999999999977 54.30000000000007-23.399999999999977 104.80000000000007-52.5 151.4000000000001z m-54.299999999999955-218.70000000000005c-50.80000000000007 0-97.70000000000005 2-140.89999999999998 6.100000000000023-11.100000000000023-28.600000000000023-21-52.200000000000045-29.800000000000068-70.90000000000003 90.39999999999998-39.69999999999999 154.60000000000002-87.80000000000001 192.5-144.39999999999998 52.5 61.80000000000001 81.10000000000002 132.39999999999998 85.80000000000007 211.8-35.60000000000002-1.7000000000000455-71.40000000000009-2.6000000000000227-107.60000000000002-2.6000000000000227z"/>
</svg>
