<svg xmlns="http://www.w3.org/2000/svg" viewBox="0 0 1000 1000" width="1000" height="1000">
<path d="M293.8 689.6c-34.5 0-62.400000000000006 27.899999999999977-62.400000000000006 62.39999999999998 0 34.39999999999998 27.900000000000006 62.299999999999955 62.400000000000006 62.299999999999955 34.39999999999998 0 62.30000000000001-27.899999999999977 62.30000000000001-62.299999999999955 0-34.5-28-62.39999999999998-62.30000000000001-62.39999999999998z m283.99999999999994 0c-34.5 0-62.39999999999998 27.899999999999977-62.39999999999998 62.39999999999998 0 34.39999999999998 27.899999999999977 62.299999999999955 62.39999999999998 62.299999999999955 34.40000000000009 0 62.30000000000007-27.899999999999977 62.30000000000007-62.299999999999955 0-34.5-27.899999999999977-62.39999999999998-62.30000000000007-62.39999999999998z m359.5-316.3c0-25.400000000000034-47.89999999999998-36.69999999999999-47.89999999999998-36.69999999999999-41.5-11.600000000000023-117.89999999999998-14-117.89999999999998-14-31.299999999999955-2-152.29999999999995-1.8000000000000114-152.29999999999995-1.8000000000000114-23.40000000000009 1.3999999999999773-164.60000000000002-3.400000000000034-164.60000000000002-3.400000000000034-80.10000000000002-2-152.10000000000002-13.099999999999966-152.10000000000002-13.099999999999966-90.30000000000001-13.900000000000034-128.7-35.60000000000002-128.7-35.60000000000002-42.70000000000002-18.799999999999983-81.20000000000002-53.599999999999994-81.20000000000002-53.599999999999994-1.3999999999999915-0.799999999999983-30.199999999999996-29.299999999999983-30.199999999999996-29.299999999999983 10.199999999999996 16.799999999999983 27.9 46.5 27.9 46.5 12.799999999999997 20.5 33.3 43.19999999999999 33.3 43.19999999999999 46.599999999999994 47.60000000000002 121.30000000000001 71.19999999999999 121.30000000000001 71.19999999999999 64.1 23.100000000000023 169.99999999999997 31.100000000000023 169.99999999999997 31.100000000000023 38.80000000000001 6.300000000000011 191.5 4.5 191.5 4.5 4.7000000000000455-0.6000000000000227 55.30000000000007 0.8999999999999773 55.30000000000007 0.8999999999999773 58.5 0.9000000000000341 105.29999999999995 10.699999999999989 105.29999999999995 10.699999999999989 57.200000000000045 11.300000000000011 58.10000000000002 37.400000000000034 58.10000000000002 37.400000000000034 3.199999999999932 32.89999999999998-44.89999999999998 77.5-44.89999999999998 77.5-10.700000000000045 11.300000000000011-60.5 63.599999999999966-60.5 63.599999999999966-3.900000000000091 4-21.800000000000068 25-21.800000000000068 25-18.699999999999932 22.800000000000068-30.100000000000023 42.700000000000045-30.100000000000023 42.80000000000007 6.400000000000091-6.600000000000023 84.30000000000007-73 84.30000000000007-73 3.3999999999999773-3.2000000000000455 65.5-56.10000000000002 65.5-56.10000000000002 21.600000000000023-17.700000000000045 70.60000000000002-63.80000000000001 70.60000000000002-63.80000000000001 54.59999999999991-46.69999999999999 49.09999999999991-74 49.09999999999991-74z"/>
</svg>
