<svg xmlns="http://www.w3.org/2000/svg" viewBox="0 0 1000 1000" width="1000" height="1000">
<path d="M936.7 358c-10-129.1-117.20000000000005-226.8-259.30000000000007-207.9-18.899999999999977 2.5-37.69999999999993 2.200000000000017-41.60000000000002 24.400000000000006-8.599999999999909 50.5 47 34.19999999999999 70.90000000000009 34.19999999999999 84.5 0 170.69999999999993 70.19999999999999 168.79999999999995 171.2-0.7000000000000455 34.80000000000001-28.100000000000023 92.70000000000005 24.399999999999977 88 32.30000000000007-2.6999999999999886 40.5-61.099999999999966 36.80000000000007-109.89999999999998z m-232.4000000000001 117.39999999999998c13.400000000000091-34.799999999999955 21.700000000000045-80 0-105.19999999999999-49.19999999999993-57.19999999999999-160.29999999999995 1.400000000000034-212.79999999999995 4.900000000000034 24.399999999999977-74.40000000000003-2.3999999999999773-149.90000000000003-92.89999999999998-127.20000000000002-83.5 20.99999999999997-144.8 66.49999999999997-203.00000000000003 124.70000000000002-61 61-123.1 132.59999999999997-132.1 225-10.299999999999997 107.5 57.099999999999994 161.39999999999998 122.30000000000001 198.19999999999993 194.39999999999998 109.80000000000007 505.8 49.10000000000002 609-95.39999999999998 14.5-20.299999999999955 28.90000000000009-52 31.800000000000068-75.79999999999995 12.199999999999932-99.10000000000002-61.200000000000045-115.80000000000001-122.30000000000007-149.20000000000005z m-66 234.80000000000007c-53.5 60.799999999999955-166.19999999999993 100.5-278.79999999999995 92.89999999999998-97.5-6.5-230.2-63.89999999999998-205.4-185.89999999999998 10.900000000000006-54.200000000000045 55.099999999999994-90.20000000000005 92.9-112.40000000000003 46.30000000000001-27.19999999999999 90.60000000000002-41.10000000000002 156.5-46.5 120.5-9.900000000000034 273.6 35 273.9 156.49999999999994 0.10000000000002274 39.40000000000009-19.5 73.20000000000005-39.10000000000002 95.40000000000009z m151.60000000000002-281.20000000000005c21.399999999999977-1.3999999999999773 32-33.69999999999999 26.899999999999977-70.89999999999998-7.199999999999932-52.5-53-95.20000000000005-114.89999999999998-90.5-14.100000000000023 1.099999999999966-39.10000000000002-1.900000000000034-39.10000000000002 26.899999999999977 0 38.80000000000001 43.10000000000002 16.30000000000001 70.90000000000009 29.30000000000001 14.199999999999932 6.699999999999989 30.399999999999977 29.30000000000001 31.799999999999955 48.89999999999998 2.1000000000000227 31.900000000000034-11.200000000000045 58.60000000000002 24.399999999999977 56.30000000000001z m-398.59999999999997 97.79999999999995c-83.10000000000002 8.700000000000045-162.8 80.70000000000005-129.60000000000002 171.20000000000005 49.60000000000002 135.29999999999995 321.09999999999997 62.10000000000002 269.00000000000006-95.39999999999998-15.600000000000023-47.10000000000002-68.50000000000006-83.20000000000005-139.40000000000003-75.80000000000007z m-29.400000000000034 185.9000000000001c-63.799999999999955 15.199999999999932-75-67.20000000000005-17.099999999999966-80.70000000000005 68.89999999999998-16.200000000000045 62.80000000000001 69.79999999999995 17.099999999999966 80.70000000000005z m44.10000000000002-83.20000000000005c-0.19999999999998863-24.700000000000045 31.600000000000023-27.299999999999955 34.19999999999999-9.799999999999955 2.1999999999999886 15.199999999999932-23.19999999999999 28.899999999999977-34.19999999999999 9.799999999999955z"/>
</svg>
