<svg xmlns="http://www.w3.org/2000/svg" viewBox="0 0 1000 1000" width="1000" height="1000">
<path d="M303.5 251.2l-141.8-0.19999999999998863 177.60000000000002-178.7v144.2l-35.80000000000001 34.69999999999999z m502.29999999999995-71.1c-15-26-94.09999999999991-56-135.0999999999999-56h-105.90000000000009s-33.89999999999998-61.49999999999999-113.79999999999995-61.49999999999999-74.5 35.6-74.5 66v122.9l-36.19999999999999 38.19999999999999h-167.20000000000002s-47.099999999999994 31.100000000000023-47.099999999999994 98.5 21 302.09999999999997 161.3 323.8c166 25.700000000000045 194.5-51.39999999999998 194.5-60.700000000000045 0-39.09999999999991 1-98.19999999999993 1-98.19999999999993s48.599999999999966 92.89999999999998 121.99999999999994 92.89999999999998 116.10000000000002 42.200000000000045 116.10000000000002 85.60000000000002v80.39999999999998s-2.699999999999932 50.299999999999955-45.89999999999998 50.299999999999955h-92.10000000000002s-30.299999999999955-23.5-30.299999999999955-56.09999999999991c0-32.5 14.799999999999955-41.40000000000009 32-41.40000000000009l31.399999999999977 2v-68.5s-139-0.8999999999999773-139 105.60000000000002 72.70000000000005 133.70000000000005 131 133.70000000000005h95s171.39999999999998-22 171.39999999999998-360.80000000000007c0.10000000000002274-338.99999999999994-53.5-370.49999999999994-68.60000000000002-396.69999999999993z m-170.5 303.70000000000005s8.300000000000068-55.90000000000009 40.80000000000007-55.90000000000009c32.39999999999998 0 76.89999999999998 74.60000000000002 76.89999999999998 74.60000000000002s-101.60000000000002-18.69999999999999-117.70000000000005-18.69999999999999z"/>
</svg>
