<svg xmlns="http://www.w3.org/2000/svg" viewBox="0 0 1000 1000" width="1000" height="1000">
<path d="M320.8 691.4h572.2c-67 138.60000000000002-202 232-353.1 246.10000000000002h-80.19999999999999c-47.89999999999998-4.5-94.39999999999998-16.899999999999977-138.89999999999998-36.89999999999998v-209.20000000000005z m359.59999999999997-589.6c-57.10000000000002-25.999999999999957-117.79999999999995-39.299999999999955-180.39999999999998-39.299999999999955-52.10000000000002 0-103.39999999999998 10.099999999999994-152.8 28.599999999999994 11.600000000000023 10.5 318.3 289.4 333.2 303v-292.3z m-379.7 9.30000000000004c-147 75.6-238.2 224.50000000000003-238.2 389.79999999999995 0 37.60000000000002 5.700000000000003 75.89999999999998 15.900000000000006 113.89999999999998 11.899999999999991-10.799999999999955 380.20000000000005-346.09999999999997 387.79999999999995-353.09999999999997-7.39999999999992-6.699999999999989-160.5999999999999-146.1-165.49999999999994-150.6z m-25.899999999999977 764.1999999999999v-376.99999999999994c-14.600000000000023 13.399999999999977-175.70000000000002 160.2-180.8 164.7 35.099999999999994 88.10000000000002 99.1 162.89999999999998 180.8 212.29999999999995z m451.7-748.4v518.3000000000001h186.20000000000005c16.299999999999955-46.700000000000045 24.799999999999955-95.20000000000005 24.799999999999955-144.30000000000007 0-152.29999999999995-80.79999999999995-294.59999999999997-211-374z"/>
</svg>
