<svg xmlns="http://www.w3.org/2000/svg" viewBox="0 0 1000 1000" width="1000" height="1000">
<path d="M937.5 411.2c0-192.6-195.89999999999998-348.7-437.4-348.7-241.70000000000005 0-437.6 156.1-437.6 348.7 0 167.3 147.9 307.09999999999997 345.3 340.90000000000003-4.600000000000023 55.799999999999955-16.100000000000023 119.39999999999998-40.5 185.39999999999998 96.59999999999997-25.700000000000045 180.99999999999994-112 239.40000000000003-188 190.0999999999999-38 330.79999999999995-175 330.79999999999995-338.3z m-249.79999999999995 214.8c-5.800000000000068 1.1000000000000227-11.700000000000045 2-17.700000000000045 2.6000000000000227-6.2999999999999545 0.6000000000000227-12.700000000000045 1-19.100000000000023 1-5.600000000000023 0-11.100000000000023-0.39999999999997726-16.600000000000023-0.8999999999999773 68.60000000000002-49.40000000000009 113.20000000000005-128.30000000000007 113.20000000000005-217.60000000000002 0-98-53.799999999999955-183.60000000000002-134.10000000000002-231.20000000000002 12.200000000000045-2.4000000000000057 24.600000000000023-3.8000000000000114 37.5-3.8000000000000114 116.20000000000005 0 210.30000000000007 101.50000000000003 210.30000000000007 226.79999999999998-0.10000000000002274 111.70000000000005-75 204.30000000000007-173.5 223.10000000000002z"/>
</svg>
