<svg xmlns="http://www.w3.org/2000/svg" viewBox="0 0 1000 1000" width="1000" height="1000">
<path d="M601.7 624.2c90.69999999999993 44.09999999999991 186 125.09999999999991 224.79999999999995 218.79999999999995-49.799999999999955 40.299999999999955-56.299999999999955 45.39999999999998-114.70000000000005 94.60000000000002-56.39999999999998-108.39999999999998-124.59999999999991-168.30000000000007-217.89999999999998-192.10000000000002-54.799999999999955 70.60000000000002-143.89999999999998 153-283.29999999999995 191.10000000000002-31.100000000000023-65.80000000000007-39.50000000000003-84.39999999999998-60.60000000000002-134 111.5-25.800000000000068 152.2-61.10000000000002 206.8-165.60000000000002-3.900000000000034-127 28.69999999999999-251.7 110.09999999999997-301.6 42.400000000000034 13.900000000000034 112.30000000000007 55.700000000000045 132.20000000000005 62-2.800000000000068 12.900000000000034 6.5 27.5 40.60000000000002 35 25.899999999999977 5.7000000000000455 86.89999999999998 14.600000000000023 145.79999999999995-38.799999999999955 36.10000000000002 55.5 64.60000000000002 109.09999999999997 64.60000000000002 109.09999999999997s-112.60000000000002 111.80000000000001-246 76.69999999999999c-0.8999999999999773 17.100000000000023-1.5 22.600000000000023-2.3999999999999773 44.80000000000007z m15.799999999999955-312.80000000000007c-68.20000000000005 0-125-55.69999999999999-125-124.39999999999998-0.10000000000002274-68.8 56.89999999999998-124.5 125-124.5s125.89999999999998 55.7 125.89999999999998 124.4c0 68.79999999999998-57.799999999999955 124.49999999999997-125.89999999999998 124.49999999999997z"/>
</svg>
