<svg xmlns="http://www.w3.org/2000/svg" viewBox="0 0 1000 1000" width="1000" height="1000">
<path d="M676.9 587.2c168.60000000000002-108.50000000000006 42.10000000000002-194.50000000000006 42.10000000000002-194.50000000000006-171.79999999999995-92.39999999999998-369.6 21.100000000000023-369.6 21.100000000000023-212.39999999999998 113.49999999999994-77.79999999999995 348.49999999999994-77.79999999999995 348.49999999999994 84.29999999999995 186.4000000000001 269.1 175.10000000000002 269.1 175.10000000000002 103.79999999999995 3.2000000000000455 196.19999999999993-100.5 196.19999999999993-100.5 74.5-107-29.100000000000023-134.5-29.100000000000023-134.5-105.29999999999995-12.899999999999977-108.59999999999991 64.80000000000007-108.59999999999991 64.80000000000007 0 84.29999999999995-59.90000000000009 73-59.90000000000009 73-137.79999999999995-32.5-46.99999999999994-123.20000000000005-46.99999999999994-123.20000000000005l184.59999999999997-129.79999999999995z m137.10000000000002-516.8000000000001c-39.89999999999998-24.09999999999998-103.89999999999998 9.000000000000028-142.89999999999998 73.80000000000001-39 64.70000000000002-38.39999999999998 136.8 1.5 160.8s103.89999999999998-9 142.89999999999998-73.80000000000001c39.10000000000002-64.79999999999998 38.39999999999998-136.79999999999998-1.5-160.79999999999998z m-253.89999999999998 105.10000000000002c0 56.400000000000006-26.200000000000045 102.10000000000002-58.400000000000034 102.10000000000002s-58.39999999999998-45.80000000000001-58.39999999999998-102.10000000000002c0-56.400000000000006 26.19999999999999-102.1 58.39999999999998-102.1s58.400000000000034 45.69999999999999 58.400000000000034 102.1z m-203 148.89999999999998c28.899999999999977-6.099999999999966 44.5-47.89999999999998 34.89999999999998-93.49999999999997-9.600000000000023-45.599999999999994-40.89999999999998-77.5-69.80000000000001-71.4-28.899999999999977 6.099999999999994-44.5 48-34.80000000000001 93.5 9.600000000000023 45.60000000000002 40.900000000000034 77.5 69.70000000000005 71.39999999999998z m-109.40000000000003 1c-17.799999999999983-36.69999999999999-50.099999999999994-57.69999999999999-72.29999999999998-46.89999999999998-22.099999999999994 10.800000000000011-25.700000000000017 49.19999999999999-7.900000000000006 85.80000000000001 17.80000000000001 36.69999999999999 50.099999999999994 57.69999999999999 72.30000000000001 46.89999999999998s25.69999999999999-49.099999999999966 7.899999999999977-85.80000000000001z"/>
</svg>
