<svg xmlns="http://www.w3.org/2000/svg" viewBox="0 0 1000 1000" width="1000" height="1000">
<path d="M852.1 62.5h-704.2c-47.199999999999974 0-85.39999999999998 38.2-85.39999999999998 85.4v704.1c0 47.200000000000045 38.2 85.39999999999998 85.4 85.39999999999998h704.1c47.200000000000045 0 85.39999999999998-38.19999999999993 85.39999999999998-85.39999999999998v-704.1c0.10000000000002274-47.199999999999974-38.10000000000002-85.39999999999998-85.29999999999995-85.39999999999998z m-409 674.3c0 22.700000000000045-18.400000000000034 41-41 41h-184.8c-22.700000000000017 0-41-18.399999999999977-41-41v-519.5c0-22.69999999999996 18.399999999999977-40.99999999999994 41-40.99999999999994h184.8c22.69999999999999 0 41 18.399999999999977 41 41v519.5z m380.6-218.79999999999995c0 22.700000000000045-18.40000000000009 41-41 41h-184.80000000000007c-22.699999999999932 0-41-18.399999999999977-41-41v-300.7c0-22.700000000000017 18.399999999999977-41 41-41h184.80000000000007c22.699999999999932 0 41 18.399999999999977 41 41v300.7z"/>
</svg>
