<svg xmlns="http://www.w3.org/2000/svg" viewBox="0 0 1000 1000" width="1000" height="1000">
<path d="M555.5 384.4c0-16.69999999999999-10.5-53.39999999999998-62.39999999999998-53.39999999999998h-78.80000000000001v109.19999999999999h77.80000000000001c57.60000000000002 0 63.39999999999998-37.69999999999999 63.39999999999998-55.80000000000001z m-52.30000000000001 153.60000000000002h-88.80000000000001v140.20000000000005h89.10000000000002c74.20000000000005 0 78.5-52.200000000000045 78.5-70.5 0-17-6.399999999999977-69.70000000000005-78.80000000000001-69.70000000000005z m316.8-475.5h-640c-64.9 0-117.5 52.599999999999994-117.5 117.5v640c0 64.89999999999998 52.599999999999994 117.5 117.5 117.5h640c64.89999999999998 0 117.5-52.60000000000002 117.5-117.5v-640c0-64.9-52.60000000000002-117.5-117.5-117.5z m-285 711.5h-262.1v-548h255.5c144.60000000000002 0 175.89999999999998 102.80000000000001 175.89999999999998 143.39999999999998 0 82.10000000000002-46.5 103.10000000000002-69.79999999999995 112.5 35.299999999999955 10 92.60000000000002 40.10000000000002 92.60000000000002 144.5 0 29.899999999999977-3.800000000000068 147.60000000000002-192.10000000000002 147.60000000000002z"/>
</svg>
