<svg xmlns="http://www.w3.org/2000/svg" viewBox="0 0 1000 1000" width="1000" height="1000">
<path d="M62.5 325.8l35.5 46.599999999999966s73.30000000000001-57.69999999999999 97.69999999999999-28.899999999999977c24.400000000000006 28.899999999999977 117.69999999999999 377.6 148.8 442 27.100000000000023 56.5 102.10000000000002 131.10000000000002 184.29999999999995 77.79999999999995 82.20000000000005-53.299999999999955 355.30000000000007-286.5 404.20000000000005-562 49-275.4-328.6-217.69999999999996-368.6 22.200000000000045 100-60 153.30000000000007 24.399999999999977 102.20000000000005 120-51.10000000000002 95.39999999999998-97.70000000000005 157.70000000000005-122.10000000000002 157.70000000000005-24.399999999999977 0-43.10000000000002-63.90000000000009-71.10000000000002-175.60000000000002-28.899999999999977-115.40000000000003-28.69999999999999-323.40000000000003-148.79999999999995-299.8-113.30000000000001 22.299999999999983-262.1 200-262.1 200z"/>
</svg>
