<svg xmlns="http://www.w3.org/2000/svg" viewBox="0 0 1000 1000" width="1000" height="1000">
<path d="M829.1 914.5c-1.1000000000000227 0-2-0.20000000000004547-3-0.6000000000000227l-295.70000000000005-123.60000000000002c-2.3999999999999773-1-4.100000000000023-3.199999999999932-4.600000000000023-5.699999999999932-0.39999999999997726-2.5 0.40000000000009095-5.2000000000000455 2.2000000000000455-6.899999999999977 34-33.10000000000002 52.700000000000045-77.30000000000007 52.700000000000045-124.60000000000002 0-20-3.400000000000091-39.700000000000045-10.200000000000045-58.5-0.2999999999999545-0.8000000000000682-0.39999999999997726-1.7000000000000455-0.39999999999997726-2.3999999999999773l-215.90000000000003-289.90000000000003c-43.39999999999998 37.5-84.39999999999998 93.59999999999997-79.80000000000001 148.3 0.4000000000000341 4.199999999999989-2.7999999999999545 8-7 8.299999999999955-4.099999999999966 0.4000000000000341-8-2.7999999999999545-8.299999999999955-7-5.500000000000028-65.29999999999995 46.099999999999966-130.89999999999998 96.29999999999995-170.5 60.5-47.79999999999998 126.10000000000002-68.29999999999998 171.20000000000005-53.39999999999998 4 1.3000000000000114 6.199999999999932 5.699999999999989 4.899999999999977 9.699999999999989s-5.600000000000023 6.200000000000017-9.700000000000045 4.900000000000006c-39.39999999999998-13-100.39999999999998 6.599999999999994-155.69999999999993 50.00000000000003l220.5 295.9c57 34.89999999999998 133.39999999999998 33.200000000000045 188.69999999999993-4.7999999999999545 2.2000000000000455-1.5 5-1.8000000000000682 7.400000000000091-0.7000000000000455 2.5 1 4.099999999999909 3.2000000000000455 4.5 5.899999999999977l49.39999999999998 316.80000000000007c0.39999999999997726 2.699999999999932-0.6000000000000227 5.5-2.800000000000068 7.2999999999999545-1.2999999999999545 0.8999999999999773-2.8999999999999773 1.5-4.699999999999932 1.5z m-282.4-134l272.69999999999993 113.79999999999995-45.5-291.5c-55 32.700000000000045-126.5 34.80000000000007-183.10000000000002 5.7000000000000455 3.5 14.5 5.300000000000068 29.600000000000023 5.300000000000068 44.700000000000045 0 47.59999999999991-17.399999999999977 92.39999999999998-49.39999999999998 127.29999999999995z m-338.80000000000007-404.9c-3.8999999999999773 0-7.399999999999977-3.1000000000000227-7.599999999999966-7-5.5-65.30000000000001 46.099999999999994-130.90000000000003 96.30000000000001-170.50000000000003 60.5-47.79999999999998 126.09999999999997-68.29999999999998 171.2-53.400000000000006 4 1.3000000000000114 6.199999999999989 5.700000000000017 4.899999999999977 9.700000000000017-1.3000000000000114 4-5.599999999999966 6.299999999999983-9.699999999999989 4.900000000000006-39.69999999999999-13-101.19999999999999 6.899999999999977-156.8 50.79999999999998-47.099999999999966 37.20000000000002-95.6 98.00000000000003-90.6 157.20000000000002 0.30000000000001137 4.300000000000011-2.799999999999983 8-7 8.300000000000011h-0.6999999999999886z m520 488.79999999999995c11.200000000000045-38.5 43.10000000000002-68.10000000000002 82.80000000000007-76l18.5 118.30000000000007-101.30000000000007-42.30000000000007z m-345.09999999999997-771.1999999999999c-100.30000000000001-4.263256414560601e-14-256 141.79999999999995-199.8 241.39999999999998l331.4 440.6 314.70000000000005 131.39999999999998-53.700000000000045-344.4-331.4-438.50000000000006c-13.899999999999977-21.299999999999983-35.80000000000001-30.499999999999986-61.19999999999999-30.499999999999986z m0-30.700000000000045c36.89999999999998 0 67.5 15.400000000000006 86.39999999999998 43.3l330.8 437.99999999999994c3.1000000000000227 4 5.100000000000023 8.800000000000068 5.899999999999977 13.800000000000068l53.700000000000045 344.4c1.7999999999999545 11-2.6000000000000227 22-11.399999999999977 29-5.5 4.2999999999999545-12.200000000000045 6.600000000000023-19 6.600000000000023-4 0-8-0.8000000000000682-11.900000000000091-2.3999999999999773l-314.69999999999993-131.60000000000002c-5.100000000000023-2.1000000000000227-9.5-5.5-12.800000000000011-9.899999999999977l-331.4-440.50000000000006c-0.8000000000000398-1.099999999999966-1.6000000000000227-2.1999999999999886-2.2000000000000455-3.3999999999999773-24.099999999999994-42.60000000000002-20.69999999999999-94.60000000000002 9.600000000000023-146.4 45.5-77.60000000000001 142.8-140.9 217-140.9z"/>
</svg>
