<svg xmlns="http://www.w3.org/2000/svg" viewBox="0 0 1000 1000" width="1000" height="1000">
<path d="M787.6 280.3c-3.1000000000000227-11.600000000000023-9.399999999999977-24.19999999999999-14.100000000000023-35-56-134.60000000000002-178.29999999999995-182.8-277.1-182.8-132.29999999999995 0-277.9 88.6-297.29999999999995 271.4v37.400000000000034c-2.842170943040401e-14 1.599999999999966 0.4999999999999716 15.599999999999966 1.299999999999983 22.599999999999966 10.900000000000006 87.10000000000002 79.6 179.60000000000002 130.99999999999997 266.80000000000007 55.200000000000045 93.39999999999998 112.5 185.0999999999999 169.3 276.9 35.00000000000006-59.89999999999998 69.90000000000003-120.60000000000002 104.09999999999997-178.89999999999998 9.400000000000091-17.100000000000023 20.100000000000023-34.200000000000045 29.5-50.60000000000002 6.2000000000000455-10.899999999999977 18.100000000000023-21.800000000000068 23.5-31.899999999999977 55.200000000000045-101.10000000000002 144.10000000000002-203.00000000000006 144.10000000000002-303.30000000000007v-41.299999999999955c0-10.900000000000034-13.5-49-14.299999999999955-51.30000000000001z m-288.8 187.39999999999998c-38.900000000000034 0-81.40000000000003-19.399999999999977-102.40000000000003-73.09999999999997-3.1999999999999886-8.600000000000023-2.8999999999999773-25.700000000000045-2.8999999999999773-27.200000000000045v-24.099999999999966c0-68.40000000000003 58.10000000000002-99.60000000000002 108.69999999999999-99.60000000000002 62.19999999999999 0 110.30000000000001 49.80000000000001 110.30000000000001 112s-51.5 112-113.69999999999999 112z"/>
</svg>
