<svg xmlns="http://www.w3.org/2000/svg" viewBox="0 0 1000 1000" width="1000" height="1000">
<path d="M697 937.5h120c16-102.39999999999998 29.700000000000045-193.70000000000005 44.299999999999955-285 14.800000000000068-93.79999999999995 39.700000000000045-185.89999999999998 47.5-282.9 15.200000000000045-192.70000000000002-100.19999999999993-293.40000000000003-280.79999999999995-305.3-197.5-13.400000000000013-331.5 51.29999999999998-419.6 140-67.09999999999997 67.19999999999999-112.49999999999997 150-118.29999999999998 259.59999999999997-9.099999999999994 175.10000000000002 123.20000000000002 309.5 351.6 290.5 25.799999999999955-2.3999999999999773 52.49999999999994-9.600000000000023 76.69999999999993-20.5 35.89999999999998-15.699999999999932 60.200000000000045-43.60000000000002 88.89999999999998-61.19999999999993-21.59999999999991 102-60.59999999999991 263.29999999999995 89.70000000000005 264.79999999999995z m-122.29999999999995-389.6c-35.90000000000009 25.600000000000023-118.40000000000003 40.200000000000045-171.40000000000003 7.800000000000068-93.80000000000001-57.700000000000045-36.10000000000002-239.10000000000002 32.39999999999998-290.40000000000003 19.100000000000023-14.300000000000011 43-24.600000000000023 77.00000000000006-28.200000000000017 27.5-2.6999999999999886 75.19999999999993 3 97.59999999999991 18.099999999999994 80.30000000000007 54.400000000000034 40.40000000000009 238.8-35.59999999999991 292.7z"/>
</svg>
