<svg xmlns="http://www.w3.org/2000/svg" viewBox="0 0 1000 1000" width="1000" height="1000">
<path d="M688.1 532.7c2.2999999999999545 5.7999999999999545 3.2999999999999545 11.699999999999932 3.2999999999999545 17.699999999999932 0 11.899999999999977-4.100000000000023 23.5-11 33-6.7999999999999545 9.300000000000068-16.5 16.600000000000023-27.899999999999977 19.800000000000068l-0.20000000000004547 0.09999999999990905h-0.1999999999999318c-5.300000000000068 1.8000000000000682-10.800000000000068 2.7000000000000455-16.200000000000045 2.7000000000000455-12.699999999999932 0-25.199999999999932-4.600000000000023-35.19999999999993-12.399999999999977-9.900000000000091-7.800000000000068-17.40000000000009-19-19.800000000000068-32.200000000000045v-0.1999999999999318c-0.6999999999999318-3.400000000000091-1.1000000000000227-6.800000000000068-1.1000000000000227-10.200000000000045 0-11.5 3.900000000000091-22.5 10.400000000000091-31.600000000000023 6.399999999999977-9.099999999999966 15.5-16.299999999999955 26.09999999999991-20h0.20000000000004547c6-2.1999999999999886 12.399999999999977-3.2999999999999545 18.600000000000023-3.2999999999999545 11.399999999999977 0 22.699999999999932 3.5 32.19999999999993 9.799999999999955 9.400000000000091 6.2000000000000455 17 15.399999999999977 20.800000000000068 26.700000000000045l0.10000000000002274 0.1999999999999318c-0.10000000000002274-0.1999999999999318-0.10000000000002274-0.09999999999990905-0.10000000000002274-0.09999999999990905z m-35 141c-4.5-2.900000000000091-9.700000000000045-4.7000000000000455-15.200000000000045-4.7000000000000455-4.399999999999977 0-9 1.2999999999999545-13.100000000000023 4-38.69999999999993 23.100000000000023-84.09999999999991 35.700000000000045-129.29999999999995 35.700000000000045-33.89999999999998 0-67.5-7.100000000000023-98-22.100000000000023l-0.19999999999998863-0.10000000000002274-0.19999999999998863-0.10000000000002274c-4.600000000000023-1.8999999999999773-9.800000000000011-5.899999999999977-15.600000000000023-9.699999999999932-2.8999999999999773-1.900000000000091-5.899999999999977-3.800000000000068-9.300000000000011-5.100000000000023-3.3000000000000114-1.3999999999999773-7-2.3999999999999773-11-2.3999999999999773-3.3000000000000114 0-6.699999999999989 0.6999999999999318-10.099999999999966 2.2999999999999545l-0.5 0.20000000000004547c-5.300000000000011 2-9.5 5.699999999999932-12.200000000000045 10.099999999999909-2.7999999999999545 4.5-4.199999999999989 9.800000000000068-4.199999999999989 15.100000000000023 0 4.7000000000000455 1.1000000000000227 9.5 3.400000000000034 13.800000000000068 2.1999999999999886 4.099999999999909 5.599999999999966 7.699999999999932 10 10 43.599999999999966 29.399999999999977 94.89999999999998 42.69999999999993 146.5 42.69999999999993 46.5 0 93.19999999999993-10.799999999999955 134.79999999999995-30.299999999999955l0.20000000000004547-0.10000000000002274 0.1999999999999318-0.10000000000002274c5.5-3.199999999999932 12.800000000000068-6.199999999999932 19.700000000000045-10.399999999999977 3.3999999999999773-2.2000000000000455 6.7000000000000455-4.7000000000000455 9.600000000000023-7.899999999999977 2.7999999999999545-3.2000000000000455 5.100000000000023-7.2000000000000455 6.399999999999977-12 0.5-2.1000000000000227 0.7999999999999545-4.100000000000023 0.7999999999999545-6.100000000000023 0-3.8999999999999773-0.8999999999999773-7.5-2.5-10.799999999999955-2-5.100000000000023-5.7999999999999545-9.100000000000023-10.199999999999932-12z m-306.1-70.70000000000005c0.10000000000002274 0 0.19999999999998863 0 0.30000000000001137 0.10000000000002274 5.599999999999966 2 11.300000000000011 3 17 3 14.199999999999989 0 27.899999999999977-5.800000000000068 38.39999999999998-15.300000000000068 10.400000000000034-9.5 17.5-22.899999999999977 17.5-38.19999999999993v-1.3000000000000682c0-0.6999999999999318 0.10000000000002274-1.3999999999999773 0.10000000000002274-2.199999999999932 0-15.200000000000045-7-28.600000000000023-17.30000000000001-38.200000000000045-10.300000000000011-9.5-24.100000000000023-15.399999999999977-38.30000000000001-15.399999999999977-3.8000000000000114 0-7.699999999999989 0.39999999999997726-11.5 1.3000000000000114h-0.30000000000001137c-18.799999999999955 3.8999999999999773-35.299999999999955 17.900000000000034-41.39999999999998 37.099999999999966v0.10000000000002274c-1.6999999999999886 5.2999999999999545-2.6000000000000227 10.700000000000045-2.6000000000000227 16.100000000000023 0 11.799999999999955 3.900000000000034 23.199999999999932 10.600000000000023 32.69999999999993 6.600000000000023 9.300000000000068 16.100000000000023 16.600000000000023 27.399999999999977 20l0.10000000000002274 0.20000000000004547z m590.3-137.39999999999998c0.10000000000002274 2 0.20000000000004547 3.8999999999999773 0.20000000000004547 5.7999999999999545 0 21.200000000000045-6.7999999999999545 41.700000000000045-18.200000000000045 59-10.599999999999909 16.200000000000045-25.299999999999955 29.800000000000068-42.09999999999991 39 1.099999999999909 8.5 1.6999999999999318 17 1.6999999999999318 25.5 0 45.80000000000007-15.799999999999955 90.70000000000005-43.299999999999955 126.80000000000007h-0.10000000000002274c-50.700000000000045 67.59999999999991-128.70000000000005 107.5-207.5 127.59999999999991h-0.10000000000002274c-42 10.200000000000045-85.29999999999995 15.400000000000091-128.59999999999997 15.400000000000091-64.5 0-129-11.600000000000023-189.2-35.80000000000007v-0.10000000000002274h-0.10000000000002274c-62.400000000000006-25.699999999999932-121.9-66.59999999999991-158.3-126.5-19.599999999999994-32-30.39999999999999-69.5-30.39999999999999-107.09999999999991 0-8.5 0.6000000000000085-17.100000000000023 1.7000000000000028-25.5-16.400000000000006-9.200000000000045-30.599999999999994-22.40000000000009-41.2-38-11.299999999999997-16.800000000000068-18.4-36.50000000000006-19.299999999999997-57.30000000000007v-0.2999999999999545c0-29.200000000000045 12.700000000000003-56.80000000000001 32.400000000000006-77.20000000000005s46.599999999999994-33.69999999999999 75.4-33.69999999999999h1.1999999999999886c3-0.19999999999998863 6.099999999999994-0.30000000000001137 9.099999999999994-0.30000000000001137 14.5 0 29 2.3000000000000114 42.80000000000001 7.600000000000023l0.09999999999999432 0.10000000000002274h0.09999999999999432c11.800000000000011 5 23.5 10.899999999999977 33.900000000000006 19.19999999999999 3.3999999999999773-1.8000000000000114 7.100000000000023-3.8000000000000114 11.199999999999989-5.300000000000011 63.19999999999999-37.39999999999998 136.60000000000002-51.89999999999998 208.2-56 0.6000000000000227-35.5 5-72.6 22.30000000000001-105.1 14.400000000000034-27 39.400000000000034-48 69.19999999999999-55.30000000000001l0.10000000000002274-0.09999999999999432h0.20000000000004547c11.299999999999955-2.1999999999999886 22.799999999999955-3.1999999999999886 34.09999999999991-3.1999999999999886 30.200000000000045 0 60.10000000000002 7.199999999999989 88.10000000000002 18.299999999999983 12.399999999999977-18.69999999999999 30.100000000000023-33.29999999999998 50.80000000000007-41.400000000000006l0.1999999999999318-0.09999999999999432 0.20000000000004547-0.09999999999999432c12.199999999999932-3.8000000000000114 25-6 37.89999999999998-6 13.600000000000023 0 27.299999999999955 2.5 40.200000000000045 8.199999999999989l0.1999999999999318 0.10000000000002274c18.399999999999977 7.099999999999994 34 20.19999999999999 45.10000000000002 36.5 11.100000000000023 16.399999999999977 17.600000000000023 36 17.600000000000023 56.099999999999994 0 3.6999999999999886-0.20000000000004547 7.400000000000006-0.6000000000000227 11.199999999999989v0.30000000000001137c-2.2000000000000455 26.099999999999994-15.399999999999977 48.900000000000006-34 65.20000000000002-18.799999999999955 16.399999999999977-43.10000000000002 26.299999999999955-68.10000000000002 26.299999999999955-4 0-8.100000000000023-0.19999999999998863-12.100000000000023-0.7999999999999545-24.799999999999955-1.900000000000034-47.89999999999998-13.900000000000034-64.89999999999998-31.700000000000045-17-17.799999999999955-28-41.599999999999966-28-67.29999999999998 0-1.1999999999999886 0.10000000000002274-2.5 0.20000000000004547-3.6999999999999886-23.300000000000068-10.400000000000006-48-19-72.5-18.900000000000006-3.6000000000000227 0-7.100000000000023 0.19999999999998863-10.700000000000045 0.5999999999999943-18.399999999999977 1.8000000000000114-35.5 13.400000000000006-43.799999999999955 30v0.09999999999999432c-12.600000000000023 24.5-15.100000000000023 53.10000000000002-15.5 81.5 70.5 4.600000000000023 141.39999999999998 21.5 203.5 57.19999999999999h0.10000000000002274l0.8999999999999773 0.5c1.1999999999999318 0.7000000000000455 3.3999999999999773 1.900000000000034 5.2999999999999545 2.900000000000034 4.300000000000068-3.5 8.800000000000068-7 13.899999999999977-10.100000000000023 18.90000000000009-12.599999999999966 41.200000000000045-18.80000000000001 63.5-18.80000000000001 9.900000000000091 0 19.800000000000068 1.3000000000000114 29.5 3.7000000000000455l0.40000000000009095 0.0999999999999659 0.39999999999997726 0.10000000000002274c22.699999999999932 5.800000000000011 43.299999999999955 18.899999999999977 58.799999999999955 36.5 15.5 17.69999999999999 25.899999999999977 40.099999999999966 27.899999999999977 64.30000000000001z m-207.5-230.60000000000002c0 0.9000000000000057 0 1.9000000000000057 0.10000000000002274 2.9000000000000057v0.19999999999998863c0.5 12.200000000000017 6.2000000000000455 23.599999999999994 15 32.099999999999994 8.800000000000068 8.400000000000034 20.5 13.600000000000023 32.39999999999998 13.699999999999989h0.3000000000000682c0.8999999999999773 0.10000000000002274 1.6999999999999318 0.10000000000002274 2.6000000000000227 0.10000000000002274 12 0 23.899999999999977-5.199999999999989 32.89999999999998-13.5 9-8.399999999999977 14.899999999999977-19.900000000000006 15.299999999999955-32.19999999999999v-0.30000000000001137c0.10000000000002274-0.9000000000000057 0.10000000000002274-1.8000000000000114 0.10000000000002274-2.8000000000000114 0-12.699999999999989-5.899999999999977-24.799999999999983-15.200000000000045-33.79999999999998-9.299999999999955-9-21.699999999999932-14.5-34-14.5-4 0-7.899999999999977 0.5-11.799999999999955 1.6999999999999886h-0.20000000000004547c-10.099999999999909 2.5999999999999943-19.59999999999991 8.900000000000006-26.5 17.200000000000017-6.899999999999977 8.399999999999977-11 18.599999999999994-11 29.19999999999999z m-520.1999999999999 188.89999999999998c-9.400000000000034-4.399999999999977-19.200000000000017-7.5-28.80000000000001-7.5-1.6000000000000227 0-3.200000000000017 0.10000000000002274-4.900000000000006 0.30000000000001137h-0.4000000000000057c-13.800000000000011 0.4000000000000341-27.80000000000001 6.400000000000034-38.19999999999999 16.100000000000023-10.500000000000014 9.599999999999966-17.400000000000006 22.599999999999966-17.900000000000006 37v0.19999999999998863c-0.10000000000000853 1.1999999999999886-0.10000000000000853 2.3000000000000114-0.10000000000000853 3.3999999999999773 0 8.800000000000011 2.700000000000003 17.400000000000034 7.299999999999997 25.200000000000045 3.4000000000000057 5.7999999999999545 7.900000000000006 11.099999999999966 12.900000000000006 15.699999999999932 16-35.39999999999998 41.30000000000001-65.39999999999998 70.1-90.39999999999998z m613.9 173c0-31.5-11.399999999999977-63.19999999999993-29.799999999999955-88.69999999999999-36.700000000000045-51.099999999999966-93.70000000000005-84.39999999999998-153-103l-0.40000000000009095-0.0999999999999659c-11.399999999999977-3.5-22.899999999999977-6.600000000000023-34.39999999999998-9.200000000000045-34.60000000000002-7.899999999999977-70.10000000000002-11.799999999999955-105.59999999999997-11.799999999999955-47.60000000000002 0-95.30000000000001 7-140.90000000000003 21.099999999999966-59.19999999999999 18.80000000000001-116.39999999999998 51.900000000000034-152.99999999999997 103.19999999999999-18.599999999999994 25.600000000000023-29.5 57.39999999999998-29.5 89 0 11.600000000000023 1.5 23.300000000000068 4.5 34.60000000000002 6.699999999999989 25.399999999999977 19.69999999999999 48.10000000000002 36.599999999999994 67.89999999999998 16.900000000000006 19.800000000000068 37.599999999999994 36.700000000000045 59.39999999999998 50.5 4.800000000000011 3 9.700000000000045 5.800000000000068 14.600000000000023 8.600000000000023 63.30000000000001 35.299999999999955 136.10000000000002 50.799999999999955 208.39999999999998 50.799999999999955 12.200000000000045 0 24.5-0.39999999999997726 36.700000000000045-1.2999999999999545 72.79999999999995-6 145.89999999999998-27.5 205.10000000000002-71.39999999999998 18.799999999999955-13.899999999999977 36.19999999999993-30.700000000000045 50-49.89999999999998 13.799999999999955-19.200000000000045 24-40.60000000000002 28.5-63.80000000000007v-0.10000000000002274c1.8999999999999773-8.699999999999932 2.7999999999999545-17.5 2.7999999999999545-26.399999999999977z m57.5-125.39999999999998c0-7.699999999999989-1.7999999999999545-15.300000000000011-5.600000000000023-22.399999999999977l-0.10000000000002274-0.10000000000002274v-0.10000000000002274c-5.099999999999909-10.599999999999966-13.199999999999932-18.5-22.899999999999977-24s-21.100000000000023-8.299999999999955-32.5-8.299999999999955c-10.299999999999955 0-20.5 2.2999999999999545-29.600000000000023 6.899999999999977 28.90000000000009 25.100000000000023 54.30000000000007 55.30000000000001 70.70000000000005 90.79999999999995 5.2999999999999545-4.599999999999966 9.799999999999955-10.199999999999932 13.100000000000023-16.499999999999943 4.399999999999977-8.100000000000023 6.899999999999977-17.30000000000001 6.899999999999977-26.30000000000001z"/>
</svg>
