<svg xmlns="http://www.w3.org/2000/svg" viewBox="0 0 1000 1000" width="1000" height="1000">
<path d="M456 184.7c-13.399999999999977 0-26.80000000000001 3.6000000000000227-38.30000000000001 11.5-25.399999999999977 17.5-39.5 71.60000000000002-56.5 110-18.80000000000001 42.30000000000001-35.19999999999999 85-53.5 116-49.5-56.099999999999966-83.19999999999999-180.5-142.79999999999998-226-19.200000000000017-14.699999999999989-61.30000000000001-14.299999999999983-80.30000000000001 0-51.3 38.60000000000002 0.20000000000000284 106.90000000000003 20.80000000000001 142.8 45.29999999999998 78.60000000000002 95.5 162.7 133.79999999999998 235-24.899999999999977 65.70000000000005-150.79999999999998 251.39999999999998 17.900000000000034 240.89999999999998 40.799999999999955-26.399999999999977 58.099999999999966-81.19999999999993 80.29999999999995-130.89999999999998 45.400000000000034-101.60000000000002 83.90000000000003-189.39999999999998 130.90000000000003-294.4 19.5-43.700000000000045 66.49999999999994-108.20000000000005 56.49999999999994-157.60000000000002-5.599999999999909-27.599999999999994-37.099999999999966-47.30000000000001-68.79999999999995-47.30000000000001z m407.9 40.30000000000001c-24.399999999999977 0.19999999999998863-49 11.599999999999994-59.60000000000002 33.69999999999999-17.59999999999991 20.100000000000023-36.39999999999998 38.900000000000034-56.5 56.5-9.599999999999909 12.199999999999989-20.59999999999991 23-32.69999999999993 32.69999999999999-14.100000000000023 14.700000000000045-25.600000000000023 32-44.60000000000002 41.700000000000045v-116c-0.39999999999997726-63.10000000000002-118.5-63.10000000000002-118.89999999999998 0v330.1c5.199999999999932 23.59999999999991 15.899999999999977 41.59999999999991 41.60000000000002 44.59999999999991h35.69999999999993c24.5-4.2999999999999545 38.39999999999998-19.09999999999991 41.60000000000002-44.59999999999991v-71.40000000000009c0-24.699999999999932-4.600000000000023-66.49999999999994 11.899999999999977-41.599999999999966 24.200000000000045 23.69999999999999 58.39999999999998 49.19999999999999 89.20000000000005 77.30000000000001 29.600000000000023 27 58 70.60000000000002 89.19999999999993 77.29999999999995 63.90000000000009 13.700000000000045 92.10000000000002-47.59999999999991 68.40000000000009-92.19999999999993-25-47.10000000000002-96.90000000000009-77.20000000000005-127.90000000000009-119 20.90000000000009-47.80000000000001 134.5-77.20000000000005 124.90000000000009-160.60000000000002-3.800000000000068-32.900000000000006-32.90000000000009-48.80000000000001-62.30000000000007-48.5z"/>
</svg>
