<svg xmlns="http://www.w3.org/2000/svg" viewBox="0 0 1000 1000" width="1000" height="1000">
<path d="M458.9 484.7c0.6000000000000227-25.099999999999966-21.899999999999977-48.19999999999999-47.099999999999966-47.89999999999998-36.60000000000002-0.5-73.19999999999999 0.5-109.80000000000001-0.30000000000001137-39.89999999999998-1.6999999999999886-72.9-41.60000000000002-66.6-81.10000000000002 4.299999999999983-33.299999999999955 34.599999999999994-61.299999999999955 68.4-61.599999999999966 184-0.19999999999998863 367.99999999999994 0 552-0.10000000000002274 11.5 1.6999999999999886 21.600000000000023-9.199999999999989 18.40000000000009-20.599999999999966-5.100000000000023-11.800000000000011-17.200000000000045-18.50000000000003-27.5-25.200000000000017l-280.70000000000005-161.3c-16.600000000000023-9.599999999999994-33.299999999999955-20.099999999999994-52.60000000000002-24.099999999999994h-27.69999999999999c-12.300000000000011 2-23.899999999999977 7.400000000000006-34.69999999999999 13.799999999999997l-302.6 174.39999999999998c-20.799999999999983 12.199999999999989-35.59999999999998 33.10000000000002-38.59999999999998 57.10000000000002v379.09999999999997c1 24.5 15.799999999999997 46.80000000000007 37.2 58.89999999999998 39 23.100000000000023 78.4 45.30000000000007 117.5 68.10000000000002 8.5 5.800000000000068 21 7 28.80000000000001-0.5 6.300000000000011-7 9.699999999999989-15.899999999999977 14.099999999999966-24.100000000000023l137.3-263.5c6.699999999999989-12.899999999999977 15.600000000000023-25.899999999999977 14.199999999999989-41.099999999999966z m431.1-47.89999999999998l-142.10000000000002-0.10000000000002274c-57.89999999999998-0.6999999999999886-114.29999999999995 33.900000000000034-140.5 85.40000000000003-65.10000000000002 125.69999999999993-131.2 251.29999999999995-195.89999999999998 377.19999999999993 25.30000000000001 12.900000000000091 48.30000000000001 31.200000000000045 76.60000000000002 38.200000000000045h22.799999999999955c17.200000000000045-4 32.30000000000007-12.5 47.200000000000045-21.200000000000045l275.19999999999993-158.89999999999998c16.5-9.299999999999955 33.80000000000007-19 45-34.799999999999955 8.800000000000068-12.5 11.700000000000045-28.200000000000045 11.900000000000091-43.200000000000045-0.20000000000004547-80.79999999999995-0.20000000000004547-161.69999999999993-0.20000000000004547-242.59999999999997z"/>
</svg>
