<svg xmlns="http://www.w3.org/2000/svg" viewBox="0 0 1000 1000" width="1000" height="1000">
<path d="M500 62.5c-241.7 0-437.5 195.89999999999998-437.5 437.5s195.8 437.5 437.5 437.5c241.60000000000002 0 437.5-195.89999999999998 437.5-437.5s-195.89999999999998-437.5-437.5-437.5z m268.1 226.8c42.69999999999993 54.19999999999999 69.39999999999998 121.30000000000001 72.79999999999995 194.59999999999997-49.39999999999998-10.5-96.10000000000002-15.599999999999966-139.60000000000002-15.599999999999966h-0.2999999999999545c-35 0-67.89999999999998 3.1999999999999886-98.89999999999998 8.699999999999989-7.5-18.5-15.200000000000045-36.19999999999999-22.800000000000068-53.10000000000002 68.90000000000009-30.299999999999955 135.10000000000002-73.39999999999998 188.80000000000007-134.59999999999997z m-268.1-130.60000000000002c80.5 0 154.39999999999998 28.100000000000023 212.79999999999995 75-44.69999999999993 53.60000000000002-103.79999999999995 92.40000000000003-167.5999999999999 119.80000000000001-44.80000000000007-86.69999999999999-88.20000000000005-148.7-117.80000000000007-186.6 23.5-5.300000000000011 47.700000000000045-8.200000000000017 72.60000000000002-8.200000000000017z m-150.8 35.60000000000002c23.69999999999999 28 71.10000000000002 89.5 121.80000000000001 185.59999999999997-103 30.700000000000045-206.8 37.900000000000034-269.6 37.900000000000034h-5.399999999999977c-10.599999999999994 0-19.69999999999999-0.19999999999998863-27.19999999999999-0.4000000000000341 24.5-98.09999999999997 91.69999999999999-179.2 180.39999999999998-223.09999999999997z m-190.5 305.7c0-1.6000000000000227 0.10000000000002274-3.1999999999999886 0.20000000000001705-4.899999999999977 9.699999999999989 0.39999999999997726 22.19999999999999 0.6999999999999886 37.29999999999998 0.6999999999999886h0.10000000000002274c68.59999999999997-0.5 188.39999999999998-6.199999999999989 309.8-44.5 6.600000000000023 14.5 13.199999999999932 29.5 19.699999999999932 45.19999999999999-81.09999999999997 27.100000000000023-144.89999999999998 70.29999999999995-192.09999999999997 113.29999999999995-45.5 41.40000000000009-76.19999999999999 82.40000000000009-94.1 109.80000000000007-50.5-59.5-80.9-135.89999999999998-80.9-219.60000000000002z m341.3 341.4c-76 0-146-25.100000000000023-202.8-67.29999999999995 12.100000000000023-19.899999999999977 38-58 79.19999999999999-97.5 42.400000000000034-40.60000000000002 100.90000000000003-82.5 177.39999999999998-107.39999999999998 26 72.79999999999995 49.5 156.0999999999999 67.40000000000009 249.79999999999995-37.80000000000007 14.399999999999977-78.5 22.399999999999977-121.20000000000005 22.399999999999977z m193.20000000000005-60.60000000000002c-17.300000000000068-84.69999999999993-39.10000000000002-161.19999999999993-63-229.39999999999998 22.199999999999932-3.199999999999932 45.39999999999998-5 70-5h1c40.69999999999993 0 85.39999999999998 5.100000000000023 134 16.100000000000023-16.90000000000009 90.20000000000005-69.10000000000002 168-142 218.29999999999995z"/>
</svg>
