<svg xmlns="http://www.w3.org/2000/svg" viewBox="0 0 1000 1000" width="1000" height="1000">
<path d="M936.2 267.1c-0.20000000000004547-15.800000000000011-1.3000000000000682-31.50000000000003-4.300000000000068-47.00000000000003-3.6000000000000227-18.900000000000006-8.699999999999932-37.400000000000006-17.699999999999932-54.5-9.600000000000023-18.099999999999994-21.5-34.400000000000006-36.40000000000009-48.599999999999994-22.699999999999932-21.799999999999997-48.89999999999998-37.2-79.5-45.3-27.59999999999991-7.400000000000006-55.69999999999993-8.700000000000003-84-8.700000000000003-0.09999999999990905 0-0.1999999999999318-0.20000000000000284-0.1999999999999318-0.20000000000000284h-428.6v0.20000000000000284c-16.100000000000023 0.29999999999999716-32.19999999999999 0-48.19999999999999 2-17.5 2.200000000000003-34.900000000000006 5.400000000000006-51.400000000000006 11.5-26.099999999999994 9.700000000000003-48.80000000000001 24.700000000000003-68.2 44.8-22 22.700000000000003-37.5 49.10000000000001-45.7 79.7-7.299999999999997 27.400000000000006-8.799999999999997 55.19999999999999-8.899999999999999 83.30000000000001l-0.20000000000000284 430.40000000000003c0 19.399999999999977 0.6000000000000014 39 3.8999999999999986 58.299999999999955 3.5 20.399999999999977 8.400000000000006 40.299999999999955 17.900000000000006 58.89999999999998 12.799999999999997 25.100000000000023 30.39999999999999 46.30000000000007 52.60000000000001 63.60000000000002 15.899999999999977 12.399999999999977 33.29999999999998 22.299999999999955 52.599999999999994 28.5 28.099999999999994 9.100000000000023 57.099999999999994 12.5 86.49999999999997 12.700000000000045 18.30000000000001 0.09999999999990905 36.700000000000045 0.599999999999909 55 0.5 133.3-0.6000000000000227 266.6 1 399.9-0.8000000000000682 17.700000000000045-0.1999999999999318 35.10000000000002-2.3999999999999773 52.5-5.600000000000023 33.30000000000007-6.099999999999909 62.700000000000045-20.299999999999955 87.80000000000007-42.69999999999993 29.299999999999955-26.200000000000045 49-58.200000000000045 57.89999999999998-96.80000000000007 5.7999999999999545-25.199999999999932 7.5-50.89999999999998 7.5-76.59999999999991v-5.100000000000023c-0.10000000000002274-2-0.7999999999999545-436.8-0.7999999999999545-442.5z m-108.30000000000007 400.9c-0.10000000000002274 2.2999999999999545-0.6999999999999318 4.600000000000023-1.6000000000000227 6.7999999999999545-3.099999999999909 7.300000000000068-10.399999999999977 13.5-22.199999999999932 19-14.399999999999977 6.7000000000000455-36 12.300000000000068-64.20000000000005 16.700000000000045-1.3999999999999773 2.7000000000000455-2.8999999999999773 9.700000000000045-3.8999999999999773 14.100000000000023-1.1000000000000227 5-2.2000000000000455 10.199999999999932-3.7999999999999545 15.399999999999977-2.300000000000068 8-8.5 12.799999999999955-16.800000000000068 12.799999999999955h-0.39999999999997726l-0.39999999999997726-0.1999999999999318c-3.800000000000068 0-8.700000000000045-0.7000000000000455-15.100000000000023-1.8999999999999773-9.700000000000045-1.900000000000091-20.600000000000023-3.7000000000000455-34.39999999999998-3.7000000000000455-8 0-16.300000000000068 0.7000000000000455-24.600000000000023 2.1000000000000227-16.100000000000023 2.699999999999932-29.899999999999977 12.5-46 23.799999999999955-23.399999999999977 16.600000000000023-50 35.30000000000007-90.60000000000002 35.30000000000007-1.7999999999999545 0-3.3999999999999773 0-4.7999999999999545-0.10000000000002274-1.1000000000000227 0.10000000000002274-2.2000000000000455 0.10000000000002274-3.3000000000000114 0.10000000000002274-40.60000000000002 0-67.19999999999999-18.800000000000068-90.60000000000002-35.40000000000009-16-11.299999999999955-29.899999999999977-21.09999999999991-46-23.799999999999955-8.300000000000011-1.3999999999999773-16.599999999999966-2.1000000000000227-24.599999999999966-2.1000000000000227-14.400000000000034 0-26 2.300000000000068-34.400000000000034 3.8999999999999773-5.800000000000011 1.1000000000000227-10.699999999999989 2.1000000000000227-15.099999999999966 2.1000000000000227-11.400000000000034 0-15.900000000000034-7-17.600000000000023-12.799999999999955-1.6000000000000227-5.399999999999977-2.6999999999999886-10.5-3.8000000000000114-15.399999999999977-1-4.600000000000023-2.5-11.400000000000091-3.8999999999999773-14.100000000000023-28.100000000000023-4.399999999999977-49.70000000000002-10-64.20000000000002-16.700000000000045-11.799999999999983-5.5-19.099999999999994-11.699999999999932-22.19999999999999-19.100000000000023-0.9000000000000057-2.199999999999932-1.5-4.399999999999977-1.5999999999999943-6.699999999999932-0.4000000000000057-7.800000000000068 5.099999999999994-14.800000000000068 12.899999999999977-16 19.700000000000017-3.300000000000068 38.60000000000002-10.600000000000023 56-21.899999999999977 14.300000000000011-9.200000000000045 27.69999999999999-21.100000000000023 39.900000000000034-35.30000000000007 21.399999999999977-25 31.899999999999977-48.60000000000002 33-51.299999999999955 0.0999999999999659-0.3000000000000682 0.19999999999998863-0.5 0.2999999999999545-0.7000000000000455 4.5-9.100000000000023 5.5-16.600000000000023 3.1000000000000227-22.399999999999977-4.800000000000011-11.300000000000011-23.19999999999999-17.100000000000023-35.30000000000001-21-3.5-1.1000000000000227-6.800000000000011-2.1000000000000227-9.599999999999966-3.1999999999999886-10.600000000000023-4.199999999999989-18.80000000000001-8.900000000000034-24.400000000000034-14-10.199999999999989-9.300000000000011-10.199999999999989-18.400000000000034-9.399999999999977-23.100000000000023 1.299999999999983-7 6.299999999999983-13.300000000000011 13.899999999999977-17.80000000000001 6.100000000000023-3.599999999999966 13-5.5 19.69999999999999-5.5 4.100000000000023 0 7.900000000000034 0.8000000000000114 11.100000000000023 2.3000000000000114 11.100000000000023 5.199999999999989 21 7.800000000000011 29.19999999999999 7.800000000000011 5.100000000000023 0 8.600000000000023-1 10.800000000000011-2l-0.8999999999999773-14.600000000000023v-0.0999999999999659c-2.8000000000000114-44.5-6.300000000000011-99.90000000000003 8.399999999999977-132.8 10-22.5 23.399999999999977-41.80000000000001 40-57.5 13.800000000000011-13.199999999999989 29.899999999999977-23.80000000000001 47.80000000000001-31.69999999999999 31.30000000000001-13.800000000000011 60.39999999999998-15.600000000000023 75-15.600000000000023 0.5999999999999659 0 7.199999999999989 0.10000000000002274 11.300000000000011 0.10000000000002274h1.599999999999966c14.599999999999966 0 43.69999999999999 1.799999999999983 75.00000000000006 15.5 18 7.899999999999977 34.09999999999991 18.5 48 31.599999999999994 16.59999999999991 15.699999999999989 30.09999999999991 34.99999999999997 40.09999999999991 57.599999999999994 14.700000000000045 32.89999999999998 11.200000000000045 88.30000000000001 8.400000000000091 132.8l-0.10000000000002274 1.8999999999999773c-0.3000000000000682 4.400000000000034-0.5 8.600000000000023-0.8000000000000682 12.699999999999989 1.900000000000091 0.9000000000000341 4.800000000000068 1.8000000000000114 9 2 7.900000000000091-0.39999999999997726 17.100000000000023-3 27.300000000000068-7.7999999999999545 4.7999999999999545-2.2000000000000455 9.899999999999977-2.7000000000000455 13.299999999999955-2.7000000000000455 5 0 9.899999999999977 1 14.300000000000068 2.7000000000000455 12.799999999999955 4.599999999999966 20.799999999999955 13.899999999999977 21 24.5 0.09999999999990905 4.399999999999977-1.2000000000000455 11-8 18-5.600000000000023 5.7999999999999545-14.200000000000045 10.899999999999977-26.200000000000045 15.699999999999989-2.7999999999999545 1.099999999999966-6.100000000000023 2.099999999999966-9.600000000000023 3.1999999999999886-12.199999999999932 3.8999999999999773-30.5 9.699999999999989-35.299999999999955 21-2.3999999999999773 5.7000000000000455-1.3999999999999773 13.299999999999955 3.1000000000000227 22.399999999999977l0.2999999999999545 0.7000000000000455c1.6000000000000227 3.7999999999999545 41.10000000000002 93.89999999999998 128.89999999999998 108.39999999999998 7.899999999999977 1.2000000000000455 13.399999999999977 8.200000000000045 13 16z"/>
</svg>
