<svg xmlns="http://www.w3.org/2000/svg" viewBox="0 0 1000 1000" width="1000" height="1000">
<path d="M333.6 522.9c-34.200000000000045 23.5-81.00000000000003 14.700000000000045-104.50000000000003-19.599999999999966s-14.699999999999989-81 19.599999999999994-104.5l0.10000000000002274-0.10000000000002274 185.89999999999998-127.30000000000001c68.5-46.89999999999998 86.00000000000006-140.39999999999998 39.10000000000002-208.99999999999997l-309.9 212.29999999999998-0.3000000000000398 0.19999999999998863c-102.69999999999999 70.20000000000005-128.89999999999998 210.60000000000002-58.599999999999994 313.4 70.4 102.70000000000005 210.7 129 313.4 58.700000000000045v0.10000000000002274c68.5-46.89999999999998 86-140.40000000000003 39.10000000000002-208.90000000000003l-123.89999999999998 84.69999999999999z m561.6-111.19999999999999c-70.40000000000009-102.80000000000001-210.70000000000005-129-313.5-58.69999999999999l-0.10000000000002274 0.10000000000002274-0.8000000000000682 0.5999999999999659 1-0.5999999999999659c-68.69999999999993 46.89999999999998-86.19999999999993 140.39999999999998-39.299999999999955 209l124-85c34.299999999999955-23.400000000000034 81.10000000000002-14.700000000000045 104.60000000000002 19.599999999999966 23.5 34.19999999999999 14.699999999999932 81.00000000000006-19.5 104.50000000000006l-186.10000000000002 127.39999999999998c-68.5 46.89999999999998-86 140.39999999999998-39.10000000000002 209l310.1-212.39999999999998c102.70000000000005-70.30000000000007 129-210.70000000000005 58.700000000000045-313.50000000000006z"/>
</svg>
