<svg xmlns="http://www.w3.org/2000/svg" viewBox="0 0 1000 1000" width="1000" height="1000">
<path d="M887.1 495.4c-27.800000000000068 0-50.39999999999998 22.5-50.39999999999998 50.200000000000045 0 27.699999999999932 22.5 50.10000000000002 50.39999999999998 50.10000000000002 27.799999999999955 0 50.39999999999998-22.5 50.39999999999998-50.10000000000002 0-27.800000000000068-22.5-50.200000000000045-50.39999999999998-50.200000000000045z m-405.5-48.599999999999966h-0.6000000000000227l0.10000000000002274-1.400000000000034c0-25.299999999999955-20.200000000000045-45.799999999999955-45.10000000000002-45.799999999999955s-45.10000000000002 20.5-45.10000000000002 45.799999999999955c0 0.4000000000000341 0 0.7000000000000455 0.10000000000002274 1.1000000000000227h-0.5l-0.10000000000002274 227.10000000000002h0.6000000000000227c0.30000000000001137 25 20.399999999999977 45.19999999999993 45.10000000000002 45.19999999999993s44.69999999999999-20.199999999999932 45.099999999999966-45.19999999999993h0.6000000000000227l-0.19999999999998863-226.8z m-152.60000000000002 200.59999999999997l-82.80000000000001-111.69999999999993 59.30000000000001-58.400000000000034-0.5-0.5c7.800000000000011-8.199999999999989 12.600000000000023-19.30000000000001 12.600000000000023-31.5 0-25.19999999999999-20.400000000000034-45.69999999999999-45.5-45.69999999999999-13.400000000000034 0-25.400000000000034 5.7999999999999545-33.70000000000002 15.099999999999966l-0.09999999999999432-0.0999999999999659-84.30000000000001 82.5-0.5-167.60000000000002h-0.5999999999999943l0.09999999999999432-2.5c0-25.19999999999999-20-45.69999999999999-44.8-45.69999999999999-24.700000000000003 0-44.800000000000004 20.5-44.800000000000004 45.69999999999999l0.10000000000000142 1.6000000000000227h-1.1000000000000014v344.1h1v0.8999999999999773c0 25 20.000000000000007 45.19999999999993 44.6 45.19999999999993 23.80000000000001 0 43.099999999999994-18.899999999999977 44.5-42.59999999999991h0.5999999999999943v-59.30000000000007l23-21.299999999999955 75.30000000000001 100.39999999999998c7.900000000000006 13.600000000000023 22.400000000000006 22.700000000000045 38.99999999999997 22.700000000000045 25 0 45.30000000000001-20.600000000000023 45.30000000000001-45.90000000000009 0-9.199999999999932-2.6999999999999886-17.799999999999955-7.300000000000011-25l0.6000000000000227-0.39999999999997726z m482.79999999999995 0l-82.79999999999995-111.69999999999993 59.299999999999955-58.400000000000034-0.5-0.5c7.800000000000068-8.199999999999989 12.600000000000023-19.30000000000001 12.600000000000023-31.5 0-25.19999999999999-20.399999999999977-45.69999999999999-45.5-45.69999999999999-13.399999999999977 0-25.399999999999977 5.7999999999999545-33.69999999999993 15.099999999999966l-0.10000000000002274-0.0999999999999659-84.20000000000005 82.39999999999998-0.5-167.60000000000002h-0.6000000000000227l0.10000000000002274-2.5c0-25.19999999999999-20-45.69999999999999-44.799999999999955-45.69999999999999s-44.80000000000007 20.5-44.80000000000007 45.69999999999999l0.10000000000002274 1.6000000000000227h-1.1000000000000227v344.1h1v0.8999999999999773c0 25 20 45.200000000000045 44.60000000000002 45.200000000000045 23.800000000000068 0 43.10000000000002-18.90000000000009 44.5-42.60000000000002h0.6000000000000227v-59.30000000000007l23-21.299999999999955 75.20000000000005 100.60000000000002c7.899999999999977 13.600000000000023 22.399999999999977 22.699999999999932 39 22.699999999999932 25 0 45.299999999999955-20.59999999999991 45.299999999999955-45.89999999999998 0-9.199999999999932-2.7000000000000455-17.799999999999955-7.2999999999999545-25l0.599999999999909-0.5z"/>
</svg>
