<svg xmlns="http://www.w3.org/2000/svg" viewBox="0 0 1000 1000" width="1000" height="1000">
<path d="M885.1 62.5h-770.2c-28.899999999999977 0-52.39999999999998 23.5-52.39999999999998 52.400000000000006v770.2c0 28.899999999999977 23.5 52.39999999999998 52.400000000000006 52.39999999999998h770.2c28.899999999999977 0 52.39999999999998-23.5 52.39999999999998-52.39999999999998v-770.2c0-28.899999999999977-23.5-52.39999999999998-52.39999999999998-52.39999999999998z m-194.39999999999998 653.3c-15.200000000000045 15.600000000000023-33.60000000000002 23.300000000000068-55.30000000000007 23.300000000000068-23.699999999999932 0-41.799999999999955-7.7000000000000455-54.19999999999993-23.100000000000023l-118.30000000000007-147.79999999999995v81.5c0 23.199999999999932-4 41.299999999999955-12.099999999999966 54.19999999999993-14.699999999999989 23.5-36.10000000000002 35.200000000000045-64.19999999999999 35.200000000000045-25.600000000000023 0-45.30000000000001-8.600000000000023-59.400000000000034-25.899999999999977-13.199999999999989-15.900000000000091-19.69999999999999-36.90000000000009-19.69999999999999-63.200000000000045v-302.1c0-24.799999999999955 6.699999999999989-45.299999999999955 20-61.5 14-17 33.39999999999998-25.5 58-25.5 23.5 0 43 8.5 58.69999999999999 25.5 8.699999999999989 9.400000000000034 14.300000000000011 19 16.600000000000023 28.700000000000045 1.3999999999999773 6 2.099999999999966 17.099999999999966 2.099999999999966 33.5v75.29999999999995l87.70000000000005-127.09999999999997c16.600000000000023-23.900000000000034 37.89999999999998-35.900000000000034 64.19999999999993-35.900000000000034 21.40000000000009 0 39.90000000000009 7.600000000000023 55.60000000000002 22.700000000000045 15.600000000000023 15.199999999999989 23.5 33.39999999999998 23.5 54.5 0 15.699999999999989-4.100000000000023 29.5-12.399999999999977 41.39999999999998l-79.10000000000002 115 96.60000000000002 122.70000000000005c9.600000000000023 12.199999999999932 14.5 26.5 14.5 42.799999999999955 0 21.700000000000045-7.600000000000023 40.299999999999955-22.799999999999955 55.799999999999955z"/>
</svg>
