<svg xmlns="http://www.w3.org/2000/svg" viewBox="0 0 1000 1000" width="1000" height="1000">
<path d="M782 212.4c-53.39999999999998-24.400000000000006-109.70000000000005-41.80000000000001-167.60000000000002-51.5-7.899999999999977 14.099999999999994-15.100000000000023 28.69999999999999-21.5 43.599999999999994-61.60000000000002-9.300000000000011-124.29999999999995-9.300000000000011-186 0-6.399999999999977-14.900000000000006-13.599999999999966-29.5-21.5-43.599999999999994-57.89999999999998 9.799999999999983-114.29999999999995 27.19999999999999-167.7 51.69999999999999-106.1 156.9-134.89999999999998 310-120.49999999999999 460.79999999999995 62.10000000000001 45.89999999999998 131.7 80.89999999999998 205.60000000000002 103.20000000000005 16.599999999999966-22.300000000000068 31.399999999999977-46.10000000000002 44-71-24-8.899999999999977-47.19999999999999-20-69.30000000000001-33.10000000000002 5.800000000000011-4.2000000000000455 11.5-8.5 17-12.700000000000045 64.30000000000001 30.200000000000045 134.39999999999998 45.90000000000009 205.5 45.90000000000009 71 0 141.20000000000005-15.700000000000045 205.5-45.90000000000009 5.600000000000023 4.5 11.299999999999955 8.800000000000068 17 12.700000000000045-22.100000000000023 13.100000000000023-45.39999999999998 24.200000000000045-69.39999999999998 33.200000000000045 12.600000000000023 24.899999999999977 27.299999999999955 48.59999999999991 44 70.89999999999998 74-22.300000000000068 143.60000000000002-57.200000000000045 205.69999999999993-103.10000000000002 16.90000000000009-175-28.799999999999955-326.6-120.79999999999995-461.1z m-417 368.20000000000005c-40 0-73.10000000000002-36.30000000000007-73.10000000000002-81 0-44.80000000000001 31.900000000000034-81.5 73-81.5 41.10000000000002 0 73.90000000000003 36.69999999999999 73.20000000000005 81.5-0.7000000000000455 44.69999999999993-32.200000000000045 81-73.10000000000002 81z m270 0c-40.200000000000045 0-73.10000000000002-36.30000000000007-73.10000000000002-81 0-44.80000000000001 31.899999999999977-81.5 73.10000000000002-81.5 41.10000000000002 0 73.70000000000005 36.69999999999999 73 81.5-0.7000000000000455 44.69999999999993-32.200000000000045 81-73 81z"/>
</svg>
