<svg xmlns="http://www.w3.org/2000/svg" viewBox="0 0 1000 1000" width="1000" height="1000">
<path d="M500 514c124.5 0 225.79999999999995-101.30000000000001 225.79999999999995-225.7 0-124.60000000000002-101.29999999999995-225.8-225.79999999999995-225.8s-225.8 101.30000000000001-225.8 225.8c0 124.39999999999998 101.30000000000001 225.7 225.8 225.7z m0-319.3c51.60000000000002 0 93.5 41.900000000000006 93.5 93.5 0 51.5-42 93.5-93.5 93.5s-93.5-41.89999999999998-93.5-93.5c0-51.5 42-93.5 93.5-93.5z m91.39999999999998 503.50000000000006c46-10.5 90.30000000000007-28.600000000000023 131.10000000000002-54.30000000000007 30.899999999999977-19.5 40.200000000000045-60.299999999999955 20.799999999999955-91.19999999999993-19.5-31-60.299999999999955-40.30000000000007-91.29999999999995-20.800000000000068-92.5 58.200000000000045-211.60000000000002 58.10000000000002-304 0-31-19.5-71.80000000000001-10.199999999999932-91.19999999999999 20.800000000000068-19.5 30.899999999999977-10.200000000000017 71.79999999999995 20.69999999999999 91.19999999999993 40.80000000000001 25.600000000000023 85.10000000000002 43.80000000000007 131.10000000000002 54.30000000000007l-126.20000000000005 126.29999999999995c-25.799999999999955 25.799999999999955-25.799999999999955 67.70000000000005 0 93.60000000000002 12.900000000000034 12.899999999999977 29.80000000000001 19.399999999999977 46.80000000000001 19.399999999999977 16.900000000000034 0 33.900000000000034-6.5 46.80000000000001-19.399999999999977l124-124 124.10000000000002 124.10000000000002c25.799999999999955 25.799999999999955 67.69999999999993 25.799999999999955 93.5 0 25.899999999999977-25.800000000000068 25.899999999999977-67.80000000000007 0-93.5l-126.20000000000005-126.5z"/>
</svg>
