<svg xmlns="http://www.w3.org/2000/svg" viewBox="0 0 1000 1000" width="1000" height="1000">
<path d="M0.1 588.9c16.599999999999998-154.39999999999998 144.9-209 163.70000000000002-216.2-31.900000000000006-25.19999999999999-52.30000000000001-63.89999999999998-52.30000000000001-107.09999999999997 0-76.00000000000003 62.900000000000006-137.60000000000002 140.4-137.60000000000002s140.49999999999997 61.599999999999994 140.49999999999997 137.60000000000002c0 42.89999999999998-20 81.19999999999999-51.39999999999998 106.39999999999998 26.30000000000001 9.300000000000011 52.10000000000002 23.100000000000023 75.19999999999999 41.19999999999999-61.19999999999999 30.5-195.6 118.50000000000006-216 308.40000000000003v4.699999999999932c-118.1-7.399999999999977-130.2-39.5-130.2-39.5-7.5-7.2999999999999545-13.399999999999999-16.199999999999932-16.9-27.399999999999977-17.200000000000003-4-28-14.299999999999955-28-14.299999999999955s-26.400000000000002-9.800000000000068-25-56.200000000000045z m492.29999999999995-170.79999999999995c-27.899999999999977 10.699999999999989-217.89999999999998 91.59999999999997-242.49999999999997 320.29999999999995-2 68.80000000000007 37.099999999999994 83.30000000000007 37.099999999999994 83.30000000000007s16.100000000000023 15.299999999999955 41.60000000000002 21.199999999999932c5.199999999999989 16.5 13.799999999999955 29.800000000000068 25 40.60000000000002 0 0 18.69999999999999 50 207 59.200000000000045 2.7999999999999545 0.5 5.5 0.8999999999999773 8.299999999999955 1.5h118.60000000000002c4.600000000000023-0.8000000000000682 9.299999999999955-1.6000000000000227 14.100000000000023-2.400000000000091 193.39999999999998-12.799999999999955 213.79999999999995-73.19999999999993 213.79999999999995-73.19999999999993v-0.10000000000002274c5.100000000000023-7.5 9.399999999999977-16 12.5-25.600000000000023 88-17.399999999999977 81.10000000000002-122.19999999999993 54.700000000000045-202.60000000000002-36.700000000000045-111.69999999999993-129.89999999999998-188.69999999999993-227.60000000000002-223.19999999999993 46.5-37.400000000000034 76.20000000000005-94.10000000000002 76.20000000000005-157.70000000000005 0-112.59999999999997-93.20000000000005-203.89999999999998-208.10000000000002-203.89999999999998s-208.10000000000002 91.30000000000001-208.10000000000002 203.89999999999998c-0.10000000000002274 64.10000000000002 30.19999999999999 121.30000000000001 77.39999999999998 158.70000000000005z"/>
</svg>
