<svg xmlns="http://www.w3.org/2000/svg" viewBox="0 0 1000 1000" width="1000" height="1000">
<path d="M817.1 198.7l-1.8000000000000682 1.3000000000000114s-19.699999999999932 18.80000000000001-34.19999999999993 55.5c0 0-17.100000000000023 50.39999999999998-23.899999999999977 166.60000000000002 0 0-1.7000000000000455 119.60000000000002-36.700000000000045 192.29999999999995 0 0 27.299999999999955 10.300000000000068 20.5 53 0 0-4.2999999999999545 47.89999999999998-40.200000000000045 42.700000000000045 0 0-18.799999999999955-4.300000000000068-22.199999999999932-40.200000000000045l-88.89999999999998 59s20.5 50.39999999999998-18.800000000000068 82.89999999999998c0 0-31.600000000000023 26.5-52.10000000000002-17.09999999999991 0 0-17.899999999999977-45.30000000000007 21.40000000000009-76.90000000000009l-19.700000000000045 4.300000000000068s-16.19999999999999 17.399999999999977-19.69999999999999 38.5c0 0-0.6000000000000227 12.299999999999955-3.400000000000034 17.899999999999977 0 0-6 5.100000000000023-62.39999999999998 5.100000000000023 0 0-76.30000000000001-1.7000000000000455-104.19999999999999-9.100000000000023 0 0-10.800000000000011 32.5-34.19999999999999 30.799999999999955 0 0-32.5-1.099999999999909-27.900000000000034-59.19999999999993 0 0-14.799999999999983-13.700000000000045 4.600000000000023-38.200000000000045 0 0 22.5-26.799999999999955 91.69999999999999-57 0 0 41.60000000000002-17.699999999999932 50.69999999999999-23.899999999999977 0 0 18.19999999999999-7.399999999999977 25.100000000000023-34.200000000000045 0 0-61.5 6.800000000000068-89.40000000000003-2.7999999999999545 0 0-29.599999999999966-6.2999999999999545-52.39999999999998-22.799999999999955 0 0-16-5.100000000000023-38.19999999999999-91.10000000000002 0 0-22.80000000000001-80.90000000000003-12.5-109.90000000000003 0 0 22.19999999999999-80.30000000000001 221-124.19999999999999 0 0 10.899999999999977-67.69999999999999 81.80000000000001-85.9 0 0 24.699999999999932-0.6999999999999886 28.100000000000023 1.5999999999999943 0 0 1.599999999999909 2.5 1.6999999999999318 7.400000000000006l203.5 2.700000000000017c-76.5-65.60000000000001-175.79999999999995-105.30000000000001-284.4-105.30000000000001-241.60000000000002 0-437.5 195.89999999999998-437.5 437.5s195.89999999999998 437.5 437.5 437.5 437.5-195.89999999999998 437.5-437.5c0-116.80000000000001-45.89999999999998-222.8-120.39999999999998-301.3z m-259-30.19999999999999s-57 21.599999999999994-55.80000000000001 85.4c0 0 169.8 0 184.59999999999997 15.999999999999972 0 0-169.5-5.099999999999966-189.09999999999997 0 0 0-13.699999999999989 60.700000000000045-17.100000000000023 71.80000000000001 0 0 1.1000000000000227 20.5-2.3000000000000114-61.5 0 0 1.7000000000000455-12-22.799999999999955-6.800000000000011 0 0-102.5 18.5-157.20000000000005 77.5 0 0-31.599999999999966 33.60000000000002 13.700000000000045 42.200000000000045 0 0 41.89999999999998 8.299999999999955 87.19999999999999 7.399999999999977l37.599999999999966 142.39999999999998-18.899999999999977-140.89999999999998 14.800000000000011-1.1000000000000227 29.599999999999966 133.30000000000007-13.699999999999989-134.40000000000003 16.5-2.3000000000000114 24.5 129.89999999999998-9.599999999999966-133.39999999999998 13.699999999999989-1.6999999999999886 22.499999999999943 124.80000000000001-3.699999999999932-128.20000000000005 14.299999999999955-3.3999999999999773 18.5 125.60000000000002 0.8999999999999773-129 17.100000000000023-4 11.100000000000023 127 7.100000000000023-129.90000000000003 17.100000000000023-5.099999999999966 4.7999999999999545 135.89999999999998 10.5-139.8 18.200000000000045-7.399999999999977 0.2999999999999545 138.7 16.200000000000045-143.8 18.799999999999955-7.399999999999977-4.2999999999999545 141.7 21.899999999999977-148.10000000000002 17.699999999999932-12-7.099999999999909 153.20000000000005 35-177.20000000000005s24.199999999999932-107.69999999999999 77.5-113.39999999999998c0 0-45.90000000000009 29.30000000000001-56.10000000000002 105.10000000000002 0 0-14.5 88-17.899999999999977 165.79999999999995 0 0-7.7000000000000455 93.10000000000002-24.800000000000068 129 0 0-31.600000000000023 14.5-41.299999999999955 67.20000000000005l-86.60000000000002 57.5s1.1000000000000227-8.5-17.700000000000045-10.300000000000068c0 0 64.40000000000009-37.89999999999998 95.10000000000002-66.09999999999991 0 0 19.899999999999977-22.200000000000045 22.800000000000068-58.700000000000045 0 0 4-33 9.099999999999909-40.39999999999998 0 0-85.19999999999993 31-207.39999999999998 35.299999999999955 0 0 6 45.89999999999998-30.799999999999955 63.80000000000007 0 0-110.20000000000005 55.5-121.30000000000001 66.69999999999993 0 0-15.400000000000034 11.399999999999977-14.199999999999989 16.5 0 0 0.8999999999999773 20.5 71.79999999999995 26.5 0 0 66.70000000000005 5.100000000000023 104.20000000000005-8.5 0 0-5.100000000000023 3.3999999999999773-7.7000000000000455 22.200000000000045 0 0-75.19999999999999 7.100000000000023-140.09999999999997-4.300000000000068 0 0-51.30000000000001-6-59-23.899999999999977 0 0-6.800000000000011-15.399999999999977 40.19999999999999-42.69999999999993 0 0 14.5-12.300000000000068 88-47.30000000000007 0 0 27.600000000000023-12 37-35.89999999999998 0 0 6.300000000000011-29.600000000000023 10.300000000000011-35.89999999999998 0 0-107.10000000000002 21.399999999999977-146.40000000000003-22.200000000000045 0 0-20.5-21.899999999999977-41-132.2 0 0-11.399999999999977-46.69999999999999 8-64.89999999999998 0 0 41-63.19999999999999 206.20000000000005-94.60000000000002 0 0.30000000000001137 8-84 69.5-89.69999999999999z m5.100000000000023 9.599999999999994s225.89999999999998 3.4000000000000057 233.5999999999999 3.4000000000000057c0 0-24.199999999999932 5.699999999999989-45.59999999999991 24.5 0 0-184.10000000000002-9-200.5-7.400000000000006 0 0-15.200000000000045-0.29999999999998295-6.7000000000000455-8.400000000000006 0 0 9.799999999999955-9.5 19.200000000000045-12.099999999999994z m-30.700000000000045 29.700000000000017s-3.3999999999999773 4.299999999999983 34.200000000000045 4.299999999999983l179.39999999999998 7.700000000000017s-21.399999999999977 37.599999999999966-31.600000000000023 80.30000000000001h-9.399999999999977s-57.30000000000007 34.19999999999999-111.10000000000002 47c0 0-104.19999999999999 35.89999999999998-223.89999999999998 34.19999999999999 0 0-88 0.8999999999999773-55.5-23.100000000000023 0 0 50.39999999999998-53 146.09999999999997-70.09999999999997l13.699999999999989 82.89999999999998 7.7000000000000455-2.6000000000000227 29.299999999999955-83.19999999999999s93.10000000000002-6.300000000000011 193.10000000000002 2.3000000000000114c0 0 8-32.5-33.60000000000002-39.599999999999994 0 0-48.10000000000002-12.200000000000017-148.10000000000002-8.800000000000011 0 0 2-21.099999999999994 9.700000000000045-31.299999999999983z m-30.80000000000001 382.8s94.80000000000001 3.3999999999999773 163.2-23.100000000000023c0 0 2.6000000000000227 39.299999999999955-35.89999999999998 70.89999999999998 0 0-29.100000000000023 30.800000000000068-107.70000000000005 70.89999999999998 0 0-26.499999999999943 16.5-64.89999999999998 21.40000000000009 0 0-76 7.699999999999932-111.89999999999998-11.100000000000023 0 0-10.5-4.600000000000023 95.69999999999999-53 0 0 6 26.5 23.900000000000034 23.899999999999977 0 0 26.5-6 19.69999999999999-54.700000000000045 0 0.10000000000002274 16.19999999999999-9.299999999999955 17.899999999999977-45.19999999999993z m73.19999999999999 146.60000000000002c-12.299999999999955-16.200000000000045-28.5-3.900000000000091-28.5-3.900000000000091-18.100000000000023 13-18.100000000000023 38.90000000000009-18.100000000000023 38.90000000000009 2.6000000000000227 20.09999999999991 12.300000000000068 26.59999999999991 12.300000000000068 26.59999999999991 18.100000000000023 12.300000000000068 32.39999999999998-9.099999999999909 32.39999999999998-9.099999999999909 18.700000000000045-32.40000000000009 1.8999999999999773-52.5 1.8999999999999773-52.5z m-16.100000000000023 50.19999999999993s-11.5 2.1000000000000227-12.799999999999955-9.399999999999977c0 0 11.100000000000023 1.2999999999999545 11.5-13.700000000000045 0 0 1.2999999999999545-11.5-9.399999999999977-13.199999999999932 0 0 23.899999999999977-20.100000000000023 27.299999999999955 8.5 0.10000000000002274 0 1.8000000000000682 26.899999999999977-16.600000000000023 27.799999999999955z m164.4000000000001-154.19999999999993c-16.200000000000045-16.90000000000009-29.100000000000023 10.099999999999909-29.100000000000023 10.099999999999909-10.100000000000023 31.800000000000068 2.699999999999932 46.60000000000002 2.699999999999932 46.60000000000002 13.5 16.200000000000045 26.40000000000009-3.3999999999999773 26.40000000000009-3.3999999999999773 18.899999999999977-32.299999999999955 0-53.299999999999955 0-53.299999999999955z m-4.400000000000091 48.39999999999998s-10.699999999999932 6-15-4.7000000000000455c0 0 4-1.1000000000000227 5.600000000000023-10.699999999999932 0 0 1.7000000000000455-10.700000000000045-7.699999999999932-12.800000000000068 0 0 11.5-22.600000000000023 22.59999999999991-5.100000000000023 0 0 11.100000000000023 20.5-5.5 33.30000000000007z"/>
</svg>
