<svg xmlns="http://www.w3.org/2000/svg" viewBox="0 0 1000 1000" width="1000" height="1000">
<path d="M576.4 777.7c-14.699999999999932-8.700000000000045-28.199999999999932-23.5-33.60000000000002-37.80000000000007-5.399999999999977-14.399999999999977-4.699999999999932-43.69999999999993-4.699999999999932-94.39999999999998v-224.39999999999998h204.10000000000002v-156.20000000000005h-204.10000000000002v-202.49999999999997h-125.60000000000002c-5.600000000000023 45.099999999999994-15.899999999999977 82.29999999999998-30.899999999999977 111.5-15 29.19999999999999-34.700000000000045 54.29999999999998-59.60000000000002 75.1-24.69999999999999 20.80000000000001-64.80000000000001 36.89999999999998-99.5 48v124h119.89999999999998v306.9c0 40.10000000000002 4.2000000000000455 70.60000000000002 12.700000000000045 91.70000000000005 8.5 21 23.599999999999966 41 45.599999999999966 59.69999999999993 21.900000000000034 18.600000000000023 48.30000000000001 33 79.40000000000003 43.10000000000002 31 10.100000000000023 54.799999999999955 15.100000000000023 95.10000000000002 15.100000000000023 35.5 0 68.5-3.6000000000000227 99.09999999999991-10.600000000000023 30.600000000000023-7.199999999999932 64.80000000000007-19.5 102.40000000000009-37v-138c-44.200000000000045 28.800000000000068-88.60000000000002 43.10000000000002-133.4000000000001 43.10000000000002-25 0-47.299999999999955-5.7999999999999545-66.89999999999998-17.299999999999955z"/>
</svg>
