<svg xmlns="http://www.w3.org/2000/svg" viewBox="0 0 1000 1000" width="1000" height="1000">
<path d="M856.8 363.7c-12.799999999999955 47.30000000000001-63 71.10000000000002-63 71.10000000000002-114.39999999999998-290.8-264-372.3-264-372.3-6.399999999999977 93.30000000000001-119.19999999999993 166.8-119.19999999999993 166.8l-78.30000000000001-41.20000000000002c12.599999999999966 66.20000000000002-27.80000000000001 128.00000000000003-27.80000000000001 128.00000000000003-162.1 105.89999999999998-99.80000000000001 323.69999999999993-99.80000000000001 323.69999999999993l-69.1-31.399999999999977c51.5 372.80000000000007 366 327.4 366 327.4 448.19999999999993-3.199999999999932 355.19999999999993-572.0999999999999 355.19999999999993-572.0999999999999z m-367.19999999999993 501.90000000000003c-268.90000000000003-1.8999999999999773-213.20000000000005-343.30000000000007-213.20000000000005-343.30000000000007 7.600000000000023 28.40000000000009 37.700000000000045 42.60000000000002 37.700000000000045 42.60000000000002 68.69999999999999-174.5 158.5-223.29999999999995 158.5-223.29999999999995 3.8999999999999773 55.89999999999998 71.5 100.09999999999997 71.5 100.09999999999997l47-24.80000000000001c-7.600000000000023 39.700000000000045 16.699999999999932 76.80000000000001 16.699999999999932 76.80000000000001 97.20000000000005 63.599999999999966 59.90000000000009 194.3 59.90000000000009 194.3l41.5-18.799999999999955c-30.90000000000009 223.5-219.60000000000002 196.39999999999998-219.60000000000002 196.39999999999998z"/>
</svg>
