<svg xmlns="http://www.w3.org/2000/svg" viewBox="0 0 1000 1000" width="1000" height="1000">
<path d="M634.1 167.6l-26.899999999999977 8.300000000000011c-11.600000000000023-34.5-27.600000000000023-59-47.60000000000002-73.2-14.800000000000068-10.5-31.100000000000023-15.100000000000009-48.700000000000045-13.700000000000003-3.6999999999999886-4.799999999999997-7.699999999999989-9.099999999999994-12.099999999999966-12.599999999999994-19.400000000000034-15.700000000000003-44.5-18.10000000000001-74.40000000000003-7.300000000000011-89.79999999999995 32.60000000000001-127.89999999999998 148.9-141.7 207.1l-78.19999999999999 24.19999999999999s-18.5 5.300000000000011-22.80000000000001 10.400000000000034c-4.699999999999989 5.699999999999989-5.699999999999989 21-5.699999999999989 21l-66.4 512.2 498.5 93.39999999999998 38.39999999999998-770.4c-5.399999999999977-1-11 0.19999999999998863-12.399999999999977 0.5999999999999943z m-126.70000000000005 39.20000000000002l-86.39999999999998 26.69999999999999c11.5-44.900000000000006 33.5-90.69999999999999 75.60000000000002-108.6 8.599999999999966 22.900000000000006 11.099999999999966 54.19999999999999 10.799999999999955 81.9z m-72.59999999999997-109.4c18.30000000000001-6.700000000000003 32.39999999999998-6.300000000000011 42.89999999999998 0.7999999999999972-56.39999999999998 25.700000000000003-81.09999999999997 90.60000000000001-91.69999999999999 146.10000000000002l-69.19999999999999 21.399999999999977c15.300000000000011-55.79999999999998 49.89999999999998-143.6 118-168.29999999999998z m48.39999999999998 377.4c-3.8999999999999773-1.8999999999999773-8.699999999999989-3.8999999999999773-13.899999999999977-5.999999999999943-5.300000000000011-1.900000000000034-11.100000000000023-3.900000000000034-17.400000000000034-5.300000000000011-6.2999999999999545-1.6000000000000227-13-2.8000000000000114-20.099999999999966-3.5-7-0.6999999999999886-14.400000000000034-1-22.100000000000023-0.5-7 0.39999999999997726-13.5 1.6999999999999886-19.099999999999966 3.6999999999999886-5.600000000000023 2-10.400000000000034 4.699999999999989-14.400000000000034 8.100000000000023-3.8999999999999773 3.3999999999999773-7.099999999999966 7.399999999999977-9.300000000000011 12.099999999999966-2.1999999999999886 4.600000000000023-3.5 9.900000000000034-3.7999999999999545 15.700000000000045-0.20000000000004547 4.2999999999999545 0.39999999999997726 8.399999999999977 2 12.399999999999977 1.5 4 3.8999999999999773 8 7.099999999999966 11.799999999999955 3.1999999999999886 3.900000000000091 7.400000000000034 7.800000000000068 12.300000000000011 11.800000000000068 5 4 10.899999999999977 8.100000000000023 17.69999999999999 12.299999999999955 9.5 6.100000000000023 19.30000000000001 13 28.5 20.800000000000068 9.400000000000034 8.099999999999909 18.30000000000001 17.09999999999991 25.900000000000034 27.299999999999955 7.699999999999989 10.399999999999977 14.199999999999989 22.100000000000023 18.5 35.200000000000045 4.399999999999977 13.199999999999932 6.599999999999966 27.699999999999932 5.899999999999977 43.799999999999955-1.1000000000000227 26.200000000000045-6.899999999999977 48.799999999999955-16.399999999999977 67.60000000000002-9.400000000000034 18.600000000000023-22.30000000000001 33.10000000000002-37.900000000000034 43.60000000000002-15.199999999999989 10.299999999999955-32.89999999999998 16.699999999999932-52.19999999999999 19.299999999999955-18.600000000000023 2.5-38.69999999999999 1.3999999999999773-59.30000000000001-3.2000000000000455l-0.5-0.09999999999990905-0.39999999999997726-0.10000000000002274-0.5-0.10000000000002274-0.5-0.10000000000002274c-9.600000000000023-2.3999999999999773-19-5.399999999999977-27.69999999999999-8.899999999999977s-16.80000000000001-7.399999999999977-24.200000000000045-11.799999999999955c-7.299999999999983-4.2000000000000455-13.899999999999977-8.800000000000068-19.599999999999966-13.5-5.700000000000017-4.600000000000023-10.400000000000006-9.5-14.200000000000017-14.400000000000091l22.80000000000001-75.5c3.9000000000000057 3.2000000000000455 8.599999999999994 6.900000000000091 13.900000000000006 10.700000000000045 5.399999999999977 3.8999999999999773 11.5 7.7000000000000455 18 11.399999999999977s13.699999999999989 7.100000000000023 20.80000000000001 9.899999999999977c7.399999999999977 2.800000000000068 14.899999999999977 5 22.299999999999955 6 6.600000000000023 1 12.5 0.8000000000000682 17.700000000000045-0.39999999999997726 5.2999999999999545-1.1000000000000227 9.599999999999966-3.2999999999999545 13.299999999999955-6.2999999999999545 3.7000000000000455-3 6.5-6.7000000000000455 8.5-10.899999999999977 2-4.300000000000068 3.2000000000000455-9.200000000000045 3.3000000000000114-14.400000000000091 0.30000000000001137-5.199999999999932-0.30000000000001137-10.099999999999909-1.599999999999966-14.899999999999977-1.3000000000000114-4.699999999999932-3.400000000000034-9.399999999999977-6.5-14s-7-9.199999999999932-12.100000000000023-13.899999999999977c-5-4.7000000000000455-10.899999999999977-9.600000000000023-18-14.799999999999955-8.699999999999989-6.5-16.899999999999977-13.5-24.19999999999999-21.200000000000045-7.300000000000011-7.5-13.699999999999989-15.799999999999955-18.900000000000034-24.600000000000023-5.199999999999989-8.799999999999955-9.299999999999955-18.299999999999955-11.899999999999977-28.600000000000023-2.6000000000000227-10.199999999999932-3.8999999999999773-21.399999999999977-3.3000000000000114-33.5 0.9000000000000341-20.299999999999955 4.900000000000034-38.89999999999998 11.699999999999989-55.69999999999993 6.800000000000011-17 16.5-32.30000000000001 28.80000000000001-45.400000000000034 12.400000000000034-13.399999999999977 27.600000000000023-24.69999999999999 44.900000000000034-33.39999999999998 17.899999999999977-8.900000000000034 38.39999999999998-15.199999999999989 61.099999999999966-18.19999999999999 10.5-1.400000000000034 20.69999999999999-2 30.19999999999999-2.1000000000000227 9.700000000000045-0.10000000000002274 18.80000000000001 0.5 27.200000000000045 1.6000000000000227 8.5 1.099999999999966 16.299999999999955 2.6999999999999886 23.099999999999966 4.599999999999966 6.900000000000034 1.900000000000034 13 4.300000000000011 17.900000000000034 6.800000000000011l-33.400000000000034 98.80000000000001z m54.19999999999999-277.29999999999995c0-3.4000000000000057-0.10000000000002274-6.800000000000011-0.2999999999999545-10.300000000000011-1.1000000000000227-27-4.600000000000023-49.599999999999994-10.899999999999977-67.89999999999999 6.699999999999932 0.7000000000000028 13 2.9000000000000057 18.59999999999991 6.900000000000006 15.700000000000045 11.100000000000009 27 33.39999999999999 34.80000000000007 58.3l-42.200000000000045 13z m257.30000000000007 36.19999999999999s-0.7000000000000455-3.8999999999999773-3-5.299999999999983-4.600000000000023-1.700000000000017-4.600000000000023-1.700000000000017l-70.39999999999998-5.299999999999983-51.80000000000007-51.400000000000006c-1.8999999999999773-1.5-4.199999999999932-2.4000000000000057-6.600000000000023-2.8000000000000114l-38.299999999999955 770.3 270.1-58.5-95.39999999999998-645.3z"/>
</svg>
