<svg xmlns="http://www.w3.org/2000/svg" viewBox="0 0 1000 1000" width="1000" height="1000">
<path d="M153.1 846.9h693.9v-693.8h-693.9v693.8z m259.79999999999995-326.29999999999995s-21.599999999999966 25-24.5 79.69999999999993c0 0-2.8999999999999773 37 10.900000000000034 120.80000000000007 0 0 8.599999999999966 51.799999999999955 11.399999999999977 59.89999999999998 0 0 10.800000000000011 38.799999999999955-19.30000000000001 31.299999999999955 0 0-30.799999999999955-5.199999999999932-55.799999999999955-40.39999999999998 0 0-55.200000000000045-70.10000000000002-39.900000000000034-178.29999999999995 0 0 3.400000000000034-87.80000000000001 64.40000000000003-139 0 0 50.099999999999966-52.400000000000034 127-43.80000000000001 0 0 43.799999999999955 2.8000000000000114 24.5 34.19999999999999 0 0-17.700000000000045 15.399999999999977-27.400000000000034 22.19999999999999-0.0999999999999659-0.30000000000001137-54.89999999999998 32.80000000000001-71.30000000000001 53.400000000000034z m326.9 167.29999999999995s-27.899999999999977 51.30000000000007-100.79999999999995 66.10000000000002c0 0-59.200000000000045 13.100000000000023-125.29999999999995-37 0 0-54.10000000000002-38.799999999999955-61.50000000000006-92.79999999999995 0 0-6.800000000000011-59.200000000000045 28.400000000000034-103.70000000000005 0 0 43.799999999999955-54.19999999999999 51.799999999999955-5.2000000000000455 0 0 2.800000000000068 58.10000000000002 8.600000000000023 75.20000000000005 0 0 18.799999999999955 53 86.60000000000002 57 0 0 43.799999999999955 3.3999999999999773 82.10000000000002-12.5 0 0 33.59999999999991-11.399999999999977 45.59999999999991-0.5-0.09999999999990905 0 17.600000000000023 5.100000000000023-15.5 53.39999999999998z m-176.0999999999999-285.29999999999995s19.199999999999932-22.700000000000045 56-15.800000000000011c16 3 39.69999999999993 18 46.5 43.19999999999999 0 0 22.699999999999932 63.69999999999999-35.90000000000009 85.10000000000002 0 0-46.5 14.5-76.89999999999998-21.400000000000034 0-0.0999999999999659-31.199999999999932-37.30000000000001 10.300000000000068-91.09999999999997z m-56.900000000000034-215.90000000000003s23.999999999999943-14.799999999999983 66.09999999999997-2.299999999999983c0 0 87.70000000000005 23.900000000000006 158.39999999999998 121.9 0 0 82.60000000000002 125.30000000000001 23.40000000000009 217.59999999999997 0 0-12.5 24.5-35.40000000000009 31.899999999999977 0 0-20 9.700000000000045-15.399999999999977-30.799999999999955 0 0 4.5-69.5-17.100000000000023-108.19999999999999 0 0-21.59999999999991-62.60000000000002-84.39999999999998-98 0 0-55.799999999999955-39.900000000000034-72.89999999999998-50.10000000000002 0 0-30.69999999999999-22.799999999999983-41-36.5 0.10000000000002274 0-23.80000000000001-27.299999999999983 18.30000000000001-45.5z m-323.5 305.90000000000003s21.599999999999994-76.30000000000001 100.80000000000001-132.70000000000005c0 0 70.09999999999997-47.19999999999999 158.39999999999998-51.299999999999955 0 0 48.39999999999998-3.400000000000034 86.60000000000002 16.5 0 0 42.69999999999993 17.099999999999966 13.100000000000023 37 0 0-51.30000000000007 18.19999999999999-79.20000000000005 23.399999999999977 0 0-60.39999999999998 13.600000000000023-115.10000000000002 52.89999999999998 0 0-44.39999999999998 34.700000000000045-64.39999999999998 64.90000000000003 0 0-31.30000000000001 50.099999999999966-44.400000000000006 56.99999999999994 0 0-22.799999999999983 28.40000000000009-51.79999999999998 5.7000000000000455 0 0.10000000000002274-24-23.299999999999955-4-73.39999999999998z m15.899999999999977-430.1l-6.799999999999983 49.5 403.30000000000007-0.9000000000000057-396.50000000000006-48.599999999999994z m688.8 130.7l0.7000000000000455 403.3 48.799999999999955-396.5-49.5-6.800000000000011z m-81.5 744.3l7.2999999999999545-49.5-397.49999999999994-0.10000000000002274 390.2 49.60000000000002z m-744-135.60000000000002l49.599999999999994 6.600000000000023v-402.5l-49.599999999999994 395.9z"/>
</svg>
