<svg xmlns="http://www.w3.org/2000/svg" viewBox="0 0 1000 1000" width="1000" height="1000">
<path d="M502.4 83.9c135.10000000000002 3.8999999999999915 257.80000000000007 44.599999999999994 352.4 149.7 104.10000000000002 115.6 111.40000000000009 270.70000000000005 13.600000000000023 391.9-97.89999999999998 121.5-225.19999999999993 207.60000000000002-361.2 281.29999999999995-11.699999999999989 6.300000000000068-25.69999999999999 13.800000000000068-37.5 5.900000000000091-15.099999999999966-10.100000000000023-6.199999999999989-26.800000000000068-3.8000000000000114-40.30000000000007 11.900000000000034-65.89999999999998 7.100000000000023-73.19999999999993-56.099999999999966-86.29999999999995-85.40000000000003-17.800000000000068-165-48.80000000000007-231.60000000000002-107-151.7-132.5-154.5-337-6-473.5 92.19999999999999-84.80000000000003 204.10000000000002-118.70000000000002 330.2-121.70000000000002z m78.89999999999998 365.6c-2.5 1.1999999999999886-5 2.5-7.599999999999909 3.6999999999999886-25.300000000000068-33.30000000000001-50.60000000000002-66.59999999999997-75.80000000000007-100.09999999999997-7.699999999999989-10.200000000000045-16.599999999999966-17.700000000000045-30.099999999999966-14.200000000000045-14.300000000000011 3.7000000000000455-17.100000000000023 15.900000000000034-17.19999999999999 28.100000000000023-0.4000000000000341 51.60000000000002-0.4000000000000341 103.30000000000001-0.20000000000004547 154.89999999999998 0.10000000000002274 15.800000000000068 5.300000000000011 30.800000000000068 23.700000000000045 30.399999999999977 17.899999999999977-0.39999999999997726 23.099999999999966-14.399999999999977 22.799999999999955-31-0.39999999999997726-27.099999999999966-0.0999999999999659-54.19999999999993-0.0999999999999659-81.39999999999998 33.30000000000001 30.80000000000001 58.30000000000001 64.20000000000005 83.30000000000001 97.5 7.399999999999977 9.899999999999977 16.199999999999932 18.600000000000023 29.899999999999977 14.300000000000068 13.600000000000023-4.300000000000068 16.399999999999977-16 16.399999999999977-28.700000000000045v-155c0-16.19999999999999-4.2999999999999545-30.5-23.5-29.80000000000001-19.600000000000023 0.6000000000000227-21.399999999999977 16.5-21.5 31.80000000000001-0.2999999999999545 26.69999999999999-0.10000000000002274 53.10000000000002-0.10000000000002274 79.5z m75.60000000000002-6.800000000000011h0.20000000000004547c0 26.5-0.20000000000004547 53 0.10000000000002274 79.40000000000003 0.09999999999990905 16.100000000000023 5.699999999999932 30.399999999999977 23.5 31.299999999999955 29 1.5 58.19999999999993 1.2000000000000455 87.19999999999993-0.39999999999997726 12.800000000000068-0.7000000000000455 22.100000000000023-9.799999999999955 21.100000000000023-24.200000000000045-0.8999999999999773-12.199999999999932-9.799999999999955-18.999999999999943-21.100000000000023-20.199999999999932-14.399999999999977-1.6000000000000227-29.100000000000023-1.6000000000000227-43.60000000000002-1.400000000000034-14.599999999999909 0.19999999999998863-21.699999999999932-5-21.199999999999932-20.899999999999977 0.5-14.600000000000023 8.199999999999932-17.69999999999999 20.299999999999955-17.600000000000023 13.200000000000045 0.10000000000002274 26.5 0.4000000000000341 39.700000000000045-0.5 14.5-1.099999999999966 26-7.5 25.799999999999955-24.099999999999966-0.1999999999999318-14.800000000000011-11.600000000000023-20.100000000000023-24-21.80000000000001-10.399999999999977-1.400000000000034-21.100000000000023-0.6000000000000227-31.699999999999932-1-14-0.6000000000000227-30.700000000000045 3.5-30-20.100000000000023 0.6999999999999318-24.5 18.899999999999977-16.599999999999966 31.799999999999955-18 9.200000000000045-1 18.600000000000023 0.30000000000001137 27.799999999999955-0.5999999999999659 14.400000000000091-1.3000000000000114 26.5-7 26.100000000000023-23.700000000000045-0.2999999999999545-14.5-11.299999999999955-19.299999999999955-23.899999999999977-22-86.5-18.599999999999966-108.10000000000002-1.5-108.20000000000005 86.20000000000005 0.10000000000002274 6.399999999999977 0.10000000000002274 13 0.10000000000002274 19.599999999999966z m-439 2.400000000000034c2.842170943040401e-14 25.19999999999999-0.19999999999998863 50.299999999999955 0.10000000000002274 75.5 0.19999999999998863 17.799999999999955 6.699999999999989 32.299999999999955 26.5 33.10000000000002 27.69999999999999 1.1999999999999318 55.60000000000002 1.099999999999909 83.30000000000001-0.5 12.399999999999977-0.7000000000000455 23.19999999999999-8.700000000000045 23-22.90000000000009-0.19999999999998863-14.199999999999932-11-20.399999999999977-23.600000000000023-22.299999999999955-7.800000000000011-1.1999999999999886-16.099999999999966-1.8999999999999773-23.80000000000001-0.6999999999999886-33.5 5.599999999999966-40.5-11-38.5-40.60000000000002 2.1000000000000227-30.30000000000001 0.30000000000001137-60.89999999999998 0.4000000000000341-91.39999999999998 0.0999999999999659-18.100000000000023-0.9000000000000341-37.400000000000034-24.80000000000001-37-21.30000000000001 0.30000000000001137-22.599999999999994 18.599999999999966-22.80000000000001 35.099999999999966 0 24 0.10000000000002274 47.80000000000001 0.20000000000001705 71.70000000000005z m153.5-5c0 27.799999999999955-0.39999999999997726 55.69999999999999 0.10000000000002274 83.5 0.30000000000001137 16.399999999999977 7.899999999999977 30.100000000000023 25.5 28.899999999999977 14.899999999999977-1 21.5-13.899999999999977 21.5-28.899999999999977 0-53 0.19999999999998863-106-0.10000000000002274-159-0.0999999999999659-15.100000000000023-7.399999999999977-26.200000000000045-23.399999999999977-26.5-16.80000000000001-0.4000000000000341-22.899999999999977 12.099999999999966-23.399999999999977 26.5-0.7000000000000455 25.099999999999966-0.10000000000002274 50.299999999999955-0.20000000000004547 75.5z"/>
</svg>
