<svg xmlns="http://www.w3.org/2000/svg" viewBox="0 0 1000 1000" width="1000" height="1000">
<path d="M883.4 602.3c-14.399999999999977 2.400000000000091-28.600000000000023 5.300000000000068-43.10000000000002 6.800000000000068-18.09999999999991 2-36.19999999999993 3.2999999999999545-54.39999999999998 4.199999999999932-5.600000000000023 0.3000000000000682-8.199999999999932 2.1000000000000227-10.699999999999932 7-53.700000000000045 107.30000000000007-125.20000000000005 201.10000000000002-214.30000000000007 281.5-13 11.700000000000045-26.899999999999977 22.600000000000023-43.19999999999993 29.5-21.400000000000034 8.900000000000091-42.60000000000002 8.300000000000068-63.400000000000034-2-26.100000000000023-12.899999999999977-47.60000000000002-31.899999999999977-68.10000000000002-52.09999999999991-51-50.40000000000009-90.19999999999999-109.40000000000009-123.39999999999998-172.60000000000002-45.900000000000006-87.30000000000007-77.9-179.70000000000005-102.4-274.8-19.30000000000001-75-33-151.10000000000002-43.5-227.70000000000002-0.4000000000000057-2.5-0.4000000000000057-4.900000000000006-0.7000000000000028-7.799999999999983h148.7c1.6000000000000227 11.799999999999983 3 23.599999999999994 4.600000000000023 35.5 18.600000000000023 134.7 49.10000000000002 266.09999999999997 109.30000000000001 388.99999999999994 30.19999999999999 61.60000000000002 67.5 118.60000000000002 110.89999999999998 171.70000000000005 1.400000000000034 1.7999999999999545 3 3.3999999999999773 4.900000000000034 5.7000000000000455 61.799999999999955-62.700000000000045 110.60000000000002-134.10000000000002 150.19999999999993-212.30000000000007-1-0.8999999999999773-1.5-1.6000000000000227-2.2999999999999545-1.8999999999999773-71-38.200000000000045-115.70000000000005-97.89999999999998-139.8-173.60000000000002-19.80000000000001-62.099999999999966-24.5-125.39999999999998-8.899999999999977-189.29999999999998 13.199999999999989-54 40.80000000000001-98.6 89.09999999999997-128.39999999999998 38.700000000000045-23.80000000000001 81.30000000000007-30.600000000000016 125.89999999999998-27.500000000000014 29.100000000000023 2 57.200000000000045 8.5 83 22.700000000000003 44 24.19999999999999 69.40000000000009 62.69999999999999 81.60000000000002 110.4 4.399999999999977 17.099999999999994 5.899999999999977 34.89999999999998 8.600000000000023 52.39999999999998 0.39999999999997726 2.6000000000000227 0.8999999999999773 5.300000000000011 1.2999999999999545 8v35.5c-1.3999999999999773 11.900000000000034-2.5 23.900000000000034-4.099999999999909 35.80000000000001-4.300000000000068 31.69999999999999-12 62.5-24.300000000000068 92.10000000000002-1.6000000000000227 3.6999999999999886-3.199999999999932 6.199999999999989-7.699999999999932 6.199999999999989-16.300000000000068 0.30000000000001137-32.80000000000007 2.5-48.90000000000009 0.8000000000000114-27.5-2.8000000000000114-50.69999999999993-15.300000000000011-68.69999999999993-36.80000000000001-3.2000000000000455-3.8000000000000114-4.100000000000023-7.199999999999989-2.6000000000000227-12.300000000000011 9.899999999999977-34.30000000000001 16.399999999999977-69.10000000000002 14.299999999999955-105-1.099999999999909-18.599999999999994-4.199999999999932-36.69999999999999-13.699999999999932-53-18-31.099999999999994-57.700000000000045-34.69999999999999-81.20000000000005-7.599999999999994-9 10.400000000000006-14.299999999999955 22.69999999999999-17.399999999999977 35.900000000000006-8.700000000000045 36-6.600000000000023 72 1.6000000000000227 107.69999999999999 11.899999999999977 51.89999999999998 38.39999999999998 94.30000000000001 85 121.89999999999998 52.89999999999998 31.400000000000034 109.60000000000002 32.80000000000001 167.89999999999998 19.5l-0.10000000000002274 104.89999999999998z"/>
</svg>
