<svg xmlns="http://www.w3.org/2000/svg" viewBox="0 0 1000 1000" width="1000" height="1000">
<path d="M349 296.3c3.5 21.5 5.699999999999989 41.69999999999999 10.100000000000023 61.5 5.599999999999966 24.80000000000001 17.5 46.69999999999999 33 66.80000000000001 4.599999999999966 6 8.5 6.5 14.399999999999977 2 69.10000000000002-50.900000000000034 120.70000000000005-113.70000000000005 135.60000000000002-201.20000000000002 8.699999999999932-51.20000000000002 3.699999999999932-101.30000000000001-11.700000000000045-150.7-1.1000000000000227-3.500000000000014-2.3999999999999773-7.000000000000014-4.199999999999932-12.300000000000018 2.5 1.5 3.8999999999999773 2.000000000000007 4.899999999999977 3.000000000000007 99 92.4 185.60000000000002 194.49999999999997 244.60000000000002 317.6 41.19999999999993 85.89999999999998 64.79999999999995 176 59.09999999999991 272-7.099999999999909 118.70000000000005-64.09999999999991 204.29999999999995-175.29999999999995 248.5-128.70000000000005 51.200000000000045-255.60000000000002 46.10000000000002-375.6-27-57.79999999999998-35.299999999999955-99.79999999999998-84.89999999999998-114.69999999999999-153-11.099999999999994-51-3.299999999999983-101.29999999999995 11.700000000000017-150.39999999999998 26-84.60000000000002 71.9-158.5 126.29999999999998-227.3 13.5-16.80000000000001 27.80000000000001-32.900000000000034 41.80000000000001-49.5z"/>
</svg>
