<svg xmlns="http://www.w3.org/2000/svg" viewBox="0 0 1000 1000" width="1000" height="1000">
<path d="M500 62.5c-241.60000000000002 0-437.5 195.89999999999998-437.5 437.5s195.89999999999998 437.5 437.5 437.5 437.5-195.89999999999998 437.5-437.5-195.89999999999998-437.5-437.5-437.5z m-210.5 496.6h-83.9l22.900000000000006-105.60000000000002h80.39999999999998c52.30000000000001 0 64.70000000000005 25.600000000000023 64.70000000000005 45.89999999999998 0 28.800000000000068-18.80000000000001 59.700000000000045-84.10000000000002 59.700000000000045z m28.899999999999977-159.10000000000002h-83.69999999999999l22.69999999999999-105.69999999999999h80.5c52.200000000000045 0 64.70000000000005 25.69999999999999 64.70000000000005 46 0 28.80000000000001-18.700000000000045 59.69999999999999-84.20000000000005 59.69999999999999z m164.20000000000005 324.9h-83.90000000000003l22.80000000000001-105.79999999999995h80.5c52.200000000000045 0 64.60000000000002 25.799999999999955 64.60000000000002 46.10000000000002 0 28.799999999999955-18.600000000000023 59.69999999999993-84 59.69999999999993z m31-165.79999999999995h-83.70000000000005l22.700000000000045-105.60000000000002h80.5c52.19999999999993 0 64.60000000000002 25.600000000000023 64.60000000000002 45.89999999999998 0 28.800000000000068-18.600000000000023 59.700000000000045-84.10000000000002 59.700000000000045z m29.100000000000023-159.10000000000002h-83.70000000000005l22.80000000000001-105.69999999999999h80.30000000000001c52.299999999999955 0 64.79999999999995 25.69999999999999 64.79999999999995 46-0.10000000000002274 28.80000000000001-18.699999999999932 59.69999999999999-84.19999999999993 59.69999999999999z m163.89999999999998 245.20000000000005h-83.80000000000007l22.800000000000068-105.70000000000005h80.39999999999998c52.200000000000045 0 64.70000000000005 25.799999999999955 64.70000000000005 46.10000000000002 0 28.699999999999932-18.600000000000023 59.60000000000002-84.10000000000002 59.60000000000002z m31.199999999999932-150.60000000000002h-83.79999999999995l22.799999999999955-105.70000000000005h80.5c52.200000000000045 0 64.60000000000002 25.700000000000045 64.60000000000002 46 0 28.80000000000001-18.600000000000023 59.700000000000045-84.10000000000002 59.700000000000045z"/>
</svg>
