<svg xmlns="http://www.w3.org/2000/svg" viewBox="0 0 1000 1000" width="1000" height="1000">
<path d="M248.4 815.5l-0.09999999999999432 0.20000000000004547h4.5c2.299999999999983 0.09999999999990905 4.599999999999966 0.39999999999997726 6.899999999999977 0.39999999999997726 2.400000000000034 0 4.600000000000023-0.3000000000000682 6.900000000000034-0.39999999999997726l438.5-0.10000000000002274c3.199999999999932 0.10000000000002274 6.2999999999999545 0.5 9.600000000000023 0.5 123 0 222.69999999999993-100.5 222.69999999999993-224.5s-99.69999999999993-224.5-222.69999999999993-224.5c-4.5 0-9 0.39999999999997726-13.400000000000091 0.6999999999999886-19.09999999999991-104.40000000000003-109.69999999999993-183.60000000000002-218.79999999999995-183.60000000000002-123 0-222.7 100.5-222.7 224.5 0 3.3000000000000114 0.39999999999997726 6.5 0.5 9.699999999999989h-0.5c-108.9 0-197.3 89-197.3 198.89999999999998 0 105.90000000000009 82.30000000000001 192.20000000000005 185.9 198.20000000000005z"/>
</svg>
