<svg xmlns="http://www.w3.org/2000/svg" viewBox="0 0 1000 1000" width="1000" height="1000">
<path d="M993.9 383.6c-29.799999999999955-109.30000000000001-92.60000000000002-193.00000000000003-181.69999999999993-242.00000000000003-48.40000000000009-26.69999999999999-103.80000000000007-42.5-161.80000000000007-46.89999999999999-30-2.299999999999997-60.39999999999998-1.2000000000000028-90.89999999999998 2.700000000000003-303.1 17-411.7 217.99999999999997-412.6 222.20000000000002-0.4999999999999716 2.2999999999999545-4.999999999999972 22.899999999999977-6.899999999999977 44.19999999999999-0.9000000000000057 8.899999999999977-1.4000000000000057 18.599999999999966-0.5 28-9.900000000000006 5.199999999999989-16.5 15.800000000000011-15.599999999999994 27.599999999999966 1 15.800000000000011 14.699999999999989 27.900000000000034 30.599999999999994 26.80000000000001 39-2.6999999999999886 70.6 1.1999999999999886 94.30000000000001 11.400000000000034l-2.6000000000000227 13c-7.899999999999977 41.19999999999999-17.299999999999983 89.19999999999993-29.5 137-6.199999999999989-0.20000000000004547-12.599999999999994-0.5-19.69999999999999-0.7000000000000455-29.900000000000006-1.2999999999999545-38.900000000000006-35.299999999999955-110.6-35.60000000000002-28.500000000000007 1.3000000000000682-50.300000000000004 3.5-64.2 19.5-9.000000000000004 10.200000000000045-11.100000000000003 22.40000000000009-11.200000000000003 32.5 0 1.900000000000091 0.09999999999999964 3.6000000000000227 0.1999999999999993 5.400000000000091-1 14.099999999999909-8.899999999999999 152.0999999999999-11.2 240.5-0.1 13.199999999999932 8.1 24.399999999999977 20.2 28.199999999999932 51 15.899999999999977 97.6 11.700000000000045 138.4-12.699999999999932 66.5-39.60000000000002 74.4-93.40000000000009 102.00000000000003-186.80000000000007 14.299999999999955-0.1999999999999318 30.19999999999999-0.7999999999999545 50.39999999999998-2.199999999999932 1.1999999999999886 17.09999999999991 5.199999999999989 34.69999999999993 14.5 66.39999999999998 21.5 45.89999999999998 53.19999999999999 74.79999999999995 94.39999999999998 86.89999999999998 83.30000000000001 24.399999999999977 153.70000000000005 72.79999999999995 225.20000000000005 28 22.399999999999977-16.799999999999955 66.69999999999993-40.799999999999955 123.29999999999995-24.100000000000023 1.1000000000000227 0.8000000000000682 2.300000000000068 1.7000000000000455 3.300000000000068 2.3999999999999773 21.59999999999991 12 68.29999999999995 18.200000000000045 83.69999999999993 20.300000000000068 18.200000000000045 2.2999999999999545 30.300000000000068-0.20000000000004547 38.5-19 2.8999999999999773-6.899999999999977 4.899999999999977-14.200000000000045 9.5-35.5 1.2000000000000455-5.5 1.8999999999999773-10.200000000000045 2.2000000000000455-14.300000000000068l0.6000000000000227-3c1.2999999999999545-7 3.5-16.59999999999991 6.199999999999932-28.799999999999955 15.700000000000045-68.70000000000005 112.60000000000002-276.2 81.5-391.4z m-864.7 451.79999999999995c-21.199999999999932 12.600000000000023-44.49999999999993 16.600000000000023-70.99999999999993 12.100000000000023 0.7999999999999972-23 2-46.5 3.1999999999999957-68.79999999999995 2.3000000000000043-5.7000000000000455 6.000000000000007-11.700000000000045 11.899999999999999-17.300000000000068 16-15.199999999999932 19.5 2.1000000000000227 97.7 12.700000000000045-19.69999999999999 41.60000000000002-11.5 43.19999999999993-41.80000000000001 61.299999999999955z m54.90000000000006-92.10000000000002c-68.1-10.5-86.8-37.19999999999993-119.69999999999999-15.699999999999932 2.299999999999997-37.200000000000045 4.299999999999997-95.5 4.299999999999997-96 3.8999999999999915-1.8000000000000682 9.599999999999994-2.300000000000068 18.299999999999997-2.7000000000000455 70.1 0.3000000000000682 78.19999999999999 66.5 107.69999999999999 67.70000000000005 2.1000000000000227 0.10000000000002274 3.9000000000000057 0.1999999999999318 5.800000000000011 0.2999999999999545-4.900000000000006 16-10.400000000000006 31.399999999999977-16.400000000000006 46.39999999999998z m121.79999999999998-137.0999999999999c-11.199999999999989 0.6999999999999318-20.899999999999977 1.1999999999999318-29.799999999999955 1.5 8.199999999999989-33.90000000000009 15.099999999999966-67.60000000000002 21.399999999999977-99.40000000000003 12 31.69999999999999 9.899999999999977 69.90000000000003 8.399999999999977 97.90000000000003z m226.10000000000002 49.5c-33.60000000000002 0-60.80000000000001-27.200000000000045-60.80000000000001-60.700000000000045 0-33.60000000000002 27.19999999999999-60.799999999999955 60.80000000000001-60.799999999999955 33.5 0 60.60000000000002 27.199999999999932 60.60000000000002 60.799999999999955 0 33.5-27.100000000000023 60.700000000000045-60.60000000000002 60.700000000000045z"/>
</svg>
