<svg xmlns="http://www.w3.org/2000/svg" viewBox="0 0 1000 1000" width="1000" height="1000">
<path d="M403.8 0h22.399999999999977c15.800000000000011 8.9 33.80000000000001 9.9 50.900000000000034 13.8 42.89999999999998 9.899999999999999 53.5 21.2 55.19999999999993 65 3.800000000000068 93.8 7.600000000000023 187.7 9.700000000000045 281.59999999999997 0.5 21.400000000000034 6.7999999999999545 22.700000000000045 24.600000000000023 17.400000000000034 11.399999999999977-3.400000000000034 12.799999999999955-11.600000000000023 15.699999999999932-19.30000000000001 18.800000000000068-50.10000000000002 37-100.39999999999998 55.90000000000009-150.5 11.299999999999955-30 29-42.80000000000001 54.19999999999993-40.30000000000001 20 2 40 5.700000000000017 60 5.900000000000006 19.200000000000045 0.09999999999999432 31.899999999999977 8.5 41.5 23.80000000000001v26.900000000000006c-21.299999999999955 33.39999999999998-30.399999999999977 36.80000000000001-70.10000000000002 26.299999999999983-11.5-3.0999999999999943-23.5-5-34.39999999999998-9.5-13.799999999999955-5.799999999999983-19.799999999999955-1.9000000000000057-24.5 11.800000000000011-10.100000000000023 29.599999999999994-20.899999999999977 58.99999999999997-32.799999999999955 87.9-6.5 15.899999999999977-11.399999999999977 28.30000000000001 12.100000000000023 33.19999999999999 8.5 1.8000000000000114 15 10.300000000000011 18.399999999999977 18.600000000000023 3.7999999999999545 9.299999999999955 9.899999999999977 10.899999999999977 19 11.699999999999989 24.899999999999977 2.3000000000000114 35.5 14.300000000000011 35.89999999999998 39.5 0.39999999999997726 24.599999999999966 0.39999999999997726 49.30000000000001 0 73.90000000000003-0.39999999999997726 24.699999999999932-8.399999999999977 35-33.39999999999998 39.09999999999991-11.5 1.900000000000091-14.899999999999977 6.400000000000091-14.600000000000023 17.300000000000068 0.5 27.600000000000023 1.2000000000000455 55.299999999999955-0.20000000000004547 82.89999999999998-0.8999999999999773 17.899999999999977 5.300000000000068 24.700000000000045 22.800000000000068 22.399999999999977 5.100000000000023-0.6999999999999318 10.399999999999977-0.2999999999999545 15.699999999999932 0 30.40000000000009 1.3999999999999773 41.90000000000009 12.600000000000023 42.10000000000002 42.60000000000002 0.39999999999997726 59 0.39999999999997726 118 0 177-0.1999999999999318 29.700000000000045-12.699999999999932 41.5-42.60000000000002 42.200000000000045-6.699999999999932 0.1999999999999318-13.5 0.5-20.199999999999932-0.10000000000002274-11.399999999999977-1-17.100000000000023 2-19.100000000000023 15-4.399999999999977 28.199999999999932-22.200000000000045 43.299999999999955-50.799999999999955 43.5-71.70000000000005 0.6000000000000227-143.40000000000003 0.6000000000000227-215.00000000000006 0-31.099999999999966-0.3000000000000682-50.099999999999966-18.800000000000068-52.39999999999998-49.60000000000002-1.1000000000000227-14.100000000000023-2-28.5-0.4000000000000341-42.5 2.6000000000000227-23.5-4.7999999999999545-41.299999999999955-22.599999999999966-57-10.400000000000034-9.100000000000023-18.5-21.600000000000023-25.400000000000034-33.799999999999955-45.69999999999999-80.20000000000005-53.99999999999997-166.20000000000005-35.799999999999955-255.30000000000007 7.2999999999999545-35.69999999999993 23-68.29999999999995 54.5-89.39999999999998 16.399999999999977-11 33.69999999999999-19.69999999999999 43.69999999999999-38.5 5.300000000000011-9.899999999999977 17-15.100000000000023 28.5-15.600000000000023 16.5-0.7999999999999545 17.899999999999977-7 12.399999999999977-21.299999999999955-19.69999999999999-50.60000000000002-38.39999999999998-101.70000000000005-57.39999999999998-152.60000000000002-18.400000000000034-49.19999999999999-18.5-49.19999999999999-69.80000000000001-35-40.400000000000006 11.199999999999989-48.099999999999994 8.400000000000006-70.69999999999999-25.099999999999994v-26.900000000000006c8.399999999999977-17 22.399999999999977-24.30000000000001 41-25.099999999999994 14.899999999999977-0.5999999999999943 29.80000000000001-1.9000000000000057 44.599999999999966-3.8000000000000114 41.200000000000045-5.5 56.5 3.4000000000000057 71.30000000000001 42.900000000000006 25.5 68.30000000000001 50.900000000000034 136.7 76.30000000000001 205.10000000000002 10.899999999999977 29.299999999999955 10.800000000000011 29.299999999999955 41.80000000000001 21.69999999999999 2.8999999999999773-0.6999999999999886 5.699999999999989-2.1999999999999886 8.599999999999966-2.3000000000000114 11-0.39999999999997726 13.200000000000045-6.699999999999989 12.900000000000034-16.399999999999977-3.6000000000000227-91.70000000000005-7.100000000000023-183.40000000000003-10.199999999999989-275.1-0.4000000000000341-11.900000000000006-5.800000000000011-14.900000000000006-16.600000000000023-15.099999999999994-18.600000000000023-0.5-37.19999999999999-2.200000000000003-55.80000000000001-3.700000000000003-25.30000000000001-2.1000000000000085-41.30000000000001-22.5-38.5-47.800000000000004 1.1999999999999886-16.2 11.900000000000034-26.4 21.600000000000023-37.4z m-56.900000000000034 788.1v-269c-53.19999999999999 29.199999999999932-47.69999999999999 208.5 0 269z"/>
</svg>
