<svg xmlns="http://www.w3.org/2000/svg" viewBox="0 0 1000 1000" width="1000" height="1000">
<path d="M963.6 588.8h-636.3v-35.59999999999991h646.6999999999999s78.79999999999995-76.70000000000005-38.200000000000045-99.50000000000006c0 0-132-11.800000000000011-274.19999999999993-59.099999999999966l-94.39999999999998 67.29999999999995-21-29.299999999999955 74.09999999999991-52.80000000000001c-9.599999999999909-3.5-19-7.400000000000034-28.5-11.300000000000011l-109.69999999999993 78.30000000000001-20.900000000000034-29.400000000000034 92.59999999999997-66c-9.799999999999955-4.599999999999966-19.399999999999977-9.5-29-14.599999999999966l-111.69999999999993 79.69999999999999-20.900000000000034-29.30000000000001 98.30000000000001-70.09999999999997c-111.89999999999998 8.899999999999977-130.89999999999998-144.40000000000003-157.7-172.90000000000003l-277.40000000000003-0.09999999999999432c-5.699999999999974-0.9000000000000057-11.899999999999977-0.799999999999983-18.59999999999998 0.700000000000017-16.099999999999998 4.199999999999989-35.599999999999994 19.599999999999994-36.8 69.5v642h766.2c7.599999999999909 0 92-1.2999999999999545 150.5999999999999-59.39999999999998 34.200000000000045-33.799999999999955 51.80000000000007-80.10000000000002 53.5-136.69999999999993 16.800000000000068-3.2000000000000455 29.700000000000045-17.200000000000045 29.700000000000045-35 0-20.100000000000023-16.299999999999955-36.40000000000009-36.39999999999998-36.40000000000009z m-667.8 233.30000000000007h-233.00000000000006v-122.30000000000007h233v122.30000000000007z m62.799999999999955 0v-160.5h245.19999999999993v160.5h-245.19999999999993z m534.3-49.60000000000002c-49.39999999999998 49.10000000000002-125 49.60000000000002-126.5 49.60000000000002h-99.89999999999998v-160.5h269.5c-1.8999999999999773 46.299999999999955-16 83.79999999999995-43.10000000000002 110.89999999999998z"/>
</svg>
