<svg xmlns="http://www.w3.org/2000/svg" viewBox="0 0 1000 1000" width="1000" height="1000">
<path d="M625 458.4c0 46-37.39999999999998 83.20000000000005-83.39999999999998 83.20000000000005-45.900000000000034 0-83.20000000000005-37.200000000000045-83.20000000000005-83.20000000000005s37.200000000000045-83.39999999999998 83.20000000000005-83.39999999999998c46 0 83.39999999999998 37.39999999999998 83.39999999999998 83.39999999999998z m120.89999999999998 458.4c-212.60000000000002 0-325.09999999999997-166.89999999999998-504.2-166.89999999999998-170.89999999999998 0-241.7 166.89999999999998-241.7 166.89999999999998s50.1-83.39999999999998 237.5-83.39999999999998c175.10000000000002 0 266.7 166.60000000000002 500 166.60000000000002 175 0 262.5-166.60000000000002 262.5-166.60000000000002s-104.20000000000005 83.39999999999998-254.10000000000002 83.39999999999998z m-66.79999999999995-66.79999999999995c-154.20000000000005-50-283.1-183.20000000000005-470.8-183.20000000000005 0 0 16.69999999999999-91.79999999999995 116.59999999999997-170.89999999999998 8.300000000000011-4.199999999999989 50.10000000000002-171 50.10000000000002-171 3.5-12.399999999999977 11.600000000000023-23.19999999999999 23-28.799999999999955l135.29999999999995-67.60000000000002c-15.099999999999909-8.5-29.499999999999943-21.19999999999999-41.599999999999966-36.80000000000001-33.30000000000001-45.79999999999998-71-124.99999999999999-71-124.99999999999999l137.59999999999997-66.7s41.700000000000045 62.4 54.30000000000007 120.8c9.399999999999977 34.8 14 77.00000000000001 1 100.60000000000001l1.1000000000000227 2.4000000000000057c2 2.5 4.399999999999977 4.699999999999989 5.899999999999977 7.5 2.3999999999999773 4.699999999999989 3.3999999999999773 9.599999999999994 3.7999999999999545 14.299999999999983l133.10000000000002 296.79999999999995c10.799999999999955 2.1000000000000227 20.700000000000045 7.899999999999977 27 17.899999999999977 9.399999999999977 13.800000000000068 9 31 1.1000000000000227 44.40000000000009l26.600000000000023 59.39999999999998c9 3.1000000000000227 19.09999999999991 7.699999999999932 29.5 15 25.09999999999991 20.799999999999955 75.09999999999991 87.60000000000002 87.5 137.60000000000002-20.800000000000068 33.299999999999955-91.80000000000007 58.39999999999998-124.90000000000009 58.39999999999998-61-116-47.19999999999993-175.39999999999998-33.19999999999993-200.80000000000007l-18.899999999999977-42.299999999999955-104 69.29999999999995c-6.900000000000091 4.7000000000000455-15 7.2000000000000455-23.200000000000045 7.2000000000000455-6.2999999999999545 0-12.799999999999955-1.7000000000000455-18.700000000000045-4.5l-119.79999999999995-59.89999999999998c-8.600000000000023 14.299999999999955-19.80000000000001 36.19999999999993-19.80000000000001 51.69999999999993 120.90000000000003 62.5 141.7 108.5 212.40000000000003 154.20000000000005z m38.5-295.20000000000005l-119.20000000000005-265.69999999999993-144.89999999999998 72.39999999999998-6.300000000000011 31.600000000000023-13.800000000000011 119.39999999999998 191 104.60000000000002 93.20000000000005-62.30000000000007z"/>
</svg>
