<svg xmlns="http://www.w3.org/2000/svg" viewBox="0 0 1000 1000" width="1000" height="1000">
<path d="M973 550.3c-29-38.99999999999994-67-66.59999999999997-109.39999999999998-88.59999999999997-85.10000000000002-44.19999999999999-177.10000000000002-65-271.30000000000007-77.69999999999999-26.399999999999977-3.5-52.89999999999998-5.899999999999977-79.5-2.3999999999999773-48.299999999999955 6.199999999999989-86.49999999999994 30.5-115.89999999999998 68.19999999999999-25.5 32.69999999999999-48.69999999999999 67.19999999999999-73.39999999999998 100.49999999999994-43 58.200000000000045-99 95.90000000000009-171.3 108.40000000000009-13.899999999999977 2.3999999999999773-18 0.1999999999999318-18-14.300000000000068 0.5-118.79999999999995 0.5-237.5 0-356.2-0.09999999999999432-13 4.800000000000011-17.69999999999999 16.30000000000001-21.399999999999977 74.5-23.900000000000006 148.89999999999998-48.5 223.3-73 4.199999999999989-1.3000000000000114 9.300000000000011-0.9000000000000057 12.699999999999989-7.5-52.80000000000001-17.30000000000001-105.39999999999998-34.10000000000002-157.7-51.80000000000001-29.900000000000006-10.200000000000003-60.80000000000001-17.599999999999994-89.60000000000002-31h-27.299999999999983c-0.4000000000000057 7.700000000000003-1.3000000000000114 15.400000000000006-1.3000000000000114 23.200000000000003 0 171.5-0.09999999999999432 343 0.20000000000000284 514.5 0 14.399999999999977-1.0999999999999943 21.59999999999991-19.299999999999997 24.799999999999955-31.9 5.600000000000023-56.1 22.799999999999955-71.8 49.299999999999955-3.552713678800501e-15 0-49.6 64 8.599999999999998 127.10000000000002 22.999999999999996 26.399999999999977 52.60000000000001 38.200000000000045 86.2 42 41.19999999999999 5.800000000000068 165.8 19.600000000000023 344.2 5.399999999999977h11.400000000000034c34-3.8999999999999773 68-7.5 102-11.899999999999977 27.399999999999977-3.6000000000000227 54.69999999999993-7.7999999999999545 81.79999999999995-12.799999999999955l1.5-0.3000000000000682c70.30000000000007-13.199999999999932 138.89999999999998-32.69999999999993 204.20000000000005-64.59999999999991 42.799999999999955-21 81.60000000000002-47.5 111.69999999999993-85.70000000000005 37.90000000000009-48.10000000000002 38.10000000000002-115.39999999999998 1.7000000000000455-164.20000000000005z m-809.8 286.70000000000005c-13.30000000000004 6.100000000000023-27.400000000000034 7.2999999999999545-39.700000000000045 8.899999999999977-27.799999999999997-1.5-51.400000000000006-8.799999999999955-69.8-28.5-18-19.5-23.1-47.10000000000002-11.300000000000004-70.19999999999993 12.600000000000001-24.800000000000068 34.199999999999996-38.10000000000002 61.00000000000001-43.200000000000045 8.799999999999997-1.7000000000000455 7 5.5 7 10.200000000000045 0.29999999999999716 14.799999999999955 0.19999999999998863 29.699999999999932 0.19999999999998863 44.59999999999991-0.09999999999999432 8-0.7999999999999972 15.300000000000068 11.300000000000011 15.400000000000091 13 0.1999999999999318 12.900000000000006-7.300000000000068 12.699999999999989-16.300000000000068-0.29999999999998295-12.299999999999955 0.700000000000017-24.699999999999932-0.29999999999998295-36.89999999999998-1.200000000000017-14.299999999999955 1.799999999999983-19.399999999999977 17.599999999999994-14.600000000000023 31.19999999999999 9.399999999999977 54.29999999999998 35 56.900000000000006 66.30000000000007 2 24.199999999999932-17.400000000000006 51.19999999999993-45.60000000000002 64.29999999999995z"/>
</svg>
