<svg xmlns="http://www.w3.org/2000/svg" viewBox="0 0 1000 1000" width="1000" height="1000">
<path d="M963 0l-63.700000000000045 55s-92.89999999999998 76.30000000000001-186.0999999999999 76.30000000000001c-42.40000000000009 0-76.20000000000005-16.900000000000006-118.40000000000009-33.900000000000006-46.69999999999993-21.10000000000001-101.69999999999993-50.800000000000004-181.99999999999994-50.800000000000004-228.5-0.10000000000000142-359.8 139.6-368.2 148l-12.600000000000023 12.800000000000011 220 617.8000000000001c0.19999999999998863-0.20000000000004547 61.60000000000002 174.79999999999995 61.60000000000002 174.79999999999995l80-28.100000000000023-74.40000000000003-211.79999999999995c34.5-29.100000000000023 108.30000000000001-83 182.40000000000003-83 63.39999999999998 0 101.39999999999998 12.600000000000023 135.29999999999995 21.100000000000023 33.80000000000007 8.5 67.80000000000007 21.299999999999955 118.60000000000002 21.299999999999955 101.39999999999998 0 186.10000000000002-46.700000000000045 190.20000000000005-46.700000000000045l21.299999999999955-12.599999999999909-4-660.2z m-211.60000000000002 638.9c-18.399999999999977 0-33.5-2.1000000000000227-48.299999999999955-4.7999999999999545l-32.30000000000007-139.10000000000002c-42.39999999999998-12.600000000000023-105.79999999999995-33.89999999999998-135.29999999999995-33.89999999999998l38.39999999999998 141.29999999999995c-22.5-3.5-48.60000000000002-5.7999999999999545-80.79999999999995-5.7999999999999545-26.900000000000034 0-53.10000000000002 5.2999999999999545-78.10000000000002 13.399999999999977l-53.10000000000002-136c-42.19999999999999 17.30000000000001-87 50.39999999999998-117.19999999999999 75.20000000000005l-67.69999999999999-193.40000000000003c61.80000000000001-46.900000000000034 121.5-68 121.5-68l-52.69999999999999-131.8c46.5-18.80000000000001 103.5-33.3 171-33.3 11.599999999999966 0 21.69999999999999 1.2000000000000028 32.099999999999966 2.5999999999999943l35.80000000000001 136.8c38.19999999999999 0 144.00000000000006 50.799999999999955 144.00000000000006 50.799999999999955l-30.40000000000009-132.99999999999997c34.90000000000009 15.099999999999994 70.90000000000009 27.19999999999999 119.20000000000005 27.19999999999999 19.399999999999977 0 38.799999999999955-2.9000000000000057 57.89999999999998-7l9.700000000000045 134.1s44.89999999999998-12.199999999999989 101.69999999999993-48.599999999999966v179.7c-47.299999999999955 21.099999999999966-89 29.599999999999966-89 29.599999999999966l9.700000000000045 138c-17.700000000000045 3.5-36.5 6-56.10000000000002 6z m-300.59999999999997-376.5h33.89999999999998l50.80000000000001 194.60000000000002s-38-4.300000000000011-76.30000000000001-4.300000000000011c-38 0-93 21.30000000000001-93 21.30000000000001l-71.89999999999998-182c0.0999999999999659 0 72-29.600000000000023 156.5-29.600000000000023z m275.2 80.40000000000003c33.89999999999998 0 59.10000000000002-8.5 59.10000000000002-8.5l12.799999999999955 160.7s-33.89999999999998 4.300000000000011-63.39999999999998 4.300000000000011l-67.79999999999995-8.5-38-173.60000000000002c0 0.10000000000002274 50.59999999999991 25.600000000000023 97.29999999999995 25.600000000000023z"/>
</svg>
