<svg xmlns="http://www.w3.org/2000/svg" viewBox="0 0 1000 1000" width="1000" height="1000">
<path d="M1000 138.1c-0.10000000000002274 23.30000000000001-0.10000000000002274 46.70000000000002 0 70 0 2.4000000000000057-0.5 3.0999999999999943-3 3.0999999999999943-21.299999999999955-0.09999999999999432-42.60000000000002 0-64-0.09999999999999432-1.7000000000000455 0-2.8999999999999773 0.5-4.100000000000023 1.8000000000000114-34.19999999999993 35.599999999999994-64 74.49999999999997-90 116.49999999999997-33.19999999999993 53.700000000000045-58.60000000000002 111-76.10000000000002 171.70000000000005-7.099999999999909 24.600000000000023-12.599999999999909 49.5-16.899999999999977 74.79999999999995-4.2999999999999545 26-7.100000000000023 52.10000000000002-8.399999999999977 78.39999999999998-1.1000000000000227 22.800000000000068-1 45.60000000000002 0.20000000000004547 68.5 0.7999999999999545 16.100000000000023 2.099999999999909 32.200000000000045 3.7999999999999545 48.30000000000007 1.7999999999999545 16.5 4.399999999999977 33 7.2000000000000455 49.39999999999998 0.6999999999999318 3.7000000000000455 1.5 7.600000000000023 0.39999999999997726 11.5-1.8999999999999773 6.5-8.399999999999977 10.600000000000023-15.200000000000045 10.100000000000023-14.5-1-27.699999999999932-6.899999999999977-41.19999999999993-11.700000000000045-19.5-6.899999999999977-38.60000000000002-14.899999999999977-57.60000000000002-22.899999999999977-1.8000000000000682-0.7000000000000455-3.1000000000000227-0.6000000000000227-4.7000000000000455 0.2999999999999545-25.100000000000023 14.100000000000023-50.60000000000002 27.100000000000023-77.29999999999995 37.90000000000009-16.700000000000045 6.599999999999909-33.60000000000002 12.299999999999955-51.10000000000002 16.299999999999955-1.5 0.2999999999999545-3 0.20000000000004547-4.5-0.20000000000004547-31.899999999999977-7.2999999999999545-61.80000000000001-20-91-34.39999999999998-12.5-6.199999999999932-24.69999999999999-12.799999999999955-36.89999999999998-19.600000000000023-1.400000000000034-0.7999999999999545-2.6000000000000227-1-4.2000000000000455-0.2999999999999545-26.19999999999999 11.100000000000023-52.69999999999999 21.399999999999977-79.69999999999999 30.5-6.800000000000011 2.2999999999999545-13.800000000000011 3.7999999999999545-21 4.2000000000000455-8.399999999999977 0.599999999999909-15.599999999999994-7.300000000000068-14.399999999999977-16.100000000000023 1.299999999999983-9 3-17.899999999999977 4.399999999999977-26.800000000000068 1.8000000000000114-11.299999999999955 3.1999999999999886-22.699999999999932 4.400000000000034-34.19999999999993 2-18.200000000000045 3.1999999999999886-36.5 3.7999999999999545-54.89999999999998 0.5-19.5 0.4000000000000341-39.10000000000002-0.5999999999999659-58.60000000000002-0.9000000000000341-17.700000000000045-2.5-35.39999999999998-4.800000000000011-53-3.3000000000000114-24.100000000000023-7.699999999999989-48-13.400000000000006-71.70000000000005-15.799999999999983-64.79999999999995-40.79999999999998-125.79999999999995-74.4-183.29999999999995-27.799999999999983-47.400000000000034-60.39999999999999-91.00000000000003-98.49999999999999-130.60000000000002-1.2999999999999972-1.3000000000000114-2.5-1.9000000000000057-4.400000000000006-1.9000000000000057-22.199999999999996 0.09999999999999432-44.5 0.09999999999999432-66.8 0.09999999999999432 0-23.69999999999999 0.1-47.39999999999998 0-71.1 0-1.6999999999999886 0.3-2.0999999999999943 2.1-2.0999999999999943 41.5 0.09999999999999432 83.10000000000001 0.09999999999999432 124.60000000000001 0.09999999999999432h873.3z m-532.7 583.1999999999999c-26.199999999999932-16.299999999999955-50.799999999999955-32.799999999999955-74.69999999999993-50.19999999999993-1.3000000000000114-1-2.1000000000000227-0.7000000000000455-3.3000000000000114 0-30 17-60.69999999999999 32.69999999999993-91.90000000000003 47.299999999999955-2.599999999999966 1.2000000000000455-2.6999999999999886 3.1000000000000227-0.39999999999997726 4.7000000000000455 23.19999999999999 16.100000000000023 46.89999999999998 31.5 71.10000000000002 45.89999999999998 1.099999999999966 0.7000000000000455 2 0.7000000000000455 3.099999999999966 0.20000000000004547 17.400000000000034-8 34.80000000000001-16.100000000000023 51.900000000000034-24.600000000000023 14.799999999999955-7.5 29.5-15.200000000000045 44.19999999999999-23.300000000000068z m65.90000000000009-0.09999999999990905c31.899999999999977 17.59999999999991 63.5 33.39999999999998 95.89999999999998 47.799999999999955 1.2999999999999545 0.6000000000000227 2.1000000000000227 0.2999999999999545 3.199999999999932-0.2999999999999545 24-14.400000000000091 47.60000000000002-29.40000000000009 70.5-45.5 2.6000000000000227-1.8000000000000682 2.400000000000091-3.6000000000000227-0.39999999999997726-4.900000000000091-31-14.5-61.5-30-91.19999999999993-47-1.5-0.8999999999999773-2.5-0.8999999999999773-4 0.20000000000004547-15.5 11.299999999999955-31.200000000000045 22.200000000000045-47.40000000000009 32.700000000000045-8.699999999999932 5.699999999999932-17.59999999999991 11.299999999999955-26.59999999999991 17z m-127.70000000000005 68.59999999999991c0.8999999999999773 0.5 1.3999999999999773 0.900000000000091 2 1.2000000000000455 8.600000000000023 4.2000000000000455 17 8.600000000000023 25.69999999999999 12.700000000000045 20.80000000000001 9.799999999999955 42.10000000000002 18.5 64.5 24.299999999999955 1.1999999999999886 0.2999999999999545 2.400000000000034 0.6000000000000227 3.6999999999999886 0.20000000000004547l10.5-2.900000000000091c25.300000000000068-7.599999999999909 49.30000000000007-18.5 72.80000000000007-30.299999999999955 3.2999999999999545-1.7000000000000455 6.5-3.3999999999999773 10-5.2999999999999545-1.1000000000000227-0.6000000000000227-2-1-2.800000000000068-1.400000000000091-30.299999999999955-14.299999999999955-60.10000000000002-29.59999999999991-89.19999999999999-46.299999999999955-1.8999999999999773-1.1000000000000227-3.1999999999999886-0.8999999999999773-5 0.10000000000002274-27.099999999999966 15.399999999999977-54.69999999999999 29.899999999999977-82.89999999999998 43.19999999999993-3 1.5-6 2.900000000000091-9.300000000000011 4.5z m165.89999999999998-578.5999999999999h-24.399999999999977c-9.100000000000023-5.684341886080802e-14-18.299999999999955-0.10000000000005116-27.399999999999977-5.684341886080802e-14-0.8999999999999773 0-2.300000000000068-0.5-2.3999999999999773 1.1000000000000227-0.20000000000004547 2-0.7000000000000455 4.099999999999994-0.40000000000009095 6.199999999999989 1.400000000000091 10.199999999999989 3.5 20.19999999999999 6.2000000000000455 30 9.100000000000023 33.5 24.299999999999955 64.19999999999999 44.10000000000002 92.60000000000002 1.3999999999999773 2 1.7999999999999545 0.6999999999999886 2.3999999999999773-0.4000000000000341 24.299999999999955-39.69999999999999 42.799999999999955-81.89999999999998 55.200000000000045-126.79999999999998 0.599999999999909-2.200000000000017 0.39999999999997726-2.8000000000000114-2.1000000000000227-2.8000000000000114-17.100000000000023 0.09999999999999432-34.200000000000045 0.09999999999999432-51.200000000000045 0.09999999999999432z m-142.5-5.684341886080802e-14c-17.099999999999966 0-34.099999999999966-0.09999999999999432-51.19999999999999 0-3.8000000000000114 0-3.099999999999966-0.09999999999999432-2.3000000000000114 2.9000000000000057 12.100000000000023 43.900000000000006 30.100000000000023 85.4 53.700000000000045 124.4 2.599999999999966 4.300000000000011 2.599999999999966 4.199999999999989 5.399999999999977 0.10000000000002274 21.80000000000001-31.600000000000023 37.60000000000002-65.80000000000001 45.69999999999999-103.30000000000001 1.5-7.100000000000023 3.5-14.100000000000023 2.8000000000000114-21.5-0.10000000000002274-2-0.6999999999999886-2.700000000000017-2.8000000000000114-2.700000000000017-17.099999999999966 0.09999999999999432-34.19999999999999 0.09999999999999432-51.30000000000001 0.09999999999999432z m-6.7999999999999545 440.40000000000003c25.5 18.199999999999932 50.69999999999999 34.5 76.5 50 1.3999999999999773 0.7999999999999545 2.2999999999999545 0.6000000000000227 3.5-0.20000000000004547 25.399999999999977-15.100000000000023 50.19999999999993-31.299999999999955 74.39999999999998-48.299999999999955 0.5-0.39999999999997726 1.2000000000000455-0.7000000000000455 1.3999999999999773-1.3999999999999773-26.699999999999932-16.700000000000045-51.89999999999998-33.700000000000045-76.29999999999995-51.90000000000009-1.5-1.099999999999909-2.3000000000000114-0.599999999999909-3.5 0.3000000000000682-24 17.799999999999955-48.700000000000045 34.5-74.10000000000002 50.19999999999993-0.6000000000000227 0.40000000000009095-1.1999999999999886 0.900000000000091-1.8999999999999773 1.3000000000000682z m219.79999999999995-384c-2.5 6.099999999999966-4.600000000000023 11.599999999999966-6.7999999999999545 17.099999999999966-12.200000000000045 29-26.800000000000068 56.80000000000001-43.80000000000007 83.30000000000001-1 1.6000000000000227-1.099999999999909 2.5 0.3000000000000682 4.100000000000023 15 16.69999999999999 31.299999999999955 32.099999999999966 48.60000000000002 46.299999999999955 1.3999999999999773 1.2000000000000455 2.099999999999909 1.1000000000000227 3.199999999999932-0.2999999999999545 15.300000000000068-18.80000000000001 30-38.10000000000002 43.89999999999998-58 1.400000000000091-1.900000000000034 1.5-3.2000000000000455 0.10000000000002274-5.2000000000000455-15.600000000000023-22.399999999999977-28.600000000000023-46.299999999999955-39.10000000000002-71.5-2.199999999999932-5-4.099999999999909-10.099999999999966-6.399999999999977-15.799999999999955z m-283.5 0.5999999999999659c-1 0.30000000000001137-0.8999999999999773 0.9000000000000341-1.099999999999966 1.3000000000000114-11.600000000000023 30.69999999999999-26.600000000000023 59.5-45.400000000000034 86.39999999999998-1 1.5-0.39999999999997726 2.3000000000000114 0.4000000000000341 3.5 13.899999999999977 20.200000000000045 28.80000000000001 39.700000000000045 44.30000000000001 58.700000000000045 1.099999999999966 1.2999999999999545 1.6999999999999886 1.5 3.1999999999999886 0.39999999999997726 17.19999999999999-14.300000000000011 33.5-29.5 48.39999999999998-46.19999999999999 1.5-1.6000000000000227 1.6000000000000227-2.6999999999999886 0.4000000000000341-4.5-14.700000000000045-22.80000000000001-27.600000000000023-46.60000000000002-38.60000000000002-71.5-4.100000000000023-9.199999999999989-7.899999999999977-18.600000000000023-11.600000000000023-28.100000000000023z m-67.09999999999997 59.30000000000001c0.5999999999999659-0.8999999999999773 1.099999999999966-1.6999999999999886 1.599999999999966-2.3999999999999773 22-34.5 37.400000000000034-71.80000000000001 47.30000000000001-111.40000000000003 0.6000000000000227-2.3999999999999773-0.19999999999998863-2.5999999999999943-2.1999999999999886-2.5999999999999943-34.39999999999998 0.09999999999999432-68.69999999999999 0.09999999999999432-103.1 0.09999999999999432h-2.8000000000000114c16.099999999999994 40.70000000000002 36.20000000000002 79.10000000000002 59.20000000000002 116.30000000000001z m476.49999999999994-116.19999999999999c-36.299999999999955-0.10000000000002274-71.39999999999998-0.10000000000002274-106.5-0.20000000000001705-2.2999999999999545 0-1.7999999999999545 1.0999999999999943-1.5 2.3000000000000114 8.900000000000091 36.5 22.800000000000068 70.99999999999997 42.10000000000002 103.29999999999998 2.1000000000000227 3.6000000000000227 4.399999999999977 7.100000000000023 6.7000000000000455 10.800000000000011 23.199999999999932-37.19999999999999 43.10000000000002-75.6 59.19999999999993-116.19999999999999z m-267.79999999999995 73.59999999999997c-0.30000000000001137 0.7000000000000455-0.6000000000000227 1.1000000000000227-0.6999999999999886 1.6000000000000227-11.600000000000023 30.100000000000023-27.30000000000001 57.80000000000001-46.80000000000001 83.5-1.3000000000000114 1.6999999999999886-0.8999999999999773 2.6999999999999886 0.19999999999998863 4.100000000000023 14 19.19999999999999 29.19999999999999 37.299999999999955 45.60000000000002 54.5 1.3000000000000114 1.3999999999999773 2 1.5 3.3999999999999773 0 16.19999999999999-17.100000000000023 31.400000000000034-35.10000000000002 45.30000000000001-54.10000000000002 1.3999999999999773-1.8999999999999773 1.5-3.1000000000000227 0-5.100000000000023-16.899999999999977-22.299999999999955-30.899999999999977-46.299999999999955-41.89999999999998-72.09999999999997-1.7000000000000455-4.100000000000023-3.3000000000000114-8.100000000000023-5.100000000000023-12.400000000000034z m106.70000000000005 345.6c0.8999999999999773 0 1.3999999999999773-0.7000000000000455 2-1.2000000000000455 18-13.799999999999955 35.59999999999991-28.199999999999932 52.69999999999993-43.299999999999955 2.3999999999999773-2.1000000000000227 2.3999999999999773-2.1000000000000227-0.39999999999997726-3.3999999999999773-28.5-13.399999999999977-56-28.5-82.39999999999998-45.60000000000002-1.5-1-2.5-1-3.800000000000068 0.20000000000004547-14.899999999999977 13.5-30.09999999999991 26.59999999999991-45.799999999999955 39-1.6000000000000227 1.2999999999999545-1.6000000000000227 1.8999999999999773 0.10000000000002274 3.099999999999909 24.699999999999932 17.800000000000068 50.10000000000002 34.60000000000002 76.10000000000002 50.30000000000007 0.5 0.2999999999999545 1 0.6000000000000227 1.5 0.8999999999999773z m-134.30000000000007-52.89999999999998c-0.39999999999997726-0.39999999999997726-0.7999999999999545-0.8000000000000682-1.1999999999999886-1.2000000000000455-15.800000000000011-12.600000000000023-31.19999999999999-25.699999999999932-46.099999999999966-39.299999999999955-1.3000000000000114-1.1000000000000227-2.1000000000000227-1.2000000000000455-3.5-0.3000000000000682-26.400000000000034 17.200000000000045-54 32.40000000000009-82.60000000000002 45.80000000000007-2.5 1.1999999999999318-2.5 1.1999999999999318-0.30000000000001137 3.1000000000000227 17.100000000000023 15.099999999999909 34.69999999999999 29.59999999999991 52.80000000000001 43.5 1.3999999999999773 1.099999999999909 2.3000000000000114 1.099999999999909 3.6999999999999886 0.1999999999999318 11-6.7999999999999545 22-13.600000000000023 32.900000000000034-20.699999999999932 14.5-9.5 28.69999999999999-19.300000000000068 42.799999999999955-29.5 0.5-0.40000000000009095 1.400000000000034-0.6000000000000227 1.5-1.6000000000000227z m253-64.70000000000005c0.6000000000000227-1.1999999999999886-0.7999999999999545-1.3999999999999773-1.6000000000000227-1.7999999999999545-7.2999999999999545-3.900000000000034-14.699999999999932-7.7000000000000455-21.899999999999977-11.700000000000045-18.299999999999955-10.199999999999989-36-21.19999999999999-53.10000000000002-33.19999999999999-1.2999999999999545-1-2.099999999999909-1.3999999999999773-3.5 0.10000000000002274-13.699999999999932 15.399999999999977-27.899999999999977 30.19999999999999-42.59999999999991 44.599999999999966-1.3000000000000682 1.3000000000000682-1 1.8000000000000682 0.39999999999997726 2.7000000000000455 27.299999999999955 17.100000000000023 55.69999999999993 32.10000000000002 85.19999999999993 45.19999999999993 1.400000000000091 0.7000000000000455 2.2000000000000455 0.40000000000009095 3.2000000000000455-0.599999999999909 9.899999999999977-9.600000000000023 19.600000000000023-19.5 29.100000000000023-29.40000000000009 0.6000000000000227-0.6999999999999318 1.2999999999999545-1.1999999999999318 1.5-2.099999999999909 1.1000000000000227-4.5 2.199999999999932-9 3.2999999999999545-13.900000000000091z m-450.79999999999995 0c1 4 2 8.100000000000023 2.8999999999999773 12.200000000000045 0.30000000000001137 1.1999999999999318 0.8999999999999773 2.199999999999932 1.8000000000000114 3 9.599999999999966 10.100000000000023 19.30000000000001 20.100000000000023 29.30000000000001 29.899999999999977 1.1999999999999886 1.1000000000000227 2 1.2999999999999545 3.5 0.6000000000000227 29.19999999999999-13.100000000000023 57.39999999999998-27.899999999999977 84.59999999999997-44.80000000000007 1.8000000000000114-1.1999999999999318 1.6999999999999886-1.7999999999999545 0.30000000000001137-3.199999999999932-14.399999999999977-14.100000000000023-28.30000000000001-28.600000000000023-41.69999999999999-43.60000000000002-1.6000000000000227-1.8000000000000114-2.5-2.1000000000000227-4.5-0.6000000000000227-12.100000000000023 8.600000000000023-24.69999999999999 16.600000000000023-37.5 24.200000000000045-12 7.099999999999966-24.30000000000001 13.799999999999955-36.80000000000001 20.299999999999955-0.6999999999999886 0.4000000000000341-2.1000000000000227 0.5-1.8999999999999773 2z m506.79999999999995-249.7c-0.5 0.9000000000000341-0.7999999999999545 1.3000000000000114-1 1.8000000000000114-14.799999999999955 30.899999999999977-31.399999999999977 60.80000000000001-49.89999999999998 89.60000000000002-1 1.5-0.6000000000000227 2.2999999999999545 0.39999999999997726 3.5 10.5 12.699999999999989 21.800000000000068 24.69999999999999 34 35.799999999999955 1.6000000000000227 1.6000000000000227 2 0.9000000000000341 2.7000000000000455-0.6999999999999886 12.699999999999932-27.80000000000001 27-54.80000000000001 43.10000000000002-80.80000000000001 0.7999999999999545-1.3999999999999773 0.8999999999999773-2.1999999999999886-0.40000000000009095-3.3999999999999773-7.699999999999932-7-13.899999999999977-15.300000000000011-19-24.30000000000001-3.7999999999999545-6.800000000000011-7-13.800000000000011-9.899999999999977-21.5z m-562.5999999999999 0.30000000000001137c-0.9000000000000625 1.6000000000000227-1.4000000000000625 2.8000000000000114-1.9000000000000625 4-6.400000000000006 15.699999999999989-14.800000000000011 30.19999999999999-27.5 41.69999999999999-1.200000000000017 1.1999999999999886-0.8000000000000114 1.900000000000034-0.09999999999999432 3 3.799999999999983 6.400000000000034 7.699999999999989 12.800000000000011 11.399999999999977 19.19999999999999 11.600000000000023 20.100000000000023 22.100000000000023 40.80000000000001 31.80000000000001 61.900000000000034 0.8000000000000114 1.8999999999999773 1.3000000000000114 1.8000000000000114 2.6999999999999886 0.5999999999999659 11.900000000000006-11 23-22.69999999999999 33.30000000000001-35.19999999999999 1.6000000000000227-1.8000000000000114 1.8000000000000114-3 0.39999999999997726-5.099999999999966-15.999999999999972-25-30.599999999999966-50.80000000000001-43.79999999999998-77.30000000000001-2.0999999999999943-4.300000000000011-4.199999999999989-8.5-6.299999999999983-12.800000000000011z m351.9999999999999 134.3c-14.399999999999977 19.399999999999977-29.699999999999932 37.30000000000001-46.09999999999991 54.30000000000001-1.3000000000000682 1.3999999999999773-0.3000000000000682 1.7999999999999545 0.5 2.5 14.799999999999955 13.399999999999977 30.299999999999955 26 46.5 37.69999999999999 1.3999999999999773 1.099999999999966 2.099999999999909 0.8999999999999773 3.2999999999999545-0.19999999999998863 15-14.700000000000045 29.600000000000023-29.80000000000001 43.60000000000002-45.30000000000001 1.3999999999999773-1.5 1.6000000000000227-2.1999999999999886-0.10000000000002274-3.6999999999999886-16-13-31.200000000000045-27-45.200000000000045-42.30000000000001-0.7999999999999545-0.9000000000000341-1.599999999999909-1.900000000000034-2.5-3z m-141.29999999999995 0.39999999999997726c-0.5 0.4000000000000341-0.8999999999999773 0.6000000000000227-1.1999999999999886 1-14.699999999999989 16-30.5 30.69999999999999-47.400000000000034 44.400000000000034-1.3999999999999773 1.1999999999999886-0.6999999999999886 1.7999999999999545 0.10000000000002274 2.7999999999999545 14.199999999999989 15.800000000000011 29 31 44.19999999999999 45.80000000000001 1.1999999999999886 1.1999999999999886 1.900000000000034 1 3.1000000000000227 0.10000000000002274 16.099999999999966-11.699999999999989 31.5-24.19999999999999 46.39999999999998-37.5 1.400000000000034-1.1999999999999886 1.5-1.900000000000034 0.10000000000002274-3.1999999999999886-9.199999999999989-9.5-18-19.30000000000001-26.400000000000034-29.5-6.5-7.800000000000011-12.699999999999989-15.800000000000011-18.899999999999977-23.900000000000034z m-139.7-13.300000000000011c-13.400000000000034 15.400000000000034-26.900000000000034 28.80000000000001-41.400000000000006 41.200000000000045-1.0999999999999943 1-1.200000000000017 1.7999999999999545-0.700000000000017 3.1999999999999886 6.200000000000017 15.899999999999977 11.900000000000034 32 16.900000000000034 48.30000000000001 0.5 1.5 0.8999999999999773 1.8999999999999773 2.5 1.099999999999966 21.69999999999999-11.5 42.69999999999999-24 62.89999999999998-37.89999999999998 1.6000000000000227-1 1.3999999999999773-1.6000000000000227 0.30000000000001137-2.8000000000000114-4.400000000000034-5.399999999999977-8.800000000000011-10.899999999999977-13.199999999999989-16.399999999999977-9.400000000000034-12-18.400000000000034-24.200000000000045-27.30000000000001-36.700000000000045z m420.40000000000003-0.0999999999999659c-12.800000000000068 18.30000000000001-26.200000000000045 35.80000000000001-40.30000000000007 52.80000000000001-1.3999999999999773 1.6999999999999886-1.1999999999999318 2.3999999999999773 0.5 3.5 20 13.699999999999989 40.700000000000045 26.099999999999966 62.10000000000002 37.39999999999998 1.8999999999999773 0.8999999999999773 2.3999999999999773 0.8000000000000114 3-1.1999999999999886 5-16 10.399999999999977-31.80000000000001 16.600000000000023-47.30000000000001 0.7999999999999545-2 0.39999999999997726-3.1000000000000227-1.2000000000000455-4.5-11.600000000000023-9.899999999999977-22.5-20.5-32.69999999999993-31.80000000000001-2.6000000000000227-2.8000000000000114-5.2000000000000455-5.800000000000011-8-8.899999999999977z m-210.20000000000005 172.3c0.5-0.3000000000000682 1-0.6000000000000227 1.3999999999999773-1 15.700000000000045-12.300000000000068 31-25.100000000000023 45.89999999999998-38.39999999999998 1.3000000000000682-1.1000000000000227 1.2000000000000455-1.6000000000000227-0.09999999999990905-2.5-16-11.900000000000034-31.300000000000068-24.500000000000057-46.00000000000006-37.900000000000034-1-0.9000000000000341-1.5-0.6999999999999886-2.3999999999999773 0.0999999999999659-14.699999999999989 13.300000000000011-30 25.900000000000034-45.900000000000034 37.700000000000045-1.2999999999999545 1-1.5 1.5-0.0999999999999659 2.699999999999932 14.899999999999977 13.200000000000045 30.099999999999966 26 45.69999999999999 38.200000000000045 0.39999999999997726 0.39999999999997726 0.8999999999999773 0.7000000000000455 1.5 1.1000000000000227z m-330.2-274.70000000000005c5.099999999999994-5.2999999999999545 8.899999999999977-11.299999999999955 12.199999999999989-17.69999999999999 8.099999999999994-15.799999999999983 12.400000000000006-32.69999999999999 15.5-50.099999999999994 0.5-2.5-0.4000000000000057-3.4000000000000057-3.0999999999999943-3.4000000000000057-25.80000000000001 0-51.599999999999994-0.09999999999999432-77.4 0-0.7000000000000028 0-1.5-0.39999999999997726-2.200000000000003 0.5 19.799999999999997 22.400000000000006 38.000000000000014 46 55.000000000000014 70.69999999999999z m660.4000000000001 0c17-24.799999999999955 35.299999999999955-48.39999999999998 55.299999999999955-71.09999999999997-0.8999999999999773-0.10000000000002274-1.2000000000000455-0.10000000000002274-1.5-0.10000000000002274-26.299999999999955 0-52.60000000000002 0-78.89999999999998-0.09999999999999432-2.3999999999999773 0-2.7000000000000455 1.3000000000000114-2.7000000000000455 3 0 0.9000000000000057 0.3000000000000682 1.700000000000017 0.5 2.5 3.1000000000000227 16.400000000000006 7.2000000000000455 32.5 14.800000000000068 47.50000000000003 3.2999999999999545 6.599999999999966 7.199999999999932 12.699999999999989 12.5 18.299999999999955z m-467.90000000000003 366c-20.30000000000001-16.299999999999955-39.400000000000034-32.39999999999998-57.80000000000001-49.19999999999993-0.8999999999999773-0.900000000000091-1.6999999999999886-0.900000000000091-2.6999999999999886-0.5-2.6999999999999886 1.1999999999999318-5.400000000000034 2.2999999999999545-8.199999999999989 3.2999999999999545-1.8000000000000114 0.5-2.400000000000034 1.2999999999999545-2.2000000000000455 3.2000000000000455 1.1000000000000227 10.899999999999977 2.3000000000000114 21.699999999999932 3.1000000000000227 32.59999999999991 1 14.100000000000023 1.6000000000000227 28.200000000000045 1.6000000000000227 42.30000000000007 0 0.6999999999999318-0.30000000000001137 1.5 0.5 2.199999999999932 22.19999999999999-10.599999999999909 44-21.799999999999955 65.69999999999999-33.89999999999998z m341.59999999999997 34.30000000000007c0-1.6000000000000227 0-2.6000000000000227 0-3.6000000000000227 0.10000000000002274-17.100000000000023 0.8999999999999773-34.10000000000002 2.5-51.10000000000002 0.7000000000000455-7.7999999999999545 1.3999999999999773-15.5 2.2000000000000455-23.200000000000045 0.10000000000002274-1.5-0.3000000000000682-2.199999999999932-1.7000000000000455-2.599999999999909-2.699999999999932-1-5.5-2.1000000000000227-8.199999999999932-3.300000000000068-1.1000000000000227-0.39999999999997726-1.900000000000091-0.39999999999997726-2.900000000000091 0.5-18.199999999999932 16.600000000000023-37 32.5-56.299999999999955 47.700000000000045-1.5 1.1000000000000227-1.3999999999999773 1.6000000000000227 0.20000000000004547 2.5 11.599999999999909 6.2999999999999545 23.199999999999932 12.5 34.89999999999998 18.5 9.600000000000023 4.7999999999999545 19.199999999999932 9.5 29.299999999999955 14.600000000000023z m-416.2 119.79999999999995c15-5.399999999999977 29.5-10.799999999999955 44.10000000000002-16.799999999999955-13.100000000000023-8.5-25.400000000000034-16.300000000000068-37.400000000000034-24.40000000000009-1.3999999999999773-1-1.6999999999999886-0.599999999999909-1.8999999999999773 1-0.8000000000000114 7.300000000000068-1.6000000000000227 14.600000000000023-2.5 21.90000000000009-0.6999999999999886 5.899999999999977-1.5 11.799999999999955-2.3000000000000114 18.299999999999955z m424.2-0.2999999999999545c0-0.8000000000000682 0.10000000000002274-1.400000000000091 0-1.900000000000091-2-12.399999999999977-2.7999999999999545-25-4.399999999999977-37.5-0.2999999999999545-2.599999999999909-0.20000000000004547-2.599999999999909-2.5-1.099999999999909-11.399999999999977 7.599999999999909-23 15.099999999999909-34.60000000000002 22.399999999999977-0.6000000000000227 0.39999999999997726-1.3999999999999773 0.6000000000000227-1.7999999999999545 1.6000000000000227 14.199999999999932 5.7999999999999545 28.5 11.299999999999955 43.299999999999955 16.5z"/>
</svg>
