<svg xmlns="http://www.w3.org/2000/svg" viewBox="0 0 1000 1000" width="1000" height="1000">
<path d="M991.9 408.5c-37.10000000000002-2.3999999999999773-74.19999999999993-5-111.29999999999995-7.199999999999989-2.1000000000000227-0.10000000000002274-4.300000000000068-0.6000000000000227-6.300000000000068-1 0.3000000000000682-4.699999999999989-0.1999999999999318-11.199999999999989 0.3000000000000682-13.199999999999989 3.8999999999999773-16.700000000000045 2.3999999999999773-37.10000000000002 3.5-54.400000000000034 0.39999999999997726-6-7.5-10.800000000000011-12.600000000000023-7.199999999999989-10 7.100000000000023-20 14.199999999999989-30 21.30000000000001-11.399999999999977 8.099999999999966-27.100000000000023 13.300000000000011-23 19.5-14.299999999999955-13.300000000000011-27.399999999999977-53.30000000000001-35.799999999999955-68.60000000000002-4.300000000000068-7.699999999999989-15.100000000000023-3.599999999999966-15.600000000000023 4.300000000000011l-4.100000000000023 62.69999999999999c-0.7000000000000455 10.800000000000011 16.100000000000023 10.699999999999989 16.799999999999955 0 0.7000000000000455-11.199999999999989 1.400000000000091-22.399999999999977 2.1000000000000227-33.599999999999966 8.899999999999977 16.19999999999999 17.800000000000068 32.299999999999955 26.700000000000045 48.39999999999998 2 3.6999999999999886 7.7999999999999545 5.600000000000023 11.399999999999977 3 15.5-10.899999999999977 30.899999999999977-21.899999999999977 46.299999999999955-32.80000000000001-1.2999999999999545 19.600000000000023-2.599999999999909 39.30000000000001-3.7999999999999545 59-0.2999999999999545 4.699999999999989 4.100000000000023 8.100000000000023 8.399999999999977 8.300000000000011 29.700000000000045 2 59.5 3.8999999999999773 89.20000000000005 5.800000000000011l-82.30000000000007 32.5c-6.099999999999909 2.3999999999999773-8.099999999999909 8.899999999999977-3.699999999999932 14 13.799999999999955 16.30000000000001 27.600000000000023 32.5 41.39999999999998 48.80000000000001-23.5-1.5-47.10000000000002-3-70.60000000000002-4.5-4.699999999999932-0.3000000000000682-8.199999999999932 4-8.399999999999977 8.299999999999955-0.6000000000000227 16.200000000000045-1.2000000000000455 32.30000000000007-1.7999999999999545 48.5l-16.700000000000045-35c-4.7000000000000455-9.699999999999932-19.100000000000023-1.1999999999999318-14.5 8.5l31 64.89999999999998c3.7999999999999545 8 15.299999999999955 3.5 15.600000000000023-4.199999999999932l1.6000000000000227-41.30000000000007c0.5-13.799999999999955 6.699999999999932-34.09999999999991-0.7000000000000455-34.299999999999955 19.600000000000023-5.600000000000023 65.5 5.899999999999977 83.70000000000005 7.100000000000023 7.7999999999999545 0.5 10.199999999999932-9.200000000000045 5.899999999999977-14.300000000000068-15.600000000000023-18.299999999999955-31.100000000000023-36.599999999999966-46.700000000000045-54.89999999999998 35.39999999999998-14 70.80000000000007-28 106.20000000000005-42 8.699999999999932-3.3999999999999773 7.600000000000023-15.799999999999955-2.2000000000000455-16.399999999999977z m-177.60000000000002 36.69999999999999c-1.3999999999999773-14.199999999999989-11.299999999999955-24.599999999999966-25.399999999999977-25.30000000000001-44.19999999999993-2.1999999999999886-88.39999999999998-4.099999999999966-132.69999999999993-5.899999999999977-54.5-2.1999999999999886-109.10000000000002-4.199999999999989-163.70000000000005-6.399999999999977-11.899999999999977-0.5-20.600000000000023-6.5-24.69999999999999-17.400000000000034-4.400000000000034-11.599999999999966-2.5-22.69999999999999 7.099999999999966-31.30000000000001 18.200000000000045-16.5 37-32.299999999999955 54.80000000000007-49.19999999999999 5.2999999999999545-5.099999999999966 9.599999999999909-12.699999999999989 11.399999999999977-19.899999999999977 2.7999999999999545-10.900000000000034-1.8000000000000682-20.5-11.300000000000068-26.900000000000034-9.399999999999977-6.399999999999977-19.399999999999977-6.399999999999977-29.299999999999955-0.6999999999999886-14.300000000000011 8.300000000000011-28.69999999999999 16.600000000000023-43 25-55.80000000000001 32.5-111.5 65.10000000000002-167.3 97.40000000000003-21.099999999999966 12.199999999999989-31.69999999999999 29.899999999999977-31.19999999999999 54.39999999999998 0.30000000000001137 21.399999999999977 0 42.89999999999998 0 64.30000000000001v60.19999999999999c0 39.10000000000002 18.19999999999999 59.10000000000002 56.89999999999998 64.10000000000002 49.60000000000002 6.399999999999977 99.20000000000005 13.299999999999955 148.70000000000005 20.299999999999955 26 3.7000000000000455 48.89999999999998-8.799999999999955 60-34.19999999999993 16.299999999999955-37.200000000000045 32.39999999999998-74.60000000000002 48.10000000000002-112.10000000000002 3.2999999999999545-7.900000000000034 7.7999999999999545-10.5 16.09999999999991-11.100000000000023 61-4.300000000000011 122-9.100000000000023 183-13.899999999999977 7.600000000000023-0.5 15.300000000000068-0.6000000000000227 22.600000000000023-2.400000000000034 13.100000000000023-3.3000000000000114 21.200000000000045-15.800000000000011 19.899999999999977-29z m-599.3-72.39999999999998h-215v364.7c17.6 3.1000000000000227 32.8 4.600000000000023 45.3 4.600000000000023 11.900000000000006 0 26.900000000000006-1.5 44.900000000000006-4.600000000000023v-143.10000000000002h98.3c3-15.299999999999955 4.599999999999994-28.699999999999932 4.599999999999994-40.19999999999993 0-11.300000000000068-1.5999999999999943-24.5-4.599999999999994-39.80000000000007h-98.3v-62.099999999999966h124.8c2.6999999999999886-15.600000000000023 4-29.100000000000023 4-40.30000000000001 0-5.699999999999989-0.30000000000001137-11.800000000000011-1-18.30000000000001-0.6999999999999886-6.5-1.6999999999999886-13.399999999999977-3-20.899999999999977z m-16 293.2c-3.5-3.7999999999999545-7.800000000000011-6.7999999999999545-12.900000000000006-8.899999999999977-5.199999999999989-2.1000000000000227-11.199999999999989-3.1000000000000227-18.099999999999994-3.1000000000000227-6.699999999999989 0-12.699999999999989 1-17.80000000000001 3.1000000000000227-5.199999999999989 2.1000000000000227-9.5 5.100000000000023-13 8.899999999999977-3.5 3.8999999999999773-6.099999999999994 8.5-7.799999999999983 13.899999999999977-1.8000000000000114 5.5-2.700000000000003 11.399999999999977-2.700000000000003 18 0 6.399999999999977 0.8999999999999915 12.300000000000068 2.700000000000003 17.600000000000023 1.6999999999999886 5.2999999999999545 4.299999999999983 9.899999999999977 7.799999999999983 13.700000000000045 3.5 3.7999999999999545 7.800000000000011 6.699999999999932 13 8.699999999999932s11.100000000000023 3.1000000000000227 17.80000000000001 3.1000000000000227c6.900000000000006 0 12.900000000000006-1 18.099999999999994-3.1000000000000227s9.400000000000006-4.899999999999977 12.900000000000006-8.699999999999932c3.5-3.800000000000068 6.099999999999994-8.400000000000091 7.900000000000006-13.700000000000045 1.799999999999983-5.2999999999999545 2.5999999999999943-11.200000000000045 2.5999999999999943-17.600000000000023 0-6.600000000000023-0.8000000000000114-12.5-2.5999999999999943-18-1.8000000000000114-5.399999999999977-4.400000000000006-10-7.900000000000006-13.899999999999977z m-20.400000000000006 47.5c-2.299999999999983 3.6000000000000227-5.799999999999983 5.5-10.599999999999994 5.5-4.699999999999989 0-8.199999999999989-1.8999999999999773-10.400000000000006-5.5-2.299999999999983-3.7000000000000455-3.4000000000000057-8.899999999999977-3.4000000000000057-15.600000000000023 0-6.899999999999977 1.1000000000000227-12.100000000000023 3.4000000000000057-15.799999999999955 2.200000000000017-3.6000000000000227 5.700000000000017-5.5 10.400000000000006-5.5 4.800000000000011 0 8.300000000000011 1.8999999999999773 10.599999999999994 5.5 2.3000000000000114 3.699999999999932 3.4000000000000057 8.899999999999977 3.4000000000000057 15.799999999999955 0 6.7000000000000455-1.0999999999999943 11.899999999999977-3.4000000000000057 15.600000000000023z m104.29999999999998-59c-2.1999999999999886 0-4.399999999999977 0.10000000000002274-6.699999999999989 0.2999999999999545-2.3000000000000114 0.20000000000004547-4.599999999999966 0.6000000000000227-7 1.1000000000000227v61c-0.39999999999997726 0.10000000000002274-1.099999999999966 0.20000000000004547-2.099999999999966 0.3000000000000682s-2.3000000000000114 0.09999999999990905-4.2000000000000455 0.09999999999990905c-4.399999999999977 0-7.599999999999966-1.099999999999909-9.799999999999983-3.5s-3.1999999999999886-6.699999999999932-3.1999999999999886-13.199999999999932v-44.700000000000045c-2.200000000000017-0.5-4.5-0.8999999999999773-6.900000000000006-1.1000000000000227-2.4000000000000057-0.1999999999999318-4.599999999999994-0.2999999999999545-6.599999999999994-0.2999999999999545-2.0999999999999943 0-4.400000000000006 0.10000000000002274-6.700000000000017 0.2999999999999545-2.299999999999983 0.20000000000004547-4.599999999999994 0.6000000000000227-7 1.1000000000000227v47c0 8.300000000000068 1.200000000000017 15 3.4000000000000057 20 2.3000000000000114 5 5.300000000000011 8.800000000000068 9.099999999999994 11.399999999999977 3.8000000000000114 2.6000000000000227 8.200000000000017 4.400000000000091 13.300000000000011 5.2000000000000455 5 0.8999999999999773 10.300000000000011 1.2999999999999545 15.699999999999989 1.2999999999999545 2.900000000000034 0 5.900000000000034-0.09999999999990905 8.900000000000034-0.5 3-0.2999999999999545 5.899999999999977-0.6999999999999318 8.799999999999955-1.2999999999999545 2.8000000000000114-0.6000000000000227 5.5-1.2000000000000455 8-1.8999999999999773 2.5-0.6000000000000227 4.7000000000000455-1.3000000000000682 6.5-1.8999999999999773v-79.30000000000007c-2.1999999999999886-0.5-4.599999999999966-0.8999999999999773-6.899999999999977-1.1000000000000227-2.3999999999999773-0.1999999999999318-4.600000000000023-0.2999999999999545-6.600000000000023-0.2999999999999545z m89.10000000000002 61.89999999999998h-30.399999999999977l0.19999999999998863-60.5c-2.3000000000000114-0.5-4.600000000000023-0.8999999999999773-6.900000000000034-1.1000000000000227-2.3999999999999773-0.1999999999999318-4.599999999999966-0.2999999999999545-6.599999999999966-0.2999999999999545-2.1999999999999886 0-4.400000000000034 0.10000000000002274-6.699999999999989 0.2999999999999545-2.3000000000000114 0.20000000000004547-4.7000000000000455 0.6000000000000227-7 1.1000000000000227l-0.20000000000004547 83.20000000000005h57.60000000000002c0.5-2.2000000000000455 0.8999999999999773-4.2000000000000455 1.1000000000000227-6.100000000000023 0.0999999999999659-1.7999999999999545 0.19999999999998863-3.6000000000000227 0.19999999999998863-5.399999999999977 0-1.7000000000000455-0.10000000000002274-3.3999999999999773-0.19999999999998863-5.300000000000068s-0.6000000000000227-3.7999999999999545-1.1000000000000227-5.899999999999977z"/>
</svg>
