<svg xmlns="http://www.w3.org/2000/svg" viewBox="0 0 1000 1000" width="1000" height="1000">
<path d="M1000 270.8c0 69.19999999999999-55.89999999999998 125.19999999999999-124.89999999999998 125.19999999999999s-125.20000000000005-56-125.20000000000005-125.19999999999999c0-68.9 56.200000000000045-124.9 125.20000000000005-124.9s124.89999999999998 56 124.89999999999998 124.9z m-154.20000000000005 166.8c-5.2999999999999545-1.8000000000000114-12-3.6000000000000227-19.59999999999991-5.400000000000034-73.20000000000005-28.5-157.60000000000002-76.09999999999997-197.70000000000005-99.5l37.799999999999955-264.1c3.300000000000068-22.79999999999997-12.599999999999909-43.89999999999996-35.39999999999998-47.19999999999997-22.699999999999932-3-43.89999999999998 12.600000000000001-47.19999999999993 35.4l-41.700000000000045 291.59999999999997c-2.2000000000000455 16.400000000000034 5.2999999999999545 32.700000000000045 19.299999999999955 41.200000000000045 1.3000000000000682 0.8999999999999773 7 4.2999999999999545 15.900000000000091 9.599999999999966l143.69999999999993 113.30000000000001c-21 91.79999999999995-66.79999999999995 158.60000000000002-108.5 200.10000000000002l-221.09999999999997 15.799999999999955-195.10000000000002-195.29999999999995c-16.399999999999977-16.300000000000068-42.79999999999998-16.300000000000068-59.099999999999994 0-16.299999999999997 16.299999999999955-16.299999999999997 42.69999999999993 0 59l208.4 208.29999999999995c7.899999999999977 7.800000000000068 18.5 12.300000000000068 29.5 12.300000000000068l112.5 12.399999999999977-151 66.5-274.3-156.89999999999998c-19.89999999999999-11.400000000000091-45.29999999999999-4.300000000000068-56.69999999999999 15.5-11.4 20.09999999999991-4.5 45.5 15.399999999999999 57l291.8 166.5999999999999c6.300000000000011 3.7000000000000455 13.5 5.5 20.5 5.5 2.6999999999999886 0 5.600000000000023-0.599999999999909 8.199999999999989-1 0.20000000000004547 1 208.60000000000002-40.69999999999993 300.30000000000007-82.39999999999998 8.299999999999955-4.100000000000023 233.39999999999998-116.60000000000002 275.0999999999999-358.29999999999995 4.100000000000023-45.80000000000001-8.399999999999977-79.20000000000005-71-99.90000000000003z"/>
</svg>
