<svg xmlns="http://www.w3.org/2000/svg" viewBox="0 0 1000 1000" width="1000" height="1000">
<path d="M456.1 571.4c-18-43-35.900000000000034-85.69999999999999-53.5-128.39999999999998-3.6000000000000227-8.699999999999989-7-2.5-9.900000000000034-0.19999999999998863l-121.89999999999998 95.69999999999999c-33.900000000000006 26.5-70.60000000000002 23.100000000000023-97.4-10.600000000000023-50.7-63.599999999999966-101-127.5-150.6-191.89999999999998-31.80000000000001-41.30000000000001-11.300000000000011-95.4 39.19999999999999-104.80000000000001 25.5-4.699999999999989 46.400000000000006 5.400000000000006 62.3 25.5 36.000000000000014 45.5 71.8 91.10000000000002 107.3 136.90000000000003 4.599999999999994 5.899999999999977 7.099999999999994 6.2999999999999545 13 1.6999999999999886 39.099999999999994-31.19999999999999 79.00000000000003-61.30000000000001 117.6-93 20.30000000000001-16.600000000000023 42.400000000000034-28 67.19999999999999-35.900000000000034 69.10000000000002-21.99999999999997 137.89999999999998-45.099999999999966 206.80000000000007-67.59999999999997 39.5-12.900000000000006 73.39999999999998 3.3999999999999773 86.59999999999991 42.69999999999999 26.100000000000023 77.60000000000002 51.5 155.3 76.70000000000005 233.2 9.5 29.400000000000034 0.10000000000002274 57.30000000000001-23.100000000000023 73.80000000000001-22.600000000000023 16.100000000000023-52.299999999999955 16.200000000000045-74.89999999999998 0.2999999999999545-12.5-8.799999999999955-20.299999999999955-20.899999999999977-25-35.19999999999993-18-54.700000000000045-36.10000000000002-109.30000000000001-53.799999999999955-164-2.300000000000068-7.100000000000023-4.5-9.300000000000011-12.200000000000045-6.600000000000023-29.200000000000045 10.100000000000023-58.700000000000045 19.69999999999999-88.20000000000005 29-6.2999999999999545 2-8.299999999999955 3.8000000000000114-5.399999999999977 10.699999999999989 49.200000000000045 119 98.10000000000002 238.09999999999997 158.30000000000007 352.3 5.399999999999977 10.299999999999955 10.699999999999932 20.700000000000045 15.5 31.299999999999955 2.2999999999999545 5.100000000000023 5.199999999999932 6.7000000000000455 10.699999999999932 6.300000000000068 35.89999999999998-2.5 71.80000000000007-4.899999999999977 107.70000000000005-7.100000000000023 40.19999999999993-2.5 80.5-5.7000000000000455 120.79999999999995-6.899999999999977 33.60000000000002-1 60.80000000000007 25.899999999999977 63 59.69999999999993 2.2000000000000455 33.40000000000009-21.699999999999932 63.90000000000009-55 67.40000000000009-33.799999999999955 3.599999999999909-67.79999999999995 5.199999999999932-101.69999999999993 7.399999999999977l-173.60000000000002 11.199999999999932c-32.60000000000002 2.1000000000000227-54.39999999999998-12.899999999999977-68.39999999999998-41.59999999999991-26.40000000000009-54.200000000000045-53.40000000000009-108-79.70000000000005-162.20000000000005-3.1999999999999886-6.600000000000023-6.600000000000023-7.600000000000023-13-6.2000000000000455-55.19999999999999 12.5-110.30000000000001 24.90000000000009-165.60000000000002 36.80000000000007-7 1.5-9.799999999999955 4.899999999999977-12 11-25.099999999999966 70.19999999999993-50.39999999999998 140.29999999999995-75.69999999999999 210.39999999999998-11 30.5-33.29999999999998 47.5-62.19999999999999 47.5-42.5 0-74.4-39.799999999999955-62-80.39999999999998 11.800000000000011-38.80000000000007 26.69999999999999-76.60000000000002 40.400000000000006-114.80000000000007 17.400000000000006-48.59999999999991 34.900000000000006-97.09999999999991 52.29999999999998-145.5999999999999 8.800000000000011-24.600000000000023 25.700000000000017-39.60000000000002 51.400000000000034-45.200000000000045 60.5-13.200000000000045 120.79999999999995-26.700000000000045 181.29999999999995-40.200000000000045 2-0.39999999999997726 4.100000000000023-1.5 6.7000000000000455-2.3999999999999773z m0.6999999999999886-443.2c-2.5 72-59.80000000000001 127.4-130 124.80000000000001-73.60000000000002-2.6999999999999886-126.30000000000001-64.69999999999999-122.60000000000002-135.2 3.5-67.00000000000001 63.30000000000001-120.4 134.10000000000002-117.70000000000002 65.59999999999997 2.5000000000000058 120.80000000000001 62.10000000000001 118.5 128.1z"/>
</svg>
