<svg xmlns="http://www.w3.org/2000/svg" viewBox="0 0 1000 1000" width="1000" height="1000">
<path d="M231.8 618.1c-59.80000000000001 0-108.4 48.60000000000002-108.4 108.39999999999998 0 59.799999999999955 48.599999999999994 108.39999999999998 108.4 108.39999999999998h612.2c59.700000000000045 0 108.29999999999995-48.60000000000002 108.29999999999995-108.39999999999998 0-39.299999999999955-21.09999999999991-73.70000000000005-52.5-92.70000000000005 7.400000000000091-115.29999999999995-8.199999999999932-195.09999999999997-46.69999999999993-236.99999999999994-24.5-26.80000000000001-49.30000000000007-28.30000000000001-54.30000000000007-28.400000000000034h-547.3l-96.30000000000001-164.7h-41.999999999999986l25.499999999999986-0.19999999999998863c0-0.19999999999998863 1-14.5 15.200000000000017-28.80000000000001 15.599999999999994-15.899999999999977 49.79999999999998-34.69999999999999 124.49999999999997-34.69999999999999v-51c-74.09999999999997 0-128.2 16.799999999999997-160.89999999999998 49.80000000000001-28.900000000000006 29.299999999999983-29.799999999999997 60.599999999999994-29.799999999999997 64.89999999999998h-12.700000000000003l127.5 414.40000000000003h29.30000000000001z m285.2 191.29999999999995h-169.3v-165.79999999999995h169.3v165.79999999999995z m212.39999999999998 0h-170.69999999999993v-165.79999999999995h170.69999999999993v165.79999999999995z m197.39999999999998-82.89999999999998c0 45.700000000000045-37.19999999999993 82.89999999999998-82.79999999999995 82.89999999999998h-72.89999999999998v-165.79999999999995h72.89999999999998c45.60000000000002 0 82.79999999999995 37.19999999999993 82.79999999999995 82.89999999999998z m-130.0999999999999-307.1c19.299999999999955 2.900000000000034 60.59999999999991 44.200000000000045 52.89999999999998 199-1.8000000000000682-0.10000000000002274-3.7000000000000455-0.2999999999999545-5.600000000000023-0.2999999999999545h-446.5l-116.19999999999999-198.70000000000005h515.4000000000001z m-490.70000000000005 224.20000000000005v165.79999999999995h-74.19999999999999c-45.80000000000001 0-82.9-37.19999999999993-82.9-82.89999999999998 0-45.700000000000045 37.099999999999994-82.89999999999998 82.9-82.89999999999998h74.19999999999999z m680.6 239.60000000000002l-0.5-0.900000000000091c-8.200000000000045-15.299999999999955-27.700000000000045-27.699999999999932-43.60000000000002-27.699999999999932h-793.9s-23.300000000000026 1.5-69.70000000000002-35.700000000000045l-53.900000000000006-41.10000000000002c-13.8-10.5-25-5-25 12.400000000000091v5.099999999999909c0 17.40000000000009 11.3 39.90000000000009 25.2 50.30000000000007l55.3 41.39999999999998s12.099999999999994 9.899999999999977 33.599999999999994 17.200000000000045c16.5 5.599999999999909 44.80000000000001 6.7999999999999545 62.20000000000002 6.7999999999999545h331.7c17.299999999999955 0 45.5 0 62.89999999999998 0 28.700000000000045 0 66.80000000000007 0 66.80000000000007 0h362.19999999999993s-5.100000000000023-12.399999999999977-13.299999999999955-27.799999999999955z"/>
</svg>
