<svg xmlns="http://www.w3.org/2000/svg" viewBox="0 0 1000 1000" width="1000" height="1000">
<path d="M453 1.9c-111.80000000000001 10.4-221 58.6-306.9 144.29999999999998-85.70000000000002 85.80000000000001-133.90000000000003 195-144.3 307 122.89999999999999 14.300000000000011 253.5 77.09999999999997 360.7 184.3 107.19999999999999 107.20000000000005 170.10000000000002 238 184.20000000000005 360.6 112.19999999999993-10.300000000000068 221.19999999999993-58.5 307.0999999999999-144.20000000000005 85.80000000000007-85.79999999999995 133.9000000000001-195 144.20000000000005-307-122.5-14.199999999999932-253.39999999999998-77-360.6-184.2-107.10000000000002-107.19999999999999-170-238-184.39999999999998-360.8z m546.9 483c-3.6000000000000227-123-52.19999999999993-244.79999999999998-146-338.7-93.89999999999998-93.89999999999999-215.79999999999995-142.39999999999998-338.79999999999995-146.2 13.799999999999955 107.4 70.79999999999995 222.8 166.5 318.5 95.60000000000002 95.60000000000002 210.89999999999998 152.60000000000002 318.29999999999995 166.39999999999998z m-999.9 30.300000000000068c3.6 123 52.3 244.79999999999995 146.1 338.69999999999993 93.80000000000001 93.80000000000007 215.70000000000002 142.5 338.70000000000005 146.10000000000002-13.900000000000091-107.29999999999995-70.80000000000007-222.70000000000005-166.50000000000006-318.29999999999995-95.5-95.60000000000002-210.9-152.60000000000002-318.3-166.5z"/>
</svg>
