<svg xmlns="http://www.w3.org/2000/svg" viewBox="0 0 1000 1000" width="1000" height="1000">
<path d="M378.9 198.2c54.30000000000001 9.800000000000011 106.30000000000001-26.299999999999983 116.10000000000002-80.6 9.800000000000011-54.3-26.30000000000001-106.19999999999999-80.60000000000002-116.1-54.299999999999955-9.8-106.19999999999999 26.3-116 80.6-9.899999999999977 54.400000000000006 26.200000000000045 106.30000000000001 80.5 116.1z m389.20000000000005 750.5c-16.800000000000068-48.5-18.100000000000023-78.90000000000009-126.80000000000007-53.90000000000009l-149.99999999999994-330.4c4.899999999999977-0.10000000000002274 9.699999999999989-1.1000000000000227 14.399999999999977-3.199999999999932 19.19999999999999-8.400000000000091 28.000000000000057-30.700000000000045 19.599999999999966-49.900000000000034l-98.09999999999997-224.8c-4-9-11.099999999999966-15.600000000000023-19.5-19.399999999999977-10.599999999999966-8.700000000000045-23.5-15.000000000000028-38.099999999999966-17.600000000000023-45.30000000000001-8.099999999999994-88.60000000000002 22-96.80000000000001 67.30000000000001l-40.5 224.59999999999997c-5 27.700000000000045 4.399999999999977 54.60000000000002 22.69999999999999 73.30000000000007v343.79999999999995c0 23 18.600000000000023 41.60000000000002 41.69999999999999 41.60000000000002 23 0 41.69999999999999-18.600000000000023 41.69999999999999-41.60000000000002v-22.799999999999955c23 0 41.700000000000045-18.700000000000045 41.700000000000045-41.700000000000045v-286.70000000000005c8.099999999999966-10.299999999999955 13.899999999999977-22.699999999999932 16.399999999999977-36.5l21.100000000000023-116.99999999999994 38.299999999999955 87.80000000000001c5.300000000000011 12 16.100000000000023 20 28.100000000000023 22.100000000000023 65.5 159.5 157.39999999999998 384.9 157.39999999999998 384.9s139.30000000000007 36.299999999999955 126.70000000000005 0.10000000000002274z"/>
</svg>
