<svg xmlns="http://www.w3.org/2000/svg" viewBox="0 0 1000 1000" width="1000" height="1000">
<path d="M187 514.2l138.2 0.5c3.400000000000034 0 7.600000000000023 2.3999999999999773 9.300000000000011 5.2999999999999545l70.10000000000002 118.60000000000002c1.6999999999999886 2.8999999999999773 1.7999999999999545 7.699999999999932 0.0999999999999659 10.600000000000023l-68.19999999999999 118c-1.6999999999999886 2.8999999999999773-5.800000000000011 5.2999999999999545-9.199999999999989 5.2999999999999545l-138.20000000000002-0.5c-3.4000000000000057 0-7.599999999999994-2.3999999999999773-9.299999999999983-5.2999999999999545l-70.10000000000001-118.5c-1.7000000000000028-2.900000000000091-1.7999999999999972-7.7000000000000455-0.10000000000000853-10.600000000000023l68.20000000000002-118c1.6999999999999886-3 5.799999999999983-5.399999999999977 9.199999999999989-5.399999999999977z m488.79999999999995-1.2000000000000455l138.30000000000007 0.5c3.3999999999999773 0 7.600000000000023 2.3999999999999773 9.299999999999955 5.2999999999999545l70.10000000000002 118.70000000000005c1.7000000000000455 2.8999999999999773 1.7999999999999545 7.7000000000000455 0 10.600000000000023l-68.20000000000005 117.89999999999998c-1.6999999999999318 2.8999999999999773-5.7999999999999545 5.2999999999999545-9.199999999999932 5.2999999999999545l-138.20000000000005-0.599999999999909c-3.3999999999999773 0-7.600000000000023-2.400000000000091-9.299999999999955-5.300000000000068l-70.10000000000002-118.39999999999998c-1.7000000000000455-2.8999999999999773-1.7999999999999545-7.7000000000000455-0.10000000000002274-10.600000000000023l68.10000000000002-118c1.7000000000000455-3 5.899999999999977-5.399999999999977 9.299999999999955-5.399999999999977z m-9.5-32.60000000000002l-71-117.09999999999997c-1.7999999999999545-2.900000000000034-1.7999999999999545-7.699999999999989-0.1999999999999318-10.600000000000023l67.10000000000002-119.39999999999998c1.6999999999999318-3 5.7999999999999545-5.400000000000006 9.199999999999932-5.5l138.20000000000005-2.3000000000000114c3.3999999999999773-0.09999999999999432 7.600000000000023 2.3000000000000114 9.399999999999977 5.199999999999989l71 117.10000000000002c1.7999999999999545 2.8999999999999773 1.7999999999999545 7.699999999999989 0.20000000000004547 10.599999999999966l-67.10000000000002 119.40000000000003c-1.7000000000000455 3-5.800000000000068 5.399999999999977-9.200000000000045 5.5l-138.19999999999993 2.3000000000000114c-3.400000000000091 0.0999999999999659-7.600000000000023-2.3000000000000114-9.400000000000091-5.2000000000000455z m-246.79999999999995-137.39999999999998l-71-117.19999999999999c-1.8000000000000114-2.9000000000000057-1.8000000000000114-7.700000000000017-0.19999999999998863-10.600000000000023l67.09999999999997-119.29999999999998c1.7000000000000455-3 5.800000000000011-5.400000000000006 9.200000000000045-5.5l138.19999999999993-2.3000000000000114c3.400000000000091-0.09999999999999432 7.600000000000023 2.3000000000000114 9.400000000000091 5.200000000000003l71 117.10000000000001c1.7999999999999545 2.9000000000000057 1.7999999999999545 7.699999999999989 0.1999999999999318 10.599999999999994l-67.10000000000002 119.39999999999998c-1.6999999999999318 3-5.7999999999999545 5.400000000000034-9.199999999999932 5.5l-138.20000000000005 2.3000000000000114c-3.3999999999999773 0.10000000000002274-7.599999999999966-2.3000000000000114-9.399999999999977-5.199999999999989z m-241.9 142.39999999999998l-71-117.09999999999997c-1.7999999999999972-2.900000000000034-1.7999999999999972-7.699999999999989-0.19999999999998863-10.600000000000023l67.1-119.39999999999998c1.6999999999999886-3 5.800000000000011-5.400000000000006 9.199999999999989-5.5l138.2-2.3000000000000114c3.400000000000034-0.09999999999999432 7.600000000000023 2.3000000000000114 9.400000000000034 5.199999999999989l71 117.10000000000002c1.8000000000000114 2.8999999999999773 1.8000000000000114 7.699999999999989 0.19999999999998863 10.599999999999966l-67.10000000000002 119.40000000000003c-1.6999999999999886 3-5.7999999999999545 5.399999999999977-9.199999999999989 5.5l-138.2 2.1999999999999886c-3.4000000000000057 0.10000000000002274-7.599999999999994-2.1999999999999886-9.400000000000006-5.100000000000023z m-115.1 14.600000000000023c0 241.70000000000005 195.89999999999998 437.5 437.5 437.5s437.5-195.79999999999995 437.5-437.5c0-241.60000000000002-195.89999999999998-437.5-437.5-437.5s-437.5 195.89999999999998-437.5 437.5z m367.4 153.60000000000002l138.20000000000005 0.5c3.3999999999999773 0 7.600000000000023 2.3999999999999773 9.299999999999955 5.2999999999999545l70.10000000000002 118.60000000000002c1.7000000000000455 2.8999999999999773 1.7999999999999545 7.7000000000000455 0.10000000000002274 10.600000000000023l-68.20000000000005 118c-1.6999999999999318 2.8999999999999773-5.7999999999999545 5.2999999999999545-9.199999999999932 5.2999999999999545l-138.20000000000005-0.5c-3.3999999999999773 0-7.600000000000023-2.3999999999999773-9.300000000000011-5.2999999999999545l-70.09999999999997-118.60000000000002c-1.7000000000000455-2.8999999999999773-1.8000000000000114-7.7000000000000455-0.10000000000002274-10.600000000000023l68.19999999999999-118c1.6000000000000227-3 5.800000000000011-5.399999999999977 9.199999999999989-5.2999999999999545z"/>
</svg>
