<svg xmlns="http://www.w3.org/2000/svg" viewBox="0 0 1000 1000" width="1000" height="1000">
<path d="M953.3 363.6c-52.09999999999991-43-106.29999999999995-84-155.0999999999999-130.60000000000002-40.200000000000045-38.400000000000006-83.80000000000007-61.900000000000006-139.5-62.19999999999999-8.300000000000068-0.10000000000002274-17 0-24.800000000000068-2.4000000000000057-18-5.599999999999994-27.5 1-38.10000000000002 16.299999999999983-43.59999999999991 63.5-134.49999999999994 72-180.89999999999998 11.700000000000017-24-31.200000000000017-46.89999999999998-30-77-25-20.099999999999966 3.299999999999983-40.299999999999955 6.099999999999994-60.5 8.299999999999983-8.699999999999989 0.9000000000000057-15.799999999999955 3.5-22.49999999999997 9.200000000000017-70.1 59.099999999999994-140.3 118.20000000000002-210.9 176.79999999999998-10.299999999999997 8.600000000000023-10 14.600000000000023-1.5 24.30000000000001 28.599999999999994 32.80000000000001 56.7 66 84.3 99.80000000000001 8.899999999999991 10.899999999999977 14.700000000000003 12.199999999999989 25.89999999999999 2.099999999999966 25.700000000000017-23.19999999999999 53-44.599999999999966 84.70000000000002-71.09999999999997 0 15.899999999999977 0 24.80000000000001 0 33.80000000000001 0 118.69999999999993 0.09999999999999432 237.39999999999998 0.09999999999999432 356.1 0 41.59999999999991 1.6999999999999886 44.5 42.19999999999999 54.39999999999998 101 24.600000000000023 203.7 24.799999999999955 306.59999999999997 19.299999999999955 45.200000000000045-2.3999999999999773 90.30000000000007-7 134.30000000000007-19.199999999999932 38.799999999999955-10.700000000000045 41.5-13.800000000000068 41.5-52.80000000000007 0-75.10000000000002-0.20000000000004547-150.19999999999993-0.3000000000000682-225.29999999999995 0-53.39999999999998 0-106.70000000000005 0-167.20000000000005 31.600000000000023 26.400000000000034 58.10000000000002 47.5 83.20000000000005 70 12.200000000000045 11 19.299999999999955 11.700000000000045 30.200000000000045-2.099999999999966 26.199999999999932-33.5 53.59999999999991-66.19999999999999 81.79999999999995-98 10.799999999999955-12.199999999999989 6.2999999999999545-17.900000000000034-3.7000000000000455-26.19999999999999z m-280.9-40.900000000000034c-2.199999999999932 18.19999999999999-20.899999999999977 47-34.5 47.19999999999999-12.299999999999955 0.10000000000002274-31.299999999999955-28.399999999999977-33.5-45.099999999999966-4.100000000000023-30.600000000000023 15.600000000000023-27 34.5-25.80000000000001 15.899999999999977 0.6999999999999886 37.30000000000007-7.399999999999977 33.5 23.69999999999999z m-647.4 11.699999999999989c69.7-58.19999999999999 139.2-116.69999999999999 208.5-175.39999999999998 8.800000000000011-7.400000000000006 17.900000000000006-11.900000000000006 29.80000000000001-13.099999999999994 33.099999999999966-3.200000000000017 66.30000000000001-7.300000000000011 99.30000000000001-11.900000000000006 7.199999999999989-1 17.599999999999966 0.6999999999999886 19.599999999999966-10.400000000000006-1.8000000000000114-10.099999999999994-8-8-14.899999999999977-7.199999999999989-39.5 5-79 9.599999999999994-118.5 14-8.900000000000006 1-15.400000000000006 5.699999999999989-21.900000000000006 11.099999999999994-70.9 59.69999999999999-142 119.10000000000002-212.5 179.3-5.600000000000005 4.699999999999989-20.900000000000006 8.800000000000011-11.300000000000006 20.599999999999966 9.700000000000001 11.900000000000034 16-2 21.9-7z m960.2-13.599999999999966c-70.20000000000005-60-141-119.5-211.9000000000001-178.9-5.5-4.599999999999994-12.199999999999932-9.900000000000006-18.799999999999955-10.700000000000017-42.10000000000002-5.599999999999994-84.39999999999998-9.899999999999991-126.5-14.699999999999989-4.7999999999999545-1.5999999999999943-9.200000000000045-1.2000000000000028-10.100000000000023 4.900000000000006-1.1000000000000227 7.599999999999994 4.100000000000023 9.900000000000006 9.800000000000068 10.599999999999994 26.5 3.5 53.299999999999955 5.800000000000011 79.69999999999993 10.099999999999994 20.5 3.3000000000000114 41.89999999999998 1.8000000000000114 59.89999999999998 17.30000000000001 68 58.5 136.80000000000007 115.99999999999997 205.70000000000005 173.4 6.399999999999977 5.399999999999977 13.299999999999955 20.69999999999999 23.899999999999977 8.300000000000011 9.700000000000045-11.300000000000011-6-15.400000000000034-11.699999999999932-20.30000000000001z m-16.200000000000045 21.899999999999977c-67.70000000000005-57.69999999999999-135.70000000000005-114.89999999999998-203.79999999999995-172.1-5.5-4.599999999999994-11.600000000000023-10.799999999999983-18.200000000000045-11.900000000000006-39.200000000000045-6.299999999999983-78.60000000000002-11.399999999999977-116.20000000000005-16.599999999999994-8.099999999999909 0-16.799999999999955-1.5999999999999943-16.59999999999991 7.5 0.09999999999990905 8.800000000000011 9.099999999999909 7.099999999999994 15.199999999999932 7.900000000000006 26.600000000000023 3.5999999999999943 53.10000000000002 8.800000000000011 79.80000000000007 9.800000000000011 23.199999999999932 0.8999999999999773 39.69999999999993 11.199999999999989 56.299999999999955 25.5 64 54.89999999999998 128.5 109.19999999999999 193.10000000000002 163.2 5.199999999999932 4.399999999999977 10.5 17.19999999999999 19.899999999999977 7.199999999999989 11.100000000000023-11.899999999999977-3.8999999999999773-15.800000000000011-9.5-20.5z m-928.3 13.800000000000011c63.299999999999955-52.69999999999999 126.69999999999996-105.5 188.89999999999995-159.6 19.5-17 38.50000000000003-29.599999999999994 65.9-30 24.69999999999999-0.4000000000000057 49.39999999999998-6 74.19999999999999-9.300000000000011 6.199999999999989-0.9000000000000057 13.400000000000034 0.4000000000000057 16.100000000000023-7.699999999999989-0.5-7.800000000000011-6.199999999999989-8.400000000000006-11.900000000000034-7.900000000000006-16.5 1.6999999999999886-33.599999999999966 1.8000000000000114-49.5 6-28.19999999999999 7.599999999999994-60.89999999999998-1.3000000000000114-85.19999999999999 18.900000000000006-70.69999999999999 58.5-140.39999999999998 118.1-210.2 177.6-5.199999999999999 4.300000000000011-18.1 7.899999999999977-8.2 18.600000000000023 9.8 10.599999999999966 14.999999999999996-2.5 19.900000000000002-6.600000000000023z m459.49999999999994-131.8c51.80000000000001-0.09999999999999432 97.69999999999999-39 104.69999999999999-89.39999999999998 1.1000000000000227-8.000000000000014 6.800000000000068-19.30000000000001-8.299999999999955-21.900000000000006-15.5-2.700000000000003-12.100000000000023 9-14 17.400000000000006-9.899999999999977 42-42.60000000000002 70.29999999999998-81.30000000000001 70.89999999999998-40.19999999999999 0.6000000000000227-73.19999999999999-27.299999999999983-83.80000000000001-71.1-2-8.399999999999991 0.8999999999999773-20.19999999999999-14.300000000000011-17.099999999999994-14.599999999999966 3-9.199999999999989 14.699999999999989-8.199999999999989 22.400000000000006 6.399999999999977 49.400000000000006 53.60000000000002 88.9 105.19999999999999 88.79999999999998z"/>
</svg>
