<svg xmlns="http://www.w3.org/2000/svg" viewBox="0 0 1000 1000" width="1000" height="1000">
<path d="M850.2 274c7.899999999999977 1.3999999999999773 15.899999999999977 1.5 23.799999999999955 3.1999999999999886 49.299999999999955 10.400000000000034 86.10000000000002 37.80000000000001 108.89999999999998 82.60000000000002 40.10000000000002 78.80000000000001 7.300000000000068 173.09999999999997-72.69999999999993 211.2-88.80000000000007 42.39999999999998-196.4000000000001-10-217.70000000000005-106-0.6000000000000227-2.8000000000000114-1.1000000000000227-5.699999999999989-1.7000000000000455-8.5-0.2999999999999545-1.8000000000000114 0-2.6999999999999886 2.1000000000000227-2.1999999999999886 10.100000000000023 2.599999999999966 20 6.099999999999966 29.700000000000045 10.199999999999989 1.6000000000000227 0.6000000000000227 2 2 2.5 3.5 13.199999999999932 38.60000000000002 38.799999999999955 65.29999999999995 77 79.5 68.89999999999998 25.5 146.5-16.100000000000023 163.5-87.69999999999999 14.100000000000023-59.69999999999999-15.200000000000045-119.90000000000003-71.30000000000007-144.10000000000002-73.5-31.599999999999966-154.5 10.900000000000034-171.89999999999998 86.80000000000001-0.6000000000000227 2.5-1.3999999999999773 5.100000000000023-1.5 7.699999999999989-0.10000000000002274 3.5-1.6000000000000227 3.1999999999999886-4.199999999999932 2.3000000000000114-6.900000000000091-2.3000000000000114-14-3.8999999999999773-21.300000000000068-4.899999999999977-5.199999999999932-0.8000000000000114-5.2999999999999545-0.7000000000000455-4.2999999999999545-5.600000000000023 6.699999999999932-34.30000000000001 22.600000000000023-63.5 48.5-87.10000000000002 25.399999999999977-22.899999999999977 55.19999999999993-36.099999999999966 89.19999999999993-39.89999999999998 2.7000000000000455-0.30000000000001137 5.5 0.39999999999997726 8.100000000000023-1h13.300000000000068z m-692.1 0c7.499999999999972 1.3999999999999773 15.099999999999966 1.1000000000000227 22.599999999999966 2.3000000000000114 36.5 6.199999999999989 67.20000000000002 23 91.69999999999999 50.69999999999999 28 31.600000000000023 41.900000000000034 69.10000000000002 38.80000000000001 111.19999999999999-4.599999999999966 63.900000000000034-37.39999999999998 109.09999999999997-95.69999999999999 135.7-3.5 1.5-4.099999999999994 0.6000000000000227-3.9000000000000057-2.7999999999999545 0.700000000000017-9.5 1.5999999999999943-19 3.5-28.300000000000068 0.4000000000000057-2.099999999999909 1.3000000000000114-3.3999999999999773 3.0999999999999943-4.5 33.60000000000002-19.899999999999977 54.30000000000001-49.099999999999966 60.69999999999999-87.59999999999997 11.600000000000023-69.09999999999997-34.69999999999999-132.3-101.09999999999997-143.59999999999997-65.50000000000001-11.100000000000023-126.20000000000002 28.099999999999966-142.8 91.79999999999995-16.5 62.900000000000034 18.9 128.39999999999998 80.4 149.20000000000005 15.299999999999983 5.199999999999932 30.900000000000006 7.399999999999977 46.900000000000006 6.5 2.8999999999999773-0.20000000000004547 3.5999999999999943 0.5 3.3999999999999773 3.5-0.5999999999999943 7.699999999999932-1.1999999999999886 15.5-0.19999999999998863 23.199999999999932 0.5 3.400000000000091-0.8000000000000114 4.300000000000068-3.9000000000000057 4.400000000000091-15.099999999999994 0.2999999999999545-30.19999999999999-0.900000000000091-44.69999999999999-5.100000000000023-51.2-14.399999999999977-87.2-46.30000000000007-106.7-95.90000000000003-24.500000000000004-62-3.600000000000003-135.8 49.199999999999996-176.7 24.1-18.69999999999999 51.199999999999996-29.600000000000023 81.4-33 4.399999999999977-0.39999999999997726 8.799999999999983 0.19999999999998863 13.199999999999989-1h4.099999999999994z m343.59999999999997 0c7.699999999999989 1.3000000000000114 15.599999999999966 1.1999999999999886 23.400000000000034 2.3999999999999773 61.39999999999998 9.700000000000045 113 57.700000000000045 126.60000000000002 118 16.299999999999955 71.80000000000001-17.800000000000068 143.20000000000005-83.90000000000009 175.70000000000005-3 1.5-6.099999999999909 2.699999999999932-9.099999999999909 4.100000000000023-2.1000000000000227 1-2.900000000000091 0.39999999999997726-2.800000000000068-2 0.10000000000002274-10.200000000000045 1.1000000000000227-20.40000000000009 3.5-30.40000000000009 0.5-2 1.8999999999999773-2.8999999999999773 3.3999999999999773-3.7999999999999545 33.90000000000009-20.299999999999955 54.30000000000007-50 60.700000000000045-89 10.100000000000023-62.19999999999999-28.700000000000045-122.39999999999998-90-139.3-71.80000000000001-19.69999999999999-142.39999999999998 25.400000000000034-156.2 97.30000000000001-1.1999999999999886 6.100000000000023-1.1999999999999886 6.100000000000023-7.300000000000011 4.600000000000023-7-1.7000000000000455-14-3-21.19999999999999-3.7000000000000455-2.5-0.19999999999998863-2.6999999999999886-1-2.400000000000034-3.2999999999999545 4-24.600000000000023 13.400000000000034-46.900000000000034 28.30000000000001-66.80000000000001 26-34.69999999999999 60.60000000000002-55.30000000000001 103.5-61.900000000000034 6.400000000000034-1 12.900000000000034-1.2999999999999545 19.30000000000001-1.8999999999999773h4.199999999999989z m165.09999999999997 452.29999999999995c-7.699999999999932-1.5-15.599999999999909-1.3999999999999773-23.299999999999955-3.199999999999932-64.39999999999998-14.899999999999977-106-54-122.20000000000005-118-18.399999999999977-72.89999999999998 22.90000000000009-151.10000000000002 92.70000000000005-178.70000000000005 0.7999999999999545-0.2999999999999545 1.6000000000000227-0.5999999999999659 2.7000000000000455-1 0.7999999999999545 7.600000000000023-0.3000000000000682 14.700000000000045-0.8000000000000682 21.900000000000034-0.6000000000000227 8.899999999999977-4.600000000000023 14.399999999999977-12.399999999999977 19.5-31.299999999999955 20.69999999999999-49.39999999999998 50.400000000000034-54.39999999999998 87.59999999999997-8.700000000000045 64.89999999999998 35.5 126.10000000000002 99.39999999999998 138.5 69.89999999999998 13.600000000000023 136.29999999999995-32.60000000000002 147.70000000000005-102.69999999999993 0.39999999999997726-2.7000000000000455 1.099999999999909-3.1000000000000227 3.599999999999909-2.400000000000091 7.900000000000091 2.400000000000091 16.100000000000023 3.6000000000000227 24.300000000000068 4.7000000000000455 2.2999999999999545 0.2999999999999545 3.1000000000000227 0.7999999999999545 2.6000000000000227 3.2999999999999545-9.400000000000091 49.700000000000045-36 87.10000000000002-80.30000000000007 111.60000000000002-19.5 10.800000000000068-40.5 16.700000000000045-62.69999999999993 18.100000000000023-1.2000000000000455 0.10000000000002274-2.400000000000091 0.5-3.6000000000000227 0.7999999999999545h-13.300000000000068z m-343.49999999999994 0c-7.900000000000034-1.3999999999999773-16-1.3999999999999773-23.80000000000001-3.199999999999932-61.599999999999994-14-102.6-50.80000000000007-120.6-111.39999999999998-22-74.20000000000005 18.099999999999994-155.70000000000005 89.6-184.80000000000007 1.1999999999999886-0.5 2.3999999999999773-1.3999999999999773 4.199999999999989-1 0.6000000000000227 11.300000000000011-0.8000000000000114 22.5-3.5 33.5-0.39999999999997726 1.8000000000000114-2 2.1000000000000227-3.1999999999999886 2.900000000000034-31.30000000000001 18.899999999999977-51.30000000000001 46-59.19999999999999 81.80000000000001-13 58.299999999999955 18.799999999999983 119.10000000000002 74.09999999999997 141.60000000000002 72.60000000000002 29.5 152.3-11.900000000000091 169.8-88.40000000000009 0.30000000000001137-1.2999999999999545 0.6000000000000227-2.699999999999932 0.9000000000000341-4 1.1999999999999886-6 1.1999999999999886-6.099999999999909 7-4.599999999999909 6.699999999999989 1.6999999999999318 13.5 2.8999999999999773 20.399999999999977 3.599999999999909 3.3999999999999773 0.3000000000000682 3.8999999999999773 1.6000000000000227 3.3999999999999773 4.600000000000023-3.599999999999966 19.200000000000045-10 37.30000000000007-20.299999999999955 53.89999999999998-25.80000000000001 41.200000000000045-62.900000000000034 65.70000000000005-110.90000000000003 73.60000000000002-4.899999999999977 0.8999999999999773-9.899999999999977 0.5-14.699999999999989 1.8999999999999773h-13.300000000000011z m172.5-140.89999999999998c-65.30000000000001-4.600000000000023-112.5-35.69999999999993-139.60000000000002-95.89999999999998-4.5-10-7.199999999999989-20.5-9.399999999999977-31.19999999999999-0.6000000000000227-3 0-3.6999999999999886 3-3 8.899999999999977 2 17.599999999999966 4.599999999999966 26.30000000000001 7.399999999999977 2.6999999999999886 0.9000000000000341 4.199999999999989 2.400000000000034 5.099999999999966 5.199999999999989 11.5 35.400000000000034 34.400000000000034 60.89999999999998 68.19999999999999 76.39999999999998 17.80000000000001 8.100000000000023 36.80000000000001 11.5 56.400000000000034 10.300000000000068 3.599999999999966-0.20000000000004547 4.399999999999977 0.5 3.8000000000000114 4.199999999999932-1.2000000000000455 7.7000000000000455-1.1000000000000227 15.400000000000091 0.0999999999999659 23.100000000000023 0.30000000000001137 2.5 0 3.6000000000000227-2.6999999999999886 3.6000000000000227-3.6999999999999886-0.20000000000004547-7.5-0.10000000000002274-11.199999999999989-0.10000000000002274z m167.2-170.29999999999995c28.5-1.7000000000000455 55.200000000000045 3.3999999999999773 80.10000000000002 16.399999999999977 44.39999999999998 23.19999999999999 71.89999999999998 59.5 82.69999999999993 108.39999999999998 1.3000000000000682 5.899999999999977 1.2000000000000455 5.899999999999977-4.399999999999977 4.7000000000000455-8.699999999999932-1.8000000000000682-17.100000000000023-4.399999999999977-25.399999999999977-7.399999999999977-2.2000000000000455-0.8000000000000682-3.2000000000000455-2.1000000000000227-3.8999999999999773-4.2000000000000455-15-44.39999999999998-45.200000000000045-72.60000000000002-90.60000000000002-84.30000000000001-11.399999999999977-3-23.100000000000023-3.599999999999966-34.89999999999998-3-2.7000000000000455 0.19999999999998863-3.800000000000068 0-3.2000000000000455-3.3999999999999773 1.5-8.900000000000034 1.2000000000000455-17.80000000000001-0.39999999999997726-27.19999999999999z m-330.5-0.20000000000004547c70.5 1.3000000000000114 130.10000000000002 50.5 147.10000000000002 116.30000000000007 1 3.8999999999999773 1.599999999999966 7.899999999999977 2.599999999999966 11.699999999999932 0.6000000000000227 2.3999999999999773-0.39999999999997726 2.7000000000000455-2.3000000000000114 2.300000000000068-10-2.1000000000000227-19.799999999999955-5-29.399999999999977-8.5-1.8999999999999773-0.7000000000000455-2.1000000000000227-2.400000000000091-2.6000000000000227-3.900000000000091-12.099999999999966-36.89999999999998-36.099999999999966-62.99999999999994-71.89999999999998-78.19999999999993-16.600000000000023-7-34.19999999999999-9.700000000000045-52.19999999999999-9-5.100000000000023 0.19999999999998863-5 0.19999999999998863-4.400000000000034-4.7000000000000455 1-7.2999999999999545 1.1000000000000227-14.599999999999966-0.0999999999999659-21.899999999999977-0.5-2.8000000000000114-0.10000000000002274-4.399999999999977 3.3000000000000114-4.100000000000023 3.2999999999999545 0.20000000000004547 6.599999999999966 0 9.899999999999977 0z"/>
</svg>
