<svg xmlns="http://www.w3.org/2000/svg" viewBox="0 0 1000 1000" width="1000" height="1000">
<path d="M521.1 180.8c49.89999999999998 0 90.39999999999998-40.60000000000002 90.39999999999998-90.50000000000001 0-49.8-40.5-90.3-90.39999999999998-90.3s-90.30000000000001 40.5-90.30000000000001 90.4c0 49.900000000000006 40.39999999999998 90.4 90.30000000000001 90.4z m43.799999999999955 343.59999999999997c-67.69999999999999-39.799999999999955-121.39999999999998-64.19999999999999-164-78.79999999999995l-0.0999999999999659 263.69999999999993-29 139c-8.900000000000034 33.700000000000045 18.599999999999966 51.60000000000002 47 51.60000000000002 28.5 0 46.19999999999999-18.5 57.19999999999999-46l27.69999999999999-129.29999999999995v-194.30000000000007h23.099999999999966v418.6c0.8000000000000682 28.399999999999977 23.5 51.10000000000002 51.60000000000002 51.10000000000002 28.300000000000068 0 51.200000000000045-23 51.200000000000045-51.299999999999955l-0.10000000000002274-387.30000000000007c-20-11.199999999999932-41.10000000000002-23.199999999999932-64.60000000000002-37z m-384.5-404.2l162.20000000000005 166.60000000000002c82.19999999999999 9.300000000000011 178.10000000000002 44.80000000000001 287 106.59999999999997v-45.69999999999999l221.39999999999998-227.5c15.200000000000045-15.099999999999994 15.200000000000045-39.29999999999998 0.2999999999999545-54.29999999999998-14.899999999999977-14.900000000000006-39-14.800000000000004-53.89999999999998 0-0.2999999999999545 0.29999999999999716-143 144.2-143 144.2h-277.2l-142.79999999999998-143.89999999999998c-15.099999999999994-15.100000000000016-39.30000000000001-15.200000000000017-54.099999999999994-0.30000000000001137-15 14.899999999999991-15 39.19999999999999 0.09999999999999432 54.3z m449.30000000000007 203.2c0.7999999999999545-0.19999999999998863 0 3.2000000000000455 0 3.2000000000000455v-3.2000000000000455z m249 107.90000000000003l-80.70000000000005 73c-35.5-17.100000000000023-85.10000000000002-43.400000000000034-153.89999999999998-83.80000000000001-210.40000000000003-123.69999999999999-374.1-160-486.5-108-79.50000000000003 36.69999999999999-111.70000000000002 109.60000000000002-118.10000000000002 146.89999999999998l111.1 19.400000000000034c0-0.4000000000000341 9.300000000000011-43.10000000000002 54.30000000000001-63.900000000000034 43.19999999999999-20.099999999999966 150.20000000000002-33.299999999999955 382 102.89999999999998 164.20000000000005 96.5 248.80000000000007 132 298.80000000000007 132 27.299999999999955 0 44.39999999999998-10.699999999999932 58.299999999999955-27.799999999999955 21.899999999999977-26.799999999999955 38.799999999999955-75.70000000000005-65.29999999999995-190.7z"/>
</svg>
