<svg xmlns="http://www.w3.org/2000/svg" viewBox="0 0 1000 1000" width="1000" height="1000">
<path d="M95.8 606.6l33.500000000000014 39c0.09999999999999432 0 11.299999999999983 108.69999999999993 11.299999999999983 108.69999999999993h5.800000000000011l11.199999999999989-108.69999999999993c0.09999999999999432 0 33.5-39 33.5-39s-53 8.299999999999955-95.3 0z m47.7-291.6c-79.2 0-143.5 64.19999999999999-143.5 143.5 0 79.20000000000005 64.3 143.39999999999998 143.5 143.39999999999998 79.19999999999999 0 143.5-64.19999999999993 143.5-143.39999999999998 0-79.30000000000001-64.30000000000001-143.5-143.5-143.5z m106.1 148.89999999999998c9.000000000000028 0 16.400000000000006-6.699999999999989 17.599999999999994-15.399999999999977 0.19999999999998863 0.8000000000000114 0.30000000000001137 1.6999999999999886 0.30000000000001137 2.5 0 9.600000000000023-7.800000000000011 17.399999999999977-17.400000000000006 17.399999999999977-9.400000000000006 0-17-7.399999999999977-17.400000000000006-16.69999999999999 2.5 7.100000000000023 9 12.199999999999989 16.900000000000006 12.199999999999989z m-4.699999999999989 17.400000000000034c0.19999999999998863 0.8000000000000114 0.29999999999998295 1.6999999999999886 0.29999999999998295 2.5 0 9.599999999999966-7.799999999999983 17.399999999999977-17.399999999999977 17.399999999999977-9.300000000000011 0-16.900000000000006-7.399999999999977-17.30000000000001-16.69999999999999 2.3000000000000114 7.100000000000023 9 12.199999999999989 16.900000000000006 12.199999999999989 8.900000000000006 0 16.400000000000006-6.699999999999989 17.5-15.399999999999977z m-42-17.400000000000034c9 0 16.299999999999983-6.699999999999989 17.599999999999994-15.399999999999977 0.09999999999999432 0.8000000000000114 0.19999999999998863 1.6999999999999886 0.19999999999998863 2.5 0 9.600000000000023-7.899999999999977 17.399999999999977-17.399999999999977 17.399999999999977-9.400000000000006 0-16.900000000000006-7.399999999999977-17.30000000000001-16.69999999999999 2.4000000000000057 7.100000000000023 8.900000000000006 12.199999999999989 16.900000000000006 12.199999999999989z m-10.200000000000017 57.10000000000002c9 0 16.400000000000006-6.600000000000023 17.600000000000023-15.300000000000011 0.19999999999998863 0.8000000000000114 0.19999999999998863 1.6000000000000227 0.19999999999998863 2.5 0 9.599999999999966-7.800000000000011 17.400000000000034-17.400000000000006 17.400000000000034-9.299999999999983 0-16.900000000000006-7.5-17.299999999999983-16.700000000000045 2.3999999999999773 7 9 12.100000000000023 16.899999999999977 12.100000000000023z m-16.899999999999977 50.89999999999998c-9.300000000000011 0-16.900000000000006-7.399999999999977-17.30000000000001-16.699999999999932 2.4000000000000057 7.099999999999909 9 12.199999999999932 16.80000000000001 12.199999999999932 9 0 16.399999999999977-6.699999999999932 17.599999999999994-15.399999999999977 0.19999999999998863 0.8999999999999773 0.29999999999998295 1.7000000000000455 0.29999999999998295 2.5 0 9.600000000000023-7.799999999999983 17.399999999999977-17.399999999999977 17.399999999999977z m39.599999999999994-19.899999999999977c-9.400000000000006 0-16.900000000000006-7.399999999999977-17.30000000000001-16.600000000000023 2.4000000000000057 7 9 12.100000000000023 16.900000000000006 12.100000000000023 8.900000000000006 0 16.400000000000006-6.7000000000000455 17.5-15.399999999999977 0.19999999999998863 0.8999999999999773 0.19999999999998863 1.6999999999999318 0.19999999999998863 2.6000000000000227 0 9.599999999999909-7.699999999999989 17.299999999999955-17.299999999999983 17.299999999999955z m34.69999999999999-30.899999999999977c-9.400000000000006 0-17-7.399999999999977-17.400000000000006-16.700000000000045 2.5 7.100000000000023 9 12.200000000000045 16.900000000000006 12.200000000000045 9.000000000000028 0 16.400000000000006-6.7000000000000455 17.599999999999994-15.400000000000034 0.19999999999998863 0.8000000000000114 0.30000000000001137 1.6999999999999886 0.30000000000001137 2.5 0 9.599999999999966-7.800000000000011 17.400000000000034-17.400000000000006 17.400000000000034z m465.69999999999993 70.5h-457.9c0 117.69999999999993 108.20000000000005 213.19999999999993 241.8 213.19999999999993 117.80000000000001 0 215.7-74.09999999999991 237.40000000000003-172.29999999999995l50.799999999999955-71.60000000000002h-50.299999999999955l-21.800000000000068 30.700000000000045z m-214.49999999999994 170.5c-135.90000000000003-6.300000000000068-183-104.70000000000005-184.90000000000003-108.89999999999998l16.80000000000001-7.800000000000068c1.8000000000000114 3.800000000000068 44.60000000000002 92.39999999999998 168.90000000000003 98.20000000000005l-0.8000000000000114 18.5z m444.90000000000003-567.1l-197.30000000000007 349.9h50.30000000000007l200.79999999999995-349.5z"/>
</svg>
