<svg xmlns="http://www.w3.org/2000/svg" viewBox="0 0 1000 1000" width="1000" height="1000">
<path d="M986.9 330.2c-72.69999999999993-61-144.60000000000002-123.1-216.89999999999998-184.79999999999998-4.2999999999999545-3.5999999999999943-9-8.099999999999994-14-8.900000000000006-42.200000000000045-6.900000000000006-84.39999999999998-13.099999999999994-131.29999999999995-20.200000000000003 14.299999999999955 22.700000000000003 10.699999999999932 43.60000000000001 10.599999999999909 64.00000000000001-0.09999999999990905 19.899999999999977-9.799999999999955 25.5-27.5 14.899999999999977-4.5-2.6999999999999886-9.199999999999932-5.199999999999989-18-10.199999999999989 0 15.800000000000011 0 27.599999999999994 0 39.5 0 204.2-0.6999999999999318 408.4 0.6000000000000227 612.7 0.20000000000004547 35-22.699999999999932 23.199999999999932-39.69999999999993 26.199999999999932-22.5 3.8999999999999773-21-10.299999999999955-21-25.5 0.2999999999999545-166.60000000000002 0.1999999999999318-333.2 0.1999999999999318-499.79999999999995 0-32.700000000000045 0-65.30000000000001 0-101.50000000000003-20.399999999999977 10.800000000000011-38 13.5-58-0.19999999999998863 0 13.099999999999994 0 22.299999999999983 0 31.400000000000006 0 191.09999999999997-0.0999999999999659 382.2 0.20000000000004547 573.2 0 15.799999999999955-2.1000000000000227 26.5-21.30000000000001 22.200000000000045-14.800000000000011-3.300000000000068-37.30000000000001 9.899999999999977-37-22.5 0.8999999999999773-144 0.30000000000001137-288 0.30000000000001137-432.00000000000006 0-74 0-148 0-220.79999999999998-9.700000000000045-4.200000000000017-13.100000000000023 2.0999999999999943-17.5 4.699999999999989-21.700000000000045 12.800000000000011-29.600000000000023 8.400000000000006-31.900000000000034-16.400000000000006-1.6999999999999886-16.899999999999977 10.100000000000023-40.89999999999998-2-48.599999999999994-11.899999999999977-7.5-34.19999999999999 1.200000000000017-52 3-17.80000000000001 1.700000000000017-35.5 4-53.30000000000001 5.5-9.899999999999977 0.8000000000000114-17.99999999999997 4.800000000000011-25.299999999999983 11-74.19999999999999 62.400000000000006-148.1 124.9-222.5 187.00000000000003-11.899999999999995 9.899999999999977-12.799999999999994 17-2.199999999999994 29.299999999999955 42.5 49.10000000000002 84.3 98.70000000000005 125.29999999999998 149 10.800000000000011 13.399999999999977 18 11.600000000000023 29.100000000000023 1.6000000000000227 21.599999999999994-19.100000000000023 44.19999999999999-37.19999999999999 72.1-60.69999999999999 0 17.399999999999977 0 26.69999999999999 0 36 0 112.90000000000003 0.5 225.90000000000003-0.4000000000000057 338.8-0.19999999999998863 23.699999999999932 8.300000000000011 37.5 30.5 43.799999999999955 9.899999999999977 2.800000000000068 19.600000000000023 6.7000000000000455 29.600000000000023 8.899999999999977 104.09999999999997 22.100000000000023 209.29999999999995 21 314.6 14.300000000000068 39.299999999999955-2.6000000000000227 78.5-7 116.59999999999991-18.899999999999977 38.30000000000007-12 41.700000000000045-15.700000000000045 41.700000000000045-54.5 0-111.10000000000002-0.20000000000004547-222.20000000000005 0.20000000000004547-333.20000000000005 0-9.600000000000023-4.400000000000091-20.5 5.5-30.5 21.199999999999932 17.399999999999977 42.89999999999998 33.80000000000001 62.69999999999993 52.30000000000001 14.600000000000023 13.599999999999966 23.5 15.300000000000011 37.39999999999998-2.1000000000000227 38-47.89999999999998 77.30000000000007-94.80000000000001 118-140.39999999999998 14.600000000000023-16.400000000000034 12.100000000000023-24.600000000000023-3.3999999999999773-37.60000000000002z m-766.3 103.80000000000001c-18.700000000000017 15.600000000000023-37.70000000000002 30.899999999999977-56.30000000000001 46.69999999999999-5.600000000000023 4.699999999999989-10.300000000000011 8.699999999999989-16.200000000000017 0.8000000000000114-5.099999999999994-6.800000000000011 0.9000000000000057-10.399999999999977 4.700000000000017-13.600000000000023 25.599999999999994-21.599999999999966 51.39999999999998-42.89999999999998 78.39999999999998-65.29999999999995 5.900000000000006 18.19999999999999-2.5999999999999943 24.799999999999955-10.599999999999994 31.399999999999977z m-19.200000000000017-82.10000000000002c-29.200000000000017 20-55 45.10000000000002-81.7 68.60000000000002-10.600000000000009 9.300000000000011-18.60000000000001 10.600000000000023-26.900000000000006-2.5-6.3999999999999915-10.199999999999989-18.599999999999994-17.100000000000023-1.3999999999999915-30.80000000000001 46.599999999999994-37.19999999999999 91.4-76.59999999999997 139.4-117.19999999999999 9.299999999999983 38.39999999999998-0.5 62.10000000000002-29.400000000000006 81.89999999999998z m-160.10000000000002 2.1000000000000227c-2.3999999999999844-2.8000000000000114-4.799999999999983-5.600000000000023-7.1999999999999815-8.399999999999977 65-55 130-110.10000000000002 195-165.10000000000002l7.099999999999994 8.900000000000006-194.89999999999998 164.6z m300.6 499.1c-17.099999999999966-3.300000000000068-45.39999999999998 8.199999999999932-45.39999999999998-25.899999999999977-0.10000000000002274-217.4000000000001 0.10000000000002274-434.80000000000007-0.19999999999998863-652.2 0-33 25.5-19.400000000000006 40.89999999999998-23 20.400000000000034-4.699999999999989 16.80000000000001 11.300000000000011 16.80000000000001 22.900000000000006 0.10000000000002274 110.1 0 220.20000000000002 0 330.20000000000005 0 108.29999999999995 0.30000000000001137 216.5-0.5 324.69999999999993-0.10000000000002274 7.900000000000091 9.899999999999977 27.300000000000068-11.600000000000023 23.300000000000068z m364.4-34.5c-0.09999999999990905 23.199999999999932-30.199999999999932 43.5-51.89999999999998 34.69999999999993-12.299999999999955-5-6.7999999999999545-16.199999999999932-6.7999999999999545-24.5-0.39999999999997726-139.0999999999999-1-278.19999999999993 0.2999999999999545-417.29999999999995 0.10000000000002274-5.600000000000023-0.10000000000002274-10.800000000000011-0.6999999999999318-15.800000000000011v-128.09999999999997c0.5-4.400000000000034 0.39999999999997726-9.5 0.1999999999999318-14.800000000000011-0.6999999999999318-30.100000000000023 0.39999999999997726-60.20000000000002-0.2999999999999545-90.20000000000002-0.3000000000000682-14.199999999999989 6.199999999999932-17.799999999999983 18.799999999999955-17.099999999999994 36.39999999999998 2.0999999999999943 40.5 7.900000000000006 40.30000000000007 47.30000000000001-0.6000000000000227 103.30000000000001-0.20000000000004547 206.7-0.20000000000004547 310 0.2999999999999545 105.30000000000001 0.2999999999999545 210.49999999999994 0.2999999999999545 315.8z m146.70000000000005-336.8c-2 3.099999999999966-4.2000000000000455 5.5-9 4.599999999999966-10.399999999999977-1.8999999999999773-75.10000000000002-62.39999999999998-77.10000000000002-73-0.2999999999999545-1.1999999999999886 1.8000000000000682-2.8999999999999773 4.399999999999977-6.699999999999989 26.40000000000009 22 52.60000000000002 43.80000000000001 78.80000000000007 65.60000000000002 3 2.5 5.5 5.399999999999977 2.8999999999999773 9.5z m54.799999999999955-64.5c-4.7999999999999545 6.199999999999989-9.199999999999932 19.5-21.399999999999977 9.399999999999977-38.299999999999955-31.69999999999999-77.19999999999993-62.599999999999966-113.79999999999995-96.09999999999997-14.5-13.200000000000045-3.2000000000000455-33.900000000000034-6.600000000000023-51l6.600000000000023-3.900000000000034c47.19999999999993 39.5 94.5 78.80000000000001 141.29999999999995 118.60000000000002 11.800000000000068 10-1.2999999999999545 16.80000000000001-6.100000000000023 23z m55.200000000000045-66.60000000000002c-5.5 6.800000000000011-10.100000000000023 0.5-14-2.8000000000000114-58.299999999999955-48.599999999999966-116.60000000000002-97.39999999999998-174.79999999999995-146.2-7.2000000000000455-6-9.700000000000045-13.399999999999977-4.900000000000091-25.5 37.90000000000009 32.30000000000001 74.90000000000009 63.60000000000002 111.80000000000007 95 25.699999999999932 21.900000000000034 51.299999999999955 43.900000000000034 77 65.90000000000003 4.100000000000023 3.5 10 7.2999999999999545 4.899999999999977 13.599999999999966z m-583.7-166.29999999999998c6.400000000000034 5.400000000000006 12.900000000000034-1.5999999999999943 16.800000000000068-5.5 15.599999999999966-15.599999999999994 24-9.900000000000006 38.89999999999998 4.400000000000006 62.30000000000001 60.099999999999994 68.69999999999999 60.5 129.60000000000002 2.8999999999999773 16-15.099999999999994 25.5-24.299999999999983 43.69999999999993-5.5 9.100000000000023 9.5 15.600000000000023 7.700000000000017 16.200000000000045-7.699999999999989 0.8999999999999773-24.400000000000006-0.6000000000000227-46.2-24.5-61.400000000000006-12.600000000000023-8-18-15.099999999999994-21.700000000000045 7.200000000000003-6.099999999999909 37.10000000000001-28.5 64.2-61.19999999999993 83.2-12.100000000000023 7.099999999999994-21.400000000000034 7.099999999999994-33.30000000000001-0.6999999999999886-36-23.600000000000023-60.5-54.60000000000002-65.40000000000003-100.30000000000001-29.099999999999966 15.700000000000003-46.099999999999966 35.30000000000001-41.799999999999955 67.9 0.6999999999999886 5.299999999999983-0.4000000000000341 12.900000000000006 2.6999999999999886 15.5z"/>
</svg>
