<svg xmlns="http://www.w3.org/2000/svg" viewBox="0 0 1000 1000" width="1000" height="1000">
<path d="M1000 458.4c0 23-18.5 41.700000000000045-41.700000000000045 41.700000000000045h-166.5999999999999c-19.200000000000045 0-35.60000000000002-13-40.5-31.5l-6.100000000000023-25.200000000000045-24.200000000000045-72.5-158.29999999999995 99.90000000000003 86.19999999999993 195.3 12.400000000000091 21.600000000000023c7.399999999999977 13 7.399999999999977 28.699999999999932-0.20000000000004547 41.5-7.5 13-21.100000000000023 20.699999999999932-36 20.699999999999932h-291.8c-22.899999999999977 0-41.39999999999998-18.5-41.39999999999998-41.39999999999998 0-23.299999999999955 18.5-41.700000000000045 41.39999999999998-41.700000000000045h204.90000000000003l-142.10000000000002-200.09999999999997c-41.80000000000001-58.30000000000001-4.300000000000011-91.69999999999999 41.39999999999998-125.09999999999997l196-120.90000000000003-102.19999999999993-92.69999999999999-189.60000000000002 37.80000000000001c-22.600000000000023 4.5-44.60000000000002-10.200000000000017-49-32.5-4.7000000000000455-22.60000000000001 10-44.60000000000001 32.5-49.10000000000001l208.39999999999998-41.7c11.600000000000023-2.3999999999999986 23.799999999999955 0.3999999999999986 33.10000000000002 7.600000000000001l157.29999999999995 118c6.7000000000000455 2.4000000000000057 13.800000000000068 7.300000000000011 22 15.200000000000017l41.700000000000045 70.79999999999998 38.799999999999955 162.6h131.89999999999998c23.200000000000045 0 41.700000000000045 18.69999999999999 41.700000000000045 41.69999999999999z m-145.89999999999998-250.09999999999997c57.60000000000002 0 104.19999999999993-46.60000000000002 104.19999999999993-104.10000000000001s-46.59999999999991-104.2-104.19999999999993-104.2c-57.30000000000007 0-104.20000000000005 46.6-104.20000000000005 104.2s46.89999999999998 104.10000000000001 104.20000000000005 104.10000000000001z m-508.20000000000005 720.9000000000001c-16.69999999999999 16.699999999999932-16.69999999999999 41.69999999999993 0 58.39999999999998 8.300000000000011 8.299999999999955 16.700000000000045 12.399999999999977 29.100000000000023 12.399999999999977 12.600000000000023 0 21-4.100000000000023 29.30000000000001-12.399999999999977l216.7-195.89999999999998h-137.60000000000002l-137.5 137.5z m-41.69999999999999-554.2h-304.2v41.69999999999999h291.8c0-16.69999999999999 4-29.099999999999966 12.399999999999977-41.69999999999999z m149.90000000000003-124.9h-454.1v41.70000000000002h387.6l66.5-41.70000000000002z m-129.20000000000005 250.00000000000003h-324.9v41.5h354.2l-29.30000000000001-41.5z"/>
</svg>
