<svg xmlns="http://www.w3.org/2000/svg" viewBox="0 0 1000 1000" width="1000" height="1000">
<path d="M497.8 521.4l-324.9 357c87.19999999999999 75.39999999999998 193.59999999999997 115.60000000000002 301.29999999999995 121.10000000000002 6.600000000000023-23.399999999999977 18.5-73.10000000000002 18.19999999999999-126.60000000000002-0.2999999999999545-72.39999999999998-0.39999999999997726-180.39999999999998 83.5-280.29999999999995l-78.09999999999997-71.20000000000005z m-100.60000000000002-91.39999999999998c-91.59999999999997 92.79999999999995-199.1 102.89999999999998-271.1 109.5-51.19999999999996 4.600000000000023-97.79999999999997 20-121.49999999999997 28.899999999999977 14.700000000000006 106.70000000000005 63.80000000000001 209.30000000000007 146 289.6l324.79999999999995-356.9-78.19999999999999-71.10000000000002z m98.5 48.80000000000001l327.90000000000003-360.4c-88.20000000000005-75.00000000000003-195.89999999999998-114.10000000000004-304.1-118.20000000000003-6.7000000000000455 23.099999999999998-18.80000000000001 73.1-18.5 127.2 0.19999999999998863 72.29999999999998 0.30000000000001137 180.29999999999998-83.39999999999998 280.29999999999995l78.09999999999997 71.10000000000008z m100.50000000000006 91.40000000000003c91.69999999999993-92.80000000000007 199.0999999999999-102.90000000000003 271.19999999999993-109.40000000000003 56.39999999999998-5.199999999999989 107.10000000000002-23.30000000000001 127.89999999999998-31.5-15.199999999999932-107.40000000000003-65.39999999999998-210.4-149.19999999999993-290.70000000000005l-328.1 360.50000000000006 78.20000000000005 71.10000000000002z m-73.60000000000002 302.5999999999999c0.2999999999999545 52.30000000000007-10 100-17.200000000000045 127.20000000000005 128.80000000000007-1.5 256.70000000000005-52.10000000000002 352.70000000000005-150.70000000000005l-259.9-236.5c-75.90000000000009 91.30000000000007-75.70000000000005 188.30000000000007-75.60000000000002 260z m-147.70000000000005-463.19999999999993l-256.4-233.20000000000002c-88 103.70000000000002-126.6 233.99999999999997-117.1 361 26.799999999999994-9.799999999999955 71.8-23.5 121.89999999999999-28.099999999999966 71.3-6.400000000000034 167.89999999999998-15.400000000000034 251.59999999999997-99.60000000000002z m623.7 50.799999999999955c-25.700000000000045 9.800000000000011-74.10000000000002 25.5-128.5 30.5-71.39999999999998 6.5-167.80000000000007 15.5-251.60000000000002 99.60000000000002l260 236.60000000000002c90.79999999999995-104.89999999999998 130.29999999999995-237.60000000000002 120.10000000000002-366.70000000000005z m-527.9000000000001-332.9c-0.09999999999990905-52.5 10.10000000000008-100.3 17.500000000000057-127.5-128.2 3.1-254.7 54.9-349.5 154l256.5 233.39999999999998c76-91.19999999999999 75.80000000000001-188.29999999999998 75.5-259.9z"/>
</svg>
