<svg xmlns="http://www.w3.org/2000/svg" viewBox="0 0 1000 1000" width="1000" height="1000">
<path d="M544.1 73.8v-20.599999999999994h28.899999999999977v-53.2h-143.5v53.2h25.80000000000001v20.700000000000003c-109.5 10.399999999999991-207.8 58.79999999999998-281.70000000000005 131.79999999999998l-11.69999999999996-11.699999999999989 17.19999999999999-17.099999999999994-19.799999999999983-19.700000000000017-62.000000000000014 62 19.799999999999997 19.700000000000017 18.099999999999994-18.099999999999994 12.800000000000011 12.699999999999989c-70 81.19999999999999-112.5 186.7-112.5 302.29999999999995 0 256.4000000000001 207.8 464.20000000000005 464.2 464.20000000000005s464.2-207.79999999999995 464.2-464.20000000000005c0-241.39999999999998-184.29999999999995-439.59999999999997-419.79999999999995-461.99999999999994z m-24.700000000000045 849.2v-69.20000000000005c0-10.899999999999977-8.899999999999977-19.699999999999932-19.69999999999999-19.699999999999932-10.899999999999977 0-19.69999999999999 8.799999999999955-19.69999999999999 19.699999999999932v69.20000000000005c-198.60000000000002-10-357.5-168.89999999999998-367.5-367.5h66.1c10.900000000000006 0 19.700000000000017-8.799999999999955 19.700000000000017-19.700000000000045 0-10.799999999999955-8.800000000000011-19.699999999999932-19.700000000000017-19.699999999999932h-66.1c10-198.70000000000005 168.89999999999998-357.6 367.6-367.5-0.10000000000002274 0.8999999999999773-0.10000000000002274 73.09999999999997-0.10000000000002274 73.09999999999997 0 10.900000000000006 8.800000000000011 19.700000000000017 19.69999999999999 19.700000000000017 10.900000000000034 0 19.69999999999999-8.800000000000011 19.69999999999999-19.700000000000017v-72.19999999999999c198.5 9 357.5 167.89999999999998 367.5 366.6h-66.60000000000002c-10.899999999999977 0-19.799999999999955 8.799999999999955-19.799999999999955 19.699999999999932 0 10.900000000000091 8.899999999999977 19.700000000000045 19.799999999999955 19.700000000000045h66.60000000000002c-10 198.60000000000002-168.89999999999998 357.5-367.5 367.5z m16.700000000000045-371.79999999999995c1.2999999999999545-3.900000000000091 2.3999999999999773-7.900000000000091 2.3999999999999773-12.300000000000068 0-21.5-17.399999999999977-38.799999999999955-38.80000000000001-38.799999999999955-21.5 0-38.80000000000001 17.399999999999977-38.80000000000001 38.799999999999955 0 21.5 17.400000000000034 38.80000000000007 38.80000000000001 38.80000000000007 2.1000000000000227 0 3.900000000000034-0.900000000000091 5.800000000000011-1.2000000000000455 0.8999999999999773 1.2000000000000455 161.60000000000002 140.60000000000002 161.60000000000002 140.60000000000002l43.299999999999955 11.399999999999977-21.399999999999977-44.60000000000002-152.89999999999998-132.69999999999993z"/>
</svg>
