<svg xmlns="http://www.w3.org/2000/svg" viewBox="0 0 1000 1000" width="1000" height="1000">
<path d="M623.5 169.9c46.89999999999998 0 84.89999999999998-38.099999999999994 84.89999999999998-85s-38-84.9-84.89999999999998-84.9c-46.799999999999955 0-84.89999999999998 38-84.89999999999998 84.9-0.10000000000002274 46.900000000000006 38.10000000000002 85 84.89999999999998 85z m196.5 167.70000000000002c0.5 0.2999999999999545 0.2999999999999545-48.5 0.2999999999999545-48.5-7.7999999999999545-93.20000000000002-115.79999999999995-91.80000000000001-115.79999999999995-91.80000000000001h-170.20000000000005c-121.99999999999994 2.299999999999983-117.59999999999997 91.80000000000001-117.59999999999997 91.80000000000001v8l-172-197.8c-15-14.900000000000006-39.19999999999999-14.900000000000006-54-1.4210854715202004e-14-14.899999999999977 14.900000000000006-14.899999999999977 39.10000000000001 0 54.000000000000014l215.90000000000003 187.8c3.599999999999966 3.5 6.899999999999977 7 9.899999999999977 10.099999999999966v31c0 21.400000000000034 16.19999999999999 37.400000000000034 35.89999999999998 37.400000000000034 9.600000000000023 0 18.100000000000023-3.900000000000034 24.600000000000023-9.900000000000034-18.69999999999999 12.400000000000034-28.30000000000001 32.69999999999999-21.69999999999999 50.30000000000001 7.199999999999989 19.100000000000023 31.099999999999966 27.5 55.39999999999998 21.80000000000001v45.99999999999994l-38.69999999999999 221.5 38.39999999999998 202.20000000000005c0 26.799999999999955 21.700000000000045 48.5 48.39999999999998 48.5 26.800000000000068 0 48.40000000000009-21.700000000000045 48.40000000000009-48.5l-38.5-208.60000000000002 38.5-222.5h21.59999999999991l77 431.6c0.7000000000000455 26.700000000000045 22.100000000000023 48 48.5 48 26.600000000000023 0 48.200000000000045-21.600000000000023 48.200000000000045-48.200000000000045l-66-553.1999999999999 47-17.600000000000023c21.700000000000045-8.100000000000023 35.60000000000002-25.80000000000001 36.5-43.39999999999998z m-309.3-33.10000000000002v89.5l-22.5-22.5v-67h22.5z m214.59999999999997-0.8000000000000114h23.40000000000009l2.7999999999999545 1.400000000000034-24.899999999999977 9.399999999999977-1.3000000000000682-10.800000000000011z"/>
</svg>
