<svg xmlns="http://www.w3.org/2000/svg" viewBox="0 0 1000 1000" width="1000" height="1000">
<path d="M786.9 746.9c7.5-3.8999999999999773 12.800000000000068-11.600000000000023 12.800000000000068-20.699999999999932l-0.10000000000002274-299.00000000000006h11.399999999999977v95.19999999999999c0 9.899999999999977 7.899999999999977 17.700000000000045 17.600000000000023 17.700000000000045 9.699999999999932 0 17.600000000000023-7.899999999999977 17.600000000000023-17.600000000000023v-102.39999999999998c-3.800000000000068-45.700000000000045-56.80000000000007-45-56.80000000000007-45h-83.5c-59.799999999999955 1.099999999999966-57.69999999999993 45-57.69999999999993 45v102.39999999999998c0 10.5 7.899999999999977 18.299999999999955 17.59999999999991 18.299999999999955 9.700000000000045 0 17.600000000000023-7.7999999999999545 17.600000000000023-17.59999999999991v-95.50000000000006h11l-0.10000000000002274 298.40000000000003c0 9.100000000000023 5.300000000000068 16.799999999999955 12.800000000000068 20.799999999999955h-86v-232.79999999999995h-251.70000000000005v176.79999999999995h-83.39999999999998c8.300000000000011-3.699999999999932 14.100000000000023-11.899999999999977 14.100000000000023-21.5l-0.10000000000002274-299h11.399999999999977v95.30000000000001c0 9.900000000000034 7.900000000000034 17.69999999999999 17.600000000000023 17.69999999999999 9.699999999999989 0 17.600000000000023-7.7999999999999545 17.600000000000023-17.599999999999966v-102.60000000000002c-3.900000000000034-45.69999999999999-56.80000000000001-45-56.80000000000001-45h-83.5c-59.80000000000001 1.1000000000000227-57.70000000000002 45-57.70000000000002 45v102.40000000000003c0 10.5 7.900000000000006 18.399999999999977 17.599999999999994 18.399999999999977 9.700000000000017 0 17.5-7.899999999999977 17.5-17.600000000000023v-95.5h11l-0.09999999999999432 298.4c0 9.700000000000045 5.800000000000011 17.90000000000009 14.099999999999994 21.600000000000023h-78.69999999999999v309.1h740v-253.10000000000002h-83.10000000000002z m-544.8-77.60000000000002v-192.59999999999997h10.599999999999966v192.8c0.30000000000001137 9.700000000000045 6.100000000000023 17.799999999999955 14.199999999999989 21.399999999999977h-38.89999999999998c8.300000000000011-3.699999999999932 14.099999999999994-11.899999999999977 14.099999999999994-21.600000000000023z m119.19999999999999 310.4000000000001h-211v-268.5h211.09999999999997v268.5z m239.40000000000003 0h-211.00000000000006v-445.30000000000007h211.09999999999997v445.30000000000007h-0.09999999999990905z m141-253.5v-192.60000000000002h10.599999999999909v192.79999999999995c0.3000000000000682 9.100000000000023 5.5 16.700000000000045 12.900000000000091 20.600000000000023h-36.40000000000009c7.600000000000023-4 12.900000000000091-11.700000000000045 12.900000000000091-20.799999999999955z m108.09999999999991 253.5h-211.0999999999999v-212.5h211.0999999999999v212.5z m-300.19999999999993-195.80000000000007h-36.10000000000002v-159.29999999999995h-18.5c-0.30000000000001137 5.100000000000023-1.5 9.199999999999932-3.6000000000000227 12.299999999999955-2.099999999999966 3-5 5.600000000000023-8.599999999999966 7.5-2.900000000000034 1.6000000000000227-7.199999999999989 2.800000000000068-12.900000000000034 3.6000000000000227-5.699999999999989 0.7999999999999545-11 1.2999999999999545-16 1.2999999999999545v16.100000000000023h36.80000000000001v118.5h-36.80000000000001v18h95.70000000000005v-18z m-230.5 126.89999999999998h-95.10000000000002c7.900000000000006-6.599999999999909 16.30000000000001-13.899999999999977 25.30000000000001-21.59999999999991 9-7.800000000000068 17.69999999999999-15.900000000000091 26.19999999999999-24.200000000000045 5.899999999999977-5.7999999999999545 11-11.100000000000023 15.100000000000023-15.799999999999955 4.199999999999989-4.7000000000000455 7.7999999999999545-9.600000000000023 10.899999999999977-14.5 3.3000000000000114-5.2000000000000455 5.800000000000011-10.700000000000045 7.5-16.5 1.6999999999999886-5.800000000000068 2.6000000000000227-12.100000000000023 2.6000000000000227-18.800000000000068 0-14.899999999999977-5.100000000000023-26.799999999999955-15.5-35.5-10.300000000000011-8.699999999999932-24.5-13.100000000000023-42.60000000000002-13.100000000000023-8.800000000000011 0-17.900000000000006 1.1000000000000227-27.30000000000001 3.400000000000091-9.399999999999977 2.2999999999999545-16.899999999999977 4.7999999999999545-22.5 7.599999999999909v24.90000000000009c9.200000000000017-5.2000000000000455 17.400000000000006-9.100000000000023 25.80000000000001-11.600000000000023 8.400000000000006-2.5 16.19999999999999-3.800000000000068 23.400000000000006-3.800000000000068 10.799999999999983 0 19.299999999999983 2.6000000000000227 25.299999999999983 7.800000000000068 6.100000000000023 5.199999999999932 9.100000000000023 12.399999999999977 9.100000000000023 21.600000000000023 0 10-2.8000000000000114 19.399999999999977-8.400000000000034 28.09999999999991-5.599999999999966 8.700000000000045-16 20.40000000000009-31.19999999999999 35.10000000000002-7.199999999999989 7.100000000000023-15 14.100000000000023-23.299999999999983 21.300000000000068-8.300000000000011 7.099999999999909-16.700000000000017 14.199999999999932-25 21.399999999999977v24.799999999999955h119.6v-20.600000000000023h0.10000000000002274z m422.19999999999993 51.80000000000007c9.5 0 18.40000000000009-1.3000000000000682 26.40000000000009-4s15-6.800000000000068 21-12.300000000000068c5.2999999999999545-5 9.399999999999977-10.799999999999955 12.299999999999955-17.59999999999991 2.8999999999999773-6.7000000000000455 4.399999999999977-14.100000000000023 4.399999999999977-22.200000000000045s-1.1999999999999318-14.799999999999955-3.699999999999932-19.899999999999977c-2.5-5.2000000000000455-5.600000000000023-9.399999999999977-9.400000000000091-12.800000000000068-3.3999999999999773-3-7.599999999999909-5.5-12.5-7.599999999999909-4.899999999999977-2-9.299999999999955-3.300000000000068-13.099999999999909-3.900000000000091 9.399999999999977-3.599999999999909 17.59999999999991-8.199999999999932 24.5-15.5 6.899999999999977-7.2999999999999545 10.399999999999977-15.899999999999977 10.399999999999977-25.699999999999932 0-7.2000000000000455-1.5-13.5-4.399999999999977-18.899999999999977-2.900000000000091-5.400000000000091-7.300000000000068-10-12.900000000000091-13.800000000000068-5.2999999999999545-3.5-11.299999999999955-6-17.799999999999955-7.600000000000023-6.600000000000023-1.599999999999909-14.200000000000045-2.3999999999999773-22.799999999999955-2.3999999999999773-8.800000000000068 0-17.90000000000009 1.2000000000000455-27.200000000000045 3.5-9.399999999999977 2.300000000000068-16.899999999999977 4.899999999999977-22.5 7.600000000000023v24.799999999999955c8.700000000000045-4.899999999999977 16.700000000000045-8.699999999999932 25.200000000000045-11.399999999999977 8.5-2.699999999999932 16.5-4 24-4 4.899999999999977 0 9.299999999999955 0.39999999999997726 13.199999999999932 1.2000000000000455 3.8999999999999773 0.7999999999999545 7.5 2.199999999999932 10.899999999999977 4.2999999999999545 3.2000000000000455 2.1000000000000227 5.800000000000068 4.7000000000000455 7.600000000000023 7.800000000000068 1.8000000000000682 3.199999999999932 2.7000000000000455 7 2.7000000000000455 11.299999999999955 0 9.700000000000045-3.6000000000000227 17-10.700000000000045 22-7.199999999999932 5-16.799999999999955 7.5-28.799999999999955 7.5h-8.399999999999977v19.700000000000045h10.699999999999932c5.899999999999977 0 11.300000000000068 0.39999999999997726 16.399999999999977 1.3999999999999773 5 0.8999999999999773 9.400000000000091 2.6000000000000227 12.900000000000091 5 3.599999999999909 2.3999999999999773 6.399999999999977 5.600000000000023 8.399999999999977 9.799999999999955 2 4.2000000000000455 3 9.399999999999977 3 15.800000000000068s-1 11.699999999999932-2.7000000000000455 15.899999999999977c-1.6999999999999318 4.199999999999932-4.5 8-8.100000000000023 11.5-3.5 3.199999999999932-8 5.699999999999932-13.699999999999932 7.2999999999999545-5.600000000000023 1.7000000000000455-10.899999999999977 2.5-15.899999999999977 2.5-8.400000000000091 0-17.200000000000045-1.5-26.300000000000068-4.399999999999977-9.100000000000023-2.8999999999999773-17-6.600000000000023-23.699999999999932-11-1.8000000000000682 0-1.8000000000000682 24.799999999999955-1.8000000000000682 24.799999999999955 6.100000000000023 2.800000000000068 13.899999999999977 5.400000000000091 23.399999999999977 7.600000000000023 9.5 2.6000000000000227 19.200000000000045 3.7000000000000455 29 3.7000000000000455z m-245.39999999999998-871.8000000000001c25 4.263256414560601e-14 45.39999999999998-20.299999999999955 45.39999999999998-45.399999999999956 0-25-20.299999999999955-45.4-45.39999999999998-45.4-25.099999999999966 0-45.39999999999998 20.3-45.39999999999998 45.4 0 25.1 20.399999999999977 45.4 45.39999999999998 45.4z m-8.699999999999989 397.50000000000006v-210h11.600000000000023v210.2c0.39999999999997726 14.300000000000011 11.800000000000011 25.600000000000023 25.900000000000034 25.600000000000023 14.199999999999932 0 25.699999999999932-11.5 25.699999999999932-25.700000000000045l-0.10000000000002274-313.79999999999995 111.30000000000007-114.20000000000002c7.600000000000023-7.6000000000000085 7.600000000000023-19.800000000000004 0.10000000000002274-27.300000000000004s-19.600000000000023-7.5-27.100000000000023 0c-0.10000000000002274 0.10000000000000142-71.80000000000007 72.30000000000001-71.80000000000007 72.30000000000001h-139.19999999999993l-71.70000000000005-72.2c-7.599999999999966-7.600000000000001-19.799999999999955-7.600000000000001-27.19999999999999-0.10000000000000142-7.5 7.5-7.5 19.6 0 27.1 0.10000000000002274 0.19999999999999574 110.90000000000003 113.89999999999999 110.90000000000003 113.89999999999999l-0.20000000000004547 314.1c0 14.299999999999955 11.600000000000023 25.899999999999977 25.900000000000034 25.899999999999977 14.300000000000011 0 25.899999999999977-11.5 25.899999999999977-25.80000000000001z m-237.2-183.5c23 0 41.69999999999999-18.69999999999999 41.69999999999999-41.69999999999999 0-22.900000000000034-18.69999999999999-41.60000000000002-41.69999999999999-41.60000000000002-23 0-41.599999999999994 18.69999999999999-41.599999999999994 41.60000000000002 0 23 18.69999999999999 41.69999999999999 41.599999999999994 41.69999999999999z m499.6 56.80000000000001c23 0 41.69999999999993-18.700000000000045 41.69999999999993-41.60000000000002 0-23-18.699999999999932-41.69999999999999-41.69999999999993-41.69999999999999-23 0-41.60000000000002 18.69999999999999-41.60000000000002 41.69999999999999 0 22.899999999999977 18.700000000000045 41.60000000000002 41.60000000000002 41.60000000000002z"/>
</svg>
