<svg xmlns="http://www.w3.org/2000/svg" viewBox="0 0 1000 1000" width="1000" height="1000">
<path d="M791.7 83.4c0-46.00000000000001 37.39999999999998-83.4 83.39999999999998-83.4s83.19999999999993 37.4 83.19999999999993 83.4c0 46-37.19999999999993 83.19999999999999-83.19999999999993 83.19999999999999s-83.39999999999998-37.19999999999999-83.39999999999998-83.19999999999999z m-650.1 54.19999999999999s20.99999999999997 8.300000000000011 37.599999999999966 8.300000000000011c16.700000000000017 0 45.80000000000001-25.10000000000001 45.80000000000001-25.10000000000001l320.29999999999995 209.59999999999997 29.700000000000045 23.80000000000001 91.79999999999995-58.099999999999966v78.89999999999998c0 13.199999999999989 6 25.399999999999977 16.600000000000023 33.39999999999998l166.60000000000002 124.89999999999998c7.600000000000023 5.7000000000000455 16.299999999999955 8.300000000000068 25.100000000000023 8.300000000000068 12.600000000000023 0 25-5.7000000000000455 33.299999999999955-16.700000000000045 13.899999999999977-18.299999999999955 10-44.299999999999955-8.299999999999955-58.19999999999999l-150.20000000000005-112.5v-37.39999999999998c6-49.69999999999999 12.700000000000045-107.80000000000001 12.700000000000045-112.5 0-58.400000000000006-54.10000000000002-79.4-125.20000000000005-79.4-88.69999999999993 0-158.29999999999995 44-195.29999999999995 73.69999999999999l-192.00000000000003-115.19999999999999s4-20.900000000000006 0-41.7c-8.400000000000006-21.000000000000004-25.099999999999994-29.300000000000004-25.099999999999994-29.300000000000004l-33.30000000000001 46-54.099999999999994-21 41.599999999999994 46.00000000000001-37.599999999999994 54.19999999999999z m679.4 779.1999999999999l-299.70000000000005-170.69999999999993 174.9000000000001-175c8.799999999999955-8.700000000000045 13.099999999999909-21.100000000000023 12.099999999999909-33.60000000000002-1.2999999999999545-11.5-7.599999999999909-21.700000000000045-16.799999999999955-28.80000000000001 0.2999999999999545-0.19999999999998863-316.5-229.59999999999997-316.5-229.59999999999997l-20.80000000000001 29.399999999999977c-29.30000000000001 41.5-21 104.10000000000002 25 133.2 46 29.5 159.59999999999997 87.69999999999999 213.50000000000006 114.90000000000003l-146.70000000000005 146.79999999999995-408.6-232.59999999999997-37.39999999999998 62.49999999999994 791.7 450c20.899999999999977 8.400000000000091 50 16.700000000000045 83.39999999999998 16.700000000000045 41.69999999999993 0 95.79999999999995-25 124.89999999999998-70.79999999999995 0 0-66.5 37.5-179-12.400000000000091z"/>
</svg>
