<svg xmlns="http://www.w3.org/2000/svg" viewBox="0 0 1000 1000" width="1000" height="1000">
<path d="M639.5 169.7c-11.299999999999955-11.399999999999977-20.399999999999977-15.399999999999977-37-7.299999999999983-51.700000000000045 25.19999999999999-52.39999999999998 25.19999999999999-18.399999999999977 70.29999999999998 1.6000000000000227 2.1000000000000227 3.3999999999999773 3.9000000000000057 5.100000000000023 5.900000000000006 4.699999999999932 5.700000000000017 5.5 12.5 0.7999999999999545 17.700000000000017-5.7999999999999545 6.399999999999977-14.299999999999955 7.899999999999977-21.100000000000023 2.099999999999966-11.799999999999955-9.999999999999972-23.600000000000023-20.399999999999977-33.69999999999993-32.19999999999999-10.700000000000045-12.599999999999994-19.300000000000068-11.099999999999994-32.400000000000034-2.799999999999983-39.80000000000001 25.299999999999983-40.30000000000001 24.599999999999994-6.5 58.99999999999997 5.5 5.600000000000023 11.300000000000011 10.800000000000011 16.099999999999966 16.900000000000034 5.2000000000000455 6.699999999999989 6.2000000000000455 14.5-0.39999999999997726 21-7.100000000000023 7.099999999999966-14.600000000000023 3.8000000000000114-20.69999999999999-1.6999999999999886-10.600000000000023-9.600000000000023-21.600000000000023-19-30.5-30-27.600000000000023-33.80000000000001-42.5 0.0999999999999659-59.10000000000002 12.099999999999966-23.80000000000001 17.100000000000023 4.400000000000034 24 10.100000000000023 35.19999999999999 8 15.600000000000023 41.89999999999998 25.400000000000034 24.30000000000001 44-19.400000000000034 20.5-31.600000000000023-11.599999999999966-43.10000000000002-22.899999999999977-18.5-18.19999999999999-30.69999999999999-26.69999999999999-53.10000000000002-3.8999999999999773-24.099999999999966 24.5 1 31.69999999999999 10 46.299999999999955 9.100000000000023 14.600000000000023 42.60000000000002 24.600000000000023 23.600000000000023 43.60000000000002-19.19999999999999 19.19999999999999-29.30000000000001-14.300000000000011-43.69999999999999-23.69999999999999-14.5-9.300000000000011-21.5-33.5-45.69999999999999-8.300000000000011-22.600000000000023 23.5-13.900000000000034 36.19999999999999 5.2999999999999545 52.19999999999999 8.900000000000034 7.400000000000034 16.5 16.5 24.400000000000034 25.100000000000023 5 5.399999999999977 5.599999999999966 11.699999999999989 0.5 17.30000000000001-5.900000000000034 6.399999999999977-13 8.699999999999932-20.30000000000001 2.1999999999999886-6.800000000000011-6-13.199999999999989-12.5-19.600000000000023-18.80000000000001-32.29999999999998-31.899999999999977-36.599999999999966-30.80000000000001-60.29999999999998 7.399999999999977-16.69999999999999 27 12.700000000000017 31 20.400000000000006 45.700000000000045 8 15.299999999999955 42.30000000000001 25 23.100000000000023 44-19.80000000000001 19.799999999999955-28.200000000000017-15.700000000000045-43.50000000000003-23.5-10.799999999999983-5.5-14.799999999999983-24.700000000000045-30.099999999999994-19.899999999999977-24.099999999999994 7.599999999999909-37.30000000000001 70.39999999999998-19.599999999999994 88.29999999999995 100.6 101.39999999999998 201.4 202.70000000000005 302.29999999999995 303.79999999999995 7.000000000000057 7.100000000000023 12.700000000000045 17.100000000000023 25.500000000000057 16.200000000000045 5.699999999999989-2.2000000000000455 11.699999999999989-4.399999999999977 17.69999999999999-6.7999999999999545 207.70000000000005-84.10000000000002 346.9-235.5 433.5-439.20000000000005 7.300000000000068-17.19999999999999 3.6000000000000227-27.899999999999977-9-40.5-98.69999999999993-97.89999999999998-196.89999999999998-196.3-294.9-294.8z m-524.3 411.2c0.7999999999999545 0.8999999999999773 2.2999999999999545 1.2000000000000455 6.899999999999949 3.3999999999999773 3.9000000000000057-6.199999999999932 7.700000000000017-11.5 10.800000000000011-17.09999999999991 15.400000000000006-28.40000000000009 49-56.60000000000002 0.5999999999999943-86.10000000000002-7.599999999999994-4.600000000000023-6.200000000000003-13.5 1.3000000000000114-19.600000000000023 9.599999999999994-7.800000000000011 15.799999999999983-1.1000000000000227 23.599999999999994 4.199999999999989 9.199999999999989 6.199999999999989 12.699999999999989 25.80000000000001 30.400000000000006 14.699999999999989 25.799999999999983-16.099999999999966 29.599999999999994-44.89999999999998 9.399999999999977-67.79999999999995-7.599999999999994-8.700000000000045-24.799999999999983-16.600000000000023-9.799999999999983-31.30000000000001 13.099999999999994-12.900000000000034 20.299999999999983 2.599999999999966 28.400000000000006 9.300000000000011 12.699999999999989 10.5 20.69999999999999 30.899999999999977 41.89999999999998 6.699999999999989 16.30000000000001-18.69999999999999 24-30.900000000000034 0.8000000000000114-48.5-8.099999999999994-6.100000000000023-22.19999999999999-14.699999999999989-10.300000000000011-28.19999999999999 14.400000000000034-16.30000000000001 23.900000000000034 0.19999999999998863 30.69999999999999 8.899999999999977 16.80000000000001 21.399999999999977 28 14.899999999999977 46.10000000000002-0.6000000000000227 28.80000000000001-24.69999999999999 1.5-33.19999999999999-9.5-46.799999999999955-6.699999999999989-8.300000000000011-15-15.800000000000011-3.5-26.200000000000017 9.699999999999989-8.800000000000011 16.399999999999977-1.4000000000000057 23.19999999999999 4.700000000000017 4.800000000000011 4.399999999999977 9.699999999999989 8.699999999999989 13.900000000000034 13.599999999999966 26.399999999999977 30.69999999999999 36-5.199999999999989 51.89999999999998-13.5 20.69999999999999-10.799999999999983 9.100000000000023-21.399999999999977-1.3999999999999773-32.69999999999999-8.700000000000045-9.400000000000006-27.900000000000034-18.80000000000001-11.400000000000034-34.19999999999999 14.600000000000023-13.700000000000017 21.400000000000034 6.099999999999994 31 12.599999999999994 3.1999999999999886 2.0999999999999943 5.600000000000023 5.400000000000006 8.400000000000034 8.099999999999994 28.099999999999966 28.5 39.89999999999998-7.300000000000011 56.799999999999955-16.30000000000001 21.5-11.5-1.2999999999999545-20-7-28.899999999999977-7.599999999999966-12-30.599999999999966-22.400000000000006-13.399999999999977-37.70000000000002 16.5-14.799999999999997 26.100000000000023 8.300000000000011 36.39999999999998 17.5 14.399999999999977 12.900000000000006 23.300000000000068 26.900000000000006 47.80000000000007 11.099999999999994 50-32.19999999999999 51.39999999999998-30.099999999999994 8.5-72.99999999999999-8.300000000000068-8.299999999999997-17.200000000000045-15.900000000000006-24.600000000000023-24.900000000000006-11.800000000000068-14.399999999999999-23.5-14.799999999999997-40.80000000000001-8-181 70.8-323.3 185.5-407.4 363.5-54.60000000000004 115.59999999999997-52.80000000000003 76.69999999999999 30.29999999999997 163.09999999999997z m-54.30000000000005 359.70000000000005c70 71.29999999999995 164.5 61 253.4 55.5-103.70000000000002-105.39999999999998-205.60000000000002-208.89999999999998-310.40000000000003-315.30000000000007-5.599999999999977 93.30000000000007-12.999999999999977 188.4000000000001 57.00000000000002 259.80000000000007z m872.9-885.9c-70.89999999999998-65.80000000000004-162.69999999999993-57.40000000000005-249.19999999999993-49.200000000000045 103.89999999999998 104.9 206.19999999999993 208.2 312.6 315.6 2.7999999999999545-96.90000000000003 13.399999999999977-195.10000000000002-63.40000000000009-266.40000000000003z"/>
</svg>
