<svg xmlns="http://www.w3.org/2000/svg" viewBox="0 0 1000 1000" width="1000" height="1000">
<path d="M974.5 678.9c-192.70000000000005-0.10000000000002274-385.4-0.10000000000002274-578.2-0.10000000000002274-1.1999999999999318 0-2.499999999999943 0-3.699999999999932 0-5.100000000000023-0.2999999999999545-9.600000000000023-3.199999999999932-13.600000000000023-8.299999999999955-4.100000000000023-5.5-6.5-12.799999999999955-8.199999999999989-20.700000000000045v-84.89999999999998c0.0999999999999659-0.1999999999999318 0.39999999999997726-0.39999999999997726 0.39999999999997726-0.6999999999999318 4.199999999999989-20 11.400000000000034-28.300000000000068 24.80000000000001-28.300000000000068h578.7c1.099999999999909 0 2.099999999999909 0 3.199999999999932 0 12 0.3000000000000682 22 16.100000000000023 22 35.200000000000045 0.10000000000002274 24.100000000000023 0 48.299999999999955 0.10000000000002274 72.39999999999998 0 8.5-1.8999999999999773 15.899999999999977-5.399999999999977 22.399999999999977-5.300000000000068 9.800000000000068-12.100000000000023 13-20.100000000000023 13z m24.899999999999977-457.5c-2.6000000000000227 14.600000000000023-17.399999999999977 29.00000000000003-36.799999999999955 29.00000000000003-308.1-0.20000000000001705-616.1-0.20000000000001705-924.2-0.20000000000001705h-2.8999999999999773c-8.2 0.10000000000002274-15.3-2.6999999999999886-21.6-7.799999999999983-7.099999999999999-5.5-10.899999999999999-13.099999999999994-13.599999999999998-21.400000000000006v-84c2.7999999999999994-9.799999999999997 7.899999999999999-18 16.5-23.900000000000006 5-3.3999999999999915 10.8-4.599999999999994 16.499999999999996-6.099999999999994h933.6c0.6000000000000227 0.20000000000000284 1.2000000000000455 0.5999999999999943 1.8000000000000682 0.7999999999999972 19.5 3.5 31.199999999999932 17.5 31.199999999999932 37.2 0 22.80000000000001 0 45.69999999999999 0 68.5 0 2.5999999999999943-0.10000000000002274 5.300000000000011-0.5 7.900000000000006z m0.20000000000004547 214.5c-2.5 17.30000000000001-11.600000000000023 28.700000000000045-23 28.700000000000045h-555.5c-9.200000000000045 0-18.400000000000034 0-27.600000000000023 0-5.600000000000023 0-10.5-3-14.699999999999989-8.700000000000045-4.199999999999989-5.599999999999966-6.400000000000034-12.899999999999977-8-21v-84c0.19999999999998863-0.19999999999998863 0.39999999999997726-0.39999999999997726 0.39999999999997726-0.6999999999999886 4.199999999999989-20.099999999999966 11.400000000000034-28.5 24.69999999999999-28.5h579c1.3999999999999773 0 2.7000000000000455 0 4.100000000000023 0.10000000000002274 11.899999999999977 1.3000000000000114 20.899999999999977 16.69999999999999 21 35.69999999999999 0 23.899999999999977 0 47.69999999999999 0 71.5-0.10000000000002274 2.3000000000000114-0.10000000000002274 4.699999999999989-0.39999999999997726 6.899999999999977z m-954.9 314h914c1.8999999999999773 0 3.699999999999932 0 5.5 0 20.299999999999955 0.6000000000000227 35.69999999999993 16.300000000000068 35.69999999999993 36.60000000000002 0.10000000000002274 23.5 0 47 0.10000000000002274 70.5 0 9.700000000000045-3.5 17.700000000000045-10 24.700000000000045-8.399999999999977 9-19 11.399999999999977-30.799999999999955 11.399999999999977-306-0.10000000000002274-612.1-0.10000000000002274-918.1-0.10000000000002274-2.3000000000000256 0-4.700000000000024-0.20000000000004547-7.000000000000021-0.20000000000004547-10.3-0.2999999999999545-18.3-5.099999999999909-25.1-12.5-4.4-4.7999999999999545-6.4-10.699999999999932-8.7-16.5v-84c9.299999999999999-23.799999999999955 18.3-29.899999999999977 44.400000000000006-29.899999999999977z m215.39999999999998-425.59999999999997c11.699999999999989-7.400000000000034 26.19999999999999 1.8000000000000114 26.19999999999999 16.399999999999977v317.3c0 14.600000000000023-14.5 23.799999999999955-26.19999999999999 16.399999999999977l-251.40000000000003-158.60000000000002c-11.599999999999989-7.2999999999999545-11.599999999999989-25.599999999999966 1.0658141036401503e-14-32.99999999999994l251.40000000000003-158.5z"/>
</svg>
