<svg xmlns="http://www.w3.org/2000/svg" viewBox="0 0 1000 1000" width="1000" height="1000">
<path d="M557.4 5.7c-19.299999999999955-3.8000000000000003-38.5-5.6000000000000005-57.39999999999998-5.7-19 0.1-38.19999999999999 1.9-57.39999999999998 5.7-166.10000000000002 32.4-279.70000000000005 188.5-257.3 353.3 22.19999999999999 163.29999999999995 156.2 281.20000000000005 314.7 281.5 158.5-0.39999999999997726 292.5-118.20000000000005 314.70000000000005-281.5 22.299999999999955-164.9-91.30000000000007-320.9-257.30000000000007-353.3z m-57.5 537.3c-121.69999999999999-0.10000000000002274-219.5-97.39999999999998-221.29999999999995-220.60000000000002-1.8000000000000114-121.99999999999997 96.59999999999997-223.29999999999998 218.29999999999995-224.7h3s2-0.09999999999999432 3 1.4210854715202004e-14c121.70000000000005 1.2999999999999972 220.20000000000005 102.60000000000001 218.39999999999998 224.7-1.7999999999999545 123.10000000000002-99.69999999999993 220.5-221.39999999999998 220.60000000000002z m-143.39999999999998 89.20000000000005c48.89999999999998 126.39999999999998 94.10000000000002 242.89999999999998 142.39999999999998 367.79999999999995 49.5-126.20000000000005 95.5-243.20000000000005 144.5-368-96.79999999999995 38.299999999999955-186.89999999999998 40.39999999999998-286.9 0.20000000000004547z m141.2-478.20000000000005c-90.30000000000001 0.5999999999999943-163.2 73.4-164.59999999999997 164.60000000000002-1.5 91.69999999999999 73 167.7 164.89999999999998 168.09999999999997 91.89999999999998 0.4000000000000341 166.70000000000005-74.30000000000001 166.5-166.39999999999998-0.10000000000002274-92.4-74.89999999999998-167-166.8-166.3z m2.6000000000000227 216c-31.69999999999999-1.5-50.10000000000002-19.100000000000023-50.60000000000002-48.69999999999999-0.5-29.400000000000034 16.600000000000023-49.30000000000001 48.10000000000002-49.900000000000034 31.499999999999943-0.5999999999999659 49.30000000000001 18.600000000000023 49.99999999999994 48 0.7000000000000455 29.700000000000045-17.09999999999991 47.80000000000001-47.49999999999994 50.60000000000002z"/>
</svg>
