<svg xmlns="http://www.w3.org/2000/svg" viewBox="0 0 1000 1000" width="1000" height="1000">
<path d="M347.8 104.8c-163.4 0-279.3-1.0999999999999943-347.8-3.299999999999997 5.5 76.19999999999999 8.2 140 8.2 191.2 0 32.30000000000001-1.299999999999999 60.80000000000001-3.799999999999999 85.69999999999999h25.799999999999997c12.800000000000004-63 28.200000000000003-112.69999999999999 46.1-149.2 18-36.39999999999998 39.5-62.5 64.60000000000001-78.29999999999998 25.099999999999994-15.700000000000017 55.79999999999998-23.60000000000001 92-23.60000000000001h24.799999999999983v642.9000000000001c0 31.09999999999991-3.1999999999999886 53.799999999999955-9.399999999999977 68.09999999999991-6.200000000000017 14.300000000000068-17.5 24-33.80000000000001 29.100000000000023-16.30000000000001 5.100000000000023-42 7.899999999999977-77.19999999999999 8.200000000000045v22.600000000000023c90.1-2.2000000000000455 158.8-3.300000000000068 206-3.300000000000068 48 0 119.19999999999999 1.1000000000000227 213.7 3.300000000000068v-22.600000000000023c-34.799999999999955-0.3000000000000682-60.30000000000001-3-76.60000000000002-8.200000000000045-16.299999999999955-5.100000000000023-27.69999999999999-14.799999999999955-34-29.100000000000023-6.5-14.299999999999955-9.699999999999989-37-9.699999999999989-68.09999999999991v-642.9000000000001h25.80000000000001c35.89999999999998 4.263256414560601e-14 66.39999999999998 8.000000000000057 91.5 23.900000000000034 25.100000000000023 15.900000000000006 46.60000000000002 42.10000000000002 64.60000000000002 78.60000000000002 17.899999999999977 36.39999999999998 33.10000000000002 86 45.60000000000002 148.59999999999997h25.799999999999955c-2.6000000000000227-24.899999999999977-3.8999999999999773-53.5-3.8999999999999773-85.69999999999999 0-51.29999999999998 2.7999999999999545-115 8.299999999999955-191.2-67.79999999999995 2.200000000000003-183.29999999999995 3.299999999999997-346.59999999999997 3.299999999999997z m624.8 682.7c-16.399999999999864 16.600000000000023-32.69999999999993 33.299999999999955-48.999999999999886 50.10000000000002-1.8000000000000682 1.7999999999999545-3.2000000000000455 4.100000000000023-4.800000000000068 6.199999999999932l-2.2999999999999545-1.3999999999999773v-7.699999999999932c0-42.700000000000045 0-85.30000000000007 0.10000000000002274-128l-0.10000000000002274-0.3000000000000682v-179.5c-4.5 2.6000000000000227-9.799999999999955 4.300000000000068-15.5 4.300000000000068s-11-1.7000000000000455-15.600000000000023-4.300000000000068v179.70000000000005l0 0.8999999999999773c0.10000000000002274 41.700000000000045 0 83.39999999999998 0 125.10000000000002v11.299999999999955c-2.8999999999999773-2.699999999999932-4.7999999999999545-4.2999999999999545-6.600000000000023-6.100000000000023-16.5-16.799999999999955-33-33.69999999999993-49.59999999999991-50.5-5.800000000000068-6-12.5-7.199999999999932-18.800000000000068-3.8999999999999773-6.2999999999999545 3.5-9 8.899999999999977-8.199999999999932 16.100000000000023 0.5 3.7000000000000455 2.3999999999999773 6.7000000000000455 4.899999999999977 9.299999999999955 27.5 28.100000000000023 55 56.30000000000007 82.5 84.40000000000009 6.600000000000023 6.699999999999932 16.299999999999955 6.5 22.899999999999977-0.20000000000004547 27.399999999999977-27.899999999999977 54.700000000000045-55.799999999999955 82-83.89999999999998 7-7.100000000000023 7.2999999999999545-16.600000000000023 0.8999999999999773-22.800000000000068-6.5-6.399999999999977-15.699999999999932-6.099999999999909-22.799999999999955 1.2000000000000455z m-162.19999999999993-571.3c6.300000000000068 3.399999999999949 13 2.19999999999996 18.800000000000068-3.80000000000004 16.59999999999991-16.80000000000001 33.09999999999991-33.70000000000002 49.59999999999991-50.5 1.8000000000000682-1.8000000000000114 3.6000000000000227-3.4000000000000057 6.600000000000023-6.200000000000017v11.300000000000011c0 41.80000000000001 0 83.5 0 125.19999999999999l0 0.8000000000000114v179.8c4.600000000000023-2.6000000000000227 9.899999999999977-4.300000000000011 15.600000000000023-4.300000000000011s10.899999999999977 1.6999999999999886 15.5 4.300000000000011v-179.5l0.10000000000002274-0.30000000000001137c-0.10000000000002274-42.69999999999999-0.10000000000002274-85.4-0.10000000000002274-128.1v-7.599999999999994l2.2999999999999545-1.4000000000000057c1.6000000000000227 2.0999999999999943 3 4.400000000000006 4.800000000000068 6.199999999999989 16.299999999999955 16.700000000000017 32.60000000000002 33.5 49 50.099999999999994 7.100000000000023 7.300000000000011 16.299999999999955 7.600000000000023 22.799999999999955 1.200000000000017 6.399999999999977-6.300000000000011 6.100000000000023-15.700000000000017-0.8999999999999773-22.900000000000006-27.299999999999955-28-54.60000000000002-55.900000000000006-82-83.9-6.600000000000023-6.699999999999989-16.299999999999955-6.799999999999997-22.799999999999955-0.09999999999999432-27.600000000000023 28.099999999999994-55.10000000000002 56.19999999999999-82.5 84.4-2.6000000000000227 2.5999999999999943-4.5 5.5-4.900000000000091 9.199999999999989-0.8999999999999773 7.200000000000017 1.8000000000000682 12.700000000000017 8.100000000000023 16.099999999999994z m109.39999999999998 283.59999999999997c0 10.399999999999977-8.399999999999977 18.80000000000001-18.799999999999955 18.80000000000001s-18.700000000000045-8.400000000000034-18.700000000000045-18.80000000000001c0-10.300000000000011 8.400000000000091-18.69999999999999 18.700000000000045-18.69999999999999s18.799999999999955 8.399999999999977 18.799999999999955 18.69999999999999z"/>
</svg>
