<svg xmlns="http://www.w3.org/2000/svg" viewBox="0 0 1000 1000" width="1000" height="1000">
<path d="M573.8 805.7c-17.899999999999977 0.5-35.799999999999955-0.10000000000002274-53.69999999999993 0.2999999999999545-5.899999999999977 0.10000000000002274-9.600000000000023-1.7000000000000455-13.100000000000023-6.7000000000000455-41.19999999999999-60.19999999999993-82.69999999999999-120.29999999999995-124.10000000000002-180.39999999999998-2.8999999999999773-4.100000000000023-3.8999999999999773-7-0.5999999999999659-11.899999999999977 37.599999999999966-54 74.89999999999998-108.10000000000002 112-162.39999999999998 3.1999999999999886-4.600000000000023 6.599999999999966-6.400000000000034 12.099999999999966-6.300000000000011 21 0.30000000000001137 41.89999999999998-0.30000000000001137 62.80000000000007 0.30000000000001137 8.299999999999955 0.19999999999998863 11.099999999999909-1.7000000000000455 10.899999999999977-10.5-0.6000000000000227-29.700000000000045-0.6000000000000227-59.400000000000034 0.10000000000002274-89 0.1999999999999318-9-2.6000000000000227-10.600000000000023-10.800000000000068-10.600000000000023-48.69999999999993 0.39999999999997726-97.5 0.39999999999997726-146.09999999999997 0-8.300000000000011-0.10000000000002274-12.800000000000011 2.5-17.100000000000023 9.5-36.099999999999966 59.80000000000001-72.80000000000001 119.30000000000001-110 180-34.69999999999999-62.89999999999998-73.39999999999998-122.5-109.6-183.5-2.6999999999999886-4.399999999999977-5.900000000000006-5.899999999999977-11.099999999999994-5.899999999999977-54.8 0.19999999999998863-109.6 0.2999999999999545-164.4-0.10000000000002274-7.199999999999994 0-8.899999999999995 2.3999999999999773-8.799999999999994 9.199999999999989 0.2999999999999994 30.400000000000034 0.2999999999999994 60.80000000000001-0.10000000000000053 91.30000000000001-0.10000000000000009 7.399999999999977 2.0999999999999996 9.699999999999989 9.600000000000001 9.600000000000023 23.599999999999998-0.5 47.2 0 70.8-0.30000000000001137 6.300000000000011-0.10000000000002274 10.300000000000011 1.6999999999999886 14 7.199999999999989 36.80000000000001 54.5 73.80000000000001 108.79999999999995 111 163.10000000000002 3.3000000000000114 4.7999999999999545 4.5 8.199999999999932 0.5999999999999943 13.899999999999977-40.19999999999999 58.700000000000045-80 117.60000000000002-119.6 176.60000000000002-3.3999999999999915 5-6.799999999999997 7-12.899999999999991 6.7999999999999545-21.700000000000003-0.2999999999999545-43.400000000000006 0.39999999999997726-65.10000000000001-0.2999999999999545-8.799999999999994-0.3000000000000682-10.699999999999994 2.699999999999932-10.599999999999994 10.899999999999977 0.5 29.299999999999955 0.6 58.60000000000002 0 87.89999999999998-0.1 8.5 2.1 10.899999999999977 10.7 10.899999999999977 49.8-0.5 99.7-0.2999999999999545 149.5-0.09999999999990905 5.900000000000006 0 9.700000000000017-1.400000000000091 13-6.800000000000068 34.80000000000001-56.69999999999993 69.9-113.10000000000002 104.69999999999999-169.79999999999995 5.600000000000023-9.100000000000023 10-19 15.200000000000045-28.899999999999977 39.5 68.39999999999998 82.69999999999999 133.19999999999993 123.79999999999995 199.39999999999998 2.7000000000000455 4.5 5.800000000000011 6.100000000000023 10.900000000000034 6.100000000000023 48.69999999999999-0.20000000000004547 97.40000000000003-0.3000000000000682 146.09999999999997 0 7.600000000000023 0.09999999999990905 8.700000000000045-2.7000000000000455 8.700000000000045-9.200000000000045-0.3000000000000682-30.5-0.39999999999997726-60.89999999999998 0-91.29999999999995 0.10000000000002274-6.800000000000068-1.6000000000000227-9.200000000000045-8.800000000000068-9z m426.20000000000005-358.6c0.10000000000002274-7.5-2.1000000000000227-9.700000000000045-9.600000000000023-9.5-21.299999999999955 0.39999999999997726-42.60000000000002 0.5-63.89999999999998 0-7.7999999999999545-0.20000000000004547-9.799999999999955 2.5-9.5 9.799999999999955 0.5 10.600000000000023-0.39999999999997726 21.30000000000001 0.2999999999999545 31.900000000000034 0.5 8.599999999999966-2.3999999999999773 11-10.899999999999977 10.899999999999977-43-0.5-86-0.5999999999999659-129 0-11.299999999999955 0.10000000000002274-11.600000000000023-3.8000000000000114-8.600000000000023-12.800000000000011 5.900000000000091-17.399999999999977 18-29.69999999999999 31.300000000000068-41.299999999999955 23.299999999999955-20.400000000000034 50.5-35.10000000000002 76.69999999999993-51.200000000000045 34.700000000000045-21.399999999999977 68.10000000000002-43.69999999999999 91.70000000000005-78.79999999999995 36.200000000000045-53.900000000000034 36.10000000000002-153.60000000000002-43.89999999999998-198.90000000000003-37.60000000000002-21.19999999999999-78.30000000000007-25.89999999999999-120.30000000000007-20.799999999999983-55.89999999999998 6.8999999999999915-99.39999999999998 35.39999999999999-133.5999999999999 79.19999999999999-2.900000000000091 3.5999999999999943-2.400000000000091 5.700000000000017 0.6999999999999318 8.5 20.100000000000023 17.5 40.10000000000002 35 60.10000000000002 52.70000000000002 3.2000000000000455 2.799999999999983 5.600000000000023 3.0999999999999943 8.299999999999955-0.6000000000000227 2.2000000000000455-3 4.7000000000000455-5.899999999999977 7.300000000000068-8.699999999999989 24.399999999999977-25.30000000000001 52.299999999999955-41.5 89.10000000000002-35.900000000000006 46.5 7.200000000000017 65.89999999999998 52.70000000000002 38.799999999999955 90.9-10.799999999999955 15.100000000000023-24.600000000000023 26.899999999999977-40 36.89999999999998-19.200000000000045 12.5-38.700000000000045 24.200000000000045-57.39999999999998 37.200000000000045-25.899999999999977 18.099999999999966-52.10000000000002 36-73.30000000000007 59.69999999999999-39.89999999999998 44.5-50.5 97.19999999999999-42.299999999999955 155.09999999999997 1.2999999999999545 8.800000000000068 4.2000000000000455 11.100000000000023 12.799999999999955 11.100000000000023 52.5-0.39999999999997726 105-0.20000000000004547 157.5-0.20000000000004547s105-0.1999999999999318 157.5 0.20000000000004547c7.900000000000091 0 10.300000000000068-2 10.200000000000045-10.100000000000023-0.39999999999997726-38.39999999999998-0.39999999999997726-76.79999999999995 0-115.29999999999995z"/>
</svg>
