<svg xmlns="http://www.w3.org/2000/svg" viewBox="0 0 1000 1000" width="1000" height="1000">
<path d="M1000 650c-2.7999999999999545 7.899999999999977-6.5 15.200000000000045-13.200000000000045 20.600000000000023-6.199999999999932 5.100000000000023-13.299999999999955 8-21.399999999999977 8.299999999999955-2 0.10000000000002274-4 0.10000000000002274-6 0.10000000000002274-306.29999999999995 0-612.5999999999999-0.10000000000002274-918.9 0.10000000000002274-12.7 0-23.6-3.2000000000000455-32-13.100000000000023-5.5-6.399999999999977-8.5-13.799999999999955-8.5-22.299999999999955 0.1-24.200000000000045 0-48.40000000000009 0.1-72.5 0-19.100000000000023 15.9-34.90000000000009 35-35.200000000000045 1.6999999999999957 0 3.299999999999997 0 5 0h919.9c21.200000000000045 0 32.60000000000002 8.299999999999955 39.299999999999955 28.399999999999977 0 0.20000000000004547 0.40000000000009095 0.39999999999997726 0.7000000000000455 0.6000000000000227v85z m0-429c-2.7000000000000455 8.300000000000011-6.600000000000023 15.900000000000006-13.600000000000023 21.5-6.399999999999977 5-13.5 7.800000000000011-21.699999999999932 7.800000000000011h-2.900000000000091c-308.19999999999993 0-616.3-0.10000000000002274-924.4 0.19999999999998863-19.399999999999977 0-34.299999999999976-14.5-36.799999999999976-29-0.5000000000000014-2.5999999999999943-0.6000000000000014-5.300000000000011-0.6000000000000014-8 0-22.80000000000001 0-45.599999999999994 0-68.5 0-19.700000000000003 11.8-33.7 31.2-37.2 0.6999999999999993-0.09999999999999432 1.1999999999999993-0.5 1.8000000000000007-0.7999999999999972h934c5.7000000000000455 1.5 11.5 2.700000000000003 16.5 6.200000000000003 8.600000000000023 5.799999999999997 13.700000000000045 14 16.5 23.799999999999997v84z m0 214c-2.5 8.100000000000023-6.100000000000023 15.399999999999977-12.700000000000045 21-6.7999999999999545 5.699999999999989-14.5 8.699999999999989-23.299999999999955 8.699999999999989-14.700000000000045 0-29.299999999999955 0-44 0h-882.8c-18.100000000000044 0-32.700000000000045-11.399999999999977-36.50000000000004-28.69999999999999-0.5000000000000029-2.1999999999999886-0.6000000000000029-4.600000000000023-0.6000000000000029-6.899999999999977-0.09999999999999998-23.900000000000034-0.09999999999999998-47.700000000000045 2.7755575615628914e-17-71.5 0-19 14.4-34.400000000000034 33.3-35.700000000000045 2.200000000000003-0.19999999999998863 4.300000000000004-0.19999999999998863 6.5-0.19999999999998863h920.3000000000001c21.09999999999991 0 32.59999999999991 8.400000000000034 39.09999999999991 28.600000000000023 0.10000000000002274 0.30000000000001137 0.5 0.5 0.7000000000000455 0.6999999999999886 0 28 0 56 0 84z m0 429c-2.3999999999999773 5.7999999999999545-4.399999999999977 11.700000000000045-8.799999999999955 16.5-6.800000000000068 7.399999999999977-14.700000000000045 12.299999999999955-25.100000000000023 12.5-2.300000000000068 0-4.600000000000023 0.20000000000004547-7 0.20000000000004547-306.1 0-612.2 0-918.3000000000001 0.09999999999990905-11.799999999999955 0-22.399999999999956-2.2999999999999545-30.799999999999955-11.299999999999955-6.5-7-10-15.100000000000023-10-24.799999999999955 0.1-23.5 0-47 0-70.5 0-20.300000000000068 15.4-36.10000000000002 35.8-36.60000000000002 1.8000000000000043 0 3.6000000000000014 0 5.5 0h914.3000000000001c26 0 35.10000000000002 6.100000000000023 44.39999999999998 29.899999999999977v84z"/>
</svg>
