<svg xmlns="http://www.w3.org/2000/svg" viewBox="0 0 1000 1000" width="1000" height="1000">
<path d="M749.2 297.4c-39.90000000000009-38.89999999999998-79.60000000000002-78.19999999999999-119-117.49999999999997-9.100000000000023-9-19.600000000000023-12.599999999999994-32.10000000000002-12.599999999999994-163.60000000000002 0.09999999999999432-327.20000000000005 0.09999999999999432-490.8 0.09999999999999432-24.30000000000001 0-36.20000000000002 12.099999999999994-36.20000000000002 36.5v758.5c0 26.800000000000068 10.300000000000011 37.39999999999998 36.900000000000006 37.5 44.19999999999999 0.10000000000002274 88.5 0 132.7 0h484.09999999999997c28 0 37.60000000000002-9.600000000000023 37.60000000000002-37.39999999999998 0-210.79999999999995-0.10000000000002274-421.6 0.20000000000004547-632.5-0.10000000000002274-13.199999999999989-4-23.399999999999977-13.399999999999977-32.60000000000002z m-59.200000000000045 642.8000000000001c-180-0.3000000000000682-360-0.20000000000004547-540-0.3000000000000682-23 0-19 1.7000000000000455-19.099999999999994-18.899999999999977-0.09999999999999432-112.29999999999995-0.09999999999999432-224.60000000000002-0.09999999999999432-336.9 0-114.5 0.09999999999999432-229.10000000000002-0.20000000000001705-343.6 0-10.199999999999989 3.3000000000000114-13.300000000000011 13.300000000000011-13.300000000000011 99.29999999999998 0.30000000000001137 198.6 0.30000000000001137 297.9 0.30000000000001137 43.10000000000002 0 86.30000000000007-0.19999999999998863 129.4000000000001-0.09999999999999432 15.899999999999977 0 15.899999999999977 0.29999999999998295 15.899999999999977 16.69999999999999 0 24.200000000000017-0.3000000000000682 48.29999999999998 0 72.50000000000003 0.1999999999999318 19.399999999999977 5.600000000000023 24.399999999999977 24.600000000000023 24.399999999999977 26.799999999999955 0 53.59999999999991 0.5 80.29999999999995 0 8.399999999999977-0.10000000000002274 10.700000000000045 2.1999999999999886 10.700000000000045 10.600000000000023-0.3000000000000682 110.09999999999997-0.20000000000004547 220.10000000000002-0.20000000000004547 330.29999999999995 0 81.80000000000007-0.10000000000002274 163.60000000000002 0.2999999999999545 245.5 0.10000000000002274 10-2.599999999999909 12.800000000000068-12.799999999999955 12.800000000000068z m239.10000000000002-461.40000000000003c0-104.90000000000003-0.10000000000002274-209.7 0.1999999999999318-314.6 0-14-4-25-14.099999999999909-34.79999999999998-38.40000000000009-37.30000000000001-76.70000000000005-74.7-114.30000000000007-112.80000000000001-11.699999999999932-11.799999999999994-24.299999999999955-16.599999999999994-40.60000000000002-16.599999999999994-145.79999999999995 0.3-291.49999999999994 0.2-437.29999999999995 0.2-17.100000000000023 0-34.19999999999999-0.4-51.30000000000001 0-22.299999999999983 0.49999999999999994-33.599999999999994 11.9-33.89999999999998 34-0.30000000000001137 18.9 0.19999999999998863 37.89999999999999 0 56.89999999999999-0.10000000000002274 6.1000000000000085 1.6999999999999886 8.700000000000003 8.199999999999989 8.400000000000006 10.800000000000011-0.5 21.600000000000023-0.09999999999999432 32.30000000000001-0.09999999999999432 19.30000000000001 0 19 0 19.30000000000001-19.30000000000001 0.39999999999997726-21.39999999999999-4.100000000000023-19.89999999999999 20.5-19.999999999999993 93.29999999999995-0.10000000000000142 186.59999999999997-0.10000000000000142 280-0.10000000000000142 47.60000000000002 0 95.19999999999993 0.20000000000000284 142.79999999999995-0.10000000000000142 9.700000000000045-0.10000000000000142 13.5 2.5 13.200000000000045 13.100000000000001-0.8000000000000682 26.400000000000006-0.5 52.8-0.3000000000000682 79.19999999999999 0.10000000000002274 15.600000000000023 6.400000000000091 21.400000000000006 21.700000000000045 21.5 27.200000000000045 0 54.299999999999955 0.700000000000017 81.39999999999998 0 10.200000000000045-0.29999999999998295 12.399999999999977 3.3000000000000114 12.300000000000068 12.700000000000017-0.40000000000009095 62.79999999999998-0.20000000000004547 125.70000000000002-0.20000000000004547 188.49999999999997-0.10000000000002274 123.5-0.20000000000004547 246.89999999999998-0.20000000000004547 370.30000000000007 0 26.899999999999977 0.20000000000004547 26.899999999999977-27.199999999999932 27.199999999999932-0.8000000000000682 0-1.5 0.10000000000002274-2.2000000000000455 0-6-0.5-8.899999999999977 2-8.799999999999955 8.300000000000068 0.1999999999999318 14.5 0.1999999999999318 29 0 43.5-0.10000000000002274 6.199999999999932 2.5 8.599999999999909 8.600000000000023 8.599999999999909 20.09999999999991-0.1999999999999318 40.19999999999993 0.40000000000009095 60.19999999999993-0.39999999999997726 17.800000000000068-0.7999999999999545 27.600000000000023-11.100000000000023 29.300000000000068-28.899999999999977 0.39999999999997726-3.7000000000000455 0.1999999999999318-7.399999999999977 0.1999999999999318-11.100000000000023 0.20000000000004547-104.60000000000002 0.20000000000004547-209.10000000000002 0.20000000000004547-313.59999999999997z m-327.70000000000005 304.09999999999997c-4.100000000000023-2.6000000000000227-8.600000000000023-1.8999999999999773-13-1.8999999999999773h-171.7v-0.10000000000002274h-118.19999999999999c-20.399999999999977 0-40.89999999999998 0-61.30000000000001 0.20000000000004547-7.299999999999983 0.10000000000002274-12.099999999999994 3.699999999999932-12.299999999999983 11.399999999999977-0.09999999999999432 7.7000000000000455 4.400000000000006 11.5 11.799999999999983 12 3 0.20000000000004547 5.900000000000006 0.10000000000002274 8.900000000000006 0.10000000000002274 97.79999999999998 0.10000000000002274 195.50000000000003 0.10000000000002274 293.29999999999995 0.10000000000002274 18.200000000000045 0 36.39999999999998 0 54.60000000000002-0.20000000000004547 6-0.10000000000002274 11.100000000000023-2.3999999999999773 12.5-8.899999999999977 1.1000000000000227-5.100000000000023 0.2999999999999545-9.700000000000045-4.600000000000023-12.700000000000045z m-12.5-120.29999999999995c-115.59999999999997 0.10000000000002274-231.2 0-346.9 0-11.900000000000006 0-18 4-17.400000000000006 12.199999999999932 0.8000000000000114 10.5 8.400000000000006 11.600000000000023 16.900000000000006 11.600000000000023 57.60000000000002-0.10000000000002274 115.19999999999999 0 172.89999999999998 0v0.20000000000004547h108.20000000000005c23.399999999999977 0 46.799999999999955 0 70.29999999999995-0.20000000000004547 10-0.10000000000002274 15.5-6.399999999999977 13.200000000000045-14.699999999999932-2.6000000000000227-8.700000000000045-9.800000000000068-9.100000000000023-17.200000000000045-9.100000000000023z m1.7000000000000455-118.60000000000002h-173.90000000000003v-0.10000000000002274h-56.89999999999998l-120.4 0.10000000000002274c-8 0-14.400000000000006 2.1000000000000227-14.5 11.399999999999977-0.09999999999999432 9.300000000000068 6.400000000000006 11.600000000000023 14.199999999999989 12 3 0.10000000000002274 5.900000000000006-0.10000000000002274 8.900000000000006-0.10000000000002274h255.3c30.099999999999966 0 60.19999999999999 0.20000000000004547 90.30000000000001-0.09999999999990905 10.600000000000023-0.10000000000002274 16.199999999999932-9 11.600000000000023-17.40000000000009-3.300000000000068-5.599999999999909-8.900000000000091-5.7999999999999545-14.600000000000023-5.7999999999999545z m-350.5-96.30000000000001c22.299999999999955-0.19999999999998863 44.599999999999966-0.0999999999999659 66.89999999999998-0.0999999999999659 23 0 46.10000000000002-0.10000000000002274 69.10000000000002 0.0999999999999659 8.699999999999989 0.10000000000002274 15.299999999999955-2.8999999999999773 15.099999999999966-12.199999999999989-0.19999999999998863-8.5-6.5-11.5-14.800000000000011-11.5l-135.99999999999997 0.10000000000002274c-8.099999999999994 0-15.400000000000006 2-15.5 11.799999999999955-0.09999999999999432 9.900000000000034 6.699999999999989 11.900000000000034 15.199999999999989 11.800000000000011z"/>
</svg>
