<svg xmlns="http://www.w3.org/2000/svg" viewBox="0 0 1000 1000" width="1000" height="1000">
<path d="M533.3 581.3v397c0 18.5-2.7999999999999545 21.40000000000009-21 21.40000000000009-43.39999999999998 0-86.89999999999998 0.09999999999990905-130.39999999999998 0-14.899999999999977 0-19-4.300000000000068-19-19 0-114.20000000000005-0.0999999999999659-228.30000000000007 0.20000000000004547-342.5 0-10.200000000000045-1.2000000000000455-14.200000000000045-13.300000000000011-15.700000000000045-136.70000000000002-16.600000000000023-246.8-124.30000000000001-268.6-261.6-23.79999999999999-150.39999999999998 68.9-300.59999999999997 213.2-345.4 35.700000000000045-11.1 72.40000000000003-15.5 109.70000000000005-15.5l494.19999999999993 0.2c21.800000000000068 0 23.800000000000068 2 23.800000000000068 23.400000000000002 0 42.699999999999996 0.10000000000002274 85.30000000000001 0 128 0 16.099999999999994-2.7000000000000455 18.80000000000001-18.300000000000068 18.900000000000006-32.799999999999955 0.09999999999999432-65.59999999999991 0.4000000000000057-98.39999999999998-0.09999999999999432-9-0.09999999999999432-11.199999999999932 2.6999999999999886-11.100000000000023 11.400000000000006 0.3000000000000682 90.80000000000001 0.10000000000002274 181.7 0.10000000000002274 272.59999999999997 0 114.60000000000002 0 229.10000000000002 0.10000000000002274 343.70000000000005 0 60.10000000000002 0 120.10000000000002 0.10000000000002274 180.10000000000002 0 18.399999999999977-3.3999999999999773 21.799999999999955-22.200000000000045 21.799999999999955-43.10000000000002-0.10000000000002274-86.10000000000002-0.10000000000002274-129.19999999999993-0.10000000000002274-14.600000000000023 0-19.100000000000023-4.199999999999932-19.100000000000023-19-0.10000000000002274-117.69999999999993-0.10000000000002274-235.39999999999998-0.10000000000002274-353.19999999999993v-414.80000000000007c0-11.499999999999972-0.20000000000004547-22.899999999999977 0.20000000000004547-34.39999999999998 0.1999999999999318-6.199999999999989-1.8000000000000682-8.099999999999994-8.100000000000023-8-24.100000000000023 0.30000000000001137-48.200000000000045 0.4000000000000057-72.30000000000007-0.09999999999999432-8.199999999999932-0.20000000000001705-10.599999999999909 1.9000000000000057-10.599999999999909 10.400000000000006 0.2999999999999545 82.59999999999997 0.1999999999999318 165.09999999999997 0.1999999999999318 247.7-0.10000000000002274 50.89999999999998-0.10000000000002274 101.79999999999995-0.10000000000002274 152.79999999999995z"/>
</svg>
