<svg xmlns="http://www.w3.org/2000/svg" viewBox="0 0 1000 1000" width="1000" height="1000">
<path d="M412.8 576.3c-24.30000000000001-24.299999999999955-48.5-48.59999999999991-72.80000000000001-72.69999999999993-16.30000000000001-16.200000000000045-35.60000000000002-17.700000000000045-49.5-4-14.199999999999989 14-12.699999999999989 34.299999999999955 3.6999999999999886 50.799999999999955l145.5 145.5c20.80000000000001 20.800000000000068 48.69999999999999 17.899999999999977 58-6.199999999999932 5.699999999999989-14.600000000000023 1.3000000000000114-27.100000000000023-9.300000000000011-37.700000000000045-25.099999999999966-25.299999999999955-50.39999999999998-50.5-75.59999999999997-75.70000000000005z m561.2-268.09999999999997l-291.29999999999995-291.3c-21.90000000000009-21.899999999999977-57.40000000000009-21.899999999999977-79.30000000000007 2.1316282072803006e-14l-463.2 463.20000000000005c-81.99999999999999 82-81.99999999999999 214.79999999999995 0 296.79999999999995l73.80000000000001 73.80000000000007c82 82 214.8 82 296.8 0l463.2-463.20000000000005c21.799999999999955-21.899999999999977 21.799999999999955-57.39999999999998 0-79.30000000000001z m-387.6 401.09999999999997l-76.29999999999995 76.30000000000007c-82 82-214.8 82-296.8 0l-8-8c-82.00000000000001-82-82.00000000000001-214.80000000000007 0-296.8l76.30000000000001-76.30000000000001c15.899999999999977-15.899999999999977 41.799999999999955-15.899999999999977 57.69999999999999 0l247.09999999999997 247.10000000000002c15.899999999999977 15.899999999999977 15.899999999999977 41.69999999999993 0 57.69999999999993z m-269.4 244h-270.3c-12.79999999999999 0-23.099999999999987 10.300000000000068-23.099999999999987 23.100000000000023s10.299999999999997 23.100000000000023 23.1 23.100000000000023h270.3c12.800000000000011 0 23.100000000000023-10.299999999999955 23.100000000000023-23.100000000000023s-10.300000000000011-23.100000000000023-23.100000000000023-23.100000000000023z"/>
</svg>
