<svg xmlns="http://www.w3.org/2000/svg" viewBox="0 0 1000 1000" width="1000" height="1000">
<path d="M296.1 312.5c37.19999999999999-60.69999999999999 73.89999999999998-120.19999999999999 110-179.9 4.2999999999999545-7.099999999999994 8.799999999999955-9.699999999999989 17.099999999999966-9.599999999999994 48.69999999999999 0.4000000000000057 97.40000000000003 0.4000000000000057 146.09999999999997 0 8.200000000000045 0 11 1.5999999999999943 10.800000000000068 10.599999999999994-0.7000000000000455 29.599999999999994-0.7000000000000455 59.30000000000001-0.10000000000002274 89 0.20000000000004547 8.900000000000006-2.6000000000000227 10.800000000000011-10.899999999999977 10.5-20.899999999999977-0.5-41.89999999999998 0-62.80000000000001-0.29999999999998295-5.5 0-8.900000000000034 1.6999999999999886-12.100000000000023 6.299999999999983-37.099999999999966 54.29999999999998-74.39999999999998 108.50000000000003-112 162.50000000000003-3.3000000000000114 4.7999999999999545-2.3000000000000114 7.699999999999989 0.6000000000000227 11.799999999999955 41.5 60.10000000000002 82.89999999999998 120.20000000000005 124.19999999999999 180.39999999999998 3.3999999999999773 5 7.100000000000023 6.800000000000068 13 6.600000000000023 17.899999999999977-0.2999999999999545 35.799999999999955 0.3000000000000682 53.700000000000045-0.2999999999999545 7.199999999999932-0.20000000000004547 8.899999999999977 2.2999999999999545 8.799999999999955 9.100000000000023-0.2999999999999545 30.399999999999977-0.2999999999999545 60.89999999999998 0 91.29999999999995 0.10000000000002274 6.600000000000023-1 9.299999999999955-8.600000000000023 9.299999999999955-48.69999999999993-0.39999999999997726-97.39999999999998-0.2999999999999545-146.09999999999997-0.09999999999990905-5.100000000000023 0-8.199999999999989-1.6000000000000227-10.900000000000034-6-41.099999999999966-66.20000000000005-84.19999999999999-131.10000000000002-123.79999999999995-199.50000000000006-5.2000000000000455 10.000000000000057-9.600000000000023 19.80000000000001-15.200000000000045 28.900000000000034-34.79999999999998 56.69999999999993-69.99999999999997 113.19999999999993-104.69999999999999 169.89999999999998-3.299999999999983 5.2999999999999545-7.099999999999994 6.7000000000000455-13 6.7000000000000455-49.79999999999998-0.20000000000004547-99.69999999999999-0.3000000000000682-149.5 0.09999999999990905-8.599999999999989 0.10000000000002274-10.899999999999988-2.3999999999999773-10.699999999999989-10.899999999999977 0.5-29.299999999999955 0.5-58.5 0-87.79999999999995-0.1-8.300000000000068 1.7-11.300000000000068 10.6-11 21.699999999999996 0.6999999999999318 43.4 0 65 0.39999999999997726 6.1000000000000085 0.10000000000002274 9.600000000000009-1.8999999999999773 13-6.899999999999977 39.599999999999994-59 79.4-117.90000000000003 119.6-176.60000000000002 3.9000000000000057-5.699999999999989 2.6000000000000227-9.100000000000023-0.5999999999999943-13.899999999999977-37.19999999999999-54.30000000000001-74.29999999999998-108.60000000000002-111-163.10000000000002-3.6999999999999886-5.599999999999994-7.799999999999997-7.300000000000011-14.099999999999994-7.199999999999989-23.6 0.29999999999998295-47.2-0.20000000000001705-70.8 0.29999999999998295-7.500000000000003 0.09999999999999432-9.600000000000003-2.1999999999999886-9.500000000000004-9.599999999999994 0.4000000000000008-30.400000000000006 0.3000000000000007-60.900000000000006 8.881784197001252e-16-91.4-0.10000000000000009-6.799999999999997 1.5999999999999996-9.099999999999994 8.8-9.099999999999994 54.8 0.4000000000000057 109.6 0.29999999999999716 164.4 0.09999999999999432 5.199999999999989 0 8.400000000000006 1.5 11.099999999999994 6 36.19999999999999 61 74.89999999999998 120.6 109.60000000000002 183.4z m536.1999999999999 564c-52.5 0-105.09999999999991-0.2999999999999545-157.5 0.20000000000004547-8.599999999999909 0-11.5-2.400000000000091-12.799999999999955-11.100000000000023-8.200000000000045-57.89999999999998 2.3999999999999773-110.70000000000005 42.299999999999955-155.20000000000005 21.100000000000023-23.600000000000023 47.40000000000009-41.60000000000002 73.30000000000007-59.60000000000002 18.699999999999932-13 38.19999999999993-24.799999999999955 57.299999999999955-37.19999999999993 15.5-10.100000000000023 29.300000000000068-21.800000000000068 40-36.89999999999998 27.200000000000045-38.200000000000045 7.7000000000000455-83.80000000000007-38.69999999999993-90.90000000000003-36.80000000000007-5.600000000000023-64.80000000000007 10.599999999999966-89.10000000000002 35.900000000000034-2.6000000000000227 2.7999999999999545-5.100000000000023 5.699999999999932-7.399999999999977 8.699999999999932-2.7000000000000455 3.7000000000000455-5.100000000000023 3.3999999999999773-8.300000000000068 0.6000000000000227-20-17.700000000000045-40-35.19999999999999-60.10000000000002-52.69999999999999-3.099999999999909-2.6999999999999886-3.5-4.900000000000034-0.6999999999999318-8.5 34.299999999999955-43.80000000000001 77.69999999999993-72.30000000000001 133.60000000000002-79.19999999999999 42-5.100000000000023 82.69999999999993-0.4000000000000341 120.29999999999995 20.799999999999955 80 45.30000000000001 80.10000000000002 145 43.89999999999998 198.89999999999998-23.600000000000023 35-57 57.30000000000007-91.69999999999993 78.70000000000005-26.200000000000045 16.200000000000045-53.40000000000009 30.899999999999977-76.70000000000005 51.299999999999955-13.299999999999955 11.5-25.399999999999977 23.90000000000009-31.200000000000045 41.30000000000007-3 8.899999999999977-2.699999999999932 12.899999999999977 8.600000000000023 12.699999999999932 43-0.5 86-0.39999999999997726 129 0 8.5 0.10000000000002274 11.399999999999977-2.2999999999999545 10.899999999999977-10.899999999999977-0.6999999999999318-10.600000000000023 0.20000000000004547-21.299999999999955-0.2999999999999545-31.899999999999977-0.2999999999999545-7.2000000000000455 1.7000000000000455-10 9.5-9.799999999999955 21.200000000000045 0.5 42.60000000000002 0.5 63.89999999999998 0 7.399999999999977-0.20000000000004547 9.600000000000023 2.099999999999909 9.600000000000023 9.599999999999909-0.39999999999997726 38.40000000000009-0.39999999999997726 76.80000000000007 0 115.30000000000007 0.10000000000002274 8.100000000000023-2.2000000000000455 10.100000000000023-10.200000000000045 10-52.5-0.3000000000000682-105.09999999999991-0.10000000000002274-157.5-0.10000000000002274z"/>
</svg>
