<svg xmlns="http://www.w3.org/2000/svg" viewBox="0 0 1000 1000" width="1000" height="1000">
<path d="M175.1 262.6h24.5c12.200000000000017-59.80000000000001 26.700000000000017-106.90000000000003 43.80000000000001-141.50000000000003 16.99999999999997-34.5 37.400000000000006-59.3 61.20000000000002-74.19999999999999 23.799999999999955-14.900000000000006 52.89999999999998-22.400000000000006 87.29999999999995-22.400000000000006h23.400000000000034v609.6c0 29.5-3 51.10000000000002-8.900000000000034 64.60000000000002-5.899999999999977 13.599999999999909-16.599999999999966 22.799999999999955-32 27.59999999999991-15.5 4.900000000000091-39.89999999999998 7.5-73.19999999999999 7.800000000000068v21.399999999999977c85.40000000000003-2.1000000000000227 150.60000000000002-3.1000000000000227 195.40000000000003-3.1000000000000227 45.5 0 113.10000000000002 1 202.69999999999993 3.1000000000000227v-21.399999999999977c-33-0.39999999999997726-57.299999999999955-3-72.69999999999993-7.800000000000068-15.5-4.7999999999999545-26.200000000000045-14.099999999999909-32.30000000000007-27.59999999999991-6.099999999999909-13.600000000000023-9.099999999999909-35.10000000000002-9.099999999999909-64.60000000000002v-609.6h24.5c34 0 63 7.5 86.69999999999993 22.700000000000003 23.800000000000068 15.099999999999994 44.200000000000045 39.89999999999999 61.200000000000045 74.5s31.399999999999977 81.60000000000001 43.19999999999993 141h24.5c-2.5-23.599999999999994-3.699999999999932-50.69999999999999-3.699999999999932-81.29999999999998 0-48.599999999999994 2.6000000000000227-109.10000000000001 7.7999999999999545-181.3-64.29999999999995 2.100000000000006-173.89999999999998 3.100000000000006-328.79999999999995 3.100000000000006s-264.6-1.1-329.6-3.2c5.199999999999989 72.3 7.800000000000011 132.7 7.800000000000011 181.3 0 30.599999999999994-1.200000000000017 57.599999999999994-3.700000000000017 81.30000000000001z m570.1 554.8c-6.800000000000068-6.699999999999932-15.700000000000045-6.899999999999977-21.700000000000045-0.8999999999999773-6.100000000000023 6.2000000000000455-5.7999999999999545 14.899999999999977 1.1000000000000227 21.600000000000023 15.799999999999955 15.600000000000023 31.600000000000023 31.100000000000023 47.5 46.5 1.7999999999999545 1.6999999999999318 3.8999999999999773 3 5.899999999999977 4.5l-1.2999999999999545 2.199999999999932h-250.60000000000002c2.5 4.300000000000068 4 9.300000000000068 4 14.700000000000045 0 5.399999999999977-1.6000000000000227 10.5-4.100000000000023 14.799999999999955h122.79999999999995c39.60000000000002-0.09999999999990905 79.10000000000002 0 118.70000000000005 0h10.700000000000045c-2.6000000000000227 2.800000000000068-4.100000000000023 4.600000000000023-5.800000000000068 6.2000000000000455-16 15.700000000000045-32 31.299999999999955-47.89999999999998 47.10000000000002-5.600000000000023 5.5-6.7999999999999545 11.799999999999955-3.6000000000000227 17.799999999999955 3.2000000000000455 6 8.399999999999977 8.5 15.200000000000045 7.800000000000068 3.6000000000000227-0.40000000000009095 6.2999999999999545-2.2000000000000455 8.799999999999955-4.7000000000000455 26.700000000000045-26.100000000000023 53.39999999999998-52.10000000000002 80-78.20000000000005 6.399999999999977-6.2999999999999545 6.2000000000000455-15.399999999999977-0.10000000000002274-21.699999999999932-26.59999999999991-25.800000000000068-53.09999999999991-51.80000000000007-79.59999999999991-77.70000000000005z m-270.70000000000005 74h-121.89999999999998c-40.5 0.10000000000002274-81 0-121.40000000000003 0h-7.299999999999983l-1.3000000000000114-2.199999999999932c2-1.5 4.200000000000017-2.800000000000068 5.900000000000006-4.5 15.900000000000006-15.400000000000091 31.80000000000001-30.90000000000009 47.5-46.5 6.899999999999977-6.800000000000068 7.199999999999989-15.5 1.1000000000000227-21.600000000000023-6-6-14.900000000000034-5.800000000000068-21.700000000000017 0.8999999999999773-26.5 25.899999999999977-53.099999999999994 51.799999999999955-79.6 77.79999999999995-6.400000000000006 6.300000000000068-6.5 15.400000000000091-0.10000000000002274 21.700000000000045 26.600000000000023 26.100000000000023 53.400000000000006 52.200000000000045 80 78.20000000000005 2.5 2.3999999999999773 5.199999999999989 4.2999999999999545 8.800000000000011 4.699999999999932 6.800000000000011 0.7000000000000455 12-1.6999999999999318 15.199999999999989-7.7999999999999545 3.1999999999999886-6 2-12.300000000000068-3.599999999999966-17.800000000000068l-47.900000000000034-47.09999999999991c-1.6999999999999886-1.6000000000000227-3.1999999999999886-3.5-5.799999999999983-6.2000000000000455h252.20000000000002c-2.5-4.399999999999977-4.100000000000023-9.399999999999977-4.100000000000023-14.799999999999955 0-5.5 1.5-10.400000000000091 4-14.800000000000068z m43.5 14.700000000000045c0 9.799999999999955-8 17.799999999999955-17.80000000000001 17.799999999999955s-17.80000000000001-8-17.80000000000001-17.799999999999955 8-17.800000000000068 17.80000000000001-17.800000000000068 17.80000000000001 8 17.80000000000001 17.800000000000068z"/>
</svg>
