<svg xmlns="http://www.w3.org/2000/svg" viewBox="0 0 1000 1000" width="1000" height="1000">
<path d="M989.3 41.2c-9.099999999999909-11.200000000000003-20.899999999999977-16.6-34.89999999999998-17.400000000000002-5-0.3000000000000007-10-0.3000000000000007-15-0.3000000000000007h-878.8c-38.200000000000024 0-48.00000000000002 6.899999999999999-60.60000000000002 42.8v96.8c3.7 12.599999999999994 8 24.700000000000017 19.4 32.900000000000006 8.400000000000002 6 17.700000000000003 9.199999999999989 28 8.599999999999994 6.700000000000003-0.4000000000000057 9.399999999999999 2.0999999999999943 10.5 8.800000000000011 22.199999999999996 134.20000000000002 44.6 268.4 67 402.6 11.599999999999994 69.5 22.599999999999994 139.20000000000005 35.099999999999994 208.60000000000002 8 43.89999999999998 25.80000000000001 83.39999999999998 59.80000000000001 114 21 18.899999999999977 59.39999999999998 37.799999999999955 79.30000000000001 37.799999999999955h403.69999999999993c17.300000000000068 0 33.200000000000045-8.399999999999977 48.40000000000009-16.699999999999932 43.59999999999991-24.100000000000023 69.59999999999991-61.80000000000007 82.5-108.70000000000005 12.5-45.799999999999955 17.299999999999955-93.29999999999995 25.299999999999955-140.10000000000002 18.399999999999977-107.60000000000002 36.10000000000002-215.29999999999995 54.10000000000002-322.9 9.699999999999932-57.80000000000001 19.5-115.60000000000002 28.899999999999977-173.4 1.1000000000000227-6.699999999999989 3-9.799999999999983 10.600000000000023-10.199999999999989 25.600000000000023-1 39-12.400000000000006 45.5-37.20000000000002 0.39999999999997726-1.5 1.2999999999999545-2.799999999999983 1.8999999999999773-4.199999999999989v-96.7c-3.1000000000000227-8.599999999999994-4.7000000000000455-17.699999999999996-10.700000000000045-25.099999999999994z m-453.5 198.3c2.5-1.9000000000000057 4.7000000000000455-4.099999999999994 6.5-6.5 2.800000000000068-3.5999999999999943 5.7000000000000455-7 8.700000000000045-10.099999999999994h115.10000000000002c2.699999999999932 2.6999999999999886 5.199999999999932 5.699999999999989 7.699999999999932 8.799999999999983 5.900000000000091 7.400000000000006 13.200000000000045 13.900000000000006 20.200000000000045 20.400000000000006 4.2999999999999545 3.9000000000000057 4.7999999999999545 6.599999999999994 0.2999999999999545 11.000000000000028-22.899999999999977 22.599999999999966-45.69999999999993 45.299999999999955-68.19999999999993 68.29999999999995-4.600000000000023 4.7000000000000455-7 3.3000000000000114-10.800000000000068-0.5-26.399999999999977-26.69999999999999-52.89999999999998-53.299999999999955-79.69999999999993-79.59999999999997-4.800000000000068-4.800000000000011-4.800000000000068-7.900000000000006 0.1999999999999318-11.800000000000011z m-121.99999999999994 367.70000000000005c26-25.600000000000023 51.69999999999999-51.30000000000007 77.30000000000001-77.30000000000007 5-5.100000000000023 8-5.899999999999977 13.599999999999966-0.2999999999999545 25.69999999999999 26.299999999999955 51.80000000000001 52.299999999999955 78.00000000000006 78.10000000000002 4.899999999999977 4.7999999999999545 5.5 7.599999999999909 0.2999999999999545 12.699999999999932-26.600000000000023 26-52.700000000000045 52.5-79 78.80000000000007-1.8000000000000114 1.7999999999999545-3.8000000000000114 3.3999999999999773-6 5.199999999999932-2.5-2.2999999999999545-4.600000000000023-4-6.399999999999977-5.899999999999977-26.100000000000023-26-51.900000000000034-52.200000000000045-78.20000000000005-77.79999999999995-5.899999999999977-5.7000000000000455-4.5-8.600000000000023 0.4000000000000341-13.5z m-32.80000000000001-30.700000000000045c-4.699999999999989 4.7000000000000455-7.5 4.2000000000000455-12-0.2999999999999545-26.100000000000023-26.40000000000009-52.39999999999998-52.700000000000045-78.80000000000001-78.80000000000007-4.399999999999977-4.2999999999999545-5.5-7-0.5-11.899999999999977 26.80000000000001-26.399999999999977 53.30000000000001-53 79.69999999999999-79.69999999999999 4.100000000000023-4.100000000000023 6.600000000000023-4.800000000000011 11-0.30000000000001137 26.600000000000023 27 53.60000000000002 53.69999999999999 80.40000000000003 80.60000000000002 1.599999999999966 1.599999999999966 3 3.3999999999999773 4.599999999999966 5.2999999999999545-1.6999999999999886 1.900000000000034-3.1999999999999886 3.7000000000000455-4.7999999999999545 5.300000000000011-26.600000000000023 26.599999999999966-53.200000000000045 53.00000000000006-79.60000000000002 79.80000000000001z m154.60000000000002-79.39999999999998c-4.800000000000068-4.7000000000000455-4.399999999999977-7.300000000000011 0.10000000000002274-11.700000000000045 26.799999999999955-26.5 53.299999999999955-53.099999999999966 79.89999999999998-79.79999999999995 3.2999999999999545-3.3000000000000114 5.600000000000023-5.300000000000011 10-0.8000000000000114 26.899999999999977 27.30000000000001 54.19999999999993 54.39999999999998 81.29999999999995 81.5 1.3999999999999773 1.3999999999999773 2.5 2.8000000000000114 3.5 4 0.10000000000002274 3.1999999999999886-2 4.399999999999977-3.6000000000000227 6-26.799999999999955 26.900000000000034-53.799999999999955 53.69999999999999-80.5 80.69999999999999-4.2999999999999545 4.399999999999977-6.7999999999999545 4.100000000000023-10.899999999999977-0.10000000000002274-26.5-26.799999999999955-53-53.39999999999998-79.79999999999995-79.79999999999995z m-31.80000000000001-214.10000000000002c26.400000000000034 26.80000000000001 52.99999999999994 53.30000000000001 79.69999999999999 79.80000000000001 3.2999999999999545 3.3000000000000114 5.5 5.699999999999989 1 10.199999999999989-27.600000000000023 27.19999999999999-54.89999999999998 54.60000000000002-82.30000000000001 82-1.1999999999999886 1.3000000000000114-2.8000000000000114 2.3000000000000114-4.399999999999977 3.6000000000000227-2.5-2.3000000000000114-4.5-4-6.400000000000034-5.900000000000034-26-26-51.89999999999998-52.099999999999966-78.19999999999999-77.89999999999998-5-4.900000000000034-5.300000000000011-7.699999999999989-0.0999999999999659-12.699999999999989 26.5-26 52.799999999999955-52.400000000000034 78.89999999999998-78.80000000000001 4.399999999999977-4.5 7.100000000000023-5.100000000000023 11.800000000000011-0.30000000000001137z m-200.7-32.099999999999994c9.599999999999966-9.099999999999994 19.19999999999999-18.400000000000006 28.299999999999955-27.900000000000006h113.40000000000003c2.8999999999999773 2.9000000000000057 5.800000000000011 6 8.599999999999966 9.400000000000006 11.600000000000023 14 12.600000000000023 13.099999999999994 0.10000000000002274 25.599999999999994-23.80000000000001 23.80000000000001-47.80000000000001 47.60000000000002-71.39999999999998 71.60000000000002-4.800000000000011 4.7999999999999545-7.7000000000000455 6.699999999999989-13.5 0.5999999999999659-21.5-22.30000000000001-43.5-44.19999999999999-65.80000000000001-65.80000000000001-5.699999999999989-5.599999999999966-4.900000000000034-8.599999999999966 0.30000000000001137-13.499999999999972z m-35.80000000000001-27.900000000000006c-2 1.4000000000000057-3.6000000000000227 1.5-5.699999999999989 0h5.699999999999989z m-98.70000000000002 96.19999999999999c-3-1.1999999999999886-2.4000000000000057-5.300000000000011-2.9000000000000057-8.300000000000011-4.899999999999977-29.299999999999955-9.599999999999994-58.69999999999999-14.599999999999994-87.89999999999998h46.5c9.099999999999994 9.5 18.599999999999994 18.69999999999999 28.200000000000017 27.80000000000001 5.199999999999989 4.899999999999977 6.099999999999994 8.099999999999966 0.29999999999998295 13.699999999999989-17.099999999999994 16.30000000000001-33.599999999999994 33.39999999999998-50.5 50.10000000000002-2 2-3.6999999999999886 6-7 4.599999999999966z m14.099999999999994 52.10000000000002c25.5-24.900000000000034 50.60000000000002-50.19999999999999 75.69999999999999-75.60000000000002 4.300000000000011-4.399999999999977 7-5.399999999999977 11.900000000000034-0.39999999999997726 22.19999999999999 22.69999999999999 44.89999999999998 45.099999999999966 67.39999999999998 67.59999999999997 1.6000000000000227 1.6000000000000227 2.900000000000034 3.400000000000034 4.600000000000023 5.5-1.8000000000000114 2.1000000000000227-3.1999999999999886 3.900000000000034-4.699999999999989 5.5-26.600000000000023 26.600000000000023-53.30000000000001 53.10000000000002-79.70000000000005 79.90000000000003-3.9999999999999716 4-6.599999999999966 4.699999999999989-10.999999999999972 0.19999999999998863-21.200000000000017-21.600000000000023-42.70000000000002-43-64.20000000000002-64.30000000000001-6.5-6.399999999999977-7-11.5 0-18.399999999999977z m17.700000000000017 137.09999999999997c-4.800000000000011-1.5-3.3000000000000114-10.699999999999989-4.5-16.5-1.8000000000000114-8.799999999999955-2.8000000000000114-17.799999999999955-4.200000000000017-26.69999999999999l2.200000000000017-1.5c7.599999999999994 8 15.099999999999994 16 22.799999999999983 23.900000000000034 5.100000000000023 5.199999999999989-0.39999999999997726 7.5-3 9.899999999999977-4.299999999999983 4.100000000000023-8.099999999999994 12.600000000000023-13.299999999999983 10.899999999999977z m22.400000000000006 146.60000000000002c-2.5-25.5-8.100000000000023-50.700000000000045-12.400000000000006-76-0.4000000000000057-2.6000000000000227-0.8000000000000114-5.2999999999999545-1.3000000000000114-7.899999999999977-0.5-4 1.700000000000017-6.5 4.200000000000017-9.100000000000023 11.199999999999989-11 22.399999999999977-22 33.29999999999998-33.39999999999998 4-4.100000000000023 6.700000000000017-4.600000000000023 11.099999999999994-0.20000000000004547 26.600000000000023 27 53.5 53.89999999999998 80.5 80.60000000000002 4 3.8999999999999773 3.8000000000000114 6.399999999999977-0.0999999999999659 10.200000000000045-27.200000000000045 27-54.30000000000001 54.09999999999991-81.30000000000001 81.39999999999998-3.6000000000000227 3.6000000000000227-5.5 3.1000000000000227-9.200000000000017 0-14.199999999999989-12.100000000000023-23-26-24.799999999999983-45.60000000000002z m118.19999999999999 206.79999999999995c-7.600000000000023 8-14.699999999999989 16.600000000000023-23.899999999999977 22.90000000000009-1.400000000000034 1-3.8000000000000114 0.5-4.600000000000023 0.599999999999909-17.100000000000023-0.8999999999999773-29.19999999999999-9.199999999999932-39.10000000000002-21.09999999999991-16.899999999999977-20.100000000000023-22.99999999999997-44.60000000000002-26.99999999999997-69.80000000000007-0.700000000000017-4.5-1.5999999999999943-9-2.200000000000017-13.600000000000023-0.5999999999999943-5 3.4000000000000057-7.5 6.700000000000017-9.899999999999977 3.0999999999999943-2.199999999999932 4.699999999999989 1.3999999999999773 6.400000000000006 3.1000000000000227 27.19999999999999 27 54.30000000000001 54.10000000000002 81.30000000000001 81.29999999999995 1.599999999999966 1.6000000000000227 5.2999999999999545 3.5 2.3999999999999773 6.5z m28.100000000000023-39.799999999999955c-26.100000000000023-26.399999999999977-52.400000000000034-52.700000000000045-78.80000000000001-78.89999999999998-4.400000000000034-4.2000000000000455-5.600000000000023-6.899999999999977-0.6000000000000227-11.899999999999977 26.80000000000001-26.300000000000068 53.30000000000001-53 79.80000000000001-79.5 1.6000000000000227-1.6000000000000227 3.3999999999999773-3.1000000000000227 5.399999999999977-4.900000000000091 2 1.7000000000000455 3.8000000000000114 2.900000000000091 5.400000000000034 4.5 26.899999999999977 26.800000000000068 53.599999999999966 53.700000000000045 80.59999999999997 80.40000000000009 4.5 4.399999999999977 3.8000000000000114 6.899999999999977-0.2999999999999545 11-26.700000000000045 26.399999999999977-53.30000000000001 52.89999999999998-79.60000000000002 79.69999999999993-4.899999999999977 4.899999999999977-7.600000000000023 4-11.899999999999977-0.39999999999997726z m214 44.200000000000045c-12.300000000000068 15.299999999999955-26.700000000000045 22.399999999999977-46.700000000000045 20-12.899999999999977-1.6000000000000227-26.099999999999966-0.3000000000000682-39.19999999999999-0.3000000000000682s-26.19999999999999-1.1999999999999318-39.099999999999966 0.3000000000000682c-18 2-31.30000000000001-3.800000000000068-43-17.700000000000045-5.900000000000034-7-7.100000000000023-10-0.10000000000002274-16.799999999999955 25.80000000000001-24.800000000000068 50.89999999999998-50.10000000000002 75.80000000000001-75.70000000000005 5.599999999999966-5.7000000000000455 8.800000000000011-5.7999999999999545 14.5 0 25.400000000000034 26.100000000000023 51.30000000000001 51.799999999999955 77.30000000000001 77.39999999999998 4.7999999999999545 4.7000000000000455 5 7.2000000000000455 0.5 12.800000000000068z m31.699999999999932-44.200000000000045c-26.199999999999932-26.5-52.59999999999991-52.89999999999998-79-79-3.8999999999999773-3.8999999999999773-5.5-6.399999999999977-0.7999999999999545-11.100000000000023 27.399999999999977-27 54.39999999999998-54.19999999999993 81.60000000000002-81.39999999999998 1.2999999999999545-1.2999999999999545 2.7999999999999545-2.3999999999999773 4.399999999999977-3.7999999999999545 2 1.7999999999999545 3.7000000000000455 3.2999999999999545 5.399999999999977 4.899999999999977 26.300000000000068 26.399999999999977 52.5 52.799999999999955 79.10000000000002 78.89999999999998 4.899999999999977 4.899999999999977 5.2000000000000455 7.899999999999977 0.10000000000002274 12.899999999999977-26.600000000000023 26.100000000000023-52.89999999999998 52.5-79 79-4.899999999999977 5-7.5 4-11.800000000000068-0.39999999999997726z m140.30000000000007-38.200000000000045c-4.300000000000068 28.800000000000068-8.100000000000023 57.90000000000009-28.100000000000023 81.20000000000005-10.799999999999955 12.5-24.200000000000045 19.700000000000045-41.10000000000002 20.5-9.299999999999955 1.8999999999999773-13.199999999999932-6-18.5-11.200000000000045-14.699999999999932-14.299999999999955-14.600000000000023-14.399999999999977-0.2999999999999545-28.699999999999932 23.199999999999932-23.300000000000068 46.5-46.60000000000002 69.89999999999998-69.80000000000007 2.2000000000000455-2.199999999999932 4.2000000000000455-7.2999999999999545 7.899999999999977-4.699999999999932 4.5 3 11.100000000000023 6.399999999999977 10.200000000000045 12.699999999999932z m34.89999999999998-207.79999999999995c-5.2000000000000455 31.100000000000023-9.100000000000023 64-16.600000000000023 95.89999999999998-3.199999999999932 13.5-18.199999999999932 21.200000000000045-28.199999999999932 31-2.900000000000091 2.800000000000068-4.7000000000000455-1.1999999999999318-6.400000000000091-2.7999999999999545-26.899999999999977-26.800000000000068-53.59999999999991-53.700000000000045-80.59999999999991-80.39999999999998-4.400000000000091-4.300000000000068-4.100000000000023-6.900000000000091 0.09999999999990905-11.100000000000023 26.700000000000045-26.399999999999977 53.30000000000007-52.89999999999998 79.60000000000002-79.70000000000005 4.800000000000068-4.7999999999999545 7.600000000000023-4.399999999999977 11.899999999999977 0.20000000000004547 11.700000000000045 12.199999999999932 23.800000000000068 23.899999999999977 35.80000000000007 35.799999999999955 2.699999999999932 2.7000000000000455 5.7999999999999545 5.2000000000000455 4.399999999999977 11.100000000000023z m11.399999999999977-67.69999999999999c-0.7999999999999545 4.999999999999943-3.199999999999932 5.699999999999989-6.699999999999932 1.8999999999999773-0.20000000000004547-0.30000000000001137-0.5-0.5999999999999659-0.8000000000000682-0.8000000000000114-19.299999999999955-17-19.199999999999932-16.899999999999977-1.2999999999999545-35.099999999999966 4.699999999999932-4.800000000000011 8.799999999999955-10.300000000000011 13.100000000000023-15.5l3.2999999999999545 2.5c-2.5 15.699999999999989-4.899999999999977 31.399999999999977-7.600000000000023 47z m15.899999999999977-122.60000000000002c-22.699999999999932 22.900000000000034-45.59999999999991 45.5-68.09999999999991 68.40000000000003-4.5 4.5-7.100000000000023 3.6999999999999886-11.100000000000023-0.4000000000000341-26.399999999999977-26.69999999999999-52.89999999999998-53.30000000000001-79.70000000000005-79.59999999999997-5-4.900000000000034-3.8999999999999773-7.600000000000023 0.39999999999997726-11.900000000000034 22.40000000000009-22.099999999999966 44.700000000000045-44.30000000000001 66.70000000000005-66.69999999999999 4.2999999999999545-4.399999999999977 6.899999999999977-5.300000000000011 11.700000000000045-0.39999999999997726 26.299999999999955 26.899999999999977 53 53.299999999999955 79.5 79.79999999999995 1.599999999999909 1.7000000000000455 3.099999999999909 3.400000000000034 5 5.5-1.5 2-2.800000000000068 3.8000000000000114-4.400000000000091 5.300000000000011z m14.5-59.39999999999998c-22.799999999999955-22.900000000000034-43.19999999999993-43.5-63.89999999999998-64-3.7999999999999545-3.6999999999999886-3.1000000000000227-6.100000000000023 0.3000000000000682-9.400000000000006 10.099999999999909-9.900000000000006 20.09999999999991-19.900000000000006 30.09999999999991-29.900000000000006h50.60000000000002c-5.5 33.5-11.100000000000023 67.39999999999998-17.100000000000023 103.30000000000001z"/>
</svg>
