<svg xmlns="http://www.w3.org/2000/svg" viewBox="0 0 1000 1000" width="1000" height="1000">
<path d="M904.7 536h-809.3000000000001c-1.3999999999999773 0-2.8999999999999773 0-4.399999999999977 0-16.700000000000003 0.2999999999999545-30.700000000000003 16.200000000000045-30.799999999999997 35.200000000000045-0.10000000000000142 24.09999999999991 0 48.299999999999955 0 72.5 0 8.599999999999909 2.5999999999999943 15.899999999999977 7.3999999999999915 22.399999999999977 7.400000000000006 9.899999999999977 16.900000000000006 13 28.200000000000003 13 269.4-0.20000000000004547 538.9000000000001-0.10000000000002274 808.4000000000001-0.10000000000002274 1.6999999999999318 0 3.5 0 5.199999999999932-0.10000000000002274 7.2000000000000455-0.1999999999999318 13.399999999999977-3.1000000000000227 18.899999999999977-8.299999999999955 5.900000000000091-5.5 9.100000000000023-12.700000000000045 11.600000000000023-20.600000000000023v-85.10000000000002c-0.2999999999999545-0.1999999999999318-0.6000000000000227-0.2999999999999545-0.6999999999999318-0.6000000000000227-5.800000000000068-20-15.900000000000091-28.299999999999955-34.5-28.299999999999955z m78.89999999999998-422.9c-5.100000000000023-3.40000000000002-10.800000000000068-4.600000000000023-16.5-6.100000000000023h-934.1c-0.6000000000000014 0.29999999999999716-1.1999999999999993 0.5999999999999943-1.8000000000000007 0.7999999999999972-19.5 3.5-31.2 17.400000000000006-31.2 37.2 0 22.80000000000001 0 45.69999999999999 0 68.5 0 2.5999999999999943 0.1 5.400000000000006 0.6 8 2.5 14.5 17.4 28.900000000000006 36.8 28.900000000000006 308.1-0.20000000000001705 616.3000000000001-0.09999999999999432 924.4-0.09999999999999432h3c8.200000000000045 0.09999999999999432 15.300000000000068-2.8000000000000114 21.600000000000023-7.800000000000011 7.100000000000023-5.599999999999994 10.899999999999977-13.199999999999989 13.600000000000023-21.5v-84c-2.7999999999999545-9.799999999999997-7.7999999999999545-18-16.399999999999977-23.900000000000006z m-684.8 351.59999999999997h383.9c6.399999999999977 0 12.799999999999955 0.10000000000002274 19.199999999999932 0 3.800000000000068 0 7.2000000000000455-3 10.100000000000023-8.699999999999989 2.8999999999999773-5.600000000000023 4.399999999999977-12.899999999999977 5.5-21v-84c-0.10000000000002274-0.19999999999998863-0.2999999999999545-0.39999999999997726-0.2999999999999545-0.6999999999999886-2.900000000000091-20.19999999999999-7.800000000000068-28.600000000000023-17-28.600000000000023h-400.30000000000007c-0.8999999999999773 0-1.8999999999999773 0-2.7999999999999545 0.19999999999998863-8.200000000000045 1.3000000000000114-14.5 16.700000000000045-14.5 35.700000000000045-0.10000000000002274 23.799999999999955 0 47.69999999999999 0 71.5 0 2.2999999999999545 0 4.599999999999966 0.2999999999999545 6.899999999999977 1.6000000000000227 17.30000000000001 7.900000000000034 28.69999999999999 15.900000000000034 28.69999999999999z m474.29999999999995 285.40000000000003h-548.1c-1.0999999999999943 0-2.0999999999999943 0-3.1999999999999886 0-12.200000000000017 0.5-21.400000000000006 16.299999999999955-21.400000000000006 36.60000000000002 0 23.5 0 47-0.09999999999999432 70.5 0 9.799999999999955 2.0999999999999943 17.799999999999955 6 24.799999999999955 5 9 11.399999999999977 11.399999999999977 18.5 11.299999999999955 183.5 0 366.99999999999994 0 550.4000000000001 0 1.3999999999999773 0 2.7999999999999545-0.1999999999999318 4.199999999999932-0.2999999999999545 6.2000000000000455-0.20000000000004547 11-5 15.100000000000023-12.5 2.6000000000000227-4.7999999999999545 3.7999999999999545-10.700000000000045 5.2000000000000455-16.5v-84c-5.5-23.799999999999955-11-29.899999999999977-26.600000000000023-29.899999999999977z"/>
</svg>
