<svg xmlns="http://www.w3.org/2000/svg" viewBox="0 0 1000 1000" width="1000" height="1000">
<path d="M999.5 142c-1.5 2.9000000000000057-0.7999999999999545 6.300000000000011-1.5 9.5-5.100000000000023 25.5-16.799999999999955 47.400000000000006-35.200000000000045 65.80000000000001l-44.5 44.599999999999966c-29.299999999999955 29.30000000000001-58.59999999999991 58.60000000000002-88 88-0.6999999999999318 0.7000000000000455-1.5 1.5-2.2999999999999545 2.3000000000000114-3.3999999999999773 3.400000000000034-2.7999999999999545 3.5-6.600000000000023 0.5-8.799999999999955-6.800000000000011-17.5-13.599999999999966-26.299999999999955-20.5-22.5-17.599999999999966-45.200000000000045-35.30000000000001-67.80000000000007-52.89999999999998-0.8999999999999773-0.8000000000000114-1.599999999999909-1.8000000000000114-3.5-1.8000000000000114 1.5 1.6000000000000227 2.7000000000000455 2.8999999999999773 4 4.100000000000023 41.90000000000009 42 83.90000000000009 84 125.90000000000009 126 9 9 14.599999999999909 19.69999999999999 16.59999999999991 32.299999999999955 4.300000000000068 27.80000000000001-14.099999999999909 55.5-41.59999999999991 62-20.300000000000068 4.800000000000011-38.200000000000045-0.19999999999998863-53.200000000000045-14.699999999999989-12.700000000000045-12.300000000000011-25.100000000000023-25-37.700000000000045-37.599999999999966-0.6999999999999318-0.7000000000000455-1.599999999999909-1.400000000000034-2.2999999999999545-2.3000000000000114-1-1-1.7999999999999545-0.9000000000000341-2.7000000000000455 0.0999999999999659-1.099999999999909 1.1000000000000227-2.199999999999932 2.2000000000000455-3.2999999999999545 3.3000000000000114-151.60000000000002 151.59999999999997-303.2 303.2-454.7 454.8-13.699999999999989 13.700000000000045-29.400000000000006 24.200000000000045-47.70000000000002 31-12.400000000000006 4.600000000000023-25.19999999999999 6.7999999999999545-38.29999999999998 7.7999999999999545-11.800000000000011 0.900000000000091-23.600000000000023 2.7000000000000455-35.30000000000001 4.2000000000000455-5.699999999999989 0.7000000000000455-11.300000000000011 1.7000000000000455-16.900000000000006 2.3999999999999773-6.400000000000006 0.7000000000000455-11.699999999999989 3.1000000000000227-16.299999999999997 7.800000000000068-9.700000000000003 10.099999999999909-19.89999999999999 19.799999999999955-29.700000000000003 29.899999999999977-4.5 4.600000000000023-9.399999999999991 8.399999999999977-15.599999999999994 10.199999999999932-0.7000000000000028 0.20000000000004547-1.5 0.40000000000009095-1.9000000000000057 1.2000000000000455h-10.199999999999996c-0.6999999999999957-0.39999999999997726-1.2999999999999972-0.7999999999999545-2-1-6.399999999999999-1.8999999999999773-11.5-5.7000000000000455-16.1-10.399999999999977-11.099999999999994-11.399999999999977-22.4-22.600000000000023-33.699999999999996-33.700000000000045-4.300000000000002-4.2999999999999545-8.000000000000002-8.899999999999977-9.600000000000001-15-0.19999999999999996-1-1-1.8999999999999773-1.5-2.7999999999999545v-9.300000000000068c0.5-0.8999999999999773 1.3-1.7999999999999545 1.6-2.699999999999932 1.5-5.899999999999977 5-10.5 9.3-14.700000000000045 10.4-10.299999999999955 20.700000000000003-20.799999999999955 31.1-31 4.200000000000003-4.100000000000023 6.399999999999999-8.899999999999977 7.200000000000003-14.600000000000023 1.8999999999999986-15 4.099999999999994-29.899999999999977 6-44.89999999999998 0.8999999999999986-6.699999999999932 1.0999999999999943-13.5 2-20.199999999999932 3.8999999999999986-28.200000000000045 15.899999999999991-52.30000000000007 35.8-72.5 13.700000000000003-13.800000000000068 27.5-27.5 41.19999999999999-41.200000000000045l415.2-415.2c4.800000000000068-4.800000000000011 4.800000000000068-4.800000000000011 0-9.600000000000023-12.299999999999955-12.299999999999983-24.600000000000023-24.399999999999977-36.69999999999993-36.69999999999999-19.000000000000057-19.5-21.500000000000057-49.19999999999999-6.000000000000057-71.30000000000001 19.69999999999999-28.099999999999994 59.900000000000034-31.999999999999986 84.50000000000006-8 13 12.600000000000023 25.59999999999991 25.5 38.299999999999955 38.30000000000001l2.2999999999999545 2.3000000000000114c1 1 1.900000000000091 0.799999999999983 2.800000000000068-0.10000000000002274 0.7999999999999545-0.8999999999999773 1.6999999999999318-1.799999999999983 2.6000000000000227-2.6999999999999886 48.39999999999998-48.400000000000006 96.79999999999995-96.8 145.19999999999993-145.2 18-18.00000000000001 39.200000000000045-30.00000000000001 64-35.000000000000014 70.20000000000005-14.399999999999997 132.5 28.800000000000004 149.39999999999998 90.7 1.400000000000091 5.099999999999994 2.900000000000091 10.099999999999994 2.900000000000091 15.400000000000006 0 1.2999999999999972 0.5 2.3999999999999915 0.8999999999999773 3.5-0.10000000000002274 9.799999999999997-0.10000000000002274 19.69999999999999-0.10000000000002274 29.599999999999994z m-323.70000000000005 257.9c0-8-2.3999999999999773-14.599999999999966-7.599999999999909-19.899999999999977-15.900000000000091-16.100000000000023-31.90000000000009-32.19999999999999-48.10000000000002-48.10000000000002-7-6.699999999999989-15.5-9-25.200000000000045-6.899999999999977-6.2999999999999545 1.3999999999999773-11.199999999999932 4.800000000000011-15.600000000000023 9.300000000000011-58.69999999999993 58.69999999999999-117.39999999999998 117.30000000000001-175.99999999999994 175.89999999999998-85.90000000000003 85.80000000000001-171.70000000000002 171.7-257.5 257.50000000000006l-3.3000000000000114 3.199999999999932c-1 1.1000000000000227-1.9000000000000057 2.3999999999999773-2.5 3.8999999999999773-1.1999999999999886 3-0.6999999999999886 6.5 1.4000000000000057 8.100000000000023 2.4000000000000057 2 5.099999999999994 1.7000000000000455 7.799999999999983 0.6000000000000227 2.3000000000000114-0.8999999999999773 3.8000000000000114-2.6000000000000227 5.400000000000006-4.2000000000000455l54-54c37.80000000000001-37.799999999999955 75.70000000000002-75.69999999999993 113.6-113.5 12.699999999999989-12.599999999999909 29.600000000000023-12.599999999999909 42.30000000000001 0 6 5.900000000000091 12 12 17.899999999999977 18 5.800000000000011 5.7000000000000455 11.5 11.600000000000023 17.400000000000034 17.300000000000068 6.899999999999977 6.600000000000023 15 9.199999999999932 24.599999999999966 7.699999999999932 6.800000000000011-1.099999999999909 12.100000000000023-4.7999999999999545 16.900000000000034-9.599999999999909 74.80000000000001-74.80000000000007 149.59999999999997-149.60000000000002 224.40000000000003-224.40000000000003 0.8999999999999773-0.9000000000000341 1.7999999999999545-1.6999999999999886 2.599999999999909-2.6000000000000227 4.900000000000091-5.300000000000011 7.400000000000091-11.599999999999966 7.5-18.30000000000001z"/>
</svg>
