<svg xmlns="http://www.w3.org/2000/svg" viewBox="0 0 1000 1000" width="1000" height="1000">
<path d="M1000 531.3v-62.799999999999955h-378.70000000000005v-411.8h30.700000000000045c42.700000000000045 1.4210854715202004e-14 79 9.500000000000014 108.89999999999998 28.400000000000006 29.800000000000068 19 55.39999999999998 50.20000000000002 76.80000000000007 93.5 21.299999999999955 43.400000000000006 39.39999999999998 102.29999999999998 54.19999999999993 176.9h30.700000000000045c-3-29.69999999999999-4.5-63.60000000000002-4.5-102 0-61 3.199999999999932-136.8 9.799999999999955-227.5-80.69999999999993 2.6000000000000014-218.19999999999993 3.8999999999999986-412.6 3.8999999999999986-194.39999999999998 0-332.29999999999995-1.2999999999999972-413.79999999999995-3.8999999999999986 6.599999999999994 90.7 9.799999999999997 166.5 9.799999999999997 227.5 0 38.39999999999998-1.5 72.30000000000001-4.599999999999994 102h30.799999999999997c15.199999999999989-75 33.5-134.2 54.900000000000006-177.5 21.299999999999983-43.400000000000006 47-74.5 76.79999999999998-93.2s66.40000000000003-28.099999999999994 109.5-28.099999999999994h29.400000000000034v411.8h-408.1v62.799999999999955h408.2v290.30000000000007c0 37-3.8000000000000114 64-11.199999999999989 81-7.399999999999977 17-20.80000000000001 28.600000000000023-40.19999999999999 34.69999999999993-19.400000000000034 6.100000000000023-50 9.300000000000068-91.80000000000001 9.800000000000068v26.799999999999955c107.19999999999999-2.6000000000000227 188.89999999999998-3.8999999999999773 245.10000000000002-3.8999999999999773 57.10000000000002 0 141.89999999999998 1.2999999999999545 254.29999999999995 3.8999999999999773v-26.799999999999955c-41.39999999999998-0.5-71.79999999999995-3.7000000000000455-91.19999999999993-9.800000000000068-19.40000000000009-6.099999999999909-32.90000000000009-17.699999999999932-40.5-34.69999999999993-7.600000000000023-17-11.400000000000091-44-11.400000000000091-81v-290.30000000000007h378.70000000000005z"/>
</svg>
