<svg xmlns="http://www.w3.org/2000/svg" viewBox="0 0 1000 1000" width="1000" height="1000">
<path d="M505.6 919.3c0 13.800000000000068 3.099999999999966 24.200000000000045 9.299999999999955 31.40000000000009 6.2000000000000455 7.099999999999909 16 12.199999999999932 29.300000000000068 15.199999999999932s32.39999999999998 4.899999999999977 57.19999999999993 5.899999999999977l-6.199999999999932 28.300000000000068c-54.200000000000045-2.7000000000000455-130.80000000000007-4.100000000000023-229.60000000000002-4.100000000000023-98.40000000000003 0-172.40000000000003 1.3999999999999773-222.10000000000002 4.100000000000023l6.900000000000006-28.300000000000068c32.69999999999999-1.3999999999999773 57.29999999999998-5 73.79999999999998-11 16.600000000000023-6 29.900000000000006-17.09999999999991 40-33.39999999999998 10.100000000000023-16.299999999999955 19.80000000000001-41.89999999999998 29-76.89999999999998l186.2-700.7c7.800000000000011-29.89999999999995 11.700000000000045-52.69999999999996 11.700000000000045-68.29999999999995 0-13.799999999999997-3.1000000000000227-24.4-9.300000000000011-31.700000000000003s-15.900000000000034-12.5-29-15.5-31.80000000000001-4.899999999999999-56.19999999999999-5.899999999999999l6.899999999999977-28.4c46.5 2.7 120.29999999999995 4.1 221.39999999999998 4.1 93.80000000000007 0 171-1.3999999999999995 231.70000000000005-4.1l-6.899999999999977 28.3c-34.5 1.3999999999999986-60.10000000000002 5.099999999999998-76.90000000000009 11.099999999999998-16.799999999999955 6-30.09999999999991 17-40 33.1-9.899999999999977 16.099999999999994-19.399999999999977 41.8-28.59999999999991 77.19999999999999l-186.20000000000005 700.5999999999999c-8.300000000000011 32.200000000000045-12.399999999999977 55.200000000000045-12.399999999999977 69z"/>
</svg>
