<svg xmlns="http://www.w3.org/2000/svg" viewBox="0 0 1000 1000" width="1000" height="1000">
<path d="M596.7 384.8c-50.40000000000009 0-100.90000000000003-0.5-151.30000000000007 0.19999999999998863-28 0.39999999999997726-54.39999999999998 8-78.79999999999995 22.100000000000023-79.5 45.799999999999955-120.10000000000002 141.39999999999998-108.70000000000005 236.39999999999998 11.5 96.20000000000005 81.20000000000005 172.70000000000005 172.5 195.10000000000002 18.100000000000023 4.399999999999977 36.5 6.7999999999999545 55.10000000000002 7.199999999999932 44.89999999999998 1 77.60000000000002 33.90000000000009 77.39999999999998 77.5-0.1999999999999318 43.10000000000002-33.89999999999998 77.20000000000005-78.5 76.60000000000002-99.29999999999995-1.3999999999999773-187-34.69999999999993-259.4-102.89999999999998-143.3-134.89999999999998-165-353.1-51.599999999999994-515.1 60.099999999999994-85.89999999999998 140.9-139.29999999999998 246.99999999999997-149.29999999999998 54.5-5.199999999999989 109.20000000000005-1 163.70000000000005-2.1999999999999886 6.100000000000023-0.09999999999999432 12.699999999999932 1.5 20.899999999999977-3.0999999999999943-33-32.5-65.29999999999995-62.900000000000006-95.89999999999998-94.9-31.900000000000034-33.30000000000001-30.600000000000023-80.7 1.099999999999966-111 31.30000000000001-29.900000000000006 76.90000000000003-28.500000000000007 109.59999999999997 4.099999999999994 91 90.7 181.60000000000002 181.7 272.6 272.3 8.300000000000068 8.300000000000011 8.300000000000068 12.699999999999989-0.10000000000002274 20.899999999999977-49.19999999999993 48.400000000000034-97.79999999999995 97.40000000000003-146.5999999999999 146.2-43.30000000000007 43.30000000000001-86.20000000000005 86.89999999999998-130.20000000000005 129.5-25.200000000000045 24.399999999999977-60.200000000000045 27.800000000000068-89.79999999999995 11.5-29.300000000000068-16.100000000000023-44.200000000000045-48-38.200000000000045-82.39999999999998 3-17.19999999999999 12.199999999999989-30.899999999999977 24.5-43 31.100000000000023-30.5 62.10000000000002-61 96.10000000000002-94.5-7.2000000000000455-0.6999999999999886-9.300000000000068-1.1999999999999886-11.399999999999977-1.1999999999999886z"/>
</svg>
