<svg xmlns="http://www.w3.org/2000/svg" viewBox="0 0 1000 1000" width="1000" height="1000">
<path d="M765.4 62.5h-531c-54.49999999999997 0-98.89999999999998 48-98.89999999999998 107.5v577c0 33.39999999999998 14.300000000000011 63.200000000000045 36.400000000000006 82.89999999999998v79.30000000000007c0 15.699999999999932 12.699999999999989 28.399999999999977 28.299999999999983 28.399999999999977h104.69999999999999c15.700000000000045 0 28.30000000000001-12.700000000000045 28.30000000000001-28.399999999999977v-54.700000000000045h86.40000000000003v-0.10000000000002274l246.69999999999993 0.10000000000002274v54.799999999999955c0 15.700000000000045 12.700000000000045 28.40000000000009 28.300000000000068 28.40000000000009h104.69999999999993c15.700000000000045 0 28.300000000000068-12.700000000000045 28.300000000000068-28.40000000000009v-79.29999999999995c22.100000000000023-19.700000000000045 36.39999999999998-49.5 36.39999999999998-83v-577c0.10000000000002274-59.5-44-107.5-98.60000000000002-107.5z m-419.09999999999997 45.900000000000006h307.09999999999997v29.799999999999983h-307.09999999999997v-29.799999999999983z m61.5 571.1h-193.9v-71.70000000000005h193.9v71.70000000000005z m-183.4-233c-15.900000000000006 0-28.700000000000017-6-28.700000000000017-13.300000000000011v-254.89999999999998c0-7.400000000000006 12.800000000000011-13.200000000000017 28.700000000000017-13.200000000000017h550.9c16 0 28.800000000000068 6 28.800000000000068 13.200000000000017v254.89999999999998c0 7.400000000000034-12.800000000000068 13.300000000000011-28.800000000000068 13.300000000000011h-550.9z m377.30000000000007 233v-71.70000000000005h193.89999999999998v71.70000000000005h-193.89999999999998z"/>
</svg>
