<svg xmlns="http://www.w3.org/2000/svg" viewBox="0 0 1000 1000" width="1000" height="1000">
<path d="M936.2 543.3c-1.3000000000000682-40.89999999999998-23.800000000000068-71.99999999999994-63.60000000000002-86.59999999999997-11.600000000000023-4.300000000000011-17.399999999999977-10.599999999999966-21.399999999999977-21.30000000000001-20.700000000000045-54.599999999999966-41.80000000000007-109-62.90000000000009-163.5-20.59999999999991-53.19999999999999-50-73.19999999999999-107.5-73.29999999999998h-37.69999999999993c0.1999999999999318-2 0.8999999999999773-3.5999999999999943 0.8999999999999773-5.799999999999983 0.10000000000002274-30.30000000000001 0.20000000000004547-60.60000000000002 0-90.80000000000001-0.10000000000002274-21-12.100000000000023-32.900000000000006-33.10000000000002-32.900000000000006-69.79999999999995-0.09999999999999432-139.59999999999997-0.09999999999999432-209.29999999999995 0-21.30000000000001 0-33.400000000000034 12.300000000000011-33.400000000000034 33.400000000000006v90c0 2.3000000000000114 0.6000000000000227 4 0.9000000000000341 6.099999999999994h-51.10000000000002c-56.30000000000001 0-86.30000000000001 20.30000000000001-106.4 72.29999999999998-21.799999999999983 56.10000000000002-43.19999999999999 112.40000000000003-65.29999999999998 168.3-2.3000000000000114 5.800000000000011-7.700000000000017 12.400000000000034-13.300000000000011 14.699999999999989-48.599999999999994 19.900000000000034-70.3 51.60000000000002-70.3 104.5v222.80000000000007c0 2 1.5999999999999943 3.599999999999909 3.5999999999999943 3.599999999999909 17.799999999999997 0.10000000000002274 34.10000000000001 0.7000000000000455 50.400000000000006-0.2999999999999545 13.200000000000003-0.7000000000000455 18.200000000000003 3.1000000000000227 17.700000000000003 17.100000000000023-0.8000000000000114 25.399999999999977-0.9000000000000057 50.89999999999998 0.799999999999983 76.10000000000002 2.4000000000000057 35.299999999999955 38.400000000000006 60 72.9 51.5 32.30000000000001-8 49.70000000000002-30.40000000000009 50.29999999999998-65.90000000000009 0.4000000000000341-24.59999999999991 0.10000000000002274-49.299999999999955 0.10000000000002274-74.19999999999993 0-2 1.6000000000000227-3.6000000000000227 3.6000000000000227-3.6000000000000227h475.79999999999995c2 0 3.6000000000000227 1.6000000000000227 3.6000000000000227 3.6000000000000227 0 24.699999999999932-0.5 48.799999999999955 0.10000000000002274 72.79999999999995 1.2999999999999545 50.10000000000002 38.799999999999955 79.5 82.79999999999995 65.60000000000002 23.200000000000045-7.399999999999977 39.5-27.200000000000045 40.39999999999998-52.299999999999955 0.900000000000091-28.300000000000068 0.3000000000000682-56.700000000000045 0.20000000000004547-87 0-2 1.6000000000000227-3.6000000000000227 3.6000000000000227-3.6000000000000227h64.79999999999995c2 0 3.6000000000000227-1.6000000000000227 3.6000000000000227-3.6000000000000227-0.10000000000002274-80.5 1.6000000000000227-159.10000000000002-0.7999999999999545-237.70000000000005z m-332-356.69999999999993h-39.30000000000007v-38.60000000000002h39.30000000000007v38.599999999999994z m-77.90000000000009-73.20000000000002c0.10000000000002274-1.7000000000000028 3.1000000000000227-4.5 4.900000000000091-4.6000000000000085 10.899999999999977-0.3999999999999915 21.899999999999977-0.20000000000000284 33.5-0.20000000000000284v39.099999999999994h-38.700000000000045c0-11.899999999999977-0.10000000000002274-23.099999999999994 0.2999999999999545-34.29999999999998z m-1.1999999999999318 73.29999999999998h-38.60000000000002v-38.69999999999999h38.60000000000002v38.69999999999999z m-78-77.69999999999999h39.19999999999999v38.69999999999999l-40.5-0.5999999999999943 1.3000000000000114-25.599999999999994c0.0999999999999659-4.099999999999994 0-8.099999999999994 0-12.5z m-38.80000000000001 38.19999999999999h37.39999999999998v39.400000000000006h-37.30000000000001c-0.0999999999999659-12.699999999999989-0.0999999999999659-25.400000000000006-0.0999999999999659-39.400000000000006z m-210.5 501.59999999999997c-36.400000000000006 0-66.60000000000002-31.09999999999991-65.80000000000001-67.69999999999993 0.8000000000000114-35.89999999999998 31.099999999999994-66.70000000000005 65.5-66.70000000000005 36.19999999999999 0 65.10000000000002 30.399999999999977 64.89999999999998 68.30000000000007-0.0999999999999659 37.09999999999991-28.49999999999997 66.19999999999993-64.59999999999997 66.09999999999991z m15.599999999999994-197.99999999999994c-2 0-3.4000000000000057-1.6000000000000227-3.200000000000017-3.6000000000000227 0.20000000000001705-2.3000000000000114 0.4000000000000057-4.399999999999977 1.200000000000017-6.399999999999977 17.900000000000006-48.60000000000002 35.69999999999999-97.19999999999999 54.20000000000002-145.5 11.099999999999966-29.100000000000023 21-35.60000000000002 51.299999999999955-35.60000000000002h155.90000000000003v8.199999999999989c0 2 1.599999999999966 3.6000000000000227 3.599999999999966 3.6000000000000227h47.200000000000045c2 0 3.6000000000000227-1.6000000000000227 3.6000000000000227-3.6000000000000227v-8.199999999999989c52 0 104.09999999999991-0.0999999999999659 156.0999999999999-0.30000000000001137 23.200000000000045-0.0999999999999659 40 7.400000000000034 48.40000000000009 29.700000000000045 19.299999999999955 51.89999999999998 38.5 103.79999999999995 57.69999999999993 155.79999999999995 0.3000000000000682 0.9000000000000341 0.39999999999997726 1.8000000000000114 0.39999999999997726 3 0 1.6000000000000227-1.5 3-3.599999999999909 3h-36.30000000000007c-11.600000000000023-37.89999999999998-46.69999999999993-65.5-88.19999999999993-65.5s-76.60000000000002 27.600000000000023-88.20000000000005 65.5h-360.1v-0.0999999999999659z m448.30000000000007-55.900000000000034c36.19999999999993 0 67 23.400000000000034 78.19999999999993 55.900000000000034h-156.39999999999998c11.200000000000045-32.60000000000002 42-55.900000000000034 78.20000000000005-55.900000000000034z m141.0999999999999 253.89999999999998c-36.39999999999998 0.3000000000000682-65.19999999999993-28.399999999999977-65.59999999999991-65.19999999999993-0.40000000000009095-38.200000000000045 27.899999999999977-68.80000000000007 64-69.20000000000005 35.299999999999955-0.39999999999997726 66.59999999999991 31.5 66.39999999999998 67.60000000000002-0.10000000000002274 36.60000000000002-29.200000000000045 66.5-64.80000000000007 66.79999999999995z"/>
</svg>
