<svg xmlns="http://www.w3.org/2000/svg" viewBox="0 0 1000 1000" width="1000" height="1000">
<path d="M418.1 739.6c-31.700000000000045 32.89999999999998-49.10000000000002 8.299999999999955-67.80000000000001-10.300000000000068-27.80000000000001-27.699999999999932-55.5-55.299999999999955-83.10000000000002-83.29999999999995-18.5-18.799999999999955-49.599999999999994-34.39999999999998-11.099999999999966-70.39999999999998l-10.300000000000011-1.6000000000000227c-7.5 2.3999999999999773-15.900000000000006 3.3999999999999773-22.700000000000017 7.2999999999999545-28.5 16.300000000000068-57.400000000000006 32.10000000000002-84.29999999999998 50.60000000000002-31.80000000000001 22-41.10000000000001-9.5-57.20000000000002-22.5-17.099999999999994-13.799999999999955-0.8999999999999915-24.100000000000023 7.400000000000006-33.60000000000002 39.099999999999994-44.59999999999991 78-89.39999999999998 118.5-132.59999999999997 8.099999999999994-8.699999999999989 22.400000000000006-13.800000000000011 34.69999999999999-15.899999999999977 20.5-3.6000000000000227 42-6 62.60000000000002-4.199999999999989 36 3.1999999999999886 55.30000000000001-15.700000000000045 74.59999999999997-42.60000000000002 74.60000000000002-104.10000000000002 163.89999999999998-192.8 279.1-252.5 65.89999999999998-34.2 65.60000000000002-34.3 116.39999999999998 17.5 35.700000000000045 36.400000000000006 71.20000000000005 73.19999999999999 108.70000000000005 107.9 13.299999999999955 12.299999999999983 14.699999999999932 21.900000000000006 8.399999999999977 37.20000000000002-40 97.19999999999999-101.20000000000005 179.09999999999997-179.60000000000002 248-37.60000000000002 33-79.10000000000002 61.5-117.29999999999995 93.79999999999995-9.600000000000023 8.100000000000023-16.800000000000068 23-18.700000000000045 35.60000000000002-4.2999999999999545 29.700000000000045-3.3999999999999773 60.10000000000002-7.100000000000023 89.89999999999998-1.2999999999999545 10.5-7.599999999999909 22.600000000000023-15.399999999999977 29.700000000000045-45.299999999999955 40.89999999999998-91.89999999999998 80.39999999999998-137.89999999999998 120.69999999999993-10.899999999999977 9.5-22.100000000000023 16.600000000000023-31.899999999999977 1.900000000000091-10.100000000000023-15.200000000000045-42-20.5-24.400000000000034-49.5 18.30000000000001-30.40000000000009 36.69999999999999-60.80000000000007 54.69999999999999-91.5 3.7000000000000455-6.2000000000000455 5.5-13.400000000000091 8.200000000000045-20.200000000000045-1.400000000000034-3.2000000000000455-3-6.2999999999999545-4.5-9.399999999999977z m252.5-477.20000000000005c-35.30000000000007-0.5999999999999659-66.39999999999998 30-66.5 65.40000000000003 0 33.599999999999966 30.100000000000023 64.59999999999997 64 65.59999999999997 33.5 1.1000000000000227 67.29999999999995-32.299999999999955 67-66-0.20000000000004547-33.599999999999966-30.800000000000068-64.39999999999998-64.5-65z m-608.2 664.9c18.200000000000017-12.799999999999955 35.20000000000002-23.399999999999977 50.50000000000003-35.89999999999998 8.099999999999994-6.699999999999932 15.900000000000006-16 19.099999999999994-25.799999999999955 2.8000000000000114-8.200000000000045 2.0999999999999943-21.700000000000045-3.1999999999999886-27.200000000000045-4.300000000000011-4.600000000000023-17.500000000000014-1.7999999999999545-26.500000000000014-0.39999999999997726-4.700000000000003 0.7000000000000455-8.899999999999991 5.2999999999999545-15.399999999999991 9.299999999999955-6-42.39999999999998 17.799999999999997-66.69999999999993 44.599999999999994-89.39999999999998 2.6999999999999886-2.3999999999999773 7.099999999999994-3 9.300000000000011-5.600000000000023 9.399999999999977-11.299999999999955 18.099999999999994-23 27.19999999999999-34.69999999999993-11.699999999999989-3.2000000000000455-23.400000000000006-6.300000000000068-42.099999999999994-11.399999999999977 11.400000000000006-11.100000000000023 20.599999999999994-24.200000000000045 33-31.300000000000068 36.29999999999998-20.699999999999932 87.6-13.899999999999977 120.49999999999997 13.399999999999977 41.400000000000034 34.30000000000007 54.200000000000045 78 39.200000000000045 127-15.900000000000034 51.30000000000007-50.60000000000002 82.60000000000002-100.20000000000002 99.90000000000009-0.700000000000017-2.2000000000000455-1.5999999999999943-3.800000000000068-1.700000000000017-5.300000000000068l-2-42.5c-13.099999999999994 6.300000000000068-27.19999999999999 11-38.69999999999999 19.399999999999977-15.400000000000006 11.100000000000023-27.69999999999999 26.600000000000023-43.19999999999999 37.40000000000009-26.30000000000001 18.199999999999932-36.000000000000014 17.699999999999932-70.4 3.099999999999909z m847.2-682.8c-52.200000000000045-53.30000000000001-100.89999999999998-102.9-153.10000000000002-156.1 54.200000000000045-9 107.60000000000002-19.5 161.5-26.200000000000003 21-2.6000000000000014 20.799999999999955 15.899999999999991 18.100000000000023 31.299999999999997-8.5 49.30000000000001-17.300000000000068 98.5-26.5 151z"/>
</svg>
