<svg xmlns="http://www.w3.org/2000/svg" viewBox="0 0 1000 1000" width="1000" height="1000">
<path d="M937.4 699.8c0-41.59999999999991 0.39999999999997726-80.59999999999991-0.39999999999997726-119.39999999999998-0.20000000000004547-4.899999999999977-5.7000000000000455-10.600000000000023-10.100000000000023-14.199999999999932-113.89999999999998-90.90000000000003-227.89999999999998-181.70000000000005-342.19999999999993-272.00000000000006-10.900000000000091-8.5-15.400000000000091-17-14.800000000000068-31.19999999999999 1-33.30000000000001 0.39999999999997726-66.6 0-99.9-0.39999999999997726-42.599999999999994-30-74-69.69999999999999-74h-0.39999999999997726c-39.69999999999999 0-69.30000000000001 31.400000000000006-69.69999999999999 74-0.4000000000000341 33.30000000000001-1 66.6 0 99.9 0.5999999999999659 14.199999999999989-3.900000000000034 22.69999999999999-14.800000000000011 31.19999999999999-114.19999999999999 90.30000000000001-228.3 181.10000000000002-342.20000000000005 272.00000000000006-4.299999999999969 3.599999999999909-9.899999999999963 9.299999999999955-10.099999999999966 14.199999999999932-0.7999999999999972 38.80000000000007-0.3999999999999986 77.80000000000007-0.3999999999999986 119.39999999999998l367.29999999999995-185.89999999999998c0 70.39999999999998 0.4000000000000341 136.89999999999998-0.39999999999997726 203.5 0 5.300000000000068-5.100000000000023 12.100000000000023-9.899999999999977 15.899999999999977-37 30.100000000000023-74.60000000000002 59.60000000000002-112 89.5-3.7000000000000455 3.2000000000000455-9.5 7.2000000000000455-9.600000000000023 11-0.8000000000000114 24.800000000000068-0.39999999999997726 49.60000000000002-0.39999999999997726 77.20000000000005 50.799999999999955-20.100000000000023 98.69999999999999-39 147-58.10000000000002 0.19999999999998863 31.399999999999977 24.899999999999977 56.80000000000007 55.5 56.80000000000007s55.299999999999955-25.40000000000009 55.5-56.80000000000007c48.299999999999955 19.100000000000023 96.19999999999993 37.89999999999998 147 58.10000000000002 0-27.600000000000023 0.39999999999997726-52.39999999999998-0.39999999999997726-77.20000000000005-0.20000000000004547-3.7999999999999545-6-7.7999999999999545-9.600000000000023-11-37.39999999999998-29.899999999999977-75-59.39999999999998-112-89.5-4.7000000000000455-3.7999999999999545-9.899999999999977-10.599999999999909-9.899999999999977-15.899999999999977-0.8000000000000682-66.60000000000002-0.40000000000009095-133.10000000000002-0.40000000000009095-203.5 122.90000000000009 62.30000000000007 244 123.5 367.1 185.89999999999998z"/>
</svg>
