<svg xmlns="http://www.w3.org/2000/svg" viewBox="0 0 1000 1000" width="1000" height="1000">
<path d="M784.1 368.6c-16.399999999999977 0-31.399999999999977-0.10000000000002274-46.39999999999998 0-12.400000000000091 0.0999999999999659-18 4.599999999999966-18.300000000000068 14.5-0.2999999999999545 10.599999999999966 5.2000000000000455 16 17.5 16.399999999999977 11.600000000000023 0.39999999999997726 23.399999999999977 0 35 0.10000000000002274 10.300000000000068 0.0999999999999659 10.399999999999977 0.7999999999999545 8.300000000000068 10.5-9.200000000000045 42.19999999999999-31 78-56.40000000000009 111.69999999999993-31.09999999999991 41.10000000000002-63.59999999999991 80.90000000000009-94.09999999999991 122.5-14.700000000000045 20.100000000000023-25.800000000000068 42.80000000000007-38.40000000000009 64.30000000000007-3 5.100000000000023-4 11.5-12 12.100000000000023-1.6999999999999318 0.09999999999990905-4 4.2999999999999545-4.399999999999977 6.7999999999999545-3 22.100000000000023-5.699999999999932 44.39999999999998-8.399999999999977 66.60000000000002-0.2999999999999545 2.3999999999999773-0.39999999999997726 4.899999999999977-0.7999999999999545 7.2999999999999545-1.900000000000091 11.700000000000045-1.900000000000091 11.399999999999977 9.399999999999977 13.899999999999977 2.2999999999999545 0.5 5.399999999999977 4.2000000000000455 5.399999999999977 6.5 0.2999999999999545 36.200000000000045 0.20000000000004547 72.40000000000009 0.2999999999999545 108.60000000000002 0 5.300000000000068-2.699999999999932 6.899999999999977-7.5 6.899999999999977-45.09999999999991 0-90.19999999999993 0-135.39999999999998 0.10000000000002274-5.399999999999977 0-7.5-2.2999999999999545-7.5-7.7999999999999545 0.20000000000004547-35.60000000000002 0.20000000000004547-71.20000000000005 0-106.70000000000005 0-5.399999999999977 1.5-8 7.300000000000011-7.7999999999999545 6.600000000000023 0.2999999999999545 7.100000000000023-3.6000000000000227 6.400000000000034-9.100000000000023-3-25.5-5.600000000000023-51.200000000000045-8-76.79999999999995-0.5-5.300000000000068-1.8000000000000114-8.400000000000091-7.800000000000011-9.200000000000045-2.6000000000000227-0.2999999999999545-5.900000000000034-3.1000000000000227-7.199999999999989-5.7000000000000455-19.200000000000045-40.799999999999955-46.5-75.69999999999993-75.90000000000003-109.39999999999998-28.30000000000001-32.39999999999998-56.599999999999966-64.60000000000002-83.30000000000001-98.19999999999999-21.69999999999999-27.19999999999999-35.29999999999998-59-42.29999999999998-93.30000000000001-0.4000000000000057-2.099999999999966-0.799999999999983-4.199999999999989-1-6.399999999999977-0.19999999999998863-1.8000000000000114 0-3.6999999999999886 0-6.699999999999989 3.8000000000000114-0.30000000000001137 7.300000000000011-0.5 10.800000000000011-0.6000000000000227 12.199999999999989-0.0999999999999659 24.599999999999994 0.4000000000000341 36.79999999999998-0.30000000000001137 9-0.2999999999999545 15.699999999999989-8.199999999999989 15.300000000000011-16.399999999999977-0.30000000000001137-8-6.899999999999977-14.300000000000011-16.100000000000023-14.399999999999977-13.799999999999983-0.30000000000001137-27.599999999999966-0.30000000000001137-41.39999999999998 0-6.5 0.0999999999999659-8.699999999999989-2.400000000000034-8.199999999999989-8.800000000000011 6.099999999999994-89.40000000000003 38.19999999999999-166.60000000000002 105.5-227.4 38.89999999999998-35.30000000000001 84.30000000000001-58.10000000000001 136.2-66.5 50-8.100000000000009 98.60000000000002-2.3000000000000043 145.5 18.099999999999994 74.70000000000005 32.599999999999994 124.70000000000005 88.5 156.10000000000002 162.6 15 35.29999999999998 22.600000000000023 72.29999999999998 24.799999999999955 110.50000000000003 0.39999999999997726 3.2999999999999545 0.20000000000004547 6.7999999999999545 0.20000000000004547 11.5z m-241 398.79999999999995c0-12.899999999999977-0.3000000000000682-25.699999999999932 0.10000000000002274-38.60000000000002 0.1999999999999318-6.2999999999999545-1.7000000000000455-8.699999999999932-8.300000000000068-8.699999999999932-20.199999999999932 0.39999999999997726-40.39999999999998 0.39999999999997726-60.599999999999966 0.10000000000002274-7.300000000000011-0.10000000000002274-9.600000000000023 2.5-9.5 9.699999999999932 0.30000000000001137 25.399999999999977 0.30000000000001137 50.80000000000007 0 76.30000000000007-0.10000000000002274 6.899999999999977 2.5 9.099999999999909 9.199999999999989 9 20.19999999999999-0.3000000000000682 40.39999999999998-0.3000000000000682 60.60000000000002 0 6.899999999999977 0.09999999999990905 8.899999999999977-2.5 8.699999999999932-9.300000000000068-0.5-12.799999999999955-0.1999999999999318-25.699999999999932-0.1999999999999318-38.5z m23-418.79999999999995c12.199999999999932 0 24.5 0.2999999999999545 36.69999999999993-0.10000000000002274 10.100000000000023-0.30000000000001137 16.700000000000045-6.600000000000023 16.90000000000009-15.5 0.09999999999990905-8.699999999999989-6.600000000000023-15.600000000000023-16.700000000000045-15.699999999999989-23.899999999999977-0.30000000000001137-47.799999999999955-0.30000000000001137-71.60000000000002 0-10.699999999999932 0.0999999999999659-17.699999999999932 6.899999999999977-17.699999999999932 16 0 8.599999999999966 7.699999999999932 15 18.399999999999977 15.199999999999989 11.299999999999955 0.30000000000001137 22.699999999999932 0.10000000000002274 34 0.10000000000002274z m135.69999999999993 0c11.900000000000091 0 23.90000000000009 0.2999999999999545 35.80000000000007-0.10000000000002274 11.100000000000023-0.30000000000001137 17.299999999999955-6.300000000000011 17.100000000000023-15.899999999999977-0.10000000000002274-9.100000000000023-6.300000000000068-15.300000000000011-16.800000000000068-15.5-23.899999999999977-0.30000000000001137-47.799999999999955-0.30000000000001137-71.60000000000002 0-10.799999999999955 0.19999999999998863-17.09999999999991 7-16.899999999999977 16.399999999999977 0.3000000000000682 8.800000000000011 6.7000000000000455 14.600000000000023 17.399999999999977 14.899999999999977 11.700000000000045 0.5 23.300000000000068 0.30000000000001137 35 0.20000000000004547z m-406.09999999999997 0c12.199999999999989 0 24.5 0.2999999999999545 36.69999999999999 0 10.200000000000045-0.30000000000001137 15.900000000000034-5.900000000000034 16.100000000000023-15 0.30000000000001137-9.800000000000011-5.199999999999989-16-15.899999999999977-16.200000000000045-24.100000000000023-0.39999999999997726-48.400000000000034-0.39999999999997726-72.60000000000002 0-10.400000000000006 0.10000000000002274-16.400000000000006 6.600000000000023-16.19999999999999 15.900000000000034 0.29999999999998295 9.300000000000011 6.299999999999983 15 16.899999999999977 15.300000000000011 11.600000000000023 0.19999999999998863 23.30000000000001 0 35 0z m338.3 20c-12 0-24-0.20000000000004547-35.89999999999998 0.0999999999999659-9.700000000000045 0.19999999999998863-16.200000000000045 6.300000000000011-16.399999999999977 14.900000000000034-0.3000000000000682 8.399999999999977 5.899999999999977 15.699999999999989 15.599999999999909 15.799999999999955 24.800000000000068 0.4000000000000341 49.700000000000045 0.4000000000000341 74.5 0 10.100000000000023-0.19999999999998863 15.5-6.599999999999966 15.300000000000068-15.799999999999955-0.20000000000004547-9.100000000000023-6-14.700000000000045-16.200000000000045-15-12.399999999999977-0.20000000000004547-24.600000000000023 0-36.89999999999998 0z m-203-19.900000000000034c11.600000000000023-0.0999999999999659 23.399999999999977 0.10000000000002274 35-0.0999999999999659 12.100000000000023-0.30000000000001137 18.30000000000001-5.900000000000034 18.30000000000001-15.800000000000011-0.10000000000002274-9.900000000000034-6.5-15.300000000000011-18.69999999999999-15.5-22.700000000000045-0.19999999999998863-45.400000000000034-0.30000000000001137-68.10000000000002-0.10000000000002274-11.5 0-18.69999999999999 6.600000000000023-18.5 16 0.30000000000001137 9.400000000000034 7 15.300000000000011 18 15.5 11.199999999999989 0.10000000000002274 22.600000000000023 0 34 0z m68.30000000000001 19.900000000000034c-11.600000000000023 0-23.30000000000001-0.10000000000002274-34.80000000000001 0-10.399999999999977 0.0999999999999659-18.30000000000001 6.599999999999966-18.5 15-0.19999999999998863 8.099999999999966 7 15.799999999999955 16.899999999999977 15.899999999999977 24.400000000000034 0.30000000000001137 48.900000000000034 0.30000000000001137 73.39999999999998-0.30000000000001137 10.5-0.30000000000001137 16.300000000000068-7.099999999999966 15.700000000000045-16.399999999999977-0.5-8.900000000000034-6.5-14.100000000000023-16.799999999999955-14.300000000000011-12 0-24.000000000000057 0.10000000000002274-35.900000000000034 0.10000000000002274z m-134.8 0c-12 0.0999999999999659-24-0.20000000000004547-35.89999999999998 0.19999999999998863-3.8000000000000114 0.0999999999999659-8.100000000000023 1-11.200000000000045 3.099999999999966-6.099999999999966 4-6.599999999999966 10.600000000000023-5.099999999999966 17.100000000000023 2.099999999999966 8.5 8.800000000000011 10.600000000000023 16.19999999999999 10.699999999999989 23.600000000000023 0.30000000000001137 47.19999999999999 0.30000000000001137 70.80000000000001 0 11.5-0.0999999999999659 17.099999999999966-5.699999999999989 16.899999999999977-16-0.19999999999998863-9.800000000000011-5.399999999999977-14.699999999999989-16.80000000000001-15-11.699999999999989-0.30000000000001137-23.299999999999955-0.0999999999999659-34.89999999999998-0.0999999999999659z m184.10000000000002 399c0 12.899999999999977-0.3000000000000682 25.699999999999932 0.1999999999999318 38.60000000000002 0.10000000000002274 3 2.7000000000000455 5.899999999999977 4.2000000000000455 8.699999999999932 2.1000000000000227-2.3999999999999773 5.7000000000000455-4.699999999999932 6-7.399999999999977 3.6000000000000227-26.100000000000023 6.600000000000023-52.200000000000045 10-78.29999999999995 0.7999999999999545-5.900000000000091-0.2999999999999545-9.600000000000023-7.399999999999977-8.900000000000091-6 0.6000000000000227-13.5-2.199999999999932-13 8.700000000000045 0.39999999999997726 12.799999999999955 0 25.700000000000045 0 38.60000000000002z m-88.90000000000003 0.7999999999999545c0-13.5-0.19999999999998863-26.899999999999977 0-40.39999999999998 0.19999999999998863-8.799999999999955-5.899999999999977-7.399999999999977-11.300000000000011-7.7000000000000455-6.5-0.2999999999999545-7.599999999999966 3.1000000000000227-7 8.700000000000045 2.7000000000000455 26.200000000000045 5.2000000000000455 52.299999999999955 8 78.39999999999998 0.30000000000001137 2.5 3.3000000000000114 4.899999999999977 5.100000000000023 7.300000000000068 1.6999999999999886-2.6000000000000227 4.899999999999977-5.2000000000000455 5-7.900000000000091 0.5-12.599999999999909 0.19999999999998863-25.5 0.19999999999998863-38.39999999999998z"/>
</svg>
