<svg xmlns="http://www.w3.org/2000/svg" viewBox="0 0 1000 1000" width="1000" height="1000">
<path d="M937.4 370.2c-0.39999999999997726-15.399999999999977-7.7999999999999545-22.69999999999999-23.699999999999932-23-12.400000000000091-0.30000000000001137-24.800000000000068 0.5-37.200000000000045-0.19999999999998863-17.799999999999955-1-29.899999999999977 5.199999999999989-37.10000000000002 21.69999999999999-2.7999999999999545 6.5-9.199999999999932 11.600000000000023-15.5 19.30000000000001-2.2999999999999545-7-3.5-10.199999999999989-4.399999999999977-13.600000000000023-14.700000000000045-48.69999999999999-33.89999999999998-95.59999999999997-59.10000000000002-140.2-10.699999999999932-18.899999999999977-26.100000000000023-32.099999999999994-47.299999999999955-38.599999999999994-10.700000000000045-3.1999999999999886-21.600000000000023-7.199999999999989-32.700000000000045-8.099999999999994-50.39999999999998-4.099999999999994-100.89999999999998-9-151.5-10.199999999999989-70-1.8000000000000114-140-0.8000000000000114-209.5 9.899999999999977-40 6.100000000000023-71.39999999999998 23.100000000000023-87.59999999999997 61.400000000000006-13 30.799999999999983-27.100000000000023 61.099999999999994-39.80000000000001 91.9-5.900000000000006 14.199999999999989-9.800000000000011 29.30000000000001-14.699999999999989 43.89999999999998l-3.4000000000000057 1.5c-5.200000000000017-7.199999999999989-11.300000000000011-13.899999999999977-15.5-21.599999999999966-5.599999999999994-10.400000000000034-13.300000000000011-17-25.400000000000006-17.19999999999999-16.400000000000006-0.30000000000001137-32.900000000000006-0.5-49.3 0.0999999999999659-12.900000000000006 0.4000000000000341-20.1 7.800000000000011-20.800000000000004 20.19999999999999-0.5 8.5-0.5 17-0.10000000000000142 25.5 0.7000000000000028 13.300000000000011 8.600000000000009 20.700000000000045 22.5 20.900000000000034 16.799999999999997 0.30000000000001137 33.60000000000001 0.0999999999999659 50.3 0.0999999999999659h28.200000000000017c-3.3000000000000114 3.5-4.5 5-6 6.300000000000011-25 22.5-42.500000000000014 50-51.10000000000001 81.60000000000002-17.700000000000003 64.49999999999994-9.100000000000009 127.69999999999999 15.700000000000003 189.09999999999997 6.799999999999983 16.800000000000068 20 28.700000000000045 37.099999999999994 35.89999999999998 6.199999999999989 2.6000000000000227 8.699999999999989 6.100000000000023 8.5 12.800000000000068-0.5 17.399999999999977-0.19999999999998863 34.799999999999955-0.19999999999998863 52.10000000000002 0 19.899999999999977 11.199999999999989 30.59999999999991 31.899999999999977 30.699999999999932 2.9000000000000057 0 5.900000000000006-0.10000000000002274 8.700000000000017 0 60.70000000000002 1.7000000000000455 65.1-1.5 63.29999999999998-61-0.0999999999999659-4.5 0-9 0-13 76.80000000000001 2 152.2 5.399999999999977 227.60000000000002 5.399999999999977 75.80000000000001 0 151.59999999999997-3.3999999999999773 228.99999999999994-5.399999999999977 0 14.800000000000068-0.09999999999990905 29.700000000000045 0 44.5 0.20000000000004547 18.100000000000023 11.600000000000023 29.300000000000068 29.90000000000009 29.399999999999977 14.199999999999932 0.20000000000004547 28.5 0.20000000000004547 42.69999999999993 0 19.899999999999977-0.1999999999999318 31.100000000000023-11 31.300000000000068-30.399999999999977 0.1999999999999318-17.699999999999932-0.3000000000000682-35.5 0.2999999999999545-53.19999999999993 0.10000000000002274-3.5 2.2999999999999545-9 5-10.100000000000023 28.700000000000045-11.800000000000068 43.39999999999998-34.700000000000045 49.60000000000002-62.30000000000007 6.699999999999932-29.899999999999977 11.699999999999932-60.5 14.399999999999977-91 5.2999999999999545-61.09999999999991-15.100000000000023-113.59999999999997-60.60000000000002-156.49999999999994-1.1000000000000227-1-1.7999999999999545-2.5-3.699999999999932-5.199999999999989h12.5c21.199999999999932 0 42.299999999999955 0.19999999999998863 63.5 0 16.299999999999955-0.20000000000004547 23.899999999999977-7.7000000000000455 24.299999999999955-23.700000000000045 0-6.199999999999989 0-13-0.10000000000002274-19.69999999999999z m-689.8-20.899999999999977c12.799999999999955-30.400000000000034 27.19999999999999-60.10000000000002 41.69999999999999-89.69999999999999 2.099999999999966-4.400000000000034 8-8.300000000000011 12.899999999999977-9.800000000000011 38-12.100000000000023 77.60000000000002-17.400000000000006 117.19999999999999-18 62.700000000000045-0.9000000000000057 125.39999999999998-0.700000000000017 188 2.299999999999983 30.600000000000023 1.4000000000000057 60.80000000000007 10 91.10000000000002 15.900000000000006 4.2999999999999545 0.8000000000000114 9.200000000000045 4.599999999999994 11.600000000000023 8.300000000000011 26.5 42 44.60000000000002 87.39999999999998 54.89999999999998 135.59999999999997 0.20000000000004547 1-0.10000000000002274 2-0.2999999999999545 4.400000000000034-176.4000000000001-23-352.70000000000005-23.19999999999999-531.5 0.30000000000001137 5.099999999999966-17.700000000000045 8.099999999999966-34.200000000000045 14.399999999999949-49.30000000000001z m-27.50000000000003 272.09999999999997c-30.099999999999994 0.10000000000002274-55.099999999999994-23.799999999999955-55.5-53-0.29999999999998295-29.5 25-54.299999999999955 55.400000000000006-54.19999999999993 29.900000000000006 0.09999999999990905 54.69999999999999 24.299999999999955 54.80000000000001 53.5 0.19999999999998863 29.199999999999932-24.80000000000001 53.59999999999991-54.70000000000002 53.69999999999993z m436-83.89999999999998c-7.300000000000068 23.299999999999955-14.800000000000068 46.60000000000002-22.100000000000023 70-2.5 8.200000000000045-7.100000000000023 12.100000000000023-16.5 12.100000000000023-78.39999999999998-0.20000000000004547-156.8-0.20000000000004547-235.2 0-8.699999999999989 0-13.600000000000023-3.5-16-11.300000000000068l-23.100000000000023-73c-3.8999999999999773-12.699999999999932 1-19 14.699999999999989-19 47.400000000000034-0.09999999999990905 94.80000000000001 0 142.20000000000005 0h140c16.600000000000023-0.09999999999990905 20.899999999999977 5.5 16 21.200000000000045z m123.39999999999998 83.89999999999998c-29.700000000000045-0.2999999999999545-54.60000000000002-25.100000000000023-54.299999999999955-54.10000000000002 0.2999999999999545-29 25.5-53.19999999999993 55.39999999999998-53 29.799999999999955 0.10000000000002274 55 24.800000000000068 54.799999999999955 53.60000000000002-0.1999999999999318 29.700000000000045-25.299999999999955 53.80000000000007-55.89999999999998 53.5z"/>
</svg>
