<svg xmlns="http://www.w3.org/2000/svg" viewBox="0 0 1000 1000" width="1000" height="1000">
<path d="M321.7 615c-42.599999999999966 0-77.1 34.5-77.1 77 0 42.60000000000002 34.50000000000003 77.10000000000002 77.1 77.10000000000002 42.5 0 77-34.5 77-77.10000000000002 0-42.5-34.599999999999966-77-77-77z m0 115.5c-21.30000000000001 0-38.599999999999966-17.299999999999955-38.599999999999966-38.60000000000002 0-21.100000000000023 17.299999999999955-38.5 38.599999999999966-38.5 21.100000000000023 0 38.5 17.300000000000068 38.5 38.5 0 21.300000000000068-17.30000000000001 38.60000000000002-38.5 38.60000000000002z m-66.29999999999998-115.5h-172.60000000000002c-6.799999999999983 0-12.399999999999977 5.5-12.399999999999977 12.399999999999977v37.5c0 6.800000000000068 5.5 12.399999999999977 12.399999999999991 12.399999999999977h138.3c3.599999999999966-24.799999999999955 16.099999999999966-46.59999999999991 34.29999999999998-62.299999999999955z m469.1 0c-42.5 0-77 34.5-77 77 0 42.60000000000002 34.5 77.10000000000002 77 77.10000000000002s77-34.5 77-77.10000000000002c-0.10000000000002274-42.5-34.5-77-77-77z m0 115.5c-21.299999999999955 0-38.5-17.299999999999955-38.5-38.60000000000002 0-21.100000000000023 17.200000000000045-38.5 38.5-38.5s38.5 17.300000000000068 38.5 38.5c-0.10000000000002274 21.300000000000068-17.299999999999955 38.60000000000002-38.5 38.60000000000002z m200.60000000000002-115.5h-30.100000000000023v-168.2c0-19.69999999999999-5.899999999999977-39-17-55.30000000000001l-75.29999999999995-111.60000000000002c-18.300000000000068-27.19999999999999-49.10000000000002-43.49999999999997-82-43.49999999999997h-116.80000000000007c-13.600000000000023 0-24.699999999999932 11-24.699999999999932 24.700000000000017v353.9h-191.10000000000002c18.099999999999966 15.700000000000045 30.599999999999966 37.5 34.099999999999966 62.39999999999998h201.8c7.100000000000023-49.10000000000002 49.39999999999998-87.10000000000002 100.5-87.10000000000002s93.39999999999998 38 100.60000000000002 87.10000000000002h100.10000000000002c6.899999999999977 0 12.399999999999977-5.600000000000023 12.399999999999977-12.399999999999977v-37.60000000000002c-0.10000000000002274-6.899999999999977-5.5-12.399999999999977-12.5-12.399999999999977z m-123.20000000000005-201.2h-154.19999999999993c-6.800000000000068 0-12.400000000000091-5.400000000000034-12.400000000000091-12.400000000000034v-85.5c0-6.7999999999999545 5.600000000000023-12.399999999999977 12.400000000000091-12.399999999999977h93.89999999999998c4.100000000000023 0 7.899999999999977 2 10.199999999999932 5.199999999999989l60.30000000000007 85.60000000000002c5.7999999999999545 8.199999999999989-0.20000000000004547 19.5-10.200000000000045 19.5z m-281.6 176.40000000000003h-432.99999999999994c-13.700000000000017 0-24.70000000000001-11.100000000000023-24.70000000000001-24.700000000000045v-111.39999999999998c0-13.700000000000045 11.100000000000001-24.700000000000045 24.699999999999996-24.700000000000045h432.99999999999994c13.700000000000045 0 24.700000000000045 11.100000000000023 24.700000000000045 24.700000000000045v111.39999999999998c0 13.600000000000023-11 24.700000000000045-24.700000000000045 24.700000000000045z m-259.79999999999995-197.90000000000003h-173.3c-13.699999999999989 0-24.69999999999999-11.100000000000023-24.69999999999999-24.69999999999999v-111.5c0-13.700000000000017 11.099999999999994-24.700000000000017 24.700000000000003-24.700000000000017h173.2c13.700000000000045 0 24.700000000000045 11.099999999999994 24.700000000000045 24.700000000000017v111.39999999999998c0.0999999999999659 13.699999999999989-11 24.80000000000001-24.600000000000023 24.80000000000001z m259.79999999999995 0h-173.19999999999993c-13.700000000000045 0-24.700000000000045-11.100000000000023-24.700000000000045-24.69999999999999v-111.40000000000003c0-13.699999999999989 11.100000000000023-24.69999999999999 24.700000000000045-24.69999999999999h173.19999999999993c13.700000000000045 0 24.700000000000045 11.099999999999994 24.700000000000045 24.69999999999999v111.40000000000003c0 13.599999999999966-11 24.69999999999999-24.700000000000045 24.69999999999999z"/>
</svg>
