<svg xmlns="http://www.w3.org/2000/svg" viewBox="0 0 1000 1000" width="1000" height="1000">
<path d="M908.5 598c9.399999999999977 6.100000000000023 18.100000000000023 7.399999999999977 28.899999999999977 6-5.5-27.600000000000023-23.799999999999955-43.39999999999998-46.10000000000002-54.799999999999955-22.199999999999932-11.400000000000091-46-16.100000000000023-70.79999999999995-11.400000000000091 0.8999999999999773-11.199999999999932 7.399999999999977-14.199999999999932 16.299999999999955-15.5 21.90000000000009-3.2999999999999545 21.90000000000009-3.599999999999909 21.90000000000009-26.499999999999943 0-19.19999999999999 0-19.19999999999999-16.200000000000045-24.400000000000034-3.2999999999999545-15.599999999999966-5.2999999999999545-31-9.899999999999977-45.39999999999998-19.899999999999977-61.69999999999999-53.30000000000007-115.80000000000001-89.60000000000002-168.2l-23.299999999999955-30.80000000000001c-16.100000000000023-23.30000000000001-38.700000000000045-30.69999999999999-65.10000000000002-30.599999999999994-72.89999999999998 0.19999999999998863-145.90000000000003-0.20000000000001705-218.8 0.19999999999998863-64.5 0.30000000000001137-129 0.30000000000001137-193.5 2.0999999999999943-34.5 1-68 9.400000000000006-98.5 27.200000000000017-41.900000000000006 24.5-65.30000000000001 60.49999999999997-64.50000000000001 111.9 0.6000000000000085 39.599999999999966 0.10000000000000853 79.19999999999999 0.10000000000000853 118.80000000000001v11.099999999999966h253.99999999999997v-193.89999999999998c0-17.5 5.2000000000000455-22.80000000000001 22.100000000000023-22.900000000000006 42.80000000000001-0.09999999999999432 85.60000000000002-0.09999999999999432 128.39999999999998 0 18.200000000000045 0.09999999999999432 24.400000000000034 6.700000000000017 24.400000000000034 25.400000000000006 0 115.69999999999999 0 231.5-0.10000000000002274 347.2 0 6.2999999999999545-0.30000000000001137 12.799999999999955-1.6999999999999886 19-2.8999999999999773 12.799999999999955-7.800000000000011 16.399999999999977-20.600000000000023 16.399999999999977-25.599999999999966 0-51.19999999999999 0.10000000000002274-76.89999999999998 0-16-0.10000000000002274-27.100000000000023-11.600000000000023-28.19999999999999-28.199999999999932-1-14.700000000000045-1.8000000000000114-29.40000000000009-4-43.90000000000009-3.1999999999999886-21-7.300000000000011-42.5-22.69999999999999-57.59999999999991-12.300000000000011-12-21.900000000000034-24.300000000000068-22.30000000000001-42.30000000000007h-252.4v39.30000000000007c-6.300000000000011 1.3999999999999773-11.600000000000009 2.599999999999909-16.900000000000006 3.699999999999932v42.200000000000045c17 5.2999999999999545 17 5.2999999999999545 17 23.600000000000023v107.5h634.3c0.6000000000000227-3.800000000000068 1.2000000000000455-7 1.6000000000000227-10.400000000000091 13.100000000000023-103.59999999999991 120.20000000000005-142.29999999999995 193.10000000000002-94.79999999999995z m-242.79999999999995-166c-16.200000000000045 0.10000000000002274-32.40000000000009 0-48.60000000000002 0-16.899999999999977 0-33.700000000000045 0.10000000000002274-50.5 0-12.300000000000068-0.10000000000002274-20.700000000000045-7.5-22.300000000000068-20.30000000000001-0.8999999999999773-6.899999999999977-0.6999999999999318-14-0.6999999999999318-21.099999999999966-0.10000000000002274-38.900000000000034-0.10000000000002274-77.80000000000001 0-116.70000000000005 0-17 5.600000000000023-22.899999999999977 22.100000000000023-22.99999999999997 28.199999999999932-0.20000000000001705 56.39999999999998 0.09999999999999432 84.5-0.09999999999999432 13.199999999999932-0.10000000000002274 23.799999999999955 5.800000000000011 25.09999999999991 23.5 3.300000000000068 44 8.900000000000091 87.89999999999998 13.200000000000045 131.8 1.7000000000000455 17.299999999999955-6.2000000000000455 25.799999999999955-22.799999999999955 25.899999999999977z m60-33.39999999999998c-7.800000000000068-41.700000000000045-15.5-83.40000000000003-23-125.10000000000002-1.900000000000091-10.800000000000011 6.7999999999999545-21 17.5-20.599999999999994 2.099999999999909 0.09999999999999432 4.7999999999999545 1.9000000000000057 6.099999999999909 3.700000000000017 31.40000000000009 44 59 90.39999999999998 80.30000000000007 140.59999999999997 0.39999999999997726 0.9000000000000341 0.2999999999999545 1.900000000000034 0.39999999999997726 3.8000000000000114-21 4.199999999999989-41.299999999999955 8.5-61.60000000000002 12.399999999999977-9.600000000000023 1.8000000000000114-17.699999999999932-4.199999999999989-19.699999999999932-14.799999999999955z m115.39999999999998 197c-59.700000000000045-3.7000000000000455-103.20000000000005 46.799999999999955-104.5 97.5-4.800000000000068 56.799999999999955 37.299999999999955 106.69999999999993 95.89999999999998 110.29999999999995 51.200000000000045 3.2000000000000455 99.29999999999995-35.5 104.60000000000002-95.39999999999998 5.100000000000023-58.700000000000045-36.700000000000045-108.60000000000002-96-112.39999999999998z m-4.100000000000023 137.79999999999995c-18 0.20000000000004547-32.60000000000002-14.799999999999955-32.799999999999955-33.60000000000002-0.20000000000004547-18.799999999999955 14.099999999999909-34 32.19999999999993-34.19999999999993 17.700000000000045-0.20000000000004547 32.700000000000045 15.100000000000023 32.89999999999998 33.60000000000002 0.10000000000002274 18.59999999999991-14.399999999999977 34.09999999999991-32.299999999999955 34.19999999999993z m-629.5 20.399999999999977c-17.400000000000006 0-31.30000000000001-14.099999999999909-31.30000000000001-31.5h-65.69999999999999c2.700000000000003 41.30000000000007 49.400000000000006 81.10000000000002 95.5 81.60000000000002 46.900000000000006 0.7000000000000455 94.10000000000002-38.19999999999993 98.60000000000002-81.60000000000002h-65.70000000000002c-0.09999999999999432 17.5-14.200000000000017 31.5-31.400000000000006 31.5z"/>
</svg>
