<svg xmlns="http://www.w3.org/2000/svg" viewBox="0 0 1000 1000" width="1000" height="1000">
<path d="M900.2 547.7c-60.40000000000009-99.50000000000006-146.80000000000007-157.50000000000006-265.20000000000005-163.80000000000007-5.2000000000000455-0.2999999999999545-12.899999999999977-6.899999999999977-14.399999999999977-12l-11.399999999999977-51.39999999999998c-2.1000000000000227-7.199999999999989-9-13-13.700000000000045-19.5-5 6.300000000000011-12.399999999999977 11.800000000000011-14.399999999999977 18.899999999999977-5.7000000000000455 21-9.100000000000023 42.5-13.800000000000068 65.20000000000005-21.199999999999932 0-40.69999999999993-0.9000000000000341-59.99999999999994 0.19999999999998863-38.19999999999999 2.1999999999999886-67.80000000000001 19.69999999999999-89.60000000000002 51.599999999999966-4 5.800000000000011-13.300000000000011 11.200000000000045-20.19999999999999 11.300000000000011-44 1-88.10000000000002 0.5-132.10000000000002 0.5h-121.99999999999997c-0.30000000000001137 22.30000000000001 7.599999999999994 31.69999999999999 30.19999999999999 34.80000000000001 71.5 9.800000000000011 142.50000000000003 23.100000000000023 213.79999999999998 34.299999999999955 12.700000000000045 2 19 7.2000000000000455 23.400000000000034 19.600000000000023 25.80000000000001 72.39999999999998 78 110.60000000000002 154.99999999999994 111.60000000000002 82.40000000000009 1.1000000000000227 164.80000000000007 0.8999999999999773 247.10000000000002-0.7999999999999545 28-0.5 56.30000000000007-5.2000000000000455 83.60000000000002-11.5 21.399999999999977-4.900000000000091 28.899999999999977-20.90000000000009 22.799999999999955-42.10000000000002-4.599999999999909-16.300000000000068-10.399999999999977-32.700000000000045-19.09999999999991-46.89999999999998z m-56.200000000000045-20.200000000000045c-53.89999999999998-0.7000000000000455-108.20000000000005 2-161.70000000000005-3.6000000000000227-56.5-5.899999999999977-88.29999999999995-45.5-105.69999999999993-97.29999999999995-3.8999999999999773-11.5 0.5-18.30000000000001 12.799999999999955-19.400000000000034 104.60000000000002-9.399999999999977 190 29.100000000000023 260.30000000000007 104.90000000000003 1.1999999999999318 1.3999999999999773 2.199999999999932 3 3.099999999999909 4.699999999999932 0.5 1.1000000000000227 0.6000000000000227 2.400000000000091 1.400000000000091 6.100000000000023-3.7000000000000455 1.8000000000000682-7 4.7000000000000455-10.200000000000045 4.600000000000023z m46.200000000000045 143.79999999999995c-133.80000000000007 0.10000000000002274-267.6 0-401.40000000000003-0.1999999999999318-14 0-26.19999999999999 2.6000000000000227-26.30000000000001 19.399999999999977-0.10000000000002274 17.399999999999977 12.800000000000011 18.799999999999955 26.399999999999977 18.799999999999955 67.20000000000005-0.09999999999990905 134.39999999999998-0.09999999999990905 201.60000000000002-0.09999999999990905v0.1999999999999318c66.60000000000002 0 133.20000000000005-0.10000000000002274 199.70000000000005 0.10000000000002274 13.799999999999955 0.10000000000002274 26.899999999999977-1.6000000000000227 27.399999999999977-18.200000000000045 0.5-17.59999999999991-12.700000000000045-20-27.399999999999977-20z m-609.3000000000001-328.99999999999994c89-5 177.90000000000003-10.5 266.9-15.400000000000034 13.100000000000023-0.6999999999999886 18.600000000000023-5.399999999999977 14.700000000000045-19.899999999999977-5.2999999999999545-0.5-10.700000000000045-1.3000000000000114-16.200000000000045-1.6000000000000227-36.299999999999955-2.099999999999966-72.69999999999993-4.199999999999989-108.99999999999994-6.199999999999989-55.10000000000002-3.099999999999966-110.30000000000001-6.399999999999977-165.5-9-5.800000000000011-0.19999999999998863-14.900000000000034 2.1000000000000227-17.30000000000001 6.199999999999989-13.199999999999989 23.400000000000034 1 47.400000000000034 26.399999999999977 45.900000000000034z m637.8000000000001-52.19999999999999c-56.90000000000009 3.599999999999966-113.90000000000009 6.599999999999966-170.9000000000001 9.799999999999955-40.5 2.3000000000000114-81.09999999999991 4.7000000000000455-122.19999999999993 7.100000000000023-0.8000000000000682 13.100000000000023 2.7999999999999545 19.399999999999977 16.299999999999955 20.100000000000023 87 4.599999999999966 174 10 261 14.799999999999955 35 1.900000000000034 34.39999999999998 1.400000000000034 34.5-33.799999999999955 0.10000000000002274-14.300000000000011-4.7999999999999545-18.900000000000034-18.699999999999932-18z m-822.7 203.89999999999998c-17.599999999999994-25.600000000000023-12.400000000000006-59.89999999999998 12.099999999999994-79.30000000000001 23-18.30000000000001 60.400000000000006-16.69999999999999 78.20000000000002 6.199999999999989 9.599999999999994 12.300000000000011 19.299999999999983 13.800000000000011 32.19999999999999 10.900000000000034-10.199999999999989-34.19999999999999-43.5-55.30000000000001-81.4-51.900000000000034-39.599999999999994 3.6000000000000227-70.6 34-74.1 72.70000000000005-3.6000000000000014 39.39999999999998 20.299999999999997 74.89999999999998 58.2 86.10000000000002 35.499999999999986 10.5 71.89999999999999-2.800000000000068 86.60000000000001-35.00000000000006-11.5 0.9000000000000341-23.400000000000006 2.1000000000000227-33 7.400000000000034-27.600000000000023 14.899999999999977-61.400000000000006 8.299999999999955-78.80000000000001-17.100000000000023z"/>
</svg>
