<svg xmlns="http://www.w3.org/2000/svg" viewBox="0 0 1000 1000" width="1000" height="1000">
<path d="M572.1 691.3c84-0.599999999999909 168-0.2999999999999545 252.5-0.2999999999999545-7.399999999999977-28.899999999999977-246.5-581.1-269.5-620.9v322.29999999999995c0 91.10000000000002-0.10000000000002274 182.20000000000005 0.10000000000002274 273.30000000000007 0 11.899999999999977-3.800000000000068 25.799999999999955 16.899999999999977 25.59999999999991z m32.10000000000002 27.40000000000009c-11.600000000000023-0.10000000000002274-23.5-1-27 13.699999999999932-5.400000000000091 22.300000000000068-17.800000000000068 42.80000000000007-18.90000000000009 67.20000000000005h214.80000000000007c-6-18.600000000000023-13.100000000000023-35.200000000000045-16.5-52.5-4.600000000000023-23.600000000000023-17-30.200000000000045-40.30000000000007-28.899999999999977-37.39999999999998 2.099999999999909-74.69999999999993 0.6999999999999318-112.09999999999991 0.5z m-135.30000000000007 77.29999999999995c5-31 5.400000000000034-685.3-0.0999999999999659-726.7-118.40000000000003 227.80000000000007-234 450.30000000000007-352.5 678.1 125.5-8.600000000000023 243.39999999999998-10.199999999999932 352.59999999999997 48.60000000000002z m93.60000000000002 32.89999999999998c-23.799999999999955 0.39999999999997726-32.799999999999955-4.7999999999999545-35-23.5v-187c0.39999999999997726-171.59999999999997 0.10000000000002274-343.2 0.10000000000002274-514.6999999999999 0-8.000000000000043-0.20000000000004547-15.900000000000048 0-23.90000000000005 0.2999999999999545-10.099999999999994-1.1000000000000227-17.799999999999997-14.5-17.199999999999996-11.400000000000034 0.5-12.5 7.100000000000001-12.5 15.699999999999996l-0.10000000000002274 23.900000000000006c0 226.40000000000003 0.10000000000002274 452.8-0.30000000000001137 679.1999999999999l-0.39999999999997726 19.800000000000068s1.599999999999966 27-21.80000000000001 27.09999999999991h-0.19999999999998863c-62.69999999999999-2.199999999999932-125.40000000000003 2-188.10000000000002-4.599999999999909-56.89999999999998-6-111.79999999999998-20.5-171.5-34.30000000000007 25.80000000000001 51.60000000000002 52.5 96.20000000000005 90.70000000000002 133.10000000000002 10.400000000000006 10.100000000000023 21 15.100000000000023 36 15.100000000000023 187.79999999999998-0.39999999999997726 375.70000000000005-0.39999999999997726 563.5-0.3000000000000682 11.700000000000045 0 21.800000000000068-0.2999999999999545 27.899999999999977-13.699999999999932 14.100000000000023-30.600000000000023 29.800000000000068-60.60000000000002 47.30000000000007-95.5-111.70000000000005 0.10000000000002274-216.5-1.1000000000000227-321.1 0.7999999999999545z"/>
</svg>
