<svg xmlns="http://www.w3.org/2000/svg" viewBox="0 0 1000 1000" width="1000" height="1000">
<path d="M386.7 599c-40.39999999999998 0-73 32.799999999999955-73 73.10000000000002s32.60000000000002 73 73 73 73-32.80000000000007 73-73c0.10000000000002274-40.39999999999998-32.599999999999966-73.10000000000002-73-73.10000000000002z m0 109.70000000000005c-20.19999999999999 0-36.5-16.40000000000009-36.5-36.5 0-20.200000000000045 16.30000000000001-36.5 36.5-36.5s36.5 16.299999999999955 36.5 36.5c0 20-16.30000000000001 36.5-36.5 36.5z m550.8-163.70000000000005v78c0 19.5-15.799999999999955 35.200000000000045-35.200000000000045 35.200000000000045h-37.69999999999993c-6.800000000000068-46.700000000000045-47.10000000000002-82.70000000000005-95.70000000000005-82.70000000000005-48.5 0-88.79999999999995 35.89999999999998-95.60000000000002 82.70000000000005h-190.99999999999994c-6.800000000000011-46.700000000000045-47.10000000000002-82.70000000000005-95.60000000000002-82.70000000000005-48.5 0-88.80000000000001 35.89999999999998-95.59999999999997 82.70000000000005h-47.10000000000002c-19.5 0-35.19999999999999-15.800000000000068-35.19999999999999-35.200000000000045v-78h728.7z m-168.5 54c-40.39999999999998 0-73.10000000000002 32.799999999999955-73.10000000000002 73.10000000000002s32.80000000000007 73 73.10000000000002 73 73-32.80000000000007 73-73c0-40.39999999999998-32.700000000000045-73.10000000000002-73-73.10000000000002z m0 109.70000000000005c-20.200000000000045 0-36.5-16.40000000000009-36.5-36.5 0-20.200000000000045 16.299999999999955-36.5 36.5-36.5 20.100000000000023 0 36.5 16.299999999999955 36.5 36.5 0 20-16.399999999999977 36.5-36.5 36.5z m154.60000000000002-242.30000000000007l-138.39999999999998-136.89999999999998c-8.800000000000068-8.699999999999989-20.700000000000045-13.600000000000023-33-13.600000000000023h-69.80000000000007v-26.19999999999999c0-19.5-15.699999999999932-35.19999999999999-35.19999999999993-35.19999999999999h-403.30000000000007c-19.399999999999977 0-35.19999999999999 15.699999999999989-35.19999999999999 35.19999999999999v5.5l-142.89999999999998 16.5 253.3 33-256.6 25.5 255.60000000000002 36.30000000000001-255.60000000000002 22.19999999999999 146.2 27.600000000000023v69.19999999999999h728.7v-25.69999999999999c0.09999999999990905-12.600000000000023-5.000000000000114-24.5-13.800000000000068-33.400000000000034z m-60.30000000000007 4.600000000000023h-134c-3 0-5.5-2.5-5.5-5.5v-103.39999999999998c0-3 2.5-5.5 5.5-5.5h25.5c1.400000000000091 0 2.800000000000068 0.5999999999999659 3.900000000000091 1.5l108.29999999999995 103.39999999999998c3.7000000000000455 3.3999999999999773 1.2000000000000455 9.5-3.7000000000000455 9.5z"/>
</svg>
