<svg xmlns="http://www.w3.org/2000/svg" viewBox="0 0 1000 1000" width="1000" height="1000">
<path d="M916.4 508.9l21.100000000000023-46.099999999999966h-230.70000000000005l-58.89999999999998-53.19999999999999h-330.9l-90-65.40000000000003-20.400000000000006-4.399999999999977 71.9 69.59999999999997h-71.9s0 29 108.4 25.200000000000045c51.5-4.600000000000023 91 102.5 42.5 96.39999999999998 0 0-171.1-0.6000000000000227-185.8 0.39999999999997726-28 1.8000000000000682-53.099999999999994 53.10000000000002-67.79999999999998 90.20000000000005-1-1-7.5-2-36.30000000000001 1.1999999999999318-7.299999999999997 3.6000000000000227-4.699999999999996 20.300000000000068-4.699999999999996 20.300000000000068-3.5 10.100000000000023 27.6 16.600000000000023 27.6 16.600000000000023h673.4s216.70000000000005-126 152.5-150.80000000000007z m-339.4-29.69999999999999h-45.799999999999955l-82.20000000000005-43.89999999999998h136.39999999999998l-8.399999999999977 43.89999999999998z m24.399999999999977 3.1999999999999886l8.100000000000023-47.299999999999955h17.5l55.700000000000045 47.299999999999955h-81.30000000000007z m153.30000000000007 19.600000000000023l-4.5 0.10000000000002274-30.600000000000023-27.600000000000023h47.299999999999955l-12.199999999999932 27.5z m57.69999999999993-0.5c-13.899999999999977-0.10000000000002274-29 0.10000000000002274-44.89999999999998 0.39999999999997726l11.5-26.69999999999999h45l-11.600000000000023 26.30000000000001z m48.39999999999998 0.6999999999999886c-10.699999999999932-0.30000000000001137-22.699999999999932-0.5-35.59999999999991-0.8000000000000114l11.699999999999932-27.099999999999966h36l-12.100000000000023 27.899999999999977z m12.300000000000068 0.6000000000000227l12.399999999999977-28.400000000000034h33.89999999999998l-14.5 31.600000000000023c-7.899999999999977-1.5-18.799999999999955-2.5-31.799999999999955-3.1999999999999886z"/>
</svg>
