<svg xmlns="http://www.w3.org/2000/svg" viewBox="0 0 1000 1000" width="1000" height="1000">
<path d="M235.7 777.7h138.3c13.300000000000011 0 24.100000000000023-10.800000000000068 24.100000000000023-24.100000000000023v-32.5c0-13.300000000000068 10.799999999999955-24.100000000000023 24.099999999999966-24.100000000000023 54.30000000000001 0 181.90000000000003 0 181.90000000000003 0.10000000000002274v56.39999999999998c0 13.299999999999955 10.799999999999955 24.100000000000023 24.100000000000023 24.100000000000023h138.29999999999995c13.299999999999955 0 24.100000000000023-10.800000000000068 24.100000000000023-24.100000000000023v-466.1c0-13.299999999999955-10.800000000000068-24.099999999999966-24.100000000000023-24.099999999999966h-104l19.200000000000045-175.5c1.5-13.200000000000017-3.2000000000000455-24.60000000000001-10.600000000000023-25.400000000000013-7.399999999999977-0.7999999999999972-14.399999999999977 9.300000000000004-15.800000000000068 22.500000000000007l-1 9.099999999999994c-1.099999999999909-0.20000000000000284-2.199999999999932-0.5999999999999943-3.2999999999999545-0.5999999999999943h-286.6c-6.199999999999989 0-11.599999999999966 2.299999999999997-15.899999999999977 5.699999999999989l-1.6999999999999886-14.099999999999994c-1.5-13.200000000000003-8.5-23.299999999999997-15.800000000000011-22.5-7.300000000000011 0.7999999999999972-12 12.200000000000003-10.5 25.400000000000006l19.30000000000001 175.49999999999997h-104.10000000000002c-13.299999999999983 0-24.099999999999994 10.800000000000011-24.099999999999994 24.100000000000023v466.1c0 13.199999999999932 10.800000000000011 24.100000000000023 24.099999999999994 24.100000000000023z m104.80000000000001-81.10000000000002c-29.399999999999977 0-53.30000000000001-23.899999999999977-53.30000000000001-53.200000000000045s23.900000000000034-53.19999999999993 53.30000000000001-53.19999999999993c29.30000000000001 0 53.19999999999999 23.799999999999955 53.19999999999999 53.19999999999993 0 29.300000000000068-23.899999999999977 53.200000000000045-53.19999999999999 53.200000000000045z m328 4.199999999999932c-29.5 0-53.200000000000045-23.799999999999955-53.200000000000045-53.19999999999993 0-29.300000000000068 23.800000000000068-53.200000000000045 53.200000000000045-53.200000000000045 29.299999999999955 0 53.299999999999955 23.899999999999977 53.299999999999955 53.200000000000045-0.09999999999990905 29.399999999999977-24 53.19999999999993-53.299999999999955 53.19999999999993z m87.39999999999998-356.79999999999995v97.89999999999998c0 13.300000000000011-10.799999999999955 24.100000000000023-24.100000000000023 24.100000000000023h-196c-13.299999999999955 0-24.099999999999966-10.800000000000011-24.099999999999966-24.100000000000023v-97.89999999999998c0-13.300000000000011 10.800000000000011-24.100000000000023 24.099999999999966-24.100000000000023h196c13.400000000000091 0 24.100000000000023 10.800000000000011 24.100000000000023 24.100000000000023z m-391.59999999999997-206.9h285.09999999999997l-4.600000000000023 42.400000000000006c-2.2999999999999545-0.5999999999999943-4.599999999999909-1.3000000000000114-7.199999999999932-1.3000000000000114h-273.3c-2.5 0-4.800000000000011 0.6000000000000227-7.199999999999989 1.3000000000000114l-5-45.900000000000006c3.6999999999999886 2 7.699999999999989 3.5 12.199999999999989 3.5z m0.6999999999999886 113.80000000000001l-3.1999999999999886-29.599999999999994c0.8999999999999773 0.09999999999999432 1.6999999999999886 0.5 2.5 0.5h273.3c0.8999999999999773 0 1.6999999999999318-0.4000000000000057 2.5-0.5l-3.2000000000000455 29.599999999999994c-0.5 4.599999999999994-2.6000000000000227 8.799999999999983-5.399999999999977 12.499999999999972h-261.1c-2.7999999999999545-3.6999999999999886-4.899999999999977-7.799999999999983-5.399999999999977-12.499999999999972z m-119 93.1c0-13.300000000000011 10.800000000000011-24.100000000000023 24.100000000000023-24.100000000000023h196c13.299999999999955 0 24.099999999999966 10.800000000000011 24.099999999999966 24.100000000000023v97.89999999999998c0 13.300000000000011-10.800000000000011 24.100000000000023-24.099999999999966 24.100000000000023h-196c-13.300000000000011 0-24.100000000000023-10.800000000000011-24.100000000000023-24.100000000000023v-97.89999999999998z m554.1 463.20000000000005h-172.10000000000002c-13.299999999999955 0-24.100000000000023 10.799999999999955-24.100000000000023 24.09999999999991v2.900000000000091c0 13.299999999999955-10.799999999999955 24.09999999999991-24.100000000000023 24.09999999999991h-157.79999999999995c-13.300000000000011 0-24.100000000000023-10.799999999999955-24.100000000000023-24.09999999999991v-2.900000000000091c0-13.299999999999955-10.799999999999955-24.09999999999991-24.099999999999966-24.09999999999991h-172c-13.300000000000011 0-24.100000000000023 10.799999999999955-24.100000000000023 24.09999999999991v17.700000000000045c0 13.299999999999955 10.800000000000011 24.100000000000023 24.100000000000023 24.100000000000023h10.199999999999989c-0.09999999999999432 0.6999999999999318-0.4000000000000057 1.2999999999999545-0.4000000000000057 2v38.299999999999955c0 13.300000000000068 10.800000000000011 24.100000000000023 24.099999999999994 24.100000000000023h45.10000000000002c13.300000000000011 0 24.099999999999966-10.799999999999955 24.099999999999966-24.100000000000023v-38.299999999999955l-0.39999999999997726-2h393.20000000000005c-0.10000000000002274 0.6999999999999318-0.40000000000009095 1.2999999999999545-0.40000000000009095 2v38.299999999999955c0 13.300000000000068 10.800000000000068 24.100000000000023 24.100000000000023 24.100000000000023h45.10000000000002c13.299999999999955 0 24.100000000000023-10.799999999999955 24.100000000000023-24.100000000000023v-38.299999999999955l-0.39999999999997726-2h9.799999999999955c13.299999999999955 0 24.100000000000023-10.800000000000068 24.100000000000023-24.100000000000023v-17.799999999999955c0-13.300000000000068-10.700000000000045-24-24-24z m-378-29.5c-13.300000000000011 0-24.100000000000023 6.699999999999932-24.100000000000023 14.799999999999955s10.800000000000011 14.799999999999955 24.100000000000023 14.799999999999955h157.79999999999995c13.300000000000068 0 24.100000000000023-6.699999999999932 24.100000000000023-14.799999999999955 0-8.100000000000023-10.799999999999955-14.799999999999955-24.100000000000023-14.799999999999955h-157.79999999999995z m437.1-384.80000000000007h-29.300000000000068c-13.299999999999955 0-24.100000000000023 10.800000000000011-24.100000000000023 24.100000000000023v95.70000000000005c0 13.299999999999955 10.800000000000068 24.09999999999991 24.100000000000023 24.09999999999991h29.300000000000068c13.299999999999955 0 24.09999999999991-10.799999999999955 24.09999999999991-24.09999999999991v-95.70000000000005c0.10000000000002274-13.399999999999977-10.799999999999955-24.100000000000023-24.09999999999991-24.100000000000023z m-665.4000000000001 119.80000000000007v-95.70000000000005c5.684341886080802e-14-13.300000000000011-10.799999999999955-24.100000000000023-24.099999999999966-24.100000000000023h-29.399999999999977c-13.300000000000011 0-24.10000000000001 10.800000000000011-24.10000000000001 24.100000000000023v95.70000000000005c0 13.299999999999955 10.799999999999997 24.09999999999991 24.10000000000001 24.09999999999991h29.299999999999983c13.300000000000011 0 24.200000000000017-10.799999999999955 24.200000000000017-24.09999999999991z"/>
</svg>
