<svg xmlns="http://www.w3.org/2000/svg" viewBox="0 0 1000 1000" width="1000" height="1000">
<path d="M796.7 505.1c-10.600000000000023 0-21 1.2999999999999545-30.90000000000009 3.5l-17.399999999999977-51.80000000000001c54.30000000000007-27.600000000000023 99.10000000000002-27.19999999999999 99.10000000000002-27.19999999999999l16.899999999999977 9.199999999999989 56 4.399999999999977c-33.60000000000002-39.19999999999999-166.69999999999993-32.19999999999999-166.69999999999993-32.19999999999999l28.399999999999977-4.800000000000011s-1-30.5-18.5-68.09999999999997c-17.5-37.5-36.60000000000002-59.5-36.60000000000002-59.5-1.7999999999999545 2-2.8999999999999773 4.399999999999977-3.7999999999999545 6.7999999999999545 0.2999999999999545-25.899999999999977 0.6999999999999318-51.69999999999999 2.699999999999932-77.49999999999997l-0.1999999999999318-0.9000000000000057c0.599999999999909-2.6999999999999886-0.20000000000004547-5.5-3.400000000000091-7.099999999999994-10.399999999999977-5-20.699999999999932-9.400000000000006-32.39999999999998-10-3.199999999999932-0.09999999999999432-6.100000000000023 2.299999999999983-7 5.299999999999983-3.699999999999932 13.400000000000006-4.699999999999932 27.5-3.1000000000000227 41.30000000000001-1.099999999999909-2.3000000000000114-2.199999999999932-4.599999999999994-3.5-6.900000000000006-2-3.5-5.399999999999977-4.099999999999994-8.299999999999955-3-3.2999999999999545-0.5999999999999943-7 0.700000000000017-8.5 4.599999999999994-2.2999999999999545 6.5-7.399999999999977 10.800000000000011-7.7999999999999545 18.30000000000001-0.40000000000009095 11.699999999999989 13.199999999999932 19.399999999999977 21.899999999999977 24.100000000000023 1.6000000000000227 0.8999999999999773 3.199999999999932 1 4.7999999999999545 0.6999999999999886 4.300000000000068 17.19999999999999 5.600000000000023 35 4.600000000000023 53.19999999999999-26.299999999999955 17-16.200000000000045 32.60000000000002-16.200000000000045 32.60000000000002l-4.7999999999999545 7.899999999999977s-24.799999999999955-35.19999999999999-106 17.19999999999999-145.10000000000002 19.100000000000023-198.5 0c-53.5-19.099999999999966-250.1-23.80000000000001-250.1-23.80000000000001 96.69999999999999 14.600000000000023 139.4 94.10000000000002 139.4 94.10000000000002l-76.30000000000001-47.10000000000002c-33.80000000000001 3.2000000000000455-24.80000000000001 38.80000000000001-24.80000000000001 38.80000000000001l140.7 85.90000000000003c27.400000000000034-10.200000000000045 58.5 20.299999999999955 58.5 20.299999999999955l29.30000000000001 51.60000000000002-40.099999999999966 11.5c-20.80000000000001-51.799999999999955-71.40000000000003-88.39999999999998-130.60000000000002-88.39999999999998-77.8 0-140.9 63-140.9 140.79999999999995s63 140.80000000000007 140.9 140.80000000000007c77.69999999999999 0 140.8-63 140.8-140.80000000000007 0-4.899999999999977-0.19999999999998863-9.699999999999932-0.6999999999999886-14.399999999999977l56.69999999999999-10s1.8999999999999773-2.5 15.899999999999977 11.5c6 6 14.100000000000023 6.7000000000000455 21.5 5.7999999999999545 13.199999999999989 4.5 43.10000000000002 13 77.50000000000006 13 26.799999999999955 0 56.19999999999993-5.199999999999932 82.59999999999991-21.59999999999991 40.200000000000045-25.100000000000023 63.90000000000009-70.60000000000002 71-135.10000000000002 17.700000000000045-19.5 36.200000000000045-34.700000000000045 54.200000000000045-46.60000000000002l15.5 46.200000000000045c-48.799999999999955 22.199999999999932-82.70000000000005 71.09999999999991-82.70000000000005 128.0999999999999 0 77.80000000000007 63 140.9000000000001 140.9000000000001 140.9000000000001 77.69999999999993 0 140.79999999999995-63.10000000000002 140.79999999999995-140.9000000000001 0-77.69999999999993-63.10000000000002-140.69999999999993-140.79999999999995-140.69999999999993z m-593.4000000000001 261.5c-53.799999999999955 0-97.59999999999995-43.80000000000007-97.59999999999995-97.60000000000002s43.8-97.60000000000002 97.7-97.60000000000002c39.29999999999998 0 73.29999999999998 23.399999999999977 88.70000000000002 57.10000000000002l-105.70000000000002 30.200000000000045 3.799999999999983 22.799999999999955 110.5-19.399999999999977c0.19999999999998863 2.199999999999932 0.30000000000001137 4.600000000000023 0.30000000000001137 6.899999999999977-0.10000000000002274 53.799999999999955-43.89999999999998 97.60000000000002-97.69999999999999 97.60000000000002z m379.20000000000005-137.89999999999998c-42.700000000000045 26.699999999999932-98.69999999999999 16.299999999999955-125.60000000000002 8.799999999999955 3-39.5 17.200000000000045-129.89999999999998 86.39999999999998-150.8 67.10000000000002-20.099999999999966 89.90000000000009 10.199999999999989 97.10000000000002 26.400000000000034-6 56.19999999999993-25.199999999999932 95.29999999999995-57.89999999999998 115.60000000000002z m125.70000000000005-313.50000000000006c-3.800000000000068 1.5-7.300000000000068 2.900000000000034-10.5 4.300000000000011 0.39999999999997726-19.30000000000001-2-38.10000000000002-7.300000000000068-56.19999999999999 2.1000000000000227 0.30000000000001137 4.2000000000000455-0.19999999999998863 6.300000000000068-1.6999999999999886 4.399999999999977-3.5 8.599999999999909-6.800000000000011 12.699999999999932-10.300000000000011-0.6000000000000227 21.19999999999999-0.7999999999999545 42.5-1.1999999999999318 63.89999999999998z m88.5 428.3c-53.80000000000007 0-97.70000000000005-43.799999999999955-97.70000000000005-97.60000000000002 0-37.89999999999998 21.799999999999955-70.60000000000002 53.299999999999955-86.79999999999995l30.700000000000045 91.39999999999998c2 6 7.7000000000000455 9.799999999999955 13.700000000000045 9.799999999999955 1.5 0 3-0.2999999999999545 4.599999999999909-0.6999999999999318 7.5-2.5 11.600000000000023-10.700000000000045 9.100000000000023-18.300000000000068l-30.699999999999932-91.39999999999998c5.5-1 11.199999999999932-1.6000000000000227 17-1.6000000000000227 53.799999999999955 0 97.59999999999991 43.80000000000007 97.59999999999991 97.60000000000002-0.09999999999990905 53.80000000000007-43.89999999999998 97.60000000000002-97.59999999999991 97.60000000000002z m-321.80000000000007-115.79999999999995c127.89999999999998 23.799999999999955 148-89.70000000000005 148-89.70000000000005h-127l-21 89.70000000000005z"/>
</svg>
