<svg xmlns="http://www.w3.org/2000/svg" viewBox="0 0 1000 1000" width="1000" height="1000">
<path d="M826 692.4c-16.299999999999955-46.10000000000002-28.899999999999977-94.19999999999993-50.60000000000002-137.69999999999993-75.69999999999993-151.70000000000005-185-274.00000000000006-331.5-361.20000000000005-12.599999999999966-7.5-17.5-15.599999999999994-16.5-30.099999999999994 1.3000000000000114-18.80000000000001 0.30000000000001137-37.7 0.30000000000001137-56.2-17.69999999999999 16.799999999999997-31.69999999999999 31.700000000000003-47.39999999999998 44.7-24.30000000000001 20.19999999999999-49.69999999999999 39.099999999999994-74.60000000000002 58.599999999999994l-26.69999999999999 20.900000000000006 2.3999999999999773 4c44.200000000000045-9.599999999999994 88.40000000000003-19.30000000000001 136.5-29.700000000000017-2 32.20000000000002 3.3000000000000114 64-6.7999999999999545 90-66.10000000000002 170.90000000000003-151.60000000000002 331.59999999999997-267.1 475.2-5.5 6.800000000000068-10.5 14.100000000000023-18.099999999999994 24.399999999999977 236.70000000000002-27.299999999999955 468.70000000000005-54.09999999999991 702.6-81-0.7999999999999545-8.5-0.2999999999999545-15.699999999999932-2.5-21.899999999999977z m-396.5 47.80000000000007v-528.4000000000001c38.60000000000002 175.80000000000007 59.60000000000002 352.1 0 528.4000000000001z m-367 90.89999999999998c7.599999999999994 17.100000000000023 14.599999999999994 30.699999999999932 19.599999999999994 45 4.5 12.899999999999977 12.400000000000006 16.199999999999932 25.30000000000001 16.199999999999932 201.70000000000002-0.39999999999997726 403.4-1.6999999999999318 605.1 0.6000000000000227 48.200000000000045 0.6000000000000227 87.39999999999998-13.899999999999977 124.29999999999995-41.39999999999998 10.700000000000045-8 21.800000000000068-15.5 31.800000000000068-24.399999999999977 28.5-25.200000000000045 54.10000000000002-52.700000000000045 68.89999999999998-93.39999999999998-293.4 32.69999999999993-582.5 64.89999999999998-875 97.39999999999998z"/>
</svg>
