<svg xmlns="http://www.w3.org/2000/svg" viewBox="0 0 1000 1000" width="1000" height="1000">
<path d="M937.5 546v79.5c0 19.799999999999955-16.100000000000023 35.89999999999998-35.89999999999998 35.89999999999998h-38.39999999999998c-6.900000000000091-47.69999999999993-48-84.29999999999995-97.60000000000002-84.29999999999995-49.39999999999998 0-90.5 36.60000000000002-97.5 84.29999999999995h-326.6c-6.899999999999977-47.69999999999993-48-84.29999999999995-97.5-84.29999999999995s-90.5 36.60000000000002-97.5 84.29999999999995h-48c-19.799999999999997 0-35.9-16.100000000000023-35.9-35.89999999999998v-79.5h874.9z m-627.6-192h-20.5l-7.5 38.80000000000001h19.900000000000034c13.300000000000011 0 24.30000000000001-9.100000000000023 24.30000000000001-24.30000000000001 0.0999999999999659-9.199999999999989-6-14.5-16.200000000000045-14.5z m530.2 321.70000000000005c0 41.09999999999991-33.39999999999998 74.5-74.5 74.5-41.200000000000045 0-74.60000000000002-33.40000000000009-74.60000000000002-74.5 0-41.200000000000045 33.39999999999998-74.60000000000002 74.60000000000002-74.60000000000002 41.10000000000002 0 74.5 33.39999999999998 74.5 74.60000000000002z m-37.200000000000045 0c0-20.600000000000023-16.799999999999955-37.200000000000045-37.19999999999993-37.200000000000045-20.600000000000023 0-37.200000000000045 16.600000000000023-37.200000000000045 37.200000000000045 0 20.5 16.600000000000023 37.19999999999993 37.200000000000045 37.19999999999993 20.399999999999977 0 37.19999999999993-16.799999999999955 37.19999999999993-37.19999999999993z m-484.4 0c0 41.09999999999991-33.30000000000001 74.5-74.5 74.5s-74.5-33.40000000000009-74.5-74.5c0-41.200000000000045 33.30000000000001-74.60000000000002 74.5-74.60000000000002s74.5 33.39999999999998 74.5 74.60000000000002z m-37.19999999999999 0c0-20.600000000000023-16.600000000000023-37.200000000000045-37.20000000000002-37.200000000000045s-37.19999999999999 16.600000000000023-37.19999999999999 37.200000000000045c0 20.5 16.599999999999994 37.19999999999993 37.19999999999999 37.19999999999993s37.20000000000002-16.799999999999955 37.20000000000002-37.19999999999993z m656.2-149.60000000000002h-875v-240.40000000000003c0-19.899999999999977 16.200000000000003-35.89999999999998 35.900000000000006-35.89999999999998h542.9c19.90000000000009 0 35.90000000000009 16.099999999999966 35.90000000000009 35.89999999999998v26.69999999999999h71.29999999999995c12.600000000000023 0 24.700000000000045 5 33.60000000000002 13.900000000000034l141.19999999999993 139.59999999999997c9 9 14.100000000000023 21.200000000000045 14.100000000000023 34l0.10000000000002274 26.200000000000045z m-747.5-136.90000000000003l6.599999999999994-35.19999999999999h49l3.700000000000017-19.399999999999977h-71.20000000000002l-24.099999999999994 124.19999999999999h22.400000000000006l9.799999999999983-50.19999999999999h41.30000000000001l3.6999999999999886-19.400000000000034h-41.19999999999999z m131 17.30000000000001v-0.30000000000001137c18.69999999999999-6.099999999999966 28.30000000000001-24.5 28.30000000000001-41.39999999999998 0-12.800000000000011-6.300000000000011-22.400000000000034-16.80000000000001-26.900000000000034-5.100000000000023-2.2999999999999545-11.199999999999989-3.099999999999966-17.80000000000001-3.099999999999966h-43.89999999999998l-24.100000000000023 124.09999999999997h22.5l8.900000000000034-46.299999999999955h22.399999999999977l15.699999999999989 46.299999999999955h24.100000000000023l-16.600000000000023-46c-1.5-4.599999999999966-2.6999999999999886-6.399999999999977-2.6999999999999886-6.399999999999977z m137.7-71.89999999999998h-74.09999999999997l-24.30000000000001 124.19999999999999h77.09999999999997l3.7000000000000455-19.400000000000034h-54.5l6.399999999999977-33.39999999999998h41.80000000000001l3.8000000000000114-19.399999999999977h-41.80000000000001l6.300000000000011-32.5h51.799999999999955l3.8000000000000114-19.5z m100.19999999999999 0h-74.09999999999997l-24.30000000000001 124.19999999999999h77.10000000000002l3.699999999999932-19.400000000000034h-54.49999999999994l6.5-33.39999999999998h41.80000000000001l3.7999999999999545-19.399999999999977h-41.89999999999998l6.300000000000011-32.5h51.69999999999999l3.8999999999999773-19.5z m306.70000000000005 126.29999999999995l-110.5-105.5c-1.1000000000000227-1-2.5-1.599999999999966-3.8999999999999773-1.599999999999966h-26c-3.1000000000000227 0-5.600000000000023 2.5-5.600000000000023 5.599999999999966v105.5c0 3.1000000000000227 2.5 5.600000000000023 5.600000000000023 5.600000000000023h136.5999999999999c5 0.10000000000002274 7.5-6.199999999999989 3.800000000000068-9.600000000000023z"/>
</svg>
