<svg xmlns="http://www.w3.org/2000/svg" viewBox="0 0 1000 1000" width="1000" height="1000">
<path d="M96.8 629.5v3c0 15.399999999999977 10.299999999999997 28.5 24.5 32.60000000000002 11.500000000000014-29.899999999999977 40.500000000000014-51.10000000000002 74.3-51.10000000000002 34.400000000000006 0 63.70000000000002 21.899999999999977 74.9 52.5h373.1v-70.89999999999998h-512.9000000000001c-18.799999999999926 0-33.899999999999935 15.100000000000023-33.899999999999935 33.89999999999998z m96.2-3c-32.69999999999999 0-59.19999999999999 26.600000000000023-59.19999999999999 59.200000000000045 0 32.69999999999993 26.599999999999994 59.19999999999993 59.19999999999999 59.19999999999993 32.69999999999999 0 59.19999999999999-26.600000000000023 59.19999999999999-59.19999999999993s-26.5-59.200000000000045-59.19999999999999-59.200000000000045z m0 100.39999999999998c-22.69999999999999 0-41.099999999999994-18.5-41.099999999999994-41.10000000000002s18.400000000000006-41.09999999999991 41.099999999999994-41.09999999999991 41.099999999999994 18.5 41.099999999999994 41.09999999999991-18.400000000000006 41.10000000000002-41.099999999999994 41.10000000000002z m660.7-346.5c-6.900000000000091-9.199999999999989-16.40000000000009-11.299999999999955-22.600000000000023-11.299999999999955h-149.10000000000002c-6.2999999999999545 0-11.299999999999955 5.099999999999966-11.299999999999955 11.299999999999955v269.1c0 6.2999999999999545 5.099999999999909 11.299999999999955 11.299999999999955 11.299999999999955h39.89999999999998c12.600000000000023-27.5 40.30000000000007-46.799999999999955 72.5-46.799999999999955s60 19.299999999999955 72.5 46.799999999999955h59.200000000000045c6.2999999999999545 0 11.299999999999955-5.099999999999909 11.299999999999955-11.299999999999955v-134l-83.69999999999993-135.10000000000002z m19.699999999999932 117h-158.19999999999993c-6.300000000000068 0-11.300000000000068-5.099999999999966-11.300000000000068-11.299999999999955v-84.5c0-6.300000000000011 5-11.300000000000011 11.300000000000068-11.300000000000011h92.5c17.299999999999955 0 22.09999999999991 4 26 11.300000000000011l51 84.5c0 6.2999999999999545-5.100000000000023 11.299999999999955-11.300000000000068 11.299999999999955z m55.39999999999998 137.39999999999998c0 5.800000000000068-4.699999999999932 10.600000000000023-10.599999999999909 10.600000000000023-5.800000000000068 0-10.600000000000023-4.7999999999999545-10.600000000000023-10.600000000000023v-20c0-5.7999999999999545 4.699999999999932-10.599999999999909 10.600000000000023-10.599999999999909 5.7999999999999545 0 10.599999999999909 4.7999999999999545 10.599999999999909 10.599999999999909v20z m-137-8.299999999999955c-32.69999999999993 0-59.19999999999993 26.600000000000023-59.19999999999993 59.200000000000045 0 32.69999999999993 26.5 59.19999999999993 59.19999999999993 59.19999999999993s59.200000000000045-26.600000000000023 59.200000000000045-59.19999999999993c0.10000000000002274-32.60000000000002-26.399999999999977-59.200000000000045-59.200000000000045-59.200000000000045z m0.10000000000002274 100.39999999999998c-22.699999999999932 0-41.10000000000002-18.5-41.10000000000002-41.10000000000002s18.5-41.09999999999991 41.10000000000002-41.09999999999991 41.10000000000002 18.299999999999955 41.10000000000002 41-18.399999999999977 41.19999999999993-41.10000000000002 41.19999999999993z m-713.8-151.60000000000002h549.9c8.600000000000023 0 15.600000000000023-7 15.600000000000023-15.599999999999909v-289.6c0-8.600000000000023-7-15.600000000000023-15.600000000000023-15.600000000000023h-549.9c-8.600000000000023 0-15.600000000000023 7-15.600000000000023 15.600000000000023v289.6c0 8.599999999999909 7 15.599999999999909 15.599999999999994 15.599999999999909z"/>
</svg>
