<svg xmlns="http://www.w3.org/2000/svg" viewBox="0 0 1000 1000" width="1000" height="1000">
<path d="M348.4 114.6c0-28.799999999999997 23.400000000000034-52.199999999999996 52.200000000000045-52.199999999999996 24 0 43.89999999999998 16.300000000000004 50.099999999999966 38.199999999999996l2.1000000000000227-0.19999999999998863c21.599999999999966 0 39.19999999999999 17.599999999999994 39.19999999999999 39.19999999999999 0 5.300000000000011-1.1000000000000227 10.300000000000011-3 14.900000000000006 13.399999999999977 0 24.299999999999955 10.900000000000006 24.299999999999955 24.30000000000001s-10.899999999999977 24.299999999999983-24.299999999999955 24.299999999999983c-13.5 0-24.30000000000001-10.900000000000006-24.30000000000001-24.299999999999983l0.19999999999998863-2.1000000000000227c-3.8999999999999773 1.200000000000017-7.899999999999977 2.1000000000000227-12.199999999999989 2.1000000000000227-13 0-24.599999999999966-6.5-31.69999999999999-16.400000000000006-6.300000000000011 2.5999999999999943-13.199999999999989 4.199999999999989-20.399999999999977 4.199999999999989-28.900000000000034 0.09999999999999432-52.200000000000045-23.19999999999999-52.200000000000045-52z m23.700000000000045 258.20000000000005h-71.40000000000003c-12.5-5.684341886080802e-14-22.69999999999999 10.199999999999932-22.69999999999999 22.699999999999932v151.79999999999995l222-106.29999999999995 222.10000000000002 106.29999999999995v-151.79999999999995c0-12.5-10.200000000000045-22.69999999999999-22.700000000000045-22.69999999999999h-327.29999999999995z m255.89999999999998-22.60000000000008v-13.899999999999977c0-12.5-10.200000000000045-22.69999999999999-22.700000000000045-22.69999999999999h-55.09999999999991l-9.900000000000091-90.20000000000002h-80.69999999999993l-9.900000000000034 90.20000000000002h-55c-12.5 0-22.69999999999999 10.199999999999989-22.69999999999999 22.69999999999999v13.899999999999977h256z m-128 115.90000000000003l-329.9 158 97.69999999999999 285c45.30000000000001-21.100000000000023 103.59999999999997-40.80000000000007 163.39999999999998-40.80000000000007 96.00000000000006 0 173.2 45.700000000000045 274.50000000000006 69h16.799999999999955l107.39999999999998-313.29999999999995-329.9-157.89999999999998z"/>
</svg>
