<svg xmlns="http://www.w3.org/2000/svg" viewBox="0 0 1000 1000" width="1000" height="1000">
<path d="M200.6 552.3c-35.400000000000006 0-64 28.700000000000045-64 64 0 35.40000000000009 28.700000000000017 64 64 64s64.00000000000003-28.699999999999932 64.00000000000003-64-28.700000000000017-64-64.00000000000003-64z m0 99.60000000000002c-19.599999999999994 0-35.599999999999994-15.899999999999977-35.599999999999994-35.60000000000002 0-19.59999999999991 15.900000000000006-35.5 35.599999999999994-35.5 19.599999999999994 0 35.5 15.900000000000091 35.5 35.5s-15.799999999999983 35.60000000000002-35.5 35.60000000000002z m602.4-99.60000000000002c-35.39999999999998 0-64 28.700000000000045-64 64 0 35.40000000000009 28.700000000000045 64 64 64s64-28.699999999999932 64-64-28.700000000000045-64-64-64z m0 99.60000000000002c-19.600000000000023 0-35.60000000000002-15.899999999999977-35.60000000000002-35.60000000000002 0-19.59999999999991 15.899999999999977-35.5 35.60000000000002-35.5 19.600000000000023 0 35.5 15.900000000000091 35.5 35.5s-15.899999999999977 35.60000000000002-35.5 35.60000000000002z m-85.10000000000002-29.699999999999932h-429.9c-4.800000000000011 0-8.699999999999989 3.8999999999999773-8.699999999999989 8.699999999999932v4.300000000000068c0 4.7999999999999545 3.8999999999999773 8.699999999999932 8.699999999999989 8.699999999999932h429.9c4.800000000000068 0 8.700000000000045-3.8999999999999773 8.700000000000045-8.699999999999932v-4.300000000000068c0-4.7999999999999545-3.8999999999999773-8.699999999999932-8.700000000000045-8.699999999999932z m219.30000000000007-179.70000000000005c-0.10000000000002274-14.399999999999977-0.8000000000000682-29.100000000000023-4.2000000000000455-43-5.100000000000023-20.80000000000001-11.899999999999977-41.30000000000001-19.799999999999955-61.30000000000001-4.800000000000068-12.199999999999989-13.900000000000091-19-29.5-19-166.20000000000005 0.6000000000000227-332.5 0.4000000000000341-498.80000000000007 0.4000000000000341-10.199999999999989 0-20.5-0.6000000000000227-30.5 0.5-7.199999999999989 0.7999999999999545-15.199999999999989 2.3999999999999773-21 6.2999999999999545-19.299999999999955 13.100000000000023-39.69999999999999 25.5-56.19999999999999 41.700000000000045-28.5 27.899999999999977-54.29999999999998 58.5-81.39999999999998 87.89999999999998-1.8000000000000114 1.8999999999999773-4.600000000000023 3.3999999999999773-7.200000000000017 3.8999999999999773-29.69999999999999 6.100000000000023-58.400000000000006 15-86.3 27.100000000000023-24.599999999999994 10.600000000000023-35.89999999999999 30.5-38.599999999999994 54.799999999999955-2.4000000000000057 22.200000000000045-0.4000000000000057 44.80000000000007-0.6000000000000014 67.20000000000005 0 5.399999999999977 2.1999999999999957 7.2000000000000455 7.199999999999996 7.2000000000000455 10.5-0.10000000000002274 21 0 31.5 0h25.700000000000003c3.1999999999999886-42.700000000000045 35.900000000000006-69 65.1-72.30000000000007 46.70000000000002-5.199999999999932 82.1 29.5 84.29999999999998 71.70000000000005 3.400000000000034 0.1999999999999318 6.300000000000011 0.5 9.100000000000023 0.5 144.7 0 289.4 0 434.1 0.10000000000002274 6.5 0 8.799999999999955-1.8000000000000682 10-8.400000000000091 6.600000000000023-38.299999999999955 31-57.89999999999998 59-63.09999999999991 43.39999999999998-8.100000000000023 82.29999999999995 20.09999999999991 87.60000000000002 63.19999999999993 0.2999999999999545 2.8999999999999773 3.7999999999999545 7.800000000000068 5.899999999999977 7.899999999999977 17.899999999999977 0.6000000000000227 35.89999999999998 0.40000000000009095 54.39999999999998 0.40000000000009095 0.20000000000004547-4.100000000000023 0.39999999999997726-7.300000000000068 0.39999999999997726-10.400000000000091 0-54.39999999999998 0.3000000000000682-108.89999999999998-0.1999999999999318-163.29999999999995z m-820.9000000000001 86.60000000000002c-3.7999999999999545 0.10000000000002274-7.599999999999952 0-11.299999999999955 0h-3.5c-12.299999999999997 0.10000000000002274-15.700000000000003-4.2000000000000455-12.200000000000003-16.300000000000068 0.6000000000000085-1.8999999999999773 4-3.999999999999943 6.299999999999997-4.099999999999966 6.900000000000006-0.39999999999997726 13.900000000000006-0.0999999999999659 20.900000000000006 0.30000000000001137 7.599999999999994 0.39999999999997726 5.900000000000006 6.399999999999977 6.200000000000003 11.100000000000023 0.29999999999999716 4.699999999999932-0.20000000000000284 9-6.400000000000006 9z m323.1-104.40000000000003c0 2.6000000000000227-0.39999999999997726 5.100000000000023-0.6999999999999886 8.400000000000034h-178.09999999999997c0.5-2.1000000000000227 0.2999999999999545-4.2000000000000455 1.2999999999999545-5.300000000000011 22-24.100000000000023 42.5-49.80000000000001 70.10000000000002-68 9-5.900000000000034 18.899999999999977-9.5 30.100000000000023-9.300000000000011 22.399999999999977 0.39999999999997726 44.799999999999955 0.39999999999997726 67.09999999999997 0 7.400000000000034-0.10000000000002274 10.300000000000011 1.8000000000000114 10.199999999999989 9.600000000000023-0.2999999999999545 21.599999999999966 0 43.099999999999966 0 64.59999999999997z m179.80000000000007 2.1999999999999886c0 4.400000000000034-1.6000000000000227 6.900000000000034-6.7000000000000455 6.900000000000034-44.5-0.10000000000002274-89-0.10000000000002274-134.7-0.10000000000002274-0.30000000000001137-3.5-0.6999999999999886-6.099999999999966-0.6999999999999886-8.599999999999966-0.10000000000002274-21.80000000000001 0.19999999999998863-43.700000000000045-0.20000000000004547-65.5-0.0999999999999659-6.300000000000011 1.7000000000000455-9 8.300000000000011-9 42.19999999999999 0.0999999999999659 84.40000000000003 0.0999999999999659 126.59999999999997 0 5.2000000000000455 0 7.5 2.1999999999999886 7.5 7.2999999999999545 0 23 0 46-0.09999999999990905 69z m158.19999999999993-3.099999999999966c0.10000000000002274 6.699999999999989-2.6000000000000227 9.599999999999966-9.199999999999932 9.599999999999966-41 0-82.10000000000002 0-123.20000000000005 0.10000000000002274-6 0-8.5-2.6000000000000227-8.399999999999977-8.399999999999977 0.10000000000002274-22.400000000000034 0.1999999999999318-44.80000000000001-0.10000000000002274-67.20000000000005-0.10000000000002274-6.599999999999966 3.2999999999999545-7.699999999999989 8.799999999999955-7.599999999999966 20.700000000000045 0.0999999999999659 41.30000000000007 0.0999999999999659 62 0.0999999999999659 20.40000000000009 0 40.80000000000007 0.20000000000004547 61.10000000000002-0.0999999999999659 6.7000000000000455-0.10000000000002274 9.100000000000023 2 9 9-0.2999999999999545 21.399999999999977-0.1999999999999318 42.89999999999998 0 64.5z m35.80000000000007 9.899999999999977c-20.40000000000009-0.0999999999999659-19 3.8000000000000114-18.800000000000068-19 0.20000000000004547-18.30000000000001 0.10000000000002274-36.69999999999999-0.1999999999999318-55-0.10000000000002274-6.199999999999989 1.8999999999999773-9.099999999999966 8.5-9.099999999999966 23 0.19999999999998863 46 0.2999999999999545 69 0 6-0.10000000000002274 9.199999999999932 2.1999999999999886 10.5 7.899999999999977l12.899999999999977 59.10000000000002c1.1000000000000227 4.899999999999977 2.2999999999999545 9.899999999999977 3.699999999999932 16.19999999999999-29.799999999999955-0.10000000000002274-57.59999999999991 0.0999999999999659-85.59999999999991-0.10000000000002274z"/>
</svg>
