<svg xmlns="http://www.w3.org/2000/svg" viewBox="0 0 1000 1000" width="1000" height="1000">
<path d="M200.1 937.4c28.599999999999994-49.5 56.79999999999998-98.39999999999998 85.79999999999998-148.79999999999995-15.5 0-29.099999999999966-0.10000000000002274-42.69999999999999 0-27.299999999999983 0.1999999999999318-43.69999999999999-16.300000000000068-43.69999999999999-43.60000000000002l-0.09999999999999432-537.5c0-18.30000000000001 0-36.5 0.19999999999998863-54.69999999999999 0.20000000000001705-23.5 16.400000000000006-39.80000000000001 40-39.900000000000006 39.50000000000003-0.20000000000000284 78.79999999999998 0 118.20000000000002-0.10000000000000853h17c0-7-0.10000000000002274-13.099999999999994 0-19.200000000000003 0.39999999999997726-20.099999999999994 10.599999999999966-30.599999999999994 30.80000000000001-31.099999999999994 17.899999999999977-0.3999999999999986 35.89999999999998-0.29999999999999716 53.69999999999999-0.29999999999999716 43 0 85.99999999999994 0.09999999999999432 128.99999999999994 0.19999999999999574 27.600000000000023 0.10000000000000142 36.90000000000009 9.600000000000001 36.80000000000007 37.1v13h20.600000000000023c37.5 0 74.89999999999998 0.09999999999999432 112.39999999999998 0 25.699999999999932-0.09999999999999432 42 16.30000000000001 42 42.099999999999994v464.4c0 42.39999999999998 0.10000000000002274 84.70000000000005-0.3000000000000682 127.10000000000002-0.1999999999999318 27.100000000000023-15.399999999999977 42.10000000000002-42.5 42.5-13.799999999999955 0.1999999999999318-27.699999999999932 0-43.69999999999993 0 29.100000000000023 50.5 57.10000000000002 99.10000000000002 85.89999999999998 148.89999999999998h-599.4v-0.10000000000002274z m75.6-673.9v248.89999999999998h198.60000000000002v-248.89999999999998h-198.60000000000002z m448.8 0.30000000000001137h-198.70000000000005v248.7h198.70000000000005v-248.7z m-28.399999999999977 648.9000000000001c-1.8000000000000682-3.5-3.2000000000000455-5.600000000000023-4.2000000000000455-8-4.899999999999977-12.700000000000045-13.199999999999932-16.700000000000045-27.5-16.600000000000023-110.69999999999993 0.7999999999999545-221.39999999999998 0.5-332.09999999999997 0.5-16 0-24.100000000000023 6.899999999999977-26.80000000000001 24l390.6 0.10000000000002274z m-28.399999999999977-49.60000000000002c-3.7000000000000455-6.5-7-11.300000000000068-9.300000000000068-16.5-3.1000000000000227-7-8-8.800000000000068-15.399999999999977-8.600000000000023-22.5 0.5-44.89999999999998 0.2999999999999545-67.39999999999998 0.2999999999999545-73.60000000000002 0-147.20000000000005-0.09999999999990905-220.70000000000005 0.10000000000002274-3.1999999999999886 0-8.099999999999966 0.39999999999997726-9.599999999999966 2.5-4.900000000000034 6.600000000000023-8.699999999999989 14.100000000000023-13.5 22.300000000000068l335.90000000000003-0.10000000000002274z m-168.20000000000005-650.4000000000001c29.5-0.3999999999999204 50.5-22.299999999999926 50-52.19999999999993-0.39999999999997726-25.599999999999994-23.600000000000023-47.8-49.89999999999998-47.599999999999994-27 0.19999999999998863-50 23.19999999999999-50 50.099999999999994 0.0999999999999659 27.19999999999999 23 50.099999999999994 49.89999999999998 49.69999999999999z m174.10000000000002 450.1c28.899999999999977 0.3000000000000682 51-21.299999999999955 51.5-50 0.39999999999997726-26.59999999999991-22.800000000000068-49.5-50.10000000000002-49.5-27 0-49.39999999999998 21.90000000000009-49.700000000000045 48.700000000000045-0.5 28 21.200000000000045 50.700000000000045 48.30000000000007 50.799999999999955z m-349.40000000000003 0c29.100000000000023-0.2999999999999545 50.69999999999999-22.09999999999991 50.30000000000001-50.799999999999955-0.39999999999997726-26.799999999999955-22.69999999999999-48.60000000000002-49.80000000000001-48.60000000000002-27.80000000000001 0-50.099999999999966 22.600000000000023-49.69999999999999 50.60000000000002 0.30000000000001137 27.200000000000045 22.30000000000001 49 49.19999999999999 48.799999999999955z m38.900000000000034 149.4000000000001h273.5c-2.8999999999999773-5.7000000000000455-5.600000000000023-10.100000000000023-7.399999999999977-14.900000000000091-2.6000000000000227-7.399999999999977-7.400000000000091-9.5-14.900000000000091-8.899999999999977-9.099999999999909 0.7000000000000455-18.199999999999932 0.3000000000000682-27.299999999999955 0.3000000000000682-68.29999999999995 0-136.7-0.10000000000002274-205 0.09999999999990905-3 0-7.300000000000011 1.5-8.800000000000011 3.900000000000091-3.8999999999999773 5.699999999999932-6.599999999999966 12.299999999999955-10.099999999999966 19.5z"/>
</svg>
