<svg xmlns="http://www.w3.org/2000/svg" viewBox="0 0 1000 1000" width="1000" height="1000">
<path d="M657.3 590.9h-565.9c-15.999999999999972 0-28.899999999999977 12.899999999999977-28.899999999999977 28.899999999999977v2.6000000000000227c0 13.200000000000045 8.799999999999997 24.300000000000068 20.900000000000006 27.800000000000068 9.799999999999997-25.40000000000009 34.39999999999999-43.5 63.19999999999999-43.5 29.30000000000001 0 54.20000000000002 18.59999999999991 63.70000000000002 44.59999999999991h328.09999999999997c9.5-26 34.39999999999998-44.59999999999991 63.700000000000045-44.59999999999991 28.799999999999955 0 53.39999999999998 18.09999999999991 63.19999999999993 43.5 12.100000000000023-3.5 20.90000000000009-14.600000000000023 20.90000000000009-27.800000000000068v-2.6000000000000227c0-15.899999999999977-12.900000000000091-28.899999999999977-28.90000000000009-28.899999999999977z m-53 26.399999999999977c-27.799999999999955 0-50.39999999999998 22.600000000000023-50.39999999999998 50.40000000000009s22.600000000000023 50.39999999999998 50.39999999999998 50.39999999999998c27.800000000000068 0 50.40000000000009-22.600000000000023 50.40000000000009-50.39999999999998s-22.600000000000023-50.40000000000009-50.40000000000009-50.40000000000009z m0 85.40000000000009c-19.299999999999955 0-35-15.700000000000045-35-35s15.700000000000045-35 35-35 35 15.699999999999932 35 35-15.699999999999932 35-35 35z m-459.9-85.40000000000009c-27.799999999999983 0-50.39999999999998 22.600000000000023-50.39999999999998 50.40000000000009s22.599999999999994 50.39999999999998 50.400000000000006 50.39999999999998c27.799999999999983 0 50.400000000000006-22.600000000000023 50.400000000000006-50.39999999999998s-22.600000000000023-50.40000000000009-50.400000000000006-50.40000000000009z m2.842170943040401e-14 85.40000000000009c-19.30000000000001 0-35-15.700000000000045-35-35s15.699999999999989-35 35-35 35 15.699999999999932 35 35-15.700000000000017 35-35 35z m721.7-294.80000000000007c-5.899999999999977-7.7999999999999545-13.899999999999977-9.599999999999966-19.300000000000068-9.599999999999966h-126.69999999999993c-5.300000000000068 0-9.600000000000023 4.300000000000011-9.600000000000023 9.599999999999966v229c0 5.300000000000068 4.2999999999999545 9.600000000000023 9.600000000000023 9.600000000000023h34c10.699999999999932-23.399999999999977 34.299999999999955-39.799999999999955 61.69999999999993-39.799999999999955s51 16.399999999999977 61.700000000000045 39.799999999999955h50.39999999999998c5.300000000000068 0 9.600000000000023-4.2999999999999545 9.600000000000023-9.600000000000023v-114l-71.39999999999998-115z m16.699999999999932 99.60000000000002h-134.5c-5.2999999999999545 0-9.599999999999909-4.300000000000011-9.599999999999909-9.600000000000023v-71.89999999999998c0-5.300000000000011 4.2999999999999545-9.600000000000023 9.599999999999909-9.600000000000023h78.70000000000005c14.700000000000045 0 18.799999999999955 3.400000000000034 22.200000000000045 9.600000000000023l43.39999999999998 71.89999999999998c-0.10000000000002274 5.2000000000000455-4.5 9.600000000000023-9.800000000000068 9.600000000000023z m47.200000000000045 116.79999999999995c0 5-4 9-9 9s-9-4-9-9v-17c0-5 4-9 9-9s9 4 9 9v17z m-116.60000000000002-7c-27.799999999999955 0-50.39999999999998 22.600000000000023-50.39999999999998 50.40000000000009s22.600000000000023 50.39999999999998 50.39999999999998 50.39999999999998c27.800000000000068 0 50.39999999999998-22.600000000000023 50.39999999999998-50.39999999999998 0.10000000000002274-27.800000000000068-22.5-50.40000000000009-50.39999999999998-50.40000000000009z m0.10000000000002274 85.40000000000009c-19.299999999999955 0-35-15.700000000000045-35-35s15.700000000000045-35 35-35 35 15.699999999999932 35 35-15.700000000000045 35-35 35z m-191.89999999999998-402.00000000000006h-494.5v273.00000000000006h494.5v-273.00000000000006z m-204.8 172c-3.6999999999999886 22.69999999999999-24.900000000000034 35.5-42.80000000000001 35.30000000000001-16-0.19999999999998863-35.89999999999998-10.899999999999977-41.5-32l-1.3999999999999773-5.699999999999989v-10c1.599999999999966-9.699999999999989 5.7999999999999545-18.100000000000023 10.399999999999977-26.400000000000034 4.300000000000011-7.599999999999966 8.600000000000023-15 13-22.5 8.399999999999977-14.299999999999955 15.5-29 19.600000000000023-45h0.5l0.2999999999999545 1.900000000000034c4 13.899999999999977 10 26.899999999999977 17.100000000000023 39.599999999999966 7.100000000000023 12.5 14.100000000000023 25 20.899999999999977 37.5 4.7000000000000455 8.600000000000023 5.5 18 3.900000000000034 27.30000000000001z m-305.5 101.09999999999997v-272.99999999999994c-26.30000000000001 0-47.500000000000014 21.399999999999977-47.500000000000014 47.5v177.99999999999994c0 26.100000000000023 21.200000000000003 47.5 47.5 47.5z m573.5999999999999-47.59999999999991v-178.00000000000006c1.1368683772161603e-13-26.099999999999966-21.199999999999818-47.5-47.499999999999886-47.5v273.00000000000006c26.300000000000068 0.09999999999990905 47.5-21.300000000000068 47.5-47.5z m-435.29999999999984-230.90000000000003h75.19999999999999c4.399999999999977 0 7.899999999999977-3 7.899999999999977-6.600000000000023 0-3.6999999999999886-3.5-6.599999999999966-7.899999999999977-6.599999999999966h-75.20000000000002c-4.400000000000006 0-7.900000000000006 3-7.900000000000006 6.599999999999966 0 3.6999999999999886 3.5 6.600000000000023 7.900000000000006 6.600000000000023z m174.2 0h75.19999999999999c4.399999999999977 0 7.899999999999977-3 7.899999999999977-6.600000000000023 0-3.6999999999999886-3.5-6.599999999999966-7.899999999999977-6.599999999999966h-75.19999999999999c-4.400000000000034 0-7.900000000000034 3-7.900000000000034 6.599999999999966 0 3.6999999999999886 3.5 6.600000000000023 7.900000000000034 6.600000000000023z"/>
</svg>
