<svg xmlns="http://www.w3.org/2000/svg" viewBox="0 0 1000 1000" width="1000" height="1000">
<path d="M897.3 198.4h-40.299999999999955c-6.7000000000000455 0-11.799999999999955 5.299999999999983-11.799999999999955 11.799999999999983v197c0 6.699999999999989 5.2999999999999545 11.800000000000011 11.799999999999955 11.800000000000011h13.700000000000045v89.5c0 6.600000000000023-5.300000000000068 11.799999999999955-11.800000000000068 11.799999999999955h-37v-334.69999999999993c0-67.90000000000002-55.10000000000002-123.20000000000002-123.19999999999993-123.20000000000002h-405.6c-67.90000000000003-7.105427357601002e-15-123.20000000000002 55.3-123.20000000000002 123.19999999999999v328.5h-30.30000000000001c-6.599999999999994 0-11.799999999999997-5.300000000000011-11.799999999999997-11.800000000000011v-96h15.000000000000014c6.699999999999989 0 11.799999999999983-5.300000000000011 11.799999999999983-11.800000000000011v-197.1c0-6.400000000000006-5.299999999999983-11.800000000000011-11.799999999999983-11.800000000000011h-40.500000000000014c-6.700000000000003 0-11.799999999999997 5.400000000000006-11.799999999999997 11.800000000000011v196.99999999999997c0 6.7000000000000455 5.299999999999997 11.800000000000011 11.799999999999997 11.800000000000011h15.200000000000003v106.09999999999997c0 6.600000000000023 5.299999999999997 11.800000000000068 11.800000000000011 11.800000000000068h40.599999999999994v241.5c0 46 25.599999999999994 86.10000000000002 62.900000000000006 107.29999999999995v52.700000000000045c0 6.600000000000023 5.299999999999983 11.799999999999955 11.799999999999983 11.799999999999955h85.29999999999998c6.600000000000023 0 11.800000000000011-5.2999999999999545 11.800000000000011-11.799999999999955v-36.80000000000007h304.90000000000003v36.80000000000007c0 6.600000000000023 5.2999999999999545 11.799999999999955 11.799999999999955 11.799999999999955h85.30000000000007c6.599999999999909 0 11.799999999999955-5.2999999999999545 11.799999999999955-11.799999999999955v-51c39.200000000000045-20.600000000000023 66-61.80000000000007 66-109.20000000000005v-234.69999999999993h47.299999999999955c6.600000000000023 0 11.800000000000068-5.300000000000068 11.800000000000068-11.800000000000068v-99.79999999999995h16.399999999999977c6.7000000000000455 0 11.799999999999955-5.400000000000034 11.799999999999955-11.800000000000011v-197c0.40000000000009095-6.600000000000023-4.899999999999977-11.900000000000006-11.5-11.900000000000006z m-542.5-98.5c5.684341886080802e-14-6.700000000000003 5.300000000000068-11.800000000000011 11.800000000000068-11.800000000000011h263.79999999999995c6.399999999999977 0 11.800000000000068 5.300000000000011 11.800000000000068 11.800000000000011v43.099999999999994c0 6.699999999999989-5.400000000000091 11.800000000000011-11.800000000000068 11.800000000000011h-263.7c-6.699999999999989 0-11.800000000000011-5.300000000000011-11.800000000000011-11.800000000000011l-0.0999999999999659-43.099999999999994z m30.700000000000045 648.8000000000001c0 6.699999999999932-5.300000000000011 11.799999999999955-11.800000000000011 11.799999999999955h-135.39999999999998c-6.700000000000017 0-11.800000000000011-5.2999999999999545-11.800000000000011-11.799999999999955v-48.200000000000045c0-6.399999999999977 5.300000000000011-11.799999999999955 11.800000000000011-11.799999999999955h135.3c6.699999999999989 0 11.799999999999955 5.399999999999977 11.799999999999955 11.799999999999955l0.10000000000002274 48.200000000000045z m385 0c0 6.699999999999932-5.2999999999999545 11.799999999999955-11.799999999999955 11.799999999999955h-135.30000000000007c-6.699999999999932 0-11.799999999999955-5.2999999999999545-11.799999999999955-11.799999999999955v-48.200000000000045c0-6.399999999999977 5.2999999999999545-11.799999999999955 11.799999999999955-11.799999999999955h135.30000000000007c6.699999999999932 0 11.799999999999955 5.399999999999977 11.799999999999955 11.799999999999955v48.200000000000045z m0-219.10000000000002s-30.899999999999977 97.60000000000002-277.1 97.60000000000002c-246.59999999999997 0-272.29999999999995-97.60000000000002-272.29999999999995-97.60000000000002v-338.8h549.3v338.8z"/>
</svg>
