<svg xmlns="http://www.w3.org/2000/svg" viewBox="0 0 1000 1000" width="1000" height="1000">
<path d="M790.7 578.4c-13.100000000000023 1.2000000000000455-18.200000000000045-3.1000000000000227-22-14.600000000000023-12-36-24.90000000000009-71.79999999999995-38.200000000000045-107.39999999999998-1.7000000000000455-4.599999999999966-7.600000000000023-10.599999999999966-11.899999999999977-10.799999999999955-18.300000000000068-1.1000000000000227-36.60000000000002-0.6000000000000227-55.200000000000045-0.5-2.8999999999999773 0-5.2999999999999545 2.2999999999999545-5.2999999999999545 5.199999999999989v27.099999999999966c0 2.8000000000000114 2.3999999999999773 5.2000000000000455 5.2999999999999545 5 11-0.5999999999999659 22-2.7999999999999545 29.700000000000045 1.2000000000000455 7.199999999999932 3.6999999999999886 10.699999999999932 14.299999999999955 16.399999999999977 25.099999999999966 1.2999999999999545 2.5 0.20000000000004547 4.500000000000057-2.7999999999999545 4.500000000000057-68.70000000000005 0-132.4000000000001 0.1999999999999318-196.10000000000002-0.40000000000009095-3.400000000000034 0-6.7000000000000455-2.599999999999966-10.100000000000023-5.199999999999932-2.3000000000000114-1.7000000000000455-3.8000000000000114-4.2000000000000455-3.1999999999999886-5.600000000000023 0.5999999999999659-1.5 3.3999999999999773-2.6000000000000227 6.300000000000011-2.6000000000000227h32.39999999999998c2.8999999999999773 0 5.2999999999999545-2.2999999999999545 5.2999999999999545-5.199999999999989v-25.69999999999999c0-2.8000000000000114-2.3999999999999773-5.199999999999989-5.2999999999999545-5.199999999999989h-84.80000000000001c-2.8999999999999773 0-5.399999999999977 2.3000000000000114-5.5 5.199999999999989-0.8000000000000114 14.399999999999977-2.3000000000000114 27.399999999999977 9.900000000000034 39.19999999999999 5.599999999999966 5.400000000000034 8.099999999999966 20.099999999999966 4.699999999999989 27.099999999999966-24.19999999999999 48.90000000000009-50.10000000000002 97-75.90000000000003 145-2.2999999999999545 4.300000000000068-7.599999999999966 9.600000000000023-11.899999999999977 9.900000000000091-13.600000000000023 1.099999999999909-27.399999999999977 0.599999999999909-40.80000000000001 0.5-2.8999999999999773 0-5.800000000000011-2.300000000000068-6.5-5.100000000000023-21.399999999999977-85.80000000000007-90.39999999999998-113.5-148-106.39999999999998-66.29999999999998 8.199999999999932-114.89999999999999 63.299999999999955-114.69999999999999 128.79999999999995 0.20000000000000284 66.29999999999995 48.7 119.70000000000005 117.4 127.79999999999995 55.79999999999998 6.600000000000023 125.1-23.09999999999991 144.6-105.19999999999993 0.6000000000000227-2.800000000000068 3.5-5.2000000000000455 6.399999999999977-5.399999999999977 2.1000000000000227-0.20000000000004547 4.300000000000011-0.3000000000000682 6.400000000000034-0.3000000000000682 72.30000000000001 0 144.59999999999997-0.1999999999999318 216.90000000000003 0.3000000000000682 13.599999999999909 0.09999999999990905 23.699999999999932-3.400000000000091 33.799999999999955-12.900000000000091 45.700000000000045-43.299999999999955 92.20000000000005-85.89999999999998 139.39999999999998-129.5 2.1000000000000227-1.8999999999999773 5.399999999999977-1.7999999999999545 7 0.6000000000000227 4.899999999999977 7.800000000000068 2.300000000000068 13.100000000000023-5.899999999999977 19.100000000000023-44.10000000000002 32.10000000000002-61.299999999999955 76.20000000000005-52.39999999999998 128.60000000000002 12.299999999999955 73 86.79999999999995 119.5 160.89999999999998 102.29999999999995 72.79999999999995-16.799999999999955 116.10000000000002-90.60000000000002 95.70000000000005-161.79999999999995-13.800000000000068-47.200000000000045-62.80000000000007-100.10000000000002-142-92.70000000000005z m-508.40000000000003 151.5c-7.5 40.200000000000045-48 70-91 68.30000000000007-47.400000000000006-1.900000000000091-88.30000000000001-40.60000000000002-90.00000000000001-85.10000000000002-1.8999999999999915-52.80000000000007 33.39999999999999-92.20000000000005 87.3-97.70000000000005 42.5-4.2999999999999545 84.50000000000003 26.5 94.9 70 0.6000000000000227 2.800000000000068-1.3000000000000114 5.100000000000023-4.199999999999989 5.100000000000023h-84.80000000000001c-2.9000000000000057 0-5.300000000000011 2.2999999999999545-5.300000000000011 5.2000000000000455v24c0 2.7999999999999545 2.4000000000000057 5.199999999999932 5.300000000000011 5.199999999999932h83.30000000000001c2.8999999999999773-0.10000000000002274 5 2.2000000000000455 4.5 5z m143.39999999999998-45.10000000000002c19.400000000000034-36.5 38.10000000000002-71.59999999999991 58-109 1.400000000000034-2.5 3.400000000000034-2.5 4.699999999999989 0.10000000000002274 17.5 37.10000000000002 34.200000000000045 72.30000000000007 51.39999999999998 108.80000000000007 1.2000000000000455 2.599999999999909-0.1999999999999318 4.699999999999932-3.099999999999909 4.699999999999932h-108.20000000000005c-2.8999999999999773 0-4.199999999999989-2-2.8000000000000114-4.600000000000023z m149.90000000000003-16.59999999999991c-18-38.30000000000007-35.89999999999998-76.40000000000009-54.5-115.70000000000005-1.2000000000000455-2.6000000000000227 0.1999999999999318-4.7000000000000455 3.1000000000000227-4.7000000000000455h174.79999999999995c2.8999999999999773 0 3.6000000000000227 1.6000000000000227 1.6000000000000227 3.7000000000000455-40 39.5-79 78.10000000000002-119 117.79999999999995-2.1000000000000227 1.900000000000091-4.7000000000000455 1.5-6-1.099999999999909z m146.69999999999993 79.79999999999995c-20.199999999999932-38.60000000000002-8.599999999999909-88.70000000000005 25.600000000000023-111.10000000000002 2.3999999999999773-1.6000000000000227 5.300000000000068-0.5 6.300000000000068 2.2000000000000455 6.5 18 13 36 19.899999999999977 55.10000000000002 1 2.699999999999932 4 4.099999999999909 6.699999999999932 3.199999999999932 8.800000000000068-2.8999999999999773 17.100000000000023-5.600000000000023 26.100000000000023-8.600000000000023 2.800000000000068-0.8999999999999773 4.2000000000000455-3.7999999999999545 3.300000000000068-6.599999999999909-6.800000000000068-20-13.300000000000068-39.10000000000002-19.700000000000045-58.10000000000002-0.8999999999999773-2.7000000000000455 0.6000000000000227-5.7000000000000455 3.3999999999999773-6.399999999999977 37.10000000000002-9.600000000000023 81.70000000000005 15.799999999999955 98.5 56.69999999999993 17.700000000000045 42.89999999999998-3.6000000000000227 95.5-46.299999999999955 114.70000000000005-47.60000000000002 21.5-100.20000000000005 4-123.80000000000007-41.10000000000002z m-545.1999999999999-343.9c2.799999999999983 0.5999999999999659 4.999999999999972-1.2000000000000455 4.899999999999977-4.100000000000023-1.0999999999999943-19.899999999999977-2-38.30000000000001-3.0999999999999943-59.5-0.20000000000001705-2.8999999999999773 1.1999999999999886-3.3999999999999773 3.0999999999999943-1.1999999999999886 24.69999999999999 29.69999999999999 47.19999999999999 56.80000000000001 70.4 84.69999999999999 1.799999999999983 2.1999999999999886 4.599999999999994 2.1000000000000227 6.200000000000017-0.30000000000001137 53-79.59999999999997 104.5-157 156.79999999999995-235.5 1.6000000000000227-2.3999999999999773 0.5-4.599999999999994-2.3999999999999773-4.899999999999977-58.89999999999998-6.900000000000006-114.5-13.600000000000023-170.1-19.600000000000023-6.099999999999994-0.6999999999999886-13.900000000000006 1.1000000000000227-18.900000000000006 4.600000000000023-32.69999999999999 22.299999999999983-65 45.29999999999998-97 68.5-3.9000000000000057 2.799999999999983-7.5 8.799999999999983-7.599999999999994 13.399999999999977-0.6000000000000085 43.69999999999999-0.6000000000000085 87.30000000000001 0 131 0.09999999999999432 4.100000000000023 4.3999999999999915 10.900000000000034 8 11.900000000000034 15.599999999999994 4.399999999999977 31.69999999999999 7.2999999999999545 49.69999999999999 11z m97.19999999999999-148.40000000000003h55.599999999999966c2.900000000000034 0 4.100000000000023 2 2.6000000000000227 4.5-19.80000000000001 32.60000000000002-39.19999999999999 64.80000000000001-60.80000000000001 100.5-1.5 2.400000000000034-2.6999999999999886 2.1000000000000227-2.6999999999999886-0.6999999999999886v-99c0.10000000000002274-3.1000000000000227 2.3999999999999773-5.300000000000011 5.300000000000011-5.300000000000011z m-34.30000000000001 2.8000000000000114v107.80000000000001c0 2.8000000000000114-1.5 3.3000000000000114-3.1999999999999886 1.099999999999966-17.900000000000006-22.69999999999999-34-43.099999999999966-50.900000000000006-64.59999999999997-1.8000000000000114-2.3000000000000114-1.3000000000000114-5.400000000000034 0.799999999999983-7.400000000000034 15.700000000000017-14.199999999999989 22.100000000000023-38.19999999999999 48.10000000000002-41.69999999999999 2.799999999999983-0.29999999999998295 5.199999999999989 2 5.199999999999989 4.800000000000011z m29.19999999999999 226.7c-4.599999999999966-34.30000000000001-23.099999999999994-49.599999999999966-57.89999999999998-53.19999999999999-28.900000000000006-3-57.20000000000002-11.100000000000023-87.10000000000001-17.69999999999999-2.799999999999997-0.6000000000000227-5.1000000000000085 1.1999999999999886-5.1000000000000085 4.099999999999966 0 33-0.29999999999999716 64.20000000000005 0.4000000000000057 95.39999999999998 0.09999999999999432 4 5 10 9.099999999999994 11.5 84.4 31.5 169.00000000000003 62.5 254.6 93.90000000000009 2.6999999999999886 1 5.800000000000011-0.40000000000009095 6.300000000000011-3.2000000000000455 2-10.600000000000023-2.3000000000000114-17.200000000000045-12.800000000000011-22.200000000000045-12.899999999999977-6.199999999999932-24.19999999999999-16-37.39999999999998-21.09999999999991-41.19999999999999-15.900000000000091-64.40000000000003-45.40000000000009-70.10000000000002-87.50000000000006z"/>
</svg>
