<svg xmlns="http://www.w3.org/2000/svg" viewBox="0 0 1000 1000" width="1000" height="1000">
<path d="M750.9 409.2c-32.60000000000002 0-63.299999999999955 8.5-90.10000000000002 23.19999999999999l-49.799999999999955-72.79999999999995 28.399999999999977-118.10000000000002h-103.60000000000002v36.10000000000002h57.80000000000007l-13 54.099999999999966h-246.5l19.599999999999966-78.1h63.80000000000001v-36.099999999999994h-168.4v36.19999999999999h67.50000000000003l-39.700000000000045 157.90000000000003c-9.099999999999966-1.400000000000034-18.299999999999955-2.3000000000000114-27.799999999999983-2.3000000000000114-102.79999999999998 0-186.6 83.69999999999999-186.6 186.59999999999997 0 102.80000000000007 83.80000000000001 186.5 186.6 186.5 102.9 0 186.6-83.69999999999993 186.6-186.5 0-80.89999999999998-51.69999999999999-149.7-123.80000000000001-175.5l14.600000000000023-58.099999999999966 200.70000000000005 251.7h38.19999999999993c9.100000000000023 94.5 88.89999999999998 168.5 185.70000000000005 168.5 102.89999999999998 0 186.60000000000002-83.70000000000005 186.60000000000002-186.60000000000002-0.20000000000004547-103.09999999999997-83.90000000000009-186.7-186.80000000000007-186.7z m-351.4 186.50000000000006c0 82.89999999999998-67.39999999999998 150.39999999999998-150.4 150.39999999999998-82.9 0-150.39999999999998-67.5-150.39999999999998-150.39999999999998-1.4210854715202004e-14-83 67.49999999999997-150.50000000000006 150.39999999999998-150.50000000000006 6.5 0 12.700000000000017 0.6000000000000227 18.900000000000006 1.3000000000000114l-36.400000000000006 144.70000000000005 35.00000000000003 8.799999999999955 36.299999999999955-144.7c56.400000000000034 21.899999999999977 96.60000000000002 76.40000000000003 96.60000000000002 140.40000000000003z m252.20000000000005-112.80000000000007l64.89999999999998 94.80000000000007h-114.89999999999998c4.5-37.700000000000045 23-71.00000000000006 50-94.80000000000007z m-124.90000000000009 72.70000000000005l-149.59999999999997-187.8h194.7l-45.10000000000002 187.8z m31.90000000000009 22.100000000000023l41-170.80000000000007 31.5 46c-36.40000000000009 30.600000000000023-61 74.89999999999998-65.80000000000007 124.80000000000007h-6.699999999999932z m192.19999999999993 168.5c-76.89999999999998 0-140.29999999999995-58-149.19999999999993-132.5h183.5l-103.80000000000007-151.30000000000007c20.800000000000068-10.899999999999977 44.5-17.19999999999999 69.5-17.19999999999999 83 0 150.39999999999998 67.50000000000006 150.39999999999998 150.50000000000006 0.10000000000002274 83-67.39999999999998 150.5-150.39999999999998 150.5z"/>
</svg>
