<svg xmlns="http://www.w3.org/2000/svg" viewBox="0 0 1000 1000" width="1000" height="1000">
<path d="M914.7 429.5c-3.2000000000000455-0.39999999999997726-6.5-0.19999999999998863-9.800000000000068-0.19999999999998863h-174.10000000000002v-10.400000000000034c0-35-0.1999999999999318-69.89999999999998 0.10000000000002274-104.89999999999998 0.10000000000002274-16-0.1999999999999318-32.10000000000002 1.8000000000000682-47.89999999999998 2.599999999999909-21.200000000000017 7.2999999999999545-42.10000000000002 33.299999999999955-48.00000000000003v-32.69999999999999c-17.799999999999955-1.4000000000000057-38.89999999999998 2.4000000000000057-54.799999999999955 10-32.90000000000009 15.799999999999983-47.80000000000007 44-49 78.6-1.8000000000000682 47.89999999999998-1.1000000000000227 96-1.400000000000091 144v10.800000000000011h-105.19999999999993c-3.2000000000000455-12.600000000000023-6.399999999999977-24.900000000000034-9.5-37.19999999999999-19.800000000000068-79.20000000000005-39.5-158.40000000000003-59.200000000000045-237.60000000000002-4.399999999999977-17.5-10.799999999999955-33.3-29.69999999999999-40h-293.4c-21.80000000000001 7.400000000000006-28.700000000000017 23.099999999999994-28.5 45.400000000000006 0.6999999999999886 77 0.19999999999998863 154.1 0.39999999999997726 231.1 0 6.800000000000011-2.299999999999983 10-7.999999999999986 13.699999999999989-18.700000000000003 12.400000000000034-38.2 24.19999999999999-54.3 39.400000000000034-18.000000000000007 16.899999999999977-6.5 48.69999999999999 17.599999999999994 54.69999999999999 16.599999999999994 4.199999999999989 28.200000000000003-4.5 40.30000000000001-13.5 60.69999999999999-45.19999999999999 128.39999999999998-60.10000000000002 201.59999999999997-41.60000000000002 81.80000000000001 20.69999999999999 137.40000000000003 72.40000000000003 167.40000000000003 151.40000000000003 9.599999999999966 25.199999999999932 12.900000000000034 51.5 14.099999999999966 78.29999999999995 1.1000000000000227 24.200000000000045 19.399999999999977 39.30000000000007 42 35.10000000000002 16.899999999999977-3.1000000000000227 27.600000000000023-17.700000000000045 27.5-37.200000000000045-0.10000000000002274-10.199999999999932 0-20.5 0-30.699999999999932h97.70000000000005c-68.60000000000002 59.60000000000002-58.200000000000045 151.5-9.600000000000023 199 49.299999999999955 48.19999999999993 127.79999999999995 51.69999999999993 179.60000000000002 7.5 26.100000000000023-22.300000000000068 42.19999999999993-50.30000000000007 46.39999999999998-84.39999999999998 6.2000000000000455-50.40000000000009-12.100000000000023-91.5-51-124.40000000000009 20.899999999999977-7.5 33.10000000000002-21.5 39.89999999999998-41.299999999999955 7.899999999999977-23.200000000000045 16.899999999999977-46.10000000000002 25.300000000000068-69.10000000000002 8.099999999999909-22.19999999999999 16.59999999999991-44.299999999999955 23.899999999999977-66.79999999999995 5.2999999999999545-16.80000000000001-3.800000000000068-29.200000000000045-21.399999999999977-31.100000000000023z m-708.3000000000001-70.30000000000001v-174.39999999999998c3.0000000000000284-0.20000000000001705 6.100000000000023-0.4000000000000057 9.300000000000011-0.4000000000000057 65.69999999999999 0 131.40000000000003 0.09999999999999432 197.2-0.20000000000001705 7.300000000000011 0 10.200000000000045 2.1000000000000227 11.900000000000034 9.200000000000017 13.199999999999989 53 26.899999999999977 105.9 40.39999999999998 158.9 0.5 2 0.8000000000000114 4 1.3000000000000114 7-87.10000000000002-0.10000000000002274-173.2-0.10000000000002274-260.1-0.10000000000002274z m559.3000000000001 462.8c-42.200000000000045-0.10000000000002274-77.60000000000002-35.5-77.40000000000009-77.60000000000002 0.20000000000004547-42.19999999999993 35.60000000000002-77.5 77.60000000000002-77.39999999999998 42.200000000000045 0.10000000000002274 77.5 35.5 77.39999999999998 77.60000000000002-0.09999999999990905 42.299999999999955-35.39999999999998 77.5-77.59999999999991 77.39999999999998z m-286.6-195.89999999999998c1.2999999999999545-2.800000000000068 1.1999999999999886-7.100000000000023 0.19999999999998863-10.200000000000045-2.5-8.5-5-17.199999999999932-9-25-2.1000000000000227-4-8-5.899999999999977-11-9.699999999999932-4-5-10.400000000000034-11.700000000000045-9.400000000000034-16.300000000000068 1.3000000000000114-6.5 0.7000000000000455-10.699999999999932-3-15.199999999999932-5.599999999999966-6.900000000000091-11.099999999999966-13.900000000000091-17.099999999999966-20.40000000000009-2.1999999999999886-2.3999999999999773-5.699999999999989-5-8.800000000000011-5.2999999999999545-13.300000000000011-1.2000000000000455-16.69999999999999-3.7999999999999545-19.100000000000023-16.100000000000023-0.5-2.2999999999999545-2.1999999999999886-5.099999999999966-4.099999999999966-6.399999999999977-8.900000000000034-5.699999999999989-18-11.5-27.400000000000034-16.19999999999999-3.099999999999966-1.5-7.7999999999999545 0.6999999999999886-11.599999999999966 0-6.400000000000034-1.1999999999999886-16.900000000000034-1.900000000000034-18-5.300000000000011-2.8000000000000114-8.5-8.600000000000023-9.899999999999977-15.100000000000023-11.399999999999977-8.099999999999966-1.8000000000000114-16.19999999999999-3.3000000000000114-24.399999999999977-4.100000000000023-3.1999999999999886-0.30000000000001137-7.400000000000034 0.39999999999997726-9.699999999999989 2.3999999999999773-8.100000000000023 6.600000000000023-15.400000000000034 6.5-23.600000000000023-0.5-2.3999999999999773-2-6.5-3.1999999999999886-9.600000000000023-2.8999999999999773-9.399999999999977 0.8999999999999773-18.899999999999977 1.8999999999999773-27.99999999999997 4.399999999999977-4.099999999999994 1.1000000000000227-6.900000000000006 6.400000000000034-11 8.5-5.700000000000017 2.900000000000034-13.200000000000017 7.7000000000000455-17.80000000000001 6-6.099999999999994-2.1999999999999886-10.299999999999983-2.599999999999966-15.5 0.20000000000004547-8 4.399999999999977-16.400000000000006 8.299999999999955-23.900000000000006 13.5-3.0999999999999943 2.099999999999966-5.299999999999983 6.699999999999989-6.199999999999989 10.599999999999966-1.1999999999999886 5.500000000000057-10.199999999999989 12.699999999999989-15.900000000000006 12.599999999999966-4-0.09999999999990905-9 0.900000000000091-11.699999999999989 3.400000000000091-6.900000000000006 6.399999999999977-13.5 13.399999999999977-18.900000000000006 21.09999999999991-2.5 3.5-1.4000000000000057 9.300000000000068-3.200000000000003 13.600000000000023-2.5 5.899999999999977-5.200000000000003 14.600000000000023-9.799999999999997 16.100000000000023-6.200000000000003 2-9.700000000000003 4.7000000000000455-11.900000000000006 9.899999999999977-3.3999999999999915 7.899999999999977-7.299999999999997 15.600000000000023-9.399999999999991 23.899999999999977-1.1000000000000085 4.400000000000091 1.8999999999999915 9.600000000000023 1.5999999999999943 14.400000000000091-0.3999999999999915 6.399999999999977-0.29999999999999716 15.5-4.099999999999994 18.399999999999977-5.6000000000000085 4.199999999999932-7.5 8.399999999999977-8 14.399999999999977-0.5 6.100000000000023-1.3000000000000043 12.200000000000045-1.9000000000000057 18.299999999999955v3.6000000000000227c1.6000000000000085 4.600000000000023 2.1000000000000085 10.399999999999977 5.1000000000000085 13.600000000000023 7.599999999999994 8 8.899999999999991 14.799999999999955 3.0999999999999943 23.299999999999955-1.5999999999999943 2.300000000000068-2.299999999999997 6.300000000000068-1.5999999999999943 9 2.5999999999999943 10 5.699999999999989 19.90000000000009 9.199999999999989 29.600000000000023 1 2.800000000000068 3.200000000000003 6.100000000000023 5.800000000000011 7.399999999999977 11.599999999999994 5.5 14 9.700000000000045 11.199999999999989 21.90000000000009-0.29999999999999716 1.3999999999999773-0.5999999999999943 3.2999999999999545 0.10000000000000853 4.2999999999999545 7.8999999999999915 10.600000000000023 15.700000000000003 21.299999999999955 24.200000000000003 31.5 1.2999999999999972 1.6000000000000227 6 0.10000000000002274 8.199999999999989 1.5 5.300000000000011 3.5 14.200000000000017 8.200000000000045 14 11.899999999999977-0.4000000000000057 8.399999999999977 3.5999999999999943 11.899999999999977 9 15.600000000000023 6.800000000000011 4.7000000000000455 13.599999999999994 9.700000000000045 21 13.299999999999955 3.5999999999999943 1.7000000000000455 8.800000000000011 1.400000000000091 12.900000000000006 0.5 4.599999999999994-1.099999999999909 17.69999999999999 3 18.30000000000001 7.5 0.8999999999999773 6.600000000000023 5 8.900000000000091 10.5 10.300000000000068 8.299999999999983 2.1000000000000227 16.599999999999994 4.899999999999977 25 5.7999999999999545 4.599999999999994 0.5 9.399999999999977-3.1000000000000227 14.299999999999983-3.699999999999932 6.299999999999983-0.7000000000000455 16.099999999999994-2.7000000000000455 18.299999999999983 0.39999999999997726 5.300000000000011 7.199999999999932 11.200000000000045 6.600000000000023 17.900000000000034 6.100000000000023 7.599999999999966-0.6000000000000227 15.399999999999977-1.1000000000000227 22.899999999999977-2.5 3.5-0.6000000000000227 7.800000000000011-2.300000000000068 9.800000000000011-5 7.199999999999989-9.600000000000023 13-11.5 23.30000000000001-7 2.599999999999966 1.099999999999909 6.5 1.099999999999909 9.199999999999989-0.10000000000002274 9.199999999999989-3.8999999999999773 18.5-8.100000000000023 27-13.200000000000045 3.1999999999999886-1.8999999999999773 4.100000000000023-7.2999999999999545 6.899999999999977-10.199999999999932 4.5-4.7000000000000455 10.900000000000034-13 14.5-12.100000000000023 8.200000000000045 2.1000000000000227 12.400000000000034-1.2000000000000455 17.100000000000023-5.800000000000068 5.899999999999977-5.7999999999999545 11.899999999999977-11.599999999999909 17.19999999999999-17.899999999999977 2.1999999999999886-2.5 4.199999999999989-6.2999999999999545 4-9.299999999999955-0.6999999999999886-12.399999999999977 2.1000000000000227-16.5 14.199999999999989-20.399999999999977 2.5-0.8000000000000682 5.100000000000023-3.2000000000000455 6.300000000000011-5.600000000000023 4.5-9 9.100000000000023-18 12.400000000000034-27.399999999999977 1.2999999999999545-3.5 0.2999999999999545-8.600000000000023-1.3000000000000114-12.300000000000068-2.5-5.7999999999999545 0.30000000000001137-16.199999999999932 5.199999999999989-20 3.3000000000000114-2.6000000000000227 7-6.899999999999977 7.399999999999977-10.699999999999932 1.400000000000034-15.300000000000068 1.8000000000000114-30.700000000000045 2.1000000000000227-46 0.10000000000002274-3.2000000000000455-1.3000000000000114-7.400000000000091-3.5-9.600000000000023-10-9.899999999999977-10.600000000000023-13.100000000000023-4.899999999999977-25z m-203.70000000000005 181.79999999999995c-73.49999999999997-0.10000000000002274-133.2-59.799999999999955-133.2-133.29999999999995 0-73.39999999999998 59.80000000000001-133.5 133.10000000000002-133.70000000000005 73.39999999999998-0.1999999999999318 134.2 60.700000000000045 133.89999999999998 134-0.30000000000001137 73.39999999999998-60.30000000000001 133.10000000000002-133.8 133z m0.30000000000001137-196.69999999999993c-34.599999999999994 0-63.39999999999998 28.799999999999955-63.5 63.19999999999993 0 34.5 28.80000000000001 63.39999999999998 63.30000000000001 63.5 34.39999999999998 0.10000000000002274 63.19999999999999-28.699999999999932 63.30000000000001-63.299999999999955 0.19999999999998863-34.5-28.600000000000023-63.39999999999998-63.10000000000002-63.39999999999998z"/>
</svg>
