<svg xmlns="http://www.w3.org/2000/svg" viewBox="0 0 1000 1000" width="1000" height="1000">
<path d="M272.2 418.5c24.600000000000023-8.199999999999989 49.30000000000001-16 73.90000000000003-24 75.09999999999997-24.19999999999999 150.09999999999997-48.60000000000002 225.10000000000002-72.80000000000001 3.599999999999909-1.099999999999966 8.399999999999977-0.8000000000000114 4.899999999999977-7.5-25.399999999999977-48.89999999999998-55.5-94.6-95.90000000000003-132.6-24.19999999999999-22.69999999999999-51-41.599999999999994-83.39999999999998-51.400000000000006-38.900000000000034-11.599999999999994-71.5-1-95.90000000000003 31.400000000000006-7.599999999999966 10.099999999999994-13.599999999999966 21-18.5 32.5-19.099999999999966 44.900000000000006-23.299999999999955 92.29999999999998-24.099999999999966 137.29999999999998 0.30000000000001137 29.400000000000034 2.3999999999999773 55.5 5.399999999999977 81.5 0.9000000000000341 6.2000000000000455 2.6999999999999886 7.7000000000000455 8.5 5.600000000000023z m-45.89999999999998 8.100000000000023c-3.1000000000000227-19-5-38.10000000000002-6-57.400000000000034-2.5-46.5-1.200000000000017-92.69999999999999 9.099999999999994-138.2 4.099999999999994-18.099999999999994 9.799999999999983-35.69999999999999 17.099999999999994-53.69999999999999-87.69999999999999 45-183.8 213.39999999999998-174.6 305 1.3999999999999915-0.19999999999998863 2.8999999999999915-0.10000000000002274 4.199999999999989-0.5 48.5-15.699999999999989 96.9-31.30000000000001 145.4-46.900000000000034 4.800000000000011-1.5 5.5-4 4.800000000000011-8.299999999999955z m93.69999999999999-329.8c6.600000000000023-3.700000000000017 13.899999999999977-6.6000000000000085 21.30000000000001-7.300000000000011 9.300000000000011-0.9000000000000057 9.599999999999966-5 6.099999999999966-11.799999999999997l-1.8999999999999773-4.900000000000006c-4.300000000000011-8-13.800000000000011-12.099999999999994-22.30000000000001-9.599999999999994-8.5 2.3999999999999915-14.199999999999989 10.099999999999994-14.099999999999966 19.39999999999999-0.30000000000001137 3.3000000000000114 1.6999999999999886 6.700000000000003 2.3999999999999773 10.400000000000006 1.3000000000000114 5.5 3.6000000000000227 6.5 8.5 3.799999999999997z m291.4 200.7c3.800000000000068 7.5 6.800000000000068 9.600000000000023 15.399999999999977 6.699999999999989 48.80000000000007-16.399999999999977 97.90000000000009-32 147.10000000000002-47.5 8-2.5 7.899999999999977-4.5 2.800000000000068-10.299999999999983-43.700000000000045-49.900000000000006-96.10000000000002-87.20000000000002-157.80000000000007-111.4-53.89999999999998-21.200000000000003-109.79999999999995-30.400000000000006-168.09999999999997-26.200000000000003 19.80000000000001 12.700000000000003 38.30000000000001 26.60000000000001 55.19999999999999 42.60000000000001 44.5 41.900000000000006 78 91.79999999999998 105.39999999999998 146.1z m-4.2999999999999545 567.8c-6.2000000000000455-19.199999999999932-6.2000000000000455-19.199999999999932-26.200000000000045-19.09999999999991-4.399999999999977 0-8.699999999999932 0.2999999999999545-13.100000000000023-0.10000000000002274-5.7999999999999545-0.39999999999997726-7.7999999999999545 1-5.599999999999909 7.2999999999999545 7 20 13.299999999999955 40.200000000000045 20.09999999999991 60.30000000000007 3.900000000000091 11.599999999999909 13.800000000000068 17.09999999999991 24.40000000000009 13.699999999999932 11.099999999999909-3.5 16.09999999999991-13.699999999999932 12.299999999999955-25.699999999999932l-11.899999999999977-36.40000000000009z m302.9-236.5999999999999c-17.399999999999977-9.100000000000023-37.5-2.6000000000000227-47.799999999999955 15.599999999999909-4.5 7.900000000000091-9.200000000000045 15.600000000000023-14.900000000000091 22.600000000000023-43.69999999999993 53.80000000000007-101.69999999999993 78.39999999999998-169.69999999999993 80.20000000000005-46.39999999999998 1.1999999999999318-92.70000000000005 0.2999999999999545-139.10000000000002 0.2999999999999545v0.20000000000004547c-30.899999999999977 0-61.89999999999998-0.20000000000004547-92.69999999999999 0.10000000000002274-44.900000000000034 0.2999999999999545-89.69999999999999 2.199999999999932-133.90000000000003 11.5-77.69999999999999 16.399999999999977-136.2 60.799999999999955-182.7 123.29999999999995-8.899999999999991 12-8.199999999999989 29.299999999999955 0.5 40.89999999999998 9.400000000000006 12.300000000000068 25.30000000000001 17.200000000000045 39.80000000000001 12.200000000000045 8.699999999999989-3 14.5-9.399999999999977 19.900000000000006-16.399999999999977 27.5-35.80000000000007 60.19999999999999-64.90000000000009 103.20000000000002-80.90000000000009 38.799999999999955-14.399999999999977 79.29999999999995-19.199999999999932 120.19999999999999-19.5 83.09999999999997-0.6999999999999318 166.2-0.2999999999999545 249.40000000000003-0.5 46.19999999999993-0.09999999999990905 91.19999999999993-6.899999999999977 133.69999999999993-25.799999999999955 55-24.5 98.5-61.89999999999998 128-114.70000000000005 10.200000000000045-18.799999999999955 3.800000000000068-39.69999999999993-13.899999999999977-49.09999999999991z m-478.2-171.70000000000005c26.5 81.39999999999998 53.5 162.60000000000002 80.19999999999999 243.79999999999995 6.2999999999999545 19.100000000000023 6.2000000000000455 19.100000000000023 26.399999999999977 19 3.800000000000068 0 7.600000000000023-0.2999999999999545 11.399999999999977 0.10000000000002274 8.300000000000068 1 8.700000000000045-1.8999999999999773 6.400000000000091-9.299999999999955-27.90000000000009-84-55.50000000000006-168.10000000000002-83.10000000000002-252.20000000000005-2.3000000000000114-6.899999999999977-7.600000000000023-15.199999999999989-5.5-20.5 2.3999999999999773-6.099999999999966 12.899999999999977-6.099999999999966 20-8.399999999999977 101.39999999999998-32.80000000000001 202.79999999999995-65.5 304.1-98.30000000000001 13.299999999999955-4.300000000000011 19.299999999999955-14.599999999999966 15.5-25.899999999999977-3.7000000000000455-10.800000000000011-14.400000000000091-15.100000000000023-27.40000000000009-11.100000000000023-11.099999999999909 3.5-22.09999999999991 7.199999999999989-33.19999999999993 10.800000000000011l-569.3 184c-26.900000000000063 8.699999999999989-53.80000000000007 17.19999999999999-80.60000000000007 26.200000000000045-11.5 3.7999999999999545-16.400000000000006 14.199999999999932-13 24.899999999999977 3 9.5 13.099999999999994 14.600000000000023 24.099999999999994 12.199999999999932 2.299999999999997-0.5 4.5-1.2999999999999545 6.6000000000000085-2 101.9-33 203.9-65.89999999999998 305.79999999999995-98.99999999999994 6.7000000000000455-2.1000000000000227 9.400000000000091-1.1999999999999886 11.60000000000008 5.699999999999989z m326.7 432.5c0-12.799999999999955-0.20000000000004547-25.600000000000023 0.10000000000002274-38.39999999999998 0.10000000000002274-4.5-1.5-6.100000000000023-6-6-12.800000000000068 0.2999999999999545-25.600000000000023 0.2999999999999545-38.39999999999998 0.10000000000002274-4.300000000000068-0.10000000000002274-6.400000000000091 1-6.300000000000068 5.7999999999999545 0.20000000000004547 25.600000000000023 0.20000000000004547 51.200000000000045 0.20000000000004547 76.79999999999995 0 4 1.2999999999999545 5.800000000000068 5.5 5.7000000000000455 13.100000000000023-0.20000000000004547 26.199999999999932-0.2999999999999545 39.299999999999955-0.10000000000002274 4.5 0 5.899999999999977-1.7999999999999545 5.899999999999977-6.2999999999999545-0.2999999999999545-12.600000000000023-0.1999999999999318-25.100000000000023-0.2999999999999545-37.60000000000002z"/>
</svg>
