<svg xmlns="http://www.w3.org/2000/svg" viewBox="0 0 1000 1000" width="1000" height="1000">
<path d="M153.2 460.5c0-8.699999999999989-3.0999999999999943-16.600000000000023-9.599999999999994-23.69999999999999s-14.199999999999989-10.5-23.39999999999999-10.5-16.900000000000006 3.3999999999999773-23.400000000000006 10.5-9.599999999999994 15.099999999999966-9.599999999999994 23.69999999999999v477h66.10000000000001v-134.29999999999995h693.5999999999999v134.19999999999993h66.10000000000014v-201.5h-759.8v-275.4z m61.400000000000006 32.89999999999998c-11.900000000000006 12.100000000000023-17.799999999999983 26.5-17.799999999999983 43.39999999999998s5.899999999999977 31.5 17.799999999999983 43.40000000000009c11.900000000000006 12.099999999999909 26.099999999999994 18 42.70000000000002 18s31.19999999999999-6 43.599999999999966-18c12.300000000000011-11.900000000000091 18.600000000000023-26.5 18.600000000000023-43.40000000000009s-6.300000000000011-31.199999999999932-18.600000000000023-43.39999999999998c-12.299999999999955-12.099999999999966-27-18-43.599999999999966-18s-30.80000000000001 5.800000000000011-42.70000000000002 18z m649.9 62.30000000000007l-482.4-47.50000000000006c-8.600000000000023 0-15.800000000000011 3-21.5 8.900000000000034-6 6-9 13.5-9 22.100000000000023v95h-122.70000000000002c-20.200000000000017 0-30.5 8.5-30.5 25.5 0 16.899999999999977 10.299999999999983 25.399999999999977 30.5 25.399999999999977h683.9v-82c0-13-4.5-23.700000000000045-13.699999999999932-31.899999999999977-8.899999999999977-8.100000000000023-20.700000000000045-13.400000000000091-34.60000000000002-15.5z m-372.2-413.80000000000007c1.8999999999999773-1.799999999999983 4.399999999999977-3.3999999999999773 7.899999999999977-5.799999999999983 16.69999999999999 13.099999999999994 33.19999999999999 26 48.900000000000034 38.900000000000006 87.39999999999998 70.6 174.89999999999998 141 261.69999999999993 211.5h106.10000000000002c-1.6000000000000227-1.8000000000000114-3.5-3.3999999999999773-5.2999999999999545-5-62.80000000000007-50.10000000000002-125-100.19999999999999-187.5-150.2l-197-158.5c-16.700000000000045-13.600000000000009-37.30000000000001-13.600000000000009-54-1.4210854715202004e-14-72.80000000000001 58.2-145.40000000000003 116.39999999999999-217.70000000000002 174.7-55.80000000000001 44.80000000000001-111.6 90-167.60000000000002 134.8-1.59999999999998 1.3000000000000114-3.499999999999986 2.599999999999966-4.699999999999989 4.199999999999989h105.4c101.39999999999998-81.60000000000002 202.5-163.3 303.8-244.6z"/>
</svg>
