<svg xmlns="http://www.w3.org/2000/svg" viewBox="0 0 1000 1000" width="1000" height="1000">
<path d="M559.1 724.4v-510.5h-117.80000000000001v510.9h30v-10.599999999999909c0-16.600000000000023-0.4000000000000341-33.30000000000007 0.30000000000001137-50 0.8999999999999773-21.200000000000045 21.099999999999966-34.60000000000002 39.5-26.40000000000009 12.199999999999932 5.300000000000068 18 15.200000000000045 18 28.5v58.10000000000002h30z m-87-481.29999999999995h56.19999999999993v57.099999999999966h-56.19999999999993v-57.099999999999994z m56.19999999999993 325.9h-56.299999999999955v-56.5h56.200000000000045l0.09999999999990905 56.5z m0-134.10000000000002h-56.299999999999955v-57.099999999999966h56.299999999999955v57.099999999999966z m-232.09999999999997 290.4h112.5v-373.69999999999993h-112.5v373.69999999999993z m28.100000000000023-347.4h56.69999999999999v57.10000000000002h-56.69999999999999v-57.10000000000002z m-0.19999999999998863 134.30000000000007h56.69999999999999v56.59999999999991h-56.69999999999999v-56.59999999999991z m267.29999999999995-160.90000000000003v374.59999999999997h113.30000000000007v-7.600000000000023c0.09999999999990905-1 0.1999999999999318-1.8999999999999773 0.09999999999990905-3.099999999999909-0.2999999999999545-118.90000000000009-0.1999999999999318-237.80000000000007-0.1999999999999318-356.70000000000005 0-2.3000000000000114-0.39999999999997726-4.5-0.6000000000000227-7.100000000000023l-112.60000000000002-0.0999999999999659z m28 26.399999999999977h56.30000000000007v57.10000000000002h-56.30000000000007v-57.10000000000002z m56.60000000000002 191.3h-56.5v-57h56.5v57z m-524.3 156.10000000000002h112.79999999999995v-238.40000000000003h-112.80000000000001v238.40000000000003z m27.999999999999943-212.89999999999998h57.30000000000001v56.69999999999993h-57.19999999999999v-56.69999999999993z m555.8 212.89999999999998h112.79999999999995v-238.40000000000003h-112.79999999999995v238.40000000000003z m27.700000000000045-212.80000000000007h57.299999999999955v56.40000000000009h-57.299999999999955v-56.40000000000009z m-614.5 231.70000000000005v123.89999999999998h702.5v-123.89999999999998h-702.5z m249.39999999999998 102.39999999999998h-17.200000000000045v-38h-33.89999999999998v38h-17.19999999999999v-82.79999999999995h17.19999999999999v28.799999999999955h33.89999999999998v-28.799999999999955h17.200000000000045v82.79999999999995z m94.79999999999995-24.600000000000023c-1.099999999999966 2.5-2.3999999999999773 5-4.099999999999966 7.400000000000091-5.100000000000023 7.2999999999999545-11.600000000000023 12.599999999999909-19.900000000000034 16-5.399999999999977 2.199999999999932-11 3.2999999999999545-16.599999999999966 3.2999999999999545-2.900000000000034 0-5.900000000000034-0.2999999999999545-8.800000000000011-0.8999999999999773-5.899999999999977-1.1000000000000227-11.199999999999989-3.300000000000068-15.800000000000011-6.5-2.1999999999999886-1.3999999999999773-4.5-3.1000000000000227-6.599999999999966-5.300000000000068-4.2000000000000455-4.099999999999909-7.400000000000034-8.799999999999955-9.600000000000023-13.899999999999977-2.3000000000000114-5.199999999999932-3.3000000000000114-10.799999999999955-3.3000000000000114-16.5 0-1.5 0.10000000000002274-3 0.30000000000001137-4.399999999999977 0.6999999999999886-7.2999999999999545 3.1000000000000227-13.899999999999977 7.199999999999989-19.899999999999977 3.1999999999999886-4.800000000000068 7.400000000000034-8.800000000000068 12.199999999999989-12v-0.10000000000002274c7.300000000000011-4.7000000000000455 15.400000000000034-7.100000000000023 24.5-7.100000000000023 8.900000000000034 0 17.100000000000023 2.3999999999999773 24.400000000000034 7.100000000000023 4.899999999999977 3.2000000000000455 9 7.2999999999999545 12.199999999999989 12.100000000000023 4.899999999999977 7.2999999999999545 7.399999999999977 15.299999999999955 7.399999999999977 24-0.19999999999998863 5.7999999999999545-1.1999999999999886 11.399999999999977-3.5 16.699999999999932z m42.89999999999998-42.799999999999955v67.39999999999998h-17.199999999999932v-67.39999999999998h-20.80000000000001l3.5-15.399999999999977h51.69999999999999l3.5 15.399999999999977h-20.700000000000045z m78.80000000000007 0h-31v15h31v15.799999999999955h-31v20.700000000000045h31v15.899999999999977h-48.200000000000045v-82.79999999999995h48.200000000000045v15.399999999999977z m55.69999999999993 67.39999999999998h-45.799999999999955v-82.79999999999995h17.299999999999955v66.89999999999998h28.40000000000009v15.899999999999977h0.09999999999990905z m-207.99999999999994-66.19999999999993c-3.400000000000034-1.400000000000091-6.800000000000011-2.2000000000000455-10.199999999999989-2.2000000000000455-3.3000000000000114 0-6.600000000000023 0.7000000000000455-10.100000000000023 2.1000000000000227-0.5 0.2999999999999545-1.3000000000000114 0.6999999999999318-2.3999999999999773 1.1999999999999318-1.1000000000000227 0.5-1.8000000000000114 1-2.2000000000000455 1.3000000000000682-1.2999999999999545 0.8999999999999773-2.599999999999966 1.8999999999999773-3.8999999999999773 3.2999999999999545v0.10000000000002274c-1.1999999999999886 1.2000000000000455-2.3000000000000114 2.5-3.3000000000000114 4-0.8999999999999773 1.3999999999999773-1.8000000000000114 3-2.3999999999999773 4.7000000000000455-1.3000000000000114 3.2999999999999545-2 6.699999999999932-2 10.299999999999955 0 0.8999999999999773 0 1.7999999999999545 0.0999999999999659 2.6000000000000227 0.4000000000000341 4.5 1.8000000000000114 8.699999999999932 4.300000000000011 12.399999999999977 3 4.5 6.900000000000034 7.899999999999977 11.800000000000011 10 3.5 1.5 7 2.2999999999999545 10.300000000000011 2.2999999999999545 4.899999999999977 0 9.699999999999989-1.599999999999909 14.300000000000011-4.7999999999999545 7.7999999999999545-5.2999999999999545 11.699999999999989-12.799999999999955 11.699999999999989-22.5 0-3.7000000000000455-0.6999999999999886-7.2000000000000455-2-10.299999999999955-2.6999999999999886-6.800000000000068-7.5-11.700000000000045-14-14.5z m-313.6 108.19999999999993h702.5v49.10000000000002h-702.5v-49.10000000000002z m308.6-696.0999999999999l42.19999999999999-22.10000000000008 42.200000000000045 22.100000000000023-8.100000000000023-46.900000000000006 34.10000000000002-33.30000000000001-47.200000000000045-6.799999999999997-21.100000000000023-42.8-21.099999999999966 42.7-47.19999999999999 6.799999999999997 34.099999999999966 33.19999999999999-7.899999999999977 47.10000000000002z m-140.7 138.29999999999995l35.89999999999998-18.80000000000001 35.89999999999998 18.80000000000001-6.7999999999999545-39.900000000000034 29.099999999999966-28.30000000000001-40.099999999999966-5.899999999999977-17.900000000000034-36.30000000000001-17.899999999999977 36.30000000000001-40.10000000000002 5.899999999999977 29 28.30000000000001-7.099999999999966 39.900000000000034z m295.69999999999993 0l35.90000000000009-18.80000000000001 35.89999999999998 18.80000000000001-6.800000000000068-39.900000000000034 29-28.30000000000001-40.09999999999991-5.899999999999977-17.90000000000009-36.30000000000001-17.899999999999977 36.30000000000001-40.10000000000002 5.899999999999977 29 28.30000000000001-7 39.900000000000034z m-440.09999999999997 131.39999999999998l35.900000000000006-18.80000000000001 35.900000000000006 18.80000000000001-6.800000000000011-39.89999999999998 29-28.30000000000001-40.099999999999994-5.900000000000034-17.900000000000006-36.299999999999955-18 36.39999999999998-40.099999999999994 5.899999999999977 29.099999999999994 28.30000000000001-7 39.80000000000001z m582.2 0l35.899999999999864-18.80000000000001 35.90000000000009 18.80000000000001-6.800000000000068-39.89999999999998 29-28.30000000000001-40.10000000000002-5.900000000000034-17.899999999999977-36.299999999999955-18 36.39999999999998-40.10000000000002 5.899999999999977 29 28.30000000000001-6.899999999999977 39.80000000000001z"/>
</svg>
