<svg xmlns="http://www.w3.org/2000/svg" viewBox="0 0 1000 1000" width="1000" height="1000">
<path d="M927.8 280.6c-45.69999999999993-34.30000000000001-91.5-68.40000000000003-137-102.90000000000003-11.699999999999932-8.799999999999983-24.299999999999955-12.899999999999977-38.89999999999998-12.799999999999983-61.69999999999993 0.19999999999998863-123.39999999999998 0-185.10000000000002 0.29999999999998295-7.5 0-9.099999999999909-2.299999999999983-8.899999999999977-9.199999999999989 0.5-16.099999999999994 0.3000000000000682-32.2 0.20000000000004547-48.3-0.10000000000002274-17.799999999999997-12-29.900000000000006-29.700000000000045-30.10000000000001-18.5-0.19999999999998863-37.099999999999966-0.19999999999998863-55.599999999999966 0-19 0.20000000000000284-30.600000000000023 11.800000000000011-30.80000000000001 30.80000000000001-0.19999999999998863 16.099999999999994-0.39999999999997726 32.19999999999999 0.10000000000002274 48.29999999999998 0.19999999999998863 7-2 8.600000000000023-8.700000000000045 8.5-38-0.29999999999998295-76-0.29999999999998295-114-0.19999999999998863-30 0.09999999999999432-52.5 22.5-52.599999999999966 52.400000000000006-0.10000000000002274 51.70000000000002-0.10000000000002274 103.29999999999998 0 154.99999999999997 0.0999999999999659 33.10000000000002 21.69999999999999 54.5 54.89999999999998 54.60000000000002 37.400000000000034 0 74.80000000000001 0.19999999999998863 112.10000000000002-0.10000000000002274 6.399999999999977-0.0999999999999659 8.300000000000011 1.8000000000000114 8.099999999999966 8.200000000000045-0.5 13.699999999999989-0.5999999999999659 27.399999999999977 0 41 0.4000000000000341 7.899999999999977-1.6999999999999886 10.199999999999989-9.899999999999977 10.099999999999966-62.30000000000001-0.39999999999997726-124.60000000000002-0.0999999999999659-186.9-0.19999999999998863-12.299999999999983 0-23.299999999999983 3.3000000000000114-33.099999999999994 10.699999999999989-46.900000000000006 35.19999999999999-93.9 70.30000000000001-140.7 105.59999999999997-12.20000000000001 9.200000000000045-11.900000000000013 20.600000000000023 0.3999999999999915 29.90000000000009 46.599999999999994 35 93.3 70 140 105 10.100000000000023 7.599999999999909 21.400000000000006 11 34 10.899999999999977 30.69999999999999-0.10000000000002274 61.400000000000034 0 92.10000000000002 0 31.599999999999966 0 63.19999999999999 0.2999999999999545 94.80000000000001-0.20000000000004547 7.899999999999977-0.10000000000002274 9.399999999999977 2.5 9.299999999999955 9.800000000000068-0.2999999999999545 44.69999999999993-0.19999999999998863 89.29999999999995-0.0999999999999659 134 0 20 11.899999999999977 31.5 31.899999999999977 31.5h51.099999999999966c22 0 33-11.100000000000023 33.10000000000002-33.10000000000002 0-44.39999999999998 0.20000000000004547-88.70000000000005-0.1999999999999318-133.10000000000002-0.10000000000002274-7.2999999999999545 2.099999999999909-9.100000000000023 9.099999999999909-9 37.700000000000045 0.39999999999997726 75.40000000000009 0.20000000000004547 113 0.20000000000004547 30.5 0 53-22.40000000000009 53.10000000000002-52.90000000000009 0.10000000000002274-52 0.10000000000002274-103.89999999999998-0.10000000000002274-155.89999999999998-0.09999999999990905-31.299999999999955-22.199999999999932-53.19999999999999-53.5-53.19999999999999-37.69999999999993 0-75.39999999999998-0.19999999999998863-113 0.10000000000002274-6.7999999999999545 0.0999999999999659-8.899999999999977-1.6999999999999886-8.599999999999909-8.600000000000023 0.599999999999909-13.300000000000011 0.599999999999909-26.80000000000001 0-40.099999999999966-0.40000000000009095-8 1.599999999999909-10.700000000000045 10.299999999999955-10.600000000000023 62.299999999999955 0.39999999999997726 124.60000000000002 0.19999999999998863 186.89999999999998 0.19999999999998863 12.300000000000068 0 23.300000000000068-3.599999999999966 33.10000000000002-10.899999999999977 46.700000000000045-35 93.29999999999995-70 139.89999999999998-105 12.899999999999977-9.800000000000011 12.700000000000045-21.100000000000023-0.10000000000002274-30.69999999999999z m-268.4 263.1c14.5 0 16 1.599999999999909 16 16.299999999999955v115.70000000000005c0 12.199999999999932-2.2999999999999545 14.5-14.199999999999932 14.5-136.70000000000005 0-273.40000000000003 0-410.00000000000006 0.09999999999990905-4.799999999999983 0-8.799999999999983-1-12.699999999999989-3.8999999999999773-26.900000000000006-19.799999999999955-53.900000000000006-39.39999999999998-80.9-59.10000000000002-11-8-10.900000000000006-12.799999999999955 0-20.799999999999955 26.5-19.399999999999977 53-38.60000000000002 79.4-58.10000000000002 4.599999999999994-3.3999999999999773 9.300000000000011-4.899999999999977 15.099999999999994-4.899999999999977 68.00000000000003 0.10000000000002274 136.1 0.10000000000002274 204.1 0.10000000000002274 67.69999999999999 0.10000000000002274 135.50000000000006 0.10000000000002274 203.2 0.10000000000002274z m183-237.30000000000007c-26.5 19.400000000000034-53 38.60000000000002-79.39999999999998 58.10000000000002-4.600000000000023 3.3999999999999773-9.299999999999955 4.899999999999977-15.100000000000023 4.899999999999977-135.79999999999995-0.0999999999999659-271.5-0.0999999999999659-407.29999999999995-0.0999999999999659-14.5 0-16-1.6999999999999886-16-16.30000000000001v-114.80000000000001c0-13.5 1.8999999999999773-15.399999999999977 15.099999999999966-15.399999999999977h205.00000000000006c67.39999999999998 0 134.89999999999998 0.09999999999999432 202.29999999999995-0.10000000000002274 6.399999999999977 0 11.5 1.6000000000000227 16.700000000000045 5.5 26.09999999999991 19.400000000000006 52.5 38.30000000000001 78.69999999999993 57.5 11 8 11 12.699999999999989 0 20.69999999999999z"/>
</svg>
