<svg xmlns="http://www.w3.org/2000/svg" viewBox="0 0 1000 1000" width="1000" height="1000">
<path d="M842.4 447.7c-48.39999999999998-47.099999999999966-106-60.5-170.19999999999993-37-12.100000000000023 4.400000000000034-16.800000000000068 4.800000000000011-22.300000000000068-9-41.799999999999955-104.19999999999999-139.2-161.6-249.79999999999995-148.7-101.10000000000002 11.699999999999989-180.70000000000002 91.69999999999999-199.40000000000003 199.89999999999998-1.0999999999999943 6.5-0.19999999999998863 14.700000000000045-8 18-17.899999999999977 7.600000000000023-32.099999999999994 18.400000000000034-43.69999999999999 31.200000000000045l-0.09999999999999432-0.30000000000001137s-84.80000000000001 80.30000000000001-1.8000000000000114 172.8c2.3000000000000114 2.699999999999932 4.5 5.399999999999977 7.099999999999994 7.899999999999977l1.1000000000000227 1.2000000000000455 0.09999999999999432-0.20000000000004547c20.099999999999994 19.299999999999955 45.900000000000006 31 77.5 33.89999999999998 32.29999999999998 3 65.20000000000002 0.20000000000004547 97.70000000000002 1.1000000000000227 12.5 0.2999999999999545 14.299999999999955-6.600000000000023 16.899999999999977-16l46.10000000000002-168c3.099999999999966-11.399999999999977 7.5-16.700000000000045 20.799999999999955-16.399999999999977 43.700000000000045 1 87.40000000000003 0.8999999999999773 131.10000000000002 0.10000000000002274 14.200000000000045-0.3000000000000682 16.299999999999955 4 12.399999999999977 16.699999999999932-9.299999999999955 31.100000000000023-17.299999999999955 62.39999999999998-26.699999999999932 96.5h141c-21.100000000000023 29.800000000000068-40 56.60000000000002-61.10000000000002 86.60000000000002 42.69999999999993 0 81.29999999999995 1 119.79999999999995-0.2999999999999545 68.10000000000002-2.400000000000091 117.10000000000002-35.200000000000045 144.5-97.40000000000009 26-58.59999999999991 13.200000000000045-127.69999999999993-33-172.59999999999997z m-333.2 213.00000000000006c-13.300000000000011 0.2999999999999545-18.899999999999977-1.3000000000000682-13.599999999999966-17.100000000000023 8.799999999999955-26.899999999999977 14.799999999999955-54.700000000000045 22.899999999999977-81.80000000000007 3.1000000000000227-10.5 0.5-13.599999999999909-10-13.399999999999977-24.899999999999977 0.39999999999997726-49.89999999999998 0.3000000000000682-74.80000000000001 0-8-0.10000000000002274-12.899999999999977 2.3999999999999773-15 10.5-15 54.60000000000002-30.19999999999999 109.20000000000005-45.39999999999998 163.70000000000005-2.400000000000034 8.600000000000023-0.5 12.699999999999932 9.5 12.399999999999977 19.30000000000001-0.5 38.80000000000001 0.5 58.19999999999999-0.39999999999997726 14.600000000000023-0.7000000000000455 20.69999999999999 0.5 16 18.799999999999955-15.699999999999989 60.10000000000002-28.80000000000001 120.80000000000007-42.89999999999998 181.30000000000007l3.2999999999999545 2.599999999999909c64.90000000000003-91.29999999999995 129.80000000000007-182.5999999999999 196.89999999999998-277-38.69999999999993 0.20000000000004547-71.89999999999998-0.1999999999999318-105.09999999999997 0.40000000000009095z m171.09999999999997-347.50000000000006c-5.899999999999977-3-11.799999999999955-2.1999999999999886-16.899999999999977 2-8.699999999999932 7.300000000000011-6.899999999999977 20.600000000000023 3.6000000000000227 26.100000000000023 12.399999999999977 6.399999999999977 24.799999999999955 12.5 37.39999999999998 18.69999999999999 10.899999999999977 5.5 15 5 24.100000000000023-3 0.7000000000000455-1.3999999999999773 1.3999999999999773-2.8999999999999773 2.2000000000000455-4.300000000000011 0-0.5999999999999659-0.10000000000002274-1.3000000000000114 0-1.8999999999999773 1-7.5-1.900000000000091-13.400000000000034-8.700000000000045-16.900000000000034-13.899999999999977-6.7999999999999545-27.799999999999955-13.799999999999955-41.700000000000045-20.69999999999999z m-229.59999999999997-98.1c-2.3000000000000114 4.5-4.099999999999966 9.099999999999994-5.699999999999989 13.700000000000017 79.10000000000002-2 149.39999999999998 32.89999999999998 194.10000000000002 95.5 2.2999999999999545-3.5 4.5-7.199999999999989 6.5-11 26.899999999999977-53.69999999999999 5.399999999999977-119-48.30000000000007-146-54.09999999999991-27.30000000000001-119.59999999999997-5.900000000000006-146.59999999999997 47.79999999999998z m222.00000000000006 38.80000000000001c-1 6.499999999999972 2.3999999999999773 13.400000000000006 8.299999999999955 16.400000000000006 2.2000000000000455 1.1999999999999886 4.5 1.8000000000000114 6.899999999999977 1.6999999999999886 16.300000000000068-0.8999999999999773 32.5-1.6000000000000227 48.80000000000007-2.8000000000000114 8.199999999999932-0.5999999999999659 14.099999999999909-8 13.599999999999909-16-0.39999999999997726-8.199999999999989-6.699999999999932-15-15-14.799999999999983-16.699999999999932 0.5-33.299999999999955 1.5999999999999943-50 2.799999999999983-6.5 0.5-11.599999999999909 6.100000000000023-12.599999999999909 12.700000000000017z m-66.80000000000007-97.70000000000002c7.800000000000068 3.8000000000000114 17 0.700000000000017 21.100000000000023-7.299999999999983 3.5-6.800000000000011 6.7999999999999545-13.599999999999994 10.200000000000045-20.5l10.099999999999909-20.10000000000001 0.3000000000000682-0.7000000000000028c3.7999999999999545-8 0.7999999999999545-17.099999999999994-6.800000000000068-20.89999999999999-7.7999999999999545-4-17.09999999999991-1-21.199999999999932 7.099999999999994-7 13.700000000000003-13.800000000000068 27.5-20.600000000000023 41.2-3.8999999999999773 8-0.8999999999999773 17.400000000000006 6.899999999999977 21.19999999999999z m-231.79999999999995 38.400000000000006l20.799999999999955 10.5c6.800000000000011 3.4000000000000057 13.600000000000023 6.900000000000006 20.5 10.200000000000017 7.900000000000034 3.8999999999999773 16.600000000000023 1.299999999999983 20.80000000000001-6.100000000000023 4.199999999999989-7.5 1.8000000000000114-17.099999999999994-6-21.19999999999999-14.199999999999989-7.5-28.599999999999966-14.699999999999989-43.099999999999966-21.599999999999994-7.800000000000011-3.700000000000017-17 0.09999999999999432-20.5 7.400000000000006-3.7000000000000455 7.899999999999977-0.5 16.799999999999983 7.5 20.799999999999983z m284.1 10.400000000000006c4.899999999999977 2.4000000000000057 10 2.5999999999999943 14.599999999999909-0.30000000000001137 13.700000000000045-8.699999999999989 27.5-17.69999999999999 40.90000000000009-26.899999999999977 6.7999999999999545-4.600000000000023 8-14 3.699999999999932-20.700000000000017-4.5-6.799999999999983-13.5-9.5-20.5-5.199999999999989-13.899999999999977 8.699999999999989-27.699999999999932 17.69999999999999-41.19999999999993 27-9.400000000000091 6.599999999999994-7.7000000000000455 20.900000000000006 2.5 26.099999999999994z m-125.5-66.5c10.799999999999955 5.300000000000011 22.899999999999977-2.4000000000000057 22.399999999999977-14.599999999999994-0.6000000000000227-15.700000000000003-1.7000000000000455-31.200000000000003-2.800000000000068-46.80000000000001-0.599999999999909-9-7.7999999999999545-14.999999999999993-16.399999999999977-14.499999999999993-8.699999999999932 0.6000000000000014-15 7.499999999999993-14.600000000000023 16.4 0.8000000000000682 15.5 1.7000000000000455 31 2.800000000000068 46.5 0.39999999999997726 5.900000000000006 3.199999999999932 10.300000000000011 8.600000000000023 13z m-75.40000000000003 17.5c1.599999999999966 2.4000000000000057 3.6999999999999886 4.300000000000011 5.5 5.099999999999994 7.099999999999966 3.5 14.5 2.200000000000017 19.19999999999999-2.9000000000000057 4.800000000000011-5.199999999999989 5.699999999999989-12.799999999999983 1.6999999999999886-18.899999999999977-8.5-13.100000000000009-17.099999999999966-26.200000000000017-25.80000000000001-39.10000000000001-5.099999999999966-7.6000000000000085-14.599999999999966-9.400000000000006-21.799999999999955-4.5-7.300000000000011 5-9.200000000000045 14-4 21.89999999999999 8.199999999999989 12.900000000000006 16.799999999999955 25.700000000000017 25.19999999999999 38.400000000000006z m106.49999999999994 652.6v6.5l-6-6-4.099999999999909 4.100000000000023 10.099999999999909 10.099999999999909v11c1-0.1999999999999318 1.900000000000091-0.2999999999999545 2.900000000000091-0.2999999999999545s2 0.10000000000002274 2.8999999999999773 0.2999999999999545v-11l10.100000000000023-10.099999999999909-4.100000000000023-4.100000000000023-6 6v-6.5h-5.800000000000068z m5.900000000000091 53.10000000000002c-1 0.1999999999999318-1.900000000000091 0.2999999999999545-2.900000000000091 0.2999999999999545s-2-0.10000000000002274-2.8999999999999773-0.2999999999999545v11l-10.100000000000023 10.099999999999909 4.100000000000023 4.100000000000023 6-6v6.5h5.899999999999977v-6.399999999999977l6 6 4.100000000000023-4.100000000000023-10.199999999999932-10.100000000000023v-11.099999999999909z m-16.5-10.800000000000068c-0.20000000000004547-1-0.3000000000000682-1.8999999999999773-0.3000000000000682-2.8999999999999773s0.10000000000002274-2 0.3000000000000682-2.8999999999999773h-11l-10.200000000000045-10.100000000000023-4.100000000000023 4.100000000000023 6 6h-6.5v5.899999999999977h6.5l-6 6 4.100000000000023 4.100000000000023 10.100000000000023-10.100000000000023 11.100000000000023-0.10000000000002274z m-20.300000000000068-18.100000000000023l14.300000000000068-0.09999999999990905 7.899999999999977 7.7999999999999545c1-1.7000000000000455 2.3999999999999773-3.1000000000000227 4.100000000000023-4.2000000000000455l-7.900000000000091-7.7999999999999545-0.09999999999990905-14.299999999999955h-5.900000000000091v8.5l-4.599999999999909-4.5-4.100000000000023 4.199999999999932 4.600000000000023 4.5h-8.5l0.1999999999999318 5.899999999999977z m22.200000000000045 22.700000000000045l-7.899999999999977 7.7999999999999545-14.300000000000068-0.09999999999990905v5.899999999999977h8.5l-4.600000000000023 4.5 4.100000000000023 4.199999999999932 4.600000000000023-4.5v8.5h5.899999999999977l0.10000000000002274-14.299999999999955 7.899999999999977-7.7999999999999545c-1.8999999999999773-1.1000000000000227-3.2999999999999545-2.5-4.2999999999999545-4.2000000000000455z m51-16.5l-4.100000000000023-4.100000000000023-10.100000000000023 10.100000000000023h-11c0.20000000000004547 1 0.39999999999997726 1.8999999999999773 0.39999999999997726 2.8999999999999773s-0.09999999999990905 2-0.39999999999997726 2.8999999999999773h11l10.100000000000023 10.200000000000045 4.100000000000023-4.100000000000023-6-6h6.5v-5.899999999999977h-6.5l6-6z m-19.399999999999977-6.2999999999999545l14.299999999999955 0.09999999999990905v-5.7999999999999545h-8.5l4.600000000000023-4.5-4.100000000000023-4.2000000000000455-4.600000000000023 4.5v-8.5h-5.899999999999977l-0.10000000000002274 14.300000000000068-7.899999999999977 7.7999999999999545c1.7000000000000455 1 3.1000000000000227 2.5 4.100000000000023 4.2000000000000455l8.100000000000023-7.899999999999977z m14.399999999999977 30.5l-14.300000000000068 0.09999999999990905-7.899999999999977-7.7999999999999545c-1 1.7000000000000455-2.3999999999999773 3.1000000000000227-4.100000000000023 4.2000000000000455l7.900000000000091 7.7999999999999545 0.09999999999990905 14.299999999999955h5.900000000000091v-8.5l4.599999999999909 4.5 4.100000000000023-4.199999999999932-4.600000000000023-4.5h8.5l-0.1999999999999318-5.899999999999977z m-34.30000000000007-4.600000000000023c5.900000000000091 0 10.600000000000023-4.7000000000000455 10.600000000000023-10.600000000000023 0-5.899999999999977-4.699999999999932-10.600000000000023-10.600000000000023-10.600000000000023-5.899999999999977 0-10.599999999999909 4.7000000000000455-10.599999999999909 10.600000000000023s4.699999999999932 10.600000000000023 10.599999999999909 10.600000000000023z m-347.4-82.10000000000002v11l-10.199999999999989-10.200000000000045-7.099999999999994 7.100000000000023 17.30000000000001 17.300000000000068v18.799999999999955c1.6999999999999886-0.2999999999999545 3.299999999999983-0.5 5-0.5s3.4000000000000057 0.20000000000004547 5 0.5v-18.799999999999955l17.299999999999983-17.300000000000068-7.099999999999994-7.100000000000023-10.199999999999989 10.200000000000045v-11h-10z m9.900000000000034 90.60000000000002c-1.700000000000017 0.39999999999997726-3.3000000000000114 0.5-5 0.5s-3.4000000000000057-0.20000000000004547-5-0.5v18.799999999999955l-17.30000000000001 17.399999999999977 7.099999999999994 7.100000000000023 10.200000000000017-10.199999999999932v11h10v-11l10.199999999999989 10.199999999999932 7.099999999999994-7.100000000000023-17.299999999999983-17.299999999999955v-18.899999999999977z m-28.100000000000023-18.399999999999977c-0.29999999999998295-1.6000000000000227-0.5-3.300000000000068-0.5-5 0-1.7000000000000455 0.20000000000001705-3.400000000000091 0.5-5h-18.799999999999983l-17.400000000000006-17.300000000000068-7.099999999999994 7.100000000000023 10.199999999999989 10.200000000000045h-11v10h11l-10.199999999999989 10.299999999999955 7.099999999999994 7.100000000000023 17.30000000000001-17.300000000000068 18.899999999999977-0.09999999999990905z m-34.79999999999998-30.90000000000009l24.5-0.09999999999990905 13.400000000000006 13.299999999999955c1.799999999999983-2.7999999999999545 4.199999999999989-5.2000000000000455 7-7.100000000000023l-13.300000000000011-13.299999999999955-0.09999999999999432-24.5h-10l0.09999999999999432 14.5-7.900000000000006-7.800000000000068-7 7.100000000000023 7.900000000000006 7.800000000000068-14.5 0.09999999999990905-0.09999999999999432 10z m38 38.700000000000045l-13.400000000000006 13.299999999999955-24.5-0.09999999999990905v10l14.5 0.09999999999990905-7.900000000000006 7.800000000000068 7 7.100000000000023 7.900000000000006-7.800000000000068-0.09999999999999432 14.5h10l0.09999999999999432-24.5 13.400000000000006-13.199999999999932c-2.8000000000000114-2-5.200000000000017-4.400000000000091-7-7.2000000000000455z m86.99999999999997-28l-7.099999999999966-7.100000000000023-17.30000000000001 17.300000000000068h-18.80000000000001c0.30000000000001137 1.599999999999909 0.5 3.2999999999999545 0.5 5s-0.19999999999998863 3.3999999999999773-0.5 5h18.80000000000001l17.30000000000001 17.299999999999955 7.099999999999966-7.100000000000023-10.199999999999989-10.299999999999955h11v-10h-11l10.199999999999989-10.100000000000023z m-39.99999999999997-42.39999999999998l-0.09999999999999432 24.5-13.400000000000006 13.199999999999932c2.799999999999983 1.8000000000000682 5.199999999999989 4.300000000000068 7 7.100000000000023l13.400000000000006-13.299999999999955 24.5 0.10000000000002274v-10l-14.5-0.10000000000002274 7.899999999999977-7.800000000000068-7-7.099999999999909-7.899999999999977 7.7999999999999545 0.0999999999999659-14.5-9.999999999999972 0.10000000000002274z m31.400000000000006 83.60000000000002l-24.5 0.09999999999990905-13.400000000000006-13.299999999999955c-1.8000000000000114 2.7999999999999545-4.200000000000017 5.2000000000000455-7 7.100000000000023l13.400000000000006 13.199999999999932 0.09999999999999432 24.5h9.999999999999972l-0.0999999999999659-14.5 7.899999999999977 7.800000000000068 7-7.100000000000023-7.899999999999977-7.7999999999999545 14.5-0.10000000000002274v-9.899999999999977z m-58.5-44.10000000000002c-10 0-18.100000000000023 8.100000000000023-18.100000000000023 18.100000000000023s8.100000000000023 18.09999999999991 18.100000000000023 18.09999999999991c10 0 18.099999999999994-8.099999999999909 18.099999999999994-18.09999999999991s-8.099999999999994-18.100000000000023-18.099999999999994-18.100000000000023z m461.59999999999997-49v5.100000000000023l-4.699999999999932-4.7000000000000455-3.2000000000000455 3.2000000000000455 8 8v8.599999999999909c0.7000000000000455-0.1999999999999318 1.5-0.2999999999999545 2.2999999999999545-0.2999999999999545 0.8000000000000682 0 1.6000000000000227 0.10000000000002274 2.300000000000068 0.2999999999999545v-8.599999999999909l8-8-3.2000000000000455-3.2000000000000455-4.699999999999932 4.7000000000000455v-5.100000000000023h-4.800000000000068z m4.600000000000023 41.39999999999998c-0.7000000000000455 0.20000000000004547-1.5 0.2999999999999545-2.2999999999999545 0.2999999999999545-0.8000000000000682 0-1.6000000000000227-0.09999999999990905-2.300000000000068-0.2999999999999545v8.600000000000023l-8 8 3.2000000000000455 3.199999999999932 4.699999999999932-4.699999999999932v5.100000000000023h4.5v-5.100000000000023l4.7000000000000455 4.699999999999932 3.2000000000000455-3.199999999999932-8-8 0.2999999999999545-8.600000000000023z m-12.899999999999977-8.399999999999977c-0.20000000000004547-0.7000000000000455-0.3000000000000682-1.5-0.3000000000000682-2.300000000000068 0-0.7999999999999545 0.10000000000002274-1.599999999999909 0.3000000000000682-2.2999999999999545h-8.600000000000023l-8-8-3.2000000000000455 3.2000000000000455 4.7000000000000455 4.699999999999932h-5.100000000000023v4.5h5.100000000000023l-4.7000000000000455 4.7000000000000455 3.2000000000000455 3.199999999999932 8-8 8.600000000000023 0.3000000000000682z m-15.899999999999977-14.100000000000023l11.199999999999932-0.10000000000002274 6.100000000000023 6c0.7999999999999545-1.2999999999999545 1.8999999999999773-2.3999999999999773 3.2000000000000455-3.199999999999932l-6.100000000000023-6-0.10000000000002274-11.200000000000045h-4.5v6.600000000000023l-3.5-3.6000000000000227-3.2000000000000455 3.2000000000000455 3.6000000000000227 3.599999999999909h-6.600000000000023l-0.09999999999990905 4.7000000000000455z m17.399999999999977 17.700000000000045l-6.100000000000023 6-11.200000000000045-0.10000000000002274v4.5h6.600000000000023l-3.6000000000000227 3.6000000000000227 3.2000000000000455 3.199999999999932 3.6000000000000227-3.6000000000000227v6.600000000000023h4.5l0.10000000000002274-11.199999999999932 6.099999999999909-6c-1.2999999999999545-0.6000000000000227-2.3999999999999773-1.7000000000000455-3.199999999999932-3z m39.799999999999955-12.800000000000068l-3.199999999999932-3.199999999999932-8 8h-8.600000000000023c0.1999999999999318 0.6999999999999318 0.2999999999999545 1.5 0.2999999999999545 2.2999999999999545 0 0.7999999999999545-0.10000000000002274 1.6000000000000227-0.2999999999999545 2.2999999999999545h8.600000000000023l8 8 3.199999999999932-3.199999999999932-4.699999999999932-4.7000000000000455h5.099999999999909v-4.5h-5.099999999999909l4.699999999999932-5z m-18.299999999999955-19.399999999999977l-0.10000000000002274 11.200000000000045-6.100000000000023 6c1.3000000000000682 0.8999999999999773 2.3999999999999773 1.8999999999999773 3.2000000000000455 3.199999999999932l6.100000000000023-6 11.199999999999932 0.10000000000002274v-4.5h-6.600000000000023l3.6000000000000227-3.6000000000000227-3.199999999999932-3.199999999999932-3.6000000000000227 3.599999999999909v-6.7999999999999545h-4.5z m14.299999999999955 38.200000000000045l-11.199999999999932 0.09999999999990905-6.100000000000023-6c-0.8000000000000682 1.3000000000000682-1.8999999999999773 2.400000000000091-3.2000000000000455 3.2000000000000455l6.100000000000023 6 0.10000000000002274 11.200000000000045h4.5v-6.600000000000023l3.6000000000000227 3.6000000000000227 3.199999999999932-3.2000000000000455-3.6000000000000227-3.6000000000000227h6.600000000000023v-4.699999999999932z m-18.399999999999977-11.800000000000068c0 4.5-3.7000000000000455 8.300000000000068-8.299999999999955 8.300000000000068s-8.300000000000068-3.7000000000000455-8.300000000000068-8.300000000000068c0-4.5 3.7000000000000455-8.299999999999955 8.300000000000068-8.299999999999955s8.299999999999955 3.699999999999932 8.299999999999955 8.299999999999955z m-350.1 43v2.5l-2.3999999999999773-2.3999999999999773-1.6999999999999886 1.7000000000000455 4 4v4.399999999999977c0.39999999999997726-0.10000000000002274 0.8000000000000114-0.10000000000002274 1.099999999999966-0.10000000000002274s0.8000000000000114 0.10000000000002274 1.1000000000000227 0.10000000000002274v-4.399999999999977l4-4-1.6999999999999886-1.7000000000000455-2.400000000000034 2.3999999999999773v-2.5h-2z m2.400000000000034 21.100000000000023c-0.30000000000001137 0.10000000000002274-0.8000000000000114 0.10000000000002274-1.1000000000000227 0.10000000000002274-0.39999999999997726 0-0.8000000000000114-0.10000000000002274-1.099999999999966-0.10000000000002274v4.399999999999977l-4 4 1.6999999999999886 1.7000000000000455 2.3999999999999773-2.3999999999999773v2.5h2.400000000000034v-2.5l2.3999999999999773 2.3999999999999773 1.6999999999999886-1.7000000000000455-4-4-0.39999999999997726-4.399999999999977z m-6.600000000000023-4.2999999999999545c-0.0999999999999659-0.3000000000000682-0.0999999999999659-0.8000000000000682-0.0999999999999659-1.1000000000000227 0-0.39999999999997726 0.0999999999999659-0.8000000000000682 0.0999999999999659-1.1000000000000227h-4.399999999999977l-4-4-1.6999999999999886 1.7000000000000455 2.3999999999999773 2.3999999999999773h-2.5v2.3999999999999773h2.5l-2.3999999999999773 2.3999999999999773 1.6999999999999886 1.7000000000000455 4-4 4.399999999999977-0.39999999999997726z m-8-7.2000000000000455h5.699999999999989l3.1000000000000227 3.1000000000000227c0.39999999999997726-0.7000000000000455 1-1.2000000000000455 1.6999999999999886-1.7000000000000455l-3.099999999999966-3.1000000000000227v-5.699999999999932h-2.400000000000034v3.3999999999999773l-1.8000000000000114-1.7999999999999545-1.6999999999999886 1.6999999999999318 1.8000000000000114 1.8000000000000682h-3.3999999999999773l0.0999999999999659 2.2999999999999545z m8.699999999999989 9l-3.099999999999966 3.1000000000000227h-5.699999999999989v2.3999999999999773h3.3999999999999773l-1.8000000000000114 1.7999999999999545 1.6999999999999886 1.7000000000000455 1.8000000000000114-1.7999999999999545v3.3999999999999773h2.400000000000034v-5.7000000000000455l3.099999999999966-3.1000000000000227c-0.8000000000000114-0.599999999999909-1.3999999999999773-1.099999999999909-1.8000000000000114-1.7999999999999545z m20.200000000000045-6.5l-1.7000000000000455-1.7000000000000455-4 4h-4.399999999999977c0.10000000000002274 0.40000000000009095 0.10000000000002274 0.8000000000000682 0.10000000000002274 1.1000000000000227 0 0.39999999999997726-0.10000000000002274 0.8000000000000682-0.10000000000002274 1.1000000000000227h4.399999999999977l4 4 1.7000000000000455-1.7000000000000455-2.400000000000034-2.3999999999999773h2.5v-2.2999999999999545h-2.5l2.400000000000034-2.1000000000000227z m-9.300000000000011-9.899999999999977v5.699999999999932l-3.1000000000000227 3.1000000000000227c0.6000000000000227 0.39999999999997726 1.1999999999999886 1 1.6999999999999886 1.7000000000000455l3.1000000000000227-3.1000000000000227h5.699999999999989v-2.3999999999999773h-3.3999999999999773l1.8000000000000114-1.8000000000000682-1.7000000000000455-1.6999999999999318-1.7999999999999545 1.7999999999999545v-3.3999999999999773l-2.3000000000000114 0.10000000000002274z m7.399999999999977 19.399999999999977h-5.699999999999989l-3.1000000000000227-3.1000000000000227c-0.39999999999997726 0.7000000000000455-1 1.2000000000000455-1.6999999999999886 1.7000000000000455l3.1000000000000227 3.1000000000000227v5.699999999999932h2.3999999999999773v-3.3999999999999773l1.8000000000000114 1.7999999999999545 1.6999999999999886-1.6999999999999318-1.8000000000000114-1.8000000000000682h3.400000000000034l-0.10000000000002274-2.2999999999999545z m-9.399999999999977-6c0 2.3999999999999773-1.900000000000034 4.2000000000000455-4.199999999999989 4.2000000000000455-2.3000000000000114 0-4.2000000000000455-1.900000000000091-4.2000000000000455-4.2000000000000455 0-2.3999999999999773 1.900000000000034-4.2000000000000455 4.2000000000000455-4.2000000000000455 2.2999999999999545 0 4.199999999999989 1.900000000000091 4.199999999999989 4.2000000000000455z"/>
</svg>
