<svg xmlns="http://www.w3.org/2000/svg" viewBox="0 0 1000 1000" width="1000" height="1000">
<path d="M816.3 416.1c-44.59999999999991-43.400000000000034-97.59999999999991-55.700000000000045-156.89999999999998-34.10000000000002-11.100000000000023 4-15.5 4.399999999999977-20.600000000000023-8.300000000000011-38.59999999999991-96-128.29999999999995-148.89999999999998-230.19999999999993-137.1-93.20000000000005 10.800000000000011-166.60000000000002 84.50000000000003-183.8 184.29999999999998-1 5.900000000000034-0.20000000000001705 13.600000000000023-7.400000000000006 16.600000000000023-16.5 7-29.599999999999994 17-40.20000000000002 28.80000000000001l-0.19999999999998863-0.30000000000001137s-78.1 74-1.6999999999999886 159.29999999999995c2.0999999999999943 2.400000000000091 4.199999999999989 5 6.5 7.300000000000068 0.29999999999998295 0.2999999999999545 0.5999999999999943 0.7999999999999545 1 1.1000000000000227l0.09999999999999432-0.20000000000004547c18.5 17.799999999999955 42.29999999999998 28.5 71.5 31.200000000000045 29.799999999999983 2.699999999999932 59.99999999999997 0.1999999999999318 89.99999999999997 1l258.6-0.40000000000009095c39.39999999999998 0 74.89999999999998 1 110.39999999999998-0.2999999999999545 62.700000000000045-2.2000000000000455 107.89999999999998-32.39999999999998 133.30000000000007-89.79999999999995 24-54.10000000000002 12.199999999999932-117.70000000000005-30.40000000000009-159.10000000000002z m-372.59999999999997-211.00000000000003c-2.099999999999966 4.200000000000017-3.8000000000000114 8.5-5.300000000000011 12.800000000000011 73.89999999999998-1.9000000000000057 139.60000000000002 30.799999999999983 181.39999999999998 89.20000000000002 2.2000000000000455-3.3000000000000114 4.2000000000000455-6.600000000000023 6-10.200000000000045 25.200000000000045-50.099999999999966 5.100000000000023-111.19999999999999-45.09999999999991-136.49999999999997-50.5-25.400000000000006-111.70000000000005-5.5-137.00000000000006 44.69999999999999z m207.50000000000006 36.30000000000001c-1 6 2.2999999999999545 12.5 7.7999999999999545 15.400000000000006 2 1.099999999999966 4.2000000000000455 1.6999999999999886 6.5 1.599999999999966 15.200000000000045-0.7999999999999545 30.399999999999977-1.5 45.700000000000045-2.599999999999966 7.699999999999932-0.6000000000000227 13.099999999999909-7.400000000000006 12.799999999999955-15-0.39999999999997726-7.700000000000017-6.2999999999999545-14.100000000000023-14-13.800000000000011-15.600000000000023 0.5-31.100000000000023 1.5-46.700000000000045 2.5999999999999943-6.399999999999977 0.4000000000000057-11.099999999999909 5.599999999999994-12.099999999999909 11.800000000000011z m-62.30000000000007-91.30000000000001c7.300000000000068 3.5999999999999943 15.800000000000068 0.700000000000017 19.700000000000045-6.900000000000006l9.600000000000023-19.099999999999994 9.399999999999977-18.799999999999997 0.39999999999997726-0.7000000000000028c3.5-7.3999999999999915 0.7999999999999545-15.899999999999991-6.399999999999977-19.599999999999994-7.300000000000068-3.799999999999997-15.899999999999977-0.9000000000000057-19.800000000000068 6.599999999999994-6.5 12.900000000000006-12.899999999999977 25.60000000000001-19.299999999999955 38.599999999999994-3.7999999999999545 7.600000000000023-0.8999999999999773 16.200000000000017 6.399999999999977 19.900000000000006z m-216.79999999999995 35.900000000000006l19.399999999999977 9.800000000000011 19.19999999999999 9.599999999999994c7.300000000000011 3.6999999999999886 15.600000000000023 1.1999999999999886 19.400000000000034-5.800000000000011 3.8999999999999773-7 1.6999999999999886-15.900000000000006-5.600000000000023-19.799999999999983-13.300000000000011-7-26.69999999999999-13.700000000000017-40.19999999999999-20.200000000000017-7.300000000000011-3.4000000000000057-15.900000000000034 0.09999999999999432-19.19999999999999 7-3.400000000000034 7.300000000000011-0.4000000000000341 15.599999999999994 7 19.400000000000006z m285.79999999999995 110.60000000000002c-7.2999999999999545-3.400000000000034-15.899999999999977 0.0999999999999659-19.199999999999932 7-3.400000000000091 7.2999999999999545-0.40000000000009095 15.699999999999989 7 19.399999999999977l19.399999999999977 9.800000000000011 19.199999999999932 9.599999999999966c7.300000000000068 3.7000000000000455 15.600000000000023 1.2000000000000455 19.40000000000009-5.7999999999999545 3.8999999999999773-7 1.6999999999999318-15.900000000000034-5.600000000000023-19.80000000000001-13.200000000000045-7-26.600000000000023-13.800000000000011-40.200000000000045-20.19999999999999z m-20.199999999999932-100.90000000000003c4.5 2.200000000000017 9.399999999999977 2.4000000000000057 13.599999999999909-0.29999999999998295 12.900000000000091-8.200000000000017 25.600000000000023-16.400000000000006 38.200000000000045-25.099999999999994 6.2999999999999545-4.300000000000011 7.5-13 3.3999999999999773-19.400000000000006-4.199999999999932-6.400000000000006-12.600000000000023-8.900000000000006-19.100000000000023-4.900000000000006-13 8.099999999999994-26 16.400000000000006-38.5 25.30000000000001-8.699999999999932 6.199999999999989-7.199999999999932 19.599999999999994 2.400000000000091 24.399999999999977z m-117.30000000000007-62.19999999999999c10.100000000000023 5 21.399999999999977-2.1999999999999886 21-13.599999999999994-0.6000000000000227-14.600000000000009-1.6000000000000227-29.200000000000003-2.6000000000000227-43.7-0.599999999999909-8.400000000000006-7.2999999999999545-14.100000000000001-15.5-13.600000000000001-8 0.5-14.099999999999966 6.999999999999993-13.599999999999966 15.399999999999999 0.6999999999999886 14.400000000000006 1.6999999999999886 29 2.599999999999966 43.400000000000006 0.3000000000000682 5.3999999999999915 3.1000000000000227 9.599999999999994 8.100000000000023 12.099999999999994z m-70.5 16.400000000000006c1.5 2.299999999999983 3.400000000000034 3.9000000000000057 5.2000000000000455 4.799999999999983 6.599999999999966 3.200000000000017 13.599999999999966 2 17.899999999999977-2.6999999999999886 4.5-4.900000000000006 5.300000000000011-11.900000000000006 1.6000000000000227-17.69999999999999-8-12.200000000000017-15.900000000000034-24.500000000000014-24.100000000000023-36.60000000000001-4.800000000000011-7.1000000000000085-13.600000000000023-8.700000000000003-20.399999999999977-4.299999999999997-6.900000000000034 4.599999999999994-8.600000000000023 13-3.8000000000000114 20.39999999999999 7.800000000000011 12.200000000000003 15.699999999999989 24.200000000000003 23.599999999999966 36.10000000000001z m50.5 758.1c0 16.299999999999955-13.199999999999989 29.5-29.5 29.5s-29.5-13.200000000000045-29.5-29.5 13.200000000000045-29.5 29.5-29.5 29.5 13.200000000000045 29.5 29.5z m-20.299999999999955-94.89999999999998c0 8.100000000000023-6.600000000000023 14.699999999999932-14.700000000000045 14.699999999999932s-14.699999999999989-6.599999999999909-14.699999999999989-14.699999999999932 6.5-14.700000000000045 14.600000000000023-14.700000000000045 14.800000000000011 6.5 14.800000000000011 14.700000000000045z m232.39999999999998-29.5c0 16.299999999999955-13.200000000000045 29.5-29.5 29.5s-29.5-13.200000000000045-29.5-29.5 13.200000000000045-29.5 29.5-29.5 29.5 13.199999999999932 29.5 29.5z m-165.89999999999998-34.200000000000045v6l-5.600000000000023-5.600000000000023-3.7999999999999545 3.800000000000068 9.5 9.5v10.299999999999955c0.8999999999999773-0.1999999999999318 1.7999999999999545-0.2999999999999545 2.699999999999932-0.2999999999999545 0.8999999999999773 0 1.8000000000000682 0.10000000000002274 2.7000000000000455 0.2999999999999545v-10.299999999999955l9.5-9.5-3.800000000000068-3.800000000000068-5.599999999999909 5.600000000000023v-6h-5.600000000000023z m5.5 49.700000000000045c-0.8999999999999773 0.1999999999999318-1.8000000000000682 0.2999999999999545-2.7000000000000455 0.2999999999999545-0.8999999999999773 0-1.7999999999999545-0.10000000000002274-2.699999999999932-0.2999999999999545v10.299999999999955l-9.5 9.5 3.7999999999999545 3.800000000000068 5.600000000000023-5.600000000000023v6h5.5v-6l5.600000000000023 5.600000000000023 3.7999999999999545-3.800000000000068-9.5-9.5 0.10000000000002274-10.299999999999955z m-15.5-10.100000000000023c-0.20000000000004547-0.8999999999999773-0.3000000000000682-1.7999999999999545-0.3000000000000682-2.7000000000000455 0-1 0.10000000000002274-1.7999999999999545 0.3000000000000682-2.699999999999932h-10.300000000000068l-9.5-9.5-3.7999999999999545 3.7999999999999545 5.600000000000023 5.600000000000023h-6v5.5h6l-5.600000000000023 5.600000000000023 3.7999999999999545 3.7999999999999545 9.5-9.5 10.300000000000068 0.10000000000002274z m-19-17l13.5-0.10000000000002274 7.2999999999999545 7.300000000000068c1-1.6000000000000227 2.300000000000068-2.900000000000091 3.800000000000068-3.800000000000068l-7.300000000000068-7.2999999999999545-0.10000000000002274-13.5h-5.5v8l-4.2999999999999545-4.300000000000068-3.7999999999999545 3.800000000000068 4.2999999999999545 4.2999999999999545h-8l0.10000000000002274 5.600000000000023z m20.799999999999955 21.200000000000045l-7.2999999999999545 7.2999999999999545-13.5-0.10000000000002274v5.5h8l-4.300000000000068 4.300000000000068 3.800000000000068 3.7999999999999545 4.2999999999999545-4.2999999999999545v8h5.5l0.10000000000002274-13.5 7.2999999999999545-7.300000000000068c-1.599999999999909-0.7999999999999545-2.8999999999999773-2.1000000000000227-3.8999999999999773-3.699999999999932z m43.80000000000007-19.300000000000068l-9.5 9.5h-10.300000000000068c0.20000000000004547 0.8999999999999773 0.3000000000000682 1.8000000000000682 0.3000000000000682 2.7000000000000455 0 1-0.10000000000002274 1.7999999999999545-0.3000000000000682 2.699999999999932h10.300000000000068l9.5 9.5 3.7999999999999545-3.7999999999999545-5.600000000000023-5.600000000000023h6v-5.5h-6l5.600000000000023-5.600000000000023-3.7999999999999545-3.8999999999999773z m-18-19.299999999999955l-0.10000000000002274 13.5-7.300000000000068 7.2999999999999545c1.6000000000000227 1 2.900000000000091 2.3999999999999773 3.800000000000068 3.800000000000068l7.2999999999999545-7.300000000000068 13.5 0.10000000000002274v-5.5h-8l4.300000000000068-4.2999999999999545-3.800000000000068-3.800000000000068-4.2999999999999545 4.300000000000068v-8l-5.399999999999977-0.10000000000002274z m5.399999999999977 55.19999999999993l4.2999999999999545 4.300000000000068 3.800000000000068-3.800000000000068-4.300000000000068-4.2999999999999545h8v-5.5l-13.5 0.10000000000002274-7.2999999999999545-7.300000000000068c-1 1.6000000000000227-2.300000000000068 2.900000000000091-3.800000000000068 3.900000000000091l7.300000000000068 7.2999999999999545 0.10000000000002274 13.5h5.5l-0.10000000000002274-8.200000000000045z m-20.200000000000045-33.5c-5.5 0-9.899999999999977 4.5-9.899999999999977 9.900000000000091 0 5.5 4.5 9.899999999999977 9.899999999999977 9.899999999999977 5.5 0 9.899999999999977-4.5 9.899999999999977-9.899999999999977s-4.5-9.900000000000091-9.899999999999977-9.900000000000091z m-224.7-81.69999999999993v13.600000000000023l-12.699999999999989-12.600000000000023-8.699999999999989 8.699999999999932 21.30000000000001 21.300000000000068v23.199999999999932c2-0.39999999999997726 4-0.6999999999999318 6.099999999999966-0.6999999999999318s4.199999999999989 0.2999999999999545 6.100000000000023 0.6999999999999318v-23.199999999999932l21.30000000000001-21.300000000000068-8.700000000000045-8.699999999999932-12.399999999999977 12.600000000000023v-13.600000000000023h-12.300000000000011z m12.300000000000011 111.5c-2 0.39999999999997726-4 0.6999999999999318-6.100000000000023 0.6999999999999318s-4.199999999999989-0.2999999999999545-6.099999999999966-0.6999999999999318v23.199999999999932l-21.30000000000001 21.300000000000068 8.699999999999989 8.699999999999932 12.699999999999989-12.699999999999932v13.600000000000023h12.300000000000011v-13.600000000000023l12.699999999999989 12.699999999999932 8.700000000000045-8.699999999999932-21.30000000000001-21.300000000000068-0.30000000000001137-23.199999999999932z m-34.69999999999999-22.600000000000023c-0.4000000000000341-2-0.6999999999999886-4-0.6999999999999886-6.100000000000023 0-2.1000000000000227 0.2999999999999545-4.199999999999932 0.6999999999999886-6.100000000000023h-23.19999999999999l-21.30000000000001-21.299999999999955-8.700000000000017 8.700000000000045 12.700000000000017 12.699999999999932h-13.600000000000023v12.200000000000045h13.600000000000023l-12.800000000000011 12.600000000000023 8.699999999999989 8.699999999999932 21.30000000000001-21.299999999999955h23.30000000000001z m-42.69999999999999-38.10000000000002l30.19999999999999-0.1999999999999318 16.5 16.399999999999977c2.1999999999999886-3.5 5.199999999999989-6.5 8.699999999999989-8.700000000000045l-16.399999999999977-16.399999999999977-0.20000000000004547-30.200000000000045-12.299999999999955 0.10000000000002274 0.0999999999999659 17.899999999999977-9.699999999999989-9.599999999999909-8.699999999999989 8.699999999999932 9.699999999999989 9.5-17.80000000000001 0.10000000000002274-0.0999999999999659 12.399999999999977z m46.69999999999999 47.700000000000045l-16.5 16.399999999999977-30.19999999999999-0.20000000000004547-0.10000000000002274 12.300000000000068 17.80000000000001 0.10000000000002274-9.699999999999989 9.599999999999909 8.699999999999989 8.700000000000045 9.699999999999989-9.600000000000023-0.10000000000002274 17.899999999999977 12.300000000000011 0.10000000000002274 0.19999999999998863-30.199999999999932 16.400000000000034-16.40000000000009c-3.3000000000000114-2.199999999999932-6.300000000000011-5.199999999999932-8.5-8.699999999999932z m107.09999999999997-34.5l-8.699999999999989-8.700000000000045-21.30000000000001 21.300000000000068h-23.19999999999999c0.4000000000000341 2 0.6999999999999886 4 0.6999999999999886 6.099999999999909 0 2.1000000000000227-0.2999999999999545 4.2000000000000455-0.6999999999999886 6.100000000000023h23.19999999999999l21.30000000000001 21.300000000000068 8.699999999999989-8.700000000000045-12.799999999999955-12.700000000000045h13.599999999999966v-12.199999999999932h-13.599999999999966l12.799999999999955-12.5z m-49.19999999999999-52.30000000000007l-0.19999999999998863 30.200000000000045-16.399999999999977 16.399999999999977c3.5 2.300000000000068 6.399999999999977 5.2000000000000455 8.699999999999989 8.700000000000045l16.5-16.399999999999977 30.19999999999999 0.1999999999999318 0.10000000000002274-12.299999999999955-17.900000000000034-0.10000000000002274 9.699999999999989-9.5-8.699999999999989-8.700000000000045-9.699999999999989 9.600000000000023 0.10000000000002274-17.899999999999977-12.400000000000034-0.20000000000004547z m38.69999999999999 103l-30.19999999999999 0.20000000000004547-16.5-16.399999999999977c-2.3000000000000114 3.5-5.199999999999989 6.5-8.699999999999989 8.699999999999932l16.399999999999977 16.40000000000009 0.20000000000004547 30.199999999999932 12.299999999999955-0.10000000000002274-0.0999999999999659-17.899999999999977 9.699999999999989 9.600000000000023 8.699999999999989-8.700000000000045-9.699999999999989-9.599999999999909 17.899999999999977-0.10000000000002274v-12.300000000000068z m-72-54.19999999999993c-12.299999999999955 0-22.299999999999955 10-22.299999999999955 22.299999999999955s10 22.300000000000068 22.299999999999955 22.300000000000068 22.30000000000001-10 22.30000000000001-22.300000000000068c0-12.399999999999977-9.899999999999977-22.299999999999955-22.30000000000001-22.299999999999955z m249.39999999999998 90.60000000000002v2.3999999999999773l-2.2999999999999545-2.300000000000068-1.6000000000000227 1.6000000000000227 3.800000000000068 3.800000000000068v4.099999999999909c0.2999999999999545-0.09999999999990905 0.6999999999999318-0.09999999999990905 1-0.09999999999990905 0.39999999999997726 0 0.6999999999999318 0 1 0.09999999999990905v-4.099999999999909l3.7999999999999545-3.800000000000068-1.6000000000000227-1.6000000000000227-2.2999999999999545 2.300000000000068v-2.3999999999999773h-1.8000000000000682z m2.2000000000000455 19.699999999999932c-0.39999999999997726 0.10000000000002274-0.7000000000000455 0.10000000000002274-1 0.10000000000002274-0.39999999999997726 0-0.7000000000000455 0-1-0.10000000000002274v4.100000000000023l-3.7999999999999545 3.7999999999999545 1.599999999999909 1.6000000000000227 2.300000000000068-2.2999999999999545v2.3999999999999773h2.199999999999932v-2.3999999999999773l2.300000000000068 2.2999999999999545 1.6000000000000227-1.6000000000000227-3.800000000000068-3.7999999999999545v-4.100000000000023h-0.39999999999997726z m-6.2000000000000455-4c-0.09999999999990905-0.39999999999997726-0.09999999999990905-0.6999999999999318-0.09999999999990905-1 0-0.39999999999997726 0-0.6999999999999318 0.09999999999990905-1h-4.099999999999909l-3.800000000000068-3.7999999999999545-1.6000000000000227 1.6000000000000227 2.300000000000068 2.2999999999999545h-2.3999999999999773v2.2000000000000455h2.3999999999999773l-2.300000000000068 2.2999999999999545 1.6000000000000227 1.6000000000000227 3.800000000000068-3.800000000000068 4.099999999999909-0.39999999999997726z m-7.599999999999909-6.699999999999932h5.2999999999999545l2.8999999999999773 2.8999999999999773c0.39999999999997726-0.6000000000000227 0.8999999999999773-1.1000000000000227 1.5-1.6000000000000227l-2.8999999999999773-2.8999999999999773v-5.300000000000068h-2.2000000000000455v3.1000000000000227l-1.6999999999999318-1.6999999999999318-1.5 1.599999999999909 1.6999999999999318 1.7000000000000455h-3.099999999999909v2.2000000000000455z m8.299999999999955 8.399999999999977l-2.8999999999999773 2.8999999999999773h-5.300000000000068v2.2000000000000455h3.1000000000000227l-1.6999999999999318 1.6999999999999318 1.5 1.6000000000000227 1.6999999999999318-1.7000000000000455v3.1000000000000227h2.2000000000000455v-5.2999999999999545l2.8999999999999773-2.8999999999999773c-0.6000000000000227-0.5-1.1000000000000227-1-1.5-1.6000000000000227z m18.899999999999977-6.100000000000023l-1.6000000000000227-1.6000000000000227-3.7999999999999545 3.800000000000068h-4.100000000000023c0.10000000000002274 0.2999999999999545 0.10000000000002274 0.6999999999999318 0.10000000000002274 1 0 0.2999999999999545 0 0.6999999999999318-0.10000000000002274 1h4.100000000000023l3.7999999999999545 3.7999999999999545 1.6000000000000227-1.6000000000000227-2.2999999999999545-2.2999999999999545h2.3999999999999773v-2.1000000000000227h-2.3999999999999773l2.2999999999999545-2z m-8.699999999999932-9.200000000000045v5.300000000000068l-2.900000000000091 2.8999999999999773c0.6000000000000227 0.39999999999997726 1.1000000000000227 1 1.5 1.6000000000000227l2.900000000000091-2.8999999999999773h5.2999999999999545v-2.2000000000000455h-3.1000000000000227l1.7000000000000455-1.7000000000000455-1.5-1.599999999999909-1.7000000000000455 1.6999999999999318v-3.1000000000000227h-2.199999999999932z m6.899999999999977 18.200000000000045h-5.300000000000068l-3-2.8999999999999773c-0.2999999999999545 0.6000000000000227-0.8999999999999773 1.1000000000000227-1.5 1.6000000000000227l2.900000000000091 2.8999999999999773v5.2999999999999545h2.199999999999932v-3.1000000000000227l1.7000000000000455 1.7000000000000455 1.5-1.6000000000000227-1.7000000000000455-1.6999999999999318h3.1000000000000227l0.10000000000002274-2.2000000000000455z m-8.800000000000068-5.7000000000000455c0 2.2000000000000455-1.6999999999999318 3.900000000000091-3.8999999999999773 3.900000000000091s-3.8999999999999773-1.7000000000000455-3.8999999999999773-3.900000000000091 1.7000000000000455-3.8999999999999773 3.8999999999999773-3.8999999999999773c2.1000000000000227 0 3.8999999999999773 1.8000000000000682 3.8999999999999773 3.8999999999999773z"/>
</svg>
