<svg xmlns="http://www.w3.org/2000/svg" viewBox="0 0 1000 1000" width="1000" height="1000">
<path d="M655.2 590.6v-253c-41.60000000000002-43.30000000000001-100-70.30000000000001-164.80000000000007-70.40000000000003-127.29999999999995-0.19999999999998863-230.39999999999998 101.90000000000003-230.59999999999997 228.5-0.19999999999998863 126.50000000000006 102.30000000000001 229.7 228.39999999999998 230.00000000000006 30.400000000000034 0.09999999999990905 59.400000000000034-5.7000000000000455 85.90000000000003-16.200000000000045l0.2999999999999545-1.7000000000000455c6.2000000000000455-30.199999999999932 19.899999999999977-57.69999999999993 39.10000000000002-80.39999999999998 12.100000000000023-14.299999999999955 26-26.799999999999955 41.700000000000045-36.799999999999955z m-393.30000000000007 36.10000000000002c-8.999999999999972-14.800000000000068-27.799999999999983-19.90000000000009-43.599999999999966-11.800000000000068-4.5 2.300000000000068-8.800000000000011 5-13.200000000000017 7.600000000000023-24.400000000000006 14.100000000000023-48.900000000000006 27.899999999999977-73.1 42.299999999999955-13.900000000000006 8.200000000000045-19.299999999999997 23.300000000000068-14.900000000000006 37.90000000000009 4.300000000000011 14 16.900000000000006 23.199999999999932 32.599999999999994 23.199999999999932 4.400000000000006 0.39999999999997726 9.400000000000006-0.8999999999999773 13.800000000000011-3.3999999999999773 29.599999999999994-16.899999999999977 59.400000000000006-33.5 88.5-51.10000000000002 15.600000000000023-9.399999999999977 19.19999999999999-29.299999999999955 9.899999999999977-44.69999999999993z m234.60000000000002-388.50000000000006c18.299999999999955-0.09999999999999432 32.60000000000002-14.699999999999989 32.799999999999955-33.69999999999999 0.10000000000002274-16.099999999999994 0-32.099999999999994 0-48.19999999999999v-49.000000000000014c-0.39999999999997726-18.5-14.599999999999909-32.8-32.599999999999966-32.89999999999999-18.5-0.10000000000000853-33.099999999999966 14.299999999999997-33.19999999999999 33.19999999999999-0.19999999999998863 32.400000000000006-0.19999999999998863 64.80000000000001 0 97.20000000000002 0.10000000000002274 18.899999999999977 14.699999999999989 33.5 33 33.39999999999998z m0.19999999999998863 523.5999999999999c-18.5-0.09999999999990905-33.099999999999966 14.300000000000068-33.19999999999999 33.200000000000045-0.19999999999998863 32.39999999999998-0.19999999999998863 64.79999999999995 0 97.20000000000005 0.10000000000002274 19 14.699999999999989 33.5 33 33.5 18.299999999999955-0.10000000000002274 32.60000000000002-14.700000000000045 32.799999999999955-33.80000000000007 0.10000000000002274-16.100000000000023 0-32.10000000000002 0-48.19999999999993v-49c-0.39999999999997726-18.5-14.5-32.80000000000007-32.599999999999966-32.90000000000009z m-303.2-232.29999999999995c18.5-0.10000000000002274 32.5-13.299999999999955 33.30000000000001-31.19999999999999 0.799999999999983-18.100000000000023-12.600000000000023-33.80000000000001-31.30000000000001-34.19999999999999-33.80000000000001-0.7000000000000455-67.7-0.7000000000000455-101.5 0-18.200000000000003 0.39999999999997726-32 16.19999999999999-31.5 33.39999999999998 0.5 18.100000000000023 15 31.899999999999977 33.7 32 16.39999999999999 0.10000000000002274 32.7 0 49.10000000000001 0 16.099999999999994 0 32.099999999999994 0.10000000000002274 48.19999999999999 0z m119.80000000000001-271.8c6.300000000000011 10.699999999999989 15.899999999999977 16.400000000000034 28.599999999999966 16.30000000000001 25.30000000000001-0.10000000000002274 41-26.099999999999994 28.5-48.599999999999994-16-28.80000000000001-32.599999999999966-57.30000000000001-49.5-85.6-9.699999999999989-16.30000000000001-29-20.900000000000006-44.799999999999955-11.700000000000017-15.800000000000011 9.200000000000017-21.200000000000017 28.30000000000001-11.900000000000034 44.80000000000001 16 28.400000000000006 32.5 56.599999999999994 49.10000000000002 84.79999999999998z m-180.8 72.10000000000002c27.900000000000006 16.30000000000001 56 32.39999999999998 84 48.5 5.199999999999989 3 10.900000000000006 4.599999999999966 15.199999999999989 4.399999999999977 16.5-0.0999999999999659 29.400000000000034-9.699999999999989 33.30000000000001-23.5 4.100000000000023-14.5-1.3000000000000114-29.399999999999977-14.599999999999994-37.19999999999999-28.30000000000001-16.69999999999999-56.80000000000001-33.19999999999999-85.5-49.30000000000001-16.80000000000001-9.399999999999977-36.400000000000006-3.8999999999999773-45.400000000000006 12-9.200000000000003 16.5-4 35.10000000000002 13 45.10000000000002z m230 400.49999999999994c-16.5-9.799999999999955-36-4.2999999999999545-46.39999999999998 13.400000000000091-15.900000000000034 27.199999999999932-31.700000000000045 54.59999999999991-47.5 81.89999999999998-3.1000000000000227 5.399999999999977-5.5 11.100000000000023-5.100000000000023 17.100000000000023-0.10000000000002274 15.399999999999977 9.199999999999989 28.09999999999991 23.19999999999999 32.19999999999993 14.800000000000011 4.399999999999977 29.69999999999999-1.1000000000000227 37.900000000000034-14.899999999999977 16.399999999999977-27.600000000000023 32.299999999999955-55.39999999999998 48.299999999999955-83.29999999999995 10.100000000000023-17.40000000000009 5.600000000000023-36.90000000000009-10.399999999999977-46.40000000000009z m432.4-438.99999999999994c0-11.800000000000011-1.6000000000000227-20-3.7999999999999545-26-5.800000000000068-14.400000000000006-16.300000000000068-14.5-21.700000000000045-14.5-5.399999999999977 0-15.899999999999977 0.09999999999999432-21.600000000000023 14.399999999999977-2.3999999999999773 5.900000000000034-4 14.199999999999989-4 26.19999999999999v179.8h51.10000000000002v-179.89999999999998z m60.30000000000007 315.99999999999994v-347.49999999999994c0-41.20000000000002-28.800000000000068-75.60000000000002-67.40000000000009-84.4-6.199999999999932-1.4000000000000057-12.599999999999909-2.200000000000017-19.299999999999955-2.200000000000017-32.5 0-60.799999999999955 17.900000000000006-75.60000000000002 44.400000000000006-7 12.5-11 26.900000000000006-11 42.20000000000002v350.3c-14.399999999999977 9.199999999999932-27.199999999999932 20.699999999999932-38.19999999999993 33.69999999999993-17.700000000000045 20.90000000000009-30.200000000000045 46-35.90000000000009 73.80000000000007-2.199999999999932 10.799999999999955-3.699999999999932 21.899999999999977-3.699999999999932 33.39999999999998l0.10000000000002274 2.3999999999999773c1.2999999999999545 90.89999999999998 75.29999999999995 164.30000000000007 166.5999999999999 164.30000000000007 11.600000000000023 0 22.90000000000009-1.1000000000000227 33.90000000000009-3.400000000000091 75.79999999999995-15.699999999999932 132.79999999999995-82.79999999999995 132.79999999999995-163.19999999999993 0-61.39999999999998-33.10000000000002-114.70000000000005-82.29999999999995-143.80000000000007z m-84.40000000000009 246.60000000000002c-57.799999999999955 0-104.59999999999991-46.799999999999955-104.59999999999991-104.60000000000002 0-2.7999999999999545 0.1999999999999318-5.599999999999909 0.599999999999909-8.299999999999955 0.40000000000009095-5.5 1.3000000000000682-10.799999999999955 2.6000000000000227-15.899999999999977 4.100000000000023-16.600000000000023 12.200000000000045-31.100000000000023 23.600000000000023-42.30000000000007 4.899999999999977-4.899999999999977 10.700000000000045-9 16.700000000000045-12.5 6.2999999999999545-3.8999999999999773 13-7.099999999999909 20.299999999999955-9.299999999999955v-369.6c0-9.599999999999966 1.2000000000000455-18.5 3.3999999999999773-26.299999999999955 1.1000000000000227-3.6000000000000227 2.3999999999999773-6.800000000000011 3.8999999999999773-9.800000000000011 3.400000000000091-6.300000000000011 8.200000000000045-11.400000000000006 14.700000000000045-14.5 4.899999999999977-2.4000000000000057 10.5-3.700000000000017 17.399999999999977-3.700000000000017 30 0 39.30000000000007 24.299999999999983 39.30000000000007 54.29999999999998v367.80000000000007c41.299999999999955 10.599999999999909 63 46.299999999999955 66 81.79999999999995 0.2999999999999545 2.7999999999999545 0.599999999999909 5.5 0.599999999999909 8.299999999999955 0.10000000000002274 57.700000000000045-46.799999999999955 104.60000000000002-104.5 104.60000000000002z m41.90000000000009-117.79999999999995c2.199999999999932 23.699999999999932-5.100000000000023 45.60000000000002-22 64.89999999999998-13.800000000000068 15.799999999999955 18.09999999999991 30.700000000000045 31.699999999999932 15.100000000000023 20.200000000000045-23.200000000000045 29.600000000000023-51.700000000000045 27-80-1.6999999999999318-19.100000000000023-38.5-19.200000000000045-36.69999999999993 0z"/>
</svg>
