<svg xmlns="http://www.w3.org/2000/svg" viewBox="0 0 1000 1000" width="1000" height="1000">
<path d="M516.2 378.6c-30.000000000000057-29.200000000000045-65.70000000000005-37.5-105.50000000000006-22.900000000000034-7.5 2.6999999999999886-10.399999999999977 3-13.899999999999977-5.599999999999966-25.900000000000034-64.60000000000002-86.30000000000001-100.10000000000002-154.8-92.20000000000005-62.69999999999999 7.300000000000011-112.1 56.80000000000001-123.7 123.90000000000003-0.7000000000000028 4-0.09999999999999432 9.099999999999966-5 11.199999999999989-11.099999999999994 4.699999999999989-19.89999999999999 11.399999999999977-27.099999999999994 19.399999999999977v-0.0999999999999659s-52.6 49.80000000000001-1.2000000000000028 107.09999999999997c1.4000000000000057 1.7000000000000455 2.799999999999997 3.3999999999999773 4.400000000000006 4.899999999999977l0.6999999999999886 0.8000000000000682 0.10000000000000853-0.10000000000002274c12.5 12 28.5 19.200000000000045 48.10000000000001 21 20 1.7999999999999545 40.39999999999998 0.10000000000002274 60.599999999999994 0.7000000000000455l173.9-0.3000000000000682c26.5 0 50.39999999999998 0.7000000000000455 74.30000000000001-0.10000000000002274 42.19999999999999-1.5 72.60000000000002-21.799999999999955 89.60000000000002-60.39999999999998 16.09999999999991-36.69999999999999 8.099999999999909-79.5-20.5-107.29999999999995z m-287.40000000000003 234.29999999999995c0 17-13.800000000000011 30.800000000000068-30.80000000000001 30.800000000000068s-30.80000000000001-13.800000000000068-30.80000000000001-30.800000000000068 13.800000000000011-30.799999999999955 30.80000000000001-30.799999999999955 30.80000000000001 13.799999999999955 30.80000000000001 30.799999999999955z m140.09999999999997 4.800000000000068c0 14.399999999999977-11.699999999999989 26-26 26s-26-11.700000000000045-26-26c0-14.400000000000091 11.700000000000045-26 26-26s26 11.599999999999909 26 26z m-71.39999999999998 67.89999999999998c0 10.899999999999977-8.899999999999977 19.799999999999955-19.80000000000001 19.799999999999955s-19.80000000000001-8.899999999999977-19.80000000000001-19.799999999999955 8.900000000000034-19.800000000000068 19.80000000000001-19.800000000000068c11 0 19.80000000000001 8.800000000000068 19.80000000000001 19.800000000000068z m61.80000000000001 22.399999999999977c0 8.299999999999955-6.699999999999989 15-15 15s-15-6.7000000000000455-15-15 6.699999999999989-15 15-15c8.300000000000011 0.10000000000002274 15 6.7999999999999545 15 15z m-75.40000000000003-83c0 5.5-4.399999999999977 9.899999999999977-9.899999999999977 9.899999999999977s-9.899999999999977-4.399999999999977-9.899999999999977-9.899999999999977 4.399999999999977-9.899999999999977 9.899999999999977-9.899999999999977c5.399999999999977 0 9.899999999999977 4.399999999999977 9.899999999999977 9.899999999999977z m156.3-23.100000000000023c0 10.899999999999977-8.899999999999977 19.800000000000068-19.80000000000001 19.800000000000068s-19.799999999999955-8.900000000000091-19.799999999999955-19.800000000000068 8.899999999999977-19.799999999999955 19.799999999999955-19.799999999999955 19.80000000000001 8.899999999999977 19.80000000000001 19.799999999999955z m249.00000000000006-101.39999999999998c-39-0.19999999999998863-78-0.10000000000002274-116.90000000000009-0.19999999999998863l-0.09999999999990905 0.30000000000001137c-8.700000000000045 19.699999999999932-20.90000000000009 34.60000000000002-36.40000000000009 44.69999999999993 52 0 104-0.09999999999990905 156 0.20000000000004547 54.700000000000045 0.20000000000004547 94.60000000000002 44 89.10000000000002 96.60000000000002-3.8999999999999773 37.799999999999955-46.69999999999993 66.10000000000002-80.89999999999998 53.5-27.799999999999955-10.300000000000068-40.700000000000045-43.5-25.100000000000023-64.89999999999998 12.800000000000068-17.600000000000023 36.60000000000002-18.600000000000023 50.80000000000007-2.1000000000000227 8.399999999999977 9.699999999999932 20.59999999999991 11.199999999999932 30.699999999999932 3.8999999999999773 9-6.600000000000023 11.200000000000045-19.299999999999955 5.100000000000023-29.700000000000045-14.100000000000023-24.199999999999932-47.700000000000045-36.299999999999955-77.60000000000002-28.5-59.10000000000002 15.400000000000091-77.79999999999995 81.80000000000007-42.5 130.80000000000007 15.899999999999977 22.100000000000023 38.5 33 64.39999999999998 38.39999999999998h25c9.800000000000068-3.1000000000000227 20.100000000000023-5.2999999999999545 29.5-9.399999999999977 59-25.399999999999977 83.60000000000002-94.5 54.80000000000007-155.30000000000007-25.100000000000023-52.59999999999991-68.30000000000007-78.09999999999997-125.89999999999998-78.29999999999995z m-95.70000000000005-125.89999999999998c12.600000000000023 1 23.5-6.5 23.899999999999977-19.200000000000045 0.8000000000000682-21.19999999999999 17-34.19999999999999 30.600000000000023-35 21.100000000000023-1.1999999999999886 41.10000000000002 12.300000000000011 47.10000000000002 32.10000000000002 10.199999999999932 33.80000000000001-16.899999999999977 73.89999999999998-52.30000000000007 76.69999999999999-22.5 1.8000000000000114-45.09999999999991 1.6000000000000227-67.59999999999991 1.3000000000000114 4.899999999999977 14.100000000000023 6.2999999999999545 29.30000000000001 4.199999999999932 44.19999999999999 19.5 0 38.89999999999998 0.10000000000002274 58.39999999999998 0 56.40000000000009-0.30000000000001137 106-50.5 104.60000000000002-107-1.2999999999999545-52.89999999999998-38.19999999999993-90-90.69999999999993-92.30000000000001-41.200000000000045-1.7999999999999545-77.60000000000002 34.200000000000045-78.20000000000005 75.70000000000005-0.20000000000004547 13 8 22.599999999999966 20 23.5z m326.20000000000005-14.700000000000045c-17.5-20-40.30000000000007-28.099999999999966-66.5-22.299999999999955-24 5.399999999999977-39 21-45.90000000000009 44.599999999999966-1.5 5.199999999999989-1.599999999999909 10.300000000000011-1.3999999999999773 15.400000000000034 0.5 11.899999999999977 8.700000000000045 20.299999999999955 20.100000000000023 21.19999999999999 11.799999999999955 0.8999999999999773 20.5-5.600000000000023 23.299999999999955-17.5 4-16.900000000000034 9.900000000000091-22.30000000000001 21.800000000000068-20.19999999999999 14.100000000000023 2.5 23.799999999999955 16.19999999999999 21.699999999999932 30.599999999999966-3 20.400000000000034-19 33.5-42.09999999999991 33.69999999999999-28.40000000000009 0.20000000000004547-56.90000000000009-0.0999999999999659-85.30000000000007 0-13 0.10000000000002274-21.399999999999977 6-23.899999999999977 15.900000000000034-3.6000000000000227 14.199999999999989 4.899999999999977 27.099999999999966 19.799999999999955 27.80000000000001 17.600000000000023 0.8999999999999773 35.30000000000007 0.19999999999998863 53 0.19999999999998863 22.700000000000045-0.6000000000000227 45.60000000000002 3.099999999999966 68-4.400000000000034 52.5-17.399999999999977 73-84.19999999999999 37.40000000000009-125z"/>
</svg>
