<svg xmlns="http://www.w3.org/2000/svg" viewBox="0 0 1000 1000" width="1000" height="1000">
<path d="M500.5 335.4c-103.30000000000001-0.19999999999998863-187 82.70000000000005-187.2 185.39999999999998 0 9.300000000000068 0.6999999999999886 18.5 2 27.5h368.8c1.2999999999999545-8.699999999999932 2-17.699999999999932 2-26.699999999999932 0.1999999999999318-102.70000000000005-82.89999999999998-186-185.60000000000002-186.20000000000005z m181.70000000000005 74.5c3.2999999999999545 10.700000000000045 14 18.700000000000045 25.299999999999955 18.80000000000001 4.2000000000000455 0.19999999999998863 8.299999999999955-0.6999999999999886 11.899999999999977-2.6999999999999886 24.200000000000045-13.800000000000011 48.5-27.399999999999977 72.39999999999998-41.69999999999999 12.200000000000045-7.300000000000011 15.400000000000091-22.900000000000034 8.600000000000023-35-6.899999999999977-12.199999999999989-21.799999999999955-17.900000000000034-34.19999999999993-11.199999999999989-25.100000000000023 13.599999999999966-49.80000000000007 28-74.20000000000005 42.69999999999999-9.799999999999955 5.800000000000011-13.100000000000023 18.19999999999999-9.799999999999955 29.099999999999966z m-176.70000000000005-98c14.899999999999977-0.0999999999999659 26.5-11.899999999999977 26.600000000000023-27.399999999999977 0.10000000000002274-13 0-26.100000000000023 0-39.099999999999994v-39.80000000000001c-0.3000000000000682-15-11.800000000000068-26.599999999999994-26.5-26.69999999999999-15-0.09999999999999432-26.80000000000001 11.599999999999994-26.900000000000034 27-0.0999999999999659 26.299999999999983-0.0999999999999659 52.599999999999994 0 78.9 0 15.300000000000011 11.900000000000034 27.099999999999966 26.80000000000001 27.099999999999966z m-324.9 236.39999999999998c13.299999999999983 0.10000000000002274 26.599999999999966 0 39.79999999999998 0 13 0 26.099999999999994 0.10000000000002274 39.099999999999994 0 15-0.09999999999990905 26.399999999999977-10.799999999999955 27-25.299999999999955 0.6000000000000227-14.699999999999989-10.199999999999989-27.399999999999977-25.399999999999977-27.69999999999999-27.50000000000003-0.6000000000000227-54.900000000000034-0.6000000000000227-82.40000000000003 0-14.699999999999989 0.30000000000001137-26 13.099999999999966-25.5 27.099999999999966 0.5 14.600000000000023 12.200000000000017 25.800000000000068 27.400000000000006 25.899999999999977z m532.5-26c0.39999999999997726 14.700000000000045 12.199999999999932 25.90000000000009 27.299999999999955 26 13.300000000000068 0.10000000000002274 26.600000000000023 0 39.80000000000007 0 13 0 26.09999999999991 0.10000000000002274 39.09999999999991 0 15-0.09999999999990905 26.40000000000009-10.799999999999955 27-25.299999999999955 0.6000000000000227-14.699999999999989-10.199999999999932-27.399999999999977-25.399999999999977-27.69999999999999-27.5-0.6000000000000227-54.89999999999998-0.6000000000000227-82.39999999999998 0-14.600000000000023 0.19999999999998863-25.799999999999955 13-25.399999999999977 26.999999999999943z m-90.5-175.89999999999998c9.299999999999955-0.0999999999999659 17.299999999999955-3.599999999999966 22-11.599999999999966 14.299999999999955-23.900000000000034 28.399999999999977-48 41.89999999999998-72.30000000000001 6.7999999999999545-12.300000000000011 1.6000000000000227-27.5-10.299999999999955-34.5-12.100000000000023-7-27.90000000000009-4.300000000000011-35.200000000000045 7.699999999999989-14.600000000000023 24-28.899999999999977 48.19999999999999-42.200000000000045 73-9.299999999999955 17 4.300000000000068 37.60000000000002 23.800000000000068 37.69999999999999z m-265.90000000000003-18.69999999999999c5.100000000000023 8.699999999999989 12.900000000000034 13.300000000000011 23.19999999999999 13.199999999999989 20.600000000000023-0.0999999999999659 33.200000000000045-21.19999999999999 23.100000000000023-39.5-13-23.399999999999977-26.5-46.49999999999997-40.10000000000002-69.39999999999998-7.899999999999977-13.300000000000011-23.599999999999966-17-36.39999999999998-9.5-12.800000000000011 7.5-17.19999999999999 23-9.699999999999989 36.30000000000001 13.099999999999966 23.099999999999966 26.5 46 39.89999999999998 68.89999999999998z m-146.6 58.5c22.599999999999994 13.300000000000011 45.400000000000006 26.30000000000001 68.20000000000002 39.400000000000034 4.300000000000011 2.5 8.800000000000011 3.6999999999999886 12.300000000000011 3.599999999999966 13.399999999999977-0.0999999999999659 23.899999999999977-7.899999999999977 27.099999999999966-19 3.3000000000000114-11.800000000000011-1-23.80000000000001-11.800000000000011-30.19999999999999-23-13.600000000000023-46.099999999999966-26.899999999999977-69.39999999999998-40-13.599999999999994-7.699999999999989-29.5-3.1000000000000227-36.80000000000001 9.800000000000011-7.699999999999989 13.199999999999989-3.5 28.30000000000001 10.400000000000006 36.39999999999998z m684.3 346.8c-40.60000000000002-2.7000000000000455-67-25.299999999999955-87.79999999999995-56.5-9.800000000000068-14.799999999999955-20.399999999999977-26.799999999999955-38-31.299999999999955h-13.300000000000068c-16.899999999999977 5-28.399999999999977 16.09999999999991-36.69999999999993 31.399999999999977-4.899999999999977 9.199999999999932-12.100000000000023 16.899999999999977-19.300000000000068 24.299999999999955-20.399999999999977 20.700000000000045-43.69999999999993 31.5-67.19999999999993 31.899999999999977v-0.09999999999990905c-18.399999999999977 0.1999999999999318-35.80000000000007-5.7000000000000455-51.80000000000007-17.40000000000009-3.8999999999999773-2.8999999999999773-7.699999999999932-6-11.399999999999977-9.199999999999932 18.5-4.300000000000068 28.399999999999977-20.800000000000068 17.899999999999977-34.30000000000007l-59.5-76.69999999999993c-12.199999999999932-15.700000000000045-42.69999999999993-15.700000000000045-54.99999999999994 0l-59.5 76.69999999999993c-10.600000000000023 13.600000000000023-0.5 30.200000000000045 18.30000000000001 34.40000000000009-3.6000000000000227 3.199999999999932-7.400000000000034 6.199999999999932-11.300000000000011 9.099999999999909-16 11.700000000000045-33.400000000000034 17.700000000000045-51.80000000000001 17.40000000000009v0.09999999999990905c-23.5-0.2999999999999545-46.80000000000001-11.099999999999909-67.19999999999999-31.899999999999977-7.300000000000011-7.399999999999977-14.400000000000034-15.100000000000023-19.30000000000001-24.299999999999955-8.199999999999989-15.300000000000068-19.80000000000001-26.399999999999977-36.69999999999999-31.399999999999977h-13.300000000000011c-17.599999999999994 4.5-28.19999999999999 16.59999999999991-38 31.299999999999955-20.80000000000001 31.299999999999955-47.19999999999999 53.799999999999955-87.8 56.5-34.3 2.2999999999999545-52.300000000000004 34-38.400000000000006 62.799999999999955 9.400000000000006 19.40000000000009 28.400000000000006 27.5 55.7 24.300000000000068 40.30000000000001-4.800000000000068 75.4-21 104.6-49.10000000000002 8.099999999999994-7.899999999999977 12.5-6.5 20.200000000000017 0.39999999999997726 73.80000000000001 66 167.39999999999998 66.39999999999998 241.89999999999998 0.7000000000000455 4.199999999999989-3.7000000000000455 7.300000000000011-5.600000000000023 10.400000000000034-5.800000000000068 3.099999999999966 0.20000000000004547 6.199999999999989 2.1000000000000227 10.399999999999977 5.800000000000068 74.5 65.69999999999993 168 65.29999999999995 241.89999999999998-0.7000000000000455 7.7000000000000455-6.7999999999999545 12-8.199999999999932 20.200000000000045-0.39999999999997726 29.100000000000023 28.100000000000023 64.19999999999993 44.299999999999955 104.60000000000002 49.10000000000002 27.299999999999955 3.2999999999999545 46.299999999999955-4.800000000000068 55.69999999999993-24.300000000000068 13.800000000000068-28.699999999999932-4.199999999999932-60.5-38.5-62.799999999999955z"/>
</svg>
