<svg xmlns="http://www.w3.org/2000/svg" viewBox="0 0 1000 1000" width="1000" height="1000">
<path d="M811.8 411.7c-44.09999999999991-42.89999999999998-96.39999999999998-55-155-33.69999999999999-10.899999999999977 4-15.299999999999955 4.399999999999977-20.399999999999977-8.199999999999989-38-94.80000000000001-126.59999999999997-147.10000000000002-227.39999999999998-135.4-92.10000000000002 10.699999999999989-164.6 83.49999999999997-181.6 181.99999999999997-1.0999999999999943 6-0.20000000000001705 13.400000000000034-7.400000000000006 16.400000000000034-16.400000000000006 6.899999999999977-29.19999999999999 16.69999999999999-39.69999999999999 28.399999999999977l-0.10000000000002274-0.19999999999998863s-77.19999999999999 73.10000000000002-1.6999999999999886 157.29999999999995c2.0999999999999943 2.5 4.199999999999989 4.900000000000091 6.400000000000006 7.2000000000000455l1 1.1000000000000227 0.09999999999999432-0.20000000000004547c18.400000000000006 17.600000000000023 41.80000000000001 28.200000000000045 70.60000000000002 30.800000000000068 29.399999999999977 2.699999999999932 59.299999999999955 0.1999999999999318 89 1.099999999999909l255.39999999999998-0.39999999999997726c38.89999999999998 0 74 1 109-0.1999999999999318 62-2.1000000000000227 106.60000000000002-32 131.60000000000002-88.70000000000005 24-53.60000000000002 12.299999999999955-116.39999999999998-29.800000000000068-157.3z m-254.29999999999995 427.2c-7.600000000000023-3.5-13.700000000000045-0.1999999999999318-18.899999999999977 5.100000000000023-21 20.899999999999977-41.80000000000001 41.89999999999998-62.900000000000034 62.700000000000045-8 7.899999999999977-13 16.59999999999991-3.3999999999999773 25.799999999999955 9.300000000000011 8.799999999999955 18.19999999999999 4.600000000000023 26.30000000000001-3.5 20.100000000000023-20.299999999999955 40.39999999999998-40.5 60.60000000000002-60.700000000000045 3.8999999999999773-3.8999999999999773 7.7999999999999545-7.899999999999977 7.7999999999999545-13.5 0.6000000000000227-7.899999999999977-2.8999999999999773-12.899999999999977-9.5-15.899999999999977z m11.200000000000045-110.89999999999998c-28.100000000000023 27.299999999999955-55.60000000000002 55.10000000000002-83.00000000000006 83-5.800000000000011 5.899999999999977-6.599999999999966 13.700000000000045-2.6999999999999886 21.100000000000023 3.6999999999999886 7.199999999999932 9.800000000000011 11.399999999999977 20.69999999999999 11.299999999999955 3 0.20000000000004547 7.5-2.199999999999932 11.099999999999966-5.7999999999999545 27.300000000000068-27.100000000000023 54.80000000000007-54.200000000000045 81.60000000000002-81.80000000000007 8-8.199999999999932 8.100000000000023-18.59999999999991-0.5-27.09999999999991-8.600000000000023-8.400000000000091-18.799999999999955-8.700000000000045-27.199999999999932-0.7000000000000455z m103.09999999999991 41.299999999999955c-1.3999999999999773 0.40000000000009095-3.5 0.5-5 1.5-19.5 12.100000000000023-35.299999999999955 28.300000000000068-47.69999999999993 47.30000000000007-4.600000000000023 7.100000000000023-0.39999999999997726 14.799999999999955 5.600000000000023 20.299999999999955 6.099999999999909 5.7000000000000455 14.399999999999977 7.800000000000068 20.899999999999977 3.1000000000000227 16.799999999999955-12.299999999999955 32.10000000000002-26.700000000000045 43.799999999999955-43.89999999999998 7.899999999999977-11.700000000000045-3.1000000000000227-28.200000000000045-17.600000000000023-28.300000000000068z m-227.89999999999998-565.9c-2.099999999999966 4.100000000000023-3.8999999999999773 8.400000000000034-5.2999999999999545 12.700000000000017 73-1.799999999999983 137.89999999999998 30.400000000000006 179.10000000000002 88.1 2.099999999999909-3.1999999999999886 4.199999999999932-6.599999999999966 6-10.199999999999989 24.899999999999977-49.5 5-109.80000000000001-44.5-134.8-49.90000000000009-25.19999999999999-110.40000000000003-5.5-135.30000000000007 44.20000000000002z m204.80000000000007 35.70000000000002c-1 6 2.199999999999932 12.400000000000006 7.599999999999909 15.099999999999994 2 1.1000000000000227 4.2000000000000455 1.700000000000017 6.400000000000091 1.6000000000000227 15.099999999999909-0.8000000000000114 30.09999999999991-1.5 45.09999999999991-2.6000000000000227 7.600000000000023-0.5999999999999943 13-7.399999999999977 12.600000000000023-14.799999999999983-0.39999999999997726-7.599999999999994-6.199999999999932-13.900000000000006-13.799999999999955-13.700000000000017-15.399999999999977 0.5-30.800000000000068 1.5-46.200000000000045 2.6000000000000227-6 0.5999999999999943-10.600000000000023 5.699999999999989-11.699999999999932 11.799999999999983z m-61.5-90.19999999999999c7.199999999999932 3.5999999999999943 15.699999999999932 0.6999999999999886 19.399999999999977-6.800000000000011l9.5-18.89999999999999 9.299999999999955-18.60000000000001 0.39999999999997726-0.6999999999999886c3.5-7.400000000000006 0.7000000000000455-15.800000000000011-6.2999999999999545-19.30000000000001-7.2000000000000455-3.6999999999999886-15.799999999999955-0.8999999999999915-19.5 6.5-6.399999999999977 12.700000000000003-12.799999999999955 25.400000000000006-19.100000000000023 38.099999999999994-3.7999999999999545 7.600000000000023-1 16.200000000000017 6.300000000000068 19.700000000000017z m68.19999999999993 144.79999999999998c-7.199999999999932-3.3999999999999773-15.699999999999932 0.10000000000002274-18.899999999999977 6.900000000000034-3.2999999999999545 7.199999999999989-0.39999999999997726 15.399999999999977 6.899999999999977 19.19999999999999 6.399999999999977 3.1999999999999886 12.800000000000068 6.5 19.300000000000068 9.599999999999966 6.2999999999999545 3.2000000000000455 12.599999999999909 6.400000000000034 18.899999999999977 9.5 7.2999999999999545 3.6000000000000227 15.299999999999955 1.2000000000000455 19.199999999999932-5.699999999999989 3.900000000000091-6.899999999999977 1.7000000000000455-15.800000000000011-5.5-19.5-13.299999999999955-7-26.5-13.699999999999989-39.89999999999998-20z m-284.4-111c6.399999999999977 3.200000000000017 12.800000000000011 6.5 19.30000000000001 9.600000000000023 6.300000000000011 3.1999999999999886 12.599999999999966 6.399999999999977 18.899999999999977 9.5 7.300000000000011 3.5999999999999943 15.300000000000011 1.1999999999999886 19.19999999999999-5.700000000000017 3.900000000000034-6.900000000000006 1.7000000000000455-15.799999999999983-5.5-19.5-13.099999999999966-6.900000000000006-26.399999999999977-13.599999999999994-39.799999999999955-20-7.2000000000000455-3.4000000000000057-15.700000000000045 0.09999999999999432-18.900000000000034 6.900000000000006-3.5 7.300000000000011-0.5999999999999659 15.5 6.800000000000011 19.19999999999999z m264.4 11.300000000000011c4.600000000000023 2.1999999999999886 9.200000000000045 2.5 13.5-0.30000000000001137 12.700000000000045-8.099999999999994 25.300000000000068-16.299999999999983 37.80000000000007-24.799999999999983 6.2999999999999545-4.300000000000011 7.399999999999977-12.900000000000006 3.2999999999999545-19.200000000000017-4.100000000000023-6.299999999999983-12.399999999999977-8.799999999999983-18.899999999999977-4.799999999999983-12.899999999999977 8.099999999999994-25.600000000000023 16.299999999999983-38.10000000000002 25-8.600000000000023 6.099999999999994-7 19.400000000000006 2.3999999999999773 24.099999999999994z m-115.79999999999995-61.400000000000006c10 4.900000000000006 21.199999999999932-2.1999999999999886 20.699999999999932-13.5-0.599999999999909-14.399999999999991-1.5-28.89999999999999-2.5-43.19999999999999-0.599999999999909-8.300000000000011-7.2999999999999545-13.900000000000006-15.199999999999932-13.400000000000006-8 0.5-13.900000000000034 6.900000000000006-13.5 15.200000000000003 0.6999999999999886 14.299999999999997 1.599999999999966 28.599999999999994 2.5 42.89999999999999 0.39999999999997726 5.400000000000006 3 9.5 8 12z m-69.70000000000005 16.200000000000017c1.5 2.1999999999999886 3.3000000000000114 3.8999999999999773 5.100000000000023 4.699999999999989 6.5 3.1999999999999886 13.399999999999977 2 17.69999999999999-2.5999999999999943 4.5-4.900000000000006 5.300000000000011-11.700000000000017 1.6000000000000227-17.400000000000006-7.800000000000011-12.099999999999994-15.800000000000011-24.200000000000003-23.80000000000001-36.099999999999994-4.699999999999989-7-13.5-8.700000000000003-20.100000000000023-4.200000000000003-6.7999999999999545 4.599999999999994-8.5 13-3.7999999999999545 20.099999999999994 7.599999999999966 11.900000000000006 15.5 23.700000000000003 23.299999999999955 35.500000000000014z m-139.59999999999997 528.7v13.5l-12.5-12.5-8.600000000000023 8.600000000000023 21.100000000000023 21.100000000000023v22.899999999999977c2-0.39999999999997726 4-0.7000000000000455 6.099999999999966-0.7000000000000455 2.1000000000000227 0 4.100000000000023 0.3000000000000682 6 0.7000000000000455v-22.800000000000068l21.100000000000023-21.09999999999991-8.600000000000023-8.600000000000023-12.5 12.5v-13.5l-12.099999999999966-0.10000000000002274z m12.099999999999966 110.29999999999995c-2 0.40000000000009095-4 0.7000000000000455-6.099999999999966 0.7000000000000455s-4.100000000000023-0.2999999999999545-6.100000000000023-0.7000000000000455v22.90000000000009l-21.099999999999966 21.09999999999991 8.599999999999966 8.600000000000023 12.5-12.5v13.5h12.199999999999989v-13.5l12.5 12.5 8.600000000000023-8.600000000000023-21.100000000000023-21.09999999999991v-22.90000000000009z m-34.299999999999955-22.399999999999977c-0.4000000000000341-1.8999999999999773-0.7000000000000455-4-0.7000000000000455-6 0-2.1000000000000227 0.30000000000001137-4.100000000000023 0.7000000000000455-6.100000000000023h-22.900000000000034l-21.099999999999994-21.09999999999991-8.599999999999994 8.599999999999909 12.5 12.5h-13.5v12.200000000000045h13.5l-12.5 12.5 8.599999999999994 8.600000000000023 21.099999999999994-21.100000000000023h22.900000000000034z m-42.20000000000002-37.60000000000002l29.799999999999983-0.1999999999999318 16.30000000000001 16.100000000000023c2.1999999999999886-3.400000000000091 5.199999999999989-6.400000000000091 8.600000000000023-8.700000000000045l-16.30000000000001-16.100000000000023-0.19999999999998863-29.799999999999955-12.200000000000045 0.10000000000002274 0.10000000000002274 17.699999999999932-9.5-9.5-8.599999999999994 8.700000000000045 9.499999999999972 9.5-17.69999999999999 0.10000000000002274 0.20000000000001705 12.099999999999909z m46.20000000000002 47l-16.30000000000001 16.100000000000023-29.80000000000001-0.1999999999999318-0.09999999999999432 12.199999999999932 17.700000000000017 0.10000000000002274-9.500000000000028 9.5 8.599999999999994 8.700000000000045 9.5-9.5-0.0999999999999659 17.699999999999932 12.199999999999989 0.10000000000002274 0.19999999999998863-29.799999999999955 16.30000000000001-16.100000000000023c-3.6999999999999886-2.3999999999999773-6.600000000000023-5.300000000000068-8.699999999999989-8.800000000000068z m105.69999999999999-34.09999999999991l-8.600000000000023-8.600000000000023-21.099999999999966 21.100000000000023h-22.900000000000034c0.4000000000000341 1.8999999999999773 0.6999999999999886 4 0.6999999999999886 6.099999999999909s-0.2999999999999545 4.100000000000023-0.6999999999999886 6h22.900000000000034l21.099999999999966 21.100000000000023 8.600000000000023-8.600000000000023-12.5-12.5h13.5v-12.199999999999932h-13.5l12.5-12.399999999999977z m-48.60000000000002-51.5l-0.19999999999998863 29.799999999999955-16.30000000000001 16.100000000000023c3.400000000000034 2.2999999999999545 6.400000000000034 5.199999999999932 8.600000000000023 8.699999999999932l16.30000000000001-16.09999999999991 29.799999999999955 0.1999999999999318 0.10000000000002274-12.199999999999932-17.69999999999999-0.10000000000002274 9.5-9.5-8.600000000000023-8.700000000000045-9.5 9.5 0.10000000000002274-17.699999999999932h-12.100000000000023z m38.19999999999999 101.69999999999993l-29.799999999999955 0.20000000000004547-16.30000000000001-16.100000000000023c-2.1999999999999886 3.3999999999999773-5.199999999999989 6.399999999999977-8.600000000000023 8.700000000000045l16.30000000000001 16.09999999999991 0.19999999999998863 29.800000000000068 12.199999999999989-0.10000000000002274-0.0999999999999659-17.700000000000045 9.5 9.5 8.599999999999966-8.699999999999932-9.5-9.5 17.700000000000045-0.10000000000002274-0.20000000000004547-12.100000000000023z m-71.09999999999997-53.60000000000002c-12.199999999999989 0-22.100000000000023 9.900000000000091-22.100000000000023 22.100000000000023 0 12.200000000000045 9.900000000000034 22.100000000000023 22.100000000000023 22.100000000000023 12.199999999999989 0 22.099999999999966-9.899999999999977 22.099999999999966-22.100000000000023-0.0999999999999659-12.199999999999932-9.899999999999977-22.100000000000023-22.099999999999966-22.100000000000023z m120.09999999999997 104.5v-4.599999999999909h-4.099999999999966v4.599999999999909l-4.199999999999989-4.199999999999932-2.900000000000034 2.8999999999999773 7.199999999999989 7.2000000000000455v7.7999999999999545c0.7000000000000455-0.20000000000004547 1.3000000000000114-0.2999999999999545 2.1000000000000227-0.2999999999999545s1.3999999999999773 0.09999999999990905 2.1000000000000227 0.2999999999999545v-7.7999999999999545l7.199999999999989-7.2000000000000455-2.900000000000034-2.8999999999999773-4.5 4.199999999999932z m0 32.90000000000009c-0.6999999999999886 0.1999999999999318-1.2999999999999545 0.2999999999999545-2.099999999999966 0.2999999999999545s-1.400000000000034-0.10000000000002274-2.1000000000000227-0.2999999999999545v7.7999999999999545l-7.199999999999989 7.2000000000000455 2.8999999999999773 2.8999999999999773 4.2000000000000455-4.2000000000000455v4.600000000000023h4.099999999999966v-4.600000000000023l4.300000000000011 4.2000000000000455 2.8999999999999773-2.8999999999999773-7.199999999999989-7.2000000000000455 0.19999999999998863-7.7999999999999545z m-11.599999999999966-7.600000000000023c-0.19999999999998863-0.7000000000000455-0.30000000000001137-1.3000000000000682-0.30000000000001137-2.1000000000000227 0-0.7000000000000455 0.10000000000002274-1.3999999999999773 0.30000000000001137-2.1000000000000227h-7.800000000000011l-7.199999999999989-7.199999999999932-2.900000000000034 2.8999999999999773 4.300000000000011 4.199999999999932h-4.599999999999966v4.100000000000023h4.599999999999966l-4.300000000000011 4.300000000000068 2.900000000000034 2.8999999999999773 7.199999999999989-7.2000000000000455 7.800000000000011 0.20000000000004547z m-14.400000000000034-12.800000000000068l10.200000000000045-0.09999999999990905 5.5 5.5c0.7999999999999545-1.1000000000000227 1.7999999999999545-2.2000000000000455 2.8999999999999773-3l-5.5-5.5-0.10000000000002274-10.200000000000045h-4.099999999999966v6l-3.1999999999999886-3.2000000000000455-2.900000000000034 2.900000000000091 3.1999999999999886 3.199999999999932h-6v4.399999999999977z m15.700000000000045 15.900000000000091l-5.5 5.5h-10.200000000000045v4.099999999999909h6l-3.1999999999999886 3.2000000000000455 2.900000000000034 3 3.1999999999999886-3.2000000000000455v6h4.099999999999966l0.10000000000002274-10.199999999999932 5.5-5.5c-1.1000000000000227-0.7000000000000455-2.1999999999999886-1.7000000000000455-2.8999999999999773-2.8999999999999773z m35.89999999999998-11.5l-2.8999999999999773-2.900000000000091-7.2000000000000455 7.2000000000000455h-7.7999999999999545c0.19999999999998863 0.7000000000000455 0.2999999999999545 1.2999999999999545 0.2999999999999545 2.1000000000000227 0 0.6999999999999318-0.0999999999999659 1.3999999999999773-0.2999999999999545 2.1000000000000227h7.7999999999999545l7.2000000000000455 7.199999999999932 2.8999999999999773-2.8999999999999773-4.300000000000011-4.2999999999999545h4.600000000000023v-4.2000000000000455h-4.600000000000023l4.300000000000011-4.2999999999999545z m-16.5-17.5l-0.10000000000002274 10.199999999999932-5.5 5.5c1.1000000000000227 0.8000000000000682 2.2000000000000455 1.8000000000000682 2.900000000000034 3l5.5-5.5 10.199999999999989 0.10000000000002274v-4.100000000000023h-6l3.1999999999999886-3.199999999999932-2.8999999999999773-2.900000000000091-3.1999999999999886 3.2000000000000455v-6l-4.100000000000023-0.2999999999999545z m13 34.5h-10.199999999999989l-5.5-5.5c-0.8000000000000114 1.099999999999909-1.8000000000000114 2.199999999999932-2.900000000000034 3l5.5 5.5 0.10000000000002274 10.199999999999932h4.100000000000023v-6l3.1999999999999886 3.2000000000000455 2.8999999999999773-3-3.1999999999999886-3.2000000000000455h6v-4.199999999999932z m-16.600000000000023-10.700000000000045c0 4.100000000000023-3.2999999999999545 7.5-7.5 7.5s-7.5-3.2999999999999545-7.5-7.5 3.3000000000000114-7.5 7.5-7.5c4.100000000000023-0.10000000000002274 7.5 3.3999999999999773 7.5 7.5z m-14.199999999999989-103.39999999999998v2.3999999999999773l-2.1999999999999886-2.2000000000000455-1.5 1.5 3.8000000000000114 3.800000000000068v4c0.39999999999997726-0.10000000000002274 0.6999999999999886-0.10000000000002274 1.099999999999966-0.10000000000002274 0.4000000000000341 0 0.7000000000000455 0 1.1000000000000227 0.10000000000002274v-4l3.8000000000000114-3.800000000000068-1.5-1.5-2.3000000000000114 2.2000000000000455v-2.3999999999999773h-2.3000000000000114z m0 26.5v2.3999999999999773h2.1999999999999886v-2.3999999999999773l2.2000000000000455 2.199999999999932 1.5-1.5-3.7000000000000455-3.7999999999999545v-4c-0.39999999999997726 0.10000000000002274-0.6999999999999886 0.10000000000002274-1.099999999999966 0.10000000000002274s-0.6999999999999886 0-1.1000000000000227-0.10000000000002274v4l-3.8000000000000114 3.7999999999999545 1.5 1.5 2.3000000000000114-2.199999999999932z m-13.399999999999977-11h2.3999999999999773l-2.1999999999999886 2.199999999999932 1.5 1.5 3.8000000000000114-3.7999999999999545h4c-0.10000000000002274-0.39999999999997726-0.10000000000002274-0.7000000000000455-0.10000000000002274-1.1000000000000227s0-0.6999999999999318 0.10000000000002274-1.1000000000000227h-4l-3.8000000000000114-3.699999999999932-1.5 1.5 2.1999999999999886 2.199999999999932h-2.3999999999999773v2.300000000000068z m2-6.5h5.300000000000011l2.8999999999999773 2.8999999999999773c0.39999999999997726-0.6000000000000227 0.8999999999999773-1.1000000000000227 1.5-1.5l-2.8999999999999773-2.8999999999999773v-5.300000000000068h-2.2000000000000455v3.2000000000000455l-1.6999999999999886-1.7000000000000455-1.5 1.5 1.6999999999999886 1.7000000000000455h-3.1999999999999886l0.10000000000002274 2.1000000000000227z m6.699999999999989 17.899999999999977v-5.2999999999999545l2.8999999999999773-2.900000000000091c-0.5999999999999659-0.39999999999997726-1.099999999999966-0.8999999999999773-1.5-1.5l-2.8999999999999773 2.900000000000091h-5.300000000000011v2.199999999999932h3.1999999999999886l-1.6999999999999886 1.7000000000000455 1.5 1.5 1.6999999999999886-1.7000000000000455v3.2000000000000455l2.1000000000000227-0.10000000000002274z m18.600000000000023-17.200000000000045l-3.8000000000000114 3.800000000000068h-4c0.0999999999999659 0.39999999999997726 0.0999999999999659 0.6999999999999318 0.0999999999999659 1.1000000000000227s0 0.6999999999999318-0.0999999999999659 1.099999999999909h4l3.8000000000000114 3.800000000000068 1.5-1.5-2.2000000000000455-2.2000000000000455h2.400000000000034v-2.3999999999999773h-2.400000000000034l2.2000000000000455-2.2000000000000455-1.5-1.5z m-7.100000000000023-7.599999999999909v5.2999999999999545l-2.8999999999999773 2.8999999999999773c0.5999999999999659 0.39999999999997726 1.099999999999966 0.8999999999999773 1.5 1.5l2.8999999999999773-2.8999999999999773h5.300000000000011v-2.2000000000000455h-3.1999999999999886l1.6999999999999886-1.6999999999999318-1.5-1.5-1.6999999999999886 1.6999999999999318v-3.199999999999932l-2.1000000000000227 0.10000000000002274z m6.800000000000011 18h-5.300000000000011l-2.8999999999999773-2.900000000000091c-0.4000000000000341 0.6000000000000227-0.9000000000000341 1.1000000000000227-1.5 1.5l2.8999999999999773 2.900000000000091v5.2999999999999545h2.1999999999999886v-3.2000000000000455l1.6999999999999886 1.7000000000000455 1.5-1.5-1.6999999999999886-1.7000000000000455h3.1999999999999886l-0.0999999999999659-2.099999999999909z m-8.699999999999989-5.600000000000023c0 2.199999999999932-1.8000000000000114 3.8999999999999773-3.900000000000034 3.8999999999999773-2.099999999999966 0-3.8999999999999773-1.7999999999999545-3.8999999999999773-3.8999999999999773 0-2.1000000000000227 1.8000000000000114-3.8999999999999773 3.8999999999999773-3.8999999999999773 2.1000000000000227 0 3.900000000000034 1.7999999999999545 3.900000000000034 3.8999999999999773z"/>
</svg>
