<svg xmlns="http://www.w3.org/2000/svg" viewBox="0 0 1000 1000" width="1000" height="1000">
<path d="M522.1 439c-30.400000000000034-29.5-66.5-38-106.90000000000003-23.19999999999999-7.599999999999966 2.8000000000000114-10.599999999999966 3-14-5.699999999999989-26.30000000000001-65.40000000000003-87.39999999999998-101.40000000000003-156.79999999999998-93.40000000000003-63.5 7.400000000000034-113.5 57.60000000000002-125.2 125.5-0.7000000000000028 4.100000000000023-0.10000000000000853 9.199999999999989-5.1000000000000085 11.300000000000011-11.299999999999997 4.800000000000011-20.099999999999994 11.5-27.39999999999999 19.600000000000023v-0.10000000000002274s-53.300000000000004 50.39999999999998-1.2000000000000028 108.5c1.4000000000000057 1.7000000000000455 2.9000000000000057 3.3999999999999773 4.400000000000006 4.899999999999977l0.6999999999999886 0.8000000000000682 0.10000000000000853-0.10000000000002274c12.599999999999994 12.100000000000023 28.799999999999997 19.399999999999977 48.7 21.299999999999955 20.299999999999983 1.8999999999999773 40.900000000000006 0.10000000000002274 61.400000000000006 0.7000000000000455l176.2-0.3000000000000682c26.80000000000001 0 51 0.7000000000000455 75.19999999999999-0.1999999999999318 42.69999999999999-1.5 73.50000000000006-22.100000000000023 90.80000000000001-61.200000000000045 16.100000000000023-36.799999999999955 8.100000000000023-80.19999999999999-20.899999999999977-108.39999999999998z m-107.70000000000005-81.19999999999999c-3.7999999999999545-1.900000000000034-7.5-1.400000000000034-10.699999999999989 1.3000000000000114-5.599999999999966 4.599999999999966-4.399999999999977 13.199999999999989 2.3000000000000114 16.599999999999966 7.899999999999977 4 15.800000000000011 8 23.80000000000001 11.900000000000034 7 3.5 9.599999999999966 3.1999999999999886 15.399999999999977-1.900000000000034l1.400000000000034-2.6999999999999886v-1.1999999999999886c0.5999999999999659-4.800000000000011-1.2000000000000455-8.5-5.600000000000023-10.699999999999989-8.899999999999977-4.5-17.69999999999999-8.900000000000034-26.600000000000023-13.300000000000011z m-146.2-62.5c-1.3999999999999773 2.8999999999999773-2.599999999999966 5.800000000000011-3.599999999999966 8.699999999999989 50.39999999999998-1.3000000000000114 95.09999999999997 21 123.59999999999997 60.80000000000001 1.5-2.1999999999999886 2.900000000000034-4.5 4.100000000000023-7 17.19999999999999-34.19999999999999 3.3999999999999773-75.80000000000001-30.69999999999999-93-34.5-17.30000000000001-76.20000000000005-3.6999999999999886-93.40000000000003 30.5z m141.40000000000003 24.69999999999999c-0.7000000000000455 4.100000000000023 1.5 8.5 5.2999999999999545 10.5 1.400000000000034 0.8000000000000114 2.900000000000034 1.1999999999999886 4.400000000000034 1.1000000000000227 10.399999999999977-0.5 20.69999999999999-1 31.099999999999966-1.8000000000000114 5.300000000000011-0.4000000000000341 8.900000000000034-5 8.700000000000045-10.199999999999989-0.30000000000001137-5.2000000000000455-4.300000000000011-9.600000000000023-9.5-9.400000000000034-10.600000000000023 0.30000000000001137-21.200000000000045 1-31.80000000000001 1.8000000000000114-4.300000000000011 0.19999999999998863-7.5 3.8000000000000114-8.199999999999989 8z m-42.5-62.19999999999999c5 2.5 10.799999999999955 0.5 13.399999999999977-4.700000000000017 2.1999999999999886-4.299999999999983 4.399999999999977-8.699999999999989 6.5-13l6.399999999999977-12.799999999999983 0.20000000000004547-0.5c2.3999999999999773-5.100000000000023 0.5-10.800000000000011-4.400000000000034-13.300000000000011-5-2.5-10.899999999999977-0.5999999999999943-13.5 4.5-4.399999999999977 8.699999999999989-8.800000000000011 17.5-13.199999999999989 26.30000000000001-2.3000000000000114 5.099999999999994-0.39999999999997726 11 4.600000000000023 13.5z m-147.70000000000002 24.5c4.400000000000006 2.1999999999999886 8.799999999999983 4.399999999999977 13.299999999999983 6.699999999999989 4.300000000000011 2.1999999999999886 8.700000000000017 4.399999999999977 13 6.5 5 2.5 10.600000000000023 0.8000000000000114 13.199999999999989-3.8999999999999773 2.7000000000000455-4.800000000000011 1.2000000000000455-10.800000000000011-3.799999999999983-13.5-9-4.800000000000011-18.19999999999999-9.400000000000034-27.400000000000006-13.800000000000011-5-2.400000000000034-10.799999999999983 0-13 4.800000000000011-2.299999999999983 4.899999999999977-0.29999999999998295 10.599999999999966 4.700000000000017 13.199999999999989z m180.99999999999997 6.599999999999966c3.1000000000000227 1.5 6.400000000000034 1.7000000000000455 9.300000000000011-0.19999999999998863 8.800000000000011-5.599999999999966 17.5-11.199999999999989 26-17.099999999999966 4.300000000000011-3 5.100000000000023-8.900000000000034 2.3000000000000114-13.200000000000045-2.8999999999999773-4.399999999999977-8.600000000000023-6.099999999999966-13-3.299999999999983-8.899999999999977 5.500000000000028-17.69999999999999 11.200000000000017-26.30000000000001 17.200000000000017-5.899999999999977 4.199999999999989-4.800000000000011 13.300000000000011 1.6999999999999886 16.599999999999966z m-79.89999999999998-42.39999999999998c6.899999999999977 3.4000000000000057 14.600000000000023-1.5 14.300000000000011-9.300000000000011-0.4000000000000341-10-1-19.899999999999977-1.8000000000000114-29.799999999999983-0.39999999999997726-5.700000000000017-5-9.599999999999994-10.5-9.200000000000017-5.5 0.4000000000000057-9.600000000000023 4.800000000000011-9.300000000000011 10.5 0.5 9.900000000000006 1.1000000000000227 19.700000000000017 1.8000000000000114 29.600000000000023 0.19999999999998863 3.6999999999999886 2 6.5 5.5 8.199999999999989z m-48.10000000000002 11.199999999999989c1 1.5 2.3000000000000114 2.6999999999999886 3.5 3.3000000000000114 4.5 2.1999999999999886 9.300000000000011 1.3999999999999773 12.200000000000045-1.8000000000000114 3.099999999999966-3.3999999999999773 3.599999999999966-8.099999999999994 1.099999999999966-12-5.399999999999977-8.399999999999977-10.899999999999977-16.69999999999999-16.399999999999977-24.899999999999977-3.3000000000000114-4.800000000000011-9.300000000000011-6-13.900000000000034-2.9000000000000057-4.699999999999989 3.1999999999999886-5.799999999999983 8.900000000000006-2.599999999999966 13.900000000000006l16.099999999999966 24.399999999999977z m413.6 298.40000000000003c-39.5-0.20000000000004547-79-0.10000000000002274-118.39999999999998-0.20000000000004547l-0.10000000000002274 0.3000000000000682c-8.799999999999955 20-21.200000000000045 35-36.799999999999955 45.299999999999955 52.69999999999993 0 105.39999999999998-0.10000000000002274 158 0.20000000000004547 55.39999999999998 0.1999999999999318 95.79999999999995 44.5 90.29999999999995 97.79999999999995-4 38.299999999999955-47.299999999999955 67-81.89999999999998 54.200000000000045-28.200000000000045-10.400000000000091-41.200000000000045-44.10000000000002-25.5-65.70000000000005 13-17.799999999999955 37-18.799999999999955 51.39999999999998-2.1000000000000227 8.5 9.800000000000068 20.899999999999977 11.399999999999977 31 4 9.100000000000023-6.699999999999932 11.299999999999955-19.5 5.100000000000023-30.100000000000023-14.300000000000068-24.5-48.30000000000007-36.69999999999993-78.60000000000002-28.799999999999955-59.799999999999955 15.600000000000023-78.79999999999995 82.79999999999995-43.10000000000002 132.5 16.100000000000023 22.399999999999977 39 33.39999999999998 65.20000000000005 38.89999999999998h25.399999999999977c10-3.1000000000000227 20.299999999999955-5.399999999999977 29.899999999999977-9.5 59.700000000000045-25.699999999999932 84.70000000000005-95.69999999999993 55.5-157.29999999999995-25.299999999999955-53.5-69-79.30000000000007-127.39999999999998-79.5z m-96.89999999999998-127.5c12.699999999999932 1 23.799999999999955-6.600000000000023 24.199999999999932-19.5 0.8000000000000682-21.5 17.200000000000045-34.700000000000045 31-35.5 21.40000000000009-1.2000000000000455 41.700000000000045 12.5 47.700000000000045 32.5 10.299999999999955 34.299999999999955-17.200000000000045 74.89999999999998-53 77.69999999999999-22.799999999999955 1.8000000000000114-45.700000000000045 1.599999999999966-68.5 1.3000000000000114 4.899999999999977 14.299999999999955 6.2999999999999545 29.600000000000023 4.2999999999999545 44.799999999999955 19.700000000000045 0 39.40000000000009 0.10000000000002274 59.200000000000045 0 57.10000000000002-0.2999999999999545 107.39999999999998-51.19999999999999 106-108.29999999999995-1.2999999999999545-53.60000000000002-38.700000000000045-91.10000000000002-91.89999999999998-93.5-41.700000000000045-1.900000000000034-78.60000000000002 34.69999999999999-79.20000000000005 76.69999999999999-0.2999999999999545 13.099999999999966 8 22.899999999999977 20.200000000000045 23.80000000000001z m330.4-14.900000000000034c-17.700000000000045-20.19999999999999-40.799999999999955-28.5-67.39999999999998-22.599999999999966-24.399999999999977 5.399999999999977-39.5 21.299999999999955-46.5 45.19999999999999-1.5 5.199999999999989-1.7000000000000455 10.399999999999977-1.5 15.599999999999966 0.5 12 8.799999999999955 20.5 20.399999999999977 21.400000000000034 11.899999999999977 0.8999999999999773 20.700000000000045-5.699999999999989 23.600000000000023-17.69999999999999 4.100000000000023-17.100000000000023 10-22.5 22.100000000000023-20.400000000000034 14.299999999999955 2.5 24.199999999999932 16.400000000000034 22 31-3 20.69999999999999-19.300000000000068 34-42.700000000000045 34.10000000000002-28.799999999999955 0.19999999999998863-57.60000000000002-0.10000000000002274-86.39999999999998 0-13.200000000000045 0.0999999999999659-21.600000000000023 6.099999999999966-24.200000000000045 16.099999999999966-3.699999999999932 14.399999999999977 4.899999999999977 27.399999999999977 20.100000000000023 28.200000000000045 17.899999999999977 0.8999999999999773 35.799999999999955 0.1999999999999318 53.700000000000045 0.1999999999999318 23-0.6999999999999318 46.19999999999993 3.2000000000000455 68.89999999999998-4.399999999999977 53.19999999999993-17.699999999999932 73.89999999999998-85.39999999999998 37.89999999999998-126.69999999999999z m-576.4 251.50000000000006v4.099999999999909l-3.8000000000000114-3.7999999999999545-2.6000000000000227 2.6000000000000227 6.5 6.5v7c0.6000000000000227-0.10000000000002274 1.1999999999999886-0.20000000000004547 1.900000000000034-0.20000000000004547 0.5999999999999659 0 1.2999999999999545 0.10000000000002274 1.8999999999999773 0.20000000000004547v-7l6.5-6.5-2.6000000000000227-2.6000000000000227-3.7999999999999545 3.7999999999999545v-4.099999999999909h-4z m3.7999999999999545 33.799999999999955c-0.5999999999999659 0.10000000000002274-1.1999999999999886 0.20000000000004547-1.8999999999999773 0.20000000000004547s-1.3000000000000114-0.10000000000002274-1.8999999999999773-0.20000000000004547v7l-6.5 6.5 2.599999999999966 2.6000000000000227 3.8000000000000114-3.800000000000068v4.100000000000023h3.6999999999999886v-4.100000000000023l3.8000000000000114 3.800000000000068 2.6000000000000227-2.6000000000000227-6.5-6.5v-7z m-10.599999999999966-6.899999999999977c-0.10000000000002274-0.6000000000000227-0.19999999999998863-1.2000000000000455-0.19999999999998863-1.8999999999999773 0-0.6000000000000227 0.0999999999999659-1.3000000000000682 0.19999999999998863-1.900000000000091h-7l-6.5-6.5-2.6000000000000227 2.6000000000000227 3.8000000000000114 3.800000000000068h-4.100000000000023v3.699999999999932h4.100000000000023l-3.8000000000000114 3.800000000000068 2.6000000000000227 2.599999999999909 6.5-6.5 7 0.3000000000000682z m-12.900000000000034-11.5h9.200000000000045l5 5c0.6999999999999886-1.1000000000000227 1.599999999999966-2 2.599999999999966-2.7000000000000455l-5-4.899999999999977v-9.200000000000045h-3.6999999999999886v5.400000000000091l-2.8999999999999773-2.900000000000091-2.6000000000000227 2.6000000000000227 2.8999999999999773 2.8999999999999773h-5.399999999999977l-0.10000000000002274 3.800000000000068z m8 31.100000000000023h3.7000000000000455v-9.100000000000023l5-4.899999999999977c-1.1000000000000227-0.7000000000000455-1.900000000000034-1.6000000000000227-2.6000000000000227-2.7000000000000455l-5 5h-9.199999999999989v3.7000000000000455h5.399999999999977l-2.8999999999999773 2.8999999999999773 2.599999999999966 2.699999999999932 2.900000000000034-2.8999999999999773 0.0999999999999659 5.300000000000068z m38.60000000000002-27.200000000000045l-2.6000000000000227-2.6000000000000227-6.5 6.5h-7c0.10000000000002274 0.6000000000000227 0.20000000000004547 1.2000000000000455 0.20000000000004547 1.8999999999999773 0 0.6000000000000227-0.10000000000002274 1.3000000000000682-0.20000000000004547 1.900000000000091h7l6.5 6.5 2.6000000000000227-2.6000000000000227-3.8000000000000114-3.800000000000068h4.100000000000023v-3.699999999999932h-4.100000000000023l3.8000000000000114-4.100000000000023z m-14.899999999999977-15.799999999999955v9.199999999999932l-5 4.899999999999977c1.099999999999966 0.7000000000000455 1.8999999999999773 1.6000000000000227 2.599999999999966 2.7000000000000455l5-5h9.199999999999989v-3.7000000000000455h-5.399999999999977l2.8999999999999773-2.8999999999999773-2.599999999999966-2.6000000000000227-2.900000000000034 2.900000000000091v-5.400000000000091l-3.7999999999999545-0.09999999999990905z m11.699999999999989 31.199999999999932h-9.199999999999989l-5-5c-0.7000000000000455 1.1000000000000227-1.6000000000000227 2-2.6000000000000227 2.7000000000000455l5 4.899999999999977v9.100000000000023h3.6999999999999886v-5.399999999999977l2.900000000000034 2.8999999999999773 2.599999999999966-2.7000000000000455-2.8999999999999773-2.8999999999999773h5.399999999999977l0.10000000000002274-3.6000000000000227z m-15-9.699999999999932c0 3.699999999999932-3 6.7999999999999545-6.800000000000011 6.7999999999999545s-6.800000000000011-3-6.800000000000011-6.7999999999999545 3-6.800000000000068 6.800000000000011-6.800000000000068 6.800000000000011 3.1000000000000227 6.800000000000011 6.800000000000068z m-159.8-62.40000000000009v9.300000000000068l-8.599999999999994-8.600000000000023-5.900000000000006 5.899999999999977 14.5 14.5v15.800000000000068c1.4000000000000057-0.3000000000000682 2.8000000000000114-0.5 4.199999999999989-0.5s2.8000000000000114 0.1999999999999318 4.200000000000017 0.5v-15.800000000000068l14.5-14.5-5.900000000000006-5.899999999999977-8.599999999999994 8.600000000000023v-9.300000000000068h-8.400000000000006z m8.400000000000006 76c-1.4000000000000057 0.3000000000000682-2.8000000000000114 0.5-4.200000000000017 0.5s-2.799999999999983-0.1999999999999318-4.199999999999989-0.5v15.800000000000068l-14.5 14.5 5.900000000000006 5.899999999999977 8.599999999999994-8.600000000000023v9.300000000000068h8.400000000000006v-9.300000000000068l8.599999999999994 8.600000000000023 5.900000000000006-5.899999999999977-14.5-14.5v-15.800000000000068z m-23.700000000000017-15.399999999999977c-0.29999999999998295-1.2999999999999545-0.5-2.7999999999999545-0.5-4.199999999999932 0-1.400000000000091 0.20000000000001705-2.800000000000068 0.5-4.2000000000000455h-15.799999999999983l-14.5-14.5-5.900000000000006 5.899999999999977 8.599999999999994 8.600000000000023h-9.299999999999983v8.399999999999977h9.299999999999983l-8.599999999999994 8.600000000000023 5.900000000000006 5.899999999999977 14.5-14.600000000000023h15.799999999999983z m-29.099999999999994-26l20.599999999999994-0.10000000000002274 11.200000000000017 11.100000000000023c1.5-2.3999999999999773 3.5-4.399999999999977 5.900000000000006-6l-11.200000000000017-11.100000000000023-0.09999999999999432-20.59999999999991h-8.400000000000006l0.09999999999999432 12.199999999999932-6.599999999999994-6.5-5.900000000000006 6 6.600000000000023 6.5-12.200000000000017 0.10000000000002274v8.399999999999977z m31.80000000000001 32.5l-11.200000000000017 11.100000000000023-20.599999999999994-0.10000000000002274v8.399999999999977h12.200000000000017l-6.600000000000023 6.5 5.900000000000006 6 6.599999999999994-6.5-0.09999999999999432 12.200000000000045h8.400000000000006l0.09999999999999432-20.600000000000023 11.200000000000017-11.100000000000023c-2.3000000000000114-1.5-4.400000000000006-3.5-5.900000000000006-5.899999999999977z m73-23.5l-5.900000000000006-5.899999999999977-14.599999999999994 14.5h-15.800000000000011c0.30000000000001137 1.2999999999999545 0.5 2.7999999999999545 0.5 4.2000000000000455 0 1.3999999999999773-0.19999999999998863 2.7999999999999545-0.5 4.199999999999932h15.800000000000011l14.5 14.600000000000023 5.900000000000006-5.899999999999977-8.600000000000023-8.600000000000023h9.300000000000011v-8.5h-9.300000000000011l8.700000000000017-8.600000000000023z m-33.5-35.60000000000002l-0.09999999999999432 20.600000000000023-11.200000000000017 11.100000000000023c2.4000000000000057 1.5 4.400000000000006 3.6000000000000227 5.900000000000006 6l11.199999999999989-11.100000000000023 20.600000000000023 0.10000000000002274v-8.399999999999977l-12.200000000000017-0.10000000000002274 6.599999999999994-6.5-5.899999999999977-6-6.600000000000023 6.5 0.10000000000002274-12.200000000000045h-8.400000000000006z m26.299999999999983 70.10000000000002l-20.599999999999994 0.10000000000002274-11.199999999999989-11.100000000000023c-1.5 2.3999999999999773-3.5 4.399999999999977-5.900000000000006 6l11.199999999999989 11.100000000000023 0.10000000000002274 20.600000000000023h8.399999999999977l-0.09999999999999432-12.200000000000045 6.599999999999994 6.5 5.900000000000006-6-6.599999999999994-6.5h12.199999999999989v-8.5z m-49-36.89999999999998c-8.399999999999977 0-15.199999999999989 6.7999999999999545-15.199999999999989 15.200000000000045 0 8.399999999999977 6.800000000000011 15.199999999999932 15.199999999999989 15.199999999999932 8.400000000000006 0 15.200000000000017-6.7999999999999545 15.200000000000017-15.199999999999932 0-8.400000000000091-6.800000000000011-15.200000000000045-15.200000000000017-15.200000000000045z m82.80000000000001 72.10000000000002v-3.2000000000000455h-2.8000000000000114v3.2000000000000455l-2.8999999999999773-2.8999999999999773-2 2 4.899999999999977 4.899999999999977v5.399999999999977c0.5-0.10000000000002274 0.9000000000000341-0.20000000000004547 1.400000000000034-0.20000000000004547s1 0.10000000000002274 1.3999999999999773 0.20000000000004547v-5.399999999999977l4.899999999999977-4.899999999999977-2-2-2.8999999999999773 2.8999999999999773z m0 22.600000000000023c-0.5 0.09999999999990905-0.8999999999999773 0.1999999999999318-1.3999999999999773 0.1999999999999318-0.5 0-1-0.10000000000002274-1.400000000000034-0.1999999999999318v5.399999999999977l-4.899999999999977 4.899999999999977 2 2 2.8999999999999773-2.8999999999999773v3.1000000000000227h2.8000000000000114v-3.1000000000000227l2.8999999999999773 2.8999999999999773 2-2-4.899999999999977-4.899999999999977v-5.399999999999977z m-8-5.2000000000000455c-0.10000000000002274-0.5-0.19999999999998863-0.8999999999999773-0.19999999999998863-1.3999999999999773 0-0.5 0.0999999999999659-1 0.19999999999998863-1.3999999999999773h-5.399999999999977l-4.900000000000034-4.900000000000091-2 2 2.900000000000034 2.900000000000091h-3.2000000000000455v2.7999999999999545h3.2000000000000455l-2.900000000000034 2.8999999999999773 2 2 4.900000000000034-4.899999999999977h5.399999999999977z m-9.899999999999977-8.799999999999955h7l3.7999999999999545 3.7999999999999545c0.5-0.7999999999999545 1.2000000000000455-1.5 2-2l-3.7999999999999545-3.7999999999999545v-7h-2.8000000000000114v4.099999999999909l-2.1999999999999886-2.199999999999932-2 2 2.1999999999999886 2.199999999999932h-4.100000000000023l-0.0999999999999659 2.900000000000091z m10.799999999999955 11l-3.7999999999999545 3.7999999999999545h-7v2.7999999999999545h4.099999999999966l-2.1999999999999886 2.2000000000000455 2 2 2.1999999999999886-2.2000000000000455v4.100000000000023h2.8000000000000114v-7l3.8000000000000114-3.7999999999999545c-0.6999999999999886-0.39999999999997726-1.400000000000034-1.1000000000000227-1.900000000000034-1.8999999999999773z m24.80000000000001-8l-2-2-4.899999999999977 4.899999999999977h-5.400000000000034c0.10000000000002274 0.5 0.20000000000004547 0.8999999999999773 0.20000000000004547 1.3999999999999773 0 0.5-0.10000000000002274 1-0.20000000000004547 1.3999999999999773h5.400000000000034l4.899999999999977 4.899999999999977 2-2-2.8999999999999773-2.8999999999999773h3.1999999999999886v-2.7999999999999545h-3.1999999999999886l2.8999999999999773-2.8999999999999773z m-11.399999999999977-12v7l-3.8000000000000114 3.7999999999999545c0.8000000000000114 0.5 1.5 1.2000000000000455 2 2l3.8000000000000114-3.7999999999999545h7v-2.800000000000068h-4.100000000000023l2.1999999999999886-2.199999999999932-2-2-2.1999999999999886 2.199999999999932v-4.100000000000023l-2.8999999999999773-0.09999999999990905z m9 23.799999999999955h-7l-3.8000000000000114-3.7999999999999545c-0.5 0.7999999999999545-1.1999999999999886 1.5-2 2l3.8000000000000114 3.7999999999999545v7h2.8000000000000114v-4.100000000000023l2.1999999999999886 2.2000000000000455 2-2-2.1999999999999886-2.2000000000000455h4.099999999999966l0.10000000000002274-2.8999999999999773z m-11.5-7.399999999999977c0 2.8999999999999773-2.3000000000000114 5.199999999999932-5.199999999999989 5.199999999999932s-5.2000000000000455-2.2999999999999545-5.2000000000000455-5.199999999999932c0-2.8999999999999773 2.3000000000000114-5.2000000000000455 5.2000000000000455-5.2000000000000455s5.199999999999989 2.300000000000068 5.199999999999989 5.2000000000000455z m137.89999999999998-104.39999999999998v3.199999999999932l-3-3-2.099999999999966 2.1000000000000227 5 5v5.5c0.5-0.10000000000002274 1-0.20000000000004547 1.5-0.20000000000004547s1 0.10000000000002274 1.5 0.20000000000004547v-5.5l5.099999999999966-5-2.099999999999966-2.1000000000000227-3 3v-3.199999999999932h-2.900000000000034z m2.900000000000034 26.399999999999977c-0.5 0.10000000000002274-1 0.1999999999999318-1.5 0.1999999999999318s-1-0.09999999999990905-1.5-0.1999999999999318v5.5l-5.100000000000023 5.100000000000023 2.1000000000000227 2.099999999999909 3-3v3.2000000000000455h2.8999999999999773v-3.2000000000000455l3 3 2.1000000000000227-2.099999999999909-5.100000000000023-5.100000000000023 0.10000000000002274-5.5z m-8.200000000000045-5.300000000000068c-0.0999999999999659-0.5-0.19999999999998863-1-0.19999999999998863-1.5s0.10000000000002274-1 0.19999999999998863-1.5h-5.5l-5.099999999999966-5.099999999999909-2.1000000000000227 2.099999999999909 3 3h-3.1999999999999886v2.900000000000091h3.1999999999999886l-3 3 2.1000000000000227 2.099999999999909 5.099999999999966-5.099999999999909 5.5 0.09999999999990905z m-10.199999999999989-9h7.100000000000023l3.8999999999999773 3.900000000000091c0.5-0.8000000000000682 1.1999999999999886-1.5 2-2.1000000000000227l-3.8999999999999773-3.8999999999999773v-7.100000000000023h-2.900000000000034v4.199999999999932l-2.2999999999999545-2.2999999999999545-2 2.1000000000000227 2.2999999999999545 2.2999999999999545h-4.199999999999989v2.8999999999999773z m11.100000000000023 11.200000000000045l-3.900000000000034 3.8999999999999773h-7.099999999999966v2.8999999999999773h4.199999999999989l-2.3000000000000114 2.300000000000068 2 2.1000000000000227 2.3000000000000114-2.300000000000068v4.2000000000000455h2.8999999999999773v-7.100000000000023l3.900000000000034-3.8999999999999773c-0.8000000000000114-0.5-1.5-1.2000000000000455-2-2.1000000000000227z m25.30000000000001-8.100000000000023l-2.1000000000000227-2.1000000000000227-5.100000000000023 5.100000000000023h-5.399999999999977c0.10000000000002274 0.5 0.19999999999998863 1 0.19999999999998863 1.5s-0.0999999999999659 1-0.19999999999998863 1.5h5.5l5.100000000000023 5.100000000000023 2.099999999999966-2.1000000000000227-3-3h3.1999999999999886v-2.8999999999999773h-3.1999999999999886l2.900000000000034-3.1000000000000227z m-11.600000000000023-12.399999999999977v7.100000000000023l-3.8999999999999773 3.8999999999999773c0.7999999999999545 0.5 1.5 1.2000000000000455 2 2.1000000000000227l3.8999999999999773-3.8999999999999773h7.100000000000023v-2.900000000000091h-4.2000000000000455l2.3000000000000114-2.2999999999999545-2-2.1000000000000227-2.3000000000000114 2.300000000000068v-4.2000000000000455h-2.8999999999999773z m9.100000000000023 24.399999999999977h-7.100000000000023l-3.8999999999999773-3.8999999999999773c-0.5 0.7999999999999545-1.2000000000000455 1.5-2 2.1000000000000227l3.8999999999999773 3.8999999999999773v7.100000000000023h2.8999999999999773v-4.2000000000000455l2.3000000000000114 2.300000000000068 2-2.1000000000000227-2.3000000000000114-2.300000000000068h4.2000000000000455v-2.8999999999999773z m-11.700000000000045-7.600000000000023c0 2.900000000000091-2.3999999999999773 5.300000000000068-5.2999999999999545 5.300000000000068s-5.300000000000011-2.3999999999999773-5.300000000000011-5.300000000000068 2.3999999999999773-5.2999999999999545 5.300000000000011-5.2999999999999545 5.2999999999999545 2.3999999999999773 5.2999999999999545 5.2999999999999545z m-83.5 93.80000000000007v2.2999999999999545l-2.099999999999966-2.1000000000000227-1.400000000000034 1.400000000000091 3.5 3.5v3.7999999999999545c0.30000000000001137-0.10000000000002274 0.7000000000000455-0.10000000000002274 1-0.10000000000002274 0.4000000000000341 0 0.7000000000000455 0 1 0.10000000000002274v-3.7999999999999545l3.5-3.5-1.3999999999999773-1.400000000000091-2.1000000000000227 2.1000000000000227v-2.2999999999999545h-2z m2.1000000000000227 18.5c-0.30000000000001137 0.10000000000002274-0.6999999999999886 0.10000000000002274-1 0.10000000000002274-0.39999999999997726 0-0.6999999999999886 0-1-0.10000000000002274v3.7999999999999545l-3.5 3.5 1.3999999999999773 1.3999999999999773 2.1000000000000227-2.099999999999909v2.2999999999999545h2v-2.2999999999999545l2.1000000000000227 2.099999999999909 1.3999999999999773-1.3999999999999773-3.5-3.5v-3.7999999999999545z m-5.800000000000011-3.800000000000068c-0.0999999999999659-0.2999999999999545-0.0999999999999659-0.6999999999999318-0.0999999999999659-1 0-0.39999999999997726 0-0.6999999999999318 0.0999999999999659-1h-3.8000000000000114l-3.5-3.5-1.3999999999999773 1.400000000000091 2.1000000000000227 2.099999999999909h-2.3000000000000114v2h2.3000000000000114l-2.1000000000000227 2.1000000000000227 1.3999999999999773 1.3999999999999773 3.5-3.5h3.8000000000000114z m-7.099999999999966-6.2999999999999545h5l2.6999999999999886 2.7000000000000455c0.39999999999997726-0.6000000000000227 0.8999999999999773-1.1000000000000227 1.3999999999999773-1.400000000000091l-2.6999999999999886-2.699999999999932v-5h-2v3l-1.6000000000000227-1.6000000000000227-1.3999999999999773 1.3999999999999773 1.6000000000000227 1.6000000000000227h-3v2z m7.7999999999999545 7.899999999999977l-2.6999999999999886 2.7000000000000455h-5v2h3l-1.599999999999966 1.6000000000000227 1.3999999999999773 1.3999999999999773 1.6000000000000227-1.6000000000000227v3h2v-5l2.6999999999999886-2.7000000000000455c-0.6000000000000227-0.2999999999999545-1.1000000000000227-0.7999999999999545-1.400000000000034-1.3999999999999773z m17.700000000000045-5.699999999999932l-1.400000000000034-1.400000000000091-3.5 3.5h-3.8000000000000114c0.10000000000002274 0.3000000000000682 0.10000000000002274 0.7000000000000455 0.10000000000002274 1 0 0.3000000000000682 0 0.7000000000000455-0.10000000000002274 1h3.8000000000000114l3.5 3.5 1.400000000000034-1.3999999999999773-2.1000000000000227-2.1000000000000227h2.3000000000000114v-2h-2.3000000000000114l2.1000000000000227-2.099999999999909z m-4.5-7.2000000000000455l-1.6000000000000227 1.6000000000000227v-3h-2v5l-2.6999999999999886 2.699999999999932c0.5999999999999659 0.40000000000009095 1.099999999999966 0.900000000000091 1.3999999999999773 1.400000000000091l2.6999999999999886-2.7000000000000455h5v-2h-3l1.6000000000000227-1.6000000000000227-1.3999999999999773-1.3999999999999773z m2.7999999999999545 15.600000000000023h-5l-2.6999999999999886-2.7000000000000455c-0.39999999999997726 0.6000000000000227-0.8999999999999773 1.1000000000000227-1.3999999999999773 1.5l2.6999999999999886 2.7000000000000455v5h2v-3l1.6000000000000227 1.6000000000000227 1.3999999999999773-1.400000000000091-1.6000000000000227-1.599999999999909h3v-2.1000000000000227z m-8.299999999999955-5.300000000000068c0 2-1.7000000000000455 3.7000000000000455-3.7000000000000455 3.7000000000000455s-3.6999999999999886-1.7000000000000455-3.6999999999999886-3.7000000000000455 1.6999999999999886-3.699999999999932 3.6999999999999886-3.699999999999932 3.7000000000000455 1.6999999999999318 3.7000000000000455 3.699999999999932z m-75.60000000000002-94v1.6000000000000227l-1.5-1.5-1 1 2.6000000000000227 2.6000000000000227v2.7999999999999545c0.19999999999998863-0.09999999999990905 0.5-0.09999999999990905 0.6999999999999886-0.09999999999990905 0.30000000000001137 0 0.5 0 0.6999999999999886 0.09999999999990905v-2.7999999999999545l2.6000000000000227-2.6000000000000227-1-1-1.5 1.5v-1.6000000000000227h-1.6000000000000227z m0 18.300000000000068v1.6000000000000227h1.5v-1.6000000000000227l1.5 1.5 1-1-2.6000000000000227-2.6000000000000227v-2.7999999999999545c-0.19999999999998863 0.09999999999990905-0.5 0.09999999999990905-0.6999999999999886 0.09999999999990905s-0.5 0-0.6999999999999886-0.09999999999990905v2.7999999999999545l-2.6000000000000227 2.6000000000000227 1 1 1.6000000000000227-1.5z m-9.199999999999989-7.600000000000023h1.599999999999966l-1.5 1.5 1 1 2.6000000000000227-2.6000000000000227h2.8000000000000114c-0.10000000000002274-0.1999999999999318-0.10000000000002274-0.5-0.10000000000002274-0.6999999999999318 0-0.3000000000000682 0-0.5 0.10000000000002274-0.7000000000000455h-2.8000000000000114l-2.6000000000000227-2.6000000000000227-1 1 1.5 1.5h-1.599999999999966v1.6000000000000227z m1.3999999999999773-4.600000000000023h3.6000000000000227l2 2c0.30000000000001137-0.39999999999997726 0.5999999999999659-0.7999999999999545 1-1.1000000000000227l-2-2v-3.599999999999909h-1.5v2.199999999999932l-1.1999999999999886-1.1999999999999318-1 1.099999999999909 1.1999999999999886 1.2000000000000455h-2.1999999999999886l0.0999999999999659 1.3999999999999773z m4.600000000000023 12.399999999999977v-3.599999999999909l2-2c-0.4000000000000341-0.3000000000000682-0.8000000000000114-0.6000000000000227-1-1.1000000000000227l-2 2h-3.6000000000000227v1.5h2.1999999999999886l-1.1999999999999886 1.1999999999999318 1 1.1000000000000227 1.1999999999999886-1.1999999999999318v2.199999999999932l1.400000000000034-0.10000000000002274z m12.800000000000011-11.799999999999955l-2.6000000000000227 2.5h-2.8000000000000114c0.10000000000002274 0.20000000000004547 0.10000000000002274 0.5 0.10000000000002274 0.7000000000000455 0 0.2999999999999545 0 0.5-0.10000000000002274 0.6999999999999318h2.8000000000000114l2.6000000000000227 2.6000000000000227 1-1-1.5-1.5h1.599999999999966v-1.5h-1.599999999999966l1.5-1.5-1-1z m-4.900000000000034-5.2999999999999545v3.599999999999909l-2 2c0.4000000000000341 0.3000000000000682 0.8000000000000114 0.6000000000000227 1 1.1000000000000227l2-2h3.6000000000000227v-1.5h-2.1999999999999886l1.1999999999999886-1.1999999999999318-1-1.1000000000000227-1.1999999999999886 1.1999999999999318v-2.199999999999932l-1.400000000000034 0.10000000000002274z m4.699999999999989 12.399999999999977h-3.599999999999966l-2-2c-0.30000000000001137 0.39999999999997726-0.6000000000000227 0.7999999999999545-1 1.1000000000000227l2 2v3.599999999999909h1.5v-2.199999999999932l1.1999999999999886 1.1999999999999318 1-1.099999999999909-1.1999999999999886-1.2000000000000455h2.1999999999999886l-0.10000000000002274-1.3999999999999773z m-6-3.800000000000068c0 1.5-1.1999999999999886 2.7000000000000455-2.6999999999999886 2.7000000000000455s-2.6999999999999886-1.2000000000000455-2.6999999999999886-2.7000000000000455 1.1999999999999886-2.699999999999932 2.6999999999999886-2.699999999999932 2.6999999999999886 1.1999999999999318 2.6999999999999886 2.699999999999932z"/>
</svg>
