<svg xmlns="http://www.w3.org/2000/svg" viewBox="0 0 1000 1000" width="1000" height="1000">
<path d="M937.5 209.7c-75.39999999999998-26.899999999999977-146.39999999999998-45.19999999999999-221.5-26.69999999999999-12 3-24.600000000000023 5.800000000000011-28.700000000000045 18.900000000000006-4 12.900000000000006 6.800000000000068 19.900000000000006 15.200000000000045 26.299999999999983 174.70000000000005 132.90000000000003 187.70000000000005 383.90000000000003 8.100000000000023 544.2-135.30000000000007 120.79999999999995-295.3 167.79999999999995-475.6 124.19999999999993-66-16-121.6-51.700000000000045-172.5-106.30000000000007 38.099999999999994 12.5 71.6 23 106.5 28.90000000000009 37.80000000000001 6.399999999999977 74.69999999999999 5.199999999999932 111.80000000000001-2.800000000000068 13.399999999999977-2.8999999999999773 27.899999999999977-5.600000000000023 30.80000000000001-20.799999999999955 2.6999999999999886-14-10.5-20.700000000000045-19.80000000000001-28-65.30000000000001-51.60000000000002-107-117.70000000000005-124.4-199.30000000000007-21.900000000000006-102.59999999999997 4-194.99999999999994 63.400000000000006-278.4 112.09999999999997-157.39999999999998 348.49999999999994-239.7 534.7-186.99999999999997 65.20000000000005 18.5 122.20000000000005 51.69999999999999 172 106.79999999999998z m-438.3 142c-78.30000000000001 0.10000000000002274-146.39999999999998 67.5-147.8 146.2-1.3999999999999773 79 68.60000000000002 149.70000000000005 148 149.60000000000002 78.30000000000007-0.10000000000002274 146.39999999999998-67.5 147.80000000000007-146.2 1.3999999999999773-79-68.5-149.7-148.00000000000006-149.60000000000002z"/>
</svg>
