<svg xmlns="http://www.w3.org/2000/svg" viewBox="0 0 1000 1000" width="1000" height="1000">
<path d="M899.5 454.3c-23.299999999999955-130.3-159.70000000000005-216.70000000000002-287.29999999999995-181.8-7.7000000000000455 2.1000000000000227-14.800000000000068 2.1999999999999886-22.5-0.10000000000002274-38.700000000000045-11.199999999999989-77.70000000000005-11.299999999999955-116.10000000000002-0.0999999999999659-90.70000000000005 26.399999999999977-149.8 85.89999999999998-169.60000000000002 178.2-19.80000000000001 92 8.800000000000011 170.5 80.80000000000001 231.29999999999995 48.69999999999999 41.200000000000045 106.39999999999998 58.90000000000009 169.90000000000003 52.200000000000045 28.199999999999932-3 55.799999999999955-12 84.09999999999991-1 4.100000000000023 1.6000000000000227 8.900000000000091 1.6000000000000227 13.5 1.8999999999999773 104.40000000000009 8 204.80000000000007-58.60000000000002 238.9000000000001-158.10000000000002 6-17.59999999999991 8.699999999999932-35.89999999999998 12.899999999999977-53.89999999999998v-46.299999999999955c-1.7000000000000455-7.2000000000000455-3.300000000000068-14.800000000000011-4.600000000000023-22.30000000000001z m-401.7 208.3c-59.80000000000001 0.39999999999997726-127.5-77-131.90000000000003-152.70000000000005-5.699999999999989-94.5 64.80000000000001-161.7 132.70000000000005-173.39999999999998-42.5 46.69999999999999-65.60000000000002 100.39999999999998-65.70000000000005 163.10000000000002-0.19999999999998863 62.799999999999955 22.700000000000045 116.60000000000002 64.90000000000003 163z m2.3999999999999773-500.20000000000005c0.10000000000002274 19.80000000000001 14.300000000000011 34.50000000000003 33.00000000000006 34.60000000000002 19.399999999999977 0.19999999999998863 33.89999999999998-14.300000000000011 34.09999999999991-34.599999999999994 0.20000000000004547-19.200000000000017-0.7999999999999545-38.5 0.3000000000000682-57.7 1.1000000000000227-20.5-6.7000000000000455-34.3-25.399999999999977-42.300000000000004h-16.800000000000068c-18.799999999999955 7.800000000000004-26.5 21.800000000000004-25.399999999999977 42.199999999999996 1 19.30000000000001 0 38.5 0.19999999999998863 57.80000000000001z m-269.5 338c0.20000000000001705-19-14.299999999999983-33.799999999999955-33.599999999999994-33.89999999999998-19.599999999999994-0.19999999999998863-39.19999999999999 0.8000000000000114-58.69999999999999-0.30000000000001137-20.400000000000006-1.099999999999966-34.30000000000001 6.600000000000023-42.2 25.400000000000034v16.799999999999955c8 18.5 21.799999999999997 26.600000000000023 42.3 25.399999999999977 19.5-1.099999999999909 39.099999999999994-0.09999999999990905 58.69999999999999-0.2999999999999545 18.900000000000006-0.20000000000004547 33.30000000000001-14.700000000000045 33.5-33.10000000000002z m336.50000000000006 337.1c-0.20000000000004547-19.899999999999977-14.100000000000023-34.39999999999998-33.10000000000002-34.60000000000002-19.600000000000023-0.1999999999999318-33.900000000000034 14.200000000000045-34 34.60000000000002-0.20000000000004547 18.899999999999977 0.8999999999999773 37.799999999999955-0.30000000000001137 56.60000000000002-1.3000000000000114 20.699999999999932 6.300000000000011 35.10000000000002 25.400000000000034 43.299999999999955h16.799999999999955c19.100000000000023-8.199999999999932 26.799999999999955-22.5 25.399999999999977-43.299999999999955-1.1000000000000227-18.800000000000068 0-37.700000000000045-0.1999999999999318-56.60000000000002z m-257.6-130.20000000000005c-13.600000000000023-5.899999999999977-26.30000000000001-3.8999999999999773-36.900000000000034 6.2000000000000455-16.19999999999999 15.5-32 31.399999999999977-47.599999999999994 47.39999999999998-14.400000000000006 14.899999999999977-14.299999999999983 35.30000000000007-0.4000000000000057 48.700000000000045 13.600000000000023 13.199999999999932 33.5 12.899999999999977 48-1.2000000000000455 15.800000000000011-15.399999999999977 31.19999999999999-31.100000000000023 46.80000000000001-46.799999999999955 6.199999999999989-6.2000000000000455 9.399999999999977-13.700000000000045 9.800000000000011-19.700000000000045 0.5999999999999659-16.399999999999977-7.100000000000023-29.100000000000023-19.69999999999999-34.60000000000002z m-37.700000000000045-421.69999999999993c14.200000000000045 13.699999999999989 34.700000000000045 13.399999999999977 47.900000000000034-0.20000000000004547 12.899999999999977-13.299999999999955 13-33.29999999999998-0.4000000000000341-47.19999999999999-15.599999999999966-16.099999999999994-31.599999999999966-31.799999999999983-47.39999999999998-47.599999999999994-6.5-6.5-14.399999999999977-9.599999999999994-22-10.099999999999994-14.599999999999994-0.19999999999998863-27 7.800000000000011-32.5 19.80000000000001-5.900000000000006 13-3.8000000000000114 26.799999999999983 6.800000000000011 37.69999999999999 15.699999999999989 16.19999999999999 31.5 32.10000000000002 47.599999999999966 47.60000000000002z"/>
</svg>
