<svg xmlns="http://www.w3.org/2000/svg" viewBox="0 0 1000 1000" width="1000" height="1000">
<path d="M708.1 493.5c-14.5-3.6999999999999886-29.399999999999977-3.3999999999999773-44.200000000000045-3.3999999999999773-147.79999999999995-0.4000000000000341-295.7-0.7000000000000455-443.5-1-28.799999999999983-0.10000000000002274-57.49999999999997-0.10000000000002274-86.29999999999998 0.0999999999999659-11.899999999999991 0.10000000000002274-19.299999999999997 6.400000000000034-20.299999999999997 16.5-1 9.699999999999989 4.200000000000003 18.000000000000057 13.200000000000003 20.099999999999966 3.5999999999999943 0.8000000000000682 7.400000000000006 0.8000000000000682 11 0.900000000000091 91.69999999999999 0.2999999999999545 183.39999999999998 0.599999999999909 275.2 0.7999999999999545 88.30000000000001 0.20000000000004547 176.59999999999997 0.20000000000004547 264.90000000000003 0.5 56.10000000000002 0.20000000000004547 102.89999999999998 45.39999999999998 103.89999999999998 101.39999999999998 0.7999999999999545 46.200000000000045-32.60000000000002 81.70000000000005-79.29999999999995 83.20000000000005-37.80000000000007 1.1999999999999318-68.60000000000002-37.89999999999998-58.30000000000007-73 4.899999999999977-16.399999999999977 16.200000000000045-26.899999999999977 32.700000000000045-30.300000000000068 16-3.3999999999999773 30.399999999999977-0.1999999999999318 40.69999999999993 14.400000000000091 5.800000000000068 8.199999999999932 16.40000000000009 9.599999999999909 24.300000000000068 4.2999999999999545 8.600000000000023-5.7000000000000455 11.199999999999932-16 5.899999999999977-25.5-8-14.399999999999977-20.700000000000045-23.299999999999955-36-28.399999999999977-45.5-15.100000000000023-96.29999999999995 14.299999999999955-105.79999999999995 61.10000000000002-9.800000000000068 48.09999999999991 21.59999999999991 98.39999999999998 69.69999999999993 111.5 1.7000000000000455 0.5 3.3999999999999773 0.8999999999999773 5.2000000000000455 1.3999999999999773 9.199999999999932 2 30.299999999999955 4.399999999999977 60-4.800000000000068 7.600000000000023-2.599999999999909 15-5.899999999999977 22.100000000000023-10.099999999999909 39.299999999999955-23.90000000000009 62.09999999999991-71.20000000000005 55.39999999999998-116.70000000000005-9-63.5-48.39999999999998-107.30000000000001-110.5-123z m-107.20000000000005-31.80000000000001c47.5 0.4000000000000341 85.30000000000007-17.099999999999966 109.10000000000002-58.80000000000001 34.89999999999998-61 8.100000000000023-128.5-50.60000000000002-148.29999999999998-48.19999999999993-16.299999999999983-96.60000000000002 9.599999999999994-108.39999999999998 58.099999999999994-1.7000000000000455 6.800000000000011-2.7000000000000455 13.900000000000034-1.3999999999999773 21.100000000000023 1.6999999999999318 9.399999999999977 8.399999999999977 15 17.799999999999955 15.099999999999966 9.300000000000068 0.10000000000002274 16.200000000000045-5.399999999999977 18.200000000000045-14.699999999999989 1-5 1.2999999999999545-10.199999999999989 2.699999999999932-15.099999999999966 8-27.900000000000034 37.700000000000045-39.60000000000002 65.60000000000002-26.100000000000023 26.200000000000045 12.699999999999989 39.39999999999998 41.80000000000001 31.600000000000023 70.30000000000001-10.399999999999977 38.099999999999966-40 60.69999999999999-79.5 60.69999999999999-172.89999999999998-0.10000000000002274-345.8-0.19999999999998863-518.7-0.5-11.599999999999952 0-19.69999999999996 3.8999999999999773-24.699999999999953 14.199999999999989v8.5c4.300000000000004 11.600000000000023 12.999999999999993 15.300000000000011 24.800000000000004 15.300000000000011 93.69999999999999-0.10000000000002274 187.4-0.10000000000002274 281.20000000000005 0 77.29999999999995 0 154.79999999999995-0.39999999999997726 232.29999999999995 0.19999999999998863z m-77.79999999999995 95.19999999999999c-54.400000000000034 0.3000000000000682-108.80000000000001 0.10000000000002274-163.20000000000005 0.10000000000002274v-0.2999999999999545h-172.59999999999997c-13.5 0-22.200000000000017 7.199999999999932-22.30000000000001 18.299999999999955-0.09999999999999432 11.799999999999955 8 19.5 22 19.600000000000023 36.5 0.1999999999999318 72.89999999999998 0.10000000000002274 109.39999999999998 0.10000000000002274 76.10000000000002 0 152.10000000000002 0 228.20000000000005 0.09999999999990905 14.199999999999932 0 22 5.600000000000023 23.5 16.100000000000023 1.5 10.300000000000068-4 18.600000000000023-14.100000000000023 21.200000000000045-3 0.7999999999999545-6.100000000000023 1.1999999999999318-9.100000000000023 2.1000000000000227-9 2.599999999999909-14.599999999999966 10.599999999999909-13.799999999999955 19.09999999999991 1 9.5 7.7999999999999545 16.200000000000045 17.199999999999932 17.100000000000023 30.90000000000009 2.7000000000000455 61.10000000000002-28.100000000000023 57.80000000000007-59-3.5-35-26.800000000000068-54.69999999999993-63-54.5z m409.9-197.2c-9.200000000000045-26.30000000000001-28.600000000000023-42-56-47.099999999999966-25.200000000000045-4.600000000000023-46 3.5-62.10000000000002 23.399999999999977-8.5 10.600000000000023-12.299999999999955 23-12.799999999999955 36.39999999999998-0.39999999999997726 10.600000000000023 6.7999999999999545 18.80000000000001 17 20 9.299999999999955 1.1000000000000227 17.5-5.599999999999966 19.799999999999955-16 0.8999999999999773-4.099999999999966 1.3000000000000682-8.599999999999966 3-12.399999999999977 8.5-19.100000000000023 35-20.19999999999999 49.80000000000007-2.3000000000000114 15.199999999999932 18.5 8.5 49.80000000000001-13.600000000000023 64.10000000000002-8.600000000000023 5.599999999999966-17.899999999999977 8.5-28.200000000000045 8.5h-99.19999999999993c-12.5 0-21.300000000000068 7.699999999999989-21.300000000000068 18.5-0.10000000000002274 11.099999999999966 8.200000000000045 18.899999999999977 20.800000000000068 19.099999999999966 17.899999999999977 0.20000000000004547 35.89999999999998 0.10000000000002274 57.39999999999998 0.10000000000002274 18-1.1000000000000227 39.799999999999955 2.3999999999999773 61.19999999999993-1.8999999999999773 49.80000000000007-10.100000000000023 80.80000000000007-63 64.20000000000005-110.40000000000003z"/>
</svg>
