<svg xmlns="http://www.w3.org/2000/svg" viewBox="0 0 1000 1000" width="1000" height="1000">
<path d="M529.5 429.8c-30.899999999999977-30-67.60000000000002-38.60000000000002-108.60000000000002-23.600000000000023-7.699999999999989 2.8000000000000114-10.699999999999989 3-14.299999999999955-5.800000000000011-26.700000000000045-66.5-88.80000000000001-103.09999999999997-159.40000000000003-94.89999999999998-64.5 7.5-115.29999999999998 58.5-127.19999999999999 127.60000000000002-0.7000000000000028 4.099999999999966-0.09999999999999432 9.399999999999977-5.200000000000003 11.5-11.5 4.7999999999999545-20.5 11.699999999999989-27.89999999999999 19.899999999999977v-0.10000000000002274s-54.10000000000001 51.200000000000045-1.2000000000000028 110.30000000000007c1.5 1.6999999999999318 2.8999999999999915 3.5 4.5 5l0.7000000000000028 0.7999999999999545 0.09999999999999432-0.10000000000002274c12.900000000000006 12.300000000000068 29.299999999999997 19.800000000000068 49.5 21.600000000000023 20.599999999999994 1.8999999999999773 41.599999999999994 0.10000000000002274 62.400000000000006 0.7000000000000455l178.99999999999997-0.3000000000000682c27.30000000000001 0 51.900000000000034 0.7000000000000455 76.40000000000003-0.1999999999999318 43.39999999999998-1.5 74.69999999999999-22.40000000000009 92.30000000000001-62.200000000000045 16.600000000000023-37.5 8.399999999999977-81.60000000000002-21.100000000000023-110.19999999999999z m-196.5-126.19999999999999c28.30000000000001 11.899999999999977 52.19999999999999 32.5 69 60.19999999999999 2.8999999999999773 0.30000000000001137 5.800000000000011 0.39999999999997726 8.699999999999989 0.39999999999997726 47.69999999999999-0.39999999999997726 77.69999999999999-40.5 78.19999999999999-73.19999999999999-11.5 13.899999999999977-25.5 21.80000000000001-42.69999999999999 23.399999999999977-17.30000000000001 1.6000000000000227-32.69999999999999-3.3999999999999773-45.80000000000001-14.699999999999989-11.099999999999966-9.5-17.799999999999955-21.69999999999999-20-36.099999999999966-3.3999999999999773-22.200000000000017 3.6000000000000227-41.10000000000002 19.200000000000045-57.20000000000002-15 1.1999999999999886-27.900000000000034 7-39.30000000000001 16.299999999999983-17.600000000000023 14.400000000000006-27.69999999999999 33-29.400000000000034 55.80000000000001-0.5999999999999659 8.699999999999989 0.20000000000004547 17.19999999999999 2.1000000000000227 25.100000000000023z m151.2-25.200000000000045l8.400000000000034 3.400000000000034c0.7999999999999545 0.30000000000001137 1.3999999999999773 1.099999999999966 1.599999999999966 1.8999999999999773l2 8.900000000000034c0.5 2.1999999999999886 3.3000000000000114 2.8999999999999773 4.699999999999989 1.099999999999966l5.800000000000011-7c0.6000000000000227-0.6999999999999886 1.400000000000034-1 2.3000000000000114-1l9.100000000000023 0.8000000000000114c2.199999999999932 0.19999999999998863 3.7999999999999545-2.1999999999999886 2.6000000000000227-4.199999999999989l-4.800000000000068-7.699999999999989c-0.5-0.8000000000000114-0.5-1.7000000000000455-0.1999999999999318-2.5l3.599999999999909-8.300000000000011c0.900000000000091-2.1000000000000227-1-4.300000000000011-3.199999999999932-3.6999999999999886l-8.800000000000011 2.1999999999999886c-0.9000000000000341 0.19999999999998863-1.8000000000000114 0-2.5-0.6000000000000227l-6.800000000000011-6c-1.6999999999999886-1.5-4.399999999999977-0.39999999999997726-4.5 1.900000000000034l-0.6000000000000227 9.099999999999966c-0.0999999999999659 0.9000000000000341-0.5999999999999659 1.6999999999999886-1.2999999999999545 2.1999999999999886l-7.800000000000011 4.600000000000023c-1.900000000000034 1.1999999999999886-1.6999999999999886 4.100000000000023 0.39999999999997726 4.899999999999977z m-64.69999999999999-18.899999999999977c0.6000000000000227 0.19999999999998863 1 0.6999999999999886 1.1000000000000227 1.3000000000000114l1.2999999999999545 5.899999999999977c0.30000000000001137 1.5 2.2000000000000455 1.900000000000034 3.1000000000000227 0.8000000000000114l3.8999999999999773-4.600000000000023c0.4000000000000341-0.5 1-0.6999999999999886 1.6000000000000227-0.5999999999999659l6 0.5999999999999659c1.5 0.10000000000002274 2.5-1.5 1.6999999999999886-2.7999999999999545l-3.1999999999999886-5.100000000000023c-0.30000000000001137-0.5-0.39999999999997726-1.0999999999999943-0.10000000000002274-1.6999999999999886l2.400000000000034-5.5c0.5999999999999659-1.4000000000000057-0.6000000000000227-2.8000000000000114-2.1000000000000227-2.5l-5.899999999999977 1.5c-0.6000000000000227 0.09999999999999432-1.1999999999999886 0-1.6000000000000227-0.4000000000000057l-4.5-4c-1.099999999999966-1-2.8999999999999773-0.30000000000001137-3 1.1999999999999886l-0.39999999999997726 6c0 0.5999999999999943-0.4000000000000341 1.0999999999999943-0.9000000000000341 1.4000000000000057l-5.199999999999989 3.0999999999999943c-1.3000000000000114 0.8000000000000114-1.099999999999966 2.700000000000017 0.19999999999998863 3.200000000000017l5.600000000000023 2.1999999999999886z m57.69999999999999-19.099999999999994c0.4000000000000341 0.09999999999999432 0.6000000000000227 0.5 0.6999999999999886 0.9000000000000057l0.9000000000000341 4c0.19999999999998863 1 1.5 1.299999999999983 2.099999999999966 0.5l2.6000000000000227-3.1000000000000227c0.30000000000001137-0.29999999999998295 0.6999999999999886-0.5 1.1000000000000227-0.39999999999997726l4.099999999999966 0.39999999999997726c1 0.10000000000002274 1.6999999999999886-1 1.1999999999999886-1.8999999999999773l-2.1999999999999886-3.5c-0.19999999999998863-0.30000000000001137-0.19999999999998863-0.8000000000000114-0.0999999999999659-1.1000000000000227l1.599999999999966-3.799999999999983c0.4000000000000341-0.9000000000000057-0.39999999999997726-1.9000000000000057-1.3999999999999773-1.700000000000017l-4 1c-0.4000000000000341 0.10000000000002274-0.8000000000000114 0-1.1000000000000227-0.29999999999998295l-3.099999999999966-2.700000000000017c-0.8000000000000114-0.6999999999999886-2-0.19999999999998863-2 0.8000000000000114l-0.30000000000001137 4.099999999999994c0 0.4000000000000057-0.30000000000001137 0.8000000000000114-0.6000000000000227 1l-3.5 2.0999999999999943c-0.8999999999999773 0.5-0.8000000000000114 1.8000000000000114 0.19999999999998863 2.200000000000017l3.8000000000000114 1.5z m-155.09999999999997-3c0.2999999999999545 0.09999999999999432 0.5999999999999659 0.4000000000000057 0.5999999999999659 0.6999999999999886l0.8000000000000114 3.4000000000000057c0.19999999999998863 0.8000000000000114 1.3000000000000114 1.0999999999999943 1.8000000000000114 0.4000000000000057l2.1999999999999886-2.700000000000017c0.19999999999998863-0.29999999999998295 0.6000000000000227-0.39999999999997726 0.8999999999999773-0.39999999999997726l3.5 0.29999999999998295c0.9000000000000341 0.09999999999999432 1.400000000000034-0.9000000000000057 1-1.5999999999999943l-1.8999999999999773-3c-0.19999999999998863-0.30000000000001137-0.19999999999998863-0.6999999999999886-0.10000000000002274-1l1.400000000000034-3.1999999999999886c0.30000000000001137-0.8000000000000114-0.4000000000000341-1.6000000000000227-1.1999999999999886-1.4000000000000057l-3.400000000000034 0.9000000000000057c-0.30000000000001137 0.09999999999999432-0.6999999999999886 0-0.8999999999999773-0.20000000000001705l-2.6000000000000227-2.299999999999983c-0.5999999999999659-0.6000000000000227-1.6999999999999886-0.20000000000001705-1.6999999999999886 0.6999999999999886l-0.19999999999998863 3.5c0 0.30000000000001137-0.19999999999998863 0.6999999999999886-0.5 0.8000000000000114l-3 1.799999999999983c-0.6999999999999886 0.4000000000000057-0.6999999999999886 1.5 0.0999999999999659 1.9000000000000057l3.2000000000000455 1.4000000000000057z m369.29999999999995 315.5c-38.60000000000002-0.1999999999999318-77.29999999999995-0.10000000000002274-115.89999999999998-0.1999999999999318l-0.10000000000002274 0.2999999999999545c-8.600000000000023 19.5-20.699999999999932 34.299999999999955-36 44.299999999999955 51.60000000000002 0 103.10000000000002-0.09999999999990905 154.70000000000005 0.20000000000004547 54.19999999999993 0.20000000000004547 93.79999999999995 43.60000000000002 88.39999999999998 95.79999999999995-3.8999999999999773 37.5-46.299999999999955 65.60000000000002-80.20000000000005 53.10000000000002-27.59999999999991-10.199999999999932-40.299999999999955-43.10000000000002-24.899999999999977-64.29999999999995 12.700000000000045-17.399999999999977 36.30000000000007-18.399999999999977 50.30000000000007-2.1000000000000227 8.299999999999955 9.600000000000023 20.399999999999977 11.100000000000023 30.399999999999977 3.8999999999999773 9-6.5 11.100000000000023-19.100000000000023 5-29.5-14-24-47.30000000000007-36-77-28.199999999999932-58.60000000000002 15.199999999999932-77.10000000000002 81-42.200000000000045 129.69999999999993 15.800000000000068 22 38.200000000000045 32.700000000000045 63.80000000000007 38.10000000000002h24.799999999999955c9.799999999999955-3.1000000000000227 19.899999999999977-5.2999999999999545 29.200000000000045-9.299999999999955 58.5-25.200000000000045 82.89999999999998-93.60000000000002 54.39999999999998-154-24.800000000000068-52.30000000000007-67.60000000000002-77.5-124.70000000000005-77.80000000000007z m-95-124.69999999999999c12.399999999999977 0.9000000000000341 23.300000000000068-6.5 23.700000000000045-19.099999999999966 0.6999999999999318-21 16.799999999999955-34 30.399999999999977-34.700000000000045 21-1.1999999999999886 40.799999999999955 12.200000000000045 46.700000000000045 31.80000000000001 10.099999999999909 33.5-16.800000000000068 73.30000000000001-51.90000000000009 76-22.299999999999955 1.8000000000000114-44.69999999999993 1.6000000000000227-67.09999999999991 1.3000000000000114 4.7999999999999545 14 6.199999999999932 29 4.199999999999932 43.799999999999955 19.300000000000068 0 38.60000000000002 0.10000000000002274 57.89999999999998 0 55.90000000000009-0.2999999999999545 105.10000000000002-50.099999999999966 103.70000000000005-105.99999999999994-1.2999999999999545-52.5-37.89999999999998-89.19999999999999-89.89999999999998-91.5-40.80000000000007-1.8000000000000114-77 33.89999999999998-77.5 75.09999999999997-0.10000000000002274 12.800000000000011 8 22.400000000000034 19.799999999999955 23.30000000000001z m323.4-14.599999999999966c-17.299999999999955-19.80000000000001-39.89999999999998-27.900000000000034-66-22.100000000000023-23.799999999999955 5.300000000000011-38.69999999999993 20.80000000000001-45.59999999999991 44.30000000000001-1.5 5.099999999999966-1.6000000000000227 10.199999999999989-1.400000000000091 15.300000000000011 0.5 11.799999999999955 8.600000000000023 20.099999999999966 19.90000000000009 21 11.699999999999932 0.8999999999999773 20.299999999999955-5.600000000000023 23.09999999999991-17.400000000000034 4-16.69999999999999 9.800000000000068-22.099999999999966 21.700000000000045-20 14 2.5 23.600000000000023 16.100000000000023 21.600000000000023 30.400000000000034-3 20.19999999999999-18.899999999999977 33.19999999999999-41.80000000000007 33.39999999999998-28.199999999999932 0.19999999999998863-56.39999999999998-0.10000000000002274-84.5 0-12.899999999999977 0.10000000000002274-21.199999999999932 5.899999999999977-23.699999999999932 15.799999999999955-3.6000000000000227 14.100000000000023 4.7999999999999545 26.90000000000009 19.699999999999932 27.600000000000023 17.5 0.8999999999999773 35 0.20000000000004547 52.60000000000002 0.20000000000004547 22.5-0.6000000000000227 45.200000000000045 3.1000000000000227 67.39999999999998-4.300000000000068 52.10000000000002-17.5 72.30000000000007-83.79999999999995 37-124.19999999999993z m-557.8 246.10000000000002v4l-3.8000000000000114-3.800000000000068-2.599999999999966 2.6000000000000227 6.2999999999999545 6.2999999999999545v6.900000000000091c0.6000000000000227-0.10000000000002274 1.2000000000000455-0.20000000000004547 1.8000000000000114-0.20000000000004547 0.6000000000000227 0 1.1999999999999886 0.10000000000002274 1.8000000000000114 0.20000000000004547v-6.900000000000091l6.300000000000011-6.2999999999999545-2.6000000000000227-2.6000000000000227-3.8000000000000114 3.800000000000068v-4h-3.3999999999999773z m3.6000000000000227 33.09999999999991c-0.6000000000000227 0.10000000000002274-1.2000000000000455 0.20000000000004547-1.8000000000000114 0.20000000000004547-0.6000000000000227 0-1.1999999999999886-0.10000000000002274-1.8000000000000114-0.20000000000004547v6.900000000000091l-6.300000000000011 6.2999999999999545 2.6000000000000227 2.6000000000000227 3.8000000000000114-3.800000000000068v4h3.6999999999999886v-4l3.8000000000000114 3.800000000000068 2.599999999999966-2.6000000000000227-6.300000000000011-6.2999999999999545-0.2999999999999545-6.900000000000091z m-10.300000000000011-6.699999999999932c-0.10000000000002274-0.6000000000000227-0.19999999999998863-1.2000000000000455-0.19999999999998863-1.8000000000000682 0-0.599999999999909 0.0999999999999659-1.1999999999999318 0.19999999999998863-1.7999999999999545h-6.900000000000034l-6.2999999999999545-6.2999999999999545-2.6000000000000227 2.599999999999909 3.8000000000000114 3.800000000000068h-4v3.6000000000000227h4l-3.8000000000000114 3.7999999999999545 2.6000000000000227 2.6000000000000227 6.2999999999999545-6.300000000000068 6.900000000000034-0.1999999999999318z m-12.600000000000023-11.300000000000068h9l4.900000000000034 4.800000000000068c0.6999999999999886-1 1.5-1.8999999999999773 2.599999999999966-2.6000000000000227l-4.899999999999977-4.7999999999999545v-9h-3.6000000000000227v5.2999999999999545l-2.8999999999999773-2.7999999999999545-2.6000000000000227 2.599999999999909 2.900000000000034 2.800000000000068h-5.300000000000011l-0.10000000000002274 3.699999999999932z m7.800000000000011 30.5h3.6000000000000227v-9l4.899999999999977-4.7999999999999545c-1-0.7000000000000455-1.8999999999999773-1.6000000000000227-2.6000000000000227-2.6000000000000227l-4.899999999999977 4.800000000000068h-9v3.699999999999932h5.300000000000011l-2.900000000000034 2.800000000000068 2.6000000000000227 2.599999999999909 2.8999999999999773-2.7999999999999545 0.10000000000002274 5.2999999999999545z m37.80000000000001-26.59999999999991l-2.6000000000000227-2.6000000000000227-6.300000000000011 6.2999999999999545h-6.899999999999977c0.10000000000002274 0.6000000000000227 0.19999999999998863 1.2000000000000455 0.19999999999998863 1.8000000000000682 0 0.599999999999909-0.0999999999999659 1.1999999999999318-0.19999999999998863 1.7999999999999545h6.899999999999977l6.300000000000011 6.2999999999999545 2.6000000000000227-2.599999999999909-3.8000000000000114-3.800000000000068h4v-3.6000000000000227h-4l3.8000000000000114-3.599999999999909z m-14.600000000000023-15.5v9l-4.899999999999977 4.7999999999999545c1 0.7000000000000455 1.8999999999999773 1.6000000000000227 2.599999999999966 2.6000000000000227l4.900000000000034-4.800000000000068h9v-3.599999999999909h-5.300000000000011l2.8999999999999773-2.800000000000068-2.599999999999966-2.6000000000000227-2.900000000000034 2.800000000000068v-5.300000000000068l-3.6999999999999886-0.09999999999990905z m11.5 30.5h-9l-4.899999999999977-4.800000000000068c-0.6999999999999886 1-1.5 1.8999999999999773-2.6000000000000227 2.6000000000000227l4.900000000000034 4.7999999999999545v9h3.599999999999966v-5.2999999999999545l2.900000000000034 2.7999999999999545 2.599999999999966-2.599999999999909-2.8999999999999773-2.800000000000068h5.300000000000011l0.0999999999999659-3.699999999999932z m-14.800000000000011-9.400000000000091c0 3.7000000000000455-3 6.600000000000023-6.599999999999966 6.600000000000023-3.6999999999999886 0-6.600000000000023-3-6.600000000000023-6.600000000000023 0-3.699999999999932 3-6.599999999999909 6.600000000000023-6.599999999999909 3.6999999999999886 0 6.599999999999966 2.8999999999999773 6.599999999999966 6.599999999999909z m-156.39999999999998-61.09999999999991v9.099999999999909l-8.400000000000006-8.399999999999977-5.799999999999983 5.800000000000068 14.199999999999989 14.199999999999932v15.5c1.3000000000000114-0.2999999999999545 2.6999999999999886-0.5 4.099999999999994-0.5s2.8000000000000114 0.20000000000004547 4.099999999999994 0.5v-15.5l14.200000000000017-14.199999999999932-5.800000000000011-5.800000000000068-8.400000000000006 8.399999999999977v-9.099999999999909h-8.199999999999989z m8.300000000000011 74.39999999999998c-1.3000000000000114 0.2999999999999545-2.700000000000017 0.5-4.100000000000023 0.5s-2.799999999999983-0.20000000000004547-4.099999999999994-0.5v15.399999999999977l-14.199999999999989 14.200000000000045 5.799999999999983 5.7999999999999545 8.400000000000006-8.399999999999977v9.100000000000023h8.200000000000017v-9.100000000000023l8.399999999999977 8.399999999999977 5.800000000000011-5.7999999999999545-14.199999999999989-14.200000000000045v-15.399999999999977z m-23.200000000000017-15.100000000000023c-0.29999999999998295-1.2999999999999545-0.5-2.7000000000000455-0.5-4.100000000000023 0-1.3999999999999773 0.20000000000001705-2.7999999999999545 0.5-4.100000000000023h-15.5l-14.199999999999989-14.299999999999955-5.800000000000011 5.7999999999999545 8.400000000000006 8.400000000000091h-9.099999999999994v8.199999999999932h9.099999999999994l-8.400000000000006 8.399999999999977 5.800000000000011 5.800000000000068 14.199999999999989-14.200000000000045 15.5 0.10000000000002274z m-28.5-25.399999999999977l20.099999999999994-0.10000000000002274 11 10.899999999999977c1.5-2.2999999999999545 3.5-4.2999999999999545 5.800000000000011-5.7999999999999545l-11-10.899999999999977-0.09999999999999432-20.100000000000023h-8.200000000000017l0.10000000000002274 11.899999999999977-6.5-6.399999999999977-5.800000000000011 5.7999999999999545 6.5 6.399999999999977-11.900000000000006 0.10000000000002274v8.200000000000045z m31.099999999999994 31.699999999999932l-11 10.900000000000091-20.099999999999994-0.10000000000002274v8.199999999999932h11.900000000000006l-6.5 6.400000000000091 5.800000000000011 5.7999999999999545 6.5-6.399999999999977-0.10000000000002274 11.899999999999977h8.200000000000017l0.09999999999999432-20.100000000000023 11-10.899999999999977c-2.3000000000000114-1.2999999999999545-4.300000000000011-3.2999999999999545-5.800000000000011-5.7000000000000455z m71.5-23l-5.800000000000011-5.7999999999999545-14.199999999999989 14.200000000000045h-15.5c0.30000000000001137 1.2999999999999545 0.5 2.699999999999932 0.5 4.099999999999909 0 1.400000000000091-0.19999999999998863 2.800000000000068-0.5 4.100000000000023h15.5l14.199999999999989 14.200000000000045 5.800000000000011-5.800000000000068-8.399999999999977-8.399999999999977h9.099999999999966v-8.199999999999932h-9.099999999999966l8.399999999999977-8.400000000000091z m-32.89999999999998-34.799999999999955l-0.10000000000002274 20.100000000000023-11 10.899999999999977c2.3000000000000114 1.5 4.300000000000011 3.5 5.800000000000011 5.7999999999999545l11-10.899999999999977 20.100000000000023 0.10000000000002274v-8.200000000000045l-11.900000000000034-0.09999999999990905 6.5-6.400000000000091-5.799999999999983-5.7999999999999545-6.5 6.399999999999977 0.09999999999999432-11.899999999999977h-8.199999999999989z m25.899999999999977 68.60000000000002l-20.099999999999994 0.10000000000002274-11-10.900000000000091c-1.5 2.300000000000068-3.5 4.300000000000068-5.799999999999983 5.800000000000068l11 10.899999999999977 0.09999999999999432 20.100000000000023h8.199999999999989l-0.09999999999999432-11.899999999999977 6.5 6.399999999999977 5.800000000000011-5.800000000000068-6.5-6.399999999999977h11.899999999999977v-8.299999999999955z m-48.099999999999994-36.10000000000002c-8.199999999999989 0-14.900000000000006 6.7000000000000455-14.900000000000006 14.899999999999977s6.700000000000017 14.899999999999977 14.900000000000006 14.899999999999977 14.900000000000006-6.699999999999932 14.900000000000006-14.899999999999977c0-8.299999999999955-6.599999999999994-14.899999999999977-14.900000000000006-14.899999999999977z m81.1 70.5v-3.1000000000000227h-2.8000000000000114v3.1000000000000227l-2.8999999999999773-2.8999999999999773-2 2 4.800000000000011 4.7999999999999545v5.300000000000068c0.5-0.10000000000002274 0.8999999999999773-0.20000000000004547 1.3999999999999773-0.20000000000004547s0.9000000000000341 0.10000000000002274 1.400000000000034 0.20000000000004547v-5.2000000000000455l4.7999999999999545-4.7999999999999545-2-2-2.6999999999999886 2.7999999999999545z m0 22.200000000000045c-0.5 0.09999999999990905-0.8999999999999773 0.1999999999999318-1.3999999999999773 0.1999999999999318-0.5 0-0.9000000000000341-0.10000000000002274-1.400000000000034-0.1999999999999318v5.2999999999999545l-4.7999999999999545 4.7999999999999545 2 2 2.8999999999999773-2.8999999999999773v3.1000000000000227h2.8000000000000114v-3.1000000000000227l2.8999999999999773 2.8999999999999773 2-2-4.800000000000011-4.7999999999999545-0.19999999999998863-5.2999999999999545z m-7.800000000000011-5.100000000000023c-0.0999999999999659-0.39999999999997726-0.19999999999998863-0.8999999999999773-0.19999999999998863-1.3999999999999773 0-0.5 0.10000000000002274-0.900000000000091 0.19999999999998863-1.400000000000091h-5.2999999999999545l-4.800000000000011-4.7999999999999545-2 2 2.8999999999999773 2.8999999999999773h-3.099999999999966v2.800000000000068h3.099999999999966l-2.8999999999999773 2.8999999999999773 2 2 4.800000000000011-4.800000000000068 5.2999999999999545-0.1999999999999318z m-9.699999999999989-8.600000000000023h6.800000000000011l3.6999999999999886 3.7000000000000455c0.5-0.8000000000000682 1.1999999999999886-1.5 2-2l-3.6999999999999886-3.7000000000000455v-6.7999999999999545h-2.8000000000000114v4.099999999999909l-2.1999999999999886-2.199999999999932-2 2 2.1999999999999886 2.199999999999932h-4.099999999999966l0.0999999999999659 2.7000000000000455z m10.600000000000023 10.700000000000045l-3.6999999999999886 3.699999999999932h-6.800000000000011v2.800000000000068h4.099999999999966l-2.1999999999999886 2.199999999999932 2 2 2.1999999999999886-2.199999999999932v4.099999999999909h2.8000000000000114v-6.7999999999999545l3.6999999999999886-3.7000000000000455c-1-0.599999999999909-1.599999999999966-1.2999999999999545-2.099999999999966-2.099999999999909z m24.19999999999999-7.800000000000068l-2-2-4.800000000000011 4.800000000000068h-5.300000000000011c0.10000000000002274 0.39999999999997726 0.20000000000004547 0.8999999999999773 0.20000000000004547 1.3999999999999773 0 0.5-0.10000000000002274 0.8999999999999773-0.20000000000004547 1.3999999999999773h5.300000000000011l4.800000000000011 4.7999999999999545 2-2-2.8999999999999773-2.8999999999999773h3.099999999999966v-2.7999999999999545h-3.099999999999966l2.8999999999999773-2.7000000000000455z m-11.100000000000023-11.799999999999955v6.7999999999999545l-3.6999999999999886 3.7000000000000455c0.8000000000000114 0.5 1.5 1.1999999999999318 2 2l3.6999999999999886-3.7000000000000455h6.800000000000011v-2.7999999999999545h-4.099999999999966l2.1999999999999886-2.2000000000000455-2-2-2.1999999999999886 2.2000000000000455v-4.100000000000023l-2.7000000000000455 0.10000000000002274z m8.700000000000045 23.299999999999955h-6.800000000000011l-3.6999999999999886-3.699999999999932c-0.5 0.7999999999999545-1.2000000000000455 1.5-2 2l3.6999999999999886 3.699999999999932v6.800000000000068h2.8000000000000114v-4.100000000000023l2.1999999999999886 2.199999999999932 2-2-2.1999999999999886-2.199999999999932h4.099999999999966l-0.0999999999999659-2.7000000000000455z m-11.200000000000045-7.199999999999932c0 2.7999999999999545-2.2999999999999545 5.099999999999909-5.099999999999966 5.099999999999909s-5.100000000000023-2.2999999999999545-5.100000000000023-5.099999999999909 2.3000000000000114-5.100000000000023 5.100000000000023-5.100000000000023 5.099999999999966 2.2999999999999545 5.099999999999966 5.100000000000023z m135-102.10000000000002v3.199999999999932l-2.8999999999999773-2.8999999999999773-2 2 4.899999999999977 4.899999999999977v5.400000000000091c0.5-0.10000000000002274 0.9000000000000341-0.20000000000004547 1.400000000000034-0.20000000000004547 0.5 0 1 0.10000000000002274 1.3999999999999773 0.20000000000004547v-5.400000000000091l4.900000000000034-4.899999999999977-2-2-2.900000000000034 2.8999999999999773v-3.199999999999932h-2.8000000000000114z m2.8000000000000114 25.799999999999955c-0.5 0.10000000000002274-0.8999999999999773 0.20000000000004547-1.3999999999999773 0.20000000000004547s-1-0.10000000000002274-1.400000000000034-0.20000000000004547v5.399999999999977l-4.899999999999977 4.900000000000091 2 2 2.8999999999999773-2.900000000000091v3.2000000000000455h2.900000000000034v-3.2000000000000455l2.8999999999999773 2.900000000000091 2-2-4.899999999999977-4.900000000000091-0.10000000000002274-5.399999999999977z m-8-5.199999999999932c-0.0999999999999659-0.5-0.19999999999998863-0.900000000000091-0.19999999999998863-1.400000000000091 0-0.5 0.10000000000002274-1 0.19999999999998863-1.3999999999999773h-5.399999999999977l-4.900000000000034-4.899999999999977-2 2 2.900000000000034 2.8999999999999773h-3.1999999999999886v2.800000000000068h3.1999999999999886l-2.900000000000034 2.8999999999999773 2 2 4.900000000000034-4.899999999999977h5.399999999999977z m-9.899999999999977-8.900000000000091h7l3.8000000000000114 3.800000000000068c0.5-0.8000000000000682 1.1999999999999886-1.5 2-2l-3.8000000000000114-3.800000000000068v-7h-2.8000000000000114v4.100000000000023l-2.1999999999999886-2.199999999999932-2 2 2.1999999999999886 2.199999999999932h-4.100000000000023l-0.0999999999999659 2.8999999999999773z m10.800000000000011 11.100000000000023l-3.8000000000000114 3.800000000000068h-7v2.8999999999999773h4.099999999999966l-2.1999999999999886 2.199999999999932 2 2 2.1999999999999886-2.199999999999932v4.100000000000023h2.8000000000000114v-7l3.8000000000000114-3.800000000000068c-0.6999999999999886-0.5-1.3999999999999773-1.1999999999999318-1.8999999999999773-2z m24.799999999999955-8l-2-2-4.899999999999977 4.899999999999977h-5.399999999999977c0.0999999999999659 0.5 0.19999999999998863 0.900000000000091 0.19999999999998863 1.400000000000091 0 0.5-0.10000000000002274 1-0.19999999999998863 1.3999999999999773h5.399999999999977l4.899999999999977 4.899999999999977 2-2-2.8999999999999773-2.8999999999999773h3.1999999999999886v-2.800000000000068h-3.1999999999999886l2.8999999999999773-2.8999999999999773z m-11.399999999999977-12.100000000000023v7l-3.8000000000000114 3.800000000000068c0.8000000000000114 0.5 1.5 1.1999999999999318 2 2l3.8000000000000114-3.800000000000068h7v-2.7999999999999545h-4.100000000000023l2.2000000000000455-2.2000000000000455-2-2-2.2000000000000455 2.2000000000000455v-4.100000000000023l-2.8999999999999773-0.10000000000002274z m9 23.800000000000068h-7l-3.8000000000000114-3.800000000000068c-0.5 0.8000000000000682-1.1999999999999886 1.5-2 2l3.8000000000000114 3.800000000000068v7h2.8000000000000114v-4.100000000000023l2.1999999999999886 2.2000000000000455 2-2-2.1999999999999886-2.2000000000000455h4.099999999999966l0.10000000000002274-2.8999999999999773z m-11.600000000000023-7.399999999999977c0 2.8999999999999773-2.2999999999999545 5.199999999999932-5.199999999999989 5.199999999999932s-5.199999999999989-2.2999999999999545-5.199999999999989-5.199999999999932c0-2.900000000000091 2.3000000000000114-5.2000000000000455 5.199999999999989-5.2000000000000455s5.199999999999989 2.3999999999999773 5.199999999999989 5.2000000000000455z m-81.59999999999997 91.79999999999995v2.2000000000000455l-2.1000000000000227-2.1000000000000227-1.3999999999999773 1.3999999999999773 3.5 3.5v3.7999999999999545c0.30000000000001137-0.09999999999990905 0.6999999999999886-0.09999999999990905 1-0.09999999999990905 0.30000000000001137 0 0.6999999999999886 0 1 0.09999999999990905v-3.7999999999999545l3.5-3.5-1.400000000000034-1.3999999999999773-2.099999999999966 2.1000000000000227v-2.2000000000000455h-2z m1.8999999999999773 18.100000000000023c-0.30000000000001137 0.10000000000002274-0.6999999999999886 0.10000000000002274-1 0.10000000000002274-0.30000000000001137 0-0.6999999999999886 0-1-0.10000000000002274v3.7999999999999545l-3.5 3.5 1.400000000000034 1.3999999999999773 2-2v2.2000000000000455h2v-2.2000000000000455l2.099999999999966 2 1.400000000000034-1.3999999999999773-3.5-3.5 0.0999999999999659-3.7999999999999545z m-5.599999999999966-3.6000000000000227c-0.10000000000002274-0.2999999999999545-0.10000000000002274-0.7000000000000455-0.10000000000002274-1 0-0.2999999999999545 0-0.7000000000000455 0.10000000000002274-1h-3.8000000000000114l-3.5-3.5-1.400000000000034 1.3999999999999773 2 2.1000000000000227h-2.1999999999999886v2h2.1999999999999886l-2 2.1000000000000227 1.400000000000034 1.3999999999999773 3.5-3.5h3.8000000000000114z m-6.900000000000034-6.2000000000000455h4.900000000000034l2.6999999999999886 2.6000000000000227c0.39999999999997726-0.6000000000000227 0.8000000000000114-1 1.3999999999999773-1.3999999999999773l-2.6999999999999886-2.6000000000000227v-4.899999999999977h-2v2.8999999999999773l-1.6000000000000227-1.6000000000000227-1.3999999999999773 1.400000000000091 1.6000000000000227 1.599999999999909h-2.900000000000034v2z m7.600000000000023 7.7000000000000455l-2.6999999999999886 2.6000000000000227h-4.900000000000034v2h2.900000000000034l-1.6000000000000227 1.6000000000000227 1.3999999999999773 1.3999999999999773 1.6000000000000227-1.6000000000000227v2.8999999999999773h2v-4.899999999999977l2.6999999999999886-2.6000000000000227c-0.5999999999999659-0.2999999999999545-1.099999999999966-0.7999999999999545-1.3999999999999773-1.3999999999999773z m17.30000000000001-5.600000000000023l-1.400000000000034-1.3999999999999773-3.5 3.5h-3.8000000000000114c0.10000000000002274 0.2999999999999545 0.10000000000002274 0.7000000000000455 0.10000000000002274 1 0 0.2999999999999545 0 0.7000000000000455-0.10000000000002274 1h3.8000000000000114l3.5 3.5 1.400000000000034-1.3999999999999773-2.1000000000000227-2.1000000000000227h2.1999999999999886v-2h-2.1999999999999886l2.1000000000000227-2.1000000000000227z m-4.400000000000034-7.100000000000023l-1.599999999999966 1.6000000000000227v-2.8999999999999773h-2v4.899999999999977l-2.7000000000000455 2.6000000000000227c0.6000000000000227 0.39999999999997726 1 0.8999999999999773 1.400000000000034 1.3999999999999773l2.6999999999999886-2.6000000000000227h4.899999999999977v-2h-2.8999999999999773l1.6000000000000227-1.599999999999909-1.400000000000034-1.400000000000091z m2.6999999999999886 15.300000000000068h-4.899999999999977l-2.6999999999999886-2.6000000000000227c-0.4000000000000341 0.6000000000000227-0.8000000000000114 1-1.400000000000034 1.3999999999999773l2.7000000000000455 2.6000000000000227v4.899999999999977h2v-2.8999999999999773l1.599999999999966 1.6000000000000227 1.400000000000034-1.3999999999999773-1.6000000000000227-1.6000000000000227h2.8999999999999773v-2z m-8-5.100000000000023c0 2-1.599999999999966 3.6000000000000227-3.599999999999966 3.6000000000000227s-3.6000000000000227-1.6000000000000227-3.6000000000000227-3.6000000000000227 1.6000000000000227-3.6000000000000227 3.6000000000000227-3.6000000000000227 3.599999999999966 1.6000000000000227 3.599999999999966 3.6000000000000227z m-74.09999999999997-92.10000000000002v1.6000000000000227l-1.5-1.5-1 1 2.5 2.5v2.7000000000000455c0.19999999999998863-0.10000000000002274 0.5-0.10000000000002274 0.6999999999999886-0.10000000000002274s0.5 0 0.6999999999999886 0.10000000000002274v-2.7000000000000455l2.5-2.5-1-1-1.5 1.5v-1.6000000000000227h-1.3999999999999773z m0 17.899999999999977v1.6000000000000227h1.3999999999999773v-1.6000000000000227l1.5 1.5 1-1-2.5-2.5v-2.699999999999932c-0.19999999999998863 0.10000000000002274-0.5 0.10000000000002274-0.6999999999999886 0.10000000000002274-0.19999999999998863 0-0.5 0-0.6999999999999886-0.10000000000002274v2.699999999999932l-2.5 2.5 1 1 1.5-1.5z m-9-7.399999999999977h1.599999999999966l-1.5 1.5 1 1 2.5-2.5h2.7000000000000455c-0.10000000000002274-0.1999999999999318-0.10000000000002274-0.5-0.10000000000002274-0.6999999999999318s0-0.5 0.10000000000002274-0.7000000000000455h-2.6000000000000227l-2.5-2.5-1 1 1.5 1.5h-1.6000000000000227v1.3999999999999773z m1.3999999999999773-4.5h3.6000000000000227l1.8999999999999773 1.8999999999999773c0.30000000000001137-0.39999999999997726 0.6000000000000227-0.7999999999999545 1-1l-1.8999999999999773-1.8999999999999773v-3.6000000000000227h-1.400000000000034v2.1000000000000227l-1.099999999999966-1.1000000000000227-1 1 1.099999999999966 1.1000000000000227h-2.099999999999966l-0.10000000000002274 1.5z m4.5 12.100000000000023v-3.6000000000000227l1.900000000000034-1.8999999999999773c-0.4000000000000341-0.2999999999999545-0.8000000000000114-0.6000000000000227-1-1l-1.900000000000034 1.8999999999999773h-3.599999999999966v1.3999999999999773h2.099999999999966l-1.099999999999966 1.1000000000000227 1 1 1.099999999999966-1.1000000000000227v2.1000000000000227l1.5 0.10000000000002274z m12.5-11.600000000000023l-2.5 2.5h-2.6999999999999886c0.10000000000002274 0.20000000000004547 0.10000000000002274 0.5 0.10000000000002274 0.7000000000000455s0 0.5-0.10000000000002274 0.6999999999999318h2.6999999999999886l2.5 2.5 1-1-1.5-1.5h1.6000000000000227v-1.3999999999999773h-1.6000000000000227l1.5-1.5-1-1z m-4.699999999999989-5.100000000000023v3.6000000000000227l-1.8999999999999773 1.8999999999999773c0.39999999999997726 0.3000000000000682 0.7999999999999545 0.6000000000000227 1 1l1.8999999999999773-1.8999999999999773h3.6000000000000227v-1.3999999999999773h-2.1000000000000227l1.1000000000000227-1.1000000000000227-1-1-1.1000000000000227 1.1000000000000227v-2.1000000000000227l-1.5-0.10000000000002274z m4.5 12.100000000000023h-3.6000000000000227l-1.8999999999999773-1.8999999999999773c-0.30000000000001137 0.39999999999997726-0.6000000000000227 0.7999999999999545-1 1l1.8999999999999773 1.8999999999999773v3.6000000000000227h1.400000000000034v-2.1000000000000227l1.099999999999966 1.1000000000000227 1-1-1.099999999999966-1.1000000000000227h2.099999999999966l0.10000000000002274-1.5z m-5.800000000000011-3.699999999999932c0 1.3999999999999773-1.1999999999999886 2.599999999999909-2.599999999999966 2.599999999999909s-2.6000000000000227-1.1999999999999318-2.6000000000000227-2.599999999999909c0-1.400000000000091 1.1999999999999886-2.6000000000000227 2.6000000000000227-2.6000000000000227s2.599999999999966 1.1000000000000227 2.599999999999966 2.6000000000000227z"/>
</svg>
