<svg xmlns="http://www.w3.org/2000/svg" viewBox="0 0 1000 1000" width="1000" height="1000">
<path d="M885.5 299.2c-54.39999999999998-52.89999999999998-119.10000000000002-68-191.39999999999998-41.599999999999966-13.5 5-18.899999999999977 5.399999999999977-25.100000000000023-10.200000000000017-47.10000000000002-117.1-156.60000000000002-181.60000000000002-280.9-167.2-113.70000000000005 13.199999999999989-203.3 103.1-224.3 224.79999999999998-1.3000000000000114 7.300000000000011-0.20000000000001705 16.5-9.100000000000023 20.30000000000001-20.19999999999999 8.5-36.099999999999994 20.69999999999999-49.099999999999994 35.099999999999966l-0.09999999999999432-0.2999999999999545s-95.4 90.29999999999995-2.0999999999999943 194.39999999999998c2.5999999999999943 3 5.099999999999994 6.100000000000023 7.8999999999999915 8.799999999999955 0.5 0.5 0.7999999999999972 0.900000000000091 1.2000000000000028 1.400000000000091l0.09999999999999432-0.20000000000004547c22.599999999999994 21.700000000000045 51.599999999999994 34.799999999999955 87.20000000000002 38.10000000000002 36.39999999999998 3.2999999999999545 73.30000000000001 0.1999999999999318 109.89999999999998 1.1999999999999318l315.50000000000006-0.5c48 0 91.39999999999998 1.2000000000000455 134.69999999999993-0.2999999999999545 76.5-2.6000000000000227 131.70000000000005-39.5 162.60000000000002-109.60000000000002 29.299999999999955-66.09999999999997 14.899999999999977-143.7-37-194.2z m-315.4 392.2v7.399999999999977l-6.899999999999977-6.899999999999977-4.7000000000000455 4.7000000000000455 11.600000000000023 11.600000000000023v12.599999999999909c1.1000000000000227-0.1999999999999318 2.199999999999932-0.39999999999997726 3.2999999999999545-0.39999999999997726s2.300000000000068 0.10000000000002274 3.300000000000068 0.39999999999997726v-12.599999999999909l11.599999999999909-11.600000000000023-4.699999999999932-4.7000000000000455-6.899999999999977 6.899999999999977v-7.399999999999977h-6.600000000000023z m6.699999999999932 60.5c-1.099999999999909 0.20000000000004547-2.199999999999932 0.39999999999997726-3.2999999999999545 0.39999999999997726-1.1000000000000227 0-2.2999999999999545-0.09999999999990905-3.2999999999999545-0.39999999999997726v12.600000000000023l-11.600000000000023 11.600000000000023 4.699999999999932 4.699999999999932 6.900000000000091-6.899999999999977v7.399999999999977h6.699999999999932v-7.2999999999999545l6.899999999999977 6.899999999999977 4.7000000000000455-4.699999999999932-11.600000000000023-11.600000000000023-0.10000000000002274-12.700000000000045z m-18.899999999999977-12.299999999999955c-0.1999999999999318-1.1000000000000227-0.39999999999997726-2.2000000000000455-0.39999999999997726-3.300000000000068 0-1.099999999999909 0.10000000000002274-2.2999999999999545 0.39999999999997726-3.2999999999999545h-12.600000000000023l-11.599999999999909-11.600000000000023-4.7000000000000455 4.7000000000000455 6.899999999999977 6.899999999999977h-7.399999999999977v6.7000000000000455h7.399999999999977l-6.899999999999977 6.899999999999977 4.7000000000000455 4.699999999999932 11.599999999999909-11.599999999999909 12.600000000000023-0.10000000000002274z m-23.100000000000023-20.600000000000023l16.40000000000009-0.10000000000002274 9 8.899999999999977c1.1999999999999318-1.8999999999999773 2.7999999999999545-3.5 4.699999999999932-4.699999999999932l-8.899999999999977-8.899999999999977-0.10000000000002274-16.40000000000009h-6.699999999999932v9.700000000000045l-5.300000000000068-5.2000000000000455-4.699999999999932 4.7000000000000455 5.199999999999932 5.2000000000000455h-9.699999999999932l0.09999999999990905 6.7999999999999545z m14.300000000000068 55.799999999999955h6.699999999999932l0.10000000000002274-16.399999999999977 8.899999999999977-8.899999999999977c-1.8999999999999773-1.2000000000000455-3.5-2.8999999999999773-4.699999999999932-4.7999999999999545l-9 8.899999999999977-16.399999999999977-0.10000000000002274v6.7000000000000455h9.699999999999932l-5.199999999999932 5.199999999999932 4.699999999999932 4.7000000000000455 5.300000000000068-5.2000000000000455-0.10000000000002274 9.899999999999977z m69.10000000000002-48.69999999999993l-4.7000000000000455-4.7000000000000455-11.600000000000023 11.600000000000023h-12.600000000000023c0.20000000000004547 1.1000000000000227 0.40000000000009095 2.2000000000000455 0.40000000000009095 3.2999999999999545 0 1.1000000000000227-0.10000000000002274 2.300000000000068-0.40000000000009095 3.300000000000068h12.600000000000023l11.600000000000023 11.600000000000023 4.7000000000000455-4.7000000000000455-6.900000000000091-6.899999999999977h7.400000000000091v-6.600000000000023h-7.400000000000091l6.900000000000091-6.899999999999977z m-26.700000000000045-28.300000000000068l-0.10000000000002274 16.40000000000009-8.899999999999977 8.899999999999977c1.8999999999999773 1.1999999999999318 3.5 2.8999999999999773 4.7000000000000455 4.699999999999932l9-8.899999999999977 16.399999999999977 0.10000000000002274v-6.7000000000000455h-9.700000000000045l5.300000000000068-5.199999999999932-4.7000000000000455-4.7000000000000455-5.2000000000000455 5.2000000000000455v-9.700000000000045l-6.7999999999999545-0.10000000000002274z m21 55.80000000000007l-16.399999999999977 0.10000000000002274-9-8.900000000000091c-1.2000000000000455 1.900000000000091-2.800000000000068 3.5-4.7000000000000455 4.800000000000068l8.899999999999977 8.899999999999977 0.10000000000002274 16.399999999999977h6.7000000000000455v-9.699999999999932l5.199999999999932 5.199999999999932 4.7000000000000455-4.699999999999932-5.2999999999999545-5.2000000000000455h9.699999999999932l0.10000000000002274-6.899999999999977z m-39.10000000000002-29.399999999999977c-6.699999999999932 0-12.100000000000023 5.399999999999977-12.100000000000023 12.099999999999909 0 6.7000000000000455 5.400000000000091 12.100000000000023 12.100000000000023 12.100000000000023 6.7000000000000455 0 12.100000000000023-5.399999999999977 12.100000000000023-12.100000000000023 0.10000000000002274-6.699999999999932-5.399999999999977-12.099999999999909-12.100000000000023-12.099999999999909z m-274-99.70000000000005v16.600000000000023l-15.399999999999977-15.399999999999977-10.600000000000023 10.599999999999909 26 26v28.300000000000068c2.400000000000034-0.5 4.900000000000034-0.8000000000000682 7.5-0.8000000000000682 2.6000000000000227 0 5.100000000000023 0.3000000000000682 7.5 0.8000000000000682v-28.300000000000068l26-26-10.599999999999966-10.599999999999909-15.400000000000034 15.399999999999977v-16.600000000000023h-15z m15 136.10000000000002c-2.3999999999999773 0.5-4.899999999999977 0.7999999999999545-7.5 0.7999999999999545-2.599999999999966 0-5.099999999999966-0.2999999999999545-7.5-0.7999999999999545v28.299999999999955l-26 26 10.600000000000023 10.600000000000023 15.399999999999977-15.399999999999977v16.600000000000023h15v-16.600000000000023l15.400000000000034 15.399999999999977 10.599999999999966-10.600000000000023-26-26v-28.299999999999955z m-42.299999999999955-27.600000000000023c-0.5-2.3999999999999773-0.8000000000000114-4.899999999999977-0.8000000000000114-7.5 0-2.6000000000000227 0.30000000000001137-5.100000000000023 0.8000000000000114-7.5h-28.30000000000001l-26-26-10.600000000000023 10.600000000000023 15.400000000000006 15.399999999999977h-16.599999999999994v15h16.599999999999994l-15.400000000000006 15.5 10.600000000000023 10.600000000000023 26-26.100000000000023h28.30000000000001z m-52.20000000000002-46.5l36.79999999999998-0.20000000000004547 20.100000000000023 19.90000000000009c2.6999999999999886-4.300000000000068 6.300000000000011-7.900000000000091 10.599999999999966-10.700000000000045l-20.099999999999966-19.899999999999977-0.19999999999998863-36.80000000000007-15.000000000000028 0.10000000000002274 0.09999999999999432 21.800000000000068-11.799999999999983-11.700000000000045-10.599999999999994 10.700000000000045 11.799999999999983 11.699999999999932-21.799999999999983 0.10000000000002274 0.09999999999999432 15z m56.99999999999997 58.200000000000045l-20.099999999999966 19.899999999999977-36.80000000000001-0.20000000000004547-0.09999999999999432 15 21.799999999999983 0.10000000000002274-11.799999999999983 11.700000000000045 10.599999999999994 10.699999999999932 11.800000000000011-11.699999999999932-0.10000000000002274 21.799999999999955 15 0.10000000000002274 0.19999999999998863-36.80000000000007 20.100000000000023-19.899999999999977c-4.300000000000011-2.7999999999999545-7.899999999999977-6.5-10.600000000000023-10.699999999999932z m130.70000000000005-42.200000000000045l-10.600000000000023-10.600000000000023-26 26h-28.30000000000001c0.5 2.3999999999999773 0.8000000000000114 4.899999999999977 0.8000000000000114 7.5 0 2.6000000000000227-0.30000000000001137 5.100000000000023-0.8000000000000114 7.5h28.30000000000001l26 26.100000000000023 10.600000000000023-10.600000000000023-15.400000000000034-15.399999999999977h16.600000000000023v-15h-16.600000000000023l15.400000000000034-15.5z m-60.10000000000002-63.60000000000002l-0.19999999999998863 36.80000000000007-20.100000000000023 19.899999999999977c4.199999999999989 2.7999999999999545 7.800000000000011 6.399999999999977 10.600000000000023 10.699999999999932l20.099999999999966-19.899999999999977 36.80000000000001 0.20000000000004547 0.10000000000002274-15-21.80000000000001-0.10000000000002274 11.800000000000011-11.700000000000045-10.600000000000023-10.699999999999932-11.800000000000011 11.699999999999932 0.10000000000002274-21.799999999999955-15-0.10000000000002274z m47.30000000000001 125.5l-36.80000000000001 0.20000000000004547-20.100000000000023-19.899999999999977c-2.6999999999999886 4.2999999999999545-6.2999999999999545 7.899999999999977-10.599999999999966 10.699999999999932l20.099999999999966 19.899999999999977 0.20000000000004547 36.80000000000007 15-0.10000000000002274-0.10000000000002274-21.799999999999955 11.800000000000011 11.699999999999932 10.599999999999966-10.699999999999932-11.899999999999977-11.700000000000045 21.80000000000001-0.10000000000002274v-15z m-87.90000000000003-66.10000000000002c-15 0-27.19999999999999 12.200000000000045-27.19999999999999 27.200000000000045s12.199999999999989 27.200000000000045 27.19999999999999 27.200000000000045 27.200000000000045-12.200000000000045 27.200000000000045-27.200000000000045c0.0999999999999659-15.100000000000023-12.100000000000023-27.200000000000045-27.200000000000045-27.200000000000045z m148.40000000000003 129v-5.599999999999909h-5.100000000000023v5.599999999999909l-5.199999999999989-5.199999999999932-3.6000000000000227 3.6000000000000227 8.800000000000011 8.799999999999955v9.600000000000023c0.8000000000000114-0.20000000000004547 1.6999999999999886-0.3000000000000682 2.6000000000000227-0.3000000000000682s1.6999999999999886 0.10000000000002274 2.599999999999966 0.3000000000000682v-9.600000000000023l8.800000000000011-8.799999999999955-3.599999999999966-3.6000000000000227-5.300000000000011 5.199999999999932z m0 40.60000000000002c-0.8000000000000114 0.20000000000004547-1.6999999999999886 0.3000000000000682-2.6000000000000227 0.3000000000000682s-1.6999999999999886-0.10000000000002274-2.599999999999966-0.3000000000000682v9.600000000000023l-8.800000000000011 8.799999999999955 3.599999999999966 3.6000000000000227 5.2000000000000455-5.199999999999932v5.599999999999909h5.099999999999966v-5.599999999999909l5.199999999999989 5.199999999999932 3.6000000000000227-3.6000000000000227-8.800000000000011-8.799999999999955 0.10000000000002274-9.600000000000023z m-14.400000000000034-9.399999999999977c-0.19999999999998863-0.7999999999999545-0.2999999999999545-1.7000000000000455-0.2999999999999545-2.5 0-0.8999999999999773 0.0999999999999659-1.7000000000000455 0.2999999999999545-2.6000000000000227h-9.599999999999966l-8.800000000000011-8.799999999999955-3.6000000000000227 3.6000000000000227 5.2000000000000455 5.199999999999932h-5.600000000000023v5.100000000000023h5.600000000000023l-5.2000000000000455 5.2000000000000455 3.6000000000000227 3.599999999999909 8.800000000000011-8.799999999999955h9.599999999999966z m-17.69999999999999-15.700000000000045l12.5-0.09999999999990905 6.800000000000011 6.7999999999999545c0.8999999999999773-1.3999999999999773 2.1999999999999886-2.7000000000000455 3.6000000000000227-3.6000000000000227l-6.800000000000011-6.7999999999999545-0.10000000000002274-12.5h-5.099999999999966v7.399999999999977l-4-4-3.6000000000000227 3.6000000000000227 4 4h-7.399999999999977l0.0999999999999659 5.199999999999932z m19.30000000000001 19.700000000000045l-6.800000000000011 6.7999999999999545-12.5-0.09999999999990905v5.099999999999909h7.400000000000034l-4 4 3.599999999999966 3.6000000000000227 4-4v7.399999999999977h5.100000000000023l0.0999999999999659-12.5 6.800000000000011-6.7999999999999545c-1.5-0.7999999999999545-2.6999999999999886-2-3.6999999999999886-3.5z m44.39999999999998-14.299999999999955l-3.599999999999966-3.6000000000000227-8.800000000000011 8.799999999999955h-9.600000000000023c0.20000000000004547 0.8000000000000682 0.30000000000001137 1.7000000000000455 0.30000000000001137 2.6000000000000227 0 0.8999999999999773-0.0999999999999659 1.7000000000000455-0.30000000000001137 2.5h9.600000000000023l8.800000000000011 8.799999999999955 3.599999999999966-3.599999999999909-5.199999999999989-5.2000000000000455h5.600000000000023v-5.100000000000023h-5.600000000000023l5.199999999999989-5.199999999999932z m-20.399999999999977-21.600000000000023l-0.10000000000002274 12.5-6.7999999999999545 6.7999999999999545c1.3999999999999773 0.8999999999999773 2.6999999999999886 2.2000000000000455 3.599999999999966 3.6000000000000227l6.800000000000011-6.7999999999999545 12.5 0.09999999999990905v-5.099999999999909h-7.399999999999977l4-4-3.6000000000000227-3.6000000000000227-4 4v-7.399999999999977l-5-0.10000000000002274z m16.100000000000023 42.60000000000002l-12.5 0.09999999999990905-6.800000000000011-6.7999999999999545c-0.9000000000000341 1.3999999999999773-2.1999999999999886 2.7000000000000455-3.6000000000000227 3.6000000000000227l6.800000000000011 6.7999999999999545 0.10000000000002274 12.5h5.099999999999966v-7.399999999999977l4 4 3.6000000000000227-3.6000000000000227-4-4h7.399999999999977l-0.0999999999999659-5.199999999999932z m-29.900000000000034-22.40000000000009c-5.099999999999966 0-9.199999999999989 4.100000000000023-9.199999999999989 9.200000000000045s4.100000000000023 9.200000000000045 9.199999999999989 9.200000000000045 9.199999999999989-4.100000000000023 9.199999999999989-9.200000000000045c0.10000000000002274-5.100000000000023-4.099999999999966-9.200000000000045-9.199999999999989-9.200000000000045z m256.2-177.5999999999999v5.7999999999999545l-5.399999999999977-5.399999999999977-3.7000000000000455 3.699999999999932 9 9v9.800000000000068c0.8000000000000682-0.20000000000004547 1.7000000000000455-0.3000000000000682 2.6000000000000227-0.3000000000000682 0.8999999999999773 0 1.8000000000000682 0.10000000000002274 2.6000000000000227 0.3000000000000682v-9.800000000000068l9-9-3.7000000000000455-3.699999999999932-5.399999999999977 5.399999999999977v-5.7999999999999545h-5z m5.2000000000000455 47.19999999999993c-0.8000000000000682 0.20000000000004547-1.7000000000000455 0.3000000000000682-2.6000000000000227 0.3000000000000682-0.8999999999999773 0-1.7999999999999545-0.10000000000002274-2.6000000000000227-0.3000000000000682v9.800000000000068l-9 9 3.7000000000000455 3.699999999999932 5.399999999999977-5.399999999999977v5.7999999999999545h5.2000000000000455v-5.7999999999999545l5.399999999999977 5.399999999999977 3.699999999999932-3.699999999999932-9-9-0.1999999999999318-9.800000000000068z m-14.700000000000045-9.600000000000023c-0.1999999999999318-0.7999999999999545-0.2999999999999545-1.6999999999999318-0.2999999999999545-2.599999999999909 0-0.900000000000091 0.10000000000002274-1.8000000000000682 0.2999999999999545-2.6000000000000227h-9.799999999999955l-9-9-3.7000000000000455 3.699999999999932 5.399999999999977 5.400000000000091h-5.7999999999999545v5.199999999999932h5.7999999999999545l-5.399999999999977 5.399999999999977 3.7000000000000455 3.7000000000000455 9-9.100000000000023 9.799999999999955-0.10000000000002274z m-18.100000000000023-16.09999999999991l12.800000000000068-0.10000000000002274 7 6.899999999999977c0.8999999999999773-1.5 2.199999999999932-2.7000000000000455 3.699999999999932-3.7000000000000455l-7-6.899999999999977-0.09999999999990905-12.799999999999955h-5.2000000000000455v7.600000000000023l-4.100000000000023-4.100000000000023-3.699999999999932 3.699999999999932 4.099999999999909 4.100000000000023h-7.599999999999909l0.09999999999990905 5.300000000000068z m19.800000000000068 20.199999999999932l-7 6.899999999999977-12.800000000000068-0.09999999999990905v5.199999999999932h7.600000000000023l-4.100000000000023 4.100000000000023 3.7000000000000455 3.7000000000000455 4.100000000000023-4.100000000000023v7.600000000000023h5.199999999999932l0.10000000000002274-12.800000000000068 7-6.899999999999977c-1.6000000000000227-0.8999999999999773-2.8999999999999773-2.1000000000000227-3.7999999999999545-3.6000000000000227z m45.39999999999998-14.600000000000023l-3.7000000000000455-3.699999999999932-9 9h-9.799999999999955c0.20000000000004547 0.7999999999999545 0.2999999999999545 1.6999999999999318 0.2999999999999545 2.6000000000000227 0 0.8999999999999773-0.09999999999990905 1.7999999999999545-0.2999999999999545 2.599999999999909h9.799999999999955l9 9.100000000000023 3.7000000000000455-3.699999999999932-5.399999999999977-5.400000000000091h5.7999999999999545v-5.199999999999932h-5.7999999999999545l5.399999999999977-5.300000000000068z m-20.899999999999977-22.199999999999932l-0.10000000000002274 12.799999999999955-7 6.899999999999977c1.5 1 2.7000000000000455 2.2000000000000455 3.7000000000000455 3.7000000000000455l7-6.899999999999977 12.799999999999955 0.10000000000002274v-5.2000000000000455h-7.600000000000023l4.100000000000023-4.100000000000023-3.7000000000000455-3.699999999999932-4.099999999999909 4.099999999999909v-7.599999999999909l-5.100000000000023-0.10000000000002274z m16.399999999999977 43.60000000000002l-12.799999999999955 0.09999999999990905-7-6.899999999999977c-0.900000000000091 1.5-2.2000000000000455 2.7000000000000455-3.7000000000000455 3.7000000000000455l7 6.899999999999977 0.10000000000002274 12.799999999999955h5.199999999999932v-7.599999999999909l4.100000000000023 4.099999999999909 3.7000000000000455-3.699999999999932-4.100000000000023-4.100000000000023h7.600000000000023l-0.10000000000002274-5.2999999999999545z m-30.5-22.90000000000009c-5.2000000000000455 0-9.5 4.2000000000000455-9.5 9.5 0 5.2000000000000455 4.2000000000000455 9.5 9.5 9.5 5.2000000000000455 0 9.5-4.199999999999932 9.5-9.5s-4.2999999999999545-9.5-9.5-9.5z m-140 177.4000000000001v4l-3.7000000000000455-3.800000000000068-2.599999999999909 2.6000000000000227 6.2999999999999545 6.2999999999999545v6.900000000000091c0.6000000000000227-0.10000000000002274 1.2000000000000455-0.20000000000004547 1.7999999999999545-0.20000000000004547 0.6000000000000227 0 1.2000000000000455 0.10000000000002274 1.8000000000000682 0.20000000000004547v-6.900000000000091l6.2999999999999545-6.2999999999999545-2.6000000000000227-2.6000000000000227-3.7999999999999545 3.800000000000068v-4h-3.5z m3.7000000000000455 33.09999999999991c-0.6000000000000227 0.10000000000002274-1.2000000000000455 0.20000000000004547-1.8000000000000682 0.20000000000004547-0.6000000000000227 0-1.1999999999999318-0.10000000000002274-1.7999999999999545-0.20000000000004547v6.900000000000091l-6.300000000000068 6.2999999999999545 2.6000000000000227 2.6000000000000227 3.800000000000068-3.7000000000000455v4h3.699999999999932v-4l3.7000000000000455 3.7000000000000455 2.6000000000000227-2.6000000000000227-6.300000000000068-6.2999999999999545-0.1999999999999318-6.900000000000091z m-10.300000000000068-6.699999999999932c-0.10000000000002274-0.6000000000000227-0.1999999999999318-1.2000000000000455-0.1999999999999318-1.8000000000000682 0-0.599999999999909 0.09999999999990905-1.1999999999999318 0.1999999999999318-1.7999999999999545h-6.899999999999977l-6.2999999999999545-6.2999999999999545-2.6000000000000227 2.599999999999909 3.7999999999999545 3.800000000000068h-4v3.6000000000000227h4l-3.7999999999999545 3.7999999999999545 2.6000000000000227 2.6000000000000227 6.2999999999999545-6.300000000000068 6.899999999999977-0.1999999999999318z m-12.699999999999932-11.300000000000068h9l4.899999999999977 4.800000000000068c0.6999999999999318-1 1.5-1.8999999999999773 2.6000000000000227-2.6000000000000227l-4.900000000000091-4.7999999999999545v-9h-3.599999999999909v5.2999999999999545l-2.900000000000091-2.7999999999999545-2.599999999999909 2.599999999999909 2.8999999999999773 2.800000000000068h-5.300000000000068l-0.09999999999990905 3.699999999999932z m13.799999999999955 14.100000000000023l-4.899999999999977 4.800000000000068h-9v3.699999999999932h5.2999999999999545l-2.8999999999999773 2.800000000000068 2.6000000000000227 2.599999999999909 2.8999999999999773-2.7999999999999545v5.2999999999999545h3.6000000000000227v-8.899999999999977l4.899999999999977-4.7999999999999545c-0.8999999999999773-0.8000000000000682-1.7999999999999545-1.7000000000000455-2.5-2.7000000000000455z m31.799999999999955-10.199999999999932l-2.599999999999909-2.6000000000000227-6.300000000000068 6.2999999999999545h-6.899999999999977c0.10000000000002274 0.6000000000000227 0.20000000000004547 1.2000000000000455 0.20000000000004547 1.8000000000000682 0 0.599999999999909-0.10000000000002274 1.1999999999999318-0.20000000000004547 1.7999999999999545h6.899999999999977l6.300000000000068 6.2999999999999545 2.599999999999909-2.599999999999909-3.7999999999999545-3.800000000000068h4v-3.6000000000000227h-4l3.7999999999999545-3.599999999999909z m-8.099999999999909-13l-2.900000000000091 2.7999999999999545v-5.2999999999999545h-3.599999999999909v9l-4.900000000000091 4.7999999999999545c1 0.7000000000000455 1.900000000000091 1.6000000000000227 2.6000000000000227 2.6000000000000227l4.899999999999977-4.800000000000068h9v-3.599999999999909h-5.2999999999999545l2.8999999999999773-2.800000000000068-2.699999999999932-2.699999999999932z m5 28h-9l-4.900000000000091-4.800000000000068c-0.6999999999999318 1-1.5 1.8999999999999773-2.599999999999909 2.6000000000000227l4.899999999999977 4.7999999999999545v8.900000000000091h3.6000000000000227v-5.300000000000068l2.8999999999999773 2.800000000000068 2.6000000000000227-2.6000000000000227-2.900000000000091-2.800000000000068h5.300000000000068l0.10000000000002274-3.599999999999909z m-14.700000000000045-9.5c0 3.699999999999932-3 6.599999999999909-6.600000000000023 6.599999999999909s-6.600000000000023-3-6.600000000000023-6.599999999999909c0-3.7000000000000455 3-6.600000000000023 6.600000000000023-6.600000000000023s6.600000000000023 3 6.600000000000023 6.600000000000023z m-135.5-168.30000000000007v2.8999999999999773l-2.6999999999999886-2.699999999999932-1.900000000000034 1.8999999999999773 4.600000000000023 4.600000000000023v5c0.39999999999997726-0.10000000000002274 0.8999999999999773-0.10000000000002274 1.3000000000000114-0.10000000000002274 0.5 0 0.8999999999999773 0.10000000000002274 1.3000000000000114 0.10000000000002274v-5l4.599999999999966-4.600000000000023-1.8999999999999773-1.8999999999999773-2.6999999999999886 2.699999999999932v-2.8999999999999773h-2.6000000000000227z m0 32.700000000000045v2.8999999999999773h2.6999999999999886v-2.8999999999999773l2.6999999999999886 2.699999999999932 1.900000000000034-1.8999999999999773-4.600000000000023-4.600000000000023v-5c-0.39999999999997726 0.10000000000002274-0.8999999999999773 0.10000000000002274-1.3000000000000114 0.10000000000002274-0.5 0-0.8999999999999773-0.10000000000002274-1.2999999999999545-0.10000000000002274v5l-4.600000000000023 4.600000000000023 1.8999999999999773 1.8999999999999773 2.6000000000000227-2.699999999999932z m-16.5-13.600000000000023h2.8999999999999773l-2.6999999999999886 2.7000000000000455 1.900000000000034 1.8999999999999773 4.599999999999966-4.600000000000023h5c-0.0999999999999659-0.39999999999997726-0.0999999999999659-0.8999999999999773-0.0999999999999659-1.2999999999999545 0-0.5 0.0999999999999659-0.900000000000091 0.0999999999999659-1.3000000000000682h-5l-4.599999999999966-4.600000000000023-1.900000000000034 1.900000000000091 2.6999999999999886 2.699999999999932h-2.8999999999999773v2.6000000000000227z m2.3999999999999773-8.200000000000045h6.5l3.6000000000000227 3.5c0.5-0.7999999999999545 1.1000000000000227-1.3999999999999773 1.8999999999999773-1.8999999999999773l-3.5-3.5v-6.5h-2.599999999999966v3.8999999999999773l-2.1000000000000227-2.099999999999909-1.8999999999999773 1.8999999999999773 2.099999999999966 2.1000000000000227h-3.8999999999999773l-0.10000000000002274 2.599999999999909z m8.400000000000034 22.200000000000045v-6.5l3.5-3.5c-0.6999999999999886-0.5-1.400000000000034-1.1000000000000227-1.900000000000034-1.8999999999999773l-3.599999999999966 3.5h-6.5v2.699999999999932h3.8999999999999773l-2.099999999999966 2.1000000000000227 1.8999999999999773 1.8999999999999773 2.1000000000000227-2.099999999999909v3.8999999999999773l2.6999999999999886-0.10000000000002274z m22.899999999999977-21.200000000000045l-4.599999999999966 4.600000000000023h-5c0.0999999999999659 0.39999999999997726 0.0999999999999659 0.8999999999999773 0.0999999999999659 1.3000000000000682 0 0.5-0.0999999999999659 0.8999999999999773-0.0999999999999659 1.2999999999999545h5l4.599999999999966 4.600000000000023 1.900000000000034-1.8999999999999773-2.7000000000000455-2.7000000000000455h2.900000000000034v-2.6000000000000227h-2.900000000000034l2.7000000000000455-2.699999999999932-1.900000000000034-1.900000000000091z m-8.699999999999989-9.399999999999977v6.5l-3.5 3.5c0.6999999999999886 0.5 1.3999999999999773 1.1000000000000227 1.8999999999999773 1.8999999999999773l3.6000000000000227-3.5h6.5v-2.599999999999909h-3.8999999999999773l2.099999999999966-2.1000000000000227-1.8999999999999773-1.8999999999999773-2.1000000000000227 2.099999999999909v-3.8999999999999773h-2.6999999999999886z m8.300000000000011 22.200000000000045h-6.5l-3.6000000000000227-3.5c-0.5 0.7999999999999545-1.099999999999966 1.3999999999999773-1.8999999999999773 1.8999999999999773l3.5 3.5v6.5h2.599999999999966v-3.8999999999999773l2.1000000000000227 2.1000000000000227 1.8999999999999773-1.900000000000091-2.099999999999966-2.099999999999909h3.8999999999999773l0.10000000000002274-2.6000000000000227z m-10.699999999999989-6.899999999999977c0 2.699999999999932-2.2000000000000455 4.7999999999999545-4.800000000000011 4.7999999999999545s-4.800000000000011-2.2000000000000455-4.800000000000011-4.7999999999999545 2.1999999999999886-4.800000000000068 4.800000000000011-4.800000000000068 4.800000000000011 2.1000000000000227 4.800000000000011 4.800000000000068z"/>
</svg>
