<svg xmlns="http://www.w3.org/2000/svg" viewBox="0 0 1000 1000" width="1000" height="1000">
<path d="M885.5 299.7c-54.39999999999998-52.89999999999998-119.10000000000002-68-191.39999999999998-41.599999999999966-13.5 5-18.899999999999977 5.399999999999977-25.100000000000023-10.100000000000023-47.10000000000002-117.19999999999999-156.60000000000002-181.7-280.9-167.3-113.70000000000005 13.200000000000017-203.3 103.10000000000002-224.3 224.8-1.3000000000000114 7.300000000000011-0.20000000000001705 16.5-9.100000000000023 20.30000000000001-20.19999999999999 8.5-36.099999999999994 20.69999999999999-49.099999999999994 35.099999999999966l-0.09999999999999432-0.2999999999999545s-95.4 90.29999999999995-2.0999999999999943 194.39999999999998c2.5999999999999943 3 5.099999999999994 6.100000000000023 7.8999999999999915 8.799999999999955 0.5 0.5 0.7999999999999972 0.900000000000091 1.2000000000000028 1.400000000000091l0.09999999999999432-0.20000000000004547c22.599999999999994 21.700000000000045 51.599999999999994 34.799999999999955 87.20000000000002 38.10000000000002 36.39999999999998 3.2999999999999545 73.30000000000001 0.1999999999999318 109.89999999999998 1.1999999999999318 14 0.40000000000009095 16.19999999999999-7.399999999999977 19-18 17.100000000000023-63 34.900000000000034-125.89999999999998 51.80000000000001-188.89999999999998 3.5-12.799999999999955 8.5-18.799999999999955 23.399999999999977-18.5 49.10000000000002 1.1000000000000227 98.30000000000001 1 147.39999999999998 0.10000000000002274 15.900000000000091-0.30000000000001137 18.300000000000068 4.5 14 18.80000000000001-10.399999999999977 34.89999999999998-19.5 70.19999999999999-30 108.5h158.70000000000005c-23.700000000000045 33.599999999999966-44.89999999999998 63.69999999999999-68.70000000000005 97.40000000000003 48 0 91.40000000000009 1.1999999999999318 134.70000000000005-0.3000000000000682 76.5-2.6000000000000227 131.70000000000005-39.5 162.60000000000002-109.59999999999997 29.199999999999932-66 14.799999999999955-143.60000000000002-37.10000000000002-194.10000000000002z m-374.7 239.50000000000006c-15 0.2999999999999545-21.19999999999999-1.5-15.400000000000034-19.200000000000045 10-30.19999999999999 16.700000000000045-61.5 25.700000000000045-92 3.5-11.800000000000011 0.6000000000000227-15.300000000000011-11.200000000000045-15.100000000000023-28 0.5-56.099999999999966 0.4000000000000341-84.09999999999997 0-9.100000000000023-0.0999999999999659-14.400000000000034 2.6000000000000227-17 11.800000000000011-16.900000000000034 61.400000000000034-34 122.80000000000001-51.10000000000002 184.09999999999997-2.6999999999999886 9.600000000000023-0.5999999999999659 14.300000000000068 10.699999999999989 14 21.80000000000001-0.599999999999909 43.700000000000045 0.6000000000000227 65.40000000000003-0.39999999999997726 16.5-0.6999999999999318 23.30000000000001 0.6000000000000227 18 21.100000000000023-17.400000000000034 67.60000000000002-32.19999999999999 135.89999999999998-48.10000000000002 203.89999999999998 1.1999999999999886 1 2.5 2 3.6999999999999886 2.8999999999999773 73-102.69999999999993 146-205.29999999999995 221.39999999999998-311.5-43.299999999999955 0.20000000000004547-80.69999999999993-0.2999999999999545-117.99999999999994 0.40000000000009095z m-244.90000000000003 181.5c0 30.5-24.69999999999999 55.09999999999991-55.099999999999966 55.09999999999991s-55.10000000000002-24.699999999999932-55.10000000000002-55.09999999999991c0-30.5 24.700000000000017-55.10000000000002 55.10000000000002-55.10000000000002s55.099999999999966 24.600000000000023 55.099999999999966 55.10000000000002z m394.9 8.599999999999909c0 25.700000000000045-20.799999999999955 46.60000000000002-46.59999999999991 46.60000000000002-25.700000000000045 0-46.60000000000002-20.799999999999955-46.60000000000002-46.60000000000002 0-25.699999999999932 20.799999999999955-46.59999999999991 46.60000000000002-46.59999999999991 25.699999999999932 0 46.59999999999991 20.899999999999977 46.59999999999991 46.59999999999991z m-307.4 156.80000000000007c0 19.600000000000023-15.899999999999977 35.5-35.5 35.5s-35.5-15.899999999999977-35.5-35.5 15.900000000000034-35.5 35.5-35.5c19.600000000000023 0.10000000000002274 35.5 15.899999999999977 35.5 35.5z m214.30000000000007 4.699999999999932c0 14.800000000000068-12 26.800000000000068-26.800000000000068 26.800000000000068s-26.799999999999955-12-26.799999999999955-26.800000000000068 12-26.799999999999955 26.799999999999955-26.799999999999955 26.800000000000068 12.100000000000023 26.800000000000068 26.799999999999955z m-203.30000000000007-148.5c0 9.800000000000068-7.899999999999977 17.700000000000045-17.69999999999999 17.700000000000045-9.800000000000011 0-17.69999999999999-7.899999999999977-17.69999999999999-17.700000000000045 0-9.799999999999955 7.899999999999977-17.699999999999932 17.69999999999999-17.699999999999932 9.800000000000011 0 17.69999999999999 7.899999999999977 17.69999999999999 17.699999999999932z m423.9-41.299999999999955c0 19.600000000000023-15.899999999999977 35.5-35.5 35.5s-35.5-15.899999999999977-35.5-35.5 15.900000000000091-35.5 35.5-35.5 35.5 15.899999999999977 35.5 35.5z"/>
</svg>
