<svg xmlns="http://www.w3.org/2000/svg" viewBox="0 0 1000 1000" width="1000" height="1000">
<path d="M605.4 782.7c-27 26.199999999999932-53.5 53-80 79.89999999999998-5.600000000000023 5.699999999999932-6.2999999999999545 13.199999999999932-2.6000000000000227 20.299999999999955 3.6000000000000227 6.899999999999977 9.400000000000091 10.899999999999977 19.90000000000009 10.899999999999977 2.8999999999999773 0.20000000000004547 7.2999999999999545-2.099999999999909 10.799999999999955-5.599999999999909 26.200000000000045-26.200000000000045 52.700000000000045-52.10000000000002 78.5-78.70000000000005 7.7000000000000455-8 7.7999999999999545-17.799999999999955-0.5-26.100000000000023-8.200000000000045-8.199999999999932-18.100000000000023-8.5-26.100000000000023-0.6999999999999318z m99.20000000000005 39.59999999999991c-1.3999999999999773 0.40000000000009095-3.300000000000068 0.5-4.800000000000068 1.5-18.799999999999955 11.600000000000023-33.89999999999998 27.200000000000045-45.799999999999955 45.5-4.5 6.800000000000068-0.2999999999999545 14.300000000000068 5.399999999999977 19.5 5.899999999999977 5.400000000000091 13.800000000000068 7.5 20.100000000000023 3 16.200000000000045-11.799999999999955 31-25.59999999999991 42.200000000000045-42.299999999999955 7.399999999999977-11.200000000000045-3.2000000000000455-27.100000000000023-17.100000000000023-27.200000000000045z m107.19999999999993-382.59999999999997c-44-42.80000000000001-96.39999999999998-55-154.89999999999998-33.69999999999999-10.899999999999977 4-15.299999999999955 4.399999999999977-20.299999999999955-8.199999999999989-38.10000000000002-94.80000000000001-126.60000000000002-147-227.20000000000005-135.3-91.89999999999998 10.800000000000011-164.39999999999998 83.5-181.39999999999998 181.89999999999998-1 5.900000000000034-0.19999999999998863 13.400000000000034-7.300000000000011 16.400000000000034-16.399999999999977 6.899999999999977-29.099999999999994 16.69999999999999-39.69999999999999 28.399999999999977l-0.09999999999999432-0.19999999999998863s-77.2 73.10000000000002-1.700000000000017 157.20000000000005c2.1000000000000227 2.3999999999999773 4.200000000000017 4.899999999999977 6.400000000000006 7.199999999999932 0.30000000000001137 0.39999999999997726 0.5999999999999943 0.7000000000000455 1 1.1000000000000227l0.09999999999999432-0.20000000000004547c18.30000000000001 17.600000000000023 41.80000000000001 28.200000000000045 70.5 30.800000000000068 29.400000000000034 2.699999999999932 59.19999999999999 0.1999999999999318 88.90000000000003 1l255.19999999999993-0.39999999999997726c38.80000000000007 0 73.90000000000009 1 109-0.20000000000004547 61.90000000000009-2.1000000000000227 106.5-32 131.5-88.60000000000002 23.700000000000045-53.5 12.100000000000023-116.29999999999995-30-157.2z m-241.0999999999999-295.1c-25.100000000000023 20.50000000000003-39.5 47.10000000000002-41.90000000000009 79.50000000000003-0.8999999999999773 12.400000000000006 0.20000000000004547 24.5 2.900000000000091 35.79999999999998 40.299999999999955 16.900000000000034 74.5 46.30000000000001 98.39999999999998 85.80000000000001 4.100000000000023 0.4000000000000341 8.199999999999932 0.6000000000000227 12.399999999999977 0.6000000000000227 68-0.5 110.79999999999995-57.69999999999999 111.5-104.30000000000001-16.399999999999977 19.899999999999977-36.299999999999955 31.100000000000023-60.799999999999955 33.30000000000001-24.700000000000045 2.3000000000000114-46.5-4.800000000000011-65.40000000000009-21-15.799999999999955-13.600000000000023-25.399999999999977-31-28.5-51.400000000000006-4.7999999999999545-31.599999999999994 5.100000000000023-58.5 27.300000000000068-81.5-21.399999999999977 1.6999999999999886-39.700000000000045 10.099999999999994-55.89999999999998 23.19999999999999z m-37.10000000000002-44.099999999999966c1.1999999999999318 0.4000000000000057 2.1000000000000227 1.5 2.3999999999999773 2.700000000000003l2.7999999999999545 12.700000000000003c0.7000000000000455 3.0999999999999943 4.7000000000000455 4.099999999999994 6.7000000000000455 1.6999999999999886l8.299999999999955-10c0.8000000000000682-1 2.1000000000000227-1.5 3.300000000000068-1.3999999999999915l12.899999999999977 1.2000000000000028c3.2000000000000455 0.29999999999999716 5.2999999999999545-3.200000000000003 3.7000000000000455-5.900000000000006l-6.800000000000068-10.900000000000006c-0.6999999999999318-1-0.7999999999999545-2.3999999999999915-0.2999999999999545-3.5999999999999943l5.199999999999932-11.900000000000006c1.3000000000000682-3-1.3999999999999773-6-4.5-5.299999999999997l-12.599999999999909 3.1000000000000085c-1.2000000000000455 0.29999999999999716-2.5 0-3.5-0.9000000000000057l-9.700000000000045-8.600000000000001c-2.3999999999999773-2.1000000000000014-6.2000000000000455-0.5-6.399999999999977 2.6000000000000014l-0.8999999999999773 13c-0.10000000000002274 1.2999999999999972-0.8000000000000682 2.4000000000000057-1.900000000000091 3.0999999999999943l-11.199999999999932 6.700000000000003c-2.800000000000068 1.7000000000000028-2.3999999999999773 5.799999999999997 0.5 6.900000000000006l12 4.799999999999997z m213.60000000000002 123.5l12 4.800000000000011c1.1999999999999318 0.39999999999997726 2.099999999999909 1.5 2.3999999999999773 2.6999999999999886l2.7999999999999545 12.599999999999994c0.7000000000000455 3.0999999999999943 4.7000000000000455 4.099999999999994 6.7000000000000455 1.700000000000017l8.299999999999955-10c0.8000000000000682-1 2.1000000000000227-1.5 3.300000000000068-1.4000000000000057l13 1.299999999999983c3.199999999999932 0.30000000000001137 5.2999999999999545-3.1999999999999886 3.699999999999932-5.899999999999977l-6.899999999999977-10.900000000000006c-0.7000000000000455-1-0.7999999999999545-2.4000000000000057-0.2999999999999545-3.5999999999999943l5.199999999999932-11.900000000000006c1.3000000000000682-3-1.3999999999999773-6-4.5-5.300000000000011l-12.600000000000023 3.0999999999999943c-1.1999999999999318 0.30000000000001137-2.5 0-3.5-0.8999999999999773l-9.699999999999932-8.600000000000023c-2.3999999999999773-2.0999999999999943-6.2000000000000455-0.5-6.399999999999977 2.6000000000000227l-0.900000000000091 12.899999999999977c-0.09999999999990905 1.3000000000000114-0.7999999999999545 2.4000000000000057-1.8999999999999773 3.1000000000000227l-11.100000000000023 6.599999999999994c-2.8999999999999773 1.9000000000000057-2.599999999999909 5.900000000000006 0.40000000000009095 7.099999999999994z m-92.20000000000005-26.900000000000006c0.7999999999999545 0.30000000000001137 1.3999999999999773 1 1.6000000000000227 1.8000000000000114l1.8999999999999773 8.400000000000006c0.39999999999997726 2.0999999999999943 3.1000000000000227 2.6999999999999886 4.5 1l5.5-6.600000000000023c0.5-0.5999999999999943 1.3999999999999773-1 2.2000000000000455-0.8999999999999773l8.599999999999909 0.799999999999983c2.1000000000000227 0.20000000000001705 3.6000000000000227-2.0999999999999943 2.400000000000091-3.9000000000000057l-4.5-7.299999999999983c-0.40000000000009095-0.700000000000017-0.5-1.5999999999999943-0.20000000000004547-2.4000000000000057l3.3999999999999773-7.900000000000006c0.8999999999999773-1.9000000000000057-1-4-3-3.5l-8.299999999999955 2.0999999999999943c-0.8000000000000682 0.20000000000001705-1.7000000000000455 0-2.3999999999999773-0.5l-6.5-5.699999999999989c-1.6000000000000227-1.4000000000000057-4.100000000000023-0.30000000000001137-4.300000000000068 1.6999999999999886l-0.6000000000000227 8.600000000000023c-0.09999999999990905 0.8999999999999773-0.5 1.5999999999999943-1.1999999999999318 2l-7.399999999999977 4.399999999999977c-1.8000000000000682 1-1.7000000000000455 3.8000000000000114 0.2999999999999545 4.600000000000023l8 3.299999999999983z m82.20000000000005-27.400000000000006c0.5 0.20000000000001705 1 0.700000000000017 1 1.200000000000017l1.2999999999999545 5.699999999999989c0.2999999999999545 1.4000000000000057 2.1000000000000227 1.8000000000000114 3.1000000000000227 0.700000000000017l3.7999999999999545-4.5c0.3000000000000682-0.4000000000000057 1-0.700000000000017 1.5-0.6000000000000227l5.800000000000068 0.5c1.3999999999999773 0.20000000000001705 2.3999999999999773-1.3999999999999773 1.6999999999999318-2.5999999999999943l-3.1000000000000227-4.900000000000006c-0.2999999999999545-0.5-0.39999999999997726-1-0.09999999999990905-1.6999999999999886l2.2999999999999545-5.300000000000011c0.6000000000000227-1.299999999999983-0.6000000000000227-2.6999999999999886-2-2.3999999999999773l-5.7000000000000455 1.3999999999999773c-0.5 0.20000000000001705-1.099999999999909 0-1.599999999999909-0.29999999999998295l-4.400000000000091-3.8000000000000114c-1-1-2.7999999999999545-0.29999999999998295-2.8999999999999773 1.200000000000017l-0.39999999999997726 5.899999999999977c0 0.6000000000000227-0.2999999999999545 1-0.8999999999999773 1.4000000000000057l-5 3c-1.2000000000000455 0.700000000000017-1.1000000000000227 2.5999999999999943 0.2999999999999545 3.0999999999999943l5.300000000000068 2z m-221-4.099999999999994c0.39999999999997726 0.20000000000001705 0.7999999999999545 0.5999999999999943 0.8999999999999773 1l1 4.900000000000006c0.2999999999999545 1.1999999999999886 1.7999999999999545 1.5999999999999943 2.6000000000000227 0.5999999999999943l3.099999999999909-3.799999999999983c0.3000000000000682-0.30000000000001137 0.8000000000000682-0.6000000000000227 1.3000000000000682-0.5l5 0.39999999999997726c1.1999999999999318 0.10000000000002274 2.1000000000000227-1.1999999999999886 1.3999999999999773-2.299999999999983l-2.6000000000000227-4.200000000000017c-0.2999999999999545-0.39999999999997726-0.2999999999999545-1-0.10000000000002274-1.3999999999999773l2-4.5c0.5-1.1000000000000227-0.5-2.4000000000000057-1.6999999999999318-2l-4.800000000000068 1.1999999999999886c-0.39999999999997726 0.09999999999999432-1 0-1.2999999999999545-0.30000000000001137l-3.7999999999999545-3.299999999999983c-1-0.8000000000000114-2.400000000000091-0.20000000000001705-2.400000000000091 1l-0.2999999999999545 5c0 0.5-0.2999999999999545 1-0.7000000000000455 1.1999999999999886l-4.2999999999999545 2.5c-1 0.5999999999999943-1 2.200000000000017 0.19999999999998863 2.5999999999999943l4.500000000000057 1.9000000000000057z m-192.90000000000003 616.3c0 24.100000000000023-19.5 43.60000000000002-43.60000000000002 43.60000000000002s-43.599999999999994-19.5-43.599999999999994-43.60000000000002 19.5-43.60000000000002 43.599999999999994-43.60000000000002 43.60000000000002 19.5 43.60000000000002 43.60000000000002z m197.99999999999994 6.7000000000000455c0 20.299999999999955-16.399999999999977 36.69999999999993-36.69999999999993 36.69999999999993s-36.700000000000045-16.399999999999977-36.700000000000045-36.69999999999993c0-20.300000000000068 16.400000000000034-36.700000000000045 36.700000000000045-36.700000000000045s36.69999999999993 16.399999999999977 36.69999999999993 36.700000000000045z m-100.89999999999998 95.89999999999998c0 15.5-12.5 28-28 28s-28-12.5-28-28 12.5-28 28-28 28 12.600000000000023 28 28z m87.20000000000005 31.799999999999955c0 11.700000000000045-9.400000000000034 21.200000000000045-21.200000000000045 21.200000000000045-11.699999999999989 0-21.19999999999999-9.399999999999977-21.19999999999999-21.200000000000045 0-11.699999999999932 9.400000000000034-21.199999999999932 21.19999999999999-21.199999999999932 11.800000000000011 0 21.200000000000045 9.5 21.200000000000045 21.199999999999932z m-106.60000000000002-117.29999999999995c0 7.7000000000000455-6.300000000000011 14-14 14s-14-6.2999999999999545-14-14 6.300000000000011-14 14-14 14 6.2999999999999545 14 14z"/>
</svg>
