<svg xmlns="http://www.w3.org/2000/svg" viewBox="0 0 1000 1000" width="1000" height="1000">
<path d="M820.8 426.9c-45.299999999999955-44.099999999999966-99.19999999999993-56.599999999999966-159.29999999999995-34.599999999999966-11.299999999999955 4.099999999999966-15.700000000000045 4.5-20.899999999999977-8.5-39.200000000000045-97.5-130.40000000000003-151.3-233.90000000000003-139.20000000000002-94.80000000000001 11-169.29999999999998 85.79999999999998-186.79999999999998 187.20000000000002-1 6.099999999999966-0.20000000000001705 13.699999999999989-7.5 16.899999999999977-16.80000000000001 7.100000000000023-30 17.19999999999999-40.900000000000006 29.30000000000001l-0.09999999999999432-0.19999999999998863s-79.4 75.19999999999999-1.700000000000017 161.90000000000003c2.200000000000017 2.5 4.300000000000011 5.099999999999909 6.600000000000023 7.2999999999999545 0.29999999999998295 0.2999999999999545 0.5999999999999943 0.7999999999999545 1 1.1000000000000227l0.09999999999999432-0.20000000000004547c18.900000000000006 18.100000000000023 43 29 72.6 31.700000000000045 30.30000000000001 2.7999999999999545 61 0.1999999999999318 91.5 1l262.70000000000005-0.3000000000000682c40 0 76.09999999999991 1 112.19999999999993-0.2999999999999545 63.700000000000045-2.2000000000000455 109.60000000000002-32.89999999999998 135.39999999999998-91.29999999999995 24.200000000000045-55.10000000000002 12.300000000000068-119.80000000000007-31-161.80000000000007z m-248.19999999999993-303.7c-25.899999999999977 21.100000000000023-40.700000000000045 48.5-43.10000000000002 81.9-1 12.800000000000011 0.20000000000004547 25.200000000000017 3 36.80000000000001 41.5 17.400000000000006 76.60000000000002 47.599999999999994 101.29999999999995 88.4 4.2000000000000455 0.39999999999997726 8.5 0.5999999999999659 12.800000000000068 0.5999999999999659 69.89999999999998-0.5 114-59.5 114.69999999999993-107.39999999999998-17 20.400000000000006-37.39999999999998 32-62.59999999999991 34.30000000000001-25.40000000000009 2.3000000000000114-47.90000000000009-5-67.20000000000005-21.600000000000023-16.299999999999955-14-26.200000000000045-31.799999999999983-29.399999999999977-52.89999999999998-5-32.5 5.199999999999932-60.30000000000001 28.100000000000023-83.9-22 1.5999999999999943-41 10.199999999999989-57.60000000000002 23.799999999999997z m-37.89999999999998-21.599999999999994c1.1999999999999318 0.5 2.099999999999909 1.6000000000000085 2.3999999999999773 2.8000000000000114l2.8999999999999773 13c0.7000000000000455 3.1999999999999886 4.7999999999999545 4.199999999999989 6.899999999999977 1.6999999999999886l8.600000000000023-10.199999999999989c0.8999999999999773-1 2.1000000000000227-1.6000000000000085 3.3999999999999773-1.4000000000000057l13.300000000000068 1.2000000000000028c3.2999999999999545 0.29999999999999716 5.5-3.299999999999997 3.7999999999999545-6.1000000000000085l-7.100000000000023-11.299999999999997c-0.6999999999999318-1.0999999999999943-0.7999999999999545-2.5-0.2999999999999545-3.700000000000003l5.199999999999932-12.199999999999989c1.3000000000000682-3.1000000000000085-1.3999999999999773-6.200000000000003-4.599999999999909-5.400000000000006l-12.900000000000091 3.200000000000003c-1.2999999999999545 0.29999999999999716-2.599999999999909 0-3.599999999999909-0.9000000000000057l-10-8.799999999999997c-2.400000000000091-2.200000000000003-6.400000000000091-0.6000000000000014-6.600000000000023 2.700000000000003l-0.8999999999999773 13.299999999999997c-0.10000000000002274 1.2999999999999972-0.8000000000000682 2.4000000000000057-1.900000000000091 3.0999999999999943l-11.5 6.800000000000011c-2.8999999999999773 1.6999999999999886-2.5 5.8999999999999915 0.5 7.199999999999989l12.400000000000091 5z m219.5 103.30000000000001l12.299999999999955 5c1.2000000000000455 0.5 2.1000000000000227 1.5999999999999943 2.3999999999999773 2.799999999999983l2.8999999999999773 13c0.7000000000000455 3.200000000000017 4.800000000000068 4.200000000000017 6.900000000000091 1.700000000000017l8.599999999999909-10.200000000000017c0.900000000000091-1 2.1000000000000227-1.5999999999999943 3.400000000000091-1.3999999999999773l13.299999999999955 1.1999999999999886c3.2999999999999545 0.30000000000001137 5.5-3.3000000000000114 3.7999999999999545-6.099999999999994l-7.099999999999909-11.300000000000011c-0.7000000000000455-1.0999999999999943-0.8000000000000682-2.5-0.3000000000000682-3.6999999999999886l5.2000000000000455-12.200000000000017c1.2999999999999545-3.0999999999999943-1.3999999999999773-6.199999999999989-4.600000000000023-5.399999999999977l-12.899999999999977 3.1999999999999886c-1.3000000000000682 0.30000000000001137-2.6000000000000227 0-3.6000000000000227-0.9000000000000057l-10-8.799999999999983c-2.3999999999999773-2.200000000000017-6.399999999999977-0.6000000000000227-6.600000000000023 2.6999999999999886l-0.8999999999999773 13.300000000000011c-0.10000000000002274 1.299999999999983-0.7999999999999545 2.3999999999999773-1.8999999999999773 3.0999999999999943l-11.5 6.799999999999983c-2.7000000000000455 1.8000000000000114-2.3999999999999773 6 0.6000000000000227 7.200000000000017z m-93.90000000000009-51.20000000000002l-0.599999999999909 8.800000000000011c-0.10000000000002274 0.9000000000000057-0.5 1.6999999999999886-1.3000000000000682 2.0999999999999943l-7.600000000000023 4.5c-1.8999999999999773 1.0999999999999943-1.6999999999999318 3.9000000000000057 0.3000000000000682 4.700000000000017l8.199999999999932 3.299999999999983c0.8000000000000682 0.30000000000001137 1.400000000000091 1 1.6000000000000227 1.8000000000000114l1.8999999999999773 8.699999999999989c0.40000000000009095 2.0999999999999943 3.2000000000000455 2.8000000000000114 4.600000000000023 1.0999999999999943l5.7000000000000455-6.799999999999983c0.5-0.700000000000017 1.3999999999999773-1 2.2999999999999545-1l8.800000000000068 0.799999999999983c2.199999999999932 0.20000000000001705 3.699999999999932-2.1999999999999886 2.3999999999999773-4l-4.7000000000000455-7.5c-0.39999999999997726-0.6999999999999886-0.5-1.6999999999999886-0.1999999999999318-2.3999999999999773l3.5-8.100000000000023c0.8999999999999773-2-1-4.099999999999994-3.1000000000000227-3.5999999999999943l-8.600000000000023 2.200000000000017c-0.8999999999999773 0.19999999999998863-1.7000000000000455 0-2.3999999999999773-0.6000000000000227l-6.600000000000023-5.899999999999977c-1.3999999999999773-1.4000000000000057-4-0.30000000000001137-4.2000000000000455 1.8999999999999773z m83.70000000000005-4.699999999999989c0.5 0.30000000000001137 1 0.6999999999999886 1 1.3000000000000114l1.2999999999999545 5.899999999999977c0.3000000000000682 1.5 2.2000000000000455 1.9000000000000057 3.1000000000000227 0.8000000000000114l3.800000000000068-4.599999999999994c0.2999999999999545-0.4000000000000057 1-0.700000000000017 1.599999999999909-0.5999999999999943l5.900000000000091 0.5c1.5 0.19999999999998863 2.3999999999999773-1.5 1.6999999999999318-2.700000000000017l-3.1000000000000227-5.099999999999994c-0.2999999999999545-0.5-0.2999999999999545-1.0999999999999943-0.09999999999990905-1.6999999999999886l2.3999999999999773-5.5c0.6000000000000227-1.4000000000000057-0.6000000000000227-2.8000000000000114-2.1000000000000227-2.4000000000000057l-5.899999999999977 1.5c-0.6000000000000227 0.19999999999998863-1.1000000000000227 0-1.7000000000000455-0.30000000000001137l-4.5-3.9000000000000057c-1.1000000000000227-1-2.8999999999999773-0.29999999999998295-3 1.200000000000017l-0.39999999999997726 6c0 0.5999999999999943-0.39999999999997726 1.0999999999999943-0.8999999999999773 1.4000000000000057l-5.2000000000000455 3.0999999999999943c-1.2999999999999545 0.799999999999983-1.1000000000000227 2.5999999999999943 0.3000000000000682 3.1999999999999886l5.7999999999999545 1.9000000000000057z m-104.5-60.3c0.7000000000000455 0.29999999999999716 1.2000000000000455 0.8999999999999915 1.2999999999999545 1.5999999999999943l1.7000000000000455 7.299999999999997c0.39999999999997726 1.8000000000000114 2.7000000000000455 2.4000000000000057 3.7999999999999545 1l4.800000000000068-5.699999999999989c0.39999999999997726-0.5 1.1999999999999318-0.9000000000000057 1.8999999999999773-0.8000000000000114l7.399999999999977 0.7000000000000028c1.8000000000000682 0.20000000000000284 3.1000000000000227-1.7999999999999972 2.1000000000000227-3.3999999999999915l-3.8999999999999773-6.300000000000011c-0.39999999999997726-0.5999999999999943-0.39999999999997726-1.3999999999999915-0.20000000000004547-2.0999999999999943l3-6.799999999999997c0.7000000000000455-1.7000000000000028-0.7999999999999545-3.5-2.6000000000000227-3.1000000000000085l-7.2999999999999545 1.8000000000000114c-0.7000000000000455 0.19999999999998863-1.5 0-2-0.5l-5.600000000000023-4.900000000000006c-1.3999999999999773-1.2000000000000028-3.6000000000000227-0.29999999999999716-3.699999999999932 1.5l-0.5 7.400000000000006c-0.10000000000002274 0.6999999999999886-0.40000000000009095 1.3999999999999915-1 1.6999999999999886l-6.400000000000091 3.8000000000000114c-1.599999999999909 1-1.3999999999999773 3.299999999999997 0.3000000000000682 4l6.899999999999977 2.799999999999997z m-123.10000000000002 55.999999999999986c0.39999999999997726 0.20000000000001705 0.8000000000000682 0.6000000000000227 1 1l1.1000000000000227 5c0.2999999999999545 1.200000000000017 1.7999999999999545 1.700000000000017 2.7000000000000455 0.6000000000000227l3.2999999999999545-3.9000000000000057c0.39999999999997726-0.30000000000001137 0.7999999999999545-0.5999999999999943 1.2999999999999545-0.5l5.100000000000023 0.4000000000000057c1.2000000000000455 0.09999999999999432 2.1000000000000227-1.200000000000017 1.3999999999999773-2.4000000000000057l-2.699999999999932-4.400000000000006c-0.3000000000000682-0.4000000000000057-0.3000000000000682-1-0.10000000000002274-1.4000000000000057l2-4.699999999999989c0.5-1.0999999999999943-0.5-2.4000000000000057-1.7000000000000455-2.0999999999999943l-5 1.1999999999999886c-0.5 0.09999999999999432-1 0-1.3999999999999773-0.30000000000001137l-3.7999999999999545-3.3999999999999773c-1-0.9000000000000057-2.3999999999999773-0.30000000000001137-2.5 1l-0.39999999999997726 5.099999999999994c0 0.5-0.3000000000000682 1-0.8000000000000682 1.1999999999999886l-4.399999999999977 2.5999999999999943c-1 0.6000000000000227-1 2.3000000000000114 0.19999999999998863 2.700000000000017l4.699999999999989 2.299999999999983z m17.700000000000045 764c0 15.899999999999977-12.899999999999977 28.799999999999955-28.80000000000001 28.799999999999955s-28.80000000000001-12.899999999999977-28.80000000000001-28.799999999999955 12.899999999999977-28.800000000000068 28.80000000000001-28.800000000000068 28.80000000000001 12.899999999999977 28.80000000000001 28.800000000000068z m-19.800000000000068-92.90000000000009c0 8-6.499999999999943 14.400000000000091-14.399999999999977 14.400000000000091s-14.399999999999977-6.5-14.399999999999977-14.400000000000091 6.5-14.399999999999977 14.399999999999977-14.399999999999977 14.399999999999977 6.399999999999977 14.399999999999977 14.399999999999977z m227.4000000000001-28.899999999999977c0 15.899999999999977-12.900000000000091 28.800000000000068-28.800000000000068 28.800000000000068s-28.799999999999955-12.900000000000091-28.799999999999955-28.800000000000068 12.899999999999977-28.799999999999955 28.799999999999955-28.799999999999955 28.800000000000068 13 28.800000000000068 28.799999999999955z m-162.30000000000007-33.39999999999998v5.899999999999977l-5.5-5.5-3.7999999999999545 3.800000000000068 9.299999999999955 9.299999999999955v10c0.8999999999999773-0.20000000000004547 1.7000000000000455-0.2999999999999545 2.7000000000000455-0.2999999999999545 1 0 1.7999999999999545 0.09999999999990905 2.699999999999932 0.2999999999999545v-10.100000000000023l9.300000000000068-9.299999999999955-3.800000000000068-3.800000000000068-5.5 5.5v-5.899999999999977h-5.399999999999977v0.10000000000002274z m5.399999999999977 48.5c-0.8999999999999773 0.20000000000004547-1.6999999999999318 0.2999999999999545-2.699999999999932 0.2999999999999545-1 0-1.8000000000000682-0.09999999999990905-2.7000000000000455-0.2999999999999545v10.100000000000023l-9.299999999999955 9.299999999999955 3.7999999999999545 3.800000000000068 5.5-5.5v5.899999999999977h5.300000000000068v-5.899999999999977l5.5 5.5 3.7999999999999545-3.800000000000068-9.299999999999955-9.299999999999955 0.09999999999990905-10.100000000000023z m-15.199999999999932-9.899999999999977c-0.20000000000004547-0.8999999999999773-0.3000000000000682-1.7000000000000455-0.3000000000000682-2.7000000000000455 0-1 0.10000000000002274-1.7999999999999545 0.3000000000000682-2.699999999999932h-10.100000000000023l-9.299999999999955-9.300000000000068-3.800000000000068 3.800000000000068 5.5 5.5h-5.899999999999977v5.2999999999999545h5.899999999999977l-5.5 5.5 3.800000000000068 3.7999999999999545 9.299999999999955-9.299999999999955 10.100000000000023 0.10000000000002274z m-18.5-16.5l13.100000000000023-0.10000000000002274 7.199999999999932 7.100000000000023c1-1.5 2.300000000000068-2.800000000000068 3.800000000000068-3.800000000000068l-7.2000000000000455-7.099999999999909-0.10000000000002274-13.100000000000023h-5.2999999999999545v7.7999999999999545l-4.2000000000000455-4.199999999999932-3.7999999999999545 3.7999999999999545 4.199999999999932 4.2000000000000455h-7.7999999999999545l0.10000000000002274 5.399999999999977z m20.299999999999955 20.699999999999932l-7.199999999999932 7.100000000000023-13.100000000000023-0.10000000000002274v5.300000000000068h7.7999999999999545l-4.199999999999932 4.199999999999932 3.7999999999999545 3.800000000000068 4.2000000000000455-4.2000000000000455v7.800000000000068h5.2999999999999545l0.10000000000002274-13.100000000000023 7.199999999999932-7.100000000000023c-1.599999999999909-0.8999999999999773-3-2.2000000000000455-3.8999999999999773-3.7000000000000455z m42.89999999999998-18.799999999999955l-9.299999999999955 9.299999999999955h-10.100000000000023c0.20000000000004547 0.900000000000091 0.3000000000000682 1.7000000000000455 0.3000000000000682 2.7000000000000455 0 0.8999999999999773-0.10000000000002274 1.7999999999999545-0.3000000000000682 2.7000000000000455h10.100000000000023l9.299999999999955 9.299999999999955 3.800000000000068-3.7999999999999545-5.5-5.5h5.899999999999977v-5.300000000000068h-5.899999999999977l5.5-5.5-3.800000000000068-3.8999999999999773z m-17.699999999999932-19l-0.10000000000002274 13.100000000000023-7.2000000000000455 7.100000000000023c1.5 1 2.800000000000068 2.2999999999999545 3.800000000000068 3.7999999999999545l7.199999999999932-7.100000000000023 13.100000000000023 0.10000000000002274v-5.2999999999999545h-7.7999999999999545l4.199999999999932-4.2000000000000455-3.7999999999999545-3.7999999999999545-4.2000000000000455 4.199999999999932v-7.7999999999999545l-5.199999999999932-0.10000000000002274z m5.2999999999999545 54.10000000000002l4.2000000000000455 4.199999999999932 3.7999999999999545-3.7999999999999545-4.199999999999932-4.2000000000000455h7.7999999999999545v-5.2999999999999545l-13.100000000000023 0.10000000000002274-7.199999999999932-7.100000000000023c-1 1.5-2.300000000000068 2.7999999999999545-3.800000000000068 3.7999999999999545l7.2000000000000455 7.100000000000023 0.10000000000002274 13.100000000000023h5.2999999999999545l-0.10000000000002274-7.899999999999977z m-19.799999999999955-32.80000000000007c-5.300000000000068 0-9.700000000000045 4.400000000000091-9.700000000000045 9.700000000000045 0 5.2999999999999545 4.399999999999977 9.700000000000045 9.700000000000045 9.700000000000045 5.2999999999999545 0 9.699999999999932-4.400000000000091 9.699999999999932-9.700000000000045 0-5.399999999999977-4.2999999999999545-9.700000000000045-9.699999999999932-9.700000000000045z m-219.70000000000005-80v13.300000000000068l-12.399999999999977-12.300000000000068-8.5 8.5 20.899999999999977 20.90000000000009v22.699999999999932c1.900000000000034-0.39999999999997726 3.900000000000034-0.6999999999999318 6-0.6999999999999318s4.100000000000023 0.2999999999999545 6 0.6999999999999318v-22.699999999999932l20.900000000000034-20.90000000000009-8.5-8.5-12.300000000000011 12.300000000000068v-13.300000000000068h-12.100000000000023z m11.900000000000034 109.10000000000002c-1.900000000000034 0.39999999999997726-3.900000000000034 0.7000000000000455-6 0.7000000000000455s-4.100000000000023-0.3000000000000682-6-0.7000000000000455v22.700000000000045l-20.900000000000034 20.899999999999977 8.5 8.5 12.300000000000011-12.399999999999977v13.299999999999955h12.100000000000023v-13.299999999999955l12.300000000000011 12.399999999999977 8.5-8.5-20.900000000000034-20.899999999999977 0.10000000000002274-22.700000000000045z m-33.900000000000034-22.100000000000023c-0.39999999999997726-1.8999999999999773-0.6999999999999886-3.8999999999999773-0.6999999999999886-6s0.30000000000001137-4.099999999999909 0.6999999999999886-6h-22.69999999999999l-20.899999999999977-20.899999999999977-8.5 8.5 12.300000000000011 12.399999999999977h-13.300000000000011v12.100000000000023h13.300000000000011l-12.300000000000011 12.399999999999977 8.5 8.5 20.899999999999977-20.899999999999977 22.69999999999999-0.10000000000002274z m-41.799999999999955-37.299999999999955l29.599999999999966-0.20000000000004547 16.100000000000023 16c2.1999999999999886-3.3999999999999773 5.099999999999966-6.2999999999999545 8.5-8.599999999999909l-16.100000000000023-15.900000000000091-0.19999999999998863-29.59999999999991-12.100000000000023 0.09999999999990905 0.10000000000002274 17.5-9.399999999999977-9.399999999999977-8.5 8.600000000000023 9.399999999999977 9.399999999999977-17.5 0.10000000000002274 0.10000000000002274 12z m45.599999999999966 46.700000000000045l-16.099999999999966 16-29.600000000000023-0.20000000000004547-0.10000000000002274 12.100000000000023 17.5 0.10000000000002274-9.399999999999977 9.399999999999977 8.5 8.600000000000023 9.399999999999977-9.400000000000091-0.0999999999999659 17.5 12.099999999999966 0.10000000000002274 0.20000000000004547-29.600000000000023 16.099999999999966-16c-3.3999999999999773-2.199999999999932-6.300000000000011-5.199999999999932-8.5-8.599999999999909z m104.90000000000003-33.80000000000007l-8.5-8.5-20.900000000000034 20.899999999999977h-22.69999999999999c0.39999999999997726 1.900000000000091 0.6999999999999886 3.900000000000091 0.6999999999999886 6 0 2-0.30000000000001137 4.100000000000023-0.6999999999999886 6h22.69999999999999l20.900000000000034 20.90000000000009 8.5-8.5-12.300000000000011-12.400000000000091h13.199999999999989v-12.099999999999909h-13.300000000000011l12.400000000000034-12.300000000000068z m-48.200000000000045-51l-0.19999999999998863 29.600000000000023-16.099999999999966 15.899999999999977c3.3999999999999773 2.2000000000000455 6.2999999999999545 5.2000000000000455 8.5 8.600000000000023l16.099999999999966-16 29.600000000000023 0.20000000000004547 0.0999999999999659-12.100000000000023-17.5-0.10000000000002274 9.400000000000034-9.399999999999977-8.5-8.600000000000023-9.400000000000034 9.399999999999977 0.10000000000002274-17.5h-12.100000000000023z m37.900000000000034 100.60000000000002l-29.600000000000023 0.20000000000004547-16.099999999999966-16c-2.2000000000000455 3.3999999999999773-5.100000000000023 6.2999999999999545-8.5 8.599999999999909l16.099999999999966 16 0.19999999999998863 29.600000000000023 12.100000000000023-0.10000000000002274-0.10000000000002274-17.5 9.400000000000034 9.400000000000091 8.5-8.600000000000023-9.400000000000034-9.399999999999977 17.5-0.10000000000002274-0.0999999999999659-12.100000000000023z m-70.40000000000003-53c-12.099999999999966 0-21.799999999999955 9.799999999999955-21.799999999999955 21.899999999999977 0 12.100000000000023 9.799999999999955 21.800000000000068 21.799999999999955 21.800000000000068 12.100000000000023 0 21.900000000000034-9.800000000000068 21.900000000000034-21.800000000000068-0.10000000000002274-12.100000000000023-9.900000000000034-21.899999999999977-21.900000000000034-21.899999999999977z m243.89999999999998 88.70000000000005v2.3999999999999773l-2.199999999999932-2.2000000000000455-1.5 1.5 3.699999999999932 3.7000000000000455v4c0.40000000000009095-0.10000000000002274 0.7000000000000455-0.10000000000002274 1-0.10000000000002274 0.3000000000000682 0 0.7000000000000455 0 1 0.10000000000002274v-4l3.7000000000000455-3.7000000000000455-1.5-1.5-2.2000000000000455 2.2000000000000455v-2.3999999999999773h-2z m2.1000000000000227 19.299999999999955c-0.2999999999999545 0.10000000000002274-0.6999999999999318 0.10000000000002274-1 0.10000000000002274-0.39999999999997726 0-0.6999999999999318 0-1-0.10000000000002274v4l-3.699999999999932 3.7000000000000455 1.5 1.5 2.199999999999932-2.2000000000000455v2.3999999999999773h2.1000000000000227v-2.3999999999999773l2.2000000000000455 2.2000000000000455 1.5-1.5-3.7000000000000455-3.7000000000000455v-4z m-5.899999999999977-3.8999999999999773c-0.10000000000002274-0.3000000000000682-0.10000000000002274-0.7000000000000455-0.10000000000002274-1 0-0.39999999999997726 0-0.7000000000000455 0.10000000000002274-1h-4l-3.7000000000000455-3.7000000000000455-1.5 1.5 2.2000000000000455 2.2000000000000455h-2.3999999999999773v2.1000000000000227h2.3999999999999773l-2.2000000000000455 2.199999999999932 1.5 1.5 3.7000000000000455-3.699999999999932h4z m-7.5-6.600000000000023h5.2000000000000455l2.8999999999999773 2.7999999999999545c0.2999999999999545-0.599999999999909 0.8999999999999773-1.099999999999909 1.5-1.5l-2.8999999999999773-2.7999999999999545v-5.2000000000000455h-2.1000000000000227v3.1000000000000227l-1.7000000000000455-1.6999999999999318-1.5 1.5 1.7000000000000455 1.6999999999999318h-3.1000000000000227v2.1000000000000227z m8.100000000000023 8.200000000000045l-2.8999999999999773 2.7999999999999545h-5.2000000000000455v2.1000000000000227h3.1000000000000227l-1.7000000000000455 1.6999999999999318 1.5 1.5 1.7000000000000455-1.6999999999999318v3.1000000000000227h2.1000000000000227v-5.2000000000000455l2.8999999999999773-2.7999999999999545c-0.5-0.40000000000009095-1.1000000000000227-0.900000000000091-1.5-1.5z m18.5-6l-1.5-1.5-3.7000000000000455 3.699999999999932h-4c0.10000000000002274 0.3000000000000682 0.10000000000002274 0.7000000000000455 0.10000000000002274 1 0 0.39999999999997726 0 0.7000000000000455-0.10000000000002274 1h4l3.7000000000000455 3.7000000000000455 1.5-1.5-2.2000000000000455-2.2000000000000455h2.3999999999999773v-2.1000000000000227h-2.3999999999999773l2.2000000000000455-2.099999999999909z m-8.399999999999977-9v5.199999999999932l-2.900000000000091 2.800000000000068c0.6000000000000227 0.2999999999999545 1.1000000000000227 0.8999999999999773 1.5 1.5l2.900000000000091-2.800000000000068h5.199999999999932v-2.1000000000000227h-3.1000000000000227l1.7000000000000455-1.6999999999999318-1.5-1.5-1.7000000000000455 1.6999999999999318v-3.099999999999909h-2.099999999999909z m6.599999999999909 17.799999999999955h-5.199999999999932l-2.8999999999999773-2.7999999999999545c-0.40000000000009095 0.599999999999909-0.900000000000091 1.099999999999909-1.5 1.5l2.8999999999999773 2.7999999999999545v5.2000000000000455h2.1000000000000227v-3.1000000000000227l1.6999999999999318 1.6999999999999318 1.5-1.5-1.6999999999999318-1.6999999999999318h3.099999999999909v-2.1000000000000227z m-8.599999999999909-5.5c0 2.1000000000000227-1.7000000000000455 3.7999999999999545-3.800000000000068 3.7999999999999545s-3.7999999999999545-1.6999999999999318-3.7999999999999545-3.7999999999999545c0-2.1000000000000227 1.6999999999999318-3.7999999999999545 3.7999999999999545-3.7999999999999545s3.800000000000068 1.6999999999999318 3.800000000000068 3.7999999999999545z"/>
</svg>
