<svg xmlns="http://www.w3.org/2000/svg" viewBox="0 0 1000 1000" width="1000" height="1000">
<path d="M533.4 778.7c-67.79999999999995-17.90000000000009-119.19999999999999-57.80000000000007-153.59999999999997-119-28.900000000000034-51.5-37.60000000000002-106.90000000000009-26.19999999999999-164.50000000000006 17.599999999999966-88.69999999999999 70-150.89999999999998 151.5-190.59999999999997-58.5-16.200000000000045-115.60000000000002-11.800000000000011-171.3 7.599999999999966-86.70000000000002 30.30000000000001-150.70000000000002 87.10000000000002-188.3 171.2-77.5 173.10000000000002 7.5 372.4 184.60000000000002 435.20000000000005 181.29999999999995 64.29999999999995 350.5-46.80000000000007 397.4-169.89999999999998-63 37-126.70000000000005 47.799999999999955-194.10000000000002 30z m-255.7-619.5c2.6999999999999886 2.499999999999943 4 5.999999999999943 3.6000000000000227 9.499999999999943l-4.600000000000023 36.400000000000006c-1.099999999999966 9 8.600000000000023 15.5 16.400000000000034 10.900000000000006l31.69999999999999-18.5c3.1999999999999886-1.8000000000000114 6.899999999999977-2 10.199999999999989-0.4000000000000057l33.19999999999999 15.700000000000017c8.199999999999989 3.8999999999999773 17.30000000000001-3.3000000000000114 15.400000000000034-12.300000000000011l-7.7000000000000455-35.900000000000006c-0.7999999999999545-3.5 0.30000000000001137-7.199999999999989 2.7000000000000455-9.799999999999983l25.19999999999999-26.600000000000023c6.199999999999989-6.699999999999989 2.1999999999999886-17.499999999999986-6.900000000000034-18.499999999999986l-36.5-3.799999999999997c-3.599999999999966-0.4000000000000057-6.699999999999989-2.5-8.5-5.700000000000003l-17.69999999999999-32.10000000000001c-4.399999999999977-7.999999999999993-16-7.3999999999999915-19.69999999999999 0.9000000000000057l-14.800000000000011 33.599999999999994c-1.5 3.3000000000000114-4.5 5.700000000000003-8 6.400000000000006l-36.099999999999994 6.799999999999997c-8.900000000000006 1.7000000000000028-12.099999999999994 12.899999999999991-5.299999999999983 19.000000000000014l27.399999999999977 24.399999999999977z m602.4000000000001 528.4c6.199999999999818-6.7000000000000455 2.199999999999818-17.5-6.900000000000091-18.5l-36.5-3.800000000000068c-3.6000000000000227-0.39999999999997726-6.7000000000000455-2.5-8.5-5.699999999999932l-17.600000000000023-32.200000000000045c-4.399999999999977-8-16-7.399999999999977-19.700000000000045 0.8999999999999773l-14.699999999999932 33.700000000000045c-1.5 3.2999999999999545-4.5 5.7000000000000455-8 6.399999999999977l-36.10000000000002 6.800000000000068c-8.899999999999977 1.6999999999999318-12.100000000000023 12.899999999999977-5.300000000000068 19l27.300000000000068 24.5c2.699999999999932 2.5 4 6 3.6000000000000227 9.5l-4.600000000000023 36.39999999999998c-1.1000000000000227 9 8.600000000000023 15.5 16.399999999999977 10.899999999999977l31.700000000000045-18.5c3.199999999999932-1.7999999999999545 6.899999999999977-2 10.199999999999932-0.39999999999997726l33.200000000000045 15.699999999999932c8.199999999999932 3.900000000000091 17.299999999999955-3.2999999999999545 15.399999999999977-12.299999999999955l-7.7000000000000455-35.89999999999998c-0.7999999999999545-3.5 0.3000000000000682-7.2000000000000455 2.7000000000000455-9.800000000000068l25.100000000000023-26.699999999999932z m-390.8000000000001-170.39999999999998l18.099999999999966 16.299999999999955c1.8000000000000114 1.6000000000000227 2.7000000000000455 3.8999999999999773 2.400000000000034 6.399999999999977l-3.1000000000000227 24.200000000000045c-0.8000000000000114 6 5.699999999999989 10.199999999999932 10.900000000000034 7.2999999999999545l21.100000000000023-12.299999999999955c2.099999999999909-1.2000000000000455 4.599999999999909-1.3000000000000682 6.699999999999932-0.3000000000000682l22.100000000000023 10.400000000000091c5.399999999999977 2.5 11.5-2.2000000000000455 10.200000000000045-8.100000000000023l-5.2000000000000455-23.800000000000068c-0.5-2.3999999999999773 0.20000000000004547-4.7999999999999545 1.7999999999999545-6.599999999999909l16.700000000000045-17.800000000000068c4.100000000000023-4.399999999999977 1.3999999999999773-11.599999999999966-4.600000000000023-12.299999999999955l-24.199999999999932-2.5c-2.400000000000091-0.30000000000001137-4.5-1.7000000000000455-5.7000000000000455-3.8000000000000114l-11.700000000000045-21.400000000000034c-2.8999999999999773-5.2999999999999545-10.599999999999909-5-13 0.5l-9.799999999999955 22.600000000000023c-1 2.1999999999999886-3 3.8000000000000114-5.2999999999999545 4.199999999999989l-24.000000000000057 4.600000000000023c-5.800000000000011 1-7.800000000000011 8.400000000000034-3.3999999999999773 12.400000000000034z m263.40000000000003 22.899999999999977c1.1999999999999318 1.1000000000000227 1.7999999999999545 2.699999999999932 1.599999999999909 4.2999999999999545l-2.099999999999909 16.399999999999977c-0.5 4 3.8999999999999773 6.900000000000091 7.399999999999977 4.900000000000091l14.299999999999955-8.300000000000068c1.3999999999999773-0.7999999999999545 3.2000000000000455-0.8999999999999773 4.600000000000023-0.1999999999999318l15 7.099999999999909c3.7000000000000455 1.8000000000000682 7.7999999999999545-1.5 6.899999999999977-5.5l-3.5-16.199999999999932c-0.39999999999997726-1.6000000000000227 0.10000000000002274-3.2000000000000455 1.2000000000000455-4.5l11.299999999999955-12c2.800000000000068-3 1-7.899999999999977-3.1000000000000227-8.300000000000068l-16.5-1.6999999999999318c-1.599999999999909-0.20000000000004547-3.099999999999909-1.1000000000000227-3.8999999999999773-2.5l-8-14.5c-1.8999999999999773-3.6000000000000227-7.199999999999932-3.3000000000000114-8.799999999999955 0.39999999999997726l-6.7000000000000455 15.100000000000023c-0.6999999999999318 1.5-2 2.5-3.6000000000000227 2.8999999999999773l-16.199999999999932 3.1000000000000227c-4 0.7999999999999545-5.399999999999977 5.7999999999999545-2.3999999999999773 8.600000000000023l12.5 10.899999999999977z m-191.9000000000001-316.1c1.5 1.3000000000000114 2.300000000000068 3.3000000000000114 2 5.300000000000011l-2.599999999999909 20.399999999999977c-0.6000000000000227 5.100000000000023 4.7999999999999545 8.699999999999989 9.199999999999932 6.100000000000023l17.800000000000068-10.300000000000011c1.7999999999999545-1.0999999999999943 3.8999999999999773-1.0999999999999943 5.699999999999932-0.30000000000001137l18.600000000000023 8.800000000000011c4.600000000000023 2.1999999999999886 9.700000000000045-1.8000000000000114 8.700000000000045-6.800000000000011l-4.300000000000068-20c-0.39999999999997726-2 0.20000000000004547-4 1.6000000000000227-5.5l14.100000000000023-15c3.5-3.6999999999999886 1.1999999999999318-9.799999999999983-3.8999999999999773-10.299999999999983l-20.40000000000009-2.0999999999999943c-2-0.20000000000001705-3.7999999999999545-1.4000000000000057-4.699999999999932-3.200000000000017l-9.899999999999977-18c-2.5-4.5-8.900000000000091-4.199999999999989-11 0.4000000000000057l-8.300000000000068 18.80000000000001c-0.7999999999999545 1.799999999999983-2.5 3.1999999999999886-4.5 3.5999999999999943l-20.100000000000023 3.9000000000000057c-5 1-6.699999999999932 7.199999999999989-3 10.599999999999994l15 13.599999999999994z m-392.4 91.39999999999998c1.1000000000000227 1 1.6000000000000227 2.3000000000000114 1.400000000000034 3.7000000000000455l-1.8000000000000114 14c-0.4000000000000057 3.5 3.1999999999999886 6 6.300000000000011 4.199999999999989l12.199999999999989-7.100000000000023c1.1999999999999886-0.6999999999999886 2.5999999999999943-0.8000000000000114 3.9000000000000057-0.19999999999998863l12.799999999999983 6c3.200000000000017 1.5 6.700000000000017-1.3000000000000114 6-4.699999999999989l-3-13.699999999999989c-0.29999999999998295-1.3000000000000114 0.10000000000002274-2.8000000000000114 1.1000000000000227-3.8000000000000114l9.599999999999994-10.199999999999989c2.4000000000000057-2.5 0.9000000000000057-6.7000000000000455-2.5999999999999943-7.100000000000023l-14-1.3999999999999773c-1.4000000000000057-0.20000000000004547-2.6000000000000227-1-3.200000000000017-2.2000000000000455l-6.699999999999989-12.299999999999955c-1.700000000000017-3.1000000000000227-6.099999999999994-2.900000000000034-7.5 0.39999999999997726l-5.700000000000017 12.899999999999977c-0.5 1.3000000000000114-1.799999999999983 2.2000000000000455-3.0999999999999943 2.5l-13.799999999999983 2.6000000000000227c-3.4000000000000057 0.6000000000000227-4.600000000000023 5-2 7.300000000000011l10.099999999999994 9.099999999999966z"/>
</svg>
