<svg xmlns="http://www.w3.org/2000/svg" viewBox="0 0 1000 1000" width="1000" height="1000">
<path d="M813.6 445.6c-44.30000000000007-43-96.80000000000007-55.30000000000001-155.60000000000002-33.900000000000034-11 4-15.399999999999977 4.400000000000034-20.5-8.199999999999989-38.200000000000045-95.19999999999999-127.30000000000001-147.8-228.39999999999998-136-92.5 10.800000000000011-165.3 83.80000000000001-182.40000000000003 182.8-1 5.899999999999977-0.19999999999998863 13.399999999999977-7.299999999999983 16.399999999999977-16.400000000000006 6.900000000000034-29.30000000000001 16.80000000000001-39.900000000000006 28.600000000000023l-0.09999999999999432-0.19999999999998863s-77.5 73.39999999999998-1.700000000000017 158c2.1000000000000227 2.3999999999999773 4.200000000000017 5 6.5 7.199999999999932 0.30000000000001137 0.3000000000000682 0.6000000000000227 0.7000000000000455 1 1.1000000000000227l0.10000000000002274-0.1999999999999318c18.5 17.699999999999932 42 28.299999999999955 70.89999999999998 31 29.600000000000023 2.699999999999932 59.60000000000002 0.1999999999999318 89.30000000000001 1 11.399999999999977 0.2999999999999545 13.100000000000023-6 15.5-14.600000000000023 13.899999999999977-51.30000000000007 28.30000000000001-102.39999999999998 42.19999999999999-153.60000000000002 2.8000000000000114-10.399999999999977 6.900000000000034-15.300000000000011 19-15 39.900000000000034 0.8999999999999773 79.90000000000003 0.8000000000000114 119.90000000000003 0.10000000000002274 12.899999999999977-0.30000000000001137 14.899999999999977 3.699999999999932 11.399999999999977 15.299999999999955-8.5 28.300000000000068-15.799999999999955 57-24.399999999999977 88.30000000000007h129c-19.200000000000045 27.299999999999955-36.60000000000002 51.799999999999955-55.89999999999998 79.29999999999995 39 0 74.39999999999998 1 109.5-0.2999999999999545 62.19999999999993-2.2000000000000455 107.09999999999991-32.200000000000045 132.19999999999993-89.10000000000002 23.600000000000023-53.80000000000007 11.899999999999977-116.90000000000003-30.299999999999955-158z m-304.70000000000005 194.69999999999993c-12.199999999999989 0.3000000000000682-17.19999999999999-1.1999999999999318-12.5-15.599999999999909 8.100000000000023-24.600000000000023 13.600000000000023-50 20.899999999999977-74.80000000000007 2.900000000000091-9.600000000000023 0.5-12.399999999999977-9.099999999999966-12.199999999999932-22.80000000000001 0.2999999999999545-45.599999999999966 0.2999999999999545-68.39999999999998 0-7.300000000000011-0.10000000000002274-11.699999999999989 2.099999999999909-13.800000000000011 9.599999999999909-13.699999999999989 50-27.600000000000023 99.80000000000007-41.60000000000002 149.80000000000007-2.1999999999999886 7.7999999999999545-0.39999999999997726 11.600000000000023 8.700000000000045 11.399999999999977 17.799999999999955-0.5 35.5 0.39999999999997726 53.19999999999999-0.2999999999999545 13.399999999999977-0.6000000000000227 18.899999999999977 0.5 14.599999999999966 17.09999999999991-14.199999999999989 54.90000000000009-26.19999999999999 110.5-39.099999999999966 165.80000000000007l3 2.3999999999999773c59.5-83.5 118.90000000000003-167 180.2-253.29999999999995-35.299999999999955 0-65.70000000000005-0.40000000000009095-96.10000000000002 0.09999999999990905z m72.60000000000002-493.19999999999993c-25.899999999999977 21.099999999999966-40.700000000000045 48.49999999999997-43.10000000000002 81.89999999999998-1 12.800000000000011 0.20000000000004547 25.19999999999999 3 36.89999999999998 41.5 17.400000000000034 76.60000000000002 47.700000000000045 101.30000000000007 88.40000000000003 4.199999999999932 0.39999999999997726 8.5 0.5999999999999659 12.799999999999955 0.5999999999999659 69.89999999999998-0.5 114-59.5 114.70000000000005-107.29999999999998-17 20.400000000000006-37.40000000000009 32.00000000000003-62.60000000000002 34.29999999999998-25.399999999999977 2.3000000000000114-47.89999999999998-5-67.30000000000007-21.599999999999966-16.299999999999955-14-26.199999999999932-31.80000000000001-29.399999999999977-52.900000000000006-5-32.5 5.2000000000000455-60.30000000000001 28.100000000000023-83.9-21.899999999999977 1.4000000000000057-40.89999999999998 10-57.5 23.599999999999994z m-38.200000000000045-45.40000000000002c1.2000000000000455 0.5 2.1000000000000227 1.5999999999999943 2.400000000000091 2.799999999999997l2.8999999999999773 13c0.6999999999999318 3.200000000000003 4.7999999999999545 4.200000000000003 6.899999999999977 1.7000000000000028l8.600000000000023-10.200000000000003c0.8999999999999773-1 2.1000000000000227-1.5999999999999943 3.3999999999999773-1.4000000000000057l13.299999999999955 1.2000000000000028c3.300000000000068 0.29999999999999716 5.5-3.299999999999997 3.800000000000068-6.099999999999994l-7.100000000000023-11.299999999999997c-0.7000000000000455-1.1000000000000085-0.7999999999999545-2.5-0.2999999999999545-3.700000000000003l5.199999999999932-12.200000000000003c1.3000000000000682-3.0999999999999943-1.3999999999999773-6.299999999999997-4.600000000000023-5.400000000000006l-12.899999999999977 3.200000000000003c-1.2999999999999545 0.29999999999999716-2.6000000000000227 0-3.6000000000000227-0.8999999999999915l-10-8.800000000000004c-2.3999999999999773-2.200000000000003-6.399999999999977-0.6000000000000014-6.599999999999909 2.6999999999999957l-0.900000000000091 13.299999999999997c-0.09999999999990905 1.3000000000000114-0.7999999999999545 2.4000000000000057-1.8999999999999773 3.1000000000000085l-11.5 6.799999999999997c-2.7999999999999545 1.7000000000000028-2.5 5.900000000000006 0.5 7.200000000000003l12.399999999999977 5z m219.9000000000001 127.10000000000001l12.299999999999955 5c1.2000000000000455 0.5 2.1000000000000227 1.5999999999999943 2.3999999999999773 2.799999999999983l2.8999999999999773 13c0.7000000000000455 3.200000000000017 4.800000000000068 4.200000000000017 7 1.700000000000017l8.600000000000023-10.200000000000017c0.8999999999999773-1 2.1000000000000227-1.5999999999999943 3.3999999999999773-1.4000000000000057l13.300000000000068 1.200000000000017c3.2999999999999545 0.29999999999998295 5.5-3.3000000000000114 3.7999999999999545-6.099999999999994l-7.199999999999932-11.200000000000017c-0.7000000000000455-1.0999999999999943-0.8000000000000682-2.5-0.3000000000000682-3.6999999999999886l5.2000000000000455-12.200000000000017c1.2999999999999545-3.0999999999999943-1.3999999999999773-6.299999999999983-4.600000000000023-5.399999999999977l-12.899999999999977 3.1999999999999886c-1.3000000000000682 0.30000000000001137-2.6000000000000227 0-3.6000000000000227-0.9000000000000057l-10-8.799999999999983c-2.3999999999999773-2.200000000000017-6.399999999999977-0.6000000000000227-6.600000000000023 2.6999999999999886l-0.8999999999999773 13.300000000000011c-0.10000000000002274 1.299999999999983-0.7999999999999545 2.3999999999999773-1.8999999999999773 3.0999999999999943l-11.5 6.799999999999983c-2.800000000000068 1.700000000000017-2.6000000000000227 5.900000000000006 0.6000000000000227 7.100000000000023z m-95-27.700000000000017c0.7999999999999545 0.30000000000001137 1.3999999999999773 1 1.599999999999909 1.8000000000000114l1.900000000000091 8.699999999999989c0.39999999999997726 2.0999999999999943 3.199999999999932 2.8000000000000114 4.599999999999909 1.0999999999999943l5.7000000000000455-6.799999999999983c0.5-0.700000000000017 1.3999999999999773-1 2.2999999999999545-1l8.800000000000068 0.799999999999983c2.199999999999932 0.20000000000001705 3.699999999999932-2.1999999999999886 2.3999999999999773-4l-4.7000000000000455-7.5c-0.39999999999997726-0.6999999999999886-0.5-1.6999999999999886-0.1999999999999318-2.3999999999999773l3.5-8.100000000000023c0.8999999999999773-2-1-4.199999999999989-3.1000000000000227-3.5999999999999943l-8.600000000000023 2.200000000000017c-0.8999999999999773 0.19999999999998863-1.6999999999999318 0-2.3999999999999773-0.6000000000000227l-6.600000000000023-5.899999999999977c-1.6999999999999318-1.5-4.2999999999999545-0.30000000000001137-4.399999999999977 1.799999999999983l-0.6000000000000227 8.800000000000011c-0.10000000000002274 0.9000000000000057-0.5 1.6999999999999886-1.2999999999999545 2.0999999999999943l-7.600000000000023 4.5c-1.8999999999999773 1.0999999999999943-1.7000000000000455 3.9000000000000057 0.2999999999999545 4.699999999999989l8.400000000000091 3.4000000000000057z m84.59999999999991-28.099999999999994c0.5 0.30000000000001137 1 0.6999999999999886 1 1.3000000000000114l1.3000000000000682 5.899999999999977c0.2999999999999545 1.5 2.199999999999932 1.9000000000000057 3.1000000000000227 0.8000000000000114l3.7999999999999545-4.599999999999994c0.2999999999999545-0.4000000000000057 1-0.700000000000017 1.6000000000000227-0.5999999999999943l5.899999999999977 0.5c1.5 0.19999999999998863 2.3999999999999773-1.5 1.7000000000000455-2.700000000000017l-3.2000000000000455-5.099999999999994c-0.2999999999999545-0.5-0.2999999999999545-1.0999999999999943-0.10000000000002274-1.6999999999999886l2.3999999999999773-5.5c0.6000000000000227-1.4000000000000057-0.599999999999909-2.8000000000000114-2.099999999999909-2.4000000000000057l-5.900000000000091 1.5c-0.599999999999909 0.19999999999998863-1.1999999999999318 0-1.6999999999999318-0.30000000000001137l-4.5-3.9000000000000057c-1.1000000000000227-1-2.8999999999999773-0.29999999999998295-3 1.200000000000017l-0.39999999999997726 5.900000000000006c0 0.5999999999999943-0.3000000000000682 1.0999999999999943-0.900000000000091 1.3999999999999773l-5.199999999999932 3.1000000000000227c-1.3000000000000682 0.799999999999983-1.1000000000000227 2.5999999999999943 0.2999999999999545 3.1999999999999886l5.899999999999977 2z m-227.5-4.400000000000006c0.40000000000009095 0.20000000000001705 0.8000000000000682 0.5999999999999943 1 1l1.1000000000000227 5c0.3000000000000682 1.200000000000017 1.8000000000000682 1.700000000000017 2.7000000000000455 0.5999999999999943l3.2999999999999545-3.8999999999999773c0.3000000000000682-0.30000000000001137 0.8000000000000682-0.6000000000000227 1.3000000000000682-0.5l5.099999999999909 0.39999999999997726c1.2000000000000455 0.10000000000002274 2.1000000000000227-1.1999999999999886 1.400000000000091-2.3999999999999773l-2.7000000000000455-4.400000000000006c-0.2999999999999545-0.4000000000000057-0.2999999999999545-1-0.10000000000002274-1.4000000000000057l2-4.699999999999989c0.5-1.1000000000000227-0.5-2.4000000000000057-1.6999999999999318-2.1000000000000227l-5 1.200000000000017c-0.5 0.09999999999999432-1 0-1.400000000000091-0.30000000000001137l-3.7999999999999545-3.4000000000000057c-1-0.8999999999999773-2.3999999999999773-0.29999999999998295-2.5 1l-0.2999999999999545 5.100000000000023c0 0.5-0.3000000000000682 1-0.8000000000000682 1.1999999999999886l-4.399999999999977 2.5999999999999943c-1.1000000000000227 0.5999999999999943-1 2.3000000000000114 0.20000000000004547 2.700000000000017l4.599999999999909 2.299999999999983z m57 607.1v5.899999999999977l-5.5-5.5-3.7999999999999545 3.7999999999999545 9.299999999999955 9.300000000000068v10.099999999999909c0.900000000000091-0.1999999999999318 1.7000000000000455-0.2999999999999545 2.7000000000000455-0.2999999999999545 0.8999999999999773 0 1.7999999999999545 0.10000000000002274 2.7000000000000455 0.2999999999999545v-10.099999999999909l9.299999999999955-9.300000000000068-3.7999999999999545-3.7999999999999545-5.5 5.5v-5.899999999999977h-5.400000000000091z m5.5 48.5c-0.8999999999999773 0.1999999999999318-1.6999999999999318 0.2999999999999545-2.699999999999932 0.2999999999999545-1 0-1.8000000000000682-0.10000000000002274-2.7000000000000455-0.2999999999999545v10.099999999999909l-9.299999999999955 9.300000000000068 3.7999999999999545 3.7999999999999545 5.5-5.5v5.899999999999977h5.300000000000068v-5.899999999999977l5.5 5.5 3.7999999999999545-3.7999999999999545-9.299999999999955-9.300000000000068 0.09999999999990905-10.099999999999909z m-15.199999999999932-9.900000000000091c-0.20000000000004547-0.8999999999999773-0.3000000000000682-1.6999999999999318-0.3000000000000682-2.699999999999932 0-1 0.10000000000002274-1.8000000000000682 0.3000000000000682-2.7000000000000455h-10.100000000000023l-9.299999999999955-9.299999999999955-3.800000000000068 3.7999999999999545 5.5 5.5h-6v5.300000000000068h5.899999999999977l-5.5 5.5 3.800000000000068 3.7999999999999545 9.299999999999955-9.299999999999955 10.200000000000045 0.09999999999990905z m-18.600000000000023-16.5l13.100000000000023-0.09999999999990905 7.199999999999932 7.099999999999909c1-1.5 2.300000000000068-2.7999999999999545 3.800000000000068-3.7999999999999545l-7.2000000000000455-7.100000000000023-0.10000000000002274-13.100000000000023h-5.2999999999999545v7.800000000000068l-4.2000000000000455-4.2000000000000455-3.7999999999999545 3.800000000000068 4.2000000000000455 4.199999999999932h-7.800000000000068l0.10000000000002274 5.399999999999977z m20.399999999999977 20.700000000000045l-7.199999999999932 7.100000000000023-13.100000000000023-0.10000000000002274v5.2999999999999545h7.7999999999999545l-4.199999999999932 4.2000000000000455 3.7999999999999545 3.7999999999999545 4.2000000000000455-4.199999999999932v7.7999999999999545h5.2999999999999545l0.10000000000002274-13.100000000000023 7.199999999999932-7.099999999999909c-1.6999999999999318-0.900000000000091-3-2.2000000000000455-3.8999999999999773-3.7000000000000455z m46.60000000000002-15l-3.7999999999999545-3.7999999999999545-9.200000000000045 9.299999999999955h-10.100000000000023c0.20000000000004547 0.8999999999999773 0.3000000000000682 1.7000000000000455 0.3000000000000682 2.7000000000000455 0 0.8999999999999773-0.10000000000002274 1.7999999999999545-0.3000000000000682 2.699999999999932h10.100000000000023l9.299999999999955 9.300000000000068 3.800000000000068-3.800000000000068-5.5-5.5h5.899999999999977v-5.2999999999999545h-5.899999999999977l5.399999999999977-5.600000000000023z m-21.399999999999977-22.799999999999955l-0.10000000000002274 13.099999999999909-7.2000000000000455 7.100000000000023c1.5 1 2.800000000000068 2.300000000000068 3.800000000000068 3.800000000000068l7.199999999999932-7.100000000000023 13.100000000000023 0.10000000000002274v-5.300000000000068h-7.7999999999999545l4.199999999999932-4.199999999999932-3.7999999999999545-3.800000000000068-4.2000000000000455 4.2000000000000455v-7.800000000000068l-5.199999999999932-0.09999999999990905z m16.799999999999955 44.799999999999955l-13.100000000000023 0.10000000000002274-7.199999999999932-7.100000000000023c-1 1.5-2.300000000000068 2.7999999999999545-3.800000000000068 3.7999999999999545l7.2000000000000455 7.100000000000023 0.10000000000002274 13.100000000000023h5.2999999999999545v-7.7999999999999545l4.2000000000000455 4.199999999999932 3.7999999999999545-3.7999999999999545-4.199999999999932-4.2000000000000455h7.7999999999999545l-0.10000000000002274-5.399999999999977z m-31.299999999999955-4.2000000000000455c5.2999999999999545 0 9.699999999999932-4.399999999999977 9.699999999999932-9.699999999999932 0-5.300000000000068-4.399999999999977-9.700000000000045-9.699999999999932-9.700000000000045-5.300000000000068 0-9.700000000000045 4.399999999999977-9.700000000000045 9.700000000000045-0.10000000000002274 5.5 4.300000000000068 9.699999999999932 9.700000000000045 9.699999999999932z m-317.8-75v10.100000000000023l-9.400000000000034-9.399999999999977-6.499999999999972 6.5 15.799999999999983 15.799999999999955v17.200000000000045c1.5-0.2999999999999545 3-0.5 4.5-0.5s3.1000000000000227 0.20000000000004547 4.5 0.5v-17.200000000000045l15.800000000000011-15.799999999999955-6.5-6.5-9.399999999999977 9.399999999999977v-10.100000000000023h-8.800000000000011z m9.199999999999989 82.80000000000007c-1.5 0.2999999999999545-3 0.5-4.5 0.5-1.6000000000000227 0-3.1000000000000227-0.20000000000004547-4.5-0.5v17.199999999999932l-15.900000000000006 15.800000000000068 6.500000000000028 6.5 9.399999999999977-9.399999999999977v10.099999999999909h9.199999999999989v-10.099999999999909l9.400000000000034 9.399999999999977 6.5-6.5-15.800000000000011-15.800000000000068v-17.199999999999932z m-25.80000000000001-16.800000000000068c-0.29999999999998295-1.5-0.5-3-0.5-4.5 0-1.599999999999909 0.20000000000001705-3.099999999999909 0.5-4.5h-17.19999999999999l-15.800000000000011-15.799999999999955-6.5 6.5 9.400000000000006 9.399999999999977h-10.099999999999994v9.100000000000023h10.099999999999994l-9.400000000000006 9.399999999999977 6.5 6.5 15.800000000000011-15.799999999999955 17.19999999999999-0.3000000000000682z m-31.799999999999983-28.299999999999955l22.400000000000006-0.10000000000002274 12.199999999999989 12.200000000000045c1.6999999999999886-2.6000000000000227 3.8000000000000114-4.800000000000068 6.5-6.5l-12.199999999999989-12.100000000000023-0.10000000000002274-22.399999999999977h-9.099999999999994l0.09999999999999432 13.299999999999955-7.199999999999989-7.100000000000023-6.400000000000006 6.5 7.200000000000017 7.100000000000023-13.300000000000011 0.10000000000002274-0.09999999999999432 9z m34.69999999999999 35.39999999999998l-12.199999999999989 12.200000000000045-22.400000000000006-0.10000000000002274v9.200000000000045l13.300000000000011 0.09999999999990905-7.200000000000017 7.100000000000023 6.5 6.5 7.200000000000017-7.100000000000023-0.10000000000002274 13.300000000000068h9.100000000000023l0.09999999999999432-22.399999999999977 12.099999999999994-12.200000000000045c-2.5-1.7999999999999545-4.800000000000011-4-6.400000000000006-6.600000000000023z m79.6-25.600000000000023l-6.5-6.5-15.800000000000011 15.800000000000068h-17.19999999999999c0.30000000000001137 1.5 0.5 3 0.5 4.5 0 1.6000000000000227-0.19999999999998863 3.1000000000000227-0.5 4.5h17.19999999999999l15.800000000000011 15.799999999999955 6.5-6.5-9.399999999999977-9.299999999999955h10.099999999999966v-9.100000000000023h-10.099999999999966l9.399999999999977-9.200000000000045z m-36.599999999999966-38.799999999999955l-0.10000000000002274 22.399999999999977-12.199999999999989 12.100000000000023c2.5 1.7000000000000455 4.800000000000011 3.8999999999999773 6.5 6.5l12.199999999999989-12.200000000000045 22.399999999999977 0.10000000000002274v-9.100000000000023l-13.299999999999955-0.09999999999990905 7.199999999999989-7.100000000000023-6.5-6.5-7.199999999999989 7.100000000000023 0.0999999999999659-13.300000000000068-9.099999999999966 0.10000000000002274z m28.799999999999955 76.39999999999998l-22.399999999999977 0.10000000000002274-12.199999999999989-12.200000000000045c-1.6999999999999886 2.6000000000000227-3.8000000000000114 4.800000000000068-6.5 6.5l12.199999999999989 12.200000000000045 0.10000000000002274 22.399999999999977h9.099999999999966l-0.0999999999999659-13.299999999999955 7.199999999999989 7.100000000000023 6.5-6.5-7.199999999999989-7.100000000000023 13.299999999999955-0.10000000000002274v-9.100000000000023z m-53.599999999999966-40.19999999999993c-9.199999999999989 0-16.5 7.399999999999977-16.5 16.5 0 9.199999999999932 7.399999999999977 16.5 16.5 16.5 9.199999999999989 0 16.5-7.400000000000091 16.5-16.5 0.19999999999998863-9.100000000000023-7.300000000000011-16.5-16.5-16.5z m422.2-44.80000000000007v4.600000000000023l-4.2999999999999545-4.2999999999999545-3 3 7.2999999999999545 7.2999999999999545v7.899999999999977c0.7000000000000455-0.1999999999999318 1.3999999999999773-0.2999999999999545 2.1000000000000227-0.2999999999999545s1.3999999999999773 0.10000000000002274 2.1000000000000227 0.2999999999999545v-7.899999999999977l7.2999999999999545-7.2999999999999545-3-3-4.2999999999999545 4.2999999999999545v-4.600000000000023h-4.2000000000000455z m4.2000000000000455 37.80000000000007c-0.7000000000000455 0.1999999999999318-1.400000000000091 0.2999999999999545-2.1000000000000227 0.2999999999999545-0.7000000000000455 0-1.3999999999999773-0.10000000000002274-2.1000000000000227-0.2999999999999545v7.899999999999977l-7.2999999999999545 7.2999999999999545 3 3 4.2999999999999545-4.2999999999999545v4.600000000000023h4.2000000000000455v-4.600000000000023l4.2999999999999545 4.2999999999999545 3-3-7.2999999999999545-7.2999999999999545v-7.899999999999977z m-11.800000000000068-7.7000000000000455c-0.1999999999999318-0.7000000000000455-0.2999999999999545-1.3999999999999773-0.2999999999999545-2.1000000000000227s0.10000000000002274-1.3999999999999773 0.2999999999999545-2.1000000000000227h-7.899999999999977l-7.2999999999999545-7.2999999999999545-3 3 4.2999999999999545 4.2999999999999545h-4.600000000000023v4.2000000000000455h4.600000000000023l-4.2999999999999545 4.2999999999999545 3 3 7.2999999999999545-7.2999999999999545h7.899999999999977z m-14.600000000000023-12.899999999999977l10.200000000000045-0.10000000000002274 5.600000000000023 5.5c0.7999999999999545-1.2000000000000455 1.6999999999999318-2.2000000000000455 3-3l-5.600000000000023-5.5-0.10000000000002274-10.200000000000045h-4.199999999999932v6.100000000000023l-3.300000000000068-3.199999999999932-3 3 3.300000000000068 3.199999999999932h-6l0.09999999999990905 4.2000000000000455z m15.900000000000091 16.299999999999955l-5.600000000000023 5.5-10.200000000000045-0.10000000000002274v4.2000000000000455h6l-3.2999999999999545 3.2000000000000455 3 3 3.2999999999999545-3.2000000000000455v6.100000000000023h4.2000000000000455l0.10000000000002274-10.200000000000045 5.599999999999909-5.5c-1.2999999999999545-0.7999999999999545-2.2999999999999545-1.8999999999999773-3.099999999999909-3z m36.5-11.799999999999955l-3-3-7.300000000000068 7.2999999999999545h-7.899999999999977c0.20000000000004547 0.7000000000000455 0.2999999999999545 1.3999999999999773 0.2999999999999545 2.1000000000000227 0 0.7000000000000455-0.09999999999990905 1.3999999999999773-0.2999999999999545 2.1000000000000227h7.899999999999977l7.300000000000068 7.2999999999999545 3-3-4.300000000000068-4.2999999999999545h4.600000000000023v-4.2000000000000455h-4.600000000000023l4.300000000000068-4.2999999999999545z m-16.800000000000068-17.700000000000045l-0.10000000000002274 10.200000000000045-5.599999999999909 5.5c1.099999999999909 0.7999999999999545 2.199999999999932 1.6999999999999318 3 3l5.599999999999909-5.5 10.200000000000045 0.10000000000002274v-4.2000000000000455h-6.100000000000023l3.300000000000068-3.2000000000000455-3-3-3.300000000000068 3.2000000000000455v-6.100000000000023h-4z m13.200000000000045 34.89999999999998l-10.200000000000045 0.10000000000002274-5.600000000000023-5.5c-0.7999999999999545 1.2000000000000455-1.6999999999999318 2.2000000000000455-3 3l5.600000000000023 5.5 0.10000000000002274 10.200000000000045h4.2000000000000455v-6.100000000000023l3.2999999999999545 3.2000000000000455 3-3-3.2999999999999545-3.2000000000000455h6.099999999999909l-0.1999999999999318-4.2000000000000455z m-16.899999999999977-10.899999999999977c0 4.2000000000000455-3.400000000000091 7.600000000000023-7.600000000000023 7.600000000000023s-7.600000000000023-3.3999999999999773-7.600000000000023-7.600000000000023 3.3999999999999773-7.600000000000023 7.600000000000023-7.600000000000023 7.600000000000023 3.5 7.600000000000023 7.600000000000023z m-185.70000000000005 123.60000000000002v3.2000000000000455l-3-3-2.1000000000000227 2.099999999999909 5.100000000000023 5.100000000000023v5.5c0.39999999999997726-0.10000000000002274 1-0.1999999999999318 1.5-0.1999999999999318s1 0.09999999999990905 1.5 0.1999999999999318v-5.5l5.100000000000023-5.100000000000023-2.1000000000000227-2.099999999999909-3 3v-3.2000000000000455h-3z m2.8999999999999773 26.600000000000023c-0.39999999999997726 0.10000000000002274-1 0.1999999999999318-1.5 0.1999999999999318s-1-0.09999999999990905-1.5-0.1999999999999318v5.5l-5.100000000000023 5.100000000000023 2.1000000000000227 2.099999999999909 3-3v3.2000000000000455h2.8999999999999773v-3.2000000000000455l3 3 2.1000000000000227-2.099999999999909-5.100000000000023-5.100000000000023 0.10000000000002274-5.5z m-8.199999999999932-5.399999999999977c-0.10000000000002274-0.40000000000009095-0.20000000000004547-1-0.20000000000004547-1.5s0.10000000000002274-1 0.20000000000004547-1.5h-5.500000000000057l-5.099999999999966-5.100000000000023-2.1000000000000227 2.1000000000000227 3 3h-3.1999999999999886v2.8999999999999773h3.1999999999999886l-3 3 2.1000000000000227 2.1000000000000227 5.099999999999966-5.100000000000023 5.500000000000057 0.10000000000002274z m-10.100000000000023-9.100000000000023h7.199999999999989l3.900000000000034 3.7999999999999545c0.5-0.7999999999999545 1.1999999999999318-1.6000000000000227 2.099999999999909-2.1000000000000227l-3.8999999999999773-3.7999999999999545v-7.2000000000000455h-2.8999999999999773v4.300000000000068l-2.3000000000000114-2.300000000000068-2.099999999999966 2.1000000000000227 2.2999999999999545 2.300000000000068h-4.2999999999999545v2.8999999999999773z m11.100000000000023 11.299999999999955l-3.900000000000034 3.800000000000068h-7.199999999999989v2.8999999999999773h4.2999999999999545l-2.2999999999999545 2.2999999999999545 2.099999999999966 2.1000000000000227 2.3000000000000114-2.2999999999999545v4.2999999999999545h2.8999999999999773v-7.2000000000000455l3.8999999999999773-3.7999999999999545c-0.8999999999999773-0.5-1.599999999999909-1.2000000000000455-2.099999999999909-2.1000000000000227z m25.399999999999977-8.199999999999932l-2.1000000000000227-2.1000000000000227-5.100000000000023 5.100000000000023h-5.5c0.10000000000002274 0.39999999999997726 0.20000000000004547 1 0.20000000000004547 1.5s-0.10000000000002274 1-0.20000000000004547 1.5h5.5l5.100000000000023 5.099999999999909 2.1000000000000227-2.099999999999909-3-3h3.199999999999932v-2.900000000000091h-3.199999999999932l3-3.099999999999909z m-9.700000000000045-3.1000000000000227h7.2000000000000455v-2.8999999999999773h-4.300000000000068l2.300000000000068-2.300000000000068-2.1000000000000227-2.1000000000000227-2.2999999999999545 2.300000000000068v-4.300000000000068h-2.900000000000091v7.2000000000000455l-3.8999999999999773 3.7999999999999545c0.8000000000000682 0.5 1.5 1.2000000000000455 2.1000000000000227 2.1000000000000227l3.8999999999999773-3.7999999999999545z m7.2000000000000455 15.199999999999932h-7.2000000000000455l-3.8999999999999773-3.7999999999999545c-0.5 0.8999999999999773-1.2000000000000455 1.6000000000000227-2.1000000000000227 2.1000000000000227l3.8999999999999773 3.7999999999999545v7.2000000000000455h2.900000000000091v-4.300000000000068l2.2999999999999545 2.300000000000068 2.1000000000000227-2.1000000000000227-2.300000000000068-2.2999999999999545h4.300000000000068v-2.900000000000091z m-11.800000000000068-7.599999999999909c0 2.8999999999999773-2.3999999999999773 5.2999999999999545-5.2999999999999545 5.2999999999999545-3 0-5.2999999999999545-2.3999999999999773-5.2999999999999545-5.2999999999999545 0-3 2.3999999999999773-5.300000000000068 5.2999999999999545-5.300000000000068 2.8999999999999773-0.10000000000002274 5.2999999999999545 2.3999999999999773 5.2999999999999545 5.300000000000068z m-141.29999999999995-103.90000000000009v2.400000000000091l-2.1999999999999886-2.2000000000000455-1.5 1.5 3.6999999999999886 3.7000000000000455v4c0.30000000000001137-0.10000000000002274 0.6999999999999886-0.10000000000002274 1-0.10000000000002274s0.6999999999999886 0 1 0.10000000000002274v-4l3.6999999999999886-3.7000000000000455-1.5-1.5-2.1999999999999886 2.2000000000000455v-2.400000000000091h-2z m2.1999999999999886 19.40000000000009c-0.30000000000001137 0.09999999999990905-0.6999999999999886 0.09999999999990905-1 0.09999999999990905-0.30000000000001137 0-0.6999999999999886 0-1-0.09999999999990905v4l-3.6999999999999886 3.699999999999932 1.5 1.5 2.1999999999999886-2.199999999999932v2.3999999999999773h2.1000000000000227v-2.3999999999999773l2.1999999999999886 2.199999999999932 1.5-1.5-3.6999999999999886-3.699999999999932-0.10000000000002274-4z m-6.099999999999966-4c-0.10000000000002274-0.3000000000000682-0.10000000000002274-0.7000000000000455-0.10000000000002274-1 0-0.3000000000000682 0-0.7000000000000455 0.10000000000002274-1h-4l-3.7000000000000455-3.7000000000000455-1.5 1.5 2.2000000000000455 2.2000000000000455h-2.400000000000034v2.099999999999909h2.400000000000034l-2.2000000000000455 2.2000000000000455 1.5 1.5 3.7000000000000455-3.7000000000000455h4z m-7.300000000000011-6.5h5.199999999999989l2.8999999999999773 2.7999999999999545c0.30000000000001137-0.6000000000000227 0.9000000000000341-1.1000000000000227 1.5-1.5l-2.8999999999999773-2.7999999999999545v-5.2000000000000455h-2.1000000000000227v3.1000000000000227l-1.6999999999999886-1.7000000000000455-1.5 1.5 1.6999999999999886 1.7000000000000455h-3.099999999999966v2.1000000000000227z m8 8.199999999999932l-2.900000000000034 2.800000000000068h-5.199999999999989v2.099999999999909h3.1000000000000227l-1.6999999999999886 1.7000000000000455 1.5 1.5 1.6999999999999886-1.7000000000000455v3.1000000000000227h2.099999999999966v-5.199999999999932l2.900000000000034-2.800000000000068c-0.6000000000000227-0.5-1.1000000000000227-0.8999999999999773-1.5-1.5z m18.5-6l-1.5-1.5-3.6999999999999886 3.7000000000000455h-4c0.0999999999999659 0.2999999999999545 0.0999999999999659 0.6999999999999318 0.0999999999999659 1s0 0.6999999999999318-0.0999999999999659 1h4l3.6999999999999886 3.699999999999932 1.5-1.5-2.1999999999999886-2.199999999999932h2.3999999999999773v-2.1000000000000227h-2.3999999999999773l2.1999999999999886-2.1000000000000227z m-8.5-9v5.2000000000000455l-2.900000000000034 2.7999999999999545c0.6000000000000227 0.3000000000000682 1.1000000000000227 0.8999999999999773 1.5 1.5l2.900000000000034-2.7999999999999545h5.199999999999989v-2.1000000000000227h-3l1.6999999999999886-1.7000000000000455-1.5-1.5-1.6999999999999886 1.7000000000000455v-3l-2.1999999999999886-0.10000000000002274z m6.699999999999989 17.800000000000068h-5.199999999999989l-2.900000000000034-2.800000000000068c-0.2999999999999545 0.6000000000000227-0.8999999999999773 1.1000000000000227-1.5 1.5l2.900000000000034 2.800000000000068v5.199999999999932h2.099999999999966v-3.1000000000000227l1.7000000000000455 1.7000000000000455 1.5-1.5-1.7000000000000455-1.7000000000000455h3.1000000000000227v-2.099999999999909z m-8.5-5.5c0 2.099999999999909-1.6999999999999886 3.7999999999999545-3.8000000000000114 3.7999999999999545s-3.8000000000000114-1.7000000000000455-3.8000000000000114-3.7999999999999545c0-2.1000000000000227 1.7000000000000455-3.800000000000068 3.8000000000000114-3.800000000000068s3.8000000000000114 1.6000000000000227 3.8000000000000114 3.800000000000068z"/>
</svg>
