<svg xmlns="http://www.w3.org/2000/svg" viewBox="0 0 1000 1000" width="1000" height="1000">
<path d="M500.8 261.4c-130.40000000000003-0.2999999999999545-236 104.40000000000003-236.2 234-0.20000000000004547 129.60000000000002 104.79999999999995 235.20000000000005 234 235.60000000000002 130.69999999999993 0.2999999999999545 236.39999999999998-104.5 236.60000000000002-234.60000000000002 0-129.7-104.70000000000005-234.79999999999995-234.40000000000003-235z m-234.10000000000002 368.20000000000005c-9.199999999999989-15.200000000000045-28.399999999999977-20.399999999999977-44.69999999999999-12-4.599999999999994 2.3999999999999773-9 5.100000000000023-13.5 7.699999999999932-25 14.400000000000091-50.099999999999994 28.600000000000023-74.9 43.30000000000007-14.199999999999989 8.399999999999977-19.799999999999997 23.799999999999955-15.199999999999989 38.89999999999998 4.3999999999999915 14.299999999999955 17.400000000000006 23.799999999999955 33.400000000000006 23.700000000000045 4.5 0.39999999999997726 9.599999999999994-0.900000000000091 14.199999999999989-3.5 30.30000000000001-17.300000000000068 60.80000000000001-34.30000000000007 90.69999999999999-52.40000000000009 15.800000000000011-9.599999999999909 19.600000000000023-29.899999999999977 10-45.69999999999993z m463.40000000000003-274.20000000000005c4.199999999999932 13.600000000000023 17.600000000000023 23.600000000000023 31.899999999999977 23.700000000000045 5.2999999999999545 0.19999999999998863 10.5-0.9000000000000341 15-3.400000000000034 30.600000000000023-17.399999999999977 61.299999999999955-34.599999999999966 91.39999999999998-52.599999999999966 15.300000000000068-9.200000000000045 19.399999999999977-28.900000000000034 10.800000000000068-44.200000000000045-8.700000000000045-15.399999999999977-27.5-22.599999999999966-43.200000000000045-14.099999999999966-31.700000000000045 17.19999999999999-62.799999999999955 35.30000000000001-93.70000000000005 53.80000000000001-12.099999999999909 7.399999999999977-16.399999999999977 23.099999999999966-12.199999999999932 36.799999999999955z m-223-123.69999999999999c18.799999999999955-0.09999999999999432 33.39999999999998-15 33.5-34.599999999999994 0.10000000000002274-16.400000000000006 0-32.900000000000006 0-49.29999999999998v-50.20000000000002c-0.39999999999997726-19-14.899999999999977-33.599999999999994-33.400000000000034-33.699999999999996-18.899999999999977-0.10000000000000142-33.89999999999998 14.600000000000001-34 34.00000000000001-0.19999999999998863 33.19999999999999-0.19999999999998863 66.4 0 99.6 0.10000000000002274 19.30000000000001 15.100000000000023 34.19999999999999 33.900000000000034 34.19999999999999z m0.0999999999999659 536.2c-18.899999999999977-0.10000000000013642-33.89999999999998 14.599999999999909-34 33.999999999999886-0.19999999999998863 33.200000000000045-0.19999999999998863 66.39999999999998 0 99.60000000000002 0.10000000000002274 19.399999999999977 15 34.299999999999955 33.80000000000001 34.299999999999955 18.799999999999955-0.09999999999990905 33.39999999999998-15 33.5-34.59999999999991 0.10000000000002274-16.40000000000009 0-32.90000000000009 0-49.40000000000009v-50.19999999999993c-0.2999999999999545-18.899999999999977-14.799999999999955-33.60000000000002-33.30000000000001-33.700000000000045z m-310.5-237.9000000000001c19-0.10000000000002274 33.30000000000001-13.600000000000023 34.10000000000002-32 0.799999999999983-18.5-12.900000000000006-34.60000000000002-32-35-34.70000000000002-0.6999999999999886-69.4-0.6999999999999886-104.00000000000001 0-18.599999999999994 0.39999999999997726-32.8 16.600000000000023-32.199999999999996 34.19999999999999 0.3999999999999986 18.599999999999966 15.300000000000004 32.69999999999999 34.4 32.80000000000001 16.799999999999997 0.10000000000002274 33.5 0 50.30000000000001 0 16.5 0 32.89999999999998 0.10000000000002274 49.39999999999998 0z m708.7-67c-34.700000000000045-0.6999999999999886-69.40000000000009-0.6999999999999886-104.00000000000011 0-18.600000000000023 0.39999999999997726-32.799999999999955 16.600000000000023-32.19999999999993 34.19999999999999 0.5 18.500000000000057 15.399999999999977 32.69999999999999 34.5 32.80000000000001 16.799999999999955 0.10000000000002274 33.5 0 50.299999999999955 0 16.5 0 32.89999999999998 0.10000000000002274 49.39999999999998 0 19-0.10000000000002274 33.30000000000007-13.600000000000023 34.10000000000002-32 0.7999999999999545-18.5-12.899999999999977-34.60000000000002-32.10000000000002-35z m-250.4000000000001-187.8c11.799999999999955-0.19999999999998863 21.799999999999955-4.599999999999966 27.799999999999955-14.699999999999989 18-30.19999999999999 35.90000000000009-60.599999999999994 52.90000000000009-91.30000000000001 8.599999999999909-15.5 2.099999999999909-34.79999999999998-13.100000000000023-43.599999999999994-15.300000000000068-8.899999999999991-35.200000000000045-5.3999999999999915-44.39999999999998 9.700000000000017-18.5 30.299999999999983-36.5 60.89999999999998-53.30000000000007 92.1-11.699999999999932 21.799999999999983 5.399999999999977 47.70000000000002 30.100000000000023 47.79999999999998z m211.39999999999998 393.40000000000003c-28.799999999999955-16.899999999999977-57.799999999999955-33.700000000000045-86.89999999999998-50-17.299999999999955-9.700000000000045-37.10000000000002-4.2000000000000455-46.5 12.100000000000023-9.700000000000045 16.799999999999955-4.100000000000023 36.19999999999993 13.899999999999977 46.59999999999991 27.899999999999977 16.200000000000045 55.89999999999998 32.30000000000007 83.89999999999998 48.30000000000007 5.800000000000068 3.2999999999999545 11.900000000000091 6 18.40000000000009 5.5 15.399999999999977 0 28.699999999999932-9.899999999999977 32.799999999999955-23.899999999999977 4.399999999999977-15-1.3999999999999773-30.200000000000045-15.600000000000023-38.60000000000002z m-547.0999999999999-417c6.499999999999943 11 16.299999999999955 16.799999999999955 29.299999999999955 16.69999999999999 25.899999999999977-0.10000000000002274 41.89999999999998-26.80000000000001 29.19999999999999-49.80000000000001-16.400000000000034-29.5-33.400000000000034-58.69999999999999-50.69999999999999-87.6-10-16.700000000000003-29.700000000000045-21.400000000000006-45.900000000000034-12-16.099999999999966 9.5-21.69999999999999 29-12.199999999999989 45.900000000000006 16.5 29.099999999999994 33.39999999999998 58 50.30000000000001 86.79999999999998z m-185.10000000000008 73.89999999999998c28.600000000000023 16.69999999999999 57.400000000000006 33.10000000000002 86.10000000000002 49.69999999999999 5.399999999999977 3.1000000000000227 11.099999999999994 4.699999999999989 15.5 4.5 16.899999999999977-0.0999999999999659 30.099999999999966-9.899999999999977 34.19999999999999-24 4.199999999999989-14.800000000000011-1.3000000000000114-30.099999999999966-15-38.099999999999966-29-17.100000000000023-58.19999999999999-34-87.6-50.5-17.200000000000017-9.700000000000045-37.30000000000001-4-46.5 12.299999999999955-9.5 16.80000000000001-4.200000000000003 35.900000000000034 13.299999999999983 46.10000000000002z m235.60000000000002 410.20000000000005c-16.900000000000034-10-36.900000000000034-4.400000000000091-47.5 13.699999999999932-16.30000000000001 27.899999999999977-32.400000000000034 55.89999999999998-48.60000000000002 83.80000000000007-3.1999999999999886 5.599999999999909-5.599999999999966 11.399999999999977-5.199999999999989 17.5-0.10000000000002274 15.799999999999955 9.5 28.799999999999955 23.80000000000001 33 15.199999999999989 4.5 30.399999999999977-1.1000000000000227 38.80000000000001-15.200000000000045 16.799999999999955-28.299999999999955 33.099999999999966-56.799999999999955 49.5-85.29999999999995 10.199999999999989-17.800000000000068 5.599999999999966-37.80000000000007-10.800000000000011-47.5z m311.49999999999994 6.5c-10.699999999999932-18.200000000000045-30.59999999999991-23.800000000000068-47.39999999999998-13.900000000000091-16.399999999999977 9.700000000000045-21.100000000000023 29.700000000000045-10.899999999999977 47.5 8.100000000000023 14.300000000000068 16.5 28.40000000000009 24.799999999999955 42.700000000000045 8.400000000000091 14.5 16.40000000000009 29.100000000000023 25.200000000000045 43.39999999999998 8.399999999999977 13.700000000000045 24.299999999999955 19.200000000000045 39.200000000000045 14.5 13.699999999999932-4.2999999999999545 23-17.399999999999977 23-33.60000000000002 0.39999999999997726-5.199999999999932-1.900000000000091-11.099999999999909-5.100000000000023-16.699999999999932-16.300000000000068-28-32.39999999999998-56-48.80000000000007-83.89999999999998z"/>
</svg>
