<svg xmlns="http://www.w3.org/2000/svg" viewBox="0 0 1000 1000" width="1000" height="1000">
<path d="M661.7 631.5c-12 4.399999999999977-16.700000000000045 4.7000000000000455-22.200000000000045-8.899999999999977-41.60000000000002-103.39999999999998-138.2-160.5-248-147.70000000000005-100.39999999999998 11.600000000000023-179.5 91-198 198.5-1.0999999999999943 6.5-0.19999999999998863 14.5-8.099999999999994 17.899999999999977-17.900000000000006 7.5-31.900000000000006 18.200000000000045-43.400000000000006 31.100000000000023v-0.39999999999997726s-84.2 79.70000000000005-1.8000000000000114 171.60000000000002c2.3000000000000114 2.6000000000000227 4.600000000000023 5.2999999999999545 7 7.7999999999999545l1.1000000000000227 1.2000000000000455 0.09999999999999432-0.20000000000004547c20 19.200000000000045 45.599999999999994 30.700000000000045 77 33.60000000000002 32.099999999999994 3 64.70000000000002 0.20000000000004547 96.99999999999997 1.1000000000000227l278.5-0.39999999999997726c42.39999999999998 0 80.70000000000005 1.099999999999909 118.89999999999998-0.3000000000000682 67.60000000000002-2.3999999999999773 116.20000000000005-34.89999999999998 143.5-96.69999999999993 25.800000000000068-58.5 13.100000000000023-127.10000000000002-32.69999999999993-171.70000000000005-47.89999999999998-46.60000000000002-105.20000000000005-59.89999999999998-168.89999999999998-36.5z m-348.1-255.10000000000002c-3.2000000000000455 9.200000000000045-5.600000000000023 18.400000000000034-7.400000000000034 27.700000000000045 150.60000000000002-24.200000000000045 293.90000000000003 24.5 395.3 132.60000000000002 3.5-7.300000000000068 6.7000000000000455-14.800000000000068 9.5-22.700000000000045 37.799999999999955-109.60000000000002-20.200000000000045-228.7-129.79999999999995-266.6-110.10000000000002-38.19999999999999-229.80000000000007 19.600000000000023-267.6 129z m550-28.69999999999999c-31.800000000000068 5.300000000000011-63.39999999999998 11.600000000000023-94.89999999999998 18.30000000000001-12.5 2.6000000000000227-20.700000000000045 14.600000000000023-21.100000000000023 27.5-0.39999999999997726 12.699999999999989 8.100000000000023 25 20 29.30000000000001 4.5 1.8000000000000114 9.100000000000023 2.3000000000000114 13.699999999999932 1.5 30.90000000000009-5.800000000000011 61.90000000000009-11.400000000000034 92.60000000000002-17.900000000000034 15.700000000000045-3.2999999999999545 24.899999999999977-18.69999999999999 22-34.099999999999966-2.699999999999932-15.699999999999989-16.5-27.19999999999999-32.299999999999955-24.600000000000023z m-268.4-123.6c15.899999999999977 5.400000000000006 32.59999999999991-3 38.39999999999998-19.400000000000006 4.899999999999977-13.799999999999983 9.600000000000023-27.799999999999983 14.399999999999977-41.69999999999999l14.100000000000023-41 0.5-1.5c5.199999999999932-16.099999999999994-2.800000000000068-32.7-18.5-38.2-15.899999999999977-5.599999999999994-32.89999999999998 2.5-38.60000000000002 18.900000000000006-9.799999999999955 27.999999999999986-19.399999999999977 56.10000000000001-29 84.2-5.5 16.299999999999983 2.7999999999999545 33.29999999999998 18.700000000000045 38.69999999999999z m-433.20000000000005 133.00000000000003c14.199999999999989 5 28.400000000000006 9.699999999999989 42.5 14.599999999999966l41.69999999999999 14.400000000000034c16.100000000000023 5.399999999999977 32.10000000000002-1.8000000000000114 38.19999999999999-17.200000000000045 6-15.399999999999977-0.8999999999999773-33-16.899999999999977-38.89999999999998-29.099999999999994-10.699999999999989-58.400000000000006-20.69999999999999-87.9-30.19999999999999-15.799999999999983-5.100000000000023-32.5 4.5-37.19999999999999 19.5-5 15.800000000000011 3.4000000000000057 32.099999999999966 19.599999999999994 37.80000000000001z m702.5 177.69999999999993c-29.100000000000023-10.699999999999932-58.39999999999998-20.699999999999932-87.89999999999998-30.199999999999932-15.800000000000068-5.100000000000023-32.5 4.5-37.200000000000045 19.5-4.899999999999977 15.799999999999955 3.5 32 19.600000000000023 37.69999999999993 14.200000000000045 4.900000000000091 28.399999999999977 9.700000000000045 42.39999999999998 14.600000000000023l41.700000000000045 14.399999999999977c16.100000000000023 5.400000000000091 32.10000000000002-1.7999999999999545 38.19999999999993-17.199999999999932 6.100000000000023-15.300000000000068-0.7999999999999545-32.89999999999998-16.799999999999955-38.80000000000007z m-157-230.99999999999994c10 3.1999999999999886 19.799999999999955 2.5 27.700000000000045-4.400000000000034 24-20.299999999999955 47.89999999999998-40.799999999999955 71.19999999999993-61.79999999999998 11.800000000000068-10.599999999999994 11.800000000000068-28.799999999999983 1.7000000000000455-40.599999999999994-10.300000000000068-12-28.300000000000068-14.800000000000011-40.39999999999998-4.699999999999989-24.40000000000009 20.19999999999999-48.60000000000002 40.89999999999998-71.80000000000007 62.29999999999998-16.100000000000023 15.099999999999994-9.199999999999932 41.900000000000006 11.600000000000023 49.20000000000002z m-256.8-94.80000000000001c22 7.400000000000006 43.19999999999999-10.400000000000006 39.10000000000002-33.599999999999994-5.300000000000011-29.700000000000017-11.199999999999989-59.2-17.30000000000001-88.80000000000001-3.6000000000000227-17.099999999999994-18.899999999999977-26.799999999999997-35.39999999999998-23.499999999999993-16.400000000000034 3.3000000000000043-26.80000000000001 18.199999999999996-23.600000000000023 35.199999999999996 5.399999999999977 29.400000000000006 11.300000000000011 58.7 17.19999999999999 88.00000000000001 2.3000000000000114 11.199999999999989 8.900000000000034 19 20 22.69999999999999z m-139.59999999999997 53c3.6999999999999886 4.199999999999989 8.099999999999966 7.199999999999989 11.799999999999955 8.300000000000011 14.400000000000034 4.800000000000011 28.400000000000034 0.39999999999997726 35.900000000000034-10.400000000000034 7.899999999999977-11.299999999999983 7.599999999999966-25.799999999999983-1.6000000000000227-36.599999999999966-19.599999999999966-22.900000000000006-39.39999999999998-45.60000000000002-59.30000000000001-68.10000000000002-11.699999999999989-13.099999999999994-30.399999999999977-14.199999999999989-42.89999999999998-3.0999999999999943-12.900000000000006 11.400000000000006-13.900000000000006 29.099999999999994-2.0999999999999943 42.80000000000001 19.200000000000017 22.5 38.79999999999998 44.79999999999998 58.20000000000002 67.1z"/>
</svg>
