<svg xmlns="http://www.w3.org/2000/svg" viewBox="0 0 1000 1000" width="1000" height="1000">
<path d="M630.3 726.6c-33.39999999999998 32.39999999999998-66.09999999999991 65.60000000000002-98.79999999999995 98.69999999999993-6.899999999999977 7-7.7999999999999545 16.300000000000068-3.2999999999999545 25.100000000000023 4.399999999999977 8.5 11.599999999999909 13.600000000000023 24.699999999999932 13.5 3.5 0.20000000000004547 8.899999999999977-2.6000000000000227 13.300000000000068-6.899999999999977 32.5-32.299999999999955 65.19999999999993-64.5 97-97.39999999999998 9.5-9.800000000000068 9.699999999999932-22-0.6000000000000227-32.200000000000045-10.200000000000045-10.100000000000023-22.399999999999977-10.399999999999977-32.30000000000007-0.7999999999999545z m122.5 49c-1.6999999999999318 0.5-4.099999999999909 0.6999999999999318-6 1.7999999999999545-23.299999999999955 14.300000000000068-42 33.60000000000002-56.69999999999993 56.30000000000007-5.5 8.399999999999977-0.39999999999997726 17.59999999999991 6.699999999999932 24.09999999999991 7.300000000000068 6.7000000000000455 17.100000000000023 9.300000000000068 24.90000000000009 3.6000000000000227 20-14.600000000000023 38.19999999999993-31.699999999999932 52.09999999999991-52.19999999999993 9.400000000000091-13.800000000000068-3.699999999999932-33.40000000000009-21-33.60000000000002z m132.70000000000005-472.90000000000003c-54.39999999999998-52.89999999999998-119.10000000000002-68-191.39999999999998-41.599999999999966-13.5 5-18.899999999999977 5.399999999999977-25.100000000000023-10.100000000000023-47.10000000000002-117.19999999999999-156.60000000000002-181.7-280.9-167.3-113.70000000000005 13.300000000000011-203.3 103.10000000000002-224.3 224.8-1.3000000000000114 7.300000000000011-0.20000000000001705 16.5-9.100000000000023 20.30000000000001-20.19999999999999 8.5-36.099999999999994 20.69999999999999-49.099999999999994 35.099999999999966l-0.09999999999999432-0.2999999999999545s-95.4 90.29999999999995-2.0999999999999943 194.39999999999998c2.5999999999999943 3 5.099999999999994 6.100000000000023 7.8999999999999915 8.799999999999955 0.5 0.5 0.7999999999999972 0.900000000000091 1.2000000000000028 1.400000000000091l0.09999999999999432-0.20000000000004547c22.599999999999994 21.700000000000045 51.599999999999994 34.799999999999955 87.20000000000002 38.10000000000002 36.39999999999998 3.2999999999999545 73.30000000000001 0.1999999999999318 109.89999999999998 1.1999999999999318l315.50000000000006-0.5c48 0 91.39999999999998 1.2000000000000455 134.69999999999993-0.2999999999999545 76.5-2.6000000000000227 131.70000000000005-39.5 162.60000000000002-109.60000000000002 29.299999999999955-66.09999999999997 14.899999999999977-143.7-37-194.2z m-604 422.90000000000003c0 29.699999999999932-24.100000000000023 53.89999999999998-53.900000000000006 53.89999999999998-29.69999999999999 0-53.900000000000006-24.100000000000023-53.900000000000006-53.89999999999998 0-29.700000000000045 24.100000000000023-53.89999999999998 53.900000000000006-53.89999999999998 29.799999999999983 0.09999999999990905 53.900000000000006 24.199999999999932 53.900000000000006 53.89999999999998z m244.79999999999995 8.399999999999977c0 25.100000000000023-20.399999999999977 45.5-45.49999999999994 45.5s-45.5-20.399999999999977-45.5-45.5 20.399999999999977-45.5 45.5-45.5 45.49999999999994 20.399999999999977 45.49999999999994 45.5z m-124.79999999999995 118.60000000000002c0 19.100000000000023-15.5 34.60000000000002-34.60000000000002 34.60000000000002s-34.599999999999966-15.5-34.599999999999966-34.60000000000002 15.5-34.60000000000002 34.599999999999966-34.60000000000002c19.100000000000023-0.10000000000002274 34.60000000000002 15.399999999999977 34.60000000000002 34.60000000000002z m107.89999999999998 39.19999999999993c0 14.400000000000091-11.699999999999989 26.200000000000045-26.19999999999999 26.200000000000045s-26.19999999999999-11.799999999999955-26.19999999999999-26.200000000000045c0-14.399999999999977 11.699999999999989-26.199999999999932 26.19999999999999-26.199999999999932s26.19999999999999 11.699999999999932 26.19999999999999 26.199999999999932z m-131.7-145c0 9.600000000000023-7.699999999999989 17.300000000000068-17.30000000000001 17.300000000000068s-17.299999999999955-7.7000000000000455-17.299999999999955-17.300000000000068c0-9.599999999999909 7.699999999999989-17.299999999999955 17.299999999999955-17.299999999999955s17.30000000000001 7.7000000000000455 17.30000000000001 17.299999999999955z"/>
</svg>
