<svg xmlns="http://www.w3.org/2000/svg" viewBox="0 0 1000 1000" width="1000" height="1000">
<path d="M885.5 342.1c-54.39999999999998-52.900000000000034-119.10000000000002-68-191.39999999999998-41.60000000000002-13.5 5-18.899999999999977 5.399999999999977-25.100000000000023-10.100000000000023-47.10000000000002-117.09999999999997-156.5-181.7-280.9-167.2-113.70000000000005 13.200000000000017-203.3 103.10000000000002-224.3 224.8-1.3000000000000114 7.300000000000011-0.20000000000001705 16.5-9.100000000000023 20.30000000000001-20.19999999999999 8.5-36.099999999999994 20.69999999999999-49.099999999999994 35.099999999999966l-0.09999999999999432-0.2999999999999545s-95.4 90.29999999999995-2.0999999999999943 194.39999999999998c2.5999999999999943 3 5.099999999999994 6.100000000000023 7.8999999999999915 8.799999999999955 0.5 0.5 0.7999999999999972 0.900000000000091 1.2000000000000028 1.400000000000091l0.09999999999999432-0.20000000000004547c22.599999999999994 21.700000000000045 51.599999999999994 34.799999999999955 87.20000000000002 38.10000000000002 36.39999999999998 3.2999999999999545 73.30000000000001 0.1999999999999318 109.89999999999998 1.1999999999999318l315.50000000000006-0.5c48 0 91.39999999999998 1.2000000000000455 134.69999999999993-0.2999999999999545 76.5-2.6000000000000227 131.70000000000005-39.5 162.60000000000002-109.60000000000002 29.299999999999955-66.19999999999999 14.899999999999977-143.89999999999998-37-194.29999999999995z m-664.7 383.5c-11.799999999999955-5.399999999999977-21.099999999999966-0.20000000000004547-29.299999999999955 7.899999999999977-32.5 32.39999999999998-64.8 65-97.4 97.20000000000005-12.399999999999991 12.199999999999932-20.19999999999999 25.699999999999932-5.299999999999997 40.09999999999991 14.299999999999997 13.700000000000045 28.200000000000003 7.100000000000023 40.60000000000001-5.399999999999977 31.19999999999999-31.5 62.69999999999999-62.69999999999993 94-94.10000000000002 6.099999999999994-6.099999999999909 12.099999999999994-12.199999999999932 12-20.799999999999955 1-12.399999999999977-4.400000000000006-20.200000000000045-14.599999999999994-24.899999999999977z m299.80000000000007 4c-9.400000000000034-4.300000000000068-16.80000000000001-0.20000000000004547-23.30000000000001 6.2999999999999545-25.900000000000034 25.800000000000068-51.69999999999999 51.80000000000007-77.69999999999999 77.5-9.900000000000034 9.800000000000068-16.100000000000023 20.5-4.2000000000000455 31.899999999999977 11.400000000000034 10.900000000000091 22.5 5.7000000000000455 32.400000000000034-4.2999999999999545 24.899999999999977-25.100000000000023 50-50 74.99999999999994-75 4.900000000000091-4.899999999999977 9.700000000000045-9.799999999999955 9.600000000000023-16.600000000000023 0.6000000000000227-9.799999999999955-3.699999999999932-16.100000000000023-11.799999999999955-19.799999999999955z m141.29999999999995 3.2999999999999545c-34.69999999999993 33.700000000000045-68.69999999999993 68.10000000000002-102.60000000000002 102.5-7.199999999999932 7.300000000000068-8.099999999999909 16.899999999999977-3.3999999999999773 26.100000000000023 4.600000000000023 8.799999999999955 12.100000000000023 14.100000000000023 25.600000000000023 14 3.7000000000000455 0.20000000000004547 9.299999999999955-2.7000000000000455 13.799999999999955-7.2000000000000455 33.700000000000045-33.5 67.60000000000002-66.89999999999998 100.70000000000005-101.09999999999991 9.899999999999977-10.200000000000045 10-22.90000000000009-0.6000000000000227-33.5-10.5-10.400000000000091-23.199999999999932-10.800000000000068-33.5-0.8000000000000682z m127.30000000000007 50.89999999999998c-1.8000000000000682 0.5-4.300000000000068 0.7000000000000455-6.2000000000000455 1.900000000000091-24.200000000000045 14.899999999999977-43.60000000000002 34.89999999999998-58.89999999999998 58.39999999999998-5.7000000000000455 8.699999999999932-0.39999999999997726 18.299999999999955 7 25.100000000000023 7.600000000000023 7 17.799999999999955 9.699999999999932 25.899999999999977 3.7999999999999545 20.799999999999955-15.200000000000045 39.700000000000045-33 54.10000000000002-54.200000000000045 9.600000000000023-14.5-4-34.89999999999998-21.899999999999977-35z m-467.40000000000003-1.3999999999999773c-19 14.899999999999977-36.80000000000001 31.399999999999977-50.5 51.10000000000002-10.800000000000011 15.600000000000023 2.3999999999999773 36.799999999999955 21.599999999999966 36.200000000000045 1.5-0.40000000000009095 4.100000000000023-0.6000000000000227 5.900000000000034-1.8000000000000682 23.19999999999999-14.699999999999932 42.19999999999999-34 57.19999999999999-56.69999999999993 5.899999999999977-8.900000000000091 2.3999999999999773-20-6.399999999999977-27.200000000000045-8.600000000000023-6.899999999999977-18.600000000000023-8.799999999999955-27.80000000000001-1.6000000000000227z"/>
</svg>
