<svg xmlns="http://www.w3.org/2000/svg" viewBox="0 0 1000 1000" width="1000" height="1000">
<path d="M529.6 380.7c-30.900000000000034-30-67.60000000000002-38.599999999999966-108.60000000000002-23.599999999999966-7.699999999999989 2.7999999999999545-10.800000000000011 3.099999999999966-14.300000000000011-5.800000000000011-26.69999999999999-66.40000000000003-88.80000000000001-103.10000000000002-159.39999999999998-94.80000000000001-64.5 7.399999999999977-115.30000000000001 58.5-127.30000000000001 127.5-0.7000000000000028 4.100000000000023-0.09999999999999432 9.399999999999977-5.200000000000003 11.5-11.5 4.800000000000011-20.5 11.699999999999989-27.89999999999999 19.899999999999977l-0.10000000000000853-0.19999999999998863s-54.199999999999996 51.30000000000001-1.2000000000000028 110.30000000000001c1.5 1.7000000000000455 2.9000000000000057 3.3999999999999773 4.5 5l0.7000000000000028 0.7999999999999545 0.10000000000000853-0.09999999999990905c12.899999999999991 12.299999999999955 29.299999999999997 19.799999999999955 49.400000000000006 21.59999999999991 20.599999999999994 1.900000000000091 41.599999999999994 0.10000000000002274 62.39999999999998 0.7000000000000455l179-0.2999999999999545c27.30000000000001 0 51.900000000000034 0.6999999999999318 76.5-0.20000000000004547 43.400000000000034-1.5 74.69999999999999-22.399999999999977 92.19999999999999-62.19999999999999 16.800000000000068-37.400000000000034 8.600000000000023-81.5-20.799999999999955-110.10000000000002z m161.69999999999993 123.10000000000002c-38.69999999999993-0.19999999999998863-77.29999999999995-0.10000000000002274-115.89999999999998-0.19999999999998863l-0.10000000000002274 0.2999999999999545c-8.599999999999909 19.5-20.699999999999932 34.30000000000007-36 44.30000000000007 51.5 0 103.10000000000002-0.10000000000002274 154.70000000000005 0.1999999999999318 54.200000000000045 0.3000000000000682 93.79999999999995 43.60000000000002 88.39999999999998 95.70000000000005-3.8999999999999773 37.5-46.299999999999955 65.5-80.10000000000002 53-27.59999999999991-10.100000000000023-40.299999999999955-43.10000000000002-24.899999999999977-64.30000000000007 12.700000000000045-17.399999999999977 36.200000000000045-18.399999999999977 50.30000000000007-2.099999999999909 8.299999999999955 9.599999999999909 20.5 11.099999999999909 30.399999999999977 3.7999999999999545 8.899999999999977-6.600000000000023 11.100000000000023-19.100000000000023 5-29.5-14-24-47.200000000000045-36-77-28.299999999999955-58.5 15.199999999999932-77.10000000000002 81-42.200000000000045 129.69999999999993 15.700000000000045 22 38.10000000000002 32.700000000000045 63.80000000000007 38.10000000000002h24.799999999999955c9.799999999999955-3.1000000000000227 19.899999999999977-5.2000000000000455 29.200000000000045-9.299999999999955 58.39999999999998-25.200000000000045 82.89999999999998-93.60000000000002 54.299999999999955-154-24.799999999999955-51.90000000000009-67.5-77.10000000000002-124.70000000000005-77.40000000000003z m-94.89999999999998-124.69999999999999c12.399999999999977 1 23.300000000000068-6.5 23.700000000000045-19.100000000000023 0.7999999999999545-21 16.799999999999955-33.89999999999998 30.399999999999977-34.69999999999999 20.899999999999977-1.1999999999999886 40.799999999999955 12.199999999999989 46.700000000000045 31.80000000000001 10.099999999999909 33.5-16.800000000000068 73.19999999999999-51.90000000000009 76-22.299999999999955 1.6999999999999886-44.69999999999993 1.599999999999966-67 1.1999999999999886 4.800000000000068 14 6.2000000000000455 29 4.2000000000000455 43.80000000000001 19.299999999999955 0 38.60000000000002 0.0999999999999659 57.89999999999998 0 55.89999999999998-0.30000000000001137 105.10000000000002-50 103.70000000000005-106-1.3000000000000682-52.5-37.89999999999998-89.20000000000005-89.89999999999998-91.5-40.90000000000009-1.8000000000000114-77 33.89999999999998-77.5 75.09999999999997-0.20000000000004547 12.900000000000034 7.899999999999977 22.5 19.699999999999932 23.400000000000034z m323.4-14.600000000000023c-17.299999999999955-19.80000000000001-39.89999999999998-27.899999999999977-66-22.100000000000023-23.799999999999955 5.300000000000011-38.69999999999993 20.80000000000001-45.59999999999991 44.30000000000001-1.5 5.100000000000023-1.7000000000000455 10.100000000000023-1.400000000000091 15.300000000000011 0.40000000000009095 11.699999999999989 8.600000000000023 20.100000000000023 19.90000000000009 21 11.599999999999909 0.8999999999999773 20.299999999999955-5.600000000000023 23.09999999999991-17.30000000000001 4-16.69999999999999 9.800000000000068-22 21.600000000000023-19.899999999999977 14 2.3999999999999773 23.600000000000023 16.099999999999966 21.5 30.399999999999977-3 20.19999999999999-18.899999999999977 33.19999999999999-41.69999999999993 33.400000000000034h-84.5c-12.900000000000091 0.0999999999999659-21.200000000000045 5.899999999999977-23.700000000000045 15.699999999999989-3.6000000000000227 14.099999999999966 4.7999999999999545 26.899999999999977 19.700000000000045 27.599999999999966 17.5 0.9000000000000341 35 0.20000000000004547 52.59999999999991 0.20000000000004547 22.5-0.6000000000000227 45.200000000000045 3.099999999999966 67.5-4.400000000000034 52-17.599999999999966 72.20000000000005-83.80000000000001 37-124.19999999999999z m-557.8 246.10000000000002v4l-3.8000000000000114-3.800000000000068-2.5 2.6000000000000227 6.300000000000011 6.300000000000068v6.899999999999977c0.6000000000000227-0.10000000000002274 1.1999999999999886-0.20000000000004547 1.8000000000000114-0.20000000000004547 0.5999999999999659 0 1.1999999999999886 0.10000000000002274 1.8000000000000114 0.20000000000004547v-6.899999999999977l6.2999999999999545-6.300000000000068-2.5-2.6000000000000227-3.7999999999999545 3.800000000000068v-4h-3.6000000000000227z m3.6000000000000227 33.10000000000002c-0.6000000000000227 0.09999999999990905-1.2000000000000455 0.1999999999999318-1.8000000000000114 0.1999999999999318-0.6000000000000227 0-1.1999999999999886-0.10000000000002274-1.8000000000000114-0.1999999999999318v6.899999999999977l-6.300000000000011 6.2999999999999545 2.5 2.6000000000000227 3.8000000000000114-3.7999999999999545v4h3.6999999999999886v-4l3.8000000000000114 3.7999999999999545 2.5-2.6000000000000227-6.300000000000011-6.2999999999999545-0.0999999999999659-6.899999999999977z m-10.200000000000045-6.800000000000068c-0.19999999999998863-0.6000000000000227-0.19999999999998863-1.1999999999999318-0.19999999999998863-1.7999999999999545 0-0.6000000000000227 0.10000000000002274-1.2000000000000455 0.19999999999998863-1.8000000000000682h-6.899999999999977l-6.300000000000011-6.2999999999999545-2.599999999999966 2.5 3.7999999999999545 3.7999999999999545h-4v3.7000000000000455h4l-3.7999999999999545 3.7999999999999545 2.599999999999966 2.5 6.300000000000011-6.2999999999999545 6.899999999999977-0.10000000000002274z m-12.699999999999989-11.299999999999955h8.900000000000034l4.899999999999977 4.7999999999999545c0.6999999999999886-1 1.6000000000000227-1.8999999999999773 2.5-2.6000000000000227l-4.899999999999977-4.7999999999999545-0.10000000000002274-8.899999999999977h-3.6999999999999886v5.2999999999999545l-2.900000000000034-2.8999999999999773-2.5 2.6000000000000227 2.900000000000034 2.7999999999999545h-5.300000000000011l0.19999999999998863 3.7000000000000455z m7.800000000000011 30.600000000000023h3.6999999999999886l0.10000000000002274-8.900000000000091 4.899999999999977-4.7999999999999545c-1-0.7000000000000455-1.8999999999999773-1.6000000000000227-2.5-2.6000000000000227l-4.899999999999977 4.800000000000068h-8.900000000000034v3.699999999999932h5.300000000000011l-2.8999999999999773 2.8999999999999773 2.5 2.6000000000000227 2.8999999999999773-2.8999999999999773-0.19999999999998863 5.2000000000000455z m37.80000000000001-26.600000000000023l-2.6000000000000227-2.5-6.300000000000011 6.2999999999999545h-6.899999999999977c0.10000000000002274 0.6000000000000227 0.19999999999998863 1.2000000000000455 0.19999999999998863 1.8000000000000682s-0.0999999999999659 1.1999999999999318-0.19999999999998863 1.7999999999999545h6.899999999999977l6.300000000000011 6.2999999999999545 2.6000000000000227-2.5-3.8000000000000114-3.7999999999999545h4v-3.7000000000000455h-4l3.8000000000000114-3.699999999999932z m-14.600000000000023-15.5l-0.0999999999999659 8.899999999999977-4.900000000000034 4.7999999999999545c1 0.7000000000000455 1.900000000000034 1.6000000000000227 2.5 2.6000000000000227l4.900000000000034-4.7999999999999545h8.899999999999977v-3.6000000000000227h-5.300000000000011l2.900000000000034-2.7999999999999545-2.5-2.6000000000000227-2.900000000000034 2.8999999999999773v-5.2999999999999545h-3.5z m11.5 30.5h-8.899999999999977l-4.900000000000034-4.800000000000068c-0.6999999999999886 1-1.599999999999966 1.900000000000091-2.5 2.6000000000000227l4.900000000000034 4.800000000000068 0.0999999999999659 8.899999999999977h3.7000000000000455v-5.300000000000068l2.8999999999999773 2.900000000000091 2.5-2.6000000000000227-2.8999999999999773-2.8999999999999773h5.2999999999999545l-0.19999999999998863-3.6000000000000227z m-14.699999999999989-9.399999999999977c0 3.699999999999932-3 6.599999999999909-6.600000000000023 6.599999999999909-3.6999999999999886 0-6.599999999999966-3-6.599999999999966-6.599999999999909 0-3.7000000000000455 3-6.600000000000023 6.599999999999966-6.600000000000023 3.6000000000000227-0.10000000000002274 6.600000000000023 2.8999999999999773 6.600000000000023 6.600000000000023z m-156.4-61.200000000000045v9.100000000000023l-8.400000000000006-8.399999999999977-5.799999999999983 5.7999999999999545 14.299999999999983 14.299999999999955v15.5c1.3000000000000114-0.2999999999999545 2.700000000000017-0.39999999999997726 4.100000000000023-0.39999999999997726 1.3999999999999773 0 2.799999999999983 0.20000000000004547 4.099999999999994 0.39999999999997726v-15.5l14.299999999999983-14.299999999999955-5.799999999999983-5.7999999999999545-8.400000000000006 8.399999999999977v-9.100000000000023h-8.400000000000006z m8.200000000000017 74.5c-1.3000000000000114 0.2999999999999545-2.700000000000017 0.39999999999997726-4.100000000000023 0.39999999999997726-1.3999999999999773 0-2.799999999999983-0.1999999999999318-4.099999999999994-0.39999999999997726v15.5l-14.299999999999983 14.299999999999955 5.799999999999983 5.800000000000068 8.400000000000006-8.399999999999977v9h8.199999999999989v-9.100000000000023l8.400000000000006 8.399999999999977 5.800000000000011-5.7999999999999545-14.300000000000011-14.300000000000068v-15.399999999999977h0.20000000000001705z m-23.200000000000017-15.200000000000045c-0.29999999999998295-1.2999999999999545-0.4000000000000057-2.699999999999932-0.4000000000000057-4.099999999999909 0-1.400000000000091 0.20000000000001705-2.800000000000068 0.4000000000000057-4.100000000000023h-15.5l-14.299999999999983-14.300000000000068-5.800000000000011 5.800000000000068 8.400000000000006 8.399999999999977h-9.099999999999994v8.200000000000045h9.099999999999994l-8.400000000000006 8.5 5.800000000000011 5.7999999999999545 14.299999999999983-14.299999999999955 15.5 0.09999999999990905z m-28.5-25.299999999999955l20.099999999999994-0.10000000000002274 11 10.800000000000068c1.5-2.400000000000091 3.5-4.300000000000068 5.800000000000011-5.900000000000091l-11-10.799999999999955-0.09999999999999432-20.100000000000023h-8.200000000000017l0.10000000000002274 11.899999999999977-6.5-6.399999999999977-5.800000000000011 5.899999999999977 6.5 6.400000000000091-11.900000000000006 0.09999999999990905v8.200000000000045z m31.099999999999994 31.700000000000045l-11 10.799999999999955-20.099999999999994-0.10000000000002274v8.200000000000045h11.900000000000006l-6.5 6.399999999999977 5.800000000000011 5.899999999999977 6.5-6.399999999999977-0.10000000000002274 11.899999999999977h8.200000000000017l0.09999999999999432-20.100000000000023 11-10.799999999999955c-2.3000000000000114-1.5-4.300000000000011-3.5-5.800000000000011-5.7999999999999545z m71.5-23l-5.800000000000011-5.800000000000068-14.299999999999983 14.200000000000045h-15.5c0.30000000000001137 1.2999999999999545 0.4000000000000057 2.699999999999932 0.4000000000000057 4.100000000000023 0 1.3999999999999773-0.19999999999998863 2.7999999999999545-0.4000000000000057 4.099999999999909h15.5l14.299999999999983 14.300000000000068 5.800000000000011-5.800000000000068-8.399999999999977-8.5h9.099999999999966v-8.199999999999932h-9.099999999999966l8.399999999999977-8.399999999999977z m-32.89999999999998-34.80000000000007l-0.10000000000002274 20.100000000000023-11 10.799999999999955c2.3000000000000114 1.5 4.300000000000011 3.5 5.800000000000011 5.900000000000091l11-10.800000000000068 20.100000000000023 0.10000000000002274v-8.200000000000045l-11.900000000000034-0.09999999999990905 6.5-6.400000000000091-5.799999999999983-5.899999999999977-6.5 6.399999999999977 0.09999999999999432-11.899999999999977h-8.199999999999989z m25.899999999999977 68.60000000000002l-20.099999999999994 0.10000000000002274-11-10.800000000000068c-1.5 2.400000000000091-3.5 4.300000000000068-5.799999999999983 5.900000000000091l11 10.799999999999955 0.09999999999999432 20.100000000000023h8.199999999999989l-0.09999999999999432-11.899999999999977 6.5 6.399999999999977 5.800000000000011-5.899999999999977-6.5-6.400000000000091h11.899999999999977v-8.299999999999955z m-48-36.200000000000045c-8.199999999999989 0-14.899999999999977 6.600000000000023-14.899999999999977 14.900000000000091 0 8.199999999999932 6.599999999999994 14.899999999999977 14.899999999999977 14.899999999999977s14.900000000000006-6.600000000000023 14.900000000000006-14.899999999999977c0-8.200000000000045-6.699999999999989-14.900000000000091-14.900000000000006-14.900000000000091z m81 70.60000000000002v-3.1000000000000227h-2.8000000000000114v3.1000000000000227l-2.8999999999999773-2.8999999999999773-1.8999999999999773 2 4.7999999999999545 4.7999999999999545v5.2000000000000455c0.4000000000000341-0.10000000000002274 0.9000000000000341-0.20000000000004547 1.400000000000034-0.20000000000004547 0.5 0 1 0.10000000000002274 1.3999999999999773 0.20000000000004547v-5.2000000000000455l4.800000000000011-4.7999999999999545-1.8999999999999773-2-2.900000000000034 2.8999999999999773z m0 22.200000000000045c-0.39999999999997726 0.10000000000002274-0.8999999999999773 0.1999999999999318-1.3999999999999773 0.1999999999999318-0.5 0-1-0.09999999999990905-1.400000000000034-0.1999999999999318v5.199999999999932l-4.7999999999999545 4.800000000000068 1.8999999999999773 2 2.8999999999999773-2.8999999999999773v3.099999999999909h2.8000000000000114v-3.099999999999909l2.900000000000034 2.8999999999999773 1.8999999999999773-2-4.800000000000011-4.800000000000068v-5.199999999999932z m-7.800000000000011-5.2000000000000455c-0.0999999999999659-0.39999999999997726-0.19999999999998863-0.8999999999999773-0.19999999999998863-1.3999999999999773 0-0.39999999999997726 0.10000000000002274-1 0.19999999999998863-1.3999999999999773h-5.199999999999989l-4.800000000000011-4.800000000000068-2 1.900000000000091 2.900000000000034 2.8999999999999773h-3.1000000000000227v2.7999999999999545h3.1000000000000227l-2.900000000000034 2.8999999999999773 2 1.900000000000091 4.800000000000011-4.800000000000068h5.199999999999989z m-9.699999999999989-8.600000000000023h6.800000000000011l3.8000000000000114 3.7000000000000455c0.5-0.7999999999999545 1.099999999999966-1.5 1.8999999999999773-2l-3.8000000000000114-3.7000000000000455v-6.7999999999999545h-2.7999999999999545v4l-2.2000000000000455-2.2000000000000455-1.8999999999999773 2 2.1999999999999886 2.2000000000000455h-4v2.7999999999999545z m10.600000000000023 10.800000000000068l-3.8000000000000114 3.699999999999932h-6.800000000000011v2.800000000000068h4l-2.1999999999999886 2.199999999999932 1.8999999999999773 2 2.2000000000000455-2.199999999999932v4h2.7999999999999545v-6.800000000000068l3.8000000000000114-3.699999999999932c-0.8000000000000114-0.5-1.3999999999999773-1.2000000000000455-1.8999999999999773-2z m24.19999999999999-7.800000000000068l-2-1.8999999999999773-4.800000000000011 4.800000000000068h-5.199999999999989c0.10000000000002274 0.39999999999997726 0.19999999999998863 0.8999999999999773 0.19999999999998863 1.3999999999999773 0 0.39999999999997726-0.0999999999999659 1-0.19999999999998863 1.3999999999999773h5.199999999999989l4.800000000000011 4.7999999999999545 2-1.8999999999999773-2.8999999999999773-2.8999999999999773h3.099999999999966v-2.7999999999999545h-3.099999999999966l2.8999999999999773-2.900000000000091z m-11.100000000000023-11.799999999999955v6.7999999999999545l-3.7999999999999545 3.7000000000000455c0.7999999999999545 0.5 1.5 1.2000000000000455 1.8999999999999773 2l3.8000000000000114-3.7000000000000455h6.800000000000011v-2.7999999999999545h-4l2.1999999999999886-2.2000000000000455-1.900000000000034-2-2.1999999999999886 2.2000000000000455v-4h-2.8000000000000114z m8.800000000000011 23.299999999999955h-6.800000000000011l-3.7999999999999545-3.699999999999932c-0.5 0.7999999999999545-1.1000000000000227 1.5-1.900000000000034 2l3.8000000000000114 3.699999999999932v6.800000000000068h2.8000000000000114v-4l2.1999999999999886 2.199999999999932 1.8999999999999773-2-2.1999999999999886-2.199999999999932h4v-2.800000000000068z m-11.300000000000011-7.2999999999999545c0 2.7999999999999545-2.2999999999999545 5.100000000000023-5.099999999999966 5.100000000000023s-5.100000000000023-2.300000000000068-5.100000000000023-5.100000000000023 2.3000000000000114-5.100000000000023 5.100000000000023-5.100000000000023 5.099999999999966 2.300000000000068 5.099999999999966 5.100000000000023z m135-102.10000000000002v3.1000000000000227l-2.8999999999999773-2.8999999999999773-2 2 4.899999999999977 4.899999999999977v5.2999999999999545c0.4000000000000341-0.09999999999990905 1-0.1999999999999318 1.400000000000034-0.1999999999999318 0.5 0 1 0.10000000000002274 1.3999999999999773 0.1999999999999318v-5.2999999999999545l4.900000000000034-4.899999999999977-2-2-2.900000000000034 2.8999999999999773v-3.1000000000000227h-2.8000000000000114z m2.8000000000000114 25.800000000000068c-0.39999999999997726 0.09999999999990905-1 0.1999999999999318-1.3999999999999773 0.1999999999999318-0.5 0-1-0.10000000000002274-1.400000000000034-0.1999999999999318v5.2999999999999545l-4.899999999999977 4.899999999999977 2 2 2.8999999999999773-2.8999999999999773v3.1000000000000227h2.900000000000034v-3.1000000000000227l2.8999999999999773 2.8999999999999773 2-2-4.899999999999977-4.899999999999977-0.10000000000002274-5.2999999999999545z m-8.099999999999966-5.2000000000000455c-0.10000000000002274-0.39999999999997726-0.20000000000004547-1-0.20000000000004547-1.3999999999999773 0-0.5 0.10000000000002274-1 0.20000000000004547-1.3999999999999773h-5.300000000000011l-4.900000000000034-4.900000000000091-2 2 2.900000000000034 2.900000000000091h-3.1000000000000227v2.8999999999999773h3.1000000000000227l-2.900000000000034 3 2 2 4.900000000000034-5 5.300000000000011-0.10000000000002274z m-9.900000000000034-8.799999999999955h7l3.8000000000000114 3.7999999999999545c0.5-0.7999999999999545 1.1999999999999886-1.5 2-2l-3.8000000000000114-3.7999999999999545v-7h-2.8999999999999773v4.099999999999909l-2.3000000000000114-2.199999999999932-2 2 2.3000000000000114 2.199999999999932h-4.100000000000023v2.900000000000091z m10.900000000000034 11.099999999999909l-3.8000000000000114 3.800000000000068h-7v2.8999999999999773h4.099999999999966l-2.2999999999999545 2.2000000000000455 2 2 2.2999999999999545-2.2000000000000455v4.100000000000023h2.900000000000034v-7l3.8000000000000114-3.800000000000068c-0.8000000000000114-0.599999999999909-1.5-1.2999999999999545-2-2z m24.69999999999999-8.099999999999909l-2-2-4.900000000000034 4.899999999999977h-5.2999999999999545c0.0999999999999659 0.39999999999997726 0.19999999999998863 1 0.19999999999998863 1.3999999999999773 0 0.5-0.10000000000002274 1-0.19999999999998863 1.3999999999999773h5.2999999999999545l4.900000000000034 5 2-2-2.900000000000034-3h3.1000000000000227v-2.8999999999999773h-3.1000000000000227l2.900000000000034-2.7999999999999545z m-11.300000000000011-12.100000000000023v7l-3.8000000000000114 3.7999999999999545c0.8000000000000114 0.5 1.5 1.2000000000000455 2 2l3.8000000000000114-3.7999999999999545h7v-2.8999999999999773h-4.100000000000023l2.3000000000000114-2.2000000000000455-2-2-2.3000000000000114 2.2000000000000455v-4.100000000000023h-2.8999999999999773z m9 23.899999999999977h-7l-3.8000000000000114-3.7999999999999545c-0.5 0.7999999999999545-1.1999999999999886 1.5-2 2l3.8000000000000114 3.7999999999999545v7h2.8999999999999773v-4.100000000000023l2.3000000000000114 2.2000000000000455 2-2-2.3000000000000114-2.2000000000000455h4.100000000000023v-2.8999999999999773z m-11.600000000000023-7.399999999999977c0 2.8999999999999773-2.2999999999999545 5.199999999999932-5.199999999999989 5.199999999999932-2.8999999999999773 0-5.199999999999989-2.2999999999999545-5.199999999999989-5.199999999999932 0-2.8999999999999773 2.3000000000000114-5.2000000000000455 5.199999999999989-5.2000000000000455 2.900000000000034 0 5.199999999999989 2.300000000000068 5.199999999999989 5.2000000000000455z m-81.69999999999999 91.79999999999995v2.2000000000000455l-2-2-1.3999999999999773 1.3999999999999773 3.5 3.5v3.7999999999999545c0.30000000000001137-0.09999999999990905 0.5999999999999659-0.09999999999990905 1-0.09999999999990905 0.30000000000001137 0 0.6999999999999886 0 1 0.09999999999990905v-3.7999999999999545l3.5-3.5-1.400000000000034-1.3999999999999773-2 2v-2.2000000000000455h-2.1999999999999886z m2 18.100000000000023c-0.30000000000001137 0.10000000000002274-0.5999999999999659 0.10000000000002274-1 0.10000000000002274-0.30000000000001137 0-0.6999999999999886 0-1-0.10000000000002274v3.7999999999999545l-3.5 3.5 1.400000000000034 1.400000000000091 2-2v2.199999999999932h2v-2.199999999999932l2 2 1.3999999999999773-1.400000000000091-3.5-3.5 0.19999999999998863-3.7999999999999545z m-5.599999999999966-3.7000000000000455c-0.10000000000002274-0.2999999999999545-0.10000000000002274-0.599999999999909-0.10000000000002274-1 0-0.2999999999999545 0-0.6999999999999318 0.10000000000002274-1h-3.8000000000000114l-3.5-3.5-1.400000000000034 1.400000000000091 2 2h-2.099999999999966v2h2.1999999999999886l-2 2 1.3999999999999773 1.3999999999999773 3.5-3.5 3.7000000000000455 0.1999999999999318z m-6.900000000000034-6.099999999999909h4.900000000000034l2.6999999999999886 2.599999999999909c0.30000000000001137-0.5 0.8999999999999773-1 1.3999999999999773-1.3999999999999773l-2.6999999999999886-2.6000000000000227v-4.899999999999977h-2v2.8999999999999773l-1.6000000000000227-1.599999999999909-1.3999999999999773 1.3999999999999773 1.6000000000000227 1.6000000000000227h-2.900000000000034v2z m7.5 7.699999999999932l-2.6999999999999886 2.6000000000000227h-4.899999999999977v2h2.8999999999999773l-1.6000000000000227 1.6000000000000227 1.400000000000034 1.3999999999999773 1.599999999999966-1.6000000000000227v2.8999999999999773h2v-4.899999999999977l2.7000000000000455-2.6000000000000227c-0.5-0.39999999999997726-1-0.8999999999999773-1.400000000000034-1.3999999999999773z m17.5-5.600000000000023l-1.3999999999999773-1.3999999999999773-3.5 3.5h-3.8000000000000114c0.10000000000002274 0.3000000000000682 0.10000000000002274 0.6000000000000227 0.10000000000002274 1 0 0.3000000000000682 0 0.7000000000000455-0.10000000000002274 1h3.8000000000000114l3.5 3.5 1.3999999999999773-1.3999999999999773-2-2h2.1999999999999886v-2h-2.1999999999999886l2-2.2000000000000455z m-4.5-7.099999999999909l-1.599999999999966 1.599999999999909v-2.8999999999999773h-2v4.899999999999977l-2.7000000000000455 2.6000000000000227c0.5 0.3000000000000682 1 0.8999999999999773 1.400000000000034 1.3999999999999773l2.6999999999999886-2.599999999999909h4.899999999999977v-2h-2.8999999999999773l1.6000000000000227-1.6000000000000227-1.400000000000034-1.3999999999999773z m2.6999999999999886 15.299999999999955h-4.899999999999977l-2.6999999999999886-2.6000000000000227c-0.30000000000001137 0.5-0.9000000000000341 1-1.400000000000034 1.3999999999999773l2.7000000000000455 2.6000000000000227v4.899999999999977h2v-2.8999999999999773l1.599999999999966 1.6000000000000227 1.400000000000034-1.3999999999999773-1.6000000000000227-1.6000000000000227h2.8999999999999773v-2z m-8-5.2000000000000455c0 2-1.599999999999966 3.6000000000000227-3.599999999999966 3.6000000000000227s-3.6000000000000227-1.6000000000000227-3.6000000000000227-3.6000000000000227 1.6000000000000227-3.599999999999909 3.6000000000000227-3.599999999999909c1.8999999999999773 0 3.599999999999966 1.6999999999999318 3.599999999999966 3.599999999999909z m-74.09999999999997-92v1.6000000000000227l-1.5-1.5-1 1 2.5 2.5v2.7000000000000455c0.30000000000001137-0.10000000000002274 0.39999999999997726-0.10000000000002274 0.6999999999999886-0.10000000000002274s0.5 0 0.6999999999999886 0.10000000000002274v-2.7000000000000455l2.5-2.5-1-1-1.5 1.5v-1.6000000000000227h-1.3999999999999773z m0 17.90000000000009v1.599999999999909h1.5v-1.599999999999909l1.5 1.5 1-1-2.5-2.5v-2.7000000000000455c-0.30000000000001137 0.10000000000002274-0.4000000000000341 0.10000000000002274-0.6999999999999886 0.10000000000002274-0.30000000000001137 0-0.5 0-0.7000000000000455-0.10000000000002274v2.7000000000000455l-2.5 2.5 1 1 1.400000000000034-1.5z m-9-7.400000000000091h1.599999999999966l-1.5 1.5 1 1 2.5-2.5h2.7000000000000455c-0.10000000000002274-0.2999999999999545-0.10000000000002274-0.39999999999997726-0.10000000000002274-0.6999999999999318 0-0.3000000000000682 0-0.5 0.10000000000002274-0.7000000000000455h-2.6000000000000227l-2.5-2.5-1 1 1.5 1.5h-1.6000000000000227v1.3999999999999773z m1.3000000000000114-4.599999999999909h3.599999999999966l1.900000000000034 1.8999999999999773c0.2999999999999545-0.39999999999997726 0.5999999999999659-0.8000000000000682 1-1l-1.900000000000034-1.8999999999999773v-3.6000000000000227h-1.5v2.1000000000000227l-1.099999999999966-1.1000000000000227-1 1 1.099999999999966 1.1000000000000227h-2.099999999999966v1.5z m4.599999999999966 12.199999999999932v-3.6000000000000227l1.900000000000034-1.8999999999999773c-0.4000000000000341-0.2999999999999545-0.8000000000000114-0.6000000000000227-1-1l-1.900000000000034 1.8999999999999773h-3.599999999999966v1.5h2.099999999999966l-1.099999999999966 1.1000000000000227 1 1 1.099999999999966-1.1000000000000227v2.1000000000000227h1.5z m12.5-11.600000000000023l-2.5 2.5h-2.6999999999999886c0.10000000000002274 0.3000000000000682 0.10000000000002274 0.40000000000009095 0.10000000000002274 0.7000000000000455 0 0.2999999999999545 0 0.5-0.10000000000002274 0.7000000000000455h2.6999999999999886l2.5 2.5 1-1-1.5-1.5h1.6000000000000227v-1.5h-1.6000000000000227l1.5-1.5-1-0.900000000000091z m-4.699999999999989-5.099999999999909v3.599999999999909l-1.8999999999999773 1.900000000000091c0.39999999999997726 0.2999999999999545 0.7999999999999545 0.599999999999909 1 1l1.8999999999999773-1.900000000000091h3.6000000000000227v-1.5h-2.1000000000000227l1.1000000000000227-1.099999999999909-1-1-1.1000000000000227 1.099999999999909v-2.099999999999909h-1.5z m4.5 12.099999999999909h-3.6000000000000227l-1.8999999999999773-1.8999999999999773c-0.30000000000001137 0.39999999999997726-0.6000000000000227 0.8000000000000682-1 1l1.8999999999999773 1.8999999999999773v3.6000000000000227h1.5v-2.1000000000000227l1.1000000000000227 1.1000000000000227 1-1-1.1000000000000227-1.1000000000000227h2.1000000000000227v-1.5z m-5.800000000000011-3.7999999999999545c0 1.3999999999999773-1.1999999999999886 2.6000000000000227-2.599999999999966 2.6000000000000227-1.400000000000034 0-2.6000000000000227-1.2000000000000455-2.6000000000000227-2.6000000000000227 0-1.3999999999999773 1.1999999999999886-2.6000000000000227 2.6000000000000227-2.6000000000000227 1.3999999999999773 0 2.599999999999966 1.2000000000000455 2.599999999999966 2.6000000000000227z"/>
</svg>
