<svg xmlns="http://www.w3.org/2000/svg" viewBox="0 0 1000 1000" width="1000" height="1000">
<path d="M883.4 880.3c-102.29999999999995-108-146.39999999999998-242.0999999999999-171-384.79999999999995-5.699999999999932-32.80000000000001-0.8999999999999773-71.60000000000002-17.299999999999955-97.30000000000001-14.600000000000023-22.899999999999977-42.700000000000045-14-69.10000000000002-12.300000000000011h-0.10000000000002274c-4.5 0.30000000000001137-8.899999999999977 0.30000000000001137-13.299999999999955 0h-41c2.699999999999932-73.5 15.100000000000023-144.49999999999997 42-212.89999999999998-35.60000000000002 66.4-55.700000000000045 137.3-61.200000000000045 213h-13.100000000000023c-6.099999999999909-37.10000000000002-37.299999999999955-103.60000000000002-55.799999999999955-117 21.600000000000023 36.69999999999999 34.299999999999955 75.39999999999998 39.10000000000002 117h-22.200000000000045c-2 0.10000000000002274-4.099999999999966 0.10000000000002274-6 0l-81.29999999999995 0.10000000000002274-48.5 49.89999999999998 58.299999999999955 24.69999999999999-41.099999999999966 55.900000000000034 65.19999999999999 37.60000000000002-44.30000000000001 29.799999999999955 45.5 47.299999999999955-56 69.30000000000007 45.69999999999999 82.10000000000002-14.299999999999955 7.899999999999977-51-91.80000000000007 53.799999999999955-66.69999999999993-49-50.89999999999998 38.700000000000045-26-58.30000000000001-33.700000000000045 39.599999999999966-54-61.19999999999999-26 54-55.60000000000002h-53.599999999999966c-26.5 0.10000000000002274-52.900000000000034 0.10000000000002274-79.40000000000003 0.10000000000002274h-27.5l0.10000000000002274-0.10000000000002274c-39.20000000000002-0.0999999999999659-78.5-0.39999999999997726-117.70000000000002-1.099999999999966-36.3-0.6000000000000227-49.89999999999999 6.899999999999977-49.3 46.69999999999999 2.299999999999997 152 1.9000000000000057 304.1-0.3999999999999986 456.1-0.6000000000000014 36.799999999999955 10.800000000000004 44.799999999999955 45.9 44.60000000000002 261.5-1.400000000000091 523-0.7000000000000455 784.5-1.1000000000000227 11.100000000000023 0 12.900000000000091 0.39999999999997726 44.60000000000002-1-15.600000000000023-14.200000000000045-39.69999999999993-34.700000000000045-54-49.80000000000007z m-273.4-732.0999999999999c-22.799999999999955-8.30000000000004-43.60000000000002-10.200000000000045-63.10000000000002 2.499999999999943-19.799999999999955 12.900000000000006-27.299999999999955 31.80000000000001-25 56.70000000000002 26.200000000000045-28.5 57.10000000000002-44.80000000000001 93.60000000000002-50 2.8999999999999773-0.4000000000000057 7.7000000000000455 1.4000000000000057 9.100000000000023 3.6999999999999886 12.299999999999955 19.80000000000001 21.199999999999932 41.30000000000001 23.399999999999977 64.6 1.5 16 0.2999999999999545 32.30000000000001 0.2999999999999545 49.69999999999999 14.200000000000045-10 21-23.299999999999983 22.800000000000068-38.69999999999999 3.3999999999999773-28-8.100000000000023-50.5-28.5-69.19999999999999 37.10000000000002 19.80000000000001 66.10000000000002 48.69999999999999 93.10000000000002 82.69999999999999-7.2000000000000455-49.89999999999998-44.40000000000009-85.1-99.80000000000007-95.39999999999998 44-2.200000000000017 84.89999999999998 4.899999999999977 124.89999999999998 18.399999999999977-34.89999999999998-34.29999999999998-74.5-48.999999999999986-122.79999999999995-28.899999999999977 16.5-32.400000000000006 0-73.30000000000001-30.200000000000045-77.00000000000001 16.40000000000009 36.3 20.200000000000045 58.60000000000001 14.200000000000045 84.7-0.7999999999999545-2.0999999999999943-1.5-3.5999999999999943-2-5.300000000000011-11.5-39.499999999999986-45.700000000000045-63.29999999999998-86.60000000000002-60.29999999999998-21.399999999999977 1.5999999999999943-43.39999999999998 18.599999999999994-48 37.099999999999994 55.200000000000045-8 96.39999999999998-0.29999999999999716 124.60000000000002 24.69999999999999z m-154.60000000000002 119.49999999999994c-14.699999999999989 22.900000000000034-14.299999999999955 46.80000000000001 1.400000000000034 60.900000000000034 2.099999999999966-24.80000000000001 7.300000000000011-48.400000000000034 19-70.20000000000005 23.19999999999999 18.400000000000034 48.099999999999966 32.200000000000045 79.19999999999999 35-12-18-28.399999999999977-28.19999999999999-49.10000000000002-35.299999999999955 14.100000000000023-5.100000000000023 25.700000000000045-11.000000000000028 33.80000000000007-22.700000000000017-19.200000000000045-4.700000000000017-22.5-4-52.400000000000034 9 4.099999999999966-12.300000000000011 8.300000000000011-25.200000000000017 13.300000000000011-40.099999999999994-13.5 4.099999999999994-21.200000000000045 10.799999999999983-24 20.899999999999977-2.6000000000000227 9.5-2.6000000000000227 19.80000000000001-3.7000000000000455 29.30000000000001-22.69999999999999-10.099999999999994-42-7.699999999999989-56.39999999999998 8.600000000000023 6.800000000000011 1.599999999999966 12.800000000000011 3.6999999999999886 19.100000000000023 4.399999999999977 6.399999999999977 0.6999999999999886 13.099999999999966 0.19999999999998863 19.799999999999955 0.19999999999998863z"/>
</svg>
