<svg xmlns="http://www.w3.org/2000/svg" viewBox="0 0 1000 1000" width="1000" height="1000">
<path d="M109 398.9c31-3.6999999999999886 57.900000000000006-16.099999999999966 80.30000000000001-37.69999999999999 6.299999999999983-6 9.599999999999994-5 15.5 0.30000000000001137 56.69999999999999 50.69999999999999 128.59999999999997 51 185.89999999999998 0.5 6.800000000000011-6 10.100000000000023-6 16.80000000000001 0 28 25.100000000000023 60.30000000000001 37.60000000000002 92.69999999999999 37.60000000000002 32.30000000000001 0 64.69999999999999-12.5 92.69999999999999-37.60000000000002 6.7000000000000455-6 10-6 16.800000000000068 0 57.19999999999993 50.5 129.0999999999999 50.19999999999999 185.89999999999998-0.5 5.899999999999977-5.300000000000011 9.299999999999955-6.300000000000011 15.5-0.30000000000001137 22.399999999999977 21.600000000000023 49.39999999999998 34 80.29999999999995 37.69999999999999 21 2.5 35.60000000000002-3.7999999999999545 42.80000000000007-18.599999999999966 10.699999999999932-22.100000000000023-3.2000000000000455-46.5-29.5-48.19999999999999-31.200000000000045-2.1000000000000227-51.5-19.400000000000034-67.5-43.400000000000034-7.5-11.399999999999977-15.700000000000045-20.69999999999999-29.200000000000045-24.099999999999966h-10.200000000000045c-13 3.8999999999999773-21.899999999999977 12.299999999999955-28.199999999999932 24.19999999999999-3.800000000000068 7.099999999999966-9.300000000000068 13-14.899999999999977 18.599999999999966-26.200000000000045 26.600000000000023-58.5 31.900000000000034-87.40000000000009 14.200000000000045-13.299999999999955-8.100000000000023-24.199999999999932-19.200000000000045-32-32.60000000000002-6.899999999999977-11.800000000000011-15.5-20.69999999999999-29-24.30000000000001h-10.199999999999932c-13 3.8000000000000114-21.800000000000068 12.300000000000011-28.399999999999977 23.900000000000034-6.800000000000068 12-16.5 21.799999999999955-27.700000000000045 29.899999999999977-12.299999999999955 9-25.600000000000023 13.600000000000023-39.69999999999999 13.399999999999977-14.199999999999989 0.20000000000004547-27.5-4.399999999999977-39.69999999999999-13.399999999999977-11.100000000000023-8.100000000000023-20.80000000000001-17.899999999999977-27.700000000000045-29.899999999999977-6.599999999999966-11.600000000000023-15.399999999999977-20.100000000000023-28.399999999999977-23.900000000000034h-10.199999999999989c-13.5 3.6000000000000227-22.100000000000023 12.5-29 24.30000000000001-7.900000000000034 13.399999999999977-18.69999999999999 24.399999999999977-32 32.60000000000002-29 17.799999999999955-61.30000000000001 12.399999999999977-87.4-14.200000000000045-5.599999999999994-5.699999999999989-11.099999999999994-11.599999999999966-14.900000000000006-18.599999999999966-6.300000000000011-11.800000000000011-15.199999999999989-20.19999999999999-28.19999999999999-24.19999999999999h-10.200000000000017c-13.599999999999994 3.3999999999999773-21.69999999999999 12.699999999999989-29.19999999999999 24.099999999999966-15.900000000000006 24.100000000000023-36.2 41.30000000000001-67.5 43.400000000000034-26.30000000000001 1.7999999999999545-40.2 26.19999999999999-29.5 48.19999999999999 7 15 21.599999999999994 21.19999999999999 42.599999999999994 18.599999999999966z m795.5 107.70000000000005c-31.200000000000045-2.1000000000000227-51.5-19.400000000000034-67.5-43.400000000000034-7.5-11.399999999999977-15.700000000000045-20.69999999999999-29.200000000000045-24.099999999999966h-10.199999999999932c-13 3.8999999999999773-21.899999999999977 12.299999999999955-28.200000000000045 24.19999999999999-3.7999999999999545 7.099999999999966-9.299999999999955 13-14.899999999999977 18.599999999999966-26.200000000000045 26.600000000000023-58.5 31.899999999999977-87.39999999999998 14.200000000000045-13.300000000000068-8.100000000000023-24.200000000000045-19.200000000000045-32-32.60000000000002-6.899999999999977-11.800000000000011-15.5-20.69999999999999-29-24.30000000000001h-10.200000000000045c-13 3.8000000000000114-21.799999999999955 12.300000000000011-28.399999999999977 23.900000000000034-6.7999999999999545 12-16.5 21.799999999999955-27.700000000000045 29.899999999999977-12.299999999999955 9-25.59999999999991 13.600000000000023-39.69999999999993 13.399999999999977-14.200000000000045 0.20000000000004547-27.5-4.399999999999977-39.700000000000045-13.399999999999977-11.099999999999966-8.100000000000023-20.799999999999955-17.899999999999977-27.69999999999999-29.899999999999977-6.599999999999966-11.600000000000023-15.399999999999977-20.100000000000023-28.399999999999977-23.900000000000034h-10.199999999999989c-13.5 3.6000000000000227-22.100000000000023 12.5-29 24.30000000000001-7.900000000000034 13.399999999999977-18.700000000000045 24.399999999999977-32 32.60000000000002-29 17.799999999999955-61.30000000000001 12.399999999999977-87.40000000000003-14.200000000000045-5.599999999999994-5.699999999999989-11.099999999999994-11.599999999999966-14.899999999999977-18.599999999999966-6.300000000000011-11.800000000000011-15.200000000000017-20.19999999999999-28.200000000000017-24.19999999999999h-10.199999999999989c-13.599999999999994 3.3999999999999773-21.700000000000017 12.699999999999989-29.200000000000017 24.099999999999966-15.899999999999977 24-36.19999999999999 41.30000000000001-67.49999999999999 43.400000000000034-26.299999999999997 1.7999999999999545-40.2 26.199999999999932-29.5 48.19999999999993 7.299999999999997 15 21.89999999999999 21.200000000000045 42.8 18.600000000000023 31-3.699999999999932 57.900000000000006-16.100000000000023 80.30000000000001-37.69999999999993 6.299999999999983-6 9.599999999999994-5 15.5 0.2999999999999545 56.69999999999999 50.700000000000045 128.59999999999997 51 185.89999999999998 0.5 6.800000000000011-6 10.100000000000023-6 16.80000000000001 0 28 25.100000000000023 60.30000000000001 37.60000000000002 92.69999999999999 37.60000000000002 32.30000000000001 0 64.69999999999999-12.5 92.69999999999999-37.60000000000002 6.7000000000000455-6 10-6 16.800000000000068 0 57.19999999999993 50.5 129.0999999999999 50.200000000000045 185.89999999999998-0.5 5.899999999999977-5.2999999999999545 9.299999999999955-6.2999999999999545 15.5-0.2999999999999545 22.399999999999977 21.59999999999991 49.39999999999998 34 80.29999999999995 37.69999999999993 21 2.5 35.60000000000002-3.7999999999999545 42.80000000000007-18.600000000000023 10.399999999999977-22-3.400000000000091-46.39999999999998-29.700000000000045-48.19999999999993z m0 161.10000000000002c-31.200000000000045-2.1000000000000227-51.5-19.40000000000009-67.5-43.40000000000009-7.5-11.399999999999977-15.700000000000045-20.699999999999932-29.200000000000045-24.09999999999991h-10.199999999999932c-13 3.8999999999999773-21.899999999999977 12.299999999999955-28.200000000000045 24.199999999999932-3.7999999999999545 7.100000000000023-9.299999999999955 13-14.899999999999977 18.600000000000023-26.200000000000045 26.600000000000023-58.5 31.899999999999977-87.39999999999998 14.200000000000045-13.300000000000068-8.100000000000023-24.200000000000045-19.200000000000045-32-32.60000000000002-6.899999999999977-11.800000000000068-15.5-20.700000000000045-29-24.300000000000068h-10.200000000000045c-13 3.800000000000068-21.799999999999955 12.300000000000068-28.399999999999977 23.90000000000009-6.7999999999999545 12-16.5 21.799999999999955-27.700000000000045 29.899999999999977-12.299999999999955 9-25.59999999999991 13.600000000000023-39.69999999999993 13.399999999999977-14.200000000000045 0.20000000000004547-27.5-4.399999999999977-39.700000000000045-13.399999999999977-11.099999999999966-8.100000000000023-20.799999999999955-17.899999999999977-27.69999999999999-29.899999999999977-6.599999999999966-11.600000000000023-15.399999999999977-20.100000000000023-28.399999999999977-23.90000000000009h-10.199999999999989c-13.5 3.6000000000000227-22.100000000000023 12.5-29 24.300000000000068-7.900000000000034 13.399999999999977-18.700000000000045 24.399999999999977-32 32.60000000000002-29 17.799999999999955-61.30000000000001 12.399999999999977-87.40000000000003-14.200000000000045-5.599999999999994-5.7000000000000455-11.099999999999994-11.600000000000023-14.899999999999977-18.600000000000023-6.300000000000011-11.799999999999955-15.200000000000017-20.199999999999932-28.200000000000017-24.199999999999932h-10.199999999999989c-13.599999999999994 3.3999999999999773-21.700000000000017 12.699999999999932-29.200000000000017 24.09999999999991-15.899999999999977 24.100000000000023-36.19999999999999 41.30000000000007-67.49999999999999 43.40000000000009-26.299999999999997 1.7999999999999545-40.2 26.199999999999932-29.5 48.19999999999993 7.299999999999997 15 21.89999999999999 21.200000000000045 42.8 18.600000000000023 31-3.7000000000000455 57.900000000000006-16.100000000000023 80.30000000000001-37.700000000000045 6.299999999999983-6 9.599999999999994-5 15.5 0.3000000000000682 56.69999999999999 50.69999999999993 128.59999999999997 51 185.89999999999998 0.5 6.800000000000011-6 10.100000000000023-6 16.80000000000001 0 28 25.100000000000023 60.30000000000001 37.60000000000002 92.69999999999999 37.60000000000002 32.30000000000001 0 64.69999999999999-12.5 92.69999999999999-37.60000000000002 6.7000000000000455-6 10-6 16.800000000000068 0 57.19999999999993 50.5 129.0999999999999 50.19999999999993 185.89999999999998-0.5 5.899999999999977-5.300000000000068 9.299999999999955-6.300000000000068 15.5-0.3000000000000682 22.399999999999977 21.600000000000023 49.39999999999998 34 80.29999999999995 37.700000000000045 21 2.5 35.60000000000002-3.7999999999999545 42.80000000000007-18.600000000000023 10.399999999999977-22-3.400000000000091-46.39999999999998-29.700000000000045-48.19999999999993z"/>
</svg>
