<svg xmlns="http://www.w3.org/2000/svg" viewBox="0 0 1000 1000" width="1000" height="1000">
<path d="M884.7 405.3c-32.90000000000009-92.40000000000003-91-164.3-174.80000000000007-215.5-57-34.70000000000002-119-53.60000000000002-185.5-57.60000000000002-5.7999999999999545-0.39999999999997726-7.699999999999932-1.8999999999999773-7.5-7.8999999999999915 0.39999999999997726-14.200000000000003 0.20000000000004547-28.39999999999999 0.10000000000002274-42.5-0.10000000000002274-12.299999999999997-6.199999999999989-19.299999999999997-16.69999999999999-19.4-10.699999999999989-0.19999999999999574-17.400000000000034 7.199999999999996-17.600000000000023 19.6-0.19999999999998863 13.599999999999994-0.39999999999997726 27.200000000000003 0.10000000000002274 40.8 0.30000000000001137 6.799999999999997-1.5 9.000000000000014-8.699999999999989 9.500000000000014-114.60000000000002 8.399999999999977-209.8 55.69999999999999-284.5 143.09999999999997-62.70000000000002 73.10000000000002-94.20000000000002 158.3-96.80000000000003 254.39999999999998-0.09999999999999432 1.8000000000000682-1.0999999999999943 4.2000000000000455 1.7999999999999972 6 1.4000000000000057-1.3999999999999773 2.9000000000000057-2.7999999999999545 4.300000000000011-4.2999999999999545 52.19999999999999-53.39999999999998 129.79999999999998-65.80000000000001 196.29999999999998-31.100000000000023 6.199999999999989 3.2000000000000455 7.5 2 9.100000000000023-4.2999999999999545 13.5-54.5 33.30000000000001-106.30000000000001 64.39999999999998-153.40000000000003 7.699999999999989-11.599999999999966 7.600000000000023-11.599999999999966 13.699999999999989-14.699999999999989-19.69999999999999 68.39999999999998-31.899999999999977 137.8-38.69999999999999 208.10000000000002 104.60000000000002-74.20000000000005 208.09999999999997-73.90000000000003 312.3 0-7.2999999999999545-70.70000000000005-19-140.40000000000003-37.799999999999955-208.90000000000003 41 52.19999999999999 63.09999999999991 112.69999999999999 79.09999999999991 175.90000000000003 77.40000000000009-37.900000000000034 146.70000000000005-27.400000000000034 209.20000000000005 33.19999999999993 0.20000000000004547-2.5 0.39999999999997726-3.599999999999909 0.39999999999997726-4.7999999999999545-0.8999999999999773-43.39999999999998-7.7999999999999545-85.5-22.199999999999932-126.19999999999999z m-185.80000000000007 388.09999999999997c-8.399999999999977 0.20000000000004547-15.799999999999955 7.399999999999977-16.299999999999955 16.399999999999977l-0.20000000000004547 13.700000000000045c-2 42.5-35.10000000000002 77.39999999999998-76 80.39999999999998-42.799999999999955 3.1000000000000227-80.10000000000002-25.100000000000023-88.19999999999993-67.5-3.900000000000091-20.799999999999955-1.5-42.10000000000002-1.6000000000000227-63.19999999999993-0.10000000000002274-81.10000000000002-0.10000000000002274-162.10000000000002-0.10000000000002274-243.10000000000002 0-9-7.199999999999989-16.5-16.30000000000001-16.700000000000045h-0.19999999999998863c-9.399999999999977-0.1999999999999318-17.100000000000023 7.300000000000068-17.100000000000023 16.600000000000023v110h-0.19999999999998863c0 17.200000000000045-0.0999999999999659 34.5 0 51.60000000000002 0.19999999999998863 45.19999999999993-1.099999999999966 90.39999999999998 1 135.5 3.3000000000000114 72.79999999999995 70.09999999999997 123.10000000000002 141.2 107.5 55.200000000000045-12.200000000000045 95.60000000000002-62.200000000000045 90.80000000000007-125.70000000000005-0.6000000000000227-8.899999999999977-8.300000000000068-15.699999999999932-16.800000000000068-15.5z"/>
</svg>
