<svg xmlns="http://www.w3.org/2000/svg" viewBox="0 0 1000 1000" width="1000" height="1000">
<path d="M836.2 469.5c-47.5-46.19999999999999-103.90000000000009-59.30000000000001-167-36.30000000000001-11.800000000000068 4.300000000000011-16.5 4.699999999999989-22-8.800000000000011-41-102.19999999999999-136.60000000000002-158.5-245.10000000000002-145.89999999999998-99.20000000000005 11.5-177.3 89.89999999999998-195.70000000000002 196.2-1.0999999999999943 6.400000000000034-0.20000000000001705 14.400000000000034-8 17.69999999999999-17.599999999999994 7.400000000000034-31.5 18-42.900000000000006 30.700000000000045l-0.09999999999999432-0.3000000000000682s-83.2 78.70000000000005-1.8000000000000114 169.60000000000002c2.3000000000000114 2.6000000000000227 4.5 5.300000000000068 6.900000000000006 7.7000000000000455 0.4000000000000057 0.39999999999997726 0.6999999999999886 0.7999999999999545 1 1.1999999999999318l0.09999999999999432-0.1999999999999318c19.80000000000001 19 45.099999999999994 30.399999999999977 76.1 33.19999999999993 31.80000000000001 2.900000000000091 64 0.20000000000004547 95.90000000000003 1l275.29999999999995-0.39999999999997726c41.89999999999998 0 79.80000000000007 1 117.60000000000002-0.2999999999999545 66.79999999999995-2.300000000000068 114.89999999999998-34.5 141.79999999999995-95.60000000000002 25.800000000000068-57.700000000000045 13.200000000000045-125.5-32.09999999999991-169.5z m-260.1-318.4c-27.100000000000023 22.099999999999966-42.700000000000045 50.69999999999999-45.200000000000045 85.69999999999999-1 13.399999999999977 0.20000000000004547 26.30000000000001 3.1000000000000227 38.69999999999999 43.5 18.30000000000001 80.29999999999995 50 106.10000000000002 92.60000000000002 4.399999999999977 0.39999999999997726 8.799999999999955 0.5999999999999659 13.399999999999977 0.5999999999999659 73.29999999999995-0.5 119.39999999999998-62.30000000000001 120.20000000000005-112.5-17.800000000000068 21.30000000000001-39.200000000000045 33.5-65.60000000000002 36-26.600000000000023 2.400000000000034-50.200000000000045-5.199999999999989-70.39999999999998-22.69999999999999-17.100000000000023-14.699999999999989-27.40000000000009-33.400000000000006-30.800000000000068-55.5-5.199999999999932-34 5.399999999999977-63.19999999999999 29.5-87.9-23 1.8000000000000114-42.89999999999998 10.800000000000011-60.299999999999955 25z m-40-47.60000000000002c1.2999999999999545 0.5 2.199999999999932 1.7000000000000028 2.5 3l3.1000000000000227 13.599999999999994c0.7999999999999545 3.4000000000000057 5.099999999999909 4.5 7.2999999999999545 1.7000000000000028l8.899999999999977-10.799999999999997c0.8999999999999773-1 2.2000000000000455-1.5999999999999943 3.6000000000000227-1.5l13.899999999999977 1.2999999999999972c3.3999999999999773 0.29999999999999716 5.800000000000068-3.3999999999999915 3.8999999999999773-6.3999999999999915l-7.399999999999977-11.800000000000011c-0.6999999999999318-1.0999999999999943-0.8999999999999773-2.5999999999999943-0.2999999999999545-3.799999999999997l5.5-12.899999999999991c1.3999999999999773-3.1000000000000085-1.5-6.6000000000000085-4.899999999999977-5.700000000000003l-13.600000000000023 3.3999999999999915c-1.3000000000000682 0.30000000000001137-2.7000000000000455 0-3.800000000000068-0.8999999999999915l-10.5-9.300000000000004c-2.599999999999909-2.299999999999997-6.699999999999932-0.6000000000000014-6.899999999999977 2.8999999999999986l-1 13.900000000000006c-0.10000000000002274 1.3999999999999915-0.8999999999999773 2.5999999999999943-2 3.299999999999997l-12 7.099999999999994c-3 1.7000000000000028-2.6000000000000227 6.200000000000003 0.6000000000000227 7.400000000000006l13.100000000000023 5.5z m230.39999999999998 133.3l12.899999999999977 5.199999999999989c1.3000000000000682 0.5 2.2000000000000455 1.6999999999999886 2.5 3l3.1000000000000227 13.600000000000023c0.7999999999999545 3.3999999999999773 5.100000000000023 4.5 7.2999999999999545 1.6999999999999886l8.900000000000091-10.800000000000011c0.8999999999999773-1 2.199999999999932-1.5999999999999943 3.599999999999909-1.5l13.900000000000091 1.3000000000000114c3.3999999999999773 0.29999999999998295 5.7999999999999545-3.4000000000000057 3.8999999999999773-6.400000000000006l-7.399999999999977-11.800000000000011c-0.7000000000000455-1.0999999999999943-0.900000000000091-2.5999999999999943-0.3000000000000682-3.799999999999983l5.5-12.900000000000006c1.3999999999999773-3.0999999999999943-1.5-6.599999999999994-4.899999999999977-5.700000000000017l-13.600000000000023 3.4000000000000057c-1.2999999999999545 0.30000000000001137-2.699999999999932 0-3.7999999999999545-0.9000000000000057l-10.5-9.299999999999983c-2.6000000000000227-2.3000000000000114-6.7000000000000455-0.5999999999999943-6.899999999999977 2.9000000000000057l-1 13.899999999999977c-0.10000000000002274 1.4000000000000057-0.900000000000091 2.6000000000000227-2 3.3000000000000114l-12 7.099999999999994c-2.800000000000068 2-2.5 6.400000000000006 0.7999999999999545 7.700000000000017z m-98.5-53.70000000000002l-0.6000000000000227 9.300000000000011c-0.10000000000002274 0.9000000000000057-0.5 1.6999999999999886-1.2999999999999545 2.1999999999999886l-8 4.700000000000017c-2 1.0999999999999943-1.7000000000000455 4.099999999999994 0.2999999999999545 5l8.600000000000023 3.5c0.8999999999999773 0.29999999999998295 1.5 1 1.7000000000000455 1.8999999999999773l2 9.100000000000023c0.5 2.299999999999983 3.2999999999999545 3 4.7999999999999545 1.0999999999999943l5.899999999999977-7.099999999999994c0.6000000000000227-0.700000000000017 1.5-1 2.3999999999999773-1l9.300000000000068 0.8999999999999773c2.2999999999999545 0.20000000000001705 3.7999999999999545-2.299999999999983 2.6000000000000227-4.199999999999989l-4.900000000000091-7.900000000000006c-0.5-0.799999999999983-0.5-1.6999999999999886-0.1999999999999318-2.5l3.699999999999932-8.5c0.900000000000091-2.0999999999999943-1-4.400000000000006-3.199999999999932-3.799999999999983l-9 2.299999999999983c-0.8999999999999773 0.30000000000001137-1.8000000000000682 0-2.5-0.5999999999999943l-7-6.099999999999994c-1.8000000000000682-1.700000000000017-4.5-0.5999999999999943-4.600000000000023 1.6999999999999886z m87.70000000000005-4.900000000000006c0.599999999999909 0.30000000000001137 1 0.700000000000017 1.099999999999909 1.3000000000000114l1.400000000000091 6.099999999999994c0.2999999999999545 1.5 2.2999999999999545 2 3.199999999999932 0.8000000000000114l4-4.800000000000011c0.39999999999997726-0.4000000000000057 1-0.6999999999999886 1.7000000000000455-0.6999999999999886l6.2999999999999545 0.5999999999999943c1.6000000000000227 0.19999999999998863 2.6000000000000227-1.5999999999999943 1.7000000000000455-2.9000000000000057l-3.300000000000068-5.299999999999983c-0.2999999999999545-0.5-0.2999999999999545-1.1000000000000227-0.1999999999999318-1.700000000000017l2.5-5.799999999999983c0.6000000000000227-1.4000000000000057-0.7000000000000455-3-2.2000000000000455-2.5l-6.100000000000023 1.5999999999999943c-0.599999999999909 0.19999999999998863-1.1999999999999318 0-1.6999999999999318-0.4000000000000057l-4.7000000000000455-4.199999999999989c-1.1000000000000227-1-3-0.30000000000001137-3.1000000000000227 1.299999999999983l-0.39999999999997726 6.300000000000011c0 0.5999999999999943-0.2999999999999545 1.0999999999999943-0.8999999999999773 1.5l-5.399999999999977 3.1999999999999886c-1.3000000000000682 0.8000000000000114-1.2000000000000455 2.8000000000000114 0.2999999999999545 3.3000000000000114l5.800000000000068 2.299999999999983z m-109.80000000000007-88.29999999999998c0.7000000000000455 0.29999999999999716 1.2000000000000455 0.8999999999999915 1.3999999999999773 1.6999999999999886l1.7000000000000455 7.6000000000000085c0.39999999999997726 1.8999999999999915 2.7999999999999545 2.3999999999999915 4.100000000000023 1l5-6c0.5-0.6000000000000085 1.1999999999999318-0.9000000000000057 2-0.7999999999999972l7.7999999999999545 0.6999999999999886c1.8999999999999773 0.20000000000000284 3.2000000000000455-1.8999999999999915 2.2000000000000455-3.5999999999999943l-4.2000000000000455-6.599999999999994c-0.39999999999997726-0.6000000000000085-0.39999999999997726-1.5-0.1999999999999318-2.200000000000003l3.099999999999909-7.200000000000003c0.8000000000000682-1.7000000000000028-0.8999999999999773-3.700000000000003-2.699999999999932-3.200000000000003l-7.600000000000023 1.9000000000000057c-0.7999999999999545 0.20000000000000284-1.6000000000000227 0-2.1000000000000227-0.5l-5.899999999999977-5.200000000000003c-1.5-1.2999999999999972-3.7999999999999545-0.29999999999999716-3.7999999999999545 1.5999999999999943l-0.5 7.800000000000011c-0.10000000000002274 0.7999999999999972-0.40000000000009095 1.5-1.1000000000000227 1.7999999999999972l-6.7000000000000455 4c-1.6999999999999318 1-1.5 3.5 0.3000000000000682 4.200000000000003-0.10000000000002274 0 7.199999999999932 3 7.199999999999932 3z m-128.69999999999993 83.79999999999998c0.5 0.20000000000001705 0.8999999999999773 0.6000000000000227 1 1.1000000000000227l1.099999999999909 5.199999999999989c0.3000000000000682 1.3000000000000114 1.900000000000091 1.6999999999999886 2.800000000000068 0.6999999999999886l3.3999999999999773-4.099999999999994c0.2999999999999545-0.4000000000000057 0.8999999999999773-0.5999999999999943 1.3999999999999773-0.5l5.300000000000068 0.5c1.2999999999999545 0.09999999999999432 2.199999999999932-1.299999999999983 1.5-2.4000000000000057l-2.900000000000091-4.5c-0.2999999999999545-0.39999999999997726-0.2999999999999545-1-0.09999999999990905-1.5l2.099999999999909-4.899999999999977c0.5-1.200000000000017-0.599999999999909-2.5-1.7999999999999545-2.200000000000017l-5.2000000000000455 1.3000000000000114c-0.5 0.09999999999999432-1 0-1.5-0.30000000000001137l-4-3.5999999999999943c-1-0.9000000000000057-2.5-0.30000000000001137-2.599999999999909 1.0999999999999943l-0.3000000000000682 5.300000000000011c0 0.5-0.2999999999999545 1-0.7999999999999545 1.299999999999983l-4.600000000000023 2.700000000000017c-1.1000000000000227 0.6999999999999886-1 2.4000000000000057 0.2999999999999545 2.9000000000000057-0.1999999999999318 0 4.900000000000091 1.8999999999999773 4.900000000000091 1.8999999999999773z m-261.00000000000006 630.4000000000001c-10.299999999999983-4.700000000000159-18.5-0.20000000000015916-25.5 6.899999999999864-28.299999999999983 28.299999999999955-56.599999999999994 56.700000000000045-85 84.89999999999998-10.799999999999983 10.700000000000045-17.69999999999999 22.5-4.599999999999994 35 12.5 12 24.700000000000017 6.2000000000000455 35.400000000000006-4.600000000000023 27.19999999999999-27.5 54.69999999999999-54.799999999999955 82.10000000000002-82.09999999999991 5.2999999999999545-5.300000000000068 10.599999999999966-10.700000000000045 10.5-18.200000000000045 0.6999999999999886-11-3.900000000000034-17.899999999999977-12.900000000000034-21.899999999999977z m261.59999999999997 3.4999999999998863c-8.199999999999932-3.800000000000068-14.699999999999932-0.20000000000004547-20.399999999999977 5.5-22.69999999999999 22.5-45.099999999999966 45.19999999999993-67.79999999999995 67.60000000000002-8.600000000000023 8.5-14.100000000000023 17.899999999999977-3.7000000000000455 27.899999999999977 10 9.5 19.700000000000045 4.899999999999977 28.30000000000001-3.800000000000068 21.69999999999999-21.899999999999977 43.60000000000002-43.69999999999993 65.40000000000003-65.39999999999998 4.2999999999999545-4.199999999999932 8.399999999999977-8.5 8.399999999999977-14.5 0.6000000000000227-8.600000000000023-3.1000000000000227-14-10.200000000000045-17.299999999999955z m123.30000000000007 2.8999999999999773c-30.300000000000068 29.399999999999977-59.89999999999998 59.39999999999998-89.5 89.5-6.300000000000068 6.399999999999977-7.100000000000023 14.799999999999955-3 22.700000000000045 4 7.699999999999932 10.600000000000023 12.299999999999955 22.299999999999955 12.199999999999932 3.2000000000000455 0.20000000000004547 8.100000000000023-2.3999999999999773 12-6.199999999999932 29.5-29.300000000000068 59.10000000000002-58.40000000000009 87.89999999999998-88.20000000000005 8.600000000000023-8.899999999999977 8.700000000000045-19.899999999999977-0.5-29.200000000000045-9.199999999999932-9.199999999999932-20.199999999999932-9.5-29.199999999999932-0.7999999999999545z m111.10000000000002 44.39999999999998c-1.6000000000000227 0.39999999999997726-3.800000000000068 0.6000000000000227-5.400000000000091 1.7000000000000455-21.09999999999991 13-38 30.399999999999977-51.39999999999998 51-5 7.600000000000023-0.2999999999999545 15.899999999999977 6 21.899999999999977 6.600000000000023 6.100000000000023 15.5 8.399999999999977 22.600000000000023 3.2999999999999545 18.100000000000023-13.199999999999932 34.60000000000002-28.799999999999955 47.200000000000045-47.299999999999955 8.5-12.700000000000045-3.400000000000091-30.5-19-30.600000000000023z m-407.90000000000003-1.1999999999999318c-16.5 12.899999999999977-32.10000000000002 27.399999999999977-44 44.59999999999991-9.400000000000034 13.600000000000023 2.099999999999966 32.10000000000002 18.80000000000001 31.600000000000023 1.2999999999999545-0.2999999999999545 3.599999999999966-0.5 5.199999999999989-1.6000000000000227 20.30000000000001-12.799999999999955 36.80000000000001-29.699999999999932 49.89999999999998-49.39999999999998 5.199999999999989-7.7999999999999545 2.1000000000000227-17.399999999999977-5.599999999999966-23.699999999999932-7.5-6.2000000000000455-16.200000000000045-7.800000000000068-24.30000000000001-1.5z"/>
</svg>
