<svg xmlns="http://www.w3.org/2000/svg" viewBox="0 0 1000 1000" width="1000" height="1000">
<path d="M811.7 416.7c-44-42.89999999999998-96.40000000000009-55-154.9000000000001-33.69999999999999-10.899999999999977 4-15.299999999999955 4.399999999999977-20.399999999999977-8.199999999999989-38.10000000000002-94.80000000000001-126.69999999999999-147.10000000000002-227.29999999999995-135.3-92 10.699999999999989-164.50000000000003 83.5-181.50000000000003 182-1 5.899999999999977-0.19999999999998863 13.399999999999977-7.299999999999983 16.399999999999977-16.400000000000006 6.900000000000034-29.200000000000017 16.700000000000045-39.70000000000002 28.400000000000034l-0.09999999999999432-0.19999999999998863s-77.2 73.10000000000002-1.6999999999999886 157.29999999999995c2.0999999999999943 2.3999999999999773 4.199999999999989 4.899999999999977 6.399999999999977 7.2000000000000455 0.30000000000001137 0.2999999999999545 0.6000000000000227 0.6999999999999318 1 1.1000000000000227l0.10000000000002274-0.20000000000004547c18.399999999999977 17.600000000000023 41.79999999999998 28.200000000000045 70.59999999999997 30.799999999999955 29.400000000000034 2.7000000000000455 59.30000000000001 0.20000000000004547 88.90000000000003 1l255.2-0.2999999999999545c38.799999999999955 0 74 1 109-0.20000000000004547 61.89999999999998-2.099999999999909 106.60000000000002-32 131.60000000000002-88.59999999999991 23.799999999999955-53.700000000000045 12.199999999999932-116.60000000000002-29.899999999999977-157.50000000000006z m-241.20000000000005-295.29999999999995c-25.200000000000045 20.49999999999997-39.5 47.099999999999966-41.89999999999998 79.49999999999997-0.8999999999999773 12.400000000000006 0.1999999999999318 24.5 2.8999999999999773 35.900000000000006 40.299999999999955 16.899999999999977 74.5 46.30000000000001 98.39999999999998 85.89999999999998 4.100000000000023 0.4000000000000341 8.200000000000045 0.6000000000000227 12.399999999999977 0.6000000000000227 68-0.5 110.80000000000007-57.80000000000001 111.5-104.30000000000001-16.399999999999977 19.900000000000006-36.299999999999955 31.099999999999994-60.799999999999955 33.30000000000001-24.700000000000045 2.299999999999983-46.5-4.800000000000011-65.39999999999998-21-15.800000000000068-13.600000000000023-25.399999999999977-31-28.5-51.400000000000006-4.800000000000068-31.599999999999994 5.100000000000023-58.60000000000001 27.299999999999955-81.5-21.399999999999977 1.5-39.799999999999955 9.899999999999991-55.89999999999998 23z m-36.89999999999998-20.900000000000034c1.1999999999999318 0.4000000000000057 2.1000000000000227 1.5 2.3999999999999773 2.700000000000003l2.7999999999999545 12.700000000000003c0.7000000000000455 3.0999999999999943 4.7000000000000455 4.099999999999994 6.7000000000000455 1.6999999999999886l8.299999999999955-10c0.8000000000000682-1 2.1000000000000227-1.5 3.300000000000068-1.3999999999999915l12.899999999999977 1.2000000000000028c3.2000000000000455 0.29999999999999716 5.2999999999999545-3.200000000000003 3.7000000000000455-5.900000000000006l-6.900000000000091-10.900000000000006c-0.6999999999999318-1-0.7999999999999545-2.3999999999999915-0.2999999999999545-3.5999999999999943l5.2000000000000455-11.900000000000006c1.2999999999999545-3-1.400000000000091-6-4.5-5.299999999999997l-12.600000000000023 3.1000000000000085c-1.2000000000000455 0.29999999999999716-2.5 0-3.5-0.9000000000000057l-9.700000000000045-8.600000000000001c-2.3999999999999773-2.1000000000000014-6.199999999999932-0.5-6.399999999999977 2.6000000000000014l-0.7000000000000455 13c-0.09999999999990905 1.2999999999999972-0.7999999999999545 2.4000000000000057-1.8999999999999773 3.0999999999999943l-11.399999999999977 6.700000000000003c-2.7999999999999545 1.7000000000000028-2.3999999999999773 5.799999999999997 0.5 6.900000000000006 0.10000000000002274 0 12.100000000000023 4.799999999999997 12.100000000000023 4.799999999999997z m213.39999999999998 100.5l12.100000000000023 4.800000000000011c1.1999999999999318 0.39999999999997726 2.1000000000000227 1.5 2.3999999999999773 2.6999999999999886l2.7999999999999545 12.699999999999989c0.7000000000000455 3.1000000000000227 4.7000000000000455 4.100000000000023 6.7000000000000455 1.700000000000017l8.299999999999955-10c0.8000000000000682-1 2.1000000000000227-1.5 3.300000000000068-1.4000000000000057l12.899999999999977 1.1999999999999886c3.2000000000000455 0.30000000000001137 5.2999999999999545-3.1999999999999886 3.7000000000000455-5.899999999999977l-6.900000000000091-10.900000000000006c-0.6999999999999318-1-0.7999999999999545-2.4000000000000057-0.2999999999999545-3.5999999999999943l5.2000000000000455-11.900000000000006c1.2999999999999545-3-1.400000000000091-6-4.5-5.300000000000011l-12.600000000000023 3.0999999999999943c-1.2000000000000455 0.30000000000001137-2.5 0-3.5-0.8999999999999773l-9.700000000000045-8.600000000000023c-2.3999999999999773-2.0999999999999943-6.199999999999932-0.5-6.399999999999977 2.6000000000000227l-0.8999999999999773 12.899999999999977c-0.10000000000002274 1.3000000000000114-0.8000000000000682 2.4000000000000057-1.8999999999999773 3.1000000000000227l-11.100000000000023 6.599999999999994c-2.8999999999999773 1.6999999999999886-2.5 5.799999999999983 0.39999999999997726 7.099999999999994z m-91.29999999999995-49.80000000000001l-0.6000000000000227 8.600000000000023c-0.10000000000002274 0.8999999999999773-0.5 1.5999999999999943-1.2000000000000455 2l-7.399999999999977 4.399999999999977c-1.7999999999999545 1-1.7000000000000455 3.8000000000000114 0.2999999999999545 4.600000000000023l8 3.1999999999999886c0.8000000000000682 0.30000000000001137 1.400000000000091 1 1.6000000000000227 1.8000000000000114l1.8999999999999773 8.399999999999977c0.40000000000009095 2.1000000000000227 3.1000000000000227 2.700000000000017 4.5 1l5.5-6.599999999999994c0.5-0.5999999999999943 1.400000000000091-1 2.2000000000000455-0.9000000000000057l8.600000000000023 0.8000000000000114c2.1000000000000227 0.19999999999998863 3.6000000000000227-2.0999999999999943 2.3999999999999773-3.9000000000000057l-4.5-7.299999999999983c-0.39999999999997726-0.700000000000017-0.5-1.6000000000000227-0.20000000000004547-2.4000000000000057l3.400000000000091-7.900000000000006c0.8999999999999773-1.9000000000000057-1-4-3-3.5l-8.300000000000068 2.0999999999999943c-0.7999999999999545 0.20000000000001705-1.6999999999999318 0-2.3999999999999773-0.5l-6.5-5.699999999999989c-1.7000000000000455-1.5-4.100000000000023-0.4000000000000057-4.2999999999999545 1.799999999999983z m81.39999999999998-4.599999999999994c0.5 0.20000000000001705 1 0.700000000000017 1 1.200000000000017l1.2999999999999545 5.699999999999989c0.3000000000000682 1.4000000000000057 2.1000000000000227 1.8000000000000114 3.1000000000000227 0.6999999999999886l3.7999999999999545-4.5c0.3000000000000682-0.39999999999997726 1-0.6999999999999886 1.5-0.5999999999999943l5.800000000000068 0.5c1.3999999999999773 0.20000000000001705 2.3999999999999773-1.4000000000000057 1.6999999999999318-2.5999999999999943l-3.099999999999909-5c-0.3000000000000682-0.5-0.3000000000000682-1-0.10000000000002274-1.6999999999999886l2.2999999999999545-5.300000000000011c0.6000000000000227-1.3000000000000114-0.6000000000000227-2.6999999999999886-2-2.4000000000000057l-5.699999999999932 1.4000000000000057c-0.5 0.19999999999998863-1.1000000000000227 0-1.6000000000000227-0.30000000000001137l-4.399999999999977-3.799999999999983c-1-1-2.800000000000068-0.30000000000001137-2.900000000000091 1.1999999999999886l-0.39999999999997726 5.900000000000006c0 0.5999999999999943-0.2999999999999545 1-0.8999999999999773 1.4000000000000057l-5 3c-1.2000000000000455 0.6999999999999886-1.1000000000000227 2.5999999999999943 0.2999999999999545 3.0999999999999943-0.09999999999990905 0 5.300000000000068 2.0999999999999943 5.300000000000068 2.0999999999999943z m-101.60000000000002-58.69999999999999c0.7000000000000455 0.29999999999999716 1.1000000000000227 0.8999999999999915 1.2999999999999545 1.5999999999999943l1.6000000000000227 7.099999999999994c0.39999999999997726 1.7000000000000028 2.6000000000000227 2.3000000000000114 3.800000000000068 0.9000000000000057l4.599999999999909-5.599999999999994c0.40000000000009095-0.5 1.1000000000000227-0.9000000000000057 1.8000000000000682-0.8000000000000114l7.2999999999999545 0.7000000000000028c1.7000000000000455 0.20000000000000284 3-1.7000000000000028 2-3.299999999999997l-3.7999999999999545-6.099999999999994c-0.3000000000000682-0.6000000000000085-0.39999999999997726-1.4000000000000057-0.20000000000004547-2l2.8999999999999773-6.6000000000000085c0.7000000000000455-1.7000000000000028-0.7999999999999545-3.3999999999999915-2.5-3l-7 1.7000000000000028c-0.6999999999999318 0.20000000000000284-1.3999999999999773 0-1.8999999999999773-0.4000000000000057l-5.399999999999977-4.799999999999997c-1.2999999999999545-1.2000000000000028-3.5-0.29999999999999716-3.6000000000000227 1.5l-0.5 7.299999999999997c-0.10000000000002274 0.7000000000000028-0.39999999999997726 1.3000000000000114-1 1.7000000000000028l-6.199999999999932 3.700000000000003c-1.6000000000000227 0.9000000000000057-1.400000000000091 3.200000000000003 0.2999999999999545 3.799999999999997l6.5 2.6000000000000085z m-119.60000000000002 54.5c0.39999999999997726 0.19999999999998863 0.8000000000000682 0.5999999999999943 0.8999999999999773 1l1 4.900000000000006c0.3000000000000682 1.1999999999999886 1.8000000000000682 1.5999999999999943 2.6000000000000227 0.5999999999999943l3.1000000000000227-3.8000000000000114c0.2999999999999545-0.29999999999998295 0.7999999999999545-0.5999999999999943 1.2999999999999545-0.5l5 0.4000000000000057c1.2000000000000455 0.09999999999999432 2.1000000000000227-1.1999999999999886 1.400000000000091-2.3000000000000114l-2.6000000000000227-4.199999999999989c-0.3000000000000682-0.4000000000000057-0.3000000000000682-1-0.10000000000002274-1.4000000000000057l2-4.5c0.5-1.0999999999999943-0.5-2.4000000000000057-1.7000000000000455-2l-4.7999999999999545 1.200000000000017c-0.39999999999997726 0.09999999999999432-1 0-1.2999999999999545-0.30000000000001137l-3.800000000000068-3.3000000000000114c-1-0.799999999999983-2.3999999999999773-0.19999999999998863-2.3999999999999773 1l-0.2999999999999545 5c0 0.5-0.3000000000000682 1-0.7000000000000455 1.1000000000000227l-4.300000000000011 2.5c-1 0.5999999999999943-1 2.1999999999999886 0.19999999999998863 2.5999999999999943l4.5 2z m73.80000000000007 700c-7.300000000000068-3.3999999999999773-13.100000000000023-0.1999999999999318-18.200000000000045 4.899999999999977-20.200000000000045 20.100000000000023-40.200000000000045 40.30000000000007-60.5 60.5-7.699999999999989 7.600000000000023-12.600000000000023 16-3.3000000000000114 24.90000000000009 8.900000000000034 8.599999999999909 17.599999999999966 4.399999999999977 25.19999999999999-3.300000000000068 19.399999999999977-19.600000000000023 38.89999999999998-38.89999999999998 58.39999999999998-58.39999999999998 3.800000000000068-3.7999999999999545 7.5-7.600000000000023 7.400000000000091-12.899999999999977 0.599999999999909-7.899999999999977-2.7000000000000455-12.700000000000045-9-15.700000000000045z m10.699999999999932-106.60000000000002c-27 26.200000000000045-53.5 53-80 79.90000000000009-5.600000000000023 5.699999999999932-6.2999999999999545 13.199999999999932-2.6000000000000227 20.299999999999955 3.6000000000000227 6.899999999999977 9.400000000000091 11 19.90000000000009 10.899999999999977 2.8999999999999773 0.20000000000004547 7.2999999999999545-2.1000000000000227 10.799999999999955-5.600000000000023 26.299999999999955-26.199999999999932 52.799999999999955-52.09999999999991 78.60000000000002-78.79999999999995 7.699999999999932-8 7.7999999999999545-17.799999999999955-0.5-26.100000000000023-8.300000000000068-8.100000000000023-18.200000000000045-8.399999999999977-26.200000000000045-0.6000000000000227z m99.20000000000005 39.700000000000045c-1.3999999999999773 0.39999999999997726-3.300000000000068 0.5-4.800000000000068 1.5-18.799999999999955 11.600000000000023-33.89999999999998 27.200000000000045-45.89999999999998 45.60000000000002-4.5 6.7999999999999545-0.2999999999999545 14.299999999999955 5.399999999999977 19.5 5.900000000000091 5.399999999999977 13.800000000000068 7.5 20.100000000000023 3 16.200000000000045-11.800000000000068 31-25.700000000000045 42.200000000000045-42.30000000000007 7.600000000000023-11.299999999999955-3-27.199999999999932-17-27.299999999999955z m-348.1-88.39999999999998v12.899999999999977l-12-12-8.199999999999989 8.299999999999955 20.30000000000001 20.300000000000068v22c1.8999999999999773-0.39999999999997726 3.7999999999999545-0.6000000000000227 5.899999999999977-0.6000000000000227s3.8999999999999773 0.2999999999999545 5.899999999999977 0.6000000000000227v-22l20.30000000000001-20.300000000000068-8.300000000000011-8.299999999999955-12.099999999999966 12.100000000000023v-12.899999999999977l-11.800000000000011-0.10000000000002274z m11.699999999999989 106.19999999999993c-1.8999999999999773 0.40000000000009095-3.8000000000000114 0.6000000000000227-5.899999999999977 0.6000000000000227-2 0-3.900000000000034-0.2999999999999545-5.900000000000034-0.6000000000000227v22l-20.299999999999955 20.300000000000068 8.299999999999955 8.299999999999955 12.100000000000023-12.100000000000023v12.900000000000091h11.699999999999989v-12.900000000000091l12.100000000000023 12.100000000000023 8.199999999999989-8.299999999999955-20.30000000000001-20.300000000000068v-22z m-33-21.59999999999991c-0.39999999999997726-1.8000000000000682-0.5999999999999659-3.800000000000068-0.5999999999999659-5.900000000000091 0-2 0.2999999999999545-3.8999999999999773 0.5999999999999659-5.899999999999977h-22l-20.30000000000001-20.299999999999955-8.299999999999955 8.299999999999955 12.099999999999966 12.100000000000023h-12.899999999999977v11.700000000000045h12.899999999999977l-12.099999999999966 12.099999999999909 8.299999999999955 8.200000000000045 20.30000000000001-20.299999999999955h22z m-40.69999999999999-36.200000000000045l28.69999999999999-0.10000000000002274 15.699999999999989 15.600000000000023c2.1000000000000227-3.2999999999999545 4.900000000000034-6.100000000000023 8.200000000000045-8.299999999999955l-15.700000000000045-15.5-0.19999999999998863-28.700000000000045-11.699999999999989 0.10000000000002274 0.10000000000002274 17.100000000000023-9.200000000000045-9.100000000000023-8.199999999999989 8.299999999999955 9.199999999999989 9.100000000000023-17 0.10000000000002274 0.10000000000002274 11.399999999999977z m44.5 45.299999999999955l-15.699999999999989 15.600000000000023-28.69999999999999-0.10000000000002274-0.10000000000002274 11.700000000000045 17 0.10000000000002274-9.199999999999989 9.100000000000023 8.199999999999989 8.299999999999955 9.199999999999989-9.100000000000023-0.0999999999999659 17.100000000000023 11.699999999999989 0.10000000000002274 0.19999999999998863-28.700000000000045 15.699999999999989-15.5c-3.3000000000000114-2.3999999999999773-6.099999999999966-5.199999999999932-8.199999999999989-8.600000000000023z m101.80000000000001-32.799999999999955l-8.300000000000011-8.299999999999955-20.30000000000001 20.299999999999955h-22c0.4000000000000341 1.8999999999999773 0.6000000000000227 3.7999999999999545 0.6000000000000227 5.899999999999977 0 2-0.30000000000001137 3.8999999999999773-0.6000000000000227 5.899999999999977h22l20.30000000000001 20.300000000000068 8.300000000000011-8.200000000000045-12-12.100000000000023h12.899999999999977v-11.799999999999955h-12.899999999999977l12-12z m-46.80000000000001-49.700000000000045l-0.19999999999998863 28.700000000000045-15.699999999999989 15.5c3.2999999999999545 2.2000000000000455 6.099999999999966 5 8.199999999999989 8.299999999999955l15.699999999999989-15.599999999999909 28.69999999999999 0.09999999999990905 0.10000000000002274-11.699999999999932-17-0.10000000000002274 9.199999999999989-9.100000000000023-8.199999999999989-8.299999999999955-9.199999999999989 9.100000000000023 0.0999999999999659-17.100000000000023-11.699999999999989 0.1999999999999318z m36.89999999999998 97.90000000000009l-28.69999999999999 0.09999999999990905-15.699999999999989-15.5c-2.1000000000000227 3.300000000000068-4.899999999999977 6.100000000000023-8.199999999999989 8.300000000000068l15.699999999999989 15.5 0.19999999999998863 28.699999999999932 11.699999999999989-0.09999999999990905-0.0999999999999659-17.100000000000023 9.099999999999966 9.299999999999955 8.200000000000045-8.299999999999955-9.200000000000045-9.100000000000023 17-0.10000000000002274v-11.699999999999932z m-68.5-51.5c-11.699999999999989 0-21.19999999999999 9.5-21.19999999999999 21.299999999999955 0 11.700000000000045 9.400000000000034 21.299999999999955 21.19999999999999 21.299999999999955s21.30000000000001-9.5 21.30000000000001-21.299999999999955c-0.0999999999999659-11.799999999999955-9.599999999999966-21.299999999999955-21.30000000000001-21.299999999999955z m115.60000000000002 100.59999999999991v-4.399999999999977h-3.8999999999999773v4.399999999999977l-4.100000000000023-4.099999999999909-2.8000000000000114 2.7999999999999545 6.900000000000034 6.899999999999977v7.5c0.5999999999999659-0.1999999999999318 1.2999999999999545-0.1999999999999318 2-0.1999999999999318s1.2999999999999545 0.09999999999990905 2 0.1999999999999318v-7.5l6.899999999999977-6.899999999999977-2.8000000000000114-2.7999999999999545-4.199999999999989 4.099999999999909z m0 31.600000000000023c-0.6000000000000227 0.20000000000004547-1.3000000000000114 0.20000000000004547-2 0.20000000000004547s-1.3000000000000114-0.10000000000002274-2-0.20000000000004547v7.5l-6.899999999999977 6.899999999999977 2.7999999999999545 2.800000000000068 4.100000000000023-4.100000000000023v4.399999999999977h3.8999999999999773v-4.399999999999977l4.100000000000023 4.100000000000023 2.8000000000000114-2.800000000000068-6.900000000000034-6.899999999999977 0.10000000000002274-7.5z m-11.199999999999989-7.2999999999999545c-0.19999999999998863-0.6000000000000227-0.30000000000001137-1.3000000000000682-0.30000000000001137-2s0.10000000000002274-1.3000000000000682 0.30000000000001137-2h-7.5l-6.800000000000011-6.899999999999977-2.8000000000000114 2.7999999999999545 4.100000000000023 4.100000000000023h-4.400000000000034v3.8999999999999773h4.400000000000034l-4.100000000000023 4.100000000000023 2.8000000000000114 2.7999999999999545 6.899999999999977-6.899999999999977 7.400000000000034 0.10000000000002274z m-13.800000000000011-12.300000000000068h9.699999999999989l5.300000000000011 5.2000000000000455c0.6999999999999886-1.1000000000000227 1.6999999999999886-2.1000000000000227 2.8000000000000114-2.7999999999999545l-5.300000000000011-5.2000000000000455-0.10000000000002274-9.700000000000045h-3.8999999999999773v5.800000000000068l-3.1000000000000227-3.1000000000000227-2.7999999999999545 2.7999999999999545 3.099999999999966 3.1000000000000227h-5.800000000000011l0.10000000000002274 3.8999999999999773z m15.100000000000023 15.400000000000091l-5.300000000000011 5.199999999999932h-9.699999999999989v3.8999999999999773h5.7999999999999545l-3.099999999999966 3.1000000000000227 2.8000000000000114 2.800000000000068 3.099999999999966-3.1000000000000227v5.7999999999999545h3.900000000000034l0.0999999999999659-9.699999999999932 5.300000000000011-5.2000000000000455c-1.1999999999999886-0.7000000000000455-2.1999999999999886-1.7000000000000455-2.8999999999999773-2.7999999999999545z m34.599999999999966-11.200000000000045l-2.8000000000000114-2.7999999999999545-6.899999999999977 6.899999999999977h-7.5c0.19999999999998863 0.6000000000000227 0.30000000000001137 1.2999999999999545 0.30000000000001137 2s-0.10000000000002274 1.2999999999999545-0.30000000000001137 2h7.5l6.899999999999977 6.899999999999977 2.8000000000000114-2.7999999999999545-4.099999999999966-4.100000000000023h4.399999999999977v-3.8999999999999773h-4.399999999999977l4.099999999999966-4.2000000000000455z m-15.899999999999977-16.799999999999955l-0.10000000000002274 9.699999999999932-5.300000000000011 5.2000000000000455c1.1000000000000227 0.6999999999999318 2.1000000000000227 1.6999999999999318 2.8000000000000114 2.7999999999999545l5.300000000000011-5.199999999999932h9.699999999999989v-3.900000000000091h-5.800000000000011l3.1000000000000227-3.099999999999909-2.8000000000000114-2.800000000000068-3.099999999999966 3.1000000000000227v-5.7999999999999545h-3.8000000000000114z m12.5 33.19999999999993h-9.699999999999989l-5.300000000000011-5.199999999999932c-0.6999999999999886 1.099999999999909-1.6999999999999886 2.099999999999909-2.8000000000000114 2.7999999999999545l5.300000000000011 5.2000000000000455 0.0999999999999659 9.699999999999932h3.900000000000034v-5.7999999999999545l3.099999999999966 3.1000000000000227 2.8000000000000114-2.800000000000068-3.099999999999966-3.1000000000000227h5.7999999999999545l-0.0999999999999659-3.8999999999999773z m-16-10.299999999999955c0 3.8999999999999773-3.1999999999999886 7.199999999999932-7.199999999999989 7.199999999999932-3.900000000000034 0-7.2000000000000455-3.199999999999932-7.2000000000000455-7.199999999999932s3.2000000000000455-7.2000000000000455 7.2000000000000455-7.2000000000000455c3.8999999999999773 0.10000000000002274 7.199999999999989 3.2000000000000455 7.199999999999989 7.2000000000000455z m-13.699999999999989-99.39999999999998v2.2999999999999545l-2.1000000000000227-2.1000000000000227-1.5 1.5 3.6000000000000227 3.6000000000000227v3.7999999999999545c0.2999999999999545-0.09999999999990905 0.6999999999999886-0.09999999999990905 1-0.09999999999990905 0.2999999999999545 0 0.6999999999999886 0 1 0.09999999999990905v-3.7999999999999545l3.599999999999966-3.6000000000000227-1.5-1.5-2.099999999999966 2.1000000000000227v-2.2999999999999545h-2z m0 25.5v2.2999999999999545h2.099999999999966v-2.2999999999999545l2.1000000000000227 2.099999999999909 1.5-1.5-3.6000000000000227-3.599999999999909v-3.800000000000068c-0.30000000000001137 0.10000000000002274-0.6999999999999886 0.10000000000002274-1 0.10000000000002274s-0.6999999999999886 0-1-0.10000000000002274v3.800000000000068l-3.599999999999966 3.599999999999909 1.5 1.5 2-2.099999999999909z m-12.800000000000011-10.700000000000045h2.3000000000000114l-2.1000000000000227 2.1000000000000227 1.5 1.5 3.6000000000000227-3.6000000000000227h3.7999999999999545c-0.0999999999999659-0.2999999999999545-0.0999999999999659-0.7000000000000455-0.0999999999999659-1s0-0.7000000000000455 0.0999999999999659-1h-3.8999999999999773l-3.6000000000000227-3.6000000000000227-1.5 1.5 2.1000000000000227 2.1000000000000227h-2.3000000000000114v2h0.10000000000002274z m1.8999999999999773-6.399999999999977h5.100000000000023l2.8000000000000114 2.699999999999932c0.2999999999999545-0.599999999999909 0.8999999999999773-1 1.5-1.5l-2.8000000000000114-2.699999999999932v-5.100000000000023h-2.1000000000000227v3l-1.6999999999999886-1.6000000000000227-1.5 1.6000000000000227 1.6999999999999886 1.6000000000000227h-3v2z m6.5 17.399999999999977v-5.100000000000023l2.8000000000000114-2.699999999999932c-0.6000000000000227-0.3000000000000682-1-0.900000000000091-1.5-1.5l-2.8000000000000114 2.699999999999932h-5.099999999999966v2.1000000000000227h3l-1.7000000000000455 1.6000000000000227 1.5 1.5 1.7000000000000455-1.6000000000000227v3h2.099999999999966z m17.80000000000001-16.600000000000023l-3.6000000000000227 3.6000000000000227h-3.7999999999999545c0.0999999999999659 0.2999999999999545 0.0999999999999659 0.7000000000000455 0.0999999999999659 1s0 0.7000000000000455-0.0999999999999659 1h3.7999999999999545l3.6000000000000227 3.6000000000000227 1.5-1.5-2.1000000000000227-2.1000000000000227h2.3000000000000114v-2h-2.3000000000000114l2.1000000000000227-2.1000000000000227-1.5-1.5z m-6.800000000000011-7.2999999999999545v5.100000000000023l-2.8000000000000114 2.699999999999932c0.6000000000000227 0.3000000000000682 1 0.8999999999999773 1.5 1.5l2.8000000000000114-2.699999999999932h5.100000000000023v-2.1000000000000227h-3l1.6999999999999886-1.6000000000000227-1.5-1.5-1.6999999999999886 1.6000000000000227v-3h-2.1000000000000227z m6.5 17.299999999999955h-5.099999999999966l-2.8000000000000114-2.699999999999932c-0.30000000000001137 0.599999999999909-0.9000000000000341 1-1.5 1.5l2.8000000000000114 2.699999999999932v5.100000000000023h2.099999999999966v-3l1.6999999999999886 1.6000000000000227 1.5-1.5-1.6999999999999886-1.6000000000000227h3v-2.1000000000000227z m-8.399999999999977-5.399999999999977c0 2.1000000000000227-1.6999999999999886 3.7999999999999545-3.8000000000000114 3.7999999999999545s-3.8000000000000114-1.6999999999999318-3.8000000000000114-3.7999999999999545c0-2.1000000000000227 1.6999999999999886-3.7999999999999545 3.8000000000000114-3.7999999999999545s3.8000000000000114 1.7999999999999545 3.8000000000000114 3.7999999999999545z"/>
</svg>
