<svg xmlns="http://www.w3.org/2000/svg" viewBox="0 0 1000 1000" width="1000" height="1000">
<path d="M671.4 167.1l44.89999999999998 0.9000000000000057c3.1000000000000227 0.09999999999999432 5.7000000000000455-2.4000000000000057 5.7000000000000455-5.5l0.2999999999999545-13.300000000000011c0.10000000000002274-3.0999999999999943-2.3999999999999773-5.699999999999989-5.5-5.699999999999989l-44.89999999999998-0.9000000000000057c-3.1000000000000227-0.09999999999999432-5.699999999999932 2.4000000000000057-5.699999999999932 5.5l-0.3000000000000682 13.200000000000017c0 3.0999999999999943 2.5 5.699999999999989 5.5 5.799999999999983z m105.70000000000005-23c1.6000000000000227 2.5999999999999943 5.100000000000023 3.5 7.699999999999932 1.9000000000000057l35.5-21.400000000000006c2.6000000000000227-1.5999999999999943 3.5-5.099999999999994 1.900000000000091-7.699999999999989l-6.800000000000068-11.400000000000006c-1.6000000000000227-2.5999999999999943-5.100000000000023-3.5-7.699999999999932-1.9000000000000057l-35.40000000000009 21.400000000000006c-2.599999999999909 1.5999999999999943-3.5 5.099999999999994-1.8999999999999773 7.699999999999989l6.7000000000000455 11.400000000000006z m-59.39999999999998-33.69999999999999c1.099999999999909 2.8999999999999915 4.399999999999977 4.299999999999997 7.2999999999999545 3.1999999999999886l12.399999999999977-4.799999999999997c2.8999999999999773-1.0999999999999943 4.300000000000068-4.3999999999999915 3.2000000000000455-7.299999999999997l-13.800000000000068-35.400000000000006c-1.099999999999909-2.8999999999999915-4.399999999999977-4.299999999999997-7.2999999999999545-3.1999999999999957l-12.299999999999955 4.800000000000004c-2.900000000000091 1.0999999999999943-4.300000000000068 4.3999999999999915-3.2000000000000455 7.299999999999997l13.700000000000045 35.400000000000006z m-115.80000000000007 193.20000000000002v-62.900000000000034h-80.89999999999998c10.899999999999977-37.89999999999998 36.5-65.6 87.20000000000005-46.89999999999998 30.199999999999932 11.199999999999989 57.799999999999955 29.099999999999994 87.5 41.29999999999998 19.299999999999955 8 50.59999999999991 18.80000000000001 69.09999999999991 3.200000000000017 23.90000000000009-20.200000000000017 9-58.900000000000006 0.40000000000009095-82.70000000000002-5.7000000000000455-15.5-30.700000000000045-8.799999999999983-25 6.800000000000011 3.7999999999999545 10.400000000000006 22.399999999999977 51.599999999999994 4.7999999999999545 57.29999999999998-12.299999999999955 3.9000000000000057-31.100000000000023-5.199999999999989-42.39999999999998-9.5-30-11.599999999999994-57.700000000000045-29-87.30000000000007-41.29999999999998-67.59999999999991-28.200000000000017-105.59999999999997 16.799999999999983-119.99999999999994 71.69999999999999h-97.10000000000002v62.900000000000006c-129.7 42.69999999999999-223.29999999999998 164.8-223.29999999999998 308.9 0 179.60000000000002 145.6 325.20000000000005 325.20000000000005 325.20000000000005s325.19999999999993-145.60000000000002 325.19999999999993-325.20000000000005c-0.09999999999990905-144.09999999999997-93.79999999999995-266.09999999999997-223.39999999999998-308.79999999999995z m-80.19999999999993 560.6c-19.900000000000034-0.5-35.400000000000034-17.100000000000023-34.900000000000034-36.90000000000009 0.5-19.799999999999955 17.099999999999966-35.39999999999998 36.900000000000034-34.69999999999993 115.5 3.199999999999932 159.29999999999995-124.70000000000005 161.19999999999993-130.20000000000005 5.899999999999977-17.5 23.800000000000068-27.600000000000023 41.5-23.899999999999977 1.2000000000000455 0.39999999999997726 2.5 0.7000000000000455 3.8999999999999773 1.1000000000000227 18.800000000000068 6.2999999999999545 29.100000000000023 26.299999999999955 23 45.19999999999993-2.599999999999909 7.400000000000091-62 183.9000000000001-231.5999999999999 179.4000000000001z"/>
</svg>
