<svg xmlns="http://www.w3.org/2000/svg" viewBox="0 0 1000 1000" width="1000" height="1000">
<path d="M654.2 414.9c-4.800000000000068-4.599999999999966-9.400000000000091-9.5-15-15.199999999999989-14.300000000000068 78.10000000000002-86.30000000000007 118.00000000000006-147.80000000000007 114.50000000000006-53.39999999999998-3.1000000000000227-115.89999999999998-36.900000000000034-131.2-109.50000000000006-65.19999999999999 61.10000000000002-131.29999999999998 123.09999999999997-197.5 185.09999999999997 55.30000000000001 54.60000000000002 154.40000000000003 61.200000000000045 219.3 12.300000000000068 24.19999999999999-18.200000000000045 45.10000000000002-40.30000000000007 67.30000000000001-60.80000000000007 6.300000000000011-5.7999999999999545 12.099999999999966-12 18.099999999999966-18v397.6c0 9.200000000000045 7.900000000000034 16.600000000000023 17.600000000000023 16.600000000000023h29.100000000000023c9.699999999999932 0 17.600000000000023-7.399999999999977 17.600000000000023-16.600000000000023v-399.1c62.59999999999991 59.30000000000007 125.09999999999991 118.60000000000002 188 178.10000000000002 3.2999999999999545-3.5 7.099999999999909-7.100000000000023 10.399999999999977-10.899999999999977 54.39999999999998-64.10000000000002 50-153.29999999999995-10.700000000000045-212.39999999999998-21.5-20.80000000000001-43.5-41.10000000000002-65.19999999999993-61.700000000000045z m-300.6-57.69999999999999c1.8999999999999773 1.8000000000000114 4 3.5 6.099999999999966 5.300000000000011 14.400000000000034-62 53.80000000000001-99.10000000000002 121.60000000000002-112.80000000000001-4.300000000000011-3.0999999999999943-7.199999999999989-4.599999999999994-9.400000000000034-6.799999999999983-47.19999999999999-44.30000000000001-94.39999999999998-88.6-141.5-133.10000000000002-16.5-15.59999999999998-32.599999999999966-31.499999999999986-49-47.29999999999998h-1.7999999999999545c-1.5 1.7000000000000028-3 3.4000000000000057-4.600000000000023 5-60.5 60.69999999999999-59.099999999999994 159.4 3.1999999999999886 218.60000000000002 25.19999999999999 23.799999999999955 50.30000000000001 47.39999999999998 75.40000000000003 71.09999999999997z m284.79999999999995 3.1999999999999886c65.80000000000007-61.89999999999998 131.60000000000002-123.79999999999998 198.5-186.7-0.6999999999999318-0.39999999999997726-1.7999999999999545-0.8999999999999773-2.699999999999932-1.6999999999999886-66.5-58.400000000000006-167.70000000000005-57.8-233.20000000000005 1.5999999999999943-26.200000000000045 23.80000000000001-51.700000000000045 48.30000000000001-77.39999999999998 72.5-1.3000000000000682 1.200000000000017-2.2000000000000455 2.8000000000000114-3.3999999999999773 4.400000000000006 65.29999999999995 13.100000000000023 104.39999999999998 50.10000000000002 118.19999999999993 109.89999999999998z m-259.4 22.400000000000034c-0.39999999999997726 62.80000000000001 56.69999999999999 113.69999999999999 122.39999999999998 112.5 64.5-1.1000000000000227 119.20000000000005-53.30000000000001 118.39999999999998-113-0.8999999999999773-63.60000000000002-54.799999999999955-115.30000000000001-120.79999999999995-114-68.39999999999998 1.5-119.69999999999999 48.80000000000001-120 114.5z m120.10000000000002-81.19999999999999c46.60000000000002-1 84.79999999999995 35.599999999999966 85.39999999999998 80.69999999999999 0.5 42.30000000000001-38.10000000000002 79.19999999999999-83.69999999999999 80-46.60000000000002 0.8000000000000114-86.90000000000003-35.19999999999999-86.60000000000002-79.60000000000002 0.19999999999998863-46.69999999999999 36.5-80.19999999999999 84.90000000000003-81.09999999999997z m1.1999999999999886 134.79999999999995c30.999999999999943-0.5 57.19999999999999-25.599999999999966 56.80000000000001-54.19999999999999-0.39999999999997726-30.5-26.300000000000068-55.39999999999998-57.900000000000034-54.80000000000001-32.80000000000001 0.7000000000000455-57.5 23.400000000000034-57.69999999999999 54.900000000000034-0.10000000000002274 30.19999999999999 27.19999999999999 54.599999999999966 58.80000000000001 54.099999999999966z"/>
</svg>
