<svg xmlns="http://www.w3.org/2000/svg" viewBox="0 0 1000 1000" width="1000" height="1000">
<path d="M902.5 517.4c9.399999999999977-9.599999999999966 9.399999999999977-25.299999999999955 0-34.89999999999998l-285.79999999999995-294.2c-9.400000000000091-9.600000000000023-24.5-9.600000000000023-33.90000000000009 0l-56.799999999999955 58.599999999999994c-9.399999999999977 9.599999999999994-9.399999999999977 25.299999999999983 0 34.900000000000006l135.29999999999995 139.2h-364.19999999999993c-13.200000000000045 0-24 11-24 24.69999999999999v98.59999999999997c0 13.700000000000045 10.799999999999955 24.700000000000045 24 24.700000000000045h374.1l-145.20000000000005 149.29999999999995c-9.399999999999977 9.600000000000023-9.399999999999977 25.300000000000068 0 34.90000000000009l56.799999999999955 58.5c9.400000000000091 9.599999999999909 24.5 9.599999999999909 33.90000000000009 0l285.79999999999995-294.30000000000007z m-484.5-333.4h-206.5v632.1h206.5v121.39999999999998h-267.2c-33.60000000000001 0-60.70000000000002-27.100000000000023-60.70000000000002-60.799999999999955v-753.4000000000001c0-33.59999999999995 27.10000000000001-60.799999999999955 60.70000000000002-60.799999999999955h267.2v121.5z"/>
</svg>
