<svg xmlns="http://www.w3.org/2000/svg" viewBox="0 0 1000 1000" width="1000" height="1000">
<path d="M131.8 895.6h736.8c51.500000000000114 0 84.70000000000005-54.30000000000007 61.40000000000009-100.20000000000005l-368.4-652.8c-25.399999999999977-50.800000000000026-98.10000000000002-50.800000000000026-123.5-2.842170943040401e-14l-368.40000000000003 652.8c-22.599999999999987 45.80000000000007 10.600000000000009 100.20000000000005 62.10000000000002 100.20000000000005z m426.2-151.80000000000007c0 33.90000000000009-24.700000000000045 60-60 60s-60-26.09999999999991-60-60v-1.3999999999999773c0-33.89999999999998 24.69999999999999-60 60-60s60 26.100000000000023 60 60v1.3999999999999773z m-92.39999999999998-440.99999999999994h69.19999999999993c19 0 30.300000000000068 16.19999999999999 28.200000000000045 36.69999999999999l-30.399999999999977 265.29999999999995c-2.1000000000000227 19.100000000000023-14.800000000000068 31-32.5 31-17.600000000000023 0-30.400000000000034-12-32.5-31l-30.400000000000034-265.29999999999995c-1.8999999999999773-20.5 9.400000000000034-36.69999999999999 28.400000000000034-36.69999999999999z"/>
</svg>
