<svg xmlns="http://www.w3.org/2000/svg" viewBox="0 0 1000 1000" width="1000" height="1000">
<path d="M63.1 544.6c3.6000000000000014-74.40000000000003 24.499999999999993-143.70000000000005 64.1-206.3 85.5-135 209.7-204.60000000000002 351.7-212.60000000000002 7.2000000000000455-0.09999999999999432 14.200000000000045-0.09999999999999432 21.100000000000023 1.4210854715202004e-14 6.899999999999977-0.10000000000000853 13.899999999999977 0 21.100000000000023 0 141.89999999999998 7.999999999999986 266.1 77.60000000000001 351.69999999999993 212.60000000000002 39.700000000000045 62.599999999999966 60.5 131.89999999999998 64.10000000000002 206.3 5.899999999999977 120.79999999999995-30.799999999999955 226.60000000000002-109.5 318.19999999999993-13.5 15.700000000000045-23 16.100000000000023-37.69999999999993 1.6000000000000227-14.700000000000045-14.5-29.200000000000045-29.100000000000023-43.700000000000045-43.69999999999993-16.100000000000023-16.100000000000023-16.700000000000045-23.200000000000045-2.2999999999999545-40.5 31.199999999999932-37.5 54.59999999999991-79.40000000000009 65.69999999999993-126.90000000000009 30.800000000000068-131.39999999999998-4.100000000000023-243.59999999999997-104.39999999999998-333.4-53.200000000000045-47.599999999999966-117.29999999999995-72.59999999999997-189.39999999999998-76.19999999999999-5.2000000000000455-0.19999999999998863-10.400000000000034-0.39999999999997726-15.5-0.39999999999997726s-10.300000000000011 0.19999999999998863-15.5 0.39999999999997726c-72.10000000000002 3.5-136.20000000000005 28.5-189.40000000000003 76.19999999999999-100.29999999999998 89.90000000000003-135.2 202-104.39999999999998 333.4 11.099999999999994 47.5 34.5 89.40000000000009 65.69999999999999 126.90000000000009 14.399999999999977 17.299999999999955 13.800000000000011 24.399999999999977-2.3000000000000114 40.5-14.599999999999994 14.599999999999909-29.099999999999994 29.199999999999932-43.69999999999999 43.69999999999993-14.699999999999989 14.5-24.30000000000001 14.100000000000023-37.69999999999999-1.6000000000000227-78.80000000000001-91.59999999999991-115.60000000000001-197.39999999999998-109.70000000000002-318.19999999999993z m406.29999999999995-11.200000000000045c27-20.199999999999932 53.89999999999998-40.5 80.89999999999998-60.799999999999955 42.10000000000002-31.600000000000023 84.20000000000005-63.30000000000001 126.5-94.70000000000005 4.2000000000000455-3.099999999999966 10.100000000000023-6.199999999999989 14.900000000000091-5.7999999999999545 13.099999999999909 1 16.199999999999932 13.699999999999989 7 26.099999999999966-52.200000000000045 69.60000000000002-104.40000000000009 139.2-156.5 208.8-13.900000000000091 18.5-36.50000000000006 25.600000000000023-59.30000000000007 18.200000000000045-20.899999999999977-6.800000000000068-35-26.700000000000045-35-49.30000000000007 0-17.799999999999955 7.300000000000011-31.899999999999977 21.5-42.5z"/>
</svg>
