<svg xmlns="http://www.w3.org/2000/svg" viewBox="0 0 1000 1000" width="1000" height="1000">
<path d="M492.9 561.3c17.5 16.200000000000045 34.10000000000002 31.600000000000023 47.80000000000007 44.30000000000007 17.899999999999977-16.5 36.09999999999991-32.89999999999998 53.799999999999955-49.80000000000007 2-1.8999999999999773 2.2999999999999545-6 2.7999999999999545-9.199999999999932 2-12.5 2.2000000000000455-25.600000000000023 6-37.60000000000002 11.800000000000068-38.19999999999999 50.700000000000045-63.60000000000002 90.70000000000005-61.30000000000001 3 0.19999999999998863 6.899999999999977-2 9.100000000000023-4.300000000000011 63.299999999999955-65.09999999999997 126.5-130.29999999999995 189.60000000000002-195.49999999999997 15-15.5 29.899999999999977-31.099999999999994 44.799999999999955-46.599999999999994-0.7999999999999545-1.200000000000017-1.1000000000000227-2-1.6000000000000227-2.6000000000000227-31.600000000000023-32.69999999999999-63.39999999999998-65.39999999999998-94.89999999999998-98.19999999999999-11.899999999999977-12.400000000000006-23.399999999999977-25.200000000000003-35.10000000000002-37.9h-3.3999999999999773c-0.7000000000000455 0.8999999999999986-1.2999999999999545 1.8000000000000043-2.1000000000000227 2.6999999999999957-76.89999999999998 79.2-153.69999999999993 158.5-230.39999999999998 238-2.8999999999999773 3-5.2999999999999545 8.300000000000011-5.100000000000023 12.300000000000011 3.1000000000000227 48-33.60000000000002 93.69999999999999-81.5 97-17.299999999999955 1.1999999999999886-29.099999999999966 6.899999999999977-38.799999999999955 19.899999999999977-1.7000000000000455 2.3000000000000114-4 4-6 6.100000000000023-10 10.399999999999977-20 20.799999999999955-30.400000000000034 31.599999999999966 16.19999999999999 16.900000000000034 31.900000000000034 33.19999999999999 48 49.900000000000034-78.69999999999999 81.19999999999993-156.89999999999998 162.10000000000002-235.2 242.89999999999998l-8.900000000000006-7.7999999999999545c-26.299999999999983 20.199999999999932-50.79999999999998 40.89999999999998-66.69999999999999 70.89999999999998-16.700000000000017 31.299999999999955-36.7 60.799999999999955-55.10000000000001 90.69999999999993 6.900000000000006 7.100000000000023 13.299999999999997 13.800000000000068 20 20.700000000000045 1.2999999999999972-0.7000000000000455 2.6000000000000085-1.2999999999999545 3.799999999999997-2.1000000000000227 30.700000000000017-20.100000000000023 61.5-40.10000000000002 92.1-60.19999999999993 8.5-5.600000000000023 18.400000000000006-10.200000000000045 25.100000000000023-17.5 13-14.300000000000068 24.19999999999999-30.100000000000023 36.19999999999999-45.40000000000009l-8.199999999999989-9.699999999999932c78.39999999999998-81.20000000000005 156.7-162 233.59999999999997-241.30000000000007z m-191-98.99999999999994c2.7000000000000455-0.8000000000000114 7.100000000000023 0.5999999999999659 9.200000000000045 2.599999999999966 10.399999999999977 10.100000000000023 20 21.100000000000023 30.5 31.100000000000023 18.69999999999999 17.799999999999955 37.89999999999998 35.10000000000002 55.39999999999998 51.200000000000045 8.399999999999977-7.300000000000068 19.5-17 33.5-29.300000000000068-18.19999999999999-16.099999999999966-35.19999999999999-31.19999999999999-52.10000000000002-46.19999999999999 2.400000000000034-2.8000000000000114 3-3.8999999999999773 3.7000000000000455-4.699999999999989 23.399999999999977-24.100000000000023 46.69999999999999-48.30000000000001 70.19999999999999-72.19999999999999 2-2 5.800000000000011-2.6999999999999886 8.899999999999977-2.900000000000034 9-0.39999999999997726 18.100000000000023-0.0999999999999659 27.100000000000023-0.0999999999999659-18.100000000000023-21.600000000000023-36.5-40.5-54.60000000000002-59.69999999999999-2-2.2000000000000455-3.3999999999999773-6.5-2.8000000000000114-9.400000000000034 12.200000000000045-55.19999999999999 4.5-107.5-27.099999999999966-154.2-42.80000000000001-63.3-103.30000000000001-91.3-179.60000000000002-83.3-7.899999999999977 0.7999999999999972-15.599999999999994 3.0999999999999943-24.899999999999977 5 14.299999999999983 14.799999999999997 27.19999999999999 28.099999999999994 40 41.39999999999999 20.69999999999999 21.5 41.599999999999966 42.900000000000006 62.099999999999966 64.70000000000002 2 2.0999999999999943 3 6.599999999999994 2.400000000000034 9.399999999999977-7.800000000000011 31.700000000000017-15.900000000000034 63.30000000000001-24.400000000000034 94.80000000000001-0.7999999999999545 3-4.399999999999977 6.600000000000023-7.399999999999977 7.5-30.30000000000001 8.699999999999989-60.69999999999999 16.69999999999999-91 25.30000000000001-4.599999999999994 1.3000000000000114-7.099999999999994 0.5-10.300000000000011-2.8000000000000114-27.19999999999999-28.30000000000001-54.599999999999994-56.5-81.89999999999999-84.69999999999999-6.299999999999997-6.5-12.799999999999997-12.900000000000006-20-20.100000000000023-2.299999999999997 10.700000000000017-4.200000000000003 19.5-6.099999999999994 28.30000000000001v46.10000000000002c0.5 1.2999999999999545 1.3999999999999915 2.5 1.5999999999999943 3.7999999999999545 14.100000000000009 110.80000000000001 121.50000000000001 191.70000000000005 237.59999999999997 158.40000000000003z m452.1 201.09999999999997c-32.39999999999998-33.60000000000002-64.70000000000005-67.29999999999995-97.39999999999998-100.60000000000002-12.100000000000023-12.299999999999955-25.100000000000023-23.699999999999932-37.89999999999998-35.69999999999993-0.20000000000004547 1.6999999999999318-1.3000000000000682 4.5-0.8000000000000682 7 4.600000000000023 21-5.699999999999932 35.10000000000002-20.600000000000023 48.10000000000002-19.699999999999932 17.199999999999932-38.5 35.39999999999998-56.59999999999991 52.09999999999991-14.100000000000023-13.099999999999909-30.800000000000068-28.5-45.80000000000007-42.39999999999998-10.199999999999989 9.200000000000045-21 18.899999999999977-32.299999999999955 29.100000000000023 22.899999999999977 23.799999999999955 44.599999999999966 46.39999999999998 66.39999999999998 68.89999999999998 58.39999999999998 60.30000000000007 116.79999999999995 120.60000000000002 175.29999999999995 180.89999999999998 15.300000000000068 15.700000000000045 29.600000000000023 32.60000000000002 46.40000000000009 46.5 35.19999999999993 29.300000000000068 86.09999999999991 25 117.39999999999998-8.099999999999909 32.39999999999998-34.40000000000009 34.19999999999993-90.80000000000007 2.6000000000000227-124.40000000000009-38.40000000000009-41.19999999999993-77.80000000000007-81.09999999999991-116.70000000000005-121.39999999999998z m80.79999999999995 213.80000000000007c-0.39999999999997726 1.5-3.199999999999932 2.8999999999999773-5.099999999999909 3.5-11.200000000000045 3.199999999999932-22.300000000000068 6.399999999999977-33.700000000000045 9-2.6000000000000227 0.599999999999909-6.7000000000000455-0.3000000000000682-8.600000000000023-2.1000000000000227-9.799999999999955-9.399999999999977-19.399999999999977-19.200000000000045-28.600000000000023-29.300000000000068-1.8999999999999773-2-2.8999999999999773-6.199999999999932-2.2999999999999545-8.899999999999977 2.5-11.600000000000023 5.5-23.199999999999932 9-34.5 0.7999999999999545-2.699999999999932 3.6000000000000227-5.7999999999999545 6.2000000000000455-6.600000000000023 11.299999999999955-3.599999999999909 22.899999999999977-6.699999999999932 34.39999999999998-9.299999999999955 2.2999999999999545-0.5 6 0.6000000000000227 7.7999999999999545 2.2999999999999545 9.800000000000068 9.5 19.200000000000045 19.300000000000068 28.700000000000045 29.200000000000045 1.6000000000000227 1.7000000000000455 2.3999999999999773 4 3.199999999999932 5.2999999999999545-3.7999999999999545 14.5-7.199999999999932 28-11 41.40000000000009z"/>
</svg>
