<svg xmlns="http://www.w3.org/2000/svg" viewBox="0 0 1000 1000" width="1000" height="1000">
<path d="M67.4 742c16.099999999999994 1 30.799999999999997 1.8999999999999773 45.5 2.7000000000000455 14.299999999999997 0.7999999999999545 28.69999999999999 1.3999999999999773 42.69999999999999 2 0.9000000000000057-30.300000000000068 1.700000000000017-59.700000000000045 2.5999999999999943-89.80000000000007 31.80000000000001 1.7000000000000455 60.70000000000002 3.300000000000068 90.5 4.899999999999977 0.9000000000000057-32.19999999999993 1.700000000000017-60.69999999999993 2.5-90.5 31.30000000000001 1.3000000000000682 60.30000000000001 2.5 91.90000000000003 3.800000000000068 0.19999999999998863-16.200000000000045 0.2999999999999545-31.700000000000045 0.6999999999999886-47.200000000000045 0.5-20.099999999999966 0.8000000000000114-40.299999999999955 2.3000000000000114-60.299999999999955 0.39999999999997726-5.800000000000011 3.3999999999999773-12.700000000000045 7.399999999999977-16.700000000000045 19.899999999999977-19.599999999999966 40.30000000000001-38.69999999999999 61.10000000000002-57.39999999999998 6.2999999999999545-5.600000000000023 7.5-10.899999999999977 6.099999999999966-19-17.30000000000001-103.69999999999999 14.199999999999989-189.9 96.40000000000003-255.5 83.89999999999998-66.9 210.5-69.9 300.9-9.299999999999997 126 84.39999999999999 157.79999999999995 249.90000000000003 69 372.8-63.299999999999955 87.70000000000005-168.5 124-273.70000000000005 97.20000000000005-9-2.300000000000068-14.699999999999932-1.3000000000000682-21.59999999999991 5.199999999999932-120.80000000000007 113.80000000000007-242.10000000000002 227.10000000000002-363.00000000000006 340.70000000000005-6.599999999999994 6.199999999999932-12.899999999999977 8.5-21.799999999999983 8.100000000000023-36.900000000000006-1.8000000000000682-73.9-2.800000000000068-110.80000000000001-4.2000000000000455-27.599999999999994-1.1000000000000227-34.39999999999999-8.600000000000023-33.49999999999999-36.60000000000002 1.499999999999993-49.299999999999955 3.1000000000000014-98.5 4.800000000000004-150.89999999999998z m642.6-444.5c26 27.80000000000001 69.89999999999998 29.69999999999999 97.5 4.199999999999989 28.200000000000045-26.19999999999999 29.100000000000023-69.39999999999998 2.1000000000000227-98.1-26.200000000000045-27.799999999999983-70.60000000000002-29.5-97.5-3.9000000000000057-27 25.80000000000001-27.899999999999977 70.10000000000002-2.1000000000000227 97.80000000000001z"/>
</svg>
