<svg xmlns="http://www.w3.org/2000/svg" viewBox="0 0 1000 1000" width="1000" height="1000">
<path d="M793.4 197.1c-27.699999999999932 0-50.39999999999998 22.700000000000017-50.39999999999998 50.400000000000006v218.89999999999998c0 9.200000000000045-7.5 16.700000000000045-16.700000000000045 16.700000000000045-9.399999999999977 0-17-7.600000000000023-17-16.700000000000045v-319.79999999999995c0-27.90000000000002-22.5-50.40000000000002-50.39999999999998-50.40000000000002-27.699999999999932 0-50.39999999999998 22.5-50.39999999999998 50.39999999999999v286.1c0 9.199999999999932-7.600000000000023 16.699999999999932-16.700000000000045 16.699999999999932-9.399999999999977 0-17-7.5-17-16.69999999999999v-319.79999999999995c0-27.70000000000003-22.5-50.400000000000034-50.39999999999998-50.400000000000034s-50.39999999999998 22.700000000000003-50.39999999999998 50.400000000000006v319.79999999999995c0 9.200000000000045-7.600000000000023 16.700000000000045-17 16.700000000000045-9.199999999999989 0-16.69999999999999-7.5-16.69999999999999-16.69999999999999v-252.39999999999998c0-27.900000000000006-22.69999999999999-50.400000000000006-50.400000000000034-50.400000000000006-27.899999999999977 0-50.39999999999998 22.5-50.39999999999998 50.400000000000006v420.7l-68.19999999999999-93.39999999999998c-20.200000000000017-31.100000000000023-59.70000000000002-41.60000000000002-88.5-23.600000000000023-28.80000000000001 18.19999999999999-35.900000000000006 57.89999999999998-15.900000000000006 89.10000000000002 0 0 109.9 166.19999999999993 156.79999999999998 237.39999999999998 46.80000000000001 71.29999999999995 122.80000000000001 127.10000000000002 264.7 127.10000000000002 234.89999999999998 0 256-181.39999999999998 256-235.60000000000002v-454.5c-0.39999999999997726-27.80000000000001-23.100000000000023-50.400000000000006-51-50.400000000000006z"/>
</svg>
