<svg xmlns="http://www.w3.org/2000/svg" viewBox="0 0 1000 1000" width="1000" height="1000">
<path d="M469.2 389.4c-18.099999999999966 24.200000000000045-35.30000000000001 47.30000000000001-52.89999999999998 70.80000000000001-12.900000000000034-14.099999999999966-25.19999999999999-28.099999999999966-38.10000000000002-41.599999999999966-18.399999999999977-19.200000000000045-39.19999999999999-35.30000000000001-62.599999999999966-48.10000000000002-28.400000000000034-15.399999999999977-56.10000000000002-9-83.10000000000002 2.8000000000000114-57.900000000000006 25.30000000000001-90.9 86.30000000000001-81.5 148.59999999999997 9.199999999999989 60.80000000000007 60.900000000000006 111.20000000000005 122.60000000000002 117.30000000000007 34.19999999999999 3.3999999999999773 63.19999999999999-11.900000000000091 85.19999999999999-36.10000000000002 32-35.30000000000007 61.39999999999998-73 91.39999999999998-110.10000000000002 37-46 72.09999999999997-93.60000000000002 110.50000000000006-138.39999999999998 36.799999999999955-43 83.79999999999995-70.70000000000005 141.29999999999995-76.80000000000001 39.700000000000045-4.199999999999989 77.20000000000005 5.599999999999966 111.89999999999998 24.69999999999999 68.20000000000005 37.5 112.39999999999998 93.89999999999998 121.80000000000007 172 9.599999999999909 78.89999999999998-18.5 145.5-79.60000000000002 196.39999999999998-46.5 38.700000000000045-100.80000000000007 56.89999999999998-161.60000000000002 49.200000000000045-52.200000000000045-6.600000000000023-94.60000000000002-32.700000000000045-129.39999999999998-71.80000000000007-10.300000000000068-11.5-20.700000000000045-22.899999999999977-30.700000000000045-34.69999999999993-1.8999999999999773-2.300000000000068-3.699999999999932-7.600000000000023-2.5-9.300000000000068 16.200000000000045-22.5 32.89999999999998-44.59999999999991 49.39999999999998-66.69999999999993 18.5 21.299999999999955 35.700000000000045 42.10000000000002 54.200000000000045 61.799999999999955 8.299999999999955 8.899999999999977 18.799999999999955 16.100000000000023 29.100000000000023 22.800000000000068 44.10000000000002 28.5 86.69999999999993 20.199999999999932 126.39999999999998-8.400000000000091 48.39999999999998-34.89999999999998 67.5-83.89999999999998 56.10000000000002-141.69999999999993-11.300000000000068-57-48.30000000000007-92.10000000000002-104.5-107.20000000000005-25.200000000000045-6.7999999999999545-48-1.8999999999999773-69.60000000000002 12-34 21.80000000000001-61.89999999999998 50.10000000000002-86.5 81.60000000000002-41.60000000000002 53.30000000000001-82.19999999999999 107.5-124 160.60000000000002-26.5 33.69999999999993-57 63.5-96.30000000000001 82.39999999999998-75.39999999999998 36.299999999999955-147.1 24.600000000000023-212.39999999999998-23.100000000000023-118.50000000000001-86.69999999999993-122.4-259.29999999999995-8-351.5 89.1-71.79999999999998 205.59999999999997-67.59999999999997 286.3 21.400000000000034 12.299999999999955 13.399999999999977 24.399999999999977 27 37.099999999999966 41.099999999999966z"/>
</svg>
