<svg xmlns="http://www.w3.org/2000/svg" viewBox="0 0 1000 1000" width="1000" height="1000">
<path d="M811.2 168.5c-255.80000000000007 0-298.9000000000001-96.9-299.6-98-1.8000000000000114-4.799999999999997-6.2000000000000455-8-11.400000000000034-8h-0.39999999999997726c-5.199999999999989 0-10 3.200000000000003-11.699999999999989 8-0.4000000000000341 1-44.5 98-299.6 98-7.300000000000011 0-12.800000000000011 5.900000000000006-12.800000000000011 12.800000000000011v435.2c0 178.10000000000002 306.2 314.5 318.90000000000003 320 1.7999999999999545 1 3.3999999999999773 1 5.5 1 1.3999999999999773 0 3.3999999999999773 0 4.7999999999999545-1 13.100000000000023-5.5 319.30000000000007-141.79999999999995 319.30000000000007-320v-435.3c0.1999999999999318-6.899999999999977-5.7000000000000455-12.699999999999989-13-12.699999999999989z m-92.10000000000002 186.7c-115 105.60000000000002-204.70000000000005 251.3-232 321.00000000000006-0.7000000000000455 2.099999999999909-2.8000000000000114 3.7999999999999545-5.2000000000000455 4.099999999999909-0.2999999999999545 0.40000000000009095-0.6999999999999886 0.40000000000009095-1 0.40000000000009095-2.099999999999966 0-3.7999999999999545-0.7000000000000455-4.7999999999999545-2.1000000000000227l-169.10000000000002-171.90000000000003c-1-1.3999999999999773 49.69999999999999-46.599999999999966 52.19999999999999-44.89999999999998l92.80000000000001 72.80000000000001c36.19999999999999-42.400000000000034 125-138.40000000000003 248.5-214 2.5 0 20.399999999999977 26.899999999999977 20.399999999999977 26.899999999999977 1 2.8999999999999773 0.3000000000000682 5.899999999999977-1.7999999999999545 7.699999999999989z"/>
</svg>
