<svg xmlns="http://www.w3.org/2000/svg" viewBox="0 0 1000 1000" width="1000" height="1000">
<path d="M906.3 469.5c-52.299999999999955-0.10000000000002274-104.69999999999993 0-157.0999999999999 0.10000000000002274-19.300000000000068 0.0999999999999659-31.100000000000023 12.399999999999977-30.90000000000009 31.899999999999977 0.20000000000004547 18.5 12.5 30.799999999999955 31.300000000000068 30.799999999999955 52.299999999999955 0.10000000000002274 104.69999999999993 0.10000000000002274 157.10000000000002 0.10000000000002274 12 0 20.399999999999977-5.899999999999977 26.5-15.699999999999932 1.2999999999999545-2.1000000000000227 1-5.100000000000023 3.7999999999999545-6.400000000000034v-17.100000000000023c-5.399999999999977-14-14.5-23.599999999999966-30.700000000000045-23.69999999999999z m-375 359c0-25.899999999999977 0.10000000000002274-51.89999999999998 0-77.79999999999995-0.09999999999990905-18.600000000000023-12.599999999999909-31.100000000000023-30.999999999999943-31.200000000000045-18.80000000000001-0.10000000000002274-31.30000000000001 11.899999999999977-31.400000000000034 30.700000000000045-0.19999999999998863 52.09999999999991-0.19999999999998863 104.29999999999995-0.19999999999998863 156.39999999999998 0 18.399999999999977 13.100000000000023 31 31.5 31 18.19999999999999 0 31.099999999999966-13 31.099999999999966-31.200000000000045v-77.89999999999998z m86.80000000000007-513.1c14.100000000000023 3.900000000000034 27.100000000000023-1.1999999999999886 35-14.399999999999977 26.799999999999955-44.89999999999998 53.39999999999998-90 79.89999999999998-135 9.100000000000023-15.400000000000006 4.5-33.099999999999994-10.5-42.3-15.700000000000045-9.600000000000009-33.5-6.1000000000000085-42.89999999999998 9.600000000000009-26.899999999999977 44.89999999999998-53.30000000000007 89.89999999999998-79.89999999999998 135-3.1000000000000227 5.199999999999989-5.2000000000000455 10.800000000000011-4.900000000000091 16.099999999999966 0.10000000000002274 14.800000000000011 9.700000000000045 27.200000000000045 23.300000000000068 31z m-117.10000000000002-252.89999999999998c-18.5-0.29999999999999716-32 11.799999999999997-32.10000000000002 30.099999999999994-0.2999999999999545 52.30000000000001 0 104.6 0 156.9 0 6 1 11.899999999999977 4 16.30000000000001 7.5 12.699999999999989 22.100000000000023 18.5 35.900000000000034 14.800000000000011 14.099999999999966-3.8000000000000114 22.69999999999999-14.900000000000034 22.69999999999999-30.200000000000017 0.10000000000002274-52.30000000000001 0.10000000000002274-104.6 0-156.9 0-17.900000000000006-12.799999999999955-30.700000000000003-30.5-31z m182.20000000000005 317.5c4.2999999999999545 13.600000000000023 16 22.600000000000023 30.399999999999977 22.600000000000023 6.2999999999999545 0.5 12.100000000000023-2.400000000000034 17.799999999999955-5.900000000000034l86.20000000000005-52c15.799999999999955-9.5 31.799999999999955-18.80000000000001 47.39999999999998-28.80000000000001 14.700000000000045-9.399999999999977 18.100000000000023-26.69999999999999 8.899999999999977-41.799999999999955-8.899999999999977-14.800000000000011-26-20.200000000000017-40.39999999999998-11.600000000000023-46.200000000000045 27.399999999999977-92.20000000000005 55.19999999999999-138.10000000000002 83.19999999999999-12.100000000000023 7.400000000000034-16.299999999999955 21.100000000000023-12.199999999999932 34.30000000000001z m184.19999999999993 294.9c-19.899999999999977-11.5-39.89999999999998-22.899999999999977-59.89999999999998-34.299999999999955-25.600000000000023-14.600000000000023-51.200000000000045-29.5-77.10000000000002-43.700000000000045-15.799999999999955-8.699999999999932-32.5-3.1000000000000227-41.39999999999998 12.899999999999977-8.200000000000045 15-4 32.40000000000009 10.600000000000023 40.80000000000007 45.799999999999955 26.299999999999955 91.60000000000002 52.69999999999993 137.60000000000002 78.69999999999993 21.09999999999991 11.900000000000091 45.39999999999998-2.599999999999909 46.5-29.399999999999977-0.40000000000009095-9.899999999999977-5.900000000000091-19-16.300000000000068-25z m-217.39999999999998 26.100000000000023c-8.899999999999977-15.399999999999977-25.899999999999977-19.5-41.200000000000045-10.799999999999955-16 9.099999999999909-21.199999999999932 25.5-12.199999999999932 41.5 26.100000000000023 46 52.299999999999955 91.89999999999998 78.69999999999993 137.69999999999993 7.2000000000000455 12.399999999999977 21.100000000000023 17.5 34.60000000000002 13.399999999999977 13.800000000000068-4.199999999999932 23.300000000000068-16.5 23.100000000000023-30.399999999999977 0-5.2999999999999545-1.8999999999999773-10-4.5-14.5-26.100000000000023-45.69999999999993-52.200000000000045-91.39999999999998-78.5-136.89999999999998z m-367.9-199.3c0.19999999999998863-19.5-11.600000000000023-31.80000000000001-30.900000000000034-31.899999999999977-52.29999999999998-0.19999999999998863-104.69999999999999-0.19999999999998863-157.1-0.10000000000002274-16.19999999999999 0-25.39999999999999 9.5-30.699999999999996 23.80000000000001v17.100000000000023c2.6000000000000014 1.2999999999999545 2.3999999999999986 4.2999999999999545 3.8000000000000043 6.399999999999977 6.099999999999994 9.899999999999977 14.599999999999994 15.700000000000045 26.5 15.700000000000045 52.3 0 104.7 0 157.10000000000002-0.10000000000002274 18.69999999999999-0.10000000000002274 31.099999999999966-12.5 31.30000000000001-30.900000000000034z m65.09999999999997-200.7c7.900000000000034 13.199999999999989 20.900000000000034 18.30000000000001 35 14.399999999999977 13.699999999999989-3.7999999999999545 23.400000000000034-16.19999999999999 23.400000000000034-31 0.2999999999999545-5.2999999999999545-1.8000000000000114-10.799999999999955-4.900000000000034-16.099999999999966-26.599999999999966-45-53-90.10000000000002-79.89999999999998-135-9.400000000000034-15.700000000000017-27.19999999999999-19.200000000000017-43-9.500000000000014-15 9.200000000000003-19.600000000000023 26.799999999999997-10.5 42.3 26.5 45 53.19999999999999 90.00000000000003 79.89999999999998 134.9z m-211.89999999999998 15c15.599999999999994 10 31.599999999999994 19.19999999999999 47.39999999999998 28.80000000000001 28.700000000000017 17.30000000000001 57.400000000000006 34.599999999999966 86.19999999999999 52 5.7000000000000455 3.3999999999999773 11.5 6.399999999999977 17.80000000000001 5.899999999999977 14.300000000000011 0 26.100000000000023-8.899999999999977 30.400000000000034-22.599999999999966 4.199999999999989-13.200000000000045-0.10000000000002274-26.900000000000034-12.200000000000045-34.30000000000001-45.799999999999955-28-91.89999999999998-55.69999999999999-138.09999999999997-83.19999999999999-14.5-8.600000000000023-31.5-3.2000000000000455-40.400000000000006 11.599999999999966-9.200000000000003 15.100000000000023-5.800000000000011 32.30000000000001 8.900000000000006 41.80000000000001z m176 293.6c-8.800000000000011-16-25.5-21.5-41.400000000000034-12.899999999999977-25.899999999999977 14.299999999999955-51.39999999999998 29.09999999999991-77.09999999999997 43.69999999999993-19.900000000000006 11.399999999999977-40 22.800000000000068-59.900000000000006 34.30000000000007-10.5 6-15.800000000000011 15-16.30000000000001 24.799999999999955 1 26.799999999999955 25.30000000000001 41.299999999999955 46.5 29.399999999999977 46-26 91.9-52.19999999999993 137.6-78.69999999999993 14.600000000000023-8.200000000000045 18.80000000000001-25.600000000000023 10.600000000000023-40.60000000000002z m80.30000000000001 80.5c-15.300000000000011-8.700000000000045-32.30000000000001-4.5-41.200000000000045 10.799999999999955-26.299999999999955 45.5-52.39999999999998 91.20000000000005-78.59999999999997 136.80000000000007-2.5 4.5-4.5 9.199999999999932-4.5 14.5-0.10000000000002274 13.899999999999977 9.300000000000011 26.199999999999932 23.099999999999966 30.399999999999977 13.5 4.100000000000023 27.400000000000034-1 34.60000000000002-13.399999999999977 26.399999999999977-45.80000000000007 52.69999999999999-91.70000000000005 78.69999999999999-137.70000000000005 9.100000000000023-15.799999999999955 3.900000000000034-32.299999999999955-12.099999999999966-41.39999999999998z"/>
</svg>
