<svg xmlns="http://www.w3.org/2000/svg" viewBox="0 0 1000 1000" width="1000" height="1000">
<path d="M500.2 433.1c199.09999999999997 0 360.40000000000003-58.80000000000001 360.40000000000003-131.40000000000003v-107.79999999999998c0-72.60000000000001-161.39999999999998-131.4-360.40000000000003-131.4s-360.4 58.8-360.4 131.4v107.79999999999998c0 72.69999999999999 161.3 131.5 360.4 131.40000000000003z m360.09999999999997-58.80000000000001c-13.699999999999932 68-170.0999999999999 121.69999999999999-360.09999999999997 121.69999999999999s-346.79999999999995-53.60000000000002-360.4-121.69999999999999c-0.6000000000000227 3.1999999999999886 0 178.2 0 178.2 0 72.60000000000002 161.39999999999998 131.39999999999998 360.4 131.39999999999998s360.40000000000003-58.89999999999998 360.40000000000003-131.5c0 0 0.39999999999997726-174.79999999999995-0.3000000000000682-178.09999999999997z m-360.09999999999997 375.3c-190 0-346.79999999999995-53.60000000000002-360.4-121.60000000000002v178.10000000000002c0 72.60000000000002 161.39999999999998 131.39999999999998 360.4 131.39999999999998s360.40000000000003-58.799999999999955 360.40000000000003-131.39999999999998l-0.3000000000000682-178.10000000000002c-13.799999999999955 68-170.0999999999999 121.60000000000002-360.09999999999997 121.60000000000002z"/>
</svg>
