<svg xmlns="http://www.w3.org/2000/svg" viewBox="0 0 1000 1000" width="1000" height="1000">
<path d="M593.7 532.1c-3.7000000000000455-2-4.900000000000091-4.300000000000068-4.800000000000068-8.5 0.3000000000000682-10.600000000000023-0.1999999999999318-21.200000000000045 0.3000000000000682-31.80000000000001 0.09999999999990905-2.5 2-5.800000000000011 4.099999999999909-7.100000000000023 7.100000000000023-4.599999999999966 14.600000000000023-8.599999999999966 21.90000000000009-12.800000000000011 15.099999999999909-8.599999999999966 30.09999999999991-17.299999999999955 46.39999999999998-26.599999999999966-5.899999999999977-17.100000000000023-11.899999999999977-33.80000000000001-17.399999999999977-50.60000000000002-2-6.099999999999966-5.400000000000091-6.899999999999977-11.400000000000091-6.199999999999989-22.899999999999977 2.6000000000000227-45.799999999999955 4.5-68.69999999999993 6.800000000000011-4.300000000000068 0.39999999999997726-6.899999999999977-0.8000000000000114-9.5-4.5-5.800000000000068-8.600000000000023-12.200000000000045-16.69999999999999-18.700000000000045-24.900000000000034-2.2999999999999545-3-3.1000000000000227-5.2999999999999545-1.2999999999999545-8.899999999999977 3.6000000000000227-7.100000000000023 6.600000000000023-14.399999999999977 9.799999999999955-21.69999999999999 7.100000000000023-15.900000000000034 14.300000000000068-31.900000000000034 21.899999999999977-49.10000000000002-15.899999999999977-10.899999999999977-31.5-21.399999999999977-47-32.19999999999999-3.599999999999909-2.5-5.7999999999999545-1.4000000000000057-8.699999999999932 1.1999999999999886-17.80000000000001 15.600000000000023-35.900000000000034 30.900000000000034-53.80000000000001 46.5-3.1999999999999886 2.8000000000000114-5.800000000000011 2.900000000000034-9.699999999999989 1.5-9.800000000000011-3.5-19.700000000000045-6.599999999999966-29.700000000000045-9.199999999999989-4.599999999999966-1.1999999999999886-6.599999999999966-3.3000000000000114-7.599999999999966-8-5.199999999999989-24.100000000000023-10.900000000000034-48.19999999999999-16.600000000000023-73.1h-62.69999999999999c-5.800000000000011 25.400000000000006-11.399999999999977 49.49999999999997-16.600000000000023 73.70000000000002-1 4.399999999999977-3.099999999999966 6.199999999999989-7.2999999999999545 7.399999999999977-10 2.8000000000000114-20 5.699999999999989-29.700000000000045 9.300000000000011-4.2999999999999545 1.599999999999966-6.899999999999977 1.099999999999966-10.199999999999989-1.8000000000000114-17.799999999999983-15.600000000000023-35.79999999999998-31-53.89999999999998-46.30000000000001-1.700000000000017-1.3999999999999773-5.700000000000017-2.299999999999983-7.200000000000017-1.299999999999983-16.099999999999994 10.599999999999994-32 21.49999999999997-48 32.49999999999997 10.800000000000011 24.200000000000045 20.900000000000006 47.10000000000002 31.30000000000001 69.80000000000001 2 4.400000000000034 1.4000000000000057 7.199999999999989-1.5999999999999943 10.800000000000011-5.600000000000023 6.600000000000023-11.600000000000023 13.199999999999989-15.700000000000017 20.69999999999999-4 7.199999999999989-8.900000000000006 8.300000000000011-16.400000000000006 7.400000000000034-22.399999999999977-2.6000000000000227-44.79999999999998-4.600000000000023-67.29999999999998-6.5-2-0.20000000000004547-5.6000000000000085 1.2999999999999545-6.200000000000003 2.7999999999999545-6.700000000000003 17.900000000000034-13 36-19.300000000000004 53.900000000000034 3.3999999999999986 2.099999999999966 5.300000000000004 3.1999999999999886 7.199999999999996 4.300000000000011 20.10000000000001 11.5 40.2 23.099999999999966 60.5 34.5 3.9000000000000057 2.1999999999999886 5.200000000000017 4.599999999999966 5.099999999999994 9.099999999999966-0.39999999999997726 10.100000000000023-0.39999999999997726 20.19999999999999 0 30.30000000000001 0.20000000000001705 4.5-1.299999999999983 6.899999999999977-5.099999999999994 9.100000000000023-20 11.199999999999932-39.89999999999999 22.699999999999932-59.89999999999999 34.10000000000002-2.200000000000003 1.2999999999999545-4.400000000000006 2.7999999999999545-7.600000000000001 4.899999999999977 5.899999999999999 17 11.999999999999993 33.69999999999993 17.499999999999993 50.60000000000002 2 6.099999999999909 5.5 6.399999999999977 10.900000000000006 5.899999999999977 22.900000000000006-2.3999999999999773 45.80000000000001-4.5 68.69999999999999-6.800000000000068 4.600000000000023-0.5 7.400000000000006 0.8000000000000682 10.100000000000023 4.800000000000068 5.099999999999994 7.899999999999977 10.699999999999989 15.5 16.799999999999983 22.600000000000023 3.9000000000000057 4.5 4.400000000000006 7.899999999999977 1.9000000000000057 13.299999999999955-10.300000000000011 22.200000000000045-20.19999999999999 44.60000000000002-30.80000000000001 68.39999999999998 16.100000000000023 11 32 22 48.10000000000002 32.5 1.5 1 5.5 0 7.199999999999989-1.3999999999999773 18.099999999999994-15.299999999999955 36.099999999999994-30.700000000000045 53.89999999999998-46.299999999999955 3.400000000000034-2.900000000000091 6-3.400000000000091 10.200000000000045-1.8000000000000682 9.5 3.6000000000000227 19.19999999999999 6.5 29 9.100000000000023 4.7999999999999545 1.2999999999999545 7.099999999999966 3.2999999999999545 8.099999999999966 8.299999999999955 5.199999999999989 24.100000000000023 10.800000000000011 48.200000000000045 16.5 73h62.60000000000002c5.699999999999989-25.09999999999991 11.300000000000011-49.19999999999993 16.599999999999966-73.29999999999995 1-4.600000000000023 3-6.7999999999999545 7.600000000000023-8 10-2.6000000000000227 20-5.600000000000023 29.69999999999999-9.200000000000045 4.400000000000034-1.599999999999909 6.900000000000034-0.8999999999999773 10.199999999999989 2 17.80000000000001 15.600000000000023 35.80000000000001 31 53.900000000000034 46.30000000000007 1.599999999999966 1.2999999999999545 5.199999999999989 2.2999999999999545 6.599999999999966 1.3999999999999773 16.300000000000068-10.700000000000045 32.39999999999998-21.700000000000045 48.5-32.60000000000002-10.899999999999977-24.5-21-47.39999999999998-31.399999999999977-70.10000000000002-2-4.199999999999932-1.2999999999999545-6.7999999999999545 1.3999999999999773-10.099999999999909 5.7000000000000455-6.900000000000091 11.899999999999977-13.600000000000023 16.100000000000023-21.300000000000068 4.100000000000023-7.399999999999977 9.200000000000045-8 16.600000000000023-7.199999999999932 22.399999999999977 2.599999999999909 44.799999999999955 4.599999999999909 67.29999999999995 6.5 2.1000000000000227 0.1999999999999318 5.600000000000023-1.900000000000091 6.300000000000068-3.7000000000000455 6.599999999999909-17.5 12.599999999999909-35.200000000000045 18.899999999999977-52.89999999999998-3.5-2.2000000000000455-5.7000000000000455-3.7000000000000455-8-5-19.899999999999977-11.800000000000068-39.80000000000007-23.300000000000068-59.89999999999998-34.5z m-236.40000000000003 72.79999999999995c-52.80000000000001-1.3999999999999773-96.5-47-94.90000000000003-99.09999999999997 1.7000000000000455-54.900000000000034 47.10000000000002-96.10000000000002 104.40000000000003-94.69999999999999 53 1.2999999999999545 96.39999999999998 47 94.89999999999998 99.79999999999995-1.599999999999966 54.10000000000002-47.599999999999966 95.60000000000002-104.39999999999998 94z m534.9000000000001-389.4c-8-6.400000000000006-17-12-27.40000000000009-19.19999999999999v12c0 26.399999999999977-0.09999999999990905 52.69999999999999 0.20000000000004547 79 0 4.800000000000011-1.7000000000000455 7.5-6.2000000000000455 9.800000000000011-17.699999999999932 9.199999999999989-35.19999999999993 18.5-52.5 28.099999999999966-4.7999999999999545 2.6999999999999886-8.199999999999932 2.8000000000000114-13.099999999999909 0.10000000000002274-16.700000000000045-9.300000000000011-33.700000000000045-18.5-50.90000000000009-27.19999999999999-5.899999999999977-3-7.7999999999999545-6.300000000000011-7.7999999999999545-12.5 0.39999999999997726-28.80000000000001 0.10000000000002274-57.60000000000002 0.10000000000002274-88.10000000000002-28.899999999999977 14.800000000000011-48.39999999999998 34.900000000000006-61 61-28.100000000000023 58.30000000000001-6 120.80000000000001 52.69999999999993 147.8 6.600000000000023 3.099999999999966 8.200000000000045 6.399999999999977 8.200000000000045 12.699999999999989v90.5l-0.10000000000002274 225c0 3.8999999999999773-0.10000000000002274 7.7999999999999545 0.20000000000004547 11.799999999999955 2.6000000000000227 45.30000000000007 56.60000000000002 71.90000000000009 98.5 48.40000000000009 23.299999999999955-13.100000000000023 32-33 32-57.5-0.10000000000002274-75.90000000000009-0.20000000000004547-151.80000000000007-0.20000000000004547-227.70000000000005 0-30.399999999999977 0-60.80000000000001-0.10000000000002274-91.10000000000002 0-6.199999999999989 1.900000000000091-9.299999999999955 8-12 22.600000000000023-10.199999999999989 40.40000000000009-25.399999999999977 51.90000000000009-46.299999999999955 25.699999999999932-45.700000000000045 11.399999999999977-109.70000000000002-32.5-144.60000000000002z m-91.10000000000002 557.7c-15.600000000000023-0.40000000000009095-27.200000000000045-11.700000000000045-26.800000000000068-26.100000000000023 0.40000000000009095-13.600000000000023 13.300000000000068-25.100000000000023 27.600000000000023-24.700000000000045 15.200000000000045 0.6000000000000227 27.600000000000023 12.600000000000023 27 26.300000000000068-0.6999999999999318 14-12.899999999999977 24.799999999999955-27.799999999999955 24.5z"/>
</svg>
