<svg xmlns="http://www.w3.org/2000/svg" viewBox="0 0 1000 1000" width="1000" height="1000">
<path d="M936.3 487.1c1.7000000000000455-0.20000000000004547 1.7000000000000455-0.4000000000000341 0-0.5-112.89999999999998-6.5-225.5-14.300000000000011-339.5-43.10000000000002-1.599999999999909-0.39999999999997726-2.199999999999932-1.8999999999999773-1.2999999999999545-3.3000000000000114 34-53.30000000000001 66.60000000000002-104.19999999999999 99.89999999999998-156.39999999999998 0.8999999999999773-1.400000000000034 0.7000000000000455-1.6000000000000227-0.5-0.4000000000000341-43.799999999999955 44.200000000000045-86.5 87.80000000000001-137 125.10000000000002-1.2999999999999545 1-2.7999999999999545 0.5-3.199999999999932-1.1000000000000227-31.5-113.5-41.700000000000045-227.99999999999997-50.400000000000034-342.79999999999995-0.10000000000002274-1.7000000000000242-0.30000000000001137-1.6000000000000227-0.4000000000000341-2.842170943040401e-14-7.899999999999977 113.30000000000001-18.69999999999999 226.00000000000003-48.299999999999955 337.4-0.4000000000000341 1.6000000000000227-1.900000000000034 2.1000000000000227-3.2000000000000455 1.1000000000000227-50.099999999999966-36.5-93.69999999999999-78.70000000000005-137.39999999999998-120.90000000000003-1.1999999999999886-1.1999999999999886-1.3999999999999773-1-0.39999999999997726 0.30000000000001137 36.19999999999999 49.30000000000001 71.79999999999995 98.80000000000001 101.79999999999995 154 0.8000000000000114 1.5 0.10000000000002274 3-1.5 3.3999999999999773-115.89999999999998 31.200000000000045-233.29999999999998 41.5-351.09999999999997 49-1.70000000000001 0.10000000000002274-1.70000000000001 0.30000000000001137-1.4210854715202004e-14 0.4000000000000341 118.39999999999999 9.399999999999977 236.59999999999997 19.599999999999966 354.7 54.599999999999966 1.6000000000000227 0.5 2 1.8999999999999773 1 3.2000000000000455-38.5 48-75.30000000000001 93.89999999999998-112.10000000000002 139.79999999999995-1 1.3000000000000682-0.8999999999999773 1.5 0.4000000000000341 0.39999999999997726 43.80000000000001-37.5 88.39999999999998-73.89999999999998 138.2-105.79999999999995 1.3999999999999773-0.8999999999999773 2.8999999999999773-0.2999999999999545 3.3999999999999773 1.2999999999999545 35.10000000000002 116 48.200000000000045 233.80000000000007 58.700000000000045 352.20000000000005 0.0999999999999659 1.7000000000000455 0.2999999999999545 1.6000000000000227 0.39999999999997726 0 6.2000000000000455-119 14-237.79999999999995 45.200000000000045-355.9 0.39999999999997726-1.6000000000000227 1.8999999999999773-2.2000000000000455 3.2999999999999545-1.3000000000000682 28.200000000000045 17.200000000000045 55.10000000000002 32.90000000000009 81.20000000000005 49.90000000000009 25.59999999999991 16.699999999999932 50.39999999999998 34.69999999999993 75.5 52.19999999999993 1.3999999999999773 0.8999999999999773 1.5 0.8000000000000682 0.2999999999999545-0.39999999999997726-42.5-42.60000000000002-84.20000000000005-85.70000000000005-122.5-135.70000000000005-1-1.2999999999999545-0.5-2.699999999999932 1.1000000000000227-3 40-9 76.89999999999998-18.299999999999955 114.19999999999993-25.299999999999955 38.80000000000007-7.199999999999989 77.90000000000009-12.600000000000023 117-17.30000000000001 37.60000000000002-4.699999999999989 75-7.599999999999966 112.5-11.099999999999966z"/>
</svg>
