<svg xmlns="http://www.w3.org/2000/svg" viewBox="0 0 1000 1000" width="1000" height="1000">
<path d="M578.2 343.9c-4.900000000000091 72.20000000000005 30.399999999999977 121.80000000000001 66.09999999999991 172.89999999999998 57 81.60000000000002 93.5 145 39.5 260-24.899999999999977 53.10000000000002-61 90.10000000000002-117.5 118.40000000000009 4.900000000000091-10.600000000000023 7.100000000000023-15.900000000000091 9.700000000000045-21.100000000000023 50.799999999999955-101.89999999999998 34-195.5-31.100000000000023-285.70000000000005-29.799999999999955-41.10000000000002-36.89999999999998-90.09999999999997-26.199999999999932-140.2 8.5-38.19999999999999 27.799999999999955-71 59.5-104.30000000000001z m-252.90000000000003 221.30000000000007c12.399999999999977 48.59999999999991 43.19999999999999 82.89999999999998 75.89999999999998 116.09999999999991 24.900000000000034 25.40000000000009 50.30000000000001 50.60000000000002 73.69999999999999 77.40000000000009 51.10000000000002 58.799999999999955 17.5 148.0999999999999-33.799999999999955 178.79999999999995-1.7000000000000455-48.299999999999955-36.5-72.89999999999998-68.70000000000005-99.29999999999995-39.89999999999998-32.700000000000045-79.29999999999995-67.40000000000009-82.39999999999998-122.90000000000009-3-52.5 11.300000000000011-102.59999999999991 35.30000000000001-150.0999999999999z m149.8 12.399999999999977c-27.700000000000045-51.39999999999998-38.200000000000045-104.60000000000002-18.100000000000023-158.5 13.300000000000011-36 38.5-67.5 57.799999999999955-101.30000000000001 49.40000000000009-86.70000000000002 30.100000000000023-187.5-52.299999999999955-255.20000000000002 9.399999999999977 66.4-15 118.1-48.30000000000001 167.1-6.099999999999966 8.900000000000006-12.699999999999989 17.700000000000017-19.099999999999966 26.400000000000034 0 0-214.3 242.2 77.19999999999999 405.9 0 0 35.89999999999998 20.5 56.99999999999994 51l0.10000000000002274-0.10000000000002274-1.6000000000000227-3-52.69999999999993-132.29999999999995z"/>
</svg>
