<svg xmlns="http://www.w3.org/2000/svg" viewBox="0 0 1000 1000" width="1000" height="1000">
<path d="M500.4 611.1c17.700000000000045 0 35.89999999999998-1.6000000000000227 55.200000000000045-4.899999999999977l8.199999999999932-401.40000000000003c-21.299999999999955-3.3000000000000114-42.799999999999955-4.900000000000006-64.09999999999997-4.900000000000006-20.80000000000001 0-41.80000000000001 1.5999999999999943-63.099999999999966 4.900000000000006l8.199999999999989 401.3c18.30000000000001 3.5 37.099999999999966 5 55.599999999999966 5z m60.10000000000002 63.10000000000002c-20.799999999999955-3.1000000000000227-41-4.900000000000091-60.80000000000001-4.900000000000091-19.69999999999999 0-39.5 1.8000000000000682-59.80000000000001 4.900000000000091-3.3999999999999773 20.799999999999955-4.899999999999977 41-4.899999999999977 60.799999999999955 0 19.700000000000045 1.6000000000000227 39.799999999999955 4.899999999999977 60.10000000000002 20.30000000000001 3.1000000000000227 40.60000000000002 4.899999999999977 60.5 4.899999999999977 19.300000000000068 0 39.200000000000045-1.7999999999999545 60.10000000000002-4.899999999999977 3.3999999999999773-20.300000000000068 4.899999999999977-40.60000000000002 4.899999999999977-60.80000000000007-0.10000000000002274-19.299999999999955-1.6000000000000227-39.19999999999993-4.899999999999977-60.09999999999991z"/>
</svg>
