<svg xmlns="http://www.w3.org/2000/svg" viewBox="0 0 1000 1000" width="1000" height="1000">
<path d="M62.5 101v798h875v-798h-875z m312.4 31.599999999999994h250.20000000000005v159.6h-250.20000000000005v-159.6z m0 191.4h250.20000000000005v159.60000000000002h-250.20000000000005v-159.60000000000002z m-31.799999999999955 543.2h-249.00000000000003v-159.60000000000002h249.00000000000003v159.60000000000002z m0-191.30000000000007h-249.00000000000003v-159.60000000000002h249.00000000000003v159.60000000000002z m0-192.39999999999998h-249.00000000000003v-159.60000000000002h249.00000000000003v159.60000000000002z m0-191.2h-249.00000000000003v-159.60000000000002h249.00000000000003v159.60000000000002z m562.6999999999999 574.9000000000001h-62.299999999999955v-224.10000000000002h-94v224.10000000000002h-62.299999999999955v-159.60000000000002h-94v159.60000000000002h-62.30000000000007v-96.20000000000005h-94v96.20000000000005h-62.299999999999955v-350.9000000000001h530.9l0.2999999999999545 350.9000000000001z m0-383.70000000000005h-250.19999999999993v-159.60000000000002h250.19999999999993v159.60000000000002z m0-191.2h-250.19999999999993v-159.60000000000002h250.19999999999993v159.60000000000002z"/>
</svg>
