<svg xmlns="http://www.w3.org/2000/svg" viewBox="0 0 1000 1000" width="1000" height="1000">
<path d="M848.9 669.8c-22.699999999999932-22.699999999999932-53.10000000000002-36.799999999999955-87-38.09999999999991h-4.899999999999977c-35.799999999999955 0-68.20000000000005 14.399999999999977-91.5 38.09999999999991-23.600000000000023 23.300000000000068-38.10000000000002 55.700000000000045-38.10000000000002 91.5 0 18.40000000000009 3.8999999999999773 35.80000000000007 10.899999999999977 51.5 6.2000000000000455 15 15.800000000000068 28.90000000000009 27.200000000000045 40.30000000000007 23.299999999999955 23.299999999999955 55.700000000000045 37.69999999999993 91.5 37.69999999999993 71.79999999999995 0 129.60000000000002-58.09999999999991 129.60000000000002-129.5999999999999 0.10000000000002274-35.700000000000045-14.399999999999977-68.20000000000005-37.700000000000045-91.40000000000009z m-32.19999999999993 108.5h-119.40000000000009v-34.09999999999991h119.40000000000009v34.09999999999991z m-342.70000000000005-345.19999999999993c199.10000000000002 0 360.4-58.80000000000001 360.4-131.40000000000003v-107.79999999999998c0-72.60000000000001-161.39999999999998-131.4-360.4-131.4s-360.4 58.8-360.4 131.4v107.79999999999998c-2.842170943040401e-14 72.60000000000002 161.29999999999995 131.40000000000003 360.4 131.40000000000003z m0.10000000000002274 250.79999999999995c44.19999999999993 0 86.5-3.1000000000000227 125.60000000000002-8.399999999999977 30-53.60000000000002 87.09999999999991-89.39999999999998 152.5999999999999-89.39999999999998 21.300000000000068 0 41.80000000000007 3.699999999999932 60.700000000000045 10.799999999999955 13.799999999999955-14.199999999999932 21.299999999999955-29 21.299999999999955-44.5 0 0 0.7000000000000455-174.89999999999998 0-177.89999999999998-13.699999999999932 67.80000000000001-170.0999999999999 121.39999999999998-360.09999999999997 121.39999999999998s-346.79999999999995-53.599999999999966-360.6-121.5c-0.6999999999999602 3.1000000000000227 2.842170943040401e-14 177.89999999999998 2.842170943040401e-14 177.89999999999998-0.09999999999999432 72.60000000000002 161.29999999999998 131.60000000000002 360.5 131.60000000000002z m102.60000000000002 78.10000000000002c0-6 0.39999999999997726-11.799999999999955 1-17.600000000000023-32.700000000000045 3.3999999999999773-67.50000000000006 5.399999999999977-103.70000000000005 5.399999999999977-190 0-346.8-53.59999999999991-360.6-121.89999999999998v178.20000000000005c2.842170943040401e-14 72.60000000000002 161.40000000000003 131.29999999999995 360.6 131.29999999999995 71.60000000000002 0 138.39999999999998-7.7999999999999545 194.39999999999998-21.299999999999955-54.60000000000002-29.600000000000023-91.69999999999993-87.60000000000002-91.69999999999993-154.10000000000002z"/>
</svg>
