<svg xmlns="http://www.w3.org/2000/svg" viewBox="0 0 1000 1000" width="1000" height="1000">
<path d="M926.4 475.2h-355.4c-6.100000000000023 0-7.600000000000023-3.5-3.2000000000000455-7.800000000000011l251.30000000000007-251.39999999999998c4.2999999999999545-4.300000000000011 4.2999999999999545-11.300000000000011 0-15.599999999999994l-19.5-19.5c-4.300000000000068-4.300000000000011-11.300000000000068-4.300000000000011-15.600000000000023 0l-251.39999999999998 251.4c-4.300000000000068 4.300000000000011-7.800000000000068 2.8999999999999773-7.800000000000068-3.1999999999999886v-355.5c0-6.100000000000023-4.899999999999977-11.100000000000023-11.099999999999909-11.100000000000023h-27.500000000000057c-6.099999999999966 0-11.099999999999966 4.900000000000006-11.099999999999966 11.099999999999994v355.4c0 6.100000000000023-3.5 7.600000000000023-7.800000000000011 3.1999999999999886l-251.3-251.29999999999998c-4.300000000000011-4.300000000000011-11.300000000000011-4.300000000000011-15.599999999999994 0l-19.5 19.5c-4.300000000000011 4.299999999999983-4.300000000000011 11.299999999999983 0 15.599999999999994l251.4 251.39999999999998c4.300000000000011 4.300000000000011 2.8999999999999773 7.800000000000011-3.1999999999999886 7.800000000000011h-355.5c-6.100000000000023 0-11.100000000000023 4.900000000000034-11.100000000000023 11.100000000000023v27.499999999999943c0 6.100000000000023 4.900000000000006 11.100000000000023 11.099999999999994 11.100000000000023h355.4c6.100000000000023 0 7.600000000000023 3.5 3.1999999999999886 7.800000000000068l-251.29999999999998 251.29999999999995c-4.300000000000011 4.2999999999999545-4.300000000000011 11.299999999999955 0 15.600000000000023l19.5 19.5c4.299999999999983 4.2999999999999545 11.299999999999983 4.2999999999999545 15.599999999999994 0l251.39999999999998-251.39999999999998c4.300000000000011-4.300000000000068 7.800000000000011-2.900000000000091 7.800000000000011 3.199999999999932v355.5c0 6.100000000000023 4.900000000000034 11.100000000000023 11.100000000000023 11.100000000000023h27.499999999999943c6.100000000000023 0 11.100000000000023-4.899999999999977 11.100000000000023-11.100000000000023v-355.4c0-6.100000000000023 3.5-7.600000000000023 7.800000000000068-3.2000000000000455l251.29999999999995 251.30000000000007c4.2999999999999545 4.2999999999999545 11.299999999999955 4.2999999999999545 15.600000000000023 0l19.5-19.5c4.2999999999999545-4.300000000000068 4.2999999999999545-11.300000000000068 0-15.600000000000023l-251.39999999999998-251.39999999999998c-4.300000000000068-4.300000000000068-2.900000000000091-7.800000000000068 3.199999999999932-7.800000000000068h355.5c6.100000000000023 0 11.100000000000023-4.899999999999977 11.100000000000023-11.099999999999909v-27.500000000000057c0-6.099999999999966-4.899999999999977-11-11.100000000000023-11z"/>
</svg>
