<svg xmlns="http://www.w3.org/2000/svg" viewBox="0 0 1000 1000" width="1000" height="1000">
<path d="M885.7 405.2c-8.900000000000091 0-16.90000000000009 3.5-22.90000000000009 9.100000000000023l-0.09999999999990905-0.19999999999998863-399.90000000000003 401.29999999999995c-34.69999999999999 34.700000000000045-81.10000000000002 53.89999999999998-130.40000000000003 53.89999999999998s-95.59999999999997-19.199999999999932-130.39999999999998-53.89999999999998c-71.9-71.89999999999998-71.9-188.89999999999998 0-260.79999999999995l386.20000000000005-386.1c24.5-24.5 57-38 91.79999999999995-38 34.700000000000045 0 67.29999999999995 13.5 91.79999999999995 38 24.40000000000009 24.400000000000006 36.700000000000045 53.5 35.5 83.9-1.099999999999909 29.99999999999997-15.099999999999909 59.20000000000002-40.39999999999998 84.4l-309 309.09999999999997c-14.099999999999966 14.100000000000023-32.89999999999998 22-52.89999999999998 22-37.89999999999998 0-57.80000000000001-24-57.80000000000001-47.5 0.10000000000002274-19.899999999999977 7.900000000000034-38.69999999999993 22-52.799999999999955l266.40000000000003-265.5-0.3000000000000682-0.30000000000001137c5-5.900000000000034 8-13.5 8-21.80000000000001 0-18.69999999999999-15.099999999999909-33.900000000000006-33.89999999999998-33.900000000000006-8.299999999999955 0-15.799999999999955 3.200000000000017-21.799999999999955 8.099999999999994l-0.39999999999997726-0.29999999999998295-265.50000000000006 264.80000000000007c-30.19999999999999 30.09999999999991-42.39999999999998 59.5-42.599999999999966 101.39999999999998 0 32.799999999999955 12.099999999999966 62.299999999999955 34.099999999999966 83 22.80000000000001 21.399999999999977 54.19999999999999 32.799999999999955 91.30000000000001 32.799999999999955h0.8000000000000114c38.5-0.1999999999999318 74.5-15.299999999999955 101.39999999999998-42.60000000000002l308.3-308.29999999999995c78.10000000000002-78.10000000000002 80.20000000000005-189.4 4.899999999999977-264.7-37.39999999999998-37.400000000000006-87.10000000000002-57.90000000000001-140-57.90000000000001-52.89999999999998 0-102.60000000000002 20.6-139.89999999999998 57.9l-386.2 386.3c-98.4 98.39999999999998-98.4 258.69999999999993 0 357.1 47.599999999999994 47.59999999999991 111 73.89999999999998 178.5 73.89999999999998s130.89999999999998-26.200000000000045 178.59999999999997-73.89999999999998l399.9-401.30000000000007s8.800000000000068-8.699999999999989 8.800000000000068-23.299999999999955c-0.10000000000002274-18.600000000000023-15.200000000000045-33.900000000000034-33.89999999999998-33.900000000000034z"/>
</svg>
