<svg xmlns="http://www.w3.org/2000/svg" viewBox="0 0 1000 1000" width="1000" height="1000">
<path d="M925.8 632.1h-15.5v-179.20000000000005c0-8.299999999999955-6.5-15.099999999999966-14.399999999999977-15.099999999999966h-37.10000000000002v-226.10000000000002c0-10.799999999999983-5.7999999999999545-18.399999999999977-16.59999999999991-18.399999999999977h-757c-10.80000000000004 0-22.700000000000045 7.599999999999994-22.700000000000045 18.399999999999977v444.50000000000006c0 11 11.900000000000006 23.399999999999977 22.700000000000003 23.399999999999977h294.5l-5.399999999999977 66.29999999999995s-2.1000000000000227 10.800000000000068-9.699999999999989 19.600000000000023-21.400000000000034 21.899999999999977-21.400000000000034 21.899999999999977-12.399999999999977 11.399999999999977 6.199999999999989 14.600000000000023c10.700000000000045 1.7999999999999545 58.200000000000045 4.399999999999977 96.5 4.399999999999977h36.10000000000002c39 0 85.79999999999995-2.7999999999999545 96.39999999999998-4.699999999999932 18.600000000000023-3.2000000000000455 6.100000000000023-15 6.100000000000023-15s-13.799999999999955-13.600000000000023-21.399999999999977-22.40000000000009c-7.600000000000023-8.799999999999955-9.600000000000023-18.299999999999955-9.600000000000023-18.299999999999955l-5.399999999999977-66.29999999999995h85.5v111.79999999999995c0 8.299999999999955 6.5 14.799999999999955 14.600000000000023 14.799999999999955h277.5999999999999c6.5 0 11.700000000000045-5.199999999999932 11.700000000000045-11.699999999999932v-150.80000000000007c0-6.5-5.2000000000000455-11.699999999999932-11.700000000000045-11.699999999999932z m-23.199999999999932 9.699999999999932v3.1000000000000227c0 1.1000000000000227-0.7000000000000455 1.8000000000000682-1.8000000000000682 1.8000000000000682h-10.299999999999955c-0.8999999999999773 0-1.7999999999999545-0.7000000000000455-1.7999999999999545-1.8000000000000682v-3.1000000000000227c0-1.099999999999909 0.8999999999999773-2 1.7999999999999545-2h10.299999999999955c1.2000000000000455 0 1.8000000000000682 0.900000000000091 1.8000000000000682 2z m-809.5 2.5v-415.9h732.8v209.40000000000003h-177.69999999999993c-8.100000000000023 0-14.600000000000023 6.699999999999989-14.600000000000023 15.099999999999966v191.39999999999998h-540.5z m567.1 35.30000000000007v-210.5h221.79999999999995v163.10000000000002h-16.399999999999977c-6.300000000000068 0-11.700000000000045 5.199999999999932-11.700000000000045 11.699999999999932v131.39999999999998h-193.69999999999993v-95.69999999999993z m111.5 118.79999999999995c-4.5 0-8.300000000000068-3.7999999999999545-8.300000000000068-8.299999999999955 0-4.7000000000000455 3.800000000000068-8.5 8.300000000000068-8.5 4.5 0 8.099999999999909 3.7999999999999545 8.099999999999909 8.5 0 4.399999999999977-3.599999999999909 8.299999999999955-8.099999999999909 8.299999999999955z m117.19999999999993-7.699999999999932c0-4.100000000000023 3.3999999999999773-7.400000000000091 7.600000000000023-7.400000000000091 4.2999999999999545 0 7.600000000000023 3.400000000000091 7.600000000000023 7.400000000000091 0 4.2999999999999545-3.3999999999999773 7.599999999999909-7.600000000000023 7.599999999999909-4.2000000000000455 0.10000000000002274-7.600000000000023-3.2999999999999545-7.600000000000023-7.599999999999909z m41.60000000000002-12.400000000000091h-69.70000000000005v-125.19999999999993h69.70000000000005v125.19999999999993z"/>
</svg>
