<svg xmlns="http://www.w3.org/2000/svg" viewBox="0 0 1000 1000" width="1000" height="1000">
<path d="M923 223.2c-280.6 58.80000000000001-559.4 117.19999999999999-839.5 175.8-13.5 2.8000000000000114-22.799999999999997 6.600000000000023-20.700000000000003 8.399999999999977 1.5 1.3000000000000114 2.6000000000000085 2.3000000000000114 3.799999999999997 3.2000000000000455 62.30000000000001 48.39999999999998 124.5 96.79999999999995 187 145 5.599999999999994 4.2999999999999545 7.500000000000028 8.600000000000023 7.400000000000006 15.399999999999977-0.39999999999997726 65.79999999999995-0.39999999999997726 131.70000000000005-0.5 197.5v6.899999999999977c0 3.800000000000068 9.300000000000011 0.7000000000000455 20.80000000000001-6.899999999999977 40.30000000000001-26.700000000000045 109.89999999999998-72.20000000000005 150.09999999999997-98.89999999999998 45.10000000000002 32.5 90.5 65.10000000000002 136.60000000000002 98.19999999999993 11.200000000000045 8 26.200000000000045 5.2000000000000455 33.60000000000002-6.5 110.79999999999995-174.0999999999999 221.10000000000002-347.29999999999995 332.5-522.1999999999999 7.399999999999977-11.600000000000023 2.3999999999999773-18.700000000000017-11.100000000000023-15.900000000000034z m-97 74.69999999999999c-6.600000000000023 4.300000000000011-13.299999999999955 8.600000000000023-20 12.800000000000011-139.89999999999998 89.30000000000001-279.79999999999995 178.5-419.5 268.00000000000006-6.100000000000023 3.8999999999999773-11.699999999999989 9.799999999999955-15.399999999999977 16.09999999999991-22.900000000000034 37.90000000000009-45.10000000000002 76.20000000000005-67.60000000000002 114.40000000000009-0.8999999999999773 1.5-1.8000000000000114 2.8999999999999773-2.8000000000000114 4.2999999999999545-1.599999999999966 2.3999999999999773-2.8999999999999773-6.899999999999977-2.8999999999999773-20.700000000000045v-75.59999999999991c0-20 0.39999999999997726-40 0-60-0.10000000000002274-6.800000000000068 2-10.300000000000068 8.199999999999989-13.200000000000045 76.80000000000001-37 153.39999999999998-74.39999999999998 230.10000000000002-111.60000000000002 99.79999999999995-48.5 199.69999999999993-96.89999999999998 299.6-145.29999999999995 1.599999999999909-0.8000000000000114 3.199999999999932-1.5 5-1.900000000000034 2.699999999999932-0.5999999999999659-3.7000000000000455 5.600000000000023-14.700000000000045 12.699999999999989z"/>
</svg>
