<svg xmlns="http://www.w3.org/2000/svg" viewBox="0 0 1000 1000" width="1000" height="1000">
<path d="M758.6 292.5l-210.70000000000005-210.7c-10.699999999999932-10.700000000000017-29.100000000000023-19.30000000000001-41.19999999999999-19.30000000000001-12.099999999999966 0-21.899999999999977 12.200000000000003-21.899999999999977 27.299999999999997v277.3c0 15.099999999999966-8.699999999999989 18.69999999999999-19.30000000000001 8l-162.60000000000002-162.50000000000003c-10.699999999999989-10.699999999999989-27.899999999999977-10.699999999999989-38.599999999999966 0.09999999999999432l-22.700000000000017 22.900000000000006c-10.599999999999994 10.800000000000011-10.599999999999994 28.099999999999994 0.09999999999999432 38.79999999999998l206.3 206.3c10.699999999999989 10.699999999999989 10.699999999999989 28 0 38.69999999999999l-206.4 206.30000000000007c-10.699999999999989 10.699999999999932-10.699999999999989 28 0 38.69999999999993l22.599999999999994 22.600000000000023c10.699999999999989 10.700000000000045 28 10.700000000000045 38.69999999999999 0l162.60000000000002-162.60000000000002c10.699999999999989-10.699999999999932 19.30000000000001-7.100000000000023 19.30000000000001 8.100000000000023v277.79999999999995c0 15.100000000000023 9.800000000000011 27.300000000000068 21.899999999999977 27.300000000000068 12.099999999999966 0 30.500000000000057-8.700000000000045 41.19999999999999-19.300000000000068l210.70000000000005-210.69999999999993c10.699999999999932-10.700000000000045 10.699999999999932-28 0-38.700000000000045l-149.5-149.60000000000002c-10.700000000000045-10.699999999999932-10.700000000000045-27.999999999999943 0-38.69999999999993l149.5-149.40000000000003c10.600000000000023-10.699999999999989 10.600000000000023-28 0-38.69999999999999z m-167-44.400000000000006l44.5 44.50000000000003c10.699999999999932 10.699999999999989 10.699999999999932 28-0.10000000000002274 38.599999999999966l-44.39999999999998 44c-10.700000000000045 10.699999999999989-19.399999999999977 7-19.399999999999977-8v-111.19999999999999c0.09999999999990905-15 8.699999999999932-18.599999999999994 19.399999999999977-7.900000000000006z m44.5 459.4l-44.5 44.5c-10.700000000000045 10.700000000000045-19.300000000000068 7.100000000000023-19.300000000000068-8.100000000000023v-111.60000000000002c0-15.099999999999909 8.700000000000045-18.699999999999932 19.300000000000068-8l44.5 44.5c10.600000000000023 10.700000000000045 10.600000000000023 28 0 38.700000000000045z"/>
</svg>
