<svg xmlns="http://www.w3.org/2000/svg" viewBox="0 0 1000 1000" width="1000" height="1000">
<path d="M820.3 582.1h-399.79999999999995c-6 0-12.699999999999989-4.399999999999977-15.100000000000023-9.800000000000068l-183.39999999999998-419.49999999999994c-2.4000000000000057-5.400000000000006-9.099999999999994-9.800000000000011-15.099999999999994-9.800000000000011h-133.7c-6.000000000000014 0-10.800000000000018 4.800000000000011-10.800000000000018 10.800000000000011v33.39999999999998c0 6 4.800000000000004 10.800000000000011 10.800000000000004 10.800000000000011h97.8c6 0 12.699999999999989 4.400000000000006 15.099999999999994 9.800000000000011l183.50000000000003 419.49999999999994c2.3999999999999773 5.400000000000091 9.099999999999966 9.800000000000068 15.099999999999966 9.800000000000068h435.59999999999997c6 0 10.800000000000068-4.800000000000068 10.800000000000068-10.800000000000068v-33.39999999999998c-0.10000000000002274-5.899999999999977-4.899999999999977-10.799999999999955-10.800000000000068-10.799999999999955z m-346.09999999999997 109.89999999999998c-45.5 0-82.30000000000001 36.799999999999955-82.30000000000001 82.29999999999995s36.900000000000034 82.30000000000007 82.30000000000001 82.30000000000007 82.30000000000001-36.80000000000007 82.30000000000001-82.30000000000007-36.89999999999998-82.29999999999995-82.30000000000001-82.29999999999995z m274.50000000000006 0c-45.5 0-82.30000000000007 36.799999999999955-82.30000000000007 82.29999999999995s36.89999999999998 82.30000000000007 82.30000000000007 82.30000000000007 82.29999999999995-36.80000000000007 82.29999999999995-82.30000000000007-36.89999999999998-82.29999999999995-82.29999999999995-82.29999999999995z m181.39999999999998-439.2h-582.4000000000001c-5.999999999999943 0-8.89999999999992 4.5-6.699999999999932 10l14 35c2.1999999999999886 5.5 8.800000000000011 10 14.699999999999989 10h538.3c6 0 12.5-4.5 14.700000000000045-10l14-35c2.2999999999999545-5.600000000000023-0.8000000000000682-10-6.600000000000023-10z m-87.89999999999998 219.5h-406.70000000000005c-6 0-8.899999999999977 4.5-6.699999999999989 10l14 34.99999999999994c2.1999999999999886 5.5 8.800000000000011 10 14.699999999999989 10h362.79999999999995c6 0 12.5-4.5 14.700000000000045-10l14-34.99999999999994c2.1000000000000227-5.5-0.7999999999999545-10-6.7999999999999545-10z m43.89999999999998-109.80000000000001h-494.5c-6 0-8.900000000000034 4.5-6.7000000000000455 10l14 35c2.2000000000000455 5.5 8.800000000000011 10 14.700000000000045 10h450.6c6 0 12.5-4.5 14.699999999999932-10l14-35c2.2000000000000455-5.5-0.7999999999999545-10-6.7999999999999545-10z"/>
</svg>
