<svg xmlns="http://www.w3.org/2000/svg" viewBox="0 0 1000 1000" width="1000" height="1000">
<path d="M918.3 507.2c-182.19999999999993-135.39999999999998-364.4-270.7-546.4-406.29999999999995-14.799999999999955-11.000000000000028-29.099999999999966-12.30000000000004-45.599999999999966-4.900000000000034-67.80000000000001 30.400000000000006-135.70000000000002 60.69999999999999-203.9 90.30000000000001-19.700000000000003 8.5-29.30000000000001 21.69999999999999-31.80000000000001 43-8.5 73.80000000000001-18.099999999999994 147.5-27.599999999999994 221.2-2.299999999999997 18 3.299999999999997 31.19999999999999 18.099999999999994 42.10000000000002 91.30000000000001 67.39999999999998 182.29999999999998 135.19999999999993 273.4 202.89999999999998 91.39999999999998 67.89999999999998 182.70000000000005 136 274.5 203.5 7.7000000000000455 5.7000000000000455 18.799999999999955 8.899999999999977 28.399999999999977 9.200000000000045 14.399999999999977 0.599999999999909 23.300000000000068-10.5 31.300000000000068-21.200000000000045 78.79999999999995-106 157.69999999999993-212.10000000000002 236.5-318.20000000000005 1.1999999999999318-1.599999999999909 2.3999999999999773-3.199999999999932 3.5-4.7999999999999545 14.5-22.700000000000045 11.199999999999932-40.700000000000045-10.400000000000091-56.80000000000001z m-637.9-168.89999999999998c-20.399999999999977 26.399999999999977-57.29999999999998 31.19999999999999-83.89999999999998 10.899999999999977-26.30000000000001-20-31.5-57.80000000000001-11.5-84 20.30000000000001-26.69999999999999 58.099999999999994-31.5 85-10.799999999999983 26.100000000000023 19.99999999999997 30.80000000000001 57.49999999999997 10.399999999999977 83.9z"/>
</svg>
