<svg xmlns="http://www.w3.org/2000/svg" viewBox="0 0 1000 1000" width="1000" height="1000">
<path d="M267.3 780.4c78.19999999999999-4.2999999999999545 97-9.100000000000023 197.8-9.100000000000023h6.5v-0.09999999999990905h7.399999999999977l13.600000000000023 0.1999999999999318 11.599999999999966 0.10000000000002274c2.6999999999999886 0 5.400000000000034 0.10000000000002274 7.900000000000034 0.10000000000002274 1.2999999999999545 0.10000000000002274 4.699999999999932 0.39999999999997726 10 0.2999999999999545 2.199999999999932 0 4.699999999999932-0.10000000000002274 7.399999999999977-0.2999999999999545 12.100000000000023-0.8000000000000682 28.5-3.3999999999999773 45.299999999999955-11.100000000000023 31.300000000000068-15.299999999999955 28.100000000000023-46.39999999999998 61.10000000000002-92.29999999999995 49.60000000000002-68.90000000000009 71.30000000000007-89.10000000000002 72.10000000000002-158.50000000000006 0.39999999999997726-36.5 1.5-59.5-0.2999999999999545-78.30000000000001l200.69999999999993 0.20000000000004547c15.800000000000068 0 28.700000000000045-13 28.700000000000045-28.900000000000034l0.1999999999999318-183.1c0-15.900000000000006-12.799999999999955-28.900000000000006-28.59999999999991-28.900000000000006l-314.80000000000007-0.29999999999998295c-15.699999999999932 0-28.5 12.900000000000006-28.5 28.900000000000006l-0.1999999999999318 109c3 3.1999999999999886 5.399999999999977 6.300000000000011 7.2999999999999545 8.699999999999989 0.20000000000004547 0.19999999999998863 0.2999999999999545 0.39999999999997726 0.5 0.6999999999999886 1-0.39999999999997726 2.1000000000000227-0.8000000000000114 3.1000000000000227-1.3000000000000114 3.5-1.3999999999999773 7.2999999999999545-2.8999999999999773 10.899999999999977-4.5v-26.399999999999977l328.6 0.30000000000001137-0.10000000000002274 96.89999999999998c0 4-3.1000000000000227 7.199999999999989-7 7.199999999999989l-233.10000000000002-0.2999999999999545c-1.6000000000000227 3.5-3.6000000000000227 7.099999999999966-5.7999999999999545 10.899999999999977-2.1000000000000227 3.5-4.5 7.100000000000023-7.300000000000068 10.800000000000011-8 10.899999999999977-19 22.5-34 34.19999999999999l-4.599999999999909 25.600000000000023c-0.20000000000004547 8.399999999999977-1.6000000000000227 18.19999999999999-5.2000000000000455 28.399999999999977l-1.1000000000000227 5.7999999999999545c-2.1000000000000227 2.1000000000000227-27.600000000000023 26-52.799999999999955 42.700000000000045-2.800000000000068 1.7999999999999545-5.600000000000023 3.5-8.300000000000068 5.100000000000023-2.8999999999999773 1.6999999999999318-5.899999999999977 3.3999999999999773-8.699999999999932 4.7999999999999545-4.300000000000068 0.8999999999999773-9.200000000000045 1.6000000000000227-14.100000000000023 1.6000000000000227-15.100000000000023 0-30.19999999999999-6.100000000000023-31.899999999999977-29.899999999999977 0 0 8.399999999999977-26.100000000000023 93.60000000000002-78.60000000000002 22.09999999999991-13.699999999999989 37.59999999999991-27.19999999999999 48.59999999999991-39.69999999999999 3.300000000000068-3.6999999999999886 6-7.300000000000011 8.5-10.800000000000011 2.7000000000000455-3.8000000000000114 4.900000000000091-7.399999999999977 6.900000000000091-10.899999999999977 13.599999999999909-24.900000000000034 9.899999999999977-42.30000000000001 9.899999999999977-42.30000000000001s2.1000000000000227-35.60000000000002-31.399999999999977-35.60000000000002c-9.900000000000091 0-22.700000000000045 3.1000000000000227-39.60000000000002 10.900000000000034 0 0-5.100000000000023 2.3999999999999773-11.300000000000068 5-3.599999999999909 1.5-7.399999999999977 3-10.799999999999955 4.099999999999966-2.2000000000000455 0.8000000000000114-4.100000000000023 1.400000000000034-5.7999999999999545 1.6999999999999886-0.20000000000004547 0.10000000000002274-0.40000000000009095 0.10000000000002274-0.6000000000000227 0.10000000000002274-1.5 0-3-1.3000000000000114-4.5-2.8999999999999773-6.600000000000023-7-15.600000000000023-24.600000000000023-35.30000000000007-24.600000000000023-4.099999999999909 0-8.699999999999932 0.8000000000000114-13.799999999999955 2.6000000000000227-36.60000000000002 12.799999999999955-13.5 47.5-13.5 47.5s-50.80000000000001-16-82.80000000000001-16c-13.5 0-23.69999999999999 2.8999999999999773-25.399999999999977 11-5.400000000000034 27.399999999999977 0.5999999999999659 37.89999999999998 0.5999999999999659 37.89999999999998s-74.39999999999998 2.6999999999999886-68.89999999999998 33.19999999999999c5.600000000000023 30.400000000000034 16.399999999999977 34.400000000000034 46.89999999999998 34.5 30.5 0-143.29999999999998 35.900000000000034-229.99999999999997 113.69999999999999 0 0-37.2 28.300000000000068-72.30000000000001 37.10000000000002-34.99999999999999 9 51.5 182.60000000000002 51.5 182.60000000000002s60.20000000000002-25 145.20000000000002-29.700000000000045z m319.8-534.3l0.10000000000002274-26.900000000000034c0-4 3.099999999999909-7.199999999999989 6.7999999999999545-7.199999999999989l314.79999999999995 0.30000000000001137c3.800000000000068 0 7 3.299999999999983 7 7.199999999999989l-0.09999999999990905 26.900000000000006-328.6-0.30000000000001137z"/>
</svg>
