<svg xmlns="http://www.w3.org/2000/svg" viewBox="0 0 1000 1000" width="1000" height="1000">
<path d="M936.7 800.9l-76.5-670.2c-0.40000000000009095-3.8999999999999346-0.8000000000000682-7.799999999999926-2-11.499999999999929-1.8000000000000682-5.799999999999997-5.5-9-11.900000000000091-7.900000000000006-21.299999999999955 3.5-26.59999999999991-1.8999999999999915-23.59999999999991 28.10000000000001 3.5 34.79999999999998 1.7999999999999545 69.29999999999998-7.5 103.1-9.100000000000023 32.89999999999998-24.90000000000009 61.60000000000002-47.200000000000045 86.80000000000001-17.200000000000045 19.5-36.299999999999955 36.30000000000001-58.299999999999955 49.19999999999999-18.40000000000009 10.800000000000011-36.90000000000009 21.80000000000001-56.10000000000002 30.899999999999977-19 9-38.80000000000007 16.600000000000023-58.60000000000002 23.400000000000034-20 6.899999999999977-40.39999999999998 12.899999999999977-60.89999999999998 17.599999999999966-34.10000000000002 8-68.30000000000001 16.200000000000045-102.80000000000001 21.5-71.5 11.100000000000023-143.2 21.100000000000023-215 30.100000000000023-24.5 3.1000000000000227-49.60000000000002 2.8000000000000114-74.4 1.6999999999999886-13.300000000000011-0.5-26.60000000000001-5.199999999999989-39.400000000000006-9.5-4.900000000000006-1.599999999999966-8.5-7.599999999999966-12.799999999999997-11.399999999999977-4-3.6000000000000227-7.799999999999997-8.5-12.5-10-10-3.1000000000000227-15.700000000000003 2.3999999999999773-14.5 13.199999999999989 6.200000000000003 56.60000000000002 12.700000000000003 113.20000000000005 19.599999999999994 169.70000000000005 0.5 4 5.400000000000006 10.699999999999932 8 10.5 5.299999999999997-0.3000000000000682 11.600000000000009-3.2000000000000455 15.200000000000003-7.2000000000000455 5-5.7000000000000455 6.700000000000003-14.600000000000023 11.799999999999997-20 10.200000000000003-10.700000000000045 23.10000000000001-17.100000000000023 37.3-20.600000000000023 15.5-3.7999999999999545 30.900000000000006-8 46.30000000000001-11.799999999999955 2.299999999999983-0.6000000000000227 4.799999999999983-0.3000000000000682 6.799999999999983-0.39999999999997726 5 9-1.1999999999999886 14.899999999999977-4.5 20.899999999999977-23.799999999999983 43.299999999999955-29.099999999999994 88.19999999999993-10.199999999999989 134.89999999999998 10.900000000000006 26.799999999999955 28.599999999999994 48.200000000000045 50.30000000000001 66.10000000000002 27.80000000000001 23 59 38.299999999999955 93.19999999999999 46.69999999999993 16.100000000000023 4 32.5 6.800000000000068 48.80000000000001 9.800000000000068 40.80000000000001 7.5 81.5 4.5 121.39999999999998-4.5 27.69999999999999-6.300000000000068 55.80000000000001-13.5 80.80000000000001-29 19.5-12 40.799999999999955-21.700000000000045 58.39999999999998-36.30000000000007 43.10000000000002-35.59999999999991 75.10000000000002-79.29999999999995 77.70000000000005-140.39999999999998 1-24.100000000000023-4.300000000000068-47.10000000000002-14.600000000000023-68.69999999999993-2.2000000000000455-4.7000000000000455-3.7000000000000455-9.800000000000068-5.600000000000023-14.600000000000023l1.8999999999999773-2.7000000000000455c10 2.6000000000000227 20.5 4.2000000000000455 30.100000000000023 8.100000000000023 16.200000000000045 6.600000000000023 32.200000000000045 13.899999999999977 47.700000000000045 22.200000000000045 43.19999999999993 23.199999999999932 74.69999999999993 58.5 94.60000000000002 105.19999999999993 11.5 26.899999999999977 17.5 55.30000000000007 21.5 84.39999999999998 2.199999999999932 16.300000000000068 4.699999999999932 18.40000000000009 19.59999999999991 16.5 18.600000000000023-2.099999999999909 20.200000000000045-4.199999999999932 17.90000000000009-23.899999999999977z m-293.30000000000007-80.69999999999993c-21.399999999999977 32.09999999999991-51.799999999999955 51-84.69999999999993 65.79999999999995-15.900000000000091 7.2000000000000455-32.700000000000045 12.799999999999955-49.700000000000045 16.399999999999977-39.10000000000002 8.300000000000068-78.5 15.5-118.60000000000002 8.899999999999977-17-2.7999999999999545-33.89999999999998-6.099999999999909-50.69999999999999-9.699999999999932-24.5-5.2000000000000455-45.39999999999998-17.899999999999977-64.59999999999997-34.60000000000002-24.00000000000003-20.899999999999977-34.30000000000001-56.39999999999998-25.00000000000003-87.70000000000005 7.099999999999994-23.899999999999977 21.799999999999983-41.19999999999993 40.099999999999994-56.59999999999991 20.19999999999999-17 43.19999999999999-27.800000000000068 67.40000000000003-35.200000000000045 19.099999999999966-5.7999999999999545 39.19999999999999-7.7000000000000455 58.89999999999998-11.399999999999977l0.30000000000001137 1.7999999999999545c14.399999999999977-1.7999999999999545 28.69999999999999-4.399999999999977 43.099999999999966-5.2999999999999545 14.300000000000011-0.8999999999999773 28.700000000000045 0.2999999999999545 43-0.39999999999997726 24.899999999999977-1.3000000000000682 49.10000000000002 2.199999999999932 73.20000000000005 7.899999999999977 17.699999999999932 4.100000000000023 34.5 11 48.799999999999955 21.899999999999977 36 27.299999999999955 45.5 77.60000000000002 18.5 118.20000000000005z"/>
</svg>
