<svg xmlns="http://www.w3.org/2000/svg" viewBox="0 0 1000 1000" width="1000" height="1000">
<path d="M815.1 535.2c-109.20000000000005-109.40000000000003-218.5-218.70000000000005-327.8-327.80000000000007-24-24.099999999999966-48.5-47.89999999999998-72.19999999999999-72.39999999999998-6.300000000000011-6.599999999999994-13.100000000000023-11.799999999999997-20.200000000000045-15.299999999999997-14.599999999999966-7.6000000000000085-30.799999999999955-9-49.099999999999966-5-65.60000000000002 14.899999999999991-131.3 29.299999999999997-197 43.89999999999999-23.400000000000006 5.200000000000017-35.30000000000001 21.5-40.20000000000002 43.30000000000001-14.099999999999994 62.099999999999994-28 124.4-41.5 186.79999999999998-2.8999999999999915 12.800000000000011-5.8999999999999915 26.5-3.999999999999993 39.19999999999999 1.6000000000000014 11 9.800000000000004 21.400000000000034 15.199999999999996 31.700000000000045 1.2999999999999972 2.3999999999999773 3.700000000000003 4.199999999999989 5.6000000000000085 6 133.1 133.10000000000002 266.20000000000005 266.19999999999993 399.20000000000005 399.4 14.099999999999966 14.100000000000023 29.799999999999955 23.100000000000023 52.60000000000002 22.200000000000045 11.199999999999932-0.10000000000002274 22.09999999999991-4.2000000000000455 32-11.5 3-2.2000000000000455 5.899999999999977-4.600000000000023 8.599999999999909-7.300000000000068 80-80 160.20000000000005-160.10000000000002 240.10000000000002-240.29999999999995 28.100000000000023-28.100000000000023 27.5-64.20000000000005-1.2999999999999545-92.89999999999998z m-552.2-204.20000000000005c-10.199999999999989 6.699999999999989-22.19999999999999 10.800000000000011-35.29999999999998 10.800000000000011-34.900000000000006 0.0999999999999659-63.79999999999998-27-65.1-60.5-0.09999999999999432-1.1000000000000227-0.09999999999999432-2.400000000000034-0.09999999999999432-3.6000000000000227 0.09999999999999432-10.800000000000011 2.9000000000000057-20.899999999999977 7.599999999999994-29.799999999999983 11-20.400000000000006 32.400000000000006-34.099999999999994 57-34.30000000000001 13.199999999999989 0 25.5 4 35.89999999999998 10.900000000000006 17.200000000000045 11.5 28.700000000000045 31 29 53.10000000000002 0 22-11.5 41.799999999999955-29 53.39999999999998z m652.6 204.20000000000005c-109.20000000000005-109.40000000000003-218.5-218.70000000000005-327.79999999999995-327.80000000000007-24-24.099999999999966-48.5-47.89999999999998-72.20000000000005-72.39999999999998-19.5-20.200000000000003-42.19999999999999-26.400000000000006-69.30000000000001-20.400000000000006-7.599999999999966 1.7000000000000028-15.099999999999966 3.4000000000000057-22.69999999999999 5 7.199999999999989 3.6000000000000085 13.899999999999977 8.700000000000017 20.19999999999999 15.300000000000011 23.69999999999999 24.5 48.19999999999999 48.29999999999998 72.19999999999999 72.4 109.30000000000007 109.19999999999999 218.60000000000002 218.5 327.80000000000007 327.8 28.799999999999955 28.699999999999932 29.399999999999977 64.79999999999995 1.3999999999999773 93-79.80000000000007 80.19999999999993-160 160.29999999999995-240.10000000000002 240.29999999999995-2.7000000000000455 2.7000000000000455-5.600000000000023 5.2000000000000455-8.600000000000023 7.300000000000068 10.899999999999977 7.699999999999932 23.5 12 39.700000000000045 11.5 14.5-0.10000000000002274 28.699999999999932-6.900000000000091 40.60000000000002-18.800000000000068 80-80 160.19999999999993-160.10000000000002 240.0999999999999-240.29999999999995 28.100000000000023-28.100000000000023 27.5-64.30000000000007-1.2999999999999545-92.89999999999998z"/>
</svg>
