<svg xmlns="http://www.w3.org/2000/svg" viewBox="0 0 1000 1000" width="1000" height="1000">
<path d="M596 251.5c0.20000000000004547-0.30000000000001137 0.6000000000000227-0.5999999999999943 0.7000000000000455-0.9000000000000057l66.09999999999991-117.29999999999998c2.300000000000068-4.300000000000011 0.6000000000000227-9.200000000000017-4.099999999999909-11.000000000000014l-151.00000000000006-57.099999999999994c-2.599999999999966-1.1000000000000085-4.899999999999977-1.8000000000000043-6.300000000000011-2.5l-0.7999999999999545-0.20000000000000284c-0.4000000000000341-0.20000000000000284-1.2000000000000455-0.20000000000000284-1.7000000000000455 0-0.39999999999997726 0-0.5999999999999659 0.20000000000000284-0.5999999999999659 0.20000000000000284-1.6999999999999886 0.5999999999999943-3.6999999999999886 1.3999999999999915-6.300000000000011 2.5l-151.39999999999998 57.099999999999994c-4.5 1.7999999999999972-6.300000000000011 6.700000000000003-3.900000000000034 11.000000000000014l65.90000000000003 117.39999999999998 0.6999999999999886 1.1000000000000227c-146 42.19999999999999-253.3 176.39999999999998-253.3 335.7 0 193.10000000000002 156.8 349.9 349.8 349.9s349.8-156.79999999999995 349.8-349.9c-0.20000000000004547-159.3-107.30000000000007-294-253.60000000000002-336z m-96.30000000000001 604.5c-147.89999999999998 0-268.2-120.29999999999995-268.2-268.4 0-147.90000000000003 120.30000000000001-268.20000000000005 268.2-268.20000000000005 148.09999999999997 0 268.2 120.30000000000001 268.2 268.20000000000005-0.10000000000002274 148.10000000000002-120.10000000000002 268.4-268.2 268.4z"/>
</svg>
