<svg xmlns="http://www.w3.org/2000/svg" viewBox="0 0 1000 1000" width="1000" height="1000">
<path d="M62.5 130.1v739.6999999999999c0 37.40000000000009 30.299999999999997 67.60000000000002 67.6 67.60000000000002h739.6999999999999c37.40000000000009 0 67.60000000000002-30.299999999999955 67.60000000000002-67.60000000000002v-739.6999999999999c0-37.40000000000002-30.299999999999955-67.60000000000002-67.60000000000002-67.60000000000002h-739.6999999999999c-37.300000000000026 0-67.60000000000002 30.299999999999997-67.60000000000002 67.6z m780.2 780.3h-685.4000000000001c-37.39999999999995 0-67.59999999999995-30.299999999999955-67.59999999999995-67.60000000000002v-685.5c0-37.39999999999995 30.299999999999997-67.59999999999995 67.60000000000001-67.59999999999995h685.5c37.40000000000009 0 67.60000000000002 30.299999999999997 67.60000000000002 67.60000000000001v685.5c0 37.30000000000007-30.299999999999955 67.60000000000002-67.69999999999993 67.60000000000002z m-572.5-147.89999999999998l229.79999999999995-229.60000000000002 229.79999999999995 229.60000000000002 32.700000000000045-32.700000000000045-229.60000000000002-229.79999999999995 229.60000000000002-229.8-32.700000000000045-32.69999999999999-229.79999999999995 229.60000000000002-229.8-229.60000000000002-32.69999999999999 32.69999999999999 229.60000000000002 229.8-229.60000000000002 229.79999999999995 32.69999999999999 32.700000000000045z"/>
</svg>
