<svg xmlns="http://www.w3.org/2000/svg" viewBox="0 0 1000 1000" width="1000" height="1000">
<path d="M531.3 594.6l-62.49999999999994 62.799999999999955c9.099999999999966 9.100000000000023 13.800000000000011 19.700000000000045 14 31.700000000000045 0.19999999999998863 12.100000000000023-4.300000000000011 22.600000000000023-13.400000000000034 31.799999999999955l-156.5 157.70000000000005c-8.199999999999989 9.399999999999977-18.599999999999966 14.100000000000023-31.099999999999966 14.199999999999932-12.5 0.10000000000002274-23.30000000000001-4.399999999999977-32.400000000000006-13.5l-125.60000000000001-125.19999999999993c-9.099999999999994-9.100000000000023-13.799999999999997-19.700000000000045-14-31.700000000000045-0.20000000000000284-12.100000000000023 4.299999999999997-22.600000000000023 13.400000000000006-31.799999999999955l156.5-157.60000000000002c8.199999999999989-9.399999999999977 18.5-13.899999999999977 30.900000000000034-13.5s23.299999999999955 4.7000000000000455 32.599999999999966 12.899999999999977l62.5-62.799999999999955-32.099999999999966-31.400000000000034c-17.400000000000034-18-38.30000000000001-26.80000000000001-62.900000000000034-26.599999999999966-24.599999999999966 0.2999999999999545-45.80000000000001 9.099999999999966-63.79999999999998 26.5l-219.3 221.69999999999993c-17.099999999999994 17.600000000000023-25.499999999999993 38.700000000000045-25.199999999999996 63.200000000000045 0.3000000000000016 24.600000000000023 9.100000000000001 45.799999999999955 26.5 63.799999999999955l189.7 188c17.599999999999994 17.100000000000023 38.70000000000002 25.5 63.20000000000002 25.200000000000045 24.599999999999966-0.2999999999999545 45.80000000000001-9.100000000000023 63.80000000000001-26.5l219.39999999999998-221.79999999999995c17.100000000000023-17.600000000000023 25.5-38.700000000000045 25.200000000000045-63.200000000000045-0.20000000000004547-24.5-9.200000000000045-45.39999999999998-26.800000000000068-62.5l-32.10000000000002-31.399999999999977z m439.80000000000007-381.40000000000003l-189.70000000000005-188c-17.600000000000023-17.099999999999987-38.69999999999993-25.49999999999999-63.19999999999993-25.19999999999999-24.600000000000023 0.3-45.80000000000007 9.1-63.80000000000007 26.5l-219.39999999999998 221.8c-17.100000000000023 17.599999999999966-25.5 38.69999999999999-25.19999999999999 63.19999999999999 0.30000000000001137 24.600000000000023 9.199999999999989 45.39999999999998 26.80000000000001 62.5l32.099999999999966 31.399999999999977 62.50000000000006-62.799999999999955c-9.100000000000023-9.100000000000023-13.800000000000068-19.700000000000045-14-31.700000000000045-0.20000000000004547-12.099999999999966 4.2999999999999545-22.599999999999966 13.399999999999977-31.799999999999955l156.5-157.70000000000002c8.199999999999932-9.400000000000006 18.600000000000023-14.100000000000009 31.100000000000023-14.200000000000003 12.5-0.10000000000000853 23.299999999999955 4.3999999999999915 32.39999999999998 13.5l125.60000000000002 125.10000000000001c9.099999999999909 9.099999999999994 13.799999999999955 19.69999999999999 14 31.69999999999999 0.1999999999999318 12.100000000000023-4.300000000000068 22.600000000000023-13.400000000000091 31.80000000000001l-156.5 157.7c-8.199999999999932 9.399999999999977-18.5 13.899999999999977-30.899999999999977 13.5-12.399999999999977-0.39999999999997726-23.299999999999955-4.699999999999989-32.60000000000002-12.899999999999977l-62.5 62.799999999999955 32.10000000000002 31.399999999999977c17.399999999999977 18 38.30000000000007 26.800000000000068 62.89999999999998 26.600000000000023 24.600000000000023-0.2999999999999545 45.80000000000007-9.100000000000023 63.80000000000007-26.5l219.39999999999998-221.79999999999995c17.100000000000023-17.600000000000023 25.5-38.700000000000045 25.200000000000045-63.200000000000045-0.40000000000009095-24.49999999999997-9.200000000000045-45.69999999999999-26.600000000000023-63.69999999999999z m-640.4000000000001 413.7c0.10000000000007958 12.5 4.2000000000000455 23.200000000000045 12.500000000000057 32.10000000000002 8.5 8 18.900000000000034 11.899999999999977 31.400000000000034 11.799999999999955 12.5-0.09999999999990905 23.19999999999999-4.199999999999932 32.099999999999966-12.5l250.8-253.89999999999998c8-8.5 11.899999999999977-18.899999999999977 11.799999999999955-31.399999999999977-0.09999999999990905-12.5-4.199999999999932-23.19999999999999-12.5-32.10000000000002-8.5-8-18.899999999999977-11.899999999999977-31.399999999999977-11.799999999999955-12.5 0.0999999999999659-23.199999999999932 4.199999999999989-32.10000000000002 12.5l-250.79999999999995 253.89999999999998c-8 8.5-11.899999999999977 18.899999999999977-11.800000000000011 31.399999999999977z"/>
</svg>
