<svg xmlns="http://www.w3.org/2000/svg" viewBox="0 0 1000 1000" width="1000" height="1000">
<path d="M786.4 191.8c-16.5-19.200000000000017-32.89999999999998-38.20000000000002-49.5-57.400000000000006-12.899999999999977-15.100000000000009-26-30.10000000000001-39.19999999999993-45.2-12.900000000000091-14.799999999999997-39-26.800000000000004-58.700000000000045-26.800000000000004h-412.9c-19.50000000000003 0-35.400000000000034 15.899999999999999-35.400000000000034 35.50000000000001v804c0 19.5 15.900000000000006 35.39999999999998 35.400000000000006 35.39999999999998h547.9c19.700000000000045 0 35.5-15.899999999999977 35.5-35.39999999999998v-647.5c0-19.69999999999999-10.299999999999955-47.599999999999966-23.100000000000023-62.599999999999966z m-192.79999999999995 209h48v71.89999999999998h-48v-71.89999999999998z m-67.80000000000007-135.90000000000003h47.700000000000045v208h-47.700000000000045v-208z m-142.39999999999998 10.800000000000011c36.900000000000034-0.39999999999997726 73.40000000000003 37.80000000000001 73.30000000000001 73.5h-73.30000000000001v-73.5z m-0.5 90c23.600000000000023-0.0999999999999659 47.200000000000045-0.0999999999999659 70.90000000000003 0 1.099999999999966 0 2.099999999999966 0.4000000000000341 3.8999999999999773 0.6999999999999886-4.300000000000011 31.900000000000034-20.5 54.900000000000034-49.5 68.20000000000005-28.099999999999966 12.899999999999977-63.69999999999999 7.699999999999989-86-12.5 18.5-18.5 36.60000000000002-36.5 54.80000000000001-54.400000000000034 1.1000000000000227-1.3000000000000114 3.8000000000000114-2 5.899999999999977-2z m-86.39999999999998-39.099999999999966c11.600000000000023-28.900000000000034 41.80000000000001-51.200000000000045 70-51.200000000000045 0 25.900000000000034 0.10000000000002274 51.200000000000045-0.10000000000002274 76.5 0 1.8000000000000114-1.099999999999966 4.400000000000034-2.5 5.800000000000011-17.599999999999966 17.80000000000001-35.299999999999955 35.400000000000034-52.89999999999998 53.10000000000002-19.80000000000001-18.900000000000034-26-55.69999999999999-14.5-84.19999999999999z m-5.800000000000011 217.5h418.40000000000003v37.69999999999993h-418.40000000000003v-37.69999999999993z m418.40000000000003 191h-418.1v-38.10000000000002h418.1v38.10000000000002z m0.2999999999999545-81.10000000000002h-418.4v-37.799999999999955h418.29999999999995l0.10000000000002274 37.799999999999955z m0-181.10000000000002h-47.799999999999955v-164.29999999999995h47.799999999999955v164.29999999999995z"/>
</svg>
