<svg xmlns="http://www.w3.org/2000/svg" viewBox="0 0 1000 1000" width="1000" height="1000">
<path d="M832.4 411.3c-49-89.40000000000003-132.79999999999995-156.9-233.10000000000002-184.10000000000002 8.200000000000045-15.699999999999989 12.800000000000068-33.29999999999998 12.800000000000068-52.099999999999994 0-62.099999999999994-50.5-112.6-112.70000000000005-112.6-61.89999999999998 0-112.39999999999998 50.5-112.39999999999998 112.69999999999999 0 18.900000000000006 4.699999999999989 36.60000000000002 12.899999999999977 52.400000000000006-99.69999999999999 27.5-183.09999999999997 94.79999999999998-231.79999999999998 183.70000000000002-48.39999999999999 13.099999999999966-84.3 57.39999999999998-84.3 110.19999999999999 0 36 17 68.39999999999998 43.2 89.39999999999998 10.5 8.399999999999977 22.69999999999999 15 36 19.399999999999977h20.099999999999994l55 276.6c3.4000000000000057 17.899999999999977 19.099999999999994 30.700000000000045 37.400000000000006 30.700000000000045h31.19999999999999v-186.89999999999998h35.30000000000001v186.79999999999995h140.39999999999998v-186.79999999999995h35.10000000000002v186.79999999999995h140.70000000000005v-186.79999999999995h35.09999999999991v186.79999999999995h49.700000000000045c18.100000000000023 0 33.799999999999955-12.799999999999955 37.39999999999998-30.700000000000045l55-276.5999999999999h1.7000000000000455c13.100000000000023-4.400000000000091 25.399999999999977-11 36-19.40000000000009 26.299999999999955-21 43-53.39999999999998 43-89.39999999999998 0.5-52.69999999999999-35.30000000000007-97-83.70000000000005-110.09999999999997z m-333-272.5c20.200000000000045 0 36.39999999999998 16.399999999999977 36.39999999999998 36.39999999999998s-16.199999999999932 36.20000000000002-36.39999999999998 36.20000000000002c-20 0-36.19999999999999-16.200000000000017-36.19999999999999-36.20000000000002s16.30000000000001-36.39999999999998 36.19999999999999-36.39999999999998z m300.20000000000005 414.7c0.1999999999999318 0.20000000000004547 0.1999999999999318 0.20000000000004547 0.1999999999999318 0.2999999999999545h-599.1999999999999l0.19999999999998863-0.2999999999999545c-18.5-2.6000000000000227-32.5-18.5-32.5-37.700000000000045 0-20.999999999999943 17.099999999999994-38.099999999999966 38.099999999999994-38.099999999999966 5 0 9.5 1.1000000000000227 13.900000000000006 2.900000000000034 8.399999999999977-21.30000000000001 19.099999999999994-41.400000000000034 31.799999999999983-59.80000000000001 54.70000000000002-78.69999999999999 145.4-130.5 248.1-130.5s193.59999999999997 51.80000000000001 248.09999999999997 130.5c12.900000000000091 18.5 23.40000000000009 38.5 32 59.80000000000001 4.400000000000091-1.7000000000000455 8.900000000000091-2.900000000000034 13.900000000000091-2.900000000000034 21 0 38.09999999999991 17.100000000000023 38.09999999999991 38.099999999999966 0.10000000000002274 19.200000000000045-14.299999999999955 35-32.69999999999993 37.700000000000045z"/>
</svg>
