<svg xmlns="http://www.w3.org/2000/svg" viewBox="0 0 1000 1000" width="1000" height="1000">
<path d="M929.6 480.3l-321-330.5c-10.5-10.800000000000011-27.5-10.800000000000011-38.10000000000002 0l-63.80000000000001 65.69999999999999c-10.5 10.800000000000011-10.5 28.400000000000006 0 39.19999999999999l151.90000000000003 156.40000000000003h-409c-14.900000000000034 0-26.900000000000034 12.399999999999977-26.900000000000034 27.69999999999999v110.80000000000001c0 15.299999999999955 12 27.699999999999932 26.900000000000006 27.699999999999932h420.19999999999993l-163.09999999999997 167.80000000000007c-10.5 10.799999999999955-10.5 28.399999999999977 0 39.19999999999993l63.80000000000001 65.70000000000005c10.5 10.799999999999955 27.5 10.799999999999955 38.10000000000002 0l321.1-330.5c10.399999999999977-10.800000000000011 10.399999999999977-28.399999999999977-0.10000000000002274-39.19999999999999z m-829.4-252h165.89999999999998v75.39999999999998h-128.20000000000002v392.40000000000003h128.20000000000002v75.39999999999998h-165.90000000000003c-20.799999999999983 0-37.69999999999999-16.799999999999955-37.69999999999999-37.799999999999955v-467.70000000000005c0-20.80000000000001 16.799999999999997-37.69999999999999 37.7-37.69999999999999z"/>
</svg>
