<svg xmlns="http://www.w3.org/2000/svg" viewBox="0 0 1000 1000" width="1000" height="1000">
<path d="M729.4 261.1c25-16.600000000000023 49.89999999999998-33.400000000000034 74.80000000000007-50.10000000000002 3.2999999999999545-2.3000000000000114 6.899999999999977-4.199999999999989 10.799999999999955-6.5-1.7999999999999545-1.6999999999999886-2.2999999999999545-2.5-2.7000000000000455-2.5-2.5 0.19999999999998863-5 0.5-7.399999999999977 1.0999999999999943-38.69999999999993 7.300000000000011-71.39999999999998-2.299999999999983-94.60000000000002-35.400000000000006-22.699999999999932-32.5-51.39999999999998-58.099999999999994-86-76.69999999999999-69.09999999999991-37.1-140.49999999999994-35.4-212.09999999999997-8.599999999999994-48.39999999999998 18.099999999999994-93.30000000000001 42.69999999999999-125.39999999999998 84.69999999999999-56.400000000000006 73.70000000000002-60.900000000000006 154.20000000000002-22.900000000000034 236.29999999999998 15.900000000000034 34.5 39.80000000000001 65.5 61.80000000000001 96.80000000000001 11.699999999999989 16.69999999999999 18.69999999999999 32.30000000000001 9.600000000000023 52.00000000000006-0.10000000000002274 0.2999999999999545 0.8000000000000114 1.099999999999909 1.8000000000000114 2.3999999999999773 15.299999999999955-5 31-10 46.799999999999955-15.100000000000023-1 18.100000000000023-6.699999999999989 35.39999999999998-17.69999999999999 54.5-19.899999999999977 34.799999999999955-48.30000000000001 62.299999999999955-76 90.60000000000002-44.89999999999998 46-80.6 97.69999999999993-97.6 160.69999999999993-8.199999999999989 30.40000000000009-9.099999999999994 61.200000000000045-7.299999999999983 92.5h511.2c-0.39999999999997726-37.59999999999991-9.700000000000045-71.59999999999991-30.899999999999977-101.89999999999998-20.300000000000068-29.100000000000023-39.5-59.19999999999993-61.5-87-26.600000000000023-33.5-33.700000000000045-70.5-26.800000000000068-111.29999999999995 2.5-14.300000000000068 6.900000000000091-28 19.300000000000068-39.60000000000002 13.199999999999932 59.89999999999998 43.19999999999993 109.89999999999998 79.10000000000002 158 5.599999999999909-4.399999999999977 10.199999999999932-7.899999999999977 14.699999999999932-11.5 1.1000000000000227-0.8999999999999773 1.8000000000000682-2.1000000000000227 3.1000000000000227-3.6000000000000227-34.10000000000002-47.299999999999955-64.79999999999995-96.29999999999995-75.10000000000002-155.79999999999995 4-1 7.899999999999977-2.6000000000000227 11.600000000000023-2.6000000000000227 21.700000000000045 0.10000000000002274 43.39999999999998 1.3999999999999773 65 0.6000000000000227 10.799999999999955-0.39999999999997726 22.700000000000045-2 31.899999999999977-7.100000000000023 15.800000000000068-8.600000000000023 14.899999999999977-23.899999999999977 10.399999999999977-39.39999999999998-3.199999999999932-11.300000000000068-3.2999999999999545-22.600000000000023 5.900000000000091-31.30000000000001 10.299999999999955-9.900000000000034 10.799999999999955-11.199999999999989 0.7999999999999545-21.69999999999999 13-13 13-13 4.899999999999977-30.900000000000034-0.39999999999997726-1-0.7999999999999545-2.099999999999966-1.2999999999999545-3-4.300000000000068-7.199999999999989-1.6000000000000227-11.5 5.600000000000023-14 6.7999999999999545-2.5 13.699999999999932-4.599999999999966 20.299999999999955-7.5 11-4.800000000000011 12.200000000000045-8 5.7000000000000455-17.899999999999977-13.700000000000045-20.900000000000034-27.5-41.69999999999999-41.700000000000045-62.400000000000034-8.899999999999977-13-11.799999999999955-25.899999999999977-3.8999999999999773-40.599999999999966 2-3.8000000000000114 1.2999999999999545-9.800000000000011 0.10000000000002274-14.199999999999989-1.6000000000000227-5.400000000000034-4.7000000000000455-10.600000000000023-7.900000000000091-15.400000000000034-4.2999999999999545-7.199999999999989-3.199999999999932-12.099999999999966 3.6000000000000227-16.599999999999966z"/>
</svg>
