<svg xmlns="http://www.w3.org/2000/svg" viewBox="0 0 1000 1000" width="1000" height="1000">
<path d="M500.1 62.5c-239.60000000000002-0.10000000000000142-432.6 192.1-437.5 427.8-5.100000000000023 244.90000000000003 188.99999999999997 443.59999999999997 429.9 447.2 251.60000000000002 3.7000000000000455 440.5-197.89999999999998 444.9-428.2 4.7000000000000455-246.7-194.19999999999993-447.3-437.29999999999995-446.8z m3.2999999999999545 787.3c-196 1.400000000000091-353.2-155.29999999999995-353.2-349.4 0-193.5 156.5-350.5 349.40000000000003-350.29999999999995 193.60000000000002 0.0999999999999659 349.5 156.59999999999997 350.19999999999993 349.5 0.8000000000000682 186.10000000000002-149.39999999999998 348.79999999999995-346.4 350.19999999999993z m26.200000000000045-611.9h-58.60000000000002c-4 2.842170943040401e-14-7.300000000000011 3.3000000000000114-7.300000000000011 7.300000000000011v209.60000000000002c0 4-3.3000000000000114 7.300000000000011-7.300000000000011 7.300000000000011h-134.5c-4 0-7.2999999999999545 3.2999999999999545-7.2999999999999545 7.2999999999999545v59.5c0 4 3.2999999999999545 7.300000000000068 7.2999999999999545 7.300000000000068h207.70000000000005c4 0 7.2999999999999545-3.300000000000068 7.2999999999999545-7.300000000000068v-283.59999999999997c0-4.100000000000023-3.2999999999999545-7.400000000000006-7.2999999999999545-7.400000000000006z"/>
</svg>
