<svg xmlns="http://www.w3.org/2000/svg" viewBox="0 0 1000 1000" width="1000" height="1000">
<path d="M720.2 142.6h2.699999999999932c11.700000000000045 0 20.899999999999977-10.299999999999983 20.899999999999977-22.89999999999999s-9.299999999999955-22.700000000000003-20.899999999999977-22.700000000000003h-2.699999999999932c0-0.4000000000000057-632.7-0.4000000000000057-632.7-0.4000000000000057 0 0.4000000000000057-4 0.4000000000000057-4 0.4000000000000057-11.700000000000003 0-20.9 10.200000000000003-20.9 22.700000000000003s9.300000000000004 22.89999999999999 20.9 22.89999999999999h4v727.5c0 18.199999999999932 14.799999999999997 33 33 33h566.8c18.200000000000045 0 33-14.800000000000068 33-33v-353.20000000000005c51.10000000000002 18.399999999999977 99.70000000000005 29.700000000000045 137.80000000000007 29.700000000000045 37.10000000000002 0 64.5-10.600000000000023 75.29999999999995-35 27.600000000000023-63.900000000000034-83.79999999999995-164.3-213.10000000000002-234.90000000000003l-0.09999999999990905-134.1z m-303.80000000000007 78.9c-7-6.599999999999994-19.299999999999955-16.30000000000001-34.799999999999955-21.099999999999994-25.100000000000023-7.599999999999994-50.700000000000045-0.700000000000017-44.200000000000045 14.5v240.1c0 11.5-9.399999999999977 20.80000000000001-20.899999999999977 20.80000000000001-11.399999999999977 0-20.80000000000001-9.300000000000011-20.80000000000001-20.80000000000001v-222.1c-7.300000000000011-16.30000000000001 16.69999999999999 79.29999999999998-54.5 37.49999999999997-40.89999999999998-24.19999999999999-36.19999999999999 8.100000000000023-40.19999999999999 21.400000000000034v265.59999999999997c0 11.700000000000045-9.300000000000011 21.100000000000023-20.80000000000001 21.100000000000023-11.699999999999989 0-20.899999999999977-9.399999999999977-20.899999999999977-21.100000000000023v-265.4c-14.800000000000011-3.3000000000000114-27.80000000000001-9.300000000000011-38.20000000000002-14v-137.8h295.4l-0.10000000000002274 81.30000000000001z m488.20000000000005 275.2c-9.899999999999977 22.400000000000034-81.89999999999998 22.099999999999966-184.39999999999998-16.30000000000001v-164.89999999999998c129.69999999999993 73.80000000000001 196 154.60000000000002 184.39999999999998 181.2z"/>
</svg>
