<svg xmlns="http://www.w3.org/2000/svg" viewBox="0 0 1000 1000" width="1000" height="1000">
<path d="M887.5 751.8l-39.200000000000045-173.29999999999995c-4.599999999999909-20.5-29.799999999999955-28.299999999999955-45.19999999999993-14l-130.39999999999998 120.60000000000002c-15.5 14.299999999999955-9.600000000000023 39.89999999999998 10.5 46.19999999999993l34 10.600000000000023c-20.300000000000068 23.300000000000068-44.200000000000045 43.200000000000045-71 59.10000000000002-30.300000000000068 17.899999999999977-63.5 30-98.20000000000005 35.89999999999998v-371h77.39999999999998c9.200000000000045 6 20.100000000000023 9.600000000000023 31.899999999999977 9.600000000000023 31.90000000000009 0 57.90000000000009-25.899999999999977 57.90000000000009-57.89999999999998s-25.90000000000009-57.900000000000034-57.90000000000009-57.900000000000034c-11.699999999999932 0-22.699999999999932 3.5-31.899999999999977 9.5h-77.39999999999998v-39.89999999999998c52.200000000000045-19.69999999999999 89.39999999999998-70 89.39999999999998-129-0.10000000000002274-76.00000000000001-62-137.70000000000002-137.89999999999998-137.70000000000002s-137.7 61.80000000000001-137.7 137.70000000000002c0 59 37.19999999999999 109.39999999999998 89.39999999999998 129v39.89999999999998h-77.39999999999998c-9.100000000000023-6-20-9.5-31.900000000000034-9.5-31.899999999999977 0-57.89999999999998 25.900000000000034-57.89999999999998 57.900000000000034s25.899999999999977 57.89999999999998 57.89999999999998 57.89999999999998c11.800000000000011 0 22.80000000000001-3.5 31.900000000000034-9.600000000000023h77.39999999999998v370.9c-34.599999999999966-5.899999999999977-67.89999999999998-17.899999999999977-98.19999999999999-35.89999999999998-26.69999999999999-15.799999999999955-50.69999999999999-35.89999999999998-71-59.19999999999993l34-10.600000000000023c20-6.2000000000000455 25.899999999999977-31.899999999999977 10.5-46.200000000000045l-130.4-120.5c-15.5-14.299999999999955-40.5-6.5-45.19999999999999 14l-39.2 173.39999999999998c-4.6000000000000085 20.5 14.700000000000003 38.30000000000007 34.7 32.10000000000002l37.099999999999994-11.600000000000023c31.599999999999994 45.200000000000045 72.60000000000002 83.5 120.30000000000001 111.70000000000005 59.099999999999966 35 126.80000000000001 53.39999999999998 195.8 53.39999999999998s136.60000000000002-18.5 195.79999999999995-53.39999999999998c47.60000000000002-28.299999999999955 88.70000000000005-66.5 120.30000000000007-111.70000000000005l37.09999999999991 11.600000000000023c20.100000000000023 6.2000000000000455 39.5-11.600000000000023 34.700000000000045-32.10000000000002z m-350.70000000000005-534c-6.599999999999909 13.80000000000004-20.799999999999955 23.500000000000057-37.099999999999966 23.500000000000057-16.399999999999977 0-30.5-9.600000000000023-37.099999999999966-23.5-2.5-5.300000000000011-3.900000000000034-11.300000000000011-3.900000000000034-17.700000000000017 0-22.69999999999999 18.5-41.099999999999994 41.10000000000002-41.099999999999994 22.69999999999999 0 41.099999999999966 18.5 41.099999999999966 41.099999999999994-0.1999999999999318 6.300000000000011-1.6999999999999318 12.300000000000011-4.100000000000023 17.700000000000017z"/>
</svg>
