<svg xmlns="http://www.w3.org/2000/svg" viewBox="0 0 1000 1000" width="1000" height="1000">
<path d="M795.5 621.1c46.200000000000045-116.80000000000001 93-233.3 139.5-349.90000000000003 0.8999999999999773-2.099999999999966 1.6000000000000227-4.399999999999977 2.2999999999999545-6.899999999999977 1.2000000000000455-3.8000000000000114-6.699999999999932-7-17.5-7h-670.1999999999999c-10.800000000000011 0-21.400000000000034-8.600000000000023-23.600000000000023-19.200000000000017-6.5-31.400000000000006-12.900000000000006-62.29999999999998-19.30000000000001-92.9-2.1999999999999886-10.599999999999994-12.799999999999983-19.19999999999999-23.599999999999994-19.19999999999999h-101c-10.799999999999997 0-19.599999999999994 8.800000000000011-19.599999999999994 19.599999999999994v10.200000000000017c0 10.799999999999983 8.799999999999997 19.599999999999994 19.599999999999994 19.599999999999994h60.5c10.800000000000011 0 21.400000000000006 8.599999999999994 23.5 19.19999999999999 36.900000000000006 181.70000000000002 73.6 362.5 110.50000000000003 543.8 2.1999999999999886 10.600000000000023-4 23.600000000000023-11.200000000000045 31.600000000000023-10.099999999999966 11.200000000000045-16.399999999999977 25.899999999999977-16.299999999999983 41.700000000000045 0.09999999999999432 34.39999999999998 28.299999999999983 62.59999999999991 62.599999999999994 62.69999999999993 34.10000000000002 0 63.19999999999999-28.600000000000023 63.30000000000001-62.39999999999998 0-7.600000000000023-1.3999999999999773-14.899999999999977-4.100000000000023-21.799999999999955-3.8999999999999773-10.100000000000023-1-16.90000000000009 9.900000000000034-16.90000000000009h311.40000000000003c10.799999999999955 0 13.799999999999955 6.800000000000068 9.799999999999955 16.90000000000009-2.6000000000000227 6.599999999999909-4.100000000000023 13.699999999999932-4.2999999999999545 21.09999999999991-0.8000000000000682 33.200000000000045 28.699999999999932 63 62.5 63.200000000000045 34.299999999999955 0.20000000000004547 63.09999999999991-27.799999999999955 63.39999999999998-61.89999999999998 0.1999999999999318-19.200000000000045-8.899999999999977-36.89999999999998-22.899999999999977-48.700000000000045-8.300000000000068-7-16.700000000000045-16.600000000000023-16.700000000000045-24.600000000000023s-8.799999999999955-14.5-19.600000000000023-14.5h-418.9c-10.800000000000011 0-21.399999999999977-8.599999999999909-23.600000000000023-19.199999999999932-3.5-17.100000000000023-7-34-10.5-51.30000000000007-2.1999999999999886-10.599999999999909 0.5-19.199999999999932 6.100000000000023-19.199999999999932h10c148.8 0 297.6-0.10000000000002274 446.29999999999995 0.2999999999999545 11.700000000000045-0.10000000000002274 17.300000000000068-3.199999999999932 21.700000000000045-14.299999999999955z"/>
</svg>
