<svg xmlns="http://www.w3.org/2000/svg" viewBox="0 0 1000 1000" width="1000" height="1000">
<path d="M396.3 606.8c6.099999999999966-2.2999999999999545 8.199999999999989-5.2999999999999545 8.099999999999966-12.899999999999977-0.39999999999997726-53.5 0.30000000000001137-106.79999999999995-0.2999999999999545-160.29999999999995-0.4000000000000341-41.700000000000045-6.100000000000023-82.10000000000002-21.700000000000045-120.5-17-41.80000000000001-42.39999999999998-73.20000000000002-82.5-81.90000000000003-25.299999999999955-5.5-52.099999999999966-4.699999999999989-77.99999999999997-2.6999999999999886-44.20000000000002 3.5-77.20000000000002 28.30000000000001-94.4 76.30000000000001-8.200000000000003 23-10.5 47.5-11.200000000000003 72.19999999999999-1.2999999999999972 50.10000000000002 6.299999999999997 98.39999999999998 21.89999999999999 145.29999999999995 15.700000000000017 47 31.5 93.90000000000009 47.30000000000001 141.20000000000005 12.699999999999989-3.2000000000000455 22.900000000000006-5.5 33.19999999999999-8.200000000000045 59.400000000000034-15.799999999999955 119.69999999999999-26.5 177.60000000000002-48.5z m483.8-433.49999999999994c-7.399999999999977-55.000000000000014-38.200000000000045-94.30000000000001-84.80000000000007-105.80000000000001-27.09999999999991-6.700000000000003-54.69999999999993-5.700000000000003-82.19999999999993-3.200000000000003-26.200000000000045 2.4000000000000057-48 15.5-66.20000000000005 36-29.799999999999955 33.500000000000014-43.299999999999955 76.39999999999999-47.799999999999955 122.3-3.8999999999999773 40.099999999999994-3.5 80.70000000000002-5.100000000000023 121.00000000000003l1.3999999999999773 0.0999999999999659v88.40000000000003c0 4.399999999999977-0.10000000000002274 8.099999999999966 4.800000000000068 9.599999999999966 17.399999999999977 5.699999999999989 34.5 12.900000000000034 52.09999999999991 17.400000000000034 50.200000000000045 13.099999999999966 100.60000000000002 25.099999999999966 150.9000000000001 38.099999999999966 7.2999999999999545 1.8000000000000114 10.699999999999932 0.30000000000001137 13.299999999999955-7.5 15.700000000000045-46.39999999999998 32.299999999999955-92.30000000000001 47.299999999999955-139 18.5-57.39999999999998 24.40000000000009-116.5 16.300000000000068-177.39999999999998z m-458.3 518.4000000000001c-2.400000000000034-6.300000000000068-5.300000000000011-11.900000000000091-10.900000000000034-10.900000000000091-39.39999999999998 7.2000000000000455-79.09999999999997 15.800000000000068-117.5 29.100000000000023-26.299999999999955 9.100000000000023-52.89999999999998 16.5-80.49999999999997 25 11.799999999999983 42.89999999999998 23 84.39999999999998 40.400000000000006 123.39999999999998 19.80000000000001 44.30000000000007 51 70.70000000000005 93.69999999999999 77.40000000000009 38.10000000000002 6 64.30000000000001-2.5 89.30000000000001-47.200000000000045 19-34 17.80000000000001-70.60000000000002 13.300000000000011-107.89999999999998-3.8000000000000114-31.600000000000023-17-59.700000000000045-27.80000000000001-88.89999999999998z m185.8-167.80000000000007c-8.399999999999977-1-18.600000000000023-6.199999999999932-24.800000000000068-2.5-6 3.6000000000000227-7.899999999999977 16.100000000000023-11.599999999999909 24.700000000000045-16.800000000000068 38.299999999999955-25.300000000000068 78.5-23.5 121.60000000000002 1.2999999999999545 31.799999999999955 12.799999999999955 58.299999999999955 31.899999999999977 80.09999999999991 8.299999999999955 9.5 19.399999999999977 18.5 30.5 21.5 46.39999999999998 13 91-3.599999999999909 121.89999999999998-48.89999999999998 29.5-43.19999999999993 40.10000000000002-96.89999999999998 55.10000000000002-149.19999999999993-7.100000000000023-2.2000000000000455-13-4.100000000000023-19.100000000000023-6-53-15.900000000000091-105.39999999999998-35.10000000000002-160.39999999999998-41.30000000000007z"/>
</svg>
