<svg xmlns="http://www.w3.org/2000/svg" viewBox="0 0 1000 1000" width="1000" height="1000">
<path d="M495.7 62.7c4.800000000000011 0 12.5 0 17.19999999999999 0.19999999999999574 233.20000000000005 6.600000000000001 423.70000000000005 195.99999999999997 424.80000000000007 434.20000000000005 1.099999999999909 246.5-195.20000000000005 442.29999999999995-442.80000000000007 440.29999999999995-238.7-2-432.59999999999997-196.89999999999998-432.09999999999997-438.59999999999997 2.0999999999999943-245.10000000000002 196.89999999999998-433.8 432.9-436.1z m-224.2 400.5c-15.900000000000006 0-29.80000000000001 0.30000000000001137-43.69999999999999-0.0999999999999659-6.100000000000023-0.20000000000004547-10 1.5-13.700000000000017 6.599999999999966-25 34.400000000000034-42 72.59999999999997-54.099999999999994 113.09999999999997-1.8000000000000114 6.100000000000023-2 13.400000000000091-0.5 19.5 14.400000000000006 58.5 45.900000000000006 107.20000000000005 87.9 149.5 3.9000000000000057 3.900000000000091 9.299999999999983 7.100000000000023 14.599999999999994 8.800000000000068 43.30000000000001 14 87.5 11.699999999999932 131.7 5.7999999999999545 2.3000000000000114-0.2999999999999545 5.100000000000023-2.7999999999999545 6.300000000000011-5 23.399999999999977-42.799999999999955 46.60000000000002-85.69999999999993 70.10000000000002-128.5 3.099999999999966-5.699999999999932 2.1999999999999886-9.5-1.6000000000000227-14.699999999999932-32.10000000000002-44-61.80000000000001-89.40000000000009-79.10000000000002-141.80000000000007-0.7999999999999545-2.3999999999999773-4.7999999999999545-5.099999999999966-7.399999999999977-5.2999999999999545-37.39999999999998-2.8000000000000114-74.89999999999998-5.400000000000034-110.5-7.900000000000034z m-82.9-122.5c4.400000000000006 38.30000000000001 14.900000000000006 74.19999999999999 29.700000000000017 109 1 2.400000000000034 5.899999999999977 4.300000000000011 9.099999999999994 4.400000000000034 46.49999999999997 2.5 93.1 3.6999999999999886 139.49999999999997 7.399999999999977 16.400000000000034 1.3000000000000114 27.80000000000001-0.6999999999999886 34.5-16.600000000000023 1.6000000000000227-3.7999999999999545 4.800000000000011-6.7999999999999545 7.400000000000034-10.199999999999989 25.399999999999977-33.30000000000001 54.5-63.19999999999999 85.5-91.19999999999999 2.599999999999966-2.3999999999999773 5.099999999999966-7 4.800000000000011-10.300000000000011-4.100000000000023-45.19999999999999-14.200000000000045-89.19999999999999-29.900000000000034-131.79999999999998-2.099999999999966-5.800000000000011-5.199999999999989-8.800000000000011-11-10.599999999999994-40.89999999999998-13.100000000000023-82.59999999999997-13.900000000000006-124.69999999999999-8.400000000000006-6 0.799999999999983-12.899999999999977 1.1999999999999886-17.5 4.5-19.5 13.799999999999983-39.30000000000001 27.5-57.10000000000002 43.400000000000006-26.799999999999983 23.899999999999977-45.599999999999966 54.39999999999998-64.39999999999998 84.69999999999999-1.8000000000000114 2.8000000000000114-3 6-4.099999999999994 9.199999999999989-1.4000000000000057 4.300000000000011-2.3000000000000114 11.800000000000011-1.8000000000000114 16.5z m355.9 520.9000000000001c44.299999999999955 2.3999999999998636 87.60000000000002-9.100000000000136 129.39999999999998-28.100000000000136 10.700000000000045-4.899999999999977 19.200000000000045-11 26-20.600000000000023 23-32.299999999999955 43.60000000000002-65.69999999999993 54.10000000000002-104.5 1.8999999999999773-7.100000000000023 1.2000000000000455-12.699999999999932-3.7000000000000455-18.600000000000023-28-34.19999999999993-59.09999999999991-65.19999999999993-93.5-93.09999999999991-5.099999999999909-4.100000000000023-9.299999999999955-5.300000000000068-15.599999999999909-3.2000000000000455-49.60000000000002 16.200000000000045-100.70000000000005 25.799999999999955-152.20000000000005 33.200000000000045-3.3000000000000114 0.5-7.699999999999989 3.599999999999909-9.100000000000023 6.599999999999909-19.69999999999999 45.200000000000045-44.19999999999999 87.70000000000005-70.29999999999995 129.5-3.6000000000000227 5.7000000000000455-2.900000000000034 9.400000000000091 0.6999999999999886 14.5 17.19999999999999 24.300000000000068 37.5 45.40000000000009 61.099999999999966 63.40000000000009 15 11.399999999999977 30 22.59999999999991 50.60000000000002 21 6.899999999999977-0.6000000000000227 13.700000000000045-0.10000000000002274 22.5-0.10000000000002274z m245.79999999999995-547.3000000000002c-3.5-39.69999999999993-16-73.39999999999995-31.699999999999932-106.29999999999995-1.1000000000000227-2.1999999999999886-3.300000000000068-4-5.100000000000023-5.699999999999989-41-38.20000000000002-88.60000000000002-63.30000000000001-144-73.4-19-3.4000000000000057-36.799999999999955-5.200000000000003-55 5.5-25.700000000000045 15-52.19999999999999 28.599999999999994-73.19999999999999 50.400000000000006-4.600000000000023 4.799999999999983-5.5 8.799999999999983-3.1000000000000227 15.299999999999983 15.600000000000023 41.30000000000001 25.30000000000001 84.1 29.600000000000023 128.1 0.5999999999999659 6.300000000000011 2.8000000000000114 8.800000000000011 8.599999999999966 10.400000000000034 51.10000000000002 14.099999999999966 99 35.799999999999955 143.5 64.69999999999999 5.100000000000023 3.3000000000000114 8.700000000000045 3.1999999999999886 13.800000000000068 0.19999999999998863 33.799999999999955-19.69999999999999 67.59999999999991-39.5 101.89999999999998-58.30000000000001 7.600000000000023-4.099999999999966 13.5-8.300000000000011 15.5-13.699999999999989 1.5-4.600000000000023-0.39999999999997726-12.399999999999977-0.8000000000000682-17.19999999999999z m106.5 183.90000000000003c-0.599999999999909-13-1-25.899999999999977-2.3999999999999773-38.80000000000001-1.1000000000000227-10.799999999999955-0.8999999999999773-23.69999999999999-6.699999999999932-31.799999999999955-23.100000000000023-31.80000000000001-50.30000000000007-60-84.80000000000007-80.10000000000002-5.600000000000023-3.3000000000000114-9.600000000000023-2.6999999999999886-15 0.39999999999997726-36.10000000000002 21-72.19999999999993 41.700000000000045-108.60000000000002 62.200000000000045-5.7999999999999545 3.2999999999999545-7.899999999999977 6.7999999999999545-8 13.599999999999966-0.39999999999997726 51.80000000000001-4.699999999999932 103.30000000000001-14.399999999999977 154.40000000000003-0.6000000000000227 3.1000000000000227 1.5 8.100000000000023 4 10.199999999999932 35.60000000000002 28.90000000000009 68.10000000000002 60.90000000000009 96.60000000000002 96.70000000000005 4.2000000000000455 5.2999999999999545 7.7999999999999545 6 13.899999999999977 4.2999999999999545 36.5-10.099999999999909 65.10000000000002-32.39999999999998 91.80000000000007-57.799999999999955 1.7999999999999545-1.7000000000000455 3-4.2000000000000455 3.8999999999999773-6.600000000000023 13.699999999999932-35.39999999999998 26.100000000000023-71.19999999999993 29.5-109.39999999999998 0.39999999999997726-4.800000000000011 0.39999999999997726-12.5 0.1999999999999318-17.30000000000001z m-811.5999999999999 65.90000000000003c18.499999999999957 109.19999999999993 70.89999999999995 198.10000000000002 156.69999999999996 266.19999999999993 3.6999999999999886 3 6.599999999999994 1.5 6.299999999999983-3.2999999999999545-0.8999999999999773-18.600000000000023-1.799999999999983-37.200000000000045-3.1999999999999886-55.89999999999998-0.30000000000001137-4.600000000000023-2.0999999999999943-10.100000000000023-5.199999999999989-13.399999999999977-42.80000000000001-44.700000000000045-75.20000000000002-95.30000000000007-90.20000000000002-156.10000000000002-0.799999999999983-3.1000000000000227-3.0999999999999943-6.600000000000023-5.699999999999989-8.300000000000068-17.200000000000003-11.099999999999909-34.7-21.899999999999977-52.80000000000001-33.299999999999955-4-2.2999999999999545-6.699999999999989-0.6000000000000227-5.8999999999999915 4.100000000000023z m25.19999999999996-207l3.6999999999999886-3c17.5-14.600000000000023 36.599999999999994-26.700000000000045 58.400000000000006-33.700000000000045 7.300000000000011-2.3999999999999773 11.900000000000006-6.099999999999966 15.800000000000011-12.599999999999966 30.799999999999983-51.80000000000001 69-96.80000000000001 121.5-128.20000000000002 3-1.799999999999983 5.099999999999966-6.099999999999994 6.199999999999989-9.699999999999989 4.800000000000011-15.700000000000017 9.100000000000023-31.599999999999994 13.5-47.400000000000006 0.30000000000001137-0.9000000000000057 0.5-1.9000000000000057 0.6999999999999886-3.200000000000003 0.4000000000000341-1.7999999999999972-2.8000000000000114-1.5999999999999943-7.099999999999966 0.5-102.50000000000003 49.60000000000001-173.8 126.00000000000001-213.40000000000003 232.2-1.6999999999999886 4.5-1.299999999999983 6.800000000000011 0.700000000000017 5.100000000000023z m326.20000000000005 556.6c104.79999999999995 16.59999999999991 201.60000000000002-4.600000000000023 292.5-61.60000000000002 4-2.5 3.5-5.7000000000000455-1.1000000000000227-6.800000000000068-9.100000000000023-2.2999999999999545-17.399999999999977-4.399999999999977-25.399999999999977-7.399999999999977-6.899999999999977-2.6000000000000227-12.5-2.199999999999932-19 0.8000000000000682-31.200000000000045 14.399999999999977-62.89999999999998 27.799999999999955-97.60000000000002 29.899999999999977-26.100000000000023 1.6000000000000227-52.299999999999955 0.6000000000000227-78.5 1.1999999999999318-4.399999999999977 0.10000000000002274-9.699999999999989 1.400000000000091-13.100000000000023 4.100000000000023-17.899999999999977 14.300000000000068-36.89999999999998 26.5-58.19999999999999 35.39999999999998-4.5 1.7000000000000455-4.300000000000011 3.7000000000000455 0.4000000000000341 4.400000000000091z m353.1-717.5c-70.5-65.20000000000005-151.70000000000005-102.60000000000005-246-113.50000000000004-4.7000000000000455-0.5-5.5 1.3999999999999915-1.7000000000000455 4.299999999999997 11.899999999999977 9.099999999999994 23.299999999999955 17.799999999999997 34.799999999999955 26.200000000000003 2.7000000000000455 2 6.5 3 9.900000000000091 3.3999999999999915 65.19999999999993 6.900000000000006 122 32.099999999999994 170.19999999999993 76.70000000000002 2.5 2.299999999999983 5.899999999999977 4.199999999999989 9.200000000000045 4.799999999999983 6.7999999999999545 1.200000000000017 13.600000000000023 2 21.399999999999977 2.9000000000000057 4.7000000000000455 0.5999999999999943 5.7000000000000455-1.5999999999999943 2.2000000000000455-4.800000000000011z m115.59999999999991 213.99999999999994c-2.7999999999999545 11.800000000000011-7.399999999999977 23.400000000000034-3.699999999999932 36.400000000000034 2.699999999999932 9.5 2.3999999999999773 19.899999999999977 3.199999999999932 29.899999999999977 3.800000000000068 49.5-7.199999999999932 96.60000000000002-25.799999999999955 141.89999999999998-7 17.100000000000023-1.2999999999999545 32.80000000000007 0.39999999999997726 48.89999999999998 0.5 4.7000000000000455 2.1000000000000227 5.100000000000023 4 0.8000000000000682 36.80000000000007-83.30000000000007 45.700000000000045-169.20000000000005 25.5-257.90000000000003-1.1000000000000227-4.699999999999989-2.5-4.599999999999966-3.6000000000000227 0z"/>
</svg>
