<svg xmlns="http://www.w3.org/2000/svg" viewBox="0 0 1000 1000" width="1000" height="1000">
<path d="M872.9 62.7h-745.4c-35.599999999999994 0-64.8 28.799999999999997-64.8 64.8v745c0 36 29.200000000000003 64.79999999999995 64.8 64.79999999999995h745.4c35.60000000000002 0 64.80000000000007-28.799999999999955 64.80000000000007-64.79999999999995v-745c0-36-29.200000000000045-64.8-64.80000000000007-64.8z m-437.9 166.5c8.399999999999977-1.299999999999983 17.19999999999999-2.5999999999999943 26.19999999999999-3.1999999999999886 9.400000000000034-0.5999999999999943 18.100000000000023-1 25.600000000000023-1 8.099999999999966 0 17.19999999999999 0.30000000000001137 26.900000000000034 1 9.399999999999977 0.5999999999999943 18.5 1.9000000000000057 26.59999999999991 3.1999999999999886 1.3000000000000682 8.400000000000006 2.300000000000068 16.5 2.900000000000091 24.600000000000023 0.2999999999999545 8.099999999999966 0.599999999999909 16.5 0.599999999999909 24.599999999999966 0 7.800000000000011-0.2999999999999545 15.900000000000034-0.599999999999909 24.30000000000001-0.6000000000000227 8.400000000000034-1.6000000000000227 16.5-2.900000000000091 25-8.099999999999909 1.3000000000000114-16.899999999999977 2.3000000000000114-26.199999999999932 2.900000000000034-9.400000000000034 0.2999999999999545-18.100000000000023 0.5999999999999659-26.200000000000045 0.5999999999999659-7.7999999999999545 0-16.5-0.30000000000001137-25.899999999999977-0.5999999999999659-9.699999999999989-0.6000000000000227-18.5-1.6000000000000227-26.899999999999977-2.900000000000034-2.900000000000034-16.5-4.2000000000000455-33.099999999999966-4.2000000000000455-49.30000000000001-0.0999999999999659-15.5 1.2000000000000455-31.99999999999997 4.100000000000023-49.19999999999999z m163.39999999999998 546.0999999999999h-196.39999999999998c-2.8999999999999773-12.599999999999909-4.199999999999989-25.59999999999991-4.199999999999989-38.89999999999998 0-6.199999999999932 0.30000000000001137-13 1-20.100000000000023 0.5999999999999659-7.099999999999909 1.8999999999999773-13.899999999999977 3.1999999999999886-20.09999999999991h48v-225.50000000000006h-48c-1.3000000000000114-6.199999999999989-2.6000000000000227-13-3.1999999999999886-20.099999999999966-0.6000000000000227-7.100000000000023-1-13.600000000000023-1-20.100000000000023 0-13.300000000000011 1.3000000000000114-26.19999999999999 4.199999999999989-38.89999999999998h148.39999999999998v304.6h48c1.3000000000000682 6.199999999999932 2.6000000000000227 13 3.2000000000000455 20.09999999999991 0.6000000000000227 7.100000000000023 1 13.900000000000091 1 20.100000000000023 0 13.300000000000068-1.3000000000000682 26.300000000000068-4.2000000000000455 38.89999999999998z"/>
</svg>
