<svg xmlns="http://www.w3.org/2000/svg" viewBox="0 0 1000 1000" width="1000" height="1000">
<path d="M351.3 141c-3.6999999999999886 8-11.400000000000034 17.5-18.5 20.900000000000006-4.300000000000011 2.0999999999999943-8.5 4.199999999999989-12.800000000000011 6.5-31.19999999999999 16.900000000000006-60.5 38.29999999999998-86.9 64.69999999999999-26.299999999999983 26.200000000000017-47.69999999999999 55.599999999999994-64.69999999999999 86.9-2.3000000000000114 4.199999999999989-4.400000000000006 8.399999999999977-6.5 12.699999999999989-3.5 7.100000000000023-13 14.800000000000011-21 18.5-45.7 21.5-78.5 80-78.5 148.7s32.89999999999999 127.39999999999998 78.6 148.80000000000007c8 3.699999999999932 17.5 11.399999999999977 20.900000000000006 18.5 2.0999999999999943 4.2999999999999545 4.199999999999989 8.5 6.5 12.799999999999955 16.900000000000006 31.200000000000045 38.29999999999998 60.5 64.69999999999999 86.79999999999995s55.599999999999994 47.700000000000045 86.9 64.70000000000005c4.199999999999989 2.2999999999999545 8.5 4.5 12.800000000000011 6.5 7.099999999999966 3.5 14.800000000000011 13 18.5 21 21.399999999999977 45.60000000000002 79.89999999999998 78.5 148.59999999999997 78.5 68.80000000000007 0 127.30000000000007-32.89999999999998 148.80000000000007-78.5 3.699999999999932-8 11.399999999999977-17.5 18.5-21 4.2999999999999545-2.1000000000000227 8.5-4.2000000000000455 12.799999999999955-6.5 31.200000000000045-16.899999999999977 60.5-38.299999999999955 86.79999999999995-64.70000000000005 26.300000000000068-26.299999999999955 47.700000000000045-55.59999999999991 64.70000000000005-86.79999999999995 2.2999999999999545-4.2000000000000455 4.5-8.5 6.5-12.799999999999955 3.5-7.100000000000023 13-14.800000000000068 21-18.5 45.60000000000002-21.40000000000009 78.5-80 78.5-148.70000000000005s-32.89999999999998-127.30000000000001-78.5-148.8c-8-3.8000000000000114-17.5-11.399999999999977-21-18.5-2.1000000000000227-4.300000000000011-4.2000000000000455-8.5-6.5-12.699999999999989-16.899999999999977-31.19999999999999-38.299999999999955-60.5-64.70000000000005-86.9-26.199999999999932-26.299999999999983-55.59999999999991-47.79999999999998-86.79999999999995-64.69999999999999-4.2000000000000455-2.3000000000000114-8.5-4.5-12.799999999999955-6.5-7.100000000000023-3.5-14.800000000000068-13-18.5-21-21.40000000000009-45.60000000000001-80-78.5-148.80000000000007-78.5-68.69999999999999 0.09999999999999432-127.19999999999999 32.89999999999999-148.59999999999997 78.6z m176.99999999999994 225.8c6.600000000000023 1.3999999999999773 6.2000000000000455 7.699999999999989-2 11-7.7999999999999545 3.1999999999999886-16.799999999999955 5.099999999999966-26.399999999999977 5.099999999999966-9.5 0-18.5-1.8999999999999773-26.19999999999999-5.099999999999966-8.099999999999966-3.3000000000000114-8.5-9.600000000000023-2-11.100000000000023 4-0.8999999999999773 8-1.599999999999966 11.900000000000034-2 10.899999999999977-1.3000000000000114 21.799999999999955-1.3000000000000114 32.60000000000002 0 4.099999999999909 0.6000000000000227 8.099999999999909 1.3000000000000114 12.099999999999909 2.1000000000000227z m19.800000000000068 21.5c7.2999999999999545-5 18.399999999999977-7.5 25.799999999999955-2.8000000000000114 8 5.100000000000023 15.5 11.100000000000023 22.399999999999977 18.100000000000023 7 6.899999999999977 13 14.5 18.100000000000023 22.399999999999977 4.7000000000000455 7.399999999999977 2.2000000000000455 18.600000000000023-2.7999999999999545 25.80000000000001-8.800000000000068 12.800000000000011-14.200000000000045 29.599999999999966-14.200000000000045 48.099999999999966s5.399999999999977 35.39999999999998 14.200000000000045 48.200000000000045c5 7.199999999999932 7.5 18.399999999999977 2.7999999999999545 25.799999999999955-5.100000000000023 8-11.100000000000023 15.5-18.100000000000023 22.5-6.899999999999977 7-14.5 13-22.399999999999977 18.100000000000023-7.399999999999977 4.7000000000000455-18.5 2.2999999999999545-25.799999999999955-2.7000000000000455-12.800000000000068-8.799999999999955-29.700000000000045-14.199999999999932-48.200000000000045-14.199999999999932-18.5 0-35.39999999999998 5.2999999999999545-48.099999999999966 14.199999999999932-7.199999999999989 5-18.400000000000034 7.5-25.80000000000001 2.7000000000000455-8-5.100000000000023-15.5-11.100000000000023-22.399999999999977-18-7-7-13-14.5-18.100000000000023-22.5-4.699999999999989-7.399999999999977-2.1999999999999886-18.600000000000023 2.8000000000000114-25.899999999999977 8.800000000000011-12.700000000000045 14.099999999999966-29.600000000000023 14.099999999999966-48.10000000000002s-5.399999999999977-35.30000000000001-14.199999999999989-48.10000000000002c-5-7.2999999999999545-7.5-18.399999999999977-2.8000000000000114-25.799999999999955 5.100000000000023-8 11.100000000000023-15.5 18.100000000000023-22.400000000000034 6.899999999999977-7 14.5-13 22.399999999999977-18.099999999999966 7.400000000000034-4.7000000000000455 18.600000000000023-2.2000000000000455 25.80000000000001 2.7999999999999545 12.800000000000011 8.800000000000011 29.600000000000023 14.200000000000045 48.10000000000002 14.200000000000045 18.69999999999999-0.10000000000002274 35.599999999999966-5.5 48.30000000000001-14.300000000000011z m85.10000000000002 83.39999999999998c0.8999999999999773 4 1.599999999999909 8 2 12 1.2999999999999545 10.900000000000034 1.2999999999999545 21.80000000000001 0 32.599999999999966-0.5 4-1.2000000000000455 8-2 11.900000000000091-1.400000000000091 6.5-7.800000000000068 6.199999999999932-11.100000000000023-2-3.2000000000000455-7.800000000000068-5-16.800000000000068-5-26.400000000000034 0-9.5 1.7999999999999545-18.5 5-26.30000000000001 3.2999999999999545-8 9.600000000000023-8.399999999999977 11.100000000000023-1.8000000000000114z m-161.50000000000006 161.50000000000006c-6.5-1.5-6.099999999999966-7.7000000000000455 2-11.100000000000023 7.699999999999989-3.2000000000000455 16.69999999999999-5 26.19999999999999-5 9.600000000000023 0 18.600000000000023 1.8999999999999773 26.399999999999977 5.100000000000023 8.100000000000023 3.2999999999999545 8.5 9.599999999999909 1.900000000000091 11-4 0.8999999999999773-8 1.599999999999909-12 2.099999999999909-10.800000000000068 1.2000000000000455-21.800000000000068 1.2000000000000455-32.60000000000002 0-3.900000000000034-0.599999999999909-7.900000000000034-1.2999999999999545-11.900000000000034-2.099999999999909z m-104.89999999999998-104.90000000000009c-0.9000000000000341-4-1.6000000000000227-8-2-11.899999999999977-1.3000000000000114-10.799999999999955-1.3000000000000114-21.799999999999955 0-32.599999999999966 0.5-4 1.1999999999999886-8 2-12 1.3999999999999773-6.600000000000023 7.699999999999989-6.199999999999989 11.099999999999966 2 3.2000000000000455 7.800000000000011 5.100000000000023 16.69999999999999 5.100000000000023 26.30000000000001 0 9.599999999999966-1.8999999999999773 18.600000000000023-5.100000000000023 26.299999999999955-3.2999999999999545 8-9.599999999999966 8.399999999999977-11.099999999999966 1.8999999999999773z m-41.80000000000001-34.49999999999994c-0.10000000000002274 4.099999999999966-0.19999999999998863 8.300000000000011 0 12.399999999999977 0.30000000000001137 8.800000000000011-3.6999999999999886 21.000000000000057-10 27.19999999999999l-106.30000000000001 106.39999999999998c-6.199999999999989 6.2000000000000455-14.5 4.900000000000091-18-3.199999999999932-38.19999999999999-86.89999999999998-38.19999999999999-186.5 0-273.3 3.5-8.100000000000023 11.800000000000011-9.400000000000034 18-3.1999999999999886l106.40000000000003 106.39999999999998c6.199999999999989 6.300000000000011 10.299999999999955 18.5 9.899999999999977 27.30000000000001z m466.29999999999995 145.99999999999994l-106.39999999999998-106.39999999999998c-6.199999999999932-6.199999999999932-10.299999999999955-18.299999999999955-10-27.099999999999966 0.20000000000004547-4.199999999999989 0.20000000000004547-8.300000000000011 0-12.5-0.2999999999999545-8.800000000000011 3.7000000000000455-20.900000000000034 10-27.100000000000023l106.39999999999998-106.39999999999998c6.2000000000000455-6.199999999999989 14.5-4.900000000000034 18 3.1999999999999886 38.200000000000045 86.80000000000001 38.200000000000045 186.39999999999998 0 273.29999999999995-3.3999999999999773 7.900000000000091-11.699999999999932 9.200000000000045-18 3z m-658.8-260.49999999999994c6.900000000000006-5.400000000000034 10.900000000000006-1.900000000000034 8.199999999999989 6.5-23.599999999999994 74.30000000000001-23.599999999999994 154.40000000000003 0 228.59999999999997 2.700000000000017 8.399999999999977-1.299999999999983 11.800000000000068-8.299999999999983 6.399999999999977-30-23.5-50.400000000000006-68.79999999999995-50.400000000000006-120.79999999999995s20.400000000000006-97.30000000000001 50.5-120.69999999999999z m246.8 488.2c-5.400000000000034-6.899999999999977-1.900000000000034-10.899999999999977 6.5-8.200000000000045 74.30000000000001 23.600000000000023 154.40000000000003 23.600000000000023 228.59999999999997 0 8.399999999999977-2.699999999999932 11.800000000000068 1.3000000000000682 6.399999999999977 8.300000000000068-23.5 30-68.79999999999995 50.39999999999998-120.79999999999995 50.39999999999998s-97.30000000000001-20.399999999999977-120.69999999999999-50.5z m257.40000000000003-58.10000000000002c-86.80000000000007 38.200000000000045-186.50000000000006 38.200000000000045-273.30000000000007 0-8.099999999999966-3.5-9.399999999999977-11.799999999999955-3.1999999999999886-18.100000000000023l106.40000000000003-106.39999999999998c6.199999999999989-6.199999999999932 18.399999999999977-10.299999999999955 27.19999999999999-10 4.099999999999966 0.10000000000002274 8.300000000000011 0.20000000000004547 12.399999999999977 0 8.800000000000011-0.2999999999999545 21.000000000000057 3.7000000000000455 27.19999999999999 10l106.39999999999998 106.39999999999998c6.2000000000000455 6.300000000000068 4.900000000000091 14.5-3.099999999999909 18.100000000000023z m230.79999999999995-188.60000000000002c-6.899999999999977 5.400000000000091-10.899999999999977 1.900000000000091-8.200000000000045-6.5 23.5-74.29999999999995 23.5-154.39999999999998 0-228.59999999999997-2.699999999999932-8.399999999999977 1.3000000000000682-11.800000000000011 8.200000000000045-6.399999999999977 30.100000000000023 23.399999999999977 50.5 68.69999999999999 50.5 120.69999999999999s-20.399999999999977 97.29999999999995-50.5 120.79999999999995z m-361.3-295.79999999999995c-4.199999999999989-0.19999999999998863-8.300000000000011-0.19999999999998863-12.5 0-8.800000000000011 0.30000000000001137-20.899999999999977-3.6999999999999886-27.099999999999966-10l-106.40000000000003-106.30000000000001c-6.199999999999989-6.199999999999989-4.899999999999977-14.5 3.1999999999999886-18 86.80000000000001-38.19999999999999 186.5-38.19999999999999 273.30000000000007 0 8.099999999999909 3.5 9.399999999999977 11.800000000000011 3.199999999999932 18l-106.5 106.40000000000003c-6.199999999999932 6.199999999999989-18.399999999999977 10.299999999999955-27.19999999999999 9.899999999999977z m108.09999999999997-184.3c-74.29999999999995-23.499999999999986-154.39999999999998-23.499999999999986-228.59999999999997 0-8.399999999999977 2.700000000000017-11.800000000000011-1.299999999999983-6.399999999999977-8.199999999999989 23.399999999999977-30.099999999999994 68.69999999999999-50.5 120.69999999999999-50.5 52.10000000000002 0 97.29999999999995 20.400000000000006 120.79999999999995 50.5 5.400000000000091 6.900000000000006 1.900000000000091 10.800000000000011-6.5 8.199999999999989z"/>
</svg>
