<svg xmlns="http://www.w3.org/2000/svg" viewBox="0 0 1000 1000" width="1000" height="1000">
<path d="M812.8 493.6c-2.7999999999999545-4.400000000000034-5.5-8.700000000000045-8.399999999999977-12.800000000000011-46.299999999999955-65.5-108.5-101.5-189.69999999999993-101.40000000000003-7.100000000000023 0-11.100000000000023-1.6999999999999886-14.600000000000023-8-32.60000000000002-58.69999999999999-65.39999999999998-117.29999999999998-98.40000000000003-175.79999999999998-3.8000000000000114-6.699999999999989-2.599999999999966-11.5 0.4000000000000341-18.099999999999994 7.699999999999989-16.80000000000001 15.600000000000023-33.69999999999999 20.600000000000023-51.400000000000006 5.099999999999909-17.89999999999999 6.2999999999999545-36.099999999999994 0.7999999999999545-54.099999999999994-2.7999999999999545-9.100000000000001-13.600000000000023-12.100000000000001-22-7.400000000000006-102.60000000000002 57.5-204.8 114.70000000000002-309.8 173.4-8.299999999999983 4.599999999999994-9.5 13.800000000000011-2.5999999999999943 20.5 5.700000000000017 5.600000000000023 11.099999999999994 10.800000000000011 17.30000000000001 14.899999999999977 24.599999999999994 16.700000000000045 52.99999999999997 21.900000000000034 82.20000000000002 22.80000000000001 9 0.30000000000001137 13.799999999999955 3.6000000000000227 18.099999999999966 11.400000000000034 31.69999999999999 57.299999999999955 63.69999999999999 114.5 96.10000000000002 171.39999999999998 4.599999999999966 8 3.8000000000000114 13.199999999999989-0.9000000000000341 20.899999999999977-44.69999999999999 74.70000000000005-41.69999999999999 149.30000000000007-5.7999999999999545 225.10000000000002 4.099999999999966 8.700000000000045 14.5 11.700000000000045 22.799999999999955 7 47.200000000000045-26.399999999999977 93.80000000000007-52.60000000000002 140.60000000000002-78.79999999999995 8.299999999999955-4.600000000000023 19.700000000000045-2.300000000000068 25.5 5.399999999999977 66 89.39999999999998 131.39999999999998 177.39999999999998 196.79999999999995 265.4 5.7000000000000455 7.7000000000000455 10.800000000000068 13.700000000000045 11.200000000000045 13.5 0.5-0.2999999999999545-1.8999999999999773-7.600000000000023-5.5-16.5-41-102-82-204.10000000000002-123.39999999999998-307-3.6000000000000227-8.799999999999955 0.2999999999999545-19.899999999999977 8.699999999999932-24.5 44.5-24.899999999999977 88.5-49.5 133.10000000000002-74.60000000000002 8.300000000000068-4.599999999999966 11.399999999999977-14.199999999999989 6.899999999999977-21.299999999999955z"/>
</svg>
