<svg xmlns="http://www.w3.org/2000/svg" viewBox="0 0 1000 1000" width="1000" height="1000">
<path d="M901.3 329.6c-23.09999999999991-53.900000000000034-54.09999999999991-100.40000000000003-92.79999999999995-139.40000000000003-38.799999999999955-38.89999999999998-85.10000000000002-69.99999999999999-139.10000000000002-93.1-54-23.099999999999994-110.39999999999998-34.599999999999994-169.5-34.599999999999994s-115.59999999999997 11.5-169.5 34.599999999999994c-54 23.10000000000001-100.39999999999998 54.20000000000002-139.09999999999997 93.1-38.80000000000001 39-69.70000000000002 85.5-92.80000000000001 139.40000000000003-23.099999999999994 54-34.7 110.69999999999999-34.7 170.09999999999997s11.600000000000009 116.19999999999999 34.7 170.40000000000003 54.099999999999994 100.69999999999993 92.80000000000001 139.69999999999993c38.79999999999998 39 85.09999999999997 70 139.09999999999997 93.10000000000002 53.900000000000034 23.100000000000023 110.40000000000003 34.60000000000002 169.5 34.60000000000002s115.5-11.5 169.5-34.60000000000002c53.89999999999998-23.100000000000023 100.30000000000007-54.10000000000002 139.10000000000002-93.10000000000002 38.799999999999955-39 69.70000000000005-85.59999999999991 92.79999999999995-139.5999999999999 23.200000000000045-54.200000000000045 34.700000000000045-111 34.700000000000045-170.50000000000006-0.10000000000002274-59.39999999999998-11.600000000000023-116.09999999999997-34.700000000000045-170.09999999999997z m-659.8 339.9c-33.69999999999999-51.89999999999998-50.5-108.39999999999998-50.5-169.8 0-56 13.800000000000011-107.89999999999998 41.5-155.59999999999997s65.10000000000002-85.30000000000001 112.39999999999998-113.10000000000002c47.30000000000001-27.69999999999999 99-41.5 155-41.5 62.5 0 119.20000000000005 17.19999999999999 170.30000000000007 51.69999999999999l-428.70000000000005 428.3z m542.9-49.10000000000002c-16.299999999999955 38.39999999999998-38.19999999999993 71.39999999999998-65.89999999999998 99.10000000000002-27.700000000000045 27.600000000000023-60.5 49.700000000000045-98.5 66.10000000000002-38.10000000000002 16.399999999999977-78 24.699999999999932-120 24.699999999999932-60.60000000000002 0-116.69999999999999-16.899999999999977-168.60000000000002-50.59999999999991l428.1-427.50000000000006c32.89999999999998 50.69999999999999 49.39999999999998 106.60000000000002 49.39999999999998 167.5-0.10000000000002274 42.00000000000006-8.299999999999955 82.30000000000001-24.5 120.69999999999999z"/>
</svg>
