<svg xmlns="http://www.w3.org/2000/svg" viewBox="0 0 1000 1000" width="1000" height="1000">
<path d="M62.5 228.9v542.2c0 91.89999999999998 74.5 166.39999999999998 166.4 166.39999999999998h542.2c91.89999999999998 0 166.39999999999998-74.5 166.39999999999998-166.39999999999998v-542.2c0-91.89999999999998-74.5-166.39999999999998-166.39999999999998-166.39999999999998h-542.2c-91.89999999999998 0-166.39999999999998 74.5-166.39999999999998 166.4z m315.7 511.30000000000007l72.5-262.20000000000005c-44.89999999999998-18.100000000000023-76.59999999999997-62-76.59999999999997-113.5 0-67.5 54.799999999999955-122.19999999999999 122.29999999999995-122.19999999999999s122.39999999999998 54.69999999999999 122.39999999999998 122.19999999999999c0 46-25.399999999999977 86-62.89999999999998 106.89999999999998l69.80000000000007 268.80000000000007h-247.50000000000006z"/>
</svg>
