<svg xmlns="http://www.w3.org/2000/svg" viewBox="0 0 1000 1000" width="1000" height="1000">
<path d="M936.5 531.1c-23.200000000000045-38-50.5-73.5-85.20000000000005-103.90000000000003-33.5-29.099999999999966-69.29999999999995-53-107.5-71.80000000000001l-62.799999999999955 75.40000000000003 1.2999999999999545 0.5c51.700000000000045 23.5 95.5 55.5 130.60000000000002 97.30000000000001 3.3999999999999773 4.199999999999932 5.399999999999977 7.199999999999932 1.3000000000000682 12.5-58.40000000000009 68.79999999999995-135.70000000000005 110-229 128.5 53.39999999999998-31.700000000000045 84.29999999999995-75.39999999999998 84.29999999999995-133.89999999999998 0-26.100000000000023-6-49.00000000000006-17.700000000000045-69.70000000000005l-247.89999999999998 298c57.400000000000034 9.600000000000023 117.39999999999998 9.799999999999955 180 0.5 156.10000000000002-23 274.30000000000007-97.89999999999998 352.1-223.5 1.6000000000000227-2.7000000000000455 2.1000000000000227-7.399999999999977 0.5-9.899999999999977z m-217.10000000000002-346.5l-105.79999999999995 127.19999999999999c-37.200000000000045-7.5-75.89999999999998-11.800000000000011-116.5-12.5-15.700000000000045 0.8999999999999773-34.200000000000045 1.599999999999966-52.60000000000002 3.099999999999966-9.800000000000011 0.7000000000000455-19.399999999999977 2.2000000000000455-28.899999999999977 3.6000000000000227-156 25.30000000000001-274.3 98.80000000000001-351.70000000000005 224.5-1.59999999999998 2.5-1.59999999999998 7.2000000000000455-0.19999999999997442 9.799999999999955 27.89999999999999 46.30000000000007 62.39999999999999 87.90000000000009 107.10000000000001 121.80000000000007 32.39999999999998 24.5 66.19999999999999 44.39999999999998 101.19999999999999 60.69999999999993l-42.19999999999999 50.700000000000045 50.89999999999998 42.299999999999955 489.7-588.9-51-42.29999999999998z m-279.2 252.89999999999998c21 0.19999999999998863 38.60000000000002 15.600000000000023 40.400000000000034 34.19999999999999l-32.200000000000045 38.69999999999999c-2.5 0.5-5.099999999999966 0.7000000000000455-7.7999999999999545 0.7000000000000455-23.200000000000045 0.19999999999998863-41.10000000000002-15.700000000000045-41.10000000000002-36.400000000000034-0.10000000000002274-20.19999999999999 18.69999999999999-37.30000000000001 40.69999999999999-37.19999999999999z m-228.79999999999998 130.79999999999995c-8.5-8.099999999999909-15.900000000000006-17.399999999999977-24.200000000000017-25.699999999999932-4.899999999999977-5.100000000000023-4.699999999999989-8.700000000000045-0.19999999999998863-14.100000000000023 44.099999999999994-51.89999999999998 100.39999999999998-88.80000000000001 168.10000000000002-111.80000000000001 19.19999999999999-6.5 39.099999999999966-11.199999999999989 59.299999999999955-15.699999999999989-53.39999999999998 32.19999999999999-84.09999999999997 76.19999999999999-83.89999999999998 134.79999999999995 0 32.30000000000007 9.699999999999989 60.10000000000002 27.19999999999999 83.90000000000009l-22.5 27c-46.19999999999999-18.200000000000045-87.69999999999999-43.90000000000009-123.79999999999998-78.40000000000009z"/>
</svg>
