<svg xmlns="http://www.w3.org/2000/svg" viewBox="0 0 1000 1000" width="1000" height="1000">
<path d="M697.3 70.6c-6.899999999999977-6.8999999999999915-16.899999999999977-9.599999999999994-26.299999999999955-7.199999999999996l-148 37.6c-4.7999999999999545 1.2000000000000028-9.200000000000045 3.700000000000003-12.699999999999989 7.200000000000003l-439.70000000000005 439.59999999999997c-10.699999999999967 10.800000000000068-10.699999999999967 28.200000000000045 2.842170943040401e-14 39l332.4 332.4000000000001c5.699999999999989 5.699999999999932 13.699999999999989 13.899999999999977 19.19999999999999 16.199999999999932 3.3000000000000114 1.3999999999999773 6.900000000000034 2.1000000000000227 10.5 2.1000000000000227 7.300000000000011 0 14.300000000000011-2.8999999999999773 19.5-8.100000000000023l439.7-439.7c3.5-3.5 6-7.899999999999977 7.2000000000000455-12.699999999999989l37.5-148c2.3999999999999773-9.399999999999977-0.3000000000000682-19.399999999999977-7.2000000000000455-26.30000000000001l-232.10000000000002-232.1z m-409.69999999999993 537.9c-7 0-14.100000000000023-2.7000000000000455-19.5-8.100000000000023-10.800000000000011-10.699999999999932-10.800000000000011-28.199999999999932 0-38.89999999999998l194.79999999999995-194.8c10.800000000000011-10.800000000000011 28.200000000000045-10.800000000000011 39 0 10.800000000000068 10.699999999999989 10.800000000000068 28.19999999999999 0 38.900000000000034l-194.79999999999995 194.79999999999995c-5.400000000000034 5.399999999999977-12.400000000000034 8.100000000000023-19.5 8.100000000000023z m65.79999999999995 65.70000000000005c-7 0-14.099999999999966-2.7000000000000455-19.5-8.100000000000023-10.799999999999955-10.700000000000045-10.799999999999955-28.200000000000045 0-38.89999999999998l194.80000000000007-194.80000000000007c10.699999999999932-10.699999999999989 28.199999999999932-10.699999999999989 39 0 10.699999999999932 10.800000000000011 10.699999999999932 28.200000000000045 0 39l-194.90000000000003 194.70000000000005c-5.300000000000011 5.399999999999977-12.400000000000034 8.100000000000023-19.400000000000034 8.100000000000023z m280-137.20000000000005l-194.89999999999998 194.89999999999998c-5.399999999999977 5.399999999999977-12.399999999999977 8.100000000000023-19.5 8.100000000000023-7 0-14.100000000000023-2.7000000000000455-19.5-8.100000000000023-10.800000000000011-10.799999999999955-10.800000000000011-28.199999999999932 0-39l194.79999999999995-194.79999999999995c10.700000000000045-10.700000000000045 28.200000000000045-10.700000000000045 39 0s10.800000000000068 28.199999999999932 0.10000000000002274 38.89999999999998z m120.5-162.7c-17.100000000000023 17.099999999999966-39.89999999999998 26.599999999999966-64.10000000000002 26.599999999999966-24.299999999999955 0-47-9.399999999999977-64.19999999999993-26.599999999999966-35.30000000000007-35.400000000000034-35.30000000000007-92.90000000000003 0-128.3 17.199999999999932-17.099999999999994 39.89999999999998-26.5 64.19999999999993-26.5 24.200000000000045 0 47 9.400000000000006 64.10000000000002 26.5 35.39999999999998 35.39999999999998 35.39999999999998 93 0 128.3z"/>
</svg>
