<svg xmlns="http://www.w3.org/2000/svg" viewBox="0 0 1000 1000" width="1000" height="1000">
<path d="M732.4 232.4c0-27.200000000000017-10.899999999999977-53.5-30.100000000000023-72.70000000000002l-67.09999999999991-67.1c-19.300000000000068-19.299999999999997-45.5-30.099999999999994-72.80000000000007-30.099999999999994h-241c-29.599999999999966 0-53.599999999999966 24.099999999999994-53.599999999999966 53.599999999999994v172.20000000000002h464.59999999999997v-55.900000000000006z m-614.1 564.8000000000001h92.10000000000005v-186.30000000000007h579.6v186.20000000000005h92c29.600000000000023 0 53.60000000000002-24.100000000000023 53.60000000000002-53.60000000000002v-339.2c0-29.600000000000023-24.100000000000023-53.60000000000002-53.60000000000002-53.60000000000002h-763.7c-29.59999999999995 0-53.59999999999995 24.100000000000023-53.59999999999995 53.60000000000002v339.2c0 29.700000000000045 23.89999999999999 53.700000000000045 53.599999999999994 53.700000000000045z m84.80000000000004-373.20000000000005c31.099999999999994 0 56.29999999999998 25.19999999999999 56.29999999999998 56.30000000000001 0 31.099999999999966-25.19999999999999 56.30000000000001-56.29999999999998 56.30000000000001s-56.29999999999998-25.200000000000045-56.29999999999998-56.30000000000001 25.099999999999994-56.30000000000001 56.29999999999998-56.30000000000001z m533.1999999999999 486.79999999999995v-246.29999999999995h-472.49999999999994v246.20000000000005c0 14.699999999999932 12.099999999999966 26.799999999999955 26.80000000000001 26.799999999999955h418.79999999999995c14.800000000000068 0.10000000000002274 26.899999999999977-12 26.899999999999977-26.700000000000045z m-352.4-136.5999999999999h232.30000000000007c13.5 0 24.699999999999932 9.899999999999977 26.5 22.799999999999955 0.1999999999999318 1.2000000000000455 0.2999999999999545 2.6000000000000227 0.2999999999999545 3.8999999999999773 0 14.899999999999977-12 26.800000000000068-26.799999999999955 26.800000000000068h-232.30000000000007c-14.899999999999977 0-26.799999999999955-12-26.799999999999955-26.800000000000068 0-1.2999999999999545 0.0999999999999659-2.6000000000000227 0.2999999999999545-3.8999999999999773 1.8000000000000114-12.799999999999955 13-22.799999999999955 26.5-22.799999999999955z"/>
</svg>
