<svg xmlns="http://www.w3.org/2000/svg" viewBox="0 0 1000 1000" width="1000" height="1000">
<path d="M872.7 62.9h-745.4000000000001c-35.99999999999996 0-64.79999999999995 29.199999999999996-64.79999999999995 64.80000000000001v744.4c0 35.60000000000002 28.799999999999997 64.79999999999995 64.8 64.79999999999995h745.4000000000001c36 0 64.79999999999995-29.199999999999932 64.79999999999995-64.79999999999995v-744.4c0-35.60000000000005-28.799999999999955-64.80000000000004-64.79999999999995-64.80000000000004z m-66.10000000000002 495h-82.60000000000002c-8.100000000000023 0-14.899999999999977-6.7999999999999545-14.899999999999977-14.899999999999977v-126.60000000000002c0-8.399999999999977-4.5-10.399999999999977-10.399999999999977-4.5l-209.90000000000003 209.89999999999998c-5.800000000000011 5.800000000000068-15.199999999999989 5.800000000000068-21.100000000000023 0l-84.59999999999997-84.89999999999998c-5.800000000000011-5.7999999999999545-5.800000000000011-15.199999999999932 0-21.100000000000023l209.29999999999995-209.29999999999995c5.800000000000068-5.800000000000011 3.8999999999999773-10.699999999999989-4.199999999999932-10.699999999999989h-126.00000000000006c-8.099999999999966 0-14.899999999999977-6.5-14.899999999999977-14.600000000000023v-82.6c0-8.099999999999994 6.800000000000011-14.900000000000006 14.899999999999977-14.900000000000006h343.09999999999997c8.900000000000091 0 16.200000000000045 7.300000000000011 16.200000000000045 16.200000000000017v343.1c0 8.100000000000023-6.7999999999999545 14.899999999999977-14.899999999999977 14.899999999999977z"/>
</svg>
