<svg xmlns="http://www.w3.org/2000/svg" viewBox="0 0 1000 1000" width="1000" height="1000">
<path d="M933.9 196.8s-101.29999999999995 31.899999999999977-188.29999999999995 21.5c-644.6-76.60000000000002-607.7 423.40000000000003-600.9000000000001 428.40000000000003 5.684341886080802e-14 0 57.40000000000006-37.90000000000009 114.00000000000006-47.5 359.00000000000006-61 523.8-256.1 523.8-256.1s-193 237.39999999999998-509.7 286.4c-70 10.700000000000045-150.20000000000002 83.5-210.3 166.29999999999995 0 0 44 3.6000000000000227 61.7 7.5 26.200000000000003-36.89999999999998 58.2-68.69999999999993 96.99999999999999-92 306.50000000000006 202.60000000000002 545.2-6.5 605.2-91.09999999999991 141.5999999999999-199.80000000000007 107.49999999999989-423.40000000000003 107.49999999999989-423.40000000000003z"/>
</svg>
