<svg xmlns="http://www.w3.org/2000/svg" viewBox="0 0 1000 1000" width="1000" height="1000">
<path d="M681.3 645.6l27.5 86.39999999999998c1.1000000000000227 3.7000000000000455-0.8999999999999773 7.600000000000023-4.5 8.799999999999955l-19.5 6.400000000000091c-3.699999999999932 1.1999999999999318-7.599999999999909-0.900000000000091-8.699999999999932-4.5l-30.899999999999977-96.70000000000005c-1.1000000000000227-3.7000000000000455-1.900000000000091-6.7000000000000455-1.6000000000000227-6.7999999999999545 0.2999999999999545-0.10000000000002274-0.10000000000002274-0.20000000000004547-0.8999999999999773-0.20000000000004547-0.7000000000000455 0-2.300000000000068 3-3.5 6.600000000000023l-29 91.39999999999998c-1.1000000000000227 3.7000000000000455-5.100000000000023 5.7000000000000455-8.700000000000045 4.5l-19.5-6.399999999999977c-3.7000000000000455-1.2000000000000455-5.7000000000000455-5.2000000000000455-4.5-8.800000000000068l25.600000000000023-80.79999999999995c1.1000000000000227-3.7000000000000455-1-6.600000000000023-4.800000000000068-6.600000000000023h-306.99999999999994c-3.8000000000000114 0-7.800000000000011 3.1000000000000227-8.699999999999989 6.800000000000068l-75.60000000000002 284.29999999999995c-1 3.7999999999999545 1.3000000000000114 6.7999999999999545 5.199999999999989 6.7999999999999545l575.3 0.6000000000000227c3.7999999999999545 0 6.100000000000023-3.1000000000000227 5.2000000000000455-6.7999999999999545l-75.80000000000007-285c-1-3.800000000000068-4.899999999999977-6.800000000000068-8.699999999999932-6.800000000000068h-21.90000000000009c-4 0.10000000000002274-6.199999999999932 3.1000000000000227-5 6.800000000000068z m-49.09999999999991-583h-264.20000000000005c-3.8000000000000114-2.1316282072803006e-14-9.399999999999977 1.8999999999999773-12.399999999999977 4.299999999999983l-205.3 159.79999999999998c-3.1000000000000227 2.4000000000000057-5.900000000000006 7.400000000000006-6.600000000000023 11.200000000000017l-53.599999999999994 354.6c-0.5999999999999943 3.7999999999999545 2.1000000000000085 6.899999999999977 5.900000000000006 6.899999999999977h130.8c3.799999999999983 0 6.899999999999977-3.1000000000000227 6.899999999999977-7v-258.79999999999995c0-3.8000000000000114 0.6000000000000227-7.600000000000023 1.3000000000000114-8.200000000000045s1.9000000000000057 1.8000000000000114 2.5 5.7000000000000455l45.5 250.79999999999995c0.6999999999999886 3.800000000000068 4.399999999999977 6.899999999999977 8.199999999999989 6.899999999999977h417.59999999999997c3.800000000000068 0 7.5-3.099999999999909 8.200000000000045-6.899999999999977l45.299999999999955-250.2c0.7000000000000455-3.8000000000000114 1.7000000000000455-6.5 2.300000000000068-5.899999999999977 0.6000000000000227 0.5 1 4.099999999999966 1 8v258.90000000000003c0 3.7999999999999545 3.1000000000000227 7 6.899999999999977 7h130.79999999999995c3.800000000000068 0 6.5-3.1000000000000227 5.900000000000091-6.900000000000091l-53.5-354.59999999999997c-0.6000000000000227-3.799999999999983-3.5-8.799999999999983-6.600000000000023-11.299999999999983l-204.39999999999998-160.10000000000002c-3.1000000000000227-2.299999999999983-8.700000000000045-4.1999999999999815-12.5-4.1999999999999815z m-136.40000000000003 236.29999999999995l-118.80000000000001-174.39999999999998c-2.1999999999999886-3.200000000000003-0.8000000000000114-5.799999999999997 3-5.799999999999997h239.20000000000005c3.7999999999999545 0 5.199999999999932 2.5999999999999943 3 5.799999999999997l-118.60000000000002 174.39999999999998c-2.2000000000000455 3.2000000000000455-5.7000000000000455 3.2000000000000455-7.800000000000011 0z"/>
</svg>
