<svg xmlns="http://www.w3.org/2000/svg" viewBox="0 0 1000 1000" width="1000" height="1000">
<path d="M256 643.2c-2.5999999999999943 20-3.8000000000000114 40.09999999999991-5.300000000000011 60.299999999999955-0.39999999999997726 4.7000000000000455 1.4000000000000057 5.2999999999999545 3.700000000000017 1.2000000000000455 7.799999999999983-13.5 14.200000000000017-27.200000000000045 22.49999999999997-39.60000000000002 33-49.30000000000007 81.60000000000002-77.70000000000005 136.10000000000002-97.30000000000007 59.19999999999999-21.399999999999977 120.79999999999995-29.899999999999977 183.20000000000005-32.89999999999998 23.299999999999955-1.1000000000000227 46.69999999999993-0.39999999999997726 71.19999999999993-0.1999999999999318 4.800000000000068 0 8.600000000000023 3.8999999999999773 8.600000000000023 8.599999999999909v128.70000000000005c0 4.7999999999999545 2.7999999999999545 5.899999999999977 6.100000000000023 2.6000000000000227 83.5-82.20000000000005 167.10000000000002-164.5 249.29999999999995-245.40000000000003 3.3999999999999773-3.3000000000000114 3.3999999999999773-8.800000000000011 0-12.099999999999966l-250.60000000000002-250.60000000000002c-3.3999999999999773-3.4000000000000057-6.099999999999909-2.1999999999999886-6.099999999999909 2.5v127.39999999999998c0 4.800000000000011-3.900000000000091 8.600000000000023-8.600000000000023 8.800000000000011-45.30000000000007 1.1000000000000227-89.20000000000005 7.199999999999989-132.10000000000002 19.30000000000001-83.60000000000002 23.69999999999999-155.39999999999998 65.60000000000002-208 136.5-40.19999999999999 54.10000000000002-61.5 115.79999999999995-70 182.20000000000005z m619.5 82.69999999999993v37.39999999999998c0 4.800000000000068-3.8999999999999773 8.600000000000023-8.600000000000023 8.600000000000023h-732.2c-4.799999999999926 0-8.599999999999937-3.8999999999999773-8.599999999999937-8.600000000000023v-477.69999999999993c0-4.800000000000011 3.9000000000000057-8.600000000000023 8.599999999999994-8.600000000000023h9.600000000000023c74.69999999999999 0 149.3 0.10000000000002274 224-0.10000000000002274 5.599999999999966 0 12.300000000000011 0.20000000000004547 16.599999999999966-2.599999999999966 27.900000000000034-17.900000000000034 55.30000000000001-36.5 82.5-54.70000000000002 4-2.5999999999999943 3.3000000000000114-4.799999999999983-1.5-4.799999999999983h-394.79999999999995c-4.800000000000026 0-8.600000000000023 3.8999999999999773-8.600000000000023 8.599999999999994v603.6c0 4.7999999999999545 3.9000000000000057 8.600000000000023 8.599999999999994 8.600000000000023h857.8c4.800000000000068 0 8.600000000000023-3.8999999999999773 8.600000000000023-8.600000000000023v-248.39999999999998c0-4.800000000000068-2.7000000000000455-5.899999999999977-6.100000000000023-2.5-17.299999999999955 17.399999999999977-33.19999999999993 33-48.299999999999955 49.299999999999955-4.300000000000068 4.600000000000023-7.100000000000023 12.300000000000068-7.300000000000068 18.600000000000023-0.7999999999999545 27.299999999999955-0.2999999999999545 54.60000000000002-0.2999999999999545 81.89999999999998z"/>
</svg>
