<svg xmlns="http://www.w3.org/2000/svg" viewBox="0 0 1000 1000" width="1000" height="1000">
<path d="M500.3 255.4c15.800000000000011-28.5 35.49999999999994-52.099999999999994 59.80000000000001-71.9 90.10000000000002-73.4 229.5-66.2 310.69999999999993 16.900000000000006 64.5 65.99999999999997 80.40000000000009 144.4 55.40000000000009 231.9-19.300000000000068 67.69999999999999-56 126.09999999999997-100.60000000000002 179.7-72.20000000000005 86.70000000000005-160 155.10000000000002-254.80000000000007 215.10000000000002-21 13.299999999999955-42.5 25.899999999999977-63.99999999999994 38.299999999999955-3.1999999999999886 1.8000000000000682-9 2.300000000000068-12 0.6000000000000227-109-62.10000000000002-210.90000000000003-133.79999999999995-296.3-226.70000000000005-51.19999999999999-55.69999999999993-93.6-117.19999999999993-118.9-189.19999999999993-20.999999999999993-59.700000000000045-24.999999999999993-119.80000000000001 1.3000000000000114-178.70000000000005 34.19999999999999-76.59999999999997 93.9-123.49999999999997 176.70000000000002-135.09999999999997 104.19999999999999-14.500000000000014 185 25 240 115.5 0.5999999999999659 0.8999999999999773 1.1999999999999886 1.5999999999999943 2.6999999999999886 3.5999999999999943z"/>
</svg>
