<svg xmlns="http://www.w3.org/2000/svg" viewBox="0 0 1000 1000" width="1000" height="1000">
<path d="M891.1 376.7c-52.700000000000045-165.5-208.30000000000007-286.7-390-286.7-184 0-339.6 120.4-392 286.7h-46.60000000000002v246.59999999999997h46.599999999999994c52.400000000000006 166 208.00000000000003 286.6 391.5 286.6 182.5 0 337.6-120.60000000000002 390.29999999999995-286.6h46.60000000000002v-246.59999999999997h-46.39999999999998z m-53.10000000000002 0h-113.79999999999995c-4.600000000000023-26-10.400000000000091-51.5-18.200000000000045-76.69999999999999 23.5-10 46.799999999999955-19.69999999999999 71.10000000000002-29.899999999999977 26.899999999999977 32.799999999999955 47 68.29999999999995 60.89999999999998 106.59999999999997z m-97.79999999999995-144.6c-17.700000000000045 7-34.200000000000045 13.599999999999994-49.80000000000007 19.700000000000017-16-27.900000000000006-31.600000000000023-54.900000000000006-47.299999999999955-82 34.89999999999998 14.899999999999977 67 35.099999999999994 97.10000000000002 62.29999999999998z m-214.60000000000002-89.1c59.5 22.30000000000001 88.39999999999998 70.6 115.29999999999995 125.5-39.60000000000002 5.600000000000023-76.89999999999998 10.899999999999977-115.29999999999995 16.30000000000001v-141.8z m0 190.8c15.299999999999955-1.6999999999999886 31.299999999999955-2.400000000000034 46.799999999999955-4.900000000000034 25.700000000000045-3.8999999999999773 51.5-8.699999999999989 76.89999999999998-13.599999999999966 5.100000000000023-1 8.300000000000068-1.6999999999999886 10 4.599999999999966 5.600000000000023 18.700000000000045 10 37.60000000000002 13.800000000000068 56.80000000000001h-147.5v-42.89999999999998z m-168.70000000000005-164.10000000000002c-15.5 27.200000000000017-31.099999999999966 54.10000000000002-47.099999999999966 82-15.5-6.099999999999994-31.80000000000001-12.399999999999977-50-19.399999999999977 29.899999999999977-27.200000000000017 62.19999999999999-47.60000000000002 97.09999999999997-62.60000000000002z m-133.99999999999997 100.5c24 10.199999999999989 47.29999999999998 19.69999999999999 71.4 29.600000000000023-8 25.19999999999999-13.800000000000011 51-18.19999999999999 76.89999999999998h-114.10000000000002c13.800000000000011-38.30000000000001 34-73.80000000000001 60.900000000000006-106.5z m-74.20000000000002 150c4.600000000000023-1 9-1.1999999999999886 13.100000000000023-1.1999999999999886 4.399999999999977 0 9 0.19999999999998863 13.799999999999983 1.1999999999999886l61.599999999999994 101.69999999999999v-101.69999999999999c5.300000000000011-1 10.400000000000006-1.1999999999999886 15.300000000000011-1.1999999999999886 4.600000000000023 0 9 0.19999999999998863 13.300000000000011 1.1999999999999886v159.7c-4.900000000000034 1-9 1.2000000000000455-12.900000000000006 1.2000000000000455-4.099999999999994 0-8.700000000000017-0.20000000000004547-13.599999999999994-1.2000000000000455l-62.10000000000002-101.5v101.5c-4.899999999999977 1-9.699999999999989 1.2000000000000455-14.599999999999994 1.2000000000000455s-9.5-0.20000000000004547-14.099999999999994-1.2000000000000455l0.19999999999998863-159.7z m13.300000000000011 203.09999999999997h114.10000000000002c4.399999999999977 26 10.199999999999989 51.700000000000045 18.19999999999999 76.70000000000005-24 10.200000000000045-47.30000000000001 19.899999999999977-71.4 29.899999999999977-26.900000000000006-32.799999999999955-47.099999999999994-68.19999999999993-60.900000000000006-106.60000000000002z m97.60000000000002 144.70000000000005c18.399999999999977-7.2999999999999545 34.69999999999999-13.600000000000023 50.19999999999999-19.700000000000045 16 27.90000000000009 31.599999999999966 54.90000000000009 46.80000000000001 81.80000000000007-34.60000000000002-14.300000000000068-66.40000000000003-35.200000000000045-97-62.10000000000002z m215 87.39999999999998c-43-8-90.80000000000001-64.29999999999995-112.90000000000003-121.10000000000002 21.400000000000034-8.5 94.40000000000003-18.699999999999932 112.90000000000003-15.5v136.60000000000002z m0-189.10000000000002c-21.100000000000023 2.2000000000000455-42 3.900000000000091-62.60000000000002 6.800000000000068-20.600000000000023 3.199999999999932-41.30000000000001 7.5-61.89999999999998 11.899999999999977-5.100000000000023 1-7.800000000000011 0.7000000000000455-9.5-5.100000000000023-5.600000000000023-18.699999999999932-10-37.60000000000002-13.600000000000023-56.60000000000002h147.60000000000002v43z m-54.60000000000002-183.99999999999994c1 4.899999999999977 1.1999999999999886 9.5 1.1999999999999886 13.800000000000011 0 4.899999999999977-0.19999999999998863 9.5-1.1999999999999886 14.099999999999966h-46.10000000000002v42.00000000000006h59.700000000000045c0.6999999999999886 4.599999999999909 1.1999999999999886 9 1.1999999999999886 13.599999999999909 0 4.900000000000091-0.5 9.700000000000045-1.1999999999999886 14.100000000000023h-92.20000000000005v-159.7h90.5c1 4.400000000000034 1.5 9 1.5 13.600000000000023 0 4.899999999999977-0.5 9.5-1.5 14.099999999999966h-58v34.5h46.10000000000002v-0.0999999999999659z m54.60000000000002-105.60000000000002h-145.40000000000003l10.900000000000034-55.099999999999966c1.5-6.600000000000023 4.099999999999966-8 10.699999999999989-6.300000000000011 39.30000000000001 10 79.09999999999997 15.300000000000011 119.69999999999999 17.5 1.1999999999999886 0 2.3999999999999773 0.5 4.100000000000023 0.6999999999999886v43.19999999999999z m0-94.39999999999998c-38.60000000000002-0.5-76-6.600000000000023-113.40000000000003-15.5 19.69999999999999-57 75.19999999999999-117 113.40000000000003-121.80000000000001v137.3z m17 137.89999999999998c5.2999999999999545-1 11.399999999999977-1.1999999999999886 18.19999999999999-1.1999999999999886 2.6999999999999886 0 5.599999999999966 0 8.300000000000011 0.19999999999998863 2.699999999999932 0 5.2999999999999545 0.5 8 1l22.799999999999955 120.09999999999997 27.700000000000045-120.09999999999997c2.8999999999999773-0.5 5.600000000000023-0.6999999999999886 8.299999999999955-1 2.3999999999999773-0.19999999999998863 5.100000000000023-0.19999999999998863 7.800000000000068-0.19999999999998863 4.399999999999977 0 9.199999999999932 0.19999999999998863 14.299999999999955 1.1999999999999886l28.600000000000023 123.30000000000001 23.100000000000023-123.30000000000001c4.399999999999977-1 9.199999999999932-1.1999999999999886 14.099999999999909-1.1999999999999886 2.900000000000091 0 5.800000000000068 0 8.700000000000045 0.19999999999998863 2.7000000000000455 0.5 5.600000000000023 0.6999999999999886 8.299999999999955 1l-38.59999999999991 159.7c-5.300000000000068 1-10.900000000000091 1.2000000000000455-16.5 1.2000000000000455-5.800000000000068 0-11.900000000000091-0.20000000000004547-18.40000000000009-1.2000000000000455l-25.5-106.29999999999995-27.799999999999955 106.29999999999995c-3.6000000000000227 0.20000000000004547-6.7999999999999545 0.5-9.5 1-2.7000000000000455 0.20000000000004547-5.600000000000023 0.20000000000004547-9 0.20000000000004547-4.600000000000023 0-9.5-0.20000000000004547-14.799999999999955-1.2000000000000455l-38.10000000000002-159.7z m180.10000000000002 203.09999999999997c-4.100000000000023 18.40000000000009-8.300000000000068 37.10000000000002-12.100000000000023 55.60000000000002-1.2000000000000455 5.300000000000068-2.8999999999999773 7.300000000000068-8.700000000000045 6.300000000000068-41.5-7.300000000000068-82.79999999999995-14.300000000000068-125.5-21.600000000000023v-40.30000000000007h146.30000000000007z m-146.30000000000007 232.10000000000002v-140c38.30000000000007 5.300000000000068 75.70000000000005 10.700000000000045 113.60000000000002 15.800000000000068-18.5 53.799999999999955-70.39999999999998 117.09999999999991-113.60000000000002 124.19999999999993z m117.70000000000005-24.799999999999955c15.5-27.200000000000045 30.799999999999955-53.89999999999998 47.299999999999955-82.30000000000007 15.5 6.100000000000023 31.800000000000068 12.400000000000091 49.80000000000007 19.40000000000009-29.90000000000009 27.199999999999932-62.200000000000045 47.39999999999998-97.10000000000002 62.89999999999998z m134-100.70000000000005c-23.5-10-46.80000000000007-19.699999999999932-71.10000000000002-29.600000000000023 7.7999999999999545-25.199999999999932 13.600000000000023-51 18-76.89999999999998h114c-13.799999999999955 38-34 73.70000000000005-60.89999999999998 106.5z m70.39999999999998-177.69999999999993c-2.8999999999999773 6.2999999999999545-6.7999999999999545 11.599999999999909-11.899999999999977 16-5.300000000000068 4.599999999999909-11.700000000000045 8-19.200000000000045 10.399999999999977-7.7999999999999545 2.699999999999932-16.5 3.8999999999999773-26.5 3.8999999999999773-4.899999999999977 0-9.199999999999932-0.20000000000004547-13.100000000000023-0.5-3.8999999999999773-0.20000000000004547-7.5-0.7000000000000455-10.899999999999977-1.5-3.3999999999999773-0.7000000000000455-7-1.5-10.399999999999977-2.3999999999999773-3.3999999999999773-1.2000000000000455-6.7999999999999545-2.3999999999999773-10.700000000000045-3.8999999999999773 0.5-4.400000000000091 1.5-8.700000000000045 2.400000000000091-13.300000000000068 1.1999999999999318-4.899999999999977 2.699999999999932-9.5 4.399999999999977-14.100000000000023 6.100000000000023 2.400000000000091 12.100000000000023 4.400000000000091 17.5 5.600000000000023 5.600000000000023 1.2000000000000455 11.399999999999977 1.8999999999999773 17.5 1.8999999999999773 9.5 0 16.699999999999932-1.6999999999999318 22.100000000000023-5.2999999999999545 5.2999999999999545-3.3999999999999773 8-8.700000000000045 8-15.799999999999955 0-3.6000000000000227-0.7000000000000455-6.600000000000023-1.900000000000091-9-1.1999999999999318-2.400000000000091-2.8999999999999773-4.400000000000091-4.899999999999977-5.800000000000068-1.8999999999999773-1.6999999999999318-4.399999999999977-3.199999999999932-6.7999999999999545-4.100000000000023-2.3999999999999773-1.1999999999999318-5.100000000000023-2.199999999999932-7.800000000000068-3.3999999999999773l-13.599999999999909-5.099999999999966c-4.900000000000091-1.900000000000034-9.5-3.900000000000034-13.600000000000023-6.300000000000011-3.8999999999999773-2.1999999999999886-7.300000000000068-5.100000000000023-10.200000000000045-8.300000000000011-2.699999999999932-3.1999999999999886-4.899999999999977-6.800000000000011-6.600000000000023-11.399999999999977-1.5-4.400000000000034-2.199999999999932-9.699999999999989-2.199999999999932-16 0-7.5 1.1999999999999318-14.100000000000023 3.8999999999999773-19.900000000000034 2.3999999999999773-5.7999999999999545 6.2999999999999545-10.699999999999989 10.899999999999977-14.599999999999966 4.899999999999977-3.900000000000034 10.399999999999977-6.800000000000011 17.200000000000045-9 6.600000000000023-1.900000000000034 14.100000000000023-2.900000000000034 22.299999999999955-2.900000000000034 7.5 0 14.600000000000023 0.7000000000000455 21.100000000000023 1.900000000000034 6.600000000000023 1.5 13.600000000000023 3.3999999999999773 20.899999999999977 5.800000000000011-1 8.699999999999989-3.3999999999999773 17-7 25.19999999999999-2.3999999999999773-0.6999999999999886-4.600000000000023-1.6999999999999886-6.7999999999999545-2.6999999999999886-2.3999999999999773-0.7000000000000455-4.899999999999977-1.5-7.5-2.2000000000000455-2.3999999999999773-0.5-5.300000000000068-1-8.700000000000045-1.5-3.199999999999932-0.19999999999998863-6.7999999999999545-0.5-10.899999999999977-0.5-2.7000000000000455 0-5.100000000000023 0.20000000000004547-7.7999999999999545 0.7000000000000455-2.7000000000000455 0.5-4.900000000000091 1.1999999999999886-7 2.3999999999999773-1.900000000000091 1.1999999999999886-3.6000000000000227 2.8999999999999773-5.100000000000023 5.100000000000023-1.2000000000000455 2.3999999999999773-1.8999999999999773 5.2999999999999545-1.8999999999999773 9 0 3.1999999999999886 0.5 5.599999999999966 1.5 7.5 1.1999999999999318 1.8999999999999773 2.3999999999999773 3.599999999999966 4.399999999999977 5.099999999999966 1.6999999999999318 1.5 3.6000000000000227 2.6999999999999886 5.7999999999999545 3.6000000000000227 2.3999999999999773 1 4.600000000000023 1.8999999999999773 6.800000000000068 2.6999999999999886l13.399999999999977 5.100000000000023c5.600000000000023 2.1999999999999886 10.699999999999932 4.599999999999966 15.299999999999955 7 4.600000000000023 2.1999999999999886 8.5 5.099999999999966 11.700000000000045 8.699999999999989 3.199999999999932 3.3999999999999773 5.600000000000023 7.5 7.5 12.599999999999966 1.6999999999999318 4.899999999999977 2.699999999999932 11.200000000000045 2.699999999999932 18.200000000000045-0.1999999999999318 8-1.6999999999999318 15-4.2999999999999545 21.100000000000023z"/>
</svg>
