<svg xmlns="http://www.w3.org/2000/svg" viewBox="0 0 1000 1000" width="1000" height="1000">
<path d="M346.2 62.5h-256.79999999999995v195.7h256.79999999999995v-195.7z m565.7 238.2v-11.800000000000011h-257.9000000000001v12.600000000000023c0 76.80000000000001 0.20000000000004547 153.7-0.20000000000004547 230.60000000000002-0.09999999999990905 12.100000000000023-1 24.399999999999977-3.699999999999932 36.19999999999993-14.800000000000068 67.5-77.60000000000002 117.10000000000002-149.90000000000003 117.70000000000005-72.30000000000001-0.6000000000000227-135-50.10000000000002-149.89999999999998-117.70000000000005-2.6000000000000227-11.799999999999955-3.6000000000000227-24.09999999999991-3.6999999999999886-36.19999999999993-0.30000000000001137-76.80000000000001-0.20000000000004547-153.70000000000005-0.20000000000004547-230.60000000000002v-12.600000000000023h-257.7v11.800000000000011c1.4210854715202004e-14 80.60000000000002-0.9999999999999858 161.2 0.30000000000001137 241.8 1.2999999999999972 95.79999999999995 34.599999999999994 180.60000000000002 98.19999999999999 253.5 60.900000000000006 69.70000000000005 137.5 115 229.8 132.79999999999995 28.19999999999999 5.400000000000091 55.80000000000001 8.400000000000091 82.89999999999998 8.800000000000068h1.1000000000000227c27-0.39999999999997726 54.700000000000045-3.300000000000068 82.89999999999998-8.800000000000068 92.20000000000005-17.899999999999977 169-63.09999999999991 229.89999999999998-132.89999999999998 63.60000000000002-72.89999999999998 96.90000000000009-157.69999999999993 98.20000000000005-253.5 0.8999999999999773-80.59999999999997-0.10000000000002274-161.09999999999997-0.10000000000002274-241.7z m-0.7000000000000455-238.2h-256.80000000000007v195.7h256.80000000000007v-195.7z"/>
</svg>
