<svg xmlns="http://www.w3.org/2000/svg" viewBox="0 0 1000 1000" width="1000" height="1000">
<path d="M500 937.5c241.29999999999995 0 437.5-196.29999999999995 437.5-437.5 0-183-113-340-272.79999999999995-405.2-12.900000000000091-5.300000000000011-26.200000000000045-9.900000000000006-39.700000000000045-14.000000000000014-39.60000000000002-11.799999999999997-81.5-18.299999999999997-125-18.299999999999997-241.2 0-437.5 196.3-437.5 437.5s196.3 437.5 437.5 437.5z m198.70000000000005-780l3.5-0.6999999999999886 1.099999999999909-0.10000000000002274c73.60000000000002 43.80000000000001 132.10000000000002 110.60000000000002 165.30000000000007 190.40000000000003-3.6000000000000227-2.900000000000034-7.800000000000068-4.600000000000023-12.700000000000045-4.900000000000034-1.7999999999999545-0.0999999999999659-3.6000000000000227-0.39999999999997726-5.399999999999977-0.6999999999999886-5.2000000000000455-0.8999999999999773-9-3.6999999999999886-10.799999999999955-8.699999999999989-0.8000000000000682-2.3000000000000114-1.2000000000000455-4.699999999999989-1.900000000000091-7-0.1999999999999318-0.8000000000000114-0.6999999999999318-1.5-1.099999999999909-2.400000000000034-0.6000000000000227 0.4000000000000341-1.1000000000000227 0.5-1.400000000000091 0.8000000000000114-0.7999999999999545 0.9000000000000341-1.599999999999909 1.8000000000000114-2.2999999999999545 2.8000000000000114-0.8999999999999773 1.1999999999999886-1.7000000000000455 2.5-2.7000000000000455 3.6999999999999886-3.199999999999932 3.8000000000000114-5.699999999999932 3.5-8.099999999999909-0.6999999999999886-0.5-0.8999999999999773-0.900000000000091-1.8999999999999773-1.3000000000000682-2.8999999999999773l-1.5-4.300000000000011c-0.6999999999999318-2-1.3999999999999773-4-2.2999999999999545-5.900000000000034-1.7000000000000455-3.6999999999999886-3.3999999999999773-3.8999999999999773-5.899999999999977-0.7999999999999545l-1.400000000000091 1.7999999999999545c-0.7999999999999545 0.9000000000000341-1.599999999999909 1.8000000000000114-2.599999999999909 2.6000000000000227-3.300000000000068 2.6000000000000227-6.600000000000023 2.6000000000000227-10 0.10000000000002274l-1.7000000000000455-1.5c-1.5-1.400000000000034-2.2999999999999545-3.1000000000000227-2.2000000000000455-5.2000000000000455 0.10000000000002274-2.6999999999999886 0-5.5-0.1999999999999318-8.199999999999989-0.20000000000004547-1.599999999999966-0.7000000000000455-3.1999999999999886-1.3999999999999773-4.699999999999989-0.5-1.1999999999999886-2-1.6000000000000227-3.1000000000000227-0.8000000000000114s-2.1000000000000227 1.6999999999999886-3.300000000000068 2.6999999999999886c-1.3999999999999773-0.5999999999999659-2.7999999999999545-1.099999999999966-4.099999999999909-1.6999999999999886-5.900000000000091-2.6999999999999886-11.800000000000068-5.5-17.800000000000068-8.099999999999966-2.1000000000000227-0.9000000000000341-3.8999999999999773-1.900000000000034-5.699999999999932-4.2000000000000455-3.2000000000000455 10.700000000000045-3.5 21.200000000000045-5 31.700000000000045-1.1000000000000227 0.39999999999997726-2.300000000000068 0.7999999999999545-3.400000000000091 1.099999999999966-5 1.3000000000000114-10 2.400000000000034-14.899999999999977 3.8000000000000114-8.100000000000023 2.3999999999999773-15.299999999999955 0.6999999999999886-21.799999999999955-4.399999999999977-4.7000000000000455-3.7000000000000455-8.399999999999977-8.300000000000011-11.399999999999977-13.5-3.7000000000000455-6.600000000000023-7.400000000000091-13.200000000000045-11.100000000000023-19.900000000000034-0.39999999999997726-0.8000000000000114-0.8000000000000682-1.599999999999966-1.2000000000000455-2.5 1.7000000000000455-1.8000000000000114 3.8999999999999773-2.599999999999966 5.800000000000068-3.6999999999999886 8.899999999999977-5.100000000000023 18.199999999999932-8.100000000000023 28.59999999999991-7.100000000000023 1.3000000000000682 0.10000000000002274 2.400000000000091-0.0999999999999659 3.400000000000091-0.8999999999999773 0.6999999999999318-0.5 1.5-1 2.2999999999999545-1.5 3.7999999999999545-2.3999999999999773 8.100000000000023-4.399999999999977 11.399999999999977-7.399999999999977 3.3999999999999773-3.1000000000000227 6-7.2000000000000455 8.800000000000068-11.000000000000028 1.099999999999909-1.5 2.599999999999909-2.9000000000000057 3.2999999999999545-4.900000000000006-1.2999999999999545-3.0999999999999943-2.5-6.199999999999989-4-9.199999999999989-1.2000000000000455-2.4000000000000057-1.3999999999999773-4.900000000000006-1-7.5 0.5-3.0999999999999943 1-6.300000000000011 1.3999999999999773-9.5 0.10000000000002274-1.1999999999999886 0.7000000000000455-2.4000000000000057-0.5-3.5999999999999943-4.899999999999977-0.700000000000017-10-1.5999999999999943-15.100000000000023-2-2.3999999999999773-0.20000000000001705-3.8999999999999773-1.200000000000017-5-3.200000000000017-1.5-2.799999999999983-3.3999999999999773-5.399999999999977-4.7999999999999545-8.199999999999989-1.1000000000000227-2-2.6000000000000227-2.8000000000000114-4.7000000000000455-3.0999999999999943-2.8999999999999773-0.30000000000001137-5.699999999999932-0.8000000000000114-8.599999999999909-1-2.300000000000068-0.09999999999999432-4-1.0999999999999943-5.5-2.8000000000000114-2.300000000000068-2.5-3.7000000000000455-5.599999999999994-4.7000000000000455-8.699999999999989-1.5-4.5-2-9.200000000000017-2.2999999999999545-13.900000000000006-0.20000000000004547-6.199999999999989 0.09999999999990905-12.199999999999989 1-18.5z m-19.100000000000023 44.69999999999999c-0.8999999999999773-3-0.8000000000000682-4.199999999999989 1.1000000000000227-5.599999999999994 2.3999999999999773-1.799999999999983 5.5-2.1999999999999886 7.599999999999909-0.799999999999983 1.2000000000000455 0.8999999999999773 2.300000000000068 2 3.2000000000000455 3.0999999999999943 2.3999999999999773 3.1999999999999886 5.100000000000023 5.799999999999983 8.899999999999977 7.5 4.2000000000000455 1.9000000000000057 7.399999999999977 5.199999999999989 10.300000000000068 8.799999999999983 5.399999999999977 6.700000000000017 9 14.300000000000011 11.199999999999932 22.600000000000023 0.20000000000004547 0.5999999999999943 0.10000000000002274 1.1999999999999886 0.20000000000004547 2.0999999999999943-3.2000000000000455 3.1999999999999886-6.7000000000000455 5.599999999999994-10.399999999999977 7.599999999999994-1.3000000000000682 0.6999999999999886-2.800000000000068 1.3000000000000114-4.2000000000000455 1.6999999999999886-8.700000000000045 2.200000000000017-13.899999999999977-2.5999999999999943-15.399999999999977-9.299999999999983-1.2000000000000455-5.300000000000011-2.1000000000000227-10.700000000000017-3.1000000000000227-16.30000000000001-0.8999999999999773 0.20000000000001705-1.7999999999999545 0.30000000000001137-2.5 0.700000000000017-3.1000000000000227 1.5-6.2000000000000455 3-9.5 4.5-2.6000000000000227-3.4000000000000057-4.399999999999977-7-6.2000000000000455-10.800000000000011 3.400000000000091-3 7.100000000000023-5.400000000000006 10.400000000000091-8.199999999999989 0.39999999999997726-2.8000000000000114-0.900000000000091-5.200000000000017-1.6000000000000227-7.600000000000023z m-3.3999999999999773 165.8c2.599999999999909-0.6999999999999886 4.599999999999909-1.8999999999999773 6.2999999999999545-4 4.399999999999977-5.399999999999977 9-10.600000000000023 13.399999999999977-16.100000000000023 1.5-1.8999999999999773 3.2000000000000455-3 5.5-3.6999999999999886 6.899999999999977-2 13.600000000000023-4.099999999999966 20.399999999999977-6.199999999999989 6-1.8000000000000114 12.100000000000023-2.8000000000000114 18.300000000000068-3.1000000000000227 11.299999999999955-0.39999999999997726 22.399999999999977 0.9000000000000341 33 5 1.7999999999999545 0.7000000000000455 3.5 0.7000000000000455 5.2999999999999545 0.7000000000000455 6.399999999999977-0.10000000000002274 12.800000000000068-0.20000000000004547 19.100000000000023 0.8999999999999773 6.100000000000023 1 11.700000000000045 2.6000000000000227 16.600000000000023 6.699999999999989 8.699999999999932 7.100000000000023 17.699999999999932 13.699999999999989 26.600000000000023 20.600000000000023 4.899999999999977 3.8000000000000114 4.899999999999977 3.8000000000000114 11.099999999999909 3.6999999999999886 8.900000000000091-0.19999999999998863 17.800000000000068-0.19999999999998863 26.600000000000023 1.5 13.200000000000045 39.60000000000002 20.5 82 20.5 126 0 135.10000000000002-67.60000000000002 254.70000000000005-170.60000000000002 327 0.20000000000004547-1.2000000000000455 0.5-2.3999999999999773 0.8000000000000682-3.5 0.7999999999999545-2.3999999999999773 1.6000000000000227-4.899999999999977 2.6000000000000227-7.2999999999999545 3.099999999999909-7.100000000000023 6.399999999999977-14.100000000000023 9.599999999999909-21.100000000000023l10.600000000000023-23.100000000000023c2.2000000000000455-4.7000000000000455 2.5-9.600000000000023 1.3999999999999773-14.600000000000023-1.2999999999999545-5.899999999999977-2.3999999999999773-11.899999999999977-3.599999999999909-17.799999999999955-1.2000000000000455-5.899999999999977-1.3000000000000682-11.800000000000068 0.7999999999999545-17.5 3.7999999999999545-10.800000000000068 9-20.800000000000068 17.399999999999977-29 2.6000000000000227-2.5 5-5.300000000000068 7.399999999999977-8.100000000000023 3.1000000000000227-3.6000000000000227 5.400000000000091-7.7000000000000455 7.100000000000023-12.100000000000023 2.1000000000000227-5.699999999999932 2.8999999999999773-11.399999999999977 1.7000000000000455-17.399999999999977-0.8999999999999773-4.7000000000000455-2.6000000000000227-9-4.100000000000023-13.5-1.2999999999999545-3.7000000000000455-2.7000000000000455-7.399999999999977-3.7999999999999545-11.200000000000045-1.8000000000000682-6.099999999999909-2-12.299999999999955-0.40000000000009095-18.399999999999977 1.1000000000000227-4 2.5-7.7999999999999545 3.800000000000068-11.699999999999932l4.5-11.900000000000091c1.7999999999999545-5.199999999999932 2.8999999999999773-10.599999999999909 2.3999999999999773-16.09999999999991-0.39999999999997726-3.800000000000068-1-7.5-1.8999999999999773-11.200000000000045-0.8999999999999773-3.8999999999999773-2.6000000000000227-4.600000000000023-6.300000000000068-3.2000000000000455-1.3999999999999773 0.5-2.7999999999999545 1.2000000000000455-4.099999999999909 1.8000000000000682-4.300000000000068 1.8999999999999773-7.100000000000023 1.1000000000000227-9.200000000000045-2.1000000000000227-1.6000000000000227-2.2999999999999545-4-3.7000000000000455-6.7000000000000455-4.399999999999977-2.2999999999999545-0.6000000000000227-4.699999999999932-1.3999999999999773-7.099999999999909-1.5-8-0.6000000000000227-16.100000000000023-0.3000000000000682-24.100000000000023 0.1999999999999318-5.899999999999977 0.40000000000009095-11.800000000000068 0.5-17.700000000000045 0.6000000000000227-1.7999999999999545 0-3.6000000000000227-0.39999999999997726-5.399999999999977-0.6999999999999318-4.7999999999999545-0.900000000000091-9.299999999999955-2.6000000000000227-13.700000000000045-4.7000000000000455-8-3.7999999999999545-15.199999999999932-8.799999999999955-22.09999999999991-14.299999999999955-11.200000000000045-8.800000000000068-21.300000000000068-19-31.5-28.900000000000034-1.400000000000091-1.3000000000000114-2.2000000000000455-2.900000000000034-2.7000000000000455-4.699999999999989-0.6000000000000227-2.2000000000000455-1.1000000000000227-4.400000000000034-1.2000000000000455-6.7000000000000455-0.8999999999999773-10.399999999999977 0.40000000000009095-20.599999999999966 2.300000000000068-30.799999999999955 2-10.900000000000034 4.7999999999999545-21.600000000000023 7.899999999999977-32.200000000000045 1.7999999999999545-6 2.7000000000000455-12.099999999999966 2.7000000000000455-18.399999999999977 0-2.6000000000000227-0.20000000000004547-5.199999999999989-1.6000000000000227-7.5-1.2000000000000455-2-1.2000000000000455-4.100000000000023-0.20000000000004547-6.100000000000023 1.5-3.2999999999999545 2.8999999999999773-6.699999999999989 4.800000000000068-9.799999999999955 6.5-10.300000000000011 15.799999999999955-17 27.5-20.100000000000023z m-80.20000000000005-210c-3 2.5999999999999943-4.2000000000000455 5.800000000000011-5.100000000000023 9.300000000000011-0.2999999999999545 1.1999999999999886-0.7999999999999545 2.299999999999983-1.2999999999999545 3.8999999999999773-6.2000000000000455-0.6999999999999886-11.899999999999977-1.799999999999983-17.600000000000023-3.299999999999983-2.7000000000000455-0.700000000000017-5-2-7.2999999999999545-3.5999999999999943-1-0.700000000000017-1.900000000000091-1.5-2.7000000000000455-2.4000000000000057-2.6000000000000227-3.200000000000017-1.7999999999999545-7.099999999999994 1.8999999999999773-8.599999999999994 7.5-2.9000000000000057 15-5.600000000000023 22.5-8.400000000000006 1.1000000000000227-0.4000000000000057 2-0.4000000000000057 3 0.09999999999999432 2.5 1.1999999999999886 4.800000000000068 2.5999999999999943 6.600000000000023 4.699999999999989 2.7000000000000455 2.8000000000000114 2.8999999999999773 5.800000000000011 0 8.300000000000011z m-92.80000000000001-36.599999999999994c2.6999999999999886-6.700000000000003 5.199999999999989-13.5 7.900000000000034-20.30000000000001 28.100000000000023 0.8000000000000114 55.39999999999998 4.400000000000006 81.79999999999995 10.800000000000011-3.6000000000000227 5.799999999999997-7.199999999999932 11.599999999999994-10.899999999999977 17.099999999999994-5.5 1-10.5 2-15.600000000000023 2.8000000000000114-2.1000000000000227 0.29999999999998295-3.6000000000000227 1.0999999999999943-4.899999999999977 2.6999999999999886l-16.899999999999977 19.69999999999999c-4.899999999999977 5.800000000000011-9.600000000000023 11.700000000000017-14.399999999999977 17.600000000000023-0.7000000000000455 0.799999999999983-1.400000000000091 1.5-2.1000000000000227 2.1999999999999886-3.7000000000000455-1.4000000000000057-6.600000000000023-3.5-9.300000000000068-6-4.599999999999909-4.300000000000011-7.7999999999999545-9.599999999999994-10.299999999999955-15.400000000000006-3.3000000000000114-7.699999999999989-5.100000000000023-15.799999999999983-6-24.19999999999999-0.5-2.4000000000000057-0.19999999999998863-4.700000000000003 0.6999999999999886-7z m-315.79999999999995 246.6c0.1999999999999602-5.800000000000011 1.7999999999999545-11.199999999999989 1.8999999999999773-17-1.5-0.6000000000000227-2.9000000000000057-1.1999999999999886-4.300000000000011-1.8000000000000114-6.900000000000006-3-13.400000000000006-6.5-19.19999999999999-11.199999999999989-3.6000000000000227-2.8999999999999773-6.800000000000011-6.100000000000023-9.200000000000017-10-3.0999999999999943-5-4.699999999999989-10.5-3.799999999999983-16.5 0.5-3.5 1-7.100000000000023 1.3999999999999773-10.600000000000023 68.70000000000002-118.79999999999998 196.7-199.2 343.40000000000003-200.09999999999997l3.599999999999966 7.799999999999983c0.4000000000000341 0.8000000000000114 0.5 1.7000000000000028 0.6999999999999886 2.6000000000000085-4.699999999999989 3.5999999999999943-9.399999999999977 7-13.799999999999955 10.700000000000003-4.400000000000034 3.6999999999999886-8.300000000000011 7.900000000000006-13 11.5-2.2000000000000455-4.200000000000017-5.600000000000023-7-9.200000000000045-9.600000000000009-5.899999999999977-4.299999999999997-3.8999999999999773-3.5999999999999943-11.199999999999989-3.299999999999997-5 0.20000000000000284-9.899999999999977 0.5-14.699999999999989 2.5999999999999943-2.5 1.1000000000000085-5.300000000000011 1.1000000000000085-8.100000000000023 0.9000000000000057-2.099999999999966-0.09999999999999432-3.7999999999999545-0.9000000000000057-5.099999999999966-2.5999999999999943-0.4000000000000341-0.5-0.6999999999999886-1-1-1.5-1.1999999999999886-1.5-2.6999999999999886-1.9000000000000057-4.5-1.3000000000000114-1.400000000000034 0.5-2.900000000000034 1.1000000000000085-4.100000000000023 1.9000000000000057-2.099999999999966 1.4000000000000057-4.199999999999989 3-6.099999999999966 4.700000000000003-2.400000000000034 2.200000000000003-4.900000000000034 4.1000000000000085-7.600000000000023 5.799999999999997l-12.199999999999989 7.900000000000006c-1.5 1-2.5 2.0999999999999943-2.6999999999999886 3.9000000000000057-0.4000000000000341 2.799999999999983-1.2000000000000455 5.699999999999989-1.5 8.5-0.4000000000000341 3.799999999999983-0.5 7.599999999999994 0.7999999999999545 11.299999999999983 1.7000000000000455 5 5.900000000000034 7.099999999999994 10.800000000000011 5.300000000000011 5.900000000000034-2.0999999999999943 11.400000000000034-5 16.30000000000001-9 3.1999999999999886-2.5999999999999943 5.899999999999977-5.599999999999994 7.399999999999977-9.599999999999994 0.30000000000001137-0.700000000000017 0.6000000000000227-1.4000000000000057 1-2 0.9000000000000341-1.4000000000000057 2-1.700000000000017 3.5-1.1000000000000227 1.2000000000000455 0.5 2.400000000000034 1.200000000000017 3.7000000000000455 1.8000000000000114 3.099999999999966 1.5 6.199999999999989 1.4000000000000057 9.099999999999966-0.30000000000001137 1.6000000000000227-0.8999999999999773 3.1000000000000227-1.8999999999999773 4.5-3.0999999999999943 1.3000000000000114-1 2.5-2.299999999999983 3.6000000000000227-3.5 1.8999999999999773-2 4.199999999999989-3.5 6.699999999999989-4.599999999999994 4.800000000000011-1.9000000000000057 8.300000000000011-1 11 3.3000000000000114 2.1000000000000227 3.299999999999983 4.800000000000011 5.799999999999983 8 7.899999999999977 1.3999999999999773 0.9000000000000057 2.6999999999999886 1.9000000000000057 3.8999999999999773 3.1000000000000227 1.900000000000034 1.799999999999983 2.5 4.099999999999994 1.900000000000034 6.699999999999989-0.6999999999999886 2.9000000000000057-2.1000000000000227 5.300000000000011-3.6000000000000227 7.800000000000011-1.3000000000000114 2.0999999999999943-2.599999999999966 4.099999999999994-3.8000000000000114 6.199999999999989-0.5999999999999659 1.0999999999999943-0.8999999999999773 2.3000000000000114-1.099999999999966 3.4000000000000057-0.19999999999998863 1.1999999999999886 0.8999999999999773 2.5 2.1999999999999886 2.299999999999983 1.6000000000000227-0.29999999999998295 3.1999999999999886-0.799999999999983 4.800000000000011-1.299999999999983 0.8999999999999773-0.30000000000001137 1.8999999999999773-0.5 3.3000000000000114-0.9000000000000057-0.5 9.5-2 18.19999999999999-6.5 26.19999999999999-0.8000000000000114 1.4000000000000057-1.8000000000000114 2.8000000000000114-3 4-3.400000000000034 3.3000000000000114-7.400000000000034 4.600000000000023-12.100000000000023 3.5-3.3000000000000114-0.799999999999983-6.300000000000011-2-8.899999999999977-4.399999999999977-5-4.600000000000023-9.700000000000045-4.100000000000023-14.300000000000011 0.8999999999999773-1.400000000000034 1.5-2.6999999999999886 3.3000000000000114-3.6000000000000227 5.200000000000017-1 2-2.5 2.9000000000000057-4.5 3.4000000000000057-8.899999999999977 2.3999999999999773-17.899999999999977 3.3999999999999773-27 2.1999999999999886-1.5-0.19999999999998863-3-0.09999999999999432-4.5 0.30000000000001137-5.800000000000011 1.6999999999999886-11.599999999999966 3.299999999999983-17.5 5-2.3000000000000114 0.6999999999999886-4.5 1.5999999999999943-6.599999999999966 2.8999999999999773-3.900000000000034 2.4000000000000057-8 4.400000000000006-12.400000000000034 5.700000000000017-4.399999999999977 1.4000000000000057-8.899999999999977 2.0999999999999943-13.099999999999966-0.9000000000000057-13.900000000000034 11.599999999999994-29.30000000000001 20.099999999999994-46.5 25.599999999999994-1 6.500000000000028-2 12.700000000000017-3 19.00000000000003l-3.6000000000000227 22.899999999999977c-0.30000000000001137 1.8999999999999773-1.1000000000000227 2.6999999999999886-2.8999999999999773 3-2.1000000000000227 0.30000000000001137-4 0-5.400000000000034-1.6999999999999886-1.3999999999999773-1.6000000000000227-2.599999999999966-3.400000000000034-3.599999999999966-5.199999999999989-2.400000000000034-4.800000000000011-3.900000000000034-9.900000000000034-4.5-15.200000000000045-0.8000000000000114-7.399999999999977-4.7000000000000455-12.399999999999977-11.100000000000023-15.599999999999966-8.399999999999977-4.199999999999989-17.30000000000001-5.600000000000023-26.5-4-15.099999999999994 2.599999999999966-28 9.699999999999989-38.400000000000006 21-8.799999999999983 9.5-8.699999999999989 9.5-11.199999999999989 22.69999999999999-0.9000000000000057 4.600000000000023-1 9.399999999999977 0.5 14 1.5 4.699999999999989 4.599999999999994 7.699999999999989 9.5 8.699999999999989 2.5999999999999943 0.5 5.099999999999994 0.8000000000000114 7.699999999999989 0.19999999999998863l8.400000000000006-1.7999999999999545c0.9000000000000057-0.20000000000004547 1.9000000000000057-0.30000000000001137 2.5999999999999943 0 2.0999999999999943 0.7999999999999545 4 2.099999999999966 5.400000000000006 4 1.8000000000000114 2.2999999999999545 2.3000000000000114 4.899999999999977 1 7.699999999999989-0.9000000000000057 2.099999999999966-2.3000000000000114 4-4 5.399999999999977-2.1999999999999886 1.900000000000034-4.5 3.6000000000000227-6.800000000000011 5.300000000000011-1 0.6999999999999886-2.0999999999999943 1.3000000000000114-2.8999999999999773 2.1000000000000227-3.8000000000000114 3.5-3.700000000000017 7.599999999999966 0.09999999999999432 11 0.9000000000000057 0.7999999999999545 1.9000000000000057 1.3999999999999773 3 2.099999999999966 0.9000000000000057 0.5 1.799999999999983 1 2.799999999999983 1.6000000000000227-0.29999999999998295 2.6999999999999886-0.39999999999997726 5.300000000000011-0.6999999999999886 7.899999999999977-0.8000000000000114 6.600000000000023-0.9000000000000057 13.300000000000011-0.5 20 0.30000000000001137 6.400000000000034 3.0999999999999943 11.800000000000011 8.300000000000011 15.5 3.3999999999999773 2.5 7.099999999999994 4.699999999999989 10.799999999999983 6.699999999999989 2.0999999999999943 1.2000000000000455 4.5 1.900000000000034 6.800000000000011 2.5 6.900000000000006 1.8000000000000114 13 0.20000000000004547 17.900000000000006-4.7999999999999545 2.099999999999966-2.1000000000000227 3.8000000000000114-4.7000000000000455 5.399999999999977-7.300000000000011 3-4.699999999999989 7.300000000000011-6.699999999999989 12.800000000000011-5.600000000000023 2.8999999999999773 0.6000000000000227 5.5 2 7.5 4 2.5 2.5 5.600000000000023 4.100000000000023 8.699999999999989 5.600000000000023 4.199999999999989 2 8.400000000000034 4.199999999999989 12.699999999999989 6.199999999999989 1.5 0.6999999999999886 3.1000000000000227 1.1999999999999886 4.7000000000000455 1.6000000000000227 12 3 22.19999999999999 8.799999999999955 29.799999999999955 18.69999999999999 1.6000000000000227 2.099999999999966 3.400000000000034 3.1999999999999886 5.7000000000000455 4.099999999999966 11.299999999999955 3.900000000000034 21.599999999999966 9.600000000000023 30.799999999999955 17.200000000000045 11.600000000000023 9.5 20.400000000000034 21.19999999999999 24.900000000000034 35.69999999999999 1.099999999999966 3.3999999999999773 2.599999999999966 6.300000000000011 5.099999999999966 8.800000000000011 2.5 2.5 4.5 5.399999999999977 6.300000000000011 8.299999999999955 2.400000000000034 4 4.600000000000023 8.200000000000045 6.900000000000034 12.300000000000068 0.5999999999999659 1 1.1999999999999886 2.099999999999909 1.6999999999999886 2.8999999999999773 2.1999999999999886 0.5 4.099999999999966 0.7999999999999545 6 1.1999999999999318 12.800000000000011 2.900000000000091 25 7.5 35.89999999999998 14.900000000000091 5.699999999999989 3.7999999999999545 10.800000000000011 8.299999999999955 15.199999999999989 13.599999999999909 1.2000000000000455 1.5 1.900000000000034 3 1.900000000000034 4.900000000000091 0.30000000000001137 17.299999999999955-6 31.299999999999955-20.5 41.299999999999955-1.8000000000000114 1.2999999999999545-3 2.7999999999999545-3.6999999999999886 4.899999999999977-3.7000000000000455 10.100000000000023-7.5 20.200000000000045-11.400000000000034 30.200000000000045-0.6999999999999886 1.7999999999999545-1.599999999999966 3.6000000000000227-2.6999999999999886 5.199999999999932l-15.399999999999977 21.5c-1.6000000000000227 2.300000000000068-3.6000000000000227 4.100000000000023-6 5.400000000000091-1.900000000000034 1-3.7000000000000455 2-5.7000000000000455 2.8999999999999773-7 3.2999999999999545-14.399999999999977 5.699999999999932-21.899999999999977 7.2999999999999545-2 0.39999999999997726-3.6000000000000227 1.2000000000000455-4.899999999999977 2.8999999999999773-5 6.7000000000000455-10.200000000000045 13.200000000000045-15.300000000000011 19.800000000000068-0.5 0.6999999999999318-1.1999999999999886 1.5-1.6000000000000227 2.199999999999932-4.899999999999977 9.100000000000023-10.899999999999977 17.5-16.5 26.100000000000023-1.3000000000000114 1.8999999999999773-2.8999999999999773 3.5-4.800000000000011 4.7000000000000455-8.199999999999989 5.5-16.399999999999977 10.899999999999977-24.599999999999966 16.5-2.400000000000034 1.6000000000000227-4.600000000000023 3.3999999999999773-6.699999999999989 5.399999999999977-4.100000000000023 3.7999999999999545-8.100000000000023 7.7999999999999545-12 11.799999999999955-1.1000000000000227 1.1000000000000227-2 2.300000000000068-2.7000000000000455 3.6000000000000227l-11.299999999999955 24.800000000000068c-0.8000000000000114 1.6999999999999318-1 3.3999999999999773-0.6000000000000227 5.2999999999999545 2.6000000000000227 13.700000000000045 5.199999999999989 27.399999999999977 7.699999999999989 41.10000000000002 0.30000000000001137 1.6000000000000227 0.6000000000000227 3.199999999999932 0.6000000000000227 4.7999999999999545-1.5 0.10000000000002274-2.3000000000000114 0.10000000000002274-3.1000000000000227 0-7-4.100000000000023-13.899999999999977-8.299999999999955-20.599999999999966-12.799999999999955-9.900000000000034-9.200000000000045-17.700000000000045-20.200000000000045-24.50000000000003-31.800000000000068-0.6999999999999886-1.099999999999909-1-2.5-1.1999999999999886-3.8999999999999773-1.5999999999999943-10.799999999999955-3.0999999999999943-21.600000000000023-4.599999999999994-32.39999999999998-0.20000000000001705-1.3999999999999773-0.700000000000017-2.6000000000000227-1.4000000000000057-3.7999999999999545-1.8000000000000114-2.7000000000000455-2.5999999999999943-5.800000000000068-3.200000000000017-8.900000000000091-1.3999999999999773-7.399999999999977-0.5999999999999943-14.799999999999955 0.5-22.199999999999932l3.9000000000000057-26.100000000000023c0.20000000000001705-1.2000000000000455 0.09999999999999432-2.3999999999999773-0.6999999999999886-3.3999999999999773-2.0999999999999943-2.8999999999999773-2.8000000000000114-6.300000000000068-3-9.899999999999977-0.4000000000000057-6.7000000000000455 0.799999999999983-13.300000000000068 2.5-19.700000000000045 0.5999999999999943-2.2999999999999545 1.0999999999999943-4.7000000000000455 1.5-7.100000000000023l3.299999999999983-23.399999999999977c0.4000000000000057-3.2999999999999545 0.8000000000000114-6.600000000000023 1.1000000000000227-9.700000000000045-0.700000000000017-0.6999999999999318-1.1000000000000227-1.099999999999909-1.6000000000000227-1.3999999999999773-4.299999999999983-3.699999999999932-6.899999999999977-8.399999999999977-8-13.899999999999977-0.799999999999983-3.8999999999999773-0.799999999999983-7.899999999999977 0-11.700000000000045 0.5-3 1.200000000000017-5.899999999999977 1.9000000000000057-8.799999999999955l-4.299999999999983-2.8999999999999773c-6.600000000000023-4.7000000000000455-12.700000000000017-9.800000000000068-17.900000000000006-16.100000000000023-5.300000000000011-6.399999999999977-10.5-12.899999999999977-15.599999999999994-19.5-2-2.6000000000000227-3.8000000000000114-5.5-5.300000000000011-8.399999999999977-2.5-4.800000000000068-3.5999999999999943-10-2.4000000000000057-15.399999999999977 0.30000000000001137-1.2000000000000455 0.09999999999999432-2.400000000000091-0.4000000000000057-3.5-3.0999999999999943-8.700000000000045-3.5-17.800000000000068-2.799999999999983-26.900000000000034 0.5-6.300000000000011 2.1999999999999886-12.199999999999989 5.699999999999989-17.5 2.200000000000017-3.3000000000000114 4.300000000000011-6.600000000000023 6.599999999999994-9.900000000000034 4-5.699999999999989 8.100000000000023-11.399999999999977 12.200000000000017-17 4-5.5 6.299999999999983-11.699999999999989 7.5-18.399999999999977 0.5-3 0.799999999999983-6 0.5999999999999943-9-0.4000000000000057-4.699999999999989-2.0999999999999943-8.800000000000011-6.099999999999994-11.699999999999989-4.5-3.1999999999999886-8.700000000000017-6.5-13.200000000000017-9.600000000000023-2.299999999999983-1.599999999999966-3.3999999999999773-3.599999999999966-4-6.199999999999989-1.5-6.199999999999989-3.1999999999999886-12.399999999999977-4.599999999999994-18.600000000000023-0.5-2.1999999999999886-1.4000000000000057-3.8999999999999773-3.0999999999999943-5.2999999999999545-2.6999999999999886-2.2000000000000455-5.300000000000011-4.600000000000023-7.900000000000006-6.900000000000034l-2.6999999999999886-2.6999999999999886z m116.19999999999999-13.100000000000023c0.7999999999999545-0.5 1.599999999999966-0.8999999999999773 2.3999999999999773-1.2999999999999545l9.100000000000023-4.2000000000000455 7-3.1999999999999886c0.6999999999999886-0.30000000000001137 1.3999999999999773-0.5 2.2999999999999545-0.8999999999999773 2.400000000000034 1.5 4.900000000000034 2.8999999999999773 7.2000000000000455 4.599999999999966 2.3999999999999773 1.7000000000000455 5.2999999999999545 2.2000000000000455 8.299999999999955 3.5-0.6999999999999886 3.7000000000000455-1.099999999999966 7.100000000000023-3.2999999999999545 10.100000000000023-1.3000000000000114-0.5-2.3000000000000114-0.8000000000000114-3.2000000000000455-1.1999999999999886-5.099999999999966-2.5-10.599999999999966-3.400000000000034-16.299999999999955-3.400000000000034l-5.900000000000034 0.20000000000004547c-2.3000000000000114 0-4.599999999999966 0-6.800000000000011-0.20000000000004547-1.1999999999999886-0.0999999999999659-2.6999999999999886 0.20000000000004547-2.8999999999999773-1.3999999999999773-0.39999999999997726-1.5 1-2 2.1000000000000227-2.6000000000000227z m-10.600000000000023-21.099999999999966c-9-1.1999999999999886-17.899999999999977-2.8000000000000114-26.899999999999977-4.300000000000011-2.7000000000000455-0.39999999999997726-5.400000000000034-0.8999999999999773-7.400000000000034-3 2-6.5 6.300000000000011-9.899999999999977 12.699999999999989-10.600000000000023 4.5-0.39999999999997726 8.5 0.5 11.800000000000011 3.5 5.199999999999989 4.800000000000011 11.300000000000011 6.7000000000000455 18.19999999999999 6.800000000000011 3.6000000000000227 0 7.2000000000000455 0.9000000000000341 10.700000000000045 1.6000000000000227 1.1999999999999886 0.30000000000001137 2.5 1.099999999999966 3.3999999999999773 2 0.6999999999999886 0.6999999999999886 0.8999999999999773 1.599999999999966 0.6000000000000227 2.5-0.20000000000004547 0.6999999999999886-0.8000000000000114 1.3999999999999773-1.6000000000000227 1.599999999999966-2.3999999999999773 0.6000000000000227-4.800000000000011 1.1000000000000227-7.199999999999989 1-1.400000000000034 0-2.8000000000000114-0.0999999999999659-4.300000000000011-0.19999999999998863-3.1999999999999886-0.0999999999999659-6.600000000000023-0.39999999999997726-10-0.8999999999999773z"/>
</svg>
