<svg xmlns="http://www.w3.org/2000/svg" viewBox="0 0 1000 1000" width="1000" height="1000">
<path d="M872.9 62.7h-745.4c-35.599999999999994 0-64.8 28.799999999999997-64.8 64.8v745c0 36 29.200000000000003 64.79999999999995 64.8 64.79999999999995h745.4c35.60000000000002 0 64.80000000000007-28.799999999999955 64.80000000000007-64.79999999999995v-745c0-36-29.200000000000045-64.8-64.80000000000007-64.8z m-373.4 161.39999999999998c19.799999999999955 2.842170943040401e-14 39.5 1.3000000000000398 59.299999999999955 4.2000000000000455l-7.7999999999999545 369.40000000000003c-17.5 3.199999999999932-34.39999999999998 4.5-50.60000000000002 4.5-17.19999999999999 0-34.39999999999998-1.3000000000000682-51.5-4.5l-7.5-369.40000000000003c19.900000000000034-3 39-4.200000000000017 58.10000000000002-4.200000000000017z m56.10000000000002 547.6000000000001c-19.100000000000023 2.8999999999999773-37.60000000000002 4.5-55.10000000000002 4.5-18.5 0-37.30000000000001-1.6000000000000227-55.69999999999999-4.5-3.1999999999999886-18.800000000000068-4.5-37.30000000000007-4.5-55.40000000000009s1.3000000000000114-36.59999999999991 4.5-55.69999999999993c18.5-2.8999999999999773 36.599999999999966-4.5 54.80000000000001-4.5 18.5 0 36.89999999999998 1.6000000000000227 56.10000000000002 4.5 3.199999999999932 19.100000000000023 4.5 37.299999999999955 4.5 55.10000000000002-0.10000000000002274 18.799999999999955-1.400000000000091 37.19999999999993-4.600000000000023 56z"/>
</svg>
