<svg xmlns="http://www.w3.org/2000/svg" viewBox="0 0 1000 1000" width="1000" height="1000">
<path d="M198.3 335.7h-113.50000000000001c-12.299999999999997 0-22.299999999999997 10-22.299999999999997 22.30000000000001v526.4c0 12.300000000000068 10 22.300000000000068 22.299999999999997 22.300000000000068h113.50000000000001c12.299999999999983 0 22.299999999999983-10 22.299999999999983-22.300000000000068v-526.4c0-12.300000000000011-10-22.30000000000001-22.299999999999983-22.30000000000001z m-2.9000000000000057 528.2h-107.80000000000001v-25.40000000000009h107.80000000000001v25.399999999999977z m16.5-566.9000000000001h-141.2c-4.500000000000014 0-8.200000000000017-3.6999999999999886-8.200000000000017-8.199999999999989v-29.100000000000023c0-4.5 3.700000000000003-8.199999999999989 8.200000000000003-8.199999999999989h141.2c4.500000000000028 0 8.200000000000017 3.6999999999999886 8.200000000000017 8.199999999999989v29.100000000000023c0 4.5-3.6999999999999886 8.199999999999989-8.199999999999989 8.199999999999989z m-10.5-84.30000000000001h-120.2c-10.299999999999997 0-18.700000000000003-8.399999999999977-18.700000000000003-18.69999999999999v-73.9c0-10.299999999999997 8.400000000000006-18.69999999999999 18.700000000000003-18.69999999999999h120.2c10.299999999999983 0 18.69999999999999 8.399999999999991 18.69999999999999 18.69999999999999v73.9c0 10.400000000000006-8.400000000000006 18.69999999999999-18.69999999999999 18.69999999999999z m446.5 123h-113.60000000000002c-12.299999999999955 0-22.299999999999955 10-22.299999999999955 22.30000000000001v526.4c0 12.300000000000068 10 22.300000000000068 22.299999999999955 22.300000000000068h113.5c12.300000000000068 0 22.300000000000068-10 22.300000000000068-22.300000000000068v-526.4c0-12.300000000000011-9.899999999999977-22.30000000000001-22.200000000000045-22.30000000000001z m-56.799999999999955 530c-19.5 0-35.30000000000007-15.800000000000068-35.30000000000007-35.30000000000007s15.800000000000068-35.299999999999955 35.30000000000007-35.299999999999955c19.5 0 35.299999999999955 15.799999999999955 35.299999999999955 35.299999999999955s-15.799999999999955 35.30000000000007-35.299999999999955 35.30000000000007z m70.29999999999995-568.7h-141.10000000000002c-4.5 0-8.199999999999932-3.6999999999999886-8.199999999999932-8.199999999999989v-29.100000000000023c0-4.5 3.699999999999932-8.199999999999989 8.199999999999932-8.199999999999989h141.20000000000005c4.5 0 8.200000000000045 3.6999999999999886 8.200000000000045 8.199999999999989v29.100000000000023c-0.10000000000002274 4.5-3.7000000000000455 8.199999999999989-8.300000000000068 8.199999999999989z m-10.5-84.30000000000001h-120.19999999999993c-10.300000000000068 0-18.700000000000045-8.399999999999977-18.700000000000045-18.69999999999999v-73.9c0-10.299999999999997 8.399999999999977-18.69999999999999 18.700000000000045-18.69999999999999h120.19999999999993c10.300000000000068 0 18.700000000000045 8.399999999999991 18.700000000000045 18.69999999999999v73.9c0 10.400000000000006-8.300000000000068 18.69999999999999-18.700000000000045 18.69999999999999z m202.60000000000002 113.80000000000001l-112.79999999999995 12.800000000000011c-12.200000000000045 1.3999999999999773-21 12.399999999999977-19.600000000000023 24.599999999999966l59.19999999999993 523.1c1.400000000000091 12.200000000000045 12.400000000000091 21 24.600000000000023 19.600000000000023l112.80000000000007-12.800000000000068c12.199999999999932-1.3999999999999773 21-12.399999999999977 19.59999999999991-24.59999999999991l-59.19999999999993-523.1c-1.3000000000000682-12.200000000000045-12.399999999999977-21-24.600000000000023-19.600000000000023z m9.100000000000023-40.10000000000002l-140.30000000000007 15.900000000000034c-4.5 0.5-8.599999999999909-2.6999999999999886-9.099999999999909-7.199999999999989l-3.300000000000068-29c-0.5-4.5 2.7000000000000455-8.600000000000023 7.2000000000000455-9.100000000000023l140.29999999999995-15.900000000000006c4.5-0.5 8.600000000000023 2.700000000000017 9.100000000000023 7.200000000000017l3.2999999999999545 29c0.6000000000000227 4.5-2.699999999999932 8.599999999999966-7.199999999999932 9.099999999999966z m-19.800000000000068-82.49999999999997l-119.39999999999998 13.5c-10.299999999999955 1.1999999999999886-19.5-6.200000000000017-20.699999999999932-16.5l-8.300000000000068-73.4c-1.1999999999999318-10.299999999999997 6.2000000000000455-19.5 16.5-20.700000000000003l119.39999999999998-13.5c10.300000000000068-1.2000000000000028 19.5 6.200000000000003 20.700000000000045 16.5l8.299999999999955 73.39999999999999c1.1000000000000227 10.300000000000011-6.2999999999999545 19.5-16.5 20.700000000000017z m-407.4 263.1h-138.09999999999997c-15 0-27.100000000000023 10-27.100000000000023 22.30000000000001v395.2c0 12.299999999999955 12.100000000000023 22.299999999999955 27.100000000000023 22.299999999999955h138.09999999999997c15 0 27.100000000000023-10 27.100000000000023-22.299999999999955v-395.2c0-12.300000000000011-12.199999999999989-22.30000000000001-27.100000000000023-22.30000000000001z m-157-41.60000000000002h175.20000000000005c4.599999999999966 0 8.299999999999955-3.6999999999999886 8.299999999999955-8.299999999999955v-29c0-4.600000000000023-3.6999999999999886-8.300000000000011-8.299999999999955-8.300000000000011h-175.20000000000005c-4.599999999999966 0-8.299999999999955 3.6999999999999886-8.299999999999955 8.300000000000011v29c0.0999999999999659 4.599999999999966 3.7999999999999545 8.299999999999955 8.299999999999955 8.299999999999955z m10.600000000000023-84.19999999999999h154c10.399999999999977 0 18.80000000000001-8.399999999999977 18.80000000000001-18.80000000000001v-73.59999999999997c0-10.400000000000006-8.400000000000034-18.80000000000001-18.80000000000001-18.80000000000001h-154c-10.399999999999977 0-18.80000000000001 8.400000000000006-18.80000000000001 18.80000000000001v73.59999999999997c0 10.400000000000034 8.400000000000034 18.80000000000001 18.80000000000001 18.80000000000001z"/>
</svg>
