<svg xmlns="http://www.w3.org/2000/svg" viewBox="0 0 1000 1000" width="1000" height="1000">
<path d="M757.4 718.1c-9.799999999999955-0.3000000000000682-18.399999999999977 6.899999999999977-19 16.699999999999932-0.6999999999999318 7.5-0.39999999999997726 15.400000000000091-0.39999999999997726 22.90000000000009 0 0 0 0.39999999999997726 0.39999999999997726 0.39999999999997726h37.39999999999998v-0.7000000000000455c0-6.899999999999977 0.40000000000009095-13.699999999999932 0-20.299999999999955-0.2999999999999545-11.100000000000023-7.899999999999977-18.600000000000023-18.399999999999977-19z m91.60000000000002-48.5c-22.700000000000045-22.700000000000045-53.10000000000002-36.80000000000007-87-38.10000000000002h-4.899999999999977c-35.80000000000007 0-68.20000000000005 14.399999999999977-91.5 38.10000000000002-23.600000000000023 23.299999999999955-38.10000000000002 55.69999999999993-38.10000000000002 91.5 0 18.399999999999977 3.8999999999999773 35.799999999999955 10.899999999999977 51.5 6.2000000000000455 15.100000000000023 15.800000000000068 28.899999999999977 27.200000000000045 40.299999999999955 23.299999999999955 23.300000000000068 55.69999999999993 37.700000000000045 91.5 37.700000000000045 71.79999999999995 0 129.60000000000002-58.10000000000002 129.60000000000002-129.60000000000002 0-35.60000000000002-14.400000000000091-68.10000000000002-37.700000000000045-91.39999999999998z m-45.60000000000002 146.69999999999993c0 4.300000000000068-2.2999999999999545 6.2000000000000455-6.600000000000023 6.2000000000000455h-79.69999999999993c-4.300000000000068 0-6.2000000000000455-1.8999999999999773-6.2000000000000455-6.2000000000000455v-51.799999999999955c0-3.8999999999999773 1.8999999999999773-5.899999999999977 5.899999999999977-5.899999999999977h4.5v-22.899999999999977c0-17.700000000000045 13.5-32.80000000000007 30.800000000000068-35.10000000000002 19.100000000000023-2.300000000000068 36 10.199999999999932 39.69999999999993 28.899999999999977 0.6000000000000227 1.8999999999999773 0.6000000000000227 3.8999999999999773 0.6000000000000227 5.899999999999977v23.300000000000068h4.5c3.8999999999999773 0 6.2000000000000455 1.8999999999999773 6.2000000000000455 5.899999999999977l0.2999999999999545 51.69999999999993z m-329.4-383.09999999999997c199.10000000000002 0 360.4-58.80000000000001 360.4-131.39999999999998v-107.9c0-72.60000000000001-161.29999999999995-131.4-360.4-131.4s-360.4 58.8-360.4 131.4v107.79999999999998c-2.842170943040401e-14 72.69999999999999 161.29999999999995 131.5 360.4 131.5z m0.10000000000002274 250.7c44.19999999999993 0 86.39999999999998-3.1000000000000227 125.60000000000002-8.399999999999977 30-53.60000000000002 87.09999999999991-89.39999999999998 152.5999999999999-89.39999999999998 21.300000000000068 0 41.80000000000007 3.699999999999932 60.700000000000045 10.799999999999955 13.799999999999955-14.199999999999932 21.299999999999955-29 21.299999999999955-44.5 0 0 0.7000000000000455-174.89999999999998 0-177.89999999999998-13.699999999999932 67.80000000000001-170.0999999999999 121.39999999999998-360.09999999999997 121.39999999999998s-346.79999999999995-53.599999999999966-360.6-121.5c-0.6999999999999602 3.1000000000000227 2.842170943040401e-14 177.89999999999998 2.842170943040401e-14 177.89999999999998-0.09999999999999432 72.60000000000002 161.29999999999998 131.60000000000002 360.5 131.60000000000002z m102.60000000000002 78.10000000000002c0-6 0.39999999999997726-11.799999999999955 1.099999999999909-17.600000000000023-32.69999999999993 3.3999999999999773-67.59999999999997 5.399999999999977-103.69999999999993 5.399999999999977-190 0-346.8-53.59999999999991-360.6-121.89999999999998v178.20000000000005c0 72.60000000000002 161.3 131.29999999999995 360.6 131.29999999999995 71.60000000000002 0 138.39999999999998-7.7999999999999545 194.39999999999998-21.299999999999955-54.700000000000045-29.600000000000023-91.79999999999995-87.60000000000002-91.79999999999995-154.10000000000002z"/>
</svg>
