<svg xmlns="http://www.w3.org/2000/svg" viewBox="0 0 1000 1000" width="1000" height="1000">
<path d="M722.6 318.6h-14.100000000000023c-5.100000000000023-18.200000000000045-12.899999999999977-38.700000000000045-25.700000000000045-60.30000000000001-42.5-70.5-118.39999999999998-109.20000000000002-212.29999999999995-109.20000000000002-95.19999999999999 0-171.10000000000002 38.70000000000002-212.3 109.20000000000002-12.899999999999977 22.69999999999999-20.599999999999994 45.5-25.69999999999999 63.69999999999999-100.5 16-170 86.5-170 178.60000000000002 0 85.29999999999995 63.099999999999994 155.79999999999995 158.3 176.29999999999995 27 5.7000000000000455 55.30000000000001-9.100000000000023 61.80000000000001-34.10000000000002 6.399999999999977-23.899999999999977-10.300000000000011-48.89999999999998-38.60000000000002-54.59999999999991-47.599999999999994-10.200000000000045-78.5-44.40000000000009-78.5-87.60000000000002 0-54.60000000000002 45-91 111.89999999999998-91 28.30000000000001 0 50.200000000000045-19.30000000000001 51.5-44.400000000000034 0-12.5 7.7000000000000455-126.29999999999998 140.3-126.29999999999998 56.599999999999966 0 96.50000000000006 19.299999999999983 121.00000000000006 57.99999999999997 20.59999999999991 33 23.199999999999932 68.30000000000001 23.199999999999932 68.30000000000001 1.3000000000000682 23.900000000000034 24.5 43.19999999999999 51.5 43.19999999999999h57.89999999999998c66.90000000000009 0 111.90000000000009 36.400000000000034 111.90000000000009 91 0 44.39999999999998-34.700000000000045 91-111.90000000000009 91-28.299999999999955 0-51.5 20.5-51.5 45.5s23.200000000000045 45.5 51.5 45.5c122.20000000000005 0 214.9000000000001-78.5 214.9000000000001-182-0.20000000000004547-103.39999999999998-90.30000000000007-180.79999999999995-215.10000000000002-180.79999999999995z m-110.39999999999998 179.79999999999995c-3.400000000000091-5.699999999999989-9.100000000000023-9.099999999999966-14.800000000000068-9.099999999999966h-125.09999999999997c-6.800000000000011 0-13.699999999999989 4.5-15.900000000000034 11.399999999999977l-69.39999999999998 179.7c-2.3000000000000114 5.7000000000000455-1.1000000000000227 11.399999999999977 2.3000000000000114 15.899999999999977s8 6.800000000000068 13.699999999999989 6.800000000000068h36.39999999999998l-47.799999999999955 125.10000000000002c-3.400000000000034 8 0 15.899999999999977 6.7999999999999545 20.5 2.3000000000000114 1.099999999999909 5.7000000000000455 2.2999999999999545 9.100000000000023 2.2999999999999545 4.600000000000023 0 9.100000000000023-2.2999999999999545 12.5-5.7000000000000455l188.79999999999995-213.89999999999998c4.600000000000023-4.5 5.7000000000000455-12.5 2.300000000000068-18.199999999999932-3.3999999999999773-5.7000000000000455-6.800000000000068-9.100000000000023-12.5-9.100000000000023h-50.10000000000002l62.60000000000002-87.60000000000002c3.3999999999999773-5.600000000000023 4.5-12.399999999999977 1.1000000000000227-18.100000000000023z"/>
</svg>
