<svg xmlns="http://www.w3.org/2000/svg" viewBox="0 0 1000 1000" width="1000" height="1000">
<path d="M808.2 498.8h-67c-11.600000000000023 0-21 9.399999999999977-21 20.999999999999943v280.20000000000005c0 11.600000000000023-9.400000000000091 21-21 21h-503.40000000000003c-11.600000000000023 0-21-9.399999999999977-21-21v-505c0-11.600000000000023 9.399999999999977-21 21-21h280.59999999999997c11.600000000000023 0 21-9.399999999999977 21-21v-65.30000000000001c0-11.599999999999994-9.399999999999977-21-21-21h-392.9c-11.599999999999994 0-21 9.400000000000006-21 21v725.8c0 11.600000000000023 9.400000000000006 21 21 21h724.7c11.599999999999909 0 21-9.399999999999977 21-21v-393.70000000000005c0-11.599999999999966-9.400000000000091-20.999999999999943-21-20.999999999999943z m16.09999999999991-432.8h-249.29999999999995c-8.299999999999955 0-15 6.700000000000003-15 15v83.30000000000001c0 8.299999999999983 6.7000000000000455 15 15 15h127.10000000000002c8.299999999999955 0 10.199999999999932 4.699999999999989 4.399999999999977 10.599999999999994l-211.39999999999998 211.4c-5.900000000000034 5.899999999999977-5.900000000000034 15.300000000000011 0 21.19999999999999l85.60000000000002 85.60000000000002c5.899999999999977 5.899999999999977 15.399999999999977 5.899999999999977 21.199999999999932 0l211.80000000000007-211.8c5.899999999999977-5.900000000000034 10.599999999999909-3.900000000000034 10.599999999999909 4.399999999999977v127.90000000000003c0 8.299999999999955 6.7000000000000455 15 15 15h83.30000000000007c8.299999999999955 0 15-6.7000000000000455 15-15v-362.5c-0.10000000000002274-0.10000000000002274-113.30000000000007-0.10000000000002274-113.30000000000007-0.10000000000002274z"/>
</svg>
