<svg xmlns="http://www.w3.org/2000/svg" viewBox="0 0 1000 1000" width="1000" height="1000">
<path d="M798.5 376.3c-4.899999999999977-11.699999999999989 4.2000000000000455-30.69999999999999 24.200000000000045-50.80000000000001l48.39999999999998-48.39999999999998c6.899999999999977-6.900000000000034 10.199999999999932-14.700000000000045 7.399999999999977-17.5l-5-5.000000000000028-128.29999999999995-128.2-5-5s-10.600000000000023 0.5999999999999943-17.5 7.5l-48.40000000000009 48.400000000000006c-22.199999999999932 22.099999999999994-37 25.5-43.89999999999998 25.5-5.100000000000023 0-9.100000000000023-1.700000000000017-12.699999999999932-5.300000000000011-4.800000000000068-4.900000000000006-13-17.69999999999999-13-49v-0.9000000000000057c0-0.5-0.10000000000002274-8.799999999999983-0.10000000000002274-18.599999999999994v-49c0-9.700000000000003-7.899999999999977-17.700000000000003-17.700000000000045-17.700000000000003h-174.09999999999997c-9.699999999999989 0-17.69999999999999 7.900000000000006-17.69999999999999 17.700000000000003v68.6c0 12.700000000000017-2 54.099999999999994-25.700000000000045 54.099999999999994-6.899999999999977 0-21.69999999999999-3.299999999999983-43.799999999999955-25.5l-50.80000000000001-50.79999999999998-5-5s-7.300000000000011-2.700000000000003-10 0l-133.3 133.29999999999998-5 5s-2.799999999999997 7.300000000000011 0 10l5 5 50.80000000000001 50.900000000000034c20 20 29.099999999999994 38.89999999999998 24.19999999999999 50.799999999999955-4.900000000000006 11.700000000000045-24.69999999999999 18.80000000000001-52.900000000000006 18.80000000000001h-68.5c-9.799999999999997-0.0999999999999659-17.699999999999996 7.900000000000034-17.699999999999996 17.600000000000023v174.40000000000003c0 9.699999999999932 7.899999999999999 17.699999999999932 17.699999999999996 17.699999999999932h68.4c28.30000000000001 0 48 7 52.900000000000006 18.700000000000045 4.900000000000006 11.799999999999955-4.200000000000017 30.699999999999932-24.200000000000017 50.799999999999955l-50.79999999999998 50.80000000000007-5 5s-2.8000000000000114 7.2999999999999545 0 10l133.29999999999998 133.39999999999998 5 5s7.300000000000011 2.7999999999999545 10 0l5-5 50.80000000000001-50.89999999999998c22.100000000000023-22.100000000000023 37-25.5 43.80000000000001-25.5 23.69999999999999 0 25.69999999999999 41.39999999999998 25.69999999999999 54.09999999999991v68.60000000000002c0 9.700000000000045 7.899999999999977 17.700000000000045 17.69999999999999 17.700000000000045h174.3c9.700000000000045 0 17.700000000000045-7.899999999999977 17.700000000000045-17.700000000000045v-49c0-9.699999999999932 0.09999999999990905-18 0.09999999999990905-18.600000000000023v-0.8999999999999773c-0.09999999999990905-31.299999999999955 8.100000000000023-44.10000000000002 13-49 3.6000000000000227-3.6000000000000227 7.600000000000023-5.2999999999999545 12.700000000000045-5.2999999999999545 6.7999999999999545 0 21.700000000000045 3.2999999999999545 43.89999999999998 25.5l50.80000000000007 50.89999999999998 5 5s7.2999999999999545 2.7999999999999545 10 0l133.39999999999998-133.29999999999995 5-5s2.699999999999932-7.300000000000068 0-10l-55.89999999999998-55.80000000000007c-20-20-29.100000000000023-39-24.200000000000045-50.799999999999955s24.700000000000045-18.700000000000045 53-18.700000000000045h68.5c9.700000000000045 0 17.700000000000045-7.899999999999977 17.700000000000045-17.699999999999932v-174.50000000000006c0-9.699999999999989-7.900000000000091-17.69999999999999-17.700000000000045-17.69999999999999h-68.29999999999995c-28.5 0.10000000000002274-48.30000000000007-6.899999999999977-53.200000000000045-18.69999999999999z m-100.89999999999998 123.69999999999999c0 108.89999999999998-88.60000000000002 197.60000000000002-197.60000000000002 197.60000000000002s-197.60000000000002-88.70000000000005-197.60000000000002-197.60000000000002 88.70000000000005-197.60000000000002 197.60000000000002-197.60000000000002 197.60000000000002 88.60000000000002 197.60000000000002 197.60000000000002z"/>
</svg>
