<svg xmlns="http://www.w3.org/2000/svg" viewBox="0 0 1000 1000" width="1000" height="1000">
<path d="M499.8 62.5c-241.40000000000003 0-437.3 195.89999999999998-437.3 437.3 0 241.8 195.89999999999998 437.7 437.3 437.7 241.8 0 437.7-195.89999999999998 437.7-437.7 0-241.40000000000003-195.89999999999998-437.3-437.7-437.3z m0.19999999999998863 822.9c-212.8 0-385.4-172.60000000000002-385.4-385.4-2.842170943040401e-14-212.8 172.59999999999997-385.4 385.4-385.4s385.4 172.59999999999997 385.4 385.4c0 212.79999999999995-172.60000000000002 385.4-385.4 385.4z m0-721.4v671.7c185.29999999999995 0 335.9-150.60000000000002 335.9-335.90000000000003 0-184.90000000000003-150.60000000000002-335.8-335.9-335.8z"/>
</svg>
