<svg xmlns="http://www.w3.org/2000/svg" viewBox="0 0 1000 1000" width="1000" height="1000">
<path d="M890 126.4v-1.3000000000000114h-780.4v1.3000000000000114c-25.200000000000017 1.799999999999983-44.10000000000002 22.400000000000006-47.10000000000002 47.400000000000006v526.5c0 10.100000000000023 2.5999999999999943 18.600000000000023 6.900000000000006 26.300000000000068 9.899999999999991 17.799999999999955 24.39999999999999 26.799999999999955 44.5 26.799999999999955h281.70000000000005v61h-88.10000000000002c-5.300000000000011 0-9.600000000000023 4.399999999999977-9.600000000000023 9.800000000000068v40.59999999999991c0 5.400000000000091 4.300000000000011 9.800000000000068 9.600000000000023 9.800000000000068h385c5.2999999999999545 0 9.600000000000023-4.399999999999977 9.600000000000023-9.800000000000068v-40.59999999999991c0-5.400000000000091-4.300000000000068-9.800000000000068-9.600000000000023-9.800000000000068h-88.5v-61h281.6c20.199999999999932 0 34.799999999999955-9 44.60000000000002-26.799999999999955 4.399999999999977-8.100000000000023 7.2999999999999545-16.700000000000045 7.2999999999999545-26.300000000000068v-526.5c-3-24.999999999999943-23.100000000000023-45.599999999999966-47.5-47.39999999999995z m-780.4 47.400000000000006h780.4v0.8999999999999773l-780.2 526.4000000000001-0.1999999999999602-0.7000000000001592v-526.5999999999999z"/>
</svg>
