<svg xmlns="http://www.w3.org/2000/svg" viewBox="0 0 1000 1000" width="1000" height="1000">
<path d="M681.9 292.1l-181.79999999999995 182-182-181.8-25.900000000000034 25.899999999999977 181.90000000000003 181.8-181.8 181.89999999999998 25.899999999999977 26 181.90000000000003-182 181.79999999999995 181.80000000000007 25.899999999999977-25.90000000000009-181.79999999999995-181.79999999999995 181.79999999999995-181.89999999999998-25.899999999999977-26z m127.30000000000007-101.30000000000001c-85.5-85.50000000000001-188.60000000000002-128.3-309.20000000000005-128.3s-223.7 42.7-309.2 128.3-128.3 188.59999999999997-128.3 309.2 42.7 223.70000000000005 128.3 309.20000000000005 188.59999999999997 128.29999999999995 309.2 128.29999999999995 223.70000000000005-42.700000000000045 309.20000000000005-128.29999999999995 128.29999999999995-188.60000000000002 128.29999999999995-309.20000000000005-42.799999999999955-223.60000000000002-128.29999999999995-309.2z m-25.300000000000068 593.0999999999999c-77 77.20000000000016-171.69999999999993 115.70000000000016-283.9 115.70000000000016s-206.8-38.60000000000002-283.9-115.70000000000005-115.70000000000002-171.69999999999993-115.70000000000002-283.9 38.599999999999994-206.89999999999998 115.69999999999999-283.9 171.70000000000002-115.70000000000002 283.9-115.70000000000002 206.89999999999998 38.599999999999994 283.9 115.69999999999999 115.70000000000005 171.70000000000002 115.70000000000005 283.9-38.60000000000002 206.89999999999998-115.70000000000005 283.9z"/>
</svg>
