<svg xmlns="http://www.w3.org/2000/svg" viewBox="0 0 1000 1000" width="1000" height="1000">
<path d="M500.1 151.8c9.699999999999989 0 17.699999999999932-7.900000000000006 17.699999999999932-17.900000000000006v-53.60000000000001c0-9.899999999999991-7.999999999999943-17.9-17.699999999999932-17.9s-17.700000000000045 8.100000000000001-17.700000000000045 17.9v53.60000000000001c0 10 8 17.900000000000006 17.700000000000045 17.900000000000006z m-187.70000000000005 37.79999999999998c3.3000000000000114 5.700000000000017 9.300000000000011 9 15.400000000000034 9 3 0 6-0.799999999999983 8.800000000000011-2.5 8.5-4.900000000000006 11.299999999999955-15.799999999999983 6.5-24.400000000000006l-26.5-46.499999999999986c-4.900000000000034-8.600000000000009-15.700000000000045-11.5-24.200000000000045-6.6000000000000085-8.399999999999977 4.900000000000006-11.299999999999955 15.900000000000006-6.399999999999977 24.400000000000006l26.399999999999977 46.599999999999994z m-101.89999999999998 103.29999999999998l-45.900000000000006-26.799999999999955c-8.400000000000006-4.900000000000034-19.299999999999983-2-24.19999999999999 6.599999999999966-4.900000000000006 8.5-1.9000000000000057 19.400000000000034 6.5 24.400000000000034l45.900000000000006 26.799999999999955c2.799999999999983 1.7000000000000455 5.799999999999983 2.5 8.799999999999983 2.5 6.099999999999994 0 12-3.1999999999999886 15.400000000000006-9 4.800000000000011-8.599999999999966 1.9000000000000057-19.5-6.5-24.5z m-55.099999999999994 172h-52.900000000000006c-9.700000000000003 0-17.700000000000003 8.100000000000023-17.700000000000003 17.900000000000034 0 9.899999999999977 7.900000000000006 17.899999999999977 17.700000000000003 17.899999999999977h52.900000000000006c9.799999999999983 0 17.69999999999999-8.099999999999966 17.69999999999999-17.899999999999977-0.09999999999999432-9.800000000000011-7.900000000000006-17.900000000000034-17.69999999999999-17.900000000000034z m742.3000000000001 0h-52.90000000000009c-9.699999999999932 0-17.699999999999932 8.100000000000023-17.699999999999932 17.900000000000034 0 9.899999999999977 7.899999999999977 17.899999999999977 17.699999999999932 17.899999999999977h52.90000000000009c9.699999999999932 0 17.699999999999932-8.099999999999966 17.699999999999932-17.899999999999977s-8-17.900000000000034-17.699999999999932-17.900000000000034z m-38-192.2c-4.900000000000091-8.599999999999966-15.700000000000045-11.5-24.200000000000045-6.599999999999966l-45.89999999999998 26.799999999999955c-8.399999999999977 5-11.399999999999977 15.900000000000034-6.5 24.400000000000034 3.2999999999999545 5.699999999999989 9.299999999999955 9 15.399999999999977 9 3 0 6-0.8000000000000114 8.799999999999955-2.5l45.90000000000009-26.80000000000001c8.599999999999909-4.800000000000011 11.399999999999977-15.899999999999977 6.5-24.30000000000001z m-196.10000000000002-76.6c2.7999999999999545 1.700000000000017 5.899999999999977 2.5 8.799999999999955 2.5 6.100000000000023 0 12-3.1999999999999886 15.399999999999977-8.799999999999983l26.40000000000009-46.5c4.899999999999977-8.5 2-19.500000000000014-6.5-24.400000000000006-8.400000000000091-4.900000000000006-19.200000000000045-2-24.100000000000023 6.599999999999994l-26.5 46.5c-4.800000000000068 8.300000000000011-1.8999999999999773 19.19999999999999 6.5 24.099999999999994z m-183.90000000000003 360.29999999999995c1.8000000000000114 11.899999999999977 8.300000000000011 15.200000000000045 20.400000000000034 15.200000000000045 12 0 18.600000000000023-3.2000000000000455 20.399999999999977-15.200000000000045l14.399999999999977-95.89999999999998c0.8999999999999773-6.600000000000023 1.8999999999999773-13.100000000000023 1.8999999999999773-19.30000000000001v-47.599999999999966c0-20.900000000000034-13.5-31.5-36.599999999999966-31.5s-36.599999999999966 10.599999999999966-36.599999999999966 31.5v47.599999999999966c0 6.100000000000023 0.8999999999999773 12.699999999999989 1.8999999999999773 19.30000000000001l14.199999999999989 95.89999999999998z m20.400000000000034 42c-20.80000000000001 0-38 17.700000000000045-38 39.30000000000007s17.19999999999999 39.39999999999998 38 39.39999999999998 38-17.800000000000068 38-39.39999999999998-17.200000000000045-39.30000000000007-38-39.30000000000007z m-65.90000000000003-361c-114.5 31.200000000000045-183.79999999999998 109.10000000000002-202.6 224.8-18.400000000000006 112.90000000000003 21 206.7 113.29999999999998 277.2 14.900000000000034 11.399999999999977 31.80000000000001 26 37.200000000000045 42.5 14.799999999999955 45.5 44.099999999999966 60.80000000000007 88.69999999999999 55.700000000000045 10.099999999999966-1.1000000000000227 20.30000000000001-0.20000000000004547 30.5-0.20000000000004547h41.599999999999966c43 0 53.5-8.199999999999932 71.80000000000007-46.60000000000002 8.099999999999909-16.899999999999977 18.699999999999932-35.299999999999955 33.299999999999955-45.89999999999998 88.29999999999995-63.5 129.20000000000005-148.5 124.5-256.79999999999995-7.2000000000000455-169.40000000000003-175.10000000000002-295.20000000000005-338.3-250.70000000000002z m188.90000000000003 458.80000000000007c-19.300000000000068 14.5-36.5 33.799999999999955-49.700000000000045 54.09999999999991-29.600000000000023 45.40000000000009-112.29999999999995 47.60000000000002-143.59999999999997 3.900000000000091-16.80000000000001-23.5-36.900000000000034-45.90000000000009-59.5-63.60000000000002-77.30000000000001-60.39999999999998-108.80000000000001-164.10000000000002-75.69999999999999-258.90000000000003 32.5-93 118.09999999999997-151.59999999999997 217.39999999999998-148.59999999999997 113.20000000000005 3.2999999999999545 207.29999999999995 105.89999999999998 207.20000000000005 233.5-1.5 70.29999999999995-33.200000000000045 132.19999999999993-96.10000000000002 179.60000000000002z m-64.30000000000007 176c-19.199999999999932-1.3000000000000682-38.5-0.40000000000009095-57.799999999999955-0.40000000000009095-19.30000000000001 0-38.60000000000002-0.8999999999999773-57.80000000000001 0.40000000000009095-7.300000000000011 0.5-17.599999999999966 4.099999999999909-20.399999999999977 9.5-2.6000000000000227 5.099999999999909 1 15.699999999999932 5.099999999999966 21.5 32.400000000000034 45.69999999999993 113.70000000000005 45.89999999999998 146.30000000000007 0.1999999999999318 4.199999999999932-5.899999999999977 7.7999999999999545-16.5 5.199999999999932-21.600000000000023-2.8999999999999773-5.399999999999977-13.199999999999932-9.099999999999909-20.600000000000023-9.599999999999909z"/>
</svg>
