<svg xmlns="http://www.w3.org/2000/svg" viewBox="0 0 1000 1000" width="1000" height="1000">
<path d="M500.2 62.5c-241.8 0-437.7 195.89999999999998-437.7 437.3 0 241.8 195.89999999999998 437.7 437.7 437.7 241.40000000000003 0 437.3-195.89999999999998 437.3-437.7 0-241.40000000000003-195.89999999999998-437.3-437.3-437.3z m50.099999999999966 741.1c-21.59999999999991 3.6000000000000227-42.19999999999993 5.399999999999977-62.099999999999966 5.399999999999977-20.899999999999977 0-42.19999999999999-1.7999999999999545-63.099999999999966-5.399999999999977-3.2000000000000455-20.899999999999977-5-41.5-5-62.10000000000002s1.7999999999999545-41.5 5-63.10000000000002c20.899999999999977-3.199999999999932 41.89999999999998-5 62.099999999999966-5 20.600000000000023 0 41.50000000000006 1.8000000000000682 63.099999999999966 5 3.6000000000000227 21.700000000000045 5.100000000000023 42.60000000000002 5.100000000000023 62.39999999999998 0 21-1.5 41.90000000000009-5.100000000000023 62.80000000000007z m113.30000000000007-369.5c-10.100000000000023 19.5-22.700000000000045 35.69999999999999-37.200000000000045 49.099999999999966-14.399999999999977 13.400000000000034-29.199999999999932 24.19999999999999-44.69999999999993 32.099999999999966-15.200000000000045 8.300000000000068-27.800000000000068 14.400000000000091-37.200000000000045 18.40000000000009v77.59999999999991c-19.799999999999955 3.2000000000000455-39 5-57.39999999999998 5s-36.400000000000034-1.7999999999999545-53.400000000000034-5v-146.49999999999994c13-2.1999999999999886 26.69999999999999-5.400000000000034 40.80000000000001-9.699999999999989 14.100000000000023-4.300000000000011 27.399999999999977-10.100000000000023 39.299999999999955-17.700000000000045 11.900000000000091-7.199999999999989 21.700000000000045-16.599999999999966 29.200000000000045-27.399999999999977 7.600000000000023-11.199999999999989 11.5-24.899999999999977 11.5-41.5 0-24.19999999999999-9-42.89999999999998-26.299999999999955-55.60000000000002-17.700000000000045-13-41.10000000000002-19.099999999999966-70.00000000000006-19.099999999999966-11.899999999999977 0-22.399999999999977 0.39999999999997726-31.80000000000001 1.099999999999966-9.399999999999977 0.7000000000000455-18 2.2000000000000455-26 4.300000000000011-7.899999999999977 1.8000000000000114-16.19999999999999 4.300000000000011-24.5 6.900000000000034-7.899999999999977 2.5-16.599999999999966 5.399999999999977-26 9-7.899999999999977-14.800000000000011-14.399999999999977-30.30000000000001-19.5-46.200000000000045-5-15.899999999999977-8.299999999999955-32.49999999999997-9.399999999999977-49.39999999999998 14.800000000000011-5 28.5-9.400000000000006 41.10000000000002-13 12.299999999999955-4 24.5-6.900000000000006 36.39999999999998-9 11.899999999999977-2.1999999999999886 23.80000000000001-4 35.69999999999999-4.699999999999989 11.900000000000034-0.700000000000017 24.900000000000034-1.4000000000000057 38.19999999999999-1.4000000000000057 68.20000000000005 0 119.80000000000007 15.5 154.39999999999998 46.5 34.60000000000002 30.99999999999997 52 73.20000000000002 52 127.4 0.3000000000000682 26.599999999999966-5.099999999999909 49.39999999999998-15.199999999999932 68.80000000000001z"/>
</svg>
