<svg xmlns="http://www.w3.org/2000/svg" viewBox="0 0 1000 1000" width="1000" height="1000">
<path d="M881.7 264.5c0-30.599999999999994-24.100000000000023-55.599999999999994-53.90000000000009-55.599999999999994h-64.39999999999998c-1.8999999999999773-4.200000000000017-4-8.300000000000011-6.2999999999999545-12.400000000000006-14.700000000000045-27-35.80000000000007-51-62.200000000000045-71.4-52.60000000000002-40.39999999999999-121.89999999999998-62.599999999999994-195-62.599999999999994-73.19999999999999 0-142.5 22.200000000000003-194.89999999999998 62.599999999999994-26.5 20.5-47.5 44.5-62.30000000000001 71.5-2.299999999999983 4.099999999999994-4.299999999999983 8.200000000000017-6.299999999999983 12.400000000000006h-64.4c-29.80000000000001 0-53.900000000000006 24.900000000000006-53.900000000000006 55.60000000000002v94.09999999999997h763.5l0.10000000000002274-94.19999999999999z m-559.7-55.599999999999994c7.399999999999977-8.700000000000017 16.100000000000023-16.900000000000006 26.100000000000023-24.5 40.099999999999966-30.900000000000006 94-47.900000000000006 151.89999999999998-47.900000000000006 57.700000000000045 0 111.70000000000005 17.099999999999994 151.89999999999998 47.900000000000006 9.899999999999977 7.599999999999994 18.5 15.799999999999983 26.100000000000023 24.5h-356z m578.1 553.8000000000001h-800.5l18.59999999999998-382.30000000000007h763.5l18.399999999999977 382.30000000000007z m3.2999999999999545 67.29999999999995h-807l2.6000000000000227-50.5h801.8l2.6000000000000227 50.5z m2.2000000000000455 49.200000000000045c1.6999999999999318 31.699999999999932-22.800000000000068 58.299999999999955-53.60000000000002 58.299999999999955h-704.4c-30.700000000000017 0-55.20000000000002-26.600000000000023-53.60000000000002-58.299999999999955l1.7000000000000028-32.30000000000007h808.3l1.6000000000000227 32.30000000000007z"/>
</svg>
