<svg xmlns="http://www.w3.org/2000/svg" viewBox="0 0 1000 1000" width="1000" height="1000">
<path d="M824.9 870.9c0 36.700000000000045-29.799999999999955 66.60000000000002-66.60000000000002 66.60000000000002h-516.3c-36.80000000000001 0-66.6-29.799999999999955-66.6-66.60000000000002 0-3.6000000000000227 0.6999999999999886-7.100000000000023 1.9000000000000057-10.399999999999977l178.89999999999998-468.6c0.10000000000002274-0.7999999999999545 0.19999999999998863-1.599999999999966 0.30000000000001137-2.2999999999999545v-268.6h-21.100000000000023c-16.19999999999999 0-29.299999999999955-13.099999999999994-29.299999999999955-29.200000000000003 0-16.200000000000003 13.099999999999966-29.299999999999997 29.299999999999955-29.299999999999997h50.30000000000001c16.19999999999999 0 29.30000000000001 13.099999999999994 29.30000000000001 29.299999999999997v300c0 1.6999999999999886-0.19999999999998863 3.3999999999999773-0.39999999999997726 5 0 3.599999999999966-0.9000000000000341 8.399999999999977-2.2000000000000455 11.699999999999989l-107.69999999999999 282.4h388.40000000000003l-111.30000000000007-282c-1.099999999999909-3.099999999999966-1.8999999999999773-6.199999999999989-2-9.399999999999977l-0.2999999999999545-1.8000000000000114c-0.20000000000004547-1.099999999999966-0.20000000000004547-2.3000000000000114-0.20000000000004547-3.5v-302.4c0-16.200000000000017 13.100000000000023-29.30000000000001 29.300000000000068-29.30000000000001h51.69999999999993c16.200000000000045 0 29.300000000000068 13.099999999999994 29.300000000000068 29.299999999999997s-13 29.200000000000003-29.200000000000045 29.200000000000003h-22.5v270.5l185 468.6c1.3000000000000682 3.5 2 7.100000000000023 2 10.799999999999955z m-381.5-245.19999999999993c0-12.100000000000023 9.800000000000011-22 22-22s22 9.899999999999977 22 22c0 12.199999999999932-9.899999999999977 22-22 22s-22-10-22-22z m14.700000000000045 0c0 4 3.1999999999999886 7.399999999999977 7.2999999999999545 7.399999999999977 4 0 7.400000000000034-3.2000000000000455 7.400000000000034-7.399999999999977 0-4-3.1999999999999886-7.300000000000068-7.400000000000034-7.300000000000068-4.099999999999966-0.10000000000002274-7.2999999999999545 3.2000000000000455-7.2999999999999545 7.300000000000068z m98.69999999999993-22c0-12.100000000000023 9.900000000000091-22 22-22 12.200000000000045 0 22 9.899999999999977 22 22s-9.799999999999955 22-22 22-22-9.900000000000091-22-22z m14.700000000000045 0c0 4 3.2999999999999545 7.2999999999999545 7.2999999999999545 7.2999999999999545s7.400000000000091-3.2000000000000455 7.400000000000091-7.2999999999999545-3.300000000000068-7.400000000000091-7.400000000000091-7.400000000000091c-4 0-7.2999999999999545 3.400000000000091-7.2999999999999545 7.400000000000091z m-75.69999999999999-73.20000000000005c0-16.799999999999955 13.699999999999989-30.5 30.499999999999943-30.5s30.5 13.600000000000023 30.5 30.5c0 16.799999999999955-13.699999999999932 30.5-30.5 30.5s-30.499999999999943-13.700000000000045-30.499999999999943-30.5z m14.599999999999966 0c0 8.799999999999955 7.100000000000023 15.799999999999955 15.899999999999977 15.799999999999955 8.700000000000045 0 15.800000000000068-7.099999999999909 15.800000000000068-15.799999999999955s-7.2000000000000455-15.799999999999955-15.800000000000068-15.799999999999955c-8.699999999999932-0.10000000000002274-15.899999999999977 7.099999999999909-15.899999999999977 15.799999999999955z"/>
</svg>
