<svg xmlns="http://www.w3.org/2000/svg" viewBox="0 0 1000 1000" width="1000" height="1000">
<path d="M926.2 427h-49.90000000000009c-6.199999999999932 0-11.299999999999955-5.100000000000023-11.299999999999955-11.300000000000011v-123.19999999999999c0-6.199999999999989-5.100000000000023-11.300000000000011-11.299999999999955-11.300000000000011h-779.9000000000001c-6.19999999999996 0-11.299999999999955 5.100000000000023-11.299999999999955 11.300000000000011v414.5c0 6.2000000000000455 5.099999999999994 11.299999999999955 11.299999999999997 11.299999999999955h780.6c6.2000000000000455 0 11.300000000000068-5.099999999999909 11.300000000000068-11.299999999999955v-123.20000000000005c0-6.199999999999932 5.099999999999909-11.299999999999955 11.299999999999955-11.299999999999955h49.10000000000002c6.199999999999932 0 11.299999999999955-5.100000000000023 11.299999999999955-11.299999999999955v-122.90000000000003c0.10000000000002274-6.199999999999989-5-11.300000000000011-11.199999999999932-11.300000000000011z m-135.20000000000005 206.5c0 6.2000000000000455-5.100000000000023 11.299999999999955-11.299999999999955 11.299999999999955h-633.3000000000001c-6.199999999999989 0-11.299999999999983-5.099999999999909-11.299999999999983-11.299999999999955v-267.4c0-6.2000000000000455 5.099999999999994-11.300000000000011 11.300000000000011-11.300000000000011h633.3000000000001c6.199999999999932 0 11.299999999999955 5.099999999999966 11.299999999999955 11.300000000000011v267.4z m-341-126.5c-46.30000000000001-12.800000000000011-92.10000000000002-25.399999999999977-137.8-38l-0.30000000000001137 0.8000000000000114c62.400000000000034 36.39999999999998 124.80000000000001 72.80000000000001 188.10000000000002 109.69999999999999-3.6000000000000227-28.399999999999977-7.199999999999989-55.799999999999955-10.699999999999989-83.80000000000001 42.49999999999994 11.600000000000023 84.19999999999999 23.000000000000057 125.80000000000001 34.400000000000034l0.2999999999999545-0.6000000000000227c-57.299999999999955-36.30000000000001-114.69999999999999-72.60000000000002-172.59999999999997-109.19999999999999 2.3999999999999773 29.099999999999966 4.800000000000011 57.5 7.199999999999989 86.69999999999999z"/>
</svg>
