<svg xmlns="http://www.w3.org/2000/svg" viewBox="0 0 1000 1000" width="1000" height="1000">
<path d="M789 78.4c-4.7000000000000455-1.9000000000000057-28.299999999999955-10.5-51.200000000000045-1-89.19999999999993 39.3-176.19999999999993 83.19999999999999-264.49999999999994 124.4-33.30000000000001 15.5-65.90000000000003 32.599999999999994-99.69999999999999 46.89999999999998-37.700000000000045 16-78 22.19999999999999-118.90000000000003 22.69999999999999-29.69999999999999 0.30000000000001137-59.29999999999998 0.5-88.89999999999998 0-55.500000000000014-1.099999999999966-97.50000000000001 23.30000000000001-129.4 67.10000000000002-11.600000000000005 16-20.100000000000005 33.30000000000001-26.200000000000006 51.60000000000002-9.799999999999999 30.799999999999955-18.4 83.59999999999997 3.700000000000001 148.79999999999995 11.999999999999998 31 30.9 57.700000000000045 58.00000000000001 79 2.5999999999999943 2 5 3.8999999999999773 5.299999999999997 7.7000000000000455 2.5 33.10000000000002 10.799999999999997 65.29999999999995 16.599999999999994 97.89999999999998 9.5 54.10000000000002 20.10000000000001 108 30.10000000000001 162 3.8999999999999915 21.399999999999977 16 34.89999999999998 37.19999999999999 40.299999999999955 0.8000000000000114 0.20000000000004547 1.5999999999999943 1 2.3000000000000114 1.6000000000000227h13.699999999999989c19.30000000000001-5.7999999999999545 39.400000000000006-7.899999999999977 59.099999999999994-11.899999999999977 18.5-3.7000000000000455 37.10000000000002-6.600000000000023 55.60000000000002-10.299999999999955 28.30000000000001-5.600000000000023 43.599999999999966-29.5 38.30000000000001-58.10000000000002-6.7000000000000455-36.700000000000045-20.700000000000045-70.39999999999998-42.200000000000045-100.80000000000007-18.899999999999977-26.799999999999955-30.899999999999977-56.299999999999955-37.79999999999998-88.19999999999993-1.6999999999999886-7.800000000000068-0.09999999999999432-10.399999999999977 8.200000000000017-10.100000000000023 50.69999999999999 2.2000000000000455 98.5 13.700000000000045 144.5 36.10000000000002 109.59999999999997 53.299999999999955 220.09999999999997 104.89999999999998 330.2 157.10000000000002 36.10000000000002 17.09999999999991 74.60000000000002 0.599999999999909 87.10000000000002-37.5 33.19999999999993-101 53.5-204.4000000000001 57.10000000000002-310.80000000000007 4.399999999999977-131-17.300000000000068-257.79999999999995-58.90000000000009-381.59999999999997-5.2999999999999545-15.800000000000011-15.599999999999909-26.30000000000001-29.299999999999955-32.900000000000006z m-433.7 503.5c-13.5-3.199999999999932-27.100000000000023-5.699999999999932-40.900000000000034-7.600000000000023 27.700000000000045-87.89999999999998 12.100000000000023-181.29999999999995 0.4000000000000341-228.99999999999994 13.699999999999989-2.1000000000000227 27.399999999999977-4.800000000000011 41-8.199999999999989 33.099999999999966 130.59999999999997 14.399999999999977 208.69999999999993-0.5 244.79999999999995z m442.99999999999994-81.59999999999997c-4 85.90000000000003-19.899999999999977 169.7-44.299999999999955 251.99999999999994-2.7000000000000455 9-5.399999999999977 9.300000000000068-13.200000000000045 5.600000000000023-109.29999999999995-52.19999999999993-218.5999999999999-104.29999999999995-328.19999999999993-155.89999999999998 40.5-109.39999999999998 14.799999999999955-230-0.7000000000000455-283.6 23.80000000000001-10.199999999999989 46.60000000000002-22.599999999999966 70-33.599999999999966 86.5-40.70000000000002 172.70000000000005-81.9 258.9-123 5.400000000000091-2.5 9.800000000000068-5.800000000000011 12.600000000000023 3.6999999999999886 32.5 109.30000000000001 50.200000000000045 220.60000000000002 44.89999999999998 334.8z m199.5-66.69999999999999c-7.7999999999999545-42.10000000000002-29.5-75.20000000000005-64.79999999999995-99.30000000000001-5.2000000000000455-3.5-10.299999999999955-7.800000000000011-18.100000000000023-9.100000000000023 11.700000000000045 90.10000000000002 11.899999999999977 179.5 0 268.50000000000006 3.300000000000068 1.1999999999999318 4.800000000000068-0.40000000000009095 6.399999999999977-1.3000000000000682 32.10000000000002-18 55.10000000000002-44 68.90000000000009-78.19999999999993 4.5-11.200000000000045 5.7999999999999545-23.200000000000045 9.799999999999955-34.50000000000006v-41c-2.2000000000000455-1.1999999999999886-1.7999999999999545-3.3000000000000114-2.2000000000000455-5.099999999999966z"/>
</svg>
