<svg xmlns="http://www.w3.org/2000/svg" viewBox="0 0 1000 1000" width="1000" height="1000">
<path d="M934.3 850.2c-2.699999999999932-20.100000000000023-5.2999999999999545-40.200000000000045-7.7999999999999545-60.40000000000009-2.6000000000000227-20.699999999999932-4.899999999999977-41.39999999999998-7.5-62l-8.5-68.29999999999995c-0.5-4-1-7.899999999999977-1.5-12.399999999999977-0.20000000000004547-1.8999999999999773-2-3.5-3.8999999999999773-3.5h-78.39999999999998c-1.900000000000091 0-3.5 1.6000000000000227-3.400000000000091 3.5 0.900000000000091 28.299999999999955 1.8000000000000682 57.39999999999998 2.7000000000000455 87.29999999999995 0.10000000000002274 1.8999999999999773-0.8999999999999773 2.800000000000068-2.1000000000000227 1.8999999999999773-0.8999999999999773-0.599999999999909-1.6000000000000227-1.099999999999909-2.199999999999932-1.599999999999909l-132.5-101.40000000000009-5.7000000000000455-4.399999999999977c-1.5-1.1999999999999318-3-2.1000000000000227-3.2000000000000455-2.1000000000000227s-1.7999999999999545 0.7000000000000455-3.5 1.7000000000000455c-12.899999999999977 6.899999999999977-25.699999999999932 13.700000000000045-38.59999999999991 20.700000000000045-7.400000000000091 4-14.800000000000068 8-22.5 12.199999999999932-1.7000000000000455 0.8999999999999773-1.900000000000091 2.7000000000000455-0.40000000000009095 4 22.300000000000068 19.100000000000023 44.30000000000007 38.10000000000002 66.30000000000007 56.89999999999998 22.100000000000023 18.90000000000009 44.19999999999993 37.60000000000002 66.39999999999998 56.40000000000009 1.5 1.2999999999999545 2.5 2.5 2.2999999999999545 2.7999999999999545-0.1999999999999318 0.2999999999999545-1.8999999999999773 0.39999999999997726-3.8999999999999773 0.2999999999999545-47.10000000000002-3.2999999999999545-94.19999999999993-6.699999999999932-141.60000000000002-10-1.8999999999999773-0.09999999999990905-4 1.2000000000000455-4.5 3.1000000000000227-0.39999999999997726 1.2000000000000455-0.6999999999999318 2.300000000000068-1 3.3999999999999773l-18.5 66.60000000000002-0.2999999999999545 0.7000000000000455c-0.20000000000004547 0.39999999999997726-0.39999999999997726 0.8999999999999773-0.39999999999997726 1.1000000000000227 0 0.1999999999999318 1.6000000000000227 0.5 3.5 0.6999999999999318l25.5 2.1000000000000227 61.19999999999993 4.600000000000023 54.40000000000009 4.199999999999932c17.899999999999977 1.400000000000091 35.69999999999993 3 53.59999999999991 4.5l44.10000000000002 3.5c19.600000000000023 1.5 39.200000000000045 3.1000000000000227 58.80000000000007 4.5 10.899999999999977 0.8000000000000682 21.699999999999932 1.3000000000000682 32.59999999999991 1.900000000000091 2.900000000000091 0.1999999999999318 5.800000000000068 0.5 8.700000000000045 0.7999999999999545h11.5c1.8999999999999773 0 3.5-0.7000000000000455 3.5-1.6000000000000227 0-0.8999999999999773-0.20000000000004547-3.199999999999932-0.6000000000000227-5.100000000000023-0.8999999999999773-5.699999999999932-1.7999999999999545-11.099999999999909-2.6000000000000227-16.59999999999991z m-515.0999999999999-5.5l-18.500000000000057-66.60000000000002c-0.30000000000001137-1.1000000000000227-0.5999999999999659-2.2000000000000455-1-3.3999999999999773-0.5999999999999659-1.900000000000091-2.599999999999966-3.2000000000000455-4.5-3.1000000000000227-47.39999999999998 3.3999999999999773-94.5 6.699999999999932-141.6 10-1.9000000000000057 0.10000000000002274-3.6999999999999886 0-3.9000000000000057-0.3000000000000682-0.19999999999998863-0.2999999999999545 0.9000000000000057-1.5 2.3000000000000114-2.7999999999999545l66.39999999999998-56.39999999999998c22.100000000000023-18.800000000000068 44.10000000000002-37.80000000000007 66.30000000000001-56.89999999999998 1.5-1.3000000000000682 1.3000000000000114-3.1000000000000227-0.39999999999997726-4-7.699999999999989-4.2000000000000455-15.100000000000023-8.200000000000045-22.5-12.200000000000045-12.800000000000011-6.899999999999977-25.69999999999999-13.799999999999955-38.60000000000002-20.700000000000045-1.6999999999999886-0.8999999999999773-3.3000000000000114-1.6999999999999318-3.5-1.6999999999999318-0.19999999999998863 0-1.6999999999999886 1-3.1999999999999886 2.1000000000000227l-5.699999999999989 4.399999999999977-132.5 101.39999999999998c-0.700000000000017 0.5-1.4000000000000057 1-2.200000000000017 1.6000000000000227-1.1999999999999886 0.8999999999999773-2.1999999999999886 0-2.0999999999999943-1.8999999999999773 0.9000000000000057-29.90000000000009 1.8000000000000114-58.90000000000009 2.6999999999999886-87.30000000000007 0.10000000000002274-1.8999999999999773-1.5-3.5-3.3999999999999773-3.5h-78.4c-1.9000000000000057 0-3.700000000000003 1.6000000000000227-3.9000000000000057 3.5-0.5 4.399999999999977-1 8.399999999999977-1.5 12.399999999999977l-8.5 68.30000000000007c-2.5 20.699999999999932-4.900000000000006 41.39999999999998-7.5 62-2.5 20.100000000000023-5.099999999999994 40.299999999999955-7.799999999999997 60.39999999999998-0.7000000000000028 5.5-1.7000000000000028 11-2.6000000000000014 16.399999999999977-0.30000000000000426 1.8999999999999773-0.6000000000000014 4.2000000000000455-0.6000000000000014 5.100000000000023 0 0.8999999999999773 1.5999999999999943 1.6000000000000227 3.5 1.6000000000000227h11.599999999999994c2.9000000000000057-0.3000000000000682 5.800000000000011-0.6000000000000227 8.700000000000003-0.8000000000000682 10.900000000000006-0.6999999999999318 21.799999999999997-1.1999999999999318 32.60000000000001-1.8999999999999773 19.599999999999994-1.3999999999999773 39.19999999999999-3 58.79999999999998-4.5 14.700000000000017-1.1000000000000227 29.400000000000006-2.2999999999999545 44.10000000000002-3.5l53.599999999999966-4.5c18.100000000000023-1.5 36.30000000000001-2.8999999999999773 54.400000000000034-4.199999999999932l61.19999999999999-4.600000000000023c8.5-0.6000000000000227 17-1.3999999999999773 25.5-2.1000000000000227 1.8999999999999773-0.20000000000004547 3.5-0.5 3.5-0.7000000000000455 0-0.1999999999999318-0.19999999999998863-0.6999999999999318-0.39999999999997726-1.099999999999909-0.20000000000004547 0-0.4000000000000341-0.20000000000004547-0.4000000000000341-0.5z m161.5999999999999-689.3000000000001l18.5 66.60000000000002c0.3000000000000682 1.0999999999999943 0.6000000000000227 2.1999999999999886 1 3.4000000000000057 0.6000000000000227 1.9000000000000057 2.6000000000000227 3.1999999999999886 4.5 3.0999999999999943 47.40000000000009-3.4000000000000057 94.5-6.699999999999989 141.60000000000002-10 1.8999999999999773-0.09999999999999432 3.7000000000000455 0 3.8999999999999773 0.30000000000001137s-0.8999999999999773 1.5-2.2999999999999545 2.799999999999983l-66.39999999999998 56.400000000000006c-22.100000000000023 18.80000000000001-44.10000000000002 37.80000000000001-66.30000000000007 56.89999999999998-1.5 1.3000000000000114-1.2999999999999545 3.1000000000000227 0.40000000000009095 4 7.699999999999932 4.2000000000000455 15.099999999999909 8.200000000000045 22.5 12.200000000000045 12.799999999999955 6.899999999999977 25.699999999999932 13.799999999999955 38.59999999999991 20.69999999999999 1.7000000000000455 0.8999999999999773 3.300000000000068 1.6999999999999886 3.5 1.6999999999999886s1.7000000000000455-1 3.2000000000000455-2.1000000000000227l5.7000000000000455-4.399999999999977 132.5-101.39999999999998c0.6999999999999318-0.5 1.3999999999999773-1 2.199999999999932-1.6000000000000227 1.2000000000000455-0.8999999999999773 2.2000000000000455 0 2.1000000000000227 1.8999999999999773-0.8999999999999773 29.900000000000034-1.7999999999999545 59-2.7000000000000455 87.30000000000001-0.09999999999990905 1.900000000000034 1.5 3.5 3.400000000000091 3.5h78.39999999999998c1.8999999999999773 0 3.699999999999932-1.599999999999966 3.8999999999999773-3.5 0.5-4.399999999999977 1-8.399999999999977 1.5-12.399999999999977l8.5-68.30000000000001c2.5-20.69999999999999 4.899999999999977-41.400000000000006 7.5-62 2.5-20.099999999999994 5.100000000000023-40.30000000000001 7.7999999999999545-60.400000000000006 0.7000000000000455-5.5 1.7000000000000455-11 2.6000000000000227-16.400000000000006 0.3000000000000682-1.8999999999999773 0.6000000000000227-4.199999999999989 0.6000000000000227-5.099999999999994 0-0.8999999999999915-1.6000000000000227-1.5999999999999943-3.5-1.5999999999999943h-11.600000000000023c-2.8999999999999773 0.29999999999999716-5.7999999999999545 0.5999999999999943-8.699999999999932 0.7999999999999972-10.900000000000091 0.7000000000000028-21.800000000000068 1.2000000000000028-32.60000000000002 1.8999999999999915-19.600000000000023 1.4000000000000057-39.200000000000045 3-58.80000000000007 4.5-14.699999999999932 1.1000000000000227-29.399999999999977 2.3000000000000114-44.09999999999991 3.5l-53.60000000000002 4.5c-18.100000000000023 1.5-36.30000000000007 2.9000000000000057-54.39999999999998 4.200000000000017l-61.200000000000045 4.599999999999994c-8.5 0.5999999999999943-17 1.4000000000000057-25.5 2.0999999999999943-1.8999999999999773 0.20000000000001705-3.5 0.5-3.5 0.700000000000017 0 0.19999999999998863 0.20000000000004547 0.6999999999999886 0.39999999999997726 1.0999999999999943 0.20000000000004547 0 0.39999999999997726 0.19999999999998863 0.39999999999997726 0.5z m-189.89999999999998-4.599999999999966l-61.19999999999999-4.600000000000023-54.39999999999998-4.199999999999989c-17.900000000000034-1.4000000000000057-35.70000000000002-3-53.60000000000002-4.5l-44.099999999999994-3.5c-19.599999999999994-1.5-39.19999999999999-3.0999999999999943-58.8-4.5-10.899999999999991-0.8000000000000114-21.700000000000003-1.3000000000000114-32.599999999999994-1.9000000000000057-2.9000000000000057-0.19999999999998863-5.799999999999997-0.5-8.700000000000003-0.7999999999999972h-11.5c-1.9000000000000057 0-3.5 0.7000000000000028-3.5 1.6000000000000085 0 0.9000000000000057 0.20000000000000284 3.1999999999999886 0.6000000000000014 5.099999999999994 0.8999999999999986 5.5 1.8999999999999986 10.900000000000006 2.6000000000000014 16.400000000000006 2.700000000000003 20.099999999999994 5.299999999999997 40.19999999999999 7.799999999999997 60.400000000000006 2.5999999999999943 20.69999999999999 4.900000000000006 41.39999999999998 7.5 62l8.5 68.30000000000001c0.5 4 1 7.899999999999977 1.5 12.399999999999977 0.20000000000000284 1.8999999999999773 2 3.5 3.9000000000000057 3.5h78.4c1.8999999999999773 0 3.5-1.6000000000000227 3.3999999999999773-3.5-0.8999999999999773-28.30000000000001-1.799999999999983-57.39999999999998-2.6999999999999886-87.30000000000001-0.09999999999999432-1.8999999999999773 0.9000000000000057-2.8000000000000114 2.0999999999999943-1.8999999999999773 0.9000000000000057 0.5999999999999659 1.5999999999999943 1.099999999999966 2.200000000000017 1.599999999999966l132.5 101.40000000000003 5.699999999999989 4.399999999999977c1.5 1.1999999999999886 3 2.1000000000000227 3.1999999999999886 2.1000000000000227 0.19999999999998863 0 1.8000000000000114-0.6999999999999886 3.5-1.6999999999999886l38.60000000000002-20.700000000000045c7.399999999999977-4 14.800000000000011-8 22.5-12.199999999999989 1.6999999999999886-0.8999999999999773 1.8999999999999773-2.6999999999999886 0.39999999999997726-4-22.30000000000001-19.099999999999966-44.30000000000001-38.099999999999966-66.30000000000001-56.89999999999998-22.099999999999966-18.900000000000034-44.19999999999999-37.60000000000002-66.39999999999998-56.400000000000006-1.5-1.3000000000000114-2.5-2.5-2.3000000000000114-2.8000000000000114 0.20000000000001705-0.29999999999998295 1.9000000000000057-0.4000000000000057 3.9000000000000057-0.29999999999998295 47.099999999999994 3.299999999999983 94.20000000000002 6.699999999999989 141.6 10 1.900000000000034 0.09999999999999432 4-1.3000000000000114 4.5-3.1000000000000227 0.4000000000000341-1.1999999999999886 0.6999999999999886-2.299999999999983 1-3.3999999999999773l18.5-66.60000000000002 0.30000000000001137-0.6999999999999886c0.19999999999998863-0.4000000000000057 0.39999999999997726-0.9000000000000057 0.39999999999997726-1.0999999999999943 0-0.20000000000001705-1.599999999999966-0.5-3.5-0.700000000000017-8.5-0.5-17-1.299999999999983-25.5-1.8999999999999773z"/>
</svg>
