<svg xmlns="http://www.w3.org/2000/svg" viewBox="0 0 1000 1000" width="1000" height="1000">
<path d="M455.3 62.6h-102.19999999999999c-10.100000000000023 0-18.400000000000034 8.199999999999996-18.400000000000034 18.4v652.4c0 10.100000000000023-8.199999999999989 18.399999999999977-18.399999999999977 18.399999999999977h-83.20000000000002c-10.099999999999994 0-18.5 0.6000000000000227-18.799999999999983 1.3000000000000682s6.099999999999994 6.199999999999932 14.299999999999983 12.199999999999932c76.20000000000002 56.10000000000002 152.50000000000003 112.20000000000005 230.20000000000002 169.4000000000001 8.099999999999966 6 14.800000000000011 2.599999999999909 14.800000000000011-7.5v-846.3000000000001c0-10.09999999999998-8.200000000000045-18.299999999999976-18.30000000000001-18.299999999999976z m315.99999999999994 172.3c-76.19999999999993-56.099999999999994-152.5-112.2-230.19999999999993-169.4-8.100000000000023-6-14.800000000000068-2.6000000000000014-14.800000000000068 7.5v846c0 10.100000000000023 8.200000000000045 18.399999999999977 18.40000000000009 18.399999999999977h102.09999999999991c10.100000000000023 0 18.40000000000009-8.199999999999932 18.40000000000009-18.399999999999977v-652.2c0-10.099999999999966 8.199999999999932-18.39999999999995 18.399999999999977-18.39999999999995h83.29999999999995c10.100000000000023 0 18.5-0.5999999999999943 18.800000000000068-1.3000000000000114 0.09999999999990905-0.6999999999999886-6.300000000000068-6.199999999999989-14.400000000000091-12.199999999999989z"/>
</svg>
