<svg xmlns="http://www.w3.org/2000/svg" viewBox="0 0 1000 1000" width="1000" height="1000">
<path d="M155.7 228.9c-7.899999999999977-7.400000000000006-15.699999999999989-14.200000000000017-23-21.5-14.699999999999989-14.900000000000006-14.799999999999983-31.200000000000017-0.39999999999997726-46 12.199999999999989-12.5 24.5-24.900000000000006 37-37 14.199999999999989-13.800000000000011 30-13.800000000000011 44.29999999999998-0.20000000000000284 6.200000000000017 5.8999999999999915 12.400000000000006 11.799999999999997 18 18.200000000000003 4.900000000000006 5.5 8.400000000000006 5.699999999999989 14.700000000000017 1.1999999999999886 53.599999999999966-38.3 112.69999999999999-63.69999999999999 177.8-74.5 117.39999999999998-19.499999999999993 225.5 4 323.6 71.6 10 6.900000000000006 16 7.600000000000023 23.399999999999977-2.0999999999999943 4.399999999999977-5.900000000000006 10.199999999999932-10.799999999999997 15.699999999999932-15.799999999999997 12.200000000000045-11 27.100000000000023-11.700000000000003 39.200000000000045-0.7000000000000028 14.799999999999955 13.5 29.100000000000023 27.700000000000017 42.700000000000045 42.400000000000006 12 13 11 28.80000000000001-1.6000000000000227 41.900000000000006-7.399999999999977 7.699999999999989-15.600000000000023 14.699999999999989-22.700000000000045 21.400000000000006 121.60000000000002 177.8 123.39999999999998 355.09999999999997 6 537.2 5.300000000000068 4.399999999999977 12.5 9.299999999999955 18.200000000000045 15.600000000000023 10.299999999999955 11.100000000000023 11 26.199999999999932 0.8999999999999773 37.39999999999998-14.200000000000045 15.600000000000023-29.200000000000045 30.700000000000045-44.89999999999998 44.89999999999998-12 10.800000000000068-27.300000000000068 9.399999999999977-39-2.199999999999932-5.2000000000000455-5.2000000000000455-9.600000000000023-11.200000000000045-14.200000000000045-16.600000000000023-165.60000000000002 130.5-395.09999999999997 118.5-543 0.2999999999999545-6.399999999999977 6.7000000000000455-12.699999999999989 13.800000000000068-19.599999999999966 20.5-14.400000000000006 14.100000000000023-31 14-45.10000000000002 0.10000000000002274-12.699999999999989-12.5-25.399999999999977-25.100000000000023-37.79999999999998-37.799999999999955-13.200000000000003-13.600000000000023-13.300000000000011-29.700000000000045 0.09999999999999432-43.30000000000007 7.199999999999989-7.399999999999977 15.199999999999989-14.100000000000023 23.099999999999994-21.299999999999955-58.19999999999999-81.20000000000005-87.69999999999999-169.70000000000005-86.5-267.90000000000003 1.1000000000000085-98.5 32.80000000000001-186.2 93.1-265.79999999999995z m462.09999999999997 463.5c-5.099999999999909-13.299999999999955-5.099999999999909-25.799999999999955 5.2000000000000455-36.39999999999998 13-13.299999999999955 26.100000000000023-26.399999999999977 39.39999999999998-39.39999999999998 7.300000000000068-7.100000000000023 16.200000000000045-10.700000000000045 26.5-8.100000000000023 6.2000000000000455 1.6000000000000227 9.200000000000045-0.2999999999999545 11.899999999999977-6.100000000000023 34.40000000000009-72.39999999999998 32.60000000000002-143.79999999999995-5.199999999999932-214.5-3.6000000000000227-6.7999999999999545-7.5-11.299999999999955-16.600000000000023-11.699999999999989-5.899999999999977-0.30000000000001137-12.399999999999977-4.800000000000011-17.100000000000023-9.099999999999966-12.799999999999955-11.800000000000011-25.199999999999932-24.200000000000045-37-37-4.2999999999999545-4.7000000000000455-6.399999999999977-11.300000000000011-9.899999999999977-16.80000000000001-2.7000000000000455-4.300000000000011-5.2000000000000455-9.900000000000034-9.399999999999977-12-69.70000000000005-36.400000000000034-139.8-36.19999999999999-210.20000000000005-1.8000000000000114-6.7999999999999545 3.3000000000000114-10.599999999999966 7.399999999999977-12 15.5-1.099999999999966 6-5.599999999999966 12-10 16.69999999999999-11.099999999999966 12-22.299999999999955 24-34.799999999999955 34.5-6.300000000000011 5.300000000000011-15.5 7.199999999999989-23.200000000000045 10.900000000000034-3.2999999999999545 1.599999999999966-7.5 3.3999999999999773-9.099999999999966 6.2999999999999545-41.69999999999999 73.20000000000005-43.60000000000002 147.70000000000005-5.699999999999989 222.89999999999998 1.5 3.1000000000000227 6.099999999999966 4.900000000000091 9.699999999999989 6.600000000000023 6.800000000000011 3.300000000000068 15.099999999999966 4.7000000000000455 20.5 9.5 13.599999999999966 12 26.599999999999966 24.899999999999977 38.599999999999966 38.60000000000002 4.900000000000034 5.7000000000000455 8.600000000000023 14.200000000000045 9 21.600000000000023 0.4000000000000341 7.2999999999999545 3.1000000000000227 10.299999999999955 8.600000000000023 13.399999999999977 30.100000000000023 17.100000000000023 62.30000000000001 27.200000000000045 96.89999999999998 29.5 47.89999999999998 3.2000000000000455 92.39999999999998-7.7999999999999545 133.89999999999998-33.10000000000002z m110 112.89999999999998l-80.5-80.59999999999991c-98.59999999999991 58.299999999999955-197.69999999999993 58.19999999999993-295.69999999999993-0.20000000000004547l-80.5 80.5c125.59999999999997 100.89999999999998 323.69999999999993 104.89999999999998 456.69999999999993 0.2999999999999545z m-5-453.09999999999997c2.2000000000000455 3.6000000000000227 4.300000000000068 7 6.400000000000091 10.5 23.59999999999991 39.69999999999999 36.09999999999991 82.60000000000002 37.5 128.7 1.599999999999909 49.700000000000045-9.800000000000068 96.30000000000007-34.30000000000007 139.60000000000002-3.5 6.2999999999999545-3.199999999999932 10 2 15.100000000000023 23.399999999999977 22.799999999999955 46.30000000000007 46.10000000000002 69.5 69.19999999999993 1.8999999999999773 1.900000000000091 4.300000000000068 3.5 6.399999999999977 5.2000000000000455 101.20000000000005-140.10000000000002 88.20000000000005-331.3-6.699999999999932-449.3-26.600000000000023 26.80000000000001-53.39999999999998 53.5-80.80000000000007 81z m-527.9-81.39999999999998c-104.59999999999998 135.5-98.09999999999998 325.90000000000003-5.999999999999972 449.8 25-25 49.69999999999999-50.10000000000002 74.99999999999997-74.70000000000005 5.7000000000000455-5.5 5.600000000000023-9.199999999999932 1.900000000000034-15.899999999999977-32.5-59.60000000000002-41.70000000000002-122.80000000000001-27.200000000000017-189.2 7-32.10000000000002 20.099999999999994-61.69999999999999 37.599999999999994-88.69999999999999-27.399999999999977-27.30000000000001-54.099999999999994-54.10000000000002-81.29999999999998-81.30000000000001z m524.6-82.4c-145.79999999999995-104.10000000000001-331.3-83-440.3 1.4000000000000057 24.5 24.399999999999977 49.19999999999999 48.599999999999994 73.10000000000002 73.39999999999998 6.399999999999977 6.699999999999989 10.800000000000011 6.800000000000011 18.69999999999999 2.5 64.19999999999999-35 131.8-43.29999999999998 202-22.599999999999994 22.5 6.599999999999994 44 17.00000000000003 65.89999999999998 25.700000000000017 26.200000000000045-26.100000000000023 53.30000000000007-53.10000000000002 80.60000000000002-80.4z"/>
</svg>
