<svg xmlns="http://www.w3.org/2000/svg" viewBox="0 0 1000 1000" width="1000" height="1000">
<path d="M240.5 552l184.3 79.89999999999998c1.6999999999999886 0.7000000000000455 3-0.1999999999999318 3-2v-47c0-1.7999999999999545-1.400000000000034-3.7999999999999545-3.1000000000000227-4.5l-126.5-49.799999999999955c-1.6999999999999886-0.7000000000000455-1.6999999999999886-1.7000000000000455 0-2.3999999999999773l126.5-48.700000000000045c1.6999999999999886-0.6999999999999886 3.1000000000000227-2.6000000000000227 3.1000000000000227-4.5v-47.39999999999998c0-1.8000000000000114-1.3000000000000114-2.7000000000000455-3-2l-184.3 79.89999999999998c-1.6999999999999886 0.6999999999999886-3 2.8000000000000114-3 4.600000000000023v39.19999999999993c0 1.900000000000091 1.3000000000000114 3.900000000000091 3 4.7000000000000455z m229.5 117.60000000000002c5.199999999999989 0 9.100000000000023-1.2000000000000455 11.800000000000011-3.5 2.6999999999999886-2.300000000000068 4.699999999999989-5.600000000000023 6.099999999999966-9.700000000000045 1.3000000000000114-4.100000000000023 2.900000000000034-9.799999999999955 4.600000000000023-17l53-218.09999999999997c2.6000000000000227-10.300000000000011 4-17.5 4-21.400000000000034 0-5.2999999999999545-1.7000000000000455-9.5-5-12.5-3.3999999999999773-3-8.200000000000045-4.5-14.5-4.5-7.2999999999999545 0-12.200000000000045 2.1000000000000227-14.799999999999955 6.5-2.5 4.300000000000011-5.100000000000023 12.200000000000045-7.900000000000034 23.80000000000001l-52.80000000000001 218.09999999999997c-2.5 11.600000000000023-3.8000000000000114 18.800000000000068-3.8000000000000114 21.700000000000045 0 11.100000000000023 6.400000000000034 16.600000000000023 19.30000000000001 16.600000000000023z m105.20000000000005-37.39999999999998l184.29999999999995-80.20000000000005c1.7000000000000455-0.7000000000000455 3-2.7999999999999545 3-4.600000000000023v-38.799999999999955c0-1.8000000000000114-1.2999999999999545-3.900000000000034-3-4.600000000000023l-184.29999999999995-79.5c-1.7000000000000455-0.6999999999999886-3 0.19999999999998863-3 2v46.5c0 1.8000000000000114 1.3999999999999773 3.8000000000000114 3.099999999999909 4.5l126.90000000000009 49.10000000000002c1.6999999999999318 0.6999999999999318 1.6999999999999318 1.6999999999999318 0 2.3999999999999773l-126.90000000000009 49.799999999999955c-1.6999999999999318 0.7000000000000455-3.099999999999909 2.7000000000000455-3.099999999999909 4.5v47c0 1.7000000000000455 1.2999999999999545 2.6000000000000227 3 1.900000000000091z m309.79999999999995-517.2h-770c-29 0-52.5 23.5-52.5 52.5v665c0 29 23.5 52.5 52.5 52.5h770c29 0 52.5-23.5 52.5-52.5v-665c0-29-23.5-52.5-52.5-52.5z m0 717.5h-770v-577.5h770v577.5z"/>
</svg>
