<svg xmlns="http://www.w3.org/2000/svg" viewBox="0 0 1000 1000" width="1000" height="1000">
<path d="M103.7 906.5v14.399999999999977c0 9.100000000000023 7.299999999999997 16.5 16.5 16.5h759.8c9.100000000000023 0 16.5-7.2999999999999545 16.5-16.5v-14.399999999999977c0-9.100000000000023-7.2999999999999545-16.5-16.5-16.5h-35.5s-8.399999999999977-7.2999999999999545-8.399999999999977-16.5v-794.5c0-9.099999999999994-7.300000000000068-16.5-16.5-16.5h-176c-9.100000000000023 0-16.5 7.299999999999997-16.5 16.5v794.5c0 9.100000000000023-6.100000000000023 16.5-13.700000000000045 16.5s-13.699999999999932-7.2999999999999545-13.699999999999932-16.5v-530c0-9.100000000000023-7.300000000000068-16.5-16.5-16.5h-175.60000000000002c-9.100000000000023 0-16.5 7.300000000000011-16.5 16.5v530c0 9.100000000000023-6.2000000000000455 16.5-14 16.5s-14-7.2999999999999545-14-16.5v-399.7c0-9.100000000000023-7.300000000000011-16.5-16.5-16.5h-175.8c-9.100000000000023 0-16.5 7.300000000000011-16.5 16.5v399.7c0 9.100000000000023-1.6000000000000227 16.5-3.5 16.5h-30.60000000000001c-9.200000000000003 0-16.5 7.399999999999977-16.5 16.5z m564.0999999999999-820.4h127.60000000000002c9.100000000000023-2.842170943040401e-14 16.5 7.299999999999983 16.5 16.49999999999997v89.6c0 9.100000000000023-7.2999999999999545 16.5-16.5 16.5h-127.60000000000002c-9.099999999999909 0-16.5-7.299999999999983-16.5-16.5v-89.69999999999999c0-9.099999999999994 7.300000000000068-16.400000000000006 16.5-16.400000000000006z m-236.39999999999998 264.79999999999995h128c9.100000000000023 0 16.5 7.300000000000011 16.5 16.5v267.4c0 9.100000000000023-7.2999999999999545 16.5-16.5 16.5h-128c-9.099999999999966 0-16.5-7.2999999999999545-16.5-16.5v-267.4c0-9.099999999999966 7.400000000000034-16.5 16.5-16.5z m-252.89999999999998 231.39999999999998v-84.49999999999994c0-9.100000000000023 7.300000000000011-16.5 16.5-16.5h127.60000000000002c9.099999999999966 0 16.5 7.300000000000011 16.5 16.5v84.49999999999994c0 9.100000000000023-7.300000000000011 16.5-16.5 16.5h-127.60000000000002c-9.099999999999994 0.10000000000002274-16.5-7.399999999999977-16.5-16.5z"/>
</svg>
