<svg xmlns="http://www.w3.org/2000/svg" viewBox="0 0 1000 1000" width="1000" height="1000">
<path d="M62.5 498.3c-0.20000000000000284 242.90000000000003 196.39999999999998 439.40000000000003 439.3 439.2 239.3-0.20000000000004547 435.7-197.70000000000005 435.7-438.2 0-240.7-196.79999999999995-437-438-436.8-239.5 0.20000000000000284-436.9 196.89999999999998-437 435.8z m824.8 2.8000000000000114c-0.39999999999997726 212.89999999999998-174.5999999999999 386.5-387.69999999999993 386.19999999999993-213.70000000000005-0.2999999999999545-387.1-174.19999999999993-386.90000000000003-387.99999999999994 0.20000000000001705-212.40000000000003 176.10000000000002-387.3 389.1-386.6 212.7 0.700000000000017 385.90000000000003 175.2 385.49999999999994 388.40000000000003z m-432.79999999999995-16.600000000000023c-1 3.6999999999999886-1.6000000000000227 7.5-1.6000000000000227 11.5-0.2999999999999545 25.700000000000045 19.80000000000001 46.10000000000002 45.60000000000002 46 15.5 0 29.299999999999955-7.7000000000000455 37.799999999999955-19.399999999999977 2.1000000000000227-2.8999999999999773 3.7000000000000455-5.5 4.100000000000023-5.5h0.7000000000000455c94.19999999999993 0.1999999999999318 188.5 0.10000000000002274 282.69999999999993 0.10000000000002274h8c3.5 0 6.400000000000091-2.900000000000091 6.400000000000091-6.400000000000034v-20.19999999999999c0-3.5-2.900000000000091-6.400000000000034-6.400000000000091-6.400000000000034h-7.399999999999977c-93.5 0-186.89999999999998 0-280.4 0.10000000000002274h-0.2999999999999545c-0.10000000000002274 0-1-2.8000000000000114-2.400000000000091-6.100000000000023-7.099999999999909-16.30000000000001-23.399999999999977-28-41.99999999999994-28.099999999999966-4.199999999999989 0-8.300000000000011 0.5999999999999659-12.199999999999989 1.6999999999999886-3.400000000000034 1-8.100000000000023 0.19999999999998863-10.700000000000045-2.3000000000000114-34-33-67.89999999999998-66.10000000000002-101.5-99.39999999999998-11-10.900000000000034-21.399999999999977-22.5-31.899999999999977-33.900000000000034-2.3999999999999773-2.599999999999966-6.399999999999977-2.6999999999999886-8.899999999999977-0.19999999999998863-6 6-11.100000000000023 11.100000000000023-16.400000000000034 16.30000000000001-2.5 2.5-2.5 6.599999999999966 0 9 45.30000000000001 44.5 90 88.39999999999998 134.5 132.59999999999997 2.3000000000000114 2.5 3.1999999999999886 7.100000000000023 2.3000000000000114 10.600000000000023z m22.80000000000001 325.6c-0.19999999999998863 12.100000000000023 9.300000000000011 21.600000000000023 21.399999999999977 21.600000000000023 11.900000000000034 0 21.69999999999999-9.700000000000045 21.80000000000001-21.40000000000009 0.10000000000002274-11.699999999999932-9.800000000000011-21.699999999999932-21.5-21.699999999999932-11.800000000000011 0-21.5 9.699999999999932-21.69999999999999 21.5z m154.3-579.2c-0.10000000000002274 12.400000000000034 9 21.700000000000017 21.199999999999932 21.700000000000017 12 0 21.90000000000009-9.400000000000006 22.200000000000045-21.099999999999994 0.2999999999999545-11.300000000000011-9.799999999999955-21.599999999999994-21.600000000000023-22-11.899999999999977-0.30000000000001137-21.699999999999932 9.400000000000006-21.799999999999955 21.400000000000006z m-150.8-39.599999999999966c0.19999999999998863 11.899999999999977 9.899999999999977 21.399999999999977 21.80000000000001 21.19999999999999 11.899999999999977-0.19999999999998863 21.399999999999977-9.900000000000006 21.199999999999932-21.80000000000001-0.1999999999999318-11.899999999999977-10-21.399999999999977-21.799999999999955-21.19999999999999-12 0.19999999999998863-21.399999999999977 9.900000000000006-21.19999999999999 21.80000000000001z m-228.3 155.7c-0.09999999999999432-12.199999999999989-9.800000000000011-21.899999999999977-21.599999999999994-21.5-11.300000000000011 0.39999999999997726-21.099999999999994 10.100000000000023-21.30000000000001 21.19999999999999-0.19999999999998863 11.900000000000034 9.400000000000006 21.600000000000023 21.5 21.69999999999999 12.300000000000011 0.10000000000002274 21.5-9.099999999999966 21.400000000000006-21.399999999999977z m115.89999999999998 422.20000000000005c-0.2999999999999545-11.700000000000045-9.599999999999966-21.100000000000023-20.899999999999977-21.200000000000045-11.399999999999977-0.10000000000002274-22 10.399999999999977-21.899999999999977 21.799999999999955 0.0999999999999659 12.100000000000023 9.699999999999989 21.40000000000009 21.899999999999977 21.200000000000045 12.300000000000011-0.10000000000002274 21.19999999999999-9.399999999999977 20.899999999999977-21.799999999999955z m377.4-422.70000000000005c0.20000000000004547 11 10.200000000000045 21.100000000000023 21.300000000000068 21.399999999999977 11.5 0.30000000000001137 21.699999999999932-9.799999999999955 22-21.599999999999966 0.2999999999999545-11.699999999999989-9.5-21.400000000000034-21.700000000000045-21.400000000000034-12.100000000000023-0.0999999999999659-21.799999999999955 9.600000000000023-21.600000000000023 21.600000000000023z m2.400000000000091 307.6c0.1999999999999318 11.699999999999932 9.299999999999955 20.899999999999977 20.899999999999977 21.100000000000023 12.299999999999955 0.1999999999999318 21.799999999999955-8.900000000000091 21.899999999999977-21 0.10000000000002274-12.200000000000045-9.399999999999977-22.100000000000023-21.100000000000023-22.100000000000023-11.399999999999977 0.10000000000002274-21.899999999999977 10.600000000000023-21.699999999999932 22z m-535.7-155.60000000000002c-0.19999999999998863-11.699999999999989-10.099999999999994-21.30000000000001-21.900000000000006-21.19999999999999-11.900000000000006 0.0999999999999659-21.400000000000006 10-21.099999999999994 21.80000000000001 0.30000000000001137 11.899999999999977 10.099999999999994 21.5 21.80000000000001 21.299999999999955 11.699999999999989-0.1999999999999318 21.399999999999977-10.199999999999989 21.19999999999999-21.899999999999977z m41.599999999999994 156.89999999999998c0.5-11.699999999999932-9.299999999999983-21.600000000000023-21.5-21.600000000000023-12.099999999999994-0.09999999999990905-21.400000000000006 9.300000000000068-21.299999999999983 21.600000000000023 0 12.100000000000023 9.799999999999983 21.800000000000068 21.69999999999999 21.5 10.5-0.1999999999999318 20.69999999999999-10.600000000000023 21.099999999999994-21.5z m113.6-422.79999999999995c0.19999999999998863-11.500000000000028-9.800000000000011-21.400000000000034-21.899999999999977-21.400000000000034-12 0-21.19999999999999 9.600000000000023-21 21.900000000000006 0.19999999999998863 11.700000000000017 9.199999999999989 20.80000000000001 20.899999999999977 21.200000000000017 11.300000000000011 0.29999999999998295 21.80000000000001-10 22-21.700000000000017z m266.09999999999997 536.6999999999999c0.20000000000004547 11.700000000000045 9.200000000000045 20.90000000000009 20.90000000000009 21.200000000000045 11.299999999999955 0.2999999999999545 21.799999999999955-10 22-21.700000000000045 0.1999999999999318-12-9.5-21.399999999999977-21.800000000000068-21.399999999999977-12.100000000000023 0.10000000000002274-21.199999999999932 9.600000000000023-21.100000000000023 21.899999999999977z"/>
</svg>
