<svg xmlns="http://www.w3.org/2000/svg" viewBox="0 0 1000 1000" width="1000" height="1000">
<path d="M782.7 298.1h-57.30000000000007c-55.5-61.80000000000001-135.69999999999993-100.90000000000003-225.5-100.90000000000003-89.5 0-169.7 39.10000000000002-225.29999999999995 100.90000000000003h-57.30000000000001c-85.5 0-154.8 69.39999999999998-154.8 154.79999999999995v94.30000000000007c0 85.5 69.30000000000001 154.79999999999995 154.8 154.79999999999995h57.30000000000001c55.5 61.799999999999955 135.7 100.89999999999998 225.29999999999995 100.89999999999998 89.70000000000005 0 169.89999999999998-39.10000000000002 225.5-100.89999999999998h57.30000000000007c85.39999999999998 0 154.79999999999995-69.29999999999995 154.79999999999995-154.79999999999995v-94.30000000000007c0-85.39999999999998-69.39999999999998-154.79999999999995-154.79999999999995-154.79999999999995z m-458.90000000000003 306.5h-49.30000000000001l-21.69999999999999-127.70000000000005-21.200000000000017 127.70000000000005h-48.79999999999998l-46.5-207.20000000000005h55.5l16.099999999999994 121.30000000000007 21.19999999999999-121.30000000000007h48.79999999999998l20.700000000000045 121.30000000000007 16.599999999999966-121.80000000000007h54.60000000000002l-46 207.70000000000005z m94.59999999999997-219.70000000000005c15.900000000000034 0 28.900000000000034 12 28.900000000000034 26.80000000000001s-13 26.80000000000001-28.900000000000034 26.80000000000001c-16.099999999999966 0-29.099999999999966-12-29.099999999999966-26.80000000000001s13-26.80000000000001 29.099999999999966-26.80000000000001z m-25.5 68.90000000000003h49.80000000000001v149.8h-49.80000000000001v-149.8z m510.9 93.40000000000003c0 66.69999999999993-54.39999999999998 121.09999999999991-121.09999999999991 121.09999999999991h-350.00000000000006c47.19999999999999 0 67.19999999999999-54.39999999999998 67.19999999999999-121.09999999999991v-94.30000000000007c0-66.69999999999999 54.39999999999998-121.09999999999997 121.30000000000007-121.09999999999997h161.5c66.69999999999993 0 121.09999999999991 54.39999999999998 121.09999999999991 121.09999999999997v94.30000000000007z m-121.79999999999995-93.40000000000003h49.799999999999955v149.8h-49.799999999999955v-149.8z m54.39999999999998-42.10000000000002c0 14.800000000000011-13 26.80000000000001-28.899999999999977 26.80000000000001-16.100000000000023 0-28.899999999999977-12-28.899999999999977-26.80000000000001s12.799999999999955-26.80000000000001 28.899999999999977-26.80000000000001c16 0 28.899999999999977 12 28.899999999999977 26.80000000000001z m-251-14.300000000000011h165.80000000000007v48.60000000000002h-112.40000000000009v46h101.40000000000009v48.10000000000002h-101.40000000000009v62.89999999999998h-53.39999999999998v-205.60000000000002z"/>
</svg>
