<svg xmlns="http://www.w3.org/2000/svg" viewBox="0 0 1000 1000" width="1000" height="1000">
<path d="M760.4 720.3c-42.799999999999955-43.19999999999993-97.29999999999995-60.5-153.69999999999993-73.09999999999991-6.300000000000068-1.400000000000091-16 7-16.40000000000009 13.5-0.39999999999997726 8.5 7.400000000000091 5.599999999999909 11.300000000000068 8.099999999999909 0.5 0.40000000000009095 1.1999999999999318 0.20000000000004547 1.8999999999999773 0.40000000000009095 34.5 9.199999999999932 67.5 22 95.89999999999998 45.19999999999993 44.5 36.39999999999998 46 86.5 1.8999999999999773 123.39999999999998-16 13.300000000000068-34.5 24.800000000000068-53.59999999999991 32.40000000000009-48.700000000000045 19.199999999999932-98.10000000000002 28.199999999999932-147.70000000000005 27.799999999999955-49.60000000000002 0.39999999999997726-99-8.700000000000045-147.8-28.100000000000023-19.099999999999966-7.600000000000023-37.599999999999966-19.100000000000023-53.599999999999966-32.39999999999998-44.20000000000002-36.799999999999955-42.70000000000002-86.89999999999998 1.8999999999999773-123.39999999999998 28.399999999999977-23.200000000000045 61.30000000000001-36 95.89999999999998-45.200000000000045 0.6000000000000227-0.1999999999999318 1.400000000000034 0 1.900000000000034-0.39999999999997726 3.8999999999999773-2.5 11.699999999999989 0.39999999999997726 11.300000000000011-8.100000000000023-0.4000000000000341-6.5-10.100000000000023-14.899999999999977-16.400000000000034-13.5-56.39999999999998 12.600000000000023-110.89999999999998 29.800000000000068-153.7 73.10000000000002-42.19999999999999 42.60000000000002-40.30000000000001 96.5 3.5999999999999943 137.60000000000002 33.50000000000003 31.299999999999955 73.79999999999998 48.69999999999993 116.29999999999998 61 49.400000000000034 14.299999999999955 100.10000000000002 19.100000000000023 135 18.799999999999955 1.8000000000000114 0 3.7000000000000455-0.10000000000002274 5.5-0.1999999999999318l5.5 0.1999999999999318c35 0.3000000000000682 85.60000000000002-4.600000000000023 135-18.799999999999955 42.5-12.300000000000068 82.80000000000007-29.700000000000045 116.30000000000007-61 44.09999999999991-40.80000000000007 45.89999999999998-94.70000000000005 3.699999999999932-137.30000000000007z m-405-282.49999999999994c0.10000000000002274 17.899999999999977 12.200000000000045 30.80000000000001 28.600000000000023 31.30000000000001 18.100000000000023 0.5999999999999659 31.100000000000023-12.100000000000023 31.19999999999999-31.200000000000045 0.19999999999998863-47.599999999999966 0-95.19999999999999 0.30000000000001137-142.79999999999995 0-3.900000000000034 2.6000000000000227-7.900000000000034 4-11.800000000000011 1.3000000000000114 4 3.8999999999999773 8.099999999999966 3.8999999999999773 12 0.20000000000004547 129.89999999999998 0.20000000000004547 259.90000000000003 0.20000000000004547 389.8-1.400000000000034-0.39999999999997726-3.1000000000000227-0.39999999999997726-5 0.2999999999999545-24.700000000000045 8.300000000000068-48.10000000000002 19.300000000000068-63.5 42.60000000000002-10.900000000000034 16.399999999999977-9.900000000000034 37.10000000000002 1.7999999999999545 53.10000000000002 13.700000000000045 18.899999999999977 32.700000000000045 29.799999999999955 53.60000000000002 37.10000000000002 29.899999999999977 10.5 59.89999999999998 16 89.60000000000002 16h0.5c29.799999999999955 0 59.69999999999993-5.5 89.60000000000002-16 20.799999999999955-7.400000000000091 39.89999999999998-18.200000000000045 53.59999999999991-37.10000000000002 11.600000000000023-16 12.5-36.80000000000007 1.8000000000000682-53.10000000000002-15.399999999999977-23.299999999999955-38.80000000000007-34.299999999999955-63.5-42.60000000000002-1.5-0.5-2.7000000000000455-0.6000000000000227-3.8999999999999773-0.39999999999997726v-168c0-73.60000000000002-0.10000000000002274-147.2 0.1999999999999318-220.7 0-4.300000000000011 2.3999999999999773-8.600000000000023 3.6000000000000227-12.900000000000034 1.2999999999999545 4.300000000000011 3.8999999999999773 8.5 3.8999999999999773 12.800000000000011 0.3000000000000682 46.10000000000002 0.20000000000004547 92.19999999999999 0.20000000000004547 138.3 0 11 2.5 20.899999999999977 11.899999999999977 27.69999999999999 9.799999999999955 7.100000000000023 20.399999999999977 8.400000000000034 31.299999999999955 3 12.5-6.099999999999966 17-17.30000000000001 17-30.30000000000001 0.20000000000004547-53.5 0.8000000000000682-106.79999999999995-0.1999999999999318-160.29999999999995-0.8000000000000682-47.80000000000001-34.10000000000002-79.10000000000002-81.89999999999998-79.20000000000002-43.200000000000045-0.09999999999999432-86.50000000000006-0.30000000000001137-129.60000000000002 0.09999999999999432-45.60000000000002 0.30000000000001137-78.80000000000001 33.80000000000001-78.90000000000003 79.19999999999999-0.0999999999999659 22.80000000000001 0 45.5 0 68.30000000000001-0.39999999999997726 31.80000000000001-0.5 63.30000000000001-0.30000000000001137 94.80000000000001z m91.10000000000002 334.2c24.899999999999977 8 47.30000000000001-8 47.30000000000001-34.200000000000045l0.19999999999998863-221.5999999999999c0-5.400000000000034-2.1000000000000227-13.700000000000045 6.399999999999977-13.700000000000045 8.800000000000011 0 6.2000000000000455 8.399999999999977 6.2000000000000455 13.700000000000045 0.19999999999998863 72.69999999999993-0.10000000000002274 145.39999999999998 0.39999999999997726 218.0999999999999 0.10000000000002274 8.100000000000023 1.8999999999999773 17.100000000000023 5.7999999999999545 24.100000000000023 7.600000000000023 13.700000000000045 24.5 18.600000000000023 40.700000000000045 13.800000000000068 15-4.400000000000091 24.200000000000045-16.90000000000009 24.200000000000045-33.5v-30.90000000000009c4.599999999999909 1.8000000000000682 9.199999999999932 3.900000000000091 13.5 6.5 12.699999999999932 7.5 25.199999999999932 16.5 25.199999999999932 33.5s-12.299999999999955 26-25.299999999999955 33.30000000000007c-26.399999999999977 15-55.200000000000045 18.899999999999977-81.90000000000003 19.299999999999955-3 0-6-0.10000000000002274-8.899999999999977-0.1999999999999318h-0.5l-8.900000000000034 0.1999999999999318c-26.799999999999955-0.39999999999997726-55.599999999999966-4.2999999999999545-81.89999999999998-19.299999999999955-13-7.399999999999977-25.30000000000001-16.399999999999977-25.30000000000001-33.30000000000007s12.400000000000034-25.899999999999977 25.19999999999999-33.5c4.600000000000023-2.699999999999932 9.600000000000023-4.899999999999977 14.600000000000023-6.899999999999977v24.200000000000045c0 3.5 0 7 0.19999999999998863 10.5 0.5 14 9.600000000000023 25.699999999999932 22.80000000000001 29.899999999999977z m53.19999999999999-585.1c35.50000000000006 0.10000000000002274 62.69999999999999-26.799999999999983 62.69999999999999-62.09999999999998 0.10000000000002274-34.7-27.399999999999977-62.3-61.89999999999998-62.3-34.69999999999999-0.10000000000000142-63.30000000000001 28.5-62.69999999999999 62.8 0.5 34.10000000000001 28 61.500000000000014 61.89999999999998 61.60000000000001z"/>
</svg>
