<svg xmlns="http://www.w3.org/2000/svg" viewBox="0 0 1000 1000" width="1000" height="1000">
<path d="M256.6 397.2c-2.6000000000000227 5.699999999999989-2.900000000000034 9.800000000000011 2 14.400000000000034 18.19999999999999 17 35.39999999999998 35.19999999999999 54.39999999999998 51.19999999999999 62.10000000000002 52.400000000000034 130.60000000000002 95.30000000000001 202.60000000000002 132.49999999999994 59 30.40000000000009 119.69999999999993 56.60000000000002 184.69999999999993 71.5 6.100000000000023 1.400000000000091 10 0.40000000000009095 13.900000000000091-5 47.89999999999998-65.59999999999991 64.59999999999991-138.39999999999998 47.39999999999998-217.59999999999997-26.300000000000068-120.80000000000001-132.20000000000005-208.2-262.6-209.39999999999998-10.600000000000023 0.8999999999999773-25 0.8999999999999773-38.89999999999998 3.5-95.30000000000001 17.5-163.40000000000003 70.30000000000001-203.5 158.89999999999998z m657.6999999999999 271.7c-21.59999999999991-34.19999999999993-49.59999999999991-63.10000000000002-79-90.5-16-15-32.799999999999955-29.199999999999932-49.5-43.799999999999955-2.3999999999999773-2.1000000000000227-4.899999999999977-1.3000000000000682-5.599999999999909 1.8999999999999773-4 18.5-7.600000000000023 35.89999999999998-11.800000000000068 53.200000000000045-1.2999999999999545 5.399999999999977-0.6000000000000227 9.099999999999909 2.300000000000068 14.099999999999909 7.7999999999999545 13.600000000000023 16.199999999999932 27.40000000000009 20.799999999999955 42.200000000000045 5.399999999999977 17.399999999999977-3.2999999999999545 30.399999999999977-21.200000000000045 35-10.199999999999932 2.6000000000000227-21.299999999999955 4.5-31.59999999999991 3.2000000000000455-23-2.800000000000068-46.200000000000045-6.2000000000000455-68.5-12.300000000000068-73.10000000000002-19.899999999999977-141-52.39999999999998-206.50000000000006-89.79999999999995-76.39999999999998-43.60000000000002-149.09999999999997-92.40000000000003-210.39999999999998-156.40000000000003-18.400000000000006-19.19999999999999-35.80000000000001-39.39999999999998-44-65.5-6.900000000000006-21.80000000000001 0.8999999999999773-36.599999999999966 23.399999999999977-41.19999999999999 12.700000000000017-2.6000000000000227 26.30000000000001-1.1000000000000227 39.400000000000034-1.8999999999999773 4.7999999999999545-0.30000000000001137 10.799999999999955-0.4000000000000341 14.099999999999966-3.2000000000000455 14.100000000000023-11.899999999999977 27.5-24.599999999999966 41.5-37.5 2.400000000000034-2.1999999999999886 3.6000000000000227-4.2999999999999545 2.8000000000000114-4.7999999999999545-0.5-0.30000000000001137-1-0.5-1.6000000000000227-0.7000000000000455-43.299999999999955-12.899999999999977-86.19999999999999-27.099999999999966-129.89999999999998-38.19999999999999-30.69999999999999-7.799999999999983-62.5-10.399999999999977-94.3-4.5-35 6.5-50 30-38.3 63.69999999999999 5.599999999999994 16.100000000000023 13.899999999999991 32 23.69999999999999 46.10000000000002 39.5 57.10000000000002 91.4 102.10000000000002 145.5 144.60000000000002 97.00000000000003 76.29999999999995 201.9 140 312.79999999999995 193.89999999999998 80 38.89999999999998 162.10000000000002 72.79999999999995 249.70000000000005 91 32.10000000000002 6.7000000000000455 64.5 10.799999999999955 97.19999999999993 4.899999999999977 35.40000000000009-6.399999999999977 50.10000000000002-30.600000000000023 38.200000000000045-64.60000000000002-4.7999999999999545-13.599999999999909-11.5-26.699999999999932-19.200000000000045-38.89999999999998z m-282.5 65c2.900000000000091-1.5 2.800000000000068-3.699999999999932-0.1999999999999318-5-140.5-59.39999999999998-269.70000000000005-134.10000000000002-390.8-225.39999999999998-2.6000000000000227-1.8999999999999773-4.700000000000017-0.8999999999999773-4.800000000000011 2.3000000000000114-0.30000000000001137 86.69999999999999 48.89999999999998 183.99999999999994 143.5 231.7 84.19999999999999 42.5 167.89999999999998 39.5 252.29999999999995-3.6000000000000227z"/>
</svg>
