<svg xmlns="http://www.w3.org/2000/svg" viewBox="0 0 1000 1000" width="1000" height="1000">
<path d="M865.3 62.5h-730.5999999999999c-40.10000000000005 0-72.20000000000005 32.5-72.20000000000005 72.19999999999999v730.7c0 39.69999999999993 32.099999999999994 72.19999999999993 72.19999999999999 72.19999999999993h730.7c39.69999999999993 0 72.19999999999993-32.5 72.19999999999993-72.20000000000005v-730.7c-0.10000000000002274-39.69999999999993-32.60000000000002-72.19999999999993-72.30000000000007-72.19999999999993z m-63.5 466.5c-0.6999999999999318 9-2.199999999999932 19.100000000000023-4.699999999999932 30.299999999999955h-237.70000000000005v237.80000000000007c-11.199999999999932 2.5-21.699999999999932 4.2999999999999545-31.399999999999977 5.100000000000023-9.700000000000045 0.6999999999999318-19.80000000000001 1.099999999999909-30.30000000000001 1.099999999999909-9 0-17.69999999999999-0.39999999999997726-26.69999999999999-1.099999999999909-9-0.7000000000000455-19.100000000000023-2.5-30.30000000000001-5.100000000000023v-237.70000000000005h-237.5c-2.5-11.199999999999932-4.299999999999983-21.699999999999932-5.099999999999994-31.399999999999977-0.6999999999999886-9.700000000000045-1.0999999999999943-19.80000000000001-1.0999999999999943-30.30000000000001 0-9 0.4000000000000057-17.69999999999999 1.0999999999999943-26.69999999999999 0.700000000000017-9 2.5-19.100000000000023 5.099999999999994-30.30000000000001h237.40000000000003v-237.5c11.199999999999989-2.5 21.599999999999966-4 31.399999999999977-4.699999999999989 9.699999999999989-1.0999999999999943 19.80000000000001-1.4000000000000057 30.30000000000001-1.4000000000000057 9 0 17.999999999999943 0.4000000000000057 26.69999999999999 1.4000000000000057 9 0.6999999999999886 19.100000000000023 2.1999999999999886 30.299999999999955 4.699999999999989v237.40000000000003h237.80000000000007c2.5 11.199999999999989 4 21.599999999999966 4.699999999999932 31.399999999999977 1.1000000000000227 9.699999999999989 1.400000000000091 19.80000000000001 1.400000000000091 30.30000000000001 0.09999999999990905 9.099999999999966-0.3000000000000682 18.099999999999966-1.400000000000091 26.69999999999999z"/>
</svg>
