<svg xmlns="http://www.w3.org/2000/svg" viewBox="0 0 1000 1000" width="1000" height="1000">
<path d="M191.7 419.1c-32-0.10000000000002274-63.89999999999999-0.10000000000002274-95.89999999999999 0-23.89999999999999 0-33.3 9.399999999999977-33.3 33.19999999999999v420.59999999999997c0 21.5 10.400000000000006 32 31.799999999999997 32.10000000000002 32.60000000000001 0.20000000000004547 65.3 0.10000000000002274 97.89999999999999 0 22-0.10000000000002274 32.30000000000001-10.5 32.30000000000001-32.60000000000002 0.09999999999999432-140.19999999999993 0.09999999999999432-280.4 0-420.59999999999997 0.09999999999999432-23.400000000000034-9.300000000000011-32.60000000000002-32.80000000000001-32.69999999999999z m640.0999999999999-28.5h-268.69999999999993c0.1999999999999318-2.1000000000000227 0.39999999999997726-3.7000000000000455 0.7999999999999545-5.2000000000000455 10.399999999999977-50.19999999999999 18.899999999999977-100.69999999999999 19.100000000000023-152.2 0.20000000000004547-32.79999999999998-2.1000000000000227-65.19999999999999-16.299999999999955-95.39999999999998-8.800000000000068-19.000000000000014-21.100000000000023-34.900000000000006-42.700000000000045-40.500000000000014-22.30000000000001-5.799999999999997-38.80000000000001 2.799999999999997-42.39999999999998 22.299999999999997-2.5 14.099999999999994-5 28.099999999999994-6.600000000000023 42.30000000000001-3.3000000000000114 31.69999999999999-11.699999999999989 61.19999999999999-33.89999999999998 85.4-12.700000000000045 14.099999999999966-24.100000000000023 29.5-37.30000000000001 43.099999999999966-31.5 32.700000000000045-56.400000000000034 69.70000000000005-73.80000000000001 111.70000000000005-3.5 8.299999999999955-7.800000000000011 16.099999999999966-12.300000000000011 23.899999999999977-7.599999999999966 13.300000000000011-19.5 19.399999999999977-34.5 20.30000000000001-15.800000000000011 0.8999999999999773-23.80000000000001 6.5-28.399999999999977 21.69999999999999-2.1000000000000227 7.300000000000011-2.8000000000000114 15.100000000000023-2.8000000000000114 22.69999999999999-0.19999999999998863 114.30000000000001-0.09999999999999432 228.59999999999997-0.09999999999999432 342.90000000000003 0 5.899999999999977 0.29999999999998295 11.899999999999977 1.1999999999999886 17.899999999999977 2.8000000000000114 17.600000000000023 13.700000000000017 26.700000000000045 31.400000000000006 26.799999999999955 7 0.10000000000002274 14.100000000000023 0.20000000000004547 21.100000000000023 0.6000000000000227 27.19999999999999 1.3000000000000682 54.099999999999966 4.7000000000000455 80.79999999999995 11.200000000000045 27.5 6.699999999999932 54.700000000000045 15.399999999999977 83.5 15.399999999999977h222.80000000000007c1.6999999999999318 0 3.2999999999999545 0 5-0.10000000000002274 51.09999999999991-2.6000000000000227 92-44.299999999999955 93.29999999999995-95.79999999999995 27.299999999999955-19.100000000000023 45.39999999999998-50.80000000000007 45.39999999999998-86.70000000000005v-1.8999999999999773c0-2.8999999999999773-0.1999999999999318-5.7999999999999545-0.39999999999997726-8.700000000000045 3.5-2.599999999999909 6.7999999999999545-5.199999999999932 9.899999999999977-8.099999999999909 20.800000000000068-19.300000000000068 33.80000000000007-46.80000000000007 33.80000000000007-77.5v-1.900000000000091c0-10.5-1.6000000000000227-20.5-4.5-30.09999999999991 36.59999999999991-16.600000000000023 62.19999999999993-53.40000000000009 62.19999999999993-96.20000000000005v-1.8999999999999773c0.10000000000002274-58.700000000000045-47.19999999999993-106-105.60000000000002-106z"/>
</svg>
