<svg xmlns="http://www.w3.org/2000/svg" viewBox="0 0 1000 1000" width="1000" height="1000">
<path d="M156.4 210.3c7.199999999999989 7 21.19999999999999 12.799999999999983 31.299999999999983 12.799999999999983h632.7c10.099999999999909 0 23.699999999999932-6.099999999999994 30.399999999999864-13.5l54.5-60.400000000000006c6.7000000000000455-7.5 4.100000000000023-13.5-6-13.5h-801c-10.099999999999952 0-12.399999999999949 5.700000000000017-5.19999999999996 12.800000000000011l63.30000000000001 61.80000000000001z m692.6 580.2c-6.899999999999977-7.2999999999999545-20.700000000000045-13.299999999999955-30.700000000000045-13.299999999999955h-631.3c-10.099999999999994 0-24 5.7999999999999545-31.099999999999994 12.899999999999977l-61.7 61.69999999999993c-7.1000000000000085 7.100000000000023-4.700000000000003 12.900000000000091 5.299999999999997 12.900000000000091h801.2c10.099999999999909 0 12.599999999999909-5.900000000000091 5.699999999999932-13.300000000000068l-57.39999999999998-60.89999999999998z m76.29999999999995-620.1l-48.5 53.80000000000001c-6.699999999999932 7.5-12.199999999999932 21.700000000000017-12.199999999999932 31.80000000000001v490.29999999999995c0 10.100000000000023 5.600000000000023 24.200000000000045 12.5 31.5l47.89999999999998 50.80000000000007c6.899999999999977 7.2999999999999545 12.5 5.100000000000023 12.5-5v-648.5c0-10.100000000000023-5.5-12.200000000000017-12.200000000000045-4.700000000000017z m-775.3 566.2v-473.5c0-10.100000000000023-5.800000000000011-23.900000000000034-13-31.00000000000003l-61.5-60.099999999999994c-7.200000000000003-7-13-4.599999999999994-13 5.5v646.6c0 10.100000000000023 5.799999999999997 12.5 12.900000000000006 5.2999999999999545l61.69999999999999-61.69999999999993c7.099999999999994-7.100000000000023 12.900000000000006-21 12.900000000000006-31.100000000000023z m47.400000000000006-484.40000000000003c-10.099999999999994 0-18.200000000000017 8.199999999999989-18.200000000000017 18.19999999999999v459.4c0 10.100000000000023 8.200000000000017 18.200000000000045 18.200000000000017 18.200000000000045h619.8000000000001c10.099999999999909 0 18.199999999999932-8.200000000000045 18.199999999999932-18.200000000000045v-459.4c0-10.099999999999966-8.199999999999932-18.19999999999999-18.199999999999932-18.19999999999999h-619.8000000000001z m492.1 288.09999999999997c0 10.100000000000023-8.200000000000045 18.200000000000045-18.200000000000045 18.200000000000045h-21.899999999999977c-10.100000000000023 0-18.199999999999932-8.200000000000045-18.199999999999932-18.200000000000045v-36.49999999999994c0-10.100000000000023 8.199999999999932-18.19999999999999 18.199999999999932-18.19999999999999h21.899999999999977c10.100000000000023 0 18.200000000000045 8.199999999999989 18.200000000000045 18.19999999999999v36.49999999999994z m116.79999999999995 178.60000000000002h-29.199999999999932v-215.09999999999997c0-10.100000000000023-5.7000000000000455-24.100000000000023-12.800000000000068-31.30000000000001l-91.09999999999991-93c-7-7.199999999999989-18.5-7.199999999999989-25.5 0l-91.20000000000005 93c-7 7.199999999999989-12.799999999999955 21.19999999999999-12.799999999999955 31.19999999999999v215.09999999999997h-174.90000000000003v-183.79999999999995c4.099999999999966-2.7999999999999545 7.699999999999989-6.2999999999999545 10.899999999999977-10 10.800000000000011 12.200000000000045 26.30000000000001 20.200000000000045 43.80000000000001 20.200000000000045 29.69999999999999 0 54-22.40000000000009 57.60000000000002-51.10000000000002 4.2999999999999545 3 9.599999999999966 4.7999999999999545 15.299999999999955 4.7999999999999545 14.700000000000045 0 26.700000000000045-12 26.700000000000045-26.69999999999999 0-9.899999999999977-5.399999999999977-18.399999999999977-13.5-23.099999999999966 3.1000000000000227-6.300000000000011 5-13.200000000000045 5-20.700000000000045 0-26.099999999999966-21.200000000000045-47.299999999999955-47.400000000000034-47.299999999999955-10.199999999999989 0-19.69999999999999 3.2999999999999545-27.5 8.899999999999977-10.5-39.39999999999998-46.39999999999998-68.5-89.09999999999997-68.5-16 0-31 4.100000000000023-44.200000000000045 11.199999999999989-8-6.199999999999989-17.899999999999977-10-28.799999999999955-10-26.200000000000017 0-47.400000000000034 21.19999999999999-47.400000000000034 47.400000000000034 0 14.699999999999989 6.900000000000006 27.799999999999955 17.5 36.5-6.899999999999977 4.7999999999999545-11.399999999999977 12.799999999999955-11.399999999999977 21.899999999999977 0 6.100000000000023 2.0999999999999943 11.699999999999989 5.599999999999994 16.19999999999999-15.5 7.800000000000011-26.30000000000001 23.600000000000023-26.30000000000001 42.19999999999999 0 26.200000000000045 21.200000000000017 47.39999999999998 47.400000000000006 47.39999999999998 10.800000000000011 0 20.69999999999999-3.7999999999999545 28.600000000000023-9.799999999999955 10.699999999999989 12.600000000000023 26.5 20.799999999999955 44.299999999999955 20.799999999999955 1.3000000000000114 0 2.400000000000034-0.2999999999999545 3.6000000000000227-0.39999999999997726v174.20000000000005h-131.2v-437.70000000000005h597.9000000000001l0.09999999999990905 437.5z"/>
</svg>
