<svg xmlns="http://www.w3.org/2000/svg" viewBox="0 0 1000 1000" width="1000" height="1000">
<path d="M926.2 427h-49.90000000000009c-6.199999999999932 0-11.299999999999955-5.100000000000023-11.299999999999955-11.300000000000011v-123.19999999999999c0-6.199999999999989-5.100000000000023-11.300000000000011-11.299999999999955-11.300000000000011h-779.9000000000001c-6.19999999999996 0-11.299999999999955 5.100000000000023-11.299999999999955 11.300000000000011v414.5c0 6.2000000000000455 5.099999999999994 11.299999999999955 11.299999999999997 11.299999999999955h780.6c6.2000000000000455 0 11.300000000000068-5.099999999999909 11.300000000000068-11.299999999999955v-123.20000000000005c0-6.199999999999932 5.099999999999909-11.299999999999955 11.299999999999955-11.299999999999955h49.10000000000002c6.199999999999932 0 11.299999999999955-5.100000000000023 11.299999999999955-11.299999999999955v-122.90000000000003c0.10000000000002274-6.199999999999989-5-11.300000000000011-11.199999999999932-11.300000000000011z m-135.20000000000005 206.5c0 6.2000000000000455-5.100000000000023 11.299999999999955-11.299999999999955 11.299999999999955h-633.3000000000001c-6.199999999999989 0-11.299999999999983-5.099999999999909-11.299999999999983-11.299999999999955v-267.4c0-6.2000000000000455 5.099999999999994-11.300000000000011 11.300000000000011-11.300000000000011h633.3000000000001c6.199999999999932 0 11.299999999999955 5.099999999999966 11.299999999999955 11.300000000000011v267.4z m-507.7-237.10000000000002c-1.6000000000000227-3.099999999999966-7-6-10.699999999999989-6-31.200000000000017-0.5-62.400000000000034-0.2999999999999545-93.60000000000002-0.19999999999998863-1.1999999999999886 0-2.5 0.10000000000002274-3.6999999999999886 0.30000000000001137-2 0.30000000000001137-3.700000000000017 5.600000000000023-3.700000000000017 11.899999999999977v195.39999999999998c0 6.2000000000000455 5.099999999999994 11.300000000000068 11.300000000000011 11.300000000000068h194.70000000000002c6.199999999999989 0 10.799999999999955-1.3999999999999773 10.299999999999955-3.1000000000000227-0.39999999999997726-1.2000000000000455-0.6999999999999886-2.1000000000000227-1.1999999999999886-3.1000000000000227-34.30000000000001-68.89999999999998-68.69999999999999-137.79999999999995-103.39999999999998-206.5z"/>
</svg>
