<svg xmlns="http://www.w3.org/2000/svg" viewBox="0 0 1000 1000" width="1000" height="1000">
<path d="M475.5 417.8c0-96.19999999999999-1.1000000000000227-192.4 0.5-288.6 0.5-31.299999999999983-8.800000000000011-52.89999999999999-35.10000000000002-66.79999999999998h-324.9c-20.400000000000006 14.199999999999989-33.900000000000006 31.69999999999999-33.7 59.69999999999999 0.7000000000000028 99.1 0 198.29999999999998 0.4000000000000057 297.4 0.20000000000000284 36.39999999999998 18.5 54.69999999999999 53.10000000000001 54.80000000000001 95.5 0.19999999999998863 190.89999999999998 0.19999999999998863 286.4 0 36.19999999999999 0 53.30000000000001-18.5 53.30000000000001-56.5z m-94.19999999999999-297c21.399999999999977-1.0000000000000142 38.80000000000001 17.19999999999999 39.099999999999966 40.599999999999994 0.4000000000000341 22.400000000000006-15.799999999999955 39.400000000000006-37.5 39.599999999999994-20.799999999999955 0.30000000000001137-38.19999999999999-17.19999999999999-38.799999999999955-39-0.5-20.80000000000001 17.099999999999966-40.3 37.19999999999999-41.2z m-166.9 257.8c-0.9000000000000057 21.899999999999977-18 38.5-39.099999999999994 38-20.600000000000023-0.5-37.80000000000001-19-37.5-40.200000000000045 0.29999999999998295-21.399999999999977 20-40.799999999999955 40.79999999999998-40 19.5 0.8000000000000114 36.70000000000002 20.900000000000034 35.80000000000001 42.200000000000045z m-37.20000000000002-177.40000000000003c-21.19999999999999 0.10000000000002274-39.19999999999999-17.299999999999983-39.599999999999994-38.29999999999998-0.4000000000000057-22.200000000000017 17.700000000000017-41.7 39-42 20-0.30000000000001137 37.5 18.400000000000006 37.80000000000001 40.29999999999998 0.29999999999998295 22.100000000000023-16.099999999999994 39.80000000000001-37.20000000000002 40z m102.10000000000002 107.60000000000002c-20 0.19999999999998863-38.20000000000002-18.400000000000034-38.60000000000002-39.19999999999999-0.39999999999997726-21.200000000000017 19.600000000000023-41.80000000000001 39.80000000000001-41.00000000000003 20.69999999999999 0.8000000000000114 36.80000000000001 18.900000000000006 36.80000000000001 41.00000000000003-0.19999999999998863 22.099999999999966-16.600000000000023 39-38 39.19999999999999z m141.09999999999997 70.89999999999998c-0.7999999999999545 21.400000000000034-18.399999999999977 37.69999999999999-39.89999999999998 37-20-0.6999999999999886-37-20-36.30000000000001-41.19999999999999 0.6999999999999886-20.69999999999999 19.600000000000023-39.5 39.30000000000001-39.10000000000002 20.899999999999977 0.4000000000000341 37.69999999999999 20.200000000000045 36.89999999999998 43.30000000000001z m477.5 245.90000000000003c-67.60000000000002-70.39999999999998-135-141-202.5-211.60000000000002-22.299999999999955-23.399999999999977-50.69999999999993-24.19999999999999-73.29999999999995-0.39999999999997726-69.39999999999998 72.69999999999999-138.40000000000003 145.89999999999998-207.60000000000002 218.79999999999995-9 9.5-13.300000000000011 20.899999999999977-13 38.60000000000002-1.1000000000000227 11.899999999999977 6.399999999999977 24.299999999999955 16.80000000000001 35.200000000000045l111.80000000000001 116.59999999999991c30.199999999999932 31.600000000000023 60 63.60000000000002 90.5 94.90000000000009 26.299999999999955 27 51.5 26 77.60000000000002-1.2000000000000455 66.5-69.39999999999998 133-138.70000000000005 199.89999999999998-207.60000000000002 25.899999999999977-26.699999999999932 26.299999999999955-55.799999999999955-0.20000000000004547-83.29999999999995z m-383.6 81.5c-22.799999999999955 0.2999999999999545-39.599999999999966-18.300000000000068-38.99999999999994-43.10000000000002 0.5-20.299999999999955 17.69999999999999-37.60000000000002 37.30000000000001-37.700000000000045 21.799999999999955-0.09999999999990905 39.60000000000002 18.200000000000045 39.60000000000002 40.60000000000002-0.20000000000004547 21.399999999999977-17.600000000000023 40-37.90000000000009 40.200000000000045z m144.70000000000005 0c-21.799999999999955 0-38.89999999999998-18.600000000000023-38.200000000000045-41.700000000000045 0.6000000000000227-22.100000000000023 17.300000000000068-39.19999999999993 38.5-39.10000000000002 21.300000000000068 0.10000000000002274 37.80000000000007 17.200000000000045 38.200000000000045 39.40000000000009 0.39999999999997726 23.399999999999977-16.399999999999977 41.39999999999998-38.5 41.39999999999998z m-38.39999999999998-194.80000000000007c0.6000000000000227-21.099999999999966 18.600000000000023-38.69999999999993 39.10000000000002-38.299999999999955 21.899999999999977 0.39999999999997726 38.19999999999993 18.5 37.799999999999955 41.89999999999998-0.39999999999997726 21.200000000000045-18.299999999999955 39.10000000000002-38.799999999999955 38.80000000000007-20.800000000000068-0.5-38.700000000000045-20.300000000000068-38.10000000000002-42.40000000000009z m76.89999999999998 308c-0.6000000000000227 22.100000000000023-17.299999999999955 38.90000000000009-38.299999999999955 38.90000000000009-22-0.10000000000002274-38.700000000000045-17.90000000000009-38.40000000000009-41 0.3000000000000682-21.5 19.800000000000068-40.30000000000007 40.60000000000002-39.200000000000045 20.300000000000068 1 36.700000000000045 19.799999999999955 36.10000000000002 41.299999999999955z m108.20000000000005-113.19999999999993c-21.800000000000068 0.39999999999997726-39.30000000000007-17.899999999999977-39.10000000000002-40.89999999999998 0.1999999999999318-22.100000000000023 17.100000000000023-40 37.60000000000002-39.90000000000009 22 0.10000000000002274 39.09999999999991 18 39 40.90000000000009 0 22.199999999999932-16.40000000000009 39.5-37.5 39.89999999999998z"/>
</svg>
