<svg xmlns="http://www.w3.org/2000/svg" viewBox="0 0 1000 1000" width="1000" height="1000">
<path d="M888.7 689.5c-14.300000000000068-12.200000000000045-29.90000000000009-22.899999999999977-46.5-31.799999999999955-43-22.90000000000009-88.30000000000007-39.700000000000045-135.20000000000005-52.5-9.600000000000023-2.6000000000000227-17.100000000000023-7.400000000000091-23.700000000000045-15.200000000000045-28.299999999999955-33.299999999999955-57.799999999999955-65.70000000000005-85.79999999999995-99.10000000000002-9.200000000000045-10.899999999999977-19.600000000000023-16.899999999999977-33.200000000000045-19.899999999999977-88.39999999999998-19.30000000000001-176.09999999999997-12.600000000000023-263.59999999999997 5.800000000000011-56.19999999999999 11.800000000000011-111 27.399999999999977-155 67.09999999999997-32.599999999999994 29.600000000000023-57.19999999999999 63-57.19999999999999 110.89999999999998 0 35.10000000000002-6.299999999999997 67.5-16.5 104-4.299999999999997 15.200000000000045-3.299999999999997 31.90000000000009 0 47.40000000000009 5.599999999999994 26.199999999999932 24.700000000000003 46.19999999999993 53.900000000000006 54 0.8999999999999915-41.200000000000045 15-75.40000000000009 44.69999999999999-101.60000000000002 40.20000000000002-35.39999999999998 86.79999999999998-45.200000000000045 137.20000000000002-26.399999999999977 52.69999999999999 19.59999999999991 81.30000000000001 59.59999999999991 87.69999999999999 114.79999999999995 1.5 13 6.100000000000023 15.299999999999955 17.899999999999977 15.200000000000045 62-0.5 123.89999999999998-1 185.89999999999998 0.1999999999999318 17.800000000000068 0.39999999999997726 24.40000000000009-3.7999999999999545 26.600000000000023-22.600000000000023 7.399999999999977-63.39999999999998 59.80000000000007-111.69999999999993 123.20000000000005-116.29999999999995 62.10000000000002-4.5 120.79999999999995 36 138.69999999999993 95.89999999999998 2.1000000000000227 7.100000000000023 3.900000000000091 14.300000000000068 6.300000000000068 23.399999999999977 4.899999999999977-5.399999999999977 8.399999999999977-8.699999999999932 11.199999999999932-12.5 29-40.09999999999991 20.90000000000009-108.69999999999993-16.59999999999991-140.79999999999995z m-531.1-89.29999999999995c0.19999999999998863 10.299999999999955-3.2000000000000455 13.599999999999909-13.5 13.399999999999977-27.900000000000034-0.6000000000000227-55.80000000000001-0.20000000000004547-83.70000000000005-0.20000000000004547-26.69999999999999 0-53.39999999999998-0.2999999999999545-80.09999999999997 0.20000000000004547-10.300000000000011 0.1999999999999318-14.400000000000006-1.8000000000000682-15.100000000000023-13.700000000000045-1-20.899999999999977 5.200000000000017-34.39999999999998 24.200000000000017-45.39999999999998 47.79999999999998-27.799999999999955 98.49999999999997-45.69999999999999 152.79999999999998-55 12.199999999999989-2.1000000000000227 15.800000000000011 1 15.400000000000034 13.399999999999977-0.7000000000000455 29-0.6000000000000227 58.10000000000002 0 87.30000000000007z m40.799999999999955 13.299999999999955c-8 0-10.5-3.1000000000000227-10.399999999999977-10.799999999999955 0.30000000000001137-32.700000000000045 0.30000000000001137-65.5 0-98.30000000000007-0.10000000000002274-7.7999999999999545 3.3000000000000114-10.599999999999966 10.800000000000011-11 54.89999999999998-3.099999999999966 108.89999999999998 3.8000000000000114 162.40000000000003 14.700000000000045 2.699999999999932 0.5 5.5 2.7999999999999545 7.2999999999999545 5 26.5 32.19999999999993 52.89999999999998 64.5 82.10000000000002 100.29999999999995-87.20000000000005-0.10000000000002274-169.70000000000005-0.10000000000002274-252.20000000000005 0.10000000000002274z m502.4-285.5v-2.1000000000000227c-14.899999999999977-2.6999999999999886-29.699999999999932-5.5-44.5-8.099999999999966-12.799999999999955-2.3000000000000114-12.599999999999909-2.1999999999999886-11.799999999999955 10.199999999999989 0.39999999999997726 5.800000000000011 0.10000000000002274 11.600000000000023 0.10000000000002274 18.5 19.199999999999932-6.399999999999977 37.69999999999993-12.399999999999977 56.19999999999993-18.5z m-260.79999999999995-190.3c3.7000000000000455-0.09999999999999432 7.399999999999977 0.4000000000000057 11.100000000000023 1 6.399999999999977 1 9.5 0.700000000000017 7.2999999999999545-7.899999999999977-4.399999999999977-17.200000000000017-10-34.30000000000001-12-52.20000000000002h-2.2999999999999545c-4.5 15.800000000000011-9.100000000000023 31.5-13.600000000000023 47.2-3.3999999999999773 12.100000000000009-3.2999999999999545 12.000000000000014 9.5 11.899999999999991z m-156.2 269.1c2.3000000000000114 5.899999999999977 4.699999999999989 11.399999999999977 7.699999999999989 16.19999999999999 36.299999999999955 0.10000000000002274 72.60000000000002 3.6000000000000227 109.10000000000002 11.600000000000023 13.600000000000023 3 24.100000000000023 9 33.19999999999993 19.899999999999977 14.600000000000023 17.399999999999977 29.600000000000023 34.5 44.5 51.5 87.70000000000005-21.69999999999999 141.5-103.60000000000002 125.90000000000009-195-13-76-84.90000000000009-144.7-185.5-135.2-80.60000000000002 7.699999999999989-147.40000000000003 82.5-147.10000000000002 167.09999999999997-0.10000000000002274 22.200000000000045 4.399999999999977 43.30000000000001 12.199999999999989 63.900000000000034z m285.3 106.59999999999997c-2.3999999999999773-8.799999999999955-6-6.599999999999966-11.399999999999977-3.1999999999999886-10.100000000000023 6.500000000000057-20.40000000000009 13.000000000000057-31.100000000000023 18.400000000000034-6.899999999999977 3.3999999999999773-8.100000000000023 6-2.3999999999999773 11.600000000000023 11.5 10.899999999999977 22.799999999999955 22 34.19999999999993 32.89999999999998l33.30000000000007 32.299999999999955 2.699999999999932-1.6999999999999318-5.899999999999977-21.100000000000023c-6.600000000000023-23.100000000000023-13.200000000000045-46.10000000000002-19.399999999999977-69.20000000000005z m77.89999999999998-6.599999999999966l1-2c-13.600000000000023-18.30000000000001-27.399999999999977-36.60000000000002-41.39999999999998-55.400000000000034-7.399999999999977 8.900000000000034-14.300000000000068 17.200000000000045-21.300000000000068 25.30000000000001-4.699999999999932 5.300000000000011 0.10000000000002274 6 3.300000000000068 7.400000000000034 12.600000000000023 5.5 25.199999999999932 11 37.89999999999998 16.399999999999977 6.7999999999999545 2.8999999999999773 13.600000000000023 5.5 20.5 8.300000000000011z m-398.6-83.90000000000003c-4-14.599999999999966-8.599999999999966-28.299999999999955-11.299999999999955-42.39999999999998-1.8000000000000114-9.199999999999989-4.5-9.399999999999977-11.600000000000023-5.199999999999989-25.600000000000023 14.899999999999977-51.30000000000001 29.399999999999977-77 44.099999999999966l1.1999999999999886 3.7000000000000455 98.69999999999999-0.20000000000004547z m482.70000000000005 10.800000000000011c-29.800000000000068-18.599999999999966-55.30000000000007-34.30000000000001-80.39999999999998-50.5-7.2000000000000455-4.599999999999966-8.800000000000068-1.6999999999999886-10.700000000000045 4.900000000000034-3.2000000000000455 11.599999999999966-7 23.099999999999966-11.299999999999955 34.39999999999998-2.5 6.600000000000023-0.7000000000000455 8.899999999999977 5.699999999999932 9.199999999999989 30.5 1.3000000000000114 60.89999999999998 4 96.70000000000005 2z m-494.20000000000005-122.80000000000001c0.9000000000000341-5.199999999999989-0.6999999999999886-6.599999999999966-5.599999999999966-5.899999999999977-19.600000000000023 3-39.30000000000001 5.899999999999977-58.900000000000034 8.800000000000011l-0.7999999999999545 2.6999999999999886c20.399999999999977 8 40.89999999999998 15.899999999999977 61.799999999999955 24.100000000000023 1.3000000000000114-11.100000000000023 2-20.5 3.5-29.700000000000045z m11.200000000000045-43.599999999999966c5.099999999999966-11.600000000000023 11.199999999999989-22.700000000000017 17.099999999999966-33.900000000000006 2.1999999999999886-4.099999999999994 4.300000000000011-7.900000000000006-2.3999999999999773-9.400000000000006-29.80000000000001-6.599999999999994-59.60000000000002-13.099999999999994-89.30000000000001-19.599999999999994l-1.8000000000000114 3.1999999999999886 67.60000000000002 62.29999999999998c4.5 4.100000000000023 6.5 2.8000000000000114 8.800000000000011-2.599999999999966z m370.4-25c6.2000000000000455 12.399999999999977 11.899999999999977 25.099999999999966 18.799999999999955 39.80000000000001 25.600000000000023-21.900000000000034 50.10000000000002-42.80000000000001 74.60000000000002-63.60000000000002-31 1.9000000000000057-60.10000000000002 7.199999999999989-89.19999999999993 12.199999999999989-8.700000000000045 1.6000000000000227-7.100000000000023 5.800000000000011-4.2000000000000455 11.600000000000023z m-23.799999999999955-34.20000000000002c10.199999999999932-19.19999999999999 20.699999999999932-38.19999999999999 31.09999999999991-57.19999999999999l-1.7999999999999545-1.700000000000017c-19.899999999999977 12.200000000000017-39.89999999999998 24.30000000000001-57.700000000000045 35.20000000000002 7.100000000000023 8.5 13.600000000000023 16.19999999999999 19.90000000000009 24.099999999999994 3.199999999999932 3.6999999999999886 5.5 5.199999999999989 8.5-0.4000000000000057z m-285.40000000000003-17.799999999999983c2.5-2 4.800000000000011-4.100000000000023 7.400000000000034-5.900000000000006 5.2999999999999545-3.4000000000000057 5.199999999999932-6.200000000000017-0.20000000000004547-9.700000000000017-18.100000000000023-11.799999999999983-36.10000000000002-23.899999999999977-54.19999999999999-35.79999999999998l-2.400000000000034 1.5999999999999943c7.100000000000023 14.400000000000006 14 28.900000000000006 21.200000000000045 43.19999999999999 10.699999999999989 21.30000000000001 10.799999999999955 21.30000000000001 28.19999999999999 6.600000000000023z m209.8-36.80000000000001c7.5 3.0999999999999943 15 6.400000000000006 24 10.300000000000011l11.899999999999977-94.60000000000001-4.399999999999977-1.1000000000000085c-13.200000000000045 17.200000000000003-26.5 34.5-39.700000000000045 51.60000000000001-17.799999999999955 23.10000000000001-17.799999999999955 23.10000000000001 8.200000000000045 33.8z m-125.5-12.599999999999994c-19-26.700000000000003-37.30000000000007-52.60000000000001-55.60000000000002-78.4l-3.6000000000000227 1.5999999999999943c2.8999999999999773 31.5 5.7000000000000455 63 8.700000000000045 95.6 17.799999999999955-6.699999999999989 33.39999999999998-12.5 50.5-18.799999999999983z m-251.3 713.4c0 45.90000000000009-37.30000000000001 83.20000000000005-83.19999999999999 83.20000000000005s-83.20000000000002-37.299999999999955-83.20000000000002-83.20000000000005 37.29999999999998-83.19999999999993 83.20000000000002-83.19999999999993 83.19999999999999 37.19999999999993 83.19999999999999 83.19999999999993z m504.2 0c0 45.90000000000009-37.299999999999955 83.20000000000005-83.20000000000005 83.20000000000005s-83.19999999999993-37.299999999999955-83.19999999999993-83.20000000000005 37.299999999999955-83.19999999999993 83.19999999999993-83.19999999999993 83.20000000000005 37.19999999999993 83.20000000000005 83.19999999999993z"/>
</svg>
