<svg xmlns="http://www.w3.org/2000/svg" viewBox="0 0 1000 1000" width="1000" height="1000">
<path d="M904.7 258.6h-308.70000000000005v-31.900000000000034c0-52.79999999999998-43.10000000000002-95.89999999999998-96.10000000000002-95.89999999999998-53.19999999999999 0-95.89999999999998 43.099999999999994-95.89999999999998 95.89999999999998v31.900000000000034h-308.7c-18.10000000000001 0-32.80000000000001 14.699999999999989-32.80000000000001 32.799999999999955v545.3000000000001c0 18.09999999999991 14.700000000000003 32.799999999999955 32.8 32.799999999999955h809.4000000000001c18.09999999999991 0 32.799999999999955-14.700000000000045 32.799999999999955-32.799999999999955v-545.3000000000001c0-18.099999999999966-14.700000000000045-32.799999999999955-32.799999999999955-32.799999999999955z m-455.70000000000005-38.30000000000001c0-27.80000000000001 22.899999999999977-50.70000000000002 50.89999999999998-50.70000000000002s50.89999999999998 22.900000000000006 50.89999999999998 50.70000000000002v36.69999999999999h-101.79999999999995v-36.69999999999999z m445.79999999999995 578c0 18.100000000000023-14.699999999999932 32.80000000000007-32.799999999999955 32.80000000000007h-724c-18.099999999999994 0-32.8-14.700000000000045-32.8-32.80000000000007v-468.49999999999994c0-18.100000000000023 14.700000000000003-32.80000000000001 32.8-32.80000000000001h724c18.100000000000023 0 32.799999999999955 14.699999999999989 32.799999999999955 32.80000000000001v468.49999999999994z m-625.1999999999999-263.5999999999999c33.799999999999955 0 61.299999999999955-27.500000000000057 61.299999999999955-61.200000000000045s-27.5-61.30000000000001-61.299999999999955-61.30000000000001c-33.70000000000002 0-61.10000000000002 27.5-61.10000000000002 61.30000000000001 0 33.60000000000002 27.400000000000006 61.200000000000045 61.10000000000002 61.200000000000045z m0.0999999999999659 16.299999999999955c-53.099999999999994 0-95.79999999999998 43.10000000000002-95.79999999999998 95.79999999999995v69.20000000000005h191.9v-69.20000000000005c0-52.799999999999955-43-95.79999999999995-96.10000000000002-95.79999999999995z m203.3-138.89999999999998h353.1v38.89999999999998h-353.1v-38.89999999999998z m0 132.5h353.1v38.89999999999998h-353.1v-38.89999999999998z m0 132.5h353.1v38.89999999999998h-353.1v-38.89999999999998z"/>
</svg>
