<svg xmlns="http://www.w3.org/2000/svg" viewBox="0 0 1000 1000" width="1000" height="1000">
<path d="M753.3 287.4h-506.69999999999993c-101.70000000000002 0-184.10000000000002 95.20000000000005-184.10000000000002 212.8 0 117.50000000000006 82.5 212.7 184.1 212.7h506.6c101.79999999999995 0 184.19999999999993-95.19999999999993 184.19999999999993-212.7 0.10000000000002274-117.59999999999997-82.39999999999998-212.8-184.10000000000002-212.8z m-22.699999999999932 389.1h-461.20000000000005c-92.69999999999999 0-167.7-78.89999999999998-167.7-176.3s75-176.3 167.7-176.3h461.30000000000007c92.59999999999991 0 167.69999999999993 79 167.69999999999993 176.3s-75.19999999999993 176.3-167.79999999999995 176.3z m-38-310.2c-73.89999999999998 0-133.89999999999998 59.89999999999998-133.89999999999998 133.89999999999998 0 73.90000000000003 59.89999999999998 133.90000000000003 133.89999999999998 133.90000000000003s133.89999999999998-59.89999999999998 133.89999999999998-133.90000000000003-59.89999999999998-133.89999999999998-133.89999999999998-133.89999999999998z m-386.40000000000003 78.19999999999999c-3.8000000000000114-6.300000000000011-8.699999999999989-11.199999999999989-14.699999999999989-14.800000000000011-6-3.5-13-5.300000000000011-21.19999999999999-5.300000000000011s-15.300000000000011 1.8000000000000114-21.200000000000017 5.300000000000011c-6 3.5-10.900000000000006 8.5-14.699999999999989 14.800000000000011-3.8000000000000114 6.300000000000011-6.700000000000017 13.800000000000011-8.599999999999994 22.5-1.9000000000000057 8.699999999999989-2.8000000000000114 18-2.8000000000000114 28.100000000000023s0.9000000000000057 19.399999999999977 2.8000000000000114 28c1.8999999999999773 8.5 4.699999999999989 15.899999999999977 8.599999999999994 22.199999999999932 3.799999999999983 6.300000000000068 8.699999999999989 11.200000000000045 14.699999999999989 14.700000000000045s13.000000000000028 5.2999999999999545 21.200000000000017 5.2999999999999545 15.300000000000011-1.7999999999999545 21.19999999999999-5.2999999999999545c6-3.5 10.899999999999977-8.399999999999977 14.699999999999989-14.700000000000045 3.8000000000000114-6.2999999999999545 6.699999999999989-13.599999999999909 8.600000000000023-22.199999999999932 1.8999999999999773-8.5 2.8000000000000114-17.900000000000034 2.8000000000000114-28s-0.9000000000000341-19.5-2.8000000000000114-28.100000000000023-4.699999999999989-16.100000000000023-8.600000000000023-22.5z m-35.89999999999998 97.70000000000005c-15.800000000000011 0-23.700000000000017-15.700000000000045-23.700000000000017-47.00000000000006s7.900000000000006-47 23.799999999999983-47c8 0 13.900000000000034 3.900000000000034 17.700000000000045 11.800000000000011 3.7999999999999545 7.800000000000011 5.699999999999989 19.600000000000023 5.699999999999989 35.19999999999999 0 31.30000000000001-7.800000000000011 47.00000000000006-23.5 47.00000000000006z m126.09999999999997-115.50000000000006v86.80000000000001l-42.099999999999966-86.80000000000001c-3.1999999999999886-0.8000000000000114-6.400000000000034-1.099999999999966-9.400000000000034-1.099999999999966-2.7999999999999545 0-5.7999999999999545 0.39999999999997726-9 1.099999999999966v136.3c3.1000000000000227 0.7999999999999545 6.400000000000034 1.1000000000000227 9.700000000000045 1.1000000000000227 3.2999999999999545 0 6.599999999999966-0.39999999999997726 9.899999999999977-1.1000000000000227v-86.60000000000002l42.5 86.60000000000002c3.3000000000000114 0.7999999999999545 6.399999999999977 1.1000000000000227 9.199999999999989 1.1000000000000227 2.6000000000000227 0 5.600000000000023-0.39999999999997726 8.800000000000011-1.1000000000000227v-136.3c-2.8999999999999773-0.8000000000000114-6-1.099999999999966-9.100000000000023-1.099999999999966-3.2999999999999545 0-6.7999999999999545 0.39999999999997726-10.5 1.099999999999966z"/>
</svg>
