<svg xmlns="http://www.w3.org/2000/svg" viewBox="0 0 1000 1000" width="1000" height="1000">
<path d="M930.3 480.5l-141.39999999999998-141.39999999999998c-10.5-10.5-19-7-19 7.899999999999977v145.2h-161.69999999999993c-3.7000000000000455-54.19999999999999-46.700000000000045-97.30000000000001-100.90000000000003-100.89999999999998v-160.60000000000002h145.2c14.899999999999977 0 18.399999999999977-8.5 7.899999999999977-19l-141.39999999999998-141.39999999999998c-10.5-10.500000000000014-27.5-10.500000000000014-38-1.4210854715202004e-14l-141.39999999999998 141.39999999999998c-10.5 10.5-7 19 7.899999999999977 19h145.2v160.5c-54.19999999999999 3.6999999999999886-97.30000000000001 46.69999999999999-100.89999999999998 100.90000000000003h-161.70000000000002v-145.10000000000002c0-14.899999999999977-8.5-18.399999999999977-19-7.899999999999977l-141.39999999999998 141.39999999999998c-10.500000000000014 10.5-10.500000000000014 27.5-1.4210854715202004e-14 38l141.39999999999998 141.39999999999998c10.500000000000028 10.5 19.00000000000003 7 19.00000000000003-7.899999999999977v-145.3h161.50000000000003c3.6999999999999886 54.19999999999999 46.69999999999999 97.30000000000001 100.89999999999998 100.90000000000003v161.5h-145.10000000000002c-14.899999999999977 0-18.399999999999977 8.5-7.899999999999977 19l141.39999999999998 141.39999999999998c10.5 10.5 27.5 10.5 38 0l141.39999999999998-141.39999999999998c10.5-10.5 7-19-7.899999999999977-19h-145v-161.30000000000007c54.200000000000045-3.699999999999932 97.30000000000007-46.69999999999993 100.89999999999998-100.89999999999998h161.5v145.20000000000005c0 14.899999999999977 8.5 18.399999999999977 19 7.899999999999977l141.4000000000001-141.39999999999998c10.599999999999909-10.5 10.599999999999909-27.600000000000023 0.09999999999990905-38.10000000000002z"/>
</svg>
