<svg xmlns="http://www.w3.org/2000/svg" viewBox="0 0 1000 1000" width="1000" height="1000">
<path d="M667.7 390.7c-31.40000000000009-164.39999999999998-191.50000000000006-274-355.00000000000006-242.79999999999998-169.39999999999998 32.29999999999998-276.9 190.79999999999998-244.39999999999998 360.4 31.19999999999999 163.20000000000005 192.3 271.6 356.8 240.10000000000002 165.69999999999993-31.699999999999932 274.29999999999995-191.79999999999995 242.60000000000002-357.7z m-258.80000000000007 272.09999999999997c-119 23.100000000000023-232.89999999999998-55.19999999999993-255.89999999999998-176.09999999999997-22.19999999999999-116.59999999999997 56-230.09999999999997 174.10000000000002-252.7 118.29999999999995-22.599999999999994 232.79999999999995 55.19999999999999 255.19999999999993 173.3 22.40000000000009 118.19999999999999-55.19999999999993 232.59999999999997-173.39999999999998 255.49999999999994z m271.4-61.5c-18.399999999999977 26.800000000000068-37.39999999999998 54.5-55.69999999999993 81.20000000000005 85.89999999999998 58.299999999999955 172 116.79999999999995 257.69999999999993 174.89999999999998 18.600000000000023-27.399999999999977 37.30000000000007-54.89999999999998 55.30000000000007-81.5-85.70000000000005-58.10000000000002-172-116.69999999999993-257.30000000000007-174.60000000000002z m-183.79999999999995-200.89999999999998c-37.10000000000002-31.5-80.19999999999999-46.599999999999966-133.7-47.299999999999955-6 0.5999999999999659-17.100000000000023 1.099999999999966-27.900000000000034 3-61 10.699999999999989-107.29999999999998 42.599999999999966-137.49999999999997 96.89999999999998-0.5999999999999943 1.1000000000000227-0.700000000000017 3.1999999999999886-0.09999999999999432 4.300000000000011 12.299999999999983 22.5 27.899999999999977 42.39999999999998 48.29999999999998 57.99999999999994 52.599999999999994 39.90000000000009 111.20000000000002 51.40000000000009 174.9 34.80000000000007 52.10000000000002-13.600000000000023 91.5-44.700000000000045 117.60000000000002-92 0.6999999999999318-1.3000000000000114 1.1000000000000227-3.5 0.5-4.7000000000000455-10.899999999999977-20.099999999999966-24.600000000000023-38.099999999999966-42.10000000000002-53z m-162.5 113.89999999999998c-10.5-3.699999999999932-21.19999999999999-6.899999999999977-31.399999999999977-11.299999999999955-22.80000000000001-9.800000000000011-41.700000000000045-24.80000000000001-56.900000000000034-44.39999999999998-2.0999999999999943-2.7000000000000455-1.799999999999983-4.300000000000011 0.20000000000001705-6.800000000000011 22.700000000000017-29.100000000000023 52.49999999999997-46.60000000000002 88.29999999999998-54.5-43.099999999999966 26-44.39999999999998 88.5 0.19999999999998863 115.80000000000001l-0.39999999999997726 1.1999999999999318z m10.300000000000011-69.59999999999997c-8.900000000000034-0.0999999999999659-15.900000000000034-7.199999999999989-15.699999999999989-16.099999999999966 0.19999999999998863-8.600000000000023 7.399999999999977-15.700000000000045 15.799999999999955-15.700000000000045 8.600000000000023 0 16 7.400000000000034 16 16.100000000000023 0.10000000000002274 8.800000000000011-7 15.800000000000011-16.099999999999966 15.699999999999989z m146 13.5c-20.30000000000001 27.30000000000001-54.19999999999999 48.5-90 55.400000000000034 21.899999999999977-14.100000000000023 33.89999999999998-33.10000000000002 33.89999999999998-58.400000000000034 0-25.30000000000001-12.099999999999966-44.19999999999999-33-57.89999999999998 24.100000000000023 4.899999999999977 46.10000000000002 14.5 64.80000000000001 30.399999999999977 8.800000000000011 7.400000000000034 16.30000000000001 16.5 24.399999999999977 24.900000000000034 1.900000000000034 1.8999999999999773 1.5 3.5-0.0999999999999659 5.599999999999966z"/>
</svg>
