<svg xmlns="http://www.w3.org/2000/svg" viewBox="0 0 1000 1000" width="1000" height="1000">
<path d="M811.7 182c-5.800000000000068-6-15.400000000000091-5.900000000000006-21.300000000000068 0l-25.100000000000023 25.19999999999999c-5.899999999999977 5.900000000000006-5.899999999999977 15.5-0.39999999999997726 21.600000000000023 68.60000000000002 75.80000000000001 105.5 166 105.60000000000002 270.7 0.10000000000002274 105.10000000000002-36.799999999999955 195.60000000000002-105.89999999999998 271.9-5.600000000000023 6.2000000000000455-5.5 15.800000000000068 0.39999999999997726 21.700000000000045l25.200000000000045 25.199999999999932c5.899999999999977 5.900000000000091 15.5 6 21.299999999999955 0 169.20000000000005-175.89999999999998 166.70000000000005-463.79999999999995 0.20000000000004547-636.3z m-348.90000000000003 19.30000000000001c-15 14.099999999999994-29.400000000000034 27.599999999999994-43.900000000000034 41.19999999999999-40.89999999999998 38.69999999999999-82 77.39999999999998-122.79999999999995 116.30000000000001-5.900000000000034 5.599999999999966-11.700000000000045 8.399999999999977-20.200000000000045 8.300000000000011-34.29999999999998-0.30000000000001137-68.59999999999997-0.30000000000001137-102.99999999999997-0.30000000000001137-18.099999999999994 0.0999999999999659-36.20000000000002 0.0999999999999659-54.30000000000001 0.0999999999999659h-0.8999999999999915v265.1c1.7999999999999972 0.7999999999999545 3.799999999999997 1.2000000000000455 5.8999999999999915 1.2000000000000455h49.30000000000001c33.900000000000006 0 67.69999999999999 0 101.4-0.20000000000004547 6.599999999999966-0.10000000000002274 11.5 1.7999999999999545 16.30000000000001 6.2999999999999545 55.5 51.60000000000002 111.09999999999997 103.10000000000002 166.7 154.60000000000002 2.6999999999999886 2.5 5.399999999999977 4.899999999999977 8.199999999999989 7.399999999999977 4.600000000000023 4.100000000000023 8.300000000000011 0.5 8.300000000000011-7.7999999999999545v-587.5c0-8.300000000000011-5-10.400000000000006-11-4.699999999999989z m254.3 75c-5.800000000000068-5.900000000000034-15.600000000000023-5.699999999999989-21.5 0.19999999999998863l-24.5 24.600000000000023c-5.899999999999977 5.899999999999977-6 15.5-0.5 21.799999999999955 43.39999999999998 49.900000000000034 66.79999999999995 108.80000000000001 66.79999999999995 177.10000000000002 0 68.5-23.699999999999932 127.60000000000002-67.29999999999995 177.79999999999995-5.5 6.300000000000068-5.399999999999977 15.900000000000091 0.5 21.800000000000068l24.899999999999977 24.899999999999977c5.899999999999977 5.899999999999977 15.5 6 21.200000000000045-0.10000000000002274 123.89999999999998-132.10000000000002 109.09999999999991-337.2 0.39999999999997726-448.09999999999997z m-93.39999999999998 94.5c-5.5-6.199999999999989-15.300000000000068-6-21.100000000000023-0.10000000000002274l-25.5 25.600000000000023c-5.899999999999977 5.899999999999977-5.899999999999977 15.5-0.8000000000000682 22 18.100000000000023 23.099999999999966 27.90000000000009 50.5 27.90000000000009 81.69999999999999 0 31.600000000000023-10.100000000000023 59.10000000000002-28.40000000000009 82.39999999999998-5.099999999999909 6.5-5.099999999999909 16.100000000000023 0.8000000000000682 22l25.5 25.5c5.899999999999977 5.899999999999977 15.600000000000023 6 21.100000000000023-0.1999999999999318 64.79999999999995-72.60000000000002 62.799999999999955-189.10000000000002 0.5-258.90000000000003z m-561.2-4v265.2c1.1000000000000014 0.7999999999999545 2.4000000000000057 1.2000000000000455 3.5999999999999943 1.2000000000000455h30.200000000000003v-266.40000000000003c-11.099999999999994 0.0999999999999659-22.200000000000003 0.0999999999999659-33.3 0.0999999999999659l-0.5-0.0999999999999659z"/>
</svg>
