<svg xmlns="http://www.w3.org/2000/svg" viewBox="0 0 1000 1000" width="1000" height="1000">
<path d="M705.3 62.5h-410.4c-18.899999999999977 0-34.19999999999999 15.299999999999997-34.19999999999999 34.2v806.5999999999999c0 18.90000000000009 15.300000000000011 34.200000000000045 34.19999999999999 34.200000000000045h410.4c18.90000000000009 0 34.200000000000045-15.299999999999955 34.200000000000045-34.200000000000045v-806.5999999999999c0-18.90000000000005-15.299999999999955-34.200000000000045-34.200000000000045-34.200000000000045z m-238.79999999999995 801.3c0-18.59999999999991 15.100000000000023-33.59999999999991 33.5-33.59999999999991 18.5 0 33.60000000000002 15 33.60000000000002 33.59999999999991 0 18.5-15.100000000000023 33.60000000000002-33.60000000000002 33.60000000000002s-33.5-15-33.5-33.60000000000002z m-179.8-57.5v-637.4h426.8v637.4h-426.8z"/>
</svg>
