<svg xmlns="http://www.w3.org/2000/svg" viewBox="0 0 1000 1000" width="1000" height="1000">
<path d="M836 592.1v-34.60000000000002c0-8.5-6.899999999999977-15.5-15.5-15.5h-297.29999999999995c-8.5 0-15.500000000000057-6.899999999999977-15.500000000000057-15.5v-24.899999999999977c0-8.5 6.900000000000034-15.5 15.500000000000057-15.5h117.59999999999991c8.5 0 15.5-6.900000000000034 15.5-15.5v-281.5c0-8.500000000000028-6.899999999999977-15.500000000000028-15.5-15.500000000000028h-281.59999999999997c-8.5 0-15.5 6.900000000000006-15.5 15.5v281.6c0 8.499999999999943 6.900000000000034 15.499999999999943 15.5 15.499999999999943h117.5c8.5 0 15.5 6.900000000000034 15.5 15.5v24.900000000000034c0 8.5-6.899999999999977 15.5-15.5 15.5h-297.2c-8.5 0-15.5 6.899999999999977-15.5 15.5v34.60000000000002c0 8.5-6.900000000000006 15.5-15.5 15.5h-70.5c-8.5 0-15.5 6.899999999999977-15.5 15.5v187.79999999999995c0 8.5 6.900000000000006 15.5 15.5 15.5h187.8c8.5 0 15.5-6.899999999999977 15.5-15.5v-187.89999999999998c0-8.5-6.900000000000034-15.5-15.5-15.5h-70.80000000000001c-8.5 0-15.5-6.899999999999977-15.5-15.5v-19.100000000000023c0-8.5 6.900000000000006-15.5 15.5-15.5h281.6c8.5 0 15.5 6.899999999999977 15.5 15.5v19.100000000000023c0 8.5-6.900000000000034 15.5-15.5 15.5h-70.60000000000002c-8.5 0-15.5 6.899999999999977-15.5 15.5v187.89999999999998c0 8.5 6.899999999999977 15.5 15.5 15.5h188c8.5 0 15.5-6.899999999999977 15.5-15.5v-187.89999999999998c0-8.5-6.899999999999977-15.5-15.5-15.5h-70.79999999999995c-8.5 0-15.500000000000057-6.899999999999977-15.500000000000057-15.5v-19.100000000000023c0-8.5 6.900000000000034-15.5 15.500000000000057-15.5h281.69999999999993c8.5 0 15.5 6.899999999999977 15.5 15.5v19.100000000000023c0 8.5-6.899999999999977 15.5-15.5 15.5h-70.60000000000002c-8.5 0-15.5 6.899999999999977-15.5 15.5v187.89999999999998c0 8.5 6.900000000000091 15.5 15.5 15.5h187.70000000000005c8.5 0 15.5-6.899999999999977 15.5-15.5v-187.89999999999998c0-8.5-6.899999999999977-15.5-15.5-15.5h-70.60000000000002c-8.5 0-15.399999999999977-6.899999999999977-15.399999999999977-15.5z"/>
</svg>
