<svg xmlns="http://www.w3.org/2000/svg" viewBox="0 0 1000 1000" width="1000" height="1000">
<path d="M335.2 227.5c-152.29999999999998 0.5999999999999943-272.9 122.30000000000001-272.7 275.3 0.20000000000000284 148.59999999999997 124 270.99999999999994 273.4 270.2 152.8 0.5 274.4-126.29999999999995 272.6-276.4-1.7999999999999545-148.40000000000003-124-269.8-273.3-269.1z m0.4000000000000341 454.4c-101.40000000000003-0.10000000000002274-181.40000000000003-80.60000000000002-181.40000000000003-182.5 0-100.59999999999997 80.80000000000001-180.89999999999998 181.90000000000003-180.79999999999995 100.5 0.0999999999999659 181.39999999999998 81.29999999999995 181.19999999999993 181.89999999999998-0.1999999999999318 100.39999999999998-81.29999999999995 181.5-181.69999999999993 181.39999999999998z m601.6999999999999-369.09999999999997c-1.2999999999999545-35.69999999999999-27.199999999999932-62.10000000000002-61.09999999999991-62.80000000000001-33.80000000000007-0.6999999999999886-61 23.600000000000023-63.30000000000007 58.80000000000001-1.6000000000000227 25.099999999999966-1.1000000000000227 50.30000000000001-0.6999999999999318 75.5 0.39999999999997726 21.80000000000001 9.299999999999955 39.89999999999998 28.09999999999991 51.69999999999999 6.300000000000068 3.8999999999999773 7.400000000000091 8.300000000000011 7.400000000000091 14.800000000000011-0.20000000000004547 60.099999999999966-0.10000000000002274 120.19999999999999-0.10000000000002274 180.3v89.60000000000002c0 11.599999999999909 4 21.199999999999932 14.799999999999955 26.699999999999932 19.200000000000045 9.899999999999977 39.10000000000002-3.699999999999932 39.10000000000002-27 0.10000000000002274-90 0.10000000000002274-179.89999999999998-0.10000000000002274-269.9 0-6.699999999999989 1.6000000000000227-10.899999999999977 7.7000000000000455-14.699999999999989 16.5-10.400000000000034 26.100000000000023-25.69999999999999 27.199999999999932-45.30000000000001 0.8000000000000682-14 0.20000000000004547-28 0.20000000000004547-42h0.7999999999999545c0.10000000000002274-12 0.40000000000009095-23.899999999999977 0-35.69999999999999z m-166.5999999999999-62.5c-7.2000000000000455-0.30000000000001137-9.5 4.799999999999983-9.5 11.599999999999966 0.09999999999990905 24.80000000000001 0 49.700000000000045 0 74.5v20.200000000000045h-17.5v-91.40000000000003c0-6.800000000000011-0.40000000000009095-14.399999999999977-8.800000000000068-14.699999999999989-9.600000000000023-0.30000000000001137-9.399999999999977 7.899999999999977-9.399999999999977 14.899999999999977v79.90000000000003c0 3.8000000000000114-0.5 7.599999999999966-0.7000000000000455 11.099999999999966h-17.199999999999932c0-31.599999999999966-0.10000000000002274-62.099999999999966 0-92.69999999999999 0-6.599999999999966-0.6000000000000227-13.199999999999989-8.800000000000068-13.399999999999977-8.199999999999932-0.20000000000001705-9 6.300000000000011-8.899999999999977 13 0.10000000000002274 27.399999999999977 0.10000000000002274 54.69999999999999 0.10000000000002274 82.09999999999997v11.5h-18.299999999999955v-92.79999999999995c0-6.400000000000034-0.3000000000000682-13.600000000000023-8.400000000000091-13.700000000000017-8.5-0.20000000000001705-9.799999999999955 6.900000000000006-9.799999999999955 13.900000000000006 0 38.89999999999998-0.2999999999999545 77.80000000000001 0.10000000000002274 116.59999999999997 0.1999999999999318 23.30000000000001 9 42.900000000000034 29.299999999999955 55.60000000000002 5.800000000000068 3.6000000000000227 7.2000000000000455 7.399999999999977 7.2000000000000455 13.699999999999989-0.20000000000004547 58-0.10000000000002274 115.90000000000003-0.10000000000002274 173.90000000000003 0 33.10000000000002-0.10000000000002274 66.19999999999993 0 99.29999999999995 0.10000000000002274 14.399999999999977 10.399999999999977 25.700000000000045 24.200000000000045 27 13 1.3000000000000682 25.399999999999977-7.7999999999999545 28.299999999999955-21.399999999999977 1.1000000000000227-4.899999999999977 1.2000000000000455-10 1.2000000000000455-15 0.09999999999990905-87.5 0.09999999999990905-174.89999999999998-0.10000000000002274-262.4 0-7.5 1.6000000000000227-12.200000000000045 8.299999999999955-16.600000000000023 17-11.100000000000023 26.399999999999977-27.5 26.700000000000045-47.89999999999998 0.5-41.700000000000045 0.1999999999999318-83.5 0.2999999999999545-125.30000000000001 0-5.900000000000006-1.5-11.200000000000017-8.199999999999932-11.5z m-435.30000000000007 79.30000000000001c-93.89999999999998 0-170.2 76.19999999999999-170.2 169.89999999999998 0 94.79999999999995 75.60000000000002 171.10000000000002 170 171.29999999999995 93.19999999999999 0.20000000000004547 170.90000000000003-76.29999999999995 171-168.29999999999995 0.10000000000002274-96.39999999999998-75.5-172.89999999999998-170.8-172.89999999999998z"/>
</svg>
