<svg xmlns="http://www.w3.org/2000/svg" viewBox="0 0 1000 1000" width="1000" height="1000">
<path d="M327.4 29.1c-10.399999999999977-17-29.099999999999966-28.1-50.299999999999955-28.1l-96.10000000000002 0.10000000000000009c-33.80000000000001 0-61.2 27.7-61.2 61.8 0 12.000000000000007 3.5 23.199999999999996 9.399999999999991 32.50000000000001l0.6000000000000227 0.8999999999999915c28.5 41.000000000000014 45 90.3 45 143.7 0 90.60000000000002-48.000000000000014 170.2-119.30000000000001 213.7l-0.8999999999999986 0.30000000000001137c-13.700000000000003 8.899999999999977-22.900000000000002 24-22.900000000000002 42.10000000000002v28.600000000000023h433.6v-225.20000000000005s0.6999999999999886-25-16.100000000000023-55.80000000000001l-121.80000000000001-214.6z m69.90000000000003 465.09999999999997c-9.900000000000034 0-17.80000000000001-8-17.80000000000001-17.80000000000001 0-9.899999999999977 8-17.799999999999955 17.80000000000001-17.799999999999955 9.899999999999977 0 17.80000000000001 8 17.80000000000001 17.799999999999955 0.0999999999999659 9.800000000000011-8 17.80000000000001-17.80000000000001 17.80000000000001z m137.49999999999994 30.500000000000057h434v-28.600000000000023c0-18.100000000000023-9.199999999999932-33.200000000000045-23.299999999999955-42.10000000000002l-0.6000000000000227-0.30000000000001137c-71.60000000000002-43.5-119.60000000000002-123.19999999999999-119.60000000000002-213.7 0-53.400000000000006 16.800000000000068-102.69999999999999 45-143.7l0.900000000000091-0.9000000000000057c5.7999999999999545-9.300000000000011 9.099999999999909-20.5 9.099999999999909-32.50000000000001 0-34.099999999999994-27.399999999999977-61.8-60.89999999999998-61.8l-96.5-0.10000000000000142c-21.199999999999932 0-39.799999999999955 11.1-50.299999999999955 28.1l-121.39999999999998 214.6c-16.600000000000023 30.80000000000001-16.40000000000009 55.80000000000001-16.40000000000009 55.80000000000001v225.20000000000005z m67.90000000000009-66.30000000000007c9.899999999999977 0 17.799999999999955 8 17.799999999999955 17.80000000000001 0 9.900000000000034-8 17.80000000000001-17.799999999999955 17.80000000000001-9.900000000000091 0-17.800000000000068-8-17.800000000000068-17.80000000000001 0-9.699999999999989 8-17.80000000000001 17.800000000000068-17.80000000000001z m-67.90000000000009 112.10000000000002h433.9000000000001v63.299999999999955h-433.9000000000001z m-503.49999999999994 0h433.59999999999997v63.299999999999955h-433.59999999999997z m503.49999999999994 106.70000000000005h433.9000000000001v63.299999999999955h-433.9000000000001z m-503.49999999999994 0h433.59999999999997v63.299999999999955h-433.59999999999997z m937.4000000000001 260.9v-152.20000000000005h-433.9000000000001v152.10000000000002s-7.7999999999999545 60.89999999999998 67.90000000000009 60.89999999999998h298.19999999999993c75.39999999999998 0.10000000000002274 67.80000000000007-60.799999999999955 67.80000000000007-60.799999999999955z m-366-85.89999999999998c-9.900000000000091 0-17.800000000000068-8-17.800000000000068-17.800000000000068s8-17.799999999999955 17.800000000000068-17.799999999999955 17.799999999999955 8 17.799999999999955 17.799999999999955c0.10000000000002274 9.800000000000068-7.899999999999977 17.800000000000068-17.799999999999955 17.800000000000068z m-137.80000000000007-66.30000000000007h-433.59999999999997v152.10000000000002s-7.900000000000013 60.89999999999998 67.69999999999999 60.89999999999998h298.2c75.5 0 67.69999999999999-60.89999999999998 67.69999999999999-60.89999999999998v-152.10000000000002z m-67.59999999999997 66.30000000000007c-9.900000000000034 0-17.80000000000001-8-17.80000000000001-17.800000000000068s8-17.799999999999955 17.80000000000001-17.799999999999955c9.899999999999977 0 17.80000000000001 8 17.80000000000001 17.799999999999955 0.0999999999999659 9.800000000000068-8 17.800000000000068-17.80000000000001 17.800000000000068z"/>
</svg>
