<svg xmlns="http://www.w3.org/2000/svg" viewBox="0 0 1000 1000" width="1000" height="1000">
<path d="M755.8 321.9c9-8.099999999999966 9-16.799999999999955 0-25.799999999999955l-50.39999999999998-51.70000000000002c-3.699999999999932-3.700000000000017-8.100000000000023-5.400000000000006-13.600000000000023-5.400000000000006-2.3999999999999773 0-5.199999999999932 0.8000000000000114-8.5 2.4000000000000057-2.8999999999999773 1.5-5.599999999999909 3.4000000000000057-7.899999999999977 5.799999999999983l-152.5 151c-12.699999999999989 12.699999999999989-33.299999999999955 12.699999999999989-46 0l-155.2-154c-3.6999999999999886-3.6999999999999886-8.099999999999966-5.399999999999977-13.599999999999966-5.399999999999977-2.1000000000000227 0-4.600000000000023 0.6999999999999886-7.300000000000011 1.8999999999999773-3.6000000000000227 1.6000000000000227-6.600000000000023 3.9000000000000057-9.400000000000034 6.700000000000017l-47.19999999999999 48.599999999999994c-9 9-9 18.19999999999999 0 27.19999999999999l155.90000000000003 153.7c13 12.800000000000011 13 33.700000000000045 0.0999999999999659 46.5l-156 154.80000000000007c-3.6999999999999886 3.699999999999932-5.399999999999977 8.099999999999909-5.399999999999977 13.599999999999909 0 5.400000000000091 1.799999999999983 10.100000000000023 5.399999999999977 13.600000000000023l51.69999999999999 50.39999999999998c3.7000000000000455 3.7000000000000455 8.100000000000023 5.400000000000091 13.600000000000023 5.400000000000091 4.5 0 8.600000000000023-1.8000000000000682 12.199999999999989-5.400000000000091l155.10000000000002-155c12.800000000000011-12.799999999999955 33.39999999999998-12.799999999999955 46.19999999999999 0l155.10000000000002 155.10000000000002c3.699999999999932 3.7000000000000455 8.100000000000023 5.399999999999977 13.600000000000023 5.399999999999977 4.599999999999909 0 8.599999999999909-1.7999999999999545 12.199999999999932-5.399999999999977l51.700000000000045-50.39999999999998c3.699999999999932-3.7000000000000455 5.399999999999977-8.100000000000023 5.399999999999977-13.600000000000023 0-5.399999999999977-1.7999999999999545-10.100000000000023-5.399999999999977-13.600000000000023l-156.20000000000005-156.29999999999995c-12.799999999999955-12.800000000000011-12.699999999999932-33.69999999999999 0.3000000000000682-46.39999999999998l156.0999999999999-153.70000000000005z m149.70000000000005-227.39999999999998c-21.399999999999977-21.299999999999997-47.200000000000045-32-77.39999999999998-32h-656.2c-30.19999999999999 0-55.99999999999997 10.700000000000003-77.39999999999998 32s-32 47.19999999999999-32 77.30000000000001v656.2c0 30.200000000000045 10.700000000000003 56 32 77.39999999999998s47.19999999999999 32 77.4 32h656.2c30.199999999999932 0 56-10.699999999999932 77.39999999999998-32 21.399999999999977-21.399999999999977 32-47.19999999999993 32-77.39999999999998v-656.1c0-30.19999999999999-10.700000000000045-55.99999999999997-32-77.39999999999998z m-22.700000000000045 733.6c0 14.799999999999955-5.399999999999977 27.600000000000023-16.299999999999955 38.39999999999998-10.899999999999977 10.899999999999977-23.600000000000023 16.299999999999955-38.39999999999998 16.299999999999955h-656.2c-14.799999999999983 0-27.599999999999966-5.399999999999977-38.39999999999998-16.299999999999955-10.799999999999997-10.899999999999977-16.299999999999997-23.600000000000023-16.299999999999997-38.39999999999998v-656.2c0-14.799999999999983 5.3999999999999915-27.599999999999966 16.299999999999997-38.39999999999998 10.900000000000006-10.799999999999997 23.599999999999994-16.299999999999997 38.400000000000006-16.299999999999997h656.2c14.799999999999955 0 27.600000000000023 5.3999999999999915 38.39999999999998 16.299999999999997 10.799999999999955 10.900000000000006 16.299999999999955 23.599999999999994 16.299999999999955 38.400000000000006v656.2z"/>
</svg>
