<svg xmlns="http://www.w3.org/2000/svg" viewBox="0 0 1000 1000" width="1000" height="1000">
<path d="M911.2 82.2h-76.80000000000007c-14.5 0-26.299999999999955 11.799999999999997-26.299999999999955 26.299999999999997v76.80000000000001c0 14.5 11.799999999999955 26.299999999999983 26.299999999999955 26.299999999999983h76.80000000000007c14.5 0 26.299999999999955-11.799999999999983 26.299999999999955-26.299999999999983v-76.80000000000001c0-14.5-11.799999999999955-26.299999999999997-26.299999999999955-26.299999999999997z m-76.60000000000002 317.40000000000003v-100.70000000000005c0-14.5-11.800000000000068-26.299999999999955-26.300000000000068-26.299999999999955h-100.69999999999993c-14.5 0-26.300000000000068 11.799999999999955-26.300000000000068 26.299999999999955v100.70000000000005c0 14.5 11.800000000000068 26.299999999999955 26.300000000000068 26.299999999999955h100.69999999999993c14.5 0 26.300000000000068-11.799999999999955 26.300000000000068-26.299999999999955z m-242.70000000000005 342.9h-101c-14.5 0-26.299999999999955 11.799999999999955-26.299999999999955 26.299999999999955v100.70000000000005c0 14.5 11.799999999999955 26.299999999999955 26.299999999999955 26.299999999999955h101c14.5 0 26.300000000000068-11.799999999999955 26.300000000000068-26.299999999999955v-100.79999999999995c0-14.5-11.800000000000068-26.200000000000045-26.300000000000068-26.200000000000045z m277.9-277.3h-100.59999999999991c-14.5 0-26.300000000000068 11.800000000000011-26.300000000000068 26.30000000000001v100.70000000000005c0 14.5 11.800000000000068 26.299999999999955 26.300000000000068 26.299999999999955h100.69999999999993c14.5 0 26.300000000000068-11.799999999999955 26.300000000000068-26.299999999999955v-100.80000000000007c-0.10000000000002274-14.5-11.900000000000091-26.19999999999999-26.40000000000009-26.19999999999999z m-240.89999999999998 0h-166.39999999999998c-14.5 0-26.30000000000001 11.800000000000011-26.30000000000001 26.30000000000001v166.29999999999995c0 14.5 11.800000000000011 26.300000000000068 26.30000000000001 26.300000000000068h166.29999999999995c14.5 0 26.300000000000068-11.800000000000068 26.300000000000068-26.300000000000068v-166.39999999999998c0-14.5-11.700000000000045-26.19999999999999-26.200000000000045-26.19999999999999z m-375.7-45.099999999999966h212.10000000000002c14.5 0 26.30000000000001-11.800000000000011 26.30000000000001-26.30000000000001v-212.10000000000002c0-14.5-11.800000000000011-26.299999999999983-26.30000000000001-26.299999999999983h-212.10000000000002c-14.5 0-26.299999999999983 11.799999999999983-26.299999999999983 26.299999999999983v212.10000000000002c0.09999999999999432 14.5 11.799999999999983 26.30000000000001 26.299999999999983 26.30000000000001z m112 169.19999999999993h-276.4c-14.500000000000014 0-26.30000000000001 11.800000000000068-26.30000000000001 26.300000000000068v276.4c0 14.5 11.799999999999997 26.299999999999955 26.299999999999997 26.299999999999955h276.4c14.5 0 26.30000000000001-11.799999999999955 26.30000000000001-26.299999999999955v-276.4c0-14.5-11.800000000000011-26.300000000000068-26.30000000000001-26.300000000000068z m329.59999999999997-360.29999999999995v-101c0-14.5-11.799999999999955-26.299999999999997-26.299999999999955-26.299999999999997h-100.70000000000005c-14.5 0-26.299999999999955 11.799999999999997-26.299999999999955 26.299999999999997v101c0 14.5 11.799999999999955 26.30000000000001 26.299999999999955 26.30000000000001h100.70000000000005c14.5 0 26.299999999999955-11.800000000000011 26.299999999999955-26.30000000000001z"/>
</svg>
