<svg xmlns="http://www.w3.org/2000/svg" viewBox="0 0 1000 1000" width="1000" height="1000">
<path d="M279.6 481.7c-6.600000000000023-43.599999999999966-42.20000000000002-80.59999999999997-85.60000000000002-89.09999999999997-45.400000000000006-8.900000000000034-91.7 11.199999999999989-115 49.299999999999955-8.5 13.800000000000011-12.799999999999997 28.900000000000034-16.5 44.400000000000034v27.30000000000001c1.5 1.8999999999999773 1.5 4.199999999999932 1.7999999999999972 6.5 8.700000000000003 54.799999999999955 65.8 96.89999999999998 120.50000000000001 88.79999999999995 63.69999999999999-9.399999999999977 104.39999999999998-64 94.80000000000001-127.19999999999999z m441.5 41.50000000000006c9.699999999999932 46 51.299999999999955 82.59999999999991 97.60000000000002 85.89999999999998 49.799999999999955 3.5 94.39999999999998-24.399999999999977 111.69999999999993-70.20000000000005 3.1000000000000227-8.199999999999932 4.800000000000068-16.799999999999955 7.2000000000000455-25.299999999999955v-27.30000000000001c-0.5-1.3000000000000114-1.3000000000000682-2.6000000000000227-1.5-3.900000000000034-10.800000000000068-62.099999999999966-68.30000000000007-101.79999999999995-130-89.69999999999999-59 11.400000000000034-97.60000000000002 70.69999999999999-85 130.50000000000006z m-98.30000000000007 209.5c-0.09999999999990905 57.69999999999993 45.40000000000009 107.39999999999998 106.90000000000009 108.59999999999991 62.19999999999993 1.2000000000000455 111.69999999999993-48 111.89999999999998-109 0.1999999999999318-60.69999999999993-48.5-109.59999999999991-109.30000000000007-109.79999999999995-61.09999999999991-0.10000000000002274-109.29999999999995 48.10000000000002-109.5 110.20000000000005z m-13.599999999999909 95.79999999999995c0.1999999999999318-60.700000000000045-48.5-109.60000000000002-109.30000000000007-109.79999999999995-61.19999999999999-0.20000000000004547-109.39999999999998 48.09999999999991-109.5 110.19999999999993-0.0999999999999659 57.700000000000045 45.400000000000034 107.39999999999998 106.90000000000003 108.60000000000002 62.19999999999999 1.1000000000000227 111.69999999999999-48 111.90000000000003-109z m-111.80000000000007-547.2c62.200000000000045 1.2000000000000455 111.70000000000005-47.99999999999994 111.89999999999998-108.99999999999994 0.20000000000004547-60.70000000000002-48.5-109.60000000000001-109.29999999999995-109.80000000000001-61.19999999999999-0.20000000000000284-109.39999999999998 48.099999999999994-109.5 110.19999999999999-0.10000000000002274 57.70000000000002 45.39999999999998 107.40000000000003 106.89999999999998 108.60000000000002z m-120.09999999999997-13.499999999999943c0-60.70000000000002-48.900000000000034-109.70000000000002-109.5-109.60000000000002-60.900000000000006 0.10000000000002274-110.30000000000001 49.60000000000002-109.20000000000002 111.69999999999999 1.0999999999999943 62 51.20000000000002 107.10000000000002 108.4 107.20000000000005 61.89999999999998 0.0999999999999659 110.39999999999998-48.10000000000002 110.30000000000001-109.30000000000001z m245.49999999999994 0.5c0.8000000000000682 62.099999999999966 49.60000000000002 109.69999999999999 111.70000000000005 108.80000000000001 59.10000000000002-0.8000000000000114 107.79999999999995-50.5 107.20000000000005-109.30000000000001-0.6000000000000227-62.30000000000001-50.30000000000007-111.10000000000002-113.30000000000007-109.4-61.5 1.799999999999983-106.5 52.900000000000006-105.60000000000002 109.9z m-245.29999999999995 463.7c-0.39999999999997726-61.299999999999955-49.89999999999998-110.39999999999998-110.5-109.60000000000002-60.30000000000001 0.8000000000000682-108.80000000000001 49.80000000000007-108.6 109.80000000000007 0.19999999999998863 60.09999999999991 50 109.59999999999991 110.20000000000002 109.19999999999993 60-0.1999999999999318 109.29999999999995-49.799999999999955 108.89999999999998-109.39999999999998z"/>
</svg>
