<svg xmlns="http://www.w3.org/2000/svg" viewBox="0 0 1000 1000" width="1000" height="1000">
<path d="M191.7 581.4c-32 0.10000000000002274-63.89999999999999 0.10000000000002274-95.89999999999999 0-23.89999999999999 0-33.3-9.399999999999977-33.3-33.19999999999993v-420.6c0-21.50000000000003 10.400000000000006-32.00000000000003 31.799999999999997-32.10000000000002 32.60000000000001-0.20000000000000284 65.3-0.09999999999999432 97.89999999999999 0 22 0.09999999999999432 32.30000000000001 10.5 32.30000000000001 32.599999999999994 0.09999999999999432 140.20000000000002 0.09999999999999432 280.4 0 420.6 0.09999999999999432 23.399999999999977-9.300000000000011 32.59999999999991-32.80000000000001 32.69999999999993z m640.0999999999999 28.5h-268.69999999999993c0.1999999999999318 2.1000000000000227 0.39999999999997726 3.7000000000000455 0.7999999999999545 5.2000000000000455 10.399999999999977 50.19999999999993 18.899999999999977 100.69999999999993 19.100000000000023 152.19999999999993 0.20000000000004547 32.80000000000007-2.1000000000000227 65.20000000000005-16.299999999999955 95.40000000000009-8.800000000000068 19-21.100000000000023 34.89999999999998-42.700000000000045 40.5-22.30000000000001 5.7999999999999545-38.80000000000001-2.800000000000068-42.39999999999998-22.300000000000068-2.5-14.100000000000023-5-28.100000000000023-6.600000000000023-42.299999999999955-3.3000000000000114-31.700000000000045-11.699999999999989-61.200000000000045-33.89999999999998-85.39999999999998-12.700000000000045-14.100000000000023-24.100000000000023-29.5-37.30000000000001-43.10000000000002-31.5-32.700000000000045-56.400000000000034-69.70000000000005-73.80000000000001-111.70000000000005-3.5-8.299999999999955-7.800000000000011-16.100000000000023-12.300000000000011-23.899999999999977-7.599999999999966-13.299999999999955-19.5-19.399999999999977-34.5-20.299999999999955-15.800000000000011-0.900000000000091-23.80000000000001-6.5-28.399999999999977-21.700000000000045-2.1000000000000227-7.2999999999999545-2.8000000000000114-15.100000000000023-2.8000000000000114-22.69999999999999-0.19999999999998863-114.30000000000001-0.09999999999999432-228.60000000000002-0.09999999999999432-342.9 0-5.900000000000034 0.29999999999998295-11.900000000000034 1.1999999999999886-17.900000000000034 2.8000000000000114-17.599999999999994 13.700000000000017-26.700000000000003 31.400000000000006-26.799999999999997 7-0.10000000000000853 14.100000000000023-0.20000000000000284 21.100000000000023-0.6000000000000085 27.19999999999999-1.2999999999999972 54.099999999999966-4.699999999999989 80.79999999999995-11.199999999999989 27.5-6.700000000000003 54.700000000000045-15.400000000000006 83.5-15.400000000000006h222.80000000000007c1.6999999999999318 0 3.2999999999999545 0 5 0.09999999999999432 51.09999999999991 2.6000000000000085 92 44.30000000000001 93.29999999999995 95.80000000000001 27.299999999999955 19.099999999999994 45.39999999999998 50.79999999999998 45.39999999999998 86.70000000000002v1.8999999999999773c0 2.8999999999999773-0.1999999999999318 5.800000000000011-0.39999999999997726 8.699999999999989 3.5 2.6000000000000227 6.7999999999999545 5.199999999999989 9.899999999999977 8.100000000000023 20.800000000000068 19.30000000000001 33.80000000000007 46.80000000000001 33.80000000000007 77.5v1.8999999999999773c0 10.5-1.6000000000000227 20.5-4.5 30.100000000000023 36.59999999999991 16.599999999999966 62.19999999999993 53.39999999999998 62.19999999999993 96.19999999999999v1.8999999999999773c0.10000000000002274 58.700000000000045-47.19999999999993 106-105.60000000000002 106z"/>
</svg>
