<svg xmlns="http://www.w3.org/2000/svg" viewBox="0 0 1000 1000" width="1000" height="1000">
<path d="M774.5 636c63.10000000000002-74.79999999999995 86.70000000000005-161 63.299999999999955-256.8-20.899999999999977-85.80000000000001-74.39999999999998-149-148.0999999999999-195-88.70000000000005-55.29999999999998-185.80000000000007-74.29999999999998-289.20000000000005-61.29999999999998-99.89999999999998 12.599999999999994-186.7 52.5-254.1 128.5-66.80000000000001 75.20000000000002-92.4 162.99999999999997-68.5 261.80000000000007 9.599999999999994 39.39999999999998 23.39999999999999 77.79999999999995 25.799999999999997 118.79999999999995 3.0999999999999943 50.799999999999955-3.9000000000000057 99.5-28.799999999999997 144.70000000000005-3.8000000000000114 6.899999999999977-8.100000000000009 13.5-12.400000000000006 20.5 1.7000000000000028 0.599999999999909 2.5 1.099999999999909 3.200000000000003 1 65.8-8.700000000000045 127.99999999999999-27.90000000000009 184-64.40000000000009 5.300000000000011-3.5 9.5-5.5 16.400000000000034-2.199999999999932 86.69999999999999 40.60000000000002 177.5 52.5 271.69999999999993 35.69999999999993 93.80000000000007-16.799999999999955 174.80000000000007-57.799999999999955 236.70000000000005-131.29999999999995z m158.5 232.20000000000005c-5.5-6.900000000000091-11.200000000000045-13.900000000000091-15.200000000000045-21.600000000000023-25.399999999999977-49.30000000000007-22.699999999999932-100.30000000000007-5.899999999999977-150.89999999999998 17.800000000000068-53.700000000000045 15.600000000000023-105.80000000000007-8.100000000000023-156.80000000000007-6.599999999999909-14.100000000000023-15.599999999999909-27.099999999999966-24.899999999999977-43.19999999999999-1.7999999999999545 6.800000000000011-2.699999999999932 9.699999999999989-3.2999999999999545 12.699999999999989-8.300000000000068 42.80000000000007-24.800000000000068 82.30000000000007-49.5 118-70.60000000000002 102.39999999999998-170.70000000000005 157.20000000000005-291.30000000000007 177.60000000000002-21.399999999999977 3.6000000000000227-43.19999999999993 4.7999999999999545-65.29999999999995 7.2000000000000455 0.8000000000000114 1.1999999999999318 1.3000000000000114 2.2999999999999545 2.1000000000000227 2.7999999999999545 5.5 3.6000000000000227 10.799999999999955 7.2999999999999545 16.599999999999966 10.399999999999977 92.50000000000006 49.60000000000002 187.2 53.39999999999998 284.09999999999997 14.100000000000023 3.900000000000091-1.6000000000000227 10.100000000000023-2 13.400000000000091 0 31.299999999999955 18.799999999999955 65 31.200000000000045 100.59999999999991 38.200000000000045 13.800000000000068 2.699999999999932 28 4.399999999999977 42 4.099999999999909 11-0.1999999999999318 11.600000000000023-4 4.7000000000000455-12.599999999999909z"/>
</svg>
