<svg xmlns="http://www.w3.org/2000/svg" viewBox="0 0 1000 1000" width="1000" height="1000">
<path d="M499.8 62.5c-96.69999999999999 0-180 51.900000000000006-216.8 126.4h433.70000000000005c-36.90000000000009-74.5-120-126.4-216.90000000000003-126.4z m0 486.9c96.90000000000003 0 180.09999999999997-52 216.99999999999994-126.5h-433.9c36.900000000000034 74.70000000000005 120.20000000000005 126.5 216.90000000000003 126.5z m246.90000000000003-342h-493.70000000000005c-15.099999999999994 30.100000000000023-23.400000000000006 63.5-23.400000000000006 98.60000000000002s8.300000000000011 68.39999999999998 23.30000000000001 98.5h493.9c15-30.100000000000023 23.300000000000068-63.39999999999998 23.300000000000068-98.5s-8.300000000000068-68.4-23.399999999999977-98.6z m-298.80000000000007 678.2c0 14.399999999999977 5.900000000000034 27.299999999999955 15.100000000000023 36.799999999999955 9.399999999999977 9.399999999999977 22.399999999999977 15.100000000000023 36.80000000000001 15.100000000000023 28.69999999999999 0 51.900000000000034-23.200000000000045 51.900000000000034-51.89999999999998v-304.20000000000005h-103.80000000000007v304.20000000000005z"/>
</svg>
