<svg xmlns="http://www.w3.org/2000/svg" viewBox="0 0 1000 1000" width="1000" height="1000">
<path d="M903.3 476.3c47.10000000000002-48.69999999999999 45-120.5-2.7999999999999545-168.3-53.5-53.599999999999994-107.10000000000002-107.19999999999999-160.60000000000002-160.7-50-50.000000000000014-123.69999999999993-50.10000000000001-173.69999999999993-0.10000000000002274-155.40000000000003 155.3-310.70000000000005 310.6-466.00000000000006 466.00000000000006-49.999999999999986 50-50.19999999999999 123.5-0.3999999999999915 173.79999999999995 29.39999999999999 29.799999999999955 58.8 59.700000000000045 89.10000000000001 88.5 6.400000000000006 6 17 10.399999999999977 25.69999999999999 10.600000000000023 43.70000000000002 1.1000000000000227 87.50000000000003 0.5 131.20000000000002 0.5 42.80000000000001 0 85.59999999999997-0.39999999999997726 128.39999999999998 0.2999999999999545 13.800000000000011 0.20000000000004547 23.80000000000001-3.8999999999999773 33.60000000000002-13.699999999999932 72.19999999999999-72.80000000000007 144.90000000000003-145.20000000000005 217.3-217.70000000000005 59.60000000000002-59.700000000000045 119.69999999999993-118.70000000000005 178.19999999999993-179.2z m-298.5 244.99999999999994l-57.69999999999993 57.700000000000045c-20.600000000000023 20.600000000000023-41 41.5-62.10000000000002 61.700000000000045-4.199999999999989 4-11.100000000000023 7.2999999999999545-16.80000000000001 7.399999999999977-81.39999999999998 0.5-162.8 0.39999999999997726-244.2 0-5.300000000000011 0-11.900000000000006-2.8999999999999773-15.699999999999989-6.600000000000023-28-27.299999999999955-55.80000000000001-54.700000000000045-82.9-82.79999999999995-33.400000000000006-34.700000000000045-33.30000000000001-83.10000000000002 0.6999999999999886-117.40000000000009 55.5-56 156.20000000000002-156.29999999999995 199.50000000000003-199.19999999999993 11.399999999999977-11.300000000000011 29.799999999999955-11.200000000000045 41.099999999999966 0.19999999999998863l238.09999999999997 238.09999999999997c11.300000000000068 11.300000000000068 11.300000000000068 29.600000000000023 0 40.89999999999998z m-3.699999999999932 143.10000000000002h336.4v25.600000000000023h-336.4v-25.600000000000023z"/>
</svg>
