<svg xmlns="http://www.w3.org/2000/svg" viewBox="0 0 1000 1000" width="1000" height="1000">
<path d="M889.8 434.1h-488.4c-23.599999999999966-44.80000000000001-70.79999999999995-75.40000000000003-125-75.40000000000003-54.29999999999998 0-101.29999999999998 30.5-124.99999999999997 75.40000000000003h-41.400000000000006c-10.099999999999994 0-18.200000000000003 8.099999999999966-18.200000000000003 18.19999999999999v95.30000000000001c0 10.100000000000023 8.100000000000009 18.199999999999932 18.200000000000003 18.199999999999932h41.400000000000006c23.599999999999994 44.80000000000007 70.79999999999998 75.30000000000007 124.99999999999997 75.30000000000007 54.30000000000001 0 101.30000000000001-30.5 125-75.30000000000007h488.5c10.100000000000023 0 18.200000000000045-8.099999999999909 18.200000000000045-18.199999999999932v-95.30000000000001c-0.10000000000002274-10.100000000000023-8.200000000000045-18.19999999999999-18.300000000000068-18.19999999999999z m-584.4 131.79999999999995c-8.799999999999955 3.8999999999999773-18.69999999999999 6.100000000000023-29 6.100000000000023s-20.099999999999966-2.2000000000000455-28.99999999999997-6.100000000000023c-25.30000000000001-11.199999999999932-43-36.5-43-65.89999999999998 0-29.399999999999977 17.69999999999999-54.69999999999999 43-65.89999999999998 8.799999999999983-3.900000000000034 18.700000000000017-6.100000000000023 29.099999999999994-6.100000000000023 10.300000000000011 0 20.100000000000023 2.1999999999999886 29.100000000000023 6.100000000000023 25.299999999999955 11.099999999999966 43 36.39999999999998 43 65.89999999999998-0.30000000000001137 29.399999999999977-17.900000000000034 54.799999999999955-43.200000000000045 65.89999999999998z m584.4-428h-142.0999999999999c-23.600000000000023-44.89999999999998-70.70000000000005-75.39999999999998-124.90000000000009-75.39999999999998s-101.29999999999995 30.5-124.99999999999994 75.4h-387.8c-10.099999999999994 0-18.200000000000003 8.099999999999994-18.200000000000003 18.19999999999999v95.30000000000001c0 10.099999999999994 8.100000000000009 18.200000000000017 18.200000000000003 18.200000000000017h387.8c23.599999999999966 44.799999999999955 70.80000000000001 75.29999999999995 124.99999999999994 75.29999999999995 54.30000000000007 0 101.30000000000007-30.5 125-75.29999999999995h142.10000000000002c10.100000000000023 0 18.200000000000045-8.100000000000023 18.200000000000045-18.200000000000017v-95.30000000000001c-0.10000000000002274-10.099999999999994-8.200000000000045-18.19999999999999-18.300000000000068-18.19999999999999z m-238.0999999999999 131.70000000000005c-8.800000000000068 3.8999999999999773-18.700000000000045 6.099999999999966-29 6.099999999999966s-20.100000000000023-2.1999999999999886-29-6.099999999999966c-25.40000000000009-11.100000000000023-43.10000000000002-36.400000000000034-43.10000000000002-65.90000000000003 0-29.399999999999977 17.699999999999932-54.69999999999999 43-65.89999999999998 8.799999999999955-3.9000000000000057 18.699999999999932-6.100000000000023 29.100000000000023-6.100000000000023s20.09999999999991 2.200000000000017 29.09999999999991 6.100000000000023c25.300000000000068 11.099999999999994 43 36.39999999999998 43 65.89999999999998-0.09999999999990905 29.5-17.699999999999932 54.80000000000001-43.09999999999991 65.90000000000003z m238.0999999999999 460.79999999999995h-233.29999999999995c-23.600000000000023-44.799999999999955-70.79999999999995-75.39999999999998-125-75.39999999999998-54.30000000000001 0-101.30000000000001 30.5-125 75.39999999999998h-296.5c-10.099999999999994 0-18.200000000000003 8.100000000000023-18.200000000000003 18.200000000000045v95.29999999999995c0 10.100000000000023 8.100000000000009 18.200000000000045 18.200000000000003 18.200000000000045h296.7c23.600000000000023 44.799999999999955 70.80000000000001 75.29999999999995 125.00000000000006 75.29999999999995 54.299999999999955 0 101.29999999999995-30.5 125-75.29999999999995h233.29999999999995c10.100000000000023 0 18.200000000000045-8.100000000000023 18.200000000000045-18.200000000000045v-95.29999999999995c-0.20000000000004547-10.100000000000023-8.300000000000068-18.200000000000045-18.40000000000009-18.200000000000045z m-329.29999999999995 131.80000000000007c-8.799999999999955 3.8999999999999773-18.700000000000045 6.099999999999909-29 6.099999999999909s-20.100000000000023-2.199999999999932-29-6.099999999999909c-25.30000000000001-11.200000000000045-43-36.5-43-65.90000000000009 0-29.399999999999977 17.69999999999999-54.69999999999993 43-65.89999999999998 8.800000000000011-3.8999999999999773 18.700000000000045-6.100000000000023 29.100000000000023-6.100000000000023 10.299999999999955 0 20.100000000000023 2.2000000000000455 29.100000000000023 6.100000000000023 25.299999999999955 11.100000000000023 43 36.39999999999998 43 65.89999999999998-0.10000000000002274 29.40000000000009-17.800000000000068 54.700000000000045-43.200000000000045 65.90000000000009z"/>
</svg>
