<svg xmlns="http://www.w3.org/2000/svg" viewBox="0 0 1000 1000" width="1000" height="1000">
<path d="M927.8 452.1v470.1c0 8.399999999999977-6.7999999999999545 15.199999999999932-15.199999999999932 15.199999999999932h-540.1c-8.399999999999977 0-15.199999999999989-6.7999999999999545-15.199999999999989-15.199999999999932v-469.80000000000007c0-8.399999999999977 6.800000000000011-15.199999999999989 15.199999999999989-15.199999999999989h42.80000000000001c8.399999999999977 0 15.199999999999989-3.5 15.199999999999989-7.699999999999989v-7.699999999999989c-0.19999999999998863-50 0.5-100.19999999999999-1-150.10000000000002-2.1000000000000227-65.6-62.89999999999998-123-128.5-126.29999999999998-69.30000000000001-3.5-130.5 43.900000000000006-143.8 110.4-2.3999999999999773 11.5-3.1999999999999886 23.599999999999966-3.1999999999999886 35.30000000000001-0.4000000000000057 44.5-0.19999999999998863 89.09999999999997-0.19999999999998863 133.7v4.399999999999977s-6.800000000000011 4.400000000000034-15.200000000000017 4.400000000000034h-51.19999999999999c-8.400000000000006 0-15.200000000000003-6.800000000000011-15.200000000000003-15.200000000000045-0.10000000000000853-51-1.6000000000000085-102 1.2000000000000028-152.79999999999995 4.8999999999999915-92.60000000000002 72.4-171.70000000000002 162.4-195.70000000000002 126.30000000000001-33.7 255 50.5 274 180 3.099999999999966 21.49999999999997 2.900000000000034 43.70000000000002 3.1999999999999886 65.4 0.39999999999997726 36 0.20000000000004547 72 0.20000000000004547 108v6.699999999999989s6.7999999999999545 6.699999999999989 15.199999999999932 6.699999999999989h384.20000000000005c8.399999999999977 0.10000000000002274 15.199999999999932 6.900000000000034 15.199999999999932 15.400000000000034z"/>
</svg>
