<svg xmlns="http://www.w3.org/2000/svg" viewBox="0 0 1000 1000" width="1000" height="1000">
<path d="M250.6 895.3c1 23.600000000000023 20.400000000000006 42.200000000000045 44.00000000000003 42.200000000000045h411.1c23.59999999999991 0 43.09999999999991-18.600000000000023 44-42.200000000000045l29.399999999999977-619.8h-557.9000000000001l29.400000000000063 619.8z m342.5-465.79999999999995c0-9.899999999999977 8-17.899999999999977 17.899999999999977-17.899999999999977h28.600000000000023c9.899999999999977 0 17.899999999999977 8.099999999999966 17.899999999999977 17.899999999999977v354.1c0 9.899999999999977-8.100000000000023 17.899999999999977-17.899999999999977 17.899999999999977h-28.600000000000023c-9.899999999999977 0-17.899999999999977-8-17.899999999999977-17.899999999999977v-354.1z m-125.10000000000002 0c0-9.899999999999977 8-17.899999999999977 17.899999999999977-17.899999999999977h28.600000000000023c9.899999999999977 0 17.899999999999977 8.099999999999966 17.899999999999977 17.899999999999977v354.1c0 9.899999999999977-8 17.899999999999977-17.899999999999977 17.899999999999977h-28.600000000000023c-9.899999999999977 0-17.899999999999977-8-17.899999999999977-17.899999999999977v-354.1z m-125.19999999999999 0c0-9.899999999999977 8-17.899999999999977 17.80000000000001-17.899999999999977h28.599999999999966c9.900000000000034 0 17.900000000000034 8.099999999999966 17.900000000000034 17.899999999999977v354.1c0 9.899999999999977-8.100000000000023 17.899999999999977-17.900000000000034 17.899999999999977h-28.599999999999966c-9.900000000000034 0-17.80000000000001-8-17.80000000000001-17.899999999999977v-354.1z m455.8-321.9h-189.60000000000002v-35.90000000000002c0-5.1000000000000085-4.100000000000023-9.200000000000003-9.200000000000045-9.200000000000003h-199.19999999999993c-5.100000000000023 0-9.200000000000045 4.099999999999994-9.200000000000045 9.200000000000003v35.89999999999999h-189.7c-15.199999999999989 0-27.599999999999994 12.300000000000011-27.599999999999994 27.599999999999994v86.80000000000001h652.1v-86.80000000000001c0-15.199999999999989-12.300000000000068-27.599999999999994-27.600000000000023-27.599999999999994z"/>
</svg>
