<svg xmlns="http://www.w3.org/2000/svg" viewBox="0 0 1000 1000" width="1000" height="1000">
<path d="M894.4 195.8c-28.299999999999955-30.200000000000017-57.39999999999998-59.60000000000002-87.60000000000002-87.9-64-59.900000000000006-159.79999999999995-60.800000000000004-223.79999999999995-1.1000000000000085-45.700000000000045 42.7-88.89999999999998 88.00000000000001-133.2 132.10000000000002-0.30000000000001137 0.2999999999999545-0.4000000000000341 0.6999999999999602-0.6000000000000227 1.1999999999999602-0.19999999999998863 0.700000000000017 0.10000000000002274 1.5 0.6999999999999886 1.700000000000017 0.4000000000000341 0.19999999999998863 0.7000000000000455 0.29999999999998295 1 0.29999999999998295 1.6000000000000227 0.09999999999999432 3.3000000000000114 0.09999999999999432 4.900000000000034 0.09999999999999432 39.19999999999999-0.5 76.09999999999997 8 110.40000000000003 27.100000000000023 5.5 3.099999999999966 8.099999999999909 0.8000000000000114 11.5-2.6999999999999886 25.299999999999955-25.400000000000034 50.5-50.900000000000034 76-76.00000000000003 24.09999999999991-23.799999999999983 57-23.69999999999999 80.89999999999998 0.09999999999999432 25 24.80000000000001 49.89999999999998 49.70000000000002 74.60000000000002 74.60000000000002 23.399999999999977 23.599999999999966 23.799999999999955 56.599999999999966 0.2999999999999545 80.19999999999999-76.79999999999995 77.5-154 154.60000000000002-231.5 231.5-6.600000000000023 6.600000000000023-15.899999999999977 11.799999999999955-24.799999999999955 14.5-22.100000000000023 6.7999999999999545-40.700000000000045-1-56.60000000000002-17-20.600000000000023-20.799999999999955-41.30000000000001-41.39999999999998-61.60000000000002-61.700000000000045-6.399999999999977-6.399999999999977-16.69999999999999-6.399999999999977-23.100000000000023 0l-54 54.10000000000002c-6.399999999999977 6.399999999999977-6.399999999999977 16.700000000000045-0.0999999999999659 23.200000000000045 22 22.5 44.099999999999966 45.5 67 67.69999999999993 63.5 61.60000000000002 165.3 61.200000000000045 227.7 0.40000000000009095 25.399999999999977-24.800000000000068 50.60000000000002-49.80000000000007 75.60000000000002-75 55.89999999999998-56.10000000000002 112.60000000000002-111.30000000000007 167.10000000000002-168.70000000000005 56.5-59.69999999999999 55.59999999999991-158.5-0.8000000000000682-218.7z m-346.19999999999993 562.0999999999999c-0.900000000000091-0.09999999999990905-1.7000000000000455-0.09999999999990905-2.6000000000000227-0.09999999999990905-39.80000000000001 0.7000000000000455-77.5-7.7999999999999545-112.30000000000001-27.199999999999932-5.699999999999989-3.2000000000000455-8.199999999999989-0.39999999999997726-11.5 2.8999999999999773-25.100000000000023 25.100000000000023-50.10000000000002 50.39999999999998-75.30000000000001 75.29999999999995-25 24.700000000000045-57.39999999999998 24.5-82.30000000000001-0.2999999999999545-23.299999999999983-23.200000000000045-46.5-46.5-69.79999999999998-69.79999999999995-29-29-29.099999999999994-59.60000000000002-0.09999999999999432-88.60000000000002l222.5-222.5c2.3000000000000114-2.3000000000000114 4.599999999999966-4.600000000000023 7-6.800000000000011 17.599999999999966-15.900000000000034 42-19.5 62.5-8.199999999999989 7 3.7999999999999545 13.199999999999989 9.5 18.899999999999977 15.199999999999989 20.19999999999999 19.80000000000001 40.099999999999966 39.89999999999998 59.80000000000001 59.599999999999966 6.399999999999977 6.400000000000034 16.700000000000045 6.400000000000034 23.100000000000023 0 18.299999999999955-18.299999999999955 36.5-36.39999999999998 55.299999999999955-55.099999999999966 6.399999999999977-6.400000000000034 6.300000000000068-16.600000000000023-0.10000000000002274-23-25.799999999999955-25.69999999999999-51.09999999999991-52.19999999999999-78.79999999999995-75.90000000000003-60.39999999999998-51.89999999999998-154.5-49.599999999999966-212.7 4.800000000000011-41.400000000000034 38.80000000000001-80.80000000000001 79.5-120.9 119.60000000000002-42.099999999999994 42.19999999999999-85 83.59999999999997-125.7 127.19999999999999-57.5 61.5-56.7 158.39999999999998 0.8999999999999915 220.10000000000002 28 30 57.099999999999994 59 87 87.10000000000002 63.29999999999998 59.5 159.50000000000003 60.69999999999993 223.00000000000003 1.5 45.89999999999998-42.90000000000009 89.39999999999998-88.40000000000009 134-132.70000000000005 0.2999999999999545-0.2999999999999545 0.39999999999997726-0.7999999999999545 0.5-1.3999999999999773 0-0.8000000000000682-1-1.6000000000000227-2.3999999999999773-1.7000000000000455z"/>
</svg>
