<svg xmlns="http://www.w3.org/2000/svg" viewBox="0 0 1000 1000" width="1000" height="1000">
<path d="M274.9 441.2c34.900000000000034-44.89999999999998 67.70000000000005-91.09999999999997 91-143.3 8.5-19 15.100000000000023-38.69999999999999 14.900000000000034-59.89999999999998-1.5-105.80000000000001-105.80000000000001-180.8-206.8-149.6-82.5 25.5-140.8 124.1-95.9 211.1 16.900000000000006 32.69999999999999 35.30000000000001 65 56.30000000000001 95.19999999999999 26.5 38.30000000000001 56.29999999999998 74.30000000000001 86.19999999999999 113.40000000000003 19.599999999999994-24.100000000000023 37.400000000000006-45.200000000000045 54.29999999999998-66.90000000000003z m-109.09999999999997-201.89999999999998c0.19999999999998863-30.200000000000017 26.099999999999994-55.70000000000002 56.29999999999998-55.400000000000006 30.700000000000017 0.29999999999998295 55.400000000000006 25.69999999999999 55.099999999999994 56.400000000000006-0.30000000000001137 29.899999999999977-26.099999999999994 55.30000000000001-55.69999999999999 55-30.599999999999994-0.30000000000001137-55.900000000000006-25.69999999999999-55.69999999999999-56z m770.5 327.2c-12.599999999999909-94.10000000000002-105.89999999999998-156.5-198-133-82.39999999999998 21-153.5 120.60000000000002-99.5 222.70000000000005 26.40000000000009 49.89999999999998 57.80000000000007 96 92.5 140.19999999999993 15 19.100000000000023 30.700000000000045 37.60000000000002 46.90000000000009 57.30000000000007 38.69999999999993-44.40000000000009 74.39999999999998-88.60000000000002 104.59999999999991-136.70000000000005 15.800000000000068-25.200000000000045 29.700000000000045-51.700000000000045 42.60000000000002-78.5 10.700000000000045-22.5 14.300000000000068-46.60000000000002 10.899999999999977-72z m-157.79999999999995 76.10000000000002c-30.100000000000023 0-55.60000000000002-25.5-55.60000000000002-55.80000000000007 0-30 25.700000000000045-55.69999999999993 55.700000000000045-55.799999999999955 30.199999999999932 0 55.89999999999998 25.600000000000023 55.69999999999993 55.700000000000045 0 30.09999999999991-25.799999999999955 55.89999999999998-55.799999999999955 55.89999999999998z m-228.60000000000002 229.39999999999998c-16.100000000000023-1.2999999999999545-32.299999999999955-2.3999999999999773-48.39999999999998-3.3999999999999773-14.300000000000011-0.8000000000000682-23.600000000000023 6.399999999999977-24.69999999999999 18.699999999999932-1.1000000000000227 12.600000000000023 7.5 21.800000000000068 22.099999999999966 22.90000000000009 13.899999999999977 1.099999999999909 27.800000000000068 1.6999999999999318 41.700000000000045 2.5v0.1999999999999318h6.7999999999999545c14.100000000000023 0.20000000000004547 23.5-7.399999999999977 24.100000000000023-19.600000000000023 0.5-11.699999999999932-7.899999999999977-20.199999999999932-21.600000000000023-21.299999999999955z m-261.79999999999995-32.10000000000002c-15.200000000000045-4.2999999999999545-30.400000000000034-8.799999999999955-45.60000000000002-13.199999999999932-2.8000000000000114-0.8000000000000682-5.699999999999989-1.2000000000000455-7.099999999999994-1.5-11 0-19.400000000000006 6.5-21.400000000000006 15.399999999999977-2.4000000000000057 10.799999999999955 2.6999999999999886 21.100000000000023 13.699999999999989 24.699999999999932 16.600000000000023 5.5 33.400000000000034 10.200000000000045 50.19999999999999 14.700000000000045 13.600000000000023 3.6000000000000227 24.200000000000045-2.2000000000000455 27.30000000000001-14.299999999999955 3.3000000000000114-11.800000000000068-3.6999999999999886-22-17.099999999999966-25.800000000000068z m132.5 22c-18.200000000000045-2.7999999999999545-36.60000000000002-4.699999999999932-54.900000000000034-7-11.699999999999989-0.39999999999997726-20.5 6.800000000000068-21.69999999999999 17.600000000000023-1.3000000000000114 11.899999999999977 5 21.100000000000023 17.100000000000023 23 17.899999999999977 2.8999999999999773 35.89999999999998 5.2000000000000455 53.89999999999998 7.2000000000000455 11.600000000000023 1.1999999999999318 21-6.300000000000068 22.600000000000023-16.700000000000045 1.7999999999999545-12.100000000000023-4.800000000000011-22.200000000000045-17-24.100000000000023z m9-211.5c-18.200000000000045 4.399999999999977-36.30000000000001 9.399999999999977-54.30000000000001 14.800000000000068-10.300000000000011 3.099999999999909-15.400000000000034 13.199999999999932-13.400000000000034 24 1.7000000000000455 9.199999999999932 10.300000000000011 15.799999999999955 21 17.5 20.400000000000034-6.100000000000023 41-11.600000000000023 61-18.700000000000045 9.200000000000045-3.2000000000000455 12.400000000000034-14.600000000000023 9.300000000000011-23.899999999999977-3.5-10.5-12.5-16.300000000000068-23.599999999999966-13.700000000000045z m-127.80000000000001 31.399999999999977c-19.900000000000034 4.2000000000000455-39.60000000000002 9.5-59 15.600000000000023-9.400000000000006 3-13.400000000000006 13.800000000000068-11 23.399999999999977 2.1999999999999886 9.100000000000023 10.399999999999977 15.300000000000068 23 15.300000000000068 17.69999999999999-4.899999999999977 38.5-9.800000000000068 58.69999999999999-16.399999999999977 8.800000000000011-2.900000000000091 12.5-14 10.199999999999989-22.90000000000009-2.5-9.699999999999932-11.599999999999966-17.199999999999932-21.899999999999977-15z m204.59999999999997-66.09999999999991c-4.599999999999966-27.100000000000023-21.899999999999977-43.80000000000007-45.599999999999966-55-3.400000000000034-1.6000000000000227-8.300000000000011-1.5-12.100000000000023-0.6000000000000227-8.199999999999989 2-13.399999999999977 7.5-14.899999999999977 16-1.6000000000000227 9.299999999999955 1.599999999999966 16.699999999999932 9.599999999999966 21.5 11.400000000000034 6.7999999999999545 20.900000000000034 14.299999999999955 23.600000000000023 28.799999999999955 1.8000000000000114 9.5 10.100000000000023 13.600000000000023 17.80000000000001 13.899999999999977 14.699999999999989-0.2999999999999545 23.80000000000001-11.5 21.599999999999966-24.59999999999991z m-109.09999999999997-54.200000000000045c1.8999999999999773-12.100000000000023-6.300000000000011-22.100000000000023-20-23.700000000000045-15.100000000000023-1.6999999999999318-30.19999999999999-3.099999999999909-42.80000000000001-4.2999999999999545h-5.399999999999977c-15.900000000000034-0.6000000000000227-25.200000000000045 6.399999999999977-25.80000000000001 19.5-0.6000000000000227 12.799999999999955 7.399999999999977 20.299999999999955 23 21.700000000000045 15.099999999999966 1.3999999999999773 30.30000000000001 2.599999999999909 45.39999999999998 4.2999999999999545 13.300000000000011 1.6000000000000227 23.69999999999999-5.2000000000000455 25.600000000000023-17.5z m290.8 315.4c-19.600000000000023-1.1999999999999318-39.39999999999998-1.7999999999999545-59.10000000000002-1-12.399999999999977 0.5-19.299999999999955 10.200000000000045-18.5 21.700000000000045 0.7999999999999545 10.899999999999977 8.899999999999977 18.399999999999977 20.799999999999955 18.899999999999977 8.700000000000045 0.2999999999999545 17.5 0.10000000000002274 26.200000000000045 0.10000000000002274v0.7999999999999545c4.5 0 9.100000000000023-0.10000000000002274 13.600000000000023 0s9.100000000000023 0.8000000000000682 13.600000000000023 0.5c11.5-0.7999999999999545 19.799999999999955-8.899999999999977 20.59999999999991-19.5 0.7000000000000455-9.899999999999977-6.899999999999977-20.799999999999955-17.199999999999932-21.5z m-521.7-138.89999999999998c-13.099999999999966 13.299999999999955-19.69999999999999 29.399999999999977-20.099999999999966 51.799999999999955 1.0999999999999943 3.900000000000091 2.5 11.600000000000023 5.299999999999983 18.700000000000045 4.200000000000017 10.299999999999955 14.700000000000017 14.899999999999977 24.599999999999994 11.899999999999977 10.5-3.199999999999932 17.100000000000023-13.399999999999977 13.800000000000011-24.299999999999955-3.6999999999999886-12.399999999999977-0.6999999999999886-21.700000000000045 7.300000000000011-31.200000000000045 7.299999999999983-8.600000000000023 5.899999999999977-21-2-28-8.100000000000023-7.2999999999999545-20.900000000000006-7-28.900000000000006 1.1000000000000227z m630.4 139.10000000000002c-10.899999999999977-0.8999999999999773-22-0.8999999999999773-32.89999999999998 0-11.100000000000023 0.8999999999999773-18.799999999999955 10.600000000000023-18.399999999999977 21.299999999999955 0.5 10.700000000000045 8.799999999999955 19.200000000000045 19.899999999999977 20 4.800000000000068 0.3000000000000682 9.700000000000045 0.10000000000002274 14.5 0.10000000000002274v-0.10000000000002274c5.2000000000000455 0 10.399999999999977 0.39999999999997726 15.5-0.10000000000002274 11.100000000000023-1 19.399999999999977-10 19.5-20.5 0.10000000000002274-10.299999999999955-7.600000000000023-19.899999999999977-18.100000000000023-20.699999999999932z m-567.6999999999999-304.70000000000005c5.799999999999983 0 11.699999999999989 0.39999999999997726 17.399999999999977-0.10000000000002274 10-1 17.5-9.799999999999955 17.5-19.899999999999977 0-10.600000000000023-7.699999999999989-20-18-20.5-11-0.6000000000000227-22-0.6000000000000227-33-0.10000000000002274-10.400000000000006 0.5-18.5 9.800000000000068-18.599999999999994 20.100000000000023-0.09999999999999432 10.399999999999977 7.799999999999983 19.600000000000023 18.099999999999994 20.5 5.599999999999994 0.39999999999997726 11.099999999999994 0 16.599999999999994 0z"/>
</svg>
