<svg xmlns="http://www.w3.org/2000/svg" viewBox="0 0 1000 1000" width="1000" height="1000">
<path d="M833.7 751.1c-66.40000000000009-66.39999999999998-132.9000000000001-132.80000000000007-199.20000000000005-199.30000000000007-4.600000000000023-4.599999999999909-9.200000000000045-7.2999999999999545-15.700000000000045-7.399999999999977-5-0.10000000000002274-10-1.1999999999999318-15.299999999999955-1.7999999999999545 35.799999999999955-45.5 25.600000000000023-105.30000000000001-7.7000000000000455-138.5-32.299999999999955-32.200000000000045-91.39999999999998-44-138.09999999999997-7.600000000000023-0.19999999999998863-1.1999999999999886-0.5-2.1999999999999886-0.6999999999999886-3.1999999999999886-0.6999999999999886-5.900000000000034-1.1999999999999886-11.800000000000011-2.1999999999999886-17.69999999999999-0.30000000000001137-2.1000000000000227-1.400000000000034-4.400000000000034-2.8000000000000114-5.900000000000034-67.69999999999999-67.89999999999998-135.5-135.6-203.3-203.39999999999998-0.8999999999999773-0.9000000000000057-1.8999999999999773-1.700000000000017-3.3999999999999773-3.200000000000017-1 1.4000000000000057-1.700000000000017 2.5999999999999943-2.700000000000017 3.5-58.900000000000006 59-117.89999999999999 117.9-176.8 176.79999999999998-0.9999999999999858 1-2.1999999999999815 1.900000000000034-3.299999999999983 2.8000000000000114v1.5c1.1000000000000014 0.8000000000000114 2.299999999999997 1.6000000000000227 3.299999999999997 2.6000000000000227 67.39999999999999 67.39999999999998 134.8 134.7 202.09999999999997 202.2 2.3000000000000114 2.2999999999999545 4.800000000000011 3.3999999999999773 7.900000000000034 3.7000000000000455 6.5 0.599999999999909 13 1.5 20 2.2999999999999545-18.80000000000001 24.5-26.19999999999999 51.700000000000045-21.5 81.79999999999995 3.5 22.300000000000068 13.5 41.40000000000009 29.69999999999999 57.200000000000045 18.69999999999999 18.200000000000045 41.10000000000002 28.100000000000023 67.19999999999999 29.399999999999977 26 1.3000000000000682 49.30000000000001-6.399999999999977 70.30000000000001-22.699999999999932 0.8000000000000114 7 1.6999999999999886 13.299999999999955 2.3000000000000114 19.699999999999932 0.30000000000001137 3.3999999999999773 1.5 6 4 8.5 67.40000000000003 67.20000000000005 134.59999999999997 134.5 201.90000000000003 201.80000000000007 1 1 1.6999999999999318 2.199999999999932 2.599999999999909 3.2999999999999545h1.5c0.900000000000091-1.1000000000000227 1.8000000000000682-2.2000000000000455 2.800000000000068-3.2000000000000455 58.89999999999998-58.89999999999998 117.89999999999998-117.89999999999998 176.89999999999998-176.79999999999995 1-1 2.5-1.5 3.7999999999999545-2.2999999999999545l-0.2999999999999545-1.900000000000091c-1.1000000000000227-0.6999999999999318-2.3999999999999773-1.2999999999999545-3.2999999999999545-2.199999999999932z m-429.50000000000006-301.70000000000005c-18.5 18.600000000000023-37.099999999999966 37.200000000000045-55.69999999999999 55.60000000000002-0.8999999999999773 0.8999999999999773-2.8000000000000114 1.6000000000000227-4.100000000000023 1.3999999999999773-14.799999999999955-1.599999999999966-29.69999999999999-3.2999999999999545-44.5-5.2999999999999545-1.7999999999999545-0.20000000000004547-3.6999999999999886-1.7000000000000455-5.099999999999966-3-38.5-38.400000000000034-76.80000000000001-76.80000000000001-115.20000000000002-115.20000000000005-11.099999999999994-11.099999999999966-22.099999999999994-22.19999999999999-33.29999999999998-33.19999999999999-0.9000000000000057-0.8999999999999773-2.3000000000000114-1.3999999999999773-3.1000000000000227-2l103.70000000000002-103.69999999999999c0.5 0.9000000000000057 1 2.3000000000000114 1.9000000000000057 3.1999999999999886l148.59999999999997 148.8c1.5 1.5 2.6000000000000227 3.8000000000000114 2.900000000000034 5.899999999999977 1.8999999999999773 14.700000000000045 3.599999999999966 29.400000000000034 5.300000000000011 44.10000000000002 0.0999999999999659 1.1000000000000227-0.6000000000000227 2.5-1.400000000000034 3.3999999999999773z m248.7 406.80000000000007c-0.5-0.5-1.3999999999999773-1.3000000000000682-2.2999999999999545-2.1000000000000227-49.60000000000002-49.700000000000045-99.30000000000007-99.30000000000007-148.90000000000003-149.10000000000002-1.599999999999966-1.6000000000000227-2.6999999999999886-4-3-6.2000000000000455-1.8999999999999773-14-3.3999999999999773-28-5.099999999999966-42-0.30000000000001137-2.5 0.19999999999998863-4.2999999999999545 2-6.099999999999909 18.100000000000023-18 36.19999999999993-36 54.10000000000002-54.10000000000002 1.7999999999999545-1.8000000000000682 3.3999999999999773-2.3999999999999773 6-2.1000000000000227l43 5.2999999999999545c1.599999999999909 0.20000000000004547 3.5 1 4.699999999999932 2.2000000000000455 50 49.89999999999998 99.89999999999998 99.79999999999995 149.80000000000007 149.70000000000005 0.7999999999999545 0.7999999999999545 1.3999999999999773 1.599999999999909 2 2.099999999999909-34.10000000000002 34.200000000000045-68.10000000000002 68.20000000000005-102.30000000000007 102.40000000000009z m283.9-406.00000000000006c-1.6999999999999318-28.19999999999999-6.199999999999932-56-13.699999999999932-83.30000000000001-20-73-57.10000000000002-136.2-111.70000000000005-188.59999999999997-70.60000000000002-67.80000000000001-155-105.60000000000001-252.5-114.4-4.7999999999999545-0.4000000000000057-9.600000000000023-0.9000000000000057-14.399999999999977-1.4000000000000057h-19.700000000000045v56.8c97.80000000000007 2 182.30000000000007 35.60000000000001 251.4000000000001 104.7 69 69.10000000000002 102.5 153.60000000000002 104.5 251.2h56.799999999999955v-19.69999999999999c-0.20000000000004547-1.8000000000000114-0.6000000000000227-3.5-0.7000000000000455-5.300000000000011z m-184.5 24.69999999999999h56.700000000000045c1.2000000000000455-61.299999999999955-22.100000000000023-149.5-98.29999999999995-214.89999999999998-53.30000000000007-45.80000000000001-115.40000000000009-68.19999999999999-185.70000000000005-69.4v57.099999999999994c62.5 1.5 116.5 23 160.5 67.10000000000002 44.10000000000002 44 65.39999999999998 98 66.79999999999995 160.09999999999997z"/>
</svg>
