<svg xmlns="http://www.w3.org/2000/svg" viewBox="0 0 1000 1000" width="1000" height="1000">
<path d="M670.9 422.4c29.899999999999977-31.19999999999999 58.89999999999998-47.099999999999966 102.39999999999998-39.69999999999999 42.10000000000002 7.199999999999989 81.40000000000009 0.8000000000000114 114.60000000000002-32.30000000000001 41.5-41.299999999999955 62.700000000000045-108.19999999999999 40.89999999999998-162.09999999999997-25.899999999999977 28.299999999999983-49.89999999999998 54-73.29999999999995 80.19999999999999-10.100000000000023 11.399999999999977-20.600000000000023 13.199999999999989-35.39999999999998 9.399999999999977-75.20000000000005-19.5-74.39999999999998-19.299999999999955-94.5-91.49999999999997-5.300000000000068-19-1.5-30.900000000000006 12.100000000000023-43.599999999999994 24.5-22.900000000000006 47.59999999999991-47.20000000000002 73.29999999999995-73.00000000000001-111-23.699999999999996-195.70000000000005 46.8-190.70000000000005 152.89999999999998 0.5 11.400000000000006-0.599999999999909 23 1 34.30000000000001 3.300000000000068 22.69999999999999-5.2999999999999545 38.39999999999998-21.59999999999991 54.60000000000002-99.10000000000002 97.79999999999995-197.20000000000005 196.5-295.00000000000006 295.4-12.199999999999989 12.299999999999955-24.5 16.299999999999955-41.30000000000001 15.700000000000045-34.19999999999999-1.3000000000000682-71.49999999999997-9-102.09999999999997 1.5-79.20000000000002 27.299999999999955-118.00000000000001 128.5-89.4 192.0999999999999 25.69999999999999-28.299999999999955 49.39999999999999-54.299999999999955 73.1-80.19999999999993 7-7.600000000000023 13.199999999999989-14.399999999999977 26.099999999999994-12.600000000000023 73 10.200000000000045 82.1 19.299999999999955 102.79999999999998 90.39999999999998 6.600000000000023 22.800000000000068 2.400000000000034 37.200000000000045-15 51.30000000000007-24.599999999999966 20-48.29999999999998 41.09999999999991-72.39999999999998 61.69999999999993 111.39999999999998 33.80000000000007 202.89999999999998-41.19999999999993 195.3-144.5-1.1000000000000227-14.5-1.6000000000000227-29.100000000000023-3.1999999999999886-43.5-1.7000000000000455-15.600000000000023 3.3999999999999773-26.899999999999977 14.899999999999977-38.39999999999998 93.19999999999999-92 186.89999999999998-183.5 277.4-278.1z m16.800000000000068 125.20000000000005c-18.800000000000068-19.399999999999977-31.200000000000045-23.399999999999977-47.10000000000002 0.10000000000002274-2.800000000000068 4.199999999999932-6.899999999999977 7.899999999999977-11.100000000000023 10.799999999999955-17.100000000000023 12.100000000000023-15.200000000000045 22.100000000000023-0.5 36.39999999999998 58.89999999999998 57.10000000000002 116.39999999999998 115.60000000000002 174.70000000000005 173.30000000000007 14.199999999999932 14 28.199999999999932 29.59999999999991 9.299999999999955 47.19999999999993-16.600000000000023 15.600000000000023-31.799999999999955 3.7000000000000455-45.39999999999998-9.899999999999977-54.89999999999998-55.200000000000045-111.39999999999998-108.89999999999998-164.80000000000007-165.5-20.699999999999932-22-35.299999999999955-28.299999999999955-54-0.8999999999999773-2.8999999999999773 4.199999999999932-6.699999999999932 8-10.899999999999977 11.100000000000023-13 9.799999999999955-12.699999999999932 18.299999999999955-0.8999999999999773 29.899999999999977 75.39999999999998 74.39999999999998 149.39999999999998 150.19999999999993 225.60000000000002 223.79999999999995 30.699999999999932 29.700000000000045 69.10000000000002 36.60000000000002 109.5 18.800000000000068 38.10000000000002-16.800000000000068 54.799999999999955-48.5 58.39999999999998-83.40000000000009 0.39999999999997726-37.09999999999991-13.299999999999955-62.59999999999991-35.89999999999998-84.79999999999995-69.30000000000007-68.5-139.10000000000002-136.79999999999995-206.89999999999998-206.89999999999998z m-568.5-332.3c19.999999999999943 19.399999999999977 40.19999999999996 41.69999999999999 71.39999999999995 37.099999999999994 18.400000000000006-2.700000000000017 28.80000000000001 4.799999999999983 40.099999999999994 16.099999999999994 47.60000000000002 47.69999999999999 96.30000000000001 94.39999999999998 143.10000000000002 142.8 14.899999999999977 15.5 22.30000000000001 9.599999999999966 34.69999999999999-2.1000000000000227 13.5-12.800000000000011 14.899999999999977-20.899999999999977 0.6000000000000227-34.5-45.700000000000045-43.80000000000001-90-88.89999999999998-134.90000000000003-133.6-15.099999999999966-15-36-27.799999999999983-23-51.69999999999999-0.5-35.80000000000001-24.299999999999983-54.20000000000002-45.5-73.80000000000001-44.29999999999998-41.099999999999994-44.5-40.8-87.99999999999999 2.4000000000000057-48.5 48.400000000000006-48.7 48.599999999999994 1.5 97.30000000000001z"/>
</svg>
