<svg xmlns="http://www.w3.org/2000/svg" viewBox="0 0 1000 1000" width="1000" height="1000">
<path d="M919.8 167.7c-1.599999999999909-4.099999999999994-5.399999999999977-7.099999999999994-9.799999999999955-7.599999999999994s-8.799999999999955 1.4000000000000057-11.399999999999977 5c-15.399999999999977 21.5-35.5 28.700000000000017-58.80000000000007 37-18.799999999999955 6.700000000000017-38.299999999999955 13.599999999999994-59.299999999999955 28.700000000000017-29.799999999999955 21.399999999999977-43.39999999999998 50.5-36.60000000000002 78.09999999999997l-0.6999999999999318 0.9000000000000341c-12.400000000000091-18-25.90000000000009-34.69999999999999-40.200000000000045-49.60000000000002-66.70000000000005-69.6-160-111.5-255.8-114.79999999999998-4.199999999999989-0.09999999999999432-8.5-0.20000000000001705-12.800000000000011-0.20000000000001705-107 0-209.49999999999997 47.80000000000001-281.09999999999997 131.3-71.20000000000002 83-102.80000000000001 191-86.60000000000001 296.4 1.3999999999999915 8.800000000000068 3 17.700000000000045 5 26.5 26.299999999999997 115.89999999999998 93.60000000000001 204 184.5 241.80000000000007 22.400000000000034 9.299999999999955 45 14.099999999999909 67.19999999999999 14.099999999999909 55.10000000000002 0 103.20000000000005-29.5 131.90000000000003-80.79999999999995 10.899999999999977-19.5 18-39.700000000000045 21-60.10000000000002 1.6999999999999886-12 0.5999999999999659-24-0.6000000000000227-35.60000000000002-1.1999999999999886-12-2.3000000000000114-23.199999999999932-0.5-34.59999999999991 4.100000000000023-26.100000000000023 22.400000000000034-41.60000000000002 48.69999999999999-41.60000000000002 7.5 0 15.200000000000045 1.1999999999999318 22.800000000000068 3.699999999999932-9 16.40000000000009-17.100000000000023 32.10000000000002-24.200000000000045 46.700000000000045-15.100000000000023 30.799999999999955-25.5 56.299999999999955-30.899999999999977 75.79999999999995-3.400000000000034 12-12.300000000000011 44 9.5 59.10000000000002 6.899999999999977 4.800000000000068 15.600000000000023 6.5 24.699999999999932 4.800000000000068 8.200000000000045-1.5 33.200000000000045-6.2000000000000455 104.10000000000002-86.90000000000009 19-21.699999999999932 39.5-46.69999999999993 61-74.5 55-18.5 97.89999999999998-64.69999999999993 109.20000000000005-117.69999999999993 2.7999999999999545-13.200000000000045 4-27.400000000000034 3.5-42.200000000000045 20.600000000000023-31.799999999999955 38.69999999999993-61.599999999999966 56.89999999999998-93.5 0.2999999999999545-0.5999999999999659 0.7000000000000455-1.2999999999999545 1-2 26.399999999999977-7.199999999999989 49.10000000000002-27.799999999999955 62.5-56.5 19.299999999999955-41.89999999999998 17.899999999999977-95.79999999999998-4.2000000000000455-151.7z m-297.5 198.5c-9.599999999999909 15.199999999999989-26 24.19999999999999-43.89999999999998 24.19999999999999-9.699999999999932 0-19.299999999999955-2.7999999999999545-27.600000000000023-8-11.699999999999932-7.399999999999977-19.899999999999977-18.899999999999977-22.899999999999977-32.39999999999998-3.1000000000000227-13.5-0.6999999999999318-27.399999999999977 6.7000000000000455-39.10000000000002 9.600000000000023-15.199999999999989 26-24.19999999999999 43.89999999999998-24.19999999999999 9.799999999999955 0 19.299999999999955 2.8000000000000114 27.600000000000023 8 11.699999999999932 7.400000000000034 19.899999999999977 18.900000000000034 22.899999999999977 32.400000000000034 3.1000000000000227 13.5 0.7000000000000455 27.399999999999977-6.7000000000000455 39.099999999999966z m67.30000000000007 93.90000000000003c26.199999999999932-38.60000000000002 53.89999999999998-77 80.19999999999993-111.10000000000002 4.300000000000068 3.8000000000000114 9 7.600000000000023 14.200000000000045 11.199999999999989 8.600000000000023 5.900000000000034 17.5 10.5 26.700000000000045 13.699999999999989-22.200000000000045 38-46.10000000000002 75.60000000000002-75 118.20000000000005-47.5 70-96.90000000000009 135.10000000000002-139.10000000000002 183.19999999999993-23.600000000000023 26.90000000000009-44.200000000000045 47.60000000000002-60.10000000000002 60.40000000000009 6.100000000000023-19.600000000000023 17.899999999999977-46.60000000000002 34.200000000000045-78.5 29.09999999999991-57 71.29999999999995-127 118.89999999999998-197.10000000000002z m-460-0.30000000000001137c-9.700000000000017 0-19.30000000000001-2.8000000000000114-27.600000000000023-8-11.699999999999989-7.400000000000034-19.900000000000006-18.900000000000034-22.900000000000006-32.400000000000034-3.0999999999999943-13.5-0.6999999999999886-27.399999999999977 6.700000000000017-39.099999999999966 9.5-15.199999999999989 26-24.19999999999999 43.89999999999998-24.19999999999999 9.800000000000011 0 19.30000000000001 2.7999999999999545 27.600000000000023 8 24.19999999999999 15.199999999999989 31.5 47.299999999999955 16.19999999999999 71.5-9.5 15.099999999999966-25.900000000000006 24.19999999999999-43.900000000000006 24.19999999999999z m-54.30000000000001 114.09999999999997c9.5-15.199999999999932 26-24.199999999999932 43.89999999999998-24.199999999999932 9.700000000000017 0 19.30000000000001 2.7999999999999545 27.600000000000023 8 11.699999999999989 7.399999999999977 19.899999999999977 18.899999999999977 22.899999999999977 32.39999999999998 3.1000000000000227 13.5 0.6999999999999886 27.399999999999977-6.699999999999989 39.10000000000002-9.5 15.199999999999932-26 24.199999999999932-43.900000000000006 24.199999999999932-9.699999999999989 0-19.299999999999983-2.7999999999999545-27.599999999999994-8-11.699999999999989-7.399999999999977-19.900000000000006-18.899999999999977-22.900000000000006-32.39999999999998s-0.6999999999999886-27.399999999999977 6.700000000000017-39.10000000000002z m166-307.79999999999995c9.5-15.200000000000017 26-24.200000000000017 43.89999999999998-24.200000000000017 9.699999999999989 0 19.30000000000001 2.799999999999983 27.600000000000023 8 24.19999999999999 15.200000000000017 31.5 47.29999999999998 16.19999999999999 71.49999999999997-9.600000000000023 15.200000000000045-26 24.200000000000045-43.89999999999998 24.200000000000045-9.800000000000011 0-19.30000000000001-2.8000000000000114-27.600000000000023-8-11.699999999999989-7.400000000000034-19.899999999999977-18.900000000000034-22.899999999999977-32.400000000000034-3.1000000000000227-13.5-0.7000000000000455-27.399999999999977 6.699999999999989-39.099999999999966z"/>
</svg>
