<svg xmlns="http://www.w3.org/2000/svg" viewBox="0 0 1000 1000" width="1000" height="1000">
<path d="M937.1 845.9c-1.7000000000000455-11.5-6.300000000000068-22.600000000000023-11.5-33-10.300000000000068-20.299999999999955-21.800000000000068-39.799999999999955-32.700000000000045-59.299999999999955-112.89999999999998-203.20000000000005-225.60000000000002-406.40000000000003-338.5-609.4000000000001-6.2999999999999545-11.799999999999926-14-23.199999999999932-23.5-32.69999999999993-17.799999999999955-17.799999999999997-41-18.099999999999994-59.89999999999998-1.0999999999999943-8.300000000000011 7.699999999999989-15.800000000000011 17.799999999999983-21.19999999999999 27.799999999999983-125.30000000000001 224.7-250.3 449.7-375.20000000000005 674.5-3.399999999999963 6.2999999999999545-6.299999999999969 12.899999999999977-8.299999999999969 19.5-11.199999999999996 32.39999999999998 3.200000000000003 59 36.400000000000006 67.09999999999991 8.599999999999994 2.300000000000068 18.099999999999994 3.2000000000000455 26.89999999999999 3.2000000000000455h739c7.199999999999932 0 14.299999999999955-0.2999999999999545 21.199999999999932-1.1000000000000227 31.200000000000045-3.8999999999999773 51-26 47.30000000000007-55.5z m-437.70000000000005-551.5c17.5 0 35 1.1000000000000227 52.5 3.7000000000000455l-6.899999999999977 326.79999999999995c-15.5 2.8999999999999773-30.399999999999977 4-44.69999999999999 4-15.199999999999989 0-30.400000000000034-1.1000000000000227-45.60000000000002-4l-6.699999999999989-326.79999999999995c17.5-2.5 34.39999999999998-3.7000000000000455 51.39999999999998-3.7000000000000455z m49.5 484.4c-16.899999999999977 2.6000000000000227-33.19999999999993 4-48.69999999999999 4-16.30000000000001 0-33-1.3999999999999773-49.30000000000001-4-2.8999999999999773-16.59999999999991-4-33-4-49 0-16.09999999999991 1.1000000000000227-32.39999999999998 4-49.299999999999955 16.30000000000001-2.6000000000000227 32.400000000000034-4 48.400000000000034-4 16.30000000000001 0 32.69999999999999 1.3999999999999773 49.599999999999966 4 2.8999999999999773 16.899999999999977 4 33 4 48.700000000000045 0.10000000000002274 16.699999999999932-1.1000000000000227 33-4 49.59999999999991z"/>
</svg>
