<svg xmlns="http://www.w3.org/2000/svg" viewBox="0 0 1000 1000" width="1000" height="1000">
<path d="M867.9 223.6c-174.5-52.19999999999999-349-104.1-523.4-156.5-57.60000000000002-17.299999999999997-107.4 17.30000000000001-121 65.30000000000001-24.80000000000001 87.79999999999998-51.900000000000006 174.9-78 262.29999999999995s-52.3 174.80000000000007-78.3 262.20000000000005c-16.1 54 10.399999999999991 102.80000000000007 64.39999999999999 119 175.1 52.39999999999998 350.20000000000005 104.70000000000005 525.4 157 53.5 16 103.20000000000005-11 119.29999999999995-64.69999999999993 52.30000000000007-174.80000000000007 104.60000000000002-349.6 156.70000000000005-524.4000000000001 16.100000000000023-53.69999999999993-11.200000000000045-103.99999999999994-65.10000000000002-120.19999999999996z m-520.5 463.19999999999993c-14.599999999999966 48.700000000000045-66 76.10000000000002-114.99999999999997 61.30000000000007-49.30000000000001-14.899999999999977-76.30000000000001-65.89999999999998-61.30000000000001-115.70000000000005 14.300000000000011-47.69999999999993 66.30000000000001-75.5 114.50000000000003-61.39999999999998 48.599999999999966 14.100000000000023 76.59999999999997 66.5 61.799999999999955 115.79999999999995z m63.60000000000002-212.89999999999998c-14.600000000000023 48.60000000000002-66.10000000000002 76.30000000000007-114.80000000000001 61.80000000000007-49-14.700000000000045-76.39999999999998-66.20000000000005-61.599999999999994-115.70000000000005 14.599999999999994-48.69999999999999 65.50000000000003-75.60000000000002 115.00000000000003-60.69999999999999 49.099999999999966 14.599999999999966 76.19999999999999 65.30000000000001 61.39999999999998 114.59999999999997z m63.39999999999998-212.09999999999997c-14.5 48.099999999999966-65.69999999999999 75.5-114.29999999999995 61.099999999999966-49.400000000000034-14.699999999999989-76.90000000000003-65.79999999999995-62.10000000000002-115.39999999999998 14.600000000000023-48.69999999999999 65.89999999999998-76.19999999999999 114.89999999999998-61.599999999999994 49.200000000000045 14.799999999999983 76.40000000000003 66.19999999999999 61.5 115.9z m227.5 530.4000000000001c-14.699999999999932 49.09999999999991-65.39999999999998 76.5-114.60000000000002 61.89999999999998-49.09999999999991-14.600000000000023-76.69999999999993-65.39999999999998-62.09999999999991-114.39999999999998 14.699999999999932-49.40000000000009 66.79999999999995-77.80000000000007 115.29999999999995-62.700000000000045 48.799999999999955 15.200000000000045 76 66.29999999999995 61.39999999999998 115.20000000000005z m63.60000000000002-212.9000000000001c-14.700000000000045 49.10000000000002-65.79999999999995 76.90000000000009-114.60000000000002 62.30000000000007-49.39999999999998-14.700000000000045-76.69999999999993-66-61.69999999999993-115.80000000000007 14.599999999999909-48.49999999999994 65.39999999999998-75.59999999999997 114.19999999999993-60.99999999999994 49.39999999999998 14.899999999999977 76.80000000000007 65.30000000000001 62.10000000000002 114.49999999999994z m63.700000000000045-213.09999999999997c-14.600000000000023 49.400000000000034-65.40000000000009 77.19999999999999-114.40000000000009 62.69999999999999-49.299999999999955-14.599999999999966-77-65.39999999999998-62.5-114.5 14.600000000000023-49.19999999999999 65.5-77.09999999999997 114.40000000000009-62.69999999999999 49.19999999999993 14.600000000000023 77 65.60000000000002 62.5 114.5z"/>
</svg>
