<svg xmlns="http://www.w3.org/2000/svg" viewBox="0 0 1000 1000" width="1000" height="1000">
<path d="M196.2 462.4c22.30000000000001 153.30000000000007 44.80000000000001 306.6 66.69999999999999 460 1.7000000000000455 11.899999999999977 5.800000000000011 15.300000000000068 17.100000000000023 15.100000000000023 34.60000000000002-0.5 69.39999999999998-0.20000000000004547 104.10000000000002-0.20000000000004547 111.39999999999998 0 222.79999999999995-0.09999999999990905 334.19999999999993 0.10000000000002274 11.200000000000045 0 19-0.10000000000002274 20.600000000000023-15.299999999999955 2.800000000000068-27.700000000000045 8.700000000000045-55.10000000000002 13.100000000000023-82.80000000000007 4.2000000000000455-26.699999999999932 8-53.5 11.899999999999977-79.79999999999995-27.100000000000023-1.6000000000000227-52.19999999999993-0.7000000000000455-76.5-4.7999999999999545-79.5-13.600000000000023-139-57.80000000000007-182.5-124.70000000000005-6.2999999999999545-9.600000000000023-11.699999999999989-17.899999999999977-24.899999999999977-21.299999999999955-20.5-5.100000000000023-30.600000000000023-27.5-26.80000000000001-51.700000000000045 3.1999999999999886-20.600000000000023 19.30000000000001-34.39999999999998 40.5-34.799999999999955 31.80000000000001-0.6000000000000227 50.099999999999966 24.5 43.69999999999999 58.59999999999991-1.1000000000000227 6.2000000000000455-0.6000000000000227 14.5 2.7000000000000455 19.600000000000023 51 79.39999999999998 120.79999999999995 122.70000000000005 218.5 112.60000000000002 11-1.1000000000000227 14.299999999999955-5.100000000000023 15.799999999999955-14.899999999999977 9.399999999999977-61.200000000000045 19.200000000000045-122.39999999999998 28.700000000000045-183.70000000000005 3.2999999999999545-21.19999999999999 5.899999999999977-42.5 8.899999999999977-63.5h-615.8c-5.684341886080802e-14 3.8000000000000114-0.5000000000000568 7.7000000000000455-5.684341886080802e-14 11.5z m31.900000000000006-141.29999999999995c12.900000000000006-7.600000000000023 13.700000000000017-17.80000000000001 3.3000000000000114-37.900000000000034-8.5-16.30000000000001-13.800000000000011-33.099999999999994-2.200000000000017-49.89999999999998 12.200000000000017-17.5 30.400000000000034-20.600000000000023 50.19999999999999-18.5 20.100000000000023 2.299999999999983 35.30000000000001 12.599999999999994 46.400000000000034 28.899999999999977 4.399999999999977 6.5 5.899999999999977 15.5 11.300000000000011 20.5 6.899999999999977 6.5 16.399999999999977 13.400000000000034 24.899999999999977 13.600000000000023 6.100000000000023 0.19999999999998863 13.699999999999989-9.400000000000034 18.5-16.100000000000023 4-5.699999999999989 4.800000000000011-13.599999999999994 7.300000000000011-20.5 19.80000000000001-55.89999999999998 73.89999999999998-91.6 129.8-85.6 71.89999999999998 7.700000000000017 116.89999999999998 57.70000000000002 121.39999999999998 135.70000000000002 0.7000000000000455 11.899999999999977 0.39999999999997726 26 13.700000000000045 28.399999999999977 9.599999999999909 1.8000000000000114 22.699999999999932-2 30.899999999999977-8 31.799999999999955-22.899999999999977 61.5-17.69999999999999 81.5 15.699999999999989 3 5 10 11.5 14 10.800000000000011 5-0.8999999999999773 10.600000000000023-7.800000000000011 12.899999999999977-13.399999999999977 14.299999999999955-35.30000000000001-7.5-72.9-45.700000000000045-76.10000000000002-20.199999999999932-1.6999999999999886-40.799999999999955 1.3000000000000114-62.59999999999991 2.3000000000000114-13.100000000000023-77.1-56.40000000000009-129.7-135.5-143.7-85.70000000000005-15.200000000000017-150.10000000000002 20.599999999999994-192.00000000000006 90-26.19999999999999-9.700000000000017-48.89999999999998-22.80000000000001-73.09999999999997-26.200000000000017-38.80000000000001-5.400000000000006-74.00000000000003 7.300000000000011-96.40000000000003 42-21.69999999999999 33.5-12.099999999999994 66.29999999999998 7.100000000000023 97.6 9.099999999999994 14.5 21.599999999999994 17.900000000000034 34.29999999999998 10.400000000000034z m597.5 67.29999999999995c-1.8000000000000682-15.099999999999966-10.700000000000045-24.19999999999999-25.800000000000068-26.19999999999999-7.199999999999932-1-14.5-1-21.899999999999977-1l-275.7-0.0999999999999659h-273.9c-7.300000000000011 0-14.600000000000023 0.19999999999998863-21.900000000000006 1-16.30000000000001 1.7999999999999545-25.400000000000006 12-26.80000000000001 27.5-1.5 15.699999999999989 6.599999999999994 26.899999999999977 21.80000000000001 31.799999999999955 6.199999999999989 1.900000000000034 13.099999999999994 2.400000000000034 19.69999999999999 2.400000000000034 187.4 0.0999999999999659 374.79999999999995 0.0999999999999659 562.4 0 7.2000000000000455 0 14.799999999999955-0.5 21.5-2.8000000000000114 15.100000000000023-5.300000000000011 22.299999999999955-16.600000000000023 20.600000000000023-32.60000000000002z m-93.20000000000005-168.7c40-0.09999999999999432 71.60000000000002-31.799999999999983 71.70000000000005-71.79999999999998 0.1999999999999318-40.7-32.700000000000045-73.9-72.60000000000002-73.5-38.89999999999998 0.3999999999999915-72 33.599999999999994-72.39999999999998 72.6-0.5 39.80000000000001 32.799999999999955 72.69999999999999 73.29999999999995 72.69999999999999z m0.10000000000002274-114.6c22.700000000000045 0.30000000000001137 41.799999999999955 19.200000000000003 42.200000000000045 41.80000000000001 0.2999999999999545 22.69999999999999-20.700000000000045 43.69999999999999-43.200000000000045 43.19999999999999-22.5-0.4000000000000057-41.39999999999998-19.69999999999999-41.60000000000002-42.400000000000006-0.1999999999999318-24.099999999999994 18.399999999999977-42.79999999999998 42.60000000000002-42.599999999999994z m-399.1 61.80000000000001c28.600000000000023 0.4000000000000057 53.80000000000001-24.80000000000001 53.30000000000001-53.2s-24.099999999999966-51.300000000000004-52.80000000000001-51.2c-28.799999999999955 0.10000000000000142-52 23.099999999999994-52.099999999999966 51.7-0.19999999999998863 28.299999999999997 23.399999999999977 52.3 51.599999999999966 52.7z m0.5-74.60000000000001c13 0 20.700000000000045 8 22 22.200000000000003-1 12.5-7 21-20.899999999999977 21.69999999999999-13.100000000000023 0.700000000000017-24.100000000000023-9.399999999999991-23.100000000000023-22.099999999999994 1-13.099999999999994 8.800000000000011-21.799999999999997 22-21.799999999999997z"/>
</svg>
