<svg xmlns="http://www.w3.org/2000/svg" viewBox="0 0 1000 1000" width="1000" height="1000">
<path d="M352.2 437v11.800000000000011c11.900000000000034-1.1999999999999886 26.900000000000034-1.6999999999999886 45-1.6999999999999886 22.30000000000001 0 46.69999999999999 0.5999999999999659 73.19999999999999 1.6999999999999886v-11.800000000000011c-17.5-0.6000000000000227-30.599999999999966-3.6999999999999886-39.19999999999999-9.5s-13-15.899999999999977-13-30.600000000000023c0-16.19999999999999 5.400000000000034-38.099999999999966 16.19999999999999-65.79999999999995l15.600000000000023-40.700000000000045h128.60000000000002l35.5 96.90000000000003c4.7999999999999545 12.699999999999989 7.199999999999932 22 7.199999999999932 27.899999999999977 0 7.699999999999989-3.199999999999932 13.100000000000023-9.699999999999932 16.19999999999999-6.5 3.1000000000000227-17.100000000000023 4.900000000000034-31.899999999999977 5.5v11.800000000000011c19.399999999999977-1.1999999999999886 49.299999999999955-1.6999999999999886 89.69999999999993-1.6999999999999886 36.10000000000002 0 66 0.6000000000000227 89.70000000000005 1.6999999999999886v-11.699999999999989c-6.5-0.39999999999997726-13-3.5-19.600000000000023-9.399999999999977-6.600000000000023-5.900000000000034-12.399999999999977-15.300000000000011-17.600000000000023-28.400000000000034l-143.29999999999995-369.59999999999997c-6 0.5999999999999766-12.800000000000068 0.8999999999999773-20.5 0.8999999999999773-7.300000000000068 0-14.100000000000023-0.3000000000000007-20.5-0.8999999999999986l-134.60000000000002 345.4c-14.199999999999989 38.10000000000002-31.19999999999999 58.80000000000001-50.80000000000001 62z m163.50000000000006-317.7l58.5 159.5h-119.60000000000002l61.10000000000002-159.5z m125 461.49999999999994v11.800000000000068c16.299999999999955 0.6000000000000227 28.699999999999932 4.5 37.09999999999991 11.699999999999932s12.5 18.700000000000045 12.5 34.40000000000009c0 17.09999999999991-5.5 41.09999999999991-16.5 72.09999999999991l-72.69999999999993 195.80000000000007-104-264.4c-4.800000000000011-12.300000000000068-7.2000000000000455-21.5-7.2000000000000455-27.700000000000045 0-8.100000000000023 3.2000000000000455-13.600000000000023 9.700000000000045-16.600000000000023 6.399999999999977-3 17.100000000000023-4.699999999999932 31.899999999999977-5.2999999999999545v-11.800000000000068c-19.600000000000023 1.2000000000000455-49.5 1.7000000000000455-89.69999999999999 1.7000000000000455-36.30000000000001 0-66.30000000000001-0.6000000000000227-90-1.7000000000000455v11.800000000000068c6.5 0.39999999999997726 13.099999999999966 3.5 19.80000000000001 9.399999999999977 6.599999999999966 5.899999999999977 12.5 15.299999999999955 17.399999999999977 28.399999999999977l150.79999999999995 369.6c4.2000000000000455-0.39999999999997726 10.900000000000091-0.6000000000000227 19.90000000000009-0.6000000000000227 9.399999999999977 0 16.299999999999955 0.20000000000004547 20.799999999999955 0.6000000000000227l124.5-337.1c7.2999999999999545-20.600000000000023 15.799999999999955-36.5 25.399999999999977-47.69999999999993 9.600000000000023-11.200000000000045 19.300000000000068-18.800000000000068 29.100000000000023-22.600000000000023v-11.800000000000068c-11.899999999999977 1.2000000000000455-26.899999999999977 1.7000000000000455-45 1.7000000000000455-22.600000000000023 0-47.200000000000045-0.6000000000000227-73.79999999999995-1.7000000000000455z m-380.50000000000006-211.99999999999994v-237.70000000000002h38.60000000000002l-48.400000000000006-66.39999999999999-48.30000000000001 66.39999999999999h38.5v237.70000000000002h-38.5l48.30000000000001 66.39999999999998 48.400000000000006-66.39999999999998h-38.60000000000002z m-83.69999999999999-368.8h55.5v12.8h-55.5v-12.8z m74 0h55.5v12.8h-55.5v-12.8z m74 0h55.5v12.8h-55.5v-12.8z m73.89999999999998 0h55.5v12.8h-55.5v-12.8z m74 0h55.5v12.8h-55.5v-12.8z m74 0h55.5v12.8h-55.5v-12.8z m74 0h55.5v12.8h-55.5v-12.8z m74 0h55.5v12.8h-55.5v-12.8z m74 0h55.5v12.8h-55.5v-12.8z m-591.9 492.9h55.5v12.800000000000011h-55.5v-12.800000000000011z m74 0h55.5v12.800000000000011h-55.5v-12.800000000000011z m74 0h55.5v12.800000000000011h-55.5v-12.800000000000011z m73.89999999999998 0h55.5v12.800000000000011h-55.5v-12.800000000000011z m74 0h55.5v12.800000000000011h-55.5v-12.800000000000011z m74 0h55.5v12.800000000000011h-55.5v-12.800000000000011z m74 0h55.5v12.800000000000011h-55.5v-12.800000000000011z m73.89999999999998 0h55.5v12.800000000000011h-55.5v-12.800000000000011z m74 0h55.5v12.800000000000011h-55.5v-12.800000000000011z"/>
</svg>
