<svg xmlns="http://www.w3.org/2000/svg" viewBox="0 0 1000 1000" width="1000" height="1000">
<path d="M229.7 913.8c2.5-29.699999999999932 4.800000000000011-57.89999999999998 7.200000000000017-86.19999999999993 5.199999999999989-61.10000000000002 9.900000000000006-122.30000000000007 16.099999999999994-183.39999999999998 1.5999999999999943-16-4.099999999999994-26.600000000000023-14-37.90000000000009-57.599999999999994-65.29999999999995-114.6-131.09999999999997-171.9-196.79999999999995-1.1999999999999886-1.3999999999999773-2.299999999999997-2.6999999999999886-3.799999999999997-4.5-1.5999999999999943-1.8999999999999773-0.8999999999999986-3.8999999999999773 1.5-4.399999999999977 27.799999999999997-6.600000000000023 54.400000000000006-13 81.00000000000001-19.200000000000045 62.89999999999998-14.699999999999989 125.80000000000001-29.399999999999977 188.7-43.69999999999999 9.5-2.1999999999999886 15.600000000000023-6.699999999999989 20.600000000000023-15.099999999999966 45.599999999999966-76.80000000000001 91.69999999999999-153.50000000000003 137.59999999999997-230.10000000000002 1.400000000000034-2.299999999999997 2.8000000000000114-4.599999999999994 4.600000000000023-7.299999999999997 1.3000000000000114-2.1000000000000085 3.3999999999999773-2.1000000000000085 4.699999999999989 0 7.5 12.099999999999994 14.600000000000023 23.39999999999999 21.600000000000023 34.89999999999999 40.799999999999955 67.6 81.39999999999998 135.3 122.69999999999993 202.50000000000003 3.7000000000000455 5.899999999999977 11.300000000000068 11.5 18.100000000000023 13.199999999999989 89.60000000000002 21.30000000000001 179.30000000000007 41.80000000000001 270.5 62.89999999999998 2.3999999999999773 0.6000000000000227 3.2000000000000455 2.6000000000000227 1.8000000000000682 4.699999999999989-1.400000000000091 2.1000000000000227-2.7000000000000455 4-4.2000000000000455 5.7000000000000455-59.700000000000045 69.19999999999999-119.5 138.19999999999993-179 207.60000000000002-3.5 4-5.7000000000000455 11-5.2000000000000455 16.299999999999955 6.900000000000091 83 14.400000000000091 165.89999999999998 21.700000000000045 248.79999999999995 0.8999999999999773 9.600000000000023 1.7999999999999545 19.300000000000068 3 30.800000000000068 0.20000000000004547 2.3999999999999773-1.3999999999999773 3.699999999999932-3.7000000000000455 2.8999999999999773-4-1.3999999999999773-7.099999999999909-2.5-10.099999999999909-3.7000000000000455-81.5-34.19999999999993-163-68.29999999999995-244.20000000000005-103-10.199999999999989-4.2999999999999545-18.30000000000001-4-28.19999999999999 0.3000000000000682-80.19999999999999 34.60000000000002-160.7 68.69999999999993-241.10000000000002 102.89999999999998-3.6999999999999886 1.6000000000000227-7.5 3-12.199999999999989 4.7999999999999545-2.3000000000000114 0.7000000000000455-4-0.5-3.8000000000000114-3z"/>
</svg>
