<svg xmlns="http://www.w3.org/2000/svg" viewBox="0 0 1000 1000" width="1000" height="1000">
<path d="M62.5 272c0-2.1999999999999886 0-4.399999999999977 0.10000000000000142-6.600000000000023 1.8999999999999986-28.69999999999999 28.999999999999993-46.099999999999966 51.9-32.99999999999997 15.699999999999989 9 19.900000000000006 24.799999999999983 19.900000000000006 43.29999999999998-0.09999999999999432 84.19999999999999-0.09999999999999432 168.40000000000003-0.09999999999999432 252.59999999999997v15.300000000000068h801.3v228.39999999999998h-71.89999999999986v-151.79999999999995h-729.5v151.89999999999998h-71.70000000000005v-500.1z m310.8 72.89999999999998h12.699999999999989c70.80000000000001 0.30000000000001137 141.60000000000002 0.6000000000000227 212.39999999999998 0.7000000000000455 93.39999999999998 0.0999999999999659 186.80000000000007-0.10000000000002274 280.30000000000007 0.0999999999999659 36.19999999999993 0.10000000000002274 58.799999999999955 25.69999999999999 58.799999999999955 66.10000000000002v90.80000000000001h-564.2v-157.70000000000005z m-197.10000000000002 56c0-15.699999999999989 6.5-28.19999999999999 16.700000000000017-38.299999999999955 11.799999999999983-11.700000000000045 25.799999999999983-16.900000000000034 41.400000000000006-16.900000000000034h109v157.10000000000002h-167.10000000000002c0-34.5-0.09999999999999432-68.19999999999999 0-101.90000000000003z"/>
</svg>
