<svg xmlns="http://www.w3.org/2000/svg" viewBox="0 0 1000 1000" width="1000" height="1000">
<path d="M954.1 490.8l-175.70000000000005-175.7c-5.7999999999999545-5.800000000000011-15.100000000000023-5.800000000000011-20.799999999999955 0l-35 35c-5.800000000000068 5.7999999999999545-5.800000000000068 15.099999999999966 0 20.799999999999955l83.10000000000002 83.10000000000002h-216.80000000000007c-10.399999999999977-21.80000000000001-28.299999999999955-39.30000000000001-50.299999999999955-49v-195.9l89.19999999999993 89.20000000000002c5.800000000000068 5.800000000000011 15.100000000000023 5.800000000000011 20.800000000000068 0l35-35c5.7999999999999545-5.800000000000011 5.7999999999999545-15.100000000000023 0-20.80000000000001l-175.70000000000005-175.6c-5.7999999999999545-5.800000000000004-15.099999999999966-5.800000000000004-20.799999999999955 0l-175.60000000000002 175.7c-5.800000000000011 5.800000000000011-5.800000000000011 15.099999999999994 0 20.799999999999983l35 35c5.800000000000011 5.800000000000011 15.100000000000023 5.800000000000011 20.80000000000001 0l83.09999999999997-83.09999999999997v192.7c-19.299999999999955 10.199999999999989-34.799999999999955 26.399999999999977-44.19999999999999 46.10000000000002h-211.89999999999998l83.09999999999997-83.10000000000002c5.800000000000011-5.800000000000011 5.800000000000011-15.100000000000023 0-20.80000000000001l-34.79999999999998-35c-5.799999999999983-5.800000000000011-15.099999999999994-5.800000000000011-20.799999999999983 0l-175.70000000000002 175.60000000000002c-5.799999999999997 5.800000000000011-5.799999999999997 15.099999999999966 7.105427357601002e-15 20.80000000000001l175.70000000000002 175.69999999999993c5.799999999999983 5.800000000000068 15.099999999999994 5.800000000000068 20.799999999999983 0l35.00000000000003-35c5.7999999999999545-5.7999999999999545 5.7999999999999545-15.099999999999909 0-20.799999999999955l-89.20000000000002-89.20000000000005h218.79999999999998c9.5 18.90000000000009 24.600000000000023 34.700000000000045 43.400000000000034 44.5v197.9000000000001l-83.30000000000001-83c-5.800000000000011-5.800000000000068-15.100000000000023-5.800000000000068-20.80000000000001 0l-35 35c-5.800000000000011 5.7999999999999545-5.800000000000011 15.099999999999909 0 20.799999999999955l175.7 175.70000000000005c5.800000000000011 5.7999999999999545 15.100000000000023 5.7999999999999545 20.80000000000001 0l175.70000000000005-175.70000000000005c5.7999999999999545-5.7999999999999545 5.7999999999999545-15.100000000000023 0-20.799999999999955l-34.80000000000007-35c-5.7999999999999545-5.800000000000068-15.100000000000023-5.800000000000068-20.799999999999955 0l-89.20000000000005 89.19999999999993v-201.10000000000002c21.5-9.599999999999909 39-26.399999999999977 49.5-47.5h223.60000000000002l-89.20000000000005 89.20000000000005c-5.7999999999999545 5.7999999999999545-5.7999999999999545 15.100000000000023 0 20.799999999999955l35 35c5.800000000000068 5.800000000000068 15.100000000000023 5.800000000000068 20.800000000000068 0l175.69999999999993-175.69999999999993c5.400000000000091-5.600000000000023 5.400000000000091-15-0.1999999999999318-20.80000000000001z"/>
</svg>
