<svg xmlns="http://www.w3.org/2000/svg" viewBox="0 0 1000 1000" width="1000" height="1000">
<path d="M396 744.3l-192.6-192.5999999999999c-4.5-4.5-4.5-11.700000000000045 0-16.200000000000045l65.20000000000002-65.19999999999999c4.5-4.5 11.699999999999989-4.5 16.19999999999999 0l107.69999999999999 107.69999999999999c4.5 4.5 11.600000000000023 4.399999999999977 16-0.20000000000004547 101.39999999999998-107.49999999999994 202.29999999999995-214.59999999999997 303.5-321.99999999999994 4.2999999999999545-4.600000000000023 11.600000000000023-4.800000000000011 16.200000000000045-0.5l68.19999999999993 64.30000000000001c4.600000000000023 4.2999999999999545 4.800000000000068 11.599999999999966 0.5 16.19999999999999-128.60000000000002 136.39999999999998-257 272.49999999999994-385 408.3-4.2999999999999545 4.600000000000023-11.5 4.699999999999932-15.899999999999977 0.1999999999999318z"/>
</svg>
