<svg xmlns="http://www.w3.org/2000/svg" viewBox="0 0 1000 1000" width="1000" height="1000">
<path d="M494.3 62.5c-240.60000000000002 2.799999999999997-432.90000000000003 200-431.8 437.3 0 243.3 195.2 437.8 439.3 437.7 239.59999999999997-0.10000000000002274 435.49999999999994-196 435.59999999999997-436.6 0.10000000000002274-245.2-199.10000000000002-441.29999999999995-443.09999999999997-438.4z m5.699999999999989 777.6c-188.8-2.1000000000000227-338.9-150.60000000000002-339.7-338.3-0.8000000000000114-193.90000000000003 155.7-341.3 339.4-341.20000000000005 189.40000000000003 0.10000000000002274 334.59999999999997 152.70000000000005 339.59999999999997 329.70000000000005 5.100000000000023 185.7-142 347.49999999999994-339.29999999999995 349.8z m88.39999999999998-409.20000000000005c-1.6999999999999318-4.5-5.399999999999977-9.599999999999966-9.5-11.599999999999966-89-42.80000000000001-178.09999999999997-85.30000000000001-267.29999999999995-127.80000000000001-0.9000000000000341-0.39999999999997726-1.8000000000000114-0.6000000000000227-4.5-1.3999999999999773 4.7999999999999545 12.899999999999977 9.099999999999966 24.599999999999966 13.5 36.39999999999998 30.299999999999955 81.19999999999999 60.5 162.39999999999998 91.09999999999997 243.5 1.6999999999999886 4.5 5.600000000000023 9.399999999999977 9.699999999999989 11.399999999999977 86.90000000000003 41.80000000000007 173.89999999999998 83.20000000000005 261 124.70000000000005 2.7000000000000455 1.2999999999999545 5.399999999999977 2.2999999999999545 10.600000000000023 4.600000000000023-13.700000000000045-36.60000000000002-26.5-70.70000000000005-39.200000000000045-104.80000000000007-21.899999999999977-58.39999999999998-43.39999999999998-116.79999999999995-65.39999999999998-175z m-157.2 107.70000000000005c-23.80000000000001-63.80000000000001-47-126.10000000000002-71.39999999999998-191.40000000000003 62.69999999999999 29.900000000000034 122.89999999999998 58.60000000000002 184.40000000000003 88-38.200000000000045 35-75.10000000000002 68.69999999999999-113.00000000000006 103.40000000000003z"/>
</svg>
