<svg xmlns="http://www.w3.org/2000/svg" preserveAspectRatio="xMinYMin" viewBox="-4 -4 24 24"><path d="M8 10a2 2 0 100-4 2 2 0 000 4zm0 2a4 4 0 110-8 4 4 0 010 8zm6-5h1a1 1 0 010 2h-1a1 1 0 010-2zm-6 6a1 1 0 011 1v1a1 1 0 01-2 0v-1a1 1 0 011-1zM8 0a1 1 0 011 1v1a1 1 0 11-2 0V1a1 1 0 011-1zM1 7h1a1 1 0 110 2H1a1 1 0 110-2zm11.95 4.536l.707.707a1 1 0 11-1.414 1.414l-.707-.707a1 1 0 011.414-1.414zm-8.486 0a1 1 0 010 1.414l-.707.707a1 1 0 01-1.414-1.414l.707-.707a1 1 0 011.414 0zm9.193-9.193a1 1 0 010 1.414l-.707.707a1 1 0 01-1.414-1.414l.707-.707a1 1 0 011.414 0zm-9.9 0l.707.707A1 1 0 113.05 4.464l-.707-.707a1 1 0 011.414-1.414z"/></svg>