<svg xmlns="http://www.w3.org/2000/svg" preserveAspectRatio="xMinYMin" viewBox="-4.5 -2 24 24"><path d="M4 0h7a4 4 0 014 4v12a4 4 0 01-4 4H4a4 4 0 01-4-4V4a4 4 0 014-4zm0 2a2 2 0 00-2 2v12a2 2 0 002 2h7a2 2 0 002-2V4a2 2 0 00-2-2H4zm1 2h5a1 1 0 011 1v2a1 1 0 01-1 1H5a1 1 0 01-1-1V5a1 1 0 011-1zm0 5h1a1 1 0 011 1v1a1 1 0 01-1 1H5a1 1 0 01-1-1v-1a1 1 0 011-1zm4 0h1a1 1 0 011 1v1a1 1 0 01-1 1H9a1 1 0 01-1-1v-1a1 1 0 011-1zm0 4h1a1 1 0 011 1v1a1 1 0 01-1 1H9a1 1 0 01-1-1v-1a1 1 0 011-1zm-4 0h1a1 1 0 011 1v1a1 1 0 01-1 1H5a1 1 0 01-1-1v-1a1 1 0 011-1z"/></svg>