<svg xmlns="http://www.w3.org/2000/svg" preserveAspectRatio="xMinYMin" viewBox="-2 -2 24 24"><path d="M9.45 4.145A2 2 0 016.067 4H4a2 2 0 00-2 2v3a1 1 0 11-2 0V6a4 4 0 014-4h2.077a2 2 0 013.381-.117A1 1 0 0111.45 2h1.311L18.722.036l.003.002a1 1 0 011.273.906L20 .945v3.992l-.002.001L20 5a1 1 0 01-1.275.962l-.003.002L12.892 4H11.45v1.009c0 .03-.001.06-.004.09A4.502 4.502 0 0115 9.5V17a3 3 0 01-3 3H9a3 3 0 01-3-3V9.5a4.502 4.502 0 013.457-4.378 1.01 1.01 0 01-.007-.113v-.864zm8.597-.471V2.436l-1.866.597 1.866.64zM10.5 7A2.5 2.5 0 008 9.5V17a1 1 0 001 1h3a1 1 0 001-1V9.5A2.5 2.5 0 0010.5 7z"/></svg>