<svg xmlns="http://www.w3.org/2000/svg" preserveAspectRatio="xMinYMin" viewBox="-4 -2 24 24"><path d="M8 18a1 1 0 100-2 1 1 0 000 2zm1.033-3.817A3.001 3.001 0 117 14.17v-1.047c0-.074.003-.148.008-.221a1 1 0 00-.462-.637L3.46 10.42A3 3 0 012 7.845V5.829a3.001 3.001 0 112 0v2.016a1 1 0 00.487.858l3.086 1.846a3 3 0 01.443.324 3 3 0 01.444-.324l3.086-1.846a1 1 0 00.487-.858V5.841A3.001 3.001 0 0113 0a3 3 0 011.033 5.817v2.028a3 3 0 01-1.46 2.575l-3.086 1.846a1 1 0 00-.462.637c.005.073.008.147.008.22v1.06zM3 4a1 1 0 100-2 1 1 0 000 2zm10 0a1 1 0 100-2 1 1 0 000 2z"/></svg>