<svg xmlns="http://www.w3.org/2000/svg" preserveAspectRatio="xMinYMin" viewBox="-3 -3 24 24"><path d="M3.19 9.345a.97.97 0 011.37 0 .966.966 0 010 1.367l-2.055 2.052a1.932 1.932 0 000 2.735 1.94 1.94 0 002.74 0l4.794-4.787a.966.966 0 000-1.367.966.966 0 010-1.368.97.97 0 011.37 0 2.898 2.898 0 010 4.103l-4.795 4.787a3.879 3.879 0 01-5.48 0 3.864 3.864 0 010-5.47L3.19 9.344zm11.62-.69a.97.97 0 01-1.37 0 .966.966 0 010-1.367l2.055-2.052a1.932 1.932 0 000-2.735 1.94 1.94 0 00-2.74 0L7.962 7.288a.966.966 0 000 1.367.966.966 0 010 1.368.97.97 0 01-1.37 0 2.898 2.898 0 010-4.103l4.795-4.787a3.879 3.879 0 015.48 0 3.864 3.864 0 010 5.47L14.81 8.656z"/></svg>