<svg xmlns="http://www.w3.org/2000/svg" preserveAspectRatio="xMinYMin" viewBox="-2 -2 24 24"><path d="M2 17.613l3.419-1.14A5 5 0 016 16.317V2.387L2 3.721v13.892zm-.662 2.328A1 1 0 010 19V3a1 1 0 01.706-.956L5.419.473a5 5 0 013.162 0l3.47 1.157a3 3 0 001.898 0L18.662.059A1 1 0 0120 1v16a1 1 0 01-.706.956l-4.713 1.571a5 5 0 01-3.162 0l-3.47-1.157a3 3 0 00-1.898 0l-4.713 1.571zM18 16.28V2.387l-3.419 1.14a5 5 0 01-.581.156v13.93l4-1.334zm-6 1.334V3.683a5 5 0 01-.581-.156L8 2.387v13.93a5 5 0 01.581.156L12 17.613z"/></svg>