<svg xmlns="http://www.w3.org/2000/svg" preserveAspectRatio="xMinYMin" viewBox="-2 -2.5 24 24"><path d="M4 11a2 2 0 00-2 2v2a2 2 0 002 2h6a2 2 0 002-2v-2a2 2 0 00-2-2H4zm9.698.473l1.888-1.887A2 2 0 0117 9h.586a2 2 0 012 2v6a2 2 0 01-2 2H17a2 2 0 01-1.414-.586l-1.888-1.887A4.001 4.001 0 0110 19H4a4 4 0 01-4-4v-2a4 4 0 014-4h6a4.001 4.001 0 013.698 2.473zM17 17h.586v-6H17l-3 3 3 3zM9.259 2.379a4.5 4.5 0 11-.386 5.785 5 5 0 11.386-5.785zM5 16a1 1 0 110-2 1 1 0 010 2zm0-8a3 3 0 100-6 3 3 0 000 6zm7.5 0a2.5 2.5 0 100-5 2.5 2.5 0 000 5z"/></svg>