<svg xmlns="http://www.w3.org/2000/svg" preserveAspectRatio="xMinYMin" viewBox="-2 -2 24 24"><path d="M4 0h12a4 4 0 014 4v12a4 4 0 01-4 4H4a4 4 0 01-4-4V4a4 4 0 014-4zm0 2a2 2 0 00-2 2v12a2 2 0 002 2h12a2 2 0 002-2V4a2 2 0 00-2-2H4zm2.038 11.23a2 2 0 01-2-2v-2.5a2 2 0 012-2h1.005l1.823-1.709a2 2 0 011.367-.54h.205a1.6 1.6 0 011.6 1.6v7.8a1.6 1.6 0 01-1.6 1.6h-.205a2 2 0 01-1.367-.542L7.043 13.23H6.038zm1.795-4.5H6.038v2.5h1.795l2.205 2.067V6.664L7.833 8.73zm5.87.26a1 1 0 110-2 3 3 0 010 6 1 1 0 110-2 1 1 0 000-2z"/></svg>