<svg xmlns="http://www.w3.org/2000/svg" viewBox="0 0 301 151"><g fill-rule="evenodd"><path fill-rule="nonzero" d="M.5.5h300v150H.5z"/><path fill-rule="nonzero" d="M.5 150.5V.5h300"/><path d="M300.5.5l-300 150" mask="url(#b)"/><path fill-rule="nonzero" d="M9.123 15.484l8.816 6.406-3.367 10.365 8.817-6.406 8.816 6.406-3.367-10.365 8.817-6.406H26.756L23.389 5.12l-3.368 10.364zm59.223 0l8.817 6.406-3.368 10.365 8.817-6.406 8.816 6.406-3.367-10.365 8.817-6.406H85.98L82.612 5.12l-3.368 10.364zM38.734 40.865l8.817 6.405-3.368 10.365L53 51.229l8.817 6.406-3.368-10.365 8.817-6.405H56.368L53 30.5l-3.367 10.365zM9.123 66.245l8.816 6.406-3.367 10.364 8.817-6.405 8.816 6.405-3.367-10.364 8.817-6.406H26.756L23.389 55.88l-3.368 10.365zm59.223 0l8.817 6.406-3.368 10.364 8.817-6.405 8.816 6.405-3.367-10.364 8.817-6.406H85.98L82.612 55.88l-3.368 10.365z"/></g></svg>