<svg xmlns="http://www.w3.org/2000/svg" viewBox="0 0 301 181"><path d="M.5.5h300v180H.5z"/><path d="M.5 45.5h300v135H.5z"/><path d="M.5 90.5h300v90H.5z"/><path d="M.5 135.5h300v45H.5z"/><path d="M.5 180.5l150-90L.5.5z"/><circle cx="51.5" cy="90.5" r="40.5"/><circle cx="69.5" cy="90.5" r="40.5"/><path d="M53.368 59.195h5.449l1.683-5.183 1.683 5.183h5.449l-4.408 3.202 1.683 5.182-4.407-3.202-4.408 3.202 1.683-5.182zm0 19.325h5.449l1.683-5.182 1.683 5.182h5.449l-4.408 3.202 1.683 5.183-4.407-3.202-4.408 3.202 1.683-5.183zm0 19.325h5.449l1.683-5.183 1.683 5.183h5.449l-4.408 3.202 1.683 5.183-4.407-3.203-4.408 3.203 1.683-5.183zm0 19.325h5.449l1.683-5.183 1.683 5.183h5.449l-4.408 3.202 1.683 5.183-4.407-3.202-4.408 3.202 1.683-5.183z"/></svg>