<svg xmlns="http://www.w3.org/2000/svg" viewBox="0 0 301 201"><path d="M300.5.5H.5v200zm-300 200h300V.5z"/><path d="M.5 200.5l300-200" mask="url(#b)"/><path d="M.5 200.5l300-200" mask="url(#d)"/><path d="M60.5 22.166l5.176 14.015 11.49-9.549-2.525 14.726 14.726-2.525-9.549 11.49 14.015 5.176-14.015 5.176 9.549 11.49-14.726-2.524 2.525 14.725-11.49-9.549L60.5 88.832l-5.176-14.015-11.49 9.549 2.524-14.725-14.725 2.524 9.549-11.49-14.015-5.176 14.015-5.176-9.549-11.49 14.725 2.525-2.524-14.726 11.49 9.549z"/><circle cx="60.5" cy="55.5" r="18.333"/></svg>