<svg xmlns="http://www.w3.org/2000/svg" viewBox="0 0 301 177"><path d="M.501.5h300v176.471h-300z"/><path d="M.501 88.735h300v44.118h-300z"/><path d="M.501 103.441h300v14.706h-300z"/><path d="M104.609 63.95l5.186 3.768-1.981 6.097 5.187-3.768 5.186 3.768-1.981-6.097 5.186-3.768h-6.41l-1.981-6.097-1.981 6.097zm-25.885 8.571l5.186 3.768-1.981 6.097 5.186-3.768 5.186 3.768-1.981-6.097 5.187-3.768h-6.411l-1.981-6.097-1.981 6.097zm51.583-.267l5.186 3.768-1.982 6.097 5.187-3.768 5.186 3.768-1.981-6.097 5.187-3.768h-6.411l-1.981-6.097-1.981 6.097zm16.067 22.284l5.186 3.768-1.981 6.097 5.186-3.768 5.187 3.768-1.981-6.097 5.186-3.768h-6.411l-1.981-6.097-1.981 6.097zm0 27.059l5.186 3.768-1.981 6.097 5.186-3.768 5.187 3.768-1.981-6.097 5.186-3.768h-6.411l-1.981-6.097-1.981 6.097zm-15.882 22.353l5.186 3.768-1.982 6.097 5.187-3.768 5.186 3.768-1.981-6.097 5.187-3.768h-6.411l-1.981-6.097-1.981 6.097zm-25.869 8.242l5.186 3.768-1.981 6.097 5.186-3.768 5.186 3.768-1.98-6.097 5.186-3.768h-6.411l-1.981-6.097-1.981 6.097zm-26.291-8.576l5.186 3.768-1.981 6.097 5.187-3.768 5.186 3.768-1.981-6.097 5.186-3.768h-6.41l-1.981-6.097-1.981 6.097zm-15.548-22.152l5.186 3.768-1.982 6.097 5.187-3.768 5.186 3.768-1.981-6.097 5.187-3.768h-6.411l-1.981-6.097-1.981 6.097zm.069-27.18l5.186 3.768-1.981 6.097 5.187-3.768 5.186 3.768-1.981-6.097 5.186-3.768h-6.411l-1.98-6.097-1.982 6.097z"/></svg>