<svg xmlns="http://www.w3.org/2000/svg" viewBox="0 0 301 151"><g fill-rule="evenodd"><path fill-rule="nonzero" d="M.5.5h300v150H.5z"/><path fill-rule="nonzero" d="M.5.5h150v75H.5z"/><path d="M.5.5l150 75m0-75l-150 75" mask="url(#b)"/><path d="M.5.5l150 75m0-75l-150 75" mask="url(#d)"/><path d="M75.5.5v75M.5 38h150M75.5.5v75M.5 38h150"/><path fill-rule="nonzero" d="M273.409 18.51l2.8-8.659 2.799 8.659 9.084-.006-7.354 5.343 2.813 8.654-7.343-5.356-7.345 5.355 2.815-8.654-7.352-5.344zM246.81 94.15l2.8-8.659 2.8 8.659 9.083-.007-7.353 5.344 2.813 8.654-7.344-5.356-7.345 5.355 2.815-8.654-7.352-5.345zm26.599-17.123l2.8-8.659 2.799 8.659 9.084-.006-7.354 5.343 2.813 8.654-7.343-5.356-7.345 5.355 2.815-8.654-7.352-5.345zm-114.375 54.86l2.801-8.659 2.799 8.659 9.083-.007-7.353 5.344 2.813 8.654-7.344-5.356-7.344 5.355 2.815-8.654-7.353-5.345zm41.273-31.892l-2.8 8.658-2.8-8.659-9.083.007 7.353-5.343-2.813-8.655 7.344 5.357 7.344-5.356-2.814 8.654 7.352 5.345zm31.501-43.566l-2.8 8.659-2.799-8.659-9.084.006 7.354-5.343-2.813-8.654 7.343 5.356 7.345-5.355-2.815 8.654 7.352 5.344zm26.475-9.048l-2.801 8.658-2.799-8.658-9.083.006 7.353-5.343-2.813-8.655 7.344 5.357 7.344-5.355-2.815 8.653 7.353 5.345zm-26.475 75.402l-2.8 8.658-2.799-8.659-9.084.007 7.354-5.343-2.813-8.655 7.343 5.357 7.345-5.356-2.815 8.654 7.352 5.345zm-31.501 7.708l-2.8 8.658-2.8-8.659-9.083.007 7.353-5.344-2.813-8.654 7.344 5.356 7.344-5.355-2.814 8.654 7.352 5.345z"/></g></svg>