<svg xmlns="http://www.w3.org/2000/svg" version="1.0" viewBox="0 0 64 64"><path stroke-miterlimit="10" stroke-width="2" d="M9 35l8-23h1l8 23m-15-7h13m14 7l8-23h1l8 23m-15-7h13"/><g stroke-miterlimit="10" stroke-width="2"><path d="M32 6v2"/><path stroke-dasharray="4,2" d="M32 10v29"/><path d="M32 40v2"/></g><g stroke-miterlimit="10" stroke-width="2"><path d="M4 6v2"/><path stroke-dasharray="4,2" d="M4 10v29"/><path d="M4 40v2"/></g><g stroke-miterlimit="10" stroke-width="2"><path d="M60 6v2"/><path stroke-dasharray="4,2" d="M60 10v29"/><path d="M60 40v2"/></g><path stroke-linejoin="bevel" stroke-miterlimit="10" stroke-width="2" d="M55 63l7-7-7-7M9 49l-7 7 7 7"/><path stroke-miterlimit="10" stroke-width="2" d="M62 56H2"/></svg>