<svg xmlns="http://www.w3.org/2000/svg" viewBox="0 0 24 24"><path fill-rule="evenodd" d="M5 12c0-.107.023-.216.072-.316a.617.617 0 01.221-.253l6.86-4.35c.276-.174.623-.06.775.254a.725.725 0 01.072.316V12c0-.106.023-.215.072-.315a.617.617 0 01.221-.253l6.86-4.35c.276-.174.623-.06.775.254a.725.725 0 01.072.316v8.698c0 .36-.255.651-.57.651a.516.516 0 01-.277-.082l-6.86-4.349A.671.671 0 0113 12v4.35c0 .36-.255.651-.57.651a.516.516 0 01-.277-.082l-6.86-4.349A.671.671 0 015 12v4c0 .552-.5 1-1 1s-1-.448-1-1V8a1 1 0 112 0v4z"/></svg>