<svg xmlns="http://www.w3.org/2000/svg" viewBox="0 0 24 24"><path d="M11 19.938a7.96 7.96 0 01-3.906-1.618l-1.458 1.458-1.414-1.414 1.458-1.458A7.96 7.96 0 014.062 13H2v-2h2.062A7.96 7.96 0 015.68 7.094L4.222 5.636l1.414-1.414L7.094 5.68A7.96 7.96 0 0111 4.062V2h2v2.062a7.96 7.96 0 013.906 1.618l1.458-1.458 1.414 1.414-1.458 1.458A7.96 7.96 0 0119.938 11H22v2h-2.062a7.96 7.96 0 01-1.618 3.906l1.458 1.458-1.414 1.414-1.458-1.458A7.96 7.96 0 0113 19.938V22h-2v-2.062zM12 17a5 5 0 100-10 5 5 0 000 10z"/></svg>