<svg xmlns="http://www.w3.org/2000/svg" viewBox="0 0 24 24"><path d="M3.67 15.157c-.217.043-.424.095-.635.124-.196.027-.39-.034-.58-.075-.607-.128-1.16-.374-1.62-.807a2.573 2.573 0 01-.793-1.56c-.091-.641-.046-1.27.249-1.857.351-.7.931-1.138 1.643-1.412.144-.055.293-.1.443-.133.088-.02.121-.064.142-.145A9.548 9.548 0 014.107 5.94C5.43 4.157 7.152 2.955 9.273 2.35c1.202-.342 2.426-.422 3.669-.29 3.657.389 6.905 3.047 8.046 6.6.068.212.132.427.188.643.02.081.053.117.133.139.671.177 1.26.497 1.715 1.039.48.573.651 1.247.615 1.984-.03.626-.223 1.193-.636 1.673-.372.432-.84.717-1.363.919-.231.09-.47.153-.712.196-.075.013-.104.047-.129.111a9.72 9.72 0 01-1.507 2.578 9.668 9.668 0 01-2.945 2.435c-.417.224-.848.42-1.296.572a.564.564 0 00-.345.323c-.183.536-.557.715-1.046.712a3.663 3.663 0 01-.772-.085.585.585 0 01-.448-.401c-.108-.31-.109-.614.06-.906a.593.593 0 01.367-.288c.482-.127.967-.193 1.462-.068a.632.632 0 00.383-.025c3.071-1.164 5.052-3.34 5.757-6.585.626-2.88-.068-5.486-1.96-7.734-1.29-1.533-2.934-2.516-4.886-2.894-2.959-.573-5.583.17-7.813 2.232-1.26 1.165-2.086 2.609-2.519 4.28a9.002 9.002 0 00-.253 2.922c.065.901.268 1.77.592 2.61.014.035.025.07.04.115zM18.7 9.493c.42 1.127.565 2.29.38 3.479-.42 2.697-1.91 4.605-4.417 5.725-.98.439-2.025.609-3.105.57a7.325 7.325 0 01-1.839-.29c-.238-.072-.463-.188-.691-.29a9.205 9.205 0 01-2.469-1.592c-.445-.407-.796-.893-1.103-1.409-.674-1.134-1.023-2.362-1.011-3.675.019-2.19.86-4.027 2.517-5.484 1.071-.942 2.33-1.502 3.745-1.72.364-.055.732-.08 1.229-.08 2.958.011 5.698 1.902 6.765 4.766zm-6.91 8.693c3.44.011 6.249-2.759 6.258-6.174.01-3.408-2.78-6.178-6.237-6.193-3.445-.015-6.252 2.752-6.268 6.178-.016 3.394 2.794 6.179 6.246 6.19zm2.419-4.176a6.898 6.898 0 001.759-1.06c.01-.008.02-.013.06-.035-.14 1.38-.638 2.515-1.88 3.199-.545.3-1.14.427-1.756.463-.816.048-1.612-.033-2.365-.383-.82-.38-1.373-1.017-1.716-1.85a4.33 4.33 0 01-.293-1.164c-.009-.079-.01-.158-.018-.27l.221.177c.74.592 1.554 1.037 2.478 1.256 1.206.285 2.374.145 3.51-.333z"/></svg>