<svg xmlns="http://www.w3.org/2000/svg" viewBox="0 0 16 16"><path d="M2.71 7.043l-.729-.004a.66.66 0 00-.66.66v6.165c0 .364.296.66.66.66h.729V7.043zm1.32.003v7.478h8.756a.66.66 0 00.648-.53l1.232-6.165a.66.66 0 00-.647-.79h-3.451A1.189 1.189 0 019.406 5.6c.432-1.99.524-3.301.323-3.828-.195-.514-1.17-.587-1.562-.204-.058.057-.098.24-.133.794-.074 1.194-.187 1.79-.635 2.582-.357.632-2.291 1.937-2.352 1.962-.06.025-.216.121-.294.134-.026.005-.266.007-.723.007zm9.989-1.328a1.981 1.981 0 011.943 2.37l-1.233 6.164a1.981 1.981 0 01-1.943 1.593H1.981A1.981 1.981 0 010 13.864V7.7c0-1.094.887-1.982 1.981-1.982h2.465c1-.582 1.606-1.076 1.803-1.425.32-.566.404-1.009.467-2.014.056-.907.137-1.273.527-1.655 1.01-.99 3.148-.829 3.72.677.316.83.224 2.27-.232 4.417h3.288z"/></svg>