<?xml version="1.0" encoding="UTF-8"?>
<svg width="16px" height="16px" viewBox="0 0 16 16" version="1.1" xmlns="http://www.w3.org/2000/svg" xmlns:xlink="http://www.w3.org/1999/xlink">
    <title>@1x释义图标/access_token</title>
    <desc>Created with Sketch.</desc>
    <g id="释义图标/access_token" stroke="none" stroke-width="1" fill="none" fill-rule="evenodd">
        <g id="access_token">
            <path d="M5,5 L5,4 C5,2.34314575 6.34314575,1 8,1 C9.65685425,1 11,2.34314575 11,4 L11,5 L14,5 C14.5522847,5 15,5.44771525 15,6 L15,14 C15,14.5522847 14.5522847,15 14,15 L2,15 C1.44771525,15 1,14.5522847 1,14 L1,6 C1,5.44771525 1.44771525,5 2,5 L5,5 Z M14,6 L2,6 L2,14 L14,14 L14,6 Z M6,5 L10,5 L10,4 C10,2.8954305 9.1045695,2 8,2 C6.8954305,2 6,2.8954305 6,4 L6,5 Z M6,9 L10,9 L10,10 L6,10 L6,9 Z" id="形状" fill="#293040" fill-rule="nonzero"></path>
        </g>
    </g>
</svg>