<?xml version="1.0" encoding="UTF-8"?>
<svg width="16px" height="16px" viewBox="0 0 16 16" version="1.1" xmlns="http://www.w3.org/2000/svg" xmlns:xlink="http://www.w3.org/1999/xlink">
    <title>已归档_默认</title>
    <desc>Created with Sketch.</desc>
    <g id="已归档_默认" stroke="none" stroke-width="1" fill="none" fill-rule="evenodd">
        <g fill="#959EB2" id="形状">
            <g transform="translate(0.000000, 1.000000)">
                <path d="M15,7 C15.5522847,7 16,7.44771525 16,8 L16,13 C16,13.5522847 15.5522847,14 15,14 L1,14 C0.44771525,14 0,13.5522847 0,13 L0,8 C0,7.44771525 0.44771525,7 1,7 L15,7 Z M15,8 L1,8 L1,13 L15,13 L15,8 Z M11,10 L11,11 L5,11 L5,10 L11,10 Z M15,4 L15,6 L14,6 L14,5 L2,5 L2,6 L1,6 L1,4 L15,4 Z M14,2 L14,3 L2,3 L2,2 L14,2 Z M13,0 L13,1 L3,1 L3,0 L13,0 Z"></path>
            </g>
        </g>
    </g>
</svg>