<?xml version="1.0" encoding="UTF-8"?>
<svg width="16px" height="16px" viewBox="0 0 16 16" version="1.1" xmlns="http://www.w3.org/2000/svg" xmlns:xlink="http://www.w3.org/1999/xlink">
    <!-- Generator: Sketch 63.1 (92452) - https://sketch.com -->
    <title>Assignee</title>
    <desc>Created with Sketch.</desc>
    <g id="Assignee" stroke="none" stroke-width="1" fill="none" fill-rule="evenodd">
        <path d="M8,0 C10.209139,0 12,1.790861 12,4 C12,6.14219539 10.3160315,7.89107888 8.19964034,7.99510469 L8,8 C4.13400675,8 1,11.1340068 1,15 L6.5,15 C6.77614237,15 7,15.2238576 7,15.5 C7,15.7761424 6.77614237,16 6.5,16 L1,16 C0.44771525,16 -8.8817842e-14,15.5522847 -8.8817842e-14,15 C-8.8817842e-14,11.4153594 2.35763759,8.38137448 5.6068709,7.36408723 L5.76532098,7.31805051 C4.70032615,6.59937526 4,5.3814726 4,4 C4,1.790861 5.790861,0 8,0 Z M11.8208088,8.10007266 C12.1686483,8.25134833 12.4173457,8.57741998 12.4794489,8.96362765 C12.5100624,9.12080487 12.4967568,9.28292771 12.4423163,9.43126795 L12.3938166,9.53964626 L14.8926408,9.53964626 C15.3215869,9.52545165 15.7180224,9.7759784 15.90292,10.1780905 C16.0326795,10.450921 16.0323426,10.7710018 15.902009,11.0435372 C15.7758036,11.3534777 15.5143825,11.5820092 15.1987308,11.6583354 C15.1235046,11.6854124 15.0451775,11.7013135 14.9660635,11.7057398 L14.8470916,11.7037359 L14.1711428,11.7037359 C14.1689288,11.9526795 14.0879445,12.1939623 13.9406644,12.3904181 C14.0489517,12.6369477 14.0623149,12.9171456 13.9780146,13.1735765 C13.9090765,13.4112724 13.7470937,13.6079418 13.5316334,13.7155447 L13.5534969,13.774187 C13.5630378,13.7917071 13.5692247,13.8109779 13.5717166,13.8309376 C13.6335242,14.3518078 13.2837575,14.8287327 12.783717,14.9054157 C12.7392415,14.9368214 12.6904339,14.9606832 12.6391285,14.9762778 L12.5605263,14.9933791 L12.5723691,15 L10.2101923,15 C10.1445381,14.9939467 10.0796134,14.9817471 10.0162032,14.9635869 L9.92232192,14.9318993 L9.74650237,14.8183981 L9.61643383,14.7568201 L9.40054502,14.6276139 L9.30558698,14.5781539 L8.43195507,14.5781539 C8.32321374,14.5747117 8.21882266,14.5330248 8.13588585,14.4599234 C8.07559122,14.3985489 8.0333178,14.321417 8.01300129,14.2374683 L8.00014951,14.1515785 L8.00014951,9.97000499 C7.99470397,9.75562917 8.13860969,9.57308043 8.33378013,9.53009603 L8.40918051,9.52072938 L9.23088645,9.52072938 L9.60840421,9.17185332 L10.5718522,8.30532066 C10.9152111,7.99255302 11.4012041,7.91268709 11.8208088,8.10007266 Z M11.2822941,9.0192218 L11.238846,9.05038399 L10.3505397,9.84848016 L9.91441101,10.2506569 C9.75999321,10.3952581 9.56456211,10.4864076 9.35679652,10.5127741 L9.23088645,10.5207294 L9,10.521 L8.998,13.579 L9.30558698,13.5781539 C9.41810453,13.5781539 9.5295407,13.5971412 9.63526661,13.6340608 L9.73891766,13.6769189 L9.89119675,13.7563206 L10.0860382,13.8739431 L10.2888628,13.9782522 L10.321,14 L12.364,14 L12.4095478,13.9780552 C12.4452237,13.9636608 12.4817302,13.9513249 12.518888,13.9411201 L12.557,13.933 L12.5443926,13.8751337 C12.4813713,13.4869476 12.6530341,13.0963756 12.9816327,12.8803128 L13.029,12.853 L13.0327121,12.8262779 L13.0250953,12.792579 C12.8799825,12.4622117 12.9241021,12.079289 13.1405436,11.7905792 C13.1531289,11.7737918 13.1624068,11.7530523 13.1672899,11.7302816 L13.1711824,11.6948423 C13.1757147,11.1852488 13.5608279,10.7674668 14.0552328,10.7103836 L14.1711428,10.7037359 L14.894,10.708 L14.9652135,10.6844252 L14.9998627,10.612107 L14.9943661,10.5958581 C14.9821175,10.5692201 14.965694,10.5525421 14.9396361,10.5447661 L14.8926408,10.5396463 L12.3938166,10.5396463 C11.6785852,10.5396463 11.2077281,9.81753861 11.462287,9.1751543 L11.49,9.116 L11.4770254,9.07462311 C11.4698926,9.06044008 11.4607732,9.04807328 11.4499993,9.03775279 L11.4130454,9.01316028 C11.3714633,8.9945907 11.3263019,8.99566157 11.2822941,9.0192218 Z M8,1 C6.34314575,1 5,2.34314575 5,4 C5,4.9429737 5.43739438,5.81049569 6.16450001,6.37328186 L6.3246889,6.48913101 L7.147,7.045 L7.23768337,7.03418182 C7.39968191,7.01922276 7.56306004,7.00914319 7.72766893,7.00409063 L8.15054716,6.99631049 C9.74243014,6.91806554 11,5.60095499 11,4 C11,2.34314575 9.65685425,1 8,1 Z" id="形状结合" fill="#000000" fill-rule="nonzero"></path>
    </g>
</svg>