<?xml version="1.0" encoding="UTF-8"?>
<svg width="16px" height="16px" viewBox="0 0 16 16" version="1.1" xmlns="http://www.w3.org/2000/svg" xmlns:xlink="http://www.w3.org/1999/xlink">
    <title>@1x释义图标/企业成员管理</title>
    <desc>Created with Sketch.</desc>
    <g id="释义图标/企业成员管理" stroke="none" stroke-width="1" fill="none" fill-rule="evenodd">
        <g id="企业成员管理">
            <path d="M7,9 C3.6862915,9 1,11.6862915 1,15 L0,15 C0,11.8982423 2.01740683,9.26767518 4.81166269,8.3488565 C3.72068836,7.63449838 3,6.40141208 3,5 C3,2.790861 4.790861,1 7,1 C9.209139,1 11,2.790861 11,5 C11,7.209139 9.209139,9 7,9 Z M7,8 C8.65685425,8 10,6.65685425 10,5 C10,3.34314575 8.65685425,2 7,2 C5.34314575,2 4,3.34314575 4,5 C4,6.65685425 5.34314575,8 7,8 Z M12,8.53589838 L15,10.2679492 L15,13.7320508 L12,15.4641016 L9,13.7320508 L9,10.2679492 L12,8.53589838 Z M10,10.8452995 L10,13.1547005 L12,14.3094011 L14,13.1547005 L14,10.8452995 L12,9.69059892 L10,10.8452995 Z M12,13 C11.4477153,13 11,12.5522847 11,12 C11,11.4477153 11.4477153,11 12,11 C12.5522847,11 13,11.4477153 13,12 C13,12.5522847 12.5522847,13 12,13 Z" id="Combined-Shape" fill="#293040"></path>
        </g>
    </g>
</svg>