<?xml version="1.0" encoding="UTF-8"?>
<svg width="16px" height="16px" viewBox="0 0 16 16" version="1.1" xmlns="http://www.w3.org/2000/svg" xmlns:xlink="http://www.w3.org/1999/xlink">
    <title>@1x释义图标/领域</title>
    <desc>Created with Sketch.</desc>
    <g id="释义图标/领域" stroke="none" stroke-width="1" fill="none" fill-rule="evenodd">
        <g id="领域">
            <path d="M15,2 L15,7 L16,7 L16,8 L8,8 L8,13 L7,13 L7,0 L8,0 L8,1 L16,1 L16,2 L15,2 Z M14,2 L8,2 L8,7 L14,7 L14,2 Z M6,9.1102653 L6,10.1188899 C3.07892108,10.4722308 1,11.5505294 1,12.5 C1,13.6547259 4.07491232,15 8,15 C11.9250877,15 15,13.6547259 15,12.5 C15,11.4453588 12.4350176,10.2317691 9,10.0293186 L9,9.02707852 C12.9463116,9.24237143 16,10.7151673 16,12.5 C16,14.4329966 12.418278,16 8,16 C3.581722,16 0,14.4329966 0,12.5 C0,10.8691405 2.54954557,9.49880274 6,9.1102653 L6,9.1102653 Z" id="形状" fill="#3A3E55" fill-rule="nonzero"></path>
        </g>
    </g>
</svg>