<?xml version="1.0" encoding="UTF-8"?>
<svg width="16px" height="16px" viewBox="0 0 16 16" version="1.1" xmlns="http://www.w3.org/2000/svg" xmlns:xlink="http://www.w3.org/1999/xlink">
    <title>@1x释义图标/意见反馈</title>
    <desc>Created with Sketch.</desc>
    <g id="释义图标/意见反馈" stroke="none" stroke-width="1" fill="none" fill-rule="evenodd">
        <g id="意见反馈">
            <g id="问题反馈-copy" transform="translate(0.000000, 2.000000)" fill="#293040" fill-rule="nonzero">
                <g id="意见反馈">
                    <path d="M14.2352298,1.02782329 C14.1597926,1.00963556 14.0810216,1 14,1 L2,1 C1.91897842,1 1.84020736,1.00963556 1.7647702,1.02782329 L6.97932335,5.86990836 C7.55484506,6.40432137 8.44515494,6.40432137 9.02067665,5.86990836 L14.2352298,1.02782329 Z M14.96009,1.71937976 L9.70112775,6.60270185 C8.7419249,7.49339021 7.2580751,7.49339021 6.29887225,6.60270185 L1.03991001,1.71937976 C1.01393116,1.80841041 1,1.9025783 1,2 L1,10 C1,10.5522847 1.44771525,11 2,11 L14,11 C14.5522847,11 15,10.5522847 15,10 L15,2 C15,1.9025783 14.9860688,1.80841041 14.96009,1.71937976 Z M2,0 L14,0 C15.1045695,-2.02906125e-16 16,0.8954305 16,2 L16,10 C16,11.1045695 15.1045695,12 14,12 L2,12 C0.8954305,12 1.3527075e-16,11.1045695 0,10 L0,2 C-1.3527075e-16,0.8954305 0.8954305,2.02906125e-16 2,0 Z" id="Combined-Shape"></path>
                </g>
            </g>
        </g>
    </g>
</svg>