<?xml version="1.0" encoding="UTF-8"?>
<svg width="16px" height="16px" viewBox="0 0 16 16" version="1.1" xmlns="http://www.w3.org/2000/svg" xmlns:xlink="http://www.w3.org/1999/xlink">
    <title>@1x释义图标/社区</title>
    <desc>Created with Sketch.</desc>
    <g id="释义图标/社区" stroke="none" stroke-width="1" fill="none" fill-rule="evenodd">
        <g id="社区">
            <path d="M13,8 L13,7 L14.4814077,7 L8,1.32876823 L1.51859226,7 L3,7 L3,8 L3,14 L13,14 L13,8 Z M2,8 L0,8 L0,7 L8,0 L16,7 L16,8 L14,8 L14,15 L2,15 L2,8 Z M10.4852814,10 L8,12.4852814 L5.51471863,10 C4.82842712,9.3137085 4.82842712,8.20101013 5.51471863,7.51471863 C6.20101013,6.82842712 7.3137085,6.82842712 8,7.51471863 C8.6862915,6.82842712 9.79898987,6.82842712 10.4852814,7.51471863 C11.1715729,8.20101013 11.1715729,9.3137085 10.4852814,10 Z M9.77817459,9.29289322 C10.0739418,8.99712601 10.0739418,8.51759262 9.77817459,8.22182541 C9.48240738,7.9260582 9.00287399,7.9260582 8.70710678,8.22182541 L8,8.92893219 L7.29289322,8.22182541 C6.99712601,7.9260582 6.51759262,7.9260582 6.22182541,8.22182541 C5.9260582,8.51759262 5.9260582,8.99712601 6.22182541,9.29289322 L8,11.0710678 L9.77817459,9.29289322 Z" id="Combined-Shape" fill="#3A3E55" fill-rule="nonzero"></path>
        </g>
    </g>
</svg>