<?xml version="1.0" encoding="UTF-8"?>
<svg width="16px" height="16px" viewBox="0 0 16 16" version="1.1" xmlns="http://www.w3.org/2000/svg" xmlns:xlink="http://www.w3.org/1999/xlink">
    <title>@1x释义图标/基础设置</title>
    <desc>Created with Sketch.</desc>
    <g id="释义图标/基础设置" stroke="none" stroke-width="1" fill="none" fill-rule="evenodd">
        <g id="基础设置">
            <path d="M12,8 L11,8 L11,5 L14,5 L14,8 L13,8 L13,14 L12,14 L12,8 Z M2,8 L1,8 L1,5 L4,5 L4,8 L3,8 L3,14 L2,14 L2,8 Z M7,11 L6,11 L6,8 L9,8 L9,11 L8,11 L8,14 L7,14 L7,11 Z M13,2 L13,4 L12,4 L12,2 L13,2 Z M8,2 L8,7 L7,7 L7,2 L8,2 Z M3,2 L3,4 L2,4 L2,2 L3,2 Z M8,9 L7,9 L7,10 L8,10 L8,9 Z M3,6 L2,6 L2,7 L3,7 L3,6 Z M13,6 L12,6 L12,7 L13,7 L13,6 Z" id="形状" fill="#293040"></path>
        </g>
    </g>
</svg>