<?xml version="1.0" encoding="UTF-8"?>
<svg width="16px" height="16px" viewBox="0 0 16 16" version="1.1" xmlns="http://www.w3.org/2000/svg" xmlns:xlink="http://www.w3.org/1999/xlink">
    <title>@1x释义图标/IP白名单</title>
    <desc>Created with Sketch.</desc>
    <g id="释义图标/IP白名单" stroke="none" stroke-width="1" fill="none" fill-rule="evenodd">
        <g id="IP白名单" fill="#293040" fill-rule="nonzero">
            <path d="M8,6 L10,6 C11.1045695,6 12,6.8954305 12,8 C12,9.1045695 11.1045695,10 10,10 L9,10 L9,12 L8,12 L8,6 Z M6,7 L6,11 L7,11 L7,12 L4,12 L4,11 L5,11 L5,7 L4,7 L4,6 L7,6 L7,7 L6,7 Z M12,2 L12,1 L15,1 L15,16 L1,16 L1,1 L4,1 L4,2 L2,2 L2,15 L14,15 L14,2 L12,2 Z M5,0 L11,0 L11,3 L5,3 L5,0 Z M6,1 L6,2 L10,2 L10,1 L6,1 Z M9,7 L9,9 L10,9 C10.5522847,9 11,8.55228475 11,8 C11,7.44771525 10.5522847,7 10,7 L9,7 Z" id="形状"></path>
        </g>
    </g>
</svg>