<?xml version="1.0" encoding="UTF-8"?>
<svg width="16px" height="16px" viewBox="0 0 16 16" version="1.1" xmlns="http://www.w3.org/2000/svg" xmlns:xlink="http://www.w3.org/1999/xlink">
    <title>like</title>
    <desc>Created with Sketch.</desc>
    <defs></defs>
    <g id="首页0801" stroke="none" stroke-width="1" fill="none" fill-rule="evenodd">
        <g id="like" fill="#3C4458" fill-rule="nonzero">
            <path d="M2.70950035,7.04263719 C2.48519521,7.0417204 2.24244702,7.04061561 1.98125576,7.03932283 C1.61651665,7.03932283 1.32083718,7.33500231 1.32083718,7.69974142 L1.32083718,13.8636482 C1.32083718,14.2283874 1.61651665,14.5240668 1.98125576,14.5240668 L2.70950035,14.5240668 L2.70950035,7.04263719 Z M4.03033752,7.04599026 L4.03033752,14.5240668 L12.7859629,14.5240668 C13.1007719,14.5240668 13.3718175,14.3018626 13.4335566,13.993167 L14.6663379,7.82926016 C14.674867,7.78661483 14.6791628,7.7432313 14.6791628,7.69974142 C14.6791628,7.33500231 14.3834834,7.03932283 14.0187442,7.03932283 L10.5675258,7.03932283 C10.4827335,7.03932283 10.3981845,7.03025085 10.3153224,7.01226177 C9.67371439,6.87297088 9.26650948,6.23991622 9.40583294,5.5983516 C9.83775494,3.60881291 9.9298748,2.29796641 9.72928734,1.77063194 C9.53398566,1.25719355 8.55896718,1.18366503 8.16686453,1.56749438 C8.10879159,1.62434199 8.0686804,1.80737721 8.03425513,2.36073357 C7.95993634,3.55534368 7.84652724,4.15130699 7.39928382,4.9427119 C7.04217294,5.57462574 5.10773976,6.88029453 5.04707275,6.90491826 C4.98640573,6.92954199 4.8308648,7.02598741 4.75319996,7.03932283 C4.72747948,7.04373916 4.48652534,7.04596164 4.03033752,7.04599026 Z M14.0187442,5.71848566 C15.1129616,5.71848566 16,6.60552408 16,7.69974142 C16,7.83021105 15.9871126,7.96036165 15.9615254,8.08829765 L14.728744,14.2522045 C14.5435266,15.1782913 13.7303899,15.844904 12.7859629,15.844904 L1.98125576,15.844904 C0.88703842,15.844904 0,14.9578656 0,13.8636482 L0,7.69974142 C0,6.60552408 0.88703842,5.71848566 1.98125576,5.71848566 L4.44636779,5.71848566 C5.44559438,5.13618928 6.05200775,4.6420947 6.24936699,4.29286412 C6.56911965,3.7270563 6.65342402,3.28403801 6.71596658,2.27872053 C6.77238108,1.3719063 6.8526468,1.00563811 7.24290252,0.623616712 C8.25383031,-0.36598068 10.3910347,-0.204808872 10.9638284,1.30103726 C11.2792437,2.13024834 11.1870367,3.57023903 10.7309768,5.71848334 L14.0187442,5.71848566 Z" id="Combined-Shape" fill="#000000" fill-rule="nonzero"></path>
        </g>
    </g>
</svg>