<?xml version="1.0" encoding="UTF-8"?>
<svg width="16px" height="16px" viewBox="0 0 16 16" version="1.1" xmlns="http://www.w3.org/2000/svg" xmlns:xlink="http://www.w3.org/1999/xlink">
    <title>management</title>
    <desc>Created with Sketch.</desc>
    <g id="management" stroke="none" stroke-width="1" fill="none" fill-rule="evenodd">
        <path d="M2,2 L14,2 C14.5522847,2 15,2.41327562 15,2.92307692 L15,13.0769231 C15,13.5867244 14.5522847,14 14,14 L2,14 C1.44771525,14 1,13.5867244 1,13.0769231 L1,2.92307692 C1,2.41327562 1.44771525,2 2,2 Z M2,3 L2,13 L14,13 L14,3 L2,3 Z M6,5 L13,5 L13,6 L6,6 L6,5 Z M6,7.5 L12,7.5 L12,8.5 L6,8.5 L6,7.5 Z M6,10 L12,10 L12,11 L6,11 L6,10 Z M3,5 L4,5 L4,11 L3,11 L3,5 Z" id="形状" fill="#5E6678" fill-rule="nonzero"></path>
    </g>
</svg>