<?xml version="1.0" encoding="UTF-8"?>
<svg width="16px" height="16px" viewBox="0 0 16 16" version="1.1" xmlns="http://www.w3.org/2000/svg" xmlns:xlink="http://www.w3.org/1999/xlink">
    <title>@1x释义图标/成员</title>
    <desc>Created with Sketch.</desc>
    <g id="释义图标/成员" stroke="none" stroke-width="1" fill="none" fill-rule="evenodd">
        <g id="成员">
            <path d="M4.50210155,9.3741201 C3.59417472,8.74180541 3,7.69029118 3,6.5 C3,4.56700338 4.56700338,3 6.5,3 C8.43299662,3 10,4.56700338 10,6.5 C10,7.69029118 9.40582528,8.74180541 8.49789845,9.3741201 C10.5476858,10.1736466 12,12.1672202 12,14.5 C12,14.6685448 11.9924187,14.835319 11.9775785,15 L10.9725356,15 C10.9906833,14.8358331 11,14.6690045 11,14.5 C11,12.0147186 8.98528137,10 6.5,10 C4.01471863,10 2,12.0147186 2,14.5 C2,14.6690045 2.00931666,14.8358331 2.02746439,15 L1.02242151,15 C1.00758131,14.835319 1,14.6685448 1,14.5 C1,12.1672202 2.45231416,10.1736466 4.50210155,9.3741201 L4.50210155,9.3741201 Z M6.5,9 C7.88071187,9 9,7.88071187 9,6.5 C9,5.11928813 7.88071187,4 6.5,4 C5.11928813,4 4,5.11928813 4,6.5 C4,7.88071187 5.11928813,9 6.5,9 Z M10.6848662,8.15762149 C10.8882085,7.64469125 10.9999767,7.08548818 11,6.5001831 C11.6072233,6.04407993 12,5.31790892 12,4.5 C12,3.11928813 10.8807119,2 9.5,2 C9.03701523,2 8.60342538,2.12585463 8.23157564,2.3452187 C7.85147656,2.18662263 7.44497012,2.07866561 7.02048492,2.02977628 C7.6542236,1.39366879 8.53113867,1 9.5,1 C11.4329966,1 13,2.56700338 13,4.5 C13,5.69029118 12.4058253,6.74180541 11.4978985,7.3741201 C13.5476858,8.17364664 15,10.1672202 15,12.5 C15,12.6685448 14.9924187,12.835319 14.9775785,13 L13.9725356,13 C13.9906833,12.8358331 14,12.6690045 14,12.5 C14,10.4247979 12.5952984,8.6776814 10.6848662,8.15762149 L10.6848662,8.15762149 Z" id="形状" fill="#293040" fill-rule="nonzero"></path>
        </g>
    </g>
</svg>