<?xml version="1.0" encoding="UTF-8"?>
<svg width="16px" height="16px" viewBox="0 0 16 16" version="1.1" xmlns="http://www.w3.org/2000/svg" xmlns:xlink="http://www.w3.org/1999/xlink">
    <!-- Generator: Sketch 54.1 (76490) - https://sketchapp.com -->
    <title>释义/merge request</title>
    <desc>Created with Sketch.</desc>
    <g id="释义/merge-request" stroke="none" stroke-width="1" fill="none" fill-rule="evenodd">
        <path d="M10.6994629,2.5 L12.5,2.5 C13.0522847,2.5 13.5,2.94771525 13.5,3.5 L13.5,10.5500091 C14.6411202,10.7816442 15.5,11.790521 15.5,13 C15.5,14.3807119 14.3807119,15.5 13,15.5 C11.6192881,15.5 10.5,14.3807119 10.5,13 C10.5,11.790521 11.3588798,10.7816442 12.5,10.5500091 L12.5,4 C12.5,3.72385763 12.2761424,3.5 12,3.5 L10.6994629,3.5 L10.6994629,5.47265625 L6.69946289,2.97265625 L10.6994629,0.47265625 L10.6994629,2.5 Z M3.5,10.5500091 C4.64112016,10.7816442 5.5,11.790521 5.5,13 C5.5,14.3807119 4.38071187,15.5 3,15.5 C1.61928813,15.5 0.5,14.3807119 0.5,13 C0.5,11.790521 1.35887984,10.7816442 2.5,10.5500091 L2.5,5.44999094 C1.35887984,5.21835578 0.5,4.20947896 0.5,3 C0.5,1.61928813 1.61928813,0.5 3,0.5 C4.38071187,0.5 5.5,1.61928813 5.5,3 C5.5,4.20947896 4.64112016,5.21835578 3.5,5.44999094 L3.5,10.5500091 L3.5,10.5500091 Z M3,4.5 C3.82842712,4.5 4.5,3.82842712 4.5,3 C4.5,2.17157288 3.82842712,1.5 3,1.5 C2.17157288,1.5 1.5,2.17157288 1.5,3 C1.5,3.82842712 2.17157288,4.5 3,4.5 Z M3,14.5 C3.82842712,14.5 4.5,13.8284271 4.5,13 C4.5,12.1715729 3.82842712,11.5 3,11.5 C2.17157288,11.5 1.5,12.1715729 1.5,13 C1.5,13.8284271 2.17157288,14.5 3,14.5 Z M13,14.5 C13.8284271,14.5 14.5,13.8284271 14.5,13 C14.5,12.1715729 13.8284271,11.5 13,11.5 C12.1715729,11.5 11.5,12.1715729 11.5,13 C11.5,13.8284271 12.1715729,14.5 13,14.5 Z M8.6,2.9987793 L9.72196159,3.6 L9.72196159,2.4 L8.6,2.9987793 Z" id="形状" fill="#293040"></path>
    </g>
</svg>