<?xml version="1.0" encoding="UTF-8"?>
<svg width="16px" height="16px" viewBox="0 0 16 16" version="1.1" xmlns="http://www.w3.org/2000/svg" xmlns:xlink="http://www.w3.org/1999/xlink">
    <!-- Generator: Sketch 63 (92445) - https://sketch.com -->
    <title>message-2</title>
    <desc>Created with Sketch.</desc>
    <g id="message-2" stroke="none" stroke-width="1" fill="none" fill-rule="evenodd">
        <g transform="translate(0.000000, 1.000000)" fill="#575D6C" fill-rule="nonzero" id="形状">
            <path d="M14,0.5 C15.1045695,0.5 16,1.47004971 16,2.66666667 L16,11.3333333 C16,12.5299503 15.1045695,13.5 14,13.5 L2,13.5 C0.8954305,13.5 0,12.5299503 0,11.3333333 L0,2.66666667 C0,1.47004971 0.8954305,0.5 2,0.5 L14,0.5 Z M14.9436377,2.23501711 L9.70112775,7.10270185 C8.7419249,7.99339021 7.2580751,7.99339021 6.29887225,7.10270185 L1.05636228,2.23501711 C1.0198557,2.34922657 1,2.47206264 1,2.6 L1,11.4 C1,12.0075132 1.44771525,12.5 2,12.5 L14,12.5 C14.5522847,12.5 15,12.0075132 15,11.4 L15,2.6 C15,2.47206264 14.9801443,2.34922657 14.9436377,2.23501711 Z M14,1.5 L2,1.5 C1.92022554,1.5 1.84263283,1.51027534 1.76825603,1.52968847 L6.97932335,6.36990836 C7.55484506,6.90432137 8.44515494,6.90432137 9.02067665,6.36990836 L14.231744,1.52968847 C14.1573672,1.51027534 14.0797745,1.5 14,1.5 Z"></path>
        </g>
    </g>
</svg>