<?xml version="1.0" encoding="UTF-8"?>
<svg width="16px" height="16px" viewBox="0 0 16 16" version="1.1" xmlns="http://www.w3.org/2000/svg" xmlns:xlink="http://www.w3.org/1999/xlink">
    <!-- Generator: Sketch 63 (92445) - https://sketch.com -->
    <title>tag</title>
    <desc>Created with Sketch.</desc>
    <g id="tag" stroke="none" stroke-width="1" fill="none" fill-rule="evenodd">
        <g transform="translate(0.000000, 1.000000)" fill="#293040" fill-rule="nonzero">
            <path d="M5.892137,0.722372502 L12.9779234,7.79344034 L7.32106916,13.4502946 L0.24,6.37186747 L0.24,0.727089809 L5.892137,0.722372502 Z M8.67163246,0.5 L15.7574189,7.57106781 L11.1984277,12.130059 L11.1984277,10.7158454 L14.3432054,7.57106781 L8.27949686,1.52207793 L8.19842766,1.52282194 L8.19842766,0.50039493 L8.67163246,0.5 Z M5.50000137,1.74445044 L1.29594289,1.7830327 L1.26471997,5.97973184 L7.32106916,12.036081 L11.5637098,7.79344034 L5.50000137,1.74445044 Z M3.19842766,2.66893084 C3.75071241,2.66893084 4.19842766,3.11664609 4.19842766,3.66893084 C4.19842766,4.22121559 3.75071241,4.66893084 3.19842766,4.66893084 C2.64614291,4.66893084 2.19842766,4.22121559 2.19842766,3.66893084 C2.19842766,3.11664609 2.64614291,2.66893084 3.19842766,2.66893084 Z"></path>
        </g>
    </g>
</svg>