<svg xmlns="http://www.w3.org/2000/svg" xmlns:xlink="http://www.w3.org/1999/xlink" width="16px" height="16px" viewBox="0 0 16 16" version="1.1">
    <!-- Generator: Sketch 63.1 (92452) - https://sketch.com -->
    <title>形状结合</title>
    <desc>Created with Sketch.</desc>
    <g id="页面-3" stroke="none" stroke-width="1" fill="none" fill-rule="evenodd">
        <g id="串行任务执行中" transform="translate(-239.000000, -282.000000)" fill="#293040" fill-rule="nonzero">
            <g id="编组-2" transform="translate(20.000000, 235.000000)">
                <g id="Group-4" transform="translate(219.000000, 47.000000)">
                    <g id="形状结合">
                        <path d="M8,0 C12.418278,0 16,3.581722 16,8 C16,12.418278 12.418278,16 8,16 C3.581722,16 0,12.418278 0,8 C0,3.581722 3.581722,0 8,0 Z M8,1 C4.13400675,1 1,4.13400675 1,8 C1,11.8659932 4.13400675,15 8,15 C11.8659932,15 15,11.8659932 15,8 C15,4.13400675 11.8659932,1 8,1 Z M7.61289944,3.62391817 L7.70710678,3.70710678 L11.2928932,7.29289322 C11.6533772,7.65337718 11.6811067,8.22060824 11.3760818,8.61289944 L11.2928932,8.70710678 L7.70710678,12.2928932 C7.5195704,12.4804296 7.26521649,12.5857864 7,12.5857864 C6.48716416,12.5857864 6.06449284,12.1997462 6.00672773,11.7024076 L6,11.5857864 L6,4.41421356 C6,4.14899707 6.10535684,3.89464316 6.29289322,3.70710678 C6.65337718,3.34662282 7.22060824,3.31889328 7.61289944,3.62391817 Z M7,4.41421356 L7,11.5857864 L10.5857864,8 L7,4.41421356 Z"/>
                    </g>
                </g>
            </g>
        </g>
    </g>
</svg>