<?xml version="1.0" encoding="UTF-8"?>
<svg width="16px" height="16px" viewBox="0 0 16 16" version="1.1" xmlns="http://www.w3.org/2000/svg" xmlns:xlink="http://www.w3.org/1999/xlink">
    <title>未选中收藏</title>
    <desc>Created with Sketch.</desc>
    <g id="未选中收藏" stroke="none" stroke-width="1" fill="none" fill-rule="evenodd">
        <path d="M8,14.8962631 L7.02,14.0874298 C3.38,10.6661798 1,8.36055481 1,5.53430481 C1,3.22867981 2.68,1.44367981 4.85,1.44367981 C6.04,1.44367981 7.23,2.03867981 8,3.00555481 C8.77,2.03867981 9.96,1.44367981 11.15,1.44367981 C13.32,1.44367981 15,3.22867981 15,5.53430481 C15,8.36055481 12.62,10.6661798 8.98,14.0874298 L8,14.8962631 Z M11.099354,3.21934178 C9.83837932,3.05060696 8.61338895,4.14587289 8.0021137,4.85178812 C7.39563299,4.14502171 6.17064261,3.04975578 4.90966797,3.2184906 C3.64575195,3.38761902 2.66357422,4.33254623 2.76074219,6.10476303 C2.85791016,7.87697983 4.23248291,9.06035995 7,11.8030548 L8.0021137,12.7580986 L8.00690824,12.7589498 L9.00902194,11.803906 C11.776539,9.06121114 13.1511118,7.87783101 13.2482797,6.10561421 C13.3454477,4.33339742 12.36327,3.3884702 11.099354,3.21934178 Z" id="形状" fill="#ADB0B8" fill-rule="nonzero"></path>
    </g>
</svg>