<?xml version="1.0" encoding="UTF-8"?>
<svg width="16px" height="16px" viewBox="0 0 16 16" version="1.1" xmlns="http://www.w3.org/2000/svg" xmlns:xlink="http://www.w3.org/1999/xlink">
    <title>@1x释义图标/自定义</title>
    <desc>Created with Sketch.</desc>
    <g id="释义图标/自定义" stroke="none" stroke-width="1" fill="none" fill-rule="evenodd">
        <g id="自定义">
            <path d="M6,9 L6,7 L7,7 L7,9 L9,9 L9,10 L7,10 L7,12 L6,12 L6,10 L4,10 L4,9 L6,9 Z M13,12 L13,11 L14,11 L14,2 L5,2 L5,3 L4,3 L4,1 L15,1 L15,12 L13,12 Z M1,4 L12,4 L12,15 L1,15 L1,4 Z M2,5 L2,14 L11,14 L11,5 L2,5 Z" id="Combined-Shape" fill="#293040" fill-rule="nonzero"></path>
        </g>
    </g>
</svg>