<svg xmlns="http://www.w3.org/2000/svg" viewBox="0 0 72 100"><style/><path d="M45.1 1l27.2 26.7V99H-.2V1h45.3z"/><path fill-opacity="0" stroke-width="2" d="M45.1 1l27.2 26.7V99H-.2V1h45.3z"/><path d="M26.1 91.1h-4.4l-1.8-4.5h-8.1l-1.7 4.5H5.8l7.9-19.8H18l8.1 19.8zm-7.5-7.9l-2.8-7.4-2.7 7.4h5.5zm9.6-12h7.4c1.7 0 3 .1 3.8.4 1.2.3 2.2 1 3 1.8s1.5 1.9 1.9 3.2c.4 1.3.7 2.8.7 4.7 0 1.6-.2 3-.6 4.2-.5 1.4-1.2 2.6-2.2 3.5-.7.7-1.7 1.2-2.9 1.6-.9.3-2.1.4-3.6.4H28V71.2zm4.1 3.4v13.1h3c1.1 0 2-.1 2.5-.2.7-.2 1.2-.4 1.6-.8s.8-1 1.1-1.9.4-2.1.4-3.6-.1-2.7-.4-3.5-.7-1.5-1.2-1.9c-.5-.5-1.1-.8-1.9-.9-.6-.1-1.7-.2-3.3-.2h-1.8zm16.3 16.5V71.2h4l8.3 13.2V71.2h3.8V91h-4.1l-8.1-12.9V91h-3.9zm5.4-43c0 2.5-8.1 4.5-18 4.5s-18-2-18-4.5 8.1-4.5 18-4.5 18 2 18 4.5z"/><path d="M49.5 47.8c0 2.2-6 3.9-13.5 3.9S22.5 50 22.5 47.8s6-3.9 13.5-3.9 13.5 1.7 13.5 3.9z"/><path d="M18 48.3v11.2S22.5 64 36 64s18-4.5 18-4.5V48.3s-2.2 3.9-18 4.2c-15.8.3-18-4.2-18-4.2zm36-16c0 2.5-8.1 4.5-18 4.5s-18-2-18-4.5 8.1-4.5 18-4.5 18 2 18 4.5z"/><path d="M49.5 31.9c0 2.2-6 3.9-13.5 3.9s-13.5-1.7-13.5-3.9S28.5 28 36 28c7.5.1 13.5 1.8 13.5 3.9z"/><path d="M18 32.6v11.2s4.5 4.5 18 4.5 18-4.5 18-4.5V32.6s-2.2 3.9-18 4.2c-15.8.3-18-4.2-18-4.2zm36-16c0 2.5-8.1 4.5-18 4.5s-18-2-18-4.5 8.1-4.5 18-4.5 18 2 18 4.5z"/><path d="M49.5 16.3c0 2.2-6 3.9-13.5 3.9s-13.5-1.7-13.5-3.9 6-3.9 13.5-3.9 13.5 1.7 13.5 3.9z"/><path d="M18 16.8V28s4.5 4.5 18 4.5S54 28 54 28V16.8s-2.2 3.9-18 4.2c-15.8.3-18-4.2-18-4.2z"/><path d="M45.1 1l27.2 26.7H45.1V1z"/><path fill-opacity="0" stroke-linejoin="bevel" stroke-width="2" d="M44.1 1l27.2 26.7H44.1V1z"/></svg>