<svg xmlns="http://www.w3.org/2000/svg" viewBox="0 0 72 100"><style/><path d="M45.2.9l27.1 26.8v71.4H0V.9h45.2z"/><path fill-opacity="0" stroke-width="2" d="M45.2.9l27.1 26.8v71.4H0V.9h45.2z"/><path d="M24.5 91.2h-4.4l-1.8-4.5h-8l-1.7 4.5H4.3l7.8-19.9h4.3l8.1 19.9zM17 83.3l-2.8-7.4-2.7 7.4H17zm9.6 7.9V71.3h6.1l3.6 13.6 3.6-13.6H46v19.9h-3.8V75.5l-4 15.7h-3.9l-4-15.7v15.7h-3.7zm23.5 0V71.3h8.5c2.2 0 3.7.2 4.7.5s1.8 1 2.3 1.9c.6.9.9 2 .9 3.1 0 1.5-.4 2.7-1.3 3.7s-2.2 1.6-4 1.8c.9.5 1.6 1.1 2.2 1.7.6.6 1.3 1.7 2.3 3.2l2.5 3.9h-4.9l-2.9-4.3c-1-1.5-1.8-2.5-2.1-2.9s-.8-.7-1.2-.8c-.4-.1-1.1-.2-2-.2h-.8v8.3h-4.2zm4-11.5h3c1.9 0 3.2-.1 3.6-.2s.9-.4 1.1-.8c.3-.4.4-.9.4-1.5 0-.7-.2-1.2-.5-1.6-.4-.4-.9-.7-1.5-.8-.3 0-1.3-.1-3-.1H54v5zM45.2.9l27.1 26.8H45.2V.9z"/><path fill-opacity="0" stroke-linejoin="bevel" stroke-width="2" d="M45.2.9l27.1 26.8H45.2V.9z"/><path d="M14.8 39.3h6.5l13-10v33l-13-10h-6.5v-13zm26.1 10.2v2.9c.1 0 1.6 0 3.2-.8s3.4-2.7 3.4-5.8c0-3.1-1.7-5-3.4-5.8-1.6-.8-3.1-.8-3.2-.8v2.9h.1c.4 0 1.4.2 2.1.7.8.5 1.4 1.2 1.4 3 0 2-.8 2.6-1.8 3.2-.5.2-1 .4-1.3.4-.2 0-.3 0-.4.1h-.1zm0 5.1v2.9c.1 0 2.8 0 5.8-1.4 2.9-1.4 6-4.6 5.9-10.1.1-5.6-3-8.7-5.9-10.1-2.9-1.4-5.6-1.4-5.8-1.4v2.9h.3c.8.1 3.1.4 4.9 1.6 1.9 1.2 3.5 3.1 3.5 7.1 0 4.6-2.1 6.5-4.3 7.5-1.1.6-2.2.8-3.1 1-.4.1-.8.1-1 .1-.2-.1-.3-.1-.3-.1zm0 5v2.9c.1 0 4.1 0 8.3-2.1 4.2-2 8.5-6.5 8.5-14.6.1-8.1-4.3-12.6-8.5-14.6-4.2-2.1-8.2-2.1-8.3-2.1V32h.6c1.3.1 4.8.6 7.7 2.5 2.9 1.9 5.5 5.1 5.6 11.3-.1 7-3.4 10.2-6.9 12-1.7.9-3.5 1.3-4.9 1.5-.7.1-1.2.2-1.6.2-.3.1-.5.1-.5.1zm0-27.5z" opacity=".99"/></svg>