<svg xmlns="http://www.w3.org/2000/svg" viewBox="0 0 72 100"><style/><path d="M45.2.9l27.1 26.8v71.4H0V.9h45.2z"/><path fill-opacity="0" stroke-width="2" d="M45.2.9l27.1 26.8v71.4H0V.9h45.2z"/><path d="M36.9 22.6c-4.4 0-8.4 1.2-11.4 3.3-3 2.1-5 5.3-5 9v5.3c-2.4 1.8-4.1 5.7-4.1 10.1 0 6.1 3.3 11.3 7.2 11.3 1 0 2-.4 3.1-1V40c-.6-.4-1.3-.7-2-.9v-4.2c0-2.1 1.1-4.1 3.3-5.6 2.2-1.6 5.4-2.6 9-2.6 3.6 0 6.8 1 9 2.6s3.3 3.5 3.3 5.6v4.2c-.7.2-1.4.5-2 .9v20.3c1 .6 2 1 3.1 1 3.9 0 7.2-5.1 7.2-11.3 0-4.3-1.7-8.1-4.1-9.9v-5.3c0-3.6-2-6.8-5-9-3.2-2-7.2-3.2-11.6-3.2zm0 18l-4.5 8.8-2.7-3.7-1 1.4V54l1-1.2 3.5 4.5 3.7-7.6 3.7 7.6 3.5-4.5 1 1.2v-6.8l-1-1.4-2.7 3.7-4.5-8.9zm-9.8 50.6h-4.4l-1.8-4.5h-8l-1.7 4.5H6.9l7.8-19.9H19l8.1 19.9zm-7.5-7.9l-2.8-7.4-2.7 7.4h5.5zm9.6-12h4.1V82c0 1.7.1 2.8.2 3.3.2.8.6 1.5 1.2 2 .7.5 1.5.7 2.7.7s2-.2 2.6-.7.9-1 1.1-1.7c.1-.7.2-1.8.2-3.4v-11h4.1v10.4c0 2.4-.1 4.1-.3 5.1s-.6 1.8-1.2 2.5-1.4 1.2-2.4 1.6-2.3.6-3.9.6c-1.9 0-3.4-.2-4.4-.7-1-.4-1.8-1-2.4-1.7s-1-1.4-1.1-2.2c-.3-1.1-.4-2.8-.4-5l-.1-10.5zm20.3 19.9V71.3H56c2.5 0 4.1.1 4.8.3 1.2.3 2.1.9 2.9 1.9.8 1 1.2 2.3 1.2 3.9 0 1.2-.2 2.2-.7 3.1-.4.8-1 1.5-1.7 2s-1.4.8-2.1.9c-1 .2-2.4.3-4.2.3h-2.6v7.5h-4.1zm4.1-16.6v5.6h2.2c1.6 0 2.7-.1 3.2-.3s1-.5 1.3-1c.3-.4.5-1 .5-1.5 0-.7-.2-1.3-.6-1.8-.4-.5-1-.8-1.6-.9-.5-.1-1.5-.1-2.9-.1h-2.1z"/><path d="M45.2.9l27.1 26.8H45.2V.9z"/><path fill-opacity="0" stroke-linejoin="bevel" stroke-width="2" d="M45.2.9l27.1 26.8H45.2V.9z"/></svg>