<svg xmlns="http://www.w3.org/2000/svg" viewBox="0 0 72 100"><path d="M45 1l27 26.7V99H0V1h45z"/><path stroke-width="2" d="M45 1l27 26.7V99H0V1h45z"/><path stroke-miterlimit="10" d="M36.3 22.8c-3.8 0-6.9 3.6-6.9 8.1s3.1 8.1 6.9 8.1 6.9-3.6 6.9-8.1-3.1-8.1-6.9-8.1zm0 13.1c-2.1 0-3.9-2.2-3.9-5s1.7-5 3.9-5c2.1 0 3.9 2.2 3.9 5-.1 2.7-1.8 5-3.9 5zm-14 1.5V24.3c0-.9-.7-1.5-1.5-1.5-.9 0-1.5.7-1.5 1.5v13.1c0 .9.7 1.5 1.5 1.5.8.1 1.5-.6 1.5-1.5zm-1.6 9.1c-3.8 0-6.9 3.6-6.9 8.1s3.1 8.1 6.9 8.1 6.9-3.6 6.9-8.1c.1-4.5-3-8.1-6.9-8.1zm0 13.1c-2.1 0-3.9-2.2-3.9-5s1.7-5 3.9-5 3.9 2.2 3.9 5c0 2.7-1.7 5-3.9 5zm17.1 1.5V48c0-.9-.7-1.5-1.5-1.5-.9 0-1.5.7-1.5 1.5v13.1c0 .9.7 1.5 1.5 1.5s1.5-.6 1.5-1.5zm16-22.5V25.5c0-.9-.7-1.5-1.5-1.5-.9 0-1.5.7-1.5 1.5v13.1c0 .9.7 1.5 1.5 1.5s1.5-.7 1.5-1.5zm-1.5 9c-3.8 0-6.9 3.6-6.9 8.1s3.1 8.1 6.9 8.1 6.9-3.6 6.9-8.1-3.1-8.1-6.9-8.1zm0 13.1c-2.1 0-3.9-2.2-3.9-5s1.7-5 3.9-5 3.9 2.2 3.9 5c-.1 2.8-1.8 5-3.9 5z" opacity=".85"/><path d="M45 1l27 26.7H45V1z"/><path stroke-linejoin="bevel" stroke-width="2" d="M45 1l27 26.7H45V1z"/><path d="M14 71.5h8c1.6 0 2.8.1 3.5.2s1.5.4 2.1.8 1.1 1 1.5 1.7.6 1.5.6 2.3c0 .9-.3 1.8-.8 2.6s-1.2 1.4-2.1 1.8c1.2.4 2.2 1 2.8 1.8s1 1.9 1 3c0 .9-.2 1.8-.6 2.7s-1 1.5-1.7 2.1c-.7.5-1.6.8-2.7 1-.7.1-2.3.1-4.9.1H14V71.5zm4.1 3.3v4.6h2.7c1.6 0 2.6 0 2.9-.1.7-.1 1.2-.3 1.6-.7s.6-.9.6-1.6c0-.6-.2-1.1-.5-1.5s-.9-.6-1.5-.7c-.4 0-1.6-.1-3.5-.1h-2.3zm0 8v5.4h3.7c1.5 0 2.4 0 2.8-.1.6-.1 1.1-.4 1.5-.8.4-.4.6-1 .6-1.7 0-.6-.1-1.1-.4-1.5-.3-.4-.7-.7-1.3-.9-.6-.2-1.7-.3-3.6-.3h-3.3zm16 8.7v-20h4v20h-4zm8 0v-20H46l8.2 13.4V71.5H58v20h-4.1l-8.1-13.1v13.1h-3.7z"/></svg>