<svg xmlns="http://www.w3.org/2000/svg" viewBox="0 0 72 100"><style/><path d="M44.9.9l26.8 26.8v71.5H.2V.9h44.7z"/><path fill-opacity="0" stroke-width="2" d="M44.9.9l26.8 26.8v71.5H.2V.9h44.7z"/><path d="M11.5 72.3h8c1.6 0 2.7.1 3.5.2.8.1 1.5.4 2.1.8.6.4 1.1 1 1.5 1.7.4.7.6 1.5.6 2.3 0 .9-.3 1.8-.8 2.6s-1.2 1.4-2 1.8c1.2.4 2.1 1 2.8 1.8s1 1.8 1 3c0 .9-.2 1.8-.6 2.6-.4.9-1 1.5-1.7 2s-1.6.8-2.7.9c-.7.1-2.3.1-4.8.1h-6.8V72.3zm4 3.3v4.6h2.6c1.6 0 2.5 0 2.9-.1.7-.1 1.2-.3 1.6-.7.4-.4.6-.9.6-1.6 0-.6-.2-1.1-.5-1.5-.3-.4-.8-.6-1.5-.7-.4 0-1.5-.1-3.4-.1h-2.3zm0 7.9v5.3h3.7c1.4 0 2.4 0 2.8-.1.6-.1 1.1-.4 1.5-.8.4-.4.6-1 .6-1.7 0-.6-.1-1.1-.4-1.5-.3-.4-.7-.7-1.3-.9-.5-.2-1.7-.3-3.6-.3h-3.3zm14.3 8.7v-3.6l10.5-12.9H31v-3.4h14.6v3.1l-11 13.4H46v3.4H29.8zm30.7-3.6v3.5H47.2c.1-1.3.6-2.6 1.3-3.8s2.2-2.8 4.3-4.8c1.7-1.6 2.8-2.7 3.2-3.3.5-.8.8-1.6.8-2.3 0-.8-.2-1.5-.7-2s-1.1-.7-1.9-.7c-.8 0-1.4.2-1.9.7s-.7 1.3-.8 2.4l-3.8-.4c.2-2.1.9-3.6 2.1-4.5 1.2-.9 2.7-1.4 4.5-1.4 2 0 3.5.5 4.6 1.6 1.1 1.1 1.7 2.4 1.7 3.9 0 .9-.2 1.7-.5 2.6-.3.8-.8 1.7-1.5 2.5-.5.6-1.3 1.4-2.5 2.5s-2 1.8-2.3 2.2c-.3.4-.6.7-.8 1.1h7.5zM44.9.9l26.8 26.8H44.9V.9z"/><path fill-opacity="0" stroke-linejoin="bevel" stroke-width="2" d="M44.9.9l26.8 26.8H44.9V.9z"/><path d="M38 15.8h-8.4v-5H38v5zm0 8.9h-8.4v5H38v-5zm0-20.8h-8.4v5H38v-5zm0 13.8h-8.4v5H38v-5zm0 13.9h-8.4v5H38v-5zm.7 24.6c0 2.8-2.3 5.1-5.1 5.1s-5.1-2.3-5.1-5.1v-.5l1.7-14.6c0-1.9 1.5-3.4 3.4-3.4 1.8 0 3.3 1.5 3.4 3.3l1.6 14.4c.1.4.1.6.1.8zm-1.6-.1c0-1.9-1.6-3.5-3.5-3.5s-3.5 1.6-3.5 3.5 1.6 3.5 3.5 3.5c2-.1 3.5-1.7 3.5-3.5z" opacity=".98"/><path d="M32.5 41.6l-2.3-4.5v-2.3l2.3-2.2h2.2l2.3 2.2v2.3l-2.3 4.5h-2.2z" opacity=".98"/></svg>