<svg xmlns="http://www.w3.org/2000/svg" viewBox="0 0 72 100"><path d="M45.1 1L72 27.7V99H.2V1h44.9z"/><path stroke-width="2" d="M45.1 1L72 27.7V99H.2V1h44.9z"/><path d="M40.5 83.8l3.9 1.2c-.6 2.2-1.6 3.8-3 4.8-1.4 1.1-3.2 1.6-5.3 1.6-2.7 0-4.8-.9-6.5-2.7S27 84.4 27 81.3c0-3.3.9-5.9 2.6-7.7s4-2.7 6.8-2.7c2.4 0 4.4.7 6 2.2.9.8 1.6 2.1 2 3.7l-4 .9c-.2-1-.7-1.8-1.5-2.4-.7-.6-1.7-.9-2.7-.9-1.5 0-2.7.5-3.6 1.6s-1.4 2.8-1.4 5.1c0 2.5.5 4.3 1.4 5.4s2 1.5 3.4 1.5c1.1 0 2-.3 2.8-1 .8-.7 1.3-1.8 1.7-3.2zM13.1 22h41v4h-41v-4zm6 11.7h41v4.1h-41v-4.1zm-6 12h41v4.1h-41v-4.1zm6 12.3h41v4h-41v-4z"/><path d="M45.1 1L72 27.7H45.1V1z"/><path stroke-linejoin="bevel" stroke-width="2" d="M45.1 1L72 27.7H45.1V1z"/></svg>