<svg xmlns="http://www.w3.org/2000/svg" viewBox="0 0 72 100"><path d="M45.2.9l27.1 26.7V99H.1V1h45.1z"/><path fill-opacity="0" stroke-width="2" d="M45.2.9l27.1 26.7V99H.1V1h45.1z"/><path d="M45.2.8l27.1 26.7H45.2V.8z"/><path fill-opacity="0" stroke-linejoin="bevel" stroke-width="2" d="M45.2.8l27.1 26.7H45.2V.8z"/><path d="M21.6 83.3l3.7 1.1c-.6 2-1.5 3.5-2.8 4.5s-3 1.5-5 1.5c-2.5 0-4.5-.8-6.1-2.5C9.8 86.2 9 83.9 9 81c0-3.1.8-5.4 2.4-7.1 1.6-1.7 3.7-2.5 6.3-2.5 2.3 0 4.1.7 5.6 2 .8.8 1.5 1.9 1.9 3.4l-3.7.9c-.2-1-.7-1.7-1.4-2.3-.7-.6-1.6-.8-2.6-.8-1.4 0-2.5.5-3.4 1.5s-1.3 2.6-1.3 4.8c0 2.3.4 4 1.3 5 .8 1 2 1.5 3.3 1.5 1 0 1.9-.3 2.6-.9.8-.9 1.3-1.9 1.6-3.2zm23.7 6.8h-4.1l-1.6-4.2h-7.5l-1.5 4.2h-4l7.3-18.4h4l7.4 18.4zm-6.9-7.3L35.8 76l-2.5 6.8h5.1zm8.9-11.2h6.9c1.6 0 2.7.1 3.6.4 1.1.3 2 .9 2.8 1.7.8.8 1.4 1.8 1.8 3 .4 1.2.6 2.6.6 4.4 0 1.5-.2 2.8-.6 3.9-.5 1.3-1.1 2.4-2 3.3-.7.6-1.5 1.1-2.6 1.5-.8.3-1.9.4-3.3.4h-7.1V71.6zm3.8 3.1V87h2.8c1.1 0 1.8-.1 2.3-.2.6-.2 1.1-.4 1.5-.8s.7-1 1-1.8c.3-.8.4-2 .4-3.4s-.1-2.5-.4-3.3-.6-1.4-1.1-1.8c-.5-.4-1-.7-1.7-.9-.5-.1-1.6-.2-3.1-.2h-1.7zM1.7 9.5l17.3 13 1.8-2.4L1 5.3V9l.7.5zm36 23.3l5.5-7.1-1.2-.9-6.6-5.1.7.5 8.2-10.7v-5l-10.7 14-7.1-5.5-12.9 16.6 7.1 5.4L1.1 59.9 1 64.2l22.1-27.4-.9-.7 8.1 6.1 5.5-7.1 35.4 26.6V58L37.7 32.8zm-8 5.5l-11.9-9 9.1-11.8 11.9 9-9.1 11.8z"/></svg>