<svg xmlns="http://www.w3.org/2000/svg" viewBox="0 0 72 100"><path d="M45 1l27 26.7V99H0V1h45z"/><path stroke-width="2" d="M45 1l27 26.7V99H0V1h45z"/><path stroke-miterlimit="10" stroke-width="2" d="M13.5 45.7l14-12.1v6.1l-9.5 8v.1l9.5 7.9v6.1l-14-12.1v-4zm32.2 10.1l9.5-7.9v-.1l-9.5-7.9v-6.1l14 12.1V50l-14 12.1v-6.3z"/><path d="M45 1l27 26.7H45V1z"/><path stroke-linejoin="bevel" stroke-width="2" d="M45 1l27 26.7H45V1z"/><path d="M11.2 86.8l2 .8c-.3 1.4-.8 2.5-1.5 3.1-.7.7-1.6 1-2.7 1-1.4 0-2.5-.6-3.3-1.8-.9-1.2-1.3-2.8-1.3-4.8 0-2.1.4-3.8 1.3-5 .9-1.2 2-1.8 3.5-1.8 1.2 0 2.3.5 3 1.4.5.6.8 1.3 1 2.4l-2 .6c-.1-.7-.4-1.2-.8-1.6s-.8-.6-1.4-.6c-.8 0-1.4.3-1.8 1-.5.7-.7 1.8-.7 3.3 0 1.6.2 2.8.7 3.5s1.1 1 1.8 1c.5 0 1-.2 1.4-.7s.6-.9.8-1.8zm3.3-1.6c0-1.3.2-2.4.5-3.3.2-.7.5-1.2.9-1.8s.8-.9 1.3-1.2c.6-.3 1.4-.5 2.2-.5 1.5 0 2.7.6 3.6 1.8.9 1.2 1.4 2.8 1.4 4.9 0 2.1-.4 3.7-1.3 4.9-.9 1.2-2.1 1.8-3.6 1.8s-2.7-.6-3.6-1.8c-1-1.2-1.4-2.8-1.4-4.8zm2.1-.1c0 1.5.3 2.6.8 3.3s1.2 1.1 2 1.1 1.5-.4 2-1.1c.5-.7.8-1.9.8-3.4s-.3-2.6-.8-3.3c-.5-.7-1.2-1.1-2-1.1s-1.5.4-2 1.1-.8 1.9-.8 3.4zm9.4-6.4h3.8c.8 0 1.5.1 1.9.2.6.2 1.1.6 1.5 1.2.4.6.7 1.3 1 2.1.2.8.3 1.8.3 3 0 1.1-.1 2-.3 2.7-.3.9-.6 1.7-1.1 2.3-.4.4-.8.8-1.4 1-.5.2-1.1.3-1.8.3H26V78.7zm2 2.1v8.5h1.5c.6 0 1 0 1.2-.1.3-.1.6-.3.8-.5s.4-.7.5-1.2c.1-.6.2-1.4.2-2.4s-.1-1.8-.2-2.3-.3-.9-.6-1.2c-.2-.3-.6-.5-1-.6-.3-.1-.8-.1-1.7-.1H28zm8.2 10.7V78.7h7.5v2.2h-5.5v2.9h5.1V86h-5.1v3.5H44v2.2h-7.8zm9.6 0V78.7h2.1v5.7l4.2-5.7h2.8l-3.8 5 4 7.9h-2.7l-2.8-6-1.7 2.2v3.9h-2.1zm10.1 0V78.7H58v12.9h-2.1zm6.3 0V80.8h-3v-2.2h8.1v2.2h-3v10.7h-2.1z"/></svg>