<svg xmlns="http://www.w3.org/2000/svg" viewBox="0 0 72 100"><path d="M45 .8l27 26.7v71.3H0V.8h45z"/><path fill-opacity="0" stroke-width="2" d="M45 .8l27 26.7v71.3H0V.8h45z"/><path d="M45 .8l27 26.7H45V.8z"/><path fill-opacity="0" stroke-linejoin="bevel" stroke-width="2" d="M45 .8l27 26.7H45V.8z"/><path d="M11.4 86.1l2 .6c-.3 1.1-.8 1.9-1.5 2.4s-1.6.8-2.7.8c-1.3 0-2.4-.5-3.3-1.4s-1.3-2.2-1.3-3.7c0-1.7.4-3 1.3-3.9s2-1.4 3.4-1.4c1.2 0 2.2.4 3 1.1.5.4.8 1 1 1.8l-2 .5c-.1-.5-.4-.9-.7-1.2s-.8-.5-1.4-.5c-.7 0-1.3.3-1.8.8s-.7 1.4-.7 2.6c0 1.3.2 2.2.7 2.7s1 .8 1.8.8c.5 0 1-.2 1.4-.5s.6-.8.8-1.5zm3.3-1.2c0-1 .2-1.9.5-2.6.2-.5.5-1 .9-1.4.4-.4.8-.7 1.3-.9.6-.3 1.3-.4 2.2-.4 1.5 0 2.7.5 3.5 1.4s1.3 2.2 1.3 3.8c0 1.6-.4 2.9-1.3 3.8S21 90 19.5 90s-2.7-.5-3.6-1.4c-.8-.9-1.2-2.2-1.2-3.7zm2-.1c0 1.1.3 2 .8 2.6s1.2.9 2 .9 1.5-.3 2-.9.8-1.5.8-2.6-.3-2-.8-2.6-1.2-.8-2-.8-1.5.3-2 .9c-.5.5-.8 1.3-.8 2.5zm9.2 5v-10h3l1.8 6.8 1.8-6.8h3v10h-1.9v-7.9l-2 7.9h-1.9l-2-7.9v7.9h-1.8zm11.7 0v-10h3.2c1.2 0 2 0 2.4.2.6.2 1.1.5 1.4 1 .4.5.6 1.2.6 2 0 .6-.1 1.1-.3 1.6-.2.4-.5.7-.9 1-.3.2-.7.4-1 .5-.4-.1-1.1-.1-2-.1h-1.3v3.8h-2.1zm2-8.3v2.8h1.1c.8 0 1.3-.1 1.6-.2s.5-.3.6-.5c.2-.2.2-.5.2-.8 0-.4-.1-.7-.3-.9-.2-.2-.5-.4-.8-.4-.2 0-.7-.1-1.5-.1l-.9.1zm7.3 8.3v-10h2v10h-2zm4 0v-9.9h2v8.3h5v1.7l-7-.1zm8.5 0v-10h7.4v1.7h-5.4v2.2h5v1.7h-5v2.7H67v1.7h-7.6zm-6.9-25.4V41h4.7v28.2H14.9V41h4.7v23.4h32.9zM24.4 29.1h23L35.9 40.6 24.4 29.1z"/><path d="M29 50.3v-4.7h4.7v4.7H29zm14 0h-4.7v-4.7H43v4.7zM24.2 55h4.7v4.7h-4.7V55zm18.9 4.7V55h4.7v4.7h-4.7zM38.3 55v4.7h-4.7V55h4.7z"/></svg>