<svg xmlns="http://www.w3.org/2000/svg" viewBox="0 0 72 100"><style/><path d="M45.2 1l26.9 26.7V99H.3V1h44.9z"/><path fill-opacity="0" stroke-width="2" d="M45.2 1l26.9 26.7V99H.3V1h44.9z"/><path d="M22.7 83.8l3.9 1.2c-.6 2.2-1.6 3.8-3 4.8-1.4 1.1-3.2 1.6-5.3 1.6-2.7 0-4.8-.9-6.5-2.7s-2.6-4.3-2.6-7.4c0-3.3.9-5.9 2.6-7.7s4-2.7 6.8-2.7c2.4 0 4.4.7 6 2.2.9.8 1.6 2.1 2 3.7l-4 .9c-.2-1-.7-1.8-1.5-2.4-.7-.6-1.7-.9-2.7-.9-1.5 0-2.7.5-3.6 1.6s-1.4 2.8-1.4 5.1c0 2.5.5 4.3 1.4 5.4s2.1 1.6 3.5 1.6c1.1 0 2-.3 2.8-1s1.3-1.9 1.6-3.3zm7.4 7.3V71.2h8.5c2.1 0 3.7.2 4.7.5s1.7 1 2.3 1.9c.6.9.9 2 .9 3.1 0 1.5-.4 2.7-1.3 3.7s-2.2 1.6-4 1.8c.9.5 1.6 1.1 2.2 1.7.6.6 1.3 1.7 2.3 3.2l2.4 3.9h-4.8l-2.9-4.3c-1-1.5-1.7-2.5-2.1-2.9s-.9-.6-1.3-.8c-.4-.1-1.1-.2-2-.2h-.8v8.3h-4.1zm4-11.5h3c1.9 0 3.1-.1 3.6-.2.5-.2.9-.4 1.1-.8.3-.4.4-.9.4-1.5 0-.7-.2-1.2-.5-1.6-.4-.4-.9-.7-1.5-.8-.3 0-1.3-.1-2.9-.1h-3.1v5zm28.2 7.9V91H48.9c.1-1.3.6-2.6 1.3-3.8s2.2-2.8 4.3-4.8c1.7-1.6 2.8-2.7 3.2-3.2.5-.8.8-1.6.8-2.3 0-.8-.2-1.5-.7-2-.5-.5-1.1-.7-1.9-.7-.8 0-1.4.2-1.9.7-.5.5-.7 1.3-.8 2.4l-3.9-.3c.2-2.1.9-3.6 2.1-4.5 1.2-.9 2.7-1.4 4.5-1.4 2 0 3.5.5 4.6 1.6 1.1 1.1 1.7 2.4 1.7 3.9 0 .9-.2 1.7-.5 2.6-.3.8-.8 1.7-1.5 2.5-.5.6-1.3 1.4-2.5 2.5s-2 1.8-2.3 2.2c-.3.4-.6.7-.8 1.1h7.7zM45.2 1l26.9 26.7H45.2V1z"/><path fill-opacity="0" stroke-linejoin="bevel" stroke-width="2" d="M45.2 1l26.9 26.7H45.2V1z"/><path d="M62.7 56.8c-1.6-.8-4.6-6.6-9.2-7-4-.3-9.1-1.8-11.9-2-3.5-5.8-9.5-15-14.5-19.9l13.8.7C37.2 19.8 27.7 23 27.7 23l6.4-5.3c-8.2-3.3-11.6 4.7-11.6 4.7-8.5-4.7-12.9 3.3-12.9 3.3l8.8.6C8.4 29.1 11.2 39 11.2 39l8.9-8c-1.9 4.4 2.3 7.5 2.3 7.5L25 27.7s9.3 10.6 12.2 21.4c-3.7 1.9-9.5 5-14 5.6-6.2.8-13.5 5-13.5 5v4.9h53.1l-.1-7.8z" opacity=".99"/></svg>