<svg xmlns="http://www.w3.org/2000/svg" viewBox="0 0 72 100"><path d="M45 .8l27 26.7v71.3H0V.8h45z"/><path fill-opacity="0" stroke-width="2" d="M45 .8l27 26.7v71.3H0V.8h45z"/><path d="M45 .8l27 26.7H45V.8z"/><path fill-opacity="0" stroke-linejoin="bevel" stroke-width="2" d="M45 .8l27 26.7H45V.8z"/><g opacity=".8"><path d="M18.4 38.8C29 26.5 48.7 28.9 56 43.4H38.3c-3.2 0-5.2-.1-7.5 1.1-2.6 1.4-4.6 3.9-5.3 6.9l-7.1-12.6z"/><path d="M28.1 53.7c0 4.2 3.4 7.6 7.6 7.6s7.6-3.4 7.6-7.6-3.4-7.6-7.6-7.6c-4.2 0-7.6 3.4-7.6 7.6z"/><path d="M38.7 63.6c-4.3 1.3-9.2-.1-12-4.8-2.1-3.6-7.6-13.2-10.1-17.5C7.9 54.7 15.4 73 31.3 76.1l7.4-12.5z"/><path d="M42.8 46.1c3.5 3.3 4.3 8.6 1.9 12.8-1.8 3.1-7.6 12.9-10.4 17.6 16.4 1 28.3-15 22.9-30.3l-14.4-.1z"/></g></svg>