<svg xmlns="http://www.w3.org/2000/svg" viewBox="0 0 72 100"><path d="M45 1l27 26.7V99H0V1h45z"/><path d="M13.1 22h41v4h-41v-4zm6 11.7h41v4.1h-41v-4.1zm-6 12h41v4.1h-41v-4.1zm6 12.3h41v4h-41v-4z"/><path stroke-width="2" d="M45 1l27 26.7V99H0V1h45z"/><path d="M45 1l27 26.7H45V1z"/><path stroke-linejoin="bevel" stroke-width="2" d="M45 1l27 26.7H45V1z"/><path d="M16.5 86.1l3.1 1c-.5 1.7-1.3 3-2.4 3.8s-2.5 1.3-4.2 1.3c-2.1 0-3.8-.7-5.2-2.1-1.3-1.4-2-3.4-2-5.9 0-2.6.7-4.7 2-6.1 1.4-1.4 3.1-2.2 5.3-2.2 1.9 0 3.5.6 4.7 1.7.7.7 1.3 1.6 1.6 2.9l-3.1.8c-.2-.8-.6-1.5-1.2-1.9s-1.3-.7-2.2-.7c-1.2 0-2.1.4-2.8 1.3-.7.8-1.1 2.2-1.1 4.1 0 2 .4 3.4 1.1 4.3.7.8 1.6 1.3 2.8 1.3.8 0 1.6-.3 2.2-.8.7-.8 1.2-1.7 1.4-2.8zm5 .7l3.1-.3c.2 1 .6 1.8 1.1 2.3s1.3.7 2.3.7 1.8-.2 2.3-.7c.5-.4.8-.9.8-1.5 0-.4-.1-.7-.3-1-.2-.3-.6-.5-1.1-.7-.4-.1-1.2-.4-2.5-.7-1.7-.4-2.9-.9-3.6-1.6-1-.9-1.5-1.9-1.5-3.2 0-.8.2-1.6.7-2.2.5-.7 1.1-1.2 2-1.6s1.9-.5 3.1-.5c2 0 3.5.4 4.5 1.3s1.5 2 1.6 3.5l-3.2.1c-.1-.8-.4-1.4-.9-1.7-.4-.4-1.1-.5-2-.5s-1.6.2-2.2.6c-.3.2-.5.6-.5 1s.2.7.5 1c.4.3 1.4.7 2.9 1.1s2.7.7 3.4 1.1 1.3.9 1.7 1.6c.4.7.6 1.5.6 2.5 0 .9-.3 1.7-.8 2.5s-1.2 1.4-2.1 1.8-2.1.6-3.4.6c-2 0-3.5-.5-4.6-1.4-1-1-1.7-2.4-1.9-4.1zm14.9-2.7c0-1.6.2-3 .7-4 .4-.8.8-1.5 1.5-2.2.6-.6 1.3-1.1 2-1.4 1-.4 2.1-.6 3.4-.6 2.3 0 4.2.7 5.6 2.2 1.4 1.4 2.1 3.4 2.1 6 0 2.5-.7 4.5-2.1 6-1.4 1.4-3.2 2.2-5.5 2.2s-4.2-.7-5.6-2.1c-1.4-1.6-2.1-3.6-2.1-6.1zm3.2-.1c0 1.8.4 3.1 1.2 4.1.8.9 1.9 1.4 3.1 1.4s2.3-.5 3.1-1.4 1.2-2.3 1.2-4.1c0-1.8-.4-3.2-1.2-4-.8-.9-1.8-1.3-3.2-1.3s-2.4.4-3.2 1.3c-.6.8-1 2.2-1 4zm14.6 7.9V76.1h3.1l6.4 10.5V76.1h3v15.7h-3.2l-6.3-10.3v10.3h-3v.1z"/></svg>