<svg xmlns="http://www.w3.org/2000/svg" viewBox="0 0 72 100"><path d="M45.1 1L72 27.7V99H.2V1h44.9z"/><path stroke-width="2" d="M45.1 1L72 27.7V99H.2V1h44.9z"/><path d="M21.6 83.8l3.9 1.2c-.6 2.2-1.6 3.8-3 4.8-1.4 1.1-3.2 1.6-5.3 1.6-2.7 0-4.8-.9-6.5-2.7s-2.6-4.3-2.6-7.4c0-3.3.9-5.9 2.6-7.7s4-2.7 6.8-2.7c2.4 0 4.4.7 6 2.2.9.8 1.6 2.1 2 3.7l-4 .9c-.2-1-.7-1.8-1.5-2.4-.7-.6-1.7-.9-2.7-.9-1.5 0-2.7.5-3.6 1.6s-1.4 2.8-1.4 5.1c0 2.5.5 4.3 1.4 5.4s2.1 1.6 3.5 1.6c1.1 0 2-.3 2.8-1s1.3-1.9 1.6-3.3zm6.4.8l3.9-.4c.2 1.3.7 2.3 1.4 2.9.7.6 1.7.9 2.9.9 1.3 0 2.3-.3 2.9-.8.7-.5 1-1.2 1-1.9 0-.5-.1-.9-.4-1.2-.3-.3-.8-.6-1.5-.9-.5-.2-1.5-.5-3.2-.9-2.2-.5-3.7-1.2-4.6-2-1.2-1.1-1.8-2.4-1.8-4 0-1 .3-2 .9-2.8.6-.9 1.4-1.5 2.5-2s2.4-.7 3.9-.7c2.5 0 4.4.5 5.7 1.6s1.9 2.5 2 4.4l-4 .2c-.2-1-.5-1.8-1.1-2.2-.6-.4-1.4-.7-2.6-.7-1.2 0-2.1.2-2.8.7-.4.3-.6.7-.6 1.2s.2.9.6 1.2c.5.4 1.7.9 3.7 1.3s3.4.9 4.4 1.4c.9.5 1.7 1.2 2.2 2s.8 1.9.8 3.2c0 1.1-.3 2.2-1 3.2-.6 1-1.5 1.7-2.7 2.2s-2.6.7-4.3.7c-2.5 0-4.5-.6-5.8-1.7-1.4-1-2.2-2.7-2.4-4.9zm24.7 6.5l-7.1-19.8H50l5 14.6 4.9-14.7h4.3L57 91.1h-4.3z"/><path d="M47.9 26.8H61v8.7H47.9v-8.7zm0 13.4H61V49H47.9v-8.8zm0 13.4H61v8.7H47.9v-8.7zm-17.7 0h13.1v8.7H30.2v-8.7zm-17.8 0h13.1v8.7h-13l-.1-8.7zm17.9-27h13.1v8.7H30.3v-8.7zm-17.7 0h13.1v8.7H12.6v-8.7zm17.7 13.6h13.1V49H30.3v-8.8zm-17.7 0h13.1V49H12.6v-8.8z" opacity=".85"/><path d="M45.1 1L72 27.7H45.1V1z"/><path stroke-linejoin="bevel" stroke-width="2" d="M45.1 1L72 27.7H45.1V1z"/></svg>