<svg xmlns="http://www.w3.org/2000/svg" viewBox="0 0 72 100"><style/><path d="M44.8 1l27 26.7V99h-72V1h45z"/><path fill-opacity="0" stroke-width="2" d="M44.8 1l27 26.7V99h-72V1h45z"/><path d="M20.9 84.8l3.9 1.2c-.6 2.2-1.6 3.8-3 4.8-1.4 1.1-3.2 1.6-5.3 1.6-2.7 0-4.8-.9-6.6-2.7-1.7-1.8-2.6-4.3-2.6-7.4 0-3.3.9-5.9 2.6-7.7s4-2.7 6.8-2.7c2.5 0 4.4.7 6 2.2.9.8 1.6 2.1 2.1 3.7l-4 .9c-.2-1-.7-1.8-1.5-2.4s-1.7-.9-2.7-.9c-1.5 0-2.7.5-3.6 1.6-.9 1.1-1.4 2.8-1.4 5.1 0 2.5.5 4.3 1.4 5.4.9 1.1 2.1 1.6 3.6 1.6 1.1 0 2-.3 2.8-1 .6-.8 1.2-1.9 1.5-3.3zm7.4-12.6h4V83c0 1.7 0 2.8.2 3.3.2.8.6 1.5 1.2 2 .7.5 1.5.7 2.7.7 1.1 0 2-.2 2.6-.7.6-.5.9-1 1.1-1.7.1-.7.2-1.8.2-3.4v-11h4v10.4c0 2.4-.1 4.1-.3 5-.2 1-.6 1.8-1.2 2.5s-1.4 1.2-2.4 1.6-2.3.6-3.9.6c-1.9 0-3.4-.2-4.4-.7-1-.4-1.8-1-2.3-1.7s-1-1.4-1.1-2.2c-.3-1.1-.4-2.8-.4-5V72.2zm20.3 19.9V72.2h14.9v3.4H52.6V80h10.1v3.3H52.6v5.4h11.2V92H48.6z"/><path d="M35.8 18.8c-12.4 0-22.5 10-22.5 22.3s10.1 22.3 22.5 22.3 22.5-10 22.5-22.3-10.1-22.3-22.5-22.3zm0 29.9c-4.3 0-7.7-3.5-7.7-7.6 0-4.3 3.5-7.6 7.7-7.6 4.3 0 7.7 3.5 7.7 7.6 0 4.2-3.5 7.6-7.7 7.6z" opacity=".95"/><path d="M35.8 38.3c-1.6 0-2.8 1.3-2.8 2.8 0 1.6 1.3 2.8 2.8 2.8 1.6 0 2.8-1.3 2.8-2.8-.1-1.6-1.2-2.8-2.8-2.8zm0 3.8c-.5 0-1-.4-1-1 0-.5.4-1 1-1 .5 0 1 .4 1 1 0 .5-.6 1-1 1z"/><path d="M35.8 32.8c-4.7 0-8.4 3.8-8.4 8.3 0 4.7 3.8 8.3 8.4 8.3 4.7 0 8.4-3.8 8.4-8.3 0-4.7-3.7-8.3-8.4-8.3zm0 15.2c-3.9 0-7-3.1-7-6.9s3.1-6.9 7-6.9 7 3.1 7 6.9-3.1 6.9-7 6.9zm9.4-47l27 26.7h-27V1z"/><path fill-opacity="0" stroke-linejoin="bevel" stroke-width="2" d="M45.2 1l27 26.7h-27V1z"/></svg>