<svg xmlns="http://www.w3.org/2000/svg" viewBox="0 0 72 100"><path d="M45 1l27 26.7V99H0V1h45z"/><path fill-opacity="0" stroke-width="2" d="M45 1l27 26.7V99H0V1h45z"/><path stroke-miterlimit="10" d="M35.8 22.8c-3.8 0-6.9 3.6-6.9 8.1S32 39 35.8 39s6.9-3.6 6.9-8.1-3.1-8.1-6.9-8.1zm0 13.1c-2.1 0-3.9-2.2-3.9-5s1.7-5 3.9-5c2.1 0 3.9 2.2 3.9 5-.1 2.7-1.8 5-3.9 5zm-14 1.5V24.3c0-.9-.7-1.5-1.5-1.5-.9 0-1.5.7-1.5 1.5v13.1c0 .9.7 1.5 1.5 1.5.8.1 1.5-.6 1.5-1.5zm-1.6 9.1c-3.8 0-6.9 3.6-6.9 8.1s3.1 8.1 6.9 8.1 6.9-3.6 6.9-8.1c.1-4.5-3-8.1-6.9-8.1zm0 13.1c-2.1 0-3.9-2.2-3.9-5s1.7-5 3.9-5 3.9 2.2 3.9 5c0 2.7-1.7 5-3.9 5zm17.1 1.5V48c0-.9-.7-1.5-1.5-1.5-.9 0-1.5.7-1.5 1.5v13.1c0 .9.7 1.5 1.5 1.5s1.5-.6 1.5-1.5zm16-22.5V25.5c0-.9-.7-1.5-1.5-1.5-.9 0-1.5.7-1.5 1.5v13.1c0 .9.7 1.5 1.5 1.5s1.5-.7 1.5-1.5zm-1.5 9c-3.8 0-6.9 3.6-6.9 8.1s3.1 8.1 6.9 8.1 6.9-3.6 6.9-8.1-3.1-8.1-6.9-8.1zm0 13.1c-2.1 0-3.9-2.2-3.9-5s1.7-5 3.9-5 3.9 2.2 3.9 5c-.1 2.8-1.8 5-3.9 5z" opacity=".85"/><path d="M45 1l27 26.7H45V1z"/><path fill-opacity="0" stroke-linejoin="bevel" stroke-width="2" d="M45 1l27 26.7H45V1z"/><path d="M10.3 71.5h7.4c1.7 0 2.9.1 3.8.4 1.2.3 2.2 1 3 1.8.8.9 1.5 2 1.9 3.2s.7 2.9.7 4.7c0 1.6-.2 3.1-.6 4.3-.5 1.5-1.2 2.6-2.1 3.5-.7.7-1.6 1.2-2.8 1.6-.9.3-2.1.4-3.6.4h-7.6V71.5zm4 3.4v13.3h3c1.1 0 1.9-.1 2.4-.2.7-.2 1.2-.4 1.6-.8.4-.4.8-1 1.1-1.9s.4-2.1.4-3.7-.1-2.7-.4-3.6-.7-1.5-1.1-1.9-1.1-.8-1.9-.9c-.6-.1-1.7-.2-3.3-.2h-1.8zm34.3 16.6h-4.4L42.4 87h-8l-1.7 4.6h-4.3l7.8-20h4.3l8.1 19.9zm-7.5-7.9l-2.8-7.4-2.7 7.4h5.5zm12.1 7.9V74.9h-5.9v-3.4h15.9v3.4h-5.9v16.7h-4.1z"/></svg>