<svg xmlns="http://www.w3.org/2000/svg" viewBox="0 0 72 100"><style/><path d="M45 1l27 26.7V99H0V1h45z"/><path fill-opacity="0" stroke-width="2" d="M45 1l27 26.7V99H0V1h45z"/><path d="M18 71.3h7.4c1.7 0 2.9.1 3.8.4 1.2.3 2.2 1 3 1.8.8.9 1.5 1.9 1.9 3.2s.7 2.8.7 4.7c0 1.6-.2 3-.6 4.2-.5 1.4-1.2 2.6-2.1 3.5-.7.7-1.6 1.2-2.8 1.6-.9.3-2.1.4-3.6.4H18V71.3zm4 3.3v13.1h3c1.1 0 1.9-.1 2.4-.2.7-.2 1.2-.4 1.6-.8.4-.4.8-1 1.1-1.9s.4-2.1.4-3.6-.1-2.7-.4-3.5-.7-1.5-1.1-1.9-1.1-.8-1.9-.9c-.6-.1-1.7-.2-3.3-.2H22zm16.2-3.3h8c1.6 0 2.8.1 3.5.2s1.5.4 2.1.8c.6.4 1.1 1 1.5 1.7s.6 1.5.6 2.3c0 .9-.3 1.8-.8 2.6s-1.2 1.4-2.1 1.7c1.2.4 2.2 1 2.8 1.8.7.8 1 1.8 1 3 0 .9-.2 1.8-.6 2.6s-1 1.5-1.7 2-1.6.8-2.7.9c-.7.1-2.3.1-4.9.1h-6.8V71.3zm4.1 3.3v4.6H45c1.6 0 2.6 0 2.9-.1.7-.1 1.2-.3 1.6-.7.4-.4.6-.9.6-1.5s-.2-1.1-.5-1.5c-.3-.4-.8-.6-1.5-.7-.4 0-1.6-.1-3.5-.1h-2.3zm0 7.9v5.3H46c1.5 0 2.4 0 2.8-.1.6-.1 1.1-.4 1.5-.8.4-.4.6-1 .6-1.7 0-.6-.1-1.1-.4-1.5-.3-.4-.7-.7-1.3-.9-.6-.2-1.7-.3-3.6-.3h-3.3zM54 48.1c0 2.5-8.1 4.5-18 4.5s-18-2-18-4.5 8.1-4.5 18-4.5 18 2 18 4.5z"/><path d="M49.5 47.8c0 2.2-6 3.9-13.5 3.9S22.5 50 22.5 47.8s6-3.9 13.5-3.9 13.5 1.7 13.5 3.9z"/><path d="M18 48.3v11.2S22.5 64 36 64s18-4.5 18-4.5V48.3s-2.2 3.9-18 4.2c-15.8.3-18-4.2-18-4.2zm36-16c0 2.5-8.1 4.5-18 4.5s-18-2-18-4.5 8.1-4.5 18-4.5 18 2 18 4.5z"/><path d="M49.5 31.9c0 2.2-6 3.9-13.5 3.9s-13.5-1.7-13.5-3.9S28.5 28 36 28c7.5.1 13.5 1.8 13.5 3.9z"/><path d="M18 32.6v11.2s4.5 4.5 18 4.5 18-4.5 18-4.5V32.6s-2.2 3.9-18 4.2c-15.8.3-18-4.2-18-4.2zm36-16c0 2.5-8.1 4.5-18 4.5s-18-2-18-4.5 8.1-4.5 18-4.5 18 2 18 4.5z"/><path d="M49.5 16.3c0 2.2-6 3.9-13.5 3.9s-13.5-1.7-13.5-3.9 6-3.9 13.5-3.9 13.5 1.7 13.5 3.9z"/><path d="M18 16.8V28s4.5 4.5 18 4.5S54 28 54 28V16.8s-2.2 3.9-18 4.2c-15.8.3-18-4.2-18-4.2z"/><path d="M45 1l27 26.7H45V1z"/><path fill-opacity="0" stroke-linejoin="bevel" stroke-width="2" d="M45 1l27 26.7H45V1z"/></svg>