<svg xmlns="http://www.w3.org/2000/svg" viewBox="0 0 72 100"><path d="M45 1l27 26.7V99H0V1h45z"/><path fill-opacity="0" stroke-width="2" d="M45 1l27 26.7V99H0V1h45z"/><path d="M45 1l27 26.7H45V1z"/><path fill-opacity="0" stroke-linejoin="bevel" stroke-width="2" d="M45 1l27 26.7H45V1z"/><path stroke-miterlimit="10" stroke-width=".75" d="M52.7 32.2H26.9c-3.5 0-6.4 2.8-6.4 6.4v29.1H14c0 3.6 2.8 6.5 6.5 6.5h25.9c3.5 0 6.5-2.9 6.5-6.5V41.9h6.5v-3.2c-.2-3.6-3.1-6.5-6.7-6.5zm-3.2 35c0 2.1-1.7 3.8-3.8 3.8H22c1.6-1.1 1.6-3.2 1.6-3.2V38.7c0-1.8 1.4-3.2 3.2-3.2 1.8 0 3.2 1.4 3.2 3.2v3.2h19.4l.1 25.3zM33.4 38.7v-3.2h19.4c2.9 0 3.2 1.9 3.2 3.2H33.4zm3.1 8.9c.1-.2.1-.2.2 0l1.9 6c.1.2.2.3.4.3h6.3c.2 0 .2.1.1.2l-5.1 3.7c-.1.1-.2.3-.2.5l1.9 6c.1.2 0 .2-.2.1l-5.1-3.7c-.2-.1-.4-.1-.5 0l-5.1 3.7c-.1.1-.2.1-.2-.1l1.9-6c0-.2 0-.4-.2-.5l-5.1-3.7c-.1-.1-.1-.2.1-.2h6.3c.2 0 .4-.1.4-.3.2 0 2.2-6 2.2-6z" opacity=".8"/></svg>