<svg xmlns="http://www.w3.org/2000/svg" viewBox="0 0 72 100"><style/><path d="M45.2 1l26.9 26.7V99H.3V1h44.9z"/><path fill-opacity="0" stroke-width="2" d="M45.2 1l26.9 26.7V99H.3V1h44.9z"/><path d="M7.2 71.2h7.4c1.7 0 2.9.1 3.8.4 1.2.3 2.2 1 3 1.8.8.9 1.5 1.9 1.9 3.2.4 1.3.7 2.8.7 4.7 0 1.6-.2 3-.6 4.2-.5 1.4-1.2 2.6-2.1 3.5-.7.7-1.6 1.2-2.8 1.6-.9.3-2.1.4-3.6.4H7.2V71.2zm4 3.4v13.1h3c1.1 0 1.9-.1 2.4-.2.7-.2 1.2-.4 1.6-.8.4-.4.8-1 1.1-1.9s.4-2.1.4-3.6-.1-2.7-.4-3.5c-.3-.8-.7-1.5-1.1-1.9-.5-.5-1.1-.8-1.9-.9-.6-.1-1.7-.2-3.3-.2h-1.8zm16.2 16.5V71.2h3.9l8.2 13.2V71.2h3.7V91h-4l-8.1-12.9V91h-3.7zm29.4-7.3v-3.3h8.7v7.9c-.8.8-2.1 1.5-3.7 2.1-1.6.6-3.2.9-4.9.9-2.1 0-3.9-.4-5.5-1.3-1.4-.9-2.6-2.1-3.4-3.7-.8-1.6-1.2-3.4-1.2-5.3 0-2.1.4-3.9 1.3-5.5s2.1-2.8 3.8-3.7c1.3-.7 2.9-1 4.8-1 2.5 0 4.4.5 5.8 1.5s2.3 2.5 2.7 4.3l-4 .7c-.3-1-.8-1.7-1.6-2.3-.8-.6-1.7-.8-2.9-.8-1.8 0-3.2.6-4.2 1.7s-1.6 2.8-1.6 4.9c0 2.4.5 4.1 1.6 5.3S55 88 56.7 88c.8 0 1.7-.2 2.5-.5s1.6-.7 2.2-1.2v-2.5h-4.6zM45.2 1l26.9 26.7H45.2V1z"/><path fill-opacity="0" stroke-linejoin="bevel" stroke-width="2" d="M45.2 1l26.9 26.7H45.2V1z"/><path d="M62.7 56.8c-1.6-.8-4.6-6.6-9.2-7-4-.3-9.1-1.8-11.9-2-3.5-5.8-9.5-15-14.5-19.9l13.8.7C37.2 19.8 27.7 23 27.7 23l6.4-5.3c-8.2-3.3-11.6 4.7-11.6 4.7-8.5-4.7-12.9 3.3-12.9 3.3l8.8.6C8.4 29.1 11.2 39 11.2 39l8.9-8c-1.9 4.4 2.3 7.5 2.3 7.5L25 27.7s9.3 10.6 12.2 21.4c-3.7 1.9-9.5 5-14 5.6-6.2.8-13.5 5-13.5 5v4.9h53.1l-.1-7.8z" opacity=".99"/></svg>