<svg xmlns="http://www.w3.org/2000/svg" viewBox="0 0 72 100"><path d="M45 1l27 26.7V99H0V1h45z"/><path fill-opacity="0" stroke-width="2" d="M45 1l27 26.7V99H0V1h45z"/><path d="M6.6 71.2H14c1.7 0 2.9.1 3.8.4 1.2.3 2.2 1 3 1.8.8.9 1.5 1.9 1.9 3.2.4 1.3.7 2.8.7 4.7 0 1.6-.2 3-.6 4.2-.5 1.4-1.2 2.6-2.1 3.5-.7.7-1.6 1.2-2.8 1.6-.9.3-2.1.4-3.6.4H6.6V71.2zm4 3.4v13.1h3c1.1 0 1.9-.1 2.4-.2.7-.2 1.2-.4 1.6-.8.4-.4.8-1 1.1-1.9s.4-2.1.4-3.6-.1-2.7-.4-3.5c-.3-.8-.7-1.5-1.1-1.9s-1.1-.8-1.9-.9c-.6-.1-1.7-.2-3.3-.2h-1.8zM26 81.3c0-2 .3-3.7.9-5.1.5-1 1.1-1.9 1.9-2.7.8-.8 1.7-1.4 2.6-1.8 1.2-.5 2.7-.8 4.3-.8 3 0 5.3.9 7.1 2.7s2.7 4.3 2.7 7.6c0 3.2-.9 5.7-2.6 7.5s-4.1 2.7-7.1 2.7-5.4-.9-7.1-2.7c-1.8-1.8-2.7-4.3-2.7-7.4zm4.2-.2c0 2.2.5 4 1.6 5.1 1 1.2 2.4 1.7 4 1.7s2.9-.6 4-1.7c1-1.2 1.6-2.9 1.6-5.2 0-2.3-.5-4-1.5-5.1-1-1.1-2.3-1.7-4-1.7s-3 .6-4 1.7c-1.2 1.2-1.7 2.9-1.7 5.2zm31.2 2.7l3.9 1.2c-.6 2.2-1.6 3.8-3 4.8s-3.2 1.6-5.3 1.6c-2.7 0-4.8-.9-6.6-2.7s-2.6-4.3-2.6-7.4c0-3.3.9-5.9 2.6-7.7s4-2.7 6.8-2.7c2.5 0 4.4.7 6 2.2.9.8 1.6 2.1 2.1 3.7l-4 .9c-.2-1-.7-1.8-1.5-2.4-.8-.6-1.7-.9-2.7-.9-1.5 0-2.7.5-3.6 1.6s-1.4 2.8-1.4 5.1c0 2.5.5 4.3 1.4 5.4s2 1.5 3.5 1.5c1.1 0 2-.3 2.8-1s1.3-1.8 1.6-3.2zm3-58.1c-.5 0-1 .2-1.4.3-.5.2-1 .4-1.4.6-.7.4-1.2.8-1.5 1.3-.3.5-.6 1.1-.8 1.7-.9 2.4-2.2 6-4 11.3-1.8 5.1-3.6 10.5-5.6 16H45l-8.7-24.4-7.9 24.4h-4.7c-2.6-7.5-4.6-13.3-6-17.2-1.4-4.1-2.5-7.4-3.5-10.2-.3-.8-.6-1.4-1-1.8-.4-.4-.9-.8-1.4-1.2-.4-.3-.9-.5-1.3-.6-.5-.1-1-.2-1.6-.3v-1.8h17.6v1.8c-1 .1-1.8.2-2.3.4-.5.1-.9.2-1.2.4-.3.1-.5.3-.5.4-.1.1-.1.3-.1.4 0 .2 0 .4.1.6.1.2.1.4.2.7.4 1.2 1.1 3.5 2.3 6.8 1.1 3.4 2.5 7.5 4.2 12.5L36.7 24h4.9l8.7 24.5c1.3-4 2.3-7.2 3.1-9.7.8-2.5 1.4-4.7 1.9-6.4.3-1.1.6-2 .7-2.8.2-.7.3-1.4.3-1.9 0-.3-.2-.6-.5-.8-.3-.2-.7-.4-1.2-.6-.4-.1-1-.3-1.7-.3-.7-.1-1.3-.2-1.8-.2v-2h13.3v1.9z"/><path d="M45 1l27 26.7H45V1z"/><path fill-opacity="0" stroke-linejoin="bevel" stroke-width="2" d="M45 1l27 26.7H45V1z"/></svg>