<svg xmlns="http://www.w3.org/2000/svg" viewBox="0 0 72 100"><path d="M45 1l27 26.7V99H0V1h45z"/><path fill-opacity="0" stroke-width="2" d="M45 1l27 26.7V99H0V1h45z"/><path d="M7.3 76.7h5.3c1.2 0 2.1.1 2.8.3.8.2 1.6.7 2.2 1.3.6.6 1.1 1.4 1.4 2.3.3.9.5 2 .5 3.4 0 1.2-.1 2.2-.4 3-.4 1-.9 1.9-1.5 2.5-.5.5-1.2.9-2.1 1.1-.6.2-1.5.3-2.6.3H7.3V76.7zm2.9 2.5v9.5h2.2c.8 0 1.4 0 1.8-.1.5-.1.9-.3 1.2-.6.3-.3.6-.7.8-1.4.2-.6.3-1.5.3-2.6s-.1-2-.3-2.5c-.2-.6-.5-1.1-.8-1.4-.4-.3-.8-.6-1.4-.7-.4-.1-1.2-.1-2.4-.1h-1.4zM21.3 84c0-1.5.2-2.7.7-3.7.3-.7.8-1.4 1.3-2s1.2-1 1.9-1.3c.9-.4 1.9-.6 3.1-.6 2.1 0 3.8.7 5.1 2s1.9 3.1 1.9 5.5c0 2.3-.6 4.1-1.9 5.4s-3 2-5.1 2c-2.2 0-3.9-.6-5.1-1.9-1.3-1.3-1.9-3.1-1.9-5.4zm3-.1c0 1.6.4 2.8 1.1 3.7s1.7 1.3 2.9 1.3 2.1-.4 2.9-1.2c.7-.8 1.1-2.1 1.1-3.7s-.4-2.9-1.1-3.7c-.7-.8-1.7-1.2-2.9-1.2s-2.2.4-2.9 1.2c-.7.7-1.1 1.9-1.1 3.6zm16.6 7.2V79.2h-4.3v-2.4h11.5v2.4h-4.3v11.9h-2.9zm9 0V76.7h4.4l2.6 9.8 2.6-9.8h4.4V91h-2.7V79.8l-2.9 11.3h-2.8l-2.9-11.3v11.3h-2.7zm14.5-65.4c-.5 0-1 .2-1.4.3-.5.2-1 .4-1.4.6-.7.4-1.2.8-1.5 1.3-.3.5-.6 1.1-.8 1.7-.9 2.4-2.2 6-4 11.3-1.8 5.1-3.6 10.5-5.6 16H45l-8.7-24.4-7.9 24.4h-4.7c-2.6-7.5-4.6-13.3-6-17.2-1.4-4.1-2.5-7.4-3.5-10.2-.3-.8-.6-1.4-1-1.8-.4-.4-.9-.8-1.4-1.2-.4-.3-.9-.5-1.3-.6-.5-.1-1-.2-1.6-.3v-1.8h17.6v1.8c-1 .1-1.8.2-2.3.4-.5.1-.9.2-1.2.4-.3.1-.5.3-.5.4-.1.1-.1.3-.1.4 0 .2 0 .4.1.6.1.2.1.4.2.7.4 1.2 1.1 3.5 2.3 6.8 1.1 3.4 2.5 7.5 4.2 12.5L36.7 24h4.9l8.7 24.5c1.3-4 2.3-7.2 3.1-9.7.8-2.5 1.4-4.7 1.9-6.4.3-1.1.6-2 .7-2.8.2-.7.3-1.4.3-1.9 0-.3-.2-.6-.5-.8-.3-.2-.7-.4-1.2-.6-.4-.1-1-.3-1.7-.3-.7-.1-1.3-.2-1.8-.2v-2h13.3v1.9z"/><path d="M45 1l27 26.7H45V1z"/><path fill-opacity="0" stroke-linejoin="bevel" stroke-width="2" d="M45 1l27 26.7H45V1z"/></svg>