<svg xmlns="http://www.w3.org/2000/svg" viewBox="0 0 72 100"><path d="M45 .8l27 26.7v71.3H0V.8h45z"/><path fill-opacity="0" stroke-width="2" d="M45 .8l27 26.7v71.3H0V.8h45z"/><path d="M45 .8l27 26.7H45V.8z"/><path fill-opacity="0" stroke-linejoin="bevel" stroke-width="2" d="M45 .8l27 26.7H45V.8z"/><g opacity=".85"><path d="M58.8 61.7c0-1.8-1.4-3.2-3.2-3.2H16.4c-1.8 0-3.2 1.4-3.2 3.2v4.5c0 1.8 1.4 3.2 3.2 3.2h39.2c1.8 0 3.2-1.4 3.2-3.2v-4.5zm-16.9 4.1c-1 0-1.8-.8-1.8-1.8s.8-1.8 1.8-1.8 1.8.8 1.8 1.8c.1 1-.8 1.8-1.8 1.8zm5.5 0c-1 0-1.8-.8-1.8-1.8s.8-1.8 1.8-1.8 1.8.8 1.8 1.8-.8 1.8-1.8 1.8zm5.5 0c-1 0-1.8-.8-1.8-1.8s.8-1.8 1.8-1.8 1.8.8 1.8 1.8-.8 1.8-1.8 1.8zm-36.5-9.1h39.2c.9 0 1.7.2 2.4.6l-3.8-8c-1-2.3-2.8-3.2-4.6-3.2h-4.3l-6.2 6.3c-.4.4-.9.8-1.5 1-.6.2-1.2.4-1.8.4-.6 0-1.2-.1-1.8-.4h-.2c-.5-.3-.9-.6-1.3-.9l-6.1-6.3h-4.2c-1.8 0-3.4 1-4.6 3.2l-3.8 8c.9-.5 1.7-.7 2.6-.7z"/><path d="M45.1 43.2c.2-.2.4-.5.5-.8.1-.3.2-.6.2-.9 0-.3-.1-.6-.2-.9-.1-.3-.3-.5-.5-.8-.2-.2-.5-.4-.8-.5-.3-.1-.6-.2-.9-.2s-.6.1-.9.2c-.3.1-.6.3-.8.5l-3.5 3.5v-11c0-.3-.1-.6-.2-.9-.1-.3-.3-.5-.5-.8-.2-.2-.5-.4-.8-.5-.1-.1-.4-.1-.7-.1-.3 0-.6.1-.9.2-.3.1-.6.3-.8.5-.2.2-.4.5-.5.8-.1.3-.2.6-.2.9v11l-3.5-3.5c-.2-.2-.5-.4-.8-.5-.3-.1-.6-.2-.9-.2-.3 0-.6.1-.9.2-.3.1-.5.3-.8.5-.2.2-.4.5-.5.8-.1.3-.2.6-.2.9 0 .3.1.6.2.9.1.3.3.6.5.8l7.5 7.7c.2.2.5.4.8.5.3.1.6.2.9.2.3 0 .6-.1.9-.2.3-.1.5-.3.8-.5l7.5-7.8z"/></g></svg>