<svg xmlns="http://www.w3.org/2000/svg" viewBox="0 0 72 100"><path d="M45 1l27 26.7V99H0V1h45z"/><path d="M22.2 37.8l19.7-3.4-.8-3.2-19.7 3.3.8 3.3zm2.9 13.5l.8 3.3 8-1.5v-3.4c0-.1-8.8 1.6-8.8 1.6zM24 46.1l9.9-1.9v-2.6c0-.2 0-.5.1-.8l-10.6 1.9.6 3.4zm9.9 12.1l-10 2-6.6-29.8L43 26.3l2.1 9.1c.4 0 .9 0 1.4-.1l-3.9-17.1-28.5 4.2 8.8 39.8L34 59.9c-.1-.1-.1-1.7-.1-1.7zM47 52.9c-6.2 0-11.3-2-11.3-4.5v4.5c0 2.5 5 4.5 11.3 4.5s11.3-2 11.3-4.5v-4.5c0 2.5-5 4.5-11.3 4.5zm0 6.8c-6.2 0-11.3-2-11.3-4.5v4.5c0 2.5 5 4.5 11.3 4.5s11.3-2 11.3-4.5v-4.5c0 2.5-5 4.5-11.3 4.5zm0-22.6c-6.2 0-11.3 2-11.3 4.5v4.5c0 2.5 5 4.5 11.3 4.5s11.3-2 11.3-4.5v-4.5c0-2.4-5-4.5-11.3-4.5zm0 7.9c-6.2 0-10.2-2-10.2-3.4s3.9-3.4 10.2-3.4c6.1 0 10.2 2 10.2 3.4 0 1.5-4 3.4-10.2 3.4z" opacity=".8"/><path stroke-width="2" d="M45 1l27 26.7V99H0V1h45z"/><path d="M45 1l27 26.7H45V1z"/><path stroke-linejoin="bevel" stroke-width="2" d="M45 1l27 26.7H45V1z"/><path d="M9.1 71.8h7.4c1.7 0 2.9.1 3.8.4 1.2.3 2.2 1 3 1.8.8.9 1.5 2 1.9 3.2s.7 2.9.7 4.7c0 1.6-.2 3.1-.6 4.3-.5 1.5-1.2 2.6-2.1 3.5-.7.7-1.6 1.2-2.8 1.6-.9.3-2.1.4-3.6.4H9.1V71.8zm4 3.4v13.3h3c1.1 0 1.9-.1 2.4-.2.7-.2 1.2-.4 1.6-.8s.8-1 1.1-1.9.4-2.1.4-3.7-.1-2.7-.4-3.6-.7-1.5-1.1-1.9-1.1-.8-1.9-.9c-.6-.1-1.7-.2-3.3-.2h-1.8v-.1zm15.2 10.2l3.9-.4c.2 1.3.7 2.3 1.4 2.9s1.7.9 2.9.9c1.3 0 2.3-.3 2.9-.8.7-.6 1-1.2 1-1.9 0-.5-.1-.9-.4-1.2-.3-.3-.8-.6-1.5-.9-.5-.2-1.6-.5-3.2-.9-2.2-.5-3.7-1.2-4.6-2-1.2-1.1-1.8-2.4-1.8-4 0-1 .3-2 .9-2.9s1.4-1.6 2.5-2c1.1-.5 2.4-.7 3.9-.7 2.5 0 4.4.6 5.7 1.7s1.9 2.6 2 4.4l-4 .2c-.2-1-.5-1.8-1.1-2.2-.6-.5-1.4-.7-2.6-.7-1.2 0-2.1.2-2.8.7-.4.3-.6.7-.6 1.2s.2.9.6 1.2c.5.4 1.8.9 3.7 1.3s3.4.9 4.4 1.4 1.7 1.2 2.2 2 .8 1.9.8 3.2c0 1.1-.3 2.2-1 3.2-.6 1-1.5 1.7-2.7 2.2s-2.6.7-4.4.7c-2.5 0-4.5-.6-5.8-1.8-1.2-.9-2-2.6-2.3-4.8zM48 91.9v-20h4l8.2 13.4V71.8H64v20h-4.1l-8.1-13.1v13.1l-3.8.1z"/></svg>