<svg xmlns="http://www.w3.org/2000/svg" viewBox="0 0 72 100"><path d="M45 1l27 26.7V99H0V1h45z"/><path stroke-width="2" d="M45 1l27 26.7V99H0V1h45z"/><path d="M45 1l27 26.7H45V1z"/><path stroke-linejoin="bevel" stroke-width="2" d="M45 1l27 26.7H45V1z"/><path d="M11.6 91.9v-20h14.9v3.4H15.6v4.4h10.1v3.4H15.6v5.5h11.2V92H11.6zm18.8 0V72h4v16.5h10.1v3.4H30.4zm17 0v-20h13.7v3.4h-9.7V80h8.4v3.4h-8.4v8.5h-4z"/><path d="M49.3 31.3H23.2v3.6h-5.4V36H15v1h2.8v1.3h5.4v6.3h-5.4v1.3H15v1h2.8V48h5.4v6.7h-5.4v1.2H15v1h2.8v1.2h5.4V63h26.1v-4.9h4.9v-1.2H57v-1h-2.8v-1.2h-4.9V48h4.9v-1.1H57v-1h-2.8v-1.3h-4.9v-6.3h4.9V37H57v-1h-2.8v-1.1h-4.9v-3.6zm-5 8.6c-1.1 0-2-.9-2-2s.9-2 2-2 2 .9 2 2-.9 2-2 2z" opacity=".9"/></svg>