<svg xmlns="http://www.w3.org/2000/svg" viewBox="0 0 72 100"><path d="M45.3 1l27.1 26.7V99H.1V1h45.2z"/><path fill-opacity="0" stroke-width="2" d="M45.3 1l27.1 26.7V99H.1V1h45.2z"/><path d="M7.2 91.6V76h11.7v2.6h-8.5v3.5h7.9v2.6h-7.9V89h8.8v2.6h-12zm14.7 0V76H27c1.9 0 3.2.1 3.8.2.9.2 1.7.7 2.3 1.5s.9 1.8.9 3c0 1-.2 1.8-.5 2.4s-.8 1.2-1.3 1.5c-.5.4-1.1.6-1.7.7-.8.1-1.9.2-3.3.2h-2.1v5.9h-3.2zm3.2-13V83h1.7c1.3 0 2.1-.1 2.5-.2.4-.2.8-.4 1-.8.2-.3.4-.8.4-1.2 0-.6-.2-1-.5-1.4-.3-.4-.8-.6-1.3-.7-.4-.1-1.1-.1-2.3-.1h-1.5zM36.6 76h3.2v8.4c0 1.3 0 2.2.1 2.6.1.6.5 1.1 1 1.5.5.4 1.2.6 2.1.6.9 0 1.6-.2 2-.5.5-.4.7-.8.8-1.3.1-.5.1-1.4.1-2.6V76h3.2v8.2c0 1.9-.1 3.2-.3 4-.2.8-.5 1.4-1 2-.5.5-1.1 1-1.9 1.3s-1.8.5-3 .5c-1.5 0-2.7-.2-3.4-.5-.8-.3-1.4-.8-1.8-1.3-.5-.5-.8-1.1-.9-1.7-.2-.9-.3-2.2-.3-4V76zm16 0h6.3c1.2 0 2.2.1 2.8.2.6.1 1.2.3 1.6.6s.9.8 1.2 1.3c.3.5.5 1.2.5 1.8 0 .7-.2 1.4-.6 2s-.9 1.1-1.6 1.4c1 .3 1.7.7 2.2 1.4s.8 1.4.8 2.3c0 .7-.2 1.4-.5 2.1-.3.7-.8 1.2-1.4 1.6-.6.4-1.3.6-2.1.7-.5.1-1.8.1-3.8.1h-5.4V76zm3.2 2.6v3.6h2.1c1.2 0 2 0 2.3-.1.5-.1 1-.2 1.3-.6s.5-.7.5-1.2-.1-.9-.4-1.2c-.3-.3-.7-.5-1.2-.5-.3 0-1.2-.1-2.7-.1h-1.9zm0 6.2V89h3c1.1 0 1.9 0 2.2-.1.5-.1.9-.3 1.2-.6.3-.3.4-.8.4-1.3s-.1-.9-.3-1.2c-.2-.3-.6-.6-1-.7-.4-.1-1.4-.2-2.8-.2h-2.7zm6.9-50.3c-.3-.7-.7-1.2-1.3-1.7-.1.5-.3 1.1-.6 1.6L44.4 59.6c-.6.9-2 1.2-3 .9l-26.1-7.3c-1.6-.4-3.4-1.3-3.5-3.1-.1-.7 0-.9.4-1.2.4-.3.8-.2 1.2-.1L38 55.6c3.6 1 4.6.3 7.2-3.7l15-23.1c.8-1.2 1-2.6.5-3.8-.4-1.2-1.4-2.1-2.8-2.5l-21.5-6c-.5-.1-1-.1-1.5-.2l.1-.1c-3.3-2-4.6 1.8-6.3 3.2-.6.5-1.5.9-1.7 1.4-.2.5-.1 1-.3 1.5-.6 1.4-2.5 3.8-3.4 4.5-.6.4-1.3.5-1.7 1.1-.3.4-.2 1.1-.4 1.7-.5 1.3-2.2 3.5-3.4 4.6-.4.4-1.1.7-1.4 1.2-.3.4-.2 1.1-.5 1.6-.7 1.4-2.3 3.4-3.6 4.5-.7.6-1.4.9-1.7 1.6-.2.3 0 .8-.2 1.2-.3.7-.6 1.2-.8 1.7-.7 1-1.1 2.2-1 3.6.2 3.2 2.7 6.3 5.5 7.1L40.3 64c2.4.7 5.5-.5 6.8-2.6l15-23.1c.8-1.3 1-2.6.6-3.8zm-30.2-8.3l1.1-1.6c.3-.5 1-.7 1.4-.6l17.2 4.8c.5.1.7.6.4 1.1l-1.1 1.6c-.3.5-1 .7-1.4.6l-17.2-4.8c-.5-.2-.7-.7-.4-1.1zm-4.4 6.4l1.1-1.6c.3-.5 1-.7 1.4-.6l17.2 4.8c.5.1.7.6.4 1.1l-1.1 1.6c-.3.5-1 .7-1.4.6l-17.2-4.8c-.5-.1-.7-.6-.4-1.1z"/><path d="M45.3 1l27.1 26.7H45.3V1z"/><path fill-opacity="0" stroke-linejoin="round" stroke-width="2" d="M45.3 1l27.1 26.7H45.3V1z"/></svg>