<svg xmlns="http://www.w3.org/2000/svg" viewBox="0 0 72 100"><path d="M45.1 1L72 27.7V99H.2V1h44.9z"/><path fill-opacity="0" stroke-width="2" d="M45.1 1L72 27.7V99H.2V1h44.9z"/><path d="M9.8 91.1V71.2h14.8v3.4H13.9V79h10v3.3h-10v5.4H25V91H9.8zm16.6 0l6.8-10.4-6.2-9.5h4.7l4 6.4 3.9-6.4h4.7l-6.2 9.6L45 91.1h-4.9l-4.4-6.9-4.4 6.9h-4.9zm20.7 0V71.2h14.8v3.4H51.1V79h10v3.3h-10v5.4h11.2V91H47.1zm8-54.8c-.1-1-.3-1.9-.6-2.9l4.7-2.7-5-8.6-4.7 2.7c-1.3-1.4-2.9-2.6-4.6-3.6l1.4-5.1-9.7-2.7-1.4 5.1c-1 0-1.9 0-2.9.1s-1.9.3-2.9.6l-2.7-4.7-8.7 4.9 2.7 4.7c-1.4 1.4-2.6 2.9-3.6 4.6l-5.2-1.4L9.4 37l5.2 1.4c0 1 0 1.9.2 2.9.1 1 .3 1.9.6 2.9l-4.7 2.7 5 8.6 4.7-2.7c1.3 1.4 2.9 2.6 4.6 3.6l-1.4 5.1 9.7 2.7 1.4-5.1c1 0 1.9 0 2.9-.1s1.9-.3 2.9-.6l2.7 4.7 8.7-4.9-2.7-4.7c1.4-1.3 2.6-2.9 3.6-4.6l5.2 1.4 2.7-9.6-5.2-1.4c-.2-1-.2-2-.4-3zM36.1 47c-4.5.6-8.7-2.7-9.3-7.1-.6-4.5 2.7-8.6 7.2-9.2 4.5-.6 8.7 2.7 9.3 7.1.5 4.5-2.7 8.6-7.2 9.2z"/><path d="M45.1 1L72 27.7H45.1V1z"/><path fill-opacity="0" stroke-linejoin="bevel" stroke-width="2" d="M45.1 1L72 27.7H45.1V1z"/></svg>