<svg xmlns="http://www.w3.org/2000/svg" viewBox="0 0 72 100"><path d="M45.1 1l27.2 26.7V99H-.2V1h45.3z"/><path fill-opacity="0" stroke-width="2" d="M45.1 1l27.2 26.7V99H-.2V1h45.3z"/><path d="M12.6 91.1V71.2h13.8v3.4h-9.8v4.7H25v3.4h-8.4v8.4h-4zm23.9 0v-4h-8.3v-3.3L37 71.1h3.2v12.6h2.5V87h-2.5v4h-3.7zm0-7.4V77l-4.6 6.8h4.6zm14.1 7.4l-7.2-19.8h4.4L52.9 86l4.9-14.7h4.3L55 91.1h-4.4zm-14-68.862c-11.3 0-20.4 9.1-20.4 20.4 0 11.3 9.1 20.4 20.4 20.4s20.4-9.2 20.4-20.4c0-11.3-9.1-20.4-20.4-20.4zm3.9 4.8l-3.3 12.3h8.6l-13 18.8 3.3-12.3h-8.6l13-18.8z"/><path d="M45.1 1l27.2 26.7H45.1V1z"/><path fill-opacity="0" stroke-linejoin="bevel" stroke-width="2" d="M45.1 1l27.2 26.7H45.1V1z"/></svg>