<svg xmlns="http://www.w3.org/2000/svg" viewBox="0 0 72 100"><path d="M45.1 1l27.2 26.7V99H-.2V1h45.3z"/><path fill-opacity="0" stroke-width="2" d="M45.1 1l27.2 26.7V99H-.2V1h45.3z"/><path d="M11 91.1V71.2h13.8v3.4H15v4.7h8.4v3.4H15v8.4h-4zm33.9 0h-4.4l-1.8-4.5h-8.1l-1.7 4.5h-4.3l7.9-19.8h4.3l8.1 19.8zm-7.5-7.9l-2.8-7.4-2.7 7.4h5.5zm7.6 7.9l6.9-10.4-6.2-9.5h4.8l4 6.4 4-6.4h4.7l-6.3 9.6L63.8 91h-4.9l-4.5-6.9-4.5 6.9H45zM45.1 1l27.2 26.7H45.1V1z"/><path fill-opacity="0" stroke-linejoin="bevel" stroke-width="2" d="M45.1 1l27.2 26.7H45.1V1z"/><path d="M41.7 35.1h-2.4c-.3 0-.5-.2-.5-.5v-11H28.5v4.5c0 .9-.7 1.6-1.6 1.6h-4.5v4.9c0 .3-.2.5-.5.5h-2.4c-.3 0-.5-.2-.5-.5v-7.3l7.2-7.2H40c1.2 0 2.2 1 2.3 2.2v12.3c-.1.3-.3.5-.6.5zm.5 26c0 .5-.4.9-.9.9H20.6c-2.4 0-4.3-1.9-4.3-4.3V39.4c0-.5.4-.9.9-.9h24.2c.5 0 .9.4.9.9v21.7h-.1zm-17-16.9c0-1-.8-1.8-1.8-1.8s-1.8.8-1.8 1.8.8 1.8 1.8 1.8 1.8-.8 1.8-1.8zm0 6c0-1-.8-1.8-1.8-1.8s-1.8.8-1.8 1.8.8 1.8 1.8 1.8c1 .1 1.8-.7 1.8-1.8 0 .1 0 0 0 0zm4.2-7.8c-1 0-1.8.8-1.8 1.8s.8 1.8 1.8 1.8 1.8-.8 1.8-1.8-.8-1.8-1.8-1.8zm1.8 7.8c0-1-.8-1.8-1.8-1.8s-1.8.8-1.8 1.8.8 1.8 1.8 1.8c1 .1 1.8-.7 1.8-1.8zm0 6.1c0-1-.8-1.8-1.8-1.8s-1.8.8-1.8 1.8.8 1.8 1.8 1.8 1.8-.8 1.8-1.8zm4.2-13.9c-1 0-1.8.8-1.8 1.8s.8 1.8 1.8 1.8 1.8-.8 1.8-1.8-.8-1.8-1.8-1.8zm1.8 7.8c0-1-.8-1.8-1.8-1.8s-1.8.8-1.8 1.8.8 1.8 1.8 1.8c1 .1 1.9-.7 1.8-1.8zm.1 6.1c0-1-.8-1.8-1.8-1.8s-1.8.8-1.8 1.8.8 1.8 1.8 1.8c.9 0 1.7-.8 1.8-1.8zm19.4 1.3V38.4c0-3-2.5-5.5-5.5-5.5h-4.6c-.5 0-.9.4-.9.9v27.3c0 .5.4.9.9.9h5.8c2.4 0 4.3-2 4.3-4.4z"/></svg>