<svg xmlns="http://www.w3.org/2000/svg" viewBox="0 0 72 100"><path d="M45.1 1l27.2 26.7V99H-.2V1h45.3z"/><path fill-opacity="0" stroke-width="2" d="M45.1 1l27.2 26.7V99H-.2V1h45.3z"/><path d="M11.6 91.1V71.2h13.8v3.4h-9.8v4.7H24v3.4h-8.4v8.4h-4zm17.3 0V71.4H33v16.3h10.1V91H28.9zm35.3 0h-4.4L58 86.6h-8.1l-1.7 4.5h-4.3l7.9-19.8h4.3l8.1 19.8zm-7.5-7.9l-2.8-7.4-2.7 7.4h5.5zM36.6 22.238c-11.3 0-20.4 9.1-20.4 20.4 0 11.3 9.1 20.4 20.4 20.4s20.4-9.2 20.4-20.4c0-11.3-9.1-20.4-20.4-20.4zm3.9 4.8l-3.3 12.3h8.6l-13 18.8 3.3-12.3h-8.6l13-18.8z"/><path d="M45.1 1l27.2 26.7H45.1V1z"/><path fill-opacity="0" stroke-linejoin="bevel" stroke-width="2" d="M45.1 1l27.2 26.7H45.1V1z"/></svg>