<svg xmlns="http://www.w3.org/2000/svg" viewBox="0 0 72 100"><path d="M45.2 1l27.1 26.7V99H.1V1h45.1z"/><path fill-opacity="0" stroke-width="2" d="M45.2 1l27.1 26.7V99H.1V1h45.1z"/><path d="M15.7 82.8v-3.3h8.8v7.9c-.9.8-2.1 1.5-3.7 2.1-1.6.6-3.2.9-4.9.9-2.1 0-3.9-.4-5.5-1.3S7.7 87 6.9 85.4 5.7 82 5.7 80.1c0-2.1.4-3.9 1.3-5.5s2.2-2.8 3.9-3.7c1.3-.7 2.9-1 4.8-1 2.5 0 4.4.5 5.9 1.5 1.4 1 2.3 2.5 2.7 4.3l-4 .7c-.3-1-.8-1.7-1.6-2.3-.8-.6-1.8-.8-2.9-.8-1.8 0-3.2.6-4.2 1.7S10 77.8 10 79.9c0 2.4.5 4.1 1.6 5.3 1.1 1.2 2.5 1.8 4.2 1.8.9 0 1.7-.2 2.6-.5.9-.3 1.6-.7 2.2-1.2v-2.5h-4.9zm12.5 7.3V70.2h14.9v3.4H32.3V78h10.1v3.3H32.3v5.4h11.2V90H28.2zm18.7 0V70.2H53l3.6 13.5 3.6-13.5h6.1V90h-3.8V74.5l-4 15.6h-3.9l-4-15.6v15.6h-3.7zM31.8 32c-.1.1-.1.1 0 0M54 23.5v36l-9-27 9-9zm-36 36h36l-27-9-9 9zm9-9l27 9-18-18-9 9zm9-9l18 18-9-27-9 9zm-18 9v9l9-9h-9zm18-9h-9v9l9-9zm9-9h-9v9l9-9zm9-9h-9v9l9-9zm-27 18l-9 9h9v-9zm9-9l-9 9h9v-9zm9-9l-9 9h9v-9z"/><path fill-opacity="0" d="M54 23.5v36l-9-27 9-9zm-36 36h36l-27-9-9 9zm9-9l27 9-18-18-9 9zm9-9l18 18-9-27-9 9zm-18 9v9l9-9h-9zm18-9h-9v9l9-9zm9-9h-9v9l9-9zm9-9h-9v9l9-9zm-27 18l-9 9h9v-9zm9-9l-9 9h9v-9zm9-9l-9 9h9v-9z"/><path d="M45.2 1l27.1 26.7H45.2V1z"/><path fill-opacity="0" stroke-linejoin="bevel" stroke-width="2" d="M45.2 1l27.1 26.7H45.2V1z"/></svg>