<svg xmlns="http://www.w3.org/2000/svg" viewBox="0 0 72 100"><path d="M45 .8l27 26.7v71.3H0V.8h45z"/><path fill-opacity="0" stroke-width="2" d="M45 .8l27 26.7v71.3H0V.8h45z"/><path d="M45 .8l27 26.7H45V.8z"/><path fill-opacity="0" stroke-linejoin="bevel" stroke-width="2" d="M45 .8l27 26.7H45V.8z"/><path stroke-miterlimit="10" stroke-width=".5" d="M50.2 39.2c-8-8-21-8-29 0s-8 21 0 29 21 8 29 0 8-21 0-29zM23 61.9C19.2 56 19.9 48.1 25 43c5.1-5.1 13-5.8 18.9-2L23 61.9zm4.5 4.5l20.9-20.9c3.8 5.9 3.1 13.8-2 18.9-5.1 5.1-13 5.8-18.9 2z" opacity=".75"/></svg>