<svg xmlns="http://www.w3.org/2000/svg" viewBox="0 0 72 100"><path d="M45 1l27 26.7V99H0V1h45z"/><path fill-opacity="0" stroke-width="2" d="M45 1l27 26.7V99H0V1h45z"/><path d="M14.4 44.1v-4.9c1-.1 1.8-.2 2.3-.5.5-.2.9-.7 1.3-1.2.4-.6.6-1.3.8-2.2.1-.7.2-1.8.2-3.4 0-2.7.1-4.5.4-5.6.2-1 .7-1.9 1.3-2.5s1.6-1.1 2.8-1.5c.8-.2 2.1-.4 3.9-.4h1.1v4.9c-1.5 0-2.5.1-2.9.3-.4.2-.7.4-1 .8-.2.3-.3.9-.3 1.8s-.1 2.5-.2 4.9c-.1 1.4-.2 2.5-.5 3.4-.3.8-.7 1.5-1.1 2.1-.4.5-1.1 1.1-2 1.7.8.5 1.5 1 2 1.6s.9 1.4 1.2 2.3.5 2.1.5 3.6c.1 2.3.1 3.7.1 4.4 0 .9.1 1.5.3 1.9.2.4.6.6 1 .8.4.2 1.4.3 2.9.3v4.9h-1.1c-1.8 0-3.3-.1-4.2-.4-1-.3-1.8-.8-2.5-1.5s-1.1-1.5-1.4-2.5c-.2-1-.3-2.6-.3-4.8 0-2.5-.1-4.2-.3-4.9-.3-1.1-.8-1.9-1.4-2.4-.7-.6-1.6-1-2.9-1zm44.3 0c-1 .1-1.8.2-2.3.5-.5.2-.9.7-1.3 1.2-.4.6-.6 1.3-.8 2.2-.1.7-.2 1.8-.2 3.4 0 2.7-.1 4.5-.4 5.6-.2 1.1-.7 1.9-1.3 2.5-.6.6-1.6 1.1-2.8 1.5-.8.2-2.1.4-3.9.4h-1.1v-4.9c1.5 0 2.4-.1 2.9-.3s.8-.5 1-.8c.2-.3.3-.9.3-1.8 0-.8.1-2.4.2-4.8.1-1.4.3-2.6.6-3.4.3-.9.7-1.6 1.2-2.2s1.1-1.1 1.9-1.6c-1-.7-1.8-1.3-2.2-1.9-.6-.9-1.1-2.1-1.3-3.4-.2-1-.3-3.1-.3-6.3 0-1-.1-1.7-.3-2.1-.2-.3-.5-.6-.9-.8-.4-.2-1.4-.3-3-.3V22h1.1c1.8 0 3.3.1 4.2.4 1 .3 1.8.8 2.5 1.5s1.1 1.5 1.4 2.5c.2 1 .4 2.6.4 4.8 0 2.5.1 4.1.3 4.9.3 1.1.8 1.9 1.4 2.3.6.5 1.6.7 2.8.8l-.1 4.9z" opacity=".95"/><path d="M45 1l27 26.7H45V1z"/><path fill-opacity="0" stroke-linejoin="bevel" stroke-width="2" d="M45 1l27 26.7H45V1z"/><path d="M25.6 84.2v-3.4h8.7v8c-.8.8-2.1 1.5-3.7 2.2-1.6.6-3.2.9-4.9.9-2.1 0-3.9-.4-5.5-1.3s-2.7-2.1-3.5-3.8c-.8-1.6-1.2-3.4-1.2-5.3 0-2.1.4-3.9 1.3-5.6s2.2-2.9 3.8-3.7c1.3-.7 2.9-1 4.8-1 2.5 0 4.4.5 5.8 1.6 1.4 1 2.3 2.5 2.7 4.3l-4 .8c-.3-1-.8-1.8-1.6-2.3s-1.8-.9-2.9-.9c-1.8 0-3.2.6-4.2 1.7s-1.6 2.8-1.6 5c0 2.4.5 4.2 1.6 5.4 1.1 1.2 2.4 1.8 4.2 1.8.8 0 1.7-.2 2.5-.5.9-.3 1.6-.7 2.2-1.2v-2.5h-4.5zm11.6-2.6c0-2 .3-3.8.9-5.1.5-1 1.1-1.9 1.9-2.7.8-.8 1.7-1.4 2.6-1.8 1.2-.5 2.7-.8 4.3-.8 3 0 5.3.9 7.1 2.7 1.8 1.8 2.7 4.4 2.7 7.6 0 3.2-.9 5.8-2.6 7.6-1.8 1.8-4.1 2.7-7.1 2.7s-5.4-.9-7.1-2.7c-1.8-1.8-2.7-4.3-2.7-7.5zm4.2-.1c0 2.3.5 4 1.6 5.2 1 1.2 2.4 1.8 4 1.8s2.9-.6 4-1.7c1-1.2 1.6-2.9 1.6-5.2 0-2.3-.5-4-1.5-5.1-1-1.1-2.3-1.7-4-1.7s-3 .6-4 1.7c-1.2 1-1.7 2.7-1.7 5z"/></svg>