<svg xmlns="http://www.w3.org/2000/svg" viewBox="0 0 72 100"><path d="M45.1 1L72 27.7V99H.2V1h44.9z"/><path stroke-width="2" d="M45.1 1L72 27.7V99H.2V1h44.9z"/><path d="M27.7 91.1V71.2h4V79h7.9v-7.8h4V91h-4v-8.7h-7.9V91h-4z"/><g opacity=".85"><path stroke-miterlimit="10" stroke-width=".75" d="M60.1 18.5h-47v47h47v-47zm-2.6 44.3H15.8V27.6h41.6v35.2z"/><path stroke-miterlimit="10" d="M19.9 31.8h33.6v4.7H19.9z"/><path d="M25.2 39.4h20.5v2H25.2v-2zm3 5.8h20.5v2H28.2v-2zm-3 6h20.5v2H25.2v-2zm3 6.2h20.5v2H28.2v-2z"/></g><path d="M45.1 1L72 27.7H45.1V1z"/><path stroke-linejoin="bevel" stroke-width="2" d="M45.1 1L72 27.7H45.1V1z"/></svg>