<svg xmlns="http://www.w3.org/2000/svg" viewBox="0 0 72 100"><path d="M45.2 1l27.1 26.7V99H.1V1h45.1z"/><path fill-opacity="0" stroke-width="2" d="M45.2 1l27.1 26.7V99H.1V1h45.1z"/><path d="M8.6 90.1V70.2h4.1V78h8v-7.8h4.1V90h-4.1v-8.7h-8V90H8.6zm20.3-19.9h8c1.6 0 2.8.1 3.6.2.8.1 1.5.4 2.1.8.6.4 1.1 1 1.5 1.7.4.7.6 1.5.6 2.3 0 .9-.3 1.8-.8 2.6s-1.2 1.4-2.1 1.7c1.2.4 2.2 1 2.8 1.8.7.8 1 1.8 1 3 0 .9-.2 1.8-.6 2.6-.4.9-1 1.5-1.7 2s-1.6.8-2.7.9c-.6.2-2.2.2-4.8.3H29V70.2zm4.1 3.3v4.6h2.7c1.6 0 2.6 0 3-.1.7-.1 1.2-.3 1.6-.7.4-.4.6-.9.6-1.5s-.2-1.1-.5-1.5c-.3-.4-.9-.6-1.5-.7-.4 0-1.6-.1-3.5-.1H33zm0 7.9v5.3h3.8c1.5 0 2.4 0 2.8-.1.6-.1 1.1-.4 1.5-.8.4-.4.6-1 .6-1.7 0-.6-.1-1.1-.4-1.5-.3-.4-.7-.7-1.3-.9s-1.8-.3-3.6-.3H33zm15.2 2.2l4-.4c.2 1.3.7 2.3 1.4 2.9.7.6 1.7.9 2.9.9 1.3 0 2.3-.3 3-.8s1-1.2 1-1.9c0-.5-.1-.9-.4-1.2-.3-.3-.8-.6-1.5-.9-.5-.2-1.6-.5-3.3-.9-2.2-.5-3.7-1.2-4.6-2-1.2-1.1-1.9-2.4-1.9-4 0-1 .3-2 .9-2.8s1.4-1.5 2.5-2 2.4-.7 4-.7c2.5 0 4.4.5 5.7 1.6 1.3 1.1 1.9 2.5 2 4.4l-4.1.2c-.2-1-.5-1.8-1.1-2.2-.6-.4-1.4-.7-2.6-.7-1.2 0-2.1.2-2.8.7-.4.3-.6.7-.6 1.2s.2.9.6 1.2c.5.4 1.8.9 3.7 1.3s3.4.9 4.4 1.4c.9.5 1.7 1.2 2.2 2s.8 1.9.8 3.2c0 1.1-.3 2.2-1 3.2-.6 1-1.5 1.7-2.7 2.2s-2.6.7-4.4.7c-2.5 0-4.5-.6-5.9-1.7-1.1-1-1.9-2.7-2.2-4.9zM31.8 32c-.1.1-.1.1 0 0M45.2 1l27.1 26.7H45.2V1z"/><path fill-opacity="0" stroke-linejoin="bevel" stroke-width="2" d="M45.2 1l27.1 26.7H45.2V1z"/><path d="M30.4 48.3c1.7-.1 3.5.5 4.9 1.7.7.6 1.2 1.2 1.7 2.1.8-1.4 2.1-2.6 3.6-3.1 1.9-.7 4-.7 5.9 0 1.7.7 3.1 1.6 4.4 2.8 1 .9 2 1.9 3.1 2.7.6.5 1.2.8 1.8 1.1.9.3 2 0 2.6-.7.6-.7.6-1.7-.1-2.4-.4-.3-1-.3-1.4.1 0 0 0 .1-.1.1-.2.4-.2.9.1 1.2-.6-.3-1-1-1.1-1.7-.1-.8.5-1.6 1.2-1.8 1.5-.6 3.2-.1 4.1 1.2.7 1.2 1.1 2.7.8 4.1-.2 1.3-.9 2.6-2.1 3.4-1.6 1.1-3.5 1.6-5.4 1.4-1.8-.1-3.6-.4-5.3-1.2-2.8-1.2-5.4-2.6-8.3-3.6-1-.2-2.1-.5-3.1-.7h-2.3c-.9.1-1.9.3-2.7.7-3 .9-5.6 2.5-8.4 3.6-2.4 1-5 1.3-7.6.8-1.5-.2-2.8-1-3.8-2.1-.8-1-1.2-2.2-1.2-3.5-.1-1.2.2-2.4 1-3.4.7-.9 1.9-1.3 3.1-1.2.7 0 1.4.3 1.9.9.3.5.4 1.1.2 1.7-.2.5-.6.9-1 1.2.2-.3.3-.8.1-1.2-.3-.4-.9-.6-1.4-.2-.1 0-.1.1-.2.1-.5.6-.6 1.3-.2 2 .4.7 1.1 1.1 1.8 1.2 1.1 0 2.1-.5 2.9-1.2 1.6-1.6 3.3-3 5-4.3 1.8-1.1 3.6-1.7 5.5-1.8zm0-18c1.7-.1 3.5.5 4.9 1.7.7.6 1.2 1.2 1.7 2.1.8-1.4 2.1-2.6 3.6-3.1 1.9-.7 4-.7 5.9 0 1.7.7 3.1 1.6 4.4 2.8 1 .9 2 1.9 3.1 2.7.6.5 1.2.8 1.8 1.1.9.3 2 0 2.6-.7.6-.7.6-1.7-.1-2.4-.4-.3-1-.3-1.4.1 0 0 0 .1-.1.1-.2.4-.2.9.1 1.2-.6-.3-1-1-1.1-1.7-.1-.8.5-1.6 1.2-1.8 1.5-.6 3.2-.1 4.1 1.2.7 1.2 1.1 2.7.8 4.1-.2 1.3-.9 2.6-2.1 3.4-1.6 1.1-3.5 1.6-5.4 1.4-1.8-.1-3.6-.4-5.3-1.2-2.8-1.2-5.4-2.6-8.3-3.6-1-.2-2.1-.5-3.1-.7h-2.3c-.9.1-1.9.3-2.7.7-3 .9-5.6 2.5-8.4 3.6-2.4 1-5 1.3-7.6.8-1.5-.2-2.8-1-3.8-2.1-.8-1-1.2-2.2-1.2-3.5-.1-1.2.2-2.4 1-3.4.7-.9 1.9-1.3 3.1-1.2.7 0 1.4.3 1.9.9.3.5.4 1.1.2 1.7-.2.5-.6.9-1 1.2.2-.3.3-.8.1-1.2-.3-.4-.9-.6-1.4-.2-.1 0-.1.1-.2.1-.5.6-.6 1.3-.2 2 .4.7 1.1 1.1 1.8 1.2 1.1 0 2.1-.5 2.9-1.2 1.6-1.6 3.3-3 5-4.3 1.8-1.1 3.6-1.7 5.5-1.8z" opacity=".93"/></svg>