<svg xmlns="http://www.w3.org/2000/svg" viewBox="0 0 72 100"><style/><path d="M45.2 1l26.9 26.7V99H.3V1h44.9z"/><path fill-opacity="0" stroke-width="2" d="M45.2 1l26.9 26.7V99H.3V1h44.9z"/><path d="M8.5 91.1V73.2h3.6v7h7.1v-7h3.6v17.9h-3.6v-7.8h-7.1v7.8H8.5zm18.1 0V73.2H40v3h-9.7v4h9v3h-9v4.9h10.1v3H26.6zm16.7 0V73.2H47v17.9h-3.7zm18.6-6.6l3.5 1.1c-.5 2-1.4 3.4-2.7 4.4-1.3.9-2.9 1.4-4.8 1.4-2.4 0-4.4-.8-5.9-2.4-1.5-1.6-2.3-3.8-2.3-6.7 0-3 .8-5.3 2.3-6.9 1.5-1.6 3.6-2.5 6.1-2.5 2.2 0 4 .6 5.4 1.9.8.8 1.4 1.9 1.8 3.3l-3.5.9c-.2-.9-.7-1.7-1.3-2.2S59 76 58 76c-1.3 0-2.4.5-3.3 1.4-.8 1-1.2 2.5-1.2 4.6 0 2.3.4 3.9 1.2 4.8.8 1 1.9 1.4 3.2 1.4 1 0 1.8-.3 2.5-.9.7-.5 1.2-1.5 1.5-2.8zM45.2 1l26.9 26.7H45.2V1z"/><path fill-opacity="0" stroke-linejoin="bevel" stroke-width="2" d="M45.2 1l26.9 26.7H45.2V1z"/><path d="M62.7 56.8c-1.6-.8-4.6-6.6-9.2-7-4-.3-9.1-1.8-11.9-2-3.5-5.8-9.5-15-14.5-19.9l13.8.7C37.2 19.8 27.7 23 27.7 23l6.4-5.3c-8.2-3.3-11.6 4.7-11.6 4.7-8.5-4.7-12.9 3.3-12.9 3.3l8.8.6C8.4 29.1 11.2 39 11.2 39l8.9-8c-1.9 4.4 2.3 7.5 2.3 7.5L25 27.7s9.3 10.6 12.2 21.4c-3.7 1.9-9.5 5-14 5.6-6.2.8-13.5 5-13.5 5v4.9h53.1l-.1-7.8z" opacity=".99"/></svg>