<svg xmlns="http://www.w3.org/2000/svg" viewBox="0 0 72 100"><path d="M45.3 1l27.1 26.7V99H.1V1h45.2z"/><path stroke-width="2" d="M45.3 1l27.1 26.7V99H.1V1h45.2z"/><path d="M16.2 91.6V76h3.2v6.1h6.3V76h3.2v15.6h-3.2v-6.8h-6.3v6.8h-3.2zm16.1 0V76.1h3.2V89h7.9v2.6H32.3zm13.4 0V76h5.1c1.9 0 3.2.1 3.8.2.9.2 1.7.7 2.3 1.5.6.8.9 1.8.9 3 0 1-.2 1.8-.5 2.4s-.8 1.2-1.3 1.5-1.1.6-1.7.7c-.8.1-1.9.2-3.3.2h-2.1v5.9h-3.2zm3.1-13V83h1.7c1.3 0 2.1-.1 2.5-.2.4-.2.8-.4 1-.8.2-.3.4-.8.4-1.2 0-.6-.2-1-.5-1.4-.3-.4-.8-.6-1.3-.7-.4-.1-1.1-.1-2.3-.1h-1.5zm9.7-57.1H25.2c-4.9 0-9.8 2-9.8 7.8v39.2h35.2V29.3H20.4c0-2.9 2-3.9 3.9-3.9h30.4v39.2l3.9-3.9V21.5z"/><path d="M31.5 51c0-4.1 4.7-4.7 4.7-7.6 0-1.3-1.2-2.3-2.7-2.3-1.6 0-3 1.2-3 1.2l-2-2.5s1.9-2 5.3-2c3.2 0 6.1 2 6.1 5.3 0 4.7-4.9 5.2-4.9 8.2v1.1h-3.5V51zm0 3.8H35v3.3h-3.5v-3.3zM45.3 1l27.1 26.7H45.3V1z"/><path stroke-linejoin="round" stroke-width="2" d="M45.3 1l27.1 26.7H45.3V1z"/></svg>