<svg xmlns="http://www.w3.org/2000/svg" viewBox="0 0 72 100"><path d="M45 1l27 26.7V99H0V1h45z"/><path fill-opacity="0" stroke-width="2" d="M45 1l27 26.7V99H0V1h45z"/><path stroke-miterlimit="10" stroke-width="2" d="M12 44.7l14-12.1v6.1l-9.5 7.9v.1l9.5 7.9v6.1l-14-12v-4zm26.4-15.2h3.7l-7.2 35h-3.6l7.1-35zm8.8 25.3l9.5-7.9v-.1l-9.5-7.9v-6.1l14 12.1V49l-14 12.1v-6.3z" opacity=".9"/><path d="M45 1l27 26.7H45V1z"/><path fill-opacity="0" stroke-linejoin="bevel" stroke-width="2" d="M45 1l27 26.7H45V1z"/><path d="M8.5 91.5V72.2h3.9v7.6h7.7v-7.6H24v19.3h-3.9V83h-7.7v8.5H8.5zm24 0v-16h-5.8v-3.3h15.5v3.3h-5.8v16.1h-3.9zm12.3 0V72.2h5.9l3.5 13.2 3.5-13.2h5.9v19.3h-3.7V76.3L56 91.5h-3.8l-3.9-15.2v15.2h-3.5z"/></svg>