<svg xmlns="http://www.w3.org/2000/svg" viewBox="0 0 72 100"><style/><path d="M45.2 1l27 26.7V99H.2V1h45z"/><path fill-opacity="0" stroke-width="2" d="M45.2 1l27 26.7V99H.2V1h45z"/><path d="M8.7 91.1V73.9h3.5v17.2H8.7zm6.9 0V73.9H19l7.1 11.5V73.9h3.3v17.2h-3.5l-7-11.2v11.2h-3.3zM33 73.9h6.4c1.4 0 2.5.1 3.3.3 1 .3 1.9.8 2.6 1.6s1.3 1.7 1.7 2.8.6 2.5.6 4.1c0 1.4-.2 2.6-.5 3.7-.4 1.2-1.1 2.3-1.9 3-.6.6-1.4 1-2.5 1.4-.8.2-1.8.4-3.1.4H33V73.9zm3.5 2.9v11.4h2.6c1 0 1.7-.1 2.1-.2.6-.1 1-.4 1.4-.7s.7-.9.9-1.7c.2-.8.4-1.8.4-3.1s-.1-2.3-.4-3.1c-.2-.7-.6-1.3-1-1.7s-1-.7-1.6-.8c-.5-.1-1.4-.2-2.9-.2h-1.5zm14-2.9h6.4c1.4 0 2.5.1 3.3.3 1 .3 1.9.8 2.6 1.6.7.8 1.3 1.7 1.7 2.8s.6 2.5.6 4.1c0 1.4-.2 2.6-.5 3.7-.4 1.2-1.1 2.3-1.9 3-.6.6-1.4 1-2.5 1.4-.8.2-1.8.4-3.1.4h-6.6V73.9zm3.5 2.9v11.4h2.6c1 0 1.7-.1 2.1-.2.6-.1 1-.4 1.4-.7s.7-.9.9-1.7c.2-.8.4-1.8.4-3.1s-.1-2.3-.4-3.1c-.2-.7-.6-1.3-1-1.7-.4-.4-1-.7-1.6-.8-.5-.1-1.4-.2-2.9-.2H54zM45.2 1l27 26.7h-27V1z"/><path fill-opacity="0" stroke-linejoin="bevel" stroke-width="2" d="M45.2 1l27 26.7h-27V1z"/><path d="M24.6 61.3V34.5h3.6v26.8h-3.6z"/><path d="M24.6 61.3V34.5h3.6v26.8h-3.6zm17.9.4c-6 0-9.2-3.7-9.2-9.2 0-5.5 3.1-9.8 9.2-9.8 1.1 0 2.1.1 3.2.4v-8.6h3.4v26c-1.4.6-3.9 1.2-6.6 1.2zm3.2-16.9c-.8-.2-1.8-.3-2.7-.3-4.8 0-6.4 3.7-6.4 7.7 0 4.4 1.7 7.5 6 7.5 1.4 0 2.3-.2 3-.5V44.8z"/><path d="M42.5 61.7c-6 0-9.2-3.7-9.2-9.2 0-5.5 3.1-9.8 9.2-9.8 1.1 0 2.1.1 3.2.4v-8.6h3.4v26c-1.4.6-3.9 1.2-6.6 1.2zm3.2-16.9c-.8-.2-1.8-.3-2.7-.3-4.8 0-6.4 3.7-6.4 7.7 0 4.4 1.7 7.5 6 7.5 1.4 0 2.3-.2 3-.5V44.8z"/></svg>