<svg xmlns="http://www.w3.org/2000/svg" viewBox="0 0 72 100"><path d="M45.1 1L72 27.7V99H.2V1h44.9z"/><path fill-opacity="0" stroke-width="2" d="M45.1 1L72 27.7V99H.2V1h44.9z"/><path d="M38.3 30a2.732 2.732 0 00-2.7 2.7 2.732 2.732 0 002.7 2.7 2.732 2.732 0 002.7-2.7 2.732 2.732 0 00-2.7-2.7zm1.1 8.5l-.1.2h.1v-.2zm-.1.2c-2.4.3-4.8.5-7.2.9l-.2 1.1h.7c.4 0 .7.1 1 .3.2.2.3.4.3.7 0 .4-.1.6-.4 1.5L31 52c-.2.7-.3 1.3-.3 1.7 0 .7.2 1.3.7 1.7.5.4 2 .7 2.8.7 2.1 0 5.5-1.1 7.4-4.3l-1.5-.9c-.8 1.2-2.2 2-2.8 2.4-.7.3-1.1.3-1.3.3-.1 0-.2-.1-.3-.2-.1-.1-.2-.2-.2-.4s.1-.7.3-1.5l3.5-12.8z"/><path stroke-miterlimit="10" stroke-width="2.5" d="M36 22c-11.6 0-21 9.4-21 21s9.4 21 21 21 21-9.4 21-21-9.4-21-21-21zm0 2.3c10.3 0 18.7 8.3 18.7 18.7 0 10.3-8.3 18.7-18.7 18.7S17.3 53.3 17.3 43c0-10.3 8.4-18.7 18.7-18.7z"/><path d="M9 91.1V73.9h3.5v17.2H9zm6.8 0V73.9h3.4l7.1 11.5V73.9h3.2v17.2H26l-7-11.2v11.2h-3.2zm17.4 0V73.9h11.9v2.9h-8.4v4.1H44v2.9h-7.2v7.3h-3.6zm14.1-8.5c0-1.8.3-3.2.8-4.4.4-.9.9-1.7 1.6-2.4s1.4-1.2 2.2-1.5c1.1-.5 2.3-.7 3.7-.7 2.5 0 4.6.8 6.1 2.4s2.3 3.8 2.3 6.6-.8 4.9-2.3 6.5c-1.5 1.6-3.5 2.3-6.1 2.3-2.6 0-4.6-.8-6.1-2.3-1.5-1.6-2.2-3.8-2.2-6.5zm3.6-.1c0 1.9.5 3.4 1.4 4.4s2.1 1.5 3.4 1.5 2.5-.5 3.4-1.5 1.3-2.5 1.3-4.5S60 79 59.1 78s-2-1.5-3.5-1.5c-1.4 0-2.6.5-3.5 1.5-.8 1-1.2 2.5-1.2 4.5zM45.1 1L72 27.7H45.1V1z"/><path fill-opacity="0" stroke-linejoin="bevel" stroke-width="2" d="M45.1 1L72 27.7H45.1V1z"/></svg>