<svg xmlns="http://www.w3.org/2000/svg" viewBox="0 0 72 100"><path d="M45 1.1l27 26.7v71.1H0V1.1h45z"/><path fill-opacity="0" stroke-width="2" d="M45 1.1l27 26.7v71.1H0V1.1h45z"/><g opacity=".9"><path d="M36.3 23.7c-2.3 1.6-5 3.5-6.4 6.6-2.5 5.3 5 11.2 5.3 11.4.1.1.2.1.3.1.1 0 .2 0 .3-.1.1-.1.2-.3.1-.5 0-.1-2.7-5.3-2.6-9 0-1.3 1.9-2.8 3.8-4.3 1.8-1.4 3.8-3.1 4.9-5 2.6-4.2-.3-8.3-.3-8.3-.1-.2-.3-.2-.5-.1s-.3.3-.2.5c0 0 .6 2.7-1 5.5-.7 1-2.1 2-3.7 3.2z"/><path d="M46 25.5c.2-.1.2-.3.1-.5s-.3-.3-.5-.2c-.4.2-9.7 3.7-9.7 8 0 3 1.3 4.6 2.2 5.7.4.5.7.8.8 1.2.3 1-.4 2.7-.7 3.3-.1.2 0 .4.1.5.1.1.2.1.3.1.1 0 .2 0 .2-.1.2-.1 3.9-2.8 3.2-5.9-.2-1.2-.8-2.1-1.4-2.9-.8-1.2-1.4-2.1-.5-3.7 1.2-1.9 5.9-5.5 5.9-5.5z"/><path d="M21.9 43.6c-.2.5-.1.9.2 1.4 1 1.4 4.6 2.2 10 2.2h2.3c8.7-.3 12-3 12.1-3.1.1-.1.2-.3.1-.5s-.3-.3-.5-.2c-3.1.8-8.8 1.1-12.8 1.1-4.5 0-6.7-.3-7.3-.6.3-.4 2-1.1 4.2-1.5.2 0 .4-.2.3-.4 0-.2-.2-.4-.4-.4-1.1-.1-7.5 0-8.2 2zm29.2-2.8c-1.8 0-3.5.9-3.6.9-.2.1-.3.3-.2.5 0 .2.2.3.4.3 0 0 3.8 0 4.2 2.2.3 1.9-3.6 4.9-5.1 5.9-.2.1-.2.3-.2.5.1.2.2.3.4.3h.1c.4-.1 8.9-2 8-6.9-.6-3-2.5-3.7-4-3.7zm-5.8 9.3c0-.2 0-.3-.2-.4l-2-1.4c-.1-.1-.2-.1-.3-.1 0 0-2.2.6-5.3.9-1.2.1-2.6.2-4 .2-3.1 0-5.1-.4-5.4-.6v-.1c.1-.1.3-.3.5-.4.2-.1.3-.3.3-.5-.1-.2-.3-.3-.5-.3-2 .5-3.1 1.2-3 2.1.1 1.5 3.7 2.3 6.7 2.5h1.4c5 0 11.5-1.6 11.5-1.6.1 0 .2-.2.3-.3zm-15.4 3.3c.2-.1.2-.3.2-.5-.1-.2-.2-.3-.4-.3-.3 0-2.7.1-2.9 1.7-.1.5.1.9.4 1.2.9 1 3.2 1.6 7.1 1.9h1.4c5 0 8.4-1.6 8.5-1.6.1-.1.2-.2.2-.4s-.1-.3-.2-.4l-2.6-1.6c-.1-.1-.2-.1-.3-.1 0 0-1.7.3-4.1.7-.5.1-1.1.1-1.7.1-2.5 0-5.2-.4-5.7-.7 0 .1 0 0 .1 0z"/><path d="M33.4 62.2c11.5 0 17.6-2.1 18.8-3.3.4-.5.5-.9.4-1.2-.1-.7-.7-1.1-.8-1.2-.2-.1-.4-.1-.5.1-.1.2-.1.4 0 .5.1.1.1.2-.1.5-.4.4-5.2 1.8-13.2 2.2-1.1.1-2.2.1-3.4.1-7.1 0-12.4-1-13-1.5.3-.4 2.1-1 4.1-1.3.2 0 .4-.2.3-.5 0-.2-.2-.4-.5-.3H25c-3.2.2-7 .6-7.2 2.3-.1.5.1 1 .4 1.4 1 .9 3.5 2.2 15.2 2.2z"/><path d="M54.5 59.2c-.2-.1-.4 0-.5.1 0 0-1.7 1.8-6.9 2.9-2 .4-5.7.6-11.1.6-5.4 0-10.5-.2-10.5-.2-.2 0-.4.1-.4.4 0 .2.1.4.3.5.1 0 5.4 1.3 12.7 1.3 3.5 0 6.9-.3 10.2-.8 6-1.1 6.5-4 6.5-4.2-.1-.3-.2-.5-.3-.6z"/></g><path d="M19 71.1h4v12.6c0 1.6-.1 2.9-.4 3.8-.4 1.2-1.1 2.1-2.1 2.8-1 .7-2.4 1-4.1 1-2 0-3.5-.5-4.6-1.6-1.1-1.1-1.6-2.7-1.6-4.8l3.8-.4c0 1.1.2 1.9.5 2.4.4.7 1.1 1.1 2 1.1.9 0 1.5-.3 1.9-.8.4-.5.6-1.6.6-3.2V71.1zm7.3 13.4l3.9-.4c.2 1.3.7 2.3 1.4 2.9s1.7.9 2.9.9c1.3 0 2.3-.3 3-.8.7-.5 1-1.2 1-1.9 0-.5-.1-.9-.4-1.2-.3-.3-.8-.6-1.5-.9-.5-.2-1.6-.5-3.2-.9-2.2-.5-3.7-1.2-4.6-2-1.2-1.1-1.9-2.4-1.9-4 0-1 .3-2 .9-2.8s1.4-1.5 2.5-2 2.4-.7 4-.7c2.5 0 4.4.5 5.7 1.6 1.3 1.1 1.9 2.5 2 4.4l-4 .3c-.2-1-.5-1.8-1.1-2.2-.6-.4-1.4-.7-2.6-.7-1.2 0-2.1.2-2.8.7-.4.3-.6.7-.6 1.2s.2.9.6 1.2c.5.4 1.8.9 3.7 1.3s3.4.9 4.4 1.4c.9.5 1.7 1.2 2.2 2 .5.9.8 1.9.8 3.2 0 1.1-.3 2.2-1 3.2-.6 1-1.5 1.7-2.7 2.2s-2.6.7-4.4.7c-2.5 0-4.5-.6-5.9-1.7-1.2-1.1-2-2.8-2.3-5zM46.1 91V71.1h6.5c2.5 0 4.1.1 4.8.3 1.2.3 2.1.9 2.9 1.9.8 1 1.2 2.3 1.2 3.9 0 1.2-.2 2.2-.7 3.1-.4.8-1 1.5-1.7 2s-1.4.8-2.1.9c-1 .2-2.4.3-4.2.3h-2.6V91h-4.1zm4-16.5v5.6h2.2c1.6 0 2.7-.1 3.2-.3.5-.2 1-.5 1.3-1 .3-.4.5-1 .5-1.5 0-.7-.2-1.3-.6-1.8-.4-.5-1-.8-1.6-.9-.5-.1-1.5-.1-2.9-.1h-2.1zM45 1.1l27 26.7H45V1.1z"/><path fill-opacity="0" stroke-linejoin="bevel" stroke-width="2" d="M45 1.1l27 26.7H45V1.1z"/></svg>