<svg xmlns="http://www.w3.org/2000/svg" viewBox="0 0 72 100"><path d="M45 1l27 26.7V99H0V1h45z"/><path fill-opacity="0" stroke-width="2" d="M45 1l27 26.7V99H0V1h45z"/><path d="M45 1l27 26.7H45V1z"/><path fill-opacity="0" stroke-linejoin="bevel" stroke-width="2" d="M45 1l27 26.7H45V1z"/><path d="M9.8 91.9v-20h4v8.9l8.2-8.9h5.4l-7.5 7.8 8 12.2h-5.2l-5.5-9.4-3.3 3.3v6.1H9.8zm20.2 0v-20h14.9v3.4H34v4.4h10.1v3.4H34v5.5h11.2V92H30zm23.9 0v-8.4l-7.3-11.6h4.7l4.7 7.9 4.6-7.9h4.7l-7.4 11.6v8.4h-4z"/><path d="M35.4 26.538c3.1 3.1 4.1 7.5 2.9 11.5l16.5 16.5.4 7.4-9.3-.8v-4.7h-4.7v-4.7h-4.7l-6-6c-3.9 1.2-8.4.2-11.5-2.9-4.5-4.5-4.5-11.8 0-16.3 4.6-4.5 11.9-4.5 16.4 0zm-8.6 3.1a3.32 3.32 0 00-4.7 0 3.32 3.32 0 000 4.7c1.3 1.3 3.4 1.3 4.7 0 1.3-1.3 1.3-3.4 0-4.7z" opacity=".9"/></svg>