<svg xmlns="http://www.w3.org/2000/svg" viewBox="0 0 72 100"><style/><path d="M44.8 1l27 26.7V99h-72V1h45z"/><path fill-opacity="0" stroke-width="2" d="M44.8 1l27 26.7V99h-72V1h45z"/><path d="M5.8 92.1V72.2h4V81l8.2-8.8h5.4L16 80l8 12.1h-5.2l-5.5-9.3-3.3 3.3v6H5.8zm20.2 0V72.2h6l3.6 13.5 3.6-13.5h6.1V92h-3.8V76.4l-4 15.6h-3.9l-4-15.6V92H26zm23.4 0V72.2h4V81l8.2-8.8H67L59.5 80l8 12.1h-5.2l-5.5-9.3-3.3 3.3v6h-4.1zM45.2 1l27 26.7h-27V1z"/><path fill-opacity="0" stroke-linejoin="bevel" stroke-width="2" d="M45.2 1l27 26.7h-27V1z"/><path d="M61.2 53.4c0-2-1.6-3.6-3.6-3.6H13.8c-2 0-3.6 1.6-3.6 3.6v5c0 2 1.6 3.6 3.6 3.6h43.8c2 0 3.6-1.6 3.6-3.6v-5zm-18.8 4.5c-1.1 0-2-.9-2-2s.9-2 2-2 2 .9 2 2-.9 2-2 2zm6.1 0c-1.1 0-2-.9-2-2s.9-2 2-2 2 .9 2 2-.9 2-2 2zm6.1 0c-1.1 0-2-.9-2-2s.9-2 2-2 2 .9 2 2-.9 2-2 2zM13.8 47.7h43.8c1 0 1.9.3 2.7.7l-4.2-8.9C55 36.9 53 35.9 51 35.9h-4.8l-6.9 7c-.5.5-1 .9-1.7 1.2-.6.3-1.3.4-2 .4s-1.4-.1-2-.4h-.2c-.5-.3-1-.6-1.5-1l-6.9-7h-4.8c-2 0-3.8 1.1-5.1 3.6l-4.2 8.9c1-.6 1.9-.9 2.9-.9z"/><path d="M45.9 32.6c.2-.2.4-.5.6-.9.1-.3.2-.7.2-1 0-.4-.1-.7-.2-1-.1-.3-.3-.6-.6-.8-.3-.3-.5-.5-.9-.6-.3-.1-.6-.2-1-.2s-.7.1-1 .2l-.9.6-3.9 4V20.5c0-.4-.1-.7-.2-1-.1-.3-.3-.6-.6-.9-.2-.3-.5-.5-.9-.6-.3-.1-.6-.2-1-.2s-.7.1-1 .2l-.9.6c-.2.3-.4.5-.6.9-.1.3-.2.7-.2 1v12.3l-3.9-4c-.2-.2-.5-.4-.9-.6-.3-.1-.6-.2-1-.2s-.7.1-1 .2c-.3.1-.6.3-.9.6-.2.2-.4.5-.6.8-.1.3-.2.7-.2 1 0 .4.1.7.2 1 .1.3.3.6.6.9l8.4 8.6c.2.2.5.4.9.6.3.1.6.2 1 .2s.7-.1 1-.2c.3-.1.6-.3.9-.6l8.6-8.5z"/></svg>