<svg xmlns="http://www.w3.org/2000/svg" viewBox="0 0 72 100"><path d="M45.3 1l27.1 26.7V99H.1V1h45.2z"/><path fill-opacity="0" stroke-width="2" d="M45.3 1l27.1 26.7V99H.1V1h45.2z"/><path d="M16.5 91.6V76.1h3.2V89h7.9v2.6H16.5zm13.4 0V76h11.7v2.6h-8.5v3.5H41v2.6h-7.9V89h8.8v2.6h-12zm13.1 0l5.4-8.1-4.9-7.5h3.7l3.2 5 3.1-5h3.7l-4.9 7.6 5.4 8h-3.8l-3.5-5.4-3.5 5.4H43zM45.3 1l27.1 26.7H45.3V1z"/><path fill-opacity="0" stroke-linejoin="round" stroke-width="2" d="M45.3 1l27.1 26.7H45.3V1z"/><path stroke-miterlimit="10" stroke-width=".75" d="M34.9 48.6c-3.5-3.4-6.6-6.5-8.4-13.4h12.3V30H26.6v-6.9h-5.3v7H9v5.2h12.6s-.1 1-.3 1.8C19.6 43.9 17.5 48.3 9 52.5l1.8 5.2c8-4.3 12.2-9.6 14.1-15.6 1.8 4.5 4.8 8.2 8.2 11.6l1.8-5.1zm16.3-16.9h-7L31.8 66.4h5.3L40.6 56h14.1l3.5 10.4h5.3L51.2 31.7zm-8.8 19.1L47.7 37 53 50.9l-10.6-.1z"/></svg>