<svg xmlns="http://www.w3.org/2000/svg" viewBox="0 0 72 100"><path d="M45 1l27 26.7V99H0V1h45z"/><path fill-opacity="0" stroke-width="2" d="M45 1l27 26.7V99H0V1h45z"/><path d="M35.5 64C26.4 64 19 56.6 19 47.5S26.4 30.8 35.9 31c8.9.2 16.1 7.4 16.1 16.5S44.7 64 35.5 64zm6.9-28.3c-2.7 0-4.9 2.3-4.9 4.9 0 2.7 2.1 4.9 4.9 4.9 2.7 0 4.9-2.1 4.9-4.9 0-2.6-2.1-4.9-4.9-4.9zm9.7 0c-2.7 0-4.9-2.1-4.7-4.9 0-2.7 2.1-4.7 4.9-4.7 2.7 0 4.7 2.3 4.7 4.9s-2.3 4.7-4.9 4.7z" opacity=".9"/><path d="M45 1l27 26.7H45V1z"/><path fill-opacity="0" stroke-linejoin="bevel" stroke-width="2" d="M45 1l27 26.7H45V1z"/><path d="M10.5 91.9V72h4v16.5h10.1v3.4H10.5zm17-20.1h4v10.9c0 1.7 0 2.8.2 3.3.2.8.6 1.5 1.2 2 .7.5 1.5.7 2.7.7 1.1 0 2-.2 2.6-.7s.9-1 1.1-1.7c.1-.7.2-1.8.2-3.4V71.8h4v10.5c0 2.4-.1 4.1-.3 5.1s-.6 1.8-1.2 2.5-1.4 1.2-2.4 1.6-2.3.6-3.9.6c-1.9 0-3.4-.2-4.4-.7-1-.4-1.8-1-2.3-1.7s-1-1.4-1.1-2.2c-.3-1.1-.4-2.8-.4-5.1V71.8zm38.3 20.1h-4.4l-1.8-4.6h-8L50 91.9h-4.3l7.8-20h4.3l8 20zM58.4 84l-2.8-7.4-2.7 7.4h5.5z"/></svg>