<svg xmlns="http://www.w3.org/2000/svg" viewBox="0 0 72 100"><style/><path d="M45.2.9l27.1 26.8v71.4H0V.9h45.2z"/><path fill-opacity="0" stroke-width="2" d="M45.2.9l27.1 26.8v71.4H0V.9h45.2z"/><path d="M8.6 91.2V71.3h6.1l3.6 13.6L22 71.3h6.1v19.9h-3.8V75.5l-4 15.7h-3.9l-4-15.7v15.7H8.6zm30.2 0v-4h-8.2v-3.3l8.7-12.6h3.2v12.6H45v3.4h-2.5v4h-3.7zm0-7.4V77l-4.6 6.8h4.6zm8.9 7.4V71.3h8.5c2.2 0 3.7.2 4.7.5 1 .4 1.8 1 2.3 1.9.6.9.9 2 .9 3.1 0 1.5-.4 2.7-1.3 3.7s-2.2 1.6-4 1.8c.9.5 1.6 1.1 2.2 1.7.6.6 1.3 1.7 2.3 3.2l2.5 3.9H61l-3-4.3c-1-1.5-1.8-2.5-2.1-2.9s-.8-.7-1.2-.8c-.4-.1-1.1-.2-2-.2h-.8v8.3h-4.2zm4.1-11.5h3c1.9 0 3.2-.1 3.6-.2s.9-.4 1.1-.8c.3-.4.4-.9.4-1.5 0-.7-.2-1.2-.5-1.6-.4-.4-.9-.7-1.5-.8-.3 0-1.3-.1-3-.1h-3.2v5zM17.3 32c-.7 1.6.7 6.6.7 6.6 2.5 7.1 8.5 13.1 8.5 13.1 5.8 6.1 11.7 9.8 16.9 11 5.2 1.2 6.2-.9 6.2-.9s4.3-4.2 5.5-5.6c1.2-1.5-.3-2.4-.3-2.4s-7.5-4.5-8.7-5c-1.2-.5-1.9.3-2.7 1-.8.7-2.3 2.1-2.3 2.1-.9.1-2.5-.6-5.2-2.7s-5.8-6.1-6.7-7.5c-.9-1.3-.9-2.8-.9-2.8s1.1-.9 2.2-2.1c1.1-1.2.8-2.3.8-2.3l-3.4-6.3c-2.1-4.4-2.6-3.5-2.6-3.5-1.4.5-2.6 1.6-3.4 2.4-.8.7-3.8 3.3-4.6 4.9zM47 41.4c.9 0 1.7-.7 1.7-1.7 0-4.9-4-9-9-9-.9 0-1.7.7-1.7 1.7 0 .9.7 1.7 1.7 1.7 3.1 0 5.6 2.5 5.6 5.6 0 .9.8 1.7 1.7 1.7z"/><path d="M40.4 25.5c-.9 0-1.7.7-1.7 1.7 0 .9.7 1.7 1.7 1.7 5.6 0 10.1 4.5 10.1 10.1 0 .9.7 1.7 1.7 1.7s1.7-.7 1.7-1.7c0-7.4-6.1-13.5-13.5-13.5zm-2.2 9.8c-.9 0-1.7.7-1.7 1.7s.7 1.7 1.7 1.7c1.4 0 2.6 1.2 2.6 2.6 0 .9.7 1.7 1.7 1.7.9 0 1.7-.7 1.7-1.7-.1-3.3-2.8-6-6-6z"/><path d="M45.2.9l27.1 26.8H45.2V.9z"/><path fill-opacity="0" stroke-linejoin="bevel" stroke-width="2" d="M45.2.9l27.1 26.8H45.2V.9z"/></svg>