<svg xmlns="http://www.w3.org/2000/svg" viewBox="0 0 72 100"><path d="M45 .8l27 26.7v71.3H0V.8h45z"/><path fill-opacity="0" stroke-width="2" d="M45 .8l27 26.7v71.3H0V.8h45z"/><path d="M8.3 89.8v-20h6.1l3.7 13.7 3.6-13.7h6.1v20H24V74l-4 15.8h-3.9l-4-15.8v15.8H8.3zm23.6-20h7.5c1.7 0 3 .1 3.9.4 1.2.3 2.2 1 3.1 1.8s1.5 2 1.9 3.2c.4 1.3.7 2.9.7 4.7 0 1.6-.2 3.1-.6 4.3-.5 1.5-1.2 2.6-2.2 3.5-.7.7-1.7 1.2-2.9 1.6-.9.3-2.1.4-3.6.4H32V69.8zm4.1 3.4v13.3h3c1.1 0 2-.1 2.5-.2.7-.2 1.2-.4 1.7-.8s.8-1 1.1-1.9.4-2.1.4-3.7-.1-2.7-.4-3.6-.7-1.5-1.2-1.9c-.5-.5-1.1-.8-1.9-.9-.6-.1-1.7-.2-3.4-.2H36zm16.4 16.6v-20h13.9v3.4h-9.8v4.7H65v3.4h-8.5v8.5h-4.1zM28.2 44.6c-1.4 1-2.7 2.1-4 3.1-2.7 2-5.3 4.1-8 6.1-.4.3-.6.3-1 .1-.5-.3-1.1-.6-1.7-.9-.3-.2-.4-.4-.4-.7V31.1c0-.2.2-.6.4-.7.6-.4 1.3-.7 1.9-1 .3-.2.6 0 .9.2 2.2 1.7 4.4 3.4 6.6 5 1.8 1.4 3.6 2.8 5.4 4.1.1-.1.3-.2.4-.3 6.6-6.4 13.2-12.8 19.7-19.2.3-.3.6-.4 1-.2 2.8 1.1 5.6 2.2 8.4 3.4.2.1.4.4.5.6.1.1 0 .3 0 .5V60c0 .9 0 .9-.9 1.2-2.7 1.1-5.3 2.1-7.9 3.2-.5.2-.8.1-1.1-.2-6.5-6.4-13-12.7-19.6-19l-.6-.6zm19 5.8V33c-3.9 2.9-7.7 5.8-11.6 8.7 3.9 2.9 7.7 5.8 11.6 8.7zm-24.3-8.7c-1.9-1.7-3.8-3.4-5.8-5.2v10.4c1.9-1.7 3.8-3.5 5.8-5.2z"/><path d="M45 .8l27 26.7H45V.8z"/><path fill-opacity="0" stroke-linejoin="bevel" stroke-width="2" d="M45 .8l27 26.7H45V.8z"/></svg>