<svg xmlns="http://www.w3.org/2000/svg" viewBox="0 0 72 100"><path d="M45.1 1L72 27.7V99H.2V1h44.9z"/><path fill-opacity="0" stroke-width="2" d="M45.1 1L72 27.7V99H.2V1h44.9z"/><path d="M38.7 45.4l3.2.9 1.9-7-3.2-.9c0-1.1-.1-2.3-.4-3.4l2.9-1.7-3.7-6.3-2.9 1.7c-.8-.8-1.7-1.5-2.7-2.1l.9-3.2-7-1.9-.9 3.2c-1.1 0-2.3.1-3.4.4l-1.7-2.9-6.3 3.6 1.7 2.9c-.8.8-1.5 1.7-2.1 2.7l-3.2-.9-1.9 7 3.2.9c0 1.1.1 2.3.4 3.4l-2.9 1.7 3.6 6.3 2.9-1.7c.8.8 1.7 1.5 2.7 2.1l-.9 3.2 7 1.9.9-3.2c1.1 0 2.3-.2 3.4-.4l1.7 2.9 6.3-3.6-1.7-2.9c.9-.8 1.6-1.7 2.2-2.7zm-17.4-3.7c-1.8-3.1-.7-7.1 2.4-8.8 3.1-1.8 7.1-.7 8.8 2.4 1.8 3.1.7 7.1-2.4 8.8-3.1 1.7-7.1.7-8.8-2.4zM55.4 64l4.1-2.4-1.1-1.9c.5-.5 1-1.1 1.4-1.8l2.1.6 1.2-4.6-2.1-.5c0-.7-.1-1.5-.3-2.2l1.9-1.1-2.4-4.1-1.9 1c-.5-.5-1.1-1-1.8-1.4l.6-2.1-4.6-1.2-.6 2.1c-.7 0-1.5.1-2.2.3l-1.1-1.9-4.1 2.4 1.1 1.9c-.5.5-1 1.1-1.4 1.8l-2.1-.6-1.2 4.6 2.1.6c0 .7.1 1.5.3 2.2l-1.9 1.1 2.4 4.1 1.9-1.1c.5.5 1.1 1 1.8 1.4l-.6 2.1 4.6 1.2.6-2.1c.7 0 1.5-.1 2.2-.3l1.1 1.9zm-7.1-8.5c-1.2-2-.5-4.6 1.6-5.8 2-1.2 4.6-.5 5.8 1.5 1.2 2 .5 4.6-1.5 5.8-2.1 1.2-4.7.6-5.9-1.5zm-32 35.6V71.2h6l3.6 13.5 3.6-13.5h6V91h-3.7V75.4l-4 15.6H24l-4-15.6V91h-3.7zm23.3 0V71.2h4V80l8.1-8.8h5.4L49.7 79l7.9 12.1h-5.2l-5.5-9.3-3.3 3.3v6h-4zM45.1 1L72 27.7H45.1V1z"/><path fill-opacity="0" stroke-linejoin="bevel" stroke-width="2" d="M45.1 1L72 27.7H45.1V1z"/></svg>