<svg xmlns="http://www.w3.org/2000/svg" viewBox="0 0 72 100"><path d="M45 1l27 26.7V99H0V1h45z"/><path fill-opacity="0" stroke-width="2" d="M45 1l27 26.7V99H0V1h45z"/><path stroke-miterlimit="10" stroke-width="1.5" d="M30 21.038c-.1 0-.2 0-.3.1l-16.7 7.6c-.5.2-.7 1-.3 1.5l5.2 6.1-5.2 6c-.3.4-.2 1.2.3 1.5l5.2 2.4v10.1c0 .4.2.7.6.9l17.1 7.6c.2.1.5.1.8 0l17.2-7.6c.3-.1.6-.5.6-.9v-10.1l5.2-2.4c.5-.2.7-1 .3-1.5l-5.2-6 5.2-6.1c.4-.4.2-1.2-.3-1.5l-16.7-7.6c-.1-.1-.3-.1-.5-.1s-.5.1-.6.3l-5.5 5.9-5.5-5.9c-.3-.2-.6-.4-.9-.3zm-.2 2.1l4.8 5.2-15.3 6.8-4.4-5.2 14.9-6.8zm12.9 0l14.9 6.8-4.4 5.2-15.3-6.8 4.8-5.2zm-6.4 6.5l14.8 6.6-14.8 6.6-14.8-6.6 14.8-6.6zm-16.9 7.8l15.3 6.8-4.8 5.2-14.9-6.8 4.4-5.2zm33.8 0l4.4 5.2-14.9 6.8-4.8-5.2 15.3-6.8zm-17.9 8.9v16.1l-15.3-6.8v-8.6l9.6 4.4c.4.2.8.1 1.1-.2l4.6-4.9zm1.9 0l4.5 4.9c.3.3.7.4 1.1.2l9.6-4.4v8.6l-15.3 6.8v-16.1z" opacity=".9"/><path d="M45 1l27 26.7H45V1z"/><path fill-opacity="0" stroke-linejoin="bevel" stroke-width="2" d="M45 1l27 26.7H45V1z"/><path d="M8 91.5V72.2h5.9l3.5 13.2 3.5-13.2h5.9v19.3h-3.7V76.3l-3.9 15.2h-3.8l-3.9-15.2v15.2H8zm21.8-6.2l3.8-.4c.2 1.3.7 2.2 1.4 2.8.7.6 1.7.9 2.9.9 1.3 0 2.2-.3 2.9-.8.6-.5 1-1.2 1-1.9 0-.5-.1-.8-.4-1.2-.3-.3-.7-.6-1.4-.8-.5-.2-1.5-.4-3.2-.8-2.1-.5-3.6-1.2-4.4-1.9-1.2-1.1-1.8-2.4-1.8-3.9 0-1 .3-1.9.8-2.8.6-.9 1.4-1.5 2.4-2s2.3-.7 3.8-.7c2.5 0 4.3.5 5.5 1.6 1.2 1.1 1.9 2.5 2 4.3l-3.9.2c-.2-1-.5-1.7-1.1-2.1-.6-.4-1.4-.7-2.5-.7s-2 .2-2.7.7c-.4.3-.6.7-.6 1.2s.2.8.6 1.2c.5.4 1.7.8 3.6 1.3 1.9.4 3.3.9 4.3 1.4.9.5 1.6 1.1 2.2 2 .5.8.8 1.9.8 3.1 0 1.1-.3 2.1-.9 3.1-.6 1-1.5 1.7-2.6 2.2-1.1.5-2.6.7-4.2.7-2.5 0-4.4-.6-5.7-1.7-1.6-1.2-2.4-2.9-2.6-5zm19.1-13.1h3.9v10.5c0 1.7 0 2.7.1 3.2.2.8.6 1.4 1.2 1.9s1.5.7 2.6.7 2-.2 2.5-.7c.6-.5.9-1 1-1.7.1-.7.2-1.8.2-3.3V72.2h3.9v10.2c0 2.3-.1 4-.3 4.9-.2 1-.6 1.8-1.2 2.4-.6.7-1.3 1.2-2.3 1.6-1 .4-2.2.6-3.8.6-1.9 0-3.3-.2-4.2-.6-1-.4-1.7-1-2.3-1.7-.6-.7-.9-1.4-1.1-2.1-.3-1.1-.4-2.7-.4-4.9V72.2z"/></svg>