<svg xmlns="http://www.w3.org/2000/svg" viewBox="0 0 72 100"><path d="M45.1 1L72 27.7V99H.2V1h44.9z"/><path fill-opacity="0" stroke-width="2" d="M45.1 1L72 27.7V99H.2V1h44.9z"/><path d="M14.5 91.1V71.2h3.9l8.2 13.2V71.2h3.7V91h-4l-8.1-12.9V91h-3.7zm20 0V71.2h4V91h-4zm5.9 0l6.8-10.4-6.2-9.5h4.7l4 6.4 3.9-6.4h4.7l-6.2 9.6L58.9 91H54l-4.4-6.9-4.4 6.9h-4.8zM13.1 22h41v4h-41v-4zm6 11.7h41v4.1h-41v-4.1zm-6 12h41v4.1h-41v-4.1zm6 12.3h41v4h-41v-4z"/><path d="M45.1 1L72 27.7H45.1V1z"/><path fill-opacity="0" stroke-linejoin="bevel" stroke-width="2" d="M45.1 1L72 27.7H45.1V1z"/></svg>