<svg xmlns="http://www.w3.org/2000/svg" viewBox="0 0 72 100"><style/><path d="M45.2 1l27.1 26.7V99H.1V1h45.1z"/><path fill-opacity="0" stroke-width="2" d="M45.2 1l27.1 26.7V99H.1V1h45.1z"/><path d="M6.6 80.3c0-2 .3-3.7.9-5.1.5-1 1.1-1.9 1.9-2.7.8-.8 1.7-1.4 2.6-1.8 1.3-.5 2.7-.8 4.3-.8 3 0 5.3.9 7.1 2.7 1.8 1.8 2.7 4.3 2.7 7.6 0 3.2-.9 5.7-2.6 7.5s-4.1 2.7-7.1 2.7-5.4-.9-7.1-2.7-2.7-4.3-2.7-7.4zm4.2-.2c0 2.2.5 3.9 1.6 5.1s2.4 1.7 4 1.7 2.9-.6 4-1.7S22 82.3 22 80c0-2.3-.5-4-1.5-5.1-1-1.1-2.4-1.7-4-1.7s-3 .6-4 1.7c-1.2 1.2-1.7 3-1.7 5.2zm18.4-9.9h7.4c1.7 0 3 .1 3.8.4 1.2.3 2.2 1 3 1.8.8.9 1.5 1.9 1.9 3.2s.7 2.8.7 4.7c0 1.6-.2 3-.6 4.2-.5 1.4-1.2 2.6-2.2 3.5-.7.7-1.7 1.2-2.9 1.6-.9.3-2.1.4-3.6.4h-7.6V70.2zm4.1 3.4v13.1h3c1.1 0 2-.1 2.5-.2.7-.2 1.2-.4 1.6-.8.4-.4.8-1 1.1-1.9.3-.9.4-2.1.4-3.6s-.1-2.7-.4-3.5c-.3-.8-.7-1.5-1.2-1.9s-1.1-.8-1.9-.9c-.6-.1-1.7-.2-3.3-.2h-1.8zm16.3-3.4h8c1.6 0 2.8.1 3.6.2.8.1 1.5.4 2.1.8.6.4 1.1 1 1.5 1.7s.6 1.5.6 2.3c0 .9-.3 1.8-.8 2.6s-1.2 1.4-2.1 1.7c1.2.4 2.2 1 2.8 1.8.7.8 1 1.8 1 3 0 .9-.2 1.8-.6 2.6-.4.9-1 1.5-1.7 2s-1.6.8-2.7.9c-.7.2-2.3.2-4.9.3h-6.8V70.2zm4 3.3v4.6h2.7c1.6 0 2.6 0 2.9-.1.7-.1 1.2-.3 1.6-.7.4-.4.6-.9.6-1.5s-.2-1.1-.5-1.5c-.3-.4-.9-.6-1.5-.7-.4 0-1.6-.1-3.5-.1h-2.3zm0 7.9v5.3h3.8c1.5 0 2.4 0 2.8-.1.6-.1 1.1-.4 1.5-.8.4-.4.6-1 .6-1.7 0-.6-.1-1.1-.4-1.5-.3-.4-.7-.7-1.3-.9-.6-.2-1.8-.3-3.6-.3h-3.4zM31.8 32c-.1.1-.1.1 0 0m21.4 16.9c0 2.5-8.1 4.5-18 4.5s-18-2-18-4.5 8.1-4.5 18-4.5 18 2 18 4.5z"/><path d="M48.7 48.6c0 2.2-6 3.9-13.5 3.9s-13.5-1.7-13.5-3.9 6-3.9 13.5-3.9 13.5 1.7 13.5 3.9z"/><path d="M17.2 49.1v11.2s4.5 4.5 18 4.5 18-4.5 18-4.5V49.1s-2.2 3.9-18 4.2c-15.8.3-18-4.2-18-4.2zm36-16c0 2.5-8.1 4.5-18 4.5s-18-2-18-4.5 8.1-4.5 18-4.5 18 2 18 4.5z"/><path d="M48.7 32.8c0 2.2-6 3.9-13.5 3.9S21.7 35 21.7 32.8s6-3.9 13.5-3.9 13.5 1.7 13.5 3.9z"/><path d="M17.2 33.4v11.2s4.5 4.5 18 4.5 18-4.5 18-4.5V33.4s-2.2 3.9-18 4.2c-15.8.3-18-4.2-18-4.2zm36-16c0 2.5-8.1 4.5-18 4.5s-18-2-18-4.5 8.1-4.5 18-4.5 18 2 18 4.5z"/><path d="M48.7 17.1c0 2.2-6 3.9-13.5 3.9s-13.5-1.7-13.5-3.9 6-3.9 13.5-3.9 13.5 1.7 13.5 3.9z"/><path d="M17.2 17.6v11.2s4.5 4.5 18 4.5 18-4.5 18-4.5V17.6s-2.2 3.9-18 4.2c-15.8.3-18-4.2-18-4.2zm22.6 20h1.9c2.8.2 5.1.9 7.3 1.8 4.2-1.9 10.3-.4 14 1-4.8-.5-10.5 0-13.8 1.9-3.3-2.7-9.6-3.4-15.5-2.7 1.7-1.1 3.7-1.7 6.1-2zM38.4 45c-3.4.2-6.2 1.3-8.1 2.9-5.7-2.6-15.5-1.5-19.2 2-.3.2-.7.5-.6.8 3.2-1 7.1-1.8 11.2-1.5 4 .3 7 1.7 9.3 3.5 4.1-3.7 10.2-5.8 17.9-5.7-2.7-1.4-6.6-2.4-10.5-2z"/><path d="M45.2 1l27.1 26.7H45.2V1z"/><path fill-opacity="0" stroke-linejoin="bevel" stroke-width="2" d="M45.2 1l27.1 26.7H45.2V1z"/></svg>