<svg xmlns="http://www.w3.org/2000/svg" viewBox="0 0 72 100"><path d="M45 1l27 26.7V99H0V1h45z"/><path fill-opacity="0" stroke-width="2" d="M45 1l27 26.7V99H0V1h45z"/><path d="M7.5 81.3c0-2 .3-3.7.9-5.1.5-1 1.1-1.9 1.9-2.7.8-.8 1.7-1.4 2.6-1.8 1.2-.5 2.7-.8 4.3-.8 3 0 5.3.9 7.1 2.7 1.8 1.8 2.7 4.3 2.7 7.6 0 3.2-.9 5.7-2.6 7.5-1.8 1.8-4.1 2.7-7.1 2.7s-5.4-.9-7.1-2.7c-1.8-1.8-2.7-4.3-2.7-7.4zm4.2-.2c0 2.2.5 4 1.6 5.1 1 1.2 2.4 1.7 4 1.7s2.9-.6 4-1.7c1-1.2 1.6-2.9 1.6-5.2 0-2.3-.5-4-1.5-5.1-1-1.1-2.3-1.7-4-1.7s-3 .6-4 1.7c-1.2 1.2-1.7 2.9-1.7 5.2zm18.4-9.9h7.4c1.7 0 2.9.1 3.8.4 1.2.3 2.2 1 3 1.8s1.5 1.9 1.9 3.2c.4 1.3.7 2.8.7 4.7 0 1.6-.2 3-.6 4.2-.5 1.4-1.2 2.6-2.1 3.5-.7.7-1.6 1.2-2.8 1.6-.9.3-2.1.4-3.6.4h-7.6V71.2zm4.1 3.4v13.1h3c1.1 0 1.9-.1 2.4-.2.7-.2 1.2-.4 1.6-.8.4-.4.8-1 1.1-1.9s.4-2.1.4-3.6-.1-2.7-.4-3.5c-.3-.8-.7-1.5-1.1-1.9s-1.1-.8-1.9-.9c-.6-.1-1.7-.2-3.3-.2h-1.8zm20.7 16.5V74.6H49v-3.4h15.9v3.4H59v16.5h-4.1zM45 1l27 26.7H45V1z"/><path fill-opacity="0" stroke-linejoin="bevel" stroke-width="2" d="M45 1l27 26.7H45V1z"/><path d="M39.2 34h1.9c2.8.2 5.1.9 7.3 1.8 4.2-1.9 10.3-.4 14 1-4.8-.5-10.5 0-13.8 1.9C45.3 36 39 35.3 33.1 36c1.7-1.1 3.7-1.8 6.1-2zm-1.4 7.3c-3.4.2-6.2 1.3-8.1 2.9-5.7-2.6-15.5-1.5-19.2 2-.3.2-.7.5-.6.8 3.2-1 7.1-1.8 11.2-1.5 4 .3 7 1.7 9.3 3.5 4.1-3.7 10.2-5.8 17.9-5.7-2.7-1.3-6.6-2.3-10.5-2z"/></svg>