<svg xmlns="http://www.w3.org/2000/svg" viewBox="0 0 72 100"><path d="M45 1l27 26.7V99H0V1h45z"/><path fill-opacity="0" stroke-width="2" d="M45 1l27 26.7V99H0V1h45z"/><path d="M8 81.3c0-2 .3-3.7.9-5.1.5-1 1.1-1.9 1.9-2.7.8-.8 1.7-1.4 2.6-1.8 1.2-.5 2.7-.8 4.3-.8 3 0 5.3.9 7.1 2.7 1.8 1.8 2.7 4.3 2.7 7.6 0 3.2-.9 5.7-2.6 7.5-1.8 1.8-4.1 2.7-7.1 2.7s-5.4-.9-7.1-2.7C8.9 86.9 8 84.4 8 81.3zm4.2-.2c0 2.2.5 4 1.6 5.1 1 1.2 2.4 1.7 4 1.7s2.9-.6 4-1.7c1-1.2 1.6-2.9 1.6-5.2 0-2.3-.5-4-1.5-5.1-1-1.1-2.3-1.7-4-1.7s-3 .6-4 1.7c-1.2 1.2-1.7 2.9-1.7 5.2zm17.4 3.5l3.9-.4c.2 1.3.7 2.3 1.4 2.9.7.6 1.7.9 2.9.9 1.3 0 2.3-.3 2.9-.8.7-.5 1-1.2 1-1.9 0-.5-.1-.9-.4-1.2s-.8-.6-1.5-.9c-.5-.2-1.6-.5-3.2-.9-2.2-.5-3.7-1.2-4.6-2-1.2-1.1-1.8-2.4-1.8-4 0-1 .3-2 .9-2.8.6-.9 1.4-1.5 2.5-2s2.4-.7 3.9-.7c2.5 0 4.4.5 5.7 1.6s1.9 2.5 2 4.4l-4 .2c-.2-1-.5-1.8-1.1-2.2s-1.4-.7-2.6-.7c-1.2 0-2.1.2-2.8.7-.4.3-.6.7-.6 1.2s.2.9.6 1.2c.5.4 1.8.9 3.7 1.3s3.4.9 4.4 1.4c.9.5 1.7 1.2 2.2 2s.8 1.9.8 3.2c0 1.1-.3 2.2-1 3.2-.6 1-1.5 1.7-2.7 2.2-1.2.5-2.6.7-4.4.7-2.5 0-4.5-.6-5.8-1.7-1.2-1-2.1-2.7-2.3-4.9zm24.2 6.5V74.6h-5.9v-3.4h15.9v3.4h-5.9v16.5h-4.1zM45 1l27 26.7H45V1z"/><path fill-opacity="0" stroke-linejoin="bevel" stroke-width="2" d="M45 1l27 26.7H45V1z"/><path d="M26.4 38.1c-1.5.2-2.7 1.8-2.7 3.5 0 1.8 1.2 3.4 2.7 3.5 1.5.2 2.7-1.4 2.7-3.5s-1.2-3.7-2.7-3.5z"/><path d="M15.9 27.9v27.7l21.7 3.9V23.7l-21.7 4.2zm10.5 19.4c-2.4-.3-4.3-2.9-4.3-5.7s1.9-5.4 4.3-5.7 4.3 2.3 4.3 5.7c0 3.5-1.9 6-4.3 5.7zm28.2-15.2L42.7 42l-3.2-2.6v-8.2h15.1z"/><path d="M54.6 34l-11.9 9.9-3.2-2.6v11.1h15.1z"/></svg>