<svg xmlns="http://www.w3.org/2000/svg" viewBox="0 0 72 100"><path d="M45.2 1l26.9 26.7V99H.3V1h44.9z"/><path fill-opacity="0" stroke-width="2" d="M45.2 1l26.9 26.7V99H.3V1h44.9z"/><path d="M8.8 91.1V71.2h6.5c2.5 0 4.1.1 4.8.3 1.1.3 2.1.9 2.9 1.9.8 1 1.2 2.3 1.2 3.9 0 1.2-.2 2.2-.7 3.1-.4.8-1 1.5-1.7 2s-1.4.8-2.1.9c-1 .2-2.4.3-4.2.3h-2.6v7.5H8.8zm4-16.5v5.6H15c1.6 0 2.7-.1 3.2-.3.5-.2 1-.5 1.3-1 .3-.4.5-1 .5-1.5 0-.7-.2-1.3-.6-1.8-.4-.5-1-.8-1.6-.9-.5-.1-1.4-.1-2.9-.1h-2.1zm14.6-3.4h4V82c0 1.7 0 2.8.1 3.3.2.8.6 1.5 1.2 2s1.5.7 2.7.7c1.1 0 2-.2 2.6-.7.6-.5.9-1 1-1.7s.2-1.8.2-3.4v-11h4v10.4c0 2.4-.1 4.1-.3 5-.2 1-.6 1.8-1.2 2.5s-1.4 1.2-2.4 1.6-2.3.6-3.8.6c-1.9 0-3.4-.2-4.3-.7s-1.8-1-2.3-1.7-.9-1.4-1.1-2.2c-.3-1.1-.4-2.8-.4-5V71.2zm20.1 0h8c1.6 0 2.8.1 3.5.2.8.1 1.5.4 2.1.8s1.1 1 1.5 1.7c.4.7.6 1.5.6 2.3 0 .9-.3 1.8-.8 2.6s-1.2 1.4-2 1.7c1.2.4 2.2 1 2.8 1.8.7.8 1 1.8 1 3 0 .9-.2 1.8-.6 2.6-.4.9-1 1.5-1.7 2s-1.6.8-2.7.9c-.7.1-2.3.1-4.9.1h-6.8V71.2zm4.1 3.3v4.6h2.6c1.6 0 2.5 0 2.9-.1.7-.1 1.2-.3 1.6-.7.4-.4.6-.9.6-1.5s-.2-1.1-.5-1.5c-.3-.4-.8-.6-1.5-.7-.4 0-1.5-.1-3.4-.1h-2.3zm0 7.9v5.3h3.7c1.5 0 2.4 0 2.8-.1.6-.1 1.1-.4 1.5-.8.4-.4.6-1 .6-1.7 0-.6-.1-1.1-.4-1.5-.3-.4-.7-.7-1.3-.9-.5-.2-1.7-.3-3.6-.3h-3.3zM31.1 36.2c0-3.2-1.6-4.8-4-4.8-1 0-1.7.1-2.1.3v9.5c.5.2 1.1.3 1.8.3 2.7-.1 4.3-1.9 4.3-5.3z"/><path d="M15 55.3L41.1 62V19.3L15 26v29.3zm7.8-26c1.1-.3 2.5-.5 4.2-.5 2.2 0 3.8.7 4.8 2 .9 1.2 1.5 2.9 1.5 5.1 0 2.2-.5 4-1.3 5.2-1.2 1.8-3.1 2.7-5.2 2.7-.7 0-1.3 0-1.8-.2v9.8h-2.2V29.3zm20.5-4.6v2.6h8.8v7.3h-8.8v2.8h8.8v3.2h-8.8v2.6h8.8v3.3h-8.8v2.9h8.8v3.3h-8.8v5.5h14.9V24.7z"/><g opacity=".99"><path d="M45.2 1l26.9 26.7H45.2V1z"/><path fill-opacity="0" stroke-linejoin="bevel" stroke-width="2" d="M45.2 1l26.9 26.7H45.2V1z"/></g></svg>