<svg xmlns="http://www.w3.org/2000/svg" viewBox="0 0 72 100"><style/><path d="M45.2.9l27.1 26.8v71.4H0V.9h45.2z"/><path fill-opacity="0" stroke-width="2" d="M45.2.9l27.1 26.8v71.4H0V.9h45.2z"/><path d="M6.4 91.2V71.3h8.5c2.1 0 3.7.2 4.7.5 1 .4 1.8 1 2.3 1.9.6.9.9 2 .9 3.1 0 1.5-.4 2.7-1.3 3.7s-2.2 1.6-4 1.8c.9.5 1.6 1.1 2.2 1.7.6.6 1.3 1.7 2.3 3.2l2.5 3.9h-4.9l-2.9-4.3c-1-1.5-1.8-2.5-2.1-2.9-.4-.4-.8-.7-1.2-.8-.4-.1-1.1-.2-2-.2h-.8v8.3H6.4zm4-11.5h3c1.9 0 3.2-.1 3.6-.2.5-.2.9-.4 1.1-.8.3-.4.4-.9.4-1.5 0-.7-.2-1.2-.5-1.6-.4-.4-.9-.7-1.5-.8-.3 0-1.3-.1-3-.1h-3.2v5zm34.4 11.5h-4.4l-1.8-4.5h-8l-1.7 4.5h-4.3l7.8-19.9h4.3l8.1 19.9zm-7.5-7.9l-2.8-7.4-2.7 7.4h5.5zm9.6 7.9V71.3H53l3.7 13.6 3.6-13.6h6.1v19.9h-3.8V75.5l-4 15.7h-3.9l-4-15.7v15.7h-3.8z"/><path stroke-miterlimit="10" stroke-width="1.5" d="M22.3 54.7l-8.7-9.6V45l8.7-9.6V29L10.8 42.5v5.1l11.5 13.5zM51.5 29v6.4l8.9 9.6v.1l-8.9 9.6v6.4L63 47.8v-5.5z"/><path stroke-miterlimit="10" d="M42.8 33.9c-1.5-.7-3.4-1.8-4.1-3.4 0-.8-.7-1.5-1.5-1.5s-1.5.7-1.5 1.5v19.6c-1.5-.8-4.4-.6-6.7.7-3.4 1.9-4.9 5.5-3.4 8.1 1.5 2.5 5.6 3 9 1.1 2.4-1.3 4-3.6 4.1-5.8V37.3c5 0 7.9 2 6.8 6.8-.2.9-.5 1.8-.9 2.6-.2.3-.2.6.1.9.2.2.7.2 1.1-.2 1.9-1.8 3-4.2 3.1-6.8.1-3.3-3.2-5.4-6.1-6.7z"/><path d="M45.2.9l27.1 26.8H45.2V.9z"/><path fill-opacity="0" stroke-linejoin="bevel" stroke-width="2" d="M45.2.9l27.1 26.8H45.2V.9z"/></svg>