<svg xmlns="http://www.w3.org/2000/svg" viewBox="0 0 72 100"><path d="M45 1l27 26.7V99H0V1h45z"/><path fill-opacity="0" stroke-width="2" d="M45 1l27 26.7V99H0V1h45z"/><path d="M11.6 91.1V71.3h8.5c2.1 0 3.7.2 4.7.5 1 .4 1.7 1 2.3 1.9.6.9.9 2 .9 3.1 0 1.5-.4 2.7-1.3 3.7s-2.2 1.6-4 1.8c.9.5 1.6 1.1 2.2 1.7.6.6 1.3 1.7 2.3 3.2l2.4 3.9h-4.8l-2.9-4.3c-1-1.5-1.8-2.5-2.1-2.9s-.8-.7-1.2-.8c-.4-.1-1.1-.2-2-.2h-.8v8.3h-4.2zm4-11.4h3c1.9 0 3.2-.1 3.6-.2.5-.2.9-.4 1.1-.8.3-.4.4-.9.4-1.5 0-.7-.2-1.2-.5-1.6-.4-.4-.9-.7-1.5-.8-.3 0-1.3-.1-3-.1h-3.2v5zm20.7 11.4V74.6h-5.9v-3.4h15.9v3.4h-5.9v16.5h-4.1zm12.6 0V71.3h13.7v3.4H53v4.7h8.4v3.4H53v8.4h-4.1zM11.8 33.7h48.6v4.1H11.8v-4.1zm0 24.1h48.6v4.1H11.8v-4.1zm0-11.8h48.6v4.1H11.8V46zm0-24.4h48.6v4.1H11.8v-4.1z"/><path d="M45 1l27 26.7H45V1z"/><path fill-opacity="0" stroke-linejoin="bevel" stroke-width="2" d="M45 1l27 26.7H45V1z"/></svg>