<svg xmlns="http://www.w3.org/2000/svg" viewBox="0 0 72 100"><style/><path d="M44.9.9l26.8 26.8v71.5H.2V.9h44.7z"/><path fill-opacity="0" stroke-width="2" d="M44.9.9l26.8 26.8v71.5H.2V.9h44.7z"/><path d="M15.5 85.7l3.9-.4c.2 1.3.7 2.3 1.4 2.9s1.7.9 2.9.9c1.3 0 2.3-.3 2.9-.8.7-.5 1-1.2 1-1.9 0-.5-.1-.9-.4-1.2s-.8-.6-1.4-.9c-.5-.2-1.5-.5-3.2-.9-2.2-.5-3.7-1.2-4.5-2-1.2-1.1-1.8-2.4-1.8-4 0-1 .3-2 .9-2.8s1.4-1.6 2.5-2c1.1-.5 2.4-.7 3.9-.7 2.5 0 4.4.5 5.6 1.6 1.3 1.1 1.9 2.6 2 4.4l-4 .2c-.2-1-.5-1.8-1.1-2.2-.6-.4-1.4-.7-2.5-.7-1.2 0-2.1.2-2.7.7-.4.3-.6.7-.6 1.2s.2.9.6 1.2c.5.4 1.7.9 3.7 1.3 2 .5 3.4.9 4.3 1.4.9.5 1.7 1.2 2.2 2 .5.9.8 1.9.8 3.2 0 1.1-.3 2.2-1 3.2-.6 1-1.5 1.7-2.7 2.2-1.2.5-2.6.7-4.3.7-2.5 0-4.4-.6-5.8-1.7s-2.4-2.7-2.6-4.9zm19.4 6.5V72.3h4v19.9h-4zm12.3 0V75.6h-5.9v-3.4h15.8v3.4h-5.9v16.5h-4zM44.9.9l26.8 26.8H44.9V.9z"/><path fill-opacity="0" stroke-linejoin="bevel" stroke-width="2" d="M44.9.9l26.8 26.8H44.9V.9z"/><path d="M38 15.8h-8.4v-5H38v5zm0 8.9h-8.4v5H38v-5zm0-20.8h-8.4v5H38v-5zm0 13.8h-8.4v5H38v-5zm0 13.9h-8.4v5H38v-5zm.7 24.6c0 2.8-2.3 5.1-5.1 5.1s-5.1-2.3-5.1-5.1v-.5l1.7-14.6c0-1.9 1.5-3.4 3.4-3.4 1.8 0 3.3 1.5 3.4 3.3l1.6 14.4c.1.4.1.6.1.8zm-1.6-.1c0-1.9-1.6-3.5-3.5-3.5s-3.5 1.6-3.5 3.5 1.6 3.5 3.5 3.5c2-.1 3.5-1.7 3.5-3.5z" opacity=".98"/><path d="M32.5 41.6l-2.3-4.5v-2.3l2.3-2.2h2.2l2.3 2.2v2.3l-2.3 4.5h-2.2z" opacity=".98"/></svg>