<svg xmlns="http://www.w3.org/2000/svg" viewBox="0 0 72 100"><path d="M45.1 1L72 27.7V99H.2V1h44.9z"/><path fill-opacity="0" stroke-width="2" d="M45.1 1L72 27.7V99H.2V1h44.9z"/><path d="M15.1 91.1V74.6H9.2v-3.4h15.9v3.4h-5.9v16.5h-4.1zm12.6 0V71.2h14.8v3.4H31.7V79h10v3.3h-10v5.4h11.2V91H27.7zm16.5 0L51 80.7l-6.2-9.5h4.7l4 6.4 3.9-6.4h4.7L56 80.9l6.8 10.2H58l-4.4-6.9-4.4 6.9h-5zM12.4 33.7H61v4.1H12.4v-4.1zm0 24.1H61v4.1H12.4v-4.1zm0-11.8H61v4.1H12.4V46zm0-24.4H61v4.1H12.4v-4.1z"/><path d="M45.1 1L72 27.7H45.1V1z"/><path fill-opacity="0" stroke-linejoin="bevel" stroke-width="2" d="M45.1 1L72 27.7H45.1V1z"/></svg>