<svg xmlns="http://www.w3.org/2000/svg" viewBox="0 0 72 100"><style/><path d="M45.2 1l26.9 26.7V99H.3V1h44.9z"/><path fill-opacity="0" stroke-width="2" d="M45.2 1l26.9 26.7V99H.3V1h44.9z"/><path d="M21.8 91.1V74.6h-5.9v-3.4h15.9v3.4h-5.9v16.5h-4.1zm12.4 0V71.2h4V91h-4zm7.9 0V71.2h13.7v3.4h-9.7v4.7h8.3v3.4h-8.3v8.4h-4zM45.2 1l26.9 26.7H45.2V1z"/><path fill-opacity="0" stroke-linejoin="bevel" stroke-width="2" d="M45.2 1l26.9 26.7H45.2V1z"/><path d="M62.7 56.8c-1.6-.8-4.6-6.6-9.2-7-4-.3-9.1-1.8-11.9-2-3.5-5.8-9.5-15-14.5-19.9l13.8.7C37.2 19.8 27.7 23 27.7 23l6.4-5.3c-8.2-3.3-11.6 4.7-11.6 4.7-8.5-4.7-12.9 3.3-12.9 3.3l8.8.6C8.4 29.1 11.2 39 11.2 39l8.9-8c-1.9 4.4 2.3 7.5 2.3 7.5L25 27.7s9.3 10.6 12.2 21.4c-3.7 1.9-9.5 5-14 5.6-6.2.8-13.5 5-13.5 5v4.9h53.1l-.1-7.8z" opacity=".99"/></svg>