<svg xmlns="http://www.w3.org/2000/svg" viewBox="0 0 72 100"><path d="M45 1l27 26.7V99H0V1h45z"/><path fill-opacity="0" stroke-width="2" d="M45 1l27 26.7V99H0V1h45z"/><path d="M16.1 91.1V74.6h-5.9v-3.4h15.9v3.4h-5.9v16.5h-4.1zm10.5 0l6.8-10.4-6.2-9.5H32l4 6.4 3.9-6.4h4.7l-6.2 9.6L45.2 91h-4.9l-4.4-6.9-4.5 6.9h-4.8zm25.3 0V74.6H46v-3.4h15.9v3.4H56v16.5h-4.1zM11.8 33.7h48.6v4.1H11.8v-4.1zm0 24.1h48.6v4.1H11.8v-4.1zm0-11.8h48.6v4.1H11.8V46zm0-24.4h48.6v4.1H11.8v-4.1z"/><path d="M45 1l27 26.7H45V1z"/><path fill-opacity="0" stroke-linejoin="bevel" stroke-width="2" d="M45 1l27 26.7H45V1z"/></svg>