<svg xmlns="http://www.w3.org/2000/svg" viewBox="0 0 72 100"><style/><path d="M44.8 1l27 26.7V99h-72V1h45z"/><path fill-opacity="0" stroke-width="2" d="M44.8 1l27 26.7V99h-72V1h45z"/><path d="M8.6 90.1L2.9 74.3h3.5l4 11.7 3.9-11.7h3.4L12 90.1H8.6zm10.7 0V74.3h4.8L27 85.1l2.9-10.7h4.8v15.7h-3V77.7l-3.2 12.4h-3.1l-3.1-12.4v12.4h-3zm18.6-15.8h5.9c1.3 0 2.3.1 3 .3.9.3 1.7.8 2.4 1.5s1.2 1.5 1.5 2.6c.3 1 .5 2.2.5 3.7 0 1.3-.2 2.4-.5 3.4-.4 1.1-1 2.1-1.7 2.8-.6.5-1.3 1-2.3 1.3-.7.2-1.7.3-2.8.3h-6V74.3zm3.2 2.7v10.4h2.4c.9 0 1.5 0 1.9-.2.5-.1 1-.3 1.3-.7s.6-.8.8-1.5c.2-.7.3-1.7.3-2.9s-.1-2.2-.3-2.8c-.2-.7-.5-1.2-.9-1.5s-.9-.6-1.5-.7c-.4-.1-1.3-.1-2.6-.1h-1.4zM54 90.1V74.3h3.2v7l6.5-7H68l-6 6.1 6.3 9.6h-4.2l-4.4-7.4-2.6 2.6V90H54zM45.2 1l27 26.7h-27V1z"/><path fill-opacity="0" stroke-linejoin="bevel" stroke-width="2" d="M45.2 1l27 26.7h-27V1z"/><path d="M61.2 53.4c0-2-1.6-3.6-3.6-3.6H13.8c-2 0-3.6 1.6-3.6 3.6v5c0 2 1.6 3.6 3.6 3.6h43.8c2 0 3.6-1.6 3.6-3.6v-5zm-18.8 4.5c-1.1 0-2-.9-2-2s.9-2 2-2 2 .9 2 2-.9 2-2 2zm6.1 0c-1.1 0-2-.9-2-2s.9-2 2-2 2 .9 2 2-.9 2-2 2zm6.1 0c-1.1 0-2-.9-2-2s.9-2 2-2 2 .9 2 2-.9 2-2 2zM13.8 47.7h43.8c1 0 1.9.3 2.7.7l-4.2-8.9C55 36.9 53 35.9 51 35.9h-4.8l-6.9 7c-.5.5-1 .9-1.7 1.2-.6.3-1.3.4-2 .4s-1.4-.1-2-.4h-.2c-.5-.3-1-.6-1.5-1l-6.9-7h-4.8c-2 0-3.8 1.1-5.1 3.6l-4.2 8.9c1-.6 1.9-.9 2.9-.9z"/><path d="M45.9 32.6c.2-.2.4-.5.6-.9.1-.3.2-.7.2-1 0-.4-.1-.7-.2-1-.1-.3-.3-.6-.6-.8-.3-.3-.5-.5-.9-.6-.3-.1-.6-.2-1-.2s-.7.1-1 .2l-.9.6-3.9 4V20.5c0-.4-.1-.7-.2-1-.1-.3-.3-.6-.6-.9-.2-.3-.5-.5-.9-.6-.3-.1-.6-.2-1-.2s-.7.1-1 .2l-.9.6c-.2.3-.4.5-.6.9-.1.3-.2.7-.2 1v12.3l-3.9-4c-.2-.2-.5-.4-.9-.6-.3-.1-.6-.2-1-.2s-.7.1-1 .2c-.3.1-.6.3-.9.6-.2.2-.4.5-.6.8-.1.3-.2.7-.2 1 0 .4.1.7.2 1 .1.3.3.6.6.9l8.4 8.6c.2.2.5.4.9.6.3.1.6.2 1 .2s.7-.1 1-.2c.3-.1.6-.3.9-.6l8.6-8.5z"/></svg>