<svg xmlns="http://www.w3.org/2000/svg" viewBox="0 0 72 100"><style/><path d="M45.2.9l27.1 26.8v71.4H0V.9h45.2z"/><path fill-opacity="0" stroke-width="2" d="M45.2.9l27.1 26.8v71.4H0V.9h45.2z"/><path d="M13.8 91.2L6.6 71.3H11L16.1 86 21 71.3h4.3l-7.2 19.9h-4.3zm12.8-9.9c0-2 .3-3.7.9-5.1.5-1 1.1-1.9 1.9-2.7s1.7-1.4 2.6-1.8c1.3-.5 2.7-.8 4.3-.8 3 0 5.3.9 7.1 2.7 1.8 1.8 2.7 4.3 2.7 7.6 0 3.2-.9 5.7-2.6 7.5s-4.1 2.7-7.1 2.7-5.4-.9-7.1-2.7c-1.8-1.7-2.7-4.2-2.7-7.4zm4.2-.1c0 2.3.5 4 1.6 5.1 1.1 1.2 2.4 1.7 4 1.7s2.9-.6 4-1.7 1.6-2.9 1.6-5.2c0-2.3-.5-4-1.5-5.1-1-1.1-2.4-1.7-4-1.7s-3 .6-4 1.7-1.7 2.9-1.7 5.2zm16.4 10l6.9-10.4-6.2-9.5h4.7l4 6.4 4-6.4h4.7L59 81l6.9 10.2H61l-4.5-6.9-4.5 6.9h-4.8zM45.2.9l27.1 26.8H45.2V.9z"/><path fill-opacity="0" stroke-linejoin="bevel" stroke-width="2" d="M45.2.9l27.1 26.8H45.2V.9z"/><path d="M33.6 37.8l7.4 4.9V25.5l-7.4 4.9v-2.5c0-1.4-1.1-2.5-2.5-2.5H16.3c-1.4 0-2.5 1.1-2.5 2.5v12.3c0 1.4 1.1 2.5 2.5 2.5h14.8c1.4 0 2.5-1.1 2.5-2.5v-2.4zM45 42.3v7.4c0 2.7 2.2 4.9 4.9 4.9s4.9-2.2 4.9-4.9v-7.4c0-2.7-2.2-4.9-4.9-4.9S45 39.6 45 42.3zm12.3 7.4c0 4.1-3.3 7.4-7.4 7.4s-7.4-3.3-7.4-7.4H40c0 4.6 3.2 8.4 7.4 9.5v5.3h4.9v-5.3c4.3-1.1 7.4-4.9 7.4-9.5h-2.4z" opacity=".9"/></svg>