<svg xmlns="http://www.w3.org/2000/svg" viewBox="0 0 72 100"><path d="M45 1l27 26.7V99H0V1h45z"/><path fill-opacity="0" stroke-width="2" d="M45 1l27 26.7V99H0V1h45z"/><path d="M45 1l27 26.7H45V1z"/><path fill-opacity="0" stroke-linejoin="bevel" stroke-width="2" d="M45 1l27 26.7H45V1z"/><path d="M14.4 91.1L7.2 71.2h4.4l5.1 14.7 4.9-14.7h4.3L18.7 91h-4.3zm12.5-6.5l3.9-.4c.2 1.3.7 2.3 1.4 2.9.8.6 1.8.9 3 .9 1.3 0 2.3-.3 2.9-.8.7-.5 1-1.2 1-1.9 0-.5-.1-.9-.4-1.2-.3-.3-.8-.6-1.5-.9-.5-.2-1.6-.5-3.2-.9-2.2-.5-3.7-1.2-4.6-2-1.2-1.1-1.8-2.4-1.8-4 0-1 .3-2 .9-2.8.6-.9 1.4-1.5 2.5-2s2.4-.7 3.9-.7c2.5 0 4.4.5 5.7 1.6s1.9 2.5 2 4.4l-4 .2c-.2-1-.5-1.8-1.1-2.2-.6-.4-1.4-.7-2.6-.7-1.2 0-2.1.2-2.8.7-.4.3-.6.7-.6 1.2s.2.9.6 1.2c.5.4 1.8.9 3.7 1.3s3.4.9 4.4 1.4c.9.5 1.7 1.2 2.2 2s.8 1.9.8 3.2c0 1.1-.3 2.2-1 3.2-.6 1-1.5 1.7-2.7 2.2s-2.6.7-4.4.7c-2.5 0-4.5-.6-5.8-1.7-1.3-1-2.1-2.7-2.4-4.9zm19.7-13.4H54c1.7 0 2.9.1 3.8.4 1.2.3 2.2 1 3 1.8s1.5 1.9 1.9 3.2c.4 1.3.7 2.8.7 4.7 0 1.6-.2 3-.6 4.2-.5 1.4-1.2 2.6-2.1 3.5-.7.7-1.6 1.2-2.8 1.6-.9.3-2.1.4-3.6.4h-7.6V71.2zm4 3.4v13.1h3c1.1 0 1.9-.1 2.4-.2.7-.2 1.2-.4 1.6-.8.4-.4.8-1 1.1-1.9s.4-2.1.4-3.6-.1-2.7-.4-3.5c-.3-.8-.7-1.5-1.1-1.9s-1.1-.8-1.9-.9c-.6-.1-1.7-.2-3.3-.2h-1.8zM17.1 32.3l21.3-4.1V64l-21.3-3.9z"/><path d="M53.3 60.5H35.2c-.9 0-1.6-.7-1.6-1.6V33.4c0-.9.7-1.6 1.6-1.6h18.1c.9 0 1.6.7 1.6 1.6v25.5c0 .9-.7 1.6-1.6 1.6zM35.2 33.3c-.1 0-.2.1-.2.2V59c0 .1.1.2.2.2h18.1c.1 0 .2-.1.2-.2V33.4c0-.1-.1-.2-.2-.2l-18.1.1z"/><path stroke-miterlimit="10" stroke-width="2" d="M36 49h6v6h-6zm7.01-9.35l3.607-3.607 3.606 3.607-3.606 3.606zm-.01.15h-5m9 3.2v9m-5 0h6"/><path stroke-miterlimit="10" stroke-width=".75" d="M23 41.2h2.1l2.3 6.9c.2.6.4 1.6.4 1.6s.2-.9.4-1.6l2.4-6.9h2.1l-3.9 10.6h-1.9L23 41.2z"/></svg>