<svg xmlns="http://www.w3.org/2000/svg" viewBox="0 0 72 100"><path d="M45 1.1l27 26.7v71.1H0V1.1h45z"/><path fill-opacity="0" stroke-width="2" d="M45 1.1l27 26.7v71.1H0V1.1h45z"/><g opacity=".9"><path d="M36.3 23.7c-2.3 1.6-5 3.5-6.4 6.6-2.5 5.3 5 11.2 5.3 11.4.1.1.2.1.3.1.1 0 .2 0 .3-.1.1-.1.2-.3.1-.5 0-.1-2.7-5.3-2.6-9 0-1.3 1.9-2.8 3.8-4.3 1.8-1.4 3.8-3.1 4.9-5 2.6-4.2-.3-8.3-.3-8.3-.1-.2-.3-.2-.5-.1s-.3.3-.2.5c0 0 .6 2.7-1 5.5-.7 1-2.1 2-3.7 3.2z"/><path d="M46 25.5c.2-.1.2-.3.1-.5s-.3-.3-.5-.2c-.4.2-9.7 3.7-9.7 8 0 3 1.3 4.6 2.2 5.7.4.5.7.8.8 1.2.3 1-.4 2.7-.7 3.3-.1.2 0 .4.1.5.1.1.2.1.3.1.1 0 .2 0 .2-.1.2-.1 3.9-2.8 3.2-5.9-.2-1.2-.8-2.1-1.4-2.9-.8-1.2-1.4-2.1-.5-3.7 1.2-1.9 5.9-5.5 5.9-5.5z"/><path d="M21.9 43.6c-.2.5-.1.9.2 1.4 1 1.4 4.6 2.2 10 2.2h2.3c8.7-.3 12-3 12.1-3.1.1-.1.2-.3.1-.5s-.3-.3-.5-.2c-3.1.8-8.8 1.1-12.8 1.1-4.5 0-6.7-.3-7.3-.6.3-.4 2-1.1 4.2-1.5.2 0 .4-.2.3-.4 0-.2-.2-.4-.4-.4-1.1-.1-7.5 0-8.2 2zm29.2-2.8c-1.8 0-3.5.9-3.6.9-.2.1-.3.3-.2.5 0 .2.2.3.4.3 0 0 3.8 0 4.2 2.2.3 1.9-3.6 4.9-5.1 5.9-.2.1-.2.3-.2.5.1.2.2.3.4.3h.1c.4-.1 8.9-2 8-6.9-.6-3-2.5-3.7-4-3.7zm-5.8 9.3c0-.2 0-.3-.2-.4l-2-1.4c-.1-.1-.2-.1-.3-.1 0 0-2.2.6-5.3.9-1.2.1-2.6.2-4 .2-3.1 0-5.1-.4-5.4-.6v-.1c.1-.1.3-.3.5-.4.2-.1.3-.3.3-.5-.1-.2-.3-.3-.5-.3-2 .5-3.1 1.2-3 2.1.1 1.5 3.7 2.3 6.7 2.5h1.4c5 0 11.5-1.6 11.5-1.6.1 0 .2-.2.3-.3zm-15.4 3.3c.2-.1.2-.3.2-.5-.1-.2-.2-.3-.4-.3-.3 0-2.7.1-2.9 1.7-.1.5.1.9.4 1.2.9 1 3.2 1.6 7.1 1.9h1.4c5 0 8.4-1.6 8.5-1.6.1-.1.2-.2.2-.4s-.1-.3-.2-.4l-2.6-1.6c-.1-.1-.2-.1-.3-.1 0 0-1.7.3-4.1.7-.5.1-1.1.1-1.7.1-2.5 0-5.2-.4-5.7-.7 0 .1 0 0 .1 0z"/><path d="M33.4 62.2c11.5 0 17.6-2.1 18.8-3.3.4-.5.5-.9.4-1.2-.1-.7-.7-1.1-.8-1.2-.2-.1-.4-.1-.5.1-.1.2-.1.4 0 .5.1.1.1.2-.1.5-.4.4-5.2 1.8-13.2 2.2-1.1.1-2.2.1-3.4.1-7.1 0-12.4-1-13-1.5.3-.4 2.1-1 4.1-1.3.2 0 .4-.2.3-.5 0-.2-.2-.4-.5-.3H25c-3.2.2-7 .6-7.2 2.3-.1.5.1 1 .4 1.4 1 .9 3.5 2.2 15.2 2.2z"/><path d="M54.5 59.2c-.2-.1-.4 0-.5.1 0 0-1.7 1.8-6.9 2.9-2 .4-5.7.6-11.1.6-5.4 0-10.5-.2-10.5-.2-.2 0-.4.1-.4.4 0 .2.1.4.3.5.1 0 5.4 1.3 12.7 1.3 3.5 0 6.9-.3 10.2-.8 6-1.1 6.5-4 6.5-4.2-.1-.3-.2-.5-.3-.6z"/></g><path d="M11.7 91L7.3 73.1H11l2.7 12.3L17 73.1h4.4l3.2 12.5 2.8-12.5h3.7L26.7 91h-3.9l-3.6-13.4L15.6 91h-3.9zm36.2 0h-4l-1.6-4.1h-7.2L33.6 91h-3.9l7.1-17.9h3.9L47.9 91zm-6.7-7.1l-2.5-6.6-2.4 6.6h4.9zm8.7 7.1V73.1h7.7c1.9 0 3.3.2 4.2.5.9.3 1.6.9 2.1 1.7s.8 1.8.8 2.8c0 1.3-.4 2.5-1.2 3.3s-2 1.4-3.6 1.7c.8.5 1.4 1 2 1.5.5.5 1.2 1.5 2.1 2.9l2.2 3.5h-4.4l-2.6-3.9c-.9-1.4-1.6-2.3-1.9-2.6s-.7-.6-1.1-.7c-.4-.1-1-.2-1.8-.2h-.7V91h-3.8zm3.6-10.3h2.7c1.8 0 2.9-.1 3.3-.2.4-.1.8-.4 1-.8s.4-.8.4-1.3c0-.6-.2-1.1-.5-1.5-.3-.4-.8-.6-1.4-.7-.3 0-1.2-.1-2.7-.1h-2.9v4.6zM45 1.1l27 26.7H45V1.1z"/><path fill-opacity="0" stroke-linejoin="bevel" stroke-width="2" d="M45 1.1l27 26.7H45V1.1z"/></svg>