<svg xmlns="http://www.w3.org/2000/svg" viewBox="0 0 72 100"><path d="M45 1l27 26.7V99H0V1h45z"/><path fill-opacity="0" stroke-width="2" d="M45 1l27 26.7V99H0V1h45z"/><path stroke-miterlimit="10" stroke-width="2" d="M12 44.7l14-12.1v6.1l-9.5 7.9v.1l9.5 7.9v6.1l-14-12v-4zm26.4-15.2h3.7l-7.2 35h-3.6l7.1-35zm8.8 25.3l9.5-7.9v-.1l-9.5-7.9v-6.1l14 12.1V49l-14 12.1v-6.3z" opacity=".9"/><path d="M45 1l27 26.7H45V1z"/><path fill-opacity="0" stroke-linejoin="bevel" stroke-width="2" d="M45 1l27 26.7H45V1z"/><path d="M4.7 91.5l5.4-8.2-4.9-7.5H9l3.2 5.1 3.1-5.1H19l-4.9 7.6 5.4 8.1h-3.9l-3.5-5.4-3.5 5.4H4.7zm30.8 0H32L30.6 88h-6.4L23 91.5h-3.4l6.2-15.7h3.4l6.3 15.7zm-5.9-6.2l-2.2-5.8-2.1 5.8h4.3zm7.6 6.2V75.8H42l2.9 10.7 2.9-10.7h4.8v15.7h-3V79.1l-3.2 12.4h-3.1l-3.1-12.4v12.4h-3zm18.6 0V75.9H59v13h8v2.7H55.8z"/></svg>