<svg xmlns="http://www.w3.org/2000/svg" viewBox="0 0 72 100"><style/><path d="M45.2 1l26.9 26.7V99H.3V1h44.9z"/><path fill-opacity="0" stroke-width="2" d="M45.2 1l26.9 26.7V99H.3V1h44.9z"/><path d="M8.3 91.1l6.8-10.4-6.2-9.5h4.7l4 6.4 3.9-6.4h4.7L20 80.9l6.8 10.2H22l-4.4-6.9-4.4 6.9H8.3zm33.4-7.3l3.9 1.2c-.6 2.2-1.6 3.8-3 4.8s-3.2 1.6-5.3 1.6c-2.7 0-4.8-.9-6.5-2.7s-2.6-4.3-2.6-7.4c0-3.3.9-5.9 2.6-7.7s4-2.7 6.8-2.7c2.4 0 4.4.7 6 2.2.9.8 1.6 2.1 2 3.7l-4 .9c-.2-1-.7-1.8-1.5-2.4-.8-.6-1.7-.9-2.7-.9-1.5 0-2.7.5-3.6 1.6s-1.4 2.8-1.4 5.1c0 2.5.5 4.3 1.4 5.4s2.1 1.6 3.5 1.6c1.1 0 2-.3 2.8-1 .7-.8 1.3-1.9 1.6-3.3zm7.4 7.3V71.2h13.7v3.4h-9.7v4.7h8.3v3.4h-8.3v8.4h-4zM45.2 1l26.9 26.7H45.2V1z"/><path fill-opacity="0" stroke-linejoin="bevel" stroke-width="2" d="M45.2 1l26.9 26.7H45.2V1z"/><path d="M62.7 56.8c-1.6-.8-4.6-6.6-9.2-7-4-.3-9.1-1.8-11.9-2-3.5-5.8-9.5-15-14.5-19.9l13.8.7C37.2 19.8 27.7 23 27.7 23l6.4-5.3c-8.2-3.3-11.6 4.7-11.6 4.7-8.5-4.7-12.9 3.3-12.9 3.3l8.8.6C8.4 29.1 11.2 39 11.2 39l8.9-8c-1.9 4.4 2.3 7.5 2.3 7.5L25 27.7s9.3 10.6 12.2 21.4c-3.7 1.9-9.5 5-14 5.6-6.2.8-13.5 5-13.5 5v4.9h53.1l-.1-7.8z" opacity=".99"/></svg>