<svg xmlns="http://www.w3.org/2000/svg" viewBox="0 0 72 100"><path d="M45.1 1l27.2 26.7V99H-.2V1h45.3z"/><path fill-opacity="0" stroke-width="2" d="M45.1 1l27.2 26.7V99H-.2V1h45.3z"/><path d="M10 91.1l6.9-10.4-6.2-9.5h4.8l4 6.4 4-6.4h4.7l-6.3 9.6L28.8 91h-4.9l-4.5-6.9-4.5 6.9H10zm20.9 0V71.2h13.8v3.4H35v4.7h8.4v3.4H35v8.4h-4.1zm17.3 0V71.4h4.1v16.3h10.1V91H48.2zM36.6 22.238c-11.3 0-20.4 9.1-20.4 20.4 0 11.3 9.1 20.4 20.4 20.4s20.4-9.2 20.4-20.4c0-11.3-9.1-20.4-20.4-20.4zm3.9 4.8l-3.3 12.3h8.6l-13 18.8 3.3-12.3h-8.6l13-18.8z"/><path d="M45.1 1l27.2 26.7H45.1V1z"/><path fill-opacity="0" stroke-linejoin="bevel" stroke-width="2" d="M45.1 1l27.2 26.7H45.1V1z"/></svg>