<svg xmlns="http://www.w3.org/2000/svg" viewBox="0 0 72 100"><path d="M45 .7l27 26.9v71.6H0V.7h45z"/><path fill-opacity="0" stroke-width="2" d="M45 .7l27 26.9v71.6H0V.7h45z"/><path d="M8.4 91.3l6.8-10.4L9 71.4h4.7l4 6.4 3.9-6.4h4.7L20.2 81 27 91.3h-4.9l-4.4-6.9-4.5 6.9H8.4zm20.8 0V71.5h4v16.4h10.1v3.4H29.2zm16-6.5l3.9-.4c.2 1.3.7 2.3 1.4 2.9.7.6 1.7.9 2.9.9 1.3 0 2.3-.3 2.9-.8s1-1.2 1-1.9c0-.5-.1-.9-.4-1.2-.3-.3-.8-.6-1.5-.9-.5-.2-1.6-.5-3.2-.9-2.2-.5-3.7-1.2-4.6-2-1.2-1.1-1.8-2.4-1.8-4 0-1 .3-2 .9-2.8.6-.9 1.4-1.6 2.5-2 1.1-.5 2.4-.7 3.9-.7 2.5 0 4.4.5 5.7 1.6s1.9 2.6 2 4.4l-4 .2c-.2-1-.5-1.8-1.1-2.2-.6-.4-1.4-.7-2.6-.7-1.2 0-2.1.2-2.8.7-.4.3-.6.7-.6 1.2s.2.9.6 1.2c.5.4 1.8.9 3.7 1.3s3.4.9 4.4 1.4 1.7 1.2 2.2 2c.5.9.8 1.9.8 3.2 0 1.1-.3 2.2-1 3.2s-1.5 1.7-2.7 2.2-2.6.7-4.4.7c-2.5 0-4.5-.6-5.8-1.7s-2-2.7-2.3-4.9zm12.6-23.4H35.2v-2c2.2-.1 3.5-.3 4.2-.6.6-.3.9-.6.9-1 0-.2-.1-.6-.3-1.1s-.5-1.1-.9-1.7c-.6-1-1.4-2.3-2.4-3.8s-2.1-3.1-3.2-4.8c-3.6 4.2-6 7-6.9 8.4-1 1.4-1.5 2.3-1.5 2.8 0 .2 0 .4.1.6.1.2.3.3.6.5.2.1.7.3 1.3.4.6.1 1.3.2 2.1.3v2H14.8v-2c.7-.1 1.3-.1 1.8-.2.4-.1.9-.2 1.3-.4 1-.5 1.9-1.1 2.7-1.8.8-.7 1.6-1.6 2.4-2.5 1.2-1.4 2.6-2.9 4.1-4.7 1.5-1.7 3.1-3.6 4.8-5.6-1.6-2.4-3.2-4.8-4.8-7-1.6-2.3-3-4.2-4.1-5.8-.6-.8-1.2-1.6-2.1-2.4-.8-.8-1.7-1.4-2.6-1.7-.5-.2-1-.4-1.5-.5-.6-.1-1.2-.2-2-.3v-2h22.6v2c-1.8.1-3.1.2-3.9.5-.8.2-1.3.6-1.3 1.1 0 .2.1.6.2.9.2.4.5 1 1 1.8.4.7 1.1 1.7 1.9 3 .9 1.3 1.9 2.9 3 4.6 3.3-3.9 5.3-6.5 6.2-7.6.8-1.2 1.3-2 1.3-2.4 0-.5-.2-.9-.7-1.1-.5-.3-1.6-.5-3.4-.6v-2h14.4v2c-.7 0-1.2.1-1.6.2-.4.1-.9.3-1.5.5-1.1.5-2 1.1-2.7 1.8-.7.7-1.5 1.5-2.4 2.5-1.3 1.4-2.5 2.8-3.7 4.2-1.2 1.3-2.6 3-4.3 4.9 2.1 3.2 3.9 5.8 5.4 7.9 1.5 2.1 2.9 4.1 4.3 6 .5.8 1.2 1.6 2 2.4.8.8 1.7 1.4 2.6 1.7.4.2.9.3 1.4.4.5.1 1.3.2 2.1.3l.1 1.9z"/><path d="M45 .7l27 26.9H45V.7z"/><path fill-opacity="0" stroke-linejoin="bevel" stroke-width="2" d="M45 .7l27 26.9H45V.7z"/></svg>