<svg xmlns="http://www.w3.org/2000/svg" viewBox="0 0 72 100"><path d="M45 .8l27 26.9v71.6H0V.8h45z"/><path fill-opacity="0" stroke-width="2" d="M45 .8l27 26.9v71.6H0V.8h45z"/><path d="M7.3 91.3l5.4-8.2-4.9-7.5h3.7l3.2 5 3.1-5h3.7l-4.9 7.6 5.4 8.1h-3.8l-3.5-5.4-3.5 5.4H7.3zm16.3 0V75.7h3.2v12.9h7.9v2.6H23.6zm12.6-5.1l3.1-.3c.2 1 .6 1.8 1.1 2.3.6.5 1.3.7 2.3.7 1 0 1.8-.2 2.3-.6s.8-.9.8-1.5c0-.4-.1-.7-.3-.9s-.6-.5-1.1-.7c-.4-.1-1.2-.4-2.5-.7-1.7-.4-2.9-.9-3.6-1.6-1-.9-1.5-1.9-1.5-3.2 0-.8.2-1.5.7-2.2.5-.7 1.1-1.2 2-1.6.9-.4 1.9-.5 3.1-.5 2 0 3.5.4 4.5 1.3s1.5 2 1.6 3.5l-3.2.1c-.1-.8-.4-1.4-.9-1.7-.4-.4-1.1-.5-2-.5-.9 0-1.6.2-2.2.6-.3.2-.5.6-.5 1s.2.7.5 1c.4.3 1.4.7 2.9 1 1.5.4 2.7.7 3.4 1.1.7.4 1.3.9 1.7 1.6.4.7.6 1.5.6 2.5 0 .9-.3 1.7-.8 2.5-.5.6-1.2 1.2-2.1 1.6-.9.4-2.1.6-3.4.6-2 0-3.5-.5-4.6-1.4-1.1-.9-1.7-2.3-1.9-4zm13.9 5.1l5.4-8.2-4.9-7.5h3.7l3.2 5 3.1-5h3.7l-4.9 7.6 5.4 8.1H61l-3.5-5.4-3.5 5.4h-3.9zm7.7-29.9H35.2v-2c2.2-.1 3.5-.3 4.2-.6.6-.3.9-.6.9-1 0-.2-.1-.6-.3-1.1-.2-.5-.5-1.1-.9-1.7-.6-1-1.4-2.3-2.4-3.8s-2.1-3.1-3.2-4.8c-3.6 4.2-6 7-6.9 8.4-1 1.4-1.5 2.3-1.5 2.8 0 .2 0 .4.1.6.1.2.3.3.6.5.2.1.7.3 1.3.4.6.1 1.3.2 2.1.3v2H14.8v-2c.7-.1 1.3-.1 1.8-.2.4-.1.9-.2 1.3-.4 1-.5 1.9-1.1 2.7-1.8s1.6-1.6 2.4-2.5c1.2-1.4 2.6-2.9 4.1-4.7 1.5-1.7 3.1-3.6 4.8-5.6-1.6-2.4-3.2-4.8-4.8-7-1.6-2.3-3-4.2-4.1-5.8-.6-.8-1.2-1.6-2.1-2.4-.8-.8-1.7-1.4-2.6-1.7-.5-.2-1-.4-1.5-.5-.6-.1-1.2-.2-2-.3v-2h22.6v2c-1.8.1-3.1.2-3.9.5-.8.2-1.3.6-1.3 1.1 0 .2.1.6.2.9.2.4.5 1 1 1.8.4.7 1.1 1.7 1.9 3 .9 1.3 1.9 2.9 3 4.6 3.3-3.9 5.3-6.5 6.2-7.6.8-1.2 1.3-2 1.3-2.4 0-.5-.2-.9-.7-1.1-.5-.3-1.6-.5-3.4-.6v-2h14.4v2c-.7 0-1.2.1-1.6.2-.4.1-.9.3-1.5.5-1.1.5-2 1.1-2.7 1.8-.7.7-1.5 1.5-2.4 2.5-1.3 1.4-2.5 2.8-3.7 4.2-1.2 1.3-2.6 3-4.3 4.9 2.1 3.2 3.9 5.8 5.4 7.9 1.5 2.1 2.9 4.1 4.3 6 .5.8 1.2 1.6 2 2.4.8.8 1.7 1.4 2.6 1.7.4.2.9.3 1.4.4.5.1 1.3.2 2.1.3v1.9h.1z"/><path d="M45 .8l27 26.9H45V.8z"/><path fill-opacity="0" stroke-linejoin="bevel" stroke-width="2" d="M45 .8l27 26.9H45V.8z"/></svg>