<svg xmlns="http://www.w3.org/2000/svg" viewBox="0 0 72 100"><path d="M45 1l27 26.7V99H0V1h45z"/><path fill-opacity="0" stroke-width="2" d="M45 1l27 26.7V99H0V1h45z"/><path stroke-miterlimit="10" stroke-width="2" d="M12 44.7l14-12.1v6.1l-9.5 7.9v.1l9.5 7.9v6.1l-14-12v-4zm26.4-15.2h3.7l-7.2 35h-3.6l7.1-35zm8.8 25.3l9.5-7.9v-.1l-9.5-7.9v-6.1l14 12.1V49l-14 12.1v-6.3z" opacity=".9"/><path d="M45 1l27 26.7H45V1z"/><path fill-opacity="0" stroke-linejoin="bevel" stroke-width="2" d="M45 1l27 26.7H45V1z"/><path d="M9.4 91.5l6.6-10-6-9.2h4.6l3.9 6.2 3.8-6.2h4.6l-6.1 9.4 6.7 9.9h-4.8l-4.3-6.7-4.3 6.7H9.4zm20.2 0V72.2h6.3c2.4 0 4 .1 4.7.3 1.1.3 2.1.9 2.8 1.9.8 1 1.1 2.2 1.1 3.8 0 1.2-.2 2.2-.7 3-.4.8-1 1.4-1.7 1.9s-1.4.8-2 .9c-.9.2-2.3.3-4.1.3h-2.6v7.3h-3.8zm3.9-16V81h2.2c1.6 0 2.6-.1 3.1-.3.5-.2.9-.5 1.2-.9.3-.4.4-.9.4-1.5 0-.7-.2-1.3-.6-1.7-.4-.5-.9-.7-1.6-.9-.5-.1-1.4-.1-2.8-.1h-1.9zm13.2 9.8l3.8-.4c.2 1.3.7 2.2 1.4 2.8.7.6 1.7.9 2.9.9 1.3 0 2.2-.3 2.9-.8.6-.5 1-1.2 1-1.9 0-.5-.1-.8-.4-1.2-.3-.3-.7-.6-1.4-.8-.5-.2-1.5-.4-3.2-.8-2.1-.5-3.6-1.2-4.4-1.9-1.2-1.1-1.8-2.4-1.8-3.9 0-1 .3-1.9.8-2.8.6-.9 1.4-1.5 2.4-2 1.1-.4 2.3-.7 3.8-.7 2.5 0 4.3.5 5.5 1.6s1.9 2.5 2 4.3l-3.9.2c-.2-1-.5-1.7-1.1-2.1-.6-.4-1.4-.7-2.5-.7s-2 .2-2.7.7c-.4.3-.6.7-.6 1.2s.2.8.6 1.2c.5.4 1.7.8 3.6 1.3 1.9.4 3.3.9 4.3 1.4.9.5 1.6 1.1 2.2 2 .5.8.8 1.9.8 3.1 0 1.1-.3 2.1-.9 3.1s-1.5 1.7-2.6 2.2c-1.1.5-2.6.7-4.2.7-2.5 0-4.4-.6-5.7-1.7-1.5-1.2-2.3-2.9-2.6-5z"/></svg>