<svg xmlns="http://www.w3.org/2000/svg" viewBox="0 0 72 100"><path d="M45 1l27 26.7V99H0V1h45z"/><path d="M45 1l27 26.7H45V1z"/><path stroke-width="2" d="M45 1l27 26.7V99H0V1h45z"/><path stroke-linejoin="bevel" stroke-width="2" d="M45 1l27 26.7H45V1z"/><path d="M54.8 51.3h-4.3v-7.2c0-.9-.8-1.7-1.7-1.7H38.3v-6.1h4.2c.9 0 1.7-.8 1.7-1.7v-9c0-.9-.8-1.7-1.7-1.7H30.7c-.9 0-1.7.8-1.7 1.7v9.1c0 .9.8 1.7 1.7 1.7h4.2v6.1H24.4c-.9 0-1.7.8-1.7 1.7v7.2h-4.2c-.9 0-1.7.8-1.7 1.7v9.1c0 .9.8 1.7 1.7 1.7h11.8c.9 0 1.7-.8 1.7-1.7V53c0-.9-.8-1.7-1.7-1.7H26v-5.5h21.2v5.5h-4.3c-.9 0-1.7.8-1.7 1.7v9.1c0 .9.8 1.7 1.7 1.7h11.8c.9 0 1.7-.8 1.7-1.7V53c.1-.9-.6-1.7-1.6-1.7z" opacity=".9"/><path d="M8.6 91.5l6.7-10.1-6-9.2h4.6l3.9 6.2 3.8-6.2h4.6L20 81.6l6.7 9.9H22l-4.3-6.7-4.3 6.7H8.6zm19.1-6.2l3.8-.4c.2 1.3.7 2.2 1.4 2.8.7.6 1.7.9 2.9.9 1.3 0 2.2-.3 2.9-.8.6-.5 1-1.2 1-1.9 0-.5-.1-.8-.4-1.2-.3-.3-.7-.6-1.4-.8-.5-.2-1.5-.4-3.2-.8-2.1-.5-3.6-1.2-4.4-1.9-1.2-1.1-1.8-2.4-1.8-3.9 0-1 .3-1.9.8-2.8.6-.9 1.4-1.5 2.4-2s2.3-.7 3.8-.7c2.5 0 4.3.5 5.5 1.6s1.9 2.5 2 4.3l-3.9.2c-.2-1-.5-1.7-1.1-2.1s-1.4-.7-2.5-.7-2 .2-2.7.7c-.4.3-.6.7-.6 1.2s.2.8.6 1.2c.5.4 1.7.8 3.6 1.3 1.9.4 3.3.9 4.3 1.4.9.5 1.6 1.1 2.2 2 .5.8.8 1.9.8 3.1 0 1.1-.3 2.1-.9 3.1-.6 1-1.5 1.7-2.6 2.2s-2.6.7-4.2.7c-2.5 0-4.4-.6-5.7-1.7-1.5-1.2-2.3-2.9-2.6-5zm19.2-13.1h7.2c1.6 0 2.9.1 3.7.4 1.1.3 2.1.9 2.9 1.8.8.9 1.4 1.9 1.9 3.1.4 1.2.6 2.8.6 4.6 0 1.6-.2 3-.6 4.1-.5 1.4-1.2 2.5-2.1 3.4-.7.7-1.6 1.2-2.8 1.5-.9.3-2 .4-3.5.4h-7.4l.1-19.3zm4 3.3v12.8h2.9c1.1 0 1.9-.1 2.4-.2.6-.2 1.2-.4 1.6-.8s.8-1 1-1.9c.3-.9.4-2 .4-3.5s-.1-2.6-.4-3.4c-.3-.8-.6-1.4-1.1-1.9-.5-.4-1.1-.8-1.8-.9-.6-.1-1.6-.2-3.2-.2h-1.8z"/></svg>