<svg xmlns="http://www.w3.org/2000/svg" viewBox="0 0 72 100"><path d="M45.1 1L72 27.7V99H.2V1h44.9z"/><path fill-opacity="0" stroke-width="2" d="M45.1 1L72 27.7V99H.2V1h44.9z"/><path d="M14.1 91.1v-8.4L6.8 71.2h4.7l4.7 7.8 4.6-7.8h4.6l-7.3 11.5V91h-4zm13.3 0V71.2h6L37 84.7l3.6-13.5h6V91H43V75.4L39 91h-3.9l-4-15.6V91h-3.7zm23.4 0V71.4h4v16.3h10V91h-14zM13.1 22h41v4h-41v-4zm6 11.7h41v4.1h-41v-4.1zm-6 12h41v4.1h-41v-4.1zm6 12.3h41v4h-41v-4z"/><path d="M45.1 1L72 27.7H45.1V1z"/><path fill-opacity="0" stroke-linejoin="bevel" stroke-width="2" d="M45.1 1L72 27.7H45.1V1z"/></svg>