<svg xmlns="http://www.w3.org/2000/svg" viewBox="0 0 15 15"><path d="M7 8.5V8h.5a.5.5 0 11-.5.5zM11.5 6a.5.5 0 00-.5.5v2a.5.5 0 001 0v-2a.5.5 0 00-.5-.5z"/><path fill-rule="evenodd" d="M0 7.5a7.5 7.5 0 0112.787-5.32 1.5 1.5 0 011.659 2.484A7.52 7.52 0 0115 7.5a7.5 7.5 0 01-15 0zM13.5 3a.5.5 0 100 1 .5.5 0 000-1zM2 6h1.5l-.9 1.2A.5.5 0 003 8h.5a.5.5 0 010 1H2v1h1.5a1.5 1.5 0 00.449-2.932L4.9 5.8a.5.5 0 00-.4-.8H2v1zm5.5-1A1.5 1.5 0 006 6.5v2A1.5 1.5 0 107.5 7H7v-.5a.5.5 0 01.5-.5H8V5h-.5zM10 6.5a1.5 1.5 0 013 0v2a1.5 1.5 0 01-3 0v-2z" clip-rule="evenodd"/></svg>