<svg xmlns="http://www.w3.org/2000/svg" viewBox="0 0 512 512"><path d="M88 160a64 64 0 10-64-64 64.072 64.072 0 0064 64zm0-96a32 32 0 11-32 32 32.036 32.036 0 0132-32zm168-32a64 64 0 1064 64 64.072 64.072 0 00-64-64zm0 96a32 32 0 1132-32 32.036 32.036 0 01-32 32zm168 32a64 64 0 10-64-64 64.072 64.072 0 0064 64zm0-96a32 32 0 11-32 32 32.036 32.036 0 0132-32zM88 192a64 64 0 1064 64 64.072 64.072 0 00-64-64zm0 96a32 32 0 1132-32 32.036 32.036 0 01-32 32zm168-96a64 64 0 1064 64 64.072 64.072 0 00-64-64zm0 96a32 32 0 1132-32 32.036 32.036 0 01-32 32zm168-96a64 64 0 1064 64 64.072 64.072 0 00-64-64zm0 96a32 32 0 1132-32 32.036 32.036 0 01-32 32zm0 64a64 64 0 1064 64 64.072 64.072 0 00-64-64zm0 96a32 32 0 1132-32 32.036 32.036 0 01-32 32zM56 408h32v32H56zm96 0h32v32h-32zm96 0h32v32h-32z"/></svg>