<svg xmlns="http://www.w3.org/2000/svg" viewBox="0 0 512 512"><path d="M116 468A100 100 0 1016 368a100.113 100.113 0 00100 100zm0-168a68 68 0 11-68 68 68.077 68.077 0 0168-68zm180 68a100 100 0 10100-100 100.113 100.113 0 00-100 100zm100-68a68 68 0 11-68 68 68.077 68.077 0 0168-68z"/><circle cx="317.912" cy="94.088" r="34.088"/><path d="M190.954 266.3L240 314.69V404h32v-92.655a24.154 24.154 0 00-7.144-17.084l-51.274-50.588 66.453-66.453 58.165 59.551A24.14 24.14 0 00355.369 244H384v-32h-25.262l-92.487-94.688-.475.464-8.4-8.4-112 112 45.254 45.254z"/></svg>