<svg xmlns="http://www.w3.org/2000/svg" viewBox="0 0 512 512"><path d="M208 312v32h112v-32h-40V176h-32v24h-32v32h32v80h-40z"/><path d="M464 210.511V264a112.127 112.127 0 01-112 112H78.627l44.686-44.687-22.626-22.626L56 353.373l-4.415 4.414-33.566 33.567 74.022 83.276 23.918-21.26L75.63 408H352c79.4 0 144-64.6 144-144v-85.489z"/><path d="M48 256a112.127 112.127 0 01112-112h273.373l-44.686 44.687 22.626 22.626L456 166.627l4.117-4.116 33.864-33.865-74.022-83.276-23.918 21.26L436.37 112H160c-79.4 0-144 64.6-144 144v85.787l32-32z"/></svg>