<svg xmlns="http://www.w3.org/2000/svg" viewBox="0 0 512 512"><path d="M457.47 55.833c-53.026-53.026-139.307-53.026-192.332 0L168.971 152l22.629 22.627 96.165-96.167a104 104 0 01147.078 147.079l-96.167 96.167 22.624 22.627 96.167-96.167C510.5 195.14 510.5 108.86 457.47 55.833zm-231.931 379.01a104 104 0 01-147.078 0 104 104 0 010-147.078l90.511-90.511-22.627-22.627-90.512 90.511A136 136 0 10248.166 457.47l90.51-90.51-22.627-22.627z"/><path d="M129.373 361.303l226.274-226.275 22.628 22.628L152 383.93z"/></svg>