<svg xmlns="http://www.w3.org/2000/svg" viewBox="0 0 512 512"><path d="M256 16C123.452 16 16 123.452 16 256s107.452 240 240 240 240-107.452 240-240S388.548 16 256 16zm147.078 387.078a207.253 207.253 0 1144.589-66.125 207.332 207.332 0 01-44.589 66.125z"/><path d="M168 320h176v32H168zm42.63-91.958l-24.042-21.371 21.37-24.041-23.916-21.26-21.371 24.042-24.041-21.37-21.26 23.916 24.042 21.371-21.37 24.041 23.916 21.26 21.371-24.042 24.041 21.37 21.26-23.916zm173.328-45.412l-23.916-21.26-21.371 24.042-24.041-21.37-21.26 23.916 24.042 21.371-21.37 24.041 23.916 21.26 21.371-24.042 24.041 21.37 21.26-23.916-24.042-21.371 21.37-24.041z"/></svg>