<svg xmlns="http://www.w3.org/2000/svg" viewBox="0 0 512 512"><path d="M88 16a56 56 0 1056 56 56.063 56.063 0 00-56-56zm0 80a24 24 0 1124-24 24.028 24.028 0 01-24 24zm112 42.667a56 56 0 1056 56 56.063 56.063 0 00-56-56zm0 80a24 24 0 1124-24 24.028 24.028 0 01-24 24zM88 373.333a56 56 0 10-56-56 56.063 56.063 0 0056 56zm0-80a24 24 0 11-24 24 24.028 24.028 0 0124-24zM200 496a56 56 0 10-56-56 56.063 56.063 0 0056 56zm0-80a24 24 0 11-24 24 24.028 24.028 0 0124-24zM312 16a56 56 0 1056 56 56.063 56.063 0 00-56-56zm0 80a24 24 0 1124-24 24.028 24.028 0 01-24 24zm112 42.667a56 56 0 1056 56 56.063 56.063 0 00-56-56zm0 80a24 24 0 1124-24 24.028 24.028 0 01-24 24zM312 373.333a56 56 0 10-56-56 56.063 56.063 0 0056 56zm0-80a24 24 0 11-24 24 24.028 24.028 0 0124-24zM424 384a56 56 0 1056 56 56.063 56.063 0 00-56-56zm0 80a24 24 0 1124-24 24.028 24.028 0 01-24 24z"/></svg>