<svg xmlns="http://www.w3.org/2000/svg" viewBox="0 0 20 15"><path fill-rule="evenodd" d="M8.305 13.573c-.207-.195-.978-.934-1.338-1.287a.334.334 0 00-.267-.114c-3.297.081-4.522-2.766-3.742-4.82.597-1.575 2.25-2.534 3.88-2.238 1.368.247 1.711.794 3.852 2.992.592.608 1.57-.301.947-.943-.681-.7-1.346-1.419-2.054-2.09-1.376-1.302-2.996-1.69-4.788-1.135C2.384 4.682.972 7.21 1.523 9.706c.502 2.274 2.46 3.87 4.75 3.872.17 0 1.862.004 2.032-.005m.494-10.75c.012.017.015.024.02.027.413.206.805.449 1.177.723.023.017.082.01.11-.008 2.041-1.314 4.665-.861 6.15 1.075 1.55 2.02 1.079 4.567-.205 6.005-1.956 2.192-4.984 1.965-6.68.224-.917-.94-1.84-1.874-2.758-2.812-.722-.736-1.655.29-1.003.943 3.268 3.257 3.813 4.229 6.13 4.541 2.044.274 4.076-.456 5.472-2.167 1.919-2.356 1.76-5.73-.092-7.844C14.714.786 11.043.913 8.8 2.824M20 7.159c0 4.018-2.414 7.322-7.037 7.84-.507 0-6.649.01-7.145-.02-6.18-.396-8.177-9.115-2.326-12.089 1.065-.542 2.32-.771 3.698-.584a.155.155 0 00.119-.039C11.414-1.993 19.232-.187 20 7.16"/></svg>