<svg xmlns="http://www.w3.org/2000/svg" viewBox="0 0 21 20"><path fill-rule="evenodd" d="M2.227.707a1.086 1.086 0 00-1.484 0 .966.966 0 000 1.414l18.013 17.156c.41.39 1.075.39 1.485 0a.967.967 0 000-1.414L2.227.707zM14.186 18.76c.324.75 1.09 1.239 1.941 1.239.13 0 .247-.031.372-.045l-3.055-2.91.742 1.716zM10.5 14.24l-1.484-1.413-3.512 3.343-1.484-1.414 3.51-3.343L6.045 10l-2.768 2.636c-.41.39-1.075.39-1.484 0a1.086 1.086 0 00-1.485 0 .966.966 0 000 1.414l5.939 5.657c.41.39 1.075.39 1.485 0a.967.967 0 000-1.414.966.966 0 010-1.414l2.768-2.637zm6.172-11.534a1.088 1.088 0 011.486 0 .967.967 0 010 1.414L13.47 8.586l4.421 4.21-1.71-3.964 4.204-4.004c.82-.781.82-2.047 0-2.828L18.9.586a2.176 2.176 0 00-2.97 0L11.726 4.59 7.563 2.96l4.422 4.212 4.687-4.465zM0 4.64c0-.123.033-.235.046-.353l3.055 2.909-1.8-.707C.513 6.18 0 5.45 0 4.639z"/></svg>