<svg xmlns="http://www.w3.org/2000/svg" viewBox="0 0 20 20"><path fill-rule="evenodd" d="M10 7.703c.478 0 .955-.17 1.335-.511A3.987 3.987 0 0114 6.166c2.154 0 4 2.749 4 5C18 13.976 15.645 18 14 18c-.399 0-.822-.152-1.259-.45A4.843 4.843 0 0010 16.711c-.988 0-1.936.29-2.741.839-.437.298-.86.45-1.259.45-1.645 0-4-4.024-4-6.834 0-2.251 1.846-5 4-5 .981 0 1.927.364 2.665 1.026.38.341.857.511 1.335.511m4-3.537a5.947 5.947 0 00-3.439 1.091.979.979 0 01-1.122 0A5.947 5.947 0 006 4.166c-3.314 0-6 3.687-6 7C0 14.48 2.686 20 6 20c2.031 0 2.307-1.289 4-1.289 1.679 0 1.99 1.289 4 1.289 3.314 0 6-5.52 6-8.834 0-3.313-2.686-7-6-7M7.334 0c-.349 0-.72.056-1.102.164-.311 1.093-.19 2.103.441 2.734.532.532 1.464.834 2.502.834.195 0 .393-.01.593-.032.137-1.267-.171-2.463-.802-3.095C8.555.194 7.984 0 7.334 0"/></svg>