<svg xmlns="http://www.w3.org/2000/svg" viewBox="0 0 20 28"><path fill-rule="evenodd" d="M15.879 17.995a1.012 1.012 0 00-1.414 0 .972.972 0 000 1.392l1.682 1.535c.315.31.092.72-.354.72H10c-4.408 0-7.98-3.447-7.997-7.78C2.02 9.53 5.592 5.903 10 5.903h5.793c.446 0 .669.65.354.96l-1.682 1.713a1.008 1.008 0 001.414 1.436l3.536-3.47a1.94 1.94 0 000-2.778C18.867 3.228 16.431.83 15.879.288a1.012 1.012 0 00-1.414 0 .973.973 0 000 1.392l1.682 1.536c.315.31.092.72-.354.72H10c-5.522 0-10 4.583-10 10.016v.03c0 5.432 4.478 9.732 10 9.732l5.793-.104c.446 0 .669.65.354.959l-1.682 1.715a1.007 1.007 0 001.414 1.435c.551-.541 2.989-2.935 3.536-3.467a1.942 1.942 0 000-2.78l-3.536-3.477z"/></svg>