<svg xmlns="http://www.w3.org/2000/svg" viewBox="0 0 20 20"><path fill-rule="evenodd" d="M14.274 6.673l-.003-.004a.995.995 0 00-1.408-.049l-1.021.957A.5.5 0 0111 7.212V1a1 1 0 10-2 0v6.197a.5.5 0 01-.845.361l-.974-.928a.994.994 0 10-1.367 1.441l2.848 2.688a2 2 0 002.753-.006l2.816-2.686a.993.993 0 00.043-1.394zM20 18.222C20 19.2 19.32 20 17.888 20H1.778A1.778 1.778 0 010 18.222v-6.445C0 10.847.707 10 1.888 10h1.119c.548 0 .993.444.993.993v.013a.994.994 0 01-.993.994h-.014a.993.993 0 00-.993.993v4.013c0 .549.445.994.993.994h14.014a.994.994 0 00.993-.994v-4.013a.993.993 0 00-.993-.993h-.014a.994.994 0 01-.993-.994v-.013c0-.549.445-.993.993-.993h1.229c.982 0 1.778.796 1.778 1.777v6.445z"/></svg>