<svg xmlns="http://www.w3.org/2000/svg" viewBox="0 0 20 20"><path fill-rule="evenodd" d="M11 1a1 1 0 00-2 0v18a1 1 0 002 0V1zm8.415 7.587L15.878 5.05a1 1 0 00-1.414 1.414l1.683 1.682a.5.5 0 01-.354.854h-2.137a1 1 0 000 2h2.135a.5.5 0 01.354.854l-1.681 1.681a1 1 0 00-.001 1.414l.001.001a1 1 0 001.414 0l3.535-3.534.022-.023a2 2 0 00-.02-2.806zM6.343 9H4.207a.5.5 0 01-.354-.854l1.683-1.682A.999.999 0 104.122 5.05L.585 8.587a1.999 1.999 0 000 2.826l3.537 3.537a1 1 0 001.414-1.415l-1.681-1.681A.5.5 0 014.209 11h2.134a1 1 0 100-2z"/></svg>