<svg xmlns="http://www.w3.org/2000/svg" viewBox="0 0 20 28"><path fill-rule="evenodd" d="M19.414 3.761L15.878.288a1.013 1.013 0 00-1.414 0 .971.971 0 000 1.389l1.682 1.566c.315.31.092.752-.353.752H5c-1.105 0-2 1.052-2 2.138v6.85H1c-.553 0-1 .348-1 .89v-.059c0 .543.447 1.167 1 1.167h2v6.872c0 1.084.895 2.116 2 2.116h3.793c.445 0 .668.454.353.763l-1.682 1.614a.95.95 0 000 1.371 1.013 1.013 0 001.414-.01l3.536-3.48a1.941 1.941 0 000-2.78l-3.536-3.474a1.012 1.012 0 00-1.414 0 .97.97 0 000 1.388l1.682 1.713c.315.308.092.898-.353.898H6c-.553 0-1-.56-1-1.102V7.116c0-.543.447-1.124 1-1.124h9.793c.445 0 .668.6.353.91l-1.682 1.687a.992.992 0 000 1.407 1.012 1.012 0 001.414.008l3.536-3.468a1.936 1.936 0 000-2.775"/></svg>