<svg xmlns="http://www.w3.org/2000/svg" viewBox="0 0 20 20"><path fill-rule="evenodd" d="M19 18h-5v-4.137a.5.5 0 01.854-.353l1.682 1.683a1 1 0 001.414-1.414l-3.537-3.537a1.997 1.997 0 00-2.826 0L8.05 13.778a1.001 1.001 0 001.415 1.415l1.681-1.681a.5.5 0 01.854.353V18H1a1 1 0 000 2h18a1 1 0 000-2M1 2h5v4.137a.5.5 0 01-.854.353L3.464 4.807A1 1 0 002.05 6.221l3.537 3.537a1.997 1.997 0 002.826 0l3.537-3.536c.39-.391.39-1.024 0-1.415a1.002 1.002 0 00-1.415 0L8.854 6.488A.5.5 0 018 6.135V2h11a1 1 0 000-2H1a1 1 0 000 2"/></svg>