<svg xmlns="http://www.w3.org/2000/svg" viewBox="0 0 20 20"><path fill-rule="evenodd" d="M10 12c-1.103 0-2-.897-2-2s.897-2 2-2 2 .897 2 2-.897 2-2 2zm10-2.01l-3.536-3.535-1.414 1.414L16.181 9h-2.322C13.496 8 12.401 6.504 11 6.141V3.819l1.131 1.131 1.414-1.414L10.01 0 10 .01 9.99 0 6.455 3.536 7.869 4.95 9 3.819v2.322C7.599 6.504 6.504 8 6.141 9H3.819L4.95 7.869 3.536 6.455 0 9.99l.01.01-.01.01 3.536 3.535 1.414-1.414L3.819 11h2.322c.363 1 1.458 2.496 2.859 2.859v2.322L7.869 15.05l-1.414 1.414L9.99 20l.01-.01.01.01 3.535-3.536-1.414-1.414L11 16.181v-2.322C12.401 13.496 13.496 12 13.859 11h2.322l-1.131 1.131 1.414 1.414L20 10.01l-.01-.01.01-.01z"/></svg>