<svg xmlns="http://www.w3.org/2000/svg" viewBox="0 0 20 20"><path fill-rule="evenodd" d="M5.415 5.424c-.78.78-2.046.78-2.824 0a2.004 2.004 0 010-2.828 1.995 1.995 0 012.824 0 2.004 2.004 0 010 2.828zM14.59 2.58a1.995 1.995 0 012.824 0 2.004 2.004 0 010 2.828c-.78.78-2.046.78-2.824 0a2.004 2.004 0 010-2.828zm3.428 14.032l-6.587-6.6 2.568-2.571c1.02.39 3.52.703 4.833-.613a4.01 4.01 0 00-.003-5.66 3.982 3.982 0 00-5.642.006C11.873 2.49 11.49 4.3 12.586 6.03L10.021 8.6 7.443 6.017c.391-1.023.703-3.526-.611-4.843a3.992 3.992 0 00-5.65.004 3.998 3.998 0 00.006 5.65c1.314 1.318 3.12 1.702 4.846.603l2.577 2.58-6.603 6.615-.007-1.606-1.999-.011L0 20h5.004l.006-1.979-1.59.013 6.6-6.624L16.612 18h-1.603l-.01 2h4.966v-4.972l-1.968-.007.021 1.592z"/></svg>