<svg xmlns="http://www.w3.org/2000/svg" viewBox="0 0 20 20"><path fill-rule="evenodd" d="M3.999 18c-1.103 0-2-.897-2-2s.897-2 2-2 2 .897 2 2-.897 2-2 2m1-5.86V2.997l.424.424a1 1 0 001.414-.001.998.998 0 00-.002-1.414L5.409.583a1.997 1.997 0 00-2.82 0l-1.426 1.42A1 1 0 102.576 3.42L3 2.996v9.145a4 4 0 00-2.891 4.808 3.972 3.972 0 002.937 2.94A4.007 4.007 0 008 16c0-1.861-1-3.412-3-3.858M16 18c-1.103 0-2-.897-2-2s.897-2 2-2 2 .897 2 2-.897 2-2 2m1-5.86V2.997l.424.424a.999.999 0 101.412-1.415L17.41.583a1.997 1.997 0 00-2.82 0l-1.426 1.42a1 1 0 101.412 1.417L15 2.996v9.145a4 4 0 00-2.891 4.808 3.975 3.975 0 002.937 2.94A4.006 4.006 0 0020 16c0-1.861-1-3.412-3-3.858"/></svg>