<svg xmlns="http://www.w3.org/2000/svg" viewBox="0 0 20 28"><path fill-rule="evenodd" d="M20 14.871v6.94a1.992 1.992 0 01-2 1.984H4.207a.495.495 0 00-.353.846l1.682 1.667a.986.986 0 010 1.402 1.008 1.008 0 01-1.415 0L.586 24.204a1.97 1.97 0 010-2.803l3.535-3.506a1.008 1.008 0 011.415 0 .987.987 0 010 1.403l-1.682 1.667a.495.495 0 00.353.847H17c.552 0 1-.445 1-.992v-5.95a.996.996 0 011-.991c.552 0 1 .444 1 .991M0 13.13V6.19c0-1.094.895-2.222 2-2.222h13.793c.445 0 .668-.415.353-.727l-1.682-1.547a.987.987 0 010-1.403 1.007 1.007 0 011.415 0c.552.548 2.988 2.963 3.535 3.502a1.967 1.967 0 010 2.8l-3.535 3.499a1.008 1.008 0 01-1.415-.015 1.023 1.023 0 010-1.433l1.682-1.727c.315-.312.092-.967-.353-.967H3c-.552 0-1 .684-1 1.232v5.948a.995.995 0 01-1 .992c-.552 0-1-.444-1-.992"/></svg>