<svg xmlns="http://www.w3.org/2000/svg" viewBox="0 0 20 15"><path fill-rule="evenodd" d="M11.865 5.285l5.328 5.379c.314.315.812.092.812-.353V7.999c0-.552.485-1 1.036-1h-.02c.552 0 .979.448.979 1v5C20 14.104 19.182 15 18.081 15h-4.986c-.55 0-1.073-.199-1.073-.751v.125c0-.552.522-1.374 1.073-1.374h2.438a.5.5 0 00.353-.854l-4.725-4.738a.995.995 0 00-1.41 0l-.411.412a1.992 1.992 0 01-2.821 0L.239 1.706C-.151 1.316.054.686.054.296V.294C1.051-.097 1.26-.098 1.65.293l5.483 5.405c.39.39 1.067.39 1.457-.001l.43-.41a2.018 2.018 0 012.846-.002"/></svg>