<svg xmlns="http://www.w3.org/2000/svg" viewBox="0 0 20 20"><path fill-rule="evenodd" d="M19.254 19.177a1.055 1.055 0 00-.031-1.448L10.627 9h.001L2.043.689A1.007 1.007 0 00.631 2.125l8.583 8.578-.001.002 8.512 8.51c.427.427 1.124.41 1.529-.038zM16.657 2l-3.938 3.88a.989.989 0 000 1.413.971.971 0 001.39.001L18 3.416V7c0 .552.505 1 1.066 1h-.02c.56 0 .954-.448.954-1V1.998C20 .895 19.213 0 18.093 0h-5.078C12.455 0 12 .448 12 1s.455 1 1.015 1h3.642zM3.323 18l3.938-3.88a.99.99 0 00.001-1.414.96.96 0 00-1.381 0L2 16.584V13c0-.552-.525-1-1.085-1h.02C.374 12 0 12.448 0 13v5.002C0 19.105.767 20 1.888 20h5.077c.561 0 1.015-.448 1.015-1s-.454-1-1.015-1H3.323z"/></svg>