<svg xmlns="http://www.w3.org/2000/svg" viewBox="0 0 20 15"><path fill-rule="evenodd" d="M8.33 5.286l-5.418 5.38c-.313.314-.928.091-.928-.354V8c0-.552-.362-1-.91-1h-.042C.485 7 0 7.448 0 8v5c0 1.105 1.053 2 2.148 2h4.959c.547 0 .827-.51.827-1.062v-.032c0-.552-.28-.906-.827-.906H4.682a.5.5 0 01-.351-.854L9.03 7.41a.985.985 0 011.402 0l.409.412c.774.781 2.03.781 2.806 0l6.062-6.114a1.005 1.005 0 000-1.414.985.985 0 00-1.402 0L12.945 5.7a.986.986 0 01-1.403 0l-.406-.41a1.971 1.971 0 00-2.806-.003"/></svg>