<svg xmlns="http://www.w3.org/2000/svg" viewBox="0 0 16 18"><path fill-rule="evenodd" d="M8.035 7C7.48 7 7.03 7.448 7.03 8v3h5.021c.555 0 1.005-.5 1.005-1.052V9.92c0-.552-.45-.921-1.005-.921H9.04V8c0-.552-.45-1-1.004-1m6.953 3c-.5 0-.917.367-.988.859-.48 3.309-3.68 5.755-7.264 5.005-2.274-.476-4.113-2.307-4.59-4.571C1.328 7.423 4.287 4 8.034 4v2l5.022-3-5.022-3v2C3.07 2-.843 6.483.157 11.605c.608 3.119 3.133 5.633 6.266 6.239 4.747.918 8.947-2.328 9.567-6.718.085-.596-.398-1.126-1.002-1.126"/></svg>