<svg xmlns="http://www.w3.org/2000/svg" viewBox="0 0 20 28"><path fill-rule="evenodd" d="M15.879 18.004a1.011 1.011 0 00-1.414 0 .97.97 0 000 1.39l1.682 1.534c.315.31.092.72-.354.72h-3.069c-.02 0-3.831-3.69-3.845-3.704-.391-.384-1.024-.354-1.414.03a.988.988 0 000 1.405l1.682 1.541c.315.31.092.727-.354.727H3c-.552 0-1-.201-1-.744V7.142c0-.544.448-1.222 1-1.222h5.793c.446 0 .669.649.354.959L7.465 8.592a1.005 1.005 0 000 1.42c.39.384 1.023.398 1.414.014l3.536-3.587c.125-.124.223-.519.309-.519h3.069c.446 0 .669.649.354.959l-1.682 1.713a1.005 1.005 0 000 1.42c.39.384 1.023.398 1.414.014l3.536-3.468a1.937 1.937 0 000-2.776c-.548-.534-2.984-2.93-3.536-3.473a1.012 1.012 0 00-1.414 0 .971.971 0 000 1.391l1.682 1.535c.315.31.092.72-.354.72h-3.069c-.086 0-.184-.165-.309-.289C11.866 3.22 9.388.776 8.879.281a1.011 1.011 0 00-1.414.015.98.98 0 000 1.397l1.682 1.538c.315.31.092.723-.354.723H2c-1.104 0-2 1.119-2 2.205v15.727c0 1.085.896 1.727 2 1.727h6.793c.446 0 .669.649.354.959l-1.682 1.713a1.005 1.005 0 000 1.42c.39.384 1.023.398 1.414.014 3.597-3.527 3.01-2.894 3.536-3.583.125-.124.223-.523.309-.523h3.069c.446 0 .669.649.354.959l-1.682 1.713a1.005 1.005 0 000 1.42c.39.384 1.023.398 1.414.014.551-.54 2.989-2.932 3.536-3.464a1.94 1.94 0 000-2.778l-3.536-3.473z"/></svg>