<svg xmlns="http://www.w3.org/2000/svg" viewBox="0 0 20 20"><path fill-rule="evenodd" d="M10 12c-1.103 0-2-.897-2-2s.897-2 2-2 2 .897 2 2-.897 2-2 2zm7.996-4.838a1 1 0 10-1.415 1.414l.423.424h-3.145c-.363-1-1.458-2.496-2.86-2.86V2.994l.425.424a.999.999 0 101.414-1.414L11.41.583a2 2 0 00-2.822 0l-1.427 1.42a.999.999 0 101.414 1.414L9 2.993V6.14C7.599 6.504 6.504 8 6.14 9H2.997l.424-.424a1 1 0 00-1.416-1.414L.583 8.589a2 2 0 000 2.822l1.42 1.427a1 1 0 101.416-1.414L2.996 11H6.14c.363 1 1.458 2.496 2.859 2.859v3.148l-.424-.424a.999.999 0 10-1.414 1.414l1.427 1.42a2 2 0 002.822 0l1.427-1.42a.999.999 0 10-1.414-1.414l-.424.424v-3.148c1.4-.363 2.496-1.86 2.859-2.86h3.145l-.424.425a1 1 0 001.416 1.414l1.42-1.427a2 2 0 000-2.822l-1.42-1.427z"/></svg>