<svg xmlns="http://www.w3.org/2000/svg" viewBox="0 0 12 20"><path fill-rule="evenodd" d="M5.906 11h.047C5.401 11 5 11.448 5 12v1H3.812c-.552 0-.812.348-.812.9v-.05c0 .553.26 1.15.812 1.15H5v1c0 .552.354 1 .906 1h.047C6.505 17 7 16.552 7 16v-1h.812C8.365 15 9 14.453 9 13.9v-.05c0-.55-.635-.85-1.188-.85H7v-1c0-.552-.542-1-1.094-1zM10 17c0 .552-.635 1-1.188 1h-6C2.26 18 2 17.552 2 17V6.113c0-.135-.04-.264.057-.358L5.161 2.68a.971.971 0 011.373 0l3.233 3.074c.096.094.233.223.233.358V17zm1.604-12.235L7.256.568a2.031 2.031 0 00-2.817 0L.219 4.765C.026 4.953 0 5.21 0 5.48V18c0 1.105.708 2 1.812 2h8C10.917 20 12 19.105 12 18V5.48c0-.27-.203-.527-.396-.715z"/></svg>