<svg xmlns="http://www.w3.org/2000/svg" viewBox="0 0 20 20"><path fill-rule="evenodd" d="M18 16.001c0 1.103-.897 2-2 2s-2-.897-2-2 .897-2 2-2 2 .897 2 2M12.14 15H2.997l.424-.423a1 1 0 00-.001-1.414.998.998 0 00-1.414.002L.583 14.591a1.997 1.997 0 000 2.82l1.42 1.426a1 1 0 101.417-1.413L2.996 17h9.145a4 4 0 004.808 2.891 3.972 3.972 0 002.94-2.937A4.006 4.006 0 0016 12.001c-1.861 0-3.412.999-3.858 2.999M18 4c0 1.103-.897 2-2 2s-2-.897-2-2 .897-2 2-2 2 .897 2 2m-5.86-1H2.997l.424-.424a.999.999 0 10-1.415-1.412L.583 2.59a1.997 1.997 0 000 2.82l1.42 1.426A1 1 0 103.42 5.424L2.996 5h9.145a4 4 0 004.808 2.891 3.975 3.975 0 002.94-2.937A4.006 4.006 0 0016 0c-1.861 0-3.412 1-3.858 3"/></svg>