<svg xmlns="http://www.w3.org/2000/svg" viewBox="0 0 20 24"><path fill-rule="evenodd" d="M1.974 0C.884 0 0 .875 0 1.954V17.82a1.99 1.99 0 002 1.98h6.767c.445 0 .668.534.353.845l-1.682 1.666a.984.984 0 000 1.4 1.01 1.01 0 001.415 0c.38-.377 3.576-3.453 3.844-3.911h3.07c.445 0 .668.534.353.845l-1.682 1.666a.984.984 0 000 1.4 1.01 1.01 0 001.415 0l3.535-3.501a1.966 1.966 0 000-2.8l-3.535-3.5a1.01 1.01 0 00-1.415 0 .984.984 0 000 1.4l1.682 1.664a.495.495 0 01-.353.846h-3.07a1.949 1.949 0 00-.309-.41l-3.535-3.5a1.01 1.01 0 00-1.415 0 .984.984 0 000 1.4l1.682 1.664a.495.495 0 01-.353.846H2.974A.969.969 0 012 16.857V2.97c0-.546.448-.99 1-.99h14c.553 0 1 .444 1 .99v5.94c0 .546.448.99 1 .99.553 0 1-.444 1-.99V1.98A1.99 1.99 0 0018 0H1.974z"/></svg>