<svg xmlns="http://www.w3.org/2000/svg" viewBox="0 0 20 20"><path fill-rule="evenodd" d="M16.002 2c1.103 0 2 .897 2 2s-.897 2-2 2-2-.897-2-2 .897-2 2-2m-1.003 5.86v9.144l-.422-.424a1 1 0 00-1.414.001h.001a.999.999 0 00.001 1.414l1.427 1.422c.779.777 2.04.777 2.82 0l1.426-1.42a1 1 0 10-1.414-1.417l-.425.424V7.86c2-.52 3.413-2.543 2.892-4.808a3.97 3.97 0 00-2.936-2.94A4.008 4.008 0 0012 4c0 1.861.999 3.412 2.999 3.858M4.001 2c1.103 0 2 .897 2 2s-.897 2-2 2-2-.897-2-2 .897-2 2-2M2.999 7.86v9.144l-.423-.424a.999.999 0 10-1.412 1.415l1.427 1.422c.779.777 2.04.777 2.82 0l1.426-1.42a1 1 0 10-1.413-1.417l-.425.424V7.86c2-.52 3.413-2.543 2.892-4.808A3.973 3.973 0 004.954.111 4.007 4.007 0 000 4c0 1.861.999 3.412 2.999 3.858"/></svg>