<svg xmlns="http://www.w3.org/2000/svg" viewBox="0 0 20 20"><path fill-rule="evenodd" d="M5.42 17.415a1.997 1.997 0 11-2.825-2.823 1.997 1.997 0 012.825 2.823m0-11.986a1.997 1.997 0 11-2.825-2.823A1.997 1.997 0 015.42 5.429m13.564 9.569a1 1 0 00-1.001.997v.598l-6.588-6.583 6.588-6.582v.598c0 .55.46.966 1.012.966H19a.987.987 0 001-.984l-.002-2.01A2 2 0 0018.006 0h-2.012a1 1 0 00-1 .997 1 1 0 00.999 1h.598l-6.588 6.592L7.44 6.031A3.984 3.984 0 006.085.598 3.97 3.97 0 001.933.597a3.999 3.999 0 00-.752 6.244 3.99 3.99 0 004.845.606l2.565 2.563-2.565 2.563a3.99 3.99 0 00-5.438 1.354 3.962 3.962 0 00-.003 4.15 4.004 4.004 0 006.247.75 3.98 3.98 0 00.607-4.842l2.564-2.58 6.588 6.566h-.598c-.552 0-1.007.474-1.007 1.026V19c0 .552.452 1 1.004.999l2.006-.002a1.988 1.988 0 001.985-1.99v-2.01c0-.553-.445-1-.997-1"/></svg>