<svg xmlns="http://www.w3.org/2000/svg" viewBox="0 0 20 24"><path fill-rule="evenodd" d="M2 2.754c0-.551.403-.756.955-.756h16c.552 0 1.045-.568 1.045-1.12v.06C20 .387 19.507 0 18.955 0h-17C.85 0 0 .651 0 1.755V17.74c0 1.104.85 2.241 1.955 2.241h6.793c.445 0 .668.417.353.732l-1.682 1.62a.963.963 0 000 1.382c.391.39 1.024.374 1.415-.015.468-.469 2.986-3.056 3.535-3.423.288-.287.143-.296.523-.296h2.856c.445 0 .668.417.353.732l-1.682 1.62a.963.963 0 000 1.382c.391.39 1.024.374 1.415-.015l3.535-3.544a1.999 1.999 0 000-2.827l-3.535-3.534a1 1 0 10-1.415 1.413l1.682 1.801c.315.315.092.974-.353.974h-3.07c-.085 0-.183-.41-.309-.535l-3.535-3.593c-.391-.39-1.024-.42-1.415-.03a.981.981 0 000 1.398l1.682 1.793c.315.315.092.967-.353.967H2.955c-.552 0-.955-.69-.955-1.242V2.754z"/></svg>