<svg xmlns="http://www.w3.org/2000/svg" viewBox="0 0 20 20"><path fill-rule="evenodd" d="M6.768 1v5h-2.7c-.432 0-.647-.539-.343-.854l1.627-1.682a1.023 1.023 0 000-1.414.945.945 0 00-1.367 0L.565 5.587a2.048 2.048 0 000 2.826l3.42 3.537c.377.39.99.39 1.367-.001a1.023 1.023 0 000-1.414L3.727 8.854C3.422 8.539 3.638 8 4.069 8h2.699v11c0 .552.433 1 .966 1 .534 0 .967-.448.967-1V1c0-.552-.433-1-.967-1-.533 0-.966.448-.966 1m5.8 18v-5h3.365c.43 0 .646.539.342.854l-1.627 1.682a1.023 1.023 0 000 1.414c.377.39.989.39 1.367 0l3.42-3.537a2.048 2.048 0 000-2.826l-3.42-3.537a.945.945 0 00-1.367 0 1.025 1.025 0 000 1.415l1.625 1.681c.305.315.089.854-.342.854h-3.363V1c0-.552-.433-1-.967-1-.533 0-.966.448-.966 1v18c0 .552.433 1 .966 1 .534 0 .967-.448.967-1"/></svg>