<svg xmlns="http://www.w3.org/2000/svg" viewBox="0 0 20 28"><path fill-rule="evenodd" d="M5.5 14.745h9c1.933 0 3.5 1.66 3.5 3.56v-.06c0 1.9-1.567 3.381-3.5 3.381H4.207c-.445 0-.668-.41-.353-.72l1.682-1.594a.936.936 0 000-1.36 1.013 1.013 0 00-1.415.015L.586 21.45a1.947 1.947 0 000 2.784s-.08-.077 3.535 3.478a1.013 1.013 0 001.415 0 .972.972 0 000-1.39L3.854 24.55c-.315-.31-.092-.958.353-.958h9.856c3.951 0 5.937-2.626 5.937-5.287v-.06c0-2.986-2.462-5.466-5.5-5.466h-9c-1.933 0-3.5-1.421-3.5-3.321v-.059c0-1.9 1.567-3.5 3.5-3.5h10.293c.445 0 .668.648.353.958l-1.682 1.712a1.008 1.008 0 000 1.42c.391.385 1.024.4 1.415.015l3.535-3.467a1.937 1.937 0 000-2.776L15.879.288a1.013 1.013 0 00-1.415 0 .973.973 0 000 1.39l1.682 1.535c.315.31.092.72-.353.72H5.5c-3.038 0-5.5 2.54-5.5 5.525v-.059c0 2.985 2.462 5.346 5.5 5.346"/></svg>