<svg xmlns="http://www.w3.org/2000/svg" viewBox="0 0 20 20"><path fill-rule="evenodd" d="M16.408 11.776a25.936 25.936 0 01-4.634 4.628c1.427.824 4.775 2.318 5.86 1.233.74-.74.4-3.056-1.226-5.86m-6.406 3.474a24.504 24.504 0 005.245-5.245 24.481 24.481 0 00-5.245-5.245 24.486 24.486 0 00-5.247 5.245 24.486 24.486 0 005.247 5.245m-1.774 1.153a25.938 25.938 0 01-4.634-4.628c-1.626 2.805-1.967 5.12-1.226 5.861 1.075 1.074 4.394-.385 5.86-1.233M3.594 8.236A25.904 25.904 0 018.228 3.61c-1.425-.825-4.774-2.32-5.86-1.234-.74.74-.4 3.056 1.226 5.861m8.18-4.627a25.904 25.904 0 014.634 4.627c3.61-6.227.88-7.814-4.634-4.627m5.89 6.397c5.434 8.491.764 13.059-7.662 7.668-8.407 5.378-13.116.851-7.663-7.668-5.397-8.432-.847-13.111 7.663-7.668 8.423-5.388 13.101-.83 7.662 7.668m-6.599-1.06a1.497 1.497 0 11-2.119 2.116 1.497 1.497 0 012.12-2.116"/></svg>