<svg xmlns="http://www.w3.org/2000/svg" viewBox="0 0 22 22"><path fill-rule="evenodd" d="M22 19a1 1 0 01-1 1h-1c0 1 .105 2-1 2-1.093 0-1-1-1-2-1 0-2 .105-2-1 0-1.093 1-1 2-1 0-1-.105-2 1-2 1.104 0 1 1 1 2 1 0 2-.105 2 1zM13 6H7V5c0-1.654 1.346-3 3-3s3 1 3 3v1zm3.694 2.859l.794 5.559a2.926 2.926 0 011.966-.38l-.903-6.321A2 2 0 0016.571 6h-1.57V5c0-3-2.244-5-5-5-2.758 0-5 2.243-5 5v1H3.734C2.74 6 1.59 6.732 1.45 7.717l-1.429 10A2 2 0 002 20h12v-2H3.153a1 1 0 01-.99-1.141l1.143-8C3.377 8.366 3.8 8 4.296 8H5v2a1 1 0 002 0V8h6v2a1 1 0 002 0V8h.704a1 1 0 01.99.859z"/></svg>