<svg xmlns="http://www.w3.org/2000/svg" viewBox="0 0 21 21"><path fill-rule="evenodd" d="M20.712 19.295a.977.977 0 010 1.385c-.76.76-1.367.02-2.08-.692l-.693.692a.982.982 0 01-1.387 0c-.76-.76-.02-1.365.693-2.077l-.693-.692a.979.979 0 010-1.385c.76-.76 1.367-.02 2.08.693l.694-.693a.98.98 0 011.386 1.385l-.693.692.693.692zM12.75 5.875H6.865v-.98a2.943 2.943 0 012.942-2.937c1.622 0 2.942.98 2.942 2.938v.979zm4.4 8.242c.437-.257.941-.41 1.484-.41.15 0 .299.015.445.037l-.886-6.188a1.96 1.96 0 00-1.941-1.681H14.71v-.98C14.71 1.959 12.51 0 9.807 0a4.905 4.905 0 00-4.903 4.896v.979H3.662c-.976 0-2.102.716-2.24 1.68L.02 17.348a1.96 1.96 0 001.942 2.235H13.9c-.109 0-.17-.635-.17-.979 0-.343.061-.979.17-.979H3.092a.98.98 0 01-.97-1.118l1.12-7.833a.98.98 0 01.971-.84h.69V9.79a.98.98 0 001.962 0V7.833h5.884V9.79a.98.98 0 001.961 0V7.833h.69a.98.98 0 01.97.84l.78 5.444z"/></svg>