<svg xmlns="http://www.w3.org/2000/svg" viewBox="0 0 24 24"><path fill-rule="evenodd" d="M8.947 10.234l4.085 2.539a.506.506 0 010 .866l-4.085 2.54a.511.511 0 01-.777-.434v-5.077a.51.51 0 01.777-.434zm4.33-4.139H7.148V5.08a3.06 3.06 0 013.063-3.047c1.69 0 3.064 1.016 3.064 3.047v1.016zM17.048 9l.75 5.223a6.134 6.134 0 012.01-.376l-.863-6.007a2.039 2.039 0 00-2.023-1.744H15.32V5.08c0-3.047-2.29-5.079-5.107-5.079-2.815 0-5.106 2.279-5.106 5.08v1.015H3.814c-1.016 0-2.19.744-2.335 1.744L.021 18a2.036 2.036 0 002.022 2.318h11.763a3.38 3.38 0 01-.019-.38c0-.573.086-.635.234-1.651H3.22a1.018 1.018 0 01-1.011-1.16L3.376 9a1.02 1.02 0 011.011-.872h.718v2.032c0 .56.457 1.016 1.021 1.016a1.02 1.02 0 001.022-1.016V8.127h6.127v2.032c0 .56.458 1.016 1.022 1.016.564 0 1.02-.456 1.02-1.016V8.127h.72c.509 0 .94.372 1.011.872zm2.866 12.97a2.04 2.04 0 01-2.043-2.032 2.04 2.04 0 012.043-2.032 2.04 2.04 0 012.042 2.032 2.04 2.04 0 01-2.042 2.031zm0-6.096c-2.256 0-4.085 1.82-4.085 4.064 0 2.244 1.829 4.063 4.085 4.063C22.17 24 24 22.18 24 19.937c0-2.245-1.83-4.064-4.085-4.064z"/></svg>