<svg xmlns="http://www.w3.org/2000/svg" viewBox="0 0 12 16"><path fill-rule="evenodd" d="M3.837 10.021C2.981 8.931 2 6.79 2 5.851 2 3.728 3.794 2 6 2c2.205 0 4 1.728 4 3.851 0 .939-.982 3.08-1.838 4.17-2.681-.027-1.694-.027-4.325 0m5.51 1.678C10.579 10.388 12 7.482 12 5.851 12 2.62 9.313 0 6 0 2.686 0 0 2.62 0 5.851c0 1.631 1.42 4.537 2.652 5.848.463.492 1.067.323 2.348.31V14H4c-.553 0-1 .48-1 1.032v.017c0 .552.447.951 1 .951h4c.549 0 .993-.412.998-.96C8.993 14.492 8.549 14 8 14H7v-1.991c1.28.013 1.885.182 2.347-.31"/></svg>