<svg xmlns="http://www.w3.org/2000/svg" viewBox="0 0 20 20"><path fill-rule="evenodd" d="M16.5 14.624c-.756-1.055-1.261-2.646-1.431-3.646h2.862c-.17 1-.675 2.591-1.431 3.646zM11 17.931v-6.953h2.05c.192 2 .938 3.703 2.069 5.152A7.984 7.984 0 0111 17.931zm0-15.862a7.956 7.956 0 014.119 1.779c-1.131 1.449-1.877 3.13-2.069 5.13H11V2.069zm6.931 6.909h-2.862c.17-1 .675-2.591 1.431-3.646.756 1.055 1.261 2.646 1.431 3.646zM9 8.978H6.95c-.192-2-.938-3.681-2.069-5.13A7.956 7.956 0 019 2.069v6.909zm0 8.953a7.984 7.984 0 01-4.119-1.801c1.131-1.449 1.877-3.152 2.069-5.152H9v6.953zm-6.931-6.953h2.862c-.17 1-.675 2.591-1.431 3.646-.756-1.055-1.261-2.646-1.431-3.646zM3.5 5.332c.756 1.055 1.261 2.646 1.431 3.646H2.069c.17-1 .675-2.591 1.431-3.646zm14.381-1.473A10.018 10.018 0 0016.5 2.41 9.953 9.953 0 0010 0a9.953 9.953 0 00-6.5 2.41c-.508.435-.969.921-1.381 1.449A9.948 9.948 0 000 10c0 2.318.796 4.445 2.119 6.141.412.528.873 1.014 1.381 1.449A9.953 9.953 0 0010 20a9.953 9.953 0 006.5-2.41c.508-.435.969-.921 1.381-1.449A9.948 9.948 0 0020 10a9.948 9.948 0 00-2.119-6.141z"/></svg>