<svg xmlns="http://www.w3.org/2000/svg" viewBox="0 0 20 20"><path fill-rule="evenodd" d="M12.926 12.707c.097-.256.156-.524.156-.8 0-.936-.492-1.703-1.607-2.267.887-.503 1.283-1.019 1.283-1.798 0-.325-.068-.619-.189-.882C13.436 7.695 14 8.777 14 10a3.972 3.972 0 01-1.074 2.707M7.5 6.903a2.142 2.142 0 00-.259 1.034c0 .924.348 1.404 1.2 1.944-.936.407-1.524 1.127-1.524 2.074 0 .248.05.486.126.716A3.974 3.974 0 016 10c0-1.255.593-2.364 1.5-3.097m2.511.027c.636 0 .948.419.948 1.019 0 .468-.156.84-.707 1.236-.828-.312-1.212-.66-1.212-1.248 0-.659.348-1.007.971-1.007m0 6.081c-.803 0-1.199-.48-1.199-1.175 0-.66.3-1.141.792-1.451 1.115.394 1.583.683 1.583 1.51 0 .6-.348 1.116-1.176 1.116M10 4a6 6 0 100 12 6 6 0 000-12m0 14c-4.412 0-8-3.589-8-8s3.588-8 8-8c4.411 0 8 3.589 8 8s-3.589 8-8 8m0-18C4.477 0 0 4.477 0 10s4.477 10 10 10c5.522 0 10-4.477 10-10S15.522 0 10 0"/></svg>