<svg xmlns="http://www.w3.org/2000/svg" viewBox="0 0 16 20"><path fill-rule="evenodd" d="M10.815 12l.876-6h.974c.646 0 1.13.577 1.003 1.196l-.818 4a1.017 1.017 0 01-1.003.804h-1.032zm-7.141 1.141L2.338 4h7.6l-1.336 9.141A1.015 1.015 0 017.589 14H4.687c-.509 0-.94-.366-1.013-.859zm10.977-.749l1.316-6.431C16.175 4.947 15.38 4 14.323 4h-2.339l.293-2H7.16V1c0-.552-.55-1-1.115-1H6c-.566 0-.885.448-.885 1v1H0l1.794 12.283C1.94 15.268 2.802 16 3.82 16h1.295v2H3.07c-.566 0-1.023.448-1.023 1s.457 1 1.023 1h6.138c.564 0 1.023-.448 1.023-1s-.459-1-1.023-1H7.16v-2h1.295c1.017 0 1.881-.732 2.025-1.717l.041-.283h2.123c.975 0 1.815-.673 2.006-1.608z"/></svg>