<svg xmlns="http://www.w3.org/2000/svg" viewBox="0 0 20 20"><path fill-rule="evenodd" d="M10 16c-.552 0-1 2.448-1 3a1 1 0 002 0c0-.552-.448-3-1-3m-4.448-1.825c-.65 0-2.279 1.138-2.623 1.482a.999.999 0 101.414 1.414c.391-.39 1.805-2.438 1.414-2.828-.046-.047-.116-.068-.205-.068m8.896 0c-.089 0-.159.021-.205.068-.391.39 1.023 2.438 1.414 2.828a.997.997 0 001.414 0 .999.999 0 000-1.414c-.344-.344-1.973-1.482-2.623-1.482M1 9a1 1 0 000 2c.552 0 3-.448 3-1S1.552 9 1 9m18 0c-.552 0-3 .448-3 1s2.448 1 3 1a1 1 0 000-2m-9-3a4 4 0 100 8 4 4 0 000-8M3.636 2.636a.999.999 0 00-.707 1.707c.344.344 1.973 1.482 2.623 1.482.089 0 .159-.021.205-.068.391-.39-1.023-2.438-1.414-2.828a.997.997 0 00-.707-.293m12.728 0a.997.997 0 00-.707.293c-.391.39-1.805 2.438-1.414 2.828.046.047.116.068.205.068.65 0 2.279-1.138 2.623-1.482a.999.999 0 00-.707-1.707M10 0a1 1 0 00-1 1c0 .552.448 3 1 3s1-2.448 1-3a1 1 0 00-1-1m0 8c1.103 0 2 .897 2 2s-.897 2-2 2-2-.897-2-2 .897-2 2-2"/></svg>