<svg xmlns="http://www.w3.org/2000/svg" viewBox="0 0 20 20"><path fill-rule="evenodd" d="M10 14c-2.168 0-4-2.748-4-6s1.832-6 4-6 4 2.748 4 6-1.832 6-4 6m0 4c-.551 0-1-.449-1-1 0-.551.449-1 1-1 .551 0 1 .449 1 1 0 .551-.449 1-1 1M20 2V1a1 1 0 00-2 0v1a2 2 0 01-2 2h-.809C14.153 1.611 12.22 0 10 0 7.78 0 5.847 1.611 4.809 4H4a2 2 0 01-2-2V1a1 1 0 00-2 0v1a4 4 0 004 4h.197C4.073 6.64 4 7.308 4 8H1a1 1 0 000 2h3.197c.137.71.343 1.381.612 2H4a4 4 0 00-4 4v1a1 1 0 002 0v-1a2 2 0 012-2h2v-.049c.456.545.973 1 1.539 1.34A2.979 2.979 0 007 17a3 3 0 106 0c0-.636-.201-1.224-.539-1.709A6.16 6.16 0 0014 13.951V14h2a2 2 0 012 2v1a1 1 0 002 0v-1a4 4 0 00-4-4h-.809c.269-.619.475-1.29.612-2H19a1 1 0 000-2h-3c0-.692-.073-1.36-.197-2H16a4 4 0 004-4"/></svg>