<svg xmlns="http://www.w3.org/2000/svg" viewBox="0 0 20 20"><path fill-rule="evenodd" d="M14 3a1 1 0 00-1-1H7a1 1 0 00-1 1v14a1 1 0 001 1h6a1 1 0 001-1V3zm2 3v3h3a1 1 0 010 2h-3v3h2a2 2 0 012 2v3a1 1 0 01-2 0v-2a1 1 0 00-1-1h-1v2a2 2 0 01-2 2H6a2 2 0 01-2-2v-2H3a1 1 0 00-1 1v2a1 1 0 01-2 0v-3a2 2 0 012-2h2v-3H1a1 1 0 010-2h3V6H2a2 2 0 01-2-2V1a1 1 0 012 0v2a1 1 0 001 1h1V2a2 2 0 012-2h8a2 2 0 012 2v2h1a1 1 0 001-1V1a1 1 0 012 0v3a2 2 0 01-2 2h-2zm-4 8a1 1 0 100 2 1 1 0 000-2zm-3 1a1 1 0 11-2 0 1 1 0 012 0z"/></svg>