<svg xmlns="http://www.w3.org/2000/svg" viewBox="0 0 16 17"><path fill-rule="evenodd" d="M14 2V0h-2v2h-2v2h2v2h2V4h2V2h-2zm.117 10.578c-.695-.374-1.398-.8-2.125-1.097-1.405-.573-1.31 1.121-2.313 1.67-.652.357-1.572-.29-2.14-.648A10.102 10.102 0 014.93 10.1c-.375-.487-1.203-1.403-1.1-2.086.161-1.084 1.443-1.138 1.076-2.464-.196-.71-.547-1.409-.81-2.093-.352-.917-.497-1.504-1.524-1.454-.742.036-1.234.353-1.69.948C-.35 4.558-.165 6.725.664 8.488 1.838 10.983 3.85 13.335 6 14.855c1.462 1.034 3.388 1.973 5.158 2.132 1.296.117 3.11-.584 3.573-1.991l-.078.238.078-.238c.02-.056.031-.094.043-.13l-.042.127c.408-1.24.458-1.838-.614-2.415zm.656 2.288l.038-.115-.038.115z"/></svg>