<svg xmlns="http://www.w3.org/2000/svg" viewBox="0 0 20 20"><path fill-rule="evenodd" d="M18.82 6.203l-2.403-.024a.488.488 0 01-.34-.84l3.63-3.632A1 1 0 0018.293.293L14.66 3.925c-.315.315-.866.08-.865-.366l-.006-2.386c0-.552-.469-1.02-1.022-1.02a.999.999 0 00-.99 1.007l.003 5.006c0 1.103.898 2.001 2.002 2.001.78.005-.049.003 5.01.01a1 1 0 001.01-.992.97.97 0 00-.983-.982m-4.703 9.375c-.694-.374-1.398-.8-2.125-1.097-1.404-.573-1.309 1.12-2.313 1.67-1.424.78-6.058-3.736-5.849-5.137.162-1.084 1.445-1.139 1.078-2.464-.196-.71-.547-1.409-.81-2.093-.353-.917-.497-1.505-1.525-1.454-.74.036-1.234.353-1.69.947C-.35 7.557-.165 9.725.664 11.488c2.328 4.95 7.078 8.191 10.493 8.5 1.296.116 3.11-.586 3.573-1.992l-.079.238.08-.239.08-.244-.08.241c.408-1.24.457-1.837-.615-2.414m.535 2.656c-.012.036-.01.031 0 0m.16-.483c.007-.024.008-.026 0 0"/></svg>