<svg xmlns="http://www.w3.org/2000/svg" viewBox="0 0 20 20"><path fill-rule="evenodd" d="M13 7h2a1 1 0 000-2h-2a1 1 0 000 2zm6-7a1 1 0 00-1 1v2a1 1 0 002 0V1a1 1 0 00-1-1zm-3.293 4.487a.999.999 0 101.414-1.414l-1.414-1.414a.999.999 0 10-1.414 1.414l1.414 1.414zM18 10h-7.537a5.967 5.967 0 011.447 3H18v-3zm-8 4c0-2.206-1.794-4-4-4s-4 1.794-4 4 1.794 4 4 4 4-1.794 4-4zm8-6h2v7h-8.09A5.996 5.996 0 11.664 11.265 1.84 1.84 0 010 9.854C0 8.83.83 8 1.854 8a1.84 1.84 0 011.411.664A5.963 5.963 0 016 8h12zM8 14a2 2 0 11-3.999.001A2 2 0 018 14z"/></svg>