<svg xmlns="http://www.w3.org/2000/svg" viewBox="0 0 20 20"><path fill-rule="evenodd" d="M18 15h-.612c-.549-1-1.42-1.077-2.305-1.077-.352 0-1.083.142-1.083.253V13h4v2zm-2.833 2.845a1.001 1.001 0 010-2c.551 0 1 .449 1 1 0 .551-.449 1-1 1zM9.413 11l-.009-9h1.763l1 9H9.413zM12 15H9.65c-.204-1-.615-1.753-1.242-2H12v2zm-4.487 1.845a1.99 1.99 0 01-1.721 1 1.993 1.993 0 01-1.722-1 1.978 1.978 0 01-.278-1c0-.366.106-.705.278-1 .347-.595.985-1 1.722-1s1.374.405 1.721 1c.173.295.279.634.279 1s-.106.705-.279 1zm-5.346-2.669v-1.331h.99a4.045 4.045 0 00-.99 1.331zM2 2h5.404l.009 9H2V2zm12.167 9l-1-11H0v17h1.933c.446 2 1.997 3 3.859 3 1.861 0 3.412-1 3.858-3h2.517c0 2 1.343 3 3 3s3-1 3-3H20v-6h-5.833z"/></svg>