<svg xmlns="http://www.w3.org/2000/svg" viewBox="0 0 20 20"><path fill-rule="evenodd" d="M18 15h-.627c-.55-.61-1.412-1-2.297-1-.353 0-1.076.072-1.076.184V13h4v2zm-2.849 3c-.551 0-1-.449-1-1a1.001 1.001 0 111 1zm-5.516-3a4.01 4.01 0 00-1.242-2H12v2H9.635zm-2.137 2c-.347.595-.985 1-1.722 1a1.993 1.993 0 01-1.722-1 1.978 1.978 0 01-.278-1c0-.366.106-.705.278-1 .347-.595.985-1 1.722-1s1.375.405 1.722 1c.172.295.278.634.278 1s-.106.705-.278 1zm-5.347-2.669V13h.991a4.048 4.048 0 00-.991 1.331zM7.389 2l.009 9H2V2h5.389zM12 11H9.398l-.009-9H12v9zm2 0V0H0v17h1.918a3.99 3.99 0 003.858 3 3.991 3.991 0 003.859-3h2.516a3 3 0 106 0H20v-6h-6z"/></svg>