<svg xmlns="http://www.w3.org/2000/svg" viewBox="0 0 20 16"><path fill-rule="evenodd" d="M18 11h-.279c-.549-.61-1.586-1-2.471-1-.353 0-.25.072-1.25.184V9h3.5c.552 0 .5.448.5 1v1zm-2.5 3c-.551 0-1-.449-1-1 0-.551.449-1 1-1 .551 0 1 .449 1 1 0 .551-.449 1-1 1zM12 7H8V2h3.5c.552 0 .5.448.5 1v4zm0 4H7.721c-.549-.61-1.336-1-2.221-1s-1.672.39-2.221 1H2V9h10v2zm-6.5 3c-.551 0-1-.449-1-1 0-.551.449-1 1-1 .551 0 1 .449 1 1 0 .551-.449 1-1 1zM2 3a1 1 0 011-1h3v5H2V3zm16.5 4H14V2c0-1.105-.395-2-1.5-2h-10C1.395 0 0 .895 0 2v9c0 1.105 1.145 2 2.25 2 0 1.657 1.468 3 3.125 3S8.5 14.657 8.5 13h4a3 3 0 003 3c1.657 0 2.75-1.343 2.75-3 1.105 0 1.75-.895 1.75-2V9c0-1.105-.395-2-1.5-2z"/></svg>