<svg xmlns="http://www.w3.org/2000/svg" viewBox="0 0 20 20"><path fill-rule="evenodd" d="M18 15h-.779c-.549-1-1.336-1-2.221-1-.353 0-.686.072-1 .184V13h3a1 1 0 011 1v1zm-3 3c-.551 0-1-.449-1-1 0-.551.449-1 1-1 .551 0 1 .449 1 1 0 .551-.449 1-1 1zm-3-7H8V2h3a1 1 0 011 1v8zm0 4H7.221C6.672 14 5.885 14 5 14s-1.672 0-2.221 1H2v-2h10v2zm-7 3c-.551 0-1-.449-1-1 0-.551.449-1 1-1 .551 0 1 .449 1 1 0 .551-.449 1-1 1zM2 3a1 1 0 011-1h3v9H2V3zm16 8h-4V2a2 2 0 00-2-2H2a2 2 0 00-2 2v13a2 2 0 002 2 3 3 0 003 3c1.657 0 3-1 3-3h4c0 2 1.343 3 3 3a3 3 0 003-3 2 2 0 002-2v-2a2 2 0 00-2-2z"/></svg>