<svg xmlns="http://www.w3.org/2000/svg" viewBox="0 0 20 20"><path fill-rule="evenodd" d="M5.828 3.586L4.414 2.172 3 3.586 1.585 2.172.171 3.586 1.585 5 .171 6.414l1.414 1.415L3 6.414l1.414 1.415 1.414-1.415L4.414 5l1.414-1.414zM20 0h-6v12H2v2.184A2.99 2.99 0 000 17a3 3 0 106 0 2.992 2.992 0 00-2-2.816V14h10v.184A2.99 2.99 0 0012 17a3 3 0 106 0 2.992 2.992 0 00-2-2.816V2h4V0zM3 15.951c.547.195 1 .389 1 1.049a1.001 1.001 0 01-2 0c0-.66.452-.854 1-1.049zm12 0c.547.195 1 .389 1 1.049a1.001 1.001 0 01-2 0c0-.66.452-.854 1-1.049z"/></svg>