<svg xmlns="http://www.w3.org/2000/svg" viewBox="0 0 20 20"><path fill-rule="evenodd" d="M5.099 5.707a1.001 1.001 0 01-1.416 1.414l-.709-.707-.708.707a1.003 1.003 0 01-1.417 0 1 1 0 010-1.414L1.557 5 .85 4.293a1 1 0 010-1.414 1.003 1.003 0 011.417 0l.708.707.708-.707A1.001 1.001 0 015.1 4.293L4.39 5l.709.707zM14.992 18c-1.001 0-1.634-1.469 0-2.049.548.194 1.002.388 1.002 1.049 0 .551-.45 1-1.002 1zM2.974 18a1.002 1.002 0 01-1.001-1c0-.661.452-.855 1.001-1.049.548.194 1.002.388 1.002 1.049 0 .551-.45 1-1.002 1zM16.03 3c0-.552.413-1 .966-1h2.003a1.001 1.001 0 100-2h-3.004c-1.107 0-1.968.895-1.968 2v10H3.976c-1.002 0-1.968.727-1.968 2.184-1.002.475-2.266 1.857-1.962 3.416a2.995 2.995 0 002.371 2.348c1.908.347 3.584-1.107 3.584-2.948 0-1.304-.989-2.403-1.99-2.816V14h10.015v.184c-1.002.475-2.265 1.857-1.962 3.416a2.995 2.995 0 002.372 2.348c1.907.347 3.583-1.107 3.583-2.948 0-1.304-.988-2.403-1.99-2.816V3z"/></svg>