<svg xmlns="http://www.w3.org/2000/svg" viewBox="0 0 20 20"><path fill-rule="evenodd" d="M12.004 8a2 2 0 01-2.002 2H3.997a2 2 0 01-2.002-2V6a2 2 0 012.002-2h6.005a2 2 0 012.002 2v2zm2.992 10a1.002 1.002 0 01-1.001-1c0-.661.453-.855 1-1.049.549.194 1.001.388 1.001 1.049 0 .551-.448 1-1 1zM2.985 18a1.002 1.002 0 01-1.001-1c0-.661.453-.855 1-1.049.55.194 1.002.388 1.002 1.049 0 .551-.449 1-1.001 1zM16.007 3c0-.552.438-1 .99-1H19a1 1 0 100-2h-3.003a1.99 1.99 0 00-1.99 2v10H3.986c-1.105 0-2.003 1-2.003 2h.012v.184c-1 .475-2.252 1.857-1.949 3.416a3.003 3.003 0 005.949-.6c0-1.304-.997-2.403-1.998-2.816V14h10.009v.184c-1.001.475-2.252 1.857-1.95 3.416a3.003 3.003 0 005.95-.6c0-1.304-.998-2.403-1.999-2.816V3z"/></svg>