<svg xmlns="http://www.w3.org/2000/svg" viewBox="0 0 20 20"><path fill-rule="evenodd" d="M2.069 11H4a1 1 0 000-2H2.069c.183-1 .759-2.792 1.619-3.898L5.05 6.464A.999.999 0 106.464 5.05L5.102 3.688C6.208 2.828 8 2.252 9 2.069V4c0 .553.447 1 .999 1H10a1 1 0 001-1V2.069c1 .183 2.791.759 3.897 1.619L13.535 5.05a1 1 0 001.414 1.415l1.362-1.363C17.171 6.208 17.747 8 17.93 9h-1.931a1 1 0 000 2h1.931c-.183 1-.759 2.792-1.619 3.898l-1.362-1.362a1 1 0 00-1.414 1.414l1.362 1.362c-1.106.86-2.897 1.436-3.897 1.619V16a1 1 0 00-1-1h-.001A1 1 0 009 16v1.931c-1-.183-2.792-.759-3.898-1.619l1.362-1.362a.999.999 0 10-1.414-1.414l-1.362 1.362C2.828 13.792 2.252 12 2.069 11M10 0C4.477 0 0 4.477 0 10s4.477 10 10 10c5.522 0 10-4.477 10-10S15.522 0 10 0"/></svg>