<svg xmlns="http://www.w3.org/2000/svg" viewBox="0 0 20 20"><path fill-rule="evenodd" d="M2.069 11H5V9H2.069a7.953 7.953 0 011.619-3.898l2.069 2.07 1.414-1.415-2.069-2.069C6.208 2.828 8 2.252 9 2.069V5h2V2.069c1 .183 2.791.759 3.897 1.619l-2.069 2.069 1.414 1.415 2.069-2.07A7.953 7.953 0 0117.93 9H15v2h2.93a7.953 7.953 0 01-1.619 3.898l-2.069-2.07-1.414 1.415 2.069 2.069c-1.106.86-2.897 1.436-3.897 1.619V15H9v2.931c-1-.183-2.792-.759-3.898-1.619l2.069-2.069-1.414-1.415-2.069 2.07A7.953 7.953 0 012.069 11M10 0C4.477 0 0 4.477 0 10s4.477 10 10 10c5.522 0 10-4.477 10-10S15.522 0 10 0"/></svg>