<svg xmlns="http://www.w3.org/2000/svg" viewBox="0 0 22 20"><path fill-rule="evenodd" d="M5.657 15.61l-1.414 1.463 1.414 1.463L4.243 20l-1.414-1.463L1.414 20 0 18.536l1.414-1.463L0 15.61l1.414-1.463 1.415 1.463 1.414-1.463 1.414 1.463zm6.172.428c-1.103 0-2-.928-2-2.07 0-1.14.897-2.069 2-2.069 1.102 0 2 .93 2 2.07 0 1.14-.898 2.07-2 2.07zm0-6.208c-2.21 0-4 1.853-4 4.139 0 2.285 1.79 4.139 4 4.139 2.209 0 4-1.854 4-4.14 0-2.285-1.791-4.138-4-4.138zM9 4.139h6v-2.07H9v2.07zm12 0v-2.07h-2v2.07h-2V0H7v4.139H2v8.278h2V6.208h16v10.347h-2v2.07h4V4.139h-1z"/></svg>