<svg xmlns="http://www.w3.org/2000/svg" viewBox="0 0 20 14"><path fill-rule="evenodd" d="M15.163 4.869a1.003 1.003 0 00-1.418 0l-.71.708-.708-.708a1.004 1.004 0 00-1.419 0 1 1 0 000 1.416l.709.707-.709.708a1.002 1.002 0 101.419 1.417l.709-.708.709.708c.39.39 1.026.39 1.418 0a1 1 0 000-1.417l-.71-.708.71-.707a.999.999 0 000-1.416m2.694.896c-1.308-5.36-8.71-4.448-9.516-.487a21.78 21.78 0 00-.285 1.84.999.999 0 01-1.002.875 1.01 1.01 0 01-1.01-1.036l.022-.766a2.99 2.99 0 00-1.052-.2 3.01 3.01 0 00-2.958 3.56c.262 1.455 1.64 2.447 3.121 2.447h7.858v-.004c3.127-.05 5.62-2.968 4.822-6.229M20 6.992c0 3.834-2.953 6.943-6.964 7.003l-.03.003.03.002H5.014A5.009 5.009 0 010 8.995a5.01 5.01 0 015.014-5.006 4.94 4.94 0 011.544.268C9.523-2.716 20-.643 20 6.992m-6.964 4.99v.012c-.027 0-.053.004-.081.004.055 0 .08-.014.08-.016"/></svg>