<svg xmlns="http://www.w3.org/2000/svg" viewBox="0 0 20 17"><path fill-rule="evenodd" d="M16.456 4.356s-.703-1.868-2.559-3.145A6.83 6.83 0 0010.01 0C6.451 0 3.518 2.734 3.075 6.267c0 0-1.433.331-2.345 1.668-1.827 2.675-.039 6.28 3.28 6.44v-2.048a2.192 2.192 0 01-1.21-.439c-2.106-1.608.354-4.92 2.447-3.21-2.065-6.994 8.33-9.292 9.663-2.499 3.348-.124 4.37 4.772 1.1 5.962v2.088c5.244-1.27 5.244-8.375.446-9.873zm-2.91 6.828l-2.12 2.182 2.12 2.18L12.132 17l-2.122-2.18L7.89 17l-1.415-1.454 2.121-2.18-2.12-2.182L7.888 9.73l2.121 2.182 2.122-2.182 1.414 1.454z"/></svg>