<svg xmlns="http://www.w3.org/2000/svg" viewBox="0 0 20 20"><path fill-rule="evenodd" d="M6.551 4.256c-.488-.159-1-.267-1.542-.267A5.005 5.005 0 000 8.992a5.006 5.006 0 005.009 5.004h5.009v-2.002H5.172c-1.48 0-2.856-.992-3.118-2.447A3.007 3.007 0 015.009 5.99c.37 0 .722.076 1.05.2l-.02.765a1.01 1.01 0 001.01 1.037.999.999 0 001-.876c.06-.522.15-1.176.285-1.84.808-3.981 8.224-4.846 9.526.487.513 2.103-.83 4.057-1.832 5.197v2.358C18.032 12.198 20 9.791 20 6.991c0-7.6-10.476-9.73-13.449-2.735zm8.556 10.79l1.417 1.416L12.983 20l-3.541-3.538 1.416-1.415 1.163 1.161V4.99h2.004v11.138l1.082-1.081z"/></svg>