<svg xmlns="http://www.w3.org/2000/svg" viewBox="0 0 20 20"><path fill-rule="evenodd" d="M10.007 6.005L6.302 9.711l1.413 1.413 1.292-1.292V20h1.999V9.832l1.292 1.292 1.413-1.413-3.704-3.706zm8.274 6.7c-1.755 1.51-3.493 1.297-5.277 1.297v-2c1.856 0 2.72.137 3.725-.55 2.416-1.652 1.156-5.544-1.826-5.437-1.332-6.604-11.72-4.37-9.656 2.43-2.628-2.09-5.712 3.558-.13 3.558h1.892v2H4.212c-3.334 0-5.388-3.56-3.48-6.28.913-1.3 2.344-1.621 2.344-1.621.66-5.111 6.493-7.81 10.814-4.917 1.854 1.242 2.558 3.058 2.558 3.058 3.711 1.127 4.83 5.883 1.833 8.462z"/></svg>