<svg xmlns="http://www.w3.org/2000/svg" viewBox="0 0 21 20"><path fill-rule="evenodd" d="M18.846 3.088C15.314-1.79 8.747-.472 6.73 4.223c-1.23-.397-2.61-.472-4.243.673C1.077 5.884.104 7.432.184 9.138c.122 2.625 2.315 4.717 5.003 4.717h4.007c.55 0 .995-.396 1-.937-.005-.543-.45-1.042-1-1.042H5.351c-1.48 0-2.857-.982-3.12-2.42-.342-1.878 1.116-3.518 2.956-3.518.371 0 .723.075 1.05.197l-.02.757a1.005 1.005 0 001.01 1.025c.506 0 .943-.368 1-.866.06-.516.15-1.163.285-1.819.808-3.937 8.226-4.793 9.527.481.474 1.922-.637 3.718-1.599 4.87a.972.972 0 00-.233.628c0 .874 1.07 1.314 1.7.698 2.093-2.045 3.39-5.437.94-8.821zm-8.65 9.82l-.001.01.002.01v-.02zm7.013 2.696c0 .386.285 1.018-.106 1.405l-2.525 2.404c-.783.772-2.051.802-2.833.03l-2.419-2.33c-.391-.386-.391-1.279 0-1.279h-.002c.39-.99 1.028-.507 1.419-.12l.602.474c.315.312.855.091.855-.35v-9.9c0-.547.435-.99.988-.99h.005c.553 0 1.011.443 1.011.99v9.82c0 .442.539.663.855.351l.628-.512c.39-.386.52-.384 1.522.003v.004z"/></svg>