<svg xmlns="http://www.w3.org/2000/svg" viewBox="0 0 20 16"><path fill-rule="evenodd" d="M16.458 4.21s-.701-1.802-2.553-3.034C9.59-1.696 3.765.983 3.107 6.055c0 0-1.43.32-2.34 1.609-2.88 4.08 3.273 7.771 3.273 5.184 0-1.146-.419-.787-1.208-1.37-2.09-1.544.35-4.751 2.442-3.098-2.06-6.747 8.312-8.965 9.642-2.41 2.914-.105 4.427 3.788 1.58 5.496-1.098.659-.128 2.319.949 1.724 3.897-2.15 3.153-7.73-.987-8.98M12.85 11.5l-1.41 1.404 1.41 1.402a.989.989 0 010 1.403 1 1 0 01-1.41 0l-1.412-1.403-1.411 1.403a1 1 0 01-1.41 0 .989.989 0 010-1.403l1.41-1.402-1.41-1.404a.989.989 0 010-1.403 1.003 1.003 0 011.41 0l1.41 1.404 1.412-1.404a1.003 1.003 0 011.411 0 .989.989 0 010 1.403"/></svg>