<svg xmlns="http://www.w3.org/2000/svg" viewBox="0 0 20 16"><path fill-rule="evenodd" d="M16.445 4.302c-.023-.007-.029-.033-.023-.02C13.606-2.339 3.97-.958 3.064 6.199c0 0-1.433.329-2.345 1.655a4.115 4.115 0 00-.685 2.871A3.95 3.95 0 001.45 13.27c2.594 2.156 3.195-.724 1.907-1.185-2.913-1.045-.6-5.505 1.879-3.495C3.27 1.98 13.496-.983 14.9 6.11c2.843-.104 4.512 3.85 1.584 5.654-1.053.648-.279 2.996 1.797 1.175 2.997-2.63 1.883-7.486-1.835-8.638m-2.674 6.049c.39.399.39 1.045 0 1.443l-3.538 3.609a1.971 1.971 0 01-2.827 0l-1.178-1.201c-.936-.954.48-2.398 1.414-1.443 1.44 1.467 1.331 1.045 4.715-2.408a.987.987 0 011.414 0"/></svg>