<svg xmlns="http://www.w3.org/2000/svg" viewBox="0 0 20 20"><path fill-rule="evenodd" d="M10.018 13.04l-.002.01.002.011v-.02zm8.6-9.995C15.072-1.803 8.558-.465 6.55 4.262c-1.232-.402-2.61-.478-4.243.68C.898 5.94-.076 7.504.005 9.23a5.005 5.005 0 005.003 4.768h4.007c.55 0 .995-.4 1-.948-.005-.547-.45-1.053-1-1.053H5.171c-1.48 0-2.856-.992-3.119-2.446a3.007 3.007 0 012.956-3.556c.371 0 .722.076 1.05.2l-.02.765a1.01 1.01 0 001.01 1.035 1 1 0 001-.875c.06-.522.15-1.175.285-1.838.808-3.981 8.226-4.846 9.527.486.474 1.942-.637 3.759-1.6 4.922a.99.99 0 00-.232.636c0 .884 1.07 1.327 1.7.706 2.107-2.082 3.408-5.542.89-8.987zM15.42 9.203l-.581-.394c-.316-.316-.815-.092-.815.354v10.009c0 .552-.462.828-1.015.828h-.023c-.553 0-.966-.276-.966-.828v-9.93c0-.445-.58-.668-.895-.353l-.607.518c-.392.391-.501.388-1.503-.002V9.4c0-.391-.326-1.04.066-1.43l2.485-2.442c.782-.781 2.051-.833 2.834-.052l2.42 2.312c.39.39.393 1.208.002 1.208h.006c-.391 1-1.017.598-1.408.207z"/></svg>