<svg xmlns="http://www.w3.org/2000/svg" viewBox="0 0 20 20"><path fill-rule="evenodd" d="M14.025 11.003h-.01c.39-1 .385-1.23-.005-1.62l-2.586-2.69c-.78-.78-2.048-.831-2.829-.05L6.01 9.2c-.39.39-1 1.01 0 1.401v-.007c0 .391 1.022.387 1.413-.003l.732-.733a.5.5 0 01.853.351V19c0 .552.528 1 1.08 1h.04c.552 0 .879-.448.879-1v-8.79a.5.5 0 01.852-.353l.733.94c.39.39 1.042.206 1.433.206m-.02 3c-1.322 0-1.32-2 0-2 1.055 0 1.815.07 2.725-.551 2.415-1.651 1.16-5.544-1.826-5.437-1.332-6.604-11.72-4.37-9.656 2.43C3.155 6.781.7 10.005 2.8 11.567c1.501 1.116 4.21-.41 4.21 1.435 0 1.258-1.428 1-2.798 1-3.334 0-5.388-3.559-3.48-6.28.912-1.3 2.344-1.62 2.344-1.62C3.736.99 9.57-1.708 13.89 1.185c1.855 1.242 2.557 3.058 2.557 3.058 5.132 1.559 5.024 9.76-2.443 9.76"/></svg>