<svg xmlns="http://www.w3.org/2000/svg" viewBox="0 0 20 17"><path fill-rule="evenodd" d="M16.456 4.364s-.703-1.868-2.559-3.145c-4.324-2.976-10.162-.2-10.822 5.056 0 0-1.433.33-2.345 1.667-1.827 2.675-.039 6.28 3.28 6.44v-2.048a2.192 2.192 0 01-1.21-.44c-2.104-1.605.352-4.921 2.447-3.21-2.033-6.886 8.315-9.366 9.663-2.498a.39.39 0 00.05-.006c.017-.002.033-.004.05-.004 3.292 0 4.22 4.8 1 5.972v2.088c5.244-1.27 5.244-8.375.446-9.872zM13.082 9.73l1.414 1.454L8.84 17v-.001L8.835 17 5.54 13.61l1.415-1.453 1.884 1.937 4.244-4.363z"/></svg>