<svg xmlns="http://www.w3.org/2000/svg" viewBox="0 0 20 17"><path fill-rule="evenodd" d="M13.036 14.995V15H5.177c-1.48 0-2.859-.992-3.121-2.445-.417-2.31 1.863-4.161 4.01-3.356l-.021.765A1.01 1.01 0 007.055 11a1 1 0 001.001-.875c.06-.522.15-1.175.286-1.838.808-3.976 8.214-4.842 9.516.486.796 3.258-1.695 6.172-4.822 6.222M10.028 2a4.94 4.94 0 012.979 1 7 7 0 00-6.449 4.267A4.97 4.97 0 005.014 7c0-2.757 2.249-5 5.014-5m6.24 1.807A7.014 7.014 0 0010.029 0c-4.014 0-7.246 3.363-7 7.411A5 5 0 000 12c0 2.761 2.245 5 5.014 5h8.022l-.03-.003.03-.003C17.046 16.935 20 13.828 20 10a6.99 6.99 0 00-3.731-6.193"/></svg>