<svg xmlns="http://www.w3.org/2000/svg" viewBox="0 0 20 20"><path fill-rule="evenodd" d="M12.984 15.002v-.022H5.157c-1.475 0-2.848-.976-3.11-2.428a2.996 2.996 0 012.947-3.545c.37 0 .72.08 1.048.203l-.021.766a1.008 1.008 0 001.006 1.035c.506 0 .94-.37.997-.873a21.8 21.8 0 01.285-1.836c.41-2.02 3.046-3.651 5.576-3.203 1.893.336 3.446 1.82 3.902 3.689.793 3.253-1.807 6.164-4.803 6.214zm4.076.672c1.761-1.269 2.86-3.329 2.86-5.661a6.98 6.98 0 00-2.87-5.652l2.657-2.657A.998.998 0 1018.295.292l-3.102 3.102a6.956 6.956 0 00-2.237-.372c-2.331 0-4.374 1.152-5.64 2.907L1.706.317A1 1 0 00.292 1.73l5.336 5.337c-.993-.15-2.085.015-3.325.894C.874 8.975-.1 10.578.01 12.328a4.98 4.98 0 002.344 3.905L.293 18.295a.999.999 0 101.412 1.413l2.758-2.77c.176.018.35.04.53.04h7.99c-.01 0-.018.01-.03.01a.117.117 0 01.03.004 7.353 7.353 0 002.208-.367l3.079 3.08a.998.998 0 101.412-1.41l-2.622-2.621z"/></svg>