<svg xmlns="http://www.w3.org/2000/svg" viewBox="0 0 20 20"><path fill-rule="evenodd" d="M14 15c-2.21 0-4-1.834-4-4 0 5.353-8 5.218-8 0 0-2.278 1.936-4.066 4.147-3.985C5.454 4.392 7.488 2 10 2c2.539 0 4.539 2.419 3.853 5.015C19.265 6.816 19.343 15 14 15m1.961-9.666a5.999 5.999 0 00-11.922 0 6.005 6.005 0 00-3.932 6.819c.405 2.171 2.052 3.98 4.173 4.597 1.486.431 2.885.278 4.084-.255.4-.177.814.211.667.622l-.358 1a1.409 1.409 0 102.654 0l-.358-1a.496.496 0 01.667-.622c1.199.533 2.598.686 4.084.255 2.121-.617 3.768-2.426 4.173-4.597a6.003 6.003 0 00-3.932-6.819"/></svg>