<svg xmlns="http://www.w3.org/2000/svg" viewBox="0 0 20 20"><path fill-rule="evenodd" d="M17 11c-.551 0-1-.449-1-1 0-.551.449-1 1-1 .551 0 1 .449 1 1 0 .551-.449 1-1 1m-7 0c-.551 0-1-.449-1-1 0-.551.449-1 1-1 .551 0 1 .449 1 1 0 .551-.449 1-1 1m0 7c-.551 0-1-.449-1-1 0-.551.449-1 1-1 .551 0 1 .449 1 1 0 .551-.449 1-1 1m0-16c.551 0 1 .449 1 1 0 .551-.449 1-1 1-.551 0-1-.449-1-1 0-.551.449-1 1-1m-7 9c-.551 0-1-.449-1-1 0-.551.449-1 1-1 .551 0 1 .449 1 1 0 .551-.449 1-1 1m14-4c-1.304 0-2.403 1-2.816 2h-1.368c-.301-1-.968-1.515-1.816-1.816V5.816A2.99 2.99 0 0013 3a3 3 0 10-6 0 2.99 2.99 0 002 2.816v1.368C8.152 7.485 7.485 8 7.184 9H5.816C5.403 8 4.304 7 3 7a3 3 0 100 6c1.304 0 2.403-1 2.816-2h1.368c.301 1 .968 1.515 1.816 1.816v1.368A2.99 2.99 0 007 17a3 3 0 106 0 2.99 2.99 0 00-2-2.816v-1.368c.848-.301 1.515-.816 1.816-1.816h1.368c.413 1 1.512 2 2.816 2a3 3 0 100-6"/></svg>