<svg xmlns="http://www.w3.org/2000/svg" viewBox="0 0 20 20"><path fill-rule="evenodd" d="M17 18c-.551 0-1-.449-1-1 0-.551.449-1 1-1 .551 0 1 .449 1 1 0 .551-.449 1-1 1m-9.755-6.659C5.671 8.707 8.672 5.65 11.341 7.245a3.029 3.029 0 011.472 2.567c0 2.97-3.986 4.175-5.568 1.529M3 18c-.551 0-1-.449-1-1 0-.551.449-1 1-1 .551 0 1 .449 1 1 0 .551-.449 1-1 1M3 4c-.551 0-1-.449-1-1 0-.551.449-1 1-1 .551 0 1 .449 1 1 0 .551-.449 1-1 1m14-2c.551 0 1 .449 1 1 0 .551-.449 1-1 1-.551 0-1-.449-1-1 0-.551.449-1 1-1m0 12c-.462 0-.895.113-1.286.3l-1.733-1.733a4.922 4.922 0 00.132-5.266L15.714 5.7c.391.187.824.3 1.286.3a3 3 0 10-3-3c0 .462.113.895.3 1.286l-1.521 1.521a4.946 4.946 0 00-5.721-.163L5.7 4.286C5.887 3.895 6 3.462 6 3a3 3 0 10-3 3c.462 0 .895-.113 1.286-.3l1.358 1.358a4.945 4.945 0 00.163 5.721L4.286 14.3A2.969 2.969 0 003 14a3 3 0 103 3c0-.462-.113-.895-.3-1.286l1.601-1.601a4.923 4.923 0 005.266-.132l1.733 1.733c-.187.391-.3.824-.3 1.286a3 3 0 103-3"/></svg>