<svg xmlns="http://www.w3.org/2000/svg" viewBox="0 0 20 20"><path fill-rule="evenodd" d="M17 6h-3V3a1 1 0 011-1h2a1 1 0 011 1v2a1 1 0 01-1 1zm1 8v3a1 1 0 01-1 1h-2a1 1 0 01-1-1v-3h4zM8 12h4V8H8v4zm-3 6H3a1 1 0 01-1-1v-2a1 1 0 011-1h3v3a1 1 0 01-1 1zM2 5V3a1 1 0 011-1h2a1 1 0 011 1v3H3a1 1 0 01-1-1zm16-5h-4a2 2 0 00-2 2v4H8V2a2 2 0 00-2-2H2a2 2 0 00-2 2v4a2 2 0 002 2h4v4H2a2 2 0 00-2 2v4a2 2 0 002 2h4a2 2 0 002-2v-4h4v4a2 2 0 002 2h4a2 2 0 002-2v-4a2 2 0 00-2-2h-4V8h4a2 2 0 002-2V2a2 2 0 00-2-2z"/></svg>