<svg xmlns="http://www.w3.org/2000/svg" viewBox="0 0 20 20"><path fill-rule="evenodd" d="M14.998 11h-.023C13.899 11 13 11.985 13 13.061V14H7v-.91c0-1.039-.832-1.952-1.87-1.905-1.377.061-2.603-.809-2.986-2.057-.981-3.199 3.078-5.353 5.158-2.842C5.576 2.685 11.066.134 12.724 3.76a2.908 2.908 0 01-.025 2.526c1.109-1.34 3.699-1.587 4.667-.144C18.974 8.538 17.276 11 14.998 11zM13 17a1 1 0 01-1 1H8a1 1 0 01-1-1v-1h6v1zm1.66-13.778A4.99 4.99 0 0010 0a4.99 4.99 0 00-4.66 3.222C2.295 3.013 0 5.418 0 8.187a5.001 5.001 0 004.15 4.928c.486.084.85.49.85.984V18a2 2 0 002 2h6a2 2 0 002-2v-3.901c0-.494.364-.9.85-.984A5.001 5.001 0 0020 8.187c0-2.764-2.29-5.175-5.34-4.965z"/></svg>