<svg xmlns="http://www.w3.org/2000/svg" viewBox="0 0 20 20"><path fill-rule="evenodd" d="M10 18a7.947 7.947 0 01-4.003-1.08c3.888.561 7.539-2.215 7.923-5.92h4.006c-.434 4.077-3.993 7-7.926 7M3.464 6.464a4.999 4.999 0 017.072 0 5.008 5.008 0 010 7.072 4.999 4.999 0 01-7.072 0 5.008 5.008 0 010-7.072M17.926 9H13.92c-.908-4.377-4.425-6.425-7.923-5.92C10.977.188 17.331 3.411 17.926 9m-.855-6.071c-3.905-3.905-10.237-3.905-14.142 0-3.964 3.964-3.835 10.307 0 14.142 3.905 3.905 10.237 3.905 14.142 0 3.905-3.905 3.905-10.237 0-14.142"/></svg>