<svg xmlns="http://www.w3.org/2000/svg" viewBox="0 0 20 20"><path fill-rule="evenodd" d="M18 13a1 1 0 01-.999 1H3.006a1 1 0 01-1-1V3a1 1 0 011-1H17a1 1 0 011 1v10zm-.01-13H1.993C.89 0 0 .915 0 2.02l.007.02v12L0 14.02C0 15.125.889 16 1.992 16H7.99c.553 0 1.014.468 1.014 1.02v-.01c0 .552-.461.99-1.014.99H4.991c-.552 0-.985.468-.985 1.02v-.01c0 .552.433.99.985.99h9.997c.553 0 1.013-.428 1.013-.98v-.01c0-.552-.46-1.01-1.013-1.01h-3a.971.971 0 01-.985-.98v-.01c0-.552.434-1.01.986-1.01h6.002l.007.02c1.101 0 2.002-.874 2.002-1.977V2.037C20 .934 19.1.02 17.998.02L17.99 0z"/></svg>