<svg xmlns="http://www.w3.org/2000/svg" viewBox="0 0 20 20"><path fill-rule="evenodd" d="M13.26 14.378l1.62 1.621-1.414 1.415-1.62-1.622 1.413-1.414zm-4.14-1.017c-1.103 0-2-.897-2-2s.897-2 2-2c1.102 0 2 .897 2 2s-.898 2-2 2zm4-2a4 4 0 10-8 0 4 4 0 008 0zM18 17c0 .553-.024 1-.576 1h-14C2.872 18 2 17.553 2 17V3c0-.552.872-1 1.424-1H6.78a1 1 0 01.898.561L8.813 4.88A2 2 0 0010.61 6h6.815c.552 0 .576.448.576 1v10zm.424-13H11.66a2 2 0 01-1.789-1.105l-.894-1.789A2 2 0 007.188 0H2.424C1.32 0 0 .896 0 2v16c0 1.105 1.32 2 2.424 2h16C19.53 20 20 19.105 20 18V6c0-1.104-.47-2-1.576-2z"/></svg>