<svg xmlns="http://www.w3.org/2000/svg" viewBox="0 0 20 20"><path fill-rule="evenodd" d="M18 7c0-.552-.248-1-.8-1h-7C9.095 6 8 5.105 8 4V3c0-.552-.248-1-.8-1h-4C2.648 2 2 2.449 2 3v14c0 .553.648 1 1.2 1h14c.552 0 .8-.447.8-1V7zm2-1v12c0 1.104-.695 2-1.8 2h-16C1.095 20 0 19.105 0 18V2C0 .897 1.095 0 2.2 0h6C9.305 0 10 .897 10 2v1c0 .553.648 1 1.2 1h7c1.105 0 1.8.896 1.8 2zm-6.054 5.782l-1.14 1.11a.754.754 0 00-.217.67l.269 1.568a.759.759 0 01-.745.886.753.753 0 01-.352-.088l-1.409-.741a.754.754 0 00-.704 0l-1.409.74a.753.753 0 01-.352.09.759.759 0 01-.745-.887l.269-1.568a.754.754 0 00-.217-.67l-1.14-1.11a.756.756 0 01.419-1.29l1.576-.228a.757.757 0 00.569-.414l.704-1.429a.747.747 0 01.678-.42c.27 0 .539.14.678.42l.704 1.429a.759.759 0 00.57.414l1.575.228c.62.09.868.852.419 1.29z"/></svg>