<svg xmlns="http://www.w3.org/2000/svg" viewBox="0 0 20 20"><path fill-rule="evenodd" d="M19 12a1 1 0 100 2.001 1 1 0 000-2m-4-8a1 1 0 100 2 1 1 0 000-2m4 4a1 1 0 100 2 1 1 0 000-2M3 0H2a2 2 0 00-2 2v1a1 1 0 002 0 1 1 0 011-1c1.321 0 1.323-2 0-2m16 16a1 1 0 00-1 1 1 1 0 01-1 1 1 1 0 000 2h1a2 2 0 002-2v-1a1 1 0 00-1-1M1 18a1 1 0 100 2 1 1 0 000-2m12 0a1 1 0 100 2 1 1 0 000-2M1 6a1 1 0 100 2 1 1 0 000-2m0 4a1 1 0 100 2 1 1 0 000-2m18-4a1 1 0 100-2 1 1 0 000 2M1 14a1 1 0 100 2.001 1 1 0 000-2M11 4a1 1 0 100 2 1 1 0 000-2M7 0a1 1 0 100 2 1 1 0 000-2M5 18a1 1 0 100 2 1 1 0 000-2m5 1a1 1 0 11-2 0 1 1 0 012 0"/></svg>