<svg xmlns="http://www.w3.org/2000/svg" viewBox="0 0 20 20"><path fill-rule="evenodd" d="M12.123 11.29l-.707.707.71.71a1 1 0 11-1.414 1.415l-.71-.71-.707.706c-.391.391-.917.498-1.308.107l-.034-.034c-.391-.39-.463-1.096-.073-1.487l.707-.707-.704-.704A1 1 0 019.298 9.88l.704.704.707-.707c.384-.385 1.104-.284 1.499.092.37.39.299.937-.085 1.322zm.107-1.307c-.006-.006-.016-.009-.022-.015-.006-.006-.007-.014-.013-.02l.035.035zM18 17c0 .552-.443 1-.995 1h-14A1.005 1.005 0 012 17V3c0-.552.453-1 1.005-1H6.36c.382 0 .73.217.898.561l1.136 2.32A2 2 0 0010.19 6h6.815c.552 0 .995.447.995 1v10zm.005-13H11.24a2 2 0 01-1.79-1.105l-.893-1.789A2 2 0 006.768 0H2.006A2.004 2.004 0 000 2v16c0 1.105.9 2 2.005 2h16A1.996 1.996 0 0020 18V6c0-1.104-.891-2-1.995-2z"/></svg>