<svg xmlns="http://www.w3.org/2000/svg" viewBox="0 0 20 20"><path fill-rule="evenodd" d="M18 7c0-.552-.248-1-.8-1h-7C9.095 6 8 5.105 8 4V3c0-.552-.248-1-.8-1h-4C2.648 2 2 2.449 2 3v14c0 .553.648 1 1.2 1h14c.552 0 .8-.447.8-1V7zm2-1v12c0 1.104-.695 2-1.8 2h-16C1.095 20 0 19.105 0 18V2C0 .897 1.095 0 2.2 0h6C9.305 0 10 .897 10 2v1c0 .553.648 1 1.2 1h7c1.105 0 1.8.896 1.8 2zM10 7.98v7.1s-.186.028-.296.086l-1.354.74a.753.753 0 01-1.097-.795l.269-1.57a.755.755 0 00-.219-.67l-1.142-1.11a.755.755 0 01.416-1.29l1.569-.228a.735.735 0 00.555-.414L9.378 8.4c.138-.28.622-.42.622-.42z"/></svg>