<svg xmlns="http://www.w3.org/2000/svg" viewBox="0 0 20 20"><path fill-rule="evenodd" d="M18 6H9.374L7.416 2H2v16h16V6zm2-2v16H0V0h8.437l2 4H20zM9.322 8.422a.747.747 0 01.678-.42c.27 0 .539.14.678.42l.704 1.429a.759.759 0 00.57.414l1.575.228c.62.09.868.852.419 1.29l-1.14 1.11a.754.754 0 00-.217.67l.269 1.568a.759.759 0 01-.745.886.753.753 0 01-.352-.088l-1.409-.741a.754.754 0 00-.704 0l-1.409.74a.753.753 0 01-.352.09.759.759 0 01-.745-.887l.269-1.568a.754.754 0 00-.217-.67l-1.14-1.11a.756.756 0 01.419-1.29l1.576-.228a.757.757 0 00.569-.414l.704-1.429z"/></svg>