<svg xmlns="http://www.w3.org/2000/svg" viewBox="0 0 23 23"><path fill-rule="evenodd" d="M5.243 19.087l2.12-2.135a1.01 1.01 0 000-1.423.994.994 0 00-1.413 0l-2.121 2.135-2.111-2.125a.996.996 0 00-1.404-.01 1.01 1.01 0 00-.01 1.433l2.11 2.125-2.12 2.133c-.39.394-.39 1.03 0 1.424a.996.996 0 001.414 0l2.122-2.135 2.182 2.196a.995.995 0 001.403.01 1.011 1.011 0 00.01-1.433l-2.181-2.196zM23 6.039v12.279c0 1-.992 1.811-1.986 1.811h-9.2c-.552 0-1-.45-1-1.006 0-.557.448-1.007 1-1.007h8c.552 0 1.186-.45 1.186-1.006V6.844c0-.444-.544-.805-.986-.805h-7.2C11.709 6.04 11 5.138 11 4.026V2.82c0-.445-.544-.805-.986-.805h-4.2c-.552 0-.814.45-.814 1.006v8.051c0 .556-.447 1.007-1 1.007-.552 0-1-.451-1-1.007V2.215C3 .997 3.804 0 5.014 0h5.8C11.919 0 13 .9 13 2.014v.805c0 .664.354 1.207 1.014 1.207h6.8c1.105 0 2.186.901 2.186 2.013z"/></svg>