<svg xmlns="http://www.w3.org/2000/svg" viewBox="0 0 21 20"><path fill-rule="evenodd" d="M3.15 14c-.58 0-1.05-.448-1.05-1V7c0-.552.47-1 1.05-1 .58 0 1.05-.448 1.05-1s-.47-1-1.05-1H2.1C.94 4 0 4.895 0 6v8c0 1.105.94 2 2.1 2h1.05c.58 0 1.05-.448 1.05-1s-.47-1-1.05-1M18.9 4h-7.35c-.58 0-1.05.448-1.05 1s.47 1 1.05 1h6.3c.58 0 1.05.448 1.05 1v6c0 .552-.47 1-1.05 1h-6.3c-.58 0-1.05.448-1.05 1s.47 1 1.05 1h7.35c1.16 0 2.1-.895 2.1-2V6c0-1.105-.94-2-2.1-2m-8.4 15c0 .552-.47 1-1.05 1h-4.2c-.58 0-1.05-.448-1.05-1s.47-1 1.05-1H6.3V2H5.25C4.67 2 4.2 1.552 4.2 1s.47-1 1.05-1h4.2c.58 0 1.05.448 1.05 1s-.47 1-1.05 1H8.4v16h1.05c.58 0 1.05.448 1.05 1"/></svg>