<svg xmlns="http://www.w3.org/2000/svg" viewBox="0 0 16 20"><path fill-rule="evenodd" d="M9.8 16.996c-3.395-.206-5.015-4.418-2.606-6.81 2.404-2.389 6.65-.786 6.856 2.588-2.755-2.415-6.685 1.48-4.25 4.222m2.95-1.256c-.87.823-2.233-.38-1.482-1.328.702-.889 2.462-.067 1.482 1.328M1.98 12.014c0-3.25 1.5-7.423 4.23-9.412 3.108-2.26 5.96 2.965 6.89 5.236-2.723-1.59-6.306-.773-8.07 1.82-1.771 2.605-1.16 6.228 1.354 8.132-2.537-.714-4.404-3.03-4.404-5.776m13.304-4.107C14.188 4.802 11.596 0 7.713 0 4.29 0 2.119 3.96 1.073 6.692c-1.276 3.334-1.772 7.19.558 10.199 2.562 3.31 7.416 4.109 10.907 1.756 3.69-2.485 4.114-6.861 2.745-10.74"/></svg>