<svg xmlns="http://www.w3.org/2000/svg" viewBox="0 0 16 20"><path fill-rule="evenodd" d="M14.025 12.737C12.06 11.05 9.05 12.451 9.05 15c0 1.053.548 1.976 1.374 2.511a6.039 6.039 0 01-4.76 0A2.987 2.987 0 007.038 15c0-2.547-3.008-3.952-4.977-2.263-.068-.552-.086-1.284.086-2.404 1.983 1.579 4.89.174 4.89-2.333 0-1.617-1.287-2.925-2.896-2.988C5.258 3.223 6.62 2 7.73 2c1.165 0 2.633 1.162 3.897 3.044C10.171 5.256 9.05 6.492 9.05 8c0 2.469 2.845 3.895 4.84 2.374.222 1.086.214 1.735.136 2.363M12.065 16a1.004 1.004 0 01-1.006-1c0-.552.452-1 1.006-1s1.005.448 1.005 1c0 .551-.451 1-1.005 1m-8.043 0a1.004 1.004 0 01-1.006-1c0-.552.452-1 1.006-1s1.005.448 1.005 1c0 .551-.451 1-1.005 1m0-9c.554 0 1.005.448 1.005 1a1.004 1.004 0 01-2.01 0c0-.552.45-1 1.005-1m8.043 0c.554 0 1.005.448 1.005 1a1.004 1.004 0 01-2.01 0c0-.552.45-1 1.005-1M7.729 0C3.288 0 0 7.581 0 12c0 7.448 9.768 11.08 14.493 4.765C18.947 10.726 12.577 0 7.729 0"/></svg>