<svg xmlns="http://www.w3.org/2000/svg" viewBox="0 0 20 20"><path fill-rule="evenodd" d="M4 2.586C4 2.034 4.448 2 5 2h10c.552 0 1 .034 1 .586v1.249l-5.553 2.777c-.281.14-.613.14-.894 0L4 3.835V2.586zM2.276 5.209l6.83 3.415a1.995 1.995 0 001.788 0l6.83-3.415A.499.499 0 0018 4.762V1.586C18 .481 17.105 0 16 0H4C2.895 0 2 .481 2 1.586v3.176c0 .19.107.363.276.447zM18 16.586c0 .552-.448 1.414-1 1.414H3c-.552 0-1-.862-1-1.414v-6.47a.5.5 0 01.724-.447l6.395 3.198a1.995 1.995 0 001.767.01c3.471-1.684 2.012-.98 6.398-3.086a.5.5 0 01.716.451v6.344zm-.894-9.068l-6.659 3.33c-.281.14-.613.14-.894 0l-6.659-3.33C1.565 6.854 0 7.821 0 9.307v8.279C0 18.691.895 20 2 20h16c1.105 0 2-1.309 2-2.414V9.307c0-1.486-1.565-2.453-2.894-1.789z"/></svg>