<svg xmlns="http://www.w3.org/2000/svg" viewBox="0 0 20 20"><path fill-rule="evenodd" d="M12 13.585a2 2 0 11-3.999.001A2 2 0 0112 13.585zM15 6a1 1 0 011 1v2a1 1 0 01-1 1h-2c-.55 0-1-.45-1-1V7a1 1 0 011-1h2zM8 9a1 1 0 01-1 1H5c-.55 0-1-.45-1-1V7a1 1 0 011-1h2a1 1 0 011 1v2zm10 7.615c0 .553-.448 1.385-1 1.385H3c-.552 0-1-.832-1-1.385v-7C2 5.204 5.589 2 10 2s8 3.204 8 7.615v7zm-2.018-15C14.312.365 12.246 0 10 0 6.53 0 4.074.864 2 3.634a9.941 9.941 0 00-2 5.981v8C0 18.72.895 20 2 20h16c1.105 0 2-1.28 2-2.385v-8c0-3.205-1.543-6.146-4.018-8z"/></svg>