<svg xmlns="http://www.w3.org/2000/svg" viewBox="0 0 20 20"><path fill-rule="evenodd" d="M12 13.585a2 2 0 11-4 0 2 2 0 014 0zM18 10h-3c-.552 0-1-.863-1-1.415V6h4v4zm-8 8c-3.719 0-6.845-3-7.737-6H6c1.105 0 2-1.311 2-2.415V6h4v3.585c0 1.104.896 2.415 2 2.415h3.737c-.892 3-4.018 6-7.737 6zM2 6h4v2.585C6 9.137 5.552 10 5 10H2V6zm8-4c2.021 0 3.864 0 5.274 2H4.726C6.136 2 7.979 2 10 2zm7.986 2C16.162 1 13.269 0 10 0 6.732 0 3.838 1 2.014 4H0v8h.201c.926 4 4.961 8 9.799 8 4.838 0 8.873-4 9.799-8H20V4h-2.014z"/></svg>