<svg xmlns="http://www.w3.org/2000/svg" viewBox="0 0 20 20"><path fill-rule="evenodd" d="M15 6a1 1 0 011 1v2a1 1 0 01-1 1h-2c-.55 0-1-.45-1-1V7a1 1 0 011-1h2zM4 9V7a1 1 0 011-1h2a1 1 0 011 1v2a1 1 0 01-1 1H5c-.55 0-1-.45-1-1zm0 6v-1a2 2 0 012-2h8a2 2 0 012 2v1c0 .552-.448.896-1 .896s-1-.344-1-.896a1 1 0 00-1-1H7a1 1 0 00-1 1c0 .552-.448 1.104-1 1.104S4 15.552 4 15zm14 1.593c0 .552-.448 1.407-1 1.407H3c-.552 0-1-.855-1-1.407v-7C2 5.181 5.589 2 10 2s8 3.181 8 7.593v7zm0-12.982C15.893.798 13.445 0 10 0 2.928 0 0 5.252 0 9.593v8C0 18.697.895 20 2 20h16c1.105 0 2-1.303 2-2.407v-8c0-2.247-.75-4.313-2-5.982z"/></svg>