<svg xmlns="http://www.w3.org/2000/svg" viewBox="0 0 20 20"><path fill-rule="evenodd" d="M16 8a2 2 0 11-3.999.001A2 2 0 0116 8M8 8a2 2 0 11-3.999.001A2 2 0 018 8m7.895 7.597c-.259-.804-1.005-1.182-1.895-1.182H6c-.89 0-1.636.378-1.895 1.182C2.802 14.173 2 12.181 2 10.104c0-4.411 3.589-8.052 8-8.052s8 3.666 8 8.078a8.156 8.156 0 01-2.105 5.467m-9.88 1.537c.039-.516.459-.719.985-.719h6c.526 0 .946.203.985.719a7.937 7.937 0 01-7.97 0M10 0C4.477 0 0 4.477 0 10s4.477 10 10 10 10-4.477 10-10S15.523 0 10 0"/></svg>