<svg xmlns="http://www.w3.org/2000/svg" viewBox="0 0 20 20"><path fill-rule="evenodd" d="M15 10h-3V7a1 1 0 011-1h2a1 1 0 011 1v2a1 1 0 01-1 1zM8 7.57V10H5c-.55 0-1-.45-1-1V7a1 1 0 011-1h2a1 1 0 011 1v.57zm10-3.967v5.982c0 2.953-1.613 5.532-4 6.918V12.57a1 1 0 00-1-1 1 1 0 01-1-1V10H8v.57a1 1 0 01-1 1 1 1 0 00-1 1v3.933c-2.387-1.386-4-3.965-4-6.918v-7C2 2.033 2.448 2 3 2h14c.552 0 1 .033 1 .585v1.018zM8 17.322v-.752c0-.552.448-.57 1-.57h2c.552 0 1 .018 1 .57v.752c-.641.165-1.308.678-2 .678s-1.359-.513-2-.678zM18 0H2C.895 0 0 .48 0 1.585v8c0 2.246.75 4.312 2 5.982a10.075 10.075 0 002.018 2.018C5.688 18.835 7.754 20 10 20s4.312-1.165 5.982-2.415A10.075 10.075 0 0018 15.567c1.25-1.67 2-3.736 2-5.982v-8C20 .48 19.105 0 18 0z"/></svg>