<svg xmlns="http://www.w3.org/2000/svg" viewBox="0 0 20 20"><path fill-rule="evenodd" d="M16 13.415a1 1 0 01-1 1H5a1 1 0 010-2h10a1 1 0 011 1M10 18c-4.411 0-8-3.589-8-8 0-1.589.471-3.067 1.273-4.313L4.586 7l-1 1A.999.999 0 105 9.414l1-1 1 1A.999.999 0 108.414 8l-1-1 1-1A.999.999 0 107 4.586l-1 1-1.437-1.437A7.96 7.96 0 0110 2c2.1 0 4.008.82 5.437 2.149L14 5.586l-1-1A.999.999 0 1011.586 6l1 1-1 1A.999.999 0 1013 9.414l1-1 1 1A.999.999 0 1016.414 8l-1-1 1.313-1.313A7.942 7.942 0 0118 10c0 4.411-3.589 8-8 8m0-18C4.477 0 0 4.477 0 10s4.477 10 10 10 10-4.477 10-10S15.523 0 10 0"/></svg>