<svg xmlns="http://www.w3.org/2000/svg" viewBox="0 0 20 20"><path fill-rule="evenodd" d="M5 11h10c0 7-10 7-10 0zm10-5a1 1 0 011 1v2a1 1 0 01-1 1h-2c-.55 0-1-.45-1-1V7a1 1 0 011-1h2zM5 10c-.55 0-1-.45-1-1V7a1 1 0 011-1h2a1 1 0 011 1v2a1 1 0 01-1 1H5zm13 6.6c0 .552-.448 1.4-1 1.4H3c-.552 0-1-.848-1-1.4v-7C2 5.189 5.589 2 10 2s8 3.189 8 7.6v7zm0-12.982A10.101 10.101 0 0015.982 1.6C14.312.35 12.246 0 10 0 6.507 0 4.079.842 2 3.618A9.947 9.947 0 000 9.6v8C0 18.705.895 20 2 20h16c1.105 0 2-1.295 2-2.4v-8c0-2.246-.75-4.312-2-5.982z"/></svg>