<svg xmlns="http://www.w3.org/2000/svg" viewBox="0 0 20 20"><path fill-rule="evenodd" d="M16 7a1 1 0 01-1 1h-2a1 1 0 010-2h2a1 1 0 011 1zm-1.107 5.043c-1.007 5.137-8.779 5.034-9.786-.104-.117-.599.38-.939.991-.939h.017c.476 0 .866.24.975.704.69 2.923 5.13 2.82 5.82-.104.109-.464.499-.6.975-.6h.017c.611 0 1.108.444.991 1.043zM8 7a1 1 0 01-1 1H5a1 1 0 010-2h2a1 1 0 011 1zm10 9.585c0 .552-.448 1.415-1 1.415H3c-.552 0-1-.863-1-1.415v-7C2 5.175 5.589 2 10 2s8 3.174 8 7.585v7zm0-12.982a10.05 10.05 0 00-2.018-2.018C14.312.335 12.246 0 10 0 6.546 0 4.11.786 2 3.603a9.947 9.947 0 00-2 5.982v8C0 18.69.895 20 2 20h16c1.105 0 2-1.31 2-2.415v-8c0-2.246-.75-4.312-2-5.982z"/></svg>