<svg xmlns="http://www.w3.org/2000/svg" viewBox="0 0 20 20"><path fill-rule="evenodd" d="M14.904 12.038c-.962 5.477-8.846 5.374-9.808-.104-.105-.598.386-.934.994-.934h7.82c.608 0 1.099.44.994 1.038zM15 6a1 1 0 010 2h-2a1 1 0 010-2h2zM7 8H5a1 1 0 010-2h2a1 1 0 010 2zm11 8.594c0 .553-.448 1.406-1 1.406H3c-.552 0-1-.853-1-1.406v-7C2 5.184 5.589 2 10 2c4.41 0 8 3.183 8 7.594v7zm0-12.982C15.898.806 13.453 0 10 0 6.545 0 4.1.808 2 3.612a9.947 9.947 0 00-2 5.982v8C0 18.7.896 20 2 20h16c1.105 0 2-1.3 2-2.406v-8c0-2.246-.75-4.312-2-5.982z"/></svg>