<svg xmlns="http://www.w3.org/2000/svg" viewBox="0 0 20 20"><path fill-rule="evenodd" d="M14 16.917V12.95c0-.553-.468-.943-1.02-.95-.543-.005-.98-.247-.98-.791l1-.794h2a1 1 0 001-1v-2a1 1 0 00-1-1h-2a1 1 0 00-1 1V9l-1 1.415H9L8 9V7.414a1 1 0 00-1-1H5a1 1 0 00-1 1v2c0 .55.45 1 1 1h2l1 .794c0 .572-.482.922-1.063.894A.893.893 0 006 13v3.918C3.271 15.333 1.554 12.19 2.102 8.71c.55-3.49 3.47-6.265 6.982-6.658C13.903 1.512 18 5.287 18 10c0 2.954-1.613 5.533-4 6.918m-6 .82V17a1 1 0 011-1h2a1 1 0 011 1v.737A7.953 7.953 0 0110 18a7.953 7.953 0 01-2-.263M10 0C4.477 0 0 4.477 0 10c0 5.524 4.477 10 10 10s10-4.476 10-10c0-5.522-4.477-10-10-10"/></svg>