<svg xmlns="http://www.w3.org/2000/svg" viewBox="0 0 20 20"><path fill-rule="evenodd" d="M17.737 12H14c-1.104 0-2-1.31-2-2.415V6H8v3.585C8 10.69 7.105 12 6 12H2.264c.89 3 4.017 6 7.736 6 3.72 0 6.845-3 7.737-6zM2 6v4h3c.553 0 1-.863 1-1.415V6H2zm2.727-2h10.547C13.864 2 12.02 2 10 2S6.136 2 4.727 4zM14 6v2.585c0 .552.448 1.415 1 1.415h3V6h-4zm6-2v8h-.201c-.926 4-4.961 8-9.8 8-4.837 0-8.871-4-9.798-8H0V4h2.014C3.839 1 6.732 0 10 0c3.269 0 6.162 1 7.987 4H20zm-8 11a1 1 0 01-1 1H9a1 1 0 010-2h2a1 1 0 011 1z"/></svg>