<svg xmlns="http://www.w3.org/2000/svg" viewBox="0 0 20 20"><path fill-rule="evenodd" d="M16 7a1 1 0 01-1 1h-2a1 1 0 010-2h2a1 1 0 011 1zM4 7a1 1 0 011-1h2a1 1 0 010 2H5a1 1 0 01-1-1zm12 5.577A3.422 3.422 0 0112.577 16H7.423A3.433 3.433 0 014 12.577c0-.552.448-.894 1-.894s1 .553 1 1.106C6 13.341 6.448 14 7 14h6c.552 0 1-.659 1-1.211 0-.553.448-1.212 1-1.212a1 1 0 011 1zm2-8.974v5.982C18 13.996 14.411 18 10 18s-8-4.004-8-8.415v-7C2 2.033 2.448 2 3 2h14c.552 0 1 .033 1 .585v1.018zM18 0H2C.895 0 0 .48 0 1.585v8c0 2.246.75 4.312 2 5.982a10.075 10.075 0 002.018 2.018C5.688 18.835 7.754 20 10 20s4.312-1.165 5.982-2.415A10.075 10.075 0 0018 15.567c1.25-1.67 2-3.736 2-5.982v-8C20 .48 19.105 0 18 0z"/></svg>