<svg xmlns="http://www.w3.org/2000/svg" viewBox="0 0 20 20"><path fill-rule="evenodd" d="M16 7a1 1 0 01-1 1h-2a1 1 0 010-2h2a1 1 0 011 1zm-1.107 7.72c.117.598-.38 1.28-.991 1.28h-.017c-.476 0-.866-.478-.975-.942-.69-2.923-5.129-3.057-5.82-.134-.109.464-.499 1.076-.975 1.076h-.017c-.611 0-1.108-.816-.991-1.415 1.007-5.138 8.779-5.004 9.786.134zM8 7a1 1 0 01-1 1H5a1 1 0 010-2h2a1 1 0 011 1zm10-3.397v5.982C18 13.996 14.411 18 10 18s-8-4.004-8-8.415v-7C2 2.033 2.448 2 3 2h14c.552 0 1 .033 1 .585v1.018zM18 0H2C.895 0 0 .48 0 1.585v8c0 2.246.75 4.312 2 5.982a10.101 10.101 0 002.018 2.018C5.688 18.835 7.754 20 10 20s4.312-1.165 5.982-2.415A10.101 10.101 0 0018 15.567c1.25-1.67 2-3.736 2-5.982v-8C20 .48 19.105 0 18 0z"/></svg>