<svg xmlns="http://www.w3.org/2000/svg" viewBox="0 0 20 20"><path fill-rule="evenodd" d="M16 12.844c0 .552-.448.844-1 .844s-1 .552-1 1.104S13.552 16 13 16h-2a1 1 0 01-1-1 1 1 0 00-1-1H5a1 1 0 010-2h10c.552 0 1 .292 1 .844zM15 6a1 1 0 011 1v2a1 1 0 01-1 1h-2c-.55 0-1-.45-1-1V7a1 1 0 011-1h2zM4 9V7a1 1 0 011-1h2a1 1 0 011 1v2a1 1 0 01-1 1H5c-.55 0-1-.45-1-1zm14 7.6c0 .552-.448 1.4-1 1.4H3c-.552 0-1-.848-1-1.4v-7C2 5.188 5.589 2 10 2s8 3.188 8 7.6v7zm-2.018-15C14.312.349 12.246 0 10 0 2.928 0 0 5.268 0 9.6v8C0 18.704.895 20 2 20h16c1.105 0 2-1.296 2-2.4v-8c0-3.206-1.543-6.146-4.018-8z"/></svg>