<svg xmlns="http://www.w3.org/2000/svg" viewBox="0 0 20 20"><path fill-rule="evenodd" d="M15 6a1 1 0 010 2h-2a1 1 0 010-2h2zM4 7a1 1 0 011-1h2a1 1 0 010 2H5a1 1 0 01-1-1zm12 6.585v1c0 .552-.448 1.104-1 1.104s-1-.344-1-.897c0-.552-.448-.792-1-.792H7c-.552 0-1 .24-1 .792 0 .553-.448.793-1 .793a1 1 0 01-1-1v-1C4 12.48 4.895 12 6 12h8c1.105 0 2 .48 2 1.585zm2 3.008c0 .552-.448 1.407-1 1.407H3c-.552 0-1-.855-1-1.407v-7C2 5.181 5.589 2 10 2s8 3.181 8 7.593v7zm-2.018-15C14.312.342 12.246 0 10 0 2.928 0 0 5.252 0 9.593v8C0 18.697.895 20 2 20h16c1.105 0 2-1.303 2-2.407v-8c0-3.206-1.543-6.147-4.018-8z"/></svg>