<svg xmlns="http://www.w3.org/2000/svg" viewBox="0 0 20 20"><path fill-rule="evenodd" d="M15 6.415a1 1 0 011 1v2a1 1 0 01-1 1h-2c-.55 0-1-.45-1-1v-2a1 1 0 011-1h2zm-7 3a1 1 0 01-1 1H5c-.55 0-1-.45-1-1v-2a1 1 0 011-1h2a1 1 0 011 1v2zm-2.893 5.749c1.007-5.137 8.779-5.241 9.786-.103.117.599-.38 1.354-.991 1.354h-.017c-.476 0-.866-.448-.975-.911-.691-2.924-5.129-3.027-5.82-.104-.109.464-.499 1.015-.975 1.015h-.017c-.611 0-1.108-.652-.991-1.251zM10 18c-4.411 0-8-3.589-8-8s3.589-8 8-8 8 3.589 8 8-3.589 8-8 8zm0-18C4.477 0 0 4.477 0 10s4.477 10 10 10 10-4.477 10-10S15.523 0 10 0z"/></svg>