<svg xmlns="http://www.w3.org/2000/svg" viewBox="0 0 20 20"><path fill-rule="evenodd" d="M6 16h8v-2H6v2zM2 4V2.585C2 2.033 2.448 2 3 2h14c.552 0 1 .033 1 .585V4H2zm13 6c-.552 0-1-.893-1-1.445V6h4v4h-3zm-5 8.416C6.27 18.416 3.137 15 2.255 12H6c1.105 0 2-1.341 2-2.445V6h4v3.555c0 1.104.895 2.445 2 2.445h3.745c-.882 3-4.015 6.416-7.745 6.416zM6 6v2.555C6 9.107 5.552 10 5 10H2V6h4zm12-6H2C.895 0 0 .48 0 1.585V12h.204c1.044 3.484 2.443 4.669 3.814 5.696 1.67 1.251 3.736 2.33 5.982 2.33 3.437 0 7.198-3.152 8-4.223.874-1.167 1.496-2.803 1.796-3.803H20V1.585C20 .48 19.105 0 18 0z"/></svg>