<svg xmlns="http://www.w3.org/2000/svg" viewBox="0 0 20 20"><path fill-rule="evenodd" d="M11.948 15.313a2 2 0 11-3.999 0 2 2 0 013.999 0zM10 18c-3.72 0-6.845-3-7.737-6.002H6c1.105 0 2-1.31 2-2.415V6h4v3.585C12 10.69 12.896 12 14 12h3.737c-.892 3.002-4.017 6.002-7.737 6.002zM2 5.999h4v2.585c0 .553-.448 1.417-1 1.417H2V5.999zm8-4c2.02 0 3.864 0 5.274 2H4.726C6.136 2 7.979 2 10 2zm8 4v4.002h-3c-.552 0-1-.864-1-1.417V6h4zm-.014-2C16.162 1 13.269 0 10 0 6.732 0 3.838 1 2.014 4H0v8h.2c.928 4 4.962 8 9.8 8 4.838 0 8.873-4 9.799-8h.2V4h-2.013z"/></svg>