<svg xmlns="http://www.w3.org/2000/svg" viewBox="0 0 24 23"><path fill-rule="evenodd" d="M4.919 17.264a.196.196 0 01-.307.002c-2.132-2.732-5.883.789-2.424 4.04 2.23 2.097 2.587 2.381 5.082.068 3.617-3.353-.252-6.82-2.351-4.11m17.868-7.145a.996.996 0 00-.99 1.001.996.996 0 00.99 1.001c.547 0 .99-.447.99-1a.996.996 0 00-.99-1.002m-7.923 8.01a.996.996 0 00-.99 1.002.996.996 0 00.99 1.001c.546 0 .99-.447.99-1.001a.996.996 0 00-.99-1.001m3.961 0a.996.996 0 00-.99 1.001.996.996 0 00.99 1.001c.547 0 .99-.447.99-1.001a.996.996 0 00-.99-1.001m3.962 0a.996.996 0 00-.99 1.001.996.996 0 00.99 1.001c.547 0 .99-.447.99-1.001a.996.996 0 00-.99-1.001M4.96 2.108c.546 0 .99-.448.99-1.002A.996.996 0 004.96.105a.996.996 0 00-.99 1.001.996.996 0 00.99 1.002m17.827 12.016a.996.996 0 00-.99 1.002.996.996 0 00.99 1c.547 0 .99-.447.99-1a.996.996 0 00-.99-1.002M8.921.105a.996.996 0 00-.99 1.001.996.996 0 00.99 1.002c.547 0 .99-.448.99-1.002a.996.996 0 00-.99-1.001m3.962 0a.996.996 0 00-.99 1.001.996.996 0 00.99 1.002c.547 0 .99-.448.99-1.002a.996.996 0 00-.99-1.001M4.96 6.113c.546 0 .99-.447.99-1.001a.996.996 0 00-.99-1.001.996.996 0 00-.99 1 .996.996 0 00.99 1.002m0 8.011c.546 0 .99-.447.99-1.001a.996.996 0 00-.99-1.002.996.996 0 00-.99 1.002.996.996 0 00.99 1.001m5.942 4.006a.996.996 0 00-.99 1.001.996.996 0 00.99 1.001c.547 0 .99-.447.99-1.001a.996.996 0 00-.99-1.001M23.487 5.82L18.125.346c-.41-.415-.69-.345-1.28-.345-.547 0-.99.553-.99 1.105v5.007c0 1.107.887 1.899 1.98 1.899h4.952c.547 0 .99-.344.99-.897 0-.525.067-.935-.29-1.295M3.97 9.117a.996.996 0 01.99-1.001c.547 0 .99.449.99 1.001a.996.996 0 01-.99 1.002.996.996 0 01-.99-1.002"/></svg>