<svg xmlns="http://www.w3.org/2000/svg" viewBox="0 0 20 20"><path fill-rule="evenodd" d="M11.952 10.263l1.576.229c.62.09.867.852.419 1.289l-1.141 1.111a.757.757 0 00-.217.669l.269 1.57a.757.757 0 01-1.096.797l-1.41-.742a.766.766 0 00-.703 0l-1.41.742a.757.757 0 01-1.096-.797l.269-1.57a.757.757 0 00-.217-.669l-1.141-1.111a.756.756 0 01.419-1.289l1.576-.229a.755.755 0 00.569-.414l.705-1.427A.746.746 0 0110 8c.27 0 .54.141.678.422l.705 1.427c.11.224.323.378.569.414zM18 18H2V2h10v6h6v10zM14 0H0v20h20V6.21L14 0z"/></svg>