<svg xmlns="http://www.w3.org/2000/svg" viewBox="0 0 23 21"><path fill-rule="evenodd" d="M21.597 10.043a.988.988 0 00-.981.994c0 .549.44.994.98.994a.988.988 0 00.982-.994.988.988 0 00-.981-.994zm-7.85 7.952a.988.988 0 00-.98.994c0 .548.439.993.98.993a.988.988 0 00.981-.993.988.988 0 00-.98-.994zm3.925 0a.988.988 0 00-.981.994c0 .548.44.993.981.993a.988.988 0 00.981-.993.988.988 0 00-.981-.994zm3.925 0a.988.988 0 00-.981.994c0 .548.44.993.98.993a.988.988 0 00.982-.993.988.988 0 00-.981-.994zm-14.6-2.108a.971.971 0 00-1.387 0l-2.656 2.69-.693-.703a.971.971 0 00-1.388 0l-.008.008a1.002 1.002 0 00-.007 1.398l1.37 1.421a.973.973 0 001.397.008L4.917 19.4l1.387-1.405.694-.703a1.002 1.002 0 000-1.405zM3.937 2.092a.988.988 0 00.98-.994.988.988 0 00-.98-.993.988.988 0 00-.982.993c0 .55.44.994.982.994zm17.66 11.927a.988.988 0 00-.98.994c0 .549.44.994.98.994a.988.988 0 00.982-.994.988.988 0 00-.981-.994zM7.86.105a.988.988 0 00-.98.993c0 .55.439.994.98.994a.988.988 0 00.981-.994.988.988 0 00-.98-.993zm3.925 0a.988.988 0 00-.981.993c0 .55.44.994.981.994a.988.988 0 00.981-.994.988.988 0 00-.981-.993zm-7.85 5.963a.988.988 0 00.982-.994.988.988 0 00-.981-.994.988.988 0 00-.982.994c0 .549.44.994.982.994zm0 7.951a.988.988 0 00.982-.994.988.988 0 00-.981-.994.988.988 0 00-.982.994c0 .549.44.994.982.994zm5.888 3.976a.988.988 0 00-.982.994c0 .548.44.993.982.993a.988.988 0 00.98-.993.988.988 0 00-.98-.994zM22.29 5.777L16.978.343C16.794.157 16.545 0 16.285 0h-.575c-.542 0-.982.55-.982 1.098v4.97c0 1.097.879 1.883 1.963 1.883h4.905c.542 0 .982-.34.982-.89V6.48a1 1 0 00-.288-.702zM2.954 9.05c0-.549.44-.994.982-.994.541 0 .98.445.98.994a.987.987 0 01-.98.993.988.988 0 01-.982-.993z"/></svg>