<svg xmlns="http://www.w3.org/2000/svg" viewBox="0 0 23 23"><path fill-rule="evenodd" d="M4.15 17.268a.198.198 0 01-.31.002c-2.14-2.721-5.94.782-2.444 4.04 2.249 2.097 2.61 2.382 5.126.068 3.63-3.338-.259-6.813-2.372-4.11zm-.057-3.245c-.008 0-.016-.004-.025-.004-.008 0-.015.004-.024.004h.05zM22.781 5.77L17.47.344c-.188-.186-.44-.343-.705-.343h-11.6c-1.09 0-2.17.938-2.17 2.031v11.093c0 .545.53.883 1.072.894.539-.011.927-.349.927-.894V3.11c0-.553.643-1.106 1.194-1.106h8.796v4.134c0 1.093 1.08 1.875 2.17 1.875h3.824v9.119c0 .553-.252.897-.804.897h-8.99c-.548 0-1.182.493-1.193 1.04.01.546.645.963 1.192.963h10.014c1.09 0 1.779-.782 1.779-1.875V6.507c0-.266-.008-.549-.196-.736zM9.99 19.057l.002.013-.002.013v-.026z"/></svg>