<svg xmlns="http://www.w3.org/2000/svg" viewBox="0 0 20 20"><path fill-rule="evenodd" d="M19.725 6.117L14.275.362c-.19-.198-.451-.361-.725-.361H2c-1.104 0-2 .995-2 2.093v6.964c0 .55.448.995 1 .995.553 0 1-.446 1-.995v-5.97c0-.548.448-1.097 1-1.097h9v4.082c0 1.1.896 1.887 2 1.887h4v1.098c0 .55.448.995 1 .995.553 0 1-.446 1-.995V6.803a.99.99 0 00-.275-.686zm-8.193 5.925a.896.896 0 00-.8.493l-.753 1.497-.752-1.497a.897.897 0 00-.8-.493.89.89 0 00-.8 1.289l1.352 2.69-1.352 2.693a.89.89 0 00.8 1.287c.338 0 .648-.19.8-.491l.752-1.499.753 1.499a.895.895 0 00.8.491.89.89 0 00.8-1.287l-1.353-2.692 1.353-2.691a.89.89 0 00-.8-1.289zM19 11.94h-4c-.547 0-.99.49-.997 1.034.007.542.45.956.997.956h1v5.077c0 .55.448.995 1 .995.553 0 1-.446 1-.995V13.93h1c.553 0 1-.394 1-.944v-.025c0-.55-.447-1.021-1-1.021zm-5 1.046l.003-.012c0-.005-.003-.01-.003-.013v.025zm-14 0l.003-.012c0-.005-.003-.01-.003-.013v.025zm6-.025v.025c0 .55-.447.944-1 .944H4v5.077c0 .55-.447.995-1 .995-.552 0-1-.446-1-.995V13.93H1c-.547 0-.99-.414-.997-.956.007-.545.45-1.034.997-1.034h4c.553 0 1 .47 1 1.02z"/></svg>