<svg xmlns="http://www.w3.org/2000/svg" viewBox="0 0 20 20"><path fill-rule="evenodd" d="M19.714 6.149L14.26.364c-.189-.199-.456-.363-.73-.363H1.98C.874.001 0 1.001 0 2.105v7c0 .552.437.896.99.896h.004c.553 0 1.006-.344 1.006-.896v-6c0-.552.427-1.104.98-1.104H12v4.104c0 1.105.874 1.896 1.98 1.896H18v1.104c0 .552.437.896.99.896h.004c.553 0 1.006-.344 1.006-.896V6.838c0-.257-.109-.503-.286-.689zM3.98 15.105a1 1 0 00-1-1h-1v2h1a1 1 0 001-1zm1.996-.266a3.002 3.002 0 01-2.996 3.162H2v1.104c0 .552-.453.896-1.006.896H.99c-.552 0-.989-.344-.989-.896v-6c0-.552.427-1.104.98-1.104h1.83c1.624 0 3.08 1.216 3.165 2.838zm5.025.266c0-.552-.469-1.104-1.02-1.104H9v4h.98c.551 0 1.02-.344 1.02-.896v-2zm2-.104v2c0 1.65-1.35 3-3 3H7.895A.895.895 0 017 19.105V12.98c0-.541.438-.979.98-.979H10c1.65 0 3 1.35 3 3zm7-1.974v.026c0 .552-.469.948-1.02.948H16v2h2.98A1.04 1.04 0 0120 17.027v.026c0 .552-.469.948-1.02.948H16v1.104c0 .552-.453.896-1.006.896h-.005c-.552 0-.989-.344-.989-.896v-6c0-.552.427-1.104.98-1.104h4A1.04 1.04 0 0120 13.027z"/></svg>