<svg xmlns="http://www.w3.org/2000/svg" viewBox="0 0 20 20"><path fill-rule="evenodd" d="M13.98 0H0v10h2V2h10v6h6v2h2V6.439L13.98.001zM11 15.106a1 1 0 00-1-1H9v2h1a1 1 0 001-1zm.724 2.37L13 20.002h-2l-1-2H9v2H7v-8h3c1.657 0 3 1.396 3 3.052 0 1.013-.506 1.88-1.276 2.423zM2 12.002c-1.105 0-2 1-2 2.104v1c0 1.104.895 1.896 2 1.896h1.5a.5.5 0 010 1H0v2h4.021c1.093 0 1.98-.782 1.98-1.875v-1.042c0-1.092-.887-2.083-1.98-2.083h-1.52a.5.5 0 010-1H6v-2H2zm16 0h2v2h-2a2 2 0 100 4h2v2h-2a4 4 0 010-8z"/></svg>