<svg xmlns="http://www.w3.org/2000/svg" viewBox="0 0 20 20"><path fill-rule="evenodd" d="M19.725 6.117L14.275.362C14.085.164 13.824 0 13.55 0H2C.896 0 0 .996 0 2.094v6.964c0 .549.448.994 1 .994.553 0 1-.445 1-.994v-5.97c0-.548.448-1.098 1-1.098h9v4.083c0 1.1.896 1.886 2 1.886h4v1.099c0 .549.448.994 1 .994.553 0 1-.445 1-.994V6.802c0-.254-.098-.5-.275-.685zM11 15.027a.997.997 0 00-1-.995H9v1.99h1c.553 0 1-.446 1-.995zm1.996-.265A2.991 2.991 0 0110 17.908H9v1.098a.997.997 0 01-1 .995c-.552 0-1-.446-1-.995v-5.97c0-.548.448-1.097 1-1.097h1.83c1.625 0 3.08 1.21 3.166 2.823zM5 11.939H1c-.552 0-1 .549-1 1.098v5.969c0 .549.448.891 1 .891h4c.553 0 1-.394 1-.943v-.026c0-.549-.447-1.02-1-1.02H2v-.995h3c.553 0 1-.394 1-.943v-.026c0-.55-.447-1.02-1-1.02H2v-.996h3c.553 0 1-.394 1-.943v-.026c0-.549-.447-1.02-1-1.02zm14 0h-3c-1.104 0-2 .994-2 2.093v.995c0 1.099.896 1.886 2 1.886h1.5c.276 0 .5.223.5.497a.499.499 0 01-.5.498H15c-.547 0-.99.489-.997 1.033.007.542.45.956.997.956h3.02c1.094 0 1.98-.778 1.98-1.865v-1.037c0-1.087-.886-2.072-1.98-2.072H16.5a.499.499 0 01-.5-.497.5.5 0 01.5-.498H19c.553 0 1-.394 1-.943v-.026c0-.549-.447-1.02-1-1.02zm-5 6.99c0 .004.003.007.003.012 0 .004-.003.008-.003.013v-.026z"/></svg>