<svg xmlns="http://www.w3.org/2000/svg" viewBox="0 0 20 20"><path fill-rule="evenodd" d="M16 12c-1.105 0-2 1-2 2.105v1c0 1.104.895 1.896 2 1.896h1.5a.5.5 0 010 1H14v2h4.021C19.114 20 20 19.219 20 18.126v-1.042c0-1.092-.886-2.083-1.979-2.083H16.5a.5.5 0 010-1H20v-2h-4zm-7 0c-1.105 0-2 1-2 2.105v1c0 1.104.895 1.896 2 1.896h1.5a.5.5 0 010 1H7v2h4.021C12.114 20 13 19.219 13 18.126v-1.042c0-1.092-.886-2.083-1.979-2.083H9.5a.5.5 0 010-1H13v-2H9zm-9 4a4 4 0 004 4h2v-2H4a2 2 0 110-4h2v-2H4a4 4 0 00-4 4zm20-9.562v3.563h-2V8h-6V2H2v8H0V0h13.979L20 6.438z"/></svg>