<svg xmlns="http://www.w3.org/2000/svg" viewBox="0 0 20 20"><path fill-rule="evenodd" d="M16 18.977v.026c0 .55-.448.945-1 .945H2V20c-1.105 0-2-.84-2-1.942V5.092a.998.998 0 011-.998c.552 0 1 .446 1 .998V17.06c0 .55.448.892 1 .892h12c.552 0 1 .473 1 1.024zm2-5.906c0 .55-.448.893-1 .893H7c-.552 0-1-.342-1-.893V3.097c0-.552.448-1.102 1-1.102h5v4.094c0 1.101.895 1.89 2 1.89h4v5.092zm1.707-7.3L14.293.344C14.105.158 13.851 0 13.586 0H6v.052c-1.105 0-2 .92-2 2.02v11.996c0 1.102.895 1.942 2 1.942v-.051h12v.051c1.105 0 2-.866 2-1.969V6.502c0-.264-.105-.544-.293-.731z"/></svg>