<svg xmlns="http://www.w3.org/2000/svg" viewBox="0 0 20 20"><path fill-rule="evenodd" d="M9.9 8a1 1 0 100 2.001 1 1 0 000-2zM18 8h-4.122C12.787 8 12 7.117 12 6.025V2.001H2.902C2.35 2 2 2.448 2 3v14c0 .552.35 1 .902 1H9v-5c0-.544.482-.983 1.024-.996A.996.996 0 0111 13v5h5.902c.553 0 1.098-.448 1.098-1V8zm2-1.609v11.633c0 1.092-.982 1.977-2.074 1.977H1.878C.787 20 0 19.116 0 18.024V2.001c0-1 .787-2 1.878-2h11.611a1 1 0 01.706.292l5.462 5.39c.188.187.343.443.343.708zm-9.951 5.61c-.009 0-.016.004-.025.004-.008 0-.015-.004-.024-.004h.049z"/></svg>