<svg xmlns="http://www.w3.org/2000/svg" viewBox="0 0 22 22"><path fill-rule="evenodd" d="M3.33 13.846l-.042-.001h-.015.056zm18.563-7.997L16.712.44c-.187-.184-.44-.44-.704-.44H4.415C3.325 0 2.22 1.028 2.22 2.107l-.223.152V13.16c0 .533.744.677 1.292.684.537-.003.705-.144.705-.684V3.27c0-.546.893-1.293 1.445-1.293h8.539v4.284c0 1.08 1.329 1.65 2.42 1.65h3.57v9.205c0 .546 0 .685-.552.685H9.431c-.539 0-1.396.566-1.436 1.102.04.525.897.876 1.436.876h11.007c1.089 0 1.526-.57 1.526-1.65V6.625c0-.263.117-.591-.07-.776zM7.987 18.943c0-.013.007-.026.008-.039-.001-.012-.008-.024-.008-.037v.076zm-1.413-2.487a.981.981 0 010 1.398L2.389 22l-.085-.085-2.012-1.993a.983.983 0 010-1.398 1.006 1.006 0 011.412 0l.685.678 2.773-2.746a1.006 1.006 0 011.412 0z"/></svg>