<svg xmlns="http://www.w3.org/2000/svg" viewBox="0 0 20 20"><path fill-rule="evenodd" d="M13.19 9.283l1.427 1.705a.62.62 0 01-.053.763l-4.361 4.62a.646.646 0 01-.97-.006l-4.346-4.528a.665.665 0 01-.064-.786L6.27 9.294A.638.638 0 016.818 9h5.832c.218 0 .42.1.54.282zM18 17.106c0 .552-.447.895-1 .895H3c-.552 0-1-.343-1-.895v-14C2 2.553 2.448 2 3 2h9v4.105C12 7.21 12.896 8 14 8h4v9.105zm1.708-11.293L14.293.346C14.106.158 13.85 0 13.586 0H2C.896 0 0 1 0 2.106v16C0 19.21.896 20 2 20h16c1.105 0 2-.791 2-1.895V6.52a.999.999 0 00-.292-.707z"/></svg>