<svg xmlns="http://www.w3.org/2000/svg" viewBox="0 0 20 20"><path fill-rule="evenodd" d="M19.678 5.301L14.267.315C14.082.146 13.84 0 13.589 0H1.548C.693 0 0 .741 0 1.592v7.465c0 .55.448.995 1 .995.553 0 1-.445 1-.995V3.09c0-.55.448-1.1 1-1.1h9v4.535c0 .85.693 1.434 1.548 1.434H18v9.058c0 .549-.447.89-1 .89h-1c-.547 0-.99.49-.997 1.035.007.542.45.955.997.955h2.453c.855 0 1.547-.585 1.547-1.435V6.06c0-.278-.116-.57-.322-.758zM15 18.953l.003-.012c0-.005-.003-.01-.003-.013v.025zM4 15.026a.997.997 0 00-1-.995H2v1.99h1c.553 0 1-.446 1-.995zm1.996-.264A2.99 2.99 0 013 17.906H2v1.1A.997.997 0 011 20c-.552 0-1-.446-1-.995v-5.968c0-.55.448-1.1 1-1.1h1.83c1.625 0 3.08 1.211 3.166 2.825zM7 18.953l.003-.012c0-.005-.003-.01-.003-.013v.025zm6-5.994v.026c0 .549-.447.942-1 .942H9.5a.498.498 0 100 .995h1.52c1.094 0 1.98.985 1.98 2.073v1.036c0 1.088-.886 1.865-1.98 1.865H8c-.547 0-.99-.413-.997-.955.007-.545.45-1.035.997-1.035h2.5a.498.498 0 100-.995H9c-1.104 0-2-.786-2-1.885v-.995c0-1.098.896-2.094 2-2.094h3c.553 0 1 .472 1 1.022z"/></svg>