<svg xmlns="http://www.w3.org/2000/svg" viewBox="0 0 20 20"><path fill-rule="evenodd" d="M19.725 6.117L14.275.362c-.19-.198-.451-.361-.725-.361H2c-1.104 0-2 .995-2 2.093v6.964c0 .55.448.995 1 .995.553 0 1-.446 1-.995v-5.97c0-.548.448-1.097 1-1.097h9v4.082c0 1.1.896 1.887 2 1.887h4v1.098c0 .55.448.995 1 .995.553 0 1-.446 1-.995V6.803a.99.99 0 00-.275-.686zM19 11.94h-4c-.552 0-1 .55-1 1.098v5.97c0 .548.448.994 1 .994.553 0 1-.446 1-.995v-1.098h3c.553 0 1-.394 1-.943v-.026c0-.55-.447-1.02-1-1.02h-3v-1.99h3c.553 0 1-.394 1-.944v-.025c0-.55-.447-1.021-1-1.021zm-14 0H4c-2.34 0-4.208 1.997-3.981 4.37.198 2.068 2.064 3.589 4.153 3.589H5c.553 0 1-.343 1-.892v-1.99a.997.997 0 00-1-.994c-.552 0-1 .445-1 .995v.994c-1.214 0-2.176-1.129-1.972-2.375.16-.978 1.083-1.707 2.079-1.707H5c.553 0 1-.394 1-.944v-.025c0-.55-.447-1.021-1-1.021zm2 1.046l.003-.012c0-.005-.003-.01-.003-.013v.025zm0 5.97c0-.006.003-.01.003-.013 0-.005-.003-.01-.003-.013v.025zm6-5.995v.025c0 .55-.447.944-1 .944h-1v3.979h1c.553 0 1 .47 1 1.02v.026c0 .55-.447.944-1 .944H8c-.547 0-.99-.414-.997-.956.007-.545.45-1.034.997-1.034h1v-3.98H8c-.547 0-.99-.413-.997-.955.007-.545.45-1.034.997-1.034h4c.553 0 1 .47 1 1.02z"/></svg>