<svg xmlns="http://www.w3.org/2000/svg" viewBox="0 0 20 20"><path fill-rule="evenodd" d="M17.943 17.01c0 .547-.315.99-.86.99H8.97v-6.14c0-.44.586-.665.904-.364l1.034.95a1.003 1.003 0 001.41-.04l.023-.015a.991.991 0 00-.036-1.398l-2.832-2.69a1.987 1.987 0 00-2.743.006l-2.818 2.69a.991.991 0 00-.044 1.389.984.984 0 001.403.049l.93-.942c.317-.301.777-.076.777.364V18h-3.87c-.546 0-1.114-.444-1.114-.99V2.99c0-.547.568-.99 1.113-.99h8.855v4c0 1.103 1.02 2 2.12 2h3.86v9.01zm1.993.99V6.41c0-.262-.04-.513-.225-.7L14.37.29a.982.982 0 00-.698-.29H2.12C1.02 0 .064 1 .064 2H0v16h.064c0 1 .924 2 2.024 2H18.07c1.1 0 1.93-.896 1.93-2h-.064z"/></svg>