<svg xmlns="http://www.w3.org/2000/svg" viewBox="0 0 20 20"><path fill-rule="evenodd" d="M17.96 10.447c0 .01-.003.02-.007.042-.003.015-.002.012 0 .001-.341 1.867-2.51 2.75-3.958 1.616a4.95 4.95 0 00.389-3.09 4.597 4.597 0 001.77-1.545c1.24.36 2.037 1.696 1.8 3.018l.006-.042zm-5.485 7.457c-1.56 0-2.771-1.571-2.46-3.167.964-.011 1.953-.389 2.712-1.008.624.51 1.406.852 2.192.96.351 1.62-.86 3.215-2.444 3.215zm-3.014-5.33c-3.141-.702-2.146-5.87 1.004-5.147 3.142.72 2.147 5.856-1.004 5.147zm-3.095.312a4.782 4.782 0 001.688 1.4 4.922 4.922 0 00.515 3.33c-3.039 1.6-5.185-3.274-2.203-4.73zm-2.592-.357c-1.446-.42-2.23-2.134-1.63-3.57.637-1.527 2.513-2.063 3.79-1.064a4.94 4.94 0 00-.39 3.09c-.71.348-1.32.88-1.77 1.544zm1.147-7.22h-.003l-.005-.001a.024.024 0 00.008 0zm2.395-3.205c1.608-.086 2.92 1.5 2.596 3.158-.962.013-1.952.39-2.71 1.009a4.352 4.352 0 00-1.459-.786c-.111-.034-.632-.166-.785-.178-.336-1.565.866-3.123 2.358-3.203zm6.246 5.01a4.77 4.77 0 00-1.687-1.399 4.926 4.926 0 00-.517-3.332c3.04-1.598 5.186 3.275 2.204 4.732zm3.357-1.59c.646-4.005-3.701-7.02-6.955-4.734-3.254-2.287-7.6.728-6.955 4.734-4.012 1.412-4.012 7.54 0 8.953-.646 4.004 3.7 7.02 6.955 4.734 3.254 2.285 7.601-.73 6.955-4.734 4.116-1.45 4.1-7.51 0-8.953z"/></svg>