<svg xmlns="http://www.w3.org/2000/svg" viewBox="0 0 20 20"><path fill-rule="evenodd" d="M15.133 17.05a5.995 5.995 0 00.834-3.05c0-1.673-.68-5.223-1.776-8.33 1.146-1.107 2.24-1.982 3.016-2.32a.486.486 0 01.66.311c.647 2.303-.453 11.452-2.734 13.39m-2.36-.189c-1.496 1.467-3.833 1.48-5.359.143A3.987 3.987 0 016.036 14c0-2.985 2.056-9.856 3.61-11.634a.483.483 0 01.722-.003C11.92 4.133 13.98 10.957 13.98 14a3.994 3.994 0 01-1.208 2.862m-8.214-.477c-1.553-1.682-2.936-10.25-2.252-12.72a.485.485 0 01.66-.313c.754.332 1.796 1.176 2.915 2.248-.98 2.75-2.516 8.012-1.323 10.785M17.8 1.198c-1.213 0-2.812 1.035-4.409 2.474C12.431 1.562 11.265 0 10.008 0 8.763 0 7.607 1.53 6.651 3.612 5.414 2.506 3.062.642 1.567 1.358c-2.971 1.424-1.057 12.227.357 15.22 1.02 2.157 3.153 3.42 5.14 3.422h4.854v-.008c2.866.062 4.965-1.429 5.905-3.415 1.494-3.16 4.055-15.379-.022-15.379"/></svg>