<svg xmlns="http://www.w3.org/2000/svg" viewBox="0 0 20 20"><path fill-rule="evenodd" d="M12 11.002V8.999a.998.998 0 00-.998-1H8.998A.998.998 0 008 9v2.003c0 .55.447.998.998.998h2.004a.998.998 0 00.998-.998zM12 14h-1v1a1 1 0 11-2 0v-1H8a2 2 0 01-2-2v-1H5a1 1 0 110-2h1V8a2 2 0 012-2h1V5a1 1 0 012 0v1h1a2 2 0 012 2v1h1a1 1 0 010 2h-1v1a2 2 0 01-2 2zm6-14h-5a1 1 0 000 2h4a1 1 0 011 1v4a1 1 0 102 0V2a2 2 0 00-2-2zm1 12a1 1 0 00-1 1v4a1 1 0 01-1 1h-4a1 1 0 000 2h5a2 2 0 002-2v-5a1 1 0 00-1-1zM7 18H3a1 1 0 01-1-1v-4a1 1 0 00-2 0v5a2 2 0 002 2h5a1 1 0 100-2zM1 8a1 1 0 001-1V3a1 1 0 011-1h4a1 1 0 100-2H2a2 2 0 00-2 2v5a1 1 0 001 1zm-.99 2l-.01.01v-.02l.01.01z"/></svg>