<svg xmlns="http://www.w3.org/2000/svg" viewBox="0 0 20 20"><path fill-rule="evenodd" d="M18 9a1 1 0 00-1-1H3a1 1 0 00-1 1v8a1 1 0 001 1h2a1 1 0 001-1 1 1 0 011-1h6a1 1 0 011 1 1 1 0 001 1h2a1 1 0 001-1V9zm2-1v10a2 2 0 01-2 2h-4a2 2 0 01-2-2H8a2 2 0 01-2 2H2a2 2 0 01-2-2V8a2 2 0 012-2h7V4a2 2 0 012-2h2a1 1 0 001-1V0h2v2a2 2 0 01-2 2h-2a1 1 0 00-1 1v1h7a2 2 0 012 2zm-5 2h-2a1 1 0 00-1 1v2a1 1 0 001 1h2a1 1 0 001-1v-2a1 1 0 00-1-1zm-7 1v2a1 1 0 01-1 1H5a1 1 0 01-1-1v-2a1 1 0 011-1h2a1 1 0 011 1z"/></svg>