<svg xmlns="http://www.w3.org/2000/svg" viewBox="0 0 20 20"><path fill-rule="evenodd" d="M17.888 11.307a7.943 7.943 0 00-4.35 2.228 7.944 7.944 0 00-2.227 4.35 7.952 7.952 0 006.577-6.578m-8.612 6.658a9.96 9.96 0 018.692-8.688 7.96 7.96 0 00-2.306-4.934 7.947 7.947 0 00-4.938-2.308 9.943 9.943 0 01-2.847 5.843 9.955 9.955 0 01-5.845 2.844 7.96 7.96 0 002.306 4.935 7.952 7.952 0 004.938 2.308M2.112 8.692a7.939 7.939 0 004.35-2.228A7.946 7.946 0 008.69 2.115a7.939 7.939 0 00-4.35 2.228 7.946 7.946 0 00-2.227 4.349m17.811 2.535a9.96 9.96 0 01-8.691 8.688c-.41.05-.82.085-1.232.085-.257 0-.514-.017-.772-.037a9.968 9.968 0 01-6.305-2.892 9.95 9.95 0 01-2.894-6.3 10.037 10.037 0 01.048-1.999 9.937 9.937 0 012.846-5.843A9.955 9.955 0 018.77.085 9.915 9.915 0 0110 0c.257 0 .514.017.772.037a9.957 9.957 0 016.305 2.892 9.945 9.945 0 012.894 6.3c.051.666.034 1.335-.048 1.998M10.772.037A9.962 9.962 0 0010 0c-.411 0-.823.034-1.231.085M.077 8.772a9.97 9.97 0 00-.048 1.999m19.894.456c.082-.663.1-1.332.048-1.998m-8.739 10.686c-.41.05-.82.085-1.232.085-.257 0-.514-.017-.772-.037"/></svg>