<svg xmlns="http://www.w3.org/2000/svg" viewBox="0 0 19 20"><path fill-rule="evenodd" d="M5.65 6.803C4.314 5.623 3.153 4.99 3.04 4.928c-.998-.54-2.246-.186-2.789.802a2 2 0 00.822 2.739c.04.022 3.428 1.866 4.439 5.175 1.395-2.275.663-5.312.137-6.841m11.422-5.654a2.164 2.164 0 00-2.905-.907 2.124 2.124 0 00-.916 2.878c.034.064 3.307 6.452-.128 13.855a2.125 2.125 0 001.057 2.829c1.08.493 2.36.024 2.857-1.047 4.308-9.281.212-17.272.035-17.608m-4.238 13.813a11.938 11.938 0 00-1.402-3.972c-.07 1.917-.561 3.966-1.891 5.84a2.07 2.07 0 01-2.864.496 2.024 2.024 0 01-.5-2.837c1.217-1.716 1.837-4.68.016-9.062-.515-1.103-.04-2.274.931-2.746.671-.326 1.488-.226 2.047.08.167.091 2.119 1.199 4.062 3.438.495 2.097.791 5.255-.399 8.763"/></svg>