<svg xmlns="http://www.w3.org/2000/svg" viewBox="0 0 20 20"><path fill-rule="evenodd" d="M18 15.833C18 16.979 17.062 18 15.917 18H3.852C2.829 18 2 17.087 2 16.065V14h7.558c.861 0 1.626-.593 1.898-1.41l.667-1.979C12.554 9.316 11.59 8 10.225 8H2.367c.952-3 3.682-5.671 7.085-5.899C14.11 1.789 18 5.407 18 10v5.833zm0-11.815A10.05 10.05 0 0015.982 2 9.94 9.94 0 004.018 2 10.05 10.05 0 002 4.018 9.942 9.942 0 000 10v5.833C0 18.042 1.791 20 4 20h12c2.209 0 4-1.958 4-4.167V10c0-2.247-.75-4.313-2-5.982z"/></svg>