<svg xmlns="http://www.w3.org/2000/svg" viewBox="0 0 17 19"><path fill-rule="evenodd" d="M14.875 16.212c0 .552-.476.788-1.063.788H12.75c-.587 0-1.063-.236-1.063-.788v-1c0-1.105-.95-2.212-2.124-2.212H7.437c-1.174 0-2.125 1.107-2.125 2.212v1c0 .552-.475.788-1.062.788H3.187c-.586 0-1.062-.236-1.062-.788V8.15c0-.133.056-.26.155-.354L7.738 2.66a1.109 1.109 0 011.503 0l5.479 5.156a.488.488 0 01.155.353v8.044zM17 7.625a.974.974 0 00-.31-.706L9.999.59A2.221 2.221 0 006.991.583L.312 6.848A.972.972 0 000 7.556v9.656C0 18.317.95 19 2.125 19h3.188c1.174 0 2.125-.683 2.125-1.788v-1c0-.552.475-1 1.062-1 .587 0 1.063.448 1.063 1v1c0 1.105.95 1.788 2.124 1.788h3.188C16.049 19 17 18.317 17 17.212V7.625z"/></svg>