<svg xmlns="http://www.w3.org/2000/svg" viewBox="0 0 20 20"><path fill-rule="evenodd" d="M8 6a1 1 0 00-1 1v6a1 1 0 002 0v-2h2v2a1 1 0 002 0V7a1 1 0 00-2 0v2H9V7a1 1 0 00-1-1m11 0a1 1 0 00-1 1v6a1 1 0 002 0V7a1 1 0 00-1-1m0 10a1 1 0 00-1 1 1 1 0 01-1 1 1 1 0 000 2h1a2 2 0 002-2v-1a1 1 0 00-1-1M18 0h-1a1 1 0 000 2 1 1 0 011 1 1 1 0 002 0V2a2 2 0 00-2-2M1 14a1 1 0 001-1V7a1 1 0 00-2 0v6a1 1 0 001 1m2 4a1 1 0 01-1-1 1 1 0 00-2 0v1a2 2 0 002 2h1a1 1 0 000-2M3 0H2a2 2 0 00-2 2v1a1 1 0 002 0 1 1 0 011-1 1 1 0 000-2m10 18H7a1 1 0 000 2h6a1 1 0 000-2m1-17a1 1 0 01-1 1H7a1 1 0 010-2h6a1 1 0 011 1"/></svg>