<svg xmlns="http://www.w3.org/2000/svg" viewBox="0 0 20 20"><path fill-rule="evenodd" d="M12.083 8.796c0-1.093.896-1.977 2-1.977 1.105 0 2 .884 2 1.977a1.988 1.988 0 01-2 1.977c-1.104 0-2-.885-2-1.977zM18 16.13l-4.013-3.967-.016.015-.015-.015-1.431 1.414-4.629-4.576-.015.016-.016-.016L2 14.801V6.159h16v9.972zm-6.643 1.892l2.614-2.585 2.615 2.585h-5.229zm-2.828 0h-6.46l5.812-5.993 3.23 3.317-2.582 2.676zm1.444-14.98l1.152 1.139H8.821l1.152-1.139zm3.98 1.139L9.973 0c-1.781 1.916-.901.99-3.98 4.182H0V20h20V4.182h-6.047z"/></svg>