<svg xmlns="http://www.w3.org/2000/svg" viewBox="0 0 11 10"><path fill-rule="evenodd" d="M11 5c0 .552-.493 1-1.1 1H8.155L9.39 7.121a.939.939 0 010 1.415c-.43.39-1.127.39-1.557 0L6.6 7.414V9c0 .552-.493 1-1.1 1-.607 0-1.1-.448-1.1-1V7.414L3.167 8.536c-.43.39-1.126.39-1.557 0a.939.939 0 010-1.415L2.845 6H1.1C.493 6 0 5.552 0 5s.493-1 1.1-1h1.745L1.61 2.879a.939.939 0 010-1.415c.43-.39 1.127-.39 1.557 0L4.4 2.586V1c0-.552.493-1 1.1-1 .607 0 1.1.448 1.1 1v1.586l1.233-1.122c.43-.39 1.126-.39 1.557 0a.939.939 0 010 1.415L8.155 4H9.9c.607 0 1.1.448 1.1 1z"/></svg>