<svg xmlns="http://www.w3.org/2000/svg" viewBox="0 0 20 20"><path fill-rule="evenodd" d="M7.172 7.414A.999.999 0 118.586 6l.707.707 2.122-2.121A.999.999 0 1112.829 6L9.293 9.535 7.172 7.414zM17 10V6.916L18 10h-1zm1 6.916c0 .553-.447 1.084-1 1.084H3c-.552 0-1-.531-1-1.084V12h3c.553 0 1 .364 1 .916v1C6 15.021 6.896 16 8 16h4c1.105 0 2-.979 2-2.084v-1c0-.552.448-.916 1-.916h3v4.916zm-15-10V10H2l1-3.084zm2-4C5 2.364 5.448 2 6 2h8c.553 0 1 .364 1 .916V10h-1c-1.104 0-2 .812-2 1.916v1c0 .553-.447 1.084-1 1.084H9c-.552 0-1-.531-1-1.084v-1C8 10.812 7.105 10 6 10H5V2.916zM18 4h-1V1.916C17 .812 16.105 0 15 0H5C3.896 0 3 .812 3 1.916V4H2L0 9.916v8C0 19.021.896 20 2 20h16c1.105 0 2-.979 2-2.084v-8L18 4z"/></svg>