<svg xmlns="http://www.w3.org/2000/svg" viewBox="0 0 20 20"><path fill-rule="evenodd" d="M5.87.123C4.242.196 2.83.594 1.69 1.729.548 2.869.155 4.286.081 5.897.037 6.902-.231 14.498.545 16.49a5.04 5.04 0 002.91 2.903c.634.246 1.356.412 2.416.461 8.86.401 12.145.183 13.53-3.364.246-.631.415-1.353.462-2.41.405-8.883-.066-10.809-1.61-12.351C17.027.507 15.586-.325 5.87.123m.081 17.944c-.97-.043-1.496-.205-1.848-.341a3.255 3.255 0 01-1.888-1.883c-.591-1.514-.395-8.703-.342-9.866.051-1.14.282-2.18 1.086-2.985C3.954 2 5.24 1.513 13.993 1.908c1.142.052 2.186.282 2.992 1.084.995.993 1.489 2.288 1.087 11.008-.044.968-.206 1.493-.342 1.843-.901 2.308-2.973 2.628-11.779 2.224M14.09 4.69c0 .657.534 1.19 1.194 1.19.66 0 1.195-.533 1.195-1.19a1.194 1.194 0 00-2.39 0M4.864 9.988a5.103 5.103 0 005.11 5.097 5.103 5.103 0 005.109-5.097 5.102 5.102 0 00-5.11-5.096 5.102 5.102 0 00-5.11 5.096m1.794 0A3.313 3.313 0 019.972 6.68a3.313 3.313 0 013.317 3.308 3.313 3.313 0 01-3.317 3.31 3.313 3.313 0 01-3.316-3.31"/></svg>