<svg xmlns="http://www.w3.org/2000/svg" viewBox="0 0 20 20"><path fill-rule="evenodd" d="M14.858 15.401c-1.598 0-2.118-1.244-1.707-2.641l.593-2.12c.278-.905-.029-1.743-.988-1.743-.845 0-1.402.464-1.689 1.632L9.917 15H7.905l.361-1.308c-.591.972-1.413 1.645-2.426 1.645-1.56 0-2.046-1.095-1.689-2.614L5.067 9H3.648l.431-2h3.414l-1.348 5.548c-.159.603-.29 1.341.306 1.475.16.036 1.437.038 2.132-1.507L9.468 9H8.031l.431-2h3.072l-.395 2.008c.539-1.006 1.617-1.861 2.677-1.861 1.726 0 2.45 1.776 1.869 3.738l-.575 2.078c-.356 1.427.678 1.617 1.329-.186l.791.306c-.468 1.635-1.312 2.318-2.372 2.318M6.684 3.885c.665 0 1.222.521 1.222 1.203 0 .683-.557 1.204-1.222 1.204a1.207 1.207 0 01-1.221-1.204c0-.682.556-1.203 1.221-1.203M18.187 0H1.813A1.813 1.813 0 000 1.813v16.374C0 19.188.812 20 1.813 20h16.374A1.813 1.813 0 0020 18.187V1.813A1.813 1.813 0 0018.187 0"/></svg>