<svg xmlns="http://www.w3.org/2000/svg" viewBox="0 0 20 20"><path fill-rule="evenodd" d="M13.896 10.163a4.071 4.071 0 01-4.069-4.065 4.071 4.071 0 014.07-4.065 4.071 4.071 0 014.068 4.065 4.071 4.071 0 01-4.069 4.065M12.518.151C10.265.643 8.45 2.46 7.948 4.709a6.093 6.093 0 00.985 4.93L4.026 14.54l-.702-.701a1.017 1.017 0 00-1.439 0 1.014 1.014 0 000 1.437l.702.701-2.289 2.287a1.017 1.017 0 001.438 1.437l.732-.73.69.69a1.017 1.017 0 001.44-1.438l-.691-.69 2.013-2.011.71.71a1.016 1.016 0 101.438-1.437l-.71-.71 3.016-3.013c1.341.949 3.077 1.379 4.92.966 2.247-.502 4.061-2.314 4.554-4.561A6.115 6.115 0 0012.518.15"/></svg>