<svg xmlns="http://www.w3.org/2000/svg" viewBox="0 0 21 20"><path fill-rule="evenodd" d="M3.15 14c1.74 0 3.15 1.343 3.15 3s-1.41 3-3.15 3S0 18.657 0 17s1.41-3 3.15-3zm0 2c-.579 0-1.05.449-1.05 1 0 .551.471 1 1.05 1 .579 0 1.05-.449 1.05-1 0-.551-.471-1-1.05-1zm0-16C4.89 0 6.3 1.343 6.3 3S4.89 6 3.15 6 0 4.657 0 3s1.41-3 3.15-3zm0 2c-.579 0-1.05.449-1.05 1 0 .551.471 1 1.05 1 .579 0 1.05-.449 1.05-1 0-.551-.471-1-1.05-1zm0 5C4.89 7 6.3 8.343 6.3 10s-1.41 3-3.15 3S0 11.657 0 10s1.41-3 3.15-3zm0 2c-.579 0-1.05.449-1.05 1 0 .551.471 1 1.05 1 .579 0 1.05-.449 1.05-1 0-.551-.471-1-1.05-1zm5.25 9H21v-2H8.4v2zm0-14H21V2H8.4v2zm0 7H21V9H8.4v2z"/></svg>