<svg xmlns="http://www.w3.org/2000/svg" viewBox="0 0 21 10"><path fill-rule="evenodd" d="M1.575 8H.525A.513.513 0 000 8.5v1c0 .276.235.5.525.5h1.05c.29 0 .525-.224.525-.5v-1c0-.276-.235-.5-.525-.5m0-7.994H.525a.513.513 0 00-.525.5v1c0 .276.235.5.525.5h1.05c.29 0 .525-.224.525-.5v-1c0-.276-.235-.5-.525-.5m0 3.994H.525A.513.513 0 000 4.5v1c0 .276.235.5.525.5h1.05c.29 0 .525-.224.525-.5v-1c0-.276-.235-.5-.525-.5m18.9 4H4.725a.513.513 0 00-.525.5v1c0 .276.235.5.525.5h15.75c.29 0 .525-.224.525-.5v-1c0-.276-.235-.5-.525-.5m0-8H4.725A.513.513 0 004.2.5v1c0 .276.235.5.525.5h15.75c.29 0 .525-.224.525-.5v-1c0-.276-.235-.5-.525-.5M21 4.5v1c0 .276-.235.5-.525.5H4.725a.513.513 0 01-.525-.5v-1c0-.276.235-.5.525-.5h15.75c.29 0 .525.224.525.5"/></svg>