<svg xmlns="http://www.w3.org/2000/svg" viewBox="0 0 21 20"><path fill-rule="evenodd" d="M18.9 17.009c0 .551-.518.991-1.097.991h-3.15a.98.98 0 01-1.003-.991v-3A.994.994 0 0114.653 13h3.15c.58 0 1.097.458 1.097 1.009v3zM17.803 11h-3.15c-1.74 0-3.103 1.352-3.103 3.009v3c0 1.657 1.363 2.991 3.103 2.991h3.15C19.543 20 21 18.666 21 17.009v-3C21 12.352 19.543 11 17.803 11zM7.35 17.009c0 .551-.518.991-1.097.991h-3.15a.98.98 0 01-1.003-.991v-3A.994.994 0 013.103 13h3.15c.58 0 1.097.458 1.097 1.009v3zM6.253 11h-3.15C1.363 11 0 12.352 0 14.009v3C0 18.666 1.363 20 3.103 20h3.15c1.74 0 3.197-1.334 3.197-2.991v-3C9.45 12.352 7.993 11 6.253 11zM18.9 6.009c0 .551-.518.991-1.097.991h-3.15a.98.98 0 01-1.003-.991v-3A.994.994 0 0114.653 2h3.15c.58 0 1.097.458 1.097 1.009v3zM17.803 0h-3.15c-1.74 0-3.103 1.352-3.103 3.009v3C11.55 7.666 12.913 9 14.653 9h3.15C19.543 9 21 7.666 21 6.009v-3C21 1.352 19.543 0 17.803 0zM7.35 6.009c0 .551-.518.991-1.097.991h-3.15A.98.98 0 012.1 6.009v-3A.994.994 0 013.103 2h3.15c.58 0 1.097.458 1.097 1.009v3zM6.253 0h-3.15C1.363 0 0 1.352 0 3.009v3C0 7.666 1.363 9 3.103 9h3.15C7.993 9 9.45 7.666 9.45 6.009v-3C9.45 1.352 7.993 0 6.253 0z"/></svg>