<svg xmlns="http://www.w3.org/2000/svg" viewBox="0 0 7 20"><path fill-rule="evenodd" d="M3.5 18c-.643 0-1.167-.449-1.167-1 0-.551.524-1 1.167-1s1.167.449 1.167 1c0 .551-.524 1-1.167 1m0-4C1.567 14 0 15.343 0 17s1.567 3 3.5 3S7 18.657 7 17s-1.567-3-3.5-3m0-3c-.643 0-1.167-.449-1.167-1 0-.551.524-1 1.167-1s1.167.449 1.167 1c0 .551-.524 1-1.167 1m0-4C1.567 7 0 8.343 0 10s1.567 3 3.5 3S7 11.657 7 10 5.433 7 3.5 7m0-5c.643 0 1.167.449 1.167 1 0 .551-.524 1-1.167 1s-1.167-.449-1.167-1c0-.551.524-1 1.167-1m0 4C5.433 6 7 4.657 7 3S5.433 0 3.5 0 0 1.343 0 3s1.567 3 3.5 3"/></svg>