<svg xmlns="http://www.w3.org/2000/svg" viewBox="0 0 20 20"><path fill-rule="evenodd" d="M13.178 1.884C8.888-1.866 2.236.256.76 5.818.14 8.152.737 9.235.737 10.987c0 1.8-.737 4.409-.737 4.409 0 .319.283.63.632.54 1.247-.327 3.23-.972 5.603-.328 7.977 2.163 13.096-8.347 6.943-13.724M19.448 20a.647.647 0 01-.16-.02c-6.307-1.584-5.884.194-9.388-.743a7.86 7.86 0 01-2.858-1.455c6.364.78 11.669-4.765 10.73-11.294.96 1 1.666 2.238 1.964 3.625.849 3.936-1.306 3.27.248 9.252.091.35-.219.635-.537.635"/></svg>