<svg xmlns="http://www.w3.org/2000/svg" viewBox="0 0 20 20"><path fill-rule="evenodd" d="M9.958 0C4 0-.735 5.127.095 11.125c.529 3.822 3.428 7.031 7.225 8.043 1.414.377 2.874.457 4.34.204 1.224-.212 2.48-.117 3.679.183l1.457.364c1.889.473 3.605-1.208 3.122-3.06l-.278-1.069c-.302-1.16-.367-2.385-.055-3.542a9.657 9.657 0 00.104-4.588C18.77 3.415 14.873 0 9.958 0m0 2c3.952 0 7.047 2.71 7.776 6.083a7.649 7.649 0 01-.08 3.643c-1.35 4.992 2.598 6.996-1.83 5.888-1.473-.368-3.008-.472-4.505-.213a8.09 8.09 0 01-3.484-.165c-3.027-.807-5.342-3.373-5.76-6.385C1.406 5.997 5.27 2 9.959 2"/></svg>