<svg xmlns="http://www.w3.org/2000/svg" viewBox="0 0 20 20"><path fill-rule="evenodd" d="M11.873 9.94a2 2 0 11-4 .001 2 2 0 014-.001M17.442 18c-1 0-2.803-1.173-6.123-.599a8.074 8.074 0 01-3.484-.166c-3.028-.806-5.342-3.372-5.76-6.384-.31-2.243.335-4.414 1.815-6.113A8.035 8.035 0 019.958 2c3.943 0 7.045 2.703 7.775 6.083.824 3.808-1.28 3.411.25 9.28.09.351-.221.637-.541.637m2.476-1.141c-1.4-5.375.724-4.786-.23-9.199C18.768 3.405 14.862 0 9.958 0 4-.001-.735 5.127.095 11.125c.529 3.821 3.428 7.031 7.225 8.043 1.417.377 2.877.457 4.34.204 2.732-.473 4.597.628 5.782.628 1.61 0 2.902-1.504 2.476-3.141"/></svg>