<svg xmlns="http://www.w3.org/2000/svg" viewBox="0 0 20 20"><path fill-rule="evenodd" d="M15.195 6.057c1.105 0 2 .888 2 1.984a1.992 1.992 0 01-2 1.984c-1.105 0-2-.888-2-1.984s.895-1.984 2-1.984m-3 1.984a1.992 1.992 0 01-2 1.984c-1.105 0-2-.888-2-1.984s.895-1.984 2-1.984 2 .888 2 1.984m-5 0a1.992 1.992 0 01-2 1.984c-1.105 0-2-.888-2-1.984s.895-1.984 2-1.984 2 .888 2 1.984M13.16 13.3a3.774 3.774 0 00-2.72 1.88l-.44.776-.438-.774a3.768 3.768 0 00-2.72-1.873c-2.883-.412-4.962-2.986-4.836-5.878.132-3.057 2.923-5.446 6.49-5.446h3.7l-.159.08c3.157 0 5.83 2.45 5.958 5.406a5.636 5.636 0 01-4.835 5.83M12.036 0h-3.54C3.81 0 .185 3.23.006 7.345c-.173 3.973 2.734 7.341 6.548 7.886.535.076.997.433 1.262.902L10 20l2.183-3.85c.265-.47.727-.803 1.263-.88 3.813-.545 6.72-3.954 6.547-7.926C19.814 3.229 16.188 0 12.036 0"/></svg>