<svg xmlns="http://www.w3.org/2000/svg" viewBox="0 0 20 20"><path fill-rule="evenodd" d="M16.04 8.26c-.124 3.638-2.897 5.386-5.754 5.49l-1.863 1.756c.202.035.403.006.606.028v2.509h-3.01V20h8.026v-1.957h-3.01v-2.509c3.652-.4 7.023-3.363 7.023-7.278-.38 0-1.64-.002-2.019.004zM4.736 10.982a5.619 5.619 0 01-.724-2.726H2.006c0 .979.468 3.13 1.241 4.301l1.49-1.575zm3.289-3.453V2.384h4.013v1.23l2.006-1.957V.427H6.019c0 8.047-.103 7.794.294 8.773l1.713-1.67zM20 1.384L1.419 19.51 0 18.127 18.58 0 20 1.384z"/></svg>