<svg xmlns="http://www.w3.org/2000/svg" viewBox="0 0 20 20"><path fill-rule="evenodd" d="M15.166 15.18c-.549.546-.675.74-1.418 0l-.868-.867a8.07 8.07 0 001.418-1.415l.868.867c.731.73.68.735 0 1.414m-4.717-1.722C5.454 15.728.174 10.363 2.529 5.428 4.74.79 11.65 1.013 13.556 5.786c1.17 2.93-.231 6.365-3.107 7.671m-.133.061c-.05.022-.045.02 0 0m9.389 4.774l-2.412-2.406a1.996 1.996 0 000-2.828l-1.94-1.936C17.845 5.268 12.448-1.174 6.24.182.435 1.452-1.98 8.635 1.863 13.146c2.25 2.643 6.018 3.584 9.236 2.22l1.94 1.936a2.009 2.009 0 002.836 0l2.412 2.405c.912.91 2.332-.502 1.418-1.414"/></svg>