<svg xmlns="http://www.w3.org/2000/svg" viewBox="0 0 16 20"><path fill-rule="evenodd" d="M8.993 15.437V18h2.042c.541 0 .95.31.971.836-.04.536-.444 1.164-.971 1.164H4.992c-.557 0-1.034-.573-1.034-1.125v-.125c0-.552.477-.75 1.034-.75H6.98v-2.563C3.96 15.061.484 13.043.006 8.873-.062 8.278.423 8 1.026 8h.004c.505 0 .932.251.992.75.814 6.833 11.169 6.708 11.982-.125.06-.499.488-.625.993-.625H15c.603 0 1.062.278.993.873-.477 4.17-2.972 6.188-7 6.564zm3.021 3.438c0-.014-.007-.025-.008-.039.002-.028.008-.058.008-.086v.125zM5.972 2.5c0-.552.477-.5 1.034-.5H9.02c.556 0 .98-.052.98.5v5c0 1.104-.902 2-2.014 2a2.008 2.008 0 01-2.014-2v-5zm2.014 9c2.225 0 4.028-1.791 4.028-4v-6c0-1.105-.875-1.5-1.986-1.5H5.999C4.887 0 3.96.395 3.96 1.5v6c0 2.209 1.803 4 4.027 4z"/></svg>