<svg xmlns="http://www.w3.org/2000/svg" viewBox="0 0 20 20"><path fill-rule="evenodd" d="M17.845 15.926C17.407 17.295 15.932 18 14.932 18H4.117c-.913 0-1.873-.627-2.075-1.618-.371-1.826 1.724-3.154 3.195-1.985-.63-2.074.195-4.098 1.528-5.242 2.912-2.499 7.394-.86 8.135 2.812a.402.402 0 00.05-.006c.017-.002.033-.004.05-.004 1.886 0 3.519 1.863 2.845 3.969M13.727 2.894c2.832 1.509 4.6 4.624 4.187 8.027a5.06 5.06 0 00-1.468-.727.04.04 0 01-.014-.008.027.027 0 01-.01-.012c-.598-1.38-1.628-2.578-3.146-3.387.454-1.411.558-2.628.45-3.893m5.812 9.976a9.97 9.97 0 00.44-2.913c0-5.288-4.09-9.528-9.145-9.957a7.89 7.89 0 01.567 6.114c-2.321-.473-4.478.22-6.036 1.602a6.992 6.992 0 00-2.24 3.999 7.727 7.727 0 01-3.102-.904 9.616 9.616 0 00.693 2.872 3.97 3.97 0 00-.68 2.806C.302 18.561 2.213 20 4.2 20h10.57c2.549 0 4.983-1.906 5.212-4.597a4.994 4.994 0 00-.444-2.533"/></svg>