<svg xmlns="http://www.w3.org/2000/svg" viewBox="0 0 20 20"><path fill-rule="evenodd" d="M13.018 17.974V18h-.08c-8.356 0-8.45.17-9.582-.571-2.517-1.646-1.263-5.45 1.652-5.45.37 0 .722.076 1.05.199l-.02.765c-.035 1.278 1.868 1.399 2.008.161.171-1.509.271-3.75 3.22-4.795 3.044-1.079 5.854.727 6.544 3.373.006.024.017.046.023.07.795 3.258-1.692 6.172-4.815 6.222m.728-15.08a8.039 8.039 0 013.963 4.93 6.934 6.934 0 00-4.184-1.818 9.534 9.534 0 00.221-3.112M10.85 0a7.948 7.948 0 01.557 6.179 6.995 6.995 0 00-4.856 4.067c-1.924-.628-3.778-.066-5.032 1.156a7.941 7.941 0 01-1.494-.591 9.86 9.86 0 00.43 2.115C-1.06 16.265 1.401 20 5.007 20h8.01c-.01 0-.019-.013-.03-.013l.03-.008c4.539-.068 7.627-4.037 6.829-8.301C20.882 5.729 16.535.482 10.849 0"/></svg>