<svg xmlns="http://www.w3.org/2000/svg" viewBox="0 0 20 20"><path fill-rule="evenodd" d="M17.828 11.752c-.006-.024-.016-.046-.023-.07-.689-2.646-3.499-4.452-6.543-3.373-2.948 1.045-3.047 3.286-3.219 4.795a.999.999 0 01-1.954.149.86.86 0 01-.055-.31l.021-.765a2.974 2.974 0 00-1.05-.199 3.005 3.005 0 00-2.953 3.554c.13.721.558 1.41 1.302 1.896.545.357 1.246.571 1.814.571h7.846v-.026c3.122-.05 5.609-2.964 4.814-6.222M13.52 6.005a6.93 6.93 0 014.184 1.819 8.036 8.036 0 00-3.963-4.93 9.528 9.528 0 01-.22 3.111m6.32 5.673c.08.422.125.858.125 1.303 0 3.829-2.948 6.938-6.952 6.998l-.03.008c.01 0 .02.013.03.013H5.005A5.012 5.012 0 010 14.989c0-.733.167-1.435.451-2.063a9.861 9.861 0 01-.429-2.115c.47.25.975.437 1.494.591 1.255-1.222 3.108-1.784 5.03-1.156a6.997 6.997 0 014.856-4.068A7.947 7.947 0 0010.844 0C15.906.429 20 4.67 20 9.957c0 .587-.061 1.161-.158 1.721M6.26 3.427a1 1 0 10-1.22-1.584 1 1 0 001.22 1.584m-.587 2.218a1 1 0 101.22 1.586 1 1 0 10-1.22-1.586M1.681 6.679a.998.998 0 01.184-1.402 1 1 0 11-.184 1.402"/></svg>