<svg xmlns="http://www.w3.org/2000/svg" viewBox="0 0 21 20"><path fill-rule="evenodd" d="M18.9 17.261c0 .55-.402.739-.98.739H8.47c-.577 0-1.12-.189-1.12-.739V15h6.895c.87 0 1.505-.411 1.505-1.239V7h2.17c.58 0 .98.709.98 1.261v9zM3.22 13c-.577 0-1.12-.189-1.12-.739v-9C2.1 2.709 2.64 2 3.22 2h9.45c.58 0 .98.709.98 1.261v9c0 .55-.402.739-.98.739H3.22zm16.275-8H15.75V1.761C15.75.933 15.115 0 14.245 0h-12.6C.78 0 0 .936 0 1.761v12C0 14.586.78 15 1.645 15H5.25v3.761c0 .825.78 1.239 1.645 1.239h12.6c.87 0 1.505-.411 1.505-1.239v-12C21 5.933 20.365 5 19.495 5z"/></svg>