<svg xmlns="http://www.w3.org/2000/svg" viewBox="0 0 23 23"><path fill-rule="evenodd" d="M23 18v2h-3v3h-2v-3h-3v-2h3v-3h2v3h3zM8.011 7.902L7.969 7.9l-.043.002a2 2 0 01-1.957-1.996c0-1.103.897-2 2-2s2 .897 2 2a2 2 0 01-1.958 1.996zm-3.053.593C3.807 8.965 3 9.697 2 10.615V2h5.122a3.998 3.998 0 00-3.153 3.906c0 .993.39 1.89.989 2.589zM15.963 16s.006-.066.006-.107a7.99 7.99 0 00-4.974-7.398 3.964 3.964 0 00.974-2.589A3.999 3.999 0 008.815 2H18v11h2V0H0v20h13v-2H2v-2h-.025c-.001 0-.006-.066-.006-.107 0-3.294 2.669-5.968 5.957-5.991.015 0 .028.004.043.004.014 0 .028-.004.042-.004 3.289.023 5.958 2.694 5.958 5.988 0 .04-.005.11-.006.11h2z"/></svg>