<svg xmlns="http://www.w3.org/2000/svg" viewBox="0 0 20 21"><path fill-rule="evenodd" d="M14.083 5.884c0-2.163-1.831-3.923-4.083-3.923-2.252 0-4.083 1.76-4.083 3.923 0 2.163 1.831 3.923 4.083 3.923 2.252 0 4.083-1.76 4.083-3.923m3.863 13.73h-1.821c-.564 0-1.021-.44-1.021-.982 0-.54.457-.98 1.02-.98h.439c.706 0 1.228-.684.96-1.312-1.236-2.907-4.14-4.572-7.523-4.572-3.384 0-6.287 1.665-7.523 4.572-.268.628.254 1.312.96 1.312h.438c.564 0 1.021.44 1.021.98 0 .542-.457.981-1.02.981H2.053c-1.276 0-2.28-1.12-2.01-2.318.743-3.294 3.064-5.725 6.12-6.828-1.394-1.078-2.289-2.73-2.289-4.583 0-3.482 3.148-6.258 6.859-5.843 2.689.3 4.916 2.359 5.32 4.93.346 2.218-.598 4.243-2.218 5.496 3.056 1.103 5.377 3.534 6.12 6.828.27 1.197-.734 2.318-2.01 2.318m-5.78-1.674l-.723.693.722.694a.95.95 0 010 1.386 1.05 1.05 0 01-1.443 0L10 20.02l-.722.693a1.05 1.05 0 01-1.443 0 .953.953 0 010-1.386l.722-.694-.722-.693a.953.953 0 010-1.387 1.05 1.05 0 011.443 0l.722.694.722-.694a1.05 1.05 0 011.443 0c.4.383.4 1.004 0 1.387"/></svg>