<svg xmlns="http://www.w3.org/2000/svg" viewBox="0 0 20 20"><path fill-rule="evenodd" d="M20 4a1 1 0 01-1 1h-2v2a1 1 0 01-2 0V5h-2a1 1 0 010-2h2V1a1 1 0 012 0v2h2a1 1 0 011 1m-8.26 14H3.612c-.795 0-1.298-.901-.84-1.551a5.993 5.993 0 014.861-2.547c.014 0 .028.004.042.004.015 0 .028-.004.043-.004a5.99 5.99 0 014.862 2.547c.458.65-.044 1.551-.84 1.551M7.675 7.906c1.103 0 2 .897 2 2a2 2 0 01-1.957 1.996l-.043-.002-.042.002a2 2 0 01-1.958-1.996c0-1.103.898-2 2-2m3.026 4.589a3.955 3.955 0 00.8-3.771 3.962 3.962 0 00-2.895-2.713 4.006 4.006 0 00-4.93 3.895c0 .993.374 1.89.973 2.589-2.129.87-3.8 2.686-4.548 4.905C-.329 18.68.67 20 2.02 20h11.312c1.35 0 2.35-1.32 1.918-2.6-.747-2.219-2.418-4.035-4.548-4.905"/></svg>