<svg xmlns="http://www.w3.org/2000/svg" viewBox="0 0 20 17"><path fill-rule="evenodd" d="M20 1a1 1 0 01-1 1h-6a1 1 0 010-2h6a1 1 0 011 1M7.973 8.902L7.93 8.9l-.043.002A1.999 1.999 0 119.93 6.906a2 2 0 01-1.958 1.996m2.983.593a3.955 3.955 0 00.799-3.771 3.964 3.964 0 00-2.893-2.713A4.006 4.006 0 003.93 6.906c0 .993.375 1.89.973 2.589C2.32 10.55.413 12.997.01 15.867A1.004 1.004 0 001.009 17a.992.992 0 00.982-.853c.412-2.907 2.896-5.224 5.897-5.245.015 0 .028.004.043.004.014 0 .027-.004.042-.004 3 .021 5.485 2.338 5.897 5.246.07.489.488.852.983.852.604 0 1.082-.534.998-1.133-.403-2.87-2.311-5.316-4.895-6.372"/></svg>