<svg xmlns="http://www.w3.org/2000/svg" viewBox="0 0 22 20"><path fill-rule="evenodd" d="M22 19a1 1 0 01-1 1h-4a1 1 0 010-2h4a1 1 0 011 1M10.623 9.933a6.19 6.19 0 00-1.255-.003A3.003 3.003 0 017 7c0-1.654 1.346-3 3-3s3 1.346 3 3a3.004 3.004 0 01-2.377 2.933m-8.611 7.126C2.011 17.038 2 17.021 2 17V3a1 1 0 011-1h6.936A4.999 4.999 0 005 6.997c0 1.444.622 2.737 1.602 3.65a7.985 7.985 0 00-4.59 6.412M10.064 2H17a1 1 0 011 1v9.09c0 .503.408.91.91.91.758 0 1.09-.406 1.09-.91V2a2 2 0 00-2-2H2a2 2 0 00-2 2v16a2 2 0 002 2h10.09a.91.91 0 00.91-.91c0-.758-.406-1.09-.91-1.09H3.975c-.001 0-.006-.066-.006-.107 0-6.098 7.386-6.904 9.241-5.18 1.011.939 2.506-.562 1.386-1.357a7.927 7.927 0 00-1.221-.714C14.368 9.728 15 8.443 15 6.987A4.99 4.99 0 0010.064 2"/></svg>