<svg xmlns="http://www.w3.org/2000/svg" viewBox="0 0 20 17"><path fill-rule="evenodd" d="M12 1.998h8V0h-8v1.998zM8.042 8.893L8 8.89l-.042.002A1.999 1.999 0 016 6.899a2.001 2.001 0 014 0 2 2 0 01-1.958 1.994zm2.984.592A3.957 3.957 0 0012 6.9a3.998 3.998 0 00-4-3.996c-2.209 0-4 1.79-4 3.996 0 .992.375 1.888.974 2.586C2.057 10.675 0 13.64 0 16.982c0 .04.005 0 .006 0H2c0-3.29 2.669-6.068 5.958-6.091.014 0 .027.004.042.004.015 0 .028-.004.042-.004 3.289.023 5.958 2.8 5.958 6.091h2c0-3.343-2.057-6.306-4.974-7.497z"/></svg>