<svg xmlns="http://www.w3.org/2000/svg" viewBox="0 0 20 20"><path fill-rule="evenodd" d="M20 3v2h-3v3h-2V5h-3V3h3V0h2v3h3zM2.312 18a6.002 6.002 0 015.646-4.098c.014 0 .027.004.042.004.015 0 .028-.004.042-.004A6.002 6.002 0 0113.69 18H2.312zM8 7.906c1.103 0 2 .897 2 2a2 2 0 01-1.958 1.996L8 11.9l-.042.002A2 2 0 016 9.906c0-1.103.897-2 2-2zm3.026 4.589A3.964 3.964 0 0012 9.906a4 4 0 00-8 0c0 .993.375 1.89.974 2.589A7.985 7.985 0 000 19.89c0 .04.024.11.024.11h15.97c.222-2.434-1.43-6.059-4.968-7.505z"/></svg>