<svg xmlns="http://www.w3.org/2000/svg" viewBox="0 0 22 22"><path fill-rule="evenodd" d="M19.93 18.548l2.07 2.07L20.62 22l-2.071-2.072L16.477 22l-1.38-1.381 2.071-2.07-2.071-2.071 1.38-1.382 2.072 2.072 2.07-2.072L22 16.478l-2.07 2.07zM7.82 7.714l-.04-.002-.042.002a1.951 1.951 0 111.994-1.948 1.952 1.952 0 01-1.911 1.948zm-2.98.579c-1.123.459-1.911 1.173-2.887 2.07v-8.41h5a3.903 3.903 0 00-3.078 3.813c0 .969.38 1.845.965 2.527zm10.743 7.326s.007-.064.007-.104a7.8 7.8 0 00-4.857-7.222 3.87 3.87 0 00.952-2.527 3.904 3.904 0 00-3.08-3.814h8.968v10.739h1.952V0H0v19.524h12.691v-1.952H1.953v-1.953h-.025s-.006-.064-.006-.104c0-3.216 2.605-5.826 5.816-5.849.014 0 .027.004.042.004.013 0 .026-.004.04-.004 3.212.023 5.817 2.63 5.817 5.846 0 .04-.005.107-.006.107h1.952z"/></svg>