<svg xmlns="http://www.w3.org/2000/svg" viewBox="0 0 20 20"><path fill-rule="evenodd" d="M17.855 3.536L20 5.657l-1.43 1.415-2.145-2.122-2.147 2.122-1.43-1.415 2.146-2.121-2.146-2.121L14.278 0l2.147 2.122L18.57 0 20 1.415l-2.145 2.121zM2.548 18c.8-3 3.053-4.311 5.71-4.33.015 0 .029-.112.044-.112.014 0 .027.171.042.17 2.658.019 4.913 1.272 5.712 4.272H2.548zM8.302 7.442c1.114 0 2.023.897 2.023 2 0 1.089-.885 1.973-1.98 1.996l-.043-.002-.044.002c-1.095-.023-1.979-.907-1.979-1.996 0-1.103.907-2 2.023-2zm3.06 4.705a4.097 4.097 0 00.986-2.647c0-2.209-1.812-4.029-4.046-4.029-2.235 0-4.046 1.777-4.046 3.986 0 .992.38 1.882.984 2.581C2.29 13.229.21 16.315.21 19.662.21 19.702 0 20 0 20h16.387c.077-3.771-2.145-6.689-5.025-7.853z"/></svg>