<svg xmlns="http://www.w3.org/2000/svg" viewBox="0 0 21 21"><path fill-rule="evenodd" d="M20.712 19.33a.976.976 0 010 1.383.981.981 0 01-1.386 0l-.694-.692-.693.692a.982.982 0 01-1.387 0 .977.977 0 010-1.383l.693-.692-.693-.691a.977.977 0 010-1.384.982.982 0 011.387 0l.693.692.694-.692a.981.981 0 011.386 0 .975.975 0 010 1.384l-.693.691.693.692zM10.418 9.717a6.095 6.095 0 00-1.232-.003 2.939 2.939 0 01-2.321-2.866 2.942 2.942 0 015.884 0 2.94 2.94 0 01-2.331 2.87zm-8.445 6.971c-.002-.02-.012-.037-.012-.057V2.935a.98.98 0 01.981-.978h6.802a4.895 4.895 0 00-4.84 4.888c0 1.414.61 2.678 1.57 3.57-2.447 1.135-4.213 3.48-4.5 6.273zM9.87 1.957h6.802a.98.98 0 01.98.978v8.804a.98.98 0 001.961 0l.001-9.782A1.96 1.96 0 0017.652 0H1.962A1.959 1.959 0 000 1.957v15.652c0 1.081.878 1.957 1.961 1.957h9.807a.98.98 0 00.98-.979.98.98 0 00-.98-.978h-7.87s-.007-.065-.007-.104c0-3.028 2.312-5.522 5.267-5.83.981.13 2.672-.281 3.796.762.981.909 2.463-.546 1.36-1.328a7.858 7.858 0 00-1.198-.698c.973-.893 1.594-2.151 1.594-3.576 0-2.68-2.163-4.844-4.84-4.878z"/></svg>