<svg xmlns="http://www.w3.org/2000/svg" viewBox="0 0 20 18"><path fill-rule="evenodd" d="M14.647 4.706l1.106-2.211a.894.894 0 111.6.8l-1.106 2.211a.894.894 0 01-1.6-.8zm-10-1.411a.895.895 0 011.6-.8l1.106 2.211a.894.894 0 01-1.6.8L4.647 3.295zM10 3V1a1 1 0 012 0v2a1 1 0 11-2 0zm8 11h-2v-2h1a1 1 0 011 1v1zm-4 1a1 1 0 01-1 1H9a1 1 0 01-1-1v-4a1 1 0 011-1h4a1 1 0 011 1v4zm-8-1H2v-1a1 1 0 011-1h3v2zm10-4a2 2 0 00-2-2H8a2 2 0 00-2 2H2a2 2 0 00-2 2v5a1 1 0 102 0v-1h4a2 2 0 002 2h6a2 2 0 002-2h2v1a1 1 0 102 0v-5a2 2 0 00-2-2h-2z"/></svg>