<svg xmlns="http://www.w3.org/2000/svg" viewBox="0 0 21 20"><path fill-rule="evenodd" d="M10.267 14.512c0 .552-.47 1-1.05 1-.58 0-1.05-.448-1.05-1s.47-1 1.05-1c.58 0 1.05.448 1.05 1M6.067 5c0-.552.47-1 1.05-1h5.995c.877 0 1.588.677 1.588 1.512V8c0 1.1-.945 2-2.1 2h-1.566a.522.522 0 00-.534.509v1.003c0 .552-.47 1-1.05 1-.58 0-1.05-.448-1.05-1V9.778C8.4 8.796 9.236 8 10.267 8h1.05c.58 0 1.05-.448 1.05-1s-.47-1-1.05-1h-4.2c-.58 0-1.05-.448-1.05-1M17.85 18H3.15c-.58 0-1.05-.448-1.05-1V3c0-.552.47-1 1.05-1h14.7c.58 0 1.05.448 1.05 1v14c0 .552-.47 1-1.05 1M0 2v16c0 1.105.94 2 2.1 2h16.8c1.16 0 2.1-.895 2.1-2V2c0-1.104-.94-2-2.1-2H2.1C.94 0 0 .896 0 2"/></svg>