<svg xmlns="http://www.w3.org/2000/svg" viewBox="0 0 20 17"><path fill-rule="evenodd" d="M14.195 2.828l-1.414 1.414c1.414 1.414 1.513 4.346.1 5.76l1.413 1.415c2.121-2.122 2.022-6.468-.099-8.589M17.023 0L15.61 1.414c2.83 2.828 2.928 8.588.1 11.417l1.413 1.414c4.242-4.243 3.437-10.71-.1-14.245m-5.59 5.737c-.024-.026-.04-.055-.066-.081l-.004.004c-.78-.781-2.12-.708-2.827-.001-.707.707-.705 2.119.002 2.826.01.009.02.014.03.023.022.026.04.055.064.08l.004-.003C9.201 9.15 9 7.284 9 17h2c0-9.942-.247-7.704.463-8.414.707-.707.705-2.119-.002-2.826-.009-.009-.02-.014-.029-.023M7.12 4.242L5.705 2.828c-2.12 2.121-2.022 6.467.1 8.589l1.413-1.415c-1.414-1.414-1.513-4.346-.099-5.76M4.39 12.831l-1.414 1.414C-.56 10.709-1.366 4.242 2.877 0l1.414 1.414c-2.829 2.828-2.73 8.588.1 11.417"/></svg>