<svg xmlns="http://www.w3.org/2000/svg" viewBox="0 0 20 20"><path fill-rule="evenodd" d="M17.285 4.134l-1.418-1.418a1.002 1.002 0 00-1.418 0l-3.1 3.099 2.837 2.837 3.1-3.1a1.002 1.002 0 000-1.418zm-4.518 5.937L9.93 7.233l-7.214 7.215a1.002 1.002 0 000 1.419l1.418 1.418a1.002 1.002 0 001.418 0l7.215-7.214zm6.646-3.81L6.26 19.412a2.006 2.006 0 01-2.836 0L.588 16.576a2.007 2.007 0 010-2.838L13.738.588a2.005 2.005 0 012.838 0l2.837 2.837a2.006 2.006 0 010 2.836zM8.51 10.071a1.004 1.004 0 101.419 0 1.002 1.002 0 00-1.419 0zm-1.418 2.837a1.004 1.004 0 11-1.418 0 1.004 1.004 0 011.418 0z"/></svg>