<svg xmlns="http://www.w3.org/2000/svg" viewBox="0 0 20 20"><path fill-rule="evenodd" d="M2 7.5C2 4.467 4.467 2 7.5 2a5.504 5.504 0 014.896 3.006 7.499 7.499 0 00-7.205 5.834 4.033 4.033 0 001.901.685 5.508 5.508 0 014.433-4.433c.317-.057.642-.092.975-.092.162 0 .319.02.477.036.012.153.023.307.023.464 0 3.033-2.467 5.5-5.5 5.5A5.506 5.506 0 012 7.5m14.379-1.41c.072.46.121.929.121 1.41 0 .39-.033.771-.081 1.147A5.484 5.484 0 0118 12.5c0 3.033-2.467 5.5-5.5 5.5-1.5 0-2.859-.605-3.853-1.581a5.534 5.534 0 01-1.034-1.425A7.496 7.496 0 0015 7.5a7.5 7.5 0 10-9.659 7.181c.182.6.43 1.172.749 1.698A7.487 7.487 0 0012.5 20a7.5 7.5 0 007.5-7.5 7.487 7.487 0 00-3.621-6.41"/></svg>