<svg xmlns="http://www.w3.org/2000/svg" viewBox="0 0 23 22"><path fill-rule="evenodd" d="M19.179 6.075c-.552 0-1 .446-1 .996v5.971c0 .55.448.995 1 .995s1-.445 1-.995V7.071a.998.998 0 00-1-.996zm-2-3.98c.552 0 1 .445 1 .995 0 .549.448.995 1 .995s1-.446 1-.995v-.996c0-1.1-.895-2.095-2-2.095h-1c-.552 0-1 .498-1 1.048s.448 1.047 1 1.047zm-16 11.942c.552 0 1-.445 1-.995V7.071a.998.998 0 00-1-.996c-.552 0-1 .446-1 .996v5.971c0 .55.448.995 1 .995zm2 3.981c-.552 0-1-.445-1-.995a.998.998 0 00-1-.995c-.552 0-1 .446-1 .995v.995c0 1.1.895 1.886 2 1.886h1c.552 0 1-.393 1-.942 0-.55-.448-.944-1-.944zM3.179 0h-1c-1.105 0-2 .996-2 2.095v.996c0 .549.448.995 1 .995s1-.446 1-.995c0-.55.448-.996 1-.996s1-.497 1-1.047c0-.55-.448-1.048-1-1.048zm18 17.915h-1v-.89a.998.998 0 00-1-.996c-.552 0-1 .446-1 .995v.89h-1c-.552 0-1 .447-1 .996 0 1.1 1 .995 2 .995v1.1c0 .55.448.995 1 .995s1-.445 1-.995v-1.1c1 0 2 .105 2-.995a.998.998 0 00-1-.995zm-8 0h-6c-.552 0-1 .446-1 .995 0 .55.448.995 1 .995h6c.552 0 1-.444 1-.995a.998.998 0 00-1-.995zm-6-15.924h6c.552 0 1-.445 1-.995a.998.998 0 00-1-.996h-6c-.552 0-1 .446-1 .996s.448.995 1 .995zm.035 12.989c0-1.1-.895-1.99-2-1.99v.995c0 .549.448.995 1 .995h1zm1.986-.05h2c0-2.987-3.021-5.92-6.021-5.92V11c2 0 4.021 1.939 4.021 3.93zm5.943-1.094a.98.98 0 01-.991 1.093h-.938c0-3.98-4.035-7.911-8.035-7.911v-.934c0-.597.544-1.06 1.141-.995 4.625.515 8.306 4.144 8.823 8.747z"/></svg>