<svg xmlns="http://www.w3.org/2000/svg" viewBox="0 0 20 20"><path fill-rule="evenodd" d="M6.429 13.571A1.009 1.009 0 115 15a1.009 1.009 0 111.43-1.43zm9.285-6.428l-1.428-1.429-1.429 1.429 1.429 1.428L12.857 10 11.43 8.571 10 10l1.428 1.43L10 12.857 8.57 11.43l-1.428 1.428 1.428 1.429-2.857 2.857-2.857-2.857 11.429-11.43 2.857 2.858-1.43 1.429zm2.858-2.857l-2.858-2.858L14.286 0l-1.429 1.428-11.429 11.43L0 14.285l1.428 1.428 2.858 2.858L5.714 20l1.429-1.428L10 15.714l1.428-1.428 1.428-1.429 1.429-1.428 1.428-1.43 1.43-1.428 1.428-1.428L20 5.714l-1.428-1.428z"/></svg>