<svg xmlns="http://www.w3.org/2000/svg" viewBox="0 0 19 20"><path fill-rule="evenodd" d="M5.277 4c.583 0 1.055-.448 1.055-1V1c0-.552-.472-1-1.055-1-.582 0-1.055.448-1.055 1v2c0 .552.473 1 1.055 1m4.02 10.464l-1.915 1.683c-.332.315-1.05.092-1.05-.354v-5.136c0-.553-.472-1-1.055-1-.582 0-1.055.447-1.055 1v5.134c0 .446-.419.669-.75.354l-1.746-1.681a1.02 1.02 0 00-1.431 0c-.413.39-.382 1.024.03 1.415l3.37 3.18.385.356c.824.78 2.166.78 2.989 0l3.739-3.537a.963.963 0 00.012-1.414 1.138 1.138 0 00-1.523 0m9.48-6.104l-4.123 2.156a1.088 1.088 0 01-1.33-.122.973.973 0 01.137-1.524L14.72 8H5.757c-.582 0-1.059-.414-1.059-.967 0-.71.679-.967 1.05-.967l5.314-.007.404-4.318C11.803.784 12.75.215 13.793.413l3.744.332c.986.187 1.456 1.008 1.456 1.961v4.835c0 .329.07.633-.217.819"/></svg>