<svg xmlns="http://www.w3.org/2000/svg" viewBox="0 0 21 20"><path fill-rule="evenodd" d="M11.55 10c0 .552-.47 1-1.05 1-.58 0-1.05-.448-1.05-1s.47-1 1.05-1c.58 0 1.05.448 1.05 1m4.011 1.358c-.465 1.669-1.883 3.019-3.635 3.462-3.99 1.008-7.545-2.378-6.487-6.178.465-1.669 1.883-3.019 3.635-3.462 3.99-1.008 7.545 2.378 6.487 6.178M19.95 9h-1.739c-.253 0-.6-.016-.598-.257.005-.889-.3-2.153-.975-2.845-.172-.177-.121-.339.057-.509l1.23-1.108a.93.93 0 000-1.383c-.41-.391-1.076-.375-1.485.015l-1.23 1.179a.547.547 0 01-.665.059 7.498 7.498 0 00-2.564-1.01c-.248-.049-.431-.244-.431-.485V1c0-.552-.47-1-1.05-1-.58 0-1.05.448-1.05 1v1.656c0 .241-.183.438-.43.487a7.5 7.5 0 00-2.565 1.011.545.545 0 01-.665-.054L4.56 2.929a1.086 1.086 0 00-1.485 0 .966.966 0 000 1.414l1.23 1.171c.178.17.206.439.057.634-.519.683-.85 1.414-1 2.692-.028.239-.32.16-.573.16H1.05C.47 9 0 9.448 0 10s.47 1 1.05 1h1.739c.253 0 .56.088.61.323.19.887.458 1.549.963 2.279.14.201.121.589-.057.759l-1.23 1.233a1.003 1.003 0 000 1.446c.41.39 1.076.406 1.485.015l1.23-1.163a.545.545 0 01.665-.05 7.523 7.523 0 002.564 1.013c.248.049.431.248.431.489V19c0 .552.47 1 1.05 1 .58 0 1.05-.448 1.05-1v-1.656c0-.241.183-.438.43-.487a7.52 7.52 0 002.565-1.011.545.545 0 01.665.054l1.23 1.171c.41.391 1.075.391 1.485 0a.966.966 0 000-1.414l-1.23-1.171a.482.482 0 01-.057-.634c.505-.73.78-1.138 1.062-1.942.08-.228.258-.91.511-.91h1.739c.58 0 1.05-.448 1.05-1s-.47-1-1.05-1"/></svg>