<svg xmlns="http://www.w3.org/2000/svg" viewBox="0 0 20 20"><path fill-rule="evenodd" d="M16 18c-1.103 0-2-.897-2-2 0-2.643 4-2.644 4 0 0 1.103-.897 2-2 2M7.875 4c0-1.103.897-2 2-2s2 .897 2 2c0 2.643-4 2.644-4 0M4 18c-1.103 0-2-.897-2-2s.897-2 2-2 2 .897 2 2-.897 2-2 2m11.399-5.939L12.49 7.005A3.974 3.974 0 0013.875 4a4 4 0 00-8 0c0 1.221.559 2.3 1.421 3.034l-2.891 5.007C1.919 11.788 0 13.731 0 16a4 4 0 008 0 3.989 3.989 0 00-1.691-3.257l2.784-4.822a3.939 3.939 0 001.611-.009l2.847 4.947A3.975 3.975 0 0012 16a4 4 0 008 0c0-2.362-2.072-4.324-4.601-3.939"/></svg>