<svg xmlns="http://www.w3.org/2000/svg" viewBox="0 0 20 20"><path fill-rule="evenodd" d="M12.121 12.382l-.707.704.707.705a.993.993 0 010 1.41 1 1 0 01-1.414 0L10 14.496l-.707.705c-.391.39-1.024.39-1.415 0a.995.995 0 010-1.41l.707-.705-.707-.704a.995.995 0 010-1.41 1.002 1.002 0 011.415 0l.707.705.707-.705a1 1 0 011.414 0 .993.993 0 010 1.41zM18 17.01c0 .55-.448.996-1 .996H3c-.553 0-1-.446-1-.996V9.036a.997.997 0 011-.997h14c.552 0 1 .445 1 .997v7.974zM9.909 1.985c2.259 0 4.221 2.067 4.813 4.06H5.005c.447-1.993 2.508-4.06 4.904-4.06zm8 4.06h-1.124C16.174 3.055 13.276 0 9.909 0c-3.47 0-6.44 3.055-6.923 6.045H1.909C.804 6.045 0 7.001 0 8.103v9.967C0 19.172.804 20 1.909 20h16C19.014 20 20 19.172 20 18.07V8.103c0-1.102-.986-2.058-2.091-2.058z"/></svg>