<svg xmlns="http://www.w3.org/2000/svg" viewBox="0 0 20 19"><path fill-rule="evenodd" d="M7 12.953c0-.556.448-1.008 1-1.008h1v-1.37c0-.558.448-1.008 1-1.008.551 0 .999.45.999 1.008v1.37h1c.552 0 1 .452 1 1.008 0 .557-.448 1.008-1 1.008h-1v.645c0 .556-.448 1.008-1 1.008-.551 0-1-.452-1-1.008v-.645H8c-.552 0-1-.451-1-1.008zm8.458 3.211c-.09.476-.502.82-.983.82H5.542c-.488 0-.906-.355-.986-.842l-1.193-7.22h13.454l-1.36 7.242zm3.538-9.258h-1.999L13.475.574c-.277-.481-.887-.737-1.366-.46-.478.279-.642 1.032-.365 1.514l2.945 5.278H5.31l2.945-5.324C8.532 1.1 8.368.393 7.89.115 7.411-.163 6.8.138 6.524.62L3.002 6.906h-2c-1.21 0-1.573 2.016.333 2.016l1.388 8.394c.16.971.996 1.684 1.972 1.684h10.609c.976 0 1.811-.713 1.972-1.684l1.387-8.394c1.927 0 1.527-2.016.333-2.016z"/></svg>