<svg xmlns="http://www.w3.org/2000/svg" viewBox="0 0 20 19"><path fill-rule="evenodd" d="M7.88 13.303l.706-.713-.706-.712a1.013 1.013 0 010-1.425.993.993 0 011.413 0l.707.712.706-.712a.994.994 0 011.415 0c.39.393.39 1.03 0 1.425l-.707.712.707.713c.39.394.39 1.032 0 1.425a.994.994 0 01-1.415 0L10 14.015l-.707.713a.993.993 0 01-1.413 0 1.013 1.013 0 010-1.425zm7.577 2.861a1 1 0 01-.981.82H5.544c-.49 0-.906-.355-.987-.841L3.363 8.922h13.454l-1.36 7.242zm3.539-9.258h-2L13.477.574c-.277-.481-.888-.737-1.366-.46-.478.279-.642 1.032-.366 1.514l2.945 5.278H5.312l2.944-5.324C8.532 1.1 8.368.393 7.891.115 7.413-.163 6.8.138 6.525.62L3.003 6.906h-2c-1.195 0-1.59 2.016.334 2.016l1.388 8.394c.16.971.994 1.684 1.972 1.684h10.607c.977 0 1.81-.713 1.972-1.684l1.387-8.394c1.927 0 1.527-2.016.333-2.016z"/></svg>