<svg xmlns="http://www.w3.org/2000/svg" viewBox="0 0 20 20"><path fill-rule="evenodd" d="M13 13.022a1 1 0 01-1 .997H8c-.552 0-1-.446-1-.997 0-.55.448-.996 1-.996h4c.552 0 1 .446 1 .996zm5 3.988c0 .55-.448.996-1 .996H3c-.552 0-1-.446-1-.996V9.035a1 1 0 011-.997h14a1 1 0 011 .997v7.975zM9.955 1.985c2.259 0 4.221 2.066 4.813 4.06H5.051c.447-1.994 2.508-4.06 4.904-4.06zm8 4.06h-1.124C16.22 3.055 13.321 0 9.955 0c-3.47 0-6.44 3.054-6.924 6.045H1.955C.85 6.045 0 7.002 0 8.102v9.968C0 19.172.85 20 1.955 20h16C19.059 20 20 19.172 20 18.07V8.102c0-1.1-.941-2.057-2.045-2.057z"/></svg>