<svg xmlns="http://www.w3.org/2000/svg" viewBox="0 0 16 20"><path fill-rule="evenodd" d="M8.942 11.063c0 .552-.45 1-1.004 1a1.002 1.002 0 01-1.005-1c0-.552.45-1 1.005-1 .554 0 1.004.448 1.004 1m0 4c0 .552-.45 1-1.004 1a1.002 1.002 0 01-1.005-1c0-.552.45-1 1.005-1 .554 0 1.004.448 1.004 1m1.066-9.896c0 1.105-.899 2-2.008 2a2.004 2.004 0 01-2.008-2c0-1.104.9-2 2.008-2 1.11 0 2.008.896 2.008 2M7.973 18c-2.582 0-4.938-1.709-5.734-4.155-.793-2.438.12-5.108 2.105-6.62.55-.419.752-1.114.662-1.798C4.78 3.731 6.099 2 7.973 2c1.872 0 3.19 1.731 2.967 3.427-.09.684.11 1.379.66 1.798 1.987 1.512 2.898 4.182 2.106 6.62C12.911 16.291 10.554 18 7.973 18m5.342-11.963a1.053 1.053 0 01-.347-.84C13.076 2.431 10.833 0 7.973 0c-2.86 0-5.104 2.432-4.996 5.199.012.32-.108.624-.348.838C-1.615 9.815-.632 17.12 4.94 19.412c2.95 1.212 6.437.492 8.69-1.758 3.496-3.488 2.898-8.751-.315-11.617"/></svg>