<svg xmlns="http://www.w3.org/2000/svg" viewBox="0 0 20 20"><path fill-rule="evenodd" d="M18 18h-2.939c1.298-2 2.106-3.29 2.106-5.25 0-2.805-1.654-5.343-4.037-6.46.638-.709 1.037-1.449 1.037-2.478 0-.732-.211-1.812-.555-1.812H18v16zm-7.833-.5c-2.757 0-5-2.243-5-5s2.243-5 5-5 5 2.243 5 5-2.243 5-5 5zM2 18V2h4.721c-.343 0-.554 1.018-.554 1.75 0 1.028.399 1.831 1.036 2.54-2.382 1.117-4.036 3.717-4.036 6.523 0 1.959.807 3.187 2.105 5.187H2zm8.167-16.5c1.102 0 2 .897 2 2s-.898 2-2 2c-1.103 0-2-.897-2-2s.897-2 2-2zM0 20h20V0H0v20z"/></svg>