<svg xmlns="http://www.w3.org/2000/svg" viewBox="0 0 20 20"><path fill-rule="evenodd" d="M18 16.695c0 .552-.448 1.305-1 1.305h-1.939c1.298-1 2.106-3.192 2.106-5.152 0-2.806-1.654-5.295-4.037-6.412.638-.708 1.037-1.522 1.037-2.55 0-.733-.211-.886-.555-1.886H17c.552 0 1 .143 1 .695v14zm-7.833 1c-2.757 0-5-2.243-5-5s2.243-5 5-5 5 2.243 5 5-2.243 5-5 5zM3 18c-.552 0-1-.753-1-1.305v-14C2 2.143 2.448 2 3 2h3.721c-.343 1-.554 1.115-.554 1.848 0 1.028.399 1.88 1.036 2.588-2.382 1.117-4.036 3.644-4.036 6.45 0 1.96.807 4.114 2.105 5.114H3zm7.167-16.305c1.102 0 2 .897 2 2s-.898 2-2 2c-1.103 0-2-.897-2-2s.897-2 2-2zM18 0H2a2 2 0 00-2 2v16a2 2 0 002 2h16a2 2 0 002-2V2a2 2 0 00-2-2z"/></svg>