<svg xmlns="http://www.w3.org/2000/svg" viewBox="0 0 20 20"><path fill-rule="evenodd" d="M13.13 12.797a3 3 0 11-6 0 3 3 0 016 0zM18 18h-2.939c1.298-2 2.106-3.29 2.106-5.25 0-2.805-1.654-5.343-4.037-6.46.638-.708 1.037-1.449 1.037-2.477 0-.733-.211-1.813-.555-1.813H18v16zm-7.833-.5c-2.757 0-5-2.243-5-5s2.243-5 5-5 5 2.243 5 5-2.243 5-5 5zM2 18V2h4.722c-.344 0-.555 1.018-.555 1.75 0 1.029.399 1.832 1.036 2.54-2.382 1.117-4.036 3.718-4.036 6.523 0 1.96.807 3.187 2.105 5.187H2zm8.167-16.5c1.103 0 2 .898 2 2 0 1.103-.897 2-2 2s-2-.897-2-2c0-1.102.897-2 2-2zM0 20h20V0H0v20z"/></svg>