<svg xmlns="http://www.w3.org/2000/svg" viewBox="0 0 20 20"><path fill-rule="evenodd" d="M2.929 4.343a.999.999 0 111.414-1.414.999.999 0 11-1.414 1.414m14.142 11.314a.999.999 0 11-1.414 1.414.999.999 0 111.414-1.414m-12.728 0a.999.999 0 11-1.414 1.414.999.999 0 111.414-1.414M17.071 2.929a.999.999 0 11-1.414 1.414.999.999 0 111.414-1.414M2 10a1 1 0 11-2 0 1 1 0 012 0m18 0a1 1 0 11-2 0 1 1 0 012 0m-9 9a1 1 0 11-2 0 1 1 0 012 0M9 1a1 1 0 112 0 1 1 0 01-2 0m1 14c-2.757 0-5-2.243-5-5s2.243-5 5-5 5 2.243 5 5-2.243 5-5 5m0-12a7 7 0 100 14 7 7 0 000-14"/></svg>