<svg xmlns="http://www.w3.org/2000/svg" viewBox="0 0 21 18"><path fill-rule="evenodd" d="M4.2 5c0-.552-.47-1-1.05-1h-2.1C.47 4 0 4.448 0 5s.47 1 1.05 1h2.1c.58 0 1.05-.448 1.05-1m16.186-1.169l-.374-.357-3.34-3.18a1.088 1.088 0 00-1.485 0 .966.966 0 000 1.413l1.765 1.561c.331.315.097.732-.371.732H11.19c-.58 0-1.05.448-1.05 1s.47 1 1.05 1h5.393c.468 0 .702.66.371.975l-1.767 1.742a1.003 1.003 0 000 1.445c.41.39 1.075.405 1.485.015l3.714-3.529a1.922 1.922 0 000-2.817m-6.04 9.211l-.35 3.557C13.8 17.534 12.938 18 11.937 18H6.861c-.346 0-.67.045-.865-.226l-2.268-3.927a.953.953 0 01.117-1.26 1.066 1.066 0 011.58.13l.875 1.192V5.414c0-.552.475-1 1.054-1 .747 0 1.054.646 1.054 1l.009 5.044 4.533.398c1.004.318 1.603 1.197 1.395 2.186"/></svg>