<svg xmlns="http://www.w3.org/2000/svg" viewBox="0 0 20 20"><path fill-rule="evenodd" d="M3.978 5.02a1.044 1.044 0 112.087 0 1.044 1.044 0 01-2.087 0zm7.297 12.156L2.24 8.141a.521.521 0 01-.153-.37V3.13c0-.577.467-1.045 1.044-1.045h4.64c.14 0 .272.056.37.154l9.035 9.035a1.044 1.044 0 010 1.476l-4.426 4.426a1.044 1.044 0 01-1.475 0zm4.659-10.094L9.158.305A1.046 1.046 0 008.421 0H2.087A2.087 2.087 0 000 2.085V8.42c0 .277.11.542.306.738l10.231 10.23a2.086 2.086 0 002.95 0l5.902-5.9a2.086 2.086 0 000-2.951l-3.455-3.455z"/></svg>