<svg xmlns="http://www.w3.org/2000/svg" viewBox="0 0 20 20"><path fill-rule="evenodd" d="M12.998 7.5h1.044v-2h-1.044v2zm-4 0h2v-2h-2v2zm-2.956 0h.956v-2h-.956v2zM14 4H6a2 2 0 00-2 2v1a2 2 0 002 2h8a2 2 0 002-2V6a2 2 0 00-2-2zm3.044 14h-1.713l-.877-2.632A2.001 2.001 0 0012.556 14H7.439a2 2 0 00-1.897 1.368L4.664 18h-1.62a1 1 0 01-1-1V3a1 1 0 011-1h14a1 1 0 011 1v14a1 1 0 01-1 1zm-10.38 0l.475-1.335A.999.999 0 018.081 16h3.891a1 1 0 01.955.703L13.331 18H6.664zM0 2v16a2 2 0 002 2h16a2 2 0 002-2V2a2 2 0 00-2-2H2a2 2 0 00-2 2z"/></svg>