<svg xmlns="http://www.w3.org/2000/svg" viewBox="0 0 20 20"><path fill-rule="evenodd" d="M14 10a1 1 0 011-1h.91A6.008 6.008 0 0011 4.09V5a1 1 0 01-2 0v-.91A6.008 6.008 0 004.09 9H5a1 1 0 010 2h-.91A6.008 6.008 0 009 15.91V15a1 1 0 012 0v.91A6.008 6.008 0 0015.91 11H15a1 1 0 01-1-1m6 0a1 1 0 01-1 1h-1.069A7.994 7.994 0 0111 17.931V19a1 1 0 01-2 0v-1.069A7.994 7.994 0 012.069 11H1a1 1 0 010-2h1.069A7.994 7.994 0 019 2.069V1a1 1 0 012 0v1.069A7.994 7.994 0 0117.931 9H19a1 1 0 011 1m-7 0a1 1 0 01-1 1h-1v1a1 1 0 01-2 0v-1H8a1 1 0 010-2h1V8a1 1 0 012 0v1h1a1 1 0 011 1"/></svg>