<svg xmlns="http://www.w3.org/2000/svg" viewBox="0 0 20 20"><path fill-rule="evenodd" d="M14.504 13.447L6.556 5.499c1.722-3.733 6.78-4.645 9.687-1.74 2.906 2.907 1.994 7.966-1.74 9.688zm-2.286.543c-3.427.12-6.326-2.778-6.205-6.205l6.205 6.205zm-9.51 3.305a.999.999 0 010-1.414l2.98-2.98a8.087 8.087 0 001.414 1.414l-2.98 2.98a1 1 0 01-1.414 0zM12.76.035C6.738-.526 2.33 5.696 4.636 11.125l-4.05 4.05a2 2 0 000 2.828L2 19.416a2 2 0 002.828 0l4.049-4.05c5.158 2.19 11.259-1.673 11.12-7.566C19.904 3.807 16.736.408 12.76.036z"/></svg>