<svg xmlns="http://www.w3.org/2000/svg" viewBox="0 0 20 20"><path fill-rule="evenodd" d="M7.957 3.189L6.45 4.592 5.01 3.289l-.05 7.172-2.013-.015.05-6.999-1.493 1.196L0 3.132 4.017.001l3.94 3.188zM14.914 18c-1.665 0-2.732-1.345-2.732-3 0-1.302.81-2.46 1.815-2.875V10h2.013v2.185c1.006.414 1.967 1.513 1.967 2.815 0 1.655-1.399 3-3.063 3zm-.847-10h2.012V6h-2.012v2zm0-4h2.012V2h-2.012v2zm3.955 7.023V0h-6.037v11.023C10.98 11.936 9.928 13.37 9.928 15c0 2.762 2.23 5 5.008 5S20 17.762 20 15c0-1.63-.972-3.064-1.978-3.977z"/></svg>