<svg xmlns="http://www.w3.org/2000/svg" viewBox="0 0 20 20"><path fill-rule="evenodd" d="M10 5a1 1 0 01-1 1H6v1a1 1 0 01-2 0V2a2 2 0 012-2h3a1 1 0 010 2H7a1 1 0 00-1 1v1h3a1 1 0 011 1zM0 1a1 1 0 112 0 1 1 0 01-2 0zm15 17c-1.654 0-3-1.346-3-3 0-1.302.839-2.401 2-2.816V10h2v2.184c1.161.415 2 1.514 2 2.816 0 1.654-1.346 3-3 3zm1-15v1h-2V3a1 1 0 012 0zm-2 5h2V6h-2v2zm4 3.023V2a2 2 0 00-2-2h-2a2 2 0 00-2 2v9.023c-1.434 1.083-2.282 2.902-1.914 4.912.357 1.95 1.902 3.551 3.843 3.954A5.006 5.006 0 0020 15c0-1.63-.792-3.065-2-3.977z"/></svg>