<svg xmlns="http://www.w3.org/2000/svg" viewBox="0 0 16 20"><path fill-rule="evenodd" d="M2 9.959V3.09c0-.55.448-1.1 1-1.1h10c.552 0 1 .55 1 1.1v6.87H2zm9.984 3.099v-.016a.99.99 0 01.993-.988h.015a.99.99 0 01.992.988v.016a.99.99 0 01-.992.988h-.015a.99.99 0 01-.993-.988zm-8.976.988h-.016A.99.99 0 012 13.058a.99.99 0 01.992-.988h.016a.99.99 0 01.992.988.99.99 0 01-.992.988zM2 0C.895 0 0 .996 0 2.095v11.951c0 1.1.895 1.888 2 1.888h2.356l-1.043 2.602c-.245.5-.313 1.13.687 1.365v.013c0 .23.871-.023 1.11-.51l1.472-3.47h2.87l2.007 3.488c.243.48.541.706 1.541.48v.012c0-.237.498-.894.243-1.396l-1.551-2.584H14c1.105 0 2-.788 2-1.888V2.095C16 .995 15.105 0 14 0H2z"/></svg>