<svg xmlns="http://www.w3.org/2000/svg" viewBox="0 0 20 20"><path fill-rule="evenodd" d="M14 11h4V7h-4v4zm4 4h-.612c-.549-.61-1.42-1-2.305-1-.352 0-1.083.072-1.083.184V13h4v2zm-2.833 3a1.001 1.001 0 010-2c.551 0 1 .449 1 1 0 .551-.449 1-1 1zM12 15H9.65c-.446-1.722-2.08-3-3.942-3C4.097 12 3 12.958 2 14.331V2h10v13zm-4.487 2a1.99 1.99 0 01-1.721 1 1.993 1.993 0 01-1.722-1 1.978 1.978 0 01-.278-1c0-.366.106-.705.278-1 .347-.595.985-1 1.722-1s1.374.405 1.721 1c.173.295.279.634.279 1s-.106.705-.279 1zM14 5V0H0v17h1.933a3.991 3.991 0 003.859 3 3.99 3.99 0 003.858-3h2.517a3 3 0 106 0H20V5h-6z"/></svg>