<svg xmlns="http://www.w3.org/2000/svg" viewBox="0 0 20 16"><path fill-rule="evenodd" d="M6.29 16c7.547 0 11.675-6.156 11.675-11.495 0-.175 0-.349-.012-.522A8.265 8.265 0 0020 1.89a8.273 8.273 0 01-2.356.637A4.07 4.07 0 0019.448.293a8.303 8.303 0 01-2.606.98 4.153 4.153 0 00-5.806-.175 4.006 4.006 0 00-1.187 3.86A11.717 11.717 0 011.392.738 4.005 4.005 0 002.663 6.13 4.122 4.122 0 01.8 5.625v.051C.801 7.6 2.178 9.255 4.092 9.636a4.144 4.144 0 01-1.852.069c.537 1.646 2.078 2.773 3.833 2.806A8.315 8.315 0 010 14.185a11.754 11.754 0 006.29 1.812"/></svg>