<svg xmlns="http://www.w3.org/2000/svg" viewBox="0 0 20 20"><path fill-rule="evenodd" d="M14.506 9c-.196-2-.936-4.608-2.206-6.659C15.283 3.239 17.533 6 17.93 9h-3.424zM11 9H7.493c.221-2 1.065-4.55 2.501-6.497C11.434 4.449 12.28 7 12.504 9H11zM5.492 9H2.069a8.014 8.014 0 015.619-6.656A15.04 15.04 0 005.492 9zm5.04-8.973c-.081-.004-.161-.01-.242-.012C10.192.012 10.097 0 10 0c-.093 0-.182.011-.274.014-.092.002-.183.009-.274.014C4.186.314 0 4.662 0 10c0 .338.018.671.051 1H9v7H7v-2H5v4h6v-9h8.948c.033 0 .052-.662.052-1C20 4.657 15.806.305 10.532.027z"/></svg>