<svg xmlns="http://www.w3.org/2000/svg" viewBox="0 0 20 20"><path fill-rule="evenodd" d="M19.711 18.297a.999.999 0 11-1.414 1.414l-2.86-2.86a13.686 13.686 0 001.842-.987l2.432 2.433zM2.724 15.86c.588.375 1.203.705 1.842.988l-2.859 2.858a.999.999 0 11-1.414-1.415l2.431-2.43zM.297 1.711A.999.999 0 111.711.297l3.166 3.165a13.65 13.65 0 00-1.876.952L.297 1.711zm16.705 2.7a13.713 13.713 0 00-1.877-.95L18.293.292a1 1 0 011.414 1.415l-2.705 2.705zm-4.998 5.814a2 2 0 11-4.001-.002 2 2 0 014.001.002zm-2 3.778a9.59 9.59 0 01-7.6-3.778 9.589 9.589 0 017.6-3.78 9.589 9.589 0 017.601 3.78 9.59 9.59 0 01-7.6 3.778zm10-3.778c-2-3.452-5.724-5.78-10-5.78s-8 2.328-10 5.78c2 3.45 5.724 5.778 10 5.778s8-2.327 10-5.778z"/></svg>