<svg xmlns="http://www.w3.org/2000/svg" viewBox="0 0 20 17"><path fill-rule="evenodd" d="M19.99 3.933c-.09 1.912-1.449 4.532-4.079 7.858C13.192 15.264 10.891 17 9.009 17c-1.166 0-2.152-1.06-2.958-3.178L4.437 7.995c-.598-2.12-1.24-3.18-1.927-3.18-.15 0-.673.31-1.569.928L0 4.551a262.93 262.93 0 002.913-2.56C4.228.87 5.214.282 5.871.223c1.554-.146 2.51.898 2.869 3.134.388 2.415.657 3.915.807 4.504.448 2.001.941 3.002 1.479 3.002.418 0 1.046-.647 1.882-1.943.837-1.295 1.285-2.28 1.345-2.957.119-1.12-.329-1.678-1.345-1.678-.478 0-.971.103-1.479.309.986-3.15 2.869-4.68 5.648-4.591 2.061.059 3.033 1.368 2.913 3.929z"/></svg>