<svg xmlns="http://www.w3.org/2000/svg" viewBox="0 0 18 18"><path fill-rule="evenodd" d="M3.963 7.347h-.99c-.548 0-.992.458-.992 1.023v2.044c0 .564.444 1.022.991 1.022h.99V7.347zm10.945 4.425l.943.973v3.208c0 1.481-1.478 2.47-2.789 1.867l-9.43-4.34h-1.65C.886 13.48 0 12.567 0 11.437v-4.09c0-1.13.887-2.044 1.981-2.044h1.652L12.946.239c1.319-.718 2.905.269 2.905 1.808v2.969l-.943.973-1.038-1.071V2.793a.497.497 0 00-.718-.457L7.925 5.033l-1.98 1.022v5.651l1.98 1.023 5.227 2.696c.33.17.718-.076.718-.457v-2.125l1.038-1.071zm2.801-4.337l-1.4 1.446 1.4 1.445c.388.4.388 1.047 0 1.446a.968.968 0 01-1.4 0l-1.401-1.446-1.401 1.446a.97.97 0 01-1.402 0 1.046 1.046 0 010-1.446l1.402-1.445-1.402-1.446a1.046 1.046 0 010-1.445v-.001a.97.97 0 011.402 0l1.4 1.446L16.31 5.99a.968.968 0 011.4 0 1.044 1.044 0 010 1.445z"/></svg>