<svg xmlns="http://www.w3.org/2000/svg" viewBox="0 0 10 20"><path fill-rule="evenodd" d="M6.014 11.816a2.966 2.966 0 01-1 .184c-.352 0-.686-.072-1-.184C2.853 11.402 2.007 10.302 2.007 9 2.007 7.698 3 6.599 4 6.185V10h3.836a3.016 3.016 0 01-1.822 1.816zM6 18H4v-4.1c0 .065.657.1 1 .1.342 0 1-.035 1-.1V18zM4 2h2v2.101C6 4.035 5.342 4 5 4c-.343 0-1 .035-1 .101V2zm3.836 6H6.014V6.185A3.017 3.017 0 017.836 8zM8 5.023V0H2v5.023C1 5.936 0 7.37 0 9c0 1.631 1 3.065 2 3.978V20h6v-7.022c1-.913 2-2.347 2-3.978 0-1.63-1-3.064-2-3.977z"/></svg>