<svg xmlns="http://www.w3.org/2000/svg" viewBox="0 0 20 20"><path fill-rule="evenodd" d="M13 4v-.879C13 2.569 13.448 2 14 2h3c.552 0 1 .569 1 1.121v3c0 .553-.448.879-1 .879h-1V4h-3zm4 9c.552 0 1 .569 1 1.121v3c0 .553-.448.879-1 .879h-3c-.55 0-1-.329-1-.879V16h3v-3h1zM6 14h8V6H6v8zm1 3.121c0 .553-.448.879-1 .879H3c-.55 0-1-.329-1-.879v-3C2 13.569 2.448 13 3 13h1v3h3v1.121zM2.125 7C2.056 7 2 7.065 2 6.996V3.121C2 2.569 2.448 2 3 2h3c.552 0 1 .569 1 1.121V4H4v3H2.125zM18 9c1.105 0 2-.774 2-1.879v-5C20 1.017 19.105 0 18 0h-5c-1.104 0-2 1.017-2 2.121V4H9V2.121C9 1.017 8.105 0 7 0H2C.896 0 0 1.017 0 2.121v5C0 8.226.896 9 2 9h2v2H2c-1.104 0-2 1.017-2 2.121v5C0 19.226.896 20 2 20h5c1.105 0 2-.774 2-1.879V16h2v2.121c0 1.105.896 1.879 2 1.879h5c1.105 0 2-.774 2-1.879v-5C20 12.017 19.105 11 18 11h-2V9h2z"/></svg>