<svg xmlns="http://www.w3.org/2000/svg" viewBox="0 0 16 20"><path fill-rule="evenodd" d="M13.046 18c-.551 0-1-.449-1-1 0-.551.449-1 1-1 .55 0 1 .449 1 1 0 .551-.45 1-1 1m-9 0c-1.103 0-2-.897-2-2s.897-2 2-2 2 .897 2 2-.897 2-2 2m9.913-3.816V13c0-1.105-.808-2-1.913-2H4.959V9h3.087a1 1 0 000-2H4.959V2c0-1.105-.808-2-1.913-2h-2a1 1 0 000 2h1c.552 0 .913.448.913 1v9.141c-2 .52-3.37 2.543-2.847 4.808.33 1.439 1.52 2.609 2.959 2.941 2.623.606 4.964-1.37 4.964-3.89a3.96 3.96 0 00-1.37-3h4.198c1.174 0 1.183.326 1.183 1.184a2.991 2.991 0 00.436 5.765c1.905.346 3.52-1.108 3.52-2.949 0-1.304-1.043-2.403-2.043-2.816"/></svg>