<svg xmlns="http://www.w3.org/2000/svg" viewBox="0 0 21 20"><path fill-rule="evenodd" d="M9.45 6.967h2.1c.58 0 1.05.45 1.05 1.003 0 .553-.47 1.002-1.05 1.002h-2.1v2.005c0 .554-.47 1.003-1.05 1.003-.58 0-1.05-.45-1.05-1.003V8.972h-2.1c-.58 0-1.05-.449-1.05-1.002 0-.554.47-1.003 1.05-1.003h2.1V4.962c0-.553.47-1.002 1.05-1.002.58 0 1.05.449 1.05 1.002v2.005zm11.242 12.739a1.084 1.084 0 01-1.484 0l-4.148-3.96 1.485-1.417 4.147 3.96a.97.97 0 010 1.417zM8.4 14.035c-3.473 0-6.3-2.698-6.3-6.015 0-3.316 2.827-6.015 6.3-6.015s6.3 2.699 6.3 6.015c0 3.317-2.827 6.015-6.3 6.015zM8.4 0C3.761 0 0 3.59 0 8.02s3.761 8.02 8.4 8.02 8.4-3.59 8.4-8.02S13.039 0 8.4 0z"/></svg>