<svg xmlns="http://www.w3.org/2000/svg" viewBox="0 0 21 20"><path fill-rule="evenodd" d="M5.373 6.967h6.447c.593 0 1.074.45 1.074 1.003 0 .553-.48 1.002-1.074 1.002H5.373c-.593 0-1.075-.449-1.075-1.002 0-.554.482-1.003 1.075-1.003zm15.312 11.321a.955.955 0 010 1.418 1.13 1.13 0 01-1.52 0l-4.376-3.96 1.52-1.417 4.376 3.96zM8.596 14.035c-3.554 0-6.447-2.698-6.447-6.015 0-3.316 2.893-6.015 6.447-6.015 3.555 0 6.448 2.699 6.448 6.015 0 3.317-2.893 6.015-6.448 6.015zM8.596 0C3.85 0 0 3.59 0 8.02s3.849 8.02 8.596 8.02c4.748 0 8.597-3.59 8.597-8.02S13.343 0 8.596 0z"/></svg>