<svg xmlns="http://www.w3.org/2000/svg" viewBox="0 0 24 24"><path d="M20.772 10.155l-1.368-4.104A2.995 2.995 0 0016.559 4H7.441a2.995 2.995 0 00-2.845 2.051l-1.368 4.104A2 2 0 002 12v5c0 .738.404 1.376 1 1.723V21a1 1 0 001 1h1a1 1 0 001-1v-2h12v2a1 1 0 001 1h1a1 1 0 001-1v-2.277A1.99 1.99 0 0022 17v-5a2 2 0 00-1.228-1.845zM7.441 6h9.117c.431 0 .813.274.949.684L18.613 10H5.387l1.105-3.316A1 1 0 017.441 6zM5.5 16a1.5 1.5 0 11.001-3.001A1.5 1.5 0 015.5 16zm13 0a1.5 1.5 0 11.001-3.001A1.5 1.5 0 0118.5 16z"/></svg>