<svg xmlns="http://www.w3.org/2000/svg" viewBox="0 0 961.375 1000"><path d="M118 680c25.333-22.667 53.667-32.333 85-29 31.333 3.333 60.333 18.333 87 45 28 26.667 44 55.667 48 87s-6 59-30 83c-57.333 56-133.333 90-228 102-56 8-82.667 3.333-80-14 0-2.667 2-6 6-10 34.667-40 56-88.333 64-145s24-96.333 48-119M958 34c17.333 17.333-32 100-148 248S596.667 542.667 518 620c-25.333 25.333-66.667 60-124 104-5.333 4-10.667 1.333-16-8-12-22.667-28-44-48-64-21.333-21.333-43.333-37.333-66-48-10.667-4-13.333-9.333-8-16 42.667-56 77.333-96.667 104-122 78.667-77.333 193.333-173 344-287S939.333 16.667 958 34"/></svg>