<svg xmlns="http://www.w3.org/2000/svg" viewBox="0 0 960 1000"><path d="M794 508l10 4v136l-10 4-116 50-4 2-6-2-252-104-8-4-124 52-124-54V470l116-48-2-2V284l130-56 294 122v118l96 40M658 666v-86h-2v-2l-220-90v86l220 92v-2l2 2m14-112l78-32-72-30-76 32 70 30m102 74v-84l-86 36v84l86-36M480 20c133.333 0 246.667 46.667 340 140s140 206.667 140 340c0 132-46.667 245-140 339S613.333 980 480 980c-132 0-245-47-339-141S0 632 0 500c0-133.333 47-246.667 141-340S348 20 480 20m0 872c108 0 200.333-38.333 277-115s115-169 115-277c0-109.333-38.333-202-115-278S588 108 480 108s-200.333 38-277 114S88 390.667 88 500c0 108 38.333 200.333 115 277s169 115 277 115"/></svg>