<svg xmlns="http://www.w3.org/2000/svg" viewBox="0 0 960 1000"><path d="M676 362c8 0 14.667 2.667 20 8s8 11.333 8 18v354c0 6.667-2.667 12.667-8 18s-12 8-20 8H416c-8 0-14.667-2.667-20-8s-8-11.333-8-18V638H284c-6.667 0-12.667-2.667-18-8s-8-12-8-20V258c0-8 2-14 6-18 2.667-4 8.667-7.333 18-10h264c6.667 0 12.667 2.667 18 8s8 12 8 20v104h104m-264 0h108v-78H310v300h78V388c0-6.667 2.667-12.667 8-18 2.667-2.667 8-5.333 16-8m238 354V414H440v302h210M480 20c133.333 0 246.667 46.667 340 140s140 206.667 140 340c0 132-46.667 245-140 339S613.333 980 480 980c-132 0-245-47-339-141S0 632 0 500c0-133.333 47-246.667 141-340S348 20 480 20m0 872c108 0 200.333-38.333 277-115s115-169 115-277c0-109.333-38.333-202-115-278S588 108 480 108s-200.333 38-277 114S88 390.667 88 500c0 108 38.333 200.333 115 277s169 115 277 115"/></svg>