<svg xmlns="http://www.w3.org/2000/svg" viewBox="0 0 960 1000"><path d="M474 20c132-1.333 245.333 44 340 136s143.333 204 146 336c1.333 133.333-44 247.333-136 342S619.333 977.333 486 980c-132 1.333-245.667-44.333-341-137S1.333 638 0 506c-2.667-133.333 42.333-247.333 135-342S340.667 21.333 474 20m12 858c104-1.333 192.667-39.333 266-114s109.333-164.667 108-270c-1.333-105.333-39.667-194.333-115-267S580 118.667 476 120c-105.333 1.333-194.333 39.333-267 114S100.667 398.667 102 504c1.333 105.333 39.333 194.333 114 267s164.667 108.333 270 107M362 580c26.667 0 46-13.333 58-40l56 30c-13.333 24-30 41.333-50 52-21.333 13.333-44.667 20-70 20-41.333 0-74.667-12.667-100-38-25.333-24-38-58.667-38-104s12.667-80.667 38-106 57.333-38 96-38c57.333 0 98.667 22 124 66l-62 32c-6.667-13.333-14.667-22.667-24-28-9.333-5.333-18.667-8-28-8-40 0-60 27.333-60 82 0 25.333 4.667 44.667 14 58 12 14.667 27.333 22 46 22m266 0c28 0 46.667-13.333 56-40l58 30c-12 21.333-28.667 38.667-50 52-21.333 13.333-44.667 20-70 20-42.667 0-76-12.667-100-38-25.333-24-38-58.667-38-104 0-42.667 12.667-78 38-106 25.333-25.333 58-38 98-38 56 0 96 22 120 66l-60 32c-6.667-13.333-14.667-22.667-24-28-9.333-5.333-18.667-8-28-8-41.333 0-62 27.333-62 82 0 24 5.333 43.333 16 58 10.667 14.667 26 22 46 22"/></svg>