<svg xmlns="http://www.w3.org/2000/svg" viewBox="0 0 680.348 1000"><path d="M340 90c101.333 0 184.333 13.667 249 41s95 56.333 91 87l-72 594c-1.333 9.333-12.667 21.333-34 36-21.333 14.667-53.667 28.667-97 42-43.333 13.333-89 20-137 20s-93.333-6.667-136-20-75-27.333-97-42c-22-14.667-33.667-26.667-35-36L0 218c-2.667-18.667 9.333-37.667 36-57s67-36 121-50 115-21 183-21m0 216c48 0 93.667-5 137-15s76-21 98-33 33-22 33-30-11-17.667-33-29c-22-11.333-54.667-22-98-32s-89-15-137-15-93.667 5-137 15-76 20.667-98 32c-22 11.333-33 21-33 29s11 18 33 30 54.667 23 98 33 89 15 137 15"/></svg>