<svg xmlns="http://www.w3.org/2000/svg" viewBox="0 0 1000 1000"><path d="M970 370c25.333 6.667 35.333 22 30 46L850 972c-2.667 10.667-8.667 18.333-18 23-9.333 4.667-19.333 5.667-30 3L396 888c-10.667-2.667-18.667-8.667-24-18-5.333-9.333-6.667-18.667-4-28l24-92-180 48c-26.667 6.667-43.333-2-50-26L2 170c-6.667-24 2.667-40 28-48L484 0c10.667-2.667 20.667-1.667 30 3 9.333 4.667 15.333 12.333 18 23l66 244 372 100M82 180l144 542 392-106L474 76 82 180m702 742l132-492-298-82 76 282c6.667 22.667-2.667 38-28 46l-196 52-26 102 340 92"/></svg>