<svg xmlns="http://www.w3.org/2000/svg" viewBox="0 0 1000 1000"><path d="M796 280c56 0 104 17.667 144 53s60 91 60 167c0 74.667-20 130-60 166s-88 54-144 54c-52 0-104.333-13.333-157-40s-99-62-139-106c-38.667 44-84.333 79.333-137 106s-105 40-157 40c-57.333 0-106-18-146-54S0 574.667 0 500c0-76 20-131.667 60-167s88.667-53 146-53c52 0 104.333 13 157 39s98.333 61 137 105c38.667-44 84.667-79 138-105s106-39 158-39M206 632c40 0 82.333-12.333 127-37s82.333-56.333 113-95c-30.667-38.667-68-70.333-112-95s-86.667-37-128-37c-76 0-114 44-114 132s38 132 114 132m590 0c76 0 114-44 114-132s-38-132-114-132c-41.333 0-84.333 12.333-129 37s-81.667 56.333-111 95c29.333 38.667 66.333 70.333 111 95s87.667 37 129 37"/></svg>