<svg xmlns="http://www.w3.org/2000/svg" viewBox="0 0 820 1000"><path d="M518 894l16-164 260 20-16 166c-2.667 18.667-13.333 26.667-32 24l-200-16c-18.667 0-28-10-28-30M28 750l258-20 16 164c1.333 8-.667 15-6 21s-12.667 9-22 9L76 940c-8 1.333-15.333-.667-22-6s-10-11.333-10-18L28 750M2 480c-1.333-8-2-19.333-2-34 0-106.667 40-197.667 120-273S296.667 60 410 60s210 37.667 290 113 120 166.333 120 273c0 14.667-.667 26-2 34l-16 170-258-22 16-170v-12c0-38.667-14.667-71.667-44-99s-64.667-41-106-41-76.667 13.667-106 41-44 60.333-44 99v12l16 170-258 22L2 480"/></svg>