<svg xmlns="http://www.w3.org/2000/svg" viewBox="0 0 995.11 1000"><path d="M474 862c-122.667 0-229-33.667-319-101S13.333 608.667 0 506c-14.667-113.333 21.333-216 108-308S306.667 51.333 444 34s259.333 8.333 366 77c106.667 68.667 167.333 159.667 182 273 9.333 78.667-2.333 160-35 244s-87.667 159-165 225-167.333 105-270 117V862h-48m306-220V366c0-22.667-3.333-40-10-52-5.333-12-15.333-24.667-30-38-10.667-8-25.333-14.667-44-20-18.667-4-37.333-6-56-6-29.333 0-54 5.333-74 16-16 8-30 18-42 30-6.667-10.667-18.667-21.333-36-32-20-9.333-43.333-14-70-14-44 0-80.667 12.667-110 38v-30h-88v384h92V406c0-2.667 1.333-9.333 4-20 2.667-6.667 8-15.333 16-26 6.667-9.333 15.333-16 26-20 13.333-6.667 26.667-10 40-10 12 0 22 2 30 6 5.333 2.667 10.667 6 16 10 2.667 5.333 5.333 12 8 20 2.667 10.667 4 20 4 28v248h90V406c0-24 7.333-42 22-54 14.667-14.667 35.333-22 62-22 13.333 0 24 2 32 6 6.667 1.333 12 5.333 16 12 5.333 5.333 8 11.333 8 18 2.667 13.333 4 22.667 4 28v248h90"/></svg>