<svg xmlns="http://www.w3.org/2000/svg" viewBox="0 0 762.418 1000"><path d="M146 170c97.333 0 158.667 48.667 184 146 25.333 93.333 12 194-40 302-53.333 112-128 180-224 204-21.333 5.333-43.333 8-66 8v-70c74.667 0 135.333-36 182-108 36-57.333 44.667-106 26-146-10.667-24-31.333-36-62-36-40 0-74.333-14.667-103-44S0 361.333 0 320s14.333-76.667 43-106 63-44 103-44m420 0c97.333 0 158.667 48.667 184 146 25.333 93.333 12 194-40 302-53.333 112-128 180-224 204-21.333 5.333-43.333 8-66 8v-70c74.667 0 135.333-36 182-108 36-57.333 44.667-106 26-146-10.667-24-31.333-36-62-36-40 0-74.333-14.667-103-44s-43-64.667-43-106 14.333-76.667 43-106 63-44 103-44"/></svg>