<svg xmlns="http://www.w3.org/2000/svg" viewBox="0 0 960 1000"><path d="M532 548c17.333 10.667 26 26.667 26 48 0 24-8 40.667-24 50-9.333 6.667-30 10-62 10h-52V540h58c25.333 0 43.333 2.667 54 8m-22-100c-9.333 6.667-28 10-56 10h-34V356h26c33.333 0 53.333 2 60 6 16 9.333 24 23.333 24 42s-6.667 33.333-20 44M792 20c46.667 0 86.333 16.333 119 49s49 72.333 49 119v622c0 46.667-16.333 86.667-49 120s-72.333 50-119 50H168c-46.667 0-86.333-16.667-119-50S0 856.667 0 810V188c0-46.667 16.333-86.333 49-119s72.333-49 119-49h624M506 744c56 0 97.667-14 125-42s41-62 41-102c0-64-32-102.667-96-116v-2c45.333-14.667 68-48.667 68-102 0-33.333-11.667-59.667-35-79s-51.667-29-85-29H310v472h196"/></svg>