<svg xmlns="http://www.w3.org/2000/svg" viewBox="0 0 16 16"><path fill-rule="evenodd" d="M15 12V6a1 1 0 00-1-1h-1.172a3 3 0 01-2.12-.879l-.83-.828A1 1 0 009.173 3H6.828a1 1 0 00-.707.293l-.828.828A3 3 0 013.172 5H2a1 1 0 00-1 1v6a1 1 0 001 1h12a1 1 0 001-1zM2 4a2 2 0 00-2 2v6a2 2 0 002 2h12a2 2 0 002-2V6a2 2 0 00-2-2h-1.172a2 2 0 01-1.414-.586l-.828-.828A2 2 0 009.172 2H6.828a2 2 0 00-1.414.586l-.828.828A2 2 0 013.172 4H2z"/><path fill-rule="evenodd" d="M8 11a2.5 2.5 0 100-5 2.5 2.5 0 000 5zm0 1a3.5 3.5 0 100-7 3.5 3.5 0 000 7z"/><path d="M3 6.5a.5.5 0 11-1 0 .5.5 0 011 0z"/></svg>