<svg xmlns="http://www.w3.org/2000/svg" viewBox="0 0 16 16"><path fill-rule="evenodd" d="M4 1.5H3a2 2 0 00-2 2V14a2 2 0 002 2h10a2 2 0 002-2V3.5a2 2 0 00-2-2h-1v1h1a1 1 0 011 1V14a1 1 0 01-1 1H3a1 1 0 01-1-1V3.5a1 1 0 011-1h1v-1z"/><path fill-rule="evenodd" d="M9.5 1h-3a.5.5 0 00-.5.5v1a.5.5 0 00.5.5h3a.5.5 0 00.5-.5v-1a.5.5 0 00-.5-.5zm-3-1A1.5 1.5 0 005 1.5v1A1.5 1.5 0 006.5 4h3A1.5 1.5 0 0011 2.5v-1A1.5 1.5 0 009.5 0h-3zm4.354 7.146a.5.5 0 010 .708l-3 3a.5.5 0 01-.708 0l-1.5-1.5a.5.5 0 11.708-.708L7.5 9.793l2.646-2.647a.5.5 0 01.708 0z"/></svg>