<svg xmlns="http://www.w3.org/2000/svg" viewBox="0 0 16 16"><path d="M4 0h5.5v1H4a1 1 0 00-1 1v12a1 1 0 001 1h8a1 1 0 001-1V4.5h1V14a2 2 0 01-2 2H4a2 2 0 01-2-2V2a2 2 0 012-2z"/><path d="M9.5 3V0L14 4.5h-3A1.5 1.5 0 019.5 3z"/><path fill-rule="evenodd" d="M4.5 12.5A.5.5 0 015 12h3a.5.5 0 010 1H5a.5.5 0 01-.5-.5zm0-2A.5.5 0 015 10h6a.5.5 0 010 1H5a.5.5 0 01-.5-.5zm1.639-3.708l1.33.886 1.854-1.855a.25.25 0 01.289-.047l1.888.974V8.5a.5.5 0 01-.5.5H5a.5.5 0 01-.5-.5V8s1.54-1.274 1.639-1.208zM6.25 6a.75.75 0 100-1.5.75.75 0 000 1.5z"/></svg>