<svg xmlns="http://www.w3.org/2000/svg" viewBox="0 0 16 16"><path fill-rule="evenodd" d="M4 0h8a2 2 0 012 2v12a2 2 0 01-2 2H4a2 2 0 01-2-2V2a2 2 0 012-2zm0 1a1 1 0 00-1 1v12a1 1 0 001 1h8a1 1 0 001-1V2a1 1 0 00-1-1H4z"/><path fill-rule="evenodd" d="M8 4a.5.5 0 01.5.5v.634l.549-.317a.5.5 0 11.5.866L9 6l.549.317a.5.5 0 11-.5.866L8.5 6.866V7.5a.5.5 0 01-1 0v-.634l-.549.317a.5.5 0 11-.5-.866L7 6l-.549-.317a.5.5 0 01.5-.866l.549.317V4.5A.5.5 0 018 4zM5 9.5a.5.5 0 01.5-.5h5a.5.5 0 010 1h-5a.5.5 0 01-.5-.5zm0 2a.5.5 0 01.5-.5h5a.5.5 0 010 1h-5a.5.5 0 01-.5-.5z"/></svg>