<svg xmlns="http://www.w3.org/2000/svg" viewBox="0 0 16 16"><path fill-rule="evenodd" d="M2 2a2 2 0 012-2h5.293A1 1 0 0110 .293L13.707 4a1 1 0 01.293.707V14a2 2 0 01-2 2H4a2 2 0 01-2-2V2zm7.5 1.5v-2l3 3h-2a1 1 0 01-1-1zM7 7a1 1 0 012 0v1H7V7zm3 0v1.076c.54.166 1 .597 1 1.224v2.4c0 .816-.781 1.3-1.5 1.3h-3c-.719 0-1.5-.484-1.5-1.3V9.3c0-.627.46-1.058 1-1.224V7a2 2 0 114 0zM6 9.3c0-.042.02-.107.105-.175A.637.637 0 016.5 9h3a.64.64 0 01.395.125c.085.068.105.133.105.175v2.4c0 .042-.02.107-.105.175A.637.637 0 019.5 12h-3a.637.637 0 01-.395-.125C6.02 11.807 6 11.742 6 11.7V9.3z"/></svg>