<svg xmlns="http://www.w3.org/2000/svg" viewBox="0 0 16 16"><path fill-rule="evenodd" d="M14 10H2a1 1 0 00-1 1v1a1 1 0 001 1h12a1 1 0 001-1v-1a1 1 0 00-1-1zM2 9a2 2 0 00-2 2v1a2 2 0 002 2h12a2 2 0 002-2v-1a2 2 0 00-2-2H2z"/><path d="M5 11.5a.5.5 0 11-1 0 .5.5 0 011 0zm-2 0a.5.5 0 11-1 0 .5.5 0 011 0z"/><path fill-rule="evenodd" d="M14 3H2a1 1 0 00-1 1v1a1 1 0 001 1h12a1 1 0 001-1V4a1 1 0 00-1-1zM2 2a2 2 0 00-2 2v1a2 2 0 002 2h12a2 2 0 002-2V4a2 2 0 00-2-2H2z"/><path d="M5 4.5a.5.5 0 11-1 0 .5.5 0 011 0zm-2 0a.5.5 0 11-1 0 .5.5 0 011 0z"/></svg>