<svg xmlns="http://www.w3.org/2000/svg" viewBox="0 0 16 16"><path fill-rule="evenodd" d="M14 5H2a1 1 0 00-1 1v5a1 1 0 001 1h12a1 1 0 001-1V6a1 1 0 00-1-1zM2 4a2 2 0 00-2 2v5a2 2 0 002 2h12a2 2 0 002-2V6a2 2 0 00-2-2H2z"/><path d="M13 10.25a.25.25 0 01.25-.25h.5a.25.25 0 01.25.25v.5a.25.25 0 01-.25.25h-.5a.25.25 0 01-.25-.25v-.5zm0-2a.25.25 0 01.25-.25h.5a.25.25 0 01.25.25v.5a.25.25 0 01-.25.25h-.5a.25.25 0 01-.25-.25v-.5zm-5 0A.25.25 0 018.25 8h.5a.25.25 0 01.25.25v.5a.25.25 0 01-.25.25h-.5A.25.25 0 018 8.75v-.5zm2 0a.25.25 0 01.25-.25h1.5a.25.25 0 01.25.25v.5a.25.25 0 01-.25.25h-1.5a.25.25 0 01-.25-.25v-.5zm1 2a.25.25 0 01.25-.25h.5a.25.25 0 01.25.25v.5a.25.25 0 01-.25.25h-.5a.25.25 0 01-.25-.25v-.5zm-5-2A.25.25 0 016.25 8h.5a.25.25 0 01.25.25v.5a.25.25 0 01-.25.25h-.5A.25.25 0 016 8.75v-.5zm-2 0A.25.25 0 014.25 8h.5a.25.25 0 01.25.25v.5a.25.25 0 01-.25.25h-.5A.25.25 0 014 8.75v-.5zm-2 0A.25.25 0 012.25 8h.5a.25.25 0 01.25.25v.5a.25.25 0 01-.25.25h-.5A.25.25 0 012 8.75v-.5zm11-2a.25.25 0 01.25-.25h.5a.25.25 0 01.25.25v.5a.25.25 0 01-.25.25h-.5a.25.25 0 01-.25-.25v-.5zm-2 0a.25.25 0 01.25-.25h.5a.25.25 0 01.25.25v.5a.25.25 0 01-.25.25h-.5a.25.25 0 01-.25-.25v-.5zm-2 0A.25.25 0 019.25 6h.5a.25.25 0 01.25.25v.5a.25.25 0 01-.25.25h-.5A.25.25 0 019 6.75v-.5zm-2 0A.25.25 0 017.25 6h.5a.25.25 0 01.25.25v.5a.25.25 0 01-.25.25h-.5A.25.25 0 017 6.75v-.5zm-2 0A.25.25 0 015.25 6h.5a.25.25 0 01.25.25v.5a.25.25 0 01-.25.25h-.5A.25.25 0 015 6.75v-.5zm-3 0A.25.25 0 012.25 6h1.5a.25.25 0 01.25.25v.5a.25.25 0 01-.25.25h-1.5A.25.25 0 012 6.75v-.5zm0 4a.25.25 0 01.25-.25h.5a.25.25 0 01.25.25v.5a.25.25 0 01-.25.25h-.5a.25.25 0 01-.25-.25v-.5zm2 0a.25.25 0 01.25-.25h5.5a.25.25 0 01.25.25v.5a.25.25 0 01-.25.25h-5.5a.25.25 0 01-.25-.25v-.5z"/></svg>