<svg xmlns="http://www.w3.org/2000/svg" viewBox="0 0 16 16"><path fill-rule="evenodd" d="M0 1.5A1.5 1.5 0 011.5 0h2A1.5 1.5 0 015 1.5v2A1.5 1.5 0 013.5 5h-2A1.5 1.5 0 010 3.5v-2zM1.5 1a.5.5 0 00-.5.5v2a.5.5 0 00.5.5h2a.5.5 0 00.5-.5v-2a.5.5 0 00-.5-.5h-2zM14 7H2a1 1 0 00-1 1v5a1 1 0 001 1h12a1 1 0 001-1V8a1 1 0 00-1-1zM2 6a2 2 0 00-2 2v5a2 2 0 002 2h12a2 2 0 002-2V8a2 2 0 00-2-2H2z"/><path fill-rule="evenodd" d="M15 11H1v-1h14v1zM2 12.5a.5.5 0 01.5-.5h6a.5.5 0 010 1h-6a.5.5 0 01-.5-.5zm0-4a.5.5 0 01.5-.5h9a.5.5 0 010 1h-9a.5.5 0 01-.5-.5z"/></svg>