<svg xmlns="http://www.w3.org/2000/svg" viewBox="0 0 16 16"><path fill-rule="evenodd" d="M0 1.5A1.5 1.5 0 011.5 0h13A1.5 1.5 0 0116 1.5v2A1.5 1.5 0 0114.5 5h-13A1.5 1.5 0 010 3.5v-2zM1.5 1a.5.5 0 00-.5.5v2a.5.5 0 00.5.5h13a.5.5 0 00.5-.5v-2a.5.5 0 00-.5-.5h-13zM14 7H2a1 1 0 00-1 1v5a1 1 0 001 1h12a1 1 0 001-1V8a1 1 0 00-1-1zM2 6a2 2 0 00-2 2v5a2 2 0 002 2h12a2 2 0 002-2V8a2 2 0 00-2-2H2z"/><path fill-rule="evenodd" d="M15 11H1v-1h14v1zM2 12.5a.5.5 0 01.5-.5h6a.5.5 0 010 1h-6a.5.5 0 01-.5-.5zm0-10a.5.5 0 01.5-.5h3a.5.5 0 010 1h-3a.5.5 0 01-.5-.5zm0 6a.5.5 0 01.5-.5h9a.5.5 0 010 1h-9a.5.5 0 01-.5-.5z"/><path d="M12.823 2.823l-.396-.396A.25.25 0 0112.604 2h.792a.25.25 0 01.177.427l-.396.396a.25.25 0 01-.354 0z"/></svg>