<svg xmlns="http://www.w3.org/2000/svg" viewBox="0 0 16 16"><path fill-rule="evenodd" d="M10.067.87a2.89 2.89 0 00-4.134 0l-.622.638-.89-.011a2.89 2.89 0 00-2.924 2.924l.01.89-.636.622a2.89 2.89 0 000 4.134l.637.622-.011.89a2.89 2.89 0 002.924 2.924l.89-.01.622.636a2.89 2.89 0 004.134 0l.622-.637.89.011a2.89 2.89 0 002.924-2.924l-.01-.89.636-.622a2.89 2.89 0 000-4.134l-.637-.622.011-.89a2.89 2.89 0 00-2.924-2.924l-.89.01-.622-.636zM8 4a.905.905 0 00-.9.995l.35 3.507a.553.553 0 001.1 0l.35-3.507A.905.905 0 008 4zm.002 6a1 1 0 100 2 1 1 0 000-2z"/></svg>