<svg xmlns="http://www.w3.org/2000/svg" viewBox="0 0 16 16"><path d="M7 2.5a.5.5 0 01.5-.5h7a.5.5 0 01.5.5v1a.5.5 0 01-.5.5h-7a.5.5 0 01-.5-.5v-1z"/><path fill-rule="evenodd" d="M2 1a2 2 0 00-2 2v2a2 2 0 002 2h2a2 2 0 002-2V3a2 2 0 00-2-2H2zm0 8a2 2 0 00-2 2v2a2 2 0 002 2h2a2 2 0 002-2v-2a2 2 0 00-2-2H2zm.854-3.646l2-2a.5.5 0 10-.708-.708L2.5 4.293l-.646-.647a.5.5 0 10-.708.708l1 1a.5.5 0 00.708 0zm0 8l2-2a.5.5 0 00-.708-.708L2.5 12.293l-.646-.647a.5.5 0 00-.708.708l1 1a.5.5 0 00.708 0z"/><path d="M7 10.5a.5.5 0 01.5-.5h7a.5.5 0 01.5.5v1a.5.5 0 01-.5.5h-7a.5.5 0 01-.5-.5v-1z"/><path fill-rule="evenodd" d="M7 5.5a.5.5 0 01.5-.5h5a.5.5 0 010 1h-5a.5.5 0 01-.5-.5zm0 8a.5.5 0 01.5-.5h5a.5.5 0 010 1h-5a.5.5 0 01-.5-.5z"/></svg>