<svg xmlns="http://www.w3.org/2000/svg" viewBox="0 0 64 64"><path stroke-miterlimit="10" stroke-width="2" d="M24 32c0 4.418 3.582 9 8 9h4"/><path stroke-miterlimit="10" stroke-width="2" d="M41 50h14c4.565 0 8-3.582 8-8s-3.435-8-8-8c0-11.046-9.52-20-20.934-20C23.966 14 14.8 20.732 13 30h-1.667C5.626 30 1 34.477 1 40s4.293 10 10 10h30"/><path stroke-linejoin="bevel" stroke-miterlimit="10" stroke-width="2" d="M33 45l3-4-3-4"/><path stroke-miterlimit="10" stroke-width="2" d="M42 32c0-4.418-3.582-9-8-9h-4"/><path stroke-linejoin="bevel" stroke-miterlimit="10" stroke-width="2" d="M33 19l-3 4 3 4"/></svg>