<svg xmlns="http://www.w3.org/2000/svg" viewBox="0 0 16 16"><path d="M8 5H7v5h4V9l-2.93.07L8 5zM5.46.87A2.099 2.099 0 002.651.335L1.66 1.1a2.095 2.095 0 00-.207 2.844zm8.88.23l-1-.77a2.097 2.097 0 00-2.796.534L14.54 3.94c.287-.356.46-.813.46-1.312 0-.602-.253-1.145-.659-1.528z"/><path d="M12.87 14A6.979 6.979 0 0015 9.002 7.052 7.052 0 008.003 2 7.051 7.051 0 001 8.997a6.98 6.98 0 002.128 5.001l-.938.942a.63.63 0 00.882.878l.998-.999c1.092.758 2.446 1.211 3.905 1.211s2.813-.453 3.928-1.226l.977 1.015a.63.63 0 00.878-.882zm-10-5a5.18 5.18 0 015.127-5.13 5.181 5.181 0 015.133 5.127 5.181 5.181 0 01-5.127 5.133A5.181 5.181 0 012.87 9.003z"/></svg>