<svg xmlns="http://www.w3.org/2000/svg" viewBox="0 0 16 16"><path d="M6.18 14a2 2 0 11-3.999.001A2 2 0 016.18 14zM14 14a2 2 0 11-3.999.001A2 2 0 0114 14zM5 6H4v1H3v1h1v1h1V8h1V7H5V6z"/><path d="M15.76 8.64l-3-4.53A2.501 2.501 0 0010.682 3H8V2a1 1 0 00-2 0v1H1.5A1.5 1.5 0 000 4.5V13h1.37a3.238 3.238 0 012.812-2 3.236 3.236 0 012.81 1.978l2.188.021a3.238 3.238 0 012.812-2 3.003 3.003 0 012.822 1.979l1.187.021v-3.57a1.427 1.427 0 00-.243-.795zm-8.84-.52a2.5 2.5 0 11-3.017-2.997 2.48 2.48 0 013.014 3.014zM10 8V5h.859a2.25 2.25 0 011.866.992L14.05 8z"/></svg>