<svg xmlns="http://www.w3.org/2000/svg" viewBox="0 0 16 16"><path d="M11.9 0c-1.3 0-2 .4-2.4.8C9.1.4 8.4 0 7 0 3.6 0 3 2 3 2v4H0v10h7v-4.6l1.5-.2s.2-.3.3.7h1.3c.1-1 .4-.7.4-.7l5.5.7V2.1S15.4 0 11.9 0zM1 7h5v2H1V7zm5 3v1H5v-1h1zm-2 0v1H3v-1h1zm-2 5H1v-1h1v1zm0-2H1v-1h1v1zm0-2H1v-1h1v1zm2 4H3v-1h1v1zm0-2H3v-1h1v1zm2 2H5v-1h1v1zm0-2H5v-1h1v1zm3-3.5c-.9-.1-1.3-.3-2-.3V6H4V2.1c0-.4.8-1.5 3-1.5 1.8 0 1.9.8 1.9 1v7.9zm6 .4c-1-.4-1.1-.7-2.5-.7h-.2c-1 0-1.3.2-2.3.4V1.8c0-.2.2-1.1 1.9-1.1 2.3 0 3.1.9 3.1 1.4v7.8z"/></svg>