<svg xmlns="http://www.w3.org/2000/svg" viewBox="0 0 16 16"><path d="M8 0C3.6 0 0 3.6 0 8s3.6 8 8 8 8-3.6 8-8-3.6-8-8-8zm7 8c0 1.1-.2 2.1-.7 3l-2.7-1.2c.2-.6.4-1.2.4-1.8 0-2.2-1.8-4-4-4-.5 0-.9.1-1.4.3L5.4 1.5c.6-.2 1.2-.4 1.8-.5l.3 3H8V1c3.9 0 7 3.1 7 7zM8 5c1.7 0 3 1.3 3 3s-1.3 3-3 3-3-1.3-3-3 1.3-3 3-3zM1 8c0-1.1.2-2.1.7-3l2.7 1.2C4.2 6.8 4 7.4 4 8c0 2.2 1.8 4 4 4 .5 0 .9-.1 1.4-.3l1.2 2.8c-.6.2-1.2.4-1.8.5l-.3-3H8v3c-3.9 0-7-3.1-7-7z"/><path d="M10 8a2 2 0 11-3.999.001A2 2 0 0110 8z"/></svg>