<svg xmlns="http://www.w3.org/2000/svg" viewBox="0 0 16 16"><path d="M4.7 16c-1.7 0-3.1-.8-4-2.1-1.1-1.7-.9-4 .4-5.8C2 6.8 3.2 6 4.7 5.7c1.2-.3 2.2-1.1 2.5-2.2.2-.8.7-1.5 1.3-2C9.4.5 10.7 0 12 0c1.1 0 2.2.4 2.9 1.2 1.5 1.6 1.5 4.2-.1 6-.5.6-1.2 1.1-2 1.4-1.2.5-2.2 1.6-2.6 3-.3 1-.8 1.9-1.5 2.6-1.1 1.2-2.6 1.8-4 1.8zM12 1c-1 0-2 .4-2.8 1.2-.5.5-.8 1-1 1.6-.5 1.5-1.8 2.5-3.3 2.9-1.2.2-2.2.9-3 2C.8 10.2.7 12 1.6 13.4c.6 1 1.8 1.6 3.1 1.6 1.2 0 2.4-.5 3.3-1.4.6-.6 1.1-1.4 1.3-2.2.4-1.7 1.6-3 3.2-3.6.6-.2 1.2-.7 1.6-1.2 1.2-1.4 1.3-3.5.1-4.7-.6-.6-1.4-.9-2.2-.9z"/></svg>