<svg xmlns="http://www.w3.org/2000/svg" viewBox="0 0 16 16"><path d="M0 0v16h16V0H0zm5 4H2v3h3v1H2v3h3v1H1V3h4v1zm5 6.54c-.067.511-.364.94-.782 1.186a2.426 2.426 0 01-1.129.276L7.996 12a6.254 6.254 0 01-2.038-.425l.403-.915c.435.202.945.319 1.482.319.326 0 .643-.043.943-.125a.662.662 0 00.215-.484c.07-.43-.22-.62-1.17-1-.83-.29-2.04-.76-1.83-2.08.072-.594.46-1.082.989-1.296a3.252 3.252 0 012.649.552L9.07 7.3a2.32 2.32 0 00-1.663-.368.617.617 0 00-.387.547c-.08.401.14.581 1.15 1.001.83.3 2.02.75 1.83 2.06zm2.67.18c.345.176.752.279 1.183.279.292 0 .573-.047.835-.134l.311.945c-.383.121-.823.19-1.279.19h-.001l-.089.001c-.583 0-1.124-.18-1.57-.488a2.998 2.998 0 01-1.061-2.524 2.866 2.866 0 011.044-2.516 3.502 3.502 0 011.72-.446c.443 0 .868.081 1.259.23l-.374.922a2.548 2.548 0 00-2.016.066 2.013 2.013 0 00-.633 1.764 2.056 2.056 0 00.637 1.708z"/></svg>