<svg xmlns="http://www.w3.org/2000/svg" viewBox="0 0 16 16"><path d="M14.9 1.1c-1.4-1.4-3.7-1.4-5.1 0L5.4 5.4C4 6.9 4 9.1 5.4 10.6c.1.1.3.2.4.3l1.5-1.5c-.1-.1-.3-.2-.4-.3-.6-.6-.6-1.6 0-2.2l4.4-4.4c.6-.6 1.6-.6 2.2 0s.6 1.6 0 2.2L12.2 6c.4.8.5 1.7.4 2.5l2.3-2.3c1.5-1.4 1.5-3.7 0-5.1z"/><path d="M10.2 5.1L8.7 6.6s.3.2.4.3c.6.6.6 1.6 0 2.2l-4.4 4.4c-.6.6-1.6.6-2.2 0s-.6-1.6 0-2.2L3.8 10c-.4-.8-.1-1.3-.4-2.5L1.1 9.8c-1.4 1.4-1.4 3.7 0 5.1s3.7 1.4 5.1 0l4.4-4.4c1.4-1.4 1.4-3.7 0-5.1-.2-.1-.4-.3-.4-.3z"/></svg>