<svg xmlns="http://www.w3.org/2000/svg" viewBox="0 0 16 16"><path d="M10 12.2c-.3 0-.5-.1-.8-.2L8 11.5l-1.2.5c-.2.1-.5.2-.8.2-.2 0-.3 0-.5-.1L5 16l3-2 3 2-.6-3.9c-.1.1-.3.1-.4.1zm2.9-6.3c-.1-.2-.1-.5 0-.7l.6-1.2c.2-.4 0-.9-.5-1.1l-1.3-.5c-.2-.1-.4-.3-.5-.5L10.7.6c-.1-.4-.4-.6-.7-.6-.1 0-.3 0-.4.1L8.3.7H8c-.1 0-.2 0-.3-.1L6.4.1C6.3 0 6.1 0 6 0c-.3 0-.6.2-.8.5l-.5 1.4c0 .2-.2.4-.4.5l-1.4.5c-.4.1-.6.6-.4 1.1l.6 1.3c.1.2.1.5 0 .7l-.6 1.2c-.2.4 0 .9.5 1.1l1.3.5c.2.1.4.3.5.5l.5 1.3c.1.4.4.6.7.6.1 0 .2 0 .3-.1l1.3-.6c.1 0 .2-.1.3-.1s.2 0 .3.1l1.3.6c.1.1.2.1.3.1.3 0 .6-.2.8-.5l.5-1.3c.1-.2.3-.4.5-.5l1.3-.5c.4-.2.7-.7.5-1.1l-.5-1.4zM8 9.6c-2.2 0-4-1.8-4-4s1.8-4 4-4 4 1.8 4 4-1.8 4-4 4z"/><path d="M11 5.6a3 3 0 11-6 0 3 3 0 016 0z"/></svg>