<svg xmlns="http://www.w3.org/2000/svg" viewBox="0 0 16 16"><path d="M12.6 5H12c0-.2-.2-.6-.4-.8s-.6-.4-1.1-.4c-.2 0-.4 0-.6.1-.1-.2-.2-.3-.3-.5-.2-.2-.5-.4-1.1-.4-.2 0-.4 0-.5.1V1.4C8 .8 7.6 0 6.6 0c-.4 0-.8.2-1.1.4C5 1 5 1.8 5 1.8v4.3c-.6.1-1.1.3-1.4.6C3 7.4 3 8.3 3 9.5v.7c0 1.4.7 2.1 1.4 2.8l.3.4C6 14.6 7.1 15 9.8 15c2.9 0 4.2-1.6 4.2-5.1V7.4c0-.7-.2-2.1-1.4-2.4zm.4 2.4V10c0 3.4-1.3 4.1-3.2 4.1-2.4 0-3.3-.3-4.3-1.3l-.4-.4c-.7-.8-1.1-1.2-1.1-2.2v-.7c0-1 0-1.7.3-2.1.1-.1.4-.2.7-.2v.5l-.3 1.5c0 .1 0 .1.1.2s.2 0 .2 0l1-1.2V1.8c0-.1 0-.5.2-.7.1 0 .2-.1.4-.1.3 0 .4.3.4.4v4.3c0 .3.2.6.5.6S8 6 8 5.8V4.5c0-.1.1-.5.5-.5.3 0 .5.1.5.4v1.3c0 .3.2.6.5.6s.5-.3.5-.5v-.7c0-.1.1-.3.5-.3.2 0 .3.1.3.1.2.1.2.4.2.4v.8c0 .3.2.5.4.5.3 0 .5-.1.5-.4 0-.1.1-.2.2-.3h.2c.6.2.7 1.2.7 1.5 0-.1 0-.1 0 0z"/></svg>