<svg xmlns="http://www.w3.org/2000/svg" viewBox="0 0 16 16"><path d="M8 0a8 8 0 100 16A8 8 0 008 0zm3.13 14.25l-.37-.9-.92.38.37.9c-.659.23-1.419.363-2.21.363s-1.551-.133-2.259-.378l.419-.885-.92-.38-.37.9a7.061 7.061 0 01-3.102-3.08l.882-.41-.38-.93-.9.37c-.23-.659-.363-1.419-.363-2.21s.133-1.551.378-2.259l.885.419.38-.92-.9-.37a7.054 7.054 0 013.08-3.092l.41.882.92-.38-.37-.9c.659-.23 1.419-.363 2.21-.363s1.551.133 2.259.378l-.419.885.92.38.37-.9a7.061 7.061 0 013.102 3.08l-.882.41.38.92.9-.37c.23.659.363 1.419.363 2.21s-.133 1.551-.378 2.259l-.885-.419-.38.92.9.37a7.061 7.061 0 01-3.08 3.102z"/><path d="M10.36 3.62L9.2 6.41A1.986 1.986 0 008.001 6h.279l1.15-2.77A4.836 4.836 0 008.003 3h-.071a5.06 5.06 0 100 10.12 5.06 5.06 0 002.454-9.486z"/></svg>