<svg xmlns="http://www.w3.org/2000/svg" viewBox="0 0 16 16"><path d="M15 6.1l-1.4-2.9c-.4-.7-1.1-1.2-2-1.2H11V.7c0-.4-.3-.7-.7-.7H5.7c-.4 0-.7.3-.7.7V2h-.7c-.8 0-1.6.5-1.9 1.2L1 6.1c-.6.1-1 .6-1 1.1v3.5c0 .6 0 1.1 1 1.2v2c0 .6.4 1.1 1 1.1h.9c.6 0 1.1-.5 1.1-1.1V12h8v1.9c0 .6.4 1.1 1 1.1h.9c.6 0 1.1-.5 1.1-1.1v-2c1-.1 1-.6 1-1.2V7.2c0-.5-.4-1-1-1.1zM4 8.4c0 .3-.3.6-.6.6H1.6c-.3 0-.6-.3-.6-.6v-.8c0-.3.3-.6.6-.6h1.8c.3 0 .6.3.6.6v.8zm6 2.6H6v-1h4v1zM2.1 6l1.2-2.4c.2-.4.6-.6 1-.6h7.4c.4 0 .8.2 1 .6L13.9 6H2.1zM15 8.4c0 .3-.3.6-.6.6h-1.8c-.3 0-.6-.3-.6-.6v-.8c0-.3.3-.6.6-.6h1.8c.3 0 .6.3.6.6v.8z"/></svg>