<svg xmlns="http://www.w3.org/2000/svg" viewBox="0 0 16 16"><path d="M16 7.1C16 5.6 14.6 5 13.8 5h-2.2c.4-1 .7-2.2.5-3.1C11.6.1 10.1 0 9.6 0h-.1c-.4 0-.6.2-.8.5l-1 2.8L5 6H0v9h5v-1c.2 0 .7.3 1.2.6 1.2.6 2.9 1.5 4.5 1.5 2.4 0 3.2-.3 3.8-1.3.3-.6.3-1.1.3-1.4.2-.2.5-.5.6-1s.1-.8 0-1.1c.2-.3.4-.7.5-1.3 0-.5-.1-.9-.2-1.2.1-.4.3-.9.3-1.7zM2.5 13.5c-.6 0-1-.4-1-1s.4-1 1-1 1 .4 1 1-.4 1-1 1zm12.2-4.4s.2.2.2.7c0 .6-.4.9-.4.9l-.3.3.2.3s.2.3 0 .7c-.1.4-.5.7-.5.7l-.3.3.2.4s.2.4-.1.9c-.2.4-.4.7-2.9.7-1.4 0-3-.8-4.1-1.4-.8-.4-1.3-.6-1.7-.6V7h.1c.2 0 .4-.1.6-.2L8.5 4c.1-.1.1-.2.2-.3l1-2.7c.5 0 1.2.2 1.4 1.1.1.6-.1 1.6-.6 2.8-.1.3-.1.5.1.8.1.2.4.3.7.3h2.5c.1 0 1.2.2 1.2 1.1 0 .8-.3 1.2-.3 1.2l-.3.4.3.4z"/></svg>