<svg xmlns="http://www.w3.org/2000/svg" viewBox="0 0 16 16"><path d="M11.3 16c-1.2 0-1.7-3.9-1.7-4.1-.1-1.3-1-2.1-1.6-2.2-.6 0-1.4.9-1.6 2.2 0 .2-.5 4.1-1.7 4.1s-1.8-4.4-1.9-4.4c-.2-1.4.1-3.4.2-4-.4-1.2-1.8-5.6-.5-7C3 .2 3.6 0 4.4 0c.6 0 1.3.1 2 .3.6.1 1.1.2 1.6.2S9 .4 9.6.3c.7-.2 1.4-.3 2-.3.8 0 1.4.2 1.8.7 1.3 1.4-.1 5.8-.5 7 .1.5.4 2.5.2 3.9.1 0-.5 4.4-1.8 4.4zM8 8.7c1.3.1 2.4 1.4 2.6 3.1.1 1.2.5 2.4.7 2.9.3-.6.7-2.1.9-3.3.2-1.4-.2-3.7-.2-3.7v-.2c.7-2.1 1.4-5.3.8-6.1-.3-.3-.7-.4-1.2-.4s-1.2.1-1.8.3c-.6.1-1.2.2-1.8.2s-1.2-.1-1.8-.2C5.6 1.1 4.9 1 4.4 1s-.9.1-1.1.4c-.7.7 0 4 .8 6.1v.2s-.4 2.3-.2 3.7c.2 1.2.6 2.7.9 3.3.2-.6.6-1.7.7-2.9.1-1.6 1.2-3 2.5-3.1z"/></svg>