<svg xmlns="http://www.w3.org/2000/svg" viewBox="0 0 16 16"><path d="M12.62 6a1.312 1.312 0 00-.629.002 1.54 1.54 0 00-.402-.843 1.417 1.417 0 00-1.008-.42l-.053.001h-.007c-.22 0-.43.044-.621.124a1.2 1.2 0 00-.29-.464 1.453 1.453 0 00-1.115-.399H8.5a2.5 2.5 0 10-3.506.486L5 7.151a2.194 2.194 0 00-1.432.581C3 8.351 3 9.311 3 10.511v.72a3.617 3.617 0 001.402 2.764l.358.356c1.24 1.27 2.38 1.65 5.02 1.65 2.88 0 4.22-1.61 4.22-5.06v-2.51c0-.77-.22-2.12-1.38-2.43zM13 8.35v2.59C13 14.31 11.71 15 9.78 15c-2.6 0-3.4-.39-4.3-1.33l-.36-.37A2.652 2.652 0 014 11.235V10.5a3.347 3.347 0 01.298-2.09c.186-.132.431-.228.698-.24l.003.7v-.22l-.34 1.5a.186.186 0 10.34.151l1-1.211a.214.214 0 000-.091V3.39l-.001-.039c0-.256.083-.492.223-.684a.51.51 0 01.399-.157h-.001c.21 0 .38.17.38.38v3.88a.5.5 0 001 0V5.45A.47.47 0 018.501 5 .42.42 0 019 5.412l-.001.029V6.77a.5.5 0 001 0v-.64a.45.45 0 01.502-.379.431.431 0 01.338.11c.1.129.16.294.16.473v.836a.5.5 0 00.504.494.51.51 0 00.496-.39.513.513 0 01.16-.273.27.27 0 01.223 0A1.38 1.38 0 0113 8.327l.001-.007z"/></svg>