<svg xmlns="http://www.w3.org/2000/svg" viewBox="0 0 16 16"><path d="M5.36.9L5.09.33a.54.54 0 00-.773-.259.55.55 0 00-.316.762l.319.577C-1.88 4.9.42 12 .42 12h.06c.25-.12.8-1.64 2.05-2.25s2.78-.09 3-.21l.12-.06a11.75 11.75 0 011.58-1.97l3.37 7.07a2.364 2.364 0 001.334 1.335 1.764 1.764 0 001.237-.069l.359-.176c.263-.145.462-.38.558-.662a2.34 2.34 0 00.183-.913c0-.401-.1-.778-.277-1.108a.628.628 0 00-.768-.286.55.55 0 00-.244.752c.041.077.529 1.067-.101 1.337s-1.19-.73-1.19-.73L8.271 7a11.482 11.482 0 012.532.005l.068-.065c.25-.12.8-1.64 2.05-2.25s2.78-.09 3-.21h.06S12.001-1.93 5.361.9zm2 5.46a3.81 3.81 0 00-2.211 2.224c-.55-1.082-.909-2.375-1.007-3.74C4 2.6 4.75 1.92 4.75 1.92l.77-.32a4.989 4.989 0 012.816 1.195 8.689 8.689 0 012.233 3.265c-.339-.021-.752-.067-1.175-.067-.724 0-1.417.134-2.054.379z"/></svg>