<svg xmlns="http://www.w3.org/2000/svg" viewBox="0 0 16 16"><path d="M16 3.538a6.461 6.461 0 01-1.884.516 3.301 3.301 0 001.444-1.816 6.607 6.607 0 01-2.084.797 3.28 3.28 0 00-2.397-1.034 3.28 3.28 0 00-3.197 4.028 9.321 9.321 0 01-6.766-3.431 3.284 3.284 0 001.015 4.381A3.301 3.301 0 01.643 6.57v.041A3.283 3.283 0 003.277 9.83a3.291 3.291 0 01-1.485.057 3.293 3.293 0 003.066 2.281 6.586 6.586 0 01-4.862 1.359 9.286 9.286 0 005.034 1.475c6.037 0 9.341-5.003 9.341-9.341 0-.144-.003-.284-.009-.425a6.59 6.59 0 001.637-1.697z"/></svg>