<svg xmlns="http://www.w3.org/2000/svg" viewBox="0 0 48 48"><path fill-rule="evenodd" stroke-linecap="round" stroke-width="0" d="M41 42H8V7h17v10.99h16V42z"/><path fill-rule="evenodd" d="M35.012 39v-2.99h3V39h-3zm0-8.01h3v3.018h-3V30.99zm0-4.992h3v2.989h-3V26zm0-4.993h3V24h-3v-2.99zm-5 15.005h3V39h-3v-2.99zm0-5.021h3v3.018h-3V30.99zm0-4.992h3v2.989h-3V26zm0-4.993h3V24h-3v-2.99zM25 18h2v24h-2V18zM11.994 37h9.012v2.015h-9.012V37zm0-5h9.012v2.015h-9.012v-2.021zm0-5h9.012v2.015h-9.012v-2.023zm0-5h9.012v2.015h-9.012v-2.024zm0-5h9.012v2h-9.012v-2.011zm0-5h9.012v2h-9.012v-2.013z"/></svg>