<?xml version="1.0" encoding="UTF-8"?>
<svg width="16px" height="16px" viewBox="0 0 16 16" version="1.1" xmlns="http://www.w3.org/2000/svg" xmlns:xlink="http://www.w3.org/1999/xlink">
    <!-- Generator: Sketch 52.2 (67145) - http://www.bohemiancoding.com/sketch -->
    <title>icon_alert</title>
    <desc>Created with Sketch.</desc>
    <g id="icon_alert" stroke="none" stroke-width="1" fill="none" fill-rule="evenodd">
        <path d="M8.89442719,3.78885438 L12.2763932,10.5527864 C12.5233825,11.0467649 12.3231581,11.6474379 11.8291796,11.8944272 C11.6903242,11.9638549 11.5372111,12 11.381966,12 L4.61803399,12 C4.06574924,12 3.61803399,11.5522847 3.61803399,11 C3.61803399,10.8447549 3.65417908,10.6916418 3.7236068,10.5527864 L7.10557281,3.78885438 C7.35256206,3.29487588 7.9532351,3.09465154 8.4472136,3.34164079 C8.640741,3.43840449 8.79766349,3.59532698 8.89442719,3.78885438 Z M8,5 C7.72385763,5 7.5,5.22385763 7.5,5.5 L7.5,8.5 C7.5,8.77614237 7.72385763,9 8,9 C8.27614237,9 8.5,8.77614237 8.5,8.5 L8.5,5.5 C8.5,5.22385763 8.27614237,5 8,5 Z M8,10 C7.72385763,10 7.5,10.2238576 7.5,10.5 C7.5,10.7761424 7.72385763,11 8,11 C8.27614237,11 8.5,10.7761424 8.5,10.5 C8.5,10.2238576 8.27614237,10 8,10 Z" id="Shape" fill="#293040"></path>
    </g>
</svg>