<svg xmlns="http://www.w3.org/2000/svg" viewBox="0 0 15 15"><path d="M10.5 14.49v.5h.5v-.5h-.5zm-10 0H0v.5h.5v-.5zm7-4.996v.5-.5zm-4 0v-.5.5zM8 3.498a2.499 2.499 0 01-2.5 2.498v1C7.433 6.996 9 5.43 9 3.498H8zM5.5 5.996A2.499 2.499 0 013 3.498H2a3.499 3.499 0 003.5 3.498v-1zM3 3.498A2.499 2.499 0 015.5 1V0A3.499 3.499 0 002 3.498h1zM5.5 1A2.5 2.5 0 018 3.498h1A3.499 3.499 0 005.5 0v1zm5 12.99H.5v1h10v-1zm-9.5.5v-1.996H0v1.996h1zm2.5-4.496h4v-1h-4v1zm6.5 2.5v1.996h1v-1.997h-1zm-2.5-2.5a2.5 2.5 0 012.5 2.5h1a3.5 3.5 0 00-3.5-3.5v1zm-6.5 2.5a2.5 2.5 0 012.5-2.5v-1a3.5 3.5 0 00-3.5 3.5h1zM10 8h5V7h-5v1z"/></svg>