<svg width="80.000000" height="80.000000" viewBox="0 0 80 80" fill="none" xmlns="http://www.w3.org/2000/svg" xmlns:xlink="http://www.w3.org/1999/xlink">
	<desc>
			Created with Pixso.
	</desc>
	<defs>
		<clipPath id="clip7_161">
			<rect id="西梅" width="80.000000" height="80.000000" fill="white" fill-opacity="0"/>
		</clipPath>
	</defs>
	<g clip-path="url(#clip7_161)">
		<path id="path" d="M0 0C26.4 0 52.8 0 80 0C80 26.4 80 52.8 80 80C53.6 80 27.2 80 0 80C0 53.6 0 27.2 0 0Z" fill="#8F4DD7" fill-opacity="1.000000" fill-rule="nonzero"/>
		<path id="path" d="M0 0C26.4 0 52.8 0 80 0C80 26.4 80 52.8 80 80C53.6 80 27.2 80 0 80C0 53.6 0 27.2 0 0ZM70.14 6.46C68.24 7.25 66.14 7.08 64.12 7.09C60.87 7.13 58.02 7.85 55.78 10.31C54.94 11.4 54.37 12.66 54.37 14.06C54.2 13.98 54.04 13.9 53.86 13.82C52.09 13 50.32 12.38 48.43 11.87C48.25 11.82 48.07 11.77 47.88 11.72C40.27 9.81 31.36 11.1 24.79 15.38C23.12 16.53 21.62 17.81 20.15 19.21C20.01 19.35 19.86 19.48 19.71 19.62C13.7 25.37 10.18 34.43 10.11 42.7C10.11 42.85 10.11 43 10.11 43.15C10.04 51.64 12 60.34 17.81 66.87C17.92 67 18.03 67.12 18.14 67.25C23.45 73.29 30.77 77.4 38.92 77.54C42.37 77.56 45.66 77.14 48.9 75.93C49.03 75.89 49.16 75.84 49.29 75.79C54.95 73.71 59.88 69.86 63.43 65C63.61 64.76 63.61 64.76 63.78 64.52C69.91 56.01 71.3 44.95 69.11 34.83C69.04 34.52 68.97 34.21 68.9 33.9C68.86 33.7 68.86 33.7 68.81 33.5C67.69 28.46 65.25 23.27 61.67 19.51C61.4 19.21 61.4 19.21 61.09 18.75C61.26 18.73 61.44 18.72 61.62 18.7C64.67 18.42 67.35 17.58 69.37 15.15C70.97 12.95 71.59 10.73 71.57 8.04C71.57 7.83 71.57 7.83 71.57 7.61C71.62 6.85 71.62 6.85 71.25 6.25C70.63 6.2 70.63 6.2 70.14 6.46Z" fill="#FDFCFD" fill-opacity="1.000000" fill-rule="nonzero"/>
		<path id="path" d="M25 22.5C25.87 22.5 26.75 22.5 27.65 22.5C27.6 23.11 27.55 23.73 27.5 24.37C27.6 24.37 27.7 24.37 27.81 24.37C27.81 24.58 27.81 24.78 27.81 25C28.53 25 29.25 25 30 25C30 25.82 30 26.65 30 27.5C30.46 27.5 30.92 27.5 31.4 27.5C31.35 27.91 31.3 28.32 31.25 28.75C31.66 28.75 32.07 28.75 32.5 28.75C32.5 29.16 32.5 29.57 32.5 30C32.91 30 33.32 30 33.75 30C33.75 30.36 33.75 30.72 33.75 31.09C34.16 31.14 34.57 31.19 35 31.25C35 32.12 35 33 35 33.9C34.68 33.43 34.68 33.43 34.43 32.85C33.88 31.86 33.13 31.11 32.03 30.78C31.5 30.74 31.5 30.74 30.96 30.76C30.78 30.76 30.6 30.76 30.41 30.77C30.27 30.77 30.14 30.77 30 30.78C30 30.93 30 31.09 30 31.25C30.25 31.3 30.51 31.35 30.78 31.4C30.78 31.56 30.78 31.71 30.78 31.87C30.88 31.87 30.98 31.87 31.09 31.87C31.14 32.02 31.19 32.18 31.25 32.34C31.19 32.39 31.14 32.44 31.09 32.5C31.04 32.91 30.99 33.32 30.93 33.75C31.04 33.75 31.14 33.75 31.25 33.75C31.4 34.29 31.4 34.29 31.56 34.84C31.87 34.94 32.18 35.05 32.5 35.15C32.5 35.41 32.5 35.67 32.5 35.93C32.77 35.89 33.04 35.84 33.32 35.8C33.47 35.77 33.62 35.75 33.78 35.72C34.26 35.63 34.26 35.63 34.84 35.31C34.7 36.21 34.7 36.21 34.53 36.56C34.76 36.63 34.76 36.63 35 36.71C35 37.38 35 38.05 35 38.75C34.68 38.9 34.68 38.9 33.59 38.9C33.51 39.13 33.51 39.13 33.43 39.37C33.54 39.37 33.64 39.37 33.75 39.37C33.75 39.58 33.75 39.78 33.75 40C33.2 40.07 33.2 40.07 32.65 40.15C32.65 40.34 32.66 40.52 32.66 40.71C32.65 41.32 32.6 41.89 32.5 42.5C32.13 42.55 31.77 42.6 31.4 42.65C31.35 43.01 31.3 43.37 31.25 43.75C31.66 43.75 32.07 43.75 32.5 43.75C32.5 44.16 32.5 44.57 32.5 45C32.91 45 33.32 45 33.75 45C33.75 44.58 33.75 44.17 33.75 43.75C33.9 43.8 34.05 43.85 34.21 43.9C34.27 44.06 34.32 44.21 34.37 44.37C34.58 44.37 34.78 44.37 35 44.37C35 45.71 35 47.05 35 48.43C35.1 48.43 35.2 48.43 35.31 48.43C35.31 48.54 35.31 48.64 35.31 48.75C35.72 48.75 36.13 48.75 36.56 48.75C36.56 48.85 36.56 48.95 36.56 49.06C36.45 49.06 36.35 49.06 36.25 49.06C36.25 50.19 36.25 51.33 36.25 52.5C35.63 52.5 35.01 52.5 34.37 52.5C34.37 52.7 34.37 52.91 34.37 53.12C34.47 53.12 34.58 53.12 34.68 53.12C34.68 53.33 34.68 53.53 34.68 53.75C35.2 53.75 35.71 53.75 36.25 53.75C36.25 54.47 36.25 55.19 36.25 55.93C36.45 55.93 36.66 55.93 36.87 55.93C36.87 56.04 36.87 56.14 36.87 56.25C37.08 56.25 37.28 56.25 37.5 56.25C37.5 55.83 37.5 55.42 37.5 55C37.91 55 38.32 55 38.75 55C38.75 55.82 38.75 56.65 38.75 57.5C37.92 57.5 37.09 57.5 36.25 57.5C36.25 57.7 36.25 57.91 36.25 58.12C36.45 58.12 36.66 58.12 36.87 58.12C36.87 58.22 36.87 58.33 36.87 58.43C36.97 58.43 37.08 58.43 37.18 58.43C37.18 58.54 37.18 58.64 37.18 58.75C37.29 58.75 37.39 58.75 37.5 58.75C37.5 59.16 37.5 59.57 37.5 60C37.91 60 38.32 60 38.75 60C38.75 60.41 38.75 60.82 38.75 61.25C39.16 61.25 39.57 61.25 40 61.25C40 61.66 40 62.07 40 62.5C40.41 62.5 40.82 62.5 41.25 62.5C41.25 62.7 41.25 62.91 41.25 63.12C41.35 63.12 41.45 63.12 41.56 63.12C41.56 63.33 41.56 63.53 41.56 63.75C41.87 63.75 42.18 63.75 42.5 63.75C42.5 63.33 42.5 62.92 42.5 62.5C43.32 62.5 44.15 62.5 45 62.5C45 62.91 45 63.32 45 63.75C45.82 63.75 46.65 63.75 47.5 63.75C47.5 63.64 47.5 63.54 47.5 63.43C47.91 63.43 48.32 63.43 48.75 63.43C48.75 63.33 48.75 63.23 48.75 63.12C49.16 63.12 49.57 63.12 50 63.12C50 62.5 50 61.88 50 61.25C50.1 61.25 50.2 61.25 50.31 61.25C50.31 61.55 50.31 61.86 50.31 62.18C50.62 62.18 50.93 62.18 51.25 62.18C51.25 61.92 51.25 61.67 51.25 61.4C51.4 61.25 51.4 61.25 52.5 61.25C52.5 61.55 52.5 61.86 52.5 62.18C52.8 62.18 53.11 62.18 53.43 62.18C53.43 61.98 53.43 61.77 53.43 61.56C53.54 61.56 53.64 61.56 53.75 61.56C53.75 61.45 53.75 61.35 53.75 61.25C53.9 61.24 54.05 61.23 54.21 61.22C54.41 61.2 54.61 61.19 54.82 61.18C55.02 61.16 55.22 61.15 55.42 61.14C55.91 61.12 55.91 61.12 56.25 60.93C56.25 61.04 56.25 61.14 56.25 61.25C56.35 61.25 56.45 61.25 56.56 61.25C56.56 60.99 56.56 60.73 56.56 60.46C56.66 60.31 56.76 60.15 56.87 60C57.49 60 58.11 60 58.75 60C58.75 59.63 58.75 59.27 58.75 58.9C58.95 58.85 59.16 58.8 59.37 58.75C59.37 58.85 59.37 58.95 59.37 59.06C59.47 59.06 59.58 59.06 59.68 59.06C59.68 58.95 59.68 58.85 59.68 58.75C59.79 58.75 59.89 58.75 60 58.75C60 58.33 60 57.92 60 57.5C60.41 57.5 60.82 57.5 61.25 57.5C61.25 57.24 61.25 56.98 61.25 56.71C61.71 56.25 61.71 56.25 63.75 56.25C63.75 55.47 63.75 54.7 63.75 53.9C63.95 53.85 64.16 53.8 64.37 53.75C64.37 53.38 64.37 53.02 64.37 52.65C64.42 52.6 64.47 52.55 64.53 52.5C64.58 52.13 64.63 51.77 64.68 51.4C64.73 51.35 64.79 51.3 64.84 51.25C64.89 50.88 64.94 50.52 65 50.15C65.2 50.1 65.41 50.05 65.62 50C65.62 49.63 65.62 49.27 65.62 48.9C65.77 48.85 65.93 48.8 66.09 48.75C66.14 48.28 66.19 47.82 66.25 47.34C67.03 46.87 67.03 46.87 67.5 46.87C67.5 46.25 67.5 45.63 67.5 45C68.12 44.37 68.12 44.37 68.43 44.37C68.43 44.27 68.43 44.16 68.43 44.06C68.54 44.06 68.64 44.06 68.75 44.06C68.75 43.95 68.75 43.85 68.75 43.75C68.54 43.75 68.33 43.75 68.12 43.75C68.02 43.49 67.91 43.23 67.81 42.96C67.91 42.81 68.01 42.65 68.12 42.5C67.91 42.5 67.71 42.5 67.5 42.5C67.5 41.4 67.5 41.4 67.81 40.93C67.91 40.93 68.01 40.93 68.12 40.93C68.12 40.83 68.12 40.73 68.12 40.62C68.22 40.62 68.33 40.62 68.43 40.62C68.43 40.52 68.43 40.41 68.43 40.31C68.54 40.31 68.64 40.31 68.75 40.31C68.75 38.97 68.75 37.63 68.75 36.25C68.33 36.25 67.92 36.25 67.5 36.25C67.5 35.15 67.5 35.15 67.65 35C67.91 35 68.17 35 68.43 35C68.43 34.84 68.43 34.69 68.43 34.53C68.54 34.53 68.64 34.53 68.75 34.53C71.31 38.31 70.19 46.23 69.53 50.46C69.5 50.6 69.48 50.74 69.46 50.88C68.56 56.35 66.34 61.5 62.81 65.78C62.61 66.02 62.61 66.02 62.42 66.26C57.93 71.73 51.06 76.66 43.79 77.22C42.75 77.26 41.72 77.24 40.68 77.22C40.37 77.22 40.06 77.22 39.75 77.21C39 77.21 38.25 77.2 37.5 77.18C37.5 76.46 37.5 75.74 37.5 75C36.67 75 35.84 75 35 75C35 74.58 35 74.17 35 73.75C34.58 73.75 34.17 73.75 33.75 73.75C33.75 73.33 33.75 72.92 33.75 72.5C32.92 72.5 32.09 72.5 31.25 72.5C31.25 71.67 31.25 70.85 31.25 70C30.42 70 29.6 70 28.75 70C28.75 69.89 28.75 69.79 28.75 69.68C28.64 69.63 28.54 69.58 28.43 69.53C28.43 69.27 28.43 69.01 28.43 68.75C28.12 68.75 27.81 68.75 27.5 68.75C27.5 67.92 27.5 67.1 27.5 66.25C27.08 66.25 26.67 66.25 26.25 66.25C26.25 65.83 26.25 65.42 26.25 65C26.35 65 26.45 65 26.56 65C26.56 64.79 26.56 64.58 26.56 64.37C26.45 64.37 26.35 64.37 26.25 64.37C26.25 64.27 26.25 64.16 26.25 64.06C26.35 64.06 26.45 64.06 26.56 64.06C26.56 63.95 26.56 63.85 26.56 63.75C25.63 63.75 24.7 63.75 23.75 63.75C23.75 62.92 23.75 62.1 23.75 61.25C23.56 61.27 23.38 61.3 23.2 61.33C22.51 61.4 21.93 61.35 21.25 61.25C21.25 60.42 21.25 59.6 21.25 58.75C20.83 58.75 20.42 58.75 20 58.75C20 57.51 20 56.27 20 55C19.58 55 19.17 55 18.75 55C18.75 53.45 18.75 51.9 18.75 50.31C18.64 50.31 18.54 50.31 18.43 50.31C18.43 50.2 18.43 50.1 18.43 50C18.12 50 17.81 50 17.5 50C17.5 49.69 17.5 49.38 17.5 49.06C17.39 49.01 17.29 48.95 17.18 48.9C17.23 48.85 17.29 48.8 17.34 48.75C17.52 46.56 17.51 44.38 17.5 42.18C17.39 42.13 17.29 42.08 17.18 42.03C17.23 41.87 17.29 41.72 17.34 41.56C17.36 41.17 17.38 40.78 17.39 40.38C17.39 40.15 17.4 39.92 17.41 39.68C17.41 39.44 17.42 39.2 17.43 38.95C17.43 38.71 17.44 38.46 17.45 38.21C17.46 37.61 17.48 37 17.5 36.4C18.09 35.81 19.16 36.25 20 36.25C20 35.83 20 35.42 20 35C19.58 35 19.17 35 18.75 35C18.75 34.58 18.75 34.17 18.75 33.75C19.16 33.75 19.57 33.75 20 33.75C19.98 33.36 19.98 33.36 19.96 32.97C19.73 28.29 19.73 28.29 20.15 27.03C20.1 26.82 20.05 26.61 20 26.4C20.59 25.81 21.66 26.25 22.5 26.25C22.5 26.66 22.5 27.07 22.5 27.5C22.91 27.5 23.32 27.5 23.75 27.5C23.75 26.31 23.75 25.12 23.75 23.9C24.21 23.43 24.21 23.43 24.68 23.43C24.68 23.23 24.68 23.02 24.68 22.81C24.79 22.81 24.89 22.81 25 22.81C25 22.7 25 22.6 25 22.5Z" fill="#7237BC" fill-opacity="1.000000" fill-rule="nonzero"/>
		<path id="path" d="M71.4 6.4C71.9 6.9 71.58 8.96 71.56 9.68C71.33 12.46 69.89 14.92 67.81 16.71C65.85 18.21 63.48 18.56 61.09 18.75C61.17 18.83 61.25 18.91 61.33 18.99C63.61 21.43 65.62 24.12 65.62 27.5C65.83 27.5 66.03 27.5 66.25 27.5C66.25 27.91 66.25 28.32 66.25 28.75C66.04 28.75 65.83 28.75 65.62 28.75C65.57 28.9 65.52 29.05 65.46 29.21C65.31 29.16 65.15 29.11 65 29.06C65 29.37 65 29.68 65 30C65.41 30 65.82 30 66.25 30C66.26 31.19 66.26 31.19 66.09 31.71C66.05 32.06 66.03 32.41 66 32.76C65.99 32.94 65.97 33.13 65.96 33.32C65.95 33.46 65.94 33.6 65.93 33.75C65.62 33.75 65.31 33.75 65 33.75C65 34.16 65 34.57 65 35C65.3 35 65.61 35 65.93 35C65.93 35.41 65.93 35.82 65.93 36.25C65.62 36.25 65.31 36.25 65 36.25C65 36.66 65 37.07 65 37.5C64.89 37.5 64.79 37.5 64.68 37.5C64.68 37.6 64.68 37.7 64.68 37.81C64.58 37.81 64.48 37.81 64.37 37.81C64.27 38.01 64.16 38.22 64.06 38.43C63.95 38.43 63.85 38.43 63.75 38.43C63.75 38.95 63.75 39.46 63.75 40C63.38 40.05 63.02 40.1 62.65 40.15C62.6 40.92 62.55 41.7 62.5 42.5C62.13 42.55 61.77 42.6 61.4 42.65C61.35 42.91 61.3 43.17 61.25 43.43C60.88 43.59 60.52 43.74 60.15 43.9C60.1 44.67 60.05 45.45 60 46.25C58.76 46.25 57.52 46.25 56.25 46.25C56.25 46.66 56.25 47.07 56.25 47.5C55.83 47.5 55.42 47.5 55 47.5C55 47.91 55 48.32 55 48.75C55.41 48.75 55.82 48.75 56.25 48.75C56.25 49.16 56.25 49.57 56.25 50C55.47 50.05 54.7 50.1 53.9 50.15C53.85 50.51 53.8 50.87 53.75 51.25C53.38 51.3 53.02 51.35 52.65 51.4C52.6 51.76 52.55 52.12 52.5 52.5C52.08 52.5 51.67 52.5 51.25 52.5C51.25 52.08 51.25 51.67 51.25 51.25C50.83 51.25 50.42 51.25 50 51.25C50 50.83 50 50.42 50 50C49.63 50.05 49.27 50.1 48.9 50.15C48.85 50.51 48.8 50.87 48.75 51.25C48.33 51.25 47.92 51.25 47.5 51.25C47.5 51.14 47.5 51.04 47.5 50.93C47.39 50.93 47.29 50.93 47.18 50.93C47.18 50.73 47.18 50.52 47.18 50.31C47.29 50.31 47.39 50.31 47.5 50.31C47.5 50.2 47.5 50.1 47.5 50C47.29 50 47.08 50 46.87 50C46.87 50.1 46.87 50.2 46.87 50.31C46.77 50.31 46.66 50.31 46.56 50.31C46.56 50.2 46.56 50.1 46.56 50C46.45 50 46.35 50 46.25 50C46.25 49.58 46.25 49.17 46.25 48.75C46.66 48.75 47.07 48.75 47.5 48.75C47.5 48.33 47.5 47.92 47.5 47.5C47.08 47.5 46.67 47.5 46.25 47.5C46.25 46.67 46.25 45.85 46.25 45C45.63 45 45.01 45 44.37 45C44.37 44.89 44.37 44.79 44.37 44.68C44.16 44.68 43.96 44.68 43.75 44.68C43.75 43.55 43.75 42.41 43.75 41.25C43.38 41.3 43.02 41.35 42.65 41.4C42.65 41.81 42.65 42.23 42.65 42.65C42.55 42.86 42.45 43.06 42.34 43.28C42.39 43.43 42.44 43.59 42.5 43.75C41.67 43.75 40.84 43.75 40 43.75C40 42.92 40 42.1 40 41.25C40.41 41.25 40.82 41.25 41.25 41.25C41.25 40.83 41.25 40.42 41.25 40C40.83 40 40.42 40 40 40C40 39.58 40 39.17 40 38.75C40.41 38.75 40.82 38.75 41.25 38.75C41.19 38.28 41.14 37.82 41.09 37.34C40.93 37.39 40.78 37.45 40.62 37.5C39.93 37.67 39.43 37.62 38.75 37.5C38.75 37.19 38.75 36.88 38.75 36.56C38.85 36.56 38.95 36.56 39.06 36.56C39.06 36.45 39.06 36.35 39.06 36.25C38.44 36.25 37.82 36.25 37.18 36.25C37.26 35.94 37.26 35.94 37.34 35.62C37.39 35.72 37.44 35.83 37.5 35.93C37.8 35.93 38.11 35.93 38.43 35.93C38.43 35.83 38.43 35.73 38.43 35.62C38.33 35.62 38.23 35.62 38.12 35.62C38.12 35.52 38.12 35.41 38.12 35.31C38.02 35.31 37.91 35.31 37.81 35.31C37.47 34.29 37.47 34.29 37.65 33.75C38.01 33.75 38.37 33.75 38.75 33.75C38.75 33.33 38.75 32.92 38.75 32.5C39.57 32.5 40.4 32.5 41.25 32.5C41.25 32.08 41.25 31.67 41.25 31.25C40.42 31.25 39.59 31.25 38.75 31.25C38.75 30.83 38.75 30.42 38.75 30C39.16 30 39.57 30 40 30C40 29.58 40 29.17 40 28.75C39.69 28.75 39.38 28.75 39.06 28.75C39.06 28.64 39.06 28.54 39.06 28.43C38.85 28.43 38.65 28.43 38.43 28.43C38.43 28.33 38.43 28.23 38.43 28.12C38.74 27.97 38.74 27.97 39.06 27.81C39.13 27.65 39.13 27.65 39.21 27.5C39.88 27.5 40.55 27.5 41.25 27.5C41.25 27.08 41.25 26.67 41.25 26.25C41.14 26.25 41.04 26.25 40.93 26.25C40.93 26.14 40.93 26.04 40.93 25.93C41.04 25.93 41.14 25.93 41.25 25.93C41.25 25.62 41.25 25.31 41.25 25C41.66 25 42.07 25 42.5 25C42.5 23.76 42.5 22.52 42.5 21.25C43.32 21.25 44.15 21.25 45 21.25C45 20.42 45 19.6 45 18.75C44.81 18.77 44.63 18.8 44.45 18.83C43.76 18.9 43.18 18.85 42.5 18.75C42.5 18.33 42.5 17.92 42.5 17.5C42.91 17.5 43.32 17.5 43.75 17.5C43.75 16.67 43.75 15.85 43.75 15C43.33 15 42.92 15 42.5 15C42.5 14.58 42.5 14.17 42.5 13.75C42.34 13.76 42.19 13.77 42.04 13.78C40.5 13.9 39.03 13.88 37.5 13.75C37.5 12.65 37.5 12.65 37.65 12.5C38.01 12.5 38.37 12.5 38.75 12.5C38.75 12.13 38.75 11.77 38.75 11.4C38.13 11.32 38.13 11.32 37.5 11.25C37.5 11.19 37.5 11.14 37.5 11.09C43.46 11 48.93 11.34 54.37 14.06C54.38 13.88 54.4 13.7 54.41 13.52C54.73 11.57 55.91 9.89 57.5 8.75C60.09 7.17 62.65 7.12 65.61 7.1C67.38 7.08 69.83 6.09 71.4 6.4Z" fill="#AE74E9" fill-opacity="1.000000" fill-rule="nonzero"/>
		<path id="path" d="M71.4 6.4C71.9 6.9 71.58 8.96 71.56 9.68C71.33 12.46 69.89 14.92 67.81 16.71C65.85 18.21 63.48 18.56 61.09 18.75C61.17 18.83 61.25 18.91 61.33 18.99C63.61 21.43 65.62 24.12 65.62 27.5C65.83 27.5 66.03 27.5 66.25 27.5C66.25 27.91 66.25 28.32 66.25 28.75C66.04 28.75 65.83 28.75 65.62 28.75C65.57 28.9 65.52 29.05 65.46 29.21C65.31 29.16 65.15 29.11 65 29.06C65 29.37 65 29.68 65 30C65.41 30 65.82 30 66.25 30C66.26 31.19 66.26 31.19 66.09 31.71C66.05 32.06 66.03 32.41 66 32.76C65.99 32.94 65.97 33.13 65.96 33.32C65.95 33.46 65.94 33.6 65.93 33.75C65.62 33.75 65.31 33.75 65 33.75C65 34.16 65 34.57 65 35C65.3 35 65.61 35 65.93 35C65.93 35.41 65.93 35.82 65.93 36.25C65.62 36.25 65.31 36.25 65 36.25C65 36.66 65 37.07 65 37.5C64.89 37.5 64.79 37.5 64.68 37.5C64.68 37.6 64.68 37.7 64.68 37.81C64.58 37.81 64.48 37.81 64.37 37.81C64.27 38.01 64.16 38.22 64.06 38.43C63.95 38.43 63.85 38.43 63.75 38.43C63.75 38.95 63.75 39.46 63.75 40C63.38 40.05 63.02 40.1 62.65 40.15C62.6 40.92 62.55 41.7 62.5 42.5C62.13 42.55 61.77 42.6 61.4 42.65C61.35 42.91 61.3 43.17 61.25 43.43C60.88 43.59 60.52 43.74 60.15 43.9C60.1 44.67 60.05 45.45 60 46.25C59.48 46.25 58.96 46.25 58.43 46.25C58.43 46.14 58.43 46.04 58.43 45.93C58.54 45.93 58.64 45.93 58.75 45.93C58.75 45.11 58.75 44.28 58.75 43.43C58.85 43.43 58.95 43.43 59.06 43.43C59.06 43.23 59.06 43.02 59.06 42.81C59.16 42.81 59.26 42.81 59.37 42.81C59.37 42.7 59.37 42.6 59.37 42.5C59.47 42.5 59.58 42.5 59.68 42.5C59.68 42.6 59.68 42.7 59.68 42.81C59.79 42.81 59.89 42.81 60 42.81C60 41.88 60 40.95 60 40C60.41 40 60.82 40 61.25 40C61.25 39.17 61.25 38.34 61.25 37.5C61.66 37.5 62.07 37.5 62.5 37.5C62.5 35.02 62.5 32.55 62.5 30C62.91 30 63.32 30 63.75 30C63.75 29.63 63.75 29.27 63.75 28.9C63.33 28.85 62.92 28.8 62.5 28.75C62.5 28.23 62.5 27.71 62.5 27.18C62.39 27.18 62.29 27.18 62.18 27.18C62.18 26.87 62.18 26.56 62.18 26.25C61.98 26.25 61.77 26.25 61.56 26.25C61.56 25.94 61.56 25.63 61.56 25.31C61.45 25.26 61.35 25.2 61.25 25.15C61.25 24.95 61.25 24.95 61.25 24.74C61.26 23.51 61.21 22.31 61.09 21.09C60.93 21.04 60.78 20.99 60.62 20.93C60.62 20.83 60.62 20.73 60.62 20.62C60.52 20.62 60.41 20.62 60.31 20.62C60.2 20.47 60.1 20.31 60 20.15C56.9 20.07 56.9 20.07 53.75 20C53.75 19.89 53.75 19.79 53.75 19.68C53.64 19.68 53.54 19.68 53.43 19.68C53.43 19.79 53.43 19.89 53.43 20C51.11 20.05 48.79 20.1 46.4 20.15C46.35 20.92 46.3 21.7 46.25 22.5C44.93 22.57 44.93 22.57 43.59 22.65C43.64 22.91 43.69 23.17 43.75 23.43C43.43 23.75 43.43 23.75 42.5 23.75C42.5 22.92 42.5 22.1 42.5 21.25C43.32 21.25 44.15 21.25 45 21.25C45 20.42 45 19.6 45 18.75C44.81 18.77 44.63 18.8 44.45 18.83C43.76 18.9 43.18 18.85 42.5 18.75C42.5 18.33 42.5 17.92 42.5 17.5C42.91 17.5 43.32 17.5 43.75 17.5C43.75 16.67 43.75 15.85 43.75 15C43.33 15 42.92 15 42.5 15C42.5 14.58 42.5 14.17 42.5 13.75C42.34 13.76 42.19 13.77 42.04 13.78C40.5 13.9 39.03 13.88 37.5 13.75C37.5 12.65 37.5 12.65 37.65 12.5C38.01 12.5 38.37 12.5 38.75 12.5C38.75 12.13 38.75 11.77 38.75 11.4C38.13 11.32 38.13 11.32 37.5 11.25C37.5 11.19 37.5 11.14 37.5 11.09C43.46 11 48.93 11.34 54.37 14.06C54.38 13.88 54.4 13.7 54.41 13.52C54.73 11.57 55.91 9.89 57.5 8.75C60.09 7.17 62.65 7.12 65.61 7.1C67.38 7.08 69.83 6.09 71.4 6.4Z" fill="#A363DF" fill-opacity="1.000000" fill-rule="nonzero"/>
		<path id="path" d="M39.06 11.25C38.95 11.3 38.85 11.35 38.75 11.4C38.75 11.76 38.75 12.12 38.75 12.5C38.38 12.55 38.02 12.6 37.65 12.65C37.6 13.01 37.55 13.37 37.5 13.75C36.72 13.8 35.95 13.85 35.15 13.9C35.1 14.26 35.05 14.62 35 15C34.48 15.05 33.96 15.1 33.43 15.15C33.37 15.33 33.37 15.33 33.31 15.51C33.12 15.93 33.12 15.93 32.65 16.4C32.6 16.76 32.55 17.12 32.5 17.5C30.95 17.55 29.4 17.6 27.81 17.65C27.7 18.01 27.6 18.37 27.5 18.75C26.95 18.82 26.95 18.82 26.4 18.9C26.35 19.26 26.3 19.62 26.25 20C25.83 20 25.42 20 25 20C25 20.41 25 20.82 25 21.25C24.58 21.25 24.17 21.25 23.75 21.25C23.75 21.66 23.75 22.07 23.75 22.5C23.49 22.55 23.23 22.6 22.96 22.65C22.91 22.91 22.86 23.17 22.81 23.43C22.7 23.43 22.6 23.43 22.5 23.43C22.5 23.54 22.5 23.64 22.5 23.75C22.08 23.75 21.67 23.75 21.25 23.75C21.25 24.16 21.25 24.57 21.25 25C20.7 25.07 20.7 25.07 20.15 25.15C20.13 25.4 20.13 25.4 20.1 25.65C20 26.23 19.86 26.55 19.53 27.03C19.47 27.59 19.42 28.16 19.37 28.75C19.22 28.8 19.06 28.85 18.9 28.9C18.85 29.26 18.8 29.62 18.75 30C18.2 30.07 18.2 30.07 17.65 30.15C17.6 30.92 17.55 31.7 17.5 32.5C17.29 32.5 17.08 32.5 16.87 32.5C16.87 32.91 16.87 33.32 16.87 33.75C16.66 33.75 16.46 33.75 16.25 33.75C16.32 34.44 16.32 34.44 16.4 35.15C16.3 35.36 16.2 35.56 16.09 35.78C16.14 35.83 16.19 35.88 16.25 35.93C16.25 36.45 16.25 36.96 16.25 37.5C15.83 37.5 15.42 37.5 15 37.5C15.02 37.69 15.05 37.88 15.08 38.08C15.18 38.99 15.13 39.88 15.08 40.79C15.07 41.03 15.07 41.03 15.06 41.29C15.04 41.69 15.02 42.09 15 42.5C15.2 42.5 15.41 42.5 15.62 42.5C15.52 42.8 15.41 43.11 15.31 43.43C15.2 43.43 15.1 43.43 15 43.43C15 44.36 15 45.29 15 46.25C14.89 46.25 14.79 46.25 14.68 46.25C14.68 46.35 14.68 46.45 14.68 46.56C14.79 46.56 14.89 46.56 15 46.56C15 46.87 15 47.18 15 47.5C15.2 47.5 15.41 47.5 15.62 47.5C15.62 48.32 15.62 49.15 15.62 50C15.83 50 16.03 50 16.25 50C16.28 50.69 16.3 51.38 16.33 52.08C16.35 52.37 16.35 52.37 16.36 52.67C16.37 52.86 16.37 53.05 16.38 53.25C16.39 53.42 16.4 53.59 16.4 53.77C16.4 54.21 16.4 54.21 16.25 54.68C16.14 54.68 16.04 54.68 15.93 54.68C15.93 54.79 15.93 54.89 15.93 55C16.45 55 16.96 55 17.5 55C17.5 55.41 17.5 55.82 17.5 56.25C17.91 56.25 18.32 56.25 18.75 56.25C18.78 56.78 18.8 57.32 18.83 57.86C18.84 58.01 18.85 58.16 18.86 58.32C18.92 59.47 18.92 59.47 18.75 60C19.16 60 19.57 60 20 60C20 60.41 20 60.82 20 61.25C20.1 61.25 20.2 61.25 20.31 61.25C20.31 61.35 20.31 61.45 20.31 61.56C20.2 61.56 20.1 61.56 20 61.56C20.07 61.79 20.07 61.79 20.15 62.03C20.14 62.53 20.12 63.03 20.08 63.54C20.07 63.68 20.07 63.82 20.06 63.96C20.04 64.31 20.02 64.65 20 65C20.2 65 20.41 65 20.62 65C20.62 65.1 20.62 65.2 20.62 65.31C20.83 65.31 21.03 65.31 21.25 65.31C21.35 66.72 21.42 68.11 21.4 69.53C21.45 69.63 21.5 69.73 21.56 69.84C21.82 69.89 22.07 69.94 22.34 70C22.44 69.79 22.55 69.58 22.65 69.37C22.7 69.47 22.75 69.58 22.81 69.68C22.91 69.68 23.01 69.68 23.12 69.68C23.12 69.79 23.12 69.89 23.12 70C23.33 70 23.53 70 23.75 70C23.75 70.41 23.75 70.82 23.75 71.25C24.05 71.25 24.36 71.25 24.68 71.25C24.73 71.45 24.79 71.66 24.84 71.87C24.99 71.87 25.15 71.87 25.31 71.87C25.31 71.97 25.31 72.08 25.31 72.18C25.82 72.29 26.34 72.39 26.87 72.5C26.87 72.7 26.87 72.91 26.87 73.12C27.08 73.12 27.28 73.12 27.5 73.12C27.5 73.43 27.5 73.74 27.5 74.06C27.65 74.06 27.8 74.06 27.96 74.06C27.96 73.95 27.96 73.85 27.96 73.75C28.27 73.75 28.58 73.75 28.9 73.75C28.85 73.95 28.8 74.16 28.75 74.37C28.82 74.6 28.82 74.6 28.9 74.84C29.12 74.89 29.35 74.94 29.58 74.99C30.71 75.24 30.71 75.24 31.25 75.78C31.25 75.88 31.25 75.98 31.25 76.09C28.4 75.76 25.31 73.58 23.12 71.87C22.92 71.72 22.92 71.72 22.72 71.56C21.78 70.82 20.87 70.04 20 69.21C19.78 69.01 19.78 69.01 19.55 68.8C13.21 62.7 10.03 53.5 10.08 44.84C10.08 44.68 10.08 44.52 10.08 44.35C10.09 41.77 10.24 39.25 10.78 36.71C10.82 36.5 10.82 36.5 10.86 36.28C11.96 31.14 14.24 26.31 17.5 22.18C17.6 22.05 17.7 21.91 17.81 21.77C19.33 19.83 21.15 18.03 23.12 16.56C23.27 16.44 23.42 16.33 23.58 16.22C28.13 12.95 33.43 11.07 39.06 11.25Z" fill="#AA80CA" fill-opacity="1.000000" fill-rule="nonzero"/>
		<path id="path" d="M25 31.25C25.05 32.28 25.1 33.31 25.15 34.37C25.52 34.05 25.52 34.05 25.62 33.43C25.83 33.43 26.03 33.43 26.25 33.43C26.25 33.12 26.25 32.81 26.25 32.5C26.14 32.5 26.04 32.5 25.93 32.5C26.04 32.08 26.14 31.66 26.25 31.25C26.66 31.25 27.07 31.25 27.5 31.25C27.5 31.66 27.5 32.07 27.5 32.5C27.6 32.5 27.7 32.5 27.81 32.5C27.73 32.72 27.65 32.94 27.57 33.17C27.25 34.23 27.13 35.35 27.63 36.36C27.85 36.79 28.06 37.22 28.28 37.65C28.48 37.75 28.69 37.86 28.9 37.96C29.11 38.07 29.32 38.18 29.54 38.29C30.36 38.66 31.13 38.7 32.03 38.75C31.97 38.9 31.92 39.05 31.87 39.21C31.46 39.16 31.05 39.11 30.62 39.06C30.62 39.47 30.62 39.88 30.62 40.31C30.41 40.31 30.21 40.31 30 40.31C30 40.62 30 40.93 30 41.25C29.58 41.25 29.17 41.25 28.75 41.25C28.75 42.48 28.75 43.72 28.75 45C28.44 45 28.13 45 27.81 45C27.81 45.41 27.81 45.82 27.81 46.25C27.5 46.25 27.19 46.25 26.87 46.25C26.87 46.66 26.87 47.07 26.87 47.5C27.49 47.5 28.11 47.5 28.75 47.5C28.75 47.39 28.75 47.29 28.75 47.18C28.85 47.18 28.95 47.18 29.06 47.18C29.06 47.49 29.06 47.8 29.06 48.12C29.26 48.12 29.47 48.12 29.68 48.12C29.68 48.22 29.68 48.33 29.68 48.43C29.79 48.43 29.89 48.43 30 48.43C30 49.36 30 50.29 30 51.25C30.41 51.25 30.82 51.25 31.25 51.25C31.25 51.76 31.25 52.28 31.25 52.81C31.35 52.81 31.45 52.81 31.56 52.81C31.56 53.53 31.56 54.25 31.56 55C31.87 55 32.18 55 32.5 55C32.5 54.58 32.5 54.17 32.5 53.75C32.91 53.75 33.32 53.75 33.75 53.75C33.82 54.98 33.82 54.98 33.9 56.25C34.26 56.25 34.62 56.25 35 56.25C35 56.66 35 57.07 35 57.5C34.79 57.5 34.58 57.5 34.37 57.5C34.37 57.91 34.37 58.32 34.37 58.75C34.58 58.75 34.78 58.75 35 58.75C35 59.16 35 59.57 35 60C34.79 60 34.58 60 34.37 60C34.37 60.1 34.37 60.2 34.37 60.31C34.47 60.31 34.58 60.31 34.68 60.31C34.68 60.62 34.68 60.93 34.68 61.25C35.2 61.25 35.71 61.25 36.25 61.25C36.25 62.07 36.25 62.9 36.25 63.75C35.83 63.75 35.42 63.75 35 63.75C35 64.16 35 64.57 35 65C33.76 65 32.52 65 31.25 65C31.25 65.41 31.25 65.82 31.25 66.25C30.83 66.25 30.42 66.25 30 66.25C30 65.83 30 65.42 30 65C29.58 65 29.17 65 28.75 65C28.75 64.58 28.75 64.17 28.75 63.75C28.33 63.75 27.92 63.75 27.5 63.75C27.5 63.33 27.5 62.92 27.5 62.5C26.67 62.5 25.85 62.5 25 62.5C25 61.67 25 60.85 25 60C24.58 60 24.17 60 23.75 60C23.75 59.17 23.75 58.35 23.75 57.5C23.33 57.5 22.92 57.5 22.5 57.5C22.5 56.67 22.5 55.85 22.5 55C22.08 55 21.67 55 21.25 55C21.25 54.07 21.25 53.14 21.25 52.18C21.35 52.18 21.45 52.18 21.56 52.18C21.56 52.08 21.56 51.98 21.56 51.87C21.45 51.87 21.35 51.87 21.25 51.87C21.25 50.01 21.25 48.16 21.25 46.25C20.83 46.25 20.42 46.25 20 46.25C20 44.9 20 43.56 20 42.18C20.1 42.18 20.2 42.18 20.31 42.18C20.31 41.98 20.31 41.77 20.31 41.56C20.41 41.56 20.51 41.56 20.62 41.56C20.62 41.45 20.62 41.35 20.62 41.25C20.41 41.25 20.21 41.25 20 41.25C20 40.01 20 38.77 20 37.5C20.41 37.5 20.82 37.5 21.25 37.5C21.25 36.72 21.25 35.95 21.25 35.15C21.4 35 21.4 35 22.5 35C22.55 34.79 22.6 34.58 22.65 34.37C23.01 34.37 23.37 34.37 23.75 34.37C23.75 34.16 23.75 33.96 23.75 33.75C23.33 33.75 22.92 33.75 22.5 33.75C22.5 33.33 22.5 32.92 22.5 32.5C22.91 32.5 23.32 32.5 23.75 32.5C23.75 32.13 23.75 31.77 23.75 31.4C23.9 31.25 23.9 31.25 25 31.25Z" fill="#6C2FAC" fill-opacity="1.000000" fill-rule="nonzero"/>
		<path id="path" d="M31.25 17.5C31.25 18.32 31.25 19.15 31.25 20C32.42 19.98 32.42 19.98 32.81 19.53C32.65 19.45 32.65 19.45 32.5 19.37C32.5 19.27 32.5 19.16 32.5 19.06C32.95 18.86 33.24 18.75 33.75 18.75C33.75 19.16 33.75 19.57 33.75 20C34.16 20 34.57 20 35 20C35 20.82 35 21.65 35 22.5C35.1 22.5 35.2 22.5 35.31 22.5C35.31 22.6 35.31 22.7 35.31 22.81C35.41 22.81 35.51 22.81 35.62 22.81C35.62 23.12 35.62 23.43 35.62 23.75C35.83 23.75 36.03 23.75 36.25 23.75C36.25 24.16 36.25 24.57 36.25 25C35.11 25 33.98 25 32.81 25C32.81 25.1 32.81 25.2 32.81 25.31C32.91 25.31 33.01 25.31 33.12 25.31C33.12 25.62 33.12 25.93 33.12 26.25C33.33 26.25 33.53 26.25 33.75 26.25C33.75 27.07 33.75 27.9 33.75 28.75C32.92 28.75 32.09 28.75 31.25 28.75C31.25 28.38 31.25 28.02 31.25 27.65C30.83 27.6 30.42 27.55 30 27.5C30 26.67 30 25.85 30 25C29.27 25 28.55 25 27.81 25C27.81 24.79 27.81 24.58 27.81 24.37C27.7 24.37 27.6 24.37 27.5 24.37C27.5 23.8 27.5 23.24 27.5 22.65C26.67 22.6 25.85 22.55 25 22.5C25 22.6 25 22.7 25 22.81C24.89 22.81 24.79 22.81 24.68 22.81C24.68 23.01 24.68 23.22 24.68 23.43C24.42 23.59 24.17 23.74 23.9 23.9C23.9 24.07 23.9 24.24 23.91 24.41C23.91 24.63 23.91 24.85 23.91 25.08C23.91 25.3 23.91 25.52 23.92 25.75C23.9 26.34 23.84 26.91 23.75 27.5C23.33 27.5 22.92 27.5 22.5 27.5C22.5 27.08 22.5 26.67 22.5 26.25C21.72 26.3 20.95 26.35 20.15 26.4C20.15 26.56 20.15 26.71 20.15 26.87C20.31 26.95 20.31 26.95 20.46 27.03C20.36 27.18 20.26 27.34 20.15 27.5C19.98 29.58 19.98 31.65 20 33.75C19.58 33.75 19.17 33.75 18.75 33.75C18.75 34.16 18.75 34.57 18.75 35C19.16 35 19.57 35 20 35C20 35.41 20 35.82 20 36.25C19.22 36.3 18.45 36.35 17.65 36.4C17.64 36.95 17.64 36.95 17.62 37.51C17.61 37.99 17.6 38.47 17.58 38.95C17.58 39.19 17.57 39.43 17.56 39.68C17.56 39.91 17.55 40.15 17.54 40.38C17.54 40.6 17.53 40.81 17.53 41.03C17.5 41.56 17.5 41.56 17.34 42.03C17.39 42.08 17.44 42.13 17.5 42.18C17.71 46.62 17.71 46.62 17.5 48.75C17.5 48.85 17.5 48.95 17.5 49.06C17.5 49.37 17.5 49.68 17.5 50C17.8 50 18.11 50 18.43 50C18.43 50.1 18.43 50.2 18.43 50.31C18.54 50.31 18.64 50.31 18.75 50.31C18.75 51.85 18.75 53.4 18.75 55C19.16 55 19.57 55 20 55C20 56.23 20 57.47 20 58.75C20.41 58.75 20.82 58.75 21.25 58.75C21.28 59.07 21.3 59.4 21.33 59.73C21.36 60.01 21.36 60.01 21.38 60.29C21.4 60.78 21.4 60.78 21.25 61.25C22.07 61.25 22.9 61.25 23.75 61.25C23.75 62.07 23.75 62.9 23.75 63.75C24.67 63.75 25.6 63.75 26.56 63.75C26.56 63.85 26.56 63.95 26.56 64.06C26.45 64.06 26.35 64.06 26.25 64.06C26.25 64.16 26.25 64.26 26.25 64.37C26.35 64.37 26.45 64.37 26.56 64.37C26.56 64.58 26.56 64.78 26.56 65C26.45 65 26.35 65 26.25 65C26.25 65.41 26.25 65.82 26.25 66.25C26.66 66.25 27.07 66.25 27.5 66.25C27.5 67.07 27.5 67.9 27.5 68.75C27.8 68.75 28.11 68.75 28.43 68.75C28.54 69.16 28.64 69.57 28.75 70C29.57 70 30.4 70 31.25 70C31.25 70.82 31.25 71.65 31.25 72.5C32.07 72.5 32.9 72.5 33.75 72.5C33.75 72.91 33.75 73.32 33.75 73.75C34.16 73.75 34.57 73.75 35 73.75C35 74.16 35 74.57 35 75C35.82 75 36.65 75 37.5 75C37.5 75.72 37.5 76.44 37.5 77.18C39.3 77.13 41.1 77.08 42.96 77.03C42.96 77.13 42.96 77.23 42.96 77.34C38.98 77.95 35.08 77.32 31.25 76.25C31.25 76.09 31.25 75.94 31.25 75.78C31.09 75.72 30.94 75.67 30.78 75.62C30.78 75.52 30.78 75.41 30.78 75.31C30.16 75.2 29.54 75.1 28.9 75C28.59 74.37 28.59 74.37 28.75 73.9C28.49 73.85 28.23 73.8 27.96 73.75C27.96 73.85 27.96 73.95 27.96 74.06C27.81 74.06 27.65 74.06 27.5 74.06C27.5 73.75 27.5 73.44 27.5 73.12C27.29 73.12 27.08 73.12 26.87 73.12C26.87 72.91 26.87 72.71 26.87 72.5C26.46 72.5 26.05 72.5 25.62 72.5C25.52 72.29 25.41 72.08 25.31 71.87C25.15 71.87 25 71.87 24.84 71.87C24.79 71.66 24.74 71.46 24.68 71.25C24.37 71.25 24.06 71.25 23.75 71.25C23.75 70.83 23.75 70.42 23.75 70C23.54 70 23.33 70 23.12 70C23.12 69.89 23.12 69.79 23.12 69.68C22.91 69.68 22.71 69.68 22.5 69.68C22.44 69.79 22.39 69.89 22.34 70C22.08 70 21.82 70 21.56 70C20.69 68.69 21.25 66.87 21.25 65.31C21.04 65.31 20.83 65.31 20.62 65.31C20.62 65.2 20.62 65.1 20.62 65C20.41 65 20.21 65 20 65C20 63.86 20 62.73 20 61.56C20.1 61.56 20.2 61.56 20.31 61.56C20.31 61.45 20.31 61.35 20.31 61.25C20.2 61.25 20.1 61.25 20 61.25C20 60.83 20 60.42 20 60C19.79 60.05 19.58 60.1 19.37 60.15C19.16 60.1 18.96 60.05 18.75 60C18.75 58.76 18.75 57.52 18.75 56.25C18.33 56.25 17.92 56.25 17.5 56.25C17.5 55.83 17.5 55.42 17.5 55C16.98 55 16.46 55 15.93 55C15.93 54.89 15.93 54.79 15.93 54.68C16.04 54.68 16.14 54.68 16.25 54.68C16.25 53.14 16.25 51.59 16.25 50C16.04 50 15.83 50 15.62 50C15.62 49.17 15.62 48.35 15.62 47.5C15.41 47.5 15.21 47.5 15 47.5C15 47.19 15 46.88 15 46.56C14.89 46.56 14.79 46.56 14.68 46.56C14.68 46.45 14.68 46.35 14.68 46.25C14.79 46.25 14.89 46.25 15 46.25C15 45.32 15 44.39 15 43.43C15.1 43.43 15.2 43.43 15.31 43.43C15.38 43.12 15.38 43.12 15.46 42.81C15.54 42.65 15.54 42.65 15.62 42.5C15.41 42.5 15.21 42.5 15 42.5C15 40.84 15 39.2 15 37.5C15.41 37.5 15.82 37.5 16.25 37.5C16.25 36.98 16.25 36.46 16.25 35.93C16.14 35.88 16.04 35.83 15.93 35.78C16.01 35.62 16.01 35.62 16.09 35.46C16.28 34.88 16.27 34.36 16.25 33.75C16.45 33.75 16.66 33.75 16.87 33.75C16.87 33.33 16.87 32.92 16.87 32.5C17.08 32.5 17.28 32.5 17.5 32.5C17.5 31.72 17.5 30.95 17.5 30.15C17.65 30 17.65 30 18.75 30C18.75 29.63 18.75 29.27 18.75 28.9C19.05 28.82 19.05 28.82 19.37 28.75C19.37 28.18 19.37 27.61 19.37 27.03C19.44 26.92 19.52 26.81 19.59 26.7C19.87 26.18 19.94 25.74 20 25.15C20.15 25 20.15 25 21.25 25C21.25 24.58 21.25 24.17 21.25 23.75C21.66 23.75 22.07 23.75 22.5 23.75C22.5 23.64 22.5 23.54 22.5 23.43C22.6 23.43 22.7 23.43 22.81 23.43C22.81 23.17 22.81 22.92 22.81 22.65C22.96 22.5 22.96 22.5 23.75 22.5C23.75 22.08 23.75 21.67 23.75 21.25C24.16 21.25 24.57 21.25 25 21.25C25 20.83 25 20.42 25 20C25.41 20 25.82 20 26.25 20C26.25 19.63 26.25 19.27 26.25 18.9C26.4 18.75 26.4 18.75 27.5 18.75C27.5 18.44 27.5 18.13 27.5 17.81C28.38 16.92 29.99 17.5 31.25 17.5Z" fill="#8A54BD" fill-opacity="1.000000" fill-rule="nonzero"/>
		<path id="path" d="M67.5 36.25C67.91 36.25 68.32 36.25 68.75 36.25C68.75 37.59 68.75 38.93 68.75 40.31C68.64 40.31 68.54 40.31 68.43 40.31C68.43 40.41 68.43 40.51 68.43 40.62C68.33 40.62 68.23 40.62 68.12 40.62C68.12 40.72 68.12 40.83 68.12 40.93C68.02 40.93 67.91 40.93 67.81 40.93C67.65 41.71 67.65 41.71 67.5 42.5C67.7 42.5 67.91 42.5 68.12 42.5C68.07 42.7 68.02 42.91 67.96 43.12C68.02 43.33 68.07 43.53 68.12 43.75C68.33 43.75 68.53 43.75 68.75 43.75C68.75 43.85 68.75 43.95 68.75 44.06C68.64 44.06 68.54 44.06 68.43 44.06C68.43 44.16 68.43 44.26 68.43 44.37C68.33 44.37 68.23 44.37 68.12 44.37C68.02 44.58 67.91 44.78 67.81 45C67.7 45 67.6 45 67.5 45C67.5 45.61 67.5 46.23 67.5 46.87C66.56 47.34 66.56 47.34 66.4 47.34C66.35 47.8 66.3 48.27 66.25 48.75C66.09 48.8 65.94 48.85 65.78 48.9C65.72 49.26 65.67 49.62 65.62 50C65.47 50.05 65.31 50.1 65.15 50.15C65.1 50.51 65.05 50.87 65 51.25C64.94 51.3 64.89 51.35 64.84 51.4C64.79 51.76 64.74 52.12 64.68 52.5C64.63 52.55 64.58 52.6 64.53 52.65C64.47 53.01 64.42 53.37 64.37 53.75C64.22 53.8 64.06 53.85 63.9 53.9C63.85 54.67 63.8 55.45 63.75 56.25C63.07 56.3 62.4 56.35 61.71 56.4C61.32 56.74 61.32 56.74 61.25 57.5C60.83 57.5 60.42 57.5 60 57.5C60 57.91 60 58.32 60 58.75C59.89 58.75 59.79 58.75 59.68 58.75C59.68 58.85 59.68 58.95 59.68 59.06C59.58 59.06 59.48 59.06 59.37 59.06C59.37 58.95 59.37 58.85 59.37 58.75C59.22 58.8 59.06 58.85 58.9 58.9C58.85 59.26 58.8 59.62 58.75 60C58.13 60 57.51 60 56.87 60C56.72 60.61 56.72 60.61 56.56 61.25C55.62 61.25 54.68 61.25 53.75 61.25C53.75 61.35 53.75 61.45 53.75 61.56C53.64 61.56 53.54 61.56 53.43 61.56C53.43 61.76 53.43 61.97 53.43 62.18C53.12 62.18 52.81 62.18 52.5 62.18C52.5 61.87 52.5 61.56 52.5 61.25C52.13 61.3 51.77 61.35 51.4 61.4C51.35 61.66 51.3 61.92 51.25 62.18C50.94 62.18 50.63 62.18 50.31 62.18C50.31 61.87 50.31 61.56 50.31 61.25C50.2 61.25 50.1 61.25 50 61.25C50 61.86 50 62.48 50 63.12C49.58 63.12 49.17 63.12 48.75 63.12C48.75 63.22 48.75 63.33 48.75 63.43C48.33 63.43 47.92 63.43 47.5 63.43C47.5 63.54 47.5 63.64 47.5 63.75C46.67 63.75 45.85 63.75 45 63.75C45 63.33 45 62.92 45 62.5C44.17 62.5 43.35 62.5 42.5 62.5C42.5 62.91 42.5 63.32 42.5 63.75C42.19 63.75 41.88 63.75 41.56 63.75C41.56 63.54 41.56 63.33 41.56 63.12C41.45 63.12 41.35 63.12 41.25 63.12C41.25 62.91 41.25 62.71 41.25 62.5C40.83 62.5 40.42 62.5 40 62.5C40 62.08 40 61.67 40 61.25C39.58 61.25 39.17 61.25 38.75 61.25C38.75 60.83 38.75 60.42 38.75 60C38.33 60 37.92 60 37.5 60C37.5 59.58 37.5 59.17 37.5 58.75C37.39 58.75 37.29 58.75 37.18 58.75C37.18 58.64 37.18 58.54 37.18 58.43C37.08 58.43 36.98 58.43 36.87 58.43C36.87 58.33 36.87 58.23 36.87 58.12C36.66 58.12 36.46 58.12 36.25 58.12C36.25 57.91 36.25 57.71 36.25 57.5C37.07 57.5 37.9 57.5 38.75 57.5C38.75 56.67 38.75 55.85 38.75 55C38.44 55.07 38.44 55.07 38.12 55.15C37.91 55.1 37.71 55.05 37.5 55C37.5 55.41 37.5 55.82 37.5 56.25C36.6 56.11 36.6 56.11 36.25 55.93C36.25 55.21 36.25 54.49 36.25 53.75C35.73 53.75 35.21 53.75 34.68 53.75C34.68 53.54 34.68 53.33 34.68 53.12C34.58 53.12 34.48 53.12 34.37 53.12C34.37 52.91 34.37 52.71 34.37 52.5C34.99 52.5 35.61 52.5 36.25 52.5C36.25 51.36 36.25 50.23 36.25 49.06C36.35 49.06 36.45 49.06 36.56 49.06C36.56 48.95 36.56 48.85 36.56 48.75C36.15 48.75 35.73 48.75 35.31 48.75C35.31 48.64 35.31 48.54 35.31 48.43C35.2 48.43 35.1 48.43 35 48.43C35 47.09 35 45.75 35 44.37C34.79 44.37 34.58 44.37 34.37 44.37C34.37 44.27 34.37 44.16 34.37 44.06C34.27 44.01 34.16 43.95 34.06 43.9C34.21 43.75 34.21 43.75 35 43.75C35 43.33 35 42.92 35 42.5C35.41 42.5 35.82 42.5 36.25 42.5C36.25 42.08 36.25 41.67 36.25 41.25C36.66 41.25 37.07 41.25 37.5 41.25C37.5 42.07 37.5 42.9 37.5 43.75C37.8 43.75 38.11 43.75 38.43 43.75C38.43 43.95 38.43 44.16 38.43 44.37C38.23 44.37 38.02 44.37 37.81 44.37C37.81 44.58 37.81 44.78 37.81 45C38.12 45 38.43 45 38.75 45C38.75 45.41 38.75 45.82 38.75 46.25C39.16 46.25 39.57 46.25 40 46.25C40 46.66 40 47.07 40 47.5C40.1 47.5 40.2 47.5 40.31 47.5C40.31 47.39 40.31 47.29 40.31 47.18C40.41 47.18 40.51 47.18 40.62 47.18C40.62 47.29 40.62 47.39 40.62 47.5C41.24 47.5 41.86 47.5 42.5 47.5C42.5 47.91 42.5 48.32 42.5 48.75C41.67 48.75 40.84 48.75 40 48.75C40 48.85 40 48.95 40 49.06C40.2 49.06 40.41 49.06 40.62 49.06C40.62 49.16 40.62 49.26 40.62 49.37C40.52 49.37 40.41 49.37 40.31 49.37C40.31 49.47 40.31 49.58 40.31 49.68C40.2 49.68 40.1 49.68 40 49.68C40 49.79 40 49.89 40 50C40.41 50 40.82 50 41.25 50C41.25 50.41 41.25 50.82 41.25 51.25C40.94 51.25 40.63 51.25 40.31 51.25C40.31 51.45 40.31 51.66 40.31 51.87C40.62 51.87 40.93 51.87 41.25 51.87C41.25 52.08 41.25 52.28 41.25 52.5C42.48 52.5 43.72 52.5 45 52.5C45 52.91 45 53.32 45 53.75C45.41 53.75 45.82 53.75 46.25 53.75C46.25 54.16 46.25 54.57 46.25 55C45.83 55 45.42 55 45 55C45 55.41 45 55.82 45 56.25C45.41 56.25 45.82 56.25 46.25 56.25C46.25 56.66 46.25 57.07 46.25 57.5C45.83 57.5 45.42 57.5 45 57.5C45 57.91 45 58.32 45 58.75C46.23 58.75 47.47 58.75 48.75 58.75C48.85 58.28 48.95 57.82 49.06 57.34C49.16 57.29 49.26 57.24 49.37 57.18C49.37 57.29 49.37 57.39 49.37 57.5C49.52 57.5 49.68 57.5 49.84 57.5C49.89 57.13 49.94 56.77 50 56.4C50.15 56.25 50.15 56.25 51.25 56.25C51.25 57.07 51.25 57.9 51.25 58.75C52.17 58.75 53.1 58.75 54.06 58.75C54.06 58.64 54.06 58.54 54.06 58.43C54.16 58.43 54.26 58.43 54.37 58.43C54.42 58.23 54.47 58.02 54.53 57.81C55.15 57.5 55.15 57.5 56.25 57.5C56.25 57.7 56.25 57.91 56.25 58.12C56.66 58.12 57.07 58.12 57.5 58.12C57.5 57.91 57.5 57.71 57.5 57.5C57.39 57.5 57.29 57.5 57.18 57.5C57.34 56.87 57.34 56.87 57.65 56.25C57.96 56.25 58.27 56.25 58.59 56.25C58.64 56.19 58.69 56.14 58.75 56.09C58.64 55.99 58.54 55.88 58.43 55.78C58.59 55.52 58.74 55.26 58.9 55C59.78 55 60.65 55 61.56 55C61.56 54.89 61.56 54.79 61.56 54.68C61.66 54.68 61.76 54.68 61.87 54.68C61.87 54.79 61.87 54.89 61.87 55C61.97 55 62.08 55 62.18 55C62.18 54.89 62.18 54.79 62.18 54.68C62.29 54.68 62.39 54.68 62.5 54.68C62.5 53.86 62.5 53.03 62.5 52.18C62.6 52.18 62.7 52.18 62.81 52.18C62.81 52.08 62.81 51.98 62.81 51.87C63.01 51.87 63.22 51.87 63.43 51.87C63.43 51.77 63.43 51.66 63.43 51.56C63.54 51.51 63.64 51.45 63.75 51.4C63.64 51.35 63.54 51.3 63.43 51.25C63.43 50.88 63.43 50.52 63.43 50.15C62.97 50.07 62.97 50.07 62.5 50C62.5 48.9 62.5 48.9 62.65 48.75C63.01 48.75 63.37 48.75 63.75 48.75C63.75 49.16 63.75 49.57 63.75 50C63.95 50 64.16 50 64.37 50C64.37 49.63 64.37 49.27 64.37 48.9C64.58 48.85 64.78 48.8 65 48.75C65 48.33 65 47.92 65 47.5C64.89 47.5 64.79 47.5 64.68 47.5C64.68 47.39 64.68 47.29 64.68 47.18C64.58 47.18 64.48 47.18 64.37 47.18C64.53 46.56 64.53 46.56 64.68 46.25C65.4 46.25 66.13 46.25 66.87 46.25C66.87 45.88 66.87 45.52 66.87 45.15C66.66 45.1 66.46 45.05 66.25 45C66.25 44.22 66.25 43.45 66.25 42.65C66.45 42.6 66.66 42.55 66.87 42.5C66.87 42.08 66.87 41.67 66.87 41.25C66.66 41.25 66.46 41.25 66.25 41.25C66.2 40.28 66.27 39.61 66.71 38.75C67.18 38.75 67.64 38.75 68.12 38.75C68.12 38.33 68.12 37.92 68.12 37.5C67.91 37.5 67.71 37.5 67.5 37.5C67.5 37.08 67.5 36.67 67.5 36.25Z" fill="#8140CC" fill-opacity="1.000000" fill-rule="nonzero"/>
		<path id="path" d="M55 20.62C55.41 20.62 55.82 20.62 56.25 20.62C56.25 20.83 56.25 21.03 56.25 21.25C57.48 21.25 58.72 21.25 60 21.25C60 22.07 60 22.9 60 23.75C60.41 23.75 60.82 23.75 61.25 23.75C61.32 24.36 61.32 24.36 61.4 25C61.56 25.23 61.56 25.23 61.71 25.46C61.66 25.72 61.61 25.98 61.56 26.25C61.76 26.25 61.97 26.25 62.18 26.25C62.18 26.55 62.18 26.86 62.18 27.18C62.29 27.18 62.39 27.18 62.5 27.18C62.5 27.29 62.5 27.39 62.5 27.5C62.08 27.5 61.67 27.5 61.25 27.5C61.26 27.62 61.27 27.75 61.28 27.88C61.39 29.03 61.38 30.09 61.25 31.25C60.83 31.25 60.42 31.25 60 31.25C60 32.07 60 32.9 60 33.75C59.22 33.8 58.45 33.85 57.65 33.9C57.6 34.26 57.55 34.62 57.5 35C57.91 35 58.32 35 58.75 35C58.75 35.41 58.75 35.82 58.75 36.25C57.97 36.3 57.2 36.35 56.4 36.4C56.35 36.76 56.3 37.12 56.25 37.5C56.14 37.5 56.04 37.5 55.93 37.5C55.93 37.7 55.93 37.91 55.93 38.12C55.83 38.12 55.73 38.12 55.62 38.12C55.62 38.02 55.62 37.91 55.62 37.81C55.41 37.7 55.21 37.6 55 37.5C55 37.8 55 38.11 55 38.43C54.89 38.43 54.79 38.43 54.68 38.43C54.68 38.54 54.68 38.64 54.68 38.75C53.14 38.75 51.59 38.75 50 38.75C50 38.33 50 37.92 50 37.5C49.58 37.5 49.17 37.5 48.75 37.5C48.75 37.08 48.75 36.67 48.75 36.25C48.33 36.25 47.92 36.25 47.5 36.25C47.5 32.95 47.5 29.65 47.5 26.25C47.19 26.25 46.88 26.25 46.56 26.25C46.25 25.93 46.25 25.93 46.25 23.9C46.4 23.75 46.4 23.75 47.5 23.59C47.5 23.28 47.5 22.97 47.5 22.65C48.09 22.06 49.16 22.5 50 22.5C50 22.08 50 21.67 50 21.25C51.65 21.25 53.3 21.25 55 21.25C55 21.04 55 20.83 55 20.62Z" fill="#BA84F0" fill-opacity="1.000000" fill-rule="nonzero"/>
		<path id="path" d="M25 22.5C25.87 22.5 26.75 22.5 27.65 22.5C27.6 23.11 27.55 23.73 27.5 24.37C27.6 24.37 27.7 24.37 27.81 24.37C27.81 24.58 27.81 24.78 27.81 25C28.53 25 29.25 25 30 25C30 25.82 30 26.65 30 27.5C30.46 27.5 30.92 27.5 31.4 27.5C31.35 27.91 31.3 28.32 31.25 28.75C31.66 28.75 32.07 28.75 32.5 28.75C32.5 29.16 32.5 29.57 32.5 30C32.91 30 33.32 30 33.75 30C33.75 30.36 33.75 30.72 33.75 31.09C34.16 31.14 34.57 31.19 35 31.25C35 32.12 35 33 35 33.9C34.68 33.43 34.68 33.43 34.43 32.85C33.93 31.95 33.3 31.38 32.43 30.86C31.2 30.59 30.14 30.79 29.06 31.4C28.65 31.74 28.32 32.09 27.96 32.5C27.81 32.5 27.65 32.5 27.5 32.5C27.5 32.08 27.5 31.67 27.5 31.25C27.08 31.25 26.67 31.25 26.25 31.25C26.22 31.36 26.2 31.48 26.18 31.61C26.09 32.03 26.09 32.03 25.93 32.5C26.04 32.5 26.14 32.5 26.25 32.5C26.25 32.8 26.25 33.11 26.25 33.43C26.04 33.43 25.83 33.43 25.62 33.43C25.57 33.69 25.52 33.95 25.46 34.21C25.31 34.32 25.15 34.42 25 34.53C25 33.44 25 32.36 25 31.25C24.45 31.32 24.45 31.32 23.9 31.4C23.85 31.76 23.8 32.12 23.75 32.5C23.33 32.5 22.92 32.5 22.5 32.5C22.5 32.91 22.5 33.32 22.5 33.75C22.91 33.75 23.32 33.75 23.75 33.75C23.75 33.95 23.75 34.16 23.75 34.37C23.2 34.45 23.2 34.45 22.65 34.53C22.57 34.76 22.57 34.76 22.5 35C21.95 35.07 21.95 35.07 21.4 35.15C21.35 35.92 21.3 36.7 21.25 37.5C20.83 37.5 20.42 37.5 20 37.5C20.01 37.74 20.01 37.74 20.03 38C20.19 40.19 20.19 40.19 20 41.25C20.2 41.25 20.41 41.25 20.62 41.25C20.62 41.35 20.62 41.45 20.62 41.56C20.52 41.56 20.41 41.56 20.31 41.56C20.31 41.76 20.31 41.97 20.31 42.18C20.2 42.18 20.1 42.18 20 42.18C20.01 42.48 20.01 42.48 20.03 42.79C20.05 43.06 20.07 43.33 20.08 43.6C20.09 43.73 20.1 43.86 20.11 44C20.15 44.77 20.13 45.48 20 46.25C20.41 46.25 20.82 46.25 21.25 46.25C21.25 48.1 21.25 49.96 21.25 51.87C21.35 51.87 21.45 51.87 21.56 51.87C21.56 51.97 21.56 52.08 21.56 52.18C21.45 52.18 21.35 52.18 21.25 52.18C21.25 53.11 21.25 54.04 21.25 55C21.66 55 22.07 55 22.5 55C22.5 55.82 22.5 56.65 22.5 57.5C22.91 57.5 23.32 57.5 23.75 57.5C23.75 58.32 23.75 59.15 23.75 60C24.16 60 24.57 60 25 60C25 60.82 25 61.65 25 62.5C25.82 62.5 26.65 62.5 27.5 62.5C27.5 63.01 27.5 63.53 27.5 64.06C27.39 64.06 27.29 64.06 27.18 64.06C27.18 64.16 27.18 64.26 27.18 64.37C27.49 64.37 27.8 64.37 28.12 64.37C28.12 64.68 28.12 64.99 28.12 65.31C28.33 65.31 28.53 65.31 28.75 65.31C28.75 66.44 28.75 67.58 28.75 68.75C29.16 68.75 29.57 68.75 30 68.75C30 69.16 30 69.57 30 70C29.58 70 29.17 70 28.75 70C28.75 69.89 28.75 69.79 28.75 69.68C28.64 69.63 28.54 69.58 28.43 69.53C28.43 69.27 28.43 69.01 28.43 68.75C28.12 68.75 27.81 68.75 27.5 68.75C27.5 67.92 27.5 67.1 27.5 66.25C27.08 66.25 26.67 66.25 26.25 66.25C26.25 65.83 26.25 65.42 26.25 65C26.35 65 26.45 65 26.56 65C26.56 64.79 26.56 64.58 26.56 64.37C26.45 64.37 26.35 64.37 26.25 64.37C26.25 64.27 26.25 64.16 26.25 64.06C26.35 64.06 26.45 64.06 26.56 64.06C26.56 63.95 26.56 63.85 26.56 63.75C25.63 63.75 24.7 63.75 23.75 63.75C23.75 62.92 23.75 62.1 23.75 61.25C23.56 61.27 23.38 61.3 23.2 61.33C22.51 61.4 21.93 61.35 21.25 61.25C21.25 60.42 21.25 59.6 21.25 58.75C20.83 58.75 20.42 58.75 20 58.75C20 57.51 20 56.27 20 55C19.58 55 19.17 55 18.75 55C18.75 53.45 18.75 51.9 18.75 50.31C18.64 50.31 18.54 50.31 18.43 50.31C18.43 50.2 18.43 50.1 18.43 50C18.12 50 17.81 50 17.5 50C17.5 49.69 17.5 49.38 17.5 49.06C17.39 49.01 17.29 48.95 17.18 48.9C17.23 48.85 17.29 48.8 17.34 48.75C17.52 46.56 17.51 44.38 17.5 42.18C17.39 42.13 17.29 42.08 17.18 42.03C17.23 41.87 17.29 41.72 17.34 41.56C17.36 41.17 17.38 40.78 17.39 40.38C17.39 40.15 17.4 39.92 17.41 39.68C17.41 39.44 17.42 39.2 17.43 38.95C17.43 38.71 17.44 38.46 17.45 38.21C17.46 37.61 17.48 37 17.5 36.4C18.09 35.81 19.16 36.25 20 36.25C20 35.83 20 35.42 20 35C19.58 35 19.17 35 18.75 35C18.75 34.58 18.75 34.17 18.75 33.75C19.16 33.75 19.57 33.75 20 33.75C19.98 33.36 19.98 33.36 19.96 32.97C19.73 28.29 19.73 28.29 20.15 27.03C20.1 26.82 20.05 26.61 20 26.4C20.59 25.81 21.66 26.25 22.5 26.25C22.5 26.66 22.5 27.07 22.5 27.5C22.91 27.5 23.32 27.5 23.75 27.5C23.75 26.31 23.75 25.12 23.75 23.9C24.21 23.43 24.21 23.43 24.68 23.43C24.68 23.23 24.68 23.02 24.68 22.81C24.79 22.81 24.89 22.81 25 22.81C25 22.7 25 22.6 25 22.5Z" fill="#7C40AF" fill-opacity="1.000000" fill-rule="nonzero"/>
		<path id="path" d="M45 22.5C45 22.91 45 23.32 45 23.75C44.58 23.75 44.17 23.75 43.75 23.75C43.75 24.16 43.75 24.57 43.75 25C44.16 25 44.57 25 45 25C45 25.41 45 25.82 45 26.25C44.58 26.25 44.17 26.25 43.75 26.25C43.75 27.48 43.75 28.72 43.75 30C44.16 30 44.57 30 45 30C45 30.82 45 31.65 45 32.5C44.58 32.5 44.17 32.5 43.75 32.5C43.76 32.66 43.77 32.83 43.78 33C43.94 35.19 43.94 35.19 43.75 36.25C44.16 36.25 44.57 36.25 45 36.25C45 36.45 45 36.66 45 36.87C45.1 36.87 45.2 36.87 45.31 36.87C45.31 37.08 45.31 37.28 45.31 37.5C45.62 37.5 45.93 37.5 46.25 37.5C46.25 37.91 46.25 38.32 46.25 38.75C46.66 38.75 47.07 38.75 47.5 38.75C47.5 39.16 47.5 39.57 47.5 40C47.91 40 48.32 40 48.75 40C48.75 40.41 48.75 40.82 48.75 41.25C48.33 41.25 47.92 41.25 47.5 41.25C47.5 41.45 47.5 41.66 47.5 41.87C47.91 41.87 48.32 41.87 48.75 41.87C48.75 42.7 48.75 43.52 48.75 44.37C48.85 44.37 48.95 44.37 49.06 44.37C49.06 44.47 49.06 44.58 49.06 44.68C48.95 44.68 48.85 44.68 48.75 44.68C48.75 44.79 48.75 44.89 48.75 45C49.57 45 50.4 45 51.25 45C51.25 45.41 51.25 45.82 51.25 46.25C51.55 46.25 51.86 46.25 52.18 46.25C52.18 46.35 52.18 46.45 52.18 46.56C52.08 46.56 51.98 46.56 51.87 46.56C51.87 46.66 51.87 46.76 51.87 46.87C51.97 46.87 52.08 46.87 52.18 46.87C52.18 46.97 52.18 47.08 52.18 47.18C52.08 47.18 51.98 47.18 51.87 47.18C51.87 47.29 51.87 47.39 51.87 47.5C52.08 47.5 52.28 47.5 52.5 47.5C52.5 47.08 52.5 46.67 52.5 46.25C53.32 46.25 54.15 46.25 55 46.25C55 47.07 55 47.9 55 48.75C55.41 48.75 55.82 48.75 56.25 48.75C56.25 49.16 56.25 49.57 56.25 50C55.47 50.05 54.7 50.1 53.9 50.15C53.85 50.51 53.8 50.87 53.75 51.25C53.38 51.3 53.02 51.35 52.65 51.4C52.6 51.76 52.55 52.12 52.5 52.5C52.08 52.5 51.67 52.5 51.25 52.5C51.25 52.08 51.25 51.67 51.25 51.25C50.83 51.25 50.42 51.25 50 51.25C50 50.83 50 50.42 50 50C49.63 50.05 49.27 50.1 48.9 50.15C48.85 50.51 48.8 50.87 48.75 51.25C48.33 51.25 47.92 51.25 47.5 51.25C47.5 51.14 47.5 51.04 47.5 50.93C47.39 50.93 47.29 50.93 47.18 50.93C47.18 50.73 47.18 50.52 47.18 50.31C47.29 50.31 47.39 50.31 47.5 50.31C47.5 50.2 47.5 50.1 47.5 50C47.29 50 47.08 50 46.87 50C46.87 50.1 46.87 50.2 46.87 50.31C46.77 50.31 46.66 50.31 46.56 50.31C46.56 50.2 46.56 50.1 46.56 50C46.45 50 46.35 50 46.25 50C46.25 49.58 46.25 49.17 46.25 48.75C46.66 48.75 47.07 48.75 47.5 48.75C47.5 48.33 47.5 47.92 47.5 47.5C47.08 47.5 46.67 47.5 46.25 47.5C46.25 46.67 46.25 45.85 46.25 45C45.63 45 45.01 45 44.37 45C44.37 44.89 44.37 44.79 44.37 44.68C44.16 44.68 43.96 44.68 43.75 44.68C43.75 43.55 43.75 42.41 43.75 41.25C43.2 41.32 43.2 41.32 42.65 41.4C42.65 41.81 42.65 42.23 42.65 42.65C42.55 42.86 42.45 43.06 42.34 43.28C42.39 43.43 42.44 43.59 42.5 43.75C41.67 43.75 40.84 43.75 40 43.75C40 42.92 40 42.1 40 41.25C40.41 41.25 40.82 41.25 41.25 41.25C41.25 40.83 41.25 40.42 41.25 40C40.83 40 40.42 40 40 40C40 39.58 40 39.17 40 38.75C40.41 38.75 40.82 38.75 41.25 38.75C41.19 38.28 41.14 37.82 41.09 37.34C40.93 37.39 40.78 37.45 40.62 37.5C39.93 37.67 39.43 37.62 38.75 37.5C38.75 37.19 38.75 36.88 38.75 36.56C38.85 36.56 38.95 36.56 39.06 36.56C39.06 36.45 39.06 36.35 39.06 36.25C38.44 36.25 37.82 36.25 37.18 36.25C37.23 36.04 37.29 35.83 37.34 35.62C37.39 35.72 37.44 35.83 37.5 35.93C37.8 35.93 38.11 35.93 38.43 35.93C38.43 35.83 38.43 35.73 38.43 35.62C38.33 35.62 38.23 35.62 38.12 35.62C38.12 35.52 38.12 35.41 38.12 35.31C38.02 35.31 37.91 35.31 37.81 35.31C37.47 34.29 37.47 34.29 37.65 33.75C38.01 33.75 38.37 33.75 38.75 33.75C38.75 33.33 38.75 32.92 38.75 32.5C39.57 32.5 40.4 32.5 41.25 32.5C41.25 32.08 41.25 31.67 41.25 31.25C40.42 31.25 39.59 31.25 38.75 31.25C38.75 30.83 38.75 30.42 38.75 30C39.16 30 39.57 30 40 30C40 29.58 40 29.17 40 28.75C39.69 28.75 39.38 28.75 39.06 28.75C39.06 28.64 39.06 28.54 39.06 28.43C38.85 28.43 38.65 28.43 38.43 28.43C38.43 28.33 38.43 28.23 38.43 28.12C38.64 28.02 38.84 27.91 39.06 27.81C39.11 27.7 39.16 27.6 39.21 27.5C39.88 27.5 40.55 27.5 41.25 27.5C41.25 27.08 41.25 26.67 41.25 26.25C41.14 26.25 41.04 26.25 40.93 26.25C40.93 26.14 40.93 26.04 40.93 25.93C41.04 25.93 41.14 25.93 41.25 25.93C41.25 25.62 41.25 25.31 41.25 25C41.66 25 42.07 25 42.5 25C42.5 24.63 42.5 24.27 42.5 23.9C43.04 23.67 43.04 23.67 43.59 23.43C43.64 23.23 43.69 23.02 43.75 22.81C43.64 22.76 43.54 22.7 43.43 22.65C43.59 22.5 43.59 22.5 45 22.5Z" fill="#9F5EE2" fill-opacity="1.000000" fill-rule="nonzero"/>
		<path id="path" d="M71.4 6.4C71.9 6.9 71.58 8.96 71.56 9.68C71.33 12.46 69.89 14.92 67.81 16.71C65.8 18.24 63.38 18.63 60.93 18.59C60.21 18.26 59.66 17.85 59.06 17.34C58.83 17.26 58.83 17.26 58.59 17.18C58.49 16.98 58.38 16.77 58.28 16.56C58.06 16.44 57.85 16.33 57.63 16.21C57.05 15.88 56.48 15.53 55.93 15.15C55.93 15.05 55.93 14.95 55.93 14.84C55.82 14.82 55.71 14.81 55.59 14.79C55.11 14.67 54.78 14.48 54.37 14.21C54.5 12.14 55.49 10.38 57.08 9.04C59.7 7.16 62.49 7.12 65.61 7.1C67.38 7.08 69.83 6.09 71.4 6.4Z" fill="#B4D550" fill-opacity="1.000000" fill-rule="nonzero"/>
		<path id="path" d="M42.5 13.75C42.5 14.16 42.5 14.57 42.5 15C42.91 15 43.32 15 43.75 15C43.75 15.82 43.75 16.65 43.75 17.5C43.33 17.5 42.92 17.5 42.5 17.5C42.5 17.91 42.5 18.32 42.5 18.75C43.32 18.75 44.15 18.75 45 18.75C45 19.57 45 20.4 45 21.25C44.17 21.25 43.35 21.25 42.5 21.25C42.51 21.51 42.51 21.51 42.53 21.79C42.56 22.14 42.56 22.14 42.58 22.5C42.61 22.86 42.61 22.86 42.63 23.21C42.65 23.83 42.6 24.39 42.5 25C42.08 25 41.67 25 41.25 25C41.25 25.3 41.25 25.61 41.25 25.93C41.14 25.93 41.04 25.93 40.93 25.93C40.93 26.04 40.93 26.14 40.93 26.25C41.04 26.25 41.14 26.25 41.25 26.25C41.25 26.66 41.25 27.07 41.25 27.5C40.24 27.57 40.24 27.57 39.21 27.65C39.14 27.88 39.14 27.88 39.06 28.12C38.85 28.12 38.65 28.12 38.43 28.12C38.43 28.22 38.43 28.33 38.43 28.43C38.64 28.43 38.84 28.43 39.06 28.43C39.06 28.54 39.06 28.64 39.06 28.75C38.36 28.82 38.36 28.82 37.65 28.9C37.6 29.37 37.55 29.83 37.5 30.31C37.39 30.31 37.29 30.31 37.18 30.31C37.18 30.2 37.18 30.1 37.18 30C36.87 30 36.56 30 36.25 30C36.25 29.17 36.25 28.35 36.25 27.5C36.04 27.5 35.83 27.5 35.62 27.5C35.62 27.39 35.62 27.29 35.62 27.18C35.52 27.18 35.41 27.18 35.31 27.18C35.31 27.29 35.31 27.39 35.31 27.5C35.2 27.5 35.1 27.5 35 27.5C35 27.39 35 27.29 35 27.18C34.89 27.18 34.79 27.18 34.68 27.18C34.68 26.87 34.68 26.56 34.68 26.25C34.58 26.25 34.48 26.25 34.37 26.25C34.37 26.09 34.37 25.94 34.37 25.78C34.27 25.72 34.16 25.67 34.06 25.62C34.06 25.52 34.06 25.41 34.06 25.31C33.95 25.31 33.85 25.31 33.75 25.31C33.75 25.2 33.75 25.1 33.75 25C34.57 25 35.4 25 36.25 25C36.25 24.58 36.25 24.17 36.25 23.75C36.04 23.75 35.83 23.75 35.62 23.75C35.62 23.44 35.62 23.13 35.62 22.81C35.52 22.81 35.41 22.81 35.31 22.81C35.31 22.7 35.31 22.6 35.31 22.5C35.2 22.5 35.1 22.5 35 22.5C35 21.67 35 20.85 35 20C34.58 20 34.17 20 33.75 20C33.75 19.58 33.75 19.17 33.75 18.75C33.54 18.85 33.33 18.95 33.12 19.06C32.91 19.06 32.71 19.06 32.5 19.06C32.5 19.16 32.5 19.26 32.5 19.37C32.65 19.42 32.8 19.47 32.96 19.53C32.5 20 32.5 20 31.25 20C31.25 19.17 31.25 18.35 31.25 17.5C31.66 17.5 32.07 17.5 32.5 17.5C32.5 17.13 32.5 16.77 32.5 16.4C32.64 16.23 32.64 16.23 32.79 16.05C33.15 15.61 33.15 15.61 33.43 15C33.95 15 34.46 15 35 15C35 14.63 35 14.27 35 13.9C36.76 12.13 39.99 13.75 42.5 13.75Z" fill="#9D54D5" fill-opacity="1.000000" fill-rule="nonzero"/>
		<path id="path" d="M37.71 11.24C37.96 11.24 38.22 11.24 38.48 11.24C38.67 11.24 38.86 11.24 39.06 11.25C38.95 11.3 38.85 11.35 38.75 11.4C38.75 11.76 38.75 12.12 38.75 12.5C38.38 12.55 38.02 12.6 37.65 12.65C37.6 13.01 37.55 13.37 37.5 13.75C36.72 13.8 35.95 13.85 35.15 13.9C35.1 14.26 35.05 14.62 35 15C34.48 15.05 33.96 15.1 33.43 15.15C33.37 15.33 33.37 15.33 33.31 15.51C33.12 15.93 33.12 15.93 32.65 16.4C32.6 16.76 32.55 17.12 32.5 17.5C30.95 17.55 29.4 17.6 27.81 17.65C27.7 18.01 27.6 18.37 27.5 18.75C26.95 18.82 26.95 18.82 26.4 18.9C26.35 19.26 26.3 19.62 26.25 20C25.83 20 25.42 20 25 20C25 20.41 25 20.82 25 21.25C24.58 21.25 24.17 21.25 23.75 21.25C23.75 21.66 23.75 22.07 23.75 22.5C23.49 22.55 23.23 22.6 22.96 22.65C22.91 22.91 22.86 23.17 22.81 23.43C22.7 23.43 22.6 23.43 22.5 23.43C22.5 23.54 22.5 23.64 22.5 23.75C22.08 23.75 21.67 23.75 21.25 23.75C21.25 24.16 21.25 24.57 21.25 25C20.7 25.07 20.7 25.07 20.15 25.15C20.13 25.4 20.13 25.4 20.1 25.65C20 26.23 19.86 26.55 19.53 27.03C19.47 27.59 19.42 28.16 19.37 28.75C19.22 28.8 19.06 28.85 18.9 28.9C18.85 29.26 18.8 29.62 18.75 30C18.2 30.07 18.2 30.07 17.65 30.15C17.6 30.92 17.55 31.7 17.5 32.5C17.29 32.5 17.08 32.5 16.87 32.5C16.87 32.91 16.87 33.32 16.87 33.75C16.66 33.75 16.46 33.75 16.25 33.75C16.3 34.21 16.35 34.67 16.4 35.15C16.25 35.46 16.25 35.46 16.09 35.78C16.14 35.83 16.19 35.88 16.25 35.93C16.25 36.45 16.25 36.96 16.25 37.5C15.83 37.5 15.42 37.5 15 37.5C15.02 37.7 15.05 37.91 15.08 38.13C15.14 38.8 15.12 39.34 15 40C14.37 40.15 14.37 40.15 14.06 40C14.06 39.69 14.06 39.38 14.06 39.06C14.16 39.06 14.26 39.06 14.37 39.06C14.37 38.54 14.37 38.03 14.37 37.5C14.27 37.5 14.16 37.5 14.06 37.5C14.01 37.65 13.95 37.8 13.9 37.96C13.85 37.96 13.8 37.96 13.75 37.96C13.75 37.45 13.75 36.93 13.75 36.4C14 36.25 14.26 36.09 14.53 35.93C14.6 35.78 14.6 35.78 14.68 35.62C14.79 35.62 14.89 35.62 15 35.62C15 35 15 34.38 15 33.75C14.27 33.75 13.55 33.75 12.81 33.75C12.81 32.65 12.81 32.65 12.96 32.5C13.63 32.5 14.3 32.5 15 32.5C15 32.13 15 31.77 15 31.4C15.15 31.25 15.15 31.25 16.25 31.25C16.25 30.06 16.25 28.87 16.25 27.65C16.4 27.5 16.4 27.5 17.5 27.5C17.5 26.72 17.5 25.95 17.5 25.15C17.65 25 17.65 25 18.75 25C18.74 24.83 18.74 24.67 18.73 24.51C18.73 24.3 18.73 24.09 18.73 23.87C18.72 23.66 18.72 23.46 18.71 23.24C18.74 22.7 18.82 22.35 19.06 21.87C19.37 21.87 19.68 21.87 20 21.87C20 21.3 20 20.74 20 20.15C20.15 20 20.15 20 21.25 20C21.25 19.58 21.25 19.17 21.25 18.75C21.55 18.75 21.86 18.75 22.18 18.75C22.18 18.64 22.18 18.54 22.18 18.43C22.29 18.43 22.39 18.43 22.5 18.43C22.5 18.17 22.5 17.92 22.5 17.65C22.65 17.5 22.65 17.5 23.75 17.5C23.75 17.13 23.75 16.77 23.75 16.4C24.05 16.3 24.36 16.2 24.68 16.09C24.76 15.86 24.76 15.86 24.84 15.62C24.92 15.93 24.92 15.93 25 16.25C25.82 16.25 26.65 16.25 27.5 16.25C27.5 15.47 27.5 14.7 27.5 13.9C29.98 12.56 32.55 11.89 35.31 11.4C35.46 11.37 35.62 11.34 35.78 11.31C36.42 11.22 37.06 11.23 37.71 11.24Z" fill="#9A68BD" fill-opacity="1.000000" fill-rule="nonzero"/>
		<path id="path" d="M13.75 41.25C14.16 41.25 14.57 41.25 15 41.25C15 41.66 15 42.07 15 42.5C15.2 42.5 15.41 42.5 15.62 42.5C15.52 42.8 15.41 43.11 15.31 43.43C15.2 43.43 15.1 43.43 15 43.43C15 44.36 15 45.29 15 46.25C14.89 46.25 14.79 46.25 14.68 46.25C14.68 46.35 14.68 46.45 14.68 46.56C14.79 46.56 14.89 46.56 15 46.56C15 46.87 15 47.18 15 47.5C15.2 47.5 15.41 47.5 15.62 47.5C15.62 48.32 15.62 49.15 15.62 50C15.83 50 16.03 50 16.25 50C16.28 50.69 16.3 51.38 16.33 52.08C16.34 52.27 16.35 52.47 16.36 52.67C16.37 52.86 16.37 53.05 16.38 53.25C16.39 53.42 16.4 53.59 16.4 53.77C16.4 54.21 16.4 54.21 16.25 54.68C16.14 54.68 16.04 54.68 15.93 54.68C15.93 54.79 15.93 54.89 15.93 55C16.45 55 16.96 55 17.5 55C17.5 55.41 17.5 55.82 17.5 56.25C17.91 56.25 18.32 56.25 18.75 56.25C18.78 56.78 18.8 57.32 18.83 57.86C18.85 58.09 18.85 58.09 18.86 58.32C18.92 59.47 18.92 59.47 18.75 60C19.16 60 19.57 60 20 60C20 60.41 20 60.82 20 61.25C20.1 61.25 20.2 61.25 20.31 61.25C20.31 61.35 20.31 61.45 20.31 61.56C20.2 61.56 20.1 61.56 20 61.56C20.05 61.71 20.1 61.87 20.15 62.03C20.14 62.53 20.12 63.03 20.08 63.54C20.07 63.68 20.07 63.82 20.06 63.96C20.04 64.31 20.02 64.65 20 65C20.2 65 20.41 65 20.62 65C20.62 65.1 20.62 65.2 20.62 65.31C20.83 65.31 21.03 65.31 21.25 65.31C21.35 66.72 21.42 68.11 21.4 69.53C21.45 69.63 21.5 69.73 21.56 69.84C21.82 69.89 22.07 69.94 22.34 70C22.44 69.79 22.55 69.58 22.65 69.37C22.7 69.47 22.75 69.58 22.81 69.68C22.91 69.68 23.01 69.68 23.12 69.68C23.12 69.79 23.12 69.89 23.12 70C23.33 70 23.53 70 23.75 70C23.75 70.41 23.75 70.82 23.75 71.25C24.05 71.25 24.36 71.25 24.68 71.25C24.73 71.45 24.79 71.66 24.84 71.87C24.99 71.87 25.15 71.87 25.31 71.87C25.31 71.97 25.31 72.08 25.31 72.18C25.82 72.29 26.34 72.39 26.87 72.5C26.87 72.7 26.87 72.91 26.87 73.12C27.08 73.12 27.28 73.12 27.5 73.12C27.5 73.43 27.5 73.74 27.5 74.06C27.65 74.06 27.8 74.06 27.96 74.06C27.96 73.95 27.96 73.85 27.96 73.75C28.27 73.75 28.58 73.75 28.9 73.75C28.85 73.95 28.8 74.16 28.75 74.37C28.8 74.52 28.85 74.68 28.9 74.84C29.12 74.89 29.35 74.94 29.58 74.99C30.71 75.24 30.71 75.24 31.25 75.78C31.25 75.88 31.25 75.98 31.25 76.09C28.4 75.76 25.31 73.58 23.12 71.87C22.92 71.72 22.92 71.72 22.72 71.56C17.3 67.31 17.3 67.31 16.87 65.15C16.56 64.76 16.56 64.76 16.25 64.37C16.25 63.75 16.25 63.13 16.25 62.5C15.88 62.5 15.52 62.5 15.15 62.5C13.97 61.32 15 59.16 15 57.5C14.58 57.5 14.17 57.5 13.75 57.5C13.75 53.37 13.75 49.25 13.75 45C13.33 45 12.92 45 12.5 45C12.5 44.63 12.5 44.27 12.5 43.9C12.93 43.81 13.3 43.75 13.75 43.75C13.75 42.92 13.75 42.1 13.75 41.25Z" fill="#9A6BC9" fill-opacity="1.000000" fill-rule="nonzero"/>
		<path id="path" d="M52.5 22.5C53.32 22.5 54.15 22.5 55 22.5C55 22.7 55 22.91 55 23.12C55.1 23.12 55.2 23.12 55.31 23.12C55.31 23.02 55.31 22.91 55.31 22.81C55.51 22.81 55.72 22.81 55.93 22.81C55.93 22.91 55.93 23.01 55.93 23.12C56.04 23.12 56.14 23.12 56.25 23.12C56.25 23.33 56.25 23.53 56.25 23.75C57.07 23.75 57.9 23.75 58.75 23.75C58.75 25.09 58.75 26.43 58.75 27.81C58.64 27.81 58.54 27.81 58.43 27.81C58.43 27.91 58.43 28.01 58.43 28.12C58.54 28.12 58.64 28.12 58.75 28.12C58.75 28.33 58.75 28.53 58.75 28.75C58.33 28.75 57.92 28.75 57.5 28.75C57.5 29.57 57.5 30.4 57.5 31.25C56.67 31.25 55.85 31.25 55 31.25C55 31.76 55 32.28 55 32.81C54.89 32.81 54.79 32.81 54.68 32.81C54.68 32.91 54.68 33.01 54.68 33.12C54.48 33.12 54.27 33.12 54.06 33.12C54.06 33.22 54.06 33.33 54.06 33.43C53.95 33.43 53.85 33.43 53.75 33.43C53.69 33.17 53.64 32.92 53.59 32.65C51.81 32.57 51.81 32.57 50 32.5C50 32.08 50 31.67 50 31.25C50.41 31.25 50.82 31.25 51.25 31.25C51.25 30.42 51.25 29.6 51.25 28.75C50.83 28.75 50.42 28.75 50 28.75C50 27.92 50 27.1 50 26.25C49.58 26.25 49.17 26.25 48.75 26.25C48.75 25.15 48.75 25.15 49.21 24.68C49.37 24.68 49.52 24.68 49.68 24.68C49.68 24.48 49.68 24.27 49.68 24.06C49.79 24.06 49.89 24.06 50 24.06C50 24.37 50 24.68 50 25C50.41 25 50.82 25 51.25 25C51.25 24.58 51.25 24.17 51.25 23.75C51.66 23.75 52.07 23.75 52.5 23.75C52.5 23.33 52.5 22.92 52.5 22.5Z" fill="#C696F8" fill-opacity="1.000000" fill-rule="nonzero"/>
		<path id="path" d="M65.62 25.46C67.46 27.91 68.39 31.43 69.06 34.37C69.01 34.58 68.95 34.78 68.9 35C68.85 34.84 68.8 34.69 68.75 34.53C68.64 34.53 68.54 34.53 68.43 34.53C68.43 34.68 68.43 34.84 68.43 35C68.05 35.07 68.05 35.07 67.65 35.15C67.6 35.92 67.55 36.7 67.5 37.5C67.7 37.5 67.91 37.5 68.12 37.5C68.12 37.91 68.12 38.32 68.12 38.75C67.42 38.82 67.42 38.82 66.71 38.9C66.42 39.68 66.32 40.42 66.25 41.25C66.45 41.25 66.66 41.25 66.87 41.25C66.87 41.66 66.87 42.07 66.87 42.5C66.72 42.55 66.56 42.6 66.4 42.65C66.35 43.42 66.3 44.2 66.25 45C66.5 45 66.76 45 67.03 45C66.97 45.41 66.92 45.82 66.87 46.25C66.15 46.25 65.43 46.25 64.68 46.25C64.58 46.55 64.48 46.86 64.37 47.18C64.47 47.18 64.58 47.18 64.68 47.18C64.68 47.29 64.68 47.39 64.68 47.5C64.79 47.5 64.89 47.5 65 47.5C65 47.91 65 48.32 65 48.75C64.84 48.8 64.69 48.85 64.53 48.9C64.47 49.26 64.42 49.62 64.37 50C64.16 50 63.96 50 63.75 50C63.75 49.58 63.75 49.17 63.75 48.75C63.33 48.8 62.92 48.85 62.5 48.9C62.5 47.2 62.5 45.5 62.5 43.75C62.08 43.75 61.67 43.75 61.25 43.75C61.25 42.65 61.25 42.65 61.4 42.5C61.76 42.5 62.12 42.5 62.5 42.5C62.5 41.72 62.5 40.95 62.5 40.15C62.65 40 62.65 40 63.75 40C63.75 39.48 63.75 38.96 63.75 38.43C64.37 37.81 64.37 37.81 64.68 37.81C64.68 37.7 64.68 37.6 64.68 37.5C64.79 37.5 64.89 37.5 65 37.5C65 37.08 65 36.67 65 36.25C65.3 36.25 65.61 36.25 65.93 36.25C65.93 35.83 65.93 35.42 65.93 35C65.62 35 65.31 35 65 35C65 34.58 65 34.17 65 33.75C65.3 33.75 65.61 33.75 65.93 33.75C65.93 32.97 65.93 32.2 65.93 31.4C65.98 31.35 66.04 31.3 66.09 31.25C66.14 30.83 66.19 30.42 66.25 30C65.83 30 65.42 30 65 30C65 29.69 65 29.38 65 29.06C65.15 29.06 65.3 29.06 65.46 29.06C65.52 28.95 65.57 28.85 65.62 28.75C65.83 28.75 66.03 28.75 66.25 28.75C66.25 28.33 66.25 27.92 66.25 27.5C66.04 27.5 65.83 27.5 65.62 27.5C65.62 26.82 65.62 26.15 65.62 25.46Z" fill="#8E4FCD" fill-opacity="1.000000" fill-rule="nonzero"/>
		<path id="path" d="M61.25 32.5C61.66 32.5 62.07 32.5 62.5 32.5C62.5 34.15 62.5 35.8 62.5 37.5C62.08 37.5 61.67 37.5 61.25 37.5C61.25 38.32 61.25 39.15 61.25 40C60.83 40 60.42 40 60 40C60 40.92 60 41.85 60 42.81C59.89 42.81 59.79 42.81 59.68 42.81C59.68 42.7 59.68 42.6 59.68 42.5C59.58 42.5 59.48 42.5 59.37 42.5C59.37 42.6 59.37 42.7 59.37 42.81C59.27 42.81 59.16 42.81 59.06 42.81C59.06 43.01 59.06 43.22 59.06 43.43C58.95 43.43 58.85 43.43 58.75 43.43C58.75 44.26 58.75 45.08 58.75 45.93C58.64 45.93 58.54 45.93 58.43 45.93C58.43 46.04 58.43 46.14 58.43 46.25C57.71 46.25 56.99 46.25 56.25 46.25C56.25 46.66 56.25 47.07 56.25 47.5C55.83 47.5 55.42 47.5 55 47.5C55 47.08 55 46.67 55 46.25C54.17 46.25 53.35 46.25 52.5 46.25C52.5 46.66 52.5 47.07 52.5 47.5C52.29 47.5 52.08 47.5 51.87 47.5C51.87 47.39 51.87 47.29 51.87 47.18C51.97 47.18 52.08 47.18 52.18 47.18C52.18 47.08 52.18 46.98 52.18 46.87C52.08 46.87 51.98 46.87 51.87 46.87C51.87 46.77 51.87 46.66 51.87 46.56C51.97 46.56 52.08 46.56 52.18 46.56C52.18 46.45 52.18 46.35 52.18 46.25C51.87 46.25 51.56 46.25 51.25 46.25C51.25 45.83 51.25 45.42 51.25 45C50.42 45 49.6 45 48.75 45C48.75 44.89 48.75 44.79 48.75 44.68C48.85 44.68 48.95 44.68 49.06 44.68C49.06 44.58 49.06 44.48 49.06 44.37C48.95 44.37 48.85 44.37 48.75 44.37C48.75 43.55 48.75 42.72 48.75 41.87C48.33 41.87 47.92 41.87 47.5 41.87C47.5 41.66 47.5 41.46 47.5 41.25C48.32 41.25 49.15 41.25 50 41.25C50 41.66 50 42.07 50 42.5C50.41 42.5 50.82 42.5 51.25 42.5C51.25 42.91 51.25 43.32 51.25 43.75C51.66 43.75 52.07 43.75 52.5 43.75C52.5 43.33 52.5 42.92 52.5 42.5C53.73 42.5 54.97 42.5 56.25 42.5C56.25 42.08 56.25 41.67 56.25 41.25C56.66 41.25 57.07 41.25 57.5 41.25C57.5 40.88 57.5 40.52 57.5 40.15C57.65 40 57.65 40 58.75 40C58.75 39.58 58.75 39.17 58.75 38.75C58.33 38.75 57.92 38.75 57.5 38.75C57.5 38.33 57.5 37.92 57.5 37.5C58.32 37.5 59.15 37.5 60 37.5C60 36.67 60 35.84 60 35C60.41 35 60.82 35 61.25 35C61.25 34.17 61.25 33.34 61.25 32.5Z" fill="#A56AE7" fill-opacity="1.000000" fill-rule="nonzero"/>
		<path id="path" d="M37.5 11.09C43.71 11 49.9 11.22 55.31 14.68C55.62 14.76 55.62 14.76 55.93 14.84C55.93 14.94 55.93 15.05 55.93 15.15C56.04 15.19 56.15 15.22 56.25 15.26C56.83 15.52 57.3 15.87 57.81 16.25C58.01 16.35 58.22 16.45 58.43 16.56C58.48 16.76 58.54 16.97 58.59 17.18C58.8 17.23 59 17.29 59.21 17.34C59.53 17.55 59.53 17.55 59.85 17.81C60.41 18.29 60.41 18.29 60.93 18.43C61.87 19.68 61.87 19.68 61.87 20.15C61.41 20.07 61.41 20.07 60.93 20C60.93 19.89 60.93 19.79 60.93 19.68C60.73 19.63 60.52 19.58 60.31 19.53C60.2 19.47 60.1 19.42 60 19.37C60 19.27 60 19.16 60 19.06C59.84 19.06 59.69 19.06 59.53 19.06C59.53 18.95 59.53 18.85 59.53 18.75C58.96 18.75 58.39 18.75 57.81 18.75C57.5 18.43 57.5 18.43 57.5 17.5C56.95 17.57 56.95 17.57 56.4 17.65C56.35 18.01 56.3 18.37 56.25 18.75C55.42 18.75 54.6 18.75 53.75 18.75C53.75 18.23 53.75 17.71 53.75 17.18C53.64 17.18 53.54 17.18 53.43 17.18C53.43 17.08 53.43 16.98 53.43 16.87C53.12 16.87 52.81 16.87 52.5 16.87C52.5 16.77 52.5 16.66 52.5 16.56C52.8 16.56 53.11 16.56 53.43 16.56C53.43 16.35 53.43 16.15 53.43 15.93C53.12 15.93 52.81 15.93 52.5 15.93C52.5 15.73 52.5 15.52 52.5 15.31C52.39 15.31 52.29 15.31 52.18 15.31C52.18 15.2 52.18 15.1 52.18 15C52.08 15 51.98 15 51.87 15C51.87 14.69 51.87 14.38 51.87 14.06C51.66 14.06 51.46 14.06 51.25 14.06C51.25 14.16 51.25 14.26 51.25 14.37C50.83 14.37 50.42 14.37 50 14.37C50 14.58 50 14.78 50 15C48.65 15 47.31 15 45.93 15C45.93 14.89 45.93 14.79 45.93 14.68C45.73 14.68 45.52 14.68 45.31 14.68C45.31 14.79 45.31 14.89 45.31 15C45.2 15 45.1 15 45 15C45 14.58 45 14.17 45 13.75C44.86 13.75 44.72 13.76 44.58 13.76C39.5 13.96 39.5 13.96 37.5 13.75C37.5 12.65 37.5 12.65 37.65 12.5C38.01 12.5 38.37 12.5 38.75 12.5C38.75 12.13 38.75 11.77 38.75 11.4C38.33 11.35 37.92 11.3 37.5 11.25C37.5 11.19 37.5 11.14 37.5 11.09Z" fill="#A162D3" fill-opacity="1.000000" fill-rule="nonzero"/>
		<path id="path" d="M58.9 11.25C58.85 11.66 58.8 12.07 58.75 12.5C59.67 12.5 60.6 12.5 61.56 12.5C61.56 12.6 61.56 12.7 61.56 12.81C61.45 12.81 61.35 12.81 61.25 12.81C61.25 13.12 61.25 13.43 61.25 13.75C61.5 13.75 61.76 13.75 62.03 13.75C62.18 13.75 62.34 13.75 62.5 13.75C62.5 13.85 62.5 13.95 62.5 14.06C62.6 14.06 62.7 14.06 62.81 14.06C62.81 14.26 62.81 14.47 62.81 14.68C63.17 14.68 63.53 14.68 63.9 14.68C63.9 14.79 63.9 14.89 63.9 15C64.47 15 65.04 15 65.62 15C65.62 15.1 65.62 15.2 65.62 15.31C66.26 15.1 66.26 15.1 66.87 14.84C67.33 14.84 67.8 14.84 68.28 14.84C68.97 14.3 68.97 14.3 69.68 13.75C69.91 13.82 69.91 13.82 70.15 13.9C68.5 16.58 66.34 17.97 63.24 18.56C61.41 18.65 60.5 18.56 59.06 17.34C58.83 17.26 58.83 17.26 58.59 17.18C58.49 16.98 58.38 16.77 58.28 16.56C58.06 16.44 57.85 16.33 57.63 16.21C57.05 15.88 56.48 15.53 55.93 15.15C55.93 15.05 55.93 14.95 55.93 14.84C55.82 14.82 55.71 14.81 55.59 14.79C55.11 14.67 54.78 14.48 54.37 14.21C54.44 13.29 54.58 12.55 55 11.71C55.78 11.25 55.78 11.25 58.9 11.25Z" fill="#8EB437" fill-opacity="1.000000" fill-rule="nonzero"/>
		<path id="path" d="M32.81 25C33.12 25 33.43 25 33.75 25C33.75 25.1 33.75 25.2 33.75 25.31C33.85 25.31 33.95 25.31 34.06 25.31C34.06 25.41 34.06 25.51 34.06 25.62C34.21 25.67 34.37 25.72 34.53 25.78C34.47 25.93 34.42 26.09 34.37 26.25C34.47 26.25 34.58 26.25 34.68 26.25C34.68 26.55 34.68 26.86 34.68 27.18C34.79 27.18 34.89 27.18 35 27.18C35 27.29 35 27.39 35 27.5C35.1 27.5 35.2 27.5 35.31 27.5C35.31 27.39 35.31 27.29 35.31 27.18C35.41 27.18 35.51 27.18 35.62 27.18C35.62 27.29 35.62 27.39 35.62 27.5C35.83 27.5 36.03 27.5 36.25 27.5C36.25 28.32 36.25 29.15 36.25 30C36.55 30 36.86 30 37.18 30C37.18 30.1 37.18 30.2 37.18 30.31C37.29 30.31 37.39 30.31 37.5 30.31C37.5 29.84 37.5 29.38 37.5 28.9C38.09 28.31 39.16 28.75 40 28.75C40 29.16 40 29.57 40 30C39.58 30 39.17 30 38.75 30C38.75 30.41 38.75 30.82 38.75 31.25C39.57 31.25 40.4 31.25 41.25 31.25C41.25 31.66 41.25 32.07 41.25 32.5C40.42 32.5 39.59 32.5 38.75 32.5C38.75 32.91 38.75 33.32 38.75 33.75C38.2 33.82 38.2 33.82 37.65 33.9C37.65 34.16 37.65 34.42 37.65 34.68C37.81 34.76 37.81 34.76 37.96 34.84C37.91 34.99 37.86 35.15 37.81 35.31C37.91 35.31 38.01 35.31 38.12 35.31C38.12 35.41 38.12 35.51 38.12 35.62C38.22 35.62 38.33 35.62 38.43 35.62C38.43 35.72 38.43 35.83 38.43 35.93C37.5 35.93 37.5 35.93 37.34 35.78C37.26 36.01 37.26 36.01 37.18 36.25C36.87 36.25 36.56 36.25 36.25 36.25C36.25 35.83 36.25 35.42 36.25 35C35.94 35 35.63 35 35.31 35C35.31 34.69 35.31 34.38 35.31 34.06C35.2 34.06 35.1 34.06 35 34.06C35 34.47 35 34.88 35 35.31C33.75 35.93 33.75 35.93 32.5 35.93C32.5 35.67 32.5 35.42 32.5 35.15C32.19 35.1 31.88 35.05 31.56 35C31.25 34.1 31.25 34.1 31.25 33.75C31.14 33.75 31.04 33.75 30.93 33.75C30.92 33.08 30.93 32.52 31.09 31.87C30.99 31.87 30.88 31.87 30.78 31.87C30.7 31.64 30.7 31.64 30.62 31.4C30.41 31.35 30.21 31.3 30 31.25C30 31.09 30 30.94 30 30.78C31.23 30.47 32.21 30.57 33.28 31.25C34 31.92 34.47 32.51 34.84 33.43C34.89 32.71 34.94 31.99 35 31.25C34.69 31.25 34.38 31.25 34.06 31.25C33.95 31.19 33.85 31.14 33.75 31.09C33.75 30.73 33.75 30.37 33.75 30C33.33 30 32.92 30 32.5 30C32.5 29.58 32.5 29.17 32.5 28.75C32.91 28.75 33.32 28.75 33.75 28.75C33.75 27.92 33.75 27.1 33.75 26.25C33.54 26.25 33.33 26.25 33.12 26.25C33.12 25.94 33.12 25.63 33.12 25.31C33.02 25.31 32.91 25.31 32.81 25.31C32.81 25.2 32.81 25.1 32.81 25Z" fill="#8A59D2" fill-opacity="1.000000" fill-rule="nonzero"/>
		<path id="path" d="M31.25 18.75C31.25 19.16 31.25 19.57 31.25 20C32.42 19.98 32.42 19.98 32.81 19.53C32.7 19.47 32.6 19.42 32.5 19.37C32.5 19.27 32.5 19.16 32.5 19.06C32.95 18.86 33.24 18.75 33.75 18.75C33.75 19.16 33.75 19.57 33.75 20C34.16 20 34.57 20 35 20C35 20.82 35 21.65 35 22.5C35.1 22.5 35.2 22.5 35.31 22.5C35.31 22.6 35.31 22.7 35.31 22.81C35.41 22.81 35.51 22.81 35.62 22.81C35.62 23.12 35.62 23.43 35.62 23.75C35.83 23.75 36.03 23.75 36.25 23.75C36.25 24.16 36.25 24.57 36.25 25C35.11 25 33.98 25 32.81 25C32.81 25.1 32.81 25.2 32.81 25.31C32.91 25.31 33.01 25.31 33.12 25.31C33.12 25.62 33.12 25.93 33.12 26.25C33.33 26.25 33.53 26.25 33.75 26.25C33.75 27.07 33.75 27.9 33.75 28.75C32.92 28.75 32.09 28.75 31.25 28.75C31.25 28.38 31.25 28.02 31.25 27.65C30.83 27.6 30.42 27.55 30 27.5C30 26.67 30 25.85 30 25C29.27 25 28.55 25 27.81 25C27.81 24.79 27.81 24.58 27.81 24.37C27.7 24.37 27.6 24.37 27.5 24.37C27.5 23.34 27.5 22.31 27.5 21.25C27.75 21.14 28.01 21.04 28.28 20.93C28.43 20.62 28.59 20.31 28.75 20C29.16 20 29.57 20 30 20C30 19.74 30 19.48 30 19.21C30.46 18.75 30.46 18.75 31.25 18.75Z" fill="#893FBF" fill-opacity="1.000000" fill-rule="nonzero"/>
		<path id="path" d="M68.43 34.53C68.54 34.53 68.64 34.53 68.75 34.53C71.33 38.33 70.14 46.22 69.53 50.46C69.37 50.39 69.37 50.39 69.21 50.31C69.21 50.2 69.21 50.1 69.21 50C69.06 50 68.9 50 68.75 50C68.75 50.2 68.75 50.41 68.75 50.62C68.54 50.62 68.33 50.62 68.12 50.62C68.12 50.72 68.12 50.83 68.12 50.93C67.91 50.93 67.71 50.93 67.5 50.93C67.5 51.04 67.5 51.14 67.5 51.25C67.7 51.25 67.91 51.25 68.12 51.25C68.17 51.66 68.22 52.07 68.28 52.5C68.43 52.5 68.59 52.5 68.75 52.5C68.75 52.8 68.75 53.11 68.75 53.43C68.64 53.43 68.54 53.43 68.43 53.43C68.43 53.54 68.43 53.64 68.43 53.75C68.23 53.75 68.02 53.75 67.81 53.75C67.81 53.64 67.81 53.54 67.81 53.43C67.7 53.43 67.6 53.43 67.5 53.43C67.5 53.54 67.5 53.64 67.5 53.75C66.95 53.82 66.95 53.82 66.4 53.9C66.35 54.37 66.3 54.83 66.25 55.31C66.14 55.31 66.04 55.31 65.93 55.31C65.93 55.41 65.93 55.51 65.93 55.62C65.62 55.62 65.31 55.62 65 55.62C65 55.41 65 55.21 65 55C64.58 55 64.17 55 63.75 55C63.75 54.63 63.75 54.27 63.75 53.9C64.05 53.82 64.05 53.82 64.37 53.75C64.37 53.38 64.37 53.02 64.37 52.65C64.45 52.57 64.45 52.57 64.53 52.5C64.58 52.13 64.63 51.77 64.68 51.4C64.76 51.32 64.76 51.32 64.84 51.25C64.89 50.88 64.94 50.52 65 50.15C65.3 50.07 65.3 50.07 65.62 50C65.62 49.63 65.62 49.27 65.62 48.9C65.85 48.82 65.85 48.82 66.09 48.75C66.14 48.28 66.19 47.82 66.25 47.34C67.03 46.87 67.03 46.87 67.5 46.87C67.5 46.25 67.5 45.63 67.5 45C68.12 44.37 68.12 44.37 68.43 44.37C68.43 44.27 68.43 44.16 68.43 44.06C68.54 44.06 68.64 44.06 68.75 44.06C68.75 43.95 68.75 43.85 68.75 43.75C68.54 43.75 68.33 43.75 68.12 43.75C68.02 43.49 67.91 43.23 67.81 42.96C67.91 42.81 68.01 42.65 68.12 42.5C67.91 42.5 67.71 42.5 67.5 42.5C67.5 41.4 67.5 41.4 67.81 40.93C67.91 40.93 68.01 40.93 68.12 40.93C68.12 40.83 68.12 40.73 68.12 40.62C68.22 40.62 68.33 40.62 68.43 40.62C68.43 40.52 68.43 40.41 68.43 40.31C68.54 40.31 68.64 40.31 68.75 40.31C68.75 38.97 68.75 37.63 68.75 36.25C68.33 36.25 67.92 36.25 67.5 36.25C67.5 35.15 67.5 35.15 67.65 35C67.91 35 68.17 35 68.43 35C68.43 34.84 68.43 34.69 68.43 34.53Z" fill="#773FB7" fill-opacity="1.000000" fill-rule="nonzero"/>
		<path id="path" d="M33.75 16.25C33.75 16.66 33.75 17.07 33.75 17.5C34.16 17.5 34.57 17.5 35 17.5C35 17.08 35 16.67 35 16.25C35.82 16.25 36.65 16.25 37.5 16.25C37.65 16.71 37.65 16.71 37.5 17.5C37.6 17.5 37.7 17.5 37.81 17.5C37.81 17.6 37.81 17.7 37.81 17.81C37.91 17.81 38.01 17.81 38.12 17.81C38.12 18.12 38.12 18.43 38.12 18.75C38.74 18.75 39.36 18.75 40 18.75C40 19.16 40 19.57 40 20C39.38 20 38.76 20 38.12 20C38.12 20.1 38.12 20.2 38.12 20.31C37.91 20.31 37.71 20.31 37.5 20.31C37.5 20.51 37.5 20.72 37.5 20.93C37.6 20.93 37.7 20.93 37.81 20.93C37.81 21.04 37.81 21.14 37.81 21.25C37.7 21.25 37.6 21.25 37.5 21.25C37.5 21.86 37.5 22.48 37.5 23.12C37.6 23.12 37.7 23.12 37.81 23.12C37.81 23.22 37.81 23.33 37.81 23.43C38.01 23.43 38.22 23.43 38.43 23.43C38.43 23.54 38.43 23.64 38.43 23.75C38.54 23.75 38.64 23.75 38.75 23.75C38.75 24.57 38.75 25.4 38.75 26.25C38.2 26.32 38.2 26.32 37.65 26.4C37.6 26.76 37.55 27.12 37.5 27.5C37.11 27.57 37.11 27.57 36.71 27.65C36.66 28.42 36.61 29.2 36.56 30C36.45 30 36.35 30 36.25 30C36.25 29.17 36.25 28.35 36.25 27.5C36.04 27.5 35.83 27.5 35.62 27.5C35.62 27.39 35.62 27.29 35.62 27.18C35.52 27.18 35.41 27.18 35.31 27.18C35.31 27.29 35.31 27.39 35.31 27.5C35.2 27.5 35.1 27.5 35 27.5C35 27.39 35 27.29 35 27.18C34.89 27.18 34.79 27.18 34.68 27.18C34.68 26.87 34.68 26.56 34.68 26.25C34.58 26.25 34.48 26.25 34.37 26.25C34.37 26.09 34.37 25.94 34.37 25.78C34.27 25.72 34.16 25.67 34.06 25.62C34.06 25.52 34.06 25.41 34.06 25.31C33.95 25.31 33.85 25.31 33.75 25.31C33.75 25.2 33.75 25.1 33.75 25C34.57 25 35.4 25 36.25 25C36.25 24.58 36.25 24.17 36.25 23.75C36.04 23.75 35.83 23.75 35.62 23.75C35.62 23.44 35.62 23.13 35.62 22.81C35.52 22.81 35.41 22.81 35.31 22.81C35.31 22.7 35.31 22.6 35.31 22.5C35.2 22.5 35.1 22.5 35 22.5C35 21.67 35 20.85 35 20C34.58 20 34.17 20 33.75 20C33.75 19.58 33.75 19.17 33.75 18.75C33.44 18.9 33.44 18.9 33.12 19.06C32.91 19.06 32.71 19.06 32.5 19.06C32.5 19.16 32.5 19.26 32.5 19.37C32.65 19.42 32.8 19.47 32.96 19.53C32.5 20 32.5 20 31.25 20C31.25 19.17 31.25 18.35 31.25 17.5C31.66 17.5 32.07 17.5 32.5 17.5C32.5 17.13 32.5 16.77 32.5 16.4C32.65 16.25 32.65 16.25 33.75 16.25Z" fill="#944ACB" fill-opacity="1.000000" fill-rule="nonzero"/>
		<path id="path" d="M37.71 11.24C37.96 11.24 38.22 11.24 38.48 11.24C38.67 11.24 38.86 11.24 39.06 11.25C38.95 11.3 38.85 11.35 38.75 11.4C38.75 11.76 38.75 12.12 38.75 12.5C38.38 12.55 38.02 12.6 37.65 12.65C37.6 13.01 37.55 13.37 37.5 13.75C35.1 13.82 35.1 13.82 32.65 13.9C32.6 14.26 32.55 14.62 32.5 15C32.08 15 31.67 15 31.25 15C31.25 15.41 31.25 15.82 31.25 16.25C30.83 16.25 30.42 16.25 30 16.25C30 15.83 30 15.42 30 15C29.63 15.05 29.27 15.1 28.9 15.15C28.8 15.51 28.7 15.87 28.59 16.25C28.12 16.32 28.12 16.32 27.65 16.4C27.6 16.76 27.55 17.12 27.5 17.5C26.67 17.5 25.85 17.5 25 17.5C25 17.91 25 18.32 25 18.75C24.58 18.75 24.17 18.75 23.75 18.75C23.75 19.05 23.75 19.36 23.75 19.68C23.43 20 23.43 20 22.5 20C22.5 20.41 22.5 20.82 22.5 21.25C22.08 21.25 21.67 21.25 21.25 21.25C21.25 21.66 21.25 22.07 21.25 22.5C20.47 22.62 19.83 22.67 19.06 22.5C19.06 22.29 19.06 22.08 19.06 21.87C19.37 21.87 19.68 21.87 20 21.87C20 21.3 20 20.74 20 20.15C20.15 20 20.15 20 21.25 20C21.25 19.58 21.25 19.17 21.25 18.75C21.55 18.75 21.86 18.75 22.18 18.75C22.18 18.64 22.18 18.54 22.18 18.43C22.29 18.43 22.39 18.43 22.5 18.43C22.5 18.17 22.5 17.92 22.5 17.65C22.65 17.5 22.65 17.5 23.75 17.5C23.75 17.13 23.75 16.77 23.75 16.4C24.05 16.3 24.36 16.2 24.68 16.09C24.76 15.86 24.76 15.86 24.84 15.62C24.92 15.93 24.92 15.93 25 16.25C25.82 16.25 26.65 16.25 27.5 16.25C27.5 15.47 27.5 14.7 27.5 13.9C29.98 12.56 32.55 11.89 35.31 11.4C35.46 11.37 35.62 11.34 35.78 11.31C36.42 11.22 37.06 11.23 37.71 11.24Z" fill="#A16FC4" fill-opacity="1.000000" fill-rule="nonzero"/>
	</g>
</svg>
