<svg xmlns="http://www.w3.org/2000/svg" viewBox="0 0 189 383"><path fill-rule="evenodd" d="M173.406 3.453c-.265.266-.668.598-1.199.996-.535.399-.934.864-1.2 1.395L5.466 173.55a2.596 2.596 0 00-1.2 1.195l-.8 1.594C0 180.586-.867 184.172.867 187.094c1.73 2.922 5.797 4.383 12.195 4.383h72.774c4.266.53 7.797 2.523 10.598 5.976 2.796 3.45 4.199 7.168 4.199 11.152v92.418c0 1.329.398 2.856 1.199 4.582.797 1.727 1.73 3.254 2.797 4.582l13.996 13.942 52.383 53.379c4.797 4.781 8.996 6.441 12.594 4.98 3.597-1.46 5.398-5.644 5.398-12.55V13.012c0-6.371-1.531-10.422-4.598-12.149-3.066-1.726-6.73-.863-10.996 2.59zm0 0"/></svg>