<svg width="370" height="512" xmlns="http://www.w3.org/2000/svg">
  <path fill-rule="evenodd" d="M369.624 240.578c0 15.2-1.409 30.07-4.105 44.488l-29.478-17.196c-5.038-89.507-79.216-160.535-169.983-160.535-31.365 0-60.75 8.482-85.985 23.276L0 37.503C37.29 13.757 81.561 0 129.046 0c132.868 0 240.578 107.711 240.578 240.578zM219.109 412.067L99.437 512V325.706l28.375-17.272 18.506-49.35-77.725 41.947v46.882l-37.012 37.012V269.571c0-76.654 62.14-138.795 138.795-138.795 72.022 0 131.231 54.856 138.125 125.066l-89.392 61.228v94.997z"/>
</svg>
