<svg xmlns="http://www.w3.org/2000/svg" viewBox="0 0 384 384"><path d="M230.23 187.602l-54.132-31.297c-4.735-2.703-10.489.68-10.489 6.09v62.593c0 5.41 5.922 8.797 10.489 6.09l54.132-31.297c4.739-2.707 4.739-9.472 0-12.18zm0 0"/><path d="M191.832 100.82c-50.074 0-91.012 40.77-91.012 91.012 0 50.07 40.77 91.008 91.012 91.008 50.07 0 91.008-40.77 91.008-91.008 0-50.242-40.938-91.012-91.008-91.012zm0 171.364c-44.32 0-80.523-36.032-80.523-80.524 0-44.32 36.03-80.52 80.523-80.52 44.32 0 80.52 36.032 80.52 80.52-.168 44.492-36.2 80.524-80.52 80.524zm0 0"/><path d="M191.832 0C85.934 0 0 85.934 0 191.832 0 297.727 85.934 383.66 191.832 383.66c105.895 0 191.828-85.933 191.828-191.828C383.66 85.934 297.727 0 191.832 0zm0 313.46c-67.16 0-121.629-54.472-121.629-121.628 0-67.16 54.469-121.629 121.629-121.629 67.156 0 121.629 54.469 121.629 121.629 0 67.156-54.473 121.629-121.629 121.629zm0 0"/></svg>