<svg viewBox="0 0 478 539" xmlns="http://www.w3.org/2000/svg">
  <path d="M457.296 120.336a41.12 41.12 0 0 1 20.561 35.603v227.952a41.118 41.118 0 0 1-20.558 35.6L259.926 533.446a41.118 41.118 0 0 1-41.118 0L21.435 419.488A41.12 41.12 0 0 1 .877 383.887v-227.95a41.118 41.118 0 0 1 20.557-35.6L218.756 6.381a41.117 41.117 0 0 1 41.117 0l197.423 113.955zM246.704 29.193a14.777 14.777 0 0 0-14.777-.001L34.605 143.147a14.777 14.777 0 0 0-7.388 12.792v227.945a14.778 14.778 0 0 0 7.388 12.795l197.373 113.955a14.778 14.778 0 0 0 14.778 0L444.129 396.68a14.777 14.777 0 0 0 7.388-12.792V155.942a14.778 14.778 0 0 0-7.39-12.794L246.705 29.193z"/>
  <path d="M430.203 143.78v-.001a27.634 27.634 0 0 1 13.825 23.883v204.452a27.634 27.634 0 0 1-13.809 23.925l-177.036 102.21a27.634 27.634 0 0 1-27.634 0l-177.033-102.2a27.634 27.634 0 0 1-13.81-23.924V167.662a27.634 27.634 0 0 1 13.81-23.882l177.02-102.2a27.634 27.634 0 0 1 27.634 0l177.033 102.2zm-318.609 11.263h.001c4.245 4.259 8.497 8.511 12.755 12.757 4.245-4.232 8.483-8.47 12.714-12.716-4.24-4.254-8.487-8.5-12.741-12.741-4.229 4.238-8.472 8.47-12.729 12.7zm38.336.015h.001c4.227 4.24 8.46 8.473 12.7 12.7 4.245-4.231 8.484-8.47 12.715-12.715a5430.92 5430.92 0 0 0-12.7-12.7 6097.591 6097.591 0 0 0-12.716 12.715zm153.468-.041c4.252 4.247 8.499 8.499 12.742 12.757 4.238-4.234 8.471-8.473 12.7-12.716a5669.024 5669.024 0 0 0-12.742-12.741c-4.237 4.224-8.47 8.457-12.7 12.7zm38.253.08c4.235 4.24 8.473 8.478 12.716 12.716l12.77-12.77a5646.265 5646.265 0 0 0-12.716-12.716 5913.33 5913.33 0 0 0-12.77 12.77zM130.77 174.206a4477.81 4477.81 0 0 0 12.7 12.715 5501.36 5501.36 0 0 0 12.716-12.715 5430.92 5430.92 0 0 0-12.7-12.7 8791.857 8791.857 0 0 1-12.716 12.7zm38.446.026c4.193 4.199 8.39 8.393 12.591 12.583 4.192-4.198 8.389-8.391 12.591-12.578-4.21-4.203-8.406-8.418-12.592-12.645a2458.606 2458.606 0 0 1-12.59 12.64zm115.144-.083c4.203 4.216 8.432 8.403 12.606 12.64 4.202-4.215 8.413-8.423 12.633-12.625-4.216-4.22-8.427-8.446-12.633-12.676-4.19 4.244-8.403 8.445-12.606 12.661zm38.199.028v.001c4.229 4.241 8.486 8.47 12.715 12.73a8458.08 8458.08 0 0 0 12.7-12.715 6097.591 6097.591 0 0 0-12.715-12.716 5430.92 5430.92 0 0 0-12.7 12.7zM111.594 193.38v-.001c4.235 4.238 8.473 8.473 12.713 12.703a5466.9 5466.9 0 0 0 12.742-12.742c-4.224-4.234-8.457-8.472-12.7-12.715l-12.755 12.755zm38.324-.014c4.233 4.246 8.472 8.486 12.713 12.716a5501.36 5501.36 0 0 0 12.715-12.716c-4.224-4.237-8.457-8.47-12.7-12.7-4.243 4.238-8.485 8.471-12.728 12.7zm38.378-.07v.001c4.218 4.225 8.442 8.445 12.671 12.66 4.197-4.189 8.39-8.377 12.577-12.565-4.218-4.229-8.441-8.458-12.67-12.686a7464.672 7464.672 0 0 0-12.578 12.59zm76.945 0c4.188 4.204 8.414 8.378 12.578 12.594 4.216-4.175 8.39-8.391 12.607-12.565-4.2-4.213-8.406-8.42-12.62-12.619-4.189 4.192-8.377 8.389-12.565 12.59zm38.157.042c4.229 4.244 8.486 8.473 12.716 12.728 4.251-4.246 8.498-8.498 12.741-12.754a5645.895 5645.895 0 0 0-12.715-12.716 5466.9 5466.9 0 0 0-12.742 12.742zm38.316 0c4.237 4.244 8.492 8.473 12.715 12.731 4.238-4.234 8.471-8.473 12.7-12.716a5443.757 5443.757 0 0 0-12.715-12.715 5243.647 5243.647 0 0 0-12.7 12.7zM226.59 194.64v-.001c4.188 4.179 8.376 8.362 12.565 12.55a397.122 397.122 0 0 0 12.963-12.55 376.686 376.686 0 0 0-12.963-12.565L226.59 194.64zm-95.778 17.9v-.001c4.22 4.211 8.443 8.418 12.671 12.62 4.203-4.206 8.405-8.417 12.607-12.632-4.198-4.19-8.391-8.392-12.578-12.607l-12.7 12.62zm76.657-.08v-.001c4.189 4.188 8.377 8.372 12.565 12.552 4.174-4.19 8.375-8.377 12.55-12.565-4.18-4.189-8.363-8.377-12.55-12.565-4.19 4.203-8.378 8.375-12.565 12.579zm38.625 0c4.182 4.202 8.388 8.374 12.562 12.59 4.216-4.187 8.403-8.416 12.619-12.591-4.242-4.174-8.348-8.458-12.645-12.578-4.161 4.216-8.38 8.362-12.536 12.579zm76.656.012h.001c4.156 4.216 8.362 8.39 12.523 12.62 4.226-4.214 8.46-8.42 12.7-12.62a3977.512 3977.512 0 0 0-12.687-12.62c-4.174 4.217-8.362 8.404-12.537 12.62zM149.972 231.62v-.001a5822.83 5822.83 0 0 0 12.674 12.662c4.198-4.184 8.391-8.378 12.578-12.578-4.224-4.216-8.44-8.44-12.645-12.674a3929.135 3929.135 0 0 0-12.607 12.591zm76.644-.03c4.179 4.181 8.363 8.365 12.552 12.55a347.68 347.68 0 0 0 12.947-12.536 400.42 400.42 0 0 0-12.962-12.549c-4.186 4.171-8.365 8.35-12.537 12.535zm76.974.03v-.001c4.175 4.175 8.375 8.32 12.537 12.51 4.188-4.16 8.375-8.353 12.578-12.51-4.202-4.165-8.394-8.34-12.578-12.523-4.188 4.166-8.367 8.34-12.537 12.524zm-134.442 19.16v-.001c4.192 4.18 8.377 8.363 12.552 12.55 4.193-4.198 8.376-8.39 12.549-12.578-4.175-4.184-8.349-8.362-12.523-12.536-4.202 4.18-8.394 8.368-12.578 12.565zm115.24 0c4.188 4.19 8.404 8.362 12.578 12.565 4.184-4.189 8.363-8.378 12.537-12.565-4.17-4.203-8.349-8.391-12.537-12.565-4.198 4.189-8.39 8.377-12.578 12.565zm-134.382 19.134c4.178 4.188 8.371 8.376 12.578 12.565 4.181-4.186 8.36-8.374 12.536-12.565a14830.13 14830.13 0 0 1-12.536-12.565 4026.297 4026.297 0 0 0-12.578 12.565zm38.29 0c4.187 4.18 8.377 8.362 12.57 12.55 4.193-4.179 8.367-8.362 12.523-12.549-4.178-4.18-8.355-8.363-12.528-12.55-4.19 4.179-8.378 8.362-12.565 12.549zm76.929 0c4.191 4.217 8.43 8.391 12.607 12.607 4.187-4.212 8.384-8.414 12.59-12.607-4.2-4.19-8.387-8.419-12.59-12.606-4.19 4.216-8.419 8.39-12.607 12.606zm37.228 0c4.34 4.011 8.089 8.705 12.782 12.277 3.999-4.224 8.337-8.089 12.36-12.277-4.026-4.216-8.431-8.06-12.401-12.318-4.611 3.697-8.445 8.282-12.741 12.318zm-133.305 19.135c4.196 4.187 8.388 8.375 12.576 12.565a7401.1 7401.1 0 0 0 12.523-12.537c-4.175-4.203-8.362-8.375-12.549-12.578l-12.55 12.55zm115.253 0c4.175 4.187 8.362 8.349 12.537 12.536 4.242-4.12 8.375-8.362 12.578-12.536-4.18-4.189-8.362-8.378-12.55-12.565-4.175 4.203-8.39 8.377-12.565 12.565zM149.972 308.21h.001c4.19 4.209 8.393 8.405 12.607 12.59 4.217-4.223 8.431-8.447 12.644-12.674a5143.387 5143.387 0 0 0-12.578-12.578 4089.256 4089.256 0 0 0-12.674 12.662zm76.59.028c4.195 4.204 8.392 8.406 12.591 12.606a339.154 339.154 0 0 0 13.017-12.632 342.505 342.505 0 0 0-13.002-12.565c-4.203 4.192-8.405 8.389-12.606 12.591zm77.028-.016a9241.79 9241.79 0 0 1 12.537 12.51c4.201-4.17 8.398-8.344 12.59-12.523-4.192-4.167-8.389-8.337-12.59-12.51-4.162 4.174-8.362 8.336-12.537 12.523zm-172.791 19.067c4.242 4.19 8.471 8.429 12.713 12.633 4.179-4.22 8.372-8.428 12.58-12.62-4.203-4.22-8.405-8.431-12.606-12.633-4.229 4.212-8.458 8.419-12.687 12.62zm76.602.081v-.001c4.208 4.227 8.427 8.442 12.658 12.646 4.213-4.215 8.419-8.43 12.62-12.645-4.215-4.212-8.43-8.419-12.645-12.62-4.207 4.198-8.417 8.404-12.633 12.62zm38.609 0l.001-.001c4.215 4.226 8.431 8.445 12.648 12.659 4.22-4.238 8.444-8.471 12.673-12.7-4.228-4.188-8.444-8.417-12.66-12.62-4.203 4.229-8.445 8.432-12.662 12.662zm76.728-.014c4.169 4.216 8.375 8.417 12.552 12.633 4.238-4.207 8.471-8.418 12.7-12.633-4.248-4.215-8.486-8.43-12.716-12.645-4.161 4.229-8.38 8.429-12.536 12.645zm-96.231 17.834l.001-.001c4.211 4.221 8.431 8.445 12.66 12.674a381.985 381.985 0 0 0 13.056-12.686c-4.271-4.307-8.608-8.529-13.071-12.62-4.216 4.22-8.431 8.431-12.646 12.633zm-114.913 1.272c4.248 4.24 8.501 8.487 12.757 12.742 4.238-4.234 8.471-8.473 12.7-12.716a5466.042 5466.042 0 0 0-12.741-12.741l-12.716 12.715zm38.324-.012v-.001c4.238 4.244 8.482 8.483 12.731 12.716 4.24-4.226 8.474-8.46 12.7-12.7a5256.376 5256.376 0 0 0-12.716-12.715c-4.234 4.237-8.472 8.47-12.715 12.7zm38.294.067c4.229 4.24 8.458 8.473 12.687 12.7 4.243-4.243 8.486-8.5 12.729-12.77-4.225-4.216-8.446-8.431-12.661-12.646-4.255 4.229-8.497 8.486-12.755 12.716zm76.933.015c4.221 4.23 8.444 8.46 12.671 12.69 4.235-4.243 8.473-8.486 12.716-12.729a5411.302 5411.302 0 0 1-12.7-12.661c-4.2 4.242-8.458 8.458-12.687 12.7zm38.253-.042v.001c4.243 4.251 8.49 8.499 12.742 12.741l12.715-12.715a8043.33 8043.33 0 0 1-12.741-12.755c-4.229 4.242-8.486 8.487-12.716 12.728zm38.316 0v.001a9758.72 9758.72 0 0 0 12.7 12.702c4.245-4.231 8.484-8.47 12.715-12.715-4.237-4.234-8.47-8.473-12.7-12.716-4.229 4.242-8.486 8.487-12.715 12.728zm-210.957 19.12h.001c4.238 4.244 8.481 8.482 12.73 12.715 4.24-4.226 8.474-8.46 12.7-12.7a5443.757 5443.757 0 0 0-12.715-12.715 8792.365 8792.365 0 0 1-12.716 12.7zm38.35.013c4.229 4.231 8.458 8.486 12.7 12.715 4.229-4.229 8.457-8.486 12.687-12.715a3231.86 3231.86 0 0 0-12.7-12.687 2709.91 2709.91 0 0 0-12.687 12.687zm115.143.028c4.23 4.262 8.473 8.514 12.73 12.755 4.238-4.26 8.484-8.512 12.74-12.755-4.25-4.228-8.498-8.472-12.74-12.728-4.257 4.243-8.5 8.485-12.73 12.728zm38.309 0a9757.61 9757.61 0 0 0 12.7 12.703 5501.36 5501.36 0 0 0 12.715-12.716c-4.238-4.234-8.47-8.472-12.7-12.715-4.229 4.242-8.486 8.486-12.715 12.728zm-210.923 19.08a3385.54 3385.54 0 0 0 12.715 12.716l12.716-12.716-12.716-12.715a5443.757 5443.757 0 0 0-12.715 12.715zm38.282.039c4.238 4.244 8.482 8.483 12.731 12.716 4.24-4.226 8.474-8.46 12.7-12.7a5646.265 5646.265 0 0 0-12.716-12.716 8458.077 8458.077 0 0 1-12.715 12.7zm153.48.042c4.226 4.241 8.46 8.475 12.7 12.702 4.252-4.237 8.499-8.485 12.742-12.741a8955.988 8955.988 0 0 1-12.7-12.716 7661.863 7661.863 0 0 0-12.742 12.755zm38.253-.081h.001c4.245 4.268 8.502 8.525 12.77 12.77 4.245-4.231 8.484-8.47 12.715-12.715l-12.77-12.77a5645.895 5645.895 0 0 0-12.716 12.715z"/>
</svg>
