<svg xmlns="http://www.w3.org/2000/svg" viewBox="0 0 508 511"><g fill-rule="evenodd"><path d="M368.914 65.82c-34.865-21.417-75.044-32.736-116.199-32.736-37.797 0-75.111 9.647-107.918 27.89l-15.804-28.409C166.618 11.631 209.403.568 252.715.568c47.156 0 93.23 12.982 133.224 37.545l-17.025 27.706zm100.701 129.26c-8.545-30.779-23.299-58.893-43.857-83.57l20.82-17.343c23.031 27.648 39.564 59.162 49.14 93.67l-26.103 7.243zM417.36 450.04l-21.011-24.813c50.04-42.383 78.74-104.254 78.74-169.77h32.516c-.003 75.086-32.894 146-90.245 194.583zm-164.644 60.299c-59.132 0-116.755-20.707-162.261-58.303l20.716-25.06c39.69 32.798 89.96 50.857 141.545 50.857 36.074 0 70.472-8.363 102.251-24.848l14.968 28.863c-35.927 18.643-76.47 28.49-117.219 28.49zm-210.69-116.25C14.881 352.912.538 304.975.538 255.457c0-68.935 27.292-133.305 76.846-181.258l18.843 19.479C51.995 136.472 27.63 193.923 27.63 255.457c0 44.194 12.8 86.982 37.016 123.716l-22.622 14.916z"/><path fill-rule="nonzero" d="M252.715 421.403c-91.502 0-165.95-74.444-165.95-165.943 0-91.505 74.448-165.946 165.95-165.946 91.506 0 165.95 74.444 165.95 165.946 0 91.5-74.444 165.943-165.95 165.943zm0-299.38c-73.578 0-133.44 59.858-133.44 133.434 0 73.582 59.862 133.434 133.44 133.434s133.441-59.855 133.441-133.434c0-73.576-59.862-133.434-133.44-133.434z"/></g></svg>