<?xml version="1.0" encoding="UTF-8" standalone="yes"?>
<svg xmlns="http://www.w3.org/2000/svg" xmlns:xlink="http://www.w3.org/1999/xlink" width="512px" height="469.3333333333333px" viewBox="0 0 384 352" version="1.1">
  <g id="surface1">
    <path style=" stroke:none;fill-rule:evenodd;fill:rgb(0%,0%,0%);fill-opacity:1;" d="M 5.199219 100 C 23.332031 84.800781 42 71.332031 61.199219 59.601562 C 80.667969 48.132812 98.933594 38.332031 116 30.199219 C 133.066406 22.066406 147.867188 15.734375 160.398438 11.199219 C 172.933594 6.398438 181.332031 3.332031 185.601562 2 L 192 0 L 198.398438 2 C 202.667969 3.332031 211.199219 6.398438 224 11.199219 C 236.53125 15.734375 251.265625 22.066406 268.199219 30.199219 C 285.132812 38.332031 303.332031 48.265625 322.800781 60 C 342.265625 71.734375 360.933594 85.199219 378.800781 100.398438 L 384 104.398438 L 382.800781 110.800781 C 382 114.800781 379.066406 126.265625 374 145.199219 C 368.933594 164.132812 360.265625 185.46875 348 209.199219 C 340.53125 224.667969 332 239.066406 322.398438 252.398438 C 312.800781 265.734375 302.667969 278 292 289.199219 C 278.398438 303.066406 263.800781 315 248.199219 325 C 232.601562 335 216 343.199219 198.398438 349.601562 L 192 352 L 185.601562 349.601562 C 168.265625 343.199219 151.800781 335 136.199219 325 C 120.601562 315 105.867188 303.066406 92 289.199219 C 81.332031 278 71.199219 265.800781 61.601562 252.601562 C 52 239.398438 43.46875 224.933594 36 209.199219 C 24 186 15.398438 164.734375 10.199219 145.398438 C 5 126.066406 2 114.265625 1.199219 110 L 0 103.601562 Z M 162 103.199219 C 152.398438 103.199219 143.398438 104.265625 135 106.398438 C 126.601562 108.53125 119.199219 111.46875 112.800781 115.199219 L 117.199219 114 L 126.800781 112 C 128.398438 113.867188 129.933594 115.199219 131.398438 116 C 132.867188 116.800781 133.867188 117.332031 134.398438 117.601562 C 144.265625 115.46875 151.332031 112.53125 155.601562 108.800781 Z M 96.800781 261.199219 C 95.46875 259.601562 94.199219 258.066406 93 256.601562 C 91.800781 255.132812 90.667969 253.601562 89.601562 252 C 90.667969 253.601562 91.800781 255.199219 93 256.800781 C 94.199219 258.398438 95.46875 259.867188 96.800781 261.199219 Z M 108 274 Z M 24.398438 114.398438 C 26 121.601562 29.199219 133.066406 34 148.800781 C 38.800781 164.53125 45.867188 181.46875 55.199219 199.601562 C 60 209.199219 65.066406 218.332031 70.398438 227 C 75.734375 235.667969 81.46875 243.867188 87.601562 251.601562 C 112.667969 248.933594 126.734375 242.265625 129.800781 231.601562 L 134.398438 215.601562 L 134.398438 212 L 133.601562 208 L 130.398438 199.199219 C 128.265625 193.332031 125.800781 190.398438 123 190.398438 C 120.199219 190.398438 115.734375 189.066406 109.601562 186.398438 C 108 186.398438 106.53125 186.53125 105.199219 186.800781 C 103.867188 187.066406 102.53125 187.46875 101.199219 188 C 95.332031 191.199219 93.199219 195 94.800781 199.398438 L 97.199219 206 C 90 204.667969 82.867188 200.066406 75.800781 192.199219 C 68.734375 184.332031 65.867188 173.199219 67.199219 158.800781 C 68.53125 144.398438 75.066406 133.53125 86.800781 126.199219 L 104.398438 115.199219 C 103.601562 112 103.398438 109.734375 103.800781 108.398438 L 104.398438 106.398438 C 122.53125 95.199219 139.46875 87.199219 155.199219 82.398438 C 170.933594 77.332031 184.601562 74 196.199219 72.398438 C 207.800781 70.800781 216.933594 70.265625 223.601562 70.800781 L 233.601562 71.601562 L 219.601562 85.601562 L 224 85.601562 C 238.667969 86.132812 252.398438 89.46875 265.199219 95.601562 C 278 101.46875 289.199219 109.46875 298.800781 119.601562 C 308.398438 129.734375 316 141.46875 321.601562 154.800781 C 327.199219 167.867188 330.132812 182 330.398438 197.199219 C 339.199219 179.332031 345.867188 162.933594 350.398438 148 C 354.933594 133.066406 358 121.867188 359.601562 114.398438 L 359.601562 113.199219 C 343.066406 99.601562 325.867188 87.46875 308 76.800781 C 289.867188 66.132812 272.933594 57.066406 257.199219 49.601562 C 241.46875 42.132812 227.734375 36.265625 216 32 C 204.265625 27.46875 196.265625 24.53125 192 23.199219 C 186.667969 24.800781 178 27.867188 166 32.398438 C 154.265625 36.933594 140.601562 42.933594 125 50.398438 C 109.398438 57.867188 92.800781 66.667969 75.199219 76.800781 C 57.867188 87.199219 40.933594 99.199219 24.398438 112.800781 Z M 24.398438 114.398438 "/>
  </g>
</svg>