<svg xmlns="http://www.w3.org/2000/svg" viewBox="0 0 384 352"><path fill-rule="evenodd" d="M5.2 100c18.132-15.2 36.8-28.668 56-40.398 19.468-11.47 37.734-21.27 54.8-29.403 17.066-8.133 31.867-14.465 44.398-19C172.934 6.4 181.332 3.332 185.602 2L192 0l6.398 2c4.27 1.332 12.801 4.398 25.602 9.2 12.531 4.534 27.266 10.866 44.2 19 16.933 8.132 35.132 18.066 54.6 29.8 19.466 11.734 38.134 25.2 56 40.398l5.2 4-1.2 6.403c-.8 4-3.734 15.465-8.8 34.398-5.066 18.934-13.734 40.27-26 64-7.469 15.469-16 29.867-25.602 43.2-9.597 13.335-19.73 25.601-30.398 36.8C278.398 303.066 263.8 315 248.2 325c-15.598 10-32.2 18.2-49.802 24.602L192 352l-6.398-2.398A254.977 254.977 0 01136.199 325c-15.597-10-30.332-21.934-44.199-35.8-10.668-11.2-20.8-23.4-30.398-36.598C52 239.398 43.469 224.934 36 209.199 24 186 15.398 164.734 10.2 145.4 5 126.065 2 114.265 1.2 110L0 103.602zm156.8 3.2c-9.602 0-18.602 1.066-27 3.198-8.398 2.133-15.8 5.07-22.2 8.801l4.4-1.199 9.6-2c1.598 1.867 3.134 3.2 4.598 4 1.47.8 2.47 1.332 3 1.602 9.868-2.133 16.934-5.07 21.204-8.801zm-65.2 158a668.217 668.217 0 01-3.8-4.598c-1.2-1.47-2.332-3-3.398-4.602 1.066 1.602 2.199 3.2 3.398 4.8a41.127 41.127 0 003.8 4.4zM108 274zM24.398 114.398C26 121.602 29.2 133.066 34 148.801c4.8 15.73 11.867 32.668 21.2 50.8C60 209.2 65.065 218.333 70.397 227c5.336 8.668 11.07 16.867 17.204 24.602 25.066-2.668 39.132-9.336 42.199-20l4.597-16V212l-.796-4-3.204-8.8c-2.132-5.868-4.597-8.802-7.398-8.802-2.8 0-7.266-1.332-13.398-4-1.602 0-3.07.133-4.403.403a22.889 22.889 0 00-4 1.199c-5.867 3.2-8 7-6.398 11.398L97.199 206c-7.199-1.332-14.332-5.934-21.398-13.8-7.067-7.868-9.934-19-8.602-33.4 1.332-14.402 7.867-25.269 19.602-32.6l17.597-11c-.796-3.2-1-5.466-.597-6.802l.597-2c18.133-11.199 35.07-19.199 50.801-24 15.735-5.066 29.403-8.398 41-10 11.602-1.597 20.735-2.132 27.403-1.597l10 .8-14 14H224c14.668.532 28.398 3.868 41.2 10 12.8 5.868 24 13.868 33.6 24 9.598 10.133 17.2 21.868 22.802 35.2 5.597 13.066 8.53 27.199 8.796 42.398 8.801-17.867 15.47-34.265 20-49.199 4.536-14.934 7.602-26.133 9.204-33.602V113.2C343.066 99.602 325.867 87.47 308 76.801c-18.133-10.668-35.066-19.735-50.8-27.2C241.468 42.134 227.733 36.267 216 32c-11.734-4.531-19.734-7.469-24-8.8-5.332 1.6-14 4.667-26 9.198-11.734 4.536-25.398 10.536-41 18-15.602 7.47-32.2 16.27-49.8 26.403-17.333 10.398-34.266 22.398-50.802 36zm0 0"/></svg>