<svg xmlns="http://www.w3.org/2000/svg" viewBox="0 0 510 510">
  <path fill="#000" fill-rule="nonzero" d="M317.144 150.806L152.43 315.29a130.587 130.587 0 0 1-5.76-12.851c-5.752-14.945-8.628-30.801-8.628-47.548 0-16.76 2.876-32.61 8.629-47.555 5.759-14.952 13.735-27.922 23.935-38.932 10.2-11.003 22.456-19.705 36.764-26.114 14.314-6.402 30.02-9.607 47.124-9.607 17.11 0 32.903 3.285 47.37 9.86a121.638 121.638 0 0 1 15.28 8.263zM302.61 368.47c-14.315 6.409-30.02 9.607-47.124 9.607-17.11 0-32.903-3.284-47.377-9.853-5.373-2.446-10.466-5.199-15.266-8.277l164.707-164.47a129.083 129.083 0 0 1 5.759 12.844c5.752 14.945 8.628 30.801 8.628 47.555 0 16.753-2.876 32.603-8.628 47.555-5.76 14.945-13.735 27.915-23.935 38.918s-22.45 19.712-36.764 26.121zm24.92 50.999c22.044-9.527 41.125-22.418 57.244-38.686 16.118-16.255 28.615-35.23 37.496-56.91 8.888-21.679 13.33-44.675 13.33-68.981 0-24.313-4.442-47.309-13.33-68.995-5.266-12.858-11.75-24.732-19.447-35.628L509.953 43.29 467.383.783 359.927 108.085c-9.648-6.569-20.12-12.246-31.412-17.04-22.044-9.36-46.385-14.047-73.03-14.047-26.65 0-50.991 4.767-73.035 14.293-22.044 9.527-41.125 22.418-57.244 38.68-16.118 16.261-28.622 35.235-37.503 56.915-8.882 21.68-13.323 44.676-13.323 68.989 0 24.306 4.441 47.295 13.323 68.982 5.273 12.864 11.757 24.738 19.454 35.64L.033 467.462l42.57 42.509 107.45-107.296c9.647 6.569 20.12 12.246 31.411 17.04 22.044 9.36 46.385 14.04 73.03 14.04 26.65 0 50.992-4.766 73.036-14.286z"/>
</svg>
