<svg xmlns="http://www.w3.org/2000/svg" viewBox="0 0 384 384"><path d="M314.004 244.078l20.008-32.61 18.36 32.61h30.972l-34.535-51.39 31.656-46.45H351.41l-17.398 30.418-16.446-30.418H287.56l31.925 46.45-34.804 51.39zm-164.734-97.84h-25.903l-36.582 97.84h26.172l6.168-17.539h34.121l6.027 17.54h26.586zm-24.254 61.387l11.101-34.254h.278l10.816 34.254zm-56.493-17.129c7.672-3.836 12.88-10.957 12.88-19.73 0-20.418-18.497-24.801-35.352-24.528H.28v97.84h47c20.969 0 38.094-7.129 38.094-30.422 0-11.097-6.438-20.14-16.852-23.16zM25.77 165.973H45.5c5.348 0 10.418 2.324 10.418 9.453 0 6.984-6.031 9.32-10.418 9.32H25.77zm20.414 57.687H25.77v-22.469h20.414c7.68 0 13.707 2.871 13.707 11.504 0 8.086-5.621 10.965-13.707 10.965zm206.945-17.129l-33.988-60.293h-26.172v97.84h23.984v-60.98h.27l33.984 60.98h26.168v-97.84h-23.977v60.293zm-205 50.637c-.809 0-1.465.656-1.465 1.465v35.21c0 .81.656 1.466 1.465 1.466h21.266c.808 0 1.464-.657 1.464-1.465v-35.211c0-.809-.656-1.465-1.464-1.465zm21.27-122.504c.804 0 1.46-.652 1.464-1.46V97.991c0-.808-.656-1.465-1.465-1.465h-21.27a1.46 1.46 0 00-1.464 1.465v35.211c0 .805.656 1.461 1.465 1.461zm-46.383 0c.804 0 1.46-.652 1.464-1.46V97.991c0-.39-.156-.762-.43-1.039a1.466 1.466 0 00-1.034-.426H1.746a1.46 1.46 0 00-1.039.426 1.476 1.476 0 00-.426 1.04v35.21c0 .805.653 1.461 1.465 1.461zM1.746 257.168c-.39 0-.762.152-1.035.43-.277.273-.43.644-.43 1.035v35.21c0 .81.653 1.466 1.465 1.466h21.266c.808 0 1.465-.657 1.465-1.465v-35.211c0-.39-.153-.762-.43-1.035a1.447 1.447 0 00-1.035-.43zm0 0"/></svg>