<svg xmlns="http://www.w3.org/2000/svg" viewBox="0 0 384 384"><path d="M236.328 383.621H25.688V76.145h76.144V0H251.23c32.747 0 63.747 15.344 87.286 43.2 19.418 22.995 31.48 52.109 31.48 75.984 0 30.484-10.976 57.875-19.238 73.597a155.377 155.377 0 0114.336 33.016c9.531 31.57 7.195 62.336-6.742 88.965-14.301 27.328-35.586 46.89-63.25 58.152-17.457 7.106-37.23 10.707-58.774 10.707zM65.414 343.895h170.914c41.098 0 70.309-16.004 86.828-47.555 22.926-43.8-10.898-90.164-11.25-90.617l-9.844-12.145 9.528-12.375c2.883-3.91 18.683-32.086 18.683-62.02 0-11.644-6.921-32.363-22.105-50.34-9.188-10.874-28.8-29.116-56.934-29.116H141.562v36.418h103.043c21.047 0 40.172 14.453 46.516 35.152a50.526 50.526 0 01-12.187 50.695c-4.23 4.227-20.938 18.856-34.329 30.488 14.172 13.45 33.333 31.676 38.051 36.391 15.59 15.594 12.602 43.402 3.7 55.703-7.204 9.953-20.02 23.18-47.993 23.18H99.493V134.082h39.726v133.941h99.14c10.11 0 12.801-2.675 15.227-5.949.465-1.582.547-4.41.184-5.894-7.403-7.285-37.141-35.493-52.407-49.942l-15.972-15.113 16.656-14.36c16.59-14.296 44.5-38.574 48.793-42.867.176-.175 4.305-4.402 2.293-10.964-1.422-4.633-5.363-7.059-8.528-7.059H65.415zm0 0"/></svg>