<svg xmlns="http://www.w3.org/2000/svg" viewBox="0 0 384 384"><path d="M15.246 6.148s45.805 11.797 45.805 79.813v205.25c0 80.32-45.805 84.937-45.805 84.937v6.836l74.856-3.59V3.587L15.246 0zM301.25 91.516c1.023 54.574-21.023 75.879-21.023 75.879s54.093-17.434 53.062-79.47c-1.023-62.034-74.086-77.929-74.086-77.929s41.02 26.945 42.047 81.52zm-4.992 96.129s32.37 28.816 33.93 90.16c1.57 61.343-33.93 91.593-33.93 91.593s68.308-19.226 67.539-92.285c-.77-73.058-67.54-89.468-67.54-89.468zm0 0"/><path d="M274.59 200.973c-12.305-10.25-47.172-22.043-47.172-22.043s23.074-11.535 33.582-28.2c10.512-16.664 18.715-47.167 11.027-79.21-7.691-32.047-35.89-64.09-68.703-68.704-32.812-4.617-46.738.77-86.562 1.282V379.05s60.414 4.445 92.972 4.187c32.555-.254 82.543-22.558 91.77-83.312 9.226-60.754-14.613-88.696-26.914-98.953zM150.773 35.375c5.895-5.64 36.399-15.64 65.368 4.36 28.968 19.995 36.484 78.527 12.562 109.632-23.926 31.102-83.57 22.899-83.57 22.899s-.258-131.254 5.64-136.891zM270.06 301.637c-13.844 53.492-55.883 55.035-77.934 54.175-22.043-.855-43.238-.515-45.629-62.55-2.39-62.035-1.367-95.192-1.367-95.192s65.625-2.566 88.016 7.18c22.386 9.742 50.757 42.895 36.914 96.387zm0 0"/></svg>