<?xml version="1.0" encoding="UTF-8" standalone="yes"?>
<svg xmlns="http://www.w3.org/2000/svg" xmlns:xlink="http://www.w3.org/1999/xlink" width="512px" height="512px" viewBox="0 0 384 384" version="1.1">
  <g id="surface1">
    <path style=" stroke:none;fill-rule:nonzero;fill:rgb(0%,0%,0%);fill-opacity:1;" d="M 321.746094 164.265625 C 321.746094 164.265625 357.496094 142.285156 357.496094 103.453125 C 357.496094 64.621094 319.898438 15.117188 260.722656 15.117188 L 94.515625 15.117188 L 94.515625 123.582031 L 0 123.582031 L 0 169.808594 L 94.515625 169.808594 L 94.515625 231.136719 L 0 231.136719 L 0 277.363281 L 94.515625 277.363281 L 94.515625 368.507812 L 248.398438 368.507812 C 321.128906 368.507812 383.382812 328.835938 383.382812 256.714844 C 383.382812 184.609375 321.746094 164.265625 321.746094 164.265625 Z M 234.222656 63.796875 C 265.042969 63.796875 296.476562 78.582031 296.476562 112.179688 C 296.476562 145.773438 263.195312 162.71875 232.371094 162.71875 L 157.792969 162.71875 L 157.792969 63.796875 Z M 244.632812 310.34375 L 157.792969 310.34375 L 157.792969 203.097656 L 244.085938 203.097656 C 301.40625 203.097656 325.128906 226.820312 325.128906 261.648438 C 325.128906 296.476562 283.46875 310.34375 244.632812 310.34375 Z M 244.632812 310.34375 "/>
  </g>
</svg>