<?xml version="1.0" encoding="UTF-8" standalone="yes"?>
<svg xmlns="http://www.w3.org/2000/svg" xmlns:xlink="http://www.w3.org/1999/xlink" width="512px" height="512px" viewBox="0 0 384 384" version="1.1">
  <g id="surface1">
    <path style=" stroke:none;fill-rule:nonzero;fill:rgb(0%,0%,0%);fill-opacity:1;" d="M 203.050781 163.65625 C 207.992188 160.003906 210.46875 154.035156 210.46875 145.773438 C 210.46875 141.214844 209.636719 137.445312 207.992188 134.511719 C 206.351562 131.597656 204.144531 129.28125 201.410156 127.628906 C 198.65625 126.007812 195.492188 124.839844 191.9375 124.195312 C 188.257812 123.554688 184.53125 123.230469 180.796875 123.234375 L 140.449219 123.234375 L 140.449219 169.15625 L 184.101562 169.15625 C 191.804688 169.15625 198.105469 167.328125 203.050781 163.65625 Z M 209.910156 205.039062 C 204.246094 200.75 196.730469 198.59375 187.390625 198.59375 L 140.449219 198.59375 L 140.449219 252.492188 L 186.566406 252.492188 C 190.78125 252.492188 194.816406 252.078125 198.652344 251.265625 C 202.503906 250.425781 205.890625 249.050781 208.820312 247.128906 C 211.726562 245.207031 214.074219 242.601562 215.8125 239.292969 C 217.542969 235.984375 218.441406 231.78125 218.441406 226.644531 C 218.441406 216.558594 215.597656 209.363281 209.910156 205.039062 Z M 209.910156 205.039062 "/>
    <path style=" stroke:none;fill-rule:nonzero;fill:rgb(0%,0%,0%);fill-opacity:1;" d="M 0.195312 0 L 0.195312 384.179688 L 384.375 384.179688 L 384.375 0 Z M 255.777344 254.820312 C 251.941406 262.09375 246.773438 268.003906 240.257812 272.574219 C 233.773438 277.164062 226.351562 280.53125 218.015625 282.734375 C 209.699219 284.933594 201.132812 286.039062 192.351562 286.039062 L 97.320312 286.039062 L 97.320312 89.691406 L 189.59375 89.691406 C 198.921875 89.691406 207.449219 90.503906 215.140625 92.15625 C 222.828125 93.8125 229.414062 96.511719 234.914062 100.269531 C 240.402344 104.027344 244.660156 109.03125 247.679688 115.265625 C 250.699219 121.496094 252.207031 129.179688 252.207031 138.355469 C 252.207031 148.253906 249.972656 156.503906 245.492188 163.105469 C 240.984375 169.710938 234.355469 175.117188 225.574219 179.324219 C 237.65625 182.832031 246.683594 188.910156 252.613281 197.621094 C 258.574219 206.332031 261.546875 216.839844 261.546875 229.125 C 261.546875 239.023438 259.628906 247.585938 255.777344 254.820312 Z M 319.199219 286.039062 L 276.066406 286.039062 L 276.066406 243.699219 L 319.199219 243.699219 Z M 319.199219 286.039062 "/>
  </g>
</svg>