<svg xmlns="http://www.w3.org/2000/svg" viewBox="0 0 384 384"><path d="M203.05 163.656c4.942-3.652 7.419-9.62 7.419-17.883 0-4.558-.832-8.328-2.477-11.261-1.64-2.914-3.847-5.23-6.582-6.883-2.754-1.621-5.918-2.79-9.472-3.434a64.556 64.556 0 00-11.141-.96h-40.348v45.921h43.653c7.703 0 14.003-1.828 18.949-5.5zm6.86 41.383c-5.664-4.289-13.18-6.445-22.52-6.445h-46.94v53.898h46.116c4.215 0 8.25-.414 12.086-1.226 3.852-.84 7.239-2.215 10.168-4.137 2.907-1.922 5.254-4.527 6.993-7.836 1.73-3.309 2.628-7.512 2.628-12.648 0-10.086-2.843-17.282-8.53-21.606zm0 0"/><path d="M.195 0v384.18h384.18V0zm255.582 254.82c-3.836 7.274-9.004 13.184-15.52 17.754-6.484 4.59-13.905 7.957-22.241 10.16-8.317 2.2-16.883 3.305-25.664 3.305H97.32V89.691h92.274c9.328 0 17.855.813 25.547 2.465 7.687 1.656 14.273 4.356 19.773 8.114 5.488 3.757 9.746 8.761 12.766 14.996 3.02 6.23 4.527 13.914 4.527 23.09 0 9.898-2.234 18.148-6.715 24.75-4.508 6.605-11.137 12.011-19.918 16.218 12.082 3.508 21.11 9.586 27.04 18.297 5.96 8.711 8.933 19.219 8.933 31.504 0 9.898-1.918 18.46-5.77 25.695zm63.422 31.22h-43.133V243.7H319.2zm0 0"/></svg>