<?xml version="1.0" encoding="UTF-8" standalone="yes"?>
<svg xmlns="http://www.w3.org/2000/svg" xmlns:xlink="http://www.w3.org/1999/xlink" width="512px" height="512px" viewBox="0 0 384 384" version="1.1">
  <g id="surface1">
    <path style=" stroke:none;fill-rule:nonzero;fill:rgb(0%,0%,0%);fill-opacity:1;" d="M 378.996094 145.363281 L 359.09375 156.851562 C 359.09375 156.851562 345.375 142.292969 329.394531 114.609375 C 313.414062 86.929688 307.660156 67.769531 307.660156 67.769531 L 328.203125 55.910156 C 305.632812 33.429688 277.496094 16.539062 246.039062 7.480469 L 246.039062 32.191406 C 246.039062 32.191406 226.570312 36.792969 194.605469 36.792969 C 162.644531 36.792969 143.175781 32.191406 143.175781 32.191406 L 143.175781 6.507812 C 110.902344 15.136719 81.988281 31.964844 58.792969 54.628906 L 81.554688 67.769531 C 81.554688 67.769531 75.800781 86.929688 59.820312 114.609375 C 43.835938 142.292969 30.121094 156.851562 30.121094 156.851562 L 7.136719 143.582031 C 3.058594 159.339844 1.003906 175.554688 1.011719 191.832031 C 1.011719 208.871094 3.246094 225.386719 7.417969 241.117188 L 30.121094 228.007812 C 30.121094 228.007812 43.839844 242.570312 59.820312 270.25 C 75.800781 297.929688 81.554688 317.089844 81.554688 317.089844 L 59.5625 329.785156 C 82.628906 352.070312 111.261719 368.625 143.175781 377.15625 L 143.175781 352.667969 C 143.175781 352.667969 162.644531 348.066406 194.605469 348.066406 C 226.570312 348.066406 246.039062 352.667969 246.039062 352.667969 L 246.039062 376.183594 C 277.140625 367.222656 304.992188 350.605469 327.433594 328.507812 L 307.660156 317.089844 C 307.660156 317.089844 313.410156 297.929688 329.394531 270.246094 C 345.375 242.566406 359.09375 228.007812 359.09375 228.007812 L 378.738281 239.347656 C 382.691406 223.816406 384.683594 207.855469 384.675781 191.828125 C 384.683594 176.167969 382.773438 160.5625 378.996094 145.363281 Z M 192.84375 340.5625 C 110.703125 340.5625 44.113281 273.972656 44.113281 191.832031 C 44.113281 109.6875 110.703125 43.097656 192.84375 43.097656 C 274.984375 43.097656 341.574219 109.6875 341.574219 191.832031 C 341.574219 273.972656 274.984375 340.5625 192.84375 340.5625 Z M 192.84375 340.5625 "/>
    <path style=" stroke:none;fill-rule:nonzero;fill:rgb(0%,0%,0%);fill-opacity:1;" d="M 143.132812 190.695312 C 146.8125 190.253906 155.71875 183.851562 156.085938 172.003906 C 156.382812 156.988281 149.867188 145.214844 130.679688 145.214844 L 101.332031 145.214844 L 101.332031 243.09375 L 130.328125 243.09375 C 140.929688 243.09375 157.117188 237.355469 159.621094 219.25 C 162.121094 201.148438 152.554688 193.34375 143.132812 190.695312 Z M 118.652344 162.386719 L 127.878906 162.386719 C 135.039062 162.386719 138.917969 165.328125 138.917969 173.71875 C 138.917969 182.109375 132.195312 184.515625 127.777344 184.515625 L 118.652344 184.515625 Z M 129.5 225.679688 L 118.652344 225.679688 L 118.652344 200.261719 L 129.617188 200.261719 C 138.132812 200.261719 142.738281 203.644531 142.738281 213.28125 C 142.742188 222.917969 134.75 225.679688 129.5 225.679688 Z M 224.480469 175.730469 C 224.480469 152.867188 210.742188 145.214844 197.203125 145.214844 L 166.683594 145.214844 L 166.683594 243.09375 L 184.347656 243.09375 L 184.347656 207.621094 C 186.464844 207.621094 193.136719 207.613281 193.554688 207.605469 L 208.707031 243.09375 L 228.210938 243.09375 L 210.585938 203.628906 C 219.175781 198.992188 224.480469 190.09375 224.480469 175.730469 Z M 192.296875 190.253906 L 184.347656 190.253906 L 184.347656 162.386719 L 193.277344 162.386719 C 199.65625 162.386719 207.308594 164.742188 207.308594 176.417969 C 207.308594 188.097656 198.28125 190.253906 192.296875 190.253906 Z M 295.339844 145.214844 L 275.820312 145.214844 L 252.363281 184.6875 L 252.363281 145.214844 L 234.972656 145.214844 L 234.972656 243.09375 L 252.363281 243.09375 L 252.363281 217.199219 L 260.964844 202.792969 L 280.414062 243.09375 L 299.605469 243.09375 L 271.964844 184.367188 Z M 295.339844 145.214844 "/>
  </g>
</svg>