<svg xmlns="http://www.w3.org/2000/svg" viewBox="0 0 384 384"><path d="M141.04 190.55c3.831-.456 13.105-7.128 13.487-19.468.309-15.637-6.476-27.898-26.46-27.898H97.5v101.945h30.2c11.038 0 27.902-5.98 30.507-24.836 2.606-18.856-7.36-26.98-17.168-29.742zm-25.5-29.484h9.605c7.46 0 11.5 3.067 11.5 11.805s-7 11.242-11.602 11.242h-9.504zm11.3 65.918h-11.3v-26.468h11.42c8.868 0 13.669 3.523 13.669 13.558s-8.324 12.91-13.79 12.91zm98.922-52.015c0-23.817-14.309-31.785-28.41-31.785h-31.786v101.945h18.399v-36.945c2.203 0 9.152-.012 9.59-.024l15.78 36.969h20.313l-18.355-41.11c8.941-4.828 14.469-14.093 14.469-29.05zm-33.524 15.125h-8.277v-29.028h9.3c6.645 0 14.614 2.454 14.614 14.614 0 12.164-9.402 14.414-15.637 14.414zm86.157-46.91l-11.653 36.023-12.875-36.023h-20.39l21.003 49.515-22.23 52.43h19.469l13.183-36.945 14.41 36.945h20.239l-22.23-50.973 20.85-50.972zm0 0"/><path d="M377.98 145.363l-19.902 11.489s-13.715-14.559-29.695-42.243c-15.985-27.68-21.735-46.84-21.735-46.84l20.543-11.859c-22.57-22.48-50.707-39.37-82.164-48.43v24.711s-19.468 4.602-51.433 4.602-51.434-4.602-51.434-4.602V6.508c-32.27 8.629-61.183 25.457-84.379 48.12L80.54 67.77s-5.75 19.16-21.734 46.84c-15.98 27.683-29.696 42.242-29.696 42.242l-22.988-13.27A192.212 192.212 0 000 191.832c0 17.04 2.234 33.555 6.402 49.285l22.707-13.11s13.715 14.563 29.696 42.243c15.98 27.68 21.734 46.84 21.734 46.84l-21.988 12.695c23.062 22.285 51.695 38.84 83.61 47.371v-24.488s19.468-4.602 51.433-4.602 51.433 4.602 51.433 4.602v23.516c31.102-8.961 58.953-25.579 81.395-47.676l-19.774-11.418s5.75-19.16 21.735-46.844c15.98-27.68 29.695-42.238 29.695-42.238l19.649 11.34a192.246 192.246 0 005.933-47.52 192.074 192.074 0 00-5.68-46.465zm-186.148 195.2c-82.144 0-148.734-66.59-148.734-148.731 0-82.144 66.59-148.734 148.734-148.734 82.14 0 148.73 66.59 148.73 148.734 0 82.14-66.59 148.73-148.73 148.73zm0 0"/></svg>