<?xml version="1.0" encoding="UTF-8" standalone="yes"?>
<svg xmlns="http://www.w3.org/2000/svg" xmlns:xlink="http://www.w3.org/1999/xlink" width="512px" height="512px" viewBox="0 0 384 384" version="1.1">
  <g id="surface1">
    <path style=" stroke:none;fill-rule:nonzero;fill:rgb(0%,0%,0%);fill-opacity:1;" d="M 66.632812 230.195312 L 66.632812 0 L 17.761719 0 C 7.949219 0 0 7.949219 0 17.753906 L 0 65.828125 L 48.140625 65.828125 L 48.140625 152.855469 L 0 152.855469 L 0 366.015625 C 0 375.816406 7.953125 383.769531 17.761719 383.769531 L 172.402344 383.769531 C 110.570312 360.160156 66.632812 300.324219 66.632812 230.195312 Z M 353.5625 339.683594 L 291.792969 277.90625 C 302.128906 264.761719 308.34375 248.222656 308.34375 230.195312 C 308.34375 187.480469 273.714844 152.855469 231 152.855469 L 172.152344 152.855469 L 172.152344 65.828125 L 231 65.828125 C 300.355469 65.828125 359.636719 108.808594 383.773438 169.566406 L 383.773438 17.753906 C 383.773438 7.949219 375.820312 0 366.011719 0 L 153.660156 0 L 153.660156 230.195312 C 153.660156 272.910156 188.28125 307.539062 231 307.539062 C 249.023438 307.539062 265.5625 301.324219 278.710938 290.988281 L 340.484375 352.765625 C 325.554688 366.105469 308.320312 376.617188 289.617188 383.773438 L 366.011719 383.773438 C 375.820312 383.773438 383.773438 375.816406 383.773438 366.015625 L 383.773438 290.859375 C 376.640625 308.777344 366.417969 325.304688 353.5625 339.683594 Z M 353.5625 339.683594 "/>
  </g>
</svg>