<?xml version="1.0" encoding="UTF-8" standalone="yes"?>
<svg xmlns="http://www.w3.org/2000/svg" xmlns:xlink="http://www.w3.org/1999/xlink" width="512px" height="512px" viewBox="0 0 384 384" version="1.1">
  <g id="surface1">
    <path style=" stroke:none;fill-rule:nonzero;fill:rgb(0%,0%,0%);fill-opacity:1;" d="M 309.535156 190.90625 C 297.1875 181.605469 279.597656 177.886719 279.597656 177.886719 C 279.597656 177.886719 294.480469 169.257812 300.566406 160.632812 C 306.65625 152.007812 309.699219 138.644531 310.207031 131.710938 C 310.714844 124.773438 311.898438 95.683594 289.234375 78.941406 C 271.699219 65.988281 251.609375 60.847656 224.628906 59.171875 L 224.628906 0.46875 L 188.4375 0.46875 L 188.4375 58.480469 L 160.867188 58.480469 L 160.867188 0.46875 L 124.675781 0.46875 L 124.675781 58.480469 L 53.472656 58.480469 L 53.472656 96.066406 L 74.402344 96.066406 C 80.105469 96.066406 90.253906 96.699219 94.566406 101.527344 C 98.878906 106.34375 99.640625 108.882812 99.640625 118.265625 L 99.644531 268.035156 C 99.644531 271.585938 98.96875 275.980469 95.921875 278.855469 C 92.878906 281.734375 89.835938 282.40625 82.558594 282.40625 L 60.914062 282.40625 L 53.472656 325.878906 L 124.675781 325.878906 L 124.675781 383.722656 L 160.867188 383.722656 L 160.867188 325.878906 L 188.4375 325.878906 L 188.4375 383.722656 L 224.632812 383.722656 L 224.632812 324.921875 C 233.988281 324.375 242.710938 323.667969 247.800781 323 C 258.117188 321.652344 281.457031 318.945312 303.277344 303.722656 C 325.09375 288.496094 329.996094 264.648438 330.503906 240.632812 C 331.019531 216.617188 321.875 200.210938 309.535156 190.90625 Z M 160.867188 99.410156 C 160.867188 99.410156 172.367188 98.398438 183.699219 98.5625 C 195.035156 98.730469 205.007812 99.070312 219.898438 103.636719 C 234.777344 108.207031 243.566406 119.371094 243.910156 132.5625 C 244.246094 145.757812 238.492188 154.546875 228.347656 160.128906 C 218.203125 165.710938 204.171875 168.753906 190.972656 169.257812 C 177.785156 169.765625 160.867188 169.257812 160.867188 169.257812 Z M 241.878906 272.429688 C 233.59375 276.996094 217.015625 281.054688 200.953125 282.238281 C 184.882812 283.421875 160.867188 282.914062 160.867188 282.914062 L 160.867188 205.28125 C 160.867188 205.28125 183.871094 204.101562 201.800781 205.28125 C 219.726562 206.46875 234.777344 211.03125 241.539062 214.421875 C 248.304688 217.800781 260.148438 225.242188 260.148438 243.003906 C 260.148438 260.757812 250.160156 267.863281 241.878906 272.429688 Z M 241.878906 272.429688 "/>
  </g>
</svg>