<svg xmlns="http://www.w3.org/2000/svg" viewBox="0 0 384 384"><path d="M309.535 190.906c-12.348-9.3-29.937-13.02-29.937-13.02s14.882-8.628 20.968-17.253c6.09-8.625 9.133-21.988 9.641-28.922.508-6.938 1.691-36.027-20.973-52.77-17.535-12.953-37.625-18.093-64.605-19.77V.47h-36.191v58.01h-27.57V.47h-36.192v58.01H53.473v37.586h20.93c5.702 0 15.85.633 20.163 5.461 4.313 4.817 5.075 7.356 5.075 16.739l.004 149.77c0 3.55-.676 7.944-3.723 10.82-3.043 2.878-6.086 3.55-13.363 3.55H60.914l-7.441 43.473h71.203v57.844h36.191v-57.844h27.57v57.844h36.196v-58.801c9.355-.547 18.078-1.254 23.168-1.922 10.316-1.348 33.656-4.055 55.476-19.277 21.817-15.227 26.72-39.075 27.227-63.09.516-24.016-8.629-40.422-20.969-49.727zM160.867 99.41s11.5-1.012 22.832-.847c11.336.167 21.309.507 36.2 5.074 14.878 4.57 23.667 15.734 24.011 28.925.336 13.196-5.418 21.985-15.562 27.567-10.145 5.582-24.176 8.625-37.375 9.129-13.188.508-30.106 0-30.106 0zm81.012 173.02c-8.285 4.566-24.863 8.625-40.926 9.808-16.07 1.184-40.086.676-40.086.676v-77.633s23.004-1.18 40.934 0c17.926 1.188 32.976 5.75 39.738 9.14 6.766 3.38 18.61 10.821 18.61 28.583 0 17.754-9.989 24.86-18.27 29.426zm0 0"/></svg>