<svg height="505" viewBox="0 0 381 505" width="381" xmlns="http://www.w3.org/2000/svg"><g transform="translate(-2 -4)"><path d="m308.132591 294.212521c-12.236978 2.111358-18.305965 2.904357-30.69145 3.627969-5.653167.337024-11.326135.693873-17.009004 1.00116 16.434777 11.270493 26.731264 26.674492 21.394911 48.095368-9.94997 39.996869-62.135336 34.56483-100.72736 25.99053l-12.979513 53.180469h.0099l-.584127 2.329437-16.909999 69.22878 43.304646 10.804609 18.058453-72.440429c74.402016 14.09555 130.349562 8.395876 153.892871-58.979273 14.652693-41.880241 4.039395-74.145373-18.632677-94.218151-.485126.2379-.970249.455974-1.43557.624487-10.534097 3.806393-25.355097 8.633772-37.691081 10.755044"/><path d="m295.321386 206.190663c-12.306281 49.354253-88.23297 24.27567-112.865334 18.129931l21.721626-87.219938c24.632365 6.14574 103.954913 17.624395 91.143708 69.090007zm16.603084-171.4363939-43.631361-10.8938186-17.395122 69.8730927c-11.474643-2.8547951-23.256199-5.5509907-34.968453-8.2273611l17.523828-70.3389791-43.601661-10.8839066-17.880244 71.7366394c-9.494549-2.1609209-18.810889-4.3020174-27.859917-6.552151l-60.1255412-15.2652238-11.6132488 46.658058s32.37453 7.424449 31.701298 7.890336c17.662435 4.411055 20.860286 16.117697 20.32566 25.395781l-13.048816 52.407298-11.3657373 45.646984-24.5432596 98.539993c-2.1682027 5.382479-7.6431614 13.45124-19.9989452 10.378371.4356205.644311-31.7210991-7.920075-31.7210991-7.920075l-21.65232324 49.998566 56.77918334 14.174851c10.5637992 2.656546 20.9097882 5.432039 31.0973694 8.048935l-18.0485528 72.579198 43.5719585 10.89382 17.890146-71.825852 14.17747-52.555984 23.959132-96.17091c5.039338 1.229148 10.078677 2.329434 15.811048 3.637881 17.603031 4.103769 36.077304 5.620378 54.046654 6.968476 11.048922.822736 22.137446 1.377835 33.216069 1.239061 16.513981-.208163 33.364577-3.290945 48.977616-8.524736 13.108219-4.381317 28.701456-9.991783 38.433615-20.330503 11.385539-12.093229 17.108009-28.161364 19.533625-44.358361 7.910472-52.982222-32.374531-81.460785-87.460735-100.453103z"/></g></svg>