<svg xmlns="http://www.w3.org/2000/svg" viewBox="0 0 502 501"><path d="M250.608.778h.8c137.934 0 249.755 111.822 249.755 249.756 0 136.555-109.596 247.517-245.626 249.723l-4.929.033C112.674 500.29.852 388.47.852 250.534.852 112.6 112.674.778 250.608.778zm0 16.65c-128.738 0-233.106 104.368-233.106 233.106 0 127.452 102.29 231.016 229.251 233.075l4.654.031c128.739 0 233.106-104.367 233.106-233.106 0-127.45-102.29-231.015-229.25-233.074l-4.655-.031z"/><path d="M87.724 222.715c-3.064 18.998-3.089 38.454.1 57.444 5.353-9.882 11.397-19.365 17.658-28.705a393.135 393.135 0 01-17.758-28.74m198.29-71.463a266.184 266.184 0 00-30.704 9.416l.416.175c-8.924 2.423-17.283 6.91-25.816 10.54-.716 5.81-3.139 11.622-7.892 15.276-6.252 5.245-15.552 6.036-22.736 2.257-8.534 5.719-17 11.613-24.743 18.39-8.866 6.993-17.058 14.81-24.867 22.944-6.51 6.735-12.538 13.903-18.357 21.221 6.393 8.042 13.029 15.901 20.297 23.178l-.042.166c7.784 7.65 15.643 15.26 24.251 21.995 6.81 5.695 14.045 10.84 21.354 15.835 6.469-4.28 15.294-4.562 21.97-.6 6.794 3.813 10.648 11.589 10.415 19.265 8.3 3.913 16.667 7.7 25.309 10.806 10.182 3.838 20.613 7.026 31.186 9.607 9.949 2.465 20.056 4.23 30.204 5.678 3.963-9.774 7.518-19.722 10.323-29.904l.142-.067c2.839-10.656 5.353-21.412 7.043-32.318 1.349-8.292 2.181-16.642 2.88-25.017-5.37-2.348-9.857-6.81-11.763-12.397-3.846-10.081 1.782-22.178 11.738-26.107-.649-8.509-1.49-17.009-2.93-25.409-1.615-10.898-4.188-21.62-7.068-32.227-2.847-9.64-6.102-19.131-9.824-28.455-10.348 1.407-20.655 3.197-30.786 5.752M226.03 85.715c-10.273 1.765-20.496 4.18-30.253 7.918-17.517 6.21-33.75 15.693-48.328 27.156-8.209 6.902-16.101 14.253-22.844 22.62-12.239 14.552-22.204 31.228-28.556 49.127a290.101 290.101 0 0022.67 41.385c11.613-14.295 24.684-27.39 38.462-39.528 8.758-6.835 17.225-14.153 26.732-19.923l-.008-.224c1.449-.958 2.88-1.957 4.296-2.997.025-4.28 1.09-8.592 3.546-12.147 5.861-9.233 19.315-12.038 28.44-6.02 1.54-.698 3.088-1.414 4.645-2.114 9.432-4.653 19.347-8.208 29.096-12.071 17.575-5.803 35.632-10.224 53.898-13.254-7.002-13.645-14.87-26.849-23.944-39.237-19.064-3.53-38.695-3.646-57.852-.69m-16.74-17.884c28.339-6.785 58.201-6.61 86.598-.233.167.25.508.724.691.974 6.744 9.182 13.279 18.523 19.065 28.339 5.187 8.533 9.724 17.416 14.111 26.382 11.689-.69 23.436-1.232 35.15-.55 8.974.234 17.89 1.3 26.823 2.115l1.057.067c10.931 12.138 20.264 25.675 27.782 40.16-3.106 9.417-6.52 18.708-10.457 27.799-6.569-17.383-15.993-33.576-27.606-48.078-14.636-1.632-29.405-1.857-44.124-1.25 6.652 17.55 11.639 35.7 15.052 54.148 1.74 10.648 3.222 21.362 3.846 32.152-1.257 5.503 4.446 7.809 6.028 12.388 3.963 8.3 1.34 18.757-5.636 24.626-.092 1.09-.258 3.247-.35 4.32-.308 4.721-.666 9.433-1.257 14.128-.666 6.42-1.732 12.796-2.772 19.182-3.414 18.715-8.609 37.08-15.394 54.854a313.22 313.22 0 0043.3-.99c12.804-15.344 23.002-32.893 29.629-51.766 3.522-9.533 5.77-19.465 7.576-29.438 4.945 9.416 9.624 18.956 13.828 28.722l.475 1.04c-8.659 27.107-23.228 52.616-43.142 72.97-20.055.126-40.169 1.383-60.182-.382-4.82 8.974-9.341 18.124-14.644 26.84-9.275 3.605-18.824 6.469-28.564 8.467l-2.231.491c8.65-12.18 16.517-24.917 23.302-38.22-18.29-2.906-36.356-7.277-53.83-13.421-10.066-3.555-19.99-7.568-29.605-12.18-2.023-.99-4.055-1.931-6.078-2.88-5.794 2.58-12.729 2.789-18.407-.217-6.352-3.172-10.69-9.757-11.289-16.783-.766-.558-2.297-1.69-3.063-2.257-9.425-6.11-18.266-13.053-26.932-20.18-14.253-12.221-27.449-25.641-39.337-40.152-8.6 12.962-15.96 26.699-22.486 40.81 6.618 18.29 17.058 35.032 29.52 49.91 15.427 1.323 30.962 1.681 46.422.632.133.325.391.958.508 1.282 2.597 6.369 5.336 12.671 8.275 18.898-10.39.741-20.788 1.424-31.203 1.19-10.64-.14-21.237-.907-31.835-1.914-.6-.083-1.798-.225-2.39-.3-24.4-26.124-41.376-59.167-47.77-94.35-4.612-24.875-4.27-50.725 1.29-75.434 6.794-30.686 21.563-59.525 42.368-83.077 25.5-29.072 60.183-50.026 97.888-58.834"/></svg>