<svg width="502" height="501" xmlns="http://www.w3.org/2000/svg"><g fill="#000" fill-rule="nonzero"><path d="M253.608161,500.021683 L254.407381,500.021683 C392.341715,500.021683 504.163472,388.199926 504.163472,250.265592 C504.163472,113.7106 394.566968,2.74854663 258.537491,0.542961059 L253.608161,0.509500241 C115.673826,0.509500241 3.85206973,112.331257 3.85206973,250.265592 C3.85206973,388.199926 115.673826,500.021683 253.608161,500.021683 Z M253.608161,483.371277 C124.869592,483.371277 20.5024758,379.004161 20.5024758,250.265592 C20.5024758,122.814408 122.792686,19.2496858 249.753395,17.1911365 L254.407381,17.1599063 C383.14595,17.1599063 487.513066,121.527022 487.513066,250.265592 C487.513066,377.716775 385.222855,481.281497 258.262146,483.340047 L253.608161,483.371277 Z" transform="matrix(1 0 0 -1 -3 500.8)"/><path d="M90.7238985,278.08509 C87.6602237,259.086977 87.6352481,239.630977 90.8238009,220.641189 C96.1769064,230.523205 102.221004,240.005611 108.481557,249.346489 C102.146077,258.670717 96.2351829,268.253025 90.7238985,278.08509 M289.013585,349.548633 C278.598756,347.034422 268.33378,343.87917 258.310236,340.132828 L258.726496,339.957999 C249.801878,337.535365 241.443374,333.048081 232.910041,329.418292 C232.194074,323.6073 229.77144,317.796309 225.017749,314.141544 C218.765521,308.896667 209.466269,308.105772 202.281619,311.885414 C193.748286,306.166 185.281555,300.271756 177.539116,293.495041 C168.672775,286.50187 160.480775,278.684505 152.671734,270.550781 C146.161426,263.815692 140.133979,256.647692 134.314662,249.329839 C140.708418,241.287693 147.343604,233.428701 154.611507,226.152473 L154.569881,225.985969 C162.353945,218.335108 170.212937,210.725872 178.821197,203.990783 C185.631213,198.296344 192.865815,193.151369 200.175343,188.156247 C206.644026,192.435401 215.468741,192.718458 222.145554,188.755661 C228.938919,184.942718 232.793488,177.166979 232.560383,169.491142 C240.86061,165.578296 249.227439,161.790329 257.869,158.685028 C268.050723,154.847109 278.482203,151.658557 289.055211,149.077744 C299.003828,146.613484 309.110625,144.848541 319.259047,143.399955 C323.221844,153.173744 326.776706,163.122361 329.582299,173.304085 L329.723827,173.370686 C332.562722,184.026946 335.076933,194.783108 336.766949,205.689124 C338.115632,213.981027 338.948152,222.331205 339.647469,230.70636 C334.277714,233.054067 329.790429,237.516376 327.883958,243.102587 C324.037714,253.184408 329.665551,265.280928 339.622494,269.210424 C338.973128,277.718781 338.132283,286.218813 336.692022,294.618943 C335.076933,305.516634 332.504445,316.239496 329.623925,326.845804 C326.776706,336.486389 323.521551,345.977121 319.800185,355.301348 C309.451958,353.894389 299.145357,352.10447 289.013585,349.548633 M229.030497,415.084631 C218.757196,413.319688 208.533847,410.905379 198.776709,407.167363 C181.260482,400.956762 165.026336,391.474356 150.448905,380.010551 C142.240255,373.108958 134.347962,365.757803 127.604548,357.390974 C115.366499,342.838519 105.401231,326.163138 99.0491015,308.263951 C105.467833,293.894651 113.043768,280.033188 121.718629,266.879367 C133.332288,281.17374 146.402856,294.269285 160.181067,306.407431 C168.939181,313.242423 177.405913,320.560276 186.913294,326.329642 L186.904969,326.554422 C188.353555,327.511821 189.785489,328.510845 191.200774,329.551495 C191.22575,333.83065 192.291376,338.143105 194.74731,341.697967 C200.608253,350.930617 214.061782,353.73621 223.186204,347.717088 C224.726367,348.416405 226.274854,349.132373 227.831667,349.83169 C237.264122,354.485478 247.179439,358.04034 256.928252,361.903234 C274.502756,367.705901 292.560121,372.126584 310.825617,375.156958 C303.824121,388.801965 295.956804,402.005737 286.882333,414.393639 C267.817618,417.923526 248.186789,418.040078 229.030497,415.084631 M212.288513,432.967167 C240.627504,439.752208 270.490008,439.577379 298.887275,433.200273 C299.053779,432.950517 299.395113,432.47598 299.578267,432.226224 C306.321682,423.043525 312.856966,413.702648 318.642982,403.887233 C323.829584,395.3539 328.366819,386.470908 332.754201,377.504665 C344.442786,378.195657 356.189648,378.736795 367.903209,378.054128 C376.877777,377.821023 385.79407,376.755397 394.727013,375.939527 L395.784314,375.872925 C406.715305,363.734779 416.047858,350.197999 423.565516,335.712146 C420.460215,326.296341 417.046882,317.005414 413.109061,307.914293 C406.540476,325.297317 397.116346,341.489843 385.502688,355.99234 C370.866981,357.62408 356.098071,357.84886 341.379112,357.241121 C348.030949,339.691593 353.017746,321.54265 356.431079,303.094 C358.171046,292.446065 359.652932,281.731529 360.277323,270.942066 C359.020217,265.439107 364.722981,263.133025 366.30477,258.554164 C370.267566,250.253936 367.645127,239.797481 360.668607,233.928213 C360.57703,232.837612 360.410526,230.681384 360.318949,229.607433 C360.010916,224.887043 359.652932,220.174978 359.061843,215.479563 C358.395827,209.060832 357.330201,202.683726 356.28955,196.298295 C352.876217,177.583239 347.68129,159.217841 340.89625,141.443532 C355.340477,140.777516 369.801355,141.102199 384.195631,142.434232 C396.999793,157.777581 407.198167,175.327109 413.825029,194.200344 C417.346589,203.732702 419.594394,213.664669 421.400963,223.638262 C426.346134,214.222457 431.024898,204.681775 435.229126,194.916312 L435.703662,193.875661 C427.045451,166.7688 412.476346,141.260378 392.56246,120.905257 C372.507046,120.780379 352.393355,119.523273 332.379567,121.288216 C327.559275,112.313647 323.038689,103.164249 317.735535,94.4477613 C308.461259,90.8429484 298.912251,87.9790785 289.171763,85.9810298 L286.940609,85.4898428 C295.590495,97.6696149 303.457812,110.407176 310.242852,123.71085 C291.952381,126.616346 273.886691,130.987077 256.412089,137.131077 C246.346919,140.685939 236.423277,144.698687 226.807667,149.310849 C224.784643,150.301549 222.753294,151.242296 220.730269,152.19137 C214.935928,149.610557 208.001034,149.402427 202.323245,152.407825 C195.971115,155.579727 191.633685,162.164963 191.03427,169.191434 C190.268351,169.749223 188.736514,170.88145 187.970595,171.447564 C178.546465,177.558263 169.7051,184.501483 161.038563,191.627856 C146.785816,203.849255 133.590369,217.269482 121.701979,231.780311 C113.102044,218.81797 105.742565,205.081385 99.2156056,190.970165 C105.834142,172.679694 116.273947,155.937711 128.736776,141.060573 C144.163377,139.736866 159.698206,139.378882 175.158108,140.427858 C175.291311,140.103175 175.549392,139.470459 175.665945,139.145776 C178.263408,132.776996 181.0024,126.474817 183.941197,120.247566 C173.551344,119.506622 163.153165,118.823956 152.738336,119.057062 C142.098726,119.19859 131.500743,119.964509 120.902759,120.971858 C120.303345,121.05511 119.104516,121.196639 118.513426,121.271566 C94.1122561,147.396053 77.1371671,180.438784 70.7434111,215.621092 C66.1312487,240.496798 66.472582,266.346554 72.0338176,291.055756 C78.8271833,321.742455 93.5960935,350.580958 114.400776,374.132958 C139.900873,403.204567 174.583669,424.159103 212.288513,432.967167" transform="matrix(1 0 0 -1 -3 500.8)"/></g></svg>
