<svg viewBox="0 0 506 263" xmlns="http://www.w3.org/2000/svg">
  <path d="M241.92 131.06l67.482 68.658c17.991 18.3 41.912 28.375 67.348 28.375s49.347-10.065 67.338-28.375c37.212-37.857 37.212-99.44.01-137.308-18.001-18.309-41.912-28.385-67.348-28.385s-49.357 10.076-67.348 28.385l-67.482 68.65zm134.83 131.02c-34.447 0-66.826-13.64-91.177-38.4l-91.013-92.62 91.023-92.601c24.34-24.76 56.73-38.4 91.177-38.4 34.448 0 66.827 13.65 91.167 38.4 50.197 51.067 50.197 134.164 0 185.221-24.35 24.76-56.72 38.4-91.177 38.4z"/>
  <path d="M128.82 262.08c-34.448 0-66.827-13.64-91.168-38.4-50.196-51.057-50.196-134.164 0-185.221 24.341-24.76 56.72-38.4 91.167-38.4 34.448 0 66.826 13.64 91.167 38.4l4.3 4.383-23.828 23.94-4.3-4.372c-17.992-18.309-41.903-28.385-67.349-28.385-25.436 0-49.357 10.076-67.349 28.385-37.212 37.868-37.212 99.44 0 137.308 17.992 18.3 41.913 28.375 67.349 28.375 25.436 0 49.347-10.065 67.348-28.375l4.301-4.382 23.829 23.94-4.301 4.404c-24.361 24.76-56.73 38.4-91.167 38.4"/>
</svg>
