<svg xmlns="http://www.w3.org/2000/svg" viewBox="0 0 384 384"><path d="M226.547 33.605c0 17.165-.52 77.934-7.172 139.188-6.277 57.742-16.238 121.102-18.516 135.336 2.88.277 5.594.726 8.18 1.3 5.473-11.19 32.465-67.308 44.828-109.476 14.156-48.273 22.324-112.652 22.555-138.691.015-1.703.031-3.254.039-4.684-4.695-7.266-14.941-20.789-28.2-24.406-11.566-3.152-18.304-1.77-21.714-.309zm0 0"/><path d="M282.148 61.313c-.234 26.363-8.488 91.484-22.789 140.253-12.14 41.418-38.175 96-44.68 109.368a61.624 61.624 0 018.137 3.246c7-9.145 39.098-51.813 59.18-90.403 23.68-45.52 45.7-105.902 48.68-117.62l1.222-4.798c-2.632-8.136-8.918-23.28-21.117-31.246-12.594-8.222-23.629-9.129-28.633-9.027zm0 0"/><path d="M287.074 226.422c-19.8 38.047-51.094 79.93-59.172 90.535a60.755 60.755 0 019.356 7c8.594-8.445 44.441-44.098 68.3-74.152 27.54-34.688 54.907-83.39 59.383-93.95l2.329-5.5c-.637-6.988-2.586-18.093-8.52-26.312-6.95-9.617-17.61-14.445-22.574-16.277-3.75 14.496-26.547 75.312-49.102 118.656zM96.054 65.816c2.153 17.07 12.348 71.18 30.145 129.454 15.961 52.261 39.696 104.425 45.028 115.91a66.457 66.457 0 018.472-2.153c-2.101-12.441-12.976-77.902-19.715-139.457-7.355-67.277-10.351-124.285-10.75-135.867l-.03-1.14c-5.017-1.473-16.208-3.297-30.575 3.367-13.219 6.129-20.125 17.64-23.25 24.562.203 1.582.426 3.352.676 5.324zm58.903-32.308c.398 11.535 3.383 68.336 10.723 135.441 6.746 61.676 17.66 127.29 19.687 139.27a78.587 78.587 0 018.25-.434c.504 0 .988.027 1.492.035 2.07-12.93 12.215-77.199 18.567-135.648 6.629-60.969 7.144-121.477 7.144-138.57v-2.747c-5.386-4.8-17.879-14.195-33.168-14.195-15.285 0-27.515 9.395-32.77 14.192.024.867.044 1.726.075 2.656zm38.66 280.004c-31.222 0-45.469 18.61-49.68 25.52 26.403 19.363 43.18 27.929 49.918 27.929 6.754 0 25.872-10.367 49.372-27.094-4.325-7.27-18.606-26.355-49.61-26.355zm0 0"/><path d="M370.063 158.426c-4.934 11.347-32.426 60.176-60.024 94.941-24.004 30.25-59.988 66.043-68.73 74.64a60.164 60.164 0 016.523 8.536 561.515 561.515 0 0053.523-44.508c45.098-42.594 81.016-84.71 82.207-105.95.907-16.14-8.785-24.55-13.5-27.66zM15.796 154.32c10.293 26.09 29.922 57.004 58.344 91.875 33.699 41.364 66.699 70.649 74.976 77.785a59.722 59.722 0 016.113-4.886c-8.007-9.489-36.62-44.899-62.953-96.145-29.496-57.406-40.703-97.129-45.488-114.086l-.715-2.527-.031-.11c-6.598 1.766-23.25 7.29-29.785 19.364-3.344 6.176-4.367 12.605-4.426 18.074a272.435 272.435 0 003.965 10.656zm0 0"/><path d="M145.07 328.05c-8.922-7.714-41.832-37.066-75.375-78.234-27.77-34.082-47.265-64.511-58.047-90.53C7.602 162.843-.809 172.327.152 189.124c1.25 22.016 32.871 56.86 90.618 106.969 18.574 16.117 34.761 29.187 48.55 39.511a56.242 56.242 0 015.75-7.554zM51.586 104.763l.715 2.547c4.742 16.793 15.836 56.125 45.07 113.023 26.73 52.027 55.758 87.461 62.75 95.684a60.31 60.31 0 015.73-2.813c-5.753-12.418-29.257-64.289-45.128-116.262-17.907-58.629-28.18-113.18-30.348-130.406l-.082-.656c-5.055-.274-15.926.242-26.43 7.992-8.918 6.578-12.558 17.254-14.035 24.371a192.692 192.692 0 001.758 6.52zm0 0"/></svg>