<svg xmlns="http://www.w3.org/2000/svg" viewBox="0 0 351 383"><path d="M63.504 131.344l25.129 32.398c-3.309 5.95-5.281 13.223-5.281 20.496H.676V13.656c0-9.918 10.59-16.527 19.847-11.238L174.61 87.707l-31.078 54.215c-4.636-1.984-9.258-2.645-14.55-2.645-5.293 0-9.93 1.325-14.551 2.645l-24.47-31.734 19.833 2.644c3.977.66 8.602-.66 11.906-3.305 3.305-2.644 5.293-6.613 5.95-11.242.675-9.254-5.278-17.191-14.551-18.512L53.59 72.5c-3.98-.66-8.602.66-11.906 3.305-3.305 3.308-5.293 7.273-5.954 11.242l-7.28 59.504c-1.317 9.258 5.292 17.851 13.89 19.176 9.262.66 17.203-5.29 18.52-14.547zm58.195 98.515c2.645.66 4.633.66 7.281.66 2.649 0 5.954 0 9.258-.66l36.371 64.793-154.086 85.953c-9.257 5.29-19.847-1.324-19.847-11.242V198.781h84.648c1.989 5.29 4.637 10.578 7.942 15.207l-29.102 37.688-2.648-19.836c-1.317-9.254-9.258-15.867-18.516-14.543-9.258.66-15.867 9.254-14.555 17.851l7.285 59.504c0 4.63 2.649 8.594 5.954 11.239 3.304 2.644 7.93 3.968 11.906 3.308l59.508-7.273c9.273-1.324 15.882-9.258 14.55-18.512 0-4.629-2.644-8.598-5.949-11.242-3.304-2.645-7.27-3.969-11.906-3.305l-19.832 2.645zm222.867-39.675L185.184 92.332l-30.418 55.54c9.257 5.948 15.867 15.866 18.515 26.444h40.336l-14.554-14.546c-3.305-3.305-4.622-7.274-4.622-11.899 0-4.633 1.317-8.598 4.621-11.902 6.63-6.614 17.2-6.614 23.153 0l42.324 42.312c3.309 3.309 4.637 7.274 4.637 11.903 0 4.629-1.988 8.593-4.637 11.902l-42.324 42.312c-6.61 6.614-17.2 6.614-23.153 0-6.609-6.609-6.609-17.187 0-23.14l13.895-13.883h-44.973c-3.96 7.273-10.586 13.883-17.855 17.852l34.383 64.793 158.722-77.356c9.258-4.629 9.934-17.191 1.332-22.48zm0 0"/></svg>