<svg xmlns="http://www.w3.org/2000/svg" viewBox="0 0 384 384"><path d="M191.836 0C86.055 0 0 86.055 0 191.836c0 105.777 86.055 191.836 191.836 191.836 105.777 0 191.836-86.059 191.836-191.836C383.668 86.055 297.613 0 191.836 0zm0 353.59c-89.191 0-161.754-72.563-161.754-161.754 0-89.191 72.563-161.758 161.754-161.758 89.191 0 161.754 72.567 161.754 161.758 0 89.191-72.563 161.754-161.754 161.754zm0 0"/><path d="M191.836 105.723c-47.48 0-86.113 38.629-86.113 86.113 0 25.7 11.332 48.793 29.242 64.582 8.66-4.516 18.164-8.023 28.273-10.34-19.453-10.3-32.746-30.742-32.746-54.242 0-33.824 27.52-61.34 61.344-61.34s61.34 27.516 61.34 61.34c0 23.5-13.285 43.945-32.742 54.242 10.113 2.317 19.613 5.824 28.273 10.34 17.91-15.79 29.242-38.883 29.242-64.582 0-47.484-38.633-86.113-86.113-86.113zm0 0"/><path d="M191.836 50.871c-77.73 0-140.965 63.234-140.965 140.965 0 40.234 16.969 76.555 44.094 102.262 4.531-8.145 10.515-15.63 17.707-22.203-20.664-20.434-33.492-48.774-33.492-80.06 0-62.116 50.539-112.655 112.656-112.655 62.117 0 112.652 50.539 112.652 112.656 0 31.285-12.828 59.625-33.492 80.059 7.195 6.574 13.176 14.058 17.711 22.203 27.121-25.707 44.09-62.028 44.09-102.262 0-77.73-63.235-140.965-140.961-140.965zm0 0"/></svg>