<svg width="436" height="512" xmlns="http://www.w3.org/2000/svg"><g fill="#000" fill-rule="nonzero"><path d="M256.50243,511.187049 C324.186916,511.282243 389.12,484.366355 436.946542,436.444112 C434.003738,433.525234 410.533084,410.054579 407.614206,407.111776 C367.563364,447.258318 313.181308,469.795888 256.50243,469.724112 C256.50243,478.026168 256.50243,507.047477 256.50243,511.187049 Z" transform="translate(-1)"/><path d="M256.50243 511.187049C324.186916 511.282243 389.12 484.366355 436.946542 436.444112 434.003738 433.525234 410.533084 410.054579 407.614206 407.111776 367.563364 447.258318 313.181308 469.795888 256.50243 469.724112 256.50243 478.026168 256.50243 507.047477 256.50243 511.187049zM292.581682 3.34953271C292.557757 3.34953271 292.414206 3.34953271 292.39028 3.34953271 280.499439 1.65084112 268.512897.813457944 256.50243.813457944 256.50243 4.95252336 256.50243 38.1368224 256.50243 42.2998131 313.085607 42.2519626 367.371963 64.7416822 407.374953 104.768598 410.293832 101.84972 433.764486 78.3790654 436.70729 75.4362617 413.523738 52.2048598 386.05757 33.686729 355.84 20.886729 335.599252 12.3214953 314.32972 6.41196262 292.581682 3.34953271z" transform="translate(-1)"/><path d="M292.581682,3.34953271 C292.557757,3.34953271 292.414206,3.34953271 292.39028,3.34953271 C280.499439,1.65084112 268.512897,0.813457944 256.50243,0.813457944 C256.50243,4.95252336 256.50243,38.1368224 256.50243,42.2998131 C313.085607,42.2519626 367.371963,64.7416822 407.374953,104.768598 C410.293832,101.84972 433.764486,78.3790654 436.70729,75.4362617 C413.523738,52.2048598 386.05757,33.686729 355.84,20.886729 C335.599252,12.3214953 314.32972,6.41196262 292.581682,3.34953271 Z" transform="translate(-1)"/><path d="M94.2175701,256.04785 C94.1936449,166.44785 166.806729,93.7869159 256.406729,93.7629907 C299.376449,93.7629907 340.623551,110.797757 371.056449,141.158879 C373.975327,138.24 397.445981,114.769346 400.388785,111.826542 C320.741682,32.2990654 191.688972,32.4186916 112.185421,112.065794 C32.6579439,191.712897 32.7536449,320.741682 112.400748,400.269159 C192.04785,479.77271 321.028785,479.700935 400.556262,400.077757 C397.637383,397.158879 374.166729,373.688224 371.223925,370.745421 C340.814953,401.226168 299.543925,418.308785 256.50243,418.237009 C166.90243,418.260935 94.2414953,345.64785 94.2175701,256.04785 Z" transform="translate(-1)"/><path d="M94.2175701,256.04785 C94.1936449,166.44785 166.806729,93.7869159 256.406729,93.7629907 C299.376449,93.7629907 340.623551,110.797757 371.056449,141.158879 C373.975327,138.24 397.445981,114.769346 400.388785,111.826542 C320.741682,32.2990654 191.688972,32.4186916 112.185421,112.065794 C32.6579439,191.712897 32.7536449,320.741682 112.400748,400.269159 C192.04785,479.77271 321.028785,479.700935 400.556262,400.077757 C397.637383,397.158879 374.166729,373.688224 371.223925,370.745421 C340.814953,401.226168 299.543925,418.308785 256.50243,418.237009 C166.90243,418.260935 94.2414953,345.64785 94.2175701,256.04785 Z" transform="translate(-1)"/><path d="M105.605981,104.768598 C103.668037,102.830654 93.8826168,93.0452336 76.2736449,75.4362617 C76.1779439,75.5558879 76.1300935,75.6037383 76.1061682,75.6276636 C-23.5424299,175.13271 -23.6620561,336.580187 75.8429907,436.228785 C75.9386916,436.324486 76.0343925,436.420187 76.1061682,436.515888 C79.048972,433.573084 102.519626,410.10243 105.438505,407.159626 C65.2441121,367.13271 42.6826168,312.726729 42.7543925,256 C42.7304673,199.225421 65.3637383,144.795514 105.605981,104.768598 Z" transform="translate(-1)"/><path d="M105.605981 104.768598C103.668037 102.830654 93.8826168 93.0452336 76.2736449 75.4362617 76.1779439 75.5558879 76.1300935 75.6037383 76.1061682 75.6276636-23.5424299 175.13271-23.6620561 336.580187 75.8429907 436.228785 75.9386916 436.324486 76.0343925 436.420187 76.1061682 436.515888 79.048972 433.573084 102.519626 410.10243 105.438505 407.159626 65.2441121 367.13271 42.6826168 312.726729 42.7543925 256 42.7304673 199.225421 65.3637383 144.795514 105.605981 104.768598zM295.95514 295.691963C273.776449 317.48785 238.151776 317.200748 216.355888 295.045981 194.536075 272.891215 194.847103 237.242617 217.001869 215.446729 239.13271 193.650841 274.757383 193.937944 296.553271 216.068785 299.47215 213.125981 322.847103 189.655327 325.765981 186.712523 287.748785 148.48 225.902056 148.288598 187.645607 186.305794 149.389159 224.322991 149.221682 286.16972 187.238879 324.426168 225.208224 362.634766 286.959252 362.874019 325.239626 324.952523 319.377944 319.090841 301.792897 301.553645 295.95514 295.691963z" transform="translate(-1)"/><path d="M295.95514,295.691963 C273.776449,317.48785 238.151776,317.200748 216.355888,295.045981 C194.536075,272.891215 194.847103,237.242617 217.001869,215.446729 C239.13271,193.650841 274.757383,193.937944 296.553271,216.068785 C299.47215,213.125981 322.847103,189.655327 325.765981,186.712523 C287.748785,148.48 225.902056,148.288598 187.645607,186.305794 C149.389159,224.322991 149.221682,286.16972 187.238879,324.426168 C225.208224,362.634766 286.959252,362.874019 325.239626,324.952523 C319.377944,319.090841 301.792897,301.553645 295.95514,295.691963 Z" transform="translate(-1)"/><path d="M256.50243,146.135327 L256.50243,104.648972 C256.382804,104.648972 256.334953,104.648972 256.334953,104.648972 C216.308037,104.648972 177.955888,120.535327 149.652336,148.814953 C149.628411,148.814953 149.48486,148.958505 149.460935,148.98243 C90.317757,208.005981 90.1981308,303.826542 149.221682,362.96972 C177.64486,391.464673 216.260187,407.446729 256.50243,407.422857 C256.50243,403.259813 256.50243,370.051589 256.50243,365.888598 C195.804112,365.242617 147.116262,315.549907 147.762243,254.851589 C148.384299,195.134206 196.593645,146.853084 256.334953,146.135327 C256.358879,146.135327 256.406729,146.135327 256.50243,146.135327 Z" transform="translate(-1)"/><path d="M256.50243,146.135327 L256.50243,104.648972 C256.382804,104.648972 256.334953,104.648972 256.334953,104.648972 C216.308037,104.648972 177.955888,120.535327 149.652336,148.814953 C149.628411,148.814953 149.48486,148.958505 149.460935,148.98243 C90.317757,208.005981 90.1981308,303.826542 149.221682,362.96972 C177.64486,391.464673 216.260187,407.446729 256.50243,407.422857 C256.50243,403.259813 256.50243,370.051589 256.50243,365.888598 C195.804112,365.242617 147.116262,315.549907 147.762243,254.851589 C148.384299,195.134206 196.593645,146.853084 256.334953,146.135327 C256.358879,146.135327 256.406729,146.135327 256.50243,146.135327 Z" transform="translate(-1)"/></g></svg>
