<?xml version="1.0" encoding="UTF-8" standalone="yes"?>
<svg xmlns="http://www.w3.org/2000/svg" xmlns:xlink="http://www.w3.org/1999/xlink" width="512px" height="512px" viewBox="0 0 384 384" version="1.1">
  <g id="surface1">
    <path style=" stroke:none;fill-rule:nonzero;fill:rgb(0%,0%,0%);fill-opacity:1;" d="M 201.304688 78.660156 L 115.539062 78.660156 L 115.539062 178.972656 L 191.832031 178.972656 L 191.832031 204.179688 L 115.539062 204.179688 L 115.539062 302.464844 L 199.78125 302.464844 C 244.949219 302.464844 286.902344 276.75 286.902344 191.492188 C 287.070312 106.234375 235.476562 78.660156 201.304688 78.660156 Z M 201.304688 78.660156 "/>
    <path style=" stroke:none;fill-rule:nonzero;fill:rgb(0%,0%,0%);fill-opacity:1;" d="M 0 0 L 0 383.660156 L 383.660156 383.660156 L 383.660156 0 Z M 200.121094 339.847656 L 76.96875 339.847656 L 76.96875 204.179688 L 48.378906 204.179688 L 48.378906 178.972656 L 76.96875 178.972656 L 76.96875 41.445312 L 202.148438 41.445312 C 252.222656 41.445312 327.332031 78.152344 327.332031 191.832031 C 327.332031 305.507812 266.261719 339.847656 200.121094 339.847656 Z M 200.121094 339.847656 "/>
  </g>
</svg>