<svg xmlns="http://www.w3.org/2000/svg" viewBox="0 0 384 384"><path d="M384.184 163.98c0-66.41-53.84-120.261-120.25-120.261h-95.047l64.765 56.218h30.282c35.308 0 64.035 28.731 64.035 64.043 0 35.313-28.727 64.047-64.035 64.047h-95.047l129.531 112.434h85.758l-74.942-65.059c43.957-17.89 74.95-61.043 74.95-111.422zm0 0"/><path d="M120.258 284.242c-35.309 0-64.04-28.734-64.04-64.039 0-35.312 28.735-64.035 64.04-64.035h95.039L85.762 43.718H.008l74.941 65.06C30.992 126.667 0 169.823 0 220.202 0 286.624 53.84 340.46 120.258 340.46h95.039l-64.766-56.219zm0 0"/></svg>