<?xml version="1.0" encoding="UTF-8" standalone="yes"?>
<svg xmlns="http://www.w3.org/2000/svg" xmlns:xlink="http://www.w3.org/1999/xlink" width="512px" height="512px" viewBox="0 0 384 384" version="1.1">
  <g id="surface1">
    <path style=" stroke:none;fill-rule:nonzero;fill:rgb(0%,0%,0%);fill-opacity:1;" d="M 384.183594 163.980469 C 384.183594 97.570312 330.34375 43.71875 263.933594 43.71875 L 168.886719 43.71875 L 233.652344 99.9375 L 263.933594 99.9375 C 299.242188 99.9375 327.96875 128.667969 327.96875 163.980469 C 327.96875 199.292969 299.242188 228.027344 263.933594 228.027344 L 168.886719 228.027344 L 298.417969 340.460938 L 384.175781 340.460938 L 309.234375 275.402344 C 353.191406 257.511719 384.183594 214.359375 384.183594 163.980469 Z M 384.183594 163.980469 "/>
    <path style=" stroke:none;fill-rule:nonzero;fill:rgb(0%,0%,0%);fill-opacity:1;" d="M 120.257812 284.242188 C 84.949219 284.242188 56.21875 255.507812 56.21875 220.203125 C 56.21875 184.890625 84.953125 156.167969 120.257812 156.167969 L 215.296875 156.167969 L 85.761719 43.71875 L 0.0078125 43.71875 L 74.949219 108.777344 C 30.992188 126.667969 0 169.824219 0 220.203125 C 0 286.625 53.839844 340.460938 120.257812 340.460938 L 215.296875 340.460938 L 150.53125 284.242188 Z M 120.257812 284.242188 "/>
  </g>
</svg>