<svg xmlns="http://www.w3.org/2000/svg" viewBox="0 0 384 384"><path d="M0 91.348v201.304h38.777V130.641h52.239c40.394 0 58.168 14.535 85.632 73.742 27.762 59.836 58.707 88.27 113.641 88.27H384v-38.216h-93.71c-35.005 0-52.243-12.382-78.09-66.742-25.856-54.363-53.321-96.347-121.18-96.347zm290.29 0c-38.731 0-65.54 14.132-87.716 43.449 8.004 11.887 15.09 24.879 21.656 38.207 19.891-34.754 36.743-43.441 66.06-43.441H384V91.347zM160.628 210.789c-19.727 33.41-37.54 42.57-69.613 42.57H56.012v39.293H91.02c43.21 0 70.046-17.023 90.511-43.43-7.37-11.214-14.113-23.8-20.515-37.597zm0 0"/></svg>