<?xml version="1.0" encoding="UTF-8" standalone="yes"?>
<svg xmlns="http://www.w3.org/2000/svg" xmlns:xlink="http://www.w3.org/1999/xlink" width="512px" height="512px" viewBox="0 0 384 384" version="1.1">
  <g id="surface1">
    <path style=" stroke:none;fill-rule:nonzero;fill:rgb(0%,0%,0%);fill-opacity:1;" d="M 0 91.347656 L 0 292.652344 L 38.777344 292.652344 L 38.777344 130.640625 L 91.015625 130.640625 C 131.410156 130.640625 149.183594 145.175781 176.648438 204.382812 C 204.410156 264.21875 235.355469 292.652344 290.289062 292.652344 L 384 292.652344 L 384 254.4375 L 290.289062 254.4375 C 255.285156 254.4375 238.046875 242.054688 212.199219 187.695312 C 186.34375 133.332031 158.878906 91.347656 91.019531 91.347656 Z M 290.289062 91.347656 C 251.558594 91.347656 224.75 105.480469 202.574219 134.796875 C 210.578125 146.683594 217.664062 159.675781 224.230469 173.003906 C 244.121094 138.25 260.972656 129.5625 290.289062 129.5625 L 384 129.5625 L 384 91.347656 Z M 160.628906 210.789062 C 140.902344 244.199219 123.089844 253.359375 91.015625 253.359375 L 56.011719 253.359375 L 56.011719 292.652344 L 91.019531 292.652344 C 134.230469 292.652344 161.066406 275.628906 181.53125 249.222656 C 174.160156 238.007812 167.417969 225.421875 161.015625 211.625 Z M 160.628906 210.789062 "/>
  </g>
</svg>