<svg width="512px" height="501px" viewBox="0 0 512 501" version="1.1" xmlns="http://www.w3.org/2000/svg" xmlns:xlink="http://www.w3.org/1999/xlink">
<!--Generator: Sketch 51.1 (57501) - http://www.bohemiancoding.com/sketch-->
  <desc>
    Created with Sketch.
  </desc>
  <defs/>
  <g id="Page-1" stroke="none" stroke-width="1" fill="none" fill-rule="evenodd">
    <g id="dgb-—-копия" fill="#000000" fill-rule="nonzero">
      <path d="M376.021022,45.6162973 L390.487078,7.90811074 C391.933684,4.05049575 389.136913,0 385.086417,0 L331.369128,0 L314.395622,44.1696917 L290.57485,44.1696917 L304.462264,7.90811074 C305.908869,4.05049575 303.112098,0 299.061603,0 L245.344314,0 L228.370808,44.1696917 L60.3716747,44.1696917 C52.7528851,44.1696917 45.6162973,48.3166278 41.8551227,54.9710137 L0,128.844341 L58.5393076,128.844341 L313.91342,128.844341 C324.328981,128.844341 334.648101,130.773148 344.292138,134.727204 C362.80869,142.345993 384.700655,159.60882 379.203554,198.474292 C370.041718,263.571545 303.690741,378.914233 159.705261,380.7466 L234.15723,186.901447 C237.243322,178.896895 231.360459,170.410142 222.777266,170.410142 L122.961478,170.410142 L2.41100937,466.674974 C2.41100937,466.674974 26.7139838,469.664626 64.8079319,469.664626 L52.8493254,500.814867 L107.723899,500.814867 C112.063716,500.814867 116.017771,498.114536 117.657257,494.064041 L127.976377,467.253616 C136.077369,466.578534 144.274801,465.71057 152.761554,464.746167 L138.87414,500.814867 L193.748713,500.814867 C198.08853,500.814867 202.042585,498.114536 203.682072,494.064041 L219.305413,453.269762 C309.477163,432.727962 406.39974,387.979628 463.974644,293.564501 C580.185295,103.191201 459.441946,54.0066099 376.021022,45.6162973 Z" id="Shape"/>
    </g>
  </g>
</svg>
