<svg xmlns="http://www.w3.org/2000/svg" viewBox="0 0 368 384"><path d="M340.8 244.398c-14.402-.796-6.402-23.597-12.8-49.597-7.602-28.801 3.602-48.801 18.398-48 5.204.398 12 3.199 19.204 8C362.8 141.6 358 129.199 352 119.199c-13.2-22-42-54-78-79.199v241.2c0 13.6-11.2 24.402-24.398 24.402-9.602 0-18-5.602-22-14-14.403 8.796-31.204 14-49.602 14-52.398 0-94.8-42.403-94.8-94.801C83.2 158.398 125.601 116 178 116c17.2 0 33.2 4.8 47.2 12.8V35.2c0-7.598 3.198-14.4 8.8-18.802C187.2-5.199 134.8-9.602 90 30 14.8 96.8-22.8 190 14.8 282.8c.802 2 1.598 4 2.4 5.598 1.198-2.398 2.402-4 4.402-6 19.597-20 41.199 20.801 87.199 44.403 29.199 14.8 46 34.398 52.398 52.8 42.801 5.2 86.801-1.601 122-22C329.2 331.2 356 283.2 365.602 234.399c-9.204 7.204-18.801 10.403-24.801 10zM184 54.801c10.8-.403 20.8 12.398 21.2 18.398.402 6-9.2 3.602-19.598 7.2-11.602 4-20 .402-20.403-5.598-.398-6 7.602-19.602 18.801-20zm0 0"/><path d="M160.398 246c23.204 13.2 51.204 8 56.403-21.602 2.8-17.199 1.199-44-14-52.398-50.403-28.8-92.801 45.2-42.403 74zm0 0"/></svg>