<?xml version="1.0" encoding="UTF-8" standalone="yes"?>
<svg xmlns="http://www.w3.org/2000/svg" xmlns:xlink="http://www.w3.org/1999/xlink" width="432px" height="510.66666666666663px" viewBox="0 0 324 383" version="1.1">
  <g id="surface1">
    <path style=" stroke:none;fill-rule:evenodd;fill:rgb(0%,0%,0%);fill-opacity:1;" d="M 227.835938 383 L 33.117188 383 C 23.277344 383 15.296875 379.941406 9.175781 373.824219 C 3.058594 367.707031 0 359.726562 0 349.886719 L 0 84.976562 C 0.265625 77.796875 2.925781 71.347656 7.980469 65.628906 C 13.035156 59.910156 19.019531 56.785156 25.9375 56.253906 C 31.789062 55.457031 37.574219 55.121094 43.292969 55.253906 C 49.011719 55.386719 54.929688 55.457031 61.050781 55.457031 L 65.039062 55.457031 L 65.039062 32.714844 C 65.039062 25.265625 67.234375 18.617188 71.625 12.765625 C 76.011719 6.914062 81.929688 3.058594 89.378906 1.195312 C 90.175781 0.929688 90.976562 0.730469 91.773438 0.597656 C 92.570312 0.464844 93.371094 0.265625 94.167969 0 L 294.871094 0 C 296.46875 0.265625 297.929688 0.597656 299.261719 0.996094 C 300.589844 1.394531 302.054688 1.863281 303.648438 2.394531 C 310.035156 5.054688 315.023438 9.109375 318.613281 14.5625 C 322.203125 20.015625 324 26.464844 324 33.910156 L 324 296.027344 C 323.734375 304.007812 321.140625 310.988281 316.21875 316.972656 C 311.296875 322.957031 304.847656 326.214844 296.867188 326.746094 C 291.585938 327.542969 286.246094 327.875 280.90625 327.746094 C 275.585938 327.613281 270.398438 327.542969 265.34375 327.542969 L 259.757812 327.542969 L 259.757812 351.882812 C 259.492188 357.199219 258.097656 362.054688 255.570312 366.441406 C 253.042969 370.832031 249.515625 374.488281 244.996094 377.414062 C 241.804688 379.277344 238.878906 380.605469 236.214844 381.402344 C 233.554688 382.203125 230.761719 382.734375 227.835938 383 Z M 20.75 219.425781 L 20.75 349.089844 C 20.75 353.609375 21.8125 356.867188 23.941406 358.863281 C 26.070312 360.859375 29.261719 361.855469 33.515625 361.855469 L 224.644531 361.855469 C 229.167969 361.855469 232.425781 360.859375 234.421875 358.863281 C 236.417969 356.867188 237.414062 353.609375 237.414062 349.089844 L 237.414062 89.367188 C 237.414062 85.644531 236.351562 82.71875 234.222656 80.589844 C 232.09375 78.460938 229.035156 77.398438 225.042969 77.398438 L 33.117188 77.398438 C 29.128906 77.398438 26.070312 78.460938 23.941406 80.589844 C 21.8125 82.71875 20.75 85.644531 20.75 89.367188 Z M 258.960938 306.398438 L 293.675781 306.398438 C 296.335938 306.398438 298.597656 305.335938 300.457031 303.207031 C 302.320312 301.082031 303.25 298.554688 303.25 295.628906 L 303.25 32.714844 C 303.25 29.523438 302.1875 26.863281 300.058594 24.734375 C 297.929688 22.609375 295.269531 21.542969 292.078125 21.542969 L 98.957031 21.542969 C 94.964844 21.542969 91.90625 22.609375 89.777344 24.734375 C 87.648438 26.863281 86.585938 29.921875 86.585938 33.910156 L 86.585938 55.457031 L 225.84375 55.457031 C 235.417969 55.457031 243.332031 58.582031 249.582031 64.832031 C 255.835938 71.082031 258.960938 78.992188 258.960938 88.570312 Z M 129.28125 307.597656 C 127.152344 307.597656 125.289062 307.132812 123.695312 306.199219 C 122.097656 305.269531 120.769531 303.875 119.703125 302.011719 C 112.835938 290.652344 105.984375 279.28125 99.15625 267.902344 C 92.371094 256.597656 85.390625 245.226562 78.207031 233.789062 C 77.675781 232.460938 77.011719 231.128906 76.210938 229.800781 L 73.816406 225.808594 C 72.222656 223.683594 71.492188 221.488281 71.625 219.226562 C 71.757812 216.964844 72.488281 214.507812 73.816406 211.847656 C 79.402344 203.335938 84.722656 194.757812 89.777344 186.113281 C 94.839844 177.460938 100.027344 168.882812 105.339844 160.382812 C 107.734375 156.125 110.128906 152.003906 112.523438 148.011719 L 119.703125 136.042969 L 129.082031 130.460938 C 135.332031 126.734375 138.457031 128.597656 138.457031 136.042969 C 146.167969 148.535156 153.746094 161.101562 161.203125 173.746094 C 168.621094 186.332031 176.070312 198.898438 183.546875 211.449219 C 185.144531 213.839844 185.941406 216.300781 185.941406 218.828125 C 185.941406 221.355469 185.144531 223.949219 183.546875 226.609375 C 176.128906 239.058594 168.679688 251.496094 161.203125 263.910156 C 153.6875 276.386719 146.105469 288.820312 138.457031 301.214844 C 137.660156 303.074219 136.53125 304.539062 135.066406 305.601562 C 133.601562 306.667969 131.675781 307.332031 129.28125 307.597656 Z M 129.28125 161.976562 C 129.015625 162.773438 128.75 163.242188 128.484375 163.375 C 128.214844 163.507812 128.082031 163.707031 128.082031 163.972656 C 122.777344 172.996094 117.386719 181.972656 111.921875 190.902344 C 106.613281 199.578125 101.359375 208.289062 96.164062 217.035156 C 95.894531 217.300781 95.832031 217.898438 95.964844 218.828125 C 96.097656 219.757812 96.164062 220.492188 96.164062 221.023438 C 100.761719 228.597656 105.351562 236.175781 109.929688 243.761719 C 114.566406 251.449219 119.15625 259.160156 123.695312 266.902344 C 124.757812 268.5 125.757812 269.960938 126.6875 271.292969 C 127.617188 272.621094 128.484375 274.085938 129.28125 275.679688 C 129.8125 275.148438 130.210938 274.683594 130.476562 274.285156 C 130.742188 273.886719 131.007812 273.285156 131.277344 272.488281 C 136.394531 263.871094 141.582031 255.292969 146.835938 246.753906 C 152.128906 238.160156 157.449219 229.582031 162.796875 221.023438 C 163.0625 220.226562 163.195312 219.425781 163.195312 218.628906 C 163.195312 217.832031 163.0625 217.300781 162.796875 217.035156 C 159.109375 211.242188 155.519531 205.390625 152.023438 199.480469 L 141.648438 181.925781 C 139.789062 178.734375 137.859375 175.542969 135.863281 172.351562 C 133.871094 169.160156 131.675781 165.699219 129.28125 161.976562 Z M 193.921875 324.753906 L 193.921875 317.171875 C 193.921875 313.980469 194.917969 311.386719 196.914062 309.390625 C 198.910156 307.398438 201.503906 306.398438 204.695312 306.398438 C 207.621094 306.398438 210.082031 307.398438 212.078125 309.390625 C 214.070312 311.386719 215.203125 313.847656 215.46875 316.773438 L 215.46875 332.730469 L 212.277344 339.714844 C 210.148438 344.367188 207.621094 345.363281 204.695312 342.707031 C 201.769531 340.046875 199.308594 339.046875 197.3125 339.714844 C 195.316406 340.378906 194.1875 338.050781 193.921875 332.730469 Z M 64.242188 112.90625 L 64.242188 122.082031 C 63.976562 124.742188 62.84375 127 60.851562 128.863281 C 58.855469 130.726562 56.660156 131.65625 54.265625 131.65625 C 51.339844 131.65625 48.878906 130.726562 46.882812 128.863281 C 44.890625 127 43.625 124.742188 43.09375 122.082031 L 43.09375 104.128906 L 46.484375 97.144531 C 48.746094 92.492188 51.339844 91.628906 54.265625 94.554688 C 56.660156 94.554688 58.921875 95.550781 61.050781 97.546875 C 63.175781 99.539062 64.242188 101.867188 64.242188 104.527344 C 64.507812 105.855469 64.574219 107.253906 64.441406 108.714844 C 64.308594 110.179688 64.242188 111.574219 64.242188 112.90625 Z M 64.242188 112.90625 "/>
  </g>
</svg>