<svg xmlns="http://www.w3.org/2000/svg" viewBox="0 0 512 503"><circle cx="404.76" cy="250.905" r="107.24"/><circle cx="269.246" cy="51.709" r="51.709"/><circle cx="269.246" cy="450.356" r="51.709"/><path d="M245.556 328.342c3.057 1.02 6.368 1.529 9.68 1.529 17.83 0 32.35-14.52 32.35-32.35s-14.52-32.35-32.35-32.35c-11.463 0-21.397 5.858-27.256 14.773v.255c-1.019 1.274-1.783 2.802-2.292 4.33-35.662 62.918-107.24 20.888-107.24 20.888-11.718-6.878-25.218-10.953-39.992-10.953-43.049 0-77.947 34.897-77.947 77.946s34.898 77.946 77.947 77.946c30.057 0 56.294-17.066 69.03-42.03v-.254c2.293-4.33 4.076-8.916 5.605-13.756 37.19-85.333 92.465-65.974 92.465-65.974zm-18.34-114.372c1.528 2.802 3.566 5.604 5.859 7.897 12.736 12.736 33.114 12.736 45.596 0 12.736-12.737 12.736-33.115 0-45.596-8.152-8.152-19.36-10.954-29.549-8.661h-.254c-1.529.255-3.312.764-4.84 1.528-69.795 19.36-90.683-61.134-90.683-61.134-3.311-13.246-10.189-25.727-20.378-35.916C102.4 41.52 53.237 41.52 22.925 71.833c-30.312 30.312-30.567 79.73 0 110.042 21.397 21.397 51.71 27.765 78.71 19.104h.256c4.585-1.528 9.17-3.566 13.755-5.859 86.352-34.133 111.57 18.85 111.57 18.85z"/></svg>