<svg height="503" viewBox="0 0 512 503" width="512" xmlns="http://www.w3.org/2000/svg"><g><circle cx="404.760199" cy="250.905473" r="107.239801"/><circle cx="269.245771" cy="51.709453" r="51.709453"/><circle cx="269.245771" cy="450.356219" r="51.709453"/><path d="m245.556219 328.342289c3.056716 1.018905 6.368159 1.528358 9.679602 1.528358 17.830846 0 32.350249-14.519403 32.350249-32.350249s-14.519403-32.350249-32.350249-32.350249c-11.462687 0-21.397015 5.858707-27.255721 14.77413v.254726c-1.018906 1.273632-1.783085 2.80199-2.292538 4.330348-35.661691 62.917413-107.239801 20.887562-107.239801 20.887562-11.717413-6.877612-25.2179103-10.953233-39.9920396-10.953233-43.0487562 0-77.94626866 34.897512-77.94626866 77.946268s34.89751246 77.946269 77.94626866 77.946269c30.0577116 0 56.2945276-17.066667 69.0308456-42.029851v-.254726c2.292537-4.330348 4.075622-8.915423 5.60398-13.755224 37.19005-85.333333 92.465672-65.974129 92.465672-65.974129zm-18.340299-114.37214c1.528359 2.80199 3.56617 5.60398 5.858707 7.896518 12.736318 12.736318 33.114428 12.736318 45.59602 0 12.736318-12.736319 12.736318-33.114428 0-45.59602-8.151244-8.151244-19.359204-10.953234-29.548259-8.660697h-.254726c-1.528359.254727-3.311443.764179-4.839801 1.528358-69.795025 19.359204-90.682587-61.134328-90.682587-61.134328-3.311443-13.245771-10.189055-25.7273631-20.37811-35.9164178-30.567164-30.5671642-79.7293531-30.5671642-110.0417909-.2547264-30.31243778 30.3124382-30.56716414 79.7293532 0 110.0417912 21.397015 21.397015 51.7094528 27.765174 78.7104479 19.104477h.254726c4.585075-1.528358 9.17015-3.566169 13.755224-5.858706 86.352239-34.133333 111.570149 18.849751 111.570149 18.849751z"/></g></svg>