<svg xmlns="http://www.w3.org/2000/svg" viewBox="0 0 512 511">
  <path fill="#000" fill-rule="nonzero" d="M256.132987 510.936104c-141.017662 0-255.33506492-114.317403-255.33506492-255.335065C.79792208 114.583377 115.115325.26597403 256.132987.26597403S511.468052 114.583377 511.468052 255.601039c0 141.017662-114.317403 255.335065-255.335065 255.335065zm0-504.41974036c-83.515844 0-157.4566234 41.09298696-202.6722078 104.26181836C98.2774026 56.7854545 165.834805 22.4748052 241.371429 22.4748052c134.848831 0 244.164155 109.3153248 244.164155 244.1641558 0 101.868052-62.503896 189.24052-151.206233 225.811948 99.341298-32.847792 171.021298-126.337662 171.021298-236.716883 0-137.641558-111.576104-249.21766236-249.217662-249.21766236zM166.100779 176.340779v27.661299h176.73974v-27.661299h-176.73974zm31.783896 92.824935h114.767793v-27.661298H166.100779V336.59013h176.73974v-27.661299H197.884675v-39.763117z"/>
</svg>
