<svg xmlns="http://www.w3.org/2000/svg" viewBox="0 0 512 511"><path d="M256.133 510.936C115.115 510.936.798 396.62.798 255.601.798 114.583 115.115.266 256.133.266s255.335 114.317 255.335 255.335c0 141.018-114.317 255.335-255.335 255.335zm0-504.42c-83.516 0-157.457 41.093-202.672 104.262 44.816-53.993 112.374-88.303 187.91-88.303 134.85 0 244.165 109.315 244.165 244.164 0 101.868-62.504 189.24-151.207 225.812 99.342-32.848 171.022-126.338 171.022-236.717 0-137.642-111.576-249.218-249.218-249.218zm-90.032 169.825v27.661h176.74v-27.661H166.1zm31.784 92.825h114.767v-27.662H166.101v95.086h176.74v-27.66H197.885v-39.763z"/></svg>