<svg xmlns="http://www.w3.org/2000/svg" viewBox="0 0 384 384"><path d="M333.852 299.727l-46.68-179.266a9.389 9.389 0 00-1.594-3.281L199.473 3.707a9.382 9.382 0 00-7.446-3.703 9.385 9.385 0 00-7.464 3.66L97.418 117.137a9.228 9.228 0 00-1.637 3.375L50.133 299.773a9.305 9.305 0 004.531 10.442l132.79 73.422a9.407 9.407 0 009.093 0l132.789-73.422a9.303 9.303 0 004.516-10.488zm-33.23-53.332l-35.587-56.22 11.871-34.843zm-99.26-209.262l66.285 87.347-15.468 45.391-50.817-80.277zM192 109.773l52.434 82.829-34.125 100.14h-36.946v-.004l-34.273-99.383zm-9.363-72.906v52.727l-51.356 81.125-15.937-46.227zm-76.43 118.559l12.258 35.543L82.82 247.28zm20.066 58.18l27.293 79.132h-77.39zm-30.914 97.78h64.637l15.227 44.157zm96.59 35.239l-12.156-35.238h24.16zm16.715 8.98l15.066-44.218h64.91zm21.422-62.863l27.203-79.832 50.531 79.832zm0 0"/></svg>