<?xml version="1.0" encoding="UTF-8" standalone="yes"?>
<svg xmlns="http://www.w3.org/2000/svg" xmlns:xlink="http://www.w3.org/1999/xlink" width="512px" height="512px" viewBox="0 0 384 384" version="1.1">
  <g id="surface1">
    <path style=" stroke:none;fill-rule:nonzero;fill:rgb(0%,0%,0%);fill-opacity:1;" d="M 192 352.199219 C 126.027344 352.199219 69.527344 312.445312 44.996094 255.605469 L 65.636719 248.5 C 87.289062 296.882812 135.667969 330.542969 192 330.542969 C 255.945312 330.542969 309.566406 287.238281 325.640625 228.539062 L 285.378906 241.566406 C 267.617188 274.890625 232.429688 297.726562 192 297.726562 C 150.046875 297.726562 113.675781 273.199219 96.761719 237.675781 L 136.851562 223.632812 L 128.902344 265.246094 L 383.660156 182.1875 C 378.585938 80.691406 294.683594 0 192 0 C 85.933594 0 0 85.933594 0 192 C 0 201.980469 0.847656 211.960938 2.199219 221.605469 L 202.828125 157.320312 L 191.832031 194.539062 L 324.285156 151.0625 C 306.691406 94.730469 254.082031 53.625 192 53.625 C 121.289062 53.625 62.929688 106.742188 54.640625 175.253906 L 32.140625 182.359375 C 37.214844 98.453125 106.910156 31.800781 192.167969 31.800781 C 271 31.800781 336.632812 88.8125 350 163.917969 L 166.792969 223.972656 L 175.421875 184.050781 L 5.921875 239.027344 C 26.898438 322.253906 102.34375 383.832031 192 383.832031 C 291.976562 383.832031 374.019531 307.371094 383.152344 209.761719 L 349.660156 220.589844 C 336.125 295.359375 270.660156 352.199219 192 352.199219 Z M 192 86.273438 C 229.554688 86.273438 262.539062 105.894531 281.316406 135.332031 L 233.105469 151.570312 L 242.578125 115.199219 L 90.332031 163.75 C 102.511719 119.089844 143.449219 86.273438 192 86.273438 Z M 192 86.273438 "/>
  </g>
</svg>