<svg width="493" height="490" fill="none" xmlns="http://www.w3.org/2000/svg"><path fill-rule="evenodd" clip-rule="evenodd" d="M168.96 102.56c25.3-16.5 53.32-24.82 84.07-24.88 30.35-.06 58.4 8.31 84.15 25.06l53.94-53.94C349.18 16.6 303.17.5 253.07.55c-50.36.05-96.35 16.11-137.96 48.16l53.85 53.85zm-67.51 231.37c-17.1-25.97-25.67-54.04-25.61-84.23.06-30.59 8.57-58.63 25.43-84.17l-53.79-53.78C15.88 152.92.05 198.92 0 249.73c-.05 50.35 15.85 96.35 47.64 138.01l53.8-53.8.01-.01zm236.18 53.53c-25.6 17.24-53.61 26-84.04 26.21-30.91.2-59.26-8.5-85.06-26.03l-53.56 53.56c41.66 32.39 87.96 48.4 138.93 48 50.47-.4 96.25-16.43 137.36-48.1l-53.63-53.64zm53.05-221.95c17.26 26.08 25.75 54.64 25.38 85.72-.36 29.97-8.88 57.57-25.49 82.8l53.83 53.83c31.7-41.27 47.77-87.03 48.17-137.3.4-50.97-15.62-97.28-48-138.93l-53.9 53.88h.01zM43.2 51.2a8.06 8.06 0 0 1 0-11.32 8.1 8.1 0 0 1 11.4 0 8.07 8.07 0 0 1 0 11.31 8 8 0 0 1-5.7 2.33 7.85 7.85 0 0 1-5.7-2.33v.01zm22.7 22.69a7.79 7.79 0 0 1-2.33-5.69 8 8 0 0 1 13.64-5.62 7.83 7.83 0 0 1 0 11.31 7.68 7.68 0 0 1-5.61 2.33 7.75 7.75 0 0 1-5.7-2.32v-.01zM88.6 96.6a7.89 7.89 0 0 1-2.32-5.7 8 8 0 0 1 13.64-5.7 7.944 7.944 0 0 1 1.781 8.787 7.944 7.944 0 0 1-1.781 2.603 8.01 8.01 0 0 1-11.32 0v.01zm22.71 22.7a7.938 7.938 0 0 1 0-11.39 8.003 8.003 0 0 1 12.306 1.25 8.005 8.005 0 0 1 1.334 4.45c0 2.1-.72 4.1-2.32 5.7a8.051 8.051 0 0 1-11.32 0v-.01zm22.63 22.71a8.357 8.357 0 0 1-2.33-5.7c0-2.08.8-4.09 2.33-5.7a8.1 8.1 0 0 1 11.39 0c1.53 1.61 2.33 3.62 2.33 5.7 0 2-.8 4.1-2.33 5.7a8.2 8.2 0 0 1-5.7 2.32c-2 0-4.09-.8-5.7-2.32h.01zm22.7 22.63a8.026 8.026 0 0 1-1.702-8.73 8.026 8.026 0 0 1 7.402-4.932 8.016 8.016 0 0 1 7.402 4.932 8.023 8.023 0 0 1-1.702 8.73 7.962 7.962 0 0 1-11.4 0zm22.7 22.7a8.06 8.06 0 0 1 0-11.31 8.087 8.087 0 0 1 11.4 0 8.052 8.052 0 0 1-1.246 12.35 8.055 8.055 0 0 1-4.454 1.36 7.956 7.956 0 0 1-5.7-2.4zm22.71 22.7a8.03 8.03 0 0 1 0-11.31 8.101 8.101 0 0 1 11.4 0 8.06 8.06 0 0 1 0 11.31 8.022 8.022 0 0 1-5.7 2.33 7.738 7.738 0 0 1-3.091-.575 7.732 7.732 0 0 1-2.609-1.755zm22.7 22.71a7.878 7.878 0 0 1-2.32-5.7 8.004 8.004 0 0 1 2.33-5.7 8.072 8.072 0 0 1 11.39 0c1.52 1.6 2.32 3.7 2.32 5.7 0 2.09-.8 4.1-2.32 5.7a8.378 8.378 0 0 1-5.7 2.33 8.08 8.08 0 0 1-5.7-2.33zm22.71 22.7a7.878 7.878 0 0 1-2.32-5.7 7.98 7.98 0 1 1 15.96 0c0 2.1-.73 4.1-2.33 5.7a8.02 8.02 0 0 1-11.3 0h-.01zm22.7 22.62a7.808 7.808 0 0 1-2.4-5.62 8.001 8.001 0 0 1 2.4-5.7 8 8 0 1 1 11.31 11.32c-1.6 1.61-3.6 2.4-5.7 2.4-2 0-4.08-.79-5.61-2.4zm22.7 22.7a7.884 7.884 0 0 1-2.397-5.655 7.884 7.884 0 0 1 2.397-5.655 8.004 8.004 0 0 1 11.32 11.32 7.944 7.944 0 0 1-5.7 2.4c-2 0-4.09-.8-5.62-2.4v-.01zm22.63 22.71a8.05 8.05 0 0 1 0-11.31 8.101 8.101 0 0 1 11.4 0 8.022 8.022 0 0 1 0 11.31 7.873 7.873 0 0 1-5.7 2.33 7.858 7.858 0 0 1-5.7-2.33zm22.7 22.7a8.08 8.08 0 0 1 0-11.3 8.089 8.089 0 0 1 11.4 0 8.042 8.042 0 0 1 0 11.3 8.006 8.006 0 0 1-5.7 2.34 7.886 7.886 0 0 1-5.7-2.33v-.01zm22.71 22.71a7.747 7.747 0 0 1-2.32-5.7 8.005 8.005 0 0 1 4.915-7.408 8.004 8.004 0 0 1 8.725 1.708c1.6 1.62 2.4 3.7 2.4 5.7 0 2.1-.8 4.18-2.4 5.7a8.043 8.043 0 0 1-11.32 0zm22.7 22.7a7.877 7.877 0 0 1-2.32-5.69c0-2.118.841-4.149 2.339-5.646a7.981 7.981 0 0 1 11.292 0 7.981 7.981 0 0 1 2.339 5.646 7.894 7.894 0 0 1-2.33 5.7 8.04 8.04 0 0 1-11.31 0l-.01-.01zm22.63 22.71a8.338 8.338 0 0 1-2.32-5.7c0-2.08.8-4.08 2.32-5.69a8.08 8.08 0 0 1 11.4 0 7.914 7.914 0 0 1 2.32 5.7c0 2-.73 4.09-2.33 5.7a8.1 8.1 0 0 1-11.39 0v-.01zm22.7 22.71a8.391 8.391 0 0 1-2.32-5.7c0-2.09.8-4.1 2.32-5.7a8.087 8.087 0 0 1 11.4 0 8.2 8.2 0 0 1 2.32 5.7c0 2-.8 4.1-2.32 5.7a8.25 8.25 0 0 1-5.7 2.33 8.402 8.402 0 0 1-5.7-2.33zm22.7 22.62a8.03 8.03 0 0 1 0-11.31 8.08 8.08 0 0 1 11.4 0 8.048 8.048 0 0 1-1.24 12.362 8.049 8.049 0 0 1-4.46 1.358 8.1 8.1 0 0 1-5.7-2.41z" fill="#000"/><path fill-rule="evenodd" clip-rule="evenodd" d="M451.64 51.19a8.059 8.059 0 0 1 0-11.31 8.09 8.09 0 0 1 11.39 0 8.03 8.03 0 0 1 0 11.31 7.925 7.925 0 0 1-8.796 1.788 7.935 7.935 0 0 1-2.604-1.788h.01zm-22.62 22.7a7.976 7.976 0 0 1-2.41-5.69c0-2 .8-4.1 2.4-5.62a8.001 8.001 0 0 1 13.654 5.66 7.998 7.998 0 0 1-4.937 7.39 8 8 0 0 1-8.717-1.73l.01-.01zM406.31 96.6a7.925 7.925 0 0 1-1.784-8.787 7.927 7.927 0 0 1 1.784-2.603 7.99 7.99 0 0 1 13.65 5.7c0 2.08-.74 4.09-2.34 5.69a8.07 8.07 0 0 1-11.3 0h-.01zm-22.7 22.7a8.33 8.33 0 0 1-2.33-5.7 8 8 0 0 1 13.64-5.7c1.6 1.62 2.4 3.62 2.4 5.7a8.098 8.098 0 0 1-8.02 8.03 8.06 8.06 0 0 1-5.7-2.33h.01zM360.9 142a8.358 8.358 0 0 1-2.32-5.69c0-2.08.8-4.09 2.32-5.7a8.089 8.089 0 0 1 11.4 0 8.2 8.2 0 0 1 2.32 5.7c0 2-.8 4.1-2.33 5.7a8.2 8.2 0 0 1-5.7 2.32 8.199 8.199 0 0 1-5.69-2.32V142zm-22.7 22.63a8.033 8.033 0 0 1-1.719-8.745 8.03 8.03 0 1 1 13.109 8.745 7.962 7.962 0 0 1-11.4 0h.01zm-22.71 22.71a8.06 8.06 0 0 1 0-11.31 8.101 8.101 0 0 1 11.4 0 8.03 8.03 0 0 1 0 11.31 7.878 7.878 0 0 1-5.7 2.32 7.998 7.998 0 0 1-5.7-2.32zm-22.62 22.7a7.842 7.842 0 0 1-2.4-5.65 7.842 7.842 0 0 1 2.4-5.65 7.846 7.846 0 0 1 8.72-1.778 7.836 7.836 0 0 1 2.58 1.778c1.61 1.51 2.34 3.6 2.34 5.6a7.754 7.754 0 0 1-2.33 5.7 7.733 7.733 0 0 1-5.7 2.33c-2 0-4.09-.72-5.61-2.33zm-22.71 22.7a7.998 7.998 0 0 1-2.4-5.69c0-2 .8-4.1 2.4-5.7a7.981 7.981 0 0 1 13.64 5.7c0 2.09-.72 4.1-2.33 5.7a8.072 8.072 0 0 1-11.31 0v-.01zm-22.7 22.71a7.878 7.878 0 0 1-2.32-5.7 7.98 7.98 0 1 1 15.96 0c0 2.1-.73 4.1-2.33 5.7a8.03 8.03 0 0 1-11.3 0h-.01zm-22.7 22.62a8.022 8.022 0 0 1 0-11.31 8.001 8.001 0 0 1 11.3 0c1.61 1.6 2.42 3.6 2.42 5.7 0 2-.8 4.1-2.42 5.61a7.748 7.748 0 0 1-5.6 2.41c-2.1 0-4.1-.8-5.7-2.4v-.01zm-22.7 22.71a8.01 8.01 0 0 1 0-11.32 8.1 8.1 0 0 1 11.39 0 8.048 8.048 0 0 1-1.239 12.362 8.054 8.054 0 0 1-4.461 1.358 7.956 7.956 0 0 1-5.7-2.4h.01zm-22.71 22.7a8.072 8.072 0 0 1 0-11.31 8.088 8.088 0 0 1 11.39 0 8.03 8.03 0 0 1 0 11.31 7.854 7.854 0 0 1-5.7 2.33 7.858 7.858 0 0 1-5.7-2.33h.01zm-22.63 22.7a7.833 7.833 0 0 1-2.4-5.69c0-2 .8-4.09 2.4-5.7a8.14 8.14 0 0 1 11.31 0c1.53 1.61 2.33 3.7 2.33 5.7 0 2.08-.8 4.17-2.33 5.7a7.878 7.878 0 0 1-5.7 2.32 7.703 7.703 0 0 1-5.6-2.32l-.01-.01zm-22.7 22.71a7.834 7.834 0 0 1-2.4-5.7c0-2 .8-4.08 2.4-5.69a8.14 8.14 0 0 1 11.31 0 8.004 8.004 0 0 1 2.33 5.7 7.766 7.766 0 0 1-2.33 5.7 8.072 8.072 0 0 1-11.31 0v-.01zm-22.7 22.71a7.886 7.886 0 0 1-2.33-5.7 7.982 7.982 0 0 1 9.537-7.902 7.978 7.978 0 0 1 4.103 2.202 7.962 7.962 0 0 1 0 11.4 8.051 8.051 0 0 1-11.32 0h.01zm-22.71 22.7a8.03 8.03 0 0 1-2.33-5.7 7.9 7.9 0 0 1 2.33-5.69 8.08 8.08 0 0 1 11.39 0c1.52 1.6 2.33 3.61 2.33 5.7 0 2-.8 4.09-2.33 5.7a8.358 8.358 0 0 1-5.7 2.32 8.09 8.09 0 0 1-5.7-2.33h.01zM65.9 437a8.38 8.38 0 0 1-2.32-5.69c0-2.09.8-4.17 2.32-5.7a8.089 8.089 0 0 1 11.4 0c1.52 1.53 2.32 3.61 2.32 5.7 0 2-.8 4.1-2.32 5.7a8.24 8.24 0 0 1-5.7 2.33 8.231 8.231 0 0 1-5.7-2.33V437zm-22.7 22.62a7.98 7.98 0 0 1 0-11.3 8.08 8.08 0 0 1 11.4 0 8.019 8.019 0 0 1 0 11.3 7.92 7.92 0 0 1-5.7 2.417 7.934 7.934 0 0 1-5.7-2.417zm403.46-53.85a37.425 37.425 0 1 1 0 74.85 37.425 37.425 0 0 1 0-74.85z" fill="#000"/><path fill-rule="evenodd" clip-rule="evenodd" d="M60.01 405.77a37.44 37.44 0 0 1 26.862 10.743 37.425 37.425 0 0 1 8.272 41.147 37.425 37.425 0 0 1-20.623 20.289 37.428 37.428 0 0 1-51.329-34.754A37.43 37.43 0 0 1 60.01 405.77zM447.02 19.04a37.432 37.432 0 0 1 34.581 51.754A37.426 37.426 0 0 1 447.02 93.9a37.431 37.431 0 0 1 0-74.86zm-387.01 0a37.431 37.431 0 1 1 0 74.862 37.431 37.431 0 0 1 0-74.862z" fill="#000"/></svg>