<svg xmlns="http://www.w3.org/2000/svg" viewBox="0 0 512 512">
  <path fill="#000" fill-rule="evenodd" d="M256 512C114.616 512 0 397.384 0 256 0 114.616 114.616 0 256 0c141.384 0 256 114.616 256 256 0 141.384-114.616 256-256 256zm112.64-225.28c0-33.925-25.221-61.44-51.2-61.44H143.36c0 33.925 25.21 61.44 61.44 61.44h163.84zm-51.2-174.08H204.8c-36.219 0-61.44 25.395-61.44 61.44v30.72h61.44v-30.72h163.84c0-36.045-25.221-61.44-51.2-61.44zM307.2 307.2v30.72H143.36c0 36.045 25.221 61.44 61.44 61.44h112.64c25.979 0 51.2-25.395 51.2-61.44V307.2H307.2z"/>
</svg>
