<?xml version="1.0" encoding="UTF-8" standalone="yes"?>
<svg xmlns="http://www.w3.org/2000/svg" xmlns:xlink="http://www.w3.org/1999/xlink" width="436px" height="510.66666666666663px" viewBox="0 0 327 383" version="1.1">
  <g id="surface1">
    <path style=" stroke:none;fill-rule:evenodd;fill:rgb(0%,0%,0%);fill-opacity:1;" d="M 327 99.84375 L 327 283.753906 L 326.601562 285.152344 L 326.601562 285.550781 C 326.601562 285.820312 326.464844 286.152344 326.199219 286.550781 C 325.933594 286.949219 325.664062 287.28125 325.398438 287.550781 C 325.132812 287.550781 324.933594 287.617188 324.796875 287.75 L 324.199219 288.347656 L 167.300781 382.203125 L 166.5 382.203125 C 165.96875 382.203125 165.5 382.335938 165.101562 382.601562 C 164.699219 382.867188 164.367188 383 164.101562 383 C 163.566406 383 163.101562 382.933594 162.699219 382.800781 C 162.300781 382.667969 161.964844 382.601562 161.699219 382.601562 L 160.5 382.601562 L 2.800781 288.347656 C 2.535156 288.347656 2.335938 288.214844 2.203125 287.949219 C 2.066406 287.683594 1.867188 287.550781 1.601562 287.550781 C 1.335938 287.28125 1.066406 286.949219 0.800781 286.550781 C 0.535156 286.152344 0.398438 285.820312 0.398438 285.550781 L 0.398438 285.152344 C 0.132812 284.621094 0 284.15625 0 283.753906 L 0 98.84375 L 0.398438 97.449219 L 0.398438 97.046875 C 0.398438 96.78125 0.535156 96.449219 0.800781 96.050781 C 1.066406 95.648438 1.335938 95.316406 1.601562 95.050781 C 1.867188 95.050781 2.066406 94.984375 2.203125 94.851562 L 2.800781 94.253906 L 160.5 0.398438 L 161.699219 0.398438 C 161.964844 0.398438 162.300781 0.332031 162.699219 0.199219 C 163.101562 0.0664062 163.566406 0 164.101562 0 C 164.367188 0 164.699219 0.0664062 165.101562 0.199219 C 165.5 0.332031 165.96875 0.398438 166.5 0.398438 L 167.300781 0.398438 L 323.796875 94.253906 C 324.066406 94.253906 324.265625 94.320312 324.398438 94.453125 L 325 95.050781 L 325.800781 95.851562 L 326.199219 97.046875 L 326.199219 97.449219 C 326.464844 97.714844 326.667969 98.113281 326.800781 98.644531 C 326.933594 99.179688 327 99.578125 327 99.84375 Z M 13.207031 270.777344 L 86.453125 227.242188 C 83.785156 221.917969 81.648438 216.128906 80.050781 209.871094 C 78.449219 203.613281 77.648438 197.023438 77.648438 190.101562 C 77.648438 183.710938 78.382812 177.523438 79.847656 171.53125 C 81.316406 165.539062 83.25 159.75 85.652344 154.160156 L 85.652344 154.558594 L 13.207031 111.824219 Z M 240.546875 227.242188 L 313.792969 270.777344 L 313.792969 111.824219 L 241.746094 154.957031 C 244.148438 160.28125 246.015625 165.875 247.351562 171.730469 C 248.683594 177.589844 249.351562 183.710938 249.351562 190.101562 C 249.351562 196.757812 248.550781 203.28125 246.949219 209.671875 C 245.351562 216.0625 243.214844 222.050781 240.546875 227.644531 Z M 233.742188 238.824219 C 226.539062 248.941406 217.53125 257.265625 206.726562 263.785156 C 195.917969 270.308594 183.980469 274.238281 170.90625 275.566406 L 170.503906 275.566406 L 170.503906 364.230469 L 306.988281 282.757812 Z M 156.894531 364.230469 L 156.894531 275.566406 C 143.554688 274.503906 131.347656 270.710938 120.273438 264.1875 C 109.199219 257.664062 100.0625 249.34375 92.855469 239.226562 L 19.613281 282.757812 Z M 91.65625 142.976562 C 98.859375 132.058594 108.132812 123.207031 119.472656 116.417969 C 130.8125 109.628906 143.289062 105.703125 156.894531 104.636719 L 157.296875 104.636719 L 157.296875 18.371094 L 19.613281 99.84375 Z M 170.90625 18.371094 L 170.90625 105.035156 C 184.246094 106.101562 196.453125 110.027344 207.527344 116.816406 C 218.601562 123.605469 227.605469 132.324219 234.542969 142.976562 L 234.945312 143.375 L 306.988281 99.84375 Z M 170.90625 18.371094 "/>
  </g>
</svg>