<?xml version="1.0" encoding="UTF-8" standalone="yes"?>
<svg xmlns="http://www.w3.org/2000/svg" xmlns:xlink="http://www.w3.org/1999/xlink" width="512px" height="512px" viewBox="0 0 384 384" version="1.1">
  <g id="surface1">
    <path style=" stroke:none;fill-rule:nonzero;fill:rgb(0%,0%,0%);fill-opacity:1;" d="M 269.242188 114.894531 L 189.011719 114.894531 L 194 81.191406 L 288.316406 81.191406 L 299.550781 0.0234375 L 96.636719 0.0234375 L 49.960938 326.085938 L 157.746094 326.085938 L 176.519531 199.285156 L 257.488281 199.285156 Z M 94.722656 306.402344 L 69.640625 306.402344 L 111.964844 12.738281 L 137.046875 12.738281 Z M 94.722656 306.402344 "/>
    <path style=" stroke:none;fill-rule:nonzero;fill:rgb(0%,0%,0%);fill-opacity:1;" d="M 322.542969 312.007812 C 321.105469 307.617188 319.617188 303.078125 319.617188 294.632812 L 319.617188 266.980469 C 319.617188 264.789062 319.617188 260.710938 287.683594 229.574219 C 285.695312 227.636719 282.515625 227.675781 280.574219 229.660156 C 278.636719 231.648438 278.675781 234.832031 280.664062 236.769531 C 293.046875 248.847656 307.242188 263.773438 309.5625 267.808594 L 309.5625 294.632812 C 309.5625 304.679688 311.382812 310.238281 312.988281 315.132812 C 314.230469 318.949219 315.21875 321.953125 315.21875 326.808594 C 315.21875 331.742188 311.121094 333.046875 308.960938 333.046875 C 307.460938 333.046875 306.125 332.558594 305.195312 331.671875 C 304.082031 330.617188 303.515625 328.976562 303.515625 326.808594 L 303.515625 277.304688 C 303.515625 269.015625 297.207031 260.441406 286.652344 260.441406 L 286.652344 250.507812 C 286.652344 247.800781 284.460938 245.609375 281.753906 245.609375 L 215.277344 245.609375 C 212.574219 245.609375 210.382812 247.800781 210.382812 250.507812 L 210.382812 370.796875 L 206.1875 370.796875 C 204.296875 370.800781 202.765625 372.332031 202.765625 374.222656 L 202.765625 380.199219 C 202.765625 382.089844 204.296875 383.621094 206.1875 383.621094 L 290.847656 383.621094 C 292.738281 383.621094 294.269531 382.089844 294.265625 380.199219 L 294.265625 374.222656 C 294.269531 372.332031 292.738281 370.800781 290.847656 370.796875 L 286.652344 370.796875 L 286.652344 270.5 C 292.242188 270.5 293.457031 275.410156 293.457031 277.300781 L 293.457031 326.808594 C 293.457031 333.082031 296.074219 336.882812 298.273438 338.964844 C 301.082031 341.628906 304.875 343.097656 308.957031 343.097656 C 316.867188 343.097656 325.273438 337.382812 325.273438 326.808594 C 325.273438 320.351562 323.886719 316.113281 322.542969 312.007812 Z M 275.167969 295.234375 C 275.167969 297.121094 273.636719 298.652344 271.746094 298.652344 L 225.292969 298.652344 C 224.386719 298.652344 223.515625 298.292969 222.875 297.652344 C 222.234375 297.011719 221.875 296.140625 221.875 295.234375 L 221.875 260.089844 C 221.875 258.207031 223.402344 256.671875 225.292969 256.671875 L 271.746094 256.671875 C 273.632812 256.671875 275.167969 258.207031 275.167969 260.089844 Z M 275.167969 295.234375 "/>
  </g>
</svg>