<svg width="218" height="512" xmlns="http://www.w3.org/2000/svg"><path d="M119.925719,505.520907 L119.925719,329.026453 L0,267.555094 L0,435.375676 C0.0951504862,439.74928 1.28822685,444.028793 3.46954909,447.820797 C5.13004395,451.356021 7.74164639,454.359364 11.0120471,456.49467 L112.383221,512.007456 C113.353356,512.565253 114.435456,512.900189 115.55107,512.98798 C116.126817,512.93768 116.688854,512.784398 117.210419,512.53543 C117.792802,512.134271 118.2607,511.58839 118.568069,510.951506 C119.367115,509.255501 119.754741,507.3949 119.699444,505.520907 L119.925719,505.520907 Z M0,247.718325 L0,247.718325 L0,247.718325 L0,247.718325 L0,247.718325 L0,247.718325 L0,247.718325 L0,247.718325 L0,247.718325 L0,247.718325 L0,247.718325 L0,247.718325 L0,247.718325 L0,247.718325 L0,247.718325 L0,247.718325 L0,247.718325 L0.754249803,250.433624 L0.754249803,250.433624 L0.754249803,250.433624 L0.754249803,250.433624 L0.754249803,250.433624 L0.754249803,250.433624 L0.754249803,250.433624 L0.754249803,250.433624 L0.754249803,250.433624 L1.35764965,250.433624 L5.20432364,250.433624 L139.687063,181.419767 L5.20432364,115.875459 L2.18732443,115.875459 C0.958278052,118.59069 0.217825112,121.501436 0,124.473907 L0,247.567475 L0,247.567475 L0,247.718325 Z M148.662636,189.64109 L209.00262,220.489907 C211.620188,222.043853 213.759859,224.287898 215.187469,226.976455 C216.86866,229.924031 217.801012,233.23906 217.902768,236.630853 L217.902768,363.118544 C217.940352,364.440889 217.682687,365.754982 217.148518,366.965218 C216.924368,367.441042 216.587856,367.855211 216.167993,368.172018 C215.795868,368.258865 215.408744,368.258865 215.036619,368.172018 C214.215445,368.128269 213.415378,367.895991 212.698444,367.493193 L8.90014767,263.55757 C8.09569494,263.134451 7.33737499,262.628904 6.63739826,262.049071 L8.90014767,262.049071 L148.662636,189.64109 Z M8.90014767,108.634661 L7.99504791,108.634661 C13.3222934,104.697588 19.0035451,101.263587 24.9656685,98.3768637 L212.547594,1.68203895 C213.251499,1.325277 214.022263,1.11974015 214.810344,1.07863911 C215.177783,0.957760646 215.57428,0.957760646 215.941719,1.07863911 C216.360667,1.36488561 216.698449,1.75463399 216.922243,2.21001381 C217.446449,3.44986111 217.703451,4.78627256 217.678414,6.13211279 L217.678414,133.29863 C217.584205,136.668069 216.650792,139.960943 214.961194,142.877602 C213.554671,145.600891 211.411718,147.874513 208.776345,149.439575 L148.436361,180.212967 L8.90014767,108.634661 Z" transform="translate(0 -1)" fill="#000" fill-rule="nonzero"/></svg>
