<?xml version="1.0" encoding="UTF-8" standalone="yes"?>
<svg xmlns="http://www.w3.org/2000/svg" xmlns:xlink="http://www.w3.org/1999/xlink" width="512px" height="512px" viewBox="0 0 384 384" version="1.1">
  <g id="surface1">
    <path style=" stroke:none;fill-rule:nonzero;fill:rgb(0%,0%,0%);fill-opacity:1;" d="M 191.835938 0 C 85.878906 0 0.0117188 85.886719 0.0117188 191.824219 C 0.0117188 297.796875 85.878906 383.660156 191.835938 383.660156 C 297.78125 383.660156 383.652344 297.796875 383.652344 191.824219 C 383.652344 85.886719 297.78125 0 191.835938 0 Z M 191.835938 357.085938 C 100.710938 357.085938 26.570312 282.949219 26.570312 191.824219 C 26.570312 100.695312 100.710938 26.558594 191.835938 26.558594 C 282.964844 26.558594 357.113281 100.695312 357.113281 191.824219 C 357.109375 282.949219 282.964844 357.085938 191.835938 357.085938 Z M 191.835938 357.085938 "/>
    <path style=" stroke:none;fill-rule:nonzero;fill:rgb(0%,0%,0%);fill-opacity:1;" d="M 150.503906 233.207031 C 175.625 245.789062 208.074219 245.789062 233.179688 233.207031 C 230.886719 221.769531 231.785156 229.167969 230.886719 223.453125 C 207.996094 235.125 175.78125 235.242188 152.816406 223.453125 C 152.1875 227.84375 152.582031 223.179688 150.503906 233.207031 Z M 150.503906 233.207031 "/>
    <path style=" stroke:none;fill-rule:nonzero;fill:rgb(0%,0%,0%);fill-opacity:1;" d="M 173.941406 221.171875 C 182.796875 225.5625 200.828125 225.5625 209.761719 221.171875 C 209.683594 209.160156 214.539062 166.242188 235.355469 127.386719 C 235.355469 127.386719 240.527344 117.589844 238.097656 102.386719 C 235.707031 87.179688 214.074219 68.054688 197.332031 55.082031 C 196.042969 54.066406 194.402344 53.511719 192.734375 53.355469 L 192.734375 53.320312 C 192.4375 53.300781 192.125 53.28125 191.832031 53.300781 C 191.535156 53.28125 191.261719 53.300781 190.964844 53.320312 C 190.964844 53.320312 190.964844 53.339844 190.945312 53.355469 C 189.300781 53.511719 187.652344 54.066406 186.347656 55.082031 C 169.625 68.054688 147.953125 87.179688 145.566406 102.386719 C 143.175781 117.589844 148.351562 127.386719 148.351562 127.386719 C 169.121094 166.246094 173.941406 209.160156 173.941406 221.171875 Z M 147.898438 239.90625 C 147.898438 239.90625 137.457031 255.742188 133.21875 258.605469 C 128.949219 261.507812 125.851562 258.605469 125.851562 258.605469 C 125.851562 258.605469 122.484375 256.453125 117.742188 249.664062 C 117.1875 248.808594 116.113281 248.769531 115.738281 249.664062 C 111.855469 259.433594 111.160156 262.839844 110.335938 267.144531 C 109.484375 271.535156 109.484375 274.984375 110.605469 278.078125 C 111.742188 280.710938 114.566406 284.039062 119.617188 284.984375 C 124.734375 285.917969 132.042969 286.28125 136.671875 282.859375 C 141.257812 279.453125 141.917969 279.0625 148.351562 270.238281 C 154.738281 261.390625 160.730469 245.558594 160.730469 245.558594 Z M 113.820312 184.140625 C 113.820312 184.140625 121.738281 179.925781 129.867188 186.550781 C 146.273438 199.894531 148.429688 207.476562 151.324219 212.515625 C 154.207031 217.527344 168.257812 220.574219 168.257812 220.574219 C 168.257812 220.574219 165.277344 186.367188 151.054688 166.308594 C 136.808594 146.238281 128.832031 141.5625 116.761719 136.050781 C 106.921875 131.5625 87.644531 134.71875 83.957031 136.050781 C 67.417969 141.027344 62.636719 162.425781 62.636719 162.425781 C 62.636719 162.425781 60.054688 173.046875 61.089844 192.09375 C 62.8125 220.082031 70.632812 236.382812 70.632812 236.382812 C 70.632812 236.382812 71.457031 238.144531 73.730469 237.289062 C 77.300781 235.914062 91.796875 227.3125 105.675781 205.867188 C 110.019531 198.832031 110.0625 192.160156 110.339844 189.191406 C 110.609375 186.214844 113.820312 184.140625 113.820312 184.140625 Z M 209.761719 248.925781 C 191.855469 251.035156 191.855469 251.035156 173.941406 248.925781 C 173.941406 248.925781 169.355469 253.007812 160.730469 267.933594 C 152.109375 282.859375 155.640625 287.132812 160.730469 297.007812 C 167.535156 310.070312 185.933594 327.390625 188.265625 329.113281 C 189.113281 329.734375 190.09375 330.148438 191.128906 330.332031 L 191.128906 330.371094 L 192.570312 330.371094 L 192.570312 330.332031 C 193.601562 330.148438 194.574219 329.730469 195.414062 329.113281 C 197.726562 327.390625 216.164062 310.070312 222.929688 297.007812 C 228.039062 287.136719 231.550781 282.859375 222.929688 267.933594 C 214.308594 253.003906 209.761719 248.925781 209.761719 248.925781 Z M 267.941406 249.664062 C 267.566406 248.769531 266.511719 248.808594 265.921875 249.664062 C 261.21875 256.453125 257.847656 258.601562 257.847656 258.601562 C 257.847656 258.601562 254.714844 261.503906 250.484375 258.601562 C 246.207031 255.738281 235.78125 239.90625 235.78125 239.90625 L 222.929688 245.554688 C 222.929688 245.554688 228.921875 261.390625 235.355469 270.238281 C 241.78125 279.0625 242.425781 279.449219 247.03125 282.859375 C 251.617188 286.277344 258.945312 285.914062 264.042969 284.980469 C 269.132812 284.035156 271.957031 280.707031 273.089844 278.078125 C 274.210938 274.980469 274.210938 271.535156 273.371094 267.140625 C 272.527344 262.839844 271.839844 259.433594 267.941406 249.664062 Z M 321.066406 162.429688 C 321.066406 162.429688 316.246094 141.03125 299.726562 136.054688 C 296.058594 134.71875 276.777344 131.566406 266.9375 136.054688 C 254.867188 141.5625 246.875 146.238281 232.648438 166.308594 C 218.382812 186.367188 215.441406 220.574219 215.441406 220.574219 C 215.441406 220.574219 229.964844 217.53125 232.394531 212.515625 C 234.804688 207.476562 237.390625 199.898438 253.8125 186.550781 C 261.941406 179.925781 269.859375 184.140625 269.859375 184.140625 C 269.859375 184.140625 273.089844 186.214844 273.371094 189.195312 C 273.644531 192.164062 273.683594 198.835938 278.027344 205.871094 C 291.867188 227.316406 306.402344 235.917969 309.972656 237.292969 C 312.246094 238.144531 313.03125 236.386719 313.03125 236.386719 C 313.03125 236.386719 320.871094 220.085938 322.613281 192.097656 C 323.609375 173.046875 321.066406 162.429688 321.066406 162.429688 Z M 321.066406 162.429688 "/>
  </g>
</svg>