<svg xmlns="http://www.w3.org/2000/svg" viewBox="0 0 384 384"><path d="M191.836 0C85.879 0 .012 85.887.012 191.824c0 105.973 85.867 191.836 191.824 191.836 105.945 0 191.816-85.863 191.816-191.836C383.652 85.887 297.782 0 191.836 0zm0 357.086c-91.125 0-165.266-74.137-165.266-165.262 0-91.129 74.14-165.265 165.266-165.265 91.129 0 165.277 74.136 165.277 165.265-.004 91.125-74.148 165.262-165.277 165.262zm0 0"/><path d="M150.504 233.207c25.121 12.582 57.57 12.582 82.676 0-2.293-11.437-1.395-4.039-2.293-9.754-22.89 11.672-55.106 11.79-78.07 0-.63 4.39-.235-.273-2.313 9.754zm0 0"/><path d="M173.941 221.172c8.856 4.39 26.887 4.39 35.82 0-.077-12.012 4.778-54.93 25.594-93.785 0 0 5.172-9.797 2.743-25-2.391-15.207-24.024-34.332-40.766-47.305-1.289-1.016-2.93-1.57-4.598-1.727v-.035a6.982 6.982 0 00-.902-.02c-.297-.019-.57 0-.867.02 0 0 0 .02-.02.035-1.644.157-3.293.711-4.597 1.727-16.723 12.973-38.395 32.098-40.782 47.305-2.39 15.203 2.786 25 2.786 25 20.77 38.86 25.59 81.773 25.59 93.785zm-26.043 18.734s-10.441 15.836-14.68 18.7c-4.269 2.902-7.366 0-7.366 0s-3.368-2.153-8.11-8.942c-.555-.855-1.629-.894-2.004 0-3.883 9.77-4.578 13.176-5.402 17.48-.852 4.391-.852 7.84.27 10.934 1.136 2.633 3.96 5.961 9.011 6.906 5.117.934 12.426 1.297 17.055-2.125 4.586-3.406 5.246-3.796 11.68-12.62 6.386-8.848 12.378-24.68 12.378-24.68zm-34.078-55.765s7.918-4.215 16.047 2.41c16.406 13.344 18.563 20.926 21.457 25.965 2.883 5.011 16.934 8.058 16.934 8.058s-2.98-34.207-17.203-54.265c-14.246-20.07-22.223-24.746-34.293-30.258-9.84-4.488-29.117-1.332-32.805 0-16.539 4.976-21.32 26.375-21.32 26.375s-2.582 10.62-1.547 29.668c1.722 27.988 9.543 44.289 9.543 44.289s.824 1.762 3.097.906c3.57-1.375 18.067-9.976 31.946-31.422 4.344-7.035 4.386-13.707 4.664-16.676.27-2.976 3.48-5.05 3.48-5.05zm95.942 64.785c-17.907 2.11-17.907 2.11-35.82 0 0 0-4.587 4.082-13.212 19.008-8.62 14.925-5.09 19.199 0 29.074 6.805 13.062 25.204 30.383 27.536 32.105a6.87 6.87 0 002.863 1.219v.04h1.441v-.04a6.821 6.821 0 002.844-1.219c2.313-1.722 20.75-19.043 27.516-32.105 5.11-9.871 8.62-14.149 0-29.074-8.621-14.93-13.168-19.008-13.168-19.008zm58.18.738c-.376-.894-1.43-.855-2.02 0-4.703 6.79-8.074 8.938-8.074 8.938s-3.133 2.902-7.364 0c-4.277-2.864-14.703-18.696-14.703-18.696l-12.851 5.649s5.992 15.836 12.425 24.683c6.426 8.825 7.07 9.211 11.676 12.621 4.586 3.418 11.914 3.055 17.012 2.121 5.09-.945 7.914-4.273 9.047-6.902 1.12-3.098 1.12-6.543.281-10.937-.844-4.301-1.531-7.707-5.43-17.477zm53.124-87.234s-4.82-21.399-21.34-26.375c-3.667-1.336-22.949-4.489-32.788 0-12.07 5.507-20.063 10.183-34.29 30.254-14.265 20.058-17.207 54.265-17.207 54.265s14.524-3.043 16.954-8.058c2.41-5.04 4.996-12.618 21.417-25.965 8.13-6.625 16.047-2.41 16.047-2.41s3.23 2.074 3.512 5.054c.274 2.97.313 9.64 4.656 16.676 13.84 21.445 28.375 30.047 31.946 31.422 2.273.852 3.058-.906 3.058-.906s7.84-16.301 9.582-44.29c.996-19.05-1.547-29.667-1.547-29.667zm0 0"/></svg>