<?xml version="1.0" encoding="UTF-8" standalone="yes"?>
<svg xmlns="http://www.w3.org/2000/svg" xmlns:xlink="http://www.w3.org/1999/xlink" width="512px" height="512px" viewBox="0 0 384 384" version="1.1">
  <g id="surface1">
    <path style=" stroke:none;fill-rule:nonzero;fill:rgb(0%,0%,0%);fill-opacity:1;" d="M 354.714844 0.0234375 C 351.128906 -1.03125 298.925781 30.941406 274.613281 49.378906 C 250.308594 67.8125 204.953125 103.78125 203.242188 107.535156 C 201.527344 111.289062 201.367188 118.058594 199.328125 135.105469 C 197.289062 152.152344 190.195312 159.578125 190.195312 159.578125 C 190.195312 159.578125 186.769531 156.96875 184.890625 151.417969 C 183.011719 145.871094 181.789062 130.371094 180.648438 130.050781 C 179.507812 129.722656 148.945312 158.191406 148.945312 158.191406 C 148.945312 158.191406 146.769531 172.433594 142.09375 200.714844 C 137.417969 228.996094 130.238281 240.820312 128.6875 240.984375 C 127.140625 241.148438 123.792969 230.054688 122.652344 218.796875 C 121.511719 207.539062 122.328125 180.867188 121.105469 180.050781 C 119.878906 179.234375 103.8125 196.148438 103.8125 196.148438 C 103.8125 196.148438 105.984375 216.269531 107.617188 242.589844 C 109.25 268.90625 106.75 286.988281 104.058594 288.703125 C 101.363281 290.414062 97.289062 283.96875 91.332031 269.855469 C 85.378906 255.746094 84.96875 244.574219 82.199219 243.59375 C 79.421875 242.613281 73.632812 256.398438 71.921875 270.105469 C 70.207031 283.804688 71.511719 304.609375 71.511719 304.609375 C 71.511719 304.609375 63.515625 289.765625 58.460938 282.011719 C 53.402344 274.265625 41.65625 258.765625 40.191406 259.90625 C 38.71875 261.050781 45.164062 273.609375 49.078125 284.789062 C 52.992188 295.964844 58.214844 312.523438 58.214844 312.523438 C 58.214844 312.523438 44.589844 299.226562 38.394531 294.820312 C 32.191406 290.414062 14.167969 280.21875 12.699219 283.402344 C 11.234375 286.582031 23.628906 295.964844 29.015625 301.34375 C 34.398438 306.726562 45.902344 319.042969 45.902344 319.042969 C 45.902344 319.042969 40.105469 325.082031 38.640625 333.320312 C 37.171875 341.558594 40.761719 349.304688 40.761719 349.304688 C 40.761719 349.304688 50.304688 329.566406 55.769531 329.242188 C 61.234375 328.917969 63.273438 340.09375 61.644531 347.429688 C 60.011719 354.773438 35.949219 380.007812 37.171875 383.40625 C 38.394531 386.804688 69.0625 354.554688 71.945312 348.410156 C 78.035156 355.808594 110.445312 368.421875 112.296875 367.765625 C 114.144531 367.117188 99.789062 357.222656 94.132812 351.890625 C 88.480469 346.5625 81.953125 330.792969 84.238281 328.726562 C 86.523438 326.660156 89.457031 339.273438 105.878906 347.214844 C 122.304688 355.15625 147.425781 356.894531 147.859375 355.804688 C 148.296875 354.714844 128.609375 348.847656 116.972656 341.449219 C 105.335938 334.054688 99.460938 318.71875 99.460938 318.71875 C 99.460938 318.71875 116.320312 322.089844 158.519531 324.375 C 200.71875 326.660156 227.253906 312.304688 227.253906 312.304688 C 227.253906 312.304688 190.273438 311.867188 166.242188 310.78125 C 142.203125 309.695312 107.730469 306.648438 107.730469 306.648438 C 107.730469 306.648438 116.835938 293.105469 141.09375 288.214844 C 165.339844 283.320312 204.203125 285.984375 207.679688 285.441406 C 211.160156 284.898438 266.953125 206.15625 266.953125 206.15625 C 266.953125 206.15625 232.476562 207.566406 234.867188 201.695312 C 240.1875 188.640625 269.996094 191.582031 274.457031 191.148438 C 278.914062 190.710938 292.835938 170.265625 309.152344 151.121094 C 325.464844 131.980469 370.058594 82.492188 372.339844 50.519531 C 374.621094 18.542969 358.308594 1.085938 354.714844 0.0234375 Z M 233.015625 174.179688 C 205.609375 206.589844 142.746094 269.234375 142.746094 269.234375 C 142.746094 269.234375 184.726562 212.027344 216.050781 175.265625 C 247.375 138.503906 310.453125 69.332031 310.453125 69.332031 C 310.453125 69.332031 260.421875 141.769531 233.015625 174.179688 Z M 233.015625 174.179688 "/>
  </g>
</svg>