<svg xmlns="http://www.w3.org/2000/svg" viewBox="0 0 383 383"><path d="M21.652 192.04c.008 10.491.973 20.96 2.887 31.273l-21.285 3.984a190.928 190.928 0 009.68 34.058l20.18-7.867a170.173 170.173 0 0013.995 28.078l-18.39 11.457a192.934 192.934 0 0021.32 28.22l15.984-14.638a171.517 171.517 0 0023.16 21.157l-13.046 17.316a191.07 191.07 0 0030.023 18.652l9.653-19.43a168.683 168.683 0 0029.203 11.321l-5.895 20.906a190.392 190.392 0 0034.723 6.442l1.965-21.614a172.69 172.69 0 0015.593.707c5.254 0 10.551-.246 15.75-.722l1.985 21.613a190.034 190.034 0 0034.718-6.48l-5.921-20.883a168.173 168.173 0 0029.183-11.352l9.672 19.422a191.183 191.183 0 0030.004-18.672L293.73 327.68a171.279 171.279 0 0023.145-21.176l16 14.629a192.848 192.848 0 0021.297-28.242l-18.399-11.442a170.096 170.096 0 0013.973-28.097l20.188 7.84a190.684 190.684 0 009.648-34.067l-21.246-3.965a171.78 171.78 0 002.894-31.277v-.309l21.618-.035a193.546 193.546 0 00-3.305-35.238l-21.29 4a169.648 169.648 0 00-8.612-30.172l20.171-7.883A191.435 191.435 0 00354 90.586l-18.375 11.477a171.3 171.3 0 00-18.938-25.024l15.973-14.652a192.755 192.755 0 00-26.125-23.813L293.5 55.902a170.523 170.523 0 00-26.648-16.515l9.636-19.442a189.655 189.655 0 00-32.972-12.742l-5.883 20.89a169.325 169.325 0 00-30.793-5.69L208.79.78A199.62 199.62 0 00191.405 0c-6.039 0-12.008.277-17.906.832l2.004 21.613a169.259 169.259 0 00-30.777 5.774l-5.942-20.875a189.735 189.735 0 00-32.922 12.843l9.688 19.41a170.17 170.17 0 00-26.594 16.587L75.879 38.887a192.53 192.53 0 00-26.063 23.879l16.012 14.617a170.93 170.93 0 00-18.871 25.07l-18.41-11.422a191.227 191.227 0 00-15.738 31.707l20.195 7.825a169.71 169.71 0 00-8.52 30.195L3.195 156.82A193.327 193.327 0 000 191.883v.172zm189.11 134.417l-1.149-8.082a126.356 126.356 0 0034.793-10.242l3.39 7.426a134.558 134.558 0 01-37.042 10.886zm116.254-134.582a136.398 136.398 0 01-5.454 38.305l-7.816-2.305a127.976 127.976 0 005.129-35.996v-.211l8.145-.023v.222zm-21.63-73.668a135.364 135.364 0 0116.106 35.16l-7.808 2.301a127.374 127.374 0 00-15.137-33.043zm-6.722 142.746l6.848 4.414a136.498 136.498 0 01-25.278 29.235l-5.328-6.16a128.289 128.289 0 0023.758-27.489zM247.582 68.11a135.54 135.54 0 0132.48 20.899l-5.328 6.176a127.356 127.356 0 00-30.53-19.645zm-20.527 90.246h18.968l24.672 36.477v-36.477h19.332v66.008H270.79l-24.594-36.277v36.277h-19.14zM191.406 55.938c6.395 0 12.785.449 19.117 1.343l-1.136 8.082a128.896 128.896 0 00-36.285.047l-1.16-8.082a136.855 136.855 0 0119.464-1.39zm-39.191 102.417h20.289v40.22c0 3.593 1.012 6.402 3.004 8.425 1.988 2.02 4.754 3.031 8.285 3.031 3.5 0 6.281-.996 8.273-2.988 1.993-1.988 3.024-4.816 3.024-8.469v-40.219h20.289v39.282a33.128 33.128 0 01-1.86 11.031 23.927 23.927 0 01-5.718 9.078c-2.586 2.594-5.305 4.414-8.156 5.461-3.946 1.469-8.688 2.203-14.223 2.203a88.554 88.554 0 01-10.477-.672c-3.785-.449-6.949-1.34-9.492-2.675-2.543-1.333-4.867-3.227-6.976-5.684-2.106-2.457-3.575-4.988-4.356-7.598-1.254-4.191-1.914-7.906-1.914-11.144v-39.282zm21.105 160.032l-1.148 8.082a134.438 134.438 0 01-37.05-10.867l3.382-7.426a126.317 126.317 0 0034.816 10.21zm-38.402-250.13l3.398 7.423a127.448 127.448 0 00-30.484 19.718l-5.34-6.164a135.6 135.6 0 0132.426-20.976zm-42.04 90.098h50.15v14.2h-29.669v11.511h25.457v13.243H113.36v27.054H92.88zM108 288.512l-5.328 6.168a136.408 136.408 0 01-25.3-29.215l6.843-4.422A128.42 128.42 0 00108 288.512zM77.246 118.5l6.852 4.414a127.292 127.292 0 00-15.051 33.082l-7.824-2.297a135.52 135.52 0 0116.015-35.207zM63.95 191.992c0 12.184 1.739 24.305 5.156 35.996l-7.808 2.305A136.311 136.311 0 0155.809 192zm0 0"/></svg>