<?xml version="1.0" encoding="UTF-8" standalone="yes"?>
<svg xmlns="http://www.w3.org/2000/svg" xmlns:xlink="http://www.w3.org/1999/xlink" width="512px" height="512px" viewBox="0 0 384 384" version="1.1">
  <g id="surface1">
    <path style=" stroke:none;fill-rule:nonzero;fill:rgb(0%,0%,0%);fill-opacity:1;" d="M 192.679688 1.179688 C 86.917969 1.179688 1.179688 86.917969 1.179688 192.679688 C 1.179688 298.445312 86.917969 384.179688 192.679688 384.179688 L 384.179688 384.179688 L 384.179688 192.679688 C 384.179688 86.917969 298.441406 1.179688 192.679688 1.179688 Z M 335.515625 335.414062 L 300.207031 335.414062 L 300.207031 284.597656 C 274.09375 315.109375 235.339844 334.507812 192.125 334.507812 C 113.671875 334.507812 49.847656 270.679688 49.847656 192.226562 C 49.847656 113.773438 113.671875 49.945312 192.125 49.945312 C 262.582031 49.945312 321.207031 101.433594 332.433594 168.753906 L 296.46875 168.753906 C 285.738281 121.027344 243.042969 85.253906 192.125 85.253906 C 133.140625 85.253906 85.15625 133.242188 85.15625 192.226562 C 85.15625 251.210938 133.140625 299.199219 192.125 299.199219 C 231.597656 299.199219 266.121094 277.6875 284.660156 245.789062 L 210.582031 245.789062 L 210.582031 210.480469 L 335.515625 210.480469 Z M 335.515625 335.414062 "/>
  </g>
</svg>