<svg xmlns="http://www.w3.org/2000/svg" viewBox="0 0 354 384"><path fill-rule="evenodd" d="M39.191 161.2h16.793l39.192-1.802c26.129-1.199 41.054-3.265 44.789-6.199 14.93-3.199 26.262-8 33.992-14.398 9.598-7.2 17.328-16.133 23.191-26.801 5.868-10.668 8.801-22.398 8.801-35.2 0-21.331-7.531-39.468-22.594-54.402C168.29 7.468 150.23 0 129.168 0 108.105 0 90.043 7.469 74.98 22.398c-15.062 14.934-22.593 33.07-22.593 54.403 0 11.465 2.332 22.133 7 32 4.664 9.867 10.863 18.398 18.593 25.597zM127.97 16c8.531 0 16.797 1.8 24.793 5.398 7.996 3.602 14.664 8.735 19.996 15.403l-6.4 5.199c-4.8-5.602-10.53-10-17.195-13.2-6.668-3.198-13.73-4.8-21.195-4.8-5.332 0-10.531.8-15.598 2.398a46.51 46.51 0 00-13.996 7.204l-4.797-6.403c5.063-3.73 10.461-6.531 16.195-8.398C115.503 16.934 121.57 16 127.97 16zm212.344 230.8c-6.665-9.066-15.594-14.667-26.793-16.8-11.196-2.133-22.528-2.531-33.989-1.2-11.465 1.333-21.996 3.731-31.594 7.2-9.332 3.469-15.597 6.266-18.796 8.398l6-10c4.265-6.664 8.93-15.332 13.996-26 5.066-10.664 9.863-22.664 14.398-36 4.531-13.597 7.063-27.332 7.598-41.199 1.066-25.332-1-47.668-6.2-67-5.199-19.332-16.328-35.668-33.39-49l1.598 17.2-2.399 41.203c-1.601 27.464-7.465 43.867-17.597 49.199-8.797 17.066-23.325 31.066-43.586 42-20.262 11.199-40.391 17.465-60.387 18.8-20.262 1.333-38.457.598-54.586-2.203-16.129-2.796-29.258-6.199-39.39-10.199L0 164.801l3.598 10c2.132 6.398 7.199 13.933 15.199 22.597 7.996 8.668 19.726 17.27 35.191 25.801 15.461 8.535 36.254 14.934 62.383 19.2l-1 24.601-19.394 49.8c-12.93 33.2-27.262 43.4-42.989 30.598C37.258 334.602 19.594 330.133 0 334l11.195 25.602L72.781 384c33.324-1.066 58.719-7.332 76.18-18.8l26.195-17.2 81.578-50.398L272.133 290l30.992-7.2c10.93.266 19.195 4.532 24.793 12.802 5.598 8.265 9.996 19.066 13.195 32.398-.265-.531 2.934-9.602 9.598-27.2 6.664-17.6 3.2-35.6-10.399-54zm0 0"/></svg>