<?xml version="1.0" encoding="UTF-8" standalone="yes"?>
<svg xmlns="http://www.w3.org/2000/svg" xmlns:xlink="http://www.w3.org/1999/xlink" width="472px" height="512px" viewBox="0 0 354 384" version="1.1">
  <g id="surface1">
    <path style=" stroke:none;fill-rule:evenodd;fill:rgb(0%,0%,0%);fill-opacity:1;" d="M 39.191406 161.199219 L 55.984375 161.199219 L 95.175781 159.398438 C 121.304688 158.199219 136.230469 156.132812 139.964844 153.199219 C 154.894531 150 166.226562 145.199219 173.957031 138.800781 C 183.554688 131.601562 191.285156 122.667969 197.148438 112 C 203.015625 101.332031 205.949219 89.601562 205.949219 76.800781 C 205.949219 55.46875 198.417969 37.332031 183.355469 22.398438 C 168.289062 7.46875 150.230469 0 129.167969 0 C 108.105469 0 90.042969 7.46875 74.980469 22.398438 C 59.917969 37.332031 52.386719 55.46875 52.386719 76.800781 C 52.386719 88.265625 54.71875 98.933594 59.386719 108.800781 C 64.050781 118.667969 70.25 127.199219 77.980469 134.398438 Z M 127.96875 16 C 136.5 16 144.765625 17.800781 152.761719 21.398438 C 160.757812 25 167.425781 30.132812 172.757812 36.800781 L 166.359375 42 C 161.558594 36.398438 155.828125 32 149.164062 28.800781 C 142.496094 25.601562 135.433594 24 127.96875 24 C 122.636719 24 117.4375 24.800781 112.371094 26.398438 C 107.308594 28 102.640625 30.398438 98.375 33.601562 L 93.578125 27.199219 C 98.640625 23.46875 104.039062 20.667969 109.773438 18.800781 C 115.503906 16.933594 121.570312 16 127.96875 16 Z M 340.3125 246.800781 C 333.648438 237.734375 324.71875 232.132812 313.519531 230 C 302.324219 227.867188 290.992188 227.46875 279.53125 228.800781 C 268.066406 230.132812 257.535156 232.53125 247.9375 236 C 238.605469 239.46875 232.339844 242.265625 229.140625 244.398438 L 235.140625 234.398438 C 239.40625 227.734375 244.070312 219.066406 249.136719 208.398438 C 254.203125 197.734375 259 185.734375 263.535156 172.398438 C 268.066406 158.800781 270.597656 145.066406 271.132812 131.199219 C 272.199219 105.867188 270.132812 83.53125 264.933594 64.199219 C 259.734375 44.867188 248.605469 28.53125 231.542969 15.199219 L 233.140625 32.398438 L 230.742188 73.601562 C 229.140625 101.066406 223.277344 117.46875 213.144531 122.800781 C 204.347656 139.867188 189.820312 153.867188 169.558594 164.800781 C 149.296875 176 129.167969 182.265625 109.171875 183.601562 C 88.910156 184.933594 70.714844 184.199219 54.585938 181.398438 C 38.457031 178.601562 25.328125 175.199219 15.195312 171.199219 L 0 164.800781 L 3.597656 174.800781 C 5.730469 181.199219 10.796875 188.734375 18.796875 197.398438 C 26.792969 206.066406 38.523438 214.667969 53.988281 223.199219 C 69.449219 231.734375 90.242188 238.132812 116.371094 242.398438 L 115.371094 267 L 95.976562 316.800781 C 83.046875 350 68.714844 360.199219 52.988281 347.398438 C 37.257812 334.601562 19.59375 330.132812 0 334 L 11.195312 359.601562 L 72.78125 384 C 106.105469 382.933594 131.5 376.667969 148.960938 365.199219 L 175.15625 348 L 256.734375 297.601562 L 272.132812 290 L 303.125 282.800781 C 314.054688 283.066406 322.320312 287.332031 327.917969 295.601562 C 333.515625 303.867188 337.914062 314.667969 341.113281 328 C 340.847656 327.46875 344.046875 318.398438 350.710938 300.800781 C 357.375 283.199219 353.910156 265.199219 340.3125 246.800781 Z M 340.3125 246.800781 "/>
  </g>
</svg>