<?xml version="1.0" encoding="UTF-8" standalone="yes"?>
<svg xmlns="http://www.w3.org/2000/svg" xmlns:xlink="http://www.w3.org/1999/xlink" width="512px" height="512px" viewBox="0 0 384 384" version="1.1">
  <g id="surface1">
    <path style=" stroke:none;fill-rule:nonzero;fill:rgb(0%,0%,0%);fill-opacity:1;" d="M 103.789062 180.390625 L 278.308594 180.390625 L 191.726562 53.203125 Z M 191.332031 350.78125 L 279.265625 192.242188 L 102.546875 192.242188 Z M 184.5625 42.730469 L 111.714844 42.730469 C 111.714844 42.914062 111.738281 43.09375 111.71875 43.277344 L 100.480469 164.34375 Z M 198.933594 42.730469 L 281.554688 164.101562 L 270.644531 43.265625 C 270.628906 43.085938 270.652344 42.910156 270.652344 42.730469 Z M 293.332031 191.558594 L 206.992188 347.328125 L 379.90625 173.023438 Z M 87.207031 179.105469 L 99.871094 42.730469 L 92.488281 42.730469 L -0.164062 160.078125 Z M 3.398438 172.984375 L 175.828125 347.265625 L 88.605469 191.539062 Z M 294.808594 179.125 L 383.632812 160.109375 L 289.507812 42.730469 L 282.496094 42.730469 Z M 294.808594 179.125 "/>
  </g>
</svg>