<?xml version="1.0" encoding="UTF-8" standalone="yes"?>
<svg xmlns="http://www.w3.org/2000/svg" xmlns:xlink="http://www.w3.org/1999/xlink" width="512px" height="512px" viewBox="0 0 384 384" version="1.1">
  <g id="surface1">
    <path style=" stroke:none;fill-rule:nonzero;fill:rgb(0%,0%,0%);fill-opacity:1;" d="M 271.144531 102.660156 C 271.144531 84.441406 264.859375 67.695312 254.390625 54.539062 L 296.496094 12.433594 L 284.0625 0 L 241.933594 42.128906 C 229.238281 32.109375 213.332031 26.128906 196.070312 26.128906 C 154.675781 26.128906 120.996094 60.460938 120.996094 102.660156 C 120.996094 141.828125 150.015625 174.199219 187.28125 178.65625 L 187.28125 231.136719 C 150.015625 235.589844 120.996094 267.960938 120.996094 307.128906 C 120.996094 349.328125 154.675781 383.664062 196.070312 383.664062 C 237.46875 383.664062 271.144531 349.328125 271.144531 307.128906 C 271.144531 267.960938 242.128906 235.589844 204.863281 231.136719 L 204.863281 178.65625 C 242.128906 174.199219 271.144531 141.828125 271.144531 102.660156 Z M 138.578125 102.660156 C 138.578125 70.15625 164.371094 43.710938 196.070312 43.710938 C 227.773438 43.710938 253.5625 70.15625 253.5625 102.660156 C 253.5625 135.167969 227.773438 161.613281 196.070312 161.613281 C 164.371094 161.613281 138.578125 135.167969 138.578125 102.660156 Z M 253.5625 307.128906 C 253.5625 339.632812 227.773438 366.078125 196.070312 366.078125 C 164.371094 366.078125 138.578125 339.632812 138.578125 307.128906 C 138.578125 274.621094 164.371094 248.175781 196.070312 248.175781 C 227.773438 248.175781 253.5625 274.621094 253.5625 307.128906 Z M 253.5625 307.128906 "/>
  </g>
</svg>