<?xml version="1.0" encoding="UTF-8" standalone="yes"?>
<svg xmlns="http://www.w3.org/2000/svg" xmlns:xlink="http://www.w3.org/1999/xlink" width="512px" height="512px" viewBox="0 0 384 384" version="1.1">
  <g id="surface1">
    <path style=" stroke:none;fill-rule:nonzero;fill:rgb(0%,0%,0%);fill-opacity:1;" d="M 294.777344 282.171875 C 249.480469 282.171875 216.792969 255.210938 190.339844 227.425781 C 162.953125 255.96875 131.300781 282.171875 88.347656 282.171875 C 30.964844 282.171875 0 235.148438 0 190.90625 C 0 146.449219 30.347656 101.449219 88.347656 101.449219 C 132.261719 101.449219 163.6875 128.207031 190.644531 156.945312 C 218.355469 128.070312 250.574219 101.449219 294.78125 101.449219 C 353.117188 101.449219 384.59375 148.464844 384.59375 192.695312 C 384.589844 237.160156 353.738281 282.171875 294.777344 282.171875 Z M 222.785156 192.296875 C 247.246094 218.28125 267.777344 234.507812 294.777344 234.507812 C 325.890625 234.507812 336.929688 211.988281 336.929688 192.695312 C 336.929688 176.507812 328.050781 149.113281 294.777344 149.113281 C 267.738281 149.113281 245.277344 168.511719 222.785156 192.296875 Z M 88.34375 149.113281 C 49.625 149.113281 47.660156 183.925781 47.660156 190.90625 C 47.660156 207.101562 56.230469 234.507812 88.34375 234.507812 C 114.179688 234.507812 136.128906 215.4375 158.222656 192.050781 C 135.898438 167.828125 114.894531 149.113281 88.34375 149.113281 Z M 88.34375 149.113281 "/>
  </g>
</svg>