<svg width="462" height="511" xmlns="http://www.w3.org/2000/svg"><g fill="#000" fill-rule="nonzero"><path d="M230.617872,503.956879 C227.113759,500.452766 245.542128,334.12539 136.860142,225.534184 C83.2817021,172.010213 9.49560284,130.687092 9.14836915,131.286241 C8.80567376,131.88539 47.6595745,151.729929 216.982695,247.956879 C225.487568,252.76967 235.893425,252.76967 244.398298,247.956879 C413.648794,151.729929 452.448227,131.758298 452.159345,131.286241 C451.867234,130.814184 378.026667,172.010213 324.448227,225.534184 C215.693617,334.12539 234.121986,500.452766 230.617872,503.956879 Z"/><path d="M230.636135,0.0041019373 L0,127.474126 L0,382.819208 L230.636135,510.289231 L461.253901,382.819082 L461.253901,127.474251 L230.636135,0.0041019373 Z M10.893617,133.900059 L230.635922,12.4509335 L450.360284,133.899934 L450.360284,376.3934 L230.635922,497.8424 L10.893617,376.393274 L10.893617,133.900059 Z"/><ellipse cx="230.6" cy="183.6" rx="27.4" ry="26.7"/></g></svg>
