<svg xmlns="http://www.w3.org/2000/svg" viewBox="0 0 462 511"><path d="M230.618 503.957c-3.504-3.504 14.924-169.832-93.758-278.423C83.282 172.01 9.496 130.687 9.148 131.286c-.342.6 38.512 20.444 207.835 116.67a27.833 27.833 0 0027.415 0c169.25-96.226 208.05-116.198 207.761-116.67-.292-.472-74.132 40.724-127.71 94.248-108.755 108.591-90.327 274.919-93.831 278.423z"/><path d="M230.636.004L0 127.474V382.82l230.636 127.47 230.618-127.47V127.474L230.636.004zM10.894 133.9L230.636 12.45 450.36 133.9v242.493l-219.724 121.45-219.742-121.45V133.9z"/><ellipse cx="230.6" cy="183.6" rx="27.4" ry="26.7"/></svg>