<svg width="509" height="510" xmlns="http://www.w3.org/2000/svg"><g fill="#000" fill-rule="nonzero"><path d="M0 254.432c-.268 140.43 113.355 254.49 253.786 254.758 140.43.268 254.489-113.355 254.757-253.786v-1.944a255.633 255.633 0 0 0-6.956-58.113 27.271 27.271 0 1 0-53.058 12.638c20.828 86.981-18.68 177.21-96.723 220.9s-175.613 30.202-238.875-33.024c-63.263-63.225-76.808-160.788-33.164-238.856 43.645-78.069 133.85-117.629 220.844-96.852 14.652 3.49 29.358-5.559 32.848-20.21 3.49-14.652-5.559-29.358-20.21-32.848A254.252 254.252 0 0 0-.001 254.432"/><path d="M382.79 68.449c-.367.345-.605.756-.95 1.123a40.204 40.204 0 0 0-10.802 24.045v4.32c0 .994-.216 1.966-.324 2.96a72.609 72.609 0 0 1-88.833 63.535c-1.83-.403-3.644-.9-5.444-1.49a93.543 93.543 0 0 0-85.895 22.424c-.93.864-1.945 1.599-2.852 2.506-36.742 36.742-36.742 96.313 0 133.055 36.742 36.742 96.313 36.742 133.055 0a92.138 92.138 0 0 0 10.543-12.832 94.04 94.04 0 0 0 14.388-75.612c-.54-1.707-.973-3.392-1.383-5.12 0-.26-.151-.497-.216-.756a72.652 72.652 0 0 1 64.702-88.725c.54 0 1.059-.151 1.599-.173 1.534 0 3.067-.173 4.601-.173h.367c9.396-.863 18.189-5 24.844-11.687a42.861 42.861 0 0 0 4.321-5.271c12.15-17.177 9.137-40.794-6.937-54.368-16.074-13.575-39.862-12.593-54.762 2.26"/></g></svg>
