<svg width="360" height="512" xmlns="http://www.w3.org/2000/svg"><g fill="#000" fill-rule="nonzero"><path d="M153.45245 256L344.67781 365.629971C351.317579 369.466282 359.727954 364.597118 359.727954 356.924496L359.727954 154.927954C359.727954 147.255331 351.317579 142.386167 344.67781 146.222478L153.45245 256zM333.611527 99.0063401L206.570605 2.06570605C200.668588-2.36080692 192.258213.737752161 190.635159 7.96772334L144.304323 223.981556 332.578674 115.827089C338.775793 112.138329 339.365994 103.432853 333.611527 99.0063401zM206.570605 509.934294L333.759078 412.84611C339.513545 408.419597 338.923343 399.714121 332.726225 396.172911L144.304323 288.018444 190.782709 504.032277C192.110663 511.262248 200.668588 514.360807 206.570605 509.934294z"/><path d="M104.465706,256 L154.485303,23.3129683 C156.403458,14.1648415 145.927378,7.52507205 138.549856,13.2795389 L10.4760807,111.105476 C3.83631124,116.12219 2.84217094e-14,123.942363 2.84217094e-14,132.205187 L2.84217094e-14,380.089914 C2.84217094e-14,388.352738 3.83631124,396.172911 10.4760807,401.189625 L138.549856,498.868012 C145.927378,504.474928 156.403458,497.835159 154.485303,488.834582 L104.465706,256 Z"/></g></svg>
