<svg xmlns="http://www.w3.org/2000/svg" viewBox="0 0 360 512"><path d="M153.452 256l191.226 109.63c6.64 3.836 15.05-1.033 15.05-8.706V154.928c0-7.673-8.41-12.542-15.05-8.706L153.452 256zm180.16-156.994L206.57 2.066c-5.902-4.427-14.313-1.328-15.936 5.902l-46.33 216.014 188.274-108.155c6.197-3.689 6.787-12.394 1.033-16.82zM206.57 509.934l127.188-97.088c5.755-4.426 5.164-13.132-1.033-16.673L144.304 288.018l46.479 216.014c1.328 7.23 9.886 10.329 15.788 5.902z"/><path d="M104.466 256l50.02-232.687c1.917-9.148-8.559-15.788-15.936-10.033L10.476 111.105C3.836 116.122 0 123.942 0 132.205V380.09c0 8.263 3.836 16.083 10.476 21.1l128.074 97.678c7.377 5.607 17.853-1.033 15.935-10.033L104.465 256z"/></svg>