<svg xmlns="http://www.w3.org/2000/svg" viewBox="0 0 384 384"><path d="M191.79-.055C85.84-.055-.048 85.835-.048 191.777c0 105.95 85.887 191.844 191.836 191.844 105.945 0 191.832-85.89 191.832-191.844C383.621 85.836 297.734-.055 191.79-.055zm109.616 191.832c0 35.157-16.601 66.38-42.336 86.43l-12.59-19.973c19.176-15.793 31.438-39.671 31.438-66.46 0-28.712-14.098-54.09-35.703-69.735l16.105-17.285c26.168 20.035 43.086 51.527 43.086 87.023zm-77.37-50.218c16.534 10.613 27.515 29.105 27.515 50.218 0 17.387-7.434 33.008-19.285 43.914l-38.715-61.41zm28.737-96.977l-92.671 98.008 13.136-97.219h-44.304c19.285-8.293 40.527-12.902 62.855-12.902 21.606.004 42.195 4.32 60.984 12.113zM94.648 242.562a108.992 108.992 0 01-12.476-50.785c0-28.851 11.195-55.066 29.426-74.636zm-62.171-50.785c0-62.46 35.964-116.488 88.3-142.601l-3.097 22.918C77.66 96.922 51 141.223 51 191.777c0 36.957 14.293 70.528 37.586 95.637L85.48 310.41c-32.527-29.168-53.003-71.504-53.003-118.633zm71.273 132.77h31.77l16.636-123.11 1.36.168 77.511 122.942h48.805c-25.227 16.765-55.48 26.55-88.043 26.55-32.555 0-62.82-9.784-88.039-26.55zm181.941-4.102l-9.91-15.726c34.453-25.656 56.793-66.676 56.793-112.942 0-44.496-20.664-84.14-52.902-109.941l12.672-13.598c35.847 29.211 58.75 73.692 58.75 123.54.004 52.859-25.758 99.687-65.403 128.667zm0 0"/></svg>