<?xml version="1.0" encoding="UTF-8" standalone="yes"?>
<svg xmlns="http://www.w3.org/2000/svg" xmlns:xlink="http://www.w3.org/1999/xlink" width="512px" height="512px" viewBox="0 0 384 384" version="1.1">
  <g id="surface1">
    <path style=" stroke:none;fill-rule:nonzero;fill:rgb(0%,0%,0%);fill-opacity:1;" d="M 191.789062 -0.0546875 C 85.839844 -0.0546875 -0.046875 85.835938 -0.046875 191.777344 C -0.046875 297.726562 85.839844 383.621094 191.789062 383.621094 C 297.734375 383.621094 383.621094 297.730469 383.621094 191.777344 C 383.621094 85.835938 297.734375 -0.0546875 191.789062 -0.0546875 Z M 301.40625 191.777344 C 301.40625 226.933594 284.804688 258.15625 259.070312 278.207031 L 246.480469 258.234375 C 265.65625 242.441406 277.917969 218.5625 277.917969 191.773438 C 277.917969 163.0625 263.820312 137.683594 242.214844 122.039062 L 258.320312 104.753906 C 284.488281 124.789062 301.40625 156.28125 301.40625 191.777344 Z M 224.035156 141.558594 C 240.570312 152.171875 251.550781 170.664062 251.550781 191.777344 C 251.550781 209.164062 244.117188 224.785156 232.265625 235.691406 L 193.550781 174.28125 Z M 252.773438 44.582031 L 160.101562 142.589844 L 173.238281 45.371094 L 128.933594 45.371094 C 148.21875 37.078125 169.460938 32.46875 191.789062 32.46875 C 213.394531 32.472656 233.984375 36.789062 252.773438 44.582031 Z M 94.648438 242.5625 C 86.429688 226.898438 82.148438 209.46875 82.171875 191.777344 C 82.171875 162.925781 93.367188 136.710938 111.597656 117.140625 Z M 32.476562 191.777344 C 32.476562 129.316406 68.441406 75.289062 120.777344 49.175781 L 117.679688 72.09375 C 77.660156 96.921875 51 141.222656 51 191.777344 C 51 228.734375 65.292969 262.304688 88.585938 287.414062 L 85.480469 310.410156 C 52.953125 281.242188 32.476562 238.90625 32.476562 191.777344 Z M 103.75 324.546875 L 135.519531 324.546875 L 152.15625 201.4375 L 153.515625 201.605469 L 231.027344 324.546875 L 279.832031 324.546875 C 254.605469 341.3125 224.351562 351.097656 191.789062 351.097656 C 159.234375 351.097656 128.96875 341.3125 103.75 324.546875 Z M 285.691406 320.445312 L 275.78125 304.71875 C 310.234375 279.0625 332.574219 238.042969 332.574219 191.777344 C 332.574219 147.28125 311.910156 107.636719 279.671875 81.835938 L 292.34375 68.238281 C 328.191406 97.449219 351.09375 141.929688 351.09375 191.777344 C 351.097656 244.636719 325.335938 291.464844 285.691406 320.445312 Z M 285.691406 320.445312 "/>
  </g>
</svg>