<svg xmlns="http://www.w3.org/2000/svg" viewBox="0 0 384 384"><path d="M358.262 165.305c6.687-11.649 1.234-16.106 1.234-16.106s5.207-26.762-5.45-26.762c0-5.945-15.855-27.003-17.343-16.351 0 0-29.98-23.785-61.941-6.195-31.965 17.593-29.735 50.046-29.735 50.046s-23.539.497-32.21-.988c-8.672-1.488-25.77-10.16-25.77-10.16s15.86-12.387 11.398-30.226c11.153 1.238-9.414-24.528-11.89-28.497 0 0 7.187-71.109-11.399-77.55-18.582-6.438-39.89 35.93-41.625 35.93-1.734 0-9.996-4.298-21.722-4.958-11.727-.66-23.29 3.137-23.29 3.137S64.567-4.844 48.216 1.852C31.863 8.547 36.652 71.312 37.148 80.07c0 0-15.363 17.098-15.113 22.797.246 5.7 3.469 6.938 3.469 6.938s-1.488 10.652.492 15.61c1.984 4.952 26.758 27.75 28.496 32.21 1.735 4.46-1.238 51.535 2.973 76.809 4.21 25.273 15.61 44.597 20.07 76.562 4.461 31.965-2.48 64.172 0 66.402 2.477 2.23 27.75 2.23 31.219 0 3.469-2.23 6.441-31.218 6.691-48.066.246-16.848 0-41.129 0-41.129s18.086 1.485 20.317 5.945c2.23 4.461 1.984 28.743 1.238 44.848-.742 16.106-5.945 38.652-4.215 41.379 1.735 2.727 25.028 5.7 30.727 0 5.699-5.7 14.867-93.906 16.351-95.64 1.485-1.735 37.664-25.77 37.664-25.77s.496 13.629 4.457 19.328c3.965 5.7 28.993 27.504 29.489 33.45.492 5.945-24.778 47.323-22.051 49.058 2.723 1.734 32.457 4.46 38.16.992 5.695-3.469 15.36-26.762 17.586-36.176 2.23-9.414 4.71-30.476 4.71-30.476s28.247 14.125 29.731 17.84c1.489 3.714.246 27.007-2.972 36.421-3.219 9.414-13.133 26.758-10.903 28.243 2.23 1.492 36.176 2.976 38.899.746 2.726-2.23 13.383-62.688 10.656-82.262-2.726-19.574-12.883-17.094-13.875-25.52-.988-8.425 2.23-51.043.246-63.68-1.98-12.636-7.683-16.35-7.683-18.831 0-2.477 17.597-11.149 24.285-22.793zM77.125 104.187c-7.297 0-13.215-9.246-13.215-20.648s5.918-20.648 13.215-20.648S90.34 72.137 90.34 83.539c-.004 11.402-5.918 20.648-13.215 20.648zm23.7 63.223c-8.919 0-14.372-10.902-12.759-20.191 9.164.37 12.18-4.711 12.18-4.711 3.676 6.074 13.711 4.336 14.453 4.46.004 8.552-4.953 20.442-13.875 20.442zm-.579-31.426c-7.98 0-14.453-4.03-14.453-9.004 0-4.968 6.473-9 14.453-9 7.984 0 14.453 4.032 14.453 9 .004 4.977-6.469 9.004-14.453 9.004zm34.031-31.797c-7.297 0-13.214-9.246-13.214-20.648s5.917-20.648 13.214-20.648c7.297 0 13.215 9.246 13.215 20.648s-5.918 20.648-13.215 20.648zm0 0"/></svg>