<svg xmlns="http://www.w3.org/2000/svg" viewBox="0 0 506 448"><path d="M383.315 447.446L38.13 205.284a89.462 89.462 0 010-146.473L121.78 0l345.184 242.162a89.462 89.462 0 010 146.474zM121.71 39.23L56.534 84.826a57.496 57.496 0 000 94.236l326.85 229.154 65.176-45.595a57.496 57.496 0 000-94.236z"/><path d="M121.434 408.216l-65.108-45.665a57.496 57.496 0 010-94.235l168.407-117.622-27.676-19.511L38.13 242.163a89.462 89.462 0 000 146.473l83.373 58.534 103.16-72.165-27.675-19.51zM467.103 58.95L383.66.415 280.43 72.65l27.675 19.511 75.416-52.791 65.107 45.665a57.496 57.496 0 010 94.235L280.223 296.891l27.675 19.511 159.136-111.187a89.462 89.462 0 000-146.473z"/><path d="M57.86 228.123l131.294-91.865 18.286 26.134-131.295 91.865zM431.816 191.1l-63.93 44.766 18.265 26.153 66.353-46.425c-7.058-8.026-13.838-16.26-20.688-24.493z"/></svg>