<svg xmlns="http://www.w3.org/2000/svg" viewBox="0 0 512 512"><path d="M243.747.141c-.588.047-2.918.188-5.176.33-8.989.564-20.142 1.953-29.342 3.647-46.87 8.635-90.023 30.07-125.6 62.353-4.8 4.353-14.423 14.023-18.494 18.588C29.3 125.224 7.347 174.329 1.418 227.647.265 237.788.1 241.341.1 255.765c0 14.07.094 16.33 1.082 26.235 4.212 42.07 18.87 82.47 42.73 117.624 13.459 19.858 29.74 37.788 48.306 53.27 33.34 27.765 73.388 46.659 115.858 54.635a257.984 257.984 0 0095.577 0c66.588-12.517 125.882-51.482 164.165-107.905 26.306-38.777 41.247-83.389 43.717-130.542.353-6.917.141-26.211-.353-32.494-3.788-46.917-19.13-89.859-45.623-127.647-12.659-18.047-28.73-35.53-45.718-49.67C380.971 26.894 333.865 6.824 284.1 1.41 274.265.354 270.853.189 257.63.119c-7.06-.024-13.295-.024-13.883.023zM273.16 20.8c35.317 2.847 67.27 12.4 97.294 29.153 37.788 21.059 69.365 52.447 90.706 90.165 2.8 4.964 8.212 15.74 10.353 20.588 9.67 22.094 15.976 45.459 18.588 68.941 1.647 14.87 1.859 31.577.588 46.588-4.07 47.953-22.94 93.67-54.023 130.824-29.53 35.317-68.612 61.2-112.447 74.494-15.083 4.588-31.153 7.718-46.824 9.13-13.859 1.27-29.2 1.27-43.059 0-45.506-4.118-88.988-21.554-124.823-50.048-51.036-40.564-83.012-100-88.47-164.4-1.271-15.035-1.06-31.788.587-46.588 3.906-35.012 15.6-68.565 34.283-98.47 21.13-33.812 50.612-61.86 85.364-81.224 30.518-17.012 64.777-27.106 99.177-29.247 2.259-.141 4.706-.282 5.412-.33 3.411-.211 23.035.095 27.294.424z"/><path d="M247.512 38.988c-.965.047-4.047.236-6.824.424-27.788 1.976-54 9.035-81.059 21.835-27.811 13.153-51.458 32.33-72.917 59.082-14.8 18.471-26.236 38.612-34.518 60.753-9.482 25.46-13.976 54.753-12.682 82.683 1.976 42.14 13.6 77.717 36.894 112.8 23.176 34.964 55.294 61.6 94.282 78.235 22.612 9.67 44.87 14.941 70.588 16.776 5.412.377 21.742.377 27.295 0 20.776-1.435 38.305-4.776 55.929-10.658 9.318-3.106 17.365-6.47 27.247-11.412 25.13-12.588 45.506-27.67 62.518-46.306 19.035-20.824 32.776-42.212 42.282-65.859 13.388-33.2 18.4-67.223 15.059-102.047-3.835-40.165-18.047-77.059-42.165-109.412-12.706-17.058-22.565-27.27-38.706-40.094-20.447-16.259-43.6-28.894-66.988-36.564-17.976-5.883-35.882-9.177-55.294-10.165-4.141-.212-16.424-.259-20.941-.07zm147.764 72.353c-3.788 11.788-5.388 17.294-6.047 20.777-.729 3.906-.611 15.576.165 16.823.235.377 2.235-.847 6-3.647 3.318-2.47 5.365-4.353 6.635-6.094.565-.753 1.012-1.318 1.012-1.247 0 .07-.353 1.13-.8 2.33-1.906 5.246-5.765 13.529-8.188 17.552-3.247 5.389-6.73 7.153-10.706 5.341-.823-.352-1.6-.8-1.741-.964-.141-.188-.353-.283-.447-.212-.424.259-6.541-7.082-8.87-10.659-3.224-4.917-5.413-11.553-6.189-18.682-.118-1.27-.235-2.753-.235-3.294l.023-1.012 1.741 1.835c3.271 3.412 5.06 6.094 8.965 13.46l1.388 2.587.142-1.882c.211-2.588.964-5.624 2.588-10.377 3.34-9.811 7.553-18.47 11.623-24 1.412-1.905 4.73-5.458 4.918-5.247.07.047-.824 3.036-1.977 6.612zM339.865 151.2c3.059.424 6.423 1.247 10.164 2.47 6.142 1.977 9.953 3.577 22.518 9.318 9.765 4.47 14.259 6.4 18.753 8.047 2.776 1.012 7.6 2.494 9.741 2.965.588.118.07.353-3.412 1.506-10.54 3.506-17.364 7.388-22.635 12.918-5.082 5.364-7.765 11.505-8.918 20.635-.494 3.835-.376 15.153.26 24.941.752 11.153.823 26.541.164 31.882-1.576 12.824-4.635 23.553-9.835 34.306a101.63 101.63 0 01-10.494 17.294c-6.612 8.73-15.906 17.224-24.612 22.494l-.894.542 1.27-2.07c9.67-15.954 17.318-35.272 19.789-49.907 3.129-18.753-.777-31.176-11.506-36.494-3.953-1.976-7.93-2.847-13.812-3.035-10.235-.353-21.953 2.14-42.424 8.964-20.235 6.753-39.247 14.848-62.94 26.753-13.436 6.753-15.083 7.695-29.342 16.965-11.93 7.788-17.435 11.106-23.27 14.024-11.624 5.811-21.883 8.306-31.13 7.576-6.259-.494-12.259-2.094-17.576-4.682-4.26-2.094-6.848-3.93-10.118-7.177-4.165-4.164-5.365-6.211-6.094-10.447-1.624-9.082.682-24.117 3.788-24.894.941-.235 1.624.306 2.894 2.235 4.635 7.153 12.612 10.447 25.2 10.447 8.4 0 16.282-1.176 28.235-4.188 6.871-1.74 11.742-3.223 25.53-7.764 6.47-2.118 14.682-4.8 18.235-5.953 29.106-9.46 51.435-19.906 68.541-32.118 9.6-6.87 17.93-14.47 21.177-19.365 3.576-5.364 6.282-12.47 9.459-24.8 3.953-15.317 5.411-19.906 8.023-25.364 4.565-9.577 10.706-15.106 19.27-17.342 4.871-1.294 10.307-1.53 16-.682zm-200.589-.141c46.212 2.517 93.836 20.023 124.471 45.694 3.741 3.153 6 5.365 7.412 7.27 4.706 6.4 4.165 12.142-1.741 18.377-3.53 3.718-8 6.8-15.436 10.541-13.388 6.777-29.247 12.118-60.87 20.447-10.33 2.73-16 4.306-17.483 4.87-.447.19-.447.166.024-.634 2-3.389 6.023-10.612 5.953-10.683-.047-.023-5.506-.494-12.118-1.012l-12.023-.917-2.094-.941c-3.883-1.695-6.589-3.93-7.812-6.424-.847-1.741-.87-4.612-.07-6.588 1.317-3.224 4.893-7.459 9.011-10.659 4.824-3.741 11.882-7.67 16.235-8.988 1.27-.4 2.306-.8 2.306-.918 0-.094-.165-.141-.353-.047-.588.212-5.247.824-8.33 1.082-5.2.424-14.023.542-19.317.26-14.259-.777-22.447-3.036-25.2-6.895-.47-.635-.47-.706-.117-1.247 1.152-1.741 8.705-4.023 21.435-6.447 2.73-.518 8.917-1.647 13.765-2.494 10-1.765 14.8-2.73 17.011-3.412 1.46-.447 2.283-1.012 1.883-1.247-.353-.212-2.918-.612-11.883-1.812-26.517-3.53-37.6-6.706-37.6-10.73 0-1.881 3.577-4.376 7.836-5.481 4-1.036 7.929-1.412 16.588-1.648l6.212-.14-3.389-1.389c-10.847-4.494-24.353-10.918-28.306-13.482-1.976-1.294-3.6-2.8-3.317-3.083.07-.047 1.694-.4 3.6-.753 3.976-.753 6.776-.847 13.717-.47zm250.306 39.176c-.117 2.706-.164 5.789-.094 6.847.118 2.142.965 6.447 2.165 11.13.447 1.717.8 3.2.8 3.27 0 .142-7.318-.117-7.459-.258-.212-.236-.8-3.624-1.035-6.236-.235-2.259-.235-3.74 0-6.776.47-6.377.776-7.93 1.835-9.46.494-.728 1.553-1.81 2.424-2.423.823-.611 1.53-1.105 1.553-1.082.023.024-.047 2.259-.189 4.988zm-77.93 79.06c13.272 3.858 17.836 14.517 13.6 31.81-3.317 13.624-12.117 31.248-25.81 51.695-12.918 19.294-30.518 41.2-42.566 52.965-3.74 3.647-4.352 4.164-7.129 5.788-9.623 5.67-26.023 13.859-36.518 18.235-11.153 4.636-18.823 6.918-23.388 6.942-2.4.023-3.53-.377-4.212-1.483-1.247-1.976.306-5.365 7.365-15.93 6.753-10.117 13.835-19.317 27.2-35.293 9.53-11.389 9.27-11.083 9.13-11.224-.142-.141-4.236 3.624-11.93 10.965-11.176 10.659-16.8 15.835-22.941 21.082-16.141 13.741-29.2 21.341-39.835 23.153-1.483.259-2.942.47-3.247.47-.565 0-.565-.023.353-1.246 1.411-1.86 3.623-5.765 8.07-14.26 10.024-19.129 13.294-25.152 18.259-33.435 5.576-9.364 10.776-16.87 15.694-22.705 2.518-3.012 7.341-7.742 9.482-9.365.824-.612 1.342-1.106 1.153-1.106-.188 0-1.717.518-3.364 1.13-7.318 2.776-13.083 4.423-16.212 4.658-2.094.165-2.965-.07-3.53-.917-.729-1.13.33-3.177 4.095-7.86 6-7.505 13.6-14.564 28.353-26.329 3.552-2.823 6.4-5.176 6.282-5.223-.094-.024-1.765.706-3.718 1.67-3.835 1.86-5.976 2.636-8.235 2.942l-1.482.211v-.659c0-.917.917-3.34 1.929-5.176 5.247-9.318 17.082-18.87 32.988-26.588 16.306-7.883 35.2-12.541 62.024-15.27 4.894-.495 5.223-.471 8.14.352zM197.56 304.046c-.635 1.106-3.224 6-7.106 13.365-12.8 24.376-22.259 35.6-32 38-1.365.33-2.212.376-4.941.235-5.93-.282-10.753.941-22.706 5.812-12.377 5.035-15.318 6.07-17.694 6.141-1.106.047-1.436-.047-1.86-.47-1.693-1.671 1.319-7.177 9.79-18 1.34-1.718 2.4-3.154 2.352-3.224-.047-.047-.965.47-2.023 1.153-4.4 2.823-11.177 5.623-17.036 7.082-10.047 2.47-17.53 1.483-17.53-2.306 0-.94.966-2.8 2.19-4.282 2.987-3.553 11.176-9.506 15.952-11.577 5.67-2.447 11.012-3.458 24.447-4.564 8.777-.73 13.859-1.341 17.365-2.141 8.965-2 24.682-9.106 37.341-16.871 3.482-2.141 9.976-6.447 12.306-8.165.87-.635 1.623-1.153 1.647-1.176.047 0-.165.447-.494.988z"/><path d="M330.335 168.588c-5.294 1.294-9.459 5.412-13.34 13.177-2.613 5.223-4.613 10.776-8.66 24.164-4.635 15.412-7.13 21.46-10.588 25.765-.706.87-1.247 1.6-1.223 1.624.023.023 1.129-.165 2.47-.4 15.67-2.824 29.6-1.577 40.165 3.576 2.87 1.388 6.07 3.435 8.188 5.247.894.753 1.67 1.318 1.718 1.247.07-.047 0-3.27-.141-7.13-.989-26.329 3.435-44.823 13.835-58.187 1.765-2.26 1.812-2.047-.894-3.412-2.447-1.247-5.718-2.235-10.565-3.177-3.482-.706-3.341-.73-2.918.612.565 1.718.494 5.482-.14 7.224-.99 2.753-2.824 4.917-5.154 6.047-1.67.823-4.4.8-6.188-.094-3.694-1.789-5.93-6.636-5.2-11.271.165-1.153.565-2.33 1.176-3.553l.942-1.812-1.106.024c-.588 0-1.67.165-2.377.33zm-139.67 12.141c2.776 4.518 4.047 11.224 3.435 18.212-1.153 13.577-7.294 24.988-15.482 28.777l-1.342.611 1.412.165c2.894.33 6.283 1.882 12 5.435 3.388 2.118 5.365 3.13 6.753 3.483.918.235 1.27.188 3.365-.47 12.165-3.883 26.306-10.754 38.118-18.518 5.082-3.365 12.352-8.706 12.352-9.106-.023-.4-5.058-4.189-9.788-7.342-10.87-7.27-22.87-13.035-37.364-17.952-4.377-1.506-11.577-3.718-13.412-4.165l-.683-.165.636 1.035zm109.788 106.236c-12.494 1.53-22.682 3.647-31.882 6.611-5.836 1.906-9.93 3.553-15.765 6.424-7.435 3.647-12.73 6.894-19.647 12.07-4.188 3.13-5.435 4.4-5.953 6.024-.541 1.718-.518 5.435.07 9.318.236 1.67.683 4.494.942 6.235 1.882 12.282-.142 20.141-6.824 26.447-.918.87-1.647 1.67-1.6 1.765.047.117 2.894 2.917 6.33 6.212 9.647 9.247 11.694 11.882 12.117 15.505.47 3.977-1.882 8.071-12.235 21.248-1.624 2.07-2.847 3.788-2.73 3.835 1.083.376 15.695-13.647 27.06-25.953 29.482-31.93 51.646-61.788 58.517-78.824 1.576-3.882 2.212-6.423 2.353-9.411.165-3.342-.212-4.847-1.624-6.4-1.835-1.953-2-1.977-9.13-1.106z"/></svg>