<svg width="512" height="512" xmlns="http://www.w3.org/2000/svg"><g fill="#000" fill-rule="nonzero"><path d="M243.647059,511.858824 C243.058824,511.811765 240.729412,511.670588 238.470588,511.529412 C229.482353,510.964706 218.329412,509.576471 209.129412,507.882353 C162.258824,499.247059 119.105882,477.811765 83.5294118,445.529412 C78.7294118,441.176471 69.1058824,431.505882 65.0352941,426.941176 C29.2,386.776471 7.24705882,337.670588 1.31764706,284.352941 C0.164705882,274.211765 0,270.658824 0,256.235294 C0,242.164706 0.0941176471,239.905882 1.08235294,230 C5.29411765,187.929412 19.9529412,147.529412 43.8117647,112.376471 C57.2705882,92.5176471 73.5529412,74.5882353 92.1176471,59.1058824 C125.458824,31.3411765 165.505882,12.4470588 207.976471,4.47058824 C239.576471,-1.48235294 271.952941,-1.48235294 303.552941,4.47058824 C370.141176,16.9882353 429.435294,55.9529412 467.717647,112.376471 C494.023529,151.152941 508.964706,195.764706 511.435294,242.917647 C511.788235,249.835294 511.576471,269.129412 511.082353,275.411765 C507.294118,322.329412 491.952941,365.270588 465.458824,403.058824 C452.8,421.105882 436.729412,438.588235 419.741176,452.729412 C380.870588,485.105882 333.764706,505.176471 284,510.588235 C274.164706,511.647059 270.752941,511.811765 257.529412,511.882353 C250.470588,511.905882 244.235294,511.905882 243.647059,511.858824 Z M273.058824,491.2 C308.376471,488.352941 340.329412,478.8 370.352941,462.047059 C408.141176,440.988235 439.717647,409.6 461.058824,371.882353 C463.858824,366.917647 469.270588,356.141176 471.411765,351.294118 C481.082353,329.2 487.388235,305.835294 490,282.352941 C491.647059,267.482353 491.858824,250.776471 490.588235,235.764706 C486.517647,187.811765 467.647059,142.094118 436.564706,104.941176 C407.035294,69.6235294 367.952941,43.7411765 324.117647,30.4470588 C309.035294,25.8588235 292.964706,22.7294118 277.294118,21.3176471 C263.435294,20.0470588 248.094118,20.0470588 234.235294,21.3176471 C188.729412,25.4352941 145.247059,42.8705882 109.411765,71.3647059 C58.3764706,111.929412 26.4,171.364706 20.9411765,235.764706 C19.6705882,250.8 19.8823529,267.552941 21.5294118,282.352941 C25.4352941,317.364706 37.1294118,350.917647 55.8117647,380.823529 C76.9411765,414.635294 106.423529,442.682353 141.176471,462.047059 C171.694118,479.058824 205.952941,489.152941 240.352941,491.294118 C242.611765,491.435294 245.058824,491.576471 245.764706,491.623529 C249.176471,491.835294 268.8,491.529412 273.058824,491.2 Z" transform="matrix(1 0 0 -1 .1 512)"/><path d="M247.411765,473.011765 C246.447059,472.964706 243.364706,472.776471 240.588235,472.588235 C212.8,470.611765 186.588235,463.552941 159.529412,450.752941 C131.717647,437.6 108.070588,418.423529 86.6117647,391.670588 C71.8117647,373.2 60.3764706,353.058824 52.0941176,330.917647 C42.6117647,305.458824 38.1176471,276.164706 39.4117647,248.235294 C41.3882353,206.094118 53.0117647,170.517647 76.3058824,135.435294 C99.4823529,100.470588 131.6,73.8352941 170.588235,57.2 C193.2,47.5294118 215.458824,42.2588235 241.176471,40.4235294 C246.588235,40.0470588 262.917647,40.0470588 268.470588,40.4235294 C289.247059,41.8588235 306.776471,45.2 324.4,51.0823529 C333.717647,54.1882353 341.764706,57.5529412 351.647059,62.4941176 C376.776471,75.0823529 397.152941,90.1647059 414.164706,108.8 C433.2,129.623529 446.941176,151.011765 456.447059,174.658824 C469.835294,207.858824 474.847059,241.882353 471.505882,276.705882 C467.670588,316.870588 453.458824,353.764706 429.341176,386.117647 C416.635294,403.176471 406.776471,413.388235 390.635294,426.211765 C370.188235,442.470588 347.035294,455.105882 323.647059,462.776471 C305.670588,468.658824 287.764706,471.952941 268.352941,472.941176 C264.211765,473.152941 251.929412,473.2 247.411765,473.011765 Z M395.176471,400.658824 C391.388235,388.870588 389.788235,383.364706 389.129412,379.882353 C388.4,375.976471 388.517647,364.305882 389.294118,363.058824 C389.529412,362.682353 391.529412,363.905882 395.294118,366.705882 C398.611765,369.176471 400.658824,371.058824 401.929412,372.8 C402.494118,373.552941 402.941176,374.117647 402.941176,374.047059 C402.941176,373.976471 402.588235,372.917647 402.141176,371.717647 C400.235294,366.470588 396.376471,358.188235 393.952941,354.164706 C390.705882,348.776471 387.223529,347.011765 383.247059,348.823529 C382.423529,349.176471 381.647059,349.623529 381.505882,349.788235 C381.364706,349.976471 381.152941,350.070588 381.058824,350 C380.635294,349.741176 374.517647,357.082353 372.188235,360.658824 C368.964706,365.576471 366.776471,372.211765 366,379.341176 C365.882353,380.611765 365.764706,382.094118 365.764706,382.635294 L365.788235,383.647059 L367.529412,381.811765 C370.8,378.4 372.588235,375.717647 376.494118,368.352941 L377.882353,365.764706 L378.023529,367.647059 C378.235294,370.235294 378.988235,373.270588 380.611765,378.023529 C383.952941,387.835294 388.164706,396.494118 392.235294,402.023529 C393.647059,403.929412 396.964706,407.482353 397.152941,407.270588 C397.223529,407.223529 396.329412,404.235294 395.176471,400.658824 Z M339.764706,360.8 C342.823529,360.376471 346.188235,359.552941 349.929412,358.329412 C356.070588,356.352941 359.882353,354.752941 372.447059,349.011765 C382.211765,344.541176 386.705882,342.611765 391.2,340.964706 C393.976471,339.952941 398.8,338.470588 400.941176,338 C401.529412,337.882353 401.011765,337.647059 397.529412,336.494118 C386.988235,332.988235 380.164706,329.105882 374.894118,323.576471 C369.811765,318.211765 367.129412,312.070588 365.976471,302.941176 C365.482353,299.105882 365.6,287.788235 366.235294,278 C366.988235,266.847059 367.058824,251.458824 366.4,246.117647 C364.823529,233.294118 361.764706,222.564706 356.564706,211.811765 C353.576471,205.576471 350.047059,199.788235 346.070588,194.517647 C339.458824,185.788235 330.164706,177.294118 321.458824,172.023529 L320.564706,171.482353 L321.835294,173.552941 C331.505882,189.505882 339.152941,208.823529 341.623529,223.458824 C344.752941,242.211765 340.847059,254.635294 330.117647,259.952941 C326.164706,261.929412 322.188235,262.8 316.305882,262.988235 C306.070588,263.341176 294.352941,260.847059 273.882353,254.023529 C253.647059,247.270588 234.635294,239.176471 210.941176,227.270588 C197.505882,220.517647 195.858824,219.576471 181.6,210.305882 C169.670588,202.517647 164.164706,199.2 158.329412,196.282353 C146.705882,190.470588 136.447059,187.976471 127.2,188.705882 C120.941176,189.2 114.941176,190.8 109.623529,193.388235 C105.364706,195.482353 102.776471,197.317647 99.5058824,200.564706 C95.3411765,204.729412 94.1411765,206.776471 93.4117647,211.011765 C91.7882353,220.094118 94.0941176,235.129412 97.2,235.905882 C98.1411765,236.141176 98.8235294,235.6 100.094118,233.670588 C104.729412,226.517647 112.705882,223.223529 125.294118,223.223529 C133.694118,223.223529 141.576471,224.4 153.529412,227.411765 C160.4,229.152941 165.270588,230.635294 179.058824,235.176471 C185.529412,237.294118 193.741176,239.976471 197.294118,241.129412 C226.4,250.588235 248.729412,261.035294 265.835294,273.247059 C275.435294,280.117647 283.764706,287.717647 287.011765,292.611765 C290.588235,297.976471 293.294118,305.082353 296.470588,317.411765 C300.423529,332.729412 301.882353,337.317647 304.494118,342.776471 C309.058824,352.352941 315.2,357.882353 323.764706,360.117647 C328.635294,361.411765 334.070588,361.647059 339.764706,360.8 Z M139.176471,360.941176 C185.388235,358.423529 233.011765,340.917647 263.647059,315.247059 C267.388235,312.094118 269.647059,309.882353 271.058824,307.976471 C275.764706,301.576471 275.223529,295.835294 269.317647,289.6 C265.788235,285.882353 261.317647,282.8 253.882353,279.058824 C240.494118,272.282353 224.635294,266.941176 193.011765,258.611765 C182.682353,255.882353 177.011765,254.305882 175.529412,253.741176 C175.082353,253.552941 175.082353,253.576471 175.552941,254.376471 C177.552941,257.764706 181.576471,264.988235 181.505882,265.058824 C181.458824,265.082353 176,265.552941 169.388235,266.070588 L157.364706,266.988235 L155.270588,267.929412 C151.388235,269.623529 148.682353,271.858824 147.458824,274.352941 C146.611765,276.094118 146.588235,278.964706 147.388235,280.941176 C148.705882,284.164706 152.282353,288.4 156.4,291.6 C161.223529,295.341176 168.282353,299.270588 172.635294,300.588235 C173.905882,300.988235 174.941176,301.388235 174.941176,301.505882 C174.941176,301.6 174.776471,301.647059 174.588235,301.552941 C174,301.341176 169.341176,300.729412 166.258824,300.470588 C161.058824,300.047059 152.235294,299.929412 146.941176,300.211765 C132.682353,300.988235 124.494118,303.247059 121.741176,307.105882 C121.270588,307.741176 121.270588,307.811765 121.623529,308.352941 C122.776471,310.094118 130.329412,312.376471 143.058824,314.8 C145.788235,315.317647 151.976471,316.447059 156.823529,317.294118 C166.823529,319.058824 171.623529,320.023529 173.835294,320.705882 C175.294118,321.152941 176.117647,321.717647 175.717647,321.952941 C175.364706,322.164706 172.8,322.564706 163.835294,323.764706 C137.317647,327.294118 126.235294,330.470588 126.235294,334.494118 C126.235294,336.376471 129.811765,338.870588 134.070588,339.976471 C138.070588,341.011765 142,341.388235 150.658824,341.623529 L156.870588,341.764706 L153.482353,343.152941 C142.635294,347.647059 129.129412,354.070588 125.176471,356.635294 C123.2,357.929412 121.576471,359.435294 121.858824,359.717647 C121.929412,359.764706 123.552941,360.117647 125.458824,360.470588 C129.435294,361.223529 132.235294,361.317647 139.176471,360.941176 Z M389.482353,321.764706 C389.364706,319.058824 389.317647,315.976471 389.388235,314.917647 C389.505882,312.776471 390.352941,308.470588 391.552941,303.788235 C392,302.070588 392.352941,300.588235 392.352941,300.517647 C392.352941,300.376471 385.035294,300.635294 384.894118,300.776471 C384.682353,301.011765 384.094118,304.4 383.858824,307.011765 C383.623529,309.270588 383.623529,310.752941 383.858824,313.788235 C384.329412,320.164706 384.635294,321.717647 385.694118,323.247059 C386.188235,323.976471 387.247059,325.058824 388.117647,325.670588 C388.941176,326.282353 389.647059,326.776471 389.670588,326.752941 C389.694118,326.729412 389.623529,324.494118 389.482353,321.764706 Z M311.552941,242.705882 C324.823529,238.847059 329.388235,228.188235 325.152941,210.894118 C321.835294,197.270588 313.035294,179.647059 299.341176,159.2 C286.423529,139.905882 268.823529,118 256.776471,106.235294 C253.035294,102.588235 252.423529,102.070588 249.647059,100.447059 C240.023529,94.7764706 223.623529,86.5882353 213.129412,82.2117647 C201.976471,77.5764706 194.305882,75.2941176 189.741176,75.2696138 C187.341176,75.2470588 186.211765,75.6470588 185.529412,76.7529412 C184.282353,78.7294118 185.835294,82.1176471 192.894118,92.6823529 C199.647059,102.8 206.729412,112 220.094118,127.976471 C229.623529,139.364706 229.364706,139.058824 229.223529,139.2 C229.082353,139.341176 224.988235,135.576471 217.294118,128.235294 C206.117647,117.576471 200.494118,112.4 194.352941,107.152941 C178.211765,93.4117647 165.152941,85.8117647 154.517647,84 C153.035294,83.7411765 151.576471,83.5294118 151.270588,83.5294118 C150.705882,83.5294118 150.705882,83.5529412 151.623529,84.7764706 C153.035294,86.6352941 155.247059,90.5411765 159.694118,99.0352941 C169.717647,118.164706 172.988235,124.188235 177.952941,132.470588 C183.529412,141.835294 188.729412,149.341176 193.647059,155.176471 C196.164706,158.188235 200.988235,162.917647 203.129412,164.541176 C203.952941,165.152941 204.470588,165.647059 204.282353,165.647059 C204.094118,165.647059 202.564706,165.129412 200.917647,164.517647 C193.6,161.741176 187.835294,160.094118 184.705882,159.858824 C182.611765,159.694118 181.741176,159.929412 181.176471,160.776471 C180.447059,161.905882 181.505882,163.952941 185.270588,168.635294 C191.270588,176.141176 198.870588,183.2 213.623529,194.964706 C217.176471,197.788235 220.023529,200.141176 219.905882,200.188235 C219.811765,200.211765 218.141176,199.482353 216.188235,198.517647 C212.352941,196.658824 210.211765,195.882353 207.952941,195.576471 L206.470588,195.364706 L206.470588,196.023529 C206.470588,196.941176 207.388235,199.364706 208.4,201.2 C213.647059,210.517647 225.482353,220.070588 241.388235,227.788235 C257.694118,235.670588 276.588235,240.329412 303.411765,243.058824 C308.305882,243.552941 308.635294,243.529412 311.552941,242.705882 Z M197.458824,207.952941 C196.823529,206.847059 194.235294,201.952941 190.352941,194.588235 C177.552941,170.211765 168.094118,158.988235 158.352941,156.588235 C156.988235,156.258824 156.141176,156.211765 153.411765,156.352941 C147.482353,156.635294 142.658824,155.411765 130.705882,150.541176 C118.329412,145.505882 115.388235,144.470588 113.011765,144.4 C111.905882,144.352941 111.576471,144.447059 111.152941,144.870588 C109.458824,146.541176 112.470588,152.047059 120.941176,162.870588 C122.282353,164.588235 123.341176,166.023529 123.294118,166.094118 C123.247059,166.141176 122.329412,165.623529 121.270588,164.941176 C116.870588,162.117647 110.094118,159.317647 104.235294,157.858824 C94.1882353,155.388235 86.7058824,156.376471 86.7058824,160.164706 C86.7058824,161.105882 87.6705882,162.964706 88.8941176,164.447059 C91.8823529,168 100.070588,173.952941 104.847059,176.023529 C110.517647,178.470588 115.858824,179.482353 129.294118,180.588235 C138.070588,181.317647 143.152941,181.929412 146.658824,182.729412 C155.623529,184.729412 171.341176,191.835294 184,199.6 C187.482353,201.741176 193.976471,206.047059 196.305882,207.764706 C197.176471,208.4 197.929412,208.917647 197.952941,208.941176 C198,208.941176 197.788235,208.494118 197.458824,207.952941 Z" transform="matrix(1 0 0 -1 .1 512)"/><path d="M330.235294 343.411765C324.941176 342.117647 320.776471 338 316.894118 330.235294 314.282353 325.011765 312.282353 319.458824 308.235294 306.070588 303.6 290.658824 301.105882 284.611765 297.647059 280.305882 296.941176 279.435294 296.4 278.705882 296.423529 278.682353 296.447059 278.658824 297.552941 278.847059 298.894118 279.082353 314.564706 281.905882 328.494118 280.658824 339.058824 275.505882 341.929412 274.117647 345.129412 272.070588 347.247059 270.258824 348.141176 269.505882 348.917647 268.941176 348.964706 269.011765 349.035294 269.058824 348.964706 272.282353 348.823529 276.141176 347.835294 302.470588 352.258824 320.964706 362.658824 334.329412 364.423529 336.588235 364.470588 336.376471 361.764706 337.741176 359.317647 338.988235 356.047059 339.976471 351.2 340.917647 347.717647 341.623529 347.858824 341.647059 348.282353 340.305882 348.847059 338.588235 348.776471 334.823529 348.141176 333.082353 347.152941 330.329412 345.317647 328.164706 342.988235 327.035294 341.317647 326.211765 338.588235 326.235294 336.8 327.129412 333.105882 328.917647 330.870588 333.764706 331.6 338.4 331.764706 339.552941 332.164706 340.729412 332.776471 341.952941L333.717647 343.764706 332.611765 343.741176C332.023529 343.741176 330.941176 343.576471 330.235294 343.411765zM190.564706 331.270588C193.341176 326.752941 194.611765 320.047059 194 313.058824 192.847059 299.482353 186.705882 288.070588 178.517647 284.282353L177.176471 283.670588 178.588235 283.505882C181.482353 283.176471 184.870588 281.623529 190.588235 278.070588 193.976471 275.952941 195.952941 274.941176 197.341176 274.588235 198.258824 274.352941 198.611765 274.4 200.705882 275.058824 212.870588 278.941176 227.011765 285.811765 238.823529 293.576471 243.905882 296.941176 251.176471 302.282353 251.176471 302.682353 251.152941 303.082353 246.117647 306.870588 241.388235 310.023529 230.517647 317.294118 218.517647 323.058824 204.023529 327.976471 199.647059 329.482353 192.447059 331.694118 190.611765 332.141176L189.929412 332.305882 190.564706 331.270588zM300.352941 225.035294C287.858824 223.505882 277.670588 221.388235 268.470588 218.423529 262.635294 216.517647 258.541176 214.870588 252.705882 212 245.270588 208.352941 239.976471 205.105882 233.058824 199.929412 228.870588 196.8 227.623529 195.529412 227.105882 193.905882 226.564706 192.188235 226.588235 188.470588 227.176471 184.588235 227.411765 182.917647 227.858824 180.094118 228.117647 178.352941 230 166.070588 227.976471 158.211765 221.294118 151.905882 220.376471 151.035294 219.647059 150.235294 219.694118 150.141176 219.741176 150.023529 222.588235 147.223529 226.023529 143.929412 235.670588 134.682353 237.717647 132.047059 238.141176 128.423529 238.611765 124.447059 236.258824 120.352941 225.905882 107.176471 224.282353 105.105882 223.058824 103.388235 223.176471 103.341176 224.258824 102.964706 238.870588 116.988235 250.235294 129.294118 279.717647 161.223529 301.882353 191.082353 308.752941 208.117647 310.329412 212 310.964706 214.541176 311.105882 217.529412 311.270588 220.870588 310.894118 222.376471 309.482353 223.929412 307.647059 225.882353 307.482353 225.905882 300.352941 225.035294z" transform="matrix(1 0 0 -1 .1 512)"/></g></svg>
