<?xml version="1.0" encoding="UTF-8" standalone="yes"?>
<svg xmlns="http://www.w3.org/2000/svg" xmlns:xlink="http://www.w3.org/1999/xlink" width="458.66666666666663px" height="510.66666666666663px" viewBox="0 0 344 383" version="1.1">
  <g id="surface1">
    <path style=" stroke:none;fill-rule:evenodd;fill:rgb(0%,0%,0%);fill-opacity:1;" d="M 165.214844 166.492188 L 165.214844 123.476562 C 158.832031 122.679688 152.976562 119.425781 147.65625 113.714844 C 142.335938 108.007812 139.675781 101.167969 139.675781 93.203125 C 139.675781 84.441406 142.800781 77.136719 149.054688 71.296875 C 155.304688 65.457031 162.554688 62.535156 170.804688 62.535156 C 179.582031 62.535156 187.03125 65.519531 193.152344 71.496094 C 199.269531 77.472656 202.328125 84.707031 202.328125 93.203125 C 202.328125 100.375 199.867188 106.8125 194.945312 112.523438 C 190.023438 118.230469 184.371094 121.75 177.984375 123.078125 L 177.984375 166.492188 C 181.179688 167.023438 184.371094 168.21875 187.5625 170.078125 C 190.757812 171.9375 193.550781 174.324219 195.945312 177.246094 L 328.835938 100.773438 C 332.292969 98.382812 334.023438 95.792969 334.023438 93.003906 C 334.023438 90.214844 332.292969 87.628906 328.835938 85.238281 L 185.167969 3.1875 C 181.445312 1.0625 176.988281 0 171.800781 0 C 166.613281 0 162.023438 1.0625 158.03125 3.1875 L 14.367188 85.238281 C 10.90625 87.628906 9.179688 90.214844 9.179688 93.003906 C 9.179688 95.792969 10.90625 98.382812 14.367188 100.773438 L 146.859375 177.246094 C 148.988281 174.324219 151.78125 171.9375 155.238281 170.078125 C 158.699219 168.21875 162.023438 167.023438 165.214844 166.492188 Z M 147.257812 215.484375 L 109.746094 235.796875 C 110.277344 237.390625 110.609375 238.984375 110.742188 240.578125 C 110.875 242.171875 110.941406 243.761719 110.941406 245.355469 C 110.941406 253.855469 107.882812 261.089844 101.761719 267.066406 C 95.644531 273.039062 88.460938 276.027344 80.214844 276.027344 C 71.964844 276.027344 64.78125 272.972656 58.664062 266.867188 C 52.542969 260.757812 49.484375 253.589844 49.484375 245.355469 C 49.484375 236.859375 52.542969 229.625 58.664062 223.648438 C 64.78125 217.675781 71.964844 214.6875 80.214844 214.6875 C 85.269531 214.6875 89.992188 215.882812 94.378906 218.273438 C 98.769531 220.660156 102.429688 223.714844 105.355469 227.433594 L 142.867188 207.917969 C 142.335938 206.324219 141.871094 204.597656 141.472656 202.738281 C 141.070312 200.878906 140.871094 199.152344 140.871094 197.558594 C 140.871094 195.433594 141.070312 193.378906 141.472656 191.386719 C 141.871094 189.394531 142.601562 187.46875 143.664062 185.609375 L 13.167969 109.535156 C 9.710938 107.410156 6.652344 107.144531 3.992188 108.738281 C 1.332031 110.332031 0 113.121094 0 117.101562 L 0.398438 278.019531 C 0.398438 282 1.664062 286.25 4.191406 290.761719 C 6.71875 295.277344 9.976562 298.597656 13.96875 300.722656 L 153.242188 381.179688 C 156.703125 383.304688 159.761719 383.570312 162.421875 381.976562 C 165.082031 380.382812 166.414062 377.59375 166.414062 373.609375 L 166.015625 227.433594 C 162.023438 226.636719 158.5 225.175781 155.4375 223.050781 C 152.378906 220.925781 149.652344 218.40625 147.257812 215.484375 Z M 330.03125 109.535156 L 199.535156 184.015625 C 200.601562 186.140625 201.332031 188.132812 201.730469 189.992188 C 202.128906 191.851562 202.328125 193.976562 202.328125 196.363281 C 202.328125 197.957031 202.195312 199.550781 201.929688 201.144531 L 201.132812 205.925781 L 238.644531 226.238281 C 241.570312 222.519531 245.164062 219.597656 249.421875 217.476562 C 253.675781 215.351562 258.199219 214.289062 262.988281 214.289062 C 271.5 214.289062 278.75 217.277344 284.738281 223.25 C 290.722656 229.226562 293.71875 236.328125 293.71875 244.558594 C 293.71875 253.324219 290.65625 260.625 284.539062 266.46875 C 278.417969 272.308594 271.234375 275.230469 262.988281 275.230469 C 254.742188 275.230469 247.558594 272.242188 241.4375 266.269531 C 235.320312 260.292969 232.261719 253.058594 232.261719 244.558594 C 232.261719 242.96875 232.394531 241.308594 232.660156 239.582031 C 232.925781 237.847656 233.464844 236.167969 234.253906 234.601562 L 197.140625 214.289062 C 195.011719 217.476562 192.21875 220.128906 188.761719 222.253906 C 185.300781 224.378906 181.710938 225.707031 177.984375 226.238281 L 177.1875 372.019531 C 177.1875 376.265625 178.519531 379.1875 181.179688 380.78125 C 183.839844 382.375 187.03125 382.109375 190.757812 379.984375 L 330.03125 299.527344 C 333.492188 297.402344 336.550781 294.082031 339.210938 289.570312 C 341.871094 285.054688 343.203125 280.671875 343.203125 276.425781 L 344 115.90625 C 343.734375 112.457031 342.203125 110 339.410156 108.539062 C 336.617188 107.078125 333.492188 107.410156 330.03125 109.535156 Z M 330.03125 109.535156 "/>
  </g>
</svg>