<svg xmlns="http://www.w3.org/2000/svg" viewBox="0 0 384 384"><path d="M191.46 0L25.376 96v192l166.086 96 167.164-96V96zm151.872 279.184L191.461 366.8 39.27 279.184V103.957l152.19-87.508 151.872 87.508zm0 0"/><path d="M148.809 197.375l-38.883-24.723-43.946 32.68 59.993 104.059h23.914l28.328-26.442v-13.117l-29.406-28.164zm85.304 0v44.293l-29.297 28.055.11 13.332 28.328 26.015h23.586l59.562-103.738-43.836-33.004zm-123.648-47.516l162.101.106-15.832-66.758H125.543zm0 0"/><path d="M220.004 197.375l14.004-37.305h-85.094l14.328 37.305-4.414 41.602 65.27-.106zm0 0"/></svg>