<?xml version="1.0" encoding="UTF-8" standalone="yes"?>
<svg xmlns="http://www.w3.org/2000/svg" xmlns:xlink="http://www.w3.org/1999/xlink" width="512px" height="512px" viewBox="0 0 384 384" version="1.1">
  <g id="surface1">
    <path style=" stroke:none;fill-rule:nonzero;fill:rgb(0%,0%,0%);fill-opacity:1;" d="M 191.460938 0 L 25.375 96 L 25.375 288 L 191.460938 384 L 358.625 288 L 358.625 96 Z M 343.332031 279.183594 L 191.460938 366.800781 L 39.269531 279.183594 L 39.269531 103.957031 L 191.460938 16.449219 L 343.332031 103.957031 Z M 343.332031 279.183594 "/>
    <path style=" stroke:none;fill-rule:nonzero;fill:rgb(0%,0%,0%);fill-opacity:1;" d="M 148.808594 197.375 L 109.925781 172.652344 L 65.980469 205.332031 L 125.972656 309.390625 L 149.886719 309.390625 L 178.214844 282.949219 L 178.214844 269.832031 L 148.808594 241.667969 Z M 234.113281 197.375 L 234.113281 241.667969 L 204.816406 269.722656 L 204.925781 283.054688 L 233.253906 309.070312 L 256.839844 309.070312 L 316.402344 205.332031 L 272.566406 172.328125 Z M 110.464844 149.859375 L 272.566406 149.964844 L 256.734375 83.207031 L 125.542969 83.207031 Z M 110.464844 149.859375 "/>
    <path style=" stroke:none;fill-rule:nonzero;fill:rgb(0%,0%,0%);fill-opacity:1;" d="M 220.003906 197.375 L 234.007812 160.070312 L 148.914062 160.070312 L 163.242188 197.375 L 158.828125 238.976562 L 224.097656 238.871094 Z M 220.003906 197.375 "/>
  </g>
</svg>