<?xml version="1.0" encoding="UTF-8" standalone="yes"?>
<svg xmlns="http://www.w3.org/2000/svg" xmlns:xlink="http://www.w3.org/1999/xlink" width="409.3333333333333px" height="510.66666666666663px" viewBox="0 0 307 383" version="1.1">
  <g id="surface1">
    <path style=" stroke:none;fill-rule:evenodd;fill:rgb(0%,0%,0%);fill-opacity:1;" d="M 295.007812 81.785156 L 153.5 0 L 0 88.570312 L 0 266.105469 L 2 266.105469 L 119.121094 333.929688 L 119.121094 304.40625 L 27.980469 253.339844 L 50.367188 240.570312 L 47.167969 234.988281 L 24.785156 247.753906 L 24.785156 116.894531 L 140.707031 184.320312 L 140.707031 375.820312 L 153.5 383 L 166.292969 375.820312 L 166.292969 184.320312 L 282.214844 116.894531 L 282.214844 246.957031 L 259.832031 234.1875 L 256.632812 240.171875 L 279.019531 253.339844 L 187.878906 304.40625 L 187.878906 333.929688 L 305 266.105469 L 307 266.105469 L 307 88.570312 Z M 153.5 161.976562 L 37.175781 95.75 L 150.300781 31.117188 L 150.300781 56.652344 L 156.699219 56.652344 L 156.699219 31.117188 L 269.824219 95.75 Z M 150.300781 72.609375 L 156.699219 72.609375 L 156.699219 101.335938 L 150.300781 101.335938 Z M 150.300781 147.613281 L 153.5 148.011719 L 156.699219 147.613281 L 156.699219 118.089844 L 150.300781 118.089844 Z M 61.160156 226.210938 L 85.945312 211.847656 L 89.140625 217.433594 L 64.359375 231.792969 Z M 100.335938 203.46875 L 103.53125 208.65625 L 128.714844 194.691406 L 127.917969 191.5 L 125.519531 189.105469 Z M 217.058594 216.632812 L 220.257812 211.050781 L 245.039062 225.410156 L 241.84375 230.996094 Z M 206.664062 203.46875 L 181.082031 189.105469 L 179.082031 191.5 L 177.882812 194.691406 L 203.46875 208.65625 Z M 206.664062 203.46875 "/>
  </g>
</svg>