<?xml version="1.0" encoding="UTF-8" standalone="yes"?>
<svg xmlns="http://www.w3.org/2000/svg" xmlns:xlink="http://www.w3.org/1999/xlink" width="512px" height="512px" viewBox="0 0 384 384" version="1.1">
  <g id="surface1">
    <path style=" stroke:none;fill-rule:nonzero;fill:rgb(0%,0%,0%);fill-opacity:1;" d="M 191.070312 253.476562 L 211.710938 218.621094 L 171.246094 218.621094 Z M 191.070312 253.476562 "/>
    <path style=" stroke:none;fill-rule:nonzero;fill:rgb(0%,0%,0%);fill-opacity:1;" d="M 336.339844 139.472656 L 308.917969 16.617188 L 255.34375 101.15625 C 235.464844 96.289062 214.109375 93.613281 191.855469 93.613281 C 169.59375 93.613281 148.246094 96.289062 128.363281 101.15625 L 74.785156 16.617188 L 47.363281 139.472656 C 17.898438 163.007812 0 193.785156 0 227.488281 C 0 301.425781 85.890625 361.363281 191.855469 361.363281 C 297.8125 361.363281 383.710938 301.425781 383.710938 227.488281 C 383.710938 193.785156 365.808594 163.007812 336.339844 139.472656 Z M 85.171875 195.746094 L 72.28125 195.746094 L 103.480469 159.796875 L 126.351562 159.796875 Z M 190.808594 283.527344 L 137.71875 190.207031 L 150.828125 182.75 L 162.65625 203.535156 L 220.636719 203.535156 L 233.011719 182.636719 L 245.988281 190.324219 Z M 298.535156 195.746094 L 257.355469 159.796875 L 280.230469 159.796875 L 311.421875 195.746094 Z M 298.535156 195.746094 "/>
  </g>
</svg>