<?xml version="1.0" encoding="UTF-8" standalone="yes"?>
<svg xmlns="http://www.w3.org/2000/svg" xmlns:xlink="http://www.w3.org/1999/xlink" width="512px" height="512px" viewBox="0 0 384 384" version="1.1">
  <g id="surface1">
    <path style=" stroke:none;fill-rule:nonzero;fill:rgb(0%,0%,0%);fill-opacity:1;" d="M 312.511719 57.980469 L 194.003906 206.910156 L 72.429688 57.980469 L 0 362.351562 L 72.429688 362.351562 L 110.679688 203.652344 L 194.003906 302.128906 L 275.890625 203.652344 L 314.140625 362.351562 L 384.128906 362.351562 Z M 312.511719 57.980469 "/>
    <path style=" stroke:none;fill-rule:nonzero;fill:rgb(0%,0%,0%);fill-opacity:1;" d="M 176.394531 121.050781 C 196.539062 121.050781 214.546875 91.140625 239.875 71.609375 C 265.207031 52.078125 310.988281 25.527344 308.238281 21.558594 C 305.492188 17.589844 244.148438 56.046875 230.109375 67.640625 C 216.070312 79.238281 194.097656 101.214844 185.554688 99.992188 C 177.007812 98.769531 131.839844 28.273438 116.582031 37.734375 C 109.375 42.199219 109.253906 51.671875 114.445312 57.980469 C 119.632812 64.285156 156.253906 121.050781 176.394531 121.050781 Z M 176.394531 121.050781 "/>
  </g>
</svg>