<svg xmlns="http://www.w3.org/2000/svg" viewBox="0 0 381 171"><path d="M54.59 139.078c0-15.11-12.219-27.36-27.293-27.36-15.078 0-27.297 12.25-27.297 27.36 0 15.113 12.219 27.363 27.297 27.363 15.074 0 27.293-12.25 27.293-27.363zM352.566 3.422c-14.785 0-27.293 11.969-27.293 27.36 0 21.66-3.414 27.359-27.296 27.359h-2.274C282.055 59.28 271.25 70.68 271.25 84.93v.57c0 21.09-3.98 26.219-27.297 26.219-1.137 0-2.273 0-2.844.57-13.648 1.711-24.449 13.11-24.449 26.79 0 14.82 11.942 27.362 27.293 27.362 14.219 0 26.16-11.402 26.727-25.082v-2.28c0-19.38 6.257-26.79 26.726-27.36h.57c14.215 0 26.157-11.399 26.727-25.649v-1.71C324.703 64.41 330.957 57 352 57c14.785 0 27.293-11.969 27.293-27.36 0-14.25-11.941-26.218-26.727-26.218zM192.207 58.14h-2.277c-23.883 0-27.293-5.7-27.293-27.36 0-14.82-11.942-27.36-27.297-27.36-14.785 0-27.297 11.97-27.297 27.36 0 21.66-3.41 26.79-27.293 26.79h-2.273c-13.649 1.14-24.454 12.538-24.454 26.788 0 14.82 11.942 27.36 27.293 27.36 14.22 0 26.16-11.399 26.727-25.078v-1.71c0-19.95 6.258-27.36 27.297-27.36s27.297 7.41 27.297 26.79c0 14.82 11.941 27.359 27.293 27.359 15.355 0 27.297-11.969 27.297-27.36-.567-13.68-11.372-25.078-25.02-26.218zm0 0"/></svg>