<svg height="512" viewBox="0 0 512 512" width="512" xmlns="http://www.w3.org/2000/svg"><path d="m179.87916 317.752492c24.732403 50.171446 48.601134 98.537034 73.176506 148.472934 12.798037-37.765987 25.046466-74.118694 37.608956-111.099525-36.588253-12.326944-72.705413-24.496856-110.785462-37.373409zm-133.8690389-64.461279c37.7659869 12.798037 74.0401779 25.124981 110.8639779 37.608956 12.483975-36.902316 24.810919-73.176507 37.608956-111.021009-50.171446 24.889434-98.61555 48.758166-148.4729339 73.412053zm140.3073149 47.109339c1.727342.942187 2.433982 1.491796 3.297654 1.805858 35.724582 12.169913 71.449164 24.339825 107.252262 36.195676 2.905076.942186 7.0664.157031 9.892961-1.256249 40.985125-20.02147 81.813219-40.19997 122.719828-60.37847 11.620304-5.731636 23.240607-11.541788 35.881613-17.901549-2.748044-1.099218-4.23984-1.727342-5.731636-2.198436-34.625364-11.698819-69.172213-23.554669-103.954608-35.017942-3.297654-1.099218-8.008588-.863671-11.070695.70664-43.576138 21.199203-86.91673 42.712468-130.414353 64.147217-8.950775 4.475387-17.980065 9.02929-27.873026 13.897255zm151.220978-94.611256c-26.302714-53.390584-52.291366-105.9960128-78.908143-159.936206-27.166385 80.321423-53.704646 158.679957-80.871032 238.922865 54.097225-26.773808 106.624138-52.683945 159.779175-78.986659zm-337.538414 50.249962c25.4390431-12.641006 49.464806-24.575372 73.5690845-36.431222 40.9066095-20.178501 81.8132185-40.357001 122.7983435-60.456986 4.396872-2.11992 6.90937-4.94648 8.479681-9.657414 16.017176-47.737464 32.269898-95.4749272 48.444104-143.13387523.628125-1.72734243 1.334765-3.45468486 2.433983-6.35976077 1.648826 3.1406226 2.82656 5.41757399 3.925778 7.69452538 31.32771 63.51909212 62.576905 127.03818462 94.140162 190.47876062 1.491796 3.062107 5.574605 5.653121 9.02929 6.830854 47.344886 16.331238 94.846803 32.348413 142.270204 48.52262 1.805858.628124 3.533201 1.256249 6.830854 2.433982-4.396871 2.198436-7.616009 3.925778-10.913663 5.49609-61.163625 30.149977-122.248735 60.456985-183.490876 90.371415-6.045698 2.983592-9.343352 6.752339-11.463272 13.1121-15.781629 47.344885-31.955835 94.53274-48.051526 141.79911-.471093 1.256249-1.020702 2.512498-2.041405 5.260543-4.161325-8.244134-7.694525-15.310535-11.14921-22.376936-28.50115-57.787456-57.0023-115.496396-85.267904-173.362368-2.355467-4.789449-5.339058-7.694525-10.521085-9.421868-47.501917-15.938659-94.9253186-32.112866-142.34871997-48.287072-1.88437356-.628125-3.61171599-1.334765-6.67382303-2.512498z" fill="#222"/></svg>