<svg width="501" height="512" xmlns="http://www.w3.org/2000/svg"><path d="M496.082376,313.587327 C491.925545,311.762376 486.653465,314.398416 484.42297,319.467723 C482.800792,323.016238 483.10495,326.868911 484.929901,329.403564 L431.296634,421.969109 C429.471683,421.766337 427.44396,421.969109 425.517624,422.780198 L389.931089,387.396436 C390.133861,386.585347 390.235248,385.672871 390.235248,384.861782 C390.235248,379.386931 386.889505,374.723168 382.225743,372.796832 L382.225743,144.67802 C384.456238,143.765545 386.382574,142.143366 387.80198,140.21703 L475.298218,185.942178 C475.399604,186.347723 475.50099,186.651881 475.602376,187.057426 C477.224554,192.329505 481.989703,195.573861 486.349307,194.255842 C490.708911,192.937822 492.939406,187.46297 491.317228,182.190891 C489.897822,177.324356 485.74099,174.282772 481.685545,174.789703 L439.204752,93.7821782 C439.306139,93.6807921 439.306139,93.6807921 439.407525,93.5794059 C442.550495,89.1184158 440.624158,82.5283168 435.149307,78.6756436 C431.600792,76.2423762 427.545347,75.5326733 424.199604,76.5465347 L395.203168,57.4859406 C394.696238,53.6332673 392.26297,49.7805941 388.410297,47.550099 C384.760396,45.4209901 380.603564,45.0154455 377.156436,46.2320792 L309.83604,8.71920792 C308.923564,4.66376238 304.969505,1.11524752 299.697426,0.304158416 C293.918416,-0.70970297 288.54495,1.72356436 286.72,5.98178218 L140.825347,31.7338614 C137.986535,29.7061386 133.829703,28.9964356 129.672871,30.3144554 C123.691089,32.1394059 119.838416,37.310099 120.750891,42.2780198 L19.4661386,145.99604 C15.0051485,145.691881 10.3413861,149.13901 8.51643564,154.613861 C6.89425743,159.074851 7.70534653,163.738614 10.1386139,166.678812 L4.4609901,298.987723 C1.41940594,301.42099 -0.202772277,305.983366 0.608316832,310.748515 C1.52079208,316.12198 5.17069307,320.07604 9.32752475,320.887129 L47.9556436,408.28198 C46.3334653,412.23604 47.8542574,417.609505 52.0110891,421.15802 C55.3568317,424.098218 59.5136634,425.213465 62.9607921,424.402376 L156.844356,490.506139 C156.641584,495.372673 160.798416,500.036436 166.780198,501.253069 C170.835644,502.165545 174.891089,501.253069 177.527129,499.12396 L298.987723,507.437624 C301.319604,510.783366 306.186139,512.608317 311.255446,511.695842 C316.020594,510.783366 319.771881,507.741782 320.988515,504.091881 L424.402376,443.665743 C427.748119,444.071287 431.600792,442.753267 434.642376,439.813069 C438.190891,436.365941 439.508911,431.702178 438.49505,427.950891 L491.52,332.445149 C494.764356,332.14099 498.110099,329.707723 499.732277,325.956436 C501.861386,320.988515 500.340594,315.412277 496.082376,313.587327 Z M483.91604,181.379802 C485.639604,180.872871 487.565941,182.089505 488.275644,184.218614 C488.88396,186.347723 487.971485,188.476832 486.247921,189.085149 C484.524356,189.592079 482.59802,188.375446 481.888317,186.246337 C481.28,184.117228 482.192475,181.886733 483.91604,181.379802 Z M8.11089109,314.29703 C5.98178218,314.702574 3.85267327,312.877624 3.44712871,310.241584 C3.04158416,307.605545 4.35960396,305.172277 6.48871287,304.868119 C8.61782178,304.462574 10.7469307,306.287525 11.1524752,308.923564 C11.5580198,311.559604 10.24,313.992871 8.11089109,314.29703 Z M382.428515,384.65901 C382.428515,387.599208 380.096634,389.931089 377.156436,389.931089 C374.216238,389.931089 371.884356,387.599208 371.884356,384.65901 C371.884356,381.718812 374.216238,379.386931 377.156436,379.386931 C379.995248,379.386931 382.428515,381.820198 382.428515,384.65901 Z M427.139802,82.1227723 C428.356436,80.3992079 431.195248,80.1964356 433.324356,81.7172277 C435.554851,83.2380198 436.264554,85.8740594 435.047921,87.6990099 C433.831287,89.4225743 430.992475,89.6253465 428.863366,88.1045545 C426.734257,86.5837624 425.923168,83.9477228 427.139802,82.1227723 Z M418.116436,83.4407921 C417.609505,87.2934653 419.738614,91.7544554 423.794059,94.5932673 C426.024554,96.1140594 428.457822,97.0265347 430.891089,97.1279208 L461.306931,150.355644 L398.751683,70.7675248 L418.116436,83.4407921 Z M472.763564,176.513267 L390.133861,131.29505 C389.626931,126.327129 386.382574,122.170297 381.921584,120.345347 L386.281188,69.6522772 L472.763564,176.513267 Z M379.488317,52.7207921 C380.806337,50.490297 383.949307,49.8819802 386.382574,51.3013861 C388.917228,52.7207921 389.829703,55.7623762 388.613069,57.9928713 C387.29505,60.2233663 384.152079,60.8316832 381.718812,59.4122772 C379.082772,57.9928713 378.170297,54.9512871 379.488317,52.7207921 Z M377.156436,127.239604 C380.096634,127.239604 382.428515,129.571485 382.428515,132.511683 C382.428515,135.451881 380.096634,137.783762 377.156436,137.783762 C374.216238,137.783762 371.884356,135.451881 371.884356,132.511683 C371.884356,129.571485 374.216238,127.239604 377.156436,127.239604 Z M376.142574,67.7259406 L371.580198,120.649505 C368.741386,121.967525 366.409505,124.19802 365.091485,127.036832 L311.458218,127.036832 C309.329109,122.575842 304.766733,119.432871 299.494653,119.432871 C298.582178,119.432871 297.669703,119.534257 296.858614,119.73703 L246.165545,62.6566337 C246.368317,61.9469307 246.571089,61.2372277 246.672475,60.5275248 L371.985743,63.8732673 C373.10099,65.3940594 374.41901,66.7120792 376.142574,67.7259406 Z M212.302574,372.695446 L212.302574,279.420198 C212.910891,279.217426 213.519208,279.014653 214.127525,278.811881 L296.047525,378.271683 C294.932277,380.19802 294.32396,382.428515 294.32396,384.861782 C294.32396,390.843564 298.379406,395.912871 303.854257,397.53505 L308.213861,459.076436 C307.402772,459.380594 306.591683,459.684752 305.88198,460.090297 L220.007921,387.396436 C220.210693,386.585347 220.210693,385.774257 220.210693,384.861782 C220.312079,379.386931 216.966337,374.723168 212.302574,372.695446 Z M207.131881,379.386931 C210.072079,379.386931 212.40396,381.718812 212.40396,384.65901 C212.40396,387.599208 210.072079,389.931089 207.131881,389.931089 C204.191683,389.931089 201.859802,387.599208 201.859802,384.65901 C201.859802,381.820198 204.191683,379.386931 207.131881,379.386931 Z M203.583366,266.645545 C203.583366,263.705347 205.915248,261.373465 208.855446,261.373465 C211.795644,261.373465 214.127525,263.705347 214.127525,266.645545 C214.127525,269.585743 211.795644,271.917624 208.855446,271.917624 C205.915248,271.917624 203.583366,269.484356 203.583366,266.645545 Z M302.333465,384.65901 C302.333465,381.718812 304.665347,379.386931 307.605545,379.386931 C310.545743,379.386931 312.877624,381.718812 312.877624,384.65901 C312.877624,387.599208 310.545743,389.931089 307.605545,389.931089 C304.665347,389.931089 302.333465,387.599208 302.333465,384.65901 Z M313.384554,465.666535 C316.324752,465.666535 318.656634,467.795644 318.656634,470.330297 C318.656634,472.966337 316.324752,474.994059 313.384554,474.994059 C310.444356,474.994059 308.112475,472.86495 308.112475,470.330297 C308.112475,467.795644 310.444356,465.666535 313.384554,465.666535 Z M307.504158,371.681584 C306.388911,371.681584 305.37505,371.78297 304.361188,372.087129 L221.224554,271.207921 C221.731485,269.788515 222.035644,268.369109 222.035644,266.746931 C222.035644,259.447129 216.155248,253.566733 208.855446,253.566733 C201.555644,253.566733 195.675248,259.447129 195.675248,266.746931 C195.675248,271.512079 198.209901,275.668911 202.062574,278.000792 L202.062574,372.796832 C198.716832,374.216238 196.080792,376.953663 194.864158,380.400792 L141.940594,380.400792 C140.72396,376.953663 138.087921,374.216238 134.742178,372.796832 L134.742178,144.67802 C137.986535,143.258614 140.622574,140.622574 141.839208,137.276832 L187.767129,137.276832 C189.693465,142.244752 194.458614,145.691881 200.034851,145.691881 C201.150099,145.691881 202.16396,145.590495 203.177822,145.286337 L284.89505,244.239208 C284.286733,245.76 283.982574,247.280792 283.982574,249.004356 C283.982574,256.304158 289.86297,262.184554 297.162772,262.184554 C304.462574,262.184554 310.34297,256.304158 310.34297,249.004356 C310.34297,244.44198 308.011089,240.487921 304.56396,238.15604 L304.56396,144.67802 C307.808317,143.258614 310.241584,140.622574 311.559604,137.378218 L364.483168,137.378218 C365.801188,140.72396 368.335842,143.36 371.580198,144.779406 L371.580198,372.796832 C368.234455,374.216238 365.598416,376.953663 364.381782,380.400792 L319.670495,380.400792 C318.048317,375.230099 313.181782,371.681584 307.504158,371.681584 Z M38.4253465,267.862178 L84.2518812,126.225743 C85.2657426,125.718812 86.279604,125.009109 87.2934653,124.19802 L116.289901,132.917228 C116.391287,138.189307 119.635644,142.751683 124.299406,144.67802 L124.299406,368.031683 L38.5267327,281.447921 C39.6419802,279.521584 40.3516832,277.291089 40.3516832,274.756436 C40.4530693,272.221782 39.7433663,269.889901 38.4253465,267.862178 Z M77.2562376,112.741386 C78.979802,110.713663 81.7172277,110.308119 83.3394059,111.727525 C84.9615842,113.146931 84.860198,115.884356 83.0352475,117.912079 C81.3116832,119.939802 78.5742574,120.345347 76.9520792,118.925941 C75.4312871,117.506535 75.5326733,114.667723 77.2562376,112.741386 Z M129.571485,379.386931 C132.511683,379.386931 134.843564,381.718812 134.843564,384.65901 C134.843564,387.599208 132.511683,389.931089 129.571485,389.931089 C126.631287,389.931089 124.299406,387.599208 124.299406,384.65901 C124.299406,381.820198 126.631287,379.386931 129.571485,379.386931 Z M124.400792,132.511683 C124.400792,129.672871 126.732673,127.34099 129.571485,127.34099 C132.410297,127.34099 134.742178,129.672871 134.742178,132.511683 C134.742178,135.350495 132.410297,137.682376 129.571485,137.682376 C126.732673,137.682376 124.400792,135.350495 124.400792,132.511683 Z M194.965545,132.511683 C194.965545,129.571485 197.297426,127.239604 200.237624,127.239604 C203.177822,127.239604 205.509703,129.571485 205.509703,132.511683 C205.509703,135.451881 203.177822,137.783762 200.237624,137.783762 C197.297426,137.783762 194.965545,135.350495 194.965545,132.511683 Z M232.072871,71.7813861 C232.579802,71.8827723 233.086733,71.8827723 233.492277,71.8827723 C235.621386,71.8827723 237.547723,71.3758416 239.271287,70.5647525 L288.240792,125.718812 C286.922772,127.746535 286.213069,130.078416 286.213069,132.714455 C286.213069,138.189307 289.558812,142.954455 294.425347,144.880792 L294.425347,236.229703 C293.715644,236.432475 293.005941,236.635248 292.296238,236.939406 L211.592871,139.203168 C212.708119,137.276832 213.316436,135.046337 213.316436,132.714455 C213.316436,128.354851 211.187327,124.502178 207.841584,122.068911 L232.072871,71.7813861 Z M228.220198,56.7762376 C228.220198,53.8360396 230.552079,51.5041584 233.492277,51.5041584 C236.432475,51.5041584 238.764356,53.8360396 238.764356,56.7762376 C238.764356,59.7164356 236.432475,62.0483168 233.492277,62.0483168 C230.653465,62.0483168 228.220198,59.7164356 228.220198,56.7762376 Z M299.59604,137.682376 C296.757228,137.682376 294.425347,135.350495 294.425347,132.511683 C294.425347,129.672871 296.757228,127.34099 299.59604,127.34099 C302.434851,127.34099 304.766733,129.672871 304.766733,132.511683 C304.766733,135.350495 302.434851,137.682376 299.59604,137.682376 Z M302.536238,248.801584 C302.536238,251.741782 300.204356,254.073663 297.264158,254.073663 C294.32396,254.073663 291.992079,251.741782 291.992079,248.801584 C291.992079,245.861386 294.32396,243.529505 297.264158,243.529505 C300.204356,243.529505 302.536238,245.962772 302.536238,248.801584 Z M293.715644,7.29980198 C294.121188,5.17069307 296.554455,3.85267327 299.190495,4.25821782 C301.826535,4.66376238 303.651485,6.79287129 303.245941,8.9219802 C302.840396,11.0510891 300.407129,12.3691089 297.872475,11.9635644 C295.13505,11.4566337 293.310099,9.42891089 293.715644,7.29980198 Z M293.512871,18.6550495 C294.32396,18.9592079 295.236436,19.2633663 296.250297,19.3647525 C300.204356,20.0744554 303.854257,19.1619802 306.490297,17.1342574 L370.262178,52.6194059 C370.160792,52.9235644 370.059406,53.2277228 369.95802,53.5318812 L249.714059,50.2875248 L293.512871,18.6550495 Z M279.014653,16.4245545 L237.750495,46.2320792 C236.432475,45.8265347 235.013069,45.5223762 233.593663,45.5223762 C229.335446,45.5223762 225.584158,47.550099 223.150891,50.5916832 L161.609505,37.2087129 L279.014653,16.4245545 Z M130.179802,34.1671287 C132.714455,33.3560396 135.350495,34.4712871 135.958812,36.4990099 C136.567129,38.5267327 135.046337,40.8586139 132.511683,41.669703 C129.97703,42.4807921 127.442376,41.3655446 126.732673,39.3378218 C126.02297,37.2087129 127.645149,34.9782178 130.179802,34.1671287 Z M128.760396,49.3750495 C130.788119,49.6792079 133.018614,49.5778218 135.249109,48.969505 C138.392079,47.9556436 141.028119,46.0293069 142.548911,43.7988119 L220.312079,60.6289109 C220.616238,62.9607921 221.528713,64.9885149 222.948119,66.8134653 L197.500198,119.73703 C193.343366,120.548119 189.896238,123.285545 188.071287,127.036832 L141.433663,127.036832 C139.304554,122.575842 134.742178,119.432871 129.470099,119.432871 C125.820198,119.432871 122.474455,120.953663 120.142574,123.285545 L92.0586139,114.870495 C92.16,112.944158 91.8558416,111.017822 90.9433663,109.395644 L128.760396,49.3750495 Z M98.9528713,77.4590099 L81.210297,105.644356 C78.6756436,106.252673 76.039604,107.672079 74.0118812,110.00396 C72.0855446,112.133069 70.970297,114.667723 70.6661386,117.10099 L40.96,136.769901 L98.9528713,77.4590099 Z M26.7659406,160.899802 C27.070099,159.987327 27.2728713,159.074851 27.4756436,158.162376 L72.7952475,128.050693 L30.4158416,259.041584 L23.5215842,166.171881 C24.9409901,164.752475 26.0562376,163.028911 26.7659406,160.899802 Z M32.3421782,274.65505 C32.3421782,277.291089 30.4158416,279.521584 27.9825743,279.521584 C25.5493069,279.521584 23.6229703,277.392475 23.6229703,274.65505 C23.6229703,272.01901 25.5493069,269.889901 27.9825743,269.889901 C30.3144554,269.788515 32.3421782,272.01901 32.3421782,274.65505 Z M12.1663366,154.715248 C13.0788119,152.180594 15.4106931,150.761188 17.4384158,151.470891 C19.4661386,152.180594 20.3786139,154.816634 19.5675248,157.351287 C18.6550495,159.885941 16.3231683,161.305347 14.2954455,160.595644 C12.2677228,159.784554 11.3552475,157.249901 12.1663366,154.715248 Z M16.9314851,216.35802 L20.7841584,267.760792 C19.4661386,269.788515 18.6550495,272.221782 18.6550495,274.857822 C18.6550495,277.088317 19.1619802,279.11604 20.1758416,280.839604 L13.6871287,294.425347 L16.9314851,216.35802 Z M17.6411881,317.44 C19.5675248,314.905347 20.48,311.255446 19.770297,307.402772 C19.6689109,306.895842 19.5675248,306.490297 19.4661386,305.983366 L26.7659406,290.775446 L45.319604,380.096634 L17.6411881,317.44 Z M60.2233663,418.217822 C58.8039604,419.84 56.0665347,419.738614 54.0388119,417.913663 C52.0110891,416.190099 51.6055446,413.452673 53.0249505,411.830495 C54.4443564,410.208317 57.2831683,410.309703 59.209505,412.134653 C61.2372277,413.858218 61.6427723,416.595644 60.2233663,418.217822 Z M60.8316832,404.125149 L38.3239604,295.946139 L118.824554,377.156436 C117.405149,379.184158 116.492673,381.51604 116.391287,384.152079 L64.380198,406.254257 C63.2649505,405.341782 62.0483168,404.632079 60.8316832,404.125149 Z M69.3481188,418.01505 C69.5508911,417.102574 69.5508911,416.190099 69.449505,415.277624 L119.939802,393.783762 C122.373069,396.318416 125.718812,397.940594 129.571485,397.940594 C130.179802,397.940594 130.788119,397.839208 131.396436,397.839208 L159.987327,481.888317 L69.3481188,418.01505 Z M172.25505,494.561584 C171.748119,496.690693 169.314851,497.907327 166.678812,497.400396 C164.042772,496.792079 162.319208,494.66297 162.724752,492.533861 C163.130297,490.404752 165.66495,489.188119 168.30099,489.69505 C170.93703,490.303366 172.660594,492.533861 172.25505,494.561584 Z M170.328713,480.266139 L140.419802,392.364356 C140.825347,391.857426 141.129505,391.249109 141.433663,390.640792 L195.269703,390.640792 C196.283564,392.668515 197.804356,394.493465 199.730693,395.710099 L170.328713,480.266139 Z M209.970693,397.636436 C211.491485,397.332277 212.910891,396.72396 214.228911,395.912871 L298.683564,467.491485 L179.149307,486.349307 L209.970693,397.636436 Z M298.683564,498.515644 L207.94297,492.331089 L302.536238,477.427327 C303.955644,478.948119 305.679208,480.164752 307.808317,480.975842 L305.679208,493.243564 C302.536238,494.15604 300.001584,496.082376 298.683564,498.515644 Z M310.647129,507.741782 C308.011089,508.248713 305.577822,506.930693 305.172277,504.801584 C304.766733,502.672475 306.591683,500.543366 309.227723,500.137822 C311.863762,499.630891 314.29703,500.948911 314.702574,503.07802 C315.108119,505.105743 313.283168,507.234851 310.647129,507.741782 Z M318.453861,495.169901 C317.744158,494.561584 316.933069,494.054653 316.020594,493.547723 L318.251089,480.671683 C322.002376,479.150891 324.942574,476.007921 325.753663,472.256634 L401.083564,446.808713 L318.453861,495.169901 Z M417.710891,430.384158 L322.813465,462.422178 C321.596832,461.205545 320.177426,460.090297 318.453861,459.380594 L313.992871,396.21703 C316.223366,394.89901 318.149703,392.972673 319.26495,390.640792 L365.091485,390.640792 C367.220594,395.000396 371.78297,398.04198 376.953663,398.04198 C379.488317,398.04198 381.921584,397.332277 383.949307,396.014257 L417.913663,429.775842 C417.913663,429.978614 417.812277,430.181386 417.710891,430.384158 Z M432.71604,436.163168 C430.789703,437.988119 428.052277,438.292277 426.531485,436.771485 C425.010693,435.250693 425.314851,432.513267 427.241188,430.586931 C429.167525,428.76198 431.90495,428.457822 433.425743,429.978614 C434.946535,431.600792 434.642376,434.338218 432.71604,436.163168 Z M496.183762,324.638416 C495.271287,326.666139 493.142178,327.781386 491.52,326.970297 C489.796436,326.260594 489.188119,324.030099 490.100594,322.002376 C491.013069,319.974653 493.142178,318.960792 494.764356,319.670495 C496.487921,320.380198 497.096238,322.610693 496.183762,324.638416 Z" fill="#000" fill-rule="evenodd"/></svg>
