<svg xmlns="http://www.w3.org/2000/svg" viewBox="0 0 501 512"><path fill-rule="evenodd" d="M496.082 313.587c-4.156-1.825-9.429.811-11.659 5.88-1.622 3.55-1.318 7.402.507 9.937l-53.633 92.565c-1.825-.203-3.853 0-5.78.811l-35.586-35.384c.203-.81.304-1.723.304-2.534 0-5.475-3.345-10.139-8.01-12.065V144.678c2.231-.912 4.158-2.535 5.577-4.461l87.496 45.725c.102.406.203.71.304 1.115 1.623 5.273 6.388 8.517 10.747 7.199 4.36-1.318 6.59-6.793 4.968-12.065-1.42-4.867-5.576-7.908-9.631-7.401l-42.481-81.008.203-.203c3.142-4.46 1.216-11.05-4.259-14.903-3.548-2.434-7.604-3.143-10.95-2.13l-28.996-19.06c-.507-3.853-2.94-7.705-6.793-9.936-3.65-2.129-7.806-2.535-11.254-1.318L309.836 8.72c-.912-4.055-4.866-7.604-10.139-8.415-5.779-1.014-11.152 1.42-12.977 5.678L140.825 31.734c-2.838-2.028-6.995-2.738-11.152-1.42-5.982 1.825-9.835 6.996-8.922 11.964L19.466 145.996c-4.46-.304-9.125 3.143-10.95 8.618-1.622 4.46-.81 9.125 1.623 12.065L4.46 298.988c-3.042 2.433-4.664 6.995-3.853 11.76.913 5.374 4.563 9.328 8.72 10.14l38.628 87.394c-1.623 3.954-.102 9.328 4.055 12.876 3.346 2.94 7.503 4.055 10.95 3.244l93.883 66.104c-.202 4.867 3.954 9.53 9.936 10.747 4.056.913 8.111 0 10.747-2.129l121.46 8.314c2.333 3.345 7.2 5.17 12.268 4.258 4.766-.913 8.517-3.954 9.734-7.604l103.413-60.426c3.346.405 7.199-.913 10.24-3.853 3.549-3.447 4.867-8.11 3.853-11.862l53.025-95.506c3.244-.304 6.59-2.737 8.212-6.489 2.13-4.967.609-10.544-3.65-12.369zM483.916 181.38c1.724-.507 3.65.71 4.36 2.839.608 2.129-.305 4.258-2.028 4.866-1.724.507-3.65-.71-4.36-2.839-.608-2.129.304-4.36 2.028-4.866zM8.111 314.297c-2.13.406-4.258-1.42-4.664-4.055-.405-2.636.913-5.07 3.042-5.374 2.129-.405 4.258 1.42 4.663 4.056.406 2.636-.912 5.069-3.041 5.373zm374.318 70.362a5.236 5.236 0 01-5.273 5.272 5.236 5.236 0 01-5.272-5.272 5.236 5.236 0 015.272-5.272c2.84 0 5.273 2.433 5.273 5.272zm44.71-302.536c1.217-1.724 4.056-1.927 6.185-.406 2.23 1.521 2.94 4.157 1.724 5.982-1.217 1.724-4.056 1.926-6.185.406-2.129-1.521-2.94-4.157-1.723-5.982zm-9.023 1.318c-.506 3.852 1.623 8.313 5.678 11.152 2.23 1.521 4.664 2.434 7.097 2.535l30.416 53.228-62.555-79.588 19.364 12.673zm54.648 93.072l-82.63-45.218c-.507-4.968-3.751-9.125-8.212-10.95l4.36-50.693 86.482 106.861zM379.488 52.721c1.318-2.23 4.461-2.839 6.895-1.42 2.534 1.42 3.447 4.461 2.23 6.692-1.318 2.23-4.46 2.839-6.894 1.42-2.636-1.42-3.549-4.462-2.23-6.692zm-2.332 74.519a5.236 5.236 0 015.273 5.272 5.236 5.236 0 01-5.273 5.272 5.236 5.236 0 01-5.272-5.272 5.236 5.236 0 015.272-5.272zm-1.013-59.514l-4.563 52.924c-2.839 1.318-5.17 3.548-6.489 6.387h-53.633c-2.129-4.461-6.691-7.604-11.963-7.604-.913 0-1.825.101-2.636.304l-50.693-57.08c.202-.71.405-1.42.506-2.13l125.314 3.346c1.115 1.521 2.433 2.84 4.157 3.853zm-163.84 304.97V279.42l1.825-.608 81.92 99.46c-1.116 1.926-1.724 4.157-1.724 6.59 0 5.982 4.055 11.05 9.53 12.673l4.36 61.541c-.811.305-1.622.609-2.332 1.014l-85.874-72.694c.203-.81.203-1.622.203-2.534.101-5.475-3.245-10.139-7.908-12.167zm-5.171 6.69a5.236 5.236 0 015.272 5.273 5.236 5.236 0 01-5.272 5.272 5.236 5.236 0 01-5.272-5.272c0-2.839 2.332-5.272 5.272-5.272zm-3.549-112.74a5.236 5.236 0 015.272-5.273 5.236 5.236 0 015.273 5.273 5.236 5.236 0 01-5.273 5.272c-2.94 0-5.272-2.434-5.272-5.272zm98.75 118.013a5.236 5.236 0 015.273-5.272 5.236 5.236 0 015.272 5.272 5.236 5.236 0 01-5.272 5.272 5.236 5.236 0 01-5.273-5.272zm11.052 81.008c2.94 0 5.272 2.129 5.272 4.663 0 2.636-2.332 4.664-5.272 4.664-2.94 0-5.273-2.13-5.273-4.664s2.332-4.663 5.273-4.663zm-5.88-93.985c-1.116 0-2.13.101-3.144.405l-83.136-100.88c.506-1.418.81-2.838.81-4.46 0-7.3-5.88-13.18-13.18-13.18s-13.18 5.88-13.18 13.18c0 4.765 2.535 8.922 6.388 11.254v94.796c-3.346 1.42-5.982 4.157-7.199 7.604h-52.923c-1.217-3.447-3.853-6.185-7.199-7.604V144.678c3.245-1.42 5.88-4.055 7.097-7.401h45.928c1.926 4.968 6.692 8.415 12.268 8.415 1.115 0 2.129-.102 3.143-.406l81.717 98.953a12.462 12.462 0 00-.912 4.765c0 7.3 5.88 13.18 13.18 13.18s13.18-5.88 13.18-13.18c0-4.562-2.332-8.516-5.779-10.848v-93.478c3.244-1.42 5.678-4.055 6.996-7.3h52.923c1.318 3.346 3.853 5.982 7.097 7.401v228.018c-3.346 1.42-5.982 4.157-7.198 7.604H319.67c-1.622-5.17-6.488-8.72-12.166-8.72zm-269.08-103.82l45.827-141.636c1.014-.507 2.028-1.217 3.041-2.028l28.997 8.72a12.995 12.995 0 008.01 11.76v223.354l-85.773-86.584c1.115-1.926 1.825-4.157 1.825-6.692.101-2.534-.609-4.866-1.927-6.894zm38.831-155.12c1.724-2.028 4.461-2.434 6.083-1.014 1.623 1.419 1.521 4.156-.304 6.184-1.723 2.028-4.46 2.433-6.083 1.014-1.52-1.42-1.42-4.258.304-6.185zm52.315 266.645a5.236 5.236 0 015.273 5.272 5.236 5.236 0 01-5.273 5.272 5.236 5.236 0 01-5.272-5.272c0-2.839 2.332-5.272 5.272-5.272zm-5.17-246.875c0-2.84 2.332-5.171 5.17-5.171 2.84 0 5.171 2.332 5.171 5.17 0 2.84-2.332 5.171-5.17 5.171-2.84 0-5.171-2.332-5.171-5.17zm70.565 0a5.236 5.236 0 015.272-5.272 5.236 5.236 0 015.272 5.272 5.236 5.236 0 01-5.272 5.272c-2.94 0-5.272-2.434-5.272-5.272zm37.107-60.73c.507.1 1.014.1 1.42.1 2.128 0 4.055-.506 5.778-1.317l48.97 55.154c-1.318 2.028-2.028 4.36-2.028 6.995 0 5.475 3.346 10.24 8.212 12.167v91.349c-.71.202-1.42.405-2.129.71l-80.703-97.737a12.931 12.931 0 001.723-6.489c0-4.36-2.129-8.212-5.474-10.645l24.23-50.288zm-3.853-15.006a5.236 5.236 0 015.272-5.272 5.236 5.236 0 015.272 5.272 5.236 5.236 0 01-5.272 5.272c-2.839 0-5.272-2.332-5.272-5.272zm71.376 80.906c-2.839 0-5.17-2.332-5.17-5.17 0-2.84 2.331-5.171 5.17-5.171s5.17 2.332 5.17 5.17c0 2.84-2.331 5.171-5.17 5.171zm2.94 111.12a5.236 5.236 0 01-5.272 5.272 5.236 5.236 0 01-5.272-5.272 5.236 5.236 0 015.272-5.272c2.94 0 5.272 2.433 5.272 5.272zM293.716 7.3c.405-2.13 2.838-3.447 5.474-3.042 2.637.406 4.461 2.535 4.056 4.664-.406 2.13-2.839 3.447-5.374 3.042-2.737-.507-4.562-2.535-4.156-4.664zm-.203 11.355c.811.304 1.723.608 2.737.71 3.954.71 7.604-.203 10.24-2.23l63.772 35.484-.304.913-120.244-3.244 43.799-31.633zm-14.498-2.23L237.75 46.232c-1.318-.405-2.737-.71-4.156-.71-4.259 0-8.01 2.028-10.443 5.07L161.61 37.209l117.405-20.784zM130.18 34.167c2.534-.811 5.17.304 5.779 2.332.608 2.028-.913 4.36-3.447 5.17-2.535.812-5.07-.303-5.78-2.331-.709-2.13.913-4.36 3.448-5.17zm-1.42 15.208c2.028.304 4.259.203 6.49-.405 3.142-1.014 5.778-2.94 7.299-5.171l77.763 16.83c.304 2.332 1.217 4.36 2.636 6.184L197.5 119.737c-4.157.811-7.604 3.549-9.429 7.3h-46.637c-2.13-4.461-6.692-7.604-11.964-7.604-3.65 0-6.996 1.52-9.327 3.853l-28.084-8.416c.101-1.926-.203-3.852-1.116-5.474l37.817-60.021zM98.953 77.459L81.21 105.644a13.896 13.896 0 00-7.198 4.36c-1.926 2.13-3.042 4.664-3.346 7.097L40.96 136.77l57.993-59.311zm-72.187 83.44c.304-.912.507-1.824.71-2.737l45.32-30.111-42.38 130.99-6.894-92.87a13.256 13.256 0 003.244-5.271zm5.576 113.756c0 2.636-1.926 4.867-4.36 4.867-2.433 0-4.359-2.13-4.359-4.867 0-2.636 1.926-4.765 4.36-4.765 2.331-.101 4.36 2.129 4.36 4.765zm-20.176-119.94c.913-2.534 3.245-3.954 5.272-3.244 2.028.71 2.94 3.346 2.13 5.88-.913 2.535-3.245 3.954-5.273 3.245-2.027-.811-2.94-3.346-2.129-5.88zm4.765 61.643l3.853 51.403c-1.318 2.028-2.129 4.46-2.129 7.097 0 2.23.507 4.258 1.52 5.982l-6.488 13.585 3.244-78.067zm.71 101.082c1.927-2.535 2.839-6.185 2.13-10.037-.102-.507-.203-.913-.305-1.42l7.3-15.208 18.554 89.322-27.68-62.657zm42.582 100.778c-1.419 1.622-4.156 1.52-6.184-.304-2.028-1.724-2.433-4.461-1.014-6.084 1.42-1.622 4.258-1.52 6.185.305 2.027 1.723 2.433 4.46 1.013 6.083zm.609-14.093L38.324 295.946l80.5 81.21c-1.419 2.028-2.331 4.36-2.433 6.996l-52.01 22.102a14.342 14.342 0 00-3.55-2.129zm8.516 13.89c.203-.912.203-1.825.102-2.737l50.49-21.494c2.433 2.534 5.779 4.157 9.631 4.157.609 0 1.217-.102 1.825-.102l28.591 84.05-90.639-63.874zm102.907 76.547c-.507 2.129-2.94 3.345-5.576 2.838-2.636-.608-4.36-2.737-3.954-4.866.405-2.13 2.94-3.346 5.576-2.839 2.636.608 4.36 2.839 3.954 4.867zm-1.926-14.296l-29.91-87.902c.406-.507.71-1.115 1.015-1.723h53.836c1.014 2.028 2.534 3.852 4.46 5.07l-29.401 84.555zm39.642-82.63c1.52-.304 2.94-.912 4.258-1.723l84.455 71.578-119.535 18.858 30.822-88.713zm88.713 100.88l-90.741-6.185 94.593-14.904a13.845 13.845 0 005.272 3.549l-2.129 12.268c-3.143.912-5.677 2.838-6.995 5.272zm11.963 9.226c-2.636.507-5.07-.811-5.475-2.94-.405-2.13 1.42-4.259 4.056-4.664 2.636-.507 5.069.81 5.475 2.94.405 2.028-1.42 4.157-4.056 4.664zm7.807-12.572c-.71-.608-1.52-1.115-2.433-1.622l2.23-12.876c3.751-1.521 6.692-4.664 7.503-8.415l75.33-25.448-82.63 48.36zm99.257-64.786l-94.898 32.038c-1.216-1.216-2.636-2.332-4.36-3.041l-4.46-63.164c2.23-1.318 4.157-3.244 5.272-5.576h45.826c2.13 4.36 6.692 7.401 11.863 7.401 2.534 0 4.968-.71 6.995-2.028l33.965 33.762c0 .203-.102.405-.203.608zm15.005 5.78c-1.926 1.824-4.664 2.128-6.185.607-1.52-1.52-1.216-4.258.71-6.184 1.927-1.825 4.664-2.13 6.185-.608 1.52 1.622 1.216 4.36-.71 6.184zm63.468-111.526c-.913 2.028-3.042 3.143-4.664 2.332-1.724-.71-2.332-2.94-1.42-4.968.913-2.027 3.042-3.041 4.664-2.332 1.724.71 2.332 2.94 1.42 4.968z"/></svg>