<svg viewBox="0 0 197 512" xmlns="http://www.w3.org/2000/svg">
  <path d="M17.24 139.636l168.942-20.687-82.748-36.202S112.054 17.24 55.165 0l-5.172 20.687s34.478 8.62 31.03 63.784m115.502 193.078l-63.784 3.448 56.889-151.704L16.377 154.29.862 321.508h37.926L32.754 512l163.771-234.451zM62.061 443.906a6.034 6.034 0 1 1-12.068 0v-44.822a6.034 6.034 0 1 1 12.068 0v44.822zM17.239 308.579l13.326-146.67a5.551 5.551 0 0 1 5.516-5.034h.983a5.534 5.534 0 0 1 5.516 6.017l-11.55 133.62h34.478l-1.586 81.316a6.74 6.74 0 0 1-6.74 6.603h-.293a6.758 6.758 0 0 1-6.74-6.896l1.568-68.956H17.24z"/>
</svg>
