<?xml version="1.0" encoding="UTF-8" standalone="yes"?>
<svg xmlns="http://www.w3.org/2000/svg" xmlns:xlink="http://www.w3.org/1999/xlink" width="512px" height="512px" viewBox="0 0 384 384" version="1.1">
  <g id="surface1">
    <path style=" stroke:none;fill-rule:nonzero;fill:rgb(0%,0%,0%);fill-opacity:1;" d="M 191.695312 170.976562 L 191.695312 212.164062 L 340.269531 212.164062 C 330.289062 285.308594 267.574219 341.667969 191.695312 341.667969 C 108.863281 341.667969 41.71875 274.527344 41.71875 191.695312 C 41.71875 108.867188 108.863281 41.71875 191.695312 41.71875 C 233.132812 41.71875 270.640625 58.527344 297.78125 85.695312 L 327.707031 56.617188 C 292.980469 21.65625 244.867188 0 191.695312 0 C 85.824219 0 0 85.824219 0 191.691406 C 0 297.5625 85.824219 383.386719 191.695312 383.386719 C 297.5625 383.386719 383.386719 297.5625 383.386719 191.691406 C 383.386719 184.6875 383 177.777344 382.269531 170.972656 L 191.695312 170.972656 Z M 191.695312 170.976562 "/>
  </g>
</svg>