<svg xmlns="http://www.w3.org/2000/svg" viewBox="0 0 384 384"><path d="M179.871 0h-148.5v362.934c0 11.472 9.3 20.77 20.774 20.77 11.468 0 20.77-9.298 20.77-20.77V41.535H179.87c33.535 0 130.844 37.008 130.844 150.317 0 113.304-95.38 150.312-128.246 150.312h-58.676c-11.469 0-20.77 9.297-20.77 20.77 0 11.468 9.301 20.765 20.77 20.765h58.672c59.203 0 169.785-56.273 169.785-191.851C352.25 57.934 238.098 0 179.871 0zm0 0"/><path d="M168.45 276.223h-46.731c-11.473 0-20.77 9.3-20.77 20.77 0 11.472 9.297 20.769 20.77 20.769h46.73c38.594 0 110.594-42.207 110.594-122.895 0-84.765-67.547-124.254-113.191-124.254h-64.903v150.575c0 11.468 9.297 20.765 20.77 20.765 11.469 0 20.765-9.297 20.765-20.766V112.153h23.368c22.449 0 71.648 20.828 71.648 82.715 0 60.121-55 81.356-69.05 81.356zm0 0"/></svg>