<?xml version="1.0" encoding="UTF-8" standalone="yes"?>
<svg xmlns="http://www.w3.org/2000/svg" xmlns:xlink="http://www.w3.org/1999/xlink" width="512px" height="512px" viewBox="0 0 384 384" version="1.1">
  <g id="surface1">
    <path style=" stroke:none;fill-rule:nonzero;fill:rgb(0%,0%,0%);fill-opacity:1;" d="M 179.871094 0 L 31.371094 0 L 31.371094 362.933594 C 31.371094 374.40625 40.671875 383.703125 52.144531 383.703125 C 63.613281 383.703125 72.914062 374.40625 72.914062 362.933594 L 72.914062 41.535156 L 179.871094 41.535156 C 213.40625 41.535156 310.714844 78.542969 310.714844 191.851562 C 310.714844 305.15625 215.335938 342.164062 182.46875 342.164062 L 123.792969 342.164062 C 112.324219 342.164062 103.023438 351.460938 103.023438 362.933594 C 103.023438 374.402344 112.324219 383.699219 123.792969 383.699219 L 182.464844 383.699219 C 241.667969 383.699219 352.25 327.425781 352.25 191.847656 C 352.25 57.933594 238.097656 0 179.871094 0 Z M 179.871094 0 "/>
    <path style=" stroke:none;fill-rule:nonzero;fill:rgb(0%,0%,0%);fill-opacity:1;" d="M 168.449219 276.222656 L 121.71875 276.222656 C 110.246094 276.222656 100.949219 285.523438 100.949219 296.992188 C 100.949219 308.464844 110.246094 317.761719 121.71875 317.761719 L 168.449219 317.761719 C 207.042969 317.761719 279.042969 275.554688 279.042969 194.867188 C 279.042969 110.101562 211.496094 70.613281 165.851562 70.613281 L 100.949219 70.613281 L 100.949219 221.1875 C 100.949219 232.65625 110.246094 241.953125 121.71875 241.953125 C 133.1875 241.953125 142.484375 232.65625 142.484375 221.1875 L 142.484375 112.152344 L 165.851562 112.152344 C 188.300781 112.152344 237.5 132.980469 237.5 194.867188 C 237.5 254.988281 182.5 276.222656 168.449219 276.222656 Z M 168.449219 276.222656 "/>
  </g>
</svg>