<svg height="512" viewBox="0 0 512 512" width="512" xmlns="http://www.w3.org/2000/svg"><path d="m256 512c-141.384896 0-256-114.61512-256-256s114.615104-256 256-256 256 114.61512 256 256-114.615104 256-256 256zm-131.34694-250.77552v-46.5306h.489796l34.34694 46.5306h19.89796v-88.34692h-24.489796v45.79592h-.489796l-34.10204-45.79592h-20.14286v88.34692zm113.526532-89.87756c-27.306124 0-44.510204 17.51024-44.510204 45.73472s17.142856 45.67348 44.510204 45.67348c27.306124 0 44.510204-17.449 44.510204-45.67348s-17.20408-45.73472-44.510204-45.73472zm0 20.69388c10.836736 0 18.061224 9.73472 18.061224 25.04084 0 15.24488-7.163264 24.9796-18.061224 24.9796s-18.061224-9.73472-18.061224-24.9796c0-15.30612 7.224488-25.04084 18.061224-25.04084zm115.54694 18.61228h.489796l13.163264 50.5714h24.489796l22.775512-88.34692h-26.816328l-10.163264 55.83672h-.489796l-13.163268-55.83672h-20.081632l-13.163264 55.83672h-.489796l-10.163268-55.83672h-26.816324l22.775508 88.34692h24.489796zm-224.139796 149.83672v-39.5h13.571428v-12.03572h-42.285716v12.03572h13.571428v39.5zm58.2051-52.42856c-15.928572 0-25.964284 10.21428-25.964284 26.67856s10 26.64284 25.964284 26.64284c15.928572 0 25.964288-10.17856 25.964288-26.64284s-10.035716-26.67856-25.964288-26.67856zm0 12.0714c6.321428 0 10.535716 5.6786 10.535716 14.60716 0 8.89284-4.178572 14.57144-10.535716 14.57144s-10.535712-5.6786-10.535712-14.57144c0-8.92856 4.214284-14.60716 10.535712-14.60716zm64.240816 40.35716v-13.5l4.035716-5.42856 11.25 18.92856h17.60714l-17.75-28.64288 16.964288-22.89284h-15.892856l-15.928572 21.85716h-.285716v-21.85716h-15.142856v51.53572zm90.062244-12.03572h-21.214284v-8.28572h19.892856v-10.85712h-19.892856v-8.32144h21.214284v-12.03572h-36.35714v51.53572h36.35714zm38.59796 12.03572v-27.14288h.285716l20.035712 27.14288h11.607144v-51.53572h-14.285716v26.71428h-.285712l-19.89286-26.71428h-11.75v51.53572z" fill="#2b2b37"/></svg>