<svg xmlns="http://www.w3.org/2000/svg" xmlns:xlink="http://www.w3.org/1999/xlink" viewBox="0 0 512 512">
  <defs>
    <path id="a" d="M256 512C114.615 512 0 397.385 0 256S114.615 0 256 0s256 114.615 256 256-114.615 256-256 256zM134.935 114.752l-20.182 20.182L221.85 242.03l20.182-20.182-107.098-107.096zm135.427 175.793L377.46 397.64l20.182-20.183-107.098-107.095-20.182 20.182zm-34.236-34.236l20.21 20.21 20.184-20.182-20.21-20.212-20.184 20.184zm34.487-33.68l20.182 20.181 107.098-107.098-20.182-20.182-107.098 107.098zM115.53 377.71l20.182 20.182L242.81 290.795l-20.182-20.182L115.53 377.71z"/>
  </defs>
  <use fill="#000" fill-rule="evenodd" xlink:href="#a"/>
</svg>
