<?xml version="1.0" encoding="UTF-8" standalone="yes"?>
<svg xmlns="http://www.w3.org/2000/svg" xmlns:xlink="http://www.w3.org/1999/xlink" width="512px" height="512px" viewBox="0 0 384 384" version="1.1">
  <g id="surface1">
    <path style=" stroke:none;fill-rule:nonzero;fill:rgb(0%,0%,0%);fill-opacity:1;" d="M 267.304688 0.761719 C 205.398438 0.761719 155.226562 18.332031 155.226562 40.007812 L 155.226562 74.832031 C 161.222656 87.289062 203.550781 103.136719 267.304688 103.136719 C 331.046875 103.136719 373.378906 87.289062 379.371094 74.832031 L 379.371094 40.007812 C 379.371094 18.332031 329.191406 0.761719 267.304688 0.761719 Z M 37.09375 310.300781 L 35.507812 307.023438 L 35.507812 303.132812 C 28.75 308.183594 24.863281 313.800781 24.863281 319.742188 L 24.863281 354.570312 C 30.859375 367.023438 73.1875 382.871094 136.9375 382.871094 C 200.683594 382.871094 243.015625 367.023438 249.007812 354.570312 L 249.007812 336.492188 C 226.40625 343.507812 196.601562 347.648438 163.546875 347.648438 C 99.675781 347.648438 47.667969 332.292969 37.09375 310.300781 Z M 37.09375 310.300781 "/>
    <path style=" stroke:none;fill-rule:nonzero;fill:rgb(0%,0%,0%);fill-opacity:1;" d="M 51.472656 293.230469 L 51.472656 303.378906 C 57.46875 315.839844 99.796875 331.683594 163.550781 331.683594 C 227.292969 331.683594 269.625 315.839844 275.621094 303.378906 L 275.621094 268.558594 C 275.621094 266.070312 274.886719 263.648438 273.621094 261.292969 L 273.621094 266.730469 L 272.046875 270.015625 C 261.460938 292.003906 209.46875 307.355469 145.589844 307.355469 C 108.117188 307.355469 74.808594 302.042969 51.472656 293.230469 Z M 228.390625 208.894531 L 228.390625 174.074219 C 228.390625 152.394531 178.210938 134.828125 116.320312 134.828125 C 54.417969 134.828125 4.25 152.394531 4.25 174.074219 L 4.25 208.894531 C 10.238281 221.351562 52.570312 237.199219 116.320312 237.199219 C 180.066406 237.199219 222.398438 221.351562 228.390625 208.894531 Z M 228.390625 208.894531 "/>
    <path style=" stroke:none;fill-rule:nonzero;fill:rgb(0%,0%,0%);fill-opacity:1;" d="M 244.355469 209.726562 L 244.355469 212.539062 L 242.777344 215.816406 C 232.195312 237.804688 180.199219 253.160156 116.320312 253.160156 C 84.578125 253.160156 55.769531 249.363281 33.515625 242.847656 L 33.515625 263.085938 C 39.507812 275.542969 81.835938 291.390625 145.589844 291.390625 C 209.332031 291.390625 251.664062 275.542969 257.660156 263.085938 L 257.660156 228.269531 C 257.660156 221.550781 252.828125 215.242188 244.355469 209.726562 Z M 155.226562 96.40625 L 155.226562 121.246094 C 189.082031 125.402344 219.632812 135.203125 234.589844 151.226562 C 245.464844 152.226562 256.382812 152.722656 267.304688 152.710938 C 331.046875 152.710938 373.378906 136.859375 379.371094 124.40625 L 379.371094 96.40625 C 355.992188 111.371094 311.464844 119.097656 267.304688 119.097656 C 223.132812 119.097656 178.605469 111.371094 155.226562 96.40625 Z M 243.679688 167.917969 C 244.082031 169.910156 244.355469 171.953125 244.355469 174.070312 L 244.355469 191.546875 C 250.617188 194.675781 256.039062 198.214844 260.519531 202.179688 C 262.773438 202.214844 264.988281 202.28125 267.304688 202.28125 C 331.046875 202.28125 373.378906 186.433594 379.371094 173.976562 L 379.371094 145.984375 C 355.992188 160.945312 311.464844 168.671875 267.304688 168.671875 C 259.421875 168.667969 251.542969 168.417969 243.679688 167.917969 Z M 273.621094 228.269531 L 273.621094 238.503906 C 278.953125 242.320312 283.253906 246.597656 286.320312 251.332031 C 339.355469 248.574219 374 234.714844 379.371094 223.550781 L 379.371094 195.550781 C 356.789062 210.003906 314.496094 217.679688 271.847656 218.1875 C 272.964844 221.386719 273.621094 224.722656 273.621094 228.269531 Z M 291.582031 268.558594 L 291.582031 300.609375 C 341.65625 297.238281 374.171875 283.917969 379.371094 273.125 L 379.371094 245.128906 C 360.265625 257.347656 327.0625 264.738281 291.472656 267.039062 C 291.507812 267.542969 291.582031 268.042969 291.582031 268.558594 Z M 264.96875 330.5 L 264.96875 354.0625 C 265.75 354.078125 266.515625 354.109375 267.304688 354.109375 C 329.191406 354.109375 379.371094 336.539062 379.371094 314.863281 L 379.371094 294.695312 C 359.175781 307.621094 323.1875 315.132812 285.296875 316.945312 C 280.648438 321.953125 273.75 326.515625 264.96875 330.5 Z M 264.96875 330.5 "/>
  </g>
</svg>