<svg xmlns="http://www.w3.org/2000/svg" viewBox="0 0 381 130"><path d="M157.05 108.363L146.282 130h-23.883L187.246 0l43.258 86.664H206.05l-19.367-37.617L167.316 87.3zM251.54 130h-23.884l-10.828-21.637h23.883zm0 0"/><path d="M315.832 47.91l-13.676 17.672L250.922.613h27.906zm-13.676 17.113l13.676 17.668-36.996 47.297h-27.914zm27.352 0l-13.676-17.671L352.828.055h27.3zm0 0L380.128 130h-27.284l-36.996-47.297zm-218.559-46.18a62.365 62.365 0 0118.75 46.192 64.835 64.835 0 01-18.75 46.192c-12.5 13.144-27.906 18.785-46.11 18.785a63.665 63.665 0 01-46.105-18.785A62.912 62.912 0 01-.016 65.035 61.759 61.759 0 0111.93 27.418l15.902 15.934a42.357 42.357 0 00-6.25 22.253 44.336 44.336 0 0012.5 30.81 42.556 42.556 0 0030.754 13.144A42.562 42.562 0 0095.59 96.414a41.71 41.71 0 0012.5-30.809 44.378 44.378 0 00-12.5-30.808 41.562 41.562 0 00-30.754-12.524 39.67 39.67 0 00-21.594 5.704L27.34 12.047A61.447 61.447 0 0164.887.082a62.525 62.525 0 0146.062 18.762zm0 0"/></svg>