<?xml version="1.0" encoding="UTF-8" standalone="yes"?>
<svg xmlns="http://www.w3.org/2000/svg" xmlns:xlink="http://www.w3.org/1999/xlink" width="512px" height="512px" viewBox="0 0 384 384" version="1.1">
  <g id="surface1">
    <path style=" stroke:none;fill-rule:nonzero;fill:rgb(0%,0%,0%);fill-opacity:1;" d="M 92.933594 198.1875 C 41.667969 198.1875 0.113281 239.78125 0.113281 291.09375 C 0.113281 342.40625 41.675781 384 92.9375 384 C 144.207031 384 185.765625 342.40625 185.765625 291.09375 C 185.765625 239.78125 144.207031 198.1875 92.9375 198.1875 Z M 92.933594 355.898438 C 57.195312 355.898438 28.222656 326.898438 28.222656 291.125 C 28.222656 255.355469 57.195312 226.355469 92.933594 226.355469 C 128.675781 226.355469 157.648438 255.355469 157.648438 291.125 C 157.589844 326.871094 128.648438 355.835938 92.933594 355.898438 Z M 291.171875 0 C 239.910156 0 198.347656 41.597656 198.347656 92.90625 C 198.347656 144.21875 239.910156 185.8125 291.171875 185.8125 C 342.445312 185.8125 384 144.21875 384 92.90625 C 384 41.59375 342.445312 0 291.171875 0 Z M 291.171875 157.707031 C 255.4375 157.707031 226.464844 128.710938 226.464844 92.941406 C 226.464844 57.167969 255.4375 28.167969 291.171875 28.167969 C 326.917969 28.167969 355.890625 57.167969 355.890625 92.941406 C 355.832031 128.683594 326.890625 157.648438 291.171875 157.707031 Z M 92.933594 0 C 48.742188 -0.0273438 10.652344 31.121094 1.863281 74.476562 C -6.921875 117.820312 16.035156 161.363281 56.742188 178.578125 C 97.453125 195.789062 144.648438 181.902344 169.566406 145.371094 C 194.496094 108.839844 190.246094 59.796875 159.414062 28.101562 L 185.738281 28.101562 L 185.738281 0 Z M 157.648438 92.90625 C 157.648438 128.679688 128.675781 157.675781 92.933594 157.675781 C 57.195312 157.675781 28.222656 128.679688 28.222656 92.90625 C 28.222656 57.136719 57.195312 28.136719 92.933594 28.136719 C 128.660156 28.179688 157.621094 57.148438 157.683594 92.90625 Z M 157.648438 92.90625 "/>
  </g>
</svg>