<svg xmlns="http://www.w3.org/2000/svg" viewBox="0 0 382 383"><path d="M179.988 3.316c12.317-5.375 21.102 6.016 28.692 13.625 13.566 11.536 26.46 23.86 38.695 36.79 7.012 7.667 4.172 21.703-5.367 25.972-7.328 4.012-16.285.988-21.91-4.59-14.754-14.175-28.868-29.054-44.2-42.593-9.5-7.79-7.562-24.7 4.09-29.204zm134.364 39.282c8.347-4.504 21.707-.84 24.027 9.125 3.535 8.863-2.145 17.636-8.375 23.535-13.652 13.512-26.926 27.398-40.203 41.285-4.836 5.871-13.36 7.441-20.2 4.273-9.882-4.097-12.55-18.972-5.101-26.5 16.754-17.082 31.535-36.23 49.852-51.718zM47.566 45.359c8.696-5.257 19.45-1.773 25.883 5.375 14.461 14.645 29.387 28.793 44.024 43.203 9.68 8.981 2.93 27.985-10.578 28.043-11.301 1.743-17.305-9.472-24.868-15.605-13.273-11.012-25.418-23.27-37.445-35.621-6.812-7.031-4.781-19.934 2.984-25.395zm11.22 86.555c14.577-5.633 28.808 12.79 19.706 25.484-10.754 14.063-24.754 25.364-36.488 38.645-6.93 7.144-13.39 18.129-24.926 16.734-13.508-.523-20.289-19.351-10.465-28.472 17.739-17.028 31.825-38.559 52.168-52.387zm295.589 40.738c10.031-6.566 25.16.903 25.48 13.02 1.477 11.387-9.796 17.402-16 25.047-10.925 13.187-22.921 25.48-35.3 37.304-9.043 8.57-25.942 2.555-27.563-9.847-2.117-12.817 9.883-20.774 17.45-28.969 12.519-11.652 23.097-25.394 35.933-36.555zM96.809 262.754c9.738-5.84 24.52 1.105 24.75 12.96 1.796 11.446-9.477 17.52-15.649 25.161-10.898 13.219-23.043 25.336-35.3 37.309-7.973 8.078-24.954 4.18-27.215-7.41-3.856-11.184 5.62-20.223 12.84-27.258 14-13.13 26.171-28.149 40.574-40.762zm173.086-.438c5.39-1.855 12.23-2.003 16.78 1.891 16.868 16.066 34.81 31.004 50.66 48.145 4.9 4.968 5.333 13.308 2.087 19.293-4.578 10.75-20.29 11.011-27.91 3.398-15.39-14.555-30.168-29.84-45.649-44.34-9.36-7.289-7.16-24.172 4.032-28.387zm-129.872 41.086c8.028-4.359 17.446-.23 23.215 5.899 14.547 14.469 29.098 28.941 44.2 42.828 9.937 9.473 3.214 28.68-10.786 28.824-11.3 1.34-17.183-9.906-24.777-16.066-13.188-10.953-25.418-23.016-37.242-35.422-7.133-7.64-4.235-21.848 5.39-26.063zM114.22 17.93c0 9.175-7.418 16.613-16.57 16.613-9.153 0-16.57-7.438-16.57-16.613 0-9.172 7.417-16.614 16.57-16.614 9.152 0 16.57 7.438 16.57 16.614zm48.3 44.183c0 9.176-7.421 16.614-16.57 16.614-9.152 0-16.574-7.438-16.574-16.614 0-9.172 7.418-16.613 16.574-16.613 9.149 0 16.57 7.441 16.57 16.613zm-129.378 40.59c0 9.18-7.418 16.613-16.57 16.613C7.42 119.316 0 111.883 0 102.703c0-9.172 7.418-16.61 16.57-16.61 9.153 0 16.57 7.438 16.57 16.61zm263.043-86.09c0 9.172-7.414 16.61-16.567 16.61-9.156 0-16.574-7.438-16.574-16.61C263.043 7.438 270.465 0 279.617 0c9.149 0 16.567 7.438 16.567 16.613zM382 98.54c0 9.172-7.418 16.613-16.57 16.613-9.149 0-16.57-7.441-16.57-16.613 0-9.176 7.417-16.613 16.57-16.613 9.152 0 16.57 7.441 16.57 16.613zm-45.285 47.734c0 9.172-7.422 16.61-16.57 16.61-9.153 0-16.57-7.438-16.57-16.61 0-9.175 7.417-16.609 16.57-16.609 9.148 0 16.57 7.434 16.57 16.61zm45.21 134.165c0 9.175-7.421 16.609-16.573 16.609-9.153 0-16.57-7.434-16.57-16.61 0-9.175 7.417-16.613 16.57-16.613 9.152 0 16.574 7.438 16.574 16.613zm-129.23 40.507c0 9.176-7.422 16.614-16.57 16.614-9.152 0-16.574-7.438-16.574-16.614 0-9.172 7.422-16.613 16.574-16.613 9.148 0 16.57 7.441 16.57 16.613zm47.672 45.442c0 9.175-7.422 16.613-16.574 16.613-9.148 0-16.57-7.438-16.57-16.613 0-9.172 7.422-16.614 16.57-16.614 9.152.004 16.574 7.442 16.574 16.614zm-181.465 0c0 9.175-7.418 16.61-16.57 16.61-9.152 0-16.57-7.435-16.57-16.61 0-9.176 7.418-16.614 16.57-16.614 9.152 0 16.57 7.438 16.57 16.614zM78.488 236.273c0 9.176-7.418 16.61-16.57 16.61-9.152 0-16.57-7.434-16.57-16.61 0-9.175 7.418-16.613 16.57-16.613 9.152 0 16.57 7.438 16.57 16.613zm-45.347 48.282c0 9.175-7.418 16.613-16.57 16.613C7.417 301.168 0 293.73 0 284.555c0-9.176 7.418-16.61 16.57-16.61 9.153 0 16.57 7.434 16.57 16.61zm0 0"/></svg>