<svg xmlns="http://www.w3.org/2000/svg" viewBox="0 0 512 481">
  <path fill="#000" fill-rule="evenodd" d="M491.005 194.951c22.809 33.371 29.065 72.677 8.577 114.214-13.297 26.958-31.375 34.892-55.284 45.387-16.376 7.188-35.487 15.576-57.671 32.1-28.254 19.302-46.84 36.7-62.257 51.13-28.21 26.405-45.802 42.871-92.581 42.871-31.199 0-78.574-19.926-113.433-62.864-32.026-1.344-61.947-10.714-87-30.981-49.746-47.39-30.378-98.922-9.453-154.594 5.103-13.578 10.3-27.403 14.609-41.475 4.834-15.788 7.448-32.035 9.997-47.88 6.972-43.319 13.46-83.633 63.484-103.337 18.478-7.277 39.511-9.406 61.754-7.53C195.632 9.12 223.868-3.327 253.495.776c26.824 3.714 35.351 9.371 48.307 17.968 11.213 7.438 25.742 17.078 58.318 29.564 27.342 8.413 50.444 11.617 69.403 14.246 27.362 3.794 46.095 6.392 56.491 21.724 20.945 30.886 19.591 70.145 4.99 110.674zm-114.842 45.376c0-61.511-38.041-135.837-117.931-135.837-74.236 0-143.293 60.816-143.293 135.837 0 75.02 57.645 135.837 131.88 135.837 74.236 0 129.344-53.822 129.344-135.837z"/>
</svg>
