<svg xmlns="http://www.w3.org/2000/svg" viewBox="0 0 382 240"><path fill-rule="evenodd" d="M380.805 125.582c-.266.797-.594 1.395-.993 1.793-.398.398-.996.73-1.792.996L276.95 240 191 147.508 105.05 240 3.98 128.371c-.796-.266-1.394-.664-1.792-1.195a10.3 10.3 0 01-.993-1.594 61.05 61.05 0 01-.797-2.594A10.834 10.834 0 010 120c0-1.063.133-2.059.398-2.988a61.05 61.05 0 01.797-2.594c.266-.797.594-1.395.992-1.793.399-.398.997-.73 1.793-.996L105.05.797 191 93.289 276.95 0l101.07 111.23c.796.266 1.394.665 1.793 1.196.398.531.726.93.992 1.195.53 1.063.863 1.992.996 2.79.133.8.199 1.73.199 2.792 0 1.328-.133 2.524-.398 3.586a37.868 37.868 0 01-.797 2.793zM105.848 54.219l-52.528 57.41-2.386 2.789c-.532.797-.996 1.66-1.395 2.594a7.57 7.57 0 00-.594 2.988c0 1.063.2 2.059.594 2.988a15.84 15.84 0 001.395 2.594l2.386 2.79 52.528 57.41L166.328 120zm225.218 60.199l-2.386-2.79-52.528-57.41L215.672 120l60.48 64.984 52.528-57.41 2.386-2.39a58.94 58.94 0 001.395-2.993 7.57 7.57 0 00.594-2.988c-.266-.531-.528-1.262-.793-2.191a9.207 9.207 0 00-1.196-2.594zm0 0"/></svg>