<svg xmlns="http://www.w3.org/2000/svg" viewBox="0 0 384 384"><path d="M375.031 206.184l-13.328-13.97c.445-29.6-8.125-58.866-24.664-84.831 5.223-18.899 15.149-56.871 13.602-67.305-2.082-14.066-16.672-36.992-51.582-33.867-23.957 2.144-45.211 17.137-56.192 26.332-45.523-18.164-87.387-17.23-121.957-8.29-11.687-7.538-31.969-17.355-46.738-6.855-13.484 9.59-17.934 25.977-19.367 37.207a.513.513 0 00-.102.063S0 88.008 0 170.855c0 46.567 15.965 80.614 39.11 106.227.687 10.266 3.074 22.988 10.386 27.672 6.441 4.121 16.953 4.168 25.938 3.156 8.691 5.785 17.668 10.953 26.683 15.598 15.883 8.183 35.973 16.105 58.246 20.816 9.567 13.223 27.559 33.727 47 33.371 20.785-.379 36.59-21.289 44.13-37.136 22.984-7.72 45.644-21.579 66.366-43.95 13.567 7.891 36.938-5.214 52.649-29.738 15.96-24.887 17.984-52.05 4.523-60.687zM210.484 60.402s-28.93-18.297-56.757-21.535c-27.825-3.242-49.149.824-56.473.867l14.238-5.648s19.211-8.648 63.047-2.602c37.77 5.211 53.402 18.754 53.402 18.754zm84.743 124.825c-6.23.253-11.66-9.254-12.133-21.223-.469-11.973 4.199-21.867 10.43-22.113 6.23-.25 11.663 9.257 12.128 21.23.477 11.965-4.195 21.863-10.425 22.106zm30.605-17.016c-5.281.215-9.883-7.844-10.285-17.996-.395-10.145 3.562-18.54 8.844-18.746 5.285-.211 9.886 7.847 10.28 18 .407 10.148-3.558 18.543-8.839 18.742zm24.898 91.02c-.933 8.925-5.289 15.769-9.734 15.308-4.433-.46-7.27-8.062-6.332-16.992.938-8.926 5.297-15.777 9.734-15.3 4.434.456 7.27 8.07 6.332 16.983zm21.422-20.305c-.851 8.148-4.687 14.41-8.558 14.004-3.867-.403-6.317-7.328-5.465-15.477.86-8.14 4.691-14.41 8.566-13.996 3.871.402 6.313 7.332 5.457 15.469zm0 0"/></svg>