<?xml version="1.0" encoding="UTF-8" standalone="yes"?>
<svg xmlns="http://www.w3.org/2000/svg" xmlns:xlink="http://www.w3.org/1999/xlink" width="512px" height="512px" viewBox="0 0 384 384" version="1.1">
  <g id="surface1">
    <path style=" stroke:none;fill-rule:nonzero;fill:rgb(0%,0%,0%);fill-opacity:1;" d="M 189.929688 0.496094 L 33.277344 33.21875 L 33.277344 250.054688 C 33.277344 281.757812 65.828125 311.9375 101.09375 335.164062 C 140.933594 361.441406 184.164062 381.617188 187.558594 382.972656 L 189.929688 383.988281 L 192.304688 382.972656 C 198.578125 380.597656 346.582031 317.699219 346.582031 250.054688 L 346.582031 33.21875 Z M 122.15625 133.332031 L 203.097656 133.332031 L 203.097656 150.203125 L 122.15625 150.203125 Z M 213.867188 206.738281 L 160.742188 206.738281 L 160.742188 290.914062 L 139.742188 290.914062 L 139.742188 187.890625 L 210.996094 187.890625 C 239.710938 187.890625 258.199219 170.484375 258.199219 141.226562 C 258.199219 112.332031 239.53125 95.460938 211.355469 95.460938 L 136.152344 95.820312 L 136.152344 76.617188 L 213.867188 76.617188 C 252.273438 76.617188 279.914062 101.566406 279.914062 141.230469 C 279.914062 181.074219 252.273438 206.738281 213.867188 206.738281 Z M 213.867188 206.738281 "/>
  </g>
</svg>