<svg xmlns="http://www.w3.org/2000/svg" viewBox="0 0 382 189"><path d="M254.973 153.273c-20.711 0-35.438-12.445-35.207-32.496.46-17.289 10.816-31.578 35.437-31.578h21.402V77.906c0-8.761-2.761-16.136-14.726-16.136-12.43 0-15.192 5.992-16.11 14.984h-22.55c.918-18.442 9.433-33.883 39.347-33.883 24.856 0 37.743 10.14 37.743 35.727v73.293h-22.555v-5.993h-.918c-4.602 2.997-9.438 7.375-21.863 7.375zm21.632-37.57v-10.832h-18.18c-12.655 0-16.109 5.992-16.109 14.754 0 10.832 6.676 15.902 16.34 15.902 12.656-.23 17.95-8.527 17.95-19.824zM25.312 145.207h-.917v42.41H.46V44.023h23.473v6.684h.918c8.054-7.836 18.64-8.066 24.394-8.066 24.39 0 40.5 23.277 40.5 54.394v4.149c0 32.5-18.64 51.629-40.73 51.629-10.817 0-18.41-2.305-23.703-7.606zm42.114-42.18v-7.144C67.426 75.602 59.832 62 46.023 62c-14.957 0-22.78 15.676-22.78 33.883v6.914c0 17.289 7.823 30.426 23.241 30.426 11.965.23 20.942-9.22 20.942-30.196zm34.058-59.695h23.93V151.43h-23.93zm40.73-42.18h23.934V151.43h-23.933zm40.731 0h23.934V151.43h-23.934zm184.79 65.457c-13.579 0-26.696 10.606-26.696 24.204v60.617h-23.934V44.023H339.2v6.684h.918c5.293-5.762 18.41-8.297 29.227-8.066h1.148V66.84zM101.484 1.152h23.93V26.97h-23.93zm256.35 124.465h23.935v25.813h-23.934zm0 0"/></svg>