<?xml version="1.0" encoding="UTF-8" standalone="yes"?>
<svg xmlns="http://www.w3.org/2000/svg" xmlns:xlink="http://www.w3.org/1999/xlink" width="509.3333333333333px" height="252px" viewBox="0 0 382 189" version="1.1">
  <g id="surface1">
    <path style=" stroke:none;fill-rule:nonzero;fill:rgb(0%,0%,0%);fill-opacity:1;" d="M 254.972656 153.273438 C 234.261719 153.273438 219.535156 140.828125 219.765625 120.777344 C 220.226562 103.488281 230.582031 89.199219 255.203125 89.199219 L 276.605469 89.199219 L 276.605469 77.90625 C 276.605469 69.144531 273.84375 61.769531 261.878906 61.769531 C 249.449219 61.769531 246.6875 67.761719 245.769531 76.753906 L 223.21875 76.753906 C 224.136719 58.3125 232.652344 42.871094 262.566406 42.871094 C 287.421875 42.871094 300.308594 53.011719 300.308594 78.597656 L 300.308594 151.890625 L 277.753906 151.890625 L 277.753906 145.898438 L 276.835938 145.898438 C 272.234375 148.894531 267.398438 153.273438 254.972656 153.273438 Z M 276.605469 115.703125 L 276.605469 104.871094 L 258.425781 104.871094 C 245.769531 104.871094 242.316406 110.863281 242.316406 119.625 C 242.316406 130.457031 248.992188 135.527344 258.65625 135.527344 C 271.3125 135.296875 276.605469 127 276.605469 115.703125 Z M 25.3125 145.207031 L 24.394531 145.207031 L 24.394531 187.617188 L 0.460938 187.617188 L 0.460938 44.023438 L 23.933594 44.023438 L 23.933594 50.707031 L 24.851562 50.707031 C 32.90625 42.871094 43.492188 42.640625 49.246094 42.640625 C 73.636719 42.640625 89.746094 65.917969 89.746094 97.035156 L 89.746094 101.183594 C 89.746094 133.683594 71.105469 152.8125 49.015625 152.8125 C 38.199219 152.8125 30.605469 150.507812 25.3125 145.207031 Z M 67.425781 103.027344 L 67.425781 95.882812 C 67.425781 75.601562 59.832031 62 46.023438 62 C 31.066406 62 23.242188 77.675781 23.242188 95.882812 L 23.242188 102.796875 C 23.242188 120.085938 31.066406 133.222656 46.484375 133.222656 C 58.449219 133.453125 67.425781 124.003906 67.425781 103.027344 Z M 101.484375 43.332031 L 125.414062 43.332031 L 125.414062 151.429688 L 101.484375 151.429688 Z M 142.214844 1.152344 L 166.148438 1.152344 L 166.148438 151.429688 L 142.214844 151.429688 Z M 182.945312 1.152344 L 206.878906 1.152344 L 206.878906 151.429688 L 182.945312 151.429688 Z M 367.734375 66.609375 C 354.15625 66.609375 341.039062 77.214844 341.039062 90.8125 L 341.039062 151.429688 L 317.105469 151.429688 L 317.105469 44.023438 L 339.199219 44.023438 L 339.199219 50.707031 L 340.117188 50.707031 C 345.410156 44.945312 358.527344 42.410156 369.34375 42.640625 L 370.492188 42.640625 L 370.492188 66.839844 Z M 101.484375 1.152344 L 125.414062 1.152344 L 125.414062 26.96875 L 101.484375 26.96875 Z M 357.835938 125.617188 L 381.769531 125.617188 L 381.769531 151.429688 L 357.835938 151.429688 Z M 357.835938 125.617188 "/>
  </g>
</svg>