<svg xmlns="http://www.w3.org/2000/svg" viewBox="0 0 384 384"><path d="M278.441 378.586s17.594-58.531 9.813-111.14c-7.781-52.61-54.809-116.384-90.332-145.141-35.527-28.758-103.7-61.407-103.7-61.407s59.208 45.336 79.676 66.989c20.47 21.652 48.72 57.515 62.082 104.71 13.368 47.028 10.997 128.903-16.07 145.989-27.062 17.254-98.62-12.516-122.472-32.477C73.585 326.145 43.136 293.496 34.34 226 25.543 158.336 28.082 0 28.082 0s127.04.676 222.957 61.238c96.082 60.559 104.879 108.602 104.879 186.078 0 77.645-77.477 131.27-77.477 131.27zm0 0"/></svg>