<?xml version="1.0" encoding="UTF-8" standalone="yes"?>
<svg xmlns="http://www.w3.org/2000/svg" xmlns:xlink="http://www.w3.org/1999/xlink" width="510.66666666666663px" height="488px" viewBox="0 0 383 366" version="1.1">
  <g id="surface1">
    <path style=" stroke:none;fill-rule:evenodd;fill:rgb(0%,0%,0%);fill-opacity:1;" d="M 321.039062 134.816406 L 262.53125 134.816406 C 254.425781 134.816406 246.953125 131.585938 240.117188 125.132812 C 233.277344 118.675781 229.855469 111.269531 229.855469 102.914062 L 229.855469 45.1875 C 229.855469 37.082031 227.324219 30.4375 222.257812 25.246094 C 217.191406 20.058594 210.609375 17.460938 202.503906 17.460938 L 148.933594 17.460938 C 140.828125 17.460938 133.546875 20.058594 127.085938 25.246094 C 120.628906 30.4375 117.398438 37.082031 117.398438 45.1875 L 117.398438 103.671875 C 117.398438 111.773438 114.675781 119.054688 109.230469 125.511719 C 103.785156 131.96875 97.007812 135.195312 88.902344 135.195312 L 31.152344 135.195312 C 22.796875 135.195312 15.515625 137.917969 9.308594 143.359375 C 3.101562 148.804688 0 155.578125 0 163.679688 L 0 217.230469 C 0 225.585938 3.101562 232.738281 9.308594 238.6875 C 15.515625 244.636719 22.796875 247.613281 31.152344 247.613281 L 89.285156 247.613281 C 97.640625 247.613281 104.480469 250.523438 109.800781 256.347656 C 115.117188 262.171875 117.777344 269.261719 117.777344 277.617188 L 117.777344 335.722656 C 117.777344 344.078125 120.945312 351.167969 127.277344 356.992188 C 133.609375 362.816406 141.082031 365.726562 149.691406 365.726562 L 202.882812 365.726562 C 211.242188 365.726562 217.890625 362.816406 222.828125 356.992188 C 227.769531 351.167969 230.238281 344.078125 230.238281 335.722656 L 230.238281 277.617188 C 230.238281 269.261719 233.59375 262.171875 240.304688 256.347656 C 247.015625 250.523438 254.679688 247.613281 263.292969 247.613281 L 321.421875 247.613281 C 329.777344 247.613281 336.425781 244.636719 341.367188 238.6875 C 346.304688 232.738281 348.777344 225.585938 348.777344 217.230469 L 348.777344 163.679688 C 348.269531 155.324219 345.546875 148.425781 340.605469 142.980469 C 335.667969 137.539062 329.144531 134.816406 321.039062 134.816406 Z M 268.230469 91.519531 L 286.46875 95.699219 C 298.625 98.734375 311.921875 98.800781 326.359375 95.886719 C 340.796875 92.976562 353.96875 85.0625 365.871094 72.152344 C 377.777344 58.984375 383.476562 36.449219 382.96875 4.546875 L 364.351562 1.128906 C 351.6875 -0.894531 338.011719 -0.199219 323.320312 3.21875 C 308.628906 6.636719 295.457031 14.804688 283.808594 27.714844 C 271.902344 40.375 266.710938 61.644531 268.230469 91.519531 Z M 268.230469 91.519531 "/>
  </g>
</svg>