<?xml version="1.0" encoding="UTF-8" standalone="yes"?>
<svg xmlns="http://www.w3.org/2000/svg" xmlns:xlink="http://www.w3.org/1999/xlink" width="512px" height="512px" viewBox="0 0 384 384" version="1.1">
  <g id="surface1">
    <path style=" stroke:none;fill-rule:nonzero;fill:rgb(0%,0%,0%);fill-opacity:1;" d="M 347.804688 301.199219 C 352.621094 301.199219 356.789062 302.902344 360.300781 306.300781 C 363.8125 309.699219 365.566406 313.898438 365.566406 318.898438 C 365.566406 323.699219 363.8125 327.851562 360.300781 331.351562 C 356.789062 334.847656 352.621094 336.601562 347.804688 336.601562 C 342.789062 336.601562 338.574219 334.847656 335.164062 331.351562 C 331.75 327.851562 330.046875 323.703125 330.046875 318.898438 C 330.046875 317.300781 330.246094 315.699219 330.648438 314.101562 C 331.046875 312.5 331.648438 311.101562 332.453125 309.898438 L 301.445312 283.199219 L 237.925781 328.800781 C 238.324219 329.597656 238.578125 330.351562 238.675781 331.050781 C 238.777344 331.75 238.828125 332.5 238.828125 333.300781 C 238.828125 336.699219 237.625 339.601562 235.214844 342 C 232.808594 344.398438 229.996094 345.601562 226.785156 345.601562 C 223.773438 345.601562 221.167969 344.75 218.957031 343.050781 C 216.75 341.351562 215.34375 339.101562 214.742188 336.300781 L 147.308594 336.300781 C 146.707031 339.101562 145.300781 341.351562 143.09375 343.050781 C 140.886719 344.75 138.378906 345.601562 135.570312 345.601562 C 132.160156 345.601562 129.246094 344.398438 126.839844 342 C 124.429688 339.601562 123.226562 336.699219 123.226562 333.300781 C 123.226562 332.5 123.328125 331.75 123.527344 331.050781 C 123.726562 330.351562 123.925781 329.597656 124.128906 328.800781 L 68.433594 288.898438 C 67.390625 289.726562 66.222656 290.382812 64.972656 290.851562 C 63.667969 291.351562 62.214844 291.601562 60.609375 291.601562 C 57.199219 291.601562 54.285156 290.402344 51.878906 288 C 49.46875 285.597656 48.265625 282.699219 48.265625 279.300781 C 48.265625 277.101562 48.820312 275.101562 49.921875 273.300781 C 50.984375 271.542969 52.488281 270.09375 54.285156 269.097656 L 32.914062 204 L 32.3125 204 C 28.898438 204 25.988281 202.800781 23.582031 200.398438 C 21.171875 198 19.96875 195.101562 19.96875 191.699219 C 19.96875 188.300781 21.171875 185.398438 23.582031 183 C 25.988281 180.601562 28.898438 179.398438 32.3125 179.398438 L 33.214844 179.398438 L 54.289062 114.902344 L 53.984375 114.902344 C 52.378906 113.902344 51.027344 112.5 49.921875 110.699219 C 48.820312 108.898438 48.265625 106.898438 48.265625 104.699219 C 48.265625 101.300781 49.46875 98.402344 51.878906 96 C 54.285156 93.597656 57.199219 92.398438 60.609375 92.398438 C 62.214844 92.398438 63.671875 92.648438 64.972656 93.152344 C 66.28125 93.648438 67.433594 94.398438 68.4375 95.398438 L 124.128906 55.199219 C 123.929688 54.601562 123.726562 53.898438 123.527344 53.097656 C 123.328125 52.316406 123.226562 51.507812 123.226562 50.699219 C 123.226562 47.300781 124.429688 44.398438 126.839844 42 C 129.246094 39.597656 132.15625 38.398438 135.566406 38.398438 C 138.378906 38.398438 140.886719 39.300781 143.09375 41.101562 C 145.300781 42.902344 146.707031 45.101562 147.308594 47.699219 L 214.742188 47.699219 C 215.34375 44.898438 216.75 42.648438 218.957031 40.949219 C 221.164062 39.25 223.773438 38.398438 226.785156 38.398438 C 229.996094 38.398438 232.804688 39.601562 235.214844 42 C 237.621094 44.398438 238.828125 47.300781 238.828125 50.699219 C 238.828125 51.5 238.777344 52.300781 238.675781 53.097656 C 238.59375 53.847656 238.335938 54.570312 237.921875 55.199219 L 293.617188 95.398438 C 294.636719 94.390625 295.871094 93.621094 297.230469 93.152344 C 298.582031 92.660156 300.007812 92.40625 301.441406 92.398438 C 304.855469 92.398438 307.765625 93.597656 310.171875 96 C 312.582031 98.402344 313.785156 101.300781 313.785156 104.699219 C 313.785156 106.898438 313.234375 108.898438 312.128906 110.699219 C 311.027344 112.5 309.671875 113.902344 308.066406 114.902344 L 329.140625 179.699219 L 330.042969 179.699219 C 333.253906 179.699219 336.066406 180.898438 338.472656 183.300781 C 340.882812 185.699219 342.085938 188.597656 342.085938 192 C 342.085938 195.402344 340.882812 198.300781 338.472656 200.699219 C 336.066406 203.101562 333.253906 204.300781 330.042969 204.300781 L 329.140625 204.300781 L 305.054688 278.398438 L 336.367188 305.398438 C 337.914062 304.035156 339.699219 302.96875 341.632812 302.25 C 343.539062 301.550781 345.597656 301.199219 347.804688 301.199219 Z M 303.554688 120.300781 L 299.640625 180 C 301.644531 180.800781 303.402344 181.949219 304.910156 183.449219 C 306.414062 184.949219 307.367188 186.800781 307.765625 189 L 318.003906 189 C 318.402344 187.398438 319.054688 186 319.960938 184.800781 C 320.863281 183.601562 322.019531 182.601562 323.421875 181.800781 L 303.550781 120.300781 Z M 297.832031 116.398438 L 297.53125 116.101562 C 296.527344 115.902344 295.523438 115.398438 294.523438 114.597656 C 293.574219 113.851562 292.671875 113.050781 291.8125 112.199219 L 271.339844 120.898438 C 271.339844 121.300781 271.390625 121.699219 271.492188 122.101562 C 271.59375 122.5 271.640625 122.800781 271.640625 123 C 271.648438 124.769531 271.234375 126.519531 270.4375 128.097656 C 269.636719 129.699219 268.632812 131 267.425781 132 L 292.714844 180 C 292.914062 179.800781 293.066406 179.699219 293.167969 179.699219 L 293.617188 179.699219 L 297.832031 116.402344 Z M 228.894531 180 L 251.472656 132.300781 C 250.289062 131.324219 249.269531 130.15625 248.460938 128.851562 C 247.652344 127.527344 247.136719 126.042969 246.957031 124.5 L 192.46875 117.597656 C 192.066406 118.398438 191.613281 119.152344 191.113281 119.847656 C 190.609375 120.550781 190.058594 121.199219 189.457031 121.800781 L 223.171875 180.300781 C 223.773438 180.101562 224.378906 179.949219 224.980469 179.851562 C 225.578125 179.75 226.179688 179.699219 226.785156 179.699219 C 227.1875 179.699219 227.589844 179.75 227.988281 179.851562 C 228.390625 179.949219 228.695312 180 228.894531 180 Z M 256.890625 135 L 234.613281 182.699219 C 235.597656 183.480469 236.417969 184.449219 237.023438 185.550781 C 237.625 186.648438 238.125 187.800781 238.527344 189 L 283.984375 189 C 284.183594 187.800781 284.585938 186.648438 285.1875 185.550781 C 285.792969 184.449219 286.613281 183.480469 287.597656 182.699219 L 262.308594 134.699219 C 261.707031 134.898438 261.15625 135.050781 260.652344 135.148438 C 260.152344 135.25 259.699219 135.300781 259.296875 135.300781 C 258.890625 135.300781 258.488281 135.25 258.09375 135.148438 C 257.699219 135.050781 257.296875 135 256.890625 135 Z M 218.054688 183.300781 L 184.339844 124.800781 C 183.734375 124.800781 183.183594 124.851562 182.683594 124.949219 C 182.136719 125.054688 181.582031 125.105469 181.027344 125.097656 C 180.425781 125.097656 179.875 125.050781 179.371094 124.949219 C 178.925781 124.855469 178.472656 124.804688 178.015625 124.800781 L 144 183.300781 C 144.804688 184.097656 145.503906 184.949219 146.105469 185.851562 C 146.710938 186.75 147.109375 187.800781 147.3125 189 L 214.746094 189 C 215.148438 187.800781 215.597656 186.75 216.101562 185.851562 C 216.628906 184.914062 217.289062 184.054688 218.058594 183.300781 Z M 138.878906 180.300781 L 172.597656 121.800781 C 171.996094 121.199219 171.445312 120.550781 170.941406 119.847656 C 170.390625 119.054688 169.9375 118.199219 169.589844 117.300781 L 115.097656 124.5 C 114.917969 126.042969 114.40625 127.527344 113.59375 128.851562 C 112.785156 130.15625 111.769531 131.324219 110.582031 132.300781 L 133.160156 180 C 133.5625 180 133.964844 179.949219 134.363281 179.851562 C 134.765625 179.75 135.167969 179.699219 135.570312 179.699219 C 136.171875 179.699219 136.722656 179.75 137.226562 179.851562 C 137.785156 179.964844 138.339844 180.117188 138.878906 180.300781 Z M 127.742188 182.699219 L 105.464844 135 C 105.0625 135 104.660156 135.050781 104.261719 135.148438 C 103.867188 135.25 103.460938 135.300781 103.054688 135.300781 C 102.453125 135.300781 101.902344 135.25 101.402344 135.148438 C 100.953125 135.054688 100.5 135.007812 100.046875 135 L 74.757812 183 C 75.714844 183.75 76.53125 184.664062 77.167969 185.699219 C 77.769531 186.699219 78.269531 187.800781 78.671875 189 L 123.828125 189 C 124.027344 187.597656 124.480469 186.398438 125.183594 185.398438 C 125.902344 184.382812 126.765625 183.472656 127.742188 182.699219 Z M 78.671875 195 C 78.292969 196.152344 77.789062 197.257812 77.167969 198.300781 C 76.53125 199.335938 75.714844 200.25 74.757812 201 L 100.046875 249.300781 C 100.46875 249.09375 100.933594 248.992188 101.402344 249 L 105.164062 249 L 127.742188 201.300781 C 126.765625 200.527344 125.902344 199.617188 125.183594 198.601562 C 124.480469 197.601562 123.929688 196.402344 123.527344 195 Z M 133.160156 204 L 110.582031 251.699219 C 111.765625 252.675781 112.785156 253.84375 113.59375 255.148438 C 114.394531 256.449219 114.898438 257.898438 115.097656 259.5 L 169.589844 266.398438 C 169.988281 265.601562 170.441406 264.800781 170.941406 264 C 171.414062 263.238281 171.96875 262.535156 172.597656 261.898438 L 138.882812 203.703125 C 138.480469 203.902344 137.976562 204.050781 137.375 204.148438 C 136.78125 204.25 136.175781 204.300781 135.570312 204.300781 C 135.167969 204.300781 134.765625 204.25 134.363281 204.148438 C 133.972656 204.050781 133.566406 204 133.160156 204 Z M 144 200.699219 L 177.714844 258.898438 L 177.714844 259.199219 C 178.316406 259 178.871094 258.851562 179.371094 258.75 C 179.917969 258.644531 180.472656 258.59375 181.027344 258.597656 C 181.628906 258.597656 182.230469 258.648438 182.832031 258.75 C 183.433594 258.851562 183.9375 258.902344 184.339844 258.902344 L 218.054688 200.703125 C 217.269531 199.921875 216.566406 199.066406 215.949219 198.148438 C 215.34375 197.25 214.945312 196.199219 214.742188 195 L 147.308594 195 C 147.109375 196.199219 146.707031 197.25 146.105469 198.148438 C 145.503906 199.050781 144.800781 199.902344 144 200.699219 Z M 228.898438 204.007812 C 228.59375 204.027344 228.289062 204.074219 227.992188 204.148438 C 227.496094 204.257812 226.992188 204.308594 226.484375 204.300781 C 225.882812 204.300781 225.332031 204.25 224.828125 204.148438 C 224.269531 204.035156 223.714844 203.882812 223.171875 203.699219 L 189.757812 261.898438 C 190.359375 262.5 190.863281 263.199219 191.261719 264 L 192.46875 266.398438 L 247.257812 259.5 C 247.457031 257.902344 247.910156 256.449219 248.613281 255.148438 C 249.335938 253.824219 250.304688 252.65625 251.472656 251.699219 Z M 234.3125 201.300781 L 256.890625 249 L 260.65625 249 C 261.15625 249 261.605469 249.097656 262.007812 249.300781 L 287.898438 200.703125 C 286.910156 200.113281 286.082031 199.289062 285.488281 198.300781 C 284.867188 197.257812 284.363281 196.152344 283.984375 195 L 238.527344 195 C 238.125 196.402344 237.574219 197.601562 236.871094 198.601562 C 236.148438 199.617188 235.289062 200.527344 234.3125 201.300781 Z M 289.394531 106.503906 C 289.378906 106.25 289.332031 105.996094 289.253906 105.75 C 289.148438 105.410156 289.097656 105.054688 289.101562 104.699219 C 289.105469 103.890625 289.207031 103.085938 289.402344 102.300781 C 289.605469 101.5 289.804688 100.800781 290.007812 100.199219 L 234.613281 60 C 234.414062 60 234.3125 60.050781 234.3125 60.148438 L 234.3125 60.300781 L 257.140625 110.886719 C 257.445312 110.765625 257.765625 110.703125 258.09375 110.699219 L 259.296875 110.699219 C 261.304688 110.699219 263.113281 111.148438 264.71875 112.050781 C 266.3125 112.945312 267.742188 114.109375 268.933594 115.5 Z M 221.96875 62.097656 L 190.660156 105.300781 C 191.261719 106.097656 191.8125 107 192.316406 108 C 192.820312 109 193.070312 110.101562 193.070312 111.300781 L 247.859375 118.5 C 248.261719 117.5 248.761719 116.546875 249.363281 115.648438 C 249.988281 114.730469 250.8125 113.960938 251.773438 113.398438 L 228.894531 62.699219 C 228.492188 62.699219 228.089844 62.75 227.6875 62.851562 C 227.296875 62.949219 226.890625 63 226.484375 63 C 225.722656 63.003906 224.960938 62.902344 224.226562 62.699219 C 223.523438 62.5 222.773438 62.300781 221.96875 62.101562 Z M 147.308594 53.699219 C 147.109375 54.699219 146.808594 55.550781 146.40625 56.25 C 146.007812 56.949219 145.503906 57.699219 144.902344 58.5 L 176.511719 101.402344 L 176.511719 101.699219 C 177.113281 101.300781 177.816406 101.050781 178.617188 100.949219 C 179.417969 100.851562 180.222656 100.800781 181.027344 100.800781 C 181.832031 100.800781 182.582031 100.851562 183.285156 100.949219 C 183.949219 101.039062 184.605469 101.191406 185.242188 101.402344 L 217.152344 58.5 C 216.578125 57.746094 216.074219 56.941406 215.648438 56.097656 C 215.257812 55.335938 214.957031 54.53125 214.742188 53.699219 Z M 135.570312 63 C 135.167969 63 134.765625 62.949219 134.363281 62.851562 C 134.070312 62.765625 133.765625 62.714844 133.460938 62.699219 L 110.582031 113.398438 C 111.386719 114 112.089844 114.75 112.691406 115.648438 C 113.292969 116.550781 113.792969 117.5 114.195312 118.5 L 168.984375 111.300781 C 169.167969 110.171875 169.46875 109.066406 169.890625 108 C 170.300781 106.988281 170.914062 106.066406 171.695312 105.300781 L 140.085938 62.101562 C 139.484375 62.300781 138.777344 62.5 137.976562 62.699219 C 137.191406 62.898438 136.382812 63 135.570312 63 Z M 127.742188 60 L 72.046875 100.199219 C 72.25 100.800781 72.449219 101.449219 72.652344 102.148438 C 72.851562 102.851562 72.953125 103.601562 72.953125 104.398438 L 72.953125 105.601562 C 72.953125 106 72.851562 106.300781 72.652344 106.5 L 93.421875 115.5 C 94.425781 114.101562 95.78125 112.953125 97.488281 112.050781 C 99.203125 111.148438 101.117188 110.683594 103.054688 110.699219 L 104.109375 110.699219 C 104.410156 110.699219 104.761719 110.800781 105.164062 111 L 128.042969 60.300781 C 127.84375 60.300781 127.742188 60.25 127.742188 60.148438 Z M 70.242188 112.199219 C 69.640625 113 68.835938 113.75 67.832031 114.449219 C 66.816406 115.15625 65.699219 115.714844 64.519531 116.101562 L 69.035156 180 L 69.640625 180 L 94.925781 132 C 93.535156 131.015625 92.441406 129.664062 91.765625 128.097656 C 91.0625 126.5 90.710938 124.898438 90.710938 123.300781 L 90.710938 122.101562 C 90.710938 121.699219 90.8125 121.300781 91.011719 120.898438 Z M 58.800781 263.699219 L 63.015625 203.699219 L 62.714844 203.699219 C 60.890625 202.886719 59.253906 201.714844 57.898438 200.25 C 56.5 198.757812 55.46875 196.960938 54.886719 195 L 44.050781 195 C 43.652344 196.601562 43 198 42.09375 199.199219 C 41.195312 200.398438 40.039062 201.398438 38.636719 202.199219 L 58.804688 263.699219 Z M 54.886719 189 C 55.46875 187.039062 56.5 185.242188 57.898438 183.75 C 59.304688 182.25 61.007812 181.101562 63.015625 180.300781 L 58.800781 120.300781 L 38.933594 181.5 C 40.140625 182.296875 41.242188 183.347656 42.246094 184.648438 C 43.230469 185.90625 43.855469 187.414062 44.050781 189 L 54.890625 189 Z M 64.519531 267.898438 C 65.726562 268.300781 66.777344 268.800781 67.683594 269.402344 C 68.585938 270 69.4375 270.800781 70.242188 271.800781 L 91.011719 263.101562 C 90.8125 262.699219 90.710938 262.351562 90.710938 262.050781 L 90.710938 261 C 90.703125 259.246094 91.0625 257.507812 91.765625 255.902344 C 92.441406 254.335938 93.535156 252.984375 94.925781 252 L 69.640625 204 L 69.035156 204 Z M 72.761719 277.449219 C 72.886719 277.765625 72.949219 278.082031 72.949219 278.398438 L 72.949219 279.601562 C 72.949219 280.410156 72.847656 281.214844 72.648438 282 C 72.449219 282.800781 72.246094 283.5 72.046875 284.101562 L 127.742188 324 L 128.039062 323.699219 L 105.164062 273 C 104.761719 273.199219 104.359375 273.300781 103.957031 273.300781 L 102.753906 273.300781 C 100.746094 273.300781 98.941406 272.851562 97.335938 271.949219 C 95.738281 271.054688 94.3125 269.890625 93.121094 268.5 Z M 133.457031 321.292969 C 133.757812 321.273438 134.058594 321.226562 134.363281 321.148438 C 134.765625 321.050781 135.167969 321 135.566406 321 C 136.371094 321 137.175781 321.097656 137.976562 321.300781 C 138.777344 321.5 139.480469 321.699219 140.082031 321.898438 L 166.273438 285.898438 L 171.691406 278.699219 C 170.890625 277.699219 170.289062 276.699219 169.886719 275.699219 C 169.46875 274.636719 169.164062 273.53125 168.984375 272.398438 L 114.496094 265.5 L 114.195312 265.5 C 113.792969 266.5 113.289062 267.453125 112.6875 268.351562 C 112.121094 269.214844 111.40625 269.976562 110.582031 270.601562 Z M 185.621094 282.109375 C 184.890625 282.445312 184.160156 282.660156 183.433594 282.75 C 181.835938 282.949219 180.214844 282.949219 178.617188 282.75 C 177.867188 282.667969 177.144531 282.410156 176.507812 282 L 144.898438 325.5 C 145.535156 326.152344 146.046875 326.914062 146.40625 327.75 C 146.804688 328.648438 147.105469 329.5 147.308594 330.300781 L 214.742188 330.300781 C 214.941406 329.5 215.246094 328.699219 215.644531 327.902344 C 216.046875 327.101562 216.546875 326.300781 217.152344 325.5 Z M 228.890625 321.300781 L 229.492188 319.5 L 251.472656 270.601562 C 250.710938 269.851562 250.007812 269.046875 249.363281 268.199219 C 248.746094 267.371094 248.238281 266.460938 247.859375 265.5 L 193.066406 272.398438 C 193.066406 273.601562 192.816406 274.699219 192.316406 275.699219 C 191.769531 276.765625 191.113281 277.769531 190.359375 278.699219 L 221.96875 321.898438 C 222.769531 321.699219 223.523438 321.5 224.226562 321.300781 C 224.929688 321.101562 225.679688 321 226.484375 321 C 226.882812 321 227.285156 321.050781 227.6875 321.148438 C 228.089844 321.25 228.492188 321.300781 228.890625 321.300781 Z M 234.613281 324 L 295.421875 279.902344 L 268.929688 268.5 L 268.929688 268.800781 C 267.761719 270.171875 266.328125 271.292969 264.714844 272.097656 C 263.109375 272.898438 261.304688 273.300781 259.296875 273.300781 L 258.09375 273.300781 C 257.691406 273.300781 257.390625 273.199219 257.191406 273 L 234.914062 322.199219 L 234.3125 323.699219 L 234.3125 324 Z M 271.339844 263.101562 L 298.132812 274.800781 L 293.617188 203.699219 L 293.015625 203.699219 L 267.425781 252 C 268.628906 253.199219 269.632812 254.550781 270.4375 256.050781 C 271.238281 257.550781 271.640625 259.199219 271.640625 261 C 271.640625 261.398438 271.589844 261.75 271.488281 262.050781 C 271.382812 262.390625 271.332031 262.742188 271.339844 263.101562 Z M 299.636719 203.398438 L 303.550781 263.699219 L 323.421875 202.199219 C 322.070312 201.449219 320.890625 200.425781 319.957031 199.199219 C 319.054688 198 318.402344 196.601562 318 195 L 307.464844 195 C 307.0625 197 306.160156 198.699219 304.753906 200.097656 C 303.351562 201.5 301.644531 202.601562 299.636719 203.398438 Z M 299.636719 203.398438 "/>
  </g>
</svg>