<svg xmlns="http://www.w3.org/2000/svg" viewBox="0 0 384 384"><path d="M347.805 301.2c4.816 0 8.984 1.702 12.496 5.1 3.512 3.4 5.265 7.598 5.265 12.598 0 4.801-1.753 8.954-5.265 12.454-3.512 3.496-7.68 5.25-12.496 5.25-5.016 0-9.23-1.754-12.64-5.25-3.415-3.5-5.118-7.649-5.118-12.454 0-1.597.2-3.199.601-4.796.399-1.602 1-3 1.805-4.204L301.445 283.2l-63.52 45.602c.4.797.653 1.55.75 2.25.102.699.153 1.449.153 2.25 0 3.398-1.203 6.3-3.613 8.699-2.406 2.398-5.219 3.602-8.43 3.602-3.012 0-5.617-.852-7.828-2.551-2.207-1.7-3.613-3.95-4.215-6.75H147.31c-.602 2.8-2.008 5.05-4.215 6.75-2.207 1.699-4.715 2.55-7.524 2.55-3.41 0-6.324-1.203-8.73-3.601-2.41-2.398-3.613-5.3-3.613-8.7 0-.8.101-1.55.3-2.25.2-.698.399-1.452.602-2.25l-55.695-39.902a12.771 12.771 0 01-3.461 1.954c-1.305.5-2.758.75-4.364.75-3.41 0-6.324-1.2-8.73-3.602-2.41-2.402-3.613-5.3-3.613-8.7 0-2.198.554-4.198 1.656-6a11.762 11.762 0 014.363-4.202L32.915 204h-.602c-3.415 0-6.325-1.2-8.731-3.602-2.41-2.398-3.613-5.296-3.613-8.699 0-3.398 1.203-6.3 3.613-8.699 2.406-2.398 5.316-3.602 8.73-3.602h.903l21.074-64.496h-.305c-1.605-1-2.957-2.402-4.062-4.203-1.102-1.8-1.656-3.8-1.656-6 0-3.398 1.203-6.297 3.613-8.699 2.406-2.402 5.32-3.602 8.73-3.602 1.606 0 3.063.25 4.364.754a9.766 9.766 0 013.465 2.246l55.69-40.199c-.198-.597-.401-1.3-.6-2.101a9.694 9.694 0 01-.301-2.399c0-3.398 1.203-6.3 3.613-8.699 2.406-2.402 5.316-3.602 8.726-3.602 2.813 0 5.32.903 7.528 2.704 2.207 1.8 3.613 4 4.215 6.597h67.433c.602-2.8 2.008-5.05 4.215-6.75 2.207-1.699 4.816-2.55 7.828-2.55 3.211 0 6.02 1.203 8.43 3.601 2.406 2.398 3.613 5.3 3.613 8.7 0 .8-.05 1.6-.152 2.398a4.768 4.768 0 01-.754 2.101l55.695 40.2a9.588 9.588 0 013.613-2.247 12.51 12.51 0 014.211-.754c3.414 0 6.325 1.2 8.73 3.602 2.411 2.402 3.614 5.3 3.614 8.7 0 2.198-.55 4.198-1.656 6-1.102 1.8-2.457 3.202-4.063 4.202l21.075 64.797h.902c3.21 0 6.023 1.2 8.43 3.602 2.41 2.398 3.613 5.297 3.613 8.699s-1.203 6.3-3.613 8.7c-2.407 2.402-5.22 3.6-8.43 3.6h-.902l-24.086 74.098 31.312 27a16.833 16.833 0 015.266-3.148c1.906-.7 3.965-1.05 6.172-1.05zm-44.25-180.9L299.64 180c2.004.8 3.761 1.95 5.27 3.45 1.503 1.5 2.456 3.35 2.855 5.55h10.238c.398-1.602 1.05-3 1.957-4.2.902-1.198 2.059-2.198 3.46-3l-19.87-61.5zm-5.723-3.902l-.3-.296c-1.005-.2-2.009-.704-3.009-1.504a31.553 31.553 0 01-2.71-2.399l-20.473 8.7c0 .402.05.8.152 1.203.102.398.149.699.149.898a11.21 11.21 0 01-1.204 5.098c-.8 1.601-1.804 2.902-3.011 3.902l25.289 48c.2-.2.351-.3.453-.3h.45l4.214-63.298zM228.895 180l22.578-47.7a14.12 14.12 0 01-3.012-3.448 10.737 10.737 0 01-1.504-4.352l-54.488-6.902a16.68 16.68 0 01-1.356 2.25 15.621 15.621 0 01-1.656 1.953l33.715 58.5c.601-.2 1.207-.352 1.808-.45.598-.101 1.2-.152 1.805-.152.403 0 .805.051 1.203.153.403.097.707.148.907.148zm27.996-45l-22.278 47.7a9.459 9.459 0 012.41 2.85 21.186 21.186 0 011.504 3.45h45.457c.2-1.2.602-2.352 1.204-3.45a9.459 9.459 0 012.41-2.85l-25.29-48c-.601.198-1.152.35-1.656.448-.5.102-.953.153-1.355.153-.406 0-.809-.051-1.203-.153a4.999 4.999 0 00-1.203-.148zm-38.836 48.3l-33.715-58.5c-.606 0-1.156.052-1.656.15a8.14 8.14 0 01-1.657.148 8.396 8.396 0 01-1.656-.149 6.859 6.859 0 00-1.355-.148L144 183.3a16.334 16.334 0 012.105 2.55c.606.899 1.004 1.95 1.208 3.149h67.433c.402-1.2.852-2.25 1.356-3.148a11.394 11.394 0 011.957-2.551zm-79.176-3l33.719-58.5a15.621 15.621 0 01-1.657-1.952 12.15 12.15 0 01-1.351-2.547l-54.492 7.199a10.679 10.679 0 01-1.504 4.352 14.038 14.038 0 01-3.012 3.449L133.16 180c.403 0 .805-.05 1.203-.148a4.915 4.915 0 011.207-.153c.602 0 1.153.051 1.657.153.558.113 1.113.265 1.652.449zm-11.137 2.4L105.465 135c-.403 0-.805.05-1.203.148a4.83 4.83 0 01-1.207.153 8.285 8.285 0 01-1.653-.153 7.235 7.235 0 00-1.355-.148l-25.29 48a10.24 10.24 0 012.411 2.7c.602 1 1.102 2.1 1.504 3.3h45.156c.2-1.402.652-2.602 1.356-3.602a13.101 13.101 0 012.558-2.699zM78.672 195a16.553 16.553 0 01-1.504 3.3 10.258 10.258 0 01-2.41 2.7l25.289 48.3a2.963 2.963 0 011.355-.3h3.762l22.578-47.7a13.101 13.101 0 01-2.558-2.698c-.704-1-1.254-2.2-1.657-3.602zm54.488 9l-22.578 47.7a14.12 14.12 0 013.012 3.448c.8 1.301 1.304 2.75 1.504 4.352l54.492 6.898c.398-.796.851-1.597 1.351-2.398a11.965 11.965 0 011.657-2.102l-33.715-58.195c-.403.2-.906.348-1.508.445-.594.102-1.2.153-1.805.153a4.9 4.9 0 01-1.207-.153 4.975 4.975 0 00-1.203-.148zm10.84-3.3l33.715 58.198v.301a14.576 14.576 0 011.656-.449 8.432 8.432 0 011.656-.152c.602 0 1.203.05 1.805.152a9.364 9.364 0 001.508.152l33.715-58.199a16.909 16.909 0 01-2.106-2.555c-.605-.898-1.004-1.949-1.207-3.148H147.31c-.2 1.2-.602 2.25-1.204 3.148A16.556 16.556 0 01144 200.7zm84.898 3.308c-.304.02-.609.066-.906.14-.496.11-1 .16-1.508.153a8.352 8.352 0 01-1.656-.153 13.657 13.657 0 01-1.656-.449l-33.414 58.2a7.97 7.97 0 011.504 2.101l1.207 2.398 54.789-6.898c.199-1.598.652-3.05 1.355-4.352a11.701 11.701 0 012.86-3.449zm5.415-2.707L256.89 249h3.765c.5 0 .95.098 1.352.3l25.89-48.597a6.99 6.99 0 01-2.41-2.402 16.553 16.553 0 01-1.504-3.301h-45.457c-.402 1.402-.953 2.602-1.656 3.602a13.206 13.206 0 01-2.559 2.699zm55.082-94.797a3.13 3.13 0 00-.141-.754 3.422 3.422 0 01-.152-1.05c.003-.81.105-1.614.3-2.4.203-.8.403-1.5.606-2.1L234.613 60c-.199 0-.3.05-.3.148v.153l22.828 50.586c.304-.121.625-.184.953-.188h1.203c2.008 0 3.816.45 5.422 1.352a15.6 15.6 0 014.215 3.449zm-67.426-44.406L190.66 105.3a17.562 17.562 0 011.656 2.699c.504 1 .754 2.102.754 3.3l54.79 7.2c.402-1 .902-1.953 1.503-2.852a7.501 7.501 0 012.41-2.25L228.895 62.7c-.403 0-.805.051-1.208.153-.39.097-.796.148-1.203.148a8.32 8.32 0 01-2.257-.3c-.704-.2-1.454-.4-2.258-.598zm-74.66-8.399c-.2 1-.5 1.852-.903 2.551-.398.7-.902 1.45-1.504 2.25l31.61 42.902v.297c.601-.398 1.304-.648 2.105-.75a19.91 19.91 0 012.41-.148c.805 0 1.555.05 2.258.148.664.09 1.32.242 1.957.453l31.91-42.902a15.467 15.467 0 01-1.504-2.402 11.612 11.612 0 01-.906-2.399zM135.57 63c-.402 0-.804-.05-1.207-.148a3.93 3.93 0 00-.902-.153l-22.879 50.7a9.09 9.09 0 012.11 2.25 15.663 15.663 0 011.503 2.851l54.79-7.2c.183-1.128.484-2.234.906-3.3a7.976 7.976 0 011.804-2.7l-31.61-43.198c-.6.199-1.308.398-2.108.597-.786.2-1.594.301-2.407.301zm-7.828-3l-55.695 40.2c.203.6.402 1.25.605 1.948.2.704.301 1.454.301 2.25v1.204c0 .398-.101.699-.3.898l20.769 9c1.004-1.398 2.36-2.547 4.066-3.45a11.756 11.756 0 015.567-1.35h1.054c.301 0 .653.1 1.055.3l22.879-50.7c-.2 0-.3-.05-.3-.152zm-57.5 52.2c-.601.8-1.406 1.55-2.41 2.25a12.76 12.76 0 01-3.312 1.652L69.035 180h.606l25.285-48a9.29 9.29 0 01-3.16-3.902c-.704-1.598-1.055-3.2-1.055-4.797v-1.2c0-.402.102-.8.3-1.203zM58.801 263.7l4.215-60h-.301a14.714 14.714 0 01-4.817-3.45 13.148 13.148 0 01-3.011-5.25H44.05c-.399 1.602-1.051 3-1.957 4.2-.899 1.198-2.055 2.198-3.457 3l20.168 61.5zM54.887 189a13.148 13.148 0 013.011-5.25c1.407-1.5 3.11-2.648 5.118-3.45l-4.215-60-19.867 61.2c1.207.797 2.308 1.848 3.312 3.148A8.817 8.817 0 0144.051 189h10.84zm9.633 78.898c1.207.403 2.257.903 3.164 1.504.902.598 1.754 1.399 2.558 2.399l20.77-8.7c-.2-.402-.301-.75-.301-1.05V261a12.573 12.573 0 011.055-5.098 9.29 9.29 0 013.16-3.902L69.64 204h-.606zm8.242 9.551c.125.317.187.633.187.95v1.203c0 .808-.101 1.613-.3 2.398-.2.8-.403 1.5-.602 2.102L127.742 324l.297-.3-22.875-50.7c-.402.2-.805.3-1.207.3h-1.203c-2.008 0-3.813-.448-5.418-1.35a15.54 15.54 0 01-4.215-3.45zm60.695 43.844c.3-.02.602-.066.906-.145a5.097 5.097 0 011.203-.148c.805 0 1.61.098 2.41.3.801.2 1.504.4 2.106.598l26.191-36 5.418-7.199c-.8-1-1.402-2-1.804-3a15.76 15.76 0 01-.903-3.3l-54.488-6.899h-.3c-.403 1-.907 1.953-1.508 2.852a9.082 9.082 0 01-2.106 2.25zm52.164-39.184a7.4 7.4 0 01-2.187.641c-1.598.2-3.22.2-4.817 0a4.878 4.878 0 01-2.11-.75l-31.609 43.5a7.415 7.415 0 011.508 2.25c.399.898.7 1.75.903 2.55h67.433c.2-.8.504-1.6.903-2.398.402-.8.902-1.601 1.507-2.402zm43.27 39.192l.601-1.801 21.98-48.898a22.37 22.37 0 01-2.109-2.403 11.717 11.717 0 01-1.504-2.699l-54.793 6.898c0 1.204-.25 2.301-.75 3.301a17.284 17.284 0 01-1.957 3l31.61 43.2a72.7 72.7 0 002.258-.598 8.202 8.202 0 012.257-.301c.399 0 .801.05 1.203.148.403.102.805.153 1.204.153zm5.722 2.699l60.809-44.098L268.93 268.5v.3a13.383 13.383 0 01-4.215 3.298c-1.606.8-3.41 1.203-5.418 1.203h-1.203c-.403 0-.703-.102-.903-.301l-22.277 49.2-.601 1.5v.3zm36.727-60.898l26.793 11.699-4.516-71.102h-.601L267.426 252a17.107 17.107 0 013.012 4.05c.8 1.5 1.203 3.15 1.203 4.95 0 .398-.051.75-.153 1.05-.105.34-.156.692-.148 1.052zm28.297-59.704l3.914 60.301 19.87-61.5a11.165 11.165 0 01-3.464-3c-.902-1.199-1.555-2.597-1.957-4.199h-10.535c-.402 2-1.305 3.7-2.711 5.098-1.402 1.402-3.11 2.504-5.117 3.3zm0 0"/></svg>