<svg xmlns="http://www.w3.org/2000/svg" viewBox="0 0 384 384"><path d="M157.254 190.473h39.875c33.648 0 33.648-13.403 33.648-24.172 0-24.188-17.34-24.188-24.742-24.188H34.938a159.71 159.71 0 00-.899 16.793c0 43.887 17.766 83.606 46.555 112.356l-.028.015 112.371 112.344 39.813-39.805zm0 0"/><path d="M351.832 158.91C351.832 71.137 280.684 0 192.934 0 128.91 0 73.89 37.938 48.723 92.488h157.312c51.371 0 74.371 37.075 74.371 73.813 0 33.879-16.734 57.762-46.226 68.082l35.62 72.383 35.493-35.489-.012-.011c28.778-28.75 46.551-68.473 46.551-112.356zm0 0"/></svg>