<?xml version="1.0" encoding="UTF-8" standalone="yes"?>
<svg xmlns="http://www.w3.org/2000/svg" xmlns:xlink="http://www.w3.org/1999/xlink" width="512px" height="512px" viewBox="0 0 384 384" version="1.1">
  <g id="surface1">
    <path style=" stroke:none;fill-rule:nonzero;fill:rgb(0%,0%,0%);fill-opacity:1;" d="M 153.648438 346.9375 C 84.097656 329.734375 32.523438 266.941406 32.523438 192.074219 C 32.523438 117.210938 84.09375 54.417969 153.648438 37.214844 L 153.648438 3.855469 C 65.980469 21.65625 0 99.160156 0 192.074219 C 0 284.988281 65.980469 362.496094 153.648438 380.296875 Z M 179.570312 33.054688 C 183.699219 32.738281 187.863281 32.523438 192.074219 32.523438 C 198.453125 32.523438 204.734375 32.90625 210.914062 33.632812 L 210.914062 0.929688 C 204.714844 0.324219 198.433594 0 192.074219 0 C 187.867188 0 183.707031 0.183594 179.566406 0.453125 L 179.566406 33.054688 Z M 179.570312 33.054688 "/>
    <path style=" stroke:none;fill-rule:nonzero;fill:rgb(0%,0%,0%);fill-opacity:1;" d="M 236.839844 5.300781 L 236.839844 38.917969 C 283.390625 52.511719 321.144531 86.726562 339.507812 131.035156 L 302.945312 131.035156 C 281.394531 91.980469 239.832031 65.519531 192.074219 65.519531 C 122.179688 65.519531 65.519531 122.183594 65.519531 192.074219 C 65.519531 261.964844 122.179688 318.628906 192.074219 318.628906 C 244.859375 318.628906 290.074219 286.308594 309.0625 240.386719 L 344.164062 240.386719 C 328.152344 290.820312 287.769531 330.390625 236.839844 345.257812 L 236.839844 378.847656 C 321.320312 358.671875 384.152344 282.730469 384.152344 192.074219 C 384.152344 101.421875 321.320312 25.476562 236.839844 5.300781 Z M 221.988281 274.324219 L 184.988281 221.769531 L 123.242188 221.769531 L 123.242188 189.480469 L 195.59375 189.480469 C 213.269531 189.480469 219.632812 178.40625 219.632812 165.203125 C 219.632812 152.007812 211.621094 139.988281 193.710938 139.988281 L 123.242188 139.988281 L 123.242188 109.824219 L 197.480469 109.824219 C 221.050781 109.824219 258.285156 120.195312 258.285156 164.027344 C 258.285156 207.863281 225.289062 216.585938 225.289062 216.585938 L 267.710938 274.324219 Z M 221.988281 274.324219 "/>
    <path style=" stroke:none;fill-rule:nonzero;fill:rgb(0%,0%,0%);fill-opacity:1;" d="M 210.914062 350.511719 C 204.660156 351.25 198.371094 351.625 192.074219 351.628906 C 187.863281 351.628906 183.699219 351.414062 179.566406 351.09375 L 179.566406 383.699219 C 183.707031 383.96875 187.867188 384.152344 192.074219 384.152344 C 198.433594 384.152344 204.714844 383.824219 210.914062 383.21875 Z M 210.914062 350.511719 "/>
  </g>
</svg>