<svg width="512" height="450" xmlns="http://www.w3.org/2000/svg">
  <path d="M217.962 3.257c19.776-3.74 40.036-3.306 60.046-2.303 23.069 2.748 46.182 7.677 67.404 17.354 42.334 17.796 78.63 49.242 102.876 88.173 9.142 13.536 15.275 28.717 21.455 43.754 5.713-9.267 10.836-18.89 15.802-28.576 2.142-4.564 6.63-8.103 11.86-7.87 7.031-.745 13.94 4.997 14.531 12.046.573 5.68-2.935 10.586-5.248 15.49-7.249 14.918-16.632 28.658-26.33 42.066-1.79 1.955-1.038 4.642-.823 7 10.79 64.698-9.749 133.566-53.51 182.292-24.884 28.373-57.098 50.12-92.509 63.113-40.89 14.529-85.924 17.804-128.227 7.638-61.305-13.49-115.56-54.56-146.405-109.073-6.737-11.036-11.038-23.3-16.363-35.019-5.806 9.081-10.747 18.658-15.71 28.205a14.963 14.963 0 0 1-12.357 8.382c-8.863.016-16.905-9.684-13.336-18.315 7.628-17.837 18.072-34.32 29.766-49.734 2.515-2.684 2.157-6.458 1.691-9.795-4.222-28.358-3.183-57.57 3.74-85.417C54.228 94.115 118.408 28.48 196.237 8.055c7.203-1.738 14.406-3.554 21.734-4.798h-.008zM163.037 50.77c-41.242 22.026-74.42 58.871-91.67 102.37-9.935 26.293-15.011 54.559-13.458 82.687a134.79 134.79 0 0 0 12.456-10.788c23.146-20.981 50.25-37.237 78.58-50.2 52.641-24.307 110.594-34.785 168.203-37.612-19.482-20.521-40.594-39.443-60.06-59.961 6.14-6.845 12.775-13.208 19.446-19.526 7.545 6.955 14.53 14.482 21.936 21.59 23.936 24.232 48.636 47.731 72.202 72.302-25.12 25.472-50.904 50.277-76.02 75.738a83.34 83.34 0 0 1-6.653 5.712c-6.332-6.474-13.691-12.154-18.753-19.728 15.447-16.453 33.008-30.874 47.849-47.902-26.563.374-53 4.191-79 9.421-21.005 3.838-41.196 11.036-61.351 17.911-42.258 16.066-81.222 41.707-110.918 75.966-1.771 1.77-1.523 4.393-1.04 6.627 3.509 15.304 10.123 29.633 17.4 43.463 23.952 43.912 65.34 77.828 112.922 93.137 27.818 8.7 57.5 12.044 86.451 7.963 40.285-5.118 78.809-22.957 108.682-50.463 43.388-38.852 67.732-98.053 63.968-156.185-4.565 3.616-8.662 7.746-12.947 11.658a310.764 310.764 0 0 1-98.731 58.3c-46.999 17.707-97.045 26.898-147.173 28.325 4.378 5.806 9.78 10.696 14.872 15.864 14.996 14.841 29.806 29.881 45.033 44.471-5.867 7.031-12.699 13.147-19.172 19.574-6.474-5.355-12.108-11.611-18.116-17.463-22.68-22.338-45.098-44.936-67.699-67.335-3.07-2.966-6.084-6.008-8.6-9.452 9.78-10.696 21.036-19.9 31.048-30.362 17.215-16.888 33.967-34.287 51.384-50.975 6.504 6.425 13.352 12.59 19.157 19.702-15.493 16.3-31.984 31.634-47.674 47.746 17.2.87 34.2-2.157 51.244-3.787 12.356-1.32 24.466-4.176 36.62-6.737 62.469-14.638 123.292-44.798 165.206-94.453C432.595 107.85 373.59 49.808 303.36 33.391c-46.773-12.082-97.77-5.204-140.322 17.38z"/>
</svg>
