<?xml version="1.0" encoding="UTF-8" standalone="yes"?>
<svg xmlns="http://www.w3.org/2000/svg" xmlns:xlink="http://www.w3.org/1999/xlink" width="512px" height="512px" viewBox="0 0 384 384" version="1.1">
  <g id="surface1">
    <path style=" stroke:none;fill-rule:nonzero;fill:rgb(0%,0%,0%);fill-opacity:1;" d="M 282.671875 96.59375 C 295.1875 109.109375 305.339844 122.8125 312.613281 133.46875 L 314.644531 133.46875 C 352.703125 133.46875 383.660156 104.375 383.660156 68.34375 C 383.660156 32.308594 352.875 3.214844 314.644531 3.214844 C 277.425781 3.214844 246.976562 31.125 245.792969 65.972656 C 255.773438 73.078125 269.476562 83.398438 282.671875 96.59375 Z M 117.90625 368.945312 C 130.425781 373.679688 143.449219 377.0625 156.984375 378.925781 L 142.097656 347.628906 Z M 209.085938 109.449219 L 198.9375 15.730469 C 193.691406 15.226562 188.277344 15.054688 182.695312 15.054688 C 118.921875 15.054688 62.929688 47.703125 30.109375 97.097656 L 58.867188 156.984375 Z M 144.464844 335.789062 L 226 263.726562 L 209.929688 116.890625 L 62.082031 163.75 Z M 144.464844 335.789062 "/>
    <path style=" stroke:none;fill-rule:nonzero;fill:rgb(0%,0%,0%);fill-opacity:1;" d="M 358.289062 146.496094 C 357.101562 142.773438 355.917969 138.882812 354.566406 135.160156 C 348.984375 138.207031 343.0625 140.742188 336.804688 142.433594 C 338.324219 145.480469 339.511719 147.847656 340.1875 149.539062 C 341.203125 151.738281 340.355469 154.277344 338.324219 155.628906 L 326.144531 164.089844 C 325.300781 164.765625 324.285156 164.933594 323.269531 164.933594 C 322.933594 164.933594 322.59375 164.933594 322.085938 164.765625 C 320.734375 164.425781 319.550781 163.582031 318.703125 162.394531 C 312.953125 152.246094 296.882812 126.363281 274.382812 103.867188 C 251.714844 81.199219 227.863281 65.972656 218.726562 60.558594 C 216.527344 59.375 215.683594 56.667969 216.527344 54.46875 L 221.097656 42.121094 C 221.605469 40.769531 222.617188 39.753906 223.972656 39.078125 C 225.324219 38.570312 226.679688 38.570312 228.03125 39.078125 C 230.398438 40.089844 233.613281 41.613281 237.675781 43.980469 C 239.875 37.722656 242.917969 31.972656 246.640625 26.558594 C 233.785156 21.820312 220.417969 18.4375 206.378906 16.578125 L 232.597656 257.804688 Z M 147.679688 342.554688 L 165.609375 379.941406 C 171.363281 380.449219 177.113281 380.785156 182.863281 380.785156 C 201.980469 380.785156 220.417969 377.910156 237.84375 372.328125 L 227.015625 272.351562 Z M 233.445312 266.601562 L 244.609375 369.960938 C 315.152344 344.585938 365.5625 277.089844 365.5625 197.921875 C 365.5625 182.863281 363.699219 168.148438 360.316406 154.277344 Z M 25.710938 104.375 C 13.027344 125.6875 4.566406 149.710938 1.351562 175.421875 L 51.933594 159.351562 Z M 55.148438 165.949219 L 0.675781 183.203125 C 0.339844 188.109375 0 193.015625 0 197.921875 C 0 273.199219 45.503906 337.820312 110.464844 365.898438 L 138.714844 340.863281 Z M 55.148438 165.949219 "/>
  </g>
</svg>