<?xml version="1.0" encoding="UTF-8" standalone="yes"?>
<svg xmlns="http://www.w3.org/2000/svg" xmlns:xlink="http://www.w3.org/1999/xlink" width="512px" height="512px" viewBox="0 0 384 384" version="1.1">
  <g id="surface1">
    <path style=" stroke:none;fill-rule:nonzero;fill:rgb(0%,0%,0%);fill-opacity:1;" d="M 155.121094 30.28125 C 155.121094 13.558594 141.566406 0 124.84375 0 C 108.117188 0 94.5625 13.558594 94.5625 30.28125 C 94.5625 47.003906 108.117188 60.558594 124.84375 60.558594 C 141.566406 60.558594 155.121094 47.003906 155.121094 30.28125 Z M 155.121094 30.28125 "/>
    <path style=" stroke:none;fill-rule:nonzero;fill:rgb(0%,0%,0%);fill-opacity:1;" d="M 289.4375 353.382812 C 289.4375 336.660156 275.882812 323.101562 259.15625 323.101562 C 242.433594 323.101562 228.878906 336.660156 228.878906 353.382812 C 228.878906 370.105469 242.433594 383.660156 259.15625 383.660156 C 275.882812 383.660156 289.4375 370.105469 289.4375 353.382812 Z M 289.4375 353.382812 "/>
    <path style=" stroke:none;fill-rule:nonzero;fill:rgb(0%,0%,0%);fill-opacity:1;" d="M 121.628906 163.582031 C 127.378906 163.582031 133.300781 161.71875 138.207031 158 L 278.273438 51.425781 C 290.285156 42.289062 292.652344 25.035156 283.515625 12.855469 C 274.382812 0.847656 257.128906 -1.523438 244.949219 7.613281 L 104.882812 114.183594 C 93.039062 123.488281 90.671875 140.742188 99.804688 152.753906 C 105.21875 159.859375 113.507812 163.582031 121.628906 163.582031 Z M 121.628906 272.691406 C 127.378906 272.691406 133.300781 270.828125 138.207031 267.109375 L 278.273438 160.535156 C 290.285156 151.402344 292.652344 134.144531 283.515625 121.964844 C 274.382812 109.957031 257.128906 107.585938 244.949219 116.722656 L 104.882812 223.296875 C 92.871094 232.429688 90.503906 249.683594 99.636719 261.863281 C 105.21875 268.96875 113.507812 272.691406 121.628906 272.691406 Z M 283.515625 233.105469 C 274.382812 221.097656 257.128906 218.726562 244.949219 227.863281 L 104.882812 334.433594 C 92.871094 343.570312 90.503906 360.824219 99.636719 373.003906 C 105.050781 380.109375 113.171875 383.832031 121.460938 383.832031 C 127.210938 383.832031 133.132812 381.96875 138.035156 378.25 L 278.105469 271.675781 C 290.453125 262.371094 292.820312 245.117188 283.515625 233.105469 Z M 283.515625 233.105469 "/>
  </g>
</svg>