<?xml version="1.0" encoding="UTF-8" standalone="yes"?>
<svg xmlns="http://www.w3.org/2000/svg" xmlns:xlink="http://www.w3.org/1999/xlink" width="512px" height="512px" viewBox="0 0 384 384" version="1.1">
  <g id="surface1">
    <path style=" stroke:none;fill-rule:nonzero;fill:rgb(0%,0%,0%);fill-opacity:1;" d="M 191.847656 90.90625 L 159.105469 146.089844 L 104.835938 90.90625 L 191.847656 323.957031 L 278.863281 90.90625 L 224.589844 146.089844 Z M 191.847656 90.90625 "/>
    <path style=" stroke:none;fill-rule:nonzero;fill:rgb(0%,0%,0%);fill-opacity:1;" d="M 191.847656 0 C 85.894531 0 0 85.894531 0 191.847656 C 0 297.804688 85.894531 383.695312 191.847656 383.695312 C 297.804688 383.695312 383.695312 297.808594 383.695312 191.847656 C 383.695312 85.894531 297.804688 0 191.847656 0 Z M 355.003906 220.984375 C 351.734375 239.320312 345.296875 257.417969 335.46875 274.496094 C 325.640625 291.570312 313.230469 306.230469 299.019531 318.273438 L 300.957031 330.78125 C 270.917969 354.410156 233.03125 368.496094 191.847656 368.496094 C 150.757812 368.496094 112.949219 354.46875 82.941406 330.941406 L 84.859375 318.433594 C 70.632812 306.410156 58.199219 291.765625 48.347656 274.707031 C 38.496094 257.636719 32.03125 239.550781 28.730469 221.214844 L 16.941406 216.625 C 15.785156 208.417969 15.203125 200.136719 15.199219 191.847656 C 15.199219 117.632812 60.972656 54.117188 125.824219 27.96875 L 135.722656 35.90625 C 153.25 29.59375 172.148438 26.148438 191.847656 26.148438 C 211.550781 26.148438 230.449219 29.59375 247.976562 35.90625 L 257.875 27.96875 C 322.726562 54.121094 368.496094 117.636719 368.496094 191.847656 C 368.496094 200.171875 367.910156 208.355469 366.796875 216.371094 Z M 355.003906 220.984375 "/>
  </g>
</svg>