<?xml version="1.0" encoding="UTF-8" standalone="yes"?>
<svg xmlns="http://www.w3.org/2000/svg" xmlns:xlink="http://www.w3.org/1999/xlink" width="512px" height="512px" viewBox="0 0 384 384" version="1.1">
  <g id="surface1">
    <path style=" stroke:none;fill-rule:nonzero;fill:rgb(0%,0%,0%);fill-opacity:1;" d="M 303.398438 157.59375 L 199.058594 157.59375 L 193.445312 154.789062 C 179.570312 147.796875 170.484375 143.59375 170.484375 134.265625 C 170.484375 124.464844 180.527344 119.332031 193.445312 119.332031 C 208.757812 119.332031 223.109375 128.195312 237.464844 142.203125 L 276.699219 103.464844 C 256.125 76.871094 225.984375 62.394531 192.96875 62.394531 C 144.164062 62.394531 110.671875 95.058594 110.671875 133.792969 C 110.671875 142.238281 112.296875 150.117188 115.28125 157.59375 L 80.222656 157.59375 L 80.222656 185.941406 L 135.9375 185.941406 C 141.457031 190.886719 147.917969 195.601562 155.238281 200.117188 L 80.222656 200.117188 L 80.222656 228.464844 L 208.003906 228.464844 C 216.703125 234.355469 221.675781 240.359375 221.675781 247.664062 C 221.675781 258.867188 209.234375 267.730469 193.445312 267.730469 C 176.703125 267.730469 155.167969 255.597656 140.332031 238.804688 L 101.105469 280.804688 C 123.113281 308.789062 153.257812 323.265625 190.09375 323.265625 C 245.597656 323.265625 281.480469 290.132812 281.480469 245.800781 C 281.480469 239.558594 280.601562 233.894531 279.332031 228.464844 L 303.402344 228.464844 L 303.402344 200.117188 L 264.910156 200.117188 C 260.558594 195.09375 255.152344 190.445312 249.160156 185.941406 L 303.398438 185.941406 Z M 303.398438 157.59375 "/>
    <path style=" stroke:none;fill-rule:nonzero;fill:rgb(0%,0%,0%);fill-opacity:1;" d="M 191.808594 0 C 86.046875 0 0 86.046875 0 191.808594 C 0 297.574219 86.046875 383.621094 191.8125 383.621094 C 297.578125 383.621094 383.625 297.574219 383.625 191.808594 C 383.625 86.046875 297.578125 0 191.808594 0 Z M 191.808594 345.019531 C 107.332031 345.019531 38.601562 276.296875 38.601562 191.8125 C 38.601562 107.332031 107.332031 38.605469 191.808594 38.605469 C 276.289062 38.605469 345.015625 107.332031 345.015625 191.8125 C 345.019531 276.296875 276.289062 345.019531 191.808594 345.019531 Z M 191.808594 345.019531 "/>
  </g>
</svg>