<?xml version="1.0" encoding="UTF-8" standalone="yes"?>
<svg xmlns="http://www.w3.org/2000/svg" xmlns:xlink="http://www.w3.org/1999/xlink" width="512px" height="512px" viewBox="0 0 384 384" version="1.1">
  <g id="surface1">
    <path style=" stroke:none;fill-rule:nonzero;fill:rgb(0%,0%,0%);fill-opacity:1;" d="M 361.054688 116.316406 C 361.050781 116.246094 361.039062 116.175781 361.039062 116.101562 C 361.023438 115.394531 360.941406 114.683594 360.800781 113.988281 L 360.796875 113.984375 C 360.484375 112.476562 359.875 111.042969 359.003906 109.773438 C 358.578125 109.152344 358.097656 108.574219 357.566406 108.042969 L 357.480469 107.960938 C 356.9375 107.429688 356.34375 106.953125 355.707031 106.539062 C 355.695312 106.527344 355.683594 106.519531 355.675781 106.507812 L 192.140625 0 L 27.960938 106.496094 L 27.964844 106.507812 C 24.597656 108.683594 22.5625 112.421875 22.566406 116.429688 L 22.566406 267.195312 C 22.566406 267.242188 22.574219 267.285156 22.574219 267.328125 C 22.574219 267.402344 22.582031 267.484375 22.582031 267.558594 C 22.605469 268.273438 22.679688 268.976562 22.824219 269.652344 L 22.835938 269.6875 C 23.148438 271.164062 23.746094 272.570312 24.59375 273.824219 C 24.609375 273.847656 24.628906 273.867188 24.640625 273.890625 C 25.0625 274.503906 25.539062 275.074219 26.066406 275.601562 C 26.101562 275.632812 26.136719 275.65625 26.167969 275.691406 C 26.707031 276.214844 27.296875 276.6875 27.925781 277.097656 C 27.941406 277.109375 27.949219 277.125 27.964844 277.132812 L 192.140625 383.621094 L 355.679688 277.121094 L 355.679688 277.117188 C 359.035156 274.933594 361.058594 271.199219 361.058594 267.195312 L 361.058594 116.433594 C 361.054688 116.394531 361.054688 116.355469 361.054688 116.316406 Z M 46.257812 135.242188 L 297.054688 255.351562 L 46.257812 255.351562 Z M 86.570312 128.28125 L 337.363281 128.28125 L 337.363281 248.390625 Z M 309.320312 104.589844 L 74.4375 104.589844 L 192.113281 28.253906 Z M 192.113281 355.363281 L 74.4375 279.042969 L 309.316406 279.042969 Z M 192.113281 355.363281 "/>
  </g>
</svg>