<svg xmlns="http://www.w3.org/2000/svg" viewBox="0 0 512 591">
  <path fill="#000" fill-rule="evenodd" d="M.002394 147.548181c1.85080432-.494304 20.5448737-11.887941 24.1008403-13.81402 8.0956745-4.384803 16.0959026-9.256611 24.0862015-13.828501l15.9006143-9.375959c2.7213993-1.557087 5.3271406-2.914215 8.0898268-4.548421l20.1258437-11.6167511c1.334758-.7636103 2.5298001-1.5376601 3.9038435-2.2683822l16.0827549-9.1937397c2.715944-1.5659172 5.285187-2.9598191 8.045558-4.5926508l7.825269-4.5191038c1.427261-.8165533 2.690159-1.544018 4.083159-2.3829415l7.969459-4.6689059c1.29037-.7780529 2.515554-1.508775 3.904824-2.2671264 1.529576-.8350774 2.577171-1.5116007 4.104744-2.3613954L252.08713 2.26241685c.623934-.37381859 3.521194-2.25860998 3.913498-2.25860998.98904 0 23.822468 13.43384323 28.272146 16.10865763l76.008524 43.9079667c15.841157 9.4992309 31.955859 18.3863412 47.981 27.5547671 2.715788 1.5538295 5.288798 3.1880349 7.935669 4.7025791 2.723715 1.5584605 5.279143 2.9815614 8.013729 4.6244794l80.021472 46.0672062c2.697342 1.614386 5.269842 2.907386 7.765694 4.578718v295.97045c-1.572942.366362-2.9015 1.4034-4.310943 2.155079-1.364703.727622-2.63443 1.506303-3.901685 2.270384l-87.840384 50.886542c-13.162967 7.912984-26.754697 15.077546-39.935796 22.961802l-44.12433 25.532889c-1.334444.805565-2.552798 1.581145-3.876371 2.295894l-7.84501 4.499363c-2.789374 1.560187-5.376473 3.062448-8.041515 4.596693l-48.085787 27.743894c-5.4979 2.995062-6.798671 5.660575-10.270651 3.309109l-21.959419-12.722509c-18.461929-11.092659-37.386373-21.291883-55.919455-32.254245l-28.100444-16.280516c-7.847914-4.749792-16.019216-9.009166-23.88067-13.740277-1.379342-.830093-2.499071-1.503987-3.893914-2.278194l-20.1381281-11.604467c-3.9145577-2.34711-7.8182834-4.851164-11.8932005-6.917273-1.5653285-.793594-2.5735987-1.513131-4.1126717-2.35331-1.4021435-.765494-2.5920836-1.530361-3.9217397-2.250526l-15.856227-9.126511c-2.6491866-1.525258-5.3218424-3.016647-8.0072139-4.630837L24.04672 457.094977c-2.1094358-1.268001-22.5437534-13.451543-24.044326-13.576346v-295.97045zm234.916749 13.686431h-69.1002v55.600855c0 .257847.842141 1.080405 1.038882 1.303911.192188.218326.374172.376684.585198.586297 1.604535 1.594253 3.044158 3.344469 4.633231 4.951242.274094.277155.330059.423151.582097.695754.792182.85678 1.604653 1.641937 2.398287 2.500444l1.728867 1.892012c.014168.016955.03383.041484.047998.058477l.510277.554664c1.613208 1.604418 3.110798 3.368724 4.686213 5.004813l2.341419 2.557233c.214912.213028.384926.365577.5872.584296l8.768862 9.441578c.014874.01613.036812.038814.051687.054866l3.955609 4.244381c.29046.287281.337751.387241.589515.688494l26.773849 28.709621c.271386.268522.314871.344266.542184.629232l2.915039 3.155107c1.810577 1.830632 3.471706 3.765031 5.27459 5.587813.274095.277156.330099.423151.582137.695833.202431.218914.373073.371189.587867.58351l2.28616 2.506135c.714985.722912 2.497148 2.53341 2.956641 3.219981-.315813.471855-.759725.74175-1.126205 1.216588-.636806.824991-3.583871 3.835712-4.5974 4.987152-.405804.460866-.827777.76832-1.197043 1.252342l-1.736088 1.884712c-.213303.249645-.401409.411691-.634491.643479l-2.288398 2.503858c-.405726.460866-.827778.768281-1.196965 1.252302-.357296.46848-.775973.808704-1.199948 1.249437l-2.286514 2.505743c-.220013.217501-.373976.360396-.588298.583196l-5.21474 5.647585c-1.63448 1.619998-3.061506 3.387797-4.684919 5.006108l-2.300014 2.49228c-.358081.449093-.813688.797441-1.196926 1.252303l-.144465.175037c-1.255442 1.502339-3.318371 3.357028-4.514512 4.857012l-.891709.918672c-.082221.088813-.066365.076333-.150783.168718-.014757.01617-.036107.039325-.050981.055494l-5.918068 6.328779c-.232612.278254-.263812.365263-.53563.635786-.222408.221386-.364989.363693-.587592.583784l-3.548039 3.800077c-.386338.500584-.719694.766907-1.127892 1.215019l-2.932308 3.137839c-.082927.092699-.083202.096584-.147055.172408-.014285.016876-.034419.041012-.048508.057966-.861372 1.030837-1.805985 1.936322-2.738628 2.90566l-4.35533 4.696613c-.072449.083006-.063657.074607-.146192.173311l-1.3003 1.361956c-.239087.258631-.276214.37998-.528958.642575l-1.209916 1.239469c-.014168.016875-.034302.041012-.048469.057966l-4.068285 4.344773c-.271386.268521-.31491.344227-.542223.62931-.188381.236183-.355177.378057-.574798.596579l-7.026926 7.562831c-.342343.339439-1.038293.82974-1.038293 1.411053v55.38771h69.1002v19.91835h36.094c.245327 0 .319385-.074136.319385-.319581v-19.598769h74.849746v-55.38771c0-.534296-1.903983-.319581-2.874734-.319581H243.224038l6.785367-7.48481c.2124-.220602.388143-.358708.587003-.584491l2.285101-2.507037c.23269-.27849.263145-.365499.53563-.635786 1.191039-1.181699 2.210612-2.546676 3.408127-3.72704.220837-.217541.387044-.360004.575347-.596109.227195-.284965.270484-.360985.542184-.629271l2.752522-2.998162c.014246-.016876.034418-.041012.048468-.057967l.193366-.232689c.081514-.095408.07127-.086106.148899-.170525l5.961082-6.498792c.12492-.131395.142463-.156042.249448-.283081 1.555517-1.846291 3.272021-3.555417 4.861918-5.361521.215814-.245052.416872-.397915.639357-.638572 1.331148-1.439192 2.570813-2.959741 3.937085-4.369498l2.805896-3.051262c1.478007-1.754181 3.134935-3.301652 4.616356-5.074632l6.811112-7.459182c.767967-.994887 3.318607-3.531555 4.272403-4.673027l4.812154-5.304849c1.075303-1.062547 2.480978-2.811351 3.406047-3.72912.460474-.456706.725267-.836451 1.172279-1.277066l6.869393-7.507376c.272485-.270288.302901-.357296.535591-.635786l2.871554-3.092236c.272172-.270012.303215-.359101.535709-.635707.234691-.279275.408394-.373348.607332-.670597-.470324-.702544-1.052147-1.275379-1.622392-1.891895l-13.685057-14.962045c-1.009565-1.019024-1.8521-2.185456-2.871123-3.199024-.212753-.211615-.392657-.365067-.586297-.58508l-7.609534-8.364667c-.082926-.092699-.08324-.096584-.147094-.172408l-21.255659-23.365487c-1.56105-1.621333-2.974104-3.420528-4.580563-5.00391l-8.321339-9.14374c-.979032-1.162115-2.066226-2.163125-3.049653-3.340114-.385357-.46118-.770086-.780957-1.112743-1.230167l-5.723605-6.310097c-.741161-.841828-1.650335-1.617212-2.261671-2.530585h102.958236v-56.133385h-74.636719c-.245366 0-.319502-.074136-.319502-.319581v-22.15506c-12.152146 0-24.162613-.213028-36.30691-.213028v23.113724z"/>
</svg>
