<svg xmlns="http://www.w3.org/2000/svg" viewBox="0 0 512 591"><path fill-rule="evenodd" d="M.002 147.548c1.851-.494 20.545-11.888 24.101-13.814 8.096-4.385 16.096-9.256 24.086-13.828l15.901-9.376c2.721-1.557 5.327-2.915 8.09-4.549l20.126-11.616c1.334-.764 2.53-1.538 3.904-2.269l16.082-9.194c2.716-1.566 5.286-2.96 8.046-4.592l7.825-4.52a203.62 203.62 0 004.083-2.382l7.97-4.67a101.98 101.98 0 013.905-2.266c1.53-.835 2.577-1.512 4.104-2.362L252.087 2.262c.624-.373 3.521-2.258 3.914-2.258.989 0 23.822 13.434 28.272 16.108L360.28 60.02c15.841 9.5 31.956 18.387 47.981 27.555 2.716 1.554 5.29 3.188 7.936 4.703 2.724 1.558 5.28 2.981 8.014 4.624l80.021 46.067c2.698 1.615 5.27 2.908 7.766 4.58v295.97c-1.573.366-2.902 1.403-4.311 2.155-1.365.727-2.635 1.506-3.902 2.27l-87.84 50.887c-13.163 7.913-26.755 15.077-39.936 22.961l-44.124 25.533c-1.335.806-2.553 1.581-3.877 2.296l-7.845 4.5c-2.789 1.56-5.376 3.062-8.041 4.596l-48.086 27.744c-5.498 2.995-6.799 5.66-10.27 3.31l-21.96-12.723c-18.462-11.093-37.386-21.292-55.92-32.254l-28.1-16.281c-7.848-4.75-16.02-9.01-23.88-13.74-1.38-.83-2.5-1.504-3.895-2.278L99.874 500.89c-3.914-2.347-7.818-4.851-11.893-6.917-1.565-.794-2.573-1.513-4.113-2.354-1.402-.765-2.592-1.53-3.921-2.25l-15.856-9.127c-2.65-1.525-5.322-3.016-8.008-4.63l-32.036-18.517c-2.11-1.268-22.544-13.452-24.045-13.576v-295.97zm234.917 13.687h-69.1v55.6c0 .258.842 1.08 1.039 1.304.192.219.374.377.585.587 1.605 1.594 3.044 3.344 4.633 4.95.274.278.33.424.582.697.793.856 1.605 1.642 2.399 2.5l1.729 1.892.048.059.51.554c1.613 1.605 3.11 3.369 4.686 5.005l2.341 2.557c.215.213.385.366.588.585l8.768 9.441.052.055 3.956 4.244c.29.288.338.388.59.689l26.773 28.71c.272.268.315.344.542.629l2.915 3.155c1.81 1.83 3.472 3.765 5.275 5.588.274.277.33.423.582.696.203.218.373.37.588.583l2.286 2.506c.715.723 2.497 2.534 2.957 3.22-.316.472-.76.742-1.126 1.217-.637.825-3.584 3.835-4.598 4.987-.406.46-.828.768-1.197 1.252l-1.736 1.885c-.213.25-.401.412-.634.643l-2.289 2.504c-.406.461-.828.769-1.197 1.253-.357.468-.776.808-1.2 1.249l-2.286 2.506c-.22.217-.374.36-.589.583l-5.214 5.648c-1.635 1.62-3.062 3.387-4.685 5.006l-2.3 2.492c-.358.449-.814.797-1.197 1.252l-.145.175c-1.255 1.503-3.318 3.357-4.514 4.857l-.892.919c-.082.089-.066.076-.15.169l-.052.055-5.918 6.329c-.232.278-.264.365-.535.636l-.588.584-3.548 3.8c-.386.5-.72.767-1.128 1.215l-2.932 3.137c-.083.093-.083.097-.147.173a9.504 9.504 0 00-.049.058c-.861 1.03-1.806 1.936-2.738 2.905l-4.356 4.697c-.072.083-.063.075-.146.173l-1.3 1.362c-.24.259-.276.38-.53.643l-1.21 1.24-.048.057-4.068 4.345c-.271.269-.315.344-.542.63-.188.236-.355.378-.575.596l-7.027 7.563c-.342.34-1.038.83-1.038 1.41v55.389h69.1v19.918h36.094c.245 0 .32-.074.32-.32v-19.598h74.85v-55.388c0-.534-1.905-.32-2.875-.32H243.224l6.785-7.484c.213-.221.389-.36.587-.585l2.286-2.507c.232-.278.263-.365.535-.636 1.191-1.181 2.21-2.546 3.408-3.727.221-.217.387-.36.576-.596.227-.285.27-.36.542-.63l2.752-2.997.049-.058.193-.233c.082-.095.071-.086.15-.17l5.96-6.5c.125-.13.143-.155.25-.282 1.555-1.847 3.272-3.556 4.861-5.362.216-.245.417-.398.64-.639 1.331-1.439 2.57-2.96 3.937-4.369l2.806-3.051c1.478-1.754 3.135-3.302 4.616-5.075l6.811-7.46c.768-.994 3.319-3.53 4.273-4.672l4.812-5.305c1.075-1.062 2.48-2.811 3.406-3.73.46-.456.725-.836 1.172-1.276l6.87-7.508c.272-.27.302-.357.535-.635l2.872-3.093c.272-.27.303-.359.535-.635.235-.28.409-.374.608-.67-.47-.703-1.052-1.276-1.623-1.893l-13.685-14.962c-1.01-1.019-1.852-2.185-2.87-3.199-.214-.211-.393-.365-.587-.585l-7.61-8.365c-.083-.092-.083-.096-.147-.172l-21.255-23.365c-1.561-1.622-2.974-3.421-4.581-5.004l-8.321-9.144c-.98-1.162-2.067-2.163-3.05-3.34-.385-.461-.77-.781-1.113-1.23l-5.723-6.31c-.741-.842-1.65-1.618-2.262-2.531h102.958v-56.133h-74.636c-.246 0-.32-.075-.32-.32v-22.155c-12.152 0-24.163-.213-36.307-.213v23.114z"/></svg>