<svg xmlns="http://www.w3.org/2000/svg" viewBox="0 0 512 512"><path d="M256 512C114.783 511.579 0 396.97 0 256 0 115.031 114.783.424 256 0c141.217.424 256 115.031 256 256 0 140.97-114.783 255.718-256 256zm227.02-215.261c-3.958 9.165-13.146 15.648-23.749 15.648-3.396 0-6.758-.672-9.893-1.973 9.046 9.446 14.701 22.132 14.701 36.089 0 4.084-.565 7.894-1.413 11.7a232.763 232.763 0 0020.355-61.464zm-23.749 2.539c7.105 0 12.865-5.744 12.865-12.828 0-7.087-5.76-12.83-12.865-12.83-7.103 0-12.863 5.743-12.863 12.83.026 7.07 5.765 12.798 12.856 12.828zm5.797-140.265a108.777 108.777 0 016.228 36.089 107.386 107.386 0 01-25.444 69.5c3.817-2.256 8.34-3.808 13.286-3.808 13.431 0 24.455 10.291 25.584 23.54 1.133-9.302 1.839-18.608 1.839-28.194a225.284 225.284 0 00-21.49-97.127zm-13.147 35.948c0-48.917-39.863-88.81-89.055-88.81-49.052 0-89.053 39.756-89.053 88.81 0 48.919 39.864 88.81 89.053 88.81 49.054 0 89.055-39.896 89.055-88.81zm-92.59 151.542c-.002-19.326 10.715-37.066 27.848-46.096a108.38 108.38 0 01-65.166-5.076 108.223 108.223 0 0137.318 53.148c.144-.847 0-1.413 0-1.976zm5.09 34.397a107.53 107.53 0 01-3.11 25.374c4.222-8.448 12.868-13.796 22.333-13.814a18.12 18.12 0 013.959.423 52.66 52.66 0 01-24.32-26.077 91.919 91.919 0 011.138 14.094zm47.215-1.55c18.235 0 33.078-14.806 33.078-32.845 0-18.185-14.848-32.847-33.078-32.847-18.231 0-32.938 14.809-32.938 32.847 0 18.181 14.844 32.843 32.95 32.843zm21.758-92.758a26.15 26.15 0 013.251-12.404 112.16 112.16 0 01-31.944 20.722c2.26-.282 4.522-.564 6.926-.564a51.99 51.99 0 0126.717 7.33 25.362 25.362 0 01-4.936-15.086zm-177.408-13.957a108.456 108.456 0 0140.704 7.894c-21.73-16.67-36.284-40.964-40.704-67.947-4.522 27.63-19.505 51.596-40.703 67.947 12.58-4.936 26.295-7.894 40.703-7.894zm0-143.647a51.895 51.895 0 01-27.846-8.034A106.887 106.887 0 01256 177.058a108.464 108.464 0 0127.848-56.107A51.901 51.901 0 01256 128.988zm52.871-52.724a52.616 52.616 0 01-11.308 32.563 107.756 107.756 0 0136.754-18.044c-.565 0-.991.14-1.412.14-10.887 0-20.224-6.765-24.032-16.351-.123.564.01 1.128.01 1.692zm40.145-31.146c5.795 4.792 9.612 11.84 9.612 19.878.014 10.204-6.035 19.447-15.406 23.54a113.141 113.141 0 0119.646-1.833c33.22 0 62.765 14.943 82.688 38.203a233.603 233.603 0 00-96.528-79.795zm-16.256 7.19c-7.105 0-12.865 5.743-12.865 12.828 0 7.085 5.76 12.829 12.865 12.829 7.106 0 12.863-5.744 12.863-12.829-.02-7.074-5.76-12.805-12.853-12.836zm-60.772-26.37c17.308 5.514 30.553 19.52 35.056 37.074.992-13.252 12.018-23.824 25.586-23.824.854.024 1.706.118 2.544.28-19.789-7.326-41.135-11.837-63.186-13.53zm-49.333 50.326c0 18.325 14.983 33.258 33.359 33.258s33.36-14.943 33.36-33.268c0-18.325-14.984-33.257-33.36-33.257s-33.36 14.942-33.36 33.267zm-45.942-36.793c.839-.163 1.69-.257 2.545-.28 13.568 0 24.596 10.43 25.584 23.824 4.504-17.555 17.75-31.562 35.058-37.077-22.053 1.693-43.258 6.204-63.187 13.533zm26.432 36.793a6.844 6.844 0 01.14-1.692c-3.816 9.586-13.145 16.352-24.03 16.352-.566 0-.99-.141-1.413-.141a109.045 109.045 0 0136.754 18.044 51.89 51.89 0 01-11.451-32.563zM166.38 65.128c0 7.085 5.759 12.83 12.864 12.83s12.864-5.745 12.864-12.83-5.76-12.828-12.864-12.828c-7.094.025-12.84 5.754-12.864 12.828zm-99.94 59.91c19.932-23.4 49.474-38.202 82.688-38.202 6.59.031 13.166.645 19.648 1.833a25.591 25.591 0 01-15.183-20.078 25.549 25.549 0 019.387-23.34c-39.01 17.2-72.51 45.11-96.54 79.788zm-6.362 69.923c0 48.919 39.864 88.81 89.055 88.81 49.052 0 89.054-39.754 89.054-88.81 0-48.917-39.864-88.81-89.054-88.81-49.052.139-89.055 39.893-89.055 88.81zm92.59 151.542c0 .563-.14 1.275-.14 1.832a108.858 108.858 0 0137.319-53.144 108.373 108.373 0 01-65.175 5.074c16.686 8.88 27.996 26.219 27.996 46.238zM78.592 286.59a24.582 24.582 0 01-5.09 15.083 51.974 51.974 0 0126.722-7.317c2.322-.028 4.641.16 6.927.563a106.435 106.435 0 01-31.948-20.731 24.33 24.33 0 013.389 12.402zm-11.308 59.913c0 18.183 14.848 32.845 32.937 32.845 18.235 0 32.937-14.806 32.937-32.845 0-18.185-14.848-32.847-32.937-32.847-18.091-.14-32.934 14.655-32.934 32.847zm56.968 46.378c1.28-.14 2.545-.424 3.958-.424 9.466.019 18.111 5.365 22.333 13.815a107.537 107.537 0 01-3.107-25.372c.043-4.762.374-9.516.99-14.238a52.059 52.059 0 01-24.171 26.219zM27.136 284.195c1.132-13.11 12.157-23.54 25.585-23.54a25.592 25.592 0 0113.289 3.805 107.386 107.386 0 01-25.444-69.499c0-12.688 2.26-24.669 6.22-36.088C32.935 188.336 25.3 221.323 25.3 256c.035 9.428.648 18.842 1.836 28.195zm25.6-10.43c-7.105 0-12.864 5.743-12.864 12.827s5.76 12.828 12.864 12.828S65.6 293.676 65.6 286.592c-.025-7.075-5.77-12.802-12.864-12.828zm-4.805 72.74a51.582 51.582 0 0114.702-36.089 25.29 25.29 0 01-9.894 1.974c-10.601 0-19.792-6.484-23.75-15.646 3.958 21.7 10.752 42.288 20.355 61.46-.858-3.807-1.423-7.614-1.423-11.701zm66.155 50.325c-4.382 1.278-9.047 1.834-13.852 1.834-13.711 0-26.15-5.362-35.481-13.957a232.818 232.818 0 0044.103 48.634c-3.532-4.371-5.796-9.726-5.796-15.786a25.05 25.05 0 0111.016-20.727zm1.98 20.725c0 6.695 5.442 12.122 12.157 12.122s12.157-5.427 12.157-12.122c0-6.698-5.443-12.125-12.157-12.125-6.697.044-12.118 5.443-12.168 12.12zm108.702 66.958c-33.651-10.2-60.29-35.98-71.526-69.216 0 .705.281 1.408.281 2.253a24.959 24.959 0 01-11.734 21.274 25.105 25.105 0 01-24.313 1.282c30.669 23.119 67.42 38.907 107.292 44.407zM344.913 380.9c0-48.917-39.863-88.669-88.913-88.809-49.052 0-88.914 39.755-88.914 88.81 0 49.056 39.862 88.668 88.914 88.81 49.052-.142 88.913-39.896 88.913-88.81zm49.76 59.208a25.106 25.106 0 01-24.313-1.282 24.956 24.956 0 01-11.734-21.271c.023-.76.118-1.515.281-2.256-11.236 33.236-37.876 59.015-71.526 69.216 39.722-5.502 76.474-21.29 107.292-44.41zm1.28-22.553c0-6.698-5.444-12.125-12.158-12.125s-12.157 5.427-12.157 12.125c0 6.695 5.443 12.122 12.157 12.122 6.691-.053 12.102-5.452 12.15-12.127zm51.305-32.85c-9.328 8.597-21.76 13.957-35.482 13.957a55.667 55.667 0 01-13.852-1.834 25.052 25.052 0 0111.027 20.722c0 6.063-2.262 11.42-5.798 15.788a232.814 232.814 0 0044.105-48.633z"/></svg>