<?xml version="1.0" encoding="UTF-8" standalone="yes"?>
<svg xmlns="http://www.w3.org/2000/svg" xmlns:xlink="http://www.w3.org/1999/xlink" width="500px" height="510.66666666666663px" viewBox="0 0 375 383" version="1.1">
  <g id="surface1">
    <path style=" stroke:none;fill-rule:evenodd;fill:rgb(0%,0%,0%);fill-opacity:1;" d="M 124.332031 168.359375 C 117.9375 168.359375 111.40625 168.691406 104.742188 169.359375 C 98.082031 170.023438 91.550781 170.753906 85.15625 171.550781 C 87.820312 147.347656 94.617188 124.742188 105.542969 103.730469 C 116.472656 82.71875 130.398438 64.566406 147.320312 49.269531 C 164.246094 33.976562 183.636719 21.941406 205.492188 13.164062 C 227.078125 4.386719 250.132812 0 274.652344 0 C 289.578125 0 303.171875 1.863281 315.433594 5.585938 C 327.957031 9.308594 338.621094 14.828125 347.414062 22.140625 C 356.210938 29.457031 363.007812 38.832031 367.804688 50.269531 C 372.601562 61.441406 375 74.472656 375 89.367188 C 375 104.261719 372.070312 117.292969 366.203125 128.464844 C 360.339844 139.636719 352.078125 148.945312 341.417969 156.390625 C 330.757812 163.839844 318.097656 169.425781 303.4375 173.148438 C 288.777344 176.871094 272.519531 178.734375 254.664062 178.734375 C 228.542969 178.734375 206.824219 177.003906 189.5 173.546875 C 172.175781 170.089844 150.453125 168.359375 124.332031 168.359375 Z M 120.335938 204.265625 C 102.480469 204.265625 86.085938 206.128906 71.160156 209.851562 C 56.503906 213.574219 43.910156 219.09375 33.382812 226.410156 C 22.855469 233.722656 14.660156 243.097656 8.796875 254.535156 C 2.929688 265.707031 0 278.738281 0 293.632812 C 0 308.527344 2.398438 321.558594 7.195312 332.730469 C 11.992188 343.902344 18.789062 353.210938 27.585938 360.660156 C 36.378906 368.105469 47.042969 373.691406 59.566406 377.414062 C 71.828125 381.136719 85.421875 383 100.347656 383 C 124.867188 383 147.921875 378.613281 169.507812 369.835938 C 191.363281 361.058594 210.753906 349.023438 227.679688 333.730469 C 244.601562 318.433594 258.527344 300.28125 269.457031 279.269531 C 280.382812 258.257812 287.179688 235.652344 289.84375 211.449219 C 283.449219 212.511719 276.917969 213.308594 270.257812 213.839844 C 263.59375 214.375 257.0625 214.640625 250.667969 214.640625 C 224.546875 214.640625 202.824219 212.910156 185.5 209.453125 C 168.175781 205.996094 146.457031 204.265625 120.335938 204.265625 Z M 120.335938 204.265625 "/>
  </g>
</svg>