<?xml version="1.0" encoding="UTF-8" standalone="yes"?>
<svg xmlns="http://www.w3.org/2000/svg" xmlns:xlink="http://www.w3.org/1999/xlink" width="512px" height="512px" viewBox="0 0 384 384" version="1.1">
  <g id="surface1">
    <path style=" stroke:none;fill-rule:nonzero;fill:rgb(0%,0%,0%);fill-opacity:1;" d="M 248.363281 124.789062 C 247.511719 124.0625 245.976562 123.167969 243.746094 122.09375 C 241.519531 121.027344 238.824219 120.054688 235.660156 119.171875 C 232.496094 118.292969 228.984375 117.574219 225.132812 116.996094 C 224.484375 116.898438 223.792969 116.859375 223.132812 116.785156 L 224.324219 100.117188 C 224.433594 98.238281 223.789062 96.398438 222.535156 94.996094 C 221.285156 93.59375 219.527344 92.746094 217.648438 92.640625 C 213.769531 92.414062 210.394531 95.40625 210.167969 99.316406 L 208.964844 116.265625 C 205.148438 116.402344 201.34375 116.78125 197.574219 117.402344 L 198.8125 100.117188 C 199.03125 96.210938 196.042969 92.863281 192.136719 92.644531 C 188.230469 92.429688 184.886719 95.414062 184.660156 99.320312 L 183.089844 121.257812 C 177.445312 123.40625 172.445312 126.09375 168.132812 129.367188 C 162.652344 133.535156 158.378906 138.515625 155.292969 144.316406 C 152.214844 150.117188 150.675781 156.464844 150.675781 163.339844 C 150.675781 168.296875 151.445312 172.652344 152.984375 176.390625 C 154.523438 180.140625 156.558594 183.445312 159.082031 186.300781 C 161.609375 189.171875 164.5 191.695312 167.6875 193.808594 C 170.871094 195.933594 174.148438 197.921875 177.507812 199.761719 C 180.746094 201.546875 184.019531 203.269531 187.324219 204.925781 C 190.53125 206.515625 193.398438 208.222656 195.921875 210.015625 C 198.445312 211.808594 200.480469 213.78125 202.019531 215.917969 C 203.5625 218.058594 204.335938 220.539062 204.335938 223.363281 C 204.335938 226.492188 203.667969 229.375 202.339844 232.011719 C 201.015625 234.644531 199.066406 236.957031 196.503906 238.945312 C 193.933594 240.929688 190.742188 242.492188 186.941406 243.640625 C 183.132812 244.785156 178.699219 245.355469 173.652344 245.355469 C 167.917969 245.355469 162.996094 244.742188 158.886719 243.519531 C 154.777344 242.300781 151.226562 240.984375 148.230469 239.570312 C 145.234375 238.160156 142.730469 236.863281 140.722656 235.679688 C 138.710938 234.492188 136.976562 233.898438 135.527344 233.898438 C 134.667969 233.898438 133.875 234.289062 133.148438 235.046875 C 132.421875 235.8125 131.753906 236.804688 131.164062 238.027344 C 130.558594 239.246094 130.042969 240.605469 129.617188 242.09375 C 129.203125 243.53125 128.839844 244.984375 128.523438 246.445312 C 128.226562 247.847656 127.992188 249.171875 127.820312 250.394531 C 127.652344 251.621094 127.5625 252.535156 127.5625 253.144531 C 127.5625 255.441406 128.160156 257.15625 129.359375 258.304688 C 130.554688 259.445312 132.394531 260.652344 134.878906 261.910156 C 137.363281 263.167969 140.425781 264.371094 144.058594 265.519531 C 146.71875 266.355469 149.765625 267.074219 152.996094 267.726562 L 151.746094 285.234375 C 151.632812 287.214844 152.359375 289.152344 153.742188 290.574219 C 155.125 292 157.039062 292.777344 159.023438 292.71875 C 162.703125 292.617188 165.6875 289.710938 165.894531 286.039062 L 167.082031 269.464844 C 168.703125 269.539062 170.277344 269.648438 171.980469 269.648438 C 174.160156 269.648438 176.28125 269.558594 178.386719 269.4375 L 177.261719 285.234375 C 177.050781 287.800781 178.25 290.277344 180.390625 291.707031 C 182.53125 293.136719 185.28125 293.292969 187.570312 292.113281 C 189.855469 290.9375 191.328125 288.609375 191.410156 286.039062 L 192.730469 267.59375 C 195.191406 267.089844 197.625 266.472656 200.03125 265.746094 C 208.453125 263.160156 215.644531 259.578125 221.59375 255.039062 C 227.542969 250.496094 232.140625 245.15625 235.398438 239 C 238.648438 232.855469 240.273438 226.191406 240.273438 219.011719 C 240.273438 214.199219 239.503906 209.941406 237.964844 206.242188 C 236.425781 202.535156 234.363281 199.25 231.800781 196.394531 C 229.207031 193.503906 226.25 190.957031 223.003906 188.820312 C 219.753906 186.675781 216.417969 184.671875 212.996094 182.8125 C 209.679688 181.015625 206.335938 179.261719 202.976562 177.546875 C 199.683594 175.871094 196.753906 174.132812 194.1875 172.332031 C 191.621094 170.539062 189.5625 168.589844 188.019531 166.492188 C 186.484375 164.382812 185.714844 161.960938 185.714844 159.210938 C 185.714844 156.851562 186.203125 154.503906 187.191406 152.167969 C 188.171875 149.84375 189.691406 147.738281 191.746094 145.871094 C 193.800781 143.996094 196.433594 142.488281 199.644531 141.34375 C 202.851562 140.195312 206.765625 139.625 211.386719 139.625 C 215.839844 139.625 219.816406 140.101562 223.328125 141.050781 C 226.835938 142.007812 229.894531 143.046875 232.507812 144.152344 C 235.117188 145.253906 237.320312 146.289062 239.117188 147.246094 C 240.914062 148.195312 242.410156 148.667969 243.613281 148.667969 C 244.382812 148.667969 245.105469 148.289062 245.789062 147.527344 C 246.476562 146.765625 247.097656 145.789062 247.65625 144.605469 C 248.207031 143.421875 248.679688 142.128906 249.0625 140.710938 C 249.78125 138.101562 250.300781 135.441406 250.609375 132.753906 C 250.734375 131.605469 250.800781 130.730469 250.800781 130.113281 C 250.800781 128.890625 250.609375 127.878906 250.222656 127.070312 C 249.84375 126.273438 249.222656 125.511719 248.363281 124.789062 Z M 248.363281 124.789062 "/>
    <path style=" stroke:none;fill-rule:nonzero;fill:rgb(0%,0%,0%);fill-opacity:1;" d="M 191.8125 0 C 85.878906 0 0 85.878906 0 191.808594 C 0 297.746094 85.878906 383.621094 191.8125 383.621094 C 297.746094 383.621094 383.621094 297.746094 383.621094 191.808594 C 383.621094 85.878906 297.746094 0 191.8125 0 Z M 191.808594 337.351562 C 111.429688 337.351562 46.273438 272.1875 46.273438 191.816406 C 46.273438 111.4375 111.433594 46.273438 191.808594 46.273438 C 272.195312 46.273438 337.347656 111.4375 337.347656 191.816406 C 337.351562 272.1875 272.195312 337.351562 191.808594 337.351562 Z M 191.808594 337.351562 "/>
  </g>
</svg>