<svg xmlns="http://www.w3.org/2000/svg" viewBox="0 0 341 383"><path fill-rule="evenodd" d="M325.441 244.07c-.8-.53-1.398-1.062-1.796-1.593-.399-.532-.598-1.461-.598-2.793v-98.079c0-1.066.2-1.93.598-2.593.398-.664.996-1.262 1.796-1.793 5.051-2.926 8.91-6.645 11.57-11.164 2.657-4.52 3.989-9.836 3.989-15.95 0-.796-.066-1.66-.2-2.59-.132-.93-.331-1.93-.597-2.992-2.129-10.632-7.98-18.074-17.555-22.328-9.578-4.25-19.02-3.586-28.328 1.996-1.066.532-1.93.797-2.593.797-.668 0-1.532-.265-2.594-.797a12054.001 12054.001 0 01-41.297-23.921 3830.32 3830.32 0 00-41.691-23.922c-1.598-1.067-2.727-2.063-3.395-2.993-.664-.93-.996-2.324-.996-4.187 0-.797-.066-1.461-.2-1.992a7.761 7.761 0 00-.597-1.594c-.8-7.176-4.125-13.227-9.977-18.14-5.851-4.919-12.234-7.38-19.148-7.38-9.047-.53-16.758 2.262-23.144 8.376-6.383 6.113-9.575 13.687-9.575 22.726 0 1.063-.199 1.926-.597 2.59-.399.664-1 1.262-1.797 1.793a16626.975 16626.975 0 01-42.89 24.523 16625.942 16625.942 0 00-42.891 24.52c-.532.531-1.13.797-1.797.797-.664 0-1.262-.266-1.793-.797-3.192-1.86-6.52-3.125-9.977-3.79-3.457-.663-7.047-.862-10.773-.597-6.649 1.063-12.301 3.79-16.957 8.172C4.988 92.762 1.996 98.41.664 105.32-.664 111.97 0 118.148 2.66 123.863s7.047 10.297 13.168 13.754c1.063.797 1.793 1.461 2.192 1.992.398.532.597 1.332.597 2.395v98.48c0 1.328-.199 2.258-.597 2.79-.399.53-1.13 1.062-2.192 1.593-6.121 3.457-10.375 8.043-12.77 13.758C.665 264.34 0 270.652 1.064 277.563 3.19 287.93 9.108 295.305 18.82 299.69c9.707 4.387 19.348 3.786 28.926-1.796.797-.266 1.527-.399 2.195-.399.664 0 1.395.133 2.192.399a11625.36 11625.36 0 0142.89 24.722 2759.852 2759.852 0 0042.891 24.32c.535.266 1 .731 1.399 1.395.398.664.597 1.527.597 2.594v3.586l.399 3.988c1.597 7.973 5.652 14.219 12.171 18.738 6.516 4.52 13.762 6.38 21.743 5.582 7.714-.797 14.23-4.254 19.55-10.367 5.32-6.113 7.98-13.156 7.98-21.129 0-1.332.2-2.262.599-2.793.398-.531 1-1.062 1.796-1.594a3462.04 3462.04 0 0042.293-24.32 7685.424 7685.424 0 0141.895-24.32c1.062-.535 1.992-.8 2.789-.8.8 0 1.598.265 2.395.8 3.19 2.125 6.652 3.453 10.375 3.984 3.722.531 7.312.531 10.773 0 6.383-1.328 11.902-4.32 16.559-8.969 4.652-4.652 7.378-9.902 8.175-15.75 1.598-7.175 1.133-13.753-1.394-19.734-2.528-5.98-6.715-10.566-12.567-13.758zm-12.77 51.832c-7.714 1.063-14.296-1.062-19.75-6.379-5.452-5.316-8.179-11.695-8.179-19.136 0-1.328-.199-2.328-.597-2.992-.399-.665-1.262-1.395-2.594-2.192-6.778-3.793-13.563-7.582-20.348-11.363a564.276 564.276 0 01-20.746-12.16 3.982 3.982 0 00-1.797-.399c-.664 0-1.262.133-1.797.399-5.05 3.187-10.304 4.984-15.758 5.382-5.453.399-10.84-.597-16.16-2.992-1.062-.265-2.062-.398-2.992-.398-.93 0-2.062.133-3.39.398a95.915 95.915 0 01-7.782 1.996 73.49 73.49 0 01-7.781 1.196c-.797.531-1.527.93-2.191 1.195-.668.266-1 .93-1 1.992v75.356c0 1.066.199 1.797.597 2.195.403.398 1.133.73 2.196.996 5.32 2.922 9.043 6.777 11.171 11.563 2.13 4.785 2.793 9.3 1.997 13.554-.797 5.848-3.06 10.766-6.786 14.754-3.722 3.985-8.375 6.512-13.96 7.574-6.919 1.063-13.235-.53-18.954-4.785-5.718-4.254-9.242-9.703-10.574-16.347-1.062-5.848-.2-11.23 2.594-16.145 2.793-4.918 6.45-8.441 10.972-10.566.797-.532 1.262-1.063 1.395-1.598.137-.531.203-1.328.203-2.39v-77.348c0-.797-.137-1.528-.402-2.196-.266-.664-.93-1.129-1.992-1.394l-4.79-2.39-4.788-1.997c-.532-.531-1.13-.797-1.793-.797h-2.196c-5.32 1.598-10.64 2.196-15.96 1.797-5.321-.402-10.637-1.797-15.958-4.187-.8-.532-1.531-.797-2.195-.797-.664 0-1.398.265-2.195.797l-24.739 14.351-25.132 14.356a10.161 10.161 0 00-2.196 1.992c-.664.797-1 1.726-1 2.793 0 7.176-2.39 13.223-7.18 18.14-4.789 4.918-10.64 7.375-17.554 7.375-7.98 0-14.297-2.789-18.953-8.37-4.657-5.583-6.848-11.696-6.582-18.344.265-5.582 2.726-11.032 7.379-16.344 4.656-5.317 10.972-7.977 18.953-7.977 2.394 0 4.656.465 6.781 1.395a50.063 50.063 0 016.387 3.39c.265.266.797.399 1.593.399.801 0 1.332-.133 1.598-.399a3553.966 3553.966 0 0123.34-13.554 3554.554 3554.554 0 0023.34-13.559l.398-.199.403-.2c-6.387-10.898-9.047-21.327-7.98-31.296 1.062-9.969 5.983-19.602 14.76-28.906a20.617 20.617 0 01-3.788-1.993 95.28 95.28 0 00-3.793-2.394 1402.868 1402.868 0 00-22.942-13.156 3368.95 3368.95 0 01-22.543-12.758c-.796-.797-1.527-1.13-2.195-.996-.664.133-1.394.465-2.191.996-7.715 4.785-15.696 5.316-23.942 1.594-8.246-3.723-13.031-10.102-14.363-19.137-1.328-6.91.133-13.156 4.39-18.738 4.255-5.582 9.84-9.04 16.758-10.368 7.446-1.328 13.832.133 19.149 4.387 5.32 4.25 8.512 9.567 9.578 15.945 0 .532.133 1.13.398 1.797a5.85 5.85 0 01.399 2.192c-.531 1.593-.465 2.922.2 3.988.663 1.063 1.796 1.992 3.39 2.79a4931.848 4931.848 0 0130.523 17.343 8843.1 8843.1 0 0130.125 17.344 7.52 7.52 0 002.39.398h4.79c3.457 0 6.45-.598 8.976-1.793 2.528-1.195 4.989-2.727 7.383-4.586 2.395-1.86 4.856-3.39 7.38-4.586a126.293 126.293 0 007.382-3.785c1.062-.266 1.797-.602 2.195-1 .399-.398.598-1.262.598-2.59V54.29c0-1.062-.266-1.863-.797-2.394-.531-.532-1.2-1.063-1.996-1.594-5.055-1.594-8.711-4.52-10.973-8.774-2.261-4.25-3.258-8.504-2.992-12.757.531-5.848 2.328-10.633 5.387-14.352 3.058-3.723 7.383-6.379 12.969-7.977 6.117-2.125 12.035-1.793 17.753 1 5.72 2.79 9.907 7.11 12.567 12.957 2.394 5.582 2.594 11.43.601 17.543-1.996 6.114-5.652 10.633-10.972 13.555-1.598 1.063-2.66 2.129-3.192 3.191-.535 1.063-.8 2.391-.8 3.985v70.172c0 2.129.199 3.39.597 3.789.403.398 1.797.863 4.192 1.394 6.382.797 12.367 2.461 17.953 4.985 5.586 2.527 10.64 6.18 15.164 10.965.531.53 1.129.93 1.793 1.195.668.266 1.531 0 2.594-.797a2411.17 2411.17 0 0029.726-17.145 1346.01 1346.01 0 0130.121-17.144c1.067-.797 1.797-1.527 2.196-2.191a4.18 4.18 0 00.597-2.192c0-6.383 1.797-11.965 5.387-16.746 3.59-4.785 8.578-7.71 14.96-8.773 7.45-1.594 14.165-.133 20.15 4.386 5.988 4.52 9.245 10.5 9.777 17.942.796 6.644-.93 12.558-5.188 17.742-4.254 5.183-9.574 8.305-15.96 9.371-3.192.797-6.317.863-9.376.2-3.058-.665-6.05-1.93-8.976-3.79-.532-.797-1.196-1.195-1.996-1.195-.797 0-1.594.398-2.395 1.195a7456.371 7456.371 0 00-29.723 16.945 8567.643 8567.643 0 01-29.722 16.946c-1.067.531-1.73 1.062-1.996 1.594-.266.53 0 1.46.796 2.792.532 1.329 2.329 4.516 5.387 9.567 3.059 5.05 5.121 7.976 6.184 8.773 4.789 5.051 7.847 10.5 9.176 16.348 1.332 5.844.933 12.094-1.196 18.738-.265 1.063-.332 1.926-.199 2.59.133.664.73 1.262 1.797 1.793a408.037 408.037 0 0019.348 11.363 932.552 932.552 0 0119.351 10.965c1.067.797 1.93 1.13 2.594 1 .664-.133 1.265-.469 1.797-1 7.71-4.785 15.558-5.449 23.539-1.992 7.98 3.457 12.902 9.438 14.762 17.941 2.66 6.91 1.796 13.422-2.594 19.536-4.387 6.117-10.305 9.437-17.754 9.968zM226.095 189.45c-1.598-1.062-2.793-2.129-3.594-3.191-.797-1.063-1.328-2.39-1.594-3.985-1.597-8.242-4.922-15.152-9.976-20.734-5.055-5.582-11.57-9.703-19.551-12.36-8.246-2.656-16.024-3.124-23.34-1.394-7.312 1.727-14.164 5.649-20.547 11.762-1.597 1.062-2.992 1.926-4.191 2.59-1.196.664-2.86.996-4.985.996-10.64-.531-19.55 3.523-26.734 12.16-7.18 8.64-9.309 18.277-6.383 28.906 2.395 9.04 7.848 15.883 16.36 20.535 8.511 4.653 17.289 5.383 26.332 2.192 1.062-.266 2.062-.399 2.992-.399.93 0 1.93.399 2.992 1.196 6.648 3.988 13.434 6.316 20.348 6.98 6.918.664 13.964-.601 21.148-3.789 1.328-.266 2.395-.531 3.191-.797.797-.265 1.864 0 3.192.797 2.394 1.594 4.922 2.59 7.582 2.988 2.66.403 5.453.2 8.379-.597 5.05-.797 9.375-3.055 12.965-6.778 3.59-3.718 5.785-8.238 6.586-13.554.797-4.254.132-8.641-1.996-13.157-2.13-4.52-5.188-7.976-9.176-10.367zm84.183 74.559c-1.863 0-3.523.664-4.988 1.992-1.46 1.328-2.191 3.059-2.191 5.184 0 1.859.73 3.453 2.191 4.785 1.465 1.328 3.125 1.992 4.988 1.992 1.864 0 3.457-.73 4.79-2.191 1.328-1.465 1.995-2.993 1.995-4.586 0-2.125-.667-3.856-1.996-5.184-1.332-1.328-2.925-1.992-4.789-1.992zM171.031 37.543c1.864 0 3.524-.664 4.989-1.996 1.46-1.328 2.195-3.055 2.195-5.18 0-1.863-.735-3.457-2.195-4.785-1.465-1.332-3.125-1.996-4.989-1.996-1.863 0-3.523.664-4.988 1.996-1.461 1.328-2.191 2.922-2.191 4.785 0 2.125.73 3.852 2.191 5.18 1.465 1.332 3.125 1.996 4.988 1.996zM31.785 264.008c-1.86 0-3.59.664-5.187 1.992-1.594 1.328-2.395 3.059-2.395 5.184 0 1.859.668 3.52 1.996 4.984 1.332 1.46 3.059 2.324 5.188 2.59 1.863 0 3.457-.73 4.789-2.192 1.328-1.46 1.992-3.125 1.992-4.984.27-2.39-.133-4.254-1.195-5.582-1.063-1.328-2.793-1.992-5.188-1.992zm139.246 79.738c-1.863 0-3.523.664-4.988 1.996-1.461 1.328-2.191 3.055-2.191 5.184 0 1.86.73 3.453 2.191 4.781 1.465 1.332 3.125 1.996 4.988 1.996 1.864 0 3.524-.664 4.989-1.996 1.46-1.328 2.195-2.922 2.195-4.781 0-2.13-.735-3.856-2.195-5.184-1.465-1.332-3.125-1.996-4.989-1.996zM31.785 103.328c-1.86 0-3.457.664-4.789 1.992-1.328 1.332-1.992 2.926-1.992 4.785 0 2.13.664 3.856 1.992 5.184 1.332 1.328 3.195 1.992 5.586 1.992 2.129 0 3.793-.664 4.988-1.992 1.2-1.328 1.797-3.055 1.797-5.184-.265-1.859-1.133-3.453-2.594-4.785-1.464-1.328-3.125-1.992-4.988-1.992zm278.492 13.953c1.864 0 3.524-.664 4.989-1.992 1.46-1.328 2.328-3.055 2.593-5.184 0-1.859-.664-3.453-1.996-4.785-1.328-1.328-3.058-1.992-5.187-1.992-2.125 0-3.79.598-4.985 1.793-1.199 1.2-1.796 2.86-1.796 4.984-.266 2.395.132 4.188 1.195 5.383 1.066 1.196 2.793 1.793 5.187 1.793zm0 0"/></svg>