<svg xmlns="http://www.w3.org/2000/svg" viewBox="0 0 384 384"><path d="M98.148 301.715a5.195 5.195 0 00-7.25 1.219L39.5 375.117a5.21 5.21 0 00-.531 5.203 5.198 5.198 0 009 .825l51.394-72.184a5.193 5.193 0 00-1.215-7.246zm12.43 23.683a5.199 5.199 0 00-7.25 1.192l-28.59 39.851a5.2 5.2 0 00-.906 3.875 5.194 5.194 0 002.102 3.375 5.2 5.2 0 007.254-1.187l28.585-39.852a5.201 5.201 0 00-1.195-7.254zm235.188-257.09C345.766 33.66 333.93.165 333.93.165s-44.18-3.031-81.14 16.89c-36.962 19.923-50.966 45.337-57.895 57.028-6.93 11.695-21.368 36.672-21.368 36.672s-31.617-.574-56.593 13.285c-24.977 13.86-40.282 39.848-40.282 39.848s16.606-4.766 32.485-4.332c15.883.437 31.761 7.074 31.761 7.074s-3.753 5.629-3.03 13.855c.32 3.618 5.148 8.762 11.8 14.364a143.746 143.746 0 00-3.063 4.152c-23.714 33.504-29.128 70.43-12.097 82.488 17.035 12.055 50.066-5.328 73.777-38.824.758-1.07 1.492-2.144 2.211-3.219 6.04 3.801 11.215 6.317 14.43 6.153 8.52-.434 15.883-9.383 15.883-9.383s16.242 20.574 20.355 30.969c4.117 10.394 5.633 29.02 5.633 29.02s18.187-21.442 23.933-53.11c5.747-31.672-8.343-54.09-8.343-54.09s16.023-19.633 32.484-39.555c16.457-19.926 30.895-46.492 30.895-81.14zm-143.079 166.58c-15.707 21.261-38.101 31.355-50.027 22.55-11.922-8.808-8.855-33.183 6.852-54.445.062-.09.129-.168.191-.254 6.344 4.739 13.078 9.453 18.734 13.555 7.446 5.398 16.356 12.348 24.575 18.129-.114.156-.211.308-.325.465zm60.067-108.973c-19.54 0-35.375-15.84-35.375-35.371 0-19.54 15.836-35.375 35.375-35.375 19.535 0 35.367 15.836 35.367 35.375 0 19.531-15.832 35.371-35.367 35.371zm0 0"/></svg>