<svg xmlns="http://www.w3.org/2000/svg" viewBox="0 0 382 161"><path fill-rule="evenodd" d="M96.094 36.969c0 3.976-1.453 7.355-4.367 10.136-2.91 2.786-6.352 4.176-10.325 4.176-3.968 0-7.41-1.39-10.324-4.176-2.91-2.78-4.367-6.16-4.367-10.136 0-4.239 1.457-7.75 4.367-10.532 2.914-2.785 6.356-4.175 10.324-4.175 3.973 0 7.414 1.39 10.325 4.175 2.914 2.782 4.367 6.293 4.367 10.532zm285.113 42.539V74.14l-.797-2.985a64.764 64.764 0 00-1.785-11.129 353.998 353.998 0 00-2.977-11.132 235.73 235.73 0 00-2.382-5.364 194.185 194.185 0 00-2.383-4.972 44.972 44.972 0 00-2.781-4.77 55.724 55.724 0 00-3.575-4.77 45.64 45.64 0 00-7.343-8.546 126.655 126.655 0 00-8.938-7.356c-6.351-3.972-13.234-7.086-20.648-9.34-7.41-2.254-14.692-3.511-21.84-3.777-3.969 0-7.742.066-11.317.2a105.14 105.14 0 00-10.918.991 129.682 129.682 0 00-10.722 1.989 77.27 77.27 0 00-10.324 3.18 56.955 56.955 0 00-10.125 3.378 230.804 230.804 0 01-10.13 4.176l-9.527 4.77-9.53 5.566a272.527 272.527 0 00-17.673 11.727 196.835 196.835 0 00-16.082 12.918 95.19 95.19 0 00-7.742 6.957 93.126 93.126 0 01-7.742 6.957c-2.383 2.652-4.7 5.234-6.95 7.754a3273.893 3273.893 0 01-6.949 7.75 17.265 17.265 0 00-3.375 3.578 77.498 77.498 0 01-2.98 3.976l-.395.399a145 145 0 01-8.14-6.364 366.026 366.026 0 01-7.348-6.359c-4.766-3.977-8.867-7.621-12.309-10.934a606.873 606.873 0 01-8.734-8.547c-2.383-2.382-4.238-4.171-5.562-5.363l-1.985-1.789-1.191 1.192 1.59 1.988 4.765 6.36a282.787 282.787 0 003.575 4.37 91.922 91.922 0 013.968 5.168 184.545 184.545 0 005.36 5.965 333.083 333.083 0 016.156 6.758 28.963 28.963 0 003.375 3.578 88.803 88.803 0 013.773 3.578 32.066 32.066 0 003.575 3.778 103.862 103.862 0 013.968 3.773l-.394.398-.399.399a97.092 97.092 0 01-5.957 6.957 318.956 318.956 0 01-6.75 6.957 145.546 145.546 0 01-6.55 6.16 83.007 83.007 0 01-7.348 5.766 55.517 55.517 0 01-6.95 5.168 88.893 88.893 0 01-7.742 4.37c-5.03 2.919-10.058 5.169-15.09 6.759a61.257 61.257 0 01-15.488 2.785H60.36c-2.648-.266-5.097-.664-7.347-1.196-2.25-.527-4.7-1.191-7.348-1.984-4.766-1.59-9.133-3.512-13.102-5.766-3.972-2.254-7.414-4.968-10.324-8.148-3.18-2.918-5.691-6.164-7.547-9.742a42.635 42.635 0 01-3.968-11.328c0-.532-.067-.993-.2-1.391-.132-.398-.199-.73-.199-.996v-7.55c0-2.122.133-4.11.399-5.966.261-1.855.527-3.578.793-5.168.527-3.972 1.457-7.484 2.78-10.535 1.321-3.047 2.911-5.629 4.763-7.75 1.062-1.324 2.054-2.453 2.98-3.379a27.54 27.54 0 002.582-2.98c1.059-1.063 2.05-1.922 2.977-2.586a22.765 22.765 0 012.976-1.79c.797-.792 2.383-1.788 4.766-2.98 2.383-1.191 4.105-2.187 5.164-2.98 1.586-.531 2.91-1.063 3.969-1.59 1.058-.531 2.117-.797 3.18-.797 1.058-.265 1.718-.465 1.984-.594l.398-.199-.398-1.195-.598.2-2.184.597c-.792.265-1.851.465-3.175.597-1.325.13-2.782.594-4.367 1.391-1.59-.531-3.442-.398-5.56.395a66.007 66.007 0 00-6.355 2.785c-2.382 1.058-4.765 2.449-7.148 4.172-2.383 1.722-4.633 3.91-6.75 6.562-2.383 2.383-4.5 5.168-6.352 8.348-1.855 3.18-3.441 6.758-4.765 10.73a65.917 65.917 0 00-1.39 5.965A134.547 134.547 0 000 88.25v12.125l.793 1.79c.531 4.772 1.922 9.608 4.172 14.51 2.25 4.903 5.226 9.212 8.933 12.919a81.362 81.362 0 0012.907 10.535c4.633 3.047 9.726 5.5 15.285 7.355a84.236 84.236 0 008.14 2.782c2.782.797 5.758 1.324 8.938 1.59.527 0 1.258.132 2.184.398a10.73 10.73 0 002.976.398h13.106c3.175-.265 6.351-.664 9.527-1.191 3.18-.531 6.355-1.461 9.531-2.785a53.03 53.03 0 009.133-3.18c2.914-1.324 5.824-3.047 8.738-5.168a71.198 71.198 0 008.14-5.168c2.618-1.937 5.2-3.926 7.743-5.96a195.053 195.053 0 007.344-6.958 89.516 89.516 0 006.555-7.355 56.324 56.324 0 006.351-7.555 567.66 567.66 0 015.957-8.348c.266.532.531.93.793 1.196l.797.793a133.491 133.491 0 014.766 4.175 133.738 133.738 0 004.761 4.172c3.707 2.914 7.348 5.766 10.922 8.547a488.175 488.175 0 0011.317 8.547 317.84 317.84 0 0013.105 8.547c4.5 2.785 9.133 5.234 13.899 7.355a75.42 75.42 0 007.343 3.579 129.625 129.625 0 017.742 3.578c2.649.793 5.364 1.722 8.141 2.78a90.816 90.816 0 008.54 2.782c5.558 1.594 11.448 2.852 17.671 3.778A291.13 291.13 0 00285.11 161h10.324c1.59 0 3.308-.066 5.164-.2a55.315 55.315 0 005.16-.597 84.112 84.112 0 0010.125-1.39c3.312-.66 6.687-1.524 10.129-2.583 6.617-2.12 13.035-5.101 19.258-8.945a83.94 83.94 0 0016.875-13.715c5.03-5.566 9.132-11.793 12.312-18.683a88.031 88.031 0 006.75-21.469c0-1.059.133-2.05.395-2.98.265-.926.398-1.79.398-2.583v-5.964l-.793-2.383v.195zm-14.695 2.383v2.586l-.395 1.789c0 .793-.133 1.59-.398 2.382a7.497 7.497 0 00-.399 2.387c-1.058 5.828-2.91 11.528-5.558 17.094-2.645 5.566-6.086 10.469-10.325 14.707-1.851 2.121-4.035 4.043-6.55 5.766a736.055 736.055 0 01-7.348 4.968c-2.644 1.59-5.226 2.914-7.742 3.977a64.916 64.916 0 01-8.14 2.781 53.811 53.811 0 01-8.735 2.387c-2.914.527-5.692.793-8.34.793a23.26 23.26 0 00-4.168.398 23.28 23.28 0 01-4.172.399h-9.527c-11.914-.266-23.164-1.723-33.754-4.375-10.59-2.649-20.516-6.094-29.781-10.336-9.532-3.973-18.332-8.48-26.407-13.516-8.074-5.035-15.554-10.07-22.437-15.105a93.288 93.288 0 01-6.55-4.77c-1.985-1.59-4.04-3.18-6.157-4.77v-.199l.398-.199a46.775 46.775 0 002.977-4.176 48.156 48.156 0 012.98-4.171c7.41-10.602 16.082-20.606 26.008-30.016 9.93-9.406 20.848-17.688 32.762-24.844a100.924 100.924 0 019.133-5.168 154.075 154.075 0 019.527-4.375 287.018 287.018 0 019.531-3.773 78.123 78.123 0 019.93-2.985c3.703-1.058 7.145-1.922 10.324-2.582 3.176-.664 6.617-1.129 10.324-1.39a133.94 133.94 0 0110.325-.399c3.441 0 6.75.133 9.925.399 6.618.527 13.106 2.05 19.457 4.57 6.356 2.516 12.18 5.633 17.473 9.34 5.031 3.976 9.399 8.68 13.106 14.113 3.703 5.434 6.484 11.2 8.336 17.293 1.058 3.18 1.855 6.23 2.382 9.145.532 2.914.793 5.96.793 9.14v7.156zm0 0"/></svg>