<svg xmlns="http://www.w3.org/2000/svg" viewBox="0 0 384 384"><path d="M202.383 99.941c26.562 4.383 36.14 25.743 36.14 25.743h41.352s-12.598-36.145-42.992-52.575c-30.395-16.43-67.09-15.882-101.86 11.774-34.777 27.656-30.394 86.527-30.394 86.527L227.3 270.398s-10.406 16.016-39.434 13.282c-29.023-2.743-38.332-26.563-38.332-26.563h-41.62c0 5.934 12.87 36.692 38.335 50.656 25.465 13.965 56.41 23 99.398-3.558 42.989-26.563 37.512-91.457 37.512-91.457l-122.672-99.672s15.336-17.527 41.895-13.145zM245.098 220.7v25.742L142.145 163.47v-25.74zm0 0"/><path d="M191.797 0C85.007 0 45.207 97.754 45.207 122.672l34.777 28.476c0-45.09 32.403-114.183 116.375-114.183 71.559 0 111.993 65.074 111.993 114.183h-62.704l99.672 80.23v-80.23C345.32 86.528 299.863 0 191.797 0zm-1.125 346.656c-71.563 0-111.996-65.078-111.996-114.183h62.707l-99.676-80.227v80.227c0 64.625 45.457 151.152 153.523 151.152 106.793 0 146.586-97.754 146.586-122.676l-34.777-28.476c.004 45.09-32.398 114.183-116.367 114.183zm0 0"/></svg>