<svg xmlns="http://www.w3.org/2000/svg" viewBox="0 0 384 384"><path d="M208.918 266v-50.75c7.227-5.094 11.984-13.469 11.984-22.988 0-15.54-12.601-28.145-28.148-28.145-15.54 0-28.14 12.606-28.14 28.145 0 9.289 4.558 17.476 11.507 22.597v53.168l-29.644 38.028s23.183 10.406 46.28 10.406c23.098 0 46.434-9.774 46.434-9.774zm0 0"/><path d="M191.809 0C85.87 0 0 85.875 0 191.813 0 297.745 85.875 383.62 191.813 383.62c105.937 0 191.812-85.879 191.812-191.808C383.621 85.874 297.746 0 191.809 0zm1.023 37.27c5.54.007 10.023 4.496 10.031 10.03-.004 5.54-4.492 10.028-10.031 10.032-5.531 0-10.023-4.504-10.023-10.031 0-5.528 4.492-10.031 10.023-10.031zm-1.023 333.507c-98.84 0-178.973-80.117-178.973-178.964 0-92.114 69.594-167.934 159.066-177.836v6.12c-4.14.77-7.293 4.383-7.293 8.743a8.928 8.928 0 008.914 8.914 8.92 8.92 0 008.91-8.914c0-4.36-3.148-7.973-7.288-8.742v-6.453c4.957-.461 9.968-.711 15.039-.754V33c-6.766 1.254-11.918 7.176-11.918 14.3 0 8.036 6.53 14.567 14.566 14.567 8.04 0 14.574-6.531 14.574-14.566 0-7.125-5.152-13.043-11.922-14.301V12.941c5.008.098 9.985.352 14.883.856v6.3c-4.137.77-7.289 4.383-7.289 8.743 0 4.914 3.996 8.914 8.914 8.914 4.914 0 8.91-4 8.91-8.914 0-4.36-3.152-7.973-7.293-8.742v-5.883c88.555 10.762 157.168 86.133 157.168 177.597 0 98.848-80.117 178.965-178.968 178.965zM173.523 22.703a6.141 6.141 0 010 12.277 6.142 6.142 0 01-6.132-6.14 6.144 6.144 0 016.132-6.137zm38.47 0a6.141 6.141 0 010 12.277 6.146 6.146 0 01-6.138-6.14 6.15 6.15 0 016.137-6.137zm0 0"/><path d="M176.23 153.277h.004a42.108 42.108 0 0116.52-3.351 42.135 42.135 0 0116.164 3.215v-30.043l55.348-82.47c-10.715-5.144-22.086-9.144-33.918-11.929L192.39 85.262l-38.11-56.793a166.273 166.273 0 00-34.039 11.761l55.988 83.418zm0 0"/><path d="M164.613 223.828c-8.687-7.762-14.191-19.008-14.191-31.57 0-5.238.996-10.242 2.742-14.875H57.945s2.602-25.543 11.352-46.117c8.75-20.578 32.402-37.606 32.402-37.606l28.38 39.735v23.18h34.534v-28.86l-56.34-81.2C58.04 75.47 24.191 129.669 24.191 191.81c0 5.671.29 11.273.84 16.793h105.52v43.52l-31.692 38.315s-14.98-15.14-24.125-29.171c-9.14-14.04-15.453-38.473-15.453-38.473H27.098c8.851 47.348 37.582 87.695 77.23 112.004l60.285-74.871zm193.973-15.226c.55-5.52.836-11.122.836-16.79 0-61.582-33.23-115.382-82.719-144.511l-55.8 80.414v28.855h34.535v-23.175l28.375-39.735s23.652 17.028 32.402 37.606c8.75 20.578 11.355 46.117 11.355 46.117h-95.218a42.177 42.177 0 012.738 14.875c0 12.558-5.5 23.808-14.192 31.57v36.102L280.531 334c39.004-24.39 67.227-64.36 75.989-111.203h-30.286s-6.316 24.433-15.457 38.469c-9.14 14.035-24.125 29.171-24.125 29.171l-31.691-38.312v-43.523zm-139.39 121.984h20.566V319.41a154.726 154.726 0 01-20.567 6.531zm-25.114 0h20.563v-3.621c-6.461 1.328-13.454 2.265-20.563 2.363zm0 4.539h20.563v10.438h-20.563zm25.113 0h20.567v10.438h-20.567zm25.106-17.61v13.07h13.32l-11.02-14.124s-.843.406-2.3 1.055zm0 17.61v10.438h14.23a172.535 172.535 0 007.906-3.668l-5.28-6.77zm-127.414 6.61a164.552 164.552 0 008.199 3.827h14.234v-10.437h-17zm52.086-11.15h20.57v-1.315c-7.078-.25-14.086-1.278-20.57-2.676zm50.222 26.556a168.53 168.53 0 0020.567-4.707v-2.336h-20.567zm-93.148-26.555h13.273v-13.39a52.87 52.87 0 01-1.672-.735zm68.035 28.77c6.879-.09 13.746-.606 20.563-1.54v-7.718h-20.563zm-50.223-24.231h20.57v10.438h-20.57zm25.114 0h20.57v10.438h-20.57zm0 22.691a167.511 167.511 0 0020.57 1.54v-9.258h-20.57zm-25.114-27.23h20.57v-5.04a171.275 171.275 0 01-20.57-6.503zm0 21.832a166.155 166.155 0 0020.57 4.719v-7.04h-20.57zm0 0"/></svg>