<?xml version="1.0" encoding="UTF-8" standalone="yes"?>
<svg xmlns="http://www.w3.org/2000/svg" xmlns:xlink="http://www.w3.org/1999/xlink" width="512px" height="512px" viewBox="0 0 384 384" version="1.1">
  <g id="surface1">
    <path style=" stroke:none;fill-rule:nonzero;fill:rgb(0%,0%,0%);fill-opacity:1;" d="M 208.917969 266 L 208.917969 215.25 C 216.144531 210.15625 220.902344 201.78125 220.902344 192.261719 C 220.902344 176.722656 208.300781 164.117188 192.753906 164.117188 C 177.214844 164.117188 164.613281 176.722656 164.613281 192.261719 C 164.613281 201.550781 169.171875 209.738281 176.121094 214.859375 L 176.121094 268.027344 L 146.476562 306.054688 C 146.476562 306.054688 169.660156 316.460938 192.757812 316.460938 C 215.855469 316.460938 239.191406 306.6875 239.191406 306.6875 Z M 208.917969 266 "/>
    <path style=" stroke:none;fill-rule:nonzero;fill:rgb(0%,0%,0%);fill-opacity:1;" d="M 191.808594 0 C 85.871094 0 0 85.875 0 191.8125 C 0 297.746094 85.875 383.621094 191.8125 383.621094 C 297.75 383.621094 383.625 297.742188 383.625 191.8125 C 383.621094 85.875 297.746094 0 191.808594 0 Z M 192.832031 37.269531 C 198.371094 37.277344 202.855469 41.765625 202.863281 47.300781 C 202.859375 52.839844 198.371094 57.328125 192.832031 57.332031 C 187.300781 57.332031 182.808594 52.828125 182.808594 47.300781 C 182.808594 41.773438 187.300781 37.269531 192.832031 37.269531 Z M 191.808594 370.777344 C 92.96875 370.777344 12.835938 290.660156 12.835938 191.8125 C 12.835938 99.699219 82.429688 23.878906 171.902344 13.976562 L 171.902344 20.097656 C 167.761719 20.867188 164.609375 24.480469 164.609375 28.839844 C 164.617188 33.761719 168.605469 37.746094 173.523438 37.753906 C 178.445312 37.746094 182.429688 33.761719 182.433594 28.839844 C 182.433594 24.480469 179.285156 20.867188 175.144531 20.097656 L 175.144531 13.644531 C 180.101562 13.183594 185.113281 12.933594 190.183594 12.890625 L 190.183594 33 C 183.417969 34.253906 178.265625 40.175781 178.265625 47.300781 C 178.265625 55.335938 184.796875 61.867188 192.832031 61.867188 C 200.871094 61.867188 207.40625 55.335938 207.40625 47.300781 C 207.40625 40.175781 202.253906 34.257812 195.484375 33 L 195.484375 12.941406 C 200.492188 13.039062 205.46875 13.292969 210.367188 13.796875 L 210.367188 20.097656 C 206.230469 20.867188 203.078125 24.480469 203.078125 28.839844 C 203.078125 33.753906 207.074219 37.753906 211.992188 37.753906 C 216.90625 37.753906 220.902344 33.753906 220.902344 28.839844 C 220.902344 24.480469 217.75 20.867188 213.609375 20.097656 L 213.609375 14.214844 C 302.164062 24.976562 370.777344 100.347656 370.777344 191.8125 C 370.777344 290.660156 290.660156 370.777344 191.808594 370.777344 Z M 173.523438 22.703125 C 176.84375 22.800781 179.488281 25.519531 179.488281 28.84375 C 179.488281 32.164062 176.84375 34.886719 173.523438 34.980469 C 170.136719 34.976562 167.390625 32.226562 167.390625 28.839844 C 167.394531 25.453125 170.136719 22.710938 173.523438 22.703125 Z M 211.992188 22.703125 C 215.3125 22.800781 217.957031 25.519531 217.957031 28.84375 C 217.957031 32.164062 215.3125 34.886719 211.992188 34.980469 C 208.601562 34.976562 205.859375 32.226562 205.855469 28.839844 C 205.863281 25.453125 208.605469 22.710938 211.992188 22.703125 Z M 211.992188 22.703125 "/>
    <path style=" stroke:none;fill-rule:nonzero;fill:rgb(0%,0%,0%);fill-opacity:1;" d="M 176.230469 153.277344 L 176.234375 153.277344 C 181.457031 151.058594 187.078125 149.917969 192.753906 149.925781 C 198.480469 149.925781 203.941406 151.078125 208.917969 153.140625 L 208.917969 123.097656 L 264.265625 40.628906 C 253.550781 35.484375 242.179688 31.484375 230.347656 28.699219 L 192.390625 85.261719 L 154.28125 28.46875 C 142.542969 31.144531 131.128906 35.089844 120.242188 40.230469 L 176.230469 123.648438 Z M 176.230469 153.277344 "/>
    <path style=" stroke:none;fill-rule:nonzero;fill:rgb(0%,0%,0%);fill-opacity:1;" d="M 164.613281 223.828125 C 155.925781 216.066406 150.421875 204.820312 150.421875 192.257812 C 150.421875 187.019531 151.417969 182.015625 153.164062 177.382812 L 57.945312 177.382812 C 57.945312 177.382812 60.546875 151.839844 69.296875 131.265625 C 78.046875 110.6875 101.699219 93.660156 101.699219 93.660156 L 130.078125 133.394531 L 130.078125 156.574219 L 164.613281 156.574219 L 164.613281 127.714844 L 108.273438 46.515625 C 58.039062 75.46875 24.191406 129.667969 24.191406 191.808594 C 24.191406 197.480469 24.480469 203.082031 25.03125 208.601562 L 130.550781 208.601562 L 130.550781 252.121094 L 98.859375 290.4375 C 98.859375 290.4375 83.878906 275.296875 74.734375 261.265625 C 65.59375 247.226562 59.28125 222.792969 59.28125 222.792969 L 27.097656 222.792969 C 35.949219 270.140625 64.679688 310.488281 104.328125 334.796875 L 164.613281 259.925781 Z M 358.585938 208.601562 C 359.136719 203.082031 359.421875 197.480469 359.421875 191.8125 C 359.421875 130.230469 326.191406 76.429688 276.703125 47.300781 L 220.902344 127.714844 L 220.902344 156.570312 L 255.4375 156.570312 L 255.4375 133.394531 L 283.8125 93.660156 C 283.8125 93.660156 307.464844 110.6875 316.214844 131.265625 C 324.964844 151.84375 327.570312 177.382812 327.570312 177.382812 L 232.351562 177.382812 C 234.152344 182.136719 235.082031 187.175781 235.089844 192.257812 C 235.089844 204.816406 229.589844 216.066406 220.898438 223.828125 L 220.898438 259.929688 L 280.53125 334 C 319.535156 309.609375 347.757812 269.640625 356.519531 222.796875 L 326.234375 222.796875 C 326.234375 222.796875 319.917969 247.230469 310.777344 261.265625 C 301.636719 275.300781 286.652344 290.4375 286.652344 290.4375 L 254.960938 252.125 L 254.960938 208.601562 Z M 219.195312 330.585938 L 239.761719 330.585938 L 239.761719 319.410156 C 233.066406 322.0625 226.195312 324.246094 219.195312 325.941406 Z M 194.082031 330.585938 L 214.644531 330.585938 L 214.644531 326.964844 C 208.183594 328.292969 201.191406 329.230469 194.082031 329.328125 Z M 194.082031 335.125 L 214.644531 335.125 L 214.644531 345.5625 L 194.082031 345.5625 Z M 219.195312 335.125 L 239.761719 335.125 L 239.761719 345.5625 L 219.195312 345.5625 Z M 244.300781 317.515625 L 244.300781 330.585938 L 257.621094 330.585938 L 246.601562 316.460938 C 246.601562 316.460938 245.757812 316.867188 244.300781 317.515625 Z M 244.300781 335.125 L 244.300781 345.5625 L 258.53125 345.5625 C 261.195312 344.40625 263.835938 343.183594 266.4375 341.894531 L 261.15625 335.125 Z M 116.886719 341.734375 C 119.582031 343.085938 122.316406 344.359375 125.085938 345.5625 L 139.320312 345.5625 L 139.320312 335.125 L 122.320312 335.125 Z M 168.972656 330.585938 L 189.542969 330.585938 L 189.542969 329.269531 C 182.464844 329.019531 175.457031 327.992188 168.972656 326.59375 Z M 219.195312 357.140625 C 226.140625 356.003906 233.011719 354.429688 239.761719 352.433594 L 239.761719 350.097656 L 219.195312 350.097656 Z M 126.046875 330.585938 L 139.320312 330.585938 L 139.320312 317.195312 C 138.757812 316.960938 138.203125 316.714844 137.648438 316.460938 Z M 194.082031 359.355469 C 200.960938 359.265625 207.828125 358.75 214.644531 357.816406 L 214.644531 350.097656 L 194.082031 350.097656 Z M 143.859375 335.125 L 164.429688 335.125 L 164.429688 345.5625 L 143.859375 345.5625 Z M 168.972656 335.125 L 189.542969 335.125 L 189.542969 345.5625 L 168.972656 345.5625 Z M 168.972656 357.816406 C 175.707031 358.742188 182.570312 359.261719 189.542969 359.355469 L 189.542969 350.097656 L 168.972656 350.097656 Z M 143.859375 330.585938 L 164.429688 330.585938 L 164.429688 325.546875 C 157.441406 323.8125 150.570312 321.640625 143.859375 319.042969 Z M 143.859375 352.417969 C 150.609375 354.425781 157.476562 356 164.429688 357.136719 L 164.429688 350.097656 L 143.859375 350.097656 Z M 143.859375 352.417969 "/>
  </g>
</svg>