<?xml version="1.0" encoding="UTF-8" standalone="yes"?>
<svg xmlns="http://www.w3.org/2000/svg" xmlns:xlink="http://www.w3.org/1999/xlink" width="410.66666666666663px" height="510.66666666666663px" viewBox="0 0 308 383" version="1.1">
  <g id="surface1">
    <path style=" stroke:none;fill-rule:evenodd;fill:rgb(0%,0%,0%);fill-opacity:1;" d="M 201.875 161.976562 L 308 161.976562 L 308 93.355469 L 201.875 93.355469 L 201.875 0 L 116.894531 33.113281 L 116.894531 268.898438 C 116.894531 281.929688 119.023438 294.429688 123.28125 306.398438 C 127.535156 318.367188 133.453125 329.207031 141.035156 338.914062 C 148.613281 348.621094 157.589844 356.933594 167.964844 363.851562 C 178.335938 370.765625 189.640625 375.820312 201.875 379.011719 C 206.664062 380.339844 211.449219 381.335938 216.238281 382.003906 C 221.027344 382.667969 226.078125 383 231.398438 383 C 239.910156 383 251.082031 381.605469 264.910156 378.8125 C 278.742188 376.019531 291.773438 371.429688 304.011719 365.046875 L 277.679688 300.015625 C 273.6875 302.941406 269.300781 305.136719 264.511719 306.597656 C 259.726562 308.0625 254.539062 308.792969 248.953125 308.792969 C 236.984375 308.792969 226.542969 305.203125 217.632812 298.023438 C 208.726562 290.839844 203.472656 281.929688 201.875 271.292969 Z M 76.601562 130.859375 C 76.601562 142.5625 72.878906 152.535156 65.429688 160.78125 C 57.984375 169.027344 48.941406 173.148438 38.300781 173.148438 C 27.925781 173.148438 18.949219 169.027344 11.371094 160.78125 C 3.789062 152.535156 0 142.5625 0 130.859375 C 0 119.15625 3.789062 109.183594 11.371094 100.9375 C 18.949219 92.691406 27.925781 88.570312 38.300781 88.570312 C 48.941406 88.570312 57.984375 92.691406 65.429688 100.9375 C 72.878906 109.183594 76.601562 119.15625 76.601562 130.859375 Z M 76.601562 130.859375 "/>
  </g>
</svg>