<svg xmlns="http://www.w3.org/2000/svg" viewBox="0 0 384 384"><path d="M191.887 0C86.078 0 0 86.078 0 191.887 0 297.69 86.082 383.773 191.887 383.773c105.804 0 191.883-86.082 191.883-191.886C383.77 86.078 297.69 0 191.887 0zm0 371.54c-99.059 0-179.653-80.595-179.653-179.653 0-99.063 80.594-179.653 179.653-179.653 99.058 0 179.648 80.59 179.648 179.653 0 99.058-80.59 179.652-179.648 179.652zm0 0"/><path d="M230.73 85.152c0-21.453-17.39-38.843-38.843-38.843-21.453 0-38.844 17.39-38.844 38.843 0 21.453 17.39 38.844 38.844 38.844 21.453 0 38.843-17.39 38.843-38.844zM130.328 234.938c0-21.454-17.39-38.844-38.844-38.844-21.453 0-38.843 17.39-38.843 38.844 0 21.453 17.39 38.843 38.843 38.843 21.454 0 38.844-17.39 38.844-38.844zm-31.746-52.801c3.172-30.57 21.098-56.809 46.5-71.496a53.05 53.05 0 01-6.379-28.664c-39.156 19.027-66.683 58.37-68.789 104.238a53.026 53.026 0 0121.574-4.563c2.407 0 4.774.176 7.094.485zm186.578-.211a53.056 53.056 0 015.402-.274 53.08 53.08 0 0123.313 5.36c-1.824-46.207-29.426-85.899-68.809-105.035a53.05 53.05 0 01-6.379 28.664c25.344 14.656 43.243 40.804 46.473 71.285zm-37.148 85.078c-15.66 11.734-35.094 18.691-56.125 18.691-21.532 0-41.375-7.308-57.223-19.554a53.452 53.452 0 01-22.668 17.98C133.43 302.707 161.356 314 191.886 314c30.278 0 57.993-11.102 79.36-29.41a53.47 53.47 0 01-23.234-17.586zm81.394-32.07c0-21.454-17.39-38.844-38.844-38.844-21.453 0-38.843 17.39-38.843 38.844 0 21.453 17.39 38.843 38.844 38.843 21.453 0 38.843-17.39 38.843-38.843zm0 0"/><path d="M191.887 25.84c-91.559 0-166.047 74.488-166.047 166.047 0 91.558 74.488 166.043 166.047 166.043 91.554 0 166.043-74.485 166.043-166.043 0-91.559-74.493-166.047-166.043-166.047zm98.675 262.379c-1.613 0-3.207-.086-4.785-.223-24.25 23.695-57.394 38.324-93.89 38.324-36.586 0-69.801-14.699-94.063-38.492a52.85 52.85 0 01-6.336.39c-29.43 0-53.289-23.859-53.289-53.284 0-16.5 7.504-31.246 19.278-41.016-.008-.68-.024-1.356-.024-2.031 0-56.403 34.918-104.797 84.266-124.719 7.379-20.578 27.05-35.297 50.168-35.297 23.11 0 42.781 14.719 50.16 35.297 49.351 19.922 84.27 68.316 84.27 124.719 0 1.172-.016 2.336-.047 3.5 10.793 9.75 17.578 23.855 17.578 39.547 0 29.43-23.856 53.285-53.286 53.285zm0 0"/></svg>