<?xml version="1.0" encoding="UTF-8" standalone="yes"?>
<svg xmlns="http://www.w3.org/2000/svg" xmlns:xlink="http://www.w3.org/1999/xlink" width="512px" height="512px" viewBox="0 0 384 384" version="1.1">
  <g id="surface1">
    <path style=" stroke:none;fill-rule:nonzero;fill:rgb(0%,0%,0%);fill-opacity:1;" d="M 364.34375 132.761719 L 364.34375 244.808594 C 376.570312 227.84375 383.621094 208.878906 383.621094 188.785156 C 383.621094 168.6875 376.570312 149.710938 364.34375 132.761719 Z M 244.132812 133.257812 C 260.339844 148.601562 307.613281 207.222656 337 244.175781 L 337 104.710938 C 301.816406 77.3125 249.871094 59.878906 191.789062 59.878906 C 164.617188 59.878906 138.835938 63.730469 115.417969 70.5625 C 159.734375 72.886719 201.957031 93.285156 244.132812 133.257812 Z M 244.132812 133.257812 "/>
    <path style=" stroke:none;fill-rule:nonzero;fill:rgb(0%,0%,0%);fill-opacity:1;" d="M 225.332031 153.085938 C 185.804688 115.636719 147.09375 97.445312 106.992188 97.445312 C 56.039062 97.445312 42.578125 116.167969 42.578125 126.082031 C 42.5 135.941406 42.441406 144.886719 49.667969 152.191406 C 57.277344 159.835938 75.949219 168.953125 121.636719 168.953125 C 161.777344 168.953125 190.816406 178.070312 207.976562 196.046875 C 219.722656 208.363281 225.277344 223.832031 224.417969 242.027344 C 224.417969 256.292969 210.59375 304.121094 147.96875 314.140625 C 162.0625 316.359375 176.6875 317.652344 191.789062 317.652344 C 245.773438 317.652344 294.476562 302.628906 329.332031 278.503906 C 295.425781 235.503906 241.3125 168.234375 225.332031 153.085938 Z M 225.332031 153.085938 "/>
    <path style=" stroke:none;fill-rule:nonzero;fill:rgb(0%,0%,0%);fill-opacity:1;" d="M 123.675781 288.761719 C 193.070312 288.761719 197.03125 242.542969 197.074219 242.0625 C 197.304688 236.859375 197.855469 225.039062 188.207031 214.914062 C 176.578125 202.742188 153.558594 196.296875 121.636719 196.296875 C 76.785156 196.296875 46.886719 188.175781 30.296875 171.449219 C 19.292969 160.375 16.320312 147.808594 15.519531 137.910156 C 5.527344 153.523438 -0.0625 170.707031 -0.0625 188.789062 C -0.0625 211.710938 8.957031 233.199219 24.59375 251.871094 C 46.886719 273 80.332031 288.761719 123.675781 288.761719 Z M 123.675781 288.761719 "/>
  </g>
</svg>