<svg viewBox="0 0 308 512" xmlns="http://www.w3.org/2000/svg">
  <path d="M200.176 448.278V512h-93.25v-66.54C68.324 438.048 30.393 423.529 0 403.629l38.79-77.044c7.005 7.545 67.349 44.719 126.073 44.719 31.789 0 46.878-10.234 46.878-28.556 0-28.556-39.33-35.558-92.132-51.726C49.03 269.47 16.162 243.07 16.162 185.42c0-62.17 38.279-102.313 90.765-117.542V0h93.249v65.348c37.375 7.417 70.687 23.083 95.076 37.639l-38.256 73.268c-5.386-5.929-56.572-36.637-102.367-36.637-30.175 0-46.874 10.774-46.874 31.788 0 25.86 28.556 32.865 79.739 46.874 73.274 19.938 119.612 44.72 119.612 115.837 0 72.027-48.292 105.025-106.93 114.16z" fill-rule="evenodd"/>
</svg>
