<svg xmlns="http://www.w3.org/2000/svg" viewBox="0 0 384 384"><path d="M383.8 182.121c0-24.098-65.566-44.203-152.702-48.84l-.004-38.394H339.89V14.98H42.39v79.907h108.79v38.582C65.633 138.426 1.64 158.32 1.64 182.12c0 23.805 63.993 43.703 149.54 48.649v137.875h79.914V230.957c87.14-4.629 152.707-24.738 152.707-48.836zM192.72 205.86c-93.524 0-169.344-14.476-169.344-32.343 0-15.125 54.367-27.828 127.805-31.36v9.106h.007v37.312c13.243.746 27.157 1.133 41.532 1.133a767.22 767.22 0 0038.383-.953v-46.738c75.03 3.316 130.968 16.152 130.968 31.5 0 17.867-75.824 32.343-169.351 32.343zm0 0"/></svg>