<?xml version="1.0" encoding="UTF-8" standalone="yes"?>
<svg xmlns="http://www.w3.org/2000/svg" xmlns:xlink="http://www.w3.org/1999/xlink" width="510.66666666666663px" height="482.66666666666663px" viewBox="0 0 383 362" version="1.1">
  <g id="surface1">
    <path style=" stroke:none;fill-rule:nonzero;fill:rgb(0%,0%,0%);fill-opacity:1;" d="M 164.726562 345.003906 L 1.414062 12.085938 C 0.207031 9.59375 0.363281 6.652344 1.828125 4.296875 C 3.292969 1.945312 5.867188 0.511719 8.636719 0.5 L 65.222656 0.5 C 68.257812 0.492188 71.042969 2.179688 72.445312 4.871094 L 191.699219 246.386719 C 196.5625 256.328125 206.65625 262.628906 217.714844 262.628906 C 228.773438 262.628906 238.871094 256.328125 243.730469 246.386719 L 362.636719 5.058594 C 364.035156 2.367188 366.824219 0.679688 369.859375 0.6875 L 376.878906 0.6875 C 378.796875 0.664062 380.589844 1.648438 381.601562 3.28125 C 382.609375 4.917969 382.691406 6.960938 381.8125 8.667969 L 216.769531 345.003906 C 211.910156 354.949219 201.8125 361.261719 190.75 361.261719 C 179.683594 361.261719 169.585938 354.949219 164.726562 345.003906 Z M 164.726562 345.003906 "/>
  </g>
</svg>