<svg width="494" height="500" fill="none" xmlns="http://www.w3.org/2000/svg"><path fill-rule="evenodd" clip-rule="evenodd" d="M245.688 470.562c119.458 0 216.645-98.552 216.645-219.708 0-121.146-97.187-219.719-216.645-219.719-119.469 0-216.667 98.563-216.667 219.719 0 121.146 97.198 219.708 216.667 219.708zM246.521 0c135.937 0 246.531 112.156 246.531 250S382.458 500 246.521 500C110.594 500 0 387.844 0 250S110.594 0 246.521 0zm150.937 175.458c1.604 0 2.646 1.636 2.063 3.157l-7.948 17.875a2.182 2.182 0 0 1-2.083 1.291h-19.938c-.812 0-1.614.594-1.958 1.406l-3.656 8.178a1.158 1.158 0 0 0 .077 1.1 1.156 1.156 0 0 0 .964.535h17.604c1.605 0 2.646 1.771 2.073 3.167l-7.958 18a2.38 2.38 0 0 1-2.083 1.291h-19.928a2.163 2.163 0 0 0-2.083 1.282l-61.437 138.541a1.767 1.767 0 0 1-1.73 1.177h-27.791l-57.875-.104a2.185 2.185 0 0 1-2.073-1.302L149.125 252.51a2.182 2.182 0 0 1 .096-2.129 2.176 2.176 0 0 1 1.862-1.037h83.584c.812 0 1.614.468 1.968 1.291l9.907 22.334 54.531-123.125a2.368 2.368 0 0 1 2.083-1.271h83.469a2.192 2.192 0 0 1 1.849 1.031 2.183 2.183 0 0 1 .109 2.115l-9.791 22.094a1.146 1.146 0 0 0 1.031 1.645h17.635zM257.01 196.531a2.19 2.19 0 0 1-2.02 1.323H103.5a2.204 2.204 0 0 1-2.021-1.323l-7.916-17.958a2.241 2.241 0 0 1 2.02-3.146h17.625c.813 0 1.334-.833 1.011-1.583l-9.823-22.115a2.235 2.235 0 0 1 .157-2.124 2.247 2.247 0 0 1 1.864-1.032h83.468a2.22 2.22 0 0 1 2.021 1.312l10.74 24.219c.364.802 1.146 1.323 2.01 1.323h58.334c1.583 0 2.656 1.667 2 3.156l-7.98 17.948zm-14.791 33.563a2.213 2.213 0 0 1-2.021 1.333H118.365a2.197 2.197 0 0 1-2-1.333l-7.917-17.865a2.234 2.234 0 0 1 .147-2.125 2.236 2.236 0 0 1 1.863-1.031h137.646c1.604 0 2.677 1.667 2.021 3.156l-7.917 17.865h.011z" fill="#000"/></svg>