<svg width="512" height="480" xmlns="http://www.w3.org/2000/svg">
  <path d="M0 0c28.254.054 56.454.054 84.708 0 17.843 92.512 35.66 185.03 53.452 277.552.804 4.075 1.876 8.15 2.948 12.17 4.182-16.137 6.81-32.65 10.347-48.894C167.7 160.57 183.945 80.312 200.19 0h81.92c-30.076 129.957-60.153 259.86-90.23 389.763H90.176C60.1 259.913 30.023 130.118 0 .268V0zm314.92 122.451c17.8-21.713 46.321-31.578 73.771-33.347 27.074-1.876 56.293.536 79.293 16.245 20.32 13.832 31.47 37.153 36.778 60.367 6.434 29.058 6.755 58.974 6.702 88.622H361.349c.107 21.928-1.287 44.498 6.272 65.515 3.646 10.347 10.455 20.587 21.338 24.393 11.527 3.646 25.466 1.287 33.883-7.774 11.259-12.33 13.618-29.7 16.084-45.57h68.142c-1.555 26.324-6.541 54.095-24.287 74.79-17.8 21.498-46.482 30.29-73.664 31.363-29.486 1.072-61.547-2.788-85.083-22.089-21.874-17.692-31.417-45.785-35.17-72.645-3.806-30.988-3.967-62.298-2.198-93.393 2.306-30.345 7.989-62.458 28.254-86.477zm58.17 30.935c-11.634 16.244-11.902 37.153-11.741 56.24h77.523c-1.179-18.176-1.072-37.422-9.489-54.096-10.508-20.534-43.64-20.587-56.293-2.144zm-328.055 270.1c-8.954 0-16.191 7.077-16.191 15.762v24.5c0 8.686 7.237 15.763 16.19 15.763h25.198c3.003 0 5.415-2.36 5.415-5.254 0-2.895-2.412-5.254-5.415-5.254H45.035c-3.003 0-5.415-2.36-5.415-5.254v-24.501c0-2.895 2.412-5.254 5.415-5.254h59.456c3.002 0 5.415 2.359 5.415 5.254v15.762c0 2.895 2.412 5.254 5.415 5.254 3.002 0 5.414-2.36 5.414-5.254v-15.762c0-8.685-7.237-15.762-16.19-15.762h-59.51zm428.632 56.024c8.953 0 16.191-7.076 16.191-15.761v-24.501c0-8.685-7.238-15.762-16.191-15.762h-25.198c-3.002 0-5.415 2.359-5.415 5.254 0 2.895 2.413 5.254 5.415 5.254h25.198c3.002 0 5.415 2.359 5.415 5.254v24.5c0 2.896-2.413 5.255-5.415 5.255h-59.456c-3.003 0-5.415-2.36-5.415-5.254v-15.762c0-2.895-2.413-5.254-5.415-5.254-3.002 0-5.415 2.359-5.415 5.254v15.762c0 8.685 7.238 15.762 16.191 15.762h59.51v-.001zm-322.372-56.024c-8.954 0-16.191 7.077-16.191 15.762v15.762c0 2.895 2.412 5.254 5.415 5.254 3.002 0 5.414-2.36 5.414-5.254v-15.762c0-2.895 2.413-5.254 5.415-5.254h59.35c3.002 0 5.414 2.359 5.414 5.254v15.762c0 2.895 2.413 5.254 5.415 5.254 3.002 0 5.415-2.36 5.415-5.254v-15.762c0-8.685-7.238-15.762-16.191-15.762h-59.456zm5.361 56.024c8.953 0 16.19-7.076 16.19-15.761v-15.762c0-2.895-2.412-5.254-5.414-5.254s-5.415 2.359-5.415 5.254v15.762c0 2.895-2.412 5.254-5.415 5.254H97.253c-3.002 0-5.415-2.36-5.415-5.254v-15.762c0-2.895-2.412-5.254-5.415-5.254-3.002 0-5.414 2.359-5.414 5.254v15.762c0 8.685 7.237 15.762 16.19 15.762h59.457v-.001zm106.26 0c8.953 0 16.191-7.076 16.191-15.761v-15.762c0-2.895-2.413-5.254-5.415-5.254-3.002 0-5.415 2.359-5.415 5.254v15.762c0 2.895-2.412 5.254-5.415 5.254h-59.349c-3.002 0-5.415-2.36-5.415-5.254v-15.762c0-2.895-2.412-5.254-5.414-5.254-3.003 0-5.415 2.359-5.415 5.254v15.762c0 8.685 7.237 15.762 16.19 15.762h59.457v-.001zm104.491 0c8.953 0 16.19-7.076 16.19-15.761v-15.762c0-2.895-2.412-5.254-5.414-5.254s-5.415 2.359-5.415 5.254v15.762c0 2.895-2.412 5.254-5.415 5.254h-59.402c-3.003 0-5.415-2.36-5.415-5.254v-15.762c0-2.895-2.413-5.254-5.415-5.254-3.002 0-5.415 2.359-5.415 5.254v15.762c0 8.685 7.238 15.762 16.191 15.762h59.51v-.001zm-111.675-56.024c-8.953 0-16.191 7.077-16.191 15.762v15.762c0 2.895 2.413 5.254 5.415 5.254 3.002 0 5.415-2.36 5.415-5.254v-15.762c0-2.895 2.412-5.254 5.415-5.254h59.456c3.002 0 5.415 2.359 5.415 5.254v15.762c0 2.895 2.412 5.254 5.415 5.254 3.002 0 5.414-2.36 5.414-5.254v-15.762c0-8.685-7.237-15.762-16.19-15.762h-59.564zm106.26 0c-8.953 0-16.191 7.077-16.191 15.762v15.762c0 2.895 2.413 5.254 5.415 5.254 3.002 0 5.415-2.36 5.415-5.254v-15.762c0-2.895 2.412-5.254 5.415-5.254h59.349c3.002 0 5.415 2.359 5.415 5.254v15.762c0 2.895 2.412 5.254 5.415 5.254 3.002 0 5.414-2.36 5.414-5.254v-15.762c0-8.685-7.237-15.762-16.19-15.762h-59.457z" fill="#000" fill-rule="nonzero"/>
</svg>
