<svg width="484" height="512" xmlns="http://www.w3.org/2000/svg">
  <path d="M385.804 285.723c-40.204 0-76.37-24.569-91.232-61.938l-35.136-88.483C238.991 85.132 263.13 27.834 313.3 7.388c50.17-20.446 107.469 3.694 127.914 53.863.258.515.43 1.03.602 1.632l35.135 88.398c20.016 50.426-4.724 107.468-55.151 127.484-11.426 4.639-23.71 6.958-35.995 6.958zM222.41 511.399c-40.203 0-76.37-24.57-91.231-61.939L6.529 135.302C-12.542 84.532 13.229 28.005 64 8.934c49.396-18.47 104.548 5.326 124.993 53.95L313.73 376.955c19.93 50.427-4.725 107.468-55.152 127.484-11.597 4.553-23.796 6.959-36.166 6.959z"/>
</svg>
