<svg xmlns="http://www.w3.org/2000/svg" viewBox="0 0 384 384"><path d="M327.203 86.031h-78.168l-135.66 135.664H78.348L53.172 196.52v-31.938l25.258-25.254h33.047l17.714 17.656a6.309 6.309 0 004.575 1.965 6.289 6.289 0 004.738-2.168l28.36-28.285v-.023c2.448-2.45 2.476-6.41.054-8.883v-.012l-33.414-33.422H56.402L0 142.56v75.988l56.324 56.32h79.074l135.66-135.66h34.118l25.472 25.473v32.476l-24.726 24.727h-38.36l-14.648-14.649h-.016a6.302 6.302 0 00-8.894-.105h-.027l-33.184 33.184v77.468a6.335 6.335 0 006.332 6.328h40.477a6.331 6.331 0 006.32-6.289l.047-31.867.02-.02c.007-6.007 4.878-10.87 10.886-10.874h53.07l55.88-55.883v-76.52zm0 0"/></svg>