<?xml version="1.0" encoding="UTF-8" standalone="yes"?>
<svg xmlns="http://www.w3.org/2000/svg" xmlns:xlink="http://www.w3.org/1999/xlink" width="512px" height="512px" viewBox="0 0 384 384" version="1.1">
  <g id="surface1">
    <path style=" stroke:none;fill-rule:nonzero;fill:rgb(0%,0%,0%);fill-opacity:1;" d="M 327.203125 86.03125 L 249.035156 86.03125 L 113.375 221.695312 L 78.347656 221.695312 L 53.171875 196.519531 L 53.171875 164.582031 L 78.429688 139.328125 L 111.476562 139.328125 L 129.191406 156.984375 C 130.382812 158.238281 132.035156 158.949219 133.765625 158.949219 C 135.582031 158.945312 137.3125 158.15625 138.503906 156.78125 L 166.863281 128.496094 L 166.863281 128.472656 C 169.3125 126.023438 169.339844 122.0625 166.917969 119.589844 L 166.917969 119.578125 L 133.503906 86.15625 L 56.402344 86.15625 L 0 142.558594 L 0 218.546875 L 56.324219 274.867188 L 135.398438 274.867188 L 271.058594 139.207031 L 305.175781 139.207031 L 330.648438 164.679688 L 330.648438 197.15625 L 305.921875 221.882812 L 267.5625 221.882812 L 252.914062 207.234375 L 252.898438 207.234375 C 250.46875 204.757812 246.492188 204.707031 244.003906 207.128906 L 243.976562 207.128906 L 210.792969 240.3125 L 210.792969 317.78125 C 210.796875 321.273438 213.628906 324.109375 217.125 324.109375 L 257.601562 324.109375 C 261.078125 324.101562 263.902344 321.292969 263.921875 317.820312 L 263.96875 285.953125 L 263.988281 285.933594 C 263.996094 279.925781 268.867188 275.0625 274.875 275.058594 L 327.945312 275.058594 L 383.824219 219.175781 L 383.824219 142.65625 Z M 327.203125 86.03125 "/>
  </g>
</svg>