<?xml version="1.0" encoding="UTF-8" standalone="yes"?>
<svg xmlns="http://www.w3.org/2000/svg" xmlns:xlink="http://www.w3.org/1999/xlink" width="512px" height="512px" viewBox="0 0 384 384" version="1.1">
  <g id="surface1">
    <path style=" stroke:none;fill-rule:nonzero;fill:rgb(0%,0%,0%);fill-opacity:1;" d="M 132.960938 179.605469 C 133.800781 179.148438 134.550781 178.722656 135.289062 178.265625 C 161.523438 162.519531 177.207031 134.996094 177.339844 104.566406 L 177.335938 104.335938 C 177.335938 62.441406 199.214844 25.058594 234.34375 4.710938 C 220.203125 3.175781 205.992188 2.402344 191.769531 2.394531 C 126.394531 2.394531 61.351562 18.636719 3.660156 49.355469 C 0.945312 50.800781 0.757812 51.117188 0.550781 51.484375 C 0.0976562 52.265625 -0.0351562 52.554688 0.0078125 53.972656 C 0.703125 76.867188 3.363281 99.65625 7.957031 122.097656 C 9.003906 127.152344 10.144531 132.183594 11.386719 137.191406 C 24.664062 169.058594 56.640625 190.445312 91.078125 190.445312 C 105.742188 190.445312 120.226562 186.695312 132.960938 179.605469 Z M 236.050781 204.589844 C 235.382812 204.179688 234.707031 203.78125 234.023438 203.398438 L 233.226562 202.941406 C 220.820312 196.078125 206.394531 192.363281 191.804688 192.363281 C 177.136719 192.363281 162.707031 196.078125 150.074219 203.113281 C 149.207031 203.652344 148.058594 204.320312 146.910156 204.941406 C 129.96875 214.363281 110.644531 219.359375 91.082031 219.359375 C 71.308594 219.359375 51.703125 214.085938 34.410156 204.285156 C 66.46875 276.082031 119.613281 337.949219 185.523438 379.78125 C 187.101562 380.789062 188.191406 381.226562 192.039062 381.226562 C 195.523438 381.226562 196.371094 380.875 198.078125 379.792969 C 216.011719 368.398438 233.011719 355.59375 248.910156 341.496094 C 252.792969 338.035156 256.609375 334.503906 260.355469 330.894531 C 271.765625 315.886719 278.042969 297.34375 278.042969 278.625 C 278.042969 248.460938 261.953125 220.089844 236.050781 204.589844 Z M 383.058594 51.476562 C 382.855469 51.125 382.667969 50.800781 379.949219 49.351562 C 360.710938 39.109375 340.667969 30.453125 320.015625 23.480469 C 315.269531 21.882812 310.496094 20.371094 305.691406 18.953125 C 301.324219 18.28125 296.917969 17.941406 292.5 17.9375 C 245.300781 17.9375 206.832031 56.054688 206.261719 103.121094 L 206.261719 104.226562 C 206.277344 134.664062 221.835938 162.253906 247.902344 178.027344 L 248.28125 178.261719 C 249.078125 178.691406 250.082031 179.265625 251.019531 179.832031 C 285.179688 200.285156 306.542969 237.628906 306.945312 277.46875 C 354.097656 212.5 381.183594 133.796875 383.59375 53.941406 C 383.632812 52.535156 383.527344 52.285156 383.058594 51.476562 Z M 383.058594 51.476562 "/>
  </g>
</svg>