<svg xmlns="http://www.w3.org/2000/svg" viewBox="0 0 384 384"><path d="M225.746 384c-27.469 0-47.605-6.57-60.09-19.863-12.64-13.14-18.883-27.375-18.883-42.703 0-5.63 1.094-10.325 3.278-14.079 2.187-3.75 5.152-6.878 9.054-9.07 3.743-2.187 8.426-3.285 14.047-3.285 5.618 0 10.305 1.098 14.047 3.285 3.746 2.192 6.871 5.164 9.055 9.07 2.184 3.91 3.277 8.45 3.277 14.079 0 6.726-1.558 12.199-4.836 16.421-3.277 4.227-7.023 7.04-11.394 8.293 3.746 5.317 9.832 9.07 17.945 11.262 8.117 2.192 16.39 3.442 24.664 3.442 11.39 0 21.695-3.133 30.903-9.23 9.207-6.099 16.074-15.333 20.445-27.22 4.37-12.043 6.555-25.648 6.555-40.98 0-16.578-2.34-30.813-7.176-42.543-4.684-11.73-11.707-20.488-20.918-26.277-9.207-5.786-19.196-8.602-29.809-8.602-7.023 0-15.765 2.969-26.379 8.758l-19.351 9.695v-9.383l86.933-116.058h-120.34v120.593c0 10.012 2.184 18.145 6.555 24.715 4.371 6.41 11.082 9.696 20.133 9.696 7.02 0 13.734-2.348 20.133-7.04 6.398-4.69 12.02-10.476 16.699-17.203.629-1.253 1.25-2.347 2.187-2.972.938-.625 1.872-.938 2.81-.938 1.558 0 3.589.782 5.773 2.344 2.03 2.348 3.125 5.008 3.125 8.137a53.03 53.03 0 01-1.094 6.097c-4.996 11.106-11.864 19.707-20.606 25.496-8.738 5.946-18.414 8.758-29.027 8.758-26.063 0-44.016-5.16-54.004-15.328-9.988-10.324-14.98-24.246-14.98-41.762V99.012h-61.34V76.488h61.492V25.496L90.586 11.418V0h40.734l15.297 7.977v68.668l158.887-.47 15.766 15.798-97.391 97.601c5.93-2.344 12.016-3.754 18.414-4.379 10.613 0 22.477 3.285 35.742 10.012 13.27 6.727 23.414 15.797 30.594 27.215 7.18 11.578 11.86 22.523 13.89 33.164 2.184 10.633 3.122 20.02 3.122 28.152 0 18.774-3.903 36.29-11.864 52.403-7.957 16.109-19.82 28.152-36.05 36.132-15.766 7.817-33.247 11.73-51.977 11.73h-.004zm0 0"/></svg>