<?xml version="1.0" encoding="UTF-8" standalone="yes"?>
<svg xmlns="http://www.w3.org/2000/svg" xmlns:xlink="http://www.w3.org/1999/xlink" width="512px" height="512px" viewBox="0 0 384 384" version="1.1">
  <g id="surface1">
    <path style=" stroke:none;fill-rule:nonzero;fill:rgb(0%,0%,0%);fill-opacity:1;" d="M 192.070312 384.136719 C 86.160156 384.136719 0 297.976562 0 192.070312 C 0 86.160156 86.160156 0 192.070312 0 C 297.972656 0 384.136719 86.160156 384.136719 192.070312 C 384.136719 297.976562 297.972656 384.136719 192.070312 384.136719 Z M 192.070312 18.734375 C 96.492188 18.734375 18.738281 96.492188 18.738281 192.070312 C 18.738281 287.644531 96.492188 365.402344 192.070312 365.402344 C 287.644531 365.402344 365.398438 287.644531 365.398438 192.070312 C 365.398438 96.492188 287.644531 18.734375 192.070312 18.734375 Z M 192.070312 18.734375 "/>
    <path style=" stroke:none;fill-rule:nonzero;fill:rgb(0%,0%,0%);fill-opacity:1;" d="M 179.734375 243.222656 L 268.800781 243.222656 L 268.800781 287.984375 L 213.992188 287.984375 C 214.90625 300.773438 215.359375 312.652344 216.277344 325.441406 L 170.144531 325.441406 L 170.144531 288.445312 L 115.332031 288.445312 C 115.332031 273.824219 113.507812 259.210938 116.246094 245.511719 C 117.617188 238.199219 125.835938 231.804688 130.863281 225.410156 C 148.21875 204.855469 165.578125 184.761719 183.390625 164.207031 C 190.238281 156.445312 197.09375 149.136719 204.855469 140.457031 L 119.445312 140.457031 L 119.445312 95.695312 L 170.144531 95.695312 L 170.144531 58.242188 L 214.445312 58.242188 L 214.445312 94.78125 L 269.714844 94.78125 C 269.714844 109.855469 271.542969 124.472656 268.800781 138.171875 C 267.433594 145.480469 259.210938 151.875 253.726562 158.269531 C 236.375 178.824219 219.015625 198.917969 201.203125 219.476562 C 194.351562 227.695312 187.5 235.003906 179.734375 243.222656 Z M 179.734375 243.222656 "/>
  </g>
</svg>