<svg xmlns="http://www.w3.org/2000/svg" viewBox="0 0 510 508">
  <g fill="#000" fill-rule="nonzero">
    <path d="M381.39 253.616c-25.448-5.365-111.508-20.117-202.946 26.474C101.2 319.478 63.15 380.672 49.704 405.06c-76.2-104.258-63.15-248.947 27.989-335.72 86.856-82.75 223.615-92.933 324.366-22.402-21.565 14.007-43.179 27.965-64.744 41.972-13.696-6.954-36.007-16.243-64.744-19.123-57.173-5.762-100.103 17.632-113.8 25.828-11.653 7.003-67.681 42.369-85.162 114.49-11.804 48.726.1 88.959 5.976 105.45a228.15 228.15 0 0 1 26.147-27.22 232.304 232.304 0 0 1 21.963-17.086c-1.694-13.262-3.636-43.71 12.65-75.4 20.419-39.686 63.797-70.382 114.995-69.935 56.227.496 100.004 38.444 117.037 79.472 8.018 19.222 9.213 36.905 9.014 48.23z"/>
    <path d="M149.06 325.34c20.021-15.597 49.156-33.727 87.205-44.753 34.763-10.083 63.4-10.332 78.888-10.382 26.445-.05 48.608 3.328 64.744 6.706-1.793 9.785-10.11 48.677-46.566 77.237-33.02 25.878-68.479 27.12-79.236 27.07-11.355 0-33.17-1.44-56.975-13.41-26.744-13.461-41.685-32.932-48.06-42.469zm101.1 182.587c30.679.496 79.336-4.222 129.239-32.385 32.57-18.378 54.534-40.432 67.732-55.88 13.696-15.943 60.66-74.455 61.955-162.42 1.145-78.181-34.414-133.166-47.413-151.445-13.994 21.408-27.94 42.866-41.934 64.274 36.057 70.978 22.262 157.553-34.115 213.83-56.427 56.325-143.432 70.134-214.65 34.023-21.914 14.256-43.827 28.461-65.74 42.717 19.722 13.808 71.616 46.143 144.926 47.286z"/>
  </g>
</svg>
