<svg xmlns="http://www.w3.org/2000/svg" viewBox="0 0 383 383"><path fill-rule="evenodd" d="M260.39 86.176l-1.195.597-.8.598c.515.254.988.594 1.398 1l1 .996c9.05 6.117 17.039 13.098 23.96 20.945 6.923 7.848 12.782 16.555 17.575 26.133.266 1.063.399 1.926.399 2.59 0 .668-.266 1.399-.801 2.195l-9.582 9.575-9.586 9.578a122.607 122.607 0 00-5.992 5.582l-5.59 5.586 43.133 57.453 21.566 28.723 21.566 28.726c.266-.265.399-.465.399-.598v-.601c6.39-11.168 11.582-22.672 15.574-34.508 3.996-11.836 6.79-24.137 8.387-36.906.289-2.324.554-4.649.8-6.98.266-2.528.399-4.856.399-6.981v-17.953c0-.266-.133-.598-.398-1-.266-.399-.399-.863-.399-1.395-.27-2.926-.535-5.918-.8-8.976a96.511 96.511 0 00-1.2-8.977c-1.863-11.703-4.66-22.875-8.387-33.512-3.46-10.64-7.918-20.746-13.378-30.32-5.458-9.578-11.782-18.754-18.97-27.531-6.921-8.774-14.777-17.02-23.562-24.735-.8-.796-1.465-1.195-1.996-1.195-.535 0-1.2.399-2 1.195a577.227 577.227 0 01-25.16 20.547c-8.785 6.782-17.57 13.5-26.36 20.149zm34.348 173.547c-6.125 9.308-13.246 17.488-21.367 24.535-8.121 7.047-17.238 12.965-27.355 17.754a3.982 3.982 0 01-1.797.398c-.668 0-1.266-.398-1.797-1.195a386.698 386.698 0 01-8.188-7.582 450.032 450.032 0 01-7.789-7.578l-7.789-7.782-7.785-7.78-27.957 21.546a2240.989 2240.989 0 00-28.555 21.742c-9.464 7.32-18.98 14.57-28.554 21.742a9150.796 9150.796 0 00-28.356 21.942l.598.601.598.2c11.183 6.382 22.699 11.504 34.546 15.359 11.848 3.855 24.16 6.582 36.942 8.18a98.48 98.48 0 006.988.597c2.602.137 5.2.336 7.79.598h16.374c.531 0 .93-.133 1.2-.398.265-.266.796-.399 1.597-.399a97.819 97.819 0 016.59-.598 75.319 75.319 0 006.187-.601c19.438-2.39 37.875-7.512 55.313-15.36 17.441-7.843 33.484-18.417 48.125-31.714a208.668 208.668 0 009.586-9.38 671.733 671.733 0 019.586-9.773 1350.037 1350.037 0 01-21.766-28.722 1353.383 1353.383 0 00-21.765-28.727c0 .531-.133.996-.403 1.395a6.387 6.387 0 01-.797 1zm-168.535 35.109l-1.2-.602-.796-.597c-9.32-6.117-17.508-13.23-24.562-21.344-7.055-8.113-12.98-17.223-17.774-27.328-.266-.797-.398-1.465-.398-1.996 0-.531.398-1.063 1.199-1.594a1061.85 1061.85 0 0124.36-25.137 29.025 29.025 0 001.796-1.992c.668-.8 1.531-1.597 2.598-2.394a1164.691 1164.691 0 01-21.168-29.125 2323.52 2323.52 0 00-42.332-58.246l-20.77-29.524c-.531.531-.797.93-.797 1.195 0 .266-.265.399-.8.399-6.657 11.703-12.047 24.07-16.172 37.105a177.769 177.769 0 00-7.79 39.895 29.13 29.13 0 01-.398 4.789A31.529 31.529 0 010 183.12v16.758c.531.266.797.664.797 1.195v1.2c.27 3.988.601 7.843 1 11.566a450.61 450.61 0 001.398 11.57c3.993 19.153 10.317 37.106 18.97 53.86 8.655 16.757 19.901 32.183 33.75 46.28 2.163 2.16 4.358 4.29 6.589 6.384a307.514 307.514 0 016.586 6.382 1363.18 1363.18 0 0128.758-21.742 3817.24 3817.24 0 0128.754-20.945c-.266-.266-.399-.465-.399-.598zM45.527 69.02a874.987 874.987 0 0021.368 28.328 874.835 874.835 0 0121.367 28.324 5.27 5.27 0 011-1.395l.996-1c6.39-9.308 13.578-17.488 21.566-24.535 7.989-7.047 17.04-12.965 27.156-17.754.801-.265 1.465-.398 2-.398.532 0 1.063.398 1.598 1.195a683.97 683.97 0 0014.375 13.965l14.379 13.566c.266.266.598.532.996.797a6.48 6.48 0 011 .797 1120.4 1120.4 0 0128.356-21.144 5191.27 5191.27 0 0128.156-21.543 1423.449 1423.449 0 0128.555-21.145l28.753-21.543c-19.433-11.437-40.203-19.02-62.3-22.742-21.832-3.723-43.532-3.723-65.098 0-21.566 3.723-42.2 11.172-61.902 22.34-19.97 10.906-37.41 25.535-52.32 43.887zm0 0"/></svg>