<svg xmlns="http://www.w3.org/2000/svg" viewBox="0 0 15 15"><path d="M9.32 7.655A4.018 4.018 0 0012 4H3a4.01 4.01 0 002.63 3.631l-.707 1.413A2.494 2.494 0 106.49 13h4.223l.335.717a.5.5 0 00.905-.428L9.32 7.655zM4.5 12.75a1.25 1.25 0 110-2.5 1.25 1.25 0 010 2.5zM6.95 12a2.49 2.49 0 00-1.091-2.594L6.6 7.923a4.91 4.91 0 001.745 0l1.9 4.07L6.95 12zM4.75 1a.25.25 0 00-.25.25c0 .5-.5.5-.5.5-1 0-1 1-1 1a.25.25 0 10.5 0c0-.5.5-.5.5-.5 1 0 1-1 1-1A.25.25 0 004.75 1zm2 0a.25.25 0 00-.25.25c0 .5-.5.5-.5.5-1 0-1 1-1 1a.25.25 0 10.5 0c0-.5.5-.5.5-.5 1 0 1-1 1-1A.25.25 0 006.75 1zm2 0a.25.25 0 00-.25.25c0 .5-.5.5-.5.5-1 0-1 1-1 1a.25.25 0 10.5 0c0-.5.5-.5.5-.5 1 0 1-1 1-1A.25.25 0 008.75 1zm2 0a.25.25 0 00-.25.25c0 .5-.5.5-.5.5-1 0-1 1-1 1a.25.25 0 10.5 0c0-.5.5-.5.5-.5 1 0 1-1 1-1a.25.25 0 00-.25-.25zm2 0a.25.25 0 00-.25.25c0 .5-.5.5-.5.5-1 0-1 1-1 1a.25.25 0 10.5 0c0-.5.5-.5.5-.5 1 0 1-1 1-1a.25.25 0 00-.25-.25z"/></svg>