<svg xmlns="http://www.w3.org/2000/svg" viewBox="0 0 11 11"><path d="M9.025 7H8.84l-.278-1.67a.988.988 0 00-.979-.83H3.417c-.488 0-.9.35-.979.83L2.16 7h-.18a.98.98 0 00-.98.98V10h1a1 1 0 002 0h3a1 1 0 002 0h1V7.975A.975.975 0 009.025 7zM3.25 9a.75.75 0 110-1.5.75.75 0 010 1.5zm-.08-2l.247-1.5 4.158-.007L7.826 7H3.171zm4.58 2a.75.75 0 110-1.5.75.75 0 010 1.5zm1.747-9h-1.5A.997.997 0 007 .997V1H2.5l-1 1 1 1 1-1 1 1 1-1 1 1H7c.003.553.45 1 1.004 1h1.494A.502.502 0 0010 3.498V.503A.503.503 0 009.497 0zM9 2.5a.5.5 0 01-1 0v-1a.5.5 0 111 0v1z"/></svg>