<svg xmlns="http://www.w3.org/2000/svg" viewBox="0 0 15 15"><path d="M13 4V2.49a.5.5 0 00-.5-.49.51.51 0 00-.5.55V5a1 1 0 001 1v5.5a.5.5 0 01-1 0v-2A1.5 1.5 0 0010.5 8H9V2a1 1 0 00-1-1H2a1 1 0 00-1 1v11a1 1 0 001 1h6a1 1 0 001-1V9h1.5a.5.5 0 01.5.5v2a1.5 1.5 0 003 0V5a1 1 0 00-1-1zM7.2 7.4l-2.6 3.467-.017-.007c-.046.078-.116.14-.214.14a.267.267 0 01-.267-.267c0-.028.021-.047.03-.072l-.018-.008.776-2.324A.25.25 0 004.653 8H3a.25.25 0 01-.2-.4l2.6-3.467.017.007c.046-.078.116-.14.214-.14.148 0 .267.12.267.267 0 .028-.021.046-.03.072l.018.008L5.11 6.67a.25.25 0 00.237.33H7a.25.25 0 01.2.4z"/></svg>