<svg xmlns="http://www.w3.org/2000/svg" viewBox="0 0 11 11"><path d="M9.751 3h-.75V1.25a.25.25 0 00-.25-.25h-.5a.25.25 0 00-.25.25V3h-.75a.25.25 0 00-.25.25v3.751h-1.75a.251.251 0 00-.25.251v2.5a.251.251 0 00.25.249h4.501a.25.25 0 00.25-.25V3.25a.25.25 0 00-.25-.25zm-3.75 5.001h1v1H6v-1zm3 1H8v-1h1v1zm0-2H8v-1h1v1zm0-2H8v-1h1v1zm-3-3.75A.25.25 0 005.75 1h-2.5a.25.25 0 00-.25.25V2h-.75a.25.25 0 00-.25.25V3h-.75a.25.25 0 00-.25.25v6.501c0 .138.112.25.25.25H4v-4h2V1.25zM3 9H2V8h1v1zm0-2H2V6h1v1zm0-2H2V4h1v1zm2 0H4V4h1v1zm0-2H4V2h1v1.001z"/></svg>