<svg xmlns="http://www.w3.org/2000/svg" viewBox="0 0 11 11"><path d="M9.25 2.25h-3V1.5a.75.75 0 00-1.5 0v.75h-3a.75.75 0 000 1.5h.403a9.139 9.139 0 001.66 2.966c.218.274.43.52.636.754a6.088 6.088 0 01-1.9 1.307.75.75 0 00.391 1.448 6.728 6.728 0 002.558-1.672 6.722 6.722 0 002.563 1.672.736.736 0 00.188.024.746.746 0 00.717-.55.756.756 0 00-.515-.923A6.024 6.024 0 016.546 7.47c.207-.234.417-.48.636-.754a9.193 9.193 0 001.663-2.967h.405a.75.75 0 000-1.5zM6.008 5.781c-.177.223-.343.41-.51.601-.168-.191-.334-.378-.511-.6A8.51 8.51 0 013.75 3.748h3.497a8.574 8.574 0 01-1.24 2.033z"/></svg>