<svg xmlns="http://www.w3.org/2000/svg" viewBox="0 0 11 11"><path d="M9.24 2.513a.746.746 0 00-.745-.746.746.746 0 10-1.493 0v1.746A2.489 2.489 0 003.512 7H1.747a.746.746 0 000 1.492.746.746 0 00.747.746.746.746 0 001.492 0v-1.76a2.489 2.489 0 003.506-3.473H9.24a.746.746 0 000-1.492zM5.5 7.284a1.782 1.782 0 01-.72-3.413.816.816 0 01.244.177 1.648 1.648 0 01.301 1.076v.737a1.972 1.972 0 00.388 1.322 1.155 1.155 0 00.096.07 1.776 1.776 0 01-.309.031zm.72-.155a.816.816 0 01-.244-.177 1.648 1.648 0 01-.301-1.076v-.737a1.972 1.972 0 00-.388-1.322 1.155 1.155 0 00-.096-.07A1.78 1.78 0 016.22 7.13z"/></svg>