<svg xmlns="http://www.w3.org/2000/svg" viewBox="0 0 11 11"><path d="M8.821 4.269h-.62c-.155-.6-.28-1.066-.283-1.074l-.01-.05c0-.001-.12-.548-.41-.548h-3.98c-.289 0-.41.547-.41.553-.008.033-.136.511-.293 1.118h-.62c.176-.68.323-1.23.323-1.23s.187-1.04 1-1.04h.496a.493.493 0 01.483-.416h2a.493.493 0 01.483.415h.517c.812 0 1 1.042 1 1.042s.147.549.323 1.23zM2.92 9.995a.494.494 0 01-.483-.368c-.23-.873-.8-3.053-.938-3.63a.5.5 0 110-1h8a.5.5 0 010 1c-.137.577-.715 2.76-.948 3.632a.495.495 0 01-.483.366zM4.013 6.7a.513.513 0 00-1.024 0v1.81a.513.513 0 001.024 0zm1.997 0a.513.513 0 00-1.024 0v1.81a.513.513 0 001.024 0zm2.006 0a.513.513 0 00-1.024 0v1.81a.513.513 0 001.024 0z"/></svg>