<svg xmlns="http://www.w3.org/2000/svg" viewBox="0 0 15 15"><path d="M11.98 9.48l-.72-.72c-.918 1.057-2.254 1.74-3.76 1.74-2.757 0-5-2.243-5-5 0-1.506.683-2.842 1.74-3.76l-.72-.72A5.978 5.978 0 001.5 5.5c0 3.145 2.42 5.72 5.5 5.975V13h-.5a.5.5 0 100 1h2a.5.5 0 000-1H8v-1.527a5.982 5.982 0 003.98-1.992z"/><path d="M7.5 9a3.5 3.5 0 100-7 3.5 3.5 0 000 7zm1-5l.364-.592a2.5 2.5 0 01.823.905L9.5 5h-1V4zm-1.844-.844L7.5 4v1L8 6h1.94a2.495 2.495 0 01-1.502 1.814L8 7H6.5L5.05 5a2.496 2.496 0 011.606-1.844z"/></svg>