<svg xmlns="http://www.w3.org/2000/svg" viewBox="0 0 11 11"><path d="M1.217 8.365a1.008 1.008 0 00.206 1.453c.418.29.944.238 1.317-.134 1.281-1.28 2.562-2.561 3.841-3.844.064-.064.114-.085.207-.054.428.146.866.163 1.306.061a2.45 2.45 0 001.835-2.975c-.023-.094-.057-.185-.094-.305-.035.044-.997 1.013-1.459 1.48a.205.205 0 01-.195.067C8.08 4.098 7.287 4.034 7 4c-.048-.41-.073-.836-.115-1.238-.004-.038.023-.09.051-.119.35-.354 1.332-1.333 1.476-1.476-.312-.147-.847-.206-1.245-.14a2.45 2.45 0 00-1.95 3.197c.026.08.01.126-.047.182l-3.953 3.96z"/></svg>