<svg xmlns="http://www.w3.org/2000/svg" viewBox="0 0 11 11"><path d="M4 1a1 1 0 111 1 1 1 0 01-1-1zm6.88 3.5L9 3v-.5L7 5H6l1 1v1.014a.5.5 0 11-1 0V6.5L4 5H3a1 1 0 00-.8.446A1.189 1.189 0 001.247 5 1.076 1.076 0 000 5.988C0 7.3.635 7.471.635 7.471a.33.33 0 00.115.023A.253.253 0 001 7.25V6a.49.49 0 01.48-.5h.02A.5.5 0 012 6v2.014l-.3.6a1.609 1.609 0 00-.2.6v1.542a.244.244 0 00.244.244.255.255 0 00.256-.244V9.514a.367.367 0 01.1-.3l.9-1.2V9l.467 1.816a.256.256 0 00.242.184.25.25 0 00.25-.25v-.016l-.242-1.61a.6.6 0 01.025-.236l.058-.174L4 8h2v1l.466 1.816a.256.256 0 00.243.184.25.25 0 00.25-.25l-.241-1.626a.6.6 0 01.025-.236L7 8a.877.877 0 00.934-.661L8.5 4.5a.6.6 0 00.71.454.562.562 0 00.143-.07l.9.116a.721.721 0 00.392.1.331.331 0 00.355-.316.406.406 0 00-.12-.284zM6 3.5a.51.51 0 00-.5-.5h-1a.482.482 0 00-.5.5V5h2z"/></svg>