<svg xmlns="http://www.w3.org/2000/svg" viewBox="0 0 11 11"><path d="M4.579 9.579L3 8h1.4a.25.25 0 00.25-.25.246.246 0 00-.079-.179L3 6h.736a.25.25 0 00.25-.25.246.246 0 00-.078-.179l-1.2-1.253a.253.253 0 00-.4-.015c-.02.023-1.21 1.266-1.21 1.266a.245.245 0 00-.082.18.25.25 0 00.25.25H2L.425 7.575A.249.249 0 00.6 8H2L.434 9.566a.244.244 0 00-.082.18A.25.25 0 00.6 10H2v1h1v-1h1.4a.247.247 0 00.179-.421zm6.242-.938l-2.1-4.2a.248.248 0 00-.443 0l-2.1 4.2A.248.248 0 006.4 9h4.2a.248.248 0 00.221-.359zM7.5 7l1-2 1 2zm.279-5.921a.266.266 0 01-.049.148A3.513 3.513 0 007 3a2.141 2.141 0 01-1.291 1.911.475.475 0 01-.419 0A2.141 2.141 0 014 3a3.5 3.5 0 00-.726-1.769.271.271 0 01-.046-.148.25.25 0 01.25-.25.27.27 0 01.067.009A2.939 2.939 0 015 2L5.25.224A.25.25 0 015.744.2L6 2A2.957 2.957 0 017.453.841a.272.272 0 01.076-.012.25.25 0 01.25.25z"/></svg>