<svg xmlns="http://www.w3.org/2000/svg" viewBox="0 0 11 11"><path d="M9.5 8.5c-.547.519-1.66.435-2.5.5v1L4.5 8.5 7 7v1h1c.634 0 .83 0 1.054-.127a.81.81 0 00.413-.958c-.085-.358.4-.425.485-.115A1.724 1.724 0 019.5 8.5zM1.948 5.092l-.001.002c-.4.743-1.065 1.637-.921 2.377a1.724 1.724 0 001.192 1.293c.372.12.466-.395.161-.472a.81.81 0 01-.586-.862c.012-.258.122-.42.461-.956l.537-.843V5.63l.844.537.078-2.914-2.608 1.302.843.537zm2.936-3.178a.81.81 0 011.025-.189c.231.115.336.281.689.807.14.208.32.479.555.832l-.831.555 2.636 1.246-.141-2.912-.833.556c-.52-.662-1.067-1.63-1.796-1.795a1.724 1.724 0 00-1.671.562c-.264.338.199.546.367.338z"/></svg>