<svg xmlns="http://www.w3.org/2000/svg" viewBox="0 0 15 15"><path d="M13.498 6.999h-.533a5.463 5.463 0 00-1.248-3.01l.378-.379a.5.5 0 00-.695-.719l-.012.012-.378.378a5.464 5.464 0 00-3.011-1.248V1.5a.5.5 0 00-1 0v.533a5.464 5.464 0 00-3.01 1.248L3.61 2.9a.5.5 0 00-.707.707l.378.377A5.463 5.463 0 002.034 7H1.5a.5.5 0 000 1h.533a5.463 5.463 0 001.247 3.01l-.378.378a.5.5 0 00.695.72l.012-.013.378-.378a5.462 5.462 0 003.011 1.249v.533a.5.5 0 001 0v-.533a5.463 5.463 0 003.01-1.249l.379.378a.5.5 0 00.719-.695l-.012-.012-.378-.378A5.464 5.464 0 0012.965 8h.533a.5.5 0 000-1zm-5.5-3.948a4.45 4.45 0 012.293.948l-2.15 2.15a1.484 1.484 0 00-.143-.058v-3.04zm-1 0v3.04a1.484 1.484 0 00-.142.058l-2.15-2.15a4.45 4.45 0 012.293-.949zm-3 1.655l2.15 2.15A1.484 1.484 0 006.092 7H3.05a4.45 4.45 0 01.948-2.293zM3.05 8h3.041c.017.048.036.096.058.143l-2.15 2.15A4.448 4.448 0 013.05 8zM7 11.947a4.45 4.45 0 01-2.293-.949l2.15-2.15c.047.022.095.041.143.058v3.041zm1 0v-3.04c.049-.017.096-.037.143-.058l2.15 2.15A4.448 4.448 0 018 11.947zm3-1.656l-2.15-2.15c.022-.046.041-.094.058-.143h3.041a4.448 4.448 0 01-.95 2.293zM8.907 7a1.484 1.484 0 00-.058-.143l2.15-2.15a4.45 4.45 0 01.948 2.292h-3.04z"/></svg>