<svg xmlns="http://www.w3.org/2000/svg" viewBox="0 0 11 11"><path d="M8.478 7.186h1.494v.6H8.647a3.386 3.386 0 011.05 1.544l-.568.193a2.758 2.758 0 00-1.26-1.548L6.372 8.991 4.53 8.974l-1.492-.963a2.748 2.748 0 00-1.206 1.513l-.568-.193a3.386 3.386 0 011.051-1.546H.99v-.6h1.498a.539.539 0 01.073-.08l.712-.64-.7-1.143c-.014 0-.024.005-.04.005 0 0-1.533 0-1.533-1.444A4.964 4.964 0 012.533.994L2 3v1h1l.992-2.006v2a1.423 1.423 0 01-.703 1.159l.514.838.132-.118a2.552 2.552 0 013.11 0l.116.104.514-.838a1.426 1.426 0 01-.668-1.145v-2L8 4h1V3L8.466.994a4.968 4.968 0 011.528 2.889c0 1.444-1.528 1.444-1.528 1.444-.03 0-.05-.008-.078-.01L7.69 6.454l.673.605a.551.551 0 01.114.128z"/></svg>