<svg xmlns="http://www.w3.org/2000/svg" viewBox="0 0 11 11"><path d="M1 9h2a.979.979 0 01-1 1 .979.979 0 01-1-1zm8.753-5H9V3h.351a.282.282 0 00.223-.148l.268-.536a.333.333 0 00.009-.066A.25.25 0 009.6 2H9v-.5H6.25a.25.25 0 000 .5H8v2.5L5 7H4V5.5a.5.5 0 00-.5-.5H3V4h1.75A.25.25 0 005 3.75a.245.245 0 00-.223-.239V3.5L1.25 3a.25.25 0 00-.25.25v.5a.25.25 0 00.25.25H2v1h-.5a.5.5 0 00-.5.5V8h5.172a1 1 0 00.709-.294l.419-.414A1 1 0 018 7h1.752A.248.248 0 0010 6.752v-2.5A.247.247 0 009.753 4zM9 8a1 1 0 101 1 1 1 0 00-1-1z"/></svg>