<svg xmlns="http://www.w3.org/2000/svg" viewBox="0 0 15 15"><path d="M15 8.1c0 1.376-1.363.694-1.363.694L12.5 9H11a5.309 5.309 0 01-1.5 2 3.272 3.272 0 01-.523 1.125c-.077.091-.061.2-.068.33l.091 2.3a.264.264 0 01-.266.25.242.242 0 01-.234-.205L8 11.5H4v3.253a.247.247 0 01-.247.247.25.25 0 01-.241-.2L3 12v-.5a8.2 8.2 0 01-1.426-.1A1.886 1.886 0 01.9 12.826c-.128.083-.148.211-.133.386l.19 1.538a.25.25 0 01-.25.25.238.238 0 01-.23-.174l-.427-1.7a.35.35 0 01.055-.3c.437-.68-.049-2.55-.049-2.55A1.354 1.354 0 010 9.922V7.5a2.027 2.027 0 012.736-1.914s.1.03.142.049a15.15 15.15 0 003.814.038l.179-.062a1.842 1.842 0 011.26 0 .972.972 0 01.227.089 1.994 1.994 0 01.287.171A1.8 1.8 0 009.5 6h1V5l.5.5c.5-1.5 2.5-1 2.5-1a1.687 1.687 0 00-1.5 1l2.5 2a.613.613 0 01.186-.069.318.318 0 01.314.321V8.1z"/></svg>