<svg xmlns="http://www.w3.org/2000/svg" viewBox="0 0 11 11"><path d="M11 5.75v.241C11 7 10 6.5 10 6.5H8A3.081 3.081 0 017 8a2.848 2.848 0 01-.416.9.26.26 0 00-.05.242l.458 1.55A.227.227 0 017 10.75a.25.25 0 01-.25.25.259.259 0 01-.244-.173L6 9v-.5H2.75l-.21.42a.25.25 0 00-.02.168L3 10.75a.25.25 0 01-.25.25.26.26 0 01-.237-.172L2 9v-.5a4.013 4.013 0 01-.843-.139 1.383 1.383 0 01-.5 1.045.242.242 0 00-.094.282l.414.99a.213.213 0 01.011.072.25.25 0 01-.25.25.253.253 0 01-.228-.148L0 9.5a6.031 6.031 0 000-2v-2a1.486 1.486 0 012-1.4s.768.132 1.1.154a2.457 2.457 0 00.9-.167A1.666 1.666 0 014.5 4a1.648 1.648 0 01.844.257 3.166 3.166 0 00.9.23L7 4.5 8 4v-.5l.5.5a1.474 1.474 0 011.5-.5.914.914 0 00-1 .5l1 1 .68.529a.425.425 0 01.07-.029.238.238 0 01.25.25z"/></svg>