<svg xmlns="http://www.w3.org/2000/svg" viewBox="0 0 11 11"><path d="M2.777 2.3L.3 5.6a.272.272 0 00-.05.15A.25.25 0 00.5 6H1v3.745a.255.255 0 00.255.255h2.49A.255.255 0 004 9.745V5.467a.253.253 0 01.064-.167L5 4.5 3.2 2.316a.255.255 0 00-.423-.016zM3 7H2V6h1zm6.75-4h-.5a.25.25 0 00-.25.25V5.2L7.658 4.126a.253.253 0 00-.316 0L5.1 5.926a.253.253 0 00-.095.2v3.621a.253.253 0 00.248.253h1.494A.253.253 0 007 9.747V8h1v1.747a.253.253 0 00.253.253h1.494A.253.253 0 0010 9.747V3.25A.25.25 0 009.75 3zM7 7H6V6h1zm2 0H8V6h1z"/></svg>