<svg xmlns="http://www.w3.org/2000/svg" viewBox="0 0 11 11"><path d="M9.99 5.73a3.657 3.657 0 01-.1.74 6.322 6.322 0 00-2.45-1.42 5.954 5.954 0 00-1.32-.27c-.03 0-.07-.01-.11-.01a4.605 4.605 0 01-.51-1.13 1.056 1.056 0 01-.06-.24h.12a4.878 4.878 0 011.01.11 5.039 5.039 0 011.14.36 4.834 4.834 0 01.94.53 5.136 5.136 0 011.34 1.33zm-.66 1.58a5.196 5.196 0 00-1.36-.97c-.05.1-.11.19-.17.29a5.864 5.864 0 01-.59.82 7.18 7.18 0 01-.78.78 6.72 6.72 0 01-.93.65 6.364 6.364 0 01-1.86.72 4.524 4.524 0 003.72 0 4.158 4.158 0 001.25-.86 3.198 3.198 0 00.43-.47 3.747 3.747 0 00.48-.76 1.192 1.192 0 00-.19-.2zm-.65-4.99a4.508 4.508 0 00-1.24-.88 3.979 3.979 0 00-.75-.28 4.342 4.342 0 00-1.03-.15 1.279 1.279 0 00-.32 0 5.363 5.363 0 00-.09.99c0 .14.01.28.02.41a1.617 1.617 0 01.22-.01 1.924 1.924 0 01.24.01 6.65 6.65 0 011 .11 5.695 5.695 0 011 .28 6.781 6.781 0 011.02.47 6.665 6.665 0 01.98.69 4.566 4.566 0 00-1.05-1.64zM3.03 6.34a5.808 5.808 0 01-.4-.92 5.785 5.785 0 01-.28-1.03 6.86 6.86 0 01-.1-1.12v-.02a5.656 5.656 0 01.07-.93 4.394 4.394 0 00-1.05 1.65A4.32 4.32 0 001 5.5a1.767 1.767 0 00.01.23 4.416 4.416 0 00.09.73 4.075 4.075 0 00.31.91 1.069 1.069 0 00.27-.07 5.068 5.068 0 001.52-.67c-.06-.1-.12-.19-.17-.29zm3.88-.4a5.5 5.5 0 00-1.35-.19c-.02.03-.04.05-.06.08a6.247 6.247 0 01-.91 1.01 5.833 5.833 0 01-.8.61 6.573 6.573 0 01-1.83.82 3.198 3.198 0 00.43.47 5.172 5.172 0 002.18-.51 5.415 5.415 0 00.93-.55 5.596 5.596 0 00.91-.84A4.805 4.805 0 007 6.01a.052.052 0 00.02-.04.228.228 0 00-.11-.03zM4.88 4.78a5.64 5.64 0 01-.45-1.27 6.386 6.386 0 01-.16-.99c-.01-.17-.02-.35-.02-.52a5.83 5.83 0 01.06-.84 3.982 3.982 0 00-.75.28 5.58 5.58 0 00-.29 1.36c-.01.15-.02.3-.02.45a4.215 4.215 0 00.04.62 4.71 4.71 0 00.27 1.18 5.098 5.098 0 00.42.92.052.052 0 00.02.04.178.178 0 00.08-.07h.01a5.682 5.682 0 00.84-1.06.313.313 0 01-.05-.1z"/></svg>