<svg xmlns="http://www.w3.org/2000/svg" viewBox="0 0 15 15"><path d="M13.91 7.94a5.909 5.909 0 01-.13.94 8.822 8.822 0 00-2.17-1.49 8.89 8.89 0 00-1.4-.56 8.614 8.614 0 00-1.82-.35.221.221 0 00-.08-.01 7.32 7.32 0 01-.81-1.88c-.01-.01-.01-.01 0-.02a7.757 7.757 0 011.52.15 7.099 7.099 0 011.56.5 6.859 6.859 0 011.4.78 7.417 7.417 0 011.93 1.94zm-1.87-5a6.223 6.223 0 00-1.85-1.27 4.272 4.272 0 00-.98-.36 5.641 5.641 0 00-1.55-.23 1.288 1.288 0 00-.32 0 7.426 7.426 0 00-.13 1.42c0 .2.01.39.02.58a2.28 2.28 0 01.26-.01 2.644 2.644 0 01.28.01 8.287 8.287 0 011.49.16 8.988 8.988 0 011.35.37 8.792 8.792 0 011.53.7 10.18 10.18 0 011.39.97 6.459 6.459 0 00-1.49-2.34zM4.01 8.76a9.408 9.408 0 01-.62-1.37 9.104 9.104 0 01-.37-1.41 9.175 9.175 0 01-.16-1.67v-.03a8.455 8.455 0 01.1-1.34A6.28 6.28 0 001.47 5.3a6.222 6.222 0 00-.4 2.2c0 .15.01.3.02.44a5.909 5.909 0 00.13.94 5.734 5.734 0 00.41 1.23c.22-.05.44-.11.65-.17a8.019 8.019 0 001.9-.88c-.06-.1-.12-.2-.17-.3zm2.6-2.28a9 9 0 01-.63-1.76 9.135 9.135 0 01-.24-1.48c-.02-.25-.03-.49-.03-.74a9.378 9.378 0 01.08-1.19 4.272 4.272 0 00-.98.36 7.704 7.704 0 00-.42 1.94c-.02.22-.03.44-.03.67a7.266 7.266 0 00.06.93 7.426 7.426 0 00.37 1.63 6.47 6.47 0 00.59 1.28 8.017 8.017 0 001.27-1.57.252.252 0 01-.04-.07zm6.09 3.45s0-.01-.01 0a7.013 7.013 0 00-1.7-1.16c-.06.1-.11.19-.17.29a8.783 8.783 0 01-.88 1.22 8.912 8.912 0 01-1.06 1.07 10.418 10.418 0 01-1.38.98 8.993 8.993 0 01-2.64 1.02 6.298 6.298 0 005.28 0 5.967 5.967 0 002.42-1.89 4.826 4.826 0 00.65-1.03 6.032 6.032 0 00-.51-.5zm-5.17-2c-.01.01-.02.03-.03.04a9.26 9.26 0 01-1.25 1.4 9.592 9.592 0 01-1.19.91 9.268 9.268 0 01-2.62 1.18 6.099 6.099 0 00.53.61 7.735 7.735 0 003.15-.72 7.384 7.384 0 001.38-.82 7.643 7.643 0 001.25-1.16 7.744 7.744 0 00.82-1.15 7.341 7.341 0 00-2.04-.29z"/></svg>