<svg xmlns="http://www.w3.org/2000/svg" viewBox="0 0 11 11"><path d="M9.987 4.375a3.487 3.487 0 00-3.362-3.362V1h-.25v.013A3.476 3.476 0 003.7 2.43L2.506 1 0 4h1v4l1.8-1 1.8 1 1.12-.622A2.98 2.98 0 014.476 6.7l1.776-1.775a.482.482 0 00.123.05v2.04L6.401 7l.224.124v-2.15a.482.482 0 00.123-.05L8.524 6.7c-.381.35-.85.602-1.371.718l.593.33a3.477 3.477 0 002.241-3.123H10v-.25h-.013zM4.3 6.524a2.977 2.977 0 01-.787-1.899h2.512a.482.482 0 00.05.123L4.3 6.524zm1.725-2.149H3.513c.03-.732.322-1.393.787-1.899l1.775 1.776a.482.482 0 00-.05.123zm.35-.35a.482.482 0 00-.123.05L4.476 2.3a2.977 2.977 0 011.899-.787v2.512zm.25 0V1.513c.732.03 1.393.322 1.899.787L6.748 4.075a.482.482 0 00-.123-.05zM8.7 6.523L6.925 4.748a.482.482 0 00.05-.123h2.512A2.977 2.977 0 018.7 6.524zM6.975 4.376a.482.482 0 00-.05-.123L8.7 2.476c.465.506.757 1.167.787 1.899H6.975zM6.4 8L4.6 9l-.792-.44L2.8 8l-1.008.56L1 9v1l1.8-1 1.8 1 1.801-1L8.2 10 10 9V8L8.2 9 6.401 8z"/></svg>