<svg xmlns="http://www.w3.org/2000/svg" viewBox="0 0 24 24"><path d="M23.927 12.153a8.388 8.388 0 01-.153-.034c-.077-.017-.091-.011-.119.061a.593.593 0 01-.158.244c-.166.144-.374.079-.472-.063a.574.574 0 01-.088-.226c-.013-.075-.014-.091.016-.146a1.73 1.73 0 00.161-.424c.067-.287.107-.563.137-.868.017-.179.032-.361.036-.542.006-.256.017-.513-.026-.768a.919.919 0 00-.103-.319.382.382 0 00-.322-.202.46.46 0 00-.432.221 1.026 1.026 0 00-.138.333c-.047.183-.06.37-.066.557-.005.166.001.333.01.5.007.138.022.276.037.414.012.113.026.227.044.339.018.113-.013.132-.121.116a1.151 1.151 0 00-.884.236.843.843 0 00-.341.494c-.007.032-.005.072-.019.1a.76.76 0 01-.172.237.354.354 0 01-.286.091c-.103-.009-.153-.073-.189-.157a.768.768 0 01-.059-.291c-.001-.111.008-.222.009-.333a.33.33 0 00-.132-.272.539.539 0 00-.266-.103 1.873 1.873 0 00-.456.004c-.028.003-.036 0-.059-.023a.355.355 0 00-.337-.099c-.091.016-.159.087-.181.185-.019.086.008.178.083.227.054.035.09.053.146.063.046.008.05.014.05.056-.002.06-.003.121-.01.181a.882.882 0 01-.096.332c-.074.136-.186.224-.341.231-.228.011-.394-.131-.423-.372-.008-.066-.007-.134-.008-.2l-.001-.476c0-.06-.013-.078-.078-.078l-.172-.003c-.061-.001-.086.002-.091.071-.047-.019-.091-.044-.136-.059a1.08 1.08 0 00-.561-.029 1.161 1.161 0 00-.62.323c-.045.045-.085.098-.126.144a5.972 5.972 0 01-.378.385.07.07 0 01-.072.016c-.028-.012-.043-.031-.043-.064l-.001-.653c0-.057-.017-.074-.072-.075a8.14 8.14 0 00-.221 0c-.042 0-.051.001-.051.044.001.129-.011.214-.025.301-.03.177-.067.288-.143.427a.674.674 0 01-.192.232c-.121.087-.237.085-.355-.006a.669.669 0 01-.175-.21 1.495 1.495 0 01-.179-.714c-.001-.053-.02-.074-.072-.075a8.894 8.894 0 00-.231 0c-.05.001-.07.021-.072.072a9.797 9.797 0 01-.01.171c-.011.15-.041.297-.093.439a.729.729 0 01-.167.28.266.266 0 01-.369.015.499.499 0 01-.127-.161 1.392 1.392 0 01-.144-.575c-.008-.206-.151-.331-.324-.367a.8.8 0 00-.316-.002c-.036.007-.064.007-.092-.03a.232.232 0 00-.174-.097.638.638 0 00-.131.002.283.283 0 00-.224.399c.03.065.08.115.146.146.064.031.072.044.041.116a1.144 1.144 0 01-1.161.666.563.563 0 01-.286-.11c-.062-.046-.112-.098-.127-.179-.004-.021-.001-.048.015-.057.012-.007.039 0 .052.008.189.1.388.126.596.1a.67.67 0 00.394-.199.427.427 0 00-.051-.654.67.67 0 00-.561-.125.971.971 0 00-.743.629.618.618 0 00-.018.434c.067.19.202.32.38.406.218.106.455.119.689.082.35-.056.65-.213.887-.479.152-.17.256-.36.326-.579a.339.339 0 00.02-.106c.001-.023.009-.026.034-.029.075-.009.137-.012.213-.01.042.001.072.022.076.062.012.139.029.261.057.383.043.188.117.355.242.506.2.242.545.299.79.151a.777.777 0 00.283-.308c.042-.082.105-.092.155-.002.061.108.142.2.242.275a.602.602 0 00.568.107.724.724 0 00.306-.195c.014-.014.038-.036.05-.051.004.109.004.118-.04.166-.185.197-.362.4-.511.626a2.734 2.734 0 00-.34.671c-.061.19-.091.383-.054.583a.709.709 0 00.347.511.5.5 0 00.4.048.549.549 0 00.329-.262c.034-.063.067-.137.09-.205.054-.158.077-.326.095-.496.014-.126.021-.273.026-.41.005-.134.002-.268.002-.402l.003-.526c0-.037-.003-.045.027-.077.106-.109.201-.204.3-.311.045-.046.09-.047.121.011a.669.669 0 00.303.288c.189.095.395.11.601.083.245-.032.456-.131.642-.294.052-.046.079-.042.126.013a.72.72 0 00.725.244.73.73 0 00.49-.366c.105-.177.141-.375.156-.577.003-.042.004-.087.004-.127 0-.041.027-.07.069-.072.073-.004.156-.004.229-.003a.65.65 0 01.132.013c.039.009.046.026.041.064-.006.052-.014.104-.014.156-.002.146.01.29.048.432a.8.8 0 00.137.294.526.526 0 00.412.203.692.692 0 00.531-.195c.042-.041.075-.04.12.005.14.136.311.199.5.218.22.022.433-.017.635-.111.127-.059.243-.135.34-.237.048-.05.098-.048.141.019a.634.634 0 00.859.223.813.813 0 00.394-.507c.02-.066.003-.094-.065-.108zm-13.078-.43a.536.536 0 01.287-.102.324.324 0 01.243.071c.055.046.058.091.007.141a.359.359 0 01-.288.104.664.664 0 01-.233-.04c-.018-.007-.037-.014-.053-.024-.026-.015-.037-.033-.037-.053-.001-.037.031-.066.074-.097zm4.724 2.248a2.44 2.44 0 01-.089.588c-.025.078-.062.184-.125.238-.079.068-.163.079-.252.003-.101-.081-.14-.182-.149-.315-.013-.197.05-.377.132-.552.096-.207.218-.392.357-.572.021-.027.043-.053.08-.042.032.01.055.034.056.072v.216c0 .066-.002.243-.01.364zm2.255-1.834a.612.612 0 01-.24.259.869.869 0 01-.456.141.621.621 0 01-.34-.08c-.085-.052-.143-.123-.15-.227a.312.312 0 01.068-.215.831.831 0 01.339-.271c.189-.075.392-.102.577-.029.107.042.198.11.227.224a.3.3 0 01-.025.198zm4.616.029a.657.657 0 01-.279.261.863.863 0 01-.402.109.606.606 0 01-.326-.072.31.31 0 01-.148-.161.097.097 0 01.003-.078c.054-.101.11-.203.174-.298a.528.528 0 01.319-.221.775.775 0 01.481.009c.113.043.197.114.223.24a.311.311 0 01-.045.211zm.431-1.157c-.016.126-.043.25-.066.375-.008.044-.036.069-.071.069-.032.001-.061-.022-.069-.065-.023-.118-.047-.237-.063-.356-.014-.111-.025-.213-.037-.32a5.155 5.155 0 01-.023-.352c-.003-.101-.01-.203-.007-.304.006-.197.011-.395.067-.586a.785.785 0 01.074-.18c.02-.035.05-.072.091-.079.039-.007.089.003.104.04.024.06.036.114.048.177.029.156.034.324.031.483a9.534 9.534 0 01-.079 1.098zm-12.963.629a.785.785 0 00-.571-.298 1.254 1.254 0 00-.501.059c-.058.019-.122-.004-.123-.065 0-.038.021-.154.033-.235.013-.08.026-.208.042-.39.016-.182.023-.365.034-.548.003-.047.005-.093.003-.14-.002-.094-.01-.187-.017-.28a1.18 1.18 0 00-.08-.361c-.132-.342-.47-.326-.66-.211a.586.586 0 00-.224.27c-.087.19-.107.402-.121.607-.007.101-.004.228-.005.329-.001.183.021.39.038.573.018.185.039.3.07.466.047.253.123.482.241.711a.118.118 0 01.005.097.646.646 0 01-.048.107c-.097.162-.338.276-.538.04a.748.748 0 01-.141-.303 1.894 1.894 0 00-.056-.181c-.06-.16-.144-.314-.286-.416-.149-.107-.316-.155-.494-.089a.612.612 0 00-.26.194c-.033.041-.056.081-.086.127-.038.058-.106.062-.144.005a.858.858 0 00-.243-.267.462.462 0 00-.274-.084.462.462 0 00-.277.093.766.766 0 00-.107.1c-.013-.051-.033-.087-.082-.088l-.174-.001c-.054 0-.098.022-.099.094a5.901 5.901 0 00-.003.133 1.933 1.933 0 01-.078.485.838.838 0 01-.121.261c-.067.097-.145.091-.208.027a.582.582 0 01-.096-.135c-.124-.234-.167-.459-.179-.75-.003-.07-.027-.113-.109-.115a3.129 3.129 0 00-.137 0 .112.112 0 00-.108.109c-.007.185-.05.373-.123.548a.695.695 0 01-.212.305c-.07.058-.113.084-.203.084a.303.303 0 01-.183-.075.672.672 0 01-.181-.227 1.462 1.462 0 01-.161-.641c-.001-.06-.041-.102-.096-.103h-.187c-.057 0-.07-.001-.071.065a3.349 3.349 0 01-.023.344c-.018.128-.045.24-.102.356a.522.522 0 01-.259.268.404.404 0 01-.345-.026 1.049 1.049 0 01-.282-.238.101.101 0 01-.007-.116c.1-.144.176-.29.245-.468.043-.109.083-.234.112-.376a6.16 6.16 0 00.072-.868 3.657 3.657 0 00-.014-.326 1.228 1.228 0 00-.098-.402c-.075-.158-.187-.289-.363-.322a.536.536 0 00-.441.104.64.64 0 00-.168.243 1.632 1.632 0 00-.114.597c-.008.196-.003.422.02.617.02.167.039.326.063.492.035.238.092.436.192.655.025.055.033.094-.009.136-.062.063-.125.132-.188.193a3.252 3.252 0 01-.562.436.081.081 0 00-.032.102c.023.054.06.115.089.168.027.049.073.053.122.028.045-.023.118-.077.166-.109.218-.146.406-.314.498-.406.04-.04.073-.07.097-.093.033-.033.088-.027.129.019.079.088.192.173.297.232a.719.719 0 00.585.075.793.793 0 00.432-.331c.064-.094.125-.091.189.008a.798.798 0 00.167.181.659.659 0 00.385.152.622.622 0 00.45-.158.967.967 0 00.18-.203c.029-.043.076-.061.115-.043.025.012.047.046.062.069a.95.95 0 00.184.217.44.44 0 00.555.043c.015-.011.041-.031.061-.044.009.073.043.08.115.081h.19c.043 0 .043 0 .043-.036a2.155 2.155 0 01.113-.745.672.672 0 01.178-.282.16.16 0 01.103-.047c.056 0 .087.028.12.061a.547.547 0 01.105.139c.094.203.132.359.162.572.009.078.011.163.009.241-.001.03.007.029.042.03.093.001.208-.002.301-.002.027 0 .026-.001.026-.028a1.838 1.838 0 01.122-.693.743.743 0 01.178-.284c.055-.049.12-.05.184-.019a.335.335 0 01.095.077c.098.112.138.254.171.397.049.21.142.386.337.53a.65.65 0 00.814-.03c.037-.03.061-.049.084-.049a.21.21 0 01.026.001c.015.002.042.02.075.047a.802.802 0 00.477.189c.169.016.334-.005.496-.061.25-.086.457-.223.598-.453.142-.234.146-.515-.023-.728zm-8.813.026c-.049 0-.082-.007-.098-.058a2.224 2.224 0 01-.064-.302 8.358 8.358 0 01-.051-.465 4.63 4.63 0 01-.016-.425c.001-.17.011-.348.064-.511a.461.461 0 01.092-.17c.061-.067.176-.068.24.038.052.083.072.17.082.266.014.126.019.246.019.379 0 .181-.011.365-.027.55a1.98 1.98 0 01-.156.61c-.017.039-.038.088-.085.088zm7.354-1.046a7.892 7.892 0 01-.098.726c-.013.071-.033.108-.078.108-.039 0-.078-.002-.095-.053a1.409 1.409 0 01-.052-.26 6.118 6.118 0 01-.044-.448 8.694 8.694 0 01-.013-.582c.002-.13.016-.285.056-.41a1.05 1.05 0 01.079-.186.133.133 0 01.123-.069c.034.002.053.006.074.066.023.065.039.127.049.195.021.155.018.253.019.374.002.188-.004.371-.02.539zm1.222 1.484a.548.548 0 01-.179.24.834.834 0 01-.413.181.71.71 0 01-.406-.039c-.101-.048-.18-.114-.194-.231a.34.34 0 01.049-.211.745.745 0 01.436-.321.784.784 0 01.26-.033.595.595 0 01.352.1c.11.078.133.194.095.314z"/></svg>