<svg xmlns="http://www.w3.org/2000/svg" viewBox="0 0 24 24"><path d="M16.262 13.293c-.935 0-1.772.414-2.346 1.066l-1.47-1.041c.156-.43.246-.891.246-1.374 0-.475-.086-.928-.237-1.352l1.467-1.03a3.117 3.117 0 002.341 1.06c1.725 0 3.129-1.403 3.129-3.129s-1.404-3.129-3.129-3.129a3.132 3.132 0 00-2.999 4.018l-1.468 1.03a4.044 4.044 0 00-2.502-1.453V6.19a3.134 3.134 0 002.485-3.061C11.779 1.403 10.375 0 8.65 0S5.522 1.403 5.522 3.129a3.132 3.132 0 002.429 3.047v1.792a4.045 4.045 0 00-3.341 3.976 4.045 4.045 0 003.37 3.981v1.892a3.133 3.133 0 00-2.457 3.054C5.522 22.597 6.925 24 8.65 24s3.129-1.403 3.129-3.129a3.132 3.132 0 00-2.457-3.054v-1.892a4.042 4.042 0 002.46-1.431l1.48 1.048a3.115 3.115 0 00-.128.88c0 1.725 1.404 3.129 3.129 3.129s3.129-1.403 3.129-3.129-1.405-3.129-3.13-3.129zm0-7.316c.837 0 1.517.681 1.517 1.517s-.68 1.517-1.517 1.517c-.836 0-1.517-.681-1.517-1.517s.681-1.517 1.517-1.517zM7.133 3.129c0-.836.68-1.517 1.517-1.517s1.517.681 1.517 1.517-.68 1.517-1.517 1.517-1.517-.681-1.517-1.517zm3.034 17.742c0 .836-.68 1.517-1.517 1.517s-1.517-.681-1.517-1.517.68-1.517 1.517-1.517 1.517.681 1.517 1.517zM8.65 14.06a2.118 2.118 0 01-2.116-2.116c0-1.167.949-2.116 2.116-2.116 1.167 0 2.116.949 2.116 2.116A2.118 2.118 0 018.65 14.06zm7.612 3.879a1.519 1.519 0 01-1.517-1.517c0-.836.68-1.517 1.517-1.517s1.517.681 1.517 1.517c0 .836-.68 1.517-1.517 1.517z"/></svg>