<svg xmlns="http://www.w3.org/2000/svg" viewBox="0 0 24 24"><path d="M14.156 5.579l-.194.269c-.24-.247-.819-.509-.86-.528l.155-.411-.014-.01a.31.31 0 00-.078-.037c-.873-.329-1.675-.333-2.768-.017l.517 1.381h-.01c-.724.235-1.264.888-1.323.961l-.716-.511c-.395.522-.675 1.466-.675 2.191h-.913c.007.656.126 1.794.9 2.738l.682-.521c.623.916 1.925 1.581 3.015 1.468l-.016-1.906h.014v.026c.273.08.843-.093 1.092-.289l.517.692c.543-.185.964-1.238 1.008-1.351l.822.281.001.001a4.37 4.37 0 00.023-2.339l-.001.001v-.009l.001.007.294-.107a3.318 3.318 0 00-1.473-1.98zm-1.988 3.679a.909.909 0 01-.995-.2.929.929 0 01-.198-1.004.915.915 0 01.845-.568h.001a.918.918 0 01.912.92.925.925 0 01-.565.852zm10.494-5.566L12.139.043a.75.75 0 00-.499 0L1.341 3.695a.766.766 0 00-.505.805l1.453 13.842c.025.248.17.469.387.591l8.961 4.973a.767.767 0 00.366.094h.001c.131 0 .26-.034.373-.099l8.739-4.973a.77.77 0 00.38-.575l1.67-13.842a.77.77 0 00-.504-.819zm-5.898 9.225s-.127.144.051.445c.179.299.23.299-.102.612.256.222.256.406-.127.58.009.618.134 1.171-.651 1.218-.785.046-1.78-.482-2.039.939-.259 1.419-.192.888-.269 1.244H8.082c.69-1.902 1.28-4.001 0-5.032-1.279-1.03-3.373-5.358.756-7.575a6.03 6.03 0 011.474-.554l-.174-.464.054-.021c.017-.007 1.774-.684 3.293.062l.05.025-.183.416c.979.22 1.709.582 1.98.751.614.382 1.429.99 1.507 1.566.077.575-.664.286-.664.286.46 1.117.485 1.918.28 2.768v.001c-.204.848.945 1.725.92 2.342-.075.286-.611.391-.611.391z"/></svg>