<svg xmlns="http://www.w3.org/2000/svg" viewBox="0 0 24 24"><path d="M9.623 19.131c0-.064 0-.123-.023-.191a4.887 4.887 0 00-.796-2.07 5.33 5.33 0 00-.92-.912c-.101-.078-.189-.041-.193.082l-.087 1.281c0 .123-.147.128-.184 0l-.571-1.801a.537.537 0 00-.29-.292 9.083 9.083 0 00-1.169-.315c-.525-.091-1.284-.141-1.284-.141-.129 0-.17.077-.097.178l.782 1.409c.074.105 0 .205-.11.123l-1.703-1.368a1.377 1.377 0 00-1.086-.182c-.377.059-.92.173-.92.173a.246.246 0 00-.147.096.238.238 0 00-.051.164s.041.547.087.912a1.348 1.348 0 00.46.98l1.772 1.254c.11.073.032.182-.087.137l-1.578-.351c-.12-.046-.189 0-.152.137 0 0 .262.711.492 1.181.195.368.416.721.663 1.058a.539.539 0 00.359.196l1.905.046c.124 0 .156.141.041.178l-1.219.456c-.12.036-.129.128-.028.205.357.252.743.461 1.15.62.72.231 1.483.295 2.232.187a9.014 9.014 0 001.638-.388 3.652 3.652 0 01-.032-.456 3.509 3.509 0 011.165-2.589m13.575-3.74a.26.26 0 00-.051-.164.249.249 0 00-.147-.096s-.543-.114-.92-.169a1.386 1.386 0 00-1.081.178l-1.703 1.368c-.101.082-.184 0-.11-.123l.778-1.409c.078-.1.037-.182-.092-.178 0 0-.759.05-1.284.141a9.083 9.083 0 00-1.169.315.543.543 0 00-.29.292l-.571 1.796c-.037.119-.179.114-.184 0l-.092-1.281c0-.123-.087-.16-.189-.082a5.33 5.33 0 00-.92.912 4.823 4.823 0 00-.796 2.052v.191c.365.327.657.727.857 1.173a3.463 3.463 0 01.271 1.873 9.236 9.236 0 001.643.388 4.979 4.979 0 002.232-.187c.408-.16.794-.368 1.15-.62.101-.077.092-.169-.028-.205l-1.219-.456c-.115-.036-.083-.173.041-.178l1.901-.046a.515.515 0 00.364-.196 8.93 8.93 0 00.612-1.026 12.55 12.55 0 00.497-1.181c.037-.118-.032-.182-.152-.137l-1.578.351c-.124.046-.198-.064-.092-.137l1.785-1.254a1.373 1.373 0 00.46-.98c.046-.378.087-.912.087-.912m-4.998-5.972c0-.196-.129-.269-.304-.16l-1.841.994c-.17.109-.207-.1-.083-.26l1.758-2.325a.732.732 0 00.106-.634 13.761 13.761 0 00-.824-1.824 13.102 13.102 0 00-1.068-1.477c-.124-.155-.276-.128-.341.059l-.86 2.129c-.064.187-.226.182-.221 0l.101-3.342a.939.939 0 00-.258-.638s-.511-.511-.92-.884c-.409-.374-1.173-.966-1.173-.966a.464.464 0 00-.579.001s-.722.561-1.192.966c-.469.406-.92.88-.92.88a.946.946 0 00-.276.62l.105 3.342c0 .201-.156.205-.226 0l-.86-2.106c-.06-.187-.216-.214-.341-.055a12.907 12.907 0 00-1.117 1.573 12.898 12.898 0 00-.783 1.723.75.75 0 00.102.624l1.767 2.334c.124.16.087.369-.087.26L6.052 9.27c-.17-.11-.312-.037-.308.159.015.645.12 1.285.313 1.901a7.567 7.567 0 002.029 2.909 14.336 14.336 0 012.83 4.153 3.534 3.534 0 012.158 0 14.48 14.48 0 012.812-4.149 7.698 7.698 0 001.924-2.63 7.123 7.123 0 00.419-2.179m-3.921 12.287c0 .451-.135.892-.388 1.266a2.315 2.315 0 01-3.54.346 2.26 2.26 0 01-.499-2.484 2.28 2.28 0 01.847-1.023 2.318 2.318 0 012.905.284c.433.426.675 1.006.675 1.611z"/></svg>