<svg xmlns="http://www.w3.org/2000/svg" viewBox="0 0 24 24"><path d="M5 3h14v20H5z"/><path d="M7 5h2v3H7zm4 0h2v3h-2zm4 0h2v3h-2z"/><path d="M7 5h2v1H7zm4 0h2v1h-2zm4 0h2v1h-2zm-8 5h2v3H7zm4 0h2v3h-2zm4 0h2v3h-2z"/><path d="M7 10h2v1H7zm4 0h2v1h-2zm4 0h2v1h-2zm-8 5h2v3H7zm4 0h2v3h-2zm4 0h2v3h-2z"/><path d="M7 15h2v1H7zm4 0h2v1h-2zm4 0h2v1h-2zm-8 5h6v3H7z"/><path d="M7 20h6v1H7z"/><path d="M9 20h1v3H9zm6 0h2v2h-2z"/><path d="M15 20h2v1h-2zM4 2h16l-2.667-2H6.667L4 2m0 0h16v1H4zm1 1h14v1H5z"/></svg>