<svg xmlns="http://www.w3.org/2000/svg" viewBox="0 0 24 24"><path d="M5 4c-1.105 0-2 .9-2 2v14c0 1.1.895 2 2 2h14c1.105 0 2-.9 2-2V6c0-1.1-.895-2-2-2H5z"/><path d="M5 3a2 2 0 00-2 2v14a2 2 0 002 2h14a2 2 0 002-2V5a2 2 0 00-2-2H5z"/><path d="M5 3a2 2 0 00-2 2v4h18V5a2 2 0 00-2-2H5z"/><path d="M7.5 5.5a1.5 1.5 0 11-3 0 1.5 1.5 0 113 0zm12 0a1.5 1.5 0 11-3 0 1.5 1.5 0 113 0zM5 11v2h2v-2H5zm3 0v2h2v-2H8zm3 0v2h2v-2h-2zm3 0v2h2v-2h-2zm3 0v2h2v-2h-2zM5 14v2h2v-2H5zm3 0v2h2v-2H8zm3 0v2h2v-2h-2zm3 0v2h2v-2h-2zm3 0v2h2v-2h-2zM5 17v2h2v-2H5zm3 0v2h2v-2H8zm3 0v2h2v-2h-2zm3 0v2h2v-2h-2zm3 0v2h2v-2h-2z"/><path d="M23.541 18.442a5.042 5.042 0 11-10.083 0 5.042 5.042 0 1110.083 0z"/><path d="M18.5 13.4c-3.038 0-5.5 2.5-5.5 5.5h.917c0-2.5 2.052-4.6 4.583-4.6s4.583 2.1 4.583 4.6H24c0-3-2.462-5.5-5.5-5.5z"/><path d="M18.958 18v.9h3.209c.253 0 .458-.2.458-.4 0-.3-.205-.5-.458-.5h-3.209zm-.458-2.7c-.253 0-.458.2-.458.4V18h.916v-2.3c0-.2-.205-.4-.458-.4zm-2.739 5.611l2.269-2.268.324.324-2.269 2.268z"/><path d="M18.5 17.5c-.506 0-.917.5-.917 1s.411.9.917.9.917-.4.917-.9-.411-1-.917-1zm0 .5c.253 0 .458.2.458.5 0 .2-.205.4-.458.4s-.458-.2-.458-.4c0-.3.205-.5.458-.5z"/><path d="M18.5 13c-3.038 0-5.5 2.4-5.5 5.5 0 3 2.462 5.5 5.5 5.5s5.5-2.5 5.5-5.5c0-3.1-2.462-5.5-5.5-5.5zm0 .9c2.531 0 4.583 2 4.583 4.6 0 2.5-2.052 4.5-4.583 4.5s-4.583-2-4.583-4.5c0-2.6 2.052-4.6 4.583-4.6z"/><path d="M18.958 18.5a.458.458 0 11-.916 0 .458.458 0 11.916 0zm.335-.5c.078.1.129.3.129.5 0 .1-.051.3-.129.4h.501c.052-.1.086-.3.086-.4 0-.2-.034-.4-.086-.5h-.501zM6 1a1 1 0 00-1 1v3a1 1 0 102 0V2a1 1 0 00-1-1zm12 0a1 1 0 00-1 1v3a1 1 0 002 0V2a1 1 0 00-1-1z"/><path d="M6 1c-.552 0-1 .4-1 1v2h2V2c0-.6-.448-1-1-1zm12 0c-.552 0-1 .4-1 1v2h2V2c0-.6-.448-1-1-1z"/></svg>