<svg xmlns="http://www.w3.org/2000/svg" viewBox="0 0 24 24"><path d="M23 13a11 11 0 11-22 0 11 11 0 1122 0z"/><path d="M23 12a11 11 0 11-22 0 11 11 0 1122 0z"/><path d="M21 12a9 9 0 11-18 0 9 9 0 1118 0z"/><path d="M16 5l-6 7-2 9 6-7 2-9z"/><path d="M12 3c-4.97 0-9 4-9 9 0 .1.022.3.031.5C3.296 7.7 7.201 4 12 4s8.704 3.7 8.969 8.5c.009-.2.031-.4.031-.5 0-5-4.029-9-9-9z"/><path d="M14 13l-4-2 6-7zm-4-2l4 2-6 7z"/><path d="M12 1C5.925 1 1 5.9 1 12c0 6 4.925 11 11 11s11-5 11-11c0-6.1-4.925-11-11-11zm0 2c4.971 0 9 4 9 9 0 4.9-4.029 9-9 9-4.97 0-9-4.1-9-9 0-5 4.03-9 9-9z"/><path d="M16 4l-4 8 2 1z"/><path d="M12 11c-.552 0-1 .4-1 1h2c0-.6-.448-1-1-1zm0 1l-4 8 6-7z"/><path d="M12 13c.552 0 1-.5 1-1h-2c0 .5.448 1 1 1z"/></svg>