<svg xmlns="http://www.w3.org/2000/svg" viewBox="0 0 24 24"><path d="M6 6c-.707 0-1.435.1-2.063.3C1.602 7.1-.005 9.5 0 12c-.005 2.4 1.6 4.8 3.938 5.6.974.4 2.156.4 3.187.4 1.95 0 3.172-2.1 4.875-2 1.703-.1 2.925 2 4.875 2 1.031 0 2.213 0 3.187-.4 2.337-.8 3.943-3.2 3.938-5.6.005-2.5-1.601-4.9-3.938-5.7C19.431 6.1 18.708 6 18 6H6.344z"/><path d="M6 5c-.707 0-1.435.1-2.063.3C1.602 6.1-.005 8.5 0 11c-.005 2.4 1.6 4.8 3.938 5.6.974.4 2.156.4 3.187.4 1.95 0 3.172-2.1 4.875-2 1.703-.1 2.925 2 4.875 2 1.031 0 2.213 0 3.187-.4 2.337-.8 3.943-3.2 3.938-5.6.005-2.5-1.601-4.9-3.938-5.7C19.431 5.1 18.708 5 18 5H6.344z"/><path d="M10 11a4 4 0 11-8 0 4 4 0 118 0z"/><path d="M6 8c-.552 0-1 .4-1 1v1H4c-.552 0-1 .4-1 1 0 .5.448 1 1 1h1v1c0 .5.448 1 1 1s1-.5 1-1v-1h1c.552 0 1-.5 1-1 0-.6-.448-1-1-1H7V9c0-.6-.448-1-1-1zm16 3a4 4 0 11-8 0 4 4 0 118 0z"/><path d="M17 11a1 1 0 11-2 0 1 1 0 112 0zm2 2a1 1 0 11-2 0 1 1 0 112 0zm0-4a1 1 0 11-2 0 1 1 0 112 0zm2 2a1 1 0 11-2 0 1 1 0 112 0zm-9.5 0a.5.5 0 000 1h1a.5.5 0 000-1h-1z"/></svg>