<svg xmlns="http://www.w3.org/2000/svg" viewBox="0 0 24 24"><path d="M0 22h24l-4-6H4l-4 6"/><path d="M2 4h20v17H2z"/><path d="M4 11h9v9H4zm10 1h6v9h-6z"/><path d="M2 9h20v4H2z"/><path d="M14 11h6v1h-6zM4 11h9v2H4zM0 8v1.5c0 .8.672 1.5 1.5 1.5S3 10.3 3 9.5V8H0zm3 0v1.5c0 .8.672 1.5 1.5 1.5S6 10.3 6 9.5V8H3zm3 0v1.5c0 .8.672 1.5 1.5 1.5S9 10.3 9 9.5V8H6zm3 0v1.5c0 .8.672 1.5 1.5 1.5s1.5-.7 1.5-1.5V8H9zm3 0v1.5c0 .8.672 1.5 1.5 1.5s1.5-.7 1.5-1.5V8h-3zm3 0v1.5c0 .8.672 1.5 1.5 1.5s1.5-.7 1.5-1.5V8h-3zm3 0v1.5c0 .8.672 1.5 1.5 1.5s1.5-.7 1.5-1.5V8h-3zm3 0v1.5c0 .8.672 1.5 1.5 1.5s1.5-.7 1.5-1.5V8h-3zM10 4h2v4H9zm2 0h2l1 4h-3zM5 4h3L6 8H3z"/><path d="M8 4h2L9 8H6zm8 0h-2l1 4h3z"/><path d="M19 4h-3l2 4h3zM2 4h3L3 8H0z"/><path d="M22 4h-3l2 4h3zm-7 9h4v8h-4z"/><path d="M14 16h5v1h-5zm5-4h1v1h-1zm-4 0h4v1h-4zm-1 0h1v1h-1zm-9 0h7v7H5z"/><path d="M4 15h9v1H4z"/><path d="M8 12h1v7H8zM1 4h22l-3.667-2H4.667L1 4"/><path d="M8 12h1v1H8zM1 3h22l-3.667-2H4.667L1 3m0 0h22v1H1zm14 15h4v3h-4zM0 22h24v1H0zm5-10v1h3v-1H5zm4 0v1h3v-1H9zm-4 6v1h3v-1H5zm4 0v1h3v-1H9zM2 4l-.5 1h3L5 4H2zm5 0l-.25 1h3L10 4H7zm5 0v1h2.25L14 4h-2zm4 0l.5 1h3L19 4h-3z"/><path d="M5 4l-.5 1h3.001L8 4zm5 0l-.25 1H12V4zm4 0l.25 1h2.25L16 4zm5 0l.5 1h3L22 4z"/></svg>