<svg xmlns="http://www.w3.org/2000/svg" viewBox="0 0 24 24"><path d="M2 1C.895 1 0 1.9 0 3v7.2c.016.5.246 1 .594 1.4l10.968 10.9c.365.4.87.6 1.438.6s1.073-.2 1.438-.6l7.062-7c.408-.4.656-.9.656-1.5s-.248-1.2-.656-1.5L10.594 1.6c-.355-.4-.867-.6-1.407-.6H2zm3 3c1.105 0 2 .9 2 2s-.895 2-2 2-2-.9-2-2 .895-2 2-2z"/><path d="M2 0a2 2 0 00-2 2v7.219a2.06 2.06 0 00.594 1.375l10.968 10.968c.365.38.87.594 1.438.594s1.073-.214 1.438-.594L21.5 14.5c.408-.366.656-.909.656-1.5s-.248-1.134-.656-1.5L10.594.594A2.058 2.058 0 009.187 0H2zm3 3a2 2 0 110 4 2 2 0 010-4z"/><path d="M13 21l7-7-8-8-7 7z"/><path d="M13 20l7-7-8-8-7 7z"/><path d="M12 8l-3.5 3.5-.5.5.5.5 4-4L12 8zm2 2l-3.5 3.5-.5.5.5.5 4-4-.5-.5zm2 2l-3.5 3.5-.5.5.5.5 4-4-.5-.5z"/></svg>