<svg xmlns="http://www.w3.org/2000/svg" viewBox="0 0 24 24"><path d="M23 12a11 11 0 11-22 0 11 11 0 1122 0z"/><path d="M6 20c1.67 1.2 3.752 2 6 2s4.33-.8 6-2H6z"/><path d="M12 1C5.925 1 1 5.925 1 12s4.925 11 11 11V1z"/><path d="M18 13a6 6 0 11-12 0 6 6 0 1112 0z"/><path d="M12 7c-3.314 0-6 2.6-6 6 0 3.3 2.686 6 6 6V7z"/><path d="M18 12a6 6 0 11-12 0 6 6 0 1112 0z"/><path d="M16 11.986a4 4 0 11-8 0 4 4 0 118 0z"/><path d="M15 11.914a3 3 0 11-6 0 3 3 0 116 0z"/><path d="M14 12a2 2 0 11-4 0 2 2 0 114 0z"/><path d="M13 12a1 1 0 11-2 0 1 1 0 112 0zm-1-2.067a1 1 0 11-2 0 1 1 0 112 0zM9 2h3v1H9zm0 2h3v1H9zm3-2h3v1h-3zm0 2h3v1h-3zM6 20a9.983 9.983 0 006 2v-2H6z"/></svg>