<svg xmlns="http://www.w3.org/2000/svg" viewBox="0 0 64 64"><g stroke-miterlimit="10" stroke-width="2"><path d="M33 1c.666 0 1.333.022 1.998.066"/><path stroke-dasharray="4.1705,2.0853" d="M37.071 1.276a29.866 29.866 0 0117.141 8.511C64.91 20.484 65.841 37.248 57.003 49l-3.846 3.846"/><path d="M52.416 53.588l-1.414 1.414"/></g><g stroke-miterlimit="10" stroke-width="2"><path d="M31 63c-.666 0-1.333-.022-1.998-.066"/><path stroke-dasharray="4.1705,2.0853" d="M26.929 62.724a29.866 29.866 0 01-17.141-8.511C-.91 43.516-1.841 26.752 6.997 15l3.846-3.846"/><path d="M11.584 10.412l1.414-1.414"/></g><path stroke-linejoin="bevel" stroke-miterlimit="10" stroke-width="2" d="M51 44v11h11M13 20V9H2"/></svg>