<?xml version="1.0" encoding="UTF-8"?>
<svg width="16px" height="16px" viewBox="0 0 16 16" version="1.1" xmlns="http://www.w3.org/2000/svg" xmlns:xlink="http://www.w3.org/1999/xlink">
    <title>操作/项目</title>
    <desc>Created with Sketch.</desc>
    <g id="操作/项目" stroke="none" stroke-width="1" fill="none" fill-rule="evenodd">
        <path d="M5.02511313,8.61004525 L1,7 L1,5 C1,4.44771525 1.44771525,4 2,4 L4,4 L4,3 C4,1.8954305 4.8954305,1 6,1 L10,1 C11.1045695,1 12,1.8954305 12,3 L12,4 L14,4 C14.5522847,4 15,4.44771525 15,5 L15,7 L10.9748869,8.61004525 C10.9914548,8.73768607 11,8.86784512 11,9 C11,10.6568542 9.65685425,12 8,12 C6.34314575,12 5,10.6568542 5,9 C5,8.86784512 5.00854517,8.73768607 5.02511313,8.61004525 L5.02511313,8.61004525 Z M15,8 L15,14 C15,14.5522847 14.5522847,15 14,15 L2,15 C1.44771525,15 1,14.5522847 1,14 L1,8 L3,8.8 L3,13 L13,13 L13,8.8 L15,8 Z M10,4 L10,3 L6,3 L6,4 L10,4 Z M8,10 C8.55228475,10 9,9.55228475 9,9 C9,8.44771525 8.55228475,8 8,8 C7.44771525,8 7,8.44771525 7,9 C7,9.55228475 7.44771525,10 8,10 Z" id="Combined-Shape" fill="#293040" fill-rule="nonzero"></path>
    </g>
</svg>