<?xml version="1.0" encoding="UTF-8"?>
<svg width="16px" height="16px" viewBox="0 0 16 16" version="1.1" xmlns="http://www.w3.org/2000/svg" xmlns:xlink="http://www.w3.org/1999/xlink">
    <!-- Generator: Sketch 63.1 (92452) - https://sketch.com -->
    <title>操作/aveIcon-all-close</title>
    <desc>Created with Sketch.</desc>
    <g id="操作/aveIcon-all-close" stroke="none" stroke-width="1" fill="none" fill-rule="evenodd">
        <path d="M15,9 L15,15 L9,15 L9,13 L13,13 L13,9 L15,9 Z M7,9 L7,14 L5.182,12.182 L2.41421356,14.9497475 L1,13.5355339 L3.768,10.768 L2,9 L7,9 Z M7,1 L7,3 L3,3 L3,7 L1,7 L1,1 L7,1 Z M13.5857864,1 L15,2.41421356 L12.232,5.18174747 L14,6.94974747 L9,6.94974747 L9,1.94974747 L10.818,3.76774747 L13.5857864,1 Z" id="形状" fill="#575D6C"></path>
    </g>
</svg>