<?xml version="1.0" encoding="UTF-8"?>
<svg width="16px" height="16px" viewBox="0 0 16 16" version="1.1" xmlns="http://www.w3.org/2000/svg" xmlns:xlink="http://www.w3.org/1999/xlink">
    <title>操作/分支对比</title>
    <desc>Created with Sketch.</desc>
    <g id="操作/分支对比" stroke="none" stroke-width="1" fill="none" fill-rule="evenodd">
        <g>
            <path d="M1,9 L0,9 L1.2246468e-16,7 L1,7 L1,4 C1,2.34314575 2.34314575,1 4,1 L5,1 L5,3 L4,3 C3.44771525,3 3,3.44771525 3,4 L3,12 C3,12.5522847 3.44771525,13 4,13 L5,13 L5,15 L4,15 C2.34314575,15 1,13.6568542 1,12 L1,9 Z M15,7 L16,7 L16,9 L15,9 L15,12 C15,13.6568542 13.6568542,15 12,15 L11,15 L11,13 L12,13 C12.5522847,13 13,12.5522847 13,12 L13,4 C13,3.44771525 12.5522847,3 12,3 L11,3 L11,1 L12,1 C13.6568542,1 15,2.34314575 15,4 L15,7 Z M7,7 L7,9 L4,6 L7,3 L7,5 L10,5 L10,7 L7,7 Z M9,9 L9,7 L12,10 L9,13 L9,11 L6,11 L6,9 L9,9 Z" id="形状" fill="#293040"></path>
        </g>
    </g>
</svg>