<?xml version="1.0" encoding="UTF-8"?>
<svg width="20px" height="20px" viewBox="0 0 20 20" version="1.1" xmlns="http://www.w3.org/2000/svg" xmlns:xlink="http://www.w3.org/1999/xlink">
    <title>icon/btn/发布成绩20x20</title>
    <desc>Created with Sketch.</desc>
    <g id="icon/btn/发布成绩20x20" stroke="none" stroke-width="1" fill="none" fill-rule="evenodd">
        <path d="M11,0.577350269 L17.660254,4.42264973 C18.2790562,4.77991532 18.660254,5.44016936 18.660254,6.15470054 L18.660254,13.8452995 C18.660254,14.5598306 18.2790562,15.2200847 17.660254,15.5773503 L11,19.4226497 C10.3811978,19.7799153 9.61880215,19.7799153 9,19.4226497 L2.33974596,15.5773503 C1.72094381,15.2200847 1.33974596,14.5598306 1.33974596,13.8452995 L1.33974596,6.15470054 C1.33974596,5.44016936 1.72094381,4.77991532 2.33974596,4.42264973 L9,0.577350269 C9.61880215,0.220084679 10.3811978,0.220084679 11,0.577350269 Z M10,2.30940108 L3.33974596,6.15470054 L3.33974596,13.8452995 L10,17.6905989 L16.660254,13.8452995 L16.660254,6.15470054 L10,2.30940108 Z M10,5.60678931 L11.1198813,8.43615987 L14.1181955,8.64242324 L11.812006,10.5973338 L12.5451848,13.5541821 L10,11.9330127 L7.4548152,13.5541821 L8.18799397,10.5973338 L5.88180448,8.64242324 L8.88011869,8.43615987 L10,5.60678931 Z" id="形状" fill="#293040" fill-rule="nonzero"></path>
    </g>
</svg>