<?xml version="1.0" encoding="UTF-8"?>
<svg width="16px" height="16px" viewBox="0 0 16 16" version="1.1" xmlns="http://www.w3.org/2000/svg" xmlns:xlink="http://www.w3.org/1999/xlink">
    <title>icon/审批_通过备份</title>
    <desc>Created with Sketch.</desc>
    <g id="icon/审批_通过备份" stroke="none" stroke-width="1" fill="none" fill-rule="evenodd">
        <path d="M16,8 L10,16 L6,11 L9,11 L10,13 L14,8 L16,8 Z M11,0 C12.6568542,0 14,1.34314575 14,3 L14,6 L12,6 L12,3 C12,2.44771525 11.5522847,2 11,2 L3,2 C2.44771525,2 2,2.44771525 2,3 L2,11 C2,11.5522847 2.44771525,12 3,12 L5,12 L5,14 L3,14 C1.34314575,14 0,12.6568542 0,11 L0,3 C0,1.34314575 1.34314575,0 3,0 L11,0 Z M8,8 L8,10 L4,10 L4,8 L8,8 Z M10,4 L10,6 L4,6 L4,4 L10,4 Z" id="审批-通过" fill="#293040" fill-rule="nonzero"></path>
    </g>
</svg>