<?xml version="1.0" encoding="UTF-8"?>
<svg width="14px" height="14px" viewBox="0 0 14 14" version="1.1" xmlns="http://www.w3.org/2000/svg" xmlns:xlink="http://www.w3.org/1999/xlink">
    <title>关联</title>
    <desc>Created with Sketch.</desc>
    <g id="Symbols" stroke="none" stroke-width="1" fill="none" fill-rule="evenodd">
        <g id="图标" transform="translate(-1564.000000, -1069.000000)">
            <g id="关联" transform="translate(1563.000000, 1068.000000)">
                <path d="M4.46446609,5.87867966 L5.87867966,7.29289322 L3.75735931,9.41421356 C2.97631073,10.1952621 2.97631073,11.4615921 3.75735931,12.2426407 C4.5384079,13.0236893 5.80473785,13.0236893 6.58578644,12.2426407 L8.70710678,10.1213203 L10.1213203,11.5355339 L8,13.6568542 C6.43790283,15.2189514 3.90524292,15.2189514 2.34314575,13.6568542 C0.781048584,12.0947571 0.781048584,9.56209717 2.34314575,8 L4.46446609,5.87867966 Z M5.87867966,4.46446609 L8,2.34314575 C9.56209717,0.781048584 12.0947571,0.781048584 13.6568542,2.34314575 C15.2189514,3.90524292 15.2189514,6.43790283 13.6568542,8 L11.5355339,10.1213203 L10.1213203,8.70710678 L12.2426407,6.58578644 C13.0236893,5.80473785 13.0236893,4.5384079 12.2426407,3.75735931 C11.4615921,2.97631073 10.1952621,2.97631073 9.41421356,3.75735931 L7.29289322,5.87867966 L5.87867966,4.46446609 Z M5.87867966,8.70710678 L8.70710678,5.87867966 C9.09763107,5.48815536 9.73079605,5.48815536 10.1213203,5.87867966 C10.5118446,6.26920395 10.5118446,6.90236893 10.1213203,7.29289322 L7.29289322,10.1213203 C6.90236893,10.5118446 6.26920395,10.5118446 5.87867966,10.1213203 C5.48815536,9.73079605 5.48815536,9.09763107 5.87867966,8.70710678 Z" id="Combined-Shape" fill="#293040" fill-rule="nonzero"></path>
            </g>
        </g>
    </g>
</svg>