<svg xmlns="http://www.w3.org/2000/svg" viewBox="0 0 16 16"><path d="M2 11.874a4.007 4.007 0 002 0V12a1 1 0 001 1h3v-1l1.5 1h.5v.333L11 14l-1 .667V15h-.5L8 16v-1H5a3 3 0 01-3-3v-.126zM6.874 9a4.007 4.007 0 000-2H8V6l1.5 1h.5v.333L11 8l-1 .667V9h-.5L8 10V9H6.874zM4 4.126a4.007 4.007 0 00-2 0V4a3 3 0 013-3h3V0l1.5 1h.5v.333L11 2l-1 .667V3h-.5L8 4V3H5a1 1 0 00-1 1v.126zM14 4a2 2 0 110-4 2 2 0 010 4zm0 6a2 2 0 110-4 2 2 0 010 4zm0 6a2 2 0 110-4 2 2 0 010 4zM3 11a3 3 0 110-6 3 3 0 010 6zm0-2a1 1 0 100-2 1 1 0 000 2z"/></svg>