<?xml version="1.0" encoding="UTF-8"?>
<svg width="16px" height="16px" viewBox="0 0 16 16" version="1.1" xmlns="http://www.w3.org/2000/svg" xmlns:xlink="http://www.w3.org/1999/xlink">
    <title>操作/复用上一次结果</title>
    <desc>Created with Sketch.</desc>
    <g id="操作/复用上一次结果" stroke="none" stroke-width="1" fill="none" fill-rule="evenodd">
        <path d="M5,2 L14,2 L14,11 L12,11 L12,4 L5,4 L5,2 Z M2,5 L11,5 L11,14 L2,14 L2,5 Z M3,7 L3,9 L4,9 L4,8 L8,8 L8,9 L10,7.5 L8,6 L8,7 L3,7 Z M10,10 L9,10 L9,11 L5,11 L5,10 L3,11.5 L5,13 L5,12 L10,12 L10,10 Z" id="形状" fill="#293040"></path>
    </g>
</svg>