<svg xmlns="http://www.w3.org/2000/svg" viewBox="0 0 16 16"><path d="M5.5 0C6.328 0 7 .597 7 1.333c0 .737-.672 1.334-1.5 1.334S4 2.07 4 1.333C4 .597 4.672 0 5.5 0zm0 4.444c.828 0 1.5.597 1.5 1.334 0 .736-.672 1.333-1.5 1.333S4 6.514 4 5.778c0-.737.672-1.334 1.5-1.334zm0 4.445c.828 0 1.5.597 1.5 1.333 0 .737-.672 1.334-1.5 1.334S4 10.959 4 10.222c0-.736.672-1.333 1.5-1.333zm0 4.444c.828 0 1.5.597 1.5 1.334C7 15.403 6.328 16 5.5 16S4 15.403 4 14.667c0-.737.672-1.334 1.5-1.334zM10.5 0c.828 0 1.5.597 1.5 1.333 0 .737-.672 1.334-1.5 1.334S9 2.07 9 1.333C9 .597 9.672 0 10.5 0zm0 4.444c.828 0 1.5.597 1.5 1.334 0 .736-.672 1.333-1.5 1.333S9 6.514 9 5.778c0-.737.672-1.334 1.5-1.334zm0 4.445c.828 0 1.5.597 1.5 1.333 0 .737-.672 1.334-1.5 1.334S9 10.959 9 10.222c0-.736.672-1.333 1.5-1.333zm0 4.444c.828 0 1.5.597 1.5 1.334 0 .736-.672 1.333-1.5 1.333S9 15.403 9 14.667c0-.737.672-1.334 1.5-1.334z"/></svg>