<?xml version="1.0" encoding="UTF-8"?>
<svg width="16px" height="16px" viewBox="0 0 16 16" version="1.1" xmlns="http://www.w3.org/2000/svg" xmlns:xlink="http://www.w3.org/1999/xlink">
    <!-- Generator: Sketch 63.1 (92452) - https://sketch.com -->
    <title>操作/insert_image</title>
    <desc>Created with Sketch.</desc>
    <g id="操作/insert_image" stroke="none" stroke-width="1" fill="none" fill-rule="evenodd">
        <path d="M14,1 C15.1045695,1 16,1.8954305 16,3 L16,13 C16,14.1045695 15.1045695,15 14,15 L2,15 C0.8954305,15 0,14.1045695 0,13 L0,3 C0,1.8954305 0.8954305,1 2,1 L14,1 Z M13,3 L3,3 C2.48716416,3 2.06449284,3.38604019 2.00672773,3.88337887 L2,4 L2,11.585 L5.12132034,8.46446609 L6.53553391,9.87867966 L3.413,13 L5.585,13 L10.4142136,8.17157288 L14,11.758 L14,4 C14,3.44771525 13.5522847,3 13,3 Z M5.05419922,4.53979492 C5.88262634,4.53979492 6.55419922,5.2113678 6.55419922,6.03979492 C6.55419922,6.86822205 5.88262634,7.53979492 5.05419922,7.53979492 C4.22577209,7.53979492 3.55419922,6.86822205 3.55419922,6.03979492 C3.55419922,5.2113678 4.22577209,4.53979492 5.05419922,4.53979492 Z" id="形状" fill="#575D6C"></path>
    </g>
</svg>