<svg xmlns="http://www.w3.org/2000/svg" viewBox="0 0 16 16"><path fill-rule="evenodd" d="M8 1a1 1 0 011 1v2a1 1 0 11-2 0V2a1 1 0 011-1zm0 10a1 1 0 011 1v2a1 1 0 01-2 0v-2a1 1 0 011-1zm7-3a1 1 0 01-1 1h-2a1 1 0 010-2h2a1 1 0 011 1zM5 8a1 1 0 01-1 1H2a1 1 0 110-2h2a1 1 0 011 1zm7.95-4.95a1 1 0 010 1.414L11.536 5.88a1 1 0 01-1.415-1.415l1.415-1.414a1 1 0 011.414 0zm-7.071 7.071a1 1 0 010 1.415L4.464 12.95a1 1 0 11-1.414-1.414l1.414-1.415a1 1 0 011.415 0zm7.07 2.829a1 1 0 01-1.413 0l-1.415-1.414a1 1 0 011.415-1.415l1.414 1.415a1 1 0 010 1.414zM5.88 5.879a1 1 0 01-1.415 0L3.05 4.464A1 1 0 014.464 3.05L5.88 4.464a1 1 0 010 1.415z"/></svg>