<?xml version="1.0" encoding="UTF-8"?>
<svg width="16px" height="16px" viewBox="0 0 16 16" version="1.1" xmlns="http://www.w3.org/2000/svg" xmlns:xlink="http://www.w3.org/1999/xlink">
    <!-- Generator: Sketch 54.1 (76490) - https://sketchapp.com -->
    <title>操作/merge request</title>
    <desc>Created with Sketch.</desc>
    <g id="操作/merge-request" stroke="none" stroke-width="1" fill="none" fill-rule="evenodd">
        <path d="M12,9.67070571 L12,5.5 C12,4.94771525 11.5522847,4.5 11,4.5 L10.5,4.5 L10.5,6.5 L6.5,3.5 L10.5,0.5 L10.5,2.5 L12,2.5 C13.1045695,2.5 14,3.3954305 14,4.5 L14,9.67070571 C15.1651924,10.0825421 16,11.1937812 16,12.5 C16,14.1568542 14.6568542,15.5 13,15.5 C11.3431458,15.5 10,14.1568542 10,12.5 C10,11.1937812 10.8348076,10.0825421 12,9.67070571 Z M2,6.32929429 C0.834807627,5.91745788 0,4.80621883 0,3.5 C0,1.84314575 1.34314575,0.5 3,0.5 C4.65685425,0.5 6,1.84314575 6,3.5 C6,4.80621883 5.16519237,5.91745788 4,6.32929429 L4,9.67070571 C5.16519237,10.0825421 6,11.1937812 6,12.5 C6,14.1568542 4.65685425,15.5 3,15.5 C1.34314575,15.5 0,14.1568542 0,12.5 C0,11.1937812 0.834807627,10.0825421 2,9.67070571 L2,6.32929429 L2,6.32929429 Z M3,4.5 C3.55228475,4.5 4,4.05228475 4,3.5 C4,2.94771525 3.55228475,2.5 3,2.5 C2.44771525,2.5 2,2.94771525 2,3.5 C2,4.05228475 2.44771525,4.5 3,4.5 Z M3,13.5 C3.55228475,13.5 4,13.0522847 4,12.5 C4,11.9477153 3.55228475,11.5 3,11.5 C2.44771525,11.5 2,11.9477153 2,12.5 C2,13.0522847 2.44771525,13.5 3,13.5 Z M13,13.5 C13.5522847,13.5 14,13.0522847 14,12.5 C14,11.9477153 13.5522847,11.5 13,11.5 C12.4477153,11.5 12,11.9477153 12,12.5 C12,13.0522847 12.4477153,13.5 13,13.5 Z" id="形状" fill="#293040"></path>
    </g>
</svg>