<?xml version="1.0" encoding="UTF-8"?>
<svg width="16px" height="16px" viewBox="0 0 16 16" version="1.1" xmlns="http://www.w3.org/2000/svg" xmlns:xlink="http://www.w3.org/1999/xlink">
    <title>操作/mine</title>
    <desc>Created with Sketch.</desc>
    <g id="操作/mine" stroke="none" stroke-width="1" fill="none" fill-rule="evenodd">
        <path d="M9.5,9 C12.5375661,9 15,11.4624339 15,14.5 C15,14.6685448 14.9924187,14.835319 14.9775785,15 L11.9775785,15 C11.9924187,14.835319 12,14.6685448 12,14.5 C12,11.9824458 10.2646816,9.65292889 7.95617676,9 C9.13929129,8.43826803 10,6.89619798 10,5.5 C10,4.10380202 9.18247367,2.89854755 8,2.33681558 C8.45462769,2.12084552 8.96320135,2 9.5,2 C11.4329966,2 13,3.56700338 13,5.5 C13,7.43299662 11.4329966,9 9.5,9 Z M10.9775785,15 L0.0224215077,15 C0.00758130641,14.835319 5.68434189e-14,14.6685448 5.68434189e-14,14.5 C5.68434189e-14,11.4624339 2.46243388,9 5.5,9 C8.53756612,9 11,11.4624339 11,14.5 C11,14.6685448 10.9924187,14.835319 10.9775785,15 Z M8.66318442,13 C8.10145245,11.8175263 6.89619798,11 5.5,11 C4.10380202,11 2.89854755,11.8175263 2.33681558,13 L8.66318442,13 Z M5.5,9 C3.56700338,9 2,7.43299662 2,5.5 C2,3.56700338 3.56700338,2 5.5,2 C7.43299662,2 9,3.56700338 9,5.5 C9,7.43299662 7.43299662,9 5.5,9 Z M5.5,7 C6.32842712,7 7,6.32842712 7,5.5 C7,4.67157288 6.32842712,4 5.5,4 C4.67157288,4 4,4.67157288 4,5.5 C4,6.32842712 4.67157288,7 5.5,7 Z" id="形状" fill="#293040"></path>
    </g>
</svg>