<?xml version="1.0" encoding="UTF-8"?>
<svg width="16px" height="16px" viewBox="0 0 16 16" version="1.1" xmlns="http://www.w3.org/2000/svg" xmlns:xlink="http://www.w3.org/1999/xlink">
    <!-- Generator: Sketch 54.1 (76490) - https://sketchapp.com -->
    <title>形状</title>
    <desc>Created with Sketch.</desc>
    <g id="形状" stroke="none" stroke-width="1" fill="none" fill-rule="evenodd">
        <path d="M0.500281936,8 C0.494380187,7.31713127 0.581192671,6.64549622 0.755210498,6 L4.5,8.91605896 C3.80311436,9.13093195 3.20224211,9.31406257 2.69738325,9.46545085 C3.33882249,11.7916085 5.46990314,13.5 8,13.5 C9.97307333,13.5 11.7631925,12.4532621 12.7453301,10.782677 L14.4694509,11.7962881 C13.1316198,14.0718968 10.6892939,15.5 8,15.5 C3.85786438,15.5 0.5,12.1421356 0.5,8 Z M15.4997181,8 C15.5056198,8.68286873 15.4188073,9.35450378 15.2447895,10 L11.5,7.08394104 C12.1968856,6.86906805 12.7977579,6.68593743 13.3026167,6.53454915 C12.6611775,4.20839146 10.5300969,2.5 8,2.5 C5.9916943,2.5 4.17426293,3.58476789 3.2052946,5.30306702 L1.46319511,4.3206774 C2.78321086,1.97985589 5.26257675,0.5 8,0.5 C12.1421356,0.5 15.5,3.85786438 15.5,8 Z M11,8 L6,11 L6,5 L11,8 Z" id="形状结合" fill="#252B3A"></path>
    </g>
</svg>