<?xml version="1.0" encoding="UTF-8"?>
<svg width="16px" height="16px" viewBox="0 0 16 16" version="1.1" xmlns="http://www.w3.org/2000/svg" xmlns:xlink="http://www.w3.org/1999/xlink">
    <title>操作/veIcon-briefcase</title>
    <desc>Created with Sketch.</desc>
    <g id="操作/veIcon-briefcase" stroke="none" stroke-width="1" fill="none" fill-rule="evenodd">
        <path d="M4,4 L4,3 C4,2.44771525 4.44771525,2 5,2 L11,2 C11.5522847,2 12,2.44771525 12,3 L12,4 L14,4 C14.5522847,4 15,4.44771525 15,5 L15,13 C15,13.5522847 14.5522847,14 14,14 L2,14 C1.44771525,14 1,13.5522847 1,13 L1,5 C1,4.44771525 1.44771525,4 2,4 L4,4 Z M5,4 L11,4 L11,3 L5,3 L5,4 Z M11,7 L11,9 L13,9 L13,7 L14,7 L14,6 L2,6 L2,7 L3,7 L3,9 L5,9 L5,7 L11,7 Z" id="形状" fill="#293040"></path>
    </g>
</svg>