<svg xmlns="http://www.w3.org/2000/svg" viewBox="0 0 24 24"><path d="M19 10c0-3.224-2.18-5.94-5.146-6.752a2 2 0 00-3.708 0 6.957 6.957 0 00-1.587.655l1.492 1.491A5 5 0 0117 10v2.343l2 2V10zM3.175 17.434L5 14.697V10c0-1.05.231-2.046.646-2.94L3.293 4.707a1 1 0 011.414-1.414l16 16a1 1 0 01-1.414 1.414L17.586 19h-2.121a3.501 3.501 0 01-6.93 0H4.013a.994.994 0 01-.633-.215.999.999 0 01-.205-1.35zM5.87 17h9.717l-8.39-8.39A5.003 5.003 0 007 10v5a1 1 0 01-.168.555L5.869 17zm4.716 2a1.5 1.5 0 002.83 0h-2.83z"/></svg>