<svg xmlns="http://www.w3.org/2000/svg" viewBox="0 0 20 20"><path d="M10.368 0a.68.68 0 01.484.201l8.35 8.39c.558.586.836 1.249.794 1.958-.04.664-.304 1.274-.807 1.846l-7.074 7.037-.115.092c-.638.406-1.26.564-1.85.428-.515-.118-1.054-.436-1.677-.978l-8.16-8.219a.68.68 0 01-.199-.47L0 1.472C.007 1.044.126.681.392.413.666.138 1.055.023 1.588 0h8.78zm-.284 1.363H1.618c-.13.005-.21.018-.243.02l-.006-.001v.015l-.004.078.111 8.516 7.929 7.988c.431.374.789.585 1.052.645.178.041.424-.017.75-.213l6.986-6.948c.278-.316.419-.642.44-.995.018-.307-.109-.61-.41-.927l-8.14-8.178zM6.474 3.21a2.956 2.956 0 012.958 2.953 2.956 2.956 0 01-2.959 2.954 2.956 2.956 0 01-2.958-2.954A2.956 2.956 0 016.473 3.21zm0 1.363a1.59 1.59 0 10-.001 3.18 1.59 1.59 0 100-3.18z"/></svg>