<svg xmlns="http://www.w3.org/2000/svg" viewBox="0 0 100 100"><style/><path d="M52.9 67.6v17.8c0 1.6-1.3 2.9-2.9 2.9s-2.9-1.3-2.9-2.9V67.6c0-1.6 1.3-2.9 2.9-2.9s2.9 1.2 2.9 2.9zm44.2 26.5H55.9c-1.6 0-2.9-1.3-2.9-2.9s1.3-2.9 2.9-2.9h41.2c1.6 0 2.9 1.3 2.9 2.9s-1.3 2.9-2.9 2.9zm-53 0H2.9c-1.6 0-2.9-1.3-2.9-2.9s1.3-2.9 2.9-2.9h41.2c1.6 0 2.9 1.3 2.9 2.9s-1.2 2.9-2.9 2.9z"/><path d="M52.9 67.6v17.8c0 1.6-1.3 2.9-2.9 2.9V64.6c1.6 0 2.9 1.3 2.9 3z"/><path d="M50 82.4c-4.9 0-8.8 3.9-8.8 8.8s3.9 8.8 8.8 8.8 8.8-3.9 8.8-8.8-3.9-8.8-8.8-8.8z"/><path d="M58.8 91.2c0 4.9-3.9 8.8-8.8 8.8V82.4c4.9 0 8.8 3.9 8.8 8.8zM85.1 8.8H45.6L36.8 0h-22C10 0 6 4 6 8.8v17.6h87.9v-8.8c0-4.8-4-8.8-8.8-8.8z"/><path d="M85.1 8.8H14.8c-4.8 0-8.8 4-8.8 8.8v44c0 4.8 4 8.8 8.8 8.8h70.3c4.8 0 8.8-4 8.8-8.8v-44c0-4.8-4-8.8-8.8-8.8z"/></svg>