<svg xmlns="http://www.w3.org/2000/svg" viewBox="0 0 72 96"><style/><path d="M0 2v92c0 1.1.9 2 2 2h68c1.1 0 2-.9 2-2V28H50c-1.1 0-2-.9-2-2V0H2C.9 0 0 .9 0 2z"/><path d="M71.9 24c-.1-.4-.2-.7-.4-1L52 1.2V24h19.9zM6 41h60v49H6zm6.5-34.9c1.3 0 2.6.4 3.6 1.2l-1.4 2.8c-.4-.5-1.3-.9-2.1-.9-2.1 0-3.2 1.9-3.2 4.2 0 2.3 1.2 4.4 3.2 4.4 1 0 1.7-.5 2.3-1l1.4 2.8c-.9.7-2 1.3-3.9 1.3-4 0-6.3-3.1-6.3-7.4-.1-4.2 2.3-7.4 6.4-7.4zm6.4.3h3.3V16c0 1.4.6 1.9 1.5 1.9s1.5-.5 1.5-1.9V6.4h3.3V16c0 3-1.9 4.9-4.7 4.9-2.9 0-4.8-1.9-4.8-4.9V6.4zm13.1 0h4.5c.6 0 1.3.1 1.9.4 1.4.6 2.4 2.1 2.4 4 0 1.7-.8 3.3-2 4 0 0 .2.2.5.9l2.3 5H38l-2-4.8h-.8v4.8H32V6.4zm3.9 6.6c.9 0 1.6-.7 1.6-1.9 0-.7-.2-1.2-.6-1.5-.3-.2-.6-.3-.9-.3h-.7V13h.6z"/><path d="M50.981 77.392L44.19 82.78l-7.668-9.493-4.916 6.043-9.321-30.626L50.329 64.26l-7.015 3.64 7.667 9.492z"/></svg>