<svg xmlns="http://www.w3.org/2000/svg" viewBox="0 0 72 96"><style/><path d="M0 2v92c0 1.1.9 2 2 2h68c1.1 0 2-.9 2-2V28H50c-1.1 0-2-.9-2-2V0H2C.9 0 0 .9 0 2z"/><path d="M71.9 24c-.1-.4-.2-.7-.4-1L52 1.2V24h19.9zM6 41h60v49H6zM5.4 6.4H9l1.6 8.1c.2.9.3 2.3.3 2.3h.1s.2-1.4.3-2.3L13 6.4h3.5l-3.9 14.3H9.3L5.4 6.4zm15.8 2.9H18V6.4h9.6v2.9h-3.2v11.4h-3.3V9.3zm11.5 4.3l-3.4-7.2h3.6L34 9.3l.6 1.8s.2-.9.6-1.8l1.2-2.9H40l-3.4 7.2 3.3 7.1h-3.5l-1.1-3c-.4-.9-.6-1.7-.6-1.7s-.2.8-.6 1.7l-1.1 3h-3.5l3.2-7.1z"/><path d="M17.1 51.3l21.3-4.1V83l-21.3-3.9z"/><path d="M53.3 79.5H35.2c-.9 0-1.6-.7-1.6-1.6V52.4c0-.9.7-1.6 1.6-1.6h18.1c.9 0 1.6.7 1.6 1.6v25.5c0 .9-.7 1.6-1.6 1.6zM35.2 52.3c-.1 0-.2.1-.2.2V78c0 .1.1.2.2.2h18.1c.1 0 .2-.1.2-.2V52.4c0-.1-.1-.2-.2-.2l-18.1.1z"/><path d="M36 68h6v6h-6zm7.027-9.31l3.606-3.607 3.606 3.606-3.606 3.607zM43 58.8h-5m9 3.2v9m-5 0h6"/><path stroke-miterlimit="10" stroke-width=".75" d="M23 60.2h2.1l2.3 6.9c.2.6.4 1.6.4 1.6s.2-.9.4-1.6l2.4-6.9h2.1l-3.9 10.6h-1.9L23 60.2z"/></svg>