<svg xmlns="http://www.w3.org/2000/svg" viewBox="0 0 24 24"><path d="M10 5a1 1 0 11-2 0 1 1 0 012 0zM9 9a1 1 0 100-2 1 1 0 000 2zm1 10a1 1 0 11-2 0 1 1 0 012 0zm-1-7a1 1 0 100-2 1 1 0 000 2zm4-7a1 1 0 11-2 0 1 1 0 012 0zm-1 4a1 1 0 100-2 1 1 0 000 2zm1 10a1 1 0 11-2 0 1 1 0 012 0zm2-13a1 1 0 100-2 1 1 0 000 2zm1 2a1 1 0 11-2 0 1 1 0 012 0zm-1 12a1 1 0 100-2 1 1 0 000 2z"/><path fill-rule="evenodd" d="M8 1a3 3 0 00-3 3v16a3 3 0 003 3h8a3 3 0 003-3V4a3 3 0 00-3-3H8zm8 2H8a1 1 0 00-1 1v16a1 1 0 001 1h8a1 1 0 001-1V4a1 1 0 00-1-1z" clip-rule="evenodd"/></svg>