<svg xmlns="http://www.w3.org/2000/svg" viewBox="0 0 24 24"><path fill-rule="evenodd" d="M16 9a4 4 0 11-8 0 4 4 0 018 0zm-2 0a2 2 0 11-4 0 2 2 0 014 0z" clip-rule="evenodd"/><path fill-rule="evenodd" d="M12 1C5.925 1 1 5.925 1 12s4.925 11 11 11 11-4.925 11-11S18.075 1 12 1zM3 12c0 2.09.713 4.014 1.908 5.542A8.986 8.986 0 0112.065 14a8.984 8.984 0 017.092 3.458A9 9 0 103 12zm9 9a8.963 8.963 0 01-5.672-2.012A6.992 6.992 0 0112.065 16a6.991 6.991 0 015.689 2.92A8.964 8.964 0 0112 21z" clip-rule="evenodd"/></svg>