<svg xmlns="http://www.w3.org/2000/svg" viewBox="0 0 24 24"><path d="M5 4a1 1 0 11-2 0 1 1 0 012 0zm4 0a1 1 0 11-2 0 1 1 0 012 0zm3 1a1 1 0 100-2 1 1 0 000 2zm5-1a1 1 0 11-2 0 1 1 0 012 0zm3 1a1 1 0 100-2 1 1 0 000 2zM5 20a1 1 0 11-2 0 1 1 0 012 0zm4 0a1 1 0 11-2 0 1 1 0 012 0zm3 1a1 1 0 100-2 1 1 0 000 2zm5-1a1 1 0 11-2 0 1 1 0 012 0zm3 1a1 1 0 100-2 1 1 0 000 2zM5 12a1 1 0 100-2 1 1 0 000 2zm15 1a1 1 0 11-2 0 1 1 0 012 0z"/><path fill-rule="evenodd" d="M0 9a3 3 0 013-3h18a3 3 0 013 3v6a3 3 0 01-3 3H3a3 3 0 01-3-3V9zm3-1h18a1 1 0 011 1v6a1 1 0 01-1 1H3a1 1 0 01-1-1V9a1 1 0 011-1z" clip-rule="evenodd"/></svg>