<svg xmlns="http://www.w3.org/2000/svg" viewBox="0 0 24 24"><path d="M11.5 19a1 1 0 101 1 1 1 0 00-1-1zm0-4a1 1 0 101 1 1 1 0 00-1-1zm0-4a1 1 0 101 1 1 1 0 00-1-1zm-8-8a1 1 0 00-1 1v16a1 1 0 002 0V4a1 1 0 00-1-1zm16 2a1 1 0 10-1-1 1 1 0 001 1zm-8 2a1 1 0 101 1 1 1 0 00-1-1zm-4 4a1 1 0 101 1 1 1 0 00-1-1zm0 8a1 1 0 101 1 1 1 0 00-1-1zm0-16a1 1 0 101 1 1 1 0 00-1-1zm12 8a1 1 0 101 1 1 1 0 00-1-1zm0 4a1 1 0 101 1 1 1 0 00-1-1zm-8-12a1 1 0 101 1 1 1 0 00-1-1zm8 16a1 1 0 101 1 1 1 0 00-1-1zm0-12a1 1 0 101 1 1 1 0 00-1-1zm-4-4a1 1 0 101 1 1 1 0 00-1-1zm0 16a1 1 0 101 1 1 1 0 00-1-1zm0-8a1 1 0 101 1 1 1 0 00-1-1z"/></svg>