<svg xmlns="http://www.w3.org/2000/svg" data-name="Layer 1" viewBox="0 0 24 24"><path d="M14.022 7h1a1.001 1.001 0 011 1v1a1 1 0 002 0V8a3.003 3.003 0 00-3-3h-1a1 1 0 000 2zm-4 9h-1a1.001 1.001 0 01-1-1v-1a1 1 0 00-2 0v1a3.003 3.003 0 003 3h1a1 1 0 000-2zm11-1a1 1 0 000-2h-3v-.5a1 1 0 00-2 0v.5h-3a1 1 0 000 2h5.184a6.728 6.728 0 01-1.225 2.527 6.668 6.668 0 01-.63-.983 1 1 0 10-1.779.912 8.678 8.678 0 00.96 1.468 6.618 6.618 0 01-2.426 1.099 1 1 0 00.427 1.954 8.635 8.635 0 003.445-1.622 8.724 8.724 0 003.469 1.622 1 1 0 10.43-1.954 6.725 6.725 0 01-2.446-1.09A8.736 8.736 0 0020.244 15zm-11.97-3.757a1 1 0 001.94-.486l-1.757-7.03a2.281 2.281 0 00-4.426 0l-1.757 7.03a1 1 0 001.94.486L5.552 9h2.94zM6.052 7l.698-2.787a.291.291 0 01.544 0L7.991 7z"/></svg>