<svg xmlns="http://www.w3.org/2000/svg" viewBox="0 0 24 24"><path d="M13.21 5.7a1 1 0 00.24 0l1.94-.49A1 1 0 0016.12 4a1 1 0 00-1.21-.73L13 3.73a1 1 0 00.24 2zM9.51 9h-2a1 1 0 100 2h2a1 1 0 000-2zm4 0a1 1 0 100 2h2a1 1 0 000-2zM7.39 7.15h.24l1.94-.48a1 1 0 00-.48-1.97l-1.94.48a1 1 0 00.24 2zM4 10.51a1 1 0 001-1v-2a1 1 0 00-2 0v2a1 1 0 001 1zm16.62-8.3a1 1 0 00-.86-.21l-1 .24a1 1 0 00-.73 1.21 1 1 0 001 .76A1 1 0 0021 4V3a1 1 0 00-.38-.79zM20 7a1 1 0 00-1 1v1.14a1 1 0 00.51 1.86H20a1 1 0 001-1V8a1 1 0 00-1-1zm0 6H4a1 1 0 00-1 1v3a1 1 0 00.76 1l16 4a1 1 0 00.24 0 1 1 0 001-1v-7a1 1 0 00-1-1zm-1 6.72l-14-3.5V15h14z"/></svg>