<svg xmlns="http://www.w3.org/2000/svg" data-name="Layer 1" viewBox="0 0 24 24"><path d="M21.056 12h-2a1 1 0 000 2v2H17.87a2.965 2.965 0 00.185-1 3 3 0 00-5.598-1.5 1 1 0 101.732 1 1 1 0 01.866-.5 1 1 0 010 2 1 1 0 000 2 1 1 0 110 2 1 1 0 01-.866-.5 1 1 0 10-1.732 1 3 3 0 005.598-1.5 2.965 2.965 0 00-.185-1h1.185v3a1 1 0 002 0v-7a1 1 0 100-2zm-11.97-.757a1 1 0 101.94-.486l-1.757-7.03a2.28 2.28 0 00-4.425 0l-1.758 7.03a1 1 0 101.94.486L5.585 9h2.94zM6.086 7l.697-2.787a.292.292 0 01.546 0L8.026 7zm7.97 0h1a1.001 1.001 0 011 1v1a1 1 0 002 0V8a3.003 3.003 0 00-3-3h-1a1 1 0 000 2zm-4 9h-1a1.001 1.001 0 01-1-1v-1a1 1 0 00-2 0v1a3.003 3.003 0 003 3h1a1 1 0 000-2z"/></svg>