<svg xmlns="http://www.w3.org/2000/svg" data-name="Layer 1" viewBox="0 0 24 24"><path d="M21.951 15.614a4.724 4.724 0 01-2.981-2.173 1 1 0 10-1.657 1.121 7.688 7.688 0 002.403 2.335c-.135.025-.281.05-.442.075a1.367 1.367 0 00-1.076 1.207 6.062 6.062 0 00-2.014-.004 4.64 4.64 0 00-1.958.956 3.484 3.484 0 01-2.104.87h-.26a3.485 3.485 0 01-2.106-.872 4.627 4.627 0 00-1.929-.95 6.39 6.39 0 00-2.04.005 1.368 1.368 0 00-1.062-1.21 12.74 12.74 0 01-.435-.075A6.857 6.857 0 006.085 15.4a6.714 6.714 0 00.635-.868 1 1 0 00-1.696-1.06 4.907 4.907 0 01-.448.616 4.252 4.252 0 01-2.553 1.528 1.224 1.224 0 00-1.032 1.236 1.28 1.28 0 00.115.533c.316.716 1.156 1.168 2.785 1.474l.03.13c.03.118.058.239.093.348a1.289 1.289 0 001.278.945 2.59 2.59 0 00.603-.087 4.67 4.67 0 011.588-.046 3.008 3.008 0 011.123.618 5.413 5.413 0 003.255 1.235h.261a5.445 5.445 0 003.274-1.248 2.915 2.915 0 011.131-.61 3.485 3.485 0 01.624-.052 4.27 4.27 0 01.955.106 3.788 3.788 0 00.616.064 1.256 1.256 0 001.245-.923c.038-.122.067-.24.094-.355l.032-.124c1.624-.305 2.467-.754 2.767-1.44a1.17 1.17 0 00.127-.48 1.244 1.244 0 00-1.036-1.326zm-18.15-4.466a1.005 1.005 0 001.057-.484 3.138 3.138 0 001.275.338 1.794 1.794 0 001.265-.499 1 1 0 00.317-.79l-.036-.602a9.902 9.902 0 01.156-3.561 4.26 4.26 0 013.966-2.544l.388-.004a4.264 4.264 0 013.96 2.547 9.917 9.917 0 01.156 3.564l-.01.163-.027.444a1.028 1.028 0 00.312.778 1.795 1.795 0 001.254.503 3.271 3.271 0 001.241-.365 1 1 0 00.916.598h.018a1 1 0 00.982-1.017 1.642 1.642 0 00-1.185-1.451 1.914 1.914 0 00-1.477.01 9.471 9.471 0 00-.354-4.042 6.236 6.236 0 00-5.796-3.732l-.393.004a6.222 6.222 0 00-5.777 3.73 9.586 9.586 0 00-.352 4.094l-.111-.052a1.909 1.909 0 00-2.537 1.199 1.002 1.002 0 00.793 1.171z"/></svg>