<svg viewBox="0 0 1280 1280"><path d="M231.485 947.63c85.791 0 155.341-71.373 155.341-159.212 0-88.105-69.55-159.498-155.341-159.498-85.586 0-155.197 71.393-155.197 159.498 0 87.839 69.612 159.212 155.197 159.212zM40.96 788.419c0-108.052 85.484-195.502 190.525-195.502 105.349 0 190.669 87.45 190.669 195.502 0 108.012-85.32 195.215-190.669 195.215-105.042 0-190.525-87.204-190.525-195.215zm751.636 161.157c85.484 0 155.116-71.373 155.116-159.252 0-88.044-69.632-159.416-155.116-159.416-85.832 0-155.484 71.373-155.484 159.416 0 87.88 69.652 159.252 155.484 159.252zM601.805 790.323c0-108.012 85.484-195.441 190.792-195.441 104.96 0 190.444 87.429 190.444 195.441 0 107.848-85.484 195.277-190.444 195.277-105.308 0-190.792-87.429-190.792-195.277zm.594-477.061c39.567 0 71.721-32.768 71.721-73.318 0-40.571-32.154-73.544-71.721-73.544s-71.7 32.973-71.7 73.544 32.133 73.318 71.7 73.318zm3.01 180.818c-10.404 0-21.606-6.226-29.839-19.681l-46.551-75.244-96.051 97.321 88.986 47.8c36.639 17.981 31.027 50.79 31.027 50.79v206.766c0 23.45-18.104 42.516-40.96 42.516s-40.96-19.087-40.96-42.516V636.313l-154.706-87.88c-18.412-10.629-31.007-30.802-31.007-53.78 0-15.852 5.652-30.392 15.38-41.226l151.511-155.566c18.801-21.914 45.036-18.432 45.036-18.432 31.744 0 48.456 28.426 48.456 28.426l75.387 126.484 116.163-.225c40.96 0 40.96 59.965 0 59.965H605.41z"/></svg>