<svg viewBox="0 0 1280 1280"><path d="M102.4 166.4h348.16v40.96H409.6v28.754l-307.2 27.32zm492.339 99.41c44.196 0 79.892-35.881 79.892-80.302 0-44.442-35.697-80.548-79.892-80.548-44.175 0-80.097 36.106-80.097 80.548 0 44.421 35.922 80.302 80.097 80.302zm60.519-4.526c22.897-22.815 59.761-22.815 82.719 0l172.995 173.691c6.615 6.656 10.629 15.933 10.629 25.907V982.2c0 35.881-25.518 64.84-61.174 64.84-35.717 0-61.706-28.959-61.706-64.84V552.12L634.205 389.857l-66.15 64.86c-7.311 8.786-19.005 14.5-31.56 14.5-11.551 0-22.385-4.997-29.716-13.066L395.45 344.248c-14.172-16.876-13.128-42.537 3.666-56.791 16.773-14.254 41.779-11.878 56.013 4.997l84.337 85.299 115.794-116.47zm-336.384 24.719c-1.659-7.844-8.52-13.537-16.548-13.537-8.274 0-11.428 5.939-12.841 14.008L266.24 441.63v605.409h225.28v-81.92H347.013l-.942-519.782-27.197-159.334z"/></svg>