<svg viewBox="0 0 1280 1280"><path d="M488.366 257.516c41.226-1.085 73.687-36.168 72.622-78.029-1.085-42.394-35.246-75.284-76.472-74.527-41.021 1.106-73.482 36.168-72.622 78.234 1.065 42.086 35.451 75.407 76.472 74.322zm253.112 252.743L632.34 449.29l-90.378-143.708c-14.5-18.473-37.151-32.133-62.996-31.805-19.436.655-36.536 9.605-50.217 21.627l-136.131 139.1c-4.485 4.813-7.578 10.916-8.643 17.592l-17.428 153.211c-.205 1.659-.205 3.052-.307 4.71.532 19.005 16.015 33.751 34.591 33.423 17.428-.43 30.761-15.524 32.686-32.113l14.336-131.482 47.411-48.189-42.394 368.476-78.623 173.855c-2.355 6.124-4.813 14.664-4.608 22.712.758 28.406 23.941 50.913 51.814 50.278 19.743-.553 35.799-12.698 44.442-29.942l84.214-187.638c1.7-5.018 7.68-17.265 7.885-22.815l9.83-90.808 86.733 295.363c7.455 20.644 26.481 36.27 49.336 35.615 27.771-.758 49.992-24.289 49.357-52.797-.225-3.727-1.311-6.103-1.495-10.383L531.251 574.013l15.38-133.1 33.976 53.76c2.335 3.502 5.55 6.779 9.175 9.052l119.214 66.765c5.755 1.864 10.26 3.4 15.565 3.4 18.842-.532 33.567-16.384 33.157-35.512-.389-11.715-6.84-22.426-16.241-28.119z"/></svg>