<svg xmlns="http://www.w3.org/2000/svg" viewBox="0 0 90 100"><path d="M0 94a6 6 0 006 6h78a6 6 0 006-6V75H0v19zM69 0h11a2 2 0 012 2v16a2 2 0 01-2 2H69a2 2 0 01-2-2V2a2 2 0 012-2zM10 0h11a2 2 0 012 2v16a2 2 0 01-2 2H10a2 2 0 01-2-2V2a2 2 0 012-2z"/><path d="M12 20h2V0h-2v20zm5-20v20h2V0h-2zm54 20h2V0h-2v20zm5-20v20h2V0h-2zM51 5v5h5l-5-5zm-12 5V5l-5 5h5zm5.938-6c2.681 0 4.841.752 6.039 1.879L51 5.5C51 3.017 48.527 1 44.938 1 41.35 1 39 3.017 39 5.5l.039.328C40.21 4.729 42.299 4 44.938 4z"/><path d="M20 10h50c11.046 0 20 8.955 20 20v45H0V30c0-11.044 8.954-20 20-20z"/><path d="M54.561 31.939l-8.498-8.5a1.504 1.504 0 00-2.125 0l-8.498 8.5a1.502 1.502 0 000 2.123l8.498 8.498a1.5 1.5 0 002.125 0l8.498-8.498a1.503 1.503 0 000-2.123zM44 34.5a1.5 1.5 0 01-3 0v-3a1.5 1.5 0 013 0v3zm5 0a1.5 1.5 0 01-3 0v-3a1.5 1.5 0 013 0v3zM76 58a4 4 0 00-4-4H18a4 4 0 00-4 4v6h2v18a4 4 0 004 4h50a4 4 0 004-4V64h2v-6z"/><path d="M74 66v-2H16v2h8.312v3.625a2 2 0 003.662 1.111A1.984 1.984 0 0127 71a2 2 0 01-2-2v-3h49z"/><path d="M25 64v5a2 2 0 004 0v-5h-4zm2 6a1 1 0 110-2 1 1 0 010 2zm43-60H20C8.954 10 0 18.956 0 30v3c0-11.045 8.954-20 20-20h50c11.046 0 20 8.955 20 20v-3c0-11.044-8.954-20-20-20z"/><path d="M25 64h4v2h-4zm2 4a.99.99 0 00-.934.676l.247-.051c.552 0 1 .449 1 1 0 .115-.03.223-.065.326A.988.988 0 0028 69c0-.551-.448-1-1-1zm-2.688-4H25v2h-.688zM84 97H6a6 6 0 01-6-6v3a6 6 0 006 6h78a6 6 0 006-6v-3a6 6 0 01-6 6zM70 86H20a4 4 0 01-4-4v2a4 4 0 004 4h50a4 4 0 004-4v-2a4 4 0 01-4 4z"/></svg>