<svg xmlns="http://www.w3.org/2000/svg" viewBox="0 0 100 100"><path d="M100 85c0 8.284-6.716 15-15 15H15c-8.284 0-15-6.716-15-15V15C0 6.716 6.716 0 15 0h70c8.284 0 15 6.716 15 15v70z"/><path d="M90 15a5 5 0 11-10.001-.001A5 5 0 0190 15z"/><circle cx="49" cy="52" r="37" opacity=".5"/><circle cx="50" cy="50" r="37"/><circle cx="50" cy="50" r="34"/><circle cx="50" cy="50" r="22"/><circle cx="50" cy="50" r="13"/><circle cx="50" cy="50" r="4"/><path d="M50 59a9 9 0 01-9-9.001" clip-rule="evenodd"/><path d="M23.625 23.873c14.498-14.498 38.004-14.498 52.502 0 14.498 14.498 14.498 38.004 0 52.502" opacity=".15"/></svg>