<svg xmlns="http://www.w3.org/2000/svg" viewBox="0 0 102 102"><circle cx="50" cy="52" r="50" opacity=".15"/><circle cx="52" cy="50" r="50"/><path d="M52 10c22.091 0 40 17.909 40 40S74.091 90 52 90 12 72.091 12 50s17.909-40 40-40z"/><path fill-rule="evenodd" d="M52 20c16.569 0 30 13.431 30 30 0 16.568-13.431 30-30 30-16.569 0-30-13.432-30-30 0-16.569 13.431-30 30-30z" clip-rule="evenodd"/><path d="M52 30c11.046 0 20 8.955 20 20s-8.954 20-20 20-20-8.955-20-20 8.954-20 20-20z"/><path fill-rule="evenodd" d="M52 40c5.523 0 10 4.477 10 10 0 5.522-4.477 10-10 10s-10-4.478-10-10c0-5.523 4.477-10 10-10zm37 34H76l13 13h13L89 74z" clip-rule="evenodd"/><path fill-rule="evenodd" d="M89 100V87L76 74v13l13 13zm0-26H76l13 13h13L89 74z" clip-rule="evenodd"/><path d="M50.439 48.439L15.121 83.757a50.513 50.513 0 002.097 2.145L52.56 50.56a1.5 1.5 0 10-2.121-2.121z" opacity=".15"/><path d="M90.363 89.896c-.384 0-.769-.146-1.062-.439L50.939 51.061a1.501 1.501 0 012.123-2.121l38.363 38.395a1.501 1.501 0 01-1.062 2.561z"/></svg>