<svg xmlns="http://www.w3.org/2000/svg" viewBox="0 0 46 98.85"><path d="M21 57.85h4a3 3 0 013 3v35a3 3 0 01-3 3h-4a3 3 0 01-3-3v-35a3 3 0 013-3z"/><path d="M6 31h34c3.312 0 6 2.687 6 6v33c0 3.312-2.688 6-6 6H6c-3.313 0-6-2.688-6-6V37a6 6 0 016-6z"/><path d="M14 9c2.762 0 5 2.237 5 5v48c0 2.762-2.238 5-5 5s-5-2.238-5-5V14a5 5 0 015-5zm18 0c2.762 0 5 2.237 5 5v48c0 2.762-2.238 5-5 5s-5-2.238-5-5V14a5 5 0 015-5z"/><path d="M15 0h16c8.284 0 15 6.716 15 15v25H0V15C0 6.716 6.716 0 15 0z"/><path d="M37 40V14c0-2.763-2.238-5-5-5s-5 2.237-5 5v26h10zm-18 0V14c0-2.763-2.238-5-5-5s-5 2.237-5 5v26h10zm-1 36h10L18 86V76z"/></svg>