<svg xmlns="http://www.w3.org/2000/svg" viewBox="0 0 100 100"><path d="M74 15H6a6 6 0 00-6 6v73a6 6 0 006 6h68a6 6 0 006-6V21a6 6 0 00-6-6z"/><rect width="32" height="76" x="49" y="15" fill-rule="evenodd" clip-rule="evenodd" opacity=".2" rx="5"/><path d="M76 93a3 3 0 01-3 3H7a3 3 0 01-3-3V32h72v61z"/><circle cx="9" cy="24" r="3" fill-rule="evenodd" clip-rule="evenodd"/><circle cx="17" cy="24" r="3" fill-rule="evenodd" clip-rule="evenodd"/><circle cx="25" cy="24" r="3" fill-rule="evenodd" clip-rule="evenodd"/><path fill-rule="evenodd" d="M8 36h64v56H8z" clip-rule="evenodd"/><path fill-rule="evenodd" d="M34 36h38v56H34z" clip-rule="evenodd"/><g fill-rule="evenodd" clip-rule="evenodd"><path d="M94 0H58a6 6 0 00-6 6v76.001a6 6 0 006 5.998h36a6 6 0 006-5.998V6a6 6 0 00-6-6zm2 74H56V14h40v60z"/><path d="M56 14h40v60H56z"/><path d="M59 17h34v54H59z"/><path d="M59 44h34v27H59zM69.5 6h12a1.5 1.5 0 010 3h-12a1.5 1.5 0 110-3zM76 78.001a2.999 2.999 0 110 5.998 3 3 0 110-5.998z"/></g></svg>