<svg xmlns="http://www.w3.org/2000/svg" viewBox="0 0 100 100"><path d="M50 0c27.613 0 50 22.386 50 50s-22.387 50-50 50C22.386 100 0 77.614 0 50S22.386 0 50 0z"/><g clip-path="url(#b)"><path d="M35 25l-67 67 27 27h57V29l-17-4z"/><path d="M50 20c14.359 0 26 11.641 26 26v43c0 14.359-11.641 26-26 26s-26-11.641-26-26V46c0-14.359 11.641-26 26-26z"/><path d="M46 43h8a3 3 0 013 3v13a3 3 0 01-3 3h-8a3 3 0 01-3-3V46a3 3 0 013-3z"/><path d="M50 45a1 1 0 11.002 1.998A1 1 0 0150 45zm1 4H36v3h10v4a3 3 0 003 3h2a3 3 0 003-3v-4h10v-3H51z"/><path d="M50 53a2 2 0 11-.001 4.001A2 2 0 0150 53zm16-10h4a3 3 0 013 3v9a3 3 0 01-3 3h-4a3 3 0 01-3-3v-9a3 3 0 013-3z"/><path d="M66 43h4v15h-4V43zm-36 0h4a3 3 0 013 3v9a3 3 0 01-3 3h-4a3 3 0 01-3-3v-9a3 3 0 013-3z"/><path d="M30 43h4v15h-4V43zm20 26c-6.075 0-11 4.925-11 11 0 3.859 1.992 7.25 5 9.213V91.5a1.5 1.5 0 103 0 1.5 1.5 0 103 0 1.5 1.5 0 003 0 1.5 1.5 0 003 0v-2.287c3.008-1.963 5-5.354 5-9.213 0-6.075-4.925-11-11-11zm-3.5 14a2.5 2.5 0 110-5 2.5 2.5 0 010 5zm7 0a2.5 2.5 0 110-5 2.5 2.5 0 010 5zM37 53h9v-2h-9v2zm17-2v2h9v-2h-9z"/><path d="M37 51h6v2h-6zm20 0h6v2h-6z"/><path d="M54 51h9v1h-9zm-17 0h9v1h-9z"/></g></svg>