<svg xmlns="http://www.w3.org/2000/svg" viewBox="0 0 100 100"><path d="M50 0c27.613 0 50 22.386 50 50s-22.387 50-50 50C22.386 100 0 77.614 0 50S22.386 0 50 0z"/><g clip-path="url(#b)"><path d="M20 66h60v64H20V66z"/><path d="M20 71h30v59H20V71z"/><path d="M50 86c12.15 0 22 9.85 22 22s-9.85 22-22 22-22-9.85-22-22 9.85-22 22-22z"/><path d="M50 86c.008.023-.005 44.037 0 44-12.15 0-22-9.85-22-22s9.85-22 22-22zM34 24h32a4 4 0 014 4v21a4 4 0 01-4 4H34a4 4 0 01-4-4V28a4 4 0 014-4z"/><path d="M45 34h10a4 4 0 014 4v16a4 4 0 01-4 4H45a4 4 0 01-4-4V38a4 4 0 014-4z"/><path d="M40 48h20c11.046 0 20 8.954 20 20H20c0-11.046 8.954-20 20-20z"/><path d="M20 67h60a2 2 0 010 4H20a2 2 0 010-4zm11-19h38c2.016 0 3 4 3 4H28s.954-4 3-4z"/><path d="M20 67a2 2 0 000 4h30v-4H20zm30 0V52H28.036c-4.619 3.46-7.681 8.859-7.986 15H50zM31 48c-2.046 0-3 4-3 4h22v-4H31zm19-14h-5a4 4 0 00-4 4v10h9V34z"/><path d="M50 39a3 3 0 110 6 3 3 0 010-6z"/></g></svg>