<svg xmlns="http://www.w3.org/2000/svg" viewBox="-2 0 32 32"><path d="M2.513 14.688c-.022.384-.033.768-.033 1.152 0 1.451.213 2.986.64 4.608a20.28 20.28 0 002.656 5.888c1.899 2.901 3.733 4.363 5.504 4.384.64 0 1.472-.224 2.496-.672s2.038-.672 3.04-.672h.128c.981 0 1.952.214 2.912.64 1.003.47 1.813.704 2.433.704 1.045-.021 2.016-.458 2.912-1.312.896-.854 1.802-1.963 2.719-3.328.662-1.023 1.355-2.314 2.08-3.872a7.04 7.04 0 01-2.72-1.824c-.747-.811-1.259-1.718-1.536-2.72a7.332 7.332 0 01-.287-2.24v-.768c.085-1.024.441-2 1.071-2.928s1.467-1.68 2.513-2.256c-.811-1.024-1.761-1.824-2.849-2.4-1.088-.576-2.187-.864-3.296-.864-1.023 0-2.149.229-3.376.688s-2.139.688-2.735.688c-.641 0-1.605-.229-2.896-.688s-2.374-.688-3.248-.688c-1.237 0-2.459.357-3.664 1.072-1.206.715-2.225 1.701-3.057 2.96-.789 1.195-1.258 2.677-1.407 4.448zm13.28-8.256a4.886 4.886 0 01-.097-.96c0-1.387.565-2.763 1.696-4.128.576-.704 1.317-1.301 2.225-1.792.906-.49 1.786-.768 2.639-.832.043.32.064.64.064.96 0 1.472-.533 2.88-1.6 4.224a6.788 6.788 0 01-2.24 1.856c-.875.47-1.729.693-2.561.672h-.126z"/></svg>