<svg xmlns="http://www.w3.org/2000/svg" viewBox="0 0 128 128"><path d="M40.54 0c-.996-.007-1.982.09-2.81.298-3.356.84-6.377 3.17-8.697 6.701-1.308 1.993-1.595 2.641-5.115 11.555-1.715 4.342-4.003 9.99-5.085 12.552-5.46 12.928-6.531 16.613-7.302 25.105-.418 4.603-.663 6.135-1.503 9.395-1.04 4.038-1.202 5.142-1.295 8.801-.087 3.477.048 5.195.62 7.856.262 1.226.327 2.165.354 5.132.037 3.914.19 4.906 1.099 7.124.921 2.247 2.818 4.66 4.541 5.776.62.402.797.62.925 1.14.34 1.381 1.103 3.576 1.634 4.694 2.3 4.85 6.628 8.445 11.027 9.162.633.104 1.229.245 1.323.315.095.07.262.43.373.8.11.37.515 1.302.897 2.072 2.855 5.74 7.684 9.098 13.084 9.098 2.556 0 4.669-.623 6.905-2.035l1.05-.663.666.42c3.543 2.237 8.587 2.59 12.387.867l1.042-.473 1.37.684c1.415.707 2.927 1.259 4.144 1.513 1.09.229 5.274.08 6.383-.227 3.15-.87 6.366-3.242 8.247-6.084.684-1.033.767-1.1 1.399-1.102.766 0 2.887-.595 3.995-1.114 1.422-.665 2.9-1.76 4.28-3.168l1.184-1.21 1.102-.105c4.08-.393 7.935-3.454 9.643-7.66.251-.618.774-1.413 1.397-2.128 1.238-1.42 2.167-2.968 2.766-4.61.517-1.417.96-3.382.96-4.26 0-.353.274-1.18.695-2.1 2-4.363 3.137-9.215 3.576-15.253.095-1.302.47-4.215.831-6.473l.66-4.105-.007-6-.006-6-.895-6.553a3631.49 3631.49 0 01-2.325-17.526c-.802-6.151-1.594-11.632-1.803-12.473-1.538-6.19-5.187-10.463-9.982-11.69-1.533-.391-4.102-.417-5.575-.056-1.31.322-3.304 1.242-4.608 2.127-2.108 1.43-4.923 4.515-6.615 7.25-.626 1.012-2.098 2.854-2.874 3.596l-.54.517-1.988-.545c-6.413-1.758-14.584-2.903-21.596-3.028-3.3-.059-3.733-.097-3.92-.342-.49-.642-1.606-3.085-2.147-4.697-2.162-6.445-5.79-10.793-10.29-12.335C43.119.192 41.82.01 40.54 0zm-.035 6.08c1.433 0 1.659.042 2.44.453 2.396 1.261 4.336 4.081 5.779 8.402 1.258 3.77 4.503 9.206 5.524 9.253.17.008 1.34-.075 2.599-.185 6.61-.573 19.371 1.165 26.595 3.623.776.264 1.532.48 1.68.48.344 0 2.008-1.222 3.208-2.357 1.362-1.286 3.098-3.417 4.425-5.43 2.002-3.037 3.831-4.866 5.904-5.903.98-.49 1.35-.588 2.447-.643 1.522-.077 2.621.26 3.806 1.164 1.418 1.082 2.8 3.528 3.49 6.18.13.498 1.16 7.956 2.29 16.572 1.13 8.617 2.167 16.398 2.303 17.292.167 1.09.274 3.236.327 6.52.072 4.443.048 5.098-.258 7.104-.833 5.469-1.107 7.58-1.27 9.79-.441 5.977-1.657 10.814-3.59 14.282-.495.889-.575 1.183-.624 2.29-.123 2.796-1.033 4.923-2.87 6.708-1.062 1.033-1.265 1.32-1.511 2.14-1.16 3.85-3.85 5.71-7.084 4.898-1.47-.37-1.748-.27-2.303.83-1.932 3.826-5.285 5.65-8.807 4.789-1.077-.264-1.363-.096-1.79 1.048-1.242 3.32-3.329 5.544-5.966 6.359-1.176.363-3.314.404-4.47.085-1.699-.469-3.15-1.317-4.846-2.832-.546-.488-1.138-.887-1.316-.887-.178 0-.762.414-1.297.92-1.287 1.216-1.745 1.517-2.909 1.91-2.722.917-5.759-.04-8.406-2.648-1.98-1.95-2.139-1.96-3.366-.21-1.267 1.809-2.746 2.893-4.574 3.352-1.01.254-2.823.113-3.902-.304-3.402-1.314-6.156-5.619-6.78-10.597-.113-.91-.226-1.246-.49-1.46-.427-.346-.478-.345-1.704.04-1.323.414-2.907.41-4.158-.012-3.608-1.215-6.508-5.518-7.1-10.538-.188-1.588-.505-2.242-1.086-2.242-.578 0-2.2-.987-2.984-1.816-.986-1.044-1.652-2.406-2.003-4.105-.214-1.03-.24-1.715-.148-3.71.063-1.347.12-2.661.126-2.922.006-.26-.14-1.024-.324-1.697-1.158-4.222-1.1-9.424.157-14.166 1.114-4.199 1.377-5.777 1.858-11.136.681-7.584 1.675-11.003 6.576-22.625 1.262-2.993 3.706-9.015 5.431-13.381 1.725-4.367 3.362-8.39 3.638-8.94 1.141-2.276 3.073-4.39 4.812-5.264.86-.432 1.081-.474 2.521-.474zm-1.33 12.278c-.53-.012-1.071.16-1.62.517-.319.208-.808.71-1.086 1.114-.475.69-5.516 12.823-5.516 13.276 0 .403.44.203 1.365-.62 4.09-3.639 8.601-6.1 11.94-6.515.5-.063.95-.18 1-.26.05-.08-.272-.615-.714-1.188-.443-.573-1.157-1.779-1.589-2.68-1.142-2.386-2.425-3.614-3.78-3.644zm60.533 6.689a2.99 2.99 0 00-1.433.338c-1.04.54-1.598 1.094-3.015 2.99-.733.98-1.646 2.04-2.03 2.355-.385.314-.7.676-.7.803 0 .126.303.345.672.486 1.503.572 4.385 2.148 5.663 3.096 2.495 1.852 4.66 4.133 6.196 6.53.65 1.015 1.048 1.255 1.048.634 0-.689-2.569-13.634-2.862-14.422-.64-1.72-2.082-2.787-3.54-2.81zM49.658 39.66a11.026 11.026 0 00-2.837.362c-1.209.318-3.26 1.293-4.52 2.15-1.938 1.315-4.467 4.032-5.94 6.38-2.4 3.825-3.83 8.774-3.83 13.258 0 3.402.52 5.724 1.87 8.373 1.349 2.643 4.044 4.894 6.6 5.513 1.403.34 3.722.31 5.202-.068 4.546-1.158 8.93-5.073 11.663-10.416 3.572-6.985 3.798-14.887.585-20.45-.834-1.443-2.876-3.383-4.297-4.082-1.36-.67-2.915-1.015-4.496-1.02zm33.323 4.646c-2.713-.017-4.933.882-7.014 2.84-5.931 5.58-7.062 16.757-2.583 25.539 3.349 6.566 9.021 9.988 14.314 8.634 1.905-.487 3.29-1.3 4.847-2.843 3.475-3.445 5.255-8.74 4.99-14.845-.46-10.557-7.027-19.278-14.554-19.325zm-35.726 3.558c2.208-.018 3.922.73 5.515 2.391 1.458 1.52 2.498 4.352 2.498 6.803 0 1.894-.633 4.32-1.55 5.941-.993 1.755-2.8 3.57-4.35 4.373-1.37.708-3.756 1.136-4.995.897-2.642-.512-4.554-2.018-5.832-4.595-1.335-2.69-1.292-6.756.102-9.632.297-.613.518-.89.678-.848.658.174 2.083.188 2.575.026 1.442-.476 2.95-2.59 2.951-4.135 0-.462.089-.804.24-.93.138-.115.872-.233 1.72-.277a9.79 9.79 0 01.448-.014zm36.505 4.432c3.084-.044 6.011 1.82 7.585 5.098.729 1.518 1.027 2.722 1.135 4.585.373 6.394-4.304 11.727-9.66 11.015-3.16-.42-5.955-3.008-7.132-6.6-.33-1.008-.427-1.662-.481-3.237-.037-1.085-.006-2.258.069-2.605.135-.622.149-.632.886-.666 1.005-.047 1.725-.415 2.473-1.265.971-1.103 1.316-2.2 1.214-3.855l-.085-1.365.906-.406a7.8 7.8 0 013.09-.699zM63.794 68.771c-1.181-.004-2.115.423-3.397 1.55-1.052.926-1.083 1.47-.267 4.68 1.577 6.201 2.144 7.23 3.332 6.039.509-.51 2.172-3.277 3.591-5.974 1.38-2.622 1.358-3.031-.256-4.849-.943-1.06-1.733-1.441-3.003-1.446z"/></svg>