<svg xmlns="http://www.w3.org/2000/svg" viewBox="0 0 32 32"><path d="M0 21.92V10.112q0-4.16 2.976-7.136T10.112 0h7.072q2.08.256 4.432 1.824t3.344 3.68q.032.064.16.304t.16.32.112.304.128.4.112.496.128.704.128.928q.288 2.24.832 2.72.448.416 2.272.464t2.08.24l.448.352.256.544.096.448-.064 8.192q-.032 4.16-2.976 7.12T21.728 32H10.112q-4.16 0-7.136-2.96T0 21.92zm8.288-.16q0 .8.576 1.36t1.376.56h11.392q.8 0 1.36-.56t.56-1.36-.56-1.36-1.36-.56H10.24q-.8 0-1.376.56t-.576 1.36zm0-11.584q0 .8.576 1.376t1.376.576h5.6q.8 0 1.36-.576t.56-1.376-.56-1.36-1.36-.56h-5.6q-.8 0-1.376.56t-.576 1.36z"/></svg>