<svg xmlns="http://www.w3.org/2000/svg" viewBox="-3.5 0 32 32"><path d="M3.668 30.368v-24.8h2.944c0-.619.005-1.035.016-1.248s.053-.549.128-1.008.197-.779.368-.96c.171-.181.432-.357.784-.528.352-.171.784-.256 1.296-.256s.944.085 1.296.256c.352.17.608.341.768.512.16.171.283.496.368.976s.128.816.128 1.008v1.248h1.76V4.32l.128-1.008c.086-.672.208-.998.368-.976.159.021.415-.149.768-.512.353-.363.784-.448 1.296-.256a3.4 3.4 0 01.992.128c.277.085.507.176.688.272.182.096.336.277.465.544.128.267.219.464.271.592.054.128.096.389.129.784.031.395.047.656.047.784v.896h1.729v-.896l.048-.784c.032-.523.075-.784.128-.784.054 0 .145-.197.271-.592.129-.395.283-.576.465-.544.182.032.41-.059.688-.272s.608-.256.992-.128c.512 0 .944.085 1.297.256.352.17.607.341.768.512.16.171.282.496.367.976.086.48.129.816.129 1.008v1.248H28.5v24.8H3.668zm2.08-5.664v3.584h4.448v-3.584H5.748zm0-.704h4.448v-3.809H5.748V24zm0-4.512h4.448v-4.16H5.748v4.16zm0-4.832h4.448v-3.584H5.748v3.584zM8.021 8.16c0 .704.395 1.056 1.184 1.056.79 0 1.184-.352 1.184-1.056V4c0-.704-.395-1.056-1.184-1.056-.79 0-1.184.352-1.184 1.056v4.16zm2.847 16.544v3.584h4.864v-3.584h-4.864zm0-.704h4.864v-3.809h-4.864V24zm0-4.512h4.864v-4.16h-4.864v4.16zm0-4.832h4.864v-3.584h-4.864v3.584zM14.9 8.16c0 .704.395 1.056 1.184 1.056.811 0 1.217-.352 1.217-1.056V4c0-.704-.406-1.056-1.217-1.056-.789 0-1.184.352-1.184 1.056v4.16zm1.504 16.544v3.584h4.863v-3.584h-4.863zm0-.704h4.863v-3.809h-4.863V24zm0-4.512h4.863v-4.16h-4.863v4.16zm0-4.832h4.863v-3.584h-4.863v3.584zM21.78 8.16c0 .704.405 1.056 1.216 1.056.789 0 1.184-.352 1.184-1.056V4c0-.704-.395-1.056-1.184-1.056-.811 0-1.216.352-1.216 1.056v4.16zm.16 16.544v3.584h4.479v-3.584H21.94zm0-.704h4.479v-3.809H21.94V24zm0-4.512h4.479v-4.16H21.94v4.16zm0-4.832h4.479v-3.584H21.94v3.584z"/></svg>