<svg xmlns="http://www.w3.org/2000/svg" viewBox="-1.5 0 32 32"><path d="M2.958 7.648c.042-.363.203-.704.48-1.024l3.84-3.84c.299-.256.523-.213.672.128l3.104 5.824c.171.341.117.672-.16.992l-1.408 1.408c-.256.256-.405.587-.448.992 0 .64.331 1.461.992 2.464s1.312 1.856 1.952 2.561l.992 1.023c.299.299.682.667 1.153 1.104.469.437 1.242 1.013 2.319 1.728s1.926 1.072 2.544 1.072c.405 0 .747-.139 1.024-.416L21.679 20c.299-.299.618-.342.959-.128l5.601 3.296c.149.086.235.197.256.336a.409.409 0 01-.128.368l-3.84 3.84c-.32.277-.662.438-1.023.479-1.046.15-2.225.006-3.537-.432a16.002 16.002 0 01-3.647-1.744 44.44 44.44 0 01-3.12-2.207c-.96-.747-1.728-1.387-2.304-1.92l-.832-.801c-.213-.213-.496-.506-.848-.88S8.249 19.099 7.374 18a32.138 32.138 0 01-2.272-3.216c-.64-1.045-1.194-2.235-1.664-3.568-.469-1.333-.629-2.523-.48-3.568z"/></svg>