<svg xmlns="http://www.w3.org/2000/svg" viewBox="2 0 32 32"><path d="M-1.904 24.576V12.672c0-.277.139-.416.416-.416h5.632V8.128c0-.299.139-.448.416-.448h3.136v16.448c0 .299-.128.448-.384.448h-9.216zm3.488-2.656h2.144c.277 0 .416-.149.416-.447V14.88H2c-.277 0-.416.149-.416.448v6.592zm7.2 2.656V12.672c0-.277.139-.416.416-.416h3.136v11.872c0 .299-.128.448-.384.448H8.784zm0-14.24V8.128c0-.299.128-.448.384-.448h3.168v2.208c0 .298-.128.448-.384.448H8.784zm4.768 14.24V12.672c0-.277.139-.416.416-.416h9.217v16.128c0 .277-.139.416-.416.416h-9.217l.032-2.208c0-.299.128-.447.384-.447h5.633v-1.568h-6.049zm3.519-2.656h2.145c.256 0 .385-.149.385-.447V14.88h-2.145c-.256 0-.385.149-.385.448v6.592zm7.328 4.672c0-.299.139-.447.416-.447h5.633v-1.568h-6.049V12.672c0-.277.139-.416.416-.416H34v16.128c0 .277-.128.416-.384.416h-9.217v-2.208zm3.489-4.672h2.145c.277 0 .416-.149.416-.447V14.88h-2.145c-.277 0-.416.149-.416.448v6.592z"/></svg>