<svg xmlns="http://www.w3.org/2000/svg" viewBox="0 0 32 32"><path d="M0 16q0-4.352 2.144-8.032t5.824-5.824T16 0t8.032 2.144 5.824 5.824T32 16t-2.144 8.032-5.824 5.824T16 32t-8.032-2.144-5.824-5.824T0 16zm2.656 0q0 4.992 3.36 8.8 1.536-3.008 4.864-5.728t6.496-3.424q-.48-1.12-.928-2.016-5.504 1.76-11.904 1.76-1.248 0-1.856-.032 0 .128-.016.32t-.016.32zm.416-3.296q.704.064 2.08.064 5.344 0 10.144-1.44-2.432-4.32-5.344-7.2-2.528 1.28-4.336 3.552t-2.544 5.024zM7.84 26.528q3.616 2.816 8.16 2.816 2.368 0 4.704-.896-.64-5.472-2.496-10.592-2.944.64-5.936 3.232t-4.432 5.44zm4.896-23.424q2.816 2.912 5.216 7.264 4.352-1.824 6.56-4.64Q20.8 2.656 16 2.656q-1.632 0-3.264.448zm6.368 9.536q.48 1.024 1.088 2.592 2.368-.224 5.152-.224 1.984 0 3.936.096-.256-4.352-3.136-7.744-2.08 3.104-7.04 5.28zm1.888 4.832q1.632 4.736 2.208 9.728 2.528-1.632 4.128-4.192t1.92-5.536q-2.336-.16-4.256-.16-1.76 0-4 .16z"/></svg>