<svg xmlns="http://www.w3.org/2000/svg" viewBox="-2 0 32 32"><path d="M2 18.688c0-1.492.224-2.912.672-4.255.448-1.344.965-2.443 1.552-3.296a14.402 14.402 0 012.064-2.384c.789-.736 1.397-1.248 1.824-1.536.427-.288.832-.539 1.216-.752.213-.106.528-.267.944-.48s.741-.384.976-.512.539-.31.912-.544a10.6 10.6 0 001.104-.8c.896-.725 1.429-1.931 1.599-3.616 1.559 1.877 2.688 3.05 3.393 3.52.533.362 1.317.778 2.352 1.248 1.035.469 1.819.864 2.353 1.184.405.235.79.485 1.151.752.363.265.939.783 1.728 1.551s1.456 1.579 2 2.432 1.04 1.973 1.488 3.36c.447 1.387.672 2.848.672 4.383 0 3.969-1.359 7.223-4.08 9.761-2.72 2.538-5.989 3.808-9.809 3.808-2.475 0-4.783-.592-6.927-1.775-2.144-1.185-3.877-2.843-5.2-4.977C2.661 23.627 2 21.27 2 18.688zm6.08 4.832c-.043 1.345.405 2.336 1.344 2.977.662.447 1.664.672 3.008.672.875 0 1.915-.314 3.12-.943a66.924 66.924 0 003.36-1.873c1.035-.618 1.787-.917 2.256-.896.49.021 1.317.618 2.48 1.792 1.162 1.174 1.914 1.771 2.256 1.792.426.021.783-.069 1.072-.272.287-.202.623-.581 1.008-1.136.703-1.045 1.056-2.293 1.056-3.743 0-.619-.16-1.201-.479-1.744-.32-.545-.822-.816-1.504-.816-.471 0-1.451.501-2.945 1.504-1.492 1.002-2.495 1.515-3.008 1.536-.469 0-1.119-.294-1.951-.88a33.654 33.654 0 00-2.832-1.776c-1.057-.597-2.107-.896-3.152-.896-1.387.021-2.576.501-3.568 1.439-.993.938-1.499 2.026-1.521 3.263zm6.561 5.76c-.257.213-.257.427 0 .64.98.896 2.74 1.227 5.279.992.49-.043.998-.166 1.52-.368.523-.202.918-.39 1.185-.56.267-.171.442-.299.528-.385.085-.085.127-.256.127-.512-.063-.256-.213-.288-.447-.096-.875.683-2.197 1.023-3.969 1.023-1.6 0-2.772-.299-3.52-.896a.45.45 0 00-.256-.063c-.107.002-.256.076-.447.225zm2.879-1.664c.15.171.448.054.896-.353.043-.021.128-.085.256-.191.128-.107.213-.176.256-.208s.129-.085.256-.16c.129-.075.234-.122.32-.144s.208-.043.368-.064.325-.032.496-.032c.341 0 .618.048.832.144.214.097.347.182.399.257a4.4 4.4 0 01.24.399c.107.214.188.336.24.368s.133.026.24-.016c.256-.149.33-.362.224-.64-.192-.555-.427-.918-.704-1.088-.256-.193-.715-.289-1.376-.289-.555 0-.991.064-1.312.192-.363.149-.832.491-1.408 1.024-.319.257-.393.524-.223.801z"/></svg>