<svg xmlns="http://www.w3.org/2000/svg" viewBox="-2.5 0 32 32"><path d="M2.322 28.032c.064-.661.192-1.366.384-2.112.234-.96 1.002-4.699 2.304-11.216C6.311 8.187 7.068 4.458 7.282 3.52c.256-1.109.512-1.883.768-2.32.256-.438.672-.752 1.248-.944.576-.192 1.504-.288 2.784-.288h7.712c1.259 0 2.698.011 4.319.032 1.622.021 2.859.032 3.713.032.875 0 1.408.48 1.6 1.44.213 1.024-.031 2.005-.736 2.944-.64.854-1.504 1.28-2.592 1.28H13.266l-1.6 7.456 11.264.096c.939 0 1.515.48 1.729 1.44.213.96-.012 1.856-.672 2.688-.576.704-1.323 1.056-2.24 1.056H10.226L8.69 26.368h13.824c1.365 0 2.182.464 2.448 1.392s.085 1.861-.544 2.801c-.629.938-1.35 1.407-2.16 1.407H4.562c-.64 0-1.147-.181-1.52-.544-.374-.362-.603-.854-.688-1.472a8.237 8.237 0 01-.032-1.92z"/></svg>