<svg xmlns="http://www.w3.org/2000/svg" viewBox="4 0 32 32"><path d="M-4.385 19.968h3.808c.107.854.421 1.536.944 2.048.523.512 1.211.769 2.064.769 1.024 0 1.84-.347 2.448-1.04s.912-1.562.912-2.608c0-1.024-.299-1.866-.896-2.528-.598-.661-1.397-.991-2.4-.991-.811 0-1.504.261-2.08.784-.576.523-1.12.784-1.632.784-1.13 0-1.984-.021-2.56-.063.192-1.109.496-2.821.912-5.136.416-2.314.72-4.069.912-5.264h10.56v3.136H.832a115.948 115.948 0 00-.768 4.288H.16c.363-.448.901-.79 1.616-1.024a6.692 6.692 0 012.096-.352c2.411 0 4.117 1.099 5.12 3.296.512-1.28 1.28-2.283 2.304-3.008 1.024-.726 2.208-1.088 3.552-1.088 1.045 0 2.016.208 2.913.624.896.416 1.6.859 2.111 1.328s1.184 1.173 2.016 2.112c.064.064.113.117.145.16.032.043.074.091.128.144l.144.144a56.392 56.392 0 011.601-1.776c.32-.331.811-.763 1.472-1.296.662-.534 1.323-.901 1.984-1.104S28.768 12 29.6 12c1.92 0 3.467.646 4.64 1.936S36 16.843 36 18.784c0 1.983-.588 3.647-1.761 4.991-1.173 1.345-2.741 2.017-4.704 2.017-2.475 0-4.885-1.397-7.232-4.192-.148.15-.564.561-1.248 1.232-.682.672-1.135 1.094-1.359 1.264-.225.171-.619.443-1.184.816-.565.373-1.12.619-1.664.736a8.795 8.795 0 01-1.84.176c-1.344 0-2.528-.352-3.552-1.057-1.024-.703-1.813-1.686-2.368-2.943C7.765 24.555 5.6 25.92 2.591 25.92c-2.026 0-3.696-.507-5.008-1.52-1.312-1.013-1.968-2.491-1.968-4.432zm16.48-.96c0 .896.272 1.621.816 2.176.544.555 1.264.832 2.16.832 1.601 0 3.253-1.013 4.96-3.039a79.883 79.883 0 00-1.535-1.553c-.299-.288-.807-.64-1.521-1.056-.715-.416-1.392-.624-2.032-.624-.832 0-1.515.331-2.048.992a3.518 3.518 0 00-.8 2.272zm12.448 0A22.918 22.918 0 0026 20.464c.395.353.916.698 1.567 1.04s1.307.512 1.968.512c.918 0 1.638-.293 2.16-.88.523-.587.784-1.339.784-2.256 0-.896-.272-1.643-.815-2.239-.545-.598-1.265-.896-2.16-.896-.533 0-1.057.123-1.568.368-.512.246-.901.475-1.168.688-.268.214-.667.598-1.2 1.152s-.875.905-1.025 1.055z"/></svg>