<svg xmlns="http://www.w3.org/2000/svg" viewBox="2.5 0 32 32"><path d="M-2.908 14.176c0-2.24.816-4.154 2.448-5.744 1.632-1.589 3.6-2.384 5.904-2.384 1.813 0 3.44.512 4.88 1.536s2.448 2.347 3.024 3.968l2.112-2.048 5.056 4.864L34.5.096v12.96l-8.545 6.592 1.089 1.151-11.616 11.297-10.112-9.825c-2.283-.042-4.224-.854-5.824-2.432s-2.4-3.465-2.4-5.663zm1.184 0c0 1.92.693 3.553 2.08 4.896s3.061 2.016 5.024 2.016c.704 0 1.397-.096 2.08-.288l7.04 6.24 18.72-14.72.032-9.664-18.496 19.073-2.88-4.672c.426-.918.64-1.878.64-2.881 0-1.898-.699-3.525-2.096-4.88-1.398-1.355-3.078-2.032-5.04-2.032-1.963 0-3.637.677-5.024 2.032s-2.08 2.981-2.08 4.88zm1.536.064c0-1.494.528-2.768 1.584-3.824S3.727 8.832 5.22 8.832s2.768.522 3.824 1.568c1.056 1.045 1.584 2.326 1.584 3.84 0 1.493-.528 2.768-1.584 3.824s-2.331 1.584-3.824 1.584-2.768-.528-3.824-1.584-1.584-2.331-1.584-3.824z"/></svg>