<svg xmlns="http://www.w3.org/2000/svg" viewBox="-14.808 -7.832 32 32"><path d="M-2 26.266c0-1.855.95-3.51 2.851-4.963 1.899-1.451 4.195-2.178 6.885-2.178h1.73c-.898-.854-1.347-1.771-1.347-2.754 0-.618.171-1.238.512-1.856-.213.021-.522.033-.929.033-2.219 0-4.034-.695-5.443-2.083C.85 11.078.145 9.37.145 7.34c0-1.943.875-3.639 2.625-5.091C4.523.796 6.52.071 8.761.071h9.927l-2.209 1.601h-3.137c1.003.384 1.789 1.111 2.353 2.179.566 1.066.85 2.252.85 3.555 0 1.985-.939 3.714-2.819 5.188-.79.618-1.302 1.108-1.537 1.472s-.353.812-.353 1.345c0 .405.29.919.865 1.538a12.756 12.756 0 001.729 1.567c1.301.918 2.205 1.859 2.707 2.818.502.963.751 2.168.751 3.619 0 1.922-.875 3.592-2.625 5.012-1.75 1.422-4.12 2.129-7.11 2.129-2.839 0-5.242-.531-7.205-1.6C-1.017 29.426-2 28.018-2 26.266zm3.586-1.057c0 1.475.625 2.729 1.874 3.764 1.249 1.037 2.802 1.553 4.659 1.553 2.542 0 4.382-.471 5.524-1.408 1.144-.939 1.714-2.188 1.714-3.746 0-.406-.042-.748-.128-1.025a5.513 5.513 0 00-.223-.658 2.478 2.478 0 00-.386-.607 14.721 14.721 0 00-.446-.512 4.838 4.838 0 00-.626-.529 59.858 59.858 0 00-.657-.48c-.149-.105-.415-.293-.801-.561a25.591 25.591 0 00-.833-.561 8.355 8.355 0 00-2.465-.383c-1.922-.021-3.603.479-5.043 1.504-1.44 1.024-2.163 2.241-2.163 3.649zm2.115-17.9c.235 1.686.881 3.137 1.938 4.355 1.058 1.216 2.227 1.835 3.507 1.857 1.26.042 2.264-.512 3.011-1.666.747-1.153 1.014-2.572.799-4.259-.213-1.686-.848-3.117-1.904-4.292-1.058-1.173-2.227-1.781-3.509-1.825-1.28-.041-2.294.502-3.042 1.635-.747 1.131-1.014 2.529-.8 4.195zm17.774.769V6.476h6.404V.071h1.602v6.405h6.438v1.602H29.48v6.437h-1.602V8.078h-6.403z"/></svg>