<svg xmlns="http://www.w3.org/2000/svg" viewBox="-4.5 0 32 32"><path d="M5.132 6.432H27.5l-2.112 22.72-9.088 2.592-9.088-2.592-2.08-22.72zm2.08-1.92V.256h1.44v1.408h1.28V.256h1.408v4.256H9.932V3.104h-1.28v1.408h-1.44zm2.08 6.56l.768 8.512.032-.064h9.6l-.32 3.616L16.3 24l-3.104-.896-.192-2.176h-2.816l.384 4.353 5.728 1.632 5.729-1.632.8-8.544H12.62l-.256-2.848h10.72l.257-2.816H9.292zm2.688-9.376V.256h3.904v1.44h-1.248v2.816h-1.407V1.696H11.98zm4.512 2.816V.256h1.504l.864 1.472.896-1.472h1.504v4.256h-1.377V2.336l-1.023 1.6v-.032L17.899 2.4v2.112h-1.407zm5.504 0V.256h1.408v2.816h1.983v1.44h-3.391z"/></svg>