<svg xmlns="http://www.w3.org/2000/svg" version="1.0" viewBox="0 0 512 512"><path d="M45.5 1.6C35.4 4 25.4 9.7 17.5 17.5 9.5 25.6 4.8 33.6 2 44.2.2 51.3.1 58 .1 255.5 0 477.4-.3 465.2 5.5 477.7c5.7 12.5 16.7 23.4 29.1 28.9 12.9 5.7.3 5.4 223.9 5.1l206-.2 6.4-2.2c18.7-6.6 31.8-19.7 38.4-38.4l2.2-6.4.2-206c.3-228.8.8-211.7-6.5-226.5-4.9-10.1-15-20.2-25.3-25.3-14.6-7.2 2-6.7-224.4-6.6C82.4.2 50.6.4 45.5 1.6zm398.6 60.9c8.2 5.8 8.4 6.4 8.7 44.5.3 37.1.1 39-6 44.9-5.5 5.4-8.1 5.7-44.3 5.6l-33-.1-4.5-2.4c-2.5-1.4-5.7-4.4-7.4-7l-3-4.4-.1-33.1c-.1-18.1.3-34.6.8-36.5 1.4-5.6 4.8-9.9 10.2-12.6l5-2.5 34.7.3 34.6.3 4.3 3zm-168.2 97.1c38.3 7.9 68.5 38.3 76.6 77 1.7 8.1 2.3 24.4 1.1 32.5-4.3 30.8-24.1 59.1-51.3 73.6-8 4.3-20.5 8.9-26.4 9.8-1.9.2-5.9.8-8.9 1.3-12.4 1.8-27.5.2-41.4-4.3-19.6-6.4-35.6-17.8-47.8-33.9-27.6-36.6-26.9-85.6 1.9-121.5 15.7-19.7 41.1-33.5 66-35.9 10.2-1 20.8-.5 30.2 1.4zm-174.1 64.9c-7.1 33-2.2 70.8 13.2 101.5 8.2 16.3 16.3 27.4 29.9 41.1 36.2 36.2 84.9 52.1 136.1 44.4 60.2-8.9 112.3-56.3 127.4-116 4.8-19.2 6-34.9 4.1-56-.6-7.1-3.1-20-4.1-21.6-.3-.5-.2-.9.3-1 3.8-.4 42.7-.3 43.4.2.6.3.8 44.7.7 111.6l-.3 111.1-3 4.3c-1.7 2.4-4.9 5.2-7.5 6.6l-4.5 2.3-182.6-.3-182.5-.2-4.1-2.7c-2.2-1.5-5.1-4.4-6.4-6.5l-2.4-3.8-.3-110.5c-.1-60.8-.1-110.9.2-111.5.2-.6 8.3-1 22.3-1h21.9l-1.8 8z"/></svg>