<svg xmlns="http://www.w3.org/2000/svg" viewBox="1.5 0 32 32"><path d="M-1.156 20.704c-.021-1.345.24-2.587.784-3.728.544-1.142 1.258-2.091 2.144-2.849a17.066 17.066 0 012.944-2.016c1.077-.586 2.155-1.045 3.232-1.376s2.064-.603 2.96-.816 1.622-.352 2.176-.416l.832-.096v3.936c-1.216.085-2.331.293-3.344.624s-1.84.72-2.48 1.168c-.64.448-1.206.934-1.696 1.456-.49.523-.864 1.035-1.12 1.536-.256.501-.459.954-.608 1.36-.149.405-.235.736-.256.992l-.064.384c-.064.319-.096.64-.096.96 0 .469.074.917.224 1.344a4.536 4.536 0 001.216 1.855c.555.513 1.184.987 1.888 1.425.704.437 1.43.789 2.176 1.056s1.429.496 2.048.688c.619.192 1.12.331 1.504.416l.608.097V32c-2.069-.213-3.941-.587-5.616-1.12s-3.024-1.136-4.048-1.808c-1.024-.672-1.91-1.393-2.656-2.16s-1.291-1.52-1.632-2.256-.603-1.397-.784-1.984c-.181-.586-.283-1.061-.304-1.424l-.032-.544zM15.164 32V3.136L19.707 0v29.504L15.164 32zm5.632-18.912h.159a7.889 7.889 0 012.465.48c.896.341 1.578.672 2.048.992l.672.512-2.655 1.088L33.5 18.656v-7.84l-3.424 1.952c-.854-.917-2.054-1.653-3.601-2.208-1.546-.555-2.886-.885-4.016-.992l-1.664-.16v3.68z"/></svg>