<svg xmlns="http://www.w3.org/2000/svg" viewBox="1 0 32 32"><path d="M-.6 19.616c.213-2.966 2.005-4.811 5.376-5.536.256-1.899.709-3.947 1.36-6.144.651-2.197 1.414-3.755 2.288-4.672 1.024-1.045 2.304-1.851 3.84-2.416A13.445 13.445 0 0116.937 0c1.835 0 3.584.416 5.248 1.248s2.911 2.005 3.743 3.52c.406.768.849 2.16 1.328 4.176.48 2.016.806 3.664.977 4.944.32.128.683.192 1.088.192.641 0 .96-.31.96-.928 0-.234-.063-.592-.192-1.072-.127-.48-.181-.859-.16-1.136v-.128h.033c.576 0 1.227.544 1.951 1.632C32.638 13.557 33 14.421 33 15.04c0 .427-.102.805-.304 1.136a3.807 3.807 0 01-.608.784c-.202.192-.555.379-1.056.56-.501.182-.848.294-1.04.336l-1.152.256a2.365 2.365 0 00-.256.064v.832c0 3.691-.82 6.39-2.463 8.096l.799.801c.086.043.353.165.801.367.447.203.826.4 1.136.593s.507.384.592.575c-1.387 1.088-2.794 1.633-4.224 1.633-.726 0-1.525-.182-2.4-.545-1.877.79-3.797 1.185-5.76 1.185-2.518 0-5.013-.65-7.488-1.952-.768.171-1.354.373-1.76.608-.149.085-.432.277-.848.575-.416.299-.805.55-1.168.752-.363.202-.662.304-.897.304a7.194 7.194 0 01-.096-1.184c0-1.686.565-3.029 1.696-4.032-1.28-2.112-1.941-4.854-1.984-8.224l-.224-.033H4.2c-.64-.021-1.451.16-2.432.545-1.024.384-1.707.586-2.048.607a1.039 1.039 0 01-.32-.063zm7.424 2.976c0 .277.075.565.224.864.576 2.048 1.525 3.521 2.848 4.416.917.618 2.048 1.114 3.392 1.487 1.344.374 2.592.561 3.744.561 1.408 0 2.96-.299 4.656-.896 1.696-.597 2.971-1.365 3.823-2.304 1.451-1.558 2.177-4.298 2.177-8.224 0-4.821-.981-8.864-2.944-12.128-.256-.427-.442-.72-.56-.88-.118-.16-.32-.325-.608-.496-.287-.171-.635-.256-1.039-.256-1.067 0-2.209.651-3.425 1.952-1.621-1.002-3.114-1.504-4.48-1.504-1.259 0-2.373.458-3.344 1.376S9.561 8.592 9.017 9.904c-.544 1.312-.992 2.816-1.344 4.512s-.582 3.2-.688 4.512a45.265 45.265 0 00-.161 3.664zm5.792-13.024c0-.469.166-.869.496-1.2.331-.331.72-.496 1.168-.496.469 0 .87.165 1.2.496.331.331.496.73.496 1.2s-.166.864-.496 1.184c-.331.32-.731.48-1.2.48-.448 0-.837-.16-1.168-.48a1.585 1.585 0 01-.496-1.184zm1.792-.576c0 .256.128.384.384.384.106 0 .197-.037.272-.112s.112-.166.112-.272a.423.423 0 00-.112-.288.351.351 0 00-.272-.128c-.255 0-.384.139-.384.416zm3.008 1.92l.064-.064-.032.096-.032-.032zm.16-.16l1.664-1.664 1.633 1.664a5.298 5.298 0 01-1.601.224 6.059 6.059 0 01-1.696-.224zm.065.704c.576.106 1.109.16 1.6.16.47 0 .992-.054 1.568-.16l-1.568 1.568-1.6-1.568zM21 10.944v-.096l.032.064-.032.032zm.864-1.376c0-.469.165-.869.496-1.2.331-.331.73-.496 1.2-.496.469 0 .869.165 1.199.496.331.331.496.73.496 1.2s-.165.864-.496 1.184c-.33.32-.73.48-1.199.48-.47 0-.869-.16-1.2-.48a1.582 1.582 0 01-.496-1.184zm1.792-.576c0 .106.043.197.128.272s.171.112.257.112a.424.424 0 00.287-.112.349.349 0 00.129-.272c0-.277-.139-.416-.416-.416a.346.346 0 00-.272.128.42.42 0 00-.113.288z"/></svg>