<svg xmlns="http://www.w3.org/2000/svg" viewBox="-2 0 32 32"><path d="M1.552 14.528c0-2.603.635-5.013 1.904-7.232 1.27-2.219 2.992-3.973 5.168-5.264C10.8.741 13.179.096 15.76.096c3.925 0 7.28 1.408 10.063 4.224C28.608 7.136 30 10.539 30 14.528c0 2.539-.608 4.89-1.824 7.056s-2.858 3.898-4.929 5.2c.021.042.06.112.113.208.053.096.176.267.367.512.192.246.416.48.672.704s.608.453 1.057.688c.447.234.928.416 1.439.543v2.433c-.768.149-1.482.224-2.144.224-1.067 0-1.974-.191-2.72-.576-1.195-.618-2.166-1.621-2.912-3.008-1.024.277-2.145.416-3.36.416-2.56 0-4.933-.645-7.12-1.936a14.223 14.223 0 01-5.184-5.248c-1.268-2.208-1.903-4.613-1.903-7.216zm7.072 1.888c0 2.475.709 4.592 2.128 6.352 1.418 1.76 3.13 2.641 5.136 2.641.555 0 1.109-.086 1.664-.256-.043-.064-.102-.155-.176-.272s-.229-.314-.465-.592a6.14 6.14 0 00-.752-.752 4.784 4.784 0 00-.991-.624 3.044 3.044 0 00-1.168-.32v-2.816c.213-.021.426-.031.64-.031 2.539 0 4.704.96 6.496 2.88 1.344-1.728 2.016-3.798 2.016-6.208v-3.712c0-2.475-.709-4.592-2.127-6.352-1.42-1.76-3.131-2.64-5.137-2.64-2.005 0-3.717.88-5.136 2.64-1.419 1.76-2.128 3.877-2.128 6.352v3.71z"/></svg>