<svg xmlns="http://www.w3.org/2000/svg" viewBox="0 0 32 32"><path d="M0 7.616q0-.8.512-1.456t1.312-.848l6.304-1.504Q6.112 6.112 6.112 9.184q0 5.92 8.096 9.056.896.352 1.728.784t1.744 1.072 1.472 1.488.56 1.776q0 1.376-1.12 2.144t-2.56.768q-1.856 0-3.872-.72T8.8 23.616l-2.528 5.728q1.792.992 4.608 1.952-.32.064-1.008.272t-1.232.32T7.616 32q-.8 0-1.456-.512t-.848-1.312L.064 8.192Q0 7.808 0 7.616zm13.408 1.472q0-1.216 1.12-1.872t2.432-.656q1.568 0 3.52.56t2.816 1.488l1.952-5.44q-2.88-1.536-5.952-2.016.064 0 1.44-.384t2.288-.576T24.384 0q.8 0 1.456.512t.848 1.312l5.248 21.984q.064.384.064.576 0 .8-.512 1.456t-1.312.848l-4.64 1.088q1.504-2.24 1.504-4.864 0-3.552-2.256-5.84t-5.904-3.504q-5.472-1.856-5.472-4.48z"/></svg>