<svg xmlns="http://www.w3.org/2000/svg" viewBox="5 0 32 32"><path d="M-4.889 22.72v-5.792h7.168v5.729c0 .598.213 1.114.64 1.552s.949.656 1.568.656 1.146-.214 1.584-.64c.438-.428.656-.95.656-1.568V9.12c0-2.496.922-4.624 2.768-6.384 1.846-1.76 4.038-2.64 6.576-2.64 2.538 0 4.73.885 6.576 2.656 1.845 1.771 2.769 3.915 2.769 6.432v2.944l-4.289 1.28-2.848-1.344v-2.56c0-.619-.213-1.141-.641-1.568a2.129 2.129 0 00-1.567-.64c-.619 0-1.146.213-1.584.64s-.656.949-.656 1.568v13.344c0 2.561-.917 4.742-2.752 6.545-1.834 1.803-4.032 2.703-6.592 2.703-2.582 0-4.79-.912-6.624-2.736-1.834-1.824-2.752-4.038-2.752-6.64zm23.168.096V16.96l2.848 1.345 4.289-1.281v5.889c0 .619.213 1.146.639 1.584.428.438.95.656 1.568.656.619 0 1.142-.219 1.568-.656s.641-.965.641-1.584v-5.984H37v5.792c0 2.581-.912 4.79-2.736 6.624-1.824 1.835-4.027 2.752-6.608 2.752s-4.789-.906-6.624-2.72c-1.835-1.815-2.753-4.001-2.753-6.561z"/></svg>