<svg xmlns="http://www.w3.org/2000/svg" viewBox="3.5 0 32 32"><path d="M-3.956 28.576l3.36-11.872c.747-.427 1.659-.757 2.736-.992 1.077-.234 1.968-.373 2.672-.416l1.088-.032c1.067 0 2.176.106 3.328.32 2.155.427 3.69 1.077 4.608 1.952l-3.328 11.84a10.508 10.508 0 00-2.544-1.456c-.928-.373-1.659-.592-2.192-.656l-.832-.128a24.073 24.073 0 00-2.08-.096c-.341 0-.794.017-1.36.048-.565.032-1.456.176-2.672.432-1.216.255-2.144.608-2.784 1.056zM.076 13.312L3.436 1.44C4.183 1.013 5.1.677 6.188.432 7.276.186 8.172.053 8.876.032L9.932 0c1.088 0 2.197.106 3.328.32 2.155.427 3.69 1.078 4.608 1.952L14.54 14.144a10.508 10.508 0 00-2.544-1.456c-.928-.374-1.659-.592-2.192-.656l-.832-.128a24.159 24.159 0 00-2.048-.096c-.341 0-.794.016-1.36.048-.565.032-1.461.171-2.688.416-1.227.246-2.16.592-2.8 1.04zm13.792 16.417l3.328-11.873a11.113 11.113 0 002.576 1.457c.928.373 1.658.592 2.191.655l.801.128c.725.064 1.418.096 2.079.096.341 0 .795-.016 1.36-.047.564-.033 1.461-.172 2.688-.416 1.227-.246 2.15-.593 2.769-1.041l-3.328 11.873c-.747.426-1.664.757-2.752.991-1.088.235-1.984.362-2.688.384L21.836 32c-1.088 0-2.197-.106-3.328-.32-2.154-.426-3.701-1.077-4.64-1.951zm3.84-15.201l3.328-11.84c.789.597 1.648 1.083 2.576 1.456s1.658.592 2.191.656l.801.128a23.68 23.68 0 002.08.096c.341 0 .794-.016 1.359-.048s1.456-.171 2.672-.416c1.217-.246 2.145-.592 2.784-1.04l-3.328 11.84c-.747.427-1.664.763-2.752 1.008-1.088.245-1.995.378-2.72.399l-1.057.064a15.56 15.56 0 01-3.295-.352c-2.154-.404-3.701-1.055-4.639-1.951z"/></svg>