<svg xmlns="http://www.w3.org/2000/svg" viewBox="0 0 128 128"><path d="M64.059 0C34.672 0 9.646 18.924 1.319 45.004h9.297a53.624 53.624 0 013.458-7.442h17.892a75.397 75.397 0 00-1.953 7.442h9.063a69.961 69.961 0 012.285-7.442h17.267v7.442h8.751v-7.442h18.654a65.274 65.274 0 012.56 7.442h9.062c-.608-2.52-1.317-5.005-2.187-7.442h18.576a53.604 53.604 0 013.457 7.442h9.278C118.452 18.924 93.446 0 64.06 0zm13.204 10.294c12.248 2.816 22.946 9.421 30.686 18.517H91.717c-3.625-7.013-8.428-13.343-14.454-18.517zm-28.968.645c-5.424 5.035-9.703 11.132-12.891 17.872H20.168c7.197-8.457 16.948-14.76 28.127-17.872zM67.38 13.75c5.77 3.95 10.425 9.158 14.123 15.06H67.379V13.75zm-8.75.059V28.81H45.443c3.387-5.916 7.711-11.11 13.184-15.001zM3.935 53.462c-.87 0-1.598.196-2.188.605-.59.41-.879.92-.879 1.504 0 .439.126 1.046.41 1.837l4.65 13.36c.14.4.304.85.488 1.328.183.479.44.904.742 1.27s.713.647 1.23.86c.518.212 1.169.312 1.954.312.973 0 1.738-.176 2.324-.527.586-.351 1.005-.728 1.23-1.153.227-.424.507-1.077.86-1.973l4.16-11.72 4.142 11.779c.344.873.62 1.517.84 1.934.22.417.624.806 1.21 1.152.587.346 1.367.508 2.345.508 1.027 0 1.833-.169 2.402-.527.57-.359.968-.763 1.192-1.211.223-.45.486-1.133.8-2.032l4.65-13.36c.288-.84.43-1.446.43-1.837 0-.595-.303-1.1-.9-1.504-.596-.403-1.312-.605-2.167-.605-.858 0-1.52.152-1.973.469-.454.317-.765.661-.938 1.035-.173.374-.352.868-.527 1.465L27.14 67.799l-3.67-10.645c-.343-.894-.622-1.537-.84-1.954-.218-.417-.64-.821-1.23-1.191-.592-.37-1.416-.547-2.481-.547-1.047 0-1.866.171-2.481.527-.615.357-1.055.774-1.309 1.23-.253.457-.53 1.093-.84 1.935l-3.652 10.645-3.301-11.446c-.259-.868-.594-1.559-.997-2.09-.403-.532-1.2-.801-2.402-.801zm44.984 0c-.87 0-1.598.196-2.187.605-.59.41-.88.92-.88 1.504 0 .439.146 1.046.43 1.837l4.65 13.36c.141.4.304.85.488 1.328.183.479.42.904.722 1.27s.713.647 1.231.86c.518.212 1.168.312 1.953.312.974 0 1.758-.176 2.344-.527.587-.351.986-.728 1.211-1.153.226-.424.507-1.077.86-1.973l4.16-11.72 4.141 11.779c.345.873.62 1.517.84 1.934.22.417.625.806 1.211 1.152.587.346 1.367.508 2.344.508 1.028 0 1.833-.169 2.403-.527.57-.359.968-.763 1.191-1.211.224-.45.486-1.133.801-2.032l4.65-13.36c.287-.84.429-1.446.429-1.837 0-.595-.302-1.1-.899-1.504-.597-.403-1.313-.605-2.168-.605-.858 0-1.52.152-1.973.469-.453.317-.764.661-.937 1.035-.174.374-.352.868-.528 1.465l-3.281 11.368-3.672-10.645c-.344-.894-.622-1.537-.84-1.954-.219-.417-.62-.821-1.211-1.191-.592-.37-1.416-.547-2.481-.547-1.047 0-1.885.171-2.5.527-.616.357-1.055.774-1.31 1.23-.253.457-.53 1.093-.839 1.935L55.62 67.799l-3.3-11.446c-.259-.868-.574-1.559-.977-2.09-.403-.532-1.22-.801-2.423-.801zm44.985 0c-.87 0-1.598.196-2.188.605-.59.41-.879.92-.879 1.504 0 .439.146 1.046.43 1.837l4.649 13.36c.142.4.305.85.488 1.328.184.479.421.904.723 1.27s.713.647 1.23.86c.519.212 1.169.312 1.954.312.973 0 1.758-.176 2.344-.527.586-.351.985-.728 1.21-1.153.227-.424.527-1.077.88-1.973l4.14-11.72 4.142 11.779c.345.873.62 1.517.84 1.934.22.417.625.806 1.21 1.152.587.346 1.367.508 2.345.508 1.028 0 1.833-.169 2.402-.527.57-.359.968-.763 1.192-1.211.224-.45.486-1.133.8-2.032l4.65-13.36c.288-.84.43-1.446.43-1.837 0-.595-.283-1.1-.88-1.504-.596-.403-1.332-.605-2.187-.605-.858 0-1.52.152-1.973.469-.453.317-.765.661-.938 1.035-.173.374-.352.868-.527 1.465l-3.262 11.368-3.692-10.645c-.343-.894-.622-1.537-.84-1.954-.218-.417-.62-.821-1.21-1.191-.592-.37-1.417-.547-2.482-.547-1.047 0-1.884.171-2.5.527-.615.357-1.055.774-1.308 1.23-.254.457-.531 1.093-.84 1.935l-3.653 10.645-3.282-11.446c-.258-.868-.593-1.559-.996-2.09-.403-.532-1.22-.801-2.422-.801zM.986 81.843C8.936 108.513 34.24 128 64.06 128c29.819 0 55.122-19.487 63.072-46.157h-9.24a53.9 53.9 0 01-3.164 7.286H95.976a74.442 74.442 0 002.011-7.286h-8.926c-.623 2.492-1.37 4.926-2.285 7.286H67.379v-7.286h-8.75v7.286H40.911a74.04 74.04 0 01-2.07-7.286h-8.986a89.788 89.788 0 001.817 7.286H13.39a53.998 53.998 0 01-3.184-7.286H.986zM19.133 97.88h15.685c3.2 7.405 7.445 14.018 12.911 19.045-11.507-3.329-21.425-10.083-28.596-19.045zm25.432 0h14.063v16.35c-5.683-3.603-10.436-9.347-14.063-16.35zm22.814 0h15.04c-3.818 6.383-8.784 11.905-15.04 15.939V97.88zm25.1 0h16.506c-7.899 9.87-19.146 17.057-32.152 19.943 6.674-5.396 11.86-12.267 15.646-19.943z" style="line-height:normal;-inkscape-font-specification:Sans;text-indent:0;text-align:start;text-decoration-line:none;text-transform:none;block-progression:tb;marker:none" color="#000" font-family="Sans" font-weight="400"/></svg>